<?xml version="1.0" encoding="UTF-8" standalone="no"?>
<!DOCTYPE svg PUBLIC "-//W3C//DTD SVG 1.1//EN"
 "http://www.w3.org/Graphics/SVG/1.1/DTD/svg11.dtd">
<!-- Generated by graphviz version 2.40.1 (20161225.0304)
 -->
<!-- Title: CbmRichRingFinderHoughImpl::DoFind Pages: 1 -->
<svg width="1274pt" height="948pt"
 viewBox="0.00 0.00 1274.00 947.75" xmlns="http://www.w3.org/2000/svg" xmlns:xlink="http://www.w3.org/1999/xlink">
<g id="graph0" class="graph" transform="scale(1 1) rotate(0) translate(4 943.7524)">
<title>CbmRichRingFinderHoughImpl::DoFind</title>
<!-- Node1 -->
<g id="node1" class="node">
<title>Node1</title>
<polygon fill="#bfbfbf" stroke="#000000" points="0,-387.5 0,-419.5 170,-419.5 170,-387.5 0,-387.5"/>
<text text-anchor="start" x="8" y="-406.5" font-family="FreeSans" font-size="10.00" fill="#000000">CbmRichRingFinderHoughImpl</text>
<text text-anchor="middle" x="85" y="-394.5" font-family="FreeSans" font-size="10.00" fill="#000000">::DoFind</text>
</g>
<!-- Node2 -->
<g id="node2" class="node">
<title>Node2</title>
<g id="a_node2"><a xlink:href="../../d2/d30/classCbmRichRingFinderHoughImpl.html#aa7afbf8254e77d6b9ba5484e8eff5cd3" target="_top" xlink:title="Run HT for each hit.">
<polygon fill="none" stroke="#000000" points="206,-716.5 206,-748.5 388,-748.5 388,-716.5 206,-716.5"/>
<text text-anchor="start" x="214" y="-735.5" font-family="FreeSans" font-size="10.00" fill="#000000">CbmRichRingFinderHoughImpl</text>
<text text-anchor="middle" x="297" y="-723.5" font-family="FreeSans" font-size="10.00" fill="#000000">::HoughTransformReconstruction</text>
</a>
</g>
</g>
<!-- Node1&#45;&gt;Node2 -->
<g id="edge1" class="edge">
<title>Node1&#45;&gt;Node2</title>
<path fill="none" stroke="#191970" d="M95.5131,-419.8152C129.9941,-473.3258 239.8004,-643.7328 281.095,-707.8173"/>
<polygon fill="#191970" stroke="#191970" points="278.3147,-709.9642 286.6734,-716.4743 284.1989,-706.1725 278.3147,-709.9642"/>
</g>
<!-- Node25 -->
<g id="node25" class="node">
<title>Node25</title>
<g id="a_node25"><a xlink:href="../../d2/d30/classCbmRichRingFinderHoughImpl.html#a4fe313b8ef573702f076778de9a840c9" target="_top" xlink:title="Ring selection procedure.">
<polygon fill="none" stroke="#000000" points="642.5,-84.5 642.5,-116.5 812.5,-116.5 812.5,-84.5 642.5,-84.5"/>
<text text-anchor="start" x="650.5" y="-103.5" font-family="FreeSans" font-size="10.00" fill="#000000">CbmRichRingFinderHoughImpl</text>
<text text-anchor="middle" x="727.5" y="-91.5" font-family="FreeSans" font-size="10.00" fill="#000000">::RingSelection</text>
</a>
</g>
</g>
<!-- Node1&#45;&gt;Node25 -->
<g id="edge40" class="edge">
<title>Node1&#45;&gt;Node25</title>
<path fill="none" stroke="#191970" d="M119.09,-387.4233C227.4511,-336.3207 563.9234,-177.642 684.2046,-120.9179"/>
<polygon fill="#191970" stroke="#191970" points="685.9404,-123.9691 693.4922,-116.5379 682.9546,-117.6378 685.9404,-123.9691"/>
</g>
<!-- Node3 -->
<g id="node3" class="node">
<title>Node3</title>
<g id="a_node3"><a xlink:href="../../d2/d30/classCbmRichRingFinderHoughImpl.html#abc1ace10e28a15b7203b2e5cadc14538" target="_top" xlink:title="Find hits in a local area.">
<polygon fill="none" stroke="#000000" points="424,-793.5 424,-825.5 594,-825.5 594,-793.5 424,-793.5"/>
<text text-anchor="start" x="432" y="-812.5" font-family="FreeSans" font-size="10.00" fill="#000000">CbmRichRingFinderHoughImpl</text>
<text text-anchor="middle" x="509" y="-800.5" font-family="FreeSans" font-size="10.00" fill="#000000">::DefineLocalAreaAndHits</text>
</a>
</g>
</g>
<!-- Node2&#45;&gt;Node3 -->
<g id="edge2" class="edge">
<title>Node2&#45;&gt;Node3</title>
<path fill="none" stroke="#191970" d="M333.2982,-748.5232C358.4934,-759.3574 392.9743,-773.6179 424,-784.5 429.8106,-786.538 435.8823,-788.55 441.9915,-790.4942"/>
<polygon fill="#191970" stroke="#191970" points="441.0018,-793.8517 451.5904,-793.4876 443.0858,-787.1691 441.0018,-793.8517"/>
</g>
<!-- Node4 -->
<g id="node4" class="node">
<title>Node4</title>
<g id="a_node4"><a xlink:href="../../d2/d30/classCbmRichRingFinderHoughImpl.html#af6b68e62035a80059edd5719b4161929" target="_top" xlink:title="Run HoughTransformGroup for each group of hits.">
<polygon fill="none" stroke="#000000" points="424,-742.5 424,-774.5 594,-774.5 594,-742.5 424,-742.5"/>
<text text-anchor="start" x="432" y="-761.5" font-family="FreeSans" font-size="10.00" fill="#000000">CbmRichRingFinderHoughImpl</text>
<text text-anchor="middle" x="509" y="-749.5" font-family="FreeSans" font-size="10.00" fill="#000000">::HoughTransform</text>
</a>
</g>
</g>
<!-- Node2&#45;&gt;Node4 -->
<g id="edge3" class="edge">
<title>Node2&#45;&gt;Node4</title>
<path fill="none" stroke="#191970" d="M388.1374,-743.6772C396.6876,-744.7258 405.3693,-745.7906 413.9542,-746.8434"/>
<polygon fill="#191970" stroke="#191970" points="413.6222,-750.3289 423.974,-748.0723 414.4744,-743.3809 413.6222,-750.3289"/>
</g>
<!-- Node5 -->
<g id="node5" class="node">
<title>Node5</title>
<g id="a_node5"><a xlink:href="../../d2/d30/classCbmRichRingFinderHoughImpl.html#a87444511c27f63a55d1110b55283df99" target="_top" xlink:title="Find peak in the HT histograms.">
<polygon fill="none" stroke="#000000" points="424,-691.5 424,-723.5 594,-723.5 594,-691.5 424,-691.5"/>
<text text-anchor="start" x="432" y="-710.5" font-family="FreeSans" font-size="10.00" fill="#000000">CbmRichRingFinderHoughImpl</text>
<text text-anchor="middle" x="509" y="-698.5" font-family="FreeSans" font-size="10.00" fill="#000000">::FindPeak</text>
</a>
</g>
</g>
<!-- Node2&#45;&gt;Node5 -->
<g id="edge4" class="edge">
<title>Node2&#45;&gt;Node5</title>
<path fill="none" stroke="#191970" d="M388.1374,-721.7527C396.6876,-720.7444 405.3693,-719.7206 413.9542,-718.7082"/>
<polygon fill="#191970" stroke="#191970" points="414.4527,-722.1738 423.974,-717.5267 413.6328,-715.222 414.4527,-722.1738"/>
</g>
<!-- Node6 -->
<g id="node6" class="node">
<title>Node6</title>
<g id="a_node6"><a xlink:href="../../de/d89/classCbmRichRingLight.html#ab9fbb35cafa00b8f9bc76e005536421b" target="_top" xlink:title="Add new hit to the ring.">
<polygon fill="none" stroke="#000000" points="652,-781.5 652,-801.5 803,-801.5 803,-781.5 652,-781.5"/>
<text text-anchor="middle" x="727.5" y="-788.5" font-family="FreeSans" font-size="10.00" fill="#000000">CbmRichRingLight::AddHit</text>
</a>
</g>
</g>
<!-- Node5&#45;&gt;Node6 -->
<g id="edge5" class="edge">
<title>Node5&#45;&gt;Node6</title>
<path fill="none" stroke="#191970" d="M572.974,-723.6451C580.2701,-726.4777 587.4356,-729.7467 594,-733.5 612.8426,-744.2735 610.9154,-756.1612 630,-766.5 639.0821,-771.4201 649.1682,-775.4009 659.3104,-778.614"/>
<polygon fill="#191970" stroke="#191970" points="658.4396,-782.006 669.0207,-781.4649 660.4116,-775.2895 658.4396,-782.006"/>
</g>
<!-- Node7 -->
<g id="node7" class="node">
<title>Node7</title>
<g id="a_node7"><a xlink:href="../../de/d89/classCbmRichRingLight.html#ad45c397b52a7882866e354cfcd2c1bd6" target="_top" xlink:title="Return number of hits in ring.">
<polygon fill="none" stroke="#000000" points="1093,-243.5 1093,-263.5 1264,-263.5 1264,-243.5 1093,-243.5"/>
<text text-anchor="middle" x="1178.5" y="-250.5" font-family="FreeSans" font-size="10.00" fill="#000000">CbmRichRingLight::GetNofHits</text>
</a>
</g>
</g>
<!-- Node5&#45;&gt;Node7 -->
<g id="edge6" class="edge">
<title>Node5&#45;&gt;Node7</title>
<path fill="none" stroke="#191970" d="M511.3433,-691.1126C521.7892,-620.4169 566.4056,-342.5885 630,-286.5 775.2589,-158.3858 1035.1047,-212.7241 1136.4219,-240.6975"/>
<polygon fill="#191970" stroke="#191970" points="1135.7141,-244.1343 1146.2886,-243.4779 1137.6128,-237.3967 1135.7141,-244.1343"/>
</g>
<!-- Node8 -->
<g id="node8" class="node">
<title>Node8</title>
<g id="a_node8"><a xlink:href="../../d1/d8d/classCbmRichRingFitterCOP.html#a7d89b2ee77f85e61810847380cb5ffae" target="_top" xlink:title="Inherited from CbmRichRingFitterBase.">
<polygon fill="none" stroke="#000000" points="662,-691.5 662,-723.5 793,-723.5 793,-691.5 662,-691.5"/>
<text text-anchor="start" x="670" y="-710.5" font-family="FreeSans" font-size="10.00" fill="#000000">CbmRichRingFitterCOP</text>
<text text-anchor="middle" x="727.5" y="-698.5" font-family="FreeSans" font-size="10.00" fill="#000000">::DoFit</text>
</a>
</g>
</g>
<!-- Node5&#45;&gt;Node8 -->
<g id="edge7" class="edge">
<title>Node5&#45;&gt;Node8</title>
<path fill="none" stroke="#191970" d="M594.1035,-707.5C613.1109,-707.5 633.1449,-707.5 651.7449,-707.5"/>
<polygon fill="#191970" stroke="#191970" points="651.9151,-711.0001 661.915,-707.5 651.915,-704.0001 651.9151,-711.0001"/>
</g>
<!-- Node9 -->
<g id="node9" class="node">
<title>Node9</title>
<g id="a_node9"><a xlink:href="../../de/d89/classCbmRichRingLight.html#a78abf276ad9b4e81849afc5930602335" target="_top" xlink:title="CbmRichRingLight::GetChi2">
<polygon fill="none" stroke="#000000" points="1100.5,-782.5 1100.5,-802.5 1256.5,-802.5 1256.5,-782.5 1100.5,-782.5"/>
<text text-anchor="middle" x="1178.5" y="-789.5" font-family="FreeSans" font-size="10.00" fill="#000000">CbmRichRingLight::GetChi2</text>
</a>
</g>
</g>
<!-- Node5&#45;&gt;Node9 -->
<g id="edge8" class="edge">
<title>Node5&#45;&gt;Node9</title>
<path fill="none" stroke="#191970" d="M581.8284,-723.5879C586.2953,-726.3854 590.4221,-729.6623 594,-733.5 642.5219,-785.5455 574.3152,-845.202 630,-889.5 793.7582,-1019.7717 1072.5674,-860.5107 1154.929,-808.1056"/>
<polygon fill="#191970" stroke="#191970" points="1156.8353,-811.041 1163.347,-802.6834 1153.0447,-805.1562 1156.8353,-811.041"/>
</g>
<!-- Node10 -->
<g id="node10" class="node">
<title>Node10</title>
<g id="a_node10"><a xlink:href="../../de/d89/classCbmRichRingLight.html#aa919c6cf5b852f0b89f0aee7ac8e1573" target="_top" xlink:title="CbmRichRingLight::GetCenterX">
<polygon fill="none" stroke="#000000" points="1091,-391.5 1091,-411.5 1266,-411.5 1266,-391.5 1091,-391.5"/>
<text text-anchor="middle" x="1178.5" y="-398.5" font-family="FreeSans" font-size="10.00" fill="#000000">CbmRichRingLight::GetCenterX</text>
</a>
</g>
</g>
<!-- Node5&#45;&gt;Node10 -->
<g id="edge9" class="edge">
<title>Node5&#45;&gt;Node10</title>
<path fill="none" stroke="#191970" d="M579.4544,-691.4969C595.9718,-688.1477 613.5509,-684.9069 630,-682.5 723.8028,-668.7745 976.4658,-698.6012 1055,-645.5 1134.7425,-591.5819 1165.6391,-470.0241 1175.0428,-421.7837"/>
<polygon fill="#191970" stroke="#191970" points="1178.5367,-422.1361 1176.9042,-411.6678 1171.6522,-420.8693 1178.5367,-422.1361"/>
</g>
<!-- Node11 -->
<g id="node11" class="node">
<title>Node11</title>
<g id="a_node11"><a xlink:href="../../de/d89/classCbmRichRingLight.html#a410d6c9513ea5dde4f59660898139aa7" target="_top" xlink:title="CbmRichRingLight::GetCenterY">
<polygon fill="none" stroke="#000000" points="1091,-313.5 1091,-333.5 1266,-333.5 1266,-313.5 1091,-313.5"/>
<text text-anchor="middle" x="1178.5" y="-320.5" font-family="FreeSans" font-size="10.00" fill="#000000">CbmRichRingLight::GetCenterY</text>
</a>
</g>
</g>
<!-- Node5&#45;&gt;Node11 -->
<g id="edge10" class="edge">
<title>Node5&#45;&gt;Node11</title>
<path fill="none" stroke="#191970" d="M515.1291,-691.0572C542.2341,-621.2486 659.0153,-349.4806 861,-272.5 941.5691,-241.7934 970.4255,-255.7243 1055,-272.5 1089.7513,-279.3931 1126.994,-296.2133 1151.3868,-308.6624"/>
<polygon fill="#191970" stroke="#191970" points="1149.9005,-311.8346 1160.3856,-313.3556 1153.1374,-305.628 1149.9005,-311.8346"/>
</g>
<!-- Node12 -->
<g id="node12" class="node">
<title>Node12</title>
<g id="a_node12"><a xlink:href="../../de/d89/classCbmRichRingLight.html#a7075628216df426788b864369f6d9c61" target="_top" xlink:title="CbmRichRingLight::GetRadius">
<polygon fill="none" stroke="#000000" points="1094.5,-699.5 1094.5,-719.5 1262.5,-719.5 1262.5,-699.5 1094.5,-699.5"/>
<text text-anchor="middle" x="1178.5" y="-706.5" font-family="FreeSans" font-size="10.00" fill="#000000">CbmRichRingLight::GetRadius</text>
</a>
</g>
</g>
<!-- Node5&#45;&gt;Node12 -->
<g id="edge11" class="edge">
<title>Node5&#45;&gt;Node12</title>
<path fill="none" stroke="#191970" d="M579.3264,-723.5624C584.6029,-726.3596 589.5821,-729.6438 594,-733.5 622.7645,-758.6074 597.8389,-790.9223 630,-811.5 710.1026,-862.7522 964.3301,-790.1737 1055,-761.5 1087.8976,-751.0963 1124.1288,-735.294 1148.7891,-723.8402"/>
<polygon fill="#191970" stroke="#191970" points="1150.3995,-726.9507 1157.9631,-719.5317 1147.4237,-720.6147 1150.3995,-726.9507"/>
</g>
<!-- Node13 -->
<g id="node13" class="node">
<title>Node13</title>
<g id="a_node13"><a xlink:href="../../df/d59/classCbmRichRingSelectAnn.html#a460e67e14cc9ec9f614a02692e63aa3a" target="_top" xlink:title="CbmRichRingSelectAnn\l::DoSelect">
<polygon fill="none" stroke="#000000" points="660,-487.5 660,-519.5 795,-519.5 795,-487.5 660,-487.5"/>
<text text-anchor="start" x="668" y="-506.5" font-family="FreeSans" font-size="10.00" fill="#000000">CbmRichRingSelectAnn</text>
<text text-anchor="middle" x="727.5" y="-494.5" font-family="FreeSans" font-size="10.00" fill="#000000">::DoSelect</text>
</a>
</g>
</g>
<!-- Node5&#45;&gt;Node13 -->
<g id="edge12" class="edge">
<title>Node5&#45;&gt;Node13</title>
<path fill="none" stroke="#191970" d="M526.1453,-691.4925C564.5822,-655.6063 657.7758,-568.5972 702.6029,-526.7449"/>
<polygon fill="#191970" stroke="#191970" points="705.211,-529.0982 710.132,-519.7155 700.434,-523.9815 705.211,-529.0982"/>
</g>
<!-- Node23 -->
<g id="node23" class="node">
<title>Node23</title>
<g id="a_node23"><a xlink:href="../../de/d89/classCbmRichRingLight.html#aa53086612b523dad63913ddbf5f81ca7" target="_top" xlink:title="CbmRichRingLight::GetSelectionNN">
<polygon fill="none" stroke="#000000" points="630,-859.5 630,-879.5 825,-879.5 825,-859.5 630,-859.5"/>
<text text-anchor="middle" x="727.5" y="-866.5" font-family="FreeSans" font-size="10.00" fill="#000000">CbmRichRingLight::GetSelectionNN</text>
</a>
</g>
</g>
<!-- Node5&#45;&gt;Node23 -->
<g id="edge33" class="edge">
<title>Node5&#45;&gt;Node23</title>
<path fill="none" stroke="#191970" d="M581.0578,-723.708C585.762,-726.4755 590.1489,-729.713 594,-733.5 630.979,-769.8638 592.1972,-808.9932 630,-844.5 634.4063,-848.6387 639.4021,-852.1153 644.7477,-855.0333"/>
<polygon fill="#191970" stroke="#191970" points="643.4965,-858.3135 654.0318,-859.4348 646.4952,-851.9883 643.4965,-858.3135"/>
</g>
<!-- Node24 -->
<g id="node24" class="node">
<title>Node24</title>
<g id="a_node24"><a xlink:href="../../d2/d30/classCbmRichRingFinderHoughImpl.html#a037089618d8834d02607c70c3a63b04c" target="_top" xlink:title="Set fIsUsed flag to true for hits attached to the ring.">
<polygon fill="none" stroke="#000000" points="873,-693.5 873,-725.5 1043,-725.5 1043,-693.5 873,-693.5"/>
<text text-anchor="start" x="881" y="-712.5" font-family="FreeSans" font-size="10.00" fill="#000000">CbmRichRingFinderHoughImpl</text>
<text text-anchor="middle" x="958" y="-700.5" font-family="FreeSans" font-size="10.00" fill="#000000">::RemoveHitsAroundRing</text>
</a>
</g>
</g>
<!-- Node5&#45;&gt;Node24 -->
<g id="edge34" class="edge">
<title>Node5&#45;&gt;Node24</title>
<path fill="none" stroke="#191970" d="M571.3934,-723.5423C590.1065,-727.6374 610.7704,-731.4573 630,-733.5 716.1818,-742.6547 738.6784,-741.226 825,-733.5 840.3364,-732.1273 856.5499,-729.8813 872.183,-727.2999"/>
<polygon fill="#191970" stroke="#191970" points="873.0899,-730.6957 882.3573,-725.5609 871.9105,-723.7958 873.0899,-730.6957"/>
</g>
<!-- Node13&#45;&gt;Node7 -->
<g id="edge14" class="edge">
<title>Node13&#45;&gt;Node7</title>
<path fill="none" stroke="#191970" d="M731.2541,-487.2063C742.3075,-443.4005 779.2256,-323.005 861,-272.5 940.8795,-223.1653 1054.7024,-230.981 1122.1474,-241.7955"/>
<polygon fill="#191970" stroke="#191970" points="1121.715,-245.2719 1132.1567,-243.4774 1122.875,-238.3686 1121.715,-245.2719"/>
</g>
<!-- Node13&#45;&gt;Node9 -->
<g id="edge32" class="edge">
<title>Node13&#45;&gt;Node9</title>
<path fill="none" stroke="#191970" d="M736.7641,-519.5849C754.5646,-550.6874 794.4855,-621.3981 825,-682.5 842.2392,-717.0196 829.6027,-739.0723 861,-761.5 934.8371,-814.2434 1044.2101,-812.173 1113.3897,-803.8467"/>
<polygon fill="#191970" stroke="#191970" points="1114.2426,-807.266 1123.7157,-802.5215 1113.3515,-800.323 1114.2426,-807.266"/>
</g>
<!-- Node13&#45;&gt;Node12 -->
<g id="edge13" class="edge">
<title>Node13&#45;&gt;Node12</title>
<path fill="none" stroke="#191970" d="M736.2321,-519.6824C764.1804,-571.3384 850.2391,-729.2769 861,-735.5 953.0641,-788.7417 1085.9628,-747.3282 1146.4048,-723.4199"/>
<polygon fill="#191970" stroke="#191970" points="1147.8533,-726.6094 1155.806,-719.609 1145.2236,-720.1221 1147.8533,-726.6094"/>
</g>
<!-- Node14 -->
<g id="node14" class="node">
<title>Node14</title>
<g id="a_node14"><a xlink:href="../../de/d89/classCbmRichRingLight.html#a6db1a3770fdf9a3c5281f0bfecd9efa6" target="_top" xlink:title="Return radial position of the ring.">
<polygon fill="none" stroke="#000000" points="875.5,-603.5 875.5,-635.5 1040.5,-635.5 1040.5,-603.5 875.5,-603.5"/>
<text text-anchor="start" x="883.5" y="-622.5" font-family="FreeSans" font-size="10.00" fill="#000000">CbmRichRingLight::GetRadial</text>
<text text-anchor="middle" x="958" y="-610.5" font-family="FreeSans" font-size="10.00" fill="#000000">Position</text>
</a>
</g>
</g>
<!-- Node13&#45;&gt;Node14 -->
<g id="edge15" class="edge">
<title>Node13&#45;&gt;Node14</title>
<path fill="none" stroke="#191970" d="M746.5604,-519.681C771.3701,-539.9603 816.7968,-574.4798 861,-594.5 865.4208,-596.5022 870.0304,-598.365 874.7352,-600.0949"/>
<polygon fill="#191970" stroke="#191970" points="873.9011,-603.5096 884.4959,-603.4614 876.1836,-596.8921 873.9011,-603.5096"/>
</g>
<!-- Node15 -->
<g id="node15" class="node">
<title>Node15</title>
<g id="a_node15"><a xlink:href="../../de/d89/classCbmRichRingLight.html#a772e927fd4641eedbca0fe1ee299d7db" target="_top" xlink:title="CbmRichRingLight::SetSelectionNN">
<polygon fill="none" stroke="#000000" points="861,-564.5 861,-584.5 1055,-584.5 1055,-564.5 861,-564.5"/>
<text text-anchor="middle" x="958" y="-571.5" font-family="FreeSans" font-size="10.00" fill="#000000">CbmRichRingLight::SetSelectionNN</text>
</a>
</g>
</g>
<!-- Node13&#45;&gt;Node15 -->
<g id="edge16" class="edge">
<title>Node13&#45;&gt;Node15</title>
<path fill="none" stroke="#191970" d="M763.4436,-519.5154C789.9775,-530.839 827.1988,-545.6913 861,-555.5 869.714,-558.0287 878.9664,-560.3234 888.1631,-562.3728"/>
<polygon fill="#191970" stroke="#191970" points="887.5811,-565.8275 898.0924,-564.4999 889.0474,-558.9828 887.5811,-565.8275"/>
</g>
<!-- Node16 -->
<g id="node16" class="node">
<title>Node16</title>
<g id="a_node16"><a xlink:href="../../de/d89/classCbmRichRingLight.html#a86ff8ff2942cd1ab1103179d5eb5c791" target="_top" xlink:title="CbmRichRingLight::SetNof\lHitsOnRing">
<polygon fill="none" stroke="#000000" points="882.5,-513.5 882.5,-545.5 1033.5,-545.5 1033.5,-513.5 882.5,-513.5"/>
<text text-anchor="start" x="890.5" y="-532.5" font-family="FreeSans" font-size="10.00" fill="#000000">CbmRichRingLight::SetNof</text>
<text text-anchor="middle" x="958" y="-520.5" font-family="FreeSans" font-size="10.00" fill="#000000">HitsOnRing</text>
</a>
</g>
</g>
<!-- Node13&#45;&gt;Node16 -->
<g id="edge17" class="edge">
<title>Node13&#45;&gt;Node16</title>
<path fill="none" stroke="#191970" d="M795.1002,-511.1252C819.2583,-513.8502 846.8067,-516.9576 872.2891,-519.832"/>
<polygon fill="#191970" stroke="#191970" points="871.9856,-523.3198 882.315,-520.9629 872.7703,-516.364 871.9856,-523.3198"/>
</g>
<!-- Node17 -->
<g id="node17" class="node">
<title>Node17</title>
<g id="a_node17"><a xlink:href="../../d1/dba/classCbmRichRingSelectImpl.html#ab5ef0bafb7726bc2f46bed37930b7ddf" target="_top" xlink:title="CbmRichRingSelectImpl\l::GetNofHitsOnRingCircle">
<polygon fill="none" stroke="#000000" points="886.5,-372.5 886.5,-404.5 1029.5,-404.5 1029.5,-372.5 886.5,-372.5"/>
<text text-anchor="start" x="894.5" y="-391.5" font-family="FreeSans" font-size="10.00" fill="#000000">CbmRichRingSelectImpl</text>
<text text-anchor="middle" x="958" y="-379.5" font-family="FreeSans" font-size="10.00" fill="#000000">::GetNofHitsOnRingCircle</text>
</a>
</g>
</g>
<!-- Node13&#45;&gt;Node17 -->
<g id="edge18" class="edge">
<title>Node13&#45;&gt;Node17</title>
<path fill="none" stroke="#191970" d="M747.0256,-487.1596C771.9621,-467.0706 817.1541,-433.2229 861,-413.5 866.0058,-411.2483 871.2517,-409.1718 876.6024,-407.2615"/>
<polygon fill="#191970" stroke="#191970" points="877.9512,-410.5008 886.3178,-404.0006 875.7238,-403.8646 877.9512,-410.5008"/>
</g>
<!-- Node19 -->
<g id="node19" class="node">
<title>Node19</title>
<g id="a_node19"><a xlink:href="../../de/d89/classCbmRichRingLight.html#af2caa2929d8cdbd9c4da8e5cd5bd66f3" target="_top" xlink:title="CbmRichRingLight::GetNof\lHitsOnRing">
<polygon fill="none" stroke="#000000" points="882,-462.5 882,-494.5 1034,-494.5 1034,-462.5 882,-462.5"/>
<text text-anchor="start" x="890" y="-481.5" font-family="FreeSans" font-size="10.00" fill="#000000">CbmRichRingLight::GetNof</text>
<text text-anchor="middle" x="958" y="-469.5" font-family="FreeSans" font-size="10.00" fill="#000000">HitsOnRing</text>
</a>
</g>
</g>
<!-- Node13&#45;&gt;Node19 -->
<g id="edge24" class="edge">
<title>Node13&#45;&gt;Node19</title>
<path fill="none" stroke="#191970" d="M795.1002,-496.1681C819.141,-493.5606 846.5393,-490.589 871.9178,-487.8365"/>
<polygon fill="#191970" stroke="#191970" points="872.3407,-491.3112 881.905,-486.7533 871.5859,-484.352 872.3407,-491.3112"/>
</g>
<!-- Node20 -->
<g id="node20" class="node">
<title>Node20</title>
<g id="a_node20"><a xlink:href="../../de/d89/classCbmRichRingLight.html#a70834302e2f7c2cf4fb407bd1a45943d" target="_top" xlink:title="CbmRichRingLight::SetAngle">
<polygon fill="none" stroke="#000000" points="877.5,-423.5 877.5,-443.5 1038.5,-443.5 1038.5,-423.5 877.5,-423.5"/>
<text text-anchor="middle" x="958" y="-430.5" font-family="FreeSans" font-size="10.00" fill="#000000">CbmRichRingLight::SetAngle</text>
</a>
</g>
</g>
<!-- Node13&#45;&gt;Node20 -->
<g id="edge25" class="edge">
<title>Node13&#45;&gt;Node20</title>
<path fill="none" stroke="#191970" d="M765.5271,-487.4576C791.9543,-476.7564 828.1841,-462.9665 861,-453.5 870.9532,-450.6288 881.5938,-448.0013 892.0471,-445.6619"/>
<polygon fill="#191970" stroke="#191970" points="892.9516,-449.0472 901.9834,-443.5086 891.469,-442.206 892.9516,-449.0472"/>
</g>
<!-- Node21 -->
<g id="node21" class="node">
<title>Node21</title>
<g id="a_node21"><a xlink:href="../../d1/dba/classCbmRichRingSelectImpl.html#adf3208d912cb3ace9bf440288a3aff25" target="_top" xlink:title="CbmRichRingSelectImpl\l::GetAngle">
<polygon fill="none" stroke="#000000" points="889.5,-321.5 889.5,-353.5 1026.5,-353.5 1026.5,-321.5 889.5,-321.5"/>
<text text-anchor="start" x="897.5" y="-340.5" font-family="FreeSans" font-size="10.00" fill="#000000">CbmRichRingSelectImpl</text>
<text text-anchor="middle" x="958" y="-328.5" font-family="FreeSans" font-size="10.00" fill="#000000">::GetAngle</text>
</a>
</g>
</g>
<!-- Node13&#45;&gt;Node21 -->
<g id="edge26" class="edge">
<title>Node13&#45;&gt;Node21</title>
<path fill="none" stroke="#191970" d="M738.2203,-487.1678C758.5166,-457.5876 805.527,-395.1875 861,-362.5 866.8386,-359.0596 873.1474,-356.0873 879.6478,-353.5203"/>
<polygon fill="#191970" stroke="#191970" points="881.0604,-356.7315 889.2764,-350.0421 878.6821,-350.1478 881.0604,-356.7315"/>
</g>
<!-- Node22 -->
<g id="node22" class="node">
<title>Node22</title>
<g id="a_node22"><a xlink:href="../../de/d89/classCbmRichRingLight.html#a6c7593c19098c63540e9da1f06ac4076" target="_top" xlink:title="CbmRichRingLight::GetAngle">
<polygon fill="none" stroke="#000000" points="876.5,-282.5 876.5,-302.5 1039.5,-302.5 1039.5,-282.5 876.5,-282.5"/>
<text text-anchor="middle" x="958" y="-289.5" font-family="FreeSans" font-size="10.00" fill="#000000">CbmRichRingLight::GetAngle</text>
</a>
</g>
</g>
<!-- Node13&#45;&gt;Node22 -->
<g id="edge31" class="edge">
<title>Node13&#45;&gt;Node22</title>
<path fill="none" stroke="#191970" d="M733.6473,-487.4591C748.9086,-449.955 792.3263,-356.3286 861,-311.5 863.6449,-309.7735 866.4109,-308.197 869.267,-306.7579"/>
<polygon fill="#191970" stroke="#191970" points="870.921,-309.8537 878.6564,-302.6139 868.0946,-303.4496 870.921,-309.8537"/>
</g>
<!-- Node17&#45;&gt;Node7 -->
<g id="edge19" class="edge">
<title>Node17&#45;&gt;Node7</title>
<path fill="none" stroke="#191970" d="M1029.5431,-376.1143C1038.6274,-372.6402 1047.3922,-368.1929 1055,-362.5 1079.5946,-344.096 1068.9693,-324.9069 1091,-303.5 1106.3518,-288.5829 1127.0146,-276.504 1144.4058,-267.9576"/>
<polygon fill="#191970" stroke="#191970" points="1146.1302,-271.0139 1153.6766,-263.5774 1143.1398,-264.6848 1146.1302,-271.0139"/>
</g>
<!-- Node17&#45;&gt;Node10 -->
<g id="edge21" class="edge">
<title>Node17&#45;&gt;Node10</title>
<path fill="none" stroke="#191970" d="M1029.59,-392.7207C1045.8836,-393.6813 1063.4671,-394.718 1080.6442,-395.7307"/>
<polygon fill="#191970" stroke="#191970" points="1080.5093,-399.2288 1090.6979,-396.3235 1080.9213,-392.2409 1080.5093,-399.2288"/>
</g>
<!-- Node17&#45;&gt;Node11 -->
<g id="edge22" class="edge">
<title>Node17&#45;&gt;Node11</title>
<path fill="none" stroke="#191970" d="M1026.2744,-372.472C1036.043,-369.5252 1045.8686,-366.1949 1055,-362.5 1071.967,-355.6346 1073.8729,-348.9557 1091,-342.5 1097.2548,-340.1424 1103.877,-338.0407 1110.5668,-336.1756"/>
<polygon fill="#191970" stroke="#191970" points="1111.5919,-339.5253 1120.3815,-333.6098 1109.8214,-332.7529 1111.5919,-339.5253"/>
</g>
<!-- Node17&#45;&gt;Node12 -->
<g id="edge23" class="edge">
<title>Node17&#45;&gt;Node12</title>
<path fill="none" stroke="#191970" d="M1029.6279,-398.7585C1038.8572,-402.3402 1047.6392,-407.1233 1055,-413.5 1142.0304,-488.8948 1169.0427,-635.6265 1176.2117,-689.2509"/>
<polygon fill="#191970" stroke="#191970" points="1172.7444,-689.7313 1177.4548,-699.2214 1179.6906,-688.8652 1172.7444,-689.7313"/>
</g>
<!-- Node18 -->
<g id="node18" class="node">
<title>Node18</title>
<g id="a_node18"><a xlink:href="../../de/d89/classCbmRichRingLight.html#ac2451e7309a97a6ac4e8d49796e60ac9" target="_top" xlink:title="Return hit by the index.">
<polygon fill="none" stroke="#000000" points="1104,-352.5 1104,-372.5 1253,-372.5 1253,-352.5 1104,-352.5"/>
<text text-anchor="middle" x="1178.5" y="-359.5" font-family="FreeSans" font-size="10.00" fill="#000000">CbmRichRingLight::GetHit</text>
</a>
</g>
</g>
<!-- Node17&#45;&gt;Node18 -->
<g id="edge20" class="edge">
<title>Node17&#45;&gt;Node18</title>
<path fill="none" stroke="#191970" d="M1029.59,-380.0585C1050.1076,-377.6392 1072.6705,-374.9788 1093.8916,-372.4765"/>
<polygon fill="#191970" stroke="#191970" points="1094.3383,-375.9482 1103.8596,-371.3011 1093.5185,-368.9963 1094.3383,-375.9482"/>
</g>
<!-- Node21&#45;&gt;Node7 -->
<g id="edge27" class="edge">
<title>Node21&#45;&gt;Node7</title>
<path fill="none" stroke="#191970" d="M1024.235,-321.4313C1034.6272,-318.4279 1045.1751,-315.0917 1055,-311.5 1088.7818,-299.1505 1125.9381,-281.0457 1150.5808,-268.3578"/>
<polygon fill="#191970" stroke="#191970" points="1152.4386,-271.3367 1159.6956,-263.6175 1149.2088,-265.1263 1152.4386,-271.3367"/>
</g>
<!-- Node21&#45;&gt;Node10 -->
<g id="edge28" class="edge">
<title>Node21&#45;&gt;Node10</title>
<path fill="none" stroke="#191970" d="M1026.7332,-353.0793C1036.3396,-355.8729 1045.9977,-359.0194 1055,-362.5 1071.8743,-369.0242 1074.0375,-375.2087 1091,-381.5 1098.4786,-384.2738 1106.4648,-386.7379 1114.4566,-388.9054"/>
<polygon fill="#191970" stroke="#191970" points="1113.6173,-392.3033 1124.1738,-391.4029 1115.3599,-385.5237 1113.6173,-392.3033"/>
</g>
<!-- Node21&#45;&gt;Node11 -->
<g id="edge29" class="edge">
<title>Node21&#45;&gt;Node11</title>
<path fill="none" stroke="#191970" d="M1026.5589,-333.1471C1043.7326,-332.0567 1062.4891,-330.8658 1080.7795,-329.7045"/>
<polygon fill="#191970" stroke="#191970" points="1081.1218,-333.1899 1090.8799,-329.0632 1080.6782,-326.204 1081.1218,-333.1899"/>
</g>
<!-- Node21&#45;&gt;Node18 -->
<g id="edge30" class="edge">
<title>Node21&#45;&gt;Node18</title>
<path fill="none" stroke="#191970" d="M1026.5589,-345.2731C1047.8275,-347.6845 1071.5237,-350.3712 1093.7558,-352.8918"/>
<polygon fill="#191970" stroke="#191970" points="1093.5229,-356.3877 1103.8536,-354.0367 1094.3116,-349.4323 1093.5229,-356.3877"/>
</g>
<!-- Node24&#45;&gt;Node7 -->
<g id="edge36" class="edge">
<title>Node24&#45;&gt;Node7</title>
<path fill="none" stroke="#191970" d="M997.9134,-693.3041C1018.4658,-682.8137 1041.8995,-667.0498 1055,-645.5 1134.3946,-514.8994 1007.4623,-431.49 1091,-303.5 1101.7314,-287.0582 1119.868,-275.4233 1136.8555,-267.5405"/>
<polygon fill="#191970" stroke="#191970" points="1138.3269,-270.7176 1146.1205,-263.5405 1135.5523,-264.2909 1138.3269,-270.7176"/>
</g>
<!-- Node24&#45;&gt;Node9 -->
<g id="edge35" class="edge">
<title>Node24&#45;&gt;Node9</title>
<path fill="none" stroke="#191970" d="M1000.5146,-725.5032C1041.7013,-741.0066 1103.4793,-764.2609 1142.3592,-778.896"/>
<polygon fill="#191970" stroke="#191970" points="1141.1321,-782.1738 1151.7241,-782.4211 1143.5982,-775.6225 1141.1321,-782.1738"/>
</g>
<!-- Node24&#45;&gt;Node10 -->
<g id="edge37" class="edge">
<title>Node24&#45;&gt;Node10</title>
<path fill="none" stroke="#191970" d="M1032.0635,-693.2727C1040.3931,-689.3642 1048.2833,-684.5153 1055,-678.5 1135.4061,-606.4904 1166.2307,-472.1868 1175.3216,-421.5295"/>
<polygon fill="#191970" stroke="#191970" points="1178.7953,-421.9799 1177.0234,-411.5343 1171.8946,-420.805 1178.7953,-421.9799"/>
</g>
<!-- Node24&#45;&gt;Node11 -->
<g id="edge38" class="edge">
<title>Node24&#45;&gt;Node11</title>
<path fill="none" stroke="#191970" d="M997.3085,-693.4861C1017.9429,-682.9753 1041.6496,-667.1334 1055,-645.5 1126.22,-530.0928 999.7963,-442.8643 1091,-342.5 1091.7841,-341.6372 1092.5973,-340.8086 1093.4373,-340.013"/>
<polygon fill="#191970" stroke="#191970" points="1095.8516,-342.5722 1101.6562,-333.7089 1091.5913,-337.0179 1095.8516,-342.5722"/>
</g>
<!-- Node24&#45;&gt;Node12 -->
<g id="edge39" class="edge">
<title>Node24&#45;&gt;Node12</title>
<path fill="none" stroke="#191970" d="M1043.2511,-709.5C1056.578,-709.5 1070.4195,-709.5 1083.9395,-709.5"/>
<polygon fill="#191970" stroke="#191970" points="1084.202,-713.0001 1094.202,-709.5 1084.2019,-706.0001 1084.202,-713.0001"/>
</g>
<!-- Node25&#45;&gt;Node7 -->
<g id="edge42" class="edge">
<title>Node25&#45;&gt;Node7</title>
<path fill="none" stroke="#191970" d="M812.8164,-112.5879C894.8414,-124.9836 1012.4507,-145.0117 1055,-163.5 1096.6086,-181.5795 1137.7342,-215.6623 1160.4571,-236.3023"/>
<polygon fill="#191970" stroke="#191970" points="1158.2447,-239.0236 1167.9628,-243.2437 1162.9975,-233.8844 1158.2447,-239.0236"/>
</g>
<!-- Node26 -->
<g id="node26" class="node">
<title>Node26</title>
<g id="a_node26"><a xlink:href="../../de/d89/classCbmRichRingLight.html#a5c70e612149fd75fc6fe47668ccfdbda" target="_top" xlink:title="CbmRichRingLight::SetRecFlag">
<polygon fill="none" stroke="#000000" points="872,-90.5 872,-110.5 1044,-110.5 1044,-90.5 872,-90.5"/>
<text text-anchor="middle" x="958" y="-97.5" font-family="FreeSans" font-size="10.00" fill="#000000">CbmRichRingLight::SetRecFlag</text>
</a>
</g>
</g>
<!-- Node25&#45;&gt;Node26 -->
<g id="edge41" class="edge">
<title>Node25&#45;&gt;Node26</title>
<path fill="none" stroke="#191970" d="M812.6748,-100.5C828.6051,-100.5 845.3597,-100.5 861.6008,-100.5"/>
<polygon fill="#191970" stroke="#191970" points="861.635,-104.0001 871.635,-100.5 861.6349,-97.0001 861.635,-104.0001"/>
</g>
<!-- Node27 -->
<g id="node27" class="node">
<title>Node27</title>
<g id="a_node27"><a xlink:href="../../de/d89/classCbmRichRingLight.html#aab317abd74af8e423dce412c3b049456" target="_top" xlink:title="Return hit index in TClonesArray.">
<polygon fill="none" stroke="#000000" points="1100,-.5 1100,-20.5 1257,-20.5 1257,-.5 1100,-.5"/>
<text text-anchor="middle" x="1178.5" y="-7.5" font-family="FreeSans" font-size="10.00" fill="#000000">CbmRichRingLight::GetHitId</text>
</a>
</g>
</g>
<!-- Node25&#45;&gt;Node27 -->
<g id="edge43" class="edge">
<title>Node25&#45;&gt;Node27</title>
<path fill="none" stroke="#191970" d="M750.3082,-84.4111C775.8987,-67.3355 819.3049,-41.2319 861,-29.5 936.1805,-8.3463 1025.2004,-4.767 1089.8206,-5.8001"/>
<polygon fill="#191970" stroke="#191970" points="1089.9083,-9.3024 1099.9764,-6.0035 1090.0485,-2.3038 1089.9083,-9.3024"/>
</g>
<!-- Node28 -->
<g id="node28" class="node">
<title>Node28</title>
<g id="a_node28"><a xlink:href="../../d2/d30/classCbmRichRingFinderHoughImpl.html#aca224cfe22a1e26284697100c39ec14b" target="_top" xlink:title="Reassign shared hits from two rings to only one of the rings.">
<polygon fill="none" stroke="#000000" points="873,-39.5 873,-71.5 1043,-71.5 1043,-39.5 873,-39.5"/>
<text text-anchor="start" x="881" y="-58.5" font-family="FreeSans" font-size="10.00" fill="#000000">CbmRichRingFinderHoughImpl</text>
<text text-anchor="middle" x="958" y="-46.5" font-family="FreeSans" font-size="10.00" fill="#000000">::ReAssignSharedHits</text>
</a>
</g>
</g>
<!-- Node25&#45;&gt;Node28 -->
<g id="edge44" class="edge">
<title>Node25&#45;&gt;Node28</title>
<path fill="none" stroke="#191970" d="M809.7396,-84.4445C827.932,-80.8929 847.323,-77.1072 865.8796,-73.4845"/>
<polygon fill="#191970" stroke="#191970" points="866.6481,-76.9006 875.7922,-71.5493 865.3068,-70.0303 866.6481,-76.9006"/>
</g>
<!-- Node28&#45;&gt;Node7 -->
<g id="edge45" class="edge">
<title>Node28&#45;&gt;Node7</title>
<path fill="none" stroke="#191970" d="M1038.8366,-71.5248C1044.5224,-74.0855 1049.9817,-77.0555 1055,-80.5 1070.345,-91.0326 1138.202,-192.4031 1166.2765,-234.8998"/>
<polygon fill="#191970" stroke="#191970" points="1163.4978,-237.0439 1171.9237,-243.4669 1169.3423,-233.1913 1163.4978,-237.0439"/>
</g>
<!-- Node28&#45;&gt;Node10 -->
<g id="edge48" class="edge">
<title>Node28&#45;&gt;Node10</title>
<path fill="none" stroke="#191970" d="M1043.2837,-70.3702C1047.6023,-73.224 1051.5646,-76.5736 1055,-80.5 1143.7175,-181.8987 1000.8951,-281.3322 1091,-381.5 1092.218,-382.854 1093.5072,-384.1261 1094.8584,-385.3209"/>
<polygon fill="#191970" stroke="#191970" points="1093.057,-388.3371 1103.2141,-391.3511 1097.1535,-382.6609 1093.057,-388.3371"/>
</g>
<!-- Node28&#45;&gt;Node11 -->
<g id="edge49" class="edge">
<title>Node28&#45;&gt;Node11</title>
<path fill="none" stroke="#191970" d="M1043.4219,-70.9218C1047.6459,-73.6469 1051.5551,-76.8166 1055,-80.5 1114.304,-143.9099 1040.9641,-201.548 1091,-272.5 1102.7135,-289.11 1121.6889,-301.1182 1138.9799,-309.2937"/>
<polygon fill="#191970" stroke="#191970" points="1137.7952,-312.5968 1148.356,-313.4462 1140.6299,-306.1965 1137.7952,-312.5968"/>
</g>
<!-- Node28&#45;&gt;Node12 -->
<g id="edge50" class="edge">
<title>Node28&#45;&gt;Node12</title>
<path fill="none" stroke="#191970" d="M1043.3461,-70.316C1047.6494,-73.1831 1051.5913,-76.5504 1055,-80.5 1104.6413,-138.0185 1075.9247,-346.0327 1091,-420.5 1111.9885,-524.1769 1154.252,-643.9644 1171.2125,-690.0532"/>
<polygon fill="#191970" stroke="#191970" points="1167.9346,-691.2804 1174.6932,-699.4394 1174.4978,-688.8464 1167.9346,-691.2804"/>
</g>
<!-- Node28&#45;&gt;Node27 -->
<g id="edge46" class="edge">
<title>Node28&#45;&gt;Node27</title>
<path fill="none" stroke="#191970" d="M1036.6717,-39.4445C1063.9684,-33.8738 1094.0856,-27.7274 1119.5196,-22.5368"/>
<polygon fill="#191970" stroke="#191970" points="1120.2849,-25.9529 1129.3831,-20.5239 1118.8852,-19.0942 1120.2849,-25.9529"/>
</g>
<!-- Node29 -->
<g id="node29" class="node">
<title>Node29</title>
<g id="a_node29"><a xlink:href="../../d2/d30/classCbmRichRingFinderHoughImpl.html#a8e573b38b267283c1ca727bbf0d39b5b" target="_top" xlink:title="Return hit indez in the internal Array.">
<polygon fill="none" stroke="#000000" points="1093.5,-39.5 1093.5,-71.5 1263.5,-71.5 1263.5,-39.5 1093.5,-39.5"/>
<text text-anchor="start" x="1101.5" y="-58.5" font-family="FreeSans" font-size="10.00" fill="#000000">CbmRichRingFinderHoughImpl</text>
<text text-anchor="middle" x="1178.5" y="-46.5" font-family="FreeSans" font-size="10.00" fill="#000000">::GetHitIndex</text>
</a>
</g>
</g>
<!-- Node28&#45;&gt;Node29 -->
<g id="edge47" class="edge">
<title>Node28&#45;&gt;Node29</title>
<path fill="none" stroke="#191970" d="M1043.2511,-55.5C1056.3849,-55.5 1070.0184,-55.5 1083.3515,-55.5"/>
<polygon fill="#191970" stroke="#191970" points="1083.4757,-59.0001 1093.4757,-55.5 1083.4756,-52.0001 1083.4757,-59.0001"/>
</g>
<!-- Node30 -->
<g id="node30" class="node">
<title>Node30</title>
<g id="a_node30"><a xlink:href="../../de/d89/classCbmRichRingLight.html#ae3279212ff4649407fae1f4f9d21a8e3" target="_top" xlink:title="Remove hit from the ring.">
<polygon fill="none" stroke="#000000" points="1092.5,-90.5 1092.5,-110.5 1264.5,-110.5 1264.5,-90.5 1092.5,-90.5"/>
<text text-anchor="middle" x="1178.5" y="-97.5" font-family="FreeSans" font-size="10.00" fill="#000000">CbmRichRingLight::RemoveHit</text>
</a>
</g>
</g>
<!-- Node28&#45;&gt;Node30 -->
<g id="edge51" class="edge">
<title>Node28&#45;&gt;Node30</title>
<path fill="none" stroke="#191970" d="M1036.6717,-71.5555C1063.9684,-77.1262 1094.0856,-83.2726 1119.5196,-88.4632"/>
<polygon fill="#191970" stroke="#191970" points="1118.8852,-91.9058 1129.3831,-90.4761 1120.2849,-85.0471 1118.8852,-91.9058"/>
</g>
</g>
</svg>
