<?xml version="1.0" encoding="UTF-8" standalone="no"?>
<!DOCTYPE svg PUBLIC "-//W3C//DTD SVG 1.1//EN"
 "http://www.w3.org/Graphics/SVG/1.1/DTD/svg11.dtd">
<!-- Generated by graphviz version 2.40.1 (20161225.0304)
 -->
<!-- Title: dofistatescat Pages: 1 -->
<svg width="1439pt" height="2332pt"
 viewBox="0.00 0.00 1439.00 2331.72" xmlns="http://www.w3.org/2000/svg" xmlns:xlink="http://www.w3.org/1999/xlink">
<g id="graph0" class="graph" transform="scale(1 1) rotate(0) translate(4 2327.7197)">
<title>dofistatescat</title>
<!-- Node1 -->
<g id="node1" class="node">
<title>Node1</title>
<polygon fill="#bfbfbf" stroke="#000000" points="0,-681 0,-701 82,-701 82,-681 0,-681"/>
<text text-anchor="middle" x="41" y="-688" font-family="FreeSans" font-size="10.00" fill="#000000">dofistatescat</text>
</g>
<!-- Node2 -->
<g id="node2" class="node">
<title>Node2</title>
<g id="a_node2"><a xlink:href="../../db/d4e/predicates_8cxx.html#a0e05cf94eeeea515483f825d7a3b7dd6" target="_top" xlink:title="compress">
<polygon fill="none" stroke="#000000" points="654.5,-1417 654.5,-1437 719.5,-1437 719.5,-1417 654.5,-1417"/>
<text text-anchor="middle" x="687" y="-1424" font-family="FreeSans" font-size="10.00" fill="#000000">compress</text>
</a>
</g>
</g>
<!-- Node1&#45;&gt;Node2 -->
<g id="edge1" class="edge">
<title>Node1&#45;&gt;Node2</title>
<path fill="none" stroke="#191970" d="M42.0109,-701.0689C46.942,-748.5106 70.1966,-954.1954 118,-1116 155.9326,-1244.3942 134.6119,-1304.3007 234,-1394 349.4099,-1498.1593 555.7304,-1461.4594 644.4878,-1439.0825"/>
<polygon fill="#191970" stroke="#191970" points="645.4084,-1442.4596 654.2141,-1436.568 643.6563,-1435.6825 645.4084,-1442.4596"/>
</g>
<!-- Node3 -->
<g id="node3" class="node">
<title>Node3</title>
<g id="a_node3"><a xlink:href="../../d3/dd5/jewel-2_82_80_8f.html#a923a1f45be3eceaecbfd953ac461db5b" target="_top" xlink:title="getdeltat">
<polygon fill="none" stroke="#000000" points="126.5,-1960 126.5,-1980 189.5,-1980 189.5,-1960 126.5,-1960"/>
<text text-anchor="middle" x="158" y="-1967" font-family="FreeSans" font-size="10.00" fill="#000000">getdeltat</text>
</a>
</g>
</g>
<!-- Node1&#45;&gt;Node3 -->
<g id="edge2" class="edge">
<title>Node1&#45;&gt;Node3</title>
<path fill="none" stroke="#191970" d="M41.9418,-701.2952C52.1428,-812.8094 142.0532,-1795.6757 156.1453,-1949.7254"/>
<polygon fill="#191970" stroke="#191970" points="152.6619,-1950.0674 157.0584,-1959.707 159.6328,-1949.4297 152.6619,-1950.0674"/>
</g>
<!-- Node4 -->
<g id="node4" class="node">
<title>Node4</title>
<g id="a_node4"><a xlink:href="../../d0/d83/classActsFatras_1_1LandauDistribution.html#a692e73569c82329696eadc0fe9ff5bdf" target="_top" xlink:title="Return the currently configured distribution parameters.">
<polygon fill="none" stroke="#000000" points="601,-1295 601,-1327 773,-1327 773,-1295 601,-1295"/>
<text text-anchor="start" x="609" y="-1314" font-family="FreeSans" font-size="10.00" fill="#000000">ActsFatras::LandauDistribution</text>
<text text-anchor="middle" x="687" y="-1302" font-family="FreeSans" font-size="10.00" fill="#000000">::param</text>
</a>
</g>
</g>
<!-- Node1&#45;&gt;Node4 -->
<g id="edge119" class="edge">
<title>Node1&#45;&gt;Node4</title>
<path fill="none" stroke="#191970" d="M68.7328,-701.0088C105.8736,-714.0241 174.0494,-736.5595 234,-749 306.5194,-764.0487 513.8194,-734.4642 565,-788 641.5202,-868.0415 531.8237,-1198.5326 601,-1285 601.8496,-1286.0619 602.741,-1287.0817 603.6705,-1288.0609"/>
<polygon fill="#191970" stroke="#191970" points="601.6215,-1290.9158 611.4781,-1294.8014 606.1959,-1285.6172 601.6215,-1290.9158"/>
</g>
<!-- Node9 -->
<g id="node9" class="node">
<title>Node9</title>
<g id="a_node9"><a xlink:href="../../d4/d3e/classActs_1_1Logger.html#aee9e687247532b5175713e66b2d2121e" target="_top" xlink:title="create output stream object with internal cache">
<polygon fill="none" stroke="#000000" points="1142,-1179 1142,-1199 1244,-1199 1244,-1179 1142,-1179"/>
<text text-anchor="middle" x="1193" y="-1186" font-family="FreeSans" font-size="10.00" fill="#000000">Acts::Logger::log</text>
</a>
</g>
</g>
<!-- Node1&#45;&gt;Node9 -->
<g id="edge118" class="edge">
<title>Node1&#45;&gt;Node9</title>
<path fill="none" stroke="#191970" d="M41.713,-680.6271C46.2022,-617.2159 71.8632,-281.5899 118,-191 172.6967,-83.6028 189.9767,0 310.5,0 310.5,0 310.5,0 960.5,0 1060.2887,0 1067.5886,-78.9004 1106,-171 1145.8069,-266.4458 1185.2848,-1032.7652 1192.0002,-1168.4903"/>
<polygon fill="#191970" stroke="#191970" points="1188.5161,-1168.9025 1192.503,-1178.7185 1195.5077,-1168.5586 1188.5161,-1168.9025"/>
</g>
<!-- Node27 -->
<g id="node27" class="node">
<title>Node27</title>
<g id="a_node27"><a xlink:href="../../d6/dcf/pythia6425mod_8f.html#ac28b7ef95cee2881a46f71d3a88d05ac" target="_top" xlink:title="pyr">
<polygon fill="none" stroke="#000000" points="670.5,-394 670.5,-414 703.5,-414 703.5,-394 670.5,-394"/>
<text text-anchor="middle" x="687" y="-401" font-family="FreeSans" font-size="10.00" fill="#000000">pyr</text>
</a>
</g>
</g>
<!-- Node1&#45;&gt;Node27 -->
<g id="edge121" class="edge">
<title>Node1&#45;&gt;Node27</title>
<path fill="none" stroke="#191970" d="M42.1101,-680.6744C48.4452,-627.5104 85.1813,-383.5324 234,-290 380.21,-198.1071 596.6094,-337.9609 665.2716,-387.6091"/>
<polygon fill="#191970" stroke="#191970" points="663.4731,-390.6304 673.6069,-393.7217 667.6127,-384.9856 663.4731,-390.6304"/>
</g>
<!-- Node28 -->
<g id="node28" class="node">
<title>Node28</title>
<g id="a_node28"><a xlink:href="../../d3/dd5/jewel-2_82_80_8f.html#adcc9d472a2dfdd1df65d8b160689e039" target="_top" xlink:title="getnewmass">
<polygon fill="none" stroke="#000000" points="118,-1087 118,-1107 198,-1107 198,-1087 118,-1087"/>
<text text-anchor="middle" x="158" y="-1094" font-family="FreeSans" font-size="10.00" fill="#000000">getnewmass</text>
</a>
</g>
</g>
<!-- Node1&#45;&gt;Node28 -->
<g id="edge56" class="edge">
<title>Node1&#45;&gt;Node28</title>
<path fill="none" stroke="#191970" d="M43.8922,-701.036C59.2555,-754.348 131.3874,-1004.6522 152.3027,-1077.2298"/>
<polygon fill="#191970" stroke="#191970" points="148.9719,-1078.3116 155.1042,-1086.9514 155.6982,-1076.3732 148.9719,-1078.3116"/>
</g>
<!-- Node40 -->
<g id="node40" class="node">
<title>Node40</title>
<g id="a_node40"><a xlink:href="../../d3/dd5/jewel-2_82_80_8f.html#af7a7f51fe1e1aa2bc16f49ced1af5f1d" target="_top" xlink:title="getqvec">
<polygon fill="none" stroke="#000000" points="129.5,-547 129.5,-567 186.5,-567 186.5,-547 129.5,-547"/>
<text text-anchor="middle" x="158" y="-554" font-family="FreeSans" font-size="10.00" fill="#000000">getqvec</text>
</a>
</g>
</g>
<!-- Node1&#45;&gt;Node40 -->
<g id="edge85" class="edge">
<title>Node1&#45;&gt;Node40</title>
<path fill="none" stroke="#191970" d="M49.794,-680.9282C69.5287,-658.3261 117.5568,-603.3195 142.456,-574.8026"/>
<polygon fill="#191970" stroke="#191970" points="145.1633,-577.0234 149.1039,-567.1887 139.8904,-572.4194 145.1633,-577.0234"/>
</g>
<!-- Node43 -->
<g id="node43" class="node">
<title>Node43</title>
<g id="a_node43"><a xlink:href="../../d6/dcf/pythia6425mod_8f.html#a6cee1eea51c820d9e90932c9eca205b7" target="_top" xlink:title="pyp">
<polygon fill="none" stroke="#000000" points="293,-145 293,-165 328,-165 328,-145 293,-145"/>
<text text-anchor="middle" x="310.5" y="-152" font-family="FreeSans" font-size="10.00" fill="#000000">pyp</text>
</a>
</g>
</g>
<!-- Node1&#45;&gt;Node43 -->
<g id="edge120" class="edge">
<title>Node1&#45;&gt;Node43</title>
<path fill="none" stroke="#191970" d="M41.618,-680.6804C45.3214,-621.7689 66.1847,-328.131 118,-257 158.9402,-200.7982 240.3543,-172.7142 282.9977,-161.3475"/>
<polygon fill="#191970" stroke="#191970" points="283.8858,-164.7331 292.7107,-158.8704 282.1559,-157.9502 283.8858,-164.7331"/>
</g>
<!-- Node3&#45;&gt;Node2 -->
<g id="edge4" class="edge">
<title>Node3&#45;&gt;Node2</title>
<path fill="none" stroke="#191970" d="M159.7538,-1959.9927C165.5509,-1929.2441 186.4974,-1834.5077 234,-1773 297.255,-1691.0956 336.0823,-1693.1681 423,-1637 484.2096,-1597.445 507.7203,-1600.0583 565,-1555 608.356,-1520.8946 650.9542,-1471.6049 672.4982,-1445.2495"/>
<polygon fill="#191970" stroke="#191970" points="675.4034,-1447.2231 678.9679,-1437.2459 669.9595,-1442.8225 675.4034,-1447.2231"/>
</g>
<!-- Node3&#45;&gt;Node4 -->
<g id="edge3" class="edge">
<title>Node3&#45;&gt;Node4</title>
<path fill="none" stroke="#191970" d="M158.7171,-1959.9362C164.0344,-1893.7038 203.4871,-1518.3523 423,-1368 450.1733,-1349.388 527.0253,-1334.0381 590.8489,-1323.9748"/>
<polygon fill="#191970" stroke="#191970" points="591.6251,-1327.3964 600.9707,-1322.4054 590.5525,-1320.479 591.6251,-1327.3964"/>
</g>
<!-- Node5 -->
<g id="node5" class="node">
<title>Node5</title>
<g id="a_node5"><a xlink:href="../../dc/d44/classEtmDetectorStack.html#a3f1a557e0846c8fe46f5a76bf2e8c500" target="_top" xlink:title="EtmDetectorStack::etamax">
<polygon fill="none" stroke="#000000" points="234,-1980 234,-2000 387,-2000 387,-1980 234,-1980"/>
<text text-anchor="middle" x="310.5" y="-1987" font-family="FreeSans" font-size="10.00" fill="#000000">EtmDetectorStack::etamax</text>
</a>
</g>
</g>
<!-- Node3&#45;&gt;Node5 -->
<g id="edge5" class="edge">
<title>Node3&#45;&gt;Node5</title>
<path fill="none" stroke="#191970" d="M189.5981,-1974.144C199.7537,-1975.4759 211.5409,-1977.0218 223.6929,-1978.6155"/>
<polygon fill="#191970" stroke="#191970" points="223.5883,-1982.1316 233.9585,-1979.9618 224.4986,-1975.1911 223.5883,-1982.1316"/>
</g>
<!-- Node7 -->
<g id="node7" class="node">
<title>Node7</title>
<g id="a_node7"><a xlink:href="../../d3/dd5/jewel-2_82_80_8f.html#a7ebfd60d4aa3c140a9ed244bd615c609" target="_top" xlink:title="getsscat">
<polygon fill="none" stroke="#000000" points="281,-1782 281,-1802 340,-1802 340,-1782 281,-1782"/>
<text text-anchor="middle" x="310.5" y="-1789" font-family="FreeSans" font-size="10.00" fill="#000000">getsscat</text>
</a>
</g>
</g>
<!-- Node3&#45;&gt;Node7 -->
<g id="edge7" class="edge">
<title>Node3&#45;&gt;Node7</title>
<path fill="none" stroke="#191970" d="M161.4577,-1959.9996C170.22,-1935.8686 195.3796,-1873.5949 234,-1835 245.7332,-1823.2746 261.3231,-1813.7451 275.3671,-1806.6645"/>
<polygon fill="#191970" stroke="#191970" points="277.2701,-1809.6338 284.7765,-1802.1569 274.2458,-1803.3208 277.2701,-1809.6338"/>
</g>
<!-- Node3&#45;&gt;Node9 -->
<g id="edge54" class="edge">
<title>Node3&#45;&gt;Node9</title>
<path fill="none" stroke="#191970" d="M189.6596,-1966.9334C339.6409,-1951.7476 976.7689,-1879.639 1106,-1739 1179.1597,-1659.382 1190.8924,-1298.9585 1192.6885,-1209.2612"/>
<polygon fill="#191970" stroke="#191970" points="1196.1912,-1209.1344 1192.8717,-1199.0731 1189.1923,-1209.0085 1196.1912,-1209.1344"/>
</g>
<!-- Node14 -->
<g id="node14" class="node">
<title>Node14</title>
<g id="a_node14"><a xlink:href="../../d2/d18/medium-simple_8f.html#a8777bb16180dbd5994f789bf75917d59" target="_top" xlink:title="getmd">
<polygon fill="none" stroke="#000000" points="822,-1501 822,-1521 871,-1521 871,-1501 822,-1501"/>
<text text-anchor="middle" x="846.5" y="-1508" font-family="FreeSans" font-size="10.00" fill="#000000">getmd</text>
</a>
</g>
</g>
<!-- Node3&#45;&gt;Node14 -->
<g id="edge48" class="edge">
<title>Node3&#45;&gt;Node14</title>
<path fill="none" stroke="#191970" d="M181.1162,-1959.926C243.4839,-1932.653 420.2561,-1854.7353 565,-1785 658.4738,-1739.9658 701.8252,-1754.4955 773,-1679 814.0073,-1635.5033 834.4013,-1565.4301 842.359,-1531.1692"/>
<polygon fill="#191970" stroke="#191970" points="845.8629,-1531.5317 844.5928,-1521.0133 839.0263,-1530.028 845.8629,-1531.5317"/>
</g>
<!-- Node15 -->
<g id="node15" class="node">
<title>Node15</title>
<g id="a_node15"><a xlink:href="../../d2/d18/medium-simple_8f.html#aa87aedbcb3800107b08929a99afa868e" target="_top" xlink:title="getmdmin">
<polygon fill="none" stroke="#000000" points="460,-2147 460,-2167 528,-2167 528,-2147 460,-2147"/>
<text text-anchor="middle" x="494" y="-2154" font-family="FreeSans" font-size="10.00" fill="#000000">getmdmin</text>
</a>
</g>
</g>
<!-- Node3&#45;&gt;Node15 -->
<g id="edge40" class="edge">
<title>Node3&#45;&gt;Node15</title>
<path fill="none" stroke="#191970" d="M159.3147,-1980.1712C163.6957,-2009.4803 180.6769,-2094.413 234,-2132 298.028,-2177.1328 394.0355,-2172.7384 449.7079,-2165.1072"/>
<polygon fill="#191970" stroke="#191970" points="450.2298,-2168.5682 459.617,-2163.6558 449.2153,-2161.6421 450.2298,-2168.5682"/>
</g>
<!-- Node16 -->
<g id="node16" class="node">
<title>Node16</title>
<g id="a_node16"><a xlink:href="../../d2/d18/medium-simple_8f.html#ab3342672f50a3d009d7f2563a1fb5fb9" target="_top" xlink:title="getmdmax">
<polygon fill="none" stroke="#000000" points="811,-2071 811,-2091 882,-2091 882,-2071 811,-2071"/>
<text text-anchor="middle" x="846.5" y="-2078" font-family="FreeSans" font-size="10.00" fill="#000000">getmdmax</text>
</a>
</g>
</g>
<!-- Node3&#45;&gt;Node16 -->
<g id="edge49" class="edge">
<title>Node3&#45;&gt;Node16</title>
<path fill="none" stroke="#191970" d="M161.1247,-1980.0116C169.0028,-2003.362 192.0964,-2061.3146 234,-2086 337.2316,-2146.8137 654.0851,-2113.6391 773,-2099 782.7742,-2097.7967 793.1263,-2095.7548 802.8798,-2093.4685"/>
<polygon fill="#191970" stroke="#191970" points="803.9097,-2096.8194 812.778,-2091.0224 802.2303,-2090.0238 803.9097,-2096.8194"/>
</g>
<!-- Node19 -->
<g id="node19" class="node">
<title>Node19</title>
<g id="a_node19"><a xlink:href="../../d2/d18/medium-simple_8f.html#a92675ba51aed5c86cce56798dfad307b" target="_top" xlink:title="getms">
<polygon fill="none" stroke="#000000" points="663,-1256 663,-1276 711,-1276 711,-1256 663,-1256"/>
<text text-anchor="middle" x="687" y="-1263" font-family="FreeSans" font-size="10.00" fill="#000000">getms</text>
</a>
</g>
</g>
<!-- Node3&#45;&gt;Node19 -->
<g id="edge47" class="edge">
<title>Node3&#45;&gt;Node19</title>
<path fill="none" stroke="#191970" d="M159.4939,-1959.9076C166.7192,-1912.0362 199.1192,-1707.9776 234,-1655 335.0865,-1501.4678 460.0925,-1557.9471 565,-1407 597.2638,-1360.577 559.6599,-1323.5623 601,-1285 614.704,-1272.2168 634.9983,-1267.3188 652.4314,-1265.6858"/>
<polygon fill="#191970" stroke="#191970" points="653.0642,-1269.1537 662.8318,-1265.0496 652.6367,-1262.1668 653.0642,-1269.1537"/>
</g>
<!-- Node21 -->
<g id="node21" class="node">
<title>Node21</title>
<g id="a_node21"><a xlink:href="../../d2/d18/medium-simple_8f.html#a41d995c162bbb4ad580e4e406343026a" target="_top" xlink:title="getmsmax">
<polygon fill="none" stroke="#000000" points="652,-2069 652,-2089 722,-2089 722,-2069 652,-2069"/>
<text text-anchor="middle" x="687" y="-2076" font-family="FreeSans" font-size="10.00" fill="#000000">getmsmax</text>
</a>
</g>
</g>
<!-- Node3&#45;&gt;Node21 -->
<g id="edge39" class="edge">
<title>Node3&#45;&gt;Node21</title>
<path fill="none" stroke="#191970" d="M162.7547,-1980.0191C172.7411,-1999.7539 197.9869,-2043.2762 234,-2061 304.6776,-2095.7838 541.7788,-2087.1773 641.8406,-2081.7686"/>
<polygon fill="#191970" stroke="#191970" points="642.1449,-2085.2572 651.9356,-2081.2084 641.757,-2078.2679 642.1449,-2085.2572"/>
</g>
<!-- Node23 -->
<g id="node23" class="node">
<title>Node23</title>
<g id="a_node23"><a xlink:href="../../d2/d18/medium-simple_8f.html#af0ed3c5e16e886ad1b92f7c3d287922e" target="_top" xlink:title="getneff">
<polygon fill="none" stroke="#000000" points="934,-2165 934,-2185 987,-2185 987,-2165 934,-2165"/>
<text text-anchor="middle" x="960.5" y="-2172" font-family="FreeSans" font-size="10.00" fill="#000000">getneff</text>
</a>
</g>
</g>
<!-- Node3&#45;&gt;Node23 -->
<g id="edge41" class="edge">
<title>Node3&#45;&gt;Node23</title>
<path fill="none" stroke="#191970" d="M159.5597,-1980.2652C166.2758,-2022.9677 194.203,-2185.6774 234,-2215 289.7516,-2256.078 783.0578,-2197.4321 923.401,-2179.7665"/>
<polygon fill="#191970" stroke="#191970" points="924.1553,-2183.199 933.637,-2178.4717 923.2768,-2176.2544 924.1553,-2183.199"/>
</g>
<!-- Node24 -->
<g id="node24" class="node">
<title>Node24</title>
<g id="a_node24"><a xlink:href="../../d2/d18/medium-simple_8f.html#a6a381d8c552c82c12d114b1c8a1eb77a" target="_top" xlink:title="getneffmax">
<polygon fill="none" stroke="#000000" points="809,-2243 809,-2263 884,-2263 884,-2243 809,-2243"/>
<text text-anchor="middle" x="846.5" y="-2250" font-family="FreeSans" font-size="10.00" fill="#000000">getneffmax</text>
</a>
</g>
</g>
<!-- Node3&#45;&gt;Node24 -->
<g id="edge44" class="edge">
<title>Node3&#45;&gt;Node24</title>
<path fill="none" stroke="#191970" d="M159.1474,-1980.0352C164.6,-2025.7739 189.495,-2213.7403 234,-2248 409.9428,-2383.4397 706.3337,-2301.2726 809.6527,-2266.3669"/>
<polygon fill="#191970" stroke="#191970" points="810.9993,-2269.6051 819.3203,-2263.0468 808.7257,-2262.9846 810.9993,-2269.6051"/>
</g>
<!-- Node25 -->
<g id="node25" class="node">
<title>Node25</title>
<g id="a_node25"><a xlink:href="../../d2/d18/medium-simple_8f.html#a187797c05236d3321cc8b7b16394220c" target="_top" xlink:title="getnatmdmin">
<polygon fill="none" stroke="#000000" points="268.5,-2185 268.5,-2205 352.5,-2205 352.5,-2185 268.5,-2185"/>
<text text-anchor="middle" x="310.5" y="-2192" font-family="FreeSans" font-size="10.00" fill="#000000">getnatmdmin</text>
</a>
</g>
</g>
<!-- Node3&#45;&gt;Node25 -->
<g id="edge50" class="edge">
<title>Node3&#45;&gt;Node25</title>
<path fill="none" stroke="#191970" d="M158.8665,-1980.4106C162.1539,-2013.2004 176.748,-2115.3934 234,-2170 240.9789,-2176.6564 249.7557,-2181.5408 258.8536,-2185.1248"/>
<polygon fill="#191970" stroke="#191970" points="257.7942,-2188.4616 268.3889,-2188.4087 260.0736,-2181.8431 257.7942,-2188.4616"/>
</g>
<!-- Node26 -->
<g id="node26" class="node">
<title>Node26</title>
<g id="a_node26"><a xlink:href="../../dc/db0/classActs_1_1IVisualization.html#a9e155efef029673b4b9830ef5dfc1af3" target="_top" xlink:title="Acts::IVisualization\l::line">
<polygon fill="none" stroke="#000000" points="254.5,-2019 254.5,-2051 366.5,-2051 366.5,-2019 254.5,-2019"/>
<text text-anchor="start" x="262.5" y="-2038" font-family="FreeSans" font-size="10.00" fill="#000000">Acts::IVisualization</text>
<text text-anchor="middle" x="310.5" y="-2026" font-family="FreeSans" font-size="10.00" fill="#000000">::line</text>
</a>
</g>
</g>
<!-- Node3&#45;&gt;Node26 -->
<g id="edge53" class="edge">
<title>Node3&#45;&gt;Node26</title>
<path fill="none" stroke="#191970" d="M175.1031,-1980.0694C190.2475,-1988.7247 213.1268,-2001.1708 234,-2010 238.4316,-2011.8745 243.0553,-2013.6971 247.7391,-2015.4479"/>
<polygon fill="#191970" stroke="#191970" points="246.8013,-2018.8303 257.3957,-2018.9341 249.1784,-2012.2463 246.8013,-2018.8303"/>
</g>
<!-- Node3&#45;&gt;Node27 -->
<g id="edge55" class="edge">
<title>Node3&#45;&gt;Node27</title>
<path fill="none" stroke="#191970" d="M158.5983,-1959.7954C163.3836,-1879.373 196.2328,-1349.2164 234,-1290 286.8735,-1207.098 337.7549,-1224.0062 423,-1175 485.2405,-1139.2188 523.0545,-1156.2645 565,-1098 646.1203,-985.3196 679.3018,-526.8358 685.7803,-424.3743"/>
<polygon fill="#191970" stroke="#191970" points="689.2738,-424.586 686.3974,-414.3891 682.2871,-424.1542 689.2738,-424.586"/>
</g>
<!-- Node6 -->
<g id="node6" class="node">
<title>Node6</title>
<g id="a_node6"><a xlink:href="../../d5/d39/classEtmEtaBoundary.html#a42960e044f518dbf2abbfe901ae75a4e" target="_top" xlink:title="EtmEtaBoundary::GetEta">
<polygon fill="none" stroke="#000000" points="423,-2031 423,-2051 565,-2051 565,-2031 423,-2031"/>
<text text-anchor="middle" x="494" y="-2038" font-family="FreeSans" font-size="10.00" fill="#000000">EtmEtaBoundary::GetEta</text>
</a>
</g>
</g>
<!-- Node5&#45;&gt;Node6 -->
<g id="edge6" class="edge">
<title>Node5&#45;&gt;Node6</title>
<path fill="none" stroke="#191970" d="M351.1344,-2000.0908C362.7614,-2003.1221 375.4197,-2006.5603 387,-2010 403.1673,-2014.8022 406.8466,-2017.1512 423,-2022 430.1381,-2024.1426 437.7147,-2026.2966 445.1583,-2028.3452"/>
<polygon fill="#191970" stroke="#191970" points="444.2513,-2031.7255 454.819,-2030.9677 446.0852,-2024.97 444.2513,-2031.7255"/>
</g>
<!-- Node7&#45;&gt;Node2 -->
<g id="edge9" class="edge">
<title>Node7&#45;&gt;Node2</title>
<path fill="none" stroke="#191970" d="M322.4937,-1781.7668C342.2144,-1765.4276 383.2758,-1733.417 423,-1715 482.3771,-1687.4715 514.5912,-1717.7422 565,-1676 640.001,-1613.8936 672.6479,-1494.469 683.0463,-1447.0854"/>
<polygon fill="#191970" stroke="#191970" points="686.5038,-1447.6503 685.1285,-1437.1451 679.6525,-1446.215 686.5038,-1447.6503"/>
</g>
<!-- Node7&#45;&gt;Node4 -->
<g id="edge8" class="edge">
<title>Node7&#45;&gt;Node4</title>
<path fill="none" stroke="#191970" d="M315.8744,-1781.8182C330.275,-1755.275 372.1104,-1682.8474 423,-1637 477.1451,-1588.2197 521.3105,-1613.3304 565,-1555 605.5828,-1500.8174 569.4661,-1466.9027 601,-1407 615.9326,-1378.6337 641.0848,-1351.9515 660.342,-1333.952"/>
<polygon fill="#191970" stroke="#191970" points="662.9019,-1336.3541 667.9238,-1327.025 658.1803,-1331.1862 662.9019,-1336.3541"/>
</g>
<!-- Node8 -->
<g id="node8" class="node">
<title>Node8</title>
<g id="a_node8"><a xlink:href="../../d3/dd5/jewel-2_82_80_8f.html#afeb1988452cd18836a52e75834188ccb" target="_top" xlink:title="getpdfxint">
<polygon fill="none" stroke="#000000" points="1037,-1709 1037,-1729 1106,-1729 1106,-1709 1037,-1709"/>
<text text-anchor="middle" x="1071.5" y="-1716" font-family="FreeSans" font-size="10.00" fill="#000000">getpdfxint</text>
</a>
</g>
</g>
<!-- Node7&#45;&gt;Node8 -->
<g id="edge10" class="edge">
<title>Node7&#45;&gt;Node8</title>
<path fill="none" stroke="#191970" d="M340.3298,-1792.1645C387.9182,-1792.2054 483.9213,-1791.3808 565,-1785 736.5624,-1771.4982 939.083,-1740.5387 1027.0328,-1726.349"/>
<polygon fill="#191970" stroke="#191970" points="1027.6206,-1729.7995 1036.9317,-1724.7445 1026.5005,-1722.8897 1027.6206,-1729.7995"/>
</g>
<!-- Node11 -->
<g id="node11" class="node">
<title>Node11</title>
<g id="a_node11"><a xlink:href="../../d3/dd5/jewel-2_82_80_8f.html#a64def7a06e5aeca064f464e05345627f" target="_top" xlink:title="getxsecint">
<polygon fill="none" stroke="#000000" points="459.5,-1724 459.5,-1744 528.5,-1744 528.5,-1724 459.5,-1724"/>
<text text-anchor="middle" x="494" y="-1731" font-family="FreeSans" font-size="10.00" fill="#000000">getxsecint</text>
</a>
</g>
</g>
<!-- Node7&#45;&gt;Node11 -->
<g id="edge13" class="edge">
<title>Node7&#45;&gt;Node11</title>
<path fill="none" stroke="#191970" d="M340.3908,-1782.5522C370.8935,-1772.9111 418.4701,-1757.8732 452.592,-1747.0881"/>
<polygon fill="#191970" stroke="#191970" points="453.7938,-1750.379 462.274,-1744.0278 451.6841,-1743.7044 453.7938,-1750.379"/>
</g>
<!-- Node12 -->
<g id="node12" class="node">
<title>Node12</title>
<g id="a_node12"><a xlink:href="../../d2/d18/medium-simple_8f.html#a4c3c426f7b73441851ebd368f54397fb" target="_top" xlink:title="gettemp">
<polygon fill="none" stroke="#ff0000" points="1042,-1877 1042,-1897 1101,-1897 1101,-1877 1042,-1877"/>
<text text-anchor="middle" x="1071.5" y="-1884" font-family="FreeSans" font-size="10.00" fill="#000000">gettemp</text>
</a>
</g>
</g>
<!-- Node7&#45;&gt;Node12 -->
<g id="edge17" class="edge">
<title>Node7&#45;&gt;Node12</title>
<path fill="none" stroke="#191970" d="M333.7696,-1802.1667C392.0501,-1826.6741 549.4769,-1887 687,-1887 687,-1887 687,-1887 846.5,-1887 911.2324,-1887 986.4404,-1887 1031.4372,-1887"/>
<polygon fill="#191970" stroke="#191970" points="1031.6557,-1890.5001 1041.6557,-1887 1031.6557,-1883.5001 1031.6557,-1890.5001"/>
</g>
<!-- Node7&#45;&gt;Node14 -->
<g id="edge20" class="edge">
<title>Node7&#45;&gt;Node14</title>
<path fill="none" stroke="#191970" d="M340.2391,-1792.8028C389.3496,-1793.0103 489.477,-1788.6522 565,-1754 685.7278,-1698.6066 794.2223,-1575.2983 832.1698,-1529.0158"/>
<polygon fill="#191970" stroke="#191970" points="835.0354,-1531.0387 838.6121,-1521.0659 829.5969,-1526.6316 835.0354,-1531.0387"/>
</g>
<!-- Node7&#45;&gt;Node15 -->
<g id="edge22" class="edge">
<title>Node7&#45;&gt;Node15</title>
<path fill="none" stroke="#191970" d="M314.8963,-1802.0582C326.7466,-1829.2186 360.2615,-1906.355 387,-1971 403.4664,-2010.8103 402.0193,-2023.3727 423,-2061 439.2835,-2090.2033 463.2335,-2120.7169 478.7248,-2139.2965"/>
<polygon fill="#191970" stroke="#191970" points="476.0613,-2141.5672 485.1894,-2146.9457 481.4077,-2137.0488 476.0613,-2141.5672"/>
</g>
<!-- Node7&#45;&gt;Node16 -->
<g id="edge24" class="edge">
<title>Node7&#45;&gt;Node16</title>
<path fill="none" stroke="#191970" d="M318.823,-1802.3C336.2342,-1823.2937 378.5832,-1871.5333 423,-1901 549.4065,-1984.8597 721.2824,-2043.3448 801.6357,-2067.9621"/>
<polygon fill="#191970" stroke="#191970" points="800.8474,-2071.3804 811.4329,-2070.9342 802.8796,-2064.6818 800.8474,-2071.3804"/>
</g>
<!-- Node18 -->
<g id="node18" class="node">
<title>Node18</title>
<g id="a_node18"><a xlink:href="../../d2/d18/medium-simple_8f.html#a77babe6c173e1a2ea1e75a219a2d9fcd" target="_top" xlink:title="avscatcen">
<polygon fill="none" stroke="#ff0000" points="460.5,-1224 460.5,-1244 527.5,-1244 527.5,-1224 460.5,-1224"/>
<text text-anchor="middle" x="494" y="-1231" font-family="FreeSans" font-size="10.00" fill="#000000">avscatcen</text>
</a>
</g>
</g>
<!-- Node7&#45;&gt;Node18 -->
<g id="edge28" class="edge">
<title>Node7&#45;&gt;Node18</title>
<path fill="none" stroke="#191970" d="M312.3004,-1781.8725C320.9618,-1734.172 360.5085,-1527.5545 423,-1368 439.8572,-1324.9598 466.9873,-1277.9283 482.3707,-1252.6242"/>
<polygon fill="#191970" stroke="#191970" points="485.3902,-1254.3956 487.6455,-1244.0436 479.4268,-1250.7297 485.3902,-1254.3956"/>
</g>
<!-- Node20 -->
<g id="node20" class="node">
<title>Node20</title>
<g id="a_node20"><a xlink:href="../../d2/d18/medium-simple_8f.html#aed8592c455e0f22092a5f434795d7026" target="_top" xlink:title="maxscatcen">
<polygon fill="none" stroke="#ff0000" points="455.5,-1992 455.5,-2012 532.5,-2012 532.5,-1992 455.5,-1992"/>
<text text-anchor="middle" x="494" y="-1999" font-family="FreeSans" font-size="10.00" fill="#000000">maxscatcen</text>
</a>
</g>
</g>
<!-- Node7&#45;&gt;Node20 -->
<g id="edge32" class="edge">
<title>Node7&#45;&gt;Node20</title>
<path fill="none" stroke="#191970" d="M317.2566,-1802.1503C333.8645,-1826.7856 378.5729,-1891.2273 423,-1939 438.7605,-1955.9474 458.5961,-1973.2601 473.2928,-1985.4372"/>
<polygon fill="#191970" stroke="#191970" points="471.3258,-1988.35 481.2824,-1991.9718 475.7576,-1982.9315 471.3258,-1988.35"/>
</g>
<!-- Node22 -->
<g id="node22" class="node">
<title>Node22</title>
<g id="a_node22"><a xlink:href="../../d3/dd5/jewel-2_82_80_8f.html#a6348b7eb6b53f7651b114766f802ce0a" target="_top" xlink:title="scatprimfunc">
<polygon fill="none" stroke="#ff0000" points="453,-1646 453,-1666 535,-1666 535,-1646 453,-1646"/>
<text text-anchor="middle" x="494" y="-1653" font-family="FreeSans" font-size="10.00" fill="#000000">scatprimfunc</text>
</a>
</g>
</g>
<!-- Node7&#45;&gt;Node22 -->
<g id="edge35" class="edge">
<title>Node7&#45;&gt;Node22</title>
<path fill="none" stroke="#191970" d="M318.1132,-1781.9228C334.8271,-1760.4482 376.9315,-1709.7942 423,-1681 430.1684,-1676.5195 438.2475,-1672.7071 446.3193,-1669.5112"/>
<polygon fill="#191970" stroke="#191970" points="447.5644,-1672.7825 455.7365,-1666.0396 445.1431,-1666.2145 447.5644,-1672.7825"/>
</g>
<!-- Node8&#45;&gt;Node9 -->
<g id="edge11" class="edge">
<title>Node8&#45;&gt;Node9</title>
<path fill="none" stroke="#191970" d="M1089.9673,-1708.9343C1095.9739,-1704.7697 1102.0929,-1699.4019 1106,-1693 1157.2475,-1609.0288 1184.9583,-1292.8424 1191.4838,-1209.3314"/>
<polygon fill="#191970" stroke="#191970" points="1194.9904,-1209.3784 1192.2642,-1199.1403 1188.0108,-1208.8438 1194.9904,-1209.3784"/>
</g>
<!-- Node10 -->
<g id="node10" class="node">
<title>Node10</title>
<g id="a_node10"><a xlink:href="../../df/dce/classActs_1_1Logging_1_1OutputPrintPolicy.html#ab113823970013e1e7f310b36509136ac" target="_top" xlink:title="handle output of debug message">
<polygon fill="none" stroke="#000000" points="1280,-1173 1280,-1205 1431,-1205 1431,-1173 1280,-1173"/>
<text text-anchor="start" x="1288" y="-1192" font-family="FreeSans" font-size="10.00" fill="#000000">Acts::Logging::OutputPrint</text>
<text text-anchor="middle" x="1355.5" y="-1180" font-family="FreeSans" font-size="10.00" fill="#000000">Policy::flush</text>
</a>
</g>
</g>
<!-- Node9&#45;&gt;Node10 -->
<g id="edge12" class="edge">
<title>Node9&#45;&gt;Node10</title>
<path fill="none" stroke="#191970" d="M1244.416,-1189C1252.5027,-1189 1261.0472,-1189 1269.6607,-1189"/>
<polygon fill="#191970" stroke="#191970" points="1269.7806,-1192.5001 1279.7806,-1189 1269.7805,-1185.5001 1269.7806,-1192.5001"/>
</g>
<!-- Node11&#45;&gt;Node2 -->
<g id="edge15" class="edge">
<title>Node11&#45;&gt;Node2</title>
<path fill="none" stroke="#191970" d="M528.8552,-1727.8289C541.4791,-1724.1332 555.0605,-1718.2693 565,-1709 606.0479,-1670.72 662.049,-1504.8211 680.6828,-1446.9808"/>
<polygon fill="#191970" stroke="#191970" points="684.096,-1447.798 683.8059,-1437.2072 677.4281,-1445.6673 684.096,-1447.798"/>
</g>
<!-- Node11&#45;&gt;Node4 -->
<g id="edge14" class="edge">
<title>Node11&#45;&gt;Node4</title>
<path fill="none" stroke="#191970" d="M513.1393,-1723.9058C529.781,-1714.0411 553.0462,-1697.3989 565,-1676 623.8253,-1570.6951 550.5221,-1516.5514 601,-1407 614.3328,-1378.0639 639.4379,-1351.6188 659.0957,-1333.8448"/>
<polygon fill="#191970" stroke="#191970" points="661.6701,-1336.2416 666.8658,-1327.0082 657.0461,-1330.9863 661.6701,-1336.2416"/>
</g>
<!-- Node11&#45;&gt;Node9 -->
<g id="edge16" class="edge">
<title>Node11&#45;&gt;Node9</title>
<path fill="none" stroke="#191970" d="M528.742,-1724.9179C591.6479,-1709.2963 728.8171,-1679 846.5,-1679 846.5,-1679 846.5,-1679 960.5,-1679 1059.9506,-1679 1059.4877,-1596.9035 1106,-1509 1161.4388,-1404.2264 1183.978,-1260.9939 1190.6774,-1208.9375"/>
<polygon fill="#191970" stroke="#191970" points="1194.1522,-1209.3557 1191.9029,-1199.0024 1187.2049,-1208.4986 1194.1522,-1209.3557"/>
</g>
<!-- Node12&#45;&gt;Node9 -->
<g id="edge19" class="edge">
<title>Node12&#45;&gt;Node9</title>
<path fill="none" stroke="#191970" d="M1076.3208,-1876.8402C1083.8367,-1860.5709 1098.2834,-1827.4993 1106,-1798 1165.1301,-1571.9543 1186.7337,-1287.5067 1191.7668,-1209.5523"/>
<polygon fill="#191970" stroke="#191970" points="1195.2822,-1209.4145 1192.4138,-1199.2154 1188.2959,-1208.9772 1195.2822,-1209.4145"/>
</g>
<!-- Node13 -->
<g id="node13" class="node">
<title>Node13</title>
<g id="a_node13"><a xlink:href="../../d8/d1a/classHiMain1.html#afa91501b2c79bdaf9274e067b9d97e31" target="_top" xlink:title="HiMain1::n0">
<polygon fill="none" stroke="#ff0000" points="1154.5,-2126 1154.5,-2146 1231.5,-2146 1231.5,-2126 1154.5,-2126"/>
<text text-anchor="middle" x="1193" y="-2133" font-family="FreeSans" font-size="10.00" fill="#000000">HiMain1::n0</text>
</a>
</g>
</g>
<!-- Node12&#45;&gt;Node13 -->
<g id="edge18" class="edge">
<title>Node12&#45;&gt;Node13</title>
<path fill="none" stroke="#191970" d="M1076.4134,-1897.0695C1094.7301,-1934.6074 1159.2308,-2066.794 1183.5905,-2116.7164"/>
<polygon fill="#191970" stroke="#191970" points="1180.4946,-2118.3529 1188.0254,-2125.8052 1186.7856,-2115.2832 1180.4946,-2118.3529"/>
</g>
<!-- Node14&#45;&gt;Node12 -->
<g id="edge21" class="edge">
<title>Node14&#45;&gt;Node12</title>
<path fill="none" stroke="#191970" d="M847.0758,-1521.1922C849.6068,-1558.1488 862.356,-1687.3804 920,-1772 951.3525,-1818.0245 1007.1442,-1853.3172 1041.5693,-1872.0442"/>
<polygon fill="#191970" stroke="#191970" points="1040.2012,-1875.2806 1050.6744,-1876.882 1043.4858,-1869.099 1040.2012,-1875.2806"/>
</g>
<!-- Node15&#45;&gt;Node13 -->
<g id="edge23" class="edge">
<title>Node15&#45;&gt;Node13</title>
<path fill="none" stroke="#191970" d="M528.1874,-2155.9729C642.2745,-2152.5454 1010.2299,-2141.4909 1143.8936,-2137.4753"/>
<polygon fill="#191970" stroke="#191970" points="1144.3374,-2140.9636 1154.2277,-2137.1648 1144.1271,-2133.9668 1144.3374,-2140.9636"/>
</g>
<!-- Node17 -->
<g id="node17" class="node">
<title>Node17</title>
<g id="a_node17"><a xlink:href="../../d2/d18/medium-simple_8f.html#a1cd3c6e61d77c5039b408b84094b6d01" target="_top" xlink:title="gettempmax">
<polygon fill="none" stroke="#000000" points="920,-2076 920,-2096 1001,-2096 1001,-2076 920,-2076"/>
<text text-anchor="middle" x="960.5" y="-2083" font-family="FreeSans" font-size="10.00" fill="#000000">gettempmax</text>
</a>
</g>
</g>
<!-- Node16&#45;&gt;Node17 -->
<g id="edge25" class="edge">
<title>Node16&#45;&gt;Node17</title>
<path fill="none" stroke="#191970" d="M882.2575,-2082.5683C890.8921,-2082.947 900.2857,-2083.359 909.4702,-2083.7618"/>
<polygon fill="#191970" stroke="#191970" points="909.5555,-2087.2689 919.6993,-2084.2105 909.8623,-2080.2756 909.5555,-2087.2689"/>
</g>
<!-- Node17&#45;&gt;Node12 -->
<g id="edge27" class="edge">
<title>Node17&#45;&gt;Node12</title>
<path fill="none" stroke="#191970" d="M966.1571,-2075.858C983.7441,-2044.3281 1037.6653,-1947.6587 1060.7883,-1906.2038"/>
<polygon fill="#191970" stroke="#191970" points="1063.9064,-1907.7985 1065.7212,-1897.3602 1057.7931,-1904.3885 1063.9064,-1907.7985"/>
</g>
<!-- Node17&#45;&gt;Node13 -->
<g id="edge26" class="edge">
<title>Node17&#45;&gt;Node13</title>
<path fill="none" stroke="#191970" d="M1001.2645,-2094.7666C1041.1727,-2103.349 1101.9913,-2116.4282 1144.3951,-2125.5473"/>
<polygon fill="#191970" stroke="#191970" points="1143.7058,-2128.979 1154.2182,-2127.6598 1145.1776,-2122.1355 1143.7058,-2128.979"/>
</g>
<!-- Node18&#45;&gt;Node9 -->
<g id="edge29" class="edge">
<title>Node18&#45;&gt;Node9</title>
<path fill="none" stroke="#191970" d="M527.5317,-1232.8908C590.1837,-1230.917 729.2829,-1227 846.5,-1227 846.5,-1227 846.5,-1227 960.5,-1227 1025.0867,-1227 1098.4596,-1212.5409 1145.2039,-1201.4609"/>
<polygon fill="#191970" stroke="#191970" points="1146.1504,-1204.833 1155.0495,-1199.0835 1144.5073,-1198.0286 1146.1504,-1204.833"/>
</g>
<!-- Node18&#45;&gt;Node19 -->
<g id="edge30" class="edge">
<title>Node18&#45;&gt;Node19</title>
<path fill="none" stroke="#191970" d="M527.618,-1239.574C562.6571,-1245.3836 617.2873,-1254.4414 652.6106,-1260.2981"/>
<polygon fill="#191970" stroke="#191970" points="652.4723,-1263.8229 662.9102,-1262.0058 653.6174,-1256.9172 652.4723,-1263.8229"/>
</g>
<!-- Node19&#45;&gt;Node14 -->
<g id="edge31" class="edge">
<title>Node19&#45;&gt;Node14</title>
<path fill="none" stroke="#191970" d="M711.0558,-1265.1718C730.1161,-1265.8185 756.2412,-1269.7927 773,-1285 804.3178,-1313.4185 832.6093,-1441.241 842.6394,-1491.0461"/>
<polygon fill="#191970" stroke="#191970" points="839.2207,-1491.8004 844.5952,-1500.9309 846.0876,-1490.4417 839.2207,-1491.8004"/>
</g>
<!-- Node20&#45;&gt;Node21 -->
<g id="edge33" class="edge">
<title>Node20&#45;&gt;Node21</title>
<path fill="none" stroke="#191970" d="M532.6884,-2011.6696C543.2766,-2014.6474 554.6766,-2018.1634 565,-2022 598.0813,-2034.2945 634.5709,-2051.91 658.9455,-2064.2958"/>
<polygon fill="#191970" stroke="#191970" points="657.4802,-2067.4777 667.9755,-2068.9271 660.6747,-2061.2491 657.4802,-2067.4777"/>
</g>
<!-- Node21&#45;&gt;Node16 -->
<g id="edge34" class="edge">
<title>Node21&#45;&gt;Node16</title>
<path fill="none" stroke="#191970" d="M722.003,-2079.4389C745.1344,-2079.729 775.6918,-2080.1121 800.7435,-2080.4263"/>
<polygon fill="#191970" stroke="#191970" points="800.7077,-2083.926 810.7509,-2080.5517 800.7956,-2076.9265 800.7077,-2083.926"/>
</g>
<!-- Node22&#45;&gt;Node2 -->
<g id="edge37" class="edge">
<title>Node22&#45;&gt;Node2</title>
<path fill="none" stroke="#191970" d="M535.3206,-1648.0664C546.0422,-1644.3565 556.8521,-1638.9293 565,-1631 597.0609,-1599.7993 578.9791,-1575.9418 601,-1537 621.0144,-1501.6065 651.7215,-1465.3702 670.5171,-1444.59"/>
<polygon fill="#191970" stroke="#191970" points="673.1418,-1446.9063 677.3195,-1437.1699 667.9819,-1442.176 673.1418,-1446.9063"/>
</g>
<!-- Node22&#45;&gt;Node4 -->
<g id="edge36" class="edge">
<title>Node22&#45;&gt;Node4</title>
<path fill="none" stroke="#191970" d="M510.6473,-1645.9343C527.1659,-1635.0251 551.8605,-1616.0497 565,-1593 606.6993,-1519.8498 563.5554,-1482.4167 601,-1407 615.1684,-1378.4637 640.1795,-1351.9736 659.5895,-1334.081"/>
<polygon fill="#191970" stroke="#191970" points="662.1548,-1336.4812 667.2503,-1327.1922 657.4742,-1331.2762 662.1548,-1336.4812"/>
</g>
<!-- Node22&#45;&gt;Node9 -->
<g id="edge38" class="edge">
<title>Node22&#45;&gt;Node9</title>
<path fill="none" stroke="#191970" d="M513.2714,-1645.9322C565.4268,-1619.6515 714.3197,-1551 846.5,-1551 846.5,-1551 846.5,-1551 960.5,-1551 1124.2612,-1551 1178.0544,-1285.4853 1190.1254,-1209.2435"/>
<polygon fill="#191970" stroke="#191970" points="1193.6307,-1209.4704 1191.6637,-1199.0598 1186.7092,-1208.4248 1193.6307,-1209.4704"/>
</g>
<!-- Node23&#45;&gt;Node12 -->
<g id="edge43" class="edge">
<title>Node23&#45;&gt;Node12</title>
<path fill="none" stroke="#191970" d="M967.5654,-2164.631C976.3087,-2151.4566 991.2339,-2127.804 1001,-2106 1032.5716,-2035.5121 1056.6716,-1946.5608 1066.5744,-1907.2546"/>
<polygon fill="#191970" stroke="#191970" points="1070.0242,-1907.8844 1069.0356,-1897.3358 1063.2302,-1906.1985 1070.0242,-1907.8844"/>
</g>
<!-- Node23&#45;&gt;Node13 -->
<g id="edge42" class="edge">
<title>Node23&#45;&gt;Node13</title>
<path fill="none" stroke="#191970" d="M987.1707,-2170.5262C1025.3974,-2164.114 1096.414,-2152.2015 1144.1936,-2144.1869"/>
<polygon fill="#191970" stroke="#191970" points="1145.0305,-2147.5955 1154.3137,-2142.4893 1143.8724,-2140.6919 1145.0305,-2147.5955"/>
</g>
<!-- Node24&#45;&gt;Node13 -->
<g id="edge45" class="edge">
<title>Node24&#45;&gt;Node13</title>
<path fill="none" stroke="#191970" d="M884.3772,-2257.3422C936.9823,-2261.6568 1033.8246,-2263.2825 1106,-2228 1139.5247,-2211.6117 1166.8423,-2176.5062 1181.4442,-2154.7115"/>
<polygon fill="#191970" stroke="#191970" points="1184.407,-2156.5754 1186.9047,-2146.2792 1178.5313,-2152.7705 1184.407,-2156.5754"/>
</g>
<!-- Node24&#45;&gt;Node17 -->
<g id="edge46" class="edge">
<title>Node24&#45;&gt;Node17</title>
<path fill="none" stroke="#191970" d="M853.4596,-2242.8048C872.1864,-2215.3716 923.8513,-2139.6871 947.8916,-2104.4702"/>
<polygon fill="#191970" stroke="#191970" points="950.8842,-2106.2942 953.6315,-2096.0618 945.1028,-2102.3476 950.8842,-2106.2942"/>
</g>
<!-- Node25&#45;&gt;Node13 -->
<g id="edge51" class="edge">
<title>Node25&#45;&gt;Node13</title>
<path fill="none" stroke="#191970" d="M352.7343,-2198.4119C460.968,-2206.4176 756.9256,-2223.656 1001,-2195 1058.8627,-2188.2065 1122.9758,-2165.1514 1160.5366,-2149.9534"/>
<polygon fill="#191970" stroke="#191970" points="1162.0288,-2153.1242 1169.9466,-2146.0844 1159.3669,-2146.6501 1162.0288,-2153.1242"/>
</g>
<!-- Node25&#45;&gt;Node15 -->
<g id="edge52" class="edge">
<title>Node25&#45;&gt;Node15</title>
<path fill="none" stroke="#191970" d="M352.5986,-2186.282C381.6567,-2180.2646 420.2231,-2172.2781 449.7381,-2166.166"/>
<polygon fill="#191970" stroke="#191970" points="450.6875,-2169.5437 459.77,-2164.0885 449.268,-2162.6891 450.6875,-2169.5437"/>
</g>
<!-- Node28&#45;&gt;Node2 -->
<g id="edge58" class="edge">
<title>Node28&#45;&gt;Node2</title>
<path fill="none" stroke="#191970" d="M158.7282,-1107.0427C161.7254,-1141.737 175.8586,-1258.2834 234,-1329 332.1017,-1448.3197 410.6123,-1440.0565 565,-1435 591.3078,-1434.1384 620.7555,-1432.2343 644.128,-1430.4999"/>
<polygon fill="#191970" stroke="#191970" points="644.6999,-1433.9667 654.4061,-1429.7193 644.1697,-1426.9868 644.6999,-1433.9667"/>
</g>
<!-- Node28&#45;&gt;Node4 -->
<g id="edge57" class="edge">
<title>Node28&#45;&gt;Node4</title>
<path fill="none" stroke="#191970" d="M171.5541,-1107.116C209.2979,-1134.7961 319.6381,-1212.4145 423,-1253 476.7467,-1274.1038 539.8174,-1288.32 590.832,-1297.3941"/>
<polygon fill="#191970" stroke="#191970" points="590.4158,-1300.8742 600.8679,-1299.1409 591.6162,-1293.9779 590.4158,-1300.8742"/>
</g>
<!-- Node28&#45;&gt;Node27 -->
<g id="edge84" class="edge">
<title>Node28&#45;&gt;Node27</title>
<path fill="none" stroke="#191970" d="M158.3113,-1086.9255C160.056,-1041.2535 170.9738,-849.8266 234,-710 279.9897,-607.9697 333.872,-608.502 387,-510 410.0204,-467.319 383.6158,-435.293 423,-407 495.2657,-355.0854 609.7394,-380.1799 660.8534,-395.343"/>
<polygon fill="#191970" stroke="#191970" points="659.8938,-398.7096 670.481,-398.3071 661.9536,-392.0195 659.8938,-398.7096"/>
</g>
<!-- Node29 -->
<g id="node29" class="node">
<title>Node29</title>
<g id="a_node29"><a xlink:href="../../d3/dd5/jewel-2_82_80_8f.html#a25d39c20240e7d391ba901cde30dec56" target="_top" xlink:title="getsudakov">
<polygon fill="none" stroke="#000000" points="273,-1300 273,-1320 348,-1320 348,-1300 273,-1300"/>
<text text-anchor="middle" x="310.5" y="-1307" font-family="FreeSans" font-size="10.00" fill="#000000">getsudakov</text>
</a>
</g>
</g>
<!-- Node28&#45;&gt;Node29 -->
<g id="edge59" class="edge">
<title>Node28&#45;&gt;Node29</title>
<path fill="none" stroke="#191970" d="M165.3554,-1107.2734C189.4624,-1140.9441 266.3128,-1248.2829 297.3307,-1291.6061"/>
<polygon fill="#191970" stroke="#191970" points="294.5511,-1293.7363 303.2184,-1299.8297 300.2428,-1289.6612 294.5511,-1293.7363"/>
</g>
<!-- Node33 -->
<g id="node33" class="node">
<title>Node33</title>
<g id="a_node33"><a xlink:href="../../d3/dd5/jewel-2_82_80_8f.html#a6a7de1452a015a48823a6f8e9233de63" target="_top" xlink:title="getmass">
<polygon fill="none" stroke="#ff0000" points="281,-952 281,-972 340,-972 340,-952 281,-952"/>
<text text-anchor="middle" x="310.5" y="-959" font-family="FreeSans" font-size="10.00" fill="#000000">getmass</text>
</a>
</g>
</g>
<!-- Node28&#45;&gt;Node33 -->
<g id="edge67" class="edge">
<title>Node28&#45;&gt;Node33</title>
<path fill="none" stroke="#191970" d="M169.4623,-1086.8531C195.4056,-1063.8868 258.863,-1007.7114 291.0686,-979.2016"/>
<polygon fill="#191970" stroke="#191970" points="293.737,-981.5138 298.9047,-972.2647 289.0971,-976.2724 293.737,-981.5138"/>
</g>
<!-- Node29&#45;&gt;Node2 -->
<g id="edge61" class="edge">
<title>Node29&#45;&gt;Node2</title>
<path fill="none" stroke="#191970" d="M318.4498,-1320.293C335.1726,-1341.054 376.3185,-1387.6157 423,-1407 496.0278,-1437.3245 590.1238,-1435.9247 643.9946,-1431.7439"/>
<polygon fill="#191970" stroke="#191970" points="644.5449,-1435.2099 654.2142,-1430.8792 643.9547,-1428.2348 644.5449,-1435.2099"/>
</g>
<!-- Node29&#45;&gt;Node4 -->
<g id="edge60" class="edge">
<title>Node29&#45;&gt;Node4</title>
<path fill="none" stroke="#191970" d="M348.3241,-1310.1005C404.4505,-1310.2495 511.6285,-1310.5342 590.4389,-1310.7435"/>
<polygon fill="#191970" stroke="#191970" points="590.8662,-1314.2446 600.8755,-1310.7712 590.8849,-1307.2446 590.8662,-1314.2446"/>
</g>
<!-- Node30 -->
<g id="node30" class="node">
<title>Node30</title>
<g id="a_node30"><a xlink:href="../../d3/dd5/jewel-2_82_80_8f.html#a0bb10c0b7bce1e8a6fc25b780eed0d21" target="_top" xlink:title="getinsudafast">
<polygon fill="none" stroke="#ff0000" points="451,-1378 451,-1398 537,-1398 537,-1378 451,-1378"/>
<text text-anchor="middle" x="494" y="-1385" font-family="FreeSans" font-size="10.00" fill="#000000">getinsudafast</text>
</a>
</g>
</g>
<!-- Node29&#45;&gt;Node30 -->
<g id="edge62" class="edge">
<title>Node29&#45;&gt;Node30</title>
<path fill="none" stroke="#191970" d="M334.1138,-1320.0375C366.3689,-1333.7481 424.3628,-1358.3994 460.93,-1373.943"/>
<polygon fill="#191970" stroke="#191970" points="459.6139,-1377.1866 470.1862,-1377.8775 462.3523,-1370.7444 459.6139,-1377.1866"/>
</g>
<!-- Node31 -->
<g id="node31" class="node">
<title>Node31</title>
<g id="a_node31"><a xlink:href="../../d3/dd5/jewel-2_82_80_8f.html#a7d7b2c8fe1f5252de34c6c3ff9a601e1" target="_top" xlink:title="odeint">
<polygon fill="none" stroke="#ff0000" points="469.5,-1185 469.5,-1205 518.5,-1205 518.5,-1185 469.5,-1185"/>
<text text-anchor="middle" x="494" y="-1192" font-family="FreeSans" font-size="10.00" fill="#000000">odeint</text>
</a>
</g>
</g>
<!-- Node29&#45;&gt;Node31 -->
<g id="edge65" class="edge">
<title>Node29&#45;&gt;Node31</title>
<path fill="none" stroke="#191970" d="M319.3413,-1299.913C337.037,-1280.3568 378.9091,-1237.1762 423,-1214 434.1818,-1208.1223 447.3334,-1203.9492 459.2589,-1201.0412"/>
<polygon fill="#191970" stroke="#191970" points="460.3404,-1204.3864 469.343,-1198.8004 458.8218,-1197.5531 460.3404,-1204.3864"/>
</g>
<!-- Node30&#45;&gt;Node2 -->
<g id="edge64" class="edge">
<title>Node30&#45;&gt;Node2</title>
<path fill="none" stroke="#191970" d="M537.313,-1396.7524C569.3039,-1403.2168 612.6359,-1411.9731 644.4456,-1418.4009"/>
<polygon fill="#191970" stroke="#191970" points="643.8444,-1421.8501 654.3395,-1420.4002 645.2309,-1414.9888 643.8444,-1421.8501"/>
</g>
<!-- Node30&#45;&gt;Node4 -->
<g id="edge63" class="edge">
<title>Node30&#45;&gt;Node4</title>
<path fill="none" stroke="#191970" d="M523.8652,-1377.9625C536.6086,-1373.5562 551.6016,-1368.2081 565,-1363 590.5374,-1353.0734 618.6948,-1341.1393 641.5182,-1331.209"/>
<polygon fill="#191970" stroke="#191970" points="643.1881,-1334.2989 650.9499,-1327.0875 640.3851,-1327.8846 643.1881,-1334.2989"/>
</g>
<!-- Node32 -->
<g id="node32" class="node">
<title>Node32</title>
<g id="a_node32"><a xlink:href="../../da/d0a/CylinderKalman_8cpp.html#ab74daa0c9784c63e060bfb98cc06fbf5" target="_top" xlink:title="sign">
<polygon fill="none" stroke="#000000" points="668.5,-106 668.5,-126 705.5,-126 705.5,-106 668.5,-106"/>
<text text-anchor="middle" x="687" y="-113" font-family="FreeSans" font-size="10.00" fill="#000000">sign</text>
</a>
</g>
</g>
<!-- Node31&#45;&gt;Node32 -->
<g id="edge66" class="edge">
<title>Node31&#45;&gt;Node32</title>
<path fill="none" stroke="#191970" d="M504.6664,-1184.8938C521.1554,-1168.487 552.2607,-1134.2251 565,-1098 624.701,-928.2359 555.9725,-463.2314 601,-289 616.5156,-228.9634 654.4727,-165.4157 674.3665,-134.7388"/>
<polygon fill="#191970" stroke="#191970" points="677.3379,-136.5905 679.9157,-126.314 671.492,-132.7399 677.3379,-136.5905"/>
</g>
<!-- Node33&#45;&gt;Node2 -->
<g id="edge69" class="edge">
<title>Node33&#45;&gt;Node2</title>
<path fill="none" stroke="#191970" d="M317.0239,-972.3526C332.7872,-996.7365 375.1941,-1058.682 423,-1098 478.4482,-1143.6034 521.7265,-1117.7149 565,-1175 609.1957,-1233.5059 566.585,-1271.2558 601,-1336 617.0694,-1366.231 645.918,-1393.7084 665.739,-1410.3776"/>
<polygon fill="#191970" stroke="#191970" points="663.665,-1413.2031 673.6174,-1416.8363 668.1029,-1407.7897 663.665,-1413.2031"/>
</g>
<!-- Node33&#45;&gt;Node4 -->
<g id="edge68" class="edge">
<title>Node33&#45;&gt;Node4</title>
<path fill="none" stroke="#191970" d="M330.4615,-951.8756C377.8828,-929.4116 498.3083,-881.9416 565,-942 621.9515,-993.2869 552.1626,-1225.9345 601,-1285 601.9939,-1286.2021 603.0415,-1287.35 604.1368,-1288.446"/>
<polygon fill="#191970" stroke="#191970" points="602.0649,-1291.2744 612.0008,-1294.9526 606.5273,-1285.8811 602.0649,-1291.2744"/>
</g>
<!-- Node33&#45;&gt;Node9 -->
<g id="edge83" class="edge">
<title>Node33&#45;&gt;Node9</title>
<path fill="none" stroke="#191970" d="M315.0473,-951.5843C328.1944,-921.0638 366.6097,-828.9538 387,-749 399.8385,-698.6583 384.7755,-553.1852 423,-518 466.2757,-478.1651 628.1816,-499 687,-499 687,-499 687,-499 960.5,-499 1105.7798,-499 1177.6101,-1055.2637 1190.7663,-1168.8807"/>
<polygon fill="#191970" stroke="#191970" points="1187.3072,-1169.4395 1191.9147,-1178.98 1194.2623,-1168.6485 1187.3072,-1169.4395"/>
</g>
<!-- Node33&#45;&gt;Node27 -->
<g id="edge79" class="edge">
<title>Node33&#45;&gt;Node27</title>
<path fill="none" stroke="#191970" d="M315.1212,-951.6028C328.4687,-921.1324 367.373,-829.1446 387,-749 401.0839,-691.4898 384.4333,-529.9265 423,-485 465.8684,-435.0625 502.0964,-462.3544 565,-443 598.1019,-432.8151 636.0836,-420.5874 660.7548,-412.5724"/>
<polygon fill="#191970" stroke="#191970" points="662.0344,-415.8367 670.4602,-409.4136 659.868,-409.1804 662.0344,-415.8367"/>
</g>
<!-- Node34 -->
<g id="node34" class="node">
<title>Node34</title>
<g id="a_node34"><a xlink:href="../../d3/dd5/jewel-2_82_80_8f.html#a861c6a640ff0e9cf7304375200c3d5e0" target="_top" xlink:title="alphas">
<polygon fill="none" stroke="#000000" points="469,-720 469,-740 519,-740 519,-720 469,-720"/>
<text text-anchor="middle" x="494" y="-727" font-family="FreeSans" font-size="10.00" fill="#000000">alphas</text>
</a>
</g>
</g>
<!-- Node33&#45;&gt;Node34 -->
<g id="edge70" class="edge">
<title>Node33&#45;&gt;Node34</title>
<path fill="none" stroke="#191970" d="M315.6202,-951.8235C330.0234,-923.7777 373.1092,-843.7613 423,-788 437.15,-772.185 455.8195,-757.1111 470.4627,-746.296"/>
<polygon fill="#191970" stroke="#191970" points="472.9247,-748.8354 478.9834,-740.1439 468.827,-743.1601 472.9247,-748.8354"/>
</g>
<!-- Node35 -->
<g id="node35" class="node">
<title>Node35</title>
<g id="a_node35"><a xlink:href="../../d0/d2c/gmin_8f.html#a0a524108403ffb2c2ed11018378f1c75" target="_top" xlink:title="gmin">
<polygon fill="none" stroke="#ff0000" points="473.5,-1069 473.5,-1089 514.5,-1089 514.5,-1069 473.5,-1069"/>
<text text-anchor="middle" x="494" y="-1076" font-family="FreeSans" font-size="10.00" fill="#000000">gmin</text>
</a>
</g>
</g>
<!-- Node33&#45;&gt;Node35 -->
<g id="edge74" class="edge">
<title>Node33&#45;&gt;Node35</title>
<path fill="none" stroke="#191970" d="M319.3448,-972.1457C337.0466,-991.8246 378.9288,-1035.3194 423,-1059 435.4617,-1065.696 450.3893,-1070.3373 463.3341,-1073.4503"/>
<polygon fill="#191970" stroke="#191970" points="462.6862,-1076.8914 473.2055,-1075.6292 464.195,-1070.056 462.6862,-1076.8914"/>
</g>
<!-- Node36 -->
<g id="node36" class="node">
<title>Node36</title>
<g id="a_node36"><a xlink:href="../../d3/dd5/jewel-2_82_80_8f.html#a3e5d5aa7f6baedf76c30babb8b2bddea" target="_top" xlink:title="getinspliti">
<polygon fill="none" stroke="#ff0000" points="461,-798 461,-818 527,-818 527,-798 461,-798"/>
<text text-anchor="middle" x="494" y="-805" font-family="FreeSans" font-size="10.00" fill="#000000">getinspliti</text>
</a>
</g>
</g>
<!-- Node33&#45;&gt;Node36 -->
<g id="edge75" class="edge">
<title>Node33&#45;&gt;Node36</title>
<path fill="none" stroke="#191970" d="M322.5399,-951.8956C353.3771,-926.016 435.4599,-857.129 473.7741,-824.9743"/>
<polygon fill="#191970" stroke="#191970" points="476.2651,-827.453 481.6751,-818.3435 471.7652,-822.091 476.2651,-827.453"/>
</g>
<!-- Node37 -->
<g id="node37" class="node">
<title>Node37</title>
<g id="a_node37"><a xlink:href="../../d3/dd5/jewel-2_82_80_8f.html#a5c4972205992c66a4d4f520bf2322bae" target="_top" xlink:title="pqq">
<polygon fill="none" stroke="#000000" points="476.5,-1030 476.5,-1050 511.5,-1050 511.5,-1030 476.5,-1030"/>
<text text-anchor="middle" x="494" y="-1037" font-family="FreeSans" font-size="10.00" fill="#000000">pqq</text>
</a>
</g>
</g>
<!-- Node33&#45;&gt;Node37 -->
<g id="edge80" class="edge">
<title>Node33&#45;&gt;Node37</title>
<path fill="none" stroke="#191970" d="M327.5303,-972.1611C349.1387,-984.7263 387.835,-1006.1462 423,-1020 437.0083,-1025.5188 453.1249,-1030.1869 466.4588,-1033.6216"/>
<polygon fill="#191970" stroke="#191970" points="465.9135,-1037.0924 476.4622,-1036.1044 467.5998,-1030.2985 465.9135,-1037.0924"/>
</g>
<!-- Node38 -->
<g id="node38" class="node">
<title>Node38</title>
<g id="a_node38"><a xlink:href="../../d3/dd5/jewel-2_82_80_8f.html#af89efb4bec96c21255b038d832d901ab" target="_top" xlink:title="pgg">
<polygon fill="none" stroke="#000000" points="476.5,-991 476.5,-1011 511.5,-1011 511.5,-991 476.5,-991"/>
<text text-anchor="middle" x="494" y="-998" font-family="FreeSans" font-size="10.00" fill="#000000">pgg</text>
</a>
</g>
</g>
<!-- Node33&#45;&gt;Node38 -->
<g id="edge81" class="edge">
<title>Node33&#45;&gt;Node38</title>
<path fill="none" stroke="#191970" d="M340.3908,-968.3528C375.2136,-975.7538 432.2893,-987.8844 466.1936,-995.0902"/>
<polygon fill="#191970" stroke="#191970" points="465.8206,-998.589 476.3298,-997.2445 467.2759,-991.742 465.8206,-998.589"/>
</g>
<!-- Node39 -->
<g id="node39" class="node">
<title>Node39</title>
<g id="a_node39"><a xlink:href="../../d3/dd5/jewel-2_82_80_8f.html#a9c971fc07a1a6587c5ec282bcbfd1d1a" target="_top" xlink:title="pqg">
<polygon fill="none" stroke="#000000" points="476.5,-952 476.5,-972 511.5,-972 511.5,-952 476.5,-952"/>
<text text-anchor="middle" x="494" y="-959" font-family="FreeSans" font-size="10.00" fill="#000000">pqg</text>
</a>
</g>
</g>
<!-- Node33&#45;&gt;Node39 -->
<g id="edge82" class="edge">
<title>Node33&#45;&gt;Node39</title>
<path fill="none" stroke="#191970" d="M340.3908,-962C375.2136,-962 432.2893,-962 466.1936,-962"/>
<polygon fill="#191970" stroke="#191970" points="466.3298,-965.5001 476.3298,-962 466.3297,-958.5001 466.3298,-965.5001"/>
</g>
<!-- Node34&#45;&gt;Node2 -->
<g id="edge71" class="edge">
<title>Node34&#45;&gt;Node2</title>
<path fill="none" stroke="#191970" d="M513.8156,-740.0987C530.6649,-749.8627 553.8473,-766.3518 565,-788 620.8915,-896.4895 552.1994,-1224.1415 601,-1336 614.675,-1367.3452 644.0216,-1394.532 664.6134,-1410.8334"/>
<polygon fill="#191970" stroke="#191970" points="662.4982,-1413.622 672.5621,-1416.9338 666.76,-1408.0689 662.4982,-1413.622"/>
</g>
<!-- Node34&#45;&gt;Node4 -->
<g id="edge73" class="edge">
<title>Node34&#45;&gt;Node4</title>
<path fill="none" stroke="#191970" d="M519.0859,-732.0034C534.8779,-734.6803 554.2437,-740.8517 565,-755 636.4446,-848.9748 527.4608,-1192.6551 601,-1285 601.8472,-1286.0638 602.7364,-1287.0854 603.6639,-1288.0662"/>
<polygon fill="#191970" stroke="#191970" points="601.608,-1290.9159 611.4584,-1294.8171 606.1908,-1285.6246 601.608,-1290.9159"/>
</g>
<!-- Node34&#45;&gt;Node9 -->
<g id="edge72" class="edge">
<title>Node34&#45;&gt;Node9</title>
<path fill="none" stroke="#191970" d="M519.3063,-733.5454C533.6584,-736.4772 551.4084,-741.7272 565,-751 733.3587,-865.8624 642.6912,-1113 846.5,-1113 846.5,-1113 846.5,-1113 960.5,-1113 1038.3101,-1113 1123.8412,-1151.9328 1166.181,-1174.0674"/>
<polygon fill="#191970" stroke="#191970" points="1164.7937,-1177.294 1175.2649,-1178.9078 1168.0855,-1171.1163 1164.7937,-1177.294"/>
</g>
<!-- Node36&#45;&gt;Node2 -->
<g id="edge77" class="edge">
<title>Node36&#45;&gt;Node2</title>
<path fill="none" stroke="#191970" d="M527.3258,-811.6983C541.1581,-815.014 556.0415,-821.2607 565,-833 632.9839,-922.0868 555.8885,-1233.4172 601,-1336 614.7666,-1367.305 644.0923,-1394.5011 664.6542,-1410.8155"/>
<polygon fill="#191970" stroke="#191970" points="662.5305,-1413.5976 672.5904,-1416.9214 666.7989,-1408.0496 662.5305,-1413.5976"/>
</g>
<!-- Node36&#45;&gt;Node4 -->
<g id="edge76" class="edge">
<title>Node36&#45;&gt;Node4</title>
<path fill="none" stroke="#191970" d="M527.2817,-811.732C541.1055,-815.0543 555.9944,-821.2967 565,-833 626.4491,-912.8567 537.7712,-1206.5449 601,-1285 601.8534,-1286.0589 602.7484,-1287.0758 603.6812,-1288.0524"/>
<polygon fill="#191970" stroke="#191970" points="601.643,-1290.9156 611.5094,-1294.7763 606.204,-1285.6055 601.643,-1290.9156"/>
</g>
<!-- Node36&#45;&gt;Node9 -->
<g id="edge78" class="edge">
<title>Node36&#45;&gt;Node9</title>
<path fill="none" stroke="#191970" d="M527.088,-807.0101C540.7037,-808.4089 555.4832,-812.5822 565,-823 656.7636,-923.4513 503.8171,-1031.7818 601,-1127 679.3085,-1203.7254 736.8687,-1151 846.5,-1151 846.5,-1151 846.5,-1151 960.5,-1151 1025.0867,-1151 1098.4596,-1165.4591 1145.2039,-1176.5391"/>
<polygon fill="#191970" stroke="#191970" points="1144.5073,-1179.9714 1155.0495,-1178.9165 1146.1504,-1173.167 1144.5073,-1179.9714"/>
</g>
<!-- Node40&#45;&gt;Node2 -->
<g id="edge87" class="edge">
<title>Node40&#45;&gt;Node2</title>
<path fill="none" stroke="#191970" d="M159.8803,-567.2041C165.9138,-597.6777 187.1901,-689.5804 234,-749 297.5621,-829.6845 333.1819,-832.172 423,-882 482.9118,-915.237 524.5765,-886.6821 565,-942 616.8735,-1012.9867 564.8178,-1255.87 601,-1336 615.0112,-1367.0296 644.0693,-1394.1534 664.5178,-1410.5357"/>
<polygon fill="#191970" stroke="#191970" points="662.6406,-1413.5094 672.6853,-1416.8791 666.9344,-1407.981 662.6406,-1413.5094"/>
</g>
<!-- Node40&#45;&gt;Node4 -->
<g id="edge86" class="edge">
<title>Node40&#45;&gt;Node4</title>
<path fill="none" stroke="#191970" d="M169.5014,-567.3018C183.6835,-579.4752 208.9923,-599.5218 234,-611 302.8711,-642.6108 516.5104,-634.7658 565,-693 649.3354,-794.2838 519.2612,-1181.6093 601,-1285 601.8434,-1286.0668 602.7291,-1287.0911 603.6533,-1288.0746"/>
<polygon fill="#191970" stroke="#191970" points="601.5867,-1290.9159 611.4273,-1294.8418 606.1827,-1285.6361 601.5867,-1290.9159"/>
</g>
<!-- Node40&#45;&gt;Node14 -->
<g id="edge104" class="edge">
<title>Node40&#45;&gt;Node14</title>
<path fill="none" stroke="#191970" d="M186.738,-559.5399C278.4281,-567.7065 558.4058,-593.1568 565,-600 646.451,-684.5266 542.9924,-1024.9504 601,-1127 646.9365,-1207.8135 719.136,-1170.2395 773,-1246 787.587,-1266.5168 828.0261,-1433.0937 841.8198,-1491.1401"/>
<polygon fill="#191970" stroke="#191970" points="838.4308,-1492.0181 844.1406,-1500.9426 845.2425,-1490.4052 838.4308,-1492.0181"/>
</g>
<!-- Node40&#45;&gt;Node18 -->
<g id="edge105" class="edge">
<title>Node40&#45;&gt;Node18</title>
<path fill="none" stroke="#191970" d="M159.0285,-567.2283C164.8953,-624.387 195.2394,-904.4375 234,-981 278.5862,-1069.0697 330.3062,-1061.1915 387,-1142 407.5479,-1171.288 395.4267,-1191.2028 423,-1214 430.8464,-1220.4873 440.6666,-1224.8741 450.478,-1227.8395"/>
<polygon fill="#191970" stroke="#191970" points="449.6553,-1231.2418 460.2131,-1230.3562 451.4074,-1224.4646 449.6553,-1231.2418"/>
</g>
<!-- Node40&#45;&gt;Node19 -->
<g id="edge102" class="edge">
<title>Node40&#45;&gt;Node19</title>
<path fill="none" stroke="#191970" d="M176.5025,-567.023C191.5629,-574.7482 213.593,-585.0802 234,-591 305.3822,-611.707 514.5953,-584.3779 565,-639 650.1698,-731.296 540.6633,-1092.855 601,-1203 612.7679,-1224.4823 635.3525,-1240.5904 654.425,-1251.1396"/>
<polygon fill="#191970" stroke="#191970" points="652.9617,-1254.3243 663.443,-1255.8709 656.2139,-1248.1256 652.9617,-1254.3243"/>
</g>
<!-- Node40&#45;&gt;Node27 -->
<g id="edge116" class="edge">
<title>Node40&#45;&gt;Node27</title>
<path fill="none" stroke="#191970" d="M186.8184,-550.9787C234.3936,-539.6588 329.781,-510.9451 387,-453 414.9663,-424.6789 389.6756,-392.7643 423,-371 498.0494,-321.985 611.023,-366.2457 661.2962,-390.5321"/>
<polygon fill="#191970" stroke="#191970" points="659.9713,-393.7817 670.4851,-395.0895 663.0816,-387.5107 659.9713,-393.7817"/>
</g>
<!-- Node41 -->
<g id="node41" class="node">
<title>Node41</title>
<g id="a_node41"><a xlink:href="../../db/dc0/classHiStrng.html#a9c8d7f68590dc5bf34483b740c49ba0b" target="_top" xlink:title="HiStrng::pt">
<polygon fill="none" stroke="#ff0000" points="275,-351 275,-371 346,-371 346,-351 275,-351"/>
<text text-anchor="middle" x="310.5" y="-358" font-family="FreeSans" font-size="10.00" fill="#000000">HiStrng::pt</text>
</a>
</g>
</g>
<!-- Node40&#45;&gt;Node41 -->
<g id="edge88" class="edge">
<title>Node40&#45;&gt;Node41</title>
<path fill="none" stroke="#191970" d="M159.2349,-546.7508C163.4662,-516.3059 180.228,-425.6912 234,-380 242.623,-372.6729 253.6566,-368.0968 264.644,-365.2591"/>
<polygon fill="#191970" stroke="#191970" points="265.6075,-368.6321 274.651,-363.1126 264.1394,-361.7878 265.6075,-368.6321"/>
</g>
<!-- Node42 -->
<g id="node42" class="node">
<title>Node42</title>
<g id="a_node42"><a xlink:href="../../d3/dd5/jewel-2_82_80_8f.html#ad4520be5deeb9f55f4be1ce218ccfea7" target="_top" xlink:title="gett">
<polygon fill="none" stroke="#000000" points="292,-720 292,-740 329,-740 329,-720 292,-720"/>
<text text-anchor="middle" x="310.5" y="-727" font-family="FreeSans" font-size="10.00" fill="#000000">gett</text>
</a>
</g>
</g>
<!-- Node40&#45;&gt;Node42 -->
<g id="edge89" class="edge">
<title>Node40&#45;&gt;Node42</title>
<path fill="none" stroke="#191970" d="M163.6719,-567.0837C175.3072,-587.294 203.3714,-633.6733 234,-667 250.3065,-684.743 271.6693,-701.9293 287.6744,-713.8569"/>
<polygon fill="#191970" stroke="#191970" points="285.8119,-716.831 295.9488,-719.9125 289.946,-711.1822 285.8119,-716.831"/>
</g>
<!-- Node40&#45;&gt;Node43 -->
<g id="edge94" class="edge">
<title>Node40&#45;&gt;Node43</title>
<path fill="none" stroke="#191970" d="M160.0425,-546.5147C167.3331,-510.09 193.8033,-386.0286 234,-290 252.2626,-246.3713 281.4573,-199.0882 297.9993,-173.684"/>
<polygon fill="#191970" stroke="#191970" points="301.0937,-175.3488 303.6705,-165.0721 295.2475,-171.4989 301.0937,-175.3488"/>
</g>
<!-- Node47 -->
<g id="node47" class="node">
<title>Node47</title>
<g id="a_node47"><a xlink:href="../../da/dbc/classPHTFileServer_1_1SafeTFile.html#a1e6afb90f74e247a4c638b478b06765f" target="_top" xlink:title="get reference to counter">
<polygon fill="none" stroke="#000000" points="241.5,-300 241.5,-332 379.5,-332 379.5,-300 241.5,-300"/>
<text text-anchor="start" x="249.5" y="-319" font-family="FreeSans" font-size="10.00" fill="#000000">PHTFileServer::SafeTFile</text>
<text text-anchor="middle" x="310.5" y="-307" font-family="FreeSans" font-size="10.00" fill="#000000">::counter</text>
</a>
</g>
</g>
<!-- Node40&#45;&gt;Node47 -->
<g id="edge103" class="edge">
<title>Node40&#45;&gt;Node47</title>
<path fill="none" stroke="#191970" d="M158.5212,-546.7515C160.8195,-512.4928 172.8884,-400.7538 234,-341 235.0927,-339.9316 236.2317,-338.9088 237.411,-337.9298"/>
<polygon fill="#191970" stroke="#191970" points="239.5549,-340.7008 245.7165,-332.0819 235.5249,-334.9772 239.5549,-340.7008"/>
</g>
<!-- Node48 -->
<g id="node48" class="node">
<title>Node48</title>
<g id="a_node48"><a xlink:href="../../d2/d18/medium-simple_8f.html#a82733806adf664aa6249cb48333d0f72" target="_top" xlink:title="getscatterer">
<polygon fill="none" stroke="#ff0000" points="455,-528 455,-548 533,-548 533,-528 455,-528"/>
<text text-anchor="middle" x="494" y="-535" font-family="FreeSans" font-size="10.00" fill="#000000">getscatterer</text>
</a>
</g>
</g>
<!-- Node40&#45;&gt;Node48 -->
<g id="edge106" class="edge">
<title>Node40&#45;&gt;Node48</title>
<path fill="none" stroke="#191970" d="M186.6472,-555.3801C243.9749,-552.1383 373.4035,-544.8194 444.6568,-540.7902"/>
<polygon fill="#191970" stroke="#191970" points="444.9455,-544.2796 454.7319,-540.2205 444.5502,-537.2908 444.9455,-544.2796"/>
</g>
<!-- Node49 -->
<g id="node49" class="node">
<title>Node49</title>
<g id="a_node49"><a xlink:href="../../df/de8/cemc_8C.html#a72d4716092b469b4bc1d816359a90e14" target="_top" xlink:title="cos">
<polygon fill="none" stroke="#000000" points="670.5,-299 670.5,-319 703.5,-319 703.5,-299 670.5,-299"/>
<text text-anchor="middle" x="687" y="-306" font-family="FreeSans" font-size="10.00" fill="#000000">cos</text>
</a>
</g>
</g>
<!-- Node40&#45;&gt;Node49 -->
<g id="edge117" class="edge">
<title>Node40&#45;&gt;Node49</title>
<path fill="none" stroke="#191970" d="M162.3746,-546.8165C171.9998,-525.7013 197.1303,-477.1133 234,-453 292.2978,-414.8724 332.3284,-462.1666 387,-419 415.7053,-396.3354 393.3776,-366.4521 423,-345 495.4028,-292.5671 608.9381,-298.7818 660.2439,-304.9782"/>
<polygon fill="#191970" stroke="#191970" points="659.8414,-308.4553 670.2103,-306.2791 660.7474,-301.5142 659.8414,-308.4553"/>
</g>
<!-- Node50 -->
<g id="node50" class="node">
<title>Node50</title>
<g id="a_node50"><a xlink:href="../../d6/dcf/pythia6425mod_8f.html#a98ffa3df00dbe1c8a9944e3453e44580" target="_top" xlink:title="pyrobo">
<polygon fill="none" stroke="#ff0000" points="285,-390 285,-410 336,-410 336,-390 285,-390"/>
<text text-anchor="middle" x="310.5" y="-397" font-family="FreeSans" font-size="10.00" fill="#000000">pyrobo</text>
</a>
</g>
</g>
<!-- Node40&#45;&gt;Node50 -->
<g id="edge114" class="edge">
<title>Node40&#45;&gt;Node50</title>
<path fill="none" stroke="#191970" d="M161.0657,-546.721C168.9578,-522.0145 192.3312,-458.8426 234,-425 245.6949,-415.5016 261.11,-409.5694 275.0366,-405.8843"/>
<polygon fill="#191970" stroke="#191970" points="275.9063,-409.2754 284.8397,-403.5793 274.304,-402.4612 275.9063,-409.2754"/>
</g>
<!-- Node42&#45;&gt;Node2 -->
<g id="edge91" class="edge">
<title>Node42&#45;&gt;Node2</title>
<path fill="none" stroke="#191970" d="M329.1674,-731.9999C346.0128,-734.6766 370.5972,-740.8584 387,-755 414.0969,-778.3615 398.4725,-800.9539 423,-827 472.9626,-880.056 525.9423,-847.4719 565,-909 616.0344,-989.3952 562.1157,-1249.0752 601,-1336 614.9024,-1367.0785 643.9849,-1394.1914 664.4686,-1410.5578"/>
<polygon fill="#191970" stroke="#191970" points="662.602,-1413.5391 672.6515,-1416.8943 666.8878,-1408.0044 662.602,-1413.5391"/>
</g>
<!-- Node42&#45;&gt;Node4 -->
<g id="edge90" class="edge">
<title>Node42&#45;&gt;Node4</title>
<path fill="none" stroke="#191970" d="M329.2907,-725.114C382.2656,-711.8471 531.1621,-678.2144 565,-710 658.315,-797.6554 521.5098,-1184.6383 601,-1285 601.8444,-1286.0661 602.731,-1287.0897 603.656,-1288.0725"/>
<polygon fill="#191970" stroke="#191970" points="601.5921,-1290.9159 611.4352,-1294.8356 606.1848,-1285.6332 601.5921,-1290.9159"/>
</g>
<!-- Node42&#45;&gt;Node27 -->
<g id="edge92" class="edge">
<title>Node42&#45;&gt;Node27</title>
<path fill="none" stroke="#191970" d="M329.3203,-729.2574C347.0124,-727.4855 372.8322,-721.9306 387,-705 461.3013,-616.2094 342.0724,-529.7959 423,-447 455.62,-413.6269 599.7513,-406.1518 660.1874,-404.4803"/>
<polygon fill="#191970" stroke="#191970" points="660.5405,-407.9728 670.4525,-404.2307 660.3703,-400.9749 660.5405,-407.9728"/>
</g>
<!-- Node42&#45;&gt;Node34 -->
<g id="edge93" class="edge">
<title>Node42&#45;&gt;Node34</title>
<path fill="none" stroke="#191970" d="M329.1048,-730C359.4206,-730 419.9697,-730 458.6562,-730"/>
<polygon fill="#191970" stroke="#191970" points="458.9448,-733.5001 468.9448,-730 458.9447,-726.5001 458.9448,-733.5001"/>
</g>
<!-- Node43&#45;&gt;Node9 -->
<g id="edge101" class="edge">
<title>Node43&#45;&gt;Node9</title>
<path fill="none" stroke="#191970" d="M328.1423,-155C381.9541,-155 548.7539,-155 687,-155 687,-155 687,-155 960.5,-155 1149.6738,-155 1060.5513,-371.3669 1106,-555 1164.6407,-791.9347 1186.7061,-1089.1309 1191.7852,-1168.6597"/>
<polygon fill="#191970" stroke="#191970" points="1188.3006,-1169.0171 1192.4137,-1178.781 1195.2871,-1168.5833 1188.3006,-1169.0171"/>
</g>
<!-- Node43&#45;&gt;Node32 -->
<g id="edge100" class="edge">
<title>Node43&#45;&gt;Node32</title>
<path fill="none" stroke="#191970" d="M328.0191,-152.6579C350.1319,-149.739 389.3484,-144.6864 423,-141 508.519,-131.6317 609.8551,-122.6195 658.3501,-118.4352"/>
<polygon fill="#191970" stroke="#191970" points="658.753,-121.9136 668.4168,-117.5706 658.1539,-114.9393 658.753,-121.9136"/>
</g>
<!-- Node44 -->
<g id="node44" class="node">
<title>Node44</title>
<g id="a_node44"><a xlink:href="../../d6/dcf/pythia6425mod_8f.html#a27f75936fde97780175fa2c990bc61cd" target="_top" xlink:title="pychge">
<polygon fill="none" stroke="#000000" points="467.5,-29 467.5,-49 520.5,-49 520.5,-29 467.5,-29"/>
<text text-anchor="middle" x="494" y="-36" font-family="FreeSans" font-size="10.00" fill="#000000">pychge</text>
</a>
</g>
</g>
<!-- Node43&#45;&gt;Node44 -->
<g id="edge95" class="edge">
<title>Node43&#45;&gt;Node44</title>
<path fill="none" stroke="#191970" d="M319.3177,-144.8034C336.9719,-125.0354 378.7747,-81.3915 423,-58 433.6433,-52.3706 446.0866,-48.3097 457.5569,-45.4259"/>
<polygon fill="#191970" stroke="#191970" points="458.3537,-48.8342 467.3168,-43.1849 456.7871,-42.0117 458.3537,-48.8342"/>
</g>
<!-- Node45 -->
<g id="node45" class="node">
<title>Node45</title>
<g id="a_node45"><a xlink:href="../../d6/dcf/pythia6425mod_8f.html#aa8c99978a55999fa0b1fd2a946d8553a" target="_top" xlink:title="pyangl">
<polygon fill="none" stroke="#000000" points="469,-68 469,-88 519,-88 519,-68 469,-68"/>
<text text-anchor="middle" x="494" y="-75" font-family="FreeSans" font-size="10.00" fill="#000000">pyangl</text>
</a>
</g>
</g>
<!-- Node43&#45;&gt;Node45 -->
<g id="edge96" class="edge">
<title>Node43&#45;&gt;Node45</title>
<path fill="none" stroke="#191970" d="M328.1969,-146.1875C350.1668,-135.3949 388.9103,-116.8442 423,-103 434.6122,-98.2842 447.4886,-93.593 459.0523,-89.5699"/>
<polygon fill="#191970" stroke="#191970" points="460.488,-92.7776 468.8115,-86.2225 458.2169,-86.1563 460.488,-92.7776"/>
</g>
<!-- Node46 -->
<g id="node46" class="node">
<title>Node46</title>
<g id="a_node46"><a xlink:href="../../d6/dcf/pythia6425mod_8f.html#ad69903a1054f4f77d45fd8fe4c687aa9" target="_top" xlink:title="pymass">
<polygon fill="none" stroke="#000000" points="466.5,-222 466.5,-242 521.5,-242 521.5,-222 466.5,-222"/>
<text text-anchor="middle" x="494" y="-229" font-family="FreeSans" font-size="10.00" fill="#000000">pymass</text>
</a>
</g>
</g>
<!-- Node43&#45;&gt;Node46 -->
<g id="edge98" class="edge">
<title>Node43&#45;&gt;Node46</title>
<path fill="none" stroke="#191970" d="M328.0948,-162.3831C358.6096,-175.1877 421.8112,-201.7082 460.7954,-218.0667"/>
<polygon fill="#191970" stroke="#191970" points="459.5749,-221.3502 470.1503,-221.9922 462.2835,-214.8954 459.5749,-221.3502"/>
</g>
<!-- Node45&#45;&gt;Node32 -->
<g id="edge97" class="edge">
<title>Node45&#45;&gt;Node32</title>
<path fill="none" stroke="#191970" d="M519.2314,-82.9678C555.1891,-90.0476 620.9752,-103.0003 658.5983,-110.408"/>
<polygon fill="#191970" stroke="#191970" points="657.9272,-113.8429 668.415,-112.3408 659.2795,-106.9748 657.9272,-113.8429"/>
</g>
<!-- Node46&#45;&gt;Node27 -->
<g id="edge99" class="edge">
<title>Node46&#45;&gt;Node27</title>
<path fill="none" stroke="#191970" d="M521.7942,-236.6493C536.0536,-240.2153 552.916,-246.4006 565,-257 591.598,-280.3303 579.3594,-300.01 601,-328 619.2017,-351.5421 645.4355,-373.4818 664.135,-387.6764"/>
<polygon fill="#191970" stroke="#191970" points="662.277,-390.6564 672.3906,-393.8133 666.4531,-385.0385 662.277,-390.6564"/>
</g>
<!-- Node48&#45;&gt;Node9 -->
<g id="edge112" class="edge">
<title>Node48&#45;&gt;Node9</title>
<path fill="none" stroke="#191970" d="M512.1864,-548.0303C526.5861,-556.024 547.1723,-567.5671 565,-578 691.3417,-651.9362 700.1142,-749 846.5,-749 846.5,-749 846.5,-749 960.5,-749 1153.1567,-749 1186.5904,-1082.8388 1192.0095,-1168.9372"/>
<polygon fill="#191970" stroke="#191970" points="1188.5186,-1169.1986 1192.5819,-1178.9833 1195.5073,-1168.8003 1188.5186,-1169.1986"/>
</g>
<!-- Node48&#45;&gt;Node12 -->
<g id="edge111" class="edge">
<title>Node48&#45;&gt;Node12</title>
<path fill="none" stroke="#191970" d="M525.7961,-548.0874C540.2,-554.3497 555.9889,-563.9462 565,-578 617.3554,-659.6539 537.1901,-939.947 601,-1013 652.5019,-1071.9622 716.8268,-996.4697 773,-1051 869.487,-1144.665 868.6341,-1513.7245 920,-1638 946.5823,-1702.3137 965.9369,-1711.8881 1001,-1772 1017.4434,-1800.1904 1019.8424,-1808.2384 1037,-1836 1043.729,-1846.8878 1051.7106,-1858.7473 1058.301,-1868.2879"/>
<polygon fill="#191970" stroke="#191970" points="1055.5173,-1870.4151 1064.1072,-1876.6171 1061.2598,-1866.412 1055.5173,-1870.4151"/>
</g>
<!-- Node48&#45;&gt;Node13 -->
<g id="edge107" class="edge">
<title>Node48&#45;&gt;Node13</title>
<path fill="none" stroke="#191970" d="M522.2442,-548.1555C536.81,-554.6753 553.8174,-564.4825 565,-578 596.9825,-616.6607 578.7566,-640.0249 601,-685 700.6215,-886.4307 793.3466,-898.3772 884,-1104 1001.1086,-1369.6294 933.7033,-1467.701 1037,-1739 1060.1359,-1799.7642 1080.5288,-1808.1772 1106,-1868 1144.2401,-1957.8123 1175.7256,-2070.4447 1187.7525,-2115.7526"/>
<polygon fill="#191970" stroke="#191970" points="1184.3967,-2116.7541 1190.3234,-2125.5362 1191.1669,-2114.975 1184.3967,-2116.7541"/>
</g>
<!-- Node48&#45;&gt;Node14 -->
<g id="edge110" class="edge">
<title>Node48&#45;&gt;Node14</title>
<path fill="none" stroke="#191970" d="M533.2321,-543.3C545.2404,-546.9035 557.2989,-552.9313 565,-563 631.0616,-649.3717 547.9256,-956.0932 601,-1051 646.997,-1133.2512 721.6972,-1095.9493 773,-1175 815.7543,-1240.8785 792.195,-1271.283 809,-1348 820.2891,-1399.5362 834.4427,-1460.0229 841.7086,-1490.7969"/>
<polygon fill="#191970" stroke="#191970" points="838.3476,-1491.793 844.0558,-1500.7187 845.1596,-1490.1815 838.3476,-1491.793"/>
</g>
<!-- Node48&#45;&gt;Node19 -->
<g id="edge109" class="edge">
<title>Node48&#45;&gt;Node19</title>
<path fill="none" stroke="#191970" d="M511.8522,-548.1646C528.8079,-558.8991 553.3833,-577.5137 565,-601 613.2095,-698.4681 572.7343,-983.9988 601,-1089 617.4987,-1150.2891 655.343,-1215.8397 674.8625,-1247.1885"/>
<polygon fill="#191970" stroke="#191970" points="671.9881,-1249.1918 680.288,-1255.7768 677.9061,-1245.4532 671.9881,-1249.1918"/>
</g>
<!-- Node48&#45;&gt;Node27 -->
<g id="edge108" class="edge">
<title>Node48&#45;&gt;Node27</title>
<path fill="none" stroke="#191970" d="M508.5064,-527.9282C541.8402,-504.7845 624.1098,-447.6647 664.2447,-419.799"/>
<polygon fill="#191970" stroke="#191970" points="666.3704,-422.5841 672.5886,-414.0059 662.3782,-416.8341 666.3704,-422.5841"/>
</g>
<!-- Node48&#45;&gt;Node49 -->
<g id="edge113" class="edge">
<title>Node48&#45;&gt;Node49</title>
<path fill="none" stroke="#191970" d="M499.9661,-527.6429C515.0527,-501.8894 556.6892,-433.4717 601,-384 620.8777,-361.8071 647.0803,-339.8057 665.3165,-325.4299"/>
<polygon fill="#191970" stroke="#191970" points="667.8185,-327.9182 673.5662,-319.0179 663.5227,-322.3913 667.8185,-327.9182"/>
</g>
<!-- Node50&#45;&gt;Node49 -->
<g id="edge115" class="edge">
<title>Node50&#45;&gt;Node49</title>
<path fill="none" stroke="#191970" d="M336.2963,-399.8637C353.0065,-398.364 374.0015,-393.5918 387,-380 439.7779,-324.813 363.6161,-260.0069 423,-212 472.0794,-172.3235 505.4152,-191.1993 565,-212 610.0204,-227.7163 650.8695,-267.7591 671.957,-291.1899"/>
<polygon fill="#191970" stroke="#191970" points="669.3384,-293.5123 678.5663,-298.7178 674.5987,-288.8939 669.3384,-293.5123"/>
</g>
</g>
</svg>
