<?xml version="1.0" encoding="UTF-8" standalone="no"?>
<!DOCTYPE svg PUBLIC "-//W3C//DTD SVG 1.1//EN"
 "http://www.w3.org/Graphics/SVG/1.1/DTD/svg11.dtd">
<!-- Generated by graphviz version 2.40.1 (20161225.0304)
 -->
<!-- Title: FairGeaneUtil::FromMat25ToVec15 Pages: 1 -->
<svg width="764pt" height="158pt"
 viewBox="0.00 0.00 764.00 158.00" xmlns="http://www.w3.org/2000/svg" xmlns:xlink="http://www.w3.org/1999/xlink">
<g id="graph0" class="graph" transform="scale(1 1) rotate(0) translate(4 154)">
<title>FairGeaneUtil::FromMat25ToVec15</title>
<!-- Node1 -->
<g id="node1" class="node">
<title>Node1</title>
<polygon fill="#bfbfbf" stroke="#000000" points="0,-72.5 0,-104.5 147,-104.5 147,-72.5 0,-72.5"/>
<text text-anchor="start" x="8" y="-91.5" font-family="FreeSans" font-size="10.00" fill="#000000">FairGeaneUtil::FromMat25</text>
<text text-anchor="middle" x="73.5" y="-79.5" font-family="FreeSans" font-size="10.00" fill="#000000">ToVec15</text>
</g>
<!-- Node2 -->
<g id="node2" class="node">
<title>Node2</title>
<g id="a_node2"><a xlink:href="../../d2/d53/classGeaneTrackRep.html#a768924b326bf75ef2b65d8bf8b476460" target="_top" xlink:title="This method extrapolates to the point of closest approach to a line.">
<polygon fill="none" stroke="#000000" points="193,-117.5 193,-149.5 352,-149.5 352,-117.5 193,-117.5"/>
<text text-anchor="start" x="201" y="-136.5" font-family="FreeSans" font-size="10.00" fill="#000000">GeaneTrackRep::extrapolate</text>
<text text-anchor="middle" x="272.5" y="-124.5" font-family="FreeSans" font-size="10.00" fill="#000000">ToLine</text>
</a>
</g>
</g>
<!-- Node1&#45;&gt;Node2 -->
<g id="edge1" class="edge">
<title>Node1&#45;&gt;Node2</title>
<path fill="none" stroke="#191970" d="M154.6119,-106.8419C170.1597,-110.3577 186.3282,-114.0139 201.5266,-117.4507"/>
<polygon fill="#191970" stroke="#191970" points="155.0265,-103.3473 144.5008,-104.5555 153.4825,-110.1749 155.0265,-103.3473"/>
</g>
<!-- Node3 -->
<g id="node3" class="node">
<title>Node3</title>
<g id="a_node3"><a xlink:href="../../df/dfb/classFairGeaneUtil.html#a0180d90204e86738164b76fb69457cb4" target="_top" xlink:title="FairGeaneUtil::FromMarsToSD">
<polygon fill="none" stroke="#000000" points="190,-78.5 190,-98.5 355,-98.5 355,-78.5 190,-78.5"/>
<text text-anchor="middle" x="272.5" y="-85.5" font-family="FreeSans" font-size="10.00" fill="#000000">FairGeaneUtil::FromMarsToSD</text>
</a>
</g>
</g>
<!-- Node1&#45;&gt;Node3 -->
<g id="edge2" class="edge">
<title>Node1&#45;&gt;Node3</title>
<path fill="none" stroke="#191970" d="M157.2825,-88.5C168.0695,-88.5 179.1094,-88.5 189.8776,-88.5"/>
<polygon fill="#191970" stroke="#191970" points="157.0349,-85.0001 147.0349,-88.5 157.0348,-92.0001 157.0349,-85.0001"/>
</g>
<!-- Node10 -->
<g id="node10" class="node">
<title>Node10</title>
<g id="a_node10"><a xlink:href="../../d2/d53/classGeaneTrackRep.html#a7ad8cc90128ab3b42367fda482238e27" target="_top" xlink:title="method which gets position, momentum and 6x6 covariance matrix">
<polygon fill="none" stroke="#000000" points="183,-39.5 183,-59.5 362,-59.5 362,-39.5 183,-39.5"/>
<text text-anchor="middle" x="272.5" y="-46.5" font-family="FreeSans" font-size="10.00" fill="#000000">GeaneTrackRep::getPosMomCov</text>
</a>
</g>
</g>
<!-- Node1&#45;&gt;Node10 -->
<g id="edge9" class="edge">
<title>Node1&#45;&gt;Node10</title>
<path fill="none" stroke="#191970" d="M156.9781,-72.14C178.8151,-67.8604 201.7096,-63.3735 221.3041,-59.5334"/>
<polygon fill="#191970" stroke="#191970" points="156.175,-68.7307 147.0349,-74.0886 157.5213,-75.6 156.175,-68.7307"/>
</g>
<!-- Node4 -->
<g id="node4" class="node">
<title>Node4</title>
<g id="a_node4"><a xlink:href="../../db/dc5/classFairTrackParP.html#a42346752d22fce8d9cb069ec4caebbe0" target="_top" xlink:title="FairTrackParP::FairTrackParP">
<polygon fill="none" stroke="#000000" points="402,-117.5 402,-137.5 558,-137.5 558,-117.5 402,-117.5"/>
<text text-anchor="middle" x="480" y="-124.5" font-family="FreeSans" font-size="10.00" fill="#000000">FairTrackParP::FairTrackParP</text>
</a>
</g>
</g>
<!-- Node3&#45;&gt;Node4 -->
<g id="edge3" class="edge">
<title>Node3&#45;&gt;Node4</title>
<path fill="none" stroke="#191970" d="M335.9838,-100.4319C365.0296,-105.8911 399.0592,-112.287 426.7447,-117.4906"/>
<polygon fill="#191970" stroke="#191970" points="336.4109,-96.951 325.9364,-98.5435 335.1178,-103.8305 336.4109,-96.951"/>
</g>
<!-- Node5 -->
<g id="node5" class="node">
<title>Node5</title>
<g id="a_node5"><a xlink:href="../../df/dfb/classFairGeaneUtil.html#a9e12a4f3cdd9b3556e0b095c824ae26b" target="_top" xlink:title="FairGeaneUtil::FromMarsToSC">
<polygon fill="none" stroke="#000000" points="398,-78.5 398,-98.5 562,-98.5 562,-78.5 398,-78.5"/>
<text text-anchor="middle" x="480" y="-85.5" font-family="FreeSans" font-size="10.00" fill="#000000">FairGeaneUtil::FromMarsToSC</text>
</a>
</g>
</g>
<!-- Node3&#45;&gt;Node5 -->
<g id="edge4" class="edge">
<title>Node3&#45;&gt;Node5</title>
<path fill="none" stroke="#191970" d="M365.3671,-88.5C376.1364,-88.5 387.0639,-88.5 397.6785,-88.5"/>
<polygon fill="#191970" stroke="#191970" points="365.1057,-85.0001 355.1057,-88.5 365.1057,-92.0001 365.1057,-85.0001"/>
</g>
<!-- Node7 -->
<g id="node7" class="node">
<title>Node7</title>
<g id="a_node7"><a xlink:href="../../db/dc5/classFairTrackParP.html#a277c91f1c864c59d6bce692534ec1824" target="_top" xlink:title="FairTrackParP::SetTrackPar">
<polygon fill="none" stroke="#000000" points="406,-39.5 406,-59.5 554,-59.5 554,-39.5 406,-39.5"/>
<text text-anchor="middle" x="480" y="-46.5" font-family="FreeSans" font-size="10.00" fill="#000000">FairTrackParP::SetTrackPar</text>
</a>
</g>
</g>
<!-- Node3&#45;&gt;Node7 -->
<g id="edge6" class="edge">
<title>Node3&#45;&gt;Node7</title>
<path fill="none" stroke="#191970" d="M335.9838,-76.5681C365.0296,-71.1089 399.0592,-64.713 426.7447,-59.5094"/>
<polygon fill="#191970" stroke="#191970" points="335.1178,-73.1695 325.9364,-78.4565 336.4109,-80.049 335.1178,-73.1695"/>
</g>
<!-- Node6 -->
<g id="node6" class="node">
<title>Node6</title>
<g id="a_node6"><a xlink:href="../../de/d81/classFairTrackParH.html#a21317a0f6a9fd4151fea92784d041b08" target="_top" xlink:title="FairTrackParH::FairTrackParH">
<polygon fill="none" stroke="#000000" points="598,-78.5 598,-98.5 756,-98.5 756,-78.5 598,-78.5"/>
<text text-anchor="middle" x="677" y="-85.5" font-family="FreeSans" font-size="10.00" fill="#000000">FairTrackParH::FairTrackParH</text>
</a>
</g>
</g>
<!-- Node5&#45;&gt;Node6 -->
<g id="edge5" class="edge">
<title>Node5&#45;&gt;Node6</title>
<path fill="none" stroke="#191970" d="M572.1572,-88.5C580.7468,-88.5 589.401,-88.5 597.857,-88.5"/>
<polygon fill="#191970" stroke="#191970" points="572.1193,-85.0001 562.1192,-88.5 572.1192,-92.0001 572.1193,-85.0001"/>
</g>
<!-- Node8 -->
<g id="node8" class="node">
<title>Node8</title>
<g id="a_node8"><a xlink:href="../../d1/dca/classFairGeanePro.html#ab8e371751ff4d4336b660bb9f14c0d60" target="_top" xlink:title="FairGeanePro::Propagate">
<polygon fill="none" stroke="#000000" points="606.5,-39.5 606.5,-59.5 747.5,-59.5 747.5,-39.5 606.5,-39.5"/>
<text text-anchor="middle" x="677" y="-46.5" font-family="FreeSans" font-size="10.00" fill="#000000">FairGeanePro::Propagate</text>
</a>
</g>
</g>
<!-- Node7&#45;&gt;Node8 -->
<g id="edge7" class="edge">
<title>Node7&#45;&gt;Node8</title>
<path fill="none" stroke="#191970" d="M564.3329,-49.5C578.3718,-49.5 592.8027,-49.5 606.4528,-49.5"/>
<polygon fill="#191970" stroke="#191970" points="564.1966,-46.0001 554.1965,-49.5 564.1965,-53.0001 564.1966,-46.0001"/>
</g>
<!-- Node9 -->
<g id="node9" class="node">
<title>Node9</title>
<g id="a_node9"><a xlink:href="../../db/dc5/classFairTrackParP.html#a0deaa6d061c3778d97e4b8c132c2ae9f" target="_top" xlink:title="FairTrackParP::FairTrackParP">
<polygon fill="none" stroke="#000000" points="599,-.5 599,-20.5 755,-20.5 755,-.5 599,-.5"/>
<text text-anchor="middle" x="677" y="-7.5" font-family="FreeSans" font-size="10.00" fill="#000000">FairTrackParP::FairTrackParP</text>
</a>
</g>
</g>
<!-- Node7&#45;&gt;Node9 -->
<g id="edge8" class="edge">
<title>Node7&#45;&gt;Node9</title>
<path fill="none" stroke="#191970" d="M540.6329,-37.4965C568.1294,-32.0531 600.2698,-25.6902 626.4395,-20.5094"/>
<polygon fill="#191970" stroke="#191970" points="539.8623,-34.0811 530.7324,-39.4565 541.2217,-40.9478 539.8623,-34.0811"/>
</g>
</g>
</svg>
