<?xml version="1.0" encoding="UTF-8" standalone="no"?>
<!DOCTYPE svg PUBLIC "-//W3C//DTD SVG 1.1//EN"
 "http://www.w3.org/Graphics/SVG/1.1/DTD/svg11.dtd">
<!-- Generated by graphviz version 2.40.1 (20161225.0304)
 -->
<!-- Title: qqt Pages: 1 -->
<svg width="1075pt" height="1163pt"
 viewBox="0.00 0.00 1075.00 1163.17" xmlns="http://www.w3.org/2000/svg" xmlns:xlink="http://www.w3.org/1999/xlink">
<g id="graph0" class="graph" transform="scale(1 1) rotate(0) translate(4 1159.165)">
<title>qqt</title>
<!-- Node1 -->
<g id="node1" class="node">
<title>Node1</title>
<polygon fill="#bfbfbf" stroke="#000000" points="0,-657.665 0,-677.665 33,-677.665 33,-657.665 0,-657.665"/>
<text text-anchor="middle" x="16.5" y="-664.665" font-family="FreeSans" font-size="10.00" fill="#000000">qqt</text>
</g>
<!-- Node2 -->
<g id="node2" class="node">
<title>Node2</title>
<g id="a_node2"><a xlink:href="../../d0/d0b/radgen_8f.html#a5afd6050c588f0388dcfaf838d93e864" target="_top" xlink:title="intbtk2">
<polygon fill="none" stroke="#000000" points="69,-696.665 69,-716.665 120,-716.665 120,-696.665 69,-696.665"/>
<text text-anchor="middle" x="94.5" y="-703.665" font-family="FreeSans" font-size="10.00" fill="#000000">intbtk2</text>
</a>
</g>
</g>
<!-- Node1&#45;&gt;Node2 -->
<g id="edge1" class="edge">
<title>Node1&#45;&gt;Node2</title>
<path fill="none" stroke="#191970" d="M33.0418,-675.9359C42.3804,-680.6052 54.3251,-686.5776 65.1965,-692.0133"/>
<polygon fill="#191970" stroke="#191970" points="63.8718,-695.264 74.3814,-696.6057 67.0024,-689.003 63.8718,-695.264"/>
</g>
<!-- Node3 -->
<g id="node3" class="node">
<title>Node3</title>
<g id="a_node3"><a xlink:href="../../d0/d0b/radgen_8f.html#a85103a771837ec07d3ce416b052e1ea0" target="_top" xlink:title="inttk2">
<polygon fill="none" stroke="#000000" points="72,-657.665 72,-677.665 117,-677.665 117,-657.665 72,-657.665"/>
<text text-anchor="middle" x="94.5" y="-664.665" font-family="FreeSans" font-size="10.00" fill="#000000">inttk2</text>
</a>
</g>
</g>
<!-- Node1&#45;&gt;Node3 -->
<g id="edge2" class="edge">
<title>Node1&#45;&gt;Node3</title>
<path fill="none" stroke="#191970" d="M33.0418,-667.665C41.4057,-667.665 51.86,-667.665 61.7614,-667.665"/>
<polygon fill="#191970" stroke="#191970" points="61.7689,-671.1651 71.7688,-667.665 61.7688,-664.1651 61.7689,-671.1651"/>
</g>
<!-- Node26 -->
<g id="node26" class="node">
<title>Node26</title>
<g id="a_node26"><a xlink:href="../../d0/d0b/radgen_8f.html#aa8a2cf5fd2ae40a0f9de42d2b85838ec" target="_top" xlink:title="rv2">
<polygon fill="none" stroke="#000000" points="166.5,-560.665 166.5,-580.665 198.5,-580.665 198.5,-560.665 166.5,-560.665"/>
<text text-anchor="middle" x="182.5" y="-567.665" font-family="FreeSans" font-size="10.00" fill="#000000">rv2</text>
</a>
</g>
</g>
<!-- Node1&#45;&gt;Node26 -->
<g id="edge66" class="edge">
<title>Node1&#45;&gt;Node26</title>
<path fill="none" stroke="#191970" d="M33.0236,-658.0097C62.108,-641.0146 122.6208,-605.6546 157.0667,-585.5266"/>
<polygon fill="#191970" stroke="#191970" points="159.175,-588.3485 166.0432,-580.2813 155.6434,-582.3046 159.175,-588.3485"/>
</g>
<!-- Node4 -->
<g id="node4" class="node">
<title>Node4</title>
<g id="a_node4"><a xlink:href="../../df/de8/cemc_8C.html#a72d4716092b469b4bc1d816359a90e14" target="_top" xlink:title="cos">
<polygon fill="none" stroke="#000000" points="426,-638.665 426,-658.665 459,-658.665 459,-638.665 426,-638.665"/>
<text text-anchor="middle" x="442.5" y="-645.665" font-family="FreeSans" font-size="10.00" fill="#000000">cos</text>
</a>
</g>
</g>
<!-- Node3&#45;&gt;Node4 -->
<g id="edge3" class="edge">
<title>Node3&#45;&gt;Node4</title>
<path fill="none" stroke="#191970" d="M117.2254,-669.2185C162.0708,-671.9413 265.0617,-676.4934 351,-667.665 373.126,-665.392 397.7949,-660.1046 415.9376,-655.6832"/>
<polygon fill="#191970" stroke="#191970" points="416.9496,-659.0379 425.7971,-653.2094 415.246,-652.2483 416.9496,-659.0379"/>
</g>
<!-- Node5 -->
<g id="node5" class="node">
<title>Node5</title>
<g id="a_node5"><a xlink:href="../../d2/d9e/dsigma_8F.html#a322d42c5e0ccf64f089301b4c21fa6e4" target="_top" xlink:title="dsigma">
<polygon fill="none" stroke="#000000" points="156,-794.665 156,-814.665 209,-814.665 209,-794.665 156,-794.665"/>
<text text-anchor="middle" x="182.5" y="-801.665" font-family="FreeSans" font-size="10.00" fill="#000000">dsigma</text>
</a>
</g>
</g>
<!-- Node3&#45;&gt;Node5 -->
<g id="edge4" class="edge">
<title>Node3&#45;&gt;Node5</title>
<path fill="none" stroke="#191970" d="M110.2754,-677.7068C113.7349,-680.355 117.1971,-683.3958 120,-686.665 146.1422,-717.1556 165.5256,-760.4208 175.3252,-785.2053"/>
<polygon fill="#191970" stroke="#191970" points="172.0812,-786.5211 178.93,-794.6046 178.617,-784.0144 172.0812,-786.5211"/>
</g>
<!-- Node3&#45;&gt;Node26 -->
<g id="edge33" class="edge">
<title>Node3&#45;&gt;Node26</title>
<path fill="none" stroke="#191970" d="M103.5861,-657.6497C118.407,-641.313 147.9781,-608.7175 166.4134,-588.3968"/>
<polygon fill="#191970" stroke="#191970" points="169.2046,-590.5292 173.3315,-580.7712 164.0201,-585.8258 169.2046,-590.5292"/>
</g>
<!-- Node6 -->
<g id="node6" class="node">
<title>Node6</title>
<g id="a_node6"><a xlink:href="../../d5/db2/dqcdi_8F.html#a09401b7e76a7f6ba5e57d0e7e17f29cb" target="_top" xlink:title="dqcdi">
<polygon fill="none" stroke="#000000" points="420.5,-872.665 420.5,-892.665 464.5,-892.665 464.5,-872.665 420.5,-872.665"/>
<text text-anchor="middle" x="442.5" y="-879.665" font-family="FreeSans" font-size="10.00" fill="#000000">dqcdi</text>
</a>
</g>
</g>
<!-- Node5&#45;&gt;Node6 -->
<g id="edge5" class="edge">
<title>Node5&#45;&gt;Node6</title>
<path fill="none" stroke="#191970" d="M195.1152,-814.7974C207.2089,-823.9922 226.3344,-837.2163 245,-844.665 300.6697,-866.8807 370.4838,-876.3891 410.4422,-880.243"/>
<polygon fill="#191970" stroke="#191970" points="410.1329,-883.7292 420.4079,-881.1458 410.7645,-876.7578 410.1329,-883.7292"/>
</g>
<!-- Node7 -->
<g id="node7" class="node">
<title>Node7</title>
<g id="a_node7"><a xlink:href="../../d0/d95/ip_8C.html#a292ff32a75b66b513d1f0ce00f9a4dc4" target="_top" xlink:title="ip">
<polygon fill="none" stroke="#000000" points="570.5,-858.665 570.5,-878.665 599.5,-878.665 599.5,-858.665 570.5,-858.665"/>
<text text-anchor="middle" x="585" y="-865.665" font-family="FreeSans" font-size="10.00" fill="#000000">ip</text>
</a>
</g>
</g>
<!-- Node5&#45;&gt;Node7 -->
<g id="edge23" class="edge">
<title>Node5&#45;&gt;Node7</title>
<path fill="none" stroke="#191970" d="M189.1754,-815.1285C199.3265,-830.1302 220.1167,-857.4991 245,-871.665 301.1379,-903.624 322.7752,-895.7362 387,-902.665 436.0487,-907.9566 449.5201,-911.8016 498,-902.665 520.247,-898.4723 544.102,-888.7417 561.1956,-880.7598"/>
<polygon fill="#191970" stroke="#191970" points="562.926,-883.8112 570.4155,-876.3173 559.8874,-877.505 562.926,-883.8112"/>
</g>
<!-- Node22 -->
<g id="node22" class="node">
<title>Node22</title>
<g id="a_node22"><a xlink:href="../../d4/ddb/lnstrf_8F.html#aaf60c1c6a99e30d85f81058b6c04912e" target="_top" xlink:title="lnstrf">
<polygon fill="none" stroke="#ff0000" points="421,-833.665 421,-853.665 464,-853.665 464,-833.665 421,-833.665"/>
<text text-anchor="middle" x="442.5" y="-840.665" font-family="FreeSans" font-size="10.00" fill="#000000">lnstrf</text>
</a>
</g>
</g>
<!-- Node5&#45;&gt;Node22 -->
<g id="edge24" class="edge">
<title>Node5&#45;&gt;Node22</title>
<path fill="none" stroke="#191970" d="M209.2367,-814.6086C220.182,-818.3129 233.0596,-822.2097 245,-824.665 302.7958,-836.5497 371.6721,-841.0365 410.924,-842.7046"/>
<polygon fill="#191970" stroke="#191970" points="410.8129,-846.2028 420.9419,-843.0958 411.0862,-839.2082 410.8129,-846.2028"/>
</g>
<!-- Node23 -->
<g id="node23" class="node">
<title>Node23</title>
<g id="a_node23"><a xlink:href="../../d6/d23/poldsigma_8F.html#a3d5c5f007b3537914cd8ae4c491c0d98" target="_top" xlink:title="poldsigma">
<polygon fill="none" stroke="#ff0000" points="264,-794.665 264,-814.665 332,-814.665 332,-794.665 264,-794.665"/>
<text text-anchor="middle" x="298" y="-801.665" font-family="FreeSans" font-size="10.00" fill="#000000">poldsigma</text>
</a>
</g>
</g>
<!-- Node5&#45;&gt;Node23 -->
<g id="edge25" class="edge">
<title>Node5&#45;&gt;Node23</title>
<path fill="none" stroke="#191970" d="M209.2883,-804.665C222.4998,-804.665 238.7806,-804.665 253.773,-804.665"/>
<polygon fill="#191970" stroke="#191970" points="253.893,-808.1651 263.893,-804.665 253.8929,-801.1651 253.893,-808.1651"/>
</g>
<!-- Node24 -->
<g id="node24" class="node">
<title>Node24</title>
<g id="a_node24"><a xlink:href="../../da/d0a/CylinderKalman_8cpp.html#ab74daa0c9784c63e060bfb98cc06fbf5" target="_top" xlink:title="sign">
<polygon fill="none" stroke="#000000" points="424,-755.665 424,-775.665 461,-775.665 461,-755.665 424,-755.665"/>
<text text-anchor="middle" x="442.5" y="-762.665" font-family="FreeSans" font-size="10.00" fill="#000000">sign</text>
</a>
</g>
</g>
<!-- Node5&#45;&gt;Node24 -->
<g id="edge31" class="edge">
<title>Node5&#45;&gt;Node24</title>
<path fill="none" stroke="#191970" d="M209.2367,-794.7215C220.182,-791.0171 233.0596,-787.1203 245,-784.665 304.2146,-772.4886 375.0604,-768.0777 413.7606,-766.5076"/>
<polygon fill="#191970" stroke="#191970" points="413.9237,-770.0041 423.7872,-766.136 413.6644,-763.0089 413.9237,-770.0041"/>
</g>
<!-- Node25 -->
<g id="node25" class="node">
<title>Node25</title>
<g id="a_node25"><a xlink:href="../../d7/ded/ulmass_8f.html#aa951cb677600842104db95323a7647b2" target="_top" xlink:title="ulmass">
<polygon fill="none" stroke="#ff0000" points="416.5,-716.665 416.5,-736.665 468.5,-736.665 468.5,-716.665 416.5,-716.665"/>
<text text-anchor="middle" x="442.5" y="-723.665" font-family="FreeSans" font-size="10.00" fill="#000000">ulmass</text>
</a>
</g>
</g>
<!-- Node5&#45;&gt;Node25 -->
<g id="edge32" class="edge">
<title>Node5&#45;&gt;Node25</title>
<path fill="none" stroke="#191970" d="M196.7012,-794.4019C208.9367,-786.0263 227.363,-774.4977 245,-767.665 299.1062,-746.704 365.9096,-735.7009 406.3078,-730.5464"/>
<polygon fill="#191970" stroke="#191970" points="406.9768,-733.9907 416.4775,-729.3017 406.1263,-727.0425 406.9768,-733.9907"/>
</g>
<!-- Node6&#45;&gt;Node7 -->
<g id="edge6" class="edge">
<title>Node6&#45;&gt;Node7</title>
<path fill="none" stroke="#191970" d="M464.7656,-880.4775C490.6339,-877.9361 533.1988,-873.7543 560.13,-871.1084"/>
<polygon fill="#191970" stroke="#191970" points="560.6769,-874.5716 570.2867,-870.1105 559.9924,-867.6051 560.6769,-874.5716"/>
</g>
<!-- Node8 -->
<g id="node8" class="node">
<title>Node8</title>
<g id="a_node8"><a xlink:href="../../da/d86/classEicGeoMap.html#a4138a501100028aef473a4b9508d36d3" target="_top" xlink:title="EicGeoMap::AddGeantVolume\lLevel">
<polygon fill="none" stroke="#ff0000" points="675.5,-903.665 675.5,-935.665 843.5,-935.665 843.5,-903.665 675.5,-903.665"/>
<text text-anchor="start" x="683.5" y="-922.665" font-family="FreeSans" font-size="10.00" fill="#000000">EicGeoMap::AddGeantVolume</text>
<text text-anchor="middle" x="759.5" y="-910.665" font-family="FreeSans" font-size="10.00" fill="#000000">Level</text>
</a>
</g>
</g>
<!-- Node7&#45;&gt;Node8 -->
<g id="edge7" class="edge">
<title>Node7&#45;&gt;Node8</title>
<path fill="none" stroke="#191970" d="M599.7618,-873.1359C617.0557,-878.3599 646.5796,-887.2354 672,-894.665 678.8809,-896.6761 686.0714,-898.7597 693.2457,-900.8268"/>
<polygon fill="#191970" stroke="#191970" points="692.4104,-904.2284 702.9882,-903.6272 694.3443,-897.5008 692.4104,-904.2284"/>
</g>
<!-- Node9 -->
<g id="node9" class="node">
<title>Node9</title>
<g id="a_node9"><a xlink:href="../../df/de0/classEicGeoParData.html#a131e36442e699277af7e0e05dd70d7c7" target="_top" xlink:title="EicGeoParData::AddLogical\lVolumeGroup">
<polygon fill="none" stroke="#ff0000" points="683,-852.665 683,-884.665 836,-884.665 836,-852.665 683,-852.665"/>
<text text-anchor="start" x="691" y="-871.665" font-family="FreeSans" font-size="10.00" fill="#000000">EicGeoParData::AddLogical</text>
<text text-anchor="middle" x="759.5" y="-859.665" font-family="FreeSans" font-size="10.00" fill="#000000">VolumeGroup</text>
</a>
</g>
</g>
<!-- Node7&#45;&gt;Node9 -->
<g id="edge8" class="edge">
<title>Node7&#45;&gt;Node9</title>
<path fill="none" stroke="#191970" d="M599.5776,-868.665C616.0651,-868.665 644.3051,-868.665 672.509,-868.665"/>
<polygon fill="#191970" stroke="#191970" points="672.8765,-872.1651 682.8765,-868.665 672.8764,-865.1651 672.8765,-872.1651"/>
</g>
<!-- Node10 -->
<g id="node10" class="node">
<title>Node10</title>
<g id="a_node10"><a xlink:href="../../dd/d0b/classEicNamePatternHub.html#abe35bc0e1b9b51fa1f2c0c45bcf78dec" target="_top" xlink:title="EicNamePatternHub::\lAddPatternMatch">
<polygon fill="none" stroke="#000000" points="698,-801.665 698,-833.665 821,-833.665 821,-801.665 698,-801.665"/>
<text text-anchor="start" x="706" y="-820.665" font-family="FreeSans" font-size="10.00" fill="#000000">EicNamePatternHub::</text>
<text text-anchor="middle" x="759.5" y="-808.665" font-family="FreeSans" font-size="10.00" fill="#000000">AddPatternMatch</text>
</a>
</g>
</g>
<!-- Node7&#45;&gt;Node10 -->
<g id="edge9" class="edge">
<title>Node7&#45;&gt;Node10</title>
<path fill="none" stroke="#191970" d="M599.5776,-864.4045C620.4673,-858.2992 660.2231,-846.68 694.8683,-836.5545"/>
<polygon fill="#191970" stroke="#191970" points="695.868,-839.9088 704.4845,-833.744 693.9042,-833.1899 695.868,-839.9088"/>
</g>
<!-- Node11 -->
<g id="node11" class="node">
<title>Node11</title>
<g id="a_node11"><a xlink:href="../../df/de0/classEicGeoParData.html#a0a19d07a4f67c4a5cb0884a9992f44d7" target="_top" xlink:title="EicGeoParData::CreateNewMap">
<polygon fill="none" stroke="#000000" points="672,-762.665 672,-782.665 847,-782.665 847,-762.665 672,-762.665"/>
<text text-anchor="middle" x="759.5" y="-769.665" font-family="FreeSans" font-size="10.00" fill="#000000">EicGeoParData::CreateNewMap</text>
</a>
</g>
</g>
<!-- Node7&#45;&gt;Node11 -->
<g id="edge10" class="edge">
<title>Node7&#45;&gt;Node11</title>
<path fill="none" stroke="#191970" d="M593.2217,-858.6157C607.4425,-841.9442 638.3571,-808.719 672,-791.665 676.2809,-789.495 680.802,-787.572 685.443,-785.8681"/>
<polygon fill="#191970" stroke="#191970" points="686.7072,-789.1364 695.0992,-782.6692 684.5059,-782.4915 686.7072,-789.1364"/>
</g>
<!-- Node12 -->
<g id="node12" class="node">
<title>Node12</title>
<g id="a_node12"><a xlink:href="../../df/de8/cemc_8C.html#adf5c804dfce7a70e36dda02995fad481" target="_top" xlink:title="exit">
<polygon fill="none" stroke="#000000" points="742,-723.665 742,-743.665 777,-743.665 777,-723.665 742,-723.665"/>
<text text-anchor="middle" x="759.5" y="-730.665" font-family="FreeSans" font-size="10.00" fill="#000000">exit</text>
</a>
</g>
</g>
<!-- Node7&#45;&gt;Node12 -->
<g id="edge11" class="edge">
<title>Node7&#45;&gt;Node12</title>
<path fill="none" stroke="#191970" d="M589.5852,-858.3448C600.3616,-835.3626 629.6278,-779.8577 672,-752.665 689.8261,-741.225 713.4646,-736.5804 731.678,-734.7383"/>
<polygon fill="#191970" stroke="#191970" points="731.9967,-738.2241 741.69,-733.9474 731.4454,-731.2458 731.9967,-738.2241"/>
</g>
<!-- Node13 -->
<g id="node13" class="node">
<title>Node13</title>
<g id="a_node13"><a xlink:href="../../df/de0/classEicGeoParData.html#a5464c1947d87d36569891ada6aafb22c" target="_top" xlink:title="EicGeoParData::FinalizeOutput">
<polygon fill="none" stroke="#ff0000" points="674,-645.665 674,-665.665 845,-665.665 845,-645.665 674,-645.665"/>
<text text-anchor="middle" x="759.5" y="-652.665" font-family="FreeSans" font-size="10.00" fill="#000000">EicGeoParData::FinalizeOutput</text>
</a>
</g>
</g>
<!-- Node7&#45;&gt;Node13 -->
<g id="edge12" class="edge">
<title>Node7&#45;&gt;Node13</title>
<path fill="none" stroke="#191970" d="M586.693,-858.3063C592.4234,-826.6346 614.0719,-730.2386 672,-680.665 676.9627,-676.4181 682.6046,-672.8908 688.5769,-669.9616"/>
<polygon fill="#191970" stroke="#191970" points="690.3781,-672.9971 698.1838,-665.8333 687.6144,-666.5658 690.3781,-672.9971"/>
</g>
<!-- Node14 -->
<g id="node14" class="node">
<title>Node14</title>
<g id="a_node14"><a xlink:href="../../df/de0/classEicGeoParData.html#a98e43e3d66fdb531cabaccd39f09ebc3" target="_top" xlink:title="EicGeoParData::GetColorTable">
<polygon fill="none" stroke="#000000" points="890.5,-675.665 890.5,-695.665 1059.5,-695.665 1059.5,-675.665 890.5,-675.665"/>
<text text-anchor="middle" x="975" y="-682.665" font-family="FreeSans" font-size="10.00" fill="#000000">EicGeoParData::GetColorTable</text>
</a>
</g>
</g>
<!-- Node7&#45;&gt;Node14 -->
<g id="edge15" class="edge">
<title>Node7&#45;&gt;Node14</title>
<path fill="none" stroke="#191970" d="M587.2503,-858.4606C594.1488,-829.8691 617.9021,-748.7795 672,-713.665 705.3962,-691.9878 804.5103,-686.1305 880.3752,-684.9787"/>
<polygon fill="#191970" stroke="#191970" points="880.4903,-688.4776 890.4451,-684.851 880.4014,-681.4782 880.4903,-688.4776"/>
</g>
<!-- Node15 -->
<g id="node15" class="node">
<title>Node15</title>
<g id="a_node15"><a xlink:href="../../df/de0/classEicGeoParData.html#a75991633a97d0a9b3140ba103f225691" target="_top" xlink:title="EicGeoParData::GetTransparency\lTable">
<polygon fill="none" stroke="#000000" points="883,-608.665 883,-640.665 1067,-640.665 1067,-608.665 883,-608.665"/>
<text text-anchor="start" x="891" y="-627.665" font-family="FreeSans" font-size="10.00" fill="#000000">EicGeoParData::GetTransparency</text>
<text text-anchor="middle" x="975" y="-615.665" font-family="FreeSans" font-size="10.00" fill="#000000">Table</text>
</a>
</g>
</g>
<!-- Node7&#45;&gt;Node15 -->
<g id="edge18" class="edge">
<title>Node7&#45;&gt;Node15</title>
<path fill="none" stroke="#191970" d="M587.2011,-858.6347C596.4154,-817.636 633.215,-663.6397 672,-635.665 739.1044,-587.2643 838.0317,-594.1518 904.407,-606.681"/>
<polygon fill="#191970" stroke="#191970" points="903.8741,-610.1433 914.363,-608.6484 905.2312,-603.2761 903.8741,-610.1433"/>
</g>
<!-- Node16 -->
<g id="node16" class="node">
<title>Node16</title>
<g id="a_node16"><a xlink:href="../../df/de0/classEicGeoParData.html#af50661ee10308b08071f9feb1b57493b" target="_top" xlink:title="EicGeoParData::GetMedium">
<polygon fill="none" stroke="#ff0000" points="681.5,-1134.665 681.5,-1154.665 837.5,-1154.665 837.5,-1134.665 681.5,-1134.665"/>
<text text-anchor="middle" x="759.5" y="-1141.665" font-family="FreeSans" font-size="10.00" fill="#000000">EicGeoParData::GetMedium</text>
</a>
</g>
</g>
<!-- Node7&#45;&gt;Node16 -->
<g id="edge16" class="edge">
<title>Node7&#45;&gt;Node16</title>
<path fill="none" stroke="#191970" d="M587.0718,-878.9224C596.0513,-922.3887 632.9181,-1090.753 672,-1125.665 673.3549,-1126.8754 674.7685,-1128.0148 676.2326,-1129.0873"/>
<polygon fill="#191970" stroke="#191970" points="674.7569,-1132.2877 685.1128,-1134.5251 678.4124,-1126.318 674.7569,-1132.2877"/>
</g>
<!-- Node17 -->
<g id="node17" class="node">
<title>Node17</title>
<g id="a_node17"><a xlink:href="../../df/de0/classEicGeoParData.html#a37c307a8b444e89fd125f6d273a1c894" target="_top" xlink:title="EicGeoParData::GetTopVolume">
<polygon fill="none" stroke="#000000" points="674,-1095.665 674,-1115.665 845,-1115.665 845,-1095.665 674,-1095.665"/>
<text text-anchor="middle" x="759.5" y="-1102.665" font-family="FreeSans" font-size="10.00" fill="#000000">EicGeoParData::GetTopVolume</text>
</a>
</g>
</g>
<!-- Node7&#45;&gt;Node17 -->
<g id="edge17" class="edge">
<title>Node7&#45;&gt;Node17</title>
<path fill="none" stroke="#191970" d="M585.7878,-878.8034C589.0691,-913.6963 604.8181,-1029.7963 672,-1086.665 673.5573,-1087.9832 675.1848,-1089.2162 676.8714,-1090.3692"/>
<polygon fill="#191970" stroke="#191970" points="675.3337,-1093.5229 685.7439,-1095.4925 678.8342,-1087.4609 675.3337,-1093.5229"/>
</g>
<!-- Node18 -->
<g id="node18" class="node">
<title>Node18</title>
<g id="a_node18"><a xlink:href="../../d6/dfd/EicFRichDetector_8cc.html#afa9eab74a86ef9511755e454d4ed5e85" target="_top" xlink:title="rmax">
<polygon fill="none" stroke="#000000" points="738.5,-554.665 738.5,-574.665 780.5,-574.665 780.5,-554.665 738.5,-554.665"/>
<text text-anchor="middle" x="759.5" y="-561.665" font-family="FreeSans" font-size="10.00" fill="#000000">rmax</text>
</a>
</g>
</g>
<!-- Node7&#45;&gt;Node18 -->
<g id="edge19" class="edge">
<title>Node7&#45;&gt;Node18</title>
<path fill="none" stroke="#191970" d="M585.4373,-858.5322C587.623,-820.0742 600.3613,-681.3443 672,-602.665 686.7704,-586.4429 709.6838,-576.8344 728.358,-571.3386"/>
<polygon fill="#191970" stroke="#191970" points="729.4667,-574.6649 738.2178,-568.6926 727.6523,-567.9042 729.4667,-574.6649"/>
</g>
<!-- Node19 -->
<g id="node19" class="node">
<title>Node19</title>
<g id="a_node19"><a xlink:href="../../df/de0/classEicGeoParData.html#a304fa90a3bc1944d2c997257ed56b6a7" target="_top" xlink:title="EicGeoParData::SetFileName">
<polygon fill="none" stroke="#000000" points="679,-1056.665 679,-1076.665 840,-1076.665 840,-1056.665 679,-1056.665"/>
<text text-anchor="middle" x="759.5" y="-1063.665" font-family="FreeSans" font-size="10.00" fill="#000000">EicGeoParData::SetFileName</text>
</a>
</g>
</g>
<!-- Node7&#45;&gt;Node19 -->
<g id="edge20" class="edge">
<title>Node7&#45;&gt;Node19</title>
<path fill="none" stroke="#191970" d="M586.7227,-878.6994C592.5387,-909.3489 614.4072,-1002.401 672,-1047.665 673.8371,-1049.1089 675.7602,-1050.4487 677.7527,-1051.6917"/>
<polygon fill="#191970" stroke="#191970" points="676.4104,-1054.9418 686.8834,-1056.5439 679.6953,-1048.7604 676.4104,-1054.9418"/>
</g>
<!-- Node20 -->
<g id="node20" class="node">
<title>Node20</title>
<g id="a_node20"><a xlink:href="../../df/de0/classEicGeoParData.html#a85796e06ee06c2b0973409350d2c054d" target="_top" xlink:title="EicGeoParData::SetMapping\lTableEntry">
<polygon fill="none" stroke="#ff0000" points="680.5,-1005.665 680.5,-1037.665 838.5,-1037.665 838.5,-1005.665 680.5,-1005.665"/>
<text text-anchor="start" x="688.5" y="-1024.665" font-family="FreeSans" font-size="10.00" fill="#000000">EicGeoParData::SetMapping</text>
<text text-anchor="middle" x="759.5" y="-1012.665" font-family="FreeSans" font-size="10.00" fill="#000000">TableEntry</text>
</a>
</g>
</g>
<!-- Node7&#45;&gt;Node20 -->
<g id="edge21" class="edge">
<title>Node7&#45;&gt;Node20</title>
<path fill="none" stroke="#191970" d="M588.9595,-878.7426C598.993,-902.9448 627.8002,-964.7038 672,-996.665 674.0724,-998.1636 676.2326,-999.5726 678.4611,-1000.8974"/>
<polygon fill="#191970" stroke="#191970" points="676.8786,-1004.0198 687.3548,-1005.6009 680.1512,-997.8318 676.8786,-1004.0198"/>
</g>
<!-- Node21 -->
<g id="node21" class="node">
<title>Node21</title>
<g id="a_node21"><a xlink:href="../../da/d86/classEicGeoMap.html#a77e724ceee76044c2346a4b35be1f90e" target="_top" xlink:title="EicGeoMap::SetSingleSensor\lContainerVolume">
<polygon fill="none" stroke="#000000" points="678,-954.665 678,-986.665 841,-986.665 841,-954.665 678,-954.665"/>
<text text-anchor="start" x="686" y="-973.665" font-family="FreeSans" font-size="10.00" fill="#000000">EicGeoMap::SetSingleSensor</text>
<text text-anchor="middle" x="759.5" y="-961.665" font-family="FreeSans" font-size="10.00" fill="#000000">ContainerVolume</text>
</a>
</g>
</g>
<!-- Node7&#45;&gt;Node21 -->
<g id="edge22" class="edge">
<title>Node7&#45;&gt;Node21</title>
<path fill="none" stroke="#191970" d="M593.5778,-878.7432C608.0817,-895.1557 639.1011,-927.6325 672,-945.665 675.2384,-947.4401 678.615,-949.0994 682.0774,-950.6493"/>
<polygon fill="#191970" stroke="#191970" points="680.8285,-953.9202 691.4074,-954.5009 683.4996,-947.4499 680.8285,-953.9202"/>
</g>
<!-- Node13&#45;&gt;Node14 -->
<g id="edge13" class="edge">
<title>Node13&#45;&gt;Node14</title>
<path fill="none" stroke="#191970" d="M831.558,-665.6963C851.2366,-668.4358 872.7058,-671.4245 892.8991,-674.2357"/>
<polygon fill="#191970" stroke="#191970" points="892.6228,-677.7309 903.0099,-675.6432 893.588,-670.7977 892.6228,-677.7309"/>
</g>
<!-- Node13&#45;&gt;Node15 -->
<g id="edge14" class="edge">
<title>Node13&#45;&gt;Node15</title>
<path fill="none" stroke="#191970" d="M829.1691,-645.643C843.0572,-643.6452 857.9139,-641.508 872.6362,-639.3902"/>
<polygon fill="#191970" stroke="#191970" points="873.3938,-642.8173 882.7936,-637.9291 872.3971,-635.8887 873.3938,-642.8173"/>
</g>
<!-- Node23&#45;&gt;Node6 -->
<g id="edge26" class="edge">
<title>Node23&#45;&gt;Node6</title>
<path fill="none" stroke="#191970" d="M310.9269,-814.7809C327.6991,-827.5328 358.2288,-849.4955 387,-863.665 394.452,-867.335 402.7892,-870.5951 410.6911,-873.334"/>
<polygon fill="#191970" stroke="#191970" points="409.7752,-876.7171 420.3681,-876.5161 411.9618,-870.0674 409.7752,-876.7171"/>
</g>
<!-- Node23&#45;&gt;Node7 -->
<g id="edge27" class="edge">
<title>Node23&#45;&gt;Node7</title>
<path fill="none" stroke="#191970" d="M332.3406,-804.3041C372.7688,-804.7399 441.5558,-808.1925 498,-824.665 520.7576,-831.3065 544.6555,-843.8516 561.6337,-853.8522"/>
<polygon fill="#191970" stroke="#191970" points="559.9343,-856.9147 570.3029,-859.0927 563.5556,-850.9242 559.9343,-856.9147"/>
</g>
<!-- Node23&#45;&gt;Node22 -->
<g id="edge28" class="edge">
<title>Node23&#45;&gt;Node22</title>
<path fill="none" stroke="#191970" d="M332.2445,-813.9075C356.0901,-820.3433 387.6569,-828.8631 410.9016,-835.1367"/>
<polygon fill="#191970" stroke="#191970" points="410.0557,-838.5336 420.6222,-837.7603 411.8797,-831.7754 410.0557,-838.5336"/>
</g>
<!-- Node23&#45;&gt;Node24 -->
<g id="edge29" class="edge">
<title>Node23&#45;&gt;Node24</title>
<path fill="none" stroke="#191970" d="M332.2445,-795.4226C357.2533,-788.6728 390.755,-779.6308 414.242,-773.2918"/>
<polygon fill="#191970" stroke="#191970" points="415.2085,-776.6562 423.951,-770.6713 413.3845,-769.898 415.2085,-776.6562"/>
</g>
<!-- Node23&#45;&gt;Node25 -->
<g id="edge30" class="edge">
<title>Node23&#45;&gt;Node25</title>
<path fill="none" stroke="#191970" d="M310.9269,-794.5491C327.6991,-781.7972 358.2288,-759.8345 387,-745.665 393.2,-742.6116 400.0127,-739.8419 406.6778,-737.4201"/>
<polygon fill="#191970" stroke="#191970" points="407.9306,-740.6905 416.2485,-734.1282 405.6539,-734.0711 407.9306,-740.6905"/>
</g>
<!-- Node26&#45;&gt;Node18 -->
<g id="edge61" class="edge">
<title>Node26&#45;&gt;Node18</title>
<path fill="none" stroke="#191970" d="M198.6135,-563.9832C211.0416,-559.2071 228.7908,-553.1953 245,-550.665 426.2379,-522.3736 647.6466,-548.4576 728.261,-559.9031"/>
<polygon fill="#191970" stroke="#191970" points="727.8529,-563.3804 738.2514,-561.35 728.8563,-556.4527 727.8529,-563.3804"/>
</g>
<!-- Node27 -->
<g id="node27" class="node">
<title>Node27</title>
<g id="a_node27"><a xlink:href="../../d0/d0b/radgen_8f.html#a2cb69c64451e7279aaa1b39b08860254" target="_top" xlink:title="podinl">
<polygon fill="none" stroke="#000000" points="274.5,-425.665 274.5,-445.665 321.5,-445.665 321.5,-425.665 274.5,-425.665"/>
<text text-anchor="middle" x="298" y="-432.665" font-family="FreeSans" font-size="10.00" fill="#000000">podinl</text>
</a>
</g>
</g>
<!-- Node26&#45;&gt;Node27 -->
<g id="edge34" class="edge">
<title>Node26&#45;&gt;Node27</title>
<path fill="none" stroke="#191970" d="M188.2447,-560.4469C198.388,-542.8794 220.7076,-506.2767 245,-479.665 254.1045,-469.6913 265.4892,-459.9553 275.3711,-452.1879"/>
<polygon fill="#191970" stroke="#191970" points="277.758,-454.7687 283.5732,-445.9123 273.5043,-449.2093 277.758,-454.7687"/>
</g>
<!-- Node29 -->
<g id="node29" class="node">
<title>Node29</title>
<g id="a_node29"><a xlink:href="../../d0/d0b/radgen_8f.html#a43c7cc70e72985880d1c5c6da00747dc" target="_top" xlink:title="strf">
<polygon fill="none" stroke="#000000" points="425.5,-269.665 425.5,-289.665 459.5,-289.665 459.5,-269.665 425.5,-269.665"/>
<text text-anchor="middle" x="442.5" y="-276.665" font-family="FreeSans" font-size="10.00" fill="#000000">strf</text>
</a>
</g>
</g>
<!-- Node26&#45;&gt;Node29 -->
<g id="edge56" class="edge">
<title>Node26&#45;&gt;Node29</title>
<path fill="none" stroke="#191970" d="M184.444,-560.5744C189.9303,-534.2513 207.625,-462.3091 245,-415.665 293.0798,-355.6613 374.5836,-311.4497 416.2578,-291.4755"/>
<polygon fill="#191970" stroke="#191970" points="417.9136,-294.5646 425.475,-287.1433 414.9359,-288.2295 417.9136,-294.5646"/>
</g>
<!-- Node43 -->
<g id="node43" class="node">
<title>Node43</title>
<g id="a_node43"><a xlink:href="../../d4/d3e/classActs_1_1Logger.html#aee9e687247532b5175713e66b2d2121e" target="_top" xlink:title="create output stream object with internal cache">
<polygon fill="none" stroke="#000000" points="534,-482.665 534,-502.665 636,-502.665 636,-482.665 534,-482.665"/>
<text text-anchor="middle" x="585" y="-489.665" font-family="FreeSans" font-size="10.00" fill="#000000">Acts::Logger::log</text>
</a>
</g>
</g>
<!-- Node26&#45;&gt;Node43 -->
<g id="edge65" class="edge">
<title>Node26&#45;&gt;Node43</title>
<path fill="none" stroke="#191970" d="M190.9562,-560.2839C201.9238,-547.671 222.3521,-526.9313 245,-517.665 336.6315,-480.1745 453.6788,-481.0038 523.8061,-486.0822"/>
<polygon fill="#191970" stroke="#191970" points="523.5628,-489.5737 533.8037,-486.8582 524.1046,-482.5947 523.5628,-489.5737"/>
</g>
<!-- Node45 -->
<g id="node45" class="node">
<title>Node45</title>
<g id="a_node45"><a xlink:href="../../d0/d0b/radgen_8f.html#ac46fbf88891386f4421a13110281a57b" target="_top" xlink:title="tails">
<polygon fill="none" stroke="#000000" points="279.5,-599.665 279.5,-619.665 316.5,-619.665 316.5,-599.665 279.5,-599.665"/>
<text text-anchor="middle" x="298" y="-606.665" font-family="FreeSans" font-size="10.00" fill="#000000">tails</text>
</a>
</g>
</g>
<!-- Node26&#45;&gt;Node45 -->
<g id="edge57" class="edge">
<title>Node26&#45;&gt;Node45</title>
<path fill="none" stroke="#191970" d="M198.5598,-576.0878C216.9431,-582.2952 247.3949,-592.5776 269.7655,-600.1313"/>
<polygon fill="#191970" stroke="#191970" points="268.8087,-603.5023 279.4028,-603.3855 271.0481,-596.8702 268.8087,-603.5023"/>
</g>
<!-- Node48 -->
<g id="node48" class="node">
<title>Node48</title>
<g id="a_node48"><a xlink:href="../../d1/d96/classboost_1_1array.html#a33b762d7319eef06c90f23c4b23a61da" target="_top" xlink:title="boost::array::rend">
<polygon fill="none" stroke="#000000" points="245,-638.665 245,-658.665 351,-658.665 351,-638.665 245,-638.665"/>
<text text-anchor="middle" x="298" y="-645.665" font-family="FreeSans" font-size="10.00" fill="#000000">boost::array::rend</text>
</a>
</g>
</g>
<!-- Node26&#45;&gt;Node48 -->
<g id="edge62" class="edge">
<title>Node26&#45;&gt;Node48</title>
<path fill="none" stroke="#191970" d="M191.2795,-580.9711C202.5807,-593.686 223.3531,-615.2602 245,-628.665 248.4295,-630.7887 252.1205,-632.7453 255.9013,-634.5338"/>
<polygon fill="#191970" stroke="#191970" points="254.8182,-637.8786 265.3862,-638.6328 257.5951,-631.4529 254.8182,-637.8786"/>
</g>
<!-- Node50 -->
<g id="node50" class="node">
<title>Node50</title>
<g id="a_node50"><a xlink:href="../../d0/d0b/radgen_8f.html#a57c043f52d643b5a43012e9afb3b9277" target="_top" xlink:title="dqn32">
<polygon fill="none" stroke="#000000" points="274,-560.665 274,-580.665 322,-580.665 322,-560.665 274,-560.665"/>
<text text-anchor="middle" x="298" y="-567.665" font-family="FreeSans" font-size="10.00" fill="#000000">dqn32</text>
</a>
</g>
</g>
<!-- Node26&#45;&gt;Node50 -->
<g id="edge64" class="edge">
<title>Node26&#45;&gt;Node50</title>
<path fill="none" stroke="#191970" d="M198.5598,-570.665C215.286,-570.665 242.003,-570.665 263.5336,-570.665"/>
<polygon fill="#191970" stroke="#191970" points="263.6201,-574.1651 273.6201,-570.665 263.6201,-567.1651 263.6201,-574.1651"/>
</g>
<!-- Node28 -->
<g id="node28" class="node">
<title>Node28</title>
<g id="a_node28"><a xlink:href="../../db/dc0/classHiStrng.html#a940c31018c9ebe07227bb6d34a625f8a" target="_top" xlink:title="HiStrng::pp">
<polygon fill="none" stroke="#ff0000" points="405.5,-405.665 405.5,-425.665 479.5,-425.665 479.5,-405.665 405.5,-405.665"/>
<text text-anchor="middle" x="442.5" y="-412.665" font-family="FreeSans" font-size="10.00" fill="#000000">HiStrng::pp</text>
</a>
</g>
</g>
<!-- Node27&#45;&gt;Node28 -->
<g id="edge35" class="edge">
<title>Node27&#45;&gt;Node28</title>
<path fill="none" stroke="#191970" d="M321.538,-432.4072C341.4998,-429.6443 370.7477,-425.5961 395.4829,-422.1726"/>
<polygon fill="#191970" stroke="#191970" points="395.9881,-425.6361 405.4138,-420.7981 395.0283,-418.7022 395.9881,-425.6361"/>
</g>
<!-- Node27&#45;&gt;Node29 -->
<g id="edge36" class="edge">
<title>Node27&#45;&gt;Node29</title>
<path fill="none" stroke="#191970" d="M307.481,-425.4294C331.6759,-399.309 395.9321,-329.939 426.2423,-297.2165"/>
<polygon fill="#191970" stroke="#191970" points="428.9441,-299.4503 433.1719,-289.7355 423.8087,-294.6934 428.9441,-299.4503"/>
</g>
<!-- Node42 -->
<g id="node42" class="node">
<title>Node42</title>
<g id="a_node42"><a xlink:href="../../d0/d0b/radgen_8f.html#ada5e63d31d451843882a77beec0a6814" target="_top" xlink:title="vacpol">
<polygon fill="none" stroke="#ff0000" points="418,-444.665 418,-464.665 467,-464.665 467,-444.665 418,-444.665"/>
<text text-anchor="middle" x="442.5" y="-451.665" font-family="FreeSans" font-size="10.00" fill="#000000">vacpol</text>
</a>
</g>
</g>
<!-- Node27&#45;&gt;Node42 -->
<g id="edge53" class="edge">
<title>Node27&#45;&gt;Node42</title>
<path fill="none" stroke="#191970" d="M321.538,-438.76C344.8362,-441.8234 380.7838,-446.5501 407.4428,-450.0554"/>
<polygon fill="#191970" stroke="#191970" points="407.1459,-453.5464 417.5169,-451.38 408.0585,-446.6062 407.1459,-453.5464"/>
</g>
<!-- Node30 -->
<g id="node30" class="node">
<title>Node30</title>
<g id="a_node30"><a xlink:href="../../d0/d0b/radgen_8f.html#a5d6bafa6af53377bab919db2c4e6414c" target="_top" xlink:title="forgetp">
<polygon fill="none" stroke="#000000" points="558.5,-171.665 558.5,-191.665 611.5,-191.665 611.5,-171.665 558.5,-171.665"/>
<text text-anchor="middle" x="585" y="-178.665" font-family="FreeSans" font-size="10.00" fill="#000000">forgetp</text>
</a>
</g>
</g>
<!-- Node29&#45;&gt;Node30 -->
<g id="edge37" class="edge">
<title>Node29&#45;&gt;Node30</title>
<path fill="none" stroke="#191970" d="M451.7475,-269.6349C467.3267,-253.2418 500.4071,-220.5476 534,-200.665 538.7263,-197.8677 543.9355,-195.3612 549.1647,-193.1576"/>
<polygon fill="#191970" stroke="#191970" points="550.4517,-196.4125 558.4988,-189.5209 547.9104,-189.89 550.4517,-196.4125"/>
</g>
<!-- Node31 -->
<g id="node31" class="node">
<title>Node31</title>
<g id="a_node31"><a xlink:href="../../d0/d0b/radgen_8f.html#a6db5964741dd8cc288274308df019a0a" target="_top" xlink:title="forintp">
<polygon fill="none" stroke="#ff0000" points="560,-132.665 560,-152.665 610,-152.665 610,-132.665 560,-132.665"/>
<text text-anchor="middle" x="585" y="-139.665" font-family="FreeSans" font-size="10.00" fill="#000000">forintp</text>
</a>
</g>
</g>
<!-- Node29&#45;&gt;Node31 -->
<g id="edge38" class="edge">
<title>Node29&#45;&gt;Node31</title>
<path fill="none" stroke="#191970" d="M447.7229,-269.6044C459.8768,-247.1219 492.2263,-192.3744 534,-161.665 538.877,-158.0797 544.5069,-155.099 550.2074,-152.6448"/>
<polygon fill="#191970" stroke="#191970" points="551.6562,-155.8381 559.7471,-148.9979 549.1566,-149.2996 551.6562,-155.8381"/>
</g>
<!-- Node32 -->
<g id="node32" class="node">
<title>Node32</title>
<g id="a_node32"><a xlink:href="../../d6/d21/pepsi__radgen__extras_8f.html#a1b63040313f566794c1bdee782b752d6" target="_top" xlink:title="mkr">
<polygon fill="none" stroke="#ff0000" points="957,-54.665 957,-74.665 993,-74.665 993,-54.665 957,-54.665"/>
<text text-anchor="middle" x="975" y="-61.665" font-family="FreeSans" font-size="10.00" fill="#000000">mkr</text>
</a>
</g>
</g>
<!-- Node29&#45;&gt;Node32 -->
<g id="edge39" class="edge">
<title>Node29&#45;&gt;Node32</title>
<path fill="none" stroke="#191970" d="M444.8567,-269.5025C454.712,-227.9699 493.9736,-72.0337 534,-44.665 665.1193,44.9899 872.9747,-23.6288 947.3807,-53.0128"/>
<polygon fill="#191970" stroke="#191970" points="946.3887,-56.3865 956.9722,-56.878 949.0052,-49.8939 946.3887,-56.3865"/>
</g>
<!-- Node33 -->
<g id="node33" class="node">
<title>Node33</title>
<g id="a_node33"><a xlink:href="../../d6/d21/pepsi__radgen__extras_8f.html#a21fcddd794f5f96fafacd01a8c4278ab" target="_top" xlink:title="mkf2">
<polygon fill="none" stroke="#ff0000" points="739,-73.665 739,-93.665 780,-93.665 780,-73.665 739,-73.665"/>
<text text-anchor="middle" x="759.5" y="-80.665" font-family="FreeSans" font-size="10.00" fill="#000000">mkf2</text>
</a>
</g>
</g>
<!-- Node29&#45;&gt;Node33 -->
<g id="edge40" class="edge">
<title>Node29&#45;&gt;Node33</title>
<path fill="none" stroke="#191970" d="M445.1444,-269.5365C453.1302,-241.1222 479.8499,-160.2852 534,-122.665 593.3311,-81.4454 682.1464,-79.1057 728.627,-81.2096"/>
<polygon fill="#191970" stroke="#191970" points="728.5062,-84.7082 738.6843,-81.7659 728.8929,-77.7189 728.5062,-84.7082"/>
</g>
<!-- Node34 -->
<g id="node34" class="node">
<title>Node34</title>
<g id="a_node34"><a xlink:href="../../db/d5d/test__style_8C.html#a2513fe0eb0478642e44ad1201af61a46" target="_top" xlink:title="f2">
<polygon fill="none" stroke="#000000" points="960.5,-239.665 960.5,-259.665 989.5,-259.665 989.5,-239.665 960.5,-239.665"/>
<text text-anchor="middle" x="975" y="-246.665" font-family="FreeSans" font-size="10.00" fill="#000000">f2</text>
</a>
</g>
</g>
<!-- Node29&#45;&gt;Node34 -->
<g id="edge43" class="edge">
<title>Node29&#45;&gt;Node34</title>
<path fill="none" stroke="#191970" d="M447.9242,-289.7475C460.0265,-311.027 491.5443,-360.0925 534,-378.665 571.7495,-395.1788 776.3674,-405.1848 847,-375.665 900.2204,-353.4224 943.3604,-297.5366 963.2003,-268.2407"/>
<polygon fill="#191970" stroke="#191970" points="966.2228,-270.0148 968.8063,-259.7397 960.3791,-266.1611 966.2228,-270.0148"/>
</g>
<!-- Node35 -->
<g id="node35" class="node">
<title>Node35</title>
<g id="a_node35"><a xlink:href="../../d6/d21/pepsi__radgen__extras_8f.html#a34813879db96fedc24c1a03fe7a2cba2" target="_top" xlink:title="mkasym">
<polygon fill="none" stroke="#ff0000" points="555.5,-54.665 555.5,-74.665 614.5,-74.665 614.5,-54.665 555.5,-54.665"/>
<text text-anchor="middle" x="585" y="-61.665" font-family="FreeSans" font-size="10.00" fill="#000000">mkasym</text>
</a>
</g>
</g>
<!-- Node29&#45;&gt;Node35 -->
<g id="edge44" class="edge">
<title>Node29&#45;&gt;Node35</title>
<path fill="none" stroke="#191970" d="M444.8329,-269.6369C452.4497,-238.8972 479.308,-144.7396 534,-89.665 537.865,-85.773 542.4582,-82.392 547.2807,-79.4838"/>
<polygon fill="#191970" stroke="#191970" points="548.9442,-82.5633 556.1011,-74.7511 545.6346,-76.395 548.9442,-82.5633"/>
</g>
<!-- Node36 -->
<g id="node36" class="node">
<title>Node36</title>
<g id="a_node36"><a xlink:href="../../d6/d21/pepsi__radgen__extras_8f.html#a1628bf7fb729997e8f694780f0979c51" target="_top" xlink:title="fdilut">
<polygon fill="none" stroke="#ff0000" points="563.5,-443.665 563.5,-463.665 606.5,-463.665 606.5,-443.665 563.5,-443.665"/>
<text text-anchor="middle" x="585" y="-450.665" font-family="FreeSans" font-size="10.00" fill="#000000">fdilut</text>
</a>
</g>
</g>
<!-- Node29&#45;&gt;Node36 -->
<g id="edge46" class="edge">
<title>Node29&#45;&gt;Node36</title>
<path fill="none" stroke="#191970" d="M446.3131,-289.6819C456.6788,-315.7507 487.7333,-386.595 534,-428.665 539.7681,-433.9099 546.8378,-438.2997 553.855,-441.8623"/>
<polygon fill="#191970" stroke="#191970" points="552.7183,-445.1926 563.2641,-446.2102 555.6547,-438.8382 552.7183,-445.1926"/>
</g>
<!-- Node37 -->
<g id="node37" class="node">
<title>Node37</title>
<g id="a_node37"><a xlink:href="../../d0/d0b/radgen_8f.html#a37c7aa417719707dd72291032458eeec" target="_top" xlink:title="ffpro">
<polygon fill="none" stroke="#000000" points="739.5,-346.665 739.5,-366.665 779.5,-366.665 779.5,-346.665 739.5,-346.665"/>
<text text-anchor="middle" x="759.5" y="-353.665" font-family="FreeSans" font-size="10.00" fill="#000000">ffpro</text>
</a>
</g>
</g>
<!-- Node29&#45;&gt;Node37 -->
<g id="edge47" class="edge">
<title>Node29&#45;&gt;Node37</title>
<path fill="none" stroke="#191970" d="M450.2198,-289.6844C464.4895,-307.2798 496.9412,-343.1468 534,-356.665 600.3957,-380.8847 685.2869,-370.9456 729.5704,-362.9802"/>
<polygon fill="#191970" stroke="#191970" points="730.2314,-366.4174 739.4075,-361.1212 728.9314,-359.5391 730.2314,-366.4174"/>
</g>
<!-- Node38 -->
<g id="node38" class="node">
<title>Node38</title>
<g id="a_node38"><a xlink:href="../../d0/d0b/radgen_8f.html#ae7aadfe16ee51c41b90d728f6e3f03c1" target="_top" xlink:title="ffdeu">
<polygon fill="none" stroke="#000000" points="564,-288.665 564,-308.665 606,-308.665 606,-288.665 564,-288.665"/>
<text text-anchor="middle" x="585" y="-295.665" font-family="FreeSans" font-size="10.00" fill="#000000">ffdeu</text>
</a>
</g>
</g>
<!-- Node29&#45;&gt;Node38 -->
<g id="edge48" class="edge">
<title>Node29&#45;&gt;Node38</title>
<path fill="none" stroke="#191970" d="M459.6888,-281.9569C482.8956,-285.0511 524.6644,-290.6203 553.5634,-294.4735"/>
<polygon fill="#191970" stroke="#191970" points="553.195,-297.9553 563.5699,-295.8077 554.1203,-291.0167 553.195,-297.9553"/>
</g>
<!-- Node39 -->
<g id="node39" class="node">
<title>Node39</title>
<g id="a_node39"><a xlink:href="../../d0/d0b/radgen_8f.html#abc41a6b45ffeb900f106290ff630045b" target="_top" xlink:title="ffhe3">
<polygon fill="none" stroke="#ff0000" points="564,-249.665 564,-269.665 606,-269.665 606,-249.665 564,-249.665"/>
<text text-anchor="middle" x="585" y="-256.665" font-family="FreeSans" font-size="10.00" fill="#000000">ffhe3</text>
</a>
</g>
</g>
<!-- Node29&#45;&gt;Node39 -->
<g id="edge49" class="edge">
<title>Node29&#45;&gt;Node39</title>
<path fill="none" stroke="#191970" d="M459.6888,-277.2526C482.8956,-273.9955 524.6644,-268.1332 553.5634,-264.0772"/>
<polygon fill="#191970" stroke="#191970" points="554.1535,-267.5287 563.5699,-262.6727 553.1805,-260.5967 554.1535,-267.5287"/>
</g>
<!-- Node40 -->
<g id="node40" class="node">
<title>Node40</title>
<g id="a_node40"><a xlink:href="../../d0/d0b/radgen_8f.html#a7ab17f9248a51fd8c9b385ca1efa4000" target="_top" xlink:title="ffhe4">
<polygon fill="none" stroke="#000000" points="564,-210.665 564,-230.665 606,-230.665 606,-210.665 564,-210.665"/>
<text text-anchor="middle" x="585" y="-217.665" font-family="FreeSans" font-size="10.00" fill="#000000">ffhe4</text>
</a>
</g>
</g>
<!-- Node29&#45;&gt;Node40 -->
<g id="edge50" class="edge">
<title>Node29&#45;&gt;Node40</title>
<path fill="none" stroke="#191970" d="M459.581,-271.8591C477.8709,-263.5805 507.8026,-250.2616 534,-239.665 540.5325,-237.0227 547.5871,-234.3074 554.3053,-231.7859"/>
<polygon fill="#191970" stroke="#191970" points="555.6488,-235.0207 563.8074,-228.2614 553.2144,-228.4576 555.6488,-235.0207"/>
</g>
<!-- Node41 -->
<g id="node41" class="node">
<title>Node41</title>
<g id="a_node41"><a xlink:href="../../d0/d0b/radgen_8f.html#a1b2f2d93aae307c0597cb8db306b4cac" target="_top" xlink:title="ffquas">
<polygon fill="none" stroke="#ff0000" points="561,-327.665 561,-347.665 609,-347.665 609,-327.665 561,-327.665"/>
<text text-anchor="middle" x="585" y="-334.665" font-family="FreeSans" font-size="10.00" fill="#000000">ffquas</text>
</a>
</g>
</g>
<!-- Node29&#45;&gt;Node41 -->
<g id="edge51" class="edge">
<title>Node29&#45;&gt;Node41</title>
<path fill="none" stroke="#191970" d="M459.6595,-286.911C478.0151,-294.6339 508.0011,-307.1697 534,-317.665 539.5933,-319.9229 545.5454,-322.2896 551.3352,-324.5726"/>
<polygon fill="#191970" stroke="#191970" points="550.2464,-327.9051 560.8338,-328.3016 552.8045,-321.3893 550.2464,-327.9051"/>
</g>
<!-- Node33&#45;&gt;Node32 -->
<g id="edge42" class="edge">
<title>Node33&#45;&gt;Node32</title>
<path fill="none" stroke="#191970" d="M780.163,-81.8432C818.9949,-78.4195 902.8995,-71.0219 946.8509,-67.1468"/>
<polygon fill="#191970" stroke="#191970" points="947.2061,-70.6292 956.8601,-66.2644 946.5913,-63.6562 947.2061,-70.6292"/>
</g>
<!-- Node33&#45;&gt;Node34 -->
<g id="edge41" class="edge">
<title>Node33&#45;&gt;Node34</title>
<path fill="none" stroke="#191970" d="M772.6561,-93.7992C808.8096,-121.6483 909.9052,-199.5224 953.9945,-233.4844"/>
<polygon fill="#191970" stroke="#191970" points="951.9581,-236.3338 962.0161,-239.6635 956.2298,-230.7883 951.9581,-236.3338"/>
</g>
<!-- Node35&#45;&gt;Node33 -->
<g id="edge45" class="edge">
<title>Node35&#45;&gt;Node33</title>
<path fill="none" stroke="#191970" d="M614.6015,-67.8881C646.3139,-71.341 696.4174,-76.7964 728.6155,-80.3022"/>
<polygon fill="#191970" stroke="#191970" points="728.4758,-83.8076 738.796,-81.4107 729.2336,-76.8488 728.4758,-83.8076"/>
</g>
<!-- Node41&#45;&gt;Node37 -->
<g id="edge52" class="edge">
<title>Node41&#45;&gt;Node37</title>
<path fill="none" stroke="#191970" d="M609.2635,-340.3069C640.614,-343.7204 695.1961,-349.6634 729.2272,-353.3688"/>
<polygon fill="#191970" stroke="#191970" points="729.1785,-356.8841 739.4986,-354.4872 729.9362,-349.9253 729.1785,-356.8841"/>
</g>
<!-- Node42&#45;&gt;Node43 -->
<g id="edge54" class="edge">
<title>Node42&#45;&gt;Node43</title>
<path fill="none" stroke="#191970" d="M467.3216,-461.2841C486.6487,-466.438 514.0487,-473.7447 537.5472,-480.0109"/>
<polygon fill="#191970" stroke="#191970" points="536.7801,-483.4286 547.3443,-482.6235 538.5837,-476.665 536.7801,-483.4286"/>
</g>
<!-- Node44 -->
<g id="node44" class="node">
<title>Node44</title>
<g id="a_node44"><a xlink:href="../../df/dce/classActs_1_1Logging_1_1OutputPrintPolicy.html#ab113823970013e1e7f310b36509136ac" target="_top" xlink:title="handle output of debug message">
<polygon fill="none" stroke="#000000" points="684,-476.665 684,-508.665 835,-508.665 835,-476.665 684,-476.665"/>
<text text-anchor="start" x="692" y="-495.665" font-family="FreeSans" font-size="10.00" fill="#000000">Acts::Logging::OutputPrint</text>
<text text-anchor="middle" x="759.5" y="-483.665" font-family="FreeSans" font-size="10.00" fill="#000000">Policy::flush</text>
</a>
</g>
</g>
<!-- Node43&#45;&gt;Node44 -->
<g id="edge55" class="edge">
<title>Node43&#45;&gt;Node44</title>
<path fill="none" stroke="#191970" d="M636.4119,-492.665C648.1524,-492.665 660.9407,-492.665 673.688,-492.665"/>
<polygon fill="#191970" stroke="#191970" points="673.8816,-496.1651 683.8816,-492.665 673.8815,-489.1651 673.8816,-496.1651"/>
</g>
<!-- Node45&#45;&gt;Node4 -->
<g id="edge58" class="edge">
<title>Node45&#45;&gt;Node4</title>
<path fill="none" stroke="#191970" d="M316.595,-614.6837C341.8493,-621.4998 387.1401,-633.7236 415.9617,-641.5024"/>
<polygon fill="#191970" stroke="#191970" points="415.2008,-644.9222 425.7674,-644.1489 417.0249,-638.1641 415.2008,-644.9222"/>
</g>
<!-- Node46 -->
<g id="node46" class="node">
<title>Node46</title>
<g id="a_node46"><a xlink:href="../../de/dd7/exceptiondfe_1_1Variable.html#ad546b80a148ce91384638a73e6293e3f" target="_top" xlink:title="dfe::Variable::as">
<polygon fill="none" stroke="#000000" points="393,-599.665 393,-619.665 492,-619.665 492,-599.665 393,-599.665"/>
<text text-anchor="middle" x="442.5" y="-606.665" font-family="FreeSans" font-size="10.00" fill="#000000">dfe::Variable::as</text>
</a>
</g>
</g>
<!-- Node45&#45;&gt;Node46 -->
<g id="edge59" class="edge">
<title>Node45&#45;&gt;Node46</title>
<path fill="none" stroke="#191970" d="M316.595,-609.665C333.4026,-609.665 359.0851,-609.665 382.881,-609.665"/>
<polygon fill="#191970" stroke="#191970" points="382.9324,-613.1651 392.9324,-609.665 382.9324,-606.1651 382.9324,-613.1651"/>
</g>
<!-- Node47 -->
<g id="node47" class="node">
<title>Node47</title>
<g id="a_node47"><a xlink:href="../../d0/d0b/radgen_8f.html#a03ca313e33eba6a658b8bc71b283d054" target="_top" xlink:title="ffu">
<polygon fill="none" stroke="#000000" points="428,-560.665 428,-580.665 457,-580.665 457,-560.665 428,-560.665"/>
<text text-anchor="middle" x="442.5" y="-567.665" font-family="FreeSans" font-size="10.00" fill="#000000">ffu</text>
</a>
</g>
</g>
<!-- Node45&#45;&gt;Node47 -->
<g id="edge60" class="edge">
<title>Node45&#45;&gt;Node47</title>
<path fill="none" stroke="#191970" d="M316.595,-604.6463C342.4144,-597.6777 389.1772,-585.0566 417.8714,-577.3122"/>
<polygon fill="#191970" stroke="#191970" points="419.1602,-580.5896 427.9027,-574.6048 417.3362,-573.8315 419.1602,-580.5896"/>
</g>
<!-- Node49 -->
<g id="node49" class="node">
<title>Node49</title>
<g id="a_node49"><a xlink:href="../../d1/d96/classboost_1_1array.html#a692b0cab4e768f391c6784c799ea61ab" target="_top" xlink:title="boost::array::begin">
<polygon fill="none" stroke="#000000" points="387,-677.665 387,-697.665 498,-697.665 498,-677.665 387,-677.665"/>
<text text-anchor="middle" x="442.5" y="-684.665" font-family="FreeSans" font-size="10.00" fill="#000000">boost::array::begin</text>
</a>
</g>
</g>
<!-- Node48&#45;&gt;Node49 -->
<g id="edge63" class="edge">
<title>Node48&#45;&gt;Node49</title>
<path fill="none" stroke="#191970" d="M335.2123,-658.7085C353.6686,-663.6898 376.1496,-669.7573 395.7558,-675.0489"/>
<polygon fill="#191970" stroke="#191970" points="394.8472,-678.4289 405.4138,-677.6556 396.6712,-671.6707 394.8472,-678.4289"/>
</g>
</g>
</svg>
