<?xml version="1.0" encoding="UTF-8" standalone="no"?>
<!DOCTYPE svg PUBLIC "-//W3C//DTD SVG 1.1//EN"
 "http://www.w3.org/Graphics/SVG/1.1/DTD/svg11.dtd">
<!-- Generated by graphviz version 2.40.1 (20161225.0304)
 -->
<!-- Title: FairGenericParAsciiFileIo::write Pages: 1 -->
<svg width="709pt" height="455pt"
 viewBox="0.00 0.00 709.00 455.00" xmlns="http://www.w3.org/2000/svg" xmlns:xlink="http://www.w3.org/1999/xlink">
<g id="graph0" class="graph" transform="scale(1 1) rotate(0) translate(4 451)">
<title>FairGenericParAsciiFileIo::write</title>
<!-- Node1 -->
<g id="node1" class="node">
<title>Node1</title>
<polygon fill="#bfbfbf" stroke="#000000" points="0,-201.5 0,-233.5 139,-233.5 139,-201.5 0,-201.5"/>
<text text-anchor="start" x="8" y="-220.5" font-family="FreeSans" font-size="10.00" fill="#000000">FairGenericParAsciiFileIo</text>
<text text-anchor="middle" x="69.5" y="-208.5" font-family="FreeSans" font-size="10.00" fill="#000000">::write</text>
</g>
<!-- Node2 -->
<g id="node2" class="node">
<title>Node2</title>
<g id="a_node2"><a xlink:href="../../da/d7d/classFairGenericParAsciiFileIo.html#afb05d0e1ef5384bfac57c139747048a3" target="_top" xlink:title="FairGenericParAsciiFileIo\l::writeGenericSet">
<polygon fill="none" stroke="#000000" points="175,-201.5 175,-233.5 314,-233.5 314,-201.5 175,-201.5"/>
<text text-anchor="start" x="183" y="-220.5" font-family="FreeSans" font-size="10.00" fill="#000000">FairGenericParAsciiFileIo</text>
<text text-anchor="middle" x="244.5" y="-208.5" font-family="FreeSans" font-size="10.00" fill="#000000">::writeGenericSet</text>
</a>
</g>
</g>
<!-- Node1&#45;&gt;Node2 -->
<g id="edge1" class="edge">
<title>Node1&#45;&gt;Node2</title>
<path fill="none" stroke="#191970" d="M139.1675,-217.5C147.5024,-217.5 156.0628,-217.5 164.5285,-217.5"/>
<polygon fill="#191970" stroke="#191970" points="164.7864,-221.0001 174.7863,-217.5 164.7863,-214.0001 164.7864,-221.0001"/>
</g>
<!-- Node3 -->
<g id="node3" class="node">
<title>Node3</title>
<g id="a_node3"><a xlink:href="../../d5/d43/classFairParSet.html#a79dd647c46f4ae44147605ac034c80ef" target="_top" xlink:title="FairParSet::getParamContext">
<polygon fill="none" stroke="#000000" points="353,-426.5 353,-446.5 515,-446.5 515,-426.5 353,-426.5"/>
<text text-anchor="middle" x="434" y="-433.5" font-family="FreeSans" font-size="10.00" fill="#000000">FairParSet::getParamContext</text>
</a>
</g>
</g>
<!-- Node2&#45;&gt;Node3 -->
<g id="edge2" class="edge">
<title>Node2&#45;&gt;Node3</title>
<path fill="none" stroke="#191970" d="M248.1301,-233.7179C257.6159,-272.1471 286.9041,-369.1429 350,-417.5 351.8802,-418.941 353.8495,-420.2764 355.8895,-421.5138"/>
<polygon fill="#191970" stroke="#191970" points="354.7395,-424.8589 365.231,-426.3346 357.9496,-418.6383 354.7395,-424.8589"/>
</g>
<!-- Node4 -->
<g id="node4" class="node">
<title>Node4</title>
<g id="a_node4"><a xlink:href="../../d5/da2/classFairDetParAsciiFileIo.html#a9d7f370fd4280fb70decdbc93296a382" target="_top" xlink:title="FairDetParAsciiFileIo\l::writeComment">
<polygon fill="none" stroke="#000000" points="375.5,-375.5 375.5,-407.5 492.5,-407.5 492.5,-375.5 375.5,-375.5"/>
<text text-anchor="start" x="383.5" y="-394.5" font-family="FreeSans" font-size="10.00" fill="#000000">FairDetParAsciiFileIo</text>
<text text-anchor="middle" x="434" y="-382.5" font-family="FreeSans" font-size="10.00" fill="#000000">::writeComment</text>
</a>
</g>
</g>
<!-- Node2&#45;&gt;Node4 -->
<g id="edge3" class="edge">
<title>Node2&#45;&gt;Node4</title>
<path fill="none" stroke="#191970" d="M251.4903,-233.6542C265.5664,-264.2696 300.2829,-330.8578 350,-366.5 354.8324,-369.9644 360.1469,-372.9536 365.6836,-375.5321"/>
<polygon fill="#191970" stroke="#191970" points="364.5891,-378.868 375.1654,-379.4949 367.2885,-372.4094 364.5891,-378.868"/>
</g>
<!-- Node7 -->
<g id="node7" class="node">
<title>Node7</title>
<g id="a_node7"><a xlink:href="../../d7/dbb/classFairParGenericSet.html#aa4c9ac535184e75db83a327e36fb6690" target="_top" xlink:title="FairParGenericSet::\lputParams">
<polygon fill="none" stroke="#000000" points="378,-324.5 378,-356.5 490,-356.5 490,-324.5 378,-324.5"/>
<text text-anchor="start" x="386" y="-343.5" font-family="FreeSans" font-size="10.00" fill="#000000">FairParGenericSet::</text>
<text text-anchor="middle" x="434" y="-331.5" font-family="FreeSans" font-size="10.00" fill="#000000">putParams</text>
</a>
</g>
</g>
<!-- Node2&#45;&gt;Node7 -->
<g id="edge6" class="edge">
<title>Node2&#45;&gt;Node7</title>
<path fill="none" stroke="#191970" d="M257.7758,-233.8368C276.2559,-255.542 311.7939,-293.6796 350,-315.5 355.7701,-318.7955 362.0162,-321.6941 368.4078,-324.2354"/>
<polygon fill="#191970" stroke="#191970" points="367.2445,-327.5368 377.8379,-327.7077 369.6632,-320.9679 367.2445,-327.5368"/>
</g>
<!-- Node8 -->
<g id="node8" class="node">
<title>Node8</title>
<g id="a_node8"><a xlink:href="../../de/d25/classFairParamList.html#a97818228bde8ba8d99b225bdeeda1161" target="_top" xlink:title="FairParamList::getList">
<polygon fill="none" stroke="#000000" points="371.5,-285.5 371.5,-305.5 496.5,-305.5 496.5,-285.5 371.5,-285.5"/>
<text text-anchor="middle" x="434" y="-292.5" font-family="FreeSans" font-size="10.00" fill="#000000">FairParamList::getList</text>
</a>
</g>
</g>
<!-- Node2&#45;&gt;Node8 -->
<g id="edge7" class="edge">
<title>Node2&#45;&gt;Node8</title>
<path fill="none" stroke="#191970" d="M268.667,-233.6723C289.4397,-246.9103 320.6086,-265.2291 350,-276.5 356.1906,-278.8739 362.7569,-280.9955 369.3831,-282.881"/>
<polygon fill="#191970" stroke="#191970" points="368.5325,-286.2765 379.0971,-285.4763 370.3394,-279.5137 368.5325,-286.2765"/>
</g>
<!-- Node9 -->
<g id="node9" class="node">
<title>Node9</title>
<g id="a_node9"><a xlink:href="../../d4/d1f/classFairParamObj.html#a328ad3a760ac65c36346456153fad66c" target="_top" xlink:title="FairParamObj::getParamType">
<polygon fill="none" stroke="#000000" points="353,-246.5 353,-266.5 515,-266.5 515,-246.5 353,-246.5"/>
<text text-anchor="middle" x="434" y="-253.5" font-family="FreeSans" font-size="10.00" fill="#000000">FairParamObj::getParamType</text>
</a>
</g>
</g>
<!-- Node2&#45;&gt;Node9 -->
<g id="edge8" class="edge">
<title>Node2&#45;&gt;Node9</title>
<path fill="none" stroke="#191970" d="M314.2555,-231.856C334.3858,-235.9989 356.1372,-240.4755 375.5077,-244.462"/>
<polygon fill="#191970" stroke="#191970" points="374.8987,-247.91 385.399,-246.4977 376.3098,-241.0537 374.8987,-247.91"/>
</g>
<!-- Node10 -->
<g id="node10" class="node">
<title>Node10</title>
<g id="a_node10"><a xlink:href="../../d4/d1f/classFairParamObj.html#a342da53f4abe6b4676ea855e98cd33db" target="_top" xlink:title="FairParamObj::getParamValue">
<polygon fill="none" stroke="#000000" points="351,-207.5 351,-227.5 517,-227.5 517,-207.5 351,-207.5"/>
<text text-anchor="middle" x="434" y="-214.5" font-family="FreeSans" font-size="10.00" fill="#000000">FairParamObj::getParamValue</text>
</a>
</g>
</g>
<!-- Node2&#45;&gt;Node10 -->
<g id="edge9" class="edge">
<title>Node2&#45;&gt;Node10</title>
<path fill="none" stroke="#191970" d="M314.2555,-217.5C322.9199,-217.5 331.8846,-217.5 340.8305,-217.5"/>
<polygon fill="#191970" stroke="#191970" points="340.9057,-221.0001 350.9057,-217.5 340.9057,-214.0001 340.9057,-221.0001"/>
</g>
<!-- Node11 -->
<g id="node11" class="node">
<title>Node11</title>
<g id="a_node11"><a xlink:href="../../d4/d1f/classFairParamObj.html#a27e48d5106671f78dd3116bfee8d8a8b" target="_top" xlink:title="FairParamObj::isBasicType">
<polygon fill="none" stroke="#000000" points="360,-168.5 360,-188.5 508,-188.5 508,-168.5 360,-168.5"/>
<text text-anchor="middle" x="434" y="-175.5" font-family="FreeSans" font-size="10.00" fill="#000000">FairParamObj::isBasicType</text>
</a>
</g>
</g>
<!-- Node2&#45;&gt;Node11 -->
<g id="edge10" class="edge">
<title>Node2&#45;&gt;Node11</title>
<path fill="none" stroke="#191970" d="M314.2555,-203.144C334.3858,-199.0011 356.1372,-194.5245 375.5077,-190.538"/>
<polygon fill="#191970" stroke="#191970" points="376.3098,-193.9463 385.399,-188.5023 374.8987,-187.09 376.3098,-193.9463"/>
</g>
<!-- Node12 -->
<g id="node12" class="node">
<title>Node12</title>
<g id="a_node12"><a xlink:href="../../d4/d1f/classFairParamObj.html#a6280dbc3f5534d5d6caedcc41099c5f2" target="_top" xlink:title="FairParamObj::getLength">
<polygon fill="none" stroke="#000000" points="363.5,-129.5 363.5,-149.5 504.5,-149.5 504.5,-129.5 363.5,-129.5"/>
<text text-anchor="middle" x="434" y="-136.5" font-family="FreeSans" font-size="10.00" fill="#000000">FairParamObj::getLength</text>
</a>
</g>
</g>
<!-- Node2&#45;&gt;Node12 -->
<g id="edge11" class="edge">
<title>Node2&#45;&gt;Node12</title>
<path fill="none" stroke="#191970" d="M269.1571,-201.4476C289.972,-188.5186 320.9442,-170.7096 350,-159.5 357.1789,-156.7304 364.8558,-154.2674 372.5426,-152.0994"/>
<polygon fill="#191970" stroke="#191970" points="373.4878,-155.4698 382.2476,-149.5102 371.6833,-148.7063 373.4878,-155.4698"/>
</g>
<!-- Node13 -->
<g id="node13" class="node">
<title>Node13</title>
<g id="a_node13"><a xlink:href="../../d4/d1f/classFairParamObj.html#abbf6e683c13851ab886f4cba982c581e" target="_top" xlink:title="FairParamObj::getNumParams">
<polygon fill="none" stroke="#000000" points="350,-90.5 350,-110.5 518,-110.5 518,-90.5 350,-90.5"/>
<text text-anchor="middle" x="434" y="-97.5" font-family="FreeSans" font-size="10.00" fill="#000000">FairParamObj::getNumParams</text>
</a>
</g>
</g>
<!-- Node2&#45;&gt;Node13 -->
<g id="edge12" class="edge">
<title>Node2&#45;&gt;Node13</title>
<path fill="none" stroke="#191970" d="M257.33,-201.3949C275.5662,-179.6284 311.1134,-141.1716 350,-120.5 354.7984,-117.9492 359.9221,-115.7199 365.1829,-113.772"/>
<polygon fill="#191970" stroke="#191970" points="366.3909,-117.0585 374.7596,-110.5611 364.1657,-110.4216 366.3909,-117.0585"/>
</g>
<!-- Node14 -->
<g id="node14" class="node">
<title>Node14</title>
<g id="a_node14"><a xlink:href="../../da/d7d/classFairGenericParAsciiFileIo.html#a87fc136fc89afd775451bcd65d611d07" target="_top" xlink:title="FairGenericParAsciiFileIo\l::writeData">
<polygon fill="none" stroke="#000000" points="364.5,-39.5 364.5,-71.5 503.5,-71.5 503.5,-39.5 364.5,-39.5"/>
<text text-anchor="start" x="372.5" y="-58.5" font-family="FreeSans" font-size="10.00" fill="#000000">FairGenericParAsciiFileIo</text>
<text text-anchor="middle" x="434" y="-46.5" font-family="FreeSans" font-size="10.00" fill="#000000">::writeData</text>
</a>
</g>
</g>
<!-- Node2&#45;&gt;Node14 -->
<g id="edge13" class="edge">
<title>Node2&#45;&gt;Node14</title>
<path fill="none" stroke="#191970" d="M252.6132,-201.4871C267.817,-173.0797 303.3205,-113.8204 350,-81.5 352.8475,-79.5284 355.8501,-77.7021 358.9578,-76.0107"/>
<polygon fill="#191970" stroke="#191970" points="360.52,-79.1429 367.9531,-71.5931 357.4343,-72.8597 360.52,-79.1429"/>
</g>
<!-- Node15 -->
<g id="node15" class="node">
<title>Node15</title>
<g id="a_node15"><a xlink:href="../../d5/d43/classFairParSet.html#a2400276a84a3873ae7dd7473cc36e7a5" target="_top" xlink:title="FairParSet::setChanged">
<polygon fill="none" stroke="#000000" points="367,-.5 367,-20.5 501,-20.5 501,-.5 367,-.5"/>
<text text-anchor="middle" x="434" y="-7.5" font-family="FreeSans" font-size="10.00" fill="#000000">FairParSet::setChanged</text>
</a>
</g>
</g>
<!-- Node2&#45;&gt;Node15 -->
<g id="edge14" class="edge">
<title>Node2&#45;&gt;Node15</title>
<path fill="none" stroke="#191970" d="M248.8075,-201.2827C259.3987,-164.7008 290.2971,-75.4584 350,-30.5 352.6944,-28.471 355.5641,-26.6441 358.5575,-24.9996"/>
<polygon fill="#191970" stroke="#191970" points="360.3187,-28.0381 367.8567,-20.593 357.3212,-21.7124 360.3187,-28.0381"/>
</g>
<!-- Node5 -->
<g id="node5" class="node">
<title>Node5</title>
<g id="a_node5"><a xlink:href="../../d5/d43/classFairParSet.html#afb808fca5811fc32b6b696b13c2f41c8" target="_top" xlink:title="FairParSet::getAuthor">
<polygon fill="none" stroke="#000000" points="565.5,-400.5 565.5,-420.5 689.5,-420.5 689.5,-400.5 565.5,-400.5"/>
<text text-anchor="middle" x="627.5" y="-407.5" font-family="FreeSans" font-size="10.00" fill="#000000">FairParSet::getAuthor</text>
</a>
</g>
</g>
<!-- Node4&#45;&gt;Node5 -->
<g id="edge4" class="edge">
<title>Node4&#45;&gt;Node5</title>
<path fill="none" stroke="#191970" d="M492.5815,-397.2522C512.3691,-399.1952 534.6934,-401.3872 555.4031,-403.4207"/>
<polygon fill="#191970" stroke="#191970" points="555.1276,-406.9104 565.4218,-404.4045 555.8117,-399.9439 555.1276,-406.9104"/>
</g>
<!-- Node6 -->
<g id="node6" class="node">
<title>Node6</title>
<g id="a_node6"><a xlink:href="../../d5/d43/classFairParSet.html#a5d68c00d8e0456444fce99aaedf1cb29" target="_top" xlink:title="FairParSet::getDescription">
<polygon fill="none" stroke="#000000" points="554,-361.5 554,-381.5 701,-381.5 701,-361.5 554,-361.5"/>
<text text-anchor="middle" x="627.5" y="-368.5" font-family="FreeSans" font-size="10.00" fill="#000000">FairParSet::getDescription</text>
</a>
</g>
</g>
<!-- Node4&#45;&gt;Node6 -->
<g id="edge5" class="edge">
<title>Node4&#45;&gt;Node6</title>
<path fill="none" stroke="#191970" d="M492.5815,-385.4451C508.6679,-383.7824 526.4309,-381.9464 543.6399,-380.1677"/>
<polygon fill="#191970" stroke="#191970" points="544.1043,-383.6384 553.6915,-379.1288 543.3846,-376.6755 544.1043,-383.6384"/>
</g>
</g>
</svg>
