<?xml version="1.0" encoding="UTF-8" standalone="no"?>
<!DOCTYPE svg PUBLIC "-//W3C//DTD SVG 1.1//EN"
 "http://www.w3.org/Graphics/SVG/1.1/DTD/svg11.dtd">
<!-- Generated by graphviz version 2.40.1 (20161225.0304)
 -->
<!-- Title: EicGeoParData::AssignG4Colors Pages: 1 -->
<svg width="405pt" height="131pt"
 viewBox="0.00 0.00 405.00 131.00" xmlns="http://www.w3.org/2000/svg" xmlns:xlink="http://www.w3.org/1999/xlink">
<g id="graph0" class="graph" transform="scale(1 1) rotate(0) translate(4 127)">
<title>EicGeoParData::AssignG4Colors</title>
<!-- Node1 -->
<g id="node1" class="node">
<title>Node1</title>
<polygon fill="#bfbfbf" stroke="#000000" points="0,-51.5 0,-71.5 177,-71.5 177,-51.5 0,-51.5"/>
<text text-anchor="middle" x="88.5" y="-58.5" font-family="FreeSans" font-size="10.00" fill="#000000">EicGeoParData::AssignG4Colors</text>
</g>
<!-- Node2 -->
<g id="node2" class="node">
<title>Node2</title>
<g id="a_node2"><a xlink:href="../../dd/d0b/classEicNamePatternHub.html#a8baac9dd7e44ee789555cb040763f903" target="_top" xlink:title="EicNamePatternHub::\lAnyMatch">
<polygon fill="none" stroke="#000000" points="243.5,-90.5 243.5,-122.5 366.5,-122.5 366.5,-90.5 243.5,-90.5"/>
<text text-anchor="start" x="251.5" y="-109.5" font-family="FreeSans" font-size="10.00" fill="#000000">EicNamePatternHub::</text>
<text text-anchor="middle" x="305" y="-97.5" font-family="FreeSans" font-size="10.00" fill="#000000">AnyMatch</text>
</a>
</g>
</g>
<!-- Node1&#45;&gt;Node2 -->
<g id="edge1" class="edge">
<title>Node1&#45;&gt;Node2</title>
<path fill="none" stroke="#191970" d="M136.8174,-71.5429C165.1557,-77.4331 201.4958,-84.9864 233.1405,-91.5638"/>
<polygon fill="#191970" stroke="#191970" points="232.7307,-95.0534 243.2337,-93.6617 234.1552,-88.1999 232.7307,-95.0534"/>
</g>
<!-- Node3 -->
<g id="node3" class="node">
<title>Node3</title>
<g id="a_node3"><a xlink:href="../../df/de0/classEicGeoParData.html#a98e43e3d66fdb531cabaccd39f09ebc3" target="_top" xlink:title="EicGeoParData::GetColorTable">
<polygon fill="none" stroke="#000000" points="220.5,-51.5 220.5,-71.5 389.5,-71.5 389.5,-51.5 220.5,-51.5"/>
<text text-anchor="middle" x="305" y="-58.5" font-family="FreeSans" font-size="10.00" fill="#000000">EicGeoParData::GetColorTable</text>
</a>
</g>
</g>
<!-- Node1&#45;&gt;Node3 -->
<g id="edge2" class="edge">
<title>Node1&#45;&gt;Node3</title>
<path fill="none" stroke="#191970" d="M177.1835,-61.5C188.0911,-61.5 199.2729,-61.5 210.2658,-61.5"/>
<polygon fill="#191970" stroke="#191970" points="210.295,-65.0001 220.295,-61.5 210.2949,-58.0001 210.295,-65.0001"/>
</g>
<!-- Node4 -->
<g id="node4" class="node">
<title>Node4</title>
<g id="a_node4"><a xlink:href="../../df/de0/classEicGeoParData.html#a75991633a97d0a9b3140ba103f225691" target="_top" xlink:title="EicGeoParData::GetTransparency\lTable">
<polygon fill="none" stroke="#000000" points="213,-.5 213,-32.5 397,-32.5 397,-.5 213,-.5"/>
<text text-anchor="start" x="221" y="-19.5" font-family="FreeSans" font-size="10.00" fill="#000000">EicGeoParData::GetTransparency</text>
<text text-anchor="middle" x="305" y="-7.5" font-family="FreeSans" font-size="10.00" fill="#000000">Table</text>
</a>
</g>
</g>
<!-- Node1&#45;&gt;Node4 -->
<g id="edge3" class="edge">
<title>Node1&#45;&gt;Node4</title>
<path fill="none" stroke="#191970" d="M136.8174,-51.4571C160.6809,-46.497 190.2187,-40.3576 217.8486,-34.6146"/>
<polygon fill="#191970" stroke="#191970" points="218.8493,-37.9815 227.9277,-32.5196 217.4247,-31.128 218.8493,-37.9815"/>
</g>
</g>
</svg>
