<?xml version="1.0" encoding="UTF-8" standalone="no"?>
<!DOCTYPE svg PUBLIC "-//W3C//DTD SVG 1.1//EN"
 "http://www.w3.org/Graphics/SVG/1.1/DTD/svg11.dtd">
<!-- Generated by graphviz version 2.40.1 (20161225.0304)
 -->
<!-- Title: TpcSpaceChargeCorrection::transform_clusters Pages: 1 -->
<svg width="859pt" height="419pt"
 viewBox="0.00 0.00 859.00 419.00" xmlns="http://www.w3.org/2000/svg" xmlns:xlink="http://www.w3.org/1999/xlink">
<g id="graph0" class="graph" transform="scale(1 1) rotate(0) translate(4 415)">
<title>TpcSpaceChargeCorrection::transform_clusters</title>
<!-- Node1 -->
<g id="node1" class="node">
<title>Node1</title>
<polygon fill="#bfbfbf" stroke="#000000" points="0,-258.5 0,-290.5 154,-290.5 154,-258.5 0,-258.5"/>
<text text-anchor="start" x="8" y="-277.5" font-family="FreeSans" font-size="10.00" fill="#000000">TpcSpaceChargeCorrection</text>
<text text-anchor="middle" x="77" y="-265.5" font-family="FreeSans" font-size="10.00" fill="#000000">::transform_clusters</text>
</g>
<!-- Node2 -->
<g id="node2" class="node">
<title>Node2</title>
<g id="a_node2"><a xlink:href="../../d0/d2c/classTrkrClusterContainer.html#a1d8049a1a46c600e4baf190a58745029" target="_top" xlink:title="return all Clusters matching a given detid">
<polygon fill="none" stroke="#000000" points="206,-345.5 206,-377.5 328,-377.5 328,-345.5 206,-345.5"/>
<text text-anchor="start" x="214" y="-364.5" font-family="FreeSans" font-size="10.00" fill="#000000">TrkrClusterContainer</text>
<text text-anchor="middle" x="267" y="-352.5" font-family="FreeSans" font-size="10.00" fill="#000000">::getClusters</text>
</a>
</g>
</g>
<!-- Node1&#45;&gt;Node2 -->
<g id="edge1" class="edge">
<title>Node1&#45;&gt;Node2</title>
<path fill="none" stroke="#191970" d="M112.2923,-290.6601C143.4864,-304.9438 189.1246,-325.8413 222.7524,-341.2393"/>
<polygon fill="#191970" stroke="#191970" points="221.3474,-344.4454 231.8967,-345.4264 224.2617,-338.0808 221.3474,-344.4454"/>
</g>
<!-- Node7 -->
<g id="node7" class="node">
<title>Node7</title>
<g id="a_node7"><a xlink:href="../../d6/d3f/namespaceTrkrDefs.html#a542bf66cb1037404f08212eeefdfde70" target="_top" xlink:title="Get the tracker ID from either key type.">
<polygon fill="none" stroke="#000000" points="212,-264.5 212,-284.5 322,-284.5 322,-264.5 212,-264.5"/>
<text text-anchor="middle" x="267" y="-271.5" font-family="FreeSans" font-size="10.00" fill="#000000">TrkrDefs::getTrkrId</text>
</a>
</g>
</g>
<!-- Node1&#45;&gt;Node7 -->
<g id="edge7" class="edge">
<title>Node1&#45;&gt;Node7</title>
<path fill="none" stroke="#191970" d="M154.0064,-274.5C169.7192,-274.5 186.1137,-274.5 201.3845,-274.5"/>
<polygon fill="#191970" stroke="#191970" points="201.755,-278.0001 211.755,-274.5 201.755,-271.0001 201.755,-278.0001"/>
</g>
<!-- Node8 -->
<g id="node8" class="node">
<title>Node8</title>
<g id="a_node8"><a xlink:href="../../dd/dfd/classTpcSpaceChargeCorrection.html#a42f8c7de9e3a077e65c29e66a32947ac" target="_top" xlink:title="transform clusters">
<polygon fill="none" stroke="#000000" points="190,-170.5 190,-202.5 344,-202.5 344,-170.5 190,-170.5"/>
<text text-anchor="start" x="198" y="-189.5" font-family="FreeSans" font-size="10.00" fill="#000000">TpcSpaceChargeCorrection</text>
<text text-anchor="middle" x="267" y="-177.5" font-family="FreeSans" font-size="10.00" fill="#000000">::transform_cluster</text>
</a>
</g>
</g>
<!-- Node1&#45;&gt;Node8 -->
<g id="edge8" class="edge">
<title>Node1&#45;&gt;Node8</title>
<path fill="none" stroke="#191970" d="M111.8489,-258.3594C143.1849,-243.8459 189.3539,-222.4624 223.1809,-206.7952"/>
<polygon fill="#191970" stroke="#191970" points="224.769,-209.9169 232.372,-202.5382 221.827,-203.5651 224.769,-209.9169"/>
</g>
<!-- Node3 -->
<g id="node3" class="node">
<title>Node3</title>
<g id="a_node3"><a xlink:href="../../d6/d3f/namespaceTrkrDefs.html#a36fd0eb8c5bb3f21475acfec8965cf3e" target="_top" xlink:title="Get a valid low / hi range for cluskey given tracker id &amp; layer.">
<polygon fill="none" stroke="#000000" points="380,-390.5 380,-410.5 513,-410.5 513,-390.5 380,-390.5"/>
<text text-anchor="middle" x="446.5" y="-397.5" font-family="FreeSans" font-size="10.00" fill="#000000">TrkrDefs::getClusKeyLo</text>
</a>
</g>
</g>
<!-- Node2&#45;&gt;Node3 -->
<g id="edge2" class="edge">
<title>Node2&#45;&gt;Node3</title>
<path fill="none" stroke="#191970" d="M328.021,-374.758C348.2794,-379.1596 370.7209,-384.0355 390.5754,-388.3492"/>
<polygon fill="#191970" stroke="#191970" points="389.8789,-391.7795 400.3941,-390.4826 391.3652,-384.9391 389.8789,-391.7795"/>
</g>
<!-- Node6 -->
<g id="node6" class="node">
<title>Node6</title>
<g id="a_node6"><a xlink:href="../../d6/d3f/namespaceTrkrDefs.html#a53af1843abe50e467a06d2307f7fe0eb" target="_top" xlink:title="TrkrDefs::getClusKeyHi">
<polygon fill="none" stroke="#000000" points="380.5,-351.5 380.5,-371.5 512.5,-371.5 512.5,-351.5 380.5,-351.5"/>
<text text-anchor="middle" x="446.5" y="-358.5" font-family="FreeSans" font-size="10.00" fill="#000000">TrkrDefs::getClusKeyHi</text>
</a>
</g>
</g>
<!-- Node2&#45;&gt;Node6 -->
<g id="edge5" class="edge">
<title>Node2&#45;&gt;Node6</title>
<path fill="none" stroke="#191970" d="M328.021,-361.5C341.5972,-361.5 356.154,-361.5 370.2555,-361.5"/>
<polygon fill="#191970" stroke="#191970" points="370.4226,-365.0001 380.4226,-361.5 370.4225,-358.0001 370.4226,-365.0001"/>
</g>
<!-- Node4 -->
<g id="node4" class="node">
<title>Node4</title>
<g id="a_node4"><a xlink:href="../../d6/d9e/namespaceInttDefs.html#af41991588b294d4a9a89cfe7cf00439e" target="_top" xlink:title="Generate a hitsetkey for the intt.">
<polygon fill="none" stroke="#000000" points="549.5,-370.5 549.5,-390.5 680.5,-390.5 680.5,-370.5 549.5,-370.5"/>
<text text-anchor="middle" x="615" y="-377.5" font-family="FreeSans" font-size="10.00" fill="#000000">InttDefs::genHitSetKey</text>
</a>
</g>
</g>
<!-- Node3&#45;&gt;Node4 -->
<g id="edge3" class="edge">
<title>Node3&#45;&gt;Node4</title>
<path fill="none" stroke="#191970" d="M513.0957,-392.5955C521.6909,-391.5753 530.5429,-390.5246 539.2716,-389.4885"/>
<polygon fill="#191970" stroke="#191970" points="539.9212,-392.9361 549.4389,-388.2817 539.096,-385.9849 539.9212,-392.9361"/>
</g>
<!-- Node5 -->
<g id="node5" class="node">
<title>Node5</title>
<g id="a_node5"><a xlink:href="../../d6/d3f/namespaceTrkrDefs.html#a418e306477093b8d17d587be70b908a3" target="_top" xlink:title="generate the common upper 16 bits for hitsetkey">
<polygon fill="none" stroke="#000000" points="717,-370.5 717,-390.5 851,-390.5 851,-370.5 717,-370.5"/>
<text text-anchor="middle" x="784" y="-377.5" font-family="FreeSans" font-size="10.00" fill="#000000">TrkrDefs::genHitSetKey</text>
</a>
</g>
</g>
<!-- Node4&#45;&gt;Node5 -->
<g id="edge4" class="edge">
<title>Node4&#45;&gt;Node5</title>
<path fill="none" stroke="#191970" d="M680.8237,-380.5C689.3503,-380.5 698.144,-380.5 706.8334,-380.5"/>
<polygon fill="#191970" stroke="#191970" points="706.964,-384.0001 716.964,-380.5 706.964,-377.0001 706.964,-384.0001"/>
</g>
<!-- Node6&#45;&gt;Node4 -->
<g id="edge6" class="edge">
<title>Node6&#45;&gt;Node4</title>
<path fill="none" stroke="#191970" d="M512.612,-368.9548C521.3876,-369.9443 530.4387,-370.9649 539.3598,-371.9708"/>
<polygon fill="#191970" stroke="#191970" points="539.0258,-375.4553 549.355,-373.0979 539.8102,-368.4993 539.0258,-375.4553"/>
</g>
<!-- Node9 -->
<g id="node9" class="node">
<title>Node9</title>
<g id="a_node9"><a xlink:href="../../df/d28/namespacekdfinder.html#ab72d428625e99a2d7380eb7691c246c7" target="_top" xlink:title="kdfinder::abs">
<polygon fill="none" stroke="#000000" points="405,-312.5 405,-332.5 488,-332.5 488,-312.5 405,-312.5"/>
<text text-anchor="middle" x="446.5" y="-319.5" font-family="FreeSans" font-size="10.00" fill="#000000">kdfinder::abs</text>
</a>
</g>
</g>
<!-- Node8&#45;&gt;Node9 -->
<g id="edge9" class="edge">
<title>Node8&#45;&gt;Node9</title>
<path fill="none" stroke="#191970" d="M286.9665,-202.5224C303.12,-215.9129 326.0511,-235.9144 344,-255.5 362.0168,-275.1597 358.0333,-288.3814 380,-303.5 384.6364,-306.691 389.8044,-309.3504 395.154,-311.566"/>
<polygon fill="#191970" stroke="#191970" points="394.3095,-314.9824 404.9037,-315.0935 396.6911,-308.4 394.3095,-314.9824"/>
</g>
<!-- Node11 -->
<g id="node11" class="node">
<title>Node11</title>
<g id="a_node11"><a xlink:href="../../df/de8/cemc_8C.html#a72d4716092b469b4bc1d816359a90e14" target="_top" xlink:title="cos">
<polygon fill="none" stroke="#000000" points="430,-273.5 430,-293.5 463,-293.5 463,-273.5 430,-273.5"/>
<text text-anchor="middle" x="446.5" y="-280.5" font-family="FreeSans" font-size="10.00" fill="#000000">cos</text>
</a>
</g>
</g>
<!-- Node8&#45;&gt;Node11 -->
<g id="edge11" class="edge">
<title>Node8&#45;&gt;Node11</title>
<path fill="none" stroke="#191970" d="M286.2023,-202.6935C307.7726,-220.1555 344.4345,-247.7029 380,-264.5 392.6384,-270.4689 407.5329,-274.9381 420.0186,-278.0372"/>
<polygon fill="#191970" stroke="#191970" points="419.3046,-281.4645 429.8376,-280.3211 420.8905,-274.6465 419.3046,-281.4645"/>
</g>
<!-- Node12 -->
<g id="node12" class="node">
<title>Node12</title>
<g id="a_node12"><a xlink:href="../../d6/dfa/classTrkrCluster.html#a7be7cdba7b854678e0519288b8021b2a" target="_top" xlink:title="TrkrCluster::getX">
<polygon fill="none" stroke="#000000" points="395.5,-234.5 395.5,-254.5 497.5,-254.5 497.5,-234.5 395.5,-234.5"/>
<text text-anchor="middle" x="446.5" y="-241.5" font-family="FreeSans" font-size="10.00" fill="#000000">TrkrCluster::getX</text>
</a>
</g>
</g>
<!-- Node8&#45;&gt;Node12 -->
<g id="edge12" class="edge">
<title>Node8&#45;&gt;Node12</title>
<path fill="none" stroke="#191970" d="M311.6328,-202.5266C332.3405,-209.8018 357.3361,-218.357 380,-225.5 386.5401,-227.5612 393.4716,-229.6484 400.2945,-231.6473"/>
<polygon fill="#191970" stroke="#191970" points="399.5761,-235.0829 410.1549,-234.4995 401.5212,-228.3586 399.5761,-235.0829"/>
</g>
<!-- Node13 -->
<g id="node13" class="node">
<title>Node13</title>
<g id="a_node13"><a xlink:href="../../d6/dfa/classTrkrCluster.html#a526ac89c45b903df8890bd8b4d476e5c" target="_top" xlink:title="TrkrCluster::getY">
<polygon fill="none" stroke="#000000" points="396,-195.5 396,-215.5 497,-215.5 497,-195.5 396,-195.5"/>
<text text-anchor="middle" x="446.5" y="-202.5" font-family="FreeSans" font-size="10.00" fill="#000000">TrkrCluster::getY</text>
</a>
</g>
</g>
<!-- Node8&#45;&gt;Node13 -->
<g id="edge13" class="edge">
<title>Node8&#45;&gt;Node13</title>
<path fill="none" stroke="#191970" d="M344.1659,-194.668C358.0983,-196.1427 372.4435,-197.6611 385.8224,-199.0773"/>
<polygon fill="#191970" stroke="#191970" points="385.5292,-202.5657 395.8421,-200.1379 386.2661,-195.6046 385.5292,-202.5657"/>
</g>
<!-- Node14 -->
<g id="node14" class="node">
<title>Node14</title>
<g id="a_node14"><a xlink:href="../../d6/dfa/classTrkrCluster.html#a7d92784527cb537e382ffa0460e0f728" target="_top" xlink:title="TrkrCluster::getZ">
<polygon fill="none" stroke="#000000" points="395.5,-156.5 395.5,-176.5 497.5,-176.5 497.5,-156.5 395.5,-156.5"/>
<text text-anchor="middle" x="446.5" y="-163.5" font-family="FreeSans" font-size="10.00" fill="#000000">TrkrCluster::getZ</text>
</a>
</g>
</g>
<!-- Node8&#45;&gt;Node14 -->
<g id="edge14" class="edge">
<title>Node8&#45;&gt;Node14</title>
<path fill="none" stroke="#191970" d="M344.1659,-177.9021C357.8118,-176.3817 371.8536,-174.8171 384.9957,-173.3528"/>
<polygon fill="#191970" stroke="#191970" points="385.7668,-176.7887 395.3177,-172.2028 384.9916,-169.8317 385.7668,-176.7887"/>
</g>
<!-- Node15 -->
<g id="node15" class="node">
<title>Node15</title>
<g id="a_node15"><a xlink:href="../../d6/dfa/classTrkrCluster.html#a327a8f9f623b1db51fbcf0b7a1f76a62" target="_top" xlink:title="TrkrCluster::setX">
<polygon fill="none" stroke="#000000" points="396.5,-117.5 396.5,-137.5 496.5,-137.5 496.5,-117.5 396.5,-117.5"/>
<text text-anchor="middle" x="446.5" y="-124.5" font-family="FreeSans" font-size="10.00" fill="#000000">TrkrCluster::setX</text>
</a>
</g>
</g>
<!-- Node8&#45;&gt;Node15 -->
<g id="edge15" class="edge">
<title>Node8&#45;&gt;Node15</title>
<path fill="none" stroke="#191970" d="M312.2224,-170.4269C332.8321,-163.2218 357.5836,-154.736 380,-147.5 387.2594,-145.1567 394.9927,-142.7499 402.5222,-140.4543"/>
<polygon fill="#191970" stroke="#191970" points="403.6866,-143.7588 412.2461,-137.5151 401.6611,-137.0582 403.6866,-143.7588"/>
</g>
<!-- Node16 -->
<g id="node16" class="node">
<title>Node16</title>
<g id="a_node16"><a xlink:href="../../d6/dfa/classTrkrCluster.html#aa29a5bff5c1af02793ef276fa13a0a7b" target="_top" xlink:title="TrkrCluster::setY">
<polygon fill="none" stroke="#000000" points="396.5,-78.5 396.5,-98.5 496.5,-98.5 496.5,-78.5 396.5,-78.5"/>
<text text-anchor="middle" x="446.5" y="-85.5" font-family="FreeSans" font-size="10.00" fill="#000000">TrkrCluster::setY</text>
</a>
</g>
</g>
<!-- Node8&#45;&gt;Node16 -->
<g id="edge16" class="edge">
<title>Node8&#45;&gt;Node16</title>
<path fill="none" stroke="#191970" d="M286.2467,-170.3997C307.8559,-153.0192 344.5516,-125.5429 380,-108.5 385.0253,-106.0839 390.4053,-103.8881 395.8479,-101.9117"/>
<polygon fill="#191970" stroke="#191970" points="397.3008,-105.115 405.6489,-98.5912 395.0546,-98.4851 397.3008,-105.115"/>
</g>
<!-- Node17 -->
<g id="node17" class="node">
<title>Node17</title>
<g id="a_node17"><a xlink:href="../../d6/dfa/classTrkrCluster.html#a6c2f555272dad750584f4886c313a504" target="_top" xlink:title="TrkrCluster::setZ">
<polygon fill="none" stroke="#000000" points="396.5,-39.5 396.5,-59.5 496.5,-59.5 496.5,-39.5 396.5,-39.5"/>
<text text-anchor="middle" x="446.5" y="-46.5" font-family="FreeSans" font-size="10.00" fill="#000000">TrkrCluster::setZ</text>
</a>
</g>
</g>
<!-- Node8&#45;&gt;Node17 -->
<g id="edge17" class="edge">
<title>Node8&#45;&gt;Node17</title>
<path fill="none" stroke="#191970" d="M278.2592,-170.3596C296.668,-145.1562 335.6337,-96.5468 380,-69.5 383.8088,-67.1781 387.9057,-65.1096 392.1279,-63.2697"/>
<polygon fill="#191970" stroke="#191970" points="393.4721,-66.5022 401.5081,-59.5975 390.9203,-59.9839 393.4721,-66.5022"/>
</g>
<!-- Node18 -->
<g id="node18" class="node">
<title>Node18</title>
<g id="a_node18"><a xlink:href="../../d1/d22/EllipseBounds_8cpp.html#ab14acda17eb07a638824bb5e3873c586" target="_top" xlink:title="square">
<polygon fill="none" stroke="#000000" points="421.5,-.5 421.5,-20.5 471.5,-20.5 471.5,-.5 421.5,-.5"/>
<text text-anchor="middle" x="446.5" y="-7.5" font-family="FreeSans" font-size="10.00" fill="#000000">square</text>
</a>
</g>
</g>
<!-- Node8&#45;&gt;Node18 -->
<g id="edge18" class="edge">
<title>Node8&#45;&gt;Node18</title>
<path fill="none" stroke="#191970" d="M274.3691,-170.0965C289.4942,-138.2963 327.1232,-68.092 380,-30.5 389.2333,-23.9357 400.6481,-19.4958 411.3989,-16.505"/>
<polygon fill="#191970" stroke="#191970" points="412.5262,-19.8326 421.4101,-14.0596 410.8651,-13.0326 412.5262,-19.8326"/>
</g>
<!-- Node10 -->
<g id="node10" class="node">
<title>Node10</title>
<g id="a_node10"><a xlink:href="../../d8/dc7/classkdfinder_1_1TVector.html#ac9649c7577f12a7502ed523260f4ee90" target="_top" xlink:title="kdfinder::TVector::mag">
<polygon fill="none" stroke="#000000" points="549,-312.5 549,-332.5 681,-332.5 681,-312.5 549,-312.5"/>
<text text-anchor="middle" x="615" y="-319.5" font-family="FreeSans" font-size="10.00" fill="#000000">kdfinder::TVector::mag</text>
</a>
</g>
</g>
<!-- Node9&#45;&gt;Node10 -->
<g id="edge10" class="edge">
<title>Node9&#45;&gt;Node10</title>
<path fill="none" stroke="#191970" d="M488.1517,-322.5C503.4676,-322.5 521.3323,-322.5 538.7381,-322.5"/>
<polygon fill="#191970" stroke="#191970" points="538.9106,-326.0001 548.9106,-322.5 538.9106,-319.0001 538.9106,-326.0001"/>
</g>
</g>
</svg>
