<?xml version="1.0" encoding="UTF-8" standalone="no"?>
<!DOCTYPE svg PUBLIC "-//W3C//DTD SVG 1.1//EN"
 "http://www.w3.org/Graphics/SVG/1.1/DTD/svg11.dtd">
<!-- Generated by graphviz version 2.40.1 (20161225.0304)
 -->
<!-- Title: PndStack::PopPrimaryForTracking Pages: 1 -->
<svg width="1229pt" height="136pt"
 viewBox="0.00 0.00 1229.00 136.00" xmlns="http://www.w3.org/2000/svg" xmlns:xlink="http://www.w3.org/1999/xlink">
<g id="graph0" class="graph" transform="scale(1 1) rotate(0) translate(4 132)">
<title>PndStack::PopPrimaryForTracking</title>
<!-- Node1 -->
<g id="node1" class="node">
<title>Node1</title>
<polygon fill="#bfbfbf" stroke="#000000" points="0,-58.5 0,-78.5 184,-78.5 184,-58.5 0,-58.5"/>
<text text-anchor="middle" x="92" y="-65.5" font-family="FreeSans" font-size="10.00" fill="#000000">PndStack::PopPrimaryForTracking</text>
</g>
<!-- Node2 -->
<g id="node2" class="node">
<title>Node2</title>
<g id="a_node2"><a xlink:href="../../db/da1/classFairLogger.html#a739a5be0c6bd7cca187b192ae97353e4" target="_top" xlink:title="FairLogger::Error">
<polygon fill="none" stroke="#000000" points="220,-58.5 220,-78.5 320,-78.5 320,-58.5 220,-58.5"/>
<text text-anchor="middle" x="270" y="-65.5" font-family="FreeSans" font-size="10.00" fill="#000000">FairLogger::Error</text>
</a>
</g>
</g>
<!-- Node1&#45;&gt;Node2 -->
<g id="edge1" class="edge">
<title>Node1&#45;&gt;Node2</title>
<path fill="none" stroke="#191970" d="M184.1283,-68.5C192.7174,-68.5 201.2676,-68.5 209.4584,-68.5"/>
<polygon fill="#191970" stroke="#191970" points="209.617,-72.0001 219.617,-68.5 209.617,-65.0001 209.617,-72.0001"/>
</g>
<!-- Node3 -->
<g id="node3" class="node">
<title>Node3</title>
<g id="a_node3"><a xlink:href="../../db/da1/classFairLogger.html#ae5a926d95789678b453cbb45e0a9a46e" target="_top" xlink:title="FairLogger::IsLogNeeded">
<polygon fill="none" stroke="#000000" points="356,-78.5 356,-98.5 496,-98.5 496,-78.5 356,-78.5"/>
<text text-anchor="middle" x="426" y="-85.5" font-family="FreeSans" font-size="10.00" fill="#000000">FairLogger::IsLogNeeded</text>
</a>
</g>
</g>
<!-- Node2&#45;&gt;Node3 -->
<g id="edge2" class="edge">
<title>Node2&#45;&gt;Node3</title>
<path fill="none" stroke="#191970" d="M320.2181,-74.9382C328.5016,-76.0002 337.2659,-77.1238 346.0631,-78.2517"/>
<polygon fill="#191970" stroke="#191970" points="345.6217,-81.7236 355.9856,-79.5238 346.5119,-74.7805 345.6217,-81.7236"/>
</g>
<!-- Node4 -->
<g id="node4" class="node">
<title>Node4</title>
<g id="a_node4"><a xlink:href="../../db/da1/classFairLogger.html#aa9d98b58fab95abcf553dfefe1e572f5" target="_top" xlink:title="FairLogger::Log">
<polygon fill="none" stroke="#000000" points="379.5,-39.5 379.5,-59.5 472.5,-59.5 472.5,-39.5 379.5,-39.5"/>
<text text-anchor="middle" x="426" y="-46.5" font-family="FreeSans" font-size="10.00" fill="#000000">FairLogger::Log</text>
</a>
</g>
</g>
<!-- Node2&#45;&gt;Node4 -->
<g id="edge3" class="edge">
<title>Node2&#45;&gt;Node4</title>
<path fill="none" stroke="#191970" d="M320.2181,-62.3837C335.7809,-60.4882 353.0412,-58.386 369.0278,-56.4389"/>
<polygon fill="#191970" stroke="#191970" points="369.8152,-59.869 379.3187,-55.1855 368.9689,-52.9203 369.8152,-59.869"/>
</g>
<!-- Node5 -->
<g id="node5" class="node">
<title>Node5</title>
<g id="a_node5"><a xlink:href="../../db/da1/classFairLogger.html#a496d9b3f72963d24a58abc5a023b74b0" target="_top" xlink:title="End of the line.">
<polygon fill="none" stroke="#000000" points="566,-78.5 566,-98.5 663,-98.5 663,-78.5 566,-78.5"/>
<text text-anchor="middle" x="614.5" y="-85.5" font-family="FreeSans" font-size="10.00" fill="#000000">FairLogger::endl</text>
</a>
</g>
</g>
<!-- Node4&#45;&gt;Node5 -->
<g id="edge4" class="edge">
<title>Node4&#45;&gt;Node5</title>
<path fill="none" stroke="#191970" d="M472.5955,-59.1405C497.8273,-64.3608 529.2427,-70.8606 556.096,-76.4164"/>
<polygon fill="#191970" stroke="#191970" points="555.6403,-79.8962 566.1421,-78.4949 557.0586,-73.0414 555.6403,-79.8962"/>
</g>
<!-- Node10 -->
<g id="node10" class="node">
<title>Node10</title>
<g id="a_node10"><a xlink:href="../../db/da1/classFairLogger.html#aeb76e4a75fe913ebdf1c07b5d1f3ac1b" target="_top" xlink:title="FairLogger::GetOutputStream">
<polygon fill="none" stroke="#000000" points="532,-39.5 532,-59.5 697,-59.5 697,-39.5 532,-39.5"/>
<text text-anchor="middle" x="614.5" y="-46.5" font-family="FreeSans" font-size="10.00" fill="#000000">FairLogger::GetOutputStream</text>
</a>
</g>
</g>
<!-- Node4&#45;&gt;Node10 -->
<g id="edge10" class="edge">
<title>Node4&#45;&gt;Node10</title>
<path fill="none" stroke="#191970" d="M472.5955,-49.5C487.542,-49.5 504.6583,-49.5 521.7109,-49.5"/>
<polygon fill="#191970" stroke="#191970" points="521.7269,-53.0001 531.7269,-49.5 521.7268,-46.0001 521.7269,-53.0001"/>
</g>
<!-- Node11 -->
<g id="node11" class="node">
<title>Node11</title>
<g id="a_node11"><a xlink:href="../../db/da1/classFairLogger.html#a5529c6ab25bc075aff767f30a743e616" target="_top" xlink:title="FairLogger::OpenLogFile">
<polygon fill="none" stroke="#000000" points="745.5,-.5 745.5,-20.5 882.5,-20.5 882.5,-.5 745.5,-.5"/>
<text text-anchor="middle" x="814" y="-7.5" font-family="FreeSans" font-size="10.00" fill="#000000">FairLogger::OpenLogFile</text>
</a>
</g>
</g>
<!-- Node4&#45;&gt;Node11 -->
<g id="edge14" class="edge">
<title>Node4&#45;&gt;Node11</title>
<path fill="none" stroke="#191970" d="M472.5099,-39.4827C490.9538,-35.8363 512.4013,-32.0001 532,-29.5 600.276,-20.7903 678.3948,-15.9209 735.0719,-13.2983"/>
<polygon fill="#191970" stroke="#191970" points="735.5653,-16.7797 745.3981,-12.8343 735.251,-9.7868 735.5653,-16.7797"/>
</g>
<!-- Node6 -->
<g id="node6" class="node">
<title>Node6</title>
<g id="a_node6"><a xlink:href="../../db/da1/classFairLogger.html#aca7a4fd0af5e622c9635f62996a7334d" target="_top" xlink:title="Flush the streams.">
<polygon fill="none" stroke="#000000" points="950,-107.5 950,-127.5 1050,-127.5 1050,-107.5 950,-107.5"/>
<text text-anchor="middle" x="1000" y="-114.5" font-family="FreeSans" font-size="10.00" fill="#000000">FairLogger::flush</text>
</a>
</g>
</g>
<!-- Node5&#45;&gt;Node6 -->
<g id="edge5" class="edge">
<title>Node5&#45;&gt;Node6</title>
<path fill="none" stroke="#191970" d="M663.0197,-98.1931C684.3908,-102.0725 709.854,-106.1672 733,-108.5 803.6648,-115.6221 885.3246,-117.444 939.5415,-117.7582"/>
<polygon fill="#191970" stroke="#191970" points="939.6571,-121.2587 949.6719,-117.8012 939.6869,-114.2587 939.6571,-121.2587"/>
</g>
<!-- Node7 -->
<g id="node7" class="node">
<title>Node7</title>
<g id="a_node7"><a xlink:href="../../db/da1/classFairLogger.html#a9848989e18afa7144b47ecc38b7bfe0e" target="_top" xlink:title="FairLogger::LogFatalMessage">
<polygon fill="none" stroke="#000000" points="733,-78.5 733,-98.5 895,-98.5 895,-78.5 733,-78.5"/>
<text text-anchor="middle" x="814" y="-85.5" font-family="FreeSans" font-size="10.00" fill="#000000">FairLogger::LogFatalMessage</text>
</a>
</g>
</g>
<!-- Node5&#45;&gt;Node7 -->
<g id="edge6" class="edge">
<title>Node5&#45;&gt;Node7</title>
<path fill="none" stroke="#191970" d="M663.0481,-88.5C681.0875,-88.5 702.1922,-88.5 722.8059,-88.5"/>
<polygon fill="#191970" stroke="#191970" points="722.8704,-92.0001 732.8703,-88.5 722.8703,-85.0001 722.8704,-92.0001"/>
</g>
<!-- Node7&#45;&gt;Node6 -->
<g id="edge7" class="edge">
<title>Node7&#45;&gt;Node6</title>
<path fill="none" stroke="#191970" d="M878.2711,-98.5208C898.2114,-101.6297 920.1056,-105.0433 939.7612,-108.1079"/>
<polygon fill="#191970" stroke="#191970" points="939.3938,-111.5929 949.8136,-109.6752 940.4722,-104.6764 939.3938,-111.5929"/>
</g>
<!-- Node8 -->
<g id="node8" class="node">
<title>Node8</title>
<g id="a_node8"><a xlink:href="../../db/da1/classFairLogger.html#a6fe59f109418f1331c91c39d0ea33c1d" target="_top" xlink:title="FairLogger::GetTime">
<polygon fill="none" stroke="#000000" points="941,-58.5 941,-78.5 1059,-78.5 1059,-58.5 941,-58.5"/>
<text text-anchor="middle" x="1000" y="-65.5" font-family="FreeSans" font-size="10.00" fill="#000000">FairLogger::GetTime</text>
</a>
</g>
</g>
<!-- Node7&#45;&gt;Node8 -->
<g id="edge8" class="edge">
<title>Node7&#45;&gt;Node8</title>
<path fill="none" stroke="#191970" d="M895.0412,-79.7859C906.9288,-78.5077 919.0815,-77.2009 930.7048,-75.9511"/>
<polygon fill="#191970" stroke="#191970" points="931.1945,-79.4187 940.763,-74.8696 930.4461,-72.4588 931.1945,-79.4187"/>
</g>
<!-- Node9 -->
<g id="node9" class="node">
<title>Node9</title>
<g id="a_node9"><a xlink:href="../../df/da1/namespaceActs_1_1VectorHelpers.html#ab52a0c8023eda1c81cc9ddfe7f03b535" target="_top" xlink:title="Access to the time component of input parameter.">
<polygon fill="none" stroke="#000000" points="1105,-52.5 1105,-84.5 1221,-84.5 1221,-52.5 1105,-52.5"/>
<text text-anchor="start" x="1113" y="-71.5" font-family="FreeSans" font-size="10.00" fill="#000000">Acts::VectorHelpers</text>
<text text-anchor="middle" x="1163" y="-59.5" font-family="FreeSans" font-size="10.00" fill="#000000">::time</text>
</a>
</g>
</g>
<!-- Node8&#45;&gt;Node9 -->
<g id="edge9" class="edge">
<title>Node8&#45;&gt;Node9</title>
<path fill="none" stroke="#191970" d="M1059.3078,-68.5C1070.7836,-68.5 1082.8948,-68.5 1094.6328,-68.5"/>
<polygon fill="#191970" stroke="#191970" points="1094.8266,-72.0001 1104.8265,-68.5 1094.8265,-65.0001 1094.8266,-72.0001"/>
</g>
<!-- Node10&#45;&gt;Node8 -->
<g id="edge11" class="edge">
<title>Node10&#45;&gt;Node8</title>
<path fill="none" stroke="#191970" d="M697.1994,-53.576C766.8147,-57.0071 865.2325,-61.8578 930.7554,-65.0872"/>
<polygon fill="#191970" stroke="#191970" points="930.8193,-68.5945 940.9795,-65.5911 931.1639,-61.603 930.8193,-68.5945"/>
</g>
<!-- Node10&#45;&gt;Node11 -->
<g id="edge12" class="edge">
<title>Node10&#45;&gt;Node11</title>
<path fill="none" stroke="#191970" d="M665.8762,-39.4565C692.4045,-34.2706 724.9556,-27.9072 752.7804,-22.4677"/>
<polygon fill="#191970" stroke="#191970" points="753.6552,-25.8631 762.7979,-20.5094 752.3121,-18.9931 753.6552,-25.8631"/>
</g>
<!-- Node12 -->
<g id="node12" class="node">
<title>Node12</title>
<g id="a_node12"><a xlink:href="../../db/da1/classFairLogger.html#a80d1ac93eff9a9b6d52f8118b8b796aa" target="_top" xlink:title="FairLogger::CloseLogFile">
<polygon fill="none" stroke="#000000" points="931,-.5 931,-20.5 1069,-20.5 1069,-.5 931,-.5"/>
<text text-anchor="middle" x="1000" y="-7.5" font-family="FreeSans" font-size="10.00" fill="#000000">FairLogger::CloseLogFile</text>
</a>
</g>
</g>
<!-- Node11&#45;&gt;Node12 -->
<g id="edge13" class="edge">
<title>Node11&#45;&gt;Node12</title>
<path fill="none" stroke="#191970" d="M882.7311,-10.5C895.1428,-10.5 908.1747,-10.5 920.855,-10.5"/>
<polygon fill="#191970" stroke="#191970" points="920.9305,-14.0001 930.9305,-10.5 920.9304,-7.0001 920.9305,-14.0001"/>
</g>
</g>
</svg>
