<?xml version="1.0" encoding="UTF-8" standalone="no"?>
<!DOCTYPE svg PUBLIC "-//W3C//DTD SVG 1.1//EN"
 "http://www.w3.org/Graphics/SVG/1.1/DTD/svg11.dtd">
<!-- Generated by graphviz version 2.40.1 (20161225.0304)
 -->
<!-- Title: FairDbTableMetaData::SetFromSql Pages: 1 -->
<svg width="827pt" height="361pt"
 viewBox="0.00 0.00 827.00 361.00" xmlns="http://www.w3.org/2000/svg" xmlns:xlink="http://www.w3.org/1999/xlink">
<g id="graph0" class="graph" transform="scale(1 1) rotate(0) translate(4 357)">
<title>FairDbTableMetaData::SetFromSql</title>
<!-- Node1 -->
<g id="node1" class="node">
<title>Node1</title>
<polygon fill="#bfbfbf" stroke="#000000" points="0,-175.5 0,-207.5 123,-207.5 123,-175.5 0,-175.5"/>
<text text-anchor="start" x="8" y="-194.5" font-family="FreeSans" font-size="10.00" fill="#000000">FairDbTableMetaData</text>
<text text-anchor="middle" x="61.5" y="-182.5" font-family="FreeSans" font-size="10.00" fill="#000000">::SetFromSql</text>
</g>
<!-- Node2 -->
<g id="node2" class="node">
<title>Node2</title>
<g id="a_node2"><a xlink:href="../../d6/dc7/classFairDbFieldType.html#ac31f50b88d311001e9bf27c13b416ad7" target="_top" xlink:title="FairDbFieldType::AsString">
<polygon fill="none" stroke="#000000" points="159,-332.5 159,-352.5 303,-352.5 303,-332.5 159,-332.5"/>
<text text-anchor="middle" x="231" y="-339.5" font-family="FreeSans" font-size="10.00" fill="#000000">FairDbFieldType::AsString</text>
</a>
</g>
</g>
<!-- Node1&#45;&gt;Node2 -->
<g id="edge1" class="edge">
<title>Node1&#45;&gt;Node2</title>
<path fill="none" stroke="#191970" d="M68.8842,-207.678C82.5357,-235.7235 114.4464,-293.2601 159,-323.5 161.5906,-325.2583 164.3355,-326.854 167.1822,-328.3021"/>
<polygon fill="#191970" stroke="#191970" points="165.9949,-331.6038 176.5564,-332.443 168.8233,-325.2007 165.9949,-331.6038"/>
</g>
<!-- Node3 -->
<g id="node3" class="node">
<title>Node3</title>
<g id="a_node3"><a xlink:href="../../d9/d1a/classFairDbTableMetaData.html#af147319211bf84af9787b127ed127ff0" target="_top" xlink:title="FairDbTableMetaData\l::Clear">
<polygon fill="none" stroke="#000000" points="169.5,-281.5 169.5,-313.5 292.5,-313.5 292.5,-281.5 169.5,-281.5"/>
<text text-anchor="start" x="177.5" y="-300.5" font-family="FreeSans" font-size="10.00" fill="#000000">FairDbTableMetaData</text>
<text text-anchor="middle" x="231" y="-288.5" font-family="FreeSans" font-size="10.00" fill="#000000">::Clear</text>
</a>
</g>
</g>
<!-- Node1&#45;&gt;Node3 -->
<g id="edge2" class="edge">
<title>Node1&#45;&gt;Node3</title>
<path fill="none" stroke="#191970" d="M79.5674,-207.6246C98.4336,-223.9104 129.354,-249.0848 159,-266.5 165.3733,-270.2439 172.2831,-273.7946 179.2149,-277.0654"/>
<polygon fill="#191970" stroke="#191970" points="178.0805,-280.3943 188.6326,-281.3442 180.976,-274.0212 178.0805,-280.3943"/>
</g>
<!-- Node4 -->
<g id="node4" class="node">
<title>Node4</title>
<g id="a_node4"><a xlink:href="../../d9/d1a/classFairDbTableMetaData.html#afca5c3340adcb569d0e56c31bd02581c" target="_top" xlink:title="FairDbTableMetaData\l::ColFieldType">
<polygon fill="none" stroke="#000000" points="358.5,-236.5 358.5,-268.5 481.5,-268.5 481.5,-236.5 358.5,-236.5"/>
<text text-anchor="start" x="366.5" y="-255.5" font-family="FreeSans" font-size="10.00" fill="#000000">FairDbTableMetaData</text>
<text text-anchor="middle" x="420" y="-243.5" font-family="FreeSans" font-size="10.00" fill="#000000">::ColFieldType</text>
</a>
</g>
</g>
<!-- Node1&#45;&gt;Node4 -->
<g id="edge3" class="edge">
<title>Node1&#45;&gt;Node4</title>
<path fill="none" stroke="#191970" d="M123.0759,-203.8181C134.9821,-206.1097 147.3693,-208.4315 159,-210.5 222.9941,-221.8811 296.0612,-233.5237 348.5775,-241.6554"/>
<polygon fill="#191970" stroke="#191970" points="348.0503,-245.1154 358.4674,-243.1829 349.1188,-238.1974 348.0503,-245.1154"/>
</g>
<!-- Node7 -->
<g id="node7" class="node">
<title>Node7</title>
<g id="a_node7"><a xlink:href="../../d9/d1a/classFairDbTableMetaData.html#a60a30763c101e8820664ffe8e7d8759d" target="_top" xlink:title="FairDbTableMetaData\l::ColName">
<polygon fill="none" stroke="#000000" points="358.5,-185.5 358.5,-217.5 481.5,-217.5 481.5,-185.5 358.5,-185.5"/>
<text text-anchor="start" x="366.5" y="-204.5" font-family="FreeSans" font-size="10.00" fill="#000000">FairDbTableMetaData</text>
<text text-anchor="middle" x="420" y="-192.5" font-family="FreeSans" font-size="10.00" fill="#000000">::ColName</text>
</a>
</g>
</g>
<!-- Node1&#45;&gt;Node7 -->
<g id="edge6" class="edge">
<title>Node1&#45;&gt;Node7</title>
<path fill="none" stroke="#191970" d="M123.127,-194.1967C135.0287,-194.6698 147.4011,-195.1288 159,-195.5 222.9173,-197.5456 295.6611,-199.159 348.0864,-200.1951"/>
<polygon fill="#191970" stroke="#191970" points="348.2253,-203.6984 358.2918,-200.3946 348.3622,-196.6997 348.2253,-203.6984"/>
</g>
<!-- Node8 -->
<g id="node8" class="node">
<title>Node8</title>
<g id="a_node8"><a xlink:href="../../d9/d1a/classFairDbTableMetaData.html#add9b066a5e0a9d6b625a2545948b16a8" target="_top" xlink:title="FairDbTableMetaData\l::GetToken">
<polygon fill="none" stroke="#000000" points="169.5,-153.5 169.5,-185.5 292.5,-185.5 292.5,-153.5 169.5,-153.5"/>
<text text-anchor="start" x="177.5" y="-172.5" font-family="FreeSans" font-size="10.00" fill="#000000">FairDbTableMetaData</text>
<text text-anchor="middle" x="231" y="-160.5" font-family="FreeSans" font-size="10.00" fill="#000000">::GetToken</text>
</a>
</g>
</g>
<!-- Node1&#45;&gt;Node8 -->
<g id="edge8" class="edge">
<title>Node1&#45;&gt;Node8</title>
<path fill="none" stroke="#191970" d="M123.1729,-183.4953C134.931,-181.9691 147.3307,-180.3597 159.3684,-178.7973"/>
<polygon fill="#191970" stroke="#191970" points="159.9068,-182.2569 169.373,-177.4988 159.0057,-175.3151 159.9068,-182.2569"/>
</g>
<!-- Node9 -->
<g id="node9" class="node">
<title>Node9</title>
<g id="a_node9"><a xlink:href="../../d9/d1a/classFairDbTableMetaData.html#a2c81817c487cff0d78929c60fa89e59b" target="_top" xlink:title="FairDbTableMetaData\l::SetColFieldType">
<polygon fill="none" stroke="#000000" points="169.5,-102.5 169.5,-134.5 292.5,-134.5 292.5,-102.5 169.5,-102.5"/>
<text text-anchor="start" x="177.5" y="-121.5" font-family="FreeSans" font-size="10.00" fill="#000000">FairDbTableMetaData</text>
<text text-anchor="middle" x="231" y="-109.5" font-family="FreeSans" font-size="10.00" fill="#000000">::SetColFieldType</text>
</a>
</g>
</g>
<!-- Node1&#45;&gt;Node9 -->
<g id="edge9" class="edge">
<title>Node1&#45;&gt;Node9</title>
<path fill="none" stroke="#191970" d="M92.7409,-175.4292C111.6888,-165.937 136.4796,-153.9648 159,-144.5 164.0539,-142.376 169.3486,-140.2614 174.6751,-138.2083"/>
<polygon fill="#191970" stroke="#191970" points="176.1342,-141.3986 184.2522,-134.5906 173.6605,-134.8502 176.1342,-141.3986"/>
</g>
<!-- Node13 -->
<g id="node13" class="node">
<title>Node13</title>
<g id="a_node13"><a xlink:href="../../d9/d1a/classFairDbTableMetaData.html#a44d8a36d1e104674fe0f57b24819cf12" target="_top" xlink:title="FairDbTableMetaData\l::SetColIsNullable">
<polygon fill="none" stroke="#000000" points="169.5,-51.5 169.5,-83.5 292.5,-83.5 292.5,-51.5 169.5,-51.5"/>
<text text-anchor="start" x="177.5" y="-70.5" font-family="FreeSans" font-size="10.00" fill="#000000">FairDbTableMetaData</text>
<text text-anchor="middle" x="231" y="-58.5" font-family="FreeSans" font-size="10.00" fill="#000000">::SetColIsNullable</text>
</a>
</g>
</g>
<!-- Node1&#45;&gt;Node13 -->
<g id="edge14" class="edge">
<title>Node1&#45;&gt;Node13</title>
<path fill="none" stroke="#191970" d="M73.6767,-175.4197C90.6507,-154.0053 123.3755,-116.1961 159,-93.5 162.0964,-91.5273 165.3629,-89.6776 168.7268,-87.9474"/>
<polygon fill="#191970" stroke="#191970" points="170.2708,-91.0889 177.8087,-83.6437 167.2731,-84.7632 170.2708,-91.0889"/>
</g>
<!-- Node14 -->
<g id="node14" class="node">
<title>Node14</title>
<g id="a_node14"><a xlink:href="../../d9/d1a/classFairDbTableMetaData.html#a86218981c5997e17db554420644ab7d9" target="_top" xlink:title="FairDbTableMetaData\l::SetColName">
<polygon fill="none" stroke="#000000" points="169.5,-.5 169.5,-32.5 292.5,-32.5 292.5,-.5 169.5,-.5"/>
<text text-anchor="start" x="177.5" y="-19.5" font-family="FreeSans" font-size="10.00" fill="#000000">FairDbTableMetaData</text>
<text text-anchor="middle" x="231" y="-7.5" font-family="FreeSans" font-size="10.00" fill="#000000">::SetColName</text>
</a>
</g>
</g>
<!-- Node1&#45;&gt;Node14 -->
<g id="edge16" class="edge">
<title>Node1&#45;&gt;Node14</title>
<path fill="none" stroke="#191970" d="M67.7331,-175.4328C80.3536,-144.946 111.8028,-78.457 159,-41.5 160.7776,-40.1081 162.6381,-38.7906 164.5625,-37.5439"/>
<polygon fill="#191970" stroke="#191970" points="166.4069,-40.5212 173.351,-32.5193 162.9325,-34.4442 166.4069,-40.5212"/>
</g>
<!-- Node5 -->
<g id="node5" class="node">
<title>Node5</title>
<g id="a_node5"><a xlink:href="../../d9/d1a/classFairDbTableMetaData.html#aed3d499c285d62ab44275e2bf4884397" target="_top" xlink:title="FairDbTableMetaData\l::GetAttributes">
<polygon fill="none" stroke="#000000" points="537,-185.5 537,-217.5 660,-217.5 660,-185.5 537,-185.5"/>
<text text-anchor="start" x="545" y="-204.5" font-family="FreeSans" font-size="10.00" fill="#000000">FairDbTableMetaData</text>
<text text-anchor="middle" x="598.5" y="-192.5" font-family="FreeSans" font-size="10.00" fill="#000000">::GetAttributes</text>
</a>
</g>
</g>
<!-- Node4&#45;&gt;Node5 -->
<g id="edge4" class="edge">
<title>Node4&#45;&gt;Node5</title>
<path fill="none" stroke="#191970" d="M476.4785,-236.3633C494.3137,-231.2675 514.1764,-225.5925 532.6091,-220.326"/>
<polygon fill="#191970" stroke="#191970" points="533.7352,-223.6444 542.3889,-217.5317 531.8121,-216.9137 533.7352,-223.6444"/>
</g>
<!-- Node6 -->
<g id="node6" class="node">
<title>Node6</title>
<g id="a_node6"><a xlink:href="../../d1/d8e/structFairDbTableMetaData_1_1ColumnAttributes.html#a4b6065c0b419343436f553949ca6cda6" target="_top" xlink:title="FairDbTableMetaData\l::ColumnAttributes::\lSetDefault">
<polygon fill="none" stroke="#000000" points="696,-179.5 696,-223.5 819,-223.5 819,-179.5 696,-179.5"/>
<text text-anchor="start" x="704" y="-210.5" font-family="FreeSans" font-size="10.00" fill="#000000">FairDbTableMetaData</text>
<text text-anchor="start" x="704" y="-198.5" font-family="FreeSans" font-size="10.00" fill="#000000">::ColumnAttributes::</text>
<text text-anchor="middle" x="757.5" y="-186.5" font-family="FreeSans" font-size="10.00" fill="#000000">SetDefault</text>
</a>
</g>
</g>
<!-- Node5&#45;&gt;Node6 -->
<g id="edge5" class="edge">
<title>Node5&#45;&gt;Node6</title>
<path fill="none" stroke="#191970" d="M660.4288,-201.5C668.6737,-201.5 677.1839,-201.5 685.5803,-201.5"/>
<polygon fill="#191970" stroke="#191970" points="685.7402,-205.0001 695.7402,-201.5 685.7401,-198.0001 685.7402,-205.0001"/>
</g>
<!-- Node7&#45;&gt;Node5 -->
<g id="edge7" class="edge">
<title>Node7&#45;&gt;Node5</title>
<path fill="none" stroke="#191970" d="M481.6795,-201.5C496.1716,-201.5 511.7392,-201.5 526.6346,-201.5"/>
<polygon fill="#191970" stroke="#191970" points="526.8181,-205.0001 536.818,-201.5 526.818,-198.0001 526.8181,-205.0001"/>
</g>
<!-- Node10 -->
<g id="node10" class="node">
<title>Node10</title>
<g id="a_node10"><a xlink:href="../../d6/dc7/classFairDbFieldType.html#a8be98ff2389713e37b4d8b97e06d0193" target="_top" xlink:title="FairDbFieldType::GetConcept">
<polygon fill="none" stroke="#000000" points="339,-108.5 339,-128.5 501,-128.5 501,-108.5 339,-108.5"/>
<text text-anchor="middle" x="420" y="-115.5" font-family="FreeSans" font-size="10.00" fill="#000000">FairDbFieldType::GetConcept</text>
</a>
</g>
</g>
<!-- Node9&#45;&gt;Node10 -->
<g id="edge10" class="edge">
<title>Node9&#45;&gt;Node10</title>
<path fill="none" stroke="#191970" d="M292.6241,-118.5C304.1538,-118.5 316.4294,-118.5 328.6351,-118.5"/>
<polygon fill="#191970" stroke="#191970" points="328.8536,-122.0001 338.8536,-118.5 328.8535,-115.0001 328.8536,-122.0001"/>
</g>
<!-- Node11 -->
<g id="node11" class="node">
<title>Node11</title>
<g id="a_node11"><a xlink:href="../../d9/d1a/classFairDbTableMetaData.html#a4ba6a36b383ec41c034ad03cbcb652df" target="_top" xlink:title="FairDbTableMetaData\l::SetAttributes">
<polygon fill="none" stroke="#000000" points="358.5,-54.5 358.5,-86.5 481.5,-86.5 481.5,-54.5 358.5,-54.5"/>
<text text-anchor="start" x="366.5" y="-73.5" font-family="FreeSans" font-size="10.00" fill="#000000">FairDbTableMetaData</text>
<text text-anchor="middle" x="420" y="-61.5" font-family="FreeSans" font-size="10.00" fill="#000000">::SetAttributes</text>
</a>
</g>
</g>
<!-- Node9&#45;&gt;Node11 -->
<g id="edge11" class="edge">
<title>Node9&#45;&gt;Node11</title>
<path fill="none" stroke="#191970" d="M292.6241,-102.8494C310.5212,-98.3041 330.2155,-93.3024 348.6561,-88.6191"/>
<polygon fill="#191970" stroke="#191970" points="349.6288,-91.9832 358.4596,-86.1293 347.9057,-85.1986 349.6288,-91.9832"/>
</g>
<!-- Node11&#45;&gt;Node5 -->
<g id="edge13" class="edge">
<title>Node11&#45;&gt;Node5</title>
<path fill="none" stroke="#191970" d="M475.6667,-86.5325C484.477,-90.1555 493.2329,-94.4569 501,-99.5 533.4292,-120.556 562.9328,-154.4213 580.7911,-177.2967"/>
<polygon fill="#191970" stroke="#191970" points="578.1918,-179.6594 587.047,-185.4762 583.752,-175.4068 578.1918,-179.6594"/>
</g>
<!-- Node12 -->
<g id="node12" class="node">
<title>Node12</title>
<g id="a_node12"><a xlink:href="../../d9/d1a/classFairDbTableMetaData.html#a64e05fa4a1de72def46642285bb71185" target="_top" xlink:title="FairDbTableMetaData\l::ExpandTo">
<polygon fill="none" stroke="#000000" points="537,-54.5 537,-86.5 660,-86.5 660,-54.5 537,-54.5"/>
<text text-anchor="start" x="545" y="-73.5" font-family="FreeSans" font-size="10.00" fill="#000000">FairDbTableMetaData</text>
<text text-anchor="middle" x="598.5" y="-61.5" font-family="FreeSans" font-size="10.00" fill="#000000">::ExpandTo</text>
</a>
</g>
</g>
<!-- Node11&#45;&gt;Node12 -->
<g id="edge12" class="edge">
<title>Node11&#45;&gt;Node12</title>
<path fill="none" stroke="#191970" d="M481.6795,-70.5C496.1716,-70.5 511.7392,-70.5 526.6346,-70.5"/>
<polygon fill="#191970" stroke="#191970" points="526.8181,-74.0001 536.818,-70.5 526.818,-67.0001 526.8181,-74.0001"/>
</g>
<!-- Node13&#45;&gt;Node11 -->
<g id="edge15" class="edge">
<title>Node13&#45;&gt;Node11</title>
<path fill="none" stroke="#191970" d="M292.6241,-68.4782C310.4387,-68.7609 330.034,-69.072 348.4011,-69.3635"/>
<polygon fill="#191970" stroke="#191970" points="348.4052,-72.8639 358.4596,-69.5232 348.5164,-65.8648 348.4052,-72.8639"/>
</g>
<!-- Node14&#45;&gt;Node11 -->
<g id="edge17" class="edge">
<title>Node14&#45;&gt;Node11</title>
<path fill="none" stroke="#191970" d="M287.1945,-32.5556C308.1426,-38.5408 332.1137,-45.3896 353.8727,-51.6065"/>
<polygon fill="#191970" stroke="#191970" points="353.1189,-55.0311 363.6956,-54.413 355.042,-48.3004 353.1189,-55.0311"/>
</g>
</g>
</svg>
