<?xml version="1.0" encoding="UTF-8" standalone="no"?>
<!DOCTYPE svg PUBLIC "-//W3C//DTD SVG 1.1//EN"
 "http://www.w3.org/Graphics/SVG/1.1/DTD/svg11.dtd">
<!-- Generated by graphviz version 2.40.1 (20161225.0304)
 -->
<!-- Title: fun4all_acts/blob/master/Tests/UnitTests/Fatras/Utilities/ParticleDataTests.cpp Pages: 1 -->
<svg width="807pt" height="236pt"
 viewBox="0.00 0.00 806.50 236.00" xmlns="http://www.w3.org/2000/svg" xmlns:xlink="http://www.w3.org/1999/xlink">
<g id="graph0" class="graph" transform="scale(1 1) rotate(0) translate(4 232)">
<title>fun4all_acts/blob/master/Tests/UnitTests/Fatras/Utilities/ParticleDataTests.cpp</title>
<!-- Node1 -->
<g id="node1" class="node">
<title>Node1</title>
<polygon fill="#bfbfbf" stroke="#000000" points="189.5,-183.5 189.5,-227.5 359.5,-227.5 359.5,-183.5 189.5,-183.5"/>
<text text-anchor="start" x="197.5" y="-214.5" font-family="FreeSans" font-size="10.00" fill="#000000">fun4all_acts/blob/master</text>
<text text-anchor="start" x="197.5" y="-202.5" font-family="FreeSans" font-size="10.00" fill="#000000">/Tests/UnitTests/Fatras</text>
<text text-anchor="middle" x="274.5" y="-190.5" font-family="FreeSans" font-size="10.00" fill="#000000">/Utilities/ParticleDataTests.cpp</text>
</g>
<!-- Node2 -->
<g id="node2" class="node">
<title>Node2</title>
<polygon fill="none" stroke="#bfbfbf" points="0,-57.5 0,-77.5 137,-77.5 137,-57.5 0,-57.5"/>
<text text-anchor="middle" x="68.5" y="-64.5" font-family="FreeSans" font-size="10.00" fill="#000000">boost/test/unit_test.hpp</text>
</g>
<!-- Node1&#45;&gt;Node2 -->
<g id="edge1" class="edge">
<title>Node1&#45;&gt;Node2</title>
<path fill="none" stroke="#191970" d="M189.4477,-189.8799C160.4903,-181.1617 129.6293,-167.6988 106.5,-147 88.7635,-131.1274 78.5498,-105.1823 73.2662,-87.2715"/>
<polygon fill="#191970" stroke="#191970" points="76.6294,-86.3001 70.6478,-77.5554 69.8705,-88.1216 76.6294,-86.3001"/>
</g>
<!-- Node3 -->
<g id="node3" class="node">
<title>Node3</title>
<g id="a_node3"><a xlink:href="../../d4/d47/FloatComparisons_8hpp.html" target="_top" xlink:title="Acts/Tests/CommonHelpers\l/FloatComparisons.hpp">
<polygon fill="none" stroke="#000000" points="116,-114.5 116,-146.5 271,-146.5 271,-114.5 116,-114.5"/>
<text text-anchor="start" x="124" y="-133.5" font-family="FreeSans" font-size="10.00" fill="#000000">Acts/Tests/CommonHelpers</text>
<text text-anchor="middle" x="193.5" y="-121.5" font-family="FreeSans" font-size="10.00" fill="#000000">/FloatComparisons.hpp</text>
</a>
</g>
</g>
<!-- Node1&#45;&gt;Node3 -->
<g id="edge2" class="edge">
<title>Node1&#45;&gt;Node3</title>
<path fill="none" stroke="#191970" d="M250.6354,-183.4032C240.5206,-174.0376 228.7301,-163.1205 218.4956,-153.644"/>
<polygon fill="#191970" stroke="#191970" points="220.7415,-150.9536 211.0259,-146.7277 215.9856,-156.09 220.7415,-150.9536"/>
</g>
<!-- Node8 -->
<g id="node8" class="node">
<title>Node8</title>
<g id="a_node8"><a xlink:href="../../df/d6f/Units_8hpp.html" target="_top" xlink:title="Acts/Utilities/Units.hpp">
<polygon fill="none" stroke="#000000" points="289.5,-120.5 289.5,-140.5 421.5,-140.5 421.5,-120.5 289.5,-120.5"/>
<text text-anchor="middle" x="355.5" y="-127.5" font-family="FreeSans" font-size="10.00" fill="#000000">Acts/Utilities/Units.hpp</text>
</a>
</g>
</g>
<!-- Node1&#45;&gt;Node8 -->
<g id="edge8" class="edge">
<title>Node1&#45;&gt;Node8</title>
<path fill="none" stroke="#191970" d="M298.3646,-183.4032C310.6815,-171.9986 325.4829,-158.2936 336.9342,-147.6905"/>
<polygon fill="#191970" stroke="#191970" points="339.6373,-149.9576 344.597,-140.5954 334.8814,-144.8213 339.6373,-149.9576"/>
</g>
<!-- Node9 -->
<g id="node9" class="node">
<title>Node9</title>
<g id="a_node9"><a xlink:href="../../dc/d33/ParticleData_8hpp.html" target="_top" xlink:title="ActsFatras/Utilities\l/ParticleData.hpp">
<polygon fill="none" stroke="#000000" points="486,-114.5 486,-146.5 597,-146.5 597,-114.5 486,-114.5"/>
<text text-anchor="start" x="494" y="-133.5" font-family="FreeSans" font-size="10.00" fill="#000000">ActsFatras/Utilities</text>
<text text-anchor="middle" x="541.5" y="-121.5" font-family="FreeSans" font-size="10.00" fill="#000000">/ParticleData.hpp</text>
</a>
</g>
</g>
<!-- Node1&#45;&gt;Node9 -->
<g id="edge9" class="edge">
<title>Node1&#45;&gt;Node9</title>
<path fill="none" stroke="#191970" d="M353.1647,-183.4032C392.2789,-172.416 438.9944,-159.2937 476.1137,-148.867"/>
<polygon fill="#191970" stroke="#191970" points="477.1418,-152.2137 485.8226,-146.1397 475.2487,-145.4745 477.1418,-152.2137"/>
</g>
<!-- Node3&#45;&gt;Node2 -->
<g id="edge5" class="edge">
<title>Node3&#45;&gt;Node2</title>
<path fill="none" stroke="#191970" d="M161.6338,-114.4394C141.9565,-104.5221 116.8969,-91.892 97.7296,-82.2317"/>
<polygon fill="#191970" stroke="#191970" points="99.0789,-78.9924 88.5737,-77.6171 95.9283,-85.2433 99.0789,-78.9924"/>
</g>
<!-- Node4 -->
<g id="node4" class="node">
<title>Node4</title>
<polygon fill="none" stroke="#bfbfbf" points="155,-57.5 155,-77.5 220,-77.5 220,-57.5 155,-57.5"/>
<text text-anchor="middle" x="187.5" y="-64.5" font-family="FreeSans" font-size="10.00" fill="#000000">algorithm</text>
</g>
<!-- Node3&#45;&gt;Node4 -->
<g id="edge3" class="edge">
<title>Node3&#45;&gt;Node4</title>
<path fill="none" stroke="#191970" d="M191.9549,-114.2759C191.1834,-106.1754 190.2425,-96.2966 189.4246,-87.7084"/>
<polygon fill="#191970" stroke="#191970" points="192.9087,-87.3744 188.4763,-77.7513 185.9403,-88.0381 192.9087,-87.3744"/>
</g>
<!-- Node5 -->
<g id="node5" class="node">
<title>Node5</title>
<polygon fill="none" stroke="#bfbfbf" points="238.5,-57.5 238.5,-77.5 282.5,-77.5 282.5,-57.5 238.5,-57.5"/>
<text text-anchor="middle" x="260.5" y="-64.5" font-family="FreeSans" font-size="10.00" fill="#000000">limits</text>
</g>
<!-- Node3&#45;&gt;Node5 -->
<g id="edge4" class="edge">
<title>Node3&#45;&gt;Node5</title>
<path fill="none" stroke="#191970" d="M210.7542,-114.2759C220.4219,-105.1854 232.4714,-93.8552 242.29,-84.6229"/>
<polygon fill="#191970" stroke="#191970" points="244.7102,-87.1514 249.5979,-77.7513 239.915,-82.0517 244.7102,-87.1514"/>
</g>
<!-- Node6 -->
<g id="node6" class="node">
<title>Node6</title>
<g id="a_node6"><a xlink:href="../../d6/d1d/Definitions_8hpp.html" target="_top" xlink:title="Acts/Utilities/Definitions.hpp">
<polygon fill="none" stroke="#000000" points="300.5,-57.5 300.5,-77.5 460.5,-77.5 460.5,-57.5 300.5,-57.5"/>
<text text-anchor="middle" x="380.5" y="-64.5" font-family="FreeSans" font-size="10.00" fill="#000000">Acts/Utilities/Definitions.hpp</text>
</a>
</g>
</g>
<!-- Node3&#45;&gt;Node6 -->
<g id="edge6" class="edge">
<title>Node3&#45;&gt;Node6</title>
<path fill="none" stroke="#191970" d="M241.1718,-114.4394C272.0501,-104.0366 311.7877,-90.6491 340.918,-80.8351"/>
<polygon fill="#191970" stroke="#191970" points="342.3882,-84.0332 350.7474,-77.5236 340.1533,-77.3995 342.3882,-84.0332"/>
</g>
<!-- Node7 -->
<g id="node7" class="node">
<title>Node7</title>
<polygon fill="none" stroke="#bfbfbf" points="340.5,-.5 340.5,-20.5 420.5,-20.5 420.5,-.5 340.5,-.5"/>
<text text-anchor="middle" x="380.5" y="-7.5" font-family="FreeSans" font-size="10.00" fill="#000000">Eigen/Dense</text>
</g>
<!-- Node6&#45;&gt;Node7 -->
<g id="edge7" class="edge">
<title>Node6&#45;&gt;Node7</title>
<path fill="none" stroke="#191970" d="M380.5,-57.3095C380.5,-49.9335 380.5,-39.72 380.5,-30.715"/>
<polygon fill="#191970" stroke="#191970" points="384.0001,-30.6022 380.5,-20.6022 377.0001,-30.6023 384.0001,-30.6022"/>
</g>
<!-- Node10 -->
<g id="node10" class="node">
<title>Node10</title>
<polygon fill="none" stroke="#bfbfbf" points="478.5,-57.5 478.5,-77.5 526.5,-77.5 526.5,-57.5 478.5,-57.5"/>
<text text-anchor="middle" x="502.5" y="-64.5" font-family="FreeSans" font-size="10.00" fill="#000000">iosfwd</text>
</g>
<!-- Node9&#45;&gt;Node10 -->
<g id="edge10" class="edge">
<title>Node9&#45;&gt;Node10</title>
<path fill="none" stroke="#191970" d="M531.4565,-114.2759C526.1634,-105.7254 519.6436,-95.1935 514.1316,-86.2895"/>
<polygon fill="#191970" stroke="#191970" points="517.0856,-84.4117 508.846,-77.7513 511.1337,-88.0962 517.0856,-84.4117"/>
</g>
<!-- Node11 -->
<g id="node11" class="node">
<title>Node11</title>
<polygon fill="none" stroke="#bfbfbf" points="544.5,-57.5 544.5,-77.5 618.5,-77.5 618.5,-57.5 544.5,-57.5"/>
<text text-anchor="middle" x="581.5" y="-64.5" font-family="FreeSans" font-size="10.00" fill="#000000">string_view</text>
</g>
<!-- Node9&#45;&gt;Node11 -->
<g id="edge11" class="edge">
<title>Node9&#45;&gt;Node11</title>
<path fill="none" stroke="#191970" d="M551.801,-114.2759C557.2299,-105.7254 563.9168,-95.1935 569.5701,-86.2895"/>
<polygon fill="#191970" stroke="#191970" points="572.5859,-88.0695 574.9913,-77.7513 566.6764,-84.3174 572.5859,-88.0695"/>
</g>
<!-- Node12 -->
<g id="node12" class="node">
<title>Node12</title>
<g id="a_node12"><a xlink:href="../../d0/d47/PdgParticle_8hpp.html" target="_top" xlink:title="Acts/Utilities/PdgParticle.hpp">
<polygon fill="none" stroke="#000000" points="636.5,-57.5 636.5,-77.5 798.5,-77.5 798.5,-57.5 636.5,-57.5"/>
<text text-anchor="middle" x="717.5" y="-64.5" font-family="FreeSans" font-size="10.00" fill="#000000">Acts/Utilities/PdgParticle.hpp</text>
</a>
</g>
</g>
<!-- Node9&#45;&gt;Node12 -->
<g id="edge12" class="edge">
<title>Node9&#45;&gt;Node12</title>
<path fill="none" stroke="#191970" d="M586.3676,-114.4394C615.3026,-104.082 652.5031,-90.7659 679.8866,-80.9639"/>
<polygon fill="#191970" stroke="#191970" points="681.2621,-84.1891 689.4975,-77.5236 678.903,-77.5986 681.2621,-84.1891"/>
</g>
<!-- Node13 -->
<g id="node13" class="node">
<title>Node13</title>
<polygon fill="none" stroke="#bfbfbf" points="692,-.5 692,-20.5 743,-20.5 743,-.5 692,-.5"/>
<text text-anchor="middle" x="717.5" y="-7.5" font-family="FreeSans" font-size="10.00" fill="#000000">cstdint</text>
</g>
<!-- Node12&#45;&gt;Node13 -->
<g id="edge13" class="edge">
<title>Node12&#45;&gt;Node13</title>
<path fill="none" stroke="#191970" d="M717.5,-57.3095C717.5,-49.9335 717.5,-39.72 717.5,-30.715"/>
<polygon fill="#191970" stroke="#191970" points="721.0001,-30.6022 717.5,-20.6022 714.0001,-30.6023 721.0001,-30.6022"/>
</g>
</g>
</svg>
