<?xml version="1.0" encoding="UTF-8" standalone="no"?>
<!DOCTYPE svg PUBLIC "-//W3C//DTD SVG 1.1//EN"
 "http://www.w3.org/Graphics/SVG/1.1/DTD/svg11.dtd">
<!-- Generated by graphviz version 2.40.1 (20161225.0304)
 -->
<!-- Title: gap Pages: 1 -->
<svg width="364pt" height="236pt"
 viewBox="0.00 0.00 364.00 236.00" xmlns="http://www.w3.org/2000/svg" xmlns:xlink="http://www.w3.org/1999/xlink">
<g id="graph0" class="graph" transform="scale(1 1) rotate(0) translate(4 232)">
<title>gap</title>
<!-- Node1 -->
<g id="node1" class="node">
<title>Node1</title>
<polygon fill="#bfbfbf" stroke="#000000" points="0,-109.5 0,-129.5 35,-129.5 35,-109.5 0,-109.5"/>
<text text-anchor="middle" x="17.5" y="-116.5" font-family="FreeSans" font-size="10.00" fill="#000000">gap</text>
</g>
<!-- Node2 -->
<g id="node2" class="node">
<title>Node2</title>
<g id="a_node2"><a xlink:href="../../d7/d05/G4__Barrel__Hcal__JLeic_8C.html#aa4d93de43209f391e1b4d164a2c748b6" target="_top" xlink:title="Barrel_Hcal">
<polygon fill="none" stroke="#000000" points="111.5,-129.5 111.5,-149.5 184.5,-149.5 184.5,-129.5 111.5,-129.5"/>
<text text-anchor="middle" x="148" y="-136.5" font-family="FreeSans" font-size="10.00" fill="#000000">Barrel_Hcal</text>
</a>
</g>
</g>
<!-- Node1&#45;&gt;Node2 -->
<g id="edge1" class="edge">
<title>Node1&#45;&gt;Node2</title>
<path fill="none" stroke="#191970" d="M45.0695,-123.7252C64.3902,-126.6862 90.4167,-130.675 111.4641,-133.9006"/>
<polygon fill="#191970" stroke="#191970" points="45.5146,-120.2526 35.0998,-122.1973 44.4542,-127.1719 45.5146,-120.2526"/>
</g>
<!-- Node4 -->
<g id="node4" class="node">
<title>Node4</title>
<g id="a_node4"><a xlink:href="../../dd/d91/ODDServiceHelper_8hpp.html#a24802dacd3d198ef7d1a360ae4df4bf7" target="_top" xlink:title="buildBarrelRouting">
<polygon fill="none" stroke="#000000" points="93,-207.5 93,-227.5 203,-227.5 203,-207.5 93,-207.5"/>
<text text-anchor="middle" x="148" y="-214.5" font-family="FreeSans" font-size="10.00" fill="#000000">buildBarrelRouting</text>
</a>
</g>
</g>
<!-- Node1&#45;&gt;Node4 -->
<g id="edge3" class="edge">
<title>Node1&#45;&gt;Node4</title>
<path fill="none" stroke="#191970" d="M27.1651,-138.8031C36.34,-155.2786 51.5997,-178.4693 71,-192.5 79.8832,-198.9245 90.5014,-203.7549 100.9728,-207.3663"/>
<polygon fill="#191970" stroke="#191970" points="30.0359,-136.7465 22.256,-129.5545 23.8529,-140.0283 30.0359,-136.7465"/>
</g>
<!-- Node5 -->
<g id="node5" class="node">
<title>Node5</title>
<g id="a_node5"><a xlink:href="../../d0/d64/ODDPixelBarrel__geo_8cpp.html#afd8549888d9de7634dbade8a06477e4e" target="_top" xlink:title="create_element">
<polygon fill="none" stroke="#000000" points="261,-187.5 261,-207.5 356,-207.5 356,-187.5 261,-187.5"/>
<text text-anchor="middle" x="308.5" y="-194.5" font-family="FreeSans" font-size="10.00" fill="#000000">create_element</text>
</a>
</g>
</g>
<!-- Node1&#45;&gt;Node5 -->
<g id="edge8" class="edge">
<title>Node1&#45;&gt;Node5</title>
<path fill="none" stroke="#191970" d="M35.7439,-136.6466C45.49,-144.8484 58.1136,-154.0467 71,-159.5 133.1056,-185.7819 211.3725,-194.0268 260.6927,-196.5326"/>
<polygon fill="#191970" stroke="#191970" points="37.8038,-133.7968 27.9858,-129.8146 33.1775,-139.0502 37.8038,-133.7968"/>
</g>
<!-- Node6 -->
<g id="node6" class="node">
<title>Node6</title>
<g id="a_node6"><a xlink:href="../../dd/d91/ODDServiceHelper_8hpp.html#a3c5ec46d234ccb70a39f6e34fdee5830" target="_top" xlink:title="buildEndcapRouting">
<polygon fill="none" stroke="#000000" points="89.5,-.5 89.5,-20.5 206.5,-20.5 206.5,-.5 89.5,-.5"/>
<text text-anchor="middle" x="148" y="-7.5" font-family="FreeSans" font-size="10.00" fill="#000000">buildEndcapRouting</text>
</a>
</g>
</g>
<!-- Node1&#45;&gt;Node6 -->
<g id="edge5" class="edge">
<title>Node1&#45;&gt;Node6</title>
<path fill="none" stroke="#191970" d="M24.0576,-99.6755C31.9274,-79.0061 47.1299,-47.2055 71,-29.5 76.5294,-25.3986 82.8363,-22.1745 89.4059,-19.6414"/>
<polygon fill="#191970" stroke="#191970" points="20.6747,-98.7414 20.6036,-109.336 27.266,-101.0981 20.6747,-98.7414"/>
</g>
<!-- Node8 -->
<g id="node8" class="node">
<title>Node8</title>
<g id="a_node8"><a xlink:href="../../d2/d28/classPHG4CylinderStripDetector.html#ad48f7eed9e51fdf1b53b6963f6a040e8" target="_top" xlink:title="construct">
<polygon fill="none" stroke="#000000" points="71,-39.5 71,-71.5 225,-71.5 225,-39.5 71,-39.5"/>
<text text-anchor="start" x="79" y="-58.5" font-family="FreeSans" font-size="10.00" fill="#000000">PHG4CylinderStripDetector</text>
<text text-anchor="middle" x="148" y="-46.5" font-family="FreeSans" font-size="10.00" fill="#000000">::ConstructMe</text>
</a>
</g>
</g>
<!-- Node1&#45;&gt;Node8 -->
<g id="edge7" class="edge">
<title>Node1&#45;&gt;Node8</title>
<path fill="none" stroke="#191970" d="M36.9557,-103.0093C46.7001,-95.3686 58.9642,-86.6429 71,-80.5 77.3846,-77.2414 84.2812,-74.289 91.2326,-71.65"/>
<polygon fill="#191970" stroke="#191970" points="34.6859,-100.3436 29.11,-109.3525 39.0869,-105.787 34.6859,-100.3436"/>
</g>
<!-- Node9 -->
<g id="node9" class="node">
<title>Node9</title>
<g id="a_node9"><a xlink:href="../../d5/dc7/G4__EndCap__Hadron__JLeic_8C.html#a279edace215d74ef416e694b7541abd6" target="_top" xlink:title="EndCap_Hadron">
<polygon fill="none" stroke="#000000" points="99.5,-90.5 99.5,-110.5 196.5,-110.5 196.5,-90.5 99.5,-90.5"/>
<text text-anchor="middle" x="148" y="-97.5" font-family="FreeSans" font-size="10.00" fill="#000000">EndCap_Hadron</text>
</a>
</g>
</g>
<!-- Node1&#45;&gt;Node9 -->
<g id="edge9" class="edge">
<title>Node1&#45;&gt;Node9</title>
<path fill="none" stroke="#191970" d="M45.1922,-115.4682C60.8967,-113.1817 81.0024,-110.2544 99.2616,-107.596"/>
<polygon fill="#191970" stroke="#191970" points="44.4912,-112.0333 35.0998,-116.9376 45.4998,-118.9602 44.4912,-112.0333"/>
</g>
<!-- Node3 -->
<g id="node3" class="node">
<title>Node3</title>
<g id="a_node3"><a xlink:href="../../d0/dd0/G4Setup__JLeic_8C.html#ab7338d2908971d3820c9671865b90897" target="_top" xlink:title="G4Setup">
<polygon fill="none" stroke="#000000" points="278.5,-109.5 278.5,-129.5 338.5,-129.5 338.5,-109.5 278.5,-109.5"/>
<text text-anchor="middle" x="308.5" y="-116.5" font-family="FreeSans" font-size="10.00" fill="#000000">G4Setup</text>
</a>
</g>
</g>
<!-- Node2&#45;&gt;Node3 -->
<g id="edge2" class="edge">
<title>Node2&#45;&gt;Node3</title>
<path fill="none" stroke="#191970" d="M194.8112,-133.6668C221.7419,-130.311 254.7911,-126.1927 278.3009,-123.2631"/>
<polygon fill="#191970" stroke="#191970" points="194.3124,-130.2018 184.8219,-134.9116 195.178,-137.1481 194.3124,-130.2018"/>
</g>
<!-- Node4&#45;&gt;Node5 -->
<g id="edge4" class="edge">
<title>Node4&#45;&gt;Node5</title>
<path fill="none" stroke="#191970" d="M213.5225,-209.3352C229.3933,-207.3575 246.06,-205.2807 260.9233,-203.4286"/>
<polygon fill="#191970" stroke="#191970" points="212.7254,-205.9074 203.235,-210.6171 213.5911,-212.8536 212.7254,-205.9074"/>
</g>
<!-- Node7 -->
<g id="node7" class="node">
<title>Node7</title>
<g id="a_node7"><a xlink:href="../../de/d03/ODDPixelEndcap__geo_8cpp.html#afd8549888d9de7634dbade8a06477e4e" target="_top" xlink:title="create_element">
<polygon fill="none" stroke="#000000" points="261,-.5 261,-20.5 356,-20.5 356,-.5 261,-.5"/>
<text text-anchor="middle" x="308.5" y="-7.5" font-family="FreeSans" font-size="10.00" fill="#000000">create_element</text>
</a>
</g>
</g>
<!-- Node6&#45;&gt;Node7 -->
<g id="edge6" class="edge">
<title>Node6&#45;&gt;Node7</title>
<path fill="none" stroke="#191970" d="M217.0019,-10.5C231.8188,-10.5 247.1576,-10.5 260.9437,-10.5"/>
<polygon fill="#191970" stroke="#191970" points="216.8529,-7.0001 206.8529,-10.5 216.8529,-14.0001 216.8529,-7.0001"/>
</g>
<!-- Node9&#45;&gt;Node3 -->
<g id="edge10" class="edge">
<title>Node9&#45;&gt;Node3</title>
<path fill="none" stroke="#191970" d="M206.7854,-107.459C231.0426,-110.3306 258.124,-113.5365 278.2405,-115.9179"/>
<polygon fill="#191970" stroke="#191970" points="206.933,-103.9521 196.5908,-106.2522 206.11,-110.9036 206.933,-103.9521"/>
</g>
</g>
</svg>
