<?xml version="1.0" encoding="UTF-8" standalone="no"?>
<!DOCTYPE svg PUBLIC "-//W3C//DTD SVG 1.1//EN"
 "http://www.w3.org/Graphics/SVG/1.1/DTD/svg11.dtd">
<!-- Generated by graphviz version 2.40.1 (20161225.0304)
 -->
<!-- Title: parse_htc_interpolation_string Pages: 1 -->
<svg width="759pt" height="41pt"
 viewBox="0.00 0.00 759.00 41.00" xmlns="http://www.w3.org/2000/svg" xmlns:xlink="http://www.w3.org/1999/xlink">
<g id="graph0" class="graph" transform="scale(1 1) rotate(0) translate(4 37)">
<title>parse_htc_interpolation_string</title>
<!-- Node1 -->
<g id="node1" class="node">
<title>Node1</title>
<polygon fill="#bfbfbf" stroke="#000000" points="0,-.5 0,-32.5 135,-32.5 135,-.5 0,-.5"/>
<text text-anchor="start" x="8" y="-19.5" font-family="FreeSans" font-size="10.00" fill="#000000">parse_htc_interpolation</text>
<text text-anchor="middle" x="67.5" y="-7.5" font-family="FreeSans" font-size="10.00" fill="#000000">_string</text>
</g>
<!-- Node2 -->
<g id="node2" class="node">
<title>Node2</title>
<g id="a_node2"><a xlink:href="../../d4/da6/runge-kutta_8cxx.html#a370cfb3520c9bcec5b42a2a7d7b88284" target="_top" xlink:title="runge_kutta_fun">
<polygon fill="none" stroke="#000000" points="171,-6.5 171,-26.5 269,-26.5 269,-6.5 171,-6.5"/>
<text text-anchor="middle" x="220" y="-13.5" font-family="FreeSans" font-size="10.00" fill="#000000">runge_kutta_fun</text>
</a>
</g>
</g>
<!-- Node1&#45;&gt;Node2 -->
<g id="edge1" class="edge">
<title>Node1&#45;&gt;Node2</title>
<path fill="none" stroke="#191970" d="M145.3848,-16.5C154.0069,-16.5 162.6011,-16.5 170.7262,-16.5"/>
<polygon fill="#191970" stroke="#191970" points="145.2769,-13.0001 135.2768,-16.5 145.2768,-20.0001 145.2769,-13.0001"/>
</g>
<!-- Node3 -->
<g id="node3" class="node">
<title>Node3</title>
<g id="a_node3"><a xlink:href="../../d7/d9f/classEicHtcTask.html#a25703479e0b0d5a3da9d4e233b20c187" target="_top" xlink:title="EicHtcTask::ConfigureKalman\lFilter">
<polygon fill="none" stroke="#000000" points="305,-.5 305,-32.5 469,-32.5 469,-.5 305,-.5"/>
<text text-anchor="start" x="313" y="-19.5" font-family="FreeSans" font-size="10.00" fill="#000000">EicHtcTask::ConfigureKalman</text>
<text text-anchor="middle" x="387" y="-7.5" font-family="FreeSans" font-size="10.00" fill="#000000">Filter</text>
</a>
</g>
</g>
<!-- Node2&#45;&gt;Node3 -->
<g id="edge2" class="edge">
<title>Node2&#45;&gt;Node3</title>
<path fill="none" stroke="#191970" d="M279.4666,-16.5C287.7369,-16.5 296.3511,-16.5 304.9448,-16.5"/>
<polygon fill="#191970" stroke="#191970" points="279.2023,-13.0001 269.2023,-16.5 279.2022,-20.0001 279.2023,-13.0001"/>
</g>
<!-- Node4 -->
<g id="node4" class="node">
<title>Node4</title>
<g id="a_node4"><a xlink:href="../../d7/d9f/classEicHtcTask.html#a87172e2c8a22bbee83d4624f2e131034" target="_top" xlink:title="EicHtcTask::Init">
<polygon fill="none" stroke="#000000" points="505,-6.5 505,-26.5 598,-26.5 598,-6.5 505,-6.5"/>
<text text-anchor="middle" x="551.5" y="-13.5" font-family="FreeSans" font-size="10.00" fill="#000000">EicHtcTask::Init</text>
</a>
</g>
</g>
<!-- Node3&#45;&gt;Node4 -->
<g id="edge3" class="edge">
<title>Node3&#45;&gt;Node4</title>
<path fill="none" stroke="#191970" d="M479.5274,-16.5C488.2414,-16.5 496.7991,-16.5 504.8009,-16.5"/>
<polygon fill="#191970" stroke="#191970" points="479.25,-13.0001 469.25,-16.5 479.25,-20.0001 479.25,-13.0001"/>
</g>
<!-- Node5 -->
<g id="node5" class="node">
<title>Node5</title>
<g id="a_node5"><a xlink:href="../../d4/d04/classFwdTrackFinder.html#aede5d387f06d05b801e76f3c977fce68" target="_top" xlink:title="FwdTrackFinder::Init">
<polygon fill="none" stroke="#000000" points="634,-6.5 634,-26.5 751,-26.5 751,-6.5 634,-6.5"/>
<text text-anchor="middle" x="692.5" y="-13.5" font-family="FreeSans" font-size="10.00" fill="#000000">FwdTrackFinder::Init</text>
</a>
</g>
</g>
<!-- Node4&#45;&gt;Node5 -->
<g id="edge4" class="edge">
<title>Node4&#45;&gt;Node5</title>
<path fill="none" stroke="#191970" d="M608.2127,-16.5C616.6771,-16.5 625.4174,-16.5 633.9195,-16.5"/>
<polygon fill="#191970" stroke="#191970" points="608.0595,-13.0001 598.0594,-16.5 608.0594,-20.0001 608.0595,-13.0001"/>
</g>
</g>
</svg>
