<?xml version="1.0" encoding="UTF-8" standalone="no"?>
<!DOCTYPE svg PUBLIC "-//W3C//DTD SVG 1.1//EN"
 "http://www.w3.org/Graphics/SVG/1.1/DTD/svg11.dtd">
<!-- Generated by graphviz version 2.40.1 (20161225.0304)
 -->
<!-- Title: fun4all_eicdetectors/blob/master/simulation/g4simulation/g4eicdirc/G4EicDircSubsystem.h Pages: 1 -->
<svg width="1555pt" height="320pt"
 viewBox="0.00 0.00 1554.50 320.00" xmlns="http://www.w3.org/2000/svg" xmlns:xlink="http://www.w3.org/1999/xlink">
<g id="graph0" class="graph" transform="scale(1 1) rotate(0) translate(4 316)">
<title>fun4all_eicdetectors/blob/master/simulation/g4simulation/g4eicdirc/G4EicDircSubsystem.h</title>
<!-- Node1 -->
<g id="node1" class="node">
<title>Node1</title>
<polygon fill="#bfbfbf" stroke="#000000" points="886,-255.5 886,-311.5 1023,-311.5 1023,-255.5 886,-255.5"/>
<text text-anchor="start" x="894" y="-298.5" font-family="FreeSans" font-size="10.00" fill="#000000">fun4all_eicdetectors</text>
<text text-anchor="start" x="894" y="-286.5" font-family="FreeSans" font-size="10.00" fill="#000000">/blob/master/simulation</text>
<text text-anchor="start" x="894" y="-274.5" font-family="FreeSans" font-size="10.00" fill="#000000">/g4simulation/g4eicdirc</text>
<text text-anchor="middle" x="954.5" y="-262.5" font-family="FreeSans" font-size="10.00" fill="#000000">/G4EicDircSubsystem.h</text>
</g>
<!-- Node2 -->
<g id="node2" class="node">
<title>Node2</title>
<g id="a_node2"><a xlink:href="../../d3/df1/G4EicDircSubsystem_8cc.html" target="_top" xlink:title="fun4all_eicdetectors\l/blob/master/simulation\l/g4simulation/g4eicdirc\l/G4EicDircSubsystem.cc">
<polygon fill="none" stroke="#000000" points="716.5,-162.5 716.5,-218.5 856.5,-218.5 856.5,-162.5 716.5,-162.5"/>
<text text-anchor="start" x="724.5" y="-205.5" font-family="FreeSans" font-size="10.00" fill="#000000">fun4all_eicdetectors</text>
<text text-anchor="start" x="724.5" y="-193.5" font-family="FreeSans" font-size="10.00" fill="#000000">/blob/master/simulation</text>
<text text-anchor="start" x="724.5" y="-181.5" font-family="FreeSans" font-size="10.00" fill="#000000">/g4simulation/g4eicdirc</text>
<text text-anchor="middle" x="786.5" y="-169.5" font-family="FreeSans" font-size="10.00" fill="#000000">/G4EicDircSubsystem.cc</text>
</a>
</g>
</g>
<!-- Node1&#45;&gt;Node2 -->
<g id="edge1" class="edge">
<title>Node1&#45;&gt;Node2</title>
<path fill="none" stroke="#191970" d="M894.8348,-250.471C875.986,-240.0369 855.348,-228.6123 837.1886,-218.5597"/>
<polygon fill="#191970" stroke="#191970" points="893.1945,-253.5635 903.6385,-255.3446 896.5847,-247.4392 893.1945,-253.5635"/>
</g>
<!-- Node3 -->
<g id="node3" class="node">
<title>Node3</title>
<g id="a_node3"><a xlink:href="../../d8/dc4/fun4all__eicmacros_2blob_2master_2common_2G4__DIRC_8C.html" target="_top" xlink:title="fun4all_eicmacros/blob\l/master/common/G4_DIRC.C">
<polygon fill="none" stroke="#000000" points="874.5,-174.5 874.5,-206.5 1034.5,-206.5 1034.5,-174.5 874.5,-174.5"/>
<text text-anchor="start" x="882.5" y="-193.5" font-family="FreeSans" font-size="10.00" fill="#000000">fun4all_eicmacros/blob</text>
<text text-anchor="middle" x="954.5" y="-181.5" font-family="FreeSans" font-size="10.00" fill="#000000">/master/common/G4_DIRC.C</text>
</a>
</g>
</g>
<!-- Node1&#45;&gt;Node3 -->
<g id="edge2" class="edge">
<title>Node1&#45;&gt;Node3</title>
<path fill="none" stroke="#191970" d="M954.5,-245.2914C954.5,-231.7967 954.5,-217.3392 954.5,-206.6653"/>
<polygon fill="#191970" stroke="#191970" points="951.0001,-245.3445 954.5,-255.3446 958.0001,-245.3446 951.0001,-245.3445"/>
</g>
<!-- Node15 -->
<g id="node15" class="node">
<title>Node15</title>
<g id="a_node15"><a xlink:href="../../d2/ddb/Fun4All__G4__EicDirc_8C.html" target="_top" xlink:title="fun4all_eicmacros/blob\l/master/detectors/EicDirc\l/Fun4All_G4_EicDirc.C">
<polygon fill="none" stroke="#000000" points="1053,-168.5 1053,-212.5 1198,-212.5 1198,-168.5 1053,-168.5"/>
<text text-anchor="start" x="1061" y="-199.5" font-family="FreeSans" font-size="10.00" fill="#000000">fun4all_eicmacros/blob</text>
<text text-anchor="start" x="1061" y="-187.5" font-family="FreeSans" font-size="10.00" fill="#000000">/master/detectors/EicDirc</text>
<text text-anchor="middle" x="1125.5" y="-175.5" font-family="FreeSans" font-size="10.00" fill="#000000">/Fun4All_G4_EicDirc.C</text>
</a>
</g>
</g>
<!-- Node1&#45;&gt;Node15 -->
<g id="edge14" class="edge">
<title>Node1&#45;&gt;Node15</title>
<path fill="none" stroke="#191970" d="M1015.3262,-250.4191C1038.4629,-237.836 1064.2359,-223.8191 1085.0338,-212.5079"/>
<polygon fill="#191970" stroke="#191970" points="1013.3823,-247.4921 1006.2697,-255.3446 1016.7268,-253.6415 1013.3823,-247.4921"/>
</g>
<!-- Node4 -->
<g id="node4" class="node">
<title>Node4</title>
<g id="a_node4"><a xlink:href="../../d0/d9a/G4__DSTReader__EICDetector_8C.html" target="_top" xlink:title="fun4all_eicmacros/blob\l/master/common/G4_DSTReader\l_EICDetector.C">
<polygon fill="none" stroke="#000000" points="631,-81.5 631,-125.5 814,-125.5 814,-81.5 631,-81.5"/>
<text text-anchor="start" x="639" y="-112.5" font-family="FreeSans" font-size="10.00" fill="#000000">fun4all_eicmacros/blob</text>
<text text-anchor="start" x="639" y="-100.5" font-family="FreeSans" font-size="10.00" fill="#000000">/master/common/G4_DSTReader</text>
<text text-anchor="middle" x="722.5" y="-88.5" font-family="FreeSans" font-size="10.00" fill="#000000">_EICDetector.C</text>
</a>
</g>
</g>
<!-- Node3&#45;&gt;Node4 -->
<g id="edge3" class="edge">
<title>Node3&#45;&gt;Node4</title>
<path fill="none" stroke="#191970" d="M901.8792,-170.7672C865.9763,-157.3036 818.3848,-139.4568 781.2449,-125.5293"/>
<polygon fill="#191970" stroke="#191970" points="901.085,-174.2073 911.6773,-174.4415 903.5429,-167.653 901.085,-174.2073"/>
</g>
<!-- Node13 -->
<g id="node13" class="node">
<title>Node13</title>
<g id="a_node13"><a xlink:href="../../db/d49/G4__DSTReader__ModularDetector_8C.html" target="_top" xlink:title="fun4all_eicmacros/blob\l/master/common/G4_DSTReader\l_ModularDetector.C">
<polygon fill="none" stroke="#000000" points="1095,-81.5 1095,-125.5 1278,-125.5 1278,-81.5 1095,-81.5"/>
<text text-anchor="start" x="1103" y="-112.5" font-family="FreeSans" font-size="10.00" fill="#000000">fun4all_eicmacros/blob</text>
<text text-anchor="start" x="1103" y="-100.5" font-family="FreeSans" font-size="10.00" fill="#000000">/master/common/G4_DSTReader</text>
<text text-anchor="middle" x="1186.5" y="-88.5" font-family="FreeSans" font-size="10.00" fill="#000000">_ModularDetector.C</text>
</a>
</g>
</g>
<!-- Node3&#45;&gt;Node13 -->
<g id="edge12" class="edge">
<title>Node3&#45;&gt;Node13</title>
<path fill="none" stroke="#191970" d="M1007.1208,-170.7672C1043.0237,-157.3036 1090.6152,-139.4568 1127.7551,-125.5293"/>
<polygon fill="#191970" stroke="#191970" points="1005.4571,-167.653 997.3227,-174.4415 1007.915,-174.2073 1005.4571,-167.653"/>
</g>
<!-- Node5 -->
<g id="node5" class="node">
<title>Node5</title>
<g id="a_node5"><a xlink:href="../../d4/dd7/fun4all__eicmacros_2blob_2master_2detectors_2EICDetector_2Fun4All__G4__EICDetector_8C.html" target="_top" xlink:title="fun4all_eicmacros/blob\l/master/detectors/EICDetector\l/Fun4All_G4_EICDetector.C">
<polygon fill="none" stroke="#000000" points="0,-.5 0,-44.5 171,-44.5 171,-.5 0,-.5"/>
<text text-anchor="start" x="8" y="-31.5" font-family="FreeSans" font-size="10.00" fill="#000000">fun4all_eicmacros/blob</text>
<text text-anchor="start" x="8" y="-19.5" font-family="FreeSans" font-size="10.00" fill="#000000">/master/detectors/EICDetector</text>
<text text-anchor="middle" x="85.5" y="-7.5" font-family="FreeSans" font-size="10.00" fill="#000000">/Fun4All_G4_EICDetector.C</text>
</a>
</g>
</g>
<!-- Node4&#45;&gt;Node5 -->
<g id="edge4" class="edge">
<title>Node4&#45;&gt;Node5</title>
<path fill="none" stroke="#191970" d="M620.6813,-96.431C511.1623,-87.9201 332.1658,-71.3839 179.5,-45 176.7717,-44.5285 174.0045,-44.0243 171.215,-43.4936"/>
<polygon fill="#191970" stroke="#191970" points="620.4932,-99.9268 630.7323,-97.2046 621.0305,-92.9474 620.4932,-99.9268"/>
</g>
<!-- Node6 -->
<g id="node6" class="node">
<title>Node6</title>
<g id="a_node6"><a xlink:href="../../db/d7c/Fun4All__G4__CEMC_8C.html" target="_top" xlink:title="fun4all_eic_qa/blob\l/master/macros/Fun4All\l_G4_CEMC.C">
<polygon fill="none" stroke="#000000" points="189,-.5 189,-44.5 326,-44.5 326,-.5 189,-.5"/>
<text text-anchor="start" x="197" y="-31.5" font-family="FreeSans" font-size="10.00" fill="#000000">fun4all_eic_qa/blob</text>
<text text-anchor="start" x="197" y="-19.5" font-family="FreeSans" font-size="10.00" fill="#000000">/master/macros/Fun4All</text>
<text text-anchor="middle" x="257.5" y="-7.5" font-family="FreeSans" font-size="10.00" fill="#000000">_G4_CEMC.C</text>
</a>
</g>
</g>
<!-- Node4&#45;&gt;Node6 -->
<g id="edge5" class="edge">
<title>Node4&#45;&gt;Node6</title>
<path fill="none" stroke="#191970" d="M620.5304,-91.9365C541.8751,-82.1001 430.6368,-66.1923 334.5,-45 331.7799,-44.4004 329.0148,-43.7571 326.2284,-43.0807"/>
<polygon fill="#191970" stroke="#191970" points="620.5689,-95.4679 630.9235,-93.2246 621.4299,-88.5211 620.5689,-95.4679"/>
</g>
<!-- Node7 -->
<g id="node7" class="node">
<title>Node7</title>
<g id="a_node7"><a xlink:href="../../d6/d79/fun4all__eic__qa_2blob_2master_2macros_2Fun4All__G4__EICDetector_8C.html" target="_top" xlink:title="fun4all_eic_qa/blob\l/master/macros/Fun4All\l_G4_EICDetector.C">
<polygon fill="none" stroke="#000000" points="344,-.5 344,-44.5 481,-44.5 481,-.5 344,-.5"/>
<text text-anchor="start" x="352" y="-31.5" font-family="FreeSans" font-size="10.00" fill="#000000">fun4all_eic_qa/blob</text>
<text text-anchor="start" x="352" y="-19.5" font-family="FreeSans" font-size="10.00" fill="#000000">/master/macros/Fun4All</text>
<text text-anchor="middle" x="412.5" y="-7.5" font-family="FreeSans" font-size="10.00" fill="#000000">_G4_EICDetector.C</text>
</a>
</g>
</g>
<!-- Node4&#45;&gt;Node7 -->
<g id="edge6" class="edge">
<title>Node4&#45;&gt;Node7</title>
<path fill="none" stroke="#191970" d="M621.5384,-79.0462C580.4793,-68.8686 532.631,-56.7115 489.5,-45 486.8119,-44.2701 484.0739,-43.5169 481.3101,-42.7485"/>
<polygon fill="#191970" stroke="#191970" points="620.7287,-82.4513 631.2766,-81.4546 622.4093,-75.6561 620.7287,-82.4513"/>
</g>
<!-- Node8 -->
<g id="node8" class="node">
<title>Node8</title>
<g id="a_node8"><a xlink:href="../../d4/d3e/Fun4All__G4__FEMC_8C.html" target="_top" xlink:title="fun4all_eic_qa/blob\l/master/macros/Fun4All\l_G4_FEMC.C">
<polygon fill="none" stroke="#000000" points="499,-.5 499,-44.5 636,-44.5 636,-.5 499,-.5"/>
<text text-anchor="start" x="507" y="-31.5" font-family="FreeSans" font-size="10.00" fill="#000000">fun4all_eic_qa/blob</text>
<text text-anchor="start" x="507" y="-19.5" font-family="FreeSans" font-size="10.00" fill="#000000">/master/macros/Fun4All</text>
<text text-anchor="middle" x="567.5" y="-7.5" font-family="FreeSans" font-size="10.00" fill="#000000">_G4_FEMC.C</text>
</a>
</g>
</g>
<!-- Node4&#45;&gt;Node8 -->
<g id="edge7" class="edge">
<title>Node4&#45;&gt;Node8</title>
<path fill="none" stroke="#191970" d="M671.203,-76.6932C651.2907,-66.2874 628.7628,-54.5148 609.8032,-44.6068"/>
<polygon fill="#191970" stroke="#191970" points="669.6617,-79.8368 680.1456,-81.3664 672.9038,-73.6328 669.6617,-79.8368"/>
</g>
<!-- Node9 -->
<g id="node9" class="node">
<title>Node9</title>
<g id="a_node9"><a xlink:href="../../d8/ddf/Fun4All__G4__FHCAL_8C.html" target="_top" xlink:title="fun4all_eic_qa/blob\l/master/macros/Fun4All\l_G4_FHCAL.C">
<polygon fill="none" stroke="#000000" points="654,-.5 654,-44.5 791,-44.5 791,-.5 654,-.5"/>
<text text-anchor="start" x="662" y="-31.5" font-family="FreeSans" font-size="10.00" fill="#000000">fun4all_eic_qa/blob</text>
<text text-anchor="start" x="662" y="-19.5" font-family="FreeSans" font-size="10.00" fill="#000000">/master/macros/Fun4All</text>
<text text-anchor="middle" x="722.5" y="-7.5" font-family="FreeSans" font-size="10.00" fill="#000000">_G4_FHCAL.C</text>
</a>
</g>
</g>
<!-- Node4&#45;&gt;Node9 -->
<g id="edge8" class="edge">
<title>Node4&#45;&gt;Node9</title>
<path fill="none" stroke="#191970" d="M722.5,-71.2457C722.5,-62.3118 722.5,-52.8188 722.5,-44.6068"/>
<polygon fill="#191970" stroke="#191970" points="719.0001,-71.3664 722.5,-81.3664 726.0001,-71.3664 719.0001,-71.3664"/>
</g>
<!-- Node10 -->
<g id="node10" class="node">
<title>Node10</title>
<g id="a_node10"><a xlink:href="../../da/d70/Fun4All__G4__HCALIN_8C.html" target="_top" xlink:title="fun4all_eic_qa/blob\l/master/macros/Fun4All\l_G4_HCALIN.C">
<polygon fill="none" stroke="#000000" points="809,-.5 809,-44.5 946,-44.5 946,-.5 809,-.5"/>
<text text-anchor="start" x="817" y="-31.5" font-family="FreeSans" font-size="10.00" fill="#000000">fun4all_eic_qa/blob</text>
<text text-anchor="start" x="817" y="-19.5" font-family="FreeSans" font-size="10.00" fill="#000000">/master/macros/Fun4All</text>
<text text-anchor="middle" x="877.5" y="-7.5" font-family="FreeSans" font-size="10.00" fill="#000000">_G4_HCALIN.C</text>
</a>
</g>
</g>
<!-- Node4&#45;&gt;Node10 -->
<g id="edge9" class="edge">
<title>Node4&#45;&gt;Node10</title>
<path fill="none" stroke="#191970" d="M773.797,-76.6932C793.7093,-66.2874 816.2372,-54.5148 835.1968,-44.6068"/>
<polygon fill="#191970" stroke="#191970" points="772.0962,-73.6328 764.8544,-81.3664 775.3383,-79.8368 772.0962,-73.6328"/>
</g>
<!-- Node11 -->
<g id="node11" class="node">
<title>Node11</title>
<g id="a_node11"><a xlink:href="../../d5/d4e/Fun4All__G4__HCALOUT_8C.html" target="_top" xlink:title="fun4all_eic_qa/blob\l/master/macros/Fun4All\l_G4_HCALOUT.C">
<polygon fill="none" stroke="#000000" points="964,-.5 964,-44.5 1101,-44.5 1101,-.5 964,-.5"/>
<text text-anchor="start" x="972" y="-31.5" font-family="FreeSans" font-size="10.00" fill="#000000">fun4all_eic_qa/blob</text>
<text text-anchor="start" x="972" y="-19.5" font-family="FreeSans" font-size="10.00" fill="#000000">/master/macros/Fun4All</text>
<text text-anchor="middle" x="1032.5" y="-7.5" font-family="FreeSans" font-size="10.00" fill="#000000">_G4_HCALOUT.C</text>
</a>
</g>
</g>
<!-- Node4&#45;&gt;Node11 -->
<g id="edge10" class="edge">
<title>Node4&#45;&gt;Node11</title>
<path fill="none" stroke="#191970" d="M822.4733,-79.0771C863.4701,-68.8577 911.3433,-56.662 954.5,-45 957.4933,-44.1911 960.5481,-43.3551 963.6319,-42.5026"/>
<polygon fill="#191970" stroke="#191970" points="821.6111,-75.6849 812.7519,-81.4956 823.3011,-82.4778 821.6111,-75.6849"/>
</g>
<!-- Node12 -->
<g id="node12" class="node">
<title>Node12</title>
<g id="a_node12"><a xlink:href="../../df/dd8/Fun4All__G4__EICDetector__AnaTutorial_8C.html" target="_top" xlink:title="fun4all_tutorials/blob\l/master/AnaTutorial/macro\l/Fun4All_G4_EICDetector_AnaTutorial.C">
<polygon fill="none" stroke="#000000" points="1119,-.5 1119,-44.5 1334,-44.5 1334,-.5 1119,-.5"/>
<text text-anchor="start" x="1127" y="-31.5" font-family="FreeSans" font-size="10.00" fill="#000000">fun4all_tutorials/blob</text>
<text text-anchor="start" x="1127" y="-19.5" font-family="FreeSans" font-size="10.00" fill="#000000">/master/AnaTutorial/macro</text>
<text text-anchor="middle" x="1226.5" y="-7.5" font-family="FreeSans" font-size="10.00" fill="#000000">/Fun4All_G4_EICDetector_AnaTutorial.C</text>
</a>
</g>
</g>
<!-- Node4&#45;&gt;Node12 -->
<g id="edge11" class="edge">
<title>Node4&#45;&gt;Node12</title>
<path fill="none" stroke="#191970" d="M824.3592,-89.3333C902.7275,-78.1457 1013.6451,-61.6873 1110.5,-45 1113.2292,-44.5298 1115.9932,-44.0466 1118.7806,-43.5531"/>
<polygon fill="#191970" stroke="#191970" points="823.4112,-85.9329 814.0046,-90.8079 824.3982,-92.863 823.4112,-85.9329"/>
</g>
<!-- Node14 -->
<g id="node14" class="node">
<title>Node14</title>
<g id="a_node14"><a xlink:href="../../d5/d97/Fun4All__G4__FullDetectorModular_8C.html" target="_top" xlink:title="fun4all_eicmacros/blob\l/master/detectors/Modular\l/Fun4All_G4_FullDetectorModular.C">
<polygon fill="none" stroke="#000000" points="1352.5,-.5 1352.5,-44.5 1546.5,-44.5 1546.5,-.5 1352.5,-.5"/>
<text text-anchor="start" x="1360.5" y="-31.5" font-family="FreeSans" font-size="10.00" fill="#000000">fun4all_eicmacros/blob</text>
<text text-anchor="start" x="1360.5" y="-19.5" font-family="FreeSans" font-size="10.00" fill="#000000">/master/detectors/Modular</text>
<text text-anchor="middle" x="1449.5" y="-7.5" font-family="FreeSans" font-size="10.00" fill="#000000">/Fun4All_G4_FullDetectorModular.C</text>
</a>
</g>
</g>
<!-- Node13&#45;&gt;Node14 -->
<g id="edge13" class="edge">
<title>Node13&#45;&gt;Node14</title>
<path fill="none" stroke="#191970" d="M1267.7971,-78.4617C1303.0357,-67.6088 1343.9337,-55.0128 1377.9957,-44.5222"/>
<polygon fill="#191970" stroke="#191970" points="1266.5453,-75.185 1258.0185,-81.4734 1268.6057,-81.8749 1266.5453,-75.185"/>
</g>
</g>
</svg>
