<?xml version="1.0" encoding="UTF-8" standalone="no"?>
<!DOCTYPE svg PUBLIC "-//W3C//DTD SVG 1.1//EN"
 "http://www.w3.org/Graphics/SVG/1.1/DTD/svg11.dtd">
<!-- Generated by graphviz version 2.40.1 (20161225.0304)
 -->
<!-- Title: FW::RootMaterialTrackWriter::writeT Pages: 1 -->
<svg width="749pt" height="584pt"
 viewBox="0.00 0.00 749.00 584.00" xmlns="http://www.w3.org/2000/svg" xmlns:xlink="http://www.w3.org/1999/xlink">
<g id="graph0" class="graph" transform="scale(1 1) rotate(0) translate(4 580)">
<title>FW::RootMaterialTrackWriter::writeT</title>
<!-- Node1 -->
<g id="node1" class="node">
<title>Node1</title>
<polygon fill="#bfbfbf" stroke="#000000" points="0,-250.5 0,-282.5 160,-282.5 160,-250.5 0,-250.5"/>
<text text-anchor="start" x="8" y="-269.5" font-family="FreeSans" font-size="10.00" fill="#000000">FW::RootMaterialTrackWriter</text>
<text text-anchor="middle" x="80" y="-257.5" font-family="FreeSans" font-size="10.00" fill="#000000">::writeT</text>
</g>
<!-- Node2 -->
<g id="node2" class="node">
<title>Node2</title>
<g id="a_node2"><a xlink:href="../../de/d7d/classActs_1_1Surface.html#a6926cf349535014a09529e416ef4a004" target="_top" xlink:title="Acts::Surface::bounds">
<polygon fill="none" stroke="#000000" points="220.5,-555.5 220.5,-575.5 348.5,-575.5 348.5,-555.5 220.5,-555.5"/>
<text text-anchor="middle" x="284.5" y="-562.5" font-family="FreeSans" font-size="10.00" fill="#000000">Acts::Surface::bounds</text>
</a>
</g>
</g>
<!-- Node1&#45;&gt;Node2 -->
<g id="edge1" class="edge">
<title>Node1&#45;&gt;Node2</title>
<path fill="none" stroke="#191970" d="M81.5867,-282.8249C87.2125,-331.2978 110.711,-475.423 196,-546.5 200.3762,-550.1469 205.2875,-553.142 210.4947,-555.5967"/>
<polygon fill="#191970" stroke="#191970" points="209.5509,-558.9889 220.1355,-559.4557 212.1522,-552.4902 209.5509,-558.9889"/>
</g>
<!-- Node3 -->
<g id="node3" class="node">
<title>Node3</title>
<g id="a_node3"><a xlink:href="../../df/da1/namespaceActs_1_1VectorHelpers.html#afc1703c2fa7adfd6517e5e16df2e5df4" target="_top" xlink:title="Acts::VectorHelpers::eta">
<polygon fill="none" stroke="#000000" points="215,-516.5 215,-536.5 354,-536.5 354,-516.5 215,-516.5"/>
<text text-anchor="middle" x="284.5" y="-523.5" font-family="FreeSans" font-size="10.00" fill="#000000">Acts::VectorHelpers::eta</text>
</a>
</g>
</g>
<!-- Node1&#45;&gt;Node3 -->
<g id="edge2" class="edge">
<title>Node1&#45;&gt;Node3</title>
<path fill="none" stroke="#191970" d="M82.7606,-282.7557C91.102,-326.5857 120.2884,-447.9058 196,-507.5 198.952,-509.8236 202.1245,-511.8789 205.4504,-513.6958"/>
<polygon fill="#191970" stroke="#191970" points="204.0268,-516.8939 214.567,-517.9687 206.9977,-510.5555 204.0268,-516.8939"/>
</g>
<!-- Node4 -->
<g id="node4" class="node">
<title>Node4</title>
<g id="a_node4"><a xlink:href="../../d3/d07/classActs_1_1GeometryObject.html#a522d50b743aeae1663808425a72777f2" target="_top" xlink:title="Acts::GeometryObject\l::geoID">
<polygon fill="none" stroke="#000000" points="220,-465.5 220,-497.5 349,-497.5 349,-465.5 220,-465.5"/>
<text text-anchor="start" x="228" y="-484.5" font-family="FreeSans" font-size="10.00" fill="#000000">Acts::GeometryObject</text>
<text text-anchor="middle" x="284.5" y="-472.5" font-family="FreeSans" font-size="10.00" fill="#000000">::geoID</text>
</a>
</g>
</g>
<!-- Node1&#45;&gt;Node4 -->
<g id="edge3" class="edge">
<title>Node1&#45;&gt;Node4</title>
<path fill="none" stroke="#191970" d="M85.1923,-282.5403C97.8966,-319.1968 134.1111,-409.5501 196,-456.5 200.452,-459.8773 205.3408,-462.7985 210.4639,-465.325"/>
<polygon fill="#191970" stroke="#191970" points="209.3309,-468.6498 219.8947,-469.46 212.1418,-462.239 209.3309,-468.6498"/>
</g>
<!-- Node5 -->
<g id="node5" class="node">
<title>Node5</title>
<g id="a_node5"><a xlink:href="../../da/d0a/classActs_1_1CylinderBounds.html#a87f7f0a9088eb074ac6c1e63862db251" target="_top" xlink:title="Acts::CylinderBounds::get">
<polygon fill="none" stroke="#000000" points="210,-426.5 210,-446.5 359,-446.5 359,-426.5 210,-426.5"/>
<text text-anchor="middle" x="284.5" y="-433.5" font-family="FreeSans" font-size="10.00" fill="#000000">Acts::CylinderBounds::get</text>
</a>
</g>
</g>
<!-- Node1&#45;&gt;Node5 -->
<g id="edge4" class="edge">
<title>Node1&#45;&gt;Node5</title>
<path fill="none" stroke="#191970" d="M87.5767,-282.7517C103.1242,-314.1881 141.7871,-383.238 196,-417.5 198.9453,-419.3614 202.0443,-421.0429 205.2483,-422.5617"/>
<polygon fill="#191970" stroke="#191970" points="203.9383,-425.8075 214.5151,-426.4255 206.6322,-419.3466 203.9383,-425.8075"/>
</g>
<!-- Node6 -->
<g id="node6" class="node">
<title>Node6</title>
<g id="a_node6"><a xlink:href="../../de/d7d/classActs_1_1Surface.html#ab08925829144d0fe20a5aa1f913a5d28" target="_top" xlink:title="Acts::Surface::intersection\lEstimate">
<polygon fill="none" stroke="#000000" points="209.5,-375.5 209.5,-407.5 359.5,-407.5 359.5,-375.5 209.5,-375.5"/>
<text text-anchor="start" x="217.5" y="-394.5" font-family="FreeSans" font-size="10.00" fill="#000000">Acts::Surface::intersection</text>
<text text-anchor="middle" x="284.5" y="-382.5" font-family="FreeSans" font-size="10.00" fill="#000000">Estimate</text>
</a>
</g>
</g>
<!-- Node1&#45;&gt;Node6 -->
<g id="edge5" class="edge">
<title>Node1&#45;&gt;Node6</title>
<path fill="none" stroke="#191970" d="M94.4804,-282.8237C114.9647,-304.939 154.5502,-344.2106 196,-366.5 199.4605,-368.3609 203.0735,-370.095 206.7777,-371.7095"/>
<polygon fill="#191970" stroke="#191970" points="205.5549,-374.9902 216.1383,-375.4806 208.1707,-368.4973 205.5549,-374.9902"/>
</g>
<!-- Node7 -->
<g id="node7" class="node">
<title>Node7</title>
<g id="a_node7"><a xlink:href="../../d0/d1a/classActs_1_1RadialBounds.html#a34629dabdae55cab45d3c250b3f4c80a" target="_top" xlink:title="Return method for outer Radius.">
<polygon fill="none" stroke="#000000" points="227,-324.5 227,-356.5 342,-356.5 342,-324.5 227,-324.5"/>
<text text-anchor="start" x="235" y="-343.5" font-family="FreeSans" font-size="10.00" fill="#000000">Acts::RadialBounds</text>
<text text-anchor="middle" x="284.5" y="-331.5" font-family="FreeSans" font-size="10.00" fill="#000000">::rMax</text>
</a>
</g>
</g>
<!-- Node1&#45;&gt;Node7 -->
<g id="edge6" class="edge">
<title>Node1&#45;&gt;Node7</title>
<path fill="none" stroke="#191970" d="M114.8365,-282.5559C137.6434,-292.7322 168.2545,-305.7635 196,-315.5 202.7322,-317.8625 209.8108,-320.162 216.9097,-322.3484"/>
<polygon fill="#191970" stroke="#191970" points="215.9876,-325.7259 226.572,-325.2553 218.0043,-319.0227 215.9876,-325.7259"/>
</g>
<!-- Node8 -->
<g id="node8" class="node">
<title>Node8</title>
<g id="a_node8"><a xlink:href="../../d0/d1a/classActs_1_1RadialBounds.html#aa534575d823907e4b909c6109d6b65fd" target="_top" xlink:title="Return method for inner Radius.">
<polygon fill="none" stroke="#000000" points="227,-273.5 227,-305.5 342,-305.5 342,-273.5 227,-273.5"/>
<text text-anchor="start" x="235" y="-292.5" font-family="FreeSans" font-size="10.00" fill="#000000">Acts::RadialBounds</text>
<text text-anchor="middle" x="284.5" y="-280.5" font-family="FreeSans" font-size="10.00" fill="#000000">::rMin</text>
</a>
</g>
</g>
<!-- Node1&#45;&gt;Node8 -->
<g id="edge7" class="edge">
<title>Node1&#45;&gt;Node8</title>
<path fill="none" stroke="#191970" d="M160.2369,-275.5242C178.9383,-277.6275 198.6711,-279.8469 216.7692,-281.8824"/>
<polygon fill="#191970" stroke="#191970" points="216.5977,-285.385 226.9262,-283.0247 217.3801,-278.4289 216.5977,-285.385"/>
</g>
<!-- Node9 -->
<g id="node9" class="node">
<title>Node9</title>
<g id="a_node9"><a xlink:href="../../d7/df5/classActs_1_1GeometryID.html#a66293632da863133b974fac013ca37db" target="_top" xlink:title="Set the approach identifier.">
<polygon fill="none" stroke="#000000" points="196.5,-234.5 196.5,-254.5 372.5,-254.5 372.5,-234.5 196.5,-234.5"/>
<text text-anchor="middle" x="284.5" y="-241.5" font-family="FreeSans" font-size="10.00" fill="#000000">Acts::GeometryID::setApproach</text>
</a>
</g>
</g>
<!-- Node1&#45;&gt;Node9 -->
<g id="edge8" class="edge">
<title>Node1&#45;&gt;Node9</title>
<path fill="none" stroke="#191970" d="M160.2369,-257.8682C168.7621,-256.951 177.5017,-256.0108 186.203,-255.0747"/>
<polygon fill="#191970" stroke="#191970" points="186.8167,-258.529 196.3849,-253.9794 186.0679,-251.5692 186.8167,-258.529"/>
</g>
<!-- Node12 -->
<g id="node12" class="node">
<title>Node12</title>
<g id="a_node12"><a xlink:href="../../d7/df5/classActs_1_1GeometryID.html#a9589c6ee3194a72543cdeaf888ad97be" target="_top" xlink:title="Set the boundary identifier.">
<polygon fill="none" stroke="#000000" points="196,-195.5 196,-215.5 373,-215.5 373,-195.5 196,-195.5"/>
<text text-anchor="middle" x="284.5" y="-202.5" font-family="FreeSans" font-size="10.00" fill="#000000">Acts::GeometryID::setBoundary</text>
</a>
</g>
</g>
<!-- Node1&#45;&gt;Node12 -->
<g id="edge11" class="edge">
<title>Node1&#45;&gt;Node12</title>
<path fill="none" stroke="#191970" d="M121.4958,-250.4996C143.4445,-242.3769 170.9631,-232.7266 196,-225.5 205.4211,-222.7807 215.4933,-220.2014 225.3429,-217.8546"/>
<polygon fill="#191970" stroke="#191970" points="226.1388,-221.263 235.0861,-215.5888 224.5532,-214.445 226.1388,-221.263"/>
</g>
<!-- Node13 -->
<g id="node13" class="node">
<title>Node13</title>
<g id="a_node13"><a xlink:href="../../d7/df5/classActs_1_1GeometryID.html#ac27abfcaf9479ccd3365c87c3531cfa4" target="_top" xlink:title="Set the layer identifier.">
<polygon fill="none" stroke="#000000" points="206,-156.5 206,-176.5 363,-176.5 363,-156.5 206,-156.5"/>
<text text-anchor="middle" x="284.5" y="-163.5" font-family="FreeSans" font-size="10.00" fill="#000000">Acts::GeometryID::setLayer</text>
</a>
</g>
</g>
<!-- Node1&#45;&gt;Node13 -->
<g id="edge13" class="edge">
<title>Node1&#45;&gt;Node13</title>
<path fill="none" stroke="#191970" d="M98.3532,-250.4872C120.1631,-232.2938 158.3565,-202.9956 196,-186.5 202.2039,-183.7814 208.8205,-181.4119 215.5363,-179.3507"/>
<polygon fill="#191970" stroke="#191970" points="216.7464,-182.6456 225.4099,-176.547 214.8342,-175.9118 216.7464,-182.6456"/>
</g>
<!-- Node14 -->
<g id="node14" class="node">
<title>Node14</title>
<g id="a_node14"><a xlink:href="../../d7/df5/classActs_1_1GeometryID.html#ad772b19c6d545948b509cd5f2ccdd871" target="_top" xlink:title="Set the sensitive identifier.">
<polygon fill="none" stroke="#000000" points="197.5,-117.5 197.5,-137.5 371.5,-137.5 371.5,-117.5 197.5,-117.5"/>
<text text-anchor="middle" x="284.5" y="-124.5" font-family="FreeSans" font-size="10.00" fill="#000000">Acts::GeometryID::setSensitive</text>
</a>
</g>
</g>
<!-- Node1&#45;&gt;Node14 -->
<g id="edge15" class="edge">
<title>Node1&#45;&gt;Node14</title>
<path fill="none" stroke="#191970" d="M91.0706,-250.132C109.5853,-224.1042 149.4228,-173.5662 196,-147.5 200.4395,-145.0155 205.1674,-142.8396 210.0403,-140.9339"/>
<polygon fill="#191970" stroke="#191970" points="211.2776,-144.209 219.5522,-137.5922 208.9574,-137.6047 211.2776,-144.209"/>
</g>
<!-- Node15 -->
<g id="node15" class="node">
<title>Node15</title>
<g id="a_node15"><a xlink:href="../../d7/df5/classActs_1_1GeometryID.html#af398c76772a835a6392d8316cc3521db" target="_top" xlink:title="Set the volume identifier.">
<polygon fill="none" stroke="#000000" points="201.5,-78.5 201.5,-98.5 367.5,-98.5 367.5,-78.5 201.5,-78.5"/>
<text text-anchor="middle" x="284.5" y="-85.5" font-family="FreeSans" font-size="10.00" fill="#000000">Acts::GeometryID::setVolume</text>
</a>
</g>
</g>
<!-- Node1&#45;&gt;Node15 -->
<g id="edge17" class="edge">
<title>Node1&#45;&gt;Node15</title>
<path fill="none" stroke="#191970" d="M87.0492,-250.3052C102.0449,-217.874 140.3475,-144.952 196,-108.5 199.3869,-106.2816 202.9859,-104.307 206.7201,-102.5497"/>
<polygon fill="#191970" stroke="#191970" points="208.334,-105.6699 216.2375,-98.6139 205.6589,-99.2012 208.334,-105.6699"/>
</g>
<!-- Node16 -->
<g id="node16" class="node">
<title>Node16</title>
<g id="a_node16"><a xlink:href="../../de/d7d/classActs_1_1Surface.html#a0bc615a9e492d2b1771368b7bf297921" target="_top" xlink:title="Return method for the Surface type to avoid dynamic casts.">
<polygon fill="none" stroke="#000000" points="228,-39.5 228,-59.5 341,-59.5 341,-39.5 228,-39.5"/>
<text text-anchor="middle" x="284.5" y="-46.5" font-family="FreeSans" font-size="10.00" fill="#000000">Acts::Surface::type</text>
</a>
</g>
</g>
<!-- Node1&#45;&gt;Node16 -->
<g id="edge19" class="edge">
<title>Node1&#45;&gt;Node16</title>
<path fill="none" stroke="#191970" d="M84.5748,-250.4924C96.2826,-212.5673 131.0777,-116.8798 196,-69.5 202.6035,-64.6808 210.1669,-60.9936 218.0295,-58.1775"/>
<polygon fill="#191970" stroke="#191970" points="219.2179,-61.4732 227.7241,-55.1569 217.1356,-54.7901 219.2179,-61.4732"/>
</g>
<!-- Node17 -->
<g id="node17" class="node">
<title>Node17</title>
<g id="a_node17"><a xlink:href="../../d7/df5/classActs_1_1GeometryID.html#a9f3ba40da06640faf6a5a960cc6d189f" target="_top" xlink:title="Return the encoded value.">
<polygon fill="none" stroke="#000000" points="214,-.5 214,-20.5 355,-20.5 355,-.5 214,-.5"/>
<text text-anchor="middle" x="284.5" y="-7.5" font-family="FreeSans" font-size="10.00" fill="#000000">Acts::GeometryID::value</text>
</a>
</g>
</g>
<!-- Node1&#45;&gt;Node17 -->
<g id="edge20" class="edge">
<title>Node1&#45;&gt;Node17</title>
<path fill="none" stroke="#191970" d="M82.9689,-250.306C91.7573,-207.2142 121.8145,-89.0451 196,-30.5 198.6585,-28.402 201.4948,-26.5152 204.4601,-24.8192"/>
<polygon fill="#191970" stroke="#191970" points="206.2627,-27.8332 213.6946,-20.2822 203.1759,-21.5505 206.2627,-27.8332"/>
</g>
<!-- Node10 -->
<g id="node10" class="node">
<title>Node10</title>
<g id="a_node10"><a xlink:href="../../d7/df5/classActs_1_1GeometryID.html#a58a26ff78512631792caf827f7e842ef" target="_top" xlink:title="Set the masked bits to id in the encoded value.">
<polygon fill="none" stroke="#000000" points="409,-156.5 409,-176.5 556,-176.5 556,-156.5 409,-156.5"/>
<text text-anchor="middle" x="482.5" y="-163.5" font-family="FreeSans" font-size="10.00" fill="#000000">Acts::GeometryID::setBits</text>
</a>
</g>
</g>
<!-- Node9&#45;&gt;Node10 -->
<g id="edge9" class="edge">
<title>Node9&#45;&gt;Node10</title>
<path fill="none" stroke="#191970" d="M342.7739,-234.4474C352.9915,-231.9921 363.4147,-229.0298 373,-225.5 404.0292,-214.0733 437.1151,-195.2074 458.6957,-181.8899"/>
<polygon fill="#191970" stroke="#191970" points="460.5857,-184.8361 467.2006,-176.56 456.8685,-178.9046 460.5857,-184.8361"/>
</g>
<!-- Node11 -->
<g id="node11" class="node">
<title>Node11</title>
<g id="a_node11"><a xlink:href="../../d7/df5/classActs_1_1GeometryID.html#acd6ca6e930d0adfefd72283464038a11" target="_top" xlink:title="Extract the bit shift necessary to access the masked values.">
<polygon fill="none" stroke="#000000" points="592,-150.5 592,-182.5 741,-182.5 741,-150.5 592,-150.5"/>
<text text-anchor="start" x="600" y="-169.5" font-family="FreeSans" font-size="10.00" fill="#000000">Acts::GeometryID::extract</text>
<text text-anchor="middle" x="666.5" y="-157.5" font-family="FreeSans" font-size="10.00" fill="#000000">Shift</text>
</a>
</g>
</g>
<!-- Node10&#45;&gt;Node11 -->
<g id="edge10" class="edge">
<title>Node10&#45;&gt;Node11</title>
<path fill="none" stroke="#191970" d="M556.0149,-166.5C564.5047,-166.5 573.2134,-166.5 581.8357,-166.5"/>
<polygon fill="#191970" stroke="#191970" points="581.8995,-170.0001 591.8995,-166.5 581.8995,-163.0001 581.8995,-170.0001"/>
</g>
<!-- Node12&#45;&gt;Node10 -->
<g id="edge12" class="edge">
<title>Node12&#45;&gt;Node10</title>
<path fill="none" stroke="#191970" d="M335.4899,-195.4565C361.8187,-190.2706 394.1251,-183.9072 421.7407,-178.4677"/>
<polygon fill="#191970" stroke="#191970" points="422.5478,-181.8761 431.6829,-176.5094 421.195,-175.0081 422.5478,-181.8761"/>
</g>
<!-- Node13&#45;&gt;Node10 -->
<g id="edge14" class="edge">
<title>Node13&#45;&gt;Node10</title>
<path fill="none" stroke="#191970" d="M363.0392,-166.5C374.7303,-166.5 386.8194,-166.5 398.6154,-166.5"/>
<polygon fill="#191970" stroke="#191970" points="398.8887,-170.0001 408.8886,-166.5 398.8886,-163.0001 398.8887,-170.0001"/>
</g>
<!-- Node14&#45;&gt;Node10 -->
<g id="edge16" class="edge">
<title>Node14&#45;&gt;Node10</title>
<path fill="none" stroke="#191970" d="M335.4899,-137.5435C361.8187,-142.7294 394.1251,-149.0928 421.7407,-154.5323"/>
<polygon fill="#191970" stroke="#191970" points="421.195,-157.9919 431.6829,-156.4906 422.5478,-151.1239 421.195,-157.9919"/>
</g>
<!-- Node15&#45;&gt;Node10 -->
<g id="edge18" class="edge">
<title>Node15&#45;&gt;Node10</title>
<path fill="none" stroke="#191970" d="M339.4533,-98.5394C350.7109,-101.2559 362.3645,-104.5612 373,-108.5 403.7142,-119.8748 436.6254,-138.2344 458.2568,-151.2474"/>
<polygon fill="#191970" stroke="#191970" points="456.4385,-154.238 466.7975,-156.4612 460.0858,-148.2633 456.4385,-154.238"/>
</g>
</g>
</svg>
