<?xml version="1.0" encoding="UTF-8" standalone="no"?>
<!DOCTYPE svg PUBLIC "-//W3C//DTD SVG 1.1//EN"
 "http://www.w3.org/Graphics/SVG/1.1/DTD/svg11.dtd">
<!-- Generated by graphviz version 2.40.1 (20161225.0304)
 -->
<!-- Title: FairParamList::fillObject Pages: 1 -->
<svg width="356pt" height="224pt"
 viewBox="0.00 0.00 356.00 224.00" xmlns="http://www.w3.org/2000/svg" xmlns:xlink="http://www.w3.org/1999/xlink">
<g id="graph0" class="graph" transform="scale(1 1) rotate(0) translate(4 220)">
<title>FairParamList::fillObject</title>
<!-- Node1 -->
<g id="node1" class="node">
<title>Node1</title>
<polygon fill="#bfbfbf" stroke="#000000" points="0,-97.5 0,-117.5 136,-117.5 136,-97.5 0,-97.5"/>
<text text-anchor="middle" x="68" y="-104.5" font-family="FreeSans" font-size="10.00" fill="#000000">FairParamList::fillObject</text>
</g>
<!-- Node2 -->
<g id="node2" class="node">
<title>Node2</title>
<g id="a_node2"><a xlink:href="../../d6/da3/classPndGeoPassivePar.html#a88bc16e49ce524a906976ae198a5b74b" target="_top" xlink:title="PndGeoPassivePar::getParams">
<polygon fill="none" stroke="#000000" points="175.5,-195.5 175.5,-215.5 344.5,-215.5 344.5,-195.5 175.5,-195.5"/>
<text text-anchor="middle" x="260" y="-202.5" font-family="FreeSans" font-size="10.00" fill="#000000">PndGeoPassivePar::getParams</text>
</a>
</g>
</g>
<!-- Node1&#45;&gt;Node2 -->
<g id="edge1" class="edge">
<title>Node1&#45;&gt;Node2</title>
<path fill="none" stroke="#191970" d="M85.6857,-124.8791C105.1888,-143.0373 138.2946,-170.9956 172,-186.5 179.8098,-190.0925 188.3257,-193.0183 196.8838,-195.3981"/>
<polygon fill="#191970" stroke="#191970" points="87.8574,-122.1145 78.1979,-117.7619 83.0348,-127.1882 87.8574,-122.1145"/>
</g>
<!-- Node3 -->
<g id="node3" class="node">
<title>Node3</title>
<g id="a_node3"><a xlink:href="../../db/d01/classEicGeoPar.html#a7d924a36f6be4772183aa4e7bbcac984" target="_top" xlink:title="EicGeoPar::getParams">
<polygon fill="none" stroke="#000000" points="196,-156.5 196,-176.5 324,-176.5 324,-156.5 196,-156.5"/>
<text text-anchor="middle" x="260" y="-163.5" font-family="FreeSans" font-size="10.00" fill="#000000">EicGeoPar::getParams</text>
</a>
</g>
</g>
<!-- Node1&#45;&gt;Node3 -->
<g id="edge2" class="edge">
<title>Node1&#45;&gt;Node3</title>
<path fill="none" stroke="#191970" d="M100.5783,-121.523C120.8545,-129.8749 147.6258,-140.2288 172,-147.5 183.2332,-150.851 195.4375,-153.8693 207.0798,-156.4623"/>
<polygon fill="#191970" stroke="#191970" points="101.762,-118.2246 91.1852,-117.6061 99.0678,-124.6854 101.762,-118.2246"/>
</g>
<!-- Node4 -->
<g id="node4" class="node">
<title>Node4</title>
<g id="a_node4"><a xlink:href="../../d1/d18/classPndSensorNamePar.html#a3938b998122499865a99d5d148968214" target="_top" xlink:title="PndSensorNamePar::getParams">
<polygon fill="none" stroke="#000000" points="172,-117.5 172,-137.5 348,-137.5 348,-117.5 172,-117.5"/>
<text text-anchor="middle" x="260" y="-124.5" font-family="FreeSans" font-size="10.00" fill="#000000">PndSensorNamePar::getParams</text>
</a>
</g>
</g>
<!-- Node1&#45;&gt;Node4 -->
<g id="edge3" class="edge">
<title>Node1&#45;&gt;Node4</title>
<path fill="none" stroke="#191970" d="M146.3625,-115.6628C154.7578,-116.5373 163.3395,-117.4312 171.8387,-118.3165"/>
<polygon fill="#191970" stroke="#191970" points="146.5415,-112.1625 136.2326,-114.6076 145.8162,-119.1249 146.5415,-112.1625"/>
</g>
<!-- Node5 -->
<g id="node5" class="node">
<title>Node5</title>
<g id="a_node5"><a xlink:href="../../db/db6/classPndMultiFieldPar.html#a63269bef871e2fbdec6a38fc2f9afdda" target="_top" xlink:title="PndMultiFieldPar::getParams">
<polygon fill="none" stroke="#000000" points="180.5,-78.5 180.5,-98.5 339.5,-98.5 339.5,-78.5 180.5,-78.5"/>
<text text-anchor="middle" x="260" y="-85.5" font-family="FreeSans" font-size="10.00" fill="#000000">PndMultiFieldPar::getParams</text>
</a>
</g>
</g>
<!-- Node1&#45;&gt;Node5 -->
<g id="edge4" class="edge">
<title>Node1&#45;&gt;Node5</title>
<path fill="none" stroke="#191970" d="M146.3651,-99.7451C157.5187,-98.6414 169.0011,-97.5051 180.182,-96.3987"/>
<polygon fill="#191970" stroke="#191970" points="145.8393,-96.28 136.2326,-100.7478 146.5287,-103.2459 145.8393,-96.28"/>
</g>
<!-- Node6 -->
<g id="node6" class="node">
<title>Node6</title>
<g id="a_node6"><a xlink:href="../../d0/da0/classCbmGeoRichPar.html#ae37b55724b6688f97591a3c378b771cb" target="_top" xlink:title="CbmGeoRichPar::getParams">
<polygon fill="none" stroke="#000000" points="181,-39.5 181,-59.5 339,-59.5 339,-39.5 181,-39.5"/>
<text text-anchor="middle" x="260" y="-46.5" font-family="FreeSans" font-size="10.00" fill="#000000">CbmGeoRichPar::getParams</text>
</a>
</g>
</g>
<!-- Node1&#45;&gt;Node6 -->
<g id="edge5" class="edge">
<title>Node1&#45;&gt;Node6</title>
<path fill="none" stroke="#191970" d="M102.278,-93.7306C122.3811,-85.9697 148.3915,-76.4653 172,-69.5 184.4724,-65.8202 198.1076,-62.4242 210.8405,-59.5147"/>
<polygon fill="#191970" stroke="#191970" points="100.9641,-90.4862 92.9202,-97.3817 103.5084,-97.0075 100.9641,-90.4862"/>
</g>
<!-- Node7 -->
<g id="node7" class="node">
<title>Node7</title>
<g id="a_node7"><a xlink:href="../../de/dde/classFairBaseParSet.html#a331f5bfd2ca3d4bd23fcf77ca1b75180" target="_top" xlink:title="FairBaseParSet::getParams">
<polygon fill="none" stroke="#000000" points="184,-.5 184,-20.5 336,-20.5 336,-.5 184,-.5"/>
<text text-anchor="middle" x="260" y="-7.5" font-family="FreeSans" font-size="10.00" fill="#000000">FairBaseParSet::getParams</text>
</a>
</g>
</g>
<!-- Node1&#45;&gt;Node7 -->
<g id="edge6" class="edge">
<title>Node1&#45;&gt;Node7</title>
<path fill="none" stroke="#191970" d="M86.1179,-90.3654C105.7591,-72.7346 138.7716,-45.7552 172,-30.5 180.8279,-26.4471 190.5414,-23.1842 200.1937,-20.5664"/>
<polygon fill="#191970" stroke="#191970" points="83.5693,-87.9533 78.5572,-97.2877 88.2963,-93.1163 83.5693,-87.9533"/>
</g>
</g>
</svg>
