<?xml version="1.0" encoding="UTF-8" standalone="no"?>
<!DOCTYPE svg PUBLIC "-//W3C//DTD SVG 1.1//EN"
 "http://www.w3.org/Graphics/SVG/1.1/DTD/svg11.dtd">
<!-- Generated by graphviz version 2.40.1 (20161225.0304)
 -->
<!-- Title: PndFileNameCreator::GetCombinedRiemannFileName Pages: 1 -->
<svg width="970pt" height="214pt"
 viewBox="0.00 0.00 970.00 214.00" xmlns="http://www.w3.org/2000/svg" xmlns:xlink="http://www.w3.org/1999/xlink">
<g id="graph0" class="graph" transform="scale(1 1) rotate(0) translate(4 210)">
<title>PndFileNameCreator::GetCombinedRiemannFileName</title>
<!-- Node1 -->
<g id="node1" class="node">
<title>Node1</title>
<polygon fill="#bfbfbf" stroke="#000000" points="0,-51.5 0,-83.5 184,-83.5 184,-51.5 0,-51.5"/>
<text text-anchor="start" x="8" y="-70.5" font-family="FreeSans" font-size="10.00" fill="#000000">PndFileNameCreator</text>
<text text-anchor="middle" x="92" y="-58.5" font-family="FreeSans" font-size="10.00" fill="#000000">::GetCombinedRiemannFileName</text>
</g>
<!-- Node2 -->
<g id="node2" class="node">
<title>Node2</title>
<g id="a_node2"><a xlink:href="../../dc/d15/classPndFileNameCreator.html#a3d8d285d85d0032097d1b50e90eab631" target="_top" xlink:title="PndFileNameCreator\l::GetCustomFileName">
<polygon fill="none" stroke="#000000" points="220,-51.5 220,-83.5 346,-83.5 346,-51.5 220,-51.5"/>
<text text-anchor="start" x="228" y="-70.5" font-family="FreeSans" font-size="10.00" fill="#000000">PndFileNameCreator</text>
<text text-anchor="middle" x="283" y="-58.5" font-family="FreeSans" font-size="10.00" fill="#000000">::GetCustomFileName</text>
</a>
</g>
</g>
<!-- Node1&#45;&gt;Node2 -->
<g id="edge1" class="edge">
<title>Node1&#45;&gt;Node2</title>
<path fill="none" stroke="#191970" d="M184.1432,-67.5C192.7563,-67.5 201.4059,-67.5 209.8113,-67.5"/>
<polygon fill="#191970" stroke="#191970" points="209.9239,-71.0001 219.9239,-67.5 209.9239,-64.0001 209.9239,-71.0001"/>
</g>
<!-- Node3 -->
<g id="node3" class="node">
<title>Node3</title>
<g id="a_node3"><a xlink:href="../../dc/d15/classPndFileNameCreator.html#aab1b03623c0bf13948feb945b319c01a" target="_top" xlink:title="PndFileNameCreator\l::TruncateFileName">
<polygon fill="none" stroke="#000000" points="382,-51.5 382,-83.5 502,-83.5 502,-51.5 382,-51.5"/>
<text text-anchor="start" x="390" y="-70.5" font-family="FreeSans" font-size="10.00" fill="#000000">PndFileNameCreator</text>
<text text-anchor="middle" x="442" y="-58.5" font-family="FreeSans" font-size="10.00" fill="#000000">::TruncateFileName</text>
</a>
</g>
</g>
<!-- Node2&#45;&gt;Node3 -->
<g id="edge2" class="edge">
<title>Node2&#45;&gt;Node3</title>
<path fill="none" stroke="#191970" d="M346.2979,-67.5C354.6096,-67.5 363.1681,-67.5 371.5887,-67.5"/>
<polygon fill="#191970" stroke="#191970" points="371.7659,-71.0001 381.7658,-67.5 371.7658,-64.0001 371.7659,-71.0001"/>
</g>
<!-- Node4 -->
<g id="node4" class="node">
<title>Node4</title>
<g id="a_node4"><a xlink:href="../../dc/d15/classPndFileNameCreator.html#aaa65809da095c0269d23e2bdd2503385" target="_top" xlink:title="PndFileNameCreator\l::GetPath">
<polygon fill="none" stroke="#000000" points="538,-51.5 538,-83.5 658,-83.5 658,-51.5 538,-51.5"/>
<text text-anchor="start" x="546" y="-70.5" font-family="FreeSans" font-size="10.00" fill="#000000">PndFileNameCreator</text>
<text text-anchor="middle" x="598" y="-58.5" font-family="FreeSans" font-size="10.00" fill="#000000">::GetPath</text>
</a>
</g>
</g>
<!-- Node3&#45;&gt;Node4 -->
<g id="edge3" class="edge">
<title>Node3&#45;&gt;Node4</title>
<path fill="none" stroke="#191970" d="M502.3137,-67.5C510.6036,-67.5 519.1748,-67.5 527.6255,-67.5"/>
<polygon fill="#191970" stroke="#191970" points="527.8468,-71.0001 537.8467,-67.5 527.8467,-64.0001 527.8468,-71.0001"/>
</g>
<!-- Node5 -->
<g id="node5" class="node">
<title>Node5</title>
<g id="a_node5"><a xlink:href="../../dd/d06/classPndStringSeparator.html#adc261b2e715d048d2183fb952edddbca" target="_top" xlink:title="PndStringSeparator\l::GetStringVector">
<polygon fill="none" stroke="#000000" points="694,-96.5 694,-128.5 810,-128.5 810,-96.5 694,-96.5"/>
<text text-anchor="start" x="702" y="-115.5" font-family="FreeSans" font-size="10.00" fill="#000000">PndStringSeparator</text>
<text text-anchor="middle" x="752" y="-103.5" font-family="FreeSans" font-size="10.00" fill="#000000">::GetStringVector</text>
</a>
</g>
</g>
<!-- Node3&#45;&gt;Node5 -->
<g id="edge11" class="edge">
<title>Node3&#45;&gt;Node5</title>
<path fill="none" stroke="#191970" d="M494.6887,-83.5574C508.6581,-87.3218 523.806,-90.9681 538,-93.5 586.3393,-102.1226 641.5534,-106.9015 683.7887,-109.5096"/>
<polygon fill="#191970" stroke="#191970" points="683.7708,-113.0146 693.9601,-110.1114 684.1843,-106.0268 683.7708,-113.0146"/>
</g>
<!-- Node11 -->
<g id="node11" class="node">
<title>Node11</title>
<g id="a_node11"><a xlink:href="../../dc/d15/classPndFileNameCreator.html#a078566adffb0888754ee70fc25bd45bb" target="_top" xlink:title="PndFileNameCreator\l::GetFileName">
<polygon fill="none" stroke="#000000" points="538,-.5 538,-32.5 658,-32.5 658,-.5 538,-.5"/>
<text text-anchor="start" x="546" y="-19.5" font-family="FreeSans" font-size="10.00" fill="#000000">PndFileNameCreator</text>
<text text-anchor="middle" x="598" y="-7.5" font-family="FreeSans" font-size="10.00" fill="#000000">::GetFileName</text>
</a>
</g>
</g>
<!-- Node3&#45;&gt;Node11 -->
<g id="edge10" class="edge">
<title>Node3&#45;&gt;Node11</title>
<path fill="none" stroke="#191970" d="M491.3594,-51.3633C506.5872,-46.3849 523.5064,-40.8537 539.2992,-35.6906"/>
<polygon fill="#191970" stroke="#191970" points="540.5444,-38.9659 548.9617,-32.5317 538.3692,-32.3125 540.5444,-38.9659"/>
</g>
<!-- Node4&#45;&gt;Node5 -->
<g id="edge4" class="edge">
<title>Node4&#45;&gt;Node5</title>
<path fill="none" stroke="#191970" d="M653.1626,-83.6189C664.2434,-86.8568 675.9821,-90.287 687.3518,-93.6093"/>
<polygon fill="#191970" stroke="#191970" points="686.6423,-97.0483 697.2226,-96.4936 688.6057,-90.3292 686.6423,-97.0483"/>
</g>
<!-- Node10 -->
<g id="node10" class="node">
<title>Node10</title>
<g id="a_node10"><a xlink:href="../../dd/d06/classPndStringSeparator.html#a939bc2b6bbc4e2f78a094420e6b926a2" target="_top" xlink:title="PndStringSeparator\l::Print">
<polygon fill="none" stroke="#000000" points="694,-45.5 694,-77.5 810,-77.5 810,-45.5 694,-45.5"/>
<text text-anchor="start" x="702" y="-64.5" font-family="FreeSans" font-size="10.00" fill="#000000">PndStringSeparator</text>
<text text-anchor="middle" x="752" y="-52.5" font-family="FreeSans" font-size="10.00" fill="#000000">::Print</text>
</a>
</g>
</g>
<!-- Node4&#45;&gt;Node10 -->
<g id="edge9" class="edge">
<title>Node4&#45;&gt;Node10</title>
<path fill="none" stroke="#191970" d="M658.4229,-65.1459C666.6901,-64.8238 675.225,-64.4912 683.6214,-64.1641"/>
<polygon fill="#191970" stroke="#191970" points="683.9111,-67.6556 693.7672,-63.7688 683.6385,-60.6609 683.9111,-67.6556"/>
</g>
<!-- Node6 -->
<g id="node6" class="node">
<title>Node6</title>
<g id="a_node6"><a xlink:href="../../dd/d06/classPndStringSeparator.html#acb0399a7102c32aec64b8ecd1e1f3c61" target="_top" xlink:title="PndStringSeparator\l::ResetVector">
<polygon fill="none" stroke="#000000" points="846,-173.5 846,-205.5 962,-205.5 962,-173.5 846,-173.5"/>
<text text-anchor="start" x="854" y="-192.5" font-family="FreeSans" font-size="10.00" fill="#000000">PndStringSeparator</text>
<text text-anchor="middle" x="904" y="-180.5" font-family="FreeSans" font-size="10.00" fill="#000000">::ResetVector</text>
</a>
</g>
</g>
<!-- Node5&#45;&gt;Node6 -->
<g id="edge5" class="edge">
<title>Node5&#45;&gt;Node6</title>
<path fill="none" stroke="#191970" d="M779.5893,-128.7011C798.1229,-139.3502 823.229,-153.3277 846,-164.5 849.2947,-166.1165 852.7192,-167.7376 856.1834,-169.3345"/>
<polygon fill="#191970" stroke="#191970" points="854.829,-172.5632 865.3837,-173.4853 857.7077,-166.1825 854.829,-172.5632"/>
</g>
<!-- Node7 -->
<g id="node7" class="node">
<title>Node7</title>
<g id="a_node7"><a xlink:href="../../dd/d06/classPndStringSeparator.html#ab27e44d75e136d9e1f75d863c48b1e10" target="_top" xlink:title="PndStringSeparator\l::TestFirst">
<polygon fill="none" stroke="#000000" points="846,-122.5 846,-154.5 962,-154.5 962,-122.5 846,-122.5"/>
<text text-anchor="start" x="854" y="-141.5" font-family="FreeSans" font-size="10.00" fill="#000000">PndStringSeparator</text>
<text text-anchor="middle" x="904" y="-129.5" font-family="FreeSans" font-size="10.00" fill="#000000">::TestFirst</text>
</a>
</g>
</g>
<!-- Node5&#45;&gt;Node7 -->
<g id="edge6" class="edge">
<title>Node5&#45;&gt;Node7</title>
<path fill="none" stroke="#191970" d="M810.3325,-122.4779C818.6966,-123.9086 827.3631,-125.3911 835.8953,-126.8505"/>
<polygon fill="#191970" stroke="#191970" points="835.3767,-130.3126 845.8236,-128.5488 836.5569,-123.4128 835.3767,-130.3126"/>
</g>
<!-- Node8 -->
<g id="node8" class="node">
<title>Node8</title>
<g id="a_node8"><a xlink:href="../../dd/d06/classPndStringSeparator.html#aa7fd342121522b544346e7eb6475688f" target="_top" xlink:title="PndStringSeparator\l::TestLast">
<polygon fill="none" stroke="#000000" points="846,-71.5 846,-103.5 962,-103.5 962,-71.5 846,-71.5"/>
<text text-anchor="start" x="854" y="-90.5" font-family="FreeSans" font-size="10.00" fill="#000000">PndStringSeparator</text>
<text text-anchor="middle" x="904" y="-78.5" font-family="FreeSans" font-size="10.00" fill="#000000">::TestLast</text>
</a>
</g>
</g>
<!-- Node5&#45;&gt;Node8 -->
<g id="edge7" class="edge">
<title>Node5&#45;&gt;Node8</title>
<path fill="none" stroke="#191970" d="M810.3325,-102.9058C818.6966,-101.5302 827.3631,-100.1048 835.8953,-98.7014"/>
<polygon fill="#191970" stroke="#191970" points="836.5243,-102.1451 845.8236,-97.0685 835.3882,-95.2379 836.5243,-102.1451"/>
</g>
<!-- Node9 -->
<g id="node9" class="node">
<title>Node9</title>
<g id="a_node9"><a xlink:href="../../dd/d06/classPndStringSeparator.html#a0850af97affae5d19b8353eeb2d95a69" target="_top" xlink:title="PndStringSeparator\l::GetString">
<polygon fill="none" stroke="#000000" points="846,-20.5 846,-52.5 962,-52.5 962,-20.5 846,-20.5"/>
<text text-anchor="start" x="854" y="-39.5" font-family="FreeSans" font-size="10.00" fill="#000000">PndStringSeparator</text>
<text text-anchor="middle" x="904" y="-27.5" font-family="FreeSans" font-size="10.00" fill="#000000">::GetString</text>
</a>
</g>
</g>
<!-- Node5&#45;&gt;Node9 -->
<g id="edge8" class="edge">
<title>Node5&#45;&gt;Node9</title>
<path fill="none" stroke="#191970" d="M792.1305,-96.4519C798.2149,-93.6623 804.3444,-90.6411 810,-87.5 827.0294,-78.0419 829.0394,-72.0809 846,-62.5 849.2667,-60.6547 852.6887,-58.8409 856.1673,-57.0828"/>
<polygon fill="#191970" stroke="#191970" points="857.9754,-60.0956 865.439,-52.5759 854.9151,-53.7999 857.9754,-60.0956"/>
</g>
</g>
</svg>
