<?xml version="1.0" encoding="UTF-8" standalone="no"?>
<!DOCTYPE svg PUBLIC "-//W3C//DTD SVG 1.1//EN"
 "http://www.w3.org/Graphics/SVG/1.1/DTD/svg11.dtd">
<!-- Generated by graphviz version 2.40.1 (20161225.0304)
 -->
<!-- Title: CbmRichGeoTest::DrawSummaryPlotsTemp Pages: 1 -->
<svg width="570pt" height="41pt"
 viewBox="0.00 0.00 570.00 41.00" xmlns="http://www.w3.org/2000/svg" xmlns:xlink="http://www.w3.org/1999/xlink">
<g id="graph0" class="graph" transform="scale(1 1) rotate(0) translate(4 37)">
<title>CbmRichGeoTest::DrawSummaryPlotsTemp</title>
<!-- Node1 -->
<g id="node1" class="node">
<title>Node1</title>
<polygon fill="#bfbfbf" stroke="#000000" points="0,-.5 0,-32.5 183,-32.5 183,-.5 0,-.5"/>
<text text-anchor="start" x="8" y="-19.5" font-family="FreeSans" font-size="10.00" fill="#000000">CbmRichGeoTest::DrawSummary</text>
<text text-anchor="middle" x="91.5" y="-7.5" font-family="FreeSans" font-size="10.00" fill="#000000">PlotsTemp</text>
</g>
<!-- Node2 -->
<g id="node2" class="node">
<title>Node2</title>
<g id="a_node2"><a xlink:href="../../d5/d75/classCbmRichGeoTest.html#a53c81a5122f3c64f4fe986a0cbd6450c" target="_top" xlink:title="Initialize histograms.">
<polygon fill="none" stroke="#000000" points="219,-6.5 219,-26.5 401,-26.5 401,-6.5 219,-6.5"/>
<text text-anchor="middle" x="310" y="-13.5" font-family="FreeSans" font-size="10.00" fill="#000000">CbmRichGeoTest::InitHistograms</text>
</a>
</g>
</g>
<!-- Node1&#45;&gt;Node2 -->
<g id="edge1" class="edge">
<title>Node1&#45;&gt;Node2</title>
<path fill="none" stroke="#191970" d="M193.2202,-16.5C201.779,-16.5 210.3998,-16.5 218.871,-16.5"/>
<polygon fill="#191970" stroke="#191970" points="193.214,-13.0001 183.214,-16.5 193.2139,-20.0001 193.214,-13.0001"/>
</g>
<!-- Node3 -->
<g id="node3" class="node">
<title>Node3</title>
<g id="a_node3"><a xlink:href="../../d5/d75/classCbmRichGeoTest.html#a90129ff21b406bf395f93145ca864b0a" target="_top" xlink:title="Inherited from FairTask.">
<polygon fill="none" stroke="#000000" points="437,-6.5 437,-26.5 562,-26.5 562,-6.5 437,-6.5"/>
<text text-anchor="middle" x="499.5" y="-13.5" font-family="FreeSans" font-size="10.00" fill="#000000">CbmRichGeoTest::Init</text>
</a>
</g>
</g>
<!-- Node2&#45;&gt;Node3 -->
<g id="edge2" class="edge">
<title>Node2&#45;&gt;Node3</title>
<path fill="none" stroke="#191970" d="M411.3834,-16.5C420.0932,-16.5 428.7279,-16.5 436.9911,-16.5"/>
<polygon fill="#191970" stroke="#191970" points="411.1422,-13.0001 401.1421,-16.5 411.1421,-20.0001 411.1422,-13.0001"/>
</g>
</g>
</svg>
