<?xml version="1.0" encoding="UTF-8" standalone="no"?>
<!DOCTYPE svg PUBLIC "-//W3C//DTD SVG 1.1//EN"
 "http://www.w3.org/Graphics/SVG/1.1/DTD/svg11.dtd">
<!-- Generated by graphviz version 2.40.1 (20161225.0304)
 -->
<!-- Title: FairDbTableRow Pages: 1 -->
<svg width="2454pt" height="792pt"
 viewBox="0.00 0.00 2454.00 792.00" xmlns="http://www.w3.org/2000/svg" xmlns:xlink="http://www.w3.org/1999/xlink">
<g id="graph0" class="graph" transform="scale(1 1) rotate(0) translate(4 788)">
<title>FairDbTableRow</title>
<!-- Node1 -->
<g id="node1" class="node">
<title>Node1</title>
<polygon fill="#bfbfbf" stroke="#000000" points="1598,-288 1598,-308 1694,-308 1694,-288 1598,-288"/>
<text text-anchor="middle" x="1646" y="-295" font-family="FreeSans" font-size="10.00" fill="#000000">FairDbTableRow</text>
</g>
<!-- Node4 -->
<g id="node4" class="node">
<title>Node4</title>
<g id="a_node4"><a xlink:href="../../dd/da1/classFairDbValidityRec.html" target="_top" xlink:title="FairDbValidityRec">
<polygon fill="none" stroke="#000000" points="2179,-239 2179,-259 2283,-259 2283,-239 2179,-239"/>
<text text-anchor="middle" x="2231" y="-246" font-family="FreeSans" font-size="10.00" fill="#000000">FairDbValidityRec</text>
</a>
</g>
</g>
<!-- Node1&#45;&gt;Node4 -->
<g id="edge4" class="edge">
<title>Node1&#45;&gt;Node4</title>
<path fill="none" stroke="#191970" d="M1704.6696,-293.0858C1818.9892,-283.5103 2069.8914,-262.4946 2178.8164,-253.3709"/>
<polygon fill="#191970" stroke="#191970" points="1704.0436,-289.6259 1694.3707,-293.9484 1704.628,-296.6015 1704.0436,-289.6259"/>
</g>
<!-- Node6 -->
<g id="node6" class="node">
<title>Node6</title>
<g id="a_node6"><a xlink:href="../../da/dcf/classFairDbTableProxy.html" target="_top" xlink:title="FairDbTableProxy">
<polygon fill="none" stroke="#000000" points="1871.5,-527 1871.5,-547 1973.5,-547 1973.5,-527 1871.5,-527"/>
<text text-anchor="middle" x="1922.5" y="-534" font-family="FreeSans" font-size="10.00" fill="#000000">FairDbTableProxy</text>
</a>
</g>
</g>
<!-- Node1&#45;&gt;Node6 -->
<g id="edge37" class="edge">
<title>Node1&#45;&gt;Node6</title>
<path fill="none" stroke="#9a32cd" stroke-dasharray="5,2" d="M1670.5024,-313.8399C1707.1109,-338.5338 1776.4315,-389.3932 1820,-447 1831.5156,-462.2261 1825.2679,-471.7754 1838,-486 1854.5706,-504.513 1879.4787,-518.4158 1897.9635,-526.9917"/>
<polygon fill="#9a32cd" stroke="#9a32cd" points="1672.1994,-310.765 1661.9355,-308.1374 1668.3205,-316.5921 1672.1994,-310.765"/>
<text text-anchor="middle" x="1779" y="-450" font-family="FreeSans" font-size="10.00" fill="#000000"> fTableRow</text>
</g>
<!-- Node27 -->
<g id="node27" class="node">
<title>Node27</title>
<polygon fill="none" stroke="#bfbfbf" points="2025,-280 2025,-312 2161,-312 2161,-280 2025,-280"/>
<text text-anchor="start" x="2033" y="-299" font-family="FreeSans" font-size="10.00" fill="#000000">std::map&lt; UInt_t, const</text>
<text text-anchor="middle" x="2093" y="-287" font-family="FreeSans" font-size="10.00" fill="#000000"> FairDbTableRow * &gt;</text>
</g>
<!-- Node1&#45;&gt;Node27 -->
<g id="edge44" class="edge">
<title>Node1&#45;&gt;Node27</title>
<path fill="none" stroke="#9a32cd" stroke-dasharray="5,2" d="M1704.4739,-297.7384C1787.0482,-297.3689 1937.488,-296.6958 2024.9646,-296.3044"/>
<polygon fill="#9a32cd" stroke="#9a32cd" points="1704.2457,-294.2393 1694.2615,-297.7841 1704.2771,-301.2392 1704.2457,-294.2393"/>
<text text-anchor="middle" x="1779" y="-300" font-family="FreeSans" font-size="10.00" fill="#000000"> elements</text>
</g>
<!-- Node2 -->
<g id="node2" class="node">
<title>Node2</title>
<g id="a_node2"><a xlink:href="../../d5/d0f/classTObject.html" target="_top" xlink:title="TObject">
<polygon fill="none" stroke="#000000" points="1319.5,-215 1319.5,-235 1376.5,-235 1376.5,-215 1319.5,-215"/>
<text text-anchor="middle" x="1348" y="-222" font-family="FreeSans" font-size="10.00" fill="#000000">TObject</text>
</a>
</g>
</g>
<!-- Node2&#45;&gt;Node1 -->
<g id="edge1" class="edge">
<title>Node2&#45;&gt;Node1</title>
<path fill="none" stroke="#191970" d="M1386.5123,-234.4342C1442.8567,-248.2367 1547.3111,-273.8245 1605.0224,-287.9619"/>
<polygon fill="#191970" stroke="#191970" points="1387.1191,-230.9794 1376.5735,-231.9995 1385.4535,-237.7784 1387.1191,-230.9794"/>
</g>
<!-- Node26 -->
<g id="node26" class="node">
<title>Node26</title>
<g id="a_node26"><a xlink:href="../../d9/df6/classValRange.html" target="_top" xlink:title="ValRange">
<polygon fill="none" stroke="#000000" points="1614,-210 1614,-230 1678,-230 1678,-210 1614,-210"/>
<text text-anchor="middle" x="1646" y="-217" font-family="FreeSans" font-size="10.00" fill="#000000">ValRange</text>
</a>
</g>
</g>
<!-- Node2&#45;&gt;Node26 -->
<g id="edge40" class="edge">
<title>Node2&#45;&gt;Node26</title>
<path fill="none" stroke="#191970" d="M1386.6779,-224.351C1446.104,-223.354 1558.7652,-221.4637 1613.9342,-220.538"/>
<polygon fill="#191970" stroke="#191970" points="1386.5133,-220.8532 1376.5735,-224.5206 1386.6308,-227.8522 1386.5133,-220.8532"/>
</g>
<!-- Node28 -->
<g id="node28" class="node">
<title>Node28</title>
<g id="a_node28"><a xlink:href="../../d1/d23/classFairDbResultKey.html" target="_top" xlink:title="FairDbResultKey">
<polygon fill="none" stroke="#000000" points="2182,-123 2182,-143 2280,-143 2280,-123 2182,-123"/>
<text text-anchor="middle" x="2231" y="-130" font-family="FreeSans" font-size="10.00" fill="#000000">FairDbResultKey</text>
</a>
</g>
</g>
<!-- Node2&#45;&gt;Node28 -->
<g id="edge47" class="edge">
<title>Node2&#45;&gt;Node28</title>
<path fill="none" stroke="#191970" d="M1386.7523,-220.558C1431.4017,-215.4673 1506.9805,-206.9334 1572,-200 1799.8448,-175.7036 2072.2278,-148.6406 2181.7946,-137.8358"/>
<polygon fill="#191970" stroke="#191970" points="1386.1701,-217.1017 1376.6316,-221.7134 1386.9641,-224.0565 1386.1701,-217.1017"/>
</g>
<!-- Node3 -->
<g id="node3" class="node">
<title>Node3</title>
<g id="a_node3"><a xlink:href="../../d5/d57/classFairDbResult.html" target="_top" xlink:title="FairDbResult">
<polygon fill="none" stroke="#000000" points="2366,-272 2366,-292 2446,-292 2446,-272 2366,-272"/>
<text text-anchor="middle" x="2406" y="-279" font-family="FreeSans" font-size="10.00" fill="#000000">FairDbResult</text>
</a>
</g>
</g>
<!-- Node3&#45;&gt;Node1 -->
<g id="edge2" class="edge">
<title>Node3&#45;&gt;Node1</title>
<path fill="none" stroke="#9a32cd" stroke-dasharray="5,2" d="M2365.5651,-294.7606C2359.7098,-296.3424 2353.7272,-297.8164 2348,-299 2319.4954,-304.8907 2311.9894,-304.3872 2283,-307 2041.7411,-328.7448 1979.412,-332.9746 1738,-313 1723.6461,-311.8123 1708.153,-309.6375 1694.0478,-307.3054"/>
<polygon fill="#9a32cd" stroke="#9a32cd" points="2366.5601,-298.1165 2375.2313,-292.0288 2364.6564,-291.3804 2366.5601,-298.1165"/>
<text text-anchor="middle" x="2093" y="-328" font-family="FreeSans" font-size="10.00" fill="#000000"> fOwner</text>
</g>
<!-- Node4&#45;&gt;Node3 -->
<g id="edge3" class="edge">
<title>Node4&#45;&gt;Node3</title>
<path fill="none" stroke="#9a32cd" stroke-dasharray="5,2" d="M2293.3826,-259.8819C2311.0556,-263.0502 2330.2995,-266.581 2348,-270 2353.7548,-271.1116 2359.8223,-272.3231 2365.7779,-273.5349"/>
<polygon fill="#9a32cd" stroke="#9a32cd" points="2293.6414,-256.3728 2283.182,-258.0619 2292.4118,-263.264 2293.6414,-256.3728"/>
<text text-anchor="middle" x="2324.5" y="-273" font-family="FreeSans" font-size="10.00" fill="#000000"> fEffVRec</text>
</g>
<!-- Node5 -->
<g id="node5" class="node">
<title>Node5</title>
<g id="a_node5"><a xlink:href="../../d2/d87/classValTimeStamp.html" target="_top" xlink:title="ValTimeStamp">
<polygon fill="none" stroke="#000000" points="1303,-118 1303,-138 1393,-138 1393,-118 1303,-118"/>
<text text-anchor="middle" x="1348" y="-125" font-family="FreeSans" font-size="10.00" fill="#000000">ValTimeStamp</text>
</a>
</g>
</g>
<!-- Node5&#45;&gt;Node4 -->
<g id="edge5" class="edge">
<title>Node5&#45;&gt;Node4</title>
<path fill="none" stroke="#9a32cd" stroke-dasharray="5,2" d="M1403.2583,-126.6093C1491.7334,-125.1921 1670.4458,-125.6581 1820,-147 1964.471,-167.6165 2132.0049,-217.5869 2199.9758,-238.9944"/>
<polygon fill="#9a32cd" stroke="#9a32cd" points="1403.1182,-123.1111 1393.1809,-126.7853 1403.2405,-130.11 1403.1182,-123.1111"/>
<text text-anchor="middle" x="1779" y="-162" font-family="FreeSans" font-size="10.00" fill="#000000"> fInsertDate</text>
<text text-anchor="middle" x="1779" y="-150" font-family="FreeSans" font-size="10.00" fill="#000000">fCreationDate</text>
</g>
<!-- Node5&#45;&gt;Node26 -->
<g id="edge41" class="edge">
<title>Node5&#45;&gt;Node26</title>
<path fill="none" stroke="#9a32cd" stroke-dasharray="5,2" d="M1390.0196,-140.9725C1450.1098,-159.5238 1559.3085,-193.2362 1613.5815,-209.9916"/>
<polygon fill="#9a32cd" stroke="#9a32cd" points="1391.046,-137.6264 1380.4585,-138.0207 1388.981,-144.3149 1391.046,-137.6264"/>
<text text-anchor="middle" x="1507.5" y="-206" font-family="FreeSans" font-size="10.00" fill="#000000"> fTimeStart</text>
<text text-anchor="middle" x="1507.5" y="-194" font-family="FreeSans" font-size="10.00" fill="#000000">fTimeEnd</text>
</g>
<!-- Node30 -->
<g id="node30" class="node">
<title>Node30</title>
<g id="a_node30"><a xlink:href="../../de/d52/structFairDbResultKey_1_1VRecKey.html" target="_top" xlink:title="FairDbResultKey::VRecKey">
<polygon fill="none" stroke="#000000" points="1572,-82 1572,-102 1720,-102 1720,-82 1572,-82"/>
<text text-anchor="middle" x="1646" y="-89" font-family="FreeSans" font-size="10.00" fill="#000000">FairDbResultKey::VRecKey</text>
</a>
</g>
</g>
<!-- Node5&#45;&gt;Node30 -->
<g id="edge50" class="edge">
<title>Node5&#45;&gt;Node30</title>
<path fill="none" stroke="#9a32cd" stroke-dasharray="5,2" d="M1394.2787,-115.4566C1414.5989,-110.4424 1438.8318,-105.1257 1461,-102 1497.3089,-96.8804 1537.9663,-94.3374 1571.8991,-93.0915"/>
<polygon fill="#9a32cd" stroke="#9a32cd" points="1393.185,-112.1227 1384.3433,-117.9601 1394.8955,-118.9105 1393.185,-112.1227"/>
<text text-anchor="middle" x="1507.5" y="-105" font-family="FreeSans" font-size="10.00" fill="#000000"> CreationDate</text>
</g>
<!-- Node6&#45;&gt;Node4 -->
<g id="edge6" class="edge">
<title>Node6&#45;&gt;Node4</title>
<path fill="none" stroke="#9a32cd" stroke-dasharray="5,2" d="M1952.097,-522.1837C1969.0541,-512.9729 1990.2289,-500.2007 2007,-486 2016.3814,-478.0564 2014.2363,-470.9375 2025,-465 2078.4952,-435.4906 2118.6972,-489.0797 2161,-445 2187.4571,-417.4315 2156.993,-305.2361 2179,-274 2183.5577,-267.5309 2190.2544,-262.6737 2197.3359,-259.0496"/>
<polygon fill="#9a32cd" stroke="#9a32cd" points="1950.3595,-519.1433 1943.1651,-526.9209 1953.6394,-525.3274 1950.3595,-519.1433"/>
<text text-anchor="middle" x="2093" y="-468" font-family="FreeSans" font-size="10.00" fill="#000000"> fTableProxy</text>
</g>
<!-- Node7 -->
<g id="node7" class="node">
<title>Node7</title>
<g id="a_node7"><a xlink:href="../../d2/d4a/classFairDbCache.html" target="_top" xlink:title="FairDbCache">
<polygon fill="none" stroke="#000000" points="2191,-457 2191,-477 2271,-477 2271,-457 2191,-457"/>
<text text-anchor="middle" x="2231" y="-464" font-family="FreeSans" font-size="10.00" fill="#000000">FairDbCache</text>
</a>
</g>
</g>
<!-- Node6&#45;&gt;Node7 -->
<g id="edge8" class="edge">
<title>Node6&#45;&gt;Node7</title>
<path fill="none" stroke="#9a32cd" stroke-dasharray="5,2" d="M1983.7159,-534.8534C2043.3657,-532.1349 2129.5281,-526.3645 2161,-515 2184.2841,-506.5921 2207.1543,-488.5477 2220.1262,-477.1357"/>
<polygon fill="#9a32cd" stroke="#9a32cd" points="1983.4824,-531.3602 1973.6454,-535.295 1983.7891,-538.3534 1983.4824,-531.3602"/>
<text text-anchor="middle" x="2093" y="-535" font-family="FreeSans" font-size="10.00" fill="#000000"> fTableProxy</text>
</g>
<!-- Node13 -->
<g id="node13" class="node">
<title>Node13</title>
<g id="a_node13"><a xlink:href="../../d9/dbd/classFairDbProxy.html" target="_top" xlink:title="FairDbProxy">
<polygon fill="none" stroke="#000000" points="2193,-624 2193,-644 2269,-644 2269,-624 2193,-624"/>
<text text-anchor="middle" x="2231" y="-631" font-family="FreeSans" font-size="10.00" fill="#000000">FairDbProxy</text>
</a>
</g>
</g>
<!-- Node6&#45;&gt;Node13 -->
<g id="edge15" class="edge">
<title>Node6&#45;&gt;Node13</title>
<path fill="none" stroke="#9a32cd" stroke-dasharray="5,2" d="M1948.9758,-551.8352C1969.2163,-562.5672 1998.1217,-576.6046 2025,-585 2083.5147,-603.277 2101.7827,-592.1464 2161,-608 2176.779,-612.2243 2193.9829,-618.5888 2207.3867,-623.9634"/>
<polygon fill="#9a32cd" stroke="#9a32cd" points="1950.5163,-548.6895 1940.0537,-547.0206 1947.1919,-554.8498 1950.5163,-548.6895"/>
<text text-anchor="middle" x="2093" y="-611" font-family="FreeSans" font-size="10.00" fill="#000000"> fTableProxy</text>
</g>
<!-- Node7&#45;&gt;Node6 -->
<g id="edge7" class="edge">
<title>Node7&#45;&gt;Node6</title>
<path fill="none" stroke="#9a32cd" stroke-dasharray="5,2" d="M2180.4883,-476.4808C2173.9346,-477.6815 2167.3097,-478.8806 2161,-480 2100.6397,-490.7082 2084.4882,-488.1955 2025,-503 1998.8011,-509.52 1969.6443,-519.4628 1949.1468,-526.9148"/>
<polygon fill="#9a32cd" stroke="#9a32cd" points="2181.4728,-479.8584 2190.6728,-474.6039 2180.2041,-472.9743 2181.4728,-479.8584"/>
<text text-anchor="middle" x="2093" y="-506" font-family="FreeSans" font-size="10.00" fill="#000000"> fCache</text>
</g>
<!-- Node8 -->
<g id="node8" class="node">
<title>Node8</title>
<g id="a_node8"><a xlink:title="STL class.">
<polygon fill="none" stroke="#bfbfbf" points="158,-478 158,-498 225,-498 225,-478 158,-478"/>
<text text-anchor="middle" x="191.5" y="-485" font-family="FreeSans" font-size="10.00" fill="#000000">std::string</text>
</a>
</g>
</g>
<!-- Node8&#45;&gt;Node3 -->
<g id="edge45" class="edge">
<title>Node8&#45;&gt;Node3</title>
<path fill="none" stroke="#9a32cd" stroke-dasharray="5,2" d="M193.8306,-467.5816C201.6759,-400.7071 228.2491,-189.0004 257,-127 291.1815,-53.2887 307.249,0 388.5,0 388.5,0 388.5,0 2231,0 2361.7958,0 2398.2307,-221.7282 2404.807,-271.9635"/>
<polygon fill="#9a32cd" stroke="#9a32cd" points="190.3353,-467.3402 192.6603,-477.6768 197.2887,-468.1464 190.3353,-467.3402"/>
<text text-anchor="middle" x="1201" y="-15" font-family="FreeSans" font-size="10.00" fill="#000000"> fTableName</text>
<text text-anchor="middle" x="1201" y="-3" font-family="FreeSans" font-size="10.00" fill="#000000">fSqlQualifiers</text>
</g>
<!-- Node8&#45;&gt;Node6 -->
<g id="edge36" class="edge">
<title>Node8&#45;&gt;Node6</title>
<path fill="none" stroke="#9a32cd" stroke-dasharray="5,2" d="M235.5035,-488C275.4276,-488 335.912,-488 388.5,-488 388.5,-488 388.5,-488 871.5,-488 1256.2349,-488 1719.3326,-521.1693 1871.4103,-532.9275"/>
<polygon fill="#9a32cd" stroke="#9a32cd" points="235.3133,-484.5001 225.3133,-488 235.3132,-491.5001 235.3133,-484.5001"/>
<text text-anchor="middle" x="988.5" y="-492" font-family="FreeSans" font-size="10.00" fill="#000000"> fTableName</text>
</g>
<!-- Node8&#45;&gt;Node7 -->
<g id="edge9" class="edge">
<title>Node8&#45;&gt;Node7</title>
<path fill="none" stroke="#9a32cd" stroke-dasharray="5,2" d="M207.6937,-470.3696C239.1598,-438.141 312.1974,-373 388.5,-373 388.5,-373 388.5,-373 1507.5,-373 1798.6946,-373 1886.7117,-322.2236 2161,-420 2183.8883,-428.1591 2206.5263,-445.499 2219.6148,-456.6827"/>
<polygon fill="#9a32cd" stroke="#9a32cd" points="204.9814,-468.1422 200.6128,-477.7945 210.0472,-472.9732 204.9814,-468.1422"/>
<text text-anchor="middle" x="1096.5" y="-376" font-family="FreeSans" font-size="10.00" fill="#000000"> fTableName</text>
</g>
<!-- Node8&#45;&gt;Node13 -->
<g id="edge23" class="edge">
<title>Node8&#45;&gt;Node13</title>
<path fill="none" stroke="#9a32cd" stroke-dasharray="5,2" d="M196.7757,-507.9785C213.6727,-566.922 272.2712,-736 388.5,-736 388.5,-736 388.5,-736 1922.5,-736 2032.2501,-736 2059.069,-712.6836 2161,-672 2180.3927,-664.2598 2201.2621,-652.4298 2215.1192,-644.0277"/>
<polygon fill="#9a32cd" stroke="#9a32cd" points="200.063,-506.7343 194.0241,-498.0291 193.3163,-508.6002 200.063,-506.7343"/>
<text text-anchor="middle" x="1096.5" y="-775" font-family="FreeSans" font-size="10.00" fill="#000000"> fTableName</text>
<text text-anchor="middle" x="1096.5" y="-763" font-family="FreeSans" font-size="10.00" fill="#000000">fTableNameUc</text>
<text text-anchor="middle" x="1096.5" y="-751" font-family="FreeSans" font-size="10.00" fill="#000000">fSqlCondition</text>
<text text-anchor="middle" x="1096.5" y="-739" font-family="FreeSans" font-size="10.00" fill="#000000">fValSuffix</text>
</g>
<!-- Node14 -->
<g id="node14" class="node">
<title>Node14</title>
<g id="a_node14"><a xlink:href="../../d9/d1a/classFairDbTableMetaData.html" target="_top" xlink:title="FairDbTableMetaData">
<polygon fill="none" stroke="#000000" points="810,-555 810,-575 933,-575 933,-555 810,-555"/>
<text text-anchor="middle" x="871.5" y="-562" font-family="FreeSans" font-size="10.00" fill="#000000">FairDbTableMetaData</text>
</a>
</g>
</g>
<!-- Node8&#45;&gt;Node14 -->
<g id="edge22" class="edge">
<title>Node8&#45;&gt;Node14</title>
<path fill="none" stroke="#9a32cd" stroke-dasharray="5,2" d="M234.858,-498.0188C242.2199,-499.5039 249.8084,-500.9016 257,-502 466.1468,-533.9447 520.7887,-522.0404 731,-546 756.8011,-548.9408 785.1982,-552.6846 809.6696,-556.07"/>
<polygon fill="#9a32cd" stroke="#9a32cd" points="235.5231,-494.5822 225.0181,-495.9594 234.0891,-501.4338 235.5231,-494.5822"/>
<text text-anchor="middle" x="500" y="-532" font-family="FreeSans" font-size="10.00" fill="#000000"> fTableName</text>
</g>
<!-- Node16 -->
<g id="node16" class="node">
<title>Node16</title>
<g id="a_node16"><a xlink:href="../../d1/d8e/structFairDbTableMetaData_1_1ColumnAttributes.html" target="_top" xlink:title="Column attributes.">
<polygon fill="none" stroke="#000000" points="327,-579 327,-611 450,-611 450,-579 327,-579"/>
<text text-anchor="start" x="335" y="-598" font-family="FreeSans" font-size="10.00" fill="#000000">FairDbTableMetaData</text>
<text text-anchor="middle" x="388.5" y="-586" font-family="FreeSans" font-size="10.00" fill="#000000">::ColumnAttributes</text>
</a>
</g>
</g>
<!-- Node8&#45;&gt;Node16 -->
<g id="edge20" class="edge">
<title>Node8&#45;&gt;Node16</title>
<path fill="none" stroke="#9a32cd" stroke-dasharray="5,2" d="M209.9289,-504.9038C222.5312,-515.8732 239.977,-529.9441 257,-540 283.633,-555.7329 315.6093,-569.2146 341.361,-578.8926"/>
<polygon fill="#9a32cd" stroke="#9a32cd" points="212.2009,-502.2406 202.3999,-498.2166 207.5524,-507.4742 212.2009,-502.2406"/>
<text text-anchor="middle" x="283" y="-567" font-family="FreeSans" font-size="10.00" fill="#000000"> Name</text>
</g>
<!-- Node22 -->
<g id="node22" class="node">
<title>Node22</title>
<g id="a_node22"><a xlink:href="../../d0/d86/classFairDbConnection.html" target="_top" xlink:title="FairDbConnection">
<polygon fill="none" stroke="#000000" points="1044,-625 1044,-645 1149,-645 1149,-625 1044,-625"/>
<text text-anchor="middle" x="1096.5" y="-632" font-family="FreeSans" font-size="10.00" fill="#000000">FairDbConnection</text>
</a>
</g>
</g>
<!-- Node8&#45;&gt;Node22 -->
<g id="edge34" class="edge">
<title>Node8&#45;&gt;Node22</title>
<path fill="none" stroke="#9a32cd" stroke-dasharray="5,2" d="M201.6051,-507.2818C226.6892,-552.1958 296.4811,-660 388.5,-660 388.5,-660 388.5,-660 871.5,-660 930.8474,-660 998.4644,-651.3021 1043.9476,-644.1671"/>
<polygon fill="#9a32cd" stroke="#9a32cd" points="204.5427,-505.3574 196.6907,-498.2443 198.3931,-508.7015 204.5427,-505.3574"/>
<text text-anchor="middle" x="640.5" y="-699" font-family="FreeSans" font-size="10.00" fill="#000000"> fExistingTableList</text>
<text text-anchor="middle" x="640.5" y="-687" font-family="FreeSans" font-size="10.00" fill="#000000">fUser</text>
<text text-anchor="middle" x="640.5" y="-675" font-family="FreeSans" font-size="10.00" fill="#000000">fDbName</text>
<text text-anchor="middle" x="640.5" y="-663" font-family="FreeSans" font-size="10.00" fill="#000000">fPassword</text>
</g>
<!-- Node25 -->
<g id="node25" class="node">
<title>Node25</title>
<g id="a_node25"><a xlink:href="../../de/d06/classFairDbException.html" target="_top" xlink:title="FairDbException">
<polygon fill="none" stroke="#000000" points="339.5,-437 339.5,-457 437.5,-457 437.5,-437 339.5,-437"/>
<text text-anchor="middle" x="388.5" y="-444" font-family="FreeSans" font-size="10.00" fill="#000000">FairDbException</text>
</a>
</g>
</g>
<!-- Node8&#45;&gt;Node25 -->
<g id="edge33" class="edge">
<title>Node8&#45;&gt;Node25</title>
<path fill="none" stroke="#9a32cd" stroke-dasharray="5,2" d="M222.0103,-473.9504C232.8531,-469.4808 245.2793,-464.9395 257,-462 283.7452,-455.2925 314.3108,-451.5774 339.2386,-449.5231"/>
<polygon fill="#9a32cd" stroke="#9a32cd" points="220.3839,-470.8392 212.5635,-477.987 223.1344,-477.2761 220.3839,-470.8392"/>
<text text-anchor="middle" x="283" y="-465" font-family="FreeSans" font-size="10.00" fill="#000000"> fMessage</text>
</g>
<!-- Node8&#45;&gt;Node28 -->
<g id="edge51" class="edge">
<title>Node8&#45;&gt;Node28</title>
<path fill="none" stroke="#9a32cd" stroke-dasharray="5,2" d="M195.7517,-468.11C214.7104,-382.041 294.735,-46 388.5,-46 388.5,-46 388.5,-46 1922.5,-46 2030.2888,-46 2060.3754,-51.3592 2161,-90 2182.3033,-98.1807 2204.3213,-112.9324 2217.8389,-122.8458"/>
<polygon fill="#9a32cd" stroke="#9a32cd" points="192.3195,-467.4224 193.6146,-477.9377 199.1597,-468.9098 192.3195,-467.4224"/>
<text text-anchor="middle" x="1096.5" y="-61" font-family="FreeSans" font-size="10.00" fill="#000000"> fTableName</text>
<text text-anchor="middle" x="1096.5" y="-49" font-family="FreeSans" font-size="10.00" fill="#000000">fRowName</text>
</g>
<!-- Node9 -->
<g id="node9" class="node">
<title>Node9</title>
<g id="a_node9"><a xlink:title="STL class.">
<polygon fill="none" stroke="#bfbfbf" points="0,-472 0,-504 107,-504 107,-472 0,-472"/>
<text text-anchor="start" x="8" y="-491" font-family="FreeSans" font-size="10.00" fill="#000000">std::basic_string&lt;</text>
<text text-anchor="middle" x="53.5" y="-479" font-family="FreeSans" font-size="10.00" fill="#000000"> char &gt;</text>
</a>
</g>
</g>
<!-- Node9&#45;&gt;Node8 -->
<g id="edge10" class="edge">
<title>Node9&#45;&gt;Node8</title>
<path fill="none" stroke="#191970" d="M117.2979,-488C131.2112,-488 145.4083,-488 157.6089,-488"/>
<polygon fill="#191970" stroke="#191970" points="117.2496,-484.5001 107.2496,-488 117.2495,-491.5001 117.2496,-484.5001"/>
</g>
<!-- Node10 -->
<g id="node10" class="node">
<title>Node10</title>
<polygon fill="none" stroke="#bfbfbf" points="1838,-456 1838,-476 2007,-476 2007,-456 1838,-456"/>
<text text-anchor="middle" x="1922.5" y="-463" font-family="FreeSans" font-size="10.00" fill="#000000">std::map&lt; Int_t, ResultList_t &gt;</text>
</g>
<!-- Node10&#45;&gt;Node7 -->
<g id="edge11" class="edge">
<title>Node10&#45;&gt;Node7</title>
<path fill="none" stroke="#9a32cd" stroke-dasharray="5,2" d="M1955.8724,-452.3386C1975.6072,-445.0029 2001.3013,-436.7209 2025,-433 2084.7129,-423.6246 2102.0937,-419.451 2161,-433 2180.8817,-437.573 2201.6633,-448.5804 2215.366,-456.8406"/>
<polygon fill="#9a32cd" stroke="#9a32cd" points="1954.5117,-449.1117 1946.4186,-455.9492 1957.0092,-455.651 1954.5117,-449.1117"/>
<text text-anchor="middle" x="2093" y="-436" font-family="FreeSans" font-size="10.00" fill="#000000"> fCache</text>
</g>
<!-- Node11 -->
<g id="node11" class="node">
<title>Node11</title>
<g id="a_node11"><a xlink:title="STL class.">
<polygon fill="none" stroke="#bfbfbf" points="1605,-452 1605,-472 1687,-472 1687,-452 1605,-452"/>
<text text-anchor="middle" x="1646" y="-459" font-family="FreeSans" font-size="10.00" fill="#000000">std::list&lt; T &gt;</text>
</a>
</g>
</g>
<!-- Node11&#45;&gt;Node10 -->
<g id="edge12" class="edge">
<title>Node11&#45;&gt;Node10</title>
<path fill="none" stroke="#9a32cd" stroke-dasharray="5,2" d="M1697.2685,-462.7417C1736.7006,-463.3121 1792.0314,-464.1126 1837.983,-464.7773"/>
<polygon fill="#9a32cd" stroke="#9a32cd" points="1697.1459,-459.2396 1687.0963,-462.5945 1697.0446,-466.2389 1697.1459,-459.2396"/>
<text text-anchor="middle" x="1779" y="-467" font-family="FreeSans" font-size="10.00" fill="#000000"> elements</text>
</g>
<!-- Node12 -->
<g id="node12" class="node">
<title>Node12</title>
<polygon fill="none" stroke="#bfbfbf" points="1333.5,-448 1333.5,-468 1362.5,-468 1362.5,-448 1333.5,-448"/>
<text text-anchor="middle" x="1348" y="-455" font-family="FreeSans" font-size="10.00" fill="#000000">T</text>
</g>
<!-- Node12&#45;&gt;Node11 -->
<g id="edge13" class="edge">
<title>Node12&#45;&gt;Node11</title>
<path fill="none" stroke="#9a32cd" stroke-dasharray="5,2" d="M1372.9565,-458.335C1424.2977,-459.0241 1542.1829,-460.6065 1604.9382,-461.4488"/>
<polygon fill="#9a32cd" stroke="#9a32cd" points="1372.824,-454.833 1362.7779,-458.1984 1372.73,-461.8324 1372.824,-454.833"/>
<text text-anchor="middle" x="1507.5" y="-463" font-family="FreeSans" font-size="10.00" fill="#000000"> elements</text>
</g>
<!-- Node13&#45;&gt;Node6 -->
<g id="edge14" class="edge">
<title>Node13&#45;&gt;Node6</title>
<path fill="none" stroke="#9a32cd" stroke-dasharray="5,2" d="M2215.9072,-616.166C2202.8806,-602.0427 2182.7689,-583.071 2161,-573 2144.3489,-565.2967 2038.7257,-551.2694 1973.749,-543.1866"/>
<polygon fill="#9a32cd" stroke="#9a32cd" points="2213.4544,-618.6746 2222.7173,-623.8174 2218.6832,-614.0206 2213.4544,-618.6746"/>
<text text-anchor="middle" x="2093" y="-576" font-family="FreeSans" font-size="10.00" fill="#000000"> fDBProxy</text>
</g>
<!-- Node14&#45;&gt;Node6 -->
<g id="edge35" class="edge">
<title>Node14&#45;&gt;Node6</title>
<path fill="none" stroke="#9a32cd" stroke-dasharray="5,2" d="M943.307,-562.5796C1019.9884,-560.0328 1145.0721,-555.987 1253,-553 1483.6993,-546.6151 1759.1584,-540.5121 1871.2611,-538.0926"/>
<polygon fill="#9a32cd" stroke="#9a32cd" points="943.1551,-559.0827 933.2771,-562.9134 943.388,-566.0788 943.1551,-559.0827"/>
<text text-anchor="middle" x="1348" y="-568" font-family="FreeSans" font-size="10.00" fill="#000000"> fMetaValid</text>
<text text-anchor="middle" x="1348" y="-556" font-family="FreeSans" font-size="10.00" fill="#000000">fMetaData</text>
</g>
<!-- Node14&#45;&gt;Node13 -->
<g id="edge16" class="edge">
<title>Node14&#45;&gt;Node13</title>
<path fill="none" stroke="#9a32cd" stroke-dasharray="5,2" d="M895.0589,-580.8362C927.2094,-601.5956 987.3256,-637.4275 1044,-655 1111.1339,-675.8155 1130.7131,-674 1201,-674 1201,-674 1201,-674 1922.5,-674 2020.5234,-674 2134.6229,-653.8936 2192.7308,-642.1911"/>
<polygon fill="#9a32cd" stroke="#9a32cd" points="896.6699,-577.7077 886.3856,-575.1612 892.8372,-583.5652 896.6699,-577.7077"/>
<text text-anchor="middle" x="1507.5" y="-689" font-family="FreeSans" font-size="10.00" fill="#000000"> fMetaValid</text>
<text text-anchor="middle" x="1507.5" y="-677" font-family="FreeSans" font-size="10.00" fill="#000000">fMetaData</text>
</g>
<!-- Node15 -->
<g id="node15" class="node">
<title>Node15</title>
<polygon fill="none" stroke="#bfbfbf" points="550,-555 550,-575 731,-575 731,-555 550,-555"/>
<text text-anchor="middle" x="640.5" y="-562" font-family="FreeSans" font-size="10.00" fill="#000000">std::vector&lt; ColumnAttributes &gt;</text>
</g>
<!-- Node15&#45;&gt;Node14 -->
<g id="edge17" class="edge">
<title>Node15&#45;&gt;Node14</title>
<path fill="none" stroke="#9a32cd" stroke-dasharray="5,2" d="M741.4286,-565C764.7644,-565 788.9066,-565 809.9625,-565"/>
<polygon fill="#9a32cd" stroke="#9a32cd" points="741.1344,-561.5001 731.1343,-565 741.1343,-568.5001 741.1344,-561.5001"/>
<text text-anchor="middle" x="770.5" y="-568" font-family="FreeSans" font-size="10.00" fill="#000000"> fColAttr</text>
</g>
<!-- Node16&#45;&gt;Node14 -->
<g id="edge21" class="edge">
<title>Node16&#45;&gt;Node14</title>
<path fill="none" stroke="#9a32cd" stroke-dasharray="5,2" d="M460.2712,-597.8321C462.8797,-597.8957 465.4625,-597.9521 468,-598 612.1724,-600.7193 649.0572,-599.985 792,-581 803.4441,-579.48 815.7136,-577.2922 827.1055,-575.0203"/>
<polygon fill="#9a32cd" stroke="#9a32cd" points="460.2155,-594.3294 450.1236,-597.5549 460.0243,-601.3268 460.2155,-594.3294"/>
<text text-anchor="middle" x="640.5" y="-602" font-family="FreeSans" font-size="10.00" fill="#000000"> fgDummy</text>
</g>
<!-- Node16&#45;&gt;Node15 -->
<g id="edge18" class="edge">
<title>Node16&#45;&gt;Node15</title>
<path fill="none" stroke="#9a32cd" stroke-dasharray="5,2" d="M460.089,-586.4775C490.0189,-582.9144 525.0186,-578.7478 556.1839,-575.0376"/>
<polygon fill="#9a32cd" stroke="#9a32cd" points="459.6622,-583.0035 450.1461,-587.6612 460.4898,-589.9544 459.6622,-583.0035"/>
<text text-anchor="middle" x="500" y="-588" font-family="FreeSans" font-size="10.00" fill="#000000"> elements</text>
</g>
<!-- Node17 -->
<g id="node17" class="node">
<title>Node17</title>
<g id="a_node17"><a xlink:href="../../d6/dc7/classFairDbFieldType.html" target="_top" xlink:title="FairDbFieldType">
<polygon fill="none" stroke="#000000" points="144,-759 144,-779 239,-779 239,-759 144,-759"/>
<text text-anchor="middle" x="191.5" y="-766" font-family="FreeSans" font-size="10.00" fill="#000000">FairDbFieldType</text>
</a>
</g>
</g>
<!-- Node17&#45;&gt;Node16 -->
<g id="edge19" class="edge">
<title>Node17&#45;&gt;Node16</title>
<path fill="none" stroke="#9a32cd" stroke-dasharray="5,2" d="M210.7281,-752.0168C248.7129,-718.4668 332.9125,-644.0976 370.1622,-611.1968"/>
<polygon fill="#9a32cd" stroke="#9a32cd" points="208.1211,-749.6496 202.9431,-758.8929 212.7551,-754.8962 208.1211,-749.6496"/>
<text text-anchor="middle" x="283" y="-710" font-family="FreeSans" font-size="10.00" fill="#000000"> Type</text>
</g>
<!-- Node18 -->
<g id="node18" class="node">
<title>Node18</title>
<g id="a_node18"><a xlink:href="../../d4/d94/classFairDbMultConnector.html" target="_top" xlink:title="FairDbMultConnector">
<polygon fill="none" stroke="#000000" points="1584.5,-597 1584.5,-617 1707.5,-617 1707.5,-597 1584.5,-597"/>
<text text-anchor="middle" x="1646" y="-604" font-family="FreeSans" font-size="10.00" fill="#000000">FairDbMultConnector</text>
</a>
</g>
</g>
<!-- Node18&#45;&gt;Node6 -->
<g id="edge38" class="edge">
<title>Node18&#45;&gt;Node6</title>
<path fill="none" stroke="#9a32cd" stroke-dasharray="5,2" d="M1695.5821,-594.4476C1749.2041,-580.8724 1833.6124,-559.5032 1882.9578,-547.0107"/>
<polygon fill="#9a32cd" stroke="#9a32cd" points="1694.4509,-591.1235 1685.6157,-596.9707 1696.1689,-597.9094 1694.4509,-591.1235"/>
<text text-anchor="middle" x="1779" y="-585" font-family="FreeSans" font-size="10.00" fill="#000000"> fMultConnector</text>
</g>
<!-- Node18&#45;&gt;Node13 -->
<g id="edge24" class="edge">
<title>Node18&#45;&gt;Node13</title>
<path fill="none" stroke="#9a32cd" stroke-dasharray="5,2" d="M1718.0183,-610.3239C1843.1531,-616.0994 2096.5479,-627.7945 2192.7664,-632.2354"/>
<polygon fill="#9a32cd" stroke="#9a32cd" points="1717.926,-606.816 1707.7752,-609.8512 1717.6032,-613.8086 1717.926,-606.816"/>
<text text-anchor="middle" x="1922.5" y="-626" font-family="FreeSans" font-size="10.00" fill="#000000"> fMultConnector</text>
</g>
<!-- Node19 -->
<g id="node19" class="node">
<title>Node19</title>
<polygon fill="none" stroke="#bfbfbf" points="1277.5,-586 1277.5,-606 1418.5,-606 1418.5,-586 1277.5,-586"/>
<text text-anchor="middle" x="1348" y="-593" font-family="FreeSans" font-size="10.00" fill="#000000">std::map&lt; string, Int_t &gt;</text>
</g>
<!-- Node19&#45;&gt;Node18 -->
<g id="edge25" class="edge">
<title>Node19&#45;&gt;Node18</title>
<path fill="none" stroke="#9a32cd" stroke-dasharray="5,2" d="M1428.5866,-596.5105C1466.6386,-597.0216 1512.6733,-598.0281 1554,-600 1563.7601,-600.4657 1574.0925,-601.1069 1584.1703,-601.8135"/>
<polygon fill="#9a32cd" stroke="#9a32cd" points="1428.6288,-593.0109 1418.5856,-596.3851 1428.5409,-600.0103 1428.6288,-593.0109"/>
<text text-anchor="middle" x="1507.5" y="-603" font-family="FreeSans" font-size="10.00" fill="#000000"> fTemporaryTables</text>
</g>
<!-- Node20 -->
<g id="node20" class="node">
<title>Node20</title>
<polygon fill="none" stroke="#bfbfbf" points="1074,-586 1074,-606 1119,-606 1119,-586 1074,-586"/>
<text text-anchor="middle" x="1096.5" y="-593" font-family="FreeSans" font-size="10.00" fill="#000000">string</text>
</g>
<!-- Node20&#45;&gt;Node19 -->
<g id="edge26" class="edge">
<title>Node20&#45;&gt;Node19</title>
<path fill="none" stroke="#9a32cd" stroke-dasharray="5,2" d="M1129.5878,-596C1167.006,-596 1229.0195,-596 1277.4264,-596"/>
<polygon fill="#9a32cd" stroke="#9a32cd" points="1129.2626,-592.5001 1119.2625,-596 1129.2625,-599.5001 1129.2626,-592.5001"/>
<text text-anchor="middle" x="1201" y="-599" font-family="FreeSans" font-size="10.00" fill="#000000"> keys</text>
</g>
<!-- Node21 -->
<g id="node21" class="node">
<title>Node21</title>
<polygon fill="none" stroke="#bfbfbf" points="1253,-625 1253,-645 1443,-645 1443,-625 1253,-625"/>
<text text-anchor="middle" x="1348" y="-632" font-family="FreeSans" font-size="10.00" fill="#000000">std::vector&lt; FairDbConnection * &gt;</text>
</g>
<!-- Node21&#45;&gt;Node18 -->
<g id="edge27" class="edge">
<title>Node21&#45;&gt;Node18</title>
<path fill="none" stroke="#9a32cd" stroke-dasharray="5,2" d="M1453.2328,-625.1124C1497.0237,-620.9978 1546.3496,-616.3631 1584.1426,-612.8121"/>
<polygon fill="#9a32cd" stroke="#9a32cd" points="1452.7371,-621.6434 1443.1084,-626.0636 1453.392,-628.6127 1452.7371,-621.6434"/>
<text text-anchor="middle" x="1507.5" y="-627" font-family="FreeSans" font-size="10.00" fill="#000000"> fConnections</text>
</g>
<!-- Node22&#45;&gt;Node21 -->
<g id="edge28" class="edge">
<title>Node22&#45;&gt;Node21</title>
<path fill="none" stroke="#9a32cd" stroke-dasharray="5,2" d="M1159.3665,-635C1187.6438,-635 1221.6338,-635 1252.9249,-635"/>
<polygon fill="#9a32cd" stroke="#9a32cd" points="1159.2227,-631.5001 1149.2226,-635 1159.2226,-638.5001 1159.2227,-631.5001"/>
<text text-anchor="middle" x="1201" y="-638" font-family="FreeSans" font-size="10.00" fill="#000000"> elements</text>
</g>
<!-- Node23 -->
<g id="node23" class="node">
<title>Node23</title>
<g id="a_node23"><a xlink:href="../../d3/d45/classFairDbExceptionLog.html" target="_top" xlink:title="FairDbExceptionLog">
<polygon fill="none" stroke="#000000" points="813.5,-409 813.5,-429 929.5,-429 929.5,-409 813.5,-409"/>
<text text-anchor="middle" x="871.5" y="-416" font-family="FreeSans" font-size="10.00" fill="#000000">FairDbExceptionLog</text>
</a>
</g>
</g>
<!-- Node23&#45;&gt;Node3 -->
<g id="edge42" class="edge">
<title>Node23&#45;&gt;Node3</title>
<path fill="none" stroke="#9a32cd" stroke-dasharray="5,2" d="M939.9128,-419C984.502,-419 1043.9525,-419 1096.5,-419 1096.5,-419 1096.5,-419 1507.5,-419 1800.006,-419 1870.7617,-377.3518 2161,-341 2244.2005,-330.5793 2268.7804,-343.4804 2348,-316 2364.3206,-310.3386 2381.1557,-299.8594 2392.4557,-292.0252"/>
<polygon fill="#9a32cd" stroke="#9a32cd" points="939.7738,-415.5001 929.7738,-419 939.7737,-422.5001 939.7738,-415.5001"/>
<text text-anchor="middle" x="1646" y="-421" font-family="FreeSans" font-size="10.00" fill="#000000"> fExceptionLog</text>
</g>
<!-- Node23&#45;&gt;Node22 -->
<g id="edge29" class="edge">
<title>Node23&#45;&gt;Node22</title>
<path fill="none" stroke="#9a32cd" stroke-dasharray="5,2" d="M883.2245,-437.8949C908.1714,-476.6333 970.2974,-565.6396 1044,-616 1049.2021,-619.5545 1055.1471,-622.529 1061.1224,-624.9887"/>
<polygon fill="#9a32cd" stroke="#9a32cd" points="886.0106,-435.753 877.6986,-429.1833 880.0995,-439.5025 886.0106,-435.753"/>
<text text-anchor="middle" x="988.5" y="-602" font-family="FreeSans" font-size="10.00" fill="#000000"> fExceptionLog</text>
</g>
<!-- Node23&#45;&gt;Node23 -->
<g id="edge30" class="edge">
<title>Node23&#45;&gt;Node23</title>
<path fill="none" stroke="#9a32cd" stroke-dasharray="5,2" d="M853.0249,-438.9109C854.3553,-443.8307 860.5137,-447.5 871.5,-447.5 889.0781,-447.5 894.2966,-438.1067 887.1555,-429.2271"/>
<polygon fill="#9a32cd" stroke="#9a32cd" points="856.4094,-439.8068 855.8445,-429.2271 849.6884,-437.8499 856.4094,-439.8068"/>
<text text-anchor="middle" x="871.5" y="-450.5" font-family="FreeSans" font-size="10.00" fill="#000000"> fgGELog</text>
</g>
<!-- Node24 -->
<g id="node24" class="node">
<title>Node24</title>
<polygon fill="none" stroke="#bfbfbf" points="553,-428 553,-448 728,-448 728,-428 553,-428"/>
<text text-anchor="middle" x="640.5" y="-435" font-family="FreeSans" font-size="10.00" fill="#000000">std::vector&lt; FairDbException &gt;</text>
</g>
<!-- Node24&#45;&gt;Node23 -->
<g id="edge31" class="edge">
<title>Node24&#45;&gt;Node23</title>
<path fill="none" stroke="#9a32cd" stroke-dasharray="5,2" d="M738.2536,-429.9597C763.7858,-427.8596 790.5033,-425.6621 813.2538,-423.7908"/>
<polygon fill="#9a32cd" stroke="#9a32cd" points="737.84,-426.4818 728.1606,-430.7898 738.4139,-433.4582 737.84,-426.4818"/>
<text text-anchor="middle" x="770.5" y="-432" font-family="FreeSans" font-size="10.00" fill="#000000"> fEntries</text>
</g>
<!-- Node25&#45;&gt;Node24 -->
<g id="edge32" class="edge">
<title>Node25&#45;&gt;Node24</title>
<path fill="none" stroke="#9a32cd" stroke-dasharray="5,2" d="M447.9873,-444.8755C479.2803,-443.7578 518.2464,-442.3662 552.9201,-441.1279"/>
<polygon fill="#9a32cd" stroke="#9a32cd" points="447.555,-441.3886 437.6864,-445.2433 447.8049,-448.3841 447.555,-441.3886"/>
<text text-anchor="middle" x="500" y="-447" font-family="FreeSans" font-size="10.00" fill="#000000"> elements</text>
</g>
<!-- Node26&#45;&gt;Node4 -->
<g id="edge39" class="edge">
<title>Node26&#45;&gt;Node4</title>
<path fill="none" stroke="#9a32cd" stroke-dasharray="5,2" d="M1688.6154,-221.2648C1756.1638,-223.357 1891.9591,-227.9187 2007,-234 2065.9663,-237.1171 2133.5905,-241.7982 2178.9738,-245.1004"/>
<polygon fill="#9a32cd" stroke="#9a32cd" points="1688.4767,-217.759 1678.3739,-220.9503 1688.2618,-224.7557 1688.4767,-217.759"/>
<text text-anchor="middle" x="1922.5" y="-237" font-family="FreeSans" font-size="10.00" fill="#000000"> fValRange</text>
</g>
<!-- Node27&#45;&gt;Node3 -->
<g id="edge43" class="edge">
<title>Node27&#45;&gt;Node3</title>
<path fill="none" stroke="#9a32cd" stroke-dasharray="5,2" d="M2171.3991,-292.4933C2233.1266,-289.7324 2316.6519,-285.9964 2365.5873,-283.8076"/>
<polygon fill="#9a32cd" stroke="#9a32cd" points="2171.136,-289.0015 2161.3024,-292.9449 2171.4488,-295.9945 2171.136,-289.0015"/>
<text text-anchor="middle" x="2231" y="-294" font-family="FreeSans" font-size="10.00" fill="#000000"> fIndexKeys</text>
</g>
<!-- Node28&#45;&gt;Node3 -->
<g id="edge46" class="edge">
<title>Node28&#45;&gt;Node3</title>
<path fill="none" stroke="#9a32cd" stroke-dasharray="5,2" d="M2250.689,-149.7638C2287.1149,-180.7779 2364.0235,-246.26 2393.8344,-271.6418"/>
<polygon fill="#9a32cd" stroke="#9a32cd" points="2252.637,-146.8256 2242.754,-143.0077 2248.099,-152.1554 2252.637,-146.8256"/>
<text text-anchor="middle" x="2324.5" y="-233" font-family="FreeSans" font-size="10.00" fill="#000000"> fKey</text>
</g>
<!-- Node28&#45;&gt;Node28 -->
<g id="edge52" class="edge">
<title>Node28&#45;&gt;Node28</title>
<path fill="none" stroke="#9a32cd" stroke-dasharray="5,2" d="M2214.0029,-152.9109C2215.2269,-157.8307 2220.8926,-161.5 2231,-161.5 2247.1719,-161.5 2251.9729,-152.1067 2245.4031,-143.2271"/>
<polygon fill="#9a32cd" stroke="#9a32cd" points="2217.3902,-153.7922 2216.5969,-143.2271 2210.6286,-151.9809 2217.3902,-153.7922"/>
<text text-anchor="middle" x="2231" y="-164.5" font-family="FreeSans" font-size="10.00" fill="#000000"> fgEmptyKey</text>
</g>
<!-- Node29 -->
<g id="node29" class="node">
<title>Node29</title>
<polygon fill="none" stroke="#bfbfbf" points="1849,-75 1849,-107 1996,-107 1996,-75 1849,-75"/>
<text text-anchor="start" x="1857" y="-94" font-family="FreeSans" font-size="10.00" fill="#000000">std::list&lt; FairDbResultKey</text>
<text text-anchor="middle" x="1922.5" y="-82" font-family="FreeSans" font-size="10.00" fill="#000000">::VRecKey &gt;</text>
</g>
<!-- Node29&#45;&gt;Node28 -->
<g id="edge48" class="edge">
<title>Node29&#45;&gt;Node28</title>
<path fill="none" stroke="#9a32cd" stroke-dasharray="5,2" d="M2006.4213,-92.8138C2052.4335,-95.0246 2110.2693,-99.7968 2161,-110 2176.049,-113.0267 2192.3704,-118.2696 2205.4647,-122.986"/>
<polygon fill="#9a32cd" stroke="#9a32cd" points="2006.3395,-89.3067 1996.1926,-92.3549 2006.0257,-96.2997 2006.3395,-89.3067"/>
<text text-anchor="middle" x="2093" y="-113" font-family="FreeSans" font-size="10.00" fill="#000000"> fVRecKeys</text>
</g>
<!-- Node30&#45;&gt;Node29 -->
<g id="edge49" class="edge">
<title>Node30&#45;&gt;Node29</title>
<path fill="none" stroke="#9a32cd" stroke-dasharray="5,2" d="M1730.5566,-91.6942C1768.2758,-91.5578 1812.3084,-91.3985 1848.6784,-91.267"/>
<polygon fill="#9a32cd" stroke="#9a32cd" points="1730.0842,-88.1958 1720.0969,-91.732 1730.1096,-95.1957 1730.0842,-88.1958"/>
<text text-anchor="middle" x="1779" y="-95" font-family="FreeSans" font-size="10.00" fill="#000000"> elements</text>
</g>
</g>
</svg>
