<?xml version="1.0" encoding="UTF-8" standalone="no"?>
<!DOCTYPE svg PUBLIC "-//W3C//DTD SVG 1.1//EN"
 "http://www.w3.org/Graphics/SVG/1.1/DTD/svg11.dtd">
<!-- Generated by graphviz version 2.40.1 (20161225.0304)
 -->
<!-- Title: TrkrHitSet::identify Pages: 1 -->
<svg width="494pt" height="92pt"
 viewBox="0.00 0.00 494.00 92.00" xmlns="http://www.w3.org/2000/svg" xmlns:xlink="http://www.w3.org/1999/xlink">
<g id="graph0" class="graph" transform="scale(1 1) rotate(0) translate(4 88)">
<title>TrkrHitSet::identify</title>
<!-- Node1 -->
<g id="node1" class="node">
<title>Node1</title>
<polygon fill="#bfbfbf" stroke="#000000" points="0,-31.5 0,-51.5 112,-51.5 112,-31.5 0,-31.5"/>
<text text-anchor="middle" x="56" y="-38.5" font-family="FreeSans" font-size="10.00" fill="#000000">TrkrHitSet::identify</text>
</g>
<!-- Node2 -->
<g id="node2" class="node">
<title>Node2</title>
<g id="a_node2"><a xlink:href="../../d5/d86/classInttClusterizer.html#aa896d5f1adf8ac34a5ae766fd4d557bc" target="_top" xlink:title="InttClusterizer::Cluster\lLadderCells">
<polygon fill="none" stroke="#000000" points="164,-49.5 164,-81.5 294,-81.5 294,-49.5 164,-49.5"/>
<text text-anchor="start" x="172" y="-68.5" font-family="FreeSans" font-size="10.00" fill="#000000">InttClusterizer::Cluster</text>
<text text-anchor="middle" x="229" y="-56.5" font-family="FreeSans" font-size="10.00" fill="#000000">LadderCells</text>
</a>
</g>
</g>
<!-- Node1&#45;&gt;Node2 -->
<g id="edge1" class="edge">
<title>Node1&#45;&gt;Node2</title>
<path fill="none" stroke="#191970" d="M122.3927,-50.7106C135.973,-52.5945 150.2533,-54.5756 163.7916,-56.4537"/>
<polygon fill="#191970" stroke="#191970" points="122.5543,-47.1995 112.1681,-49.2921 121.5923,-54.1331 122.5543,-47.1995"/>
</g>
<!-- Node4 -->
<g id="node4" class="node">
<title>Node4</title>
<g id="a_node4"><a xlink:href="../../dc/d12/classMvtxClusterizer.html#a1aa96e33d67d25815d5b5812566cc5b7" target="_top" xlink:title="MvtxClusterizer::ClusterMvtx">
<polygon fill="none" stroke="#000000" points="148,-9.5 148,-29.5 310,-29.5 310,-9.5 148,-9.5"/>
<text text-anchor="middle" x="229" y="-16.5" font-family="FreeSans" font-size="10.00" fill="#000000">MvtxClusterizer::ClusterMvtx</text>
</a>
</g>
</g>
<!-- Node1&#45;&gt;Node4 -->
<g id="edge3" class="edge">
<title>Node1&#45;&gt;Node4</title>
<path fill="none" stroke="#191970" d="M122.3043,-33.0682C131.4219,-31.9088 140.8566,-30.709 150.1718,-29.5244"/>
<polygon fill="#191970" stroke="#191970" points="121.6467,-29.6236 112.1681,-34.3572 122.5298,-36.5677 121.6467,-29.6236"/>
</g>
<!-- Node3 -->
<g id="node3" class="node">
<title>Node3</title>
<g id="a_node3"><a xlink:href="../../d5/d86/classInttClusterizer.html#a12f21f7ac9373c592f8ba3e7287f6c8a" target="_top" xlink:title="event processing">
<polygon fill="none" stroke="#000000" points="349.5,-51.5 349.5,-83.5 482.5,-83.5 482.5,-51.5 349.5,-51.5"/>
<text text-anchor="start" x="357.5" y="-70.5" font-family="FreeSans" font-size="10.00" fill="#000000">InttClusterizer::process</text>
<text text-anchor="middle" x="416" y="-58.5" font-family="FreeSans" font-size="10.00" fill="#000000">_event</text>
</a>
</g>
</g>
<!-- Node2&#45;&gt;Node3 -->
<g id="edge2" class="edge">
<title>Node2&#45;&gt;Node3</title>
<path fill="none" stroke="#191970" d="M304.3018,-66.3054C319.1535,-66.4642 334.6425,-66.6299 349.1905,-66.7855"/>
<polygon fill="#191970" stroke="#191970" points="304.1779,-62.8039 294.141,-66.1967 304.103,-69.8035 304.1779,-62.8039"/>
</g>
<!-- Node5 -->
<g id="node5" class="node">
<title>Node5</title>
<g id="a_node5"><a xlink:href="../../dc/d12/classMvtxClusterizer.html#a65c6ecb960ca545df424342dbe6de5b8" target="_top" xlink:title="event processing">
<polygon fill="none" stroke="#000000" points="346,-.5 346,-32.5 486,-32.5 486,-.5 346,-.5"/>
<text text-anchor="start" x="354" y="-19.5" font-family="FreeSans" font-size="10.00" fill="#000000">MvtxClusterizer::process</text>
<text text-anchor="middle" x="416" y="-7.5" font-family="FreeSans" font-size="10.00" fill="#000000">_event</text>
</a>
</g>
</g>
<!-- Node4&#45;&gt;Node5 -->
<g id="edge4" class="edge">
<title>Node4&#45;&gt;Node5</title>
<path fill="none" stroke="#191970" d="M320.2311,-18.0364C328.7964,-17.899 337.3871,-17.7612 345.7154,-17.6276"/>
<polygon fill="#191970" stroke="#191970" points="320.1476,-14.5372 310.2051,-18.1972 320.26,-21.5363 320.1476,-14.5372"/>
</g>
</g>
</svg>
