<?xml version="1.0" encoding="UTF-8" standalone="no"?>
<!DOCTYPE svg PUBLIC "-//W3C//DTD SVG 1.1//EN"
 "http://www.w3.org/Graphics/SVG/1.1/DTD/svg11.dtd">
<!-- Generated by graphviz version 2.40.1 (20161225.0304)
 -->
<!-- Title: PHG4Particle::get_pz Pages: 1 -->
<svg width="792pt" height="1514pt"
 viewBox="0.00 0.00 792.00 1514.00" xmlns="http://www.w3.org/2000/svg" xmlns:xlink="http://www.w3.org/1999/xlink">
<g id="graph0" class="graph" transform="scale(1 1) rotate(0) translate(4 1510)">
<title>PHG4Particle::get_pz</title>
<!-- Node1 -->
<g id="node1" class="node">
<title>Node1</title>
<polygon fill="#bfbfbf" stroke="#000000" points="0,-772.5 0,-792.5 122,-792.5 122,-772.5 0,-772.5"/>
<text text-anchor="middle" x="61" y="-779.5" font-family="FreeSans" font-size="10.00" fill="#000000">PHG4Particle::get_pz</text>
</g>
<!-- Node2 -->
<g id="node2" class="node">
<title>Node2</title>
<g id="a_node2"><a xlink:href="../../d4/dc9/classPHG4DSTReader.html#a800782dd1b7ce1294a4760d71f609708" target="_top" xlink:title="add a particle and associated vertex if _save_vertex">
<polygon fill="none" stroke="#000000" points="184,-1473.5 184,-1505.5 310,-1505.5 310,-1473.5 184,-1473.5"/>
<text text-anchor="start" x="192" y="-1492.5" font-family="FreeSans" font-size="10.00" fill="#000000">PHG4DSTReader::add</text>
<text text-anchor="middle" x="247" y="-1480.5" font-family="FreeSans" font-size="10.00" fill="#000000">_particle</text>
</a>
</g>
</g>
<!-- Node1&#45;&gt;Node2 -->
<g id="edge1" class="edge">
<title>Node1&#45;&gt;Node2</title>
<path fill="none" stroke="#191970" d="M62.5678,-802.743C71.0789,-910.4326 113.0117,-1413.1147 158,-1464.5 164.8719,-1472.349 173.9918,-1477.8239 183.7752,-1481.6242"/>
<polygon fill="#191970" stroke="#191970" points="66.0424,-802.2815 61.772,-792.5854 59.0638,-802.8283 66.0424,-802.2815"/>
</g>
<!-- Node4 -->
<g id="node4" class="node">
<title>Node4</title>
<g id="a_node4"><a xlink:href="../../da/d6c/classPHG4TruthInfoContainer.html#a2d296833e72596ba63cc1ec8bae8618e" target="_top" xlink:title="Add a particle that the user has created.">
<polygon fill="none" stroke="#000000" points="177.5,-1422.5 177.5,-1454.5 316.5,-1454.5 316.5,-1422.5 177.5,-1422.5"/>
<text text-anchor="start" x="185.5" y="-1441.5" font-family="FreeSans" font-size="10.00" fill="#000000">PHG4TruthInfoContainer</text>
<text text-anchor="middle" x="247" y="-1429.5" font-family="FreeSans" font-size="10.00" fill="#000000">::AddParticle</text>
</a>
</g>
</g>
<!-- Node1&#45;&gt;Node4 -->
<g id="edge3" class="edge">
<title>Node1&#45;&gt;Node4</title>
<path fill="none" stroke="#191970" d="M61.4323,-803.1578C63.8704,-900.4781 78.7918,-1312.4617 158,-1407.5 163.3424,-1413.9101 170.0885,-1418.9966 177.4669,-1423.0323"/>
<polygon fill="#191970" stroke="#191970" points="64.9252,-802.8077 61.1934,-792.8918 57.9271,-802.9706 64.9252,-802.8077"/>
</g>
<!-- Node9 -->
<g id="node9" class="node">
<title>Node9</title>
<g id="a_node9"><a xlink:href="../../d3/d32/classActsEvaluator.html#a1dcade956fd83a14249e38b5783b0f00" target="_top" xlink:title="Function to evaluate Trajectories fit results from the KF.">
<polygon fill="none" stroke="#000000" points="372,-1312.5 372,-1332.5 553,-1332.5 553,-1312.5 372,-1312.5"/>
<text text-anchor="middle" x="462.5" y="-1319.5" font-family="FreeSans" font-size="10.00" fill="#000000">ActsEvaluator::evaluateTrackFits</text>
</a>
</g>
</g>
<!-- Node1&#45;&gt;Node9 -->
<g id="edge8" class="edge">
<title>Node1&#45;&gt;Node9</title>
<path fill="none" stroke="#191970" d="M62.7732,-802.7101C71.6975,-902.1589 113.0479,-1336.3139 158,-1374.5 218.2932,-1425.7181 258.3883,-1389.8295 336,-1374.5 356.9072,-1370.3705 410.688,-1346.4666 440.9635,-1332.549"/>
<polygon fill="#191970" stroke="#191970" points="66.2389,-802.1679 61.8674,-792.5169 59.2663,-802.7875 66.2389,-802.1679"/>
</g>
<!-- Node11 -->
<g id="node11" class="node">
<title>Node11</title>
<g id="a_node11"><a xlink:href="../../d8/d97/classTrackFastSimEval.html#a028f8bc89f4762789e280d64e7fcfe62" target="_top" xlink:title="TrackFastSimEval::fill\l_track_tree">
<polygon fill="none" stroke="#000000" points="185.5,-1332.5 185.5,-1364.5 308.5,-1364.5 308.5,-1332.5 185.5,-1332.5"/>
<text text-anchor="start" x="193.5" y="-1351.5" font-family="FreeSans" font-size="10.00" fill="#000000">TrackFastSimEval::fill</text>
<text text-anchor="middle" x="247" y="-1339.5" font-family="FreeSans" font-size="10.00" fill="#000000">_track_tree</text>
</a>
</g>
</g>
<!-- Node1&#45;&gt;Node11 -->
<g id="edge10" class="edge">
<title>Node1&#45;&gt;Node11</title>
<path fill="none" stroke="#191970" d="M61.8428,-802.9657C65.9178,-891.997 86.4116,-1244.6528 158,-1323.5 165.3362,-1331.58 175.0546,-1337.1315 185.372,-1340.9275"/>
<polygon fill="#191970" stroke="#191970" points="65.3329,-802.6603 61.3987,-792.823 58.3396,-802.9666 65.3329,-802.6603"/>
</g>
<!-- Node12 -->
<g id="node12" class="node">
<title>Node12</title>
<g id="a_node12"><a xlink:href="../../d0/d71/classPHG4TrackFastSimEval.html#a52a746bdc6e84dc7886b5bae0b608e68" target="_top" xlink:title="PHG4TrackFastSimEval\l::fill_track_tree">
<polygon fill="none" stroke="#000000" points="181.5,-1242.5 181.5,-1274.5 312.5,-1274.5 312.5,-1242.5 181.5,-1242.5"/>
<text text-anchor="start" x="189.5" y="-1261.5" font-family="FreeSans" font-size="10.00" fill="#000000">PHG4TrackFastSimEval</text>
<text text-anchor="middle" x="247" y="-1249.5" font-family="FreeSans" font-size="10.00" fill="#000000">::fill_track_tree</text>
</a>
</g>
</g>
<!-- Node1&#45;&gt;Node12 -->
<g id="edge11" class="edge">
<title>Node1&#45;&gt;Node12</title>
<path fill="none" stroke="#191970" d="M62.6199,-802.7535C69.3499,-881.9216 97.6186,-1169.2545 158,-1233.5 164.3751,-1240.283 172.4298,-1245.2758 181.076,-1248.9413"/>
<polygon fill="#191970" stroke="#191970" points="66.0954,-802.3117 61.782,-792.6347 59.1193,-802.8894 66.0954,-802.3117"/>
</g>
<!-- Node14 -->
<g id="node14" class="node">
<title>Node14</title>
<g id="a_node14"><a xlink:href="../../d3/d32/classActsEvaluator.html#a2d5f8783b3bd1893a78f05bde5c04e34" target="_top" xlink:title="ActsEvaluator::fillG4Particle">
<polygon fill="none" stroke="#000000" points="168.5,-1293.5 168.5,-1313.5 325.5,-1313.5 325.5,-1293.5 168.5,-1293.5"/>
<text text-anchor="middle" x="247" y="-1300.5" font-family="FreeSans" font-size="10.00" fill="#000000">ActsEvaluator::fillG4Particle</text>
</a>
</g>
</g>
<!-- Node1&#45;&gt;Node14 -->
<g id="edge13" class="edge">
<title>Node1&#45;&gt;Node14</title>
<path fill="none" stroke="#191970" d="M62.0099,-802.6653C66.6726,-887.4732 88.9225,-1214.0656 158,-1284.5 161.4295,-1287.9968 165.3334,-1290.9254 169.5467,-1293.372"/>
<polygon fill="#191970" stroke="#191970" points="65.4983,-802.3529 61.4755,-792.5515 58.5081,-802.7223 65.4983,-802.3529"/>
</g>
<!-- Node15 -->
<g id="node15" class="node">
<title>Node15</title>
<g id="a_node15"><a xlink:href="../../d6/d11/classSvtxEvaluator.html#ace95fef2b7b4ad8b797f6695e053dd6e" target="_top" xlink:title="dump the evaluator information into ntuple for external analysis">
<polygon fill="none" stroke="#000000" points="176.5,-1191.5 176.5,-1223.5 317.5,-1223.5 317.5,-1191.5 176.5,-1191.5"/>
<text text-anchor="start" x="184.5" y="-1210.5" font-family="FreeSans" font-size="10.00" fill="#000000">SvtxEvaluator::fillOutput</text>
<text text-anchor="middle" x="247" y="-1198.5" font-family="FreeSans" font-size="10.00" fill="#000000">Ntuples</text>
</a>
</g>
</g>
<!-- Node1&#45;&gt;Node15 -->
<g id="edge15" class="edge">
<title>Node1&#45;&gt;Node15</title>
<path fill="none" stroke="#191970" d="M63.2206,-802.7742C71.6513,-876.1496 103.9613,-1126.4837 158,-1182.5 163.2372,-1187.9288 169.5512,-1192.2069 176.3702,-1195.5738"/>
<polygon fill="#191970" stroke="#191970" points="66.6692,-802.1201 62.0729,-792.5741 59.7131,-802.9028 66.6692,-802.1201"/>
</g>
<!-- Node17 -->
<g id="node17" class="node">
<title>Node17</title>
<g id="a_node17"><a xlink:href="../../dd/d59/classCaloEvaluator.html#a5298ee9646d361a4960fc0e20f83c880" target="_top" xlink:title="dump the evaluator information into ntuple for external analysis">
<polygon fill="none" stroke="#000000" points="176.5,-960.5 176.5,-992.5 317.5,-992.5 317.5,-960.5 176.5,-960.5"/>
<text text-anchor="start" x="184.5" y="-979.5" font-family="FreeSans" font-size="10.00" fill="#000000">CaloEvaluator::fillOutput</text>
<text text-anchor="middle" x="247" y="-967.5" font-family="FreeSans" font-size="10.00" fill="#000000">Ntuples</text>
</a>
</g>
</g>
<!-- Node1&#45;&gt;Node17 -->
<g id="edge17" class="edge">
<title>Node1&#45;&gt;Node17</title>
<path fill="none" stroke="#191970" d="M66.8498,-802.3557C78.3275,-837.7972 107.2094,-911.9352 158,-951.5 163.571,-955.8397 169.856,-959.4261 176.4452,-962.39"/>
<polygon fill="#191970" stroke="#191970" points="70.1527,-801.19 63.8415,-792.68 63.4683,-803.2683 70.1527,-801.19"/>
</g>
<!-- Node19 -->
<g id="node19" class="node">
<title>Node19</title>
<g id="a_node19"><a xlink:href="../../db/d22/classEventEvaluator.html#ada437671569f41f49d8efe8235d569ab" target="_top" xlink:title="dump the evaluator information into ntuple for external analysis">
<polygon fill="none" stroke="#000000" points="173,-831.5 173,-863.5 321,-863.5 321,-831.5 173,-831.5"/>
<text text-anchor="start" x="181" y="-850.5" font-family="FreeSans" font-size="10.00" fill="#000000">EventEvaluator::fillOutput</text>
<text text-anchor="middle" x="247" y="-838.5" font-family="FreeSans" font-size="10.00" fill="#000000">Ntuples</text>
</a>
</g>
</g>
<!-- Node1&#45;&gt;Node19 -->
<g id="edge19" class="edge">
<title>Node1&#45;&gt;Node19</title>
<path fill="none" stroke="#191970" d="M92.7134,-796.6812C111.4885,-804.7981 135.8596,-814.8549 158,-822.5 166.9506,-825.5907 176.5028,-828.5846 185.9039,-831.3623"/>
<polygon fill="#191970" stroke="#191970" points="94.0119,-793.4292 83.4468,-792.6365 91.2116,-799.8447 94.0119,-793.4292"/>
</g>
<!-- Node21 -->
<g id="node21" class="node">
<title>Node21</title>
<g id="a_node21"><a xlink:href="../../dd/de6/classKFParticle__truthAndDetTools.html#aacd7464b07f03f83a4d7e2de49e63a50" target="_top" xlink:title="KFParticle_truthAndDetTools\l::fillTruthBranch">
<polygon fill="none" stroke="#000000" points="168,-1140.5 168,-1172.5 326,-1172.5 326,-1140.5 168,-1140.5"/>
<text text-anchor="start" x="176" y="-1159.5" font-family="FreeSans" font-size="10.00" fill="#000000">KFParticle_truthAndDetTools</text>
<text text-anchor="middle" x="247" y="-1147.5" font-family="FreeSans" font-size="10.00" fill="#000000">::fillTruthBranch</text>
</a>
</g>
</g>
<!-- Node1&#45;&gt;Node21 -->
<g id="edge21" class="edge">
<title>Node1&#45;&gt;Node21</title>
<path fill="none" stroke="#191970" d="M63.9854,-802.7498C74.2718,-869.8879 110.2498,-1083.6184 158,-1131.5 161.3999,-1134.9093 165.2252,-1137.8628 169.3295,-1140.4206"/>
<polygon fill="#191970" stroke="#191970" points="67.4116,-801.997 62.4608,-792.63 60.4897,-803.0399 67.4116,-801.997"/>
</g>
<!-- Node24 -->
<g id="node24" class="node">
<title>Node24</title>
<g id="a_node24"><a xlink:href="../../da/dbf/classTruthJetInput.html#a2583a24ee2031fc5a2926d20ed69b2b6" target="_top" xlink:title="TruthJetInput::get\l_input">
<polygon fill="none" stroke="#000000" points="194,-1011.5 194,-1043.5 300,-1043.5 300,-1011.5 194,-1011.5"/>
<text text-anchor="start" x="202" y="-1030.5" font-family="FreeSans" font-size="10.00" fill="#000000">TruthJetInput::get</text>
<text text-anchor="middle" x="247" y="-1018.5" font-family="FreeSans" font-size="10.00" fill="#000000">_input</text>
</a>
</g>
</g>
<!-- Node1&#45;&gt;Node24 -->
<g id="edge24" class="edge">
<title>Node1&#45;&gt;Node24</title>
<path fill="none" stroke="#191970" d="M64.0357,-802.7352C71.6199,-846.0606 95.4862,-948.2562 158,-1002.5 168.0614,-1011.2303 180.954,-1016.9275 193.7845,-1020.6407"/>
<polygon fill="#191970" stroke="#191970" points="67.4472,-801.9095 62.3766,-792.6069 60.5393,-803.0411 67.4472,-801.9095"/>
</g>
<!-- Node25 -->
<g id="node25" class="node">
<title>Node25</title>
<g id="a_node25"><a xlink:href="../../d0/da9/classAnaTutorial.html#a02242b2bc3e84ba81f6c6c35527dfdb2" target="_top" xlink:title="AnaTutorial::getPHG4Truth">
<polygon fill="none" stroke="#000000" points="171.5,-1101.5 171.5,-1121.5 322.5,-1121.5 322.5,-1101.5 171.5,-1101.5"/>
<text text-anchor="middle" x="247" y="-1108.5" font-family="FreeSans" font-size="10.00" fill="#000000">AnaTutorial::getPHG4Truth</text>
</a>
</g>
</g>
<!-- Node1&#45;&gt;Node25 -->
<g id="edge25" class="edge">
<title>Node1&#45;&gt;Node25</title>
<path fill="none" stroke="#191970" d="M64.5722,-802.5885C76.0212,-864.7328 113.6563,-1052.0968 158,-1092.5 161.9708,-1096.1179 166.4567,-1099.11 171.2509,-1101.5787"/>
<polygon fill="#191970" stroke="#191970" points="67.972,-801.7205 62.7435,-792.5057 61.0843,-802.9698 67.972,-801.7205"/>
</g>
<!-- Node27 -->
<g id="node27" class="node">
<title>Node27</title>
<g id="a_node27"><a xlink:href="../../d0/da9/classAnaTutorial.html#a54c32a62e705c4464d9652e91c7d46fa" target="_top" xlink:title="Methods for grabbing the data.">
<polygon fill="none" stroke="#000000" points="182.5,-1062.5 182.5,-1082.5 311.5,-1082.5 311.5,-1062.5 182.5,-1062.5"/>
<text text-anchor="middle" x="247" y="-1069.5" font-family="FreeSans" font-size="10.00" fill="#000000">AnaTutorial::getTracks</text>
</a>
</g>
</g>
<!-- Node1&#45;&gt;Node27 -->
<g id="edge27" class="edge">
<title>Node1&#45;&gt;Node27</title>
<path fill="none" stroke="#191970" d="M61.8558,-802.772C65.1448,-853.4116 81.0592,-986.1946 158,-1053.5 165.0161,-1059.6375 173.5256,-1063.9552 182.4673,-1066.9659"/>
<polygon fill="#191970" stroke="#191970" points="65.3351,-802.2972 61.2941,-792.5033 58.3456,-802.6796 65.3351,-802.2972"/>
</g>
<!-- Node28 -->
<g id="node28" class="node">
<title>Node28</title>
<g id="a_node28"><a xlink:href="../../d1/d1e/classSvtxClusterEval.html#abd7851ec294047271ce26d8824d2af81" target="_top" xlink:title="SvtxClusterEval::gtrackid\l_and_layer_by_nhit">
<polygon fill="none" stroke="#000000" points="175.5,-663.5 175.5,-695.5 318.5,-695.5 318.5,-663.5 175.5,-663.5"/>
<text text-anchor="start" x="183.5" y="-682.5" font-family="FreeSans" font-size="10.00" fill="#000000">SvtxClusterEval::gtrackid</text>
<text text-anchor="middle" x="247" y="-670.5" font-family="FreeSans" font-size="10.00" fill="#000000">_and_layer_by_nhit</text>
</a>
</g>
</g>
<!-- Node1&#45;&gt;Node28 -->
<g id="edge29" class="edge">
<title>Node1&#45;&gt;Node28</title>
<path fill="none" stroke="#191970" d="M78.6542,-764.9474C97.0326,-747.5779 127.3655,-721.355 158,-705.5 165.291,-701.7265 173.2092,-698.4247 181.2154,-695.5563"/>
<polygon fill="#191970" stroke="#191970" points="75.8637,-762.7759 71.0931,-772.2359 80.7218,-767.8156 75.8637,-762.7759"/>
</g>
<!-- Node30 -->
<g id="node30" class="node">
<title>Node30</title>
<g id="a_node30"><a xlink:href="../../d5/da2/classPHTruthTrackSeeding.html#a37f708048770642f57f15675683c2cac" target="_top" xlink:title="PHTruthTrackSeeding\l::Process">
<polygon fill="none" stroke="#000000" points="625,-799.5 625,-831.5 748,-831.5 748,-799.5 625,-799.5"/>
<text text-anchor="start" x="633" y="-818.5" font-family="FreeSans" font-size="10.00" fill="#000000">PHTruthTrackSeeding</text>
<text text-anchor="middle" x="686.5" y="-806.5" font-family="FreeSans" font-size="10.00" fill="#000000">::Process</text>
</a>
</g>
</g>
<!-- Node1&#45;&gt;Node30 -->
<g id="edge39" class="edge">
<title>Node1&#45;&gt;Node30</title>
<path fill="none" stroke="#191970" d="M73.7249,-800.9804C90.1985,-823.0892 121.2007,-858.9405 158,-873.5 330.9489,-941.9265 559.0659,-866.7013 648.3554,-831.5706"/>
<polygon fill="#191970" stroke="#191970" points="76.4537,-798.7806 67.766,-792.7164 70.7758,-802.8748 76.4537,-798.7806"/>
</g>
<!-- Node31 -->
<g id="node31" class="node">
<title>Node31</title>
<g id="a_node31"><a xlink:href="../../de/dc9/classPHG4Particle.html#aded94b3c5fbfbfeadfdbf9b670e0c603" target="_top" xlink:title="PHG4Particle::operator==">
<polygon fill="none" stroke="#000000" points="173,-792.5 173,-812.5 321,-812.5 321,-792.5 173,-792.5"/>
<text text-anchor="middle" x="247" y="-799.5" font-family="FreeSans" font-size="10.00" fill="#000000">PHG4Particle::operator==</text>
</a>
</g>
</g>
<!-- Node1&#45;&gt;Node31 -->
<g id="edge32" class="edge">
<title>Node1&#45;&gt;Node31</title>
<path fill="none" stroke="#191970" d="M132.1948,-790.1554C145.5024,-791.5863 159.4412,-793.0851 172.8359,-794.5254"/>
<polygon fill="#191970" stroke="#191970" points="132.4779,-786.6657 122.161,-789.0764 131.7294,-793.6256 132.4779,-786.6657"/>
</g>
<!-- Node32 -->
<g id="node32" class="node">
<title>Node32</title>
<g id="a_node32"><a xlink:href="../../d6/d11/classSvtxEvaluator.html#aef548ddeafdf0ebc949f29e88a741db8" target="_top" xlink:title="print out the ancestry information for detailed diagnosis">
<polygon fill="none" stroke="#000000" points="161.5,-753.5 161.5,-773.5 332.5,-773.5 332.5,-753.5 161.5,-753.5"/>
<text text-anchor="middle" x="247" y="-760.5" font-family="FreeSans" font-size="10.00" fill="#000000">SvtxEvaluator::printOutputInfo</text>
</a>
</g>
</g>
<!-- Node1&#45;&gt;Node32 -->
<g id="edge33" class="edge">
<title>Node1&#45;&gt;Node32</title>
<path fill="none" stroke="#191970" d="M132.2818,-775.2185C141.7422,-774.2521 151.5201,-773.2533 161.1936,-772.2652"/>
<polygon fill="#191970" stroke="#191970" points="131.7535,-771.7542 122.161,-776.2524 132.4649,-778.7179 131.7535,-771.7542"/>
</g>
<!-- Node33 -->
<g id="node33" class="node">
<title>Node33</title>
<g id="a_node33"><a xlink:href="../../dd/d59/classCaloEvaluator.html#ab7e09466d57c5b93274f09f61c0f321e" target="_top" xlink:title="print out the ancestry information for detailed diagnosis">
<polygon fill="none" stroke="#000000" points="161.5,-921.5 161.5,-941.5 332.5,-941.5 332.5,-921.5 161.5,-921.5"/>
<text text-anchor="middle" x="247" y="-928.5" font-family="FreeSans" font-size="10.00" fill="#000000">CaloEvaluator::printOutputInfo</text>
</a>
</g>
</g>
<!-- Node1&#45;&gt;Node33 -->
<g id="edge34" class="edge">
<title>Node1&#45;&gt;Node33</title>
<path fill="none" stroke="#191970" d="M70.7887,-801.5984C85.8112,-828.9868 117.152,-879.1261 158,-906.5 167.7327,-913.0223 179.1517,-917.8577 190.5038,-921.4379"/>
<polygon fill="#191970" stroke="#191970" points="73.7967,-799.8008 66.005,-792.6217 67.6191,-803.0928 73.7967,-799.8008"/>
</g>
<!-- Node34 -->
<g id="node34" class="node">
<title>Node34</title>
<g id="a_node34"><a xlink:href="../../db/d22/classEventEvaluator.html#a7c006895465ed851ca9ef516ca648e10" target="_top" xlink:title="print out the ancestry information for detailed diagnosis">
<polygon fill="none" stroke="#000000" points="158,-714.5 158,-734.5 336,-734.5 336,-714.5 158,-714.5"/>
<text text-anchor="middle" x="247" y="-721.5" font-family="FreeSans" font-size="10.00" fill="#000000">EventEvaluator::printOutputInfo</text>
</a>
</g>
</g>
<!-- Node1&#45;&gt;Node34 -->
<g id="edge36" class="edge">
<title>Node1&#45;&gt;Node34</title>
<path fill="none" stroke="#191970" d="M93.0149,-768.5362C111.715,-760.7404 135.9103,-751.2657 158,-744.5 170.1139,-740.7897 183.348,-737.4452 195.8192,-734.6002"/>
<polygon fill="#191970" stroke="#191970" points="91.6281,-765.3225 83.7771,-772.4367 94.351,-771.7712 91.6281,-765.3225"/>
</g>
<!-- Node35 -->
<g id="node35" class="node">
<title>Node35</title>
<g id="a_node35"><a xlink:href="../../d7/dd6/classPHSiliconTruthTrackSeeding.html#ac9ded997e4f8f07f2bd103e9fa294d27" target="_top" xlink:title="PHSiliconTruthTrackSeeding\l::Process">
<polygon fill="none" stroke="#000000" points="169,-612.5 169,-644.5 325,-644.5 325,-612.5 169,-612.5"/>
<text text-anchor="start" x="177" y="-631.5" font-family="FreeSans" font-size="10.00" fill="#000000">PHSiliconTruthTrackSeeding</text>
<text text-anchor="middle" x="247" y="-619.5" font-family="FreeSans" font-size="10.00" fill="#000000">::Process</text>
</a>
</g>
</g>
<!-- Node1&#45;&gt;Node35 -->
<g id="edge38" class="edge">
<title>Node1&#45;&gt;Node35</title>
<path fill="none" stroke="#191970" d="M70.4472,-763.2561C85.2297,-735.1458 116.4879,-683.0997 158,-654.5 163.5674,-650.6643 169.7036,-647.3874 176.0721,-644.5891"/>
<polygon fill="#191970" stroke="#191970" points="67.1874,-761.9439 65.7579,-772.4418 73.422,-765.1266 67.1874,-761.9439"/>
</g>
<!-- Node36 -->
<g id="node36" class="node">
<title>Node36</title>
<g id="a_node36"><a xlink:href="../../d8/dc7/classMomentumEvaluator.html#a19c5f2c6d74578feea3513322e9f1fe3" target="_top" xlink:title="MomentumEvaluator::\lprocess_event">
<polygon fill="none" stroke="#000000" points="183,-561.5 183,-593.5 311,-593.5 311,-561.5 183,-561.5"/>
<text text-anchor="start" x="191" y="-580.5" font-family="FreeSans" font-size="10.00" fill="#000000">MomentumEvaluator::</text>
<text text-anchor="middle" x="247" y="-568.5" font-family="FreeSans" font-size="10.00" fill="#000000">process_event</text>
</a>
</g>
</g>
<!-- Node1&#45;&gt;Node36 -->
<g id="edge40" class="edge">
<title>Node1&#45;&gt;Node36</title>
<path fill="none" stroke="#191970" d="M66.2484,-762.5494C77.0233,-725.5384 105.1851,-646.1404 158,-603.5 165.2644,-597.6351 173.8055,-593.0931 182.6719,-589.5757"/>
<polygon fill="#191970" stroke="#191970" points="62.8736,-761.6218 63.5588,-772.1945 69.6164,-763.5021 62.8736,-761.6218"/>
</g>
<!-- Node37 -->
<g id="node37" class="node">
<title>Node37</title>
<g id="a_node37"><a xlink:href="../../dd/d68/classPHG4ParticleGenerator.html#a1292dcb1c73496ea30769a4b8c355780" target="_top" xlink:title="PHG4ParticleGenerator\l::process_event">
<polygon fill="none" stroke="#000000" points="180.5,-510.5 180.5,-542.5 313.5,-542.5 313.5,-510.5 180.5,-510.5"/>
<text text-anchor="start" x="188.5" y="-529.5" font-family="FreeSans" font-size="10.00" fill="#000000">PHG4ParticleGenerator</text>
<text text-anchor="middle" x="247" y="-517.5" font-family="FreeSans" font-size="10.00" fill="#000000">::process_event</text>
</a>
</g>
</g>
<!-- Node1&#45;&gt;Node37 -->
<g id="edge41" class="edge">
<title>Node1&#45;&gt;Node37</title>
<path fill="none" stroke="#191970" d="M63.6446,-762.3238C70.5739,-717.7037 93.4177,-610.0588 158,-552.5 164.4893,-546.7165 172.2009,-542.216 180.3304,-538.7147"/>
<polygon fill="#191970" stroke="#191970" points="60.1448,-762.0713 62.1798,-772.4689 67.073,-763.0717 60.1448,-762.0713"/>
</g>
<!-- Node38 -->
<g id="node38" class="node">
<title>Node38</title>
<g id="a_node38"><a xlink:href="../../da/d7d/classQAG4SimulationUpsilon.html#ab79aed70b129c1906b4d1986fe2a52d9" target="_top" xlink:title="QAG4SimulationUpsilon\l::process_event">
<polygon fill="none" stroke="#000000" points="178.5,-459.5 178.5,-491.5 315.5,-491.5 315.5,-459.5 178.5,-459.5"/>
<text text-anchor="start" x="186.5" y="-478.5" font-family="FreeSans" font-size="10.00" fill="#000000">QAG4SimulationUpsilon</text>
<text text-anchor="middle" x="247" y="-466.5" font-family="FreeSans" font-size="10.00" fill="#000000">::process_event</text>
</a>
</g>
</g>
<!-- Node1&#45;&gt;Node38 -->
<g id="edge42" class="edge">
<title>Node1&#45;&gt;Node38</title>
<path fill="none" stroke="#191970" d="M61.8963,-762.1738C65.2825,-710.7676 81.4102,-574.4871 158,-501.5 163.8266,-495.9475 170.7723,-491.5721 178.1776,-488.1258"/>
<polygon fill="#191970" stroke="#191970" points="58.3929,-762.1362 61.326,-772.3169 65.3819,-762.5292 58.3929,-762.1362"/>
</g>
<!-- Node39 -->
<g id="node39" class="node">
<title>Node39</title>
<g id="a_node39"><a xlink:href="../../d1/d05/classQAG4SimulationVertex.html#a5d6b9df173a4094d3744572a9e2410d0" target="_top" xlink:title="QAG4SimulationVertex\l::process_event">
<polygon fill="none" stroke="#000000" points="181,-408.5 181,-440.5 313,-440.5 313,-408.5 181,-408.5"/>
<text text-anchor="start" x="189" y="-427.5" font-family="FreeSans" font-size="10.00" fill="#000000">QAG4SimulationVertex</text>
<text text-anchor="middle" x="247" y="-415.5" font-family="FreeSans" font-size="10.00" fill="#000000">::process_event</text>
</a>
</g>
</g>
<!-- Node1&#45;&gt;Node39 -->
<g id="edge43" class="edge">
<title>Node1&#45;&gt;Node39</title>
<path fill="none" stroke="#191970" d="M64.3582,-761.9917C75.4239,-696.787 112.6361,-495.8625 158,-450.5 164.3743,-444.1259 172.2186,-439.2964 180.5848,-435.6406"/>
<polygon fill="#191970" stroke="#191970" points="60.8475,-761.7657 62.6517,-772.2058 67.7518,-762.9193 60.8475,-761.7657"/>
</g>
<!-- Node40 -->
<g id="node40" class="node">
<title>Node40</title>
<g id="a_node40"><a xlink:href="../../dc/df1/classQAExample.html#a064c29b11e1be89f9510c53e2c1ebb4e" target="_top" xlink:title="QAExample::process\l_event">
<polygon fill="none" stroke="#000000" points="186.5,-357.5 186.5,-389.5 307.5,-389.5 307.5,-357.5 186.5,-357.5"/>
<text text-anchor="start" x="194.5" y="-376.5" font-family="FreeSans" font-size="10.00" fill="#000000">QAExample::process</text>
<text text-anchor="middle" x="247" y="-364.5" font-family="FreeSans" font-size="10.00" fill="#000000">_event</text>
</a>
</g>
</g>
<!-- Node1&#45;&gt;Node40 -->
<g id="edge44" class="edge">
<title>Node1&#45;&gt;Node40</title>
<path fill="none" stroke="#191970" d="M63.4836,-762.1693C72.5942,-690.7881 106.3603,-453.0426 158,-399.5 165.7106,-391.5053 175.7302,-385.9315 186.2541,-382.0542"/>
<polygon fill="#191970" stroke="#191970" points="60.0044,-761.7859 62.2342,-772.1434 66.9501,-762.656 60.0044,-761.7859"/>
</g>
<!-- Node41 -->
<g id="node41" class="node">
<title>Node41</title>
<g id="a_node41"><a xlink:href="../../d6/df9/classParticleFlowReco.html#adfcb5176268e728739c041eec599f967" target="_top" xlink:title="ParticleFlowReco::process\l_event">
<polygon fill="none" stroke="#000000" points="174,-306.5 174,-338.5 320,-338.5 320,-306.5 174,-306.5"/>
<text text-anchor="start" x="182" y="-325.5" font-family="FreeSans" font-size="10.00" fill="#000000">ParticleFlowReco::process</text>
<text text-anchor="middle" x="247" y="-313.5" font-family="FreeSans" font-size="10.00" fill="#000000">_event</text>
</a>
</g>
</g>
<!-- Node1&#45;&gt;Node41 -->
<g id="edge45" class="edge">
<title>Node1&#45;&gt;Node41</title>
<path fill="none" stroke="#191970" d="M62.8444,-762.0482C70.2307,-684.5527 100.1095,-410.2402 158,-348.5 162.5143,-343.6855 167.8655,-339.7463 173.6696,-336.5254"/>
<polygon fill="#191970" stroke="#191970" points="59.3255,-762.0902 61.8839,-772.3715 66.2954,-762.7388 59.3255,-762.0902"/>
</g>
<!-- Node42 -->
<g id="node42" class="node">
<title>Node42</title>
<g id="a_node42"><a xlink:href="../../de/dbf/classQAG4SimulationTracking.html#ac2aeab5238fcf828f70c61b4976b57fe" target="_top" xlink:title="QAG4SimulationTracking\l::process_event">
<polygon fill="none" stroke="#000000" points="176.5,-255.5 176.5,-287.5 317.5,-287.5 317.5,-255.5 176.5,-255.5"/>
<text text-anchor="start" x="184.5" y="-274.5" font-family="FreeSans" font-size="10.00" fill="#000000">QAG4SimulationTracking</text>
<text text-anchor="middle" x="247" y="-262.5" font-family="FreeSans" font-size="10.00" fill="#000000">::process_event</text>
</a>
</g>
</g>
<!-- Node1&#45;&gt;Node42 -->
<g id="edge46" class="edge">
<title>Node1&#45;&gt;Node42</title>
<path fill="none" stroke="#191970" d="M62.3027,-762.3558C68.0436,-679.7002 93.7135,-367.6256 158,-297.5 163.1125,-291.9231 169.3477,-287.5176 176.1209,-284.0413"/>
<polygon fill="#191970" stroke="#191970" points="58.8031,-762.2345 61.623,-772.4472 65.7872,-762.705 58.8031,-762.2345"/>
</g>
<!-- Node43 -->
<g id="node43" class="node">
<title>Node43</title>
<g id="a_node43"><a xlink:href="../../d6/d02/classDetermineTowerBackground.html#a1e2d3c456b619165aec9114ae37ee6bf" target="_top" xlink:title="DetermineTowerBackground\l::process_event">
<polygon fill="none" stroke="#000000" points="167.5,-204.5 167.5,-236.5 326.5,-236.5 326.5,-204.5 167.5,-204.5"/>
<text text-anchor="start" x="175.5" y="-223.5" font-family="FreeSans" font-size="10.00" fill="#000000">DetermineTowerBackground</text>
<text text-anchor="middle" x="247" y="-211.5" font-family="FreeSans" font-size="10.00" fill="#000000">::process_event</text>
</a>
</g>
</g>
<!-- Node1&#45;&gt;Node43 -->
<g id="edge47" class="edge">
<title>Node1&#45;&gt;Node43</title>
<path fill="none" stroke="#191970" d="M61.8912,-762.2398C66.1698,-674.1002 87.3956,-324.9514 158,-246.5 161.4459,-242.6712 165.4209,-239.3933 169.7389,-236.5885"/>
<polygon fill="#191970" stroke="#191970" points="58.3927,-762.1288 61.4236,-772.2808 65.3851,-762.4545 58.3927,-762.1288"/>
</g>
<!-- Node44 -->
<g id="node44" class="node">
<title>Node44</title>
<g id="a_node44"><a xlink:href="../../d4/d0c/classEvalRootTTreeReco.html#aa52e071262119526aec5ea0dfdbc13d2" target="_top" xlink:title="EvalRootTTreeReco::\lprocess_event">
<polygon fill="none" stroke="#000000" points="188,-153.5 188,-185.5 306,-185.5 306,-153.5 188,-153.5"/>
<text text-anchor="start" x="196" y="-172.5" font-family="FreeSans" font-size="10.00" fill="#000000">EvalRootTTreeReco::</text>
<text text-anchor="middle" x="247" y="-160.5" font-family="FreeSans" font-size="10.00" fill="#000000">process_event</text>
</a>
</g>
</g>
<!-- Node1&#45;&gt;Node44 -->
<g id="edge48" class="edge">
<title>Node1&#45;&gt;Node44</title>
<path fill="none" stroke="#191970" d="M61.5464,-762.1295C64.458,-668.7346 81.0533,-282.3223 158,-195.5 165.9007,-186.5853 176.6704,-180.6519 187.9903,-176.7211"/>
<polygon fill="#191970" stroke="#191970" points="58.0445,-762.1453 61.2501,-772.2435 65.0415,-762.3503 58.0445,-762.1453"/>
</g>
<!-- Node45 -->
<g id="node45" class="node">
<title>Node45</title>
<g id="a_node45"><a xlink:href="../../da/d27/classTPCDataStreamEmulator.html#a103b0eab10ddf8a3b47e2d6e36b5a59d" target="_top" xlink:title="TPCDataStreamEmulator\l::process_event">
<polygon fill="none" stroke="#000000" points="175.5,-102.5 175.5,-134.5 318.5,-134.5 318.5,-102.5 175.5,-102.5"/>
<text text-anchor="start" x="183.5" y="-121.5" font-family="FreeSans" font-size="10.00" fill="#000000">TPCDataStreamEmulator</text>
<text text-anchor="middle" x="247" y="-109.5" font-family="FreeSans" font-size="10.00" fill="#000000">::process_event</text>
</a>
</g>
</g>
<!-- Node1&#45;&gt;Node45 -->
<g id="edge49" class="edge">
<title>Node1&#45;&gt;Node45</title>
<path fill="none" stroke="#191970" d="M61.2237,-762.2099C62.7171,-663.9644 74.0127,-238.528 158,-143.5 162.8891,-137.9682 168.8948,-133.6172 175.4579,-130.2012"/>
<polygon fill="#191970" stroke="#191970" points="57.7229,-762.254 61.0885,-772.3 64.7222,-762.3479 57.7229,-762.254"/>
</g>
<!-- Node46 -->
<g id="node46" class="node">
<title>Node46</title>
<g id="a_node46"><a xlink:href="../../dc/dd7/classPHG4ScoringManager.html#a18f06bfae1801c84f524aa4056a32841" target="_top" xlink:title="event processing method">
<polygon fill="none" stroke="#000000" points="183.5,-51.5 183.5,-83.5 310.5,-83.5 310.5,-51.5 183.5,-51.5"/>
<text text-anchor="start" x="191.5" y="-70.5" font-family="FreeSans" font-size="10.00" fill="#000000">PHG4ScoringManager</text>
<text text-anchor="middle" x="247" y="-58.5" font-family="FreeSans" font-size="10.00" fill="#000000">::process_event</text>
</a>
</g>
</g>
<!-- Node1&#45;&gt;Node46 -->
<g id="edge50" class="edge">
<title>Node1&#45;&gt;Node46</title>
<path fill="none" stroke="#191970" d="M62.5512,-762.0205C70.9765,-653.0721 112.5364,-144.513 158,-92.5 164.7599,-84.7663 173.7023,-79.3369 183.3136,-75.5431"/>
<polygon fill="#191970" stroke="#191970" points="59.0381,-762.0585 61.7636,-772.2967 66.0177,-762.5935 59.0381,-762.0585"/>
</g>
<!-- Node47 -->
<g id="node47" class="node">
<title>Node47</title>
<g id="a_node47"><a xlink:href="../../d9/d91/classPHG4TrackFastSim.html#ad97cb78cc954aa1cb5ee600795c2ce35" target="_top" xlink:title="PHG4TrackFastSim::Pseudo\lPatternRecognition">
<polygon fill="none" stroke="#000000" points="170.5,-.5 170.5,-32.5 323.5,-32.5 323.5,-.5 170.5,-.5"/>
<text text-anchor="start" x="178.5" y="-19.5" font-family="FreeSans" font-size="10.00" fill="#000000">PHG4TrackFastSim::Pseudo</text>
<text text-anchor="middle" x="247" y="-7.5" font-family="FreeSans" font-size="10.00" fill="#000000">PatternRecognition</text>
</a>
</g>
</g>
<!-- Node1&#45;&gt;Node47 -->
<g id="edge51" class="edge">
<title>Node1&#45;&gt;Node47</title>
<path fill="none" stroke="#191970" d="M62.3254,-762.3017C69.9162,-649.2303 109.2524,-97.8076 158,-41.5 161.5716,-37.3745 165.7644,-33.9038 170.3504,-30.9868"/>
<polygon fill="#191970" stroke="#191970" points="58.8277,-762.1524 61.6565,-772.3625 65.8123,-762.6168 58.8277,-762.1524"/>
</g>
<!-- Node3 -->
<g id="node3" class="node">
<title>Node3</title>
<g id="a_node3"><a xlink:href="../../d4/dc9/classPHG4DSTReader.html#aa32c5027cd9c3e4d667a0e84d7243412" target="_top" xlink:title="event processing method">
<polygon fill="none" stroke="#000000" points="389.5,-1473.5 389.5,-1505.5 535.5,-1505.5 535.5,-1473.5 389.5,-1473.5"/>
<text text-anchor="start" x="397.5" y="-1492.5" font-family="FreeSans" font-size="10.00" fill="#000000">PHG4DSTReader::process</text>
<text text-anchor="middle" x="462.5" y="-1480.5" font-family="FreeSans" font-size="10.00" fill="#000000">_event</text>
</a>
</g>
</g>
<!-- Node2&#45;&gt;Node3 -->
<g id="edge2" class="edge">
<title>Node2&#45;&gt;Node3</title>
<path fill="none" stroke="#191970" d="M320.2848,-1489.5C342.6041,-1489.5 367.1286,-1489.5 389.4335,-1489.5"/>
<polygon fill="#191970" stroke="#191970" points="320.201,-1486.0001 310.201,-1489.5 320.201,-1493.0001 320.201,-1486.0001"/>
</g>
<!-- Node5 -->
<g id="node5" class="node">
<title>Node5</title>
<g id="a_node5"><a xlink:href="../../d4/db6/exceptionFun4AllDstPileupMerger.html#aff74804be47480038d862e90001e8e8f" target="_top" xlink:title="time&#45;shift and copy content of source nodes to destination">
<polygon fill="none" stroke="#000000" points="389.5,-1371.5 389.5,-1403.5 535.5,-1403.5 535.5,-1371.5 389.5,-1371.5"/>
<text text-anchor="start" x="397.5" y="-1390.5" font-family="FreeSans" font-size="10.00" fill="#000000">Fun4AllDstPileupMerger</text>
<text text-anchor="middle" x="462.5" y="-1378.5" font-family="FreeSans" font-size="10.00" fill="#000000">::copy_background_event</text>
</a>
</g>
</g>
<!-- Node4&#45;&gt;Node5 -->
<g id="edge4" class="edge">
<title>Node4&#45;&gt;Node5</title>
<path fill="none" stroke="#191970" d="M324.8751,-1420.0702C347.6878,-1414.6713 372.4403,-1408.8134 394.5814,-1403.5736"/>
<polygon fill="#191970" stroke="#191970" points="323.8149,-1416.7243 314.8898,-1422.4333 325.427,-1423.5362 323.8149,-1416.7243"/>
</g>
<!-- Node8 -->
<g id="node8" class="node">
<title>Node8</title>
<g id="a_node8"><a xlink:href="../../db/d5c/classPHG4TruthTrackingAction.html#a22bc2cb2f4cdd07e12eee38c1a43f586" target="_top" xlink:title="tracking action">
<polygon fill="none" stroke="#000000" points="391,-1422.5 391,-1454.5 534,-1454.5 534,-1422.5 391,-1422.5"/>
<text text-anchor="start" x="399" y="-1441.5" font-family="FreeSans" font-size="10.00" fill="#000000">PHG4TruthTrackingAction</text>
<text text-anchor="middle" x="462.5" y="-1429.5" font-family="FreeSans" font-size="10.00" fill="#000000">::PreUserTrackingAction</text>
</a>
</g>
</g>
<!-- Node4&#45;&gt;Node8 -->
<g id="edge7" class="edge">
<title>Node4&#45;&gt;Node8</title>
<path fill="none" stroke="#191970" d="M326.8342,-1438.5C347.8203,-1438.5 370.3239,-1438.5 390.851,-1438.5"/>
<polygon fill="#191970" stroke="#191970" points="326.6691,-1435.0001 316.6691,-1438.5 326.669,-1442.0001 326.6691,-1435.0001"/>
</g>
<!-- Node6 -->
<g id="node6" class="node">
<title>Node6</title>
<g id="a_node6"><a xlink:href="../../dd/d8c/classFun4AllDstPileupInputManager.html#aef764d010943119087c60e7c845fbb49" target="_top" xlink:title="Fun4AllDstPileupInputManager::run">
<polygon fill="none" stroke="#000000" points="589,-1367.5 589,-1387.5 784,-1387.5 784,-1367.5 589,-1367.5"/>
<text text-anchor="middle" x="686.5" y="-1374.5" font-family="FreeSans" font-size="10.00" fill="#000000">Fun4AllDstPileupInputManager::run</text>
</a>
</g>
</g>
<!-- Node5&#45;&gt;Node6 -->
<g id="edge5" class="edge">
<title>Node5&#45;&gt;Node6</title>
<path fill="none" stroke="#191970" d="M545.6278,-1383.7889C559.6637,-1383.1623 574.3489,-1382.5067 588.7168,-1381.8653"/>
<polygon fill="#191970" stroke="#191970" points="545.37,-1380.2969 535.536,-1384.2395 545.6822,-1387.2899 545.37,-1380.2969"/>
</g>
<!-- Node7 -->
<g id="node7" class="node">
<title>Node7</title>
<g id="a_node7"><a xlink:href="../../d5/d00/classFun4AllSingleDstPileupInputManager.html#a01149fa86dc066e4413d6b02e94df581" target="_top" xlink:title="Fun4AllSingleDstPileupInput\lManager::run">
<polygon fill="none" stroke="#000000" points="607,-1406.5 607,-1438.5 766,-1438.5 766,-1406.5 607,-1406.5"/>
<text text-anchor="start" x="615" y="-1425.5" font-family="FreeSans" font-size="10.00" fill="#000000">Fun4AllSingleDstPileupInput</text>
<text text-anchor="middle" x="686.5" y="-1413.5" font-family="FreeSans" font-size="10.00" fill="#000000">Manager::run</text>
</a>
</g>
</g>
<!-- Node5&#45;&gt;Node7 -->
<g id="edge6" class="edge">
<title>Node5&#45;&gt;Node7</title>
<path fill="none" stroke="#191970" d="M545.5863,-1400.4822C565.667,-1403.6198 587.0789,-1406.9654 606.9908,-1410.0767"/>
<polygon fill="#191970" stroke="#191970" points="545.9565,-1396.9977 535.536,-1398.9119 544.8758,-1403.9138 545.9565,-1396.9977"/>
</g>
<!-- Node10 -->
<g id="node10" class="node">
<title>Node10</title>
<g id="a_node10"><a xlink:href="../../d3/d32/classActsEvaluator.html#a9ce1e3818dfcd7709c5693087aa21df5" target="_top" xlink:title="ActsEvaluator::process\l_event">
<polygon fill="none" stroke="#000000" points="620.5,-1306.5 620.5,-1338.5 752.5,-1338.5 752.5,-1306.5 620.5,-1306.5"/>
<text text-anchor="start" x="628.5" y="-1325.5" font-family="FreeSans" font-size="10.00" fill="#000000">ActsEvaluator::process</text>
<text text-anchor="middle" x="686.5" y="-1313.5" font-family="FreeSans" font-size="10.00" fill="#000000">_event</text>
</a>
</g>
</g>
<!-- Node9&#45;&gt;Node10 -->
<g id="edge9" class="edge">
<title>Node9&#45;&gt;Node10</title>
<path fill="none" stroke="#191970" d="M563.3429,-1322.5C582.6753,-1322.5 602.4556,-1322.5 620.3489,-1322.5"/>
<polygon fill="#191970" stroke="#191970" points="563.2865,-1319.0001 553.2865,-1322.5 563.2864,-1326.0001 563.2865,-1319.0001"/>
</g>
<!-- Node13 -->
<g id="node13" class="node">
<title>Node13</title>
<g id="a_node13"><a xlink:href="../../d0/d71/classPHG4TrackFastSimEval.html#ab0136bd1d81150679effd3e148c3cfc4" target="_top" xlink:title="PHG4TrackFastSimEval\l::process_event">
<polygon fill="none" stroke="#000000" points="397,-1242.5 397,-1274.5 528,-1274.5 528,-1242.5 397,-1242.5"/>
<text text-anchor="start" x="405" y="-1261.5" font-family="FreeSans" font-size="10.00" fill="#000000">PHG4TrackFastSimEval</text>
<text text-anchor="middle" x="462.5" y="-1249.5" font-family="FreeSans" font-size="10.00" fill="#000000">::process_event</text>
</a>
</g>
</g>
<!-- Node12&#45;&gt;Node13 -->
<g id="edge12" class="edge">
<title>Node12&#45;&gt;Node13</title>
<path fill="none" stroke="#191970" d="M322.7423,-1258.5C346.9354,-1258.5 373.4963,-1258.5 396.9056,-1258.5"/>
<polygon fill="#191970" stroke="#191970" points="322.5349,-1255.0001 312.5348,-1258.5 322.5348,-1262.0001 322.5349,-1255.0001"/>
</g>
<!-- Node14&#45;&gt;Node9 -->
<g id="edge14" class="edge">
<title>Node14&#45;&gt;Node9</title>
<path fill="none" stroke="#191970" d="M335.6816,-1311.3188C347.6534,-1312.3743 359.9495,-1313.4584 371.9532,-1314.5168"/>
<polygon fill="#191970" stroke="#191970" points="335.984,-1307.832 325.7152,-1310.4401 335.3691,-1314.8049 335.984,-1307.832"/>
</g>
<!-- Node16 -->
<g id="node16" class="node">
<title>Node16</title>
<g id="a_node16"><a xlink:href="../../d6/d11/classSvtxEvaluator.html#ac66ea4145deb621d9e4fb38cf852dc33" target="_top" xlink:title="SvtxEvaluator::process\l_event">
<polygon fill="none" stroke="#000000" points="396.5,-1191.5 396.5,-1223.5 528.5,-1223.5 528.5,-1191.5 396.5,-1191.5"/>
<text text-anchor="start" x="404.5" y="-1210.5" font-family="FreeSans" font-size="10.00" fill="#000000">SvtxEvaluator::process</text>
<text text-anchor="middle" x="462.5" y="-1198.5" font-family="FreeSans" font-size="10.00" fill="#000000">_event</text>
</a>
</g>
</g>
<!-- Node15&#45;&gt;Node16 -->
<g id="edge16" class="edge">
<title>Node15&#45;&gt;Node16</title>
<path fill="none" stroke="#191970" d="M327.7873,-1207.5C350.3323,-1207.5 374.5602,-1207.5 396.1672,-1207.5"/>
<polygon fill="#191970" stroke="#191970" points="327.5628,-1204.0001 317.5628,-1207.5 327.5627,-1211.0001 327.5628,-1204.0001"/>
</g>
<!-- Node18 -->
<g id="node18" class="node">
<title>Node18</title>
<g id="a_node18"><a xlink:href="../../dd/d59/classCaloEvaluator.html#a936967e98c89ec58e7851b0661b838c0" target="_top" xlink:title="CaloEvaluator::process\l_event">
<polygon fill="none" stroke="#000000" points="396.5,-941.5 396.5,-973.5 528.5,-973.5 528.5,-941.5 396.5,-941.5"/>
<text text-anchor="start" x="404.5" y="-960.5" font-family="FreeSans" font-size="10.00" fill="#000000">CaloEvaluator::process</text>
<text text-anchor="middle" x="462.5" y="-948.5" font-family="FreeSans" font-size="10.00" fill="#000000">_event</text>
</a>
</g>
</g>
<!-- Node17&#45;&gt;Node18 -->
<g id="edge18" class="edge">
<title>Node17&#45;&gt;Node18</title>
<path fill="none" stroke="#191970" d="M327.7873,-969.3772C350.3323,-967.3895 374.5602,-965.2534 396.1672,-963.3484"/>
<polygon fill="#191970" stroke="#191970" points="327.2167,-965.9139 317.5628,-970.2787 327.8315,-972.8868 327.2167,-965.9139"/>
</g>
<!-- Node20 -->
<g id="node20" class="node">
<title>Node20</title>
<g id="a_node20"><a xlink:href="../../db/d22/classEventEvaluator.html#a02eade2e99934373a00453bd3c1dd1dd" target="_top" xlink:title="EventEvaluator::process\l_event">
<polygon fill="none" stroke="#000000" points="393,-802.5 393,-834.5 532,-834.5 532,-802.5 393,-802.5"/>
<text text-anchor="start" x="401" y="-821.5" font-family="FreeSans" font-size="10.00" fill="#000000">EventEvaluator::process</text>
<text text-anchor="middle" x="462.5" y="-809.5" font-family="FreeSans" font-size="10.00" fill="#000000">_event</text>
</a>
</g>
</g>
<!-- Node19&#45;&gt;Node20 -->
<g id="edge20" class="edge">
<title>Node19&#45;&gt;Node20</title>
<path fill="none" stroke="#191970" d="M331.0971,-836.183C351.5575,-833.4296 373.2148,-830.5152 392.9169,-827.8639"/>
<polygon fill="#191970" stroke="#191970" points="330.6067,-832.7173 321.1629,-837.5198 331.5404,-839.6548 330.6067,-832.7173"/>
</g>
<!-- Node22 -->
<g id="node22" class="node">
<title>Node22</title>
<g id="a_node22"><a xlink:href="../../d9/dae/classKFParticle__nTuple.html#ac32b873cf95657eb34d8b572ad692172" target="_top" xlink:title="Fills required information for your selection, also requests truth and detector information if needed...">
<polygon fill="none" stroke="#000000" points="407.5,-1140.5 407.5,-1172.5 517.5,-1172.5 517.5,-1140.5 407.5,-1140.5"/>
<text text-anchor="start" x="415.5" y="-1159.5" font-family="FreeSans" font-size="10.00" fill="#000000">KFParticle_nTuple::</text>
<text text-anchor="middle" x="462.5" y="-1147.5" font-family="FreeSans" font-size="10.00" fill="#000000">fillBranch</text>
</a>
</g>
</g>
<!-- Node21&#45;&gt;Node22 -->
<g id="edge22" class="edge">
<title>Node21&#45;&gt;Node22</title>
<path fill="none" stroke="#191970" d="M336.2634,-1156.5C360.3793,-1156.5 385.7689,-1156.5 407.4034,-1156.5"/>
<polygon fill="#191970" stroke="#191970" points="336.0206,-1153.0001 326.0206,-1156.5 336.0205,-1160.0001 336.0206,-1153.0001"/>
</g>
<!-- Node23 -->
<g id="node23" class="node">
<title>Node23</title>
<g id="a_node23"><a xlink:href="../../d5/d72/classKFParticle__sPHENIX.html#a7e5ad7cf075fbf8e68a781e7721fec81" target="_top" xlink:title="KFParticle_sPHENIX\l::process_event">
<polygon fill="none" stroke="#000000" points="629.5,-1140.5 629.5,-1172.5 743.5,-1172.5 743.5,-1140.5 629.5,-1140.5"/>
<text text-anchor="start" x="637.5" y="-1159.5" font-family="FreeSans" font-size="10.00" fill="#000000">KFParticle_sPHENIX</text>
<text text-anchor="middle" x="686.5" y="-1147.5" font-family="FreeSans" font-size="10.00" fill="#000000">::process_event</text>
</a>
</g>
</g>
<!-- Node22&#45;&gt;Node23 -->
<g id="edge23" class="edge">
<title>Node22&#45;&gt;Node23</title>
<path fill="none" stroke="#191970" d="M527.781,-1156.5C559.9196,-1156.5 598.3114,-1156.5 629.2858,-1156.5"/>
<polygon fill="#191970" stroke="#191970" points="527.5835,-1153.0001 517.5835,-1156.5 527.5834,-1160.0001 527.5835,-1153.0001"/>
</g>
<!-- Node26 -->
<g id="node26" class="node">
<title>Node26</title>
<g id="a_node26"><a xlink:href="../../d0/da9/classAnaTutorial.html#a3b64c061aaffaf4a42631434fb7eb6f9" target="_top" xlink:title="SubsysReco event processing method.">
<polygon fill="none" stroke="#000000" points="402.5,-1072.5 402.5,-1104.5 522.5,-1104.5 522.5,-1072.5 402.5,-1072.5"/>
<text text-anchor="start" x="410.5" y="-1091.5" font-family="FreeSans" font-size="10.00" fill="#000000">AnaTutorial::process</text>
<text text-anchor="middle" x="462.5" y="-1079.5" font-family="FreeSans" font-size="10.00" fill="#000000">_event</text>
</a>
</g>
</g>
<!-- Node25&#45;&gt;Node26 -->
<g id="edge26" class="edge">
<title>Node25&#45;&gt;Node26</title>
<path fill="none" stroke="#191970" d="M332.8804,-1102.3341C356.1131,-1099.8545 380.7619,-1097.2238 402.2569,-1094.9297"/>
<polygon fill="#191970" stroke="#191970" points="332.2463,-1098.8818 322.6742,-1103.4234 332.9892,-1105.8423 332.2463,-1098.8818"/>
</g>
<!-- Node27&#45;&gt;Node26 -->
<g id="edge28" class="edge">
<title>Node27&#45;&gt;Node26</title>
<path fill="none" stroke="#191970" d="M321.9545,-1078.0651C348.2362,-1080.0164 377.3953,-1082.1813 402.3101,-1084.0311"/>
<polygon fill="#191970" stroke="#191970" points="321.8888,-1074.5506 311.6571,-1077.3005 321.3705,-1081.5314 321.8888,-1074.5506"/>
</g>
<!-- Node29 -->
<g id="node29" class="node">
<title>Node29</title>
<g id="a_node29"><a xlink:href="../../d1/d1e/classSvtxClusterEval.html#aea125d30358376360f89706a917607c0" target="_top" xlink:title="SvtxClusterEval::best\l_cluster_by_nhit">
<polygon fill="none" stroke="#000000" points="400,-693.5 400,-725.5 525,-725.5 525,-693.5 400,-693.5"/>
<text text-anchor="start" x="408" y="-712.5" font-family="FreeSans" font-size="10.00" fill="#000000">SvtxClusterEval::best</text>
<text text-anchor="middle" x="462.5" y="-700.5" font-family="FreeSans" font-size="10.00" fill="#000000">_cluster_by_nhit</text>
</a>
</g>
</g>
<!-- Node28&#45;&gt;Node29 -->
<g id="edge30" class="edge">
<title>Node28&#45;&gt;Node29</title>
<path fill="none" stroke="#191970" d="M328.7204,-690.8764C352.2497,-694.1519 377.5405,-697.6727 399.7296,-700.7617"/>
<polygon fill="#191970" stroke="#191970" points="329.1455,-687.4019 318.7584,-689.4896 328.1803,-694.335 329.1455,-687.4019"/>
</g>
<!-- Node29&#45;&gt;Node30 -->
<g id="edge31" class="edge">
<title>Node29&#45;&gt;Node30</title>
<path fill="none" stroke="#191970" d="M505.5728,-729.8827C548.394,-750.1463 613.2094,-780.8179 652.5268,-799.4234"/>
<polygon fill="#191970" stroke="#191970" points="507.0569,-726.7129 496.5208,-725.5991 504.0627,-733.0402 507.0569,-726.7129"/>
</g>
<!-- Node33&#45;&gt;Node18 -->
<g id="edge35" class="edge">
<title>Node33&#45;&gt;Node18</title>
<path fill="none" stroke="#191970" d="M340.1216,-942.7351C359.0117,-945.0142 378.513,-947.367 396.2447,-949.5063"/>
<polygon fill="#191970" stroke="#191970" points="340.3569,-939.2382 330.0097,-941.5151 339.5184,-946.1878 340.3569,-939.2382"/>
</g>
<!-- Node34&#45;&gt;Node20 -->
<g id="edge37" class="edge">
<title>Node34&#45;&gt;Node20</title>
<path fill="none" stroke="#191970" d="M313.5341,-737.0691C321.2154,-739.218 328.8511,-741.6846 336,-744.5 374.5882,-759.6971 415.3212,-785.5421 439.8237,-802.3144"/>
<polygon fill="#191970" stroke="#191970" points="314.3745,-733.6711 303.8133,-734.5147 312.5954,-740.4413 314.3745,-733.6711"/>
</g>
<!-- Node48 -->
<g id="node48" class="node">
<title>Node48</title>
<g id="a_node48"><a xlink:href="../../d9/d91/classPHG4TrackFastSim.html#a8bb22ab279c5f433069774bd2ab0a7ae" target="_top" xlink:title="Process Event, called for each event.">
<polygon fill="none" stroke="#000000" points="384.5,-.5 384.5,-32.5 540.5,-32.5 540.5,-.5 384.5,-.5"/>
<text text-anchor="start" x="392.5" y="-19.5" font-family="FreeSans" font-size="10.00" fill="#000000">PHG4TrackFastSim::process</text>
<text text-anchor="middle" x="462.5" y="-7.5" font-family="FreeSans" font-size="10.00" fill="#000000">_event</text>
</a>
</g>
</g>
<!-- Node47&#45;&gt;Node48 -->
<g id="edge52" class="edge">
<title>Node47&#45;&gt;Node48</title>
<path fill="none" stroke="#191970" d="M333.8718,-16.5C350.5631,-16.5 367.9495,-16.5 384.3449,-16.5"/>
<polygon fill="#191970" stroke="#191970" points="333.5841,-13.0001 323.584,-16.5 333.584,-20.0001 333.5841,-13.0001"/>
</g>
</g>
</svg>
