<?xml version="1.0" encoding="UTF-8" standalone="no"?>
<!DOCTYPE svg PUBLIC "-//W3C//DTD SVG 1.1//EN"
 "http://www.w3.org/Graphics/SVG/1.1/DTD/svg11.dtd">
<!-- Generated by graphviz version 2.40.1 (20161225.0304)
 -->
<!-- Title: TPC_Cells Pages: 1 -->
<svg width="309pt" height="350pt"
 viewBox="0.00 0.00 309.00 350.00" xmlns="http://www.w3.org/2000/svg" xmlns:xlink="http://www.w3.org/1999/xlink">
<g id="graph0" class="graph" transform="scale(1 1) rotate(0) translate(4 346)">
<title>TPC_Cells</title>
<!-- Node1 -->
<g id="node1" class="node">
<title>Node1</title>
<polygon fill="#bfbfbf" stroke="#000000" points="0,-157.5 0,-177.5 66,-177.5 66,-157.5 0,-157.5"/>
<text text-anchor="middle" x="33" y="-164.5" font-family="FreeSans" font-size="10.00" fill="#000000">TPC_Cells</text>
</g>
<!-- Node2 -->
<g id="node2" class="node">
<title>Node2</title>
<g id="a_node2"><a xlink:href="../../d7/ddb/classPHG4TpcElectronDrift.html#a92932e5ee71df7d946c3f1485f3f0918" target="_top" xlink:title="detector name">
<polygon fill="none" stroke="#000000" points="138.5,-309.5 138.5,-341.5 264.5,-341.5 264.5,-309.5 138.5,-309.5"/>
<text text-anchor="start" x="146.5" y="-328.5" font-family="FreeSans" font-size="10.00" fill="#000000">PHG4TpcElectronDrift</text>
<text text-anchor="middle" x="201.5" y="-316.5" font-family="FreeSans" font-size="10.00" fill="#000000">::Detector</text>
</a>
</g>
</g>
<!-- Node1&#45;&gt;Node2 -->
<g id="edge1" class="edge">
<title>Node1&#45;&gt;Node2</title>
<path fill="none" stroke="#191970" d="M35.2324,-177.6586C41.2759,-202.6701 60.3792,-267.5804 102,-300.5 109.858,-306.7152 119.0666,-311.4061 128.6529,-314.9425"/>
<polygon fill="#191970" stroke="#191970" points="127.7365,-318.3252 138.3291,-318.1078 129.9129,-311.6721 127.7365,-318.3252"/>
</g>
<!-- Node3 -->
<g id="node3" class="node">
<title>Node3</title>
<g id="a_node3"><a xlink:href="../../da/d29/classFun4AllServer.html#a3e55156f91b2c94bb6c4ef33ffce587a" target="_top" xlink:title="Fun4AllServer::instance">
<polygon fill="none" stroke="#000000" points="133.5,-270.5 133.5,-290.5 269.5,-290.5 269.5,-270.5 133.5,-270.5"/>
<text text-anchor="middle" x="201.5" y="-277.5" font-family="FreeSans" font-size="10.00" fill="#000000">Fun4AllServer::instance</text>
</a>
</g>
</g>
<!-- Node1&#45;&gt;Node3 -->
<g id="edge2" class="edge">
<title>Node1&#45;&gt;Node3</title>
<path fill="none" stroke="#191970" d="M37.3376,-177.6808C46.289,-197.3624 68.7908,-240.5342 102,-261.5 108.6396,-265.6917 115.9898,-268.9993 123.6008,-271.6035"/>
<polygon fill="#191970" stroke="#191970" points="122.7624,-275.0063 133.3469,-274.5398 124.7817,-268.3038 122.7624,-275.0063"/>
</g>
<!-- Node4 -->
<g id="node4" class="node">
<title>Node4</title>
<g id="a_node4"><a xlink:href="../../da/de9/classPHG4TpcDistortion.html#a02a33c9892ed4fde131a5c9aafaeead9" target="_top" xlink:title="enable distortions from a single fixed source">
<polygon fill="none" stroke="#000000" points="131.5,-219.5 131.5,-251.5 271.5,-251.5 271.5,-219.5 131.5,-219.5"/>
<text text-anchor="start" x="139.5" y="-238.5" font-family="FreeSans" font-size="10.00" fill="#000000">PHG4TpcDistortion::</text>
<text text-anchor="middle" x="201.5" y="-226.5" font-family="FreeSans" font-size="10.00" fill="#000000">set_do_static_distortions</text>
</a>
</g>
</g>
<!-- Node1&#45;&gt;Node4 -->
<g id="edge3" class="edge">
<title>Node1&#45;&gt;Node4</title>
<path fill="none" stroke="#191970" d="M46.3151,-177.5625C59.7294,-187.2624 81.344,-201.7247 102,-210.5 108.223,-213.1437 114.7883,-215.5531 121.4576,-217.7395"/>
<polygon fill="#191970" stroke="#191970" points="120.6874,-221.1651 131.2754,-220.7847 122.7611,-214.4793 120.6874,-221.1651"/>
</g>
<!-- Node5 -->
<g id="node5" class="node">
<title>Node5</title>
<g id="a_node5"><a xlink:href="../../d1/dc5/classPHG4TpcDigitizer.html#a32e48f70a1ead31a8551144f9eaf4152" target="_top" xlink:title="PHG4TpcDigitizer::SetADCThreshold">
<polygon fill="none" stroke="#000000" points="102,-180.5 102,-200.5 301,-200.5 301,-180.5 102,-180.5"/>
<text text-anchor="middle" x="201.5" y="-187.5" font-family="FreeSans" font-size="10.00" fill="#000000">PHG4TpcDigitizer::SetADCThreshold</text>
</a>
</g>
</g>
<!-- Node1&#45;&gt;Node5 -->
<g id="edge4" class="edge">
<title>Node1&#45;&gt;Node5</title>
<path fill="none" stroke="#191970" d="M66.2902,-172.0441C81.3305,-174.097 99.8415,-176.6238 118.2863,-179.1414"/>
<polygon fill="#191970" stroke="#191970" points="117.8227,-182.6105 128.2042,-180.4952 118.7695,-175.6749 117.8227,-182.6105"/>
</g>
<!-- Node6 -->
<g id="node6" class="node">
<title>Node6</title>
<g id="a_node6"><a xlink:href="../../d8/d83/classPHG4TpcCentralMembrane.html#a1e626ad8659e345c0a879128913e29e3" target="_top" xlink:title="adjust central membrane hits delay with respect to trigger time">
<polygon fill="none" stroke="#000000" points="122.5,-129.5 122.5,-161.5 280.5,-161.5 280.5,-129.5 122.5,-129.5"/>
<text text-anchor="start" x="130.5" y="-148.5" font-family="FreeSans" font-size="10.00" fill="#000000">PHG4TpcCentralMembrane</text>
<text text-anchor="middle" x="201.5" y="-136.5" font-family="FreeSans" font-size="10.00" fill="#000000">::setCentralMembraneDelay</text>
</a>
</g>
</g>
<!-- Node1&#45;&gt;Node6 -->
<g id="edge5" class="edge">
<title>Node1&#45;&gt;Node6</title>
<path fill="none" stroke="#191970" d="M66.2902,-163.1535C79.6337,-161.4113 95.709,-159.3125 112.0462,-157.1794"/>
<polygon fill="#191970" stroke="#191970" points="112.7675,-160.615 122.2302,-155.8498 111.8612,-153.674 112.7675,-160.615"/>
</g>
<!-- Node7 -->
<g id="node7" class="node">
<title>Node7</title>
<g id="a_node7"><a xlink:href="../../d1/dc5/classPHG4TpcDigitizer.html#a6303f8359d2c04de1626ed1613503e0e" target="_top" xlink:title="PHG4TpcDigitizer::SetENC">
<polygon fill="none" stroke="#000000" points="127,-90.5 127,-110.5 276,-110.5 276,-90.5 127,-90.5"/>
<text text-anchor="middle" x="201.5" y="-97.5" font-family="FreeSans" font-size="10.00" fill="#000000">PHG4TpcDigitizer::SetENC</text>
</a>
</g>
</g>
<!-- Node1&#45;&gt;Node7 -->
<g id="edge6" class="edge">
<title>Node1&#45;&gt;Node7</title>
<path fill="none" stroke="#191970" d="M44.8396,-157.2236C57.9338,-146.4132 80.089,-129.7165 102,-120.5 108.6996,-117.6819 115.8236,-115.2527 123.0612,-113.1603"/>
<polygon fill="#191970" stroke="#191970" points="124.2151,-116.4748 132.9719,-110.5108 122.4072,-109.7123 124.2151,-116.4748"/>
</g>
<!-- Node8 -->
<g id="node8" class="node">
<title>Node8</title>
<g id="a_node8"><a xlink:href="../../d1/dc5/classPHG4TpcDigitizer.html#a478235bfcea8b3b1351d8462d8966813" target="_top" xlink:title="PHG4TpcDigitizer::SetTpc\lMinLayer">
<polygon fill="none" stroke="#000000" points="128.5,-39.5 128.5,-71.5 274.5,-71.5 274.5,-39.5 128.5,-39.5"/>
<text text-anchor="start" x="136.5" y="-58.5" font-family="FreeSans" font-size="10.00" fill="#000000">PHG4TpcDigitizer::SetTpc</text>
<text text-anchor="middle" x="201.5" y="-46.5" font-family="FreeSans" font-size="10.00" fill="#000000">MinLayer</text>
</a>
</g>
</g>
<!-- Node1&#45;&gt;Node8 -->
<g id="edge7" class="edge">
<title>Node1&#45;&gt;Node8</title>
<path fill="none" stroke="#191970" d="M38.3084,-157.2436C48.2554,-139.073 71.4808,-101.2828 102,-81.5 107.2601,-78.0903 112.9489,-75.1269 118.8499,-72.5514"/>
<polygon fill="#191970" stroke="#191970" points="120.2622,-75.7565 128.2664,-68.8151 117.6805,-69.25 120.2622,-75.7565"/>
</g>
<!-- Node9 -->
<g id="node9" class="node">
<title>Node9</title>
<g id="a_node9"><a xlink:href="../../d5/dec/classFun4AllBase.html#a05da2261577843028cf78e99171343b9" target="_top" xlink:title="Sets the verbosity of this module (0 by default=quiet).">
<polygon fill="none" stroke="#000000" points="135.5,-.5 135.5,-20.5 267.5,-20.5 267.5,-.5 135.5,-.5"/>
<text text-anchor="middle" x="201.5" y="-7.5" font-family="FreeSans" font-size="10.00" fill="#000000">Fun4AllBase::Verbosity</text>
</a>
</g>
</g>
<!-- Node1&#45;&gt;Node9 -->
<g id="edge8" class="edge">
<title>Node1&#45;&gt;Node9</title>
<path fill="none" stroke="#191970" d="M34.9548,-157.2951C40.4543,-131.5379 58.5818,-63.5957 102,-30.5 109.0251,-25.1451 117.1146,-21.1205 125.5821,-18.1105"/>
<polygon fill="#191970" stroke="#191970" points="126.7403,-21.4161 135.2663,-15.1265 124.679,-14.7265 126.7403,-21.4161"/>
</g>
</g>
</svg>
