<?xml version="1.0" encoding="UTF-8" standalone="no"?>
<!DOCTYPE svg PUBLIC "-//W3C//DTD SVG 1.1//EN"
 "http://www.w3.org/Graphics/SVG/1.1/DTD/svg11.dtd">
<!-- Generated by graphviz version 2.40.1 (20161225.0304)
 -->
<!-- Title: upcEvent::getParticles Pages: 1 -->
<svg width="590pt" height="29pt"
 viewBox="0.00 0.00 590.00 29.00" xmlns="http://www.w3.org/2000/svg" xmlns:xlink="http://www.w3.org/1999/xlink">
<g id="graph0" class="graph" transform="scale(1 1) rotate(0) translate(4 25)">
<title>upcEvent::getParticles</title>
<!-- Node1 -->
<g id="node1" class="node">
<title>Node1</title>
<polygon fill="#bfbfbf" stroke="#000000" points="0,-.5 0,-20.5 129,-20.5 129,-.5 0,-.5"/>
<text text-anchor="middle" x="64.5" y="-7.5" font-family="FreeSans" font-size="10.00" fill="#000000">upcEvent::getParticles</text>
</g>
<!-- Node2 -->
<g id="node2" class="node">
<title>Node2</title>
<g id="a_node2"><a xlink:href="../../d6/ddf/classeventFileWriter.html#a0ee0107796d19b05ecb5e1423a5cd8e9" target="_top" xlink:title="eventFileWriter::writeEvent">
<polygon fill="none" stroke="#000000" points="165,-.5 165,-20.5 319,-20.5 319,-.5 165,-.5"/>
<text text-anchor="middle" x="242" y="-7.5" font-family="FreeSans" font-size="10.00" fill="#000000">eventFileWriter::writeEvent</text>
</a>
</g>
</g>
<!-- Node1&#45;&gt;Node2 -->
<g id="edge1" class="edge">
<title>Node1&#45;&gt;Node2</title>
<path fill="none" stroke="#191970" d="M139.2691,-10.5C147.707,-10.5 156.3179,-10.5 164.7863,-10.5"/>
<polygon fill="#191970" stroke="#191970" points="139.0837,-7.0001 129.0837,-10.5 139.0837,-14.0001 139.0837,-7.0001"/>
</g>
<!-- Node3 -->
<g id="node3" class="node">
<title>Node3</title>
<g id="a_node3"><a xlink:href="../../d5/de3/classe__starlightStandalone.html#a5de581ae3de0a786baa1202e0b1fd767" target="_top" xlink:title="creates output file and runs starlight">
<polygon fill="none" stroke="#000000" points="355,-.5 355,-20.5 505,-20.5 505,-.5 355,-.5"/>
<text text-anchor="middle" x="430" y="-7.5" font-family="FreeSans" font-size="10.00" fill="#000000">e_starlightStandalone::run</text>
</a>
</g>
</g>
<!-- Node2&#45;&gt;Node3 -->
<g id="edge2" class="edge">
<title>Node2&#45;&gt;Node3</title>
<path fill="none" stroke="#191970" d="M329.0908,-10.5C337.7243,-10.5 346.4359,-10.5 354.9323,-10.5"/>
<polygon fill="#191970" stroke="#191970" points="329.0093,-7.0001 319.0092,-10.5 329.0092,-14.0001 329.0093,-7.0001"/>
</g>
<!-- Node4 -->
<g id="node4" class="node">
<title>Node4</title>
<g id="a_node4"><a xlink:href="../../d1/d87/e__main_8cpp.html#a0fc34f49b0e6eaed5e5c3accb409b1d1" target="_top" xlink:title="main">
<polygon fill="none" stroke="#000000" points="541,-.5 541,-20.5 582,-20.5 582,-.5 541,-.5"/>
<text text-anchor="middle" x="561.5" y="-7.5" font-family="FreeSans" font-size="10.00" fill="#000000">main</text>
</a>
</g>
</g>
<!-- Node3&#45;&gt;Node4 -->
<g id="edge3" class="edge">
<title>Node3&#45;&gt;Node4</title>
<path fill="none" stroke="#191970" d="M515.6274,-10.5C524.9232,-10.5 533.6339,-10.5 540.9147,-10.5"/>
<polygon fill="#191970" stroke="#191970" points="515.3508,-7.0001 505.3507,-10.5 515.3507,-14.0001 515.3508,-7.0001"/>
</g>
</g>
</svg>
