<?xml version="1.0" encoding="UTF-8" standalone="no"?>
<!DOCTYPE svg PUBLIC "-//W3C//DTD SVG 1.1//EN"
 "http://www.w3.org/Graphics/SVG/1.1/DTD/svg11.dtd">
<!-- Generated by graphviz version 2.40.1 (20161225.0304)
 -->
<!-- Title: orient2dadapt Pages: 1 -->
<svg width="252pt" height="80pt"
 viewBox="0.00 0.00 252.00 80.00" xmlns="http://www.w3.org/2000/svg" xmlns:xlink="http://www.w3.org/1999/xlink">
<g id="graph0" class="graph" transform="scale(1 1) rotate(0) translate(4 76)">
<title>orient2dadapt</title>
<!-- Node1 -->
<g id="node1" class="node">
<title>Node1</title>
<polygon fill="#bfbfbf" stroke="#000000" points="0,-28.5 0,-48.5 89,-48.5 89,-28.5 0,-28.5"/>
<text text-anchor="middle" x="44.5" y="-35.5" font-family="FreeSans" font-size="10.00" fill="#000000">orient2dadapt</text>
</g>
<!-- Node2 -->
<g id="node2" class="node">
<title>Node2</title>
<g id="a_node2"><a xlink:href="../../db/d4e/predicates_8cxx.html#a3487d9f90ea72da543d5d38b3dab1fbc" target="_top" xlink:title="estimate">
<polygon fill="none" stroke="#000000" points="154.5,-51.5 154.5,-71.5 214.5,-71.5 214.5,-51.5 154.5,-51.5"/>
<text text-anchor="middle" x="184.5" y="-58.5" font-family="FreeSans" font-size="10.00" fill="#000000">estimate</text>
</a>
</g>
</g>
<!-- Node1&#45;&gt;Node2 -->
<g id="edge1" class="edge">
<title>Node1&#45;&gt;Node2</title>
<path fill="none" stroke="#191970" d="M89.1818,-45.8406C106.8094,-48.7366 126.9127,-52.0392 144.0985,-54.8626"/>
<polygon fill="#191970" stroke="#191970" points="143.9386,-58.3832 154.3738,-56.5507 145.0735,-51.4758 143.9386,-58.3832"/>
</g>
<!-- Node3 -->
<g id="node3" class="node">
<title>Node3</title>
<g id="a_node3"><a xlink:href="../../db/d4e/predicates_8cxx.html#a37646a7e0014e10c612e946bc95aeeea" target="_top" xlink:title="fast_expansion_sum\l_zeroelim">
<polygon fill="none" stroke="#000000" points="125,-.5 125,-32.5 244,-32.5 244,-.5 125,-.5"/>
<text text-anchor="start" x="133" y="-19.5" font-family="FreeSans" font-size="10.00" fill="#000000">fast_expansion_sum</text>
<text text-anchor="middle" x="184.5" y="-7.5" font-family="FreeSans" font-size="10.00" fill="#000000">_zeroelim</text>
</a>
</g>
</g>
<!-- Node1&#45;&gt;Node3 -->
<g id="edge2" class="edge">
<title>Node1&#45;&gt;Node3</title>
<path fill="none" stroke="#191970" d="M89.1818,-31.4786C97.438,-30.1812 106.2372,-28.7984 115.0254,-27.4174"/>
<polygon fill="#191970" stroke="#191970" points="115.5779,-30.8737 124.9133,-25.8636 114.4912,-23.9585 115.5779,-30.8737"/>
</g>
</g>
</svg>
