<?xml version="1.0" encoding="UTF-8" standalone="no"?>
<!DOCTYPE svg PUBLIC "-//W3C//DTD SVG 1.1//EN"
 "http://www.w3.org/Graphics/SVG/1.1/DTD/svg11.dtd">
<!-- Generated by graphviz version 2.40.1 (20161225.0304)
 -->
<!-- Title: EicRoot/blob/master/dbase/dbInterface/FairDbException.h Pages: 1 -->
<svg width="215pt" height="98pt"
 viewBox="0.00 0.00 215.00 98.00" xmlns="http://www.w3.org/2000/svg" xmlns:xlink="http://www.w3.org/1999/xlink">
<g id="graph0" class="graph" transform="scale(1 1) rotate(0) translate(4 94)">
<title>EicRoot/blob/master/dbase/dbInterface/FairDbException.h</title>
<!-- Node1 -->
<g id="node1" class="node">
<title>Node1</title>
<polygon fill="#bfbfbf" stroke="#000000" points="0,-57.5 0,-89.5 207,-89.5 207,-57.5 0,-57.5"/>
<text text-anchor="start" x="8" y="-76.5" font-family="FreeSans" font-size="10.00" fill="#000000">EicRoot/blob/master</text>
<text text-anchor="middle" x="103.5" y="-64.5" font-family="FreeSans" font-size="10.00" fill="#000000">/dbase/dbInterface/FairDbException.h</text>
</g>
<!-- Node2 -->
<g id="node2" class="node">
<title>Node2</title>
<polygon fill="none" stroke="#bfbfbf" points="14.5,-.5 14.5,-20.5 62.5,-20.5 62.5,-.5 14.5,-.5"/>
<text text-anchor="middle" x="38.5" y="-7.5" font-family="FreeSans" font-size="10.00" fill="#000000">iosfwd</text>
</g>
<!-- Node1&#45;&gt;Node2 -->
<g id="edge1" class="edge">
<title>Node1&#45;&gt;Node2</title>
<path fill="none" stroke="#191970" d="M86.7609,-57.2759C77.4746,-48.2754 65.9232,-37.0794 56.45,-27.8977"/>
<polygon fill="#191970" stroke="#191970" points="58.6933,-25.1978 49.0767,-20.7513 53.8215,-30.2243 58.6933,-25.1978"/>
</g>
<!-- Node3 -->
<g id="node3" class="node">
<title>Node3</title>
<polygon fill="none" stroke="#bfbfbf" points="81,-.5 81,-20.5 126,-20.5 126,-.5 81,-.5"/>
<text text-anchor="middle" x="103.5" y="-7.5" font-family="FreeSans" font-size="10.00" fill="#000000">string</text>
</g>
<!-- Node1&#45;&gt;Node3 -->
<g id="edge2" class="edge">
<title>Node1&#45;&gt;Node3</title>
<path fill="none" stroke="#191970" d="M103.5,-57.2759C103.5,-49.2654 103.5,-39.5159 103.5,-30.9952"/>
<polygon fill="#191970" stroke="#191970" points="107.0001,-30.7512 103.5,-20.7513 100.0001,-30.7513 107.0001,-30.7512"/>
</g>
<!-- Node4 -->
<g id="node4" class="node">
<title>Node4</title>
<polygon fill="none" stroke="#bfbfbf" points="144.5,-.5 144.5,-20.5 204.5,-20.5 204.5,-.5 144.5,-.5"/>
<text text-anchor="middle" x="174.5" y="-7.5" font-family="FreeSans" font-size="10.00" fill="#000000">Rtypes.h</text>
</g>
<!-- Node1&#45;&gt;Node4 -->
<g id="edge3" class="edge">
<title>Node1&#45;&gt;Node4</title>
<path fill="none" stroke="#191970" d="M121.7843,-57.2759C132.0292,-48.1854 144.7981,-36.8552 155.2028,-27.6229"/>
<polygon fill="#191970" stroke="#191970" points="157.79,-30.0064 162.947,-20.7513 153.1441,-24.7704 157.79,-30.0064"/>
</g>
</g>
</svg>
