<?xml version="1.0" encoding="UTF-8" standalone="no"?>
<!DOCTYPE svg PUBLIC "-//W3C//DTD SVG 1.1//EN"
 "http://www.w3.org/Graphics/SVG/1.1/DTD/svg11.dtd">
<!-- Generated by graphviz version 2.40.1 (20161225.0304)
 -->
<!-- Title: lufowo Pages: 1 -->
<svg width="799pt" height="436pt"
 viewBox="0.00 0.00 799.00 436.00" xmlns="http://www.w3.org/2000/svg" xmlns:xlink="http://www.w3.org/1999/xlink">
<g id="graph0" class="graph" transform="scale(1 1) rotate(0) translate(4 432)">
<title>lufowo</title>
<!-- Node1 -->
<g id="node1" class="node">
<title>Node1</title>
<polygon fill="#bfbfbf" stroke="#000000" points="0,-58.5 0,-78.5 50,-78.5 50,-58.5 0,-58.5"/>
<text text-anchor="middle" x="25" y="-65.5" font-family="FreeSans" font-size="10.00" fill="#000000">lufowo</text>
</g>
<!-- Node2 -->
<g id="node2" class="node">
<title>Node2</title>
<g id="a_node2"><a xlink:href="../../df/d5f/luchge_8f.html#a86938fb3242850e133e3b60d256582b7" target="_top" xlink:title="luchge">
<polygon fill="none" stroke="#000000" points="510,-78.5 510,-98.5 560,-98.5 560,-78.5 510,-78.5"/>
<text text-anchor="middle" x="535" y="-85.5" font-family="FreeSans" font-size="10.00" fill="#000000">luchge</text>
</a>
</g>
</g>
<!-- Node1&#45;&gt;Node2 -->
<g id="edge1" class="edge">
<title>Node1&#45;&gt;Node2</title>
<path fill="none" stroke="#191970" d="M50.291,-69.4918C134.0787,-72.7776 402.7532,-83.3139 499.698,-87.1156"/>
<polygon fill="#191970" stroke="#191970" points="499.7284,-90.6194 509.8579,-87.514 500.0027,-83.6248 499.7284,-90.6194"/>
</g>
<!-- Node3 -->
<g id="node3" class="node">
<title>Node3</title>
<g id="a_node3"><a xlink:href="../../d0/da8/lucomp_8f.html#af4e2c29d51aeb470efbf59be26e18d04" target="_top" xlink:title="lucomp">
<polygon fill="none" stroke="#000000" points="688.5,-117.5 688.5,-137.5 742.5,-137.5 742.5,-117.5 688.5,-117.5"/>
<text text-anchor="middle" x="715.5" y="-124.5" font-family="FreeSans" font-size="10.00" fill="#000000">lucomp</text>
</a>
</g>
</g>
<!-- Node1&#45;&gt;Node3 -->
<g id="edge3" class="edge">
<title>Node1&#45;&gt;Node3</title>
<path fill="none" stroke="#191970" d="M50.0562,-64.8815C90.4634,-59.3688 172.5667,-49.5 242.5,-49.5 242.5,-49.5 242.5,-49.5 376,-49.5 477.6846,-49.5 506.4148,-39.9187 604,-68.5 636.7351,-78.0876 670.9098,-97.8478 692.6556,-111.8538"/>
<polygon fill="#191970" stroke="#191970" points="690.8959,-114.8856 701.1738,-117.4576 694.7431,-109.0376 690.8959,-114.8856"/>
</g>
<!-- Node4 -->
<g id="node4" class="node">
<title>Node4</title>
<g id="a_node4"><a xlink:href="../../df/dd0/luerrm_8f.html#ab2b89149ed6c532c613c12ae6c351b5d" target="_top" xlink:title="luerrm">
<polygon fill="none" stroke="#000000" points="100,-174.5 100,-194.5 149,-194.5 149,-174.5 100,-174.5"/>
<text text-anchor="middle" x="124.5" y="-181.5" font-family="FreeSans" font-size="10.00" fill="#000000">luerrm</text>
</a>
</g>
</g>
<!-- Node1&#45;&gt;Node4 -->
<g id="edge4" class="edge">
<title>Node1&#45;&gt;Node4</title>
<path fill="none" stroke="#191970" d="M33.83,-78.7942C50.7629,-98.5351 87.988,-141.9332 109.0971,-166.5429"/>
<polygon fill="#191970" stroke="#191970" points="106.6647,-169.0829 115.8319,-174.3945 111.9779,-164.5255 106.6647,-169.0829"/>
</g>
<!-- Node19 -->
<g id="node19" class="node">
<title>Node19</title>
<g id="a_node19"><a xlink:href="../../d8/d1a/classHiMain1.html#a676ccaef5fa9c10e945e6d1477aeb366" target="_top" xlink:title="HiMain1::np">
<polygon fill="none" stroke="#000000" points="86,-.5 86,-20.5 163,-20.5 163,-.5 86,-.5"/>
<text text-anchor="middle" x="124.5" y="-7.5" font-family="FreeSans" font-size="10.00" fill="#000000">HiMain1::np</text>
</a>
</g>
</g>
<!-- Node1&#45;&gt;Node19 -->
<g id="edge27" class="edge">
<title>Node1&#45;&gt;Node19</title>
<path fill="none" stroke="#191970" d="M42.3316,-58.3972C57.7885,-49.3871 80.6402,-36.0665 98.3236,-25.7586"/>
<polygon fill="#191970" stroke="#191970" points="100.1564,-28.7415 107.0332,-20.6817 96.6312,-22.6939 100.1564,-28.7415"/>
</g>
<!-- Node2&#45;&gt;Node3 -->
<g id="edge2" class="edge">
<title>Node2&#45;&gt;Node3</title>
<path fill="none" stroke="#191970" d="M560.0978,-93.9228C590.7792,-100.552 642.9716,-111.829 678.319,-119.4664"/>
<polygon fill="#191970" stroke="#191970" points="677.7438,-122.9228 688.2574,-121.6138 679.2222,-116.0807 677.7438,-122.9228"/>
</g>
<!-- Node5 -->
<g id="node5" class="node">
<title>Node5</title>
<g id="a_node5"><a xlink:href="../../d7/dda/lulist_8f.html#a69a9c5efe2681d7e19be2b4ed218153e" target="_top" xlink:title="lulist">
<polygon fill="none" stroke="#000000" points="222,-174.5 222,-194.5 263,-194.5 263,-174.5 222,-174.5"/>
<text text-anchor="middle" x="242.5" y="-181.5" font-family="FreeSans" font-size="10.00" fill="#000000">lulist</text>
</a>
</g>
</g>
<!-- Node4&#45;&gt;Node5 -->
<g id="edge5" class="edge">
<title>Node4&#45;&gt;Node5</title>
<path fill="none" stroke="#191970" d="M149.2367,-184.5C167.3694,-184.5 192.1099,-184.5 211.5528,-184.5"/>
<polygon fill="#191970" stroke="#191970" points="211.7338,-188.0001 221.7338,-184.5 211.7338,-181.0001 211.7338,-188.0001"/>
</g>
<!-- Node14 -->
<g id="node14" class="node">
<title>Node14</title>
<g id="a_node14"><a xlink:href="../../d0/d5e/classPHTimer.html#adce6f9a85834e59bd154b9c624ee4e41" target="_top" xlink:title="stops the counter">
<polygon fill="none" stroke="#000000" points="199,-336.5 199,-356.5 286,-356.5 286,-336.5 199,-336.5"/>
<text text-anchor="middle" x="242.5" y="-343.5" font-family="FreeSans" font-size="10.00" fill="#000000">PHTimer::stop</text>
</a>
</g>
</g>
<!-- Node4&#45;&gt;Node14 -->
<g id="edge21" class="edge">
<title>Node4&#45;&gt;Node14</title>
<path fill="none" stroke="#191970" d="M131.8814,-194.6338C151.3343,-221.3403 204.2156,-293.94 229.1501,-328.1722"/>
<polygon fill="#191970" stroke="#191970" points="226.4046,-330.3476 235.1214,-336.37 232.0627,-326.2263 226.4046,-330.3476"/>
</g>
<!-- Node5&#45;&gt;Node3 -->
<g id="edge9" class="edge">
<title>Node5&#45;&gt;Node3</title>
<path fill="none" stroke="#191970" d="M263.2896,-182.0751C318.684,-175.6036 474.4506,-157.3378 604,-141.5 628.7969,-138.4685 656.6832,-134.967 678.3646,-132.2242"/>
<polygon fill="#191970" stroke="#191970" points="678.9883,-135.6732 688.4691,-130.944 678.1085,-128.7288 678.9883,-135.6732"/>
</g>
<!-- Node6 -->
<g id="node6" class="node">
<title>Node6</title>
<g id="a_node6"><a xlink:href="../../d6/d80/luname_8f.html#a87cfaa02a00bc60d5b1ce6c2fce29432" target="_top" xlink:title="luname">
<polygon fill="none" stroke="#000000" points="349,-116.5 349,-136.5 403,-136.5 403,-116.5 349,-116.5"/>
<text text-anchor="middle" x="376" y="-123.5" font-family="FreeSans" font-size="10.00" fill="#000000">luname</text>
</a>
</g>
</g>
<!-- Node5&#45;&gt;Node6 -->
<g id="edge6" class="edge">
<title>Node5&#45;&gt;Node6</title>
<path fill="none" stroke="#191970" d="M263.0668,-175.5646C284.5038,-166.2512 318.4055,-151.5223 343.4763,-140.6301"/>
<polygon fill="#191970" stroke="#191970" points="345.1665,-143.7119 352.9437,-136.517 342.3772,-137.2917 345.1665,-143.7119"/>
</g>
<!-- Node7 -->
<g id="node7" class="node">
<title>Node7</title>
<g id="a_node7"><a xlink:href="../../d0/d38/plu_8f.html#ab4b095f080a22e776f5a9cc25e23cc54" target="_top" xlink:title="plu">
<polygon fill="none" stroke="#000000" points="360,-233.5 360,-253.5 392,-253.5 392,-233.5 360,-233.5"/>
<text text-anchor="middle" x="376" y="-240.5" font-family="FreeSans" font-size="10.00" fill="#000000">plu</text>
</a>
</g>
</g>
<!-- Node5&#45;&gt;Node7 -->
<g id="edge10" class="edge">
<title>Node5&#45;&gt;Node7</title>
<path fill="none" stroke="#191970" d="M263.0668,-193.5894C286.57,-203.9766 325.0566,-220.9857 350.4605,-232.2129"/>
<polygon fill="#191970" stroke="#191970" points="349.2585,-235.5082 359.8199,-236.3493 352.0882,-229.1056 349.2585,-235.5082"/>
</g>
<!-- Node10 -->
<g id="node10" class="node">
<title>Node10</title>
<g id="a_node10"><a xlink:href="../../d7/ded/ulmass_8f.html#aa951cb677600842104db95323a7647b2" target="_top" xlink:title="ulmass">
<polygon fill="none" stroke="#000000" points="509,-194.5 509,-214.5 561,-214.5 561,-194.5 509,-194.5"/>
<text text-anchor="middle" x="535" y="-201.5" font-family="FreeSans" font-size="10.00" fill="#000000">ulmass</text>
</a>
</g>
</g>
<!-- Node5&#45;&gt;Node10 -->
<g id="edge20" class="edge">
<title>Node5&#45;&gt;Node10</title>
<path fill="none" stroke="#191970" d="M263.068,-185.9064C312.1155,-189.26 436.4749,-197.7632 498.5669,-202.0088"/>
<polygon fill="#191970" stroke="#191970" points="498.4759,-205.5107 508.6914,-202.7011 498.9535,-198.527 498.4759,-205.5107"/>
</g>
<!-- Node6&#45;&gt;Node2 -->
<g id="edge8" class="edge">
<title>Node6&#45;&gt;Node2</title>
<path fill="none" stroke="#191970" d="M403.3331,-119.9676C430.0994,-113.5706 470.991,-103.7977 500.0955,-96.842"/>
<polygon fill="#191970" stroke="#191970" points="500.9435,-100.2379 509.856,-94.5093 499.3163,-93.4297 500.9435,-100.2379"/>
</g>
<!-- Node6&#45;&gt;Node3 -->
<g id="edge7" class="edge">
<title>Node6&#45;&gt;Node3</title>
<path fill="none" stroke="#191970" d="M403.2088,-126.5801C463.5492,-126.7579 608.6929,-127.1854 677.7554,-127.3888"/>
<polygon fill="#191970" stroke="#191970" points="678.1513,-130.8899 688.1616,-127.4195 678.172,-123.8899 678.1513,-130.8899"/>
</g>
<!-- Node7&#45;&gt;Node2 -->
<g id="edge11" class="edge">
<title>Node7&#45;&gt;Node2</title>
<path fill="none" stroke="#191970" d="M386.4324,-233.33C413.168,-207.267 484.3592,-137.8668 517.5329,-105.5277"/>
<polygon fill="#191970" stroke="#191970" points="520.0184,-107.9926 524.7359,-98.5059 515.1321,-102.9802 520.0184,-107.9926"/>
</g>
<!-- Node8 -->
<g id="node8" class="node">
<title>Node8</title>
<g id="a_node8"><a xlink:href="../../d2/da8/ulangl_8f.html#a13a8d5a72aa20b0ae2ceca14e31467ba" target="_top" xlink:title="ulangl">
<polygon fill="none" stroke="#000000" points="511.5,-233.5 511.5,-253.5 558.5,-253.5 558.5,-233.5 511.5,-233.5"/>
<text text-anchor="middle" x="535" y="-240.5" font-family="FreeSans" font-size="10.00" fill="#000000">ulangl</text>
</a>
</g>
</g>
<!-- Node7&#45;&gt;Node8 -->
<g id="edge12" class="edge">
<title>Node7&#45;&gt;Node8</title>
<path fill="none" stroke="#191970" d="M392.1208,-243.5C417.5535,-243.5 467.5431,-243.5 501.1207,-243.5"/>
<polygon fill="#191970" stroke="#191970" points="501.3939,-247.0001 511.3939,-243.5 501.3939,-240.0001 501.3939,-247.0001"/>
</g>
<!-- Node9 -->
<g id="node9" class="node">
<title>Node9</title>
<g id="a_node9"><a xlink:href="../../da/d0a/CylinderKalman_8cpp.html#ab74daa0c9784c63e060bfb98cc06fbf5" target="_top" xlink:title="sign">
<polygon fill="none" stroke="#000000" points="697,-250.5 697,-270.5 734,-270.5 734,-250.5 697,-250.5"/>
<text text-anchor="middle" x="715.5" y="-257.5" font-family="FreeSans" font-size="10.00" fill="#000000">sign</text>
</a>
</g>
</g>
<!-- Node7&#45;&gt;Node9 -->
<g id="edge17" class="edge">
<title>Node7&#45;&gt;Node9</title>
<path fill="none" stroke="#191970" d="M392.0801,-248.1924C409.9483,-253.1428 439.7475,-260.6182 466,-263.5 545.5298,-272.2302 640.17,-266.8019 686.7221,-263.1006"/>
<polygon fill="#191970" stroke="#191970" points="687.2819,-266.5663 696.9585,-262.2519 686.7034,-259.5902 687.2819,-266.5663"/>
</g>
<!-- Node7&#45;&gt;Node10 -->
<g id="edge14" class="edge">
<title>Node7&#45;&gt;Node10</title>
<path fill="none" stroke="#191970" d="M392.1208,-239.5458C417.0196,-233.4386 465.4553,-221.5581 498.985,-213.3339"/>
<polygon fill="#191970" stroke="#191970" points="499.9913,-216.6909 508.8696,-210.9093 498.3237,-209.8924 499.9913,-216.6909"/>
</g>
<!-- Node12 -->
<g id="node12" class="node">
<title>Node12</title>
<g id="a_node12"><a xlink:href="../../d4/d3e/classActs_1_1Logger.html#aee9e687247532b5175713e66b2d2121e" target="_top" xlink:title="create output stream object with internal cache">
<polygon fill="none" stroke="#000000" points="484,-311.5 484,-331.5 586,-331.5 586,-311.5 484,-311.5"/>
<text text-anchor="middle" x="535" y="-318.5" font-family="FreeSans" font-size="10.00" fill="#000000">Acts::Logger::log</text>
</a>
</g>
</g>
<!-- Node7&#45;&gt;Node12 -->
<g id="edge18" class="edge">
<title>Node7&#45;&gt;Node12</title>
<path fill="none" stroke="#191970" d="M391.1353,-253.5875C408.6494,-264.9791 438.601,-283.6042 466,-296.5 474.8983,-300.6881 484.7035,-304.6235 494.0597,-308.0777"/>
<polygon fill="#191970" stroke="#191970" points="492.9961,-311.4144 503.5906,-311.4937 495.3579,-304.8249 492.9961,-311.4144"/>
</g>
<!-- Node8&#45;&gt;Node9 -->
<g id="edge13" class="edge">
<title>Node8&#45;&gt;Node9</title>
<path fill="none" stroke="#191970" d="M558.5972,-245.7225C591.5057,-248.8219 651.1281,-254.4373 686.6407,-257.7819"/>
<polygon fill="#191970" stroke="#191970" points="686.5474,-261.2886 696.8315,-258.7418 687.2038,-254.3194 686.5474,-261.2886"/>
</g>
<!-- Node10&#45;&gt;Node3 -->
<g id="edge15" class="edge">
<title>Node10&#45;&gt;Node3</title>
<path fill="none" stroke="#191970" d="M561.0939,-195.6605C574.0933,-191.1017 589.988,-185.2924 604,-179.5 632.1992,-167.8428 663.6482,-153.0025 685.9383,-142.162"/>
<polygon fill="#191970" stroke="#191970" points="687.7471,-145.1736 695.192,-137.6355 684.6712,-138.8856 687.7471,-145.1736"/>
</g>
<!-- Node11 -->
<g id="node11" class="node">
<title>Node11</title>
<g id="a_node11"><a xlink:href="../../d5/dae/rlu_8f.html#a722544a6fb4dd0f67ceda726148484f5" target="_top" xlink:title="rlu">
<polygon fill="none" stroke="#000000" points="701,-194.5 701,-214.5 730,-214.5 730,-194.5 701,-194.5"/>
<text text-anchor="middle" x="715.5" y="-201.5" font-family="FreeSans" font-size="10.00" fill="#000000">rlu</text>
</a>
</g>
</g>
<!-- Node10&#45;&gt;Node11 -->
<g id="edge16" class="edge">
<title>Node10&#45;&gt;Node11</title>
<path fill="none" stroke="#191970" d="M561.2462,-204.5C596.0079,-204.5 656.8697,-204.5 690.8239,-204.5"/>
<polygon fill="#191970" stroke="#191970" points="690.8353,-208.0001 700.8353,-204.5 690.8353,-201.0001 690.8353,-208.0001"/>
</g>
<!-- Node13 -->
<g id="node13" class="node">
<title>Node13</title>
<g id="a_node13"><a xlink:href="../../df/dce/classActs_1_1Logging_1_1OutputPrintPolicy.html#ab113823970013e1e7f310b36509136ac" target="_top" xlink:title="handle output of debug message">
<polygon fill="none" stroke="#000000" points="640,-305.5 640,-337.5 791,-337.5 791,-305.5 640,-305.5"/>
<text text-anchor="start" x="648" y="-324.5" font-family="FreeSans" font-size="10.00" fill="#000000">Acts::Logging::OutputPrint</text>
<text text-anchor="middle" x="715.5" y="-312.5" font-family="FreeSans" font-size="10.00" fill="#000000">Policy::flush</text>
</a>
</g>
</g>
<!-- Node12&#45;&gt;Node13 -->
<g id="edge19" class="edge">
<title>Node12&#45;&gt;Node13</title>
<path fill="none" stroke="#191970" d="M586.2412,-321.5C599.7906,-321.5 614.7926,-321.5 629.6359,-321.5"/>
<polygon fill="#191970" stroke="#191970" points="629.867,-325.0001 639.867,-321.5 629.8669,-318.0001 629.867,-325.0001"/>
</g>
<!-- Node15 -->
<g id="node15" class="node">
<title>Node15</title>
<g id="a_node15"><a xlink:href="../../d0/d5e/classPHTimer.html#aa92e3fe4a0a1799f39743eda9ef9d497" target="_top" xlink:title="gets time from cpu clock counts">
<polygon fill="none" stroke="#000000" points="478.5,-350.5 478.5,-382.5 591.5,-382.5 591.5,-350.5 478.5,-350.5"/>
<text text-anchor="start" x="486.5" y="-369.5" font-family="FreeSans" font-size="10.00" fill="#000000">PHTimer::get_clock</text>
<text text-anchor="middle" x="535" y="-357.5" font-family="FreeSans" font-size="10.00" fill="#000000">_counts</text>
</a>
</g>
</g>
<!-- Node14&#45;&gt;Node15 -->
<g id="edge22" class="edge">
<title>Node14&#45;&gt;Node15</title>
<path fill="none" stroke="#191970" d="M286.2902,-349.4942C334.4506,-352.7872 412.4005,-358.1171 468.1984,-361.9324"/>
<polygon fill="#191970" stroke="#191970" points="468.1316,-365.4359 478.3471,-362.6263 468.6092,-358.4522 468.1316,-365.4359"/>
</g>
<!-- Node16 -->
<g id="node16" class="node">
<title>Node16</title>
<g id="a_node16"><a xlink:href="../../d0/d5e/classPHTimer.html#a976738876ad978116fdc4549a3765685" target="_top" xlink:title="retrieve elapsed value since last restart (in ms)">
<polygon fill="none" stroke="#000000" points="323.5,-375.5 323.5,-395.5 428.5,-395.5 428.5,-375.5 323.5,-375.5"/>
<text text-anchor="middle" x="376" y="-382.5" font-family="FreeSans" font-size="10.00" fill="#000000">PHTimer::elapsed</text>
</a>
</g>
</g>
<!-- Node14&#45;&gt;Node16 -->
<g id="edge23" class="edge">
<title>Node14&#45;&gt;Node16</title>
<path fill="none" stroke="#191970" d="M276.8796,-356.5435C293.6972,-361.4565 314.1322,-367.4263 332.0683,-372.666"/>
<polygon fill="#191970" stroke="#191970" points="331.1567,-376.0459 341.7369,-375.4906 333.1196,-369.3268 331.1567,-376.0459"/>
</g>
<!-- Node16&#45;&gt;Node15 -->
<g id="edge26" class="edge">
<title>Node16&#45;&gt;Node15</title>
<path fill="none" stroke="#191970" d="M428.5032,-379.226C441.2617,-377.7014 455.0727,-376.0511 468.3883,-374.4599"/>
<polygon fill="#191970" stroke="#191970" points="468.9344,-377.9196 478.4485,-373.2577 468.1038,-370.9691 468.9344,-377.9196"/>
</g>
<!-- Node17 -->
<g id="node17" class="node">
<title>Node17</title>
<g id="a_node17"><a xlink:href="../../d0/d5e/classPHTimer.html#aa75ff2c27aba40e7ef0a934f9a3355c2" target="_top" xlink:title="returns difference between to time">
<polygon fill="none" stroke="#000000" points="466,-401.5 466,-421.5 604,-421.5 604,-401.5 466,-401.5"/>
<text text-anchor="middle" x="535" y="-408.5" font-family="FreeSans" font-size="10.00" fill="#000000">PHTimer::get_difference</text>
</a>
</g>
</g>
<!-- Node16&#45;&gt;Node17 -->
<g id="edge24" class="edge">
<title>Node16&#45;&gt;Node17</title>
<path fill="none" stroke="#191970" d="M428.5032,-394.0854C439.8101,-395.9344 451.9438,-397.9185 463.8266,-399.8616"/>
<polygon fill="#191970" stroke="#191970" points="463.2917,-403.3205 473.7255,-401.4803 464.4214,-396.4123 463.2917,-403.3205"/>
</g>
<!-- Node18 -->
<g id="node18" class="node">
<title>Node18</title>
<g id="a_node18"><a xlink:href="../../d2/db1/classPHTimer_1_1Frequency.html#a023a2d706df9a8bd303810a9ed017f61" target="_top" xlink:title="period accessor">
<polygon fill="none" stroke="#000000" points="656.5,-395.5 656.5,-427.5 774.5,-427.5 774.5,-395.5 656.5,-395.5"/>
<text text-anchor="start" x="664.5" y="-414.5" font-family="FreeSans" font-size="10.00" fill="#000000">PHTimer::Frequency</text>
<text text-anchor="middle" x="715.5" y="-402.5" font-family="FreeSans" font-size="10.00" fill="#000000">::period</text>
</a>
</g>
</g>
<!-- Node17&#45;&gt;Node18 -->
<g id="edge25" class="edge">
<title>Node17&#45;&gt;Node18</title>
<path fill="none" stroke="#191970" d="M604.0119,-411.5C617.7321,-411.5 632.1466,-411.5 645.8868,-411.5"/>
<polygon fill="#191970" stroke="#191970" points="646.2399,-415.0001 656.2399,-411.5 646.2398,-408.0001 646.2399,-415.0001"/>
</g>
<!-- Node20 -->
<g id="node20" class="node">
<title>Node20</title>
<g id="a_node20"><a xlink:href="../../d8/d1a/classHiMain1.html#abdd4d6ac793897447c6d9f7b9e6d20ca" target="_top" xlink:title="HiMain1::init">
<polygon fill="none" stroke="#000000" points="202,-.5 202,-20.5 283,-20.5 283,-.5 202,-.5"/>
<text text-anchor="middle" x="242.5" y="-7.5" font-family="FreeSans" font-size="10.00" fill="#000000">HiMain1::init</text>
</a>
</g>
</g>
<!-- Node19&#45;&gt;Node20 -->
<g id="edge28" class="edge">
<title>Node19&#45;&gt;Node20</title>
<path fill="none" stroke="#191970" d="M163.1376,-10.5C172.22,-10.5 182.0361,-10.5 191.5661,-10.5"/>
<polygon fill="#191970" stroke="#191970" points="191.7466,-14.0001 201.7465,-10.5 191.7465,-7.0001 191.7466,-14.0001"/>
</g>
<!-- Node21 -->
<g id="node21" class="node">
<title>Node21</title>
<g id="a_node21"><a xlink:href="../../d7/dc3/HiMain1_8h.html#af413dd2854a4d96511498e79f1519c57" target="_top" xlink:title="himain1_address_">
<polygon fill="none" stroke="#000000" points="322,-.5 322,-20.5 430,-20.5 430,-.5 322,-.5"/>
<text text-anchor="middle" x="376" y="-7.5" font-family="FreeSans" font-size="10.00" fill="#000000">himain1_address_</text>
</a>
</g>
</g>
<!-- Node20&#45;&gt;Node21 -->
<g id="edge29" class="edge">
<title>Node20&#45;&gt;Node21</title>
<path fill="none" stroke="#191970" d="M283.2798,-10.5C292.2717,-10.5 302.0084,-10.5 311.6772,-10.5"/>
<polygon fill="#191970" stroke="#191970" points="311.6945,-14.0001 321.6944,-10.5 311.6944,-7.0001 311.6945,-14.0001"/>
</g>
</g>
</svg>
