<?xml version="1.0" encoding="UTF-8" standalone="no"?>
<!DOCTYPE svg PUBLIC "-//W3C//DTD SVG 1.1//EN"
 "http://www.w3.org/Graphics/SVG/1.1/DTD/svg11.dtd">
<!-- Generated by graphviz version 2.40.1 (20161225.0304)
 -->
<!-- Title: BuildTree Pages: 1 -->
<svg width="1004pt" height="165pt"
 viewBox="0.00 0.00 1004.00 165.00" xmlns="http://www.w3.org/2000/svg" xmlns:xlink="http://www.w3.org/1999/xlink">
<g id="graph0" class="graph" transform="scale(1 1) rotate(0) translate(4 161)">
<title>BuildTree</title>
<!-- Node1 -->
<g id="node1" class="node">
<title>Node1</title>
<polygon fill="#bfbfbf" stroke="#000000" points="0,-58.5 0,-78.5 63,-78.5 63,-58.5 0,-58.5"/>
<text text-anchor="middle" x="31.5" y="-65.5" font-family="FreeSans" font-size="10.00" fill="#000000">BuildTree</text>
</g>
<!-- Node2 -->
<g id="node2" class="node">
<title>Node2</title>
<g id="a_node2"><a xlink:href="../../d9/d8b/build_8cxx.html#a7e405971f86730952f175f9d706988dc" target="_top" xlink:title="build">
<polygon fill="none" stroke="#000000" points="115,-117.5 115,-137.5 156,-137.5 156,-117.5 115,-117.5"/>
<text text-anchor="middle" x="135.5" y="-124.5" font-family="FreeSans" font-size="10.00" fill="#000000">build</text>
</a>
</g>
</g>
<!-- Node1&#45;&gt;Node2 -->
<g id="edge1" class="edge">
<title>Node1&#45;&gt;Node2</title>
<path fill="none" stroke="#191970" d="M56.6017,-83.82C69.2266,-91.4112 84.8216,-100.6165 99,-108.5 104.3696,-111.4856 110.2506,-114.6095 115.6936,-117.4418"/>
<polygon fill="#191970" stroke="#191970" points="58.3652,-80.7963 47.9964,-78.6197 54.7448,-86.7873 58.3652,-80.7963"/>
</g>
<!-- Node8 -->
<g id="node8" class="node">
<title>Node8</title>
<g id="a_node8"><a xlink:href="../../d2/d99/ConvertFile_8C.html#ab987e2b1430fa988aa50a3fe337ed120" target="_top" xlink:title="ConvertFile">
<polygon fill="none" stroke="#000000" points="99,-78.5 99,-98.5 172,-98.5 172,-78.5 99,-78.5"/>
<text text-anchor="middle" x="135.5" y="-85.5" font-family="FreeSans" font-size="10.00" fill="#000000">ConvertFile</text>
</a>
</g>
</g>
<!-- Node1&#45;&gt;Node8 -->
<g id="edge7" class="edge">
<title>Node1&#45;&gt;Node8</title>
<path fill="none" stroke="#191970" d="M73.3181,-76.5419C81.7601,-78.1654 90.5748,-79.8605 98.8243,-81.447"/>
<polygon fill="#191970" stroke="#191970" points="73.7496,-73.0609 63.2685,-74.6093 72.4276,-79.9349 73.7496,-73.0609"/>
</g>
<!-- Node9 -->
<g id="node9" class="node">
<title>Node9</title>
<g id="a_node9"><a xlink:href="../../d3/d8a/ffqaplots_8cxx.html#a0ddf1224851353fc92bfbff6f499fa97" target="_top" xlink:title="main">
<polygon fill="none" stroke="#000000" points="115,-39.5 115,-59.5 156,-59.5 156,-39.5 115,-39.5"/>
<text text-anchor="middle" x="135.5" y="-46.5" font-family="FreeSans" font-size="10.00" fill="#000000">main</text>
</a>
</g>
</g>
<!-- Node1&#45;&gt;Node9 -->
<g id="edge8" class="edge">
<title>Node1&#45;&gt;Node9</title>
<path fill="none" stroke="#191970" d="M73.3833,-60.8483C87.6177,-58.2477 102.9042,-55.455 114.7508,-53.2907"/>
<polygon fill="#191970" stroke="#191970" points="72.4767,-57.4559 63.2685,-62.6961 73.7348,-64.3419 72.4767,-57.4559"/>
</g>
<!-- Node10 -->
<g id="node10" class="node">
<title>Node10</title>
<g id="a_node10"><a xlink:href="../../d6/daa/eic-smear_2blob_2master_2scripts_2make__tree_8C.html#ad98edec9140718d23ff300dca406bd35" target="_top" xlink:title="make_tree">
<polygon fill="none" stroke="#000000" points="101,-.5 101,-20.5 170,-20.5 170,-.5 101,-.5"/>
<text text-anchor="middle" x="135.5" y="-7.5" font-family="FreeSans" font-size="10.00" fill="#000000">make_tree</text>
</a>
</g>
</g>
<!-- Node1&#45;&gt;Node10 -->
<g id="edge9" class="edge">
<title>Node1&#45;&gt;Node10</title>
<path fill="none" stroke="#191970" d="M58.1508,-53.4038C70.5509,-46.4037 85.5095,-37.993 99,-30.5 104.8114,-27.2722 111.1599,-23.7813 116.9088,-20.6334"/>
<polygon fill="#191970" stroke="#191970" points="56.2175,-50.476 49.2337,-58.4433 59.6617,-56.5701 56.2175,-50.476"/>
</g>
<!-- Node3 -->
<g id="node3" class="node">
<title>Node3</title>
<g id="a_node3"><a xlink:href="../../de/dcb/RecTruthTracks_8cpp.html#a0ddf1224851353fc92bfbff6f499fa97" target="_top" xlink:title="main">
<polygon fill="none" stroke="#000000" points="287,-136.5 287,-156.5 328,-156.5 328,-136.5 287,-136.5"/>
<text text-anchor="middle" x="307.5" y="-143.5" font-family="FreeSans" font-size="10.00" fill="#000000">main</text>
</a>
</g>
</g>
<!-- Node2&#45;&gt;Node3 -->
<g id="edge2" class="edge">
<title>Node2&#45;&gt;Node3</title>
<path fill="none" stroke="#191970" d="M166.3458,-130.9074C201.2174,-134.7595 257.0175,-140.9234 286.9469,-144.2296"/>
<polygon fill="#191970" stroke="#191970" points="166.5711,-127.4111 156.2472,-129.7918 165.8024,-134.3687 166.5711,-127.4111"/>
</g>
<!-- Node4 -->
<g id="node4" class="node">
<title>Node4</title>
<g id="a_node4"><a xlink:href="../../da/db1/classMakeActsGeometry.html#a0a3e4f327303d53117efefac7463c669" target="_top" xlink:title="Function that mimics ActsFW::GeometryExampleBase.">
<polygon fill="none" stroke="#000000" points="208,-97.5 208,-117.5 407,-117.5 407,-97.5 208,-97.5"/>
<text text-anchor="middle" x="307.5" y="-104.5" font-family="FreeSans" font-size="10.00" fill="#000000">MakeActsGeometry::makeGeometry</text>
</a>
</g>
</g>
<!-- Node2&#45;&gt;Node4 -->
<g id="edge3" class="edge">
<title>Node2&#45;&gt;Node4</title>
<path fill="none" stroke="#191970" d="M166.3166,-123.9167C181.9014,-122.1045 201.6717,-119.8056 221.4459,-117.5063"/>
<polygon fill="#191970" stroke="#191970" points="165.776,-120.4559 156.2472,-125.0875 166.5846,-127.409 165.776,-120.4559"/>
</g>
<!-- Node5 -->
<g id="node5" class="node">
<title>Node5</title>
<g id="a_node5"><a xlink:href="../../da/db1/classMakeActsGeometry.html#a6f8433331336def2c6ea713b281da9ed" target="_top" xlink:title="Silicon layers made by BuildSiliconLayers and its helper functions.">
<polygon fill="none" stroke="#000000" points="443,-91.5 443,-123.5 610,-123.5 610,-91.5 443,-91.5"/>
<text text-anchor="start" x="451" y="-110.5" font-family="FreeSans" font-size="10.00" fill="#000000">MakeActsGeometry::buildActs</text>
<text text-anchor="middle" x="526.5" y="-98.5" font-family="FreeSans" font-size="10.00" fill="#000000">Surfaces</text>
</a>
</g>
</g>
<!-- Node4&#45;&gt;Node5 -->
<g id="edge4" class="edge">
<title>Node4&#45;&gt;Node5</title>
<path fill="none" stroke="#191970" d="M417.1981,-107.5C425.8384,-107.5 434.477,-107.5 442.8988,-107.5"/>
<polygon fill="#191970" stroke="#191970" points="417.0674,-104.0001 407.0673,-107.5 417.0673,-111.0001 417.0674,-104.0001"/>
</g>
<!-- Node6 -->
<g id="node6" class="node">
<title>Node6</title>
<g id="a_node6"><a xlink:href="../../da/db1/classMakeActsGeometry.html#aa809a1c2b47d8c089a0dc4a6a96d1cc8" target="_top" xlink:title="Main function to build all acts geometry for use in the fitting modules.">
<polygon fill="none" stroke="#000000" points="646,-91.5 646,-123.5 804,-123.5 804,-91.5 646,-91.5"/>
<text text-anchor="start" x="654" y="-110.5" font-family="FreeSans" font-size="10.00" fill="#000000">MakeActsGeometry::buildAll</text>
<text text-anchor="middle" x="725" y="-98.5" font-family="FreeSans" font-size="10.00" fill="#000000">Geometry</text>
</a>
</g>
</g>
<!-- Node5&#45;&gt;Node6 -->
<g id="edge5" class="edge">
<title>Node5&#45;&gt;Node6</title>
<path fill="none" stroke="#191970" d="M620.1763,-107.5C628.7894,-107.5 637.4588,-107.5 645.9237,-107.5"/>
<polygon fill="#191970" stroke="#191970" points="620.1066,-104.0001 610.1066,-107.5 620.1065,-111.0001 620.1066,-104.0001"/>
</g>
<!-- Node7 -->
<g id="node7" class="node">
<title>Node7</title>
<g id="a_node7"><a xlink:href="../../da/db1/classMakeActsGeometry.html#ad9671cebebf0ab5a605941df542ad66b" target="_top" xlink:title="MakeActsGeometry::InitRun">
<polygon fill="none" stroke="#000000" points="840,-97.5 840,-117.5 996,-117.5 996,-97.5 840,-97.5"/>
<text text-anchor="middle" x="918" y="-104.5" font-family="FreeSans" font-size="10.00" fill="#000000">MakeActsGeometry::InitRun</text>
</a>
</g>
</g>
<!-- Node6&#45;&gt;Node7 -->
<g id="edge6" class="edge">
<title>Node6&#45;&gt;Node7</title>
<path fill="none" stroke="#191970" d="M814.3304,-107.5C822.7971,-107.5 831.3377,-107.5 839.6897,-107.5"/>
<polygon fill="#191970" stroke="#191970" points="814.0574,-104.0001 804.0574,-107.5 814.0573,-111.0001 814.0574,-104.0001"/>
</g>
</g>
</svg>
