<?xml version="1.0" encoding="UTF-8" standalone="no"?>
<!DOCTYPE svg PUBLIC "-//W3C//DTD SVG 1.1//EN"
 "http://www.w3.org/Graphics/SVG/1.1/DTD/svg11.dtd">
<!-- Generated by graphviz version 2.40.1 (20161225.0304)
 -->
<!-- Title: fun4all_coresoftware/blob/master/simulation/g4simulation/g4detectors/PHG4SectorConstructor.h Pages: 1 -->
<svg width="2460pt" height="506pt"
 viewBox="0.00 0.00 2459.50 506.00" xmlns="http://www.w3.org/2000/svg" xmlns:xlink="http://www.w3.org/1999/xlink">
<g id="graph0" class="graph" transform="scale(1 1) rotate(0) translate(4 502)">
<title>fun4all_coresoftware/blob/master/simulation/g4simulation/g4detectors/PHG4SectorConstructor.h</title>
<!-- Node1 -->
<g id="node1" class="node">
<title>Node1</title>
<polygon fill="#bfbfbf" stroke="#000000" points="274.5,-441.5 274.5,-497.5 425.5,-497.5 425.5,-441.5 274.5,-441.5"/>
<text text-anchor="start" x="282.5" y="-484.5" font-family="FreeSans" font-size="10.00" fill="#000000">fun4all_coresoftware</text>
<text text-anchor="start" x="282.5" y="-472.5" font-family="FreeSans" font-size="10.00" fill="#000000">/blob/master/simulation</text>
<text text-anchor="start" x="282.5" y="-460.5" font-family="FreeSans" font-size="10.00" fill="#000000">/g4simulation/g4detectors</text>
<text text-anchor="middle" x="350" y="-448.5" font-family="FreeSans" font-size="10.00" fill="#000000">/PHG4SectorConstructor.h</text>
</g>
<!-- Node2 -->
<g id="node2" class="node">
<title>Node2</title>
<g id="a_node2"><a xlink:href="../../d4/d18/PHG4SectorConstructor_8cc.html" target="_top" xlink:title="fun4all_coresoftware\l/blob/master/simulation\l/g4simulation/g4detectors\l/PHG4SectorConstructor.cc">
<polygon fill="none" stroke="#000000" points="103.5,-348.5 103.5,-404.5 256.5,-404.5 256.5,-348.5 103.5,-348.5"/>
<text text-anchor="start" x="111.5" y="-391.5" font-family="FreeSans" font-size="10.00" fill="#000000">fun4all_coresoftware</text>
<text text-anchor="start" x="111.5" y="-379.5" font-family="FreeSans" font-size="10.00" fill="#000000">/blob/master/simulation</text>
<text text-anchor="start" x="111.5" y="-367.5" font-family="FreeSans" font-size="10.00" fill="#000000">/g4simulation/g4detectors</text>
<text text-anchor="middle" x="180" y="-355.5" font-family="FreeSans" font-size="10.00" fill="#000000">/PHG4SectorConstructor.cc</text>
</a>
</g>
</g>
<!-- Node1&#45;&gt;Node2 -->
<g id="edge1" class="edge">
<title>Node1&#45;&gt;Node2</title>
<path fill="none" stroke="#191970" d="M289.6245,-436.471C270.5513,-426.0369 249.6676,-414.6123 231.292,-404.5597"/>
<polygon fill="#191970" stroke="#191970" points="288.0802,-439.6157 298.5331,-441.3446 291.4398,-433.4746 288.0802,-439.6157"/>
</g>
<!-- Node3 -->
<g id="node3" class="node">
<title>Node3</title>
<g id="a_node3"><a xlink:href="../../da/d41/PHG4SectorDetector_8h.html" target="_top" xlink:title="fun4all_coresoftware\l/blob/master/simulation\l/g4simulation/g4detectors\l/PHG4SectorDetector.h">
<polygon fill="none" stroke="#000000" points="274.5,-348.5 274.5,-404.5 425.5,-404.5 425.5,-348.5 274.5,-348.5"/>
<text text-anchor="start" x="282.5" y="-391.5" font-family="FreeSans" font-size="10.00" fill="#000000">fun4all_coresoftware</text>
<text text-anchor="start" x="282.5" y="-379.5" font-family="FreeSans" font-size="10.00" fill="#000000">/blob/master/simulation</text>
<text text-anchor="start" x="282.5" y="-367.5" font-family="FreeSans" font-size="10.00" fill="#000000">/g4simulation/g4detectors</text>
<text text-anchor="middle" x="350" y="-355.5" font-family="FreeSans" font-size="10.00" fill="#000000">/PHG4SectorDetector.h</text>
</a>
</g>
</g>
<!-- Node1&#45;&gt;Node3 -->
<g id="edge2" class="edge">
<title>Node1&#45;&gt;Node3</title>
<path fill="none" stroke="#191970" d="M350,-431.1582C350,-422.2499 350,-412.9293 350,-404.5597"/>
<polygon fill="#191970" stroke="#191970" points="346.5001,-431.3445 350,-441.3446 353.5001,-431.3446 346.5001,-431.3445"/>
</g>
<!-- Node7 -->
<g id="node7" class="node">
<title>Node7</title>
<g id="a_node7"><a xlink:href="../../d6/d6c/PHG4SectorSubsystem_8h.html" target="_top" xlink:title="fun4all_coresoftware\l/blob/master/simulation\l/g4simulation/g4detectors\l/PHG4SectorSubsystem.h">
<polygon fill="none" stroke="#000000" points="900.5,-348.5 900.5,-404.5 1051.5,-404.5 1051.5,-348.5 900.5,-348.5"/>
<text text-anchor="start" x="908.5" y="-391.5" font-family="FreeSans" font-size="10.00" fill="#000000">fun4all_coresoftware</text>
<text text-anchor="start" x="908.5" y="-379.5" font-family="FreeSans" font-size="10.00" fill="#000000">/blob/master/simulation</text>
<text text-anchor="start" x="908.5" y="-367.5" font-family="FreeSans" font-size="10.00" fill="#000000">/g4simulation/g4detectors</text>
<text text-anchor="middle" x="976" y="-355.5" font-family="FreeSans" font-size="10.00" fill="#000000">/PHG4SectorSubsystem.h</text>
</a>
</g>
</g>
<!-- Node1&#45;&gt;Node7 -->
<g id="edge6" class="edge">
<title>Node1&#45;&gt;Node7</title>
<path fill="none" stroke="#191970" d="M435.6304,-456.7786C558.5371,-438.5193 783.0283,-405.1683 900.222,-387.7578"/>
<polygon fill="#191970" stroke="#191970" points="434.8873,-453.3504 425.5102,-458.282 435.916,-460.2745 434.8873,-453.3504"/>
</g>
<!-- Node4 -->
<g id="node4" class="node">
<title>Node4</title>
<g id="a_node4"><a xlink:href="../../d8/d30/PHG4SectorDetector_8cc.html" target="_top" xlink:title="fun4all_coresoftware\l/blob/master/simulation\l/g4simulation/g4detectors\l/PHG4SectorDetector.cc">
<polygon fill="none" stroke="#000000" points="190.5,-255.5 190.5,-311.5 341.5,-311.5 341.5,-255.5 190.5,-255.5"/>
<text text-anchor="start" x="198.5" y="-298.5" font-family="FreeSans" font-size="10.00" fill="#000000">fun4all_coresoftware</text>
<text text-anchor="start" x="198.5" y="-286.5" font-family="FreeSans" font-size="10.00" fill="#000000">/blob/master/simulation</text>
<text text-anchor="start" x="198.5" y="-274.5" font-family="FreeSans" font-size="10.00" fill="#000000">/g4simulation/g4detectors</text>
<text text-anchor="middle" x="266" y="-262.5" font-family="FreeSans" font-size="10.00" fill="#000000">/PHG4SectorDetector.cc</text>
</a>
</g>
</g>
<!-- Node3&#45;&gt;Node4 -->
<g id="edge3" class="edge">
<title>Node3&#45;&gt;Node4</title>
<path fill="none" stroke="#191970" d="M317.7182,-340.7594C308.9778,-331.0826 299.6434,-320.748 291.3443,-311.5597"/>
<polygon fill="#191970" stroke="#191970" points="315.269,-343.2695 324.5693,-348.3446 320.4637,-338.5775 315.269,-343.2695"/>
</g>
<!-- Node5 -->
<g id="node5" class="node">
<title>Node5</title>
<g id="a_node5"><a xlink:href="../../d3/da0/PHG4SectorSteppingAction_8cc.html" target="_top" xlink:title="fun4all_coresoftware\l/blob/master/simulation\l/g4simulation/g4detectors\l/PHG4SectorSteppingAction.cc">
<polygon fill="none" stroke="#000000" points="0,-255.5 0,-311.5 172,-311.5 172,-255.5 0,-255.5"/>
<text text-anchor="start" x="8" y="-298.5" font-family="FreeSans" font-size="10.00" fill="#000000">fun4all_coresoftware</text>
<text text-anchor="start" x="8" y="-286.5" font-family="FreeSans" font-size="10.00" fill="#000000">/blob/master/simulation</text>
<text text-anchor="start" x="8" y="-274.5" font-family="FreeSans" font-size="10.00" fill="#000000">/g4simulation/g4detectors</text>
<text text-anchor="middle" x="86" y="-262.5" font-family="FreeSans" font-size="10.00" fill="#000000">/PHG4SectorSteppingAction.cc</text>
</a>
</g>
</g>
<!-- Node3&#45;&gt;Node5 -->
<g id="edge4" class="edge">
<title>Node3&#45;&gt;Node5</title>
<path fill="none" stroke="#191970" d="M264.64,-346.43C232.8997,-335.2487 197.0306,-322.6131 165.8061,-311.6135"/>
<polygon fill="#191970" stroke="#191970" points="263.7534,-349.8284 274.3482,-349.8499 266.0792,-343.2261 263.7534,-349.8284"/>
</g>
<!-- Node6 -->
<g id="node6" class="node">
<title>Node6</title>
<g id="a_node6"><a xlink:href="../../da/d31/PHG4SectorSubsystem_8cc.html" target="_top" xlink:title="fun4all_coresoftware\l/blob/master/simulation\l/g4simulation/g4detectors\l/PHG4SectorSubsystem.cc">
<polygon fill="none" stroke="#000000" points="359.5,-255.5 359.5,-311.5 510.5,-311.5 510.5,-255.5 359.5,-255.5"/>
<text text-anchor="start" x="367.5" y="-298.5" font-family="FreeSans" font-size="10.00" fill="#000000">fun4all_coresoftware</text>
<text text-anchor="start" x="367.5" y="-286.5" font-family="FreeSans" font-size="10.00" fill="#000000">/blob/master/simulation</text>
<text text-anchor="start" x="367.5" y="-274.5" font-family="FreeSans" font-size="10.00" fill="#000000">/g4simulation/g4detectors</text>
<text text-anchor="middle" x="435" y="-262.5" font-family="FreeSans" font-size="10.00" fill="#000000">/PHG4SectorSubsystem.cc</text>
</a>
</g>
</g>
<!-- Node3&#45;&gt;Node6 -->
<g id="edge5" class="edge">
<title>Node3&#45;&gt;Node6</title>
<path fill="none" stroke="#191970" d="M382.6661,-340.7594C391.5105,-331.0826 400.9561,-320.748 409.354,-311.5597"/>
<polygon fill="#191970" stroke="#191970" points="379.8965,-338.6018 375.7335,-348.3446 385.0635,-343.3244 379.8965,-338.6018"/>
</g>
<!-- Node7&#45;&gt;Node6 -->
<g id="edge7" class="edge">
<title>Node7&#45;&gt;Node6</title>
<path fill="none" stroke="#191970" d="M890.0386,-369.0751C797.7123,-360.0046 647.1263,-342.0361 520,-312 516.9705,-311.2842 513.8956,-310.5063 510.8009,-309.6804"/>
<polygon fill="#191970" stroke="#191970" points="889.8807,-372.5761 900.1719,-370.0578 890.5565,-365.6088 889.8807,-372.5761"/>
</g>
<!-- Node8 -->
<g id="node8" class="node">
<title>Node8</title>
<g id="a_node8"><a xlink:href="../../db/dd2/G4__TTL__EIC_8C.html" target="_top" xlink:title="fun4all_eicmacros/blob\l/master/common/G4_TTL_EIC.C">
<polygon fill="none" stroke="#000000" points="529,-267.5 529,-299.5 705,-299.5 705,-267.5 529,-267.5"/>
<text text-anchor="start" x="537" y="-286.5" font-family="FreeSans" font-size="10.00" fill="#000000">fun4all_eicmacros/blob</text>
<text text-anchor="middle" x="617" y="-274.5" font-family="FreeSans" font-size="10.00" fill="#000000">/master/common/G4_TTL_EIC.C</text>
</a>
</g>
</g>
<!-- Node7&#45;&gt;Node8 -->
<g id="edge8" class="edge">
<title>Node7&#45;&gt;Node8</title>
<path fill="none" stroke="#191970" d="M890.4652,-354.342C825.3531,-337.4745 737.2686,-314.6559 678.8675,-299.527"/>
<polygon fill="#191970" stroke="#191970" points="889.7458,-357.7711 900.304,-356.8907 891.5013,-350.9947 889.7458,-357.7711"/>
</g>
<!-- Node14 -->
<g id="node14" class="node">
<title>Node14</title>
<g id="a_node14"><a xlink:href="../../de/d75/G4__Aerogel_8C.html" target="_top" xlink:title="Aerogel RICH for EIC detector.">
<polygon fill="none" stroke="#000000" points="647.5,-174.5 647.5,-206.5 822.5,-206.5 822.5,-174.5 647.5,-174.5"/>
<text text-anchor="start" x="655.5" y="-193.5" font-family="FreeSans" font-size="10.00" fill="#000000">fun4all_macros/blob</text>
<text text-anchor="middle" x="735" y="-181.5" font-family="FreeSans" font-size="10.00" fill="#000000">/master/common/G4_Aerogel.C</text>
</a>
</g>
</g>
<!-- Node7&#45;&gt;Node14 -->
<g id="edge16" class="edge">
<title>Node7&#45;&gt;Node14</title>
<path fill="none" stroke="#191970" d="M931.5656,-342.2062C879.3382,-301.8979 794.8599,-236.699 755.9029,-206.6325"/>
<polygon fill="#191970" stroke="#191970" points="929.604,-345.1135 939.6589,-348.4525 933.8809,-339.5719 929.604,-345.1135"/>
</g>
<!-- Node21 -->
<g id="node21" class="node">
<title>Node21</title>
<g id="a_node21"><a xlink:href="../../d8/d50/G4__DIRC_8C.html" target="_top" xlink:title="Macro setting up the barrel DIRC.">
<polygon fill="none" stroke="#000000" points="841,-174.5 841,-206.5 1001,-206.5 1001,-174.5 841,-174.5"/>
<text text-anchor="start" x="849" y="-193.5" font-family="FreeSans" font-size="10.00" fill="#000000">fun4all_macros/blob</text>
<text text-anchor="middle" x="921" y="-181.5" font-family="FreeSans" font-size="10.00" fill="#000000">/master/common/G4_DIRC.C</text>
</a>
</g>
</g>
<!-- Node7&#45;&gt;Node21 -->
<g id="edge25" class="edge">
<title>Node7&#45;&gt;Node21</title>
<path fill="none" stroke="#191970" d="M964.7568,-338.4775C952.8102,-298.0763 934.478,-236.08 925.8312,-206.8382"/>
<polygon fill="#191970" stroke="#191970" points="961.4547,-339.6535 967.6467,-348.2506 968.1673,-337.6686 961.4547,-339.6535"/>
</g>
<!-- Node23 -->
<g id="node23" class="node">
<title>Node23</title>
<g id="a_node23"><a xlink:href="../../da/d9b/G4__FGEM__fsPHENIX_8C.html" target="_top" xlink:title="fun4all_macros/blob\l/master/common/G4_FGEM\l_fsPHENIX.C">
<polygon fill="none" stroke="#000000" points="2107.5,-261.5 2107.5,-305.5 2262.5,-305.5 2262.5,-261.5 2107.5,-261.5"/>
<text text-anchor="start" x="2115.5" y="-292.5" font-family="FreeSans" font-size="10.00" fill="#000000">fun4all_macros/blob</text>
<text text-anchor="start" x="2115.5" y="-280.5" font-family="FreeSans" font-size="10.00" fill="#000000">/master/common/G4_FGEM</text>
<text text-anchor="middle" x="2185" y="-268.5" font-family="FreeSans" font-size="10.00" fill="#000000">_fsPHENIX.C</text>
</a>
</g>
</g>
<!-- Node7&#45;&gt;Node23 -->
<g id="edge35" class="edge">
<title>Node7&#45;&gt;Node23</title>
<path fill="none" stroke="#191970" d="M1061.9783,-370.8898C1221.914,-360.3281 1575.9835,-336.3554 1874,-312 1953.5726,-305.4969 2044.4999,-297.0457 2107.3929,-291.039"/>
<polygon fill="#191970" stroke="#191970" points="1061.4749,-367.4153 1051.727,-371.5659 1061.9357,-374.4001 1061.4749,-367.4153"/>
</g>
<!-- Node27 -->
<g id="node27" class="node">
<title>Node27</title>
<g id="a_node27"><a xlink:href="../../d1/db0/G4__FST__EIC_8C.html" target="_top" xlink:title="fun4all_macros/blob\l/master/common/G4_FST_EIC.C">
<polygon fill="none" stroke="#000000" points="1019,-174.5 1019,-206.5 1195,-206.5 1195,-174.5 1019,-174.5"/>
<text text-anchor="start" x="1027" y="-193.5" font-family="FreeSans" font-size="10.00" fill="#000000">fun4all_macros/blob</text>
<text text-anchor="middle" x="1107" y="-181.5" font-family="FreeSans" font-size="10.00" fill="#000000">/master/common/G4_FST_EIC.C</text>
</a>
</g>
</g>
<!-- Node7&#45;&gt;Node27 -->
<g id="edge40" class="edge">
<title>Node7&#45;&gt;Node27</title>
<path fill="none" stroke="#191970" d="M996.7411,-339.486C1011.0327,-314.8815 1030.9903,-282.2142 1051,-255 1063.7377,-237.676 1080.0117,-219.2842 1091.7295,-206.592"/>
<polygon fill="#191970" stroke="#191970" points="993.7025,-337.749 991.7425,-348.161 999.7677,-341.2438 993.7025,-337.749"/>
</g>
<!-- Node28 -->
<g id="node28" class="node">
<title>Node28</title>
<g id="a_node28"><a xlink:href="../../de/d55/G4__GEM__EIC_8C.html" target="_top" xlink:title="fun4all_macros/blob\l/master/common/G4_GEM_EIC.C">
<polygon fill="none" stroke="#000000" points="1060.5,-267.5 1060.5,-299.5 1241.5,-299.5 1241.5,-267.5 1060.5,-267.5"/>
<text text-anchor="start" x="1068.5" y="-286.5" font-family="FreeSans" font-size="10.00" fill="#000000">fun4all_macros/blob</text>
<text text-anchor="middle" x="1151" y="-274.5" font-family="FreeSans" font-size="10.00" fill="#000000">/master/common/G4_GEM_EIC.C</text>
</a>
</g>
</g>
<!-- Node7&#45;&gt;Node28 -->
<g id="edge46" class="edge">
<title>Node7&#45;&gt;Node28</title>
<path fill="none" stroke="#191970" d="M1037.9618,-343.5717C1066.0925,-328.6222 1098.0831,-311.6216 1120.8347,-299.5307"/>
<polygon fill="#191970" stroke="#191970" points="1036.1687,-340.561 1028.9807,-348.3446 1039.4537,-346.7424 1036.1687,-340.561"/>
</g>
<!-- Node30 -->
<g id="node30" class="node">
<title>Node30</title>
<g id="a_node30"><a xlink:href="../../d4/d25/auxiliary__studies_2hadron__phi__asymmetry_2G4__GEM_8C.html" target="_top" xlink:title="g4lblvtx/blob/master\l/macros/auxiliary_studies\l/hadron_phi_asymmetry/G4_GEM.C">
<polygon fill="none" stroke="#000000" points="1385.5,-261.5 1385.5,-305.5 1580.5,-305.5 1580.5,-261.5 1385.5,-261.5"/>
<text text-anchor="start" x="1393.5" y="-292.5" font-family="FreeSans" font-size="10.00" fill="#000000">g4lblvtx/blob/master</text>
<text text-anchor="start" x="1393.5" y="-280.5" font-family="FreeSans" font-size="10.00" fill="#000000">/macros/auxiliary_studies</text>
<text text-anchor="middle" x="1483" y="-268.5" font-family="FreeSans" font-size="10.00" fill="#000000">/hadron_phi_asymmetry/G4_GEM.C</text>
</a>
</g>
</g>
<!-- Node7&#45;&gt;Node30 -->
<g id="edge56" class="edge">
<title>Node7&#45;&gt;Node30</title>
<path fill="none" stroke="#191970" d="M1061.4739,-360.8214C1150.9632,-344.4062 1291.2772,-318.6681 1385.1441,-301.4499"/>
<polygon fill="#191970" stroke="#191970" points="1060.8335,-357.3803 1051.6291,-362.6272 1062.0965,-364.2655 1060.8335,-357.3803"/>
</g>
<!-- Node32 -->
<g id="node32" class="node">
<title>Node32</title>
<g id="a_node32"><a xlink:href="../../d4/da7/G4__GEM_8C.html" target="_top" xlink:title="g4lblvtx/blob/master\l/macros/G4_GEM.C">
<polygon fill="none" stroke="#000000" points="1743,-267.5 1743,-299.5 1865,-299.5 1865,-267.5 1743,-267.5"/>
<text text-anchor="start" x="1751" y="-286.5" font-family="FreeSans" font-size="10.00" fill="#000000">g4lblvtx/blob/master</text>
<text text-anchor="middle" x="1804" y="-274.5" font-family="FreeSans" font-size="10.00" fill="#000000">/macros/G4_GEM.C</text>
</a>
</g>
</g>
<!-- Node7&#45;&gt;Node32 -->
<g id="edge58" class="edge">
<title>Node7&#45;&gt;Node32</title>
<path fill="none" stroke="#191970" d="M1061.6751,-368.2208C1180.2612,-356.5935 1401.0784,-334.3377 1589,-312 1640.9717,-305.8223 1699.8906,-297.9509 1742.8904,-292.0464"/>
<polygon fill="#191970" stroke="#191970" points="1061.1815,-364.7523 1051.5702,-369.2101 1061.8637,-371.719 1061.1815,-364.7523"/>
</g>
<!-- Node9 -->
<g id="node9" class="node">
<title>Node9</title>
<g id="a_node9"><a xlink:href="../../d3/d11/G4__Tracking__Modular_8C.html" target="_top" xlink:title="fun4all_eicmacros/blob\l/master/common/G4_Tracking\l_Modular.C">
<polygon fill="none" stroke="#000000" points="347,-168.5 347,-212.5 515,-212.5 515,-168.5 347,-168.5"/>
<text text-anchor="start" x="355" y="-199.5" font-family="FreeSans" font-size="10.00" fill="#000000">fun4all_eicmacros/blob</text>
<text text-anchor="start" x="355" y="-187.5" font-family="FreeSans" font-size="10.00" fill="#000000">/master/common/G4_Tracking</text>
<text text-anchor="middle" x="431" y="-175.5" font-family="FreeSans" font-size="10.00" fill="#000000">_Modular.C</text>
</a>
</g>
</g>
<!-- Node8&#45;&gt;Node9 -->
<g id="edge9" class="edge">
<title>Node8&#45;&gt;Node9</title>
<path fill="none" stroke="#191970" d="M575.3185,-262.6592C545.5441,-247.7721 505.5532,-227.7766 475.2194,-212.6097"/>
<polygon fill="#191970" stroke="#191970" points="574.0917,-265.9589 584.6013,-267.3006 577.2223,-259.6979 574.0917,-265.9589"/>
</g>
<!-- Node10 -->
<g id="node10" class="node">
<title>Node10</title>
<g id="a_node10"><a xlink:href="../../d8/da0/G4Setup__ModularDetector_8C.html" target="_top" xlink:title="fun4all_eicmacros/blob\l/master/detectors/Modular\l/G4Setup_ModularDetector.C">
<polygon fill="none" stroke="#000000" points="570.5,-81.5 570.5,-125.5 733.5,-125.5 733.5,-81.5 570.5,-81.5"/>
<text text-anchor="start" x="578.5" y="-112.5" font-family="FreeSans" font-size="10.00" fill="#000000">fun4all_eicmacros/blob</text>
<text text-anchor="start" x="578.5" y="-100.5" font-family="FreeSans" font-size="10.00" fill="#000000">/master/detectors/Modular</text>
<text text-anchor="middle" x="652" y="-88.5" font-family="FreeSans" font-size="10.00" fill="#000000">/G4Setup_ModularDetector.C</text>
</a>
</g>
</g>
<!-- Node8&#45;&gt;Node10 -->
<g id="edge14" class="edge">
<title>Node8&#45;&gt;Node10</title>
<path fill="none" stroke="#191970" d="M608.1151,-257.3658C601.0133,-232.2226 593.9168,-193.4909 605,-162 609.7577,-148.4819 619.1044,-135.78 628.218,-125.6887"/>
<polygon fill="#191970" stroke="#191970" points="604.8594,-258.6913 611.106,-267.2488 611.5593,-256.6636 604.8594,-258.6913"/>
</g>
<!-- Node12 -->
<g id="node12" class="node">
<title>Node12</title>
<g id="a_node12"><a xlink:href="../../df/d13/G4Setup__ModularDetectorBeast_8C.html" target="_top" xlink:title="fun4all_eicmacros/blob\l/master/detectors/ModularBeast\l/G4Setup_ModularDetectorBeast.C">
<polygon fill="none" stroke="#000000" points="359.5,-81.5 359.5,-125.5 552.5,-125.5 552.5,-81.5 359.5,-81.5"/>
<text text-anchor="start" x="367.5" y="-112.5" font-family="FreeSans" font-size="10.00" fill="#000000">fun4all_eicmacros/blob</text>
<text text-anchor="start" x="367.5" y="-100.5" font-family="FreeSans" font-size="10.00" fill="#000000">/master/detectors/ModularBeast</text>
<text text-anchor="middle" x="456" y="-88.5" font-family="FreeSans" font-size="10.00" fill="#000000">/G4Setup_ModularDetectorBeast.C</text>
</a>
</g>
</g>
<!-- Node8&#45;&gt;Node12 -->
<g id="edge15" class="edge">
<title>Node8&#45;&gt;Node12</title>
<path fill="none" stroke="#191970" d="M555.1957,-264.6455C543.2364,-261.2472 530.7662,-257.8753 519,-255 439.3243,-235.5298 390.0336,-282.402 338,-219 321.9285,-199.4172 324.6449,-183.5272 338,-162 347.9446,-145.9702 363.7345,-134.1965 380.5695,-125.6006"/>
<polygon fill="#191970" stroke="#191970" points="554.5165,-268.092 565.0946,-267.4959 556.4535,-261.3654 554.5165,-268.092"/>
</g>
<!-- Node9&#45;&gt;Node10 -->
<g id="edge10" class="edge">
<title>Node9&#45;&gt;Node10</title>
<path fill="none" stroke="#191970" d="M496.6588,-164.6524C528.2664,-152.2096 565.7688,-137.4462 596.0064,-125.5427"/>
<polygon fill="#191970" stroke="#191970" points="495.0762,-161.5139 487.0533,-168.4338 497.6404,-168.0274 495.0762,-161.5139"/>
</g>
<!-- Node9&#45;&gt;Node12 -->
<g id="edge12" class="edge">
<title>Node9&#45;&gt;Node12</title>
<path fill="none" stroke="#191970" d="M440.2171,-158.4246C443.3617,-147.4812 446.8047,-135.4996 449.6702,-125.5276"/>
<polygon fill="#191970" stroke="#191970" points="436.8361,-157.5176 437.4381,-168.0953 443.5639,-159.4509 436.8361,-157.5176"/>
</g>
<!-- Node11 -->
<g id="node11" class="node">
<title>Node11</title>
<g id="a_node11"><a xlink:href="../../d5/d97/Fun4All__G4__FullDetectorModular_8C.html" target="_top" xlink:title="fun4all_eicmacros/blob\l/master/detectors/Modular\l/Fun4All_G4_FullDetectorModular.C">
<polygon fill="none" stroke="#000000" points="919,-.5 919,-44.5 1113,-44.5 1113,-.5 919,-.5"/>
<text text-anchor="start" x="927" y="-31.5" font-family="FreeSans" font-size="10.00" fill="#000000">fun4all_eicmacros/blob</text>
<text text-anchor="start" x="927" y="-19.5" font-family="FreeSans" font-size="10.00" fill="#000000">/master/detectors/Modular</text>
<text text-anchor="middle" x="1016" y="-7.5" font-family="FreeSans" font-size="10.00" fill="#000000">/Fun4All_G4_FullDetectorModular.C</text>
</a>
</g>
</g>
<!-- Node10&#45;&gt;Node11 -->
<g id="edge11" class="edge">
<title>Node10&#45;&gt;Node11</title>
<path fill="none" stroke="#191970" d="M743.6962,-80.9003C777.8703,-73.2521 854.7352,-56.8227 918.7455,-43.1847"/>
<polygon fill="#191970" stroke="#191970" points="742.8011,-77.5144 733.8236,-83.1407 744.3502,-84.3409 742.8011,-77.5144"/>
</g>
<!-- Node13 -->
<g id="node13" class="node">
<title>Node13</title>
<g id="a_node13"><a xlink:href="../../d0/dce/Fun4All__G4__FullDetectorModularBeast_8C.html" target="_top" xlink:title="fun4all_eicmacros/blob\l/master/detectors/ModularBeast\l/Fun4All_G4_FullDetectorModularBeast.C">
<polygon fill="none" stroke="#000000" points="344.5,-.5 344.5,-44.5 567.5,-44.5 567.5,-.5 344.5,-.5"/>
<text text-anchor="start" x="352.5" y="-31.5" font-family="FreeSans" font-size="10.00" fill="#000000">fun4all_eicmacros/blob</text>
<text text-anchor="start" x="352.5" y="-19.5" font-family="FreeSans" font-size="10.00" fill="#000000">/master/detectors/ModularBeast</text>
<text text-anchor="middle" x="456" y="-7.5" font-family="FreeSans" font-size="10.00" fill="#000000">/Fun4All_G4_FullDetectorModularBeast.C</text>
</a>
</g>
</g>
<!-- Node12&#45;&gt;Node13 -->
<g id="edge13" class="edge">
<title>Node12&#45;&gt;Node13</title>
<path fill="none" stroke="#191970" d="M456,-71.2457C456,-62.3118 456,-52.8188 456,-44.6068"/>
<polygon fill="#191970" stroke="#191970" points="452.5001,-71.3664 456,-81.3664 459.5001,-71.3664 452.5001,-71.3664"/>
</g>
<!-- Node14&#45;&gt;Node10 -->
<g id="edge19" class="edge">
<title>Node14&#45;&gt;Node10</title>
<path fill="none" stroke="#191970" d="M712.2036,-166.605C700.0182,-153.8323 685.1122,-138.208 673.181,-125.7018"/>
<polygon fill="#191970" stroke="#191970" points="709.9531,-169.3165 719.3883,-174.136 715.0179,-164.4845 709.9531,-169.3165"/>
</g>
<!-- Node14&#45;&gt;Node12 -->
<g id="edge20" class="edge">
<title>Node14&#45;&gt;Node12</title>
<path fill="none" stroke="#191970" d="M673.9206,-171.4537C630.5029,-157.9149 572.0733,-139.6949 526.6457,-125.5293"/>
<polygon fill="#191970" stroke="#191970" points="672.9134,-174.8058 683.502,-174.4415 674.9973,-168.1232 672.9134,-174.8058"/>
</g>
<!-- Node15 -->
<g id="node15" class="node">
<title>Node15</title>
<g id="a_node15"><a xlink:href="../../df/d34/G4Setup__LBLDetector_8C.html" target="_top" xlink:title="fun4all_eicmacros/blob\l/master/detectors/AllSilicon\l/G4Setup_LBLDetector.C">
<polygon fill="none" stroke="#000000" points="752,-81.5 752,-125.5 908,-125.5 908,-81.5 752,-81.5"/>
<text text-anchor="start" x="760" y="-112.5" font-family="FreeSans" font-size="10.00" fill="#000000">fun4all_eicmacros/blob</text>
<text text-anchor="start" x="760" y="-100.5" font-family="FreeSans" font-size="10.00" fill="#000000">/master/detectors/AllSilicon</text>
<text text-anchor="middle" x="830" y="-88.5" font-family="FreeSans" font-size="10.00" fill="#000000">/G4Setup_LBLDetector.C</text>
</a>
</g>
</g>
<!-- Node14&#45;&gt;Node15 -->
<g id="edge17" class="edge">
<title>Node14&#45;&gt;Node15</title>
<path fill="none" stroke="#191970" d="M760.3061,-167.3249C774.3944,-154.423 791.8428,-138.4439 805.7567,-125.7018"/>
<polygon fill="#191970" stroke="#191970" points="757.8797,-164.801 752.8688,-174.136 762.6074,-169.9634 757.8797,-164.801"/>
</g>
<!-- Node17 -->
<g id="node17" class="node">
<title>Node17</title>
<g id="a_node17"><a xlink:href="../../dc/df3/fun4all__eic__qa_2blob_2master_2macros_2G4Setup__EICDetector_8C.html" target="_top" xlink:title="fun4all_eic_qa/blob\l/master/macros/G4Setup\l_EICDetector.C">
<polygon fill="none" stroke="#000000" points="1128,-81.5 1128,-125.5 1272,-125.5 1272,-81.5 1128,-81.5"/>
<text text-anchor="start" x="1136" y="-112.5" font-family="FreeSans" font-size="10.00" fill="#000000">fun4all_eic_qa/blob</text>
<text text-anchor="start" x="1136" y="-100.5" font-family="FreeSans" font-size="10.00" fill="#000000">/master/macros/G4Setup</text>
<text text-anchor="middle" x="1200" y="-88.5" font-family="FreeSans" font-size="10.00" fill="#000000">_EICDetector.C</text>
</a>
</g>
</g>
<!-- Node14&#45;&gt;Node17 -->
<g id="edge21" class="edge">
<title>Node14&#45;&gt;Node17</title>
<path fill="none" stroke="#191970" d="M793.8167,-171.5789C806.3271,-168.0171 819.5263,-164.6 832,-162 957.4187,-135.8582 992.3515,-151.0137 1118,-126 1121.1852,-125.3659 1124.4285,-124.6746 1127.6965,-123.9407"/>
<polygon fill="#191970" stroke="#191970" points="792.5787,-168.2941 783.9584,-174.4536 794.5384,-175.0142 792.5787,-168.2941"/>
</g>
<!-- Node19 -->
<g id="node19" class="node">
<title>Node19</title>
<g id="a_node19"><a xlink:href="../../d5/d14/fun4all__macros_2blob_2master_2detectors_2EICDetector_2G4Setup__EICDetector_8C.html" target="_top" xlink:title="fun4all_macros/blob\l/master/detectors/EICDetector\l/G4Setup_EICDetector.C">
<polygon fill="none" stroke="#000000" points="1290.5,-81.5 1290.5,-125.5 1461.5,-125.5 1461.5,-81.5 1290.5,-81.5"/>
<text text-anchor="start" x="1298.5" y="-112.5" font-family="FreeSans" font-size="10.00" fill="#000000">fun4all_macros/blob</text>
<text text-anchor="start" x="1298.5" y="-100.5" font-family="FreeSans" font-size="10.00" fill="#000000">/master/detectors/EICDetector</text>
<text text-anchor="middle" x="1376" y="-88.5" font-family="FreeSans" font-size="10.00" fill="#000000">/G4Setup_EICDetector.C</text>
</a>
</g>
</g>
<!-- Node14&#45;&gt;Node19 -->
<g id="edge23" class="edge">
<title>Node14&#45;&gt;Node19</title>
<path fill="none" stroke="#191970" d="M792.1268,-171.5988C805.1134,-167.8962 818.9341,-164.4166 832,-162 1028.8571,-125.59 1083.2439,-157.1598 1281,-126 1284.0974,-125.512 1287.2433,-124.9769 1290.4144,-124.4043"/>
<polygon fill="#191970" stroke="#191970" points="790.9934,-168.2838 782.3848,-174.4598 792.9659,-175.0002 790.9934,-168.2838"/>
</g>
<!-- Node16 -->
<g id="node16" class="node">
<title>Node16</title>
<g id="a_node16"><a xlink:href="../../d9/d18/Fun4All__G4__LBLDetector_8C.html" target="_top" xlink:title="fun4all_eicmacros/blob\l/master/detectors/AllSilicon\l/Fun4All_G4_LBLDetector.C">
<polygon fill="none" stroke="#000000" points="745,-.5 745,-44.5 901,-44.5 901,-.5 745,-.5"/>
<text text-anchor="start" x="753" y="-31.5" font-family="FreeSans" font-size="10.00" fill="#000000">fun4all_eicmacros/blob</text>
<text text-anchor="start" x="753" y="-19.5" font-family="FreeSans" font-size="10.00" fill="#000000">/master/detectors/AllSilicon</text>
<text text-anchor="middle" x="823" y="-7.5" font-family="FreeSans" font-size="10.00" fill="#000000">/Fun4All_G4_LBLDetector.C</text>
</a>
</g>
</g>
<!-- Node15&#45;&gt;Node16 -->
<g id="edge18" class="edge">
<title>Node15&#45;&gt;Node16</title>
<path fill="none" stroke="#191970" d="M827.2126,-71.2457C826.4405,-62.3118 825.6201,-52.8188 824.9105,-44.6068"/>
<polygon fill="#191970" stroke="#191970" points="823.7391,-71.7049 828.0872,-81.3664 830.7131,-71.1022 823.7391,-71.7049"/>
</g>
<!-- Node18 -->
<g id="node18" class="node">
<title>Node18</title>
<g id="a_node18"><a xlink:href="../../d6/d79/fun4all__eic__qa_2blob_2master_2macros_2Fun4All__G4__EICDetector_8C.html" target="_top" xlink:title="fun4all_eic_qa/blob\l/master/macros/Fun4All\l_G4_EICDetector.C">
<polygon fill="none" stroke="#000000" points="1131.5,-.5 1131.5,-44.5 1268.5,-44.5 1268.5,-.5 1131.5,-.5"/>
<text text-anchor="start" x="1139.5" y="-31.5" font-family="FreeSans" font-size="10.00" fill="#000000">fun4all_eic_qa/blob</text>
<text text-anchor="start" x="1139.5" y="-19.5" font-family="FreeSans" font-size="10.00" fill="#000000">/master/macros/Fun4All</text>
<text text-anchor="middle" x="1200" y="-7.5" font-family="FreeSans" font-size="10.00" fill="#000000">_G4_EICDetector.C</text>
</a>
</g>
</g>
<!-- Node17&#45;&gt;Node18 -->
<g id="edge22" class="edge">
<title>Node17&#45;&gt;Node18</title>
<path fill="none" stroke="#191970" d="M1200,-71.2457C1200,-62.3118 1200,-52.8188 1200,-44.6068"/>
<polygon fill="#191970" stroke="#191970" points="1196.5001,-71.3664 1200,-81.3664 1203.5001,-71.3664 1196.5001,-71.3664"/>
</g>
<!-- Node20 -->
<g id="node20" class="node">
<title>Node20</title>
<g id="a_node20"><a xlink:href="../../d4/d91/fun4all__macros_2blob_2master_2detectors_2EICDetector_2Fun4All__G4__EICDetector_8C.html" target="_top" xlink:title="fun4all_macros/blob\l/master/detectors/EICDetector\l/Fun4All_G4_EICDetector.C">
<polygon fill="none" stroke="#000000" points="1288.5,-.5 1288.5,-44.5 1459.5,-44.5 1459.5,-.5 1288.5,-.5"/>
<text text-anchor="start" x="1296.5" y="-31.5" font-family="FreeSans" font-size="10.00" fill="#000000">fun4all_macros/blob</text>
<text text-anchor="start" x="1296.5" y="-19.5" font-family="FreeSans" font-size="10.00" fill="#000000">/master/detectors/EICDetector</text>
<text text-anchor="middle" x="1374" y="-7.5" font-family="FreeSans" font-size="10.00" fill="#000000">/Fun4All_G4_EICDetector.C</text>
</a>
</g>
</g>
<!-- Node19&#45;&gt;Node20 -->
<g id="edge24" class="edge">
<title>Node19&#45;&gt;Node20</title>
<path fill="none" stroke="#191970" d="M1375.2036,-71.2457C1374.983,-62.3118 1374.7486,-52.8188 1374.5458,-44.6068"/>
<polygon fill="#191970" stroke="#191970" points="1371.7076,-71.4559 1375.4535,-81.3664 1378.7055,-71.283 1371.7076,-71.4559"/>
</g>
<!-- Node21&#45;&gt;Node10 -->
<g id="edge27" class="edge">
<title>Node21&#45;&gt;Node10</title>
<path fill="none" stroke="#191970" d="M861.5814,-171.2828C819.7751,-157.7619 763.7289,-139.6354 720.1136,-125.5293"/>
<polygon fill="#191970" stroke="#191970" points="860.7559,-174.6943 871.3478,-174.4415 862.9101,-168.034 860.7559,-174.6943"/>
</g>
<!-- Node21&#45;&gt;Node12 -->
<g id="edge28" class="edge">
<title>Node21&#45;&gt;Node12</title>
<path fill="none" stroke="#191970" d="M865.7967,-171.3553C854.3902,-167.8708 842.3822,-164.5407 831,-162 712.8457,-135.6263 680.2793,-146.699 561,-126 558.2447,-125.5219 555.4519,-125.0225 552.6352,-124.5061"/>
<polygon fill="#191970" stroke="#191970" points="865.0458,-174.7878 875.635,-174.4412 867.1409,-168.1087 865.0458,-174.7878"/>
</g>
<!-- Node21&#45;&gt;Node15 -->
<g id="edge26" class="edge">
<title>Node21&#45;&gt;Node15</title>
<path fill="none" stroke="#191970" d="M896.3837,-166.9657C882.9551,-154.1274 866.4271,-138.326 853.2226,-125.7018"/>
<polygon fill="#191970" stroke="#191970" points="894.2368,-169.7554 903.8836,-174.136 899.0741,-164.6957 894.2368,-169.7554"/>
</g>
<!-- Node21&#45;&gt;Node17 -->
<g id="edge29" class="edge">
<title>Node21&#45;&gt;Node17</title>
<path fill="none" stroke="#191970" d="M980.5734,-171.3213C990.3984,-168.1876 1000.4805,-164.9896 1010,-162 1048.8557,-149.7974 1092.2594,-136.415 1127.7629,-125.533"/>
<polygon fill="#191970" stroke="#191970" points="979.3247,-168.0459 970.8644,-174.4235 981.4553,-174.7138 979.3247,-168.0459"/>
</g>
<!-- Node21&#45;&gt;Node19 -->
<g id="edge34" class="edge">
<title>Node21&#45;&gt;Node19</title>
<path fill="none" stroke="#191970" d="M975.5772,-171.3394C986.858,-167.8561 998.7362,-164.5305 1010,-162 1128.5478,-135.3675 1161.5111,-148.0289 1281,-126 1284.0837,-125.4315 1287.2178,-124.8277 1290.3789,-124.1966"/>
<polygon fill="#191970" stroke="#191970" points="974.322,-168.0656 965.848,-174.425 976.4382,-174.7381 974.322,-168.0656"/>
</g>
<!-- Node22 -->
<g id="node22" class="node">
<title>Node22</title>
<g id="a_node22"><a xlink:href="../../d0/d9a/G4__DSTReader__EICDetector_8C.html" target="_top" xlink:title="fun4all_macros/blob\l/master/common/G4_DSTReader\l_EICDetector.C">
<polygon fill="none" stroke="#000000" points="926.5,-81.5 926.5,-125.5 1109.5,-125.5 1109.5,-81.5 926.5,-81.5"/>
<text text-anchor="start" x="934.5" y="-112.5" font-family="FreeSans" font-size="10.00" fill="#000000">fun4all_macros/blob</text>
<text text-anchor="start" x="934.5" y="-100.5" font-family="FreeSans" font-size="10.00" fill="#000000">/master/common/G4_DSTReader</text>
<text text-anchor="middle" x="1018" y="-88.5" font-family="FreeSans" font-size="10.00" fill="#000000">_EICDetector.C</text>
</a>
</g>
</g>
<!-- Node21&#45;&gt;Node22 -->
<g id="edge30" class="edge">
<title>Node21&#45;&gt;Node22</title>
<path fill="none" stroke="#191970" d="M946.8389,-167.3249C961.2238,-154.423 979.0395,-138.4439 993.2463,-125.7018"/>
<polygon fill="#191970" stroke="#191970" points="944.3524,-164.8535 939.245,-174.136 949.0263,-170.0646 944.3524,-164.8535"/>
</g>
<!-- Node22&#45;&gt;Node11 -->
<g id="edge31" class="edge">
<title>Node22&#45;&gt;Node11</title>
<path fill="none" stroke="#191970" d="M1017.2036,-71.2457C1016.983,-62.3118 1016.7486,-52.8188 1016.5458,-44.6068"/>
<polygon fill="#191970" stroke="#191970" points="1013.7076,-71.4559 1017.4535,-81.3664 1020.7055,-71.283 1013.7076,-71.4559"/>
</g>
<!-- Node22&#45;&gt;Node18 -->
<g id="edge32" class="edge">
<title>Node22&#45;&gt;Node18</title>
<path fill="none" stroke="#191970" d="M1076.9718,-77.2543C1100.6589,-66.7123 1127.6645,-54.6933 1150.3278,-44.6068"/>
<polygon fill="#191970" stroke="#191970" points="1075.4452,-74.1027 1067.7323,-81.3664 1078.2915,-80.4979 1075.4452,-74.1027"/>
</g>
<!-- Node22&#45;&gt;Node20 -->
<g id="edge33" class="edge">
<title>Node22&#45;&gt;Node20</title>
<path fill="none" stroke="#191970" d="M1119.7599,-80.6585C1167.5111,-69.9034 1225.1897,-56.86 1277,-45 1280.7073,-44.1513 1284.4938,-43.2824 1288.3185,-42.4029"/>
<polygon fill="#191970" stroke="#191970" points="1118.7136,-77.3064 1109.7266,-82.9175 1120.2512,-84.1354 1118.7136,-77.3064"/>
</g>
<!-- Node24 -->
<g id="node24" class="node">
<title>Node24</title>
<g id="a_node24"><a xlink:href="../../d7/dfd/G4__DSTReader__fsPHENIX_8C.html" target="_top" xlink:title="fun4all_macros/blob\l/master/common/G4_DSTReader\l_fsPHENIX.C">
<polygon fill="none" stroke="#000000" points="2093.5,-168.5 2093.5,-212.5 2276.5,-212.5 2276.5,-168.5 2093.5,-168.5"/>
<text text-anchor="start" x="2101.5" y="-199.5" font-family="FreeSans" font-size="10.00" fill="#000000">fun4all_macros/blob</text>
<text text-anchor="start" x="2101.5" y="-187.5" font-family="FreeSans" font-size="10.00" fill="#000000">/master/common/G4_DSTReader</text>
<text text-anchor="middle" x="2185" y="-175.5" font-family="FreeSans" font-size="10.00" fill="#000000">_fsPHENIX.C</text>
</a>
</g>
</g>
<!-- Node23&#45;&gt;Node24 -->
<g id="edge36" class="edge">
<title>Node23&#45;&gt;Node24</title>
<path fill="none" stroke="#191970" d="M2185,-251.2412C2185,-238.5215 2185,-224.2283 2185,-212.7038"/>
<polygon fill="#191970" stroke="#191970" points="2181.5001,-251.4603 2185,-261.4603 2188.5001,-251.4603 2181.5001,-251.4603"/>
</g>
<!-- Node26 -->
<g id="node26" class="node">
<title>Node26</title>
<g id="a_node26"><a xlink:href="../../d6/d41/G4Setup__fsPHENIX_8C.html" target="_top" xlink:title="fun4all_macros/blob\l/master/detectors/fsPHENIX\l/G4Setup_fsPHENIX.C">
<polygon fill="none" stroke="#000000" points="2294.5,-168.5 2294.5,-212.5 2451.5,-212.5 2451.5,-168.5 2294.5,-168.5"/>
<text text-anchor="start" x="2302.5" y="-199.5" font-family="FreeSans" font-size="10.00" fill="#000000">fun4all_macros/blob</text>
<text text-anchor="start" x="2302.5" y="-187.5" font-family="FreeSans" font-size="10.00" fill="#000000">/master/detectors/fsPHENIX</text>
<text text-anchor="middle" x="2373" y="-175.5" font-family="FreeSans" font-size="10.00" fill="#000000">/G4Setup_fsPHENIX.C</text>
</a>
</g>
</g>
<!-- Node23&#45;&gt;Node26 -->
<g id="edge38" class="edge">
<title>Node23&#45;&gt;Node26</title>
<path fill="none" stroke="#191970" d="M2238.5504,-257.0097C2266.9744,-242.9488 2301.4959,-225.8717 2328.441,-212.5425"/>
<polygon fill="#191970" stroke="#191970" points="2236.9647,-253.8891 2229.5534,-261.4603 2240.0686,-260.1634 2236.9647,-253.8891"/>
</g>
<!-- Node25 -->
<g id="node25" class="node">
<title>Node25</title>
<g id="a_node25"><a xlink:href="../../d7/d9e/Fun4All__G4__fsPHENIX_8C.html" target="_top" xlink:title="fun4all_macros/blob\l/master/detectors/fsPHENIX\l/Fun4All_G4_fsPHENIX.C">
<polygon fill="none" stroke="#000000" points="2200.5,-81.5 2200.5,-125.5 2357.5,-125.5 2357.5,-81.5 2200.5,-81.5"/>
<text text-anchor="start" x="2208.5" y="-112.5" font-family="FreeSans" font-size="10.00" fill="#000000">fun4all_macros/blob</text>
<text text-anchor="start" x="2208.5" y="-100.5" font-family="FreeSans" font-size="10.00" fill="#000000">/master/detectors/fsPHENIX</text>
<text text-anchor="middle" x="2279" y="-88.5" font-family="FreeSans" font-size="10.00" fill="#000000">/Fun4All_G4_fsPHENIX.C</text>
</a>
</g>
</g>
<!-- Node24&#45;&gt;Node25 -->
<g id="edge37" class="edge">
<title>Node24&#45;&gt;Node25</title>
<path fill="none" stroke="#191970" d="M2216.7847,-161.0822C2229.352,-149.4508 2243.5461,-136.3137 2255.2001,-125.5276"/>
<polygon fill="#191970" stroke="#191970" points="2214.169,-158.7341 2209.2073,-168.0953 2218.9238,-163.8715 2214.169,-158.7341"/>
</g>
<!-- Node26&#45;&gt;Node25 -->
<g id="edge39" class="edge">
<title>Node26&#45;&gt;Node25</title>
<path fill="none" stroke="#191970" d="M2341.2153,-161.0822C2328.648,-149.4508 2314.4539,-136.3137 2302.7999,-125.5276"/>
<polygon fill="#191970" stroke="#191970" points="2339.0762,-163.8715 2348.7927,-168.0953 2343.831,-158.7341 2339.0762,-163.8715"/>
</g>
<!-- Node27&#45;&gt;Node10 -->
<g id="edge41" class="edge">
<title>Node27&#45;&gt;Node10</title>
<path fill="none" stroke="#191970" d="M1047.7573,-171.5472C1035.3696,-168.0211 1022.3266,-164.626 1010,-162 892.8876,-137.0509 860.626,-148.4032 743,-126 739.9625,-125.4215 736.8746,-124.8049 733.7605,-124.1591"/>
<polygon fill="#191970" stroke="#191970" points="1046.9456,-174.9561 1057.5254,-174.391 1048.9023,-168.2351 1046.9456,-174.9561"/>
</g>
<!-- Node27&#45;&gt;Node12 -->
<g id="edge42" class="edge">
<title>Node27&#45;&gt;Node12</title>
<path fill="none" stroke="#191970" d="M1049.8732,-171.5988C1036.8866,-167.8962 1023.0659,-164.4166 1010,-162 813.1429,-125.59 759.0791,-155.0358 561,-126 558.2331,-125.5944 555.43,-125.1591 552.6044,-124.699"/>
<polygon fill="#191970" stroke="#191970" points="1049.0341,-175.0002 1059.6152,-174.4598 1051.0066,-168.2838 1049.0341,-175.0002"/>
</g>
<!-- Node27&#45;&gt;Node17 -->
<g id="edge43" class="edge">
<title>Node27&#45;&gt;Node17</title>
<path fill="none" stroke="#191970" d="M1132.1573,-166.9657C1145.8811,-154.1274 1162.7723,-138.326 1176.2671,-125.7018"/>
<polygon fill="#191970" stroke="#191970" points="1129.4043,-164.7484 1124.4926,-174.136 1134.1864,-169.8603 1129.4043,-164.7484"/>
</g>
<!-- Node27&#45;&gt;Node19 -->
<g id="edge45" class="edge">
<title>Node27&#45;&gt;Node19</title>
<path fill="none" stroke="#191970" d="M1166.4186,-171.2828C1208.2249,-157.7619 1264.2711,-139.6354 1307.8864,-125.5293"/>
<polygon fill="#191970" stroke="#191970" points="1165.0899,-168.034 1156.6522,-174.4415 1167.2441,-174.6943 1165.0899,-168.034"/>
</g>
<!-- Node27&#45;&gt;Node22 -->
<g id="edge44" class="edge">
<title>Node27&#45;&gt;Node22</title>
<path fill="none" stroke="#191970" d="M1082.9247,-166.9657C1069.7912,-154.1274 1053.6265,-138.326 1040.7122,-125.7018"/>
<polygon fill="#191970" stroke="#191970" points="1080.6622,-169.6485 1090.2598,-174.136 1085.5554,-164.6428 1080.6622,-169.6485"/>
</g>
<!-- Node28&#45;&gt;Node9 -->
<g id="edge47" class="edge">
<title>Node28&#45;&gt;Node9</title>
<path fill="none" stroke="#191970" d="M1050.3521,-275.359C933.6533,-265.2318 735.7164,-245.9305 567,-219 550.2052,-216.3192 532.3464,-212.9535 515.2834,-209.4835"/>
<polygon fill="#191970" stroke="#191970" points="1050.0823,-278.8486 1060.3462,-276.221 1050.684,-271.8745 1050.0823,-278.8486"/>
</g>
<!-- Node28&#45;&gt;Node10 -->
<g id="edge48" class="edge">
<title>Node28&#45;&gt;Node10</title>
<path fill="none" stroke="#191970" d="M1050.2619,-277.893C908.6193,-268.9649 664.7841,-249.3625 638,-219 615.4179,-193.4008 628.7525,-151.2649 640.424,-125.5822"/>
<polygon fill="#191970" stroke="#191970" points="1050.0808,-281.3884 1060.2792,-278.5174 1050.5163,-274.402 1050.0808,-281.3884"/>
</g>
<!-- Node28&#45;&gt;Node12 -->
<g id="edge49" class="edge">
<title>Node28&#45;&gt;Node12</title>
<path fill="none" stroke="#191970" d="M1050.4066,-277.0325C919.3674,-267.6131 698.0299,-248.0187 622,-219 592.643,-207.7952 523.1814,-155.7909 484.0518,-125.5207"/>
<polygon fill="#191970" stroke="#191970" points="1050.2369,-280.5292 1060.4601,-277.748 1050.7338,-273.5469 1050.2369,-280.5292"/>
</g>
<!-- Node28&#45;&gt;Node17 -->
<g id="edge50" class="edge">
<title>Node28&#45;&gt;Node17</title>
<path fill="none" stroke="#191970" d="M1194.9578,-261.8296C1211.2712,-251.3248 1227.9859,-237.0283 1237,-219 1248.3294,-196.3412 1244.0492,-186.3328 1237,-162 1233.2214,-148.9569 1225.5696,-136.0303 1218.2,-125.6587"/>
<polygon fill="#191970" stroke="#191970" points="1192.7194,-259.094 1185.9874,-267.2752 1196.3519,-265.0777 1192.7194,-259.094"/>
</g>
<!-- Node28&#45;&gt;Node19 -->
<g id="edge55" class="edge">
<title>Node28&#45;&gt;Node19</title>
<path fill="none" stroke="#191970" d="M1252.0372,-269.6935C1340.7664,-256.5341 1457.889,-236.2285 1472,-219 1488.0522,-199.4015 1484.406,-184.0878 1472,-162 1463.2546,-146.4295 1448.4967,-134.5161 1433.1416,-125.6347"/>
<polygon fill="#191970" stroke="#191970" points="1251.2968,-266.2646 1241.9125,-271.1825 1252.3154,-273.1901 1251.2968,-266.2646"/>
</g>
<!-- Node28&#45;&gt;Node22 -->
<g id="edge51" class="edge">
<title>Node28&#45;&gt;Node22</title>
<path fill="none" stroke="#191970" d="M1176.9852,-260.0213C1187.5164,-248.7766 1198.4809,-234.41 1204,-219 1212.5419,-195.1502 1218.9871,-182.4246 1204,-162 1197.479,-153.1131 1149.4445,-138.1256 1103.8278,-125.5459"/>
<polygon fill="#191970" stroke="#191970" points="1174.3583,-257.7006 1169.8358,-267.2818 1179.3461,-262.6121 1174.3583,-257.7006"/>
</g>
<!-- Node29 -->
<g id="node29" class="node">
<title>Node29</title>
<g id="a_node29"><a xlink:href="../../d1/d31/G4__Tracking__EIC_8C.html" target="_top" xlink:title="fun4all_macros/blob\l/master/common/G4_Tracking_\lEIC.C">
<polygon fill="none" stroke="#000000" points="1289,-168.5 1289,-212.5 1463,-212.5 1463,-168.5 1289,-168.5"/>
<text text-anchor="start" x="1297" y="-199.5" font-family="FreeSans" font-size="10.00" fill="#000000">fun4all_macros/blob</text>
<text text-anchor="start" x="1297" y="-187.5" font-family="FreeSans" font-size="10.00" fill="#000000">/master/common/G4_Tracking_</text>
<text text-anchor="middle" x="1376" y="-175.5" font-family="FreeSans" font-size="10.00" fill="#000000">EIC.C</text>
</a>
</g>
</g>
<!-- Node28&#45;&gt;Node29 -->
<g id="edge52" class="edge">
<title>Node28&#45;&gt;Node29</title>
<path fill="none" stroke="#191970" d="M1199.2978,-263.5369C1235.4797,-248.5817 1284.9798,-228.1217 1322.3855,-212.6607"/>
<polygon fill="#191970" stroke="#191970" points="1197.8398,-260.3523 1189.9351,-267.4068 1200.5138,-266.8214 1197.8398,-260.3523"/>
</g>
<!-- Node29&#45;&gt;Node17 -->
<g id="edge53" class="edge">
<title>Node29&#45;&gt;Node17</title>
<path fill="none" stroke="#191970" d="M1321.8871,-163.751C1297.1742,-151.535 1268.253,-137.2387 1244.7857,-125.6384"/>
<polygon fill="#191970" stroke="#191970" points="1320.6168,-167.0273 1331.1324,-168.3211 1323.7188,-160.7521 1320.6168,-167.0273"/>
</g>
<!-- Node29&#45;&gt;Node19 -->
<g id="edge54" class="edge">
<title>Node29&#45;&gt;Node19</title>
<path fill="none" stroke="#191970" d="M1376,-158.0893C1376,-147.2369 1376,-135.3979 1376,-125.5276"/>
<polygon fill="#191970" stroke="#191970" points="1372.5001,-158.0953 1376,-168.0953 1379.5001,-158.0954 1372.5001,-158.0953"/>
</g>
<!-- Node31 -->
<g id="node31" class="node">
<title>Node31</title>
<g id="a_node31"><a xlink:href="../../d0/dd2/Fun4All__G4__simple__hadron__GEM_8C.html" target="_top" xlink:title="g4lblvtx/blob/master\l/macros/auxiliary_studies\l/hadron_phi_asymmetry/Fun4All\l_G4_simple_hadron_GEM.C">
<polygon fill="none" stroke="#000000" points="1519,-162.5 1519,-218.5 1699,-218.5 1699,-162.5 1519,-162.5"/>
<text text-anchor="start" x="1527" y="-205.5" font-family="FreeSans" font-size="10.00" fill="#000000">g4lblvtx/blob/master</text>
<text text-anchor="start" x="1527" y="-193.5" font-family="FreeSans" font-size="10.00" fill="#000000">/macros/auxiliary_studies</text>
<text text-anchor="start" x="1527" y="-181.5" font-family="FreeSans" font-size="10.00" fill="#000000">/hadron_phi_asymmetry/Fun4All</text>
<text text-anchor="middle" x="1609" y="-169.5" font-family="FreeSans" font-size="10.00" fill="#000000">_G4_simple_hadron_GEM.C</text>
</a>
</g>
</g>
<!-- Node30&#45;&gt;Node31 -->
<g id="edge57" class="edge">
<title>Node30&#45;&gt;Node31</title>
<path fill="none" stroke="#191970" d="M1521.2903,-255.2381C1536.9693,-243.6655 1555.0747,-230.302 1570.7496,-218.7325"/>
<polygon fill="#191970" stroke="#191970" points="1518.8275,-252.7057 1512.8602,-261.4603 1522.9845,-258.3378 1518.8275,-252.7057"/>
</g>
<!-- Node33 -->
<g id="node33" class="node">
<title>Node33</title>
<g id="a_node33"><a xlink:href="../../db/dc2/Fun4All__G4__FastMom__GEM_8C.html" target="_top" xlink:title="g4lblvtx/blob/master\l/macros/Fun4All_G4_FastMom_\lGEM.C">
<polygon fill="none" stroke="#000000" points="1717.5,-168.5 1717.5,-212.5 1890.5,-212.5 1890.5,-168.5 1717.5,-168.5"/>
<text text-anchor="start" x="1725.5" y="-199.5" font-family="FreeSans" font-size="10.00" fill="#000000">g4lblvtx/blob/master</text>
<text text-anchor="start" x="1725.5" y="-187.5" font-family="FreeSans" font-size="10.00" fill="#000000">/macros/Fun4All_G4_FastMom_</text>
<text text-anchor="middle" x="1804" y="-175.5" font-family="FreeSans" font-size="10.00" fill="#000000">GEM.C</text>
</a>
</g>
</g>
<!-- Node32&#45;&gt;Node33 -->
<g id="edge59" class="edge">
<title>Node32&#45;&gt;Node33</title>
<path fill="none" stroke="#191970" d="M1804,-257.2826C1804,-243.2545 1804,-226.1635 1804,-212.7832"/>
<polygon fill="#191970" stroke="#191970" points="1800.5001,-257.3006 1804,-267.3006 1807.5001,-257.3007 1800.5001,-257.3006"/>
</g>
<!-- Node34 -->
<g id="node34" class="node">
<title>Node34</title>
<g id="a_node34"><a xlink:href="../../d7/df9/Fun4All__G4__FastMom__GEM__RICH_8C.html" target="_top" xlink:title="g4lblvtx/blob/master\l/macros/Fun4All_G4_FastMom\l_GEM_RICH.C">
<polygon fill="none" stroke="#000000" points="1908.5,-168.5 1908.5,-212.5 2075.5,-212.5 2075.5,-168.5 1908.5,-168.5"/>
<text text-anchor="start" x="1916.5" y="-199.5" font-family="FreeSans" font-size="10.00" fill="#000000">g4lblvtx/blob/master</text>
<text text-anchor="start" x="1916.5" y="-187.5" font-family="FreeSans" font-size="10.00" fill="#000000">/macros/Fun4All_G4_FastMom</text>
<text text-anchor="middle" x="1992" y="-175.5" font-family="FreeSans" font-size="10.00" fill="#000000">_GEM_RICH.C</text>
</a>
</g>
</g>
<!-- Node32&#45;&gt;Node34 -->
<g id="edge60" class="edge">
<title>Node32&#45;&gt;Node34</title>
<path fill="none" stroke="#191970" d="M1845.7395,-262.8523C1875.8741,-247.9453 1916.5125,-227.8422 1947.3051,-212.6097"/>
<polygon fill="#191970" stroke="#191970" points="1844.1585,-259.7295 1836.7471,-267.3006 1847.2623,-266.0038 1844.1585,-259.7295"/>
</g>
</g>
</svg>
