<?xml version="1.0" encoding="UTF-8" standalone="no"?>
<!DOCTYPE svg PUBLIC "-//W3C//DTD SVG 1.1//EN"
 "http://www.w3.org/Graphics/SVG/1.1/DTD/svg11.dtd">
<!-- Generated by graphviz version 2.40.1 (20161225.0304)
 -->
<!-- Title: FairMesh::fillFluence Pages: 1 -->
<svg width="623pt" height="41pt"
 viewBox="0.00 0.00 623.00 41.00" xmlns="http://www.w3.org/2000/svg" xmlns:xlink="http://www.w3.org/1999/xlink">
<g id="graph0" class="graph" transform="scale(1 1) rotate(0) translate(4 37)">
<title>FairMesh::fillFluence</title>
<!-- Node1 -->
<g id="node1" class="node">
<title>Node1</title>
<polygon fill="#bfbfbf" stroke="#000000" points="0,-6.5 0,-26.5 119,-26.5 119,-6.5 0,-6.5"/>
<text text-anchor="middle" x="59.5" y="-13.5" font-family="FreeSans" font-size="10.00" fill="#000000">FairMesh::fillFluence</text>
</g>
<!-- Node2 -->
<g id="node2" class="node">
<title>Node2</title>
<g id="a_node2"><a xlink:href="../../df/d4f/classFairRadGridManager.html#a481cfeb3071d4c0bd1bb547759ed3722" target="_top" xlink:title="FairRadGridManager\l::FillMeshList">
<polygon fill="none" stroke="#000000" points="155,-.5 155,-32.5 275,-32.5 275,-.5 155,-.5"/>
<text text-anchor="start" x="163" y="-19.5" font-family="FreeSans" font-size="10.00" fill="#000000">FairRadGridManager</text>
<text text-anchor="middle" x="215" y="-7.5" font-family="FreeSans" font-size="10.00" fill="#000000">::FillMeshList</text>
</a>
</g>
</g>
<!-- Node1&#45;&gt;Node2 -->
<g id="edge1" class="edge">
<title>Node1&#45;&gt;Node2</title>
<path fill="none" stroke="#191970" d="M129.1884,-16.5C137.7917,-16.5 146.528,-16.5 154.97,-16.5"/>
<polygon fill="#191970" stroke="#191970" points="129.1757,-13.0001 119.1756,-16.5 129.1756,-20.0001 129.1757,-13.0001"/>
</g>
<!-- Node3 -->
<g id="node3" class="node">
<title>Node3</title>
<g id="a_node3"><a xlink:href="../../d8/def/classFairMCApplication.html#a185fd2d47acda615bc0bdf4a189b0dc5" target="_top" xlink:title="FairMCApplication::\lStepping">
<polygon fill="none" stroke="#000000" points="311,-.5 311,-32.5 424,-32.5 424,-.5 311,-.5"/>
<text text-anchor="start" x="319" y="-19.5" font-family="FreeSans" font-size="10.00" fill="#000000">FairMCApplication::</text>
<text text-anchor="middle" x="367.5" y="-7.5" font-family="FreeSans" font-size="10.00" fill="#000000">Stepping</text>
</a>
</g>
</g>
<!-- Node2&#45;&gt;Node3 -->
<g id="edge2" class="edge">
<title>Node2&#45;&gt;Node3</title>
<path fill="none" stroke="#191970" d="M285.4825,-16.5C293.9145,-16.5 302.4412,-16.5 310.6469,-16.5"/>
<polygon fill="#191970" stroke="#191970" points="285.2721,-13.0001 275.272,-16.5 285.272,-20.0001 285.2721,-13.0001"/>
</g>
<!-- Node4 -->
<g id="node4" class="node">
<title>Node4</title>
<g id="a_node4"><a xlink:href="../../db/d62/classEicMCApplication.html#a159ceb428e89f712b67c5b3de18a5782" target="_top" xlink:title="EicMCApplication::Stepping">
<polygon fill="none" stroke="#000000" points="460,-6.5 460,-26.5 615,-26.5 615,-6.5 460,-6.5"/>
<text text-anchor="middle" x="537.5" y="-13.5" font-family="FreeSans" font-size="10.00" fill="#000000">EicMCApplication::Stepping</text>
</a>
</g>
</g>
<!-- Node3&#45;&gt;Node4 -->
<g id="edge3" class="edge">
<title>Node3&#45;&gt;Node4</title>
<path fill="none" stroke="#191970" d="M434.2474,-16.5C442.682,-16.5 451.3683,-16.5 459.9525,-16.5"/>
<polygon fill="#191970" stroke="#191970" points="434.1076,-13.0001 424.1075,-16.5 434.1075,-20.0001 434.1076,-13.0001"/>
</g>
</g>
</svg>
