<?xml version="1.0" encoding="UTF-8" standalone="no"?>
<!DOCTYPE svg PUBLIC "-//W3C//DTD SVG 1.1//EN"
 "http://www.w3.org/Graphics/SVG/1.1/DTD/svg11.dtd">
<!-- Generated by graphviz version 2.40.1 (20161225.0304)
 -->
<!-- Title: MasterToLocal Pages: 1 -->
<svg width="834pt" height="255pt"
 viewBox="0.00 0.00 834.00 255.00" xmlns="http://www.w3.org/2000/svg" xmlns:xlink="http://www.w3.org/1999/xlink">
<g id="graph0" class="graph" transform="scale(1 1) rotate(0) translate(4 251)">
<title>MasterToLocal</title>
<!-- Node1 -->
<g id="node1" class="node">
<title>Node1</title>
<polygon fill="#bfbfbf" stroke="#000000" points="0,-146.5 0,-166.5 87,-166.5 87,-146.5 0,-146.5"/>
<text text-anchor="middle" x="43.5" y="-153.5" font-family="FreeSans" font-size="10.00" fill="#000000">MasterToLocal</text>
</g>
<!-- Node2 -->
<g id="node2" class="node">
<title>Node2</title>
<g id="a_node2"><a xlink:href="../../d2/d53/classEicTpcDigiHitProducer.html#aa3f46cd85269d7ce132513db471e20a7" target="_top" xlink:title="EicTpcDigiHitProducer\l::HandleHit">
<polygon fill="none" stroke="#000000" points="135,-214.5 135,-246.5 264,-246.5 264,-214.5 135,-214.5"/>
<text text-anchor="start" x="143" y="-233.5" font-family="FreeSans" font-size="10.00" fill="#000000">EicTpcDigiHitProducer</text>
<text text-anchor="middle" x="199.5" y="-221.5" font-family="FreeSans" font-size="10.00" fill="#000000">::HandleHit</text>
</a>
</g>
</g>
<!-- Node1&#45;&gt;Node2 -->
<g id="edge1" class="edge">
<title>Node1&#45;&gt;Node2</title>
<path fill="none" stroke="#191970" d="M65.9696,-172.3428C81.4678,-182.763 102.8345,-196.1512 123,-205.5 129.9721,-208.7322 137.4794,-211.7296 144.9702,-214.4438"/>
<polygon fill="#191970" stroke="#191970" points="67.8064,-169.3588 57.5761,-166.6035 63.8553,-175.1371 67.8064,-169.3588"/>
</g>
<!-- Node3 -->
<g id="node3" class="node">
<title>Node3</title>
<g id="a_node3"><a xlink:href="../../df/dca/classEicTrackingDigiHitProducer.html#a13bf30baf1c24ee624646ff43681a477" target="_top" xlink:title="EicTrackingDigiHitProducer\l::HandleHit">
<polygon fill="none" stroke="#000000" points="123,-163.5 123,-195.5 276,-195.5 276,-163.5 123,-163.5"/>
<text text-anchor="start" x="131" y="-182.5" font-family="FreeSans" font-size="10.00" fill="#000000">EicTrackingDigiHitProducer</text>
<text text-anchor="middle" x="199.5" y="-170.5" font-family="FreeSans" font-size="10.00" fill="#000000">::HandleHit</text>
</a>
</g>
</g>
<!-- Node1&#45;&gt;Node3 -->
<g id="edge2" class="edge">
<title>Node1&#45;&gt;Node3</title>
<path fill="none" stroke="#191970" d="M97.5138,-164.4636C105.7122,-165.6723 114.3022,-166.9388 122.8701,-168.202"/>
<polygon fill="#191970" stroke="#191970" points="97.7734,-160.9641 87.3698,-162.968 96.7524,-167.8892 97.7734,-160.9641"/>
</g>
<!-- Node4 -->
<g id="node4" class="node">
<title>Node4</title>
<g id="a_node4"><a xlink:href="../../d4/d04/classFwdTrackFinder.html#aede5d387f06d05b801e76f3c977fce68" target="_top" xlink:title="FwdTrackFinder::Init">
<polygon fill="none" stroke="#000000" points="141,-124.5 141,-144.5 258,-144.5 258,-124.5 141,-124.5"/>
<text text-anchor="middle" x="199.5" y="-131.5" font-family="FreeSans" font-size="10.00" fill="#000000">FwdTrackFinder::Init</text>
</a>
</g>
</g>
<!-- Node1&#45;&gt;Node4 -->
<g id="edge3" class="edge">
<title>Node1&#45;&gt;Node4</title>
<path fill="none" stroke="#191970" d="M97.3495,-148.9058C111.3762,-146.9277 126.5589,-144.7866 140.8218,-142.7751"/>
<polygon fill="#191970" stroke="#191970" points="96.7831,-145.451 87.3698,-150.3132 97.7606,-152.3824 96.7831,-145.451"/>
</g>
<!-- Node5 -->
<g id="node5" class="node">
<title>Node5</title>
<g id="a_node5"><a xlink:href="../../d9/d20/classFwdHoughNodeGroup.html#a24c2364f91e75040953052a394f58001" target="_top" xlink:title="FwdHoughNodeGroup::\lPackCore">
<polygon fill="none" stroke="#000000" points="133,-73.5 133,-105.5 266,-105.5 266,-73.5 133,-73.5"/>
<text text-anchor="start" x="141" y="-92.5" font-family="FreeSans" font-size="10.00" fill="#000000">FwdHoughNodeGroup::</text>
<text text-anchor="middle" x="199.5" y="-80.5" font-family="FreeSans" font-size="10.00" fill="#000000">PackCore</text>
</a>
</g>
</g>
<!-- Node1&#45;&gt;Node5 -->
<g id="edge4" class="edge">
<title>Node1&#45;&gt;Node5</title>
<path fill="none" stroke="#191970" d="M69.996,-141.5784C85.2336,-133.3178 104.8914,-123.1965 123,-115.5 131.2622,-111.9884 140.1746,-108.6076 148.8956,-105.5117"/>
<polygon fill="#191970" stroke="#191970" points="68.2153,-138.5631 61.133,-146.443 71.5835,-144.6996 68.2153,-138.5631"/>
</g>
<!-- Node6 -->
<g id="node6" class="node">
<title>Node6</title>
<g id="a_node6"><a xlink:href="../../d9/d20/classFwdHoughNodeGroup.html#a97899a879b554074764a2c3eff665e2c" target="_top" xlink:title="FwdHoughNodeGroup::Pack">
<polygon fill="none" stroke="#000000" points="312,-102.5 312,-122.5 470,-122.5 470,-102.5 312,-102.5"/>
<text text-anchor="middle" x="391" y="-109.5" font-family="FreeSans" font-size="10.00" fill="#000000">FwdHoughNodeGroup::Pack</text>
</a>
</g>
</g>
<!-- Node5&#45;&gt;Node6 -->
<g id="edge5" class="edge">
<title>Node5&#45;&gt;Node6</title>
<path fill="none" stroke="#191970" d="M276.3232,-98.7268C287.9677,-100.1254 300.0011,-101.5706 311.697,-102.9754"/>
<polygon fill="#191970" stroke="#191970" points="276.5546,-95.2295 266.2086,-97.512 275.7198,-102.1796 276.5546,-95.2295"/>
</g>
<!-- Node8 -->
<g id="node8" class="node">
<title>Node8</title>
<g id="a_node8"><a xlink:href="../../d9/d20/classFwdHoughNodeGroup.html#a0ea7116b3be79af0775b47a22f2f8690" target="_top" xlink:title="FwdHoughNodeGroup::\lPackFromTo">
<polygon fill="none" stroke="#000000" points="324.5,-51.5 324.5,-83.5 457.5,-83.5 457.5,-51.5 324.5,-51.5"/>
<text text-anchor="start" x="332.5" y="-70.5" font-family="FreeSans" font-size="10.00" fill="#000000">FwdHoughNodeGroup::</text>
<text text-anchor="middle" x="391" y="-58.5" font-family="FreeSans" font-size="10.00" fill="#000000">PackFromTo</text>
</a>
</g>
</g>
<!-- Node5&#45;&gt;Node8 -->
<g id="edge7" class="edge">
<title>Node5&#45;&gt;Node8</title>
<path fill="none" stroke="#191970" d="M276.4737,-80.6571C292.2792,-78.8413 308.7952,-76.9439 324.2064,-75.1734"/>
<polygon fill="#191970" stroke="#191970" points="275.7437,-77.2178 266.2086,-81.8364 276.5427,-84.1721 275.7437,-77.2178"/>
</g>
<!-- Node7 -->
<g id="node7" class="node">
<title>Node7</title>
<g id="a_node7"><a xlink:href="../../da/d13/classFwdHoughTree.html#a14cca728d113d498d780a54a01cfd63d" target="_top" xlink:title="FwdHoughTree::MappingCall">
<polygon fill="none" stroke="#000000" points="506,-102.5 506,-122.5 666,-122.5 666,-102.5 506,-102.5"/>
<text text-anchor="middle" x="586" y="-109.5" font-family="FreeSans" font-size="10.00" fill="#000000">FwdHoughTree::MappingCall</text>
</a>
</g>
</g>
<!-- Node6&#45;&gt;Node7 -->
<g id="edge6" class="edge">
<title>Node6&#45;&gt;Node7</title>
<path fill="none" stroke="#191970" d="M480.0825,-112.5C488.6917,-112.5 497.3891,-112.5 505.9035,-112.5"/>
<polygon fill="#191970" stroke="#191970" points="480.0329,-109.0001 470.0329,-112.5 480.0328,-116.0001 480.0329,-109.0001"/>
</g>
<!-- Node9 -->
<g id="node9" class="node">
<title>Node9</title>
<g id="a_node9"><a xlink:href="../../d9/d20/classFwdHoughNodeGroup.html#a2748d64ad3509a38323d96b465dd0845" target="_top" xlink:title="FwdHoughNodeGroup::\lPackFrom">
<polygon fill="none" stroke="#000000" points="519.5,-51.5 519.5,-83.5 652.5,-83.5 652.5,-51.5 519.5,-51.5"/>
<text text-anchor="start" x="527.5" y="-70.5" font-family="FreeSans" font-size="10.00" fill="#000000">FwdHoughNodeGroup::</text>
<text text-anchor="middle" x="586" y="-58.5" font-family="FreeSans" font-size="10.00" fill="#000000">PackFrom</text>
</a>
</g>
</g>
<!-- Node8&#45;&gt;Node9 -->
<g id="edge8" class="edge">
<title>Node8&#45;&gt;Node9</title>
<path fill="none" stroke="#191970" d="M468.0112,-67.5C485.0044,-67.5 502.8672,-67.5 519.4066,-67.5"/>
<polygon fill="#191970" stroke="#191970" points="467.5626,-64.0001 457.5625,-67.5 467.5625,-71.0001 467.5626,-64.0001"/>
</g>
<!-- Node11 -->
<g id="node11" class="node">
<title>Node11</title>
<g id="a_node11"><a xlink:href="../../d9/d20/classFwdHoughNodeGroup.html#aa1d9c824d6ed15061c93204ab90b5c62" target="_top" xlink:title="FwdHoughNodeGroup::\lPackTo">
<polygon fill="none" stroke="#000000" points="519.5,-.5 519.5,-32.5 652.5,-32.5 652.5,-.5 519.5,-.5"/>
<text text-anchor="start" x="527.5" y="-19.5" font-family="FreeSans" font-size="10.00" fill="#000000">FwdHoughNodeGroup::</text>
<text text-anchor="middle" x="586" y="-7.5" font-family="FreeSans" font-size="10.00" fill="#000000">PackTo</text>
</a>
</g>
</g>
<!-- Node8&#45;&gt;Node11 -->
<g id="edge10" class="edge">
<title>Node8&#45;&gt;Node11</title>
<path fill="none" stroke="#191970" d="M462.3011,-48.852C482.7118,-43.5138 504.777,-37.7429 524.5423,-32.5736"/>
<polygon fill="#191970" stroke="#191970" points="461.2205,-45.5168 452.4316,-51.4333 462.9918,-52.289 461.2205,-45.5168"/>
</g>
<!-- Node10 -->
<g id="node10" class="node">
<title>Node10</title>
<g id="a_node10"><a xlink:href="../../d4/d04/classFwdTrackFinder.html#a3af39e18710ddd0560bc69d7cd9d593c" target="_top" xlink:title="FwdTrackFinder::Exec">
<polygon fill="none" stroke="#000000" points="702,-31.5 702,-51.5 826,-51.5 826,-31.5 702,-31.5"/>
<text text-anchor="middle" x="764" y="-38.5" font-family="FreeSans" font-size="10.00" fill="#000000">FwdTrackFinder::Exec</text>
</a>
</g>
</g>
<!-- Node9&#45;&gt;Node10 -->
<g id="edge9" class="edge">
<title>Node9&#45;&gt;Node10</title>
<path fill="none" stroke="#191970" d="M662.5141,-56.3238C675.6858,-54.3998 689.2298,-52.4215 701.9609,-50.5619"/>
<polygon fill="#191970" stroke="#191970" points="661.9229,-52.8729 652.5338,-57.7816 662.9347,-59.7994 661.9229,-52.8729"/>
</g>
<!-- Node11&#45;&gt;Node10 -->
<g id="edge11" class="edge">
<title>Node11&#45;&gt;Node10</title>
<path fill="none" stroke="#191970" d="M662.5141,-27.2464C675.6858,-29.0963 689.2298,-30.9986 701.9609,-32.7866"/>
<polygon fill="#191970" stroke="#191970" points="662.9234,-23.7696 652.5338,-25.8446 661.9497,-30.7015 662.9234,-23.7696"/>
</g>
</g>
</svg>
