<?xml version="1.0" encoding="UTF-8" standalone="no"?>
<!DOCTYPE svg PUBLIC "-//W3C//DTD SVG 1.1//EN"
 "http://www.w3.org/Graphics/SVG/1.1/DTD/svg11.dtd">
<!-- Generated by graphviz version 2.40.1 (20161225.0304)
 -->
<!-- Title: fun4all_GenFit/blob/master/measurements/src/ProlateSpacepointMeasurement.cc Pages: 1 -->
<svg width="1051pt" height="680pt"
 viewBox="0.00 0.00 1050.50 680.00" xmlns="http://www.w3.org/2000/svg" xmlns:xlink="http://www.w3.org/1999/xlink">
<g id="graph0" class="graph" transform="scale(1 1) rotate(0) translate(4 676)">
<title>fun4all_GenFit/blob/master/measurements/src/ProlateSpacepointMeasurement.cc</title>
<!-- Node1 -->
<g id="node1" class="node">
<title>Node1</title>
<polygon fill="#bfbfbf" stroke="#000000" points="381.5,-627.5 381.5,-671.5 595.5,-671.5 595.5,-627.5 381.5,-627.5"/>
<text text-anchor="start" x="389.5" y="-658.5" font-family="FreeSans" font-size="10.00" fill="#000000">fun4all_GenFit/blob</text>
<text text-anchor="start" x="389.5" y="-646.5" font-family="FreeSans" font-size="10.00" fill="#000000">/master/measurements</text>
<text text-anchor="middle" x="488.5" y="-634.5" font-family="FreeSans" font-size="10.00" fill="#000000">/src/ProlateSpacepointMeasurement.cc</text>
</g>
<!-- Node2 -->
<g id="node2" class="node">
<title>Node2</title>
<g id="a_node2"><a xlink:href="../../da/d9d/ProlateSpacepointMeasurement_8h.html" target="_top" xlink:title="ProlateSpacepointMeasurement.h">
<polygon fill="none" stroke="#000000" points="456,-570.5 456,-590.5 643,-590.5 643,-570.5 456,-570.5"/>
<text text-anchor="middle" x="549.5" y="-577.5" font-family="FreeSans" font-size="10.00" fill="#000000">ProlateSpacepointMeasurement.h</text>
</a>
</g>
</g>
<!-- Node1&#45;&gt;Node2 -->
<g id="edge1" class="edge">
<title>Node1&#45;&gt;Node2</title>
<path fill="none" stroke="#191970" d="M508.1366,-627.2882C516.3713,-617.9734 525.8214,-607.2839 533.6083,-598.4758"/>
<polygon fill="#191970" stroke="#191970" points="536.4693,-600.5239 540.4705,-590.7137 531.2249,-595.8875 536.4693,-600.5239"/>
</g>
<!-- Node24 -->
<g id="node24" class="node">
<title>Node24</title>
<polygon fill="none" stroke="#bfbfbf" points="404.5,-342.5 404.5,-362.5 452.5,-362.5 452.5,-342.5 404.5,-342.5"/>
<text text-anchor="middle" x="428.5" y="-349.5" font-family="FreeSans" font-size="10.00" fill="#000000">cmath</text>
</g>
<!-- Node1&#45;&gt;Node24 -->
<g id="edge42" class="edge">
<title>Node1&#45;&gt;Node24</title>
<path fill="none" stroke="#191970" d="M469.6916,-627.3641C461.5871,-616.8957 452.5921,-603.8856 446.5,-591 433.2293,-562.9306 428.5,-554.5483 428.5,-523.5 428.5,-523.5 428.5,-523.5 428.5,-466.5 428.5,-433.6536 428.5,-395.4837 428.5,-372.697"/>
<polygon fill="#191970" stroke="#191970" points="432.0001,-372.5648 428.5,-362.5648 425.0001,-372.5648 432.0001,-372.5648"/>
</g>
<!-- Node25 -->
<g id="node25" class="node">
<title>Node25</title>
<g id="a_node25"><a xlink:href="../../d8/d8a/Exception_8h.html" target="_top" xlink:title="Exception.h">
<polygon fill="none" stroke="#000000" points="215,-570.5 215,-590.5 290,-590.5 290,-570.5 215,-570.5"/>
<text text-anchor="middle" x="252.5" y="-577.5" font-family="FreeSans" font-size="10.00" fill="#000000">Exception.h</text>
</a>
</g>
</g>
<!-- Node1&#45;&gt;Node25 -->
<g id="edge43" class="edge">
<title>Node1&#45;&gt;Node25</title>
<path fill="none" stroke="#191970" d="M413.1793,-627.4783C374.7928,-616.2551 329.4421,-602.9958 296.726,-593.4305"/>
<polygon fill="#191970" stroke="#191970" points="297.5804,-590.0338 287,-590.5869 295.616,-596.7525 297.5804,-590.0338"/>
</g>
<!-- Node31 -->
<g id="node31" class="node">
<title>Node31</title>
<polygon fill="none" stroke="#bfbfbf" points="660.5,-570.5 660.5,-590.5 744.5,-590.5 744.5,-570.5 660.5,-570.5"/>
<text text-anchor="middle" x="702.5" y="-577.5" font-family="FreeSans" font-size="10.00" fill="#000000">RKTrackRep.h</text>
</g>
<!-- Node1&#45;&gt;Node31 -->
<g id="edge50" class="edge">
<title>Node1&#45;&gt;Node31</title>
<path fill="none" stroke="#191970" d="M556.7993,-627.4783C591.3073,-616.3518 632.0219,-603.2242 661.627,-593.6787"/>
<polygon fill="#191970" stroke="#191970" points="662.7727,-596.9868 671.2161,-590.5869 660.6245,-590.3245 662.7727,-596.9868"/>
</g>
<!-- Node3 -->
<g id="node3" class="node">
<title>Node3</title>
<g id="a_node3"><a xlink:href="../../d4/d48/fun4all__GenFit_2blob_2master_2measurements_2include_2SpacepointMeasurement_8h.html" target="_top" xlink:title="SpacepointMeasurement.h">
<polygon fill="none" stroke="#000000" points="849.5,-513.5 849.5,-533.5 1001.5,-533.5 1001.5,-513.5 849.5,-513.5"/>
<text text-anchor="middle" x="925.5" y="-520.5" font-family="FreeSans" font-size="10.00" fill="#000000">SpacepointMeasurement.h</text>
</a>
</g>
</g>
<!-- Node2&#45;&gt;Node3 -->
<g id="edge2" class="edge">
<title>Node2&#45;&gt;Node3</title>
<path fill="none" stroke="#191970" d="M615.8557,-570.4408C681.1284,-560.5457 780.6855,-545.4533 849.1957,-535.0674"/>
<polygon fill="#191970" stroke="#191970" points="850.1298,-538.4659 859.4922,-533.5065 849.0806,-531.5449 850.1298,-538.4659"/>
</g>
<!-- Node4 -->
<g id="node4" class="node">
<title>Node4</title>
<g id="a_node4"><a xlink:href="../../d9/d7a/AbsMeasurement_8h.html" target="_top" xlink:title="AbsMeasurement.h">
<polygon fill="none" stroke="#000000" points="868.5,-456.5 868.5,-476.5 982.5,-476.5 982.5,-456.5 868.5,-456.5"/>
<text text-anchor="middle" x="925.5" y="-463.5" font-family="FreeSans" font-size="10.00" fill="#000000">AbsMeasurement.h</text>
</a>
</g>
</g>
<!-- Node3&#45;&gt;Node4 -->
<g id="edge3" class="edge">
<title>Node3&#45;&gt;Node4</title>
<path fill="none" stroke="#191970" d="M925.5,-513.3095C925.5,-505.9335 925.5,-495.72 925.5,-486.715"/>
<polygon fill="#191970" stroke="#191970" points="929.0001,-486.6022 925.5,-476.6022 922.0001,-486.6023 929.0001,-486.6022"/>
</g>
<!-- Node23 -->
<g id="node23" class="node">
<title>Node23</title>
<g id="a_node23"><a xlink:href="../../d4/daa/AbsHMatrix_8h.html" target="_top" xlink:title="AbsHMatrix.h">
<polygon fill="none" stroke="#000000" points="958.5,-285.5 958.5,-305.5 1042.5,-305.5 1042.5,-285.5 958.5,-285.5"/>
<text text-anchor="middle" x="1000.5" y="-292.5" font-family="FreeSans" font-size="10.00" fill="#000000">AbsHMatrix.h</text>
</a>
</g>
</g>
<!-- Node3&#45;&gt;Node23 -->
<g id="edge41" class="edge">
<title>Node3&#45;&gt;Node23</title>
<path fill="none" stroke="#191970" d="M949.3498,-513.4344C964.2537,-505.7787 982.306,-493.6989 991.5,-477 1020.1965,-424.8792 1011.4971,-351.0517 1004.9258,-315.785"/>
<polygon fill="#191970" stroke="#191970" points="1008.3147,-314.8829 1002.9171,-305.7661 1001.4513,-316.259 1008.3147,-314.8829"/>
</g>
<!-- Node5 -->
<g id="node5" class="node">
<title>Node5</title>
<g id="a_node5"><a xlink:href="../../d7/d22/MeasurementOnPlane_8h.html" target="_top" xlink:title="MeasurementOnPlane.h">
<polygon fill="none" stroke="#000000" points="522,-399.5 522,-419.5 659,-419.5 659,-399.5 522,-399.5"/>
<text text-anchor="middle" x="590.5" y="-406.5" font-family="FreeSans" font-size="10.00" fill="#000000">MeasurementOnPlane.h</text>
</a>
</g>
</g>
<!-- Node4&#45;&gt;Node5 -->
<g id="edge4" class="edge">
<title>Node4&#45;&gt;Node5</title>
<path fill="none" stroke="#191970" d="M868.2921,-456.7661C810.495,-446.932 721.1591,-431.7315 659.4774,-421.2365"/>
<polygon fill="#191970" stroke="#191970" points="659.8887,-417.7562 649.4433,-419.5292 658.7145,-424.657 659.8887,-417.7562"/>
</g>
<!-- Node12 -->
<g id="node12" class="node">
<title>Node12</title>
<polygon fill="none" stroke="#bfbfbf" points="683,-57.5 683,-77.5 748,-77.5 748,-57.5 683,-57.5"/>
<text text-anchor="middle" x="715.5" y="-64.5" font-family="FreeSans" font-size="10.00" fill="#000000">TObject.h</text>
</g>
<!-- Node4&#45;&gt;Node12 -->
<g id="edge40" class="edge">
<title>Node4&#45;&gt;Node12</title>
<path fill="none" stroke="#191970" d="M926.0754,-456.1195C927.7972,-428.1281 933.7977,-348.8931 949.5,-285 962.1183,-233.6557 1014.4739,-213.8494 983.5,-171 953.6121,-129.653 922.2436,-152.9836 874.5,-135 829.611,-118.0917 778.7439,-95.9608 746.8935,-81.7347"/>
<polygon fill="#191970" stroke="#191970" points="748.2038,-78.4865 737.6471,-77.5879 745.3393,-84.8736 748.2038,-78.4865"/>
</g>
<!-- Node4&#45;&gt;Node23 -->
<g id="edge39" class="edge">
<title>Node4&#45;&gt;Node23</title>
<path fill="none" stroke="#191970" d="M929.967,-456.3153C942.0793,-428.6992 975.7116,-352.0174 991.7605,-315.426"/>
<polygon fill="#191970" stroke="#191970" points="995.1502,-316.4113 995.9616,-305.8476 988.7397,-313.5996 995.1502,-316.4113"/>
</g>
<!-- Node6 -->
<g id="node6" class="node">
<title>Node6</title>
<g id="a_node6"><a xlink:href="../../df/dc0/MeasuredStateOnPlane_8h.html" target="_top" xlink:title="MeasuredStateOnPlane.h">
<polygon fill="none" stroke="#000000" points="567.5,-342.5 567.5,-362.5 711.5,-362.5 711.5,-342.5 567.5,-342.5"/>
<text text-anchor="middle" x="639.5" y="-349.5" font-family="FreeSans" font-size="10.00" fill="#000000">MeasuredStateOnPlane.h</text>
</a>
</g>
</g>
<!-- Node5&#45;&gt;Node6 -->
<g id="edge5" class="edge">
<title>Node5&#45;&gt;Node6</title>
<path fill="none" stroke="#191970" d="M599.2602,-399.3095C606.1585,-391.2851 615.9437,-379.9022 624.1374,-370.3708"/>
<polygon fill="#191970" stroke="#191970" points="626.9508,-372.467 630.8156,-362.6022 621.6426,-367.9038 626.9508,-372.467"/>
</g>
<!-- Node14 -->
<g id="node14" class="node">
<title>Node14</title>
<polygon fill="none" stroke="#bfbfbf" points="385.5,-57.5 385.5,-77.5 443.5,-77.5 443.5,-57.5 385.5,-57.5"/>
<text text-anchor="middle" x="414.5" y="-64.5" font-family="FreeSans" font-size="10.00" fill="#000000">memory</text>
</g>
<!-- Node5&#45;&gt;Node14 -->
<g id="edge38" class="edge">
<title>Node5&#45;&gt;Node14</title>
<path fill="none" stroke="#191970" d="M569.1403,-399.4712C511.0468,-371.5044 354.5,-291.2475 354.5,-238.5 354.5,-238.5 354.5,-238.5 354.5,-181.5 354.5,-143.9547 380.3002,-106.6294 398.0638,-85.3802"/>
<polygon fill="#191970" stroke="#191970" points="400.9458,-87.3995 404.86,-77.5542 395.6605,-82.8097 400.9458,-87.3995"/>
</g>
<!-- Node20 -->
<g id="node20" class="node">
<title>Node20</title>
<polygon fill="none" stroke="#bfbfbf" points="382.5,-171.5 382.5,-191.5 454.5,-191.5 454.5,-171.5 382.5,-171.5"/>
<text text-anchor="middle" x="418.5" y="-178.5" font-family="FreeSans" font-size="10.00" fill="#000000">TMatrixD.h</text>
</g>
<!-- Node5&#45;&gt;Node20 -->
<g id="edge36" class="edge">
<title>Node5&#45;&gt;Node20</title>
<path fill="none" stroke="#191970" d="M582.8874,-399.4089C556.252,-364.1015 466.9895,-245.7767 432.3785,-199.8971"/>
<polygon fill="#191970" stroke="#191970" points="435.0363,-197.6086 426.2198,-191.7332 429.4481,-201.8242 435.0363,-197.6086"/>
</g>
<!-- Node5&#45;&gt;Node23 -->
<g id="edge32" class="edge">
<title>Node5&#45;&gt;Node23</title>
<path fill="none" stroke="#191970" d="M626.5254,-399.4832C701.0891,-378.7508 872.2333,-331.1644 954.5825,-308.2673"/>
<polygon fill="#191970" stroke="#191970" points="955.7129,-311.5859 964.4098,-305.5348 953.8376,-304.8417 955.7129,-311.5859"/>
</g>
<!-- Node5&#45;&gt;Node24 -->
<g id="edge37" class="edge">
<title>Node5&#45;&gt;Node24</title>
<path fill="none" stroke="#191970" d="M561.9106,-399.4408C534.0004,-389.6205 491.5413,-374.6812 462.0476,-364.3038"/>
<polygon fill="#191970" stroke="#191970" points="463.177,-360.9909 452.5822,-360.9734 460.8536,-367.5941 463.177,-360.9909"/>
</g>
<!-- Node7 -->
<g id="node7" class="node">
<title>Node7</title>
<g id="a_node7"><a xlink:href="../../db/d1a/StateOnPlane_8h.html" target="_top" xlink:title="StateOnPlane.h">
<polygon fill="none" stroke="#000000" points="592.5,-285.5 592.5,-305.5 686.5,-305.5 686.5,-285.5 592.5,-285.5"/>
<text text-anchor="middle" x="639.5" y="-292.5" font-family="FreeSans" font-size="10.00" fill="#000000">StateOnPlane.h</text>
</a>
</g>
</g>
<!-- Node6&#45;&gt;Node7 -->
<g id="edge6" class="edge">
<title>Node6&#45;&gt;Node7</title>
<path fill="none" stroke="#191970" d="M639.5,-342.3095C639.5,-334.9335 639.5,-324.72 639.5,-315.715"/>
<polygon fill="#191970" stroke="#191970" points="643.0001,-315.6022 639.5,-305.6022 636.0001,-315.6023 643.0001,-315.6022"/>
</g>
<!-- Node15 -->
<g id="node15" class="node">
<title>Node15</title>
<g id="a_node15"><a xlink:href="../../d4/d66/AbsTrackRep_8h.html" target="_top" xlink:title="AbsTrackRep.h">
<polygon fill="none" stroke="#000000" points="669,-228.5 669,-248.5 760,-248.5 760,-228.5 669,-228.5"/>
<text text-anchor="middle" x="714.5" y="-235.5" font-family="FreeSans" font-size="10.00" fill="#000000">AbsTrackRep.h</text>
</a>
</g>
</g>
<!-- Node6&#45;&gt;Node15 -->
<g id="edge29" class="edge">
<title>Node6&#45;&gt;Node15</title>
<path fill="none" stroke="#191970" d="M656.5851,-342.3493C669.1073,-334.0655 685.5869,-321.2601 695.5,-306 704.7101,-291.822 709.519,-273.1624 711.9915,-259.0558"/>
<polygon fill="#191970" stroke="#191970" points="715.4939,-259.2994 713.5129,-248.8914 708.5711,-258.2631 715.4939,-259.2994"/>
</g>
<!-- Node21 -->
<g id="node21" class="node">
<title>Node21</title>
<polygon fill="none" stroke="#bfbfbf" points="880.5,-171.5 880.5,-191.5 974.5,-191.5 974.5,-171.5 880.5,-171.5"/>
<text text-anchor="middle" x="927.5" y="-178.5" font-family="FreeSans" font-size="10.00" fill="#000000">TMatrixDSym.h</text>
</g>
<!-- Node6&#45;&gt;Node21 -->
<g id="edge30" class="edge">
<title>Node6&#45;&gt;Node21</title>
<path fill="none" stroke="#191970" d="M656.6532,-342.3153C705.1755,-313.5052 843.6357,-231.2944 901.5438,-196.9115"/>
<polygon fill="#191970" stroke="#191970" points="903.625,-199.7463 910.4367,-191.6314 900.0512,-193.7273 903.625,-199.7463"/>
</g>
<!-- Node22 -->
<g id="node22" class="node">
<title>Node22</title>
<polygon fill="none" stroke="#bfbfbf" points="521,-228.5 521,-248.5 574,-248.5 574,-228.5 521,-228.5"/>
<text text-anchor="middle" x="547.5" y="-235.5" font-family="FreeSans" font-size="10.00" fill="#000000">cassert</text>
</g>
<!-- Node6&#45;&gt;Node22 -->
<g id="edge31" class="edge">
<title>Node6&#45;&gt;Node22</title>
<path fill="none" stroke="#191970" d="M624.3184,-342.3953C612.1871,-333.7734 595.3166,-320.4969 583.5,-306 571.6159,-291.4203 561.8629,-272.3135 555.5203,-258.1508"/>
<polygon fill="#191970" stroke="#191970" points="558.6864,-256.6534 551.5229,-248.8474 552.2549,-259.4169 558.6864,-256.6534"/>
</g>
<!-- Node8 -->
<g id="node8" class="node">
<title>Node8</title>
<g id="a_node8"><a xlink:href="../../db/d4f/SharedPlanePtr_8h.html" target="_top" xlink:title="SharedPlanePtr.h">
<polygon fill="none" stroke="#000000" points="472.5,-171.5 472.5,-191.5 574.5,-191.5 574.5,-171.5 472.5,-171.5"/>
<text text-anchor="middle" x="523.5" y="-178.5" font-family="FreeSans" font-size="10.00" fill="#000000">SharedPlanePtr.h</text>
</a>
</g>
</g>
<!-- Node7&#45;&gt;Node8 -->
<g id="edge7" class="edge">
<title>Node7&#45;&gt;Node8</title>
<path fill="none" stroke="#191970" d="M631.9658,-285.3415C621.5715,-271.6312 601.9082,-246.7631 582.5,-228 571.2921,-217.1646 557.6878,-206.3101 546.3684,-197.8166"/>
<polygon fill="#191970" stroke="#191970" points="548.3614,-194.9376 538.2353,-191.8212 544.2078,-200.5721 548.3614,-194.9376"/>
</g>
<!-- Node7&#45;&gt;Node12 -->
<g id="edge26" class="edge">
<title>Node7&#45;&gt;Node12</title>
<path fill="none" stroke="#191970" d="M641.9031,-285.4849C648.6773,-257.7639 669.0353,-177.8548 693.5,-114 696.9982,-104.8693 701.5282,-95.0435 705.5675,-86.7871"/>
<polygon fill="#191970" stroke="#191970" points="708.7969,-88.155 710.1489,-77.6468 702.539,-85.0183 708.7969,-88.155"/>
</g>
<!-- Node7&#45;&gt;Node15 -->
<g id="edge15" class="edge">
<title>Node7&#45;&gt;Node15</title>
<path fill="none" stroke="#191970" d="M652.9085,-285.3095C664.107,-276.7987 680.2761,-264.5102 693.2377,-254.6594"/>
<polygon fill="#191970" stroke="#191970" points="695.3638,-257.4397 701.2076,-248.6022 691.1281,-251.8665 695.3638,-257.4397"/>
</g>
<!-- Node19 -->
<g id="node19" class="node">
<title>Node19</title>
<polygon fill="none" stroke="#bfbfbf" points="790.5,-171.5 790.5,-191.5 862.5,-191.5 862.5,-171.5 790.5,-171.5"/>
<text text-anchor="middle" x="826.5" y="-178.5" font-family="FreeSans" font-size="10.00" fill="#000000">TVectorD.h</text>
</g>
<!-- Node7&#45;&gt;Node19 -->
<g id="edge27" class="edge">
<title>Node7&#45;&gt;Node19</title>
<path fill="none" stroke="#191970" d="M685.2866,-285.4514C711.5371,-278.2046 744.1927,-266.5571 769.5,-249 788.2853,-235.9676 804.5197,-215.2266 814.8048,-200.1726"/>
<polygon fill="#191970" stroke="#191970" points="817.8369,-201.9318 820.4095,-191.654 811.9891,-198.0842 817.8369,-201.9318"/>
</g>
<!-- Node7&#45;&gt;Node22 -->
<g id="edge28" class="edge">
<title>Node7&#45;&gt;Node22</title>
<path fill="none" stroke="#191970" d="M623.0522,-285.3095C609.0538,-276.6366 588.7235,-264.0407 572.6776,-254.0992"/>
<polygon fill="#191970" stroke="#191970" points="574.1494,-250.8938 563.8054,-248.6022 570.4627,-256.8442 574.1494,-250.8938"/>
</g>
<!-- Node9 -->
<g id="node9" class="node">
<title>Node9</title>
<g id="a_node9"><a xlink:href="../../dc/d81/DetPlane_8h.html" target="_top" xlink:title="DetPlane.h">
<polygon fill="none" stroke="#000000" points="488,-114.5 488,-134.5 559,-134.5 559,-114.5 488,-114.5"/>
<text text-anchor="middle" x="523.5" y="-121.5" font-family="FreeSans" font-size="10.00" fill="#000000">DetPlane.h</text>
</a>
</g>
</g>
<!-- Node8&#45;&gt;Node9 -->
<g id="edge8" class="edge">
<title>Node8&#45;&gt;Node9</title>
<path fill="none" stroke="#191970" d="M523.5,-171.3095C523.5,-163.9335 523.5,-153.72 523.5,-144.715"/>
<polygon fill="#191970" stroke="#191970" points="527.0001,-144.6022 523.5,-134.6022 520.0001,-144.6023 527.0001,-144.6022"/>
</g>
<!-- Node8&#45;&gt;Node14 -->
<g id="edge14" class="edge">
<title>Node8&#45;&gt;Node14</title>
<path fill="none" stroke="#191970" d="M513.4608,-171.1867C504.3211,-161.7831 490.4676,-147.4936 478.5,-135 462.2517,-118.0375 443.8064,-98.5597 430.9061,-84.9009"/>
<polygon fill="#191970" stroke="#191970" points="433.419,-82.4642 424.0098,-77.5941 428.3283,-87.2689 433.419,-82.4642"/>
</g>
<!-- Node10 -->
<g id="node10" class="node">
<title>Node10</title>
<g id="a_node10"><a xlink:href="../../d1/dd1/AbsFinitePlane_8h.html" target="_top" xlink:title="AbsFinitePlane.h">
<polygon fill="none" stroke="#000000" points="461.5,-57.5 461.5,-77.5 561.5,-77.5 561.5,-57.5 461.5,-57.5"/>
<text text-anchor="middle" x="511.5" y="-64.5" font-family="FreeSans" font-size="10.00" fill="#000000">AbsFinitePlane.h</text>
</a>
</g>
</g>
<!-- Node9&#45;&gt;Node10 -->
<g id="edge9" class="edge">
<title>Node9&#45;&gt;Node10</title>
<path fill="none" stroke="#191970" d="M521.3546,-114.3095C519.7847,-106.8524 517.6042,-96.4951 515.6934,-87.4186"/>
<polygon fill="#191970" stroke="#191970" points="519.1119,-86.6667 513.6268,-77.6022 512.262,-88.1088 519.1119,-86.6667"/>
</g>
<!-- Node9&#45;&gt;Node12 -->
<g id="edge11" class="edge">
<title>Node9&#45;&gt;Node12</title>
<path fill="none" stroke="#191970" d="M557.3838,-114.4408C589.6202,-104.8706 638.2328,-90.4387 673.0402,-80.1053"/>
<polygon fill="#191970" stroke="#191970" points="674.325,-83.3749 682.9154,-77.1736 672.3328,-76.6643 674.325,-83.3749"/>
</g>
<!-- Node13 -->
<g id="node13" class="node">
<title>Node13</title>
<polygon fill="none" stroke="#bfbfbf" points="580,-57.5 580,-77.5 651,-77.5 651,-57.5 580,-57.5"/>
<text text-anchor="middle" x="615.5" y="-64.5" font-family="FreeSans" font-size="10.00" fill="#000000">TVector3.h</text>
</g>
<!-- Node9&#45;&gt;Node13 -->
<g id="edge12" class="edge">
<title>Node9&#45;&gt;Node13</title>
<path fill="none" stroke="#191970" d="M539.9478,-114.3095C553.9462,-105.6366 574.2765,-93.0407 590.3224,-83.0992"/>
<polygon fill="#191970" stroke="#191970" points="592.5373,-85.8442 599.1946,-77.6022 588.8506,-79.8938 592.5373,-85.8442"/>
</g>
<!-- Node9&#45;&gt;Node14 -->
<g id="edge13" class="edge">
<title>Node9&#45;&gt;Node14</title>
<path fill="none" stroke="#191970" d="M504.2639,-114.4408C487.2467,-105.5419 462.1911,-92.4394 442.8728,-82.3371"/>
<polygon fill="#191970" stroke="#191970" points="444.3939,-79.1829 433.9104,-77.6504 441.15,-85.386 444.3939,-79.1829"/>
</g>
<!-- Node11 -->
<g id="node11" class="node">
<title>Node11</title>
<polygon fill="none" stroke="#bfbfbf" points="481.5,-.5 481.5,-20.5 541.5,-20.5 541.5,-.5 481.5,-.5"/>
<text text-anchor="middle" x="511.5" y="-7.5" font-family="FreeSans" font-size="10.00" fill="#000000">Rtypes.h</text>
</g>
<!-- Node10&#45;&gt;Node11 -->
<g id="edge10" class="edge">
<title>Node10&#45;&gt;Node11</title>
<path fill="none" stroke="#191970" d="M511.5,-57.3095C511.5,-49.9335 511.5,-39.72 511.5,-30.715"/>
<polygon fill="#191970" stroke="#191970" points="515.0001,-30.6022 511.5,-20.6022 508.0001,-30.6023 515.0001,-30.6022"/>
</g>
<!-- Node15&#45;&gt;Node8 -->
<g id="edge16" class="edge">
<title>Node15&#45;&gt;Node8</title>
<path fill="none" stroke="#191970" d="M680.7927,-228.4408C649.1141,-218.9869 601.5383,-204.7889 567.0076,-194.484"/>
<polygon fill="#191970" stroke="#191970" points="567.7743,-191.0603 557.191,-191.5544 565.7725,-197.768 567.7743,-191.0603"/>
</g>
<!-- Node15&#45;&gt;Node12 -->
<g id="edge22" class="edge">
<title>Node15&#45;&gt;Node12</title>
<path fill="none" stroke="#191970" d="M709.6534,-228.4443C705.491,-219.214 699.8079,-205.0343 697.5,-192 690.9657,-155.0966 701.28,-111.7246 708.7907,-87.1387"/>
<polygon fill="#191970" stroke="#191970" points="712.1479,-88.1313 711.8771,-77.5399 705.484,-85.9885 712.1479,-88.1313"/>
</g>
<!-- Node15&#45;&gt;Node13 -->
<g id="edge21" class="edge">
<title>Node15&#45;&gt;Node13</title>
<path fill="none" stroke="#191970" d="M708.6036,-228.3153C692.5467,-200.5807 647.839,-123.3583 626.7646,-86.9571"/>
<polygon fill="#191970" stroke="#191970" points="629.5301,-84.7482 621.4907,-77.8476 623.4721,-88.2555 629.5301,-84.7482"/>
</g>
<!-- Node16 -->
<g id="node16" class="node">
<title>Node16</title>
<g id="a_node16"><a xlink:href="../../df/d12/Material_8h.html" target="_top" xlink:title="Material.h">
<polygon fill="none" stroke="#000000" points="706.5,-171.5 706.5,-191.5 772.5,-191.5 772.5,-171.5 706.5,-171.5"/>
<text text-anchor="middle" x="739.5" y="-178.5" font-family="FreeSans" font-size="10.00" fill="#000000">Material.h</text>
</a>
</g>
</g>
<!-- Node15&#45;&gt;Node16 -->
<g id="edge17" class="edge">
<title>Node15&#45;&gt;Node16</title>
<path fill="none" stroke="#191970" d="M718.9695,-228.3095C722.3113,-220.6903 726.9809,-210.0435 731.0226,-200.8285"/>
<polygon fill="#191970" stroke="#191970" points="734.2578,-202.166 735.0692,-191.6022 727.8473,-199.3543 734.2578,-202.166"/>
</g>
<!-- Node15&#45;&gt;Node19 -->
<g id="edge23" class="edge">
<title>Node15&#45;&gt;Node19</title>
<path fill="none" stroke="#191970" d="M734.2655,-228.4408C751.8306,-219.5014 777.7305,-206.3202 797.6167,-196.1996"/>
<polygon fill="#191970" stroke="#191970" points="799.2306,-199.3054 806.5553,-191.6504 796.0556,-193.0669 799.2306,-199.3054"/>
</g>
<!-- Node15&#45;&gt;Node20 -->
<g id="edge24" class="edge">
<title>Node15&#45;&gt;Node20</title>
<path fill="none" stroke="#191970" d="M668.5739,-230.646C620.2179,-222.2304 541.6356,-208.1423 464.6802,-192.183"/>
<polygon fill="#191970" stroke="#191970" points="465.3215,-188.7416 454.8175,-190.1254 463.8918,-195.594 465.3215,-188.7416"/>
</g>
<!-- Node15&#45;&gt;Node21 -->
<g id="edge25" class="edge">
<title>Node15&#45;&gt;Node21</title>
<path fill="none" stroke="#191970" d="M752.0898,-228.4408C787.7205,-218.9058 841.3852,-204.5448 879.9694,-194.2195"/>
<polygon fill="#191970" stroke="#191970" points="881.1731,-197.5206 889.9283,-191.5544 879.3634,-190.7585 881.1731,-197.5206"/>
</g>
<!-- Node16&#45;&gt;Node12 -->
<g id="edge20" class="edge">
<title>Node16&#45;&gt;Node12</title>
<path fill="none" stroke="#191970" d="M737.3702,-171.3833C733.4306,-152.6703 724.9372,-112.3266 719.7709,-87.7866"/>
<polygon fill="#191970" stroke="#191970" points="723.1447,-86.8224 717.6596,-77.7579 716.2948,-88.2645 723.1447,-86.8224"/>
</g>
<!-- Node17 -->
<g id="node17" class="node">
<title>Node17</title>
<g id="a_node17"><a xlink:href="../../d7/d83/EigenMatrixTypedefs_8h.html" target="_top" xlink:title="EigenMatrixTypedefs.h">
<polygon fill="none" stroke="#000000" points="883.5,-114.5 883.5,-134.5 1013.5,-134.5 1013.5,-114.5 883.5,-114.5"/>
<text text-anchor="middle" x="948.5" y="-121.5" font-family="FreeSans" font-size="10.00" fill="#000000">EigenMatrixTypedefs.h</text>
</a>
</g>
</g>
<!-- Node16&#45;&gt;Node17 -->
<g id="edge18" class="edge">
<title>Node16&#45;&gt;Node17</title>
<path fill="none" stroke="#191970" d="M772.6167,-172.4682C807.4529,-162.9674 862.5622,-147.9376 901.8043,-137.2352"/>
<polygon fill="#191970" stroke="#191970" points="902.9409,-140.5531 911.6676,-134.5452 901.0991,-133.7998 902.9409,-140.5531"/>
</g>
<!-- Node18 -->
<g id="node18" class="node">
<title>Node18</title>
<polygon fill="none" stroke="#bfbfbf" points="908.5,-57.5 908.5,-77.5 988.5,-77.5 988.5,-57.5 908.5,-57.5"/>
<text text-anchor="middle" x="948.5" y="-64.5" font-family="FreeSans" font-size="10.00" fill="#000000">Eigen/Dense</text>
</g>
<!-- Node17&#45;&gt;Node18 -->
<g id="edge19" class="edge">
<title>Node17&#45;&gt;Node18</title>
<path fill="none" stroke="#191970" d="M948.5,-114.3095C948.5,-106.9335 948.5,-96.72 948.5,-87.715"/>
<polygon fill="#191970" stroke="#191970" points="952.0001,-87.6022 948.5,-77.6022 945.0001,-87.6023 952.0001,-87.6022"/>
</g>
<!-- Node23&#45;&gt;Node12 -->
<g id="edge33" class="edge">
<title>Node23&#45;&gt;Node12</title>
<path fill="none" stroke="#191970" d="M1006.3482,-285.3542C1022.9065,-255.1519 1066.1677,-164.7799 1022.5,-114 1005.492,-94.2219 838.699,-77.769 758.3465,-70.9197"/>
<polygon fill="#191970" stroke="#191970" points="758.3256,-67.4057 748.0676,-70.0558 757.7393,-74.3811 758.3256,-67.4057"/>
</g>
<!-- Node23&#45;&gt;Node19 -->
<g id="edge35" class="edge">
<title>Node23&#45;&gt;Node19</title>
<path fill="none" stroke="#191970" d="M985.0587,-285.3833C954.6955,-265.4902 887.0218,-221.1522 850.6796,-197.3418"/>
<polygon fill="#191970" stroke="#191970" points="852.4396,-194.3106 842.1569,-191.7579 848.6034,-200.1659 852.4396,-194.3106"/>
</g>
<!-- Node23&#45;&gt;Node21 -->
<g id="edge34" class="edge">
<title>Node23&#45;&gt;Node21</title>
<path fill="none" stroke="#191970" d="M994.0217,-285.3833C981.8229,-266.3331 955.2693,-224.8658 939.6511,-200.4757"/>
<polygon fill="#191970" stroke="#191970" points="942.4088,-198.2919 934.0687,-191.7579 936.5139,-202.0668 942.4088,-198.2919"/>
</g>
<!-- Node25&#45;&gt;Node20 -->
<g id="edge49" class="edge">
<title>Node25&#45;&gt;Node20</title>
<path fill="none" stroke="#191970" d="M290.2105,-572.087C312.3934,-565.3013 339.3662,-553.5669 356.5,-534 377.1128,-510.4601 376.5,-497.7892 376.5,-466.5 376.5,-466.5 376.5,-466.5 376.5,-409.5 376.5,-331.5043 400.5654,-240.9469 412.2632,-201.5355"/>
<polygon fill="#191970" stroke="#191970" points="415.6541,-202.414 415.2043,-191.8287 408.9549,-200.3841 415.6541,-202.414"/>
</g>
<!-- Node26 -->
<g id="node26" class="node">
<title>Node26</title>
<polygon fill="none" stroke="#bfbfbf" points="220,-513.5 220,-533.5 285,-533.5 285,-513.5 220,-513.5"/>
<text text-anchor="middle" x="252.5" y="-520.5" font-family="FreeSans" font-size="10.00" fill="#000000">exception</text>
</g>
<!-- Node25&#45;&gt;Node26 -->
<g id="edge44" class="edge">
<title>Node25&#45;&gt;Node26</title>
<path fill="none" stroke="#191970" d="M252.5,-570.3095C252.5,-562.9335 252.5,-552.72 252.5,-543.715"/>
<polygon fill="#191970" stroke="#191970" points="256.0001,-543.6022 252.5,-533.6022 249.0001,-543.6023 256.0001,-543.6022"/>
</g>
<!-- Node27 -->
<g id="node27" class="node">
<title>Node27</title>
<polygon fill="none" stroke="#bfbfbf" points="303,-513.5 303,-533.5 348,-533.5 348,-513.5 303,-513.5"/>
<text text-anchor="middle" x="325.5" y="-520.5" font-family="FreeSans" font-size="10.00" fill="#000000">string</text>
</g>
<!-- Node25&#45;&gt;Node27 -->
<g id="edge45" class="edge">
<title>Node25&#45;&gt;Node27</title>
<path fill="none" stroke="#191970" d="M265.5509,-570.3095C276.347,-561.8798 291.8894,-549.7439 304.4433,-539.9415"/>
<polygon fill="#191970" stroke="#191970" points="306.8342,-542.5153 312.5621,-533.6022 302.5261,-536.998 306.8342,-542.5153"/>
</g>
<!-- Node28 -->
<g id="node28" class="node">
<title>Node28</title>
<polygon fill="none" stroke="#bfbfbf" points="0,-513.5 0,-533.5 49,-533.5 49,-513.5 0,-513.5"/>
<text text-anchor="middle" x="24.5" y="-520.5" font-family="FreeSans" font-size="10.00" fill="#000000">vector</text>
</g>
<!-- Node25&#45;&gt;Node28 -->
<g id="edge46" class="edge">
<title>Node25&#45;&gt;Node28</title>
<path fill="none" stroke="#191970" d="M214.7639,-572.2106C177.6055,-563.881 119.0347,-550.3066 59.3103,-534.1001"/>
<polygon fill="#191970" stroke="#191970" points="59.8976,-530.6322 49.3284,-531.3694 58.0505,-537.3841 59.8976,-530.6322"/>
</g>
<!-- Node29 -->
<g id="node29" class="node">
<title>Node29</title>
<polygon fill="none" stroke="#bfbfbf" points="67.5,-513.5 67.5,-533.5 127.5,-533.5 127.5,-513.5 67.5,-513.5"/>
<text text-anchor="middle" x="97.5" y="-520.5" font-family="FreeSans" font-size="10.00" fill="#000000">iostream</text>
</g>
<!-- Node25&#45;&gt;Node29 -->
<g id="edge47" class="edge">
<title>Node25&#45;&gt;Node29</title>
<path fill="none" stroke="#191970" d="M225.1459,-570.4408C199.8795,-561.1492 162.1513,-547.275 134.2597,-537.0181"/>
<polygon fill="#191970" stroke="#191970" points="135.4344,-533.721 124.8409,-533.5544 133.0184,-540.2908 135.4344,-533.721"/>
</g>
<!-- Node30 -->
<g id="node30" class="node">
<title>Node30</title>
<polygon fill="none" stroke="#bfbfbf" points="145.5,-513.5 145.5,-533.5 201.5,-533.5 201.5,-513.5 145.5,-513.5"/>
<text text-anchor="middle" x="173.5" y="-520.5" font-family="FreeSans" font-size="10.00" fill="#000000">sstream</text>
</g>
<!-- Node25&#45;&gt;Node30 -->
<g id="edge48" class="edge">
<title>Node25&#45;&gt;Node30</title>
<path fill="none" stroke="#191970" d="M238.3764,-570.3095C226.5807,-561.7987 209.5492,-549.5102 195.8963,-539.6594"/>
<polygon fill="#191970" stroke="#191970" points="197.6588,-536.6151 187.5013,-533.6022 193.5629,-542.2918 197.6588,-536.6151"/>
</g>
</g>
</svg>
