<?xml version="1.0" encoding="UTF-8" standalone="no"?>
<!DOCTYPE svg PUBLIC "-//W3C//DTD SVG 1.1//EN"
 "http://www.w3.org/Graphics/SVG/1.1/DTD/svg11.dtd">
<!-- Generated by graphviz version 2.40.1 (20161225.0304)
 -->
<!-- Title: SvtxTrack::get_ndf Pages: 1 -->
<svg width="893pt" height="594pt"
 viewBox="0.00 0.00 893.00 594.00" xmlns="http://www.w3.org/2000/svg" xmlns:xlink="http://www.w3.org/1999/xlink">
<g id="graph0" class="graph" transform="scale(1 1) rotate(0) translate(4 590)">
<title>SvtxTrack::get_ndf</title>
<!-- Node1 -->
<g id="node1" class="node">
<title>Node1</title>
<polygon fill="#bfbfbf" stroke="#000000" points="0,-192.5 0,-212.5 110,-212.5 110,-192.5 0,-192.5"/>
<text text-anchor="middle" x="55" y="-199.5" font-family="FreeSans" font-size="10.00" fill="#000000">SvtxTrack::get_ndf</text>
</g>
<!-- Node2 -->
<g id="node2" class="node">
<title>Node2</title>
<g id="a_node2"><a xlink:href="../../db/de4/classSvtxTrack__v1.html#aa861ce33f34cd449c2509118b480d638" target="_top" xlink:title="copy content from base class">
<polygon fill="none" stroke="#000000" points="160,-469.5 160,-489.5 300,-489.5 300,-469.5 160,-469.5"/>
<text text-anchor="middle" x="230" y="-476.5" font-family="FreeSans" font-size="10.00" fill="#000000">SvtxTrack_v1::CopyFrom</text>
</a>
</g>
</g>
<!-- Node1&#45;&gt;Node2 -->
<g id="edge1" class="edge">
<title>Node1&#45;&gt;Node2</title>
<path fill="none" stroke="#191970" d="M64.13,-221.9096C79.4982,-253.9695 112.1841,-319.6025 146,-371.5 170.7683,-409.5121 205.3368,-450.9219 221.2943,-469.4997"/>
<polygon fill="#191970" stroke="#191970" points="67.2249,-220.2679 59.7694,-212.7403 60.9034,-223.2742 67.2249,-220.2679"/>
</g>
<!-- Node9 -->
<g id="node9" class="node">
<title>Node9</title>
<g id="a_node9"><a xlink:href="../../d5/d0b/classSvtxTrack__v2.html#a474be6b62ed7f9138b40feb07542b2be" target="_top" xlink:title="copy content from base class">
<polygon fill="none" stroke="#000000" points="160,-341.5 160,-361.5 300,-361.5 300,-341.5 160,-341.5"/>
<text text-anchor="middle" x="230" y="-348.5" font-family="FreeSans" font-size="10.00" fill="#000000">SvtxTrack_v2::CopyFrom</text>
</a>
</g>
</g>
<!-- Node1&#45;&gt;Node9 -->
<g id="edge8" class="edge">
<title>Node1&#45;&gt;Node9</title>
<path fill="none" stroke="#191970" d="M66.542,-221.0544C82.116,-244.8467 111.8726,-286.1687 146,-312.5 162.2942,-325.072 183.2942,-334.822 200.2207,-341.429"/>
<polygon fill="#191970" stroke="#191970" points="69.4552,-219.1133 61.1127,-212.5823 63.5615,-222.8902 69.4552,-219.1133"/>
</g>
<!-- Node14 -->
<g id="node14" class="node">
<title>Node14</title>
<g id="a_node14"><a xlink:href="../../d6/d11/classSvtxEvaluator.html#ace95fef2b7b4ad8b797f6695e053dd6e" target="_top" xlink:title="dump the evaluator information into ntuple for external analysis">
<polygon fill="none" stroke="#000000" points="159.5,-270.5 159.5,-302.5 300.5,-302.5 300.5,-270.5 159.5,-270.5"/>
<text text-anchor="start" x="167.5" y="-289.5" font-family="FreeSans" font-size="10.00" fill="#000000">SvtxEvaluator::fillOutput</text>
<text text-anchor="middle" x="230" y="-277.5" font-family="FreeSans" font-size="10.00" fill="#000000">Ntuples</text>
</a>
</g>
</g>
<!-- Node1&#45;&gt;Node14 -->
<g id="edge13" class="edge">
<title>Node1&#45;&gt;Node14</title>
<path fill="none" stroke="#191970" d="M76.3503,-218.864C94.174,-231.8895 120.6672,-249.813 146,-261.5 153.1844,-264.8144 160.9159,-267.8139 168.6759,-270.4895"/>
<polygon fill="#191970" stroke="#191970" points="77.9847,-215.7176 67.8719,-212.5579 73.807,-221.3344 77.9847,-215.7176"/>
</g>
<!-- Node16 -->
<g id="node16" class="node">
<title>Node16</title>
<g id="a_node16"><a xlink:href="../../d0/da9/classAnaTutorial.html#a54c32a62e705c4464d9652e91c7d46fa" target="_top" xlink:title="Methods for grabbing the data.">
<polygon fill="none" stroke="#000000" points="165.5,-231.5 165.5,-251.5 294.5,-251.5 294.5,-231.5 165.5,-231.5"/>
<text text-anchor="middle" x="230" y="-238.5" font-family="FreeSans" font-size="10.00" fill="#000000">AnaTutorial::getTracks</text>
</a>
</g>
</g>
<!-- Node1&#45;&gt;Node16 -->
<g id="edge15" class="edge">
<title>Node1&#45;&gt;Node16</title>
<path fill="none" stroke="#191970" d="M109.828,-214.7188C134.038,-220.1142 162.1445,-226.3779 185.0859,-231.4906"/>
<polygon fill="#191970" stroke="#191970" points="110.5888,-211.3026 100.0668,-212.5435 109.0661,-218.135 110.5888,-211.3026"/>
</g>
<!-- Node18 -->
<g id="node18" class="node">
<title>Node18</title>
<g id="a_node18"><a xlink:href="../../da/d3b/classKFParticle__Tools.html#a2e61ebde2a928a61144a1561bc1f0ca8" target="_top" xlink:title="Return a KFPTrack from track vector and covariance matrix. No mass or vertex constraints.">
<polygon fill="none" stroke="#000000" points="146,-192.5 146,-212.5 314,-212.5 314,-192.5 146,-192.5"/>
<text text-anchor="middle" x="230" y="-199.5" font-family="FreeSans" font-size="10.00" fill="#000000">KFParticle_Tools::makeParticle</text>
</a>
</g>
</g>
<!-- Node1&#45;&gt;Node18 -->
<g id="edge17" class="edge">
<title>Node1&#45;&gt;Node18</title>
<path fill="none" stroke="#191970" d="M120.6449,-202.5C128.8916,-202.5 137.415,-202.5 145.8958,-202.5"/>
<polygon fill="#191970" stroke="#191970" points="120.3711,-199.0001 110.3711,-202.5 120.3711,-206.0001 120.3711,-199.0001"/>
</g>
<!-- Node22 -->
<g id="node22" class="node">
<title>Node22</title>
<g id="a_node22"><a xlink:href="../../d4/dd5/classPHTrackCleaner.html#af4904c348a0065840c7ca1ec7bf07eea" target="_top" xlink:title="PHTrackCleaner::process\l_event">
<polygon fill="none" stroke="#000000" points="159.5,-141.5 159.5,-173.5 300.5,-173.5 300.5,-141.5 159.5,-141.5"/>
<text text-anchor="start" x="167.5" y="-160.5" font-family="FreeSans" font-size="10.00" fill="#000000">PHTrackCleaner::process</text>
<text text-anchor="middle" x="230" y="-148.5" font-family="FreeSans" font-size="10.00" fill="#000000">_event</text>
</a>
</g>
</g>
<!-- Node1&#45;&gt;Node22 -->
<g id="edge21" class="edge">
<title>Node1&#45;&gt;Node22</title>
<path fill="none" stroke="#191970" d="M104.2246,-189.8422C123.866,-184.7916 146.7121,-178.9169 167.5024,-173.5708"/>
<polygon fill="#191970" stroke="#191970" points="103.0867,-186.5209 94.2734,-192.4011 104.83,-193.3004 103.0867,-186.5209"/>
</g>
<!-- Node23 -->
<g id="node23" class="node">
<title>Node23</title>
<g id="a_node23"><a xlink:href="../../db/d92/classPHTrackSelector.html#a38c41d12da59314fd4b83f5e1dc3496c" target="_top" xlink:title="PHTrackSelector::process\l_event">
<polygon fill="none" stroke="#000000" points="158.5,-90.5 158.5,-122.5 301.5,-122.5 301.5,-90.5 158.5,-90.5"/>
<text text-anchor="start" x="166.5" y="-109.5" font-family="FreeSans" font-size="10.00" fill="#000000">PHTrackSelector::process</text>
<text text-anchor="middle" x="230" y="-97.5" font-family="FreeSans" font-size="10.00" fill="#000000">_event</text>
</a>
</g>
</g>
<!-- Node1&#45;&gt;Node23 -->
<g id="edge22" class="edge">
<title>Node1&#45;&gt;Node23</title>
<path fill="none" stroke="#191970" d="M73.3222,-185.2111C90.7993,-169.534 118.4704,-146.76 146,-132.5 153.1843,-128.7786 160.9943,-125.4837 168.8629,-122.5982"/>
<polygon fill="#191970" stroke="#191970" points="70.623,-182.9366 65.6066,-192.2686 75.3477,-188.1017 70.623,-182.9366"/>
</g>
<!-- Node24 -->
<g id="node24" class="node">
<title>Node24</title>
<g id="a_node24"><a xlink:href="../../d5/daa/classPHRaveVertexing.html#ade0da1a90e1049f199a249e87a72d793" target="_top" xlink:title="Process Event, called for each event.">
<polygon fill="none" stroke="#000000" points="353,-23.5 353,-55.5 502,-55.5 502,-23.5 353,-23.5"/>
<text text-anchor="start" x="361" y="-42.5" font-family="FreeSans" font-size="10.00" fill="#000000">PHRaveVertexing::process</text>
<text text-anchor="middle" x="427.5" y="-30.5" font-family="FreeSans" font-size="10.00" fill="#000000">_event</text>
</a>
</g>
</g>
<!-- Node1&#45;&gt;Node24 -->
<g id="edge23" class="edge">
<title>Node1&#45;&gt;Node24</title>
<path fill="none" stroke="#191970" d="M63.7473,-182.832C77.1534,-155.2025 105.5472,-105.5862 146,-81.5 179.9652,-61.2766 281.4348,-49.9262 352.7607,-44.2573"/>
<polygon fill="#191970" stroke="#191970" points="60.4111,-181.7041 59.3492,-192.2456 66.7531,-184.6671 60.4111,-181.7041"/>
</g>
<!-- Node25 -->
<g id="node25" class="node">
<title>Node25</title>
<g id="a_node25"><a xlink:href="../../d5/daa/classPHRaveVertexing.html#af3ca2c60b8b69efdf6fdaf781f19948c" target="_top" xlink:title="PHRaveVertexing::Translate\lSvtxToGenFitTrack">
<polygon fill="none" stroke="#000000" points="152,-.5 152,-32.5 308,-32.5 308,-.5 152,-.5"/>
<text text-anchor="start" x="160" y="-19.5" font-family="FreeSans" font-size="10.00" fill="#000000">PHRaveVertexing::Translate</text>
<text text-anchor="middle" x="230" y="-7.5" font-family="FreeSans" font-size="10.00" fill="#000000">SvtxToGenFitTrack</text>
</a>
</g>
</g>
<!-- Node1&#45;&gt;Node25 -->
<g id="edge24" class="edge">
<title>Node1&#45;&gt;Node25</title>
<path fill="none" stroke="#191970" d="M61.7106,-182.4125C73.6252,-149.6757 101.4917,-84.7408 146,-47.5 153.1532,-41.5148 161.5676,-36.6323 170.259,-32.6644"/>
<polygon fill="#191970" stroke="#191970" points="58.2871,-181.5989 58.2806,-192.1937 64.8927,-183.9154 58.2871,-181.5989"/>
</g>
<!-- Node3 -->
<g id="node3" class="node">
<title>Node3</title>
<g id="a_node3"><a xlink:href="../../d9/da8/classSvtxTrack__FastSim.html#a2bc3722623a0231579fd0509b6920f6f" target="_top" xlink:title="copy content from base class">
<polygon fill="none" stroke="#000000" points="370,-528.5 370,-560.5 485,-560.5 485,-528.5 370,-528.5"/>
<text text-anchor="start" x="378" y="-547.5" font-family="FreeSans" font-size="10.00" fill="#000000">SvtxTrack_FastSim::</text>
<text text-anchor="middle" x="427.5" y="-535.5" font-family="FreeSans" font-size="10.00" fill="#000000">CopyFrom</text>
</a>
</g>
</g>
<!-- Node2&#45;&gt;Node3 -->
<g id="edge2" class="edge">
<title>Node2&#45;&gt;Node3</title>
<path fill="none" stroke="#191970" d="M269.6267,-492.8162C292.9975,-500.643 323.1601,-510.6979 350,-519.5 358.8662,-522.4077 368.312,-525.4777 377.4492,-528.4332"/>
<polygon fill="#191970" stroke="#191970" points="270.6499,-489.4679 260.056,-489.6085 268.4253,-496.105 270.6499,-489.4679"/>
</g>
<!-- Node7 -->
<g id="node7" class="node">
<title>Node7</title>
<g id="a_node7"><a xlink:href="../../db/de4/classSvtxTrack__v1.html#a79242857295db7b0c94f6c153f221fa9" target="_top" xlink:title="SvtxTrack_v1::SvtxTrack_v1">
<polygon fill="none" stroke="#000000" points="350,-489.5 350,-509.5 505,-509.5 505,-489.5 350,-489.5"/>
<text text-anchor="middle" x="427.5" y="-496.5" font-family="FreeSans" font-size="10.00" fill="#000000">SvtxTrack_v1::SvtxTrack_v1</text>
</a>
</g>
</g>
<!-- Node2&#45;&gt;Node7 -->
<g id="edge6" class="edge">
<title>Node2&#45;&gt;Node7</title>
<path fill="none" stroke="#191970" d="M310.4902,-487.6509C323.4763,-488.966 336.8989,-490.3252 349.8171,-491.6334"/>
<polygon fill="#191970" stroke="#191970" points="310.489,-484.133 300.1872,-486.6076 309.7837,-491.0973 310.489,-484.133"/>
</g>
<!-- Node8 -->
<g id="node8" class="node">
<title>Node8</title>
<g id="a_node8"><a xlink:href="../../db/de4/classSvtxTrack__v1.html#adf646da41b9bae3f630d616f7ede88f0" target="_top" xlink:title="SvtxTrack_v1::operator=">
<polygon fill="none" stroke="#000000" points="357.5,-450.5 357.5,-470.5 497.5,-470.5 497.5,-450.5 357.5,-450.5"/>
<text text-anchor="middle" x="427.5" y="-457.5" font-family="FreeSans" font-size="10.00" fill="#000000">SvtxTrack_v1::operator=</text>
</a>
</g>
</g>
<!-- Node2&#45;&gt;Node8 -->
<g id="edge7" class="edge">
<title>Node2&#45;&gt;Node8</title>
<path fill="none" stroke="#191970" d="M310.2934,-471.7756C325.8368,-470.2803 342.0129,-468.7241 357.2063,-467.2624"/>
<polygon fill="#191970" stroke="#191970" points="309.8061,-468.3062 300.1872,-472.7478 310.4764,-475.274 309.8061,-468.3062"/>
</g>
<!-- Node4 -->
<g id="node4" class="node">
<title>Node4</title>
<g id="a_node4"><a xlink:href="../../d9/da8/classSvtxTrack__FastSim.html#adb2b83ccc7650e24bb8721167f777a8b" target="_top" xlink:title="SvtxTrack_FastSim::\lSvtxTrack_FastSim">
<polygon fill="none" stroke="#000000" points="571,-553.5 571,-585.5 686,-585.5 686,-553.5 571,-553.5"/>
<text text-anchor="start" x="579" y="-572.5" font-family="FreeSans" font-size="10.00" fill="#000000">SvtxTrack_FastSim::</text>
<text text-anchor="middle" x="628.5" y="-560.5" font-family="FreeSans" font-size="10.00" fill="#000000">SvtxTrack_FastSim</text>
</a>
</g>
</g>
<!-- Node3&#45;&gt;Node4 -->
<g id="edge3" class="edge">
<title>Node3&#45;&gt;Node4</title>
<path fill="none" stroke="#191970" d="M495.08,-552.9055C519.6798,-555.9651 547.2378,-559.3928 570.8931,-562.335"/>
<polygon fill="#191970" stroke="#191970" points="495.4541,-549.4251 485.0985,-551.664 494.59,-556.3716 495.4541,-549.4251"/>
</g>
<!-- Node5 -->
<g id="node5" class="node">
<title>Node5</title>
<g id="a_node5"><a xlink:href="../../d2/d33/exceptionSvtxTrack__FastSim__v1.html#a38487e81fc82621a7455649811c2015f" target="_top" xlink:title="copy content from base class">
<polygon fill="none" stroke="#000000" points="565.5,-502.5 565.5,-534.5 691.5,-534.5 691.5,-502.5 565.5,-502.5"/>
<text text-anchor="start" x="573.5" y="-521.5" font-family="FreeSans" font-size="10.00" fill="#000000">SvtxTrack_FastSim_v1</text>
<text text-anchor="middle" x="628.5" y="-509.5" font-family="FreeSans" font-size="10.00" fill="#000000">::CopyFrom</text>
</a>
</g>
</g>
<!-- Node3&#45;&gt;Node5 -->
<g id="edge4" class="edge">
<title>Node3&#45;&gt;Node5</title>
<path fill="none" stroke="#191970" d="M495.295,-535.7305C517.9086,-532.8054 543.0017,-529.5595 565.2558,-526.6808"/>
<polygon fill="#191970" stroke="#191970" points="494.5669,-532.2954 485.0985,-537.0494 495.4649,-539.2376 494.5669,-532.2954"/>
</g>
<!-- Node6 -->
<g id="node6" class="node">
<title>Node6</title>
<g id="a_node6"><a xlink:href="../../d2/d33/exceptionSvtxTrack__FastSim__v1.html#a94b25df99dacff4dabf7442282a9a087" target="_top" xlink:title="SvtxTrack_FastSim_v1\l::SvtxTrack_FastSim_v1">
<polygon fill="none" stroke="#000000" points="752,-502.5 752,-534.5 885,-534.5 885,-502.5 752,-502.5"/>
<text text-anchor="start" x="760" y="-521.5" font-family="FreeSans" font-size="10.00" fill="#000000">SvtxTrack_FastSim_v1</text>
<text text-anchor="middle" x="818.5" y="-509.5" font-family="FreeSans" font-size="10.00" fill="#000000">::SvtxTrack_FastSim_v1</text>
</a>
</g>
</g>
<!-- Node5&#45;&gt;Node6 -->
<g id="edge5" class="edge">
<title>Node5&#45;&gt;Node6</title>
<path fill="none" stroke="#191970" d="M701.6318,-518.5C718.1223,-518.5 735.5424,-518.5 751.7547,-518.5"/>
<polygon fill="#191970" stroke="#191970" points="701.5034,-515.0001 691.5033,-518.5 701.5033,-522.0001 701.5034,-515.0001"/>
</g>
<!-- Node10 -->
<g id="node10" class="node">
<title>Node10</title>
<g id="a_node10"><a xlink:href="../../df/dc1/exceptionSvtxTrack__FastSim__v2.html#a1c25bcc7d682a7358e6abd92b098dd58" target="_top" xlink:title="copy content from base class">
<polygon fill="none" stroke="#000000" points="364.5,-399.5 364.5,-431.5 490.5,-431.5 490.5,-399.5 364.5,-399.5"/>
<text text-anchor="start" x="372.5" y="-418.5" font-family="FreeSans" font-size="10.00" fill="#000000">SvtxTrack_FastSim_v2</text>
<text text-anchor="middle" x="427.5" y="-406.5" font-family="FreeSans" font-size="10.00" fill="#000000">::CopyFrom</text>
</a>
</g>
</g>
<!-- Node9&#45;&gt;Node10 -->
<g id="edge9" class="edge">
<title>Node9&#45;&gt;Node10</title>
<path fill="none" stroke="#191970" d="M270.6096,-364.7225C293.8509,-372.2838 323.5583,-381.9385 350,-390.5 358.8771,-393.3743 368.3281,-396.4282 377.4671,-399.3781"/>
<polygon fill="#191970" stroke="#191970" points="271.6655,-361.3856 261.0733,-361.6194 269.4995,-368.042 271.6655,-361.3856"/>
</g>
<!-- Node12 -->
<g id="node12" class="node">
<title>Node12</title>
<g id="a_node12"><a xlink:href="../../d5/d0b/classSvtxTrack__v2.html#a832abfcf3ca230a1cbe82cc5222fc951" target="_top" xlink:title="SvtxTrack_v2::SvtxTrack_v2">
<polygon fill="none" stroke="#000000" points="350,-360.5 350,-380.5 505,-380.5 505,-360.5 350,-360.5"/>
<text text-anchor="middle" x="427.5" y="-367.5" font-family="FreeSans" font-size="10.00" fill="#000000">SvtxTrack_v2::SvtxTrack_v2</text>
</a>
</g>
</g>
<!-- Node9&#45;&gt;Node12 -->
<g id="edge11" class="edge">
<title>Node9&#45;&gt;Node12</title>
<path fill="none" stroke="#191970" d="M310.4902,-359.2434C323.4763,-360.4927 336.8989,-361.7839 349.8171,-363.0267"/>
<polygon fill="#191970" stroke="#191970" points="310.4764,-355.726 300.1872,-358.2522 309.8061,-362.6938 310.4764,-355.726"/>
</g>
<!-- Node13 -->
<g id="node13" class="node">
<title>Node13</title>
<g id="a_node13"><a xlink:href="../../d5/d0b/classSvtxTrack__v2.html#a928e2eee357176a53120057c3fc757eb" target="_top" xlink:title="SvtxTrack_v2::operator=">
<polygon fill="none" stroke="#000000" points="357.5,-321.5 357.5,-341.5 497.5,-341.5 497.5,-321.5 357.5,-321.5"/>
<text text-anchor="middle" x="427.5" y="-328.5" font-family="FreeSans" font-size="10.00" fill="#000000">SvtxTrack_v2::operator=</text>
</a>
</g>
</g>
<!-- Node9&#45;&gt;Node13 -->
<g id="edge12" class="edge">
<title>Node9&#45;&gt;Node13</title>
<path fill="none" stroke="#191970" d="M310.2934,-343.369C325.8368,-341.795 342.0129,-340.1569 357.2063,-338.6184"/>
<polygon fill="#191970" stroke="#191970" points="309.7837,-339.9026 300.1872,-344.3924 310.489,-346.867 309.7837,-339.9026"/>
</g>
<!-- Node11 -->
<g id="node11" class="node">
<title>Node11</title>
<g id="a_node11"><a xlink:href="../../df/dc1/exceptionSvtxTrack__FastSim__v2.html#aba417f768f045e6d0e1139feb8af596d" target="_top" xlink:title="SvtxTrack_FastSim_v2\l::SvtxTrack_FastSim_v2">
<polygon fill="none" stroke="#000000" points="562,-399.5 562,-431.5 695,-431.5 695,-399.5 562,-399.5"/>
<text text-anchor="start" x="570" y="-418.5" font-family="FreeSans" font-size="10.00" fill="#000000">SvtxTrack_FastSim_v2</text>
<text text-anchor="middle" x="628.5" y="-406.5" font-family="FreeSans" font-size="10.00" fill="#000000">::SvtxTrack_FastSim_v2</text>
</a>
</g>
</g>
<!-- Node10&#45;&gt;Node11 -->
<g id="edge10" class="edge">
<title>Node10&#45;&gt;Node11</title>
<path fill="none" stroke="#191970" d="M500.5494,-415.5C520.5856,-415.5 542.1983,-415.5 561.8546,-415.5"/>
<polygon fill="#191970" stroke="#191970" points="500.5462,-412.0001 490.5462,-415.5 500.5461,-419.0001 500.5462,-412.0001"/>
</g>
<!-- Node15 -->
<g id="node15" class="node">
<title>Node15</title>
<g id="a_node15"><a xlink:href="../../d6/d11/classSvtxEvaluator.html#a1eb230f92b6f2cabb175f1349697200d" target="_top" xlink:title="SvtxEvaluator::process\l_event">
<polygon fill="none" stroke="#000000" points="361.5,-270.5 361.5,-302.5 493.5,-302.5 493.5,-270.5 361.5,-270.5"/>
<text text-anchor="start" x="369.5" y="-289.5" font-family="FreeSans" font-size="10.00" fill="#000000">SvtxEvaluator::process</text>
<text text-anchor="middle" x="427.5" y="-277.5" font-family="FreeSans" font-size="10.00" fill="#000000">_event</text>
</a>
</g>
</g>
<!-- Node14&#45;&gt;Node15 -->
<g id="edge14" class="edge">
<title>Node14&#45;&gt;Node15</title>
<path fill="none" stroke="#191970" d="M311.0288,-286.5C327.7202,-286.5 345.1098,-286.5 361.2053,-286.5"/>
<polygon fill="#191970" stroke="#191970" points="310.7442,-283.0001 300.7442,-286.5 310.7442,-290.0001 310.7442,-283.0001"/>
</g>
<!-- Node17 -->
<g id="node17" class="node">
<title>Node17</title>
<g id="a_node17"><a xlink:href="../../d0/da9/classAnaTutorial.html#a3b64c061aaffaf4a42631434fb7eb6f9" target="_top" xlink:title="SubsysReco event processing method.">
<polygon fill="none" stroke="#000000" points="367.5,-219.5 367.5,-251.5 487.5,-251.5 487.5,-219.5 367.5,-219.5"/>
<text text-anchor="start" x="375.5" y="-238.5" font-family="FreeSans" font-size="10.00" fill="#000000">AnaTutorial::process</text>
<text text-anchor="middle" x="427.5" y="-226.5" font-family="FreeSans" font-size="10.00" fill="#000000">_event</text>
</a>
</g>
</g>
<!-- Node16&#45;&gt;Node17 -->
<g id="edge16" class="edge">
<title>Node16&#45;&gt;Node17</title>
<path fill="none" stroke="#191970" d="M304.696,-239.2308C325.4027,-238.6017 347.6119,-237.927 367.3719,-237.3267"/>
<polygon fill="#191970" stroke="#191970" points="304.558,-235.7332 294.6689,-239.5354 304.7706,-242.73 304.558,-235.7332"/>
</g>
<!-- Node19 -->
<g id="node19" class="node">
<title>Node19</title>
<g id="a_node19"><a xlink:href="../../da/d3b/classKFParticle__Tools.html#ac2b952856fc1320aeafdd53a8c1afbcb" target="_top" xlink:title="KFParticle_Tools::makeAll\lDaughterParticles">
<polygon fill="none" stroke="#000000" points="356,-168.5 356,-200.5 499,-200.5 499,-168.5 356,-168.5"/>
<text text-anchor="start" x="364" y="-187.5" font-family="FreeSans" font-size="10.00" fill="#000000">KFParticle_Tools::makeAll</text>
<text text-anchor="middle" x="427.5" y="-175.5" font-family="FreeSans" font-size="10.00" fill="#000000">DaughterParticles</text>
</a>
</g>
</g>
<!-- Node18&#45;&gt;Node19 -->
<g id="edge18" class="edge">
<title>Node18&#45;&gt;Node19</title>
<path fill="none" stroke="#191970" d="M324.2438,-193.9107C334.9218,-192.9375 345.6701,-191.9579 355.988,-191.0175"/>
<polygon fill="#191970" stroke="#191970" points="323.6852,-190.447 314.0442,-194.8403 324.3206,-197.4181 323.6852,-190.447"/>
</g>
<!-- Node20 -->
<g id="node20" class="node">
<title>Node20</title>
<g id="a_node20"><a xlink:href="../../de/d4a/classKFParticle__eventReconstruction.html#a8616310d436b8f97085f3c06114e2899" target="_top" xlink:title="KFParticle_eventReconstruction\l::createDecay">
<polygon fill="none" stroke="#000000" points="541,-168.5 541,-200.5 716,-200.5 716,-168.5 541,-168.5"/>
<text text-anchor="start" x="549" y="-187.5" font-family="FreeSans" font-size="10.00" fill="#000000">KFParticle_eventReconstruction</text>
<text text-anchor="middle" x="628.5" y="-175.5" font-family="FreeSans" font-size="10.00" fill="#000000">::createDecay</text>
</a>
</g>
</g>
<!-- Node19&#45;&gt;Node20 -->
<g id="edge19" class="edge">
<title>Node19&#45;&gt;Node20</title>
<path fill="none" stroke="#191970" d="M509.4865,-184.5C519.8669,-184.5 530.5202,-184.5 540.9825,-184.5"/>
<polygon fill="#191970" stroke="#191970" points="509.2144,-181.0001 499.2143,-184.5 509.2143,-188.0001 509.2144,-181.0001"/>
</g>
<!-- Node21 -->
<g id="node21" class="node">
<title>Node21</title>
<g id="a_node21"><a xlink:href="../../d5/d72/classKFParticle__sPHENIX.html#a7e5ad7cf075fbf8e68a781e7721fec81" target="_top" xlink:title="KFParticle_sPHENIX\l::process_event">
<polygon fill="none" stroke="#000000" points="761.5,-168.5 761.5,-200.5 875.5,-200.5 875.5,-168.5 761.5,-168.5"/>
<text text-anchor="start" x="769.5" y="-187.5" font-family="FreeSans" font-size="10.00" fill="#000000">KFParticle_sPHENIX</text>
<text text-anchor="middle" x="818.5" y="-175.5" font-family="FreeSans" font-size="10.00" fill="#000000">::process_event</text>
</a>
</g>
</g>
<!-- Node20&#45;&gt;Node21 -->
<g id="edge20" class="edge">
<title>Node20&#45;&gt;Node21</title>
<path fill="none" stroke="#191970" d="M726.3712,-184.5C738.3996,-184.5 750.3665,-184.5 761.4998,-184.5"/>
<polygon fill="#191970" stroke="#191970" points="726.2699,-181.0001 716.2699,-184.5 726.2699,-188.0001 726.2699,-181.0001"/>
</g>
<!-- Node25&#45;&gt;Node24 -->
<g id="edge25" class="edge">
<title>Node25&#45;&gt;Node24</title>
<path fill="none" stroke="#191970" d="M318.1805,-26.7691C329.7764,-28.1195 341.5688,-29.4928 352.9085,-30.8134"/>
<polygon fill="#191970" stroke="#191970" points="318.395,-23.2705 308.0572,-25.5902 317.5852,-30.2235 318.395,-23.2705"/>
</g>
</g>
</svg>
