<?xml version="1.0" encoding="UTF-8" standalone="no"?>
<!DOCTYPE svg PUBLIC "-//W3C//DTD SVG 1.1//EN"
 "http://www.w3.org/Graphics/SVG/1.1/DTD/svg11.dtd">
<!-- Generated by graphviz version 2.40.1 (20161225.0304)
 -->
<!-- Title: kdfinder::export_candidates_json_old Pages: 1 -->
<svg width="912pt" height="527pt"
 viewBox="0.00 0.00 912.00 527.00" xmlns="http://www.w3.org/2000/svg" xmlns:xlink="http://www.w3.org/1999/xlink">
<g id="graph0" class="graph" transform="scale(1 1) rotate(0) translate(4 523)">
<title>kdfinder::export_candidates_json_old</title>
<!-- Node1 -->
<g id="node1" class="node">
<title>Node1</title>
<polygon fill="#bfbfbf" stroke="#000000" points="0,-231.5 0,-263.5 158,-263.5 158,-231.5 0,-231.5"/>
<text text-anchor="start" x="8" y="-250.5" font-family="FreeSans" font-size="10.00" fill="#000000">kdfinder::export_candidates</text>
<text text-anchor="middle" x="79" y="-238.5" font-family="FreeSans" font-size="10.00" fill="#000000">_json_old</text>
</g>
<!-- Node2 -->
<g id="node2" class="node">
<title>Node2</title>
<g id="a_node2"><a xlink:href="../../df/dcd/PHTpcSeedFinder_8cc.html#a3eacbae00cdf9e4cc3029aa577949730" target="_top" xlink:title="round">
<polygon fill="none" stroke="#000000" points="259.5,-276.5 259.5,-296.5 304.5,-296.5 304.5,-276.5 259.5,-276.5"/>
<text text-anchor="middle" x="282" y="-283.5" font-family="FreeSans" font-size="10.00" fill="#000000">round</text>
</a>
</g>
</g>
<!-- Node1&#45;&gt;Node2 -->
<g id="edge1" class="edge">
<title>Node1&#45;&gt;Node2</title>
<path fill="none" stroke="#191970" d="M158.0664,-262.6901C189.8222,-268.791 224.6619,-275.4843 249.2925,-280.2163"/>
<polygon fill="#191970" stroke="#191970" points="248.7039,-283.6671 259.1847,-282.1168 250.0246,-276.7929 248.7039,-283.6671"/>
</g>
<!-- Node3 -->
<g id="node3" class="node">
<title>Node3</title>
<g id="a_node3"><a xlink:href="../../d8/d44/namespaceActs_1_1PrimitivesView3DTest.html#ab51e63c03c55aac604dba9c1cd26ac85" target="_top" xlink:title="Acts::PrimitivesView3DTest::run">
<polygon fill="none" stroke="#000000" points="194,-237.5 194,-257.5 370,-257.5 370,-237.5 194,-237.5"/>
<text text-anchor="middle" x="282" y="-244.5" font-family="FreeSans" font-size="10.00" fill="#000000">Acts::PrimitivesView3DTest::run</text>
</a>
</g>
</g>
<!-- Node1&#45;&gt;Node3 -->
<g id="edge2" class="edge">
<title>Node1&#45;&gt;Node3</title>
<path fill="none" stroke="#191970" d="M158.0664,-247.5C166.468,-247.5 175.0855,-247.5 183.6727,-247.5"/>
<polygon fill="#191970" stroke="#191970" points="183.7247,-251.0001 193.7247,-247.5 183.7247,-244.0001 183.7247,-251.0001"/>
</g>
<!-- Node26 -->
<g id="node26" class="node">
<title>Node26</title>
<g id="a_node26"><a xlink:href="../../da/d0a/CylinderKalman_8cpp.html#ab74daa0c9784c63e060bfb98cc06fbf5" target="_top" xlink:title="sign">
<polygon fill="none" stroke="#000000" points="263.5,-198.5 263.5,-218.5 300.5,-218.5 300.5,-198.5 263.5,-198.5"/>
<text text-anchor="middle" x="282" y="-205.5" font-family="FreeSans" font-size="10.00" fill="#000000">sign</text>
</a>
</g>
</g>
<!-- Node1&#45;&gt;Node26 -->
<g id="edge27" class="edge">
<title>Node1&#45;&gt;Node26</title>
<path fill="none" stroke="#191970" d="M158.0664,-232.3099C191.426,-225.9009 228.1889,-218.8381 252.9445,-214.0821"/>
<polygon fill="#191970" stroke="#191970" points="253.9359,-217.4557 263.0959,-212.1318 252.6151,-210.5814 253.9359,-217.4557"/>
</g>
<!-- Node4 -->
<g id="node4" class="node">
<title>Node4</title>
<g id="a_node4"><a xlink:href="../../d0/d35/classActs_1_1IVisualization3D.html#a5e1197bd19f514313f2642621e43de0e" target="_top" xlink:title="Acts::IVisualization3D\l::clear">
<polygon fill="none" stroke="#000000" points="418.5,-486.5 418.5,-518.5 545.5,-518.5 545.5,-486.5 418.5,-486.5"/>
<text text-anchor="start" x="426.5" y="-505.5" font-family="FreeSans" font-size="10.00" fill="#000000">Acts::IVisualization3D</text>
<text text-anchor="middle" x="482" y="-493.5" font-family="FreeSans" font-size="10.00" fill="#000000">::clear</text>
</a>
</g>
</g>
<!-- Node3&#45;&gt;Node4 -->
<g id="edge3" class="edge">
<title>Node3&#45;&gt;Node4</title>
<path fill="none" stroke="#191970" d="M357.0818,-257.582C361.8425,-260.2541 366.228,-263.5198 370,-267.5 435.1376,-336.2328 344.1751,-405.7728 406,-477.5 407.3263,-479.0387 408.7491,-480.4832 410.253,-481.8392"/>
<polygon fill="#191970" stroke="#191970" points="408.2717,-484.7279 418.3778,-487.9086 412.461,-479.1198 408.2717,-484.7279"/>
</g>
<!-- Node5 -->
<g id="node5" class="node">
<title>Node5</title>
<g id="a_node5"><a xlink:href="../../d2/d3f/structActs_1_1GeometryView3D.html#ad14a942752c9af6f0ff44cc3adbdee5d" target="_top" xlink:title="Acts::GeometryView3D\l::drawArrowBackward">
<polygon fill="none" stroke="#000000" points="415,-435.5 415,-467.5 549,-467.5 549,-435.5 415,-435.5"/>
<text text-anchor="start" x="423" y="-454.5" font-family="FreeSans" font-size="10.00" fill="#000000">Acts::GeometryView3D</text>
<text text-anchor="middle" x="482" y="-442.5" font-family="FreeSans" font-size="10.00" fill="#000000">::drawArrowBackward</text>
</a>
</g>
</g>
<!-- Node3&#45;&gt;Node5 -->
<g id="edge4" class="edge">
<title>Node3&#45;&gt;Node5</title>
<path fill="none" stroke="#191970" d="M356.436,-257.5848C361.4077,-260.2469 366.0134,-263.5101 370,-267.5 421.2128,-318.7546 357.2605,-372.8881 406,-426.5 406.7708,-427.3479 407.5709,-428.1671 408.3976,-428.9586"/>
<polygon fill="#191970" stroke="#191970" points="406.4694,-431.8962 416.4821,-435.3599 410.8148,-426.4082 406.4694,-431.8962"/>
</g>
<!-- Node6 -->
<g id="node6" class="node">
<title>Node6</title>
<g id="a_node6"><a xlink:href="../../d2/d3f/structActs_1_1GeometryView3D.html#a67df89dea7c20fe0e7ecefc50a78c75f" target="_top" xlink:title="Acts::GeometryView3D\l::drawArrowForward">
<polygon fill="none" stroke="#000000" points="415,-384.5 415,-416.5 549,-416.5 549,-384.5 415,-384.5"/>
<text text-anchor="start" x="423" y="-403.5" font-family="FreeSans" font-size="10.00" fill="#000000">Acts::GeometryView3D</text>
<text text-anchor="middle" x="482" y="-391.5" font-family="FreeSans" font-size="10.00" fill="#000000">::drawArrowForward</text>
</a>
</g>
</g>
<!-- Node3&#45;&gt;Node6 -->
<g id="edge5" class="edge">
<title>Node3&#45;&gt;Node6</title>
<path fill="none" stroke="#191970" d="M355.1616,-257.6113C360.5477,-260.2503 365.5885,-263.502 370,-267.5 407.4912,-301.4766 370.1523,-339.7937 406,-375.5 407.0764,-376.5721 408.1995,-377.5983 409.3634,-378.5804"/>
<polygon fill="#191970" stroke="#191970" points="407.4023,-381.4808 417.5742,-384.4446 411.4707,-375.7844 407.4023,-381.4808"/>
</g>
<!-- Node7 -->
<g id="node7" class="node">
<title>Node7</title>
<g id="a_node7"><a xlink:href="../../d2/d3f/structActs_1_1GeometryView3D.html#a3f88095e16b588fdbb353f0e30961d92" target="_top" xlink:title="Acts::GeometryView3D\l::drawArrowsBoth">
<polygon fill="none" stroke="#000000" points="415,-333.5 415,-365.5 549,-365.5 549,-333.5 415,-333.5"/>
<text text-anchor="start" x="423" y="-352.5" font-family="FreeSans" font-size="10.00" fill="#000000">Acts::GeometryView3D</text>
<text text-anchor="middle" x="482" y="-340.5" font-family="FreeSans" font-size="10.00" fill="#000000">::drawArrowsBoth</text>
</a>
</g>
</g>
<!-- Node3&#45;&gt;Node7 -->
<g id="edge6" class="edge">
<title>Node3&#45;&gt;Node7</title>
<path fill="none" stroke="#191970" d="M351.0666,-257.5676C357.7915,-260.1721 364.2434,-263.4295 370,-267.5 394.4647,-284.7991 382.3781,-306.0668 406,-324.5 407.7794,-325.8886 409.6392,-327.2016 411.5619,-328.4431"/>
<polygon fill="#191970" stroke="#191970" points="409.9193,-331.5353 420.3415,-333.4404 413.3821,-325.4518 409.9193,-331.5353"/>
</g>
<!-- Node8 -->
<g id="node8" class="node">
<title>Node8</title>
<g id="a_node8"><a xlink:href="../../db/d35/structActs_1_1EventDataView3D.html#a1bb690374d01bc8e407d603d2a87b7dd" target="_top" xlink:title="Acts::EventDataView3D\l::drawCovarianceAngular">
<polygon fill="none" stroke="#000000" points="409.5,-282.5 409.5,-314.5 554.5,-314.5 554.5,-282.5 409.5,-282.5"/>
<text text-anchor="start" x="417.5" y="-301.5" font-family="FreeSans" font-size="10.00" fill="#000000">Acts::EventDataView3D</text>
<text text-anchor="middle" x="482" y="-289.5" font-family="FreeSans" font-size="10.00" fill="#000000">::drawCovarianceAngular</text>
</a>
</g>
</g>
<!-- Node3&#45;&gt;Node8 -->
<g id="edge7" class="edge">
<title>Node3&#45;&gt;Node8</title>
<path fill="none" stroke="#191970" d="M328.2246,-257.5807C341.7224,-260.6391 356.4784,-264.0941 370,-267.5 385.0058,-271.2797 401.0734,-275.5773 416.2198,-279.7431"/>
<polygon fill="#191970" stroke="#191970" points="415.4483,-283.1611 426.0196,-282.4548 417.3152,-276.4146 415.4483,-283.1611"/>
</g>
<!-- Node12 -->
<g id="node12" class="node">
<title>Node12</title>
<g id="a_node12"><a xlink:href="../../db/d35/structActs_1_1EventDataView3D.html#a5860abf64f67e4e333020160d50ed99b" target="_top" xlink:title="Acts::EventDataView3D\l::drawCovarianceCartesian">
<polygon fill="none" stroke="#000000" points="406,-231.5 406,-263.5 558,-263.5 558,-231.5 406,-231.5"/>
<text text-anchor="start" x="414" y="-250.5" font-family="FreeSans" font-size="10.00" fill="#000000">Acts::EventDataView3D</text>
<text text-anchor="middle" x="482" y="-238.5" font-family="FreeSans" font-size="10.00" fill="#000000">::drawCovarianceCartesian</text>
</a>
</g>
</g>
<!-- Node3&#45;&gt;Node12 -->
<g id="edge11" class="edge">
<title>Node3&#45;&gt;Node12</title>
<path fill="none" stroke="#191970" d="M370.014,-247.5C378.5077,-247.5 387.1184,-247.5 395.5963,-247.5"/>
<polygon fill="#191970" stroke="#191970" points="395.8549,-251.0001 405.8548,-247.5 395.8548,-244.0001 395.8549,-251.0001"/>
</g>
<!-- Node19 -->
<g id="node19" class="node">
<title>Node19</title>
<g id="a_node19"><a xlink:href="../../d2/d3f/structActs_1_1GeometryView3D.html#a76d7fe94393a89a05760f6b80eb6bd31" target="_top" xlink:title="Acts::GeometryView3D\l::drawSegment">
<polygon fill="none" stroke="#000000" points="415,-180.5 415,-212.5 549,-212.5 549,-180.5 415,-180.5"/>
<text text-anchor="start" x="423" y="-199.5" font-family="FreeSans" font-size="10.00" fill="#000000">Acts::GeometryView3D</text>
<text text-anchor="middle" x="482" y="-187.5" font-family="FreeSans" font-size="10.00" fill="#000000">::drawSegment</text>
</a>
</g>
</g>
<!-- Node3&#45;&gt;Node19 -->
<g id="edge20" class="edge">
<title>Node3&#45;&gt;Node19</title>
<path fill="none" stroke="#191970" d="M331.4675,-237.416C344.0711,-234.6833 357.5677,-231.6146 370,-228.5 385.9199,-224.5117 403.0019,-219.8361 418.9094,-215.3098"/>
<polygon fill="#191970" stroke="#191970" points="419.9941,-218.6399 428.6414,-212.5184 418.064,-211.9113 419.9941,-218.6399"/>
</g>
<!-- Node20 -->
<g id="node20" class="node">
<title>Node20</title>
<g id="a_node20"><a xlink:href="../../d2/d3f/structActs_1_1GeometryView3D.html#ab8aad2f0260221fecde781f003510d24" target="_top" xlink:title="Acts::GeometryView3D\l::drawSurface">
<polygon fill="none" stroke="#000000" points="415,-129.5 415,-161.5 549,-161.5 549,-129.5 415,-129.5"/>
<text text-anchor="start" x="423" y="-148.5" font-family="FreeSans" font-size="10.00" fill="#000000">Acts::GeometryView3D</text>
<text text-anchor="middle" x="482" y="-136.5" font-family="FreeSans" font-size="10.00" fill="#000000">::drawSurface</text>
</a>
</g>
</g>
<!-- Node3&#45;&gt;Node20 -->
<g id="edge21" class="edge">
<title>Node3&#45;&gt;Node20</title>
<path fill="none" stroke="#191970" d="M353.2822,-237.3965C359.2045,-235.0082 364.8758,-232.0818 370,-228.5 394.558,-211.3337 382.4875,-190.0725 406,-171.5 408.257,-169.7172 410.6437,-168.0529 413.1244,-166.4996"/>
<polygon fill="#191970" stroke="#191970" points="414.8321,-169.5547 421.8697,-161.6349 411.4293,-163.4374 414.8321,-169.5547"/>
</g>
<!-- Node23 -->
<g id="node23" class="node">
<title>Node23</title>
<g id="a_node23"><a xlink:href="../../dd/d7e/namespaceActs_1_1Test.html#a51c29a20fb018e161cb50c4c3886c981" target="_top" xlink:title="Acts::Test::origin">
<polygon fill="none" stroke="#000000" points="432,-90.5 432,-110.5 532,-110.5 532,-90.5 432,-90.5"/>
<text text-anchor="middle" x="482" y="-97.5" font-family="FreeSans" font-size="10.00" fill="#000000">Acts::Test::origin</text>
</a>
</g>
</g>
<!-- Node3&#45;&gt;Node23 -->
<g id="edge24" class="edge">
<title>Node3&#45;&gt;Node23</title>
<path fill="none" stroke="#191970" d="M356.8285,-237.419C361.5849,-234.9873 366.043,-232.0472 370,-228.5 407.6746,-194.7269 369.0892,-155.1062 406,-120.5 410.7029,-116.0907 416.2588,-112.6278 422.1926,-109.912"/>
<polygon fill="#191970" stroke="#191970" points="423.6839,-113.0884 431.76,-106.2308 421.1701,-106.5553 423.6839,-113.0884"/>
</g>
<!-- Node24 -->
<g id="node24" class="node">
<title>Node24</title>
<g id="a_node24"><a xlink:href="../../dc/de5/PHG4mRICHDetector_8cc.html#a10e6010f5f8222befd1273192d72ddf5" target="_top" xlink:title="start">
<polygon fill="none" stroke="#000000" points="462,-51.5 462,-71.5 502,-71.5 502,-51.5 462,-51.5"/>
<text text-anchor="middle" x="482" y="-58.5" font-family="FreeSans" font-size="10.00" fill="#000000">start</text>
</a>
</g>
</g>
<!-- Node3&#45;&gt;Node24 -->
<g id="edge25" class="edge">
<title>Node3&#45;&gt;Node24</title>
<path fill="none" stroke="#191970" d="M357.9845,-237.327C362.3513,-234.9002 366.415,-231.9876 370,-228.5 418.2129,-181.5963 358.8468,-129.469 406,-81.5 417.8121,-69.4836 435.9149,-64.4065 451.4898,-62.37"/>
<polygon fill="#191970" stroke="#191970" points="452.1345,-65.8247 461.7602,-61.3979 451.4749,-58.8558 452.1345,-65.8247"/>
</g>
<!-- Node25 -->
<g id="node25" class="node">
<title>Node25</title>
<g id="a_node25"><a xlink:href="../../d0/d35/classActs_1_1IVisualization3D.html#ac2b3dc7f88f26a197d48a28d1d85b3d4" target="_top" xlink:title="Acts::IVisualization3D\l::write">
<polygon fill="none" stroke="#000000" points="418.5,-.5 418.5,-32.5 545.5,-32.5 545.5,-.5 418.5,-.5"/>
<text text-anchor="start" x="426.5" y="-19.5" font-family="FreeSans" font-size="10.00" fill="#000000">Acts::IVisualization3D</text>
<text text-anchor="middle" x="482" y="-7.5" font-family="FreeSans" font-size="10.00" fill="#000000">::write</text>
</a>
</g>
</g>
<!-- Node3&#45;&gt;Node25 -->
<g id="edge26" class="edge">
<title>Node3&#45;&gt;Node25</title>
<path fill="none" stroke="#191970" d="M358.5912,-237.2968C362.7551,-234.8683 366.6126,-231.9644 370,-228.5 429.1717,-167.9842 350.0903,-105.0418 406,-41.5 407.3419,-39.9749 408.7785,-38.5425 410.2947,-37.1971"/>
<polygon fill="#191970" stroke="#191970" points="412.4969,-39.9219 418.4677,-31.1697 408.3422,-34.2882 412.4969,-39.9219"/>
</g>
<!-- Node9 -->
<g id="node9" class="node">
<title>Node9</title>
<g id="a_node9"><a xlink:href="../../df/da1/namespaceActs_1_1VectorHelpers.html#a397d5e8143b34171258deef4f9cca9ad" target="_top" xlink:title="Acts::VectorHelpers::phi">
<polygon fill="none" stroke="#000000" points="598.5,-435.5 598.5,-455.5 736.5,-455.5 736.5,-435.5 598.5,-435.5"/>
<text text-anchor="middle" x="667.5" y="-442.5" font-family="FreeSans" font-size="10.00" fill="#000000">Acts::VectorHelpers::phi</text>
</a>
</g>
</g>
<!-- Node8&#45;&gt;Node9 -->
<g id="edge8" class="edge">
<title>Node8&#45;&gt;Node9</title>
<path fill="none" stroke="#191970" d="M544.9163,-314.6241C549.6851,-317.4085 554.1358,-320.6729 558,-324.5 592.1574,-358.3287 558.5714,-394.005 594,-426.5 595.3355,-427.725 596.7397,-428.8731 598.2011,-429.9493"/>
<polygon fill="#191970" stroke="#191970" points="596.7547,-433.1654 607.1204,-435.3574 600.3841,-427.1797 596.7547,-433.1654"/>
</g>
<!-- Node10 -->
<g id="node10" class="node">
<title>Node10</title>
<g id="a_node10"><a xlink:href="../../df/da1/namespaceActs_1_1VectorHelpers.html#a1c1a90bc524259263f553410691dd9ad" target="_top" xlink:title="Acts::VectorHelpers\l::theta">
<polygon fill="none" stroke="#000000" points="609.5,-384.5 609.5,-416.5 725.5,-416.5 725.5,-384.5 609.5,-384.5"/>
<text text-anchor="start" x="617.5" y="-403.5" font-family="FreeSans" font-size="10.00" fill="#000000">Acts::VectorHelpers</text>
<text text-anchor="middle" x="667.5" y="-391.5" font-family="FreeSans" font-size="10.00" fill="#000000">::theta</text>
</a>
</g>
</g>
<!-- Node8&#45;&gt;Node10 -->
<g id="edge9" class="edge">
<title>Node8&#45;&gt;Node10</title>
<path fill="none" stroke="#191970" d="M540.5349,-314.6544C546.684,-317.468 552.6385,-320.73 558,-324.5 578.9515,-339.2321 573.5731,-354.0488 594,-369.5 599.0738,-373.3379 604.6934,-376.7966 610.4995,-379.8887"/>
<polygon fill="#191970" stroke="#191970" points="609.2096,-383.1552 619.7253,-384.4476 612.3107,-376.8796 609.2096,-383.1552"/>
</g>
<!-- Node11 -->
<g id="node11" class="node">
<title>Node11</title>
<g id="a_node11"><a xlink:href="../../dc/de5/PHG4mRICHDetector_8cc.html#aa15fefb6859fb9ca86eb9a588d4f7856" target="_top" xlink:title="theta">
<polygon fill="none" stroke="#000000" points="819.5,-307.5 819.5,-327.5 861.5,-327.5 861.5,-307.5 819.5,-307.5"/>
<text text-anchor="middle" x="840.5" y="-314.5" font-family="FreeSans" font-size="10.00" fill="#000000">theta</text>
</a>
</g>
</g>
<!-- Node8&#45;&gt;Node11 -->
<g id="edge10" class="edge">
<title>Node8&#45;&gt;Node11</title>
<path fill="none" stroke="#191970" d="M525.7713,-314.5633C546.1995,-321.2351 571.0276,-328.1861 594,-331.5 670.7502,-342.5717 762.1246,-331.0038 809.1261,-323.2649"/>
<polygon fill="#191970" stroke="#191970" points="810.0027,-326.6662 819.2741,-321.5386 808.8287,-319.7653 810.0027,-326.6662"/>
</g>
<!-- Node12&#45;&gt;Node11 -->
<g id="edge19" class="edge">
<title>Node12&#45;&gt;Node11</title>
<path fill="none" stroke="#191970" d="M535.1119,-263.5491C542.9345,-266.518 550.7826,-269.8492 558,-273.5 575.3824,-282.2926 575.6482,-291.9679 594,-298.5 667.6836,-324.727 761.3611,-323.244 809.2379,-320.2106"/>
<polygon fill="#191970" stroke="#191970" points="809.5552,-323.6971 819.2863,-319.5071 809.0662,-316.7142 809.5552,-323.6971"/>
</g>
<!-- Node13 -->
<g id="node13" class="node">
<title>Node13</title>
<g id="a_node13"><a xlink:href="../../da/d6e/structActs_1_1detail_1_1FacesHelper.html#a1ad36c75fdd2b14874b287ad561fc567" target="_top" xlink:title="This method words for all convex type surface setups It includes:">
<polygon fill="none" stroke="#000000" points="596,-256.5 596,-288.5 739,-288.5 739,-256.5 596,-256.5"/>
<text text-anchor="start" x="604" y="-275.5" font-family="FreeSans" font-size="10.00" fill="#000000">Acts::detail::FacesHelper</text>
<text text-anchor="middle" x="667.5" y="-263.5" font-family="FreeSans" font-size="10.00" fill="#000000">::convexFaceMesh</text>
</a>
</g>
</g>
<!-- Node12&#45;&gt;Node13 -->
<g id="edge12" class="edge">
<title>Node12&#45;&gt;Node13</title>
<path fill="none" stroke="#191970" d="M558.253,-257.7767C567.2559,-258.99 576.4731,-260.2322 585.5505,-261.4556"/>
<polygon fill="#191970" stroke="#191970" points="585.3428,-264.9592 595.7207,-262.8262 586.2778,-258.0219 585.3428,-264.9592"/>
</g>
<!-- Node14 -->
<g id="node14" class="node">
<title>Node14</title>
<g id="a_node14"><a xlink:href="../../db/d35/structActs_1_1EventDataView3D.html#a0773bc56ca37a99962e14d47356fc17b" target="_top" xlink:title="Acts::EventDataView3D\l::createEllipse">
<polygon fill="none" stroke="#000000" points="599.5,-154.5 599.5,-186.5 735.5,-186.5 735.5,-154.5 599.5,-154.5"/>
<text text-anchor="start" x="607.5" y="-173.5" font-family="FreeSans" font-size="10.00" fill="#000000">Acts::EventDataView3D</text>
<text text-anchor="middle" x="667.5" y="-161.5" font-family="FreeSans" font-size="10.00" fill="#000000">::createEllipse</text>
</a>
</g>
</g>
<!-- Node12&#45;&gt;Node14 -->
<g id="edge13" class="edge">
<title>Node12&#45;&gt;Node14</title>
<path fill="none" stroke="#191970" d="M537.6093,-231.4271C544.6097,-228.7617 551.5658,-225.7817 558,-222.5 575.5818,-213.5327 576.5189,-205.6619 594,-196.5 598.0199,-194.3932 602.2477,-192.3922 606.56,-190.5054"/>
<polygon fill="#191970" stroke="#191970" points="608.1869,-193.6201 616.0874,-186.5609 605.5091,-187.1525 608.1869,-193.6201"/>
</g>
<!-- Node16 -->
<g id="node16" class="node">
<title>Node16</title>
<g id="a_node16"><a xlink:href="../../db/d35/structActs_1_1EventDataView3D.html#a80b2ec87273567eccee4aa65ac4aede9" target="_top" xlink:title="Acts::EventDataView3D\l::decomposeCovariance">
<polygon fill="none" stroke="#000000" points="598.5,-205.5 598.5,-237.5 736.5,-237.5 736.5,-205.5 598.5,-205.5"/>
<text text-anchor="start" x="606.5" y="-224.5" font-family="FreeSans" font-size="10.00" fill="#000000">Acts::EventDataView3D</text>
<text text-anchor="middle" x="667.5" y="-212.5" font-family="FreeSans" font-size="10.00" fill="#000000">::decomposeCovariance</text>
</a>
</g>
</g>
<!-- Node12&#45;&gt;Node16 -->
<g id="edge15" class="edge">
<title>Node12&#45;&gt;Node16</title>
<path fill="none" stroke="#191970" d="M558.253,-236.8122C568.2209,-235.4151 578.4514,-233.9812 588.4639,-232.5778"/>
<polygon fill="#191970" stroke="#191970" points="588.9686,-236.0414 598.386,-231.1871 587.9969,-229.1092 588.9686,-236.0414"/>
</g>
<!-- Node17 -->
<g id="node17" class="node">
<title>Node17</title>
<g id="a_node17"><a xlink:href="../../d2/d3f/structActs_1_1GeometryView3D.html#a77ed7ddb38695d4a658b18f46ee8c873" target="_top" xlink:title="Acts::GeometryView3D\l::drawPolyhedron">
<polygon fill="none" stroke="#000000" points="600.5,-103.5 600.5,-135.5 734.5,-135.5 734.5,-103.5 600.5,-103.5"/>
<text text-anchor="start" x="608.5" y="-122.5" font-family="FreeSans" font-size="10.00" fill="#000000">Acts::GeometryView3D</text>
<text text-anchor="middle" x="667.5" y="-110.5" font-family="FreeSans" font-size="10.00" fill="#000000">::drawPolyhedron</text>
</a>
</g>
</g>
<!-- Node12&#45;&gt;Node17 -->
<g id="edge17" class="edge">
<title>Node12&#45;&gt;Node17</title>
<path fill="none" stroke="#191970" d="M545.2554,-231.4033C549.8345,-228.8573 554.1554,-225.9105 558,-222.5 586.2609,-197.4305 566.0192,-170.8818 594,-145.5 595.7105,-143.9483 597.5196,-142.488 599.4064,-141.1138"/>
<polygon fill="#191970" stroke="#191970" points="601.5214,-143.9179 608.1129,-135.6231 597.7874,-137.9969 601.5214,-143.9179"/>
</g>
<!-- Node15 -->
<g id="node15" class="node">
<title>Node15</title>
<g id="a_node15"><a xlink:href="../../df/de8/cemc_8C.html#a72d4716092b469b4bc1d816359a90e14" target="_top" xlink:title="cos">
<polygon fill="none" stroke="#000000" points="824,-160.5 824,-180.5 857,-180.5 857,-160.5 824,-160.5"/>
<text text-anchor="middle" x="840.5" y="-167.5" font-family="FreeSans" font-size="10.00" fill="#000000">cos</text>
</a>
</g>
</g>
<!-- Node14&#45;&gt;Node15 -->
<g id="edge14" class="edge">
<title>Node14&#45;&gt;Node15</title>
<path fill="none" stroke="#191970" d="M735.8742,-170.5C763.0939,-170.5 792.8208,-170.5 813.6077,-170.5"/>
<polygon fill="#191970" stroke="#191970" points="813.8826,-174.0001 823.8826,-170.5 813.8826,-167.0001 813.8826,-174.0001"/>
</g>
<!-- Node16&#45;&gt;Node11 -->
<g id="edge16" class="edge">
<title>Node16&#45;&gt;Node11</title>
<path fill="none" stroke="#191970" d="M718.8723,-237.6384C726.4365,-240.595 734.0242,-243.8989 741,-247.5 770.4272,-262.6911 801.1333,-285.5333 820.5124,-300.9555"/>
<polygon fill="#191970" stroke="#191970" points="818.3508,-303.7086 828.3307,-307.2658 822.7473,-298.2615 818.3508,-303.7086"/>
</g>
<!-- Node18 -->
<g id="node18" class="node">
<title>Node18</title>
<g id="a_node18"><a xlink:href="../../d0/d35/classActs_1_1IVisualization3D.html#ad25b54d62c7d3ce9da78d0fcdc6fe54b" target="_top" xlink:title="Acts::IVisualization3D\l::faces">
<polygon fill="none" stroke="#000000" points="777,-103.5 777,-135.5 904,-135.5 904,-103.5 777,-103.5"/>
<text text-anchor="start" x="785" y="-122.5" font-family="FreeSans" font-size="10.00" fill="#000000">Acts::IVisualization3D</text>
<text text-anchor="middle" x="840.5" y="-110.5" font-family="FreeSans" font-size="10.00" fill="#000000">::faces</text>
</a>
</g>
</g>
<!-- Node17&#45;&gt;Node18 -->
<g id="edge18" class="edge">
<title>Node17&#45;&gt;Node18</title>
<path fill="none" stroke="#191970" d="M734.8817,-119.5C745.3786,-119.5 756.2709,-119.5 766.8976,-119.5"/>
<polygon fill="#191970" stroke="#191970" points="766.9831,-123.0001 776.9831,-119.5 766.983,-116.0001 766.9831,-123.0001"/>
</g>
<!-- Node21 -->
<g id="node21" class="node">
<title>Node21</title>
<g id="a_node21"><a xlink:href="../../dd/d9e/structActs_1_1Polyhedron.html#a751a373c4c96d6e3b6deaab8c70cf3f9" target="_top" xlink:title="Acts::Polyhedron::move">
<polygon fill="none" stroke="#000000" points="599,-64.5 599,-84.5 736,-84.5 736,-64.5 599,-64.5"/>
<text text-anchor="middle" x="667.5" y="-71.5" font-family="FreeSans" font-size="10.00" fill="#000000">Acts::Polyhedron::move</text>
</a>
</g>
</g>
<!-- Node20&#45;&gt;Node21 -->
<g id="edge22" class="edge">
<title>Node20&#45;&gt;Node21</title>
<path fill="none" stroke="#191970" d="M537.6093,-129.4271C544.6097,-126.7617 551.5658,-123.7817 558,-120.5 575.5818,-111.5327 576.1905,-103.0061 594,-94.5 599.3513,-91.9441 605.0831,-89.67 610.898,-87.6573"/>
<polygon fill="#191970" stroke="#191970" points="612.2548,-90.8979 620.7099,-84.5134 610.1188,-84.2318 612.2548,-90.8979"/>
</g>
<!-- Node22 -->
<g id="node22" class="node">
<title>Node22</title>
<g id="a_node22"><a xlink:href="../../de/d7d/classActs_1_1Surface.html#a8580e9839bf7b3207b3f01b0a822febf" target="_top" xlink:title="Acts::Surface::polyhedron\lRepresentation">
<polygon fill="none" stroke="#000000" points="594,-13.5 594,-45.5 741,-45.5 741,-13.5 594,-13.5"/>
<text text-anchor="start" x="602" y="-32.5" font-family="FreeSans" font-size="10.00" fill="#000000">Acts::Surface::polyhedron</text>
<text text-anchor="middle" x="667.5" y="-20.5" font-family="FreeSans" font-size="10.00" fill="#000000">Representation</text>
</a>
</g>
</g>
<!-- Node20&#45;&gt;Node22 -->
<g id="edge23" class="edge">
<title>Node20&#45;&gt;Node22</title>
<path fill="none" stroke="#191970" d="M544.6515,-129.339C549.4189,-126.8049 553.9448,-123.8786 558,-120.5 583.6712,-99.1123 568.4367,-76.0166 594,-54.5 595.5081,-53.2306 597.0838,-52.0247 598.7144,-50.8791"/>
<polygon fill="#191970" stroke="#191970" points="600.568,-53.8481 607.2666,-45.6396 596.9112,-47.8793 600.568,-53.8481"/>
</g>
</g>
</svg>
