<?xml version="1.0" encoding="UTF-8" standalone="no"?>
<!DOCTYPE svg PUBLIC "-//W3C//DTD SVG 1.1//EN"
 "http://www.w3.org/Graphics/SVG/1.1/DTD/svg11.dtd">
<!-- Generated by graphviz version 2.40.1 (20161225.0304)
 -->
<!-- Title: PHG4CylinderSubsystem::set_color Pages: 1 -->
<svg width="433pt" height="353pt"
 viewBox="0.00 0.00 433.00 353.00" xmlns="http://www.w3.org/2000/svg" xmlns:xlink="http://www.w3.org/1999/xlink">
<g id="graph0" class="graph" transform="scale(1 1) rotate(0) translate(4 349)">
<title>PHG4CylinderSubsystem::set_color</title>
<!-- Node1 -->
<g id="node1" class="node">
<title>Node1</title>
<polygon fill="#bfbfbf" stroke="#000000" points="0,-162.5 0,-194.5 142,-194.5 142,-162.5 0,-162.5"/>
<text text-anchor="start" x="8" y="-181.5" font-family="FreeSans" font-size="10.00" fill="#000000">PHG4CylinderSubsystem</text>
<text text-anchor="middle" x="71" y="-169.5" font-family="FreeSans" font-size="10.00" fill="#000000">::set_color</text>
</g>
<!-- Node2 -->
<g id="node2" class="node">
<title>Node2</title>
<g id="a_node2"><a xlink:href="../../d4/dcd/G4__BlackHole_8C.html#a92bea2631f85d21edb1b7b8df67d0963" target="_top" xlink:title="BlackHole">
<polygon fill="none" stroke="#000000" points="220.5,-324.5 220.5,-344.5 286.5,-344.5 286.5,-324.5 220.5,-324.5"/>
<text text-anchor="middle" x="253.5" y="-331.5" font-family="FreeSans" font-size="10.00" fill="#000000">BlackHole</text>
</a>
</g>
</g>
<!-- Node1&#45;&gt;Node2 -->
<g id="edge1" class="edge">
<title>Node1&#45;&gt;Node2</title>
<path fill="none" stroke="#191970" d="M83.8937,-203.8209C101.0784,-234.9556 134.4517,-287.1465 178,-315.5 190.573,-323.6861 206.4372,-328.3454 220.3746,-330.9972"/>
<polygon fill="#191970" stroke="#191970" points="86.9063,-202.0331 79.087,-194.8842 80.7415,-205.349 86.9063,-202.0331"/>
</g>
<!-- Node4 -->
<g id="node4" class="node">
<title>Node4</title>
<g id="a_node4"><a xlink:href="../../d0/d45/G4__CTD__JLeic_8C.html#a8bdaece7dde005f5d6fc6d52b59c3dac" target="_top" xlink:title="CTD">
<polygon fill="none" stroke="#000000" points="235,-285.5 235,-305.5 272,-305.5 272,-285.5 235,-285.5"/>
<text text-anchor="middle" x="253.5" y="-292.5" font-family="FreeSans" font-size="10.00" fill="#000000">CTD</text>
</a>
</g>
</g>
<!-- Node1&#45;&gt;Node4 -->
<g id="edge3" class="edge">
<title>Node1&#45;&gt;Node4</title>
<path fill="none" stroke="#191970" d="M90.7654,-202.445C110.5607,-224.87 143.0379,-257.6703 178,-276.5 195.9692,-286.1778 219.008,-291.0492 234.8841,-293.4172"/>
<polygon fill="#191970" stroke="#191970" points="93.2538,-199.9718 84.065,-194.6976 87.9592,-204.5508 93.2538,-199.9718"/>
</g>
<!-- Node6 -->
<g id="node6" class="node">
<title>Node6</title>
<g id="a_node6"><a xlink:href="../../d4/d98/G4__DRich__JLeic_8C.html#af9c6b6f8604aabb94c537a87edf7691e" target="_top" xlink:title="DRich">
<polygon fill="none" stroke="#000000" points="231,-246.5 231,-266.5 276,-266.5 276,-246.5 231,-246.5"/>
<text text-anchor="middle" x="253.5" y="-253.5" font-family="FreeSans" font-size="10.00" fill="#000000">DRich</text>
</a>
</g>
</g>
<!-- Node1&#45;&gt;Node6 -->
<g id="edge5" class="edge">
<title>Node1&#45;&gt;Node6</title>
<path fill="none" stroke="#191970" d="M104.6972,-200.0228C125.2365,-212.3847 152.3823,-227.4095 178,-237.5 195.229,-244.2863 215.6402,-249.2506 230.8934,-252.3995"/>
<polygon fill="#191970" stroke="#191970" points="106.3976,-196.9602 96.0392,-194.7344 102.7487,-202.934 106.3976,-196.9602"/>
</g>
<!-- Node7 -->
<g id="node7" class="node">
<title>Node7</title>
<g id="a_node7"><a xlink:href="../../d5/dc7/G4__EndCap__Hadron__JLeic_8C.html#a279edace215d74ef416e694b7541abd6" target="_top" xlink:title="EndCap_Hadron">
<polygon fill="none" stroke="#000000" points="205,-207.5 205,-227.5 302,-227.5 302,-207.5 205,-207.5"/>
<text text-anchor="middle" x="253.5" y="-214.5" font-family="FreeSans" font-size="10.00" fill="#000000">EndCap_Hadron</text>
</a>
</g>
</g>
<!-- Node1&#45;&gt;Node7 -->
<g id="edge7" class="edge">
<title>Node1&#45;&gt;Node7</title>
<path fill="none" stroke="#191970" d="M152.0543,-195.8212C170.6876,-199.8031 189.8951,-203.9077 206.5165,-207.4597"/>
<polygon fill="#191970" stroke="#191970" points="152.5925,-192.3573 142.0818,-193.6901 151.1296,-199.2027 152.5925,-192.3573"/>
</g>
<!-- Node8 -->
<g id="node8" class="node">
<title>Node8</title>
<g id="a_node8"><a xlink:href="../../d7/dc5/Fun4All__G4__FastMom_8C.html#aa295ed6ff4853071573910b32c003229" target="_top" xlink:title="Fun4All_G4_FastMom">
<polygon fill="none" stroke="#000000" points="192,-168.5 192,-188.5 315,-188.5 315,-168.5 192,-168.5"/>
<text text-anchor="middle" x="253.5" y="-175.5" font-family="FreeSans" font-size="10.00" fill="#000000">Fun4All_G4_FastMom</text>
</a>
</g>
</g>
<!-- Node1&#45;&gt;Node8 -->
<g id="edge9" class="edge">
<title>Node1&#45;&gt;Node8</title>
<path fill="none" stroke="#191970" d="M152.1784,-178.5C165.4801,-178.5 179.0708,-178.5 191.8013,-178.5"/>
<polygon fill="#191970" stroke="#191970" points="152.0819,-175.0001 142.0818,-178.5 152.0818,-182.0001 152.0819,-175.0001"/>
</g>
<!-- Node9 -->
<g id="node9" class="node">
<title>Node9</title>
<g id="a_node9"><a xlink:href="../../db/dc2/Fun4All__G4__FastMom__GEM_8C.html#a1a327440b9a720678c12cb3ea194ad33" target="_top" xlink:title="Fun4All_G4_FastMom_GEM">
<polygon fill="none" stroke="#000000" points="178,-129.5 178,-149.5 329,-149.5 329,-129.5 178,-129.5"/>
<text text-anchor="middle" x="253.5" y="-136.5" font-family="FreeSans" font-size="10.00" fill="#000000">Fun4All_G4_FastMom_GEM</text>
</a>
</g>
</g>
<!-- Node1&#45;&gt;Node9 -->
<g id="edge10" class="edge">
<title>Node1&#45;&gt;Node9</title>
<path fill="none" stroke="#191970" d="M152.0543,-161.1788C170.6876,-157.1969 189.8951,-153.0923 206.5165,-149.5403"/>
<polygon fill="#191970" stroke="#191970" points="151.1296,-157.7973 142.0818,-163.3099 152.5925,-164.6427 151.1296,-157.7973"/>
</g>
<!-- Node10 -->
<g id="node10" class="node">
<title>Node10</title>
<g id="a_node10"><a xlink:href="../../d7/df9/Fun4All__G4__FastMom__GEM__RICH_8C.html#a836c38918acb22b3e8248037a93906fb" target="_top" xlink:title="Fun4All_G4_FastMom\l_GEM_RICH">
<polygon fill="none" stroke="#000000" points="192,-78.5 192,-110.5 315,-110.5 315,-78.5 192,-78.5"/>
<text text-anchor="start" x="200" y="-97.5" font-family="FreeSans" font-size="10.00" fill="#000000">Fun4All_G4_FastMom</text>
<text text-anchor="middle" x="253.5" y="-85.5" font-family="FreeSans" font-size="10.00" fill="#000000">_GEM_RICH</text>
</a>
</g>
</g>
<!-- Node1&#45;&gt;Node10 -->
<g id="edge11" class="edge">
<title>Node1&#45;&gt;Node10</title>
<path fill="none" stroke="#191970" d="M106.3265,-157.4367C126.8334,-145.699 153.3992,-131.315 178,-120.5 185.9953,-116.9851 194.6278,-113.6256 203.0997,-110.5579"/>
<polygon fill="#191970" stroke="#191970" points="104.553,-154.4192 97.6466,-162.4537 108.0559,-160.4797 104.553,-154.4192"/>
</g>
<!-- Node11 -->
<g id="node11" class="node">
<title>Node11</title>
<g id="a_node11"><a xlink:href="../../dd/d8d/Fun4All__G4__Magnet_8C.html#a375961511ba614ba387343e652ab0202" target="_top" xlink:title="Fun4All_G4_Magnet">
<polygon fill="none" stroke="#000000" points="195.5,-39.5 195.5,-59.5 311.5,-59.5 311.5,-39.5 195.5,-39.5"/>
<text text-anchor="middle" x="253.5" y="-46.5" font-family="FreeSans" font-size="10.00" fill="#000000">Fun4All_G4_Magnet</text>
</a>
</g>
</g>
<!-- Node1&#45;&gt;Node11 -->
<g id="edge12" class="edge">
<title>Node1&#45;&gt;Node11</title>
<path fill="none" stroke="#191970" d="M88.6969,-153.8988C107.9179,-128.9686 140.8864,-91.0865 178,-69.5 185.0328,-65.4095 192.9163,-62.1378 200.8654,-59.5258"/>
<polygon fill="#191970" stroke="#191970" points="85.7164,-152.038 82.4873,-162.1288 91.3043,-156.2542 85.7164,-152.038"/>
</g>
<!-- Node12 -->
<g id="node12" class="node">
<title>Node12</title>
<g id="a_node12"><a xlink:href="../../d2/d06/Fun4All__G4__simplified__v2_8C.html#af32a1997246c467fe39dcf311893ad2a" target="_top" xlink:title="Fun4All_G4_simplified_v2">
<polygon fill="none" stroke="#000000" points="181,-.5 181,-20.5 326,-20.5 326,-.5 181,-.5"/>
<text text-anchor="middle" x="253.5" y="-7.5" font-family="FreeSans" font-size="10.00" fill="#000000">Fun4All_G4_simplified_v2</text>
</a>
</g>
</g>
<!-- Node1&#45;&gt;Node12 -->
<g id="edge13" class="edge">
<title>Node1&#45;&gt;Node12</title>
<path fill="none" stroke="#191970" d="M82.4361,-153.2376C98.8066,-119.976 132.0921,-62.0345 178,-30.5 183.9237,-26.4309 190.6308,-23.1895 197.5428,-20.6073"/>
<polygon fill="#191970" stroke="#191970" points="79.2505,-151.7862 78.0868,-162.3169 85.5636,-154.8104 79.2505,-151.7862"/>
</g>
<!-- Node3 -->
<g id="node3" class="node">
<title>Node3</title>
<g id="a_node3"><a xlink:href="../../dc/df3/fun4all__eic__qa_2blob_2master_2macros_2G4Setup__EICDetector_8C.html#a6b34584f88221280e9b276471822bd06" target="_top" xlink:title="G4Setup">
<polygon fill="none" stroke="#000000" points="365,-324.5 365,-344.5 425,-344.5 425,-324.5 365,-324.5"/>
<text text-anchor="middle" x="395" y="-331.5" font-family="FreeSans" font-size="10.00" fill="#000000">G4Setup</text>
</a>
</g>
</g>
<!-- Node2&#45;&gt;Node3 -->
<g id="edge2" class="edge">
<title>Node2&#45;&gt;Node3</title>
<path fill="none" stroke="#191970" d="M296.7932,-334.5C318.8449,-334.5 345.1088,-334.5 364.9252,-334.5"/>
<polygon fill="#191970" stroke="#191970" points="296.6755,-331.0001 286.6755,-334.5 296.6754,-338.0001 296.6755,-331.0001"/>
</g>
<!-- Node5 -->
<g id="node5" class="node">
<title>Node5</title>
<g id="a_node5"><a xlink:href="../../d0/dd0/G4Setup__JLeic_8C.html#ab7338d2908971d3820c9671865b90897" target="_top" xlink:title="G4Setup">
<polygon fill="none" stroke="#000000" points="365,-246.5 365,-266.5 425,-266.5 425,-246.5 365,-246.5"/>
<text text-anchor="middle" x="395" y="-253.5" font-family="FreeSans" font-size="10.00" fill="#000000">G4Setup</text>
</a>
</g>
</g>
<!-- Node4&#45;&gt;Node5 -->
<g id="edge4" class="edge">
<title>Node4&#45;&gt;Node5</title>
<path fill="none" stroke="#191970" d="M282.2884,-288.5973C296.4067,-285.1251 313.6383,-280.7578 329,-276.5 340.7686,-273.2381 353.6368,-269.4004 364.86,-265.9637"/>
<polygon fill="#191970" stroke="#191970" points="281.0679,-285.2922 272.1815,-291.0614 282.726,-292.093 281.0679,-285.2922"/>
</g>
<!-- Node6&#45;&gt;Node5 -->
<g id="edge6" class="edge">
<title>Node6&#45;&gt;Node5</title>
<path fill="none" stroke="#191970" d="M286.504,-256.5C310.2103,-256.5 341.9113,-256.5 364.9212,-256.5"/>
<polygon fill="#191970" stroke="#191970" points="286.2345,-253.0001 276.2344,-256.5 286.2344,-260.0001 286.2345,-253.0001"/>
</g>
<!-- Node7&#45;&gt;Node5 -->
<g id="edge8" class="edge">
<title>Node7&#45;&gt;Node5</title>
<path fill="none" stroke="#191970" d="M301.6463,-230.0896C310.7416,-232.5144 320.1697,-235.0597 329,-237.5 340.7227,-240.7396 353.5816,-244.414 364.8102,-247.6623"/>
<polygon fill="#191970" stroke="#191970" points="302.5149,-226.699 291.9516,-227.5163 300.719,-233.4647 302.5149,-226.699"/>
</g>
</g>
</svg>
