<?xml version="1.0" encoding="UTF-8" standalone="no"?>
<!DOCTYPE svg PUBLIC "-//W3C//DTD SVG 1.1//EN"
 "http://www.w3.org/Graphics/SVG/1.1/DTD/svg11.dtd">
<!-- Generated by graphviz version 2.40.1 (20161225.0304)
 -->
<!-- Title: EicRunAna::RunCoreFinish Pages: 1 -->
<svg width="2447pt" height="504pt"
 viewBox="0.00 0.00 2447.00 504.00" xmlns="http://www.w3.org/2000/svg" xmlns:xlink="http://www.w3.org/1999/xlink">
<g id="graph0" class="graph" transform="scale(1 1) rotate(0) translate(4 500)">
<title>EicRunAna::RunCoreFinish</title>
<!-- Node1 -->
<g id="node1" class="node">
<title>Node1</title>
<polygon fill="#bfbfbf" stroke="#000000" points="0,-269.5 0,-289.5 148,-289.5 148,-269.5 0,-269.5"/>
<text text-anchor="middle" x="74" y="-276.5" font-family="FreeSans" font-size="10.00" fill="#000000">EicRunAna::RunCoreFinish</text>
</g>
<!-- Node2 -->
<g id="node2" class="node">
<title>Node2</title>
<g id="a_node2"><a xlink:href="../../d2/d9e/classFairTask.html#a6ec7acd9772463226e1f3e2424fa402a" target="_top" xlink:title="FairTask::FinishTask">
<polygon fill="none" stroke="#000000" points="200.5,-436.5 200.5,-456.5 314.5,-456.5 314.5,-436.5 200.5,-436.5"/>
<text text-anchor="middle" x="257.5" y="-443.5" font-family="FreeSans" font-size="10.00" fill="#000000">FairTask::FinishTask</text>
</a>
</g>
</g>
<!-- Node1&#45;&gt;Node2 -->
<g id="edge1" class="edge">
<title>Node1&#45;&gt;Node2</title>
<path fill="none" stroke="#191970" d="M85.2025,-289.6952C115.731,-317.4786 200.6404,-394.7531 238.665,-429.3586"/>
<polygon fill="#191970" stroke="#191970" points="236.6926,-432.296 246.4441,-436.4382 241.4041,-427.1189 236.6926,-432.296"/>
</g>
<!-- Node5 -->
<g id="node5" class="node">
<title>Node5</title>
<g id="a_node5"><a xlink:href="../../d0/d6c/classFairRootManager.html#acd1ceb81ba400b3c3fe0c965e21597ac" target="_top" xlink:title="FairRootManager::LastFill">
<polygon fill="none" stroke="#000000" points="186.5,-334.5 186.5,-354.5 328.5,-354.5 328.5,-334.5 186.5,-334.5"/>
<text text-anchor="middle" x="257.5" y="-341.5" font-family="FreeSans" font-size="10.00" fill="#000000">FairRootManager::LastFill</text>
</a>
</g>
</g>
<!-- Node1&#45;&gt;Node5 -->
<g id="edge6" class="edge">
<title>Node1&#45;&gt;Node5</title>
<path fill="none" stroke="#191970" d="M102.2697,-289.5138C133.6547,-300.6311 184.4775,-318.6337 219.3661,-330.9921"/>
<polygon fill="#191970" stroke="#191970" points="218.6034,-334.4349 229.1981,-334.4748 220.9407,-327.8367 218.6034,-334.4349"/>
</g>
<!-- Node29 -->
<g id="node29" class="node">
<title>Node29</title>
<g id="a_node29"><a xlink:href="../../d0/d6c/classFairRootManager.html#af6bb592d8d67107bfee4fa658de7bf92" target="_top" xlink:title="FairRootManager::StoreAll\lWriteoutBufferData">
<polygon fill="none" stroke="#000000" points="184,-176.5 184,-208.5 331,-208.5 331,-176.5 184,-176.5"/>
<text text-anchor="start" x="192" y="-195.5" font-family="FreeSans" font-size="10.00" fill="#000000">FairRootManager::StoreAll</text>
<text text-anchor="middle" x="257.5" y="-183.5" font-family="FreeSans" font-size="10.00" fill="#000000">WriteoutBufferData</text>
</a>
</g>
</g>
<!-- Node1&#45;&gt;Node29 -->
<g id="edge40" class="edge">
<title>Node1&#45;&gt;Node29</title>
<path fill="none" stroke="#191970" d="M90.3284,-269.3136C111.4292,-256.4171 149.5541,-234.0135 184,-218.5 188.7379,-216.3662 193.7078,-214.2876 198.7334,-212.2957"/>
<polygon fill="#191970" stroke="#191970" points="200.3371,-215.4293 208.4205,-208.5803 197.8303,-208.8936 200.3371,-215.4293"/>
</g>
<!-- Node30 -->
<g id="node30" class="node">
<title>Node30</title>
<g id="a_node30"><a xlink:href="../../d0/d6c/classFairRootManager.html#a8b1f6e033453b12c001e58ff7a9ee896" target="_top" xlink:title="FairRootManager::Write">
<polygon fill="none" stroke="#000000" points="190.5,-269.5 190.5,-289.5 324.5,-289.5 324.5,-269.5 190.5,-269.5"/>
<text text-anchor="middle" x="257.5" y="-276.5" font-family="FreeSans" font-size="10.00" fill="#000000">FairRootManager::Write</text>
</a>
</g>
</g>
<!-- Node1&#45;&gt;Node30 -->
<g id="edge41" class="edge">
<title>Node1&#45;&gt;Node30</title>
<path fill="none" stroke="#191970" d="M148.1075,-279.5C158.6606,-279.5 169.5372,-279.5 180.1502,-279.5"/>
<polygon fill="#191970" stroke="#191970" points="180.2256,-283.0001 190.2255,-279.5 180.2255,-276.0001 180.2256,-283.0001"/>
</g>
<!-- Node33 -->
<g id="node33" class="node">
<title>Node33</title>
<g id="a_node33"><a xlink:href="../../d2/df2/classFairRunInfo.html#aca2590d4bc8305311cdfb5e0b32ce8d6" target="_top" xlink:title="FairRunInfo::WriteInfo">
<polygon fill="none" stroke="#000000" points="195,-227.5 195,-247.5 320,-247.5 320,-227.5 195,-227.5"/>
<text text-anchor="middle" x="257.5" y="-234.5" font-family="FreeSans" font-size="10.00" fill="#000000">FairRunInfo::WriteInfo</text>
</a>
</g>
</g>
<!-- Node1&#45;&gt;Node33 -->
<g id="edge47" class="edge">
<title>Node1&#45;&gt;Node33</title>
<path fill="none" stroke="#191970" d="M117.9528,-269.44C143.7328,-263.5394 176.4977,-256.04 203.7998,-249.7911"/>
<polygon fill="#191970" stroke="#191970" points="204.6212,-253.1936 213.5882,-247.5507 203.0593,-246.3701 204.6212,-253.1936"/>
</g>
<!-- Node3 -->
<g id="node3" class="node">
<title>Node3</title>
<g id="a_node3"><a xlink:href="../../d2/d9e/classFairTask.html#a3094b770cf88328da72b5b85eb1c2d77" target="_top" xlink:title="FairTask::Finish">
<polygon fill="none" stroke="#000000" points="597,-475.5 597,-495.5 688,-495.5 688,-475.5 597,-475.5"/>
<text text-anchor="middle" x="642.5" y="-482.5" font-family="FreeSans" font-size="10.00" fill="#000000">FairTask::Finish</text>
</a>
</g>
</g>
<!-- Node2&#45;&gt;Node3 -->
<g id="edge2" class="edge">
<title>Node2&#45;&gt;Node3</title>
<path fill="none" stroke="#191970" d="M305.8338,-456.5309C324.8278,-460.1568 346.8665,-463.9751 367,-466.5 442.6841,-475.9914 530.7034,-481.0239 586.4942,-483.4737"/>
<polygon fill="#191970" stroke="#191970" points="586.3862,-486.9722 596.5263,-483.9016 586.6846,-479.9786 586.3862,-486.9722"/>
</g>
<!-- Node4 -->
<g id="node4" class="node">
<title>Node4</title>
<g id="a_node4"><a xlink:href="../../d2/d9e/classFairTask.html#a014044eefffd7fdd7b51bf2cc775c127" target="_top" xlink:title="FairTask::FinishTasks">
<polygon fill="none" stroke="#000000" points="380.5,-436.5 380.5,-456.5 499.5,-456.5 499.5,-436.5 380.5,-436.5"/>
<text text-anchor="middle" x="440" y="-443.5" font-family="FreeSans" font-size="10.00" fill="#000000">FairTask::FinishTasks</text>
</a>
</g>
</g>
<!-- Node2&#45;&gt;Node4 -->
<g id="edge3" class="edge">
<title>Node2&#45;&gt;Node4</title>
<path fill="none" stroke="#191970" d="M314.7434,-440.1852C332.3835,-439.713 352.0021,-439.6251 370.3789,-439.9214"/>
<polygon fill="#191970" stroke="#191970" points="370.371,-443.4219 380.44,-440.1256 370.5131,-436.4233 370.371,-443.4219"/>
</g>
<!-- Node4&#45;&gt;Node2 -->
<g id="edge4" class="edge">
<title>Node4&#45;&gt;Node2</title>
<path fill="none" stroke="#191970" d="M380.44,-452.8744C362.7161,-453.3111 343.1708,-453.367 324.9803,-453.0422"/>
<polygon fill="#191970" stroke="#191970" points="324.8187,-449.5378 314.7434,-452.8148 324.6632,-456.5361 324.8187,-449.5378"/>
</g>
<!-- Node4&#45;&gt;Node3 -->
<g id="edge5" class="edge">
<title>Node4&#45;&gt;Node3</title>
<path fill="none" stroke="#191970" d="M492.1488,-456.5435C521.0809,-462.1156 557.0708,-469.047 586.5844,-474.7311"/>
<polygon fill="#191970" stroke="#191970" points="586.25,-478.2309 596.7315,-476.6853 587.5739,-471.3572 586.25,-478.2309"/>
</g>
<!-- Node6 -->
<g id="node6" class="node">
<title>Node6</title>
<g id="a_node6"><a xlink:href="../../d0/d6c/classFairRootManager.html#ad413f055def7ebb92ea58fc993d8fc82" target="_top" xlink:title="FairRootManager::Fill">
<polygon fill="none" stroke="#000000" points="379.5,-362.5 379.5,-382.5 500.5,-382.5 500.5,-362.5 379.5,-362.5"/>
<text text-anchor="middle" x="440" y="-369.5" font-family="FreeSans" font-size="10.00" fill="#000000">FairRootManager::Fill</text>
</a>
</g>
</g>
<!-- Node5&#45;&gt;Node6 -->
<g id="edge7" class="edge">
<title>Node5&#45;&gt;Node6</title>
<path fill="none" stroke="#191970" d="M322.8712,-354.5296C337.9732,-356.8466 354.1062,-359.3218 369.4195,-361.6712"/>
<polygon fill="#191970" stroke="#191970" points="368.9299,-365.137 379.345,-363.194 369.9915,-358.2179 368.9299,-365.137"/>
</g>
<!-- Node7 -->
<g id="node7" class="node">
<title>Node7</title>
<g id="a_node7"><a xlink:href="../../d0/d6c/classFairRootManager.html#ab3c4eba2d9027bddce9126b401c9ec09" target="_top" xlink:title="FairRootManager::DataContainers\lFilled">
<polygon fill="none" stroke="#000000" points="549,-424.5 549,-456.5 736,-456.5 736,-424.5 549,-424.5"/>
<text text-anchor="start" x="557" y="-443.5" font-family="FreeSans" font-size="10.00" fill="#000000">FairRootManager::DataContainers</text>
<text text-anchor="middle" x="642.5" y="-431.5" font-family="FreeSans" font-size="10.00" fill="#000000">Filled</text>
</a>
</g>
</g>
<!-- Node6&#45;&gt;Node7 -->
<g id="edge8" class="edge">
<title>Node6&#45;&gt;Node7</title>
<path fill="none" stroke="#191970" d="M463.106,-382.5087C484.9783,-391.7685 518.8613,-405.5622 549,-415.5 555.3794,-417.6035 562.0464,-419.6597 568.7556,-421.632"/>
<polygon fill="#191970" stroke="#191970" points="568.0094,-425.0592 578.5872,-424.4575 569.9429,-418.3315 568.0094,-425.0592"/>
</g>
<!-- Node8 -->
<g id="node8" class="node">
<title>Node8</title>
<g id="a_node8"><a xlink:href="../../d0/d6c/classFairRootManager.html#a8602a68f7ec711578e1df2f3ed505f48" target="_top" xlink:title="FairRootManager::AssignTClones\lArrays">
<polygon fill="none" stroke="#000000" points="552,-334.5 552,-366.5 733,-366.5 733,-334.5 552,-334.5"/>
<text text-anchor="start" x="560" y="-353.5" font-family="FreeSans" font-size="10.00" fill="#000000">FairRootManager::AssignTClones</text>
<text text-anchor="middle" x="642.5" y="-341.5" font-family="FreeSans" font-size="10.00" fill="#000000">Arrays</text>
</a>
</g>
</g>
<!-- Node6&#45;&gt;Node8 -->
<g id="edge9" class="edge">
<title>Node6&#45;&gt;Node8</title>
<path fill="none" stroke="#191970" d="M500.7567,-365.8993C513.6936,-364.4938 527.6864,-362.9736 541.6686,-361.4545"/>
<polygon fill="#191970" stroke="#191970" points="542.2693,-364.91 551.8327,-360.3503 541.5132,-357.9509 542.2693,-364.91"/>
</g>
<!-- Node28 -->
<g id="node28" class="node">
<title>Node28</title>
<g id="a_node28"><a xlink:href="../../d0/d6c/classFairRootManager.html#ac0fea487557251caeb0bd8796c6d785f" target="_top" xlink:title="FairRootManager::ForceFill">
<polygon fill="none" stroke="#000000" points="568.5,-385.5 568.5,-405.5 716.5,-405.5 716.5,-385.5 568.5,-385.5"/>
<text text-anchor="middle" x="642.5" y="-392.5" font-family="FreeSans" font-size="10.00" fill="#000000">FairRootManager::ForceFill</text>
</a>
</g>
</g>
<!-- Node6&#45;&gt;Node28 -->
<g id="edge38" class="edge">
<title>Node6&#45;&gt;Node28</title>
<path fill="none" stroke="#191970" d="M500.7567,-379.4008C518.8122,-381.4515 538.9247,-383.7359 558.1944,-385.9246"/>
<polygon fill="#191970" stroke="#191970" points="557.8479,-389.4076 568.179,-387.0586 558.638,-382.4523 557.8479,-389.4076"/>
</g>
<!-- Node9 -->
<g id="node9" class="node">
<title>Node9</title>
<g id="a_node9"><a xlink:href="../../d0/d6c/classFairRootManager.html#a3599c5809e3e64dc23018ee20765d5c7" target="_top" xlink:title="FairRootManager::AssignTClones\lArray">
<polygon fill="none" stroke="#000000" points="772,-308.5 772,-340.5 953,-340.5 953,-308.5 772,-308.5"/>
<text text-anchor="start" x="780" y="-327.5" font-family="FreeSans" font-size="10.00" fill="#000000">FairRootManager::AssignTClones</text>
<text text-anchor="middle" x="862.5" y="-315.5" font-family="FreeSans" font-size="10.00" fill="#000000">Array</text>
</a>
</g>
</g>
<!-- Node8&#45;&gt;Node9 -->
<g id="edge10" class="edge">
<title>Node8&#45;&gt;Node9</title>
<path fill="none" stroke="#191970" d="M733.2526,-339.7747C742.7401,-338.6534 752.4247,-337.5089 762.0122,-336.3758"/>
<polygon fill="#191970" stroke="#191970" points="762.4359,-339.8502 771.956,-335.2007 761.6143,-332.8986 762.4359,-339.8502"/>
</g>
<!-- Node10 -->
<g id="node10" class="node">
<title>Node10</title>
<g id="a_node10"><a xlink:href="../../d0/d6c/classFairRootManager.html#abbbec76c83bcd0e1b78bef3c54e178eb" target="_top" xlink:title="FairRootManager::GetObject">
<polygon fill="none" stroke="#000000" points="989,-183.5 989,-203.5 1148,-203.5 1148,-183.5 989,-183.5"/>
<text text-anchor="middle" x="1068.5" y="-190.5" font-family="FreeSans" font-size="10.00" fill="#000000">FairRootManager::GetObject</text>
</a>
</g>
</g>
<!-- Node9&#45;&gt;Node10 -->
<g id="edge11" class="edge">
<title>Node9&#45;&gt;Node10</title>
<path fill="none" stroke="#191970" d="M887.7596,-308.4368C927.6445,-283.0732 1004.7116,-234.0645 1044.0723,-209.0341"/>
<polygon fill="#191970" stroke="#191970" points="1046.2131,-211.8206 1052.7732,-203.501 1042.4568,-205.9137 1046.2131,-211.8206"/>
</g>
<!-- Node27 -->
<g id="node27" class="node">
<title>Node27</title>
<g id="a_node27"><a xlink:href="../../d0/d6c/classFairRootManager.html#a44446f1300fe36352a4f76ebf1684bda" target="_top" xlink:title="FairRootManager::ForceGet\lDataContainer">
<polygon fill="none" stroke="#000000" points="991.5,-308.5 991.5,-340.5 1145.5,-340.5 1145.5,-308.5 991.5,-308.5"/>
<text text-anchor="start" x="999.5" y="-327.5" font-family="FreeSans" font-size="10.00" fill="#000000">FairRootManager::ForceGet</text>
<text text-anchor="middle" x="1068.5" y="-315.5" font-family="FreeSans" font-size="10.00" fill="#000000">DataContainer</text>
</a>
</g>
</g>
<!-- Node9&#45;&gt;Node27 -->
<g id="edge37" class="edge">
<title>Node9&#45;&gt;Node27</title>
<path fill="none" stroke="#191970" d="M953.1544,-324.5C962.5084,-324.5 972.0002,-324.5 981.3153,-324.5"/>
<polygon fill="#191970" stroke="#191970" points="981.3389,-328.0001 991.3388,-324.5 981.3388,-321.0001 981.3389,-328.0001"/>
</g>
<!-- Node11 -->
<g id="node11" class="node">
<title>Node11</title>
<g id="a_node11"><a xlink:href="../../db/da1/classFairLogger.html#a60bd2d39c9b6c2be4d5c8893a7d6921e" target="_top" xlink:title="FairLogger::Debug2">
<polygon fill="none" stroke="#000000" points="1396,-116.5 1396,-136.5 1511,-136.5 1511,-116.5 1396,-116.5"/>
<text text-anchor="middle" x="1453.5" y="-123.5" font-family="FreeSans" font-size="10.00" fill="#000000">FairLogger::Debug2</text>
</a>
</g>
</g>
<!-- Node10&#45;&gt;Node11 -->
<g id="edge12" class="edge">
<title>Node10&#45;&gt;Node11</title>
<path fill="none" stroke="#191970" d="M1087.9102,-183.3999C1110.3743,-172.2384 1148.8009,-154.7516 1184,-146.5 1251.3731,-130.7059 1330.5722,-126.4723 1385.6059,-125.721"/>
<polygon fill="#191970" stroke="#191970" points="1385.9715,-129.2176 1395.9357,-125.6169 1385.901,-122.2179 1385.9715,-129.2176"/>
</g>
<!-- Node22 -->
<g id="node22" class="node">
<title>Node22</title>
<g id="a_node22"><a xlink:href="../../d0/d6c/classFairRootManager.html#a6135b9b9cc49e5e778b81b566f75e0e8" target="_top" xlink:title="FairRootManager::GetMemory\lBranch">
<polygon fill="none" stroke="#000000" points="1370,-206.5 1370,-238.5 1537,-238.5 1537,-206.5 1370,-206.5"/>
<text text-anchor="start" x="1378" y="-225.5" font-family="FreeSans" font-size="10.00" fill="#000000">FairRootManager::GetMemory</text>
<text text-anchor="middle" x="1453.5" y="-213.5" font-family="FreeSans" font-size="10.00" fill="#000000">Branch</text>
</a>
</g>
</g>
<!-- Node10&#45;&gt;Node22 -->
<g id="edge26" class="edge">
<title>Node10&#45;&gt;Node22</title>
<path fill="none" stroke="#191970" d="M1148.2722,-199.5088C1209.738,-204.1387 1294.8787,-210.5519 1359.6251,-215.4289"/>
<polygon fill="#191970" stroke="#191970" points="1359.6,-218.9368 1369.8347,-216.1979 1360.1259,-211.9566 1359.6,-218.9368"/>
</g>
<!-- Node23 -->
<g id="node23" class="node">
<title>Node23</title>
<g id="a_node23"><a xlink:href="../../d0/d6c/classFairRootManager.html#a62ae3b6bdfdb86e3c710ae18ebe67367" target="_top" xlink:title="FairRootManager::Activate\lBranch">
<polygon fill="none" stroke="#000000" points="1184,-155.5 1184,-187.5 1333,-187.5 1333,-155.5 1184,-155.5"/>
<text text-anchor="start" x="1192" y="-174.5" font-family="FreeSans" font-size="10.00" fill="#000000">FairRootManager::Activate</text>
<text text-anchor="middle" x="1258.5" y="-162.5" font-family="FreeSans" font-size="10.00" fill="#000000">Branch</text>
</a>
</g>
</g>
<!-- Node10&#45;&gt;Node23 -->
<g id="edge27" class="edge">
<title>Node10&#45;&gt;Node23</title>
<path fill="none" stroke="#191970" d="M1148.2513,-184.2656C1156.7183,-183.2852 1165.3513,-182.2856 1173.8716,-181.2991"/>
<polygon fill="#191970" stroke="#191970" points="1174.2743,-184.7759 1183.8054,-180.1489 1173.4691,-177.8224 1174.2743,-184.7759"/>
</g>
<!-- Node12 -->
<g id="node12" class="node">
<title>Node12</title>
<g id="a_node12"><a xlink:href="../../db/da1/classFairLogger.html#ae5a926d95789678b453cbb45e0a9a46e" target="_top" xlink:title="FairLogger::IsLogNeeded">
<polygon fill="none" stroke="#000000" points="1574,-135.5 1574,-155.5 1714,-155.5 1714,-135.5 1574,-135.5"/>
<text text-anchor="middle" x="1644" y="-142.5" font-family="FreeSans" font-size="10.00" fill="#000000">FairLogger::IsLogNeeded</text>
</a>
</g>
</g>
<!-- Node11&#45;&gt;Node12 -->
<g id="edge13" class="edge">
<title>Node11&#45;&gt;Node12</title>
<path fill="none" stroke="#191970" d="M1511.1733,-132.2522C1527.6511,-133.8956 1545.9157,-135.7173 1563.4938,-137.4705"/>
<polygon fill="#191970" stroke="#191970" points="1563.4475,-140.9832 1573.7455,-138.493 1564.1422,-134.0177 1563.4475,-140.9832"/>
</g>
<!-- Node13 -->
<g id="node13" class="node">
<title>Node13</title>
<g id="a_node13"><a xlink:href="../../db/da1/classFairLogger.html#aa9d98b58fab95abcf553dfefe1e572f5" target="_top" xlink:title="FairLogger::Log">
<polygon fill="none" stroke="#000000" points="1597.5,-96.5 1597.5,-116.5 1690.5,-116.5 1690.5,-96.5 1597.5,-96.5"/>
<text text-anchor="middle" x="1644" y="-103.5" font-family="FreeSans" font-size="10.00" fill="#000000">FairLogger::Log</text>
</a>
</g>
</g>
<!-- Node11&#45;&gt;Node13 -->
<g id="edge14" class="edge">
<title>Node11&#45;&gt;Node13</title>
<path fill="none" stroke="#191970" d="M1511.1733,-120.4451C1535.3202,-117.91 1563.3043,-114.972 1587.3419,-112.4484"/>
<polygon fill="#191970" stroke="#191970" points="1587.7995,-115.9196 1597.3794,-111.3946 1587.0686,-108.9579 1587.7995,-115.9196"/>
</g>
<!-- Node14 -->
<g id="node14" class="node">
<title>Node14</title>
<g id="a_node14"><a xlink:href="../../db/da1/classFairLogger.html#a5529c6ab25bc075aff767f30a743e616" target="_top" xlink:title="FairLogger::OpenLogFile">
<polygon fill="none" stroke="#000000" points="1963.5,-135.5 1963.5,-155.5 2100.5,-155.5 2100.5,-135.5 1963.5,-135.5"/>
<text text-anchor="middle" x="2032" y="-142.5" font-family="FreeSans" font-size="10.00" fill="#000000">FairLogger::OpenLogFile</text>
</a>
</g>
</g>
<!-- Node13&#45;&gt;Node14 -->
<g id="edge15" class="edge">
<title>Node13&#45;&gt;Node14</title>
<path fill="none" stroke="#191970" d="M1690.5099,-116.5173C1708.9538,-120.1637 1730.4013,-123.9999 1750,-126.5 1818.276,-135.2097 1896.3948,-140.0791 1953.0719,-142.7017"/>
<polygon fill="#191970" stroke="#191970" points="1953.251,-146.2132 1963.3981,-143.1657 1953.5653,-139.2203 1953.251,-146.2132"/>
</g>
<!-- Node16 -->
<g id="node16" class="node">
<title>Node16</title>
<g id="a_node16"><a xlink:href="../../db/da1/classFairLogger.html#aeb76e4a75fe913ebdf1c07b5d1f3ac1b" target="_top" xlink:title="FairLogger::GetOutputStream">
<polygon fill="none" stroke="#000000" points="1750,-96.5 1750,-116.5 1915,-116.5 1915,-96.5 1750,-96.5"/>
<text text-anchor="middle" x="1832.5" y="-103.5" font-family="FreeSans" font-size="10.00" fill="#000000">FairLogger::GetOutputStream</text>
</a>
</g>
</g>
<!-- Node13&#45;&gt;Node16 -->
<g id="edge17" class="edge">
<title>Node13&#45;&gt;Node16</title>
<path fill="none" stroke="#191970" d="M1690.5955,-106.5C1705.542,-106.5 1722.6583,-106.5 1739.7109,-106.5"/>
<polygon fill="#191970" stroke="#191970" points="1739.7269,-110.0001 1749.7269,-106.5 1739.7268,-103.0001 1739.7269,-110.0001"/>
</g>
<!-- Node19 -->
<g id="node19" class="node">
<title>Node19</title>
<g id="a_node19"><a xlink:href="../../db/da1/classFairLogger.html#a496d9b3f72963d24a58abc5a023b74b0" target="_top" xlink:title="End of the line.">
<polygon fill="none" stroke="#000000" points="1784,-57.5 1784,-77.5 1881,-77.5 1881,-57.5 1784,-57.5"/>
<text text-anchor="middle" x="1832.5" y="-64.5" font-family="FreeSans" font-size="10.00" fill="#000000">FairLogger::endl</text>
</a>
</g>
</g>
<!-- Node13&#45;&gt;Node19 -->
<g id="edge21" class="edge">
<title>Node13&#45;&gt;Node19</title>
<path fill="none" stroke="#191970" d="M1690.5955,-96.8595C1715.8273,-91.6392 1747.2427,-85.1394 1774.096,-79.5836"/>
<polygon fill="#191970" stroke="#191970" points="1775.0586,-82.9586 1784.1421,-77.5051 1773.6403,-76.1038 1775.0586,-82.9586"/>
</g>
<!-- Node15 -->
<g id="node15" class="node">
<title>Node15</title>
<g id="a_node15"><a xlink:href="../../db/da1/classFairLogger.html#a80d1ac93eff9a9b6d52f8118b8b796aa" target="_top" xlink:title="FairLogger::CloseLogFile">
<polygon fill="none" stroke="#000000" points="2149,-135.5 2149,-155.5 2287,-155.5 2287,-135.5 2149,-135.5"/>
<text text-anchor="middle" x="2218" y="-142.5" font-family="FreeSans" font-size="10.00" fill="#000000">FairLogger::CloseLogFile</text>
</a>
</g>
</g>
<!-- Node14&#45;&gt;Node15 -->
<g id="edge16" class="edge">
<title>Node14&#45;&gt;Node15</title>
<path fill="none" stroke="#191970" d="M2100.7311,-145.5C2113.1428,-145.5 2126.1747,-145.5 2138.855,-145.5"/>
<polygon fill="#191970" stroke="#191970" points="2138.9305,-149.0001 2148.9305,-145.5 2138.9304,-142.0001 2138.9305,-149.0001"/>
</g>
<!-- Node16&#45;&gt;Node14 -->
<g id="edge20" class="edge">
<title>Node16&#45;&gt;Node14</title>
<path fill="none" stroke="#191970" d="M1883.8762,-116.5435C1910.4045,-121.7294 1942.9556,-128.0928 1970.7804,-133.5323"/>
<polygon fill="#191970" stroke="#191970" points="1970.3121,-137.0069 1980.7979,-135.4906 1971.6552,-130.1369 1970.3121,-137.0069"/>
</g>
<!-- Node17 -->
<g id="node17" class="node">
<title>Node17</title>
<g id="a_node17"><a xlink:href="../../db/da1/classFairLogger.html#a6fe59f109418f1331c91c39d0ea33c1d" target="_top" xlink:title="FairLogger::GetTime">
<polygon fill="none" stroke="#000000" points="2159,-86.5 2159,-106.5 2277,-106.5 2277,-86.5 2159,-86.5"/>
<text text-anchor="middle" x="2218" y="-93.5" font-family="FreeSans" font-size="10.00" fill="#000000">FairLogger::GetTime</text>
</a>
</g>
</g>
<!-- Node16&#45;&gt;Node17 -->
<g id="edge18" class="edge">
<title>Node16&#45;&gt;Node17</title>
<path fill="none" stroke="#191970" d="M1915.1994,-104.3547C1984.8147,-102.5489 2083.2325,-99.9959 2148.7554,-98.2962"/>
<polygon fill="#191970" stroke="#191970" points="2149.0737,-101.7892 2158.9795,-98.031 2148.8921,-94.7916 2149.0737,-101.7892"/>
</g>
<!-- Node18 -->
<g id="node18" class="node">
<title>Node18</title>
<g id="a_node18"><a xlink:href="../../df/da1/namespaceActs_1_1VectorHelpers.html#ab52a0c8023eda1c81cc9ddfe7f03b535" target="_top" xlink:title="Access to the time component of input parameter.">
<polygon fill="none" stroke="#000000" points="2323,-80.5 2323,-112.5 2439,-112.5 2439,-80.5 2323,-80.5"/>
<text text-anchor="start" x="2331" y="-99.5" font-family="FreeSans" font-size="10.00" fill="#000000">Acts::VectorHelpers</text>
<text text-anchor="middle" x="2381" y="-87.5" font-family="FreeSans" font-size="10.00" fill="#000000">::time</text>
</a>
</g>
</g>
<!-- Node17&#45;&gt;Node18 -->
<g id="edge19" class="edge">
<title>Node17&#45;&gt;Node18</title>
<path fill="none" stroke="#191970" d="M2277.3078,-96.5C2288.7836,-96.5 2300.8948,-96.5 2312.6328,-96.5"/>
<polygon fill="#191970" stroke="#191970" points="2312.8266,-100.0001 2322.8265,-96.5 2312.8265,-93.0001 2312.8266,-100.0001"/>
</g>
<!-- Node20 -->
<g id="node20" class="node">
<title>Node20</title>
<g id="a_node20"><a xlink:href="../../db/da1/classFairLogger.html#aca7a4fd0af5e622c9635f62996a7334d" target="_top" xlink:title="Flush the streams.">
<polygon fill="none" stroke="#000000" points="2168,-28.5 2168,-48.5 2268,-48.5 2268,-28.5 2168,-28.5"/>
<text text-anchor="middle" x="2218" y="-35.5" font-family="FreeSans" font-size="10.00" fill="#000000">FairLogger::flush</text>
</a>
</g>
</g>
<!-- Node19&#45;&gt;Node20 -->
<g id="edge22" class="edge">
<title>Node19&#45;&gt;Node20</title>
<path fill="none" stroke="#191970" d="M1881.0197,-57.8069C1902.3908,-53.9275 1927.854,-49.8328 1951,-47.5 2021.6648,-40.3779 2103.3246,-38.556 2157.5415,-38.2418"/>
<polygon fill="#191970" stroke="#191970" points="2157.6869,-41.7413 2167.6719,-38.1988 2157.6571,-34.7413 2157.6869,-41.7413"/>
</g>
<!-- Node21 -->
<g id="node21" class="node">
<title>Node21</title>
<g id="a_node21"><a xlink:href="../../db/da1/classFairLogger.html#a9848989e18afa7144b47ecc38b7bfe0e" target="_top" xlink:title="FairLogger::LogFatalMessage">
<polygon fill="none" stroke="#000000" points="1951,-57.5 1951,-77.5 2113,-77.5 2113,-57.5 1951,-57.5"/>
<text text-anchor="middle" x="2032" y="-64.5" font-family="FreeSans" font-size="10.00" fill="#000000">FairLogger::LogFatalMessage</text>
</a>
</g>
</g>
<!-- Node19&#45;&gt;Node21 -->
<g id="edge23" class="edge">
<title>Node19&#45;&gt;Node21</title>
<path fill="none" stroke="#191970" d="M1881.0481,-67.5C1899.0875,-67.5 1920.1922,-67.5 1940.8059,-67.5"/>
<polygon fill="#191970" stroke="#191970" points="1940.8704,-71.0001 1950.8703,-67.5 1940.8703,-64.0001 1940.8704,-71.0001"/>
</g>
<!-- Node21&#45;&gt;Node17 -->
<g id="edge24" class="edge">
<title>Node21&#45;&gt;Node17</title>
<path fill="none" stroke="#191970" d="M2096.2711,-77.5208C2113.2122,-80.1621 2131.5636,-83.0234 2148.7544,-85.7036"/>
<polygon fill="#191970" stroke="#191970" points="2148.3027,-89.1754 2158.7225,-87.2578 2149.3811,-82.259 2148.3027,-89.1754"/>
</g>
<!-- Node21&#45;&gt;Node20 -->
<g id="edge25" class="edge">
<title>Node21&#45;&gt;Node20</title>
<path fill="none" stroke="#191970" d="M2096.2711,-57.4792C2116.2114,-54.3703 2138.1056,-50.9567 2157.7612,-47.8921"/>
<polygon fill="#191970" stroke="#191970" points="2158.4722,-51.3236 2167.8136,-46.3248 2157.3938,-44.4071 2158.4722,-51.3236"/>
</g>
<!-- Node23&#45;&gt;Node11 -->
<g id="edge29" class="edge">
<title>Node23&#45;&gt;Node11</title>
<path fill="none" stroke="#191970" d="M1328.0736,-155.4445C1351.7863,-149.9724 1377.9058,-143.9448 1400.1423,-138.8133"/>
<polygon fill="#191970" stroke="#191970" points="1401.1064,-142.1829 1410.0633,-136.5239 1399.5323,-135.3622 1401.1064,-142.1829"/>
</g>
<!-- Node23&#45;&gt;Node22 -->
<g id="edge28" class="edge">
<title>Node23&#45;&gt;Node22</title>
<path fill="none" stroke="#191970" d="M1319.9316,-187.5667C1339.6949,-192.7356 1361.7598,-198.5064 1382.1719,-203.845"/>
<polygon fill="#191970" stroke="#191970" points="1381.4821,-207.2822 1392.0423,-206.4264 1383.2533,-200.51 1381.4821,-207.2822"/>
</g>
<!-- Node24 -->
<g id="node24" class="node">
<title>Node24</title>
<g id="a_node24"><a xlink:href="../../db/da1/classFairLogger.html#a710e562aaff33766e424013a77d9cb77" target="_top" xlink:title="FairLogger::Debug">
<polygon fill="none" stroke="#000000" points="1399.5,-77.5 1399.5,-97.5 1507.5,-97.5 1507.5,-77.5 1399.5,-77.5"/>
<text text-anchor="middle" x="1453.5" y="-84.5" font-family="FreeSans" font-size="10.00" fill="#000000">FairLogger::Debug</text>
</a>
</g>
</g>
<!-- Node23&#45;&gt;Node24 -->
<g id="edge30" class="edge">
<title>Node23&#45;&gt;Node24</title>
<path fill="none" stroke="#191970" d="M1281.6186,-155.4072C1303.2984,-140.9862 1337.072,-120.204 1369,-107.5 1375.915,-104.7485 1383.3054,-102.3145 1390.7306,-100.1778"/>
<polygon fill="#191970" stroke="#191970" points="1391.7378,-103.5312 1400.4749,-97.5385 1389.9077,-96.7747 1391.7378,-103.5312"/>
</g>
<!-- Node25 -->
<g id="node25" class="node">
<title>Node25</title>
<g id="a_node25"><a xlink:href="../../db/da1/classFairLogger.html#a3ebc5751836771a50a11e0e2491a9f68" target="_top" xlink:title="FairLogger::Info">
<polygon fill="none" stroke="#000000" points="1406.5,-257.5 1406.5,-277.5 1500.5,-277.5 1500.5,-257.5 1406.5,-257.5"/>
<text text-anchor="middle" x="1453.5" y="-264.5" font-family="FreeSans" font-size="10.00" fill="#000000">FairLogger::Info</text>
</a>
</g>
</g>
<!-- Node23&#45;&gt;Node25 -->
<g id="edge33" class="edge">
<title>Node23&#45;&gt;Node25</title>
<path fill="none" stroke="#191970" d="M1276.6983,-187.5579C1297.5618,-205.1229 1333.4783,-232.8544 1369,-248.5 1377.6811,-252.3236 1387.2151,-255.4165 1396.6545,-257.9067"/>
<polygon fill="#191970" stroke="#191970" points="1395.8727,-261.3186 1406.4174,-260.2889 1397.5321,-254.5181 1395.8727,-261.3186"/>
</g>
<!-- Node26 -->
<g id="node26" class="node">
<title>Node26</title>
<g id="a_node26"><a xlink:href="../../d0/d6c/classFairRootManager.html#ae01e51ec943e7e829002b077cf50792d" target="_top" xlink:title="FairRootManager::AddMemory\lBranch">
<polygon fill="none" stroke="#000000" points="1369,-155.5 1369,-187.5 1538,-187.5 1538,-155.5 1369,-155.5"/>
<text text-anchor="start" x="1377" y="-174.5" font-family="FreeSans" font-size="10.00" fill="#000000">FairRootManager::AddMemory</text>
<text text-anchor="middle" x="1453.5" y="-162.5" font-family="FreeSans" font-size="10.00" fill="#000000">Branch</text>
</a>
</g>
</g>
<!-- Node23&#45;&gt;Node26 -->
<g id="edge36" class="edge">
<title>Node23&#45;&gt;Node26</title>
<path fill="none" stroke="#191970" d="M1333.0558,-171.5C1341.4792,-171.5 1350.1448,-171.5 1358.7813,-171.5"/>
<polygon fill="#191970" stroke="#191970" points="1358.8901,-175.0001 1368.8901,-171.5 1358.8901,-168.0001 1358.8901,-175.0001"/>
</g>
<!-- Node24&#45;&gt;Node12 -->
<g id="edge31" class="edge">
<title>Node24&#45;&gt;Node12</title>
<path fill="none" stroke="#191970" d="M1505.0631,-97.5094C1516.0885,-100.2556 1527.5554,-103.5804 1538,-107.5 1554.9382,-113.8566 1557.1678,-119.8679 1574,-126.5 1579.479,-128.6588 1585.2922,-130.6629 1591.1347,-132.4968"/>
<polygon fill="#191970" stroke="#191970" points="1590.3578,-135.9173 1600.9409,-135.4197 1592.3573,-129.209 1590.3578,-135.9173"/>
</g>
<!-- Node24&#45;&gt;Node13 -->
<g id="edge32" class="edge">
<title>Node24&#45;&gt;Node13</title>
<path fill="none" stroke="#191970" d="M1507.5801,-92.8938C1532.4268,-95.372 1561.9018,-98.3117 1587.0854,-100.8235"/>
<polygon fill="#191970" stroke="#191970" points="1586.9289,-104.3252 1597.2269,-101.835 1587.6237,-97.3597 1586.9289,-104.3252"/>
</g>
<!-- Node25&#45;&gt;Node12 -->
<g id="edge34" class="edge">
<title>Node25&#45;&gt;Node12</title>
<path fill="none" stroke="#191970" d="M1500.7537,-261.6352C1513.36,-258.8194 1526.6277,-254.6554 1538,-248.5 1577.4196,-227.1637 1612.3976,-186.9873 1630.6412,-163.6167"/>
<polygon fill="#191970" stroke="#191970" points="1633.5069,-165.6307 1636.7883,-155.5568 1627.9409,-161.3857 1633.5069,-165.6307"/>
</g>
<!-- Node25&#45;&gt;Node13 -->
<g id="edge35" class="edge">
<title>Node25&#45;&gt;Node13</title>
<path fill="none" stroke="#191970" d="M1500.6715,-265.7387C1514.1486,-263.0679 1527.9019,-257.9549 1538,-248.5 1579.2679,-209.8606 1533.8524,-166.3023 1574,-126.5 1577.983,-122.5513 1582.6884,-119.3706 1587.7461,-116.8103"/>
<polygon fill="#191970" stroke="#191970" points="1589.2993,-119.9538 1597.1506,-112.8399 1586.5767,-113.5049 1589.2993,-119.9538"/>
</g>
<!-- Node28&#45;&gt;Node25 -->
<g id="edge39" class="edge">
<title>Node28&#45;&gt;Node25</title>
<path fill="none" stroke="#191970" d="M716.7116,-392.9911C815.7325,-388.7121 996.2218,-377.6543 1148,-350.5 1244.9711,-333.1511 1355.9126,-299.4085 1413.7257,-280.7328"/>
<polygon fill="#191970" stroke="#191970" points="1415.1223,-283.9592 1423.5501,-277.5387 1412.9579,-277.3022 1415.1223,-283.9592"/>
</g>
<!-- Node30&#45;&gt;Node25 -->
<g id="edge46" class="edge">
<title>Node30&#45;&gt;Node25</title>
<path fill="none" stroke="#191970" d="M324.5296,-272.5029C401.2743,-265.107 530.8091,-254.5 642.5,-254.5 642.5,-254.5 642.5,-254.5 1068.5,-254.5 1184.9105,-254.5 1321.0074,-260.51 1396.2021,-264.3572"/>
<polygon fill="#191970" stroke="#191970" points="1396.2323,-267.8634 1406.3998,-264.8849 1396.5941,-260.8727 1396.2323,-267.8634"/>
</g>
<!-- Node31 -->
<g id="node31" class="node">
<title>Node31</title>
<g id="a_node31"><a xlink:href="../../d0/d6c/classFairRootManager.html#a4cbf8eb4beac9c6b787417d0fa9d910d" target="_top" xlink:title="FairRootManager::SaveAll\lContainers">
<polygon fill="none" stroke="#000000" points="367.5,-297.5 367.5,-329.5 512.5,-329.5 512.5,-297.5 367.5,-297.5"/>
<text text-anchor="start" x="375.5" y="-316.5" font-family="FreeSans" font-size="10.00" fill="#000000">FairRootManager::SaveAll</text>
<text text-anchor="middle" x="440" y="-304.5" font-family="FreeSans" font-size="10.00" fill="#000000">Containers</text>
</a>
</g>
</g>
<!-- Node30&#45;&gt;Node31 -->
<g id="edge42" class="edge">
<title>Node30&#45;&gt;Node31</title>
<path fill="none" stroke="#191970" d="M311.2689,-289.5172C325.6726,-292.2007 341.5844,-295.165 357.1661,-298.0679"/>
<polygon fill="#191970" stroke="#191970" points="356.8667,-301.5723 367.3386,-299.9631 358.1488,-294.6907 356.8667,-301.5723"/>
</g>
<!-- Node31&#45;&gt;Node8 -->
<g id="edge44" class="edge">
<title>Node31&#45;&gt;Node8</title>
<path fill="none" stroke="#191970" d="M512.5352,-326.7533C523.0487,-328.6743 534.0125,-330.6776 544.9194,-332.6705"/>
<polygon fill="#191970" stroke="#191970" points="544.4392,-336.1406 554.9054,-334.4951 545.6974,-329.2546 544.4392,-336.1406"/>
</g>
<!-- Node31&#45;&gt;Node28 -->
<g id="edge45" class="edge">
<title>Node31&#45;&gt;Node28</title>
<path fill="none" stroke="#191970" d="M470.4464,-329.591C483.6423,-336.7169 499.1994,-345.323 513,-353.5 529.3347,-363.1785 531.3996,-369.3782 549,-376.5 554.8445,-378.8649 561.018,-380.9466 567.2934,-382.777"/>
<polygon fill="#191970" stroke="#191970" points="566.6396,-386.2257 577.2061,-385.4512 568.4629,-379.4673 566.6396,-386.2257"/>
</g>
<!-- Node32 -->
<g id="node32" class="node">
<title>Node32</title>
<g id="a_node32"><a xlink:href="../../d0/d6c/classFairRootManager.html#a2de2cda99946c6539e4f7225fca9cada" target="_top" xlink:title="FairRootManager::DataContainers\lEmpty">
<polygon fill="none" stroke="#000000" points="549,-283.5 549,-315.5 736,-315.5 736,-283.5 549,-283.5"/>
<text text-anchor="start" x="557" y="-302.5" font-family="FreeSans" font-size="10.00" fill="#000000">FairRootManager::DataContainers</text>
<text text-anchor="middle" x="642.5" y="-290.5" font-family="FreeSans" font-size="10.00" fill="#000000">Empty</text>
</a>
</g>
</g>
<!-- Node31&#45;&gt;Node32 -->
<g id="edge43" class="edge">
<title>Node31&#45;&gt;Node32</title>
<path fill="none" stroke="#191970" d="M512.5352,-308.4852C521.1105,-307.8924 529.9854,-307.2788 538.8847,-306.6635"/>
<polygon fill="#191970" stroke="#191970" points="539.1933,-310.1506 548.928,-305.9692 538.7104,-303.1673 539.1933,-310.1506"/>
</g>
<!-- Node34 -->
<g id="node34" class="node">
<title>Node34</title>
<g id="a_node34"><a xlink:href="../../d2/df2/classFairRunInfo.html#af59b7932f8de6c1f3127ab49c994143e" target="_top" xlink:title="FairRunInfo::CreateAndFill\lHistograms">
<polygon fill="none" stroke="#000000" points="367,-193.5 367,-225.5 513,-225.5 513,-193.5 367,-193.5"/>
<text text-anchor="start" x="375" y="-212.5" font-family="FreeSans" font-size="10.00" fill="#000000">FairRunInfo::CreateAndFill</text>
<text text-anchor="middle" x="440" y="-200.5" font-family="FreeSans" font-size="10.00" fill="#000000">Histograms</text>
</a>
</g>
</g>
<!-- Node33&#45;&gt;Node34 -->
<g id="edge48" class="edge">
<title>Node33&#45;&gt;Node34</title>
<path fill="none" stroke="#191970" d="M320.0508,-227.9032C331.9379,-226.0794 344.5484,-224.1446 356.955,-222.2412"/>
<polygon fill="#191970" stroke="#191970" points="357.4898,-225.7001 366.8434,-220.724 356.4282,-218.7811 357.4898,-225.7001"/>
</g>
<!-- Node35 -->
<g id="node35" class="node">
<title>Node35</title>
<g id="a_node35"><a xlink:href="../../d2/df2/classFairRunInfo.html#a85132071d7c435b0ccce3aca2f2bfac3" target="_top" xlink:title="FairRunInfo::WriteHistos\lToFile">
<polygon fill="none" stroke="#000000" points="371.5,-53.5 371.5,-85.5 508.5,-85.5 508.5,-53.5 371.5,-53.5"/>
<text text-anchor="start" x="379.5" y="-72.5" font-family="FreeSans" font-size="10.00" fill="#000000">FairRunInfo::WriteHistos</text>
<text text-anchor="middle" x="440" y="-60.5" font-family="FreeSans" font-size="10.00" fill="#000000">ToFile</text>
</a>
</g>
</g>
<!-- Node33&#45;&gt;Node35 -->
<g id="edge49" class="edge">
<title>Node33&#45;&gt;Node35</title>
<path fill="none" stroke="#191970" d="M313.4697,-227.4334C319.6644,-225.0595 325.6556,-222.1257 331,-218.5 355.3289,-201.995 400.7643,-132.6287 424.562,-94.6392"/>
<polygon fill="#191970" stroke="#191970" points="427.8079,-96.0476 430.1201,-85.7082 421.8648,-92.349 427.8079,-96.0476"/>
</g>
<!-- Node35&#45;&gt;Node24 -->
<g id="edge50" class="edge">
<title>Node35&#45;&gt;Node24</title>
<path fill="none" stroke="#191970" d="M508.7468,-74.492C592.3215,-80.1214 737.6778,-88.5 862.5,-88.5 862.5,-88.5 862.5,-88.5 1068.5,-88.5 1181.1739,-88.5 1312.3957,-88.0664 1388.8832,-87.7702"/>
<polygon fill="#191970" stroke="#191970" points="1389.3189,-91.2687 1399.3051,-87.7294 1389.2914,-84.2687 1389.3189,-91.2687"/>
</g>
<!-- Node36 -->
<g id="node36" class="node">
<title>Node36</title>
<g id="a_node36"><a xlink:href="../../dd/dd2/classFairRun.html#a32e8a29a693ab357d4ce2b56a6cbc3a0" target="_top" xlink:title="FairRun::Instance">
<polygon fill="none" stroke="#000000" points="591,-.5 591,-20.5 694,-20.5 694,-.5 591,-.5"/>
<text text-anchor="middle" x="642.5" y="-7.5" font-family="FreeSans" font-size="10.00" fill="#000000">FairRun::Instance</text>
</a>
</g>
</g>
<!-- Node35&#45;&gt;Node36 -->
<g id="edge51" class="edge">
<title>Node35&#45;&gt;Node36</title>
<path fill="none" stroke="#191970" d="M479.3884,-53.4081C499.8987,-45.4487 525.5331,-36.149 549,-29.5 559.1449,-26.6256 570.0258,-24.0059 580.6493,-21.692"/>
<polygon fill="#191970" stroke="#191970" points="581.6602,-25.0559 590.7235,-19.5688 580.2166,-18.2064 581.6602,-25.0559"/>
</g>
<!-- Node37 -->
<g id="node37" class="node">
<title>Node37</title>
<g id="a_node37"><a xlink:href="../../dd/dd2/classFairRun.html#a09dacf683861bbef4409df4bd012353c" target="_top" xlink:title="FairRun::GetOutputFile">
<polygon fill="none" stroke="#000000" points="577.5,-39.5 577.5,-59.5 707.5,-59.5 707.5,-39.5 577.5,-39.5"/>
<text text-anchor="middle" x="642.5" y="-46.5" font-family="FreeSans" font-size="10.00" fill="#000000">FairRun::GetOutputFile</text>
</a>
</g>
</g>
<!-- Node35&#45;&gt;Node37 -->
<g id="edge52" class="edge">
<title>Node35&#45;&gt;Node37</title>
<path fill="none" stroke="#191970" d="M508.5573,-62.7289C527.5126,-60.8568 548.1806,-58.8155 567.4824,-56.9091"/>
<polygon fill="#191970" stroke="#191970" points="567.8277,-60.3922 577.4352,-55.9262 567.1396,-53.4261 567.8277,-60.3922"/>
</g>
</g>
</svg>
