<?xml version="1.0" encoding="UTF-8" standalone="no"?>
<!DOCTYPE svg PUBLIC "-//W3C//DTD SVG 1.1//EN"
 "http://www.w3.org/Graphics/SVG/1.1/DTD/svg11.dtd">
<!-- Generated by graphviz version 2.40.1 (20161225.0304)
 -->
<!-- Title: fun4all_eicmacros/blob/master/common/G4_mRICH.C Pages: 1 -->
<svg width="1628pt" height="407pt"
 viewBox="0.00 0.00 1628.00 407.00" xmlns="http://www.w3.org/2000/svg" xmlns:xlink="http://www.w3.org/1999/xlink">
<g id="graph0" class="graph" transform="scale(1 1) rotate(0) translate(4 403)">
<title>fun4all_eicmacros/blob/master/common/G4_mRICH.C</title>
<!-- Node1 -->
<g id="node1" class="node">
<title>Node1</title>
<polygon fill="#bfbfbf" stroke="#000000" points="330.5,-366.5 330.5,-398.5 501.5,-398.5 501.5,-366.5 330.5,-366.5"/>
<text text-anchor="start" x="338.5" y="-385.5" font-family="FreeSans" font-size="10.00" fill="#000000">fun4all_eicmacros/blob</text>
<text text-anchor="middle" x="416" y="-373.5" font-family="FreeSans" font-size="10.00" fill="#000000">/master/common/G4_mRICH.C</text>
</g>
<!-- Node2 -->
<g id="node2" class="node">
<title>Node2</title>
<polygon fill="none" stroke="#bfbfbf" points="221.5,-309.5 221.5,-329.5 326.5,-329.5 326.5,-309.5 221.5,-309.5"/>
<text text-anchor="middle" x="274" y="-316.5" font-family="FreeSans" font-size="10.00" fill="#000000">GlobalVariables.C</text>
</g>
<!-- Node1&#45;&gt;Node2 -->
<g id="edge1" class="edge">
<title>Node1&#45;&gt;Node2</title>
<path fill="none" stroke="#191970" d="M379.8,-366.4394C357.0383,-356.3409 327.9369,-343.4298 306.0185,-333.7054"/>
<polygon fill="#191970" stroke="#191970" points="307.3639,-330.4733 296.8037,-329.6171 304.525,-336.8719 307.3639,-330.4733"/>
</g>
<!-- Node3 -->
<g id="node3" class="node">
<title>Node3</title>
<g id="a_node3"><a xlink:href="../../d0/d2b/PHG4Reco_8h.html" target="_top" xlink:title="g4main/PHG4Reco.h">
<polygon fill="none" stroke="#000000" points="244.5,-177.5 244.5,-197.5 363.5,-197.5 363.5,-177.5 244.5,-177.5"/>
<text text-anchor="middle" x="304" y="-184.5" font-family="FreeSans" font-size="10.00" fill="#000000">g4main/PHG4Reco.h</text>
</a>
</g>
</g>
<!-- Node1&#45;&gt;Node3 -->
<g id="edge2" class="edge">
<title>Node1&#45;&gt;Node3</title>
<path fill="none" stroke="#191970" d="M401.4028,-366.1751C392.8367,-356.1486 382.1331,-342.8104 374,-330 347.5381,-288.3199 323.8374,-235.2045 311.9884,-207.0602"/>
<polygon fill="#191970" stroke="#191970" points="315.1154,-205.464 308.0464,-197.5722 308.6511,-208.1497 315.1154,-205.464"/>
</g>
<!-- Node11 -->
<g id="node11" class="node">
<title>Node11</title>
<g id="a_node11"><a xlink:href="../../db/dfe/PHG4mRICHSubsystem_8h.html" target="_top" xlink:title="g4mrich/PHG4mRICHSubsystem.h">
<polygon fill="none" stroke="#000000" points="383.5,-309.5 383.5,-329.5 572.5,-329.5 572.5,-309.5 383.5,-309.5"/>
<text text-anchor="middle" x="478" y="-316.5" font-family="FreeSans" font-size="10.00" fill="#000000">g4mrich/PHG4mRICHSubsystem.h</text>
</a>
</g>
</g>
<!-- Node1&#45;&gt;Node11 -->
<g id="edge12" class="edge">
<title>Node1&#45;&gt;Node11</title>
<path fill="none" stroke="#191970" d="M431.9665,-366.2759C440.8242,-357.2754 451.8425,-346.0794 460.8785,-336.8977"/>
<polygon fill="#191970" stroke="#191970" points="463.3917,-339.3337 467.9114,-329.7513 458.4025,-334.4237 463.3917,-339.3337"/>
</g>
<!-- Node17 -->
<g id="node17" class="node">
<title>Node17</title>
<g id="a_node17"><a xlink:href="../../dd/d3d/PHG4TrackFastSim_8h.html" target="_top" xlink:title="Kalman Filter based on smeared truth PHG4Hit.">
<polygon fill="none" stroke="#000000" points="1113,-171.5 1113,-203.5 1263,-203.5 1263,-171.5 1113,-171.5"/>
<text text-anchor="start" x="1121" y="-190.5" font-family="FreeSans" font-size="10.00" fill="#000000">g4trackfastsim/PHG4Track</text>
<text text-anchor="middle" x="1188" y="-178.5" font-family="FreeSans" font-size="10.00" fill="#000000">FastSim.h</text>
</a>
</g>
</g>
<!-- Node1&#45;&gt;Node17 -->
<g id="edge22" class="edge">
<title>Node1&#45;&gt;Node17</title>
<path fill="none" stroke="#191970" d="M479.504,-366.4595C621.4179,-330.6134 963.6227,-244.1756 1114.4732,-206.0722"/>
<polygon fill="#191970" stroke="#191970" points="1115.7253,-209.3659 1124.5636,-203.5234 1114.011,-202.5791 1115.7253,-209.3659"/>
</g>
<!-- Node4 -->
<g id="node4" class="node">
<title>Node4</title>
<g id="a_node4"><a xlink:href="../../d9/d5f/EDecayType_8hh.html" target="_top" xlink:title="g4decayer/EDecayType.hh">
<polygon fill="none" stroke="#000000" points="202,-114.5 202,-134.5 352,-134.5 352,-114.5 202,-114.5"/>
<text text-anchor="middle" x="277" y="-121.5" font-family="FreeSans" font-size="10.00" fill="#000000">g4decayer/EDecayType.hh</text>
</a>
</g>
</g>
<!-- Node3&#45;&gt;Node4 -->
<g id="edge3" class="edge">
<title>Node3&#45;&gt;Node4</title>
<path fill="none" stroke="#191970" d="M299.662,-177.378C295.8272,-168.4302 290.125,-155.125 285.3999,-144.0999"/>
<polygon fill="#191970" stroke="#191970" points="288.5732,-142.6189 281.4169,-134.8062 282.1392,-145.3764 288.5732,-142.6189"/>
</g>
<!-- Node5 -->
<g id="node5" class="node">
<title>Node5</title>
<g id="a_node5"><a xlink:href="../../d5/dc2/SubsysReco_8h.html" target="_top" xlink:title="fun4all/SubsysReco.h">
<polygon fill="none" stroke="#000000" points="600,-114.5 600,-134.5 724,-134.5 724,-114.5 600,-114.5"/>
<text text-anchor="middle" x="662" y="-121.5" font-family="FreeSans" font-size="10.00" fill="#000000">fun4all/SubsysReco.h</text>
</a>
</g>
</g>
<!-- Node3&#45;&gt;Node5 -->
<g id="edge4" class="edge">
<title>Node3&#45;&gt;Node5</title>
<path fill="none" stroke="#191970" d="M361.122,-177.4478C424.7759,-166.2461 527.5889,-148.1534 594.9912,-136.292"/>
<polygon fill="#191970" stroke="#191970" points="595.8394,-139.6967 605.0814,-134.5164 594.6261,-132.8026 595.8394,-139.6967"/>
</g>
<!-- Node8 -->
<g id="node8" class="node">
<title>Node8</title>
<polygon fill="none" stroke="#bfbfbf" points="471.5,-.5 471.5,-20.5 516.5,-20.5 516.5,-.5 471.5,-.5"/>
<text text-anchor="middle" x="494" y="-7.5" font-family="FreeSans" font-size="10.00" fill="#000000">string</text>
</g>
<!-- Node3&#45;&gt;Node8 -->
<g id="edge11" class="edge">
<title>Node3&#45;&gt;Node8</title>
<path fill="none" stroke="#191970" d="M317.3681,-177.2853C329.7141,-167.3966 348.0468,-151.5138 361,-135 385.4312,-103.8531 375.6344,-84.6117 404,-57 420.3443,-41.0901 443.2269,-29.3661 461.8283,-21.6701"/>
<polygon fill="#191970" stroke="#191970" points="463.357,-24.8297 471.38,-17.91 460.7929,-18.3163 463.357,-24.8297"/>
</g>
<!-- Node9 -->
<g id="node9" class="node">
<title>Node9</title>
<polygon fill="none" stroke="#bfbfbf" points="0,-114.5 0,-134.5 134,-134.5 134,-114.5 0,-114.5"/>
<text text-anchor="middle" x="67" y="-121.5" font-family="FreeSans" font-size="10.00" fill="#000000">phfield/PHFieldConfig.h</text>
</g>
<!-- Node3&#45;&gt;Node9 -->
<g id="edge9" class="edge">
<title>Node3&#45;&gt;Node9</title>
<path fill="none" stroke="#191970" d="M266.1846,-177.4478C224.9969,-166.4992 159.0432,-148.9672 114.4195,-137.1052"/>
<polygon fill="#191970" stroke="#191970" points="115.2443,-133.7029 104.6807,-134.5164 113.4459,-140.468 115.2443,-133.7029"/>
</g>
<!-- Node10 -->
<g id="node10" class="node">
<title>Node10</title>
<polygon fill="none" stroke="#bfbfbf" points="152,-114.5 152,-134.5 184,-134.5 184,-114.5 152,-114.5"/>
<text text-anchor="middle" x="168" y="-121.5" font-family="FreeSans" font-size="10.00" fill="#000000">list</text>
</g>
<!-- Node3&#45;&gt;Node10 -->
<g id="edge10" class="edge">
<title>Node3&#45;&gt;Node10</title>
<path fill="none" stroke="#191970" d="M282.1492,-177.378C258.0208,-166.2008 219.2148,-148.2245 193.6596,-136.3865"/>
<polygon fill="#191970" stroke="#191970" points="194.7935,-133.0545 184.2486,-132.0269 191.8512,-139.4061 194.7935,-133.0545"/>
</g>
<!-- Node6 -->
<g id="node6" class="node">
<title>Node6</title>
<g id="a_node6"><a xlink:href="../../d2/de7/Fun4AllBase_8h.html" target="_top" xlink:title="Fun4AllBase.h">
<polygon fill="none" stroke="#000000" points="618.5,-57.5 618.5,-77.5 705.5,-77.5 705.5,-57.5 618.5,-57.5"/>
<text text-anchor="middle" x="662" y="-64.5" font-family="FreeSans" font-size="10.00" fill="#000000">Fun4AllBase.h</text>
</a>
</g>
</g>
<!-- Node5&#45;&gt;Node6 -->
<g id="edge5" class="edge">
<title>Node5&#45;&gt;Node6</title>
<path fill="none" stroke="#191970" d="M662,-114.3095C662,-106.9335 662,-96.72 662,-87.715"/>
<polygon fill="#191970" stroke="#191970" points="665.5001,-87.6022 662,-77.6022 658.5001,-87.6023 665.5001,-87.6022"/>
</g>
<!-- Node5&#45;&gt;Node8 -->
<g id="edge8" class="edge">
<title>Node5&#45;&gt;Node8</title>
<path fill="none" stroke="#191970" d="M647.0911,-114.3833C617.8992,-94.5744 552.9879,-50.5275 517.7935,-26.6456"/>
<polygon fill="#191970" stroke="#191970" points="519.357,-23.4768 509.117,-20.7579 515.4265,-29.2692 519.357,-23.4768"/>
</g>
<!-- Node7 -->
<g id="node7" class="node">
<title>Node7</title>
<polygon fill="none" stroke="#bfbfbf" points="1039.5,-.5 1039.5,-20.5 1088.5,-20.5 1088.5,-.5 1039.5,-.5"/>
<text text-anchor="middle" x="1064" y="-7.5" font-family="FreeSans" font-size="10.00" fill="#000000">climits</text>
</g>
<!-- Node6&#45;&gt;Node7 -->
<g id="edge6" class="edge">
<title>Node6&#45;&gt;Node7</title>
<path fill="none" stroke="#191970" d="M705.7863,-61.2915C786.2782,-49.8785 956.197,-25.7855 1029.3282,-15.4162"/>
<polygon fill="#191970" stroke="#191970" points="1029.984,-18.8583 1039.3935,-13.989 1029.0012,-11.9276 1029.984,-18.8583"/>
</g>
<!-- Node6&#45;&gt;Node8 -->
<g id="edge7" class="edge">
<title>Node6&#45;&gt;Node8</title>
<path fill="none" stroke="#191970" d="M632.3517,-57.4408C602.6461,-47.3621 557.0482,-31.8914 526.4039,-21.4942"/>
<polygon fill="#191970" stroke="#191970" points="527.2236,-18.0764 516.6293,-18.1778 524.9745,-24.7052 527.2236,-18.0764"/>
</g>
<!-- Node11&#45;&gt;Node8 -->
<g id="edge21" class="edge">
<title>Node11&#45;&gt;Node8</title>
<path fill="none" stroke="#191970" d="M469.6573,-309.2768C453.1709,-288.0037 418,-236.8391 418,-187.5 418,-187.5 418,-187.5 418,-124.5 418,-84.4604 450.8584,-47.7878 473.3644,-27.3653"/>
<polygon fill="#191970" stroke="#191970" points="475.8796,-29.8155 481.1076,-20.6004 471.2741,-24.544 475.8796,-29.8155"/>
</g>
<!-- Node12 -->
<g id="node12" class="node">
<title>Node12</title>
<g id="a_node12"><a xlink:href="../../d8/d3a/PHG4DetectorSubsystem_8h.html" target="_top" xlink:title="g4detectors/PHG4Detector\lSubsystem.h">
<polygon fill="none" stroke="#000000" points="465,-240.5 465,-272.5 617,-272.5 617,-240.5 465,-240.5"/>
<text text-anchor="start" x="473" y="-259.5" font-family="FreeSans" font-size="10.00" fill="#000000">g4detectors/PHG4Detector</text>
<text text-anchor="middle" x="541" y="-247.5" font-family="FreeSans" font-size="10.00" fill="#000000">Subsystem.h</text>
</a>
</g>
</g>
<!-- Node11&#45;&gt;Node12 -->
<g id="edge13" class="edge">
<title>Node11&#45;&gt;Node12</title>
<path fill="none" stroke="#191970" d="M488.122,-309.378C496.0709,-301.4291 507.4586,-290.0414 517.6317,-279.8683"/>
<polygon fill="#191970" stroke="#191970" points="520.1618,-282.288 524.758,-272.742 515.212,-277.3382 520.1618,-282.288"/>
</g>
<!-- Node12&#45;&gt;Node8 -->
<g id="edge20" class="edge">
<title>Node12&#45;&gt;Node8</title>
<path fill="none" stroke="#191970" d="M509.9931,-240.2946C496.6215,-231.511 482.3785,-219.2975 475,-204 446.971,-145.8891 471.3868,-66.6881 485.5597,-30.282"/>
<polygon fill="#191970" stroke="#191970" points="488.8848,-31.3957 489.3971,-20.8133 482.3973,-28.7665 488.8848,-31.3957"/>
</g>
<!-- Node13 -->
<g id="node13" class="node">
<title>Node13</title>
<g id="a_node13"><a xlink:href="../../df/d1c/PHG4Subsystem_8h.html" target="_top" xlink:title="g4main/PHG4Subsystem.h">
<polygon fill="none" stroke="#000000" points="484.5,-177.5 484.5,-197.5 635.5,-197.5 635.5,-177.5 484.5,-177.5"/>
<text text-anchor="middle" x="560" y="-184.5" font-family="FreeSans" font-size="10.00" fill="#000000">g4main/PHG4Subsystem.h</text>
</a>
</g>
</g>
<!-- Node12&#45;&gt;Node13 -->
<g id="edge14" class="edge">
<title>Node12&#45;&gt;Node13</title>
<path fill="none" stroke="#191970" d="M545.4067,-240.4966C548.108,-230.6869 551.5892,-218.0445 554.474,-207.5681"/>
<polygon fill="#191970" stroke="#191970" points="557.9262,-208.2145 557.2067,-197.6441 551.1774,-206.3561 557.9262,-208.2145"/>
</g>
<!-- Node16 -->
<g id="node16" class="node">
<title>Node16</title>
<polygon fill="none" stroke="#bfbfbf" points="926.5,-114.5 926.5,-134.5 965.5,-134.5 965.5,-114.5 926.5,-114.5"/>
<text text-anchor="middle" x="946" y="-121.5" font-family="FreeSans" font-size="10.00" fill="#000000">map</text>
</g>
<!-- Node12&#45;&gt;Node16 -->
<g id="edge19" class="edge">
<title>Node12&#45;&gt;Node16</title>
<path fill="none" stroke="#191970" d="M592.5792,-240.4584C663.3623,-218.3059 794.7523,-176.6911 916.8544,-134.9701"/>
<polygon fill="#191970" stroke="#191970" points="918.0503,-138.2601 926.3773,-131.7094 915.7827,-131.6376 918.0503,-138.2601"/>
</g>
<!-- Node13&#45;&gt;Node5 -->
<g id="edge16" class="edge">
<title>Node13&#45;&gt;Node5</title>
<path fill="none" stroke="#191970" d="M576.3881,-177.378C592.7457,-167.2747 618.0978,-151.6161 636.9741,-139.9572"/>
<polygon fill="#191970" stroke="#191970" points="638.9839,-142.8297 645.6526,-134.5969 635.3054,-136.8741 638.9839,-142.8297"/>
</g>
<!-- Node13&#45;&gt;Node8 -->
<g id="edge18" class="edge">
<title>Node13&#45;&gt;Node8</title>
<path fill="none" stroke="#191970" d="M547.39,-177.2528C536.4137,-167.5762 521.0383,-152.0385 513,-135 496.9816,-101.0462 493.9035,-56.6316 493.6131,-31.0631"/>
<polygon fill="#191970" stroke="#191970" points="497.1138,-30.7558 493.6394,-20.7468 490.1139,-30.7378 497.1138,-30.7558"/>
</g>
<!-- Node14 -->
<g id="node14" class="node">
<title>Node14</title>
<g id="a_node14"><a xlink:href="../../da/dc1/Fun4AllReturnCodes_8h.html" target="_top" xlink:title="fun4all/Fun4AllReturnCodes.h">
<polygon fill="none" stroke="#000000" points="742,-114.5 742,-134.5 908,-134.5 908,-114.5 742,-114.5"/>
<text text-anchor="middle" x="825" y="-121.5" font-family="FreeSans" font-size="10.00" fill="#000000">fun4all/Fun4AllReturnCodes.h</text>
</a>
</g>
</g>
<!-- Node13&#45;&gt;Node14 -->
<g id="edge15" class="edge">
<title>Node13&#45;&gt;Node14</title>
<path fill="none" stroke="#191970" d="M602.2831,-177.4478C648.6271,-166.4302 723.0132,-148.7459 772.9188,-136.8816"/>
<polygon fill="#191970" stroke="#191970" points="773.9482,-140.2345 782.8676,-134.5164 772.3292,-133.4243 773.9482,-140.2345"/>
</g>
<!-- Node15 -->
<g id="node15" class="node">
<title>Node15</title>
<polygon fill="none" stroke="#bfbfbf" points="522,-114.5 522,-134.5 582,-134.5 582,-114.5 522,-114.5"/>
<text text-anchor="middle" x="552" y="-121.5" font-family="FreeSans" font-size="10.00" fill="#000000">iostream</text>
</g>
<!-- Node13&#45;&gt;Node15 -->
<g id="edge17" class="edge">
<title>Node13&#45;&gt;Node15</title>
<path fill="none" stroke="#191970" d="M558.7147,-177.378C557.6016,-168.6128 555.9576,-155.6662 554.5749,-144.7777"/>
<polygon fill="#191970" stroke="#191970" points="558.0407,-144.2856 553.3087,-134.8062 551.0964,-145.1675 558.0407,-144.2856"/>
</g>
<!-- Node17&#45;&gt;Node5 -->
<g id="edge23" class="edge">
<title>Node17&#45;&gt;Node5</title>
<path fill="none" stroke="#191970" d="M1112.6325,-179.5492C1024.4275,-170.0759 873.7031,-153.3662 734.3361,-135.1461"/>
<polygon fill="#191970" stroke="#191970" points="734.6928,-131.6629 724.3223,-133.8317 733.7818,-138.6034 734.6928,-131.6629"/>
</g>
<!-- Node17&#45;&gt;Node7 -->
<g id="edge28" class="edge">
<title>Node17&#45;&gt;Node7</title>
<path fill="none" stroke="#191970" d="M1263.0432,-182.6162C1331.0713,-176.4389 1424.0938,-163.0152 1447,-135 1452.9079,-127.7745 1452.6739,-121.4107 1447,-114 1404.1414,-58.0222 1184.9184,-25.3874 1098.7982,-14.5578"/>
<polygon fill="#191970" stroke="#191970" points="1099.0927,-11.0677 1088.7393,-13.3164 1098.2353,-18.015 1099.0927,-11.0677"/>
</g>
<!-- Node17&#45;&gt;Node8 -->
<g id="edge30" class="edge">
<title>Node17&#45;&gt;Node8</title>
<path fill="none" stroke="#191970" d="M1122.4299,-171.4009C1089.07,-162.3199 1048.2323,-149.8196 1013,-135 995.2132,-127.5184 993.0597,-120.7965 975,-114 863.8746,-72.1799 830.0844,-81.9436 714,-57 647.5352,-42.7184 569.6945,-26.3498 526.7097,-17.3421"/>
<polygon fill="#191970" stroke="#191970" points="527.319,-13.8938 516.8139,-15.2693 525.8839,-20.7451 527.319,-13.8938"/>
</g>
<!-- Node17&#45;&gt;Node16 -->
<g id="edge29" class="edge">
<title>Node17&#45;&gt;Node16</title>
<path fill="none" stroke="#191970" d="M1120.7873,-171.4801C1079.935,-161.5089 1026.7979,-148.1225 980,-135 978.5501,-134.5934 977.068,-134.1691 975.5731,-133.7341"/>
<polygon fill="#191970" stroke="#191970" points="976.3088,-130.3008 965.7249,-130.7827 974.2992,-137.0062 976.3088,-130.3008"/>
</g>
<!-- Node18 -->
<g id="node18" class="node">
<title>Node18</title>
<polygon fill="none" stroke="#bfbfbf" points="1022,-114.5 1022,-134.5 1134,-134.5 1134,-114.5 1022,-114.5"/>
<text text-anchor="middle" x="1078" y="-121.5" font-family="FreeSans" font-size="10.00" fill="#000000">TMatrixDSymfwd.h</text>
</g>
<!-- Node17&#45;&gt;Node18 -->
<g id="edge24" class="edge">
<title>Node17&#45;&gt;Node18</title>
<path fill="none" stroke="#191970" d="M1159.9577,-171.4394C1142.8789,-161.6579 1121.1926,-149.2376 1104.4181,-139.6304"/>
<polygon fill="#191970" stroke="#191970" points="1106.0819,-136.5499 1095.6648,-134.6171 1102.6029,-142.6242 1106.0819,-136.5499"/>
</g>
<!-- Node19 -->
<g id="node19" class="node">
<title>Node19</title>
<polygon fill="none" stroke="#bfbfbf" points="1152.5,-114.5 1152.5,-134.5 1223.5,-134.5 1223.5,-114.5 1152.5,-114.5"/>
<text text-anchor="middle" x="1188" y="-121.5" font-family="FreeSans" font-size="10.00" fill="#000000">TVector3.h</text>
</g>
<!-- Node17&#45;&gt;Node19 -->
<g id="edge25" class="edge">
<title>Node17&#45;&gt;Node19</title>
<path fill="none" stroke="#191970" d="M1188,-171.2759C1188,-163.2654 1188,-153.5159 1188,-144.9952"/>
<polygon fill="#191970" stroke="#191970" points="1191.5001,-144.7512 1188,-134.7513 1184.5001,-144.7513 1191.5001,-144.7512"/>
</g>
<!-- Node20 -->
<g id="node20" class="node">
<title>Node20</title>
<polygon fill="none" stroke="#bfbfbf" points="1242,-114.5 1242,-134.5 1340,-134.5 1340,-114.5 1242,-114.5"/>
<text text-anchor="middle" x="1291" y="-121.5" font-family="FreeSans" font-size="10.00" fill="#000000">phgenfit/Track.h</text>
</g>
<!-- Node17&#45;&gt;Node20 -->
<g id="edge26" class="edge">
<title>Node17&#45;&gt;Node20</title>
<path fill="none" stroke="#191970" d="M1214.2578,-171.4394C1230.1017,-161.7485 1250.1804,-149.4673 1265.8255,-139.898"/>
<polygon fill="#191970" stroke="#191970" points="1267.7548,-142.8208 1274.4593,-134.6171 1264.1023,-136.8492 1267.7548,-142.8208"/>
</g>
<!-- Node21 -->
<g id="node21" class="node">
<title>Node21</title>
<polygon fill="none" stroke="#bfbfbf" points="1358,-114.5 1358,-134.5 1438,-134.5 1438,-114.5 1358,-114.5"/>
<text text-anchor="middle" x="1398" y="-121.5" font-family="FreeSans" font-size="10.00" fill="#000000">gsl/gsl_rng.h</text>
</g>
<!-- Node17&#45;&gt;Node21 -->
<g id="edge27" class="edge">
<title>Node17&#45;&gt;Node21</title>
<path fill="none" stroke="#191970" d="M1241.5352,-171.4394C1276.6656,-160.9003 1322.0074,-147.2978 1354.8291,-137.4513"/>
<polygon fill="#191970" stroke="#191970" points="1356.0155,-140.7495 1364.588,-134.5236 1354.004,-134.0448 1356.0155,-140.7495"/>
</g>
<!-- Node22 -->
<g id="node22" class="node">
<title>Node22</title>
<polygon fill="none" stroke="#bfbfbf" points="1494.5,-114.5 1494.5,-134.5 1543.5,-134.5 1543.5,-114.5 1494.5,-114.5"/>
<text text-anchor="middle" x="1519" y="-121.5" font-family="FreeSans" font-size="10.00" fill="#000000">vector</text>
</g>
<!-- Node17&#45;&gt;Node22 -->
<g id="edge31" class="edge">
<title>Node17&#45;&gt;Node22</title>
<path fill="none" stroke="#191970" d="M1263.0653,-175.809C1322.2534,-166.1566 1406.7448,-151.4155 1480,-135 1481.454,-134.6742 1482.9353,-134.3301 1484.4294,-133.9731"/>
<polygon fill="#191970" stroke="#191970" points="1485.4773,-137.3185 1494.321,-131.4842 1483.7692,-130.5301 1485.4773,-137.3185"/>
</g>
<!-- Node23 -->
<g id="node23" class="node">
<title>Node23</title>
<polygon fill="none" stroke="#bfbfbf" points="1562,-114.5 1562,-134.5 1620,-134.5 1620,-114.5 1562,-114.5"/>
<text text-anchor="middle" x="1591" y="-121.5" font-family="FreeSans" font-size="10.00" fill="#000000">memory</text>
</g>
<!-- Node17&#45;&gt;Node23 -->
<g id="edge32" class="edge">
<title>Node17&#45;&gt;Node23</title>
<path fill="none" stroke="#191970" d="M1263.2839,-179.4965C1335.1827,-171.2106 1446.678,-156.6905 1551.8058,-135.0577"/>
<polygon fill="#191970" stroke="#191970" points="1552.5555,-138.4768 1561.6316,-133.0109 1551.1279,-131.6239 1552.5555,-138.4768"/>
</g>
</g>
</svg>
