<?xml version="1.0" encoding="UTF-8" standalone="no"?>
<!DOCTYPE svg PUBLIC "-//W3C//DTD SVG 1.1//EN"
 "http://www.w3.org/Graphics/SVG/1.1/DTD/svg11.dtd">
<!-- Generated by graphviz version 2.40.1 (20161225.0304)
 -->
<!-- Title: EicRoot/blob/master/eic/base/EicDigiParData.cxx Pages: 1 -->
<svg width="360pt" height="212pt"
 viewBox="0.00 0.00 359.50 212.00" xmlns="http://www.w3.org/2000/svg" xmlns:xlink="http://www.w3.org/1999/xlink">
<g id="graph0" class="graph" transform="scale(1 1) rotate(0) translate(4 208)">
<title>EicRoot/blob/master/eic/base/EicDigiParData.cxx</title>
<!-- Node1 -->
<g id="node1" class="node">
<title>Node1</title>
<polygon fill="#bfbfbf" stroke="#000000" points="60.5,-171.5 60.5,-203.5 221.5,-203.5 221.5,-171.5 60.5,-171.5"/>
<text text-anchor="start" x="68.5" y="-190.5" font-family="FreeSans" font-size="10.00" fill="#000000">EicRoot/blob/master</text>
<text text-anchor="middle" x="141" y="-178.5" font-family="FreeSans" font-size="10.00" fill="#000000">/eic/base/EicDigiParData.cxx</text>
</g>
<!-- Node2 -->
<g id="node2" class="node">
<title>Node2</title>
<polygon fill="none" stroke="#bfbfbf" points="41,-114.5 41,-134.5 91,-134.5 91,-114.5 41,-114.5"/>
<text text-anchor="middle" x="66" y="-121.5" font-family="FreeSans" font-size="10.00" fill="#000000">TFile.h</text>
</g>
<!-- Node1&#45;&gt;Node2 -->
<g id="edge1" class="edge">
<title>Node1&#45;&gt;Node2</title>
<path fill="none" stroke="#191970" d="M121.6856,-171.2759C110.7564,-162.0954 97.1079,-150.6307 86.0586,-141.3492"/>
<polygon fill="#191970" stroke="#191970" points="88.1122,-138.5033 78.2039,-134.7513 83.6098,-143.8632 88.1122,-138.5033"/>
</g>
<!-- Node3 -->
<g id="node3" class="node">
<title>Node3</title>
<g id="a_node3"><a xlink:href="../../df/d06/FairRun_8h.html" target="_top" xlink:title="FairRun.h">
<polygon fill="none" stroke="#000000" points="109.5,-114.5 109.5,-134.5 172.5,-134.5 172.5,-114.5 109.5,-114.5"/>
<text text-anchor="middle" x="141" y="-121.5" font-family="FreeSans" font-size="10.00" fill="#000000">FairRun.h</text>
</a>
</g>
</g>
<!-- Node1&#45;&gt;Node3 -->
<g id="edge2" class="edge">
<title>Node1&#45;&gt;Node3</title>
<path fill="none" stroke="#191970" d="M141,-171.2759C141,-163.2654 141,-153.5159 141,-144.9952"/>
<polygon fill="#191970" stroke="#191970" points="144.5001,-144.7512 141,-134.7513 137.5001,-144.7513 144.5001,-144.7512"/>
</g>
<!-- Node10 -->
<g id="node10" class="node">
<title>Node10</title>
<g id="a_node10"><a xlink:href="../../dc/db4/EicDigiParData_8h.html" target="_top" xlink:title="EicDigiParData.h">
<polygon fill="none" stroke="#000000" points="191,-114.5 191,-134.5 291,-134.5 291,-114.5 191,-114.5"/>
<text text-anchor="middle" x="241" y="-121.5" font-family="FreeSans" font-size="10.00" fill="#000000">EicDigiParData.h</text>
</a>
</g>
</g>
<!-- Node1&#45;&gt;Node10 -->
<g id="edge9" class="edge">
<title>Node1&#45;&gt;Node10</title>
<path fill="none" stroke="#191970" d="M166.493,-171.4394C181.7317,-161.839 201.0053,-149.6967 216.1318,-140.167"/>
<polygon fill="#191970" stroke="#191970" points="218.3458,-142.9089 224.9411,-134.6171 214.6145,-136.9862 218.3458,-142.9089"/>
</g>
<!-- Node4 -->
<g id="node4" class="node">
<title>Node4</title>
<polygon fill="none" stroke="#bfbfbf" points="18.5,-57.5 18.5,-77.5 87.5,-77.5 87.5,-57.5 18.5,-57.5"/>
<text text-anchor="middle" x="53" y="-64.5" font-family="FreeSans" font-size="10.00" fill="#000000">TNamed.h</text>
</g>
<!-- Node3&#45;&gt;Node4 -->
<g id="edge3" class="edge">
<title>Node3&#45;&gt;Node4</title>
<path fill="none" stroke="#191970" d="M125.2674,-114.3095C111.8776,-105.6366 92.4312,-93.0407 77.0829,-83.0992"/>
<polygon fill="#191970" stroke="#191970" points="78.8924,-80.1011 68.5964,-77.6022 75.0868,-85.9764 78.8924,-80.1011"/>
</g>
<!-- Node5 -->
<g id="node5" class="node">
<title>Node5</title>
<g id="a_node5"><a xlink:href="../../d5/de4/FairLogger_8h.html" target="_top" xlink:title="FairLogger.h">
<polygon fill="none" stroke="#000000" points="105.5,-57.5 105.5,-77.5 182.5,-77.5 182.5,-57.5 105.5,-57.5"/>
<text text-anchor="middle" x="144" y="-64.5" font-family="FreeSans" font-size="10.00" fill="#000000">FairLogger.h</text>
</a>
</g>
</g>
<!-- Node3&#45;&gt;Node5 -->
<g id="edge4" class="edge">
<title>Node3&#45;&gt;Node5</title>
<path fill="none" stroke="#191970" d="M141.5363,-114.3095C141.9246,-106.9335 142.4621,-96.72 142.9361,-87.715"/>
<polygon fill="#191970" stroke="#191970" points="146.4378,-87.7724 143.4683,-77.6022 139.4475,-87.4044 146.4378,-87.7724"/>
</g>
<!-- Node6 -->
<g id="node6" class="node">
<title>Node6</title>
<polygon fill="none" stroke="#bfbfbf" points="0,-.5 0,-20.5 60,-20.5 60,-.5 0,-.5"/>
<text text-anchor="middle" x="30" y="-7.5" font-family="FreeSans" font-size="10.00" fill="#000000">Rtypes.h</text>
</g>
<!-- Node5&#45;&gt;Node6 -->
<g id="edge5" class="edge">
<title>Node5&#45;&gt;Node6</title>
<path fill="none" stroke="#191970" d="M123.8815,-57.4408C106.0028,-48.5014 79.6404,-35.3202 59.3991,-25.1996"/>
<polygon fill="#191970" stroke="#191970" points="60.8104,-21.9921 50.3008,-20.6504 57.6798,-28.2531 60.8104,-21.9921"/>
</g>
<!-- Node7 -->
<g id="node7" class="node">
<title>Node7</title>
<polygon fill="none" stroke="#bfbfbf" points="78.5,-.5 78.5,-20.5 135.5,-20.5 135.5,-.5 78.5,-.5"/>
<text text-anchor="middle" x="107" y="-7.5" font-family="FreeSans" font-size="10.00" fill="#000000">ostream</text>
</g>
<!-- Node5&#45;&gt;Node7 -->
<g id="edge6" class="edge">
<title>Node5&#45;&gt;Node7</title>
<path fill="none" stroke="#191970" d="M137.3851,-57.3095C132.3341,-49.5282 125.2332,-38.589 119.166,-29.2423"/>
<polygon fill="#191970" stroke="#191970" points="121.9381,-27.0844 113.5576,-20.6022 116.0666,-30.8957 121.9381,-27.0844"/>
</g>
<!-- Node8 -->
<g id="node8" class="node">
<title>Node8</title>
<polygon fill="none" stroke="#bfbfbf" points="153.5,-.5 153.5,-20.5 208.5,-20.5 208.5,-.5 153.5,-.5"/>
<text text-anchor="middle" x="181" y="-7.5" font-family="FreeSans" font-size="10.00" fill="#000000">fstream</text>
</g>
<!-- Node5&#45;&gt;Node8 -->
<g id="edge7" class="edge">
<title>Node5&#45;&gt;Node8</title>
<path fill="none" stroke="#191970" d="M150.6149,-57.3095C155.6659,-49.5282 162.7668,-38.589 168.834,-29.2423"/>
<polygon fill="#191970" stroke="#191970" points="171.9334,-30.8957 174.4424,-20.6022 166.0619,-27.0844 171.9334,-30.8957"/>
</g>
<!-- Node9 -->
<g id="node9" class="node">
<title>Node9</title>
<polygon fill="none" stroke="#bfbfbf" points="226.5,-.5 226.5,-20.5 283.5,-20.5 283.5,-.5 226.5,-.5"/>
<text text-anchor="middle" x="255" y="-7.5" font-family="FreeSans" font-size="10.00" fill="#000000">iomanip</text>
</g>
<!-- Node5&#45;&gt;Node9 -->
<g id="edge8" class="edge">
<title>Node5&#45;&gt;Node9</title>
<path fill="none" stroke="#191970" d="M163.5891,-57.4408C180.9185,-48.5419 206.4338,-35.4394 226.1066,-25.3371"/>
<polygon fill="#191970" stroke="#191970" points="227.9366,-28.332 235.2334,-20.6504 224.7389,-22.105 227.9366,-28.332"/>
</g>
<!-- Node11 -->
<g id="node11" class="node">
<title>Node11</title>
<polygon fill="none" stroke="#bfbfbf" points="205.5,-57.5 205.5,-77.5 270.5,-77.5 270.5,-57.5 205.5,-57.5"/>
<text text-anchor="middle" x="238" y="-64.5" font-family="FreeSans" font-size="10.00" fill="#000000">TObject.h</text>
</g>
<!-- Node10&#45;&gt;Node11 -->
<g id="edge10" class="edge">
<title>Node10&#45;&gt;Node11</title>
<path fill="none" stroke="#191970" d="M240.4637,-114.3095C240.0754,-106.9335 239.5379,-96.72 239.0639,-87.715"/>
<polygon fill="#191970" stroke="#191970" points="242.5525,-87.4044 238.5317,-77.6022 235.5622,-87.7724 242.5525,-87.4044"/>
</g>
<!-- Node12 -->
<g id="node12" class="node">
<title>Node12</title>
<polygon fill="none" stroke="#bfbfbf" points="288.5,-57.5 288.5,-77.5 351.5,-77.5 351.5,-57.5 288.5,-57.5"/>
<text text-anchor="middle" x="320" y="-64.5" font-family="FreeSans" font-size="10.00" fill="#000000">TString.h</text>
</g>
<!-- Node10&#45;&gt;Node12 -->
<g id="edge11" class="edge">
<title>Node10&#45;&gt;Node12</title>
<path fill="none" stroke="#191970" d="M255.1236,-114.3095C266.9193,-105.7987 283.9508,-93.5102 297.6037,-83.6594"/>
<polygon fill="#191970" stroke="#191970" points="299.9371,-86.2918 305.9987,-77.6022 295.8412,-80.6151 299.9371,-86.2918"/>
</g>
</g>
</svg>
