<?xml version="1.0" encoding="UTF-8" standalone="no"?>
<!DOCTYPE svg PUBLIC "-//W3C//DTD SVG 1.1//EN"
 "http://www.w3.org/Graphics/SVG/1.1/DTD/svg11.dtd">
<!-- Generated by graphviz version 2.40.1 (20161225.0304)
 -->
<!-- Title: Acts::Material::L0 Pages: 1 -->
<svg width="538pt" height="234pt"
 viewBox="0.00 0.00 538.00 234.00" xmlns="http://www.w3.org/2000/svg" xmlns:xlink="http://www.w3.org/1999/xlink">
<g id="graph0" class="graph" transform="scale(1 1) rotate(0) translate(4 230)">
<title>Acts::Material::L0</title>
<!-- Node1 -->
<g id="node1" class="node">
<title>Node1</title>
<polygon fill="#bfbfbf" stroke="#000000" points="0,-78.5 0,-98.5 105,-98.5 105,-78.5 0,-78.5"/>
<text text-anchor="middle" x="52.5" y="-85.5" font-family="FreeSans" font-size="10.00" fill="#000000">Acts::Material::L0</text>
</g>
<!-- Node2 -->
<g id="node2" class="node">
<title>Node2</title>
<g id="a_node2"><a xlink:href="../../d8/db5/classActs_1_1AccumulatedVolumeMaterial.html#a162cd40bcafee0cf911df641ec00e718" target="_top" xlink:title="Add one entry with the given material properties.">
<polygon fill="none" stroke="#000000" points="141,-168.5 141,-200.5 331,-200.5 331,-168.5 141,-168.5"/>
<text text-anchor="start" x="149" y="-187.5" font-family="FreeSans" font-size="10.00" fill="#000000">Acts::AccumulatedVolumeMaterial</text>
<text text-anchor="middle" x="236" y="-175.5" font-family="FreeSans" font-size="10.00" fill="#000000">::accumulate</text>
</a>
</g>
</g>
<!-- Node1&#45;&gt;Node2 -->
<g id="edge1" class="edge">
<title>Node1&#45;&gt;Node2</title>
<path fill="none" stroke="#191970" d="M69.4931,-105.8169C86.2615,-121.9535 113.335,-145.5611 141,-159.5 147.7776,-162.9149 155.0695,-165.898 162.492,-168.4962"/>
<polygon fill="#191970" stroke="#191970" points="71.7136,-103.0915 62.1318,-98.5706 66.803,-108.0801 71.7136,-103.0915"/>
</g>
<!-- Node5 -->
<g id="node5" class="node">
<title>Node5</title>
<g id="a_node5"><a xlink:href="../../dd/d7e/namespaceActs_1_1Test.html#aa6b0baf51651243f892e8fb2120845a5" target="_top" xlink:title="Acts::Test::BOOST_AUTO\l_TEST_CASE">
<polygon fill="none" stroke="#000000" points="165.5,-117.5 165.5,-149.5 306.5,-149.5 306.5,-117.5 165.5,-117.5"/>
<text text-anchor="start" x="173.5" y="-136.5" font-family="FreeSans" font-size="10.00" fill="#000000">Acts::Test::BOOST_AUTO</text>
<text text-anchor="middle" x="236" y="-124.5" font-family="FreeSans" font-size="10.00" fill="#000000">_TEST_CASE</text>
</a>
</g>
</g>
<!-- Node1&#45;&gt;Node5 -->
<g id="edge4" class="edge">
<title>Node1&#45;&gt;Node5</title>
<path fill="none" stroke="#191970" d="M103.5495,-101.019C124.2712,-106.1006 148.4667,-112.0341 170.4668,-117.4292"/>
<polygon fill="#191970" stroke="#191970" points="104.2268,-97.5814 93.681,-98.5989 102.5596,-104.38 104.2268,-97.5814"/>
</g>
<!-- Node6 -->
<g id="node6" class="node">
<title>Node6</title>
<g id="a_node6"><a xlink:href="../../db/dc8/MaterialPropertiesTests_8cpp.html#a2e277ce462e8722299d7cd281ef1291c" target="_top" xlink:title="BOOST_AUTO_TEST_CASE">
<polygon fill="none" stroke="#000000" points="162.5,-78.5 162.5,-98.5 309.5,-98.5 309.5,-78.5 162.5,-78.5"/>
<text text-anchor="middle" x="236" y="-85.5" font-family="FreeSans" font-size="10.00" fill="#000000">BOOST_AUTO_TEST_CASE</text>
</a>
</g>
</g>
<!-- Node1&#45;&gt;Node6 -->
<g id="edge5" class="edge">
<title>Node1&#45;&gt;Node6</title>
<path fill="none" stroke="#191970" d="M115.3239,-88.5C130.4171,-88.5 146.6736,-88.5 162.2145,-88.5"/>
<polygon fill="#191970" stroke="#191970" points="115.0838,-85.0001 105.0837,-88.5 115.0837,-92.0001 115.0838,-85.0001"/>
</g>
<!-- Node7 -->
<g id="node7" class="node">
<title>Node7</title>
<g id="a_node7"><a xlink:href="../../d7/d74/MaterialTests_8cpp.html#a485eb76f2003f1da21f65dc8b97bd395" target="_top" xlink:title="makeSiClassificationNumbers">
<polygon fill="none" stroke="#000000" points="153,-39.5 153,-59.5 319,-59.5 319,-39.5 153,-39.5"/>
<text text-anchor="middle" x="236" y="-46.5" font-family="FreeSans" font-size="10.00" fill="#000000">makeSiClassificationNumbers</text>
</a>
</g>
</g>
<!-- Node1&#45;&gt;Node7 -->
<g id="edge6" class="edge">
<title>Node1&#45;&gt;Node7</title>
<path fill="none" stroke="#191970" d="M109.2952,-76.2717C119.8338,-74.0126 130.7494,-71.6794 141,-69.5 156.3321,-66.2403 173.0619,-62.7095 188.1505,-59.5348"/>
<polygon fill="#191970" stroke="#191970" points="108.384,-72.8874 99.3407,-78.4074 109.8525,-79.7317 108.384,-72.8874"/>
</g>
<!-- Node9 -->
<g id="node9" class="node">
<title>Node9</title>
<g id="a_node9"><a xlink:href="../../da/d7b/namespaceActs.html#aa12edcaa0d2e0855219568de3447b8f0" target="_top" xlink:title="Acts::operator\&lt;\&lt;">
<polygon fill="none" stroke="#000000" points="183.5,-.5 183.5,-20.5 288.5,-20.5 288.5,-.5 183.5,-.5"/>
<text text-anchor="middle" x="236" y="-7.5" font-family="FreeSans" font-size="10.00" fill="#000000">Acts::operator&lt;&lt;</text>
</a>
</g>
</g>
<!-- Node1&#45;&gt;Node9 -->
<g id="edge8" class="edge">
<title>Node1&#45;&gt;Node9</title>
<path fill="none" stroke="#191970" d="M72.7028,-72.0834C89.8822,-58.9335 115.7197,-41.0046 141,-30.5 154.2297,-25.0027 169.1473,-20.9511 183.1735,-17.9911"/>
<polygon fill="#191970" stroke="#191970" points="70.2741,-69.5397 64.5571,-78.4597 74.5889,-75.0518 70.2741,-69.5397"/>
</g>
<!-- Node3 -->
<g id="node3" class="node">
<title>Node3</title>
<g id="a_node3"><a xlink:href="../../dd/d7e/namespaceActs_1_1Test.html#ae99dd1d4ac7e188fc034efb816b589ce" target="_top" xlink:title="Acts::Test::BOOST_AUTO\l_TEST_CASE">
<polygon fill="none" stroke="#000000" points="378,-193.5 378,-225.5 519,-225.5 519,-193.5 378,-193.5"/>
<text text-anchor="start" x="386" y="-212.5" font-family="FreeSans" font-size="10.00" fill="#000000">Acts::Test::BOOST_AUTO</text>
<text text-anchor="middle" x="448.5" y="-200.5" font-family="FreeSans" font-size="10.00" fill="#000000">_TEST_CASE</text>
</a>
</g>
</g>
<!-- Node2&#45;&gt;Node3 -->
<g id="edge2" class="edge">
<title>Node2&#45;&gt;Node3</title>
<path fill="none" stroke="#191970" d="M341.0233,-196.8557C353.466,-198.3195 365.9311,-199.786 377.736,-201.1748"/>
<polygon fill="#191970" stroke="#191970" points="341.4029,-193.3763 331.0624,-195.6838 340.5849,-200.3283 341.4029,-193.3763"/>
</g>
<!-- Node4 -->
<g id="node4" class="node">
<title>Node4</title>
<g id="a_node4"><a xlink:href="../../d8/d7e/classActs_1_1VolumeMaterialMapper.html#aef3b1deaca920e46f518cd05bc89e8a7" target="_top" xlink:title="Method to finalize the maps.">
<polygon fill="none" stroke="#000000" points="367,-142.5 367,-174.5 530,-174.5 530,-142.5 367,-142.5"/>
<text text-anchor="start" x="375" y="-161.5" font-family="FreeSans" font-size="10.00" fill="#000000">Acts::VolumeMaterialMapper</text>
<text text-anchor="middle" x="448.5" y="-149.5" font-family="FreeSans" font-size="10.00" fill="#000000">::finalizeMaps</text>
</a>
</g>
</g>
<!-- Node2&#45;&gt;Node4 -->
<g id="edge3" class="edge">
<title>Node2&#45;&gt;Node4</title>
<path fill="none" stroke="#191970" d="M341.1639,-171.6329C349.7842,-170.5782 358.414,-169.5223 366.8263,-168.493"/>
<polygon fill="#191970" stroke="#191970" points="340.5633,-168.1802 331.0624,-172.8688 341.4135,-175.1284 340.5633,-168.1802"/>
</g>
<!-- Node8 -->
<g id="node8" class="node">
<title>Node8</title>
<g id="a_node8"><a xlink:href="../../d7/d74/MaterialTests_8cpp.html#aff83a09c8d46954ad8a00177a07a4bc8" target="_top" xlink:title="BOOST_AUTO_TEST_CASE">
<polygon fill="none" stroke="#000000" points="375,-39.5 375,-59.5 522,-59.5 522,-39.5 375,-39.5"/>
<text text-anchor="middle" x="448.5" y="-46.5" font-family="FreeSans" font-size="10.00" fill="#000000">BOOST_AUTO_TEST_CASE</text>
</a>
</g>
</g>
<!-- Node7&#45;&gt;Node8 -->
<g id="edge7" class="edge">
<title>Node7&#45;&gt;Node8</title>
<path fill="none" stroke="#191970" d="M329.5039,-49.5C344.6771,-49.5 360.2022,-49.5 374.8172,-49.5"/>
<polygon fill="#191970" stroke="#191970" points="329.0711,-46.0001 319.071,-49.5 329.071,-53.0001 329.0711,-46.0001"/>
</g>
</g>
</svg>
