<?xml version="1.0" encoding="UTF-8" standalone="no"?>
<!DOCTYPE svg PUBLIC "-//W3C//DTD SVG 1.1//EN"
 "http://www.w3.org/Graphics/SVG/1.1/DTD/svg11.dtd">
<!-- Generated by graphviz version 2.40.1 (20161225.0304)
 -->
<!-- Title: fun4all_acts/blob/master/Core/include/Acts/Surfaces/detail Pages: 1 -->
<svg width="113pt" height="224pt"
 viewBox="0.00 0.00 112.50 224.00" xmlns="http://www.w3.org/2000/svg" xmlns:xlink="http://www.w3.org/1999/xlink">
<g id="graph0" class="graph" transform="scale(1 1) rotate(0) translate(4 220)">
<title>fun4all_acts/blob/master/Core/include/Acts/Surfaces/detail</title>
<g id="clust1" class="cluster">
<title>clusterdir_303d442a8d05c6677d449bf3719c5261</title>
<g id="a_clust1"><a xlink:href="dir_303d442a8d05c6677d449bf3719c5261.html" target="_top" xlink:title="Surfaces">
<polygon fill="#ddddee" stroke="#000000" points="26.5,-136 26.5,-208 96.5,-208 96.5,-136 26.5,-136"/>
<text text-anchor="middle" x="61.5" y="-195" font-family="FreeSans" font-size="10.00" fill="#000000">Surfaces</text>
</a>
</g>
</g>
<!-- dir_19b8139252abc4862b25d42d68923b5d -->
<g id="node1" class="node">
<title>dir_19b8139252abc4862b25d42d68923b5d</title>
<g id="a_node1"><a xlink:href="dir_19b8139252abc4862b25d42d68923b5d.html" target="_top" xlink:title="detail">
<polygon fill="#eeeeff" stroke="#000000" points="88.5,-180 34.5,-180 34.5,-144 88.5,-144 88.5,-180"/>
<text text-anchor="middle" x="61.5" y="-159" font-family="FreeSans" font-size="10.00" fill="#000000">detail</text>
</a>
</g>
</g>
<!-- dir_4ae4f6aa51f513a7137c3805eace14f1 -->
<g id="node2" class="node">
<title>dir_4ae4f6aa51f513a7137c3805eace14f1</title>
<g id="a_node2"><a xlink:href="dir_4ae4f6aa51f513a7137c3805eace14f1.html" target="_top" xlink:title="Utilities">
<polygon fill="none" stroke="#ff0000" points="60.5,-108 6.5,-108 6.5,-72 60.5,-72 60.5,-108"/>
<text text-anchor="middle" x="33.5" y="-87" font-family="FreeSans" font-size="10.00" fill="#000000">Utilities</text>
</a>
</g>
</g>
<!-- dir_19b8139252abc4862b25d42d68923b5d&#45;&gt;dir_4ae4f6aa51f513a7137c3805eace14f1 -->
<g id="edge3" class="edge">
<title>dir_19b8139252abc4862b25d42d68923b5d&#45;&gt;dir_4ae4f6aa51f513a7137c3805eace14f1</title>
<path fill="none" stroke="#000000" d="M54.4344,-143.8314C51.374,-135.9617 47.7221,-126.5712 44.3318,-117.8533"/>
<polygon fill="#000000" stroke="#000000" points="47.5473,-116.4647 40.6607,-108.4133 41.0232,-119.0019 47.5473,-116.4647"/>
<g id="a_edge3&#45;headlabel"><a xlink:href="dir_000222_000225.html" target="_top" xlink:title="4">
<text text-anchor="middle" x="51.4963" y="-115.7859" font-family="FreeSans" font-size="10.00" fill="#000000">4</text>
</a>
</g>
</g>
<!-- dir_0e000ba09f74190c6812df877db0bc04 -->
<g id="node3" class="node">
<title>dir_0e000ba09f74190c6812df877db0bc04</title>
<g id="a_node3"><a xlink:href="dir_0e000ba09f74190c6812df877db0bc04.html" target="_top" xlink:title="Geometry">
<polygon fill="none" stroke="#ff0000" points="67,-36 0,-36 0,0 67,0 67,-36"/>
<text text-anchor="middle" x="33.5" y="-15" font-family="FreeSans" font-size="10.00" fill="#000000">Geometry</text>
</a>
</g>
</g>
<!-- dir_19b8139252abc4862b25d42d68923b5d&#45;&gt;dir_0e000ba09f74190c6812df877db0bc04 -->
<g id="edge4" class="edge">
<title>dir_19b8139252abc4862b25d42d68923b5d&#45;&gt;dir_0e000ba09f74190c6812df877db0bc04</title>
<path fill="none" stroke="#000000" d="M67.0996,-143.6576C71.8299,-125.1725 76.7732,-96.0216 69.5,-72 66.5436,-62.2355 61.1748,-52.6229 55.47,-44.2762"/>
<polygon fill="#000000" stroke="#000000" points="58.2129,-42.0973 49.4905,-36.0831 52.5586,-46.2239 58.2129,-42.0973"/>
<g id="a_edge4&#45;headlabel"><a xlink:href="dir_000222_000214.html" target="_top" xlink:title="1">
<text text-anchor="middle" x="62.6253" y="-40.327" font-family="FreeSans" font-size="10.00" fill="#000000">1</text>
</a>
</g>
</g>
<!-- dir_4ae4f6aa51f513a7137c3805eace14f1&#45;&gt;dir_0e000ba09f74190c6812df877db0bc04 -->
<g id="edge1" class="edge">
<title>dir_4ae4f6aa51f513a7137c3805eace14f1&#45;&gt;dir_0e000ba09f74190c6812df877db0bc04</title>
<path fill="none" stroke="#000000" d="M27.5476,-71.8314C26.7972,-64.131 26.5763,-54.9743 26.8849,-46.4166"/>
<polygon fill="#000000" stroke="#000000" points="30.3792,-46.6161 27.524,-36.4133 23.3935,-46.1697 30.3792,-46.6161"/>
<g id="a_edge1&#45;headlabel"><a xlink:href="dir_000225_000214.html" target="_top" xlink:title="3">
<text text-anchor="middle" x="32.9836" y="-47.3844" font-family="FreeSans" font-size="10.00" fill="#000000">3</text>
</a>
</g>
</g>
<!-- dir_0e000ba09f74190c6812df877db0bc04&#45;&gt;dir_4ae4f6aa51f513a7137c3805eace14f1 -->
<g id="edge2" class="edge">
<title>dir_0e000ba09f74190c6812df877db0bc04&#45;&gt;dir_4ae4f6aa51f513a7137c3805eace14f1</title>
<path fill="none" stroke="#000000" d="M39.476,-36.4133C40.2071,-44.0593 40.4203,-53.1084 40.1155,-61.5726"/>
<polygon fill="#000000" stroke="#000000" points="36.6048,-61.6264 39.4524,-71.8314 43.5902,-62.078 36.6048,-61.6264"/>
<g id="a_edge2&#45;headlabel"><a xlink:href="dir_000214_000225.html" target="_top" xlink:title="80">
<text text-anchor="middle" x="34.0032" y="-54.8562" font-family="FreeSans" font-size="10.00" fill="#000000">80</text>
</a>
</g>
</g>
</g>
</svg>
