<?xml version="1.0" encoding="UTF-8" standalone="no"?>
<!DOCTYPE svg PUBLIC "-//W3C//DTD SVG 1.1//EN"
 "http://www.w3.org/Graphics/SVG/1.1/DTD/svg11.dtd">
<!-- Generated by graphviz version 2.40.1 (20161225.0304)
 -->
<!-- Title: fun4all_acts/blob/master/Fatras/include/ActsFatras/Physics/Scattering Pages: 1 -->
<svg width="131pt" height="304pt"
 viewBox="0.00 0.00 131.00 304.00" xmlns="http://www.w3.org/2000/svg" xmlns:xlink="http://www.w3.org/1999/xlink">
<g id="graph0" class="graph" transform="scale(1 1) rotate(0) translate(4 300)">
<title>fun4all_acts/blob/master/Fatras/include/ActsFatras/Physics/Scattering</title>
<g id="clust1" class="cluster">
<title>clusterdir_62561e9cdeb2b466419ddd70e350429d</title>
<g id="a_clust1"><a xlink:href="dir_62561e9cdeb2b466419ddd70e350429d.html" target="_top" xlink:title="Physics">
<polygon fill="#ddddee" stroke="#000000" points="8,-128 8,-288 108,-288 108,-128 8,-128"/>
<text text-anchor="middle" x="58" y="-275" font-family="FreeSans" font-size="10.00" fill="#000000">Physics</text>
</a>
</g>
</g>
<g id="clust2" class="cluster">
<title>clusterdir_c58bb94c11ad77431646b324b0053da2</title>
<g id="a_clust2"><a xlink:href="dir_c58bb94c11ad77431646b324b0053da2.html" target="_top">
<polygon fill="#eeeeff" stroke="#000000" points="16,-136 16,-260 100,-260 100,-136 16,-136"/>
</a>
</g>
</g>
<!-- dir_c58bb94c11ad77431646b324b0053da2 -->
<g id="node1" class="node">
<title>dir_c58bb94c11ad77431646b324b0053da2</title>
<text text-anchor="middle" x="58" y="-231" font-family="FreeSans" font-size="10.00" fill="#000000">Scattering</text>
</g>
<!-- dir_cd41e2f9a11213589e73ca9c4d575b6f -->
<g id="node2" class="node">
<title>dir_cd41e2f9a11213589e73ca9c4d575b6f</title>
<g id="a_node2"><a xlink:href="dir_cd41e2f9a11213589e73ca9c4d575b6f.html" target="_top" xlink:title="detail">
<polygon fill="#ffffff" stroke="#000000" points="85,-180 31,-180 31,-144 85,-144 85,-180"/>
<text text-anchor="middle" x="58" y="-159" font-family="FreeSans" font-size="10.00" fill="#000000">detail</text>
</a>
</g>
</g>
<!-- dir_c58bb94c11ad77431646b324b0053da2&#45;&gt;dir_cd41e2f9a11213589e73ca9c4d575b6f -->
<g id="edge4" class="edge">
<title>dir_c58bb94c11ad77431646b324b0053da2&#45;&gt;dir_cd41e2f9a11213589e73ca9c4d575b6f</title>
<path fill="none" stroke="#000000" d="M58,-215.8314C58,-208.131 58,-198.9743 58,-190.4166"/>
<polygon fill="#000000" stroke="#000000" points="61.5001,-190.4132 58,-180.4133 54.5001,-190.4133 61.5001,-190.4132"/>
<g id="a_edge4&#45;headlabel"><a xlink:href="dir_000426_000427.html" target="_top" xlink:title="3">
<text text-anchor="middle" x="64.3393" y="-191.0079" font-family="FreeSans" font-size="10.00" fill="#000000">3</text>
</a>
</g>
</g>
<!-- dir_edb9e86a382853b528ab6d291cec6611 -->
<g id="node3" class="node">
<title>dir_edb9e86a382853b528ab6d291cec6611</title>
<g id="a_node3"><a xlink:href="dir_edb9e86a382853b528ab6d291cec6611.html" target="_top" xlink:title="Core">
<polygon fill="none" stroke="#ff0000" points="85,-36 31,-36 31,0 85,0 85,-36"/>
<text text-anchor="middle" x="58" y="-15" font-family="FreeSans" font-size="10.00" fill="#000000">Core</text>
</a>
</g>
</g>
<!-- dir_cd41e2f9a11213589e73ca9c4d575b6f&#45;&gt;dir_edb9e86a382853b528ab6d291cec6611 -->
<g id="edge1" class="edge">
<title>dir_cd41e2f9a11213589e73ca9c4d575b6f&#45;&gt;dir_edb9e86a382853b528ab6d291cec6611</title>
<path fill="none" stroke="#000000" d="M52.8809,-143.6727C50.248,-133.2978 47.3204,-120.0284 46,-108 44.2541,-92.0955 44.2541,-87.9045 46,-72 46.9284,-63.5425 48.6514,-54.4715 50.5078,-46.2246"/>
<polygon fill="#000000" stroke="#000000" points="53.9527,-46.8678 52.8809,-36.3273 47.1456,-45.2356 53.9527,-46.8678"/>
<g id="a_edge1&#45;headlabel"><a xlink:href="dir_000427_000207.html" target="_top" xlink:title="3">
<text text-anchor="middle" x="55.8757" y="-48.0253" font-family="FreeSans" font-size="10.00" fill="#000000">3</text>
</a>
</g>
</g>
<!-- dir_fc7d9ce202c355fd4ecb99637c0942b0 -->
<g id="node4" class="node">
<title>dir_fc7d9ce202c355fd4ecb99637c0942b0</title>
<g id="a_node4"><a xlink:href="dir_fc7d9ce202c355fd4ecb99637c0942b0.html" target="_top" xlink:title="EventData">
<polygon fill="none" stroke="#000000" points="123,-108 55,-108 55,-72 123,-72 123,-108"/>
<text text-anchor="middle" x="89" y="-87" font-family="FreeSans" font-size="10.00" fill="#000000">EventData</text>
</a>
</g>
</g>
<!-- dir_cd41e2f9a11213589e73ca9c4d575b6f&#45;&gt;dir_fc7d9ce202c355fd4ecb99637c0942b0 -->
<g id="edge2" class="edge">
<title>dir_cd41e2f9a11213589e73ca9c4d575b6f&#45;&gt;dir_fc7d9ce202c355fd4ecb99637c0942b0</title>
<path fill="none" stroke="#000000" d="M65.8226,-143.8314C69.2109,-135.9617 73.2541,-126.5712 77.0076,-117.8533"/>
<polygon fill="#000000" stroke="#000000" points="80.3321,-118.9822 81.0721,-108.4133 73.9027,-116.214 80.3321,-118.9822"/>
<g id="a_edge2&#45;headlabel"><a xlink:href="dir_000427_000421.html" target="_top" xlink:title="1">
<text text-anchor="middle" x="81.5185" y="-120.4066" font-family="FreeSans" font-size="10.00" fill="#000000">1</text>
</a>
</g>
</g>
<!-- dir_fc7d9ce202c355fd4ecb99637c0942b0&#45;&gt;dir_edb9e86a382853b528ab6d291cec6611 -->
<g id="edge3" class="edge">
<title>dir_fc7d9ce202c355fd4ecb99637c0942b0&#45;&gt;dir_edb9e86a382853b528ab6d291cec6611</title>
<path fill="none" stroke="#000000" d="M81.1774,-71.8314C77.7891,-63.9617 73.7459,-54.5712 69.9924,-45.8533"/>
<polygon fill="#000000" stroke="#000000" points="73.0973,-44.214 65.9279,-36.4133 66.6679,-46.9822 73.0973,-44.214"/>
<g id="a_edge3&#45;headlabel"><a xlink:href="dir_000421_000207.html" target="_top" xlink:title="5">
<text text-anchor="middle" x="77.1266" y="-43.3928" font-family="FreeSans" font-size="10.00" fill="#000000">5</text>
</a>
</g>
</g>
</g>
</svg>
