<?xml version="1.0" encoding="UTF-8" standalone="no"?>
<!DOCTYPE svg PUBLIC "-//W3C//DTD SVG 1.1//EN"
 "http://www.w3.org/Graphics/SVG/1.1/DTD/svg11.dtd">
<!-- Generated by graphviz version 2.40.1 (20161225.0304)
 -->
<!-- Title: acts/blob/sPHENIX/Core/include/Acts/Geometry Pages: 1 -->
<svg width="217pt" height="232pt"
 viewBox="0.00 0.00 217.27 232.00" xmlns="http://www.w3.org/2000/svg" xmlns:xlink="http://www.w3.org/1999/xlink">
<g id="graph0" class="graph" transform="scale(1 1) rotate(0) translate(4 228)">
<title>acts/blob/sPHENIX/Core/include/Acts/Geometry</title>
<g id="clust1" class="cluster">
<title>clusterdir_d57f98349677e8790ccdb95befde5395</title>
<g id="a_clust1"><a xlink:href="dir_d57f98349677e8790ccdb95befde5395.html" target="_top" xlink:title="Acts">
<polygon fill="#ddddee" stroke="#000000" points="8,-56 8,-216 108,-216 108,-56 8,-56"/>
<text text-anchor="middle" x="58" y="-203" font-family="FreeSans" font-size="10.00" fill="#000000">Acts</text>
</a>
</g>
</g>
<g id="clust2" class="cluster">
<title>clusterdir_5a5fa5496a69281fe2792b7c42bfa923</title>
<g id="a_clust2"><a xlink:href="dir_5a5fa5496a69281fe2792b7c42bfa923.html" target="_top">
<polygon fill="#eeeeff" stroke="#000000" points="16,-64 16,-188 100,-188 100,-64 16,-64"/>
</a>
</g>
</g>
<!-- dir_5a5fa5496a69281fe2792b7c42bfa923 -->
<g id="node1" class="node">
<title>dir_5a5fa5496a69281fe2792b7c42bfa923</title>
<text text-anchor="middle" x="58" y="-159" font-family="FreeSans" font-size="10.00" fill="#000000">Geometry</text>
</g>
<!-- dir_cd8daf75ff661d56f3477529ad9f89f6 -->
<g id="node2" class="node">
<title>dir_cd8daf75ff661d56f3477529ad9f89f6</title>
<g id="a_node2"><a xlink:href="dir_cd8daf75ff661d56f3477529ad9f89f6.html" target="_top" xlink:title="detail">
<polygon fill="#ffffff" stroke="#000000" points="78,-108 24,-108 24,-72 78,-72 78,-108"/>
<text text-anchor="middle" x="51" y="-87" font-family="FreeSans" font-size="10.00" fill="#000000">detail</text>
</a>
</g>
</g>
<!-- dir_5a5fa5496a69281fe2792b7c42bfa923&#45;&gt;dir_cd8daf75ff661d56f3477529ad9f89f6 -->
<g id="edge6" class="edge">
<title>dir_5a5fa5496a69281fe2792b7c42bfa923&#45;&gt;dir_cd8daf75ff661d56f3477529ad9f89f6</title>
<path fill="none" stroke="#000000" d="M56.2336,-143.8314C55.485,-136.131 54.5947,-126.9743 53.7627,-118.4166"/>
<polygon fill="#000000" stroke="#000000" points="57.2415,-118.0276 52.7902,-108.4133 50.2744,-118.7051 57.2415,-118.0276"/>
<g id="a_edge6&#45;headlabel"><a xlink:href="dir_000009_000010.html" target="_top" xlink:title="3">
<text text-anchor="middle" x="60.4152" y="-118.3307" font-family="FreeSans" font-size="10.00" fill="#000000">3</text>
</a>
</g>
</g>
<!-- dir_c0f926bc8b1119a0b2e28789af4194e2 -->
<g id="node3" class="node">
<title>dir_c0f926bc8b1119a0b2e28789af4194e2</title>
<g id="a_node3"><a xlink:href="dir_c0f926bc8b1119a0b2e28789af4194e2.html" target="_top" xlink:title="Surfaces">
<polygon fill="none" stroke="#ff0000" points="194,-108 134,-108 134,-72 194,-72 194,-108"/>
<text text-anchor="middle" x="164" y="-87" font-family="FreeSans" font-size="10.00" fill="#000000">Surfaces</text>
</a>
</g>
</g>
<!-- dir_5a5fa5496a69281fe2792b7c42bfa923&#45;&gt;dir_c0f926bc8b1119a0b2e28789af4194e2 -->
<g id="edge7" class="edge">
<title>dir_5a5fa5496a69281fe2792b7c42bfa923&#45;&gt;dir_c0f926bc8b1119a0b2e28789af4194e2</title>
<path fill="none" stroke="#000000" d="M84.7483,-143.8314C98.0553,-134.7927 114.316,-123.7476 128.6375,-114.0198"/>
<polygon fill="#000000" stroke="#000000" points="130.9547,-116.677 137.2603,-108.1628 127.0215,-110.8864 130.9547,-116.677"/>
<g id="a_edge7&#45;headlabel"><a xlink:href="dir_000009_000030.html" target="_top" xlink:title="13">
<text text-anchor="middle" x="129.5765" y="-118.0454" font-family="FreeSans" font-size="10.00" fill="#000000">13</text>
</a>
</g>
</g>
<!-- dir_c03fb6b7504307bd5077243c1f13cf2d -->
<g id="node4" class="node">
<title>dir_c03fb6b7504307bd5077243c1f13cf2d</title>
<g id="a_node4"><a xlink:href="dir_c03fb6b7504307bd5077243c1f13cf2d.html" target="_top" xlink:title="Material">
<polygon fill="none" stroke="#ff0000" points="192.5,-180 135.5,-180 135.5,-144 192.5,-144 192.5,-180"/>
<text text-anchor="middle" x="164" y="-159" font-family="FreeSans" font-size="10.00" fill="#000000">Material</text>
</a>
</g>
</g>
<!-- dir_5a5fa5496a69281fe2792b7c42bfa923&#45;&gt;dir_c03fb6b7504307bd5077243c1f13cf2d -->
<g id="edge8" class="edge">
<title>dir_5a5fa5496a69281fe2792b7c42bfa923&#45;&gt;dir_c03fb6b7504307bd5077243c1f13cf2d</title>
<path fill="none" stroke="#000000" d="M91.5391,-162C102.7358,-162 113.9325,-162 125.1292,-162"/>
<polygon fill="#000000" stroke="#000000" points="125.4119,-165.5001 135.4119,-162 125.4119,-158.5001 125.4119,-165.5001"/>
<g id="a_edge8&#45;headlabel"><a xlink:href="dir_000009_000012.html" target="_top" xlink:title="3">
<text text-anchor="middle" x="121.8173" y="-165.3393" font-family="FreeSans" font-size="10.00" fill="#000000">3</text>
</a>
</g>
</g>
<!-- dir_acf5d6d2e75b7c80938675ec77fc2c8b -->
<g id="node5" class="node">
<title>dir_acf5d6d2e75b7c80938675ec77fc2c8b</title>
<g id="a_node5"><a xlink:href="dir_acf5d6d2e75b7c80938675ec77fc2c8b.html" target="_top" xlink:title="Utilities">
<polygon fill="none" stroke="#ff0000" points="191,-36 137,-36 137,0 191,0 191,-36"/>
<text text-anchor="middle" x="164" y="-15" font-family="FreeSans" font-size="10.00" fill="#000000">Utilities</text>
</a>
</g>
</g>
<!-- dir_cd8daf75ff661d56f3477529ad9f89f6&#45;&gt;dir_acf5d6d2e75b7c80938675ec77fc2c8b -->
<g id="edge1" class="edge">
<title>dir_cd8daf75ff661d56f3477529ad9f89f6&#45;&gt;dir_acf5d6d2e75b7c80938675ec77fc2c8b</title>
<path fill="none" stroke="#000000" d="M71.211,-71.8358C77.6413,-66.4462 84.9261,-60.7259 92,-56 103.221,-48.5035 116.0871,-41.3131 127.8103,-35.2432"/>
<polygon fill="#000000" stroke="#000000" points="129.5751,-38.2726 136.9138,-30.631 126.4115,-32.0283 129.5751,-38.2726"/>
<g id="a_edge1&#45;headlabel"><a xlink:href="dir_000010_000036.html" target="_top" xlink:title="1">
<text text-anchor="middle" x="127.6517" y="-39.4299" font-family="FreeSans" font-size="10.00" fill="#000000">1</text>
</a>
</g>
</g>
<!-- dir_c0f926bc8b1119a0b2e28789af4194e2&#45;&gt;dir_acf5d6d2e75b7c80938675ec77fc2c8b -->
<g id="edge2" class="edge">
<title>dir_c0f926bc8b1119a0b2e28789af4194e2&#45;&gt;dir_acf5d6d2e75b7c80938675ec77fc2c8b</title>
<path fill="none" stroke="#000000" d="M158.0476,-71.8314C157.2972,-64.131 157.0763,-54.9743 157.3849,-46.4166"/>
<polygon fill="#000000" stroke="#000000" points="160.8792,-46.6161 158.024,-36.4133 153.8935,-46.1697 160.8792,-46.6161"/>
<g id="a_edge2&#45;headlabel"><a xlink:href="dir_000030_000036.html" target="_top" xlink:title="56">
<text text-anchor="middle" x="163.4836" y="-47.3844" font-family="FreeSans" font-size="10.00" fill="#000000">56</text>
</a>
</g>
</g>
<!-- dir_c03fb6b7504307bd5077243c1f13cf2d&#45;&gt;dir_5a5fa5496a69281fe2792b7c42bfa923 -->
<g id="edge4" class="edge">
<title>dir_c03fb6b7504307bd5077243c1f13cf2d&#45;&gt;dir_5a5fa5496a69281fe2792b7c42bfa923</title>
<path fill="none" stroke="#000000" d="M135.4119,-162C124.2152,-162 113.0185,-162 101.8218,-162"/>
<polygon fill="#000000" stroke="#000000" points="101.5391,-158.5001 91.5391,-162 101.539,-165.5001 101.5391,-158.5001"/>
<g id="a_edge4&#45;headlabel"><a xlink:href="dir_000012_000009.html" target="_top" xlink:title="5">
<text text-anchor="middle" x="105.1337" y="-152.6607" font-family="FreeSans" font-size="10.00" fill="#000000">5</text>
</a>
</g>
</g>
<!-- dir_c03fb6b7504307bd5077243c1f13cf2d&#45;&gt;dir_c0f926bc8b1119a0b2e28789af4194e2 -->
<g id="edge3" class="edge">
<title>dir_c03fb6b7504307bd5077243c1f13cf2d&#45;&gt;dir_c0f926bc8b1119a0b2e28789af4194e2</title>
<path fill="none" stroke="#000000" d="M164,-143.8314C164,-136.131 164,-126.9743 164,-118.4166"/>
<polygon fill="#000000" stroke="#000000" points="167.5001,-118.4132 164,-108.4133 160.5001,-118.4133 167.5001,-118.4132"/>
<g id="a_edge3&#45;headlabel"><a xlink:href="dir_000012_000030.html" target="_top" xlink:title="2">
<text text-anchor="middle" x="170.3393" y="-119.0079" font-family="FreeSans" font-size="10.00" fill="#000000">2</text>
</a>
</g>
</g>
<!-- dir_c03fb6b7504307bd5077243c1f13cf2d&#45;&gt;dir_acf5d6d2e75b7c80938675ec77fc2c8b -->
<g id="edge5" class="edge">
<title>dir_c03fb6b7504307bd5077243c1f13cf2d&#45;&gt;dir_acf5d6d2e75b7c80938675ec77fc2c8b</title>
<path fill="none" stroke="#000000" d="M181.7108,-143.6517C189.8942,-133.8946 198.7304,-121.2041 203,-108 210.1106,-86.0099 211.9827,-77.294 203,-56 201.1238,-51.5524 198.4444,-47.3672 195.357,-43.5167"/>
<polygon fill="#000000" stroke="#000000" points="197.9069,-41.1187 188.5729,-36.1062 192.7438,-45.8455 197.9069,-41.1187"/>
<g id="a_edge5&#45;headlabel"><a xlink:href="dir_000012_000036.html" target="_top" xlink:title="30">
<text text-anchor="middle" x="202.4284" y="-38.8529" font-family="FreeSans" font-size="10.00" fill="#000000">30</text>
</a>
</g>
</g>
<!-- dir_acf5d6d2e75b7c80938675ec77fc2c8b&#45;&gt;dir_5a5fa5496a69281fe2792b7c42bfa923 -->
<g id="edge10" class="edge">
<title>dir_acf5d6d2e75b7c80938675ec77fc2c8b&#45;&gt;dir_5a5fa5496a69281fe2792b7c42bfa923</title>
<path fill="none" stroke="#000000" d="M143.6344,-36.0982C137.339,-42.1388 130.5947,-49.0961 125,-56 104.6113,-81.1599 85.2957,-112.8695 72.6898,-135.0227"/>
<polygon fill="#000000" stroke="#000000" points="69.558,-133.4516 67.7145,-143.8848 75.6619,-136.8784 69.558,-133.4516"/>
<g id="a_edge10&#45;headlabel"><a xlink:href="dir_000036_000009.html" target="_top" xlink:title="4">
<text text-anchor="middle" x="68.8418" y="-125.9273" font-family="FreeSans" font-size="10.00" fill="#000000">4</text>
</a>
</g>
</g>
<!-- dir_acf5d6d2e75b7c80938675ec77fc2c8b&#45;&gt;dir_c0f926bc8b1119a0b2e28789af4194e2 -->
<g id="edge9" class="edge">
<title>dir_acf5d6d2e75b7c80938675ec77fc2c8b&#45;&gt;dir_c0f926bc8b1119a0b2e28789af4194e2</title>
<path fill="none" stroke="#000000" d="M169.976,-36.4133C170.7071,-44.0593 170.9203,-53.1084 170.6155,-61.5726"/>
<polygon fill="#000000" stroke="#000000" points="167.1048,-61.6264 169.9524,-71.8314 174.0902,-62.078 167.1048,-61.6264"/>
<g id="a_edge9&#45;headlabel"><a xlink:href="dir_000036_000030.html" target="_top" xlink:title="3">
<text text-anchor="middle" x="164.5032" y="-54.8562" font-family="FreeSans" font-size="10.00" fill="#000000">3</text>
</a>
</g>
</g>
</g>
</svg>
