<?xml version="1.0" encoding="UTF-8" standalone="no"?>
<!DOCTYPE svg PUBLIC "-//W3C//DTD SVG 1.1//EN"
 "http://www.w3.org/Graphics/SVG/1.1/DTD/svg11.dtd">
<!-- Generated by graphviz version 2.40.1 (20161225.0304)
 -->
<!-- Title: fun4all_acts/blob/master/Tests/UnitTests/Core Pages: 1 -->
<svg width="1356pt" height="232pt"
 viewBox="0.00 0.00 1355.51 232.00" xmlns="http://www.w3.org/2000/svg" xmlns:xlink="http://www.w3.org/1999/xlink">
<g id="graph0" class="graph" transform="scale(1 1) rotate(0) translate(4 228)">
<title>fun4all_acts/blob/master/Tests/UnitTests/Core</title>
<g id="clust1" class="cluster">
<title>clusterdir_484c5b23bfacccfd88a36620c7ce0138</title>
<g id="a_clust1"><a xlink:href="dir_484c5b23bfacccfd88a36620c7ce0138.html" target="_top" xlink:title="UnitTests">
<polygon fill="#ddddee" stroke="#000000" points="8,-56 8,-216 1032,-216 1032,-56 8,-56"/>
<text text-anchor="middle" x="520" y="-203" font-family="FreeSans" font-size="10.00" fill="#000000">UnitTests</text>
</a>
</g>
</g>
<g id="clust2" class="cluster">
<title>clusterdir_7ede74b367695ab354779790981fe66a</title>
<g id="a_clust2"><a xlink:href="dir_7ede74b367695ab354779790981fe66a.html" target="_top">
<polygon fill="#eeeeff" stroke="#000000" points="16,-64 16,-188 1024,-188 1024,-64 16,-64"/>
</a>
</g>
</g>
<!-- dir_7ede74b367695ab354779790981fe66a -->
<g id="node1" class="node">
<title>dir_7ede74b367695ab354779790981fe66a</title>
<text text-anchor="middle" x="989" y="-159" font-family="FreeSans" font-size="10.00" fill="#000000">Core</text>
</g>
<!-- dir_cdb8c5f61f47689429ac2f45f7af2534 -->
<g id="node2" class="node">
<title>dir_cdb8c5f61f47689429ac2f45f7af2534</title>
<g id="a_node2"><a xlink:href="dir_cdb8c5f61f47689429ac2f45f7af2534.html" target="_top" xlink:title="EventData">
<polygon fill="#ffffff" stroke="#000000" points="178,-180 110,-180 110,-144 178,-144 178,-180"/>
<text text-anchor="middle" x="144" y="-159" font-family="FreeSans" font-size="10.00" fill="#000000">EventData</text>
</a>
</g>
</g>
<!-- dir_3a8ec02897b9e8f212beae953c6d5f86 -->
<g id="node14" class="node">
<title>dir_3a8ec02897b9e8f212beae953c6d5f86</title>
<g id="a_node14"><a xlink:href="dir_3a8ec02897b9e8f212beae953c6d5f86.html" target="_top" xlink:title="CommonHelpers">
<polygon fill="none" stroke="#ff0000" points="1141.5,-108 1040.5,-108 1040.5,-72 1141.5,-72 1141.5,-108"/>
<text text-anchor="middle" x="1091" y="-87" font-family="FreeSans" font-size="10.00" fill="#000000">CommonHelpers</text>
</a>
</g>
</g>
<!-- dir_cdb8c5f61f47689429ac2f45f7af2534&#45;&gt;dir_3a8ec02897b9e8f212beae953c6d5f86 -->
<g id="edge17" class="edge">
<title>dir_cdb8c5f61f47689429ac2f45f7af2534&#45;&gt;dir_3a8ec02897b9e8f212beae953c6d5f86</title>
<path fill="none" stroke="#000000" d="M178.3882,-146.374C181.2624,-145.4468 184.1565,-144.6347 187,-144 552.1346,-62.4981 658.6907,-167.8035 1028,-108 1028.758,-107.8773 1029.5197,-107.7485 1030.2846,-107.6141"/>
<polygon fill="#000000" stroke="#000000" points="1031.2346,-110.9929 1040.3434,-105.5819 1029.8483,-104.1316 1031.2346,-110.9929"/>
<g id="a_edge17&#45;headlabel"><a xlink:href="dir_000480_000470.html" target="_top" xlink:title="7">
<text text-anchor="middle" x="1028.2733" y="-111.4877" font-family="FreeSans" font-size="10.00" fill="#000000">7</text>
</a>
</g>
</g>
<!-- dir_edb9e86a382853b528ab6d291cec6611 -->
<g id="node15" class="node">
<title>dir_edb9e86a382853b528ab6d291cec6611</title>
<g id="a_node15"><a xlink:href="dir_edb9e86a382853b528ab6d291cec6611.html" target="_top" xlink:title="Core">
<polygon fill="none" stroke="#ff0000" points="1118,-36 1064,-36 1064,0 1118,0 1118,-36"/>
<text text-anchor="middle" x="1091" y="-15" font-family="FreeSans" font-size="10.00" fill="#000000">Core</text>
</a>
</g>
</g>
<!-- dir_cdb8c5f61f47689429ac2f45f7af2534&#45;&gt;dir_edb9e86a382853b528ab6d291cec6611 -->
<g id="edge18" class="edge">
<title>dir_cdb8c5f61f47689429ac2f45f7af2534&#45;&gt;dir_edb9e86a382853b528ab6d291cec6611</title>
<path fill="none" stroke="#000000" d="M178.395,-146.4041C181.2677,-145.4702 184.1596,-144.6483 187,-144 336.0433,-109.9821 739.5491,-180.7602 874,-108 899.1745,-94.3764 887.9701,-71.5538 912,-56 935.0105,-41.1061 1008.3294,-29.0255 1053.6803,-22.7326"/>
<polygon fill="#000000" stroke="#000000" points="1054.2934,-26.1816 1063.732,-21.3688 1053.3522,-19.2451 1054.2934,-26.1816"/>
<g id="a_edge18&#45;headlabel"><a xlink:href="dir_000480_000207.html" target="_top" xlink:title="49">
<text text-anchor="middle" x="1051.1131" y="-26.4783" font-family="FreeSans" font-size="10.00" fill="#000000">49</text>
</a>
</g>
</g>
<!-- dir_728b7d7a748582a90f6f64b831a8566b -->
<g id="node3" class="node">
<title>dir_728b7d7a748582a90f6f64b831a8566b</title>
<g id="a_node3"><a xlink:href="dir_728b7d7a748582a90f6f64b831a8566b.html" target="_top" xlink:title="Fitter">
<polygon fill="#ffffff" stroke="#000000" points="250,-180 196,-180 196,-144 250,-144 250,-180"/>
<text text-anchor="middle" x="223" y="-159" font-family="FreeSans" font-size="10.00" fill="#000000">Fitter</text>
</a>
</g>
</g>
<!-- dir_728b7d7a748582a90f6f64b831a8566b&#45;&gt;dir_3a8ec02897b9e8f212beae953c6d5f86 -->
<g id="edge13" class="edge">
<title>dir_728b7d7a748582a90f6f64b831a8566b&#45;&gt;dir_3a8ec02897b9e8f212beae953c6d5f86</title>
<path fill="none" stroke="#000000" d="M250.0544,-147.0093C253.0092,-145.8173 256.025,-144.7762 259,-144 590.0696,-57.6229 690.3577,-163.3688 1028,-108 1028.7577,-107.8757 1029.5192,-107.7455 1030.2839,-107.6098"/>
<polygon fill="#000000" stroke="#000000" points="1031.2389,-110.9873 1040.3405,-105.564 1029.8435,-104.1277 1031.2389,-110.9873"/>
<g id="a_edge13&#45;headlabel"><a xlink:href="dir_000481_000470.html" target="_top" xlink:title="4">
<text text-anchor="middle" x="1028.2824" y="-111.486" font-family="FreeSans" font-size="10.00" fill="#000000">4</text>
</a>
</g>
</g>
<!-- dir_728b7d7a748582a90f6f64b831a8566b&#45;&gt;dir_edb9e86a382853b528ab6d291cec6611 -->
<g id="edge14" class="edge">
<title>dir_728b7d7a748582a90f6f64b831a8566b&#45;&gt;dir_edb9e86a382853b528ab6d291cec6611</title>
<path fill="none" stroke="#000000" d="M250.0611,-147.0347C253.0145,-145.8377 256.0282,-144.7885 259,-144 399.4707,-106.7279 784.2786,-177.3432 912,-108 937.156,-94.3422 926.3992,-72.1976 950,-56 981.0395,-34.6971 1023.5104,-25.3223 1053.7078,-21.2053"/>
<polygon fill="#000000" stroke="#000000" points="1054.3412,-24.6538 1063.8383,-19.9574 1053.4854,-17.7063 1054.3412,-24.6538"/>
<g id="a_edge14&#45;headlabel"><a xlink:href="dir_000481_000207.html" target="_top" xlink:title="36">
<text text-anchor="middle" x="1051.1207" y="-24.9112" font-family="FreeSans" font-size="10.00" fill="#000000">36</text>
</a>
</g>
</g>
<!-- dir_fa2de60c0f970a20b163956e597ad194 -->
<g id="node4" class="node">
<title>dir_fa2de60c0f970a20b163956e597ad194</title>
<g id="a_node4"><a xlink:href="dir_fa2de60c0f970a20b163956e597ad194.html" target="_top" xlink:title="Geometry">
<polygon fill="#ffffff" stroke="#000000" points="91.5,-180 24.5,-180 24.5,-144 91.5,-144 91.5,-180"/>
<text text-anchor="middle" x="58" y="-159" font-family="FreeSans" font-size="10.00" fill="#000000">Geometry</text>
</a>
</g>
</g>
<!-- dir_0df0cd927a57d43cab3dd3f5d49d34bd -->
<g id="node9" class="node">
<title>dir_0df0cd927a57d43cab3dd3f5d49d34bd</title>
<g id="a_node9"><a xlink:href="dir_0df0cd927a57d43cab3dd3f5d49d34bd.html" target="_top" xlink:title="Surfaces">
<polygon fill="#ffffff" stroke="#000000" points="832,-108 772,-108 772,-72 832,-72 832,-108"/>
<text text-anchor="middle" x="802" y="-87" font-family="FreeSans" font-size="10.00" fill="#000000">Surfaces</text>
</a>
</g>
</g>
<!-- dir_fa2de60c0f970a20b163956e597ad194&#45;&gt;dir_0df0cd927a57d43cab3dd3f5d49d34bd -->
<g id="edge24" class="edge">
<title>dir_fa2de60c0f970a20b163956e597ad194&#45;&gt;dir_0df0cd927a57d43cab3dd3f5d49d34bd</title>
<path fill="none" stroke="#000000" d="M91.9351,-146.6407C94.9609,-145.6246 98.0104,-144.721 101,-144 227.8123,-113.4153 631.5355,-96.259 761.3679,-91.4284"/>
<polygon fill="#000000" stroke="#000000" points="761.7913,-94.9152 771.656,-91.0501 761.5341,-87.92 761.7913,-94.9152"/>
<g id="a_edge24&#45;headlabel"><a xlink:href="dir_000482_000487.html" target="_top" xlink:title="2">
<text text-anchor="middle" x="758.3034" y="-94.8846" font-family="FreeSans" font-size="10.00" fill="#000000">2</text>
</a>
</g>
</g>
<!-- dir_fa2de60c0f970a20b163956e597ad194&#45;&gt;dir_3a8ec02897b9e8f212beae953c6d5f86 -->
<g id="edge23" class="edge">
<title>dir_fa2de60c0f970a20b163956e597ad194&#45;&gt;dir_3a8ec02897b9e8f212beae953c6d5f86</title>
<path fill="none" stroke="#000000" d="M91.9064,-146.5166C94.9384,-145.5275 97.9972,-144.664 101,-144 503.5851,-54.9762 620.8614,-173.1014 1028,-108 1028.7582,-107.8788 1029.5202,-107.7514 1030.2853,-107.6183"/>
<polygon fill="#000000" stroke="#000000" points="1031.2302,-110.9986 1040.3463,-105.5997 1029.8531,-104.1354 1031.2302,-110.9986"/>
<g id="a_edge23&#45;headlabel"><a xlink:href="dir_000482_000470.html" target="_top" xlink:title="21">
<text text-anchor="middle" x="1028.2644" y="-111.4894" font-family="FreeSans" font-size="10.00" fill="#000000">21</text>
</a>
</g>
</g>
<!-- dir_fa2de60c0f970a20b163956e597ad194&#45;&gt;dir_edb9e86a382853b528ab6d291cec6611 -->
<g id="edge25" class="edge">
<title>dir_fa2de60c0f970a20b163956e597ad194&#45;&gt;dir_edb9e86a382853b528ab6d291cec6611</title>
<path fill="none" stroke="#000000" d="M91.9136,-146.5486C94.944,-145.5525 98.0005,-144.6787 101,-144 181.2897,-125.8326 769.8481,-149.3992 841,-108 864.6588,-94.2343 851.2452,-71.2137 874,-56 902.7646,-36.7682 999.2702,-25.7392 1053.3906,-20.9249"/>
<polygon fill="#000000" stroke="#000000" points="1053.9541,-24.3894 1063.6169,-20.0443 1053.3535,-17.4152 1053.9541,-24.3894"/>
<g id="a_edge25&#45;headlabel"><a xlink:href="dir_000482_000207.html" target="_top" xlink:title="174">
<text text-anchor="middle" x="1050.6163" y="-24.5265" font-family="FreeSans" font-size="10.00" fill="#000000">174</text>
</a>
</g>
</g>
<!-- dir_4a6383951ebecd98898be96ec48e7f7c -->
<g id="node5" class="node">
<title>dir_4a6383951ebecd98898be96ec48e7f7c</title>
<g id="a_node5"><a xlink:href="dir_4a6383951ebecd98898be96ec48e7f7c.html" target="_top" xlink:title="MagneticField">
<polygon fill="#ffffff" stroke="#000000" points="354,-180 268,-180 268,-144 354,-144 354,-180"/>
<text text-anchor="middle" x="311" y="-159" font-family="FreeSans" font-size="10.00" fill="#000000">MagneticField</text>
</a>
</g>
</g>
<!-- dir_4a6383951ebecd98898be96ec48e7f7c&#45;&gt;dir_3a8ec02897b9e8f212beae953c6d5f86 -->
<g id="edge9" class="edge">
<title>dir_4a6383951ebecd98898be96ec48e7f7c&#45;&gt;dir_3a8ec02897b9e8f212beae953c6d5f86</title>
<path fill="none" stroke="#000000" d="M354.125,-146.2816C357.4388,-145.4041 360.756,-144.6265 364,-144 654.1822,-87.9568 736.5295,-156.9029 1028,-108 1028.7572,-107.873 1029.5183,-107.7401 1030.2826,-107.6018"/>
<polygon fill="#000000" stroke="#000000" points="1031.2469,-110.9767 1040.335,-105.531 1029.8345,-104.1207 1031.2469,-110.9767"/>
<g id="a_edge9&#45;headlabel"><a xlink:href="dir_000483_000470.html" target="_top" xlink:title="2">
<text text-anchor="middle" x="1028.299" y="-111.4828" font-family="FreeSans" font-size="10.00" fill="#000000">2</text>
</a>
</g>
</g>
<!-- dir_4a6383951ebecd98898be96ec48e7f7c&#45;&gt;dir_edb9e86a382853b528ab6d291cec6611 -->
<g id="edge10" class="edge">
<title>dir_4a6383951ebecd98898be96ec48e7f7c&#45;&gt;dir_edb9e86a382853b528ab6d291cec6611</title>
<path fill="none" stroke="#000000" d="M354.1302,-146.3079C357.4427,-145.4244 360.7582,-144.6382 364,-144 492.0107,-118.7993 835.5374,-170.611 950,-108 975.1129,-94.2632 965.1534,-73.245 988,-56 1007.4795,-41.2965 1033.2413,-31.7949 1054.1272,-25.97"/>
<polygon fill="#000000" stroke="#000000" points="1055.1533,-29.3194 1063.9398,-23.3992 1053.3792,-22.5479 1055.1533,-29.3194"/>
<g id="a_edge10&#45;headlabel"><a xlink:href="dir_000483_000207.html" target="_top" xlink:title="20">
<text text-anchor="middle" x="1052.3957" y="-29.9769" font-family="FreeSans" font-size="10.00" fill="#000000">20</text>
</a>
</g>
</g>
<!-- dir_255c92e701d870023c83df82a046014c -->
<g id="node6" class="node">
<title>dir_255c92e701d870023c83df82a046014c</title>
<g id="a_node6"><a xlink:href="dir_255c92e701d870023c83df82a046014c.html" target="_top" xlink:title="Material">
<polygon fill="#ffffff" stroke="#000000" points="429.5,-180 372.5,-180 372.5,-144 429.5,-144 429.5,-180"/>
<text text-anchor="middle" x="401" y="-159" font-family="FreeSans" font-size="10.00" fill="#000000">Material</text>
</a>
</g>
</g>
<!-- dir_255c92e701d870023c83df82a046014c&#45;&gt;dir_3a8ec02897b9e8f212beae953c6d5f86 -->
<g id="edge15" class="edge">
<title>dir_255c92e701d870023c83df82a046014c&#45;&gt;dir_3a8ec02897b9e8f212beae953c6d5f86</title>
<path fill="none" stroke="#000000" d="M429.6182,-147.0583C432.7253,-145.8567 435.8892,-144.8 439,-144 693.0018,-78.68 769.4998,-152.2861 1028,-108 1028.7568,-107.8703 1029.5175,-107.735 1030.2813,-107.5944"/>
<polygon fill="#000000" stroke="#000000" points="1031.2543,-110.9669 1040.3298,-105.5002 1029.826,-104.1142 1031.2543,-110.9669"/>
<g id="a_edge15&#45;headlabel"><a xlink:href="dir_000484_000470.html" target="_top" xlink:title="12">
<text text-anchor="middle" x="1028.3145" y="-111.4798" font-family="FreeSans" font-size="10.00" fill="#000000">12</text>
</a>
</g>
</g>
<!-- dir_255c92e701d870023c83df82a046014c&#45;&gt;dir_edb9e86a382853b528ab6d291cec6611 -->
<g id="edge16" class="edge">
<title>dir_255c92e701d870023c83df82a046014c&#45;&gt;dir_edb9e86a382853b528ab6d291cec6611</title>
<path fill="none" stroke="#000000" d="M429.6219,-147.0725C432.7282,-145.8681 435.891,-144.8069 439,-144 557.3415,-113.2869 878.83,-163.0446 988,-108 1015.0326,-94.3699 1009.2468,-75.9709 1032,-56 1039.128,-49.7436 1047.3764,-43.7785 1055.4048,-38.5059"/>
<polygon fill="#000000" stroke="#000000" points="1057.3966,-41.3873 1063.9666,-33.0755 1053.6473,-35.4761 1057.3966,-41.3873"/>
<g id="a_edge16&#45;headlabel"><a xlink:href="dir_000484_000207.html" target="_top" xlink:title="72">
<text text-anchor="middle" x="1055.8818" y="-42.7103" font-family="FreeSans" font-size="10.00" fill="#000000">72</text>
</a>
</g>
</g>
<!-- dir_f216ffa20fe8e7c1f318d535d1816a97 -->
<g id="node7" class="node">
<title>dir_f216ffa20fe8e7c1f318d535d1816a97</title>
<g id="a_node7"><a xlink:href="dir_f216ffa20fe8e7c1f318d535d1816a97.html" target="_top" xlink:title="Propagator">
<polygon fill="#ffffff" stroke="#000000" points="520,-180 448,-180 448,-144 520,-144 520,-180"/>
<text text-anchor="middle" x="484" y="-159" font-family="FreeSans" font-size="10.00" fill="#000000">Propagator</text>
</a>
</g>
</g>
<!-- dir_f216ffa20fe8e7c1f318d535d1816a97&#45;&gt;dir_3a8ec02897b9e8f212beae953c6d5f86 -->
<g id="edge19" class="edge">
<title>dir_f216ffa20fe8e7c1f318d535d1816a97&#45;&gt;dir_3a8ec02897b9e8f212beae953c6d5f86</title>
<path fill="none" stroke="#000000" d="M520.091,-146.7174C523.4022,-145.6694 526.738,-144.7383 530,-144 746.4368,-95.0148 809.4874,-146.6871 1028,-108 1028.7561,-107.8661 1029.5161,-107.7268 1030.2793,-107.5824"/>
<polygon fill="#000000" stroke="#000000" points="1031.266,-110.951 1040.3211,-105.4505 1029.8123,-104.1036 1031.266,-110.951"/>
<g id="a_edge19&#45;headlabel"><a xlink:href="dir_000485_000470.html" target="_top" xlink:title="16">
<text text-anchor="middle" x="1028.3394" y="-111.4748" font-family="FreeSans" font-size="10.00" fill="#000000">16</text>
</a>
</g>
</g>
<!-- dir_f216ffa20fe8e7c1f318d535d1816a97&#45;&gt;dir_edb9e86a382853b528ab6d291cec6611 -->
<g id="edge20" class="edge">
<title>dir_f216ffa20fe8e7c1f318d535d1816a97&#45;&gt;dir_edb9e86a382853b528ab6d291cec6611</title>
<path fill="none" stroke="#000000" d="M520.0798,-146.6672C523.3934,-145.6299 526.7328,-144.715 530,-144 597.518,-129.2241 1103.563,-158.2666 1151,-108 1166.8621,-91.1917 1162.1432,-76.2473 1151,-56 1145.5835,-46.1582 1136.4228,-38.5086 1126.8689,-32.7373"/>
<polygon fill="#000000" stroke="#000000" points="1128.5374,-29.6606 1118.0806,-27.9562 1125.1922,-35.8096 1128.5374,-29.6606"/>
<g id="a_edge20&#45;headlabel"><a xlink:href="dir_000485_000207.html" target="_top" xlink:title="144">
<text text-anchor="middle" x="1133.0518" y="-25.8843" font-family="FreeSans" font-size="10.00" fill="#000000">144</text>
</a>
</g>
</g>
<!-- dir_48e2ba55efc991d856e124a3a357bf5e -->
<g id="node8" class="node">
<title>dir_48e2ba55efc991d856e124a3a357bf5e</title>
<g id="a_node8"><a xlink:href="dir_48e2ba55efc991d856e124a3a357bf5e.html" target="_top" xlink:title="Seeding">
<polygon fill="#ffffff" stroke="#000000" points="943.5,-180 886.5,-180 886.5,-144 943.5,-144 943.5,-180"/>
<text text-anchor="middle" x="915" y="-159" font-family="FreeSans" font-size="10.00" fill="#000000">Seeding</text>
</a>
</g>
</g>
<!-- dir_48e2ba55efc991d856e124a3a357bf5e&#45;&gt;dir_edb9e86a382853b528ab6d291cec6611 -->
<g id="edge4" class="edge">
<title>dir_48e2ba55efc991d856e124a3a357bf5e&#45;&gt;dir_edb9e86a382853b528ab6d291cec6611</title>
<path fill="none" stroke="#000000" d="M943.646,-147.1626C946.7476,-145.9407 949.9027,-144.8507 953,-144 1035.4336,-121.3591 1278.45,-171.2131 1336,-108 1351.5586,-90.9104 1351.0376,-73.5498 1336,-56 1322.6687,-40.4416 1193.642,-27.0061 1128.3916,-21.142"/>
<polygon fill="#000000" stroke="#000000" points="1128.3874,-17.6281 1118.118,-20.234 1127.771,-24.6009 1128.3874,-17.6281"/>
<g id="a_edge4&#45;headlabel"><a xlink:href="dir_000486_000207.html" target="_top" xlink:title="9">
<text text-anchor="middle" x="1132.218" y="-12.1162" font-family="FreeSans" font-size="10.00" fill="#000000">9</text>
</a>
</g>
</g>
<!-- dir_0df0cd927a57d43cab3dd3f5d49d34bd&#45;&gt;dir_3a8ec02897b9e8f212beae953c6d5f86 -->
<g id="edge5" class="edge">
<title>dir_0df0cd927a57d43cab3dd3f5d49d34bd&#45;&gt;dir_3a8ec02897b9e8f212beae953c6d5f86</title>
<path fill="none" stroke="#000000" d="M832.1982,-90C898.2269,-90 964.2555,-90 1030.2841,-90"/>
<polygon fill="#000000" stroke="#000000" points="1030.4528,-93.5001 1040.4528,-90 1030.4527,-86.5001 1030.4528,-93.5001"/>
<g id="a_edge5&#45;headlabel"><a xlink:href="dir_000487_000470.html" target="_top" xlink:title="29">
<text text-anchor="middle" x="1026.8582" y="-93.3393" font-family="FreeSans" font-size="10.00" fill="#000000">29</text>
</a>
</g>
</g>
<!-- dir_0df0cd927a57d43cab3dd3f5d49d34bd&#45;&gt;dir_edb9e86a382853b528ab6d291cec6611 -->
<g id="edge6" class="edge">
<title>dir_0df0cd927a57d43cab3dd3f5d49d34bd&#45;&gt;dir_edb9e86a382853b528ab6d291cec6611</title>
<path fill="none" stroke="#000000" d="M821.2229,-71.757C828.4765,-65.8334 837.1305,-59.8116 846,-56 882.6534,-40.2484 994.6845,-27.384 1053.7128,-21.4845"/>
<polygon fill="#000000" stroke="#000000" points="1054.1348,-24.96 1063.7442,-20.4981 1053.4497,-17.9936 1054.1348,-24.96"/>
<g id="a_edge6&#45;headlabel"><a xlink:href="dir_000487_000207.html" target="_top" xlink:title="110">
<text text-anchor="middle" x="1050.8352" y="-25.1373" font-family="FreeSans" font-size="10.00" fill="#000000">110</text>
</a>
</g>
</g>
<!-- dir_c8dcfded4524dd675ec81a21493b95d0 -->
<g id="node10" class="node">
<title>dir_c8dcfded4524dd675ec81a21493b95d0</title>
<g id="a_node10"><a xlink:href="dir_c8dcfded4524dd675ec81a21493b95d0.html" target="_top" xlink:title="TrackFinder">
<polygon fill="#ffffff" stroke="#000000" points="613.5,-180 538.5,-180 538.5,-144 613.5,-144 613.5,-180"/>
<text text-anchor="middle" x="576" y="-159" font-family="FreeSans" font-size="10.00" fill="#000000">TrackFinder</text>
</a>
</g>
</g>
<!-- dir_c8dcfded4524dd675ec81a21493b95d0&#45;&gt;dir_3a8ec02897b9e8f212beae953c6d5f86 -->
<g id="edge21" class="edge">
<title>dir_c8dcfded4524dd675ec81a21493b95d0&#45;&gt;dir_3a8ec02897b9e8f212beae953c6d5f86</title>
<path fill="none" stroke="#000000" d="M613.683,-146.5376C616.8031,-145.5738 619.9353,-144.7085 623,-144 799.0656,-103.2948 850.3235,-140.9705 1028,-108 1028.7549,-107.8599 1029.5139,-107.7147 1030.276,-107.5647"/>
<polygon fill="#000000" stroke="#000000" points="1031.2833,-110.9274 1040.3078,-105.3769 1029.7916,-104.0882 1031.2833,-110.9274"/>
<g id="a_edge21&#45;headlabel"><a xlink:href="dir_000488_000470.html" target="_top" xlink:title="2">
<text text-anchor="middle" x="1028.3762" y="-111.4673" font-family="FreeSans" font-size="10.00" fill="#000000">2</text>
</a>
</g>
</g>
<!-- dir_c8dcfded4524dd675ec81a21493b95d0&#45;&gt;dir_edb9e86a382853b528ab6d291cec6611 -->
<g id="edge22" class="edge">
<title>dir_c8dcfded4524dd675ec81a21493b95d0&#45;&gt;dir_edb9e86a382853b528ab6d291cec6611</title>
<path fill="none" stroke="#000000" d="M613.6642,-146.454C616.7885,-145.509 619.9268,-144.6708 623,-144 684.0246,-130.6792 1141.2706,-153.5593 1184,-108 1199.8101,-91.1428 1196.8859,-75.1853 1184,-56 1171.5211,-37.4206 1148.1858,-27.9195 1128.013,-23.0638"/>
<polygon fill="#000000" stroke="#000000" points="1128.6339,-19.6178 1118.1269,-20.9791 1127.1895,-26.4672 1128.6339,-19.6178"/>
<g id="a_edge22&#45;headlabel"><a xlink:href="dir_000488_000207.html" target="_top" xlink:title="23">
<text text-anchor="middle" x="1132.737" y="-14.5813" font-family="FreeSans" font-size="10.00" fill="#000000">23</text>
</a>
</g>
</g>
<!-- dir_0805f5020f07e699913848c949108ba9 -->
<g id="node11" class="node">
<title>dir_0805f5020f07e699913848c949108ba9</title>
<g id="a_node11"><a xlink:href="dir_0805f5020f07e699913848c949108ba9.html" target="_top" xlink:title="Utilities">
<polygon fill="#ffffff" stroke="#000000" points="686,-180 632,-180 632,-144 686,-144 686,-180"/>
<text text-anchor="middle" x="659" y="-159" font-family="FreeSans" font-size="10.00" fill="#000000">Utilities</text>
</a>
</g>
</g>
<!-- dir_0805f5020f07e699913848c949108ba9&#45;&gt;dir_3a8ec02897b9e8f212beae953c6d5f86 -->
<g id="edge7" class="edge">
<title>dir_0805f5020f07e699913848c949108ba9&#45;&gt;dir_3a8ec02897b9e8f212beae953c6d5f86</title>
<path fill="none" stroke="#000000" d="M686.0599,-147.5404C689.345,-146.1747 692.7051,-144.9489 696,-144 838.6241,-102.9268 882.3396,-136.4903 1028,-108 1028.7535,-107.8526 1029.5112,-107.7005 1030.2721,-107.544"/>
<polygon fill="#000000" stroke="#000000" points="1031.303,-110.8996 1040.2913,-105.2906 1029.767,-104.0702 1031.303,-110.8996"/>
<g id="a_edge7&#45;headlabel"><a xlink:href="dir_000489_000470.html" target="_top" xlink:title="12">
<text text-anchor="middle" x="1028.419" y="-111.4583" font-family="FreeSans" font-size="10.00" fill="#000000">12</text>
</a>
</g>
</g>
<!-- dir_0805f5020f07e699913848c949108ba9&#45;&gt;dir_edb9e86a382853b528ab6d291cec6611 -->
<g id="edge8" class="edge">
<title>dir_0805f5020f07e699913848c949108ba9&#45;&gt;dir_edb9e86a382853b528ab6d291cec6611</title>
<path fill="none" stroke="#000000" d="M686.0239,-147.4105C689.3154,-146.0682 692.6869,-144.8833 696,-144 752.6039,-128.9084 1182.0161,-150.814 1222,-108 1237.7742,-91.1093 1235.8802,-74.4787 1222,-56 1210.69,-40.943 1162.8692,-29.9277 1128.2698,-23.7439"/>
<polygon fill="#000000" stroke="#000000" points="1128.46,-20.2253 1118.0116,-21.9807 1127.2742,-27.1241 1128.46,-20.2253"/>
<g id="a_edge8&#45;headlabel"><a xlink:href="dir_000489_000207.html" target="_top" xlink:title="58">
<text text-anchor="middle" x="1132.4836" y="-15.0359" font-family="FreeSans" font-size="10.00" fill="#000000">58</text>
</a>
</g>
</g>
<!-- dir_df8b31a446fe09c4a91f7e4d3cb8b66d -->
<g id="node12" class="node">
<title>dir_df8b31a446fe09c4a91f7e4d3cb8b66d</title>
<g id="a_node12"><a xlink:href="dir_df8b31a446fe09c4a91f7e4d3cb8b66d.html" target="_top" xlink:title="Vertexing">
<polygon fill="#ffffff" stroke="#000000" points="769.5,-180 704.5,-180 704.5,-144 769.5,-144 769.5,-180"/>
<text text-anchor="middle" x="737" y="-159" font-family="FreeSans" font-size="10.00" fill="#000000">Vertexing</text>
</a>
</g>
</g>
<!-- dir_df8b31a446fe09c4a91f7e4d3cb8b66d&#45;&gt;dir_3a8ec02897b9e8f212beae953c6d5f86 -->
<g id="edge2" class="edge">
<title>dir_df8b31a446fe09c4a91f7e4d3cb8b66d&#45;&gt;dir_3a8ec02897b9e8f212beae953c6d5f86</title>
<path fill="none" stroke="#000000" d="M769.7203,-147.0164C772.8199,-145.8896 775.9453,-144.8594 779,-144 886.6389,-113.7184 918.6612,-131.4124 1028,-108 1028.7508,-107.8392 1029.5058,-107.6744 1030.2643,-107.5059"/>
<polygon fill="#000000" stroke="#000000" points="1031.3382,-110.8483 1040.259,-105.1325 1029.7209,-104.0377 1031.3382,-110.8483"/>
<g id="a_edge2&#45;headlabel"><a xlink:href="dir_000490_000470.html" target="_top" xlink:title="10">
<text text-anchor="middle" x="1028.4968" y="-111.4412" font-family="FreeSans" font-size="10.00" fill="#000000">10</text>
</a>
</g>
</g>
<!-- dir_df8b31a446fe09c4a91f7e4d3cb8b66d&#45;&gt;dir_edb9e86a382853b528ab6d291cec6611 -->
<g id="edge3" class="edge">
<title>dir_df8b31a446fe09c4a91f7e4d3cb8b66d&#45;&gt;dir_edb9e86a382853b528ab6d291cec6611</title>
<path fill="none" stroke="#000000" d="M769.661,-146.7907C772.773,-145.7113 775.9176,-144.7537 779,-144 831.0604,-131.2711 1223.545,-147.2854 1260,-108 1275.7204,-91.0591 1274.4387,-74.0457 1260,-56 1243.824,-35.7829 1172.9465,-25.5706 1128.2748,-21.0509"/>
<polygon fill="#000000" stroke="#000000" points="1128.3668,-17.5437 1118.078,-20.0715 1127.6975,-24.5117 1128.3668,-17.5437"/>
<g id="a_edge3&#45;headlabel"><a xlink:href="dir_000490_000207.html" target="_top" xlink:title="103">
<text text-anchor="middle" x="1132.2164" y="-12.0611" font-family="FreeSans" font-size="10.00" fill="#000000">103</text>
</a>
</g>
</g>
<!-- dir_ee0d417fdd9e09bb946ffb56a00f29bf -->
<g id="node13" class="node">
<title>dir_ee0d417fdd9e09bb946ffb56a00f29bf</title>
<g id="a_node13"><a xlink:href="dir_ee0d417fdd9e09bb946ffb56a00f29bf.html" target="_top" xlink:title="Visualization">
<polygon fill="#ffffff" stroke="#000000" points="868.5,-180 787.5,-180 787.5,-144 868.5,-144 868.5,-180"/>
<text text-anchor="middle" x="828" y="-159" font-family="FreeSans" font-size="10.00" fill="#000000">Visualization</text>
</a>
</g>
</g>
<!-- dir_ee0d417fdd9e09bb946ffb56a00f29bf&#45;&gt;dir_3a8ec02897b9e8f212beae953c6d5f86 -->
<g id="edge11" class="edge">
<title>dir_ee0d417fdd9e09bb946ffb56a00f29bf&#45;&gt;dir_3a8ec02897b9e8f212beae953c6d5f86</title>
<path fill="none" stroke="#000000" d="M868.5349,-146.9856C871.7239,-145.9336 874.9063,-144.9251 878,-144 943.6862,-124.359 961.6906,-125.4214 1028,-108 1028.7426,-107.8049 1029.4899,-107.6076 1030.241,-107.4083"/>
<polygon fill="#000000" stroke="#000000" points="1031.4219,-110.7148 1040.1623,-104.7268 1029.5954,-103.9572 1031.4219,-110.7148"/>
<g id="a_edge11&#45;headlabel"><a xlink:href="dir_000491_000470.html" target="_top" xlink:title="1">
<text text-anchor="middle" x="1028.6926" y="-111.3935" font-family="FreeSans" font-size="10.00" fill="#000000">1</text>
</a>
</g>
</g>
<!-- dir_ee0d417fdd9e09bb946ffb56a00f29bf&#45;&gt;dir_edb9e86a382853b528ab6d291cec6611 -->
<g id="edge12" class="edge">
<title>dir_ee0d417fdd9e09bb946ffb56a00f29bf&#45;&gt;dir_edb9e86a382853b528ab6d291cec6611</title>
<path fill="none" stroke="#000000" d="M868.6753,-146.3817C871.8035,-145.481 874.9358,-144.6709 878,-144 923.7541,-133.983 1266.3265,-142.5046 1298,-108 1313.6286,-90.9745 1312.7933,-73.7562 1298,-56 1276.8414,-30.6036 1182.1856,-22.1241 1128.4961,-19.3349"/>
<polygon fill="#000000" stroke="#000000" points="1128.494,-15.8309 1118.3383,-18.8496 1128.1599,-22.8229 1128.494,-15.8309"/>
<g id="a_edge12&#45;headlabel"><a xlink:href="dir_000491_000207.html" target="_top" xlink:title="60">
<text text-anchor="middle" x="1132.22" y="-10.1663" font-family="FreeSans" font-size="10.00" fill="#000000">60</text>
</a>
</g>
</g>
<!-- dir_3a8ec02897b9e8f212beae953c6d5f86&#45;&gt;dir_edb9e86a382853b528ab6d291cec6611 -->
<g id="edge1" class="edge">
<title>dir_3a8ec02897b9e8f212beae953c6d5f86&#45;&gt;dir_edb9e86a382853b528ab6d291cec6611</title>
<path fill="none" stroke="#000000" d="M1091,-71.8314C1091,-64.131 1091,-54.9743 1091,-46.4166"/>
<polygon fill="#000000" stroke="#000000" points="1094.5001,-46.4132 1091,-36.4133 1087.5001,-46.4133 1094.5001,-46.4132"/>
<g id="a_edge1&#45;headlabel"><a xlink:href="dir_000470_000207.html" target="_top" xlink:title="54">
<text text-anchor="middle" x="1097.3393" y="-47.0079" font-family="FreeSans" font-size="10.00" fill="#000000">54</text>
</a>
</g>
</g>
</g>
</svg>
