<?xml version="1.0" encoding="UTF-8" standalone="no"?>
<!DOCTYPE svg PUBLIC "-//W3C//DTD SVG 1.1//EN"
 "http://www.w3.org/Graphics/SVG/1.1/DTD/svg11.dtd">
<!-- Generated by graphviz version 2.40.1 (20161225.0304)
 -->
<!-- Title: fun4all_acts/blob/master/Core/include/Acts/TrackFinder/detail Pages: 1 -->
<svg width="149pt" height="296pt"
 viewBox="0.00 0.00 149.00 296.00" xmlns="http://www.w3.org/2000/svg" xmlns:xlink="http://www.w3.org/1999/xlink">
<g id="graph0" class="graph" transform="scale(1 1) rotate(0) translate(4 292)">
<title>fun4all_acts/blob/master/Core/include/Acts/TrackFinder/detail</title>
<g id="clust1" class="cluster">
<title>clusterdir_378eaead49cf01febf532cd1e7f78779</title>
<g id="a_clust1"><a xlink:href="dir_378eaead49cf01febf532cd1e7f78779.html" target="_top" xlink:title="TrackFinder">
<polygon fill="#ddddee" stroke="#000000" points="8,-208 8,-280 83,-280 83,-208 8,-208"/>
<text text-anchor="middle" x="45.5" y="-267" font-family="FreeSans" font-size="10.00" fill="#000000">TrackFinder</text>
</a>
</g>
</g>
<!-- dir_cbbac5aea5db2931ce8cbc0e5df12eb5 -->
<g id="node1" class="node">
<title>dir_cbbac5aea5db2931ce8cbc0e5df12eb5</title>
<g id="a_node1"><a xlink:href="dir_cbbac5aea5db2931ce8cbc0e5df12eb5.html" target="_top" xlink:title="detail">
<polygon fill="#eeeeff" stroke="#000000" points="72,-252 18,-252 18,-216 72,-216 72,-252"/>
<text text-anchor="middle" x="45" y="-231" font-family="FreeSans" font-size="10.00" fill="#000000">detail</text>
</a>
</g>
</g>
<!-- dir_4ae4f6aa51f513a7137c3805eace14f1 -->
<g id="node2" class="node">
<title>dir_4ae4f6aa51f513a7137c3805eace14f1</title>
<g id="a_node2"><a xlink:href="dir_4ae4f6aa51f513a7137c3805eace14f1.html" target="_top" xlink:title="Utilities">
<polygon fill="none" stroke="#ff0000" points="84,-108 30,-108 30,-72 84,-72 84,-108"/>
<text text-anchor="middle" x="57" y="-87" font-family="FreeSans" font-size="10.00" fill="#000000">Utilities</text>
</a>
</g>
</g>
<!-- dir_cbbac5aea5db2931ce8cbc0e5df12eb5&#45;&gt;dir_4ae4f6aa51f513a7137c3805eace14f1 -->
<g id="edge1" class="edge">
<title>dir_cbbac5aea5db2931ce8cbc0e5df12eb5&#45;&gt;dir_4ae4f6aa51f513a7137c3805eace14f1</title>
<path fill="none" stroke="#000000" d="M46.5198,-215.7623C48.5666,-191.201 52.2294,-147.2474 54.6372,-118.3541"/>
<polygon fill="#000000" stroke="#000000" points="58.1499,-118.3458 55.4925,-108.0896 51.1741,-117.7644 58.1499,-118.3458"/>
<g id="a_edge1&#45;headlabel"><a xlink:href="dir_000224_000225.html" target="_top" xlink:title="3">
<text text-anchor="middle" x="60.6809" y="-119.1637" font-family="FreeSans" font-size="10.00" fill="#000000">3</text>
</a>
</g>
</g>
<!-- dir_0e000ba09f74190c6812df877db0bc04 -->
<g id="node3" class="node">
<title>dir_0e000ba09f74190c6812df877db0bc04</title>
<g id="a_node3"><a xlink:href="dir_0e000ba09f74190c6812df877db0bc04.html" target="_top" xlink:title="Geometry">
<polygon fill="none" stroke="#ff0000" points="90.5,-36 23.5,-36 23.5,0 90.5,0 90.5,-36"/>
<text text-anchor="middle" x="57" y="-15" font-family="FreeSans" font-size="10.00" fill="#000000">Geometry</text>
</a>
</g>
</g>
<!-- dir_cbbac5aea5db2931ce8cbc0e5df12eb5&#45;&gt;dir_0e000ba09f74190c6812df877db0bc04 -->
<g id="edge2" class="edge">
<title>dir_cbbac5aea5db2931ce8cbc0e5df12eb5&#45;&gt;dir_0e000ba09f74190c6812df877db0bc04</title>
<path fill="none" stroke="#000000" d="M37.1606,-215.6397C25.2887,-185.1984 5.6752,-122.6143 21,-72 23.9564,-62.2355 29.3252,-52.6229 35.03,-44.2762"/>
<polygon fill="#000000" stroke="#000000" points="37.9414,-46.2239 41.0095,-36.0831 32.2871,-42.0973 37.9414,-46.2239"/>
<g id="a_edge2&#45;headlabel"><a xlink:href="dir_000224_000214.html" target="_top" xlink:title="1">
<text text-anchor="middle" x="38.1158" y="-47.8013" font-family="FreeSans" font-size="10.00" fill="#000000">1</text>
</a>
</g>
</g>
<!-- dir_196beccc0e794e0d515f47efe99f4e19 -->
<g id="node4" class="node">
<title>dir_196beccc0e794e0d515f47efe99f4e19</title>
<g id="a_node4"><a xlink:href="dir_196beccc0e794e0d515f47efe99f4e19.html" target="_top" xlink:title="EventData">
<polygon fill="none" stroke="#ff0000" points="141,-180 73,-180 73,-144 141,-144 141,-180"/>
<text text-anchor="middle" x="107" y="-159" font-family="FreeSans" font-size="10.00" fill="#000000">EventData</text>
</a>
</g>
</g>
<!-- dir_cbbac5aea5db2931ce8cbc0e5df12eb5&#45;&gt;dir_196beccc0e794e0d515f47efe99f4e19 -->
<g id="edge3" class="edge">
<title>dir_cbbac5aea5db2931ce8cbc0e5df12eb5&#45;&gt;dir_196beccc0e794e0d515f47efe99f4e19</title>
<path fill="none" stroke="#000000" d="M60.6452,-215.8314C67.8591,-207.454 76.557,-197.3531 84.4605,-188.1749"/>
<polygon fill="#000000" stroke="#000000" points="87.2711,-190.2748 91.1441,-180.4133 81.9667,-185.7071 87.2711,-190.2748"/>
<g id="a_edge3&#45;headlabel"><a xlink:href="dir_000224_000210.html" target="_top" xlink:title="2">
<text text-anchor="middle" x="87.077" y="-191.8514" font-family="FreeSans" font-size="10.00" fill="#000000">2</text>
</a>
</g>
</g>
<!-- dir_4ae4f6aa51f513a7137c3805eace14f1&#45;&gt;dir_0e000ba09f74190c6812df877db0bc04 -->
<g id="edge4" class="edge">
<title>dir_4ae4f6aa51f513a7137c3805eace14f1&#45;&gt;dir_0e000ba09f74190c6812df877db0bc04</title>
<path fill="none" stroke="#000000" d="M51.0476,-71.8314C50.2972,-64.131 50.0763,-54.9743 50.3849,-46.4166"/>
<polygon fill="#000000" stroke="#000000" points="53.8792,-46.6161 51.024,-36.4133 46.8935,-46.1697 53.8792,-46.6161"/>
<g id="a_edge4&#45;headlabel"><a xlink:href="dir_000225_000214.html" target="_top" xlink:title="3">
<text text-anchor="middle" x="56.4836" y="-47.3844" font-family="FreeSans" font-size="10.00" fill="#000000">3</text>
</a>
</g>
</g>
<!-- dir_0e000ba09f74190c6812df877db0bc04&#45;&gt;dir_4ae4f6aa51f513a7137c3805eace14f1 -->
<g id="edge5" class="edge">
<title>dir_0e000ba09f74190c6812df877db0bc04&#45;&gt;dir_4ae4f6aa51f513a7137c3805eace14f1</title>
<path fill="none" stroke="#000000" d="M62.976,-36.4133C63.7071,-44.0593 63.9203,-53.1084 63.6155,-61.5726"/>
<polygon fill="#000000" stroke="#000000" points="60.1048,-61.6264 62.9524,-71.8314 67.0902,-62.078 60.1048,-61.6264"/>
<g id="a_edge5&#45;headlabel"><a xlink:href="dir_000214_000225.html" target="_top" xlink:title="80">
<text text-anchor="middle" x="57.5032" y="-54.8562" font-family="FreeSans" font-size="10.00" fill="#000000">80</text>
</a>
</g>
</g>
<!-- dir_196beccc0e794e0d515f47efe99f4e19&#45;&gt;dir_4ae4f6aa51f513a7137c3805eace14f1 -->
<g id="edge6" class="edge">
<title>dir_196beccc0e794e0d515f47efe99f4e19&#45;&gt;dir_4ae4f6aa51f513a7137c3805eace14f1</title>
<path fill="none" stroke="#000000" d="M94.3829,-143.8314C88.6828,-135.6232 81.8337,-125.7606 75.5641,-116.7323"/>
<polygon fill="#000000" stroke="#000000" points="78.3658,-114.6306 69.787,-108.4133 72.6162,-118.6234 78.3658,-114.6306"/>
<g id="a_edge6&#45;headlabel"><a xlink:href="dir_000210_000225.html" target="_top" xlink:title="26">
<text text-anchor="middle" x="82.7482" y="-112.9636" font-family="FreeSans" font-size="10.00" fill="#000000">26</text>
</a>
</g>
</g>
<!-- dir_196beccc0e794e0d515f47efe99f4e19&#45;&gt;dir_0e000ba09f74190c6812df877db0bc04 -->
<g id="edge7" class="edge">
<title>dir_196beccc0e794e0d515f47efe99f4e19&#45;&gt;dir_0e000ba09f74190c6812df877db0bc04</title>
<path fill="none" stroke="#000000" d="M106.4618,-143.8184C105.3906,-125.2056 102.2338,-95.7252 93,-72 89.2997,-62.4925 83.7133,-52.955 78.0379,-44.5982"/>
<polygon fill="#000000" stroke="#000000" points="80.8233,-42.476 72.1667,-36.3676 75.1247,-46.5412 80.8233,-42.476"/>
<g id="a_edge7&#45;headlabel"><a xlink:href="dir_000210_000214.html" target="_top" xlink:title="5">
<text text-anchor="middle" x="85.2222" y="-40.7535" font-family="FreeSans" font-size="10.00" fill="#000000">5</text>
</a>
</g>
</g>
</g>
</svg>
