<?xml version="1.0" encoding="UTF-8" standalone="no"?>
<!DOCTYPE svg PUBLIC "-//W3C//DTD SVG 1.1//EN"
 "http://www.w3.org/Graphics/SVG/1.1/DTD/svg11.dtd">
<!-- Generated by graphviz version 2.40.1 (20161225.0304)
 -->
<!-- Title: fun4all_coresoftware Pages: 1 -->
<svg width="334pt" height="132pt"
 viewBox="0.00 0.00 333.50 132.00" xmlns="http://www.w3.org/2000/svg" xmlns:xlink="http://www.w3.org/1999/xlink">
<g id="graph0" class="graph" transform="scale(1 1) rotate(0) translate(4 128)">
<title>fun4all_coresoftware</title>
<g id="clust1" class="cluster">
<title>clusterdir_1aa3d389fae101556f932418162b18b9</title>
<g id="a_clust1"><a xlink:href="dir_1aa3d389fae101556f932418162b18b9.html" target="_top">
<polygon fill="#eeeeff" stroke="#000000" points="107.5,-64 107.5,-116 317.5,-116 317.5,-64 107.5,-64"/>
</a>
</g>
</g>
<!-- dir_1aa3d389fae101556f932418162b18b9 -->
<g id="node1" class="node">
<title>dir_1aa3d389fae101556f932418162b18b9</title>
<text text-anchor="middle" x="248.5" y="-87" font-family="FreeSans" font-size="10.00" fill="#000000">fun4all_coresoftware</text>
</g>
<!-- dir_2d20e1e9ba331415bfc01e3e08affb3f -->
<g id="node2" class="node">
<title>dir_2d20e1e9ba331415bfc01e3e08affb3f</title>
<g id="a_node2"><a xlink:href="dir_2d20e1e9ba331415bfc01e3e08affb3f.html" target="_top" xlink:title="blob">
<polygon fill="#ffffff" stroke="#ff0000" points="169.5,-108 115.5,-108 115.5,-72 169.5,-72 169.5,-108"/>
<text text-anchor="middle" x="142.5" y="-87" font-family="FreeSans" font-size="10.00" fill="#000000">blob</text>
</a>
</g>
</g>
<!-- dir_c5f7bb1371da9704d8d801631aa5df7a -->
<g id="node3" class="node">
<title>dir_c5f7bb1371da9704d8d801631aa5df7a</title>
<g id="a_node3"><a xlink:href="dir_c5f7bb1371da9704d8d801631aa5df7a.html" target="_top" xlink:title="eic&#45;smear">
<polygon fill="none" stroke="#ff0000" points="67,-36 0,-36 0,0 67,0 67,-36"/>
<text text-anchor="middle" x="33.5" y="-15" font-family="FreeSans" font-size="10.00" fill="#000000">eic&#45;smear</text>
</a>
</g>
</g>
<!-- dir_2d20e1e9ba331415bfc01e3e08affb3f&#45;&gt;dir_c5f7bb1371da9704d8d801631aa5df7a -->
<g id="edge1" class="edge">
<title>dir_2d20e1e9ba331415bfc01e3e08affb3f&#45;&gt;dir_c5f7bb1371da9704d8d801631aa5df7a</title>
<path fill="none" stroke="#000000" d="M115.2759,-72.0171C101.36,-62.825 84.2476,-51.5213 69.2796,-41.6342"/>
<polygon fill="#000000" stroke="#000000" points="71.0279,-38.5945 60.7548,-36.0032 67.1698,-44.4353 71.0279,-38.5945"/>
<g id="a_edge1&#45;headlabel"><a xlink:href="dir_000013_000034.html" target="_top" xlink:title="7">
<text text-anchor="middle" x="75.5921" y="-35.2066" font-family="FreeSans" font-size="10.00" fill="#000000">7</text>
</a>
</g>
</g>
<!-- dir_df8c61a5a605892e4e3b591631f6514f -->
<g id="node4" class="node">
<title>dir_df8c61a5a605892e4e3b591631f6514f</title>
<g id="a_node4"><a xlink:href="dir_df8c61a5a605892e4e3b591631f6514f.html" target="_top" xlink:title="BeastMagneticField">
<polygon fill="none" stroke="#ff0000" points="199.5,-36 85.5,-36 85.5,0 199.5,0 199.5,-36"/>
<text text-anchor="middle" x="142.5" y="-15" font-family="FreeSans" font-size="10.00" fill="#000000">BeastMagneticField</text>
</a>
</g>
</g>
<!-- dir_2d20e1e9ba331415bfc01e3e08affb3f&#45;&gt;dir_df8c61a5a605892e4e3b591631f6514f -->
<g id="edge2" class="edge">
<title>dir_2d20e1e9ba331415bfc01e3e08affb3f&#45;&gt;dir_df8c61a5a605892e4e3b591631f6514f</title>
<path fill="none" stroke="#000000" d="M142.5,-71.8314C142.5,-64.131 142.5,-54.9743 142.5,-46.4166"/>
<polygon fill="#000000" stroke="#000000" points="146.0001,-46.4132 142.5,-36.4133 139.0001,-46.4133 146.0001,-46.4132"/>
<g id="a_edge2&#45;headlabel"><a xlink:href="dir_000013_000000.html" target="_top" xlink:title="1">
<text text-anchor="middle" x="148.8393" y="-47.0079" font-family="FreeSans" font-size="10.00" fill="#000000">1</text>
</a>
</g>
</g>
<!-- dir_1ecc4290ca7a8ab7e710692e3f5c1b51 -->
<g id="node5" class="node">
<title>dir_1ecc4290ca7a8ab7e710692e3f5c1b51</title>
<g id="a_node5"><a xlink:href="dir_1ecc4290ca7a8ab7e710692e3f5c1b51.html" target="_top" xlink:title="fun4all_acts">
<polygon fill="none" stroke="#ff0000" points="295,-36 218,-36 218,0 295,0 295,-36"/>
<text text-anchor="middle" x="256.5" y="-15" font-family="FreeSans" font-size="10.00" fill="#000000">fun4all_acts</text>
</a>
</g>
</g>
<!-- dir_2d20e1e9ba331415bfc01e3e08affb3f&#45;&gt;dir_1ecc4290ca7a8ab7e710692e3f5c1b51 -->
<g id="edge3" class="edge">
<title>dir_2d20e1e9ba331415bfc01e3e08affb3f&#45;&gt;dir_1ecc4290ca7a8ab7e710692e3f5c1b51</title>
<path fill="none" stroke="#000000" d="M167.8074,-71.8468C171.6917,-69.1683 175.68,-66.4784 179.5,-64 191.2631,-56.3682 204.2778,-48.414 216.2082,-41.3084"/>
<polygon fill="#000000" stroke="#000000" points="218.2565,-44.1633 225.0815,-36.0595 214.6926,-38.1385 218.2565,-44.1633"/>
<g id="a_edge3&#45;headlabel"><a xlink:href="dir_000013_000203.html" target="_top" xlink:title="167">
<text text-anchor="middle" x="216.6083" y="-45.4371" font-family="FreeSans" font-size="10.00" fill="#000000">167</text>
</a>
</g>
</g>
</g>
</svg>
