<?xml version="1.0" encoding="UTF-8" standalone="no"?>
<!DOCTYPE svg PUBLIC "-//W3C//DTD SVG 1.1//EN"
 "http://www.w3.org/Graphics/SVG/1.1/DTD/svg11.dtd">
<!-- Generated by graphviz version 2.40.1 (20161225.0304)
 -->
<!-- Title: fun4all_acts/blob/master/Examples/Run/ReadCsv Pages: 1 -->
<svg width="273pt" height="440pt"
 viewBox="0.00 0.00 273.33 440.00" xmlns="http://www.w3.org/2000/svg" xmlns:xlink="http://www.w3.org/1999/xlink">
<g id="graph0" class="graph" transform="scale(1 1) rotate(0) translate(4 436)">
<title>fun4all_acts/blob/master/Examples/Run/ReadCsv</title>
<g id="clust1" class="cluster">
<title>clusterdir_a50c9331337dac1a0f3a2295854998cb</title>
<g id="a_clust1"><a xlink:href="dir_a50c9331337dac1a0f3a2295854998cb.html" target="_top" xlink:title="Run">
<polygon fill="#ddddee" stroke="#000000" points="84,-352 84,-424 160,-424 160,-352 84,-352"/>
<text text-anchor="middle" x="122" y="-411" font-family="FreeSans" font-size="10.00" fill="#000000">Run</text>
</a>
</g>
</g>
<!-- dir_baf1c0792ccd91482c90ecf9c05f81f6 -->
<g id="node1" class="node">
<title>dir_baf1c0792ccd91482c90ecf9c05f81f6</title>
<g id="a_node1"><a xlink:href="dir_baf1c0792ccd91482c90ecf9c05f81f6.html" target="_top" xlink:title="ReadCsv">
<polygon fill="#eeeeff" stroke="#000000" points="152,-396 92,-396 92,-360 152,-360 152,-396"/>
<text text-anchor="middle" x="122" y="-375" font-family="FreeSans" font-size="10.00" fill="#000000">ReadCsv</text>
</a>
</g>
</g>
<!-- dir_c65eeb9aac82dab5763821d9492b29c0 -->
<g id="node2" class="node">
<title>dir_c65eeb9aac82dab5763821d9492b29c0</title>
<g id="a_node2"><a xlink:href="dir_c65eeb9aac82dab5763821d9492b29c0.html" target="_top" xlink:title="Framework">
<polygon fill="none" stroke="#ff0000" points="180,-36 108,-36 108,0 180,0 180,-36"/>
<text text-anchor="middle" x="144" y="-15" font-family="FreeSans" font-size="10.00" fill="#000000">Framework</text>
</a>
</g>
</g>
<!-- dir_baf1c0792ccd91482c90ecf9c05f81f6&#45;&gt;dir_c65eeb9aac82dab5763821d9492b29c0 -->
<g id="edge8" class="edge">
<title>dir_baf1c0792ccd91482c90ecf9c05f81f6&#45;&gt;dir_c65eeb9aac82dab5763821d9492b29c0</title>
<path fill="none" stroke="#000000" d="M91.8427,-360.2804C55.715,-336.5188 0,-290.6853 0,-234 0,-234 0,-234 0,-162 0,-105.3458 56.4204,-63.1962 98.629,-39.5905"/>
<polygon fill="#000000" stroke="#000000" points="100.538,-42.5369 107.6627,-34.6954 97.203,-36.3824 100.538,-42.5369"/>
<g id="a_edge8&#45;headlabel"><a xlink:href="dir_000413_000229.html" target="_top" xlink:title="3">
<text text-anchor="middle" x="98.7303" y="-43.7457" font-family="FreeSans" font-size="10.00" fill="#000000">3</text>
</a>
</g>
</g>
<!-- dir_3ed205e15ae1a014ce56d698a3be9c58 -->
<g id="node3" class="node">
<title>dir_3ed205e15ae1a014ce56d698a3be9c58</title>
<g id="a_node3"><a xlink:href="dir_3ed205e15ae1a014ce56d698a3be9c58.html" target="_top" xlink:title="Detectors">
<polygon fill="none" stroke="#ff0000" points="176.5,-108 111.5,-108 111.5,-72 176.5,-72 176.5,-108"/>
<text text-anchor="middle" x="144" y="-87" font-family="FreeSans" font-size="10.00" fill="#000000">Detectors</text>
</a>
</g>
</g>
<!-- dir_baf1c0792ccd91482c90ecf9c05f81f6&#45;&gt;dir_3ed205e15ae1a014ce56d698a3be9c58 -->
<g id="edge9" class="edge">
<title>dir_baf1c0792ccd91482c90ecf9c05f81f6&#45;&gt;dir_3ed205e15ae1a014ce56d698a3be9c58</title>
<path fill="none" stroke="#000000" d="M103.8424,-359.7286C95.451,-349.9911 86.3877,-337.2949 82,-324 76.9856,-308.8061 79.5816,-303.8162 82,-288 91.5959,-225.2426 117.3667,-155.0472 132.4919,-117.4026"/>
<polygon fill="#000000" stroke="#000000" points="135.7423,-118.7005 136.2725,-108.119 129.2593,-116.0604 135.7423,-118.7005"/>
<g id="a_edge9&#45;headlabel"><a xlink:href="dir_000413_000304.html" target="_top" xlink:title="1">
<text text-anchor="middle" x="137.0162" y="-120.1005" font-family="FreeSans" font-size="10.00" fill="#000000">1</text>
</a>
</g>
</g>
<!-- dir_a10b46be3abf8d206b884ac69bcaa877 -->
<g id="node4" class="node">
<title>dir_a10b46be3abf8d206b884ac69bcaa877</title>
<g id="a_node4"><a xlink:href="dir_a10b46be3abf8d206b884ac69bcaa877.html" target="_top" xlink:title="Common">
<polygon fill="none" stroke="#ff0000" points="152.5,-324 91.5,-324 91.5,-288 152.5,-288 152.5,-324"/>
<text text-anchor="middle" x="122" y="-303" font-family="FreeSans" font-size="10.00" fill="#000000">Common</text>
</a>
</g>
</g>
<!-- dir_baf1c0792ccd91482c90ecf9c05f81f6&#45;&gt;dir_a10b46be3abf8d206b884ac69bcaa877 -->
<g id="edge10" class="edge">
<title>dir_baf1c0792ccd91482c90ecf9c05f81f6&#45;&gt;dir_a10b46be3abf8d206b884ac69bcaa877</title>
<path fill="none" stroke="#000000" d="M122,-359.8314C122,-352.131 122,-342.9743 122,-334.4166"/>
<polygon fill="#000000" stroke="#000000" points="125.5001,-334.4132 122,-324.4133 118.5001,-334.4133 125.5001,-334.4132"/>
<g id="a_edge10&#45;headlabel"><a xlink:href="dir_000413_000389.html" target="_top" xlink:title="2">
<text text-anchor="middle" x="128.3393" y="-335.0079" font-family="FreeSans" font-size="10.00" fill="#000000">2</text>
</a>
</g>
</g>
<!-- dir_aef73fe97709a65a80ea235ec94810fe -->
<g id="node5" class="node">
<title>dir_aef73fe97709a65a80ea235ec94810fe</title>
<g id="a_node5"><a xlink:href="dir_aef73fe97709a65a80ea235ec94810fe.html" target="_top" xlink:title="Algorithms">
<polygon fill="none" stroke="#ff0000" points="252,-180 180,-180 180,-144 252,-144 252,-180"/>
<text text-anchor="middle" x="216" y="-159" font-family="FreeSans" font-size="10.00" fill="#000000">Algorithms</text>
</a>
</g>
</g>
<!-- dir_baf1c0792ccd91482c90ecf9c05f81f6&#45;&gt;dir_aef73fe97709a65a80ea235ec94810fe -->
<g id="edge11" class="edge">
<title>dir_baf1c0792ccd91482c90ecf9c05f81f6&#45;&gt;dir_aef73fe97709a65a80ea235ec94810fe</title>
<path fill="none" stroke="#000000" d="M150.1413,-359.8351C180.3493,-338.3629 226.2552,-299.4788 243,-252 250.3925,-231.039 242.2679,-206.8961 233.0493,-188.8959"/>
<polygon fill="#000000" stroke="#000000" points="236.0926,-187.1662 228.2053,-180.0922 229.9596,-190.5408 236.0926,-187.1662"/>
<g id="a_edge11&#45;headlabel"><a xlink:href="dir_000413_000248.html" target="_top" xlink:title="1">
<text text-anchor="middle" x="240.3129" y="-185.9469" font-family="FreeSans" font-size="10.00" fill="#000000">1</text>
</a>
</g>
</g>
<!-- dir_c3ae5204dfbb426cec1c4451f05c735c -->
<g id="node6" class="node">
<title>dir_c3ae5204dfbb426cec1c4451f05c735c</title>
<g id="a_node6"><a xlink:href="dir_c3ae5204dfbb426cec1c4451f05c735c.html" target="_top" xlink:title="Io">
<polygon fill="none" stroke="#ff0000" points="234,-252 180,-252 180,-216 234,-216 234,-252"/>
<text text-anchor="middle" x="207" y="-231" font-family="FreeSans" font-size="10.00" fill="#000000">Io</text>
</a>
</g>
</g>
<!-- dir_baf1c0792ccd91482c90ecf9c05f81f6&#45;&gt;dir_c3ae5204dfbb426cec1c4451f05c735c -->
<g id="edge12" class="edge">
<title>dir_baf1c0792ccd91482c90ecf9c05f81f6&#45;&gt;dir_c3ae5204dfbb426cec1c4451f05c735c</title>
<path fill="none" stroke="#000000" d="M136.0747,-359.9833C143.8299,-349.7055 153.3964,-336.4299 161,-324 173.439,-303.6655 185.6293,-279.5696 194.3324,-261.4298"/>
<polygon fill="#000000" stroke="#000000" points="197.6688,-262.5623 198.788,-252.0267 191.343,-259.5647 197.6688,-262.5623"/>
<g id="a_edge12&#45;headlabel"><a xlink:href="dir_000413_000353.html" target="_top" xlink:title="4">
<text text-anchor="middle" x="198.6954" y="-264.0264" font-family="FreeSans" font-size="10.00" fill="#000000">4</text>
</a>
</g>
</g>
<!-- dir_3ed205e15ae1a014ce56d698a3be9c58&#45;&gt;dir_c65eeb9aac82dab5763821d9492b29c0 -->
<g id="edge1" class="edge">
<title>dir_3ed205e15ae1a014ce56d698a3be9c58&#45;&gt;dir_c65eeb9aac82dab5763821d9492b29c0</title>
<path fill="none" stroke="#000000" d="M144,-71.8314C144,-64.131 144,-54.9743 144,-46.4166"/>
<polygon fill="#000000" stroke="#000000" points="147.5001,-46.4132 144,-36.4133 140.5001,-46.4133 147.5001,-46.4132"/>
<g id="a_edge1&#45;headlabel"><a xlink:href="dir_000304_000229.html" target="_top" xlink:title="27">
<text text-anchor="middle" x="150.3393" y="-47.0079" font-family="FreeSans" font-size="10.00" fill="#000000">27</text>
</a>
</g>
</g>
<!-- dir_a10b46be3abf8d206b884ac69bcaa877&#45;&gt;dir_c65eeb9aac82dab5763821d9492b29c0 -->
<g id="edge2" class="edge">
<title>dir_a10b46be3abf8d206b884ac69bcaa877&#45;&gt;dir_c65eeb9aac82dab5763821d9492b29c0</title>
<path fill="none" stroke="#000000" d="M115.5506,-287.7781C102.3591,-247.5739 75.6676,-148.7467 102,-72 105.469,-61.8894 111.6899,-52.2137 118.299,-43.9166"/>
<polygon fill="#000000" stroke="#000000" points="121.1265,-45.9949 124.95,-36.1141 115.7992,-41.4539 121.1265,-45.9949"/>
<g id="a_edge2&#45;headlabel"><a xlink:href="dir_000389_000229.html" target="_top" xlink:title="17">
<text text-anchor="middle" x="120.9554" y="-47.5724" font-family="FreeSans" font-size="10.00" fill="#000000">17</text>
</a>
</g>
</g>
<!-- dir_a10b46be3abf8d206b884ac69bcaa877&#45;&gt;dir_3ed205e15ae1a014ce56d698a3be9c58 -->
<g id="edge3" class="edge">
<title>dir_a10b46be3abf8d206b884ac69bcaa877&#45;&gt;dir_3ed205e15ae1a014ce56d698a3be9c58</title>
<path fill="none" stroke="#000000" d="M123.8379,-287.9555C127.6717,-250.3144 136.5458,-163.1867 141.1355,-118.1246"/>
<polygon fill="#000000" stroke="#000000" points="144.6205,-118.4483 142.1519,-108.1451 137.6565,-117.7389 144.6205,-118.4483"/>
<g id="a_edge3&#45;headlabel"><a xlink:href="dir_000389_000304.html" target="_top" xlink:title="9">
<text text-anchor="middle" x="147.081" y="-119.3121" font-family="FreeSans" font-size="10.00" fill="#000000">9</text>
</a>
</g>
</g>
<!-- dir_a10b46be3abf8d206b884ac69bcaa877&#45;&gt;dir_aef73fe97709a65a80ea235ec94810fe -->
<g id="edge4" class="edge">
<title>dir_a10b46be3abf8d206b884ac69bcaa877&#45;&gt;dir_aef73fe97709a65a80ea235ec94810fe</title>
<path fill="none" stroke="#000000" d="M130.5864,-287.8056C139.6747,-269.1825 154.9061,-239.6941 171,-216 177.4433,-206.5139 185.2196,-196.716 192.482,-188.1134"/>
<polygon fill="#000000" stroke="#000000" points="195.3538,-190.1423 199.2273,-180.2809 190.0496,-185.5743 195.3538,-190.1423"/>
<g id="a_edge4&#45;headlabel"><a xlink:href="dir_000389_000248.html" target="_top" xlink:title="7">
<text text-anchor="middle" x="195.1595" y="-191.7188" font-family="FreeSans" font-size="10.00" fill="#000000">7</text>
</a>
</g>
</g>
<!-- dir_a10b46be3abf8d206b884ac69bcaa877&#45;&gt;dir_c3ae5204dfbb426cec1c4451f05c735c -->
<g id="edge5" class="edge">
<title>dir_a10b46be3abf8d206b884ac69bcaa877&#45;&gt;dir_c3ae5204dfbb426cec1c4451f05c735c</title>
<path fill="none" stroke="#000000" d="M143.4491,-287.8314C153.8178,-279.0485 166.4229,-268.3712 177.6646,-258.8489"/>
<polygon fill="#000000" stroke="#000000" points="180.1895,-261.297 185.5578,-252.1628 175.6651,-255.9556 180.1895,-261.297"/>
<g id="a_edge5&#45;headlabel"><a xlink:href="dir_000389_000353.html" target="_top" xlink:title="15">
<text text-anchor="middle" x="179.2818" y="-262.7868" font-family="FreeSans" font-size="10.00" fill="#000000">15</text>
</a>
</g>
</g>
<!-- dir_aef73fe97709a65a80ea235ec94810fe&#45;&gt;dir_c65eeb9aac82dab5763821d9492b29c0 -->
<g id="edge6" class="edge">
<title>dir_aef73fe97709a65a80ea235ec94810fe&#45;&gt;dir_c65eeb9aac82dab5763821d9492b29c0</title>
<path fill="none" stroke="#000000" d="M211.5399,-143.7126C206.5645,-125.0155 197.5349,-95.469 185,-72 179.9258,-62.4997 173.2411,-52.8921 166.7454,-44.4676"/>
<polygon fill="#000000" stroke="#000000" points="169.3508,-42.121 160.3793,-36.4852 163.8781,-46.4857 169.3508,-42.121"/>
<g id="a_edge6&#45;headlabel"><a xlink:href="dir_000248_000229.html" target="_top" xlink:title="98">
<text text-anchor="middle" x="173.8118" y="-40.161" font-family="FreeSans" font-size="10.00" fill="#000000">98</text>
</a>
</g>
</g>
<!-- dir_aef73fe97709a65a80ea235ec94810fe&#45;&gt;dir_3ed205e15ae1a014ce56d698a3be9c58 -->
<g id="edge7" class="edge">
<title>dir_aef73fe97709a65a80ea235ec94810fe&#45;&gt;dir_3ed205e15ae1a014ce56d698a3be9c58</title>
<path fill="none" stroke="#000000" d="M197.8314,-143.8314C189.2848,-135.2848 178.9443,-124.9443 169.6198,-115.6198"/>
<polygon fill="#000000" stroke="#000000" points="171.9592,-113.0095 162.4133,-108.4133 167.0095,-117.9592 171.9592,-113.0095"/>
<g id="a_edge7&#45;headlabel"><a xlink:href="dir_000248_000304.html" target="_top" xlink:title="3">
<text text-anchor="middle" x="176.5087" y="-110.5436" font-family="FreeSans" font-size="10.00" fill="#000000">3</text>
</a>
</g>
</g>
<!-- dir_c3ae5204dfbb426cec1c4451f05c735c&#45;&gt;dir_c65eeb9aac82dab5763821d9492b29c0 -->
<g id="edge13" class="edge">
<title>dir_c3ae5204dfbb426cec1c4451f05c735c&#45;&gt;dir_c65eeb9aac82dab5763821d9492b29c0</title>
<path fill="none" stroke="#000000" d="M232.5052,-215.9627C243.4753,-206.6284 255.1145,-194.2089 261,-180 267.1229,-165.2179 266.0596,-159.1789 261,-144 246.6947,-101.0841 208.3273,-64.8249 179.398,-42.3797"/>
<polygon fill="#000000" stroke="#000000" points="181.2287,-39.3763 171.1391,-36.1436 177.0105,-44.9627 181.2287,-39.3763"/>
<g id="a_edge13&#45;headlabel"><a xlink:href="dir_000353_000229.html" target="_top" xlink:title="96">
<text text-anchor="middle" x="185.8083" y="-36.2765" font-family="FreeSans" font-size="10.00" fill="#000000">96</text>
</a>
</g>
</g>
<!-- dir_c3ae5204dfbb426cec1c4451f05c735c&#45;&gt;dir_3ed205e15ae1a014ce56d698a3be9c58 -->
<g id="edge14" class="edge">
<title>dir_c3ae5204dfbb426cec1c4451f05c735c&#45;&gt;dir_3ed205e15ae1a014ce56d698a3be9c58</title>
<path fill="none" stroke="#000000" d="M192.9004,-215.8184C185.5798,-205.7069 176.9476,-192.6424 171,-180 161.6539,-160.1337 154.6723,-136.2809 150.1522,-118.1241"/>
<polygon fill="#000000" stroke="#000000" points="153.5013,-117.0797 147.776,-108.165 146.6924,-118.7043 153.5013,-117.0797"/>
<g id="a_edge14&#45;headlabel"><a xlink:href="dir_000353_000304.html" target="_top" xlink:title="1">
<text text-anchor="middle" x="157.0972" y="-116.9172" font-family="FreeSans" font-size="10.00" fill="#000000">1</text>
</a>
</g>
</g>
<!-- dir_c3ae5204dfbb426cec1c4451f05c735c&#45;&gt;dir_aef73fe97709a65a80ea235ec94810fe -->
<g id="edge15" class="edge">
<title>dir_c3ae5204dfbb426cec1c4451f05c735c&#45;&gt;dir_aef73fe97709a65a80ea235ec94810fe</title>
<path fill="none" stroke="#000000" d="M209.2711,-215.8314C210.2336,-208.131 211.3782,-198.9743 212.4479,-190.4166"/>
<polygon fill="#000000" stroke="#000000" points="215.9309,-190.7702 213.6983,-180.4133 208.9849,-189.9019 215.9309,-190.7702"/>
<g id="a_edge15&#45;headlabel"><a xlink:href="dir_000353_000248.html" target="_top" xlink:title="2">
<text text-anchor="middle" x="218.3025" y="-191.6892" font-family="FreeSans" font-size="10.00" fill="#000000">2</text>
</a>
</g>
</g>
</g>
</svg>
