<?xml version="1.0" encoding="UTF-8" standalone="no"?>
<!DOCTYPE svg PUBLIC "-//W3C//DTD SVG 1.1//EN"
 "http://www.w3.org/Graphics/SVG/1.1/DTD/svg11.dtd">
<!-- Generated by graphviz version 2.40.1 (20161225.0304)
 -->
<!-- Title: acts/blob/sPHENIX/Examples/Detectors/TGeoDetector Pages: 1 -->
<svg width="257pt" height="376pt"
 viewBox="0.00 0.00 257.00 376.00" xmlns="http://www.w3.org/2000/svg" xmlns:xlink="http://www.w3.org/1999/xlink">
<g id="graph0" class="graph" transform="scale(1 1) rotate(0) translate(4 372)">
<title>acts/blob/sPHENIX/Examples/Detectors/TGeoDetector</title>
<g id="clust1" class="cluster">
<title>clusterdir_c8601c90ec31b27b7ff3bc72a69ef682</title>
<g id="a_clust1"><a xlink:href="dir_c8601c90ec31b27b7ff3bc72a69ef682.html" target="_top" xlink:title="Detectors">
<polygon fill="#ddddee" stroke="#000000" points="49,-200 49,-360 241,-360 241,-200 49,-200"/>
<text text-anchor="middle" x="145" y="-347" font-family="FreeSans" font-size="10.00" fill="#000000">Detectors</text>
</a>
</g>
</g>
<g id="clust2" class="cluster">
<title>clusterdir_885d8c1c42d24dded097a0c6c3654bea</title>
<g id="a_clust2"><a xlink:href="dir_885d8c1c42d24dded097a0c6c3654bea.html" target="_top">
<polygon fill="#eeeeff" stroke="#000000" points="57,-208 57,-332 233,-332 233,-208 57,-208"/>
</a>
</g>
</g>
<!-- dir_885d8c1c42d24dded097a0c6c3654bea -->
<g id="node1" class="node">
<title>dir_885d8c1c42d24dded097a0c6c3654bea</title>
<text text-anchor="middle" x="181" y="-303" font-family="FreeSans" font-size="10.00" fill="#000000">TGeoDetector</text>
</g>
<!-- dir_ab3295b9bebd2520ddd2fe0f8d52b038 -->
<g id="node2" class="node">
<title>dir_ab3295b9bebd2520ddd2fe0f8d52b038</title>
<g id="a_node2"><a xlink:href="dir_ab3295b9bebd2520ddd2fe0f8d52b038.html" target="_top" xlink:title="include">
<polygon fill="#ffffff" stroke="#ff0000" points="119,-252 65,-252 65,-216 119,-216 119,-252"/>
<text text-anchor="middle" x="92" y="-231" font-family="FreeSans" font-size="10.00" fill="#000000">include</text>
</a>
</g>
</g>
<!-- dir_a2f4ff456a06f1c2a2e5bbf0d32f2468 -->
<g id="node4" class="node">
<title>dir_a2f4ff456a06f1c2a2e5bbf0d32f2468</title>
<g id="a_node4"><a xlink:href="dir_a2f4ff456a06f1c2a2e5bbf0d32f2468.html" target="_top" xlink:title="Framework">
<polygon fill="none" stroke="#ff0000" points="111,-108 39,-108 39,-72 111,-72 111,-108"/>
<text text-anchor="middle" x="75" y="-87" font-family="FreeSans" font-size="10.00" fill="#000000">Framework</text>
</a>
</g>
</g>
<!-- dir_ab3295b9bebd2520ddd2fe0f8d52b038&#45;&gt;dir_a2f4ff456a06f1c2a2e5bbf0d32f2468 -->
<g id="edge4" class="edge">
<title>dir_ab3295b9bebd2520ddd2fe0f8d52b038&#45;&gt;dir_a2f4ff456a06f1c2a2e5bbf0d32f2468</title>
<path fill="none" stroke="#000000" d="M73.8424,-215.7286C65.451,-205.9911 56.3877,-193.2949 52,-180 45.1767,-159.3252 51.946,-135.4276 59.8694,-117.4558"/>
<polygon fill="#000000" stroke="#000000" points="63.1669,-118.672 64.311,-108.1392 56.8482,-115.6596 63.1669,-118.672"/>
<g id="a_edge4&#45;headlabel"><a xlink:href="dir_000166_000040.html" target="_top" xlink:title="2">
<text text-anchor="middle" x="64.1829" y="-120.1386" font-family="FreeSans" font-size="10.00" fill="#000000">2</text>
</a>
</g>
</g>
<!-- dir_789f8123dfde15cf89b2665cc94464b8 -->
<g id="node5" class="node">
<title>dir_789f8123dfde15cf89b2665cc94464b8</title>
<g id="a_node5"><a xlink:href="dir_789f8123dfde15cf89b2665cc94464b8.html" target="_top" xlink:title="Common">
<polygon fill="none" stroke="#ff0000" points="122.5,-180 61.5,-180 61.5,-144 122.5,-144 122.5,-180"/>
<text text-anchor="middle" x="92" y="-159" font-family="FreeSans" font-size="10.00" fill="#000000">Common</text>
</a>
</g>
</g>
<!-- dir_ab3295b9bebd2520ddd2fe0f8d52b038&#45;&gt;dir_789f8123dfde15cf89b2665cc94464b8 -->
<g id="edge5" class="edge">
<title>dir_ab3295b9bebd2520ddd2fe0f8d52b038&#45;&gt;dir_789f8123dfde15cf89b2665cc94464b8</title>
<path fill="none" stroke="#000000" d="M92,-215.8314C92,-208.131 92,-198.9743 92,-190.4166"/>
<polygon fill="#000000" stroke="#000000" points="95.5001,-190.4132 92,-180.4133 88.5001,-190.4133 95.5001,-190.4132"/>
<g id="a_edge5&#45;headlabel"><a xlink:href="dir_000166_000124.html" target="_top" xlink:title="1">
<text text-anchor="middle" x="98.3393" y="-191.0079" font-family="FreeSans" font-size="10.00" fill="#000000">1</text>
</a>
</g>
</g>
<!-- dir_138adbd893d7545d51e2e75abe4d687d -->
<g id="node6" class="node">
<title>dir_138adbd893d7545d51e2e75abe4d687d</title>
<g id="a_node6"><a xlink:href="dir_138adbd893d7545d51e2e75abe4d687d.html" target="_top" xlink:title="Plugins">
<polygon fill="none" stroke="#ff0000" points="233,-180 179,-180 179,-144 233,-144 233,-180"/>
<text text-anchor="middle" x="206" y="-159" font-family="FreeSans" font-size="10.00" fill="#000000">Plugins</text>
</a>
</g>
</g>
<!-- dir_ab3295b9bebd2520ddd2fe0f8d52b038&#45;&gt;dir_138adbd893d7545d51e2e75abe4d687d -->
<g id="edge6" class="edge">
<title>dir_ab3295b9bebd2520ddd2fe0f8d52b038&#45;&gt;dir_138adbd893d7545d51e2e75abe4d687d</title>
<path fill="none" stroke="#000000" d="M119.0164,-216.937C134.2384,-207.3231 153.4485,-195.1904 169.9417,-184.7737"/>
<polygon fill="#000000" stroke="#000000" points="172.1965,-187.4892 178.7824,-179.19 168.4586,-181.5708 172.1965,-187.4892"/>
<g id="a_edge6&#45;headlabel"><a xlink:href="dir_000166_000017.html" target="_top" xlink:title="2">
<text text-anchor="middle" x="170.6735" y="-188.8092" font-family="FreeSans" font-size="10.00" fill="#000000">2</text>
</a>
</g>
</g>
<!-- dir_2738455129720d7221426b7d9ba3cc06 -->
<g id="node7" class="node">
<title>dir_2738455129720d7221426b7d9ba3cc06</title>
<g id="a_node7"><a xlink:href="dir_2738455129720d7221426b7d9ba3cc06.html" target="_top" xlink:title="Core">
<polygon fill="none" stroke="#ff0000" points="54,-36 0,-36 0,0 54,0 54,-36"/>
<text text-anchor="middle" x="27" y="-15" font-family="FreeSans" font-size="10.00" fill="#000000">Core</text>
</a>
</g>
</g>
<!-- dir_ab3295b9bebd2520ddd2fe0f8d52b038&#45;&gt;dir_2738455129720d7221426b7d9ba3cc06 -->
<g id="edge7" class="edge">
<title>dir_ab3295b9bebd2520ddd2fe0f8d52b038&#45;&gt;dir_2738455129720d7221426b7d9ba3cc06</title>
<path fill="none" stroke="#000000" d="M72.4253,-215.6722C63.1081,-205.9203 52.5889,-193.2283 46,-180 24.5823,-137.0003 23.2066,-79.852 24.7158,-46.1883"/>
<polygon fill="#000000" stroke="#000000" points="28.2142,-46.3134 25.2854,-36.1315 21.2254,-45.9175 28.2142,-46.3134"/>
<g id="a_edge7&#45;headlabel"><a xlink:href="dir_000166_000004.html" target="_top" xlink:title="16">
<text text-anchor="middle" x="30.8458" y="-47.0628" font-family="FreeSans" font-size="10.00" fill="#000000">16</text>
</a>
</g>
</g>
<!-- dir_fb167783e60e623e858574aa1c7d82a5 -->
<g id="node3" class="node">
<title>dir_fb167783e60e623e858574aa1c7d82a5</title>
<g id="a_node3"><a xlink:href="dir_fb167783e60e623e858574aa1c7d82a5.html" target="_top" xlink:title="src">
<polygon fill="#ffffff" stroke="#000000" points="119,-324 65,-324 65,-288 119,-288 119,-324"/>
<text text-anchor="middle" x="92" y="-303" font-family="FreeSans" font-size="10.00" fill="#000000">src</text>
</a>
</g>
</g>
<!-- dir_fb167783e60e623e858574aa1c7d82a5&#45;&gt;dir_ab3295b9bebd2520ddd2fe0f8d52b038 -->
<g id="edge11" class="edge">
<title>dir_fb167783e60e623e858574aa1c7d82a5&#45;&gt;dir_ab3295b9bebd2520ddd2fe0f8d52b038</title>
<path fill="none" stroke="#000000" d="M92,-287.8314C92,-280.131 92,-270.9743 92,-262.4166"/>
<polygon fill="#000000" stroke="#000000" points="95.5001,-262.4132 92,-252.4133 88.5001,-262.4133 95.5001,-262.4132"/>
<g id="a_edge11&#45;headlabel"><a xlink:href="dir_000169_000166.html" target="_top" xlink:title="2">
<text text-anchor="middle" x="98.3393" y="-263.0079" font-family="FreeSans" font-size="10.00" fill="#000000">2</text>
</a>
</g>
</g>
<!-- dir_fb167783e60e623e858574aa1c7d82a5&#45;&gt;dir_a2f4ff456a06f1c2a2e5bbf0d32f2468 -->
<g id="edge8" class="edge">
<title>dir_fb167783e60e623e858574aa1c7d82a5&#45;&gt;dir_a2f4ff456a06f1c2a2e5bbf0d32f2468</title>
<path fill="none" stroke="#000000" d="M107.766,-287.8464C115.368,-277.9473 123.7435,-265.0706 128,-252 142.8688,-206.3415 149.7784,-188.1945 131,-144 126.3021,-132.9437 118.1086,-123.0516 109.4157,-114.8494"/>
<polygon fill="#000000" stroke="#000000" points="111.5453,-112.0614 101.7231,-108.0896 106.9246,-117.3197 111.5453,-112.0614"/>
<g id="a_edge8&#45;headlabel"><a xlink:href="dir_000169_000040.html" target="_top" xlink:title="1">
<text text-anchor="middle" x="116.1197" y="-109.3014" font-family="FreeSans" font-size="10.00" fill="#000000">1</text>
</a>
</g>
</g>
<!-- dir_fb167783e60e623e858574aa1c7d82a5&#45;&gt;dir_138adbd893d7545d51e2e75abe4d687d -->
<g id="edge9" class="edge">
<title>dir_fb167783e60e623e858574aa1c7d82a5&#45;&gt;dir_138adbd893d7545d51e2e75abe4d687d</title>
<path fill="none" stroke="#000000" d="M119.3299,-290.5358C134.3362,-280.9703 152.4006,-267.5588 165,-252 180.0213,-233.4504 190.8187,-208.5075 197.5501,-189.5847"/>
<polygon fill="#000000" stroke="#000000" points="200.8907,-190.6318 200.7864,-180.0375 194.2613,-188.3845 200.8907,-190.6318"/>
<g id="a_edge9&#45;headlabel"><a xlink:href="dir_000169_000017.html" target="_top" xlink:title="1">
<text text-anchor="middle" x="202.4258" y="-191.9476" font-family="FreeSans" font-size="10.00" fill="#000000">1</text>
</a>
</g>
</g>
<!-- dir_fb167783e60e623e858574aa1c7d82a5&#45;&gt;dir_2738455129720d7221426b7d9ba3cc06 -->
<g id="edge10" class="edge">
<title>dir_fb167783e60e623e858574aa1c7d82a5&#45;&gt;dir_2738455129720d7221426b7d9ba3cc06</title>
<path fill="none" stroke="#000000" d="M78.1763,-287.684C70.9364,-277.533 62.2935,-264.4738 56,-252 26.3318,-193.1972 25.0926,-173.736 21,-108 20.0058,-92.0309 20.1152,-87.9755 21,-72 21.457,-63.7487 22.3039,-54.8207 23.2203,-46.6455"/>
<polygon fill="#000000" stroke="#000000" points="26.7271,-46.7968 24.4382,-36.4522 19.7765,-45.9664 26.7271,-46.7968"/>
<g id="a_edge10&#45;headlabel"><a xlink:href="dir_000169_000004.html" target="_top" xlink:title="2">
<text text-anchor="middle" x="29.1199" y="-47.7028" font-family="FreeSans" font-size="10.00" fill="#000000">2</text>
</a>
</g>
</g>
<!-- dir_a2f4ff456a06f1c2a2e5bbf0d32f2468&#45;&gt;dir_2738455129720d7221426b7d9ba3cc06 -->
<g id="edge1" class="edge">
<title>dir_a2f4ff456a06f1c2a2e5bbf0d32f2468&#45;&gt;dir_2738455129720d7221426b7d9ba3cc06</title>
<path fill="none" stroke="#000000" d="M62.8876,-71.8314C57.4719,-63.7079 50.9758,-53.9637 45.0079,-45.0118"/>
<polygon fill="#000000" stroke="#000000" points="47.7347,-42.7923 39.2755,-36.4133 41.9104,-46.6753 47.7347,-42.7923"/>
<g id="a_edge1&#45;headlabel"><a xlink:href="dir_000040_000004.html" target="_top" xlink:title="39">
<text text-anchor="middle" x="52.091" y="-41.2083" font-family="FreeSans" font-size="10.00" fill="#000000">39</text>
</a>
</g>
</g>
<!-- dir_789f8123dfde15cf89b2665cc94464b8&#45;&gt;dir_a2f4ff456a06f1c2a2e5bbf0d32f2468 -->
<g id="edge2" class="edge">
<title>dir_789f8123dfde15cf89b2665cc94464b8&#45;&gt;dir_a2f4ff456a06f1c2a2e5bbf0d32f2468</title>
<path fill="none" stroke="#000000" d="M87.7102,-143.8314C85.892,-136.131 83.7301,-126.9743 81.7095,-118.4166"/>
<polygon fill="#000000" stroke="#000000" points="85.0519,-117.3414 79.3476,-108.4133 78.2392,-118.95 85.0519,-117.3414"/>
<g id="a_edge2&#45;headlabel"><a xlink:href="dir_000124_000040.html" target="_top" xlink:title="1">
<text text-anchor="middle" x="88.6412" y="-117.1874" font-family="FreeSans" font-size="10.00" fill="#000000">1</text>
</a>
</g>
</g>
<!-- dir_138adbd893d7545d51e2e75abe4d687d&#45;&gt;dir_2738455129720d7221426b7d9ba3cc06 -->
<g id="edge3" class="edge">
<title>dir_138adbd893d7545d51e2e75abe4d687d&#45;&gt;dir_2738455129720d7221426b7d9ba3cc06</title>
<path fill="none" stroke="#000000" d="M191.4508,-143.9802C175.3079,-124.6974 147.8449,-93.9288 120,-72 102.5133,-58.2286 81.1442,-45.5726 63.3013,-35.9798"/>
<polygon fill="#000000" stroke="#000000" points="64.8098,-32.8185 54.3313,-31.2529 61.5464,-39.0113 64.8098,-32.8185"/>
<g id="a_edge3&#45;headlabel"><a xlink:href="dir_000017_000004.html" target="_top" xlink:title="181">
<text text-anchor="middle" x="69.3135" y="-28.9824" font-family="FreeSans" font-size="10.00" fill="#000000">181</text>
</a>
</g>
</g>
</g>
</svg>
