<?xml version="1.0" encoding="UTF-8" standalone="no"?>
<!DOCTYPE svg PUBLIC "-//W3C//DTD SVG 1.1//EN"
 "http://www.w3.org/Graphics/SVG/1.1/DTD/svg11.dtd">
<!-- Generated by graphviz version 2.40.1 (20161225.0304)
 -->
<!-- Title: g4exampledetector/blob/master Pages: 1 -->
<svg width="422pt" height="160pt"
 viewBox="0.00 0.00 422.00 160.00" xmlns="http://www.w3.org/2000/svg" xmlns:xlink="http://www.w3.org/1999/xlink">
<g id="graph0" class="graph" transform="scale(1 1) rotate(0) translate(4 156)">
<title>g4exampledetector/blob/master</title>
<g id="clust1" class="cluster">
<title>clusterdir_bf07eb5bd4834cfc04d446853c1cf6e7</title>
<g id="a_clust1"><a xlink:href="dir_bf07eb5bd4834cfc04d446853c1cf6e7.html" target="_top" xlink:title="blob">
<polygon fill="#ddddee" stroke="#000000" points="8,-56 8,-144 406,-144 406,-56 8,-56"/>
<text text-anchor="middle" x="207" y="-131" font-family="FreeSans" font-size="10.00" fill="#000000">blob</text>
</a>
</g>
</g>
<g id="clust2" class="cluster">
<title>clusterdir_9fcddabb5a1cb986eabfef8cee048d7e</title>
<g id="a_clust2"><a xlink:href="dir_9fcddabb5a1cb986eabfef8cee048d7e.html" target="_top">
<polygon fill="#eeeeff" stroke="#000000" points="16,-64 16,-116 398,-116 398,-64 16,-64"/>
</a>
</g>
</g>
<!-- dir_9fcddabb5a1cb986eabfef8cee048d7e -->
<g id="node1" class="node">
<title>dir_9fcddabb5a1cb986eabfef8cee048d7e</title>
<text text-anchor="middle" x="363" y="-87" font-family="FreeSans" font-size="10.00" fill="#000000">master</text>
</g>
<!-- dir_d14cae01a74e63cb2059604f2498ca79 -->
<g id="node2" class="node">
<title>dir_d14cae01a74e63cb2059604f2498ca79</title>
<g id="a_node2"><a xlink:href="dir_d14cae01a74e63cb2059604f2498ca79.html" target="_top" xlink:title="color">
<polygon fill="#ffffff" stroke="#ff0000" points="318,-108 264,-108 264,-72 318,-72 318,-108"/>
<text text-anchor="middle" x="291" y="-87" font-family="FreeSans" font-size="10.00" fill="#000000">color</text>
</a>
</g>
</g>
<!-- dir_1aa3d389fae101556f932418162b18b9 -->
<g id="node6" class="node">
<title>dir_1aa3d389fae101556f932418162b18b9</title>
<g id="a_node6"><a xlink:href="dir_1aa3d389fae101556f932418162b18b9.html" target="_top" xlink:title="fun4all_coresoftware">
<polygon fill="none" stroke="#ff0000" points="231.5,-36 110.5,-36 110.5,0 231.5,0 231.5,-36"/>
<text text-anchor="middle" x="171" y="-15" font-family="FreeSans" font-size="10.00" fill="#000000">fun4all_coresoftware</text>
</a>
</g>
</g>
<!-- dir_d14cae01a74e63cb2059604f2498ca79&#45;&gt;dir_1aa3d389fae101556f932418162b18b9 -->
<g id="edge1" class="edge">
<title>dir_d14cae01a74e63cb2059604f2498ca79&#45;&gt;dir_1aa3d389fae101556f932418162b18b9</title>
<path fill="none" stroke="#000000" d="M274.0592,-71.7938C268.3475,-66.2814 261.7111,-60.5016 255,-56 246.4376,-50.2567 236.866,-44.9977 227.335,-40.3431"/>
<polygon fill="#000000" stroke="#000000" points="228.7829,-37.1563 218.2439,-36.0694 225.8048,-43.4912 228.7829,-37.1563"/>
<g id="a_edge1&#45;headlabel"><a xlink:href="dir_000653_000012.html" target="_top" xlink:title="41">
<text text-anchor="middle" x="233.2438" y="-33.116" font-family="FreeSans" font-size="10.00" fill="#000000">41</text>
</a>
</g>
</g>
<!-- dir_6d18349ca67dfe71ce284d7db853130c -->
<g id="node3" class="node">
<title>dir_6d18349ca67dfe71ce284d7db853130c</title>
<g id="a_node3"><a xlink:href="dir_6d18349ca67dfe71ce284d7db853130c.html" target="_top" xlink:title="parameter">
<polygon fill="#ffffff" stroke="#ff0000" points="246,-108 176,-108 176,-72 246,-72 246,-108"/>
<text text-anchor="middle" x="211" y="-87" font-family="FreeSans" font-size="10.00" fill="#000000">parameter</text>
</a>
</g>
</g>
<!-- dir_6d18349ca67dfe71ce284d7db853130c&#45;&gt;dir_1aa3d389fae101556f932418162b18b9 -->
<g id="edge3" class="edge">
<title>dir_6d18349ca67dfe71ce284d7db853130c&#45;&gt;dir_1aa3d389fae101556f932418162b18b9</title>
<path fill="none" stroke="#000000" d="M200.9063,-71.8314C196.4403,-63.7925 191.0925,-54.1666 186.1621,-45.2918"/>
<polygon fill="#000000" stroke="#000000" points="189.1456,-43.4551 181.2296,-36.4133 183.0265,-46.8546 189.1456,-43.4551"/>
<g id="a_edge3&#45;headlabel"><a xlink:href="dir_000655_000012.html" target="_top" xlink:title="36">
<text text-anchor="middle" x="193.3732" y="-42.2185" font-family="FreeSans" font-size="10.00" fill="#000000">36</text>
</a>
</g>
</g>
<!-- dir_e70b601254c608e06a9eb628bf5c0a40 -->
<g id="node4" class="node">
<title>dir_e70b601254c608e06a9eb628bf5c0a40</title>
<g id="a_node4"><a xlink:href="dir_e70b601254c608e06a9eb628bf5c0a40.html" target="_top" xlink:title="simple">
<polygon fill="#ffffff" stroke="#ff0000" points="158,-108 104,-108 104,-72 158,-72 158,-108"/>
<text text-anchor="middle" x="131" y="-87" font-family="FreeSans" font-size="10.00" fill="#000000">simple</text>
</a>
</g>
</g>
<!-- dir_e70b601254c608e06a9eb628bf5c0a40&#45;&gt;dir_1aa3d389fae101556f932418162b18b9 -->
<g id="edge4" class="edge">
<title>dir_e70b601254c608e06a9eb628bf5c0a40&#45;&gt;dir_1aa3d389fae101556f932418162b18b9</title>
<path fill="none" stroke="#000000" d="M141.0937,-71.8314C145.5597,-63.7925 150.9075,-54.1666 155.8379,-45.2918"/>
<polygon fill="#000000" stroke="#000000" points="158.9735,-46.8546 160.7704,-36.4133 152.8544,-43.4551 158.9735,-46.8546"/>
<g id="a_edge4&#45;headlabel"><a xlink:href="dir_000657_000012.html" target="_top" xlink:title="72">
<text text-anchor="middle" x="159.7098" y="-48.3757" font-family="FreeSans" font-size="10.00" fill="#000000">72</text>
</a>
</g>
</g>
<!-- dir_3e79ee3b34466a3812afa51fcf3f105d -->
<g id="node5" class="node">
<title>dir_3e79ee3b34466a3812afa51fcf3f105d</title>
<g id="a_node5"><a xlink:href="dir_3e79ee3b34466a3812afa51fcf3f105d.html" target="_top" xlink:title="template">
<polygon fill="#ffffff" stroke="#ff0000" points="86,-108 24,-108 24,-72 86,-72 86,-108"/>
<text text-anchor="middle" x="55" y="-87" font-family="FreeSans" font-size="10.00" fill="#000000">template</text>
</a>
</g>
</g>
<!-- dir_3e79ee3b34466a3812afa51fcf3f105d&#45;&gt;dir_1aa3d389fae101556f932418162b18b9 -->
<g id="edge2" class="edge">
<title>dir_3e79ee3b34466a3812afa51fcf3f105d&#45;&gt;dir_1aa3d389fae101556f932418162b18b9</title>
<path fill="none" stroke="#000000" d="M74.6028,-71.7099C80.8716,-66.3152 88.005,-60.6237 95,-56 103.1289,-50.6268 112.1228,-45.4965 120.994,-40.8414"/>
<polygon fill="#000000" stroke="#000000" points="122.8336,-43.8323 130.153,-36.1722 119.6543,-37.5959 122.8336,-43.8323"/>
<g id="a_edge2&#45;headlabel"><a xlink:href="dir_000659_000012.html" target="_top" xlink:title="16">
<text text-anchor="middle" x="120.9206" y="-44.9944" font-family="FreeSans" font-size="10.00" fill="#000000">16</text>
</a>
</g>
</g>
</g>
</svg>
