<?xml version="1.0" encoding="UTF-8" standalone="no"?>
<!DOCTYPE svg PUBLIC "-//W3C//DTD SVG 1.1//EN"
 "http://www.w3.org/Graphics/SVG/1.1/DTD/svg11.dtd">
<!-- Generated by graphviz version 2.40.1 (20161225.0304)
 -->
<!-- Title: fun4all_acts/blob/master/Examples/Algorithms/GeneratorsPythia8/ACTFW/Options Pages: 1 -->
<svg width="225pt" height="296pt"
 viewBox="0.00 0.00 225.31 296.00" xmlns="http://www.w3.org/2000/svg" xmlns:xlink="http://www.w3.org/1999/xlink">
<g id="graph0" class="graph" transform="scale(1 1) rotate(0) translate(4 292)">
<title>fun4all_acts/blob/master/Examples/Algorithms/GeneratorsPythia8/ACTFW/Options</title>
<g id="clust1" class="cluster">
<title>clusterdir_21acb4ed89e368c6df7488799bbb2fa8</title>
<g id="a_clust1"><a xlink:href="dir_21acb4ed89e368c6df7488799bbb2fa8.html" target="_top" xlink:title="ACTFW">
<polygon fill="#ddddee" stroke="#000000" points="46.8073,-208 46.8073,-280 118.8073,-280 118.8073,-208 46.8073,-208"/>
<text text-anchor="middle" x="82.8073" y="-267" font-family="FreeSans" font-size="10.00" fill="#000000">ACTFW</text>
</a>
</g>
</g>
<!-- dir_02d58ad6f56e5745835eacafb3a7f98d -->
<g id="node1" class="node">
<title>dir_02d58ad6f56e5745835eacafb3a7f98d</title>
<g id="a_node1"><a xlink:href="dir_02d58ad6f56e5745835eacafb3a7f98d.html" target="_top" xlink:title="Options">
<polygon fill="#eeeeff" stroke="#000000" points="110.3073,-252 55.3073,-252 55.3073,-216 110.3073,-216 110.3073,-252"/>
<text text-anchor="middle" x="82.8073" y="-231" font-family="FreeSans" font-size="10.00" fill="#000000">Options</text>
</a>
</g>
</g>
<!-- dir_c65eeb9aac82dab5763821d9492b29c0 -->
<g id="node2" class="node">
<title>dir_c65eeb9aac82dab5763821d9492b29c0</title>
<g id="a_node2"><a xlink:href="dir_c65eeb9aac82dab5763821d9492b29c0.html" target="_top" xlink:title="Framework">
<polygon fill="none" stroke="#ff0000" points="150.8073,-108 78.8073,-108 78.8073,-72 150.8073,-72 150.8073,-108"/>
<text text-anchor="middle" x="114.8073" y="-87" font-family="FreeSans" font-size="10.00" fill="#000000">Framework</text>
</a>
</g>
</g>
<!-- dir_02d58ad6f56e5745835eacafb3a7f98d&#45;&gt;dir_c65eeb9aac82dab5763821d9492b29c0 -->
<g id="edge4" class="edge">
<title>dir_02d58ad6f56e5745835eacafb3a7f98d&#45;&gt;dir_c65eeb9aac82dab5763821d9492b29c0</title>
<path fill="none" stroke="#000000" d="M87.3887,-215.5357C89.9393,-205.118 93.1303,-191.8514 95.8073,-180 100.4402,-159.4895 105.3337,-136.2685 108.9942,-118.5512"/>
<polygon fill="#000000" stroke="#000000" points="112.5152,-118.8044 111.1006,-108.3044 105.6586,-117.3948 112.5152,-118.8044"/>
<g id="a_edge4&#45;headlabel"><a xlink:href="dir_000283_000229.html" target="_top" xlink:title="1">
<text text-anchor="middle" x="114.5726" y="-119.8971" font-family="FreeSans" font-size="10.00" fill="#000000">1</text>
</a>
</g>
</g>
<!-- dir_edb9e86a382853b528ab6d291cec6611 -->
<g id="node3" class="node">
<title>dir_edb9e86a382853b528ab6d291cec6611</title>
<g id="a_node3"><a xlink:href="dir_edb9e86a382853b528ab6d291cec6611.html" target="_top" xlink:title="Core">
<polygon fill="none" stroke="#ff0000" points="109.8073,-36 55.8073,-36 55.8073,0 109.8073,0 109.8073,-36"/>
<text text-anchor="middle" x="82.8073" y="-15" font-family="FreeSans" font-size="10.00" fill="#000000">Core</text>
</a>
</g>
</g>
<!-- dir_02d58ad6f56e5745835eacafb3a7f98d&#45;&gt;dir_edb9e86a382853b528ab6d291cec6611 -->
<g id="edge5" class="edge">
<title>dir_02d58ad6f56e5745835eacafb3a7f98d&#45;&gt;dir_edb9e86a382853b528ab6d291cec6611</title>
<path fill="none" stroke="#000000" d="M55.0919,-222.9901C37.1977,-214.2517 15.356,-200.1328 4.8073,-180 -2.6184,-165.8275 .4294,-159.3894 4.8073,-144 15.6382,-105.9268 41.625,-68.1052 60.6376,-43.9856"/>
<polygon fill="#000000" stroke="#000000" points="63.4852,-46.0299 67.0355,-36.0476 58.035,-41.6372 63.4852,-46.0299"/>
<g id="a_edge5&#45;headlabel"><a xlink:href="dir_000283_000207.html" target="_top" xlink:title="2">
<text text-anchor="middle" x="63.4401" y="-47.6104" font-family="FreeSans" font-size="10.00" fill="#000000">2</text>
</a>
</g>
</g>
<!-- dir_0ccd3b437df73f1bcc70d66d826fe4a8 -->
<g id="node4" class="node">
<title>dir_0ccd3b437df73f1bcc70d66d826fe4a8</title>
<g id="a_node4"><a xlink:href="dir_0ccd3b437df73f1bcc70d66d826fe4a8.html" target="_top" xlink:title="Generators">
<polygon fill="none" stroke="#ff0000" points="87.3073,-180 14.3073,-180 14.3073,-144 87.3073,-144 87.3073,-180"/>
<text text-anchor="middle" x="50.8073" y="-159" font-family="FreeSans" font-size="10.00" fill="#000000">Generators</text>
</a>
</g>
</g>
<!-- dir_02d58ad6f56e5745835eacafb3a7f98d&#45;&gt;dir_0ccd3b437df73f1bcc70d66d826fe4a8 -->
<g id="edge6" class="edge">
<title>dir_02d58ad6f56e5745835eacafb3a7f98d&#45;&gt;dir_0ccd3b437df73f1bcc70d66d826fe4a8</title>
<path fill="none" stroke="#000000" d="M74.7324,-215.8314C71.1971,-207.8771 66.9713,-198.369 63.0617,-189.5723"/>
<polygon fill="#000000" stroke="#000000" points="66.2508,-188.1299 58.991,-180.4133 59.8541,-190.9729 66.2508,-188.1299"/>
<g id="a_edge6&#45;headlabel"><a xlink:href="dir_000283_000276.html" target="_top" xlink:title="3">
<text text-anchor="middle" x="70.3052" y="-187.2616" font-family="FreeSans" font-size="10.00" fill="#000000">3</text>
</a>
</g>
</g>
<!-- dir_0cb0768c893a24bc981ed14120a31d36 -->
<g id="node5" class="node">
<title>dir_0cb0768c893a24bc981ed14120a31d36</title>
<g id="a_node5"><a xlink:href="dir_0cb0768c893a24bc981ed14120a31d36.html" target="_top" xlink:title="Generators">
<polygon fill="none" stroke="#000000" points="217.3073,-180 144.3073,-180 144.3073,-144 217.3073,-144 217.3073,-180"/>
<text text-anchor="middle" x="180.8073" y="-159" font-family="FreeSans" font-size="10.00" fill="#000000">Generators</text>
</a>
</g>
</g>
<!-- dir_02d58ad6f56e5745835eacafb3a7f98d&#45;&gt;dir_0cb0768c893a24bc981ed14120a31d36 -->
<g id="edge7" class="edge">
<title>dir_02d58ad6f56e5745835eacafb3a7f98d&#45;&gt;dir_0cb0768c893a24bc981ed14120a31d36</title>
<path fill="none" stroke="#000000" d="M107.5369,-215.8314C119.7235,-206.8779 134.5897,-195.9558 147.7385,-186.2955"/>
<polygon fill="#000000" stroke="#000000" points="150.0991,-188.9042 156.0857,-180.1628 145.9546,-183.263 150.0991,-188.9042"/>
<g id="a_edge7&#45;headlabel"><a xlink:href="dir_000283_000282.html" target="_top" xlink:title="1">
<text text-anchor="middle" x="148.8834" y="-190.3206" font-family="FreeSans" font-size="10.00" fill="#000000">1</text>
</a>
</g>
</g>
<!-- dir_c65eeb9aac82dab5763821d9492b29c0&#45;&gt;dir_edb9e86a382853b528ab6d291cec6611 -->
<g id="edge1" class="edge">
<title>dir_c65eeb9aac82dab5763821d9492b29c0&#45;&gt;dir_edb9e86a382853b528ab6d291cec6611</title>
<path fill="none" stroke="#000000" d="M106.7324,-71.8314C103.1971,-63.8771 98.9713,-54.369 95.0617,-45.5723"/>
<polygon fill="#000000" stroke="#000000" points="98.2508,-44.1299 90.991,-36.4133 91.8541,-46.9729 98.2508,-44.1299"/>
<g id="a_edge1&#45;headlabel"><a xlink:href="dir_000229_000207.html" target="_top" xlink:title="27">
<text text-anchor="middle" x="102.3052" y="-43.2616" font-family="FreeSans" font-size="10.00" fill="#000000">27</text>
</a>
</g>
</g>
<!-- dir_0ccd3b437df73f1bcc70d66d826fe4a8&#45;&gt;dir_c65eeb9aac82dab5763821d9492b29c0 -->
<g id="edge2" class="edge">
<title>dir_0ccd3b437df73f1bcc70d66d826fe4a8&#45;&gt;dir_c65eeb9aac82dab5763821d9492b29c0</title>
<path fill="none" stroke="#000000" d="M66.9572,-143.8314C74.479,-135.3694 83.5639,-125.1489 91.7877,-115.8971"/>
<polygon fill="#000000" stroke="#000000" points="94.4123,-118.2127 98.44,-108.4133 89.1804,-113.5621 94.4123,-118.2127"/>
<g id="a_edge2&#45;headlabel"><a xlink:href="dir_000276_000229.html" target="_top" xlink:title="18">
<text text-anchor="middle" x="94.1462" y="-119.7856" font-family="FreeSans" font-size="10.00" fill="#000000">18</text>
</a>
</g>
</g>
<!-- dir_0ccd3b437df73f1bcc70d66d826fe4a8&#45;&gt;dir_edb9e86a382853b528ab6d291cec6611 -->
<g id="edge3" class="edge">
<title>dir_0ccd3b437df73f1bcc70d66d826fe4a8&#45;&gt;dir_edb9e86a382853b528ab6d291cec6611</title>
<path fill="none" stroke="#000000" d="M54.5141,-143.6956C58.2384,-125.4872 64.2129,-96.7674 69.8073,-72 71.6896,-63.667 73.826,-54.6343 75.8152,-46.3842"/>
<polygon fill="#000000" stroke="#000000" points="79.2654,-47.008 78.226,-36.4643 72.4634,-45.3549 79.2654,-47.008"/>
<g id="a_edge3&#45;headlabel"><a xlink:href="dir_000276_000207.html" target="_top" xlink:title="9">
<text text-anchor="middle" x="81.1756" y="-48.1714" font-family="FreeSans" font-size="10.00" fill="#000000">9</text>
</a>
</g>
</g>
<!-- dir_0cb0768c893a24bc981ed14120a31d36&#45;&gt;dir_c65eeb9aac82dab5763821d9492b29c0 -->
<g id="edge8" class="edge">
<title>dir_0cb0768c893a24bc981ed14120a31d36&#45;&gt;dir_c65eeb9aac82dab5763821d9492b29c0</title>
<path fill="none" stroke="#000000" d="M164.1527,-143.8314C156.3959,-135.3694 147.0272,-125.1489 138.5463,-115.8971"/>
<polygon fill="#000000" stroke="#000000" points="141.0235,-113.4198 131.6862,-108.4133 135.8634,-118.1499 141.0235,-113.4198"/>
<g id="a_edge8&#45;headlabel"><a xlink:href="dir_000282_000229.html" target="_top" xlink:title="2">
<text text-anchor="middle" x="145.5454" y="-111.151" font-family="FreeSans" font-size="10.00" fill="#000000">2</text>
</a>
</g>
</g>
<!-- dir_0cb0768c893a24bc981ed14120a31d36&#45;&gt;dir_edb9e86a382853b528ab6d291cec6611 -->
<g id="edge9" class="edge">
<title>dir_0cb0768c893a24bc981ed14120a31d36&#45;&gt;dir_edb9e86a382853b528ab6d291cec6611</title>
<path fill="none" stroke="#000000" d="M180.3281,-143.9314C179.0142,-124.6069 174.5391,-93.8029 159.8073,-72 149.5877,-56.875 133.6092,-44.6619 118.8506,-35.7019"/>
<polygon fill="#000000" stroke="#000000" points="120.2955,-32.4955 109.8814,-30.5465 116.8071,-38.5644 120.2955,-32.4955"/>
<g id="a_edge9&#45;headlabel"><a xlink:href="dir_000282_000207.html" target="_top" xlink:title="3">
<text text-anchor="middle" x="124.8268" y="-28.8251" font-family="FreeSans" font-size="10.00" fill="#000000">3</text>
</a>
</g>
</g>
</g>
</svg>
