<?xml version="1.0" encoding="UTF-8" standalone="no"?>
<!DOCTYPE svg PUBLIC "-//W3C//DTD SVG 1.1//EN"
 "http://www.w3.org/Graphics/SVG/1.1/DTD/svg11.dtd">
<!-- Generated by graphviz version 2.40.1 (20161225.0304)
 -->
<!-- Title: EicCalorimeterDigiHitProducer::ExtraInit Pages: 1 -->
<svg width="1524pt" height="371pt"
 viewBox="0.00 0.00 1524.00 371.00" xmlns="http://www.w3.org/2000/svg" xmlns:xlink="http://www.w3.org/1999/xlink">
<g id="graph0" class="graph" transform="scale(1 1) rotate(0) translate(4 367)">
<title>EicCalorimeterDigiHitProducer::ExtraInit</title>
<!-- Node1 -->
<g id="node1" class="node">
<title>Node1</title>
<polygon fill="#bfbfbf" stroke="#000000" points="0,-156.5 0,-188.5 170,-188.5 170,-156.5 0,-156.5"/>
<text text-anchor="start" x="8" y="-175.5" font-family="FreeSans" font-size="10.00" fill="#000000">EicCalorimeterDigiHitProducer</text>
<text text-anchor="middle" x="85" y="-163.5" font-family="FreeSans" font-size="10.00" fill="#000000">::ExtraInit</text>
</g>
<!-- Node2 -->
<g id="node2" class="node">
<title>Node2</title>
<g id="a_node2"><a xlink:href="../../dd/d0b/classEicNamePatternHub.html#a8baac9dd7e44ee789555cb040763f903" target="_top" xlink:title="EicNamePatternHub::\lAnyMatch">
<polygon fill="none" stroke="#000000" points="252.5,-330.5 252.5,-362.5 375.5,-362.5 375.5,-330.5 252.5,-330.5"/>
<text text-anchor="start" x="260.5" y="-349.5" font-family="FreeSans" font-size="10.00" fill="#000000">EicNamePatternHub::</text>
<text text-anchor="middle" x="314" y="-337.5" font-family="FreeSans" font-size="10.00" fill="#000000">AnyMatch</text>
</a>
</g>
</g>
<!-- Node1&#45;&gt;Node2 -->
<g id="edge1" class="edge">
<title>Node1&#45;&gt;Node2</title>
<path fill="none" stroke="#191970" d="M93.4654,-188.9418C110.3753,-220.0486 151.4448,-287.4406 206,-321.5 217.0579,-328.4036 229.825,-333.4041 242.6226,-337.0254"/>
<polygon fill="#191970" stroke="#191970" points="241.8308,-340.4356 252.3872,-339.5344 243.5729,-333.6558 241.8308,-340.4356"/>
</g>
<!-- Node3 -->
<g id="node3" class="node">
<title>Node3</title>
<g id="a_node3"><a xlink:href="../../da/d86/classEicGeoMap.html#ac0152c039ec595deee7e120aaa382664" target="_top" xlink:title="EicGeoMap::GetInnermostVolumeName">
<polygon fill="none" stroke="#000000" points="206,-291.5 206,-311.5 422,-311.5 422,-291.5 206,-291.5"/>
<text text-anchor="middle" x="314" y="-298.5" font-family="FreeSans" font-size="10.00" fill="#000000">EicGeoMap::GetInnermostVolumeName</text>
</a>
</g>
</g>
<!-- Node1&#45;&gt;Node3 -->
<g id="edge2" class="edge">
<title>Node1&#45;&gt;Node3</title>
<path fill="none" stroke="#191970" d="M97.5268,-188.6517C117.5662,-213.2425 159.3543,-259.6226 206,-282.5 210.4148,-284.6652 215.038,-286.5869 219.7828,-288.2923"/>
<polygon fill="#191970" stroke="#191970" points="219.0728,-291.7414 229.6649,-291.4974 221.2325,-285.0829 219.0728,-291.7414"/>
</g>
<!-- Node6 -->
<g id="node6" class="node">
<title>Node6</title>
<g id="a_node6"><a xlink:href="../../df/de0/classEicGeoParData.html#ac5ee460259e462acf7502ddbac2bcd33" target="_top" xlink:title="EicGeoParData::GetMapNum">
<polygon fill="none" stroke="#000000" points="233.5,-252.5 233.5,-272.5 394.5,-272.5 394.5,-252.5 233.5,-252.5"/>
<text text-anchor="middle" x="314" y="-259.5" font-family="FreeSans" font-size="10.00" fill="#000000">EicGeoParData::GetMapNum</text>
</a>
</g>
</g>
<!-- Node1&#45;&gt;Node6 -->
<g id="edge5" class="edge">
<title>Node1&#45;&gt;Node6</title>
<path fill="none" stroke="#191970" d="M106.9825,-188.6797C130.3495,-205.0669 168.9674,-229.8816 206,-243.5 212.7564,-245.9846 219.873,-248.1497 227.0962,-250.0356"/>
<polygon fill="#191970" stroke="#191970" points="226.4445,-253.479 236.9881,-252.4378 228.0965,-246.6767 226.4445,-253.479"/>
</g>
<!-- Node7 -->
<g id="node7" class="node">
<title>Node7</title>
<g id="a_node7"><a xlink:href="../../df/de0/classEicGeoParData.html#a910b3df559c36e4a30a981f62372f013" target="_top" xlink:title="EicGeoParData::GetMapPtr\lViaMapID">
<polygon fill="none" stroke="#000000" points="238,-201.5 238,-233.5 390,-233.5 390,-201.5 238,-201.5"/>
<text text-anchor="start" x="246" y="-220.5" font-family="FreeSans" font-size="10.00" fill="#000000">EicGeoParData::GetMapPtr</text>
<text text-anchor="middle" x="314" y="-208.5" font-family="FreeSans" font-size="10.00" fill="#000000">ViaMapID</text>
</a>
</g>
</g>
<!-- Node1&#45;&gt;Node7 -->
<g id="edge6" class="edge">
<title>Node1&#45;&gt;Node7</title>
<path fill="none" stroke="#191970" d="M166.7044,-188.5555C186.4834,-192.4422 207.6884,-196.6091 227.6725,-200.5361"/>
<polygon fill="#191970" stroke="#191970" points="227.1969,-204.0095 237.6842,-202.5034 228.5467,-197.1408 227.1969,-204.0095"/>
</g>
<!-- Node8 -->
<g id="node8" class="node">
<title>Node8</title>
<g id="a_node8"><a xlink:href="../../d0/d6c/classFairRootManager.html#a830b7803b29e7424a75f2dc374dcc96b" target="_top" xlink:title="FairRootManager::Instance">
<polygon fill="none" stroke="#000000" points="238.5,-162.5 238.5,-182.5 389.5,-182.5 389.5,-162.5 238.5,-162.5"/>
<text text-anchor="middle" x="314" y="-169.5" font-family="FreeSans" font-size="10.00" fill="#000000">FairRootManager::Instance</text>
</a>
</g>
</g>
<!-- Node1&#45;&gt;Node8 -->
<g id="edge7" class="edge">
<title>Node1&#45;&gt;Node8</title>
<path fill="none" stroke="#191970" d="M170.2711,-172.5C189.2424,-172.5 209.361,-172.5 228.3475,-172.5"/>
<polygon fill="#191970" stroke="#191970" points="228.4616,-176.0001 238.4616,-172.5 228.4615,-169.0001 228.4616,-176.0001"/>
</g>
<!-- Node9 -->
<g id="node9" class="node">
<title>Node9</title>
<g id="a_node9"><a xlink:href="../../d0/d2f/classEicDetName.html#a8f59e2270e09087bf055746b18ea1915" target="_top" xlink:title="EicDetName::NAME">
<polygon fill="none" stroke="#000000" points="256.5,-123.5 256.5,-143.5 371.5,-143.5 371.5,-123.5 256.5,-123.5"/>
<text text-anchor="middle" x="314" y="-130.5" font-family="FreeSans" font-size="10.00" fill="#000000">EicDetName::NAME</text>
</a>
</g>
</g>
<!-- Node1&#45;&gt;Node9 -->
<g id="edge8" class="edge">
<title>Node1&#45;&gt;Node9</title>
<path fill="none" stroke="#191970" d="M170.2711,-157.9778C195.4178,-153.6952 222.5803,-149.0693 246.4502,-145.0041"/>
<polygon fill="#191970" stroke="#191970" points="247.1926,-148.4282 256.4631,-143.2989 246.0174,-141.5275 247.1926,-148.4282"/>
</g>
<!-- Node10 -->
<g id="node10" class="node">
<title>Node10</title>
<g id="a_node10"><a xlink:href="../../d0/d2f/classEicDetName.html#aef29cb1ffe2ea071a03f4aa098408595" target="_top" xlink:title="EicDetName::Name">
<polygon fill="none" stroke="#000000" points="256.5,-84.5 256.5,-104.5 371.5,-104.5 371.5,-84.5 256.5,-84.5"/>
<text text-anchor="middle" x="314" y="-91.5" font-family="FreeSans" font-size="10.00" fill="#000000">EicDetName::Name</text>
</a>
</g>
</g>
<!-- Node1&#45;&gt;Node10 -->
<g id="edge9" class="edge">
<title>Node1&#45;&gt;Node10</title>
<path fill="none" stroke="#191970" d="M112.9676,-156.472C136.9447,-143.3793 172.7764,-125.3276 206,-114.5 218.7861,-110.333 232.7237,-106.9441 246.208,-104.2207"/>
<polygon fill="#191970" stroke="#191970" points="247.2423,-107.5863 256.4045,-102.2661 245.9244,-100.7114 247.2423,-107.5863"/>
</g>
<!-- Node11 -->
<g id="node11" class="node">
<title>Node11</title>
<g id="a_node11"><a xlink:href="../../d0/d6c/classFairRootManager.html#a18838841d44029983d5a855b46417591" target="_top" xlink:title="FairRootManager::Register">
<polygon fill="none" stroke="#000000" points="239,-45.5 239,-65.5 389,-65.5 389,-45.5 239,-45.5"/>
<text text-anchor="middle" x="314" y="-52.5" font-family="FreeSans" font-size="10.00" fill="#000000">FairRootManager::Register</text>
</a>
</g>
</g>
<!-- Node1&#45;&gt;Node11 -->
<g id="edge10" class="edge">
<title>Node1&#45;&gt;Node11</title>
<path fill="none" stroke="#191970" d="M99.6585,-156.3061C120.8177,-134.0345 162.2113,-94.4475 206,-74.5 213.267,-71.1896 221.0521,-68.4539 228.9903,-66.1935"/>
<polygon fill="#191970" stroke="#191970" points="229.9256,-69.5668 238.7247,-63.6653 228.1659,-62.7915 229.9256,-69.5668"/>
</g>
<!-- Node23 -->
<g id="node23" class="node">
<title>Node23</title>
<g id="a_node23"><a xlink:href="../../da/d86/classEicGeoMap.html#a1968836399685192059dbaa188d23ee7" target="_top" xlink:title="EicGeoMap::SetSensitivityFlag">
<polygon fill="none" stroke="#000000" points="229,-6.5 229,-26.5 399,-26.5 399,-6.5 229,-6.5"/>
<text text-anchor="middle" x="314" y="-13.5" font-family="FreeSans" font-size="10.00" fill="#000000">EicGeoMap::SetSensitivityFlag</text>
</a>
</g>
</g>
<!-- Node1&#45;&gt;Node23 -->
<g id="edge25" class="edge">
<title>Node1&#45;&gt;Node23</title>
<path fill="none" stroke="#191970" d="M94.2143,-156.2188C111.7937,-126.8072 153.1243,-65.1278 206,-35.5 210.2403,-33.124 214.7091,-31.033 219.3185,-29.1937"/>
<polygon fill="#191970" stroke="#191970" points="220.7049,-32.4153 228.9494,-25.7612 218.3548,-25.8216 220.7049,-32.4153"/>
</g>
<!-- Node4 -->
<g id="node4" class="node">
<title>Node4</title>
<g id="a_node4"><a xlink:href="../../da/d86/classEicGeoMap.html#a4f2a01b122b88ccce37f2354eeda7d01" target="_top" xlink:title="EicGeoMap::GetGeantVolume\lLevelPtr">
<polygon fill="none" stroke="#000000" points="477,-307.5 477,-339.5 643,-339.5 643,-307.5 477,-307.5"/>
<text text-anchor="start" x="485" y="-326.5" font-family="FreeSans" font-size="10.00" fill="#000000">EicGeoMap::GetGeantVolume</text>
<text text-anchor="middle" x="560" y="-314.5" font-family="FreeSans" font-size="10.00" fill="#000000">LevelPtr</text>
</a>
</g>
</g>
<!-- Node3&#45;&gt;Node4 -->
<g id="edge3" class="edge">
<title>Node3&#45;&gt;Node4</title>
<path fill="none" stroke="#191970" d="M422.2572,-311.1815C437.1295,-312.5116 452.2935,-313.8677 466.8626,-315.1706"/>
<polygon fill="#191970" stroke="#191970" points="466.5709,-318.6584 476.8429,-316.0632 467.1945,-311.6863 466.5709,-318.6584"/>
</g>
<!-- Node5 -->
<g id="node5" class="node">
<title>Node5</title>
<g id="a_node5"><a xlink:href="../../d1/d24/classGeantVolumeLevel.html#a4aba5288354c7287b6fc03cd9d30b2a2" target="_top" xlink:title="GeantVolumeLevel::GetVolumeName">
<polygon fill="none" stroke="#000000" points="458,-268.5 458,-288.5 662,-288.5 662,-268.5 458,-268.5"/>
<text text-anchor="middle" x="560" y="-275.5" font-family="FreeSans" font-size="10.00" fill="#000000">GeantVolumeLevel::GetVolumeName</text>
</a>
</g>
</g>
<!-- Node3&#45;&gt;Node5 -->
<g id="edge4" class="edge">
<title>Node3&#45;&gt;Node5</title>
<path fill="none" stroke="#191970" d="M421.1836,-291.4788C430.0264,-290.652 438.9801,-289.8149 447.8578,-288.9848"/>
<polygon fill="#191970" stroke="#191970" points="448.208,-292.4675 457.8388,-288.0517 447.5564,-285.4978 448.208,-292.4675"/>
</g>
<!-- Node12 -->
<g id="node12" class="node">
<title>Node12</title>
<g id="a_node12"><a xlink:href="../../db/da1/classFairLogger.html#ace1485db832f9a0c33a82fb5d9872b12" target="_top" xlink:title="FairLogger::Fatal">
<polygon fill="none" stroke="#000000" points="510.5,-68.5 510.5,-88.5 609.5,-88.5 609.5,-68.5 510.5,-68.5"/>
<text text-anchor="middle" x="560" y="-75.5" font-family="FreeSans" font-size="10.00" fill="#000000">FairLogger::Fatal</text>
</a>
</g>
</g>
<!-- Node11&#45;&gt;Node12 -->
<g id="edge11" class="edge">
<title>Node11&#45;&gt;Node12</title>
<path fill="none" stroke="#191970" d="M389.1448,-62.5257C424.7428,-65.854 466.6766,-69.7746 500.0917,-72.8988"/>
<polygon fill="#191970" stroke="#191970" points="499.8895,-76.3951 510.1719,-73.8413 500.5412,-69.4255 499.8895,-76.3951"/>
</g>
<!-- Node22 -->
<g id="node22" class="node">
<title>Node22</title>
<g id="a_node22"><a xlink:href="../../d0/d6c/classFairRootManager.html#ae01e51ec943e7e829002b077cf50792d" target="_top" xlink:title="FairRootManager::AddMemory\lBranch">
<polygon fill="none" stroke="#000000" points="475.5,-17.5 475.5,-49.5 644.5,-49.5 644.5,-17.5 475.5,-17.5"/>
<text text-anchor="start" x="483.5" y="-36.5" font-family="FreeSans" font-size="10.00" fill="#000000">FairRootManager::AddMemory</text>
<text text-anchor="middle" x="560" y="-24.5" font-family="FreeSans" font-size="10.00" fill="#000000">Branch</text>
</a>
</g>
</g>
<!-- Node11&#45;&gt;Node22 -->
<g id="edge24" class="edge">
<title>Node11&#45;&gt;Node22</title>
<path fill="none" stroke="#191970" d="M389.1448,-48.7797C413.2194,-46.6267 440.1918,-44.2146 465.4672,-41.9542"/>
<polygon fill="#191970" stroke="#191970" points="465.7838,-45.4399 475.4322,-41.063 465.1602,-38.4677 465.7838,-45.4399"/>
</g>
<!-- Node13 -->
<g id="node13" class="node">
<title>Node13</title>
<g id="a_node13"><a xlink:href="../../db/da1/classFairLogger.html#aa9d98b58fab95abcf553dfefe1e572f5" target="_top" xlink:title="FairLogger::Log">
<polygon fill="none" stroke="#000000" points="698,-68.5 698,-88.5 791,-88.5 791,-68.5 698,-68.5"/>
<text text-anchor="middle" x="744.5" y="-75.5" font-family="FreeSans" font-size="10.00" fill="#000000">FairLogger::Log</text>
</a>
</g>
</g>
<!-- Node12&#45;&gt;Node13 -->
<g id="edge12" class="edge">
<title>Node12&#45;&gt;Node13</title>
<path fill="none" stroke="#191970" d="M609.9284,-78.5C633.9403,-78.5 662.8363,-78.5 687.6866,-78.5"/>
<polygon fill="#191970" stroke="#191970" points="687.7044,-82.0001 697.7044,-78.5 687.7043,-75.0001 687.7044,-82.0001"/>
</g>
<!-- Node14 -->
<g id="node14" class="node">
<title>Node14</title>
<g id="a_node14"><a xlink:href="../../db/da1/classFairLogger.html#a5529c6ab25bc075aff767f30a743e616" target="_top" xlink:title="FairLogger::OpenLogFile">
<polygon fill="none" stroke="#000000" points="1040.5,-107.5 1040.5,-127.5 1177.5,-127.5 1177.5,-107.5 1040.5,-107.5"/>
<text text-anchor="middle" x="1109" y="-114.5" font-family="FreeSans" font-size="10.00" fill="#000000">FairLogger::OpenLogFile</text>
</a>
</g>
</g>
<!-- Node13&#45;&gt;Node14 -->
<g id="edge13" class="edge">
<title>Node13&#45;&gt;Node14</title>
<path fill="none" stroke="#191970" d="M779.9702,-88.5035C794.444,-92.2165 811.4137,-96.1036 827,-98.5 895.0299,-108.9596 973.1723,-113.6612 1029.9211,-115.7746"/>
<polygon fill="#191970" stroke="#191970" points="1030.1437,-119.2846 1040.2611,-116.1399 1030.3909,-112.2889 1030.1437,-119.2846"/>
</g>
<!-- Node16 -->
<g id="node16" class="node">
<title>Node16</title>
<g id="a_node16"><a xlink:href="../../db/da1/classFairLogger.html#aeb76e4a75fe913ebdf1c07b5d1f3ac1b" target="_top" xlink:title="FairLogger::GetOutputStream">
<polygon fill="none" stroke="#000000" points="827,-68.5 827,-88.5 992,-88.5 992,-68.5 827,-68.5"/>
<text text-anchor="middle" x="909.5" y="-75.5" font-family="FreeSans" font-size="10.00" fill="#000000">FairLogger::GetOutputStream</text>
</a>
</g>
</g>
<!-- Node13&#45;&gt;Node16 -->
<g id="edge15" class="edge">
<title>Node13&#45;&gt;Node16</title>
<path fill="none" stroke="#191970" d="M791.341,-78.5C799.4402,-78.5 808.1072,-78.5 816.9301,-78.5"/>
<polygon fill="#191970" stroke="#191970" points="816.9358,-82.0001 826.9358,-78.5 816.9358,-75.0001 816.9358,-82.0001"/>
</g>
<!-- Node19 -->
<g id="node19" class="node">
<title>Node19</title>
<g id="a_node19"><a xlink:href="../../db/da1/classFairLogger.html#a496d9b3f72963d24a58abc5a023b74b0" target="_top" xlink:title="End of the line.">
<polygon fill="none" stroke="#000000" points="861,-29.5 861,-49.5 958,-49.5 958,-29.5 861,-29.5"/>
<text text-anchor="middle" x="909.5" y="-36.5" font-family="FreeSans" font-size="10.00" fill="#000000">FairLogger::endl</text>
</a>
</g>
</g>
<!-- Node13&#45;&gt;Node19 -->
<g id="edge19" class="edge">
<title>Node13&#45;&gt;Node19</title>
<path fill="none" stroke="#191970" d="M785.6023,-68.4375C798.8136,-65.2295 813.5179,-61.6866 827,-58.5 836.236,-56.317 846.0614,-54.0265 855.5913,-51.8216"/>
<polygon fill="#191970" stroke="#191970" points="856.4215,-55.222 865.3783,-49.5629 854.8474,-48.4013 856.4215,-55.222"/>
</g>
<!-- Node15 -->
<g id="node15" class="node">
<title>Node15</title>
<g id="a_node15"><a xlink:href="../../db/da1/classFairLogger.html#a80d1ac93eff9a9b6d52f8118b8b796aa" target="_top" xlink:title="FairLogger::CloseLogFile">
<polygon fill="none" stroke="#000000" points="1226,-107.5 1226,-127.5 1364,-127.5 1364,-107.5 1226,-107.5"/>
<text text-anchor="middle" x="1295" y="-114.5" font-family="FreeSans" font-size="10.00" fill="#000000">FairLogger::CloseLogFile</text>
</a>
</g>
</g>
<!-- Node14&#45;&gt;Node15 -->
<g id="edge14" class="edge">
<title>Node14&#45;&gt;Node15</title>
<path fill="none" stroke="#191970" d="M1177.7311,-117.5C1190.1428,-117.5 1203.1747,-117.5 1215.855,-117.5"/>
<polygon fill="#191970" stroke="#191970" points="1215.9305,-121.0001 1225.9305,-117.5 1215.9304,-114.0001 1215.9305,-121.0001"/>
</g>
<!-- Node16&#45;&gt;Node14 -->
<g id="edge18" class="edge">
<title>Node16&#45;&gt;Node14</title>
<path fill="none" stroke="#191970" d="M960.8762,-88.5435C987.4045,-93.7294 1019.9556,-100.0928 1047.7804,-105.5323"/>
<polygon fill="#191970" stroke="#191970" points="1047.3121,-109.0069 1057.7979,-107.4906 1048.6552,-102.1369 1047.3121,-109.0069"/>
</g>
<!-- Node17 -->
<g id="node17" class="node">
<title>Node17</title>
<g id="a_node17"><a xlink:href="../../db/da1/classFairLogger.html#a6fe59f109418f1331c91c39d0ea33c1d" target="_top" xlink:title="FairLogger::GetTime">
<polygon fill="none" stroke="#000000" points="1236,-58.5 1236,-78.5 1354,-78.5 1354,-58.5 1236,-58.5"/>
<text text-anchor="middle" x="1295" y="-65.5" font-family="FreeSans" font-size="10.00" fill="#000000">FairLogger::GetTime</text>
</a>
</g>
</g>
<!-- Node16&#45;&gt;Node17 -->
<g id="edge16" class="edge">
<title>Node16&#45;&gt;Node17</title>
<path fill="none" stroke="#191970" d="M992.1994,-76.3547C1061.8147,-74.5489 1160.2325,-71.9959 1225.7554,-70.2962"/>
<polygon fill="#191970" stroke="#191970" points="1226.0737,-73.7892 1235.9795,-70.031 1225.8921,-66.7916 1226.0737,-73.7892"/>
</g>
<!-- Node18 -->
<g id="node18" class="node">
<title>Node18</title>
<g id="a_node18"><a xlink:href="../../df/da1/namespaceActs_1_1VectorHelpers.html#ab52a0c8023eda1c81cc9ddfe7f03b535" target="_top" xlink:title="Access to the time component of input parameter.">
<polygon fill="none" stroke="#000000" points="1400,-52.5 1400,-84.5 1516,-84.5 1516,-52.5 1400,-52.5"/>
<text text-anchor="start" x="1408" y="-71.5" font-family="FreeSans" font-size="10.00" fill="#000000">Acts::VectorHelpers</text>
<text text-anchor="middle" x="1458" y="-59.5" font-family="FreeSans" font-size="10.00" fill="#000000">::time</text>
</a>
</g>
</g>
<!-- Node17&#45;&gt;Node18 -->
<g id="edge17" class="edge">
<title>Node17&#45;&gt;Node18</title>
<path fill="none" stroke="#191970" d="M1354.3078,-68.5C1365.7836,-68.5 1377.8948,-68.5 1389.6328,-68.5"/>
<polygon fill="#191970" stroke="#191970" points="1389.8266,-72.0001 1399.8265,-68.5 1389.8265,-65.0001 1389.8266,-72.0001"/>
</g>
<!-- Node20 -->
<g id="node20" class="node">
<title>Node20</title>
<g id="a_node20"><a xlink:href="../../db/da1/classFairLogger.html#aca7a4fd0af5e622c9635f62996a7334d" target="_top" xlink:title="Flush the streams.">
<polygon fill="none" stroke="#000000" points="1245,-.5 1245,-20.5 1345,-20.5 1345,-.5 1245,-.5"/>
<text text-anchor="middle" x="1295" y="-7.5" font-family="FreeSans" font-size="10.00" fill="#000000">FairLogger::flush</text>
</a>
</g>
</g>
<!-- Node19&#45;&gt;Node20 -->
<g id="edge20" class="edge">
<title>Node19&#45;&gt;Node20</title>
<path fill="none" stroke="#191970" d="M958.0197,-29.8069C979.3908,-25.9275 1004.854,-21.8328 1028,-19.5 1098.6648,-12.3779 1180.3246,-10.556 1234.5415,-10.2418"/>
<polygon fill="#191970" stroke="#191970" points="1234.6869,-13.7413 1244.6719,-10.1988 1234.6571,-6.7413 1234.6869,-13.7413"/>
</g>
<!-- Node21 -->
<g id="node21" class="node">
<title>Node21</title>
<g id="a_node21"><a xlink:href="../../db/da1/classFairLogger.html#a9848989e18afa7144b47ecc38b7bfe0e" target="_top" xlink:title="FairLogger::LogFatalMessage">
<polygon fill="none" stroke="#000000" points="1028,-29.5 1028,-49.5 1190,-49.5 1190,-29.5 1028,-29.5"/>
<text text-anchor="middle" x="1109" y="-36.5" font-family="FreeSans" font-size="10.00" fill="#000000">FairLogger::LogFatalMessage</text>
</a>
</g>
</g>
<!-- Node19&#45;&gt;Node21 -->
<g id="edge21" class="edge">
<title>Node19&#45;&gt;Node21</title>
<path fill="none" stroke="#191970" d="M958.0481,-39.5C976.0875,-39.5 997.1922,-39.5 1017.8059,-39.5"/>
<polygon fill="#191970" stroke="#191970" points="1017.8704,-43.0001 1027.8703,-39.5 1017.8703,-36.0001 1017.8704,-43.0001"/>
</g>
<!-- Node21&#45;&gt;Node17 -->
<g id="edge22" class="edge">
<title>Node21&#45;&gt;Node17</title>
<path fill="none" stroke="#191970" d="M1173.2711,-49.5208C1190.2122,-52.1621 1208.5636,-55.0234 1225.7544,-57.7036"/>
<polygon fill="#191970" stroke="#191970" points="1225.3027,-61.1754 1235.7225,-59.2578 1226.3811,-54.259 1225.3027,-61.1754"/>
</g>
<!-- Node21&#45;&gt;Node20 -->
<g id="edge23" class="edge">
<title>Node21&#45;&gt;Node20</title>
<path fill="none" stroke="#191970" d="M1173.2711,-29.4792C1193.2114,-26.3703 1215.1056,-22.9567 1234.7612,-19.8921"/>
<polygon fill="#191970" stroke="#191970" points="1235.4722,-23.3236 1244.8136,-18.3248 1234.3938,-16.4071 1235.4722,-23.3236"/>
</g>
</g>
</svg>
