<?xml version="1.0" encoding="UTF-8" standalone="no"?>
<!DOCTYPE svg PUBLIC "-//W3C//DTD SVG 1.1//EN"
 "http://www.w3.org/Graphics/SVG/1.1/DTD/svg11.dtd">
<!-- Generated by graphviz version 2.40.1 (20161225.0304)
 -->
<!-- Title: EicCalorimeterDigiHitProducer::ConfigureSensorGroupCore Pages: 1 -->
<svg width="524pt" height="92pt"
 viewBox="0.00 0.00 524.00 92.00" xmlns="http://www.w3.org/2000/svg" xmlns:xlink="http://www.w3.org/1999/xlink">
<g id="graph0" class="graph" transform="scale(1 1) rotate(0) translate(4 88)">
<title>EicCalorimeterDigiHitProducer::ConfigureSensorGroupCore</title>
<!-- Node1 -->
<g id="node1" class="node">
<title>Node1</title>
<polygon fill="#bfbfbf" stroke="#000000" points="0,-25.5 0,-57.5 170,-57.5 170,-25.5 0,-25.5"/>
<text text-anchor="start" x="8" y="-44.5" font-family="FreeSans" font-size="10.00" fill="#000000">EicCalorimeterDigiHitProducer</text>
<text text-anchor="middle" x="85" y="-32.5" font-family="FreeSans" font-size="10.00" fill="#000000">::ConfigureSensorGroupCore</text>
</g>
<!-- Node2 -->
<g id="node2" class="node">
<title>Node2</title>
<g id="a_node2"><a xlink:href="../../dd/df6/classEicCalorimeterDigiHitProducer.html#aefaf622bcb04873cf15ff88f8ed8b51a" target="_top" xlink:title="EicCalorimeterDigiHitProducer\l::ConfigureDownstreamSensorGroup">
<polygon fill="none" stroke="#000000" points="206,-51.5 206,-83.5 408,-83.5 408,-51.5 206,-51.5"/>
<text text-anchor="start" x="214" y="-70.5" font-family="FreeSans" font-size="10.00" fill="#000000">EicCalorimeterDigiHitProducer</text>
<text text-anchor="middle" x="307" y="-58.5" font-family="FreeSans" font-size="10.00" fill="#000000">::ConfigureDownstreamSensorGroup</text>
</a>
</g>
</g>
<!-- Node1&#45;&gt;Node2 -->
<g id="edge1" class="edge">
<title>Node1&#45;&gt;Node2</title>
<path fill="none" stroke="#191970" d="M180.3563,-52.6679C188.7462,-53.6505 197.2578,-54.6473 205.6941,-55.6353"/>
<polygon fill="#191970" stroke="#191970" points="180.5354,-49.165 170.1961,-51.4779 179.721,-56.1175 180.5354,-49.165"/>
</g>
<!-- Node4 -->
<g id="node4" class="node">
<title>Node4</title>
<g id="a_node4"><a xlink:href="../../dd/df6/classEicCalorimeterDigiHitProducer.html#a480a6869fa183a11f1c4a2763ebc060c" target="_top" xlink:title="EicCalorimeterDigiHitProducer\l::ConfigureUpstreamSensorGroup">
<polygon fill="none" stroke="#000000" points="213.5,-.5 213.5,-32.5 400.5,-32.5 400.5,-.5 213.5,-.5"/>
<text text-anchor="start" x="221.5" y="-19.5" font-family="FreeSans" font-size="10.00" fill="#000000">EicCalorimeterDigiHitProducer</text>
<text text-anchor="middle" x="307" y="-7.5" font-family="FreeSans" font-size="10.00" fill="#000000">::ConfigureUpstreamSensorGroup</text>
</a>
</g>
</g>
<!-- Node1&#45;&gt;Node4 -->
<g id="edge3" class="edge">
<title>Node1&#45;&gt;Node4</title>
<path fill="none" stroke="#191970" d="M180.1671,-30.783C191.1021,-29.5516 202.2464,-28.2966 213.1637,-27.0671"/>
<polygon fill="#191970" stroke="#191970" points="179.7416,-27.3087 170.1961,-31.9058 180.525,-34.2647 179.7416,-27.3087"/>
</g>
<!-- Node3 -->
<g id="node3" class="node">
<title>Node3</title>
<g id="a_node3"><a xlink:href="../../d8/d11/examples_2physics_2config_82_2digitization_8C.html#afd97e93afdacaf415631892fe39fdf2c" target="_top" xlink:title="digitization">
<polygon fill="none" stroke="#000000" points="444,-31.5 444,-51.5 516,-51.5 516,-31.5 444,-31.5"/>
<text text-anchor="middle" x="480" y="-38.5" font-family="FreeSans" font-size="10.00" fill="#000000">digitization</text>
</a>
</g>
</g>
<!-- Node2&#45;&gt;Node3 -->
<g id="edge2" class="edge">
<title>Node2&#45;&gt;Node3</title>
<path fill="none" stroke="#191970" d="M418.1566,-50.7944C427.2676,-49.4251 435.9804,-48.1157 443.8422,-46.9341"/>
<polygon fill="#191970" stroke="#191970" points="417.5041,-47.3531 408.1354,-52.3005 418.5445,-54.2753 417.5041,-47.3531"/>
</g>
<!-- Node4&#45;&gt;Node3 -->
<g id="edge4" class="edge">
<title>Node4&#45;&gt;Node3</title>
<path fill="none" stroke="#191970" d="M410.5572,-31.4649C422.3257,-33.1656 433.6556,-34.8028 443.6281,-36.2439"/>
<polygon fill="#191970" stroke="#191970" points="410.9864,-27.9907 400.5886,-30.0244 409.9852,-34.9187 410.9864,-27.9907"/>
</g>
</g>
</svg>
