<?xml version="1.0" encoding="UTF-8" standalone="no"?>
<!DOCTYPE svg PUBLIC "-//W3C//DTD SVG 1.1//EN"
 "http://www.w3.org/Graphics/SVG/1.1/DTD/svg11.dtd">
<!-- Generated by graphviz version 2.40.1 (20161225.0304)
 -->
<!-- Title: fun4all_coresoftware/blob/master/simulation/g4simulation/g4tpc/PHG4TpcEndCapDisplayAction.cc Pages: 1 -->
<svg width="1401pt" height="236pt"
 viewBox="0.00 0.00 1401.00 236.00" xmlns="http://www.w3.org/2000/svg" xmlns:xlink="http://www.w3.org/1999/xlink">
<g id="graph0" class="graph" transform="scale(1 1) rotate(0) translate(4 232)">
<title>fun4all_coresoftware/blob/master/simulation/g4simulation/g4tpc/PHG4TpcEndCapDisplayAction.cc</title>
<!-- Node1 -->
<g id="node1" class="node">
<title>Node1</title>
<polygon fill="#bfbfbf" stroke="#000000" points="602.5,-171.5 602.5,-227.5 789.5,-227.5 789.5,-171.5 602.5,-171.5"/>
<text text-anchor="start" x="610.5" y="-214.5" font-family="FreeSans" font-size="10.00" fill="#000000">fun4all_coresoftware</text>
<text text-anchor="start" x="610.5" y="-202.5" font-family="FreeSans" font-size="10.00" fill="#000000">/blob/master/simulation</text>
<text text-anchor="start" x="610.5" y="-190.5" font-family="FreeSans" font-size="10.00" fill="#000000">/g4simulation/g4tpc/PHG4TpcEnd</text>
<text text-anchor="middle" x="696" y="-178.5" font-family="FreeSans" font-size="10.00" fill="#000000">CapDisplayAction.cc</text>
</g>
<!-- Node2 -->
<g id="node2" class="node">
<title>Node2</title>
<g id="a_node2"><a xlink:href="../../d3/deb/PHG4TpcEndCapDisplayAction_8h.html" target="_top" xlink:title="PHG4TpcEndCapDisplayAction.h">
<polygon fill="none" stroke="#000000" points="106,-114.5 106,-134.5 286,-134.5 286,-114.5 106,-114.5"/>
<text text-anchor="middle" x="196" y="-121.5" font-family="FreeSans" font-size="10.00" fill="#000000">PHG4TpcEndCapDisplayAction.h</text>
</a>
</g>
</g>
<!-- Node1&#45;&gt;Node2 -->
<g id="edge1" class="edge">
<title>Node1&#45;&gt;Node2</title>
<path fill="none" stroke="#191970" d="M602.2473,-185.4371C507.0866,-171.163 361.5126,-149.3269 272.909,-136.0364"/>
<polygon fill="#191970" stroke="#191970" points="273.3334,-132.5609 262.9248,-134.5387 272.2949,-139.4835 273.3334,-132.5609"/>
</g>
<!-- Node3 -->
<g id="node3" class="node">
<title>Node3</title>
<g id="a_node3"><a xlink:href="../../df/dad/PHG4DisplayAction_8h.html" target="_top" xlink:title="g4main/PHG4DisplayAction.h">
<polygon fill="none" stroke="#000000" points="0,-57.5 0,-77.5 164,-77.5 164,-57.5 0,-57.5"/>
<text text-anchor="middle" x="82" y="-64.5" font-family="FreeSans" font-size="10.00" fill="#000000">g4main/PHG4DisplayAction.h</text>
</a>
</g>
</g>
<!-- Node1&#45;&gt;Node3 -->
<g id="edge7" class="edge">
<title>Node1&#45;&gt;Node3</title>
<path fill="none" stroke="#191970" d="M602.2731,-195.3443C443.1811,-187.4272 133.8614,-167.9678 97,-135 83.8954,-123.2796 80.8755,-102.878 80.6905,-87.5637"/>
<polygon fill="#191970" stroke="#191970" points="84.1908,-87.5966 80.9532,-77.5086 77.1931,-87.4137 84.1908,-87.5966"/>
</g>
<!-- Node7 -->
<g id="node7" class="node">
<title>Node7</title>
<g id="a_node7"><a xlink:href="../../d6/d5e/PHG4Utils_8h.html" target="_top" xlink:title="g4main/PHG4Utils.h">
<polygon fill="none" stroke="#000000" points="304.5,-114.5 304.5,-134.5 421.5,-134.5 421.5,-114.5 304.5,-114.5"/>
<text text-anchor="middle" x="363" y="-121.5" font-family="FreeSans" font-size="10.00" fill="#000000">g4main/PHG4Utils.h</text>
</a>
</g>
</g>
<!-- Node1&#45;&gt;Node7 -->
<g id="edge8" class="edge">
<title>Node1&#45;&gt;Node7</title>
<path fill="none" stroke="#191970" d="M602.3548,-178.4087C542.7845,-164.992 467.7157,-148.0846 417.6869,-136.8169"/>
<polygon fill="#191970" stroke="#191970" points="418.2414,-133.3542 407.7167,-134.5713 416.7033,-140.1831 418.2414,-133.3542"/>
</g>
<!-- Node8 -->
<g id="node8" class="node">
<title>Node8</title>
<polygon fill="none" stroke="#bfbfbf" points="407.5,-57.5 407.5,-77.5 452.5,-77.5 452.5,-57.5 407.5,-57.5"/>
<text text-anchor="middle" x="430" y="-64.5" font-family="FreeSans" font-size="10.00" fill="#000000">utility</text>
</g>
<!-- Node1&#45;&gt;Node8 -->
<g id="edge18" class="edge">
<title>Node1&#45;&gt;Node8</title>
<path fill="none" stroke="#191970" d="M602.4637,-188.9996C558.69,-180.2679 507.965,-164.2782 470,-135 454.2243,-122.834 443.4188,-102.5385 437.0533,-87.3728"/>
<polygon fill="#191970" stroke="#191970" points="440.238,-85.9055 433.3492,-77.8559 433.7147,-88.4445 440.238,-85.9055"/>
</g>
<!-- Node9 -->
<g id="node9" class="node">
<title>Node9</title>
<polygon fill="none" stroke="#bfbfbf" points="478.5,-114.5 478.5,-134.5 597.5,-134.5 597.5,-114.5 478.5,-114.5"/>
<text text-anchor="middle" x="538" y="-121.5" font-family="FreeSans" font-size="10.00" fill="#000000">Geant4/G4Colour.hh</text>
</g>
<!-- Node1&#45;&gt;Node9 -->
<g id="edge11" class="edge">
<title>Node1&#45;&gt;Node9</title>
<path fill="none" stroke="#191970" d="M636.7171,-171.3594C613.4954,-160.3364 587.8454,-148.1608 568.5127,-138.9839"/>
<polygon fill="#191970" stroke="#191970" points="569.8318,-135.7358 559.297,-134.6094 566.83,-142.0595 569.8318,-135.7358"/>
</g>
<!-- Node10 -->
<g id="node10" class="node">
<title>Node10</title>
<polygon fill="none" stroke="#bfbfbf" points="616,-114.5 616,-134.5 776,-134.5 776,-114.5 616,-114.5"/>
<text text-anchor="middle" x="696" y="-121.5" font-family="FreeSans" font-size="10.00" fill="#000000">Geant4/G4LogicalVolume.hh</text>
</g>
<!-- Node1&#45;&gt;Node10 -->
<g id="edge12" class="edge">
<title>Node1&#45;&gt;Node10</title>
<path fill="none" stroke="#191970" d="M696,-171.1457C696,-162.3619 696,-152.8652 696,-144.7476"/>
<polygon fill="#191970" stroke="#191970" points="699.5001,-144.7295 696,-134.7296 692.5001,-144.7296 699.5001,-144.7295"/>
</g>
<!-- Node11 -->
<g id="node11" class="node">
<title>Node11</title>
<polygon fill="none" stroke="#bfbfbf" points="794,-114.5 794,-134.5 922,-134.5 922,-114.5 794,-114.5"/>
<text text-anchor="middle" x="858" y="-121.5" font-family="FreeSans" font-size="10.00" fill="#000000">Geant4/G4Material.hh</text>
</g>
<!-- Node1&#45;&gt;Node11 -->
<g id="edge13" class="edge">
<title>Node1&#45;&gt;Node11</title>
<path fill="none" stroke="#191970" d="M756.7837,-171.3594C780.7021,-160.2861 807.1329,-148.0496 826.986,-138.8583"/>
<polygon fill="#191970" stroke="#191970" points="828.5596,-141.9868 836.1638,-134.6094 825.6187,-135.6345 828.5596,-141.9868"/>
</g>
<!-- Node12 -->
<g id="node12" class="node">
<title>Node12</title>
<polygon fill="none" stroke="#bfbfbf" points="940.5,-114.5 940.5,-134.5 1057.5,-134.5 1057.5,-114.5 940.5,-114.5"/>
<text text-anchor="middle" x="999" y="-121.5" font-family="FreeSans" font-size="10.00" fill="#000000">Geant4/G4String.hh</text>
</g>
<!-- Node1&#45;&gt;Node12 -->
<g id="edge14" class="edge">
<title>Node1&#45;&gt;Node12</title>
<path fill="none" stroke="#191970" d="M789.796,-176.2832C842.0902,-163.3391 905.1685,-147.7256 948.2972,-137.0502"/>
<polygon fill="#191970" stroke="#191970" points="949.4034,-140.3821 958.2694,-134.5818 947.7214,-133.5872 949.4034,-140.3821"/>
</g>
<!-- Node13 -->
<g id="node13" class="node">
<title>Node13</title>
<polygon fill="none" stroke="#bfbfbf" points="1075.5,-114.5 1075.5,-134.5 1226.5,-134.5 1226.5,-114.5 1075.5,-114.5"/>
<text text-anchor="middle" x="1151" y="-121.5" font-family="FreeSans" font-size="10.00" fill="#000000">Geant4/G4VisAttributes.hh</text>
</g>
<!-- Node1&#45;&gt;Node13 -->
<g id="edge15" class="edge">
<title>Node1&#45;&gt;Node13</title>
<path fill="none" stroke="#191970" d="M789.7246,-184.0509C875.8678,-169.8515 1001.6992,-149.11 1079.8509,-136.2279"/>
<polygon fill="#191970" stroke="#191970" points="1080.7836,-139.6214 1090.0812,-134.5416 1079.645,-132.7147 1080.7836,-139.6214"/>
</g>
<!-- Node14 -->
<g id="node14" class="node">
<title>Node14</title>
<polygon fill="none" stroke="#bfbfbf" points="1245,-114.5 1245,-134.5 1315,-134.5 1315,-114.5 1245,-114.5"/>
<text text-anchor="middle" x="1280" y="-121.5" font-family="FreeSans" font-size="10.00" fill="#000000">TSystem.h</text>
</g>
<!-- Node1&#45;&gt;Node14 -->
<g id="edge16" class="edge">
<title>Node1&#45;&gt;Node14</title>
<path fill="none" stroke="#191970" d="M789.6516,-191.6198C895.5098,-181.9646 1073.0768,-163.514 1234.4201,-135.1311"/>
<polygon fill="#191970" stroke="#191970" points="1235.2983,-138.5299 1244.5322,-133.3352 1234.0742,-131.6378 1235.2983,-138.5299"/>
</g>
<!-- Node15 -->
<g id="node15" class="node">
<title>Node15</title>
<polygon fill="none" stroke="#bfbfbf" points="1333,-114.5 1333,-134.5 1393,-134.5 1393,-114.5 1333,-114.5"/>
<text text-anchor="middle" x="1363" y="-121.5" font-family="FreeSans" font-size="10.00" fill="#000000">iostream</text>
</g>
<!-- Node1&#45;&gt;Node15 -->
<g id="edge17" class="edge">
<title>Node1&#45;&gt;Node15</title>
<path fill="none" stroke="#191970" d="M789.5017,-194.5983C910.6741,-187.1941 1128.46,-170.3079 1322.7628,-134.9827"/>
<polygon fill="#191970" stroke="#191970" points="1323.6737,-138.374 1332.8759,-133.1233 1322.4078,-131.4894 1323.6737,-138.374"/>
</g>
<!-- Node2&#45;&gt;Node3 -->
<g id="edge2" class="edge">
<title>Node2&#45;&gt;Node3</title>
<path fill="none" stroke="#191970" d="M175.8815,-114.4408C158.0028,-105.5014 131.6404,-92.3202 111.3991,-82.1996"/>
<polygon fill="#191970" stroke="#191970" points="112.8104,-78.9921 102.3008,-77.6504 109.6798,-85.2531 112.8104,-78.9921"/>
</g>
<!-- Node4 -->
<g id="node4" class="node">
<title>Node4</title>
<polygon fill="none" stroke="#bfbfbf" points="169.5,-.5 169.5,-20.5 214.5,-20.5 214.5,-.5 169.5,-.5"/>
<text text-anchor="middle" x="192" y="-7.5" font-family="FreeSans" font-size="10.00" fill="#000000">string</text>
</g>
<!-- Node2&#45;&gt;Node4 -->
<g id="edge5" class="edge">
<title>Node2&#45;&gt;Node4</title>
<path fill="none" stroke="#191970" d="M195.645,-114.3833C194.9884,-95.6703 193.5729,-55.3266 192.7118,-30.7866"/>
<polygon fill="#191970" stroke="#191970" points="196.2085,-30.629 192.3599,-20.7579 189.2128,-30.8746 196.2085,-30.629"/>
</g>
<!-- Node5 -->
<g id="node5" class="node">
<title>Node5</title>
<polygon fill="none" stroke="#bfbfbf" points="220.5,-57.5 220.5,-77.5 259.5,-77.5 259.5,-57.5 220.5,-57.5"/>
<text text-anchor="middle" x="240" y="-64.5" font-family="FreeSans" font-size="10.00" fill="#000000">map</text>
</g>
<!-- Node2&#45;&gt;Node5 -->
<g id="edge4" class="edge">
<title>Node2&#45;&gt;Node5</title>
<path fill="none" stroke="#191970" d="M203.8663,-114.3095C209.9981,-106.3661 218.6701,-95.1319 225.9816,-85.6602"/>
<polygon fill="#191970" stroke="#191970" points="228.8618,-87.6569 232.2018,-77.6022 223.3207,-83.3795 228.8618,-87.6569"/>
</g>
<!-- Node6 -->
<g id="node6" class="node">
<title>Node6</title>
<polygon fill="none" stroke="#bfbfbf" points="277.5,-57.5 277.5,-77.5 326.5,-77.5 326.5,-57.5 277.5,-57.5"/>
<text text-anchor="middle" x="302" y="-64.5" font-family="FreeSans" font-size="10.00" fill="#000000">vector</text>
</g>
<!-- Node2&#45;&gt;Node6 -->
<g id="edge6" class="edge">
<title>Node2&#45;&gt;Node6</title>
<path fill="none" stroke="#191970" d="M214.9507,-114.3095C231.4561,-105.434 255.6019,-92.4499 274.2786,-82.4068"/>
<polygon fill="#191970" stroke="#191970" points="276.0636,-85.4209 283.2134,-77.6022 272.7484,-79.2557 276.0636,-85.4209"/>
</g>
<!-- Node3&#45;&gt;Node4 -->
<g id="edge3" class="edge">
<title>Node3&#45;&gt;Node4</title>
<path fill="none" stroke="#191970" d="M101.4126,-57.4408C118.5859,-48.5419 143.8714,-35.4394 163.3669,-25.3371"/>
<polygon fill="#191970" stroke="#191970" points="165.143,-28.3589 172.4115,-20.6504 161.9224,-22.1437 165.143,-28.3589"/>
</g>
<!-- Node7&#45;&gt;Node4 -->
<g id="edge9" class="edge">
<title>Node7&#45;&gt;Node4</title>
<path fill="none" stroke="#191970" d="M361.4964,-114.283C358.8009,-99.5736 351.7716,-72.4991 335,-57 304.5109,-28.8242 256.721,-17.7101 224.8891,-13.3331"/>
<polygon fill="#191970" stroke="#191970" points="225.1051,-9.8335 214.7538,-12.0921 224.2543,-16.7816 225.1051,-9.8335"/>
</g>
<!-- Node7&#45;&gt;Node8 -->
<g id="edge10" class="edge">
<title>Node7&#45;&gt;Node8</title>
<path fill="none" stroke="#191970" d="M374.9783,-114.3095C384.7917,-105.9608 398.878,-93.9769 410.3409,-84.2249"/>
<polygon fill="#191970" stroke="#191970" points="412.7768,-86.7479 418.1254,-77.6022 408.2409,-81.4162 412.7768,-86.7479"/>
</g>
</g>
</svg>
