<?xml version="1.0" encoding="UTF-8" standalone="no"?>
<!DOCTYPE svg PUBLIC "-//W3C//DTD SVG 1.1//EN"
 "http://www.w3.org/Graphics/SVG/1.1/DTD/svg11.dtd">
<!-- Generated by graphviz version 2.40.1 (20161225.0304)
 -->
<!-- Title: G4LogicalVolumeStore::~G4LogicalVolumeStore Pages: 1 -->
<svg width="486pt" height="80pt"
 viewBox="0.00 0.00 486.00 80.00" xmlns="http://www.w3.org/2000/svg" xmlns:xlink="http://www.w3.org/1999/xlink">
<g id="graph0" class="graph" transform="scale(1 1) rotate(0) translate(4 76)">
<title>G4LogicalVolumeStore::~G4LogicalVolumeStore</title>
<!-- Node1 -->
<g id="node1" class="node">
<title>Node1</title>
<polygon fill="#bfbfbf" stroke="#000000" points="0,-16.5 0,-48.5 146,-48.5 146,-16.5 0,-16.5"/>
<text text-anchor="start" x="8" y="-35.5" font-family="FreeSans" font-size="10.00" fill="#000000">G4LogicalVolumeStore</text>
<text text-anchor="middle" x="73" y="-23.5" font-family="FreeSans" font-size="10.00" fill="#000000">::~G4LogicalVolumeStore</text>
</g>
<!-- Node2 -->
<g id="node2" class="node">
<title>Node2</title>
<g id="a_node2"><a xlink:href="../../d9/df2/classG4LogicalVolumeStore.html#a93a55f5972b0f33711948cdd69020adb" target="_top" xlink:title="G4LogicalVolumeStore\l::Clean">
<polygon fill="none" stroke="#000000" points="182,-16.5 182,-48.5 312,-48.5 312,-16.5 182,-16.5"/>
<text text-anchor="start" x="190" y="-35.5" font-family="FreeSans" font-size="10.00" fill="#000000">G4LogicalVolumeStore</text>
<text text-anchor="middle" x="247" y="-23.5" font-family="FreeSans" font-size="10.00" fill="#000000">::Clean</text>
</a>
</g>
</g>
<!-- Node1&#45;&gt;Node2 -->
<g id="edge1" class="edge">
<title>Node1&#45;&gt;Node2</title>
<path fill="none" stroke="#191970" d="M146.0354,-32.5C154.4985,-32.5 163.1427,-32.5 171.6363,-32.5"/>
<polygon fill="#191970" stroke="#191970" points="171.8995,-36.0001 181.8995,-32.5 171.8995,-29.0001 171.8995,-36.0001"/>
</g>
<!-- Node3 -->
<g id="node3" class="node">
<title>Node3</title>
<g id="a_node3"><a xlink:href="../../d9/df2/classG4LogicalVolumeStore.html#ad15e17569c3b8dab167961e61c38b3ba" target="_top" xlink:title="G4LogicalVolumeStore\l::GetInstance">
<polygon fill="none" stroke="#000000" points="348,-39.5 348,-71.5 478,-71.5 478,-39.5 348,-39.5"/>
<text text-anchor="start" x="356" y="-58.5" font-family="FreeSans" font-size="10.00" fill="#000000">G4LogicalVolumeStore</text>
<text text-anchor="middle" x="413" y="-46.5" font-family="FreeSans" font-size="10.00" fill="#000000">::GetInstance</text>
</a>
</g>
</g>
<!-- Node2&#45;&gt;Node3 -->
<g id="edge2" class="edge">
<title>Node2&#45;&gt;Node3</title>
<path fill="none" stroke="#191970" d="M312.1312,-41.5242C320.553,-42.6911 329.2324,-43.8937 337.8001,-45.0807"/>
<polygon fill="#191970" stroke="#191970" points="337.3984,-48.5584 347.7842,-46.4641 338.3592,-41.6247 337.3984,-48.5584"/>
</g>
<!-- Node4 -->
<g id="node4" class="node">
<title>Node4</title>
<g id="a_node4"><a xlink:href="../../dc/de5/PHG4mRICHDetector_8cc.html#a11ded6fc3d3fab0e72612c3886df87a0" target="_top" xlink:title="pos">
<polygon fill="none" stroke="#000000" points="396,-.5 396,-20.5 430,-20.5 430,-.5 396,-.5"/>
<text text-anchor="middle" x="413" y="-7.5" font-family="FreeSans" font-size="10.00" fill="#000000">pos</text>
</a>
</g>
</g>
<!-- Node2&#45;&gt;Node4 -->
<g id="edge3" class="edge">
<title>Node2&#45;&gt;Node4</title>
<path fill="none" stroke="#191970" d="M312.1312,-23.8682C337.8472,-20.46 365.9657,-16.7335 385.9665,-14.0827"/>
<polygon fill="#191970" stroke="#191970" points="386.4493,-17.5495 395.9027,-12.7659 385.5295,-10.6101 386.4493,-17.5495"/>
</g>
</g>
</svg>
