<?xml version="1.0" encoding="UTF-8" standalone="no"?>
<!DOCTYPE svg PUBLIC "-//W3C//DTD SVG 1.1//EN"
 "http://www.w3.org/Graphics/SVG/1.1/DTD/svg11.dtd">
<!-- Generated by graphviz version 2.40.1 (20161225.0304)
 -->
<!-- Title: fun4all_acts/blob/master/Examples/Io/Root/include/ACTFW/Io/Root/RootParticleWriter.hpp Pages: 1 -->
<svg width="1526pt" height="134pt"
 viewBox="0.00 0.00 1525.50 134.00" xmlns="http://www.w3.org/2000/svg" xmlns:xlink="http://www.w3.org/1999/xlink">
<g id="graph0" class="graph" transform="scale(1 1) rotate(0) translate(4 130)">
<title>fun4all_acts/blob/master/Examples/Io/Root/include/ACTFW/Io/Root/RootParticleWriter.hpp</title>
<!-- Node1 -->
<g id="node1" class="node">
<title>Node1</title>
<polygon fill="#bfbfbf" stroke="#000000" points="676.5,-81.5 676.5,-125.5 887.5,-125.5 887.5,-81.5 676.5,-81.5"/>
<text text-anchor="start" x="684.5" y="-112.5" font-family="FreeSans" font-size="10.00" fill="#000000">fun4all_acts/blob/master</text>
<text text-anchor="start" x="684.5" y="-100.5" font-family="FreeSans" font-size="10.00" fill="#000000">/Examples/Io/Root/include</text>
<text text-anchor="middle" x="782" y="-88.5" font-family="FreeSans" font-size="10.00" fill="#000000">/ACTFW/Io/Root/RootParticleWriter.hpp</text>
</g>
<!-- Node2 -->
<g id="node2" class="node">
<title>Node2</title>
<g id="a_node2"><a xlink:href="../../de/dbb/RootParticleWriter_8cpp.html" target="_top" xlink:title="fun4all_acts/blob/master\l/Examples/Io/Root/src/RootParticle\lWriter.cpp">
<polygon fill="none" stroke="#000000" points="0,-.5 0,-44.5 190,-44.5 190,-.5 0,-.5"/>
<text text-anchor="start" x="8" y="-31.5" font-family="FreeSans" font-size="10.00" fill="#000000">fun4all_acts/blob/master</text>
<text text-anchor="start" x="8" y="-19.5" font-family="FreeSans" font-size="10.00" fill="#000000">/Examples/Io/Root/src/RootParticle</text>
<text text-anchor="middle" x="95" y="-7.5" font-family="FreeSans" font-size="10.00" fill="#000000">Writer.cpp</text>
</a>
</g>
</g>
<!-- Node1&#45;&gt;Node2 -->
<g id="edge1" class="edge">
<title>Node1&#45;&gt;Node2</title>
<path fill="none" stroke="#191970" d="M666.3503,-95.7686C548.362,-86.9741 360.2185,-70.4446 199,-45 196.0804,-44.5392 193.1195,-44.0481 190.1339,-43.5323"/>
<polygon fill="#191970" stroke="#191970" points="666.2549,-99.271 676.4857,-96.5179 666.771,-92.29 666.2549,-99.271"/>
</g>
<!-- Node3 -->
<g id="node3" class="node">
<title>Node3</title>
<g id="a_node3"><a xlink:href="../../de/d42/ParticleGun_8cpp.html" target="_top" xlink:title="fun4all_acts/blob/master\l/Examples/Run/EventGenerator\l/ParticleGun.cpp">
<polygon fill="none" stroke="#000000" points="208.5,-.5 208.5,-44.5 385.5,-44.5 385.5,-.5 208.5,-.5"/>
<text text-anchor="start" x="216.5" y="-31.5" font-family="FreeSans" font-size="10.00" fill="#000000">fun4all_acts/blob/master</text>
<text text-anchor="start" x="216.5" y="-19.5" font-family="FreeSans" font-size="10.00" fill="#000000">/Examples/Run/EventGenerator</text>
<text text-anchor="middle" x="297" y="-7.5" font-family="FreeSans" font-size="10.00" fill="#000000">/ParticleGun.cpp</text>
</a>
</g>
</g>
<!-- Node1&#45;&gt;Node3 -->
<g id="edge2" class="edge">
<title>Node1&#45;&gt;Node3</title>
<path fill="none" stroke="#191970" d="M665.9762,-88.4258C588.6618,-77.7873 484.9325,-62.3738 394,-45 391.2832,-44.4809 388.527,-43.9388 385.7471,-43.3786"/>
<polygon fill="#191970" stroke="#191970" points="665.8442,-91.9403 676.2267,-89.8296 666.7941,-85.005 665.8442,-91.9403"/>
</g>
<!-- Node4 -->
<g id="node4" class="node">
<title>Node4</title>
<g id="a_node4"><a xlink:href="../../d9/d60/Pythia8_8cpp.html" target="_top" xlink:title="fun4all_acts/blob/master\l/Examples/Run/EventGenerator\l/Pythia8/Pythia8.cpp">
<polygon fill="none" stroke="#000000" points="403.5,-.5 403.5,-44.5 580.5,-44.5 580.5,-.5 403.5,-.5"/>
<text text-anchor="start" x="411.5" y="-31.5" font-family="FreeSans" font-size="10.00" fill="#000000">fun4all_acts/blob/master</text>
<text text-anchor="start" x="411.5" y="-19.5" font-family="FreeSans" font-size="10.00" fill="#000000">/Examples/Run/EventGenerator</text>
<text text-anchor="middle" x="492" y="-7.5" font-family="FreeSans" font-size="10.00" fill="#000000">/Pythia8/Pythia8.cpp</text>
</a>
</g>
</g>
<!-- Node1&#45;&gt;Node4 -->
<g id="edge3" class="edge">
<title>Node1&#45;&gt;Node4</title>
<path fill="none" stroke="#191970" d="M693.3517,-78.7396C654.272,-67.8242 608.725,-55.1025 570.845,-44.5222"/>
<polygon fill="#191970" stroke="#191970" points="692.5663,-82.1542 703.1393,-81.4734 694.4495,-75.4122 692.5663,-82.1542"/>
</g>
<!-- Node5 -->
<g id="node5" class="node">
<title>Node5</title>
<g id="a_node5"><a xlink:href="../../d3/d77/FatrasEvgenBase_8cpp.html" target="_top" xlink:title="fun4all_acts/blob/master\l/Examples/Run/Fatras/Common\l/FatrasEvgenBase.cpp">
<polygon fill="none" stroke="#000000" points="598.5,-.5 598.5,-44.5 773.5,-44.5 773.5,-.5 598.5,-.5"/>
<text text-anchor="start" x="606.5" y="-31.5" font-family="FreeSans" font-size="10.00" fill="#000000">fun4all_acts/blob/master</text>
<text text-anchor="start" x="606.5" y="-19.5" font-family="FreeSans" font-size="10.00" fill="#000000">/Examples/Run/Fatras/Common</text>
<text text-anchor="middle" x="686" y="-7.5" font-family="FreeSans" font-size="10.00" fill="#000000">/FatrasEvgenBase.cpp</text>
</a>
</g>
</g>
<!-- Node1&#45;&gt;Node5 -->
<g id="edge4" class="edge">
<title>Node1&#45;&gt;Node5</title>
<path fill="none" stroke="#191970" d="M747.8773,-74.709C736.1452,-64.81 723.2029,-53.8899 712.2007,-44.6068"/>
<polygon fill="#191970" stroke="#191970" points="745.8676,-77.5927 755.7676,-81.3664 750.3817,-72.2426 745.8676,-77.5927"/>
</g>
<!-- Node6 -->
<g id="node6" class="node">
<title>Node6</title>
<g id="a_node6"><a xlink:href="../../d8/d55/FatrasSimulationBase_8cpp.html" target="_top" xlink:title="fun4all_acts/blob/master\l/Examples/Run/Fatras/Common\l/FatrasSimulationBase.cpp">
<polygon fill="none" stroke="#000000" points="791.5,-.5 791.5,-44.5 966.5,-44.5 966.5,-.5 791.5,-.5"/>
<text text-anchor="start" x="799.5" y="-31.5" font-family="FreeSans" font-size="10.00" fill="#000000">fun4all_acts/blob/master</text>
<text text-anchor="start" x="799.5" y="-19.5" font-family="FreeSans" font-size="10.00" fill="#000000">/Examples/Run/Fatras/Common</text>
<text text-anchor="middle" x="879" y="-7.5" font-family="FreeSans" font-size="10.00" fill="#000000">/FatrasSimulationBase.cpp</text>
</a>
</g>
</g>
<!-- Node1&#45;&gt;Node6 -->
<g id="edge5" class="edge">
<title>Node1&#45;&gt;Node6</title>
<path fill="none" stroke="#191970" d="M816.4781,-74.709C828.3325,-64.81 841.4096,-53.8899 852.5264,-44.6068"/>
<polygon fill="#191970" stroke="#191970" points="813.938,-72.2702 808.5057,-81.3664 818.4248,-77.6432 813.938,-72.2702"/>
</g>
<!-- Node7 -->
<g id="node7" class="node">
<title>Node7</title>
<g id="a_node7"><a xlink:href="../../dc/d7e/VertexAndTracksWriterExample_8cpp.html" target="_top" xlink:title="fun4all_acts/blob/master\l/Examples/Run/Vertexing\l/VertexAndTracksWriterExample.cpp">
<polygon fill="none" stroke="#000000" points="984.5,-.5 984.5,-44.5 1185.5,-44.5 1185.5,-.5 984.5,-.5"/>
<text text-anchor="start" x="992.5" y="-31.5" font-family="FreeSans" font-size="10.00" fill="#000000">fun4all_acts/blob/master</text>
<text text-anchor="start" x="992.5" y="-19.5" font-family="FreeSans" font-size="10.00" fill="#000000">/Examples/Run/Vertexing</text>
<text text-anchor="middle" x="1085" y="-7.5" font-family="FreeSans" font-size="10.00" fill="#000000">/VertexAndTracksWriterExample.cpp</text>
</a>
</g>
</g>
<!-- Node1&#45;&gt;Node7 -->
<g id="edge6" class="edge">
<title>Node1&#45;&gt;Node7</title>
<path fill="none" stroke="#191970" d="M874.1035,-78.8783C915.0503,-67.9321 962.8748,-55.1473 1002.6206,-44.5222"/>
<polygon fill="#191970" stroke="#191970" points="873.1527,-75.5095 864.3958,-81.4734 874.9605,-82.272 873.1527,-75.5095"/>
</g>
<!-- Node8 -->
<g id="node8" class="node">
<title>Node8</title>
<g id="a_node8"><a xlink:href="../../d2/d79/VertexFinderExample_8cpp.html" target="_top" xlink:title="fun4all_acts/blob/master\l/Examples/Run/Vertexing\l/VertexFinderExample.cpp">
<polygon fill="none" stroke="#000000" points="1204,-.5 1204,-44.5 1354,-44.5 1354,-.5 1204,-.5"/>
<text text-anchor="start" x="1212" y="-31.5" font-family="FreeSans" font-size="10.00" fill="#000000">fun4all_acts/blob/master</text>
<text text-anchor="start" x="1212" y="-19.5" font-family="FreeSans" font-size="10.00" fill="#000000">/Examples/Run/Vertexing</text>
<text text-anchor="middle" x="1279" y="-7.5" font-family="FreeSans" font-size="10.00" fill="#000000">/VertexFinderExample.cpp</text>
</a>
</g>
</g>
<!-- Node1&#45;&gt;Node8 -->
<g id="edge7" class="edge">
<title>Node1&#45;&gt;Node8</title>
<path fill="none" stroke="#191970" d="M897.8285,-90.8955C980.9732,-80.9246 1095.4508,-65.3053 1195,-45 1197.8106,-44.4267 1200.6668,-43.8146 1203.5462,-43.1725"/>
<polygon fill="#191970" stroke="#191970" points="897.3636,-87.426 887.8474,-92.0834 898.191,-94.377 897.3636,-87.426"/>
</g>
<!-- Node9 -->
<g id="node9" class="node">
<title>Node9</title>
<g id="a_node9"><a xlink:href="../../d3/d0a/VertexFitterExample_8cpp.html" target="_top" xlink:title="fun4all_acts/blob/master\l/Examples/Run/Vertexing\l/VertexFitterExample.cpp">
<polygon fill="none" stroke="#000000" points="1372.5,-.5 1372.5,-44.5 1517.5,-44.5 1517.5,-.5 1372.5,-.5"/>
<text text-anchor="start" x="1380.5" y="-31.5" font-family="FreeSans" font-size="10.00" fill="#000000">fun4all_acts/blob/master</text>
<text text-anchor="start" x="1380.5" y="-19.5" font-family="FreeSans" font-size="10.00" fill="#000000">/Examples/Run/Vertexing</text>
<text text-anchor="middle" x="1445" y="-7.5" font-family="FreeSans" font-size="10.00" fill="#000000">/VertexFitterExample.cpp</text>
</a>
</g>
</g>
<!-- Node1&#45;&gt;Node9 -->
<g id="edge8" class="edge">
<title>Node1&#45;&gt;Node9</title>
<path fill="none" stroke="#191970" d="M897.8356,-97.5608C1015.6832,-90.1817 1203.2093,-74.7502 1363,-45 1366.0477,-44.4326 1369.1472,-43.8068 1372.2695,-43.1362"/>
<polygon fill="#191970" stroke="#191970" points="897.4767,-94.0762 887.7113,-98.1856 897.908,-101.0629 897.4767,-94.0762"/>
</g>
</g>
</svg>
