<?xml version="1.0" encoding="UTF-8" standalone="no"?>
<!DOCTYPE svg PUBLIC "-//W3C//DTD SVG 1.1//EN"
 "http://www.w3.org/Graphics/SVG/1.1/DTD/svg11.dtd">
<!-- Generated by graphviz version 2.40.1 (20161225.0304)
 -->
<!-- Title: Acts::TGeoSurfaceConverter::discComponents Pages: 1 -->
<svg width="456pt" height="68pt"
 viewBox="0.00 0.00 456.00 68.00" xmlns="http://www.w3.org/2000/svg" xmlns:xlink="http://www.w3.org/1999/xlink">
<g id="graph0" class="graph" transform="scale(1 1) rotate(0) translate(4 64)">
<title>Acts::TGeoSurfaceConverter::discComponents</title>
<!-- Node1 -->
<g id="node1" class="node">
<title>Node1</title>
<polygon fill="#bfbfbf" stroke="#000000" points="0,-13.5 0,-45.5 161,-45.5 161,-13.5 0,-13.5"/>
<text text-anchor="start" x="8" y="-32.5" font-family="FreeSans" font-size="10.00" fill="#000000">Acts::TGeoSurfaceConverter</text>
<text text-anchor="middle" x="80.5" y="-20.5" font-family="FreeSans" font-size="10.00" fill="#000000">::discComponents</text>
</g>
<!-- Node2 -->
<g id="node2" class="node">
<title>Node2</title>
<g id="a_node2"><a xlink:href="../../df/d28/namespacekdfinder.html#ab72d428625e99a2d7380eb7691c246c7" target="_top" xlink:title="kdfinder::abs">
<polygon fill="none" stroke="#000000" points="197,-39.5 197,-59.5 280,-59.5 280,-39.5 197,-39.5"/>
<text text-anchor="middle" x="238.5" y="-46.5" font-family="FreeSans" font-size="10.00" fill="#000000">kdfinder::abs</text>
</a>
</g>
</g>
<!-- Node1&#45;&gt;Node2 -->
<g id="edge1" class="edge">
<title>Node1&#45;&gt;Node2</title>
<path fill="none" stroke="#191970" d="M161.3514,-39.7344C169.9997,-40.8291 178.6184,-41.92 186.7926,-42.9548"/>
<polygon fill="#191970" stroke="#191970" points="186.5172,-46.4477 196.8776,-44.2313 187.3963,-39.5032 186.5172,-46.4477"/>
</g>
<!-- Node4 -->
<g id="node4" class="node">
<title>Node4</title>
<g id="a_node4"><a xlink:href="../../d5/dbe/EIC-IR1-XX-v00_8C.html#a888f39f7254b5b59976d577091d79a4e" target="_top" xlink:title="vtx">
<polygon fill="none" stroke="#000000" points="222.5,-.5 222.5,-20.5 254.5,-20.5 254.5,-.5 222.5,-.5"/>
<text text-anchor="middle" x="238.5" y="-7.5" font-family="FreeSans" font-size="10.00" fill="#000000">vtx</text>
</a>
</g>
</g>
<!-- Node1&#45;&gt;Node4 -->
<g id="edge3" class="edge">
<title>Node1&#45;&gt;Node4</title>
<path fill="none" stroke="#191970" d="M161.3514,-19.7774C179.8651,-17.551 198.2432,-15.341 212.4155,-13.6367"/>
<polygon fill="#191970" stroke="#191970" points="212.8554,-17.1092 222.3659,-12.4402 212.0195,-10.1592 212.8554,-17.1092"/>
</g>
<!-- Node3 -->
<g id="node3" class="node">
<title>Node3</title>
<g id="a_node3"><a xlink:href="../../d8/dc7/classkdfinder_1_1TVector.html#ac9649c7577f12a7502ed523260f4ee90" target="_top" xlink:title="kdfinder::TVector::mag">
<polygon fill="none" stroke="#000000" points="316,-39.5 316,-59.5 448,-59.5 448,-39.5 316,-39.5"/>
<text text-anchor="middle" x="382" y="-46.5" font-family="FreeSans" font-size="10.00" fill="#000000">kdfinder::TVector::mag</text>
</a>
</g>
</g>
<!-- Node2&#45;&gt;Node3 -->
<g id="edge2" class="edge">
<title>Node2&#45;&gt;Node3</title>
<path fill="none" stroke="#191970" d="M280.0061,-49.5C288.1854,-49.5 297.0065,-49.5 305.917,-49.5"/>
<polygon fill="#191970" stroke="#191970" points="305.9858,-53.0001 315.9858,-49.5 305.9857,-46.0001 305.9858,-53.0001"/>
</g>
</g>
</svg>
