<?xml version="1.0" encoding="UTF-8" standalone="no"?>
<!DOCTYPE svg PUBLIC "-//W3C//DTD SVG 1.1//EN"
 "http://www.w3.org/Graphics/SVG/1.1/DTD/svg11.dtd">
<!-- Generated by graphviz version 2.40.1 (20161225.0304)
 -->
<!-- Title: FairGeoMatrix::operator* Pages: 1 -->
<svg width="302pt" height="224pt"
 viewBox="0.00 0.00 302.00 224.00" xmlns="http://www.w3.org/2000/svg" xmlns:xlink="http://www.w3.org/1999/xlink">
<g id="graph0" class="graph" transform="scale(1 1) rotate(0) translate(4 220)">
<title>FairGeoMatrix::operator*</title>
<!-- Node1 -->
<g id="node1" class="node">
<title>Node1</title>
<polygon fill="#bfbfbf" stroke="#000000" points="0,-97.5 0,-117.5 141,-117.5 141,-97.5 0,-97.5"/>
<text text-anchor="middle" x="70.5" y="-104.5" font-family="FreeSans" font-size="10.00" fill="#000000">FairGeoMatrix::operator*</text>
</g>
<!-- Node2 -->
<g id="node2" class="node">
<title>Node2</title>
<g id="a_node2"><a xlink:href="../../d3/d41/classFairGeoVector.html#a5ab1addd17aa006f2b1f83051d34fb3d" target="_top" xlink:title="FairGeoVector::getX">
<polygon fill="none" stroke="#000000" points="177,-195.5 177,-215.5 294,-215.5 294,-195.5 177,-195.5"/>
<text text-anchor="middle" x="235.5" y="-202.5" font-family="FreeSans" font-size="10.00" fill="#000000">FairGeoVector::getX</text>
</a>
</g>
</g>
<!-- Node1&#45;&gt;Node2 -->
<g id="edge1" class="edge">
<title>Node1&#45;&gt;Node2</title>
<path fill="none" stroke="#191970" d="M81.4974,-117.5876C99.9671,-134.0635 138.9432,-166.874 177,-186.5 180.737,-188.4272 184.7084,-190.211 188.7536,-191.85"/>
<polygon fill="#191970" stroke="#191970" points="187.6588,-195.1774 198.251,-195.4107 190.1162,-188.6229 187.6588,-195.1774"/>
</g>
<!-- Node3 -->
<g id="node3" class="node">
<title>Node3</title>
<g id="a_node3"><a xlink:href="../../d3/d41/classFairGeoVector.html#aead825fa42e5b6eeba7d31a272ea7e18" target="_top" xlink:title="FairGeoVector::getY">
<polygon fill="none" stroke="#000000" points="177.5,-156.5 177.5,-176.5 293.5,-176.5 293.5,-156.5 177.5,-156.5"/>
<text text-anchor="middle" x="235.5" y="-163.5" font-family="FreeSans" font-size="10.00" fill="#000000">FairGeoVector::getY</text>
</a>
</g>
</g>
<!-- Node1&#45;&gt;Node3 -->
<g id="edge2" class="edge">
<title>Node1&#45;&gt;Node3</title>
<path fill="none" stroke="#191970" d="M96.2056,-117.5274C117.7026,-125.8231 149.2235,-137.7786 177,-147.5 182.4883,-149.4208 188.2887,-151.3842 194.0199,-153.285"/>
<polygon fill="#191970" stroke="#191970" points="192.94,-156.6142 203.5328,-156.4065 195.1224,-149.9631 192.94,-156.6142"/>
</g>
<!-- Node4 -->
<g id="node4" class="node">
<title>Node4</title>
<g id="a_node4"><a xlink:href="../../d3/d41/classFairGeoVector.html#a761eac79104e57ea5487e8c85190a228" target="_top" xlink:title="FairGeoVector::getZ">
<polygon fill="none" stroke="#000000" points="177,-117.5 177,-137.5 294,-137.5 294,-117.5 177,-117.5"/>
<text text-anchor="middle" x="235.5" y="-124.5" font-family="FreeSans" font-size="10.00" fill="#000000">FairGeoVector::getZ</text>
</a>
</g>
</g>
<!-- Node1&#45;&gt;Node4 -->
<g id="edge3" class="edge">
<title>Node1&#45;&gt;Node4</title>
<path fill="none" stroke="#191970" d="M141.4324,-116.0979C149.8155,-117.114 158.3611,-118.1498 166.7138,-119.1623"/>
<polygon fill="#191970" stroke="#191970" points="166.4341,-122.6539 176.7827,-120.3827 167.2765,-115.7048 166.4341,-122.6539"/>
</g>
<!-- Node5 -->
<g id="node5" class="node">
<title>Node5</title>
<g id="a_node5"><a xlink:href="../../d3/d41/classFairGeoVector.html#aad0c1b3eacddb13acc3db7e12ff19b58" target="_top" xlink:title="FairGeoVector::setX">
<polygon fill="none" stroke="#000000" points="177.5,-78.5 177.5,-98.5 293.5,-98.5 293.5,-78.5 177.5,-78.5"/>
<text text-anchor="middle" x="235.5" y="-85.5" font-family="FreeSans" font-size="10.00" fill="#000000">FairGeoVector::setX</text>
</a>
</g>
</g>
<!-- Node1&#45;&gt;Node5 -->
<g id="edge4" class="edge">
<title>Node1&#45;&gt;Node5</title>
<path fill="none" stroke="#191970" d="M141.4324,-99.332C149.9397,-98.3524 158.6144,-97.3535 167.0849,-96.3781"/>
<polygon fill="#191970" stroke="#191970" points="167.757,-99.8239 177.2909,-95.2029 166.9561,-92.8699 167.757,-99.8239"/>
</g>
<!-- Node6 -->
<g id="node6" class="node">
<title>Node6</title>
<g id="a_node6"><a xlink:href="../../d3/d41/classFairGeoVector.html#a8bd617d0125e34ca9a06d1980d0bd256" target="_top" xlink:title="FairGeoVector::setY">
<polygon fill="none" stroke="#000000" points="178,-39.5 178,-59.5 293,-59.5 293,-39.5 178,-39.5"/>
<text text-anchor="middle" x="235.5" y="-46.5" font-family="FreeSans" font-size="10.00" fill="#000000">FairGeoVector::setY</text>
</a>
</g>
</g>
<!-- Node1&#45;&gt;Node6 -->
<g id="edge5" class="edge">
<title>Node1&#45;&gt;Node6</title>
<path fill="none" stroke="#191970" d="M98.4931,-97.3972C119.9511,-89.6808 150.3124,-78.8227 177,-69.5 183.1178,-67.3629 189.6037,-65.1214 195.9439,-62.9437"/>
<polygon fill="#191970" stroke="#191970" points="197.3865,-66.1492 205.7131,-59.5981 195.1185,-59.5268 197.3865,-66.1492"/>
</g>
<!-- Node7 -->
<g id="node7" class="node">
<title>Node7</title>
<g id="a_node7"><a xlink:href="../../d3/d41/classFairGeoVector.html#addcee85b46b7bef9ddac826de347d9a8" target="_top" xlink:title="FairGeoVector::setZ">
<polygon fill="none" stroke="#000000" points="177.5,-.5 177.5,-20.5 293.5,-20.5 293.5,-.5 177.5,-.5"/>
<text text-anchor="middle" x="235.5" y="-7.5" font-family="FreeSans" font-size="10.00" fill="#000000">FairGeoVector::setZ</text>
</a>
</g>
</g>
<!-- Node1&#45;&gt;Node7 -->
<g id="edge6" class="edge">
<title>Node1&#45;&gt;Node7</title>
<path fill="none" stroke="#191970" d="M81.882,-97.4949C100.5903,-81.476 139.5158,-49.9058 177,-30.5 181.3578,-28.2439 186.0249,-26.1558 190.7518,-24.2476"/>
<polygon fill="#191970" stroke="#191970" points="192.3367,-27.3906 200.4586,-20.5872 189.8668,-20.8408 192.3367,-27.3906"/>
</g>
</g>
</svg>
