<?xml version="1.0" encoding="UTF-8" standalone="no"?>
<!DOCTYPE svg PUBLIC "-//W3C//DTD SVG 1.1//EN"
 "http://www.w3.org/Graphics/SVG/1.1/DTD/svg11.dtd">
<!-- Generated by graphviz version 2.40.1 (20161225.0304)
 -->
<!-- Title: fun4all_coresoftware/blob/master/simulation/g4simulation/g4eval/SvtxEvaluator.cc Pages: 1 -->
<svg width="4554pt" height="545pt"
 viewBox="0.00 0.00 4553.50 545.00" xmlns="http://www.w3.org/2000/svg" xmlns:xlink="http://www.w3.org/1999/xlink">
<g id="graph0" class="graph" transform="scale(1 1) rotate(0) translate(4 541)">
<title>fun4all_coresoftware/blob/master/simulation/g4simulation/g4eval/SvtxEvaluator.cc</title>
<!-- Node1 -->
<g id="node1" class="node">
<title>Node1</title>
<polygon fill="#bfbfbf" stroke="#000000" points="1997.5,-492.5 1997.5,-536.5 2208.5,-536.5 2208.5,-492.5 1997.5,-492.5"/>
<text text-anchor="start" x="2005.5" y="-523.5" font-family="FreeSans" font-size="10.00" fill="#000000">fun4all_coresoftware</text>
<text text-anchor="start" x="2005.5" y="-511.5" font-family="FreeSans" font-size="10.00" fill="#000000">/blob/master/simulation</text>
<text text-anchor="middle" x="2103" y="-499.5" font-family="FreeSans" font-size="10.00" fill="#000000">/g4simulation/g4eval/SvtxEvaluator.cc</text>
</g>
<!-- Node2 -->
<g id="node2" class="node">
<title>Node2</title>
<g id="a_node2"><a xlink:href="../../d6/dff/SvtxEvaluator_8h.html" target="_top" xlink:title="Compares reconstructed tracks to truth particles.">
<polygon fill="none" stroke="#ff0000" points="1677.5,-435.5 1677.5,-455.5 1772.5,-455.5 1772.5,-435.5 1677.5,-435.5"/>
<text text-anchor="middle" x="1725" y="-442.5" font-family="FreeSans" font-size="10.00" fill="#000000">SvtxEvaluator.h</text>
</a>
</g>
</g>
<!-- Node1&#45;&gt;Node2 -->
<g id="edge1" class="edge">
<title>Node1&#45;&gt;Node2</title>
<path fill="none" stroke="#191970" d="M1997.4547,-495.2338C1928.0129,-482.5579 1839.7636,-466.4489 1782.8358,-456.0573"/>
<polygon fill="#191970" stroke="#191970" points="1783.3972,-452.6021 1772.9313,-454.2494 1782.1402,-459.4883 1783.3972,-452.6021"/>
</g>
<!-- Node3 -->
<g id="node3" class="node">
<title>Node3</title>
<g id="a_node3"><a xlink:href="../../d5/dc2/SubsysReco_8h.html" target="_top" xlink:title="fun4all/SubsysReco.h">
<polygon fill="none" stroke="#ff0000" points="1733,-378.5 1733,-398.5 1857,-398.5 1857,-378.5 1733,-378.5"/>
<text text-anchor="middle" x="1795" y="-385.5" font-family="FreeSans" font-size="10.00" fill="#000000">fun4all/SubsysReco.h</text>
</a>
</g>
</g>
<!-- Node1&#45;&gt;Node3 -->
<g id="edge144" class="edge">
<title>Node1&#45;&gt;Node3</title>
<path fill="none" stroke="#191970" d="M1997.4743,-498.9909C1956.3849,-490.1593 1909.9197,-476.5906 1871,-456 1847.3095,-443.4665 1824.9794,-422.047 1810.7337,-406.6963"/>
<polygon fill="#191970" stroke="#191970" points="1812.9893,-403.9712 1803.6938,-398.8874 1807.7902,-408.6583 1812.9893,-403.9712"/>
</g>
<!-- Node6 -->
<g id="node6" class="node">
<title>Node6</title>
<g id="a_node6"><a xlink:href="../../d3/d59/SvtxEvalStack_8h.html" target="_top" xlink:title="SvtxEvalStack.h">
<polygon fill="none" stroke="#000000" points="1350.5,-435.5 1350.5,-455.5 1447.5,-455.5 1447.5,-435.5 1350.5,-435.5"/>
<text text-anchor="middle" x="1399" y="-442.5" font-family="FreeSans" font-size="10.00" fill="#000000">SvtxEvalStack.h</text>
</a>
</g>
</g>
<!-- Node1&#45;&gt;Node6 -->
<g id="edge6" class="edge">
<title>Node1&#45;&gt;Node6</title>
<path fill="none" stroke="#191970" d="M1997.2506,-507.2632C1869.9595,-497.9953 1649.86,-480.1936 1462,-456 1460.7009,-455.8327 1459.3876,-455.6585 1458.0641,-455.4783"/>
<polygon fill="#191970" stroke="#191970" points="1458.183,-451.9594 1447.7861,-453.9978 1457.1849,-458.8879 1458.183,-451.9594"/>
</g>
<!-- Node7 -->
<g id="node7" class="node">
<title>Node7</title>
<g id="a_node7"><a xlink:href="../../d5/d9c/SvtxVertexEval_8h.html" target="_top" xlink:title="SvtxVertexEval.h">
<polygon fill="none" stroke="#000000" points="1153,-378.5 1153,-398.5 1255,-398.5 1255,-378.5 1153,-378.5"/>
<text text-anchor="middle" x="1204" y="-385.5" font-family="FreeSans" font-size="10.00" fill="#000000">SvtxVertexEval.h</text>
</a>
</g>
</g>
<!-- Node1&#45;&gt;Node7 -->
<g id="edge49" class="edge">
<title>Node1&#45;&gt;Node7</title>
<path fill="none" stroke="#191970" d="M1997.253,-511.3145C1787.4992,-504.3824 1333.3931,-486.0908 1269,-456 1246.3297,-445.4062 1227.4366,-423.1752 1215.9657,-407.1154"/>
<polygon fill="#191970" stroke="#191970" points="1218.622,-404.7982 1210.097,-398.5073 1212.8382,-408.7414 1218.622,-404.7982"/>
</g>
<!-- Node8 -->
<g id="node8" class="node">
<title>Node8</title>
<g id="a_node8"><a xlink:href="../../df/d8a/SvtxTrackEval_8h.html" target="_top" xlink:title="SvtxTrackEval.h">
<polygon fill="none" stroke="#000000" points="1079,-315.5 1079,-335.5 1175,-335.5 1175,-315.5 1079,-315.5"/>
<text text-anchor="middle" x="1127" y="-322.5" font-family="FreeSans" font-size="10.00" fill="#000000">SvtxTrackEval.h</text>
</a>
</g>
</g>
<!-- Node1&#45;&gt;Node8 -->
<g id="edge47" class="edge">
<title>Node1&#45;&gt;Node8</title>
<path fill="none" stroke="#191970" d="M1997.4745,-510.2028C1782.4183,-501.034 1307.7077,-478.5445 1237,-456 1190.8118,-441.2733 1172.3304,-438.3397 1144,-399 1132.7907,-383.4347 1128.843,-361.6237 1127.5169,-345.8073"/>
<polygon fill="#191970" stroke="#191970" points="1130.9952,-345.3165 1126.9484,-335.525 1124.0059,-345.703 1130.9952,-345.3165"/>
</g>
<!-- Node9 -->
<g id="node9" class="node">
<title>Node9</title>
<g id="a_node9"><a xlink:href="../../d7/dcd/SvtxClusterEval_8h.html" target="_top" xlink:title="SvtxClusterEval.h">
<polygon fill="none" stroke="#000000" points="801.5,-252.5 801.5,-272.5 906.5,-272.5 906.5,-252.5 801.5,-252.5"/>
<text text-anchor="middle" x="854" y="-259.5" font-family="FreeSans" font-size="10.00" fill="#000000">SvtxClusterEval.h</text>
</a>
</g>
</g>
<!-- Node1&#45;&gt;Node9 -->
<g id="edge45" class="edge">
<title>Node1&#45;&gt;Node9</title>
<path fill="none" stroke="#191970" d="M1997.2532,-512.2436C1717.7978,-505.8768 978.0714,-486.2446 935,-456 876.7001,-415.0619 860.2024,-323.7109 855.663,-282.8894"/>
<polygon fill="#191970" stroke="#191970" points="859.133,-282.4108 854.675,-272.7995 852.1663,-283.093 859.133,-282.4108"/>
</g>
<!-- Node10 -->
<g id="node10" class="node">
<title>Node10</title>
<g id="a_node10"><a xlink:href="../../d7/d98/SvtxHitEval_8h.html" target="_top" xlink:title="SvtxHitEval.h">
<polygon fill="none" stroke="#000000" points="1015,-189.5 1015,-209.5 1099,-209.5 1099,-189.5 1015,-189.5"/>
<text text-anchor="middle" x="1057" y="-196.5" font-family="FreeSans" font-size="10.00" fill="#000000">SvtxHitEval.h</text>
</a>
</g>
</g>
<!-- Node1&#45;&gt;Node10 -->
<g id="edge46" class="edge">
<title>Node1&#45;&gt;Node10</title>
<path fill="none" stroke="#191970" d="M1997.1863,-510.7835C1788.9103,-502.978 1332.5939,-483.3177 1178,-456 1073.5117,-437.5363 949,-494.6071 949,-388.5 949,-388.5 949,-388.5 949,-325.5 949,-275.7266 998.1835,-235.7502 1030.1689,-215.015"/>
<polygon fill="#191970" stroke="#191970" points="1032.0622,-217.959 1038.6793,-209.6846 1028.3465,-212.0266 1032.0622,-217.959"/>
</g>
<!-- Node11 -->
<g id="node11" class="node">
<title>Node11</title>
<g id="a_node11"><a xlink:href="../../d7/d20/SvtxTruthEval_8h.html" target="_top" xlink:title="SvtxTruthEval.h">
<polygon fill="none" stroke="#ff0000" points="630.5,-120.5 630.5,-140.5 725.5,-140.5 725.5,-120.5 630.5,-120.5"/>
<text text-anchor="middle" x="678" y="-127.5" font-family="FreeSans" font-size="10.00" fill="#000000">SvtxTruthEval.h</text>
</a>
</g>
</g>
<!-- Node1&#45;&gt;Node11 -->
<g id="edge48" class="edge">
<title>Node1&#45;&gt;Node11</title>
<path fill="none" stroke="#191970" d="M1997.3233,-512.4737C1683.2175,-506.1303 773.5437,-485.314 717,-456 683.3797,-438.5702 665,-426.3698 665,-388.5 665,-388.5 665,-388.5 665,-262.5 665,-222.7829 670.901,-176.666 674.7515,-150.8012"/>
<polygon fill="#191970" stroke="#191970" points="678.2387,-151.1515 676.3005,-140.7355 671.3202,-150.0868 678.2387,-151.1515"/>
</g>
<!-- Node12 -->
<g id="node12" class="node">
<title>Node12</title>
<g id="a_node12"><a xlink:href="../../d8/d00/TrkrDefs_8h.html" target="_top" xlink:title="Namespace with Trkr key types and utility functions.">
<polygon fill="none" stroke="#ff0000" points="1757,-57.5 1757,-77.5 1877,-77.5 1877,-57.5 1757,-57.5"/>
<text text-anchor="middle" x="1817" y="-64.5" font-family="FreeSans" font-size="10.00" fill="#000000">trackbase/TrkrDefs.h</text>
</a>
</g>
</g>
<!-- Node1&#45;&gt;Node12 -->
<g id="edge59" class="edge">
<title>Node1&#45;&gt;Node12</title>
<path fill="none" stroke="#191970" d="M2074.7009,-492.335C2048.0835,-470.5318 2008.2136,-435.3193 1980,-399 1901.5321,-297.9887 1890.6476,-264.8796 1841,-147 1832.7248,-127.352 1826.0018,-103.8765 1821.7989,-87.5511"/>
<polygon fill="#191970" stroke="#191970" points="1825.1154,-86.3848 1819.3037,-77.5262 1818.3227,-88.0755 1825.1154,-86.3848"/>
</g>
<!-- Node13 -->
<g id="node13" class="node">
<title>Node13</title>
<polygon fill="none" stroke="#bfbfbf" points="2720,-.5 2720,-20.5 2780,-20.5 2780,-.5 2720,-.5"/>
<text text-anchor="middle" x="2750" y="-7.5" font-family="FreeSans" font-size="10.00" fill="#000000">iostream</text>
</g>
<!-- Node1&#45;&gt;Node13 -->
<g id="edge157" class="edge">
<title>Node1&#45;&gt;Node13</title>
<path fill="none" stroke="#191970" d="M2208.8283,-514.2193C2603.1294,-512.7993 3968.3108,-504.3944 4047,-456 4071.5639,-440.893 4068.0899,-426.0813 4078,-399 4130.2434,-256.2354 4207.1674,-146.1117 4084,-57 4030.3141,-18.1582 3007.4193,-11.6034 2790.292,-10.6481"/>
<polygon fill="#191970" stroke="#191970" points="2790.2951,-7.1482 2780.2803,-10.6056 2790.2653,-14.1481 2790.2951,-7.1482"/>
</g>
<!-- Node14 -->
<g id="node14" class="node">
<title>Node14</title>
<polygon fill="none" stroke="#bfbfbf" points="1307.5,-57.5 1307.5,-77.5 1346.5,-77.5 1346.5,-57.5 1307.5,-57.5"/>
<text text-anchor="middle" x="1327" y="-64.5" font-family="FreeSans" font-size="10.00" fill="#000000">map</text>
</g>
<!-- Node1&#45;&gt;Node14 -->
<g id="edge160" class="edge">
<title>Node1&#45;&gt;Node14</title>
<path fill="none" stroke="#191970" d="M1997.2922,-513.3502C1795.6749,-510.1875 1371.6402,-498.5054 1321,-456 1273.3867,-416.0353 1243.8496,-243.028 1260,-183 1270.1105,-145.4211 1295.7714,-107.4613 1312.2409,-85.7791"/>
<polygon fill="#191970" stroke="#191970" points="1315.0805,-87.8291 1318.4601,-77.7878 1309.5563,-83.5299 1315.0805,-87.8291"/>
</g>
<!-- Node15 -->
<g id="node15" class="node">
<title>Node15</title>
<polygon fill="none" stroke="#bfbfbf" points="693,-57.5 693,-77.5 725,-77.5 725,-57.5 693,-57.5"/>
<text text-anchor="middle" x="709" y="-64.5" font-family="FreeSans" font-size="10.00" fill="#000000">set</text>
</g>
<!-- Node1&#45;&gt;Node15 -->
<g id="edge162" class="edge">
<title>Node1&#45;&gt;Node15</title>
<path fill="none" stroke="#191970" d="M1997.3309,-512.734C1657.6523,-506.7808 607.0769,-486.12 457,-456 373.6383,-439.2695 278,-473.524 278,-388.5 278,-388.5 278,-388.5 278,-199.5 278,-160.573 267.7972,-139.7392 297,-114 359.5805,-58.8417 584.1168,-96.2056 682.8423,-77.3454"/>
<polygon fill="#191970" stroke="#191970" points="683.8351,-80.7103 692.8383,-75.1252 682.3173,-73.8768 683.8351,-80.7103"/>
</g>
<!-- Node16 -->
<g id="node16" class="node">
<title>Node16</title>
<polygon fill="none" stroke="#bfbfbf" points="441.5,-57.5 441.5,-77.5 490.5,-77.5 490.5,-57.5 441.5,-57.5"/>
<text text-anchor="middle" x="466" y="-64.5" font-family="FreeSans" font-size="10.00" fill="#000000">vector</text>
</g>
<!-- Node1&#45;&gt;Node16 -->
<g id="edge164" class="edge">
<title>Node1&#45;&gt;Node16</title>
<path fill="none" stroke="#191970" d="M1997.2686,-513.7011C1591.5839,-510.3478 152.8093,-495.6966 64,-456 26.2577,-439.1297 0,-429.8411 0,-388.5 0,-388.5 0,-388.5 0,-199.5 0,-153.8297 18.0173,-137.7934 57,-114 88.6808,-94.6634 338.2825,-76.0884 431.2574,-69.7727"/>
<polygon fill="#191970" stroke="#191970" points="431.5452,-73.2613 441.2876,-69.0977 431.0752,-66.2771 431.5452,-73.2613"/>
</g>
<!-- Node17 -->
<g id="node17" class="node">
<title>Node17</title>
<polygon fill="none" stroke="#bfbfbf" points="617,-57.5 617,-77.5 675,-77.5 675,-57.5 617,-57.5"/>
<text text-anchor="middle" x="646" y="-64.5" font-family="FreeSans" font-size="10.00" fill="#000000">memory</text>
</g>
<!-- Node1&#45;&gt;Node17 -->
<g id="edge161" class="edge">
<title>Node1&#45;&gt;Node17</title>
<path fill="none" stroke="#191970" d="M1997.4586,-512.7956C1622.9401,-506.5253 375.7272,-483.6593 295,-456 246.6843,-439.4458 202,-439.5729 202,-388.5 202,-388.5 202,-388.5 202,-199.5 202,-146.2292 238.2986,-137.714 286,-114 314.2994,-99.9314 519.2867,-79.3598 606.6891,-71.1144"/>
<polygon fill="#191970" stroke="#191970" points="607.1159,-74.5899 616.7453,-70.1713 606.4621,-67.6204 607.1159,-74.5899"/>
</g>
<!-- Node18 -->
<g id="node18" class="node">
<title>Node18</title>
<polygon fill="none" stroke="#bfbfbf" points="2644.5,-57.5 2644.5,-77.5 2689.5,-77.5 2689.5,-57.5 2644.5,-57.5"/>
<text text-anchor="middle" x="2667" y="-64.5" font-family="FreeSans" font-size="10.00" fill="#000000">utility</text>
</g>
<!-- Node1&#45;&gt;Node18 -->
<g id="edge163" class="edge">
<title>Node1&#45;&gt;Node18</title>
<path fill="none" stroke="#191970" d="M2208.6254,-506.3274C2337.6334,-495.7026 2548.0574,-476.1154 2624,-456 2697.4216,-436.5524 2781,-464.4535 2781,-388.5 2781,-388.5 2781,-388.5 2781,-199.5 2781,-146.6352 2727.9795,-104.4834 2694.256,-83.0195"/>
<polygon fill="#191970" stroke="#191970" points="2695.6678,-79.7789 2685.3161,-77.5225 2692.0013,-85.7419 2695.6678,-79.7789"/>
</g>
<!-- Node19 -->
<g id="node19" class="node">
<title>Node19</title>
<g id="a_node19"><a xlink:href="../../da/d51/ActsSurfaceMaps_8h.html" target="_top" xlink:title="maps hitsetids to Acts Surfaces">
<polygon fill="none" stroke="#000000" points="743.5,-120.5 743.5,-140.5 908.5,-140.5 908.5,-120.5 743.5,-120.5"/>
<text text-anchor="middle" x="826" y="-127.5" font-family="FreeSans" font-size="10.00" fill="#000000">trackbase/ActsSurfaceMaps.h</text>
</a>
</g>
</g>
<!-- Node1&#45;&gt;Node19 -->
<g id="edge61" class="edge">
<title>Node1&#45;&gt;Node19</title>
<path fill="none" stroke="#191970" d="M1997.2948,-512.9399C1745.5569,-508.6406 1116.1436,-494.2934 909,-456 814.2599,-438.486 703,-484.8453 703,-388.5 703,-388.5 703,-388.5 703,-262.5 703,-207.779 760.278,-166.2725 796.6605,-145.4275"/>
<polygon fill="#191970" stroke="#191970" points="798.3622,-148.4861 805.4126,-140.5776 794.9693,-142.3633 798.3622,-148.4861"/>
</g>
<!-- Node20 -->
<g id="node20" class="node">
<title>Node20</title>
<g id="a_node20"><a xlink:href="../../d4/d6a/ActsTrackingGeometry_8h.html" target="_top" xlink:title="trackbase/ActsTrackingGeometry.h">
<polygon fill="none" stroke="#ff0000" points="306.5,-120.5 306.5,-140.5 497.5,-140.5 497.5,-120.5 306.5,-120.5"/>
<text text-anchor="middle" x="402" y="-127.5" font-family="FreeSans" font-size="10.00" fill="#000000">trackbase/ActsTrackingGeometry.h</text>
</a>
</g>
</g>
<!-- Node1&#45;&gt;Node20 -->
<g id="edge60" class="edge">
<title>Node1&#45;&gt;Node20</title>
<path fill="none" stroke="#191970" d="M1997.4996,-513.4178C1712.993,-509.9793 934.3633,-496.9943 681,-456 573.7275,-438.6433 446,-497.1676 446,-388.5 446,-388.5 446,-388.5 446,-262.5 446,-220.4888 425.6932,-174.6379 412.6705,-149.5532"/>
<polygon fill="#191970" stroke="#191970" points="415.7439,-147.8785 407.934,-140.7191 409.5747,-151.1861 415.7439,-147.8785"/>
</g>
<!-- Node21 -->
<g id="node21" class="node">
<title>Node21</title>
<g id="a_node21"><a xlink:href="../../d1/d4a/TrkrCluster_8h.html" target="_top" xlink:title="Base class for cluster object.">
<polygon fill="none" stroke="#ff0000" points="3299,-120.5 3299,-140.5 3431,-140.5 3431,-120.5 3299,-120.5"/>
<text text-anchor="middle" x="3365" y="-127.5" font-family="FreeSans" font-size="10.00" fill="#000000">trackbase/TrkrCluster.h</text>
</a>
</g>
</g>
<!-- Node1&#45;&gt;Node21 -->
<g id="edge50" class="edge">
<title>Node1&#45;&gt;Node21</title>
<path fill="none" stroke="#191970" d="M2208.6841,-510.6992C2427.9517,-502.3544 2917.9706,-481.1555 2990,-456 3124.7832,-408.9285 3150.2801,-371.1041 3254,-273 3295.5516,-233.6982 3334.237,-178.0688 3353.0502,-149.3245"/>
<polygon fill="#191970" stroke="#191970" points="3356.1553,-150.968 3358.6439,-140.6695 3350.2763,-147.1683 3356.1553,-150.968"/>
</g>
<!-- Node22 -->
<g id="node22" class="node">
<title>Node22</title>
<polygon fill="none" stroke="#bfbfbf" points="3511,-57.5 3511,-77.5 3559,-77.5 3559,-57.5 3511,-57.5"/>
<text text-anchor="middle" x="3535" y="-64.5" font-family="FreeSans" font-size="10.00" fill="#000000">cmath</text>
</g>
<!-- Node1&#45;&gt;Node22 -->
<g id="edge156" class="edge">
<title>Node1&#45;&gt;Node22</title>
<path fill="none" stroke="#191970" d="M2208.9494,-512.3461C2475.4558,-506.5043 3168.6664,-488.5702 3397,-456 3522.8714,-438.0453 3675,-515.6455 3675,-388.5 3675,-388.5 3675,-388.5 3675,-262.5 3675,-189.7233 3653.6017,-169.0501 3606,-114 3594.8805,-101.1406 3579.3626,-90.4274 3565.6693,-82.5378"/>
<polygon fill="#191970" stroke="#191970" points="3567.0076,-79.2798 3556.5574,-77.5352 3563.6388,-85.4158 3567.0076,-79.2798"/>
</g>
<!-- Node23 -->
<g id="node23" class="node">
<title>Node23</title>
<g id="a_node23"><a xlink:href="../../d9/d1a/TrkrHit_8h.html" target="_top" xlink:title="Base class for hit object.">
<polygon fill="none" stroke="#ff0000" points="3677.5,-120.5 3677.5,-140.5 3788.5,-140.5 3788.5,-120.5 3677.5,-120.5"/>
<text text-anchor="middle" x="3733" y="-127.5" font-family="FreeSans" font-size="10.00" fill="#000000">trackbase/TrkrHit.h</text>
</a>
</g>
</g>
<!-- Node1&#45;&gt;Node23 -->
<g id="edge55" class="edge">
<title>Node1&#45;&gt;Node23</title>
<path fill="none" stroke="#191970" d="M2208.6344,-512.8369C2552.538,-507.1304 3621.8814,-486.9736 3689,-456 3725.9863,-438.9317 3751,-429.2346 3751,-388.5 3751,-388.5 3751,-388.5 3751,-325.5 3751,-261.3831 3741.2315,-185.9076 3736.087,-150.6048"/>
<polygon fill="#191970" stroke="#191970" points="3739.5346,-149.9939 3734.5974,-140.6198 3732.6113,-151.0268 3739.5346,-149.9939"/>
</g>
<!-- Node24 -->
<g id="node24" class="node">
<title>Node24</title>
<g id="a_node24"><a xlink:href="../../d4/de3/TpcDefs_8h.html" target="_top" xlink:title="Utility functions for TPC.">
<polygon fill="none" stroke="#ff0000" points="1989,-378.5 1989,-398.5 2075,-398.5 2075,-378.5 1989,-378.5"/>
<text text-anchor="middle" x="2032" y="-385.5" font-family="FreeSans" font-size="10.00" fill="#000000">tpc/TpcDefs.h</text>
</a>
</g>
</g>
<!-- Node1&#45;&gt;Node24 -->
<g id="edge62" class="edge">
<title>Node1&#45;&gt;Node24</title>
<path fill="none" stroke="#191970" d="M2090.4701,-492.2638C2076.9456,-468.2626 2055.6262,-430.4282 2042.8107,-407.6852"/>
<polygon fill="#191970" stroke="#191970" points="2045.6912,-405.6675 2037.7328,-398.6736 2039.5928,-409.1039 2045.6912,-405.6675"/>
</g>
<!-- Node25 -->
<g id="node25" class="node">
<title>Node25</title>
<g id="a_node25"><a xlink:href="../../d2/d44/TrkrClusterContainer_8h.html" target="_top" xlink:title="Cluster container base class.">
<polygon fill="none" stroke="#ff0000" points="2187.5,-120.5 2187.5,-140.5 2368.5,-140.5 2368.5,-120.5 2187.5,-120.5"/>
<text text-anchor="middle" x="2278" y="-127.5" font-family="FreeSans" font-size="10.00" fill="#000000">trackbase/TrkrClusterContainer.h</text>
</a>
</g>
</g>
<!-- Node1&#45;&gt;Node25 -->
<g id="edge64" class="edge">
<title>Node1&#45;&gt;Node25</title>
<path fill="none" stroke="#191970" d="M2126.6303,-492.3154C2148.9402,-468.8616 2179,-429.6294 2179,-388.5 2179,-388.5 2179,-388.5 2179,-262.5 2179,-212.1807 2225.6124,-168.7669 2254.869,-146.4739"/>
<polygon fill="#191970" stroke="#191970" points="2256.9938,-149.2557 2262.964,-140.5032 2252.8387,-143.6223 2256.9938,-149.2557"/>
</g>
<!-- Node26 -->
<g id="node26" class="node">
<title>Node26</title>
<g id="a_node26"><a xlink:href="../../d8/d2e/TrkrHitSet_8h.html" target="_top" xlink:title="Base Class Container for storing TrkrHit&#39;s.">
<polygon fill="none" stroke="#ff0000" points="2041,-120.5 2041,-140.5 2169,-140.5 2169,-120.5 2041,-120.5"/>
<text text-anchor="middle" x="2105" y="-127.5" font-family="FreeSans" font-size="10.00" fill="#000000">trackbase/TrkrHitSet.h</text>
</a>
</g>
</g>
<!-- Node1&#45;&gt;Node26 -->
<g id="edge69" class="edge">
<title>Node1&#45;&gt;Node26</title>
<path fill="none" stroke="#191970" d="M2113.9912,-492.3465C2125.214,-467.645 2141,-426.1995 2141,-388.5 2141,-388.5 2141,-388.5 2141,-262.5 2141,-221.1631 2124.3644,-175.029 2113.7103,-149.7215"/>
<polygon fill="#191970" stroke="#191970" points="2116.9039,-148.2888 2109.7064,-140.5141 2110.4846,-151.0803 2116.9039,-148.2888"/>
</g>
<!-- Node27 -->
<g id="node27" class="node">
<title>Node27</title>
<g id="a_node27"><a xlink:href="../../d4/dbe/TrkrHitSetContainer_8h.html" target="_top" xlink:title="trackbase/TrkrHitSetContainer.h">
<polygon fill="none" stroke="#ff0000" points="2387,-120.5 2387,-140.5 2563,-140.5 2563,-120.5 2387,-120.5"/>
<text text-anchor="middle" x="2475" y="-127.5" font-family="FreeSans" font-size="10.00" fill="#000000">trackbase/TrkrHitSetContainer.h</text>
</a>
</g>
</g>
<!-- Node1&#45;&gt;Node27 -->
<g id="edge74" class="edge">
<title>Node1&#45;&gt;Node27</title>
<path fill="none" stroke="#191970" d="M2208.683,-504.4197C2390.4609,-485.6421 2743,-442.2909 2743,-388.5 2743,-388.5 2743,-388.5 2743,-262.5 2743,-213.9181 2599.4806,-165.7513 2522.4946,-143.4086"/>
<polygon fill="#191970" stroke="#191970" points="2523.1237,-139.9481 2512.5464,-140.5577 2521.1952,-146.6772 2523.1237,-139.9481"/>
</g>
<!-- Node28 -->
<g id="node28" class="node">
<title>Node28</title>
<g id="a_node28"><a xlink:href="../../d7/d04/TrkrClusterHitAssoc_8h.html" target="_top" xlink:title="Base class for associating clusters to the hits that went into them.">
<polygon fill="none" stroke="#ff0000" points="1883.5,-114.5 1883.5,-146.5 2022.5,-146.5 2022.5,-114.5 1883.5,-114.5"/>
<text text-anchor="start" x="1891.5" y="-133.5" font-family="FreeSans" font-size="10.00" fill="#000000">trackbase/TrkrClusterHit</text>
<text text-anchor="middle" x="1953" y="-121.5" font-family="FreeSans" font-size="10.00" fill="#000000">Assoc.h</text>
</a>
</g>
</g>
<!-- Node1&#45;&gt;Node28 -->
<g id="edge79" class="edge">
<title>Node1&#45;&gt;Node28</title>
<path fill="none" stroke="#191970" d="M2103,-492.1947C2103,-467.0116 2103,-424.8125 2103,-388.5 2103,-388.5 2103,-388.5 2103,-262.5 2103,-208.8523 2048.2575,-171.8495 2004.9136,-150.9597"/>
<polygon fill="#191970" stroke="#191970" points="2006.1262,-147.6637 1995.5828,-146.6213 2003.1749,-154.0111 2006.1262,-147.6637"/>
</g>
<!-- Node29 -->
<g id="node29" class="node">
<title>Node29</title>
<g id="a_node29"><a xlink:href="../../d9/d3f/TrkrClusterIterationMapv1_8h.html" target="_top" xlink:title="trackbase/TrkrClusterIteration\lMapv1.h">
<polygon fill="none" stroke="#ff0000" points="1547,-114.5 1547,-146.5 1713,-146.5 1713,-114.5 1547,-114.5"/>
<text text-anchor="start" x="1555" y="-133.5" font-family="FreeSans" font-size="10.00" fill="#000000">trackbase/TrkrClusterIteration</text>
<text text-anchor="middle" x="1630" y="-121.5" font-family="FreeSans" font-size="10.00" fill="#000000">Mapv1.h</text>
</a>
</g>
</g>
<!-- Node1&#45;&gt;Node29 -->
<g id="edge84" class="edge">
<title>Node1&#45;&gt;Node29</title>
<path fill="none" stroke="#191970" d="M2015.4367,-492.367C1991.6523,-483.6177 1966.9761,-471.7753 1947,-456 1885.1832,-407.1827 1898.0811,-369.7974 1848,-309 1825.2213,-281.3471 1818.0305,-275.514 1791,-252 1748.194,-214.7628 1695.0817,-175.9924 1661.855,-152.5452"/>
<polygon fill="#191970" stroke="#191970" points="1663.6403,-149.522 1653.4454,-146.6384 1659.6169,-155.2503 1663.6403,-149.522"/>
</g>
<!-- Node30 -->
<g id="node30" class="node">
<title>Node30</title>
<g id="a_node30"><a xlink:href="../../d0/d87/SvtxTrack_8h.html" target="_top" xlink:title="trackbase_historic\l/SvtxTrack.h">
<polygon fill="none" stroke="#ff0000" points="1345,-114.5 1345,-146.5 1453,-146.5 1453,-114.5 1345,-114.5"/>
<text text-anchor="start" x="1353" y="-133.5" font-family="FreeSans" font-size="10.00" fill="#000000">trackbase_historic</text>
<text text-anchor="middle" x="1399" y="-121.5" font-family="FreeSans" font-size="10.00" fill="#000000">/SvtxTrack.h</text>
</a>
</g>
</g>
<!-- Node1&#45;&gt;Node30 -->
<g id="edge89" class="edge">
<title>Node1&#45;&gt;Node30</title>
<path fill="none" stroke="#191970" d="M1997.0356,-509.4698C1896.4705,-502.9262 1741.7005,-488.2424 1611,-456 1542.1612,-439.0182 1518.9437,-441.2442 1462,-399 1428.7998,-374.3701 1405,-366.8387 1405,-325.5 1405,-325.5 1405,-325.5 1405,-262.5 1405,-225.8044 1402.6574,-183.4298 1400.8997,-156.8004"/>
<polygon fill="#191970" stroke="#191970" points="1404.3864,-156.485 1400.2142,-146.7463 1397.4027,-156.9612 1404.3864,-156.485"/>
</g>
<!-- Node31 -->
<g id="node31" class="node">
<title>Node31</title>
<g id="a_node31"><a xlink:href="../../d7/d9f/SvtxTrackMap_8h.html" target="_top" xlink:title="trackbase_historic\l/SvtxTrackMap.h">
<polygon fill="none" stroke="#ff0000" points="1269,-183.5 1269,-215.5 1377,-215.5 1377,-183.5 1269,-183.5"/>
<text text-anchor="start" x="1277" y="-202.5" font-family="FreeSans" font-size="10.00" fill="#000000">trackbase_historic</text>
<text text-anchor="middle" x="1323" y="-190.5" font-family="FreeSans" font-size="10.00" fill="#000000">/SvtxTrackMap.h</text>
</a>
</g>
</g>
<!-- Node1&#45;&gt;Node31 -->
<g id="edge95" class="edge">
<title>Node1&#45;&gt;Node31</title>
<path fill="none" stroke="#191970" d="M1997.4155,-513.0094C1800.0591,-509.2709 1390.6119,-496.6569 1341,-456 1316.8945,-436.2456 1322,-419.6658 1322,-388.5 1322,-388.5 1322,-388.5 1322,-325.5 1322,-291.1996 1322.3751,-251.6486 1322.6659,-226.1463"/>
<polygon fill="#191970" stroke="#191970" points="1326.1695,-225.8508 1322.7879,-215.8101 1319.17,-225.7681 1326.1695,-225.8508"/>
</g>
<!-- Node32 -->
<g id="node32" class="node">
<title>Node32</title>
<g id="a_node32"><a xlink:href="../../dc/dc1/SvtxVertex_8h.html" target="_top" xlink:title="trackbase_historic\l/SvtxVertex.h">
<polygon fill="none" stroke="#ff0000" points="66,-114.5 66,-146.5 174,-146.5 174,-114.5 66,-114.5"/>
<text text-anchor="start" x="74" y="-133.5" font-family="FreeSans" font-size="10.00" fill="#000000">trackbase_historic</text>
<text text-anchor="middle" x="120" y="-121.5" font-family="FreeSans" font-size="10.00" fill="#000000">/SvtxVertex.h</text>
</a>
</g>
</g>
<!-- Node1&#45;&gt;Node32 -->
<g id="edge99" class="edge">
<title>Node1&#45;&gt;Node32</title>
<path fill="none" stroke="#191970" d="M1997.2606,-512.7555C1604.0225,-506.0822 244.0243,-481.2767 155,-456 97.2494,-439.6028 38,-448.5333 38,-388.5 38,-388.5 38,-388.5 38,-262.5 38,-226.1716 37.8469,-213.8693 57,-183 64.1667,-171.4493 74.7507,-161.2118 85.2062,-152.9148"/>
<polygon fill="#191970" stroke="#191970" points="87.6019,-155.4927 93.496,-146.6886 83.3981,-149.8955 87.6019,-155.4927"/>
</g>
<!-- Node33 -->
<g id="node33" class="node">
<title>Node33</title>
<g id="a_node33"><a xlink:href="../../d0/d19/SvtxVertexMap_8h.html" target="_top" xlink:title="trackbase_historic\l/SvtxVertexMap.h">
<polygon fill="none" stroke="#ff0000" points="66,-183.5 66,-215.5 174,-215.5 174,-183.5 66,-183.5"/>
<text text-anchor="start" x="74" y="-202.5" font-family="FreeSans" font-size="10.00" fill="#000000">trackbase_historic</text>
<text text-anchor="middle" x="120" y="-190.5" font-family="FreeSans" font-size="10.00" fill="#000000">/SvtxVertexMap.h</text>
</a>
</g>
</g>
<!-- Node1&#45;&gt;Node33 -->
<g id="edge104" class="edge">
<title>Node1&#45;&gt;Node33</title>
<path fill="none" stroke="#191970" d="M1997.2268,-513.9159C1607.1593,-511.4201 267.6799,-499.6922 188,-456 156.1677,-438.5449 142,-424.8039 142,-388.5 142,-388.5 142,-388.5 142,-325.5 142,-290.5256 133.6727,-250.8935 127.2646,-225.573"/>
<polygon fill="#191970" stroke="#191970" points="130.5858,-224.4394 124.6656,-215.6529 123.8143,-226.2135 130.5858,-224.4394"/>
</g>
<!-- Node34 -->
<g id="node34" class="node">
<title>Node34</title>
<g id="a_node34"><a xlink:href="../../de/dd2/ActsTransformations_8h.html" target="_top" xlink:title="trackbase_historic\l/ActsTransformations.h">
<polygon fill="none" stroke="#ff0000" points="1433,-183.5 1433,-215.5 1565,-215.5 1565,-183.5 1433,-183.5"/>
<text text-anchor="start" x="1441" y="-202.5" font-family="FreeSans" font-size="10.00" fill="#000000">trackbase_historic</text>
<text text-anchor="middle" x="1499" y="-190.5" font-family="FreeSans" font-size="10.00" fill="#000000">/ActsTransformations.h</text>
</a>
</g>
</g>
<!-- Node1&#45;&gt;Node34 -->
<g id="edge108" class="edge">
<title>Node1&#45;&gt;Node34</title>
<path fill="none" stroke="#191970" d="M1997.3943,-498.3591C1966.4753,-489.6989 1934.2355,-476.4038 1909,-456 1878.2175,-431.1113 1888.1737,-410.7924 1866,-378 1825.4847,-318.0824 1825.0044,-289.2432 1763,-252 1731.9455,-233.3469 1641.6744,-218.0313 1575.3036,-208.8522"/>
<polygon fill="#191970" stroke="#191970" points="1575.6633,-205.369 1565.2824,-207.4875 1574.7187,-212.305 1575.6633,-205.369"/>
</g>
<!-- Node35 -->
<g id="node35" class="node">
<title>Node35</title>
<g id="a_node35"><a xlink:href="../../de/d83/PHG4Hit_8h.html" target="_top" xlink:title="g4main/PHG4Hit.h">
<polygon fill="none" stroke="#ff0000" points="2979,-315.5 2979,-335.5 3089,-335.5 3089,-315.5 2979,-315.5"/>
<text text-anchor="middle" x="3034" y="-322.5" font-family="FreeSans" font-size="10.00" fill="#000000">g4main/PHG4Hit.h</text>
</a>
</g>
</g>
<!-- Node1&#45;&gt;Node35 -->
<g id="edge117" class="edge">
<title>Node1&#45;&gt;Node35</title>
<path fill="none" stroke="#191970" d="M2208.5582,-513.0376C2424.7756,-509.2247 2902.9713,-496.2938 2965,-456 3004.0671,-430.622 3022.4432,-375.4866 3029.8148,-345.6488"/>
<polygon fill="#191970" stroke="#191970" points="3033.303,-346.0954 3032.1214,-335.5666 3026.4793,-344.5342 3033.303,-346.0954"/>
</g>
<!-- Node36 -->
<g id="node36" class="node">
<title>Node36</title>
<g id="a_node36"><a xlink:href="../../dd/d05/PHG4Particle_8h.html" target="_top" xlink:title="g4main/PHG4Particle.h">
<polygon fill="none" stroke="#ff0000" points="3515,-315.5 3515,-335.5 3647,-335.5 3647,-315.5 3515,-315.5"/>
<text text-anchor="middle" x="3581" y="-322.5" font-family="FreeSans" font-size="10.00" fill="#000000">g4main/PHG4Particle.h</text>
</a>
</g>
</g>
<!-- Node1&#45;&gt;Node36 -->
<g id="edge122" class="edge">
<title>Node1&#45;&gt;Node36</title>
<path fill="none" stroke="#191970" d="M2208.6197,-512.4731C2491.0066,-506.6454 3249.4139,-488.1699 3358,-456 3439.6257,-431.8174 3522.7854,-371.7678 3560.3434,-342.3218"/>
<polygon fill="#191970" stroke="#191970" points="3562.8196,-344.8247 3568.4728,-335.8642 3558.4656,-339.3436 3562.8196,-344.8247"/>
</g>
<!-- Node37 -->
<g id="node37" class="node">
<title>Node37</title>
<g id="a_node37"><a xlink:href="../../d0/d25/PHG4TruthInfoContainer_8h.html" target="_top" xlink:title="g4main/PHG4TruthInfoContainer.h">
<polygon fill="none" stroke="#ff0000" points="3017,-120.5 3017,-140.5 3205,-140.5 3205,-120.5 3017,-120.5"/>
<text text-anchor="middle" x="3111" y="-127.5" font-family="FreeSans" font-size="10.00" fill="#000000">g4main/PHG4TruthInfoContainer.h</text>
</a>
</g>
</g>
<!-- Node1&#45;&gt;Node37 -->
<g id="edge126" class="edge">
<title>Node1&#45;&gt;Node37</title>
<path fill="none" stroke="#191970" d="M2208.6877,-511.2918C2380.6968,-505.1756 2713.3282,-489.3695 2826,-456 2886.5388,-438.0705 2951,-451.6381 2951,-388.5 2951,-388.5 2951,-388.5 2951,-325.5 2951,-242.3326 3039.0569,-175.2429 3084.519,-146.1478"/>
<polygon fill="#191970" stroke="#191970" points="3086.6398,-148.9497 3093.2659,-140.6826 3082.9306,-143.0133 3086.6398,-148.9497"/>
</g>
<!-- Node38 -->
<g id="node38" class="node">
<title>Node38</title>
<polygon fill="none" stroke="#bfbfbf" points="3940,-57.5 3940,-77.5 3994,-77.5 3994,-57.5 3940,-57.5"/>
<text text-anchor="middle" x="3967" y="-64.5" font-family="FreeSans" font-size="10.00" fill="#000000">iterator</text>
</g>
<!-- Node1&#45;&gt;Node38 -->
<g id="edge159" class="edge">
<title>Node1&#45;&gt;Node38</title>
<path fill="none" stroke="#191970" d="M2208.7642,-512.9052C2601.6763,-506.7693 3956.6536,-483.6419 3992,-456 4016.5501,-436.8011 4011,-419.6658 4011,-388.5 4011,-388.5 4011,-388.5 4011,-199.5 4011,-160.573 4005.5666,-150.4864 3992,-114 3988.5102,-104.6143 3983.4459,-94.7707 3978.7866,-86.5695"/>
<polygon fill="#191970" stroke="#191970" points="3981.7199,-84.6535 3973.6216,-77.8221 3975.6922,-88.2127 3981.7199,-84.6535"/>
</g>
<!-- Node39 -->
<g id="node39" class="node">
<title>Node39</title>
<g id="a_node39"><a xlink:href="../../d4/d2a/PHG4VtxPoint_8h.html" target="_top" xlink:title="g4main/PHG4VtxPoint.h">
<polygon fill="none" stroke="#ff0000" points="3845.5,-120.5 3845.5,-140.5 3982.5,-140.5 3982.5,-120.5 3845.5,-120.5"/>
<text text-anchor="middle" x="3914" y="-127.5" font-family="FreeSans" font-size="10.00" fill="#000000">g4main/PHG4VtxPoint.h</text>
</a>
</g>
</g>
<!-- Node1&#45;&gt;Node39 -->
<g id="edge131" class="edge">
<title>Node1&#45;&gt;Node39</title>
<path fill="none" stroke="#191970" d="M2208.5284,-513.2037C2557.3741,-508.5903 3655.1231,-491.3236 3722,-456 3844.8826,-391.0948 3895.8611,-210.7572 3909.7976,-150.4409"/>
<polygon fill="#191970" stroke="#191970" points="3913.225,-151.1513 3911.9778,-140.6302 3906.3917,-149.6328 3913.225,-151.1513"/>
</g>
<!-- Node40 -->
<g id="node40" class="node">
<title>Node40</title>
<g id="a_node40"><a xlink:href="../../d4/da1/PHG4CylinderCellGeom_8h.html" target="_top" xlink:title="g4detectors/PHG4Cylinder\lCellGeom.h">
<polygon fill="none" stroke="#ff0000" points="3345.5,-309.5 3345.5,-341.5 3496.5,-341.5 3496.5,-309.5 3345.5,-309.5"/>
<text text-anchor="start" x="3353.5" y="-328.5" font-family="FreeSans" font-size="10.00" fill="#000000">g4detectors/PHG4Cylinder</text>
<text text-anchor="middle" x="3421" y="-316.5" font-family="FreeSans" font-size="10.00" fill="#000000">CellGeom.h</text>
</a>
</g>
</g>
<!-- Node1&#45;&gt;Node40 -->
<g id="edge134" class="edge">
<title>Node1&#45;&gt;Node40</title>
<path fill="none" stroke="#191970" d="M2208.6013,-512.0095C2497.4429,-504.8603 3282.3504,-483.042 3331,-456 3372.2793,-433.0548 3398.6575,-382.2336 3411.5636,-351.2179"/>
<polygon fill="#191970" stroke="#191970" points="3414.9746,-352.1129 3415.4261,-341.5277 3408.4721,-349.521 3414.9746,-352.1129"/>
</g>
<!-- Node41 -->
<g id="node41" class="node">
<title>Node41</title>
<g id="a_node41"><a xlink:href="../../d4/d90/PHG4CylinderCellGeomContainer_8h.html" target="_top" xlink:title="g4detectors/PHG4Cylinder\lCellGeomContainer.h">
<polygon fill="none" stroke="#ff0000" points="2809.5,-114.5 2809.5,-146.5 2960.5,-146.5 2960.5,-114.5 2809.5,-114.5"/>
<text text-anchor="start" x="2817.5" y="-133.5" font-family="FreeSans" font-size="10.00" fill="#000000">g4detectors/PHG4Cylinder</text>
<text text-anchor="middle" x="2885" y="-121.5" font-family="FreeSans" font-size="10.00" fill="#000000">CellGeomContainer.h</text>
</a>
</g>
</g>
<!-- Node1&#45;&gt;Node41 -->
<g id="edge139" class="edge">
<title>Node1&#45;&gt;Node41</title>
<path fill="none" stroke="#191970" d="M2208.5528,-510.0164C2389.4573,-501.6775 2744.2553,-482.221 2795,-456 2829.8837,-437.9748 2852,-427.7655 2852,-388.5 2852,-388.5 2852,-388.5 2852,-262.5 2852,-224.7547 2864.8567,-182.7022 2874.5203,-156.4248"/>
<polygon fill="#191970" stroke="#191970" points="2877.8816,-157.4323 2878.1624,-146.8412 2871.3382,-154.9456 2877.8816,-157.4323"/>
</g>
<!-- Node42 -->
<g id="node42" class="node">
<title>Node42</title>
<g id="a_node42"><a xlink:href="../../da/dc1/Fun4AllReturnCodes_8h.html" target="_top" xlink:title="fun4all/Fun4AllReturnCodes.h">
<polygon fill="none" stroke="#000000" points="3817,-435.5 3817,-455.5 3983,-455.5 3983,-435.5 3817,-435.5"/>
<text text-anchor="middle" x="3900" y="-442.5" font-family="FreeSans" font-size="10.00" fill="#000000">fun4all/Fun4AllReturnCodes.h</text>
</a>
</g>
</g>
<!-- Node1&#45;&gt;Node42 -->
<g id="edge143" class="edge">
<title>Node1&#45;&gt;Node42</title>
<path fill="none" stroke="#191970" d="M2208.5803,-513.5598C2475.8174,-510.595 3200.6101,-498.91 3803,-456 3804.283,-455.9086 3805.5753,-455.8134 3806.8751,-455.7147"/>
<polygon fill="#191970" stroke="#191970" points="3807.2772,-459.1936 3816.9604,-454.8942 3806.7095,-452.2167 3807.2772,-459.1936"/>
</g>
<!-- Node43 -->
<g id="node43" class="node">
<title>Node43</title>
<g id="a_node43"><a xlink:href="../../dc/d26/PHTimer_8h.html" target="_top" xlink:title="high precision timer">
<polygon fill="none" stroke="#ff0000" points="2207.5,-315.5 2207.5,-335.5 2306.5,-335.5 2306.5,-315.5 2207.5,-315.5"/>
<text text-anchor="middle" x="2257" y="-322.5" font-family="FreeSans" font-size="10.00" fill="#000000">phool/PHTimer.h</text>
</a>
</g>
</g>
<!-- Node1&#45;&gt;Node43 -->
<g id="edge145" class="edge">
<title>Node1&#45;&gt;Node43</title>
<path fill="none" stroke="#191970" d="M2146.9122,-492.4599C2162.8811,-482.8787 2180.1449,-470.5044 2193,-456 2222.6994,-422.4902 2241.9756,-372.7359 2251.0092,-345.3565"/>
<polygon fill="#191970" stroke="#191970" points="2254.3764,-346.3166 2254.0655,-335.7263 2247.7044,-344.199 2254.3764,-346.3166"/>
</g>
<!-- Node44 -->
<g id="node44" class="node">
<title>Node44</title>
<g id="a_node44"><a xlink:href="../../dd/dd4/getClass_8h.html" target="_top" xlink:title="phool/getClass.h">
<polygon fill="none" stroke="#ff0000" points="1471,-378.5 1471,-398.5 1571,-398.5 1571,-378.5 1471,-378.5"/>
<text text-anchor="middle" x="1521" y="-385.5" font-family="FreeSans" font-size="10.00" fill="#000000">phool/getClass.h</text>
</a>
</g>
</g>
<!-- Node1&#45;&gt;Node44 -->
<g id="edge148" class="edge">
<title>Node1&#45;&gt;Node44</title>
<path fill="none" stroke="#191970" d="M1997.3066,-508.9465C1908.3074,-502.2205 1778.3892,-487.567 1669,-456 1624.6326,-443.1967 1576.562,-419.2105 1547.62,-403.5507"/>
<polygon fill="#191970" stroke="#191970" points="1549.022,-400.3279 1538.5711,-398.5874 1545.6556,-406.4653 1549.022,-400.3279"/>
</g>
<!-- Node45 -->
<g id="node45" class="node">
<title>Node45</title>
<g id="a_node45"><a xlink:href="../../d5/d6f/phool_8h.html" target="_top" xlink:title="phool.h">
<polygon fill="none" stroke="#000000" points="4041,-252.5 4041,-272.5 4095,-272.5 4095,-252.5 4041,-252.5"/>
<text text-anchor="middle" x="4068" y="-259.5" font-family="FreeSans" font-size="10.00" fill="#000000">phool.h</text>
</a>
</g>
</g>
<!-- Node1&#45;&gt;Node45 -->
<g id="edge150" class="edge">
<title>Node1&#45;&gt;Node45</title>
<path fill="none" stroke="#191970" d="M2208.6141,-513.0275C2605.8862,-507.2703 3989.766,-485.1557 4025,-456 4076.7512,-413.1766 4074.5836,-323.1638 4070.6339,-282.8179"/>
<polygon fill="#191970" stroke="#191970" points="4074.0834,-282.1717 4069.4891,-272.6249 4067.1271,-282.953 4074.0834,-282.1717"/>
</g>
<!-- Node46 -->
<g id="node46" class="node">
<title>Node46</title>
<g id="a_node46"><a xlink:href="../../d2/dcb/recoConsts_8h.html" target="_top" xlink:title="phool/recoConsts.h">
<polygon fill="none" stroke="#ff0000" points="4115.5,-435.5 4115.5,-455.5 4228.5,-455.5 4228.5,-435.5 4115.5,-435.5"/>
<text text-anchor="middle" x="4172" y="-442.5" font-family="FreeSans" font-size="10.00" fill="#000000">phool/recoConsts.h</text>
</a>
</g>
</g>
<!-- Node1&#45;&gt;Node46 -->
<g id="edge152" class="edge">
<title>Node1&#45;&gt;Node46</title>
<path fill="none" stroke="#191970" d="M2208.6078,-513.0486C2565.9742,-507.8798 3728.3144,-488.8989 4101,-456 4102.4739,-455.8699 4103.9639,-455.7293 4105.4653,-455.5794"/>
<polygon fill="#191970" stroke="#191970" points="4105.9359,-459.0487 4115.4897,-454.4688 4105.1651,-452.0913 4105.9359,-459.0487"/>
</g>
<!-- Node47 -->
<g id="node47" class="node">
<title>Node47</title>
<polygon fill="none" stroke="#bfbfbf" points="4247,-435.5 4247,-455.5 4297,-455.5 4297,-435.5 4247,-435.5"/>
<text text-anchor="middle" x="4272" y="-442.5" font-family="FreeSans" font-size="10.00" fill="#000000">TFile.h</text>
</g>
<!-- Node1&#45;&gt;Node47 -->
<g id="edge153" class="edge">
<title>Node1&#45;&gt;Node47</title>
<path fill="none" stroke="#191970" d="M2208.5843,-513.2909C2605.2612,-508.5208 3995.6765,-489.6762 4236.9411,-455.6049"/>
<polygon fill="#191970" stroke="#191970" points="4237.5771,-459.0484 4246.9322,-454.0753 4236.5177,-452.129 4237.5771,-459.0484"/>
</g>
<!-- Node48 -->
<g id="node48" class="node">
<title>Node48</title>
<polygon fill="none" stroke="#bfbfbf" points="4315,-435.5 4315,-455.5 4381,-455.5 4381,-435.5 4315,-435.5"/>
<text text-anchor="middle" x="4348" y="-442.5" font-family="FreeSans" font-size="10.00" fill="#000000">TNtuple.h</text>
</g>
<!-- Node1&#45;&gt;Node48 -->
<g id="edge154" class="edge">
<title>Node1&#45;&gt;Node48</title>
<path fill="none" stroke="#191970" d="M2208.7234,-513.0494C2613.733,-507.3094 4055.8065,-485.1297 4304.6788,-455.8018"/>
<polygon fill="#191970" stroke="#191970" points="4305.1788,-459.2665 4314.6577,-454.5337 4304.2962,-452.3224 4305.1788,-459.2665"/>
</g>
<!-- Node49 -->
<g id="node49" class="node">
<title>Node49</title>
<polygon fill="none" stroke="#bfbfbf" points="4399.5,-435.5 4399.5,-455.5 4470.5,-455.5 4470.5,-435.5 4399.5,-435.5"/>
<text text-anchor="middle" x="4435" y="-442.5" font-family="FreeSans" font-size="10.00" fill="#000000">TVector3.h</text>
</g>
<!-- Node1&#45;&gt;Node49 -->
<g id="edge155" class="edge">
<title>Node1&#45;&gt;Node49</title>
<path fill="none" stroke="#191970" d="M2208.7766,-513.0621C2623.8292,-507.2491 4130.602,-484.4847 4389.2293,-455.7311"/>
<polygon fill="#191970" stroke="#191970" points="4389.7446,-459.1945 4399.2584,-454.532 4388.9135,-452.244 4389.7446,-459.1945"/>
</g>
<!-- Node50 -->
<g id="node50" class="node">
<title>Node50</title>
<polygon fill="none" stroke="#bfbfbf" points="4488.5,-435.5 4488.5,-455.5 4545.5,-455.5 4545.5,-435.5 4488.5,-435.5"/>
<text text-anchor="middle" x="4517" y="-442.5" font-family="FreeSans" font-size="10.00" fill="#000000">iomanip</text>
</g>
<!-- Node1&#45;&gt;Node50 -->
<g id="edge158" class="edge">
<title>Node1&#45;&gt;Node50</title>
<path fill="none" stroke="#191970" d="M2208.562,-513.4671C2633.9083,-509.0945 4211.637,-490.7781 4478.4863,-455.7749"/>
<polygon fill="#191970" stroke="#191970" points="4479.062,-459.2284 4488.4736,-454.363 4478.0821,-452.2973 4479.062,-459.2284"/>
</g>
<!-- Node2&#45;&gt;Node3 -->
<g id="edge2" class="edge">
<title>Node2&#45;&gt;Node3</title>
<path fill="none" stroke="#191970" d="M1737.5146,-435.3095C1747.8669,-426.8798 1762.7706,-414.7439 1774.8087,-404.9415"/>
<polygon fill="#191970" stroke="#191970" points="1777.0494,-407.6306 1782.5937,-398.6022 1772.6294,-402.2025 1777.0494,-407.6306"/>
</g>
<!-- Node4 -->
<g id="node4" class="node">
<title>Node4</title>
<polygon fill="none" stroke="#bfbfbf" points="1708.5,-252.5 1708.5,-272.5 1753.5,-272.5 1753.5,-252.5 1708.5,-252.5"/>
<text text-anchor="middle" x="1731" y="-259.5" font-family="FreeSans" font-size="10.00" fill="#000000">string</text>
</g>
<!-- Node2&#45;&gt;Node4 -->
<g id="edge4" class="edge">
<title>Node2&#45;&gt;Node4</title>
<path fill="none" stroke="#191970" d="M1724.7139,-435.1586C1724.4684,-425.736 1724.1337,-411.4344 1724,-399 1723.8997,-389.6672 1723.7176,-387.3291 1724,-378 1725.0089,-344.6756 1727.6516,-306.017 1729.3858,-282.9458"/>
<polygon fill="#191970" stroke="#191970" points="1732.8975,-282.9268 1730.1747,-272.6878 1725.9181,-282.39 1732.8975,-282.9268"/>
</g>
<!-- Node5 -->
<g id="node5" class="node">
<title>Node5</title>
<polygon fill="none" stroke="#bfbfbf" points="1589,-378.5 1589,-398.5 1677,-398.5 1677,-378.5 1589,-378.5"/>
<text text-anchor="middle" x="1633" y="-385.5" font-family="FreeSans" font-size="10.00" fill="#000000">TMatrixFfwd.h</text>
</g>
<!-- Node2&#45;&gt;Node5 -->
<g id="edge5" class="edge">
<title>Node2&#45;&gt;Node5</title>
<path fill="none" stroke="#191970" d="M1708.5522,-435.3095C1694.5538,-426.6366 1674.2235,-414.0407 1658.1776,-404.0992"/>
<polygon fill="#191970" stroke="#191970" points="1659.6494,-400.8938 1649.3054,-398.6022 1655.9627,-406.8442 1659.6494,-400.8938"/>
</g>
<!-- Node3&#45;&gt;Node4 -->
<g id="edge3" class="edge">
<title>Node3&#45;&gt;Node4</title>
<path fill="none" stroke="#191970" d="M1789.7626,-378.1889C1779.068,-357.1339 1754.5719,-308.9071 1740.8229,-281.8389"/>
<polygon fill="#191970" stroke="#191970" points="1743.7801,-279.9322 1736.1309,-272.6014 1737.5391,-283.1023 1743.7801,-279.9322"/>
</g>
<!-- Node6&#45;&gt;Node4 -->
<g id="edge44" class="edge">
<title>Node6&#45;&gt;Node4</title>
<path fill="none" stroke="#191970" d="M1406.6301,-435.2951C1417.6445,-421.0825 1439.1938,-395.1471 1462,-378 1537.4067,-321.3048 1644.8902,-286.1027 1698.2865,-271.0329"/>
<polygon fill="#191970" stroke="#191970" points="1699.5133,-274.3251 1708.2191,-268.287 1697.648,-267.5782 1699.5133,-274.3251"/>
</g>
<!-- Node6&#45;&gt;Node7 -->
<g id="edge7" class="edge">
<title>Node6&#45;&gt;Node7</title>
<path fill="none" stroke="#191970" d="M1364.5868,-435.4408C1332.2448,-425.9869 1283.6726,-411.7889 1248.4188,-401.484"/>
<polygon fill="#191970" stroke="#191970" points="1248.977,-398.0007 1238.3966,-398.5544 1247.0129,-404.7195 1248.977,-398.0007"/>
</g>
<!-- Node7&#45;&gt;Node4 -->
<g id="edge42" class="edge">
<title>Node7&#45;&gt;Node4</title>
<path fill="none" stroke="#191970" d="M1227.8502,-378.4022C1268.4403,-361.5987 1353.8637,-327.8822 1429,-309 1525.4256,-284.7677 1642.5311,-271.0934 1698.3534,-265.5061"/>
<polygon fill="#191970" stroke="#191970" points="1698.7497,-268.9842 1708.3609,-264.526 1698.0673,-262.0175 1698.7497,-268.9842"/>
</g>
<!-- Node7&#45;&gt;Node8 -->
<g id="edge8" class="edge">
<title>Node7&#45;&gt;Node8</title>
<path fill="none" stroke="#191970" d="M1191.6286,-378.378C1179.7293,-368.6421 1161.5248,-353.7475 1147.4655,-342.2445"/>
<polygon fill="#191970" stroke="#191970" points="1149.2966,-339.2205 1139.3407,-335.5969 1144.8639,-344.6382 1149.2966,-339.2205"/>
</g>
<!-- Node7&#45;&gt;Node14 -->
<g id="edge40" class="edge">
<title>Node7&#45;&gt;Node14</title>
<path fill="none" stroke="#191970" d="M1203.8651,-378.3742C1203.5922,-356.9786 1203,-305.5951 1203,-262.5 1203,-262.5 1203,-262.5 1203,-199.5 1203,-160.0313 1201.435,-144.0701 1227,-114 1245.1751,-92.6221 1275.3137,-80.4814 1297.7616,-74.008"/>
<polygon fill="#191970" stroke="#191970" points="1298.7037,-77.3791 1307.4636,-71.4197 1296.8993,-70.6157 1298.7037,-77.3791"/>
</g>
<!-- Node7&#45;&gt;Node15 -->
<g id="edge41" class="edge">
<title>Node7&#45;&gt;Node15</title>
<path fill="none" stroke="#191970" d="M1152.7305,-380.2879C1072.6343,-366.1257 914.3276,-332.7222 792,-273 707.1669,-231.5832 663.5759,-231.2573 621,-147 614.3853,-133.9096 613.4299,-126.562 621,-114 624.6021,-108.0225 658.7041,-91.0707 683.3761,-79.3763"/>
<polygon fill="#191970" stroke="#191970" points="685.0489,-82.4575 692.6094,-75.0352 682.0705,-76.1227 685.0489,-82.4575"/>
</g>
<!-- Node7&#45;&gt;Node18 -->
<g id="edge43" class="edge">
<title>Node7&#45;&gt;Node18</title>
<path fill="none" stroke="#191970" d="M1255.3488,-384.011C1505.2213,-361.6608 2585.8328,-258.9915 2681,-147 2695.2421,-130.2401 2686.7609,-104.1518 2678.0645,-86.4711"/>
<polygon fill="#191970" stroke="#191970" points="2681.1438,-84.8072 2673.354,-77.626 2674.9654,-88.0976 2681.1438,-84.8072"/>
</g>
<!-- Node8&#45;&gt;Node4 -->
<g id="edge38" class="edge">
<title>Node8&#45;&gt;Node4</title>
<path fill="none" stroke="#191970" d="M1175.1917,-316.9241C1191.8794,-314.1415 1210.7285,-311.2064 1228,-309 1404.9145,-286.3996 1618.1809,-270.3616 1698.3938,-264.7224"/>
<polygon fill="#191970" stroke="#191970" points="1698.6458,-268.2134 1708.3781,-264.026 1698.1588,-261.2303 1698.6458,-268.2134"/>
</g>
<!-- Node8&#45;&gt;Node9 -->
<g id="edge9" class="edge">
<title>Node8&#45;&gt;Node9</title>
<path fill="none" stroke="#191970" d="M1083.4405,-315.4478C1035.5977,-304.4072 958.7455,-286.672 907.3318,-274.8073"/>
<polygon fill="#191970" stroke="#191970" points="907.9353,-271.3547 897.4044,-272.5164 906.3613,-278.1754 907.9353,-271.3547"/>
</g>
<!-- Node8&#45;&gt;Node12 -->
<g id="edge35" class="edge">
<title>Node8&#45;&gt;Node12</title>
<path fill="none" stroke="#191970" d="M1175.3305,-319.8334C1266.8256,-308.0665 1470.6263,-276.8622 1632,-216 1691.0114,-193.7438 1708.2554,-188.2084 1756,-147 1776.5573,-129.257 1794.7242,-103.5944 1805.7728,-86.2666"/>
<polygon fill="#191970" stroke="#191970" points="1808.8513,-87.9436 1811.1486,-77.6008 1802.9029,-84.2535 1808.8513,-87.9436"/>
</g>
<!-- Node8&#45;&gt;Node14 -->
<g id="edge36" class="edge">
<title>Node8&#45;&gt;Node14</title>
<path fill="none" stroke="#191970" d="M1126.8775,-315.0572C1127.0584,-281.168 1132.2639,-173.0435 1189,-114 1204.1064,-98.2792 1261.4972,-82.6347 1297.3391,-74.0995"/>
<polygon fill="#191970" stroke="#191970" points="1298.3175,-77.4653 1307.2618,-71.7865 1296.7283,-70.6481 1298.3175,-77.4653"/>
</g>
<!-- Node8&#45;&gt;Node15 -->
<g id="edge37" class="edge">
<title>Node8&#45;&gt;Node15</title>
<path fill="none" stroke="#191970" d="M1114.8924,-315.3741C1092.6096,-296.5599 1043.9161,-254.609 1006,-216 984.9221,-194.537 942.8534,-129.3798 917,-114 886.3264,-95.7528 783.7694,-78.6013 735.0831,-71.2558"/>
<polygon fill="#191970" stroke="#191970" points="735.4211,-67.7677 725.0155,-69.7612 734.3931,-74.6918 735.4211,-67.7677"/>
</g>
<!-- Node8&#45;&gt;Node18 -->
<g id="edge39" class="edge">
<title>Node8&#45;&gt;Node18</title>
<path fill="none" stroke="#191970" d="M1175.1694,-323.0134C1303.3218,-316.1601 1650.5145,-295.9779 1763,-273 1887.345,-247.5995 1909.3471,-206.8438 2034,-183 2102.5388,-169.8898 2611.2156,-195.8974 2661,-147 2676.3643,-131.9094 2675.2689,-105.7958 2672.046,-87.6324"/>
<polygon fill="#191970" stroke="#191970" points="2675.4508,-86.8162 2669.9518,-77.7602 2668.6032,-88.2688 2675.4508,-86.8162"/>
</g>
<!-- Node9&#45;&gt;Node10 -->
<g id="edge10" class="edge">
<title>Node9&#45;&gt;Node10</title>
<path fill="none" stroke="#191970" d="M886.6155,-252.378C921.39,-241.5859 976.5895,-224.455 1014.6882,-212.6312"/>
<polygon fill="#191970" stroke="#191970" points="1015.9523,-215.9037 1024.4655,-209.5969 1013.8774,-209.2183 1015.9523,-215.9037"/>
</g>
<!-- Node9&#45;&gt;Node12 -->
<g id="edge22" class="edge">
<title>Node9&#45;&gt;Node12</title>
<path fill="none" stroke="#191970" d="M906.7108,-260.2245C1061.8421,-253.3695 1509.9475,-232.3809 1574,-216 1644.3123,-198.0182 1660.7634,-185.9517 1722,-147 1737.5959,-137.0797 1775.0781,-104.6394 1798.0243,-84.3936"/>
<polygon fill="#191970" stroke="#191970" points="1800.5861,-86.8001 1805.7531,-77.5506 1795.9458,-81.5591 1800.5861,-86.8001"/>
</g>
<!-- Node9&#45;&gt;Node14 -->
<g id="edge31" class="edge">
<title>Node9&#45;&gt;Node14</title>
<path fill="none" stroke="#191970" d="M865.7026,-252.254C897.5076,-224.9996 989.1858,-150.3278 1079,-114 1153.7849,-83.7512 1249.3093,-72.9592 1297.0358,-69.2842"/>
<polygon fill="#191970" stroke="#191970" points="1297.5622,-72.7555 1307.2863,-68.5492 1297.0615,-65.7735 1297.5622,-72.7555"/>
</g>
<!-- Node9&#45;&gt;Node15 -->
<g id="edge33" class="edge">
<title>Node9&#45;&gt;Node15</title>
<path fill="none" stroke="#191970" d="M801.4943,-253.0888C745.7139,-239.9849 660.2734,-210.302 621,-147 613.2678,-134.5371 613.4299,-126.562 621,-114 624.6021,-108.0225 658.7041,-91.0707 683.3761,-79.3763"/>
<polygon fill="#191970" stroke="#191970" points="685.0489,-82.4575 692.6094,-75.0352 682.0705,-76.1227 685.0489,-82.4575"/>
</g>
<!-- Node9&#45;&gt;Node17 -->
<g id="edge32" class="edge">
<title>Node9&#45;&gt;Node17</title>
<path fill="none" stroke="#191970" d="M801.1785,-259.8775C674.4797,-252.3557 359.1981,-225.924 297,-147 287.9218,-135.4806 287.3382,-125.0345 297,-114 317.1936,-90.9374 520.0242,-75.4668 606.8728,-69.8506"/>
<polygon fill="#191970" stroke="#191970" points="607.1115,-73.3426 616.8691,-69.2147 606.667,-66.3567 607.1115,-73.3426"/>
</g>
<!-- Node9&#45;&gt;Node18 -->
<g id="edge34" class="edge">
<title>Node9&#45;&gt;Node18</title>
<path fill="none" stroke="#191970" d="M906.927,-260.6344C1032.8143,-255.914 1359.9108,-241.9844 1632,-216 1744.006,-205.3035 1770.9322,-193.0285 1883,-183 1966.4289,-175.5343 2567.9928,-195.8992 2636,-147 2654.9142,-133.4001 2662.2887,-106.5105 2665.1637,-87.7898"/>
<polygon fill="#191970" stroke="#191970" points="2668.6666,-87.9796 2666.4126,-77.6273 2661.7189,-87.1256 2668.6666,-87.9796"/>
</g>
<!-- Node9&#45;&gt;Node19 -->
<g id="edge23" class="edge">
<title>Node9&#45;&gt;Node19</title>
<path fill="none" stroke="#191970" d="M851.8029,-252.1422C847.1821,-230.3584 836.3858,-179.4618 830.3248,-150.8882"/>
<polygon fill="#191970" stroke="#191970" points="833.6858,-149.8658 828.1869,-140.8097 826.8382,-151.3183 833.6858,-149.8658"/>
</g>
<!-- Node9&#45;&gt;Node20 -->
<g id="edge29" class="edge">
<title>Node9&#45;&gt;Node20</title>
<path fill="none" stroke="#191970" d="M819.6555,-252.4702C738.6376,-228.8101 535.6808,-169.5395 445.8996,-143.3202"/>
<polygon fill="#191970" stroke="#191970" points="446.8724,-139.9582 436.2922,-140.5145 444.9101,-146.6775 446.8724,-139.9582"/>
</g>
<!-- Node10&#45;&gt;Node11 -->
<g id="edge11" class="edge">
<title>Node10&#45;&gt;Node11</title>
<path fill="none" stroke="#191970" d="M1014.8641,-194.3678C952.8897,-186.4327 833.7111,-169.6989 734,-147 729.2471,-145.918 724.3035,-144.6602 719.4087,-143.3309"/>
<polygon fill="#191970" stroke="#191970" points="720.0815,-139.884 709.5067,-140.5351 718.1794,-146.6207 720.0815,-139.884"/>
</g>
<!-- Node10&#45;&gt;Node12 -->
<g id="edge18" class="edge">
<title>Node10&#45;&gt;Node12</title>
<path fill="none" stroke="#191970" d="M1083.4733,-189.4235C1132.505,-171.2053 1241.1067,-132.9268 1336,-114 1480.1329,-85.2522 1652.2447,-74.0742 1746.5488,-69.8816"/>
<polygon fill="#191970" stroke="#191970" points="1746.9808,-73.3664 1756.8208,-69.439 1746.6794,-66.3729 1746.9808,-73.3664"/>
</g>
<!-- Node10&#45;&gt;Node14 -->
<g id="edge19" class="edge">
<title>Node10&#45;&gt;Node14</title>
<path fill="none" stroke="#191970" d="M1060.5965,-189.4773C1067.6466,-171.3466 1085.0751,-133.205 1113,-114 1142.6848,-93.5846 1245.7025,-77.9119 1297.2057,-71.1486"/>
<polygon fill="#191970" stroke="#191970" points="1297.897,-74.5886 1307.3692,-69.8421 1297.0045,-67.6458 1297.897,-74.5886"/>
</g>
<!-- Node10&#45;&gt;Node15 -->
<g id="edge20" class="edge">
<title>Node10&#45;&gt;Node15</title>
<path fill="none" stroke="#191970" d="M1047.8923,-189.4379C1030.8087,-171.2432 991.9662,-133.0014 951,-114 877.8567,-80.074 781.2531,-70.8981 735.3713,-68.4178"/>
<polygon fill="#191970" stroke="#191970" points="735.2527,-64.9083 725.0981,-67.9307 734.9211,-71.9005 735.2527,-64.9083"/>
</g>
<!-- Node10&#45;&gt;Node18 -->
<g id="edge21" class="edge">
<title>Node10&#45;&gt;Node18</title>
<path fill="none" stroke="#191970" d="M1099.3346,-195.3932C1140.369,-191.57 1204.3911,-186.0207 1260,-183 1332.809,-179.045 2505.0232,-175.8252 2572,-147 2591.0523,-138.8004 2589.3305,-127.5901 2605,-114 2617.4325,-103.2174 2632.1381,-92.1234 2644.1066,-83.477"/>
<polygon fill="#191970" stroke="#191970" points="2646.1601,-86.3114 2652.2662,-77.6531 2642.0934,-80.6138 2646.1601,-86.3114"/>
</g>
<!-- Node11&#45;&gt;Node12 -->
<g id="edge12" class="edge">
<title>Node11&#45;&gt;Node12</title>
<path fill="none" stroke="#191970" d="M707.0406,-120.4846C715.6219,-117.9241 725.1015,-115.4792 734,-114 833.246,-97.5025 1522.3393,-76.1212 1746.6259,-69.5259"/>
<polygon fill="#191970" stroke="#191970" points="1746.741,-73.0241 1756.6341,-69.2324 1746.5357,-66.0272 1746.741,-73.0241"/>
</g>
<!-- Node11&#45;&gt;Node14 -->
<g id="edge14" class="edge">
<title>Node11&#45;&gt;Node14</title>
<path fill="none" stroke="#191970" d="M707.9466,-120.4268C716.2956,-117.9619 725.4281,-115.581 734,-114 844.0985,-93.6929 1193.0973,-74.4273 1297.3275,-69.0067"/>
<polygon fill="#191970" stroke="#191970" points="1297.6462,-72.495 1307.4523,-68.4838 1297.2851,-65.5043 1297.6462,-72.495"/>
</g>
<!-- Node11&#45;&gt;Node15 -->
<g id="edge15" class="edge">
<title>Node11&#45;&gt;Node15</title>
<path fill="none" stroke="#191970" d="M682.9807,-120.378C687.3836,-111.4302 693.9306,-98.125 699.3556,-87.0999"/>
<polygon fill="#191970" stroke="#191970" points="702.654,-88.3241 703.9287,-77.8062 696.3732,-85.2335 702.654,-88.3241"/>
</g>
<!-- Node11&#45;&gt;Node16 -->
<g id="edge16" class="edge">
<title>Node11&#45;&gt;Node16</title>
<path fill="none" stroke="#191970" d="M643.9385,-120.378C604.5302,-108.667 540.0043,-89.4918 500.4372,-77.7337"/>
<polygon fill="#191970" stroke="#191970" points="501.2875,-74.3352 490.7047,-74.8415 499.2934,-81.0451 501.2875,-74.3352"/>
</g>
<!-- Node11&#45;&gt;Node17 -->
<g id="edge17" class="edge">
<title>Node11&#45;&gt;Node17</title>
<path fill="none" stroke="#191970" d="M672.8586,-120.378C668.2674,-111.3389 661.4174,-97.853 655.7844,-86.7631"/>
<polygon fill="#191970" stroke="#191970" points="658.8841,-85.137 651.2349,-77.8062 652.6431,-88.3071 658.8841,-85.137"/>
</g>
<!-- Node12&#45;&gt;Node13 -->
<g id="edge13" class="edge">
<title>Node12&#45;&gt;Node13</title>
<path fill="none" stroke="#191970" d="M1877.1398,-63.8259C2052.6863,-53.1012 2561.3288,-22.0265 2709.2197,-12.9914"/>
<polygon fill="#191970" stroke="#191970" points="2709.8661,-16.4585 2719.634,-12.3552 2709.4391,-9.4716 2709.8661,-16.4585"/>
</g>
<!-- Node19&#45;&gt;Node12 -->
<g id="edge24" class="edge">
<title>Node19&#45;&gt;Node12</title>
<path fill="none" stroke="#191970" d="M908.7876,-125.237C1099.8759,-113.0891 1568.943,-83.2695 1746.9465,-71.9535"/>
<polygon fill="#191970" stroke="#191970" points="1747.2221,-75.4431 1756.9798,-71.3156 1746.7779,-68.4572 1747.2221,-75.4431"/>
</g>
<!-- Node19&#45;&gt;Node14 -->
<g id="edge25" class="edge">
<title>Node19&#45;&gt;Node14</title>
<path fill="none" stroke="#191970" d="M905.6618,-120.4827C1018.815,-106.2538 1220.7928,-80.8554 1296.887,-71.2867"/>
<polygon fill="#191970" stroke="#191970" points="1297.6899,-74.7133 1307.1751,-69.993 1296.8165,-67.768 1297.6899,-74.7133"/>
</g>
<!-- Node19&#45;&gt;Node15 -->
<g id="edge27" class="edge">
<title>Node19&#45;&gt;Node15</title>
<path fill="none" stroke="#191970" d="M807.2019,-120.378C787.3952,-109.7128 756.0915,-92.857 734.1653,-81.0505"/>
<polygon fill="#191970" stroke="#191970" points="735.5789,-77.8366 725.1149,-76.1772 732.2602,-83.9999 735.5789,-77.8366"/>
</g>
<!-- Node19&#45;&gt;Node16 -->
<g id="edge28" class="edge">
<title>Node19&#45;&gt;Node16</title>
<path fill="none" stroke="#191970" d="M770.0597,-120.415C758.1591,-118.2841 745.6656,-116.0581 734,-114 650.2483,-99.224 551.7014,-82.2249 500.624,-73.4431"/>
<polygon fill="#191970" stroke="#191970" points="501.212,-69.9929 490.7636,-71.7484 500.0263,-76.8917 501.212,-69.9929"/>
</g>
<!-- Node19&#45;&gt;Node17 -->
<g id="edge26" class="edge">
<title>Node19&#45;&gt;Node17</title>
<path fill="none" stroke="#191970" d="M797.0799,-120.378C766.5078,-109.6777 718.1318,-92.7461 684.3836,-80.9343"/>
<polygon fill="#191970" stroke="#191970" points="685.4432,-77.597 674.8483,-77.5969 683.1307,-84.204 685.4432,-77.597"/>
</g>
<!-- Node20&#45;&gt;Node17 -->
<g id="edge30" class="edge">
<title>Node20&#45;&gt;Node17</title>
<path fill="none" stroke="#191970" d="M440.9323,-120.4478C486.4637,-108.6917 561.3919,-89.3455 606.9667,-77.5783"/>
<polygon fill="#191970" stroke="#191970" points="607.9707,-80.9339 616.7781,-75.045 606.2206,-74.1562 607.9707,-80.9339"/>
</g>
<!-- Node21&#45;&gt;Node12 -->
<g id="edge51" class="edge">
<title>Node21&#45;&gt;Node12</title>
<path fill="none" stroke="#191970" d="M3298.9455,-122.1881C3272.5641,-119.1546 3241.8831,-115.9846 3214,-114 2706.0861,-77.8485 2092.2432,-69.7202 1887.3597,-67.9642"/>
<polygon fill="#191970" stroke="#191970" points="1887.3643,-64.4642 1877.3354,-67.8806 1887.3058,-71.464 1887.3643,-64.4642"/>
</g>
<!-- Node21&#45;&gt;Node13 -->
<g id="edge53" class="edge">
<title>Node21&#45;&gt;Node13</title>
<path fill="none" stroke="#191970" d="M3357.7322,-120.4581C3345.0863,-103.8822 3317.2775,-71.2168 3285,-57 3240.1139,-37.2297 2907.5337,-18.5426 2790.554,-12.5163"/>
<polygon fill="#191970" stroke="#191970" points="2790.4095,-9.0045 2780.2438,-11.9893 2790.0521,-15.9953 2790.4095,-9.0045"/>
</g>
<!-- Node21&#45;&gt;Node17 -->
<g id="edge54" class="edge">
<title>Node21&#45;&gt;Node17</title>
<path fill="none" stroke="#191970" d="M3298.9637,-121.9145C3272.5847,-118.8434 3241.9007,-115.719 3214,-114 2936.5439,-96.9054 1006.3726,-117.2944 685.6036,-77.7629"/>
<polygon fill="#191970" stroke="#191970" points="685.6755,-74.2417 675.3013,-76.3925 684.7525,-81.1806 685.6755,-74.2417"/>
</g>
<!-- Node21&#45;&gt;Node22 -->
<g id="edge52" class="edge">
<title>Node21&#45;&gt;Node22</title>
<path fill="none" stroke="#191970" d="M3392.3134,-120.378C3421.9988,-109.3769 3469.4577,-91.7892 3501.4035,-79.9505"/>
<polygon fill="#191970" stroke="#191970" points="3502.6222,-83.2315 3510.7828,-76.4746 3500.1897,-76.6677 3502.6222,-83.2315"/>
</g>
<!-- Node23&#45;&gt;Node12 -->
<g id="edge56" class="edge">
<title>Node23&#45;&gt;Node12</title>
<path fill="none" stroke="#191970" d="M3677.3976,-126.9107C3618.4799,-123.2147 3522.717,-117.5133 3440,-114 2839.1482,-88.4793 2112.5583,-73.2001 1887.114,-68.8171"/>
<polygon fill="#191970" stroke="#191970" points="1887.1426,-65.3171 1877.0766,-68.6227 1887.007,-72.3157 1887.1426,-65.3171"/>
</g>
<!-- Node23&#45;&gt;Node13 -->
<g id="edge58" class="edge">
<title>Node23&#45;&gt;Node13</title>
<path fill="none" stroke="#191970" d="M3715.9218,-120.3719C3686.7627,-103.669 3624.9901,-70.8212 3568,-57 3417.7984,-20.5731 2933.161,-12.4826 2790.1089,-10.8692"/>
<polygon fill="#191970" stroke="#191970" points="2790.0589,-7.3685 2780.0216,-10.7599 2789.983,-14.3681 2790.0589,-7.3685"/>
</g>
<!-- Node23&#45;&gt;Node22 -->
<g id="edge57" class="edge">
<title>Node23&#45;&gt;Node22</title>
<path fill="none" stroke="#191970" d="M3701.1879,-120.378C3665.0161,-108.8688 3606.1868,-90.1504 3569.0935,-78.3479"/>
<polygon fill="#191970" stroke="#191970" points="3569.8351,-74.9111 3559.2446,-75.2142 3567.7126,-81.5815 3569.8351,-74.9111"/>
</g>
<!-- Node24&#45;&gt;Node12 -->
<g id="edge63" class="edge">
<title>Node24&#45;&gt;Node12</title>
<path fill="none" stroke="#191970" d="M2030.9792,-378.0559C2027.2338,-345.115 2011.4294,-242.0951 1956,-183 1929.0487,-154.2663 1905.6485,-171.7521 1875,-147 1854.1406,-130.1537 1837.0592,-104.085 1826.9629,-86.4323"/>
<polygon fill="#191970" stroke="#191970" points="1829.9874,-84.6689 1822.0928,-77.6031 1823.858,-88.0498 1829.9874,-84.6689"/>
</g>
<!-- Node25&#45;&gt;Node12 -->
<g id="edge65" class="edge">
<title>Node25&#45;&gt;Node12</title>
<path fill="none" stroke="#191970" d="M2219.3599,-120.4677C2205.793,-118.2457 2191.405,-115.9686 2178,-114 2077.0863,-99.1801 1959.9161,-84.5629 1887.1053,-75.7842"/>
<polygon fill="#191970" stroke="#191970" points="1887.4785,-72.3039 1877.1321,-74.5848 1886.6426,-79.2539 1887.4785,-72.3039"/>
</g>
<!-- Node25&#45;&gt;Node13 -->
<g id="edge67" class="edge">
<title>Node25&#45;&gt;Node13</title>
<path fill="none" stroke="#191970" d="M2317.4306,-120.4753C2406.1805,-97.9117 2620.8262,-43.3408 2710.0577,-20.6548"/>
<polygon fill="#191970" stroke="#191970" points="2710.9721,-24.0338 2719.8014,-18.1776 2709.2472,-17.2496 2710.9721,-24.0338"/>
</g>
<!-- Node25&#45;&gt;Node14 -->
<g id="edge66" class="edge">
<title>Node25&#45;&gt;Node14</title>
<path fill="none" stroke="#191970" d="M2223.914,-120.4711C2209.0752,-118.0216 2192.9551,-115.6375 2178,-114 1857.6928,-78.9291 1466.5215,-69.8765 1356.8356,-67.9549"/>
<polygon fill="#191970" stroke="#191970" points="1356.6025,-64.4506 1346.5449,-67.7814 1356.4844,-71.4496 1356.6025,-64.4506"/>
</g>
<!-- Node25&#45;&gt;Node18 -->
<g id="edge68" class="edge">
<title>Node25&#45;&gt;Node18</title>
<path fill="none" stroke="#191970" d="M2338.5424,-120.4706C2351.5573,-118.3257 2365.2354,-116.08 2378,-114 2470.8695,-98.867 2580.5803,-81.2996 2634.1895,-72.7355"/>
<polygon fill="#191970" stroke="#191970" points="2634.8188,-76.1794 2644.1417,-71.1461 2633.7149,-69.267 2634.8188,-76.1794"/>
</g>
<!-- Node26&#45;&gt;Node12 -->
<g id="edge70" class="edge">
<title>Node26&#45;&gt;Node12</title>
<path fill="none" stroke="#191970" d="M2061.008,-120.4871C2051.4485,-118.3308 2041.3882,-116.0762 2032,-114 1978.3796,-102.1419 1917.1605,-88.9338 1873.7977,-79.6337"/>
<polygon fill="#191970" stroke="#191970" points="1874.513,-76.2076 1864.0016,-77.534 1873.046,-83.0521 1874.513,-76.2076"/>
</g>
<!-- Node26&#45;&gt;Node13 -->
<g id="edge71" class="edge">
<title>Node26&#45;&gt;Node13</title>
<path fill="none" stroke="#191970" d="M2148.7741,-120.49C2158.6991,-118.2899 2169.2017,-116.0165 2179,-114 2377.5499,-73.1385 2616.7238,-32.5722 2710.0109,-17.0789"/>
<polygon fill="#191970" stroke="#191970" points="2710.5842,-20.5317 2719.8772,-15.4435 2709.4395,-13.6259 2710.5842,-20.5317"/>
</g>
<!-- Node26&#45;&gt;Node14 -->
<g id="edge72" class="edge">
<title>Node26&#45;&gt;Node14</title>
<path fill="none" stroke="#191970" d="M2065.8096,-120.4577C2054.9254,-117.9929 2043.0585,-115.6044 2032,-114 1772.2496,-76.3148 1454.1767,-69.1409 1356.7544,-67.8012"/>
<polygon fill="#191970" stroke="#191970" points="1356.7868,-64.3014 1346.743,-67.6738 1356.6976,-71.3009 1356.7868,-64.3014"/>
</g>
<!-- Node26&#45;&gt;Node18 -->
<g id="edge73" class="edge">
<title>Node26&#45;&gt;Node18</title>
<path fill="none" stroke="#191970" d="M2145.9246,-120.4218C2156.6374,-118.046 2168.2096,-115.7103 2179,-114 2348.7937,-87.0877 2554.4684,-73.6947 2633.6839,-69.2418"/>
<polygon fill="#191970" stroke="#191970" points="2634.2134,-72.718 2644.0053,-68.6724 2633.8277,-65.7287 2634.2134,-72.718"/>
</g>
<!-- Node27&#45;&gt;Node12 -->
<g id="edge75" class="edge">
<title>Node27&#45;&gt;Node12</title>
<path fill="none" stroke="#191970" d="M2420.9954,-120.4689C2407.0258,-118.1065 2391.9818,-115.7653 2378,-114 2202.2933,-91.8154 1994.2343,-77.7382 1887.6696,-71.4066"/>
<polygon fill="#191970" stroke="#191970" points="1887.5549,-67.8939 1877.3664,-70.7999 1887.1433,-74.8818 1887.5549,-67.8939"/>
</g>
<!-- Node27&#45;&gt;Node13 -->
<g id="edge76" class="edge">
<title>Node27&#45;&gt;Node13</title>
<path fill="none" stroke="#191970" d="M2496.2311,-120.4714C2526.9129,-106.0556 2585.5096,-78.8115 2636,-57 2662.3228,-45.6287 2692.3621,-33.4063 2714.9949,-24.3473"/>
<polygon fill="#191970" stroke="#191970" points="2716.5293,-27.5034 2724.5199,-20.5464 2713.9349,-21.0019 2716.5293,-27.5034"/>
</g>
<!-- Node27&#45;&gt;Node14 -->
<g id="edge77" class="edge">
<title>Node27&#45;&gt;Node14</title>
<path fill="none" stroke="#191970" d="M2423.3146,-120.4843C2408.7138,-117.9885 2392.7775,-115.5776 2378,-114 2172.0306,-92.0117 1505.9644,-72.4832 1356.8169,-68.3175"/>
<polygon fill="#191970" stroke="#191970" points="1356.6995,-64.813 1346.6061,-68.0338 1356.505,-71.8103 1356.6995,-64.813"/>
</g>
<!-- Node27&#45;&gt;Node18 -->
<g id="edge78" class="edge">
<title>Node27&#45;&gt;Node18</title>
<path fill="none" stroke="#191970" d="M2505.8481,-120.378C2541.2145,-108.7734 2598.9174,-89.8396 2634.8295,-78.056"/>
<polygon fill="#191970" stroke="#191970" points="2635.9337,-81.3773 2644.344,-74.934 2633.7512,-74.7262 2635.9337,-81.3773"/>
</g>
<!-- Node28&#45;&gt;Node12 -->
<g id="edge80" class="edge">
<title>Node28&#45;&gt;Node12</title>
<path fill="none" stroke="#191970" d="M1918.3296,-114.4394C1896.6273,-104.3862 1868.9078,-91.5455 1847.9485,-81.8364"/>
<polygon fill="#191970" stroke="#191970" points="1849.385,-78.6446 1838.8401,-77.6171 1846.4427,-84.9963 1849.385,-78.6446"/>
</g>
<!-- Node28&#45;&gt;Node13 -->
<g id="edge81" class="edge">
<title>Node28&#45;&gt;Node13</title>
<path fill="none" stroke="#191970" d="M2022.7605,-115.7922C2025.8812,-115.1776 2028.9721,-114.5775 2032,-114 2178.2028,-86.1142 2214.7269,-78.5293 2362,-57 2488.4266,-38.5182 2638.8269,-22.0631 2709.5036,-14.6553"/>
<polygon fill="#191970" stroke="#191970" points="2710.161,-18.1058 2719.7438,-13.5869 2709.4346,-11.1436 2710.161,-18.1058"/>
</g>
<!-- Node28&#45;&gt;Node14 -->
<g id="edge82" class="edge">
<title>Node28&#45;&gt;Node14</title>
<path fill="none" stroke="#191970" d="M1883.3139,-123.4869C1747.2192,-109.7904 1451.1395,-79.9933 1356.6275,-70.4817"/>
<polygon fill="#191970" stroke="#191970" points="1356.9193,-66.9935 1346.619,-69.4744 1356.2183,-73.9583 1356.9193,-66.9935"/>
</g>
<!-- Node28&#45;&gt;Node18 -->
<g id="edge83" class="edge">
<title>Node28&#45;&gt;Node18</title>
<path fill="none" stroke="#191970" d="M2022.6987,-115.4189C2025.8362,-114.9054 2028.9475,-114.4286 2032,-114 2261.25,-81.8107 2540.3877,-71.1679 2634.3617,-68.3609"/>
<polygon fill="#191970" stroke="#191970" points="2634.4939,-71.8586 2644.3884,-68.0705 2634.2912,-64.8616 2634.4939,-71.8586"/>
</g>
<!-- Node29&#45;&gt;Node12 -->
<g id="edge85" class="edge">
<title>Node29&#45;&gt;Node12</title>
<path fill="none" stroke="#191970" d="M1677.6718,-114.4394C1708.5501,-104.0366 1748.2877,-90.6491 1777.418,-80.8351"/>
<polygon fill="#191970" stroke="#191970" points="1778.8882,-84.0332 1787.2474,-77.5236 1776.6533,-77.3995 1778.8882,-84.0332"/>
</g>
<!-- Node29&#45;&gt;Node13 -->
<g id="edge86" class="edge">
<title>Node29&#45;&gt;Node13</title>
<path fill="none" stroke="#191970" d="M1648.9151,-114.3691C1671.0257,-96.6062 1709.515,-68.9776 1748,-57 1840.8305,-28.1087 2534.1639,-14.2386 2709.7049,-11.1676"/>
<polygon fill="#191970" stroke="#191970" points="2709.8673,-14.6654 2719.8052,-10.9929 2709.7461,-7.6665 2709.8673,-14.6654"/>
</g>
<!-- Node29&#45;&gt;Node14 -->
<g id="edge87" class="edge">
<title>Node29&#45;&gt;Node14</title>
<path fill="none" stroke="#191970" d="M1552.7563,-114.4394C1488.964,-101.1757 1401.8353,-83.0598 1356.7493,-73.6855"/>
<polygon fill="#191970" stroke="#191970" points="1357.2532,-70.2155 1346.7501,-71.6065 1355.8282,-77.0689 1357.2532,-70.2155"/>
</g>
<!-- Node29&#45;&gt;Node18 -->
<g id="edge88" class="edge">
<title>Node29&#45;&gt;Node18</title>
<path fill="none" stroke="#191970" d="M1713.0547,-124.7284C1760.4859,-121.477 1821.0721,-117.399 1875,-114 2169.373,-95.4462 2525.4523,-75.3951 2634.0173,-69.3346"/>
<polygon fill="#191970" stroke="#191970" points="2634.5249,-72.8118 2644.3144,-68.7603 2634.135,-65.8227 2634.5249,-72.8118"/>
</g>
<!-- Node30&#45;&gt;Node12 -->
<g id="edge90" class="edge">
<title>Node30&#45;&gt;Node12</title>
<path fill="none" stroke="#191970" d="M1453.1868,-121.9961C1469.8075,-119.4064 1488.1531,-116.5666 1505,-114 1587.9538,-101.3622 1683.3744,-87.1949 1746.6228,-77.8562"/>
<polygon fill="#191970" stroke="#191970" points="1747.4973,-81.2651 1756.8791,-76.3425 1746.4752,-74.3401 1747.4973,-81.2651"/>
</g>
<!-- Node30&#45;&gt;Node13 -->
<g id="edge92" class="edge">
<title>Node30&#45;&gt;Node13</title>
<path fill="none" stroke="#191970" d="M1408.3746,-114.4166C1419.7164,-96.6973 1440.6146,-69.1085 1467,-57 1524.7719,-30.488 2498.5883,-14.2988 2709.7975,-11.09"/>
<polygon fill="#191970" stroke="#191970" points="2709.8882,-14.5891 2719.8342,-10.9386 2709.7825,-7.5899 2709.8882,-14.5891"/>
</g>
<!-- Node30&#45;&gt;Node14 -->
<g id="edge93" class="edge">
<title>Node30&#45;&gt;Node14</title>
<path fill="none" stroke="#191970" d="M1380.4582,-114.2759C1369.9661,-105.0954 1356.8636,-93.6307 1346.2563,-84.3492"/>
<polygon fill="#191970" stroke="#191970" points="1348.5463,-81.7023 1338.7157,-77.7513 1343.9368,-86.9704 1348.5463,-81.7023"/>
</g>
<!-- Node30&#45;&gt;Node15 -->
<g id="edge94" class="edge">
<title>Node30&#45;&gt;Node15</title>
<path fill="none" stroke="#191970" d="M1344.8569,-125.5565C1205.2332,-112.8082 836.8069,-79.1693 735.2484,-69.8966"/>
<polygon fill="#191970" stroke="#191970" points="735.5107,-66.4061 725.2338,-68.9822 734.8741,-73.3771 735.5107,-66.4061"/>
</g>
<!-- Node30&#45;&gt;Node22 -->
<g id="edge91" class="edge">
<title>Node30&#45;&gt;Node22</title>
<path fill="none" stroke="#191970" d="M1453.0158,-122.8803C1478.7049,-119.5664 1509.8809,-115.9918 1538,-114 1941.7331,-85.4017 3269.4731,-70.2962 3500.5546,-67.854"/>
<polygon fill="#191970" stroke="#191970" points="3500.7588,-71.3521 3510.7215,-67.7473 3500.6853,-64.3525 3500.7588,-71.3521"/>
</g>
<!-- Node31&#45;&gt;Node13 -->
<g id="edge97" class="edge">
<title>Node31&#45;&gt;Node13</title>
<path fill="none" stroke="#191970" d="M1312.5283,-183.27C1294.9678,-153.8235 1264.6244,-91.4616 1298,-57 1323.2596,-30.9185 2478.5202,-14.1267 2709.906,-11.022"/>
<polygon fill="#191970" stroke="#191970" points="2709.9602,-14.5216 2719.9126,-10.8885 2709.8668,-7.5223 2709.9602,-14.5216"/>
</g>
<!-- Node31&#45;&gt;Node14 -->
<g id="edge98" class="edge">
<title>Node31&#45;&gt;Node14</title>
<path fill="none" stroke="#191970" d="M1323.4905,-183.3142C1324.2174,-159.3266 1325.5803,-114.3502 1326.3769,-88.0622"/>
<polygon fill="#191970" stroke="#191970" points="1329.8849,-87.8494 1326.6895,-77.748 1322.8881,-87.6373 1329.8849,-87.8494"/>
</g>
<!-- Node31&#45;&gt;Node30 -->
<g id="edge96" class="edge">
<title>Node31&#45;&gt;Node30</title>
<path fill="none" stroke="#191970" d="M1340.627,-183.4966C1350.4363,-174.5907 1362.8172,-163.3501 1373.65,-153.5151"/>
<polygon fill="#191970" stroke="#191970" points="1376.1542,-155.9689 1381.2054,-146.6557 1371.4489,-150.7862 1376.1542,-155.9689"/>
</g>
<!-- Node32&#45;&gt;Node13 -->
<g id="edge101" class="edge">
<title>Node32&#45;&gt;Node13</title>
<path fill="none" stroke="#191970" d="M172.646,-114.4604C234.171,-96.5695 339.3739,-68.6177 432,-57 666.4851,-27.5895 2421.5206,-13.0066 2709.9424,-10.7976"/>
<polygon fill="#191970" stroke="#191970" points="2709.9847,-14.2974 2719.9577,-10.7213 2709.9313,-7.2976 2709.9847,-14.2974"/>
</g>
<!-- Node32&#45;&gt;Node15 -->
<g id="edge102" class="edge">
<title>Node32&#45;&gt;Node15</title>
<path fill="none" stroke="#191970" d="M174.3223,-123.9044C201.2729,-120.7268 234.3295,-116.9709 264,-114 447.1421,-95.6623 500.2306,-121.8669 682.9109,-77.5883"/>
<polygon fill="#191970" stroke="#191970" points="683.9694,-80.9323 692.8428,-75.1431 682.296,-74.1352 683.9694,-80.9323"/>
</g>
<!-- Node32&#45;&gt;Node16 -->
<g id="edge103" class="edge">
<title>Node32&#45;&gt;Node16</title>
<path fill="none" stroke="#191970" d="M174.1113,-116.9965C178.7993,-115.9401 183.4775,-114.9257 188,-114 275.0102,-96.191 378.3784,-80.2614 431.1755,-72.4978"/>
<polygon fill="#191970" stroke="#191970" points="431.9569,-75.9209 441.3456,-71.0116 430.9446,-68.9945 431.9569,-75.9209"/>
</g>
<!-- Node32&#45;&gt;Node22 -->
<g id="edge100" class="edge">
<title>Node32&#45;&gt;Node22</title>
<path fill="none" stroke="#191970" d="M174.1454,-124.3408C209.144,-120.6347 255.7039,-116.2179 297,-114 381.281,-109.4735 3158.0839,-72.5035 3500.4899,-67.9577"/>
<polygon fill="#191970" stroke="#191970" points="3500.6072,-71.4566 3510.5599,-67.824 3500.5143,-64.4572 3500.6072,-71.4566"/>
</g>
<!-- Node33&#45;&gt;Node13 -->
<g id="edge106" class="edge">
<title>Node33&#45;&gt;Node13</title>
<path fill="none" stroke="#191970" d="M94.0983,-183.4411C69.2383,-166.0287 38.0548,-137.568 57,-114 130.8458,-22.1352 198.9519,-70.8599 316,-57 562.8111,-27.7746 2410.9329,-12.9982 2709.3634,-10.7918"/>
<polygon fill="#191970" stroke="#191970" points="2709.7374,-14.2892 2719.7114,-10.7157 2709.6859,-7.2894 2709.7374,-14.2892"/>
</g>
<!-- Node33&#45;&gt;Node14 -->
<g id="edge107" class="edge">
<title>Node33&#45;&gt;Node14</title>
<path fill="none" stroke="#191970" d="M174.1226,-194.6262C249.1761,-187.3044 388.8566,-171.6395 506,-147 558.0352,-136.0551 568.6163,-123.1327 621,-114 754.2005,-90.7774 1180.4109,-73.1078 1297.1759,-68.6142"/>
<polygon fill="#191970" stroke="#191970" points="1297.6303,-72.0995 1307.4895,-68.2207 1297.3633,-65.1046 1297.6303,-72.0995"/>
</g>
<!-- Node33&#45;&gt;Node32 -->
<g id="edge105" class="edge">
<title>Node33&#45;&gt;Node32</title>
<path fill="none" stroke="#191970" d="M120,-183.4966C120,-175.599 120,-165.8656 120,-156.9044"/>
<polygon fill="#191970" stroke="#191970" points="123.5001,-156.8957 120,-146.8958 116.5001,-156.8958 123.5001,-156.8957"/>
</g>
<!-- Node34&#45;&gt;Node12 -->
<g id="edge109" class="edge">
<title>Node34&#45;&gt;Node12</title>
<path fill="none" stroke="#191970" d="M1501.6477,-183.4389C1505.7791,-163.7995 1515.7285,-131.0719 1538,-114 1569.8529,-89.5837 1674.7786,-77.3896 1746.4737,-71.7642"/>
<polygon fill="#191970" stroke="#191970" points="1747.0913,-75.2275 1756.7979,-70.9812 1746.5618,-68.2475 1747.0913,-75.2275"/>
</g>
<!-- Node34&#45;&gt;Node13 -->
<g id="edge114" class="edge">
<title>Node34&#45;&gt;Node13</title>
<path fill="none" stroke="#191970" d="M1496.2827,-183.2737C1494.093,-164.3776 1493.6496,-133.2973 1510,-114 1566.7173,-47.0603 1612.5065,-71.7193 1699,-57 1898.8514,-22.9896 2542.392,-12.9979 2709.8597,-10.9433"/>
<polygon fill="#191970" stroke="#191970" points="2710.0112,-14.4418 2719.9684,-10.8219 2709.9271,-7.4423 2710.0112,-14.4418"/>
</g>
<!-- Node34&#45;&gt;Node17 -->
<g id="edge115" class="edge">
<title>Node34&#45;&gt;Node17</title>
<path fill="none" stroke="#191970" d="M1432.6602,-189.7197C1252.7793,-163.1868 764.4012,-91.0566 685.2266,-77.768"/>
<polygon fill="#191970" stroke="#191970" points="685.8333,-74.321 675.3716,-75.9957 684.5942,-81.2105 685.8333,-74.321"/>
</g>
<!-- Node34&#45;&gt;Node18 -->
<g id="edge116" class="edge">
<title>Node34&#45;&gt;Node18</title>
<path fill="none" stroke="#191970" d="M1565.1122,-195.7329C1626.6867,-192.2667 1721.0426,-187.0635 1803,-183 1892.0914,-178.5828 2525.7419,-187.926 2605,-147 2630.1629,-134.0068 2648.2847,-105.6814 2658.2144,-86.5944"/>
<polygon fill="#191970" stroke="#191970" points="2661.3731,-88.1024 2662.6541,-77.5853 2655.0941,-85.0081 2661.3731,-88.1024"/>
</g>
<!-- Node34&#45;&gt;Node19 -->
<g id="edge110" class="edge">
<title>Node34&#45;&gt;Node19</title>
<path fill="none" stroke="#191970" d="M1432.7514,-189.2437C1417.4201,-187.0322 1401.1577,-184.8159 1386,-183 1221.935,-163.3445 1030.0861,-146.7351 918.8684,-137.7328"/>
<polygon fill="#191970" stroke="#191970" points="918.9403,-134.2273 908.6913,-136.9121 918.3776,-141.2047 918.9403,-134.2273"/>
</g>
<!-- Node34&#45;&gt;Node20 -->
<g id="edge111" class="edge">
<title>Node34&#45;&gt;Node20</title>
<path fill="none" stroke="#191970" d="M1432.8073,-188.7267C1417.4734,-186.5393 1401.1958,-184.4634 1386,-183 1047.1913,-150.3711 960.7409,-167.7882 621,-147 584.039,-144.7384 543.6028,-141.8181 507.6477,-139.0643"/>
<polygon fill="#191970" stroke="#191970" points="507.8713,-135.5712 497.632,-138.2927 507.3335,-142.5505 507.8713,-135.5712"/>
</g>
<!-- Node34&#45;&gt;Node22 -->
<g id="edge113" class="edge">
<title>Node34&#45;&gt;Node22</title>
<path fill="none" stroke="#191970" d="M1565.1818,-198.9304C1895.1864,-195.9358 3350.5931,-180.8495 3440,-147 3448.9383,-143.616 3491.2692,-106.5994 3516.3085,-84.2895"/>
<polygon fill="#191970" stroke="#191970" points="3518.6426,-86.8976 3523.7663,-77.6241 3513.9779,-81.6784 3518.6426,-86.8976"/>
</g>
<!-- Node34&#45;&gt;Node30 -->
<g id="edge112" class="edge">
<title>Node34&#45;&gt;Node30</title>
<path fill="none" stroke="#191970" d="M1475.8066,-183.4966C1462.3983,-174.2448 1445.3385,-162.4736 1430.7042,-152.3759"/>
<polygon fill="#191970" stroke="#191970" points="1432.6326,-149.4542 1422.414,-146.6557 1428.6571,-155.2157 1432.6326,-149.4542"/>
</g>
<!-- Node35&#45;&gt;Node4 -->
<g id="edge120" class="edge">
<title>Node35&#45;&gt;Node4</title>
<path fill="none" stroke="#191970" d="M2978.844,-322.8332C2757.7484,-312.1432 1939.1306,-272.5631 1764.079,-264.0994"/>
<polygon fill="#191970" stroke="#191970" points="1764.0988,-260.5963 1753.9414,-263.6092 1763.7607,-267.5882 1764.0988,-260.5963"/>
</g>
<!-- Node35&#45;&gt;Node13 -->
<g id="edge119" class="edge">
<title>Node35&#45;&gt;Node13</title>
<path fill="none" stroke="#191970" d="M3089.2669,-320.2614C3159.2985,-310.232 3271,-281.3983 3271,-199.5 3271,-199.5 3271,-199.5 3271,-130.5 3271,-96.1359 3273.8447,-78.4535 3247,-57 3211.6261,-28.7302 2902.7285,-15.626 2790.516,-11.7676"/>
<polygon fill="#191970" stroke="#191970" points="2790.3987,-8.2618 2780.2865,-11.4229 2790.1629,-15.2578 2790.3987,-8.2618"/>
</g>
<!-- Node35&#45;&gt;Node18 -->
<g id="edge121" class="edge">
<title>Node35&#45;&gt;Node18</title>
<path fill="none" stroke="#191970" d="M3034.3951,-315.122C3035.0975,-280.4924 3032.3012,-168.0518 2970,-114 2930.0428,-79.3336 2769.4279,-70.4667 2699.642,-68.235"/>
<polygon fill="#191970" stroke="#191970" points="2699.7398,-64.7364 2689.6413,-67.9411 2699.5342,-71.7334 2699.7398,-64.7364"/>
</g>
<!-- Node35&#45;&gt;Node22 -->
<g id="edge118" class="edge">
<title>Node35&#45;&gt;Node22</title>
<path fill="none" stroke="#191970" d="M3089.159,-320.0838C3141.2503,-313.5663 3220.7485,-299.9455 3285,-273 3378.0999,-233.9562 3400.2809,-215.9745 3474,-147 3493.7221,-128.5472 3511.9578,-103.2374 3523.2566,-86.174"/>
<polygon fill="#191970" stroke="#191970" points="3526.2863,-87.9344 3528.7854,-77.6386 3520.4112,-84.1288 3526.2863,-87.9344"/>
</g>
<!-- Node36&#45;&gt;Node4 -->
<g id="edge125" class="edge">
<title>Node36&#45;&gt;Node4</title>
<path fill="none" stroke="#191970" d="M3541.9286,-315.4302C3530.432,-312.8686 3517.7784,-310.4366 3506,-309 3326.9592,-287.1623 1991.7224,-266.3886 1763.9845,-262.9856"/>
<polygon fill="#191970" stroke="#191970" points="1763.7474,-259.4818 1753.6964,-262.8325 1763.6432,-266.481 1763.7474,-259.4818"/>
</g>
<!-- Node36&#45;&gt;Node13 -->
<g id="edge124" class="edge">
<title>Node36&#45;&gt;Node13</title>
<path fill="none" stroke="#191970" d="M3628.7536,-315.4358C3763.6333,-285.098 4129.6822,-188.4707 4003,-57 3981.4505,-34.6359 3002.0687,-15.183 2790.1581,-11.2313"/>
<polygon fill="#191970" stroke="#191970" points="2790.1535,-7.7307 2780.0903,-11.0445 2790.0236,-14.7295 2790.1535,-7.7307"/>
</g>
<!-- Node36&#45;&gt;Node22 -->
<g id="edge123" class="edge">
<title>Node36&#45;&gt;Node22</title>
<path fill="none" stroke="#191970" d="M3584.2887,-315.204C3593.8152,-283.4814 3618.7962,-185.0882 3587,-114 3581.5143,-101.7354 3571.0179,-91.3682 3560.8837,-83.5572"/>
<polygon fill="#191970" stroke="#191970" points="3562.7434,-80.5841 3552.5741,-77.6115 3558.6701,-86.277 3562.7434,-80.5841"/>
</g>
<!-- Node37&#45;&gt;Node13 -->
<g id="edge127" class="edge">
<title>Node37&#45;&gt;Node13</title>
<path fill="none" stroke="#191970" d="M3080.8423,-120.4753C3015.8611,-98.8749 2862.6361,-47.9414 2789.7981,-23.7293"/>
<polygon fill="#191970" stroke="#191970" points="2790.665,-20.3292 2780.0715,-20.4961 2788.4569,-26.9718 2790.665,-20.3292"/>
</g>
<!-- Node37&#45;&gt;Node14 -->
<g id="edge129" class="edge">
<title>Node37&#45;&gt;Node14</title>
<path fill="none" stroke="#191970" d="M3036.1117,-120.4924C3014.7868,-117.981 2991.5089,-115.5598 2970,-114 2886.4259,-107.9392 1572.7274,-73.8458 1356.8986,-68.271"/>
<polygon fill="#191970" stroke="#191970" points="1356.7358,-64.7657 1346.6487,-68.0064 1356.555,-71.7634 1356.7358,-64.7657"/>
</g>
<!-- Node37&#45;&gt;Node18 -->
<g id="edge130" class="edge">
<title>Node37&#45;&gt;Node18</title>
<path fill="none" stroke="#191970" d="M3046.4891,-120.4922C3032.1759,-118.3141 3017.0773,-116.0493 3003,-114 2891.9519,-97.8338 2760.0526,-79.9699 2699.8742,-71.8931"/>
<polygon fill="#191970" stroke="#191970" points="2700.2068,-68.4065 2689.8303,-70.5467 2699.2766,-75.3444 2700.2068,-68.4065"/>
</g>
<!-- Node37&#45;&gt;Node38 -->
<g id="edge128" class="edge">
<title>Node37&#45;&gt;Node38</title>
<path fill="none" stroke="#191970" d="M3205.2561,-121.3959C3232.5816,-118.8692 3262.4697,-116.214 3290,-114 3533.8502,-94.3893 3827.5368,-75.9981 3929.7714,-69.7508"/>
<polygon fill="#191970" stroke="#191970" points="3930.1269,-73.2358 3939.8954,-69.1337 3929.7009,-66.2487 3930.1269,-73.2358"/>
</g>
<!-- Node39&#45;&gt;Node13 -->
<g id="edge133" class="edge">
<title>Node39&#45;&gt;Node13</title>
<path fill="none" stroke="#191970" d="M3906.4347,-120.2975C3893.2778,-103.4851 3864.3733,-70.4801 3831,-57 3733.1835,-17.4901 2974.6638,-11.5148 2790.2894,-10.6437"/>
<polygon fill="#191970" stroke="#191970" points="2790.2256,-7.1435 2780.21,-10.5986 2790.1941,-14.1434 2790.2256,-7.1435"/>
</g>
<!-- Node39&#45;&gt;Node22 -->
<g id="edge132" class="edge">
<title>Node39&#45;&gt;Node22</title>
<path fill="none" stroke="#191970" d="M3853.5272,-120.4478C3773.1525,-107.0873 3633.8026,-83.9237 3569.426,-73.2225"/>
<polygon fill="#191970" stroke="#191970" points="3569.8332,-69.7423 3559.3946,-71.555 3568.6853,-76.6475 3569.8332,-69.7423"/>
</g>
<!-- Node40&#45;&gt;Node4 -->
<g id="edge137" class="edge">
<title>Node40&#45;&gt;Node4</title>
<path fill="none" stroke="#191970" d="M3345.3122,-321.2686C3279.8647,-317.6971 3182.7091,-312.6041 3098,-309 2565.1165,-286.3275 1915.0045,-267.6443 1763.5837,-263.4033"/>
<polygon fill="#191970" stroke="#191970" points="1763.6455,-259.9038 1753.5517,-263.1231 1763.45,-266.901 1763.6455,-259.9038"/>
</g>
<!-- Node40&#45;&gt;Node13 -->
<g id="edge136" class="edge">
<title>Node40&#45;&gt;Node13</title>
<path fill="none" stroke="#191970" d="M3465.8929,-309.4434C3492.4034,-299.6158 3526.452,-286.3895 3556,-273 3673.2199,-219.8825 3874.5156,-217.4762 3798,-114 3746.5938,-44.4805 3697.1313,-72.1071 3612,-57 3451.1222,-28.4511 2938.958,-14.8009 2790.6198,-11.3807"/>
<polygon fill="#191970" stroke="#191970" points="2790.2551,-7.8716 2780.178,-11.1431 2790.0957,-14.8698 2790.2551,-7.8716"/>
</g>
<!-- Node40&#45;&gt;Node18 -->
<g id="edge138" class="edge">
<title>Node40&#45;&gt;Node18</title>
<path fill="none" stroke="#191970" d="M3429.5588,-309.3545C3449.0892,-270.0494 3491.4323,-168.6192 3440,-114 3414.2588,-86.6638 2844.6341,-71.6237 2700.1045,-68.2391"/>
<polygon fill="#191970" stroke="#191970" points="2699.7696,-64.7305 2689.6913,-67.9983 2699.6077,-71.7286 2699.7696,-64.7305"/>
</g>
<!-- Node40&#45;&gt;Node22 -->
<g id="edge135" class="edge">
<title>Node40&#45;&gt;Node22</title>
<path fill="none" stroke="#191970" d="M3486.6498,-309.4016C3505.7648,-301.5232 3524.7718,-289.9366 3537,-273 3577.7495,-216.5598 3555.2225,-126.7814 3542.2013,-87.2673"/>
<polygon fill="#191970" stroke="#191970" points="3545.4823,-86.0452 3538.9156,-77.7308 3538.8641,-88.3255 3545.4823,-86.0452"/>
</g>
<!-- Node41&#45;&gt;Node13 -->
<g id="edge140" class="edge">
<title>Node41&#45;&gt;Node13</title>
<path fill="none" stroke="#191970" d="M2866.7933,-114.3163C2841.3358,-91.6873 2795.3098,-50.7753 2769.2855,-27.6427"/>
<polygon fill="#191970" stroke="#191970" points="2771.3897,-24.8302 2761.5903,-20.8025 2766.7391,-30.0621 2771.3897,-24.8302"/>
</g>
<!-- Node41&#45;&gt;Node14 -->
<g id="edge141" class="edge">
<title>Node41&#45;&gt;Node14</title>
<path fill="none" stroke="#191970" d="M2809.4371,-126.1914C2746.052,-122.6552 2653.1333,-117.6534 2572,-114 2087.0736,-92.1638 1495.5674,-72.8771 1357.0209,-68.4513"/>
<polygon fill="#191970" stroke="#191970" points="1356.879,-64.9451 1346.7726,-68.1246 1356.656,-71.9415 1356.879,-64.9451"/>
</g>
<!-- Node41&#45;&gt;Node18 -->
<g id="edge142" class="edge">
<title>Node41&#45;&gt;Node18</title>
<path fill="none" stroke="#191970" d="M2829.4253,-114.4394C2788.3838,-102.5788 2733.9167,-86.8383 2699.6581,-76.9379"/>
<polygon fill="#191970" stroke="#191970" points="2700.2907,-73.4775 2689.7121,-74.0636 2698.3472,-80.2024 2700.2907,-73.4775"/>
</g>
<!-- Node43&#45;&gt;Node4 -->
<g id="edge147" class="edge">
<title>Node43&#45;&gt;Node4</title>
<path fill="none" stroke="#191970" d="M2207.041,-319.5163C2100.339,-306.7364 1852.6723,-277.0729 1763.6249,-266.4075"/>
<polygon fill="#191970" stroke="#191970" points="1763.9172,-262.9176 1753.5719,-265.2035 1763.0847,-269.868 1763.9172,-262.9176"/>
</g>
<!-- Node43&#45;&gt;Node13 -->
<g id="edge146" class="edge">
<title>Node43&#45;&gt;Node13</title>
<path fill="none" stroke="#191970" d="M2306.5256,-324.2256C2485.7764,-318.4753 3096.3495,-288.6237 3214,-147 3223.372,-135.7183 3223.1728,-125.4443 3214,-114 3160.8512,-47.6896 2892.9693,-21.0886 2790.21,-13.2194"/>
<polygon fill="#191970" stroke="#191970" points="2790.4551,-9.728 2780.2224,-12.474 2789.9342,-16.7086 2790.4551,-9.728"/>
</g>
<!-- Node44&#45;&gt;Node4 -->
<g id="edge149" class="edge">
<title>Node44&#45;&gt;Node4</title>
<path fill="none" stroke="#191970" d="M1537.8302,-378.4019C1574.5398,-356.3761 1661.9923,-303.9046 1705.5054,-277.7967"/>
<polygon fill="#191970" stroke="#191970" points="1707.3155,-280.7924 1714.0897,-272.6462 1703.714,-274.79 1707.3155,-280.7924"/>
</g>
<!-- Node45&#45;&gt;Node13 -->
<g id="edge151" class="edge">
<title>Node45&#45;&gt;Node13</title>
<path fill="none" stroke="#191970" d="M4071.9769,-252.1057C4084.1153,-218.4192 4116.703,-111.301 4063,-57 4040.0563,-33.8008 3008.6254,-14.9155 2790.3215,-11.1741"/>
<polygon fill="#191970" stroke="#191970" points="2790.3164,-7.6736 2780.2581,-11.0025 2790.197,-14.6726 2790.3164,-7.6736"/>
</g>
</g>
</svg>
