<?xml version="1.0" encoding="UTF-8" standalone="no"?>
<!DOCTYPE svg PUBLIC "-//W3C//DTD SVG 1.1//EN"
 "http://www.w3.org/Graphics/SVG/1.1/DTD/svg11.dtd">
<!-- Generated by graphviz version 2.40.1 (20161225.0304)
 -->
<!-- Title: delphes_EIC/blob/master/SimpleAnalysis/MuonPIDModule.h Pages: 1 -->
<svg width="886pt" height="224pt"
 viewBox="0.00 0.00 886.00 224.00" xmlns="http://www.w3.org/2000/svg" xmlns:xlink="http://www.w3.org/1999/xlink">
<g id="graph0" class="graph" transform="scale(1 1) rotate(0) translate(4 220)">
<title>delphes_EIC/blob/master/SimpleAnalysis/MuonPIDModule.h</title>
<!-- Node1 -->
<g id="node1" class="node">
<title>Node1</title>
<polygon fill="#bfbfbf" stroke="#000000" points="492,-183.5 492,-215.5 683,-215.5 683,-183.5 492,-183.5"/>
<text text-anchor="start" x="500" y="-202.5" font-family="FreeSans" font-size="10.00" fill="#000000">delphes_EIC/blob/master</text>
<text text-anchor="middle" x="587.5" y="-190.5" font-family="FreeSans" font-size="10.00" fill="#000000">/SimpleAnalysis/MuonPIDModule.h</text>
</g>
<!-- Node2 -->
<g id="node2" class="node">
<title>Node2</title>
<g id="a_node2"><a xlink:href="../../d4/dc7/Module_8h.html" target="_top" xlink:title="Module.h">
<polygon fill="none" stroke="#000000" points="432.5,-126.5 432.5,-146.5 494.5,-146.5 494.5,-126.5 432.5,-126.5"/>
<text text-anchor="middle" x="463.5" y="-133.5" font-family="FreeSans" font-size="10.00" fill="#000000">Module.h</text>
</a>
</g>
</g>
<!-- Node1&#45;&gt;Node2 -->
<g id="edge1" class="edge">
<title>Node1&#45;&gt;Node2</title>
<path fill="none" stroke="#191970" d="M555.8887,-183.4394C536.3688,-173.5221 511.5097,-160.892 492.4958,-151.2317"/>
<polygon fill="#191970" stroke="#191970" points="493.9138,-148.0264 483.4131,-146.6171 490.743,-154.2671 493.9138,-148.0264"/>
</g>
<!-- Node16 -->
<g id="node16" class="node">
<title>Node16</title>
<polygon fill="none" stroke="#bfbfbf" points="733,-.5 733,-20.5 878,-20.5 878,-.5 733,-.5"/>
<text text-anchor="middle" x="805.5" y="-7.5" font-family="FreeSans" font-size="10.00" fill="#000000">classes/DelphesClasses.h</text>
</g>
<!-- Node1&#45;&gt;Node16 -->
<g id="edge19" class="edge">
<title>Node1&#45;&gt;Node16</title>
<path fill="none" stroke="#191970" d="M606.0866,-183.386C646.9302,-147.9757 744.182,-63.661 785.9217,-27.4739"/>
<polygon fill="#191970" stroke="#191970" points="788.4584,-29.9069 793.7214,-20.7117 783.8729,-24.6178 788.4584,-29.9069"/>
</g>
<!-- Node3 -->
<g id="node3" class="node">
<title>Node3</title>
<polygon fill="none" stroke="#bfbfbf" points="676,-.5 676,-20.5 715,-20.5 715,-.5 676,-.5"/>
<text text-anchor="middle" x="695.5" y="-7.5" font-family="FreeSans" font-size="10.00" fill="#000000">map</text>
</g>
<!-- Node2&#45;&gt;Node3 -->
<g id="edge2" class="edge">
<title>Node2&#45;&gt;Node3</title>
<path fill="none" stroke="#191970" d="M494.8423,-134.3938C550.0317,-129.9973 661.1285,-117.8437 686.5,-90 700.9879,-74.1004 701.2411,-48.3455 699.1798,-30.4768"/>
<polygon fill="#191970" stroke="#191970" points="702.6336,-29.9067 697.7038,-20.5286 695.7094,-30.9341 702.6336,-29.9067"/>
</g>
<!-- Node4 -->
<g id="node4" class="node">
<title>Node4</title>
<polygon fill="none" stroke="#bfbfbf" points="0,-.5 0,-20.5 45,-20.5 45,-.5 0,-.5"/>
<text text-anchor="middle" x="22.5" y="-7.5" font-family="FreeSans" font-size="10.00" fill="#000000">string</text>
</g>
<!-- Node2&#45;&gt;Node4 -->
<g id="edge3" class="edge">
<title>Node2&#45;&gt;Node4</title>
<path fill="none" stroke="#191970" d="M432.2654,-133.9249C381.011,-129.0907 276.2796,-116.6449 191.5,-90 138.8526,-73.4538 81.5093,-43.7687 48.9849,-25.7289"/>
<polygon fill="#191970" stroke="#191970" points="50.5413,-22.589 40.1071,-20.7509 47.1177,-28.6947 50.5413,-22.589"/>
</g>
<!-- Node5 -->
<g id="node5" class="node">
<title>Node5</title>
<polygon fill="none" stroke="#bfbfbf" points="415,-63.5 415,-83.5 450,-83.5 450,-63.5 415,-63.5"/>
<text text-anchor="middle" x="432.5" y="-70.5" font-family="FreeSans" font-size="10.00" fill="#000000">any</text>
</g>
<!-- Node2&#45;&gt;Node5 -->
<g id="edge4" class="edge">
<title>Node2&#45;&gt;Node5</title>
<path fill="none" stroke="#191970" d="M458.5193,-126.378C454.1164,-117.4302 447.5694,-104.125 442.1444,-93.0999"/>
<polygon fill="#191970" stroke="#191970" points="445.1268,-91.2335 437.5713,-83.8062 438.846,-94.3241 445.1268,-91.2335"/>
</g>
<!-- Node6 -->
<g id="node6" class="node">
<title>Node6</title>
<polygon fill="none" stroke="#bfbfbf" points="468,-63.5 468,-83.5 521,-83.5 521,-63.5 468,-63.5"/>
<text text-anchor="middle" x="494.5" y="-70.5" font-family="FreeSans" font-size="10.00" fill="#000000">TTree.h</text>
</g>
<!-- Node2&#45;&gt;Node6 -->
<g id="edge5" class="edge">
<title>Node2&#45;&gt;Node6</title>
<path fill="none" stroke="#191970" d="M468.4807,-126.378C472.8836,-117.4302 479.4306,-104.125 484.8556,-93.0999"/>
<polygon fill="#191970" stroke="#191970" points="488.154,-94.3241 489.4287,-83.8062 481.8732,-91.2335 488.154,-94.3241"/>
</g>
<!-- Node7 -->
<g id="node7" class="node">
<title>Node7</title>
<polygon fill="none" stroke="#bfbfbf" points="63.5,-.5 63.5,-20.5 155.5,-20.5 155.5,-.5 63.5,-.5"/>
<text text-anchor="middle" x="109.5" y="-7.5" font-family="FreeSans" font-size="10.00" fill="#000000">TClonesArray.h</text>
</g>
<!-- Node2&#45;&gt;Node7 -->
<g id="edge6" class="edge">
<title>Node2&#45;&gt;Node7</title>
<path fill="none" stroke="#191970" d="M432.3021,-131.5702C392.7127,-124.7748 322.6966,-110.9426 265.5,-90 217.3852,-72.3828 164.9983,-43.4981 134.8255,-25.8221"/>
<polygon fill="#191970" stroke="#191970" points="136.5927,-22.801 126.204,-20.7211 133.0282,-28.8255 136.5927,-22.801"/>
</g>
<!-- Node8 -->
<g id="node8" class="node">
<title>Node8</title>
<polygon fill="none" stroke="#bfbfbf" points="539.5,-57.5 539.5,-89.5 677.5,-89.5 677.5,-57.5 539.5,-57.5"/>
<text text-anchor="start" x="547.5" y="-76.5" font-family="FreeSans" font-size="10.00" fill="#000000">external/ExRootAnalysis</text>
<text text-anchor="middle" x="608.5" y="-64.5" font-family="FreeSans" font-size="10.00" fill="#000000">/ExRootTreeReader.h</text>
</g>
<!-- Node2&#45;&gt;Node8 -->
<g id="edge7" class="edge">
<title>Node2&#45;&gt;Node8</title>
<path fill="none" stroke="#191970" d="M486.7968,-126.378C507.0278,-117.5879 536.9374,-104.5927 562.0423,-93.685"/>
<polygon fill="#191970" stroke="#191970" points="563.6217,-96.815 571.3986,-89.6199 560.8322,-90.3948 563.6217,-96.815"/>
</g>
<!-- Node9 -->
<g id="node9" class="node">
<title>Node9</title>
<g id="a_node9"><a xlink:href="../../d0/dfc/AnalysisFunctions_8cc.html" target="_top" xlink:title="AnalysisFunctions.cc">
<polygon fill="none" stroke="#000000" points="274.5,-63.5 274.5,-83.5 396.5,-83.5 396.5,-63.5 274.5,-63.5"/>
<text text-anchor="middle" x="335.5" y="-70.5" font-family="FreeSans" font-size="10.00" fill="#000000">AnalysisFunctions.cc</text>
</a>
</g>
</g>
<!-- Node2&#45;&gt;Node9 -->
<g id="edge8" class="edge">
<title>Node2&#45;&gt;Node9</title>
<path fill="none" stroke="#191970" d="M442.9346,-126.378C421.9409,-116.0451 389.1411,-99.9015 365.3028,-88.1686"/>
<polygon fill="#191970" stroke="#191970" points="366.5321,-84.8727 356.0144,-83.5969 363.4409,-91.1532 366.5321,-84.8727"/>
</g>
<!-- Node9&#45;&gt;Node3 -->
<g id="edge15" class="edge">
<title>Node9&#45;&gt;Node3</title>
<path fill="none" stroke="#191970" d="M375.3408,-63.4222C385.1622,-61.128 395.6805,-58.8303 405.5,-57 517.468,-36.1301 550.9971,-48.3732 665.8217,-20.7189"/>
<polygon fill="#191970" stroke="#191970" points="666.8265,-24.0762 675.702,-18.2904 665.1556,-17.2786 666.8265,-24.0762"/>
</g>
<!-- Node9&#45;&gt;Node4 -->
<g id="edge14" class="edge">
<title>Node9&#45;&gt;Node4</title>
<path fill="none" stroke="#191970" d="M274.4217,-64.4808C219.3927,-55.8143 136.1883,-41.3731 55.0047,-20.8628"/>
<polygon fill="#191970" stroke="#191970" points="55.6719,-17.4208 45.1163,-18.3314 53.9359,-24.2021 55.6719,-17.4208"/>
</g>
<!-- Node9&#45;&gt;Node7 -->
<g id="edge12" class="edge">
<title>Node9&#45;&gt;Node7</title>
<path fill="none" stroke="#191970" d="M299.4397,-63.4478C260.3287,-52.5452 197.7992,-35.1144 155.256,-23.255"/>
<polygon fill="#191970" stroke="#191970" points="156.0044,-19.8302 145.4318,-20.5164 154.1247,-26.5732 156.0044,-19.8302"/>
</g>
<!-- Node10 -->
<g id="node10" class="node">
<title>Node10</title>
<polygon fill="none" stroke="#bfbfbf" points="389.5,-.5 389.5,-20.5 449.5,-20.5 449.5,-.5 389.5,-.5"/>
<text text-anchor="middle" x="419.5" y="-7.5" font-family="FreeSans" font-size="10.00" fill="#000000">TROOT.h</text>
</g>
<!-- Node9&#45;&gt;Node10 -->
<g id="edge9" class="edge">
<title>Node9&#45;&gt;Node10</title>
<path fill="none" stroke="#191970" d="M348.9961,-63.378C362.2221,-53.4584 382.5885,-38.1837 398.0373,-26.597"/>
<polygon fill="#191970" stroke="#191970" points="400.1374,-29.397 406.0374,-20.5969 395.9374,-23.797 400.1374,-29.397"/>
</g>
<!-- Node11 -->
<g id="node11" class="node">
<title>Node11</title>
<polygon fill="none" stroke="#bfbfbf" points="468,-.5 468,-20.5 569,-20.5 569,-.5 468,-.5"/>
<text text-anchor="middle" x="518.5" y="-7.5" font-family="FreeSans" font-size="10.00" fill="#000000">TLorentzVector.h</text>
</g>
<!-- Node9&#45;&gt;Node11 -->
<g id="edge10" class="edge">
<title>Node9&#45;&gt;Node11</title>
<path fill="none" stroke="#191970" d="M364.9021,-63.378C395.9838,-52.6777 445.166,-35.7461 479.4766,-23.9343"/>
<polygon fill="#191970" stroke="#191970" points="480.8548,-27.1615 489.1708,-20.5969 478.5762,-20.5427 480.8548,-27.1615"/>
</g>
<!-- Node12 -->
<g id="node12" class="node">
<title>Node12</title>
<polygon fill="none" stroke="#bfbfbf" points="587,-.5 587,-20.5 658,-20.5 658,-.5 587,-.5"/>
<text text-anchor="middle" x="622.5" y="-7.5" font-family="FreeSans" font-size="10.00" fill="#000000">TVector3.h</text>
</g>
<!-- Node9&#45;&gt;Node12 -->
<g id="edge11" class="edge">
<title>Node9&#45;&gt;Node12</title>
<path fill="none" stroke="#191970" d="M377.2875,-63.4685C386.5661,-61.2918 396.3591,-59.0336 405.5,-57 478.6102,-40.7351 499.5482,-38.077 576.47,-21.1889"/>
<polygon fill="#191970" stroke="#191970" points="577.6444,-24.514 586.6555,-18.9417 576.1362,-17.6784 577.6444,-24.514"/>
</g>
<!-- Node13 -->
<g id="node13" class="node">
<title>Node13</title>
<polygon fill="none" stroke="#bfbfbf" points="174,-.5 174,-20.5 223,-20.5 223,-.5 174,-.5"/>
<text text-anchor="middle" x="198.5" y="-7.5" font-family="FreeSans" font-size="10.00" fill="#000000">vector</text>
</g>
<!-- Node9&#45;&gt;Node13 -->
<g id="edge13" class="edge">
<title>Node9&#45;&gt;Node13</title>
<path fill="none" stroke="#191970" d="M313.4886,-63.378C290.819,-52.9533 255.2876,-36.614 229.7203,-24.8568"/>
<polygon fill="#191970" stroke="#191970" points="231.0045,-21.595 220.4568,-20.5969 228.0799,-27.9548 231.0045,-21.595"/>
</g>
<!-- Node14 -->
<g id="node14" class="node">
<title>Node14</title>
<polygon fill="none" stroke="#bfbfbf" points="241.5,-.5 241.5,-20.5 301.5,-20.5 301.5,-.5 241.5,-.5"/>
<text text-anchor="middle" x="271.5" y="-7.5" font-family="FreeSans" font-size="10.00" fill="#000000">iostream</text>
</g>
<!-- Node9&#45;&gt;Node14 -->
<g id="edge16" class="edge">
<title>Node9&#45;&gt;Node14</title>
<path fill="none" stroke="#191970" d="M325.2173,-63.378C315.5709,-53.8823 300.9394,-39.4794 289.3814,-28.102"/>
<polygon fill="#191970" stroke="#191970" points="291.5517,-25.3271 281.9698,-20.8062 286.641,-30.3157 291.5517,-25.3271"/>
</g>
<!-- Node15 -->
<g id="node15" class="node">
<title>Node15</title>
<polygon fill="none" stroke="#bfbfbf" points="319.5,-.5 319.5,-20.5 371.5,-20.5 371.5,-.5 319.5,-.5"/>
<text text-anchor="middle" x="345.5" y="-7.5" font-family="FreeSans" font-size="10.00" fill="#000000">math.h</text>
</g>
<!-- Node9&#45;&gt;Node15 -->
<g id="edge17" class="edge">
<title>Node9&#45;&gt;Node15</title>
<path fill="none" stroke="#191970" d="M337.1067,-63.378C338.498,-54.6128 340.553,-41.6662 342.2813,-30.7777"/>
<polygon fill="#191970" stroke="#191970" points="345.7531,-31.2313 343.8641,-20.8062 338.8396,-30.1339 345.7531,-31.2313"/>
</g>
<!-- Node9&#45;&gt;Node16 -->
<g id="edge18" class="edge">
<title>Node9&#45;&gt;Node16</title>
<path fill="none" stroke="#191970" d="M374.575,-63.4243C384.6058,-61.0765 395.4129,-58.7534 405.5,-57 542.4871,-33.1878 580.5888,-37.806 722.6685,-21.0749"/>
<polygon fill="#191970" stroke="#191970" points="723.1141,-24.5466 732.6294,-19.8872 722.2853,-17.5959 723.1141,-24.5466"/>
</g>
</g>
</svg>
