<?xml version="1.0" encoding="UTF-8" standalone="no"?>
<!DOCTYPE svg PUBLIC "-//W3C//DTD SVG 1.1//EN"
 "http://www.w3.org/Graphics/SVG/1.1/DTD/svg11.dtd">
<!-- Generated by graphviz version 2.40.1 (20161225.0304)
 -->
<!-- Title: EicBeamLineElementMap Pages: 1 -->
<svg width="685pt" height="323pt"
 viewBox="0.00 0.00 684.50 323.00" xmlns="http://www.w3.org/2000/svg" xmlns:xlink="http://www.w3.org/1999/xlink">
<g id="graph0" class="graph" transform="scale(1 1) rotate(0) translate(4 319)">
<title>EicBeamLineElementMap</title>
<!-- Node1 -->
<g id="node1" class="node">
<title>Node1</title>
<polygon fill="#bfbfbf" stroke="#000000" points="45,-.5 45,-20.5 190,-20.5 190,-.5 45,-.5"/>
<text text-anchor="middle" x="117.5" y="-7.5" font-family="FreeSans" font-size="10.00" fill="#000000">EicBeamLineElementMap</text>
</g>
<!-- Node2 -->
<g id="node2" class="node">
<title>Node2</title>
<g id="a_node2"><a xlink:href="../../de/d0d/classEicMagneticFieldMap.html" target="_top" xlink:title="EicMagneticFieldMap">
<polygon fill="none" stroke="#000000" points="6.5,-113 6.5,-133 128.5,-133 128.5,-113 6.5,-113"/>
<text text-anchor="middle" x="67.5" y="-120" font-family="FreeSans" font-size="10.00" fill="#000000">EicMagneticFieldMap</text>
</a>
</g>
</g>
<!-- Node2&#45;&gt;Node1 -->
<g id="edge1" class="edge">
<title>Node2&#45;&gt;Node1</title>
<path fill="none" stroke="#191970" d="M76.2344,-103.3477C86.9715,-79.1891 104.7821,-39.1153 113.0409,-20.5331"/>
<polygon fill="#191970" stroke="#191970" points="72.9774,-102.0583 72.1143,-112.6179 79.374,-104.9013 72.9774,-102.0583"/>
</g>
<!-- Node3 -->
<g id="node3" class="node">
<title>Node3</title>
<g id="a_node3"><a xlink:href="../../d5/d0f/classTObject.html" target="_top" xlink:title="TObject">
<polygon fill="none" stroke="#000000" points="0,-213.5 0,-233.5 57,-233.5 57,-213.5 0,-213.5"/>
<text text-anchor="middle" x="28.5" y="-220.5" font-family="FreeSans" font-size="10.00" fill="#000000">TObject</text>
</a>
</g>
</g>
<!-- Node3&#45;&gt;Node2 -->
<g id="edge2" class="edge">
<title>Node3&#45;&gt;Node2</title>
<path fill="none" stroke="#191970" d="M36.1022,-203.9096C44.316,-182.7434 57.0887,-149.829 63.5175,-133.2625"/>
<polygon fill="#191970" stroke="#191970" points="32.7369,-202.9074 32.3821,-213.4963 39.2628,-205.4398 32.7369,-202.9074"/>
</g>
<!-- Node4 -->
<g id="node4" class="node">
<title>Node4</title>
<g id="a_node4"><a xlink:href="../../d0/d70/classMgrid.html" target="_top" xlink:title="Mgrid">
<polygon fill="none" stroke="#000000" points="197.5,-113 197.5,-133 241.5,-133 241.5,-113 197.5,-113"/>
<text text-anchor="middle" x="219.5" y="-120" font-family="FreeSans" font-size="10.00" fill="#000000">Mgrid</text>
</a>
</g>
</g>
<!-- Node4&#45;&gt;Node1 -->
<g id="edge3" class="edge">
<title>Node4&#45;&gt;Node1</title>
<path fill="none" stroke="#9a32cd" stroke-dasharray="5,2" d="M190.8498,-107.598C181.7783,-101.8837 172.1351,-94.857 164.5,-87 144.6205,-66.5428 129.1454,-36.2414 121.9362,-20.6236"/>
<polygon fill="#9a32cd" stroke="#9a32cd" points="189.2573,-110.7239 199.6351,-112.857 192.8526,-104.7177 189.2573,-110.7239"/>
<text text-anchor="middle" x="182" y="-60" font-family="FreeSans" font-size="10.00" fill="#000000"> mGrid</text>
</g>
<!-- Node4&#45;&gt;Node4 -->
<g id="edge19" class="edge">
<title>Node4&#45;&gt;Node4</title>
<path fill="none" stroke="#9a32cd" stroke-dasharray="5,2" d="M251.9045,-132.0623C256.4533,-130.5839 259.5,-127.5632 259.5,-123 259.5,-115.5117 251.2952,-112.1771 241.7124,-112.9961"/>
<polygon fill="#9a32cd" stroke="#9a32cd" points="251.3479,-128.5987 241.7124,-133.0039 251.992,-135.569 251.3479,-128.5987"/>
<text text-anchor="middle" x="282" y="-120" font-family="FreeSans" font-size="10.00" fill="#000000"> children</text>
</g>
<!-- Node9 -->
<g id="node9" class="node">
<title>Node9</title>
<g id="a_node9"><a xlink:href="../../d7/dd2/classMgridInterpolation.html" target="_top" xlink:title="MgridInterpolation">
<polygon fill="none" stroke="#000000" points="354,-.5 354,-20.5 463,-20.5 463,-.5 354,-.5"/>
<text text-anchor="middle" x="408.5" y="-7.5" font-family="FreeSans" font-size="10.00" fill="#000000">MgridInterpolation</text>
</a>
</g>
</g>
<!-- Node4&#45;&gt;Node9 -->
<g id="edge16" class="edge">
<title>Node4&#45;&gt;Node9</title>
<path fill="none" stroke="#9a32cd" stroke-dasharray="5,2" d="M213.3906,-102.7991C209.0507,-83.9462 206.3546,-56.2098 221.5,-39 230.2325,-29.0772 301.944,-20.363 353.9648,-15.2619"/>
<polygon fill="#9a32cd" stroke="#9a32cd" points="210.075,-103.9519 216.0134,-112.7261 216.8428,-102.1637 210.075,-103.9519"/>
<text text-anchor="middle" x="241" y="-60" font-family="FreeSans" font-size="10.00" fill="#000000"> _mgrid</text>
</g>
<!-- Node5 -->
<g id="node5" class="node">
<title>Node5</title>
<g id="a_node5"><a xlink:href="../../df/d6c/classMgridHeader.html" target="_top" xlink:title="MgridHeader">
<polygon fill="none" stroke="#000000" points="75.5,-213.5 75.5,-233.5 157.5,-233.5 157.5,-213.5 75.5,-213.5"/>
<text text-anchor="middle" x="116.5" y="-220.5" font-family="FreeSans" font-size="10.00" fill="#000000">MgridHeader</text>
</a>
</g>
</g>
<!-- Node5&#45;&gt;Node4 -->
<g id="edge4" class="edge">
<title>Node5&#45;&gt;Node4</title>
<path fill="none" stroke="#191970" d="M133.9662,-206.4577C155.4696,-185.4763 191.3058,-150.5098 208.9822,-133.2625"/>
<polygon fill="#191970" stroke="#191970" points="131.4657,-204.0075 126.7526,-213.4963 136.3543,-209.0177 131.4657,-204.0075"/>
</g>
<!-- Node6 -->
<g id="node6" class="node">
<title>Node6</title>
<g id="a_node6"><a xlink:href="../../d0/d28/classMgridDirection.html" target="_top" xlink:title="MgridDirection">
<polygon fill="none" stroke="#000000" points="19.5,-294.5 19.5,-314.5 109.5,-314.5 109.5,-294.5 19.5,-294.5"/>
<text text-anchor="middle" x="64.5" y="-301.5" font-family="FreeSans" font-size="10.00" fill="#000000">MgridDirection</text>
</a>
</g>
</g>
<!-- Node6&#45;&gt;Node5 -->
<g id="edge5" class="edge">
<title>Node6&#45;&gt;Node5</title>
<path fill="none" stroke="#9a32cd" stroke-dasharray="5,2" d="M76.6493,-285.5751C87.0521,-269.3707 101.6329,-246.6584 109.9676,-233.6754"/>
<polygon fill="#9a32cd" stroke="#9a32cd" points="73.5429,-283.9353 71.0858,-294.2413 79.4335,-287.7169 73.5429,-283.9353"/>
<text text-anchor="middle" x="107.5" y="-261" font-family="FreeSans" font-size="10.00" fill="#000000"> dir</text>
</g>
<!-- Node7 -->
<g id="node7" class="node">
<title>Node7</title>
<g id="a_node7"><a xlink:href="../../d8/d55/classCoordSystem.html" target="_top" xlink:title="CoordSystem">
<polygon fill="none" stroke="#000000" points="128,-294.5 128,-314.5 211,-314.5 211,-294.5 128,-294.5"/>
<text text-anchor="middle" x="169.5" y="-301.5" font-family="FreeSans" font-size="10.00" fill="#000000">CoordSystem</text>
</a>
</g>
</g>
<!-- Node7&#45;&gt;Node5 -->
<g id="edge6" class="edge">
<title>Node7&#45;&gt;Node5</title>
<path fill="none" stroke="#9a32cd" stroke-dasharray="5,2" d="M157.1171,-285.5751C146.5142,-269.3707 131.6531,-246.6584 123.158,-233.6754"/>
<polygon fill="#9a32cd" stroke="#9a32cd" points="154.3834,-287.7898 162.7875,-294.2413 160.241,-283.957 154.3834,-287.7898"/>
<text text-anchor="middle" x="167.5" y="-267" font-family="FreeSans" font-size="10.00" fill="#000000"> coord</text>
<text text-anchor="middle" x="167.5" y="-255" font-family="FreeSans" font-size="10.00" fill="#000000">field</text>
</g>
<!-- Node8 -->
<g id="node8" class="node">
<title>Node8</title>
<g id="a_node8"><a xlink:href="../../dc/d0e/classMgridPosition.html" target="_top" xlink:title="MgridPosition">
<polygon fill="none" stroke="#000000" points="175.5,-213.5 175.5,-233.5 259.5,-233.5 259.5,-213.5 175.5,-213.5"/>
<text text-anchor="middle" x="217.5" y="-220.5" font-family="FreeSans" font-size="10.00" fill="#000000">MgridPosition</text>
</a>
</g>
</g>
<!-- Node8&#45;&gt;Node4 -->
<g id="edge7" class="edge">
<title>Node8&#45;&gt;Node4</title>
<path fill="none" stroke="#9a32cd" stroke-dasharray="5,2" d="M217.9015,-203.3268C218.323,-182.1436 218.9691,-149.6777 219.2958,-133.2625"/>
<polygon fill="#9a32cd" stroke="#9a32cd" points="214.3988,-203.4286 217.6991,-213.4963 221.3974,-203.5679 214.3988,-203.4286"/>
<text text-anchor="middle" x="240.5" y="-174" font-family="FreeSans" font-size="10.00" fill="#000000"> position</text>
</g>
<!-- Node9&#45;&gt;Node4 -->
<g id="edge8" class="edge">
<title>Node9&#45;&gt;Node4</title>
<path fill="none" stroke="#9a32cd" stroke-dasharray="5,2" d="M343.9547,-22.289C323.0072,-27.0325 302.976,-32.8384 294.5,-39 274.1513,-53.7926 281.2265,-68.2087 264.5,-87 255.7194,-96.8646 244.0296,-106.1276 234.7653,-112.7868"/>
<polygon fill="#9a32cd" stroke="#9a32cd" points="344.9064,-25.6639 353.9338,-20.1181 343.4184,-18.8239 344.9064,-25.6639"/>
<text text-anchor="middle" x="344.5" y="-66" font-family="FreeSans" font-size="10.00" fill="#000000"> interpolation</text>
<text text-anchor="middle" x="344.5" y="-54" font-family="FreeSans" font-size="10.00" fill="#000000">saved_interpolation</text>
</g>
<!-- Node10 -->
<g id="node10" class="node">
<title>Node10</title>
<g id="a_node10"><a xlink:href="../../d7/dfb/classThreeDeePolynomial.html" target="_top" xlink:title="ThreeDeePolynomial">
<polygon fill="none" stroke="#000000" points="392,-213.5 392,-233.5 513,-233.5 513,-213.5 392,-213.5"/>
<text text-anchor="middle" x="452.5" y="-220.5" font-family="FreeSans" font-size="10.00" fill="#000000">ThreeDeePolynomial</text>
</a>
</g>
</g>
<!-- Node10&#45;&gt;Node9 -->
<g id="edge9" class="edge">
<title>Node10&#45;&gt;Node9</title>
<path fill="none" stroke="#9a32cd" stroke-dasharray="5,2" d="M443.5184,-204.0917C442.1516,-201.0577 440.7734,-197.9507 439.5,-195 429.2314,-171.2058 423.3543,-166.2454 417.5,-141 407.3422,-97.1964 407.5134,-43.0857 408.1124,-20.8152"/>
<polygon fill="#9a32cd" stroke="#9a32cd" points="440.3658,-205.614 447.7042,-213.2559 446.7331,-202.7057 440.3658,-205.614"/>
<text text-anchor="middle" x="429" y="-132" font-family="FreeSans" font-size="10.00" fill="#000000"> hfit</text>
<text text-anchor="middle" x="429" y="-120" font-family="FreeSans" font-size="10.00" fill="#000000">gfit</text>
<text text-anchor="middle" x="429" y="-108" font-family="FreeSans" font-size="10.00" fill="#000000">grad</text>
</g>
<!-- Node11 -->
<g id="node11" class="node">
<title>Node11</title>
<g id="a_node11"><a xlink:href="../../d0/d93/classThreeDeePolySpace.html" target="_top" xlink:title="ThreeDeePolySpace">
<polygon fill="none" stroke="#000000" points="449.5,-113 449.5,-133 567.5,-133 567.5,-113 449.5,-113"/>
<text text-anchor="middle" x="508.5" y="-120" font-family="FreeSans" font-size="10.00" fill="#000000">ThreeDeePolySpace</text>
</a>
</g>
</g>
<!-- Node10&#45;&gt;Node11 -->
<g id="edge11" class="edge">
<title>Node10&#45;&gt;Node11</title>
<path fill="none" stroke="#9a32cd" stroke-dasharray="5,2" d="M446.3041,-203.4143C443.3768,-189.999 441.9668,-172.4214 449.5,-159 456.1366,-147.176 468.4099,-138.7762 480.0506,-133.0814"/>
<polygon fill="#9a32cd" stroke="#9a32cd" points="442.9254,-204.3284 448.8352,-213.1218 449.6989,-202.5622 442.9254,-204.3284"/>
<text text-anchor="middle" x="466" y="-186" font-family="FreeSans" font-size="10.00" fill="#000000"> basis</text>
<text text-anchor="middle" x="466" y="-174" font-family="FreeSans" font-size="10.00" fill="#000000">dbasis</text>
<text text-anchor="middle" x="466" y="-162" font-family="FreeSans" font-size="10.00" fill="#000000">buffer</text>
</g>
<!-- Node11&#45;&gt;Node9 -->
<g id="edge13" class="edge">
<title>Node11&#45;&gt;Node9</title>
<path fill="none" stroke="#9a32cd" stroke-dasharray="5,2" d="M492.4478,-104.9413C471.1568,-80.9889 434.3045,-39.5301 417.4183,-20.5331"/>
<polygon fill="#9a32cd" stroke="#9a32cd" points="490.0119,-107.4691 499.2715,-112.6179 495.2438,-102.8185 490.0119,-107.4691"/>
<text text-anchor="middle" x="499.5" y="-78" font-family="FreeSans" font-size="10.00" fill="#000000"> irregular</text>
<text text-anchor="middle" x="499.5" y="-66" font-family="FreeSans" font-size="10.00" fill="#000000">actual</text>
<text text-anchor="middle" x="499.5" y="-54" font-family="FreeSans" font-size="10.00" fill="#000000">hspace</text>
<text text-anchor="middle" x="499.5" y="-42" font-family="FreeSans" font-size="10.00" fill="#000000">gspace</text>
</g>
<!-- Node11&#45;&gt;Node10 -->
<g id="edge10" class="edge">
<title>Node11&#45;&gt;Node10</title>
<path fill="none" stroke="#9a32cd" stroke-dasharray="5,2" d="M505.5703,-143.007C502.6193,-158.243 496.9519,-179.2148 486.5,-195 481.7375,-202.1927 474.6343,-208.5469 468.1502,-213.4195"/>
<polygon fill="#9a32cd" stroke="#9a32cd" points="509.0317,-143.5298 507.2687,-133.0827 502.132,-142.349 509.0317,-143.5298"/>
<text text-anchor="middle" x="518.5" y="-174" font-family="FreeSans" font-size="10.00" fill="#000000"> space</text>
</g>
<!-- Node12 -->
<g id="node12" class="node">
<title>Node12</title>
<g id="a_node12"><a xlink:href="../../d1/d58/structThreeDeePolyPoint.html" target="_top" xlink:title="ThreeDeePolyPoint">
<polygon fill="none" stroke="#000000" points="531,-213.5 531,-233.5 644,-233.5 644,-213.5 531,-213.5"/>
<text text-anchor="middle" x="587.5" y="-220.5" font-family="FreeSans" font-size="10.00" fill="#000000">ThreeDeePolyPoint</text>
</a>
</g>
</g>
<!-- Node12&#45;&gt;Node11 -->
<g id="edge12" class="edge">
<title>Node12&#45;&gt;Node11</title>
<path fill="none" stroke="#9a32cd" stroke-dasharray="5,2" d="M574.3395,-205.0968C564.8798,-192.0488 551.695,-174.225 539.5,-159 532.3843,-150.1163 523.932,-140.3492 517.6518,-133.2326"/>
<polygon fill="#9a32cd" stroke="#9a32cd" points="571.5488,-207.2108 580.2355,-213.2764 577.2274,-203.1176 571.5488,-207.2108"/>
<text text-anchor="middle" x="583" y="-174" font-family="FreeSans" font-size="10.00" fill="#000000"> points</text>
</g>
<!-- Node13 -->
<g id="node13" class="node">
<title>Node13</title>
<g id="a_node13"><a xlink:href="../../d8/dec/structMgridCell.html" target="_top" xlink:title="MgridCell">
<polygon fill="none" stroke="#000000" points="468,-294.5 468,-314.5 531,-314.5 531,-294.5 468,-294.5"/>
<text text-anchor="middle" x="499.5" y="-301.5" font-family="FreeSans" font-size="10.00" fill="#000000">MgridCell</text>
</a>
</g>
</g>
<!-- Node13&#45;&gt;Node9 -->
<g id="edge14" class="edge">
<title>Node13&#45;&gt;Node9</title>
<path fill="none" stroke="#9a32cd" stroke-dasharray="5,2" d="M541.4336,-298.2957C592.4952,-288.4183 670.0369,-264.6806 653.5,-213 624.4015,-122.062 607.1758,-91.6137 527.5,-39 516.6862,-31.8591 489.153,-25.0517 463.292,-19.8817"/>
<polygon fill="#9a32cd" stroke="#9a32cd" points="540.5064,-294.907 531.2966,-300.1445 541.7623,-301.7934 540.5064,-294.907"/>
<text text-anchor="middle" x="662" y="-174" font-family="FreeSans" font-size="10.00" fill="#000000"> cube</text>
</g>
<!-- Node13&#45;&gt;Node13 -->
<g id="edge15" class="edge">
<title>Node13&#45;&gt;Node13</title>
<path fill="none" stroke="#9a32cd" stroke-dasharray="5,2" d="M541.6478,-310.7413C546.1249,-309.5321 549,-307.4517 549,-304.5 549,-299.6563 541.2576,-297.1587 531.3981,-297.0073"/>
<polygon fill="#9a32cd" stroke="#9a32cd" points="540.9002,-307.3065 531.3981,-311.9927 541.7486,-314.2549 540.9002,-307.3065"/>
<text text-anchor="middle" x="562.5" y="-301.5" font-family="FreeSans" font-size="10.00" fill="#000000"> next</text>
</g>
<!-- Node14 -->
<g id="node14" class="node">
<title>Node14</title>
<g id="a_node14"><a xlink:href="../../d9/dcf/structMgridCombiCell.html" target="_top" xlink:title="MgridCombiCell">
<polygon fill="none" stroke="#000000" points="277.5,-213.5 277.5,-233.5 373.5,-233.5 373.5,-213.5 277.5,-213.5"/>
<text text-anchor="middle" x="325.5" y="-220.5" font-family="FreeSans" font-size="10.00" fill="#000000">MgridCombiCell</text>
</a>
</g>
</g>
<!-- Node13&#45;&gt;Node14 -->
<g id="edge18" class="edge">
<title>Node13&#45;&gt;Node14</title>
<path fill="none" stroke="#9a32cd" stroke-dasharray="5,2" d="M468.5614,-290.0976C433.6454,-273.8435 377.7452,-247.821 347.1847,-233.5946"/>
<polygon fill="#9a32cd" stroke="#9a32cd" points="467.2716,-293.3578 477.8146,-294.4051 470.2259,-287.0117 467.2716,-293.3578"/>
<text text-anchor="middle" x="448" y="-261" font-family="FreeSans" font-size="10.00" fill="#000000"> cell</text>
</g>
<!-- Node14&#45;&gt;Node4 -->
<g id="edge17" class="edge">
<title>Node14&#45;&gt;Node4</title>
<path fill="none" stroke="#9a32cd" stroke-dasharray="5,2" d="M310.4502,-205.3883C298.9733,-192.0008 282.4705,-173.6344 266.5,-159 256.194,-149.5562 243.5735,-139.9863 234.0062,-133.0895"/>
<polygon fill="#9a32cd" stroke="#9a32cd" points="308.0789,-208.0044 317.2102,-213.3775 313.4227,-203.4828 308.0789,-208.0044"/>
<text text-anchor="middle" x="326" y="-174" font-family="FreeSans" font-size="10.00" fill="#000000"> self_qcell</text>
</g>
</g>
</svg>
