<?xml version="1.0" encoding="UTF-8" standalone="no"?>
<!DOCTYPE svg PUBLIC "-//W3C//DTD SVG 1.1//EN"
 "http://www.w3.org/Graphics/SVG/1.1/DTD/svg11.dtd">
<!-- Generated by graphviz version 2.40.1 (20161225.0304)
 -->
<!-- Title: PndRecoKalmanFit::Init Pages: 1 -->
<svg width="497pt" height="80pt"
 viewBox="0.00 0.00 497.00 80.00" xmlns="http://www.w3.org/2000/svg" xmlns:xlink="http://www.w3.org/1999/xlink">
<g id="graph0" class="graph" transform="scale(1 1) rotate(0) translate(4 76)">
<title>PndRecoKalmanFit::Init</title>
<!-- Node1 -->
<g id="node1" class="node">
<title>Node1</title>
<polygon fill="#bfbfbf" stroke="#000000" points="0,-22.5 0,-42.5 133,-42.5 133,-22.5 0,-22.5"/>
<text text-anchor="middle" x="66.5" y="-29.5" font-family="FreeSans" font-size="10.00" fill="#000000">PndRecoKalmanFit::Init</text>
</g>
<!-- Node2 -->
<g id="node2" class="node">
<title>Node2</title>
<g id="a_node2"><a xlink:href="../../d2/d28/classPndRecoMultiKalmanTask.html#a2cd3091d86c861ebbe86473bd5405dd9" target="_top" xlink:title="PndRecoMultiKalmanTask\l::Init">
<polygon fill="none" stroke="#000000" points="169,-39.5 169,-71.5 314,-71.5 314,-39.5 169,-39.5"/>
<text text-anchor="start" x="177" y="-58.5" font-family="FreeSans" font-size="10.00" fill="#000000">PndRecoMultiKalmanTask</text>
<text text-anchor="middle" x="241.5" y="-46.5" font-family="FreeSans" font-size="10.00" fill="#000000">::Init</text>
</a>
</g>
</g>
<!-- Node1&#45;&gt;Node2 -->
<g id="edge1" class="edge">
<title>Node1&#45;&gt;Node2</title>
<path fill="none" stroke="#191970" d="M143.1256,-42.5708C151.6877,-43.6961 160.3909,-44.84 168.9004,-45.9583"/>
<polygon fill="#191970" stroke="#191970" points="143.5301,-39.0939 133.1592,-41.2609 142.6178,-46.0342 143.5301,-39.0939"/>
</g>
<!-- Node3 -->
<g id="node3" class="node">
<title>Node3</title>
<g id="a_node3"><a xlink:href="../../d7/d87/classPndRecoKalmanTask.html#a33b7a5331aaa1b81224f3b2061a2c3eb" target="_top" xlink:title="PndRecoKalmanTask::Init">
<polygon fill="none" stroke="#000000" points="170,-.5 170,-20.5 313,-20.5 313,-.5 170,-.5"/>
<text text-anchor="middle" x="241.5" y="-7.5" font-family="FreeSans" font-size="10.00" fill="#000000">PndRecoKalmanTask::Init</text>
</a>
</g>
</g>
<!-- Node1&#45;&gt;Node3 -->
<g id="edge2" class="edge">
<title>Node1&#45;&gt;Node3</title>
<path fill="none" stroke="#191970" d="M143.0886,-22.8717C151.958,-21.7567 160.9793,-20.6226 169.7803,-19.5162"/>
<polygon fill="#191970" stroke="#191970" points="142.6445,-19.3999 133.1592,-24.12 143.5177,-26.3452 142.6445,-19.3999"/>
</g>
<!-- Node4 -->
<g id="node4" class="node">
<title>Node4</title>
<g id="a_node4"><a xlink:href="../../d2/db6/classEicRecoKalmanTask.html#a268e42220934cbf1250b3eb6c6163d2f" target="_top" xlink:title="EicRecoKalmanTask::Init">
<polygon fill="none" stroke="#000000" points="350,-.5 350,-20.5 489,-20.5 489,-.5 350,-.5"/>
<text text-anchor="middle" x="419.5" y="-7.5" font-family="FreeSans" font-size="10.00" fill="#000000">EicRecoKalmanTask::Init</text>
</a>
</g>
</g>
<!-- Node3&#45;&gt;Node4 -->
<g id="edge3" class="edge">
<title>Node3&#45;&gt;Node4</title>
<path fill="none" stroke="#191970" d="M323.4032,-10.5C332.2088,-10.5 341.1075,-10.5 349.7518,-10.5"/>
<polygon fill="#191970" stroke="#191970" points="323.13,-7.0001 313.13,-10.5 323.13,-14.0001 323.13,-7.0001"/>
</g>
</g>
</svg>
