<?xml version="1.0" encoding="UTF-8" standalone="no"?>
<!DOCTYPE svg PUBLIC "-//W3C//DTD SVG 1.1//EN"
 "http://www.w3.org/Graphics/SVG/1.1/DTD/svg11.dtd">
<!-- Generated by graphviz version 2.40.1 (20161225.0304)
 -->
<!-- Title: fun4all_coresoftware/blob/master/offline/packages/KFParticle_sPHENIX/KFParticle_sPHENIX.h Pages: 1 -->
<svg width="3133pt" height="659pt"
 viewBox="0.00 0.00 3132.82 659.00" xmlns="http://www.w3.org/2000/svg" xmlns:xlink="http://www.w3.org/1999/xlink">
<g id="graph0" class="graph" transform="scale(1 1) rotate(0) translate(4 655)">
<title>fun4all_coresoftware/blob/master/offline/packages/KFParticle_sPHENIX/KFParticle_sPHENIX.h</title>
<!-- Node1 -->
<g id="node1" class="node">
<title>Node1</title>
<polygon fill="#bfbfbf" stroke="#000000" points="254.3195,-594.5 254.3195,-650.5 423.3195,-650.5 423.3195,-594.5 254.3195,-594.5"/>
<text text-anchor="start" x="262.3195" y="-637.5" font-family="FreeSans" font-size="10.00" fill="#000000">fun4all_coresoftware</text>
<text text-anchor="start" x="262.3195" y="-625.5" font-family="FreeSans" font-size="10.00" fill="#000000">/blob/master/offline</text>
<text text-anchor="start" x="262.3195" y="-613.5" font-family="FreeSans" font-size="10.00" fill="#000000">/packages/KFParticle_sPHENIX</text>
<text text-anchor="middle" x="338.8195" y="-601.5" font-family="FreeSans" font-size="10.00" fill="#000000">/KFParticle_sPHENIX.h</text>
</g>
<!-- Node2 -->
<g id="node2" class="node">
<title>Node2</title>
<g id="a_node2"><a xlink:href="../../df/d7c/KFParticle__eventReconstruction_8h.html" target="_top" xlink:title="KFParticle_eventReconstruction.h">
<polygon fill="none" stroke="#000000" points="12.8195,-423.5 12.8195,-443.5 196.8195,-443.5 196.8195,-423.5 12.8195,-423.5"/>
<text text-anchor="middle" x="104.8195" y="-430.5" font-family="FreeSans" font-size="10.00" fill="#000000">KFParticle_eventReconstruction.h</text>
</a>
</g>
</g>
<!-- Node1&#45;&gt;Node2 -->
<g id="edge1" class="edge">
<title>Node1&#45;&gt;Node2</title>
<path fill="none" stroke="#191970" d="M270.6922,-594.4209C250.4124,-584.4559 228.8188,-572.1469 210.8195,-558 170.8897,-526.6163 135.0001,-478.2926 117.0053,-452.0337"/>
<polygon fill="#191970" stroke="#191970" points="119.9002,-450.0665 111.4093,-443.7297 114.0953,-453.9784 119.9002,-450.0665"/>
</g>
<!-- Node7 -->
<g id="node7" class="node">
<title>Node7</title>
<polygon fill="none" stroke="#bfbfbf" points="1738.3195,-246.5 1738.3195,-266.5 1783.3195,-266.5 1783.3195,-246.5 1738.3195,-246.5"/>
<text text-anchor="middle" x="1760.8195" y="-253.5" font-family="FreeSans" font-size="10.00" fill="#000000">string</text>
</g>
<!-- Node1&#45;&gt;Node7 -->
<g id="edge122" class="edge">
<title>Node1&#45;&gt;Node7</title>
<path fill="none" stroke="#191970" d="M423.5779,-619.0291C826.6383,-602.1239 2533.1158,-525.8904 2608.8195,-444 2615.1552,-437.1465 2614.868,-430.1083 2608.8195,-423 2576.4316,-384.9369 2435.8193,-396.8386 2386.8195,-387 2241.1801,-357.7572 2207.2821,-339.1102 2061.8195,-309 1964.7083,-288.8984 1848.9084,-270.1577 1793.5056,-261.5106"/>
<polygon fill="#191970" stroke="#191970" points="1793.9862,-258.0434 1783.5675,-259.9668 1792.9117,-264.9604 1793.9862,-258.0434"/>
</g>
<!-- Node10 -->
<g id="node10" class="node">
<title>Node10</title>
<polygon fill="none" stroke="#bfbfbf" points="1232.3195,-57.5 1232.3195,-77.5 1271.3195,-77.5 1271.3195,-57.5 1232.3195,-57.5"/>
<text text-anchor="middle" x="1251.8195" y="-64.5" font-family="FreeSans" font-size="10.00" fill="#000000">map</text>
</g>
<!-- Node1&#45;&gt;Node10 -->
<g id="edge121" class="edge">
<title>Node1&#45;&gt;Node10</title>
<path fill="none" stroke="#191970" d="M423.4001,-622.2988C786.7995,-621.1042 2217.3268,-612.9357 2663.8195,-558 2802.0467,-540.9928 2969.8195,-629.7695 2969.8195,-490.5 2969.8195,-490.5 2969.8195,-490.5 2969.8195,-256.5 2969.8195,-91.617 2770.1856,-204.8734 2608.8195,-171 2471.2924,-142.1307 2437.4503,-129.8241 2297.8195,-114 2092.9746,-90.7853 1429.9655,-72.2036 1281.5002,-68.2697"/>
<polygon fill="#191970" stroke="#191970" points="1281.4248,-64.7666 1271.3361,-68.002 1281.2405,-71.7642 1281.4248,-64.7666"/>
</g>
<!-- Node11 -->
<g id="node11" class="node">
<title>Node11</title>
<polygon fill="none" stroke="#bfbfbf" points="199.3195,-309.5 199.3195,-329.5 274.3195,-329.5 274.3195,-309.5 199.3195,-309.5"/>
<text text-anchor="middle" x="236.8195" y="-316.5" font-family="FreeSans" font-size="10.00" fill="#000000">KFParticle.h</text>
</g>
<!-- Node1&#45;&gt;Node11 -->
<g id="edge120" class="edge">
<title>Node1&#45;&gt;Node11</title>
<path fill="none" stroke="#191970" d="M293.1082,-594.3346C261.3926,-570.9226 224.8195,-534.4061 224.8195,-490.5 224.8195,-490.5 224.8195,-490.5 224.8195,-433.5 224.8195,-400.4721 229.8628,-362.356 233.4104,-339.6297"/>
<polygon fill="#191970" stroke="#191970" points="236.9027,-339.9589 235.0489,-329.5275 229.993,-338.8381 236.9027,-339.9589"/>
</g>
<!-- Node12 -->
<g id="node12" class="node">
<title>Node12</title>
<g id="a_node12"><a xlink:href="../../d9/dd5/KFParticle__nTuple_8h.html" target="_top" xlink:title="KFParticle_nTuple.h">
<polygon fill="none" stroke="#000000" points="282.3195,-537.5 282.3195,-557.5 395.3195,-557.5 395.3195,-537.5 282.3195,-537.5"/>
<text text-anchor="middle" x="338.8195" y="-544.5" font-family="FreeSans" font-size="10.00" fill="#000000">KFParticle_nTuple.h</text>
</a>
</g>
</g>
<!-- Node1&#45;&gt;Node12 -->
<g id="edge15" class="edge">
<title>Node1&#45;&gt;Node12</title>
<path fill="none" stroke="#191970" d="M338.8195,-594.1457C338.8195,-585.3619 338.8195,-575.8652 338.8195,-567.7476"/>
<polygon fill="#191970" stroke="#191970" points="342.3196,-567.7295 338.8195,-557.7296 335.3196,-567.7296 342.3196,-567.7295"/>
</g>
<!-- Node48 -->
<g id="node48" class="node">
<title>Node48</title>
<g id="a_node48"><a xlink:href="../../de/d89/KFParticle__DST_8h.html" target="_top" xlink:title="KFParticle_DST.h">
<polygon fill="none" stroke="#000000" points="59.3195,-366.5 59.3195,-386.5 158.3195,-386.5 158.3195,-366.5 59.3195,-366.5"/>
<text text-anchor="middle" x="108.8195" y="-373.5" font-family="FreeSans" font-size="10.00" fill="#000000">KFParticle_DST.h</text>
</a>
</g>
</g>
<!-- Node1&#45;&gt;Node48 -->
<g id="edge111" class="edge">
<title>Node1&#45;&gt;Node48</title>
<path fill="none" stroke="#191970" d="M253.9864,-604.8354C172.6118,-582.767 54.8088,-536.1044 3.8195,-444 -10.7489,-417.6844 21.3463,-400.0621 53.7871,-389.4421"/>
<polygon fill="#191970" stroke="#191970" points="54.8291,-392.7835 63.3596,-386.5002 52.7727,-386.0924 54.8291,-392.7835"/>
</g>
<!-- Node49 -->
<g id="node49" class="node">
<title>Node49</title>
<g id="a_node49"><a xlink:href="../../d5/dc2/SubsysReco_8h.html" target="_top" xlink:title="fun4all/SubsysReco.h">
<polygon fill="none" stroke="#000000" points="2395.8195,-366.5 2395.8195,-386.5 2519.8195,-386.5 2519.8195,-366.5 2395.8195,-366.5"/>
<text text-anchor="middle" x="2457.8195" y="-373.5" font-family="FreeSans" font-size="10.00" fill="#000000">fun4all/SubsysReco.h</text>
</a>
</g>
</g>
<!-- Node1&#45;&gt;Node49 -->
<g id="edge115" class="edge">
<title>Node1&#45;&gt;Node49</title>
<path fill="none" stroke="#191970" d="M423.6397,-621.7289C834.7977,-617.7939 2602.4002,-598.5388 2641.8195,-558 2683.6478,-514.9838 2678.6838,-470.3395 2641.8195,-423 2634.1569,-413.16 2571.1967,-398.6941 2521.0286,-388.5161"/>
<polygon fill="#191970" stroke="#191970" points="2521.679,-385.0769 2511.1857,-386.5403 2520.3013,-391.94 2521.679,-385.0769"/>
</g>
<!-- Node3 -->
<g id="node3" class="node">
<title>Node3</title>
<g id="a_node3"><a xlink:href="../../d6/d98/KFParticle__Tools_8h.html" target="_top" xlink:title="KFParticle_Tools.h">
<polygon fill="none" stroke="#000000" points="629.3195,-366.5 629.3195,-386.5 734.3195,-386.5 734.3195,-366.5 629.3195,-366.5"/>
<text text-anchor="middle" x="681.8195" y="-373.5" font-family="FreeSans" font-size="10.00" fill="#000000">KFParticle_Tools.h</text>
</a>
</g>
</g>
<!-- Node2&#45;&gt;Node3 -->
<g id="edge2" class="edge">
<title>Node2&#45;&gt;Node3</title>
<path fill="none" stroke="#191970" d="M196.8849,-424.4052C315.0054,-412.7364 516.7905,-392.8027 618.8064,-382.7249"/>
<polygon fill="#191970" stroke="#191970" points="619.3493,-386.1884 628.9567,-381.7222 618.661,-379.2223 619.3493,-386.1884"/>
</g>
<!-- Node8 -->
<g id="node8" class="node">
<title>Node8</title>
<polygon fill="none" stroke="#bfbfbf" points="378.3195,-57.5 378.3195,-77.5 427.3195,-77.5 427.3195,-57.5 378.3195,-57.5"/>
<text text-anchor="middle" x="402.8195" y="-64.5" font-family="FreeSans" font-size="10.00" fill="#000000">vector</text>
</g>
<!-- Node2&#45;&gt;Node8 -->
<g id="edge14" class="edge">
<title>Node2&#45;&gt;Node8</title>
<path fill="none" stroke="#191970" d="M88.2984,-423.4546C75.9709,-415.1408 59.6288,-402.2479 49.8195,-387 32.9578,-360.7895 30.8195,-350.6658 30.8195,-319.5 30.8195,-319.5 30.8195,-319.5 30.8195,-187.5 30.8195,-117.0122 275.7927,-81.9023 368.1483,-71.1704"/>
<polygon fill="#191970" stroke="#191970" points="368.5823,-74.6437 378.1235,-70.0376 367.7924,-67.6884 368.5823,-74.6437"/>
</g>
<!-- Node2&#45;&gt;Node11 -->
<g id="edge13" class="edge">
<title>Node2&#45;&gt;Node11</title>
<path fill="none" stroke="#191970" d="M119.4934,-423.2771C132.3105,-414.1658 151.2483,-400.2588 166.8195,-387 185.731,-370.8971 206.0255,-351.0086 219.8672,-337.0044"/>
<polygon fill="#191970" stroke="#191970" points="222.711,-339.1032 227.212,-329.512 217.7122,-334.2029 222.711,-339.1032"/>
</g>
<!-- Node4 -->
<g id="node4" class="node">
<title>Node4</title>
<g id="a_node4"><a xlink:href="../../db/d02/KFParticle__MVA_8h.html" target="_top" xlink:title="KFParticle_MVA.h">
<polygon fill="none" stroke="#000000" points="630.8195,-309.5 630.8195,-329.5 732.8195,-329.5 732.8195,-309.5 630.8195,-309.5"/>
<text text-anchor="middle" x="681.8195" y="-316.5" font-family="FreeSans" font-size="10.00" fill="#000000">KFParticle_MVA.h</text>
</a>
</g>
</g>
<!-- Node3&#45;&gt;Node4 -->
<g id="edge3" class="edge">
<title>Node3&#45;&gt;Node4</title>
<path fill="none" stroke="#191970" d="M681.8195,-366.3095C681.8195,-358.9335 681.8195,-348.72 681.8195,-339.715"/>
<polygon fill="#191970" stroke="#191970" points="685.3196,-339.6022 681.8195,-329.6022 678.3196,-339.6023 685.3196,-339.6022"/>
</g>
<!-- Node3&#45;&gt;Node8 -->
<g id="edge12" class="edge">
<title>Node3&#45;&gt;Node8</title>
<path fill="none" stroke="#191970" d="M629.2289,-373.1368C558.3172,-365.4275 440.8195,-340.0479 440.8195,-256.5 440.8195,-256.5 440.8195,-256.5 440.8195,-187.5 440.8195,-150.5702 424.2604,-110.1051 413.0044,-86.865"/>
<polygon fill="#191970" stroke="#191970" points="416.0413,-85.1131 408.4266,-77.7465 409.7854,-88.2538 416.0413,-85.1131"/>
</g>
<!-- Node9 -->
<g id="node9" class="node">
<title>Node9</title>
<g id="a_node9"><a xlink:href="../../d2/d82/KFParticle__particleList_8h.html" target="_top" xlink:title="KFParticle_particleList.h">
<polygon fill="none" stroke="#000000" points="1008.8195,-177.5 1008.8195,-197.5 1144.8195,-197.5 1144.8195,-177.5 1008.8195,-177.5"/>
<text text-anchor="middle" x="1076.8195" y="-184.5" font-family="FreeSans" font-size="10.00" fill="#000000">KFParticle_particleList.h</text>
</a>
</g>
</g>
<!-- Node3&#45;&gt;Node9 -->
<g id="edge8" class="edge">
<title>Node3&#45;&gt;Node9</title>
<path fill="none" stroke="#191970" d="M734.4565,-366.8793C798.8982,-353.3797 909.5911,-324.501 991.8195,-273 1020.8933,-254.7906 1047.5802,-224.8518 1063.0194,-205.6664"/>
<polygon fill="#191970" stroke="#191970" points="1065.8618,-207.7139 1069.2898,-197.689 1060.3584,-203.3881 1065.8618,-207.7139"/>
</g>
<!-- Node3&#45;&gt;Node10 -->
<g id="edge11" class="edge">
<title>Node3&#45;&gt;Node10</title>
<path fill="none" stroke="#191970" d="M696.1927,-366.4392C708.7071,-357.4319 727.0995,-343.5863 741.8195,-330 812.0992,-265.1337 807.6795,-224.7002 886.8195,-171 916.4987,-150.8613 1003.4245,-124.1687 1037.8195,-114 1102.552,-94.8623 1180.428,-79.9039 1222.0808,-72.5328"/>
<polygon fill="#191970" stroke="#191970" points="1222.8536,-75.9509 1232.1023,-70.7826 1221.6493,-69.0553 1222.8536,-75.9509"/>
</g>
<!-- Node3&#45;&gt;Node11 -->
<g id="edge10" class="edge">
<title>Node3&#45;&gt;Node11</title>
<path fill="none" stroke="#191970" d="M629.0247,-369.7375C541.6159,-358.5413 368.1781,-336.3257 284.3613,-325.5896"/>
<polygon fill="#191970" stroke="#191970" points="284.7177,-322.1068 274.3541,-324.3078 283.8283,-329.05 284.7177,-322.1068"/>
</g>
<!-- Node5 -->
<g id="node5" class="node">
<title>Node5</title>
<polygon fill="none" stroke="#bfbfbf" points="663.3195,-246.5 663.3195,-266.5 756.3195,-266.5 756.3195,-246.5 663.3195,-246.5"/>
<text text-anchor="middle" x="709.8195" y="-253.5" font-family="FreeSans" font-size="10.00" fill="#000000">TMVA/Reader.h</text>
</g>
<!-- Node4&#45;&gt;Node5 -->
<g id="edge4" class="edge">
<title>Node4&#45;&gt;Node5</title>
<path fill="none" stroke="#191970" d="M686.3182,-309.378C690.295,-300.4302 696.2085,-287.125 701.1085,-276.0999"/>
<polygon fill="#191970" stroke="#191970" points="704.3759,-277.3658 705.239,-266.8062 697.9792,-274.5228 704.3759,-277.3658"/>
</g>
<!-- Node6 -->
<g id="node6" class="node">
<title>Node6</title>
<polygon fill="none" stroke="#bfbfbf" points="562.3195,-246.5 562.3195,-266.5 645.3195,-266.5 645.3195,-246.5 562.3195,-246.5"/>
<text text-anchor="middle" x="603.8195" y="-253.5" font-family="FreeSans" font-size="10.00" fill="#000000">TMVA/Tools.h</text>
</g>
<!-- Node4&#45;&gt;Node6 -->
<g id="edge5" class="edge">
<title>Node4&#45;&gt;Node6</title>
<path fill="none" stroke="#191970" d="M669.2875,-309.378C657.1199,-299.5503 638.4442,-284.4661 624.1489,-272.9198"/>
<polygon fill="#191970" stroke="#191970" points="626.2991,-270.1575 616.3205,-266.5969 621.9007,-275.6031 626.2991,-270.1575"/>
</g>
<!-- Node4&#45;&gt;Node7 -->
<g id="edge6" class="edge">
<title>Node4&#45;&gt;Node7</title>
<path fill="none" stroke="#191970" d="M733.1361,-316.5038C921.6832,-305.495 1573.2063,-267.4543 1727.7525,-258.4307"/>
<polygon fill="#191970" stroke="#191970" points="1728.2289,-261.9089 1738.0078,-257.8319 1727.8208,-254.9208 1728.2289,-261.9089"/>
</g>
<!-- Node4&#45;&gt;Node8 -->
<g id="edge7" class="edge">
<title>Node4&#45;&gt;Node8</title>
<path fill="none" stroke="#191970" d="M630.687,-309.4969C605.22,-302.5437 575.1781,-291.1622 552.8195,-273 488.3874,-220.661 508.0913,-177.663 454.8195,-114 445.7117,-103.1155 434.0458,-92.4521 424.0725,-84.0882"/>
<polygon fill="#191970" stroke="#191970" points="426.1457,-81.2626 416.1862,-77.649 421.7185,-86.6847 426.1457,-81.2626"/>
</g>
<!-- Node9&#45;&gt;Node10 -->
<g id="edge9" class="edge">
<title>Node9&#45;&gt;Node10</title>
<path fill="none" stroke="#191970" d="M1091.4389,-177.4753C1121.7308,-156.7037 1191.5803,-108.8069 1228.2948,-83.6313"/>
<polygon fill="#191970" stroke="#191970" points="1230.6028,-86.2925 1236.8708,-77.7506 1226.6441,-80.5193 1230.6028,-86.2925"/>
</g>
<!-- Node12&#45;&gt;Node8 -->
<g id="edge110" class="edge">
<title>Node12&#45;&gt;Node8</title>
<path fill="none" stroke="#191970" d="M338.1048,-537.4543C335.5214,-500.2454 326.8195,-366.729 326.8195,-256.5 326.8195,-256.5 326.8195,-256.5 326.8195,-187.5 326.8195,-145.3668 360.6721,-106.022 383.1905,-84.5109"/>
<polygon fill="#191970" stroke="#191970" points="385.6298,-87.0225 390.6088,-77.6705 380.8845,-81.8764 385.6298,-87.0225"/>
</g>
<!-- Node12&#45;&gt;Node11 -->
<g id="edge109" class="edge">
<title>Node12&#45;&gt;Node11</title>
<path fill="none" stroke="#191970" d="M334.3051,-537.4089C318.6413,-502.3957 266.4546,-385.743 245.5697,-339.0591"/>
<polygon fill="#191970" stroke="#191970" points="248.6761,-337.4321 241.3976,-329.7332 242.2864,-340.2907 248.6761,-337.4321"/>
</g>
<!-- Node13 -->
<g id="node13" class="node">
<title>Node13</title>
<g id="a_node13"><a xlink:href="../../d6/dd4/KFParticle__truthAndDetTools_8h.html" target="_top" xlink:title="KFParticle_truthAndDetTools.h">
<polygon fill="none" stroke="#000000" points="1615.8195,-480.5 1615.8195,-500.5 1783.8195,-500.5 1783.8195,-480.5 1615.8195,-480.5"/>
<text text-anchor="middle" x="1699.8195" y="-487.5" font-family="FreeSans" font-size="10.00" fill="#000000">KFParticle_truthAndDetTools.h</text>
</a>
</g>
</g>
<!-- Node12&#45;&gt;Node13 -->
<g id="edge16" class="edge">
<title>Node12&#45;&gt;Node13</title>
<path fill="none" stroke="#191970" d="M395.5673,-545.1234C605.815,-536.318 1341.7989,-505.4943 1605.183,-494.4635"/>
<polygon fill="#191970" stroke="#191970" points="1605.639,-497.9475 1615.4838,-494.0321 1605.346,-490.9537 1605.639,-497.9475"/>
</g>
<!-- Node13&#45;&gt;Node3 -->
<g id="edge17" class="edge">
<title>Node13&#45;&gt;Node3</title>
<path fill="none" stroke="#191970" d="M1615.6262,-487.6193C1443.9906,-481.3858 1058.8958,-465.4593 928.8195,-444 853.8832,-431.6374 768.9572,-405.7121 720.7509,-389.833"/>
<polygon fill="#191970" stroke="#191970" points="721.6319,-386.4376 711.0384,-386.6056 719.4245,-393.0805 721.6319,-386.4376"/>
</g>
<!-- Node13&#45;&gt;Node7 -->
<g id="edge107" class="edge">
<title>Node13&#45;&gt;Node7</title>
<path fill="none" stroke="#191970" d="M1704.1173,-480.3307C1710.492,-466.1604 1723.5794,-440.2749 1740.8195,-423 1762.5187,-401.2571 1776.2142,-406.6568 1799.8195,-387 1825.9418,-365.2473 1838.6872,-361.7547 1850.8195,-330 1862.5139,-299.3918 1823.1404,-278.0363 1792.7927,-266.5136"/>
<polygon fill="#191970" stroke="#191970" points="1793.9274,-263.2023 1783.3329,-263.1187 1791.5629,-269.7908 1793.9274,-263.2023"/>
</g>
<!-- Node13&#45;&gt;Node8 -->
<g id="edge108" class="edge">
<title>Node13&#45;&gt;Node8</title>
<path fill="none" stroke="#191970" d="M1615.4981,-488.5526C1412.0956,-483.5176 898.7557,-468.7082 728.8195,-444 623.7468,-428.7228 590.1911,-437.5512 496.8195,-387 424.2723,-347.7231 364.8195,-338.9971 364.8195,-256.5 364.8195,-256.5 364.8195,-256.5 364.8195,-187.5 364.8195,-150.5702 381.3786,-110.1051 392.6347,-86.865"/>
<polygon fill="#191970" stroke="#191970" points="395.8537,-88.2538 397.2125,-77.7465 389.5978,-85.1131 395.8537,-88.2538"/>
</g>
<!-- Node13&#45;&gt;Node11 -->
<g id="edge100" class="edge">
<title>Node13&#45;&gt;Node11</title>
<path fill="none" stroke="#191970" d="M1615.3254,-489.2522C1330.5334,-484.826 420.3379,-468.8004 362.8195,-444 335.8599,-432.3757 279.0232,-368.8331 251.8744,-337.2851"/>
<polygon fill="#191970" stroke="#191970" points="254.5087,-334.9802 245.35,-329.6539 249.1882,-339.5291 254.5087,-334.9802"/>
</g>
<!-- Node14 -->
<g id="node14" class="node">
<title>Node14</title>
<g id="a_node14"><a xlink:href="../../df/dfe/InttDefs_8h.html" target="_top" xlink:title="Utility functions for INTT.">
<polygon fill="none" stroke="#000000" points="2814.8195,-114.5 2814.8195,-134.5 2900.8195,-134.5 2900.8195,-114.5 2814.8195,-114.5"/>
<text text-anchor="middle" x="2857.8195" y="-121.5" font-family="FreeSans" font-size="10.00" fill="#000000">intt/InttDefs.h</text>
</a>
</g>
</g>
<!-- Node13&#45;&gt;Node14 -->
<g id="edge18" class="edge">
<title>Node13&#45;&gt;Node14</title>
<path fill="none" stroke="#191970" d="M1784.0229,-489.6026C2039.3135,-486.5466 2789.8103,-474.9601 2831.8195,-444 2857.4507,-425.1103 2855.8195,-408.3399 2855.8195,-376.5 2855.8195,-376.5 2855.8195,-376.5 2855.8195,-256.5 2855.8195,-216.9696 2856.7274,-170.7878 2857.3198,-144.8608"/>
<polygon fill="#191970" stroke="#191970" points="2860.8209,-144.8484 2857.5581,-134.7685 2853.8229,-144.6831 2860.8209,-144.8484"/>
</g>
<!-- Node15 -->
<g id="node15" class="node">
<title>Node15</title>
<g id="a_node15"><a xlink:href="../../d8/d00/TrkrDefs_8h.html" target="_top" xlink:title="Namespace with Trkr key types and utility functions.">
<polygon fill="none" stroke="#ff0000" points="2470.8195,-57.5 2470.8195,-77.5 2590.8195,-77.5 2590.8195,-57.5 2470.8195,-57.5"/>
<text text-anchor="middle" x="2530.8195" y="-64.5" font-family="FreeSans" font-size="10.00" fill="#000000">trackbase/TrkrDefs.h</text>
</a>
</g>
</g>
<!-- Node13&#45;&gt;Node15 -->
<g id="edge98" class="edge">
<title>Node13&#45;&gt;Node15</title>
<path fill="none" stroke="#191970" d="M1784.1766,-488.3593C2015.7246,-482.2397 2646.6901,-463.8316 2686.8195,-444 2743.3945,-416.0411 2751.9392,-368.4675 2730.8195,-309 2695.3723,-209.1899 2667.8336,-189.766 2593.8195,-114 2582.5063,-102.419 2568.0847,-91.5496 2555.8951,-83.2362"/>
<polygon fill="#191970" stroke="#191970" points="2557.7582,-80.272 2547.4901,-77.6608 2553.8887,-86.1053 2557.7582,-80.272"/>
</g>
<!-- Node17 -->
<g id="node17" class="node">
<title>Node17</title>
<g id="a_node17"><a xlink:href="../../d1/d82/MvtxDefs_8h.html" target="_top" xlink:title="Utility functions for MVTX.">
<polygon fill="none" stroke="#000000" points="2918.8195,-114.5 2918.8195,-134.5 3020.8195,-134.5 3020.8195,-114.5 2918.8195,-114.5"/>
<text text-anchor="middle" x="2969.8195" y="-121.5" font-family="FreeSans" font-size="10.00" fill="#000000">mvtx/MvtxDefs.h</text>
</a>
</g>
</g>
<!-- Node13&#45;&gt;Node17 -->
<g id="edge22" class="edge">
<title>Node13&#45;&gt;Node17</title>
<path fill="none" stroke="#191970" d="M1784.1243,-489.3234C2042.5842,-485.4254 2809.169,-471.5855 2854.8195,-444 2884.4734,-426.0809 2893.8195,-411.1474 2893.8195,-376.5 2893.8195,-376.5 2893.8195,-376.5 2893.8195,-256.5 2893.8195,-217.0313 2896.9407,-204.4941 2917.8195,-171 2925.1271,-159.2772 2936.2459,-148.7695 2946.3289,-140.7214"/>
<polygon fill="#191970" stroke="#191970" points="2948.5935,-143.3967 2954.4487,-134.5667 2944.3651,-137.8181 2948.5935,-143.3967"/>
</g>
<!-- Node18 -->
<g id="node18" class="node">
<title>Node18</title>
<g id="a_node18"><a xlink:href="../../d4/de3/TpcDefs_8h.html" target="_top" xlink:title="Utility functions for TPC.">
<polygon fill="none" stroke="#000000" points="3038.8195,-114.5 3038.8195,-134.5 3124.8195,-134.5 3124.8195,-114.5 3038.8195,-114.5"/>
<text text-anchor="middle" x="3081.8195" y="-121.5" font-family="FreeSans" font-size="10.00" fill="#000000">tpc/TpcDefs.h</text>
</a>
</g>
</g>
<!-- Node13&#45;&gt;Node18 -->
<g id="edge25" class="edge">
<title>Node13&#45;&gt;Node18</title>
<path fill="none" stroke="#191970" d="M1784.0266,-489.1545C2046.0534,-484.7093 2832.3713,-469.3183 2880.8195,-444 2914.1438,-426.5853 2931.8195,-414.1002 2931.8195,-376.5 2931.8195,-376.5 2931.8195,-376.5 2931.8195,-256.5 2931.8195,-196.7119 2999.8106,-157.5971 3044.2419,-138.4191"/>
<polygon fill="#191970" stroke="#191970" points="3045.72,-141.595 3053.6057,-134.5192 3043.0286,-135.133 3045.72,-141.595"/>
</g>
<!-- Node19 -->
<g id="node19" class="node">
<title>Node19</title>
<g id="a_node19"><a xlink:href="../../d7/dcd/SvtxClusterEval_8h.html" target="_top" xlink:title="g4eval/SvtxClusterEval.h">
<polygon fill="none" stroke="#000000" points="840.3195,-246.5 840.3195,-266.5 983.3195,-266.5 983.3195,-246.5 840.3195,-246.5"/>
<text text-anchor="middle" x="911.8195" y="-253.5" font-family="FreeSans" font-size="10.00" fill="#000000">g4eval/SvtxClusterEval.h</text>
</a>
</g>
</g>
<!-- Node13&#45;&gt;Node19 -->
<g id="edge28" class="edge">
<title>Node13&#45;&gt;Node19</title>
<path fill="none" stroke="#191970" d="M1615.7113,-489.7045C1440.3173,-487.3635 1047.6015,-478.3105 997.8195,-444 940.5311,-404.516 920.6651,-316.9734 914.4159,-277.056"/>
<polygon fill="#191970" stroke="#191970" points="917.8481,-276.3326 912.9674,-266.929 910.9186,-277.3239 917.8481,-276.3326"/>
</g>
<!-- Node20 -->
<g id="node20" class="node">
<title>Node20</title>
<g id="a_node20"><a xlink:href="../../d7/d98/SvtxHitEval_8h.html" target="_top" xlink:title="SvtxHitEval.h">
<polygon fill="none" stroke="#000000" points="906.8195,-177.5 906.8195,-197.5 990.8195,-197.5 990.8195,-177.5 906.8195,-177.5"/>
<text text-anchor="middle" x="948.8195" y="-184.5" font-family="FreeSans" font-size="10.00" fill="#000000">SvtxHitEval.h</text>
</a>
</g>
</g>
<!-- Node13&#45;&gt;Node20 -->
<g id="edge67" class="edge">
<title>Node13&#45;&gt;Node20</title>
<path fill="none" stroke="#191970" d="M1615.6611,-487.4515C1482.6528,-481.9624 1230.0941,-468.6283 1143.8195,-444 1080.4585,-425.9127 1011.8195,-442.3922 1011.8195,-376.5 1011.8195,-376.5 1011.8195,-376.5 1011.8195,-319.5 1011.8195,-283.0657 1008.2015,-272.5436 991.8195,-240 985.3634,-227.1745 975.3086,-214.6618 966.5449,-205.071"/>
<polygon fill="#191970" stroke="#191970" points="969.021,-202.5957 959.5945,-197.7592 963.9474,-207.4185 969.021,-202.5957"/>
</g>
<!-- Node21 -->
<g id="node21" class="node">
<title>Node21</title>
<g id="a_node21"><a xlink:href="../../d7/d20/SvtxTruthEval_8h.html" target="_top" xlink:title="SvtxTruthEval.h">
<polygon fill="none" stroke="#ff0000" points="862.3195,-114.5 862.3195,-134.5 957.3195,-134.5 957.3195,-114.5 862.3195,-114.5"/>
<text text-anchor="middle" x="909.8195" y="-121.5" font-family="FreeSans" font-size="10.00" fill="#000000">SvtxTruthEval.h</text>
</a>
</g>
</g>
<!-- Node13&#45;&gt;Node21 -->
<g id="edge69" class="edge">
<title>Node13&#45;&gt;Node21</title>
<path fill="none" stroke="#191970" d="M1615.5378,-488.287C1427.5219,-482.9784 978.6013,-468.1401 828.8195,-444 733.7647,-428.6802 711.7354,-415.6635 619.8195,-387 546.9536,-364.2771 501.934,-392.2872 457.8195,-330 418.0279,-273.8163 344.0453,-297.9401 535.8195,-171 592.5716,-133.4344 767.8646,-144.4267 852.2107,-134.8259"/>
<polygon fill="#191970" stroke="#191970" points="852.812,-138.2772 862.2748,-133.5121 851.9058,-131.3361 852.812,-138.2772"/>
</g>
<!-- Node27 -->
<g id="node27" class="node">
<title>Node27</title>
<g id="a_node27"><a xlink:href="../../d3/d59/SvtxEvalStack_8h.html" target="_top" xlink:title="g4eval/SvtxEvalStack.h">
<polygon fill="none" stroke="#000000" points="1197.3195,-423.5 1197.3195,-443.5 1332.3195,-443.5 1332.3195,-423.5 1197.3195,-423.5"/>
<text text-anchor="middle" x="1264.8195" y="-430.5" font-family="FreeSans" font-size="10.00" fill="#000000">g4eval/SvtxEvalStack.h</text>
</a>
</g>
</g>
<!-- Node13&#45;&gt;Node27 -->
<g id="edge53" class="edge">
<title>Node13&#45;&gt;Node27</title>
<path fill="none" stroke="#191970" d="M1623.0516,-480.4408C1544.1097,-470.0966 1421.8217,-454.0727 1342.535,-443.6834"/>
<polygon fill="#191970" stroke="#191970" points="1342.9745,-440.2112 1332.6045,-442.3822 1342.065,-447.1518 1342.9745,-440.2112"/>
</g>
<!-- Node28 -->
<g id="node28" class="node">
<title>Node28</title>
<g id="a_node28"><a xlink:href="../../d5/d9c/SvtxVertexEval_8h.html" target="_top" xlink:title="SvtxVertexEval.h">
<polygon fill="none" stroke="#000000" points="1308.8195,-366.5 1308.8195,-386.5 1410.8195,-386.5 1410.8195,-366.5 1308.8195,-366.5"/>
<text text-anchor="middle" x="1359.8195" y="-373.5" font-family="FreeSans" font-size="10.00" fill="#000000">SvtxVertexEval.h</text>
</a>
</g>
</g>
<!-- Node13&#45;&gt;Node28 -->
<g id="edge70" class="edge">
<title>Node13&#45;&gt;Node28</title>
<path fill="none" stroke="#191970" d="M1615.7988,-488.9363C1477.9257,-485.4912 1216.0528,-474.9136 1187.8195,-444 1151.7539,-404.5104 1235.6121,-387.8275 1298.4906,-380.9941"/>
<polygon fill="#191970" stroke="#191970" points="1299.1808,-384.4419 1308.7726,-379.9422 1298.4683,-377.4782 1299.1808,-384.4419"/>
</g>
<!-- Node29 -->
<g id="node29" class="node">
<title>Node29</title>
<g id="a_node29"><a xlink:href="../../df/d8a/SvtxTrackEval_8h.html" target="_top" xlink:title="SvtxTrackEval.h">
<polygon fill="none" stroke="#000000" points="1276.8195,-309.5 1276.8195,-329.5 1372.8195,-329.5 1372.8195,-309.5 1276.8195,-309.5"/>
<text text-anchor="middle" x="1324.8195" y="-316.5" font-family="FreeSans" font-size="10.00" fill="#000000">SvtxTrackEval.h</text>
</a>
</g>
</g>
<!-- Node13&#45;&gt;Node29 -->
<g id="edge68" class="edge">
<title>Node13&#45;&gt;Node29</title>
<path fill="none" stroke="#191970" d="M1615.8011,-489.1284C1475.2445,-485.9544 1204.8766,-475.7498 1175.8195,-444 1134.1901,-398.5128 1228.1221,-354.4662 1285.1455,-333.0248"/>
<polygon fill="#191970" stroke="#191970" points="1286.4603,-336.2705 1294.6382,-329.5346 1284.0446,-329.7005 1286.4603,-336.2705"/>
</g>
<!-- Node30 -->
<g id="node30" class="node">
<title>Node30</title>
<g id="a_node30"><a xlink:href="../../dd/d05/PHG4Particle_8h.html" target="_top" xlink:title="g4main/PHG4Particle.h">
<polygon fill="none" stroke="#ff0000" points="1694.8195,-309.5 1694.8195,-329.5 1826.8195,-329.5 1826.8195,-309.5 1694.8195,-309.5"/>
<text text-anchor="middle" x="1760.8195" y="-316.5" font-family="FreeSans" font-size="10.00" fill="#000000">g4main/PHG4Particle.h</text>
</a>
</g>
</g>
<!-- Node13&#45;&gt;Node30 -->
<g id="edge71" class="edge">
<title>Node13&#45;&gt;Node30</title>
<path fill="none" stroke="#191970" d="M1694.3315,-480.3433C1683.0901,-458.0318 1660.2477,-403.7286 1681.8195,-366 1690.0491,-351.6066 1704.6638,-341.2272 1719.1038,-333.9785"/>
<polygon fill="#191970" stroke="#191970" points="1720.8769,-337.0154 1728.4989,-329.6564 1717.9513,-330.6561 1720.8769,-337.0154"/>
</g>
<!-- Node31 -->
<g id="node31" class="node">
<title>Node31</title>
<g id="a_node31"><a xlink:href="../../d0/d25/PHG4TruthInfoContainer_8h.html" target="_top" xlink:title="g4main/PHG4TruthInfoContainer.h">
<polygon fill="none" stroke="#ff0000" points="1388.8195,-423.5 1388.8195,-443.5 1576.8195,-443.5 1576.8195,-423.5 1388.8195,-423.5"/>
<text text-anchor="middle" x="1482.8195" y="-430.5" font-family="FreeSans" font-size="10.00" fill="#000000">g4main/PHG4TruthInfoContainer.h</text>
</a>
</g>
</g>
<!-- Node13&#45;&gt;Node31 -->
<g id="edge73" class="edge">
<title>Node13&#45;&gt;Node31</title>
<path fill="none" stroke="#191970" d="M1661.5238,-480.4408C1625.1468,-470.8855 1570.3188,-456.4837 1530.9921,-446.1536"/>
<polygon fill="#191970" stroke="#191970" points="1531.6579,-442.7098 1521.0968,-443.5544 1529.8795,-449.4802 1531.6579,-442.7098"/>
</g>
<!-- Node32 -->
<g id="node32" class="node">
<title>Node32</title>
<polygon fill="none" stroke="#bfbfbf" points="1580.8195,-366.5 1580.8195,-386.5 1634.8195,-386.5 1634.8195,-366.5 1580.8195,-366.5"/>
<text text-anchor="middle" x="1607.8195" y="-373.5" font-family="FreeSans" font-size="10.00" fill="#000000">iterator</text>
</g>
<!-- Node13&#45;&gt;Node32 -->
<g id="edge106" class="edge">
<title>Node13&#45;&gt;Node32</title>
<path fill="none" stroke="#191970" d="M1676.6136,-480.4855C1661.0258,-472.6544 1641.154,-460.3507 1628.8195,-444 1618.3358,-430.1027 1613.0226,-410.8831 1610.3688,-396.5057"/>
<polygon fill="#191970" stroke="#191970" points="1613.8259,-395.9589 1608.8161,-386.6234 1606.9107,-397.0455 1613.8259,-395.9589"/>
</g>
<!-- Node33 -->
<g id="node33" class="node">
<title>Node33</title>
<g id="a_node33"><a xlink:href="../../d4/d2a/PHG4VtxPoint_8h.html" target="_top" xlink:title="g4main/PHG4VtxPoint.h">
<polygon fill="none" stroke="#ff0000" points="2538.3195,-366.5 2538.3195,-386.5 2675.3195,-386.5 2675.3195,-366.5 2538.3195,-366.5"/>
<text text-anchor="middle" x="2606.8195" y="-373.5" font-family="FreeSans" font-size="10.00" fill="#000000">g4main/PHG4VtxPoint.h</text>
</a>
</g>
</g>
<!-- Node13&#45;&gt;Node33 -->
<g id="edge77" class="edge">
<title>Node13&#45;&gt;Node33</title>
<path fill="none" stroke="#191970" d="M1783.8829,-489.2992C2003.7123,-485.7498 2580.656,-473.6411 2608.8195,-444 2620.5164,-431.6895 2618.3369,-411.701 2614.239,-396.6638"/>
<polygon fill="#191970" stroke="#191970" points="2617.4575,-395.2357 2611.087,-386.77 2610.7878,-397.3606 2617.4575,-395.2357"/>
</g>
<!-- Node35 -->
<g id="node35" class="node">
<title>Node35</title>
<g id="a_node35"><a xlink:href="../../d3/d8c/PHHepMCGenEvent_8h.html" target="_top" xlink:title="phhepmc/PHHepMCGenEvent.h">
<polygon fill="none" stroke="#ff0000" points="1898.8195,-366.5 1898.8195,-386.5 2074.8195,-386.5 2074.8195,-366.5 1898.8195,-366.5"/>
<text text-anchor="middle" x="1986.8195" y="-373.5" font-family="FreeSans" font-size="10.00" fill="#000000">phhepmc/PHHepMCGenEvent.h</text>
</a>
</g>
</g>
<!-- Node13&#45;&gt;Node35 -->
<g id="edge79" class="edge">
<title>Node13&#45;&gt;Node35</title>
<path fill="none" stroke="#191970" d="M1714.0488,-480.4492C1735.1515,-465.9468 1776.3963,-439.1277 1814.8195,-423 1850.4904,-408.0276 1892.3581,-396.5864 1925.8548,-388.7996"/>
<polygon fill="#191970" stroke="#191970" points="1926.9905,-392.1307 1935.9655,-386.5004 1925.4383,-385.305 1926.9905,-392.1307"/>
</g>
<!-- Node36 -->
<g id="node36" class="node">
<title>Node36</title>
<polygon fill="none" stroke="#bfbfbf" points="1921.3195,-309.5 1921.3195,-329.5 2052.3195,-329.5 2052.3195,-309.5 1921.3195,-309.5"/>
<text text-anchor="middle" x="1986.8195" y="-316.5" font-family="FreeSans" font-size="10.00" fill="#000000">HepMC/SimpleVector.h</text>
</g>
<!-- Node13&#45;&gt;Node36 -->
<g id="edge104" class="edge">
<title>Node13&#45;&gt;Node36</title>
<path fill="none" stroke="#191970" d="M1708.6346,-480.3045C1721.3043,-466.1032 1745.893,-440.1811 1770.8195,-423 1802.5821,-401.107 1901.7674,-356.5808 1953.9582,-333.7295"/>
<polygon fill="#191970" stroke="#191970" points="1955.6686,-336.8019 1963.433,-329.5932 1952.8679,-330.3866 1955.6686,-336.8019"/>
</g>
<!-- Node37 -->
<g id="node37" class="node">
<title>Node37</title>
<g id="a_node37"><a xlink:href="../../d4/dd2/PHHepMCGenEventMap_8h.html" target="_top" xlink:title="phhepmc/PHHepMCGenEventMap.h">
<polygon fill="none" stroke="#ff0000" points="2402.3195,-423.5 2402.3195,-443.5 2599.3195,-443.5 2599.3195,-423.5 2402.3195,-423.5"/>
<text text-anchor="middle" x="2500.8195" y="-430.5" font-family="FreeSans" font-size="10.00" fill="#000000">phhepmc/PHHepMCGenEventMap.h</text>
</a>
</g>
</g>
<!-- Node13&#45;&gt;Node37 -->
<g id="edge81" class="edge">
<title>Node13&#45;&gt;Node37</title>
<path fill="none" stroke="#191970" d="M1784.0101,-485.701C1912.7335,-478.1762 2166.4643,-462.6072 2392.2468,-444.1105"/>
<polygon fill="#191970" stroke="#191970" points="2392.618,-447.5919 2402.2974,-443.2837 2392.044,-440.6155 2392.618,-447.5919"/>
</g>
<!-- Node38 -->
<g id="node38" class="node">
<title>Node38</title>
<g id="a_node38"><a xlink:href="../../dd/dd4/getClass_8h.html" target="_top" xlink:title="phool/getClass.h">
<polygon fill="none" stroke="#ff0000" points="1690.8195,-366.5 1690.8195,-386.5 1790.8195,-386.5 1790.8195,-366.5 1690.8195,-366.5"/>
<text text-anchor="middle" x="1740.8195" y="-373.5" font-family="FreeSans" font-size="10.00" fill="#000000">phool/getClass.h</text>
</a>
</g>
</g>
<!-- Node13&#45;&gt;Node38 -->
<g id="edge84" class="edge">
<title>Node13&#45;&gt;Node38</title>
<path fill="none" stroke="#191970" d="M1698.7754,-480.0359C1697.8174,-466.4125 1697.495,-442.0895 1704.8195,-423 1708.8369,-412.5297 1716.0346,-402.4836 1722.9438,-394.4253"/>
<polygon fill="#191970" stroke="#191970" points="1725.7363,-396.5577 1729.8941,-386.8127 1720.5668,-391.8379 1725.7363,-396.5577"/>
</g>
<!-- Node39 -->
<g id="node39" class="node">
<title>Node39</title>
<g id="a_node39"><a xlink:href="../../d7/d9f/SvtxTrackMap_8h.html" target="_top" xlink:title="trackbase_historic\l/SvtxTrackMap.h">
<polygon fill="none" stroke="#ff0000" points="2491.8195,-171.5 2491.8195,-203.5 2599.8195,-203.5 2599.8195,-171.5 2491.8195,-171.5"/>
<text text-anchor="start" x="2499.8195" y="-190.5" font-family="FreeSans" font-size="10.00" fill="#000000">trackbase_historic</text>
<text text-anchor="middle" x="2545.8195" y="-178.5" font-family="FreeSans" font-size="10.00" fill="#000000">/SvtxTrackMap.h</text>
</a>
</g>
</g>
<!-- Node13&#45;&gt;Node39 -->
<g id="edge86" class="edge">
<title>Node13&#45;&gt;Node39</title>
<path fill="none" stroke="#191970" d="M1784.2044,-488.3663C2011.0813,-482.3686 2619.6634,-464.4568 2657.8195,-444 2714.9192,-413.3869 2742.2139,-366.7365 2712.8195,-309 2688.2958,-260.8303 2634.7408,-227.2586 2594.8521,-207.7966"/>
<polygon fill="#191970" stroke="#191970" points="2596.335,-204.6262 2585.7996,-203.5052 2593.3364,-210.9515 2596.335,-204.6262"/>
</g>
<!-- Node40 -->
<g id="node40" class="node">
<title>Node40</title>
<g id="a_node40"><a xlink:href="../../d0/d19/SvtxVertexMap_8h.html" target="_top" xlink:title="trackbase_historic\l/SvtxVertexMap.h">
<polygon fill="none" stroke="#ff0000" points="1077.8195,-240.5 1077.8195,-272.5 1185.8195,-272.5 1185.8195,-240.5 1077.8195,-240.5"/>
<text text-anchor="start" x="1085.8195" y="-259.5" font-family="FreeSans" font-size="10.00" fill="#000000">trackbase_historic</text>
<text text-anchor="middle" x="1131.8195" y="-247.5" font-family="FreeSans" font-size="10.00" fill="#000000">/SvtxVertexMap.h</text>
</a>
</g>
</g>
<!-- Node13&#45;&gt;Node40 -->
<g id="edge88" class="edge">
<title>Node13&#45;&gt;Node40</title>
<path fill="none" stroke="#191970" d="M1615.6768,-488.7903C1472.87,-485.0791 1195.2935,-474.0508 1162.8195,-444 1118.1376,-402.6523 1121.7608,-323.5049 1127.2686,-282.5253"/>
<polygon fill="#191970" stroke="#191970" points="1130.7493,-282.9137 1128.7572,-272.5078 1123.8253,-281.8847 1130.7493,-282.9137"/>
</g>
<!-- Node41 -->
<g id="node41" class="node">
<title>Node41</title>
<g id="a_node41"><a xlink:href="../../d1/d4a/TrkrCluster_8h.html" target="_top" xlink:title="Base class for cluster object.">
<polygon fill="none" stroke="#ff0000" points="2571.8195,-309.5 2571.8195,-329.5 2703.8195,-329.5 2703.8195,-309.5 2571.8195,-309.5"/>
<text text-anchor="middle" x="2637.8195" y="-316.5" font-family="FreeSans" font-size="10.00" fill="#000000">trackbase/TrkrCluster.h</text>
</a>
</g>
</g>
<!-- Node13&#45;&gt;Node41 -->
<g id="edge90" class="edge">
<title>Node13&#45;&gt;Node41</title>
<path fill="none" stroke="#191970" d="M1784.1746,-489.6774C1998.2246,-487.1089 2550.9159,-477.2984 2626.8195,-444 2659.9171,-429.4803 2670.8434,-420.3308 2684.8195,-387 2692.8134,-367.936 2676.7367,-348.8479 2661.2565,-335.8592"/>
<polygon fill="#191970" stroke="#191970" points="2663.375,-333.0727 2653.3464,-329.6554 2659.0551,-338.5808 2663.375,-333.0727"/>
</g>
<!-- Node42 -->
<g id="node42" class="node">
<title>Node42</title>
<g id="a_node42"><a xlink:href="../../d2/d44/TrkrClusterContainer_8h.html" target="_top" xlink:title="Cluster container base class.">
<polygon fill="none" stroke="#ff0000" points="1581.3195,-177.5 1581.3195,-197.5 1762.3195,-197.5 1762.3195,-177.5 1581.3195,-177.5"/>
<text text-anchor="middle" x="1671.8195" y="-184.5" font-family="FreeSans" font-size="10.00" fill="#000000">trackbase/TrkrClusterContainer.h</text>
</a>
</g>
</g>
<!-- Node13&#45;&gt;Node42 -->
<g id="edge94" class="edge">
<title>Node13&#45;&gt;Node42</title>
<path fill="none" stroke="#191970" d="M1615.4365,-483.9033C1525.8727,-476.0263 1395.109,-461.6718 1379.8195,-444 1373.7128,-436.9417 1375.7931,-431.4201 1379.8195,-423 1383.5756,-415.1453 1584.9048,-256.0101 1651.0272,-203.8776"/>
<polygon fill="#191970" stroke="#191970" points="1653.3984,-206.4652 1659.0857,-197.5262 1649.0653,-200.9675 1653.3984,-206.4652"/>
</g>
<!-- Node43 -->
<g id="node43" class="node">
<title>Node43</title>
<polygon fill="none" stroke="#bfbfbf" points="1823.3195,-423.5 1823.3195,-443.5 1876.3195,-443.5 1876.3195,-423.5 1823.3195,-423.5"/>
<text text-anchor="middle" x="1849.8195" y="-430.5" font-family="FreeSans" font-size="10.00" fill="#000000">TTree.h</text>
</g>
<!-- Node13&#45;&gt;Node43 -->
<g id="edge99" class="edge">
<title>Node13&#45;&gt;Node43</title>
<path fill="none" stroke="#191970" d="M1726.2912,-480.4408C1750.6359,-471.1898 1786.9351,-457.3961 1813.8915,-447.1527"/>
<polygon fill="#191970" stroke="#191970" points="1815.2561,-450.3784 1823.3606,-443.5544 1812.7695,-443.8349 1815.2561,-450.3784"/>
</g>
<!-- Node44 -->
<g id="node44" class="node">
<title>Node44</title>
<polygon fill="none" stroke="#bfbfbf" points="1894.8195,-423.5 1894.8195,-443.5 2008.8195,-443.5 2008.8195,-423.5 1894.8195,-423.5"/>
<text text-anchor="middle" x="1951.8195" y="-430.5" font-family="FreeSans" font-size="10.00" fill="#000000">HepMC/GenEvent.h</text>
</g>
<!-- Node13&#45;&gt;Node44 -->
<g id="edge101" class="edge">
<title>Node13&#45;&gt;Node44</title>
<path fill="none" stroke="#191970" d="M1744.292,-480.4408C1787.0744,-470.7638 1851.8331,-456.116 1897.6138,-445.7608"/>
<polygon fill="#191970" stroke="#191970" points="1898.3871,-449.1744 1907.3686,-443.5544 1896.8428,-442.3469 1898.3871,-449.1744"/>
</g>
<!-- Node45 -->
<g id="node45" class="node">
<title>Node45</title>
<polygon fill="none" stroke="#bfbfbf" points="2026.8195,-423.5 2026.8195,-443.5 2148.8195,-443.5 2148.8195,-423.5 2026.8195,-423.5"/>
<text text-anchor="middle" x="2087.8195" y="-430.5" font-family="FreeSans" font-size="10.00" fill="#000000">HepMC/GenParticle.h</text>
</g>
<!-- Node13&#45;&gt;Node45 -->
<g id="edge102" class="edge">
<title>Node13&#45;&gt;Node45</title>
<path fill="none" stroke="#191970" d="M1768.9969,-480.4595C1831.1563,-471.4205 1925.2337,-457.6977 2016.7466,-444.1552"/>
<polygon fill="#191970" stroke="#191970" points="2017.3587,-447.6028 2026.7381,-442.6758 2016.3333,-440.6783 2017.3587,-447.6028"/>
</g>
<!-- Node46 -->
<g id="node46" class="node">
<title>Node46</title>
<polygon fill="none" stroke="#bfbfbf" points="2166.8195,-423.5 2166.8195,-443.5 2300.8195,-443.5 2300.8195,-423.5 2166.8195,-423.5"/>
<text text-anchor="middle" x="2233.8195" y="-430.5" font-family="FreeSans" font-size="10.00" fill="#000000">HepMC/IteratorRange.h</text>
</g>
<!-- Node13&#45;&gt;Node46 -->
<g id="edge103" class="edge">
<title>Node13&#45;&gt;Node46</title>
<path fill="none" stroke="#191970" d="M1783.9134,-482.88C1873.6101,-474.5435 2020.1107,-460.3303 2156.4818,-444.1271"/>
<polygon fill="#191970" stroke="#191970" points="2157.1853,-447.5681 2166.6998,-442.907 2156.3553,-440.6174 2157.1853,-447.5681"/>
</g>
<!-- Node47 -->
<g id="node47" class="node">
<title>Node47</title>
<polygon fill="none" stroke="#bfbfbf" points="2319.3195,-423.5 2319.3195,-443.5 2384.3195,-443.5 2384.3195,-423.5 2319.3195,-423.5"/>
<text text-anchor="middle" x="2351.8195" y="-430.5" font-family="FreeSans" font-size="10.00" fill="#000000">algorithm</text>
</g>
<!-- Node13&#45;&gt;Node47 -->
<g id="edge105" class="edge">
<title>Node13&#45;&gt;Node47</title>
<path fill="none" stroke="#191970" d="M1784.2197,-488.5648C1900.4125,-484.899 2116.1872,-474.4976 2308.884,-443.8992"/>
<polygon fill="#191970" stroke="#191970" points="2309.597,-447.3295 2318.9137,-442.2847 2308.4845,-440.4185 2309.597,-447.3295"/>
</g>
<!-- Node14&#45;&gt;Node15 -->
<g id="edge19" class="edge">
<title>Node14&#45;&gt;Node15</title>
<path fill="none" stroke="#191970" d="M2814.5692,-116.4783C2809.9292,-115.634 2805.2774,-114.7944 2800.8195,-114 2732.6003,-101.8426 2654.5867,-88.4634 2600.0184,-79.19"/>
<polygon fill="#191970" stroke="#191970" points="2600.5547,-75.7311 2590.1099,-77.5075 2599.3828,-82.6323 2600.5547,-75.7311"/>
</g>
<!-- Node16 -->
<g id="node16" class="node">
<title>Node16</title>
<polygon fill="none" stroke="#bfbfbf" points="2887.3195,-.5 2887.3195,-20.5 2938.3195,-20.5 2938.3195,-.5 2887.3195,-.5"/>
<text text-anchor="middle" x="2912.8195" y="-7.5" font-family="FreeSans" font-size="10.00" fill="#000000">cstdint</text>
</g>
<!-- Node14&#45;&gt;Node16 -->
<g id="edge21" class="edge">
<title>Node14&#45;&gt;Node16</title>
<path fill="none" stroke="#191970" d="M2862.7004,-114.3833C2871.8506,-95.4174 2891.7206,-54.2323 2903.5079,-29.8004"/>
<polygon fill="#191970" stroke="#191970" points="2906.6775,-31.2854 2907.8705,-20.7579 2900.3729,-28.2437 2906.6775,-31.2854"/>
</g>
<!-- Node15&#45;&gt;Node16 -->
<g id="edge20" class="edge">
<title>Node15&#45;&gt;Node16</title>
<path fill="none" stroke="#191970" d="M2590.9273,-58.531C2671.3355,-46.533 2811.3773,-25.6367 2876.9834,-15.8473"/>
<polygon fill="#191970" stroke="#191970" points="2877.8512,-19.2566 2887.2251,-14.3191 2876.8181,-12.3333 2877.8512,-19.2566"/>
</g>
<!-- Node17&#45;&gt;Node15 -->
<g id="edge23" class="edge">
<title>Node17&#45;&gt;Node15</title>
<path fill="none" stroke="#191970" d="M2918.7853,-115.386C2915.7542,-114.9016 2912.7483,-114.4356 2909.8195,-114 2802.3549,-98.015 2677.1521,-83.4389 2600.9684,-75.0192"/>
<polygon fill="#191970" stroke="#191970" points="2601.3324,-71.5383 2591.0094,-73.9228 2600.5663,-78.4962 2601.3324,-71.5383"/>
</g>
<!-- Node17&#45;&gt;Node16 -->
<g id="edge24" class="edge">
<title>Node17&#45;&gt;Node16</title>
<path fill="none" stroke="#191970" d="M2964.7612,-114.3833C2955.2782,-95.4174 2934.6857,-54.2323 2922.4698,-29.8004"/>
<polygon fill="#191970" stroke="#191970" points="2925.5512,-28.137 2917.9485,-20.7579 2919.2902,-31.2675 2925.5512,-28.137"/>
</g>
<!-- Node18&#45;&gt;Node15 -->
<g id="edge26" class="edge">
<title>Node18&#45;&gt;Node15</title>
<path fill="none" stroke="#191970" d="M3038.7512,-115.4365C3035.7347,-114.9148 3032.7353,-114.429 3029.8195,-114 2877.8302,-91.6379 2698.1228,-78.0025 2601.2341,-71.6936"/>
<polygon fill="#191970" stroke="#191970" points="2601.1826,-68.1831 2590.9783,-71.0331 2600.7326,-75.1687 2601.1826,-68.1831"/>
</g>
<!-- Node18&#45;&gt;Node16 -->
<g id="edge27" class="edge">
<title>Node18&#45;&gt;Node16</title>
<path fill="none" stroke="#191970" d="M3066.8219,-114.3833C3037.4562,-94.5744 2972.1586,-50.5275 2936.7546,-26.6456"/>
<polygon fill="#191970" stroke="#191970" points="2938.274,-23.4486 2928.0265,-20.7579 2934.3594,-29.2518 2938.274,-23.4486"/>
</g>
<!-- Node19&#45;&gt;Node10 -->
<g id="edge49" class="edge">
<title>Node19&#45;&gt;Node10</title>
<path fill="none" stroke="#191970" d="M905.7132,-246.3372C896.1645,-228.9826 880.4919,-193.3471 897.8195,-171 937.1874,-120.2282 977.7488,-157.784 1037.8195,-135 1056.9623,-127.7394 1059.7166,-121.3647 1078.8195,-114 1127.7345,-95.142 1187.2382,-80.9578 1222.1792,-73.4684"/>
<polygon fill="#191970" stroke="#191970" points="1223.1303,-76.845 1232.1955,-71.3613 1221.6892,-69.995 1223.1303,-76.845"/>
</g>
<!-- Node19&#45;&gt;Node15 -->
<g id="edge40" class="edge">
<title>Node19&#45;&gt;Node15</title>
<path fill="none" stroke="#191970" d="M975.7388,-246.468C1025.111,-237.8052 1094.7514,-223.5831 1153.8195,-204 1245.5728,-173.5807 1257.7678,-136.3218 1351.8195,-114 1459.282,-88.4954 2222.4544,-72.9613 2460.2532,-68.6997"/>
<polygon fill="#191970" stroke="#191970" points="2460.5704,-72.1947 2470.5065,-68.5171 2460.4457,-65.1958 2460.5704,-72.1947"/>
</g>
<!-- Node19&#45;&gt;Node20 -->
<g id="edge29" class="edge">
<title>Node19&#45;&gt;Node20</title>
<path fill="none" stroke="#191970" d="M917.279,-246.3188C922.8535,-235.9231 931.6421,-219.5336 938.5278,-206.6927"/>
<polygon fill="#191970" stroke="#191970" points="941.6964,-208.1899 943.3377,-197.723 935.5273,-204.8818 941.6964,-208.1899"/>
</g>
<!-- Node22 -->
<g id="node22" class="node">
<title>Node22</title>
<polygon fill="none" stroke="#bfbfbf" points="931.8195,-57.5 931.8195,-77.5 963.8195,-77.5 963.8195,-57.5 931.8195,-57.5"/>
<text text-anchor="middle" x="947.8195" y="-64.5" font-family="FreeSans" font-size="10.00" fill="#000000">set</text>
</g>
<!-- Node19&#45;&gt;Node22 -->
<g id="edge51" class="edge">
<title>Node19&#45;&gt;Node22</title>
<path fill="none" stroke="#191970" d="M892.3619,-246.3332C861.2945,-230.1464 798.5128,-197.6258 744.8195,-171 711.6942,-154.5736 689.5112,-166.2946 669.8195,-135 664.8489,-127.1004 663.7888,-121.1233 669.8195,-114 686.0683,-94.8076 855.4601,-76.4562 921.5846,-69.9693"/>
<polygon fill="#191970" stroke="#191970" points="922.0072,-73.4448 931.6237,-68.9981 921.3331,-66.4773 922.0072,-73.4448"/>
</g>
<!-- Node23 -->
<g id="node23" class="node">
<title>Node23</title>
<polygon fill="none" stroke="#bfbfbf" points="732.8195,-57.5 732.8195,-77.5 790.8195,-77.5 790.8195,-57.5 732.8195,-57.5"/>
<text text-anchor="middle" x="761.8195" y="-64.5" font-family="FreeSans" font-size="10.00" fill="#000000">memory</text>
</g>
<!-- Node19&#45;&gt;Node23 -->
<g id="edge50" class="edge">
<title>Node19&#45;&gt;Node23</title>
<path fill="none" stroke="#191970" d="M840.0644,-247.6798C732.3388,-234.2713 540.7881,-209.7105 535.8195,-204 476.3585,-135.6598 643.3885,-91.4865 722.6523,-74.895"/>
<polygon fill="#191970" stroke="#191970" points="723.6728,-78.2588 732.7694,-72.8273 722.2711,-71.4006 723.6728,-78.2588"/>
</g>
<!-- Node24 -->
<g id="node24" class="node">
<title>Node24</title>
<polygon fill="none" stroke="#bfbfbf" points="1400.3195,-114.5 1400.3195,-134.5 1445.3195,-134.5 1445.3195,-114.5 1400.3195,-114.5"/>
<text text-anchor="middle" x="1422.8195" y="-121.5" font-family="FreeSans" font-size="10.00" fill="#000000">utility</text>
</g>
<!-- Node19&#45;&gt;Node24 -->
<g id="edge52" class="edge">
<title>Node19&#45;&gt;Node24</title>
<path fill="none" stroke="#191970" d="M983.6856,-248.4332C1070.791,-238.1884 1212.1994,-219.9257 1262.8195,-204 1313.2301,-188.1402 1367.4097,-158.178 1398.0134,-139.9092"/>
<polygon fill="#191970" stroke="#191970" points="1399.9768,-142.8122 1406.7239,-134.6435 1396.3554,-136.8217 1399.9768,-142.8122"/>
</g>
<!-- Node25 -->
<g id="node25" class="node">
<title>Node25</title>
<g id="a_node25"><a xlink:href="../../da/d51/ActsSurfaceMaps_8h.html" target="_top" xlink:title="maps hitsetids to Acts Surfaces">
<polygon fill="none" stroke="#000000" points="679.3195,-114.5 679.3195,-134.5 844.3195,-134.5 844.3195,-114.5 679.3195,-114.5"/>
<text text-anchor="middle" x="761.8195" y="-121.5" font-family="FreeSans" font-size="10.00" fill="#000000">trackbase/ActsSurfaceMaps.h</text>
</a>
</g>
</g>
<!-- Node19&#45;&gt;Node25 -->
<g id="edge41" class="edge">
<title>Node19&#45;&gt;Node25</title>
<path fill="none" stroke="#191970" d="M900.0493,-246.1422C874.3092,-223.4909 812.799,-169.362 781.2332,-141.584"/>
<polygon fill="#191970" stroke="#191970" points="783.3545,-138.7885 773.5351,-134.8097 778.7301,-144.0435 783.3545,-138.7885"/>
</g>
<!-- Node26 -->
<g id="node26" class="node">
<title>Node26</title>
<g id="a_node26"><a xlink:href="../../d4/d6a/ActsTrackingGeometry_8h.html" target="_top" xlink:title="trackbase/ActsTrackingGeometry.h">
<polygon fill="none" stroke="#ff0000" points="545.3195,-177.5 545.3195,-197.5 736.3195,-197.5 736.3195,-177.5 545.3195,-177.5"/>
<text text-anchor="middle" x="640.8195" y="-184.5" font-family="FreeSans" font-size="10.00" fill="#000000">trackbase/ActsTrackingGeometry.h</text>
</a>
</g>
</g>
<!-- Node19&#45;&gt;Node26 -->
<g id="edge47" class="edge">
<title>Node19&#45;&gt;Node26</title>
<path fill="none" stroke="#191970" d="M872.4138,-246.4668C824.145,-234.177 742.3575,-213.3528 690.0103,-200.0246"/>
<polygon fill="#191970" stroke="#191970" points="690.8273,-196.621 680.2728,-197.5453 689.1,-203.4046 690.8273,-196.621"/>
</g>
<!-- Node20&#45;&gt;Node10 -->
<g id="edge37" class="edge">
<title>Node20&#45;&gt;Node10</title>
<path fill="none" stroke="#191970" d="M974.132,-177.4753C1029.9304,-155.3769 1163.2496,-102.5772 1222.5347,-79.098"/>
<polygon fill="#191970" stroke="#191970" points="1224.0425,-82.2654 1232.0512,-75.3291 1221.465,-75.7572 1224.0425,-82.2654"/>
</g>
<!-- Node20&#45;&gt;Node15 -->
<g id="edge36" class="edge">
<title>Node20&#45;&gt;Node15</title>
<path fill="none" stroke="#191970" d="M977.4846,-177.4861C984.7189,-175.1639 992.509,-172.8374 999.8195,-171 1137.3775,-136.4265 1172.8232,-129.4129 1313.8195,-114 1538.4203,-89.448 2236.1844,-73.4819 2460.5624,-68.8773"/>
<polygon fill="#191970" stroke="#191970" points="2460.6426,-72.3765 2470.5691,-68.6731 2460.4997,-65.3779 2460.6426,-72.3765"/>
</g>
<!-- Node20&#45;&gt;Node21 -->
<g id="edge30" class="edge">
<title>Node20&#45;&gt;Node21</title>
<path fill="none" stroke="#191970" d="M942.5535,-177.378C936.9014,-168.2476 928.4405,-154.5801 921.5367,-143.4278"/>
<polygon fill="#191970" stroke="#191970" points="924.4391,-141.4666 916.1996,-134.8062 918.4872,-145.1511 924.4391,-141.4666"/>
</g>
<!-- Node20&#45;&gt;Node22 -->
<g id="edge38" class="edge">
<title>Node20&#45;&gt;Node22</title>
<path fill="none" stroke="#191970" d="M954.0024,-177.0913C960.4298,-162.9023 970.0522,-136.6593 965.8195,-114 964.0984,-104.7858 960.6129,-95.0472 957.1636,-86.8763"/>
<polygon fill="#191970" stroke="#191970" points="960.2481,-85.202 952.9493,-77.5223 953.866,-88.0774 960.2481,-85.202"/>
</g>
<!-- Node20&#45;&gt;Node24 -->
<g id="edge39" class="edge">
<title>Node20&#45;&gt;Node24</title>
<path fill="none" stroke="#191970" d="M976.333,-177.4687C983.8644,-175.0343 992.0852,-172.6582 999.8195,-171 1074.4638,-154.9968 1304.2547,-134.5281 1390.0571,-127.2326"/>
<polygon fill="#191970" stroke="#191970" points="1390.5835,-130.7007 1400.2528,-126.3702 1389.9934,-123.7256 1390.5835,-130.7007"/>
</g>
<!-- Node21&#45;&gt;Node8 -->
<g id="edge34" class="edge">
<title>Node21&#45;&gt;Node8</title>
<path fill="none" stroke="#191970" d="M862.2801,-115.4517C859.0829,-114.9331 855.9072,-114.4432 852.8195,-114 699.0623,-91.9294 514.2993,-76.2072 438.2058,-70.1971"/>
<polygon fill="#191970" stroke="#191970" points="438.0267,-66.6725 427.784,-69.3812 437.4803,-73.6511 438.0267,-66.6725"/>
</g>
<!-- Node21&#45;&gt;Node10 -->
<g id="edge32" class="edge">
<title>Node21&#45;&gt;Node10</title>
<path fill="none" stroke="#191970" d="M957.3732,-116.5744C1028.9063,-104.6522 1162.1517,-82.4446 1221.707,-72.5188"/>
<polygon fill="#191970" stroke="#191970" points="1222.6498,-75.91 1231.9383,-70.8135 1221.4989,-69.0052 1222.6498,-75.91"/>
</g>
<!-- Node21&#45;&gt;Node15 -->
<g id="edge31" class="edge">
<title>Node21&#45;&gt;Node15</title>
<path fill="none" stroke="#191970" d="M957.4551,-122.825C1187.7316,-114.7276 2185.6713,-79.6366 2460.5135,-69.9722"/>
<polygon fill="#191970" stroke="#191970" points="2460.8831,-73.4615 2470.7539,-69.6121 2460.6371,-66.4658 2460.8831,-73.4615"/>
</g>
<!-- Node21&#45;&gt;Node22 -->
<g id="edge33" class="edge">
<title>Node21&#45;&gt;Node22</title>
<path fill="none" stroke="#191970" d="M916.6132,-114.3095C921.8548,-106.4472 929.2457,-95.3608 935.5191,-85.9507"/>
<polygon fill="#191970" stroke="#191970" points="938.4499,-87.8642 941.0847,-77.6022 932.6255,-83.9813 938.4499,-87.8642"/>
</g>
<!-- Node21&#45;&gt;Node23 -->
<g id="edge35" class="edge">
<title>Node21&#45;&gt;Node23</title>
<path fill="none" stroke="#191970" d="M883.7008,-114.4408C859.7547,-105.2183 824.0858,-91.4809 797.5143,-81.2473"/>
<polygon fill="#191970" stroke="#191970" points="798.7648,-77.9784 788.175,-77.6504 796.2489,-84.5106 798.7648,-77.9784"/>
</g>
<!-- Node25&#45;&gt;Node8 -->
<g id="edge46" class="edge">
<title>Node25&#45;&gt;Node8</title>
<path fill="none" stroke="#191970" d="M698.4639,-114.4408C622.5074,-102.3808 497.9261,-82.6005 437.65,-73.0302"/>
<polygon fill="#191970" stroke="#191970" points="437.9379,-69.5321 427.5128,-71.4206 436.8402,-76.4455 437.9379,-69.5321"/>
</g>
<!-- Node25&#45;&gt;Node10 -->
<g id="edge43" class="edge">
<title>Node25&#45;&gt;Node10</title>
<path fill="none" stroke="#191970" d="M844.3873,-114.8952C955.6508,-101.9523 1148.2595,-79.5468 1221.9575,-70.9737"/>
<polygon fill="#191970" stroke="#191970" points="1222.4158,-74.4441 1231.9444,-69.812 1221.6069,-67.491 1222.4158,-74.4441"/>
</g>
<!-- Node25&#45;&gt;Node15 -->
<g id="edge42" class="edge">
<title>Node25&#45;&gt;Node15</title>
<path fill="none" stroke="#191970" d="M844.6176,-114.6363C847.383,-114.4059 850.1228,-114.1926 852.8195,-114 1172.8252,-91.1479 2183.5484,-73.2088 2460.2113,-68.6348"/>
<polygon fill="#191970" stroke="#191970" points="2460.5757,-72.1294 2470.5166,-68.465 2460.4603,-65.1303 2460.5757,-72.1294"/>
</g>
<!-- Node25&#45;&gt;Node22 -->
<g id="edge45" class="edge">
<title>Node25&#45;&gt;Node22</title>
<path fill="none" stroke="#191970" d="M794.6445,-114.4408C830.7812,-103.3666 888.1607,-85.7826 921.4798,-75.5718"/>
<polygon fill="#191970" stroke="#191970" points="922.8593,-78.8098 931.3949,-72.5334 920.8082,-72.1171 922.8593,-78.8098"/>
</g>
<!-- Node25&#45;&gt;Node23 -->
<g id="edge44" class="edge">
<title>Node25&#45;&gt;Node23</title>
<path fill="none" stroke="#191970" d="M761.8195,-114.3095C761.8195,-106.9335 761.8195,-96.72 761.8195,-87.715"/>
<polygon fill="#191970" stroke="#191970" points="765.3196,-87.6022 761.8195,-77.6022 758.3196,-87.6023 765.3196,-87.6022"/>
</g>
<!-- Node26&#45;&gt;Node23 -->
<g id="edge48" class="edge">
<title>Node26&#45;&gt;Node23</title>
<path fill="none" stroke="#191970" d="M636.6829,-177.4138C631.1678,-162.191 623.5466,-133.0992 636.8195,-114 646.9982,-99.3535 690.1971,-85.4947 722.9862,-76.7801"/>
<polygon fill="#191970" stroke="#191970" points="723.9757,-80.1395 732.7798,-74.2456 722.2219,-73.3627 723.9757,-80.1395"/>
</g>
<!-- Node27&#45;&gt;Node7 -->
<g id="edge66" class="edge">
<title>Node27&#45;&gt;Node7</title>
<path fill="none" stroke="#191970" d="M1301.0768,-423.4436C1332.6431,-414.4934 1379.5311,-400.7285 1419.8195,-387 1534.9137,-347.7811 1668.9829,-294.0661 1728.9711,-269.5985"/>
<polygon fill="#191970" stroke="#191970" points="1730.3525,-272.815 1738.2849,-265.7917 1727.704,-266.3354 1730.3525,-272.815"/>
</g>
<!-- Node27&#45;&gt;Node28 -->
<g id="edge54" class="edge">
<title>Node27&#45;&gt;Node28</title>
<path fill="none" stroke="#191970" d="M1281.8036,-423.3095C1296.3936,-414.5556 1317.6447,-401.8049 1334.2843,-391.8211"/>
<polygon fill="#191970" stroke="#191970" points="1336.2083,-394.7485 1342.9825,-386.6022 1332.6068,-388.746 1336.2083,-394.7485"/>
</g>
<!-- Node28&#45;&gt;Node7 -->
<g id="edge64" class="edge">
<title>Node28&#45;&gt;Node7</title>
<path fill="none" stroke="#191970" d="M1393.3189,-366.4753C1469.1856,-343.772 1653.3391,-288.6637 1728.2816,-266.237"/>
<polygon fill="#191970" stroke="#191970" points="1729.532,-269.5163 1738.1088,-263.2962 1727.5251,-262.8101 1729.532,-269.5163"/>
</g>
<!-- Node28&#45;&gt;Node10 -->
<g id="edge62" class="edge">
<title>Node28&#45;&gt;Node10</title>
<path fill="none" stroke="#191970" d="M1388.9779,-366.4773C1408.5785,-358.7107 1434.1442,-346.4863 1452.8195,-330 1475.6449,-309.8502 1481.9965,-302.1405 1490.8195,-273 1511.2976,-205.3655 1535.7643,-168.532 1490.8195,-114 1464.6241,-82.2168 1339.8212,-71.8769 1281.7127,-68.7512"/>
<polygon fill="#191970" stroke="#191970" points="1281.8403,-65.2533 1271.6776,-68.2479 1281.4897,-72.2445 1281.8403,-65.2533"/>
</g>
<!-- Node28&#45;&gt;Node22 -->
<g id="edge63" class="edge">
<title>Node28&#45;&gt;Node22</title>
<path fill="none" stroke="#191970" d="M1371.2897,-366.3503C1380.7446,-357.5009 1393.9899,-343.9308 1402.8195,-330 1455.6261,-246.6858 1520.3003,-186.8703 1453.8195,-114 1437.4702,-96.0793 1075.5785,-74.6211 974.0759,-68.938"/>
<polygon fill="#191970" stroke="#191970" points="974.2258,-65.441 964.0469,-68.3806 973.8372,-72.4302 974.2258,-65.441"/>
</g>
<!-- Node28&#45;&gt;Node24 -->
<g id="edge65" class="edge">
<title>Node28&#45;&gt;Node24</title>
<path fill="none" stroke="#191970" d="M1365.2521,-366.3953C1378.8591,-340.4035 1414.0798,-268.7221 1424.8195,-204 1428.1113,-184.1624 1427.0101,-161.1641 1425.449,-145.0228"/>
<polygon fill="#191970" stroke="#191970" points="1428.8761,-144.1741 1424.2873,-134.6246 1421.9193,-144.9514 1428.8761,-144.1741"/>
</g>
<!-- Node28&#45;&gt;Node29 -->
<g id="edge55" class="edge">
<title>Node28&#45;&gt;Node29</title>
<path fill="none" stroke="#191970" d="M1353.5622,-366.3095C1348.7842,-358.5282 1342.0672,-347.589 1336.3279,-338.2423"/>
<polygon fill="#191970" stroke="#191970" points="1339.2379,-336.2925 1331.0227,-329.6022 1333.2727,-339.9554 1339.2379,-336.2925"/>
</g>
<!-- Node29&#45;&gt;Node7 -->
<g id="edge60" class="edge">
<title>Node29&#45;&gt;Node7</title>
<path fill="none" stroke="#191970" d="M1373.145,-312.5172C1462.7174,-299.5744 1652.3055,-272.1798 1728.3038,-261.1984"/>
<polygon fill="#191970" stroke="#191970" points="1728.8547,-264.6552 1738.2514,-259.761 1727.8536,-257.7272 1728.8547,-264.6552"/>
</g>
<!-- Node29&#45;&gt;Node10 -->
<g id="edge58" class="edge">
<title>Node29&#45;&gt;Node10</title>
<path fill="none" stroke="#191970" d="M1321.8674,-309.3092C1310.8834,-271.3918 1272.2573,-138.0524 1257.5574,-87.3074"/>
<polygon fill="#191970" stroke="#191970" points="1260.8727,-86.1728 1254.7284,-77.5415 1254.1491,-88.1205 1260.8727,-86.1728"/>
</g>
<!-- Node29&#45;&gt;Node15 -->
<g id="edge57" class="edge">
<title>Node29&#45;&gt;Node15</title>
<path fill="none" stroke="#191970" d="M1324.4222,-309.129C1323.7299,-274.5725 1326.7028,-162.7824 1390.8195,-114 1433.4599,-81.5577 2218.5434,-70.7369 2460.4579,-68.1651"/>
<polygon fill="#191970" stroke="#191970" points="2460.5794,-71.6641 2470.5422,-68.0593 2460.506,-64.6645 2460.5794,-71.6641"/>
</g>
<!-- Node29&#45;&gt;Node19 -->
<g id="edge56" class="edge">
<title>Node29&#45;&gt;Node19</title>
<path fill="none" stroke="#191970" d="M1276.6349,-312.1498C1205.5812,-301.3111 1072.0307,-280.939 987.7277,-268.0792"/>
<polygon fill="#191970" stroke="#191970" points="988.112,-264.5974 977.6985,-266.5493 987.0564,-271.5174 988.112,-264.5974"/>
</g>
<!-- Node29&#45;&gt;Node22 -->
<g id="edge59" class="edge">
<title>Node29&#45;&gt;Node22</title>
<path fill="none" stroke="#191970" d="M1314.7677,-309.1346C1289.4771,-283.4377 1220.4556,-215.6493 1153.8195,-171 1092.8212,-130.1282 1013.4591,-94.6841 973.3775,-77.8777"/>
<polygon fill="#191970" stroke="#191970" points="974.6464,-74.6149 964.0686,-74.0144 971.9632,-81.0803 974.6464,-74.6149"/>
</g>
<!-- Node29&#45;&gt;Node24 -->
<g id="edge61" class="edge">
<title>Node29&#45;&gt;Node24</title>
<path fill="none" stroke="#191970" d="M1340.0798,-309.3633C1351.6963,-300.911 1367.2662,-287.8789 1376.8195,-273 1403.1977,-231.9173 1415.2654,-174.7486 1420.0759,-144.7388"/>
<polygon fill="#191970" stroke="#191970" points="1423.566,-145.0641 1421.5789,-134.6573 1416.6425,-144.0318 1423.566,-145.0641"/>
</g>
<!-- Node30&#45;&gt;Node7 -->
<g id="edge72" class="edge">
<title>Node30&#45;&gt;Node7</title>
<path fill="none" stroke="#191970" d="M1760.8195,-309.378C1760.8195,-300.7041 1760.8195,-287.9355 1760.8195,-277.1186"/>
<polygon fill="#191970" stroke="#191970" points="1764.3196,-276.8062 1760.8195,-266.8062 1757.3196,-276.8062 1764.3196,-276.8062"/>
</g>
<!-- Node31&#45;&gt;Node10 -->
<g id="edge75" class="edge">
<title>Node31&#45;&gt;Node10</title>
<path fill="none" stroke="#191970" d="M1495.7947,-423.4434C1551.5241,-380.2188 1767.9368,-212.0414 1771.8195,-204 1778.1967,-190.7923 1780.6859,-182.6833 1771.8195,-171 1711.7547,-91.8518 1383.1977,-72.5905 1281.7003,-68.4974"/>
<polygon fill="#191970" stroke="#191970" points="1281.6604,-64.9934 1271.5338,-68.1082 1281.3925,-71.9883 1281.6604,-64.9934"/>
</g>
<!-- Node31&#45;&gt;Node24 -->
<g id="edge76" class="edge">
<title>Node31&#45;&gt;Node24</title>
<path fill="none" stroke="#191970" d="M1483.8773,-423.232C1485.732,-404.6553 1489.4991,-364.217 1490.8195,-330 1491.1794,-320.6736 1492.4336,-318.1927 1490.8195,-309 1479.5385,-244.7478 1463.7067,-232.0883 1440.8195,-171 1437.5309,-162.2223 1433.804,-152.5509 1430.5979,-144.3122"/>
<polygon fill="#191970" stroke="#191970" points="1433.7874,-142.858 1426.8875,-134.8179 1427.2676,-145.4059 1433.7874,-142.858"/>
</g>
<!-- Node31&#45;&gt;Node32 -->
<g id="edge74" class="edge">
<title>Node31&#45;&gt;Node32</title>
<path fill="none" stroke="#191970" d="M1504.8793,-423.4408C1524.6605,-414.4205 1553.9133,-401.0813 1576.1846,-390.9255"/>
<polygon fill="#191970" stroke="#191970" points="1577.9133,-393.984 1585.5599,-386.6504 1575.009,-387.6149 1577.9133,-393.984"/>
</g>
<!-- Node34 -->
<g id="node34" class="node">
<title>Node34</title>
<polygon fill="none" stroke="#bfbfbf" points="2342.3195,-246.5 2342.3195,-266.5 2391.3195,-266.5 2391.3195,-246.5 2342.3195,-246.5"/>
<text text-anchor="middle" x="2366.8195" y="-253.5" font-family="FreeSans" font-size="10.00" fill="#000000">climits</text>
</g>
<!-- Node33&#45;&gt;Node34 -->
<g id="edge78" class="edge">
<title>Node33&#45;&gt;Node34</title>
<path fill="none" stroke="#191970" d="M2596.5751,-366.3917C2581.2879,-351.8176 2551.0533,-324.9102 2520.8195,-309 2473.4245,-284.0589 2456.0961,-291.4556 2405.8195,-273 2403.6067,-272.1877 2401.3364,-271.3201 2399.0578,-270.4237"/>
<polygon fill="#191970" stroke="#191970" points="2400.351,-267.1713 2389.7692,-266.6451 2397.7132,-273.6553 2400.351,-267.1713"/>
</g>
<!-- Node35&#45;&gt;Node36 -->
<g id="edge80" class="edge">
<title>Node35&#45;&gt;Node36</title>
<path fill="none" stroke="#191970" d="M1986.8195,-366.3095C1986.8195,-358.9335 1986.8195,-348.72 1986.8195,-339.715"/>
<polygon fill="#191970" stroke="#191970" points="1990.3196,-339.6022 1986.8195,-329.6022 1983.3196,-339.6023 1990.3196,-339.6022"/>
</g>
<!-- Node37&#45;&gt;Node10 -->
<g id="edge83" class="edge">
<title>Node37&#45;&gt;Node10</title>
<path fill="none" stroke="#191970" d="M2446.3104,-423.4671C2362.8162,-406.5244 2212.8195,-369.1743 2212.8195,-319.5 2212.8195,-319.5 2212.8195,-319.5 2212.8195,-187.5 2212.8195,-91.247 1443.9177,-71.1753 1281.6585,-68.0112"/>
<polygon fill="#191970" stroke="#191970" points="1281.5155,-64.508 1271.4514,-67.8192 1281.3837,-71.5068 1281.5155,-64.508"/>
</g>
<!-- Node37&#45;&gt;Node35 -->
<g id="edge82" class="edge">
<title>Node37&#45;&gt;Node35</title>
<path fill="none" stroke="#191970" d="M2410.4048,-423.4735C2319.243,-413.3641 2178.9447,-397.8057 2085.0811,-387.3967"/>
<polygon fill="#191970" stroke="#191970" points="2085.3352,-383.9035 2075.0103,-386.2799 2084.5636,-390.8609 2085.3352,-383.9035"/>
</g>
<!-- Node38&#45;&gt;Node7 -->
<g id="edge85" class="edge">
<title>Node38&#45;&gt;Node7</title>
<path fill="none" stroke="#191970" d="M1784.3694,-366.3819C1803.6266,-359.5071 1824.4473,-348.2279 1835.8195,-330 1850.9261,-305.7866 1819.5129,-283.7023 1792.8245,-270.1973"/>
<polygon fill="#191970" stroke="#191970" points="1794.1941,-266.9723 1783.6655,-265.7888 1791.1581,-273.2796 1794.1941,-266.9723"/>
</g>
<!-- Node39&#45;&gt;Node10 -->
<g id="edge87" class="edge">
<title>Node39&#45;&gt;Node10</title>
<path fill="none" stroke="#191970" d="M2491.6174,-171.8844C2428.5862,-154.4583 2321.1221,-127.0063 2226.8195,-114 2037.439,-87.8806 1424.5396,-71.6821 1281.7484,-68.2055"/>
<polygon fill="#191970" stroke="#191970" points="1281.6429,-64.7021 1271.5614,-67.9598 1281.474,-71.7 1281.6429,-64.7021"/>
</g>
<!-- Node40&#45;&gt;Node10 -->
<g id="edge89" class="edge">
<title>Node40&#45;&gt;Node10</title>
<path fill="none" stroke="#191970" d="M1142.0507,-240.386C1164.111,-205.641 1216.0658,-123.8122 1239.7154,-86.564"/>
<polygon fill="#191970" stroke="#191970" points="1242.9305,-88.0299 1245.3359,-77.7117 1237.021,-84.2778 1242.9305,-88.0299"/>
</g>
<!-- Node41&#45;&gt;Node15 -->
<g id="edge91" class="edge">
<title>Node41&#45;&gt;Node15</title>
<path fill="none" stroke="#191970" d="M2637.397,-309.3032C2636.0446,-284.5434 2630.5309,-219.7045 2608.8195,-171 2593.8298,-137.374 2566.1368,-104.4504 2548.103,-85.0684"/>
<polygon fill="#191970" stroke="#191970" points="2550.4572,-82.465 2541.0308,-77.6283 2545.3836,-87.2877 2550.4572,-82.465"/>
</g>
<!-- Node41&#45;&gt;Node23 -->
<g id="edge93" class="edge">
<title>Node41&#45;&gt;Node23</title>
<path fill="none" stroke="#191970" d="M2613.0206,-309.42C2570.377,-292.4885 2480.0876,-258.3897 2400.8195,-240 1987.2063,-144.0442 1876.3096,-156.2561 1453.8195,-114 1421.1969,-110.7372 943.0848,-79.3611 801.2177,-70.076"/>
<polygon fill="#191970" stroke="#191970" points="801.0356,-66.5567 790.8284,-69.3962 800.5785,-73.5417 801.0356,-66.5567"/>
</g>
<!-- Node41&#45;&gt;Node34 -->
<g id="edge92" class="edge">
<title>Node41&#45;&gt;Node34</title>
<path fill="none" stroke="#191970" d="M2571.6852,-309.9044C2524.7809,-302.2165 2460.6797,-289.9117 2405.8195,-273 2403.2091,-272.1953 2400.5348,-271.2766 2397.8703,-270.2939"/>
<polygon fill="#191970" stroke="#191970" points="2398.9807,-266.9693 2388.3944,-266.5445 2396.4052,-273.4783 2398.9807,-266.9693"/>
</g>
<!-- Node42&#45;&gt;Node10 -->
<g id="edge96" class="edge">
<title>Node42&#45;&gt;Node10</title>
<path fill="none" stroke="#191970" d="M1656.2318,-177.4299C1630.684,-161.4095 1577.8296,-130.2711 1528.8195,-114 1441.7592,-85.0963 1333.0725,-73.5623 1281.5549,-69.4777"/>
<polygon fill="#191970" stroke="#191970" points="1281.6928,-65.9783 1271.4577,-68.7157 1281.1659,-72.9584 1281.6928,-65.9783"/>
</g>
<!-- Node42&#45;&gt;Node15 -->
<g id="edge95" class="edge">
<title>Node42&#45;&gt;Node15</title>
<path fill="none" stroke="#191970" d="M1743.5799,-177.4753C1905.8441,-154.8074 2299.3514,-99.8355 2460.3659,-77.3422"/>
<polygon fill="#191970" stroke="#191970" points="2461.2109,-80.7582 2470.6305,-75.9083 2460.2424,-73.8255 2461.2109,-80.7582"/>
</g>
<!-- Node42&#45;&gt;Node24 -->
<g id="edge97" class="edge">
<title>Node42&#45;&gt;Node24</title>
<path fill="none" stroke="#191970" d="M1632.0894,-177.4478C1583.175,-165.0719 1501.0143,-144.2842 1455.5543,-132.7823"/>
<polygon fill="#191970" stroke="#191970" points="1456.1851,-129.3317 1445.6321,-130.2719 1454.4681,-136.1178 1456.1851,-129.3317"/>
</g>
<!-- Node48&#45;&gt;Node7 -->
<g id="edge113" class="edge">
<title>Node48&#45;&gt;Node7</title>
<path fill="none" stroke="#191970" d="M116.9682,-366.3314C130.2707,-350.6169 158.3455,-320.9935 189.8195,-309 208.4606,-301.8967 1504.7141,-263.9407 1728.1886,-257.4458"/>
<polygon fill="#191970" stroke="#191970" points="1728.4005,-260.9412 1738.2947,-257.1523 1728.1972,-253.9442 1728.4005,-260.9412"/>
</g>
<!-- Node48&#45;&gt;Node8 -->
<g id="edge114" class="edge">
<title>Node48&#45;&gt;Node8</title>
<path fill="none" stroke="#191970" d="M110.9687,-366.2806C115.1163,-345.6369 123.8195,-297.4412 123.8195,-256.5 123.8195,-256.5 123.8195,-256.5 123.8195,-187.5 123.8195,-134.8747 293.4464,-91.3588 368.1732,-74.7418"/>
<polygon fill="#191970" stroke="#191970" points="369.04,-78.135 378.0602,-72.5774 367.543,-71.297 369.04,-78.135"/>
</g>
<!-- Node48&#45;&gt;Node11 -->
<g id="edge112" class="edge">
<title>Node48&#45;&gt;Node11</title>
<path fill="none" stroke="#191970" d="M131.4087,-366.4408C151.7555,-357.3801 181.8884,-343.9615 204.7317,-333.7891"/>
<polygon fill="#191970" stroke="#191970" points="206.3143,-336.9158 214.0256,-329.6504 203.4666,-330.5212 206.3143,-336.9158"/>
</g>
<!-- Node49&#45;&gt;Node7 -->
<g id="edge119" class="edge">
<title>Node49&#45;&gt;Node7</title>
<path fill="none" stroke="#191970" d="M2448.7111,-366.2722C2434.194,-350.7589 2404.1322,-321.741 2371.8195,-309 2265.0623,-266.9054 1904.845,-258.4772 1793.7339,-256.865"/>
<polygon fill="#191970" stroke="#191970" points="1793.5279,-253.3619 1783.4812,-256.7256 1793.4327,-260.3613 1793.5279,-253.3619"/>
</g>
<!-- Node50 -->
<g id="node50" class="node">
<title>Node50</title>
<g id="a_node50"><a xlink:href="../../d2/de7/Fun4AllBase_8h.html" target="_top" xlink:title="Fun4AllBase.h">
<polygon fill="none" stroke="#000000" points="2424.3195,-309.5 2424.3195,-329.5 2511.3195,-329.5 2511.3195,-309.5 2424.3195,-309.5"/>
<text text-anchor="middle" x="2467.8195" y="-316.5" font-family="FreeSans" font-size="10.00" fill="#000000">Fun4AllBase.h</text>
</a>
</g>
</g>
<!-- Node49&#45;&gt;Node50 -->
<g id="edge116" class="edge">
<title>Node49&#45;&gt;Node50</title>
<path fill="none" stroke="#191970" d="M2459.6073,-366.3095C2460.9014,-358.9335 2462.6932,-348.72 2464.2731,-339.715"/>
<polygon fill="#191970" stroke="#191970" points="2467.7665,-340.0566 2466.0472,-329.6022 2460.8718,-338.847 2467.7665,-340.0566"/>
</g>
<!-- Node50&#45;&gt;Node7 -->
<g id="edge118" class="edge">
<title>Node50&#45;&gt;Node7</title>
<path fill="none" stroke="#191970" d="M2424.1872,-311.1262C2419.35,-310.3394 2414.4871,-309.6098 2409.8195,-309 2174.533,-278.2617 1888.7516,-262.6342 1793.4749,-258.0034"/>
<polygon fill="#191970" stroke="#191970" points="1793.4779,-254.4996 1783.3218,-257.5167 1793.1427,-261.4916 1793.4779,-254.4996"/>
</g>
<!-- Node50&#45;&gt;Node34 -->
<g id="edge117" class="edge">
<title>Node50&#45;&gt;Node34</title>
<path fill="none" stroke="#191970" d="M2451.5921,-309.378C2435.3949,-299.2747 2410.2914,-283.6161 2391.6001,-271.9572"/>
<polygon fill="#191970" stroke="#191970" points="2393.3438,-268.9198 2383.0067,-266.5969 2389.639,-274.8591 2393.3438,-268.9198"/>
</g>
</g>
</svg>
