<?xml version="1.0" encoding="UTF-8" standalone="no"?>
<!DOCTYPE svg PUBLIC "-//W3C//DTD SVG 1.1//EN"
 "http://www.w3.org/Graphics/SVG/1.1/DTD/svg11.dtd">
<!-- Generated by graphviz version 2.40.1 (20161225.0304)
 -->
<!-- Title: Collins Pages: 1 -->
<svg width="513pt" height="152pt"
 viewBox="0.00 0.00 513.00 152.00" xmlns="http://www.w3.org/2000/svg" xmlns:xlink="http://www.w3.org/1999/xlink">
<g id="graph0" class="graph" transform="scale(1 1) rotate(0) translate(4 148)">
<title>Collins</title>
<!-- Node1 -->
<g id="node1" class="node">
<title>Node1</title>
<polygon fill="#bfbfbf" stroke="#000000" points="0,-39.5 0,-59.5 50,-59.5 50,-39.5 0,-39.5"/>
<text text-anchor="middle" x="25" y="-46.5" font-family="FreeSans" font-size="10.00" fill="#000000">Collins</text>
</g>
<!-- Node2 -->
<g id="node2" class="node">
<title>Node2</title>
<g id="a_node2"><a xlink:href="../../df/dbf/Collins_8C.html#a09a6c4d46f058eef1fa6e20417b1912f" target="_top" xlink:title="AnalyseEvents">
<polygon fill="none" stroke="#000000" points="89.5,-78.5 89.5,-98.5 181.5,-98.5 181.5,-78.5 89.5,-78.5"/>
<text text-anchor="middle" x="135.5" y="-85.5" font-family="FreeSans" font-size="10.00" fill="#000000">AnalyseEvents</text>
</a>
</g>
</g>
<!-- Node1&#45;&gt;Node2 -->
<g id="edge1" class="edge">
<title>Node1&#45;&gt;Node2</title>
<path fill="none" stroke="#191970" d="M50.0742,-58.3497C64.1008,-63.3003 81.8705,-69.5719 97.5661,-75.1116"/>
<polygon fill="#191970" stroke="#191970" points="96.424,-78.42 107.0188,-78.4478 98.7538,-71.8191 96.424,-78.42"/>
</g>
<!-- Node7 -->
<g id="node7" class="node">
<title>Node7</title>
<g id="a_node7"><a xlink:href="../../df/dbf/Collins_8C.html#aa7952f18b6dd85091f56f133f9ac155b" target="_top" xlink:title="BookHistograms">
<polygon fill="none" stroke="#000000" points="86,-39.5 86,-59.5 185,-59.5 185,-39.5 86,-39.5"/>
<text text-anchor="middle" x="135.5" y="-46.5" font-family="FreeSans" font-size="10.00" fill="#000000">BookHistograms</text>
</a>
</g>
</g>
<!-- Node1&#45;&gt;Node7 -->
<g id="edge6" class="edge">
<title>Node1&#45;&gt;Node7</title>
<path fill="none" stroke="#191970" d="M50.0742,-49.5C57.7541,-49.5 66.5561,-49.5 75.5255,-49.5"/>
<polygon fill="#191970" stroke="#191970" points="75.6723,-53.0001 85.6723,-49.5 75.6723,-46.0001 75.6723,-53.0001"/>
</g>
<!-- Node8 -->
<g id="node8" class="node">
<title>Node8</title>
<g id="a_node8"><a xlink:href="../../df/dbf/Collins_8C.html#a0b2758274fe64ef3b85d760516986718" target="_top" xlink:title="PrintHistograms">
<polygon fill="none" stroke="#000000" points="87,-.5 87,-20.5 184,-20.5 184,-.5 87,-.5"/>
<text text-anchor="middle" x="135.5" y="-7.5" font-family="FreeSans" font-size="10.00" fill="#000000">PrintHistograms</text>
</a>
</g>
</g>
<!-- Node1&#45;&gt;Node8 -->
<g id="edge7" class="edge">
<title>Node1&#45;&gt;Node8</title>
<path fill="none" stroke="#191970" d="M50.0742,-40.6503C64.1008,-35.6997 81.8705,-29.4281 97.5661,-23.8884"/>
<polygon fill="#191970" stroke="#191970" points="98.7538,-27.1809 107.0188,-20.5522 96.424,-20.58 98.7538,-27.1809"/>
</g>
<!-- Node3 -->
<g id="node3" class="node">
<title>Node3</title>
<g id="a_node3"><a xlink:href="../../df/d28/namespacekdfinder.html#ab72d428625e99a2d7380eb7691c246c7" target="_top" xlink:title="kdfinder::abs">
<polygon fill="none" stroke="#000000" points="237.5,-123.5 237.5,-143.5 320.5,-143.5 320.5,-123.5 237.5,-123.5"/>
<text text-anchor="middle" x="279" y="-130.5" font-family="FreeSans" font-size="10.00" fill="#000000">kdfinder::abs</text>
</a>
</g>
</g>
<!-- Node2&#45;&gt;Node3 -->
<g id="edge2" class="edge">
<title>Node2&#45;&gt;Node3</title>
<path fill="none" stroke="#191970" d="M167.7042,-98.5989C188.1987,-105.0257 214.9533,-113.4157 237.0942,-120.3588"/>
<polygon fill="#191970" stroke="#191970" points="236.3141,-123.7822 246.9033,-123.4348 238.4087,-117.1029 236.3141,-123.7822"/>
</g>
<!-- Node5 -->
<g id="node5" class="node">
<title>Node5</title>
<g id="a_node5"><a xlink:href="../../df/da1/namespaceActs_1_1VectorHelpers.html#a6e1abd01ea4cac3276aba94096c85dae" target="_top" xlink:title="Calculates column&#45;wise cross products of a matrix and a vector and stores the result column&#45;wise in a...">
<polygon fill="none" stroke="#000000" points="221,-72.5 221,-104.5 337,-104.5 337,-72.5 221,-72.5"/>
<text text-anchor="start" x="229" y="-91.5" font-family="FreeSans" font-size="10.00" fill="#000000">Acts::VectorHelpers</text>
<text text-anchor="middle" x="279" y="-79.5" font-family="FreeSans" font-size="10.00" fill="#000000">::cross</text>
</a>
</g>
</g>
<!-- Node2&#45;&gt;Node5 -->
<g id="edge4" class="edge">
<title>Node2&#45;&gt;Node5</title>
<path fill="none" stroke="#191970" d="M181.6942,-88.5C190.9372,-88.5 200.8312,-88.5 210.6404,-88.5"/>
<polygon fill="#191970" stroke="#191970" points="210.8012,-92.0001 220.8011,-88.5 210.8011,-85.0001 210.8012,-92.0001"/>
</g>
<!-- Node6 -->
<g id="node6" class="node">
<title>Node6</title>
<g id="a_node6"><a xlink:href="../../d6/d69/ClusterIso_8h.html#a1a69231f858c3fc6386929e2d8841559" target="_top" xlink:title="deltaR">
<polygon fill="none" stroke="#000000" points="254.5,-33.5 254.5,-53.5 303.5,-53.5 303.5,-33.5 254.5,-33.5"/>
<text text-anchor="middle" x="279" y="-40.5" font-family="FreeSans" font-size="10.00" fill="#000000">deltaR</text>
</a>
</g>
</g>
<!-- Node2&#45;&gt;Node6 -->
<g id="edge5" class="edge">
<title>Node2&#45;&gt;Node6</title>
<path fill="none" stroke="#191970" d="M167.7042,-78.4011C190.5944,-71.223 221.2939,-61.596 244.6522,-54.2711"/>
<polygon fill="#191970" stroke="#191970" points="245.9962,-57.5178 254.4907,-51.1858 243.9016,-50.8385 245.9962,-57.5178"/>
</g>
<!-- Node4 -->
<g id="node4" class="node">
<title>Node4</title>
<g id="a_node4"><a xlink:href="../../d8/dc7/classkdfinder_1_1TVector.html#ac9649c7577f12a7502ed523260f4ee90" target="_top" xlink:title="kdfinder::TVector::mag">
<polygon fill="none" stroke="#000000" points="373,-123.5 373,-143.5 505,-143.5 505,-123.5 373,-123.5"/>
<text text-anchor="middle" x="439" y="-130.5" font-family="FreeSans" font-size="10.00" fill="#000000">kdfinder::TVector::mag</text>
</a>
</g>
</g>
<!-- Node3&#45;&gt;Node4 -->
<g id="edge3" class="edge">
<title>Node3&#45;&gt;Node4</title>
<path fill="none" stroke="#191970" d="M320.6204,-133.5C333.5602,-133.5 348.2556,-133.5 362.7842,-133.5"/>
<polygon fill="#191970" stroke="#191970" points="362.7922,-137.0001 372.7922,-133.5 362.7922,-130.0001 362.7922,-137.0001"/>
</g>
</g>
</svg>
