<?xml version="1.0" encoding="UTF-8" standalone="no"?>
<!DOCTYPE svg PUBLIC "-//W3C//DTD SVG 1.1//EN"
 "http://www.w3.org/Graphics/SVG/1.1/DTD/svg11.dtd">
<!-- Generated by graphviz version 2.40.1 (20161225.0304)
 -->
<!-- Title: PndTrackCand::_GetSortedHits Pages: 1 -->
<svg width="710pt" height="80pt"
 viewBox="0.00 0.00 710.00 80.00" xmlns="http://www.w3.org/2000/svg" xmlns:xlink="http://www.w3.org/1999/xlink">
<g id="graph0" class="graph" transform="scale(1 1) rotate(0) translate(4 76)">
<title>PndTrackCand::_GetSortedHits</title>
<!-- Node1 -->
<g id="node1" class="node">
<title>Node1</title>
<polygon fill="#bfbfbf" stroke="#000000" points="0,-22.5 0,-42.5 170,-42.5 170,-22.5 0,-22.5"/>
<text text-anchor="middle" x="85" y="-29.5" font-family="FreeSans" font-size="10.00" fill="#000000">PndTrackCand::_GetSortedHits</text>
</g>
<!-- Node2 -->
<g id="node2" class="node">
<title>Node2</title>
<g id="a_node2"><a xlink:href="../../db/d6d/classPndRecoKalmanFit.html#af5a66632d2917c60057bd37109ec7364" target="_top" xlink:title="PndRecoKalmanFit::Fit">
<polygon fill="none" stroke="#000000" points="206,-22.5 206,-42.5 334,-42.5 334,-22.5 206,-22.5"/>
<text text-anchor="middle" x="270" y="-29.5" font-family="FreeSans" font-size="10.00" fill="#000000">PndRecoKalmanFit::Fit</text>
</a>
</g>
</g>
<!-- Node1&#45;&gt;Node2 -->
<g id="edge1" class="edge">
<title>Node1&#45;&gt;Node2</title>
<path fill="none" stroke="#191970" d="M180.3728,-32.5C189.0495,-32.5 197.6925,-32.5 205.996,-32.5"/>
<polygon fill="#191970" stroke="#191970" points="180.1899,-29.0001 170.1899,-32.5 180.1899,-36.0001 180.1899,-29.0001"/>
</g>
<!-- Node3 -->
<g id="node3" class="node">
<title>Node3</title>
<g id="a_node3"><a xlink:href="../../d2/d28/classPndRecoMultiKalmanTask.html#a79938b3ab7bca0cc183821c03520553a" target="_top" xlink:title="PndRecoMultiKalmanTask\l::Exec">
<polygon fill="none" stroke="#000000" points="372.5,-39.5 372.5,-71.5 517.5,-71.5 517.5,-39.5 372.5,-39.5"/>
<text text-anchor="start" x="380.5" y="-58.5" font-family="FreeSans" font-size="10.00" fill="#000000">PndRecoMultiKalmanTask</text>
<text text-anchor="middle" x="445" y="-46.5" font-family="FreeSans" font-size="10.00" fill="#000000">::Exec</text>
</a>
</g>
</g>
<!-- Node2&#45;&gt;Node3 -->
<g id="edge2" class="edge">
<title>Node2&#45;&gt;Node3</title>
<path fill="none" stroke="#191970" d="M344.164,-42.2473C353.4678,-43.47 362.9775,-44.7199 372.2591,-45.9398"/>
<polygon fill="#191970" stroke="#191970" points="344.5407,-38.7668 334.1698,-40.9338 343.6285,-45.7071 344.5407,-38.7668"/>
</g>
<!-- Node4 -->
<g id="node4" class="node">
<title>Node4</title>
<g id="a_node4"><a xlink:href="../../d7/d87/classPndRecoKalmanTask.html#aa92916b999aeaf87e99fb08734ce368e" target="_top" xlink:title="PndRecoKalmanTask::Exec">
<polygon fill="none" stroke="#000000" points="370,-.5 370,-20.5 520,-20.5 520,-.5 370,-.5"/>
<text text-anchor="middle" x="445" y="-7.5" font-family="FreeSans" font-size="10.00" fill="#000000">PndRecoKalmanTask::Exec</text>
</a>
</g>
</g>
<!-- Node2&#45;&gt;Node4 -->
<g id="edge3" class="edge">
<title>Node2&#45;&gt;Node4</title>
<path fill="none" stroke="#191970" d="M344.3628,-23.1515C352.8049,-22.0902 361.4139,-21.008 369.8659,-19.9454"/>
<polygon fill="#191970" stroke="#191970" points="343.6552,-19.7129 334.1698,-24.4329 344.5283,-26.6582 343.6552,-19.7129"/>
</g>
<!-- Node5 -->
<g id="node5" class="node">
<title>Node5</title>
<g id="a_node5"><a xlink:href="../../d2/db6/classEicRecoKalmanTask.html#a10103a96af9664a82027040c505bfff1" target="_top" xlink:title="EicRecoKalmanTask::Exec">
<polygon fill="none" stroke="#000000" points="556,-.5 556,-20.5 702,-20.5 702,-.5 556,-.5"/>
<text text-anchor="middle" x="629" y="-7.5" font-family="FreeSans" font-size="10.00" fill="#000000">EicRecoKalmanTask::Exec</text>
</a>
</g>
</g>
<!-- Node4&#45;&gt;Node5 -->
<g id="edge4" class="edge">
<title>Node4&#45;&gt;Node5</title>
<path fill="none" stroke="#191970" d="M530.156,-10.5C538.7648,-10.5 547.4539,-10.5 555.9196,-10.5"/>
<polygon fill="#191970" stroke="#191970" points="530.1053,-7.0001 520.1052,-10.5 530.1052,-14.0001 530.1053,-7.0001"/>
</g>
</g>
</svg>
