<?xml version="1.0" encoding="UTF-8" standalone="no"?>
<!DOCTYPE svg PUBLIC "-//W3C//DTD SVG 1.1//EN"
 "http://www.w3.org/Graphics/SVG/1.1/DTD/svg11.dtd">
<!-- Generated by graphviz version 2.40.1 (20161225.0304)
 -->
<!-- Title: PndTrackCand::AddHit Pages: 1 -->
<svg width="2057pt" height="505pt"
 viewBox="0.00 0.00 2057.00 505.42" xmlns="http://www.w3.org/2000/svg" xmlns:xlink="http://www.w3.org/1999/xlink">
<g id="graph0" class="graph" transform="scale(1 1) rotate(0) translate(4 501.42)">
<title>PndTrackCand::AddHit</title>
<!-- Node1 -->
<g id="node1" class="node">
<title>Node1</title>
<polygon fill="#bfbfbf" stroke="#000000" points="0,-258.5 0,-278.5 129,-278.5 129,-258.5 0,-258.5"/>
<text text-anchor="middle" x="64.5" y="-265.5" font-family="FreeSans" font-size="10.00" fill="#000000">PndTrackCand::AddHit</text>
</g>
<!-- Node2 -->
<g id="node2" class="node">
<title>Node2</title>
<g id="a_node2"><a xlink:href="../../df/d10/classFairMultiLinkedData.html#a6021b6584834def64d405d52c5f49429" target="_top" xlink:title="Adds a FairLink link at the end of fLinks. If multi is kTRUE a link is allowed more than once otherwi...">
<polygon fill="none" stroke="#000000" points="165,-252.5 165,-284.5 280,-284.5 280,-252.5 165,-252.5"/>
<text text-anchor="start" x="173" y="-271.5" font-family="FreeSans" font-size="10.00" fill="#000000">FairMultiLinkedData</text>
<text text-anchor="middle" x="222.5" y="-259.5" font-family="FreeSans" font-size="10.00" fill="#000000">::AddLink</text>
</a>
</g>
</g>
<!-- Node1&#45;&gt;Node2 -->
<g id="edge1" class="edge">
<title>Node1&#45;&gt;Node2</title>
<path fill="none" stroke="#191970" d="M129.2205,-268.5C137.6422,-268.5 146.2879,-268.5 154.7573,-268.5"/>
<polygon fill="#191970" stroke="#191970" points="154.9739,-272.0001 164.9739,-268.5 154.9738,-265.0001 154.9739,-272.0001"/>
</g>
<!-- Node3 -->
<g id="node3" class="node">
<title>Node3</title>
<g id="a_node3"><a xlink:href="../../df/d10/classFairMultiLinkedData.html#a265eac63eef64bca1588f529c2fed859" target="_top" xlink:title="Adds a List of FairLinks (FairMultiLinkedData) to fLinks.">
<polygon fill="none" stroke="#000000" points="354,-414.5 354,-446.5 469,-446.5 469,-414.5 354,-414.5"/>
<text text-anchor="start" x="362" y="-433.5" font-family="FreeSans" font-size="10.00" fill="#000000">FairMultiLinkedData</text>
<text text-anchor="middle" x="411.5" y="-421.5" font-family="FreeSans" font-size="10.00" fill="#000000">::AddLinks</text>
</a>
</g>
</g>
<!-- Node2&#45;&gt;Node3 -->
<g id="edge2" class="edge">
<title>Node2&#45;&gt;Node3</title>
<path fill="none" stroke="#191970" d="M232.8122,-284.7396C247.348,-310.9938 276.558,-361.5975 316,-390.5 328.5721,-399.7126 344.0122,-406.2716 358.7832,-411.2901"/>
<polygon fill="#191970" stroke="#191970" points="357.7648,-414.6391 368.3564,-414.378 359.9137,-407.9771 357.7648,-414.6391"/>
</g>
<!-- Node5 -->
<g id="node5" class="node">
<title>Node5</title>
<g id="a_node5"><a xlink:href="../../d6/da5/classFairLink.html#a1d2581f4b79a434aacb932390dfa02a3" target="_top" xlink:title="FairLink::GetWeight">
<polygon fill="none" stroke="#000000" points="574.5,-375.5 574.5,-395.5 690.5,-395.5 690.5,-375.5 574.5,-375.5"/>
<text text-anchor="middle" x="632.5" y="-382.5" font-family="FreeSans" font-size="10.00" fill="#000000">FairLink::GetWeight</text>
</a>
</g>
</g>
<!-- Node2&#45;&gt;Node5 -->
<g id="edge43" class="edge">
<title>Node2&#45;&gt;Node5</title>
<path fill="none" stroke="#191970" d="M232.1769,-284.5728C246.9775,-307.4725 277.6041,-348.6847 316,-366.5 395.1987,-403.2473 497.7512,-401.7534 564.3182,-395.2982"/>
<polygon fill="#191970" stroke="#191970" points="564.6899,-398.7785 574.2773,-394.2694 563.9705,-391.8156 564.6899,-398.7785"/>
</g>
<!-- Node6 -->
<g id="node6" class="node">
<title>Node6</title>
<g id="a_node6"><a xlink:href="../../d6/da5/classFairLink.html#a7b9238bb9a934c83c1129c282a4c6057" target="_top" xlink:title="FairLink::SetWeight">
<polygon fill="none" stroke="#000000" points="575.5,-465.5 575.5,-485.5 689.5,-485.5 689.5,-465.5 575.5,-465.5"/>
<text text-anchor="middle" x="632.5" y="-472.5" font-family="FreeSans" font-size="10.00" fill="#000000">FairLink::SetWeight</text>
</a>
</g>
</g>
<!-- Node2&#45;&gt;Node6 -->
<g id="edge48" class="edge">
<title>Node2&#45;&gt;Node6</title>
<path fill="none" stroke="#191970" d="M225.029,-284.6415C231.8797,-322.3036 254.5947,-415.8625 316,-456.5 395.4673,-509.0907 512.1879,-499.2435 579.44,-487.3538"/>
<polygon fill="#191970" stroke="#191970" points="580.1966,-490.7734 589.3943,-485.5148 578.9248,-483.8899 580.1966,-490.7734"/>
</g>
<!-- Node7 -->
<g id="node7" class="node">
<title>Node7</title>
<g id="a_node7"><a xlink:href="../../d0/d6c/classFairRootManager.html#a7f2e8554087a63ad638c4fb80a87b320" target="_top" xlink:title="FairRootManager::CheckBranch">
<polygon fill="none" stroke="#000000" points="324.5,-336.5 324.5,-356.5 498.5,-356.5 498.5,-336.5 324.5,-336.5"/>
<text text-anchor="middle" x="411.5" y="-343.5" font-family="FreeSans" font-size="10.00" fill="#000000">FairRootManager::CheckBranch</text>
</a>
</g>
</g>
<!-- Node2&#45;&gt;Node7 -->
<g id="edge7" class="edge">
<title>Node2&#45;&gt;Node7</title>
<path fill="none" stroke="#191970" d="M243.1992,-284.7135C261.3875,-298.1619 289.0805,-316.7589 316,-327.5 321.9247,-329.864 328.1777,-331.9439 334.5335,-333.7721"/>
<polygon fill="#191970" stroke="#191970" points="334.0097,-337.2544 344.5734,-336.4425 335.809,-330.4896 334.0097,-337.2544"/>
</g>
<!-- Node11 -->
<g id="node11" class="node">
<title>Node11</title>
<g id="a_node11"><a xlink:href="../../d0/d6c/classFairRootManager.html#a84a39c70b28a5b7ddb59c737cdee2709" target="_top" xlink:title="FairRootManager::GetBranchId">
<polygon fill="none" stroke="#000000" points="326.5,-297.5 326.5,-317.5 496.5,-317.5 496.5,-297.5 326.5,-297.5"/>
<text text-anchor="middle" x="411.5" y="-304.5" font-family="FreeSans" font-size="10.00" fill="#000000">FairRootManager::GetBranchId</text>
</a>
</g>
</g>
<!-- Node2&#45;&gt;Node11 -->
<g id="edge12" class="edge">
<title>Node2&#45;&gt;Node11</title>
<path fill="none" stroke="#191970" d="M280.3297,-281.0054C292.1254,-283.518 304.4574,-286.1174 316,-288.5 327.1402,-290.7995 339.0221,-293.2029 350.486,-295.4967"/>
<polygon fill="#191970" stroke="#191970" points="349.9322,-298.9551 360.4237,-297.4788 351.3015,-292.0903 349.9322,-298.9551"/>
</g>
<!-- Node12 -->
<g id="node12" class="node">
<title>Node12</title>
<g id="a_node12"><a xlink:href="../../d0/d6c/classFairRootManager.html#a5ba9bc4dd1ea16cc2ef999a78aac0498" target="_top" xlink:title="FairRootManager::GetBranchName">
<polygon fill="none" stroke="#000000" points="316,-258.5 316,-278.5 507,-278.5 507,-258.5 316,-258.5"/>
<text text-anchor="middle" x="411.5" y="-265.5" font-family="FreeSans" font-size="10.00" fill="#000000">FairRootManager::GetBranchName</text>
</a>
</g>
</g>
<!-- Node2&#45;&gt;Node12 -->
<g id="edge13" class="edge">
<title>Node2&#45;&gt;Node12</title>
<path fill="none" stroke="#191970" d="M280.2332,-268.5C288.3479,-268.5 296.8911,-268.5 305.5647,-268.5"/>
<polygon fill="#191970" stroke="#191970" points="305.7888,-272.0001 315.7888,-268.5 305.7888,-265.0001 305.7888,-272.0001"/>
</g>
<!-- Node13 -->
<g id="node13" class="node">
<title>Node13</title>
<g id="a_node13"><a xlink:href="../../d6/da5/classFairLink.html#a0b804a2beb1f7cd11e7e1367f3de67ed" target="_top" xlink:title="FairLink::GetIndex">
<polygon fill="none" stroke="#000000" points="358,-219.5 358,-239.5 465,-239.5 465,-219.5 358,-219.5"/>
<text text-anchor="middle" x="411.5" y="-226.5" font-family="FreeSans" font-size="10.00" fill="#000000">FairLink::GetIndex</text>
</a>
</g>
</g>
<!-- Node2&#45;&gt;Node13 -->
<g id="edge14" class="edge">
<title>Node2&#45;&gt;Node13</title>
<path fill="none" stroke="#191970" d="M280.3297,-255.9946C292.1254,-253.482 304.4574,-250.8826 316,-248.5 327.1402,-246.2005 339.0221,-243.7971 350.486,-241.5033"/>
<polygon fill="#191970" stroke="#191970" points="351.3015,-244.9097 360.4237,-239.5212 349.9322,-238.0449 351.3015,-244.9097"/>
</g>
<!-- Node14 -->
<g id="node14" class="node">
<title>Node14</title>
<g id="a_node14"><a xlink:href="../../df/d10/classFairMultiLinkedData.html#a073907c634728321ec446dcc3081f86b" target="_top" xlink:title="returns the number of stored links">
<polygon fill="none" stroke="#000000" points="354,-168.5 354,-200.5 469,-200.5 469,-168.5 354,-168.5"/>
<text text-anchor="start" x="362" y="-187.5" font-family="FreeSans" font-size="10.00" fill="#000000">FairMultiLinkedData</text>
<text text-anchor="middle" x="411.5" y="-175.5" font-family="FreeSans" font-size="10.00" fill="#000000">::GetNLinks</text>
</a>
</g>
</g>
<!-- Node2&#45;&gt;Node14 -->
<g id="edge15" class="edge">
<title>Node2&#45;&gt;Node14</title>
<path fill="none" stroke="#191970" d="M243.7315,-252.4263C262.0276,-239.2485 289.5888,-220.9626 316,-209.5 324.9614,-205.6107 334.6666,-202.214 344.3402,-199.2833"/>
<polygon fill="#191970" stroke="#191970" points="345.3348,-202.6392 353.9746,-196.5069 343.3964,-195.9129 345.3348,-202.6392"/>
</g>
<!-- Node15 -->
<g id="node15" class="node">
<title>Node15</title>
<g id="a_node15"><a xlink:href="../../d0/d6c/classFairRootManager.html#abbbec76c83bcd0e1b78bef3c54e178eb" target="_top" xlink:title="FairRootManager::GetObject">
<polygon fill="none" stroke="#000000" points="553,-63.5 553,-83.5 712,-83.5 712,-63.5 553,-63.5"/>
<text text-anchor="middle" x="632.5" y="-70.5" font-family="FreeSans" font-size="10.00" fill="#000000">FairRootManager::GetObject</text>
</a>
</g>
</g>
<!-- Node2&#45;&gt;Node15 -->
<g id="edge16" class="edge">
<title>Node2&#45;&gt;Node15</title>
<path fill="none" stroke="#191970" d="M224.3408,-252.2928C229.8276,-212.5564 250.0333,-110.4801 316,-68.5 402.4766,-13.4678 530.9559,-41.2828 594.3249,-60.4343"/>
<polygon fill="#191970" stroke="#191970" points="593.3314,-63.7907 603.9198,-63.4196 595.4111,-57.1067 593.3314,-63.7907"/>
</g>
<!-- Node31 -->
<g id="node31" class="node">
<title>Node31</title>
<g id="a_node31"><a xlink:href="../../d6/da5/classFairLink.html#ac24acb72d164de213ecc15521127e672" target="_top" xlink:title="FairLink::GetType">
<polygon fill="none" stroke="#000000" points="360,-78.5 360,-98.5 463,-98.5 463,-78.5 360,-78.5"/>
<text text-anchor="middle" x="411.5" y="-85.5" font-family="FreeSans" font-size="10.00" fill="#000000">FairLink::GetType</text>
</a>
</g>
</g>
<!-- Node2&#45;&gt;Node31 -->
<g id="edge42" class="edge">
<title>Node2&#45;&gt;Node31</title>
<path fill="none" stroke="#191970" d="M227.0068,-252.1842C237.0314,-219.1427 264.4574,-144.3373 316,-107.5 325.8852,-100.4351 337.7476,-95.8395 349.6978,-92.8837"/>
<polygon fill="#191970" stroke="#191970" points="350.6541,-96.259 359.7151,-90.7683 349.2077,-89.4101 350.6541,-96.259"/>
</g>
<!-- Node32 -->
<g id="node32" class="node">
<title>Node32</title>
<g id="a_node32"><a xlink:href="../../df/d10/classFairMultiLinkedData.html#ac2865b824ebdfa83404b34c028aceb50" target="_top" xlink:title="Inserts a link into the list of links without persistance checking.">
<polygon fill="none" stroke="#000000" points="354,-117.5 354,-149.5 469,-149.5 469,-117.5 354,-117.5"/>
<text text-anchor="start" x="362" y="-136.5" font-family="FreeSans" font-size="10.00" fill="#000000">FairMultiLinkedData</text>
<text text-anchor="middle" x="411.5" y="-124.5" font-family="FreeSans" font-size="10.00" fill="#000000">::InsertLink</text>
</a>
</g>
</g>
<!-- Node2&#45;&gt;Node32 -->
<g id="edge44" class="edge">
<title>Node2&#45;&gt;Node32</title>
<path fill="none" stroke="#191970" d="M231.7401,-252.3251C246.4147,-228.1321 277.3796,-182.776 316,-158.5 324.5428,-153.1302 334.2073,-148.908 344.0258,-145.5896"/>
<polygon fill="#191970" stroke="#191970" points="345.3315,-148.8498 353.8598,-142.5634 343.2727,-142.1594 345.3315,-148.8498"/>
</g>
<!-- Node34 -->
<g id="node34" class="node">
<title>Node34</title>
<g id="a_node34"><a xlink:href="../../d0/d6c/classFairRootManager.html#a830b7803b29e7424a75f2dc374dcc96b" target="_top" xlink:title="FairRootManager::Instance">
<polygon fill="none" stroke="#000000" points="336,-.5 336,-20.5 487,-20.5 487,-.5 336,-.5"/>
<text text-anchor="middle" x="411.5" y="-7.5" font-family="FreeSans" font-size="10.00" fill="#000000">FairRootManager::Instance</text>
</a>
</g>
</g>
<!-- Node2&#45;&gt;Node34 -->
<g id="edge47" class="edge">
<title>Node2&#45;&gt;Node34</title>
<path fill="none" stroke="#191970" d="M224.063,-252.4113C229.054,-210.1255 248.4873,-95.0254 316,-35.5 320.8087,-31.2602 326.2511,-27.7257 332.0393,-24.7808"/>
<polygon fill="#191970" stroke="#191970" points="333.6671,-27.8874 341.3784,-20.622 330.8194,-21.4927 333.6671,-27.8874"/>
</g>
<!-- Node3&#45;&gt;Node2 -->
<g id="edge3" class="edge">
<title>Node3&#45;&gt;Node2</title>
<path fill="none" stroke="#191970" d="M353.6004,-426.9432C340.4545,-422.7077 327.1078,-416.6396 316,-408.5 275.3254,-378.6942 245.5324,-325.8098 231.4926,-294.045"/>
<polygon fill="#191970" stroke="#191970" points="234.5949,-292.3929 227.494,-284.5298 228.1416,-295.1048 234.5949,-292.3929"/>
</g>
<!-- Node4 -->
<g id="node4" class="node">
<title>Node4</title>
<g id="a_node4"><a xlink:href="../../df/d10/classFairMultiLinkedData.html#aa07f66692e0d0395427407b42aa91638" target="_top" xlink:title="returns stored links as FairLinks">
<polygon fill="none" stroke="#000000" points="575,-414.5 575,-446.5 690,-446.5 690,-414.5 575,-414.5"/>
<text text-anchor="start" x="583" y="-433.5" font-family="FreeSans" font-size="10.00" fill="#000000">FairMultiLinkedData</text>
<text text-anchor="middle" x="632.5" y="-421.5" font-family="FreeSans" font-size="10.00" fill="#000000">::GetLinks</text>
</a>
</g>
</g>
<!-- Node3&#45;&gt;Node4 -->
<g id="edge4" class="edge">
<title>Node3&#45;&gt;Node4</title>
<path fill="none" stroke="#191970" d="M469.2765,-430.5C498.4617,-430.5 534.0561,-430.5 564.5486,-430.5"/>
<polygon fill="#191970" stroke="#191970" points="564.6774,-434.0001 574.6773,-430.5 564.6773,-427.0001 564.6774,-434.0001"/>
</g>
<!-- Node3&#45;&gt;Node5 -->
<g id="edge5" class="edge">
<title>Node3&#45;&gt;Node5</title>
<path fill="none" stroke="#191970" d="M469.2765,-418.7356C501.2428,-412.2266 540.8981,-404.152 573.1168,-397.5916"/>
<polygon fill="#191970" stroke="#191970" points="574.1964,-400.9437 583.2969,-395.5187 572.7996,-394.0844 574.1964,-400.9437"/>
</g>
<!-- Node3&#45;&gt;Node6 -->
<g id="edge6" class="edge">
<title>Node3&#45;&gt;Node6</title>
<path fill="none" stroke="#191970" d="M469.2765,-442.2644C501.2428,-448.7734 540.8981,-456.848 573.1168,-463.4084"/>
<polygon fill="#191970" stroke="#191970" points="572.7996,-466.9156 583.2969,-465.4813 574.1964,-460.0563 572.7996,-466.9156"/>
</g>
<!-- Node8 -->
<g id="node8" class="node">
<title>Node8</title>
<g id="a_node8"><a xlink:href="../../d0/d6c/classFairRootManager.html#a6290139c7d60628625c0c0ff8a9c4b73" target="_top" xlink:title="FairRootManager::CheckBranchSt">
<polygon fill="none" stroke="#000000" points="758,-297.5 758,-317.5 943,-317.5 943,-297.5 758,-297.5"/>
<text text-anchor="middle" x="850.5" y="-304.5" font-family="FreeSans" font-size="10.00" fill="#000000">FairRootManager::CheckBranchSt</text>
</a>
</g>
</g>
<!-- Node7&#45;&gt;Node8 -->
<g id="edge8" class="edge">
<title>Node7&#45;&gt;Node8</title>
<path fill="none" stroke="#191970" d="M498.6789,-343.341C561.014,-340.5519 646.8287,-335.6319 722,-327.5 742.0705,-325.3288 763.7968,-322.2345 783.5737,-319.1267"/>
<polygon fill="#191970" stroke="#191970" points="784.3968,-322.5396 793.7191,-317.5051 783.292,-315.6274 784.3968,-322.5396"/>
</g>
<!-- Node10 -->
<g id="node10" class="node">
<title>Node10</title>
<g id="a_node10"><a xlink:href="../../d0/d6c/classFairRootManager.html#a04b41ff94b887472752605bbc3282a67" target="_top" xlink:title="FairRootManager::CreatePerMap">
<polygon fill="none" stroke="#000000" points="543,-297.5 543,-317.5 722,-317.5 722,-297.5 543,-297.5"/>
<text text-anchor="middle" x="632.5" y="-304.5" font-family="FreeSans" font-size="10.00" fill="#000000">FairRootManager::CreatePerMap</text>
</a>
</g>
</g>
<!-- Node7&#45;&gt;Node10 -->
<g id="edge10" class="edge">
<title>Node7&#45;&gt;Node10</title>
<path fill="none" stroke="#191970" d="M468.413,-336.4565C498.1869,-331.2023 534.8094,-324.7395 565.8968,-319.2535"/>
<polygon fill="#191970" stroke="#191970" points="566.5403,-322.6941 575.7799,-317.5094 565.3238,-315.8006 566.5403,-322.6941"/>
</g>
<!-- Node9 -->
<g id="node9" class="node">
<title>Node9</title>
<g id="a_node9"><a xlink:href="../../d0/d6c/classFairRootManager.html#a6135b9b9cc49e5e778b81b566f75e0e8" target="_top" xlink:title="FairRootManager::GetMemory\lBranch">
<polygon fill="none" stroke="#000000" points="980,-231.5 980,-263.5 1147,-263.5 1147,-231.5 980,-231.5"/>
<text text-anchor="start" x="988" y="-250.5" font-family="FreeSans" font-size="10.00" fill="#000000">FairRootManager::GetMemory</text>
<text text-anchor="middle" x="1063.5" y="-238.5" font-family="FreeSans" font-size="10.00" fill="#000000">Branch</text>
</a>
</g>
</g>
<!-- Node8&#45;&gt;Node9 -->
<g id="edge9" class="edge">
<title>Node8&#45;&gt;Node9</title>
<path fill="none" stroke="#191970" d="M886.1514,-297.4573C916.1372,-289.0106 959.8367,-276.7009 996.3533,-266.4146"/>
<polygon fill="#191970" stroke="#191970" points="997.7687,-269.6522 1006.4451,-263.5718 995.8706,-262.9144 997.7687,-269.6522"/>
</g>
<!-- Node10&#45;&gt;Node8 -->
<g id="edge11" class="edge">
<title>Node10&#45;&gt;Node8</title>
<path fill="none" stroke="#191970" d="M722.1127,-307.5C730.5534,-307.5 739.1544,-307.5 747.7043,-307.5"/>
<polygon fill="#191970" stroke="#191970" points="747.7051,-311.0001 757.7051,-307.5 747.7051,-304.0001 747.7051,-311.0001"/>
</g>
<!-- Node15&#45;&gt;Node9 -->
<g id="edge41" class="edge">
<title>Node15&#45;&gt;Node9</title>
<path fill="none" stroke="#191970" d="M665.9631,-83.5292C683.9078,-90.0575 705.6299,-99.9127 722,-113.5 743.6293,-131.4526 735.0208,-149.3111 758,-165.5 820.429,-209.4814 905.179,-229.8768 969.5791,-239.3327"/>
<polygon fill="#191970" stroke="#191970" points="969.3442,-242.8339 979.7337,-240.7583 970.3174,-235.9019 969.3442,-242.8339"/>
</g>
<!-- Node16 -->
<g id="node16" class="node">
<title>Node16</title>
<g id="a_node16"><a xlink:href="../../d0/d6c/classFairRootManager.html#a62ae3b6bdfdb86e3c710ae18ebe67367" target="_top" xlink:title="FairRootManager::Activate\lBranch">
<polygon fill="none" stroke="#000000" points="776,-124.5 776,-156.5 925,-156.5 925,-124.5 776,-124.5"/>
<text text-anchor="start" x="784" y="-143.5" font-family="FreeSans" font-size="10.00" fill="#000000">FairRootManager::Activate</text>
<text text-anchor="middle" x="850.5" y="-131.5" font-family="FreeSans" font-size="10.00" fill="#000000">Branch</text>
</a>
</g>
</g>
<!-- Node15&#45;&gt;Node16 -->
<g id="edge17" class="edge">
<title>Node15&#45;&gt;Node16</title>
<path fill="none" stroke="#191970" d="M665.1368,-83.5306C697.6172,-93.5131 748.2777,-109.0831 788.4337,-121.4246"/>
<polygon fill="#191970" stroke="#191970" points="787.5493,-124.8143 798.1362,-124.4066 789.6058,-118.1231 787.5493,-124.8143"/>
</g>
<!-- Node29 -->
<g id="node29" class="node">
<title>Node29</title>
<g id="a_node29"><a xlink:href="../../db/da1/classFairLogger.html#a60bd2d39c9b6c2be4d5c8893a7d6921e" target="_top" xlink:title="FairLogger::Debug2">
<polygon fill="none" stroke="#000000" points="1006,-63.5 1006,-83.5 1121,-83.5 1121,-63.5 1006,-63.5"/>
<text text-anchor="middle" x="1063.5" y="-70.5" font-family="FreeSans" font-size="10.00" fill="#000000">FairLogger::Debug2</text>
</a>
</g>
</g>
<!-- Node15&#45;&gt;Node29 -->
<g id="edge40" class="edge">
<title>Node15&#45;&gt;Node29</title>
<path fill="none" stroke="#191970" d="M712.0543,-73.5C793.5277,-73.5 918.8183,-73.5 995.7229,-73.5"/>
<polygon fill="#191970" stroke="#191970" points="995.7806,-77.0001 1005.7805,-73.5 995.7805,-70.0001 995.7806,-77.0001"/>
</g>
<!-- Node16&#45;&gt;Node9 -->
<g id="edge36" class="edge">
<title>Node16&#45;&gt;Node9</title>
<path fill="none" stroke="#191970" d="M872.2283,-156.7212C896.9972,-174.5973 939.2173,-203.2323 979,-221.5 983.9692,-223.7818 989.1917,-225.932 994.5009,-227.9431"/>
<polygon fill="#191970" stroke="#191970" points="993.5206,-231.3102 1004.1149,-231.4112 995.8959,-224.7255 993.5206,-231.3102"/>
</g>
<!-- Node17 -->
<g id="node17" class="node">
<title>Node17</title>
<g id="a_node17"><a xlink:href="../../d0/d6c/classFairRootManager.html#ae01e51ec943e7e829002b077cf50792d" target="_top" xlink:title="FairRootManager::AddMemory\lBranch">
<polygon fill="none" stroke="#000000" points="979,-102.5 979,-134.5 1148,-134.5 1148,-102.5 979,-102.5"/>
<text text-anchor="start" x="987" y="-121.5" font-family="FreeSans" font-size="10.00" fill="#000000">FairRootManager::AddMemory</text>
<text text-anchor="middle" x="1063.5" y="-109.5" font-family="FreeSans" font-size="10.00" fill="#000000">Branch</text>
</a>
</g>
</g>
<!-- Node16&#45;&gt;Node17 -->
<g id="edge18" class="edge">
<title>Node16&#45;&gt;Node17</title>
<path fill="none" stroke="#191970" d="M925.2963,-132.7746C939.3212,-131.326 954.1532,-129.794 968.691,-128.2925"/>
<polygon fill="#191970" stroke="#191970" points="969.1077,-131.7682 978.6952,-127.2592 968.3885,-124.8052 969.1077,-131.7682"/>
</g>
<!-- Node18 -->
<g id="node18" class="node">
<title>Node18</title>
<g id="a_node18"><a xlink:href="../../db/da1/classFairLogger.html#a710e562aaff33766e424013a77d9cb77" target="_top" xlink:title="FairLogger::Debug">
<polygon fill="none" stroke="#000000" points="1009.5,-153.5 1009.5,-173.5 1117.5,-173.5 1117.5,-153.5 1009.5,-153.5"/>
<text text-anchor="middle" x="1063.5" y="-160.5" font-family="FreeSans" font-size="10.00" fill="#000000">FairLogger::Debug</text>
</a>
</g>
</g>
<!-- Node16&#45;&gt;Node18 -->
<g id="edge19" class="edge">
<title>Node16&#45;&gt;Node18</title>
<path fill="none" stroke="#191970" d="M925.2963,-148.5766C949.417,-151.1812 975.9251,-154.0436 999.2183,-156.5588"/>
<polygon fill="#191970" stroke="#191970" points="999.0119,-160.0568 1009.3298,-157.6506 999.7634,-153.0972 999.0119,-160.0568"/>
</g>
<!-- Node16&#45;&gt;Node29 -->
<g id="edge33" class="edge">
<title>Node16&#45;&gt;Node29</title>
<path fill="none" stroke="#191970" d="M889.3969,-124.3897C914.6412,-114.3294 948.4148,-101.6048 979,-92.5 986.9758,-90.1257 995.4524,-87.89 1003.8403,-85.8439"/>
<polygon fill="#191970" stroke="#191970" points="1004.6857,-89.2406 1013.6111,-83.5322 1003.0739,-82.4287 1004.6857,-89.2406"/>
</g>
<!-- Node30 -->
<g id="node30" class="node">
<title>Node30</title>
<g id="a_node30"><a xlink:href="../../db/da1/classFairLogger.html#a3ebc5751836771a50a11e0e2491a9f68" target="_top" xlink:title="FairLogger::Info">
<polygon fill="none" stroke="#000000" points="1016.5,-192.5 1016.5,-212.5 1110.5,-212.5 1110.5,-192.5 1016.5,-192.5"/>
<text text-anchor="middle" x="1063.5" y="-199.5" font-family="FreeSans" font-size="10.00" fill="#000000">FairLogger::Info</text>
</a>
</g>
</g>
<!-- Node16&#45;&gt;Node30 -->
<g id="edge37" class="edge">
<title>Node16&#45;&gt;Node30</title>
<path fill="none" stroke="#191970" d="M896.3082,-156.5022C920.7096,-164.7645 951.3225,-174.716 979,-182.5 988.263,-185.1051 998.1599,-187.6545 1007.7987,-190.0139"/>
<polygon fill="#191970" stroke="#191970" points="1007.1713,-193.4628 1017.7126,-192.3983 1008.8083,-186.6568 1007.1713,-193.4628"/>
</g>
<!-- Node19 -->
<g id="node19" class="node">
<title>Node19</title>
<g id="a_node19"><a xlink:href="../../db/da1/classFairLogger.html#ae5a926d95789678b453cbb45e0a9a46e" target="_top" xlink:title="FairLogger::IsLogNeeded">
<polygon fill="none" stroke="#000000" points="1184,-133.5 1184,-153.5 1324,-153.5 1324,-133.5 1184,-133.5"/>
<text text-anchor="middle" x="1254" y="-140.5" font-family="FreeSans" font-size="10.00" fill="#000000">FairLogger::IsLogNeeded</text>
</a>
</g>
</g>
<!-- Node18&#45;&gt;Node19 -->
<g id="edge20" class="edge">
<title>Node18&#45;&gt;Node19</title>
<path fill="none" stroke="#191970" d="M1117.5801,-157.8223C1135.0164,-155.9917 1154.732,-153.9218 1173.6443,-151.9363"/>
<polygon fill="#191970" stroke="#191970" points="1174.1656,-155.4009 1183.7455,-150.8758 1173.4347,-148.4392 1174.1656,-155.4009"/>
</g>
<!-- Node20 -->
<g id="node20" class="node">
<title>Node20</title>
<g id="a_node20"><a xlink:href="../../db/da1/classFairLogger.html#aa9d98b58fab95abcf553dfefe1e572f5" target="_top" xlink:title="FairLogger::Log">
<polygon fill="none" stroke="#000000" points="1207.5,-172.5 1207.5,-192.5 1300.5,-192.5 1300.5,-172.5 1207.5,-172.5"/>
<text text-anchor="middle" x="1254" y="-179.5" font-family="FreeSans" font-size="10.00" fill="#000000">FairLogger::Log</text>
</a>
</g>
</g>
<!-- Node18&#45;&gt;Node20 -->
<g id="edge21" class="edge">
<title>Node18&#45;&gt;Node20</title>
<path fill="none" stroke="#191970" d="M1117.5801,-168.8938C1142.4268,-171.372 1171.9018,-174.3117 1197.0854,-176.8235"/>
<polygon fill="#191970" stroke="#191970" points="1196.9289,-180.3252 1207.2269,-177.835 1197.6237,-173.3597 1196.9289,-180.3252"/>
</g>
<!-- Node21 -->
<g id="node21" class="node">
<title>Node21</title>
<g id="a_node21"><a xlink:href="../../db/da1/classFairLogger.html#a496d9b3f72963d24a58abc5a023b74b0" target="_top" xlink:title="End of the line.">
<polygon fill="none" stroke="#000000" points="1394,-211.5 1394,-231.5 1491,-231.5 1491,-211.5 1394,-211.5"/>
<text text-anchor="middle" x="1442.5" y="-218.5" font-family="FreeSans" font-size="10.00" fill="#000000">FairLogger::endl</text>
</a>
</g>
</g>
<!-- Node20&#45;&gt;Node21 -->
<g id="edge22" class="edge">
<title>Node20&#45;&gt;Node21</title>
<path fill="none" stroke="#191970" d="M1300.5955,-192.1405C1325.8273,-197.3608 1357.2427,-203.8606 1384.096,-209.4164"/>
<polygon fill="#191970" stroke="#191970" points="1383.6403,-212.8962 1394.1421,-211.4949 1385.0586,-206.0414 1383.6403,-212.8962"/>
</g>
<!-- Node26 -->
<g id="node26" class="node">
<title>Node26</title>
<g id="a_node26"><a xlink:href="../../db/da1/classFairLogger.html#aeb76e4a75fe913ebdf1c07b5d1f3ac1b" target="_top" xlink:title="FairLogger::GetOutputStream">
<polygon fill="none" stroke="#000000" points="1360,-172.5 1360,-192.5 1525,-192.5 1525,-172.5 1360,-172.5"/>
<text text-anchor="middle" x="1442.5" y="-179.5" font-family="FreeSans" font-size="10.00" fill="#000000">FairLogger::GetOutputStream</text>
</a>
</g>
</g>
<!-- Node20&#45;&gt;Node26 -->
<g id="edge28" class="edge">
<title>Node20&#45;&gt;Node26</title>
<path fill="none" stroke="#191970" d="M1300.5955,-182.5C1315.542,-182.5 1332.6583,-182.5 1349.7109,-182.5"/>
<polygon fill="#191970" stroke="#191970" points="1349.7269,-186.0001 1359.7269,-182.5 1349.7268,-179.0001 1349.7269,-186.0001"/>
</g>
<!-- Node27 -->
<g id="node27" class="node">
<title>Node27</title>
<g id="a_node27"><a xlink:href="../../db/da1/classFairLogger.html#a5529c6ab25bc075aff767f30a743e616" target="_top" xlink:title="FairLogger::OpenLogFile">
<polygon fill="none" stroke="#000000" points="1573.5,-133.5 1573.5,-153.5 1710.5,-153.5 1710.5,-133.5 1573.5,-133.5"/>
<text text-anchor="middle" x="1642" y="-140.5" font-family="FreeSans" font-size="10.00" fill="#000000">FairLogger::OpenLogFile</text>
</a>
</g>
</g>
<!-- Node20&#45;&gt;Node27 -->
<g id="edge32" class="edge">
<title>Node20&#45;&gt;Node27</title>
<path fill="none" stroke="#191970" d="M1300.5099,-172.4827C1318.9538,-168.8363 1340.4013,-165.0001 1360,-162.5 1428.276,-153.7903 1506.3948,-148.9209 1563.0719,-146.2983"/>
<polygon fill="#191970" stroke="#191970" points="1563.5653,-149.7797 1573.3981,-145.8343 1563.251,-142.7868 1563.5653,-149.7797"/>
</g>
<!-- Node22 -->
<g id="node22" class="node">
<title>Node22</title>
<g id="a_node22"><a xlink:href="../../db/da1/classFairLogger.html#aca7a4fd0af5e622c9635f62996a7334d" target="_top" xlink:title="Flush the streams.">
<polygon fill="none" stroke="#000000" points="1778,-240.5 1778,-260.5 1878,-260.5 1878,-240.5 1778,-240.5"/>
<text text-anchor="middle" x="1828" y="-247.5" font-family="FreeSans" font-size="10.00" fill="#000000">FairLogger::flush</text>
</a>
</g>
</g>
<!-- Node21&#45;&gt;Node22 -->
<g id="edge23" class="edge">
<title>Node21&#45;&gt;Node22</title>
<path fill="none" stroke="#191970" d="M1491.0446,-230.6494C1512.4203,-234.3241 1537.8802,-238.2221 1561,-240.5 1631.69,-247.4649 1713.3448,-249.6755 1767.5537,-250.3274"/>
<polygon fill="#191970" stroke="#191970" points="1767.6459,-253.8285 1777.6825,-250.4349 1767.7203,-246.8289 1767.6459,-253.8285"/>
</g>
<!-- Node23 -->
<g id="node23" class="node">
<title>Node23</title>
<g id="a_node23"><a xlink:href="../../db/da1/classFairLogger.html#a9848989e18afa7144b47ecc38b7bfe0e" target="_top" xlink:title="FairLogger::LogFatalMessage">
<polygon fill="none" stroke="#000000" points="1561,-211.5 1561,-231.5 1723,-231.5 1723,-211.5 1561,-211.5"/>
<text text-anchor="middle" x="1642" y="-218.5" font-family="FreeSans" font-size="10.00" fill="#000000">FairLogger::LogFatalMessage</text>
</a>
</g>
</g>
<!-- Node21&#45;&gt;Node23 -->
<g id="edge24" class="edge">
<title>Node21&#45;&gt;Node23</title>
<path fill="none" stroke="#191970" d="M1491.0481,-221.5C1509.0875,-221.5 1530.1922,-221.5 1550.8059,-221.5"/>
<polygon fill="#191970" stroke="#191970" points="1550.8704,-225.0001 1560.8703,-221.5 1550.8703,-218.0001 1550.8704,-225.0001"/>
</g>
<!-- Node23&#45;&gt;Node22 -->
<g id="edge25" class="edge">
<title>Node23&#45;&gt;Node22</title>
<path fill="none" stroke="#191970" d="M1706.2711,-231.5208C1726.2114,-234.6297 1748.1056,-238.0433 1767.7612,-241.1079"/>
<polygon fill="#191970" stroke="#191970" points="1767.3938,-244.5929 1777.8136,-242.6752 1768.4722,-237.6764 1767.3938,-244.5929"/>
</g>
<!-- Node24 -->
<g id="node24" class="node">
<title>Node24</title>
<g id="a_node24"><a xlink:href="../../db/da1/classFairLogger.html#a6fe59f109418f1331c91c39d0ea33c1d" target="_top" xlink:title="FairLogger::GetTime">
<polygon fill="none" stroke="#000000" points="1769,-191.5 1769,-211.5 1887,-211.5 1887,-191.5 1769,-191.5"/>
<text text-anchor="middle" x="1828" y="-198.5" font-family="FreeSans" font-size="10.00" fill="#000000">FairLogger::GetTime</text>
</a>
</g>
</g>
<!-- Node23&#45;&gt;Node24 -->
<g id="edge26" class="edge">
<title>Node23&#45;&gt;Node24</title>
<path fill="none" stroke="#191970" d="M1723.0412,-212.7859C1734.9288,-211.5077 1747.0815,-210.2009 1758.7048,-208.9511"/>
<polygon fill="#191970" stroke="#191970" points="1759.1945,-212.4187 1768.763,-207.8696 1758.4461,-205.4588 1759.1945,-212.4187"/>
</g>
<!-- Node25 -->
<g id="node25" class="node">
<title>Node25</title>
<g id="a_node25"><a xlink:href="../../df/da1/namespaceActs_1_1VectorHelpers.html#ab52a0c8023eda1c81cc9ddfe7f03b535" target="_top" xlink:title="Access to the time component of input parameter.">
<polygon fill="none" stroke="#000000" points="1933,-185.5 1933,-217.5 2049,-217.5 2049,-185.5 1933,-185.5"/>
<text text-anchor="start" x="1941" y="-204.5" font-family="FreeSans" font-size="10.00" fill="#000000">Acts::VectorHelpers</text>
<text text-anchor="middle" x="1991" y="-192.5" font-family="FreeSans" font-size="10.00" fill="#000000">::time</text>
</a>
</g>
</g>
<!-- Node24&#45;&gt;Node25 -->
<g id="edge27" class="edge">
<title>Node24&#45;&gt;Node25</title>
<path fill="none" stroke="#191970" d="M1887.3078,-201.5C1898.7836,-201.5 1910.8948,-201.5 1922.6328,-201.5"/>
<polygon fill="#191970" stroke="#191970" points="1922.8266,-205.0001 1932.8265,-201.5 1922.8265,-198.0001 1922.8266,-205.0001"/>
</g>
<!-- Node26&#45;&gt;Node24 -->
<g id="edge29" class="edge">
<title>Node26&#45;&gt;Node24</title>
<path fill="none" stroke="#191970" d="M1525.1994,-186.576C1594.8147,-190.0071 1693.2325,-194.8578 1758.7554,-198.0872"/>
<polygon fill="#191970" stroke="#191970" points="1758.8193,-201.5945 1768.9795,-198.5911 1759.1639,-194.603 1758.8193,-201.5945"/>
</g>
<!-- Node26&#45;&gt;Node27 -->
<g id="edge30" class="edge">
<title>Node26&#45;&gt;Node27</title>
<path fill="none" stroke="#191970" d="M1493.8762,-172.4565C1520.4045,-167.2706 1552.9556,-160.9072 1580.7804,-155.4677"/>
<polygon fill="#191970" stroke="#191970" points="1581.6552,-158.8631 1590.7979,-153.5094 1580.3121,-151.9931 1581.6552,-158.8631"/>
</g>
<!-- Node28 -->
<g id="node28" class="node">
<title>Node28</title>
<g id="a_node28"><a xlink:href="../../db/da1/classFairLogger.html#a80d1ac93eff9a9b6d52f8118b8b796aa" target="_top" xlink:title="FairLogger::CloseLogFile">
<polygon fill="none" stroke="#000000" points="1759,-133.5 1759,-153.5 1897,-153.5 1897,-133.5 1759,-133.5"/>
<text text-anchor="middle" x="1828" y="-140.5" font-family="FreeSans" font-size="10.00" fill="#000000">FairLogger::CloseLogFile</text>
</a>
</g>
</g>
<!-- Node27&#45;&gt;Node28 -->
<g id="edge31" class="edge">
<title>Node27&#45;&gt;Node28</title>
<path fill="none" stroke="#191970" d="M1710.7311,-143.5C1723.1428,-143.5 1736.1747,-143.5 1748.855,-143.5"/>
<polygon fill="#191970" stroke="#191970" points="1748.9305,-147.0001 1758.9305,-143.5 1748.9304,-140.0001 1748.9305,-147.0001"/>
</g>
<!-- Node29&#45;&gt;Node19 -->
<g id="edge34" class="edge">
<title>Node29&#45;&gt;Node19</title>
<path fill="none" stroke="#191970" d="M1116.758,-83.5379C1127.2365,-86.0537 1138.0589,-89.0415 1148,-92.5 1175.933,-102.218 1206.1846,-117.2621 1227.1924,-128.4963"/>
<polygon fill="#191970" stroke="#191970" points="1225.6938,-131.6651 1236.1526,-133.357 1229.0317,-125.5121 1225.6938,-131.6651"/>
</g>
<!-- Node29&#45;&gt;Node20 -->
<g id="edge35" class="edge">
<title>Node29&#45;&gt;Node20</title>
<path fill="none" stroke="#191970" d="M1121.0756,-79.3273C1130.7324,-82.223 1140.1508,-86.4273 1148,-92.5 1175.6699,-113.9074 1156.9528,-140.3111 1184,-162.5 1188.214,-165.9571 1192.9947,-168.817 1198.0316,-171.1828"/>
<polygon fill="#191970" stroke="#191970" points="1196.7245,-174.4295 1207.3075,-174.9299 1199.3464,-167.939 1196.7245,-174.4295"/>
</g>
<!-- Node30&#45;&gt;Node19 -->
<g id="edge38" class="edge">
<title>Node30&#45;&gt;Node19</title>
<path fill="none" stroke="#191970" d="M1110.6867,-193.7444C1123.0358,-190.8028 1136.1925,-187.0764 1148,-182.5 1165.0663,-175.8854 1167.0439,-169.3921 1184,-162.5 1189.3808,-160.3129 1195.095,-158.2971 1200.8479,-156.4619"/>
<polygon fill="#191970" stroke="#191970" points="1201.9512,-159.7849 1210.5139,-153.5455 1199.9292,-153.0833 1201.9512,-159.7849"/>
</g>
<!-- Node30&#45;&gt;Node20 -->
<g id="edge39" class="edge">
<title>Node30&#45;&gt;Node20</title>
<path fill="none" stroke="#191970" d="M1110.5899,-197.5562C1136.7733,-194.8073 1169.5456,-191.3666 1197.1498,-188.4685"/>
<polygon fill="#191970" stroke="#191970" points="1197.8719,-191.912 1207.4518,-187.387 1197.141,-184.9503 1197.8719,-191.912"/>
</g>
<!-- Node32&#45;&gt;Node5 -->
<g id="edge46" class="edge">
<title>Node32&#45;&gt;Node5</title>
<path fill="none" stroke="#191970" d="M469.4372,-138.0911C483.3581,-141.8173 497.0578,-148.088 507,-158.5 560.0357,-214.0418 499.4578,-264.2406 543,-327.5 556.3813,-346.9408 578.6256,-361.4011 597.5895,-371.0209"/>
<polygon fill="#191970" stroke="#191970" points="596.3332,-374.3005 606.8618,-375.4829 599.3685,-367.9928 596.3332,-374.3005"/>
</g>
<!-- Node33 -->
<g id="node33" class="node">
<title>Node33</title>
<g id="a_node33"><a xlink:href="../../d6/da5/classFairLink.html#a9901f437889507bae3db3577078bc8ae" target="_top" xlink:title="FairLink::AddWeight">
<polygon fill="none" stroke="#000000" points="574,-123.5 574,-143.5 691,-143.5 691,-123.5 574,-123.5"/>
<text text-anchor="middle" x="632.5" y="-130.5" font-family="FreeSans" font-size="10.00" fill="#000000">FairLink::AddWeight</text>
</a>
</g>
</g>
<!-- Node32&#45;&gt;Node33 -->
<g id="edge45" class="edge">
<title>Node32&#45;&gt;Node33</title>
<path fill="none" stroke="#191970" d="M469.2765,-133.5C498.2319,-133.5 533.4959,-133.5 563.8274,-133.5"/>
<polygon fill="#191970" stroke="#191970" points="563.9084,-137.0001 573.9083,-133.5 563.9083,-130.0001 563.9084,-137.0001"/>
</g>
</g>
</svg>
