<?xml version="1.0" encoding="UTF-8" standalone="no"?>
<!DOCTYPE svg PUBLIC "-//W3C//DTD SVG 1.1//EN"
 "http://www.w3.org/Graphics/SVG/1.1/DTD/svg11.dtd">
<!-- Generated by graphviz version 2.40.1 (20161225.0304)
 -->
<!-- Title: plot Pages: 1 -->
<svg width="233pt" height="158pt"
 viewBox="0.00 0.00 233.00 158.00" xmlns="http://www.w3.org/2000/svg" xmlns:xlink="http://www.w3.org/1999/xlink">
<g id="graph0" class="graph" transform="scale(1 1) rotate(0) translate(4 154)">
<title>plot</title>
<!-- Node1 -->
<g id="node1" class="node">
<title>Node1</title>
<polygon fill="#bfbfbf" stroke="#000000" points="0,-70.5 0,-90.5 36,-90.5 36,-70.5 0,-70.5"/>
<text text-anchor="middle" x="18" y="-77.5" font-family="FreeSans" font-size="10.00" fill="#000000">plot</text>
</g>
<!-- Node2 -->
<g id="node2" class="node">
<title>Node2</title>
<g id="a_node2"><a xlink:href="../../dd/d39/Mat__map__surface__plot_8C.html#a316b27b9b510494703b3b9ba3b5ef653" target="_top" xlink:title="Mat_map_surface_plot">
<polygon fill="none" stroke="#000000" points="83.5,-129.5 83.5,-149.5 213.5,-149.5 213.5,-129.5 83.5,-129.5"/>
<text text-anchor="middle" x="148.5" y="-136.5" font-family="FreeSans" font-size="10.00" fill="#000000">Mat_map_surface_plot</text>
</a>
</g>
</g>
<!-- Node1&#45;&gt;Node2 -->
<g id="edge1" class="edge">
<title>Node1&#45;&gt;Node2</title>
<path fill="none" stroke="#191970" d="M37.0261,-97.4977C46.8674,-105.5041 59.4302,-114.5748 72,-120.5 79.5508,-124.0593 87.8467,-127.0012 96.1039,-129.4178"/>
<polygon fill="#191970" stroke="#191970" points="39.0443,-94.621 29.1465,-90.8415 34.5271,-99.9684 39.0443,-94.621"/>
</g>
<!-- Node3 -->
<g id="node3" class="node">
<title>Node3</title>
<g id="a_node3"><a xlink:href="../../d0/dab/Mat__map__surface__plot__1D_8C.html#aed6e995568a560922476e7e1e169c8c6" target="_top" xlink:title="Mat_map_surface_plot_1D">
<polygon fill="none" stroke="#000000" points="74,-90.5 74,-110.5 223,-110.5 223,-90.5 74,-90.5"/>
<text text-anchor="middle" x="148.5" y="-97.5" font-family="FreeSans" font-size="10.00" fill="#000000">Mat_map_surface_plot_1D</text>
</a>
</g>
</g>
<!-- Node1&#45;&gt;Node3 -->
<g id="edge2" class="edge">
<title>Node1&#45;&gt;Node3</title>
<path fill="none" stroke="#191970" d="M46.2776,-84.8337C57.1692,-86.5029 70.1121,-88.4865 83.0648,-90.4716"/>
<polygon fill="#191970" stroke="#191970" points="46.5603,-81.3363 36.1455,-83.2809 45.4998,-88.2555 46.5603,-81.3363"/>
</g>
<!-- Node4 -->
<g id="node4" class="node">
<title>Node4</title>
<g id="a_node4"><a xlink:href="../../df/da2/Mat__map__surface__plot__dist_8C.html#a1ba43ac341e9056ff679d7119c104bc6" target="_top" xlink:title="Mat_map_surface_plot_dist">
<polygon fill="none" stroke="#000000" points="72,-51.5 72,-71.5 225,-71.5 225,-51.5 72,-51.5"/>
<text text-anchor="middle" x="148.5" y="-58.5" font-family="FreeSans" font-size="10.00" fill="#000000">Mat_map_surface_plot_dist</text>
</a>
</g>
</g>
<!-- Node1&#45;&gt;Node4 -->
<g id="edge3" class="edge">
<title>Node1&#45;&gt;Node4</title>
<path fill="none" stroke="#191970" d="M46.1738,-76.3981C56.1035,-74.9524 67.7478,-73.257 79.554,-71.5381"/>
<polygon fill="#191970" stroke="#191970" points="45.5368,-72.9538 36.1455,-77.8581 46.5454,-79.8808 45.5368,-72.9538"/>
</g>
<!-- Node5 -->
<g id="node5" class="node">
<title>Node5</title>
<g id="a_node5"><a xlink:href="../../d7/dee/Mat__map__surface__plot__ratio_8C.html#adb69c3efe670b5d46dee1f10d84945cf" target="_top" xlink:title="Mat_map_surface_plot\l_ratio">
<polygon fill="none" stroke="#000000" points="83.5,-.5 83.5,-32.5 213.5,-32.5 213.5,-.5 83.5,-.5"/>
<text text-anchor="start" x="91.5" y="-19.5" font-family="FreeSans" font-size="10.00" fill="#000000">Mat_map_surface_plot</text>
<text text-anchor="middle" x="148.5" y="-7.5" font-family="FreeSans" font-size="10.00" fill="#000000">_ratio</text>
</a>
</g>
</g>
<!-- Node1&#45;&gt;Node5 -->
<g id="edge4" class="edge">
<title>Node1&#45;&gt;Node5</title>
<path fill="none" stroke="#191970" d="M38.1467,-64.2467C47.9447,-56.8968 60.145,-48.5281 72,-42.5 79.1271,-38.876 86.873,-35.5768 94.6087,-32.6374"/>
<polygon fill="#191970" stroke="#191970" points="36.0037,-61.4795 30.2239,-70.3589 40.2795,-67.0218 36.0037,-61.4795"/>
</g>
</g>
</svg>
