<?xml version="1.0" encoding="UTF-8" standalone="no"?>
<!DOCTYPE svg PUBLIC "-//W3C//DTD SVG 1.1//EN"
 "http://www.w3.org/Graphics/SVG/1.1/DTD/svg11.dtd">
<!-- Generated by graphviz version 2.40.1 (20161225.0304)
 -->
<!-- Title: FairRootManager::GetBranchId Pages: 1 -->
<svg width="1826pt" height="873pt"
 viewBox="0.00 0.00 1826.00 873.21" xmlns="http://www.w3.org/2000/svg" xmlns:xlink="http://www.w3.org/1999/xlink">
<g id="graph0" class="graph" transform="scale(1 1) rotate(0) translate(4 869.2074)">
<title>FairRootManager::GetBranchId</title>
<!-- Node1 -->
<g id="node1" class="node">
<title>Node1</title>
<polygon fill="#bfbfbf" stroke="#000000" points="0,-751.5 0,-771.5 170,-771.5 170,-751.5 0,-751.5"/>
<text text-anchor="middle" x="85" y="-758.5" font-family="FreeSans" font-size="10.00" fill="#000000">FairRootManager::GetBranchId</text>
</g>
<!-- Node2 -->
<g id="node2" class="node">
<title>Node2</title>
<g id="a_node2"><a xlink:href="../../dd/d26/classPndTrackCand.html#a8044cf87366b517dfe6a1bc047d2d176" target="_top" xlink:title="PndTrackCand::AddHit">
<polygon fill="none" stroke="#000000" points="607.5,-773.5 607.5,-793.5 736.5,-793.5 736.5,-773.5 607.5,-773.5"/>
<text text-anchor="middle" x="672" y="-780.5" font-family="FreeSans" font-size="10.00" fill="#000000">PndTrackCand::AddHit</text>
</a>
</g>
</g>
<!-- Node1&#45;&gt;Node2 -->
<g id="edge1" class="edge">
<title>Node1&#45;&gt;Node2</title>
<path fill="none" stroke="#191970" d="M180.3314,-765.0729C300.4936,-769.5764 503.8149,-777.1966 607.3042,-781.0753"/>
<polygon fill="#191970" stroke="#191970" points="180.1653,-761.5643 170.0412,-764.6872 179.903,-768.5594 180.1653,-761.5643"/>
</g>
<!-- Node3 -->
<g id="node3" class="node">
<title>Node3</title>
<g id="a_node3"><a xlink:href="../../df/d10/classFairMultiLinkedData.html#a6021b6584834def64d405d52c5f49429" target="_top" xlink:title="Adds a FairLink link at the end of fLinks. If multi is kTRUE a link is allowed more than once otherwi...">
<polygon fill="none" stroke="#000000" points="210.5,-286.5 210.5,-318.5 325.5,-318.5 325.5,-286.5 210.5,-286.5"/>
<text text-anchor="start" x="218.5" y="-305.5" font-family="FreeSans" font-size="10.00" fill="#000000">FairMultiLinkedData</text>
<text text-anchor="middle" x="268" y="-293.5" font-family="FreeSans" font-size="10.00" fill="#000000">::AddLink</text>
</a>
</g>
</g>
<!-- Node1&#45;&gt;Node3 -->
<g id="edge2" class="edge">
<title>Node1&#45;&gt;Node3</title>
<path fill="none" stroke="#191970" d="M92.7225,-742.1306C123.0568,-666.0459 233.7435,-388.422 261.6022,-318.547"/>
<polygon fill="#191970" stroke="#191970" points="89.4448,-740.9011 88.9924,-751.4863 95.947,-743.4935 89.4448,-740.9011"/>
</g>
<!-- Node5 -->
<g id="node5" class="node">
<title>Node5</title>
<g id="a_node5"><a xlink:href="../../dd/d8a/classEicIdealTrackingCode.html#ab46f1d961d618bc873e1dcb5b17a8d3c" target="_top" xlink:title="EicIdealTrackingCode\l::Exec">
<polygon fill="none" stroke="#000000" points="610,-722.5 610,-754.5 734,-754.5 734,-722.5 610,-722.5"/>
<text text-anchor="start" x="618" y="-741.5" font-family="FreeSans" font-size="10.00" fill="#000000">EicIdealTrackingCode</text>
<text text-anchor="middle" x="672" y="-729.5" font-family="FreeSans" font-size="10.00" fill="#000000">::Exec</text>
</a>
</g>
</g>
<!-- Node1&#45;&gt;Node5 -->
<g id="edge54" class="edge">
<title>Node1&#45;&gt;Node5</title>
<path fill="none" stroke="#191970" d="M180.0508,-757.7757C301.1704,-753.03 507.1072,-744.9609 609.8534,-740.935"/>
<polygon fill="#191970" stroke="#191970" points="179.8964,-754.279 170.0412,-758.1679 180.1706,-761.2736 179.8964,-754.279"/>
</g>
<!-- Node8 -->
<g id="node8" class="node">
<title>Node8</title>
<g id="a_node8"><a xlink:href="../../de/d85/classPndGFTrackToPndTrackConvertorTask.html#a2e5496d4e39aefde3476bedca2d55a57" target="_top" xlink:title="PndGFTrackToPndTrackConvertor\lTask::Exec">
<polygon fill="none" stroke="#000000" points="1032.5,-799.5 1032.5,-831.5 1213.5,-831.5 1213.5,-799.5 1032.5,-799.5"/>
<text text-anchor="start" x="1040.5" y="-818.5" font-family="FreeSans" font-size="10.00" fill="#000000">PndGFTrackToPndTrackConvertor</text>
<text text-anchor="middle" x="1123" y="-806.5" font-family="FreeSans" font-size="10.00" fill="#000000">Task::Exec</text>
</a>
</g>
</g>
<!-- Node1&#45;&gt;Node8 -->
<g id="edge52" class="edge">
<title>Node1&#45;&gt;Node8</title>
<path fill="none" stroke="#191970" d="M130.8131,-774.041C200.1778,-791.8945 336.2576,-822.5 454,-822.5 454,-822.5 454,-822.5 672,-822.5 796.9013,-822.5 941.2364,-819.7827 1032.3038,-817.7341"/>
<polygon fill="#191970" stroke="#191970" points="131.6325,-770.6378 121.0732,-771.5046 129.8684,-777.4118 131.6325,-770.6378"/>
</g>
<!-- Node10 -->
<g id="node10" class="node">
<title>Node10</title>
<g id="a_node10"><a xlink:href="../../d7/d87/classPndRecoKalmanTask.html#aa92916b999aeaf87e99fb08734ce368e" target="_top" xlink:title="PndRecoKalmanTask::Exec">
<polygon fill="none" stroke="#000000" points="1278,-763.5 1278,-783.5 1428,-783.5 1428,-763.5 1278,-763.5"/>
<text text-anchor="middle" x="1353" y="-770.5" font-family="FreeSans" font-size="10.00" fill="#000000">PndRecoKalmanTask::Exec</text>
</a>
</g>
</g>
<!-- Node1&#45;&gt;Node10 -->
<g id="edge53" class="edge">
<title>Node1&#45;&gt;Node10</title>
<path fill="none" stroke="#191970" d="M112.6379,-776.136C136.6961,-788.3108 172.8202,-805.2498 206,-815.5 313.0311,-848.5649 341.978,-860.5 454,-860.5 454,-860.5 454,-860.5 896,-860.5 1040.2474,-860.5 1080.8107,-879.3635 1220,-841.5 1266.0439,-828.9747 1314.6077,-799.3256 1338.2827,-783.6388"/>
<polygon fill="#191970" stroke="#191970" points="114.2252,-773.0167 103.7301,-771.5662 111.0301,-779.2449 114.2252,-773.0167"/>
</g>
<!-- Node43 -->
<g id="node43" class="node">
<title>Node43</title>
<g id="a_node43"><a xlink:href="../../dd/d8a/classEicIdealTrackingCode.html#abf7fa4e4c83d896e1682bcb51f06b6ba" target="_top" xlink:title="EicIdealTrackingCode\l::Init">
<polygon fill="none" stroke="#000000" points="206,-235.5 206,-267.5 330,-267.5 330,-235.5 206,-235.5"/>
<text text-anchor="start" x="214" y="-254.5" font-family="FreeSans" font-size="10.00" fill="#000000">EicIdealTrackingCode</text>
<text text-anchor="middle" x="268" y="-242.5" font-family="FreeSans" font-size="10.00" fill="#000000">::Init</text>
</a>
</g>
</g>
<!-- Node1&#45;&gt;Node43 -->
<g id="edge55" class="edge">
<title>Node1&#45;&gt;Node43</title>
<path fill="none" stroke="#191970" d="M87.6559,-741.0183C98.7377,-658.3412 143.6331,-350.1553 206,-277.5 209.2691,-273.6917 213.1891,-270.4291 217.4493,-267.6365"/>
<polygon fill="#191970" stroke="#191970" points="84.1587,-740.7674 86.3183,-751.1398 91.0984,-741.6845 84.1587,-740.7674"/>
</g>
<!-- Node4 -->
<g id="node4" class="node">
<title>Node4</title>
<g id="a_node4"><a xlink:href="../../dd/d26/classPndTrackCand.html#a4561b2cdb668db6e27567b342f444adb" target="_top" xlink:title="PndTrackCand::AddHit">
<polygon fill="none" stroke="#000000" points="389.5,-686.5 389.5,-706.5 518.5,-706.5 518.5,-686.5 389.5,-686.5"/>
<text text-anchor="middle" x="454" y="-693.5" font-family="FreeSans" font-size="10.00" fill="#000000">PndTrackCand::AddHit</text>
</a>
</g>
</g>
<!-- Node3&#45;&gt;Node4 -->
<g id="edge3" class="edge">
<title>Node3&#45;&gt;Node4</title>
<path fill="none" stroke="#191970" d="M274.1315,-328.5806C286.7357,-379.4938 318.4273,-494.801 366,-582.5 388.7703,-624.4764 426.5488,-667.2749 444.2652,-686.3024"/>
<polygon fill="#191970" stroke="#191970" points="277.4987,-327.6152 271.7327,-318.7268 270.6974,-329.2709 277.4987,-327.6152"/>
</g>
<!-- Node14 -->
<g id="node14" class="node">
<title>Node14</title>
<g id="a_node14"><a xlink:href="../../df/d10/classFairMultiLinkedData.html#a265eac63eef64bca1588f529c2fed859" target="_top" xlink:title="Adds a List of FairLinks (FairMultiLinkedData) to fLinks.">
<polygon fill="none" stroke="#000000" points="396.5,-308.5 396.5,-340.5 511.5,-340.5 511.5,-308.5 396.5,-308.5"/>
<text text-anchor="start" x="404.5" y="-327.5" font-family="FreeSans" font-size="10.00" fill="#000000">FairMultiLinkedData</text>
<text text-anchor="middle" x="454" y="-315.5" font-family="FreeSans" font-size="10.00" fill="#000000">::AddLinks</text>
</a>
</g>
</g>
<!-- Node3&#45;&gt;Node14 -->
<g id="edge15" class="edge">
<title>Node3&#45;&gt;Node14</title>
<path fill="none" stroke="#191970" d="M335.7966,-303.9943C355.6679,-305.9812 377.1998,-308.6042 396.3741,-311.3882"/>
<polygon fill="#191970" stroke="#191970" points="335.8659,-300.485 325.5778,-303.0158 335.1986,-307.4531 335.8659,-300.485"/>
</g>
<!-- Node19 -->
<g id="node19" class="node">
<title>Node19</title>
<g id="a_node19"><a xlink:href="../../d1/d99/classCbmMCMatch.html#af4b68bc903014aabb3e12ea4099e71a0" target="_top" xlink:title="CbmMCMatch::FindStagesPointing\lToLinks">
<polygon fill="none" stroke="#000000" points="802,-270.5 802,-302.5 990,-302.5 990,-270.5 802,-270.5"/>
<text text-anchor="start" x="810" y="-289.5" font-family="FreeSans" font-size="10.00" fill="#000000">CbmMCMatch::FindStagesPointing</text>
<text text-anchor="middle" x="896" y="-277.5" font-family="FreeSans" font-size="10.00" fill="#000000">ToLinks</text>
</a>
</g>
</g>
<!-- Node3&#45;&gt;Node19 -->
<g id="edge37" class="edge">
<title>Node3&#45;&gt;Node19</title>
<path fill="none" stroke="#191970" d="M335.6095,-300.3765C345.7935,-300.0723 356.1736,-299.7709 366,-299.5 518.5009,-295.2955 695.7041,-291.0859 801.6927,-288.6402"/>
<polygon fill="#191970" stroke="#191970" points="335.4087,-296.8809 325.5187,-300.6808 335.6197,-303.8777 335.4087,-296.8809"/>
</g>
<!-- Node20 -->
<g id="node20" class="node">
<title>Node20</title>
<g id="a_node20"><a xlink:href="../../d1/d99/classCbmMCMatch.html#ac8af14ff118e54c2b36603f613cfc250" target="_top" xlink:title="CbmMCMatch::GetMCInfoForward\lSingle">
<polygon fill="none" stroke="#000000" points="1030.5,-240.5 1030.5,-272.5 1215.5,-272.5 1215.5,-240.5 1030.5,-240.5"/>
<text text-anchor="start" x="1038.5" y="-259.5" font-family="FreeSans" font-size="10.00" fill="#000000">CbmMCMatch::GetMCInfoForward</text>
<text text-anchor="middle" x="1123" y="-247.5" font-family="FreeSans" font-size="10.00" fill="#000000">Single</text>
</a>
</g>
</g>
<!-- Node3&#45;&gt;Node20 -->
<g id="edge38" class="edge">
<title>Node3&#45;&gt;Node20</title>
<path fill="none" stroke="#191970" d="M335.7564,-293.7075C345.884,-292.5371 356.2089,-291.4244 366,-290.5 559.3462,-272.2465 607.9572,-269.4593 802,-261.5 878.851,-258.3477 966.1258,-257.141 1030.2544,-256.6984"/>
<polygon fill="#191970" stroke="#191970" points="335.2424,-290.2438 325.7217,-294.8921 336.0631,-297.1955 335.2424,-290.2438"/>
</g>
<!-- Node26 -->
<g id="node26" class="node">
<title>Node26</title>
<g id="a_node26"><a xlink:href="../../d1/d99/classCbmMCMatch.html#add366da69a3d30b9151ee3471ad6c380" target="_top" xlink:title="CbmMCMatch::AddToFinalStage">
<polygon fill="none" stroke="#000000" points="366,-192.5 366,-212.5 542,-212.5 542,-192.5 366,-192.5"/>
<text text-anchor="middle" x="454" y="-199.5" font-family="FreeSans" font-size="10.00" fill="#000000">CbmMCMatch::AddToFinalStage</text>
</a>
</g>
</g>
<!-- Node3&#45;&gt;Node26 -->
<g id="edge28" class="edge">
<title>Node3&#45;&gt;Node26</title>
<path fill="none" stroke="#191970" d="M324.9719,-281.1225C326.7085,-279.9692 328.3904,-278.7623 330,-277.5 351.5476,-260.6025 343.5836,-243.2269 366,-227.5 375.3612,-220.9324 386.4177,-216.0815 397.4753,-212.5012"/>
<polygon fill="#191970" stroke="#191970" points="322.7604,-278.3627 315.915,-286.4492 326.3091,-284.3965 322.7604,-278.3627"/>
</g>
<!-- Node30 -->
<g id="node30" class="node">
<title>Node30</title>
<g id="a_node30"><a xlink:href="../../dd/d8c/classPndPidCorrelator.html#ae4a0f3f29e102b0f60fac6c315ff0e02" target="_top" xlink:title="PndPidCorrelator::Construct\lChargedCandidate">
<polygon fill="none" stroke="#000000" points="376,-102.5 376,-134.5 532,-134.5 532,-102.5 376,-102.5"/>
<text text-anchor="start" x="384" y="-121.5" font-family="FreeSans" font-size="10.00" fill="#000000">PndPidCorrelator::Construct</text>
<text text-anchor="middle" x="454" y="-109.5" font-family="FreeSans" font-size="10.00" fill="#000000">ChargedCandidate</text>
</a>
</g>
</g>
<!-- Node3&#45;&gt;Node30 -->
<g id="edge34" class="edge">
<title>Node3&#45;&gt;Node30</title>
<path fill="none" stroke="#191970" d="M327.6404,-279.9449C328.4569,-279.1573 329.2447,-278.3426 330,-277.5 369.4463,-233.4962 325.5826,-192.6135 366,-149.5 371.6499,-143.4732 378.5413,-138.6174 385.9551,-134.7051"/>
<polygon fill="#191970" stroke="#191970" points="325.2593,-277.3665 319.609,-286.3289 329.6151,-282.8463 325.2593,-277.3665"/>
</g>
<!-- Node32 -->
<g id="node32" class="node">
<title>Node32</title>
<g id="a_node32"><a xlink:href="../../d7/d86/classPndTrackArrayMerger.html#a81f9e102930113269c50bdb885a804f3" target="_top" xlink:title="PndTrackArrayMerger\l::Exec">
<polygon fill="none" stroke="#000000" points="392,-.5 392,-32.5 516,-32.5 516,-.5 392,-.5"/>
<text text-anchor="start" x="400" y="-19.5" font-family="FreeSans" font-size="10.00" fill="#000000">PndTrackArrayMerger</text>
<text text-anchor="middle" x="454" y="-7.5" font-family="FreeSans" font-size="10.00" fill="#000000">::Exec</text>
</a>
</g>
</g>
<!-- Node3&#45;&gt;Node32 -->
<g id="edge36" class="edge">
<title>Node3&#45;&gt;Node32</title>
<path fill="none" stroke="#191970" d="M328.1781,-279.6457C328.809,-278.9516 329.4171,-278.2366 330,-277.5 395.8417,-194.2982 295.8238,-121.08 366,-41.5 372.933,-33.6379 382.1404,-28.168 391.9885,-24.3795"/>
<polygon fill="#191970" stroke="#191970" points="325.814,-277.064 320.6385,-286.3088 330.4495,-282.3093 325.814,-277.064"/>
</g>
<!-- Node33 -->
<g id="node33" class="node">
<title>Node33</title>
<g id="a_node33"><a xlink:href="../../d1/d24/classCbmMCObject.html#a2bdccfaaad2cb086d99ccb6d6616ffd1" target="_top" xlink:title="CbmMCObject::PosInList">
<polygon fill="none" stroke="#000000" points="384.5,-552.5 384.5,-572.5 523.5,-572.5 523.5,-552.5 384.5,-552.5"/>
<text text-anchor="middle" x="454" y="-559.5" font-family="FreeSans" font-size="10.00" fill="#000000">CbmMCObject::PosInList</text>
</a>
</g>
</g>
<!-- Node3&#45;&gt;Node33 -->
<g id="edge39" class="edge">
<title>Node3&#45;&gt;Node33</title>
<path fill="none" stroke="#191970" d="M270.7236,-328.6716C277.374,-378.5721 299.1396,-487.3427 366,-543.5 371.3857,-548.0236 377.5972,-551.5439 384.1776,-554.274"/>
<polygon fill="#191970" stroke="#191970" points="274.1894,-328.1787 269.492,-318.6821 267.242,-329.0353 274.1894,-328.1787"/>
</g>
<!-- Node34 -->
<g id="node34" class="node">
<title>Node34</title>
<g id="a_node34"><a xlink:href="../../d1/d24/classCbmMCObject.html#a290298d2443f08ee9443472d88adccf8" target="_top" xlink:title="CbmMCObject::SetEntry">
<polygon fill="none" stroke="#000000" points="1054,-150.5 1054,-170.5 1192,-170.5 1192,-150.5 1054,-150.5"/>
<text text-anchor="middle" x="1123" y="-157.5" font-family="FreeSans" font-size="10.00" fill="#000000">CbmMCObject::SetEntry</text>
</a>
</g>
</g>
<!-- Node3&#45;&gt;Node34 -->
<g id="edge40" class="edge">
<title>Node3&#45;&gt;Node34</title>
<path fill="none" stroke="#191970" d="M327.0677,-280.2592C328.0827,-279.3739 329.062,-278.4546 330,-277.5 361.3551,-245.5901 329.5303,-209.4103 366,-183.5 421.2012,-144.2818 877.7371,-153.2874 1053.9657,-158.3012"/>
<polygon fill="#191970" stroke="#191970" points="324.6817,-277.6684 318.6814,-286.4003 328.8173,-283.3161 324.6817,-277.6684"/>
</g>
<!-- Node35 -->
<g id="node35" class="node">
<title>Node35</title>
<g id="a_node35"><a xlink:href="../../df/d10/classFairMultiLinkedData.html#a2d2c12469a10cdb6bc6cd022f665d5ef" target="_top" xlink:title="Sets the Links with a single FairLink.">
<polygon fill="none" stroke="#000000" points="396.5,-501.5 396.5,-533.5 511.5,-533.5 511.5,-501.5 396.5,-501.5"/>
<text text-anchor="start" x="404.5" y="-520.5" font-family="FreeSans" font-size="10.00" fill="#000000">FairMultiLinkedData</text>
<text text-anchor="middle" x="454" y="-508.5" font-family="FreeSans" font-size="10.00" fill="#000000">::SetLink</text>
</a>
</g>
</g>
<!-- Node3&#45;&gt;Node35 -->
<g id="edge43" class="edge">
<title>Node3&#45;&gt;Node35</title>
<path fill="none" stroke="#191970" d="M288.5943,-326.3052C326.7906,-370.4569 407.6724,-463.9492 440.1113,-501.4458"/>
<polygon fill="#191970" stroke="#191970" points="291.1698,-323.9327 281.9802,-318.6599 285.8759,-328.5126 291.1698,-323.9327"/>
</g>
<!-- Node41 -->
<g id="node41" class="node">
<title>Node41</title>
<g id="a_node41"><a xlink:href="../../df/d10/classFairMultiLinkedData.html#ae8b70fefbf97744716d15f0dd51f2b67" target="_top" xlink:title="FairMultiLinkedData\l::SimpleAddLinks">
<polygon fill="none" stroke="#000000" points="396.5,-51.5 396.5,-83.5 511.5,-83.5 511.5,-51.5 396.5,-51.5"/>
<text text-anchor="start" x="404.5" y="-70.5" font-family="FreeSans" font-size="10.00" fill="#000000">FairMultiLinkedData</text>
<text text-anchor="middle" x="454" y="-58.5" font-family="FreeSans" font-size="10.00" fill="#000000">::SimpleAddLinks</text>
</a>
</g>
</g>
<!-- Node3&#45;&gt;Node41 -->
<g id="edge50" class="edge">
<title>Node3&#45;&gt;Node41</title>
<path fill="none" stroke="#191970" d="M328.0838,-279.6672C328.7465,-278.9663 329.386,-278.2441 330,-277.5 383.3097,-212.8891 309.3274,-154.1823 366,-92.5 374.0591,-83.7285 384.9492,-77.9507 396.3198,-74.1655"/>
<polygon fill="#191970" stroke="#191970" points="325.5389,-277.2376 320.2012,-286.3896 330.0811,-282.5638 325.5389,-277.2376"/>
</g>
<!-- Node4&#45;&gt;Node2 -->
<g id="edge14" class="edge">
<title>Node4&#45;&gt;Node2</title>
<path fill="none" stroke="#191970" d="M477.4444,-712.1808C501.6481,-727.6764 540.9906,-750.9686 578,-764.5 587.7732,-768.0733 598.3771,-771.0343 608.8237,-773.469"/>
<polygon fill="#191970" stroke="#191970" points="479.2385,-709.1726 468.9458,-706.6603 475.4253,-715.0429 479.2385,-709.1726"/>
</g>
<!-- Node4&#45;&gt;Node5 -->
<g id="edge4" class="edge">
<title>Node4&#45;&gt;Node5</title>
<path fill="none" stroke="#191970" d="M516.0936,-708.463C545.5176,-714.1318 580.5769,-720.8864 609.9902,-726.5532"/>
<polygon fill="#191970" stroke="#191970" points="516.4211,-704.9618 505.9395,-706.5067 515.0967,-711.8354 516.4211,-704.9618"/>
</g>
<!-- Node6 -->
<g id="node6" class="node">
<title>Node6</title>
<g id="a_node6"><a xlink:href="../../d4/d84/PndGenfitAdapters_8h.html#a2b50106c9e92368e2a7246a833b60fb0" target="_top" xlink:title="GenfitTrackCand2PndTrackCand">
<polygon fill="none" stroke="#000000" points="583.5,-683.5 583.5,-703.5 760.5,-703.5 760.5,-683.5 583.5,-683.5"/>
<text text-anchor="middle" x="672" y="-690.5" font-family="FreeSans" font-size="10.00" fill="#000000">GenfitTrackCand2PndTrackCand</text>
</a>
</g>
</g>
<!-- Node4&#45;&gt;Node6 -->
<g id="edge5" class="edge">
<title>Node4&#45;&gt;Node6</title>
<path fill="none" stroke="#191970" d="M528.7186,-695.4718C546.324,-695.2295 565.2577,-694.9689 583.4084,-694.7192"/>
<polygon fill="#191970" stroke="#191970" points="528.4732,-691.9747 518.5224,-695.6121 528.5696,-698.974 528.4732,-691.9747"/>
</g>
<!-- Node7 -->
<g id="node7" class="node">
<title>Node7</title>
<g id="a_node7"><a xlink:href="../../d4/d84/PndGenfitAdapters_8h.html#a4fc5873675ef9aa9938d296b9779387d" target="_top" xlink:title="GenfitTrack2PndTrack">
<polygon fill="none" stroke="#000000" points="833,-740.5 833,-760.5 959,-760.5 959,-740.5 833,-740.5"/>
<text text-anchor="middle" x="896" y="-747.5" font-family="FreeSans" font-size="10.00" fill="#000000">GenfitTrack2PndTrack</text>
</a>
</g>
</g>
<!-- Node6&#45;&gt;Node7 -->
<g id="edge6" class="edge">
<title>Node6&#45;&gt;Node7</title>
<path fill="none" stroke="#191970" d="M732.1687,-705.6691C743.4417,-708.1281 755.1041,-710.7936 766,-713.5 799.2497,-721.7588 836.8573,-732.6319 863.0374,-740.4511"/>
<polygon fill="#191970" stroke="#191970" points="732.9038,-702.2472 722.3913,-703.5654 731.4313,-709.0906 732.9038,-702.2472"/>
</g>
<!-- Node7&#45;&gt;Node8 -->
<g id="edge7" class="edge">
<title>Node7&#45;&gt;Node8</title>
<path fill="none" stroke="#191970" d="M936.8528,-763.601C962.3886,-771.6579 996.0087,-782.026 1026,-790.5 1036.627,-793.5026 1047.9501,-796.5539 1058.9702,-799.4448"/>
<polygon fill="#191970" stroke="#191970" points="937.7284,-760.2071 927.1384,-760.5245 935.615,-766.8804 937.7284,-760.2071"/>
</g>
<!-- Node9 -->
<g id="node9" class="node">
<title>Node9</title>
<g id="a_node9"><a xlink:href="../../db/d6d/classPndRecoKalmanFit.html#af5a66632d2917c60057bd37109ec7364" target="_top" xlink:title="PndRecoKalmanFit::Fit">
<polygon fill="none" stroke="#000000" points="1059,-721.5 1059,-741.5 1187,-741.5 1187,-721.5 1059,-721.5"/>
<text text-anchor="middle" x="1123" y="-728.5" font-family="FreeSans" font-size="10.00" fill="#000000">PndRecoKalmanFit::Fit</text>
</a>
</g>
</g>
<!-- Node7&#45;&gt;Node9 -->
<g id="edge8" class="edge">
<title>Node7&#45;&gt;Node9</title>
<path fill="none" stroke="#191970" d="M969.2654,-744.3677C998.143,-741.9506 1031.0121,-739.1994 1058.925,-736.8631"/>
<polygon fill="#191970" stroke="#191970" points="968.9053,-740.8855 959.2322,-745.2074 969.4893,-747.8611 968.9053,-740.8855"/>
</g>
<!-- Node13 -->
<g id="node13" class="node">
<title>Node13</title>
<g id="a_node13"><a xlink:href="../../df/d62/classPndRecoDafFit.html#a71b624dff0fc50e252d2d2b9eed898ee" target="_top" xlink:title="PndRecoDafFit::Fit">
<polygon fill="none" stroke="#000000" points="1069,-760.5 1069,-780.5 1177,-780.5 1177,-760.5 1069,-760.5"/>
<text text-anchor="middle" x="1123" y="-767.5" font-family="FreeSans" font-size="10.00" fill="#000000">PndRecoDafFit::Fit</text>
</a>
</g>
</g>
<!-- Node7&#45;&gt;Node13 -->
<g id="edge12" class="edge">
<title>Node7&#45;&gt;Node13</title>
<path fill="none" stroke="#191970" d="M969.5465,-756.9799C1001.9008,-759.8305 1039.2203,-763.1185 1068.9545,-765.7383"/>
<polygon fill="#191970" stroke="#191970" points="969.5008,-753.4624 959.2322,-756.0711 968.8864,-760.4354 969.5008,-753.4624"/>
</g>
<!-- Node9&#45;&gt;Node10 -->
<g id="edge9" class="edge">
<title>Node9&#45;&gt;Node10</title>
<path fill="none" stroke="#191970" d="M1187.8664,-743.3452C1222.6704,-749.7007 1265.0918,-757.4472 1298.2231,-763.4973"/>
<polygon fill="#191970" stroke="#191970" points="1188.2646,-739.8601 1177.7985,-741.5067 1187.0071,-746.7462 1188.2646,-739.8601"/>
</g>
<!-- Node12 -->
<g id="node12" class="node">
<title>Node12</title>
<g id="a_node12"><a xlink:href="../../d2/d28/classPndRecoMultiKalmanTask.html#a79938b3ab7bca0cc183821c03520553a" target="_top" xlink:title="PndRecoMultiKalmanTask\l::Exec">
<polygon fill="none" stroke="#000000" points="1280.5,-712.5 1280.5,-744.5 1425.5,-744.5 1425.5,-712.5 1280.5,-712.5"/>
<text text-anchor="start" x="1288.5" y="-731.5" font-family="FreeSans" font-size="10.00" fill="#000000">PndRecoMultiKalmanTask</text>
<text text-anchor="middle" x="1353" y="-719.5" font-family="FreeSans" font-size="10.00" fill="#000000">::Exec</text>
</a>
</g>
</g>
<!-- Node9&#45;&gt;Node12 -->
<g id="edge11" class="edge">
<title>Node9&#45;&gt;Node12</title>
<path fill="none" stroke="#191970" d="M1197.1091,-730.5334C1223.7772,-730.1855 1253.8182,-729.7937 1280.3598,-729.4475"/>
<polygon fill="#191970" stroke="#191970" points="1197.0213,-727.0341 1187.0678,-730.6643 1197.1127,-734.0335 1197.0213,-727.0341"/>
</g>
<!-- Node11 -->
<g id="node11" class="node">
<title>Node11</title>
<g id="a_node11"><a xlink:href="../../d2/db6/classEicRecoKalmanTask.html#a10103a96af9664a82027040c505bfff1" target="_top" xlink:title="EicRecoKalmanTask::Exec">
<polygon fill="none" stroke="#000000" points="1486,-763.5 1486,-783.5 1632,-783.5 1632,-763.5 1486,-763.5"/>
<text text-anchor="middle" x="1559" y="-770.5" font-family="FreeSans" font-size="10.00" fill="#000000">EicRecoKalmanTask::Exec</text>
</a>
</g>
</g>
<!-- Node10&#45;&gt;Node11 -->
<g id="edge10" class="edge">
<title>Node10&#45;&gt;Node11</title>
<path fill="none" stroke="#191970" d="M1438.4565,-773.5C1454.1422,-773.5 1470.3872,-773.5 1485.6781,-773.5"/>
<polygon fill="#191970" stroke="#191970" points="1438.2452,-770.0001 1428.2452,-773.5 1438.2451,-777.0001 1438.2452,-770.0001"/>
</g>
<!-- Node13&#45;&gt;Node10 -->
<g id="edge13" class="edge">
<title>Node13&#45;&gt;Node10</title>
<path fill="none" stroke="#191970" d="M1187.3258,-771.339C1215.4328,-771.7056 1248.5879,-772.1381 1277.8249,-772.5195"/>
<polygon fill="#191970" stroke="#191970" points="1187.2604,-767.838 1177.2155,-771.2072 1187.169,-774.8374 1187.2604,-767.838"/>
</g>
<!-- Node14&#45;&gt;Node3 -->
<g id="edge16" class="edge">
<title>Node14&#45;&gt;Node3</title>
<path fill="none" stroke="#191970" d="M386.1535,-323.0007C366.2794,-321.0128 344.7482,-318.389 325.5778,-315.6048"/>
<polygon fill="#191970" stroke="#191970" points="386.0859,-326.5102 396.3741,-323.9799 386.7535,-319.5421 386.0859,-326.5102"/>
</g>
<!-- Node15 -->
<g id="node15" class="node">
<title>Node15</title>
<g id="a_node15"><a xlink:href="../../d1/d99/classCbmMCMatch.html#ae644e6e96cf53b977cc8046812c7f6f1" target="_top" xlink:title="CbmMCMatch::FindLinksToStage">
<polygon fill="none" stroke="#000000" points="582.5,-398.5 582.5,-418.5 761.5,-418.5 761.5,-398.5 582.5,-398.5"/>
<text text-anchor="middle" x="672" y="-405.5" font-family="FreeSans" font-size="10.00" fill="#000000">CbmMCMatch::FindLinksToStage</text>
</a>
</g>
</g>
<!-- Node14&#45;&gt;Node15 -->
<g id="edge17" class="edge">
<title>Node14&#45;&gt;Node15</title>
<path fill="none" stroke="#191970" d="M488.4288,-345.9452C512.6672,-360.1811 546.3151,-378.2517 578,-389.5 588.0417,-393.0649 598.9375,-396.0348 609.6328,-398.4844"/>
<polygon fill="#191970" stroke="#191970" points="490.0059,-342.8108 479.6236,-340.6991 486.423,-348.8243 490.0059,-342.8108"/>
</g>
<!-- Node18 -->
<g id="node18" class="node">
<title>Node18</title>
<g id="a_node18"><a xlink:href="../../d1/d99/classCbmMCMatch.html#ab52043f33eb7c8f16d42dd323c011f46" target="_top" xlink:title="CbmMCMatch::FindStagesPointing\lToLink">
<polygon fill="none" stroke="#000000" points="578,-347.5 578,-379.5 766,-379.5 766,-347.5 578,-347.5"/>
<text text-anchor="start" x="586" y="-366.5" font-family="FreeSans" font-size="10.00" fill="#000000">CbmMCMatch::FindStagesPointing</text>
<text text-anchor="middle" x="672" y="-354.5" font-family="FreeSans" font-size="10.00" fill="#000000">ToLink</text>
</a>
</g>
</g>
<!-- Node14&#45;&gt;Node18 -->
<g id="edge20" class="edge">
<title>Node14&#45;&gt;Node18</title>
<path fill="none" stroke="#191970" d="M521.4416,-336.5652C540.7197,-340.0141 562.0375,-343.8278 582.4193,-347.4741"/>
<polygon fill="#191970" stroke="#191970" points="522.0222,-333.1136 511.5621,-334.7978 520.7894,-340.0042 522.0222,-333.1136"/>
</g>
<!-- Node25 -->
<g id="node25" class="node">
<title>Node25</title>
<g id="a_node25"><a xlink:href="../../d1/d24/classCbmMCObject.html#a8d648dc6ea408439e4f18b63a202c4bd" target="_top" xlink:title="CbmMCObject::GetLinksWithType">
<polygon fill="none" stroke="#000000" points="579.5,-308.5 579.5,-328.5 764.5,-328.5 764.5,-308.5 579.5,-308.5"/>
<text text-anchor="middle" x="672" y="-315.5" font-family="FreeSans" font-size="10.00" fill="#000000">CbmMCObject::GetLinksWithType</text>
</a>
</g>
</g>
<!-- Node14&#45;&gt;Node25 -->
<g id="edge27" class="edge">
<title>Node14&#45;&gt;Node25</title>
<path fill="none" stroke="#191970" d="M521.795,-322.6341C540.0575,-322.1314 560.1295,-321.579 579.491,-321.0461"/>
<polygon fill="#191970" stroke="#191970" points="521.462,-319.1418 511.5621,-322.9157 521.6546,-326.1392 521.462,-319.1418"/>
</g>
<!-- Node16 -->
<g id="node16" class="node">
<title>Node16</title>
<g id="a_node16"><a xlink:href="../../d1/d99/classCbmMCMatch.html#ae08b79687237e2f9f10c0f8f390c5350" target="_top" xlink:title="CbmMCMatch::CreateArtificial\lStage">
<polygon fill="none" stroke="#000000" points="812.5,-515.5 812.5,-547.5 979.5,-547.5 979.5,-515.5 812.5,-515.5"/>
<text text-anchor="start" x="820.5" y="-534.5" font-family="FreeSans" font-size="10.00" fill="#000000">CbmMCMatch::CreateArtificial</text>
<text text-anchor="middle" x="896" y="-522.5" font-family="FreeSans" font-size="10.00" fill="#000000">Stage</text>
</a>
</g>
</g>
<!-- Node15&#45;&gt;Node16 -->
<g id="edge18" class="edge">
<title>Node15&#45;&gt;Node16</title>
<path fill="none" stroke="#191970" d="M748.2135,-421.5311C754.3491,-423.5347 760.3529,-425.8426 766,-428.5 812.8976,-450.5691 858.1154,-492.5251 880.8303,-515.4915"/>
<polygon fill="#191970" stroke="#191970" points="749.0791,-418.1368 738.4956,-418.6263 747.0743,-424.8436 749.0791,-418.1368"/>
</g>
<!-- Node17 -->
<g id="node17" class="node">
<title>Node17</title>
<g id="a_node17"><a xlink:href="../../df/deb/classCbmMCMatchLoaderTask.html#a6c57dcd4dde5d2dec4764baf448c6be9" target="_top" xlink:title="CbmMCMatchLoaderTask\l::Exec">
<polygon fill="none" stroke="#000000" points="1051.5,-515.5 1051.5,-547.5 1194.5,-547.5 1194.5,-515.5 1051.5,-515.5"/>
<text text-anchor="start" x="1059.5" y="-534.5" font-family="FreeSans" font-size="10.00" fill="#000000">CbmMCMatchLoaderTask</text>
<text text-anchor="middle" x="1123" y="-522.5" font-family="FreeSans" font-size="10.00" fill="#000000">::Exec</text>
</a>
</g>
</g>
<!-- Node16&#45;&gt;Node17 -->
<g id="edge19" class="edge">
<title>Node16&#45;&gt;Node17</title>
<path fill="none" stroke="#191970" d="M989.5762,-531.5C1010.1538,-531.5 1031.6334,-531.5 1051.194,-531.5"/>
<polygon fill="#191970" stroke="#191970" points="989.5594,-528.0001 979.5593,-531.5 989.5593,-535.0001 989.5594,-528.0001"/>
</g>
<!-- Node18&#45;&gt;Node19 -->
<g id="edge21" class="edge">
<title>Node18&#45;&gt;Node19</title>
<path fill="none" stroke="#191970" d="M746.3213,-344.6279C753.0064,-342.6611 759.6463,-340.6071 766,-338.5 797.9552,-327.9025 833.3846,-313.5515 859.1758,-302.6103"/>
<polygon fill="#191970" stroke="#191970" points="745.1673,-341.3178 736.5226,-347.4432 747.1003,-348.0457 745.1673,-341.3178"/>
</g>
<!-- Node19&#45;&gt;Node20 -->
<g id="edge22" class="edge">
<title>Node19&#45;&gt;Node20</title>
<path fill="none" stroke="#191970" d="M1000.3104,-272.7145C1010.3686,-271.3852 1020.5237,-270.0431 1030.4568,-268.7304"/>
<polygon fill="#191970" stroke="#191970" points="999.7516,-269.2578 990.2964,-274.0379 1000.6688,-276.1975 999.7516,-269.2578"/>
</g>
<!-- Node21 -->
<g id="node21" class="node">
<title>Node21</title>
<g id="a_node21"><a xlink:href="../../d1/d99/classCbmMCMatch.html#a0e6d1d83a185916349d2405a5f7a601d" target="_top" xlink:title="CbmMCMatch::GetMCInfoForward">
<polygon fill="none" stroke="#000000" points="1260.5,-194.5 1260.5,-214.5 1445.5,-214.5 1445.5,-194.5 1260.5,-194.5"/>
<text text-anchor="middle" x="1353" y="-201.5" font-family="FreeSans" font-size="10.00" fill="#000000">CbmMCMatch::GetMCInfoForward</text>
</a>
</g>
</g>
<!-- Node20&#45;&gt;Node21 -->
<g id="edge23" class="edge">
<title>Node20&#45;&gt;Node21</title>
<path fill="none" stroke="#191970" d="M1203.6993,-238.2549C1238.9884,-230.2765 1279.0207,-221.2258 1308.743,-214.5059"/>
<polygon fill="#191970" stroke="#191970" points="1202.8663,-234.8549 1193.8843,-240.474 1204.41,-241.6825 1202.8663,-234.8549"/>
</g>
<!-- Node24 -->
<g id="node24" class="node">
<title>Node24</title>
<g id="a_node24"><a xlink:href="../../d1/d99/classCbmMCMatch.html#a4fa0bf15549a2464b473fa511dc708bc" target="_top" xlink:title="CbmMCMatch::GetMCInfoSingle">
<polygon fill="none" stroke="#000000" points="1265,-237.5 1265,-257.5 1441,-257.5 1441,-237.5 1265,-237.5"/>
<text text-anchor="middle" x="1353" y="-244.5" font-family="FreeSans" font-size="10.00" fill="#000000">CbmMCMatch::GetMCInfoSingle</text>
</a>
</g>
</g>
<!-- Node20&#45;&gt;Node24 -->
<g id="edge26" class="edge">
<title>Node20&#45;&gt;Node24</title>
<path fill="none" stroke="#191970" d="M1225.8945,-252.4737C1238.8577,-251.9664 1252.0283,-251.4511 1264.7376,-250.9537"/>
<polygon fill="#191970" stroke="#191970" points="1225.4111,-248.9898 1215.5556,-252.8783 1225.6848,-255.9845 1225.4111,-248.9898"/>
</g>
<!-- Node22 -->
<g id="node22" class="node">
<title>Node22</title>
<g id="a_node22"><a xlink:href="../../d1/d99/classCbmMCMatch.html#a2f5dc0858ef404f750dde46ab6d0b654" target="_top" xlink:title="CbmMCMatch::GetMCInfo">
<polygon fill="none" stroke="#000000" points="1486.5,-175.5 1486.5,-195.5 1631.5,-195.5 1631.5,-175.5 1486.5,-175.5"/>
<text text-anchor="middle" x="1559" y="-182.5" font-family="FreeSans" font-size="10.00" fill="#000000">CbmMCMatch::GetMCInfo</text>
</a>
</g>
</g>
<!-- Node21&#45;&gt;Node22 -->
<g id="edge24" class="edge">
<title>Node21&#45;&gt;Node22</title>
<path fill="none" stroke="#191970" d="M1455.9573,-195.0039C1466.1743,-194.0616 1476.3919,-193.1192 1486.2079,-192.2138"/>
<polygon fill="#191970" stroke="#191970" points="1455.3916,-191.5412 1445.7553,-195.9449 1456.0345,-198.5116 1455.3916,-191.5412"/>
</g>
<!-- Node23 -->
<g id="node23" class="node">
<title>Node23</title>
<g id="a_node23"><a xlink:href="../../d9/d77/classCbmMCMatchSelectorTask.html#a08fdab318f202137010a768d52b08c74" target="_top" xlink:title="CbmMCMatchSelectorTask\l::Exec">
<polygon fill="none" stroke="#000000" points="1668,-169.5 1668,-201.5 1818,-201.5 1818,-169.5 1668,-169.5"/>
<text text-anchor="start" x="1676" y="-188.5" font-family="FreeSans" font-size="10.00" fill="#000000">CbmMCMatchSelectorTask</text>
<text text-anchor="middle" x="1743" y="-176.5" font-family="FreeSans" font-size="10.00" fill="#000000">::Exec</text>
</a>
</g>
</g>
<!-- Node22&#45;&gt;Node23 -->
<g id="edge25" class="edge">
<title>Node22&#45;&gt;Node23</title>
<path fill="none" stroke="#191970" d="M1641.8104,-185.5C1650.4631,-185.5 1659.2254,-185.5 1667.7869,-185.5"/>
<polygon fill="#191970" stroke="#191970" points="1641.7217,-182.0001 1631.7217,-185.5 1641.7216,-189.0001 1641.7217,-182.0001"/>
</g>
<!-- Node27 -->
<g id="node27" class="node">
<title>Node27</title>
<g id="a_node27"><a xlink:href="../../d1/d99/classCbmMCMatch.html#af1834b15adbdd6f17bc41ad22697a91b" target="_top" xlink:title="CbmMCMatch::GetNextStage">
<polygon fill="none" stroke="#000000" points="814.5,-192.5 814.5,-212.5 977.5,-212.5 977.5,-192.5 814.5,-192.5"/>
<text text-anchor="middle" x="896" y="-199.5" font-family="FreeSans" font-size="10.00" fill="#000000">CbmMCMatch::GetNextStage</text>
</a>
</g>
</g>
<!-- Node26&#45;&gt;Node27 -->
<g id="edge29" class="edge">
<title>Node26&#45;&gt;Node27</title>
<path fill="none" stroke="#191970" d="M552.5396,-202.5C631.3179,-202.5 740.4345,-202.5 814.3785,-202.5"/>
<polygon fill="#191970" stroke="#191970" points="552.1181,-199.0001 542.1181,-202.5 552.118,-206.0001 552.1181,-199.0001"/>
</g>
<!-- Node28 -->
<g id="node28" class="node">
<title>Node28</title>
<g id="a_node28"><a xlink:href="../../d1/d99/classCbmMCMatch.html#ac1b9cd1f7d164812e5a50dce5bcf83b9" target="_top" xlink:title="CbmMCMatch::GetMCInfoBackward\lSingle">
<polygon fill="none" stroke="#000000" points="1026,-189.5 1026,-221.5 1220,-221.5 1220,-189.5 1026,-189.5"/>
<text text-anchor="start" x="1034" y="-208.5" font-family="FreeSans" font-size="10.00" fill="#000000">CbmMCMatch::GetMCInfoBackward</text>
<text text-anchor="middle" x="1123" y="-196.5" font-family="FreeSans" font-size="10.00" fill="#000000">Single</text>
</a>
</g>
</g>
<!-- Node27&#45;&gt;Node28 -->
<g id="edge30" class="edge">
<title>Node27&#45;&gt;Node28</title>
<path fill="none" stroke="#191970" d="M988.0036,-203.7159C1000.4683,-203.8806 1013.292,-204.0501 1025.8435,-204.216"/>
<polygon fill="#191970" stroke="#191970" points="987.6769,-200.2114 977.6315,-203.5788 987.5843,-207.2108 987.6769,-200.2114"/>
</g>
<!-- Node28&#45;&gt;Node24 -->
<g id="edge33" class="edge">
<title>Node28&#45;&gt;Node24</title>
<path fill="none" stroke="#191970" d="M1220.9769,-223.3914C1247.3586,-228.209 1274.9625,-233.2497 1298.0686,-237.469"/>
<polygon fill="#191970" stroke="#191970" points="1221.4037,-219.9116 1210.9376,-221.5582 1220.1462,-226.7977 1221.4037,-219.9116"/>
</g>
<!-- Node29 -->
<g id="node29" class="node">
<title>Node29</title>
<g id="a_node29"><a xlink:href="../../d1/d99/classCbmMCMatch.html#a2262a17ac7af0a35881e6e690f2450e9" target="_top" xlink:title="CbmMCMatch::GetMCInfoBackward">
<polygon fill="none" stroke="#000000" points="1256,-155.5 1256,-175.5 1450,-175.5 1450,-155.5 1256,-155.5"/>
<text text-anchor="middle" x="1353" y="-162.5" font-family="FreeSans" font-size="10.00" fill="#000000">CbmMCMatch::GetMCInfoBackward</text>
</a>
</g>
</g>
<!-- Node28&#45;&gt;Node29 -->
<g id="edge31" class="edge">
<title>Node28&#45;&gt;Node29</title>
<path fill="none" stroke="#191970" d="M1225.0969,-187.744C1249.1132,-183.5673 1273.8897,-179.2583 1295.1654,-175.5582"/>
<polygon fill="#191970" stroke="#191970" points="1224.4769,-184.2992 1215.2245,-189.4609 1225.6764,-191.1957 1224.4769,-184.2992"/>
</g>
<!-- Node29&#45;&gt;Node22 -->
<g id="edge32" class="edge">
<title>Node29&#45;&gt;Node22</title>
<path fill="none" stroke="#191970" d="M1460.2777,-175.9153C1469.1387,-176.7756 1477.9576,-177.6318 1486.4711,-178.4584"/>
<polygon fill="#191970" stroke="#191970" points="1460.5607,-172.4264 1450.2692,-174.9436 1459.8842,-179.3937 1460.5607,-172.4264"/>
</g>
<!-- Node31 -->
<g id="node31" class="node">
<title>Node31</title>
<g id="a_node31"><a xlink:href="../../dd/d8c/classPndPidCorrelator.html#ac7261219c977ce69655b77ca95032aec" target="_top" xlink:title="PndPidCorrelator::Exec">
<polygon fill="none" stroke="#000000" points="606.5,-108.5 606.5,-128.5 737.5,-128.5 737.5,-108.5 606.5,-108.5"/>
<text text-anchor="middle" x="672" y="-115.5" font-family="FreeSans" font-size="10.00" fill="#000000">PndPidCorrelator::Exec</text>
</a>
</g>
</g>
<!-- Node30&#45;&gt;Node31 -->
<g id="edge35" class="edge">
<title>Node30&#45;&gt;Node31</title>
<path fill="none" stroke="#191970" d="M542.1708,-118.5C563.6,-118.5 586.1449,-118.5 606.3238,-118.5"/>
<polygon fill="#191970" stroke="#191970" points="542.0873,-115.0001 532.0873,-118.5 542.0872,-122.0001 542.0873,-115.0001"/>
</g>
<!-- Node34&#45;&gt;Node21 -->
<g id="edge42" class="edge">
<title>Node34&#45;&gt;Node21</title>
<path fill="none" stroke="#191970" d="M1185.3821,-172.434C1221.3767,-179.3199 1266.1387,-187.8831 1300.3494,-194.4277"/>
<polygon fill="#191970" stroke="#191970" points="1185.9579,-168.9807 1175.4784,-170.5393 1184.6426,-175.856 1185.9579,-168.9807"/>
</g>
<!-- Node34&#45;&gt;Node29 -->
<g id="edge41" class="edge">
<title>Node34&#45;&gt;Node29</title>
<path fill="none" stroke="#191970" d="M1202.0745,-162.219C1219.4339,-162.5964 1238.0074,-163.0002 1255.9801,-163.3909"/>
<polygon fill="#191970" stroke="#191970" points="1202.0813,-158.7184 1192.0076,-162.0002 1201.9291,-165.7168 1202.0813,-158.7184"/>
</g>
<!-- Node35&#45;&gt;Node16 -->
<g id="edge44" class="edge">
<title>Node35&#45;&gt;Node16</title>
<path fill="none" stroke="#191970" d="M521.5645,-530.3228C529.025,-533.7336 536.0582,-538.0468 542,-543.5 574.3491,-573.189 541.7341,-610.7475 578,-635.5 647.013,-682.6034 687.1546,-663.1575 766,-635.5 815.9108,-617.9922 860.895,-572.3709 882.4915,-547.7762"/>
<polygon fill="#191970" stroke="#191970" points="522.5205,-526.9355 511.936,-526.4672 519.9182,-533.4338 522.5205,-526.9355"/>
</g>
<!-- Node36 -->
<g id="node36" class="node">
<title>Node36</title>
<g id="a_node36"><a xlink:href="../../d3/d78/classEicTrackingDigiHit.html#a9276b7e8cb1111e22e84569f74663518" target="_top" xlink:title="EicTrackingDigiHit\l::EicTrackingDigiHit">
<polygon fill="none" stroke="#000000" points="614.5,-437.5 614.5,-469.5 729.5,-469.5 729.5,-437.5 614.5,-437.5"/>
<text text-anchor="start" x="622.5" y="-456.5" font-family="FreeSans" font-size="10.00" fill="#000000">EicTrackingDigiHit</text>
<text text-anchor="middle" x="672" y="-444.5" font-family="FreeSans" font-size="10.00" fill="#000000">::EicTrackingDigiHit</text>
</a>
</g>
</g>
<!-- Node35&#45;&gt;Node36 -->
<g id="edge45" class="edge">
<title>Node35&#45;&gt;Node36</title>
<path fill="none" stroke="#191970" d="M514.8316,-498.4931C534.9099,-492.3173 557.3799,-485.51 578,-479.5 589.7042,-476.0887 602.2603,-472.5396 614.2633,-469.2"/>
<polygon fill="#191970" stroke="#191970" points="513.71,-495.1763 505.1857,-501.468 515.773,-501.8654 513.71,-495.1763"/>
</g>
<!-- Node37 -->
<g id="node37" class="node">
<title>Node37</title>
<g id="a_node37"><a xlink:href="../../d4/d3f/classPndTrack.html#a0951d02e9f8d3fec619bac16c664f981" target="_top" xlink:title="PndTrack::PndTrack">
<polygon fill="none" stroke="#000000" points="615,-605.5 615,-625.5 729,-625.5 729,-605.5 615,-605.5"/>
<text text-anchor="middle" x="672" y="-612.5" font-family="FreeSans" font-size="10.00" fill="#000000">PndTrack::PndTrack</text>
</a>
</g>
</g>
<!-- Node35&#45;&gt;Node37 -->
<g id="edge46" class="edge">
<title>Node35&#45;&gt;Node37</title>
<path fill="none" stroke="#191970" d="M521.0977,-531.9359C528.5174,-535.0691 535.6676,-538.8761 542,-543.5 564.9972,-560.2926 554.2876,-580.7333 578,-596.5 588.8142,-603.6905 601.765,-608.2632 614.5464,-611.1457"/>
<polygon fill="#191970" stroke="#191970" points="522.1877,-528.6058 511.5968,-528.3166 519.6958,-535.1472 522.1877,-528.6058"/>
</g>
<!-- Node38 -->
<g id="node38" class="node">
<title>Node38</title>
<g id="a_node38"><a xlink:href="../../d4/d3f/classPndTrack.html#aa20ce8053f34e4b7cb202b628346139d" target="_top" xlink:title="PndTrack::SetRefIndex">
<polygon fill="none" stroke="#000000" points="607.5,-566.5 607.5,-586.5 736.5,-586.5 736.5,-566.5 607.5,-566.5"/>
<text text-anchor="middle" x="672" y="-573.5" font-family="FreeSans" font-size="10.00" fill="#000000">PndTrack::SetRefIndex</text>
</a>
</g>
</g>
<!-- Node35&#45;&gt;Node38 -->
<g id="edge47" class="edge">
<title>Node35&#45;&gt;Node38</title>
<path fill="none" stroke="#191970" d="M520.7944,-536.595C527.9791,-538.8391 535.1594,-541.1639 542,-543.5 558.2461,-549.0481 561.526,-552.6706 578,-557.5 589.6633,-560.9192 602.3184,-563.9333 614.4512,-566.4954"/>
<polygon fill="#191970" stroke="#191970" points="521.613,-533.185 511.0259,-533.5914 519.5556,-539.8759 521.613,-533.185"/>
</g>
<!-- Node39 -->
<g id="node39" class="node">
<title>Node39</title>
<g id="a_node39"><a xlink:href="../../d9/dd6/classCbmStack.html#acf2fe4f80a2ddb4a35bdd4420d32a725" target="_top" xlink:title="CbmStack::UpdateTrackIndex">
<polygon fill="none" stroke="#000000" points="589.5,-527.5 589.5,-547.5 754.5,-547.5 754.5,-527.5 589.5,-527.5"/>
<text text-anchor="middle" x="672" y="-534.5" font-family="FreeSans" font-size="10.00" fill="#000000">CbmStack::UpdateTrackIndex</text>
</a>
</g>
</g>
<!-- Node35&#45;&gt;Node39 -->
<g id="edge48" class="edge">
<title>Node35&#45;&gt;Node39</title>
<path fill="none" stroke="#191970" d="M521.5635,-523.6985C543.048,-525.6695 567.056,-527.8721 589.4737,-529.9288"/>
<polygon fill="#191970" stroke="#191970" points="521.8401,-520.2092 511.5621,-522.7809 521.2005,-527.18 521.8401,-520.2092"/>
</g>
<!-- Node40 -->
<g id="node40" class="node">
<title>Node40</title>
<g id="a_node40"><a xlink:href="../../d5/dd2/classPndStack.html#a7eca09bba5ed5f38bcec048498c49ad7" target="_top" xlink:title="PndStack::UpdateTrackIndex">
<polygon fill="none" stroke="#000000" points="592,-488.5 592,-508.5 752,-508.5 752,-488.5 592,-488.5"/>
<text text-anchor="middle" x="672" y="-495.5" font-family="FreeSans" font-size="10.00" fill="#000000">PndStack::UpdateTrackIndex</text>
</a>
</g>
</g>
<!-- Node35&#45;&gt;Node40 -->
<g id="edge49" class="edge">
<title>Node35&#45;&gt;Node40</title>
<path fill="none" stroke="#191970" d="M521.5866,-511.6094C543.8554,-509.6686 568.8331,-507.4916 591.9402,-505.4777"/>
<polygon fill="#191970" stroke="#191970" points="521.2204,-508.128 511.5621,-512.4831 521.8283,-515.1015 521.2204,-508.128"/>
</g>
<!-- Node42 -->
<g id="node42" class="node">
<title>Node42</title>
<g id="a_node42"><a xlink:href="../../df/d10/classFairMultiLinkedData.html#a0e288a8610d03536c6e92eae9ea41eed" target="_top" xlink:title="Constructor.">
<polygon fill="none" stroke="#000000" points="611,-51.5 611,-83.5 733,-83.5 733,-51.5 611,-51.5"/>
<text text-anchor="start" x="619" y="-70.5" font-family="FreeSans" font-size="10.00" fill="#000000">FairMultiLinkedData</text>
<text text-anchor="middle" x="672" y="-58.5" font-family="FreeSans" font-size="10.00" fill="#000000">::FairMultiLinkedData</text>
</a>
</g>
</g>
<!-- Node41&#45;&gt;Node42 -->
<g id="edge51" class="edge">
<title>Node41&#45;&gt;Node42</title>
<path fill="none" stroke="#191970" d="M521.812,-67.5C550.2183,-67.5 583.0002,-67.5 610.6754,-67.5"/>
<polygon fill="#191970" stroke="#191970" points="521.5621,-64.0001 511.5621,-67.5 521.5621,-71.0001 521.5621,-64.0001"/>
</g>
</g>
</svg>
