<?xml version="1.0" encoding="UTF-8" standalone="no"?>
<!DOCTYPE svg PUBLIC "-//W3C//DTD SVG 1.1//EN"
 "http://www.w3.org/Graphics/SVG/1.1/DTD/svg11.dtd">
<!-- Generated by graphviz version 2.40.1 (20161225.0304)
 -->
<!-- Title: FairRootManager::RegisterWriteoutBuffer Pages: 1 -->
<svg width="1212pt" height="136pt"
 viewBox="0.00 0.00 1212.00 136.00" xmlns="http://www.w3.org/2000/svg" xmlns:xlink="http://www.w3.org/1999/xlink">
<g id="graph0" class="graph" transform="scale(1 1) rotate(0) translate(4 132)">
<title>FairRootManager::RegisterWriteoutBuffer</title>
<!-- Node1 -->
<g id="node1" class="node">
<title>Node1</title>
<polygon fill="#bfbfbf" stroke="#000000" points="0,-52.5 0,-84.5 150,-84.5 150,-52.5 0,-52.5"/>
<text text-anchor="start" x="8" y="-71.5" font-family="FreeSans" font-size="10.00" fill="#000000">FairRootManager::Register</text>
<text text-anchor="middle" x="75" y="-59.5" font-family="FreeSans" font-size="10.00" fill="#000000">WriteoutBuffer</text>
</g>
<!-- Node2 -->
<g id="node2" class="node">
<title>Node2</title>
<g id="a_node2"><a xlink:href="../../db/da1/classFairLogger.html#aeda64cc96ca57240e30b516a508497ef" target="_top" xlink:title="FairLogger::Warning">
<polygon fill="none" stroke="#000000" points="186,-58.5 186,-78.5 303,-78.5 303,-58.5 186,-58.5"/>
<text text-anchor="middle" x="244.5" y="-65.5" font-family="FreeSans" font-size="10.00" fill="#000000">FairLogger::Warning</text>
</a>
</g>
</g>
<!-- Node1&#45;&gt;Node2 -->
<g id="edge1" class="edge">
<title>Node1&#45;&gt;Node2</title>
<path fill="none" stroke="#191970" d="M150.3323,-68.5C158.8182,-68.5 167.4316,-68.5 175.8266,-68.5"/>
<polygon fill="#191970" stroke="#191970" points="175.935,-72.0001 185.935,-68.5 175.935,-65.0001 175.935,-72.0001"/>
</g>
<!-- Node3 -->
<g id="node3" class="node">
<title>Node3</title>
<g id="a_node3"><a xlink:href="../../db/da1/classFairLogger.html#ae5a926d95789678b453cbb45e0a9a46e" target="_top" xlink:title="FairLogger::IsLogNeeded">
<polygon fill="none" stroke="#000000" points="339,-78.5 339,-98.5 479,-98.5 479,-78.5 339,-78.5"/>
<text text-anchor="middle" x="409" y="-85.5" font-family="FreeSans" font-size="10.00" fill="#000000">FairLogger::IsLogNeeded</text>
</a>
</g>
</g>
<!-- Node2&#45;&gt;Node3 -->
<g id="edge2" class="edge">
<title>Node2&#45;&gt;Node3</title>
<path fill="none" stroke="#191970" d="M303.4236,-75.664C311.7064,-76.671 320.3332,-77.7198 328.9282,-78.7648"/>
<polygon fill="#191970" stroke="#191970" points="328.6316,-82.2545 338.981,-79.987 329.4765,-75.3056 328.6316,-82.2545"/>
</g>
<!-- Node4 -->
<g id="node4" class="node">
<title>Node4</title>
<g id="a_node4"><a xlink:href="../../db/da1/classFairLogger.html#aa9d98b58fab95abcf553dfefe1e572f5" target="_top" xlink:title="FairLogger::Log">
<polygon fill="none" stroke="#000000" points="362.5,-39.5 362.5,-59.5 455.5,-59.5 455.5,-39.5 362.5,-39.5"/>
<text text-anchor="middle" x="409" y="-46.5" font-family="FreeSans" font-size="10.00" fill="#000000">FairLogger::Log</text>
</a>
</g>
</g>
<!-- Node2&#45;&gt;Node4 -->
<g id="edge3" class="edge">
<title>Node2&#45;&gt;Node4</title>
<path fill="none" stroke="#191970" d="M303.4236,-61.6942C319.3049,-59.8599 336.451,-57.8795 352.213,-56.059"/>
<polygon fill="#191970" stroke="#191970" points="352.8115,-59.5132 362.3438,-54.8889 352.0083,-52.5594 352.8115,-59.5132"/>
</g>
<!-- Node5 -->
<g id="node5" class="node">
<title>Node5</title>
<g id="a_node5"><a xlink:href="../../db/da1/classFairLogger.html#a496d9b3f72963d24a58abc5a023b74b0" target="_top" xlink:title="End of the line.">
<polygon fill="none" stroke="#000000" points="549,-78.5 549,-98.5 646,-98.5 646,-78.5 549,-78.5"/>
<text text-anchor="middle" x="597.5" y="-85.5" font-family="FreeSans" font-size="10.00" fill="#000000">FairLogger::endl</text>
</a>
</g>
</g>
<!-- Node4&#45;&gt;Node5 -->
<g id="edge4" class="edge">
<title>Node4&#45;&gt;Node5</title>
<path fill="none" stroke="#191970" d="M455.5955,-59.1405C480.8273,-64.3608 512.2427,-70.8606 539.096,-76.4164"/>
<polygon fill="#191970" stroke="#191970" points="538.6403,-79.8962 549.1421,-78.4949 540.0586,-73.0414 538.6403,-79.8962"/>
</g>
<!-- Node10 -->
<g id="node10" class="node">
<title>Node10</title>
<g id="a_node10"><a xlink:href="../../db/da1/classFairLogger.html#aeb76e4a75fe913ebdf1c07b5d1f3ac1b" target="_top" xlink:title="FairLogger::GetOutputStream">
<polygon fill="none" stroke="#000000" points="515,-39.5 515,-59.5 680,-59.5 680,-39.5 515,-39.5"/>
<text text-anchor="middle" x="597.5" y="-46.5" font-family="FreeSans" font-size="10.00" fill="#000000">FairLogger::GetOutputStream</text>
</a>
</g>
</g>
<!-- Node4&#45;&gt;Node10 -->
<g id="edge10" class="edge">
<title>Node4&#45;&gt;Node10</title>
<path fill="none" stroke="#191970" d="M455.5955,-49.5C470.542,-49.5 487.6583,-49.5 504.7109,-49.5"/>
<polygon fill="#191970" stroke="#191970" points="504.7269,-53.0001 514.7269,-49.5 504.7268,-46.0001 504.7269,-53.0001"/>
</g>
<!-- Node11 -->
<g id="node11" class="node">
<title>Node11</title>
<g id="a_node11"><a xlink:href="../../db/da1/classFairLogger.html#a5529c6ab25bc075aff767f30a743e616" target="_top" xlink:title="FairLogger::OpenLogFile">
<polygon fill="none" stroke="#000000" points="728.5,-.5 728.5,-20.5 865.5,-20.5 865.5,-.5 728.5,-.5"/>
<text text-anchor="middle" x="797" y="-7.5" font-family="FreeSans" font-size="10.00" fill="#000000">FairLogger::OpenLogFile</text>
</a>
</g>
</g>
<!-- Node4&#45;&gt;Node11 -->
<g id="edge14" class="edge">
<title>Node4&#45;&gt;Node11</title>
<path fill="none" stroke="#191970" d="M455.5099,-39.4827C473.9538,-35.8363 495.4013,-32.0001 515,-29.5 583.276,-20.7903 661.3948,-15.9209 718.0719,-13.2983"/>
<polygon fill="#191970" stroke="#191970" points="718.5653,-16.7797 728.3981,-12.8343 718.251,-9.7868 718.5653,-16.7797"/>
</g>
<!-- Node6 -->
<g id="node6" class="node">
<title>Node6</title>
<g id="a_node6"><a xlink:href="../../db/da1/classFairLogger.html#aca7a4fd0af5e622c9635f62996a7334d" target="_top" xlink:title="Flush the streams.">
<polygon fill="none" stroke="#000000" points="933,-107.5 933,-127.5 1033,-127.5 1033,-107.5 933,-107.5"/>
<text text-anchor="middle" x="983" y="-114.5" font-family="FreeSans" font-size="10.00" fill="#000000">FairLogger::flush</text>
</a>
</g>
</g>
<!-- Node5&#45;&gt;Node6 -->
<g id="edge5" class="edge">
<title>Node5&#45;&gt;Node6</title>
<path fill="none" stroke="#191970" d="M646.0197,-98.1931C667.3908,-102.0725 692.854,-106.1672 716,-108.5 786.6648,-115.6221 868.3246,-117.444 922.5415,-117.7582"/>
<polygon fill="#191970" stroke="#191970" points="922.6571,-121.2587 932.6719,-117.8012 922.6869,-114.2587 922.6571,-121.2587"/>
</g>
<!-- Node7 -->
<g id="node7" class="node">
<title>Node7</title>
<g id="a_node7"><a xlink:href="../../db/da1/classFairLogger.html#a9848989e18afa7144b47ecc38b7bfe0e" target="_top" xlink:title="FairLogger::LogFatalMessage">
<polygon fill="none" stroke="#000000" points="716,-78.5 716,-98.5 878,-98.5 878,-78.5 716,-78.5"/>
<text text-anchor="middle" x="797" y="-85.5" font-family="FreeSans" font-size="10.00" fill="#000000">FairLogger::LogFatalMessage</text>
</a>
</g>
</g>
<!-- Node5&#45;&gt;Node7 -->
<g id="edge6" class="edge">
<title>Node5&#45;&gt;Node7</title>
<path fill="none" stroke="#191970" d="M646.0481,-88.5C664.0875,-88.5 685.1922,-88.5 705.8059,-88.5"/>
<polygon fill="#191970" stroke="#191970" points="705.8704,-92.0001 715.8703,-88.5 705.8703,-85.0001 705.8704,-92.0001"/>
</g>
<!-- Node7&#45;&gt;Node6 -->
<g id="edge7" class="edge">
<title>Node7&#45;&gt;Node6</title>
<path fill="none" stroke="#191970" d="M861.2711,-98.5208C881.2114,-101.6297 903.1056,-105.0433 922.7612,-108.1079"/>
<polygon fill="#191970" stroke="#191970" points="922.3938,-111.5929 932.8136,-109.6752 923.4722,-104.6764 922.3938,-111.5929"/>
</g>
<!-- Node8 -->
<g id="node8" class="node">
<title>Node8</title>
<g id="a_node8"><a xlink:href="../../db/da1/classFairLogger.html#a6fe59f109418f1331c91c39d0ea33c1d" target="_top" xlink:title="FairLogger::GetTime">
<polygon fill="none" stroke="#000000" points="924,-58.5 924,-78.5 1042,-78.5 1042,-58.5 924,-58.5"/>
<text text-anchor="middle" x="983" y="-65.5" font-family="FreeSans" font-size="10.00" fill="#000000">FairLogger::GetTime</text>
</a>
</g>
</g>
<!-- Node7&#45;&gt;Node8 -->
<g id="edge8" class="edge">
<title>Node7&#45;&gt;Node8</title>
<path fill="none" stroke="#191970" d="M878.0412,-79.7859C889.9288,-78.5077 902.0815,-77.2009 913.7048,-75.9511"/>
<polygon fill="#191970" stroke="#191970" points="914.1945,-79.4187 923.763,-74.8696 913.4461,-72.4588 914.1945,-79.4187"/>
</g>
<!-- Node9 -->
<g id="node9" class="node">
<title>Node9</title>
<g id="a_node9"><a xlink:href="../../df/da1/namespaceActs_1_1VectorHelpers.html#ab52a0c8023eda1c81cc9ddfe7f03b535" target="_top" xlink:title="Access to the time component of input parameter.">
<polygon fill="none" stroke="#000000" points="1088,-52.5 1088,-84.5 1204,-84.5 1204,-52.5 1088,-52.5"/>
<text text-anchor="start" x="1096" y="-71.5" font-family="FreeSans" font-size="10.00" fill="#000000">Acts::VectorHelpers</text>
<text text-anchor="middle" x="1146" y="-59.5" font-family="FreeSans" font-size="10.00" fill="#000000">::time</text>
</a>
</g>
</g>
<!-- Node8&#45;&gt;Node9 -->
<g id="edge9" class="edge">
<title>Node8&#45;&gt;Node9</title>
<path fill="none" stroke="#191970" d="M1042.3078,-68.5C1053.7836,-68.5 1065.8948,-68.5 1077.6328,-68.5"/>
<polygon fill="#191970" stroke="#191970" points="1077.8266,-72.0001 1087.8265,-68.5 1077.8265,-65.0001 1077.8266,-72.0001"/>
</g>
<!-- Node10&#45;&gt;Node8 -->
<g id="edge11" class="edge">
<title>Node10&#45;&gt;Node8</title>
<path fill="none" stroke="#191970" d="M680.1994,-53.576C749.8147,-57.0071 848.2325,-61.8578 913.7554,-65.0872"/>
<polygon fill="#191970" stroke="#191970" points="913.8193,-68.5945 923.9795,-65.5911 914.1639,-61.603 913.8193,-68.5945"/>
</g>
<!-- Node10&#45;&gt;Node11 -->
<g id="edge12" class="edge">
<title>Node10&#45;&gt;Node11</title>
<path fill="none" stroke="#191970" d="M648.8762,-39.4565C675.4045,-34.2706 707.9556,-27.9072 735.7804,-22.4677"/>
<polygon fill="#191970" stroke="#191970" points="736.6552,-25.8631 745.7979,-20.5094 735.3121,-18.9931 736.6552,-25.8631"/>
</g>
<!-- Node12 -->
<g id="node12" class="node">
<title>Node12</title>
<g id="a_node12"><a xlink:href="../../db/da1/classFairLogger.html#a80d1ac93eff9a9b6d52f8118b8b796aa" target="_top" xlink:title="FairLogger::CloseLogFile">
<polygon fill="none" stroke="#000000" points="914,-.5 914,-20.5 1052,-20.5 1052,-.5 914,-.5"/>
<text text-anchor="middle" x="983" y="-7.5" font-family="FreeSans" font-size="10.00" fill="#000000">FairLogger::CloseLogFile</text>
</a>
</g>
</g>
<!-- Node11&#45;&gt;Node12 -->
<g id="edge13" class="edge">
<title>Node11&#45;&gt;Node12</title>
<path fill="none" stroke="#191970" d="M865.7311,-10.5C878.1428,-10.5 891.1747,-10.5 903.855,-10.5"/>
<polygon fill="#191970" stroke="#191970" points="903.9305,-14.0001 913.9305,-10.5 903.9304,-7.0001 903.9305,-14.0001"/>
</g>
</g>
</svg>
