<?xml version="1.0" encoding="UTF-8" standalone="no"?>
<!DOCTYPE svg PUBLIC "-//W3C//DTD SVG 1.1//EN"
 "http://www.w3.org/Graphics/SVG/1.1/DTD/svg11.dtd">
<!-- Generated by graphviz version 2.40.1 (20161225.0304)
 -->
<!-- Title: fun4all_coresoftware/blob/master/offline/framework/ffaobjects/EventHeaderv1.h Pages: 1 -->
<svg width="623pt" height="251pt"
 viewBox="0.00 0.00 623.00 251.00" xmlns="http://www.w3.org/2000/svg" xmlns:xlink="http://www.w3.org/1999/xlink">
<g id="graph0" class="graph" transform="scale(1 1) rotate(0) translate(4 247)">
<title>fun4all_coresoftware/blob/master/offline/framework/ffaobjects/EventHeaderv1.h</title>
<!-- Node1 -->
<g id="node1" class="node">
<title>Node1</title>
<polygon fill="#bfbfbf" stroke="#000000" points="226.5,-186.5 226.5,-242.5 354.5,-242.5 354.5,-186.5 226.5,-186.5"/>
<text text-anchor="start" x="234.5" y="-229.5" font-family="FreeSans" font-size="10.00" fill="#000000">fun4all_coresoftware</text>
<text text-anchor="start" x="234.5" y="-217.5" font-family="FreeSans" font-size="10.00" fill="#000000">/blob/master/offline</text>
<text text-anchor="start" x="234.5" y="-205.5" font-family="FreeSans" font-size="10.00" fill="#000000">/framework/ffaobjects</text>
<text text-anchor="middle" x="290.5" y="-193.5" font-family="FreeSans" font-size="10.00" fill="#000000">/EventHeaderv1.h</text>
</g>
<!-- Node2 -->
<g id="node2" class="node">
<title>Node2</title>
<g id="a_node2"><a xlink:href="../../dc/d80/HeadReco_8cc.html" target="_top" xlink:title="fun4all_coresoftware\l/blob/master/offline\l/framework/ffamodules\l/HeadReco.cc">
<polygon fill="none" stroke="#000000" points="0,-93.5 0,-149.5 135,-149.5 135,-93.5 0,-93.5"/>
<text text-anchor="start" x="8" y="-136.5" font-family="FreeSans" font-size="10.00" fill="#000000">fun4all_coresoftware</text>
<text text-anchor="start" x="8" y="-124.5" font-family="FreeSans" font-size="10.00" fill="#000000">/blob/master/offline</text>
<text text-anchor="start" x="8" y="-112.5" font-family="FreeSans" font-size="10.00" fill="#000000">/framework/ffamodules</text>
<text text-anchor="middle" x="67.5" y="-100.5" font-family="FreeSans" font-size="10.00" fill="#000000">/HeadReco.cc</text>
</a>
</g>
</g>
<!-- Node1&#45;&gt;Node2 -->
<g id="edge1" class="edge">
<title>Node1&#45;&gt;Node2</title>
<path fill="none" stroke="#191970" d="M217.0601,-183.8726C190.5238,-172.8059 160.7192,-160.3762 134.7411,-149.5422"/>
<polygon fill="#191970" stroke="#191970" points="215.7216,-187.1065 226.2983,-187.7253 218.416,-180.6458 215.7216,-187.1065"/>
</g>
<!-- Node3 -->
<g id="node3" class="node">
<title>Node3</title>
<g id="a_node3"><a xlink:href="../../da/d01/EventHeaderv1_8cc.html" target="_top" xlink:title="fun4all_coresoftware\l/blob/master/offline\l/framework/ffaobjects\l/EventHeaderv1.cc">
<polygon fill="none" stroke="#000000" points="153.5,-93.5 153.5,-149.5 281.5,-149.5 281.5,-93.5 153.5,-93.5"/>
<text text-anchor="start" x="161.5" y="-136.5" font-family="FreeSans" font-size="10.00" fill="#000000">fun4all_coresoftware</text>
<text text-anchor="start" x="161.5" y="-124.5" font-family="FreeSans" font-size="10.00" fill="#000000">/blob/master/offline</text>
<text text-anchor="start" x="161.5" y="-112.5" font-family="FreeSans" font-size="10.00" fill="#000000">/framework/ffaobjects</text>
<text text-anchor="middle" x="217.5" y="-100.5" font-family="FreeSans" font-size="10.00" fill="#000000">/EventHeaderv1.cc</text>
</a>
</g>
</g>
<!-- Node1&#45;&gt;Node3 -->
<g id="edge2" class="edge">
<title>Node1&#45;&gt;Node3</title>
<path fill="none" stroke="#191970" d="M262.2198,-178.4718C254.6892,-168.8781 246.6663,-158.6571 239.5254,-149.5597"/>
<polygon fill="#191970" stroke="#191970" points="259.4718,-180.6395 268.3995,-186.3446 264.9781,-176.3173 259.4718,-180.6395"/>
</g>
<!-- Node4 -->
<g id="node4" class="node">
<title>Node4</title>
<g id="a_node4"><a xlink:href="../../dd/d95/EventHeaderv2_8h.html" target="_top" xlink:title="fun4all_coresoftware\l/blob/master/offline\l/framework/ffaobjects\l/EventHeaderv2.h">
<polygon fill="none" stroke="#000000" points="299.5,-93.5 299.5,-149.5 427.5,-149.5 427.5,-93.5 299.5,-93.5"/>
<text text-anchor="start" x="307.5" y="-136.5" font-family="FreeSans" font-size="10.00" fill="#000000">fun4all_coresoftware</text>
<text text-anchor="start" x="307.5" y="-124.5" font-family="FreeSans" font-size="10.00" fill="#000000">/blob/master/offline</text>
<text text-anchor="start" x="307.5" y="-112.5" font-family="FreeSans" font-size="10.00" fill="#000000">/framework/ffaobjects</text>
<text text-anchor="middle" x="363.5" y="-100.5" font-family="FreeSans" font-size="10.00" fill="#000000">/EventHeaderv2.h</text>
</a>
</g>
</g>
<!-- Node1&#45;&gt;Node4 -->
<g id="edge3" class="edge">
<title>Node1&#45;&gt;Node4</title>
<path fill="none" stroke="#191970" d="M318.7802,-178.4718C326.3108,-168.8781 334.3337,-158.6571 341.4746,-149.5597"/>
<polygon fill="#191970" stroke="#191970" points="316.0219,-176.3173 312.6005,-186.3446 321.5282,-180.6395 316.0219,-176.3173"/>
</g>
<!-- Node6 -->
<g id="node6" class="node">
<title>Node6</title>
<g id="a_node6"><a xlink:href="../../da/d9d/KFParticle__nTuple_8cc.html" target="_top" xlink:title="fun4all_coresoftware\l/blob/master/offline\l/packages/KFParticle_sPHENIX\l/KFParticle_nTuple.cc">
<polygon fill="none" stroke="#000000" points="446,-93.5 446,-149.5 615,-149.5 615,-93.5 446,-93.5"/>
<text text-anchor="start" x="454" y="-136.5" font-family="FreeSans" font-size="10.00" fill="#000000">fun4all_coresoftware</text>
<text text-anchor="start" x="454" y="-124.5" font-family="FreeSans" font-size="10.00" fill="#000000">/blob/master/offline</text>
<text text-anchor="start" x="454" y="-112.5" font-family="FreeSans" font-size="10.00" fill="#000000">/packages/KFParticle_sPHENIX</text>
<text text-anchor="middle" x="530.5" y="-100.5" font-family="FreeSans" font-size="10.00" fill="#000000">/KFParticle_nTuple.cc</text>
</a>
</g>
</g>
<!-- Node1&#45;&gt;Node6 -->
<g id="edge5" class="edge">
<title>Node1&#45;&gt;Node6</title>
<path fill="none" stroke="#191970" d="M364.0406,-186.003C393.9537,-174.4117 428.4216,-161.0554 458.2061,-149.5139"/>
<polygon fill="#191970" stroke="#191970" points="362.5601,-182.8231 354.5003,-189.6999 365.0894,-189.3501 362.5601,-182.8231"/>
</g>
<!-- Node5 -->
<g id="node5" class="node">
<title>Node5</title>
<g id="a_node5"><a xlink:href="../../d5/d89/EventHeaderv2_8cc.html" target="_top" xlink:title="fun4all_coresoftware\l/blob/master/offline\l/framework/ffaobjects\l/EventHeaderv2.cc">
<polygon fill="none" stroke="#000000" points="299.5,-.5 299.5,-56.5 427.5,-56.5 427.5,-.5 299.5,-.5"/>
<text text-anchor="start" x="307.5" y="-43.5" font-family="FreeSans" font-size="10.00" fill="#000000">fun4all_coresoftware</text>
<text text-anchor="start" x="307.5" y="-31.5" font-family="FreeSans" font-size="10.00" fill="#000000">/blob/master/offline</text>
<text text-anchor="start" x="307.5" y="-19.5" font-family="FreeSans" font-size="10.00" fill="#000000">/framework/ffaobjects</text>
<text text-anchor="middle" x="363.5" y="-7.5" font-family="FreeSans" font-size="10.00" fill="#000000">/EventHeaderv2.cc</text>
</a>
</g>
</g>
<!-- Node4&#45;&gt;Node5 -->
<g id="edge4" class="edge">
<title>Node4&#45;&gt;Node5</title>
<path fill="none" stroke="#191970" d="M363.5,-83.1582C363.5,-74.2499 363.5,-64.9293 363.5,-56.5597"/>
<polygon fill="#191970" stroke="#191970" points="360.0001,-83.3445 363.5,-93.3446 367.0001,-83.3446 360.0001,-83.3445"/>
</g>
</g>
</svg>
