<?xml version="1.0" encoding="UTF-8" standalone="no"?>
<!DOCTYPE svg PUBLIC "-//W3C//DTD SVG 1.1//EN"
 "http://www.w3.org/Graphics/SVG/1.1/DTD/svg11.dtd">
<!-- Generated by graphviz version 2.40.1 (20161225.0304)
 -->
<!-- Title: EicRoot/blob/master/pnddata/TrackData/PndTrackCandHit.h Pages: 1 -->
<svg width="353pt" height="167pt"
 viewBox="0.00 0.00 353.00 167.00" xmlns="http://www.w3.org/2000/svg" xmlns:xlink="http://www.w3.org/1999/xlink">
<g id="graph0" class="graph" transform="scale(1 1) rotate(0) translate(4 163)">
<title>EicRoot/blob/master/pnddata/TrackData/PndTrackCandHit.h</title>
<!-- Node1 -->
<g id="node1" class="node">
<title>Node1</title>
<polygon fill="#bfbfbf" stroke="#000000" points="128,-114.5 128,-158.5 293,-158.5 293,-114.5 128,-114.5"/>
<text text-anchor="start" x="136" y="-145.5" font-family="FreeSans" font-size="10.00" fill="#000000">EicRoot/blob/master</text>
<text text-anchor="start" x="136" y="-133.5" font-family="FreeSans" font-size="10.00" fill="#000000">/pnddata/TrackData/PndTrack</text>
<text text-anchor="middle" x="210.5" y="-121.5" font-family="FreeSans" font-size="10.00" fill="#000000">CandHit.h</text>
</g>
<!-- Node2 -->
<g id="node2" class="node">
<title>Node2</title>
<polygon fill="none" stroke="#bfbfbf" points="0,-.5 0,-20.5 65,-20.5 65,-.5 0,-.5"/>
<text text-anchor="middle" x="32.5" y="-7.5" font-family="FreeSans" font-size="10.00" fill="#000000">TObject.h</text>
</g>
<!-- Node1&#45;&gt;Node2 -->
<g id="edge1" class="edge">
<title>Node1&#45;&gt;Node2</title>
<path fill="none" stroke="#191970" d="M168.0841,-114.3528C149.5769,-104.0816 127.9399,-91.2305 109.5,-78 88.0505,-62.6102 65.576,-42.3618 50.4832,-28.0701"/>
<polygon fill="#191970" stroke="#191970" points="52.5522,-25.2051 42.9112,-20.8118 47.7082,-30.2585 52.5522,-25.2051"/>
</g>
<!-- Node3 -->
<g id="node3" class="node">
<title>Node3</title>
<g id="a_node3"><a xlink:href="../../d2/d2b/FairLink_8h.html" target="_top" xlink:title="FairLink.h">
<polygon fill="none" stroke="#000000" points="118.5,-57.5 118.5,-77.5 182.5,-77.5 182.5,-57.5 118.5,-57.5"/>
<text text-anchor="middle" x="150.5" y="-64.5" font-family="FreeSans" font-size="10.00" fill="#000000">FairLink.h</text>
</a>
</g>
</g>
<!-- Node1&#45;&gt;Node3 -->
<g id="edge2" class="edge">
<title>Node1&#45;&gt;Node3</title>
<path fill="none" stroke="#191970" d="M191.1854,-114.2882C183.0856,-104.9734 173.7904,-94.2839 166.1312,-85.4758"/>
<polygon fill="#191970" stroke="#191970" points="168.5844,-82.9631 159.3815,-77.7137 163.3021,-87.5564 168.5844,-82.9631"/>
</g>
<!-- Node6 -->
<g id="node6" class="node">
<title>Node6</title>
<polygon fill="none" stroke="#bfbfbf" points="227.5,-.5 227.5,-20.5 287.5,-20.5 287.5,-.5 227.5,-.5"/>
<text text-anchor="middle" x="257.5" y="-7.5" font-family="FreeSans" font-size="10.00" fill="#000000">iostream</text>
</g>
<!-- Node1&#45;&gt;Node6 -->
<g id="edge7" class="edge">
<title>Node1&#45;&gt;Node6</title>
<path fill="none" stroke="#191970" d="M214.3365,-114.3826C217.5656,-98.1335 222.8865,-75.7207 230.5,-57 234.3839,-47.4501 239.9416,-37.486 245.0061,-29.2423"/>
<polygon fill="#191970" stroke="#191970" points="247.9764,-31.0939 250.3991,-20.7798 242.0732,-27.3319 247.9764,-31.0939"/>
</g>
<!-- Node7 -->
<g id="node7" class="node">
<title>Node7</title>
<polygon fill="none" stroke="#bfbfbf" points="239,-57.5 239,-77.5 288,-77.5 288,-57.5 239,-57.5"/>
<text text-anchor="middle" x="263.5" y="-64.5" font-family="FreeSans" font-size="10.00" fill="#000000">vector</text>
</g>
<!-- Node1&#45;&gt;Node7 -->
<g id="edge8" class="edge">
<title>Node1&#45;&gt;Node7</title>
<path fill="none" stroke="#191970" d="M227.5613,-114.2882C234.6423,-105.0694 242.7576,-94.5042 249.4828,-85.7488"/>
<polygon fill="#191970" stroke="#191970" points="252.3388,-87.7763 255.6547,-77.7137 246.7874,-83.5121 252.3388,-87.7763"/>
</g>
<!-- Node8 -->
<g id="node8" class="node">
<title>Node8</title>
<polygon fill="none" stroke="#bfbfbf" points="306,-57.5 306,-77.5 345,-77.5 345,-57.5 306,-57.5"/>
<text text-anchor="middle" x="325.5" y="-64.5" font-family="FreeSans" font-size="10.00" fill="#000000">map</text>
</g>
<!-- Node1&#45;&gt;Node8 -->
<g id="edge9" class="edge">
<title>Node1&#45;&gt;Node8</title>
<path fill="none" stroke="#191970" d="M247.2029,-114.4783C264.2957,-104.2226 284.2221,-92.2667 299.6951,-82.9829"/>
<polygon fill="#191970" stroke="#191970" points="301.9144,-85.7331 308.6886,-77.5869 298.3129,-79.7306 301.9144,-85.7331"/>
</g>
<!-- Node3&#45;&gt;Node2 -->
<g id="edge3" class="edge">
<title>Node3&#45;&gt;Node2</title>
<path fill="none" stroke="#191970" d="M129.6756,-57.4408C111.0859,-48.461 83.635,-35.2008 62.6466,-25.0624"/>
<polygon fill="#191970" stroke="#191970" points="64.04,-21.8485 53.5131,-20.6504 60.9952,-28.1517 64.04,-21.8485"/>
</g>
<!-- Node4 -->
<g id="node4" class="node">
<title>Node4</title>
<polygon fill="none" stroke="#bfbfbf" points="83,-.5 83,-20.5 146,-20.5 146,-.5 83,-.5"/>
<text text-anchor="middle" x="114.5" y="-7.5" font-family="FreeSans" font-size="10.00" fill="#000000">TString.h</text>
</g>
<!-- Node3&#45;&gt;Node4 -->
<g id="edge4" class="edge">
<title>Node3&#45;&gt;Node4</title>
<path fill="none" stroke="#191970" d="M144.0639,-57.3095C139.1494,-49.5282 132.2404,-38.589 126.3372,-29.2423"/>
<polygon fill="#191970" stroke="#191970" points="129.1796,-27.1881 120.8804,-20.6022 123.2611,-30.9261 129.1796,-27.1881"/>
</g>
<!-- Node5 -->
<g id="node5" class="node">
<title>Node5</title>
<polygon fill="none" stroke="#bfbfbf" points="164,-.5 164,-20.5 209,-20.5 209,-.5 164,-.5"/>
<text text-anchor="middle" x="186.5" y="-7.5" font-family="FreeSans" font-size="10.00" fill="#000000">utility</text>
</g>
<!-- Node3&#45;&gt;Node5 -->
<g id="edge5" class="edge">
<title>Node3&#45;&gt;Node5</title>
<path fill="none" stroke="#191970" d="M156.9361,-57.3095C161.8506,-49.5282 168.7596,-38.589 174.6628,-29.2423"/>
<polygon fill="#191970" stroke="#191970" points="177.7389,-30.9261 180.1196,-20.6022 171.8204,-27.1881 177.7389,-30.9261"/>
</g>
<!-- Node3&#45;&gt;Node6 -->
<g id="edge6" class="edge">
<title>Node3&#45;&gt;Node6</title>
<path fill="none" stroke="#191970" d="M169.6295,-57.3095C186.2906,-48.434 210.6642,-35.4499 229.5171,-25.4068"/>
<polygon fill="#191970" stroke="#191970" points="231.3559,-28.3929 238.5362,-20.6022 228.0648,-22.2148 231.3559,-28.3929"/>
</g>
</g>
</svg>
