<?xml version="1.0" encoding="UTF-8" standalone="no"?>
<!DOCTYPE svg PUBLIC "-//W3C//DTD SVG 1.1//EN"
 "http://www.w3.org/Graphics/SVG/1.1/DTD/svg11.dtd">
<!-- Generated by graphviz version 2.40.1 (20161225.0304)
 -->
<!-- Title: CylinderGeom_Mvtx::find_sensor_center Pages: 1 -->
<svg width="1580pt" height="323pt"
 viewBox="0.00 0.00 1580.00 323.00" xmlns="http://www.w3.org/2000/svg" xmlns:xlink="http://www.w3.org/1999/xlink">
<g id="graph0" class="graph" transform="scale(1 1) rotate(0) translate(4 319)">
<title>CylinderGeom_Mvtx::find_sensor_center</title>
<!-- Node1 -->
<g id="node1" class="node">
<title>Node1</title>
<polygon fill="#bfbfbf" stroke="#000000" points="0,-169.5 0,-201.5 124,-201.5 124,-169.5 0,-169.5"/>
<text text-anchor="start" x="8" y="-188.5" font-family="FreeSans" font-size="10.00" fill="#000000">CylinderGeom_Mvtx::</text>
<text text-anchor="middle" x="62" y="-176.5" font-family="FreeSans" font-size="10.00" fill="#000000">find_sensor_center</text>
</g>
<!-- Node2 -->
<g id="node2" class="node">
<title>Node2</title>
<g id="a_node2"><a xlink:href="../../d7/df2/classPHActsSourceLinks.html#a1582b23e2e20979ac721f25b6c58e192" target="_top" xlink:title="PHActsSourceLinks::\lgetMvtxCovarLocal">
<polygon fill="none" stroke="#000000" points="182,-282.5 182,-314.5 300,-314.5 300,-282.5 182,-282.5"/>
<text text-anchor="start" x="190" y="-301.5" font-family="FreeSans" font-size="10.00" fill="#000000">PHActsSourceLinks::</text>
<text text-anchor="middle" x="241" y="-289.5" font-family="FreeSans" font-size="10.00" fill="#000000">getMvtxCovarLocal</text>
</a>
</g>
</g>
<!-- Node1&#45;&gt;Node2 -->
<g id="edge1" class="edge">
<title>Node1&#45;&gt;Node2</title>
<path fill="none" stroke="#191970" d="M85.2152,-208.7758C104.0774,-226.689 132.0492,-251.0807 160,-267.5 169.6073,-273.1437 180.4285,-278.1149 190.9591,-282.3308"/>
<polygon fill="#191970" stroke="#191970" points="87.3417,-205.9639 77.7158,-201.5375 82.4804,-211.0006 87.3417,-205.9639"/>
</g>
<!-- Node3 -->
<g id="node3" class="node">
<title>Node3</title>
<g id="a_node3"><a xlink:href="../../d7/df2/classPHActsSourceLinks.html#a00905ab986ea210f35641915875ab7cc" target="_top" xlink:title="PHActsSourceLinks::\lgetMvtxLocalCoords">
<polygon fill="none" stroke="#000000" points="385.5,-262.5 385.5,-294.5 503.5,-294.5 503.5,-262.5 385.5,-262.5"/>
<text text-anchor="start" x="393.5" y="-281.5" font-family="FreeSans" font-size="10.00" fill="#000000">PHActsSourceLinks::</text>
<text text-anchor="middle" x="444.5" y="-269.5" font-family="FreeSans" font-size="10.00" fill="#000000">getMvtxLocalCoords</text>
</a>
</g>
</g>
<!-- Node1&#45;&gt;Node3 -->
<g id="edge11" class="edge">
<title>Node1&#45;&gt;Node3</title>
<path fill="none" stroke="#191970" d="M97.5295,-206.6193C115.657,-216.514 138.393,-227.6133 160,-234.5 235.5957,-258.5941 326.8382,-269.7259 385.2518,-274.7064"/>
<polygon fill="#191970" stroke="#191970" points="98.9388,-203.3977 88.5004,-201.5834 95.529,-209.5112 98.9388,-203.3977"/>
</g>
<!-- Node5 -->
<g id="node5" class="node">
<title>Node5</title>
<g id="a_node5"><a xlink:href="../../da/db1/classMakeActsGeometry.html#ad1297a652617e697364fc272f4d5a2e6" target="_top" xlink:title="Get subdetector hitsetkey from the local sensor unit coordinates.">
<polygon fill="none" stroke="#000000" points="160,-192.5 160,-224.5 322,-224.5 322,-192.5 160,-192.5"/>
<text text-anchor="start" x="168" y="-211.5" font-family="FreeSans" font-size="10.00" fill="#000000">MakeActsGeometry::getMvtx</text>
<text text-anchor="middle" x="241" y="-199.5" font-family="FreeSans" font-size="10.00" fill="#000000">HitSetKeyFromCoords</text>
</a>
</g>
</g>
<!-- Node1&#45;&gt;Node5 -->
<g id="edge4" class="edge">
<title>Node1&#45;&gt;Node5</title>
<path fill="none" stroke="#191970" d="M134.2323,-194.7812C142.6395,-195.8615 151.258,-196.9689 159.7756,-198.0633"/>
<polygon fill="#191970" stroke="#191970" points="134.4677,-191.2828 124.1032,-193.4797 133.5755,-198.2257 134.4677,-191.2828"/>
</g>
<!-- Node12 -->
<g id="node12" class="node">
<title>Node12</title>
<g id="a_node12"><a xlink:href="../../d0/d22/classPHGenFitTrkProp.html#ab3ea35b5669e7405b70e0a1eaad3cdb8" target="_top" xlink:title="PHGenFitTrkProp::ReFitTrack">
<polygon fill="none" stroke="#000000" points="162.5,-153.5 162.5,-173.5 319.5,-173.5 319.5,-153.5 162.5,-153.5"/>
<text text-anchor="middle" x="241" y="-160.5" font-family="FreeSans" font-size="10.00" fill="#000000">PHGenFitTrkProp::ReFitTrack</text>
</a>
</g>
</g>
<!-- Node1&#45;&gt;Node12 -->
<g id="edge12" class="edge">
<title>Node1&#45;&gt;Node12</title>
<path fill="none" stroke="#191970" d="M134.0621,-176.6432C143.3527,-175.5013 152.9041,-174.3274 162.2947,-173.1733"/>
<polygon fill="#191970" stroke="#191970" points="133.6015,-173.1734 124.1032,-177.8672 134.4555,-180.1211 133.6015,-173.1734"/>
</g>
<!-- Node13 -->
<g id="node13" class="node">
<title>Node13</title>
<g id="a_node13"><a xlink:href="../../de/d25/classPHGenFitTrkFitter.html#af07c5ea2636426357d02b5b697376db2" target="_top" xlink:title="PHGenFitTrkFitter::\lReFitTrack">
<polygon fill="none" stroke="#000000" points="186.5,-102.5 186.5,-134.5 295.5,-134.5 295.5,-102.5 186.5,-102.5"/>
<text text-anchor="start" x="194.5" y="-121.5" font-family="FreeSans" font-size="10.00" fill="#000000">PHGenFitTrkFitter::</text>
<text text-anchor="middle" x="241" y="-109.5" font-family="FreeSans" font-size="10.00" fill="#000000">ReFitTrack</text>
</a>
</g>
</g>
<!-- Node1&#45;&gt;Node13 -->
<g id="edge13" class="edge">
<title>Node1&#45;&gt;Node13</title>
<path fill="none" stroke="#191970" d="M107.8038,-165.3824C124.1545,-158.4556 142.7876,-150.8498 160,-144.5 169.1452,-141.1263 178.9588,-137.764 188.4882,-134.6314"/>
<polygon fill="#191970" stroke="#191970" points="106.2913,-162.2225 98.4685,-169.3678 109.0397,-168.6604 106.2913,-162.2225"/>
</g>
<!-- Node15 -->
<g id="node15" class="node">
<title>Node15</title>
<g id="a_node15"><a xlink:href="../../d0/d22/classPHGenFitTrkProp.html#a203b7ffdfbb9841ea1f10baa7ba7b59f" target="_top" xlink:title="PHGenFitTrkProp::TrkrCluster\lToPHGenFitMeasurement">
<polygon fill="none" stroke="#000000" points="160.5,-51.5 160.5,-83.5 321.5,-83.5 321.5,-51.5 160.5,-51.5"/>
<text text-anchor="start" x="168.5" y="-70.5" font-family="FreeSans" font-size="10.00" fill="#000000">PHGenFitTrkProp::TrkrCluster</text>
<text text-anchor="middle" x="241" y="-58.5" font-family="FreeSans" font-size="10.00" fill="#000000">ToPHGenFitMeasurement</text>
</a>
</g>
</g>
<!-- Node1&#45;&gt;Node15 -->
<g id="edge15" class="edge">
<title>Node1&#45;&gt;Node15</title>
<path fill="none" stroke="#191970" d="M81.9843,-161.4932C100.3416,-140.8363 129.2889,-111.5856 160,-93.5 166.3632,-89.7527 173.3307,-86.4774 180.4237,-83.6327"/>
<polygon fill="#191970" stroke="#191970" points="79.1837,-159.3796 75.2543,-169.2189 84.4619,-163.9776 79.1837,-159.3796"/>
</g>
<!-- Node2&#45;&gt;Node3 -->
<g id="edge2" class="edge">
<title>Node2&#45;&gt;Node3</title>
<path fill="none" stroke="#191970" d="M310.3738,-291.6819C334.7041,-289.2908 361.7915,-286.6286 385.2185,-284.3262"/>
<polygon fill="#191970" stroke="#191970" points="309.7437,-288.2269 300.134,-292.6883 310.4284,-295.1933 309.7437,-288.2269"/>
</g>
<!-- Node4 -->
<g id="node4" class="node">
<title>Node4</title>
<g id="a_node4"><a xlink:href="../../d7/df2/classPHActsSourceLinks.html#a6f9bd92adb0405e9b210bc1cd199f9dc" target="_top" xlink:title="PHActsSourceLinks::\lprocess_event">
<polygon fill="none" stroke="#000000" points="598.5,-262.5 598.5,-294.5 716.5,-294.5 716.5,-262.5 598.5,-262.5"/>
<text text-anchor="start" x="606.5" y="-281.5" font-family="FreeSans" font-size="10.00" fill="#000000">PHActsSourceLinks::</text>
<text text-anchor="middle" x="657.5" y="-269.5" font-family="FreeSans" font-size="10.00" fill="#000000">process_event</text>
</a>
</g>
</g>
<!-- Node3&#45;&gt;Node4 -->
<g id="edge3" class="edge">
<title>Node3&#45;&gt;Node4</title>
<path fill="none" stroke="#191970" d="M513.8093,-278.5C541.1017,-278.5 572.1206,-278.5 598.3356,-278.5"/>
<polygon fill="#191970" stroke="#191970" points="513.5495,-275.0001 503.5495,-278.5 513.5495,-282.0001 513.5495,-275.0001"/>
</g>
<!-- Node6 -->
<g id="node6" class="node">
<title>Node6</title>
<g id="a_node6"><a xlink:href="../../da/db1/classMakeActsGeometry.html#ab9b4afbf5dfd3c6f7fa38830a6560377" target="_top" xlink:title="MakeActsGeometry::makeMvtx\lMapPairs">
<polygon fill="none" stroke="#000000" points="358,-192.5 358,-224.5 531,-224.5 531,-192.5 358,-192.5"/>
<text text-anchor="start" x="366" y="-211.5" font-family="FreeSans" font-size="10.00" fill="#000000">MakeActsGeometry::makeMvtx</text>
<text text-anchor="middle" x="444.5" y="-199.5" font-family="FreeSans" font-size="10.00" fill="#000000">MapPairs</text>
</a>
</g>
</g>
<!-- Node5&#45;&gt;Node6 -->
<g id="edge5" class="edge">
<title>Node5&#45;&gt;Node6</title>
<path fill="none" stroke="#191970" d="M332.2824,-208.5C340.7541,-208.5 349.3236,-208.5 357.7527,-208.5"/>
<polygon fill="#191970" stroke="#191970" points="332.0133,-205.0001 322.0133,-208.5 332.0133,-212.0001 332.0133,-205.0001"/>
</g>
<!-- Node7 -->
<g id="node7" class="node">
<title>Node7</title>
<g id="a_node7"><a xlink:href="../../da/db1/classMakeActsGeometry.html#a6c06c33bcf0b960a5848047dfc80e54e" target="_top" xlink:title="MakeActsGeometry::unpack\lVolumes">
<polygon fill="none" stroke="#000000" points="578.5,-192.5 578.5,-224.5 736.5,-224.5 736.5,-192.5 578.5,-192.5"/>
<text text-anchor="start" x="586.5" y="-211.5" font-family="FreeSans" font-size="10.00" fill="#000000">MakeActsGeometry::unpack</text>
<text text-anchor="middle" x="657.5" y="-199.5" font-family="FreeSans" font-size="10.00" fill="#000000">Volumes</text>
</a>
</g>
</g>
<!-- Node6&#45;&gt;Node7 -->
<g id="edge6" class="edge">
<title>Node6&#45;&gt;Node7</title>
<path fill="none" stroke="#191970" d="M541.4852,-208.5C553.8727,-208.5 566.4333,-208.5 578.4894,-208.5"/>
<polygon fill="#191970" stroke="#191970" points="541.1353,-205.0001 531.1353,-208.5 541.1352,-212.0001 541.1353,-205.0001"/>
</g>
<!-- Node8 -->
<g id="node8" class="node">
<title>Node8</title>
<g id="a_node8"><a xlink:href="../../da/db1/classMakeActsGeometry.html#a0a3e4f327303d53117efefac7463c669" target="_top" xlink:title="Function that mimics ActsFW::GeometryExampleBase.">
<polygon fill="none" stroke="#000000" points="784,-198.5 784,-218.5 983,-218.5 983,-198.5 784,-198.5"/>
<text text-anchor="middle" x="883.5" y="-205.5" font-family="FreeSans" font-size="10.00" fill="#000000">MakeActsGeometry::makeGeometry</text>
</a>
</g>
</g>
<!-- Node7&#45;&gt;Node8 -->
<g id="edge7" class="edge">
<title>Node7&#45;&gt;Node8</title>
<path fill="none" stroke="#191970" d="M746.6856,-208.5C758.8834,-208.5 771.4691,-208.5 783.8386,-208.5"/>
<polygon fill="#191970" stroke="#191970" points="746.5439,-205.0001 736.5438,-208.5 746.5438,-212.0001 746.5439,-205.0001"/>
</g>
<!-- Node9 -->
<g id="node9" class="node">
<title>Node9</title>
<g id="a_node9"><a xlink:href="../../da/db1/classMakeActsGeometry.html#a6f8433331336def2c6ea713b281da9ed" target="_top" xlink:title="Silicon layers made by BuildSiliconLayers and its helper functions.">
<polygon fill="none" stroke="#000000" points="1019,-192.5 1019,-224.5 1186,-224.5 1186,-192.5 1019,-192.5"/>
<text text-anchor="start" x="1027" y="-211.5" font-family="FreeSans" font-size="10.00" fill="#000000">MakeActsGeometry::buildActs</text>
<text text-anchor="middle" x="1102.5" y="-199.5" font-family="FreeSans" font-size="10.00" fill="#000000">Surfaces</text>
</a>
</g>
</g>
<!-- Node8&#45;&gt;Node9 -->
<g id="edge8" class="edge">
<title>Node8&#45;&gt;Node9</title>
<path fill="none" stroke="#191970" d="M993.1981,-208.5C1001.8384,-208.5 1010.477,-208.5 1018.8988,-208.5"/>
<polygon fill="#191970" stroke="#191970" points="993.0674,-205.0001 983.0673,-208.5 993.0673,-212.0001 993.0674,-205.0001"/>
</g>
<!-- Node10 -->
<g id="node10" class="node">
<title>Node10</title>
<g id="a_node10"><a xlink:href="../../da/db1/classMakeActsGeometry.html#aa809a1c2b47d8c089a0dc4a6a96d1cc8" target="_top" xlink:title="Main function to build all acts geometry for use in the fitting modules.">
<polygon fill="none" stroke="#000000" points="1222,-192.5 1222,-224.5 1380,-224.5 1380,-192.5 1222,-192.5"/>
<text text-anchor="start" x="1230" y="-211.5" font-family="FreeSans" font-size="10.00" fill="#000000">MakeActsGeometry::buildAll</text>
<text text-anchor="middle" x="1301" y="-199.5" font-family="FreeSans" font-size="10.00" fill="#000000">Geometry</text>
</a>
</g>
</g>
<!-- Node9&#45;&gt;Node10 -->
<g id="edge9" class="edge">
<title>Node9&#45;&gt;Node10</title>
<path fill="none" stroke="#191970" d="M1196.1763,-208.5C1204.7894,-208.5 1213.4588,-208.5 1221.9237,-208.5"/>
<polygon fill="#191970" stroke="#191970" points="1196.1066,-205.0001 1186.1066,-208.5 1196.1065,-212.0001 1196.1066,-205.0001"/>
</g>
<!-- Node11 -->
<g id="node11" class="node">
<title>Node11</title>
<g id="a_node11"><a xlink:href="../../da/db1/classMakeActsGeometry.html#ad9671cebebf0ab5a605941df542ad66b" target="_top" xlink:title="MakeActsGeometry::InitRun">
<polygon fill="none" stroke="#000000" points="1416,-198.5 1416,-218.5 1572,-218.5 1572,-198.5 1416,-198.5"/>
<text text-anchor="middle" x="1494" y="-205.5" font-family="FreeSans" font-size="10.00" fill="#000000">MakeActsGeometry::InitRun</text>
</a>
</g>
</g>
<!-- Node10&#45;&gt;Node11 -->
<g id="edge10" class="edge">
<title>Node10&#45;&gt;Node11</title>
<path fill="none" stroke="#191970" d="M1390.3304,-208.5C1398.7971,-208.5 1407.3377,-208.5 1415.6897,-208.5"/>
<polygon fill="#191970" stroke="#191970" points="1390.0574,-205.0001 1380.0574,-208.5 1390.0573,-212.0001 1390.0574,-205.0001"/>
</g>
<!-- Node14 -->
<g id="node14" class="node">
<title>Node14</title>
<g id="a_node14"><a xlink:href="../../de/d25/classPHGenFitTrkFitter.html#a2e088a68ab24c5b89b902205f877f9d6" target="_top" xlink:title="Process Event, called for each event.">
<polygon fill="none" stroke="#000000" points="390,-102.5 390,-134.5 499,-134.5 499,-102.5 390,-102.5"/>
<text text-anchor="start" x="398" y="-121.5" font-family="FreeSans" font-size="10.00" fill="#000000">PHGenFitTrkFitter::</text>
<text text-anchor="middle" x="444.5" y="-109.5" font-family="FreeSans" font-size="10.00" fill="#000000">process_event</text>
</a>
</g>
</g>
<!-- Node13&#45;&gt;Node14 -->
<g id="edge14" class="edge">
<title>Node13&#45;&gt;Node14</title>
<path fill="none" stroke="#191970" d="M305.6942,-118.5C332.7719,-118.5 363.9048,-118.5 389.8152,-118.5"/>
<polygon fill="#191970" stroke="#191970" points="305.5343,-115.0001 295.5343,-118.5 305.5342,-122.0001 305.5343,-115.0001"/>
</g>
<!-- Node16 -->
<g id="node16" class="node">
<title>Node16</title>
<g id="a_node16"><a xlink:href="../../d0/d22/classPHGenFitTrkProp.html#ac159ce1352f6004a2f51a520c287c339" target="_top" xlink:title="KalmanTrkProp Call.">
<polygon fill="none" stroke="#000000" points="367,-51.5 367,-83.5 522,-83.5 522,-51.5 367,-51.5"/>
<text text-anchor="start" x="375" y="-70.5" font-family="FreeSans" font-size="10.00" fill="#000000">PHGenFitTrkProp::SvtxTrack</text>
<text text-anchor="middle" x="444.5" y="-58.5" font-family="FreeSans" font-size="10.00" fill="#000000">ToPHGenFitTracks</text>
</a>
</g>
</g>
<!-- Node15&#45;&gt;Node16 -->
<g id="edge16" class="edge">
<title>Node15&#45;&gt;Node16</title>
<path fill="none" stroke="#191970" d="M331.9085,-67.5C343.5755,-67.5 355.4348,-67.5 366.8634,-67.5"/>
<polygon fill="#191970" stroke="#191970" points="331.7209,-64.0001 321.7209,-67.5 331.7208,-71.0001 331.7209,-64.0001"/>
</g>
<!-- Node19 -->
<g id="node19" class="node">
<title>Node19</title>
<g id="a_node19"><a xlink:href="../../d0/d22/classPHGenFitTrkProp.html#a8de33eaa04103e00006e98f15ba808a0" target="_top" xlink:title="PHGenFitTrkProp::TrackProp\lPatRec">
<polygon fill="none" stroke="#000000" points="367,-.5 367,-32.5 522,-32.5 522,-.5 367,-.5"/>
<text text-anchor="start" x="375" y="-19.5" font-family="FreeSans" font-size="10.00" fill="#000000">PHGenFitTrkProp::TrackProp</text>
<text text-anchor="middle" x="444.5" y="-7.5" font-family="FreeSans" font-size="10.00" fill="#000000">PatRec</text>
</a>
</g>
</g>
<!-- Node15&#45;&gt;Node19 -->
<g id="edge19" class="edge">
<title>Node15&#45;&gt;Node19</title>
<path fill="none" stroke="#191970" d="M314.8286,-48.9975C336.2906,-43.6188 359.549,-37.7899 380.3634,-32.5736"/>
<polygon fill="#191970" stroke="#191970" points="313.9585,-45.6072 305.1094,-51.4333 315.6602,-52.3973 313.9585,-45.6072"/>
</g>
<!-- Node17 -->
<g id="node17" class="node">
<title>Node17</title>
<g id="a_node17"><a xlink:href="../../d0/d22/classPHGenFitTrkProp.html#ab11c2e61a1b78278fa4af7cf624c2538" target="_top" xlink:title="Main function.">
<polygon fill="none" stroke="#000000" points="567,-32.5 567,-52.5 748,-52.5 748,-32.5 567,-32.5"/>
<text text-anchor="middle" x="657.5" y="-39.5" font-family="FreeSans" font-size="10.00" fill="#000000">PHGenFitTrkProp::KalmanTrkProp</text>
</a>
</g>
</g>
<!-- Node16&#45;&gt;Node17 -->
<g id="edge17" class="edge">
<title>Node16&#45;&gt;Node17</title>
<path fill="none" stroke="#191970" d="M532.038,-57.2256C545.2858,-55.6707 558.938,-54.0683 572.1387,-52.5189"/>
<polygon fill="#191970" stroke="#191970" points="531.5242,-53.7618 522.0004,-58.4037 532.3403,-60.714 531.5242,-53.7618"/>
</g>
<!-- Node18 -->
<g id="node18" class="node">
<title>Node18</title>
<g id="a_node18"><a xlink:href="../../d0/d22/classPHGenFitTrkProp.html#affb38f83e68a715da6a937c1e82dabd4" target="_top" xlink:title="PHGenFitTrkProp::Process">
<polygon fill="none" stroke="#000000" points="811.5,-32.5 811.5,-52.5 955.5,-52.5 955.5,-32.5 811.5,-32.5"/>
<text text-anchor="middle" x="883.5" y="-39.5" font-family="FreeSans" font-size="10.00" fill="#000000">PHGenFitTrkProp::Process</text>
</a>
</g>
</g>
<!-- Node17&#45;&gt;Node18 -->
<g id="edge18" class="edge">
<title>Node17&#45;&gt;Node18</title>
<path fill="none" stroke="#191970" d="M758.5294,-42.5C776.3093,-42.5 794.4889,-42.5 811.2809,-42.5"/>
<polygon fill="#191970" stroke="#191970" points="758.1207,-39.0001 748.1206,-42.5 758.1206,-46.0001 758.1207,-39.0001"/>
</g>
<!-- Node19&#45;&gt;Node17 -->
<g id="edge20" class="edge">
<title>Node19&#45;&gt;Node17</title>
<path fill="none" stroke="#191970" d="M532.2883,-27.2159C546.5502,-28.9568 561.2743,-30.7541 575.3938,-32.4776"/>
<polygon fill="#191970" stroke="#191970" points="532.3509,-23.6977 522.0004,-25.9601 531.5026,-30.6461 532.3509,-23.6977"/>
</g>
</g>
</svg>
