<?xml version="1.0" encoding="UTF-8" standalone="no"?>
<!DOCTYPE svg PUBLIC "-//W3C//DTD SVG 1.1//EN"
 "http://www.w3.org/Graphics/SVG/1.1/DTD/svg11.dtd">
<!-- Generated by graphviz version 2.40.1 (20161225.0304)
 -->
<!-- Title: FairRunIdGenerator::uuid_generate_time Pages: 1 -->
<svg width="930pt" height="227pt"
 viewBox="0.00 0.00 930.00 227.00" xmlns="http://www.w3.org/2000/svg" xmlns:xlink="http://www.w3.org/1999/xlink">
<g id="graph0" class="graph" transform="scale(1 1) rotate(0) translate(4 223)">
<title>FairRunIdGenerator::uuid_generate_time</title>
<!-- Node1 -->
<g id="node1" class="node">
<title>Node1</title>
<polygon fill="#bfbfbf" stroke="#000000" points="0,-73.5 0,-105.5 124,-105.5 124,-73.5 0,-73.5"/>
<text text-anchor="start" x="8" y="-92.5" font-family="FreeSans" font-size="10.00" fill="#000000">FairRunIdGenerator</text>
<text text-anchor="middle" x="62" y="-80.5" font-family="FreeSans" font-size="10.00" fill="#000000">::uuid_generate_time</text>
</g>
<!-- Node2 -->
<g id="node2" class="node">
<title>Node2</title>
<g id="a_node2"><a xlink:href="../../d6/dd3/classFairRunIdGenerator.html#ae1fcb6057b321c08c6dd388c42240134" target="_top" xlink:title="FairRunIdGenerator\l::get_clock">
<polygon fill="none" stroke="#000000" points="160,-141.5 160,-173.5 275,-173.5 275,-141.5 160,-141.5"/>
<text text-anchor="start" x="168" y="-160.5" font-family="FreeSans" font-size="10.00" fill="#000000">FairRunIdGenerator</text>
<text text-anchor="middle" x="217.5" y="-148.5" font-family="FreeSans" font-size="10.00" fill="#000000">::get_clock</text>
</a>
</g>
</g>
<!-- Node1&#45;&gt;Node2 -->
<g id="edge1" class="edge">
<title>Node1&#45;&gt;Node2</title>
<path fill="none" stroke="#191970" d="M98.8513,-105.6151C120.5587,-115.1077 148.212,-127.2004 171.3601,-137.3231"/>
<polygon fill="#191970" stroke="#191970" points="170.0794,-140.583 180.6441,-141.3829 172.8841,-134.1694 170.0794,-140.583"/>
</g>
<!-- Node3 -->
<g id="node3" class="node">
<title>Node3</title>
<g id="a_node3"><a xlink:href="../../d6/dd3/classFairRunIdGenerator.html#a8f627dd39314a094c551520e03879587" target="_top" xlink:title="FairRunIdGenerator\l::get_random_bytes">
<polygon fill="none" stroke="#000000" points="311,-118.5 311,-150.5 428,-150.5 428,-118.5 311,-118.5"/>
<text text-anchor="start" x="319" y="-137.5" font-family="FreeSans" font-size="10.00" fill="#000000">FairRunIdGenerator</text>
<text text-anchor="middle" x="369.5" y="-125.5" font-family="FreeSans" font-size="10.00" fill="#000000">::get_random_bytes</text>
</a>
</g>
</g>
<!-- Node1&#45;&gt;Node3 -->
<g id="edge13" class="edge">
<title>Node1&#45;&gt;Node3</title>
<path fill="none" stroke="#191970" d="M124.2272,-98.6064C175.4186,-106.0978 247.8925,-116.7038 300.7824,-124.4438"/>
<polygon fill="#191970" stroke="#191970" points="300.3521,-127.918 310.7535,-125.903 301.3658,-120.9918 300.3521,-127.918"/>
</g>
<!-- Node13 -->
<g id="node13" class="node">
<title>Node13</title>
<g id="a_node13"><a xlink:href="../../d6/dd3/classFairRunIdGenerator.html#ab5855636bd31038edfd73ef3799e9904" target="_top" xlink:title="FairRunIdGenerator\l::get_node_id">
<polygon fill="none" stroke="#000000" points="160,-51.5 160,-83.5 275,-83.5 275,-51.5 160,-51.5"/>
<text text-anchor="start" x="168" y="-70.5" font-family="FreeSans" font-size="10.00" fill="#000000">FairRunIdGenerator</text>
<text text-anchor="middle" x="217.5" y="-58.5" font-family="FreeSans" font-size="10.00" fill="#000000">::get_node_id</text>
</a>
</g>
</g>
<!-- Node1&#45;&gt;Node13 -->
<g id="edge12" class="edge">
<title>Node1&#45;&gt;Node13</title>
<path fill="none" stroke="#191970" d="M124.3518,-80.6785C132.7934,-79.4842 141.4872,-78.2542 150.0134,-77.0479"/>
<polygon fill="#191970" stroke="#191970" points="150.5092,-80.5127 159.9203,-75.6463 149.5286,-73.5818 150.5092,-80.5127"/>
</g>
<!-- Node14 -->
<g id="node14" class="node">
<title>Node14</title>
<g id="a_node14"><a xlink:href="../../d6/dd3/classFairRunIdGenerator.html#a8aa90934ece55887c2ce8fe8a6633a91" target="_top" xlink:title="FairRunIdGenerator\l::uuid_pack">
<polygon fill="none" stroke="#000000" points="160,-.5 160,-32.5 275,-32.5 275,-.5 160,-.5"/>
<text text-anchor="start" x="168" y="-19.5" font-family="FreeSans" font-size="10.00" fill="#000000">FairRunIdGenerator</text>
<text text-anchor="middle" x="217.5" y="-7.5" font-family="FreeSans" font-size="10.00" fill="#000000">::uuid_pack</text>
</a>
</g>
</g>
<!-- Node1&#45;&gt;Node14 -->
<g id="edge14" class="edge">
<title>Node1&#45;&gt;Node14</title>
<path fill="none" stroke="#191970" d="M94.0454,-73.349C113.1031,-63.8581 137.8141,-51.7499 160,-41.5 163.4123,-39.9235 166.9502,-38.3175 170.5178,-36.7185"/>
<polygon fill="#191970" stroke="#191970" points="172.2431,-39.7821 179.9648,-32.5277 169.4045,-33.3835 172.2431,-39.7821"/>
</g>
<!-- Node2&#45;&gt;Node3 -->
<g id="edge2" class="edge">
<title>Node2&#45;&gt;Node3</title>
<path fill="none" stroke="#191970" d="M275.3983,-148.7391C283.7198,-147.4799 292.3487,-146.1742 300.8537,-144.8873"/>
<polygon fill="#191970" stroke="#191970" points="301.3911,-148.3459 310.7549,-143.3891 300.3438,-141.4247 301.3911,-148.3459"/>
</g>
<!-- Node4 -->
<g id="node4" class="node">
<title>Node4</title>
<g id="a_node4"><a xlink:href="../../d6/dd3/classFairRunIdGenerator.html#aaab6cfaf7654f1512fb4a02606ad9be7" target="_top" xlink:title="FairRunIdGenerator\l::get_random_fd">
<polygon fill="none" stroke="#000000" points="464,-141.5 464,-173.5 579,-173.5 579,-141.5 464,-141.5"/>
<text text-anchor="start" x="472" y="-160.5" font-family="FreeSans" font-size="10.00" fill="#000000">FairRunIdGenerator</text>
<text text-anchor="middle" x="521.5" y="-148.5" font-family="FreeSans" font-size="10.00" fill="#000000">::get_random_fd</text>
</a>
</g>
</g>
<!-- Node3&#45;&gt;Node4 -->
<g id="edge3" class="edge">
<title>Node3&#45;&gt;Node4</title>
<path fill="none" stroke="#191970" d="M428.2672,-143.3924C436.6734,-144.6644 445.3766,-145.9813 453.9353,-147.2764"/>
<polygon fill="#191970" stroke="#191970" points="453.4786,-150.747 463.8897,-148.7827 454.5259,-143.8258 453.4786,-150.747"/>
</g>
<!-- Node5 -->
<g id="node5" class="node">
<title>Node5</title>
<g id="a_node5"><a xlink:href="../../d3/ded/read_8cxx.html#adc13fae4527b0f50f12b1b164ac15ec2" target="_top" xlink:title="read">
<polygon fill="none" stroke="#000000" points="502.5,-102.5 502.5,-122.5 540.5,-122.5 540.5,-102.5 502.5,-102.5"/>
<text text-anchor="middle" x="521.5" y="-109.5" font-family="FreeSans" font-size="10.00" fill="#000000">read</text>
</a>
</g>
</g>
<!-- Node3&#45;&gt;Node5 -->
<g id="edge4" class="edge">
<title>Node3&#45;&gt;Node5</title>
<path fill="none" stroke="#191970" d="M428.2672,-125.9942C450.1953,-122.8204 474.1438,-119.3542 492.2778,-116.7295"/>
<polygon fill="#191970" stroke="#191970" points="492.8283,-120.1864 502.2238,-115.29 491.8255,-113.2586 492.8283,-120.1864"/>
</g>
<!-- Node6 -->
<g id="node6" class="node">
<title>Node6</title>
<g id="a_node6"><a xlink:href="../../df/d28/namespacekdfinder.html#ab72d428625e99a2d7380eb7691c246c7" target="_top" xlink:title="kdfinder::abs">
<polygon fill="none" stroke="#000000" points="639,-198.5 639,-218.5 722,-218.5 722,-198.5 639,-198.5"/>
<text text-anchor="middle" x="680.5" y="-205.5" font-family="FreeSans" font-size="10.00" fill="#000000">kdfinder::abs</text>
</a>
</g>
</g>
<!-- Node5&#45;&gt;Node6 -->
<g id="edge5" class="edge">
<title>Node5&#45;&gt;Node6</title>
<path fill="none" stroke="#191970" d="M540.6666,-115.4223C552.6653,-118.0264 567.8992,-122.8256 579,-131.5 602.6096,-149.949 591.1818,-170.3212 615,-188.5 619.3713,-191.8363 624.301,-194.6199 629.4447,-196.9416"/>
<polygon fill="#191970" stroke="#191970" points="628.2727,-200.2416 638.86,-200.6415 630.8329,-193.7265 628.2727,-200.2416"/>
</g>
<!-- Node8 -->
<g id="node8" class="node">
<title>Node8</title>
<g id="a_node8"><a xlink:href="../../de/d3c/classerhic_1_1ParticleMCbase.html#a33b38996faa1c81295941c5205383db2" target="_top" xlink:title="erhic::ParticleMCbase\l::GetPdgCode">
<polygon fill="none" stroke="#000000" points="618,-147.5 618,-179.5 743,-179.5 743,-147.5 618,-147.5"/>
<text text-anchor="start" x="626" y="-166.5" font-family="FreeSans" font-size="10.00" fill="#000000">erhic::ParticleMCbase</text>
<text text-anchor="middle" x="680.5" y="-154.5" font-family="FreeSans" font-size="10.00" fill="#000000">::GetPdgCode</text>
</a>
</g>
</g>
<!-- Node5&#45;&gt;Node8 -->
<g id="edge7" class="edge">
<title>Node5&#45;&gt;Node8</title>
<path fill="none" stroke="#191970" d="M540.6791,-118.6518C560.4802,-125.0031 592.3927,-135.2392 620.7336,-144.3296"/>
<polygon fill="#191970" stroke="#191970" points="619.9922,-147.7674 630.5834,-147.489 622.1303,-141.1019 619.9922,-147.7674"/>
</g>
<!-- Node10 -->
<g id="node10" class="node">
<title>Node10</title>
<g id="a_node10"><a xlink:href="../../de/d3c/classerhic_1_1ParticleMCbase.html#abec875dbcad86309ebf3da30fb91be8c" target="_top" xlink:title="erhic::ParticleMCbase\l::GetPt">
<polygon fill="none" stroke="#000000" points="618,-96.5 618,-128.5 743,-128.5 743,-96.5 618,-96.5"/>
<text text-anchor="start" x="626" y="-115.5" font-family="FreeSans" font-size="10.00" fill="#000000">erhic::ParticleMCbase</text>
<text text-anchor="middle" x="680.5" y="-103.5" font-family="FreeSans" font-size="10.00" fill="#000000">::GetPt</text>
</a>
</g>
</g>
<!-- Node5&#45;&gt;Node10 -->
<g id="edge9" class="edge">
<title>Node5&#45;&gt;Node10</title>
<path fill="none" stroke="#191970" d="M540.6791,-112.5C557.521,-112.5 583.1246,-112.5 607.84,-112.5"/>
<polygon fill="#191970" stroke="#191970" points="607.9799,-116.0001 617.9799,-112.5 607.9799,-109.0001 607.9799,-116.0001"/>
</g>
<!-- Node11 -->
<g id="node11" class="node">
<title>Node11</title>
<g id="a_node11"><a xlink:href="../../dc/db4/classerhic_1_1EventDis.html#a64b2de754abd17753622235fb195bdf9" target="_top" xlink:title="erhic::EventDis::GetQ2">
<polygon fill="none" stroke="#000000" points="615,-57.5 615,-77.5 746,-77.5 746,-57.5 615,-57.5"/>
<text text-anchor="middle" x="680.5" y="-64.5" font-family="FreeSans" font-size="10.00" fill="#000000">erhic::EventDis::GetQ2</text>
</a>
</g>
</g>
<!-- Node5&#45;&gt;Node11 -->
<g id="edge10" class="edge">
<title>Node5&#45;&gt;Node11</title>
<path fill="none" stroke="#191970" d="M540.6791,-107.0719C563.9325,-100.4908 603.8885,-89.1825 635.1481,-80.3354"/>
<polygon fill="#191970" stroke="#191970" points="636.2907,-83.6496 644.9596,-77.5586 634.3844,-76.9142 636.2907,-83.6496"/>
</g>
<!-- Node12 -->
<g id="node12" class="node">
<title>Node12</title>
<g id="a_node12"><a xlink:href="../../dc/db4/classerhic_1_1EventDis.html#a46b5447d280d08f297e5265f97d9c56c" target="_top" xlink:title="erhic::EventDis::GetX">
<polygon fill="none" stroke="#000000" points="618.5,-18.5 618.5,-38.5 742.5,-38.5 742.5,-18.5 618.5,-18.5"/>
<text text-anchor="middle" x="680.5" y="-25.5" font-family="FreeSans" font-size="10.00" fill="#000000">erhic::EventDis::GetX</text>
</a>
</g>
</g>
<!-- Node5&#45;&gt;Node12 -->
<g id="edge11" class="edge">
<title>Node5&#45;&gt;Node12</title>
<path fill="none" stroke="#191970" d="M533.4042,-102.2923C550.4401,-88.1538 583.2356,-62.645 615,-47.5 619.3151,-45.4426 623.8984,-43.5615 628.5579,-41.8524"/>
<polygon fill="#191970" stroke="#191970" points="629.8271,-45.1177 638.1676,-38.5842 627.5732,-38.4905 629.8271,-45.1177"/>
</g>
<!-- Node7 -->
<g id="node7" class="node">
<title>Node7</title>
<g id="a_node7"><a xlink:href="../../d8/dc7/classkdfinder_1_1TVector.html#ac9649c7577f12a7502ed523260f4ee90" target="_top" xlink:title="kdfinder::TVector::mag">
<polygon fill="none" stroke="#000000" points="786,-198.5 786,-218.5 918,-218.5 918,-198.5 786,-198.5"/>
<text text-anchor="middle" x="852" y="-205.5" font-family="FreeSans" font-size="10.00" fill="#000000">kdfinder::TVector::mag</text>
</a>
</g>
</g>
<!-- Node6&#45;&gt;Node7 -->
<g id="edge6" class="edge">
<title>Node6&#45;&gt;Node7</title>
<path fill="none" stroke="#191970" d="M722.0154,-208.5C738.1585,-208.5 757.1819,-208.5 775.6204,-208.5"/>
<polygon fill="#191970" stroke="#191970" points="775.7818,-212.0001 785.7818,-208.5 775.7818,-205.0001 775.7818,-212.0001"/>
</g>
<!-- Node9 -->
<g id="node9" class="node">
<title>Node9</title>
<g id="a_node9"><a xlink:href="../../de/d3c/classerhic_1_1ParticleMCbase.html#a0c85145c4eda948f67bc96fa78b4e69e" target="_top" xlink:title="erhic::ParticleMCbase::Id">
<polygon fill="none" stroke="#000000" points="782,-153.5 782,-173.5 922,-173.5 922,-153.5 782,-153.5"/>
<text text-anchor="middle" x="852" y="-160.5" font-family="FreeSans" font-size="10.00" fill="#000000">erhic::ParticleMCbase::Id</text>
</a>
</g>
</g>
<!-- Node8&#45;&gt;Node9 -->
<g id="edge8" class="edge">
<title>Node8&#45;&gt;Node9</title>
<path fill="none" stroke="#191970" d="M743.3864,-163.5C752.5832,-163.5 762.1586,-163.5 771.6455,-163.5"/>
<polygon fill="#191970" stroke="#191970" points="771.883,-167.0001 781.883,-163.5 771.8829,-160.0001 771.883,-167.0001"/>
</g>
</g>
</svg>
