<?xml version="1.0" encoding="UTF-8" standalone="no"?>
<!DOCTYPE svg PUBLIC "-//W3C//DTD SVG 1.1//EN"
 "http://www.w3.org/Graphics/SVG/1.1/DTD/svg11.dtd">
<!-- Generated by graphviz version 2.40.1 (20161225.0304)
 -->
<!-- Title: fun4all_acts/blob/master/Core/include/Acts/Propagator/MaterialInteractor.hpp Pages: 1 -->
<svg width="3745pt" height="320pt"
 viewBox="0.00 0.00 3745.00 320.00" xmlns="http://www.w3.org/2000/svg" xmlns:xlink="http://www.w3.org/1999/xlink">
<g id="graph0" class="graph" transform="scale(1 1) rotate(0) translate(4 316)">
<title>fun4all_acts/blob/master/Core/include/Acts/Propagator/MaterialInteractor.hpp</title>
<!-- Node1 -->
<g id="node1" class="node">
<title>Node1</title>
<polygon fill="#bfbfbf" stroke="#000000" points="2297.5,-267.5 2297.5,-311.5 2465.5,-311.5 2465.5,-267.5 2297.5,-267.5"/>
<text text-anchor="start" x="2305.5" y="-298.5" font-family="FreeSans" font-size="10.00" fill="#000000">fun4all_acts/blob/master</text>
<text text-anchor="start" x="2305.5" y="-286.5" font-family="FreeSans" font-size="10.00" fill="#000000">/Core/include/Acts/Propagator</text>
<text text-anchor="middle" x="2381.5" y="-274.5" font-family="FreeSans" font-size="10.00" fill="#000000">/MaterialInteractor.hpp</text>
</g>
<!-- Node2 -->
<g id="node2" class="node">
<title>Node2</title>
<g id="a_node2"><a xlink:href="../../d1/df0/SurfaceMaterialMapper_8hpp.html" target="_top" xlink:title="fun4all_acts/blob/master\l/Core/include/Acts/Material\l/SurfaceMaterialMapper.hpp">
<polygon fill="none" stroke="#000000" points="438.5,-180.5 438.5,-224.5 598.5,-224.5 598.5,-180.5 438.5,-180.5"/>
<text text-anchor="start" x="446.5" y="-211.5" font-family="FreeSans" font-size="10.00" fill="#000000">fun4all_acts/blob/master</text>
<text text-anchor="start" x="446.5" y="-199.5" font-family="FreeSans" font-size="10.00" fill="#000000">/Core/include/Acts/Material</text>
<text text-anchor="middle" x="518.5" y="-187.5" font-family="FreeSans" font-size="10.00" fill="#000000">/SurfaceMaterialMapper.hpp</text>
</a>
</g>
</g>
<!-- Node1&#45;&gt;Node2 -->
<g id="edge1" class="edge">
<title>Node1&#45;&gt;Node2</title>
<path fill="none" stroke="#191970" d="M2287.0656,-287.0262C2051.2081,-280.5802 1417.3522,-261.6122 889.5,-231 789.2163,-225.1842 673.877,-215.9183 598.7731,-209.5394"/>
<polygon fill="#191970" stroke="#191970" points="2287.2274,-290.5318 2297.319,-287.3053 2287.418,-283.5344 2287.2274,-290.5318"/>
</g>
<!-- Node8 -->
<g id="node8" class="node">
<title>Node8</title>
<g id="a_node8"><a xlink:href="../../dd/d6a/VolumeMaterialMapper_8hpp.html" target="_top" xlink:title="fun4all_acts/blob/master\l/Core/include/Acts/Material\l/VolumeMaterialMapper.hpp">
<polygon fill="none" stroke="#000000" points="899,-180.5 899,-224.5 1058,-224.5 1058,-180.5 899,-180.5"/>
<text text-anchor="start" x="907" y="-211.5" font-family="FreeSans" font-size="10.00" fill="#000000">fun4all_acts/blob/master</text>
<text text-anchor="start" x="907" y="-199.5" font-family="FreeSans" font-size="10.00" fill="#000000">/Core/include/Acts/Material</text>
<text text-anchor="middle" x="978.5" y="-187.5" font-family="FreeSans" font-size="10.00" fill="#000000">/VolumeMaterialMapper.hpp</text>
</a>
</g>
</g>
<!-- Node1&#45;&gt;Node8 -->
<g id="edge8" class="edge">
<title>Node1&#45;&gt;Node8</title>
<path fill="none" stroke="#191970" d="M2287.1563,-285.6815C2097.5977,-277.7384 1657.0177,-257.9105 1287.5,-231 1209.4554,-225.3163 1120.4988,-216.9075 1058.1372,-210.6956"/>
<polygon fill="#191970" stroke="#191970" points="2287.2249,-289.1874 2297.3623,-286.1079 2287.5171,-282.1935 2287.2249,-289.1874"/>
</g>
<!-- Node11 -->
<g id="node11" class="node">
<title>Node11</title>
<g id="a_node11"><a xlink:href="../../d8/dfd/MMEventAction_8hpp.html" target="_top" xlink:title="fun4all_acts/blob/master\l/Examples/Algorithms/Geant4\l/include/ACTFW/Plugins/Geant4\l/MMEventAction.hpp">
<polygon fill="none" stroke="#000000" points="1297,-174.5 1297,-230.5 1474,-230.5 1474,-174.5 1297,-174.5"/>
<text text-anchor="start" x="1305" y="-217.5" font-family="FreeSans" font-size="10.00" fill="#000000">fun4all_acts/blob/master</text>
<text text-anchor="start" x="1305" y="-205.5" font-family="FreeSans" font-size="10.00" fill="#000000">/Examples/Algorithms/Geant4</text>
<text text-anchor="start" x="1305" y="-193.5" font-family="FreeSans" font-size="10.00" fill="#000000">/include/ACTFW/Plugins/Geant4</text>
<text text-anchor="middle" x="1385.5" y="-181.5" font-family="FreeSans" font-size="10.00" fill="#000000">/MMEventAction.hpp</text>
</a>
</g>
</g>
<!-- Node1&#45;&gt;Node11 -->
<g id="edge11" class="edge">
<title>Node1&#45;&gt;Node11</title>
<path fill="none" stroke="#191970" d="M2287.276,-285.1082C2136.152,-277.5202 1830.3626,-259.9274 1572.5,-231 1540.3541,-227.3938 1505.2611,-222.3434 1474.248,-217.4941"/>
<polygon fill="#191970" stroke="#191970" points="2287.2838,-288.6129 2297.4457,-285.6155 2287.6325,-281.6216 2287.2838,-288.6129"/>
</g>
<!-- Node15 -->
<g id="node15" class="node">
<title>Node15</title>
<g id="a_node15"><a xlink:href="../../d1/d92/MMSteppingAction_8hpp.html" target="_top" xlink:title="fun4all_acts/blob/master\l/Examples/Algorithms/Geant4\l/include/ACTFW/Plugins/Geant4\l/MMSteppingAction.hpp">
<polygon fill="none" stroke="#000000" points="1582,-174.5 1582,-230.5 1759,-230.5 1759,-174.5 1582,-174.5"/>
<text text-anchor="start" x="1590" y="-217.5" font-family="FreeSans" font-size="10.00" fill="#000000">fun4all_acts/blob/master</text>
<text text-anchor="start" x="1590" y="-205.5" font-family="FreeSans" font-size="10.00" fill="#000000">/Examples/Algorithms/Geant4</text>
<text text-anchor="start" x="1590" y="-193.5" font-family="FreeSans" font-size="10.00" fill="#000000">/include/ACTFW/Plugins/Geant4</text>
<text text-anchor="middle" x="1670.5" y="-181.5" font-family="FreeSans" font-size="10.00" fill="#000000">/MMSteppingAction.hpp</text>
</a>
</g>
</g>
<!-- Node1&#45;&gt;Node15 -->
<g id="edge15" class="edge">
<title>Node1&#45;&gt;Node15</title>
<path fill="none" stroke="#191970" d="M2287.0153,-284.003C2170.0811,-276.312 1965.1383,-259.9266 1791.5,-231 1780.9622,-229.2445 1769.9757,-227.1023 1759.1079,-224.7887"/>
<polygon fill="#191970" stroke="#191970" points="2286.8063,-287.4968 2297.0124,-284.6535 2287.2608,-280.5115 2286.8063,-287.4968"/>
</g>
<!-- Node17 -->
<g id="node17" class="node">
<title>Node17</title>
<g id="a_node17"><a xlink:href="../../d6/dbb/GeantinoRecording_8hpp.html" target="_top" xlink:title="fun4all_acts/blob/master\l/Examples/Algorithms/MaterialMapping\l/include/ACTFW/MaterialMapping\l/GeantinoRecording.hpp">
<polygon fill="none" stroke="#000000" points="1800.5,-174.5 1800.5,-230.5 2016.5,-230.5 2016.5,-174.5 1800.5,-174.5"/>
<text text-anchor="start" x="1808.5" y="-217.5" font-family="FreeSans" font-size="10.00" fill="#000000">fun4all_acts/blob/master</text>
<text text-anchor="start" x="1808.5" y="-205.5" font-family="FreeSans" font-size="10.00" fill="#000000">/Examples/Algorithms/MaterialMapping</text>
<text text-anchor="start" x="1808.5" y="-193.5" font-family="FreeSans" font-size="10.00" fill="#000000">/include/ACTFW/MaterialMapping</text>
<text text-anchor="middle" x="1908.5" y="-181.5" font-family="FreeSans" font-size="10.00" fill="#000000">/GeantinoRecording.hpp</text>
</a>
</g>
</g>
<!-- Node1&#45;&gt;Node17 -->
<g id="edge19" class="edge">
<title>Node1&#45;&gt;Node17</title>
<path fill="none" stroke="#191970" d="M2287.4174,-276.036C2215.4417,-265.2535 2113.8661,-248.9958 2025.5,-231 2022.632,-230.4159 2019.7277,-229.8105 2016.7998,-229.1878"/>
<polygon fill="#191970" stroke="#191970" points="2286.9657,-279.5072 2297.3726,-277.5207 2287.9983,-272.5838 2286.9657,-279.5072"/>
</g>
<!-- Node19 -->
<g id="node19" class="node">
<title>Node19</title>
<g id="a_node19"><a xlink:href="../../dd/dc4/PropagationAlgorithm_8hpp.html" target="_top" xlink:title="fun4all_acts/blob/master\l/Examples/Algorithms/Propagation\l/include/ACTFW/Propagation/Propagation\lAlgorithm.hpp">
<polygon fill="none" stroke="#000000" points="2494.5,-174.5 2494.5,-230.5 2718.5,-230.5 2718.5,-174.5 2494.5,-174.5"/>
<text text-anchor="start" x="2502.5" y="-217.5" font-family="FreeSans" font-size="10.00" fill="#000000">fun4all_acts/blob/master</text>
<text text-anchor="start" x="2502.5" y="-205.5" font-family="FreeSans" font-size="10.00" fill="#000000">/Examples/Algorithms/Propagation</text>
<text text-anchor="start" x="2502.5" y="-193.5" font-family="FreeSans" font-size="10.00" fill="#000000">/include/ACTFW/Propagation/Propagation</text>
<text text-anchor="middle" x="2606.5" y="-181.5" font-family="FreeSans" font-size="10.00" fill="#000000">Algorithm.hpp</text>
</a>
</g>
</g>
<!-- Node1&#45;&gt;Node19 -->
<g id="edge22" class="edge">
<title>Node1&#45;&gt;Node19</title>
<path fill="none" stroke="#191970" d="M2447.917,-263.8187C2474.8892,-253.3895 2506.1338,-241.3082 2533.7221,-230.6408"/>
<polygon fill="#191970" stroke="#191970" points="2446.6326,-260.5628 2438.5679,-267.4338 2449.1572,-267.0917 2446.6326,-260.5628"/>
</g>
<!-- Node23 -->
<g id="node23" class="node">
<title>Node23</title>
<g id="a_node23"><a xlink:href="../../d4/d9d/RootMaterialTrackReader_8hpp.html" target="_top" xlink:title="fun4all_acts/blob/master\l/Examples/Io/Root/include\l/ACTFW/Io/Root/RootMaterialTrack\lReader.hpp">
<polygon fill="none" stroke="#000000" points="2035,-174.5 2035,-230.5 2224,-230.5 2224,-174.5 2035,-174.5"/>
<text text-anchor="start" x="2043" y="-217.5" font-family="FreeSans" font-size="10.00" fill="#000000">fun4all_acts/blob/master</text>
<text text-anchor="start" x="2043" y="-205.5" font-family="FreeSans" font-size="10.00" fill="#000000">/Examples/Io/Root/include</text>
<text text-anchor="start" x="2043" y="-193.5" font-family="FreeSans" font-size="10.00" fill="#000000">/ACTFW/Io/Root/RootMaterialTrack</text>
<text text-anchor="middle" x="2129.5" y="-181.5" font-family="FreeSans" font-size="10.00" fill="#000000">Reader.hpp</text>
</a>
</g>
</g>
<!-- Node1&#45;&gt;Node23 -->
<g id="edge29" class="edge">
<title>Node1&#45;&gt;Node23</title>
<path fill="none" stroke="#191970" d="M2307.9033,-264.0916C2277.5157,-253.6007 2242.18,-241.4014 2211.0113,-230.6408"/>
<polygon fill="#191970" stroke="#191970" points="2306.9892,-267.4787 2317.584,-267.4338 2309.2737,-260.8619 2306.9892,-267.4787"/>
</g>
<!-- Node25 -->
<g id="node25" class="node">
<title>Node25</title>
<g id="a_node25"><a xlink:href="../../d8/daa/RootMaterialTrackWriter_8hpp.html" target="_top" xlink:title="fun4all_acts/blob/master\l/Examples/Io/Root/include\l/ACTFW/Io/Root/RootMaterialTrack\lWriter.hpp">
<polygon fill="none" stroke="#000000" points="2287,-174.5 2287,-230.5 2476,-230.5 2476,-174.5 2287,-174.5"/>
<text text-anchor="start" x="2295" y="-217.5" font-family="FreeSans" font-size="10.00" fill="#000000">fun4all_acts/blob/master</text>
<text text-anchor="start" x="2295" y="-205.5" font-family="FreeSans" font-size="10.00" fill="#000000">/Examples/Io/Root/include</text>
<text text-anchor="start" x="2295" y="-193.5" font-family="FreeSans" font-size="10.00" fill="#000000">/ACTFW/Io/Root/RootMaterialTrack</text>
<text text-anchor="middle" x="2381.5" y="-181.5" font-family="FreeSans" font-size="10.00" fill="#000000">Writer.hpp</text>
</a>
</g>
</g>
<!-- Node1&#45;&gt;Node25 -->
<g id="edge32" class="edge">
<title>Node1&#45;&gt;Node25</title>
<path fill="none" stroke="#191970" d="M2381.5,-256.986C2381.5,-248.3663 2381.5,-239.1307 2381.5,-230.7577"/>
<polygon fill="#191970" stroke="#191970" points="2378.0001,-257.0953 2381.5,-267.0953 2385.0001,-257.0954 2378.0001,-257.0953"/>
</g>
<!-- Node27 -->
<g id="node27" class="node">
<title>Node27</title>
<g id="a_node27"><a xlink:href="../../d7/d97/RootVertexAndTracksReader_8hpp.html" target="_top" xlink:title="fun4all_acts/blob/master\l/Examples/Io/Root/include\l/ACTFW/Io/Root/RootVertexAndTracks\lReader.hpp">
<polygon fill="none" stroke="#000000" points="2736,-174.5 2736,-230.5 2941,-230.5 2941,-174.5 2736,-174.5"/>
<text text-anchor="start" x="2744" y="-217.5" font-family="FreeSans" font-size="10.00" fill="#000000">fun4all_acts/blob/master</text>
<text text-anchor="start" x="2744" y="-205.5" font-family="FreeSans" font-size="10.00" fill="#000000">/Examples/Io/Root/include</text>
<text text-anchor="start" x="2744" y="-193.5" font-family="FreeSans" font-size="10.00" fill="#000000">/ACTFW/Io/Root/RootVertexAndTracks</text>
<text text-anchor="middle" x="2838.5" y="-181.5" font-family="FreeSans" font-size="10.00" fill="#000000">Reader.hpp</text>
</a>
</g>
</g>
<!-- Node1&#45;&gt;Node27 -->
<g id="edge37" class="edge">
<title>Node1&#45;&gt;Node27</title>
<path fill="none" stroke="#191970" d="M2475.8665,-275.7319C2545.6579,-265.0195 2642.8714,-248.9857 2727.5,-231 2730.2246,-230.421 2732.9831,-229.82 2735.7638,-229.2013"/>
<polygon fill="#191970" stroke="#191970" points="2475.1301,-272.3037 2465.7731,-277.2734 2476.1869,-279.2235 2475.1301,-272.3037"/>
</g>
<!-- Node30 -->
<g id="node30" class="node">
<title>Node30</title>
<g id="a_node30"><a xlink:href="../../d3/ddf/DirectNavigatorTests_8cpp.html" target="_top" xlink:title="fun4all_acts/blob/master\l/Tests/UnitTests/Core/Propagator\l/DirectNavigatorTests.cpp">
<polygon fill="none" stroke="#000000" points="2959,-180.5 2959,-224.5 3140,-224.5 3140,-180.5 2959,-180.5"/>
<text text-anchor="start" x="2967" y="-211.5" font-family="FreeSans" font-size="10.00" fill="#000000">fun4all_acts/blob/master</text>
<text text-anchor="start" x="2967" y="-199.5" font-family="FreeSans" font-size="10.00" fill="#000000">/Tests/UnitTests/Core/Propagator</text>
<text text-anchor="middle" x="3049.5" y="-187.5" font-family="FreeSans" font-size="10.00" fill="#000000">/DirectNavigatorTests.cpp</text>
</a>
</g>
</g>
<!-- Node1&#45;&gt;Node30 -->
<g id="edge40" class="edge">
<title>Node1&#45;&gt;Node30</title>
<path fill="none" stroke="#191970" d="M2475.9328,-284.8401C2589.249,-278.0857 2784.6074,-262.7352 2949.5,-231 2958.8067,-229.2088 2968.5019,-226.9537 2978.0349,-224.5002"/>
<polygon fill="#191970" stroke="#191970" points="2475.678,-281.3489 2465.9001,-285.4284 2476.0878,-288.3369 2475.678,-281.3489"/>
</g>
<!-- Node31 -->
<g id="node31" class="node">
<title>Node31</title>
<g id="a_node31"><a xlink:href="../../db/d42/ExtrapolatorTests_8cpp.html" target="_top" xlink:title="fun4all_acts/blob/master\l/Tests/UnitTests/Core/Propagator\l/ExtrapolatorTests.cpp">
<polygon fill="none" stroke="#000000" points="3158,-180.5 3158,-224.5 3339,-224.5 3339,-180.5 3158,-180.5"/>
<text text-anchor="start" x="3166" y="-211.5" font-family="FreeSans" font-size="10.00" fill="#000000">fun4all_acts/blob/master</text>
<text text-anchor="start" x="3166" y="-199.5" font-family="FreeSans" font-size="10.00" fill="#000000">/Tests/UnitTests/Core/Propagator</text>
<text text-anchor="middle" x="3248.5" y="-187.5" font-family="FreeSans" font-size="10.00" fill="#000000">/ExtrapolatorTests.cpp</text>
</a>
</g>
</g>
<!-- Node1&#45;&gt;Node31 -->
<g id="edge41" class="edge">
<title>Node1&#45;&gt;Node31</title>
<path fill="none" stroke="#191970" d="M2475.7297,-284.7351C2651.4144,-275.4513 3022.6624,-253.8399 3149.5,-231 3159.0053,-229.2884 3168.9055,-227.0307 3178.6111,-224.5336"/>
<polygon fill="#191970" stroke="#191970" points="2475.5247,-281.241 2465.7225,-285.2618 2475.8926,-288.2313 2475.5247,-281.241"/>
</g>
<!-- Node32 -->
<g id="node32" class="node">
<title>Node32</title>
<g id="a_node32"><a xlink:href="../../d9/dfe/MaterialCollectionTests_8cpp.html" target="_top" xlink:title="fun4all_acts/blob/master\l/Tests/UnitTests/Core/Propagator\l/MaterialCollectionTests.cpp">
<polygon fill="none" stroke="#000000" points="3357,-180.5 3357,-224.5 3538,-224.5 3538,-180.5 3357,-180.5"/>
<text text-anchor="start" x="3365" y="-211.5" font-family="FreeSans" font-size="10.00" fill="#000000">fun4all_acts/blob/master</text>
<text text-anchor="start" x="3365" y="-199.5" font-family="FreeSans" font-size="10.00" fill="#000000">/Tests/UnitTests/Core/Propagator</text>
<text text-anchor="middle" x="3447.5" y="-187.5" font-family="FreeSans" font-size="10.00" fill="#000000">/MaterialCollectionTests.cpp</text>
</a>
</g>
</g>
<!-- Node1&#45;&gt;Node32 -->
<g id="edge42" class="edge">
<title>Node1&#45;&gt;Node32</title>
<path fill="none" stroke="#191970" d="M2475.5851,-286.4441C2684.6742,-279.2241 3182.5628,-259.546 3348.5,-231 3358.1946,-229.3322 3368.2932,-227.0656 3378.1747,-224.5344"/>
<polygon fill="#191970" stroke="#191970" points="2475.4214,-282.9475 2465.5474,-286.7888 2475.6617,-289.9434 2475.4214,-282.9475"/>
</g>
<!-- Node33 -->
<g id="node33" class="node">
<title>Node33</title>
<g id="a_node33"><a xlink:href="../../d9/d8c/StepperTests_8cpp.html" target="_top" xlink:title="fun4all_acts/blob/master\l/Tests/UnitTests/Core/Propagator\l/StepperTests.cpp">
<polygon fill="none" stroke="#000000" points="3556,-180.5 3556,-224.5 3737,-224.5 3737,-180.5 3556,-180.5"/>
<text text-anchor="start" x="3564" y="-211.5" font-family="FreeSans" font-size="10.00" fill="#000000">fun4all_acts/blob/master</text>
<text text-anchor="start" x="3564" y="-199.5" font-family="FreeSans" font-size="10.00" fill="#000000">/Tests/UnitTests/Core/Propagator</text>
<text text-anchor="middle" x="3646.5" y="-187.5" font-family="FreeSans" font-size="10.00" fill="#000000">/StepperTests.cpp</text>
</a>
</g>
</g>
<!-- Node1&#45;&gt;Node33 -->
<g id="edge43" class="edge">
<title>Node1&#45;&gt;Node33</title>
<path fill="none" stroke="#191970" d="M2475.5713,-287.571C2714.8137,-282.2174 3342.0292,-265.259 3547.5,-231 3557.2913,-229.3675 3567.4902,-227.1032 3577.4599,-224.558"/>
<polygon fill="#191970" stroke="#191970" points="2475.4246,-284.0733 2465.5048,-287.7945 2475.58,-291.0716 2475.4246,-284.0733"/>
</g>
<!-- Node3 -->
<g id="node3" class="node">
<title>Node3</title>
<g id="a_node3"><a xlink:href="../../dd/dd8/SurfaceMaterialMapper_8cpp.html" target="_top" xlink:title="fun4all_acts/blob/master\l/Core/src/Material/SurfaceMaterial\lMapper.cpp">
<polygon fill="none" stroke="#000000" points="203,-87.5 203,-131.5 392,-131.5 392,-87.5 203,-87.5"/>
<text text-anchor="start" x="211" y="-118.5" font-family="FreeSans" font-size="10.00" fill="#000000">fun4all_acts/blob/master</text>
<text text-anchor="start" x="211" y="-106.5" font-family="FreeSans" font-size="10.00" fill="#000000">/Core/src/Material/SurfaceMaterial</text>
<text text-anchor="middle" x="297.5" y="-94.5" font-family="FreeSans" font-size="10.00" fill="#000000">Mapper.cpp</text>
</a>
</g>
</g>
<!-- Node2&#45;&gt;Node3 -->
<g id="edge2" class="edge">
<title>Node2&#45;&gt;Node3</title>
<path fill="none" stroke="#191970" d="M456.848,-176.5559C423.192,-162.393 381.9667,-145.0448 349.8805,-131.5425"/>
<polygon fill="#191970" stroke="#191970" points="455.5514,-179.8075 466.1261,-180.4603 458.2665,-173.3555 455.5514,-179.8075"/>
</g>
<!-- Node4 -->
<g id="node4" class="node">
<title>Node4</title>
<g id="a_node4"><a xlink:href="../../d7/d5e/MaterialMapping_8hpp.html" target="_top" xlink:title="fun4all_acts/blob/master\l/Examples/Algorithms/MaterialMapping\l/include/ACTFW/MaterialMapping\l/MaterialMapping.hpp">
<polygon fill="none" stroke="#000000" points="410.5,-81.5 410.5,-137.5 626.5,-137.5 626.5,-81.5 410.5,-81.5"/>
<text text-anchor="start" x="418.5" y="-124.5" font-family="FreeSans" font-size="10.00" fill="#000000">fun4all_acts/blob/master</text>
<text text-anchor="start" x="418.5" y="-112.5" font-family="FreeSans" font-size="10.00" fill="#000000">/Examples/Algorithms/MaterialMapping</text>
<text text-anchor="start" x="418.5" y="-100.5" font-family="FreeSans" font-size="10.00" fill="#000000">/include/ACTFW/MaterialMapping</text>
<text text-anchor="middle" x="518.5" y="-88.5" font-family="FreeSans" font-size="10.00" fill="#000000">/MaterialMapping.hpp</text>
</a>
</g>
</g>
<!-- Node2&#45;&gt;Node4 -->
<g id="edge3" class="edge">
<title>Node2&#45;&gt;Node4</title>
<path fill="none" stroke="#191970" d="M518.5,-170.3192C518.5,-159.718 518.5,-148.0165 518.5,-137.7325"/>
<polygon fill="#191970" stroke="#191970" points="515.0001,-170.4603 518.5,-180.4603 522.0001,-170.4603 515.0001,-170.4603"/>
</g>
<!-- Node6 -->
<g id="node6" class="node">
<title>Node6</title>
<g id="a_node6"><a xlink:href="../../de/d20/MaterialMappingBase_8cpp.html" target="_top" xlink:title="fun4all_acts/blob/master\l/Examples/Run/Common/src\l/MaterialMappingBase.cpp">
<polygon fill="none" stroke="#000000" points="1817,-.5 1817,-44.5 1976,-44.5 1976,-.5 1817,-.5"/>
<text text-anchor="start" x="1825" y="-31.5" font-family="FreeSans" font-size="10.00" fill="#000000">fun4all_acts/blob/master</text>
<text text-anchor="start" x="1825" y="-19.5" font-family="FreeSans" font-size="10.00" fill="#000000">/Examples/Run/Common/src</text>
<text text-anchor="middle" x="1896.5" y="-7.5" font-family="FreeSans" font-size="10.00" fill="#000000">/MaterialMappingBase.cpp</text>
</a>
</g>
</g>
<!-- Node2&#45;&gt;Node6 -->
<g id="edge6" class="edge">
<title>Node2&#45;&gt;Node6</title>
<path fill="none" stroke="#191970" d="M579.6355,-175.8735C598.8148,-165.7435 619.2102,-152.9733 635.5,-138 657.916,-117.3957 647.0067,-96.004 673.5,-81 723.2386,-52.8314 1553.0145,-30.6945 1816.7237,-24.3435"/>
<polygon fill="#191970" stroke="#191970" points="577.9387,-172.8102 570.6358,-180.486 581.1314,-179.0397 577.9387,-172.8102"/>
</g>
<!-- Node7 -->
<g id="node7" class="node">
<title>Node7</title>
<g id="a_node7"><a xlink:href="../../d3/df7/SurfaceMaterialMapperTests_8cpp.html" target="_top" xlink:title="fun4all_acts/blob/master\l/Tests/UnitTests/Core/Material\l/SurfaceMaterialMapperTests.cpp">
<polygon fill="none" stroke="#000000" points="0,-87.5 0,-131.5 185,-131.5 185,-87.5 0,-87.5"/>
<text text-anchor="start" x="8" y="-118.5" font-family="FreeSans" font-size="10.00" fill="#000000">fun4all_acts/blob/master</text>
<text text-anchor="start" x="8" y="-106.5" font-family="FreeSans" font-size="10.00" fill="#000000">/Tests/UnitTests/Core/Material</text>
<text text-anchor="middle" x="92.5" y="-94.5" font-family="FreeSans" font-size="10.00" fill="#000000">/SurfaceMaterialMapperTests.cpp</text>
</a>
</g>
</g>
<!-- Node2&#45;&gt;Node7 -->
<g id="edge7" class="edge">
<title>Node2&#45;&gt;Node7</title>
<path fill="none" stroke="#191970" d="M428.4341,-186.6048C362.9668,-174.5705 272.377,-156.9244 193.5,-138 185.2617,-136.0235 176.684,-133.8246 168.1618,-131.5495"/>
<polygon fill="#191970" stroke="#191970" points="427.8459,-190.0552 438.3127,-188.4132 429.1065,-183.1696 427.8459,-190.0552"/>
</g>
<!-- Node5 -->
<g id="node5" class="node">
<title>Node5</title>
<g id="a_node5"><a xlink:href="../../d3/d9d/MaterialMapping_8cpp.html" target="_top" xlink:title="fun4all_acts/blob/master\l/Examples/Algorithms/MaterialMapping\l/src/MaterialMapping.cpp">
<polygon fill="none" stroke="#000000" points="410.5,-.5 410.5,-44.5 626.5,-44.5 626.5,-.5 410.5,-.5"/>
<text text-anchor="start" x="418.5" y="-31.5" font-family="FreeSans" font-size="10.00" fill="#000000">fun4all_acts/blob/master</text>
<text text-anchor="start" x="418.5" y="-19.5" font-family="FreeSans" font-size="10.00" fill="#000000">/Examples/Algorithms/MaterialMapping</text>
<text text-anchor="middle" x="518.5" y="-7.5" font-family="FreeSans" font-size="10.00" fill="#000000">/src/MaterialMapping.cpp</text>
</a>
</g>
</g>
<!-- Node4&#45;&gt;Node5 -->
<g id="edge4" class="edge">
<title>Node4&#45;&gt;Node5</title>
<path fill="none" stroke="#191970" d="M518.5,-71.4015C518.5,-62.2633 518.5,-52.8021 518.5,-44.6648"/>
<polygon fill="#191970" stroke="#191970" points="515.0001,-71.4937 518.5,-81.4938 522.0001,-71.4938 515.0001,-71.4937"/>
</g>
<!-- Node4&#45;&gt;Node6 -->
<g id="edge5" class="edge">
<title>Node4&#45;&gt;Node6</title>
<path fill="none" stroke="#191970" d="M636.665,-81.5509C637.9489,-81.3605 639.2276,-81.1767 640.5,-81 869.2837,-49.2219 1578.1236,-30.0062 1816.9898,-24.2993"/>
<polygon fill="#191970" stroke="#191970" points="636.0595,-78.1031 626.7346,-83.1325 637.1606,-85.0159 636.0595,-78.1031"/>
</g>
<!-- Node9 -->
<g id="node9" class="node">
<title>Node9</title>
<g id="a_node9"><a xlink:href="../../de/de9/VolumeMaterialMapper_8cpp.html" target="_top" xlink:title="fun4all_acts/blob/master\l/Core/src/Material/VolumeMaterial\lMapper.cpp">
<polygon fill="none" stroke="#000000" points="884.5,-87.5 884.5,-131.5 1072.5,-131.5 1072.5,-87.5 884.5,-87.5"/>
<text text-anchor="start" x="892.5" y="-118.5" font-family="FreeSans" font-size="10.00" fill="#000000">fun4all_acts/blob/master</text>
<text text-anchor="start" x="892.5" y="-106.5" font-family="FreeSans" font-size="10.00" fill="#000000">/Core/src/Material/VolumeMaterial</text>
<text text-anchor="middle" x="978.5" y="-94.5" font-family="FreeSans" font-size="10.00" fill="#000000">Mapper.cpp</text>
</a>
</g>
</g>
<!-- Node8&#45;&gt;Node9 -->
<g id="edge9" class="edge">
<title>Node8&#45;&gt;Node9</title>
<path fill="none" stroke="#191970" d="M978.5,-170.2412C978.5,-157.5215 978.5,-143.2283 978.5,-131.7038"/>
<polygon fill="#191970" stroke="#191970" points="975.0001,-170.4603 978.5,-180.4603 982.0001,-170.4603 975.0001,-170.4603"/>
</g>
<!-- Node10 -->
<g id="node10" class="node">
<title>Node10</title>
<g id="a_node10"><a xlink:href="../../da/ded/VolumeMaterialMapperTests_8cpp.html" target="_top" xlink:title="fun4all_acts/blob/master\l/Tests/UnitTests/Core/Material\l/VolumeMaterialMapperTests.cpp">
<polygon fill="none" stroke="#000000" points="682.5,-87.5 682.5,-131.5 866.5,-131.5 866.5,-87.5 682.5,-87.5"/>
<text text-anchor="start" x="690.5" y="-118.5" font-family="FreeSans" font-size="10.00" fill="#000000">fun4all_acts/blob/master</text>
<text text-anchor="start" x="690.5" y="-106.5" font-family="FreeSans" font-size="10.00" fill="#000000">/Tests/UnitTests/Core/Material</text>
<text text-anchor="middle" x="774.5" y="-94.5" font-family="FreeSans" font-size="10.00" fill="#000000">/VolumeMaterialMapperTests.cpp</text>
</a>
</g>
</g>
<!-- Node8&#45;&gt;Node10 -->
<g id="edge10" class="edge">
<title>Node8&#45;&gt;Node10</title>
<path fill="none" stroke="#191970" d="M920.7923,-176.1921C889.8735,-162.0967 852.2161,-144.9294 822.8512,-131.5425"/>
<polygon fill="#191970" stroke="#191970" points="919.6039,-179.4968 930.1548,-180.4603 922.5076,-173.1275 919.6039,-179.4968"/>
</g>
<!-- Node12 -->
<g id="node12" class="node">
<title>Node12</title>
<g id="a_node12"><a xlink:href="../../d2/d11/MMEventAction_8cpp.html" target="_top" xlink:title="fun4all_acts/blob/master\l/Examples/Algorithms/Geant4\l/src/MMEventAction.cpp">
<polygon fill="none" stroke="#000000" points="1278,-87.5 1278,-131.5 1447,-131.5 1447,-87.5 1278,-87.5"/>
<text text-anchor="start" x="1286" y="-118.5" font-family="FreeSans" font-size="10.00" fill="#000000">fun4all_acts/blob/master</text>
<text text-anchor="start" x="1286" y="-106.5" font-family="FreeSans" font-size="10.00" fill="#000000">/Examples/Algorithms/Geant4</text>
<text text-anchor="middle" x="1362.5" y="-94.5" font-family="FreeSans" font-size="10.00" fill="#000000">/src/MMEventAction.cpp</text>
</a>
</g>
</g>
<!-- Node11&#45;&gt;Node12 -->
<g id="edge12" class="edge">
<title>Node11&#45;&gt;Node12</title>
<path fill="none" stroke="#191970" d="M1376.073,-164.3819C1373.3192,-153.2474 1370.4015,-141.4497 1367.9799,-131.6577"/>
<polygon fill="#191970" stroke="#191970" points="1372.7383,-165.4773 1378.5368,-174.3446 1379.5336,-163.7967 1372.7383,-165.4773"/>
</g>
<!-- Node13 -->
<g id="node13" class="node">
<title>Node13</title>
<g id="a_node13"><a xlink:href="../../d5/d05/MMRunAction_8cpp.html" target="_top" xlink:title="fun4all_acts/blob/master\l/Examples/Algorithms/Geant4\l/src/MMRunAction.cpp">
<polygon fill="none" stroke="#000000" points="1091,-87.5 1091,-131.5 1260,-131.5 1260,-87.5 1091,-87.5"/>
<text text-anchor="start" x="1099" y="-118.5" font-family="FreeSans" font-size="10.00" fill="#000000">fun4all_acts/blob/master</text>
<text text-anchor="start" x="1099" y="-106.5" font-family="FreeSans" font-size="10.00" fill="#000000">/Examples/Algorithms/Geant4</text>
<text text-anchor="middle" x="1175.5" y="-94.5" font-family="FreeSans" font-size="10.00" fill="#000000">/src/MMRunAction.cpp</text>
</a>
</g>
</g>
<!-- Node11&#45;&gt;Node13 -->
<g id="edge13" class="edge">
<title>Node11&#45;&gt;Node13</title>
<path fill="none" stroke="#191970" d="M1312.962,-170.376C1284.0499,-157.5721 1251.496,-143.1554 1225.3279,-131.5666"/>
<polygon fill="#191970" stroke="#191970" points="1311.6475,-173.6217 1322.2083,-174.4708 1314.4821,-167.2213 1311.6475,-173.6217"/>
</g>
<!-- Node14 -->
<g id="node14" class="node">
<title>Node14</title>
<g id="a_node14"><a xlink:href="../../db/d15/GeantinoRecording_8cpp.html" target="_top" xlink:title="fun4all_acts/blob/master\l/Examples/Algorithms/MaterialMapping\l/src/GeantinoRecording.cpp">
<polygon fill="none" stroke="#000000" points="1652.5,-87.5 1652.5,-131.5 1868.5,-131.5 1868.5,-87.5 1652.5,-87.5"/>
<text text-anchor="start" x="1660.5" y="-118.5" font-family="FreeSans" font-size="10.00" fill="#000000">fun4all_acts/blob/master</text>
<text text-anchor="start" x="1660.5" y="-106.5" font-family="FreeSans" font-size="10.00" fill="#000000">/Examples/Algorithms/MaterialMapping</text>
<text text-anchor="middle" x="1760.5" y="-94.5" font-family="FreeSans" font-size="10.00" fill="#000000">/src/GeantinoRecording.cpp</text>
</a>
</g>
</g>
<!-- Node11&#45;&gt;Node14 -->
<g id="edge14" class="edge">
<title>Node11&#45;&gt;Node14</title>
<path fill="none" stroke="#191970" d="M1484.302,-177.9971C1542.4205,-163.5837 1615.3127,-145.5064 1671.6191,-131.5425"/>
<polygon fill="#191970" stroke="#191970" points="1483.2332,-174.656 1474.3698,-180.4603 1484.9182,-181.4502 1483.2332,-174.656"/>
</g>
<!-- Node15&#45;&gt;Node12 -->
<g id="edge16" class="edge">
<title>Node15&#45;&gt;Node12</title>
<path fill="none" stroke="#191970" d="M1572.1264,-173.121C1535.4993,-162.1473 1493.5853,-149.5483 1455.5,-138 1448.6318,-135.9174 1441.4809,-133.7408 1434.3305,-131.5588"/>
<polygon fill="#191970" stroke="#191970" points="1571.2287,-176.5056 1581.8124,-176.022 1573.2371,-169.7999 1571.2287,-176.5056"/>
</g>
<!-- Node15&#45;&gt;Node14 -->
<g id="edge18" class="edge">
<title>Node15&#45;&gt;Node14</title>
<path fill="none" stroke="#191970" d="M1704.7638,-167.0941C1716.2869,-155.1869 1728.8074,-142.2491 1739.0571,-131.6577"/>
<polygon fill="#191970" stroke="#191970" points="1702.1863,-164.7245 1697.7472,-174.3446 1707.2166,-169.5925 1702.1863,-164.7245"/>
</g>
<!-- Node16 -->
<g id="node16" class="node">
<title>Node16</title>
<g id="a_node16"><a xlink:href="../../dc/db5/MMSteppingAction_8cpp.html" target="_top" xlink:title="fun4all_acts/blob/master\l/Examples/Algorithms/Geant4\l/src/MMSteppingAction.cpp">
<polygon fill="none" stroke="#000000" points="1465,-87.5 1465,-131.5 1634,-131.5 1634,-87.5 1465,-87.5"/>
<text text-anchor="start" x="1473" y="-118.5" font-family="FreeSans" font-size="10.00" fill="#000000">fun4all_acts/blob/master</text>
<text text-anchor="start" x="1473" y="-106.5" font-family="FreeSans" font-size="10.00" fill="#000000">/Examples/Algorithms/Geant4</text>
<text text-anchor="middle" x="1549.5" y="-94.5" font-family="FreeSans" font-size="10.00" fill="#000000">/src/MMSteppingAction.cpp</text>
</a>
</g>
</g>
<!-- Node15&#45;&gt;Node16 -->
<g id="edge17" class="edge">
<title>Node15&#45;&gt;Node16</title>
<path fill="none" stroke="#191970" d="M1625.7462,-168.1025C1609.8974,-155.9211 1592.499,-142.5488 1578.3288,-131.6577"/>
<polygon fill="#191970" stroke="#191970" points="1623.8061,-171.0256 1633.8676,-174.3446 1628.0718,-165.4755 1623.8061,-171.0256"/>
</g>
<!-- Node17&#45;&gt;Node14 -->
<g id="edge20" class="edge">
<title>Node17&#45;&gt;Node14</title>
<path fill="none" stroke="#191970" d="M1855.0907,-168.9387C1835.3527,-156.5358 1813.4913,-142.7986 1795.7617,-131.6577"/>
<polygon fill="#191970" stroke="#191970" points="1853.3642,-171.9875 1863.6935,-174.3446 1857.0886,-166.0605 1853.3642,-171.9875"/>
</g>
<!-- Node18 -->
<g id="node18" class="node">
<title>Node18</title>
<g id="a_node18"><a xlink:href="../../d9/da3/GeantinoRecordingExample_8cpp.html" target="_top" xlink:title="fun4all_acts/blob/master\l/Examples/Run/MaterialMapping\l/GeantinoRecording/GeantinoRecording\lExample.cpp">
<polygon fill="none" stroke="#000000" points="2136,-81.5 2136,-137.5 2353,-137.5 2353,-81.5 2136,-81.5"/>
<text text-anchor="start" x="2144" y="-124.5" font-family="FreeSans" font-size="10.00" fill="#000000">fun4all_acts/blob/master</text>
<text text-anchor="start" x="2144" y="-112.5" font-family="FreeSans" font-size="10.00" fill="#000000">/Examples/Run/MaterialMapping</text>
<text text-anchor="start" x="2144" y="-100.5" font-family="FreeSans" font-size="10.00" fill="#000000">/GeantinoRecording/GeantinoRecording</text>
<text text-anchor="middle" x="2244.5" y="-88.5" font-family="FreeSans" font-size="10.00" fill="#000000">Example.cpp</text>
</a>
</g>
</g>
<!-- Node17&#45;&gt;Node18 -->
<g id="edge21" class="edge">
<title>Node17&#45;&gt;Node18</title>
<path fill="none" stroke="#191970" d="M2019.5257,-171.7697C2059.4031,-160.7322 2104.1385,-148.3501 2143.1509,-137.552"/>
<polygon fill="#191970" stroke="#191970" points="2018.4707,-168.43 2009.7667,-174.4708 2020.338,-175.1764 2018.4707,-168.43"/>
</g>
<!-- Node20 -->
<g id="node20" class="node">
<title>Node20</title>
<g id="a_node20"><a xlink:href="../../da/d82/PropagationOptions_8hpp.html" target="_top" xlink:title="fun4all_acts/blob/master\l/Examples/Algorithms/Propagation\l/include/ACTFW/Propagation/Propagation\lOptions.hpp">
<polygon fill="none" stroke="#000000" points="2659.5,-81.5 2659.5,-137.5 2883.5,-137.5 2883.5,-81.5 2659.5,-81.5"/>
<text text-anchor="start" x="2667.5" y="-124.5" font-family="FreeSans" font-size="10.00" fill="#000000">fun4all_acts/blob/master</text>
<text text-anchor="start" x="2667.5" y="-112.5" font-family="FreeSans" font-size="10.00" fill="#000000">/Examples/Algorithms/Propagation</text>
<text text-anchor="start" x="2667.5" y="-100.5" font-family="FreeSans" font-size="10.00" fill="#000000">/include/ACTFW/Propagation/Propagation</text>
<text text-anchor="middle" x="2771.5" y="-88.5" font-family="FreeSans" font-size="10.00" fill="#000000">Options.hpp</text>
</a>
</g>
</g>
<!-- Node19&#45;&gt;Node20 -->
<g id="edge23" class="edge">
<title>Node19&#45;&gt;Node20</title>
<path fill="none" stroke="#191970" d="M2665.3512,-169.3293C2683.7954,-158.9335 2703.9621,-147.5668 2721.7166,-137.5597"/>
<polygon fill="#191970" stroke="#191970" points="2663.4462,-166.3853 2656.4532,-174.3446 2666.8833,-172.4834 2663.4462,-166.3853"/>
</g>
<!-- Node21 -->
<g id="node21" class="node">
<title>Node21</title>
<g id="a_node21"><a xlink:href="../../dc/da7/MaterialValidationBase_8cpp.html" target="_top" xlink:title="fun4all_acts/blob/master\l/Examples/Run/Common/src\l/MaterialValidationBase.cpp">
<polygon fill="none" stroke="#000000" points="2686,-.5 2686,-44.5 2845,-44.5 2845,-.5 2686,-.5"/>
<text text-anchor="start" x="2694" y="-31.5" font-family="FreeSans" font-size="10.00" fill="#000000">fun4all_acts/blob/master</text>
<text text-anchor="start" x="2694" y="-19.5" font-family="FreeSans" font-size="10.00" fill="#000000">/Examples/Run/Common/src</text>
<text text-anchor="middle" x="2765.5" y="-7.5" font-family="FreeSans" font-size="10.00" fill="#000000">/MaterialValidationBase.cpp</text>
</a>
</g>
</g>
<!-- Node19&#45;&gt;Node21 -->
<g id="edge27" class="edge">
<title>Node19&#45;&gt;Node21</title>
<path fill="none" stroke="#191970" d="M2728.4761,-174.0249C2804.3714,-160.4357 2847.3521,-194.0605 2892.5,-138 2908.3898,-118.2695 2906.1615,-102.334 2892.5,-81 2881.4382,-63.7256 2863.842,-51.4814 2845.2304,-42.8286"/>
<polygon fill="#191970" stroke="#191970" points="2727.6587,-170.6193 2718.5546,-176.0383 2729.0509,-177.4795 2727.6587,-170.6193"/>
</g>
<!-- Node22 -->
<g id="node22" class="node">
<title>Node22</title>
<g id="a_node22"><a xlink:href="../../d3/d32/PropagationExampleBase_8cpp.html" target="_top" xlink:title="fun4all_acts/blob/master\l/Examples/Run/Common/src\l/PropagationExampleBase.cpp">
<polygon fill="none" stroke="#000000" points="2863.5,-.5 2863.5,-44.5 3035.5,-44.5 3035.5,-.5 2863.5,-.5"/>
<text text-anchor="start" x="2871.5" y="-31.5" font-family="FreeSans" font-size="10.00" fill="#000000">fun4all_acts/blob/master</text>
<text text-anchor="start" x="2871.5" y="-19.5" font-family="FreeSans" font-size="10.00" fill="#000000">/Examples/Run/Common/src</text>
<text text-anchor="middle" x="2949.5" y="-7.5" font-family="FreeSans" font-size="10.00" fill="#000000">/PropagationExampleBase.cpp</text>
</a>
</g>
</g>
<!-- Node19&#45;&gt;Node22 -->
<g id="edge28" class="edge">
<title>Node19&#45;&gt;Node22</title>
<path fill="none" stroke="#191970" d="M2728.3979,-174.0057C2811.9625,-159.0416 2851.3413,-191.0919 2911.5,-138 2938.4064,-114.2543 2946.3349,-71.1128 2948.6254,-44.8069"/>
<polygon fill="#191970" stroke="#191970" points="2727.6683,-170.5821 2718.5357,-175.9529 2729.0243,-177.4495 2727.6683,-170.5821"/>
</g>
<!-- Node20&#45;&gt;Node6 -->
<g id="edge24" class="edge">
<title>Node20&#45;&gt;Node6</title>
<path fill="none" stroke="#191970" d="M2649.2384,-81.0673C2398.2176,-42.9415 2112.1651,-29.3634 1976.0972,-24.7112"/>
<polygon fill="#191970" stroke="#191970" points="2648.8647,-84.5508 2659.2799,-82.6085 2649.9267,-77.6318 2648.8647,-84.5508"/>
</g>
<!-- Node20&#45;&gt;Node21 -->
<g id="edge25" class="edge">
<title>Node20&#45;&gt;Node21</title>
<path fill="none" stroke="#191970" d="M2768.8725,-71.4015C2768.2423,-62.2633 2767.5898,-52.8021 2767.0286,-44.6648"/>
<polygon fill="#191970" stroke="#191970" points="2765.3887,-71.7583 2769.5685,-81.4938 2772.3721,-71.2766 2765.3887,-71.7583"/>
</g>
<!-- Node20&#45;&gt;Node22 -->
<g id="edge26" class="edge">
<title>Node20&#45;&gt;Node22</title>
<path fill="none" stroke="#191970" d="M2837.8443,-77.0733C2860.041,-66.2243 2884.2519,-54.3909 2904.4375,-44.5249"/>
<polygon fill="#191970" stroke="#191970" points="2836.2475,-73.958 2828.8001,-81.4938 2839.3213,-80.247 2836.2475,-73.958"/>
</g>
<!-- Node23&#45;&gt;Node6 -->
<g id="edge31" class="edge">
<title>Node23&#45;&gt;Node6</title>
<path fill="none" stroke="#191970" d="M2025.0318,-173.5949C1972.7296,-158.6798 1919.5823,-142.6494 1915.5,-138 1892.8403,-112.1928 1891.8182,-70.1235 1893.7405,-44.5102"/>
<polygon fill="#191970" stroke="#191970" points="2024.2,-176.9971 2034.7759,-176.3639 2026.1135,-170.2637 2024.2,-176.9971"/>
</g>
<!-- Node24 -->
<g id="node24" class="node">
<title>Node24</title>
<g id="a_node24"><a xlink:href="../../db/dd2/RootMaterialTrackReader_8cpp.html" target="_top" xlink:title="fun4all_acts/blob/master\l/Examples/Io/Root/src/RootMaterial\lTrackReader.cpp">
<polygon fill="none" stroke="#000000" points="1925,-87.5 1925,-131.5 2118,-131.5 2118,-87.5 1925,-87.5"/>
<text text-anchor="start" x="1933" y="-118.5" font-family="FreeSans" font-size="10.00" fill="#000000">fun4all_acts/blob/master</text>
<text text-anchor="start" x="1933" y="-106.5" font-family="FreeSans" font-size="10.00" fill="#000000">/Examples/Io/Root/src/RootMaterial</text>
<text text-anchor="middle" x="2021.5" y="-94.5" font-family="FreeSans" font-size="10.00" fill="#000000">TrackReader.cpp</text>
</a>
</g>
</g>
<!-- Node23&#45;&gt;Node24 -->
<g id="edge30" class="edge">
<title>Node23&#45;&gt;Node24</title>
<path fill="none" stroke="#191970" d="M2089.1648,-167.7669C2075.1237,-155.676 2059.7632,-142.4489 2047.2315,-131.6577"/>
<polygon fill="#191970" stroke="#191970" points="2086.9418,-170.4715 2096.8034,-174.3446 2091.5095,-165.1671 2086.9418,-170.4715"/>
</g>
<!-- Node25&#45;&gt;Node6 -->
<g id="edge34" class="edge">
<title>Node25&#45;&gt;Node6</title>
<path fill="none" stroke="#191970" d="M2386.1505,-164.0254C2387.1142,-136.9812 2383.3215,-102.0077 2361.5,-81 2334.2799,-54.795 2101.75,-35.8192 1976.1808,-27.378"/>
<polygon fill="#191970" stroke="#191970" points="2382.6381,-164.1369 2385.5464,-174.3248 2389.626,-164.5469 2382.6381,-164.1369"/>
</g>
<!-- Node25&#45;&gt;Node18 -->
<g id="edge36" class="edge">
<title>Node25&#45;&gt;Node18</title>
<path fill="none" stroke="#191970" d="M2331.3796,-168.4767C2316.4096,-158.3145 2300.1748,-147.2939 2285.8353,-137.5597"/>
<polygon fill="#191970" stroke="#191970" points="2329.7841,-171.6238 2340.0237,-174.3446 2333.7157,-165.8322 2329.7841,-171.6238"/>
</g>
<!-- Node25&#45;&gt;Node21 -->
<g id="edge35" class="edge">
<title>Node25&#45;&gt;Node21</title>
<path fill="none" stroke="#191970" d="M2389.427,-164.717C2397.209,-137.2354 2411.9139,-101.4039 2438.5,-81 2476.3592,-51.9444 2601.9347,-36.0072 2685.9891,-28.3702"/>
<polygon fill="#191970" stroke="#191970" points="2386.034,-163.8576 2386.864,-174.4199 2392.8019,-165.6454 2386.034,-163.8576"/>
</g>
<!-- Node26 -->
<g id="node26" class="node">
<title>Node26</title>
<g id="a_node26"><a xlink:href="../../da/d64/RootMaterialTrackWriter_8cpp.html" target="_top" xlink:title="fun4all_acts/blob/master\l/Examples/Io/Root/src/RootMaterial\lTrackWriter.cpp">
<polygon fill="none" stroke="#000000" points="2448,-87.5 2448,-131.5 2641,-131.5 2641,-87.5 2448,-87.5"/>
<text text-anchor="start" x="2456" y="-118.5" font-family="FreeSans" font-size="10.00" fill="#000000">fun4all_acts/blob/master</text>
<text text-anchor="start" x="2456" y="-106.5" font-family="FreeSans" font-size="10.00" fill="#000000">/Examples/Io/Root/src/RootMaterial</text>
<text text-anchor="middle" x="2544.5" y="-94.5" font-family="FreeSans" font-size="10.00" fill="#000000">TrackWriter.cpp</text>
</a>
</g>
</g>
<!-- Node25&#45;&gt;Node26 -->
<g id="edge33" class="edge">
<title>Node25&#45;&gt;Node26</title>
<path fill="none" stroke="#191970" d="M2439.7735,-169.2519C2461.7521,-156.712 2486.1897,-142.769 2505.9269,-131.5079"/>
<polygon fill="#191970" stroke="#191970" points="2437.7989,-166.3489 2430.8477,-174.3446 2441.2679,-172.4289 2437.7989,-166.3489"/>
</g>
<!-- Node28 -->
<g id="node28" class="node">
<title>Node28</title>
<g id="a_node28"><a xlink:href="../../d0/df7/RootVertexAndTracksReader_8cpp.html" target="_top" xlink:title="fun4all_acts/blob/master\l/Examples/Io/Root/src/RootVertex\lAndTracksReader.cpp">
<polygon fill="none" stroke="#000000" points="3188,-87.5 3188,-131.5 3373,-131.5 3373,-87.5 3188,-87.5"/>
<text text-anchor="start" x="3196" y="-118.5" font-family="FreeSans" font-size="10.00" fill="#000000">fun4all_acts/blob/master</text>
<text text-anchor="start" x="3196" y="-106.5" font-family="FreeSans" font-size="10.00" fill="#000000">/Examples/Io/Root/src/RootVertex</text>
<text text-anchor="middle" x="3280.5" y="-94.5" font-family="FreeSans" font-size="10.00" fill="#000000">AndTracksReader.cpp</text>
</a>
</g>
</g>
<!-- Node27&#45;&gt;Node28 -->
<g id="edge38" class="edge">
<title>Node27&#45;&gt;Node28</title>
<path fill="none" stroke="#191970" d="M2951.3032,-173.9219C3052.7606,-153.7077 3081.3954,-159.1577 3178.5,-138 3187.3029,-136.082 3196.4728,-133.8541 3205.5468,-131.5052"/>
<polygon fill="#191970" stroke="#191970" points="2950.3575,-170.5423 2941.2526,-175.96 2951.7488,-177.4027 2950.3575,-170.5423"/>
</g>
<!-- Node29 -->
<g id="node29" class="node">
<title>Node29</title>
<g id="a_node29"><a xlink:href="../../da/de2/VertexAndTracksReaderAndFinderExample_8cpp.html" target="_top" xlink:title="fun4all_acts/blob/master\l/Examples/Run/Vertexing\l/VertexAndTracksReaderAndFinder\lExample.cpp">
<polygon fill="none" stroke="#000000" points="2977.5,-81.5 2977.5,-137.5 3169.5,-137.5 3169.5,-81.5 2977.5,-81.5"/>
<text text-anchor="start" x="2985.5" y="-124.5" font-family="FreeSans" font-size="10.00" fill="#000000">fun4all_acts/blob/master</text>
<text text-anchor="start" x="2985.5" y="-112.5" font-family="FreeSans" font-size="10.00" fill="#000000">/Examples/Run/Vertexing</text>
<text text-anchor="start" x="2985.5" y="-100.5" font-family="FreeSans" font-size="10.00" fill="#000000">/VertexAndTracksReaderAndFinder</text>
<text text-anchor="middle" x="3073.5" y="-88.5" font-family="FreeSans" font-size="10.00" fill="#000000">Example.cpp</text>
</a>
</g>
</g>
<!-- Node27&#45;&gt;Node29 -->
<g id="edge39" class="edge">
<title>Node27&#45;&gt;Node29</title>
<path fill="none" stroke="#191970" d="M2918.7933,-170.7244C2945.9369,-159.9824 2976.0343,-148.0715 3002.4131,-137.6323"/>
<polygon fill="#191970" stroke="#191970" points="2917.3368,-167.5366 2909.3264,-174.4708 2919.9127,-174.0454 2917.3368,-167.5366"/>
</g>
</g>
</svg>
