<?xml version="1.0" encoding="UTF-8" standalone="no"?>
<!DOCTYPE svg PUBLIC "-//W3C//DTD SVG 1.1//EN"
 "http://www.w3.org/Graphics/SVG/1.1/DTD/svg11.dtd">
<!-- Generated by graphviz version 2.40.1 (20161225.0304)
 -->
<!-- Title: EicRoot/blob/master/dbase/dbInterface/FairDbTimer.h Pages: 1 -->
<svg width="402pt" height="122pt"
 viewBox="0.00 0.00 401.50 122.00" xmlns="http://www.w3.org/2000/svg" xmlns:xlink="http://www.w3.org/1999/xlink">
<g id="graph0" class="graph" transform="scale(1 1) rotate(0) translate(4 118)">
<title>EicRoot/blob/master/dbase/dbInterface/FairDbTimer.h</title>
<!-- Node1 -->
<g id="node1" class="node">
<title>Node1</title>
<polygon fill="#bfbfbf" stroke="#000000" points="109,-81.5 109,-113.5 294,-113.5 294,-81.5 109,-81.5"/>
<text text-anchor="start" x="117" y="-100.5" font-family="FreeSans" font-size="10.00" fill="#000000">EicRoot/blob/master</text>
<text text-anchor="middle" x="201.5" y="-88.5" font-family="FreeSans" font-size="10.00" fill="#000000">/dbase/dbInterface/FairDbTimer.h</text>
</g>
<!-- Node2 -->
<g id="node2" class="node">
<title>Node2</title>
<g id="a_node2"><a xlink:href="../../df/d99/FairDbTimer_8cxx.html" target="_top" xlink:title="EicRoot/blob/master\l/dbase/dbInterface/FairDbTimer.cxx">
<polygon fill="none" stroke="#000000" points="0,-6.5 0,-38.5 197,-38.5 197,-6.5 0,-6.5"/>
<text text-anchor="start" x="8" y="-25.5" font-family="FreeSans" font-size="10.00" fill="#000000">EicRoot/blob/master</text>
<text text-anchor="middle" x="98.5" y="-13.5" font-family="FreeSans" font-size="10.00" fill="#000000">/dbase/dbInterface/FairDbTimer.cxx</text>
</a>
</g>
</g>
<!-- Node1&#45;&gt;Node2 -->
<g id="edge1" class="edge">
<title>Node1&#45;&gt;Node2</title>
<path fill="none" stroke="#191970" d="M171.2649,-75.4842C155.0199,-63.6552 135.3505,-49.3329 120.5595,-38.5628"/>
<polygon fill="#191970" stroke="#191970" points="169.2597,-78.3536 179.4039,-81.4106 173.3802,-72.6948 169.2597,-78.3536"/>
</g>
<!-- Node3 -->
<g id="node3" class="node">
<title>Node3</title>
<g id="a_node3"><a xlink:href="../../db/d78/FairDbTimerManager_8cxx.html" target="_top" xlink:title="EicRoot/blob/master\l/dbase/dbInterface/FairDbTimer\lManager.cxx">
<polygon fill="none" stroke="#000000" points="215.5,-.5 215.5,-44.5 393.5,-44.5 393.5,-.5 215.5,-.5"/>
<text text-anchor="start" x="223.5" y="-31.5" font-family="FreeSans" font-size="10.00" fill="#000000">EicRoot/blob/master</text>
<text text-anchor="start" x="223.5" y="-19.5" font-family="FreeSans" font-size="10.00" fill="#000000">/dbase/dbInterface/FairDbTimer</text>
<text text-anchor="middle" x="304.5" y="-7.5" font-family="FreeSans" font-size="10.00" fill="#000000">Manager.cxx</text>
</a>
</g>
</g>
<!-- Node1&#45;&gt;Node3 -->
<g id="edge2" class="edge">
<title>Node1&#45;&gt;Node3</title>
<path fill="none" stroke="#191970" d="M231.9848,-75.3024C245.3202,-65.5921 260.9248,-54.2295 274.2351,-44.5376"/>
<polygon fill="#191970" stroke="#191970" points="229.6198,-72.6948 223.5961,-81.4106 233.7403,-78.3536 229.6198,-72.6948"/>
</g>
</g>
</svg>
