<?xml version="1.0" encoding="UTF-8" standalone="no"?>
<!DOCTYPE svg PUBLIC "-//W3C//DTD SVG 1.1//EN"
 "http://www.w3.org/Graphics/SVG/1.1/DTD/svg11.dtd">
<!-- Generated by graphviz version 2.40.1 (20161225.0304)
 -->
<!-- Title: PHG4MicromegasDetector::construct_micromegas Pages: 1 -->
<svg width="431pt" height="119pt"
 viewBox="0.00 0.00 431.00 119.00" xmlns="http://www.w3.org/2000/svg" xmlns:xlink="http://www.w3.org/1999/xlink">
<g id="graph0" class="graph" transform="scale(1 1) rotate(0) translate(4 115)">
<title>PHG4MicromegasDetector::construct_micromegas</title>
<!-- Node1 -->
<g id="node1" class="node">
<title>Node1</title>
<polygon fill="#bfbfbf" stroke="#000000" points="0,-33.5 0,-65.5 150,-65.5 150,-33.5 0,-33.5"/>
<text text-anchor="start" x="8" y="-52.5" font-family="FreeSans" font-size="10.00" fill="#000000">PHG4MicromegasDetector</text>
<text text-anchor="middle" x="75" y="-40.5" font-family="FreeSans" font-size="10.00" fill="#000000">::construct_micromegas</text>
</g>
<!-- Node2 -->
<g id="node2" class="node">
<title>Node2</title>
<g id="a_node2"><a xlink:href="../../dd/dae/classPHParameters.html#aa61ce249b94375d9af4482c36a1308cf" target="_top" xlink:title="PHParameters::get_double\l_param">
<polygon fill="none" stroke="#000000" points="194,-78.5 194,-110.5 344,-110.5 344,-78.5 194,-78.5"/>
<text text-anchor="start" x="202" y="-97.5" font-family="FreeSans" font-size="10.00" fill="#000000">PHParameters::get_double</text>
<text text-anchor="middle" x="269" y="-85.5" font-family="FreeSans" font-size="10.00" fill="#000000">_param</text>
</a>
</g>
</g>
<!-- Node1&#45;&gt;Node2 -->
<g id="edge1" class="edge">
<title>Node1&#45;&gt;Node2</title>
<path fill="none" stroke="#191970" d="M144.2168,-65.5555C159.0346,-68.9926 174.797,-72.6488 189.9534,-76.1645"/>
<polygon fill="#191970" stroke="#191970" points="189.2776,-79.6006 199.8099,-78.4507 190.8594,-72.7816 189.2776,-79.6006"/>
</g>
<!-- Node4 -->
<g id="node4" class="node">
<title>Node4</title>
<g id="a_node4"><a xlink:href="../../d3/de7/classPHG4Detector.html#a2d071f49fa045db5ade51bb99f88218f" target="_top" xlink:title="PHG4Detector::GetName">
<polygon fill="none" stroke="#000000" points="198,-39.5 198,-59.5 340,-59.5 340,-39.5 198,-39.5"/>
<text text-anchor="middle" x="269" y="-46.5" font-family="FreeSans" font-size="10.00" fill="#000000">PHG4Detector::GetName</text>
</a>
</g>
</g>
<!-- Node1&#45;&gt;Node4 -->
<g id="edge3" class="edge">
<title>Node1&#45;&gt;Node4</title>
<path fill="none" stroke="#191970" d="M150.0055,-49.5C162.2506,-49.5 174.9893,-49.5 187.3842,-49.5"/>
<polygon fill="#191970" stroke="#191970" points="187.6966,-53.0001 197.6966,-49.5 187.6966,-46.0001 187.6966,-53.0001"/>
</g>
<!-- Node5 -->
<g id="node5" class="node">
<title>Node5</title>
<g id="a_node5"><a xlink:href="../../d3/de7/classPHG4Detector.html#a0be0f337e0bb4ef7d0754552ee7ba251" target="_top" xlink:title="PHG4Detector::OverlapCheck">
<polygon fill="none" stroke="#000000" points="186,-.5 186,-20.5 352,-20.5 352,-.5 186,-.5"/>
<text text-anchor="middle" x="269" y="-7.5" font-family="FreeSans" font-size="10.00" fill="#000000">PHG4Detector::OverlapCheck</text>
</a>
</g>
</g>
<!-- Node1&#45;&gt;Node5 -->
<g id="edge4" class="edge">
<title>Node1&#45;&gt;Node5</title>
<path fill="none" stroke="#191970" d="M150.0055,-34.4216C169.6181,-30.4788 190.497,-26.2815 209.201,-22.5214"/>
<polygon fill="#191970" stroke="#191970" points="209.9409,-25.9428 219.055,-20.5405 208.5613,-19.0801 209.9409,-25.9428"/>
</g>
<!-- Node3 -->
<g id="node3" class="node">
<title>Node3</title>
<g id="a_node3"><a xlink:href="../../df/de8/cemc_8C.html#adf5c804dfce7a70e36dda02995fad481" target="_top" xlink:title="exit">
<polygon fill="none" stroke="#000000" points="388,-84.5 388,-104.5 423,-104.5 423,-84.5 388,-84.5"/>
<text text-anchor="middle" x="405.5" y="-91.5" font-family="FreeSans" font-size="10.00" fill="#000000">exit</text>
</a>
</g>
</g>
<!-- Node2&#45;&gt;Node3 -->
<g id="edge2" class="edge">
<title>Node2&#45;&gt;Node3</title>
<path fill="none" stroke="#191970" d="M344.0383,-94.5C356.1399,-94.5 367.9539,-94.5 377.9383,-94.5"/>
<polygon fill="#191970" stroke="#191970" points="377.9813,-98.0001 387.9812,-94.5 377.9812,-91.0001 377.9813,-98.0001"/>
</g>
</g>
</svg>
