<?xml version="1.0" encoding="UTF-8" standalone="no"?>
<!DOCTYPE svg PUBLIC "-//W3C//DTD SVG 1.1//EN"
 "http://www.w3.org/Graphics/SVG/1.1/DTD/svg11.dtd">
<!-- Generated by graphviz version 2.40.1 (20161225.0304)
 -->
<!-- Title: tetgenmesh::numberedges Pages: 1 -->
<svg width="1634pt" height="239pt"
 viewBox="0.00 0.00 1634.00 239.23" xmlns="http://www.w3.org/2000/svg" xmlns:xlink="http://www.w3.org/1999/xlink">
<g id="graph0" class="graph" transform="scale(1 1) rotate(0) translate(4 235.2337)">
<title>tetgenmesh::numberedges</title>
<!-- Node1 -->
<g id="node1" class="node">
<title>Node1</title>
<polygon fill="#bfbfbf" stroke="#000000" points="0,-66.7337 0,-86.7337 154,-86.7337 154,-66.7337 0,-66.7337"/>
<text text-anchor="middle" x="77" y="-73.7337" font-family="FreeSans" font-size="10.00" fill="#000000">tetgenmesh::numberedges</text>
</g>
<!-- Node2 -->
<g id="node2" class="node">
<title>Node2</title>
<g id="a_node2"><a xlink:href="../../dc/db3/classtetgenmesh.html#ad3e1b0a623146c7bf47e9fdf0dc905e9" target="_top" xlink:title="tetgenmesh::outedges">
<polygon fill="none" stroke="#000000" points="190,-66.7337 190,-86.7337 321,-86.7337 321,-66.7337 190,-66.7337"/>
<text text-anchor="middle" x="255.5" y="-73.7337" font-family="FreeSans" font-size="10.00" fill="#000000">tetgenmesh::outedges</text>
</a>
</g>
</g>
<!-- Node1&#45;&gt;Node2 -->
<g id="edge1" class="edge">
<title>Node1&#45;&gt;Node2</title>
<path fill="none" stroke="#191970" d="M164.3208,-76.7337C172.9214,-76.7337 181.546,-76.7337 189.8747,-76.7337"/>
<polygon fill="#191970" stroke="#191970" points="164.2546,-73.2338 154.2545,-76.7337 164.2545,-80.2338 164.2546,-73.2338"/>
</g>
<!-- Node3 -->
<g id="node3" class="node">
<title>Node3</title>
<g id="a_node3"><a xlink:href="../../de/db3/tetgen_8h.html#ad3637eb4ffe7fda90667e67b7771d964" target="_top" xlink:title="tetrahedralize">
<polygon fill="none" stroke="#000000" points="357,-66.7337 357,-86.7337 444,-86.7337 444,-66.7337 357,-66.7337"/>
<text text-anchor="middle" x="400.5" y="-73.7337" font-family="FreeSans" font-size="10.00" fill="#000000">tetrahedralize</text>
</a>
</g>
</g>
<!-- Node2&#45;&gt;Node3 -->
<g id="edge2" class="edge">
<title>Node2&#45;&gt;Node3</title>
<path fill="none" stroke="#191970" d="M331.3575,-76.7337C340.0003,-76.7337 348.5792,-76.7337 356.6017,-76.7337"/>
<polygon fill="#191970" stroke="#191970" points="331.212,-73.2338 321.212,-76.7337 331.2119,-80.2338 331.212,-73.2338"/>
</g>
<!-- Node4 -->
<g id="node4" class="node">
<title>Node4</title>
<g id="a_node4"><a xlink:href="../../d7/db1/classEicStlFactory.html#ac12dcc068bd2f6a941a3c003784c75fa" target="_top" xlink:title="EicStlFactory::_Construct\lGeometry">
<polygon fill="none" stroke="#000000" points="489.5,-105.7337 489.5,-137.7337 630.5,-137.7337 630.5,-105.7337 489.5,-105.7337"/>
<text text-anchor="start" x="497.5" y="-124.7337" font-family="FreeSans" font-size="10.00" fill="#000000">EicStlFactory::_Construct</text>
<text text-anchor="middle" x="560" y="-112.7337" font-family="FreeSans" font-size="10.00" fill="#000000">Geometry</text>
</a>
</g>
</g>
<!-- Node3&#45;&gt;Node4 -->
<g id="edge3" class="edge">
<title>Node3&#45;&gt;Node4</title>
<path fill="none" stroke="#191970" d="M446.3531,-89.6703C464.0299,-94.6575 484.4367,-100.4149 503.0379,-105.6628"/>
<polygon fill="#191970" stroke="#191970" points="446.8696,-86.1794 436.2949,-86.8325 444.9688,-92.9164 446.8696,-86.1794"/>
</g>
<!-- Node6 -->
<g id="node6" class="node">
<title>Node6</title>
<g id="a_node6"><a xlink:href="../../d7/db1/classEicStlFactory.html#a0cc0f04c573c3313258e5e73443c4cfd" target="_top" xlink:title="EicStlFactory::CreateRootFile">
<polygon fill="none" stroke="#000000" points="480,-66.7337 480,-86.7337 640,-86.7337 640,-66.7337 480,-66.7337"/>
<text text-anchor="middle" x="560" y="-73.7337" font-family="FreeSans" font-size="10.00" fill="#000000">EicStlFactory::CreateRootFile</text>
</a>
</g>
</g>
<!-- Node3&#45;&gt;Node6 -->
<g id="edge5" class="edge">
<title>Node3&#45;&gt;Node6</title>
<path fill="none" stroke="#191970" d="M454.3098,-76.7337C462.5839,-76.7337 471.276,-76.7337 479.9725,-76.7337"/>
<polygon fill="#191970" stroke="#191970" points="454.0841,-73.2338 444.0841,-76.7337 454.084,-80.2338 454.0841,-73.2338"/>
</g>
<!-- Node14 -->
<g id="node14" class="node">
<title>Node14</title>
<g id="a_node14"><a xlink:href="../../d7/d8f/tetgen_8cxx.html#a0ddf1224851353fc92bfbff6f499fa97" target="_top" xlink:title="main">
<polygon fill="none" stroke="#000000" points="539.5,-27.7337 539.5,-47.7337 580.5,-47.7337 580.5,-27.7337 539.5,-27.7337"/>
<text text-anchor="middle" x="560" y="-34.7337" font-family="FreeSans" font-size="10.00" fill="#000000">main</text>
</a>
</g>
</g>
<!-- Node3&#45;&gt;Node14 -->
<g id="edge17" class="edge">
<title>Node3&#45;&gt;Node14</title>
<path fill="none" stroke="#191970" d="M449.8805,-64.2027C459.8459,-61.7043 470.2535,-59.1169 480,-56.7337 500.1067,-51.8171 523.1016,-46.3746 539.2623,-42.5792"/>
<polygon fill="#191970" stroke="#191970" points="448.9483,-60.8281 440.1034,-66.6605 450.655,-67.6168 448.9483,-60.8281"/>
</g>
<!-- Node5 -->
<g id="node5" class="node">
<title>Node5</title>
<g id="a_node5"><a xlink:href="../../d8/d7b/classEicCadFile.html#a8e8bf4dd75c81efa51b8bc49696ff960" target="_top" xlink:title="EicCadFile::ConstructGeometry">
<polygon fill="none" stroke="#000000" points="676,-111.7337 676,-131.7337 850,-131.7337 850,-111.7337 676,-111.7337"/>
<text text-anchor="middle" x="763" y="-118.7337" font-family="FreeSans" font-size="10.00" fill="#000000">EicCadFile::ConstructGeometry</text>
</a>
</g>
</g>
<!-- Node4&#45;&gt;Node5 -->
<g id="edge4" class="edge">
<title>Node4&#45;&gt;Node5</title>
<path fill="none" stroke="#191970" d="M640.7192,-121.7337C652.2309,-121.7337 664.1151,-121.7337 675.7449,-121.7337"/>
<polygon fill="#191970" stroke="#191970" points="640.7146,-118.2338 630.7146,-121.7337 640.7145,-125.2338 640.7146,-118.2338"/>
</g>
<!-- Node7 -->
<g id="node7" class="node">
<title>Node7</title>
<g id="a_node7"><a xlink:href="../../d3/d74/classEicCadWizard.html#aa3d8913ceadf362918c9dfa6e5768fa5" target="_top" xlink:title="EicCadWizard::CreateStlSolid\lRootFile">
<polygon fill="none" stroke="#000000" points="681.5,-60.7337 681.5,-92.7337 844.5,-92.7337 844.5,-60.7337 681.5,-60.7337"/>
<text text-anchor="start" x="689.5" y="-79.7337" font-family="FreeSans" font-size="10.00" fill="#000000">EicCadWizard::CreateStlSolid</text>
<text text-anchor="middle" x="763" y="-67.7337" font-family="FreeSans" font-size="10.00" fill="#000000">RootFile</text>
</a>
</g>
</g>
<!-- Node6&#45;&gt;Node7 -->
<g id="edge6" class="edge">
<title>Node6&#45;&gt;Node7</title>
<path fill="none" stroke="#191970" d="M650.4543,-76.7337C660.7447,-76.7337 671.1883,-76.7337 681.3553,-76.7337"/>
<polygon fill="#191970" stroke="#191970" points="650.231,-73.2338 640.231,-76.7337 650.2309,-80.2338 650.231,-73.2338"/>
</g>
<!-- Node8 -->
<g id="node8" class="node">
<title>Node8</title>
<g id="a_node8"><a xlink:href="../../d3/d74/classEicCadWizard.html#a934e44248a9b831031244e8f677192ab" target="_top" xlink:title="EicCadWizard::FaceGuided\lSplit">
<polygon fill="none" stroke="#000000" points="886,-130.7337 886,-162.7337 1037,-162.7337 1037,-130.7337 886,-130.7337"/>
<text text-anchor="start" x="894" y="-149.7337" font-family="FreeSans" font-size="10.00" fill="#000000">EicCadWizard::FaceGuided</text>
<text text-anchor="middle" x="961.5" y="-137.7337" font-family="FreeSans" font-size="10.00" fill="#000000">Split</text>
</a>
</g>
</g>
<!-- Node7&#45;&gt;Node8 -->
<g id="edge7" class="edge">
<title>Node7&#45;&gt;Node8</title>
<path fill="none" stroke="#191970" d="M831.8908,-95.8125C838.0403,-97.7318 844.1494,-99.7185 850,-101.7337 875.1644,-110.4011 902.9204,-121.5972 924.4444,-130.6533"/>
<polygon fill="#191970" stroke="#191970" points="832.8116,-92.4342 822.2252,-92.8576 830.765,-99.1283 832.8116,-92.4342"/>
</g>
<!-- Node11 -->
<g id="node11" class="node">
<title>Node11</title>
<g id="a_node11"><a xlink:href="../../d3/d74/classEicCadWizard.html#a006a3271b204498a10bb4b15e45c5a61" target="_top" xlink:title="EicCadWizard::FlatSurface\lSplit">
<polygon fill="none" stroke="#000000" points="1477,-153.7337 1477,-185.7337 1626,-185.7337 1626,-153.7337 1477,-153.7337"/>
<text text-anchor="start" x="1485" y="-172.7337" font-family="FreeSans" font-size="10.00" fill="#000000">EicCadWizard::FlatSurface</text>
<text text-anchor="middle" x="1551.5" y="-160.7337" font-family="FreeSans" font-size="10.00" fill="#000000">Split</text>
</a>
</g>
</g>
<!-- Node7&#45;&gt;Node11 -->
<g id="edge16" class="edge">
<title>Node7&#45;&gt;Node11</title>
<path fill="none" stroke="#191970" d="M821.1471,-57.6743C942.5228,-21.3439 1229.1319,46.2235 1441,-47.7337 1490.3732,-69.6292 1527.0728,-125.6918 1542.9009,-153.5373"/>
<polygon fill="#191970" stroke="#191970" points="819.8605,-54.4071 811.3077,-60.66 821.8932,-61.1055 819.8605,-54.4071"/>
</g>
<!-- Node9 -->
<g id="node9" class="node">
<title>Node9</title>
<g id="a_node9"><a xlink:href="../../d3/d74/classEicCadWizard.html#ae20efc31d935163c847571a258d9f5da" target="_top" xlink:title="EicCadWizard::ConvertSource\lFileToRoot">
<polygon fill="none" stroke="#000000" points="1073,-130.7337 1073,-162.7337 1239,-162.7337 1239,-130.7337 1073,-130.7337"/>
<text text-anchor="start" x="1081" y="-149.7337" font-family="FreeSans" font-size="10.00" fill="#000000">EicCadWizard::ConvertSource</text>
<text text-anchor="middle" x="1156" y="-137.7337" font-family="FreeSans" font-size="10.00" fill="#000000">FileToRoot</text>
</a>
</g>
</g>
<!-- Node8&#45;&gt;Node9 -->
<g id="edge8" class="edge">
<title>Node8&#45;&gt;Node9</title>
<path fill="none" stroke="#191970" d="M1047.429,-140.0245C1055.8298,-139.9637 1064.3449,-139.9708 1072.7188,-140.0459"/>
<polygon fill="#191970" stroke="#191970" points="1047.218,-136.5264 1037.2557,-140.1324 1047.2923,-143.526 1047.218,-136.5264"/>
</g>
<!-- Node9&#45;&gt;Node8 -->
<g id="edge14" class="edge">
<title>Node9&#45;&gt;Node8</title>
<path fill="none" stroke="#191970" d="M1062.4516,-153.4793C1054.0052,-153.4992 1045.5214,-153.451 1037.2557,-153.3349"/>
<polygon fill="#191970" stroke="#191970" points="1062.7387,-156.9778 1072.7188,-153.4214 1062.6992,-149.978 1062.7387,-156.9778"/>
</g>
<!-- Node10 -->
<g id="node10" class="node">
<title>Node10</title>
<g id="a_node10"><a xlink:href="../../d3/d74/classEicCadWizard.html#a755802c1852cc16497c285ffff5f9ed9" target="_top" xlink:title="EicCadWizard::ConvertSource\lDirectoryToRoot">
<polygon fill="none" stroke="#000000" points="1275,-198.7337 1275,-230.7337 1441,-230.7337 1441,-198.7337 1275,-198.7337"/>
<text text-anchor="start" x="1283" y="-217.7337" font-family="FreeSans" font-size="10.00" fill="#000000">EicCadWizard::ConvertSource</text>
<text text-anchor="middle" x="1358" y="-205.7337" font-family="FreeSans" font-size="10.00" fill="#000000">DirectoryToRoot</text>
</a>
</g>
</g>
<!-- Node9&#45;&gt;Node10 -->
<g id="edge9" class="edge">
<title>Node9&#45;&gt;Node10</title>
<path fill="none" stroke="#191970" d="M1232.5756,-165.9401C1264.8057,-176.3101 1300.5659,-188.8353 1325.6284,-198.7263"/>
<polygon fill="#191970" stroke="#191970" points="1233.2927,-162.4954 1222.7022,-162.7964 1231.1689,-169.1655 1233.2927,-162.4954"/>
</g>
<!-- Node9&#45;&gt;Node11 -->
<g id="edge15" class="edge">
<title>Node9&#45;&gt;Node11</title>
<path fill="none" stroke="#191970" d="M1249.4589,-152.1687C1318.9148,-156.2078 1412.4158,-161.6453 1476.8971,-165.3952"/>
<polygon fill="#191970" stroke="#191970" points="1249.5785,-148.6698 1239.3921,-151.5833 1249.172,-155.658 1249.5785,-148.6698"/>
</g>
<!-- Node12 -->
<g id="node12" class="node">
<title>Node12</title>
<g id="a_node12"><a xlink:href="../../d3/d74/classEicCadWizard.html#a96164b69291586bf689c5e002a1257d2" target="_top" xlink:title="EicCadWizard::ConvertSource\lFilesToRoot">
<polygon fill="none" stroke="#000000" points="1275,-108.7337 1275,-140.7337 1441,-140.7337 1441,-108.7337 1275,-108.7337"/>
<text text-anchor="start" x="1283" y="-127.7337" font-family="FreeSans" font-size="10.00" fill="#000000">EicCadWizard::ConvertSource</text>
<text text-anchor="middle" x="1358" y="-115.7337" font-family="FreeSans" font-size="10.00" fill="#000000">FilesToRoot</text>
</a>
</g>
</g>
<!-- Node9&#45;&gt;Node12 -->
<g id="edge12" class="edge">
<title>Node9&#45;&gt;Node12</title>
<path fill="none" stroke="#191970" d="M1249.1092,-136.5931C1257.7336,-135.6538 1266.4352,-134.7061 1274.9604,-133.7776"/>
<polygon fill="#191970" stroke="#191970" points="1248.5978,-133.128 1239.0356,-137.6902 1249.3558,-140.0868 1248.5978,-133.128"/>
</g>
<!-- Node13 -->
<g id="node13" class="node">
<title>Node13</title>
<g id="a_node13"><a xlink:href="../../d3/d74/classEicCadWizard.html#a8c9200680c7b255518246d67c872309b" target="_top" xlink:title="EicCadWizard::ConvertSource\lFileToRoot">
<polygon fill="none" stroke="#000000" points="1275,-57.7337 1275,-89.7337 1441,-89.7337 1441,-57.7337 1275,-57.7337"/>
<text text-anchor="start" x="1283" y="-76.7337" font-family="FreeSans" font-size="10.00" fill="#000000">EicCadWizard::ConvertSource</text>
<text text-anchor="middle" x="1358" y="-64.7337" font-family="FreeSans" font-size="10.00" fill="#000000">FileToRoot</text>
</a>
</g>
</g>
<!-- Node9&#45;&gt;Node13 -->
<g id="edge13" class="edge">
<title>Node9&#45;&gt;Node13</title>
<path fill="none" stroke="#191970" d="M1202.5462,-126.8172C1224.3693,-117.7745 1250.834,-107.2272 1275,-98.7337 1283.6607,-95.6897 1292.9065,-92.677 1301.967,-89.8534"/>
<polygon fill="#191970" stroke="#191970" points="1201.0675,-123.6416 1193.1853,-130.7212 1203.7621,-130.1022 1201.0675,-123.6416"/>
</g>
<!-- Node10&#45;&gt;Node9 -->
<g id="edge10" class="edge">
<title>Node10&#45;&gt;Node9</title>
<path fill="none" stroke="#191970" d="M1281.4508,-195.5357C1249.2494,-185.1755 1213.52,-172.6624 1188.4548,-162.7739"/>
<polygon fill="#191970" stroke="#191970" points="1280.7248,-198.9776 1291.3153,-198.6764 1282.8485,-192.3075 1280.7248,-198.9776"/>
</g>
<!-- Node10&#45;&gt;Node11 -->
<g id="edge11" class="edge">
<title>Node10&#45;&gt;Node11</title>
<path fill="none" stroke="#191970" d="M1436.8701,-196.3918C1451.9882,-192.8759 1467.7098,-189.2198 1482.4882,-185.7829"/>
<polygon fill="#191970" stroke="#191970" points="1435.9857,-193.004 1427.0384,-198.6782 1437.5713,-199.822 1435.9857,-193.004"/>
</g>
</g>
</svg>
