<?xml version="1.0" encoding="UTF-8" standalone="no"?>
<!DOCTYPE svg PUBLIC "-//W3C//DTD SVG 1.1//EN"
 "http://www.w3.org/Graphics/SVG/1.1/DTD/svg11.dtd">
<!-- Generated by graphviz version 2.40.1 (20161225.0304)
 -->
<!-- Title: erhic::EventMC::ExchangeBoson Pages: 1 -->
<svg width="399pt" height="41pt"
 viewBox="0.00 0.00 399.00 41.00" xmlns="http://www.w3.org/2000/svg" xmlns:xlink="http://www.w3.org/1999/xlink">
<g id="graph0" class="graph" transform="scale(1 1) rotate(0) translate(4 37)">
<title>erhic::EventMC::ExchangeBoson</title>
<!-- Node1 -->
<g id="node1" class="node">
<title>Node1</title>
<polygon fill="#bfbfbf" stroke="#000000" points="0,-.5 0,-32.5 149,-32.5 149,-.5 0,-.5"/>
<text text-anchor="start" x="8" y="-19.5" font-family="FreeSans" font-size="10.00" fill="#000000">erhic::EventMC::Exchange</text>
<text text-anchor="middle" x="74.5" y="-7.5" font-family="FreeSans" font-size="10.00" fill="#000000">Boson</text>
</g>
<!-- Node2 -->
<g id="node2" class="node">
<title>Node2</title>
<g id="a_node2"><a xlink:href="../../de/dac/TreeToHepMC_8cxx.html#aad9a4697fba7ddee9a6d6b13fbf79c70" target="_top" xlink:title="TreeToHepMC">
<polygon fill="none" stroke="#000000" points="185,-6.5 185,-26.5 270,-26.5 270,-6.5 185,-6.5"/>
<text text-anchor="middle" x="227.5" y="-13.5" font-family="FreeSans" font-size="10.00" fill="#000000">TreeToHepMC</text>
</a>
</g>
</g>
<!-- Node1&#45;&gt;Node2 -->
<g id="edge1" class="edge">
<title>Node1&#45;&gt;Node2</title>
<path fill="none" stroke="#191970" d="M159.2756,-16.5C168.1596,-16.5 176.893,-16.5 184.9889,-16.5"/>
<polygon fill="#191970" stroke="#191970" points="159.2072,-13.0001 149.2072,-16.5 159.2071,-20.0001 159.2072,-13.0001"/>
</g>
<!-- Node3 -->
<g id="node3" class="node">
<title>Node3</title>
<g id="a_node3"><a xlink:href="../../de/dac/TreeToHepMC_8cxx.html#ad9425cd757fe15c0a28964c2e907aff8" target="_top" xlink:title="TreeToHepMC">
<polygon fill="none" stroke="#000000" points="306,-6.5 306,-26.5 391,-26.5 391,-6.5 306,-6.5"/>
<text text-anchor="middle" x="348.5" y="-13.5" font-family="FreeSans" font-size="10.00" fill="#000000">TreeToHepMC</text>
</a>
</g>
</g>
<!-- Node2&#45;&gt;Node3 -->
<g id="edge2" class="edge">
<title>Node2&#45;&gt;Node3</title>
<path fill="none" stroke="#191970" d="M280.3841,-16.5C288.8866,-16.5 297.5931,-16.5 305.8173,-16.5"/>
<polygon fill="#191970" stroke="#191970" points="280.1601,-13.0001 270.1601,-16.5 280.16,-20.0001 280.1601,-13.0001"/>
</g>
</g>
</svg>
