<?xml version="1.0" encoding="UTF-8" standalone="no"?>
<!DOCTYPE svg PUBLIC "-//W3C//DTD SVG 1.1//EN"
 "http://www.w3.org/Graphics/SVG/1.1/DTD/svg11.dtd">
<!-- Generated by graphviz version 2.40.1 (20161225.0304)
 -->
<!-- Title: fun4all_acts/blob/master/Core/src/Geometry/AbstractVolume.cpp Pages: 1 -->
<svg width="3483pt" height="695pt"
 viewBox="0.00 0.00 3482.55 695.00" xmlns="http://www.w3.org/2000/svg" xmlns:xlink="http://www.w3.org/1999/xlink">
<g id="graph0" class="graph" transform="scale(1 1) rotate(0) translate(4 691)">
<title>fun4all_acts/blob/master/Core/src/Geometry/AbstractVolume.cpp</title>
<!-- Node1 -->
<g id="node1" class="node">
<title>Node1</title>
<polygon fill="#bfbfbf" stroke="#000000" points="1190.5,-654.5 1190.5,-686.5 1411.5,-686.5 1411.5,-654.5 1190.5,-654.5"/>
<text text-anchor="start" x="1198.5" y="-673.5" font-family="FreeSans" font-size="10.00" fill="#000000">fun4all_acts/blob/master</text>
<text text-anchor="middle" x="1301" y="-661.5" font-family="FreeSans" font-size="10.00" fill="#000000">/Core/src/Geometry/AbstractVolume.cpp</text>
</g>
<!-- Node2 -->
<g id="node2" class="node">
<title>Node2</title>
<g id="a_node2"><a xlink:href="../../d4/d5b/AbstractVolume_8hpp.html" target="_top" xlink:title="Acts/Geometry/AbstractVolume.hpp">
<polygon fill="none" stroke="#000000" points="1139,-597.5 1139,-617.5 1337,-617.5 1337,-597.5 1139,-597.5"/>
<text text-anchor="middle" x="1238" y="-604.5" font-family="FreeSans" font-size="10.00" fill="#000000">Acts/Geometry/AbstractVolume.hpp</text>
</a>
</g>
</g>
<!-- Node1&#45;&gt;Node2 -->
<g id="edge1" class="edge">
<title>Node1&#45;&gt;Node2</title>
<path fill="none" stroke="#191970" d="M1284.7759,-654.2759C1275.7754,-645.2754 1264.5794,-634.0794 1255.3977,-624.8977"/>
<polygon fill="#191970" stroke="#191970" points="1257.7973,-622.3475 1248.2513,-617.7513 1252.8475,-627.2973 1257.7973,-622.3475"/>
</g>
<!-- Node4 -->
<g id="node4" class="node">
<title>Node4</title>
<g id="a_node4"><a xlink:href="../../d4/d5f/BoundarySurfaceT_8hpp.html" target="_top" xlink:title="Acts/Geometry/BoundarySurface\lT.hpp">
<polygon fill="none" stroke="#000000" points="1269.5,-528.5 1269.5,-560.5 1452.5,-560.5 1452.5,-528.5 1269.5,-528.5"/>
<text text-anchor="start" x="1277.5" y="-547.5" font-family="FreeSans" font-size="10.00" fill="#000000">Acts/Geometry/BoundarySurface</text>
<text text-anchor="middle" x="1361" y="-535.5" font-family="FreeSans" font-size="10.00" fill="#000000">T.hpp</text>
</a>
</g>
</g>
<!-- Node1&#45;&gt;Node4 -->
<g id="edge109" class="edge">
<title>Node1&#45;&gt;Node4</title>
<path fill="none" stroke="#191970" d="M1318.8852,-654.1461C1328.3481,-644.5175 1339.3532,-631.5871 1346,-618 1353.16,-603.3639 1356.9042,-585.479 1358.8613,-571.0162"/>
<polygon fill="#191970" stroke="#191970" points="1362.3782,-571.0669 1360.0364,-560.7341 1355.4234,-570.2719 1362.3782,-571.0669"/>
</g>
<!-- Node7 -->
<g id="node7" class="node">
<title>Node7</title>
<polygon fill="none" stroke="#bfbfbf" points="2853,-120.5 2853,-140.5 2913,-140.5 2913,-120.5 2853,-120.5"/>
<text text-anchor="middle" x="2883" y="-127.5" font-family="FreeSans" font-size="10.00" fill="#000000">iostream</text>
</g>
<!-- Node1&#45;&gt;Node7 -->
<g id="edge107" class="edge">
<title>Node1&#45;&gt;Node7</title>
<path fill="none" stroke="#191970" d="M1411.6615,-664.7554C1767.9976,-645.5554 2882.633,-579.8357 3232,-492 3308.2936,-472.8187 3342.6907,-481.7569 3395,-423 3421.3257,-393.4295 3420,-377.0911 3420,-337.5 3420,-337.5 3420,-337.5 3420,-268.5 3420,-212.6797 3378.8395,-206.0487 3328,-183 3185.5768,-118.4308 3132.9061,-168.3926 2978,-147 2960.0105,-144.5156 2940.2077,-141.1738 2923.3591,-138.1474"/>
<polygon fill="#191970" stroke="#191970" points="2923.758,-134.6626 2913.2927,-136.3143 2922.5039,-141.5493 2923.758,-134.6626"/>
</g>
<!-- Node24 -->
<g id="node24" class="node">
<title>Node24</title>
<polygon fill="none" stroke="#bfbfbf" points="545.5,-120.5 545.5,-140.5 590.5,-140.5 590.5,-120.5 545.5,-120.5"/>
<text text-anchor="middle" x="568" y="-127.5" font-family="FreeSans" font-size="10.00" fill="#000000">utility</text>
</g>
<!-- Node1&#45;&gt;Node24 -->
<g id="edge108" class="edge">
<title>Node1&#45;&gt;Node24</title>
<path fill="none" stroke="#191970" d="M1190.3582,-665.5404C875.9805,-650.7219 0,-604.0855 0,-544.5 0,-544.5 0,-544.5 0,-406.5 0,-274.0874 77.3219,-239.6591 197,-183 256.8041,-154.687 455.8387,-138.2196 535.0585,-132.6505"/>
<polygon fill="#191970" stroke="#191970" points="535.6789,-136.1161 545.4146,-131.9369 535.1977,-129.1327 535.6789,-136.1161"/>
</g>
<!-- Node44 -->
<g id="node44" class="node">
<title>Node44</title>
<g id="a_node44"><a xlink:href="../../d4/dd8/VolumeBounds_8hpp.html" target="_top" xlink:title="Acts/Geometry/VolumeBounds.hpp">
<polygon fill="none" stroke="#000000" points="2006,-534.5 2006,-554.5 2200,-554.5 2200,-534.5 2006,-534.5"/>
<text text-anchor="middle" x="2103" y="-541.5" font-family="FreeSans" font-size="10.00" fill="#000000">Acts/Geometry/VolumeBounds.hpp</text>
</a>
</g>
</g>
<!-- Node1&#45;&gt;Node44 -->
<g id="edge110" class="edge">
<title>Node1&#45;&gt;Node44</title>
<path fill="none" stroke="#191970" d="M1402.9808,-654.4781C1566.9583,-628.716 1885.3774,-578.6901 2029.2618,-556.0848"/>
<polygon fill="#191970" stroke="#191970" points="2029.9798,-559.515 2039.3153,-554.5053 2028.8933,-552.5998 2029.9798,-559.515"/>
</g>
<!-- Node45 -->
<g id="node45" class="node">
<title>Node45</title>
<g id="a_node45"><a xlink:href="../../d8/ddd/Surface_8hpp.html" target="_top" xlink:title="Acts/Surfaces/Surface.hpp">
<polygon fill="none" stroke="#000000" points="617,-465.5 617,-485.5 767,-485.5 767,-465.5 617,-465.5"/>
<text text-anchor="middle" x="692" y="-472.5" font-family="FreeSans" font-size="10.00" fill="#000000">Acts/Surfaces/Surface.hpp</text>
</a>
</g>
</g>
<!-- Node1&#45;&gt;Node45 -->
<g id="edge118" class="edge">
<title>Node1&#45;&gt;Node45</title>
<path fill="none" stroke="#191970" d="M1247.7813,-654.4102C1213.9987,-644.1349 1169.382,-630.4509 1130,-618 982.9676,-571.5148 808.9106,-514.2025 731.9762,-488.7526"/>
<polygon fill="#191970" stroke="#191970" points="732.8055,-485.3404 722.2122,-485.5212 730.6061,-491.9859 732.8055,-485.3404"/>
</g>
<!-- Node3 -->
<g id="node3" class="node">
<title>Node3</title>
<polygon fill="none" stroke="#bfbfbf" points="2045.5,-57.5 2045.5,-77.5 2094.5,-77.5 2094.5,-57.5 2045.5,-57.5"/>
<text text-anchor="middle" x="2070" y="-64.5" font-family="FreeSans" font-size="10.00" fill="#000000">vector</text>
</g>
<!-- Node2&#45;&gt;Node3 -->
<g id="edge2" class="edge">
<title>Node2&#45;&gt;Node3</title>
<path fill="none" stroke="#191970" d="M1337.2512,-606.3463C1687.756,-601.5576 2866.0089,-579.199 3232,-492 3350.3595,-463.8003 3458,-459.1725 3458,-337.5 3458,-337.5 3458,-337.5 3458,-199.5 3458,-170.7831 3610.9716,-177.879 2982,-114 2641.3376,-79.4019 2226.3395,-70.0848 2104.9171,-68.0173"/>
<polygon fill="#191970" stroke="#191970" points="2104.7919,-64.5148 2094.7355,-67.8494 2104.6764,-71.5139 2104.7919,-64.5148"/>
</g>
<!-- Node2&#45;&gt;Node4 -->
<g id="edge3" class="edge">
<title>Node2&#45;&gt;Node4</title>
<path fill="none" stroke="#191970" d="M1257.7621,-597.378C1274.5621,-588.7731 1299.2297,-576.1384 1320.2398,-565.3772"/>
<polygon fill="#191970" stroke="#191970" points="1321.9846,-568.4159 1329.2895,-560.742 1318.7934,-562.1856 1321.9846,-568.4159"/>
</g>
<!-- Node10 -->
<g id="node10" class="node">
<title>Node10</title>
<g id="a_node10"><a xlink:href="../../d6/d0f/Volume_8hpp.html" target="_top" xlink:title="Acts/Geometry/Volume.hpp">
<polygon fill="none" stroke="#000000" points="1160,-465.5 1160,-485.5 1316,-485.5 1316,-465.5 1160,-465.5"/>
<text text-anchor="middle" x="1238" y="-472.5" font-family="FreeSans" font-size="10.00" fill="#000000">Acts/Geometry/Volume.hpp</text>
</a>
</g>
</g>
<!-- Node2&#45;&gt;Node10 -->
<g id="edge105" class="edge">
<title>Node2&#45;&gt;Node10</title>
<path fill="none" stroke="#191970" d="M1238,-597.1422C1238,-575.3584 1238,-524.4618 1238,-495.8882"/>
<polygon fill="#191970" stroke="#191970" points="1241.5001,-495.8097 1238,-485.8097 1234.5001,-495.8097 1241.5001,-495.8097"/>
</g>
<!-- Node17 -->
<g id="node17" class="node">
<title>Node17</title>
<g id="a_node17"><a xlink:href="../../d6/d1d/Definitions_8hpp.html" target="_top" xlink:title="Acts/Utilities/Definitions.hpp">
<polygon fill="none" stroke="#000000" points="975,-57.5 975,-77.5 1135,-77.5 1135,-57.5 975,-57.5"/>
<text text-anchor="middle" x="1055" y="-64.5" font-family="FreeSans" font-size="10.00" fill="#000000">Acts/Utilities/Definitions.hpp</text>
</a>
</g>
</g>
<!-- Node2&#45;&gt;Node17 -->
<g id="edge106" class="edge">
<title>Node2&#45;&gt;Node17</title>
<path fill="none" stroke="#191970" d="M1224.4622,-597.2069C1190.9687,-571.1799 1103.0354,-499.3584 1049,-423 1029.4731,-395.4062 1028.2064,-385.8925 1017,-354 981.6385,-253.3643 968.3701,-209.443 1016,-114 1021.2929,-103.3939 1029.4655,-93.1295 1036.9646,-84.9548"/>
<polygon fill="#191970" stroke="#191970" points="1039.6895,-87.171 1044.1077,-77.5413 1034.6487,-82.314 1039.6895,-87.171"/>
</g>
<!-- Node5 -->
<g id="node5" class="node">
<title>Node5</title>
<polygon fill="none" stroke="#bfbfbf" points="1130,-120.5 1130,-140.5 1188,-140.5 1188,-120.5 1130,-120.5"/>
<text text-anchor="middle" x="1159" y="-127.5" font-family="FreeSans" font-size="10.00" fill="#000000">memory</text>
</g>
<!-- Node4&#45;&gt;Node5 -->
<g id="edge4" class="edge">
<title>Node4&#45;&gt;Node5</title>
<path fill="none" stroke="#191970" d="M1360.8836,-528.4068C1359.6362,-486.7267 1350.0868,-374.7742 1285,-321 1245.0176,-287.9669 1206.4892,-325.4256 1174,-285 1142.7399,-246.1038 1148.8537,-182.6444 1154.6301,-150.5052"/>
<polygon fill="#191970" stroke="#191970" points="1158.0953,-151.0234 1156.5974,-140.535 1151.2277,-149.6683 1158.0953,-151.0234"/>
</g>
<!-- Node6 -->
<g id="node6" class="node">
<title>Node6</title>
<g id="a_node6"><a xlink:href="../../de/d2c/BoundarySurfaceFace_8hpp.html" target="_top" xlink:title="Acts/Geometry/BoundarySurface\lFace.hpp">
<polygon fill="none" stroke="#000000" points="2806.5,-459.5 2806.5,-491.5 2989.5,-491.5 2989.5,-459.5 2806.5,-459.5"/>
<text text-anchor="start" x="2814.5" y="-478.5" font-family="FreeSans" font-size="10.00" fill="#000000">Acts/Geometry/BoundarySurface</text>
<text text-anchor="middle" x="2898" y="-466.5" font-family="FreeSans" font-size="10.00" fill="#000000">Face.hpp</text>
</a>
</g>
</g>
<!-- Node4&#45;&gt;Node6 -->
<g id="edge5" class="edge">
<title>Node4&#45;&gt;Node6</title>
<path fill="none" stroke="#191970" d="M1452.5434,-540.3904C1722.4169,-528.275 2513.6034,-492.7566 2796.2098,-480.0696"/>
<polygon fill="#191970" stroke="#191970" points="2796.6192,-483.5549 2806.4521,-479.6098 2796.3052,-476.5619 2796.6192,-483.5549"/>
</g>
<!-- Node8 -->
<g id="node8" class="node">
<title>Node8</title>
<g id="a_node8"><a xlink:href="../../d1/db8/GeometryContext_8hpp.html" target="_top" xlink:title="Acts/Geometry/GeometryContext.hpp">
<polygon fill="none" stroke="#000000" points="532,-258.5 532,-278.5 740,-278.5 740,-258.5 532,-258.5"/>
<text text-anchor="middle" x="636" y="-265.5" font-family="FreeSans" font-size="10.00" fill="#000000">Acts/Geometry/GeometryContext.hpp</text>
</a>
</g>
</g>
<!-- Node4&#45;&gt;Node8 -->
<g id="edge7" class="edge">
<title>Node4&#45;&gt;Node8</title>
<path fill="none" stroke="#191970" d="M1269.0805,-541.2016C1022.5375,-531.3717 361.1438,-498.1619 301,-423 291.8365,-411.5483 295.0622,-403.4109 301,-390 305.6176,-379.571 366.8238,-326.1509 377,-321 407.6475,-305.487 491.0541,-290.1598 555.0148,-280.1086"/>
<polygon fill="#191970" stroke="#191970" points="555.7579,-283.5352 565.1021,-278.5415 554.6833,-276.6182 555.7579,-283.5352"/>
</g>
<!-- Node4&#45;&gt;Node10 -->
<g id="edge9" class="edge">
<title>Node4&#45;&gt;Node10</title>
<path fill="none" stroke="#191970" d="M1332.4722,-528.4966C1312.1322,-517.0863 1284.9606,-501.8437 1264.9795,-490.6348"/>
<polygon fill="#191970" stroke="#191970" points="1266.5168,-487.4842 1256.083,-485.6441 1263.092,-493.5892 1266.5168,-487.4842"/>
</g>
<!-- Node4&#45;&gt;Node17 -->
<g id="edge104" class="edge">
<title>Node4&#45;&gt;Node17</title>
<path fill="none" stroke="#191970" d="M1269.1404,-542.6988C1041.3239,-537.7893 462.7808,-522.4564 381,-492 334.0962,-474.5323 314.0249,-467.9443 292,-423 270.426,-378.9759 296.0962,-352.0943 334,-321 476.4353,-204.1534 565.4819,-288.1426 735,-216 805.1778,-186.1341 804.1043,-146.7151 873,-114 906.9182,-97.8939 947.1406,-86.8695 981.136,-79.6137"/>
<polygon fill="#191970" stroke="#191970" points="981.9242,-83.0248 991.0092,-77.5738 980.5078,-76.1696 981.9242,-83.0248"/>
</g>
<!-- Node41 -->
<g id="node41" class="node">
<title>Node41</title>
<g id="a_node41"><a xlink:href="../../d5/d50/BinnedArray_8hpp.html" target="_top" xlink:title="Acts/Utilities/BinnedArray.hpp">
<polygon fill="none" stroke="#000000" points="1854.5,-396.5 1854.5,-416.5 2021.5,-416.5 2021.5,-396.5 1854.5,-396.5"/>
<text text-anchor="middle" x="1938" y="-403.5" font-family="FreeSans" font-size="10.00" fill="#000000">Acts/Utilities/BinnedArray.hpp</text>
</a>
</g>
</g>
<!-- Node4&#45;&gt;Node41 -->
<g id="edge84" class="edge">
<title>Node4&#45;&gt;Node41</title>
<path fill="none" stroke="#191970" d="M1428.0355,-528.4673C1544.2863,-500.6638 1780.8868,-444.0765 1885.8453,-418.9737"/>
<polygon fill="#191970" stroke="#191970" points="1886.9718,-422.3031 1895.8833,-416.573 1885.3434,-415.4951 1886.9718,-422.3031"/>
</g>
<!-- Node6&#45;&gt;Node7 -->
<g id="edge6" class="edge">
<title>Node6&#45;&gt;Node7</title>
<path fill="none" stroke="#191970" d="M2989.6933,-469.2211C3097.141,-460.9117 3263.0324,-444.7373 3282,-423 3353.0041,-341.6278 3324.9594,-254.4744 3244,-183 3220.1947,-161.9837 3012.1187,-141.6743 2923.1107,-133.8633"/>
<polygon fill="#191970" stroke="#191970" points="2923.3825,-130.3738 2913.117,-132.995 2922.7765,-137.3476 2923.3825,-130.3738"/>
</g>
<!-- Node9 -->
<g id="node9" class="node">
<title>Node9</title>
<polygon fill="none" stroke="#bfbfbf" points="820.5,-189.5 820.5,-209.5 855.5,-209.5 855.5,-189.5 820.5,-189.5"/>
<text text-anchor="middle" x="838" y="-196.5" font-family="FreeSans" font-size="10.00" fill="#000000">any</text>
</g>
<!-- Node8&#45;&gt;Node9 -->
<g id="edge8" class="edge">
<title>Node8&#45;&gt;Node9</title>
<path fill="none" stroke="#191970" d="M675.5097,-258.4297C710.4122,-249.034 762.3919,-233.8133 806,-216 807.6311,-215.3337 809.2909,-214.6142 810.9534,-213.8611"/>
<polygon fill="#191970" stroke="#191970" points="812.8505,-216.831 820.3224,-209.3196 809.7971,-210.5321 812.8505,-216.831"/>
</g>
<!-- Node10&#45;&gt;Node5 -->
<g id="edge10" class="edge">
<title>Node10&#45;&gt;Node5</title>
<path fill="none" stroke="#191970" d="M1260.2002,-465.4782C1276.4578,-456.8011 1297.3067,-442.5555 1307,-423 1313.5137,-409.8591 1311.7807,-403.8656 1307,-390 1294.3068,-353.1852 1285.082,-343.0723 1253,-321 1208.1777,-290.1624 1168.3226,-328.7635 1136,-285 1106.0521,-244.4518 1131.7211,-181.3313 1148.0289,-149.7964"/>
<polygon fill="#191970" stroke="#191970" points="1151.2486,-151.1997 1152.9124,-140.7363 1145.0867,-147.8784 1151.2486,-151.1997"/>
</g>
<!-- Node10&#45;&gt;Node8 -->
<g id="edge11" class="edge">
<title>Node10&#45;&gt;Node8</title>
<path fill="none" stroke="#191970" d="M1159.9717,-469.497C1050.5887,-460.5451 857.4854,-442.6331 790,-423 781.5302,-420.5359 652.1582,-361.1555 647,-354 633.3105,-335.0096 632.2433,-307.305 633.4844,-288.6254"/>
<polygon fill="#191970" stroke="#191970" points="636.979,-288.8462 634.4334,-278.5618 630.01,-288.189 636.979,-288.8462"/>
</g>
<!-- Node11 -->
<g id="node11" class="node">
<title>Node11</title>
<g id="a_node11"><a xlink:href="../../da/de0/GeometryObject_8hpp.html" target="_top" xlink:title="Acts/Geometry/GeometryObject.hpp">
<polygon fill="none" stroke="#000000" points="1096.5,-396.5 1096.5,-416.5 1297.5,-416.5 1297.5,-396.5 1096.5,-396.5"/>
<text text-anchor="middle" x="1197" y="-403.5" font-family="FreeSans" font-size="10.00" fill="#000000">Acts/Geometry/GeometryObject.hpp</text>
</a>
</g>
</g>
<!-- Node10&#45;&gt;Node11 -->
<g id="edge12" class="edge">
<title>Node10&#45;&gt;Node11</title>
<path fill="none" stroke="#191970" d="M1231.9503,-465.3188C1225.7732,-454.9231 1216.0344,-438.5336 1208.4043,-425.6927"/>
<polygon fill="#191970" stroke="#191970" points="1211.1917,-423.5319 1203.0745,-416.723 1205.1739,-427.1077 1211.1917,-423.5319"/>
</g>
<!-- Node10&#45;&gt;Node17 -->
<g id="edge83" class="edge">
<title>Node10&#45;&gt;Node17</title>
<path fill="none" stroke="#191970" d="M1186.9338,-465.4147C1156.1718,-457.5359 1117.3968,-444.2647 1088,-423 1056.6687,-400.3359 1051.279,-389.0756 1035,-354 990.089,-257.2325 997.0035,-215.1196 1031,-114 1034.1629,-104.5923 1038.9971,-94.7456 1043.5002,-86.5478"/>
<polygon fill="#191970" stroke="#191970" points="1046.5743,-88.2228 1048.5142,-77.807 1040.5024,-84.7396 1046.5743,-88.2228"/>
</g>
<!-- Node31 -->
<g id="node31" class="node">
<title>Node31</title>
<g id="a_node31"><a xlink:href="../../d5/dc6/GeometryStatics_8hpp.html" target="_top" xlink:title="Acts/Geometry/GeometryStatics.hpp">
<polygon fill="none" stroke="#000000" points="798.5,-396.5 798.5,-416.5 1001.5,-416.5 1001.5,-396.5 798.5,-396.5"/>
<text text-anchor="middle" x="900" y="-403.5" font-family="FreeSans" font-size="10.00" fill="#000000">Acts/Geometry/GeometryStatics.hpp</text>
</a>
</g>
</g>
<!-- Node10&#45;&gt;Node31 -->
<g id="edge56" class="edge">
<title>Node10&#45;&gt;Node31</title>
<path fill="none" stroke="#191970" d="M1188.8519,-465.4668C1128.0236,-453.0492 1024.5161,-431.919 959.3283,-418.6114"/>
<polygon fill="#191970" stroke="#191970" points="959.7054,-415.1163 949.2074,-416.5453 958.3053,-421.9748 959.7054,-415.1163"/>
</g>
<!-- Node32 -->
<g id="node32" class="node">
<title>Node32</title>
<g id="a_node32"><a xlink:href="../../d9/db6/BoundingBox_8hpp.html" target="_top" xlink:title="Acts/Utilities/BoundingBox.hpp">
<polygon fill="none" stroke="#000000" points="2455.5,-396.5 2455.5,-416.5 2628.5,-416.5 2628.5,-396.5 2455.5,-396.5"/>
<text text-anchor="middle" x="2542" y="-403.5" font-family="FreeSans" font-size="10.00" fill="#000000">Acts/Utilities/BoundingBox.hpp</text>
</a>
</g>
</g>
<!-- Node10&#45;&gt;Node32 -->
<g id="edge58" class="edge">
<title>Node10&#45;&gt;Node32</title>
<path fill="none" stroke="#191970" d="M1316.1496,-471.3648C1542.2806,-459.3993 2196.898,-424.7608 2445.0655,-411.6292"/>
<polygon fill="#191970" stroke="#191970" points="2445.3478,-415.1193 2455.1488,-411.0957 2444.9778,-408.129 2445.3478,-415.1193"/>
</g>
<!-- Node11&#45;&gt;Node8 -->
<g id="edge13" class="edge">
<title>Node11&#45;&gt;Node8</title>
<path fill="none" stroke="#191970" d="M1096.4415,-397.6222C947.4279,-384.2909 684.4875,-360.0186 676,-354 654.4567,-338.7233 644.1855,-308.7976 639.5318,-288.7205"/>
<polygon fill="#191970" stroke="#191970" points="642.9224,-287.8306 637.4885,-278.7353 636.0645,-289.234 642.9224,-287.8306"/>
</g>
<!-- Node12 -->
<g id="node12" class="node">
<title>Node12</title>
<g id="a_node12"><a xlink:href="../../d3/d69/GeometryID_8hpp.html" target="_top" xlink:title="Acts/Geometry/GeometryID.hpp">
<polygon fill="none" stroke="#ff0000" points="1064.5,-327.5 1064.5,-347.5 1243.5,-347.5 1243.5,-327.5 1064.5,-327.5"/>
<text text-anchor="middle" x="1154" y="-334.5" font-family="FreeSans" font-size="10.00" fill="#000000">Acts/Geometry/GeometryID.hpp</text>
</a>
</g>
</g>
<!-- Node11&#45;&gt;Node12 -->
<g id="edge14" class="edge">
<title>Node11&#45;&gt;Node12</title>
<path fill="none" stroke="#191970" d="M1190.6552,-396.3188C1184.1132,-385.8212 1173.7623,-369.2116 1165.7259,-356.316"/>
<polygon fill="#191970" stroke="#191970" points="1168.6302,-354.3587 1160.3708,-347.723 1162.6894,-358.061 1168.6302,-354.3587"/>
</g>
<!-- Node13 -->
<g id="node13" class="node">
<title>Node13</title>
<g id="a_node13"><a xlink:href="../../db/d40/Polyhedron_8hpp.html" target="_top" xlink:title="Acts/Geometry/Polyhedron.hpp">
<polygon fill="none" stroke="#000000" points="1452.5,-327.5 1452.5,-347.5 1627.5,-347.5 1627.5,-327.5 1452.5,-327.5"/>
<text text-anchor="middle" x="1540" y="-334.5" font-family="FreeSans" font-size="10.00" fill="#000000">Acts/Geometry/Polyhedron.hpp</text>
</a>
</g>
</g>
<!-- Node11&#45;&gt;Node13 -->
<g id="edge15" class="edge">
<title>Node11&#45;&gt;Node13</title>
<path fill="none" stroke="#191970" d="M1246.8751,-396.4668C1308.7303,-384.0237 1414.0744,-362.832 1480.202,-349.5293"/>
<polygon fill="#191970" stroke="#191970" points="1480.9513,-352.9488 1490.0647,-347.5453 1479.5708,-346.0863 1480.9513,-352.9488"/>
</g>
<!-- Node15 -->
<g id="node15" class="node">
<title>Node15</title>
<g id="a_node15"><a xlink:href="../../de/d09/BinningType_8hpp.html" target="_top" xlink:title="Acts/Utilities/BinningType.hpp">
<polygon fill="none" stroke="#000000" points="2470,-120.5 2470,-140.5 2638,-140.5 2638,-120.5 2470,-120.5"/>
<text text-anchor="middle" x="2554" y="-127.5" font-family="FreeSans" font-size="10.00" fill="#000000">Acts/Utilities/BinningType.hpp</text>
</a>
</g>
</g>
<!-- Node11&#45;&gt;Node15 -->
<g id="edge53" class="edge">
<title>Node11&#45;&gt;Node15</title>
<path fill="none" stroke="#191970" d="M1297.6241,-404.113C1633.1794,-396.0175 2694.6305,-369.2619 2727,-354 2774.7774,-331.4735 2815.4262,-297.1434 2788,-252 2750.4446,-190.1839 2670.1007,-158.3889 2614.0975,-143.1055"/>
<polygon fill="#191970" stroke="#191970" points="2614.8489,-139.6842 2604.2877,-140.5283 2613.0701,-146.4545 2614.8489,-139.6842"/>
</g>
<!-- Node11&#45;&gt;Node17 -->
<g id="edge54" class="edge">
<title>Node11&#45;&gt;Node17</title>
<path fill="none" stroke="#191970" d="M1154.9552,-396.4705C1117.7829,-386.6533 1067.6912,-370.7659 1056,-354 997.6876,-270.3763 1032.1073,-137.0074 1048.1498,-87.1514"/>
<polygon fill="#191970" stroke="#191970" points="1051.4989,-88.172 1051.3405,-77.5784 1044.858,-85.9586 1051.4989,-88.172"/>
</g>
<!-- Node19 -->
<g id="node19" class="node">
<title>Node19</title>
<g id="a_node19"><a xlink:href="../../d9/d70/Core_2include_2Acts_2Utilities_2Helpers_8hpp.html" target="_top" xlink:title="Acts/Utilities/Helpers.hpp">
<polygon fill="none" stroke="#ff0000" points="1812.5,-189.5 1812.5,-209.5 1957.5,-209.5 1957.5,-189.5 1812.5,-189.5"/>
<text text-anchor="middle" x="1885" y="-196.5" font-family="FreeSans" font-size="10.00" fill="#000000">Acts/Utilities/Helpers.hpp</text>
</a>
</g>
</g>
<!-- Node11&#45;&gt;Node19 -->
<g id="edge55" class="edge">
<title>Node11&#45;&gt;Node19</title>
<path fill="none" stroke="#191970" d="M1297.8479,-397.5932C1492.8105,-379.3225 1905.8669,-335.0832 1946,-285 1964.7873,-261.5548 1934.1223,-232.8714 1909.879,-215.4045"/>
<polygon fill="#191970" stroke="#191970" points="1911.5586,-212.3109 1901.3414,-209.5073 1907.5802,-218.0705 1911.5586,-212.3109"/>
</g>
<!-- Node13&#45;&gt;Node3 -->
<g id="edge52" class="edge">
<title>Node13&#45;&gt;Node3</title>
<path fill="none" stroke="#191970" d="M1627.6099,-334.0205C1730.3987,-328.5936 1893.4778,-315.3859 1946,-285 2012.7091,-246.4066 2017.9988,-216.6453 2051,-147 2059.9858,-128.0366 2064.9301,-104.4548 2067.5038,-87.9175"/>
<polygon fill="#191970" stroke="#191970" points="2071.0086,-88.1258 2068.9273,-77.7374 2064.0761,-87.1563 2071.0086,-88.1258"/>
</g>
<!-- Node14 -->
<g id="node14" class="node">
<title>Node14</title>
<g id="a_node14"><a xlink:href="../../dc/d2a/Extent_8hpp.html" target="_top" xlink:title="Acts/Geometry/Extent.hpp">
<polygon fill="none" stroke="#ff0000" points="1768.5,-258.5 1768.5,-278.5 1919.5,-278.5 1919.5,-258.5 1768.5,-258.5"/>
<text text-anchor="middle" x="1844" y="-265.5" font-family="FreeSans" font-size="10.00" fill="#000000">Acts/Geometry/Extent.hpp</text>
</a>
</g>
</g>
<!-- Node13&#45;&gt;Node14 -->
<g id="edge16" class="edge">
<title>Node13&#45;&gt;Node14</title>
<path fill="none" stroke="#191970" d="M1584.2042,-327.4668C1638.6885,-315.1003 1731.2436,-294.0927 1789.9141,-280.7761"/>
<polygon fill="#191970" stroke="#191970" points="1790.7652,-284.172 1799.7424,-278.5453 1789.2157,-277.3456 1790.7652,-284.172"/>
</g>
<!-- Node13&#45;&gt;Node17 -->
<g id="edge48" class="edge">
<title>Node13&#45;&gt;Node17</title>
<path fill="none" stroke="#191970" d="M1487.8183,-327.4495C1439.473,-317.369 1371.8445,-301.074 1350,-285 1277.215,-231.442 1313.405,-166.7051 1240,-114 1221.3678,-100.622 1168.7322,-88.1068 1124.3476,-79.4377"/>
<polygon fill="#191970" stroke="#191970" points="1124.9172,-75.9833 1114.437,-77.5381 1123.5993,-82.8581 1124.9172,-75.9833"/>
</g>
<!-- Node13&#45;&gt;Node19 -->
<g id="edge49" class="edge">
<title>Node13&#45;&gt;Node19</title>
<path fill="none" stroke="#191970" d="M1627.6932,-331.696C1736.2969,-323.5986 1909.4626,-307.3513 1929,-285 1947.0572,-264.342 1923.7925,-234.9679 1904.8215,-216.5843"/>
<polygon fill="#191970" stroke="#191970" points="1907.0603,-213.8873 1897.3439,-209.6632 1902.3053,-219.0245 1907.0603,-213.8873"/>
</g>
<!-- Node25 -->
<g id="node25" class="node">
<title>Node25</title>
<g id="a_node25"><a xlink:href="../../d7/d50/BoundaryCheck_8hpp.html" target="_top" xlink:title="Acts/Surfaces/BoundaryCheck.hpp">
<polygon fill="none" stroke="#000000" points="152,-258.5 152,-278.5 344,-278.5 344,-258.5 152,-258.5"/>
<text text-anchor="middle" x="248" y="-265.5" font-family="FreeSans" font-size="10.00" fill="#000000">Acts/Surfaces/BoundaryCheck.hpp</text>
</a>
</g>
</g>
<!-- Node13&#45;&gt;Node25 -->
<g id="edge37" class="edge">
<title>Node13&#45;&gt;Node25</title>
<path fill="none" stroke="#191970" d="M1452.4014,-332.2782C1395.568,-328.9362 1319.907,-324.573 1253,-321 928.6235,-303.6776 847.3546,-302.7279 523,-285 467.2579,-281.9534 405.1796,-278.2549 354.1302,-275.1323"/>
<polygon fill="#191970" stroke="#191970" points="354.2679,-271.6343 344.0725,-274.5159 353.8396,-278.6212 354.2679,-271.6343"/>
</g>
<!-- Node29 -->
<g id="node29" class="node">
<title>Node29</title>
<polygon fill="none" stroke="#bfbfbf" points="2204.5,-189.5 2204.5,-209.5 2247.5,-209.5 2247.5,-189.5 2204.5,-189.5"/>
<text text-anchor="middle" x="2226" y="-196.5" font-family="FreeSans" font-size="10.00" fill="#000000">array</text>
</g>
<!-- Node13&#45;&gt;Node29 -->
<g id="edge50" class="edge">
<title>Node13&#45;&gt;Node29</title>
<path fill="none" stroke="#191970" d="M1627.6003,-333.9605C1720.9935,-328.6951 1872.664,-315.8453 2000,-285 2072.245,-267.4997 2152.756,-233.2622 2195.4766,-213.8423"/>
<polygon fill="#191970" stroke="#191970" points="2197.1199,-216.9392 2204.7501,-209.5888 2194.2014,-210.5766 2197.1199,-216.9392"/>
</g>
<!-- Node30 -->
<g id="node30" class="node">
<title>Node30</title>
<polygon fill="none" stroke="#bfbfbf" points="1254,-258.5 1254,-278.5 1298,-278.5 1298,-258.5 1254,-258.5"/>
<text text-anchor="middle" x="1276" y="-265.5" font-family="FreeSans" font-size="10.00" fill="#000000">limits</text>
</g>
<!-- Node13&#45;&gt;Node30 -->
<g id="edge51" class="edge">
<title>Node13&#45;&gt;Node30</title>
<path fill="none" stroke="#191970" d="M1481.4627,-327.4245C1434.8591,-318.5946 1368.3339,-304.1725 1312,-285 1309.8847,-284.2801 1307.7263,-283.477 1305.5698,-282.6236"/>
<polygon fill="#191970" stroke="#191970" points="1306.8389,-279.3599 1296.2672,-278.6603 1304.0953,-285.7998 1306.8389,-279.3599"/>
</g>
<!-- Node14&#45;&gt;Node3 -->
<g id="edge36" class="edge">
<title>Node14&#45;&gt;Node3</title>
<path fill="none" stroke="#191970" d="M1833.0748,-258.4789C1823.3199,-248.727 1809.7169,-232.9367 1804,-216 1788.8048,-170.9835 1798.6519,-143.3684 1836,-114 1866.4979,-90.0182 1977.6723,-76.2341 2035.1133,-70.5652"/>
<polygon fill="#191970" stroke="#191970" points="2035.5613,-74.0384 2045.1819,-69.6005 2034.8937,-67.0703 2035.5613,-74.0384"/>
</g>
<!-- Node14&#45;&gt;Node15 -->
<g id="edge17" class="edge">
<title>Node14&#45;&gt;Node15</title>
<path fill="none" stroke="#191970" d="M1881.0596,-258.4687C1963.4141,-236.1859 2154.9671,-184.4102 2162,-183 2262.8777,-162.7719 2379.9624,-148.2372 2459.7211,-139.6611"/>
<polygon fill="#191970" stroke="#191970" points="2460.1728,-143.1329 2469.7459,-138.5934 2459.4314,-136.1722 2460.1728,-143.1329"/>
</g>
<!-- Node14&#45;&gt;Node17 -->
<g id="edge20" class="edge">
<title>Node14&#45;&gt;Node17</title>
<path fill="none" stroke="#191970" d="M1830.3754,-258.4457C1790.86,-229.8989 1671.8384,-148.2116 1559,-114 1484.0579,-91.2782 1269.1532,-77.6551 1145.5119,-71.4753"/>
<polygon fill="#191970" stroke="#191970" points="1145.4662,-67.9689 1135.3059,-70.9718 1145.1212,-74.9604 1145.4662,-67.9689"/>
</g>
<!-- Node14&#45;&gt;Node19 -->
<g id="edge22" class="edge">
<title>Node14&#45;&gt;Node19</title>
<path fill="none" stroke="#191970" d="M1850.0497,-258.3188C1856.2268,-247.9231 1865.9656,-231.5336 1873.5957,-218.6927"/>
<polygon fill="#191970" stroke="#191970" points="1876.8261,-220.1077 1878.9255,-209.723 1870.8083,-216.5319 1876.8261,-220.1077"/>
</g>
<!-- Node14&#45;&gt;Node24 -->
<g id="edge35" class="edge">
<title>Node14&#45;&gt;Node24</title>
<path fill="none" stroke="#191970" d="M1779.2373,-258.4864C1760.7865,-255.9748 1740.6369,-253.5552 1722,-252 1659.8506,-246.8139 650.6718,-252.3567 600,-216 579.1384,-201.0319 571.8653,-170.7692 569.3368,-150.5631"/>
<polygon fill="#191970" stroke="#191970" points="572.8131,-150.1485 568.3641,-140.5331 565.8458,-150.8243 572.8131,-150.1485"/>
</g>
<!-- Node15&#45;&gt;Node3 -->
<g id="edge19" class="edge">
<title>Node15&#45;&gt;Node3</title>
<path fill="none" stroke="#191970" d="M2497.3263,-120.4934C2483.8037,-118.2345 2469.405,-115.9348 2456,-114 2326.9533,-95.374 2172.882,-78.3817 2105.0241,-71.1625"/>
<polygon fill="#191970" stroke="#191970" points="2105.2036,-67.662 2094.8906,-70.089 2104.4662,-74.6231 2105.2036,-67.662"/>
</g>
<!-- Node16 -->
<g id="node16" class="node">
<title>Node16</title>
<polygon fill="none" stroke="#bfbfbf" points="2531.5,-57.5 2531.5,-77.5 2576.5,-77.5 2576.5,-57.5 2531.5,-57.5"/>
<text text-anchor="middle" x="2554" y="-64.5" font-family="FreeSans" font-size="10.00" fill="#000000">string</text>
</g>
<!-- Node15&#45;&gt;Node16 -->
<g id="edge18" class="edge">
<title>Node15&#45;&gt;Node16</title>
<path fill="none" stroke="#191970" d="M2554,-120.378C2554,-111.7041 2554,-98.9355 2554,-88.1186"/>
<polygon fill="#191970" stroke="#191970" points="2557.5001,-87.8062 2554,-77.8062 2550.5001,-87.8062 2557.5001,-87.8062"/>
</g>
<!-- Node18 -->
<g id="node18" class="node">
<title>Node18</title>
<polygon fill="none" stroke="#bfbfbf" points="1015,-.5 1015,-20.5 1095,-20.5 1095,-.5 1015,-.5"/>
<text text-anchor="middle" x="1055" y="-7.5" font-family="FreeSans" font-size="10.00" fill="#000000">Eigen/Dense</text>
</g>
<!-- Node17&#45;&gt;Node18 -->
<g id="edge21" class="edge">
<title>Node17&#45;&gt;Node18</title>
<path fill="none" stroke="#191970" d="M1055,-57.3095C1055,-49.9335 1055,-39.72 1055,-30.715"/>
<polygon fill="#191970" stroke="#191970" points="1058.5001,-30.6022 1055,-20.6022 1051.5001,-30.6023 1058.5001,-30.6022"/>
</g>
<!-- Node19&#45;&gt;Node3 -->
<g id="edge29" class="edge">
<title>Node19&#45;&gt;Node3</title>
<path fill="none" stroke="#191970" d="M1889.2197,-189.2749C1897.0501,-171.5017 1915.4801,-134.8223 1942,-114 1969.3725,-92.5082 2007.585,-80.3581 2035.1223,-73.9124"/>
<polygon fill="#191970" stroke="#191970" points="2036.0953,-77.2821 2045.1088,-71.7137 2034.5901,-70.4458 2036.0953,-77.2821"/>
</g>
<!-- Node19&#45;&gt;Node5 -->
<g id="edge27" class="edge">
<title>Node19&#45;&gt;Node5</title>
<path fill="none" stroke="#191970" d="M1812.3995,-192.6C1660.912,-178.2024 1315.5194,-145.3758 1198.5628,-134.2601"/>
<polygon fill="#191970" stroke="#191970" points="1198.5762,-130.7457 1188.2899,-133.2837 1197.9138,-137.7143 1198.5762,-130.7457"/>
</g>
<!-- Node19&#45;&gt;Node7 -->
<g id="edge26" class="edge">
<title>Node19&#45;&gt;Node7</title>
<path fill="none" stroke="#191970" d="M1957.5639,-191.5134C1985.773,-188.5768 2018.373,-185.3888 2048,-183 2313.8399,-161.5654 2380.8591,-164.3008 2647,-147 2715.7776,-142.529 2795.7927,-136.8298 2842.7603,-133.4336"/>
<polygon fill="#191970" stroke="#191970" points="2843.1096,-136.9175 2852.8306,-132.7041 2842.6038,-129.9358 2843.1096,-136.9175"/>
</g>
<!-- Node19&#45;&gt;Node15 -->
<g id="edge30" class="edge">
<title>Node19&#45;&gt;Node15</title>
<path fill="none" stroke="#191970" d="M1957.6548,-189.4721C1974.8057,-187.2262 1993.0364,-184.9376 2010,-183 2167.3062,-165.0328 2350.6726,-148.1825 2459.2902,-138.627"/>
<polygon fill="#191970" stroke="#191970" points="2459.9092,-142.0862 2469.5649,-137.7252 2459.2972,-135.113 2459.9092,-142.0862"/>
</g>
<!-- Node19&#45;&gt;Node16 -->
<g id="edge28" class="edge">
<title>Node19&#45;&gt;Node16</title>
<path fill="none" stroke="#191970" d="M1895.7441,-189.4445C1907.0237,-178.8837 1925.271,-161.788 1941,-147 1956.5764,-132.3555 1956.4623,-122.6813 1976,-114 2025.8534,-91.8482 2405.6627,-73.872 2520.9331,-68.8814"/>
<polygon fill="#191970" stroke="#191970" points="2521.4017,-72.3646 2531.2425,-68.4393 2521.1017,-65.371 2521.4017,-72.3646"/>
</g>
<!-- Node19&#45;&gt;Node17 -->
<g id="edge31" class="edge">
<title>Node19&#45;&gt;Node17</title>
<path fill="none" stroke="#191970" d="M1869.8067,-189.2938C1840.922,-170.5021 1775.4691,-130.8167 1714,-114 1609.5059,-85.4124 1300.3801,-73.695 1145.5302,-69.5168"/>
<polygon fill="#191970" stroke="#191970" points="1145.1941,-66.0068 1135.1049,-69.2406 1145.0087,-73.0043 1145.1941,-66.0068"/>
</g>
<!-- Node20 -->
<g id="node20" class="node">
<title>Node20</title>
<polygon fill="none" stroke="#bfbfbf" points="1844.5,-120.5 1844.5,-140.5 1889.5,-140.5 1889.5,-120.5 1844.5,-120.5"/>
<text text-anchor="middle" x="1867" y="-127.5" font-family="FreeSans" font-size="10.00" fill="#000000">bitset</text>
</g>
<!-- Node19&#45;&gt;Node20 -->
<g id="edge23" class="edge">
<title>Node19&#45;&gt;Node20</title>
<path fill="none" stroke="#191970" d="M1882.344,-189.3188C1879.6853,-179.1269 1875.5236,-163.174 1872.2049,-150.4521"/>
<polygon fill="#191970" stroke="#191970" points="1875.5778,-149.5156 1869.6669,-140.723 1868.8045,-151.2826 1875.5778,-149.5156"/>
</g>
<!-- Node21 -->
<g id="node21" class="node">
<title>Node21</title>
<polygon fill="none" stroke="#bfbfbf" points="203,-57.5 203,-77.5 251,-77.5 251,-57.5 203,-57.5"/>
<text text-anchor="middle" x="227" y="-64.5" font-family="FreeSans" font-size="10.00" fill="#000000">cmath</text>
</g>
<!-- Node19&#45;&gt;Node21 -->
<g id="edge24" class="edge">
<title>Node19&#45;&gt;Node21</title>
<path fill="none" stroke="#191970" d="M1817.7953,-189.4303C1694.8784,-171.3966 1425.4491,-133.6424 1197,-114 831.3889,-82.5643 386.29,-70.9695 261.158,-68.2014"/>
<polygon fill="#191970" stroke="#191970" points="261.1159,-64.6997 251.0422,-67.9815 260.9637,-71.6981 261.1159,-64.6997"/>
</g>
<!-- Node22 -->
<g id="node22" class="node">
<title>Node22</title>
<polygon fill="none" stroke="#bfbfbf" points="1984.5,-120.5 1984.5,-140.5 2041.5,-140.5 2041.5,-120.5 1984.5,-120.5"/>
<text text-anchor="middle" x="2013" y="-127.5" font-family="FreeSans" font-size="10.00" fill="#000000">iomanip</text>
</g>
<!-- Node19&#45;&gt;Node22 -->
<g id="edge25" class="edge">
<title>Node19&#45;&gt;Node22</title>
<path fill="none" stroke="#191970" d="M1903.6123,-189.4668C1925.1311,-177.8668 1960.7541,-158.6638 1985.4762,-145.3371"/>
<polygon fill="#191970" stroke="#191970" points="1987.2235,-148.3713 1994.3652,-140.5453 1983.9019,-142.2096 1987.2235,-148.3713"/>
</g>
<!-- Node23 -->
<g id="node23" class="node">
<title>Node23</title>
<g id="a_node23"><a xlink:href="../../d8/dfd/ParameterDefinitions_8hpp.html" target="_top" xlink:title="Acts/Utilities/Parameter\lDefinitions.hpp">
<polygon fill="none" stroke="#ff0000" points="226,-114.5 226,-146.5 362,-146.5 362,-114.5 226,-114.5"/>
<text text-anchor="start" x="234" y="-133.5" font-family="FreeSans" font-size="10.00" fill="#000000">Acts/Utilities/Parameter</text>
<text text-anchor="middle" x="294" y="-121.5" font-family="FreeSans" font-size="10.00" fill="#000000">Definitions.hpp</text>
</a>
</g>
</g>
<!-- Node19&#45;&gt;Node23 -->
<g id="edge32" class="edge">
<title>Node19&#45;&gt;Node23</title>
<path fill="none" stroke="#191970" d="M1812.2701,-197.4062C1610.0148,-191.4239 1023.7457,-172.9984 537,-147 481.9268,-144.0584 419.894,-139.8311 372.2893,-136.3919"/>
<polygon fill="#191970" stroke="#191970" points="372.279,-132.882 362.0517,-135.6484 371.7719,-139.8636 372.279,-132.882"/>
</g>
<!-- Node23&#45;&gt;Node17 -->
<g id="edge34" class="edge">
<title>Node23&#45;&gt;Node17</title>
<path fill="none" stroke="#191970" d="M362.3445,-116.0555C366.9549,-115.295 371.5384,-114.5991 376,-114 585.6531,-85.8498 834.1426,-74.3308 964.6186,-69.9488"/>
<polygon fill="#191970" stroke="#191970" points="965.0769,-73.4357 974.9562,-69.6083 964.8464,-66.4395 965.0769,-73.4357"/>
</g>
<!-- Node23&#45;&gt;Node21 -->
<g id="edge33" class="edge">
<title>Node23&#45;&gt;Node21</title>
<path fill="none" stroke="#191970" d="M276.7458,-114.2759C267.0781,-105.1854 255.0286,-93.8552 245.21,-84.6229"/>
<polygon fill="#191970" stroke="#191970" points="247.585,-82.0517 237.9021,-77.7513 242.7898,-87.1514 247.585,-82.0517"/>
</g>
<!-- Node25&#45;&gt;Node3 -->
<g id="edge41" class="edge">
<title>Node25&#45;&gt;Node3</title>
<path fill="none" stroke="#191970" d="M344.1193,-261.5404C464.455,-252.2361 663.4816,-234.7301 735,-216 771.018,-206.5672 776.5682,-194.4395 812,-183 945.9094,-139.7661 981.552,-132.8453 1121,-114 1302.8046,-89.4306 1885.1279,-72.4516 2034.7093,-68.4215"/>
<polygon fill="#191970" stroke="#191970" points="2035.2102,-71.9094 2045.1131,-68.1433 2035.0231,-64.9119 2035.2102,-71.9094"/>
</g>
<!-- Node25&#45;&gt;Node17 -->
<g id="edge46" class="edge">
<title>Node25&#45;&gt;Node17</title>
<path fill="none" stroke="#191970" d="M268.5733,-258.4032C286.6757,-248.9371 313.1626,-233.6273 333,-216 376.2731,-177.5481 362.8152,-141.0412 414,-114 461.4405,-88.937 799.4612,-75.2855 964.6203,-70.0463"/>
<polygon fill="#191970" stroke="#191970" points="964.8773,-73.5401 974.7626,-69.7283 964.6578,-66.5435 964.8773,-73.5401"/>
</g>
<!-- Node25&#45;&gt;Node21 -->
<g id="edge39" class="edge">
<title>Node25&#45;&gt;Node21</title>
<path fill="none" stroke="#191970" d="M234.0268,-258.4687C209.6075,-239.8686 160.3933,-197.3103 146,-147 141.9658,-132.8991 138.651,-126.6927 146,-114 156.2144,-96.3584 175.931,-84.8296 193.3537,-77.6644"/>
<polygon fill="#191970" stroke="#191970" points="194.6066,-80.9326 202.722,-74.1216 192.1304,-74.3852 194.6066,-80.9326"/>
</g>
<!-- Node25&#45;&gt;Node23 -->
<g id="edge47" class="edge">
<title>Node25&#45;&gt;Node23</title>
<path fill="none" stroke="#191970" d="M234.3037,-258.498C214.19,-242.5371 180.7215,-210.3204 197,-183 205.1609,-169.3035 218.2741,-158.9628 232.255,-151.2438"/>
<polygon fill="#191970" stroke="#191970" points="234.19,-154.1868 241.5243,-146.541 231.0228,-147.9443 234.19,-154.1868"/>
</g>
<!-- Node26 -->
<g id="node26" class="node">
<title>Node26</title>
<polygon fill="none" stroke="#bfbfbf" points="206.5,-189.5 206.5,-209.5 251.5,-209.5 251.5,-189.5 206.5,-189.5"/>
<text text-anchor="middle" x="229" y="-196.5" font-family="FreeSans" font-size="10.00" fill="#000000">cfloat</text>
</g>
<!-- Node25&#45;&gt;Node26 -->
<g id="edge38" class="edge">
<title>Node25&#45;&gt;Node26</title>
<path fill="none" stroke="#191970" d="M245.1965,-258.3188C242.39,-248.1269 237.9972,-232.174 234.494,-219.4521"/>
<polygon fill="#191970" stroke="#191970" points="237.8443,-218.4349 231.815,-209.723 231.0955,-220.2933 237.8443,-218.4349"/>
</g>
<!-- Node27 -->
<g id="node27" class="node">
<title>Node27</title>
<polygon fill="none" stroke="#bfbfbf" points="270,-189.5 270,-209.5 324,-209.5 324,-189.5 270,-189.5"/>
<text text-anchor="middle" x="297" y="-196.5" font-family="FreeSans" font-size="10.00" fill="#000000">iterator</text>
</g>
<!-- Node25&#45;&gt;Node27 -->
<g id="edge40" class="edge">
<title>Node25&#45;&gt;Node27</title>
<path fill="none" stroke="#191970" d="M255.2301,-258.3188C262.7573,-247.7193 274.7096,-230.8885 283.9039,-217.9415"/>
<polygon fill="#191970" stroke="#191970" points="286.8038,-219.9028 289.7402,-209.723 281.0965,-215.8497 286.8038,-219.9028"/>
</g>
<!-- Node28 -->
<g id="node28" class="node">
<title>Node28</title>
<g id="a_node28"><a xlink:href="../../d4/d27/VerticesHelper_8hpp.html" target="_top" xlink:title="Acts/Surfaces/detail\l/VerticesHelper.hpp">
<polygon fill="none" stroke="#000000" points="608.5,-183.5 608.5,-215.5 725.5,-215.5 725.5,-183.5 608.5,-183.5"/>
<text text-anchor="start" x="616.5" y="-202.5" font-family="FreeSans" font-size="10.00" fill="#000000">Acts/Surfaces/detail</text>
<text text-anchor="middle" x="667" y="-190.5" font-family="FreeSans" font-size="10.00" fill="#000000">/VerticesHelper.hpp</text>
</a>
</g>
</g>
<!-- Node25&#45;&gt;Node28 -->
<g id="edge42" class="edge">
<title>Node25&#45;&gt;Node28</title>
<path fill="none" stroke="#191970" d="M308.9262,-258.4668C385.8693,-245.796 517.899,-224.0536 598.3373,-210.8072"/>
<polygon fill="#191970" stroke="#191970" points="599.0685,-214.234 608.3668,-209.1556 597.931,-207.3271 599.0685,-214.234"/>
</g>
<!-- Node28&#45;&gt;Node3 -->
<g id="edge44" class="edge">
<title>Node28&#45;&gt;Node3</title>
<path fill="none" stroke="#191970" d="M710.6827,-183.4162C768.1084,-163.1007 872.5544,-128.9883 965,-114 1178.3013,-79.4173 1870.7092,-69.7005 2034.8659,-67.8577"/>
<polygon fill="#191970" stroke="#191970" points="2035.3715,-71.3525 2045.3325,-67.743 2035.2947,-64.3529 2035.3715,-71.3525"/>
</g>
<!-- Node28&#45;&gt;Node17 -->
<g id="edge45" class="edge">
<title>Node28&#45;&gt;Node17</title>
<path fill="none" stroke="#191970" d="M682.6233,-183.328C702.7263,-163.5742 739.651,-130.7285 778,-114 810.7884,-99.6971 896.9782,-86.5151 964.589,-77.8672"/>
<polygon fill="#191970" stroke="#191970" points="965.3622,-81.2974 974.8447,-76.5717 964.4848,-74.3526 965.3622,-81.2974"/>
</g>
<!-- Node28&#45;&gt;Node24 -->
<g id="edge43" class="edge">
<title>Node28&#45;&gt;Node24</title>
<path fill="none" stroke="#191970" d="M644.0386,-183.4966C628.0377,-172.3445 606.7843,-157.5315 590.8155,-146.4017"/>
<polygon fill="#191970" stroke="#191970" points="592.7599,-143.4907 582.5546,-140.6441 588.7573,-149.2335 592.7599,-143.4907"/>
</g>
<!-- Node31&#45;&gt;Node17 -->
<g id="edge57" class="edge">
<title>Node31&#45;&gt;Node17</title>
<path fill="none" stroke="#191970" d="M897.9757,-396.3685C888.9771,-350.1313 854.5316,-159.4505 889,-114 900.4549,-98.8954 941.2213,-87.3532 979.4851,-79.5464"/>
<polygon fill="#191970" stroke="#191970" points="980.5249,-82.909 989.6605,-77.5431 979.1727,-76.0408 980.5249,-82.909"/>
</g>
<!-- Node32&#45;&gt;Node3 -->
<g id="edge65" class="edge">
<title>Node32&#45;&gt;Node3</title>
<path fill="none" stroke="#191970" d="M2628.7846,-402.7914C2805.3657,-394.8239 3191.5113,-375.078 3211,-354 3220.957,-343.2311 3217.7027,-334.0455 3211,-321 3138.7969,-180.47 3071.0522,-166.3968 2922,-114 2844.0371,-86.5934 2254.6486,-71.635 2104.6466,-68.2469"/>
<polygon fill="#191970" stroke="#191970" points="2104.6946,-64.7472 2094.6189,-68.0229 2104.5382,-71.7454 2104.6946,-64.7472"/>
</g>
<!-- Node32&#45;&gt;Node7 -->
<g id="edge61" class="edge">
<title>Node32&#45;&gt;Node7</title>
<path fill="none" stroke="#191970" d="M2628.6195,-400.7369C2703.9089,-394.027 2805.5532,-380.3226 2836,-354 2895.8772,-302.2335 2890.9511,-195.2999 2885.8775,-150.7121"/>
<polygon fill="#191970" stroke="#191970" points="2889.3209,-150.0437 2884.5918,-140.5629 2882.3764,-150.9235 2889.3209,-150.0437"/>
</g>
<!-- Node32&#45;&gt;Node17 -->
<g id="edge66" class="edge">
<title>Node32&#45;&gt;Node17</title>
<path fill="none" stroke="#191970" d="M2455.2052,-398.2474C2352.6148,-388.359 2176.7729,-370.9901 2026,-354 1963.9207,-347.0045 1522.0389,-316.346 1468,-285 1385.8819,-237.3663 1421.181,-163.2137 1340,-114 1307.9749,-94.5857 1216.2609,-81.9943 1145.4347,-74.8745"/>
<polygon fill="#191970" stroke="#191970" points="1145.4404,-71.3583 1135.1461,-73.8636 1144.7559,-78.3247 1145.4404,-71.3583"/>
</g>
<!-- Node32&#45;&gt;Node19 -->
<g id="edge77" class="edge">
<title>Node32&#45;&gt;Node19</title>
<path fill="none" stroke="#191970" d="M2501.6295,-396.4619C2461.8575,-386.3906 2399.4631,-370.1024 2346,-354 2263.4505,-329.1372 2019.1212,-245.5823 1923.7504,-212.8302"/>
<polygon fill="#191970" stroke="#191970" points="1924.7931,-209.4877 1914.1985,-209.5487 1922.5187,-216.1079 1924.7931,-209.4877"/>
</g>
<!-- Node32&#45;&gt;Node29 -->
<g id="edge60" class="edge">
<title>Node32&#45;&gt;Node29</title>
<path fill="none" stroke="#191970" d="M2484.8826,-396.5C2452.5101,-388.7916 2412.5101,-375.6666 2382,-354 2335.47,-320.9569 2345.5545,-291.1167 2304,-252 2288.699,-237.5966 2269.0624,-224.4032 2253.3199,-214.8451"/>
<polygon fill="#191970" stroke="#191970" points="2254.9504,-211.743 2244.5632,-209.6559 2251.3818,-217.7651 2254.9504,-211.743"/>
</g>
<!-- Node32&#45;&gt;Node30 -->
<g id="edge62" class="edge">
<title>Node32&#45;&gt;Node30</title>
<path fill="none" stroke="#191970" d="M2455.1988,-403.741C2204.0207,-395.573 1491.2738,-371.023 1444,-354 1421.0012,-345.7183 1421.2629,-333.0591 1400,-321 1363.2427,-300.1534 1350.7712,-301.807 1312,-285 1310.3954,-284.3044 1308.7542,-283.5842 1307.0996,-282.851"/>
<polygon fill="#191970" stroke="#191970" points="1308.1924,-279.5047 1297.6369,-278.5927 1305.3198,-285.8882 1308.1924,-279.5047"/>
</g>
<!-- Node33 -->
<g id="node33" class="node">
<title>Node33</title>
<polygon fill="none" stroke="#bfbfbf" points="2888.5,-327.5 2888.5,-347.5 2953.5,-347.5 2953.5,-327.5 2888.5,-327.5"/>
<text text-anchor="middle" x="2921" y="-334.5" font-family="FreeSans" font-size="10.00" fill="#000000">algorithm</text>
</g>
<!-- Node32&#45;&gt;Node33 -->
<g id="edge59" class="edge">
<title>Node32&#45;&gt;Node33</title>
<path fill="none" stroke="#191970" d="M2628.5027,-397.1706C2696.0134,-388.848 2791.8164,-374.7424 2874,-354 2877.6527,-353.0781 2881.4232,-351.9921 2885.1657,-350.8247"/>
<polygon fill="#191970" stroke="#191970" points="2886.5128,-354.0656 2894.9066,-347.6007 2884.3133,-347.4202 2886.5128,-354.0656"/>
</g>
<!-- Node34 -->
<g id="node34" class="node">
<title>Node34</title>
<polygon fill="none" stroke="#bfbfbf" points="2394.5,-258.5 2394.5,-278.5 2451.5,-278.5 2451.5,-258.5 2394.5,-258.5"/>
<text text-anchor="middle" x="2423" y="-265.5" font-family="FreeSans" font-size="10.00" fill="#000000">ostream</text>
</g>
<!-- Node32&#45;&gt;Node34 -->
<g id="edge63" class="edge">
<title>Node32&#45;&gt;Node34</title>
<path fill="none" stroke="#191970" d="M2542.3669,-396.4131C2542.474,-379.173 2540.3689,-343.7055 2523,-321 2518.3109,-314.8702 2481.568,-296.4237 2453.9703,-283.1282"/>
<polygon fill="#191970" stroke="#191970" points="2455.1885,-279.831 2444.6576,-278.6689 2452.1653,-286.1446 2455.1885,-279.831"/>
</g>
<!-- Node35 -->
<g id="node35" class="node">
<title>Node35</title>
<polygon fill="none" stroke="#bfbfbf" points="2972,-327.5 2972,-347.5 3014,-347.5 3014,-327.5 2972,-327.5"/>
<text text-anchor="middle" x="2993" y="-334.5" font-family="FreeSans" font-size="10.00" fill="#000000">tuple</text>
</g>
<!-- Node32&#45;&gt;Node35 -->
<g id="edge64" class="edge">
<title>Node32&#45;&gt;Node35</title>
<path fill="none" stroke="#191970" d="M2628.7729,-399.5608C2733.4095,-390.5172 2902.742,-373.532 2963,-354 2964.6716,-353.4582 2966.3572,-352.8214 2968.0313,-352.119"/>
<polygon fill="#191970" stroke="#191970" points="2969.8691,-355.1164 2977.3154,-347.5795 2966.7944,-348.8278 2969.8691,-355.1164"/>
</g>
<!-- Node36 -->
<g id="node36" class="node">
<title>Node36</title>
<g id="a_node36"><a xlink:href="../../de/da5/Frustum_8hpp.html" target="_top" xlink:title="Acts/Utilities/Frustum.hpp">
<polygon fill="none" stroke="#000000" points="2570.5,-327.5 2570.5,-347.5 2717.5,-347.5 2717.5,-327.5 2570.5,-327.5"/>
<text text-anchor="middle" x="2644" y="-334.5" font-family="FreeSans" font-size="10.00" fill="#000000">Acts/Utilities/Frustum.hpp</text>
</a>
</g>
</g>
<!-- Node32&#45;&gt;Node36 -->
<g id="edge67" class="edge">
<title>Node32&#45;&gt;Node36</title>
<path fill="none" stroke="#191970" d="M2557.0505,-396.3188C2573.774,-385.0058 2600.9906,-366.5946 2620.5207,-353.3831"/>
<polygon fill="#191970" stroke="#191970" points="2622.566,-356.2251 2628.8878,-347.723 2618.6439,-350.4271 2622.566,-356.2251"/>
</g>
<!-- Node37 -->
<g id="node37" class="node">
<title>Node37</title>
<g id="a_node37"><a xlink:href="../../d0/d91/IVisualization_8hpp.html" target="_top" xlink:title="Acts/Visualization\l/IVisualization.hpp">
<polygon fill="none" stroke="#ff0000" points="2669,-252.5 2669,-284.5 2779,-284.5 2779,-252.5 2669,-252.5"/>
<text text-anchor="start" x="2677" y="-271.5" font-family="FreeSans" font-size="10.00" fill="#000000">Acts/Visualization</text>
<text text-anchor="middle" x="2724" y="-259.5" font-family="FreeSans" font-size="10.00" fill="#000000">/IVisualization.hpp</text>
</a>
</g>
</g>
<!-- Node32&#45;&gt;Node37 -->
<g id="edge81" class="edge">
<title>Node32&#45;&gt;Node37</title>
<path fill="none" stroke="#191970" d="M2607.4635,-396.4307C2654.5973,-387.6876 2712.3562,-373.3777 2727,-354 2739.6348,-337.2807 2737.4311,-313.0192 2732.9072,-294.608"/>
<polygon fill="#191970" stroke="#191970" points="2736.2277,-293.4864 2730.1528,-284.8061 2729.4887,-295.3801 2736.2277,-293.4864"/>
</g>
<!-- Node39 -->
<g id="node39" class="node">
<title>Node39</title>
<g id="a_node39"><a xlink:href="../../d4/db2/Ray_8hpp.html" target="_top" xlink:title="Acts/Utilities/Ray.hpp">
<polygon fill="none" stroke="#ff0000" points="2390.5,-327.5 2390.5,-347.5 2513.5,-347.5 2513.5,-327.5 2390.5,-327.5"/>
<text text-anchor="middle" x="2452" y="-334.5" font-family="FreeSans" font-size="10.00" fill="#000000">Acts/Utilities/Ray.hpp</text>
</a>
</g>
</g>
<!-- Node32&#45;&gt;Node39 -->
<g id="edge78" class="edge">
<title>Node32&#45;&gt;Node39</title>
<path fill="none" stroke="#191970" d="M2528.7202,-396.3188C2514.23,-385.2097 2490.8119,-367.2558 2473.655,-354.1022"/>
<polygon fill="#191970" stroke="#191970" points="2475.3999,-351.0297 2465.3343,-347.723 2471.1409,-356.5849 2475.3999,-351.0297"/>
</g>
<!-- Node40 -->
<g id="node40" class="node">
<title>Node40</title>
<g id="a_node40"><a xlink:href="../../de/d6c/BoundingBox_8ipp.html" target="_top" xlink:title="Acts/Utilities/BoundingBox.ipp">
<polygon fill="none" stroke="#000000" points="3032,-327.5 3032,-347.5 3202,-347.5 3202,-327.5 3032,-327.5"/>
<text text-anchor="middle" x="3117" y="-334.5" font-family="FreeSans" font-size="10.00" fill="#000000">Acts/Utilities/BoundingBox.ipp</text>
</a>
</g>
</g>
<!-- Node32&#45;&gt;Node40 -->
<g id="edge82" class="edge">
<title>Node32&#45;&gt;Node40</title>
<path fill="none" stroke="#191970" d="M2628.6686,-398.7521C2725.1393,-389.73 2885.5675,-373.541 3023,-354 3032.8424,-352.6005 3043.2347,-350.9507 3053.3786,-349.2447"/>
<polygon fill="#191970" stroke="#191970" points="3054.1441,-352.6647 3063.41,-347.5273 3052.9627,-345.7651 3054.1441,-352.6647"/>
</g>
<!-- Node36&#45;&gt;Node17 -->
<g id="edge68" class="edge">
<title>Node36&#45;&gt;Node17</title>
<path fill="none" stroke="#191970" d="M2644.4942,-327.4665C2644.7906,-309.6604 2642.6973,-272.4866 2622,-252 2599.2274,-229.4592 2373.1445,-190.5297 2342,-183 2212.8029,-151.7645 2182.6238,-132.5129 2051,-114 1877.6009,-89.6114 1356.225,-74.7292 1145.1658,-69.5597"/>
<polygon fill="#191970" stroke="#191970" points="1145.1309,-66.0579 1135.0487,-69.3135 1144.9606,-73.0559 1145.1309,-66.0579"/>
</g>
<!-- Node36&#45;&gt;Node34 -->
<g id="edge74" class="edge">
<title>Node36&#45;&gt;Node34</title>
<path fill="none" stroke="#191970" d="M2603.1766,-327.4191C2565.7686,-317.7985 2509.0653,-302.247 2461,-285 2458.7724,-284.2007 2456.4895,-283.3342 2454.2025,-282.4311"/>
<polygon fill="#191970" stroke="#191970" points="2455.4868,-279.1747 2444.9081,-278.5901 2452.8132,-285.6441 2455.4868,-279.1747"/>
</g>
<!-- Node36&#45;&gt;Node37 -->
<g id="edge69" class="edge">
<title>Node36&#45;&gt;Node37</title>
<path fill="none" stroke="#191970" d="M2655.8043,-327.3188C2666.7041,-317.9177 2683.2872,-303.6148 2697.3712,-291.4673"/>
<polygon fill="#191970" stroke="#191970" points="2700.0264,-293.7992 2705.313,-284.6175 2695.4545,-288.4985 2700.0264,-293.7992"/>
</g>
<!-- Node38 -->
<g id="node38" class="node">
<title>Node38</title>
<g id="a_node38"><a xlink:href="../../d7/d3e/Frustum_8ipp.html" target="_top" xlink:title="Acts/Utilities/Frustum.ipp">
<polygon fill="none" stroke="#000000" points="2469.5,-258.5 2469.5,-278.5 2612.5,-278.5 2612.5,-258.5 2469.5,-258.5"/>
<text text-anchor="middle" x="2541" y="-265.5" font-family="FreeSans" font-size="10.00" fill="#000000">Acts/Utilities/Frustum.ipp</text>
</a>
</g>
</g>
<!-- Node36&#45;&gt;Node38 -->
<g id="edge75" class="edge">
<title>Node36&#45;&gt;Node38</title>
<path fill="none" stroke="#191970" d="M2628.802,-327.3188C2611.9145,-316.0058 2584.4311,-297.5946 2564.7095,-284.3831"/>
<polygon fill="#191970" stroke="#191970" points="2566.5164,-281.3808 2556.2604,-278.723 2562.6205,-287.1964 2566.5164,-281.3808"/>
</g>
<!-- Node37&#45;&gt;Node3 -->
<g id="edge73" class="edge">
<title>Node37&#45;&gt;Node3</title>
<path fill="none" stroke="#191970" d="M2721.3131,-252.4386C2714.9475,-219.9854 2695.6645,-146.8967 2647,-114 2602.0889,-83.6405 2223.0046,-71.425 2104.9518,-68.3351"/>
<polygon fill="#191970" stroke="#191970" points="2104.7631,-64.8292 2094.6768,-68.0721 2104.5839,-71.8269 2104.7631,-64.8292"/>
</g>
<!-- Node37&#45;&gt;Node16 -->
<g id="edge72" class="edge">
<title>Node37&#45;&gt;Node16</title>
<path fill="none" stroke="#191970" d="M2725.7682,-252.232C2728.1845,-221.3111 2728.8105,-153.6134 2694,-114 2679.7059,-97.7337 2623.2096,-82.6675 2586.5016,-74.3135"/>
<polygon fill="#191970" stroke="#191970" points="2587.2456,-70.8935 2576.7243,-72.1398 2585.7264,-77.7267 2587.2456,-70.8935"/>
</g>
<!-- Node37&#45;&gt;Node17 -->
<g id="edge70" class="edge">
<title>Node37&#45;&gt;Node17</title>
<path fill="none" stroke="#191970" d="M2689.1987,-252.4341C2605.0491,-213.646 2396.2603,-117.7833 2380,-114 2260.7623,-86.2568 1424.6283,-72.5109 1145.4837,-68.6578"/>
<polygon fill="#191970" stroke="#191970" points="1145.4395,-65.157 1135.3924,-68.5195 1145.3435,-72.1563 1145.4395,-65.157"/>
</g>
<!-- Node37&#45;&gt;Node29 -->
<g id="edge71" class="edge">
<title>Node37&#45;&gt;Node29</title>
<path fill="none" stroke="#191970" d="M2668.991,-259.3062C2653.782,-256.8447 2637.2628,-254.2458 2622,-252 2486.8583,-232.1153 2325.2546,-211.751 2257.9058,-203.4159"/>
<polygon fill="#191970" stroke="#191970" points="2258.2781,-199.9354 2247.9245,-202.1834 2257.4202,-206.8826 2258.2781,-199.9354"/>
</g>
<!-- Node38&#45;&gt;Node19 -->
<g id="edge76" class="edge">
<title>Node38&#45;&gt;Node19</title>
<path fill="none" stroke="#191970" d="M2496.727,-258.443C2485.146,-256.0669 2472.6432,-253.7257 2461,-252 2286.4157,-226.1235 2080.0444,-211.0316 1967.8306,-204.1132"/>
<polygon fill="#191970" stroke="#191970" points="1967.7948,-200.6046 1957.6002,-203.4891 1967.3685,-207.5917 1967.7948,-200.6046"/>
</g>
<!-- Node39&#45;&gt;Node17 -->
<g id="edge79" class="edge">
<title>Node39&#45;&gt;Node17</title>
<path fill="none" stroke="#191970" d="M2390.4759,-333.3832C2338.4187,-329.9399 2261.8354,-324.9682 2195,-321 2121.6868,-316.6472 1596.9055,-324.5156 1535,-285 1462.4323,-238.6785 1515.0368,-162.6366 1444,-114 1419.8742,-97.4819 1252.6535,-82.1745 1145.4541,-73.9039"/>
<polygon fill="#191970" stroke="#191970" points="1145.5119,-70.3982 1135.2741,-73.1257 1144.9782,-77.3778 1145.5119,-70.3982"/>
</g>
<!-- Node39&#45;&gt;Node37 -->
<g id="edge80" class="edge">
<title>Node39&#45;&gt;Node37</title>
<path fill="none" stroke="#191970" d="M2491.5511,-327.4668C2535.4302,-316.3357 2606.9068,-298.2038 2659.0312,-284.981"/>
<polygon fill="#191970" stroke="#191970" points="2660.0233,-288.3403 2668.8556,-282.4888 2658.302,-281.5552 2660.0233,-288.3403"/>
</g>
<!-- Node41&#45;&gt;Node3 -->
<g id="edge86" class="edge">
<title>Node41&#45;&gt;Node3</title>
<path fill="none" stroke="#191970" d="M2021.6188,-403.3193C2225.6587,-395.2732 2734.7138,-373.3706 2766,-354 2796.1381,-335.3402 2796.7954,-319.2311 2806,-285 2830.721,-193.0653 2763.7788,-153.1477 2677,-114 2624.8049,-90.4537 2226.0031,-73.4505 2104.8175,-68.7858"/>
<polygon fill="#191970" stroke="#191970" points="2104.7468,-65.2807 2094.6207,-68.3974 2104.4802,-72.2756 2104.7468,-65.2807"/>
</g>
<!-- Node41&#45;&gt;Node17 -->
<g id="edge103" class="edge">
<title>Node41&#45;&gt;Node17</title>
<path fill="none" stroke="#191970" d="M1854.4161,-404.5148C1724.1999,-400.3927 1479.5832,-388.2289 1400,-354 1379.4516,-345.1621 1381.5568,-331.8571 1362,-321 1314.4327,-294.5926 1282.99,-323.9456 1245,-285 1189.8804,-228.4939 1251.61,-170.9988 1197,-114 1184.7087,-101.1711 1144.9159,-88.7579 1110.5713,-79.9885"/>
<polygon fill="#191970" stroke="#191970" points="1111.1411,-76.5235 1100.5915,-77.5012 1109.4482,-83.3157 1111.1411,-76.5235"/>
</g>
<!-- Node41&#45;&gt;Node29 -->
<g id="edge85" class="edge">
<title>Node41&#45;&gt;Node29</title>
<path fill="none" stroke="#191970" d="M2021.6248,-399.3578C2087.0811,-392.0131 2170.9314,-378.1528 2195,-354 2230.9304,-317.944 2231.0076,-252.6852 2228.3681,-219.7197"/>
<polygon fill="#191970" stroke="#191970" points="2231.8265,-219.1214 2227.3755,-209.5069 2224.8594,-219.7986 2231.8265,-219.1214"/>
</g>
<!-- Node42 -->
<g id="node42" class="node">
<title>Node42</title>
<g id="a_node42"><a xlink:href="../../d2/d0a/BinUtility_8hpp.html" target="_top" xlink:title="Acts/Utilities/BinUtility.hpp">
<polygon fill="none" stroke="#000000" points="2034.5,-327.5 2034.5,-347.5 2185.5,-347.5 2185.5,-327.5 2034.5,-327.5"/>
<text text-anchor="middle" x="2110" y="-334.5" font-family="FreeSans" font-size="10.00" fill="#000000">Acts/Utilities/BinUtility.hpp</text>
</a>
</g>
</g>
<!-- Node41&#45;&gt;Node42 -->
<g id="edge87" class="edge">
<title>Node41&#45;&gt;Node42</title>
<path fill="none" stroke="#191970" d="M1963.0103,-396.4668C1992.6905,-384.5602 2042.3384,-364.6433 2075.6177,-351.2929"/>
<polygon fill="#191970" stroke="#191970" points="2076.9816,-354.5169 2084.9595,-347.5453 2074.3753,-348.0202 2076.9816,-354.5169"/>
</g>
<!-- Node42&#45;&gt;Node3 -->
<g id="edge91" class="edge">
<title>Node42&#45;&gt;Node3</title>
<path fill="none" stroke="#191970" d="M2109.4476,-327.1493C2107.6013,-295.151 2100.7876,-195.0958 2084,-114 2082.17,-105.1598 2079.4215,-95.5795 2076.8431,-87.4249"/>
<polygon fill="#191970" stroke="#191970" points="2080.0956,-86.1116 2073.643,-77.7083 2073.4469,-88.3013 2080.0956,-86.1116"/>
</g>
<!-- Node42&#45;&gt;Node5 -->
<g id="edge90" class="edge">
<title>Node42&#45;&gt;Node5</title>
<path fill="none" stroke="#191970" d="M2034.3004,-335.0105C1887.501,-329.5816 1569.3169,-314.7133 1464,-285 1351.3306,-253.2123 1231.2377,-178.7033 1182.0321,-146.1657"/>
<polygon fill="#191970" stroke="#191970" points="1183.9482,-143.2366 1173.6871,-140.5984 1180.0634,-149.0597 1183.9482,-143.2366"/>
</g>
<!-- Node42&#45;&gt;Node7 -->
<g id="edge89" class="edge">
<title>Node42&#45;&gt;Node7</title>
<path fill="none" stroke="#191970" d="M2112.0663,-327.1231C2118.4693,-298.0835 2140.9599,-215.9703 2196,-183 2202.9921,-178.8116 2696.4561,-143.672 2842.6319,-133.3439"/>
<polygon fill="#191970" stroke="#191970" points="2843.212,-136.8118 2852.9406,-132.616 2842.7189,-129.8291 2843.212,-136.8118"/>
</g>
<!-- Node42&#45;&gt;Node15 -->
<g id="edge101" class="edge">
<title>Node42&#45;&gt;Node15</title>
<path fill="none" stroke="#191970" d="M2131.7156,-327.3758C2204.3054,-293.5333 2438.6963,-184.2564 2523.2372,-144.8421"/>
<polygon fill="#191970" stroke="#191970" points="2524.7417,-148.0024 2532.3262,-140.6047 2521.7838,-141.6581 2524.7417,-148.0024"/>
</g>
<!-- Node42&#45;&gt;Node17 -->
<g id="edge102" class="edge">
<title>Node42&#45;&gt;Node17</title>
<path fill="none" stroke="#191970" d="M2034.3029,-335.0623C1881.102,-329.541 1545.1437,-314.2304 1502,-285 1431.5718,-237.284 1485.4114,-163.1832 1416,-114 1394.285,-98.6133 1244.8194,-83.3407 1145.1429,-74.6953"/>
<polygon fill="#191970" stroke="#191970" points="1145.3196,-71.1976 1135.0566,-73.8282 1144.72,-78.1719 1145.3196,-71.1976"/>
</g>
<!-- Node42&#45;&gt;Node29 -->
<g id="edge88" class="edge">
<title>Node42&#45;&gt;Node29</title>
<path fill="none" stroke="#191970" d="M2118.7189,-327.1276C2138.3808,-303.7367 2186.37,-246.646 2210.9502,-217.4041"/>
<polygon fill="#191970" stroke="#191970" points="2213.7399,-219.5247 2217.4952,-209.6178 2208.3815,-215.0205 2213.7399,-219.5247"/>
</g>
<!-- Node43 -->
<g id="node43" class="node">
<title>Node43</title>
<g id="a_node43"><a xlink:href="../../d3/d5e/BinningData_8hpp.html" target="_top" xlink:title="Acts/Utilities/BinningData.hpp">
<polygon fill="none" stroke="#ff0000" points="1543.5,-258.5 1543.5,-278.5 1712.5,-278.5 1712.5,-258.5 1543.5,-258.5"/>
<text text-anchor="middle" x="1628" y="-265.5" font-family="FreeSans" font-size="10.00" fill="#000000">Acts/Utilities/BinningData.hpp</text>
</a>
</g>
</g>
<!-- Node42&#45;&gt;Node43 -->
<g id="edge92" class="edge">
<title>Node42&#45;&gt;Node43</title>
<path fill="none" stroke="#191970" d="M2039.9131,-327.4668C1951.8311,-314.8576 1800.9942,-293.2647 1708.3399,-280.0009"/>
<polygon fill="#191970" stroke="#191970" points="1708.5666,-276.4978 1698.1715,-278.5453 1707.5746,-283.4272 1708.5666,-276.4978"/>
</g>
<!-- Node43&#45;&gt;Node3 -->
<g id="edge97" class="edge">
<title>Node43&#45;&gt;Node3</title>
<path fill="none" stroke="#191970" d="M1631.045,-258.4114C1640.158,-230.1303 1670.1073,-149.8213 1726,-114 1776.7617,-81.4671 1958.3206,-71.3829 2035.2052,-68.5298"/>
<polygon fill="#191970" stroke="#191970" points="2035.4639,-72.023 2045.3347,-68.1737 2035.2179,-65.0273 2035.4639,-72.023"/>
</g>
<!-- Node43&#45;&gt;Node5 -->
<g id="edge95" class="edge">
<title>Node43&#45;&gt;Node5</title>
<path fill="none" stroke="#191970" d="M1601.2591,-258.4239C1555.8045,-241.5071 1460.3806,-206.9038 1378,-183 1315.7753,-164.9447 1242.3425,-148.2657 1198.2861,-138.7468"/>
<polygon fill="#191970" stroke="#191970" points="1198.7894,-135.2752 1188.2775,-136.5985 1197.3203,-142.1193 1198.7894,-135.2752"/>
</g>
<!-- Node43&#45;&gt;Node7 -->
<g id="edge94" class="edge">
<title>Node43&#45;&gt;Node7</title>
<path fill="none" stroke="#191970" d="M1706.3829,-258.4446C1812.1394,-244.8135 1990.8283,-221.5325 2021,-216 2084.3046,-204.392 2098.3751,-192.7003 2162,-183 2178.9629,-180.4138 2693.3796,-143.9141 2842.7237,-133.3469"/>
<polygon fill="#191970" stroke="#191970" points="2843.1057,-136.8287 2852.8337,-132.6317 2842.6117,-129.8462 2843.1057,-136.8287"/>
</g>
<!-- Node43&#45;&gt;Node15 -->
<g id="edge98" class="edge">
<title>Node43&#45;&gt;Node15</title>
<path fill="none" stroke="#191970" d="M1706.5738,-258.4895C1790.9655,-247.3541 1919.363,-229.1973 1967,-216 2004.462,-205.6216 2010.2891,-192.4338 2048,-183 2123.5751,-164.094 2335.2838,-146.3134 2459.6106,-137.0854"/>
<polygon fill="#191970" stroke="#191970" points="2460.1684,-140.5538 2469.8838,-136.3275 2459.6534,-133.5728 2460.1684,-140.5538"/>
</g>
<!-- Node43&#45;&gt;Node17 -->
<g id="edge99" class="edge">
<title>Node43&#45;&gt;Node17</title>
<path fill="none" stroke="#191970" d="M1619.8709,-258.2925C1611.7202,-247.8923 1598.9811,-231.1793 1589,-216 1560.2267,-172.2414 1574.035,-142.3485 1530,-114 1498.4786,-93.7074 1274.143,-78.8673 1145.3581,-71.9119"/>
<polygon fill="#191970" stroke="#191970" points="1145.2837,-68.403 1135.1111,-71.3642 1144.91,-75.393 1145.2837,-68.403"/>
</g>
<!-- Node43&#45;&gt;Node19 -->
<g id="edge100" class="edge">
<title>Node43&#45;&gt;Node19</title>
<path fill="none" stroke="#191970" d="M1665.37,-258.4668C1710.9549,-246.2281 1788.0631,-225.5259 1837.7298,-212.1912"/>
<polygon fill="#191970" stroke="#191970" points="1838.8345,-215.5187 1847.5849,-209.5453 1837.0193,-208.7581 1838.8345,-215.5187"/>
</g>
<!-- Node43&#45;&gt;Node21 -->
<g id="edge93" class="edge">
<title>Node43&#45;&gt;Node21</title>
<path fill="none" stroke="#191970" d="M1543.1851,-264.0515C1478.4742,-260.679 1387.1184,-255.9642 1307,-252 970.5869,-235.3547 884.158,-258.3003 550,-216 512.5132,-211.2546 240.8546,-176.3042 217,-147 203.3453,-130.2259 209.9661,-104.5011 217.2704,-86.886"/>
<polygon fill="#191970" stroke="#191970" points="220.5485,-88.1324 221.5019,-77.5806 214.1763,-85.2348 220.5485,-88.1324"/>
</g>
<!-- Node43&#45;&gt;Node24 -->
<g id="edge96" class="edge">
<title>Node43&#45;&gt;Node24</title>
<path fill="none" stroke="#191970" d="M1543.184,-264.0752C1478.4724,-260.715 1387.1164,-256.0052 1307,-252 1265.8362,-249.9421 594.4277,-245.8423 566,-216 549.5823,-198.7653 554.5111,-169.587 560.4894,-150.1824"/>
<polygon fill="#191970" stroke="#191970" points="563.8609,-151.1401 563.7898,-140.5455 557.2385,-148.8721 563.8609,-151.1401"/>
</g>
<!-- Node44&#45;&gt;Node5 -->
<g id="edge113" class="edge">
<title>Node44&#45;&gt;Node5</title>
<path fill="none" stroke="#191970" d="M2005.885,-537.3786C1891.3038,-528.2875 1708.0328,-511.393 1642,-492 1508.8842,-452.9055 1482.0318,-423.5741 1362,-354 1339.284,-340.8331 1336.2767,-333.1482 1313,-321 1273.7074,-300.4931 1251.4453,-316.2352 1220,-285 1182.1153,-247.3683 1167.1215,-183.3441 1161.7246,-150.7956"/>
<polygon fill="#191970" stroke="#191970" points="1165.1522,-150.0535 1160.1941,-140.6904 1158.2311,-151.1018 1165.1522,-150.0535"/>
</g>
<!-- Node44&#45;&gt;Node7 -->
<g id="edge112" class="edge">
<title>Node44&#45;&gt;Node7</title>
<path fill="none" stroke="#191970" d="M2200.2071,-541.8075C2410.5531,-535.5568 2902.2483,-518.541 3067,-492 3210.219,-468.9278 3382,-551.5655 3382,-406.5 3382,-406.5 3382,-406.5 3382,-268.5 3382,-206.93 3329.7221,-206.9473 3273,-183 3210.4656,-156.5989 3010.0311,-139.5518 2923.4555,-133.2443"/>
<polygon fill="#191970" stroke="#191970" points="2923.4599,-129.7357 2913.2351,-132.5112 2922.959,-136.7177 2923.4599,-129.7357"/>
</g>
<!-- Node44&#45;&gt;Node10 -->
<g id="edge114" class="edge">
<title>Node44&#45;&gt;Node10</title>
<path fill="none" stroke="#191970" d="M2005.9998,-537.2887C1874.5352,-527.4441 1632.4833,-509.0668 1426,-492 1393.442,-489.3089 1357.7261,-486.2111 1326.2514,-483.4315"/>
<polygon fill="#191970" stroke="#191970" points="1326.4603,-479.9364 1316.1907,-482.5412 1325.8432,-486.9092 1326.4603,-479.9364"/>
</g>
<!-- Node44&#45;&gt;Node15 -->
<g id="edge115" class="edge">
<title>Node44&#45;&gt;Node15</title>
<path fill="none" stroke="#191970" d="M2200.151,-541.4298C2416.3955,-534.2189 2924.3239,-515.0569 2999,-492 3112.9048,-456.8309 3170.2651,-457.737 3229,-354 3256.5946,-305.2627 3203.421,-280.1459 3155,-252 3066.0391,-200.2892 3034.4191,-205.4512 2934,-183 2837.7431,-161.4793 2725.6793,-147.288 2648.3134,-139.1483"/>
<polygon fill="#191970" stroke="#191970" points="2648.4151,-135.6401 2638.1071,-138.0884 2647.692,-142.6027 2648.4151,-135.6401"/>
</g>
<!-- Node44&#45;&gt;Node17 -->
<g id="edge117" class="edge">
<title>Node44&#45;&gt;Node17</title>
<path fill="none" stroke="#191970" d="M2070.8363,-534.4934C1996.5636,-510.5181 1808.9946,-444.951 1672,-354 1654.1884,-342.1749 1656.1372,-330.5316 1637,-321 1551.4526,-278.3916 1508.8108,-330.9301 1425,-285 1335.0469,-235.7038 1358.8266,-165.2983 1270,-114 1246.8247,-100.616 1184.5815,-87.9492 1132.9952,-79.226"/>
<polygon fill="#191970" stroke="#191970" points="1133.2737,-75.7242 1122.8348,-77.5349 1132.1244,-82.6293 1133.2737,-75.7242"/>
</g>
<!-- Node44&#45;&gt;Node22 -->
<g id="edge111" class="edge">
<title>Node44&#45;&gt;Node22</title>
<path fill="none" stroke="#191970" d="M2114.2344,-534.4429C2163.7191,-488.9794 2355.5012,-299.824 2257,-183 2195.9591,-110.6045 2137.158,-175.9593 2047,-147 2044.8683,-146.3153 2042.7007,-145.5199 2040.5448,-144.6556"/>
<polygon fill="#191970" stroke="#191970" points="2041.8739,-141.4162 2031.3142,-140.5538 2039.0313,-147.8131 2041.8739,-141.4162"/>
</g>
<!-- Node44&#45;&gt;Node32 -->
<g id="edge116" class="edge">
<title>Node44&#45;&gt;Node32</title>
<path fill="none" stroke="#191970" d="M2161.2223,-534.4684C2209.2465,-525.488 2278.8482,-510.8395 2338,-492 2401.5846,-471.7487 2472.8441,-439.5946 2512.0609,-421.0282"/>
<polygon fill="#191970" stroke="#191970" points="2513.7959,-424.0786 2521.3168,-416.6162 2510.7838,-417.7597 2513.7959,-424.0786"/>
</g>
<!-- Node45&#45;&gt;Node5 -->
<g id="edge140" class="edge">
<title>Node45&#45;&gt;Node5</title>
<path fill="none" stroke="#191970" d="M701.8356,-465.2761C718.7009,-448.1415 754.7392,-413.2255 790,-390 820.878,-369.6613 833.4544,-373.287 865,-354 975.4605,-286.4644 1094.5858,-186.411 1139.9781,-147.1602"/>
<polygon fill="#191970" stroke="#191970" points="1142.3221,-149.7601 1147.577,-140.5603 1137.732,-144.4751 1142.3221,-149.7601"/>
</g>
<!-- Node45&#45;&gt;Node8 -->
<g id="edge125" class="edge">
<title>Node45&#45;&gt;Node8</title>
<path fill="none" stroke="#191970" d="M630.0411,-465.4143C584.171,-456.5358 527.2677,-442.0534 513,-423 504.2088,-411.2601 506.4409,-403.1183 513,-390 524.9257,-366.1486 541.4359,-372.1206 561,-354 584.1554,-332.5531 607.6345,-304.5554 622.0056,-286.5487"/>
<polygon fill="#191970" stroke="#191970" points="624.8427,-288.6034 628.2876,-278.5842 619.3466,-284.2683 624.8427,-288.6034"/>
</g>
<!-- Node45&#45;&gt;Node11 -->
<g id="edge126" class="edge">
<title>Node45&#45;&gt;Node11</title>
<path fill="none" stroke="#191970" d="M765.4313,-465.4668C857.9033,-452.832 1016.3916,-431.1772 1113.4158,-417.9204"/>
<polygon fill="#191970" stroke="#191970" points="1114.0459,-421.3669 1123.48,-416.5453 1113.0982,-414.4314 1114.0459,-421.3669"/>
</g>
<!-- Node45&#45;&gt;Node13 -->
<g id="edge128" class="edge">
<title>Node45&#45;&gt;Node13</title>
<path fill="none" stroke="#191970" d="M767.0637,-471.5976C907.7625,-463.8687 1206.0485,-445.4082 1307,-423 1381.8906,-406.3766 1465.3064,-371.5225 1509.1689,-351.8348"/>
<polygon fill="#191970" stroke="#191970" points="1510.7572,-354.9577 1518.4214,-347.6425 1507.8682,-348.5817 1510.7572,-354.9577"/>
</g>
<!-- Node45&#45;&gt;Node15 -->
<g id="edge135" class="edge">
<title>Node45&#45;&gt;Node15</title>
<path fill="none" stroke="#191970" d="M767.1246,-472.529C858.0195,-468.9968 1015.7043,-463.0694 1151,-459 1811.7837,-439.1251 1978.6314,-470.5723 2638,-423 2893.8414,-404.5415 3040.8099,-545.9137 3211,-354 3293.2721,-261.2264 2818.4894,-173.1494 2629.267,-142.1947"/>
<polygon fill="#191970" stroke="#191970" points="2629.55,-138.6949 2619.1179,-140.5445 2628.4265,-145.6041 2629.55,-138.6949"/>
</g>
<!-- Node45&#45;&gt;Node17 -->
<g id="edge136" class="edge">
<title>Node45&#45;&gt;Node17</title>
<path fill="none" stroke="#191970" d="M616.6849,-470.6605C508.931,-462.9586 321.4328,-446.3597 301,-423 291.3438,-411.9606 296.7498,-404.0373 301,-390 311.6805,-354.7247 453.2389,-132.6989 485,-114 525.251,-90.3028 814.3094,-76.3187 964.6484,-70.5722"/>
<polygon fill="#191970" stroke="#191970" points="964.9263,-74.0643 974.787,-70.1891 964.6619,-67.0693 964.9263,-74.0643"/>
</g>
<!-- Node45&#45;&gt;Node25 -->
<g id="edge129" class="edge">
<title>Node45&#45;&gt;Node25</title>
<path fill="none" stroke="#191970" d="M616.8581,-473.907C462.1495,-468.7387 117.4428,-446.8256 57,-354 30.2955,-312.9883 84.5799,-291.4635 142.0148,-280.2732"/>
<polygon fill="#191970" stroke="#191970" points="142.7994,-283.6876 151.9994,-278.4331 141.5306,-276.8036 142.7994,-283.6876"/>
</g>
<!-- Node45&#45;&gt;Node31 -->
<g id="edge127" class="edge">
<title>Node45&#45;&gt;Node31</title>
<path fill="none" stroke="#191970" d="M722.245,-465.4668C758.6765,-453.3814 819.9858,-433.0432 860.2215,-419.6958"/>
<polygon fill="#191970" stroke="#191970" points="861.3291,-423.0159 869.7185,-416.5453 859.1251,-416.372 861.3291,-423.0159"/>
</g>
<!-- Node45&#45;&gt;Node41 -->
<g id="edge134" class="edge">
<title>Node45&#45;&gt;Node41</title>
<path fill="none" stroke="#191970" d="M767.1369,-471.3391C983.3032,-459.3684 1606.4774,-424.8588 1844.2703,-411.6905"/>
<polygon fill="#191970" stroke="#191970" points="1844.4849,-415.1841 1854.2761,-411.1364 1844.0978,-408.1948 1844.4849,-415.1841"/>
</g>
<!-- Node46 -->
<g id="node46" class="node">
<title>Node46</title>
<g id="a_node46"><a xlink:href="../../dc/d45/DetectorElementBase_8hpp.html" target="_top" xlink:title="Acts/Geometry/DetectorElement\lBase.hpp">
<polygon fill="none" stroke="#000000" points="522,-390.5 522,-422.5 704,-422.5 704,-390.5 522,-390.5"/>
<text text-anchor="start" x="530" y="-409.5" font-family="FreeSans" font-size="10.00" fill="#000000">Acts/Geometry/DetectorElement</text>
<text text-anchor="middle" x="613" y="-397.5" font-family="FreeSans" font-size="10.00" fill="#000000">Base.hpp</text>
</a>
</g>
</g>
<!-- Node45&#45;&gt;Node46 -->
<g id="edge119" class="edge">
<title>Node45&#45;&gt;Node46</title>
<path fill="none" stroke="#191970" d="M680.3433,-465.3188C669.5797,-455.9177 653.2039,-441.6148 639.2959,-429.4673"/>
<polygon fill="#191970" stroke="#191970" points="641.2875,-426.5598 631.4534,-422.6175 636.6827,-431.832 641.2875,-426.5598"/>
</g>
<!-- Node48 -->
<g id="node48" class="node">
<title>Node48</title>
<g id="a_node48"><a xlink:href="../../da/ddb/SurfaceBounds_8hpp.html" target="_top" xlink:title="Acts/Surfaces/SurfaceBounds.hpp">
<polygon fill="none" stroke="#000000" points="66,-327.5 66,-347.5 254,-347.5 254,-327.5 66,-327.5"/>
<text text-anchor="middle" x="160" y="-334.5" font-family="FreeSans" font-size="10.00" fill="#000000">Acts/Surfaces/SurfaceBounds.hpp</text>
</a>
</g>
</g>
<!-- Node45&#45;&gt;Node48 -->
<g id="edge130" class="edge">
<title>Node45&#45;&gt;Node48</title>
<path fill="none" stroke="#191970" d="M616.6185,-471.0651C512.1344,-464.087 329.2369,-448.6323 268,-423 230.6085,-407.3488 195.3855,-374.941 175.8515,-354.8273"/>
<polygon fill="#191970" stroke="#191970" points="178.3552,-352.381 168.9334,-347.5352 173.2769,-357.1988 178.3552,-352.381"/>
</g>
<!-- Node49 -->
<g id="node49" class="node">
<title>Node49</title>
<g id="a_node49"><a xlink:href="../../db/d8d/Intersection_8hpp.html" target="_top" xlink:title="Acts/Utilities/Intersection.hpp">
<polygon fill="none" stroke="#000000" points="386,-327.5 386,-347.5 552,-347.5 552,-327.5 386,-327.5"/>
<text text-anchor="middle" x="469" y="-334.5" font-family="FreeSans" font-size="10.00" fill="#000000">Acts/Utilities/Intersection.hpp</text>
</a>
</g>
</g>
<!-- Node45&#45;&gt;Node49 -->
<g id="edge137" class="edge">
<title>Node45&#45;&gt;Node49</title>
<path fill="none" stroke="#191970" d="M616.7562,-465.9362C563.4232,-457.5415 498.2281,-443.4508 480,-423 464.267,-405.3486 463.7638,-376.9191 465.6844,-357.7382"/>
<polygon fill="#191970" stroke="#191970" points="469.1754,-358.0336 466.9985,-347.6648 462.2343,-357.128 469.1754,-358.0336"/>
</g>
<!-- Node50 -->
<g id="node50" class="node">
<title>Node50</title>
<g id="a_node50"><a xlink:href="../../dd/d76/Surface_8ipp.html" target="_top" xlink:title="Acts/Surfaces/detail\l/Surface.ipp">
<polygon fill="none" stroke="#000000" points="310.5,-390.5 310.5,-422.5 427.5,-422.5 427.5,-390.5 310.5,-390.5"/>
<text text-anchor="start" x="318.5" y="-409.5" font-family="FreeSans" font-size="10.00" fill="#000000">Acts/Surfaces/detail</text>
<text text-anchor="middle" x="369" y="-397.5" font-family="FreeSans" font-size="10.00" fill="#000000">/Surface.ipp</text>
</a>
</g>
</g>
<!-- Node45&#45;&gt;Node50 -->
<g id="edge141" class="edge">
<title>Node45&#45;&gt;Node50</title>
<path fill="none" stroke="#191970" d="M643.0906,-465.4596C592.6589,-455.0526 511.7642,-438.2086 442,-423 440.5321,-422.68 439.0479,-422.3553 437.5519,-422.0268"/>
<polygon fill="#191970" stroke="#191970" points="438.0731,-418.5576 427.5534,-419.8175 436.5627,-425.3928 438.0731,-418.5576"/>
</g>
<!-- Node47 -->
<g id="node47" class="node">
<title>Node47</title>
<g id="a_node47"><a xlink:href="../../d3/dc6/DefaultDetectorElementBase_8hpp.html" target="_top" xlink:title="detail/DefaultDetectorElement\lBase.hpp">
<polygon fill="none" stroke="#000000" points="684.5,-321.5 684.5,-353.5 855.5,-353.5 855.5,-321.5 684.5,-321.5"/>
<text text-anchor="start" x="692.5" y="-340.5" font-family="FreeSans" font-size="10.00" fill="#000000">detail/DefaultDetectorElement</text>
<text text-anchor="middle" x="770" y="-328.5" font-family="FreeSans" font-size="10.00" fill="#000000">Base.hpp</text>
</a>
</g>
</g>
<!-- Node46&#45;&gt;Node47 -->
<g id="edge120" class="edge">
<title>Node46&#45;&gt;Node47</title>
<path fill="none" stroke="#191970" d="M649.4136,-390.4966C671.725,-380.6909 700.4764,-368.055 724.3083,-357.5811"/>
<polygon fill="#191970" stroke="#191970" points="725.7656,-360.7637 733.5123,-353.536 722.9492,-354.3553 725.7656,-360.7637"/>
</g>
<!-- Node47&#45;&gt;Node3 -->
<g id="edge122" class="edge">
<title>Node47&#45;&gt;Node3</title>
<path fill="none" stroke="#191970" d="M855.7218,-332.4731C912.5317,-329.1618 988.7136,-324.7595 1056,-321 1129.9926,-316.8658 1660.6695,-326.6001 1722,-285 1791.284,-238.0051 1734.5865,-164.971 1801,-114 1837.149,-86.2564 1970.7689,-73.9555 2035.0325,-69.5514"/>
<polygon fill="#191970" stroke="#191970" points="2035.3436,-73.0385 2045.0915,-68.8879 2034.8828,-66.0537 2035.3436,-73.0385"/>
</g>
<!-- Node47&#45;&gt;Node5 -->
<g id="edge121" class="edge">
<title>Node47&#45;&gt;Node5</title>
<path fill="none" stroke="#191970" d="M800.0486,-321.467C852.6953,-293.3819 965.0471,-233.4703 1060,-183 1083.9161,-170.2879 1111.0985,-155.8755 1130.9217,-145.3717"/>
<polygon fill="#191970" stroke="#191970" points="1132.8175,-148.3282 1140.0153,-140.5538 1129.5403,-142.1427 1132.8175,-148.3282"/>
</g>
<!-- Node47&#45;&gt;Node8 -->
<g id="edge123" class="edge">
<title>Node47&#45;&gt;Node8</title>
<path fill="none" stroke="#191970" d="M738.9209,-321.4966C716.5613,-309.9831 686.6239,-294.5675 664.8033,-283.3315"/>
<polygon fill="#191970" stroke="#191970" points="666.193,-280.1104 655.7002,-278.6441 662.9884,-286.3338 666.193,-280.1104"/>
</g>
<!-- Node47&#45;&gt;Node17 -->
<g id="edge124" class="edge">
<title>Node47&#45;&gt;Node17</title>
<path fill="none" stroke="#191970" d="M770.8907,-321.4022C771.0167,-302.0361 768.0447,-269.9013 749,-252 683.5096,-190.4416 613.7849,-279.3239 550,-216 517.5682,-183.8026 506.1636,-147.7285 537,-114 565.2144,-83.1394 823.8141,-72.5931 964.6169,-69.1207"/>
<polygon fill="#191970" stroke="#191970" points="965.0476,-72.6114 974.9609,-68.873 964.88,-65.6134 965.0476,-72.6114"/>
</g>
<!-- Node48&#45;&gt;Node17 -->
<g id="edge133" class="edge">
<title>Node48&#45;&gt;Node17</title>
<path fill="none" stroke="#191970" d="M155.1123,-327.4239C147.966,-311.3615 136.2156,-279.0081 143,-252 159.9553,-184.502 158.2959,-151.3802 217,-114 248.1199,-94.1842 754.6333,-76.6146 964.7556,-70.1426"/>
<polygon fill="#191970" stroke="#191970" points="964.9493,-73.6384 974.8373,-69.8336 964.7347,-66.6417 964.9493,-73.6384"/>
</g>
<!-- Node48&#45;&gt;Node25 -->
<g id="edge132" class="edge">
<title>Node48&#45;&gt;Node25</title>
<path fill="none" stroke="#191970" d="M172.9847,-327.3188C187.1529,-316.2097 210.0506,-298.2558 226.8262,-285.1022"/>
<polygon fill="#191970" stroke="#191970" points="229.2522,-287.6476 234.962,-278.723 224.933,-282.139 229.2522,-287.6476"/>
</g>
<!-- Node48&#45;&gt;Node34 -->
<g id="edge131" class="edge">
<title>Node48&#45;&gt;Node34</title>
<path fill="none" stroke="#191970" d="M254.1943,-329.2511C292.2967,-326.198 336.7168,-322.9973 377,-321 1066.1168,-286.8323 1239.3128,-304.5165 1929,-285 2098.6595,-280.199 2301.0432,-272.9672 2384.3078,-269.9266"/>
<polygon fill="#191970" stroke="#191970" points="2384.4606,-273.4235 2394.3259,-269.56 2384.2045,-266.4282 2384.4606,-273.4235"/>
</g>
<!-- Node49&#45;&gt;Node17 -->
<g id="edge139" class="edge">
<title>Node49&#45;&gt;Node17</title>
<path fill="none" stroke="#191970" d="M467.4048,-327.4965C462.3752,-291.9951 450.7609,-171.1261 515,-114 547.7887,-84.8419 819.4662,-73.488 964.5138,-69.4729"/>
<polygon fill="#191970" stroke="#191970" points="964.8317,-72.9657 974.7334,-69.1964 964.6423,-65.9682 964.8317,-72.9657"/>
</g>
<!-- Node49&#45;&gt;Node30 -->
<g id="edge138" class="edge">
<title>Node49&#45;&gt;Node30</title>
<path fill="none" stroke="#191970" d="M552.3236,-330.3757C727.4709,-315.4003 1127.247,-281.2187 1243.6441,-271.2665"/>
<polygon fill="#191970" stroke="#191970" points="1244.0359,-274.7459 1253.7013,-270.4066 1243.4395,-267.7713 1244.0359,-274.7459"/>
</g>
</g>
</svg>
