<?xml version="1.0" encoding="UTF-8" standalone="no"?>
<!DOCTYPE svg PUBLIC "-//W3C//DTD SVG 1.1//EN"
 "http://www.w3.org/Graphics/SVG/1.1/DTD/svg11.dtd">
<!-- Generated by graphviz version 2.40.1 (20161225.0304)
 -->
<!-- Title: BEmcRecEEMC::CorrectPosition Pages: 1 -->
<svg width="616pt" height="68pt"
 viewBox="0.00 0.00 616.00 68.00" xmlns="http://www.w3.org/2000/svg" xmlns:xlink="http://www.w3.org/1999/xlink">
<g id="graph0" class="graph" transform="scale(1 1) rotate(0) translate(4 64)">
<title>BEmcRecEEMC::CorrectPosition</title>
<!-- Node1 -->
<g id="node1" class="node">
<title>Node1</title>
<polygon fill="#bfbfbf" stroke="#000000" points="0,-19.5 0,-39.5 174,-39.5 174,-19.5 0,-19.5"/>
<text text-anchor="middle" x="87" y="-26.5" font-family="FreeSans" font-size="10.00" fill="#000000">BEmcRecEEMC::CorrectPosition</text>
</g>
<!-- Node2 -->
<g id="node2" class="node">
<title>Node2</title>
<g id="a_node2"><a xlink:href="../../d9/d04/classEmcCluster.html#aa7a15cfe3a8d3216d001e205e1001151" target="_top" xlink:title="EmcCluster::ABS">
<polygon fill="none" stroke="#000000" points="215.5,-39.5 215.5,-59.5 315.5,-59.5 315.5,-39.5 215.5,-39.5"/>
<text text-anchor="middle" x="265.5" y="-46.5" font-family="FreeSans" font-size="10.00" fill="#000000">EmcCluster::ABS</text>
</a>
</g>
</g>
<!-- Node1&#45;&gt;Node2 -->
<g id="edge1" class="edge">
<title>Node1&#45;&gt;Node2</title>
<path fill="none" stroke="#191970" d="M174.1584,-39.2656C184.6676,-40.4431 195.2154,-41.625 205.2187,-42.7458"/>
<polygon fill="#191970" stroke="#191970" points="205.0941,-46.2536 215.4216,-43.889 205.8736,-39.2972 205.0941,-46.2536"/>
</g>
<!-- Node5 -->
<g id="node5" class="node">
<title>Node5</title>
<g id="a_node5"><a xlink:href="../../d9/d04/classEmcCluster.html#ae3825e6596e83cb4b5272da3981bb121" target="_top" xlink:title="EmcCluster::lowint">
<polygon fill="none" stroke="#000000" points="210,-.5 210,-20.5 321,-20.5 321,-.5 210,-.5"/>
<text text-anchor="middle" x="265.5" y="-7.5" font-family="FreeSans" font-size="10.00" fill="#000000">EmcCluster::lowint</text>
</a>
</g>
</g>
<!-- Node1&#45;&gt;Node5 -->
<g id="edge4" class="edge">
<title>Node1&#45;&gt;Node5</title>
<path fill="none" stroke="#191970" d="M174.1584,-20.2226C182.7151,-19.3118 191.2974,-18.3983 199.5906,-17.5156"/>
<polygon fill="#191970" stroke="#191970" points="199.9685,-20.9952 209.5418,-16.4563 199.2275,-14.0345 199.9685,-20.9952"/>
</g>
<!-- Node3 -->
<g id="node3" class="node">
<title>Node3</title>
<g id="a_node3"><a xlink:href="../../df/d28/namespacekdfinder.html#ab72d428625e99a2d7380eb7691c246c7" target="_top" xlink:title="kdfinder::abs">
<polygon fill="none" stroke="#000000" points="357,-39.5 357,-59.5 440,-59.5 440,-39.5 357,-39.5"/>
<text text-anchor="middle" x="398.5" y="-46.5" font-family="FreeSans" font-size="10.00" fill="#000000">kdfinder::abs</text>
</a>
</g>
</g>
<!-- Node2&#45;&gt;Node3 -->
<g id="edge2" class="edge">
<title>Node2&#45;&gt;Node3</title>
<path fill="none" stroke="#191970" d="M315.7816,-49.5C325.8273,-49.5 336.3988,-49.5 346.5011,-49.5"/>
<polygon fill="#191970" stroke="#191970" points="346.8171,-53.0001 356.8171,-49.5 346.817,-46.0001 346.8171,-53.0001"/>
</g>
<!-- Node4 -->
<g id="node4" class="node">
<title>Node4</title>
<g id="a_node4"><a xlink:href="../../d8/dc7/classkdfinder_1_1TVector.html#ac9649c7577f12a7502ed523260f4ee90" target="_top" xlink:title="kdfinder::TVector::mag">
<polygon fill="none" stroke="#000000" points="476,-39.5 476,-59.5 608,-59.5 608,-39.5 476,-39.5"/>
<text text-anchor="middle" x="542" y="-46.5" font-family="FreeSans" font-size="10.00" fill="#000000">kdfinder::TVector::mag</text>
</a>
</g>
</g>
<!-- Node3&#45;&gt;Node4 -->
<g id="edge3" class="edge">
<title>Node3&#45;&gt;Node4</title>
<path fill="none" stroke="#191970" d="M440.0061,-49.5C448.1854,-49.5 457.0065,-49.5 465.917,-49.5"/>
<polygon fill="#191970" stroke="#191970" points="465.9858,-53.0001 475.9858,-49.5 465.9857,-46.0001 465.9858,-53.0001"/>
</g>
</g>
</svg>
