<?xml version="1.0" encoding="UTF-8" standalone="no"?>
<!DOCTYPE svg PUBLIC "-//W3C//DTD SVG 1.1//EN"
 "http://www.w3.org/Graphics/SVG/1.1/DTD/svg11.dtd">
<!-- Generated by graphviz version 2.40.1 (20161225.0304)
 -->
<!-- Title: FairGeoCompositeVolume::clear Pages: 1 -->
<svg width="685pt" height="103pt"
 viewBox="0.00 0.00 685.00 103.00" xmlns="http://www.w3.org/2000/svg" xmlns:xlink="http://www.w3.org/1999/xlink">
<g id="graph0" class="graph" transform="scale(1 1) rotate(0) translate(4 99)">
<title>FairGeoCompositeVolume::clear</title>
<!-- Node1 -->
<g id="node1" class="node">
<title>Node1</title>
<polygon fill="#bfbfbf" stroke="#000000" points="0,-22.5 0,-54.5 146,-54.5 146,-22.5 0,-22.5"/>
<text text-anchor="start" x="8" y="-41.5" font-family="FreeSans" font-size="10.00" fill="#000000">FairGeoCompositeVolume</text>
<text text-anchor="middle" x="73" y="-29.5" font-family="FreeSans" font-size="10.00" fill="#000000">::clear</text>
</g>
<!-- Node2 -->
<g id="node2" class="node">
<title>Node2</title>
<g id="a_node2"><a xlink:href="../../d2/d0a/classFairGeoVolume.html#a93d9107207a55c3144d19821a655376d" target="_top" xlink:title="FairGeoVolume::clear">
<polygon fill="none" stroke="#000000" points="192.5,-51.5 192.5,-71.5 317.5,-71.5 317.5,-51.5 192.5,-51.5"/>
<text text-anchor="middle" x="255" y="-58.5" font-family="FreeSans" font-size="10.00" fill="#000000">FairGeoVolume::clear</text>
</a>
</g>
</g>
<!-- Node1&#45;&gt;Node2 -->
<g id="edge1" class="edge">
<title>Node1&#45;&gt;Node2</title>
<path fill="none" stroke="#191970" d="M146.2397,-47.7556C158.0811,-49.252 170.34,-50.8012 182.1717,-52.2964"/>
<polygon fill="#191970" stroke="#191970" points="182.0781,-55.8124 192.4381,-53.5938 182.9558,-48.8676 182.0781,-55.8124"/>
</g>
<!-- Node6 -->
<g id="node6" class="node">
<title>Node6</title>
<g id="a_node6"><a xlink:href="../../d6/d45/classFairGeoCompositeVolume.html#ad77eafc8524b5fa45e374d255d592b0b" target="_top" xlink:title="FairGeoCompositeVolume\l::getNumComponents">
<polygon fill="none" stroke="#000000" points="182,-.5 182,-32.5 328,-32.5 328,-.5 182,-.5"/>
<text text-anchor="start" x="190" y="-19.5" font-family="FreeSans" font-size="10.00" fill="#000000">FairGeoCompositeVolume</text>
<text text-anchor="middle" x="255" y="-7.5" font-family="FreeSans" font-size="10.00" fill="#000000">::getNumComponents</text>
</a>
</g>
</g>
<!-- Node1&#45;&gt;Node6 -->
<g id="edge5" class="edge">
<title>Node1&#45;&gt;Node6</title>
<path fill="none" stroke="#191970" d="M146.2397,-29.6469C154.688,-28.6256 163.3489,-27.5787 171.9155,-26.5432"/>
<polygon fill="#191970" stroke="#191970" points="172.4026,-30.0099 181.9103,-25.335 171.5625,-23.0605 172.4026,-30.0099"/>
</g>
<!-- Node3 -->
<g id="node3" class="node">
<title>Node3</title>
<g id="a_node3"><a xlink:href="../../d1/d7a/classFairGeoTransform.html#abff631d03895ae2e4ccf9b478c47265f" target="_top" xlink:title="FairGeoTransform::clear">
<polygon fill="none" stroke="#000000" points="364,-51.5 364,-71.5 501,-71.5 501,-51.5 364,-51.5"/>
<text text-anchor="middle" x="432.5" y="-58.5" font-family="FreeSans" font-size="10.00" fill="#000000">FairGeoTransform::clear</text>
</a>
</g>
</g>
<!-- Node2&#45;&gt;Node3 -->
<g id="edge2" class="edge">
<title>Node2&#45;&gt;Node3</title>
<path fill="none" stroke="#191970" d="M317.5799,-61.5C329.2765,-61.5 341.6391,-61.5 353.7502,-61.5"/>
<polygon fill="#191970" stroke="#191970" points="353.8441,-65.0001 363.8441,-61.5 353.8441,-58.0001 353.8441,-65.0001"/>
</g>
<!-- Node4 -->
<g id="node4" class="node">
<title>Node4</title>
<g id="a_node4"><a xlink:href="../../d3/d41/classFairGeoVector.html#a6f18851c129dd31c2aa0ff84c2d17eec" target="_top" xlink:title="FairGeoVector::clear">
<polygon fill="none" stroke="#000000" points="547.5,-74.5 547.5,-94.5 666.5,-94.5 666.5,-74.5 547.5,-74.5"/>
<text text-anchor="middle" x="607" y="-81.5" font-family="FreeSans" font-size="10.00" fill="#000000">FairGeoVector::clear</text>
</a>
</g>
</g>
<!-- Node3&#45;&gt;Node4 -->
<g id="edge3" class="edge">
<title>Node3&#45;&gt;Node4</title>
<path fill="none" stroke="#191970" d="M501.2165,-70.5572C513.0191,-72.1128 525.2961,-73.731 537.1286,-75.2906"/>
<polygon fill="#191970" stroke="#191970" points="537.0177,-78.8062 547.3893,-76.643 537.9325,-71.8662 537.0177,-78.8062"/>
</g>
<!-- Node5 -->
<g id="node5" class="node">
<title>Node5</title>
<g id="a_node5"><a xlink:href="../../d0/d2a/classFairGeoRotation.html#aacd8adc2781a436d65fb7a8fec5f7c26" target="_top" xlink:title="FairGeoRotation::setUnit\lMatrix">
<polygon fill="none" stroke="#000000" points="537,-23.5 537,-55.5 677,-55.5 677,-23.5 537,-23.5"/>
<text text-anchor="start" x="545" y="-42.5" font-family="FreeSans" font-size="10.00" fill="#000000">FairGeoRotation::setUnit</text>
<text text-anchor="middle" x="607" y="-30.5" font-family="FreeSans" font-size="10.00" fill="#000000">Matrix</text>
</a>
</g>
</g>
<!-- Node3&#45;&gt;Node5 -->
<g id="edge4" class="edge">
<title>Node3&#45;&gt;Node5</title>
<path fill="none" stroke="#191970" d="M501.2165,-52.8366C509.6482,-51.7736 518.322,-50.68 526.9029,-49.5982"/>
<polygon fill="#191970" stroke="#191970" points="527.4298,-53.0596 536.9134,-48.3361 526.5541,-46.1146 527.4298,-53.0596"/>
</g>
</g>
</svg>
