<?xml version="1.0" encoding="UTF-8" standalone="no"?>
<!DOCTYPE svg PUBLIC "-//W3C//DTD SVG 1.1//EN"
 "http://www.w3.org/Graphics/SVG/1.1/DTD/svg11.dtd">
<!-- Generated by graphviz version 2.40.1 (20161225.0304)
 -->
<!-- Title: G4DSTreader_fsPHENIX Pages: 1 -->
<svg width="714pt" height="452pt"
 viewBox="0.00 0.00 714.00 452.00" xmlns="http://www.w3.org/2000/svg" xmlns:xlink="http://www.w3.org/1999/xlink">
<g id="graph0" class="graph" transform="scale(1 1) rotate(0) translate(4 448)">
<title>G4DSTreader_fsPHENIX</title>
<!-- Node1 -->
<g id="node1" class="node">
<title>Node1</title>
<polygon fill="#bfbfbf" stroke="#000000" points="0,-223.5 0,-243.5 134,-243.5 134,-223.5 0,-223.5"/>
<text text-anchor="middle" x="67" y="-230.5" font-family="FreeSans" font-size="10.00" fill="#000000">G4DSTreader_fsPHENIX</text>
</g>
<!-- Node2 -->
<g id="node2" class="node">
<title>Node2</title>
<g id="a_node2"><a xlink:href="../../d4/dc9/classPHG4DSTReader.html#ad95002b6a7bbbc879e5b236a79d6e2e7" target="_top" xlink:title="PHG4DSTReader::AddNode">
<polygon fill="none" stroke="#000000" points="187.5,-411.5 187.5,-431.5 340.5,-431.5 340.5,-411.5 187.5,-411.5"/>
<text text-anchor="middle" x="264" y="-418.5" font-family="FreeSans" font-size="10.00" fill="#000000">PHG4DSTReader::AddNode</text>
</a>
</g>
</g>
<!-- Node1&#45;&gt;Node2 -->
<g id="edge1" class="edge">
<title>Node1&#45;&gt;Node2</title>
<path fill="none" stroke="#191970" d="M70.0588,-243.8967C79.4571,-273.892 110.917,-361.0788 170,-402.5 172.5753,-404.3055 175.2825,-405.948 178.0879,-407.4417"/>
<polygon fill="#191970" stroke="#191970" points="176.7956,-410.7002 187.3409,-411.7233 179.7353,-404.3474 176.7956,-410.7002"/>
</g>
<!-- Node3 -->
<g id="node3" class="node">
<title>Node3</title>
<g id="a_node3"><a xlink:href="../../d4/dc9/classPHG4DSTReader.html#a3ff142d9ff490a52ebd6b43d283c6677" target="_top" xlink:title="PHG4DSTReader::AddTower">
<polygon fill="none" stroke="#000000" points="186,-372.5 186,-392.5 342,-392.5 342,-372.5 186,-372.5"/>
<text text-anchor="middle" x="264" y="-379.5" font-family="FreeSans" font-size="10.00" fill="#000000">PHG4DSTReader::AddTower</text>
</a>
</g>
</g>
<!-- Node1&#45;&gt;Node3 -->
<g id="edge2" class="edge">
<title>Node1&#45;&gt;Node3</title>
<path fill="none" stroke="#191970" d="M72.4575,-243.66C85.776,-267.4496 122.3693,-327.0513 170,-357.5 177.443,-362.2581 185.7693,-366.1155 194.3071,-369.2417"/>
<polygon fill="#191970" stroke="#191970" points="193.4069,-372.6308 204.0005,-372.4695 195.6185,-365.9893 193.4069,-372.6308"/>
</g>
<!-- Node4 -->
<g id="node4" class="node">
<title>Node4</title>
<g id="a_node4"><a xlink:href="../../da/d29/classFun4AllServer.html#a3e55156f91b2c94bb6c4ef33ffce587a" target="_top" xlink:title="Fun4AllServer::instance">
<polygon fill="none" stroke="#000000" points="394,-423.5 394,-443.5 530,-443.5 530,-423.5 394,-423.5"/>
<text text-anchor="middle" x="462" y="-430.5" font-family="FreeSans" font-size="10.00" fill="#000000">Fun4AllServer::instance</text>
</a>
</g>
</g>
<!-- Node1&#45;&gt;Node4 -->
<g id="edge3" class="edge">
<title>Node1&#45;&gt;Node4</title>
<path fill="none" stroke="#191970" d="M75.4484,-243.7375C91.6749,-262.675 129.2248,-303.1 170,-323.5 246.3979,-361.7222 282.0624,-324.3712 358,-363.5 377.2943,-373.4419 376.3364,-383.8863 394,-396.5 405.5647,-404.7584 419.1765,-412.5068 431.1715,-418.7577"/>
<polygon fill="#191970" stroke="#191970" points="429.8737,-422.024 440.3747,-423.4308 433.043,-415.7825 429.8737,-422.024"/>
</g>
<!-- Node5 -->
<g id="node5" class="node">
<title>Node5</title>
<g id="a_node5"><a xlink:href="../../da/d29/classFun4AllServer.html#a0a9947db0ede1e55622001eb7515f8c0" target="_top" xlink:title="Fun4AllServer::registerSubsystem">
<polygon fill="none" stroke="#000000" points="170,-294.5 170,-314.5 358,-314.5 358,-294.5 170,-294.5"/>
<text text-anchor="middle" x="264" y="-301.5" font-family="FreeSans" font-size="10.00" fill="#000000">Fun4AllServer::registerSubsystem</text>
</a>
</g>
</g>
<!-- Node1&#45;&gt;Node5 -->
<g id="edge4" class="edge">
<title>Node1&#45;&gt;Node5</title>
<path fill="none" stroke="#191970" d="M83.9211,-243.5324C103.8737,-254.9656 138.3375,-273.4883 170,-284.5 178.2439,-287.3671 187.0437,-289.8975 195.8281,-292.1093"/>
<polygon fill="#191970" stroke="#191970" points="195.1691,-295.5503 205.7089,-294.4719 196.797,-288.7422 195.1691,-295.5503"/>
</g>
<!-- Node15 -->
<g id="node15" class="node">
<title>Node15</title>
<g id="a_node15"><a xlink:href="../../d4/dc9/classPHG4DSTReader.html#af40c7548b7a92d5da87e8551b72b3de8" target="_top" xlink:title="load all particle that produced a saved hit">
<polygon fill="none" stroke="#000000" points="202.5,-243.5 202.5,-275.5 325.5,-275.5 325.5,-243.5 202.5,-243.5"/>
<text text-anchor="start" x="210.5" y="-262.5" font-family="FreeSans" font-size="10.00" fill="#000000">PHG4DSTReader::set</text>
<text text-anchor="middle" x="264" y="-250.5" font-family="FreeSans" font-size="10.00" fill="#000000">_load_active_particle</text>
</a>
</g>
</g>
<!-- Node1&#45;&gt;Node15 -->
<g id="edge19" class="edge">
<title>Node1&#45;&gt;Node15</title>
<path fill="none" stroke="#191970" d="M134.2452,-242.375C152.9528,-244.844 173.3385,-247.5345 192.2918,-250.036"/>
<polygon fill="#191970" stroke="#191970" points="191.982,-253.5253 202.354,-251.364 192.8979,-246.5855 191.982,-253.5253"/>
</g>
<!-- Node16 -->
<g id="node16" class="node">
<title>Node16</title>
<g id="a_node16"><a xlink:href="../../d4/dc9/classPHG4DSTReader.html#a8f8aaa1d925f60f427b1800a17921cb8" target="_top" xlink:title="PHG4DSTReader::set\l_load_all_particle">
<polygon fill="none" stroke="#000000" points="202.5,-192.5 202.5,-224.5 325.5,-224.5 325.5,-192.5 202.5,-192.5"/>
<text text-anchor="start" x="210.5" y="-211.5" font-family="FreeSans" font-size="10.00" fill="#000000">PHG4DSTReader::set</text>
<text text-anchor="middle" x="264" y="-199.5" font-family="FreeSans" font-size="10.00" fill="#000000">_load_all_particle</text>
</a>
</g>
</g>
<!-- Node1&#45;&gt;Node16 -->
<g id="edge20" class="edge">
<title>Node1&#45;&gt;Node16</title>
<path fill="none" stroke="#191970" d="M134.2452,-224.9663C152.9528,-222.5923 173.3385,-220.0053 192.2918,-217.6"/>
<polygon fill="#191970" stroke="#191970" points="192.8742,-221.0543 202.354,-216.3231 191.9929,-214.11 192.8742,-221.0543"/>
</g>
<!-- Node17 -->
<g id="node17" class="node">
<title>Node17</title>
<g id="a_node17"><a xlink:href="../../d4/dc9/classPHG4DSTReader.html#aee061057ff4d7f958568beb6c00a36dc" target="_top" xlink:title="Switch for saving any particles at all.">
<polygon fill="none" stroke="#000000" points="202.5,-141.5 202.5,-173.5 325.5,-173.5 325.5,-141.5 202.5,-141.5"/>
<text text-anchor="start" x="210.5" y="-160.5" font-family="FreeSans" font-size="10.00" fill="#000000">PHG4DSTReader::set</text>
<text text-anchor="middle" x="264" y="-148.5" font-family="FreeSans" font-size="10.00" fill="#000000">_save_particle</text>
</a>
</g>
</g>
<!-- Node1&#45;&gt;Node17 -->
<g id="edge21" class="edge">
<title>Node1&#45;&gt;Node17</title>
<path fill="none" stroke="#191970" d="M84.745,-223.3467C104.8932,-212.1452 138.998,-194.1639 170,-182.5 177.2235,-179.7823 184.8637,-177.2382 192.5417,-174.8923"/>
<polygon fill="#191970" stroke="#191970" points="193.6561,-178.2128 202.2589,-172.0287 191.6773,-171.4983 193.6561,-178.2128"/>
</g>
<!-- Node18 -->
<g id="node18" class="node">
<title>Node18</title>
<g id="a_node18"><a xlink:href="../../d4/dc9/classPHG4DSTReader.html#aaf89f8479386ec9e8223e98d532798ae" target="_top" xlink:title="Switch for vertex.">
<polygon fill="none" stroke="#000000" points="202.5,-90.5 202.5,-122.5 325.5,-122.5 325.5,-90.5 202.5,-90.5"/>
<text text-anchor="start" x="210.5" y="-109.5" font-family="FreeSans" font-size="10.00" fill="#000000">PHG4DSTReader::set</text>
<text text-anchor="middle" x="264" y="-97.5" font-family="FreeSans" font-size="10.00" fill="#000000">_save_vertex</text>
</a>
</g>
</g>
<!-- Node1&#45;&gt;Node18 -->
<g id="edge22" class="edge">
<title>Node1&#45;&gt;Node18</title>
<path fill="none" stroke="#191970" d="M74.2684,-223.358C89.5605,-202.7838 127.1994,-156.0191 170,-131.5 177.0837,-127.442 184.8441,-124.0251 192.7732,-121.1519"/>
<polygon fill="#191970" stroke="#191970" points="194.115,-124.394 202.4943,-117.9103 191.9006,-117.7535 194.115,-124.394"/>
</g>
<!-- Node19 -->
<g id="node19" class="node">
<title>Node19</title>
<g id="a_node19"><a xlink:href="../../d4/dc9/classPHG4DSTReader.html#ab6d2af160fbe1ee181c485d87ef53351" target="_top" xlink:title="zero suppression for all calorimeters">
<polygon fill="none" stroke="#000000" points="202.5,-39.5 202.5,-71.5 325.5,-71.5 325.5,-39.5 202.5,-39.5"/>
<text text-anchor="start" x="210.5" y="-58.5" font-family="FreeSans" font-size="10.00" fill="#000000">PHG4DSTReader::set</text>
<text text-anchor="middle" x="264" y="-46.5" font-family="FreeSans" font-size="10.00" fill="#000000">_tower_zero_sup</text>
</a>
</g>
</g>
<!-- Node1&#45;&gt;Node19 -->
<g id="edge23" class="edge">
<title>Node1&#45;&gt;Node19</title>
<path fill="none" stroke="#191970" d="M70.7846,-223.4568C81.6634,-195.9979 115.7587,-119.1506 170,-80.5 176.9192,-75.5696 184.7495,-71.6115 192.8655,-68.434"/>
<polygon fill="#191970" stroke="#191970" points="194.2139,-71.67 202.4867,-65.051 191.8919,-65.0664 194.2139,-71.67"/>
</g>
<!-- Node20 -->
<g id="node20" class="node">
<title>Node20</title>
<g id="a_node20"><a xlink:href="../../d5/dec/classFun4AllBase.html#a05da2261577843028cf78e99171343b9" target="_top" xlink:title="Sets the verbosity of this module (0 by default=quiet).">
<polygon fill="none" stroke="#000000" points="198,-.5 198,-20.5 330,-20.5 330,-.5 198,-.5"/>
<text text-anchor="middle" x="264" y="-7.5" font-family="FreeSans" font-size="10.00" fill="#000000">Fun4AllBase::Verbosity</text>
</a>
</g>
</g>
<!-- Node1&#45;&gt;Node20 -->
<g id="edge24" class="edge">
<title>Node1&#45;&gt;Node20</title>
<path fill="none" stroke="#191970" d="M68.8595,-223.4576C75.6209,-189.9535 102.1622,-81.2139 170,-29.5 175.4267,-25.3631 181.5251,-22.0639 187.941,-19.4401"/>
<polygon fill="#191970" stroke="#191970" points="189.2598,-22.6863 197.527,-16.0603 186.9322,-16.0846 189.2598,-22.6863"/>
</g>
<!-- Node5&#45;&gt;Node4 -->
<g id="edge5" class="edge">
<title>Node5&#45;&gt;Node4</title>
<path fill="none" stroke="#191970" d="M331.3201,-314.5239C340.9859,-318.1132 350.2609,-322.9605 358,-329.5 387.4721,-354.4036 365.7091,-382.2623 394,-408.5 398.5997,-412.7659 403.9882,-416.3185 409.6835,-419.2738"/>
<polygon fill="#191970" stroke="#191970" points="408.2661,-422.4741 418.8166,-423.4429 411.173,-416.1062 408.2661,-422.4741"/>
</g>
<!-- Node6 -->
<g id="node6" class="node">
<title>Node6</title>
<g id="a_node6"><a xlink:href="../../df/de8/cemc_8C.html#adf5c804dfce7a70e36dda02995fad481" target="_top" xlink:title="exit">
<polygon fill="none" stroke="#000000" points="444.5,-255.5 444.5,-275.5 479.5,-275.5 479.5,-255.5 444.5,-255.5"/>
<text text-anchor="middle" x="462" y="-262.5" font-family="FreeSans" font-size="10.00" fill="#000000">exit</text>
</a>
</g>
</g>
<!-- Node5&#45;&gt;Node6 -->
<g id="edge6" class="edge">
<title>Node5&#45;&gt;Node6</title>
<path fill="none" stroke="#191970" d="M314.9899,-294.4565C352.9139,-286.9867 403.2398,-277.074 434.0857,-270.9983"/>
<polygon fill="#191970" stroke="#191970" points="434.9966,-274.3862 444.1316,-269.0195 433.6437,-267.5182 434.9966,-274.3862"/>
</g>
<!-- Node7 -->
<g id="node7" class="node">
<title>Node7</title>
<g id="a_node7"><a xlink:href="../../d5/dec/classFun4AllBase.html#a41f9ac377743d046f590617fd6f4f0ed" target="_top" xlink:title="Returns the name of this module.">
<polygon fill="none" stroke="#000000" points="404.5,-216.5 404.5,-236.5 519.5,-236.5 519.5,-216.5 404.5,-216.5"/>
<text text-anchor="middle" x="462" y="-223.5" font-family="FreeSans" font-size="10.00" fill="#000000">Fun4AllBase::Name</text>
</a>
</g>
</g>
<!-- Node5&#45;&gt;Node7 -->
<g id="edge7" class="edge">
<title>Node5&#45;&gt;Node7</title>
<path fill="none" stroke="#191970" d="M335.0507,-294.351C343.0661,-291.7735 350.895,-288.5446 358,-284.5 378.5002,-272.8301 373.8764,-257.808 394,-245.5 397.0194,-243.6533 400.2228,-241.9814 403.5303,-240.4684"/>
<polygon fill="#191970" stroke="#191970" points="405.1035,-243.6076 413.0606,-236.6122 402.4778,-237.1187 405.1035,-243.6076"/>
</g>
<!-- Node8 -->
<g id="node8" class="node">
<title>Node8</title>
<g id="a_node8"><a xlink:href="../../da/d29/classFun4AllServer.html#abcaf6825367e5db292ff795237bdcf62" target="_top" xlink:title="Fun4AllServer::topNode">
<polygon fill="none" stroke="#000000" points="394,-177.5 394,-197.5 530,-197.5 530,-177.5 394,-177.5"/>
<text text-anchor="middle" x="462" y="-184.5" font-family="FreeSans" font-size="10.00" fill="#000000">Fun4AllServer::topNode</text>
</a>
</g>
</g>
<!-- Node5&#45;&gt;Node8 -->
<g id="edge8" class="edge">
<title>Node5&#45;&gt;Node8</title>
<path fill="none" stroke="#191970" d="M341.6246,-294.2998C347.492,-291.6801 353.0463,-288.4571 358,-284.5 387.8316,-260.6703 364.9316,-231.2549 394,-206.5 395.5748,-205.1589 397.2375,-203.912 398.9696,-202.7528"/>
<polygon fill="#191970" stroke="#191970" points="401.0887,-205.5789 408.1234,-197.6566 397.6836,-199.4629 401.0887,-205.5789"/>
</g>
<!-- Node9 -->
<g id="node9" class="node">
<title>Node9</title>
<g id="a_node9"><a xlink:href="../../d7/d96/classFun4AllMemoryTracker.html#a3841cc0bc6c4047da2b4868ba39dbb8c" target="_top" xlink:title="Fun4AllMemoryTracker\l::Start">
<polygon fill="none" stroke="#000000" points="396,-126.5 396,-158.5 528,-158.5 528,-126.5 396,-126.5"/>
<text text-anchor="start" x="404" y="-145.5" font-family="FreeSans" font-size="10.00" fill="#000000">Fun4AllMemoryTracker</text>
<text text-anchor="middle" x="462" y="-133.5" font-family="FreeSans" font-size="10.00" fill="#000000">::Start</text>
</a>
</g>
</g>
<!-- Node5&#45;&gt;Node9 -->
<g id="edge9" class="edge">
<title>Node5&#45;&gt;Node9</title>
<path fill="none" stroke="#191970" d="M343.5763,-294.3322C348.8039,-291.6796 353.6914,-288.4418 358,-284.5 398.1415,-247.7759 356.5781,-206.9918 394,-167.5 394.9003,-166.5499 395.8398,-165.6357 396.8137,-164.7561"/>
<polygon fill="#191970" stroke="#191970" points="399.0065,-167.4862 404.8787,-158.6676 394.7888,-161.8994 399.0065,-167.4862"/>
</g>
<!-- Node12 -->
<g id="node12" class="node">
<title>Node12</title>
<g id="a_node12"><a xlink:href="../../d5/dec/classFun4AllBase.html#a8a5c77a92bdac6bc043476e132379a40" target="_top" xlink:title="Gets the verbosity of this module.">
<polygon fill="none" stroke="#000000" points="570,-339.5 570,-359.5 702,-359.5 702,-339.5 570,-339.5"/>
<text text-anchor="middle" x="636" y="-346.5" font-family="FreeSans" font-size="10.00" fill="#000000">Fun4AllBase::Verbosity</text>
</a>
</g>
</g>
<!-- Node5&#45;&gt;Node12 -->
<g id="edge18" class="edge">
<title>Node5&#45;&gt;Node12</title>
<path fill="none" stroke="#191970" d="M325.1346,-314.6032C336.6355,-318.1694 348.1341,-322.9889 358,-329.5 379.6677,-343.7998 370.6617,-364.129 394,-375.5 462.9779,-409.1077 555.858,-381.9575 604.0277,-363.3331"/>
<polygon fill="#191970" stroke="#191970" points="605.6119,-366.4695 613.6033,-359.5133 603.0182,-359.9677 605.6119,-366.4695"/>
</g>
<!-- Node13 -->
<g id="node13" class="node">
<title>Node13</title>
<g id="a_node13"><a xlink:href="../../d0/d32/classSubsysReco.html#a6670c0a093dd2c2bdd44f8fc6f9ba8e8" target="_top" xlink:title="SubsysReco::Init">
<polygon fill="none" stroke="#000000" points="412,-294.5 412,-314.5 512,-314.5 512,-294.5 412,-294.5"/>
<text text-anchor="middle" x="462" y="-301.5" font-family="FreeSans" font-size="10.00" fill="#000000">SubsysReco::Init</text>
</a>
</g>
</g>
<!-- Node5&#45;&gt;Node13 -->
<g id="edge13" class="edge">
<title>Node5&#45;&gt;Node13</title>
<path fill="none" stroke="#191970" d="M358.0711,-304.5C372.8604,-304.5 387.7966,-304.5 401.5554,-304.5"/>
<polygon fill="#191970" stroke="#191970" points="401.8253,-308.0001 411.8253,-304.5 401.8253,-301.0001 401.8253,-308.0001"/>
</g>
<!-- Node14 -->
<g id="node14" class="node">
<title>Node14</title>
<g id="a_node14"><a xlink:href="../../d7/d96/classFun4AllMemoryTracker.html#a766ac66dd36ffa4e3fbe6e622923565f" target="_top" xlink:title="Fun4AllMemoryTracker\l::Stop">
<polygon fill="none" stroke="#000000" points="396,-333.5 396,-365.5 528,-365.5 528,-333.5 396,-333.5"/>
<text text-anchor="start" x="404" y="-352.5" font-family="FreeSans" font-size="10.00" fill="#000000">Fun4AllMemoryTracker</text>
<text text-anchor="middle" x="462" y="-340.5" font-family="FreeSans" font-size="10.00" fill="#000000">::Stop</text>
</a>
</g>
</g>
<!-- Node5&#45;&gt;Node14 -->
<g id="edge14" class="edge">
<title>Node5&#45;&gt;Node14</title>
<path fill="none" stroke="#191970" d="M308.4351,-314.5989C331.284,-319.7918 359.7723,-326.2664 385.9849,-332.2239"/>
<polygon fill="#191970" stroke="#191970" points="385.3763,-335.6747 395.9033,-334.478 386.9277,-328.8488 385.3763,-335.6747"/>
</g>
<!-- Node10 -->
<g id="node10" class="node">
<title>Node10</title>
<g id="a_node10"><a xlink:href="../../d7/d96/classFun4AllMemoryTracker.html#aa8eb9ed150f51165b9abfd456c18a432" target="_top" xlink:title="Fun4AllMemoryTracker\l::CreateFullTrackerName">
<polygon fill="none" stroke="#000000" points="566,-260.5 566,-292.5 706,-292.5 706,-260.5 566,-260.5"/>
<text text-anchor="start" x="574" y="-279.5" font-family="FreeSans" font-size="10.00" fill="#000000">Fun4AllMemoryTracker</text>
<text text-anchor="middle" x="636" y="-267.5" font-family="FreeSans" font-size="10.00" fill="#000000">::CreateFullTrackerName</text>
</a>
</g>
</g>
<!-- Node9&#45;&gt;Node10 -->
<g id="edge10" class="edge">
<title>Node9&#45;&gt;Node10</title>
<path fill="none" stroke="#191970" d="M513.3403,-158.52C519.1488,-161.1567 524.8306,-164.1439 530,-167.5 565.6483,-190.6438 598.387,-227.7946 617.7737,-252.1768"/>
<polygon fill="#191970" stroke="#191970" points="615.1442,-254.4964 624.057,-260.2247 620.6618,-250.1886 615.1442,-254.4964"/>
</g>
<!-- Node11 -->
<g id="node11" class="node">
<title>Node11</title>
<g id="a_node11"><a xlink:href="../../d7/d96/classFun4AllMemoryTracker.html#a4059a8c86c92e1708e5bbdc585af99ed" target="_top" xlink:title="Fun4AllMemoryTracker\l::GetRSSMemory">
<polygon fill="none" stroke="#000000" points="570,-154.5 570,-186.5 702,-186.5 702,-154.5 570,-154.5"/>
<text text-anchor="start" x="578" y="-173.5" font-family="FreeSans" font-size="10.00" fill="#000000">Fun4AllMemoryTracker</text>
<text text-anchor="middle" x="636" y="-161.5" font-family="FreeSans" font-size="10.00" fill="#000000">::GetRSSMemory</text>
</a>
</g>
</g>
<!-- Node9&#45;&gt;Node11 -->
<g id="edge11" class="edge">
<title>Node9&#45;&gt;Node11</title>
<path fill="none" stroke="#191970" d="M528.2783,-153.1655C538.6131,-154.8285 549.3621,-156.5583 559.8946,-158.2532"/>
<polygon fill="#191970" stroke="#191970" points="559.4769,-161.7309 569.906,-159.8642 560.5891,-154.8198 559.4769,-161.7309"/>
</g>
<!-- Node9&#45;&gt;Node12 -->
<g id="edge12" class="edge">
<title>Node9&#45;&gt;Node12</title>
<path fill="none" stroke="#191970" d="M519.256,-158.5422C523.2077,-161.1002 526.8603,-164.0647 530,-167.5 571.6031,-213.0197 530.3656,-251.1706 566,-301.5 575.7549,-315.2776 590.7975,-326.3367 604.4417,-334.3512"/>
<polygon fill="#191970" stroke="#191970" points="603.1377,-337.6298 613.582,-339.4093 606.5271,-331.505 603.1377,-337.6298"/>
</g>
<!-- Node14&#45;&gt;Node10 -->
<g id="edge15" class="edge">
<title>Node14&#45;&gt;Node10</title>
<path fill="none" stroke="#191970" d="M504.9379,-333.4722C513.2821,-330.2477 521.9381,-326.8259 530,-323.5 550.3771,-315.0935 572.7157,-305.2795 591.6096,-296.8002"/>
<polygon fill="#191970" stroke="#191970" points="593.1855,-299.929 600.8649,-292.6299 590.3098,-293.547 593.1855,-299.929"/>
</g>
<!-- Node14&#45;&gt;Node11 -->
<g id="edge16" class="edge">
<title>Node14&#45;&gt;Node11</title>
<path fill="none" stroke="#191970" d="M515.867,-333.4344C520.9684,-330.6178 525.7958,-327.3305 530,-323.5 556.7405,-299.1363 545.9189,-280.5897 566,-250.5 579.6093,-230.1077 597.9438,-209.3371 612.4348,-194.072"/>
<polygon fill="#191970" stroke="#191970" points="615.196,-196.2507 619.617,-186.6223 610.1566,-191.3923 615.196,-196.2507"/>
</g>
<!-- Node14&#45;&gt;Node12 -->
<g id="edge17" class="edge">
<title>Node14&#45;&gt;Node12</title>
<path fill="none" stroke="#191970" d="M528.2783,-349.5C538.6131,-349.5 549.3621,-349.5 559.8946,-349.5"/>
<polygon fill="#191970" stroke="#191970" points="559.906,-353.0001 569.906,-349.5 559.9059,-346.0001 559.906,-353.0001"/>
</g>
</g>
</svg>
