<?xml version="1.0" encoding="UTF-8" standalone="no"?>
<!DOCTYPE svg PUBLIC "-//W3C//DTD SVG 1.1//EN"
 "http://www.w3.org/Graphics/SVG/1.1/DTD/svg11.dtd">
<!-- Generated by graphviz version 2.40.1 (20161225.0304)
 -->
<!-- Title: fun4all_coresoftware/blob/master/simulation/g4simulation/g4vertex/GlobalVertexReco.h Pages: 1 -->
<svg width="2583pt" height="239pt"
 viewBox="0.00 0.00 2583.00 239.00" xmlns="http://www.w3.org/2000/svg" xmlns:xlink="http://www.w3.org/1999/xlink">
<g id="graph0" class="graph" transform="scale(1 1) rotate(0) translate(4 235)">
<title>fun4all_coresoftware/blob/master/simulation/g4simulation/g4vertex/GlobalVertexReco.h</title>
<!-- Node1 -->
<g id="node1" class="node">
<title>Node1</title>
<polygon fill="#bfbfbf" stroke="#000000" points="1074.5,-174.5 1074.5,-230.5 1211.5,-230.5 1211.5,-174.5 1074.5,-174.5"/>
<text text-anchor="start" x="1082.5" y="-217.5" font-family="FreeSans" font-size="10.00" fill="#000000">fun4all_coresoftware</text>
<text text-anchor="start" x="1082.5" y="-205.5" font-family="FreeSans" font-size="10.00" fill="#000000">/blob/master/simulation</text>
<text text-anchor="start" x="1082.5" y="-193.5" font-family="FreeSans" font-size="10.00" fill="#000000">/g4simulation/g4vertex</text>
<text text-anchor="middle" x="1143" y="-181.5" font-family="FreeSans" font-size="10.00" fill="#000000">/GlobalVertexReco.h</text>
</g>
<!-- Node2 -->
<g id="node2" class="node">
<title>Node2</title>
<g id="a_node2"><a xlink:href="../../d5/d60/GlobalVertexReco_8cc.html" target="_top" xlink:title="fun4all_coresoftware\l/blob/master/simulation\l/g4simulation/g4vertex\l/GlobalVertexReco.cc">
<polygon fill="none" stroke="#000000" points="903.5,-81.5 903.5,-137.5 1040.5,-137.5 1040.5,-81.5 903.5,-81.5"/>
<text text-anchor="start" x="911.5" y="-124.5" font-family="FreeSans" font-size="10.00" fill="#000000">fun4all_coresoftware</text>
<text text-anchor="start" x="911.5" y="-112.5" font-family="FreeSans" font-size="10.00" fill="#000000">/blob/master/simulation</text>
<text text-anchor="start" x="911.5" y="-100.5" font-family="FreeSans" font-size="10.00" fill="#000000">/g4simulation/g4vertex</text>
<text text-anchor="middle" x="972" y="-88.5" font-family="FreeSans" font-size="10.00" fill="#000000">/GlobalVertexReco.cc</text>
</a>
</g>
</g>
<!-- Node1&#45;&gt;Node2 -->
<g id="edge1" class="edge">
<title>Node1&#45;&gt;Node2</title>
<path fill="none" stroke="#191970" d="M1082.2693,-169.471C1063.0839,-159.0369 1042.0774,-147.6123 1023.5937,-137.5597"/>
<polygon fill="#191970" stroke="#191970" points="1080.7732,-172.6415 1091.2303,-174.3446 1084.1177,-166.4921 1080.7732,-172.6415"/>
</g>
<!-- Node3 -->
<g id="node3" class="node">
<title>Node3</title>
<g id="a_node3"><a xlink:href="../../dc/d51/fun4all__macros_2blob_2master_2common_2G4__Global_8C.html" target="_top" xlink:title="fun4all_macros/blob\l/master/common/G4_Global.C">
<polygon fill="none" stroke="#000000" points="1058.5,-93.5 1058.5,-125.5 1227.5,-125.5 1227.5,-93.5 1058.5,-93.5"/>
<text text-anchor="start" x="1066.5" y="-112.5" font-family="FreeSans" font-size="10.00" fill="#000000">fun4all_macros/blob</text>
<text text-anchor="middle" x="1143" y="-100.5" font-family="FreeSans" font-size="10.00" fill="#000000">/master/common/G4_Global.C</text>
</a>
</g>
</g>
<!-- Node1&#45;&gt;Node3 -->
<g id="edge2" class="edge">
<title>Node1&#45;&gt;Node3</title>
<path fill="none" stroke="#191970" d="M1143,-164.2914C1143,-150.7967 1143,-136.3392 1143,-125.6653"/>
<polygon fill="#191970" stroke="#191970" points="1139.5001,-164.3445 1143,-174.3446 1146.5001,-164.3446 1139.5001,-164.3445"/>
</g>
<!-- Node4 -->
<g id="node4" class="node">
<title>Node4</title>
<g id="a_node4"><a xlink:href="../../d9/d42/g4lblvtx_2blob_2master_2macros_2G4__Global_8C.html" target="_top" xlink:title="g4lblvtx/blob/master\l/macros/G4_Global.C">
<polygon fill="none" stroke="#000000" points="1245.5,-93.5 1245.5,-125.5 1368.5,-125.5 1368.5,-93.5 1245.5,-93.5"/>
<text text-anchor="start" x="1253.5" y="-112.5" font-family="FreeSans" font-size="10.00" fill="#000000">g4lblvtx/blob/master</text>
<text text-anchor="middle" x="1307" y="-100.5" font-family="FreeSans" font-size="10.00" fill="#000000">/macros/G4_Global.C</text>
</a>
</g>
</g>
<!-- Node1&#45;&gt;Node4 -->
<g id="edge3" class="edge">
<title>Node1&#45;&gt;Node4</title>
<path fill="none" stroke="#191970" d="M1201.3798,-169.3944C1227.5686,-154.5434 1257.2716,-137.6996 1278.4934,-125.6653"/>
<polygon fill="#191970" stroke="#191970" points="1199.6227,-166.3672 1192.6505,-174.3446 1203.0757,-172.4563 1199.6227,-166.3672"/>
</g>
<!-- Node5 -->
<g id="node5" class="node">
<title>Node5</title>
<g id="a_node5"><a xlink:href="../../d9/d18/Fun4All__G4__LBLDetector_8C.html" target="_top" xlink:title="fun4all_eicmacros/blob\l/master/detectors/AllSilicon\l/Fun4All_G4_LBLDetector.C">
<polygon fill="none" stroke="#000000" points="0,-.5 0,-44.5 156,-44.5 156,-.5 0,-.5"/>
<text text-anchor="start" x="8" y="-31.5" font-family="FreeSans" font-size="10.00" fill="#000000">fun4all_eicmacros/blob</text>
<text text-anchor="start" x="8" y="-19.5" font-family="FreeSans" font-size="10.00" fill="#000000">/master/detectors/AllSilicon</text>
<text text-anchor="middle" x="78" y="-7.5" font-family="FreeSans" font-size="10.00" fill="#000000">/Fun4All_G4_LBLDetector.C</text>
</a>
</g>
</g>
<!-- Node4&#45;&gt;Node5 -->
<g id="edge4" class="edge">
<title>Node4&#45;&gt;Node5</title>
<path fill="none" stroke="#191970" d="M1264.4714,-89.6568C1255.2663,-86.1524 1245.4533,-82.9918 1236,-81 1002.9817,-31.9036 400.6923,-79.017 165,-45 162.0662,-44.5766 159.0886,-44.0921 156.09,-43.5578"/>
<polygon fill="#191970" stroke="#191970" points="1263.2192,-92.9256 1273.8035,-93.3988 1265.8244,-86.4284 1263.2192,-92.9256"/>
</g>
<!-- Node6 -->
<g id="node6" class="node">
<title>Node6</title>
<g id="a_node6"><a xlink:href="../../d5/d97/Fun4All__G4__FullDetectorModular_8C.html" target="_top" xlink:title="fun4all_eicmacros/blob\l/master/detectors/Modular\l/Fun4All_G4_FullDetectorModular.C">
<polygon fill="none" stroke="#000000" points="174,-.5 174,-44.5 368,-44.5 368,-.5 174,-.5"/>
<text text-anchor="start" x="182" y="-31.5" font-family="FreeSans" font-size="10.00" fill="#000000">fun4all_eicmacros/blob</text>
<text text-anchor="start" x="182" y="-19.5" font-family="FreeSans" font-size="10.00" fill="#000000">/master/detectors/Modular</text>
<text text-anchor="middle" x="271" y="-7.5" font-family="FreeSans" font-size="10.00" fill="#000000">/Fun4All_G4_FullDetectorModular.C</text>
</a>
</g>
</g>
<!-- Node4&#45;&gt;Node6 -->
<g id="edge5" class="edge">
<title>Node4&#45;&gt;Node6</title>
<path fill="none" stroke="#191970" d="M1264.4586,-89.7167C1255.2544,-86.2081 1245.445,-83.0307 1236,-81 861.9899,-.5871 755.5019,-93.2511 376,-45 373.4108,-44.6708 370.7908,-44.3103 368.1511,-43.923"/>
<polygon fill="#191970" stroke="#191970" points="1263.2065,-92.9854 1273.7908,-93.4587 1265.8118,-86.4883 1263.2065,-92.9854"/>
</g>
<!-- Node7 -->
<g id="node7" class="node">
<title>Node7</title>
<g id="a_node7"><a xlink:href="../../d0/dce/Fun4All__G4__FullDetectorModularBeast_8C.html" target="_top" xlink:title="fun4all_eicmacros/blob\l/master/detectors/ModularBeast\l/Fun4All_G4_FullDetectorModularBeast.C">
<polygon fill="none" stroke="#000000" points="385.5,-.5 385.5,-44.5 608.5,-44.5 608.5,-.5 385.5,-.5"/>
<text text-anchor="start" x="393.5" y="-31.5" font-family="FreeSans" font-size="10.00" fill="#000000">fun4all_eicmacros/blob</text>
<text text-anchor="start" x="393.5" y="-19.5" font-family="FreeSans" font-size="10.00" fill="#000000">/master/detectors/ModularBeast</text>
<text text-anchor="middle" x="497" y="-7.5" font-family="FreeSans" font-size="10.00" fill="#000000">/Fun4All_G4_FullDetectorModularBeast.C</text>
</a>
</g>
</g>
<!-- Node4&#45;&gt;Node7 -->
<g id="edge6" class="edge">
<title>Node4&#45;&gt;Node7</title>
<path fill="none" stroke="#191970" d="M1263.8627,-89.6174C1254.8262,-86.186 1245.2338,-83.0639 1236,-81 967.0605,-20.8863 890.5371,-78.4605 617,-45 614.2649,-44.6654 611.4981,-44.3068 608.7099,-43.9275"/>
<polygon fill="#191970" stroke="#191970" points="1262.8218,-92.9704 1273.4068,-93.4269 1265.4168,-86.4692 1262.8218,-92.9704"/>
</g>
<!-- Node8 -->
<g id="node8" class="node">
<title>Node8</title>
<g id="a_node8"><a xlink:href="../../d6/d79/fun4all__eic__qa_2blob_2master_2macros_2Fun4All__G4__EICDetector_8C.html" target="_top" xlink:title="fun4all_eic_qa/blob\l/master/macros/Fun4All\l_G4_EICDetector.C">
<polygon fill="none" stroke="#000000" points="626.5,-.5 626.5,-44.5 763.5,-44.5 763.5,-.5 626.5,-.5"/>
<text text-anchor="start" x="634.5" y="-31.5" font-family="FreeSans" font-size="10.00" fill="#000000">fun4all_eic_qa/blob</text>
<text text-anchor="start" x="634.5" y="-19.5" font-family="FreeSans" font-size="10.00" fill="#000000">/master/macros/Fun4All</text>
<text text-anchor="middle" x="695" y="-7.5" font-family="FreeSans" font-size="10.00" fill="#000000">_G4_EICDetector.C</text>
</a>
</g>
</g>
<!-- Node4&#45;&gt;Node8 -->
<g id="edge7" class="edge">
<title>Node4&#45;&gt;Node8</title>
<path fill="none" stroke="#191970" d="M1263.5512,-89.6504C1254.5992,-86.2496 1245.1184,-83.1309 1236,-81 1034.5849,-33.9302 975.4682,-82.2062 772,-45 769.26,-44.499 766.4782,-43.9389 763.6778,-43.3321"/>
<polygon fill="#191970" stroke="#191970" points="1262.4301,-92.9712 1273.0155,-93.418 1265.0191,-86.4676 1262.4301,-92.9712"/>
</g>
<!-- Node9 -->
<g id="node9" class="node">
<title>Node9</title>
<g id="a_node9"><a xlink:href="../../d4/d91/fun4all__macros_2blob_2master_2detectors_2EICDetector_2Fun4All__G4__EICDetector_8C.html" target="_top" xlink:title="fun4all_macros/blob\l/master/detectors/EICDetector\l/Fun4All_G4_EICDetector.C">
<polygon fill="none" stroke="#000000" points="781.5,-.5 781.5,-44.5 952.5,-44.5 952.5,-.5 781.5,-.5"/>
<text text-anchor="start" x="789.5" y="-31.5" font-family="FreeSans" font-size="10.00" fill="#000000">fun4all_macros/blob</text>
<text text-anchor="start" x="789.5" y="-19.5" font-family="FreeSans" font-size="10.00" fill="#000000">/master/detectors/EICDetector</text>
<text text-anchor="middle" x="867" y="-7.5" font-family="FreeSans" font-size="10.00" fill="#000000">/Fun4All_G4_EICDetector.C</text>
</a>
</g>
</g>
<!-- Node4&#45;&gt;Node9 -->
<g id="edge8" class="edge">
<title>Node4&#45;&gt;Node9</title>
<path fill="none" stroke="#191970" d="M1262.3401,-89.6013C1253.7281,-86.3303 1244.6826,-83.2721 1236,-81 1116.7504,-49.7943 1082.2168,-67.3779 961,-45 958.2772,-44.4973 955.515,-43.966 952.7296,-43.4118"/>
<polygon fill="#191970" stroke="#191970" points="1261.2501,-92.9339 1271.8366,-93.3543 1263.8229,-86.4239 1261.2501,-92.9339"/>
</g>
<!-- Node10 -->
<g id="node10" class="node">
<title>Node10</title>
<g id="a_node10"><a xlink:href="../../d7/d9e/Fun4All__G4__fsPHENIX_8C.html" target="_top" xlink:title="fun4all_macros/blob\l/master/detectors/fsPHENIX\l/Fun4All_G4_fsPHENIX.C">
<polygon fill="none" stroke="#000000" points="970.5,-.5 970.5,-44.5 1127.5,-44.5 1127.5,-.5 970.5,-.5"/>
<text text-anchor="start" x="978.5" y="-31.5" font-family="FreeSans" font-size="10.00" fill="#000000">fun4all_macros/blob</text>
<text text-anchor="start" x="978.5" y="-19.5" font-family="FreeSans" font-size="10.00" fill="#000000">/master/detectors/fsPHENIX</text>
<text text-anchor="middle" x="1049" y="-7.5" font-family="FreeSans" font-size="10.00" fill="#000000">/Fun4All_G4_fsPHENIX.C</text>
</a>
</g>
</g>
<!-- Node4&#45;&gt;Node10 -->
<g id="edge9" class="edge">
<title>Node4&#45;&gt;Node10</title>
<path fill="none" stroke="#191970" d="M1258.9831,-89.6337C1251.3331,-86.6401 1243.4773,-83.6657 1236,-81 1199.4726,-67.9779 1158.3947,-54.9529 1124.0626,-44.5099"/>
<polygon fill="#191970" stroke="#191970" points="1257.9329,-92.9823 1268.519,-93.4141 1260.5128,-86.475 1257.9329,-92.9823"/>
</g>
<!-- Node11 -->
<g id="node11" class="node">
<title>Node11</title>
<g id="a_node11"><a xlink:href="../../d9/d73/fun4all__macros_2blob_2master_2detectors_2sPHENIX_2Fun4All__G4__sPHENIX_8C.html" target="_top" xlink:title="fun4all_macros/blob\l/master/detectors/sPHENIX\l/Fun4All_G4_sPHENIX.C">
<polygon fill="none" stroke="#000000" points="1145.5,-.5 1145.5,-44.5 1298.5,-44.5 1298.5,-.5 1145.5,-.5"/>
<text text-anchor="start" x="1153.5" y="-31.5" font-family="FreeSans" font-size="10.00" fill="#000000">fun4all_macros/blob</text>
<text text-anchor="start" x="1153.5" y="-19.5" font-family="FreeSans" font-size="10.00" fill="#000000">/master/detectors/sPHENIX</text>
<text text-anchor="middle" x="1222" y="-7.5" font-family="FreeSans" font-size="10.00" fill="#000000">/Fun4All_G4_sPHENIX.C</text>
</a>
</g>
</g>
<!-- Node4&#45;&gt;Node11 -->
<g id="edge10" class="edge">
<title>Node4&#45;&gt;Node11</title>
<path fill="none" stroke="#191970" d="M1284.0068,-85.9657C1271.4635,-73.1274 1256.0254,-57.326 1243.6914,-44.7018"/>
<polygon fill="#191970" stroke="#191970" points="1281.5203,-88.4291 1291.0122,-93.136 1286.5272,-83.5372 1281.5203,-88.4291"/>
</g>
<!-- Node12 -->
<g id="node12" class="node">
<title>Node12</title>
<g id="a_node12"><a xlink:href="../../db/dc0/Fun4All__AnaTutorial_8C.html" target="_top" xlink:title="fun4all_tutorials/blob\l/master/AnaTutorial/macro\l/Fun4All_AnaTutorial.C">
<polygon fill="none" stroke="#000000" points="1316.5,-.5 1316.5,-44.5 1467.5,-44.5 1467.5,-.5 1316.5,-.5"/>
<text text-anchor="start" x="1324.5" y="-31.5" font-family="FreeSans" font-size="10.00" fill="#000000">fun4all_tutorials/blob</text>
<text text-anchor="start" x="1324.5" y="-19.5" font-family="FreeSans" font-size="10.00" fill="#000000">/master/AnaTutorial/macro</text>
<text text-anchor="middle" x="1392" y="-7.5" font-family="FreeSans" font-size="10.00" fill="#000000">/Fun4All_AnaTutorial.C</text>
</a>
</g>
</g>
<!-- Node4&#45;&gt;Node12 -->
<g id="edge11" class="edge">
<title>Node4&#45;&gt;Node12</title>
<path fill="none" stroke="#191970" d="M1329.9932,-85.9657C1342.5365,-73.1274 1357.9746,-57.326 1370.3086,-44.7018"/>
<polygon fill="#191970" stroke="#191970" points="1327.4728,-83.5372 1322.9878,-93.136 1332.4797,-88.4291 1327.4728,-83.5372"/>
</g>
<!-- Node13 -->
<g id="node13" class="node">
<title>Node13</title>
<g id="a_node13"><a xlink:href="../../dd/d28/Fun4All__AnaTutorial__Jets_8C.html" target="_top" xlink:title="fun4all_tutorials/blob\l/master/AnaTutorial/macro\l/Fun4All_AnaTutorial_Jets.C">
<polygon fill="none" stroke="#000000" points="1485.5,-.5 1485.5,-44.5 1638.5,-44.5 1638.5,-.5 1485.5,-.5"/>
<text text-anchor="start" x="1493.5" y="-31.5" font-family="FreeSans" font-size="10.00" fill="#000000">fun4all_tutorials/blob</text>
<text text-anchor="start" x="1493.5" y="-19.5" font-family="FreeSans" font-size="10.00" fill="#000000">/master/AnaTutorial/macro</text>
<text text-anchor="middle" x="1562" y="-7.5" font-family="FreeSans" font-size="10.00" fill="#000000">/Fun4All_AnaTutorial_Jets.C</text>
</a>
</g>
</g>
<!-- Node4&#45;&gt;Node13 -->
<g id="edge12" class="edge">
<title>Node4&#45;&gt;Node13</title>
<path fill="none" stroke="#191970" d="M1363.5772,-90.1972C1403.1808,-76.6854 1456.1732,-58.6056 1497.4313,-44.5293"/>
<polygon fill="#191970" stroke="#191970" points="1362.4023,-86.8999 1354.0681,-93.4415 1364.6626,-93.5249 1362.4023,-86.8999"/>
</g>
<!-- Node14 -->
<g id="node14" class="node">
<title>Node14</title>
<g id="a_node14"><a xlink:href="../../d2/dbf/fun4all__tutorials_2blob_2master_2materialscan_2Fun4All__G4__sPHENIX_8C.html" target="_top" xlink:title="fun4all_tutorials/blob\l/master/materialscan/Fun4All\l_G4_sPHENIX.C">
<polygon fill="none" stroke="#000000" points="1656.5,-.5 1656.5,-44.5 1821.5,-44.5 1821.5,-.5 1656.5,-.5"/>
<text text-anchor="start" x="1664.5" y="-31.5" font-family="FreeSans" font-size="10.00" fill="#000000">fun4all_tutorials/blob</text>
<text text-anchor="start" x="1664.5" y="-19.5" font-family="FreeSans" font-size="10.00" fill="#000000">/master/materialscan/Fun4All</text>
<text text-anchor="middle" x="1739" y="-7.5" font-family="FreeSans" font-size="10.00" fill="#000000">_G4_sPHENIX.C</text>
</a>
</g>
</g>
<!-- Node4&#45;&gt;Node14 -->
<g id="edge13" class="edge">
<title>Node4&#45;&gt;Node14</title>
<path fill="none" stroke="#191970" d="M1378.7313,-97.125C1447.8985,-84.9112 1555.4205,-65.1847 1648,-45 1650.7031,-44.4106 1653.4486,-43.8003 1656.2187,-43.1745"/>
<polygon fill="#191970" stroke="#191970" points="1378.0525,-93.6906 1368.8109,-98.8717 1379.2663,-100.5846 1378.0525,-93.6906"/>
</g>
<!-- Node15 -->
<g id="node15" class="node">
<title>Node15</title>
<g id="a_node15"><a xlink:href="../../d7/dc5/Fun4All__G4__FastMom_8C.html" target="_top" xlink:title="g4lblvtx/blob/master\l/macros/Fun4All_G4_FastMom.C">
<polygon fill="none" stroke="#000000" points="1840,-6.5 1840,-38.5 2018,-38.5 2018,-6.5 1840,-6.5"/>
<text text-anchor="start" x="1848" y="-25.5" font-family="FreeSans" font-size="10.00" fill="#000000">g4lblvtx/blob/master</text>
<text text-anchor="middle" x="1929" y="-13.5" font-family="FreeSans" font-size="10.00" fill="#000000">/macros/Fun4All_G4_FastMom.C</text>
</a>
</g>
</g>
<!-- Node4&#45;&gt;Node15 -->
<g id="edge14" class="edge">
<title>Node4&#45;&gt;Node15</title>
<path fill="none" stroke="#191970" d="M1378.7274,-103.0375C1479.9828,-93.3781 1670.4118,-73.2407 1831,-45 1841.5735,-43.1406 1852.7226,-40.876 1863.5605,-38.5083"/>
<polygon fill="#191970" stroke="#191970" points="1378.2406,-99.5679 1368.6154,-103.9956 1378.9009,-106.5367 1378.2406,-99.5679"/>
</g>
<!-- Node16 -->
<g id="node16" class="node">
<title>Node16</title>
<g id="a_node16"><a xlink:href="../../db/dc2/Fun4All__G4__FastMom__GEM_8C.html" target="_top" xlink:title="g4lblvtx/blob/master\l/macros/Fun4All_G4_FastMom_\lGEM.C">
<polygon fill="none" stroke="#000000" points="2036.5,-.5 2036.5,-44.5 2209.5,-44.5 2209.5,-.5 2036.5,-.5"/>
<text text-anchor="start" x="2044.5" y="-31.5" font-family="FreeSans" font-size="10.00" fill="#000000">g4lblvtx/blob/master</text>
<text text-anchor="start" x="2044.5" y="-19.5" font-family="FreeSans" font-size="10.00" fill="#000000">/macros/Fun4All_G4_FastMom_</text>
<text text-anchor="middle" x="2123" y="-7.5" font-family="FreeSans" font-size="10.00" fill="#000000">GEM.C</text>
</a>
</g>
</g>
<!-- Node4&#45;&gt;Node16 -->
<g id="edge15" class="edge">
<title>Node4&#45;&gt;Node16</title>
<path fill="none" stroke="#191970" d="M1378.7425,-106.4243C1508.7055,-100.1097 1791.4602,-82.9587 2027,-45 2030.042,-44.5098 2033.1309,-43.9772 2036.245,-43.4108"/>
<polygon fill="#191970" stroke="#191970" points="1378.3451,-102.9392 1368.524,-106.9136 1378.68,-109.9312 1378.3451,-102.9392"/>
</g>
<!-- Node17 -->
<g id="node17" class="node">
<title>Node17</title>
<g id="a_node17"><a xlink:href="../../d7/df9/Fun4All__G4__FastMom__GEM__RICH_8C.html" target="_top" xlink:title="g4lblvtx/blob/master\l/macros/Fun4All_G4_FastMom\l_GEM_RICH.C">
<polygon fill="none" stroke="#000000" points="2227.5,-.5 2227.5,-44.5 2394.5,-44.5 2394.5,-.5 2227.5,-.5"/>
<text text-anchor="start" x="2235.5" y="-31.5" font-family="FreeSans" font-size="10.00" fill="#000000">g4lblvtx/blob/master</text>
<text text-anchor="start" x="2235.5" y="-19.5" font-family="FreeSans" font-size="10.00" fill="#000000">/macros/Fun4All_G4_FastMom</text>
<text text-anchor="middle" x="2311" y="-7.5" font-family="FreeSans" font-size="10.00" fill="#000000">_GEM_RICH.C</text>
</a>
</g>
</g>
<!-- Node4&#45;&gt;Node17 -->
<g id="edge16" class="edge">
<title>Node4&#45;&gt;Node17</title>
<path fill="none" stroke="#191970" d="M1378.8123,-108.5427C1533.3866,-105.5813 1908.7634,-93.5491 2219,-45 2221.7617,-44.5678 2224.5623,-44.0938 2227.3845,-43.5855"/>
<polygon fill="#191970" stroke="#191970" points="1378.4442,-105.0488 1368.5105,-108.7328 1378.5734,-112.0476 1378.4442,-105.0488"/>
</g>
<!-- Node18 -->
<g id="node18" class="node">
<title>Node18</title>
<g id="a_node18"><a xlink:href="../../d3/d2b/Fun4All__G4__sPHENIX__particle__gen_8C.html" target="_top" xlink:title="g4lblvtx/blob/master\l/other_codes/Fun4All\l_G4_sPHENIX_particle_gen.C">
<polygon fill="none" stroke="#000000" points="2413,-.5 2413,-44.5 2575,-44.5 2575,-.5 2413,-.5"/>
<text text-anchor="start" x="2421" y="-31.5" font-family="FreeSans" font-size="10.00" fill="#000000">g4lblvtx/blob/master</text>
<text text-anchor="start" x="2421" y="-19.5" font-family="FreeSans" font-size="10.00" fill="#000000">/other_codes/Fun4All</text>
<text text-anchor="middle" x="2494" y="-7.5" font-family="FreeSans" font-size="10.00" fill="#000000">_G4_sPHENIX_particle_gen.C</text>
</a>
</g>
</g>
<!-- Node4&#45;&gt;Node18 -->
<g id="edge17" class="edge">
<title>Node4&#45;&gt;Node18</title>
<path fill="none" stroke="#191970" d="M1378.5668,-107.0355C1589.285,-99.5031 2205.1177,-75.4353 2404,-45 2406.8657,-44.5615 2409.7734,-44.0733 2412.7029,-43.5448"/>
<polygon fill="#191970" stroke="#191970" points="1378.4126,-103.5387 1368.5435,-107.3923 1378.6617,-110.5343 1378.4126,-103.5387"/>
</g>
</g>
</svg>
