<?xml version="1.0" encoding="UTF-8" standalone="no"?>
<!DOCTYPE svg PUBLIC "-//W3C//DTD SVG 1.1//EN"
 "http://www.w3.org/Graphics/SVG/1.1/DTD/svg11.dtd">
<!-- Generated by graphviz version 2.40.1 (20161225.0304)
 -->
<!-- Title: pyplot Pages: 1 -->
<svg width="283pt" height="263pt"
 viewBox="0.00 0.00 283.00 263.00" xmlns="http://www.w3.org/2000/svg" xmlns:xlink="http://www.w3.org/1999/xlink">
<g id="graph0" class="graph" transform="scale(1 1) rotate(0) translate(4 259)">
<title>pyplot</title>
<!-- Node1 -->
<g id="node1" class="node">
<title>Node1</title>
<polygon fill="#bfbfbf" stroke="#000000" points="0,-117.5 0,-137.5 49,-137.5 49,-117.5 0,-117.5"/>
<text text-anchor="middle" x="24.5" y="-124.5" font-family="FreeSans" font-size="10.00" fill="#000000">pyplot</text>
</g>
<!-- Node2 -->
<g id="node2" class="node">
<title>Node2</title>
<g id="a_node2"><a xlink:href="../../d5/dcc/classActs_1_1BinUtility.html#abe2296758d2285632a76e89fb28fed70" target="_top" xlink:title="Acts::BinUtility::bin">
<polygon fill="none" stroke="#000000" points="123.5,-234.5 123.5,-254.5 236.5,-254.5 236.5,-234.5 123.5,-234.5"/>
<text text-anchor="middle" x="180" y="-241.5" font-family="FreeSans" font-size="10.00" fill="#000000">Acts::BinUtility::bin</text>
</a>
</g>
</g>
<!-- Node1&#45;&gt;Node2 -->
<g id="edge1" class="edge">
<title>Node1&#45;&gt;Node2</title>
<path fill="none" stroke="#191970" d="M27.7154,-137.7497C34.641,-158.0316 52.9874,-203.242 85,-225.5 93.4768,-231.3938 103.3503,-235.5536 113.4634,-238.4721"/>
<polygon fill="#191970" stroke="#191970" points="112.6447,-241.875 123.1952,-240.9059 114.3431,-235.0842 112.6447,-241.875"/>
</g>
<!-- Node3 -->
<g id="node3" class="node">
<title>Node3</title>
<g id="a_node3"><a xlink:href="../../d2/d1f/structActsExamples_1_1HepMC3Particle.html#a867b349eeb55592ca3c3c02255ff71e3" target="_top" xlink:title="Returns the id of the particle translated into Acts.">
<polygon fill="none" stroke="#000000" points="85,-195.5 85,-215.5 275,-215.5 275,-195.5 85,-195.5"/>
<text text-anchor="middle" x="180" y="-202.5" font-family="FreeSans" font-size="10.00" fill="#000000">ActsExamples::HepMC3Particle::id</text>
</a>
</g>
</g>
<!-- Node1&#45;&gt;Node3 -->
<g id="edge2" class="edge">
<title>Node1&#45;&gt;Node3</title>
<path fill="none" stroke="#191970" d="M31.84,-137.6565C42.1281,-151.0878 62.158,-174.4592 85,-186.5 88.9569,-188.5858 93.1169,-190.4433 97.395,-192.0974"/>
<polygon fill="#191970" stroke="#191970" points="96.3218,-195.4297 106.9166,-195.4033 98.6178,-188.8169 96.3218,-195.4297"/>
</g>
<!-- Node4 -->
<g id="node4" class="node">
<title>Node4</title>
<g id="a_node4"><a xlink:href="../../d1/d72/EIC-IR1-XX-v01a_8C.html#a3fd818ea23ff1d99b471adf13ea99242" target="_top" xlink:title="ir">
<polygon fill="none" stroke="#000000" points="165.5,-156.5 165.5,-176.5 194.5,-176.5 194.5,-156.5 165.5,-156.5"/>
<text text-anchor="middle" x="180" y="-163.5" font-family="FreeSans" font-size="10.00" fill="#000000">ir</text>
</a>
</g>
</g>
<!-- Node1&#45;&gt;Node4 -->
<g id="edge3" class="edge">
<title>Node1&#45;&gt;Node4</title>
<path fill="none" stroke="#191970" d="M49.0218,-136.3607C59.9437,-140.111 73.0211,-144.3347 85,-147.5 108.6269,-153.7431 136.0357,-159.0198 155.323,-162.4161"/>
<polygon fill="#191970" stroke="#191970" points="154.9399,-165.9015 165.3885,-164.1476 156.1267,-159.0028 154.9399,-165.9015"/>
</g>
<!-- Node5 -->
<g id="node5" class="node">
<title>Node5</title>
<g id="a_node5"><a xlink:href="../../dd/db6/classActs_1_1FiniteStateMachine.html#accf83819414f8d062810932538205f10" target="_top" xlink:title="Acts::FiniteStateMachine::is">
<polygon fill="none" stroke="#000000" points="101.5,-117.5 101.5,-137.5 258.5,-137.5 258.5,-117.5 101.5,-117.5"/>
<text text-anchor="middle" x="180" y="-124.5" font-family="FreeSans" font-size="10.00" fill="#000000">Acts::FiniteStateMachine::is</text>
</a>
</g>
</g>
<!-- Node1&#45;&gt;Node5 -->
<g id="edge4" class="edge">
<title>Node1&#45;&gt;Node5</title>
<path fill="none" stroke="#191970" d="M49.1394,-127.5C60.8712,-127.5 75.6933,-127.5 91.1121,-127.5"/>
<polygon fill="#191970" stroke="#191970" points="91.3042,-131.0001 101.3042,-127.5 91.3042,-124.0001 91.3042,-131.0001"/>
</g>
<!-- Node6 -->
<g id="node6" class="node">
<title>Node6</title>
<g id="a_node6"><a xlink:href="../../d6/dcf/pythia6425mod_8f.html#a523e4acf745637220400daf831c34a23" target="_top" xlink:title="pytime">
<polygon fill="none" stroke="#000000" points="154.5,-78.5 154.5,-98.5 205.5,-98.5 205.5,-78.5 154.5,-78.5"/>
<text text-anchor="middle" x="180" y="-85.5" font-family="FreeSans" font-size="10.00" fill="#000000">pytime</text>
</a>
</g>
</g>
<!-- Node1&#45;&gt;Node6 -->
<g id="edge5" class="edge">
<title>Node1&#45;&gt;Node6</title>
<path fill="none" stroke="#191970" d="M49.0692,-119.1905C60,-115.6478 73.0711,-111.621 85,-108.5 104.4917,-103.4003 126.4941,-98.7024 144.4125,-95.143"/>
<polygon fill="#191970" stroke="#191970" points="145.2971,-98.5364 154.4407,-93.1844 143.9552,-91.6662 145.2971,-98.5364"/>
</g>
<!-- Node7 -->
<g id="node7" class="node">
<title>Node7</title>
<g id="a_node7"><a xlink:href="../../da/d0a/CylinderKalman_8cpp.html#ab74daa0c9784c63e060bfb98cc06fbf5" target="_top" xlink:title="sign">
<polygon fill="none" stroke="#000000" points="161.5,-39.5 161.5,-59.5 198.5,-59.5 198.5,-39.5 161.5,-39.5"/>
<text text-anchor="middle" x="180" y="-46.5" font-family="FreeSans" font-size="10.00" fill="#000000">sign</text>
</a>
</g>
</g>
<!-- Node1&#45;&gt;Node7 -->
<g id="edge6" class="edge">
<title>Node1&#45;&gt;Node7</title>
<path fill="none" stroke="#191970" d="M32.2545,-117.0991C42.7086,-103.869 62.6126,-81.3235 85,-69.5 105.6231,-58.6083 131.7076,-53.6477 151.324,-51.3886"/>
<polygon fill="#191970" stroke="#191970" points="151.8709,-54.8518 161.4808,-50.391 151.1866,-47.8854 151.8709,-54.8518"/>
</g>
<!-- Node8 -->
<g id="node8" class="node">
<title>Node8</title>
<g id="a_node8"><a xlink:href="../../df/d6b/title_8f.html#aa5c036d373cd37c00f0892e713b39988" target="_top" xlink:title="title">
<polygon fill="none" stroke="#000000" points="162,-.5 162,-20.5 198,-20.5 198,-.5 162,-.5"/>
<text text-anchor="middle" x="180" y="-7.5" font-family="FreeSans" font-size="10.00" fill="#000000">title</text>
</a>
</g>
</g>
<!-- Node1&#45;&gt;Node8 -->
<g id="edge7" class="edge">
<title>Node1&#45;&gt;Node8</title>
<path fill="none" stroke="#191970" d="M27.766,-117.3805C34.7826,-97.3516 53.2846,-52.6812 85,-30.5 104.5518,-16.8258 131.5288,-12.1589 151.7409,-10.719"/>
<polygon fill="#191970" stroke="#191970" points="152.0838,-14.2065 161.9007,-10.2218 151.7416,-7.2149 152.0838,-14.2065"/>
</g>
</g>
</svg>
