<?xml version="1.0" encoding="UTF-8" standalone="no"?>
<!DOCTYPE svg PUBLIC "-//W3C//DTD SVG 1.1//EN"
 "http://www.w3.org/Graphics/SVG/1.1/DTD/svg11.dtd">
<!-- Generated by graphviz version 2.40.1 (20161225.0304)
 -->
<!-- Title: pybesq Pages: 1 -->
<svg width="1228pt" height="314pt"
 viewBox="0.00 0.00 1228.00 314.00" xmlns="http://www.w3.org/2000/svg" xmlns:xlink="http://www.w3.org/1999/xlink">
<g id="graph0" class="graph" transform="scale(1 1) rotate(0) translate(4 310)">
<title>pybesq</title>
<!-- Node1 -->
<g id="node1" class="node">
<title>Node1</title>
<polygon fill="#bfbfbf" stroke="#000000" points="0,-167.5 0,-187.5 53,-187.5 53,-167.5 0,-167.5"/>
<text text-anchor="middle" x="26.5" y="-174.5" font-family="FreeSans" font-size="10.00" fill="#000000">pybesq</text>
</g>
<!-- Node2 -->
<g id="node2" class="node">
<title>Node2</title>
<g id="a_node2"><a xlink:href="../../d6/dcf/pythia6425mod_8f.html#aa8c99978a55999fa0b1fd2a946d8553a" target="_top" xlink:title="pyangl">
<polygon fill="none" stroke="#000000" points="475.5,-285.5 475.5,-305.5 525.5,-305.5 525.5,-285.5 475.5,-285.5"/>
<text text-anchor="middle" x="500.5" y="-292.5" font-family="FreeSans" font-size="10.00" fill="#000000">pyangl</text>
</a>
</g>
</g>
<!-- Node1&#45;&gt;Node2 -->
<g id="edge1" class="edge">
<title>Node1&#45;&gt;Node2</title>
<path fill="none" stroke="#191970" d="M36.1028,-187.6186C60.9566,-212.6574 130.4607,-275.5 202,-275.5 202,-275.5 202,-275.5 286,-275.5 349.4416,-275.5 422.9839,-284.2807 465.3883,-290.206"/>
<polygon fill="#191970" stroke="#191970" points="465.0792,-293.6972 475.4731,-291.6438 466.0672,-286.7673 465.0792,-293.6972"/>
</g>
<!-- Node7 -->
<g id="node7" class="node">
<title>Node7</title>
<g id="a_node7"><a xlink:href="../../d6/dcf/pythia6425mod_8f.html#a98ffa3df00dbe1c8a9944e3453e44580" target="_top" xlink:title="pyrobo">
<polygon fill="none" stroke="#000000" points="89,-109.5 89,-129.5 140,-129.5 140,-109.5 89,-109.5"/>
<text text-anchor="middle" x="114.5" y="-116.5" font-family="FreeSans" font-size="10.00" fill="#000000">pyrobo</text>
</a>
</g>
</g>
<!-- Node1&#45;&gt;Node7 -->
<g id="edge6" class="edge">
<title>Node1&#45;&gt;Node7</title>
<path fill="none" stroke="#191970" d="M41.8284,-167.3972C55.248,-158.5524 74.9699,-145.5539 90.4835,-135.329"/>
<polygon fill="#191970" stroke="#191970" points="92.6285,-138.1072 99.052,-129.6817 88.7763,-132.2625 92.6285,-138.1072"/>
</g>
<!-- Node3 -->
<g id="node3" class="node">
<title>Node3</title>
<g id="a_node3"><a xlink:href="../../d3/de3/classActs_1_1ConeBounds.html#a86578ae40c338ada71d2e19d96a2f8d1" target="_top" xlink:title="Acts::ConeBounds::r">
<polygon fill="none" stroke="#000000" points="615.5,-285.5 615.5,-305.5 735.5,-305.5 735.5,-285.5 615.5,-285.5"/>
<text text-anchor="middle" x="675.5" y="-292.5" font-family="FreeSans" font-size="10.00" fill="#000000">Acts::ConeBounds::r</text>
</a>
</g>
</g>
<!-- Node2&#45;&gt;Node3 -->
<g id="edge2" class="edge">
<title>Node2&#45;&gt;Node3</title>
<path fill="none" stroke="#191970" d="M525.5732,-295.5C546.3639,-295.5 576.9661,-295.5 605.1106,-295.5"/>
<polygon fill="#191970" stroke="#191970" points="605.3458,-299.0001 615.3457,-295.5 605.3457,-292.0001 605.3458,-299.0001"/>
</g>
<!-- Node6 -->
<g id="node6" class="node">
<title>Node6</title>
<g id="a_node6"><a xlink:href="../../da/d0a/CylinderKalman_8cpp.html#ab74daa0c9784c63e060bfb98cc06fbf5" target="_top" xlink:title="sign">
<polygon fill="none" stroke="#000000" points="657,-246.5 657,-266.5 694,-266.5 694,-246.5 657,-246.5"/>
<text text-anchor="middle" x="675.5" y="-253.5" font-family="FreeSans" font-size="10.00" fill="#000000">sign</text>
</a>
</g>
</g>
<!-- Node2&#45;&gt;Node6 -->
<g id="edge5" class="edge">
<title>Node2&#45;&gt;Node6</title>
<path fill="none" stroke="#191970" d="M525.5732,-289.9123C557.6387,-282.7662 613.0425,-270.4191 646.7736,-262.9019"/>
<polygon fill="#191970" stroke="#191970" points="647.9074,-266.2352 656.9066,-260.6437 646.3847,-259.4028 647.9074,-266.2352"/>
</g>
<!-- Node4 -->
<g id="node4" class="node">
<title>Node4</title>
<g id="a_node4"><a xlink:href="../../df/d28/namespacekdfinder.html#ab72d428625e99a2d7380eb7691c246c7" target="_top" xlink:title="kdfinder::abs">
<polygon fill="none" stroke="#000000" points="798,-285.5 798,-305.5 881,-305.5 881,-285.5 798,-285.5"/>
<text text-anchor="middle" x="839.5" y="-292.5" font-family="FreeSans" font-size="10.00" fill="#000000">kdfinder::abs</text>
</a>
</g>
</g>
<!-- Node3&#45;&gt;Node4 -->
<g id="edge3" class="edge">
<title>Node3&#45;&gt;Node4</title>
<path fill="none" stroke="#191970" d="M735.6363,-295.5C752.7456,-295.5 771.2248,-295.5 787.7863,-295.5"/>
<polygon fill="#191970" stroke="#191970" points="787.821,-299.0001 797.821,-295.5 787.8209,-292.0001 787.821,-299.0001"/>
</g>
<!-- Node5 -->
<g id="node5" class="node">
<title>Node5</title>
<g id="a_node5"><a xlink:href="../../d8/dc7/classkdfinder_1_1TVector.html#ac9649c7577f12a7502ed523260f4ee90" target="_top" xlink:title="kdfinder::TVector::mag">
<polygon fill="none" stroke="#000000" points="931,-285.5 931,-305.5 1063,-305.5 1063,-285.5 931,-285.5"/>
<text text-anchor="middle" x="997" y="-292.5" font-family="FreeSans" font-size="10.00" fill="#000000">kdfinder::TVector::mag</text>
</a>
</g>
</g>
<!-- Node4&#45;&gt;Node5 -->
<g id="edge4" class="edge">
<title>Node4&#45;&gt;Node5</title>
<path fill="none" stroke="#191970" d="M881.2936,-295.5C893.4214,-295.5 907.0616,-295.5 920.6086,-295.5"/>
<polygon fill="#191970" stroke="#191970" points="920.9234,-299.0001 930.9234,-295.5 920.9233,-292.0001 920.9234,-299.0001"/>
</g>
<!-- Node8 -->
<g id="node8" class="node">
<title>Node8</title>
<g id="a_node8"><a xlink:href="../../d6/dcf/pythia6425mod_8f.html#a8a7efe2037220dc632000fb06895ebca" target="_top" xlink:title="pyerrm">
<polygon fill="none" stroke="#000000" points="176,-109.5 176,-129.5 228,-129.5 228,-109.5 176,-109.5"/>
<text text-anchor="middle" x="202" y="-116.5" font-family="FreeSans" font-size="10.00" fill="#000000">pyerrm</text>
</a>
</g>
</g>
<!-- Node7&#45;&gt;Node8 -->
<g id="edge7" class="edge">
<title>Node7&#45;&gt;Node8</title>
<path fill="none" stroke="#191970" d="M140.2796,-119.5C148.2359,-119.5 157.1518,-119.5 165.6798,-119.5"/>
<polygon fill="#191970" stroke="#191970" points="165.799,-123.0001 175.799,-119.5 165.799,-116.0001 165.799,-123.0001"/>
</g>
<!-- Node26 -->
<g id="node26" class="node">
<title>Node26</title>
<g id="a_node26"><a xlink:href="../../df/de8/cemc_8C.html#a72d4716092b469b4bc1d816359a90e14" target="_top" xlink:title="cos">
<polygon fill="none" stroke="#000000" points="185.5,-70.5 185.5,-90.5 218.5,-90.5 218.5,-70.5 185.5,-70.5"/>
<text text-anchor="middle" x="202" y="-77.5" font-family="FreeSans" font-size="10.00" fill="#000000">cos</text>
</a>
</g>
</g>
<!-- Node7&#45;&gt;Node26 -->
<g id="edge29" class="edge">
<title>Node7&#45;&gt;Node26</title>
<path fill="none" stroke="#191970" d="M137.0334,-109.4565C148.94,-104.1496 163.6129,-97.6097 175.9998,-92.0887"/>
<polygon fill="#191970" stroke="#191970" points="177.6383,-95.1903 185.3472,-87.9224 174.7885,-88.7967 177.6383,-95.1903"/>
</g>
<!-- Node9 -->
<g id="node9" class="node">
<title>Node9</title>
<g id="a_node9"><a xlink:href="../../d6/dcf/pythia6425mod_8f.html#acc54128638bbd93cf630e1576f91d443" target="_top" xlink:title="pylist">
<polygon fill="none" stroke="#000000" points="264,-70.5 264,-90.5 308,-90.5 308,-70.5 264,-70.5"/>
<text text-anchor="middle" x="286" y="-77.5" font-family="FreeSans" font-size="10.00" fill="#000000">pylist</text>
</a>
</g>
</g>
<!-- Node8&#45;&gt;Node9 -->
<g id="edge8" class="edge">
<title>Node8&#45;&gt;Node9</title>
<path fill="none" stroke="#191970" d="M223.6321,-109.4565C233.2342,-104.9984 244.7103,-99.6702 255.1853,-94.8068"/>
<polygon fill="#191970" stroke="#191970" points="256.845,-97.8951 264.4412,-90.5094 253.8972,-91.5461 256.845,-97.8951"/>
</g>
<!-- Node11 -->
<g id="node11" class="node">
<title>Node11</title>
<g id="a_node11"><a xlink:href="../../d6/dcf/pythia6425mod_8f.html#a4140396b9ec9bafcebf4c7ebecb462e7" target="_top" xlink:title="pystop">
<polygon fill="none" stroke="#000000" points="475.5,-90.5 475.5,-110.5 525.5,-110.5 525.5,-90.5 475.5,-90.5"/>
<text text-anchor="middle" x="500.5" y="-97.5" font-family="FreeSans" font-size="10.00" fill="#000000">pystop</text>
</a>
</g>
</g>
<!-- Node8&#45;&gt;Node11 -->
<g id="edge28" class="edge">
<title>Node8&#45;&gt;Node11</title>
<path fill="none" stroke="#191970" d="M228.2283,-117.8305C281.9109,-114.4135 404.3548,-106.6198 465.0472,-102.7566"/>
<polygon fill="#191970" stroke="#191970" points="465.5258,-106.2333 475.2832,-102.1051 465.0811,-99.2475 465.5258,-106.2333"/>
</g>
<!-- Node10 -->
<g id="node10" class="node">
<title>Node10</title>
<g id="a_node10"><a xlink:href="../../d6/dcf/pythia6425mod_8f.html#a56718d08dbb42b3b978fc9b5bd6970e6" target="_top" xlink:title="pylogo">
<polygon fill="none" stroke="#000000" points="347.5,-70.5 347.5,-90.5 397.5,-90.5 397.5,-70.5 347.5,-70.5"/>
<text text-anchor="middle" x="372.5" y="-77.5" font-family="FreeSans" font-size="10.00" fill="#000000">pylogo</text>
</a>
</g>
</g>
<!-- Node9&#45;&gt;Node10 -->
<g id="edge9" class="edge">
<title>Node9&#45;&gt;Node10</title>
<path fill="none" stroke="#191970" d="M308.2759,-80.5C317.025,-80.5 327.285,-80.5 337.0047,-80.5"/>
<polygon fill="#191970" stroke="#191970" points="337.2427,-84.0001 347.2426,-80.5 337.2426,-77.0001 337.2427,-84.0001"/>
</g>
<!-- Node19 -->
<g id="node19" class="node">
<title>Node19</title>
<g id="a_node19"><a xlink:href="../../d6/dcf/pythia6425mod_8f.html#ab0dbe916b7d36854c02faf180f41d585" target="_top" xlink:title="pyname">
<polygon fill="none" stroke="#000000" points="344,-31.5 344,-51.5 401,-51.5 401,-31.5 344,-31.5"/>
<text text-anchor="middle" x="372.5" y="-38.5" font-family="FreeSans" font-size="10.00" fill="#000000">pyname</text>
</a>
</g>
</g>
<!-- Node9&#45;&gt;Node19 -->
<g id="edge19" class="edge">
<title>Node9&#45;&gt;Node19</title>
<path fill="none" stroke="#191970" d="M308.2759,-70.4565C318.2647,-65.9529 330.2229,-60.5614 341.0981,-55.6581"/>
<polygon fill="#191970" stroke="#191970" points="342.6219,-58.8104 350.2996,-51.5094 339.7447,-52.429 342.6219,-58.8104"/>
</g>
<!-- Node20 -->
<g id="node20" class="node">
<title>Node20</title>
<g id="a_node20"><a xlink:href="../../d6/dcf/pythia6425mod_8f.html#a6cee1eea51c820d9e90932c9eca205b7" target="_top" xlink:title="pyp">
<polygon fill="none" stroke="#000000" points="355,-187.5 355,-207.5 390,-207.5 390,-187.5 355,-187.5"/>
<text text-anchor="middle" x="372.5" y="-194.5" font-family="FreeSans" font-size="10.00" fill="#000000">pyp</text>
</a>
</g>
</g>
<!-- Node9&#45;&gt;Node20 -->
<g id="edge20" class="edge">
<title>Node9&#45;&gt;Node20</title>
<path fill="none" stroke="#191970" d="M293.6763,-90.883C308.3326,-110.7071 340.4761,-154.1844 358.8683,-179.0618"/>
<polygon fill="#191970" stroke="#191970" points="356.2051,-181.347 364.9644,-187.3074 361.8339,-177.1856 356.2051,-181.347"/>
</g>
<!-- Node10&#45;&gt;Node11 -->
<g id="edge10" class="edge">
<title>Node10&#45;&gt;Node11</title>
<path fill="none" stroke="#191970" d="M397.7887,-84.4514C417.0732,-87.4646 443.8689,-91.6514 465.2559,-94.9931"/>
<polygon fill="#191970" stroke="#191970" points="464.8434,-98.471 475.2639,-96.5569 465.9241,-91.555 464.8434,-98.471"/>
</g>
<!-- Node17 -->
<g id="node17" class="node">
<title>Node17</title>
<g id="a_node17"><a xlink:href="../../d6/dcf/pythia6425mod_8f.html#a523e4acf745637220400daf831c34a23" target="_top" xlink:title="pytime">
<polygon fill="none" stroke="#000000" points="475,-51.5 475,-71.5 526,-71.5 526,-51.5 475,-51.5"/>
<text text-anchor="middle" x="500.5" y="-58.5" font-family="FreeSans" font-size="10.00" fill="#000000">pytime</text>
</a>
</g>
</g>
<!-- Node10&#45;&gt;Node17 -->
<g id="edge17" class="edge">
<title>Node10&#45;&gt;Node17</title>
<path fill="none" stroke="#191970" d="M397.7887,-76.7462C416.948,-73.9023 443.5213,-69.9578 464.8386,-66.7935"/>
<polygon fill="#191970" stroke="#191970" points="465.448,-70.2415 474.8257,-65.311 464.4202,-63.3173 465.448,-70.2415"/>
</g>
<!-- Node18 -->
<g id="node18" class="node">
<title>Node18</title>
<g id="a_node18"><a xlink:href="../../d0/d35/classActs_1_1IVisualization3D.html#a86a81d7ed4d1aaf62638a98aab8c3f0b" target="_top" xlink:title="Acts::IVisualization3D\l::line">
<polygon fill="none" stroke="#000000" points="437,-.5 437,-32.5 564,-32.5 564,-.5 437,-.5"/>
<text text-anchor="start" x="445" y="-19.5" font-family="FreeSans" font-size="10.00" fill="#000000">Acts::IVisualization3D</text>
<text text-anchor="middle" x="500.5" y="-7.5" font-family="FreeSans" font-size="10.00" fill="#000000">::line</text>
</a>
</g>
</g>
<!-- Node10&#45;&gt;Node18 -->
<g id="edge18" class="edge">
<title>Node10&#45;&gt;Node18</title>
<path fill="none" stroke="#191970" d="M387.4685,-70.4549C400.2864,-62.0979 419.4069,-50.2044 437,-41.5 440.3285,-39.8532 443.7938,-38.2349 447.3126,-36.6628"/>
<polygon fill="#191970" stroke="#191970" points="448.8951,-39.7921 456.6945,-32.6214 446.1257,-33.3632 448.8951,-39.7921"/>
</g>
<!-- Node12 -->
<g id="node12" class="node">
<title>Node12</title>
<g id="a_node12"><a xlink:href="../../d0/d5e/classPHTimer.html#adce6f9a85834e59bd154b9c624ee4e41" target="_top" xlink:title="stops the counter">
<polygon fill="none" stroke="#000000" points="632,-84.5 632,-104.5 719,-104.5 719,-84.5 632,-84.5"/>
<text text-anchor="middle" x="675.5" y="-91.5" font-family="FreeSans" font-size="10.00" fill="#000000">PHTimer::stop</text>
</a>
</g>
</g>
<!-- Node11&#45;&gt;Node12 -->
<g id="edge11" class="edge">
<title>Node11&#45;&gt;Node12</title>
<path fill="none" stroke="#191970" d="M525.5732,-99.6403C550.5604,-98.7836 589.7196,-97.441 621.7517,-96.3428"/>
<polygon fill="#191970" stroke="#191970" points="622.0001,-99.8364 631.8743,-95.9957 621.7602,-92.8405 622.0001,-99.8364"/>
</g>
<!-- Node13 -->
<g id="node13" class="node">
<title>Node13</title>
<g id="a_node13"><a xlink:href="../../d0/d5e/classPHTimer.html#aa92e3fe4a0a1799f39743eda9ef9d497" target="_top" xlink:title="gets time from cpu clock counts">
<polygon fill="none" stroke="#000000" points="940.5,-98.5 940.5,-130.5 1053.5,-130.5 1053.5,-98.5 940.5,-98.5"/>
<text text-anchor="start" x="948.5" y="-117.5" font-family="FreeSans" font-size="10.00" fill="#000000">PHTimer::get_clock</text>
<text text-anchor="middle" x="997" y="-105.5" font-family="FreeSans" font-size="10.00" fill="#000000">_counts</text>
</a>
</g>
</g>
<!-- Node12&#45;&gt;Node13 -->
<g id="edge12" class="edge">
<title>Node12&#45;&gt;Node13</title>
<path fill="none" stroke="#191970" d="M719.1935,-97.2181C773.5132,-100.5972 866.7813,-106.3993 930.1199,-110.3395"/>
<polygon fill="#191970" stroke="#191970" points="930.2099,-113.8518 940.4079,-110.9795 930.6445,-106.8653 930.2099,-113.8518"/>
</g>
<!-- Node14 -->
<g id="node14" class="node">
<title>Node14</title>
<g id="a_node14"><a xlink:href="../../d0/d5e/classPHTimer.html#a976738876ad978116fdc4549a3765685" target="_top" xlink:title="retrieve elapsed value since last restart (in ms)">
<polygon fill="none" stroke="#000000" points="787,-65.5 787,-85.5 892,-85.5 892,-65.5 787,-65.5"/>
<text text-anchor="middle" x="839.5" y="-72.5" font-family="FreeSans" font-size="10.00" fill="#000000">PHTimer::elapsed</text>
</a>
</g>
</g>
<!-- Node12&#45;&gt;Node14 -->
<g id="edge13" class="edge">
<title>Node12&#45;&gt;Node14</title>
<path fill="none" stroke="#191970" d="M719.0184,-89.4582C736.6343,-87.4174 757.3144,-85.0215 776.521,-82.7963"/>
<polygon fill="#191970" stroke="#191970" points="777.1768,-86.2439 786.7075,-81.6162 776.3711,-79.2904 777.1768,-86.2439"/>
</g>
<!-- Node14&#45;&gt;Node13 -->
<g id="edge16" class="edge">
<title>Node14&#45;&gt;Node13</title>
<path fill="none" stroke="#191970" d="M880.0602,-85.5435C895.3746,-89.3356 913.2315,-93.7573 930.3129,-97.987"/>
<polygon fill="#191970" stroke="#191970" points="929.7073,-101.4427 940.2554,-100.449 931.3898,-94.6479 929.7073,-101.4427"/>
</g>
<!-- Node15 -->
<g id="node15" class="node">
<title>Node15</title>
<g id="a_node15"><a xlink:href="../../d0/d5e/classPHTimer.html#aa75ff2c27aba40e7ef0a934f9a3355c2" target="_top" xlink:title="returns difference between to time">
<polygon fill="none" stroke="#000000" points="928,-59.5 928,-79.5 1066,-79.5 1066,-59.5 928,-59.5"/>
<text text-anchor="middle" x="997" y="-66.5" font-family="FreeSans" font-size="10.00" fill="#000000">PHTimer::get_difference</text>
</a>
</g>
</g>
<!-- Node14&#45;&gt;Node15 -->
<g id="edge14" class="edge">
<title>Node14&#45;&gt;Node15</title>
<path fill="none" stroke="#191970" d="M892.3834,-73.4854C900.5408,-73.1746 909.1148,-72.848 917.6976,-72.521"/>
<polygon fill="#191970" stroke="#191970" points="917.8931,-76.0162 927.7526,-72.138 917.6266,-69.0213 917.8931,-76.0162"/>
</g>
<!-- Node16 -->
<g id="node16" class="node">
<title>Node16</title>
<g id="a_node16"><a xlink:href="../../d2/db1/classPHTimer_1_1Frequency.html#a023a2d706df9a8bd303810a9ed017f61" target="_top" xlink:title="period accessor">
<polygon fill="none" stroke="#000000" points="1102,-53.5 1102,-85.5 1220,-85.5 1220,-53.5 1102,-53.5"/>
<text text-anchor="start" x="1110" y="-72.5" font-family="FreeSans" font-size="10.00" fill="#000000">PHTimer::Frequency</text>
<text text-anchor="middle" x="1161" y="-60.5" font-family="FreeSans" font-size="10.00" fill="#000000">::period</text>
</a>
</g>
</g>
<!-- Node15&#45;&gt;Node16 -->
<g id="edge15" class="edge">
<title>Node15&#45;&gt;Node16</title>
<path fill="none" stroke="#191970" d="M1066.0754,-69.5C1074.5394,-69.5 1083.1918,-69.5 1091.6596,-69.5"/>
<polygon fill="#191970" stroke="#191970" points="1091.8719,-73.0001 1101.8719,-69.5 1091.8719,-66.0001 1091.8719,-73.0001"/>
</g>
<!-- Node20&#45;&gt;Node2 -->
<g id="edge22" class="edge">
<title>Node20&#45;&gt;Node2</title>
<path fill="none" stroke="#191970" d="M379.0598,-207.5906C389.5843,-223.0696 411.6524,-252.7425 437,-270.5 445.6605,-276.5672 456.0004,-281.4426 465.7961,-285.2197"/>
<polygon fill="#191970" stroke="#191970" points="464.7335,-288.5568 475.3281,-288.6342 467.0942,-281.9668 464.7335,-288.5568"/>
</g>
<!-- Node20&#45;&gt;Node6 -->
<g id="edge25" class="edge">
<title>Node20&#45;&gt;Node6</title>
<path fill="none" stroke="#191970" d="M384.9239,-207.7418C397.2869,-217.29 417.2205,-231.0044 437,-237.5 509.7045,-261.376 601.2837,-260.7273 646.9178,-258.487"/>
<polygon fill="#191970" stroke="#191970" points="647.183,-261.9778 656.9738,-257.9293 646.7954,-254.9885 647.183,-261.9778"/>
</g>
<!-- Node21 -->
<g id="node21" class="node">
<title>Node21</title>
<g id="a_node21"><a xlink:href="../../d6/dcf/pythia6425mod_8f.html#a27f75936fde97780175fa2c990bc61cd" target="_top" xlink:title="pychge">
<polygon fill="none" stroke="#000000" points="474,-207.5 474,-227.5 527,-227.5 527,-207.5 474,-207.5"/>
<text text-anchor="middle" x="500.5" y="-214.5" font-family="FreeSans" font-size="10.00" fill="#000000">pychge</text>
</a>
</g>
</g>
<!-- Node20&#45;&gt;Node21 -->
<g id="edge21" class="edge">
<title>Node20&#45;&gt;Node21</title>
<path fill="none" stroke="#191970" d="M390.0295,-200.239C408.9611,-203.197 439.6629,-207.9942 463.901,-211.7814"/>
<polygon fill="#191970" stroke="#191970" points="463.4194,-215.2485 473.8398,-213.3343 464.5001,-208.3325 463.4194,-215.2485"/>
</g>
<!-- Node22 -->
<g id="node22" class="node">
<title>Node22</title>
<g id="a_node22"><a xlink:href="../../d6/dcf/pythia6425mod_8f.html#ad69903a1054f4f77d45fd8fe4c687aa9" target="_top" xlink:title="pymass">
<polygon fill="none" stroke="#000000" points="473,-168.5 473,-188.5 528,-188.5 528,-168.5 473,-168.5"/>
<text text-anchor="middle" x="500.5" y="-175.5" font-family="FreeSans" font-size="10.00" fill="#000000">pymass</text>
</a>
</g>
</g>
<!-- Node20&#45;&gt;Node22 -->
<g id="edge23" class="edge">
<title>Node20&#45;&gt;Node22</title>
<path fill="none" stroke="#191970" d="M390.0295,-194.898C408.7214,-192.1234 438.8876,-187.6456 462.9775,-184.0697"/>
<polygon fill="#191970" stroke="#191970" points="463.5009,-187.5305 472.8786,-182.6001 462.473,-180.6064 463.5009,-187.5305"/>
</g>
<!-- Node24 -->
<g id="node24" class="node">
<title>Node24</title>
<g id="a_node24"><a xlink:href="../../d4/d3e/classActs_1_1Logger.html#aee9e687247532b5175713e66b2d2121e" target="_top" xlink:title="create output stream object with internal cache">
<polygon fill="none" stroke="#000000" points="449.5,-129.5 449.5,-149.5 551.5,-149.5 551.5,-129.5 449.5,-129.5"/>
<text text-anchor="middle" x="500.5" y="-136.5" font-family="FreeSans" font-size="10.00" fill="#000000">Acts::Logger::log</text>
</a>
</g>
</g>
<!-- Node20&#45;&gt;Node24 -->
<g id="edge26" class="edge">
<title>Node20&#45;&gt;Node24</title>
<path fill="none" stroke="#191970" d="M387.3566,-187.4276C400.1062,-179.1111 419.1893,-167.4273 437,-159.5 442.4117,-157.0913 448.2016,-154.8454 454.0014,-152.7938"/>
<polygon fill="#191970" stroke="#191970" points="455.3436,-156.0351 463.7062,-149.5299 453.1121,-149.4003 455.3436,-156.0351"/>
</g>
<!-- Node23 -->
<g id="node23" class="node">
<title>Node23</title>
<g id="a_node23"><a xlink:href="../../d6/dcf/pythia6425mod_8f.html#ac28b7ef95cee2881a46f71d3a88d05ac" target="_top" xlink:title="pyr">
<polygon fill="none" stroke="#000000" points="659,-174.5 659,-194.5 692,-194.5 692,-174.5 659,-174.5"/>
<text text-anchor="middle" x="675.5" y="-181.5" font-family="FreeSans" font-size="10.00" fill="#000000">pyr</text>
</a>
</g>
</g>
<!-- Node22&#45;&gt;Node23 -->
<g id="edge24" class="edge">
<title>Node22&#45;&gt;Node23</title>
<path fill="none" stroke="#191970" d="M528.2293,-179.4507C561.3063,-180.5848 616.2118,-182.4673 648.8192,-183.5852"/>
<polygon fill="#191970" stroke="#191970" points="648.8448,-187.0881 658.9588,-183.9329 649.0847,-180.0922 648.8448,-187.0881"/>
</g>
<!-- Node25 -->
<g id="node25" class="node">
<title>Node25</title>
<g id="a_node25"><a xlink:href="../../df/dce/classActs_1_1Logging_1_1OutputPrintPolicy.html#ab113823970013e1e7f310b36509136ac" target="_top" xlink:title="handle output of debug message">
<polygon fill="none" stroke="#000000" points="600,-123.5 600,-155.5 751,-155.5 751,-123.5 600,-123.5"/>
<text text-anchor="start" x="608" y="-142.5" font-family="FreeSans" font-size="10.00" fill="#000000">Acts::Logging::OutputPrint</text>
<text text-anchor="middle" x="675.5" y="-130.5" font-family="FreeSans" font-size="10.00" fill="#000000">Policy::flush</text>
</a>
</g>
</g>
<!-- Node24&#45;&gt;Node25 -->
<g id="edge27" class="edge">
<title>Node24&#45;&gt;Node25</title>
<path fill="none" stroke="#191970" d="M551.5877,-139.5C563.6467,-139.5 576.8288,-139.5 589.9523,-139.5"/>
<polygon fill="#191970" stroke="#191970" points="589.9569,-143.0001 599.9569,-139.5 589.9569,-136.0001 589.9569,-143.0001"/>
</g>
</g>
</svg>
