<?xml version="1.0" encoding="UTF-8" standalone="no"?>
<!DOCTYPE svg PUBLIC "-//W3C//DTD SVG 1.1//EN"
 "http://www.w3.org/Graphics/SVG/1.1/DTD/svg11.dtd">
<!-- Generated by graphviz version 2.40.1 (20161225.0304)
 -->
<!-- Title: PHTruthTrackSeeding::Process Pages: 1 -->
<svg width="706pt" height="1756pt"
 viewBox="0.00 0.00 706.00 1756.00" xmlns="http://www.w3.org/2000/svg" xmlns:xlink="http://www.w3.org/1999/xlink">
<g id="graph0" class="graph" transform="scale(1 1) rotate(0) translate(4 1752)">
<title>PHTruthTrackSeeding::Process</title>
<!-- Node1 -->
<g id="node1" class="node">
<title>Node1</title>
<polygon fill="#bfbfbf" stroke="#000000" points="0,-700.5 0,-732.5 123,-732.5 123,-700.5 0,-700.5"/>
<text text-anchor="start" x="8" y="-719.5" font-family="FreeSans" font-size="10.00" fill="#000000">PHTruthTrackSeeding</text>
<text text-anchor="middle" x="61.5" y="-707.5" font-family="FreeSans" font-size="10.00" fill="#000000">::Process</text>
</g>
<!-- Node2 -->
<g id="node2" class="node">
<title>Node2</title>
<g id="a_node2"><a xlink:href="../../d7/d8b/classSvtxTrackMap.html#a8c16bb47fdace6d5516d1803ffe54706" target="_top" xlink:title="SvtxTrackMap::begin">
<polygon fill="none" stroke="#000000" points="182.5,-1418.5 182.5,-1438.5 303.5,-1438.5 303.5,-1418.5 182.5,-1418.5"/>
<text text-anchor="middle" x="243" y="-1425.5" font-family="FreeSans" font-size="10.00" fill="#000000">SvtxTrackMap::begin</text>
</a>
</g>
</g>
<!-- Node1&#45;&gt;Node2 -->
<g id="edge1" class="edge">
<title>Node1&#45;&gt;Node2</title>
<path fill="none" stroke="#191970" d="M62.6755,-732.5829C70.0645,-831.761 111.3244,-1357.7105 159,-1409.5 162.924,-1413.7626 167.5847,-1417.1701 172.6692,-1419.8838"/>
<polygon fill="#191970" stroke="#191970" points="171.6465,-1423.2564 182.2113,-1424.0536 174.4495,-1416.8421 171.6465,-1423.2564"/>
</g>
<!-- Node3 -->
<g id="node3" class="node">
<title>Node3</title>
<g id="a_node3"><a xlink:href="../../d2/db8/classSvtxTrack.html#a6d8dace95bd6d93aa08d66c5e2c3ad85" target="_top" xlink:title="SvtxTrack::begin_cluster_keys">
<polygon fill="none" stroke="#000000" points="159,-1379.5 159,-1399.5 327,-1399.5 327,-1379.5 159,-1379.5"/>
<text text-anchor="middle" x="243" y="-1386.5" font-family="FreeSans" font-size="10.00" fill="#000000">SvtxTrack::begin_cluster_keys</text>
</a>
</g>
</g>
<!-- Node1&#45;&gt;Node3 -->
<g id="edge2" class="edge">
<title>Node1&#45;&gt;Node3</title>
<path fill="none" stroke="#191970" d="M62.8176,-732.6028C70.8045,-828.5071 113.8996,-1321.9101 159,-1370.5 159.9154,-1371.4863 160.8704,-1372.4267 161.8608,-1373.3232"/>
<polygon fill="#191970" stroke="#191970" points="159.9557,-1376.2667 170.0855,-1379.371 164.1025,-1370.6272 159.9557,-1376.2667"/>
</g>
<!-- Node4 -->
<g id="node4" class="node">
<title>Node4</title>
<g id="a_node4"><a xlink:href="../../d1/d1e/classSvtxClusterEval.html#aea125d30358376360f89706a917607c0" target="_top" xlink:title="SvtxClusterEval::best\l_cluster_by_nhit">
<polygon fill="none" stroke="#000000" points="180.5,-1328.5 180.5,-1360.5 305.5,-1360.5 305.5,-1328.5 180.5,-1328.5"/>
<text text-anchor="start" x="188.5" y="-1347.5" font-family="FreeSans" font-size="10.00" fill="#000000">SvtxClusterEval::best</text>
<text text-anchor="middle" x="243" y="-1335.5" font-family="FreeSans" font-size="10.00" fill="#000000">_cluster_by_nhit</text>
</a>
</g>
</g>
<!-- Node1&#45;&gt;Node4 -->
<g id="edge3" class="edge">
<title>Node1&#45;&gt;Node4</title>
<path fill="none" stroke="#191970" d="M62.9824,-732.583C70.5735,-812.7293 106.7764,-1168.9698 159,-1265.5 171.3086,-1288.2513 192.5914,-1308.1615 210.6536,-1322.3027"/>
<polygon fill="#191970" stroke="#191970" points="208.5973,-1325.1358 218.6821,-1328.3835 212.8237,-1319.5557 208.5973,-1325.1358"/>
</g>
<!-- Node11 -->
<g id="node11" class="node">
<title>Node11</title>
<g id="a_node11"><a xlink:href="../../d0/d2c/classTrkrClusterContainer.html#a2b2eea90672ac17f6439c932d2a144ad" target="_top" xlink:title="TrkrClusterContainer\l::findCluster">
<polygon fill="none" stroke="#000000" points="559,-1238.5 559,-1270.5 681,-1270.5 681,-1238.5 559,-1238.5"/>
<text text-anchor="start" x="567" y="-1257.5" font-family="FreeSans" font-size="10.00" fill="#000000">TrkrClusterContainer</text>
<text text-anchor="middle" x="620" y="-1245.5" font-family="FreeSans" font-size="10.00" fill="#000000">::findCluster</text>
</a>
</g>
</g>
<!-- Node1&#45;&gt;Node11 -->
<g id="edge28" class="edge">
<title>Node1&#45;&gt;Node11</title>
<path fill="none" stroke="#191970" d="M62.3092,-732.67C66.4891,-809.2711 88.246,-1134.6666 159,-1200.5 264.6585,-1298.8106 448.1141,-1285.9941 548.7978,-1269.4228"/>
<polygon fill="#191970" stroke="#191970" points="549.6018,-1272.8364 558.8719,-1267.7065 548.4261,-1265.9358 549.6018,-1272.8364"/>
</g>
<!-- Node12 -->
<g id="node12" class="node">
<title>Node12</title>
<g id="a_node12"><a xlink:href="../../d6/dfa/classTrkrCluster.html#a7be7cdba7b854678e0519288b8021b2a" target="_top" xlink:title="TrkrCluster::getX">
<polygon fill="none" stroke="#000000" points="569,-1199.5 569,-1219.5 671,-1219.5 671,-1199.5 569,-1199.5"/>
<text text-anchor="middle" x="620" y="-1206.5" font-family="FreeSans" font-size="10.00" fill="#000000">TrkrCluster::getX</text>
</a>
</g>
</g>
<!-- Node1&#45;&gt;Node12 -->
<g id="edge39" class="edge">
<title>Node1&#45;&gt;Node12</title>
<path fill="none" stroke="#191970" d="M62.5885,-732.9783C67.8133,-806.723 92.8469,-1105.4547 159,-1165.5 216.1525,-1217.3757 446.902,-1216.187 558.6948,-1212.3511"/>
<polygon fill="#191970" stroke="#191970" points="558.941,-1215.8445 568.8081,-1211.9856 558.6882,-1208.8491 558.941,-1215.8445"/>
</g>
<!-- Node13 -->
<g id="node13" class="node">
<title>Node13</title>
<g id="a_node13"><a xlink:href="../../d6/dfa/classTrkrCluster.html#a526ac89c45b903df8890bd8b4d476e5c" target="_top" xlink:title="TrkrCluster::getY">
<polygon fill="none" stroke="#000000" points="569.5,-1160.5 569.5,-1180.5 670.5,-1180.5 670.5,-1160.5 569.5,-1160.5"/>
<text text-anchor="middle" x="620" y="-1167.5" font-family="FreeSans" font-size="10.00" fill="#000000">TrkrCluster::getY</text>
</a>
</g>
</g>
<!-- Node1&#45;&gt;Node13 -->
<g id="edge40" class="edge">
<title>Node1&#45;&gt;Node13</title>
<path fill="none" stroke="#191970" d="M62.8536,-732.6935C69.0403,-802.5468 97.0312,-1077.0053 159,-1131.5 216.9783,-1182.4855 447.8603,-1178.8881 559.2578,-1173.9345"/>
<polygon fill="#191970" stroke="#191970" points="559.5051,-1177.4269 569.3326,-1173.4682 559.1815,-1170.4344 559.5051,-1177.4269"/>
</g>
<!-- Node21 -->
<g id="node21" class="node">
<title>Node21</title>
<g id="a_node21"><a xlink:href="../../de/dc9/classPHG4Particle.html#a44b98bfd72a04825791d1e4c4cb150a1" target="_top" xlink:title="PHG4Particle::get_px">
<polygon fill="none" stroke="#000000" points="559,-1121.5 559,-1141.5 681,-1141.5 681,-1121.5 559,-1121.5"/>
<text text-anchor="middle" x="620" y="-1128.5" font-family="FreeSans" font-size="10.00" fill="#000000">PHG4Particle::get_px</text>
</a>
</g>
</g>
<!-- Node1&#45;&gt;Node21 -->
<g id="edge32" class="edge">
<title>Node1&#45;&gt;Node21</title>
<path fill="none" stroke="#191970" d="M63.188,-732.7687C70.4405,-799.2914 101.2403,-1049.4085 159,-1098.5 215.9747,-1146.9243 434.3321,-1142.331 548.8922,-1136.2505"/>
<polygon fill="#191970" stroke="#191970" points="549.1807,-1139.7401 558.9739,-1135.6973 548.7971,-1132.7506 549.1807,-1139.7401"/>
</g>
<!-- Node22 -->
<g id="node22" class="node">
<title>Node22</title>
<g id="a_node22"><a xlink:href="../../de/dc9/classPHG4Particle.html#a3df4379f9e46224a8cca7f86c11e99e5" target="_top" xlink:title="PHG4Particle::get_py">
<polygon fill="none" stroke="#000000" points="559,-1082.5 559,-1102.5 681,-1102.5 681,-1082.5 559,-1082.5"/>
<text text-anchor="middle" x="620" y="-1089.5" font-family="FreeSans" font-size="10.00" fill="#000000">PHG4Particle::get_py</text>
</a>
</g>
</g>
<!-- Node1&#45;&gt;Node22 -->
<g id="edge33" class="edge">
<title>Node1&#45;&gt;Node22</title>
<path fill="none" stroke="#191970" d="M63.5437,-732.7627C71.8311,-795.9108 105.0884,-1023.5293 159,-1067.5 216.806,-1114.6469 434.258,-1106.4509 548.6465,-1098.4653"/>
<polygon fill="#191970" stroke="#191970" points="548.9903,-1101.9498 558.7148,-1097.7444 548.4903,-1094.9676 548.9903,-1101.9498"/>
</g>
<!-- Node23 -->
<g id="node23" class="node">
<title>Node23</title>
<g id="a_node23"><a xlink:href="../../de/dc9/classPHG4Particle.html#a533e9bda40b15f62802b187e6a743e74" target="_top" xlink:title="PHG4Particle::get_pz">
<polygon fill="none" stroke="#000000" points="559,-1043.5 559,-1063.5 681,-1063.5 681,-1043.5 559,-1043.5"/>
<text text-anchor="middle" x="620" y="-1050.5" font-family="FreeSans" font-size="10.00" fill="#000000">PHG4Particle::get_pz</text>
</a>
</g>
</g>
<!-- Node1&#45;&gt;Node23 -->
<g id="edge34" class="edge">
<title>Node1&#45;&gt;Node23</title>
<path fill="none" stroke="#191970" d="M63.9049,-732.7027C73.1424,-792.5435 108.3804,-999.6459 159,-1038.5 218.1174,-1083.8768 434.9738,-1071.1982 548.9396,-1060.8978"/>
<polygon fill="#191970" stroke="#191970" points="549.3335,-1064.3764 558.9701,-1059.9733 548.691,-1057.4059 549.3335,-1064.3764"/>
</g>
<!-- Node24 -->
<g id="node24" class="node">
<title>Node24</title>
<g id="a_node24"><a xlink:href="../../d7/d8b/classSvtxTrackMap.html#a1c7ae993700819b7d0a8e3f3d74fa99c" target="_top" xlink:title="SvtxTrackMap::end">
<polygon fill="none" stroke="#000000" points="187,-1008.5 187,-1028.5 299,-1028.5 299,-1008.5 187,-1008.5"/>
<text text-anchor="middle" x="243" y="-1015.5" font-family="FreeSans" font-size="10.00" fill="#000000">SvtxTrackMap::end</text>
</a>
</g>
</g>
<!-- Node1&#45;&gt;Node24 -->
<g id="edge25" class="edge">
<title>Node1&#45;&gt;Node24</title>
<path fill="none" stroke="#191970" d="M64.9178,-732.7019C76.7159,-787.1357 117.3023,-962.1293 159,-999.5 164.2366,-1004.1932 170.3843,-1007.8033 176.9315,-1010.5698"/>
<polygon fill="#191970" stroke="#191970" points="176.1554,-1014.0079 186.7502,-1014.0473 178.4925,-1007.4095 176.1554,-1014.0079"/>
</g>
<!-- Node25 -->
<g id="node25" class="node">
<title>Node25</title>
<g id="a_node25"><a xlink:href="../../d2/db8/classSvtxTrack.html#ac0e8c2214fa9f988c00a561ed22aa085" target="_top" xlink:title="SvtxTrack::end_cluster_keys">
<polygon fill="none" stroke="#000000" points="164,-969.5 164,-989.5 322,-989.5 322,-969.5 164,-969.5"/>
<text text-anchor="middle" x="243" y="-976.5" font-family="FreeSans" font-size="10.00" fill="#000000">SvtxTrack::end_cluster_keys</text>
</a>
</g>
</g>
<!-- Node1&#45;&gt;Node25 -->
<g id="edge26" class="edge">
<title>Node1&#45;&gt;Node25</title>
<path fill="none" stroke="#191970" d="M62.8861,-732.5207C67.5708,-776.3217 86.8295,-898.8996 159,-960.5 160.5779,-961.8468 162.2316,-963.1035 163.9481,-964.2757"/>
<polygon fill="#191970" stroke="#191970" points="162.5786,-967.5249 172.995,-969.4611 166.0595,-961.4517 162.5786,-967.5249"/>
</g>
<!-- Node26 -->
<g id="node26" class="node">
<title>Node26</title>
<g id="a_node26"><a xlink:href="../../df/de8/cemc_8C.html#adf5c804dfce7a70e36dda02995fad481" target="_top" xlink:title="exit">
<polygon fill="none" stroke="#000000" points="225.5,-930.5 225.5,-950.5 260.5,-950.5 260.5,-930.5 225.5,-930.5"/>
<text text-anchor="middle" x="243" y="-937.5" font-family="FreeSans" font-size="10.00" fill="#000000">exit</text>
</a>
</g>
</g>
<!-- Node1&#45;&gt;Node26 -->
<g id="edge27" class="edge">
<title>Node1&#45;&gt;Node26</title>
<path fill="none" stroke="#191970" d="M64.2176,-732.5083C71.7013,-771.4135 96.3693,-871.4049 159,-921.5 174.8354,-934.1659 197.4677,-938.7443 215.251,-940.2494"/>
<polygon fill="#191970" stroke="#191970" points="215.1488,-943.7492 225.3325,-940.8264 215.5488,-936.7606 215.1488,-943.7492"/>
</g>
<!-- Node27 -->
<g id="node27" class="node">
<title>Node27</title>
<g id="a_node27"><a xlink:href="../../db/de4/classSvtxTrack__v1.html#ace234d63ab40217fda3432d4df773045" target="_top" xlink:title="SvtxTrack_v1::get_id">
<polygon fill="none" stroke="#000000" points="183,-891.5 183,-911.5 303,-911.5 303,-891.5 183,-891.5"/>
<text text-anchor="middle" x="243" y="-898.5" font-family="FreeSans" font-size="10.00" fill="#000000">SvtxTrack_v1::get_id</text>
</a>
</g>
</g>
<!-- Node1&#45;&gt;Node27 -->
<g id="edge29" class="edge">
<title>Node1&#45;&gt;Node27</title>
<path fill="none" stroke="#191970" d="M66.1783,-732.697C76.7589,-766.2914 105.8393,-843.651 159,-882.5 163.4515,-885.7531 168.3634,-888.4632 173.5108,-890.7193"/>
<polygon fill="#191970" stroke="#191970" points="172.3904,-894.0376 182.9818,-894.3091 174.8715,-887.492 172.3904,-894.0376"/>
</g>
<!-- Node28 -->
<g id="node28" class="node">
<title>Node28</title>
<g id="a_node28"><a xlink:href="../../d2/db8/classSvtxTrack.html#a5f934a41fd25eaa343dd267112b4537d" target="_top" xlink:title="SvtxTrack::get_id">
<polygon fill="none" stroke="#000000" points="192,-852.5 192,-872.5 294,-872.5 294,-852.5 192,-852.5"/>
<text text-anchor="middle" x="243" y="-859.5" font-family="FreeSans" font-size="10.00" fill="#000000">SvtxTrack::get_id</text>
</a>
</g>
</g>
<!-- Node1&#45;&gt;Node28 -->
<g id="edge30" class="edge">
<title>Node1&#45;&gt;Node28</title>
<path fill="none" stroke="#191970" d="M69.1661,-732.6596C83.0334,-760.0442 114.9827,-815.3328 159,-843.5 166.0605,-848.0181 174.057,-851.4685 182.2411,-854.1022"/>
<polygon fill="#191970" stroke="#191970" points="181.3145,-857.4774 191.8898,-856.8338 183.2214,-850.7421 181.3145,-857.4774"/>
</g>
<!-- Node29 -->
<g id="node29" class="node">
<title>Node29</title>
<g id="a_node29"><a xlink:href="../../d2/db8/classSvtxTrack.html#af6f03ad537260f2ceef84cf876e22deb" target="_top" xlink:title="SvtxTrack::get_pt">
<polygon fill="none" stroke="#000000" points="191,-813.5 191,-833.5 295,-833.5 295,-813.5 191,-813.5"/>
<text text-anchor="middle" x="243" y="-820.5" font-family="FreeSans" font-size="10.00" fill="#000000">SvtxTrack::get_pt</text>
</a>
</g>
</g>
<!-- Node1&#45;&gt;Node29 -->
<g id="edge31" class="edge">
<title>Node1&#45;&gt;Node29</title>
<path fill="none" stroke="#191970" d="M74.5574,-732.5266C91.7653,-752.5378 123.9799,-786.342 159,-804.5 165.9064,-808.081 173.4754,-810.9912 181.1523,-813.3554"/>
<polygon fill="#191970" stroke="#191970" points="180.32,-816.7567 190.8924,-816.0673 182.1977,-810.0132 180.32,-816.7567"/>
</g>
<!-- Node30 -->
<g id="node30" class="node">
<title>Node30</title>
<g id="a_node30"><a xlink:href="../../de/dc9/classPHG4Particle.html#ac29b72a8cdeebc0754b6dd42b0cfab86" target="_top" xlink:title="PHG4Particle::get_track_id">
<polygon fill="none" stroke="#000000" points="168.5,-774.5 168.5,-794.5 317.5,-794.5 317.5,-774.5 168.5,-774.5"/>
<text text-anchor="middle" x="243" y="-781.5" font-family="FreeSans" font-size="10.00" fill="#000000">PHG4Particle::get_track_id</text>
</a>
</g>
</g>
<!-- Node1&#45;&gt;Node30 -->
<g id="edge35" class="edge">
<title>Node1&#45;&gt;Node30</title>
<path fill="none" stroke="#191970" d="M88.8618,-732.5137C107.9793,-743.1314 134.3889,-756.6812 159,-765.5 165.5253,-767.8382 172.4419,-769.9526 179.3942,-771.8476"/>
<polygon fill="#191970" stroke="#191970" points="179.0071,-775.3621 189.5641,-774.4675 180.7534,-768.5834 179.0071,-775.3621"/>
</g>
<!-- Node31 -->
<g id="node31" class="node">
<title>Node31</title>
<g id="a_node31"><a xlink:href="../../d2/db8/classSvtxTrack.html#afdab8924d017edd067d32c16ac380840" target="_top" xlink:title="SvtxTrack::get_truth\l_track_id">
<polygon fill="none" stroke="#000000" points="184.5,-723.5 184.5,-755.5 301.5,-755.5 301.5,-723.5 184.5,-723.5"/>
<text text-anchor="start" x="192.5" y="-742.5" font-family="FreeSans" font-size="10.00" fill="#000000">SvtxTrack::get_truth</text>
<text text-anchor="middle" x="243" y="-730.5" font-family="FreeSans" font-size="10.00" fill="#000000">_track_id</text>
</a>
</g>
</g>
<!-- Node1&#45;&gt;Node31 -->
<g id="edge36" class="edge">
<title>Node1&#45;&gt;Node31</title>
<path fill="none" stroke="#191970" d="M123.2009,-724.3188C139.541,-726.3895 157.2857,-728.6381 173.9868,-730.7545"/>
<polygon fill="#191970" stroke="#191970" points="173.8681,-734.2674 184.2288,-732.0524 174.7482,-727.3229 173.8681,-734.2674"/>
</g>
<!-- Node32 -->
<g id="node32" class="node">
<title>Node32</title>
<g id="a_node32"><a xlink:href="../../d6/dfa/classTrkrCluster.html#ab18c56f7c1aa174203dcf8fbf0141279" target="_top" xlink:title="TrkrCluster::getClusKey">
<polygon fill="none" stroke="#000000" points="175.5,-684.5 175.5,-704.5 310.5,-704.5 310.5,-684.5 175.5,-684.5"/>
<text text-anchor="middle" x="243" y="-691.5" font-family="FreeSans" font-size="10.00" fill="#000000">TrkrCluster::getClusKey</text>
</a>
</g>
</g>
<!-- Node1&#45;&gt;Node32 -->
<g id="edge37" class="edge">
<title>Node1&#45;&gt;Node32</title>
<path fill="none" stroke="#191970" d="M123.2009,-709.0211C136.6803,-707.3872 151.1156,-705.6375 165.1324,-703.9385"/>
<polygon fill="#191970" stroke="#191970" points="165.7391,-707.3907 175.2452,-702.7127 164.8967,-700.4415 165.7391,-707.3907"/>
</g>
<!-- Node33 -->
<g id="node33" class="node">
<title>Node33</title>
<g id="a_node33"><a xlink:href="../../da/d6c/classPHG4TruthInfoContainer.html#a2817b4438bb80cacb28f457975342cf2" target="_top" xlink:title="PHG4TruthInfoContainer\l::GetPrimaryParticleRange">
<polygon fill="none" stroke="#000000" points="168.5,-633.5 168.5,-665.5 317.5,-665.5 317.5,-633.5 168.5,-633.5"/>
<text text-anchor="start" x="176.5" y="-652.5" font-family="FreeSans" font-size="10.00" fill="#000000">PHG4TruthInfoContainer</text>
<text text-anchor="middle" x="243" y="-640.5" font-family="FreeSans" font-size="10.00" fill="#000000">::GetPrimaryParticleRange</text>
</a>
</g>
</g>
<!-- Node1&#45;&gt;Node33 -->
<g id="edge38" class="edge">
<title>Node1&#45;&gt;Node33</title>
<path fill="none" stroke="#191970" d="M97.2829,-700.4626C115.5764,-692.5175 138.2939,-683.0376 159,-675.5 165.3611,-673.1844 172.0389,-670.8908 178.7328,-668.6812"/>
<polygon fill="#191970" stroke="#191970" points="180.0823,-671.9232 188.5165,-665.5112 177.9246,-665.264 180.0823,-671.9232"/>
</g>
<!-- Node34 -->
<g id="node34" class="node">
<title>Node34</title>
<g id="a_node34"><a xlink:href="../../de/dc9/classPHG4Particle.html#a3dd58b08ff18a16d8d290fd5bcb1de7b" target="_top" xlink:title="PHG4Particle::identify">
<polygon fill="none" stroke="#000000" points="180,-594.5 180,-614.5 306,-614.5 306,-594.5 180,-594.5"/>
<text text-anchor="middle" x="243" y="-601.5" font-family="FreeSans" font-size="10.00" fill="#000000">PHG4Particle::identify</text>
</a>
</g>
</g>
<!-- Node1&#45;&gt;Node34 -->
<g id="edge41" class="edge">
<title>Node1&#45;&gt;Node34</title>
<path fill="none" stroke="#191970" d="M74.1341,-700.1511C91.1298,-679.3265 123.3667,-643.7388 159,-624.5 163.5819,-622.0262 168.4668,-619.8555 173.4881,-617.9512"/>
<polygon fill="#191970" stroke="#191970" points="174.9386,-621.1543 183.269,-614.6079 172.6744,-614.5306 174.9386,-621.1543"/>
</g>
<!-- Node35 -->
<g id="node35" class="node">
<title>Node35</title>
<g id="a_node35"><a xlink:href="../../d7/d8b/classSvtxTrackMap.html#a37842b6cc664f1629956aefb7efcd853" target="_top" xlink:title="SvtxTrackMap::insert">
<polygon fill="none" stroke="#000000" points="182,-555.5 182,-575.5 304,-575.5 304,-555.5 182,-555.5"/>
<text text-anchor="middle" x="243" y="-562.5" font-family="FreeSans" font-size="10.00" fill="#000000">SvtxTrackMap::insert</text>
</a>
</g>
</g>
<!-- Node1&#45;&gt;Node35 -->
<g id="edge42" class="edge">
<title>Node1&#45;&gt;Node35</title>
<path fill="none" stroke="#191970" d="M68.8437,-700.3335C82.4324,-672.3287 114.249,-614.9704 159,-585.5 163.0886,-582.8075 167.5009,-580.4765 172.0879,-578.4586"/>
<polygon fill="#191970" stroke="#191970" points="173.6366,-581.6123 181.7008,-574.7406 171.1115,-575.0836 173.6366,-581.6123"/>
</g>
<!-- Node36 -->
<g id="node36" class="node">
<title>Node36</title>
<g id="a_node36"><a xlink:href="../../db/de4/classSvtxTrack__v1.html#aa43bc84d6cd92df5f1cd25386ba436c2" target="_top" xlink:title="SvtxTrack_v1::insert\l_cluster_key">
<polygon fill="none" stroke="#000000" points="184,-504.5 184,-536.5 302,-536.5 302,-504.5 184,-504.5"/>
<text text-anchor="start" x="192" y="-523.5" font-family="FreeSans" font-size="10.00" fill="#000000">SvtxTrack_v1::insert</text>
<text text-anchor="middle" x="243" y="-511.5" font-family="FreeSans" font-size="10.00" fill="#000000">_cluster_key</text>
</a>
</g>
</g>
<!-- Node1&#45;&gt;Node36 -->
<g id="edge43" class="edge">
<title>Node1&#45;&gt;Node36</title>
<path fill="none" stroke="#191970" d="M66.3118,-700.2482C77.1451,-666.4793 106.6772,-588.3908 159,-546.5 163.657,-542.7715 168.8495,-539.5755 174.3056,-536.8363"/>
<polygon fill="#191970" stroke="#191970" points="175.9861,-539.9189 183.6886,-532.6442 173.1307,-533.5278 175.9861,-539.9189"/>
</g>
<!-- Node37 -->
<g id="node37" class="node">
<title>Node37</title>
<g id="a_node37"><a xlink:href="../../d1/d1e/classSvtxClusterEval.html#a0f23d4c63d0e893560d423db7e02578d" target="_top" xlink:title="SvtxClusterEval::next\l_event">
<polygon fill="none" stroke="#000000" points="180.5,-453.5 180.5,-485.5 305.5,-485.5 305.5,-453.5 180.5,-453.5"/>
<text text-anchor="start" x="188.5" y="-472.5" font-family="FreeSans" font-size="10.00" fill="#000000">SvtxClusterEval::next</text>
<text text-anchor="middle" x="243" y="-460.5" font-family="FreeSans" font-size="10.00" fill="#000000">_event</text>
</a>
</g>
</g>
<!-- Node1&#45;&gt;Node37 -->
<g id="edge44" class="edge">
<title>Node1&#45;&gt;Node37</title>
<path fill="none" stroke="#191970" d="M63.9241,-700.4902C70.9018,-660.001 94.8086,-552.685 159,-495.5 162.6547,-492.2442 166.7116,-489.3961 171.0126,-486.9046"/>
<polygon fill="#191970" stroke="#191970" points="172.8003,-489.9223 180.1332,-482.2751 169.632,-483.6804 172.8003,-489.9223"/>
</g>
<!-- Node40 -->
<g id="node40" class="node">
<title>Node40</title>
<g id="a_node40"><a xlink:href="../../db/de4/classSvtxTrack__v1.html#a2ee217151ccbdde6e9fb12cf8a26badd" target="_top" xlink:title="SvtxTrack_v1::set_chisq">
<polygon fill="none" stroke="#000000" points="175,-414.5 175,-434.5 311,-434.5 311,-414.5 175,-414.5"/>
<text text-anchor="middle" x="243" y="-421.5" font-family="FreeSans" font-size="10.00" fill="#000000">SvtxTrack_v1::set_chisq</text>
</a>
</g>
</g>
<!-- Node1&#45;&gt;Node40 -->
<g id="edge47" class="edge">
<title>Node1&#45;&gt;Node40</title>
<path fill="none" stroke="#191970" d="M62.1311,-700.3523C64.8937,-653.0567 79.7116,-513.7613 159,-443.5 161.2031,-441.5477 163.5641,-439.7834 166.0458,-438.1896"/>
<polygon fill="#191970" stroke="#191970" points="167.764,-441.2394 174.8939,-433.4025 164.4331,-435.0827 167.764,-441.2394"/>
</g>
<!-- Node41 -->
<g id="node41" class="node">
<title>Node41</title>
<g id="a_node41"><a xlink:href="../../db/de4/classSvtxTrack__v1.html#a8ea08d5653e4cca4f0652bc9180c92c0" target="_top" xlink:title="SvtxTrack_v1::set_id">
<polygon fill="none" stroke="#000000" points="184,-375.5 184,-395.5 302,-395.5 302,-375.5 184,-375.5"/>
<text text-anchor="middle" x="243" y="-382.5" font-family="FreeSans" font-size="10.00" fill="#000000">SvtxTrack_v1::set_id</text>
</a>
</g>
</g>
<!-- Node1&#45;&gt;Node41 -->
<g id="edge48" class="edge">
<title>Node1&#45;&gt;Node41</title>
<path fill="none" stroke="#191970" d="M64.3746,-700.2922C74.9779,-642.3004 113.6412,-446.3495 159,-404.5 163.5055,-400.3431 168.7224,-397.0303 174.3074,-394.398"/>
<polygon fill="#191970" stroke="#191970" points="175.9725,-397.5038 183.9931,-390.5813 173.4062,-390.9912 175.9725,-397.5038"/>
</g>
<!-- Node42 -->
<g id="node42" class="node">
<title>Node42</title>
<g id="a_node42"><a xlink:href="../../db/de4/classSvtxTrack__v1.html#a24badcfd5829511633ba51f482fedcf0" target="_top" xlink:title="SvtxTrack_v1::set_ndf">
<polygon fill="none" stroke="#000000" points="179.5,-336.5 179.5,-356.5 306.5,-356.5 306.5,-336.5 179.5,-336.5"/>
<text text-anchor="middle" x="243" y="-343.5" font-family="FreeSans" font-size="10.00" fill="#000000">SvtxTrack_v1::set_ndf</text>
</a>
</g>
</g>
<!-- Node1&#45;&gt;Node42 -->
<g id="edge49" class="edge">
<title>Node1&#45;&gt;Node42</title>
<path fill="none" stroke="#191970" d="M63.7537,-700.4755C72.8269,-638.2184 108.6288,-413.4856 159,-365.5 162.3171,-362.34 166.0435,-359.6643 170.0337,-357.4022"/>
<polygon fill="#191970" stroke="#191970" points="171.6004,-360.5329 179.1339,-353.0832 168.599,-354.2089 171.6004,-360.5329"/>
</g>
<!-- Node43 -->
<g id="node43" class="node">
<title>Node43</title>
<g id="a_node43"><a xlink:href="../../db/de4/classSvtxTrack__v1.html#a5b5b4d68760b1c0088753e409e7c7f3b" target="_top" xlink:title="SvtxTrack_v1::set_px">
<polygon fill="none" stroke="#000000" points="182,-297.5 182,-317.5 304,-317.5 304,-297.5 182,-297.5"/>
<text text-anchor="middle" x="243" y="-304.5" font-family="FreeSans" font-size="10.00" fill="#000000">SvtxTrack_v1::set_px</text>
</a>
</g>
</g>
<!-- Node1&#45;&gt;Node43 -->
<g id="edge50" class="edge">
<title>Node1&#45;&gt;Node43</title>
<path fill="none" stroke="#191970" d="M63.3237,-700.104C71.1121,-633.0304 103.7321,-380.5365 159,-326.5 163.0091,-322.5802 167.6461,-319.4011 172.641,-316.8298"/>
<polygon fill="#191970" stroke="#191970" points="174.1518,-319.9902 181.9601,-312.8292 171.3904,-313.5579 174.1518,-319.9902"/>
</g>
<!-- Node44 -->
<g id="node44" class="node">
<title>Node44</title>
<g id="a_node44"><a xlink:href="../../db/de4/classSvtxTrack__v1.html#ac6aaf605a01cb8c2a1057d548b49e317" target="_top" xlink:title="SvtxTrack_v1::set_py">
<polygon fill="none" stroke="#000000" points="182,-258.5 182,-278.5 304,-278.5 304,-258.5 182,-258.5"/>
<text text-anchor="middle" x="243" y="-265.5" font-family="FreeSans" font-size="10.00" fill="#000000">SvtxTrack_v1::set_py</text>
</a>
</g>
</g>
<!-- Node1&#45;&gt;Node44 -->
<g id="edge51" class="edge">
<title>Node1&#45;&gt;Node44</title>
<path fill="none" stroke="#191970" d="M62.8956,-700.4295C69.3524,-629.8047 98.6153,-347.8226 159,-287.5 162.9667,-283.5374 167.5738,-280.328 172.5484,-277.7361"/>
<polygon fill="#191970" stroke="#191970" points="174.0575,-280.8967 181.8409,-273.7086 171.2737,-274.4741 174.0575,-280.8967"/>
</g>
<!-- Node45 -->
<g id="node45" class="node">
<title>Node45</title>
<g id="a_node45"><a xlink:href="../../db/de4/classSvtxTrack__v1.html#a783d521d9f19a2f5922b532251bb949d" target="_top" xlink:title="SvtxTrack_v1::set_pz">
<polygon fill="none" stroke="#000000" points="182.5,-219.5 182.5,-239.5 303.5,-239.5 303.5,-219.5 182.5,-219.5"/>
<text text-anchor="middle" x="243" y="-226.5" font-family="FreeSans" font-size="10.00" fill="#000000">SvtxTrack_v1::set_pz</text>
</a>
</g>
</g>
<!-- Node1&#45;&gt;Node45 -->
<g id="edge52" class="edge">
<title>Node1&#45;&gt;Node45</title>
<path fill="none" stroke="#191970" d="M62.5988,-700.004C67.9453,-624.763 93.689,-314.9343 159,-248.5 162.9962,-244.435 167.6652,-241.1594 172.7179,-238.5282"/>
<polygon fill="#191970" stroke="#191970" points="174.3667,-241.6289 182.1648,-234.4567 171.5961,-235.2005 174.3667,-241.6289"/>
</g>
<!-- Node46 -->
<g id="node46" class="node">
<title>Node46</title>
<g id="a_node46"><a xlink:href="../../d9/da8/classSvtxTrack__FastSim.html#ac44885351ede1460e50392fc5165b545" target="_top" xlink:title="SvtxTrack_FastSim::\lset_truth_track_id">
<polygon fill="none" stroke="#000000" points="185.5,-168.5 185.5,-200.5 300.5,-200.5 300.5,-168.5 185.5,-168.5"/>
<text text-anchor="start" x="193.5" y="-187.5" font-family="FreeSans" font-size="10.00" fill="#000000">SvtxTrack_FastSim::</text>
<text text-anchor="middle" x="243" y="-175.5" font-family="FreeSans" font-size="10.00" fill="#000000">set_truth_track_id</text>
</a>
</g>
</g>
<!-- Node1&#45;&gt;Node46 -->
<g id="edge53" class="edge">
<title>Node1&#45;&gt;Node46</title>
<path fill="none" stroke="#191970" d="M62.4025,-700.3375C67.0803,-622.2327 91.022,-284.5857 159,-209.5 163.7342,-204.2708 169.5084,-200.1157 175.7907,-196.8172"/>
<polygon fill="#191970" stroke="#191970" points="177.5931,-199.8455 185.2967,-192.572 174.7387,-193.4539 177.5931,-199.8455"/>
</g>
<!-- Node47 -->
<g id="node47" class="node">
<title>Node47</title>
<g id="a_node47"><a xlink:href="../../d2/db7/classAssocInfoContainer.html#a9db4403e323e841ba005ad2b6b9815c4" target="_top" xlink:title="AssocInfoContainer\l::SetClusterTrackAssoc">
<polygon fill="none" stroke="#000000" points="177.5,-117.5 177.5,-149.5 308.5,-149.5 308.5,-117.5 177.5,-117.5"/>
<text text-anchor="start" x="185.5" y="-136.5" font-family="FreeSans" font-size="10.00" fill="#000000">AssocInfoContainer</text>
<text text-anchor="middle" x="243" y="-124.5" font-family="FreeSans" font-size="10.00" fill="#000000">::SetClusterTrackAssoc</text>
</a>
</g>
</g>
<!-- Node1&#45;&gt;Node47 -->
<g id="edge54" class="edge">
<title>Node1&#45;&gt;Node47</title>
<path fill="none" stroke="#191970" d="M62.0909,-700.3994C65.4416,-617.7795 84.6298,-242.0633 159,-158.5 161.766,-155.3921 164.8994,-152.6629 168.2903,-150.267"/>
<polygon fill="#191970" stroke="#191970" points="170.3835,-153.0942 177.1864,-144.9719 166.8032,-147.079 170.3835,-153.0942"/>
</g>
<!-- Node48 -->
<g id="node48" class="node">
<title>Node48</title>
<g id="a_node48"><a xlink:href="../../d7/d8b/classSvtxTrackMap.html#a508e23a620af3b20bfc0be05aa5b4ada" target="_top" xlink:title="SvtxTrackMap::size">
<polygon fill="none" stroke="#000000" points="187,-78.5 187,-98.5 299,-98.5 299,-78.5 187,-78.5"/>
<text text-anchor="middle" x="243" y="-85.5" font-family="FreeSans" font-size="10.00" fill="#000000">SvtxTrackMap::size</text>
</a>
</g>
</g>
<!-- Node1&#45;&gt;Node48 -->
<g id="edge55" class="edge">
<title>Node1&#45;&gt;Node48</title>
<path fill="none" stroke="#191970" d="M61.7306,-700.3039C63.3126,-612.7635 75.2037,-196.8113 159,-107.5 164.0641,-102.1026 170.3104,-98.0822 177.0923,-95.1079"/>
<polygon fill="#191970" stroke="#191970" points="178.3955,-98.3586 186.6118,-91.6695 176.0175,-91.7749 178.3955,-98.3586"/>
</g>
<!-- Node49 -->
<g id="node49" class="node">
<title>Node49</title>
<g id="a_node49"><a xlink:href="../../d2/db8/classSvtxTrack.html#af80cbe431fc78760b0f5352fee9cd7be" target="_top" xlink:title="SvtxTrack::size_cluster_keys">
<polygon fill="none" stroke="#000000" points="163.5,-39.5 163.5,-59.5 322.5,-59.5 322.5,-39.5 163.5,-39.5"/>
<text text-anchor="middle" x="243" y="-46.5" font-family="FreeSans" font-size="10.00" fill="#000000">SvtxTrack::size_cluster_keys</text>
</a>
</g>
</g>
<!-- Node1&#45;&gt;Node49 -->
<g id="edge56" class="edge">
<title>Node1&#45;&gt;Node49</title>
<path fill="none" stroke="#191970" d="M62.8545,-700.2345C70.9711,-604.4588 114.3202,-116.5716 159,-68.5 159.9161,-67.5143 160.8716,-66.5745 161.8627,-65.6785"/>
<polygon fill="#191970" stroke="#191970" points="164.1038,-68.375 170.091,-59.634 159.9596,-62.7336 164.1038,-68.375"/>
</g>
<!-- Node50 -->
<g id="node50" class="node">
<title>Node50</title>
<g id="a_node50"><a xlink:href="../../d5/dec/classFun4AllBase.html#a8a5c77a92bdac6bc043476e132379a40" target="_top" xlink:title="Gets the verbosity of this module.">
<polygon fill="none" stroke="#000000" points="177,-.5 177,-20.5 309,-20.5 309,-.5 177,-.5"/>
<text text-anchor="middle" x="243" y="-7.5" font-family="FreeSans" font-size="10.00" fill="#000000">Fun4AllBase::Verbosity</text>
</a>
</g>
</g>
<!-- Node1&#45;&gt;Node50 -->
<g id="edge57" class="edge">
<title>Node1&#45;&gt;Node50</title>
<path fill="none" stroke="#191970" d="M62.7098,-700.2362C70.225,-601.1088 111.7492,-80.766 159,-29.5 161.6378,-26.6381 164.6077,-24.1617 167.8148,-22.0221"/>
<polygon fill="#191970" stroke="#191970" points="169.6994,-24.9807 176.7935,-17.1114 166.3405,-18.8392 169.6994,-24.9807"/>
</g>
<!-- Node5 -->
<g id="node5" class="node">
<title>Node5</title>
<g id="a_node5"><a xlink:href="../../d1/d1e/classSvtxClusterEval.html#a9d557168b84ca9a814166d6523bfe2fd" target="_top" xlink:title="SvtxClusterEval::has\l_node_pointers">
<polygon fill="none" stroke="#000000" points="559.5,-1637.5 559.5,-1669.5 680.5,-1669.5 680.5,-1637.5 559.5,-1637.5"/>
<text text-anchor="start" x="567.5" y="-1656.5" font-family="FreeSans" font-size="10.00" fill="#000000">SvtxClusterEval::has</text>
<text text-anchor="middle" x="620" y="-1644.5" font-family="FreeSans" font-size="10.00" fill="#000000">_node_pointers</text>
</a>
</g>
</g>
<!-- Node4&#45;&gt;Node5 -->
<g id="edge4" class="edge">
<title>Node4&#45;&gt;Node5</title>
<path fill="none" stroke="#191970" d="M305.7291,-1356.1461C313.6187,-1359.7277 321.0085,-1364.402 327,-1370.5 367.2195,-1411.4344 330.343,-1447.3115 363,-1494.5 419.5528,-1576.2174 453.6872,-1582.9281 542,-1628.5 545.5245,-1630.3187 549.2069,-1632.0379 552.9709,-1633.6577"/>
<polygon fill="#191970" stroke="#191970" points="551.8684,-1636.9869 562.4518,-1637.4791 554.4853,-1630.4944 551.8684,-1636.9869"/>
</g>
<!-- Node6 -->
<g id="node6" class="node">
<title>Node6</title>
<g id="a_node6"><a xlink:href="../../d0/d2c/classTrkrClusterContainer.html#a1d8049a1a46c600e4baf190a58745029" target="_top" xlink:title="return all Clusters matching a given detid">
<polygon fill="none" stroke="#000000" points="373.5,-1682.5 373.5,-1714.5 495.5,-1714.5 495.5,-1682.5 373.5,-1682.5"/>
<text text-anchor="start" x="381.5" y="-1701.5" font-family="FreeSans" font-size="10.00" fill="#000000">TrkrClusterContainer</text>
<text text-anchor="middle" x="434.5" y="-1689.5" font-family="FreeSans" font-size="10.00" fill="#000000">::getClusters</text>
</a>
</g>
</g>
<!-- Node4&#45;&gt;Node6 -->
<g id="edge5" class="edge">
<title>Node4&#45;&gt;Node6</title>
<path fill="none" stroke="#191970" d="M305.6601,-1355.0513C313.7598,-1358.7791 321.2281,-1363.7857 327,-1370.5 397.0255,-1451.9591 319.8712,-1511.1177 363,-1609.5 373.9722,-1634.529 393.8668,-1658.415 409.8896,-1675.1284"/>
<polygon fill="#191970" stroke="#191970" points="407.4227,-1677.6116 416.933,-1682.2812 412.4105,-1672.7001 407.4227,-1677.6116"/>
</g>
<!-- Node9 -->
<g id="node9" class="node">
<title>Node9</title>
<g id="a_node9"><a xlink:href="../../d6/d3f/namespaceTrkrDefs.html#ad4a7fd368bbf1d5d97ff4fd3e81a6100" target="_top" xlink:title="Get the layer number from either key type.">
<polygon fill="none" stroke="#000000" points="564.5,-1598.5 564.5,-1618.5 675.5,-1618.5 675.5,-1598.5 564.5,-1598.5"/>
<text text-anchor="middle" x="620" y="-1605.5" font-family="FreeSans" font-size="10.00" fill="#000000">TrkrDefs::getLayer</text>
</a>
</g>
</g>
<!-- Node4&#45;&gt;Node9 -->
<g id="edge8" class="edge">
<title>Node4&#45;&gt;Node9</title>
<path fill="none" stroke="#191970" d="M305.5378,-1360.0202C313.019,-1362.9784 320.352,-1366.4479 327,-1370.5 443.4688,-1441.4905 423.4126,-1522.1082 542,-1589.5 545.9931,-1591.7692 550.2507,-1593.7691 554.6384,-1595.5313"/>
<polygon fill="#191970" stroke="#191970" points="553.8052,-1598.9504 564.3998,-1599.0219 556.1622,-1592.3591 553.8052,-1598.9504"/>
</g>
<!-- Node10 -->
<g id="node10" class="node">
<title>Node10</title>
<g id="a_node10"><a xlink:href="../../d1/d1e/classSvtxClusterEval.html#abd7851ec294047271ce26d8824d2af81" target="_top" xlink:title="SvtxClusterEval::gtrackid\l_and_layer_by_nhit">
<polygon fill="none" stroke="#ff0000" points="363,-1328.5 363,-1360.5 506,-1360.5 506,-1328.5 363,-1328.5"/>
<text text-anchor="start" x="371" y="-1347.5" font-family="FreeSans" font-size="10.00" fill="#000000">SvtxClusterEval::gtrackid</text>
<text text-anchor="middle" x="434.5" y="-1335.5" font-family="FreeSans" font-size="10.00" fill="#000000">_and_layer_by_nhit</text>
</a>
</g>
</g>
<!-- Node4&#45;&gt;Node10 -->
<g id="edge9" class="edge">
<title>Node4&#45;&gt;Node10</title>
<path fill="none" stroke="#191970" d="M305.7043,-1344.5C320.6475,-1344.5 336.8147,-1344.5 352.4811,-1344.5"/>
<polygon fill="#191970" stroke="#191970" points="352.686,-1348.0001 362.686,-1344.5 352.6859,-1341.0001 352.686,-1348.0001"/>
</g>
<!-- Node7 -->
<g id="node7" class="node">
<title>Node7</title>
<g id="a_node7"><a xlink:href="../../d6/d3f/namespaceTrkrDefs.html#a36fd0eb8c5bb3f21475acfec8965cf3e" target="_top" xlink:title="Get a valid low / hi range for cluskey given tracker id &amp; layer.">
<polygon fill="none" stroke="#ff0000" points="553.5,-1688.5 553.5,-1708.5 686.5,-1708.5 686.5,-1688.5 553.5,-1688.5"/>
<text text-anchor="middle" x="620" y="-1695.5" font-family="FreeSans" font-size="10.00" fill="#000000">TrkrDefs::getClusKeyLo</text>
</a>
</g>
</g>
<!-- Node6&#45;&gt;Node7 -->
<g id="edge6" class="edge">
<title>Node6&#45;&gt;Node7</title>
<path fill="none" stroke="#191970" d="M495.7537,-1698.5C510.9033,-1698.5 527.3249,-1698.5 543.1144,-1698.5"/>
<polygon fill="#191970" stroke="#191970" points="543.3793,-1702.0001 553.3793,-1698.5 543.3793,-1695.0001 543.3793,-1702.0001"/>
</g>
<!-- Node8 -->
<g id="node8" class="node">
<title>Node8</title>
<g id="a_node8"><a xlink:href="../../d6/d3f/namespaceTrkrDefs.html#a53af1843abe50e467a06d2307f7fe0eb" target="_top" xlink:title="TrkrDefs::getClusKeyHi">
<polygon fill="none" stroke="#ff0000" points="554,-1727.5 554,-1747.5 686,-1747.5 686,-1727.5 554,-1727.5"/>
<text text-anchor="middle" x="620" y="-1734.5" font-family="FreeSans" font-size="10.00" fill="#000000">TrkrDefs::getClusKeyHi</text>
</a>
</g>
</g>
<!-- Node6&#45;&gt;Node8 -->
<g id="edge7" class="edge">
<title>Node6&#45;&gt;Node8</title>
<path fill="none" stroke="#191970" d="M495.7537,-1711.3781C517.2541,-1715.8984 541.3167,-1720.9574 562.4981,-1725.4107"/>
<polygon fill="#191970" stroke="#191970" points="561.8171,-1728.8439 572.3233,-1727.4763 563.2574,-1721.9937 561.8171,-1728.8439"/>
</g>
<!-- Node10&#45;&gt;Node5 -->
<g id="edge10" class="edge">
<title>Node10&#45;&gt;Node5</title>
<path fill="none" stroke="#191970" d="M438.6274,-1360.638C452.7897,-1414.8748 500.808,-1589.3839 542,-1628.5 544.6053,-1630.974 547.4561,-1633.2032 550.4786,-1635.2118"/>
<polygon fill="#191970" stroke="#191970" points="548.9715,-1638.3818 559.3897,-1640.3084 552.4469,-1632.3055 548.9715,-1638.3818"/>
</g>
<!-- Node10&#45;&gt;Node9 -->
<g id="edge15" class="edge">
<title>Node10&#45;&gt;Node9</title>
<path fill="none" stroke="#191970" d="M443.6049,-1360.6539C457.9673,-1386.5085 486.2744,-1439.0099 506,-1485.5 525.1051,-1530.5277 505.8213,-1556.5819 542,-1589.5 545.832,-1592.9867 550.1958,-1595.8614 554.856,-1598.2284"/>
<polygon fill="#191970" stroke="#191970" points="553.5502,-1601.4764 564.1215,-1602.1818 556.2973,-1595.038 553.5502,-1601.4764"/>
</g>
<!-- Node10&#45;&gt;Node11 -->
<g id="edge11" class="edge">
<title>Node10&#45;&gt;Node11</title>
<path fill="none" stroke="#191970" d="M458.0293,-1328.4744C479.2877,-1314.4928 511.7845,-1294.3345 542,-1280.5 546.8669,-1278.2716 551.9817,-1276.1382 557.1673,-1274.1197"/>
<polygon fill="#191970" stroke="#191970" points="558.3989,-1277.3959 566.5395,-1270.6149 555.947,-1270.8394 558.3989,-1277.3959"/>
</g>
<!-- Node10&#45;&gt;Node12 -->
<g id="edge12" class="edge">
<title>Node10&#45;&gt;Node12</title>
<path fill="none" stroke="#191970" d="M444.9615,-1328.4115C462.132,-1303.332 498.7408,-1255.1405 542,-1229.5 547.3666,-1226.3191 553.2323,-1223.6395 559.2602,-1221.383"/>
<polygon fill="#191970" stroke="#191970" points="560.4515,-1224.6751 568.8174,-1218.1741 558.2234,-1218.0391 560.4515,-1224.6751"/>
</g>
<!-- Node10&#45;&gt;Node13 -->
<g id="edge13" class="edge">
<title>Node10&#45;&gt;Node13</title>
<path fill="none" stroke="#191970" d="M441.2146,-1328.1184C455.0849,-1296.3955 490.0154,-1226.5391 542,-1190.5 547.3531,-1186.7889 553.3415,-1183.7661 559.5565,-1181.3041"/>
<polygon fill="#191970" stroke="#191970" points="561.1464,-1184.4576 569.4509,-1177.8784 558.8561,-1177.8428 561.1464,-1184.4576"/>
</g>
<!-- Node14 -->
<g id="node14" class="node">
<title>Node14</title>
<g id="a_node14"><a xlink:href="../../d6/dfa/classTrkrCluster.html#a7d92784527cb537e382ffa0460e0f728" target="_top" xlink:title="TrkrCluster::getZ">
<polygon fill="none" stroke="#000000" points="569,-1481.5 569,-1501.5 671,-1501.5 671,-1481.5 569,-1481.5"/>
<text text-anchor="middle" x="620" y="-1488.5" font-family="FreeSans" font-size="10.00" fill="#000000">TrkrCluster::getZ</text>
</a>
</g>
</g>
<!-- Node10&#45;&gt;Node14 -->
<g id="edge14" class="edge">
<title>Node10&#45;&gt;Node14</title>
<path fill="none" stroke="#191970" d="M443.4139,-1360.705C459.4004,-1388.1818 495.6487,-1443.7246 542,-1472.5 547.2842,-1475.7805 553.0963,-1478.4946 559.0916,-1480.7402"/>
<polygon fill="#191970" stroke="#191970" points="558.0208,-1484.0725 568.6142,-1483.8973 560.2237,-1477.4281 558.0208,-1484.0725"/>
</g>
<!-- Node15 -->
<g id="node15" class="node">
<title>Node15</title>
<g id="a_node15"><a xlink:href="../../d6/d3f/namespaceTrkrDefs.html#aae37fbdb8f0f6f9b7b1e4173f4fcd331" target="_top" xlink:title="Get the upper 32 bits from cluster keys.">
<polygon fill="none" stroke="#000000" points="542,-1430.5 542,-1462.5 698,-1462.5 698,-1430.5 542,-1430.5"/>
<text text-anchor="start" x="550" y="-1449.5" font-family="FreeSans" font-size="10.00" fill="#000000">TrkrDefs::getHitSetKeyFrom</text>
<text text-anchor="middle" x="620" y="-1437.5" font-family="FreeSans" font-size="10.00" fill="#000000">ClusKey</text>
</a>
</g>
</g>
<!-- Node10&#45;&gt;Node15 -->
<g id="edge16" class="edge">
<title>Node10&#45;&gt;Node15</title>
<path fill="none" stroke="#191970" d="M453.1394,-1360.6335C473.7053,-1377.7437 508.3629,-1404.588 542,-1421.5 545.5434,-1423.2816 549.2406,-1424.9717 553.016,-1426.5691"/>
<polygon fill="#191970" stroke="#191970" points="551.9329,-1429.905 562.5184,-1430.3483 554.5198,-1423.4005 551.9329,-1429.905"/>
</g>
<!-- Node16 -->
<g id="node16" class="node">
<title>Node16</title>
<g id="a_node16"><a xlink:href="../../d7/d4f/classTrkrClusterHitAssoc.html#ad08b0caf69a8f21fbd3d4024488c61b2" target="_top" xlink:title="Get all the hits associated with a cluster by key.">
<polygon fill="none" stroke="#000000" points="562.5,-1379.5 562.5,-1411.5 677.5,-1411.5 677.5,-1379.5 562.5,-1379.5"/>
<text text-anchor="start" x="570.5" y="-1398.5" font-family="FreeSans" font-size="10.00" fill="#000000">TrkrClusterHitAssoc</text>
<text text-anchor="middle" x="620" y="-1386.5" font-family="FreeSans" font-size="10.00" fill="#000000">::getHits</text>
</a>
</g>
</g>
<!-- Node10&#45;&gt;Node16 -->
<g id="edge17" class="edge">
<title>Node10&#45;&gt;Node16</title>
<path fill="none" stroke="#191970" d="M492.9387,-1360.5667C511.9263,-1365.787 533.1472,-1371.6213 552.7261,-1377.0042"/>
<polygon fill="#191970" stroke="#191970" points="551.9203,-1380.4125 562.4904,-1379.6887 553.776,-1373.6629 551.9203,-1380.4125"/>
</g>
<!-- Node17 -->
<g id="node17" class="node">
<title>Node17</title>
<g id="a_node17"><a xlink:href="../../d7/d8d/classTrkrHitTruthAssoc.html#a5dfce5df411c830647e8659c02c1f5e2" target="_top" xlink:title="Get cell keys associated with desired hit.">
<polygon fill="none" stroke="#000000" points="564.5,-1328.5 564.5,-1360.5 675.5,-1360.5 675.5,-1328.5 564.5,-1328.5"/>
<text text-anchor="start" x="572.5" y="-1347.5" font-family="FreeSans" font-size="10.00" fill="#000000">TrkrHitTruthAssoc::</text>
<text text-anchor="middle" x="620" y="-1335.5" font-family="FreeSans" font-size="10.00" fill="#000000">getG4Hits</text>
</a>
</g>
</g>
<!-- Node10&#45;&gt;Node17 -->
<g id="edge18" class="edge">
<title>Node10&#45;&gt;Node17</title>
<path fill="none" stroke="#191970" d="M506.2191,-1344.5C522.0258,-1344.5 538.6926,-1344.5 554.2493,-1344.5"/>
<polygon fill="#191970" stroke="#191970" points="554.2919,-1348.0001 564.2918,-1344.5 554.2918,-1341.0001 554.2919,-1348.0001"/>
</g>
<!-- Node18 -->
<g id="node18" class="node">
<title>Node18</title>
<g id="a_node18"><a xlink:href="../../d4/d30/classPHG4HitContainer.html#a62c24ef9c00bd714f597939598a87041" target="_top" xlink:title="PHG4HitContainer::findHit">
<polygon fill="none" stroke="#000000" points="545.5,-1289.5 545.5,-1309.5 694.5,-1309.5 694.5,-1289.5 545.5,-1289.5"/>
<text text-anchor="middle" x="620" y="-1296.5" font-family="FreeSans" font-size="10.00" fill="#000000">PHG4HitContainer::findHit</text>
</a>
</g>
</g>
<!-- Node10&#45;&gt;Node18 -->
<g id="edge19" class="edge">
<title>Node10&#45;&gt;Node18</title>
<path fill="none" stroke="#191970" d="M500.6841,-1328.4445C523.14,-1322.997 547.8648,-1316.9991 568.9557,-1311.8827"/>
<polygon fill="#191970" stroke="#191970" points="569.7864,-1315.2828 578.6794,-1309.5239 568.1361,-1308.4801 569.7864,-1315.2828"/>
</g>
<!-- Node19 -->
<g id="node19" class="node">
<title>Node19</title>
<g id="a_node19"><a xlink:href="../../d3/d9e/classPHG4Hit.html#a8992f01396d51ebf6c85dd2859e13a6b" target="_top" xlink:title="PHG4Hit::get_layer">
<polygon fill="none" stroke="#000000" points="563.5,-1559.5 563.5,-1579.5 676.5,-1579.5 676.5,-1559.5 563.5,-1559.5"/>
<text text-anchor="middle" x="620" y="-1566.5" font-family="FreeSans" font-size="10.00" fill="#000000">PHG4Hit::get_layer</text>
</a>
</g>
</g>
<!-- Node10&#45;&gt;Node19 -->
<g id="edge20" class="edge">
<title>Node10&#45;&gt;Node19</title>
<path fill="none" stroke="#191970" d="M442.7349,-1360.7116C467.1652,-1408.7496 537.8017,-1547.2121 542,-1550.5 545.616,-1553.3318 549.5935,-1555.7495 553.7795,-1557.8126"/>
<polygon fill="#191970" stroke="#191970" points="552.6425,-1561.1314 563.2171,-1561.786 555.3588,-1554.6799 552.6425,-1561.1314"/>
</g>
<!-- Node20 -->
<g id="node20" class="node">
<title>Node20</title>
<g id="a_node20"><a xlink:href="../../d3/d9e/classPHG4Hit.html#a99663034e71d3f324eb878eb0e3b36ba" target="_top" xlink:title="PHG4Hit::get_avg_x">
<polygon fill="none" stroke="#ff0000" points="561.5,-1520.5 561.5,-1540.5 678.5,-1540.5 678.5,-1520.5 561.5,-1520.5"/>
<text text-anchor="middle" x="620" y="-1527.5" font-family="FreeSans" font-size="10.00" fill="#000000">PHG4Hit::get_avg_x</text>
</a>
</g>
</g>
<!-- Node10&#45;&gt;Node20 -->
<g id="edge21" class="edge">
<title>Node10&#45;&gt;Node20</title>
<path fill="none" stroke="#191970" d="M440.1816,-1360.743C452.8382,-1394.4422 486.6723,-1472.0933 542,-1511.5 545.0758,-1513.6907 548.3742,-1515.6306 551.8137,-1517.3481"/>
<polygon fill="#191970" stroke="#191970" points="550.6233,-1520.6463 561.1917,-1521.3948 553.3967,-1514.2191 550.6233,-1520.6463"/>
</g>
<!-- Node10&#45;&gt;Node21 -->
<g id="edge22" class="edge">
<title>Node10&#45;&gt;Node21</title>
<path fill="none" stroke="#191970" d="M438.7202,-1328.3988C449.3396,-1291.1633 480.7955,-1198.6881 542,-1151.5 544.6571,-1149.4514 547.5015,-1147.6111 550.4748,-1145.9581"/>
<polygon fill="#191970" stroke="#191970" points="552.2085,-1149.0089 559.7228,-1141.5399 549.1909,-1142.6927 552.2085,-1149.0089"/>
</g>
<!-- Node10&#45;&gt;Node22 -->
<g id="edge23" class="edge">
<title>Node10&#45;&gt;Node22</title>
<path fill="none" stroke="#191970" d="M437.0993,-1328.4085C444.8016,-1286.1281 471.5316,-1171.1289 542,-1112.5 544.3945,-1110.5078 546.963,-1108.7109 549.6572,-1107.0904"/>
<polygon fill="#191970" stroke="#191970" points="551.3268,-1110.1677 558.6298,-1102.4919 548.1341,-1103.9381 551.3268,-1110.1677"/>
</g>
<!-- Node10&#45;&gt;Node23 -->
<g id="edge24" class="edge">
<title>Node10&#45;&gt;Node23</title>
<path fill="none" stroke="#191970" d="M435.9392,-1328.1996C440.9964,-1281.1065 462.2352,-1143.7531 542,-1073.5 544.3883,-1071.3965 546.9687,-1069.5089 549.6881,-1067.8156"/>
<polygon fill="#191970" stroke="#191970" points="551.5542,-1070.7889 558.7812,-1063.0416 548.3003,-1064.5912 551.5542,-1070.7889"/>
</g>
<!-- Node38 -->
<g id="node38" class="node">
<title>Node38</title>
<g id="a_node38"><a xlink:href="../../d9/d62/classSvtxHitEval.html#a2b8bd81cd1feca366d3dec9b52f1658e" target="_top" xlink:title="SvtxHitEval::next_event">
<polygon fill="none" stroke="#ff0000" points="365.5,-481.5 365.5,-501.5 503.5,-501.5 503.5,-481.5 365.5,-481.5"/>
<text text-anchor="middle" x="434.5" y="-488.5" font-family="FreeSans" font-size="10.00" fill="#000000">SvtxHitEval::next_event</text>
</a>
</g>
</g>
<!-- Node37&#45;&gt;Node38 -->
<g id="edge45" class="edge">
<title>Node37&#45;&gt;Node38</title>
<path fill="none" stroke="#191970" d="M305.7043,-476.7036C321.5125,-478.5197 338.6905,-480.4932 355.1963,-482.3894"/>
<polygon fill="#191970" stroke="#191970" points="355.0342,-485.8937 365.3683,-483.558 355.8332,-478.9394 355.0342,-485.8937"/>
</g>
<!-- Node39 -->
<g id="node39" class="node">
<title>Node39</title>
<g id="a_node39"><a xlink:href="../../d1/d1e/classSvtxClusterEval.html#ab52efb29db696d2e8e6e5cb2ecfc08bc" target="_top" xlink:title="SvtxClusterEval::get\l_node_pointers">
<polygon fill="none" stroke="#000000" points="374.5,-430.5 374.5,-462.5 494.5,-462.5 494.5,-430.5 374.5,-430.5"/>
<text text-anchor="start" x="382.5" y="-449.5" font-family="FreeSans" font-size="10.00" fill="#000000">SvtxClusterEval::get</text>
<text text-anchor="middle" x="434.5" y="-437.5" font-family="FreeSans" font-size="10.00" fill="#000000">_node_pointers</text>
</a>
</g>
</g>
<!-- Node37&#45;&gt;Node39 -->
<g id="edge46" class="edge">
<title>Node37&#45;&gt;Node39</title>
<path fill="none" stroke="#191970" d="M305.7043,-461.9689C324.3818,-459.7257 344.9715,-457.2528 364.1055,-454.9547"/>
<polygon fill="#191970" stroke="#191970" points="364.7501,-458.4025 374.2613,-453.7349 363.9153,-451.4525 364.7501,-458.4025"/>
</g>
</g>
</svg>
