<?xml version="1.0" encoding="UTF-8" standalone="no"?>
<!DOCTYPE svg PUBLIC "-//W3C//DTD SVG 1.1//EN"
 "http://www.w3.org/Graphics/SVG/1.1/DTD/svg11.dtd">
<!-- Generated by graphviz version 2.40.1 (20161225.0304)
 -->
<!-- Title: TpcClusterCleaner Pages: 1 -->
<svg width="331pt" height="376pt"
 viewBox="0.00 0.00 330.50 376.00" xmlns="http://www.w3.org/2000/svg" xmlns:xlink="http://www.w3.org/1999/xlink">
<g id="graph0" class="graph" transform="scale(1 1) rotate(0) translate(4 372)">
<title>TpcClusterCleaner</title>
<!-- Node1 -->
<g id="node1" class="node">
<title>Node1</title>
<polygon fill="#bfbfbf" stroke="#000000" points="56,-.5 56,-20.5 167,-20.5 167,-.5 56,-.5"/>
<text text-anchor="middle" x="111.5" y="-7.5" font-family="FreeSans" font-size="10.00" fill="#000000">TpcClusterCleaner</text>
</g>
<!-- Node2 -->
<g id="node2" class="node">
<title>Node2</title>
<g id="a_node2"><a xlink:href="../../d0/d32/classSubsysReco.html" target="_top" xlink:title="SubsysReco">
<polygon fill="none" stroke="#000000" points="15.5,-69.5 15.5,-89.5 91.5,-89.5 91.5,-69.5 15.5,-69.5"/>
<text text-anchor="middle" x="53.5" y="-76.5" font-family="FreeSans" font-size="10.00" fill="#000000">SubsysReco</text>
</a>
</g>
</g>
<!-- Node2&#45;&gt;Node1 -->
<g id="edge1" class="edge">
<title>Node2&#45;&gt;Node1</title>
<path fill="none" stroke="#191970" d="M68.6459,-61.4815C79.5605,-48.4969 93.8975,-31.4409 102.9068,-20.723"/>
<polygon fill="#191970" stroke="#191970" points="65.8134,-59.4118 62.0581,-69.3188 71.1719,-63.916 65.8134,-59.4118"/>
</g>
<!-- Node3 -->
<g id="node3" class="node">
<title>Node3</title>
<g id="a_node3"><a xlink:href="../../d5/dec/classFun4AllBase.html" target="_top" xlink:title="Fun4AllBase">
<polygon fill="none" stroke="#000000" points="14.5,-144.5 14.5,-164.5 92.5,-164.5 92.5,-144.5 14.5,-144.5"/>
<text text-anchor="middle" x="53.5" y="-151.5" font-family="FreeSans" font-size="10.00" fill="#000000">Fun4AllBase</text>
</a>
</g>
</g>
<!-- Node3&#45;&gt;Node2 -->
<g id="edge2" class="edge">
<title>Node3&#45;&gt;Node2</title>
<path fill="none" stroke="#191970" d="M53.5,-134.0481C53.5,-119.77 53.5,-101.303 53.5,-89.9358"/>
<polygon fill="#191970" stroke="#191970" points="50.0001,-134.3851 53.5,-144.3852 57.0001,-134.3852 50.0001,-134.3851"/>
</g>
<!-- Node4 -->
<g id="node4" class="node">
<title>Node4</title>
<g id="a_node4"><a xlink:title="STL class.">
<polygon fill="none" stroke="#bfbfbf" points="20,-219.5 20,-239.5 87,-239.5 87,-219.5 20,-219.5"/>
<text text-anchor="middle" x="53.5" y="-226.5" font-family="FreeSans" font-size="10.00" fill="#000000">std::string</text>
</a>
</g>
</g>
<!-- Node4&#45;&gt;Node3 -->
<g id="edge3" class="edge">
<title>Node4&#45;&gt;Node3</title>
<path fill="none" stroke="#9a32cd" stroke-dasharray="5,2" d="M53.5,-209.0481C53.5,-194.77 53.5,-176.303 53.5,-164.9358"/>
<polygon fill="#9a32cd" stroke="#9a32cd" points="50.0001,-209.3851 53.5,-219.3852 57.0001,-209.3852 50.0001,-209.3851"/>
<text text-anchor="middle" x="88.5" y="-192" font-family="FreeSans" font-size="10.00" fill="#000000"> m_ThisName</text>
</g>
<!-- Node5 -->
<g id="node5" class="node">
<title>Node5</title>
<g id="a_node5"><a xlink:title="STL class.">
<polygon fill="none" stroke="#bfbfbf" points="0,-277.5 0,-309.5 107,-309.5 107,-277.5 0,-277.5"/>
<text text-anchor="start" x="8" y="-296.5" font-family="FreeSans" font-size="10.00" fill="#000000">std::basic_string&lt;</text>
<text text-anchor="middle" x="53.5" y="-284.5" font-family="FreeSans" font-size="10.00" fill="#000000"> char &gt;</text>
</a>
</g>
</g>
<!-- Node5&#45;&gt;Node4 -->
<g id="edge4" class="edge">
<title>Node5&#45;&gt;Node4</title>
<path fill="none" stroke="#191970" d="M53.5,-267.2639C53.5,-257.5394 53.5,-247.0805 53.5,-239.641"/>
<polygon fill="#191970" stroke="#191970" points="50.0001,-267.3501 53.5,-277.3501 57.0001,-267.3501 50.0001,-267.3501"/>
</g>
<!-- Node6 -->
<g id="node6" class="node">
<title>Node6</title>
<g id="a_node6"><a xlink:href="../../d0/d2c/classTrkrClusterContainer.html" target="_top" xlink:title="Cluster container object.">
<polygon fill="none" stroke="#000000" points="109.5,-69.5 109.5,-89.5 231.5,-89.5 231.5,-69.5 109.5,-69.5"/>
<text text-anchor="middle" x="170.5" y="-76.5" font-family="FreeSans" font-size="10.00" fill="#000000">TrkrClusterContainer</text>
</a>
</g>
</g>
<!-- Node6&#45;&gt;Node1 -->
<g id="edge5" class="edge">
<title>Node6&#45;&gt;Node1</title>
<path fill="none" stroke="#9a32cd" stroke-dasharray="5,2" d="M155.0929,-61.4815C143.9901,-48.4969 129.406,-31.4409 120.2414,-20.723"/>
<polygon fill="#9a32cd" stroke="#9a32cd" points="152.6353,-63.9931 161.7943,-69.3188 157.9556,-59.4438 152.6353,-63.9931"/>
<text text-anchor="middle" x="180" y="-42" font-family="FreeSans" font-size="10.00" fill="#000000"> _cluster_map</text>
</g>
<!-- Node7 -->
<g id="node7" class="node">
<title>Node7</title>
<g id="a_node7"><a xlink:href="../../d9/d24/classPHObject.html" target="_top" xlink:title="PHObject">
<polygon fill="none" stroke="#000000" points="146,-283.5 146,-303.5 209,-303.5 209,-283.5 146,-283.5"/>
<text text-anchor="middle" x="177.5" y="-290.5" font-family="FreeSans" font-size="10.00" fill="#000000">PHObject</text>
</a>
</g>
</g>
<!-- Node7&#45;&gt;Node6 -->
<g id="edge6" class="edge">
<title>Node7&#45;&gt;Node6</title>
<path fill="none" stroke="#191970" d="M176.8389,-273.288C175.3795,-228.672 171.9257,-123.0842 170.8357,-89.7619"/>
<polygon fill="#191970" stroke="#191970" points="173.3466,-273.5852 177.1718,-283.4654 180.3429,-273.3563 173.3466,-273.5852"/>
</g>
<!-- Node10 -->
<g id="node10" class="node">
<title>Node10</title>
<g id="a_node10"><a xlink:href="../../d6/dfa/classTrkrCluster.html" target="_top" xlink:title="Base class for cluster object.">
<polygon fill="none" stroke="#000000" points="199.5,-219.5 199.5,-239.5 271.5,-239.5 271.5,-219.5 199.5,-219.5"/>
<text text-anchor="middle" x="235.5" y="-226.5" font-family="FreeSans" font-size="10.00" fill="#000000">TrkrCluster</text>
</a>
</g>
</g>
<!-- Node7&#45;&gt;Node10 -->
<g id="edge10" class="edge">
<title>Node7&#45;&gt;Node10</title>
<path fill="none" stroke="#191970" d="M193.589,-275.7466C204.1672,-264.0742 217.6251,-249.224 226.3956,-239.5462"/>
<polygon fill="#191970" stroke="#191970" points="190.9405,-273.4571 186.8187,-283.2173 196.1274,-278.1577 190.9405,-273.4571"/>
</g>
<!-- Node8 -->
<g id="node8" class="node">
<title>Node8</title>
<g id="a_node8"><a xlink:href="../../d5/d0f/classTObject.html" target="_top" xlink:title="TObject">
<polygon fill="none" stroke="#000000" points="149,-347.5 149,-367.5 206,-367.5 206,-347.5 149,-347.5"/>
<text text-anchor="middle" x="177.5" y="-354.5" font-family="FreeSans" font-size="10.00" fill="#000000">TObject</text>
</a>
</g>
</g>
<!-- Node8&#45;&gt;Node7 -->
<g id="edge7" class="edge">
<title>Node8&#45;&gt;Node7</title>
<path fill="none" stroke="#191970" d="M177.5,-337.0004C177.5,-325.8201 177.5,-312.4796 177.5,-303.5462"/>
<polygon fill="#191970" stroke="#191970" points="174.0001,-337.2173 177.5,-347.2173 181.0001,-337.2173 174.0001,-337.2173"/>
</g>
<!-- Node9 -->
<g id="node9" class="node">
<title>Node9</title>
<polygon fill="none" stroke="#bfbfbf" points="182.5,-138.5 182.5,-170.5 322.5,-170.5 322.5,-138.5 182.5,-138.5"/>
<text text-anchor="start" x="190.5" y="-157.5" font-family="FreeSans" font-size="10.00" fill="#000000">std::map&lt; TrkrDefs</text>
<text text-anchor="middle" x="252.5" y="-145.5" font-family="FreeSans" font-size="10.00" fill="#000000">::cluskey, TrkrCluster * &gt;</text>
</g>
<!-- Node9&#45;&gt;Node6 -->
<g id="edge8" class="edge">
<title>Node9&#45;&gt;Node6</title>
<path fill="none" stroke="#9a32cd" stroke-dasharray="5,2" d="M227.0706,-131.2414C211.7684,-117.2455 193.0676,-100.1411 181.4685,-89.5322"/>
<polygon fill="#9a32cd" stroke="#9a32cd" points="224.966,-134.0597 234.7072,-138.2261 229.6904,-128.8943 224.966,-134.0597"/>
<text text-anchor="middle" x="244.5" y="-111" font-family="FreeSans" font-size="10.00" fill="#000000"> m_clusmap</text>
</g>
<!-- Node10&#45;&gt;Node9 -->
<g id="edge9" class="edge">
<title>Node10&#45;&gt;Node9</title>
<path fill="none" stroke="#9a32cd" stroke-dasharray="5,2" d="M240.0678,-209.3477C242.8085,-197.2564 246.2488,-182.0788 248.8152,-170.7566"/>
<polygon fill="#9a32cd" stroke="#9a32cd" points="236.5899,-208.8588 237.7927,-219.3852 243.4168,-210.4063 236.5899,-208.8588"/>
<text text-anchor="middle" x="270" y="-192" font-family="FreeSans" font-size="10.00" fill="#000000"> elements</text>
</g>
</g>
</svg>
