<?xml version="1.0" encoding="UTF-8" standalone="no"?>
<!DOCTYPE svg PUBLIC "-//W3C//DTD SVG 1.1//EN"
 "http://www.w3.org/Graphics/SVG/1.1/DTD/svg11.dtd">
<!-- Generated by graphviz version 2.40.1 (20161225.0304)
 -->
<!-- Title: PHG4MvtxDetector::ConstructMe Pages: 1 -->
<svg width="1058pt" height="831pt"
 viewBox="0.00 0.00 1058.00 831.24" xmlns="http://www.w3.org/2000/svg" xmlns:xlink="http://www.w3.org/1999/xlink">
<g id="graph0" class="graph" transform="scale(1 1) rotate(0) translate(4 827.2416)">
<title>PHG4MvtxDetector::ConstructMe</title>
<!-- Node1 -->
<g id="node1" class="node">
<title>Node1</title>
<polygon fill="#bfbfbf" stroke="#000000" points="0,-451.7416 0,-471.7416 182,-471.7416 182,-451.7416 0,-451.7416"/>
<text text-anchor="middle" x="91" y="-458.7416" font-family="FreeSans" font-size="10.00" fill="#000000">PHG4MvtxDetector::ConstructMe</text>
</g>
<!-- Node2 -->
<g id="node2" class="node">
<title>Node2</title>
<g id="a_node2"><a xlink:href="../../d4/dc1/classPHG4MvtxDetector.html#aeaa7d4f1829031ef0c70b64add0a9b33" target="_top" xlink:title="PHG4MvtxDetector::AddGeometryNode">
<polygon fill="none" stroke="#000000" points="446,-596.7416 446,-616.7416 661,-616.7416 661,-596.7416 446,-596.7416"/>
<text text-anchor="middle" x="553.5" y="-603.7416" font-family="FreeSans" font-size="10.00" fill="#000000">PHG4MvtxDetector::AddGeometryNode</text>
</a>
</g>
</g>
<!-- Node1&#45;&gt;Node2 -->
<g id="edge1" class="edge">
<title>Node1&#45;&gt;Node2</title>
<path fill="none" stroke="#191970" d="M109.4514,-471.8522C133.7464,-484.8368 178.0659,-507.4019 218,-521.7416 310.7879,-555.0604 422.4543,-580.5863 490.6837,-594.6217"/>
<polygon fill="#191970" stroke="#191970" points="490.3419,-598.1239 500.8395,-596.6919 491.7401,-591.265 490.3419,-598.1239"/>
</g>
<!-- Node14 -->
<g id="node14" class="node">
<title>Node14</title>
<g id="a_node14"><a xlink:href="../../d3/de7/classPHG4Detector.html#af5eefc46de6e61b788946ca0d0a7427c" target="_top" xlink:title="PHG4Detector::Verbosity">
<polygon fill="none" stroke="#000000" points="908,-329.7416 908,-349.7416 1050,-349.7416 1050,-329.7416 908,-329.7416"/>
<text text-anchor="middle" x="979" y="-336.7416" font-family="FreeSans" font-size="10.00" fill="#000000">PHG4Detector::Verbosity</text>
</a>
</g>
</g>
<!-- Node1&#45;&gt;Node14 -->
<g id="edge39" class="edge">
<title>Node1&#45;&gt;Node14</title>
<path fill="none" stroke="#191970" d="M154.809,-471.7734C318.2388,-496.2431 747.741,-552.4885 872,-488.7416 925.4386,-461.3268 958.2115,-393.4421 971.7657,-359.5921"/>
<polygon fill="#191970" stroke="#191970" points="975.1732,-360.4822 975.493,-349.8922 968.6389,-357.9713 975.1732,-360.4822"/>
</g>
<!-- Node15 -->
<g id="node15" class="node">
<title>Node15</title>
<g id="a_node15"><a xlink:href="../../d4/dc1/classPHG4MvtxDetector.html#a33f6748b3b46bcdfdec6ed025f23a3be" target="_top" xlink:title="PHG4MvtxDetector::ConstructMvtx">
<polygon fill="none" stroke="#000000" points="218,-384.7416 218,-404.7416 410,-404.7416 410,-384.7416 218,-384.7416"/>
<text text-anchor="middle" x="314" y="-391.7416" font-family="FreeSans" font-size="10.00" fill="#000000">PHG4MvtxDetector::ConstructMvtx</text>
</a>
</g>
</g>
<!-- Node1&#45;&gt;Node15 -->
<g id="edge16" class="edge">
<title>Node1&#45;&gt;Node15</title>
<path fill="none" stroke="#191970" d="M124.3854,-451.7111C163.3873,-439.993 228.0151,-420.5757 270.8066,-407.719"/>
<polygon fill="#191970" stroke="#191970" points="271.8165,-411.0703 280.3864,-404.8408 269.8022,-404.3663 271.8165,-411.0703"/>
</g>
<!-- Node27 -->
<g id="node27" class="node">
<title>Node27</title>
<g id="a_node27"><a xlink:href="../../d4/dc1/classPHG4MvtxDetector.html#ab59e4aed55e51d4757ba5a64b4998f76" target="_top" xlink:title="PHG4MvtxDetector::Construct\lMvtxPassiveVol">
<polygon fill="none" stroke="#000000" points="230,-113.7416 230,-145.7416 398,-145.7416 398,-113.7416 230,-113.7416"/>
<text text-anchor="start" x="238" y="-132.7416" font-family="FreeSans" font-size="10.00" fill="#000000">PHG4MvtxDetector::Construct</text>
<text text-anchor="middle" x="314" y="-120.7416" font-family="FreeSans" font-size="10.00" fill="#000000">MvtxPassiveVol</text>
</a>
</g>
</g>
<!-- Node1&#45;&gt;Node27 -->
<g id="edge33" class="edge">
<title>Node1&#45;&gt;Node27</title>
<path fill="none" stroke="#191970" d="M97.9185,-451.4415C128.5314,-405.8653 252.2805,-221.629 297.4193,-154.4269"/>
<polygon fill="#191970" stroke="#191970" points="300.5785,-156.0005 303.2489,-145.7477 294.7677,-152.0974 300.5785,-156.0005"/>
</g>
<!-- Node3 -->
<g id="node3" class="node">
<title>Node3</title>
<g id="a_node3"><a xlink:href="../../d4/de7/classPHG4CylinderGeomContainer.html#a3ddfc417362ea09b1d729976dc7fb570" target="_top" xlink:title="PHG4CylinderGeomContainer\l::AddLayerGeom">
<polygon fill="none" stroke="#000000" points="701.5,-780.7416 701.5,-812.7416 867.5,-812.7416 867.5,-780.7416 701.5,-780.7416"/>
<text text-anchor="start" x="709.5" y="-799.7416" font-family="FreeSans" font-size="10.00" fill="#000000">PHG4CylinderGeomContainer</text>
<text text-anchor="middle" x="784.5" y="-787.7416" font-family="FreeSans" font-size="10.00" fill="#000000">::AddLayerGeom</text>
</a>
</g>
</g>
<!-- Node2&#45;&gt;Node3 -->
<g id="edge2" class="edge">
<title>Node2&#45;&gt;Node3</title>
<path fill="none" stroke="#191970" d="M561.6455,-616.9701C582.2075,-642.3062 638.7387,-709.0118 697,-751.7416 709.423,-760.8529 723.9526,-769.1295 737.5628,-776.0287"/>
<polygon fill="#191970" stroke="#191970" points="736.2836,-779.3001 746.8011,-780.5783 739.3763,-773.0203 736.2836,-779.3001"/>
</g>
<!-- Node5 -->
<g id="node5" class="node">
<title>Node5</title>
<g id="a_node5"><a xlink:href="../../d5/dca/classPHCompositeNode.html#a15a0c4804399a9de4267647f05bd1ba4" target="_top" xlink:title="PHCompositeNode::addNode">
<polygon fill="none" stroke="#000000" points="703.5,-721.7416 703.5,-741.7416 865.5,-741.7416 865.5,-721.7416 703.5,-721.7416"/>
<text text-anchor="middle" x="784.5" y="-728.7416" font-family="FreeSans" font-size="10.00" fill="#000000">PHCompositeNode::addNode</text>
</a>
</g>
</g>
<!-- Node2&#45;&gt;Node5 -->
<g id="edge4" class="edge">
<title>Node2&#45;&gt;Node5</title>
<path fill="none" stroke="#191970" d="M563.9952,-617.0282C586.3997,-638.3737 641.4117,-687.5821 697,-712.7416 701.9567,-714.9851 707.1936,-716.9702 712.5414,-718.7258"/>
<polygon fill="#191970" stroke="#191970" points="711.6665,-722.1174 722.2508,-721.644 713.6814,-715.4136 711.6665,-722.1174"/>
</g>
<!-- Node9 -->
<g id="node9" class="node">
<title>Node9</title>
<g id="a_node9"><a xlink:href="../../d5/d07/classPHNodeIterator.html#aea98bf8619af59b1212a94fb32106baa" target="_top" xlink:title="PHNodeIterator::findFirst">
<polygon fill="none" stroke="#000000" points="714,-664.7416 714,-684.7416 855,-684.7416 855,-664.7416 714,-664.7416"/>
<text text-anchor="middle" x="784.5" y="-671.7416" font-family="FreeSans" font-size="10.00" fill="#000000">PHNodeIterator::findFirst</text>
</a>
</g>
</g>
<!-- Node2&#45;&gt;Node9 -->
<g id="edge8" class="edge">
<title>Node2&#45;&gt;Node9</title>
<path fill="none" stroke="#191970" d="M579.9249,-616.7906C608.5002,-627.4148 655.5336,-644.2013 697,-655.7416 705.4871,-658.1036 714.5046,-660.351 723.4018,-662.4187"/>
<polygon fill="#191970" stroke="#191970" points="722.8351,-665.8789 733.3612,-664.6734 724.3808,-659.0517 722.8351,-665.8789"/>
</g>
<!-- Node11 -->
<g id="node11" class="node">
<title>Node11</title>
<g id="a_node11"><a xlink:href="../../d4/dc1/classPHG4MvtxDetector.html#a89d95130b6cfd5c97851a38e4a2a06ed" target="_top" xlink:title="PHG4MvtxDetector::get\l_phistep">
<polygon fill="none" stroke="#000000" points="716.5,-446.7416 716.5,-478.7416 852.5,-478.7416 852.5,-446.7416 716.5,-446.7416"/>
<text text-anchor="start" x="724.5" y="-465.7416" font-family="FreeSans" font-size="10.00" fill="#000000">PHG4MvtxDetector::get</text>
<text text-anchor="middle" x="784.5" y="-453.7416" font-family="FreeSans" font-size="10.00" fill="#000000">_phistep</text>
</a>
</g>
</g>
<!-- Node2&#45;&gt;Node11 -->
<g id="edge12" class="edge">
<title>Node2&#45;&gt;Node11</title>
<path fill="none" stroke="#191970" d="M569.7435,-596.6158C607.0421,-573.3648 699.4886,-515.7358 750.0748,-484.2015"/>
<polygon fill="#191970" stroke="#191970" points="752.0783,-487.077 758.7129,-478.8167 748.3752,-481.1367 752.0783,-487.077"/>
</g>
<!-- Node12 -->
<g id="node12" class="node">
<title>Node12</title>
<g id="a_node12"><a xlink:href="../../d4/de7/classPHG4CylinderGeomContainer.html#a56fb6523222fa2cc80643c43a523bc95" target="_top" xlink:title="PHG4CylinderGeomContainer\l::identify">
<polygon fill="none" stroke="#000000" points="701.5,-613.7416 701.5,-645.7416 867.5,-645.7416 867.5,-613.7416 701.5,-613.7416"/>
<text text-anchor="start" x="709.5" y="-632.7416" font-family="FreeSans" font-size="10.00" fill="#000000">PHG4CylinderGeomContainer</text>
<text text-anchor="middle" x="784.5" y="-620.7416" font-family="FreeSans" font-size="10.00" fill="#000000">::identify</text>
</a>
</g>
</g>
<!-- Node2&#45;&gt;Node12 -->
<g id="edge13" class="edge">
<title>Node2&#45;&gt;Node12</title>
<path fill="none" stroke="#191970" d="M654.148,-616.7629C666.4961,-617.9923 679.0745,-619.2447 691.306,-620.4626"/>
<polygon fill="#191970" stroke="#191970" points="691.1885,-623.9681 701.4861,-621.4762 691.8821,-617.0026 691.1885,-623.9681"/>
</g>
<!-- Node13 -->
<g id="node13" class="node">
<title>Node13</title>
<g id="a_node13"><a xlink:href="../../d3/de7/classPHG4Detector.html#a3524241bcf8984af140ba78a3e6925a6" target="_top" xlink:title="PHG4Detector::topNode">
<polygon fill="none" stroke="#000000" points="716,-574.7416 716,-594.7416 853,-594.7416 853,-574.7416 716,-574.7416"/>
<text text-anchor="middle" x="784.5" y="-581.7416" font-family="FreeSans" font-size="10.00" fill="#000000">PHG4Detector::topNode</text>
</a>
</g>
</g>
<!-- Node2&#45;&gt;Node13 -->
<g id="edge14" class="edge">
<title>Node2&#45;&gt;Node13</title>
<path fill="none" stroke="#191970" d="M658.5231,-596.7395C674.3075,-595.2362 690.355,-593.7078 705.4734,-592.268"/>
<polygon fill="#191970" stroke="#191970" points="706.1538,-595.7191 715.7769,-591.2867 705.4901,-588.7506 706.1538,-595.7191"/>
</g>
<!-- Node2&#45;&gt;Node14 -->
<g id="edge15" class="edge">
<title>Node2&#45;&gt;Node14</title>
<path fill="none" stroke="#191970" d="M587.6279,-596.6584C616.6489,-588.1639 659.4643,-575.8199 697,-565.7416 774.4552,-544.9451 807.8083,-569.8169 872,-521.7416 928.608,-479.3461 960.669,-397.4656 973.0274,-359.7065"/>
<polygon fill="#191970" stroke="#191970" points="976.4518,-360.4843 976.1159,-349.8948 969.7748,-358.3825 976.4518,-360.4843"/>
</g>
<!-- Node4 -->
<g id="node4" class="node">
<title>Node4</title>
<g id="a_node4"><a xlink:href="../../dc/d30/classPHG4CylinderGeom.html#a895b261e61edef72e564ced68e55ab66" target="_top" xlink:title="PHG4CylinderGeom::set\l_layer">
<polygon fill="none" stroke="#000000" points="909.5,-790.7416 909.5,-822.7416 1048.5,-822.7416 1048.5,-790.7416 909.5,-790.7416"/>
<text text-anchor="start" x="917.5" y="-809.7416" font-family="FreeSans" font-size="10.00" fill="#000000">PHG4CylinderGeom::set</text>
<text text-anchor="middle" x="979" y="-797.7416" font-family="FreeSans" font-size="10.00" fill="#000000">_layer</text>
</a>
</g>
</g>
<!-- Node3&#45;&gt;Node4 -->
<g id="edge3" class="edge">
<title>Node3&#45;&gt;Node4</title>
<path fill="none" stroke="#191970" d="M867.5497,-801.0116C878.0038,-801.549 888.6818,-802.098 899.0861,-802.633"/>
<polygon fill="#191970" stroke="#191970" points="899.2142,-806.1441 909.3808,-803.1623 899.5737,-799.1533 899.2142,-806.1441"/>
</g>
<!-- Node6 -->
<g id="node6" class="node">
<title>Node6</title>
<g id="a_node6"><a xlink:href="../../d6/d86/classPHPointerList.html#ac2176735e9d046a034f1686fd2c477eb" target="_top" xlink:title="PHPointerList::append">
<polygon fill="none" stroke="#000000" points="915,-712.7416 915,-732.7416 1043,-732.7416 1043,-712.7416 915,-712.7416"/>
<text text-anchor="middle" x="979" y="-719.7416" font-family="FreeSans" font-size="10.00" fill="#000000">PHPointerList::append</text>
</a>
</g>
</g>
<!-- Node5&#45;&gt;Node6 -->
<g id="edge5" class="edge">
<title>Node5&#45;&gt;Node6</title>
<path fill="none" stroke="#191970" d="M865.5771,-727.99C878.5723,-727.3887 891.964,-726.769 904.7885,-726.1756"/>
<polygon fill="#191970" stroke="#191970" points="905.106,-729.6647 914.9335,-725.7062 904.7823,-722.6722 905.106,-729.6647"/>
</g>
<!-- Node7 -->
<g id="node7" class="node">
<title>Node7</title>
<g id="a_node7"><a xlink:href="../../dc/d82/classPHNode.html#aca3576f926a4401eddc3d88bf0ce0de3" target="_top" xlink:title="PHNode::getName">
<polygon fill="none" stroke="#000000" points="924.5,-673.7416 924.5,-693.7416 1033.5,-693.7416 1033.5,-673.7416 924.5,-673.7416"/>
<text text-anchor="middle" x="979" y="-680.7416" font-family="FreeSans" font-size="10.00" fill="#000000">PHNode::getName</text>
</a>
</g>
</g>
<!-- Node5&#45;&gt;Node7 -->
<g id="edge6" class="edge">
<title>Node5&#45;&gt;Node7</title>
<path fill="none" stroke="#191970" d="M832.7403,-721.7266C845.5326,-718.9453 859.3141,-715.836 872,-712.7416 892.2877,-707.7931 914.5989,-701.8299 933.574,-696.6011"/>
<polygon fill="#191970" stroke="#191970" points="934.7489,-699.9075 943.4504,-693.8632 932.8788,-693.1619 934.7489,-699.9075"/>
</g>
<!-- Node8 -->
<g id="node8" class="node">
<title>Node8</title>
<g id="a_node8"><a xlink:href="../../dc/d82/classPHNode.html#adda2bd6cef2d5067bbe3016a990b7198" target="_top" xlink:title="PHNode::setParent">
<polygon fill="none" stroke="#000000" points="923.5,-751.7416 923.5,-771.7416 1034.5,-771.7416 1034.5,-751.7416 923.5,-751.7416"/>
<text text-anchor="middle" x="979" y="-758.7416" font-family="FreeSans" font-size="10.00" fill="#000000">PHNode::setParent</text>
</a>
</g>
</g>
<!-- Node5&#45;&gt;Node8 -->
<g id="edge7" class="edge">
<title>Node5&#45;&gt;Node8</title>
<path fill="none" stroke="#191970" d="M849.5361,-741.7729C870.1304,-744.9494 892.8976,-748.4611 913.5227,-751.6423"/>
<polygon fill="#191970" stroke="#191970" points="913.0401,-755.1092 923.4568,-753.1746 914.1073,-748.191 913.0401,-755.1092"/>
</g>
<!-- Node9&#45;&gt;Node7 -->
<g id="edge10" class="edge">
<title>Node9&#45;&gt;Node7</title>
<path fill="none" stroke="#191970" d="M855.2692,-678.0163C874.604,-678.911 895.4505,-679.8756 914.4205,-680.7534"/>
<polygon fill="#191970" stroke="#191970" points="914.2959,-684.2513 924.447,-681.2173 914.6195,-677.2588 914.2959,-684.2513"/>
</g>
<!-- Node9&#45;&gt;Node9 -->
<g id="edge11" class="edge">
<title>Node9&#45;&gt;Node9</title>
<path fill="none" stroke="#191970" d="M754.1283,-684.9687C740.2745,-693.8483 750.3984,-703.2416 784.5,-703.2416 807.9448,-703.2416 820.0565,-698.8018 820.8349,-693.1415"/>
<polygon fill="#191970" stroke="#191970" points="823.5934,-690.984 814.8717,-684.9687 817.9386,-695.11 823.5934,-690.984"/>
</g>
<!-- Node10 -->
<g id="node10" class="node">
<title>Node10</title>
<g id="a_node10"><a xlink:href="../../dc/d82/classPHNode.html#a4ab1f90aed955a652813bfe377087bda" target="_top" xlink:title="PHNode::getType">
<polygon fill="none" stroke="#000000" points="927.5,-634.7416 927.5,-654.7416 1030.5,-654.7416 1030.5,-634.7416 927.5,-634.7416"/>
<text text-anchor="middle" x="979" y="-641.7416" font-family="FreeSans" font-size="10.00" fill="#000000">PHNode::getType</text>
</a>
</g>
</g>
<!-- Node9&#45;&gt;Node10 -->
<g id="edge9" class="edge">
<title>Node9&#45;&gt;Node10</title>
<path fill="none" stroke="#191970" d="M849.5361,-664.7104C871.3681,-661.343 895.6419,-657.5989 917.2171,-654.2711"/>
<polygon fill="#191970" stroke="#191970" points="917.8947,-657.7081 927.2442,-652.7245 916.8275,-650.7899 917.8947,-657.7081"/>
</g>
<!-- Node15&#45;&gt;Node14 -->
<g id="edge17" class="edge">
<title>Node15&#45;&gt;Node14</title>
<path fill="none" stroke="#191970" d="M372.2201,-404.8002C475.0425,-420.4547 694.6827,-444.3885 872,-398.7416 904.0326,-390.4955 936.7394,-370.4065 957.4155,-355.9604"/>
<polygon fill="#191970" stroke="#191970" points="959.6761,-358.6463 965.763,-349.9745 955.5968,-352.9577 959.6761,-358.6463"/>
</g>
<!-- Node16 -->
<g id="node16" class="node">
<title>Node16</title>
<g id="a_node16"><a xlink:href="../../d0/dfa/reader_8C.html#a262d195bd786506862f9ad0d1aeb76cf" target="_top" xlink:title="reader">
<polygon fill="none" stroke="#000000" points="528.5,-158.7416 528.5,-178.7416 578.5,-178.7416 578.5,-158.7416 528.5,-158.7416"/>
<text text-anchor="middle" x="553.5" y="-165.7416" font-family="FreeSans" font-size="10.00" fill="#000000">reader</text>
</a>
</g>
</g>
<!-- Node15&#45;&gt;Node16 -->
<g id="edge18" class="edge">
<title>Node15&#45;&gt;Node16</title>
<path fill="none" stroke="#191970" d="M320.3405,-384.425C337.6958,-356.806 388.532,-279.9491 446,-230.7416 468.9112,-211.1237 498.9135,-194.4204 521.399,-183.3111"/>
<polygon fill="#191970" stroke="#191970" points="523.0499,-186.4006 530.5328,-178.9002 520.0058,-180.0972 523.0499,-186.4006"/>
</g>
<!-- Node19 -->
<g id="node19" class="node">
<title>Node19</title>
<g id="a_node19"><a xlink:href="../../d4/dc1/classPHG4MvtxDetector.html#a976b17c3d855489475bd7caabca7a9e7" target="_top" xlink:title="PHG4MvtxDetector::Construct\lMvtx_Layer">
<polygon fill="none" stroke="#000000" points="469.5,-356.7416 469.5,-388.7416 637.5,-388.7416 637.5,-356.7416 469.5,-356.7416"/>
<text text-anchor="start" x="477.5" y="-375.7416" font-family="FreeSans" font-size="10.00" fill="#000000">PHG4MvtxDetector::Construct</text>
<text text-anchor="middle" x="553.5" y="-363.7416" font-family="FreeSans" font-size="10.00" fill="#000000">Mvtx_Layer</text>
</a>
</g>
</g>
<!-- Node15&#45;&gt;Node19 -->
<g id="edge21" class="edge">
<title>Node15&#45;&gt;Node19</title>
<path fill="none" stroke="#191970" d="M410.0338,-385.9202C426.3072,-384.4253 443.1893,-382.8746 459.412,-381.3844"/>
<polygon fill="#191970" stroke="#191970" points="459.7785,-384.8655 469.4164,-380.4654 459.1382,-377.8949 459.7785,-384.8655"/>
</g>
<!-- Node22 -->
<g id="node22" class="node">
<title>Node22</title>
<g id="a_node22"><a xlink:href="../../d4/dc1/classPHG4MvtxDetector.html#aa3de034ca7d3d77e44267c4778cbdf82" target="_top" xlink:title="PHG4MvtxDetector::FillPVArray">
<polygon fill="none" stroke="#000000" points="467.5,-239.7416 467.5,-259.7416 639.5,-259.7416 639.5,-239.7416 467.5,-239.7416"/>
<text text-anchor="middle" x="553.5" y="-246.7416" font-family="FreeSans" font-size="10.00" fill="#000000">PHG4MvtxDetector::FillPVArray</text>
</a>
</g>
</g>
<!-- Node15&#45;&gt;Node22 -->
<g id="edge26" class="edge">
<title>Node15&#45;&gt;Node22</title>
<path fill="none" stroke="#191970" d="M330.8412,-384.5455C372.1529,-359.5342 478.7171,-295.0173 527.9132,-265.2326"/>
<polygon fill="#191970" stroke="#191970" points="529.9357,-268.0996 536.6774,-259.9265 526.3104,-262.1116 529.9357,-268.0996"/>
</g>
<!-- Node26 -->
<g id="node26" class="node">
<title>Node26</title>
<g id="a_node26"><a xlink:href="../../d4/dc1/classPHG4MvtxDetector.html#a807e09532d3be93be4a5239547268ca3" target="_top" xlink:title="PHG4MvtxDetector::SetDisplay\lProperty">
<polygon fill="none" stroke="#000000" points="467,-446.7416 467,-478.7416 640,-478.7416 640,-446.7416 467,-446.7416"/>
<text text-anchor="start" x="475" y="-465.7416" font-family="FreeSans" font-size="10.00" fill="#000000">PHG4MvtxDetector::SetDisplay</text>
<text text-anchor="middle" x="553.5" y="-453.7416" font-family="FreeSans" font-size="10.00" fill="#000000">Property</text>
</a>
</g>
</g>
<!-- Node15&#45;&gt;Node26 -->
<g id="edge32" class="edge">
<title>Node15&#45;&gt;Node26</title>
<path fill="none" stroke="#191970" d="M349.339,-404.7753C385.5091,-415.0449 442.5836,-431.2497 487.2019,-443.918"/>
<polygon fill="#191970" stroke="#191970" points="486.5214,-447.363 497.0972,-446.7275 488.4334,-440.6292 486.5214,-447.363"/>
</g>
<!-- Node17 -->
<g id="node17" class="node">
<title>Node17</title>
<g id="a_node17"><a xlink:href="../../d8/d51/classEicToyModel.html#a5e992ec670f1ccf5842edfc11423e42f" target="_top" xlink:title="EicToyModel::Import">
<polygon fill="none" stroke="#000000" points="725,-110.7416 725,-130.7416 844,-130.7416 844,-110.7416 725,-110.7416"/>
<text text-anchor="middle" x="784.5" y="-117.7416" font-family="FreeSans" font-size="10.00" fill="#000000">EicToyModel::Import</text>
</a>
</g>
</g>
<!-- Node16&#45;&gt;Node17 -->
<g id="edge19" class="edge">
<title>Node16&#45;&gt;Node17</title>
<path fill="none" stroke="#191970" d="M578.6608,-163.5134C613.8131,-156.2091 678.6469,-142.7371 726.1894,-132.8581"/>
<polygon fill="#191970" stroke="#191970" points="726.9763,-136.2695 736.055,-130.8081 725.5521,-129.4159 726.9763,-136.2695"/>
</g>
<!-- Node18 -->
<g id="node18" class="node">
<title>Node18</title>
<g id="a_node18"><a xlink:href="../../da/d23/msg__buffer_8cc.html#a98631211a4a8aee62f572375d5b637be" target="_top" xlink:title="printf">
<polygon fill="none" stroke="#000000" points="957,-110.7416 957,-130.7416 1001,-130.7416 1001,-110.7416 957,-110.7416"/>
<text text-anchor="middle" x="979" y="-117.7416" font-family="FreeSans" font-size="10.00" fill="#000000">printf</text>
</a>
</g>
</g>
<!-- Node17&#45;&gt;Node18 -->
<g id="edge20" class="edge">
<title>Node17&#45;&gt;Node18</title>
<path fill="none" stroke="#191970" d="M844.1782,-120.7416C877.8933,-120.7416 918.7278,-120.7416 946.5612,-120.7416"/>
<polygon fill="#191970" stroke="#191970" points="946.911,-124.2417 956.911,-120.7416 946.9109,-117.2417 946.911,-124.2417"/>
</g>
<!-- Node19&#45;&gt;Node11 -->
<g id="edge23" class="edge">
<title>Node19&#45;&gt;Node11</title>
<path fill="none" stroke="#191970" d="M594.7982,-388.8318C633.6857,-403.9828 692.0345,-426.7161 733.7437,-442.9665"/>
<polygon fill="#191970" stroke="#191970" points="732.5822,-446.2701 743.1706,-446.6393 735.1234,-439.7477 732.5822,-446.2701"/>
</g>
<!-- Node19&#45;&gt;Node14 -->
<g id="edge22" class="edge">
<title>Node19&#45;&gt;Node14</title>
<path fill="none" stroke="#191970" d="M637.7027,-364.8363C657.1687,-363.0858 677.8008,-361.292 697,-359.7416 764.5865,-354.2841 841.3522,-348.8924 897.7069,-345.0848"/>
<polygon fill="#191970" stroke="#191970" points="898.243,-348.5568 907.9852,-344.3927 897.7726,-341.5726 898.243,-348.5568"/>
</g>
<!-- Node20 -->
<g id="node20" class="node">
<title>Node20</title>
<g id="a_node20"><a xlink:href="../../df/de8/cemc_8C.html#a72d4716092b469b4bc1d816359a90e14" target="_top" xlink:title="cos">
<polygon fill="none" stroke="#000000" points="768,-368.7416 768,-388.7416 801,-388.7416 801,-368.7416 768,-368.7416"/>
<text text-anchor="middle" x="784.5" y="-375.7416" font-family="FreeSans" font-size="10.00" fill="#000000">cos</text>
</a>
</g>
</g>
<!-- Node19&#45;&gt;Node20 -->
<g id="edge24" class="edge">
<title>Node19&#45;&gt;Node20</title>
<path fill="none" stroke="#191970" d="M637.5498,-374.9248C679.8732,-376.0241 728.2956,-377.2818 757.6219,-378.0435"/>
<polygon fill="#191970" stroke="#191970" points="757.7865,-381.5489 767.874,-378.3098 757.9683,-374.5512 757.7865,-381.5489"/>
</g>
<!-- Node21 -->
<g id="node21" class="node">
<title>Node21</title>
<g id="a_node21"><a xlink:href="../../d3/de7/classPHG4Detector.html#a0be0f337e0bb4ef7d0754552ee7ba251" target="_top" xlink:title="PHG4Detector::OverlapCheck">
<polygon fill="none" stroke="#000000" points="701.5,-71.7416 701.5,-91.7416 867.5,-91.7416 867.5,-71.7416 701.5,-71.7416"/>
<text text-anchor="middle" x="784.5" y="-78.7416" font-family="FreeSans" font-size="10.00" fill="#000000">PHG4Detector::OverlapCheck</text>
</a>
</g>
</g>
<!-- Node19&#45;&gt;Node21 -->
<g id="edge25" class="edge">
<title>Node19&#45;&gt;Node21</title>
<path fill="none" stroke="#191970" d="M577.6349,-356.4097C602.5196,-338.2393 640.4942,-306.5456 661,-269.7416 698.378,-202.6554 642.8039,-155.1518 697,-100.7416 698.097,-99.6403 699.2419,-98.596 700.4291,-97.6059"/>
<polygon fill="#191970" stroke="#191970" points="702.5688,-100.3822 708.8229,-91.8302 698.6007,-94.6155 702.5688,-100.3822"/>
</g>
<!-- Node22&#45;&gt;Node14 -->
<g id="edge27" class="edge">
<title>Node22&#45;&gt;Node14</title>
<path fill="none" stroke="#191970" d="M639.5743,-243.4211C704.9817,-241.3864 796.2939,-244.5678 872,-269.7416 906.0981,-281.08 939.8563,-306.0677 960.0709,-322.9096"/>
<polygon fill="#191970" stroke="#191970" points="957.9888,-325.7341 967.8666,-329.5654 962.534,-320.4104 957.9888,-325.7341"/>
</g>
<!-- Node23 -->
<g id="node23" class="node">
<title>Node23</title>
<g id="a_node23"><a xlink:href="../../d4/dc1/classPHG4MvtxDetector.html#acdcaed99a60d1fbc488d75bfb08d5380" target="_top" xlink:title="PHG4MvtxDetector::get\l_layer">
<polygon fill="none" stroke="#000000" points="716.5,-149.7416 716.5,-181.7416 852.5,-181.7416 852.5,-149.7416 716.5,-149.7416"/>
<text text-anchor="start" x="724.5" y="-168.7416" font-family="FreeSans" font-size="10.00" fill="#000000">PHG4MvtxDetector::get</text>
<text text-anchor="middle" x="784.5" y="-156.7416" font-family="FreeSans" font-size="10.00" fill="#000000">_layer</text>
</a>
</g>
</g>
<!-- Node22&#45;&gt;Node23 -->
<g id="edge28" class="edge">
<title>Node22&#45;&gt;Node23</title>
<path fill="none" stroke="#191970" d="M576.0634,-239.5446C604.0772,-227.0994 653.4865,-205.8501 697,-190.7416 702.8766,-188.7012 709.0155,-186.697 715.1969,-184.7662"/>
<polygon fill="#191970" stroke="#191970" points="716.3729,-188.0667 724.9141,-181.7977 714.3278,-181.3721 716.3729,-188.0667"/>
</g>
<!-- Node24 -->
<g id="node24" class="node">
<title>Node24</title>
<g id="a_node24"><a xlink:href="../../d4/dc1/classPHG4MvtxDetector.html#aa8f24838136cab1807ff028a2d4af5c0" target="_top" xlink:title="PHG4MvtxDetector::get\l_stave">
<polygon fill="none" stroke="#000000" points="716.5,-278.7416 716.5,-310.7416 852.5,-310.7416 852.5,-278.7416 716.5,-278.7416"/>
<text text-anchor="start" x="724.5" y="-297.7416" font-family="FreeSans" font-size="10.00" fill="#000000">PHG4MvtxDetector::get</text>
<text text-anchor="middle" x="784.5" y="-285.7416" font-family="FreeSans" font-size="10.00" fill="#000000">_stave</text>
</a>
</g>
</g>
<!-- Node22&#45;&gt;Node24 -->
<g id="edge29" class="edge">
<title>Node22&#45;&gt;Node24</title>
<path fill="none" stroke="#191970" d="M605.0534,-259.7845C634.818,-265.5828 672.8561,-272.9928 706.2442,-279.497"/>
<polygon fill="#191970" stroke="#191970" points="705.9576,-283.0069 716.4424,-281.4837 707.2962,-276.1361 705.9576,-283.0069"/>
</g>
<!-- Node25 -->
<g id="node25" class="node">
<title>Node25</title>
<g id="a_node25"><a xlink:href="../../d4/dc1/classPHG4MvtxDetector.html#a711cc267c7fcd1908a5a283d23a0fceb" target="_top" xlink:title="PHG4MvtxDetector::FindSensor">
<polygon fill="none" stroke="#000000" points="697,-200.7416 697,-220.7416 872,-220.7416 872,-200.7416 697,-200.7416"/>
<text text-anchor="middle" x="784.5" y="-207.7416" font-family="FreeSans" font-size="10.00" fill="#000000">PHG4MvtxDetector::FindSensor</text>
</a>
</g>
</g>
<!-- Node22&#45;&gt;Node25 -->
<g id="edge30" class="edge">
<title>Node22&#45;&gt;Node25</title>
<path fill="none" stroke="#191970" d="M612.9882,-239.6982C644.2441,-234.4212 682.7206,-227.9252 715.3047,-222.424"/>
<polygon fill="#191970" stroke="#191970" points="715.9356,-225.8671 725.2134,-220.7511 714.7702,-218.9648 715.9356,-225.8671"/>
</g>
<!-- Node25&#45;&gt;Node14 -->
<g id="edge31" class="edge">
<title>Node25&#45;&gt;Node14</title>
<path fill="none" stroke="#191970" d="M835.7373,-220.8292C848.0981,-224.4735 860.9247,-229.3305 872,-235.7416 910.965,-258.2975 946.3398,-298.1606 965.0402,-321.4354"/>
<polygon fill="#191970" stroke="#191970" points="962.4297,-323.7777 971.3637,-329.4728 967.9311,-319.4494 962.4297,-323.7777"/>
</g>
<!-- Node27&#45;&gt;Node14 -->
<g id="edge34" class="edge">
<title>Node27&#45;&gt;Node14</title>
<path fill="none" stroke="#191970" d="M335.9415,-113.4978C361.0458,-96.0134 404.1127,-69.2921 446,-58.7416 629.6035,-12.4961 716.6793,46.5375 872,-61.7416 883.3294,-69.6397 950.269,-257.9675 972.1114,-320.0751"/>
<polygon fill="#191970" stroke="#191970" points="968.8148,-321.2514 975.4299,-329.5274 975.4196,-318.9326 968.8148,-321.2514"/>
</g>
<!-- Node27&#45;&gt;Node16 -->
<g id="edge38" class="edge">
<title>Node27&#45;&gt;Node16</title>
<path fill="none" stroke="#191970" d="M398.102,-143.4367C439.3955,-150.1609 486.9115,-157.8984 518.4181,-163.0289"/>
<polygon fill="#191970" stroke="#191970" points="518.0245,-166.5109 528.457,-164.6637 519.1496,-159.6019 518.0245,-166.5109"/>
</g>
<!-- Node27&#45;&gt;Node21 -->
<g id="edge37" class="edge">
<title>Node27&#45;&gt;Node21</title>
<path fill="none" stroke="#191970" d="M398.2473,-129.289C468.8029,-127.8587 571.9666,-123.314 661,-109.7416 677.3041,-107.2562 680.9396,-104.4919 697,-100.7416 706.6503,-98.4882 716.9204,-96.1788 726.9032,-93.9811"/>
<polygon fill="#191970" stroke="#191970" points="727.735,-97.382 736.7566,-91.8269 726.2398,-90.5436 727.735,-97.382"/>
</g>
<!-- Node28 -->
<g id="node28" class="node">
<title>Node28</title>
<g id="a_node28"><a xlink:href="../../d4/dc1/classPHG4MvtxDetector.html#a7aa07c5db6cf71c84864cdef6481cbc6" target="_top" xlink:title="PHG4MvtxDetector::GetMvtx\lOuterShell">
<polygon fill="none" stroke="#000000" points="473,-68.7416 473,-100.7416 634,-100.7416 634,-68.7416 473,-68.7416"/>
<text text-anchor="start" x="481" y="-87.7416" font-family="FreeSans" font-size="10.00" fill="#000000">PHG4MvtxDetector::GetMvtx</text>
<text text-anchor="middle" x="553.5" y="-75.7416" font-family="FreeSans" font-size="10.00" fill="#000000">OuterShell</text>
</a>
</g>
</g>
<!-- Node27&#45;&gt;Node28 -->
<g id="edge35" class="edge">
<title>Node27&#45;&gt;Node28</title>
<path fill="none" stroke="#191970" d="M398.102,-113.9396C419.0462,-110.0044 441.5912,-105.7684 462.8361,-101.7766"/>
<polygon fill="#191970" stroke="#191970" points="463.6388,-105.1871 472.8205,-99.9006 462.3461,-98.3075 463.6388,-105.1871"/>
</g>
<!-- Node28&#45;&gt;Node21 -->
<g id="edge36" class="edge">
<title>Node28&#45;&gt;Node21</title>
<path fill="none" stroke="#191970" d="M634.2926,-83.6924C652.7101,-83.4532 672.4255,-83.1972 691.3133,-82.9519"/>
<polygon fill="#191970" stroke="#191970" points="691.4509,-86.4505 701.4046,-82.8208 691.3599,-79.4511 691.4509,-86.4505"/>
</g>
</g>
</svg>
