<?xml version="1.0" encoding="UTF-8" standalone="no"?>
<!DOCTYPE svg PUBLIC "-//W3C//DTD SVG 1.1//EN"
 "http://www.w3.org/Graphics/SVG/1.1/DTD/svg11.dtd">
<!-- Generated by graphviz version 2.40.1 (20161225.0304)
 -->
<!-- Title: fun4all_coresoftware/blob/master/simulation/g4simulation/g4trackfastsim/PHG4TrackFastSimEval.h Pages: 1 -->
<svg width="3189pt" height="320pt"
 viewBox="0.00 0.00 3189.00 320.00" xmlns="http://www.w3.org/2000/svg" xmlns:xlink="http://www.w3.org/1999/xlink">
<g id="graph0" class="graph" transform="scale(1 1) rotate(0) translate(4 316)">
<title>fun4all_coresoftware/blob/master/simulation/g4simulation/g4trackfastsim/PHG4TrackFastSimEval.h</title>
<!-- Node1 -->
<g id="node1" class="node">
<title>Node1</title>
<polygon fill="#bfbfbf" stroke="#000000" points="1509,-255.5 1509,-311.5 1674,-311.5 1674,-255.5 1509,-255.5"/>
<text text-anchor="start" x="1517" y="-298.5" font-family="FreeSans" font-size="10.00" fill="#000000">fun4all_coresoftware</text>
<text text-anchor="start" x="1517" y="-286.5" font-family="FreeSans" font-size="10.00" fill="#000000">/blob/master/simulation</text>
<text text-anchor="start" x="1517" y="-274.5" font-family="FreeSans" font-size="10.00" fill="#000000">/g4simulation/g4trackfastsim</text>
<text text-anchor="middle" x="1591.5" y="-262.5" font-family="FreeSans" font-size="10.00" fill="#000000">/PHG4TrackFastSimEval.h</text>
</g>
<!-- Node2 -->
<g id="node2" class="node">
<title>Node2</title>
<g id="a_node2"><a xlink:href="../../d7/de6/PHG4TrackFastSimEval_8cc.html" target="_top" xlink:title="Evaluation module for PHG4TrackFastSim output.">
<polygon fill="none" stroke="#000000" points="0,-162.5 0,-218.5 165,-218.5 165,-162.5 0,-162.5"/>
<text text-anchor="start" x="8" y="-205.5" font-family="FreeSans" font-size="10.00" fill="#000000">fun4all_coresoftware</text>
<text text-anchor="start" x="8" y="-193.5" font-family="FreeSans" font-size="10.00" fill="#000000">/blob/master/simulation</text>
<text text-anchor="start" x="8" y="-181.5" font-family="FreeSans" font-size="10.00" fill="#000000">/g4simulation/g4trackfastsim</text>
<text text-anchor="middle" x="82.5" y="-169.5" font-family="FreeSans" font-size="10.00" fill="#000000">/PHG4TrackFastSimEval.cc</text>
</a>
</g>
</g>
<!-- Node1&#45;&gt;Node2 -->
<g id="edge1" class="edge">
<title>Node1&#45;&gt;Node2</title>
<path fill="none" stroke="#191970" d="M1498.449,-282.3546C1225.5067,-278.5056 430.175,-263.6645 174.5,-219 171.3704,-218.4533 168.1986,-217.8307 165.008,-217.1466"/>
<polygon fill="#191970" stroke="#191970" points="1498.6687,-285.8579 1508.7166,-282.4977 1498.7663,-278.8586 1498.6687,-285.8579"/>
</g>
<!-- Node3 -->
<g id="node3" class="node">
<title>Node3</title>
<g id="a_node3"><a xlink:href="../../d0/d5d/G4__Tracking__JLeic_8C.html" target="_top" xlink:title="fun4all_eicmacros/blob\l/master/common/G4_Tracking\l_JLeic.C">
<polygon fill="none" stroke="#000000" points="183.5,-168.5 183.5,-212.5 351.5,-212.5 351.5,-168.5 183.5,-168.5"/>
<text text-anchor="start" x="191.5" y="-199.5" font-family="FreeSans" font-size="10.00" fill="#000000">fun4all_eicmacros/blob</text>
<text text-anchor="start" x="191.5" y="-187.5" font-family="FreeSans" font-size="10.00" fill="#000000">/master/common/G4_Tracking</text>
<text text-anchor="middle" x="267.5" y="-175.5" font-family="FreeSans" font-size="10.00" fill="#000000">_JLeic.C</text>
</a>
</g>
</g>
<!-- Node1&#45;&gt;Node3 -->
<g id="edge2" class="edge">
<title>Node1&#45;&gt;Node3</title>
<path fill="none" stroke="#191970" d="M1498.7886,-281.5812C1251.2897,-275.9894 579.0169,-257.6034 360.5,-219 351.2706,-217.3695 341.672,-215.1065 332.298,-212.5618"/>
<polygon fill="#191970" stroke="#191970" points="1498.7575,-285.0812 1508.8335,-281.8063 1498.9145,-278.083 1498.7575,-285.0812"/>
</g>
<!-- Node5 -->
<g id="node5" class="node">
<title>Node5</title>
<g id="a_node5"><a xlink:href="../../d0/d20/G4__Tracking__LBL_8C.html" target="_top" xlink:title="fun4all_eicmacros/blob\l/master/common/G4_Tracking_LBL.C">
<polygon fill="none" stroke="#000000" points="369.5,-174.5 369.5,-206.5 571.5,-206.5 571.5,-174.5 369.5,-174.5"/>
<text text-anchor="start" x="377.5" y="-193.5" font-family="FreeSans" font-size="10.00" fill="#000000">fun4all_eicmacros/blob</text>
<text text-anchor="middle" x="470.5" y="-181.5" font-family="FreeSans" font-size="10.00" fill="#000000">/master/common/G4_Tracking_LBL.C</text>
</a>
</g>
</g>
<!-- Node1&#45;&gt;Node5 -->
<g id="edge4" class="edge">
<title>Node1&#45;&gt;Node5</title>
<path fill="none" stroke="#191970" d="M1498.6836,-279.8357C1283.5495,-270.9768 755.8371,-247.0465 580.5,-219 561.8965,-216.0242 541.8649,-211.3025 524.0596,-206.5515"/>
<polygon fill="#191970" stroke="#191970" points="1498.5541,-283.3333 1508.6891,-280.2462 1498.841,-276.3392 1498.5541,-283.3333"/>
</g>
<!-- Node8 -->
<g id="node8" class="node">
<title>Node8</title>
<g id="a_node8"><a xlink:href="../../d3/d11/G4__Tracking__Modular_8C.html" target="_top" xlink:title="fun4all_eicmacros/blob\l/master/common/G4_Tracking\l_Modular.C">
<polygon fill="none" stroke="#000000" points="589.5,-168.5 589.5,-212.5 757.5,-212.5 757.5,-168.5 589.5,-168.5"/>
<text text-anchor="start" x="597.5" y="-199.5" font-family="FreeSans" font-size="10.00" fill="#000000">fun4all_eicmacros/blob</text>
<text text-anchor="start" x="597.5" y="-187.5" font-family="FreeSans" font-size="10.00" fill="#000000">/master/common/G4_Tracking</text>
<text text-anchor="middle" x="673.5" y="-175.5" font-family="FreeSans" font-size="10.00" fill="#000000">_Modular.C</text>
</a>
</g>
</g>
<!-- Node1&#45;&gt;Node8 -->
<g id="edge7" class="edge">
<title>Node1&#45;&gt;Node8</title>
<path fill="none" stroke="#191970" d="M1498.5586,-281.6474C1346.9603,-277.391 1037.4754,-263.5387 779.5,-219 769.4535,-217.2655 758.9766,-215.0112 748.688,-212.5302"/>
<polygon fill="#191970" stroke="#191970" points="1498.664,-285.1515 1508.7558,-281.9258 1498.8551,-278.1541 1498.664,-285.1515"/>
</g>
<!-- Node13 -->
<g id="node13" class="node">
<title>Node13</title>
<g id="a_node13"><a xlink:href="../../da/d9b/G4__FGEM__fsPHENIX_8C.html" target="_top" xlink:title="fun4all_macros/blob\l/master/common/G4_FGEM\l_fsPHENIX.C">
<polygon fill="none" stroke="#000000" points="789,-168.5 789,-212.5 944,-212.5 944,-168.5 789,-168.5"/>
<text text-anchor="start" x="797" y="-199.5" font-family="FreeSans" font-size="10.00" fill="#000000">fun4all_macros/blob</text>
<text text-anchor="start" x="797" y="-187.5" font-family="FreeSans" font-size="10.00" fill="#000000">/master/common/G4_FGEM</text>
<text text-anchor="middle" x="866.5" y="-175.5" font-family="FreeSans" font-size="10.00" fill="#000000">_fsPHENIX.C</text>
</a>
</g>
</g>
<!-- Node1&#45;&gt;Node13 -->
<g id="edge12" class="edge">
<title>Node1&#45;&gt;Node13</title>
<path fill="none" stroke="#191970" d="M1498.4964,-280.3783C1373.406,-274.7574 1144.5812,-259.4603 953.5,-219 945.2589,-217.255 936.7012,-215.011 928.3111,-212.5493"/>
<polygon fill="#191970" stroke="#191970" points="1498.6534,-283.8884 1508.7971,-280.8297 1498.96,-276.8951 1498.6534,-283.8884"/>
</g>
<!-- Node17 -->
<g id="node17" class="node">
<title>Node17</title>
<g id="a_node17"><a xlink:href="../../d1/d31/G4__Tracking__EIC_8C.html" target="_top" xlink:title="fun4all_macros/blob\l/master/common/G4_Tracking_\lEIC.C">
<polygon fill="none" stroke="#000000" points="962.5,-168.5 962.5,-212.5 1136.5,-212.5 1136.5,-168.5 962.5,-168.5"/>
<text text-anchor="start" x="970.5" y="-199.5" font-family="FreeSans" font-size="10.00" fill="#000000">fun4all_macros/blob</text>
<text text-anchor="start" x="970.5" y="-187.5" font-family="FreeSans" font-size="10.00" fill="#000000">/master/common/G4_Tracking_</text>
<text text-anchor="middle" x="1049.5" y="-175.5" font-family="FreeSans" font-size="10.00" fill="#000000">EIC.C</text>
</a>
</g>
</g>
<!-- Node1&#45;&gt;Node17 -->
<g id="edge17" class="edge">
<title>Node1&#45;&gt;Node17</title>
<path fill="none" stroke="#191970" d="M1498.5561,-271.6729C1388.2091,-257.3476 1210.8958,-233.3566 1145.5,-219 1137.0094,-217.136 1128.1733,-214.913 1119.4506,-212.5422"/>
<polygon fill="#191970" stroke="#191970" points="1498.3226,-275.1718 1508.6894,-272.9857 1499.222,-268.2298 1498.3226,-275.1718"/>
</g>
<!-- Node22 -->
<g id="node22" class="node">
<title>Node22</title>
<g id="a_node22"><a xlink:href="../../d9/d8f/Fun4All__G4__Momentum_8C.html" target="_top" xlink:title="fun4all_tutorials/blob\l/master/Momentum/Fun4All\l_G4_Momentum.C">
<polygon fill="none" stroke="#000000" points="1155,-168.5 1155,-212.5 1312,-212.5 1312,-168.5 1155,-168.5"/>
<text text-anchor="start" x="1163" y="-199.5" font-family="FreeSans" font-size="10.00" fill="#000000">fun4all_tutorials/blob</text>
<text text-anchor="start" x="1163" y="-187.5" font-family="FreeSans" font-size="10.00" fill="#000000">/master/Momentum/Fun4All</text>
<text text-anchor="middle" x="1233.5" y="-175.5" font-family="FreeSans" font-size="10.00" fill="#000000">_G4_Momentum.C</text>
</a>
</g>
</g>
<!-- Node1&#45;&gt;Node22 -->
<g id="edge22" class="edge">
<title>Node1&#45;&gt;Node22</title>
<path fill="none" stroke="#191970" d="M1499.0067,-263.2996C1446.6575,-251.3937 1380.127,-235.4687 1321.5,-219 1314.3881,-217.0022 1306.9908,-214.8022 1299.6401,-212.5371"/>
<polygon fill="#191970" stroke="#191970" points="1498.4195,-266.7552 1508.9456,-265.5506 1499.9658,-259.9281 1498.4195,-266.7552"/>
</g>
<!-- Node23 -->
<g id="node23" class="node">
<title>Node23</title>
<g id="a_node23"><a xlink:href="../../d1/d3a/Fun4All__G4__Momentum__Projection_8C.html" target="_top" xlink:title="fun4all_tutorials/blob\l/master/Momentum/Fun4All\l_G4_Momentum_Projection.C">
<polygon fill="none" stroke="#000000" points="1330.5,-168.5 1330.5,-212.5 1494.5,-212.5 1494.5,-168.5 1330.5,-168.5"/>
<text text-anchor="start" x="1338.5" y="-199.5" font-family="FreeSans" font-size="10.00" fill="#000000">fun4all_tutorials/blob</text>
<text text-anchor="start" x="1338.5" y="-187.5" font-family="FreeSans" font-size="10.00" fill="#000000">/master/Momentum/Fun4All</text>
<text text-anchor="middle" x="1412.5" y="-175.5" font-family="FreeSans" font-size="10.00" fill="#000000">_G4_Momentum_Projection.C</text>
</a>
</g>
</g>
<!-- Node1&#45;&gt;Node23 -->
<g id="edge23" class="edge">
<title>Node1&#45;&gt;Node23</title>
<path fill="none" stroke="#191970" d="M1528.1494,-250.586C1503.8479,-237.9601 1476.7266,-223.8691 1454.8594,-212.5079"/>
<polygon fill="#191970" stroke="#191970" points="1526.8209,-253.8399 1537.3083,-255.3446 1530.0482,-247.6283 1526.8209,-253.8399"/>
</g>
<!-- Node24 -->
<g id="node24" class="node">
<title>Node24</title>
<g id="a_node24"><a xlink:href="../../d5/d9f/Fun4All__G4__Momentum__Projection__Calorimeters_8C.html" target="_top" xlink:title="fun4all_tutorials/blob\l/master/Momentum/Fun4All\l_G4_Momentum_Projection\l_Calorimeters.C">
<polygon fill="none" stroke="#000000" points="1513,-162.5 1513,-218.5 1670,-218.5 1670,-162.5 1513,-162.5"/>
<text text-anchor="start" x="1521" y="-205.5" font-family="FreeSans" font-size="10.00" fill="#000000">fun4all_tutorials/blob</text>
<text text-anchor="start" x="1521" y="-193.5" font-family="FreeSans" font-size="10.00" fill="#000000">/master/Momentum/Fun4All</text>
<text text-anchor="start" x="1521" y="-181.5" font-family="FreeSans" font-size="10.00" fill="#000000">_G4_Momentum_Projection</text>
<text text-anchor="middle" x="1591.5" y="-169.5" font-family="FreeSans" font-size="10.00" fill="#000000">_Calorimeters.C</text>
</a>
</g>
</g>
<!-- Node1&#45;&gt;Node24 -->
<g id="edge24" class="edge">
<title>Node1&#45;&gt;Node24</title>
<path fill="none" stroke="#191970" d="M1591.5,-245.1582C1591.5,-236.2499 1591.5,-226.9293 1591.5,-218.5597"/>
<polygon fill="#191970" stroke="#191970" points="1588.0001,-245.3445 1591.5,-255.3446 1595.0001,-245.3446 1588.0001,-245.3445"/>
</g>
<!-- Node25 -->
<g id="node25" class="node">
<title>Node25</title>
<g id="a_node25"><a xlink:href="../../dd/dba/Fun4All__G4__Momentum__Projection__Detectors_8C.html" target="_top" xlink:title="fun4all_tutorials/blob\l/master/Momentum/Fun4All\l_G4_Momentum_Projection\l_Detectors.C">
<polygon fill="none" stroke="#000000" points="1688,-162.5 1688,-218.5 1845,-218.5 1845,-162.5 1688,-162.5"/>
<text text-anchor="start" x="1696" y="-205.5" font-family="FreeSans" font-size="10.00" fill="#000000">fun4all_tutorials/blob</text>
<text text-anchor="start" x="1696" y="-193.5" font-family="FreeSans" font-size="10.00" fill="#000000">/master/Momentum/Fun4All</text>
<text text-anchor="start" x="1696" y="-181.5" font-family="FreeSans" font-size="10.00" fill="#000000">_G4_Momentum_Projection</text>
<text text-anchor="middle" x="1766.5" y="-169.5" font-family="FreeSans" font-size="10.00" fill="#000000">_Detectors.C</text>
</a>
</g>
</g>
<!-- Node1&#45;&gt;Node25 -->
<g id="edge25" class="edge">
<title>Node1&#45;&gt;Node25</title>
<path fill="none" stroke="#191970" d="M1653.3848,-250.6126C1673.0908,-240.1403 1694.6978,-228.6578 1713.6994,-218.5597"/>
<polygon fill="#191970" stroke="#191970" points="1651.6687,-247.561 1644.4807,-255.3446 1654.9537,-253.7424 1651.6687,-247.561"/>
</g>
<!-- Node26 -->
<g id="node26" class="node">
<title>Node26</title>
<g id="a_node26"><a xlink:href="../../db/da2/Fun4All__G4__simple__hadron_8C.html" target="_top" xlink:title="g4lblvtx/blob/master\l/macros/auxiliary_studies\l/hadron_phi_asymmetry/Fun4All\l_G4_simple_hadron.C">
<polygon fill="none" stroke="#000000" points="1863.5,-162.5 1863.5,-218.5 2043.5,-218.5 2043.5,-162.5 1863.5,-162.5"/>
<text text-anchor="start" x="1871.5" y="-205.5" font-family="FreeSans" font-size="10.00" fill="#000000">g4lblvtx/blob/master</text>
<text text-anchor="start" x="1871.5" y="-193.5" font-family="FreeSans" font-size="10.00" fill="#000000">/macros/auxiliary_studies</text>
<text text-anchor="start" x="1871.5" y="-181.5" font-family="FreeSans" font-size="10.00" fill="#000000">/hadron_phi_asymmetry/Fun4All</text>
<text text-anchor="middle" x="1953.5" y="-169.5" font-family="FreeSans" font-size="10.00" fill="#000000">_G4_simple_hadron.C</text>
</a>
</g>
</g>
<!-- Node1&#45;&gt;Node26 -->
<g id="edge26" class="edge">
<title>Node1&#45;&gt;Node26</title>
<path fill="none" stroke="#191970" d="M1683.9654,-261.7743C1734.4803,-249.6663 1798.0701,-234.0357 1854.5,-219 1857.438,-218.2172 1860.4224,-217.4126 1863.4341,-216.5927"/>
<polygon fill="#191970" stroke="#191970" points="1682.9542,-258.4173 1674.0427,-264.1477 1684.5826,-265.2253 1682.9542,-258.4173"/>
</g>
<!-- Node27 -->
<g id="node27" class="node">
<title>Node27</title>
<g id="a_node27"><a xlink:href="../../d0/dd2/Fun4All__G4__simple__hadron__GEM_8C.html" target="_top" xlink:title="g4lblvtx/blob/master\l/macros/auxiliary_studies\l/hadron_phi_asymmetry/Fun4All\l_G4_simple_hadron_GEM.C">
<polygon fill="none" stroke="#000000" points="2061.5,-162.5 2061.5,-218.5 2241.5,-218.5 2241.5,-162.5 2061.5,-162.5"/>
<text text-anchor="start" x="2069.5" y="-205.5" font-family="FreeSans" font-size="10.00" fill="#000000">g4lblvtx/blob/master</text>
<text text-anchor="start" x="2069.5" y="-193.5" font-family="FreeSans" font-size="10.00" fill="#000000">/macros/auxiliary_studies</text>
<text text-anchor="start" x="2069.5" y="-181.5" font-family="FreeSans" font-size="10.00" fill="#000000">/hadron_phi_asymmetry/Fun4All</text>
<text text-anchor="middle" x="2151.5" y="-169.5" font-family="FreeSans" font-size="10.00" fill="#000000">_G4_simple_hadron_GEM.C</text>
</a>
</g>
</g>
<!-- Node1&#45;&gt;Node27 -->
<g id="edge27" class="edge">
<title>Node1&#45;&gt;Node27</title>
<path fill="none" stroke="#191970" d="M1684.1435,-274.4303C1777.7114,-264.3606 1926.0895,-245.8979 2052.5,-219 2055.3865,-218.3858 2058.3122,-217.7324 2061.26,-217.0474"/>
<polygon fill="#191970" stroke="#191970" points="1683.7098,-270.9566 1674.1374,-275.4975 1684.4523,-277.9171 1683.7098,-270.9566"/>
</g>
<!-- Node28 -->
<g id="node28" class="node">
<title>Node28</title>
<g id="a_node28"><a xlink:href="../../d2/d06/Fun4All__G4__simplified__v2_8C.html" target="_top" xlink:title="g4lblvtx/blob/master\l/macros/auxiliary_studies\l/simplified_geometry/Fun4All\l_G4_simplified_v2.C">
<polygon fill="none" stroke="#000000" points="2259.5,-162.5 2259.5,-218.5 2423.5,-218.5 2423.5,-162.5 2259.5,-162.5"/>
<text text-anchor="start" x="2267.5" y="-205.5" font-family="FreeSans" font-size="10.00" fill="#000000">g4lblvtx/blob/master</text>
<text text-anchor="start" x="2267.5" y="-193.5" font-family="FreeSans" font-size="10.00" fill="#000000">/macros/auxiliary_studies</text>
<text text-anchor="start" x="2267.5" y="-181.5" font-family="FreeSans" font-size="10.00" fill="#000000">/simplified_geometry/Fun4All</text>
<text text-anchor="middle" x="2341.5" y="-169.5" font-family="FreeSans" font-size="10.00" fill="#000000">_G4_simplified_v2.C</text>
</a>
</g>
</g>
<!-- Node1&#45;&gt;Node28 -->
<g id="edge28" class="edge">
<title>Node1&#45;&gt;Node28</title>
<path fill="none" stroke="#191970" d="M1684.4289,-280.4277C1812.8478,-274.8206 2051.2895,-259.4935 2250.5,-219 2253.4202,-218.4064 2256.3797,-217.7554 2259.3584,-217.0579"/>
<polygon fill="#191970" stroke="#191970" points="1684.0825,-276.9392 1674.2407,-280.8622 1684.3808,-283.9328 1684.0825,-276.9392"/>
</g>
<!-- Node29 -->
<g id="node29" class="node">
<title>Node29</title>
<g id="a_node29"><a xlink:href="../../db/d8d/Fun4All__G4__simple__vertex_8C.html" target="_top" xlink:title="g4lblvtx/blob/master\l/macros/auxiliary_studies\l/vertexing/Fun4All_G4_simple\l_vertex.C">
<polygon fill="none" stroke="#000000" points="2442,-162.5 2442,-218.5 2609,-218.5 2609,-162.5 2442,-162.5"/>
<text text-anchor="start" x="2450" y="-205.5" font-family="FreeSans" font-size="10.00" fill="#000000">g4lblvtx/blob/master</text>
<text text-anchor="start" x="2450" y="-193.5" font-family="FreeSans" font-size="10.00" fill="#000000">/macros/auxiliary_studies</text>
<text text-anchor="start" x="2450" y="-181.5" font-family="FreeSans" font-size="10.00" fill="#000000">/vertexing/Fun4All_G4_simple</text>
<text text-anchor="middle" x="2525.5" y="-169.5" font-family="FreeSans" font-size="10.00" fill="#000000">_vertex.C</text>
</a>
</g>
</g>
<!-- Node1&#45;&gt;Node29 -->
<g id="edge29" class="edge">
<title>Node1&#45;&gt;Node29</title>
<path fill="none" stroke="#191970" d="M1684.4411,-278.966C1872.2979,-269.3755 2291.3037,-245.7092 2432.5,-219 2435.5697,-218.4193 2438.6813,-217.7738 2441.8129,-217.0757"/>
<polygon fill="#191970" stroke="#191970" points="1684.1193,-275.4777 1674.3099,-279.4809 1684.4748,-282.4687 1684.1193,-275.4777"/>
</g>
<!-- Node30 -->
<g id="node30" class="node">
<title>Node30</title>
<g id="a_node30"><a xlink:href="../../d7/dc5/Fun4All__G4__FastMom_8C.html" target="_top" xlink:title="g4lblvtx/blob/master\l/macros/Fun4All_G4_FastMom.C">
<polygon fill="none" stroke="#000000" points="2626.5,-174.5 2626.5,-206.5 2804.5,-206.5 2804.5,-174.5 2626.5,-174.5"/>
<text text-anchor="start" x="2634.5" y="-193.5" font-family="FreeSans" font-size="10.00" fill="#000000">g4lblvtx/blob/master</text>
<text text-anchor="middle" x="2715.5" y="-181.5" font-family="FreeSans" font-size="10.00" fill="#000000">/macros/Fun4All_G4_FastMom.C</text>
</a>
</g>
</g>
<!-- Node1&#45;&gt;Node30 -->
<g id="edge30" class="edge">
<title>Node1&#45;&gt;Node30</title>
<path fill="none" stroke="#191970" d="M1684.2559,-280.3249C1901.9094,-272.4459 2440.4333,-250.3455 2618.5,-219 2635.0949,-216.0788 2652.8842,-211.3406 2668.6385,-206.5591"/>
<polygon fill="#191970" stroke="#191970" points="1684.0042,-276.8316 1674.1367,-280.6893 1684.2562,-283.8271 1684.0042,-276.8316"/>
</g>
<!-- Node31 -->
<g id="node31" class="node">
<title>Node31</title>
<g id="a_node31"><a xlink:href="../../db/dc2/Fun4All__G4__FastMom__GEM_8C.html" target="_top" xlink:title="g4lblvtx/blob/master\l/macros/Fun4All_G4_FastMom_\lGEM.C">
<polygon fill="none" stroke="#000000" points="2823,-168.5 2823,-212.5 2996,-212.5 2996,-168.5 2823,-168.5"/>
<text text-anchor="start" x="2831" y="-199.5" font-family="FreeSans" font-size="10.00" fill="#000000">g4lblvtx/blob/master</text>
<text text-anchor="start" x="2831" y="-187.5" font-family="FreeSans" font-size="10.00" fill="#000000">/macros/Fun4All_G4_FastMom_</text>
<text text-anchor="middle" x="2909.5" y="-175.5" font-family="FreeSans" font-size="10.00" fill="#000000">GEM.C</text>
</a>
</g>
</g>
<!-- Node1&#45;&gt;Node31 -->
<g id="edge31" class="edge">
<title>Node1&#45;&gt;Node31</title>
<path fill="none" stroke="#191970" d="M1684.3939,-281.431C1930.7471,-275.491 2596.6756,-256.3668 2813.5,-219 2823.0088,-217.3613 2832.9068,-215.0936 2842.5782,-212.5466"/>
<polygon fill="#191970" stroke="#191970" points="1684.307,-277.9319 1674.3937,-281.6704 1684.4746,-284.9299 1684.307,-277.9319"/>
</g>
<!-- Node32 -->
<g id="node32" class="node">
<title>Node32</title>
<g id="a_node32"><a xlink:href="../../d7/df9/Fun4All__G4__FastMom__GEM__RICH_8C.html" target="_top" xlink:title="g4lblvtx/blob/master\l/macros/Fun4All_G4_FastMom\l_GEM_RICH.C">
<polygon fill="none" stroke="#000000" points="3014,-168.5 3014,-212.5 3181,-212.5 3181,-168.5 3014,-168.5"/>
<text text-anchor="start" x="3022" y="-199.5" font-family="FreeSans" font-size="10.00" fill="#000000">g4lblvtx/blob/master</text>
<text text-anchor="start" x="3022" y="-187.5" font-family="FreeSans" font-size="10.00" fill="#000000">/macros/Fun4All_G4_FastMom</text>
<text text-anchor="middle" x="3097.5" y="-175.5" font-family="FreeSans" font-size="10.00" fill="#000000">_GEM_RICH.C</text>
</a>
</g>
</g>
<!-- Node1&#45;&gt;Node32 -->
<g id="edge32" class="edge">
<title>Node1&#45;&gt;Node32</title>
<path fill="none" stroke="#191970" d="M1684.3541,-282.3469C1956.7188,-278.4767 2750.3674,-263.5824 3005.5,-219 3014.724,-217.3882 3024.3149,-215.1178 3033.6707,-212.554"/>
<polygon fill="#191970" stroke="#191970" points="1684.0581,-278.8506 1674.1083,-282.4908 1684.1565,-285.85 1684.0581,-278.8506"/>
</g>
<!-- Node4 -->
<g id="node4" class="node">
<title>Node4</title>
<g id="a_node4"><a xlink:href="../../d0/d87/Fun4All__G4__JLeic_8C.html" target="_top" xlink:title="fun4all_eicmacros/blob\l/master/detectors/JLeic\l/Fun4All_G4_JLeic.C">
<polygon fill="none" stroke="#000000" points="64,-81.5 64,-125.5 197,-125.5 197,-81.5 64,-81.5"/>
<text text-anchor="start" x="72" y="-112.5" font-family="FreeSans" font-size="10.00" fill="#000000">fun4all_eicmacros/blob</text>
<text text-anchor="start" x="72" y="-100.5" font-family="FreeSans" font-size="10.00" fill="#000000">/master/detectors/JLeic</text>
<text text-anchor="middle" x="130.5" y="-88.5" font-family="FreeSans" font-size="10.00" fill="#000000">/Fun4All_G4_JLeic.C</text>
</a>
</g>
</g>
<!-- Node3&#45;&gt;Node4 -->
<g id="edge3" class="edge">
<title>Node3&#45;&gt;Node4</title>
<path fill="none" stroke="#191970" d="M224.1022,-162.9408C205.1516,-150.9065 183.2264,-136.9832 165.3616,-125.6384"/>
<polygon fill="#191970" stroke="#191970" points="222.2566,-165.9149 232.5746,-168.3211 226.0092,-160.0057 222.2566,-165.9149"/>
</g>
<!-- Node6 -->
<g id="node6" class="node">
<title>Node6</title>
<g id="a_node6"><a xlink:href="../../df/d34/G4Setup__LBLDetector_8C.html" target="_top" xlink:title="fun4all_eicmacros/blob\l/master/detectors/AllSilicon\l/G4Setup_LBLDetector.C">
<polygon fill="none" stroke="#000000" points="215.5,-81.5 215.5,-125.5 371.5,-125.5 371.5,-81.5 215.5,-81.5"/>
<text text-anchor="start" x="223.5" y="-112.5" font-family="FreeSans" font-size="10.00" fill="#000000">fun4all_eicmacros/blob</text>
<text text-anchor="start" x="223.5" y="-100.5" font-family="FreeSans" font-size="10.00" fill="#000000">/master/detectors/AllSilicon</text>
<text text-anchor="middle" x="293.5" y="-88.5" font-family="FreeSans" font-size="10.00" fill="#000000">/G4Setup_LBLDetector.C</text>
</a>
</g>
</g>
<!-- Node5&#45;&gt;Node6 -->
<g id="edge5" class="edge">
<title>Node5&#45;&gt;Node6</title>
<path fill="none" stroke="#191970" d="M428.4088,-169.8111C401.3354,-156.5039 366.1815,-139.2248 338.5464,-125.6415"/>
<polygon fill="#191970" stroke="#191970" points="427.104,-173.0697 437.6225,-174.3399 430.1919,-166.7875 427.104,-173.0697"/>
</g>
<!-- Node7 -->
<g id="node7" class="node">
<title>Node7</title>
<g id="a_node7"><a xlink:href="../../d9/d18/Fun4All__G4__LBLDetector_8C.html" target="_top" xlink:title="fun4all_eicmacros/blob\l/master/detectors/AllSilicon\l/Fun4All_G4_LBLDetector.C">
<polygon fill="none" stroke="#000000" points="200.5,-.5 200.5,-44.5 356.5,-44.5 356.5,-.5 200.5,-.5"/>
<text text-anchor="start" x="208.5" y="-31.5" font-family="FreeSans" font-size="10.00" fill="#000000">fun4all_eicmacros/blob</text>
<text text-anchor="start" x="208.5" y="-19.5" font-family="FreeSans" font-size="10.00" fill="#000000">/master/detectors/AllSilicon</text>
<text text-anchor="middle" x="278.5" y="-7.5" font-family="FreeSans" font-size="10.00" fill="#000000">/Fun4All_G4_LBLDetector.C</text>
</a>
</g>
</g>
<!-- Node6&#45;&gt;Node7 -->
<g id="edge6" class="edge">
<title>Node6&#45;&gt;Node7</title>
<path fill="none" stroke="#191970" d="M287.527,-71.2457C285.8725,-62.3118 284.1146,-52.8188 282.5939,-44.6068"/>
<polygon fill="#191970" stroke="#191970" points="284.1387,-72.1709 289.4012,-81.3664 291.0217,-70.8962 284.1387,-72.1709"/>
</g>
<!-- Node9 -->
<g id="node9" class="node">
<title>Node9</title>
<g id="a_node9"><a xlink:href="../../d8/da0/G4Setup__ModularDetector_8C.html" target="_top" xlink:title="fun4all_eicmacros/blob\l/master/detectors/Modular\l/G4Setup_ModularDetector.C">
<polygon fill="none" stroke="#000000" points="390,-81.5 390,-125.5 553,-125.5 553,-81.5 390,-81.5"/>
<text text-anchor="start" x="398" y="-112.5" font-family="FreeSans" font-size="10.00" fill="#000000">fun4all_eicmacros/blob</text>
<text text-anchor="start" x="398" y="-100.5" font-family="FreeSans" font-size="10.00" fill="#000000">/master/detectors/Modular</text>
<text text-anchor="middle" x="471.5" y="-88.5" font-family="FreeSans" font-size="10.00" fill="#000000">/G4Setup_ModularDetector.C</text>
</a>
</g>
</g>
<!-- Node8&#45;&gt;Node9 -->
<g id="edge8" class="edge">
<title>Node8&#45;&gt;Node9</title>
<path fill="none" stroke="#191970" d="M612.7378,-164.3301C584.0054,-151.9553 550.0794,-137.3436 522.6797,-125.5427"/>
<polygon fill="#191970" stroke="#191970" points="611.6969,-167.6926 622.2657,-168.4338 614.4658,-161.2635 611.6969,-167.6926"/>
</g>
<!-- Node11 -->
<g id="node11" class="node">
<title>Node11</title>
<g id="a_node11"><a xlink:href="../../df/d13/G4Setup__ModularDetectorBeast_8C.html" target="_top" xlink:title="fun4all_eicmacros/blob\l/master/detectors/ModularBeast\l/G4Setup_ModularDetectorBeast.C">
<polygon fill="none" stroke="#000000" points="571,-81.5 571,-125.5 764,-125.5 764,-81.5 571,-81.5"/>
<text text-anchor="start" x="579" y="-112.5" font-family="FreeSans" font-size="10.00" fill="#000000">fun4all_eicmacros/blob</text>
<text text-anchor="start" x="579" y="-100.5" font-family="FreeSans" font-size="10.00" fill="#000000">/master/detectors/ModularBeast</text>
<text text-anchor="middle" x="667.5" y="-88.5" font-family="FreeSans" font-size="10.00" fill="#000000">/G4Setup_ModularDetectorBeast.C</text>
</a>
</g>
</g>
<!-- Node8&#45;&gt;Node11 -->
<g id="edge10" class="edge">
<title>Node8&#45;&gt;Node11</title>
<path fill="none" stroke="#191970" d="M671.2648,-158.0893C670.5163,-147.2369 669.6999,-135.3979 669.0191,-125.5276"/>
<polygon fill="#191970" stroke="#191970" points="667.775,-158.3599 671.9549,-168.0953 674.7584,-157.8782 667.775,-158.3599"/>
</g>
<!-- Node10 -->
<g id="node10" class="node">
<title>Node10</title>
<g id="a_node10"><a xlink:href="../../d5/d97/Fun4All__G4__FullDetectorModular_8C.html" target="_top" xlink:title="fun4all_eicmacros/blob\l/master/detectors/Modular\l/Fun4All_G4_FullDetectorModular.C">
<polygon fill="none" stroke="#000000" points="374.5,-.5 374.5,-44.5 568.5,-44.5 568.5,-.5 374.5,-.5"/>
<text text-anchor="start" x="382.5" y="-31.5" font-family="FreeSans" font-size="10.00" fill="#000000">fun4all_eicmacros/blob</text>
<text text-anchor="start" x="382.5" y="-19.5" font-family="FreeSans" font-size="10.00" fill="#000000">/master/detectors/Modular</text>
<text text-anchor="middle" x="471.5" y="-7.5" font-family="FreeSans" font-size="10.00" fill="#000000">/Fun4All_G4_FullDetectorModular.C</text>
</a>
</g>
</g>
<!-- Node9&#45;&gt;Node10 -->
<g id="edge9" class="edge">
<title>Node9&#45;&gt;Node10</title>
<path fill="none" stroke="#191970" d="M471.5,-71.2457C471.5,-62.3118 471.5,-52.8188 471.5,-44.6068"/>
<polygon fill="#191970" stroke="#191970" points="468.0001,-71.3664 471.5,-81.3664 475.0001,-71.3664 468.0001,-71.3664"/>
</g>
<!-- Node12 -->
<g id="node12" class="node">
<title>Node12</title>
<g id="a_node12"><a xlink:href="../../d0/dce/Fun4All__G4__FullDetectorModularBeast_8C.html" target="_top" xlink:title="fun4all_eicmacros/blob\l/master/detectors/ModularBeast\l/Fun4All_G4_FullDetectorModularBeast.C">
<polygon fill="none" stroke="#000000" points="586,-.5 586,-44.5 809,-44.5 809,-.5 586,-.5"/>
<text text-anchor="start" x="594" y="-31.5" font-family="FreeSans" font-size="10.00" fill="#000000">fun4all_eicmacros/blob</text>
<text text-anchor="start" x="594" y="-19.5" font-family="FreeSans" font-size="10.00" fill="#000000">/master/detectors/ModularBeast</text>
<text text-anchor="middle" x="697.5" y="-7.5" font-family="FreeSans" font-size="10.00" fill="#000000">/Fun4All_G4_FullDetectorModularBeast.C</text>
</a>
</g>
</g>
<!-- Node11&#45;&gt;Node12 -->
<g id="edge11" class="edge">
<title>Node11&#45;&gt;Node12</title>
<path fill="none" stroke="#191970" d="M679.2305,-71.8276C682.6018,-62.7251 686.2047,-52.9973 689.3123,-44.6068"/>
<polygon fill="#191970" stroke="#191970" points="675.8887,-70.7733 675.6976,-81.3664 682.453,-73.2045 675.8887,-70.7733"/>
</g>
<!-- Node14 -->
<g id="node14" class="node">
<title>Node14</title>
<g id="a_node14"><a xlink:href="../../d7/dfd/G4__DSTReader__fsPHENIX_8C.html" target="_top" xlink:title="fun4all_macros/blob\l/master/common/G4_DSTReader\l_fsPHENIX.C">
<polygon fill="none" stroke="#000000" points="782,-81.5 782,-125.5 965,-125.5 965,-81.5 782,-81.5"/>
<text text-anchor="start" x="790" y="-112.5" font-family="FreeSans" font-size="10.00" fill="#000000">fun4all_macros/blob</text>
<text text-anchor="start" x="790" y="-100.5" font-family="FreeSans" font-size="10.00" fill="#000000">/master/common/G4_DSTReader</text>
<text text-anchor="middle" x="873.5" y="-88.5" font-family="FreeSans" font-size="10.00" fill="#000000">_fsPHENIX.C</text>
</a>
</g>
</g>
<!-- Node13&#45;&gt;Node14 -->
<g id="edge13" class="edge">
<title>Node13&#45;&gt;Node14</title>
<path fill="none" stroke="#191970" d="M869.1078,-158.0893C869.9809,-147.2369 870.9335,-135.3979 871.7277,-125.5276"/>
<polygon fill="#191970" stroke="#191970" points="865.616,-157.8468 868.3027,-168.0953 872.5935,-158.4083 865.616,-157.8468"/>
</g>
<!-- Node16 -->
<g id="node16" class="node">
<title>Node16</title>
<g id="a_node16"><a xlink:href="../../d6/d41/G4Setup__fsPHENIX_8C.html" target="_top" xlink:title="fun4all_macros/blob\l/master/detectors/fsPHENIX\l/G4Setup_fsPHENIX.C">
<polygon fill="none" stroke="#000000" points="983,-81.5 983,-125.5 1140,-125.5 1140,-81.5 983,-81.5"/>
<text text-anchor="start" x="991" y="-112.5" font-family="FreeSans" font-size="10.00" fill="#000000">fun4all_macros/blob</text>
<text text-anchor="start" x="991" y="-100.5" font-family="FreeSans" font-size="10.00" fill="#000000">/master/detectors/fsPHENIX</text>
<text text-anchor="middle" x="1061.5" y="-88.5" font-family="FreeSans" font-size="10.00" fill="#000000">/G4Setup_fsPHENIX.C</text>
</a>
</g>
</g>
<!-- Node13&#45;&gt;Node16 -->
<g id="edge15" class="edge">
<title>Node13&#45;&gt;Node16</title>
<path fill="none" stroke="#191970" d="M925.1566,-164.3301C952.8933,-151.9553 985.6437,-137.3436 1012.0939,-125.5427"/>
<polygon fill="#191970" stroke="#191970" points="923.6651,-161.163 915.9588,-168.4338 926.5172,-167.5556 923.6651,-161.163"/>
</g>
<!-- Node15 -->
<g id="node15" class="node">
<title>Node15</title>
<g id="a_node15"><a xlink:href="../../d7/d9e/Fun4All__G4__fsPHENIX_8C.html" target="_top" xlink:title="fun4all_macros/blob\l/master/detectors/fsPHENIX\l/Fun4All_G4_fsPHENIX.C">
<polygon fill="none" stroke="#000000" points="905,-.5 905,-44.5 1062,-44.5 1062,-.5 905,-.5"/>
<text text-anchor="start" x="913" y="-31.5" font-family="FreeSans" font-size="10.00" fill="#000000">fun4all_macros/blob</text>
<text text-anchor="start" x="913" y="-19.5" font-family="FreeSans" font-size="10.00" fill="#000000">/master/detectors/fsPHENIX</text>
<text text-anchor="middle" x="983.5" y="-7.5" font-family="FreeSans" font-size="10.00" fill="#000000">/Fun4All_G4_fsPHENIX.C</text>
</a>
</g>
</g>
<!-- Node14&#45;&gt;Node15 -->
<g id="edge14" class="edge">
<title>Node14&#45;&gt;Node15</title>
<path fill="none" stroke="#191970" d="M911.8249,-75.279C925.4708,-65.2306 940.6293,-54.0685 953.4784,-44.6068"/>
<polygon fill="#191970" stroke="#191970" points="909.5351,-72.6185 903.558,-81.3664 913.6857,-78.2552 909.5351,-72.6185"/>
</g>
<!-- Node16&#45;&gt;Node15 -->
<g id="edge16" class="edge">
<title>Node16&#45;&gt;Node15</title>
<path fill="none" stroke="#191970" d="M1033.2243,-74.1368C1023.8391,-64.3906 1013.5554,-53.7114 1004.7881,-44.6068"/>
<polygon fill="#191970" stroke="#191970" points="1030.7286,-76.5909 1040.1862,-81.3664 1035.7708,-71.7354 1030.7286,-76.5909"/>
</g>
<!-- Node18 -->
<g id="node18" class="node">
<title>Node18</title>
<g id="a_node18"><a xlink:href="../../dc/df3/fun4all__eic__qa_2blob_2master_2macros_2G4Setup__EICDetector_8C.html" target="_top" xlink:title="fun4all_eic_qa/blob\l/master/macros/G4Setup\l_EICDetector.C">
<polygon fill="none" stroke="#000000" points="1158.5,-81.5 1158.5,-125.5 1302.5,-125.5 1302.5,-81.5 1158.5,-81.5"/>
<text text-anchor="start" x="1166.5" y="-112.5" font-family="FreeSans" font-size="10.00" fill="#000000">fun4all_eic_qa/blob</text>
<text text-anchor="start" x="1166.5" y="-100.5" font-family="FreeSans" font-size="10.00" fill="#000000">/master/macros/G4Setup</text>
<text text-anchor="middle" x="1230.5" y="-88.5" font-family="FreeSans" font-size="10.00" fill="#000000">_EICDetector.C</text>
</a>
</g>
</g>
<!-- Node17&#45;&gt;Node18 -->
<g id="edge18" class="edge">
<title>Node17&#45;&gt;Node18</title>
<path fill="none" stroke="#191970" d="M1104.8146,-163.9123C1130.303,-151.661 1160.2017,-137.2898 1184.442,-125.6384"/>
<polygon fill="#191970" stroke="#191970" points="1103.1389,-160.8344 1095.6423,-168.3211 1106.1715,-167.1434 1103.1389,-160.8344"/>
</g>
<!-- Node20 -->
<g id="node20" class="node">
<title>Node20</title>
<g id="a_node20"><a xlink:href="../../d5/d14/fun4all__macros_2blob_2master_2detectors_2EICDetector_2G4Setup__EICDetector_8C.html" target="_top" xlink:title="fun4all_macros/blob\l/master/detectors/EICDetector\l/G4Setup_EICDetector.C">
<polygon fill="none" stroke="#000000" points="1321,-81.5 1321,-125.5 1492,-125.5 1492,-81.5 1321,-81.5"/>
<text text-anchor="start" x="1329" y="-112.5" font-family="FreeSans" font-size="10.00" fill="#000000">fun4all_macros/blob</text>
<text text-anchor="start" x="1329" y="-100.5" font-family="FreeSans" font-size="10.00" fill="#000000">/master/detectors/EICDetector</text>
<text text-anchor="middle" x="1406.5" y="-88.5" font-family="FreeSans" font-size="10.00" fill="#000000">/G4Setup_EICDetector.C</text>
</a>
</g>
</g>
<!-- Node17&#45;&gt;Node20 -->
<g id="edge20" class="edge">
<title>Node17&#45;&gt;Node20</title>
<path fill="none" stroke="#191970" d="M1131.4436,-165.7283C1136.1896,-164.4321 1140.9004,-163.1797 1145.5,-162 1218.6258,-143.2442 1237.8775,-142.7 1311.5,-126 1314.5579,-125.3064 1317.67,-124.5955 1320.8125,-123.8734"/>
<polygon fill="#191970" stroke="#191970" points="1130.3753,-162.3924 1121.6767,-168.4409 1132.2486,-169.1371 1130.3753,-162.3924"/>
</g>
<!-- Node19 -->
<g id="node19" class="node">
<title>Node19</title>
<g id="a_node19"><a xlink:href="../../d6/d79/fun4all__eic__qa_2blob_2master_2macros_2Fun4All__G4__EICDetector_8C.html" target="_top" xlink:title="fun4all_eic_qa/blob\l/master/macros/Fun4All\l_G4_EICDetector.C">
<polygon fill="none" stroke="#000000" points="1162,-.5 1162,-44.5 1299,-44.5 1299,-.5 1162,-.5"/>
<text text-anchor="start" x="1170" y="-31.5" font-family="FreeSans" font-size="10.00" fill="#000000">fun4all_eic_qa/blob</text>
<text text-anchor="start" x="1170" y="-19.5" font-family="FreeSans" font-size="10.00" fill="#000000">/master/macros/Fun4All</text>
<text text-anchor="middle" x="1230.5" y="-7.5" font-family="FreeSans" font-size="10.00" fill="#000000">_G4_EICDetector.C</text>
</a>
</g>
</g>
<!-- Node18&#45;&gt;Node19 -->
<g id="edge19" class="edge">
<title>Node18&#45;&gt;Node19</title>
<path fill="none" stroke="#191970" d="M1230.5,-71.2457C1230.5,-62.3118 1230.5,-52.8188 1230.5,-44.6068"/>
<polygon fill="#191970" stroke="#191970" points="1227.0001,-71.3664 1230.5,-81.3664 1234.0001,-71.3664 1227.0001,-71.3664"/>
</g>
<!-- Node21 -->
<g id="node21" class="node">
<title>Node21</title>
<g id="a_node21"><a xlink:href="../../d4/d91/fun4all__macros_2blob_2master_2detectors_2EICDetector_2Fun4All__G4__EICDetector_8C.html" target="_top" xlink:title="fun4all_macros/blob\l/master/detectors/EICDetector\l/Fun4All_G4_EICDetector.C">
<polygon fill="none" stroke="#000000" points="1321,-.5 1321,-44.5 1492,-44.5 1492,-.5 1321,-.5"/>
<text text-anchor="start" x="1329" y="-31.5" font-family="FreeSans" font-size="10.00" fill="#000000">fun4all_macros/blob</text>
<text text-anchor="start" x="1329" y="-19.5" font-family="FreeSans" font-size="10.00" fill="#000000">/master/detectors/EICDetector</text>
<text text-anchor="middle" x="1406.5" y="-7.5" font-family="FreeSans" font-size="10.00" fill="#000000">/Fun4All_G4_EICDetector.C</text>
</a>
</g>
</g>
<!-- Node20&#45;&gt;Node21 -->
<g id="edge21" class="edge">
<title>Node20&#45;&gt;Node21</title>
<path fill="none" stroke="#191970" d="M1406.5,-71.2457C1406.5,-62.3118 1406.5,-52.8188 1406.5,-44.6068"/>
<polygon fill="#191970" stroke="#191970" points="1403.0001,-71.3664 1406.5,-81.3664 1410.0001,-71.3664 1403.0001,-71.3664"/>
</g>
</g>
</svg>
