<?xml version="1.0" encoding="UTF-8" standalone="no"?>
<!DOCTYPE svg PUBLIC "-//W3C//DTD SVG 1.1//EN"
 "http://www.w3.org/Graphics/SVG/1.1/DTD/svg11.dtd">
<!-- Generated by graphviz version 2.40.1 (20161225.0304)
 -->
<!-- Title: Intt_Cells Pages: 1 -->
<svg width="642pt" height="356pt"
 viewBox="0.00 0.00 642.00 356.00" xmlns="http://www.w3.org/2000/svg" xmlns:xlink="http://www.w3.org/1999/xlink">
<g id="graph0" class="graph" transform="scale(1 1) rotate(0) translate(4 352)">
<title>Intt_Cells</title>
<!-- Node1 -->
<g id="node1" class="node">
<title>Node1</title>
<polygon fill="#bfbfbf" stroke="#000000" points="0,-218.5 0,-238.5 62,-238.5 62,-218.5 0,-218.5"/>
<text text-anchor="middle" x="31" y="-225.5" font-family="FreeSans" font-size="10.00" fill="#000000">Intt_Cells</text>
</g>
<!-- Node2 -->
<g id="node2" class="node">
<title>Node2</title>
<g id="a_node2"><a xlink:href="../../d2/d07/classPHG4InttDeadMapLoader.html#af4dbb264291539cbf5e9d6ce74aa0bb7" target="_top" xlink:title="PHG4InttDeadMapLoader\l::deadMapPath">
<polygon fill="none" stroke="#000000" points="120,-315.5 120,-347.5 264,-347.5 264,-315.5 120,-315.5"/>
<text text-anchor="start" x="128" y="-334.5" font-family="FreeSans" font-size="10.00" fill="#000000">PHG4InttDeadMapLoader</text>
<text text-anchor="middle" x="192" y="-322.5" font-family="FreeSans" font-size="10.00" fill="#000000">::deadMapPath</text>
</a>
</g>
</g>
<!-- Node1&#45;&gt;Node2 -->
<g id="edge1" class="edge">
<title>Node1&#45;&gt;Node2</title>
<path fill="none" stroke="#191970" d="M37.8195,-238.6118C48.7593,-254.092 71.6923,-283.6393 98,-300.5 104.5104,-304.6726 111.6366,-308.3361 118.9607,-311.5406"/>
<polygon fill="#191970" stroke="#191970" points="117.7314,-314.8191 128.3126,-315.3579 120.3769,-308.3382 117.7314,-314.8191"/>
</g>
<!-- Node3 -->
<g id="node3" class="node">
<title>Node3</title>
<g id="a_node3"><a xlink:href="../../df/de8/cemc_8C.html#adf5c804dfce7a70e36dda02995fad481" target="_top" xlink:title="exit">
<polygon fill="none" stroke="#000000" points="372.5,-297.5 372.5,-317.5 407.5,-317.5 407.5,-297.5 372.5,-297.5"/>
<text text-anchor="middle" x="390" y="-304.5" font-family="FreeSans" font-size="10.00" fill="#000000">exit</text>
</a>
</g>
</g>
<!-- Node1&#45;&gt;Node3 -->
<g id="edge2" class="edge">
<title>Node1&#45;&gt;Node3</title>
<path fill="none" stroke="#191970" d="M49.2379,-238.5801C62.4184,-245.4522 80.8482,-254.2293 98,-259.5 192.2162,-288.4526 309.2154,-300.9682 361.9334,-305.4226"/>
<polygon fill="#191970" stroke="#191970" points="361.9255,-308.9333 372.1758,-306.2537 362.4917,-301.9563 361.9255,-308.9333"/>
</g>
<!-- Node4 -->
<g id="node4" class="node">
<title>Node4</title>
<g id="a_node4"><a xlink:href="../../da/d29/classFun4AllServer.html#a3e55156f91b2c94bb6c4ef33ffce587a" target="_top" xlink:title="Fun4AllServer::instance">
<polygon fill="none" stroke="#000000" points="322,-258.5 322,-278.5 458,-278.5 458,-258.5 322,-258.5"/>
<text text-anchor="middle" x="390" y="-265.5" font-family="FreeSans" font-size="10.00" fill="#000000">Fun4AllServer::instance</text>
</a>
</g>
</g>
<!-- Node1&#45;&gt;Node4 -->
<g id="edge3" class="edge">
<title>Node1&#45;&gt;Node4</title>
<path fill="none" stroke="#191970" d="M62.2309,-231.9798C117.3314,-238.1191 233.3561,-251.0466 311.5075,-259.7543"/>
<polygon fill="#191970" stroke="#191970" points="311.4699,-263.2717 321.796,-260.9007 312.2451,-256.3148 311.4699,-263.2717"/>
</g>
<!-- Node5 -->
<g id="node5" class="node">
<title>Node5</title>
<g id="a_node5"><a xlink:href="../../da/d29/classFun4AllServer.html#a0a9947db0ede1e55622001eb7515f8c0" target="_top" xlink:title="Fun4AllServer::registerSubsystem">
<polygon fill="none" stroke="#000000" points="98,-199.5 98,-219.5 286,-219.5 286,-199.5 98,-199.5"/>
<text text-anchor="middle" x="192" y="-206.5" font-family="FreeSans" font-size="10.00" fill="#000000">Fun4AllServer::registerSubsystem</text>
</a>
</g>
</g>
<!-- Node1&#45;&gt;Node5 -->
<g id="edge4" class="edge">
<title>Node1&#45;&gt;Node5</title>
<path fill="none" stroke="#191970" d="M62.0424,-224.8366C72.353,-223.6198 84.4308,-222.1945 96.9963,-220.7116"/>
<polygon fill="#191970" stroke="#191970" points="97.6327,-224.1609 107.1536,-219.5129 96.8123,-217.2091 97.6327,-224.1609"/>
</g>
<!-- Node14 -->
<g id="node14" class="node">
<title>Node14</title>
<g id="a_node14"><a xlink:href="../../dd/da0/classPHG4InttDigitizer.html#a805a16cef10d1ce89942c354c0816647" target="_top" xlink:title="PHG4InttDigitizer::\lset_adc_scale">
<polygon fill="none" stroke="#000000" points="137.5,-148.5 137.5,-180.5 246.5,-180.5 246.5,-148.5 137.5,-148.5"/>
<text text-anchor="start" x="145.5" y="-167.5" font-family="FreeSans" font-size="10.00" fill="#000000">PHG4InttDigitizer::</text>
<text text-anchor="middle" x="192" y="-155.5" font-family="FreeSans" font-size="10.00" fill="#000000">set_adc_scale</text>
</a>
</g>
</g>
<!-- Node1&#45;&gt;Node14 -->
<g id="edge19" class="edge">
<title>Node1&#45;&gt;Node14</title>
<path fill="none" stroke="#191970" d="M46.1535,-218.4676C59.3875,-210.0625 79.346,-198.2309 98,-190.5 107.2679,-186.659 117.2811,-183.2033 127.1981,-180.1602"/>
<polygon fill="#191970" stroke="#191970" points="128.4496,-183.4403 137.0519,-177.2556 126.4704,-176.7259 128.4496,-183.4403"/>
</g>
<!-- Node15 -->
<g id="node15" class="node">
<title>Node15</title>
<g id="a_node15"><a xlink:href="../../d5/dec/classFun4AllBase.html#a05da2261577843028cf78e99171343b9" target="_top" xlink:title="Sets the verbosity of this module (0 by default=quiet).">
<polygon fill="none" stroke="#000000" points="126,-109.5 126,-129.5 258,-129.5 258,-109.5 126,-109.5"/>
<text text-anchor="middle" x="192" y="-116.5" font-family="FreeSans" font-size="10.00" fill="#000000">Fun4AllBase::Verbosity</text>
</a>
</g>
</g>
<!-- Node1&#45;&gt;Node15 -->
<g id="edge20" class="edge">
<title>Node1&#45;&gt;Node15</title>
<path fill="none" stroke="#191970" d="M35.5979,-218.3367C44.6569,-199.5437 66.6888,-159.4623 98,-139.5 103.6715,-135.8842 109.8877,-132.9112 116.3364,-130.4683"/>
<polygon fill="#191970" stroke="#191970" points="117.547,-133.7539 125.9146,-127.2552 115.3207,-127.1174 117.547,-133.7539"/>
</g>
<!-- Node5&#45;&gt;Node3 -->
<g id="edge6" class="edge">
<title>Node5&#45;&gt;Node3</title>
<path fill="none" stroke="#191970" d="M205.7355,-219.6053C228.7285,-236.1065 276.9341,-268.9526 322,-288.5 334.8268,-294.0637 349.7229,-298.4414 362.2979,-301.5854"/>
<polygon fill="#191970" stroke="#191970" points="361.6811,-305.0361 372.2186,-303.9352 363.2946,-298.2246 361.6811,-305.0361"/>
</g>
<!-- Node5&#45;&gt;Node4 -->
<g id="edge5" class="edge">
<title>Node5&#45;&gt;Node4</title>
<path fill="none" stroke="#191970" d="M234.4762,-219.5019C250.7388,-223.6681 269.3705,-228.8529 286,-234.5 302.4128,-240.0735 305.6224,-243.8238 322,-249.5 328.0805,-251.6074 334.5269,-253.6495 340.9334,-255.5645"/>
<polygon fill="#191970" stroke="#191970" points="340.3304,-259.0338 350.9096,-258.4602 342.2817,-252.3113 340.3304,-259.0338"/>
</g>
<!-- Node6 -->
<g id="node6" class="node">
<title>Node6</title>
<g id="a_node6"><a xlink:href="../../d5/dec/classFun4AllBase.html#a41f9ac377743d046f590617fd6f4f0ed" target="_top" xlink:title="Returns the name of this module.">
<polygon fill="none" stroke="#000000" points="332.5,-219.5 332.5,-239.5 447.5,-239.5 447.5,-219.5 332.5,-219.5"/>
<text text-anchor="middle" x="390" y="-226.5" font-family="FreeSans" font-size="10.00" fill="#000000">Fun4AllBase::Name</text>
</a>
</g>
</g>
<!-- Node5&#45;&gt;Node6 -->
<g id="edge7" class="edge">
<title>Node5&#45;&gt;Node6</title>
<path fill="none" stroke="#191970" d="M286.0711,-219.0021C298.2645,-220.2338 310.5579,-221.4755 322.2088,-222.6524"/>
<polygon fill="#191970" stroke="#191970" points="321.9623,-226.1452 332.2635,-223.668 322.6659,-219.1807 321.9623,-226.1452"/>
</g>
<!-- Node7 -->
<g id="node7" class="node">
<title>Node7</title>
<g id="a_node7"><a xlink:href="../../da/d29/classFun4AllServer.html#abcaf6825367e5db292ff795237bdcf62" target="_top" xlink:title="Fun4AllServer::topNode">
<polygon fill="none" stroke="#000000" points="322,-180.5 322,-200.5 458,-200.5 458,-180.5 322,-180.5"/>
<text text-anchor="middle" x="390" y="-187.5" font-family="FreeSans" font-size="10.00" fill="#000000">Fun4AllServer::topNode</text>
</a>
</g>
</g>
<!-- Node5&#45;&gt;Node7 -->
<g id="edge8" class="edge">
<title>Node5&#45;&gt;Node7</title>
<path fill="none" stroke="#191970" d="M286.0711,-200.473C294.6545,-199.6493 303.2874,-198.8209 311.7109,-198.0126"/>
<polygon fill="#191970" stroke="#191970" points="312.2446,-201.4775 321.8645,-197.0383 311.5759,-194.5096 312.2446,-201.4775"/>
</g>
<!-- Node8 -->
<g id="node8" class="node">
<title>Node8</title>
<g id="a_node8"><a xlink:href="../../d7/d96/classFun4AllMemoryTracker.html#a3841cc0bc6c4047da2b4868ba39dbb8c" target="_top" xlink:title="Fun4AllMemoryTracker\l::Start">
<polygon fill="none" stroke="#000000" points="324,-129.5 324,-161.5 456,-161.5 456,-129.5 324,-129.5"/>
<text text-anchor="start" x="332" y="-148.5" font-family="FreeSans" font-size="10.00" fill="#000000">Fun4AllMemoryTracker</text>
<text text-anchor="middle" x="390" y="-136.5" font-family="FreeSans" font-size="10.00" fill="#000000">::Start</text>
</a>
</g>
</g>
<!-- Node5&#45;&gt;Node8 -->
<g id="edge9" class="edge">
<title>Node5&#45;&gt;Node8</title>
<path fill="none" stroke="#191970" d="M254.6263,-199.4506C265.2402,-197.0094 276.0418,-194.051 286,-190.5 303.0407,-184.4235 305.5209,-178.9664 322,-171.5 326.6302,-169.4022 331.4839,-167.3217 336.3766,-165.3051"/>
<polygon fill="#191970" stroke="#191970" points="337.8156,-168.4988 345.7852,-161.5176 335.2016,-162.0052 337.8156,-168.4988"/>
</g>
<!-- Node11 -->
<g id="node11" class="node">
<title>Node11</title>
<g id="a_node11"><a xlink:href="../../d5/dec/classFun4AllBase.html#a8a5c77a92bdac6bc043476e132379a40" target="_top" xlink:title="Gets the verbosity of this module.">
<polygon fill="none" stroke="#000000" points="498,-39.5 498,-59.5 630,-59.5 630,-39.5 498,-39.5"/>
<text text-anchor="middle" x="564" y="-46.5" font-family="FreeSans" font-size="10.00" fill="#000000">Fun4AllBase::Verbosity</text>
</a>
</g>
</g>
<!-- Node5&#45;&gt;Node11 -->
<g id="edge18" class="edge">
<title>Node5&#45;&gt;Node11</title>
<path fill="none" stroke="#191970" d="M273.3791,-199.3481C277.9318,-196.9072 282.1943,-193.9865 286,-190.5 327.6854,-152.3113 278.0803,-104.0965 322,-68.5 374.7496,-25.747 456.957,-29.2823 510.6493,-37.776"/>
<polygon fill="#191970" stroke="#191970" points="510.216,-41.2524 520.6597,-39.469 511.3834,-34.3504 510.216,-41.2524"/>
</g>
<!-- Node12 -->
<g id="node12" class="node">
<title>Node12</title>
<g id="a_node12"><a xlink:href="../../d0/d32/classSubsysReco.html#a6670c0a093dd2c2bdd44f8fc6f9ba8e8" target="_top" xlink:title="SubsysReco::Init">
<polygon fill="none" stroke="#000000" points="340,-.5 340,-20.5 440,-20.5 440,-.5 340,-.5"/>
<text text-anchor="middle" x="390" y="-7.5" font-family="FreeSans" font-size="10.00" fill="#000000">SubsysReco::Init</text>
</a>
</g>
</g>
<!-- Node5&#45;&gt;Node12 -->
<g id="edge13" class="edge">
<title>Node5&#45;&gt;Node12</title>
<path fill="none" stroke="#191970" d="M274.0541,-199.3598C278.3841,-196.9066 282.4177,-193.9807 286,-190.5 336.7226,-141.2162 275.1888,-88.5131 322,-35.5 325.5006,-31.5356 329.6857,-28.1991 334.236,-25.3911"/>
<polygon fill="#191970" stroke="#191970" points="336.1178,-28.3566 343.3527,-20.6166 332.8702,-22.1555 336.1178,-28.3566"/>
</g>
<!-- Node13 -->
<g id="node13" class="node">
<title>Node13</title>
<g id="a_node13"><a xlink:href="../../d7/d96/classFun4AllMemoryTracker.html#a766ac66dd36ffa4e3fbe6e622923565f" target="_top" xlink:title="Fun4AllMemoryTracker\l::Stop">
<polygon fill="none" stroke="#000000" points="324,-78.5 324,-110.5 456,-110.5 456,-78.5 324,-78.5"/>
<text text-anchor="start" x="332" y="-97.5" font-family="FreeSans" font-size="10.00" fill="#000000">Fun4AllMemoryTracker</text>
<text text-anchor="middle" x="390" y="-85.5" font-family="FreeSans" font-size="10.00" fill="#000000">::Stop</text>
</a>
</g>
</g>
<!-- Node5&#45;&gt;Node13 -->
<g id="edge14" class="edge">
<title>Node5&#45;&gt;Node13</title>
<path fill="none" stroke="#191970" d="M270.8187,-199.3282C276.2189,-196.9249 281.3526,-194.0155 286,-190.5 313.9009,-169.3945 295.9421,-143.8428 322,-120.5 323.721,-118.9583 325.543,-117.5042 327.4428,-116.133"/>
<polygon fill="#191970" stroke="#191970" points="329.5888,-118.9184 336.1985,-110.6381 325.8678,-112.9893 329.5888,-118.9184"/>
</g>
<!-- Node9 -->
<g id="node9" class="node">
<title>Node9</title>
<g id="a_node9"><a xlink:href="../../d7/d96/classFun4AllMemoryTracker.html#aa8eb9ed150f51165b9abfd456c18a432" target="_top" xlink:title="Fun4AllMemoryTracker\l::CreateFullTrackerName">
<polygon fill="none" stroke="#000000" points="494,-129.5 494,-161.5 634,-161.5 634,-129.5 494,-129.5"/>
<text text-anchor="start" x="502" y="-148.5" font-family="FreeSans" font-size="10.00" fill="#000000">Fun4AllMemoryTracker</text>
<text text-anchor="middle" x="564" y="-136.5" font-family="FreeSans" font-size="10.00" fill="#000000">::CreateFullTrackerName</text>
</a>
</g>
</g>
<!-- Node8&#45;&gt;Node9 -->
<g id="edge10" class="edge">
<title>Node8&#45;&gt;Node9</title>
<path fill="none" stroke="#191970" d="M456.2783,-145.5C465.21,-145.5 474.4511,-145.5 483.5944,-145.5"/>
<polygon fill="#191970" stroke="#191970" points="483.8544,-149.0001 493.8544,-145.5 483.8544,-142.0001 483.8544,-149.0001"/>
</g>
<!-- Node10 -->
<g id="node10" class="node">
<title>Node10</title>
<g id="a_node10"><a xlink:href="../../d7/d96/classFun4AllMemoryTracker.html#a4059a8c86c92e1708e5bbdc585af99ed" target="_top" xlink:title="Fun4AllMemoryTracker\l::GetRSSMemory">
<polygon fill="none" stroke="#000000" points="498,-78.5 498,-110.5 630,-110.5 630,-78.5 498,-78.5"/>
<text text-anchor="start" x="506" y="-97.5" font-family="FreeSans" font-size="10.00" fill="#000000">Fun4AllMemoryTracker</text>
<text text-anchor="middle" x="564" y="-85.5" font-family="FreeSans" font-size="10.00" fill="#000000">::GetRSSMemory</text>
</a>
</g>
</g>
<!-- Node8&#45;&gt;Node10 -->
<g id="edge11" class="edge">
<title>Node8&#45;&gt;Node10</title>
<path fill="none" stroke="#191970" d="M445.0547,-129.3633C462.3601,-124.291 481.6237,-118.6448 499.5217,-113.3988"/>
<polygon fill="#191970" stroke="#191970" points="500.6916,-116.7032 509.3035,-110.5317 498.7227,-109.9858 500.6916,-116.7032"/>
</g>
<!-- Node8&#45;&gt;Node11 -->
<g id="edge12" class="edge">
<title>Node8&#45;&gt;Node11</title>
<path fill="none" stroke="#191970" d="M443.6606,-129.4318C448.7431,-126.8497 453.6238,-123.8879 458,-120.5 480.227,-103.2929 471.0436,-84.7212 494,-68.5 496.4103,-66.7968 498.9661,-65.2463 501.6204,-63.8346"/>
<polygon fill="#191970" stroke="#191970" points="503.3275,-66.9023 510.9566,-59.5506 500.4081,-60.5401 503.3275,-66.9023"/>
</g>
<!-- Node13&#45;&gt;Node9 -->
<g id="edge15" class="edge">
<title>Node13&#45;&gt;Node9</title>
<path fill="none" stroke="#191970" d="M445.0547,-110.6367C462.3601,-115.709 481.6237,-121.3552 499.5217,-126.6012"/>
<polygon fill="#191970" stroke="#191970" points="498.7227,-130.0142 509.3035,-129.4683 500.6916,-123.2968 498.7227,-130.0142"/>
</g>
<!-- Node13&#45;&gt;Node10 -->
<g id="edge16" class="edge">
<title>Node13&#45;&gt;Node10</title>
<path fill="none" stroke="#191970" d="M456.2783,-94.5C466.6131,-94.5 477.3621,-94.5 487.8946,-94.5"/>
<polygon fill="#191970" stroke="#191970" points="487.906,-98.0001 497.906,-94.5 487.9059,-91.0001 487.906,-98.0001"/>
</g>
<!-- Node13&#45;&gt;Node11 -->
<g id="edge17" class="edge">
<title>Node13&#45;&gt;Node11</title>
<path fill="none" stroke="#191970" d="M452.3265,-78.3811C473.0034,-73.0336 495.7073,-67.1619 515.213,-62.1173"/>
<polygon fill="#191970" stroke="#191970" points="516.2889,-65.4543 525.094,-59.5619 514.5362,-58.6773 516.2889,-65.4543"/>
</g>
</g>
</svg>
