<?xml version="1.0" encoding="UTF-8" standalone="no"?>
<!DOCTYPE svg PUBLIC "-//W3C//DTD SVG 1.1//EN"
 "http://www.w3.org/Graphics/SVG/1.1/DTD/svg11.dtd">
<!-- Generated by graphviz version 2.40.1 (20161225.0304)
 -->
<!-- Title: erhic::FileType::SetGeneratorName Pages: 1 -->
<svg width="966pt" height="146pt"
 viewBox="0.00 0.00 966.00 146.00" xmlns="http://www.w3.org/2000/svg" xmlns:xlink="http://www.w3.org/1999/xlink">
<g id="graph0" class="graph" transform="scale(1 1) rotate(0) translate(4 142)">
<title>erhic::FileType::SetGeneratorName</title>
<!-- Node1 -->
<g id="node1" class="node">
<title>Node1</title>
<polygon fill="#bfbfbf" stroke="#000000" points="0,-60.5 0,-80.5 192,-80.5 192,-60.5 0,-60.5"/>
<text text-anchor="middle" x="96" y="-67.5" font-family="FreeSans" font-size="10.00" fill="#000000">erhic::FileType::SetGeneratorName</text>
</g>
<!-- Node2 -->
<g id="node2" class="node">
<title>Node2</title>
<g id="a_node2"><a xlink:href="../../d4/da9/classerhic_1_1FileFactory.html#ae083c8a4be0d80b045886e566069bf6a" target="_top" xlink:title="erhic::FileFactory\l::GetFile">
<polygon fill="none" stroke="#000000" points="228,-54.5 228,-86.5 330,-86.5 330,-54.5 228,-54.5"/>
<text text-anchor="start" x="236" y="-73.5" font-family="FreeSans" font-size="10.00" fill="#000000">erhic::FileFactory</text>
<text text-anchor="middle" x="279" y="-61.5" font-family="FreeSans" font-size="10.00" fill="#000000">::GetFile</text>
</a>
</g>
</g>
<!-- Node1&#45;&gt;Node2 -->
<g id="edge1" class="edge">
<title>Node1&#45;&gt;Node2</title>
<path fill="none" stroke="#191970" d="M202.0648,-70.5C210.8765,-70.5 219.5033,-70.5 227.6068,-70.5"/>
<polygon fill="#191970" stroke="#191970" points="202.0555,-67.0001 192.0555,-70.5 202.0554,-74.0001 202.0555,-67.0001"/>
</g>
<!-- Node3 -->
<g id="node3" class="node">
<title>Node3</title>
<g id="a_node3"><a xlink:href="../../d4/da9/classerhic_1_1FileFactory.html#a00e852b534f68c0bb18b7f1dba508a51" target="_top" xlink:title="erhic::FileFactory\l::GetFile">
<polygon fill="none" stroke="#000000" points="389.5,-77.5 389.5,-109.5 491.5,-109.5 491.5,-77.5 389.5,-77.5"/>
<text text-anchor="start" x="397.5" y="-96.5" font-family="FreeSans" font-size="10.00" fill="#000000">erhic::FileFactory</text>
<text text-anchor="middle" x="440.5" y="-84.5" font-family="FreeSans" font-size="10.00" fill="#000000">::GetFile</text>
</a>
</g>
</g>
<!-- Node2&#45;&gt;Node3 -->
<g id="edge2" class="edge">
<title>Node2&#45;&gt;Node3</title>
<path fill="none" stroke="#191970" d="M340.0661,-79.1967C356.3503,-81.5158 373.7717,-83.9969 389.4558,-86.2306"/>
<polygon fill="#191970" stroke="#191970" points="340.4932,-75.7223 330.0996,-77.7773 339.5062,-82.6524 340.4932,-75.7223"/>
</g>
<!-- Node4 -->
<g id="node4" class="node">
<title>Node4</title>
<g id="a_node4"><a xlink:href="../../da/d40/classerhic_1_1Forester.html#a968a154a17b9fcc6f385c8ea0fc0394b" target="_top" xlink:title="erhic::Forester::OpenInput">
<polygon fill="none" stroke="#000000" points="366,-38.5 366,-58.5 515,-58.5 515,-38.5 366,-38.5"/>
<text text-anchor="middle" x="440.5" y="-45.5" font-family="FreeSans" font-size="10.00" fill="#000000">erhic::Forester::OpenInput</text>
</a>
</g>
</g>
<!-- Node2&#45;&gt;Node4 -->
<g id="edge3" class="edge">
<title>Node2&#45;&gt;Node4</title>
<path fill="none" stroke="#191970" d="M340.2055,-62.1624C348.9648,-60.9692 358.0506,-59.7315 367.0159,-58.5102"/>
<polygon fill="#191970" stroke="#191970" points="339.5357,-58.7212 330.0996,-63.5391 340.4805,-65.6572 339.5357,-58.7212"/>
</g>
<!-- Node5 -->
<g id="node5" class="node">
<title>Node5</title>
<g id="a_node5"><a xlink:href="../../da/d40/classerhic_1_1Forester.html#a8d3040ffb1d358e9cb097e95c9ac2618" target="_top" xlink:title="erhic::Forester::Plant">
<polygon fill="none" stroke="#000000" points="551,-58.5 551,-78.5 673,-78.5 673,-58.5 551,-58.5"/>
<text text-anchor="middle" x="612" y="-65.5" font-family="FreeSans" font-size="10.00" fill="#000000">erhic::Forester::Plant</text>
</a>
</g>
</g>
<!-- Node4&#45;&gt;Node5 -->
<g id="edge4" class="edge">
<title>Node4&#45;&gt;Node5</title>
<path fill="none" stroke="#191970" d="M525.3244,-58.3921C533.9515,-59.3981 542.5912,-60.4057 550.894,-61.3739"/>
<polygon fill="#191970" stroke="#191970" points="525.5616,-54.8961 515.2235,-57.2141 524.7507,-61.849 525.5616,-54.8961"/>
</g>
<!-- Node12 -->
<g id="node12" class="node">
<title>Node12</title>
<g id="a_node12"><a xlink:href="../../d8/dba/classPoacher.html#a6045ebabf594cf344f38669fd7eaaa9f" target="_top" xlink:title="Poacher::Poacher">
<polygon fill="none" stroke="#000000" points="560,-19.5 560,-39.5 664,-39.5 664,-19.5 560,-19.5"/>
<text text-anchor="middle" x="612" y="-26.5" font-family="FreeSans" font-size="10.00" fill="#000000">Poacher::Poacher</text>
</a>
</g>
</g>
<!-- Node4&#45;&gt;Node12 -->
<g id="edge11" class="edge">
<title>Node4&#45;&gt;Node12</title>
<path fill="none" stroke="#191970" d="M525.5183,-39.0811C537.2637,-37.7798 549.0274,-36.4766 559.9278,-35.2689"/>
<polygon fill="#191970" stroke="#191970" points="524.7773,-35.6417 515.2235,-40.2216 525.5481,-42.5991 524.7773,-35.6417"/>
</g>
<!-- Node6 -->
<g id="node6" class="node">
<title>Node6</title>
<g id="a_node6"><a xlink:href="../../d5/d0b/BuildTree_8cxx.html#a5052bc1bc979721d2f580173be7fffbf" target="_top" xlink:title="BuildTree">
<polygon fill="none" stroke="#000000" points="709,-58.5 709,-78.5 772,-78.5 772,-58.5 709,-58.5"/>
<text text-anchor="middle" x="740.5" y="-65.5" font-family="FreeSans" font-size="10.00" fill="#000000">BuildTree</text>
</a>
</g>
</g>
<!-- Node5&#45;&gt;Node6 -->
<g id="edge5" class="edge">
<title>Node5&#45;&gt;Node6</title>
<path fill="none" stroke="#191970" d="M683.3104,-68.5C692.1946,-68.5 700.8966,-68.5 708.7256,-68.5"/>
<polygon fill="#191970" stroke="#191970" points="683.2393,-65.0001 673.2393,-68.5 683.2392,-72.0001 683.2393,-65.0001"/>
</g>
<!-- Node7 -->
<g id="node7" class="node">
<title>Node7</title>
<g id="a_node7"><a xlink:href="../../d9/d8b/build_8cxx.html#a7e405971f86730952f175f9d706988dc" target="_top" xlink:title="build">
<polygon fill="none" stroke="#000000" points="824,-117.5 824,-137.5 865,-137.5 865,-117.5 824,-117.5"/>
<text text-anchor="middle" x="844.5" y="-124.5" font-family="FreeSans" font-size="10.00" fill="#000000">build</text>
</a>
</g>
</g>
<!-- Node6&#45;&gt;Node7 -->
<g id="edge6" class="edge">
<title>Node6&#45;&gt;Node7</title>
<path fill="none" stroke="#191970" d="M765.6017,-83.82C778.2266,-91.4112 793.8216,-100.6165 808,-108.5 813.3696,-111.4856 819.2506,-114.6095 824.6936,-117.4418"/>
<polygon fill="#191970" stroke="#191970" points="767.3652,-80.7963 756.9964,-78.6197 763.7448,-86.7873 767.3652,-80.7963"/>
</g>
<!-- Node9 -->
<g id="node9" class="node">
<title>Node9</title>
<g id="a_node9"><a xlink:href="../../d2/d99/ConvertFile_8C.html#ab987e2b1430fa988aa50a3fe337ed120" target="_top" xlink:title="ConvertFile">
<polygon fill="none" stroke="#000000" points="808,-78.5 808,-98.5 881,-98.5 881,-78.5 808,-78.5"/>
<text text-anchor="middle" x="844.5" y="-85.5" font-family="FreeSans" font-size="10.00" fill="#000000">ConvertFile</text>
</a>
</g>
</g>
<!-- Node6&#45;&gt;Node9 -->
<g id="edge8" class="edge">
<title>Node6&#45;&gt;Node9</title>
<path fill="none" stroke="#191970" d="M782.3181,-76.5419C790.7601,-78.1654 799.5748,-79.8605 807.8243,-81.447"/>
<polygon fill="#191970" stroke="#191970" points="782.7496,-73.0609 772.2685,-74.6093 781.4276,-79.9349 782.7496,-73.0609"/>
</g>
<!-- Node10 -->
<g id="node10" class="node">
<title>Node10</title>
<g id="a_node10"><a xlink:href="../../d3/d8a/ffqaplots_8cxx.html#a0ddf1224851353fc92bfbff6f499fa97" target="_top" xlink:title="main">
<polygon fill="none" stroke="#000000" points="824,-39.5 824,-59.5 865,-59.5 865,-39.5 824,-39.5"/>
<text text-anchor="middle" x="844.5" y="-46.5" font-family="FreeSans" font-size="10.00" fill="#000000">main</text>
</a>
</g>
</g>
<!-- Node6&#45;&gt;Node10 -->
<g id="edge9" class="edge">
<title>Node6&#45;&gt;Node10</title>
<path fill="none" stroke="#191970" d="M782.3833,-60.8483C796.6177,-58.2477 811.9042,-55.455 823.7508,-53.2907"/>
<polygon fill="#191970" stroke="#191970" points="781.4767,-57.4559 772.2685,-62.6961 782.7348,-64.3419 781.4767,-57.4559"/>
</g>
<!-- Node11 -->
<g id="node11" class="node">
<title>Node11</title>
<g id="a_node11"><a xlink:href="../../d6/daa/eic-smear_2blob_2master_2scripts_2make__tree_8C.html#ad98edec9140718d23ff300dca406bd35" target="_top" xlink:title="make_tree">
<polygon fill="none" stroke="#000000" points="810,-.5 810,-20.5 879,-20.5 879,-.5 810,-.5"/>
<text text-anchor="middle" x="844.5" y="-7.5" font-family="FreeSans" font-size="10.00" fill="#000000">make_tree</text>
</a>
</g>
</g>
<!-- Node6&#45;&gt;Node11 -->
<g id="edge10" class="edge">
<title>Node6&#45;&gt;Node11</title>
<path fill="none" stroke="#191970" d="M767.1508,-53.4038C779.5509,-46.4037 794.5095,-37.993 808,-30.5 813.8114,-27.2722 820.1599,-23.7813 825.9088,-20.6334"/>
<polygon fill="#191970" stroke="#191970" points="765.2175,-50.476 758.2337,-58.4433 768.6617,-56.5701 765.2175,-50.476"/>
</g>
<!-- Node8 -->
<g id="node8" class="node">
<title>Node8</title>
<g id="a_node8"><a xlink:href="../../df/dea/RecCKFTracks_8cpp.html#a0ddf1224851353fc92bfbff6f499fa97" target="_top" xlink:title="main">
<polygon fill="none" stroke="#000000" points="917,-117.5 917,-137.5 958,-137.5 958,-117.5 917,-117.5"/>
<text text-anchor="middle" x="937.5" y="-124.5" font-family="FreeSans" font-size="10.00" fill="#000000">main</text>
</a>
</g>
</g>
<!-- Node7&#45;&gt;Node8 -->
<g id="edge7" class="edge">
<title>Node7&#45;&gt;Node8</title>
<path fill="none" stroke="#191970" d="M875.5298,-127.5C889.1497,-127.5 904.7682,-127.5 916.918,-127.5"/>
<polygon fill="#191970" stroke="#191970" points="875.1397,-124.0001 865.1397,-127.5 875.1397,-131.0001 875.1397,-124.0001"/>
</g>
</g>
</svg>
