<?xml version="1.0" encoding="UTF-8" standalone="no"?>
<!DOCTYPE svg PUBLIC "-//W3C//DTD SVG 1.1//EN"
 "http://www.w3.org/Graphics/SVG/1.1/DTD/svg11.dtd">
<!-- Generated by graphviz version 2.40.1 (20161225.0304)
 -->
<!-- Title: PHG4DisplayAction::ApplyDisplayAction Pages: 1 -->
<svg width="741pt" height="482pt"
 viewBox="0.00 0.00 741.00 482.00" xmlns="http://www.w3.org/2000/svg" xmlns:xlink="http://www.w3.org/1999/xlink">
<g id="graph0" class="graph" transform="scale(1 1) rotate(0) translate(4 478)">
<title>PHG4DisplayAction::ApplyDisplayAction</title>
<!-- Node1 -->
<g id="node1" class="node">
<title>Node1</title>
<polygon fill="#bfbfbf" stroke="#000000" points="0,-293.5 0,-325.5 119,-325.5 119,-293.5 0,-293.5"/>
<text text-anchor="start" x="8" y="-312.5" font-family="FreeSans" font-size="10.00" fill="#000000">PHG4DisplayAction::</text>
<text text-anchor="middle" x="59.5" y="-300.5" font-family="FreeSans" font-size="10.00" fill="#000000">ApplyDisplayAction</text>
</g>
<!-- Node2 -->
<g id="node2" class="node">
<title>Node2</title>
<g id="a_node2"><a xlink:href="../../d0/d78/classPHG4Reco.html#abfcea42df8b2464c689c5c24a8241e32" target="_top" xlink:title="PHG4Reco::ApplyDisplayAction">
<polygon fill="none" stroke="#000000" points="155,-299.5 155,-319.5 328,-319.5 328,-299.5 155,-299.5"/>
<text text-anchor="middle" x="241.5" y="-306.5" font-family="FreeSans" font-size="10.00" fill="#000000">PHG4Reco::ApplyDisplayAction</text>
</a>
</g>
</g>
<!-- Node1&#45;&gt;Node2 -->
<g id="edge1" class="edge">
<title>Node1&#45;&gt;Node2</title>
<path fill="none" stroke="#191970" d="M129.1502,-309.5C137.5154,-309.5 146.1356,-309.5 154.706,-309.5"/>
<polygon fill="#191970" stroke="#191970" points="129.0936,-306.0001 119.0936,-309.5 129.0936,-313.0001 129.0936,-306.0001"/>
</g>
<!-- Node3 -->
<g id="node3" class="node">
<title>Node3</title>
<g id="a_node3"><a xlink:href="../../d3/d42/Fun4All__G4__QtDisplay_8C.html#a7fc9d96420ef1de5f1fc43a1657ac8bf" target="_top" xlink:title="Fun4All_G4_QtDisplay">
<polygon fill="none" stroke="#000000" points="376.5,-406.5 376.5,-426.5 503.5,-426.5 503.5,-406.5 376.5,-406.5"/>
<text text-anchor="middle" x="440" y="-413.5" font-family="FreeSans" font-size="10.00" fill="#000000">Fun4All_G4_QtDisplay</text>
</a>
</g>
</g>
<!-- Node2&#45;&gt;Node3 -->
<g id="edge2" class="edge">
<title>Node2&#45;&gt;Node3</title>
<path fill="none" stroke="#191970" d="M259.9669,-326.2456C282.7906,-346.0758 323.584,-378.7702 364,-397.5 371.6507,-401.0455 380.0534,-403.9881 388.395,-406.4119"/>
<polygon fill="#191970" stroke="#191970" points="262.2186,-323.5647 252.4051,-319.5714 257.5865,-328.8129 262.2186,-323.5647"/>
</g>
<!-- Node4 -->
<g id="node4" class="node">
<title>Node4</title>
<g id="a_node4"><a xlink:href="../../d7/da9/Fun4All__G4__Tracking_8C.html#acaee55add6a4a54eb182c6120db9649a" target="_top" xlink:title="Fun4All_G4_Tracking">
<polygon fill="none" stroke="#000000" points="380,-367.5 380,-387.5 500,-387.5 500,-367.5 380,-367.5"/>
<text text-anchor="middle" x="440" y="-374.5" font-family="FreeSans" font-size="10.00" fill="#000000">Fun4All_G4_Tracking</text>
</a>
</g>
</g>
<!-- Node2&#45;&gt;Node4 -->
<g id="edge3" class="edge">
<title>Node2&#45;&gt;Node4</title>
<path fill="none" stroke="#191970" d="M273.6813,-323.7649C298.1362,-334.2623 332.7767,-348.4038 364,-358.5 374.0938,-361.7639 385.0922,-364.8027 395.5067,-367.4506"/>
<polygon fill="#191970" stroke="#191970" points="274.7563,-320.4163 264.1889,-319.6536 271.9742,-326.8397 274.7563,-320.4163"/>
</g>
<!-- Node5 -->
<g id="node5" class="node">
<title>Node5</title>
<g id="a_node5"><a xlink:href="../../d5/df2/Fun4All__EIC__Generator__Display_8C.html#a276181099936efe81415286b29f36e51" target="_top" xlink:title="Fun4All_EIC_Generator\l_Display">
<polygon fill="none" stroke="#000000" points="374,-316.5 374,-348.5 506,-348.5 506,-316.5 374,-316.5"/>
<text text-anchor="start" x="382" y="-335.5" font-family="FreeSans" font-size="10.00" fill="#000000">Fun4All_EIC_Generator</text>
<text text-anchor="middle" x="440" y="-323.5" font-family="FreeSans" font-size="10.00" fill="#000000">_Display</text>
</a>
</g>
</g>
<!-- Node2&#45;&gt;Node5 -->
<g id="edge4" class="edge">
<title>Node2&#45;&gt;Node5</title>
<path fill="none" stroke="#191970" d="M338.11,-320.6941C350.1939,-322.0942 362.3299,-323.5004 373.8011,-324.8296"/>
<polygon fill="#191970" stroke="#191970" points="338.324,-317.1956 327.9876,-319.5212 337.5182,-324.149 338.324,-317.1956"/>
</g>
<!-- Node6 -->
<g id="node6" class="node">
<title>Node6</title>
<g id="a_node6"><a xlink:href="../../d6/db7/fun4all__eicmacros_2blob_2master_2detectors_2AllSilicon_2DisplayOn_8C.html#a36f5cc4ebb7cd23dac7e492d5c38fbc0" target="_top" xlink:title="QTGui">
<polygon fill="none" stroke="#000000" points="416.5,-277.5 416.5,-297.5 463.5,-297.5 463.5,-277.5 416.5,-277.5"/>
<text text-anchor="middle" x="440" y="-284.5" font-family="FreeSans" font-size="10.00" fill="#000000">QTGui</text>
</a>
</g>
</g>
<!-- Node2&#45;&gt;Node6 -->
<g id="edge5" class="edge">
<title>Node2&#45;&gt;Node6</title>
<path fill="none" stroke="#191970" d="M338.4858,-298.7509C367.4259,-295.5435 396.6227,-292.3076 416.2273,-290.1348"/>
<polygon fill="#191970" stroke="#191970" points="337.8298,-295.3021 328.2762,-299.8825 338.6009,-302.2595 337.8298,-295.3021"/>
</g>
<!-- Node7 -->
<g id="node7" class="node">
<title>Node7</title>
<g id="a_node7"><a xlink:href="../../d6/db7/fun4all__eicmacros_2blob_2master_2detectors_2AllSilicon_2DisplayOn_8C.html#a8ac4d6fb78f920957b354f88d6195f54" target="_top" xlink:title="DisplayOn">
<polygon fill="none" stroke="#000000" points="406,-238.5 406,-258.5 474,-258.5 474,-238.5 406,-238.5"/>
<text text-anchor="middle" x="440" y="-245.5" font-family="FreeSans" font-size="10.00" fill="#000000">DisplayOn</text>
</a>
</g>
</g>
<!-- Node2&#45;&gt;Node7 -->
<g id="edge6" class="edge">
<title>Node2&#45;&gt;Node7</title>
<path fill="none" stroke="#191970" d="M279.5243,-296.0568C303.6081,-287.7207 335.4802,-277.0153 364,-268.5 377.5963,-264.4405 392.6886,-260.3785 405.8174,-256.9861"/>
<polygon fill="#191970" stroke="#191970" points="278.337,-292.764 270.0423,-299.3556 280.6371,-299.3754 278.337,-292.764"/>
</g>
<!-- Node20 -->
<g id="node20" class="node">
<title>Node20</title>
<g id="a_node20"><a xlink:href="../../d4/dfa/Fun4All__Generator__Display_8C.html#af87924a94b22e18901f0d64805565f09" target="_top" xlink:title="Fun4All_Generator_Display">
<polygon fill="none" stroke="#000000" points="364,-199.5 364,-219.5 516,-219.5 516,-199.5 364,-199.5"/>
<text text-anchor="middle" x="440" y="-206.5" font-family="FreeSans" font-size="10.00" fill="#000000">Fun4All_Generator_Display</text>
</a>
</g>
</g>
<!-- Node2&#45;&gt;Node20 -->
<g id="edge19" class="edge">
<title>Node2&#45;&gt;Node20</title>
<path fill="none" stroke="#191970" d="M262.0648,-293.075C285.485,-275.1074 325.5063,-246.5945 364,-229.5 372.8533,-225.5684 382.6416,-222.2792 392.1654,-219.5785"/>
<polygon fill="#191970" stroke="#191970" points="259.6812,-290.495 253.9394,-299.3992 263.9806,-296.0191 259.6812,-290.495"/>
</g>
<!-- Node8 -->
<g id="node8" class="node">
<title>Node8</title>
<g id="a_node8"><a xlink:href="../../db/dc0/Fun4All__AnaTutorial_8C.html#aeb927fc74810ef9bc0c056302f1fbe69" target="_top" xlink:title="Fun4All_AnaTutorial">
<polygon fill="none" stroke="#000000" points="585,-453.5 585,-473.5 700,-473.5 700,-453.5 585,-453.5"/>
<text text-anchor="middle" x="642.5" y="-460.5" font-family="FreeSans" font-size="10.00" fill="#000000">Fun4All_AnaTutorial</text>
</a>
</g>
</g>
<!-- Node7&#45;&gt;Node8 -->
<g id="edge7" class="edge">
<title>Node7&#45;&gt;Node8</title>
<path fill="none" stroke="#191970" d="M484.152,-251.6607C495.9108,-254.5662 507.6497,-259.6723 516,-268.5 570.8667,-326.5031 495.6896,-387.8974 552,-444.5 560.8317,-453.3776 572.6831,-458.6092 584.8942,-461.5925"/>
<polygon fill="#191970" stroke="#191970" points="484.8352,-248.2282 474.3437,-249.7043 483.4658,-255.0929 484.8352,-248.2282"/>
</g>
<!-- Node9 -->
<g id="node9" class="node">
<title>Node9</title>
<g id="a_node9"><a xlink:href="../../dd/d28/Fun4All__AnaTutorial__Jets_8C.html#a49f0c60dbca7146b42abc2eedf173722" target="_top" xlink:title="Fun4All_AnaTutorial_Jets">
<polygon fill="none" stroke="#000000" points="573,-414.5 573,-434.5 712,-434.5 712,-414.5 573,-414.5"/>
<text text-anchor="middle" x="642.5" y="-421.5" font-family="FreeSans" font-size="10.00" fill="#000000">Fun4All_AnaTutorial_Jets</text>
</a>
</g>
</g>
<!-- Node7&#45;&gt;Node9 -->
<g id="edge8" class="edge">
<title>Node7&#45;&gt;Node9</title>
<path fill="none" stroke="#191970" d="M484.1978,-252.047C495.8332,-254.9722 507.4951,-259.9921 516,-268.5 560.5086,-313.0246 506.384,-362.1107 552,-405.5 557.9326,-411.143 565.0932,-415.2917 572.757,-418.3175"/>
<polygon fill="#191970" stroke="#191970" points="484.5572,-248.5484 474.0596,-249.9806 483.1591,-255.4074 484.5572,-248.5484"/>
</g>
<!-- Node10 -->
<g id="node10" class="node">
<title>Node10</title>
<g id="a_node10"><a xlink:href="../../d8/d14/Fun4All__G4__Babar_8C.html#ae3babc7f493f8a671f129ef3084ebc23" target="_top" xlink:title="Fun4All_G4_Babar">
<polygon fill="none" stroke="#000000" points="588,-375.5 588,-395.5 697,-395.5 697,-375.5 588,-375.5"/>
<text text-anchor="middle" x="642.5" y="-382.5" font-family="FreeSans" font-size="10.00" fill="#000000">Fun4All_G4_Babar</text>
</a>
</g>
</g>
<!-- Node7&#45;&gt;Node10 -->
<g id="edge9" class="edge">
<title>Node7&#45;&gt;Node10</title>
<path fill="none" stroke="#191970" d="M484.301,-252.7368C495.7283,-255.6874 507.2565,-260.5478 516,-268.5 550.3273,-299.7206 516.8972,-336.154 552,-366.5 561.959,-375.1095 574.8234,-380.1529 587.71,-383.0315"/>
<polygon fill="#191970" stroke="#191970" points="484.8687,-249.2791 474.3573,-250.6058 483.4018,-256.1236 484.8687,-249.2791"/>
</g>
<!-- Node11 -->
<g id="node11" class="node">
<title>Node11</title>
<g id="a_node11"><a xlink:href="../../df/d9d/fun4all__eicmacros_2blob_2master_2detectors_2Beast_2Fun4All__G4__Beast_8C.html#aa12a55b170fc12d7549cea7cc497eb38" target="_top" xlink:title="Fun4All_G4_Beast">
<polygon fill="none" stroke="#000000" points="589,-336.5 589,-356.5 696,-356.5 696,-336.5 589,-336.5"/>
<text text-anchor="middle" x="642.5" y="-343.5" font-family="FreeSans" font-size="10.00" fill="#000000">Fun4All_G4_Beast</text>
</a>
</g>
</g>
<!-- Node7&#45;&gt;Node11 -->
<g id="edge10" class="edge">
<title>Node7&#45;&gt;Node11</title>
<path fill="none" stroke="#191970" d="M484.2875,-254.1596C495.407,-257.1247 506.7844,-261.6367 516,-268.5 540.6365,-286.8479 526.9091,-309.7785 552,-327.5 562.7529,-335.0947 575.9026,-339.7735 588.8103,-342.6251"/>
<polygon fill="#191970" stroke="#191970" points="484.7473,-250.6742 474.2177,-251.8484 483.1813,-257.4968 484.7473,-250.6742"/>
</g>
<!-- Node12 -->
<g id="node12" class="node">
<title>Node12</title>
<g id="a_node12"><a xlink:href="../../de/dcc/Fun4All__G4__Cleo_8C.html#ae4d584d6f7864ddc358a5cb1bf03bfa5" target="_top" xlink:title="Fun4All_G4_Cleo">
<polygon fill="none" stroke="#000000" points="592.5,-297.5 592.5,-317.5 692.5,-317.5 692.5,-297.5 592.5,-297.5"/>
<text text-anchor="middle" x="642.5" y="-304.5" font-family="FreeSans" font-size="10.00" fill="#000000">Fun4All_G4_Cleo</text>
</a>
</g>
</g>
<!-- Node7&#45;&gt;Node12 -->
<g id="edge11" class="edge">
<title>Node7&#45;&gt;Node12</title>
<path fill="none" stroke="#191970" d="M484.1843,-258.135C494.7735,-260.9867 505.9271,-264.4509 516,-268.5 532.9826,-275.3267 534.8508,-282.1033 552,-288.5 564.7857,-293.2691 579.058,-296.9659 592.4202,-299.7766"/>
<polygon fill="#191970" stroke="#191970" points="484.8144,-254.6833 474.2583,-255.5894 483.0754,-261.4639 484.8144,-254.6833"/>
</g>
<!-- Node13 -->
<g id="node13" class="node">
<title>Node13</title>
<g id="a_node13"><a xlink:href="../../d4/d91/fun4all__macros_2blob_2master_2detectors_2EICDetector_2Fun4All__G4__EICDetector_8C.html#add9dee08cdb08b59c0b3870bb04994d9" target="_top" xlink:title="Fun4All_G4_EICDetector">
<polygon fill="none" stroke="#000000" points="573,-258.5 573,-278.5 712,-278.5 712,-258.5 573,-258.5"/>
<text text-anchor="middle" x="642.5" y="-265.5" font-family="FreeSans" font-size="10.00" fill="#000000">Fun4All_G4_EICDetector</text>
</a>
</g>
</g>
<!-- Node7&#45;&gt;Node13 -->
<g id="edge12" class="edge">
<title>Node7&#45;&gt;Node13</title>
<path fill="none" stroke="#191970" d="M484.5786,-252.9028C510.3908,-255.4522 543.4516,-258.7174 572.6471,-261.6009"/>
<polygon fill="#191970" stroke="#191970" points="484.647,-249.3926 474.3514,-251.8927 483.9589,-256.3587 484.647,-249.3926"/>
</g>
<!-- Node14 -->
<g id="node14" class="node">
<title>Node14</title>
<g id="a_node14"><a xlink:href="../../d7/d9e/Fun4All__G4__fsPHENIX_8C.html#a75e8ef26e92f882a865536a3e16244c5" target="_top" xlink:title="Fun4All_G4_fsPHENIX">
<polygon fill="none" stroke="#000000" points="580.5,-219.5 580.5,-239.5 704.5,-239.5 704.5,-219.5 580.5,-219.5"/>
<text text-anchor="middle" x="642.5" y="-226.5" font-family="FreeSans" font-size="10.00" fill="#000000">Fun4All_G4_fsPHENIX</text>
</a>
</g>
</g>
<!-- Node7&#45;&gt;Node14 -->
<g id="edge13" class="edge">
<title>Node7&#45;&gt;Node14</title>
<path fill="none" stroke="#191970" d="M484.3156,-244.342C512.5061,-241.697 549.4208,-238.2334 580.4986,-235.3174"/>
<polygon fill="#191970" stroke="#191970" points="483.9806,-240.858 474.3514,-245.2769 484.6346,-247.8273 483.9806,-240.858"/>
</g>
<!-- Node15 -->
<g id="node15" class="node">
<title>Node15</title>
<g id="a_node15"><a xlink:href="../../d5/d97/Fun4All__G4__FullDetectorModular_8C.html#a3718da6a9c8edc72f231ee413c514dad" target="_top" xlink:title="Fun4All_G4_FullDetectorModular">
<polygon fill="none" stroke="#000000" points="552,-180.5 552,-200.5 733,-200.5 733,-180.5 552,-180.5"/>
<text text-anchor="middle" x="642.5" y="-187.5" font-family="FreeSans" font-size="10.00" fill="#000000">Fun4All_G4_FullDetectorModular</text>
</a>
</g>
</g>
<!-- Node7&#45;&gt;Node15 -->
<g id="edge14" class="edge">
<title>Node7&#45;&gt;Node15</title>
<path fill="none" stroke="#191970" d="M484.1345,-239.3743C494.7253,-236.6642 505.8921,-233.3659 516,-229.5 532.8979,-223.0371 535.0149,-216.7301 552,-210.5 562.7258,-206.5658 574.4633,-203.2755 585.8264,-200.5745"/>
<polygon fill="#191970" stroke="#191970" points="483.0978,-236.0244 474.2102,-241.7916 484.7544,-242.8255 483.0978,-236.0244"/>
</g>
<!-- Node16 -->
<g id="node16" class="node">
<title>Node16</title>
<g id="a_node16"><a xlink:href="../../d0/dce/Fun4All__G4__FullDetectorModularBeast_8C.html#a0f10ba4ce157df87369cfd776fc132d3" target="_top" xlink:title="Fun4All_G4_FullDetectorModular\lBeast">
<polygon fill="none" stroke="#000000" points="552,-129.5 552,-161.5 733,-161.5 733,-129.5 552,-129.5"/>
<text text-anchor="start" x="560" y="-148.5" font-family="FreeSans" font-size="10.00" fill="#000000">Fun4All_G4_FullDetectorModular</text>
<text text-anchor="middle" x="642.5" y="-136.5" font-family="FreeSans" font-size="10.00" fill="#000000">Beast</text>
</a>
</g>
</g>
<!-- Node7&#45;&gt;Node16 -->
<g id="edge15" class="edge">
<title>Node7&#45;&gt;Node16</title>
<path fill="none" stroke="#191970" d="M484.2352,-243.4332C495.355,-240.6144 506.7456,-236.2495 516,-229.5 540.5128,-211.6221 527.8018,-189.8014 552,-171.5 557.0849,-167.6542 562.7209,-164.3767 568.622,-161.5837"/>
<polygon fill="#191970" stroke="#191970" points="483.202,-240.0757 474.1684,-245.6113 484.6824,-246.9174 483.202,-240.0757"/>
</g>
<!-- Node17 -->
<g id="node17" class="node">
<title>Node17</title>
<g id="a_node17"><a xlink:href="../../d0/d87/Fun4All__G4__JLeic_8C.html#a7a87d035cddeb1ed64bf376560381994" target="_top" xlink:title="Fun4All_G4_JLeic">
<polygon fill="none" stroke="#000000" points="592,-90.5 592,-110.5 693,-110.5 693,-90.5 592,-90.5"/>
<text text-anchor="middle" x="642.5" y="-97.5" font-family="FreeSans" font-size="10.00" fill="#000000">Fun4All_G4_JLeic</text>
</a>
</g>
</g>
<!-- Node7&#45;&gt;Node17 -->
<g id="edge16" class="edge">
<title>Node7&#45;&gt;Node17</title>
<path fill="none" stroke="#191970" d="M484.1395,-245.1566C495.6686,-242.3685 507.2896,-237.5884 516,-229.5 553.3855,-194.7841 514.1411,-154.6989 552,-120.5 562.8659,-110.6846 577.4422,-105.3202 591.7181,-102.4826"/>
<polygon fill="#191970" stroke="#191970" points="483.2451,-241.7653 474.1071,-247.127 484.5942,-248.6341 483.2451,-241.7653"/>
</g>
<!-- Node18 -->
<g id="node18" class="node">
<title>Node18</title>
<g id="a_node18"><a xlink:href="../../d9/d73/fun4all__macros_2blob_2master_2detectors_2sPHENIX_2Fun4All__G4__sPHENIX_8C.html#a4102cd3e195333de974409428a2e6dae" target="_top" xlink:title="Fun4All_G4_sPHENIX">
<polygon fill="none" stroke="#000000" points="582,-51.5 582,-71.5 703,-71.5 703,-51.5 582,-51.5"/>
<text text-anchor="middle" x="642.5" y="-58.5" font-family="FreeSans" font-size="10.00" fill="#000000">Fun4All_G4_sPHENIX</text>
</a>
</g>
</g>
<!-- Node7&#45;&gt;Node18 -->
<g id="edge17" class="edge">
<title>Node7&#45;&gt;Node18</title>
<path fill="none" stroke="#191970" d="M484.2654,-245.6769C495.9019,-242.9072 507.5475,-238.0065 516,-229.5 563.7154,-181.4797 503.6293,-128.8602 552,-81.5 560.1632,-73.5073 570.7596,-68.4097 581.8116,-65.2161"/>
<polygon fill="#191970" stroke="#191970" points="483.2955,-242.2984 474.1222,-247.5994 484.5991,-249.1759 483.2955,-242.2984"/>
</g>
<!-- Node19 -->
<g id="node19" class="node">
<title>Node19</title>
<g id="a_node19"><a xlink:href="../../d3/d2b/Fun4All__G4__sPHENIX__particle__gen_8C.html#a381adc702b7bfb99356660cdb6407e70" target="_top" xlink:title="Fun4All_G4_sPHENIX\l_particle_gen">
<polygon fill="none" stroke="#000000" points="582,-.5 582,-32.5 703,-32.5 703,-.5 582,-.5"/>
<text text-anchor="start" x="590" y="-19.5" font-family="FreeSans" font-size="10.00" fill="#000000">Fun4All_G4_sPHENIX</text>
<text text-anchor="middle" x="642.5" y="-7.5" font-family="FreeSans" font-size="10.00" fill="#000000">_particle_gen</text>
</a>
</g>
</g>
<!-- Node7&#45;&gt;Node19 -->
<g id="edge18" class="edge">
<title>Node7&#45;&gt;Node19</title>
<path fill="none" stroke="#191970" d="M484.5341,-245.9375C496.1752,-243.1722 507.7559,-238.2086 516,-229.5 574.1857,-168.0355 494.8919,-104.967 552,-42.5 559.9418,-33.813 570.575,-27.9558 581.7575,-24.0238"/>
<polygon fill="#191970" stroke="#191970" points="483.5559,-242.5598 474.3709,-247.8406 484.8443,-249.4402 483.5559,-242.5598"/>
</g>
</g>
</svg>
