<?xml version="1.0" encoding="UTF-8" standalone="no"?>
<!DOCTYPE svg PUBLIC "-//W3C//DTD SVG 1.1//EN"
 "http://www.w3.org/Graphics/SVG/1.1/DTD/svg11.dtd">
<!-- Generated by graphviz version 2.40.1 (20161225.0304)
 -->
<!-- Title: PHParametersContainer::GetParameters Pages: 1 -->
<svg width="600pt" height="1025pt"
 viewBox="0.00 0.00 600.00 1025.00" xmlns="http://www.w3.org/2000/svg" xmlns:xlink="http://www.w3.org/1999/xlink">
<g id="graph0" class="graph" transform="scale(1 1) rotate(0) translate(4 1021)">
<title>PHParametersContainer::GetParameters</title>
<!-- Node1 -->
<g id="node1" class="node">
<title>Node1</title>
<polygon fill="#bfbfbf" stroke="#000000" points="0,-498.5 0,-530.5 137,-530.5 137,-498.5 0,-498.5"/>
<text text-anchor="start" x="8" y="-517.5" font-family="FreeSans" font-size="10.00" fill="#000000">PHParametersContainer</text>
<text text-anchor="middle" x="68.5" y="-505.5" font-family="FreeSans" font-size="10.00" fill="#000000">::GetParameters</text>
</g>
<!-- Node2 -->
<g id="node2" class="node">
<title>Node2</title>
<g id="a_node2"><a xlink:href="../../dc/de8/classPHG4InttDetector.html#a4fd8a72c84ab05c4b858c12dc31debd6" target="_top" xlink:title="PHG4InttDetector::AddGeometryNode">
<polygon fill="none" stroke="#000000" points="173,-996.5 173,-1016.5 381,-1016.5 381,-996.5 173,-996.5"/>
<text text-anchor="middle" x="277" y="-1003.5" font-family="FreeSans" font-size="10.00" fill="#000000">PHG4InttDetector::AddGeometryNode</text>
</a>
</g>
</g>
<!-- Node1&#45;&gt;Node2 -->
<g id="edge1" class="edge">
<title>Node1&#45;&gt;Node2</title>
<path fill="none" stroke="#191970" d="M70.568,-540.9292C78.1722,-631.0906 107.6101,-924.4693 173,-987.5 176.568,-990.9392 180.5402,-993.8644 184.7917,-996.3456"/>
<polygon fill="#191970" stroke="#191970" points="74.0379,-540.4188 69.7294,-530.7395 67.0615,-540.993 74.0379,-540.4188"/>
</g>
<!-- Node4 -->
<g id="node4" class="node">
<title>Node4</title>
<g id="a_node4"><a xlink:href="../../dc/de8/classPHG4InttDetector.html#a274b5903d6cc8942cfc50a173e2832d1" target="_top" xlink:title="PHG4InttDetector::ConstructIntt">
<polygon fill="none" stroke="#000000" points="188,-957.5 188,-977.5 366,-977.5 366,-957.5 188,-957.5"/>
<text text-anchor="middle" x="277" y="-964.5" font-family="FreeSans" font-size="10.00" fill="#000000">PHG4InttDetector::ConstructIntt</text>
</a>
</g>
</g>
<!-- Node1&#45;&gt;Node4 -->
<g id="edge3" class="edge">
<title>Node1&#45;&gt;Node4</title>
<path fill="none" stroke="#191970" d="M71.1361,-540.9734C80.1738,-626.242 112.7235,-891.4843 173,-948.5 177.4003,-952.6622 182.3943,-956.0671 187.7558,-958.8407"/>
<polygon fill="#191970" stroke="#191970" points="74.5971,-540.4158 70.0829,-530.8308 67.6346,-541.1389 74.5971,-540.4158"/>
</g>
<!-- Node5 -->
<g id="node5" class="node">
<title>Node5</title>
<g id="a_node5"><a xlink:href="../../d4/d65/classG4JLeicVTXDetector.html#a5aed64b42dad5eeaa0f4f982ed4098a1" target="_top" xlink:title="construct">
<polygon fill="none" stroke="#000000" points="218.5,-906.5 218.5,-938.5 335.5,-938.5 335.5,-906.5 218.5,-906.5"/>
<text text-anchor="start" x="226.5" y="-925.5" font-family="FreeSans" font-size="10.00" fill="#000000">G4JLeicVTXDetector</text>
<text text-anchor="middle" x="277" y="-913.5" font-family="FreeSans" font-size="10.00" fill="#000000">::ConstructMe</text>
</a>
</g>
</g>
<!-- Node1&#45;&gt;Node5 -->
<g id="edge5" class="edge">
<title>Node1&#45;&gt;Node5</title>
<path fill="none" stroke="#191970" d="M72.1245,-540.5399C83.4665,-618.3291 120.6702,-846.74 173,-897.5 185.1963,-909.3304 201.9602,-915.8977 218.4685,-919.4528"/>
<polygon fill="#191970" stroke="#191970" points="75.5827,-539.9983 70.6969,-530.5973 68.6538,-540.9932 75.5827,-539.9983"/>
</g>
<!-- Node6 -->
<g id="node6" class="node">
<title>Node6</title>
<g id="a_node6"><a xlink:href="../../d4/d9a/classPHG4PSTOFDetector.html#a616f685ef6051142b10190104fda295d" target="_top" xlink:title="construct">
<polygon fill="none" stroke="#000000" points="214,-855.5 214,-887.5 340,-887.5 340,-855.5 214,-855.5"/>
<text text-anchor="start" x="222" y="-874.5" font-family="FreeSans" font-size="10.00" fill="#000000">PHG4PSTOFDetector::</text>
<text text-anchor="middle" x="277" y="-862.5" font-family="FreeSans" font-size="10.00" fill="#000000">ConstructMe</text>
</a>
</g>
</g>
<!-- Node1&#45;&gt;Node6 -->
<g id="edge6" class="edge">
<title>Node1&#45;&gt;Node6</title>
<path fill="none" stroke="#191970" d="M73.331,-540.7888C86.85,-611.5616 127.093,-803.6575 173,-846.5 184.2004,-856.9527 198.9827,-863.2647 213.8751,-867.0192"/>
<polygon fill="#191970" stroke="#191970" points="76.756,-540.0633 71.4632,-530.8853 69.8773,-541.3607 76.756,-540.0633"/>
</g>
<!-- Node7 -->
<g id="node7" class="node">
<title>Node7</title>
<g id="a_node7"><a xlink:href="../../d4/d65/classG4JLeicVTXDetector.html#a30ea8e783152773cb71957388e4000ac" target="_top" xlink:title="constructor">
<polygon fill="none" stroke="#000000" points="215,-804.5 215,-836.5 339,-836.5 339,-804.5 215,-804.5"/>
<text text-anchor="start" x="223" y="-823.5" font-family="FreeSans" font-size="10.00" fill="#000000">G4JLeicVTXDetector</text>
<text text-anchor="middle" x="277" y="-811.5" font-family="FreeSans" font-size="10.00" fill="#000000">::G4JLeicVTXDetector</text>
</a>
</g>
</g>
<!-- Node1&#45;&gt;Node7 -->
<g id="edge7" class="edge">
<title>Node1&#45;&gt;Node7</title>
<path fill="none" stroke="#191970" d="M70.3014,-540.8665C75.5832,-596.6732 95.9578,-727.1983 173,-795.5 184.6027,-805.7864 199.7008,-812.0222 214.7797,-815.7555"/>
<polygon fill="#191970" stroke="#191970" points="73.7749,-540.4066 69.434,-530.7419 66.8005,-541.0043 73.7749,-540.4066"/>
</g>
<!-- Node8 -->
<g id="node8" class="node">
<title>Node8</title>
<g id="a_node8"><a xlink:href="../../da/d11/classPHParameterContainerInterface.html#abeab8c823392160c59576ae18fa2f290" target="_top" xlink:title="PHParameterContainerInterface\l::get_double_param">
<polygon fill="none" stroke="#000000" points="189,-753.5 189,-785.5 365,-785.5 365,-753.5 189,-753.5"/>
<text text-anchor="start" x="197" y="-772.5" font-family="FreeSans" font-size="10.00" fill="#000000">PHParameterContainerInterface</text>
<text text-anchor="middle" x="277" y="-760.5" font-family="FreeSans" font-size="10.00" fill="#000000">::get_double_param</text>
</a>
</g>
</g>
<!-- Node1&#45;&gt;Node8 -->
<g id="edge8" class="edge">
<title>Node1&#45;&gt;Node8</title>
<path fill="none" stroke="#191970" d="M72.6548,-540.4003C81.7544,-588.3409 108.0673,-690.8955 173,-744.5 177.7974,-748.4604 183.1201,-751.8124 188.7485,-754.6474"/>
<polygon fill="#191970" stroke="#191970" points="76.0901,-539.7281 70.8763,-530.5049 69.2005,-540.9664 76.0901,-539.7281"/>
</g>
<!-- Node11 -->
<g id="node11" class="node">
<title>Node11</title>
<g id="a_node11"><a xlink:href="../../d7/d7f/classPHG4DetectorGroupSubsystem.html#ab162d4327eb79d053483639438cb9aa6" target="_top" xlink:title="PHG4DetectorGroupSubsystem\l::get_double_param">
<polygon fill="none" stroke="#000000" points="189.5,-702.5 189.5,-734.5 364.5,-734.5 364.5,-702.5 189.5,-702.5"/>
<text text-anchor="start" x="197.5" y="-721.5" font-family="FreeSans" font-size="10.00" fill="#000000">PHG4DetectorGroupSubsystem</text>
<text text-anchor="middle" x="277" y="-709.5" font-family="FreeSans" font-size="10.00" fill="#000000">::get_double_param</text>
</a>
</g>
</g>
<!-- Node1&#45;&gt;Node11 -->
<g id="edge11" class="edge">
<title>Node1&#45;&gt;Node11</title>
<path fill="none" stroke="#191970" d="M76.2236,-540.1955C89.4124,-579.5184 120.108,-654.1901 173,-693.5 178.0675,-697.2662 183.6234,-700.473 189.4486,-703.2025"/>
<polygon fill="#191970" stroke="#191970" points="79.5117,-538.9883 73.1039,-530.5509 72.8515,-541.1427 79.5117,-538.9883"/>
</g>
<!-- Node12 -->
<g id="node12" class="node">
<title>Node12</title>
<g id="a_node12"><a xlink:href="../../da/d11/classPHParameterContainerInterface.html#a350d2a032faed767896cfd4a762595b6" target="_top" xlink:title="PHParameterContainerInterface\l::get_int_param">
<polygon fill="none" stroke="#000000" points="189,-651.5 189,-683.5 365,-683.5 365,-651.5 189,-651.5"/>
<text text-anchor="start" x="197" y="-670.5" font-family="FreeSans" font-size="10.00" fill="#000000">PHParameterContainerInterface</text>
<text text-anchor="middle" x="277" y="-658.5" font-family="FreeSans" font-size="10.00" fill="#000000">::get_int_param</text>
</a>
</g>
</g>
<!-- Node1&#45;&gt;Node12 -->
<g id="edge12" class="edge">
<title>Node1&#45;&gt;Node12</title>
<path fill="none" stroke="#191970" d="M82.0851,-539.5316C99.3115,-568.8238 131.7942,-616.6074 173,-642.5 178.4246,-645.9086 184.2759,-648.8526 190.3404,-651.3952"/>
<polygon fill="#191970" stroke="#191970" points="85.0455,-537.658 77.0365,-530.7221 78.9721,-541.1386 85.0455,-537.658"/>
</g>
<!-- Node13 -->
<g id="node13" class="node">
<title>Node13</title>
<g id="a_node13"><a xlink:href="../../d7/d7f/classPHG4DetectorGroupSubsystem.html#acd856830d505c1bf925e6eb30ced21f2" target="_top" xlink:title="PHG4DetectorGroupSubsystem\l::get_int_param">
<polygon fill="none" stroke="#000000" points="189.5,-600.5 189.5,-632.5 364.5,-632.5 364.5,-600.5 189.5,-600.5"/>
<text text-anchor="start" x="197.5" y="-619.5" font-family="FreeSans" font-size="10.00" fill="#000000">PHG4DetectorGroupSubsystem</text>
<text text-anchor="middle" x="277" y="-607.5" font-family="FreeSans" font-size="10.00" fill="#000000">::get_int_param</text>
</a>
</g>
</g>
<!-- Node1&#45;&gt;Node13 -->
<g id="edge13" class="edge">
<title>Node1&#45;&gt;Node13</title>
<path fill="none" stroke="#191970" d="M93.3198,-537.2809C113.4159,-554.56 143.1895,-577.6305 173,-591.5 180.324,-594.9075 188.1619,-597.8789 196.1274,-600.4639"/>
<polygon fill="#191970" stroke="#191970" points="95.4176,-534.4656 85.5897,-530.508 90.8045,-539.7306 95.4176,-534.4656"/>
</g>
<!-- Node16 -->
<g id="node16" class="node">
<title>Node16</title>
<g id="a_node16"><a xlink:href="../../da/d11/classPHParameterContainerInterface.html#a639943304ffbd603fd9b7f0be27cbf23" target="_top" xlink:title="PHParameterContainerInterface\l::get_string_param">
<polygon fill="none" stroke="#000000" points="189,-549.5 189,-581.5 365,-581.5 365,-549.5 189,-549.5"/>
<text text-anchor="start" x="197" y="-568.5" font-family="FreeSans" font-size="10.00" fill="#000000">PHParameterContainerInterface</text>
<text text-anchor="middle" x="277" y="-556.5" font-family="FreeSans" font-size="10.00" fill="#000000">::get_string_param</text>
</a>
</g>
</g>
<!-- Node1&#45;&gt;Node16 -->
<g id="edge16" class="edge">
<title>Node1&#45;&gt;Node16</title>
<path fill="none" stroke="#191970" d="M142.3774,-532.9585C152.6594,-535.5049 163.0914,-538.0764 173,-540.5 184.9052,-543.4119 197.5844,-546.484 209.8471,-549.4402"/>
<polygon fill="#191970" stroke="#191970" points="143.1357,-529.5406 132.5872,-530.5305 141.4506,-536.3348 143.1357,-529.5406"/>
</g>
<!-- Node17 -->
<g id="node17" class="node">
<title>Node17</title>
<g id="a_node17"><a xlink:href="../../d7/d7f/classPHG4DetectorGroupSubsystem.html#ae58e42ec972236624828bc54a9c73b21" target="_top" xlink:title="PHG4DetectorGroupSubsystem\l::get_string_param">
<polygon fill="none" stroke="#000000" points="189.5,-498.5 189.5,-530.5 364.5,-530.5 364.5,-498.5 189.5,-498.5"/>
<text text-anchor="start" x="197.5" y="-517.5" font-family="FreeSans" font-size="10.00" fill="#000000">PHG4DetectorGroupSubsystem</text>
<text text-anchor="middle" x="277" y="-505.5" font-family="FreeSans" font-size="10.00" fill="#000000">::get_string_param</text>
</a>
</g>
</g>
<!-- Node1&#45;&gt;Node17 -->
<g id="edge17" class="edge">
<title>Node1&#45;&gt;Node17</title>
<path fill="none" stroke="#191970" d="M147.4133,-514.5C161.1341,-514.5 175.4782,-514.5 189.4145,-514.5"/>
<polygon fill="#191970" stroke="#191970" points="147.0595,-511.0001 137.0595,-514.5 147.0594,-518.0001 147.0595,-511.0001"/>
</g>
<!-- Node18 -->
<g id="node18" class="node">
<title>Node18</title>
<g id="a_node18"><a xlink:href="../../d2/d10/classPHG4EPDSubsystem.html#a5e0dcde9a99b0790bef300d96c5809a8" target="_top" xlink:title="PHG4EPDSubsystem::InitRun\lSubsystem">
<polygon fill="none" stroke="#000000" points="196,-447.5 196,-479.5 358,-479.5 358,-447.5 196,-447.5"/>
<text text-anchor="start" x="204" y="-466.5" font-family="FreeSans" font-size="10.00" fill="#000000">PHG4EPDSubsystem::InitRun</text>
<text text-anchor="middle" x="277" y="-454.5" font-family="FreeSans" font-size="10.00" fill="#000000">Subsystem</text>
</a>
</g>
</g>
<!-- Node1&#45;&gt;Node18 -->
<g id="edge18" class="edge">
<title>Node1&#45;&gt;Node18</title>
<path fill="none" stroke="#191970" d="M144.1426,-495.9975C166.1319,-490.6188 189.9617,-484.7899 211.2875,-479.5736"/>
<polygon fill="#191970" stroke="#191970" points="143.0665,-492.6574 134.1845,-498.4333 144.7298,-499.457 143.0665,-492.6574"/>
</g>
<!-- Node19 -->
<g id="node19" class="node">
<title>Node19</title>
<g id="a_node19"><a xlink:href="../../d3/d9f/classPHG4EICMvtxSubsystem.html#af78c3aea7e256e282dfdd566fbf2ea0b" target="_top" xlink:title="InitRunSubsystem.">
<polygon fill="none" stroke="#000000" points="206.5,-396.5 206.5,-428.5 347.5,-428.5 347.5,-396.5 206.5,-396.5"/>
<text text-anchor="start" x="214.5" y="-415.5" font-family="FreeSans" font-size="10.00" fill="#000000">PHG4EICMvtxSubsystem</text>
<text text-anchor="middle" x="277" y="-403.5" font-family="FreeSans" font-size="10.00" fill="#000000">::InitRunSubsystem</text>
</a>
</g>
</g>
<!-- Node1&#45;&gt;Node19 -->
<g id="edge19" class="edge">
<title>Node1&#45;&gt;Node19</title>
<path fill="none" stroke="#191970" d="M93.771,-491.7953C113.9085,-474.8234 143.5234,-452.2651 173,-438.5 183.4551,-433.6176 194.9462,-429.5751 206.3581,-426.252"/>
<polygon fill="#191970" stroke="#191970" points="91.3211,-489.2856 86.0124,-498.4546 95.8802,-494.5974 91.3211,-489.2856"/>
</g>
<!-- Node20 -->
<g id="node20" class="node">
<title>Node20</title>
<g id="a_node20"><a xlink:href="../../d9/dbf/classPHG4MvtxSubsystem.html#a189efac53cac8a58715d177c664d74c9" target="_top" xlink:title="InitRunSubsystem.">
<polygon fill="none" stroke="#000000" points="211.5,-345.5 211.5,-377.5 342.5,-377.5 342.5,-345.5 211.5,-345.5"/>
<text text-anchor="start" x="219.5" y="-364.5" font-family="FreeSans" font-size="10.00" fill="#000000">PHG4MvtxSubsystem::</text>
<text text-anchor="middle" x="277" y="-352.5" font-family="FreeSans" font-size="10.00" fill="#000000">InitRunSubsystem</text>
</a>
</g>
</g>
<!-- Node1&#45;&gt;Node20 -->
<g id="edge20" class="edge">
<title>Node1&#45;&gt;Node20</title>
<path fill="none" stroke="#191970" d="M82.174,-489.7282C99.4871,-460.7275 132.0545,-413.3784 173,-387.5 184.5634,-380.1917 198.0597,-374.9368 211.4259,-371.1585"/>
<polygon fill="#191970" stroke="#191970" points="79.1037,-488.0456 77.0976,-498.4488 85.1533,-491.5672 79.1037,-488.0456"/>
</g>
<!-- Node21 -->
<g id="node21" class="node">
<title>Node21</title>
<g id="a_node21"><a xlink:href="../../d6/d09/classPHG4InttSubsystem.html#a1d0b24d27f8bf30d0141354a567b6996" target="_top" xlink:title="init">
<polygon fill="none" stroke="#000000" points="215.5,-294.5 215.5,-326.5 338.5,-326.5 338.5,-294.5 215.5,-294.5"/>
<text text-anchor="start" x="223.5" y="-313.5" font-family="FreeSans" font-size="10.00" fill="#000000">PHG4InttSubsystem::</text>
<text text-anchor="middle" x="277" y="-301.5" font-family="FreeSans" font-size="10.00" fill="#000000">InitRunSubsystem</text>
</a>
</g>
</g>
<!-- Node1&#45;&gt;Node21 -->
<g id="edge21" class="edge">
<title>Node1&#45;&gt;Node21</title>
<path fill="none" stroke="#191970" d="M76.4091,-488.7099C89.7665,-449.6044 120.5899,-375.722 173,-336.5 185.293,-327.3003 200.4638,-321.3298 215.3807,-317.4627"/>
<polygon fill="#191970" stroke="#191970" points="73.0509,-487.7178 73.2436,-498.3108 79.6989,-489.9097 73.0509,-487.7178"/>
</g>
<!-- Node22 -->
<g id="node22" class="node">
<title>Node22</title>
<g id="a_node22"><a xlink:href="../../df/dfc/classPHG4EICMvtxDetector.html#a4d4d89f5de02240ff3de6b17a2e4aa9e" target="_top" xlink:title="constructor">
<polygon fill="none" stroke="#000000" points="209,-243.5 209,-275.5 345,-275.5 345,-243.5 209,-243.5"/>
<text text-anchor="start" x="217" y="-262.5" font-family="FreeSans" font-size="10.00" fill="#000000">PHG4EICMvtxDetector</text>
<text text-anchor="middle" x="277" y="-250.5" font-family="FreeSans" font-size="10.00" fill="#000000">::PHG4EICMvtxDetector</text>
</a>
</g>
</g>
<!-- Node1&#45;&gt;Node22 -->
<g id="edge22" class="edge">
<title>Node1&#45;&gt;Node22</title>
<path fill="none" stroke="#191970" d="M72.8033,-488.4178C82.0996,-440.6266 108.6562,-339.0213 173,-285.5 183.2304,-276.9903 195.8589,-271.2059 208.7479,-267.2882"/>
<polygon fill="#191970" stroke="#191970" points="69.3538,-487.8246 70.9814,-498.2937 76.2376,-489.0946 69.3538,-487.8246"/>
</g>
<!-- Node23 -->
<g id="node23" class="node">
<title>Node23</title>
<g id="a_node23"><a xlink:href="../../dc/dbf/classPHG4EPDetector.html#acf579f432561dc6f57d3ad7aadb3b3ee" target="_top" xlink:title="PHG4EPDetector::PHG4EPDetector">
<polygon fill="none" stroke="#000000" points="181,-204.5 181,-224.5 373,-224.5 373,-204.5 181,-204.5"/>
<text text-anchor="middle" x="277" y="-211.5" font-family="FreeSans" font-size="10.00" fill="#000000">PHG4EPDetector::PHG4EPDetector</text>
</a>
</g>
</g>
<!-- Node1&#45;&gt;Node23 -->
<g id="edge23" class="edge">
<title>Node1&#45;&gt;Node23</title>
<path fill="none" stroke="#191970" d="M70.0592,-488.3467C74.881,-432.4236 94.4312,-300.9184 173,-234.5 177.6337,-230.5829 182.8009,-227.3433 188.2871,-224.6717"/>
<polygon fill="#191970" stroke="#191970" points="66.5569,-488.2424 69.2781,-498.4819 73.5362,-488.7804 66.5569,-488.2424"/>
</g>
<!-- Node24 -->
<g id="node24" class="node">
<title>Node24</title>
<g id="a_node24"><a xlink:href="../../dc/de8/classPHG4InttDetector.html#a7aeeea04a5549a18adbfa6f5fa7dfd19" target="_top" xlink:title="constructor">
<polygon fill="none" stroke="#000000" points="198.5,-153.5 198.5,-185.5 355.5,-185.5 355.5,-153.5 198.5,-153.5"/>
<text text-anchor="start" x="206.5" y="-172.5" font-family="FreeSans" font-size="10.00" fill="#000000">PHG4InttDetector::PHG4Intt</text>
<text text-anchor="middle" x="277" y="-160.5" font-family="FreeSans" font-size="10.00" fill="#000000">Detector</text>
</a>
</g>
</g>
<!-- Node1&#45;&gt;Node24 -->
<g id="edge24" class="edge">
<title>Node1&#45;&gt;Node24</title>
<path fill="none" stroke="#191970" d="M73.6818,-488.3599C87.8021,-419.6779 128.865,-236.5833 173,-195.5 180.2881,-188.7158 189.0722,-183.6317 198.4086,-179.8333"/>
<polygon fill="#191970" stroke="#191970" points="70.211,-487.8648 71.6506,-498.3613 77.0709,-489.2581 70.211,-487.8648"/>
</g>
<!-- Node25 -->
<g id="node25" class="node">
<title>Node25</title>
<g id="a_node25"><a xlink:href="../../d4/d7a/classPHG4InttSteppingAction.html#a9af26c3c2800b71ba731ead438ee2ad9" target="_top" xlink:title="PHG4InttSteppingAction\l::PHG4InttSteppingAction">
<polygon fill="none" stroke="#000000" points="204.5,-102.5 204.5,-134.5 349.5,-134.5 349.5,-102.5 204.5,-102.5"/>
<text text-anchor="start" x="212.5" y="-121.5" font-family="FreeSans" font-size="10.00" fill="#000000">PHG4InttSteppingAction</text>
<text text-anchor="middle" x="277" y="-109.5" font-family="FreeSans" font-size="10.00" fill="#000000">::PHG4InttSteppingAction</text>
</a>
</g>
</g>
<!-- Node1&#45;&gt;Node25 -->
<g id="edge25" class="edge">
<title>Node1&#45;&gt;Node25</title>
<path fill="none" stroke="#191970" d="M72.5089,-487.8606C84.5434,-411.3563 122.6574,-193.3406 173,-144.5 181.7494,-136.0116 192.8299,-130.1648 204.4757,-126.1636"/>
<polygon fill="#191970" stroke="#191970" points="68.9973,-487.6662 70.9242,-498.0843 75.9147,-488.7384 68.9973,-487.6662"/>
</g>
<!-- Node26 -->
<g id="node26" class="node">
<title>Node26</title>
<g id="a_node26"><a xlink:href="../../d4/dc1/classPHG4MvtxDetector.html#acddb4a0a0b9d31a7290918e6e4a3014f" target="_top" xlink:title="constructor">
<polygon fill="none" stroke="#000000" points="191.5,-51.5 191.5,-83.5 362.5,-83.5 362.5,-51.5 191.5,-51.5"/>
<text text-anchor="start" x="199.5" y="-70.5" font-family="FreeSans" font-size="10.00" fill="#000000">PHG4MvtxDetector::PHG4Mvtx</text>
<text text-anchor="middle" x="277" y="-58.5" font-family="FreeSans" font-size="10.00" fill="#000000">Detector</text>
</a>
</g>
</g>
<!-- Node1&#45;&gt;Node26 -->
<g id="edge26" class="edge">
<title>Node1&#45;&gt;Node26</title>
<path fill="none" stroke="#191970" d="M71.4994,-488.1512C81.4852,-405.0126 116.2241,-150.3712 173,-93.5 178.3254,-88.1657 184.5687,-83.8684 191.3063,-80.4136"/>
<polygon fill="#191970" stroke="#191970" points="68.0004,-487.9376 70.3043,-498.2789 74.9522,-488.758 68.0004,-487.9376"/>
</g>
<!-- Node27 -->
<g id="node27" class="node">
<title>Node27</title>
<g id="a_node27"><a xlink:href="../../d4/d9a/classPHG4PSTOFDetector.html#a92e8b8e9153e3fddf4d0ff3e742debba" target="_top" xlink:title="constructor">
<polygon fill="none" stroke="#000000" points="214,-.5 214,-32.5 340,-32.5 340,-.5 214,-.5"/>
<text text-anchor="start" x="222" y="-19.5" font-family="FreeSans" font-size="10.00" fill="#000000">PHG4PSTOFDetector::</text>
<text text-anchor="middle" x="277" y="-7.5" font-family="FreeSans" font-size="10.00" fill="#000000">PHG4PSTOFDetector</text>
</a>
</g>
</g>
<!-- Node1&#45;&gt;Node27 -->
<g id="edge27" class="edge">
<title>Node1&#45;&gt;Node27</title>
<path fill="none" stroke="#191970" d="M70.6973,-488.2013C78.7238,-398.466 109.3747,-106.3115 173,-41.5 183.8626,-30.4349 198.7034,-23.9284 213.7716,-20.1838"/>
<polygon fill="#191970" stroke="#191970" points="67.195,-488.0751 69.8103,-498.3421 74.1684,-488.6851 67.195,-488.0751"/>
</g>
<!-- Node3 -->
<g id="node3" class="node">
<title>Node3</title>
<g id="a_node3"><a xlink:href="../../dc/de8/classPHG4InttDetector.html#af865c6a588ffb6672d3c7f95ad3585af" target="_top" xlink:title="construct">
<polygon fill="none" stroke="#000000" points="417,-976.5 417,-996.5 592,-996.5 592,-976.5 417,-976.5"/>
<text text-anchor="middle" x="504.5" y="-983.5" font-family="FreeSans" font-size="10.00" fill="#000000">PHG4InttDetector::ConstructMe</text>
</a>
</g>
</g>
<!-- Node2&#45;&gt;Node3 -->
<g id="edge2" class="edge">
<title>Node2&#45;&gt;Node3</title>
<path fill="none" stroke="#191970" d="M391.1874,-996.4616C399.7924,-995.7051 408.3941,-994.9489 416.7955,-994.2103"/>
<polygon fill="#191970" stroke="#191970" points="390.7511,-992.9863 381.096,-997.3487 391.3642,-999.9594 390.7511,-992.9863"/>
</g>
<!-- Node4&#45;&gt;Node3 -->
<g id="edge4" class="edge">
<title>Node4&#45;&gt;Node3</title>
<path fill="none" stroke="#191970" d="M376.5044,-975.8103C389.9854,-976.9361 403.7376,-978.0847 416.9874,-979.1913"/>
<polygon fill="#191970" stroke="#191970" points="376.5177,-972.2993 366.2611,-974.9548 375.9351,-979.275 376.5177,-972.2993"/>
</g>
<!-- Node9 -->
<g id="node9" class="node">
<title>Node9</title>
<g id="a_node9"><a xlink:href="../../df/d5e/classPHG4BlockCellReco.html#aa62bbe31407e5e4c80f541dbd5c18aa4" target="_top" xlink:title="module initialization">
<polygon fill="none" stroke="#000000" points="444,-779.5 444,-811.5 565,-811.5 565,-779.5 444,-779.5"/>
<text text-anchor="start" x="452" y="-798.5" font-family="FreeSans" font-size="10.00" fill="#000000">PHG4BlockCellReco::</text>
<text text-anchor="middle" x="504.5" y="-786.5" font-family="FreeSans" font-size="10.00" fill="#000000">InitRun</text>
</a>
</g>
</g>
<!-- Node8&#45;&gt;Node9 -->
<g id="edge9" class="edge">
<title>Node8&#45;&gt;Node9</title>
<path fill="none" stroke="#191970" d="M375.5084,-780.7581C398.6975,-783.4083 422.7471,-786.1568 443.7082,-788.5524"/>
<polygon fill="#191970" stroke="#191970" points="375.6158,-777.2477 365.2831,-779.5895 374.8209,-784.2024 375.6158,-777.2477"/>
</g>
<!-- Node10 -->
<g id="node10" class="node">
<title>Node10</title>
<g id="a_node10"><a xlink:href="../../d5/dd0/classPHG4CylinderCellReco.html#ada869396a39d11561fcbb85572446310" target="_top" xlink:title="module initialization">
<polygon fill="none" stroke="#000000" points="440,-728.5 440,-760.5 569,-760.5 569,-728.5 440,-728.5"/>
<text text-anchor="start" x="448" y="-747.5" font-family="FreeSans" font-size="10.00" fill="#000000">PHG4CylinderCellReco</text>
<text text-anchor="middle" x="504.5" y="-735.5" font-family="FreeSans" font-size="10.00" fill="#000000">::InitRun</text>
</a>
</g>
</g>
<!-- Node8&#45;&gt;Node10 -->
<g id="edge10" class="edge">
<title>Node8&#45;&gt;Node10</title>
<path fill="none" stroke="#191970" d="M375.2648,-758.7017C397.1349,-756.2984 419.7832,-753.8095 439.8942,-751.5995"/>
<polygon fill="#191970" stroke="#191970" points="374.8409,-755.2271 365.2831,-759.7986 375.6056,-762.1852 374.8409,-755.2271"/>
</g>
<!-- Node14 -->
<g id="node14" class="node">
<title>Node14</title>
<g id="a_node14"><a xlink:href="../../da/ded/classG4JLeicVTXSubsystem.html#a0d03568d0c806772bf4e2302b2010516" target="_top" xlink:title="G4JLeicVTXSubsystem\l::InitRunSubsystem">
<polygon fill="none" stroke="#000000" points="440,-626.5 440,-658.5 569,-658.5 569,-626.5 440,-626.5"/>
<text text-anchor="start" x="448" y="-645.5" font-family="FreeSans" font-size="10.00" fill="#000000">G4JLeicVTXSubsystem</text>
<text text-anchor="middle" x="504.5" y="-633.5" font-family="FreeSans" font-size="10.00" fill="#000000">::InitRunSubsystem</text>
</a>
</g>
</g>
<!-- Node13&#45;&gt;Node14 -->
<g id="edge14" class="edge">
<title>Node13&#45;&gt;Node14</title>
<path fill="none" stroke="#191970" d="M374.6888,-627.6644C396.7294,-630.1834 419.591,-632.7961 439.8734,-635.1141"/>
<polygon fill="#191970" stroke="#191970" points="374.9648,-624.1733 364.632,-626.5151 374.1699,-631.128 374.9648,-624.1733"/>
</g>
<!-- Node15 -->
<g id="node15" class="node">
<title>Node15</title>
<g id="a_node15"><a xlink:href="../../dd/d21/classPHG4PSTOFSubsystem.html#a487e12c6abedca9fabf406aaeab10011" target="_top" xlink:title="PHG4PSTOFSubsystem\l::InitRunSubsystem">
<polygon fill="none" stroke="#000000" points="438.5,-575.5 438.5,-607.5 570.5,-607.5 570.5,-575.5 438.5,-575.5"/>
<text text-anchor="start" x="446.5" y="-594.5" font-family="FreeSans" font-size="10.00" fill="#000000">PHG4PSTOFSubsystem</text>
<text text-anchor="middle" x="504.5" y="-582.5" font-family="FreeSans" font-size="10.00" fill="#000000">::InitRunSubsystem</text>
</a>
</g>
</g>
<!-- Node13&#45;&gt;Node15 -->
<g id="edge15" class="edge">
<title>Node13&#45;&gt;Node15</title>
<path fill="none" stroke="#191970" d="M374.7782,-605.7551C396.2828,-603.392 418.5645,-600.9435 438.466,-598.7565"/>
<polygon fill="#191970" stroke="#191970" points="374.1898,-602.2986 364.632,-606.8701 374.9545,-609.2568 374.1898,-602.2986"/>
</g>
</g>
</svg>
