<?xml version="1.0" encoding="UTF-8" standalone="no"?>
<!DOCTYPE svg PUBLIC "-//W3C//DTD SVG 1.1//EN"
 "http://www.w3.org/Graphics/SVG/1.1/DTD/svg11.dtd">
<!-- Generated by graphviz version 2.40.1 (20161225.0304)
 -->
<!-- Title: EICG4B0Subsystem Pages: 1 -->
<svg width="1903pt" height="783pt"
 viewBox="0.00 0.00 1903.00 783.00" xmlns="http://www.w3.org/2000/svg" xmlns:xlink="http://www.w3.org/1999/xlink">
<g id="graph0" class="graph" transform="scale(1 1) rotate(0) translate(4 779)">
<title>EICG4B0Subsystem</title>
<!-- Node1 -->
<g id="node1" class="node">
<title>Node1</title>
<polygon fill="#bfbfbf" stroke="#000000" points="1779,-291.5 1779,-311.5 1895,-311.5 1895,-291.5 1779,-291.5"/>
<text text-anchor="middle" x="1837" y="-298.5" font-family="FreeSans" font-size="10.00" fill="#000000">EICG4B0Subsystem</text>
</g>
<!-- Node2 -->
<g id="node2" class="node">
<title>Node2</title>
<g id="a_node2"><a xlink:href="../../d5/d29/classPHG4DetectorSubsystem.html" target="_top" xlink:title="PHG4DetectorSubsystem">
<polygon fill="none" stroke="#000000" points="1536,-361.5 1536,-381.5 1680,-381.5 1680,-361.5 1536,-361.5"/>
<text text-anchor="middle" x="1608" y="-368.5" font-family="FreeSans" font-size="10.00" fill="#000000">PHG4DetectorSubsystem</text>
</a>
</g>
</g>
<!-- Node2&#45;&gt;Node1 -->
<g id="edge1" class="edge">
<title>Node2&#45;&gt;Node1</title>
<path fill="none" stroke="#191970" d="M1650.4575,-358.5217C1694.9249,-344.9291 1763.8073,-323.8733 1804.2507,-311.5107"/>
<polygon fill="#191970" stroke="#191970" points="1649.3502,-355.2003 1640.8101,-361.4707 1651.3965,-361.8945 1649.3502,-355.2003"/>
</g>
<!-- Node3 -->
<g id="node3" class="node">
<title>Node3</title>
<g id="a_node3"><a xlink:href="../../db/df7/classPHG4Subsystem.html" target="_top" xlink:title="PHG4Subsystem">
<polygon fill="none" stroke="#000000" points="927,-242.5 927,-262.5 1027,-262.5 1027,-242.5 927,-242.5"/>
<text text-anchor="middle" x="977" y="-249.5" font-family="FreeSans" font-size="10.00" fill="#000000">PHG4Subsystem</text>
</a>
</g>
</g>
<!-- Node3&#45;&gt;Node2 -->
<g id="edge2" class="edge">
<title>Node3&#45;&gt;Node2</title>
<path fill="none" stroke="#191970" d="M1037.4308,-254.7581C1159.5101,-259.9508 1431.279,-274.8847 1518,-307.5 1550.4816,-319.7161 1582.0226,-346.6511 1597.7157,-361.3847"/>
<polygon fill="#191970" stroke="#191970" points="1037.2837,-251.249 1027.1463,-254.3287 1036.9916,-258.2429 1037.2837,-251.249"/>
</g>
<!-- Node3&#45;&gt;Node3 -->
<g id="edge7" class="edge">
<title>Node3&#45;&gt;Node3</title>
<path fill="none" stroke="#9a32cd" stroke-dasharray="5,2" d="M948.6696,-271.6639C950.0224,-276.9546 959.4658,-281 977,-281 1003.7188,-281 1011.6509,-271.6067 1000.7964,-262.7271"/>
<polygon fill="#9a32cd" stroke="#9a32cd" points="951.8004,-273.2286 953.2036,-262.7271 945.5579,-270.0615 951.8004,-273.2286"/>
<text text-anchor="middle" x="977" y="-284" font-family="FreeSans" font-size="10.00" fill="#000000"> m_MyMotherSubsystem</text>
</g>
<!-- Node20 -->
<g id="node20" class="node">
<title>Node20</title>
<g id="a_node20"><a xlink:href="../../d3/de7/classPHG4Detector.html" target="_top" xlink:title="base class for phenix detector creation">
<polygon fill="none" stroke="#000000" points="1241.5,-129.5 1241.5,-149.5 1329.5,-149.5 1329.5,-129.5 1241.5,-129.5"/>
<text text-anchor="middle" x="1285.5" y="-136.5" font-family="FreeSans" font-size="10.00" fill="#000000">PHG4Detector</text>
</a>
</g>
</g>
<!-- Node3&#45;&gt;Node20 -->
<g id="edge36" class="edge">
<title>Node3&#45;&gt;Node20</title>
<path fill="none" stroke="#9a32cd" stroke-dasharray="5,2" d="M1008.3733,-238.2937C1050.0014,-219.7752 1126.0449,-187.0917 1193,-164.5 1209.5503,-158.9157 1228.0852,-153.7066 1244.1926,-149.5043"/>
<polygon fill="#9a32cd" stroke="#9a32cd" points="1006.7489,-235.186 999.0475,-242.4619 1009.6053,-241.5767 1006.7489,-235.186"/>
<text text-anchor="middle" x="1130.5" y="-205.5" font-family="FreeSans" font-size="10.00" fill="#000000"> m_MySubsystem</text>
</g>
<!-- Node4 -->
<g id="node4" class="node">
<title>Node4</title>
<g id="a_node4"><a xlink:href="../../d0/d32/classSubsysReco.html" target="_top" xlink:title="SubsysReco">
<polygon fill="none" stroke="#000000" points="646.5,-264.5 646.5,-284.5 722.5,-284.5 722.5,-264.5 646.5,-264.5"/>
<text text-anchor="middle" x="684.5" y="-271.5" font-family="FreeSans" font-size="10.00" fill="#000000">SubsysReco</text>
</a>
</g>
</g>
<!-- Node4&#45;&gt;Node3 -->
<g id="edge3" class="edge">
<title>Node4&#45;&gt;Node3</title>
<path fill="none" stroke="#191970" d="M733.0229,-270.8504C786.6942,-266.8136 872.7403,-260.3418 926.9979,-256.2608"/>
<polygon fill="#191970" stroke="#191970" points="732.4486,-267.3836 722.7393,-271.6239 732.9736,-274.3639 732.4486,-267.3836"/>
</g>
<!-- Node5 -->
<g id="node5" class="node">
<title>Node5</title>
<g id="a_node5"><a xlink:href="../../d5/dec/classFun4AllBase.html" target="_top" xlink:title="Fun4AllBase">
<polygon fill="none" stroke="#000000" points="342,-282.5 342,-302.5 420,-302.5 420,-282.5 342,-282.5"/>
<text text-anchor="middle" x="381" y="-289.5" font-family="FreeSans" font-size="10.00" fill="#000000">Fun4AllBase</text>
</a>
</g>
</g>
<!-- Node5&#45;&gt;Node4 -->
<g id="edge4" class="edge">
<title>Node5&#45;&gt;Node4</title>
<path fill="none" stroke="#191970" d="M430.0847,-289.5889C490.3161,-286.0167 591.1805,-280.0346 646.0723,-276.7791"/>
<polygon fill="#191970" stroke="#191970" points="429.8312,-286.0977 420.056,-290.1837 430.2457,-293.0854 429.8312,-286.0977"/>
</g>
<!-- Node6 -->
<g id="node6" class="node">
<title>Node6</title>
<g id="a_node6"><a xlink:title="STL class.">
<polygon fill="none" stroke="#bfbfbf" points="144,-321.5 144,-341.5 211,-341.5 211,-321.5 144,-321.5"/>
<text text-anchor="middle" x="177.5" y="-328.5" font-family="FreeSans" font-size="10.00" fill="#000000">std::string</text>
</a>
</g>
</g>
<!-- Node6&#45;&gt;Node1 -->
<g id="edge33" class="edge">
<title>Node6&#45;&gt;Node1</title>
<path fill="none" stroke="#9a32cd" stroke-dasharray="5,2" d="M178.0352,-351.6458C181.3799,-433.8432 205.6092,-739.5 381,-739.5 381,-739.5 381,-739.5 1608,-739.5 1807.5027,-739.5 1833.5142,-378.2232 1836.6086,-311.895"/>
<polygon fill="#9a32cd" stroke="#9a32cd" points="181.5309,-351.4589 177.6883,-341.5854 174.5351,-351.7002 181.5309,-351.4589"/>
<text text-anchor="middle" x="977" y="-742.5" font-family="FreeSans" font-size="10.00" fill="#000000"> mappingfile_</text>
</g>
<!-- Node6&#45;&gt;Node2 -->
<g id="edge21" class="edge">
<title>Node6&#45;&gt;Node2</title>
<path fill="none" stroke="#9a32cd" stroke-dasharray="5,2" d="M221.3934,-331.3028C320.2362,-330.8698 567.8215,-329.8467 775,-329.5 816.3333,-329.4308 826.6816,-328.3884 868,-329.5 1157.2027,-337.2806 1229.3169,-345.5039 1518,-364.5 1523.7862,-364.8807 1529.7799,-365.2977 1535.8001,-365.7323"/>
<polygon fill="#9a32cd" stroke="#9a32cd" points="221.1748,-327.8036 211.1903,-331.3477 221.2057,-334.8036 221.1748,-327.8036"/>
<text text-anchor="middle" x="821.5" y="-344.5" font-family="FreeSans" font-size="10.00" fill="#000000"> superdetector</text>
<text text-anchor="middle" x="821.5" y="-332.5" font-family="FreeSans" font-size="10.00" fill="#000000">calibfiledir</text>
</g>
<!-- Node6&#45;&gt;Node5 -->
<g id="edge5" class="edge">
<title>Node6&#45;&gt;Node5</title>
<path fill="none" stroke="#9a32cd" stroke-dasharray="5,2" d="M202.5347,-316.4523C210.705,-312.2074 219.9968,-308.0541 229,-305.5 266.3279,-294.9107 310.711,-292.1838 341.85,-291.7885"/>
<polygon fill="#9a32cd" stroke="#9a32cd" points="200.6256,-313.5075 193.5431,-321.3871 203.9936,-319.644 200.6256,-313.5075"/>
<text text-anchor="middle" x="264" y="-308.5" font-family="FreeSans" font-size="10.00" fill="#000000"> m_ThisName</text>
</g>
<!-- Node8 -->
<g id="node8" class="node">
<title>Node8</title>
<polygon fill="none" stroke="#bfbfbf" points="322,-518.5 322,-550.5 440,-550.5 440,-518.5 322,-518.5"/>
<text text-anchor="start" x="330" y="-537.5" font-family="FreeSans" font-size="10.00" fill="#000000">std::map&lt; const std</text>
<text text-anchor="middle" x="381" y="-525.5" font-family="FreeSans" font-size="10.00" fill="#000000">::string, double &gt;</text>
</g>
<!-- Node6&#45;&gt;Node8 -->
<g id="edge9" class="edge">
<title>Node6&#45;&gt;Node8</title>
<path fill="none" stroke="#9a32cd" stroke-dasharray="5,2" d="M181.0449,-352.003C188.4735,-392.596 206.8331,-481.0466 229,-501.5 253.8076,-524.39 290.6287,-532.7943 321.8167,-535.4017"/>
<polygon fill="#9a32cd" stroke="#9a32cd" points="184.4479,-351.1487 179.2455,-341.9191 177.5567,-352.3785 184.4479,-351.1487"/>
<text text-anchor="middle" x="264" y="-534.5" font-family="FreeSans" font-size="10.00" fill="#000000"> keys</text>
</g>
<!-- Node9 -->
<g id="node9" class="node">
<title>Node9</title>
<polygon fill="none" stroke="#bfbfbf" points="322,-411.5 322,-443.5 440,-443.5 440,-411.5 322,-411.5"/>
<text text-anchor="start" x="330" y="-430.5" font-family="FreeSans" font-size="10.00" fill="#000000">std::map&lt; const std</text>
<text text-anchor="middle" x="381" y="-418.5" font-family="FreeSans" font-size="10.00" fill="#000000">::string, int &gt;</text>
</g>
<!-- Node6&#45;&gt;Node9 -->
<g id="edge11" class="edge">
<title>Node6&#45;&gt;Node9</title>
<path fill="none" stroke="#9a32cd" stroke-dasharray="5,2" d="M190.2047,-350.1207C199.5609,-362.4634 213.3414,-378.0652 229,-387.5 257.1639,-404.4697 292.4915,-414.3264 321.9988,-420.0066"/>
<polygon fill="#9a32cd" stroke="#9a32cd" points="192.9108,-347.89 184.2103,-341.8441 187.2415,-351.9961 192.9108,-347.89"/>
<text text-anchor="middle" x="264" y="-416.5" font-family="FreeSans" font-size="10.00" fill="#000000"> keys</text>
</g>
<!-- Node10 -->
<g id="node10" class="node">
<title>Node10</title>
<g id="a_node10"><a xlink:href="../../dd/dae/classPHParameters.html" target="_top" xlink:title="PHParameters">
<polygon fill="none" stroke="#000000" points="641,-490.5 641,-510.5 728,-510.5 728,-490.5 641,-490.5"/>
<text text-anchor="middle" x="684.5" y="-497.5" font-family="FreeSans" font-size="10.00" fill="#000000">PHParameters</text>
</a>
</g>
</g>
<!-- Node6&#45;&gt;Node10 -->
<g id="edge19" class="edge">
<title>Node6&#45;&gt;Node10</title>
<path fill="none" stroke="#9a32cd" stroke-dasharray="5,2" d="M182.6996,-351.2799C189.5839,-373.5751 203.8867,-409.3326 229,-429.5 292.0276,-480.1146 539.193,-495.059 640.6615,-499.1116"/>
<polygon fill="#9a32cd" stroke="#9a32cd" points="186.0274,-350.1877 179.9011,-341.5437 179.2998,-352.1215 186.0274,-350.1877"/>
<text text-anchor="middle" x="381" y="-487.5" font-family="FreeSans" font-size="10.00" fill="#000000"> m_Detector</text>
</g>
<!-- Node13 -->
<g id="node13" class="node">
<title>Node13</title>
<polygon fill="none" stroke="#bfbfbf" points="321,-360.5 321,-392.5 441,-392.5 441,-360.5 321,-360.5"/>
<text text-anchor="start" x="329" y="-379.5" font-family="FreeSans" font-size="10.00" fill="#000000">std::map&lt; const std</text>
<text text-anchor="middle" x="381" y="-367.5" font-family="FreeSans" font-size="10.00" fill="#000000">::string, std::string &gt;</text>
</g>
<!-- Node6&#45;&gt;Node13 -->
<g id="edge18" class="edge">
<title>Node6&#45;&gt;Node13</title>
<path fill="none" stroke="#9a32cd" stroke-dasharray="5,2" d="M221.0007,-343.5364C223.703,-344.2186 226.3858,-344.8788 229,-345.5 259.1328,-352.6607 292.8664,-359.6436 320.8849,-365.1636"/>
<polygon fill="#9a32cd" stroke="#9a32cd" points="221.776,-340.1217 211.2176,-340.999 220.0185,-346.8975 221.776,-340.1217"/>
<text text-anchor="middle" x="264" y="-374.5" font-family="FreeSans" font-size="10.00" fill="#000000"> keys</text>
<text text-anchor="middle" x="264" y="-362.5" font-family="FreeSans" font-size="10.00" fill="#000000">elements</text>
</g>
<!-- Node14 -->
<g id="node14" class="node">
<title>Node14</title>
<g id="a_node14"><a xlink:href="../../d7/d6b/classPHParametersContainer.html" target="_top" xlink:title="PHParametersContainer">
<polygon fill="none" stroke="#000000" points="1217,-630.5 1217,-650.5 1354,-650.5 1354,-630.5 1217,-630.5"/>
<text text-anchor="middle" x="1285.5" y="-637.5" font-family="FreeSans" font-size="10.00" fill="#000000">PHParametersContainer</text>
</a>
</g>
</g>
<!-- Node6&#45;&gt;Node14 -->
<g id="edge24" class="edge">
<title>Node6&#45;&gt;Node14</title>
<path fill="none" stroke="#9a32cd" stroke-dasharray="5,2" d="M179.4824,-351.8919C184.6389,-400.4863 200.1194,-521.0391 229,-547.5 373.2472,-679.6619 1005.9814,-656.4942 1216.8472,-644.8048"/>
<polygon fill="#9a32cd" stroke="#9a32cd" points="182.9373,-351.2705 178.4397,-341.6777 175.9735,-351.9814 182.9373,-351.2705"/>
<text text-anchor="middle" x="684.5" y="-654.5" font-family="FreeSans" font-size="10.00" fill="#000000"> superdetectorname</text>
</g>
<!-- Node17 -->
<g id="node17" class="node">
<title>Node17</title>
<g id="a_node17"><a xlink:href="../../dc/d82/classPHNode.html" target="_top" xlink:title="PHNode">
<polygon fill="none" stroke="#000000" points="353,-125.5 353,-145.5 409,-145.5 409,-125.5 353,-125.5"/>
<text text-anchor="middle" x="381" y="-132.5" font-family="FreeSans" font-size="10.00" fill="#000000">PHNode</text>
</a>
</g>
</g>
<!-- Node6&#45;&gt;Node17 -->
<g id="edge30" class="edge">
<title>Node6&#45;&gt;Node17</title>
<path fill="none" stroke="#9a32cd" stroke-dasharray="5,2" d="M180.3826,-311.213C186.8961,-268.4472 204.143,-171.2665 229,-150.5 263.5948,-121.5982 319.2722,-124.4669 352.7763,-129.656"/>
<polygon fill="#9a32cd" stroke="#9a32cd" points="176.8944,-310.8769 178.8958,-321.281 183.8193,-311.8996 176.8944,-310.8769"/>
<text text-anchor="middle" x="264" y="-189.5" font-family="FreeSans" font-size="10.00" fill="#000000"> objecttype</text>
<text text-anchor="middle" x="264" y="-177.5" font-family="FreeSans" font-size="10.00" fill="#000000">objectclass</text>
<text text-anchor="middle" x="264" y="-165.5" font-family="FreeSans" font-size="10.00" fill="#000000">type</text>
<text text-anchor="middle" x="264" y="-153.5" font-family="FreeSans" font-size="10.00" fill="#000000">name</text>
</g>
<!-- Node19 -->
<g id="node19" class="node">
<title>Node19</title>
<g id="a_node19"><a xlink:href="../../dc/d55/classEICG4B0Detector.html" target="_top" xlink:title="EICG4B0Detector">
<polygon fill="none" stroke="#000000" points="1556,-98.5 1556,-118.5 1660,-118.5 1660,-98.5 1556,-98.5"/>
<text text-anchor="middle" x="1608" y="-105.5" font-family="FreeSans" font-size="10.00" fill="#000000">EICG4B0Detector</text>
</a>
</g>
</g>
<!-- Node6&#45;&gt;Node19 -->
<g id="edge41" class="edge">
<title>Node6&#45;&gt;Node19</title>
<path fill="none" stroke="#9a32cd" stroke-dasharray="5,2" d="M179.0382,-311.0686C183.4339,-258.1864 197.7938,-118.7079 229,-86.5 277.3812,-36.5658 311.4718,-49.5 381,-49.5 381,-49.5 381,-49.5 1285.5,-49.5 1393.0766,-49.5 1517.5912,-81.6585 1575.3982,-98.4915"/>
<polygon fill="#9a32cd" stroke="#9a32cd" points="175.5337,-310.9878 178.2289,-321.234 182.5116,-311.5434 175.5337,-310.9878"/>
<text text-anchor="middle" x="821.5" y="-52.5" font-family="FreeSans" font-size="10.00" fill="#000000"> m_SuperDetector</text>
</g>
<!-- Node6&#45;&gt;Node20 -->
<g id="edge37" class="edge">
<title>Node6&#45;&gt;Node20</title>
<path fill="none" stroke="#9a32cd" stroke-dasharray="5,2" d="M179.7036,-311.1923C185.2606,-263.8738 201.4042,-148.3372 229,-122.5 279.0864,-75.6054 312.3869,-95.5 381,-95.5 381,-95.5 381,-95.5 977,-95.5 1027.5845,-95.5 1168.879,-118.9777 1241.3708,-131.6337"/>
<polygon fill="#9a32cd" stroke="#9a32cd" points="176.1933,-311.0865 178.5445,-321.4171 183.1487,-311.875 176.1933,-311.0865"/>
<text text-anchor="middle" x="684.5" y="-98.5" font-family="FreeSans" font-size="10.00" fill="#000000"> m_Name</text>
</g>
<!-- Node23 -->
<g id="node23" class="node">
<title>Node23</title>
<g id="a_node23"><a xlink:href="../../df/d3f/classPHG4SteppingAction.html" target="_top" xlink:title="PHG4SteppingAction">
<polygon fill="none" stroke="#000000" points="624,-204.5 624,-224.5 745,-224.5 745,-204.5 624,-204.5"/>
<text text-anchor="middle" x="684.5" y="-211.5" font-family="FreeSans" font-size="10.00" fill="#000000">PHG4SteppingAction</text>
</a>
</g>
</g>
<!-- Node6&#45;&gt;Node23 -->
<g id="edge46" class="edge">
<title>Node6&#45;&gt;Node23</title>
<path fill="none" stroke="#9a32cd" stroke-dasharray="5,2" d="M185.5359,-312.2896C193.9249,-294.432 208.7001,-268.2816 229,-252.5 261.6228,-227.1384 276.3109,-229.7009 317,-222.5 423.6721,-203.6219 550.4622,-206.262 623.7884,-210.1838"/>
<polygon fill="#9a32cd" stroke="#9a32cd" points="182.3175,-310.9133 181.4393,-321.4717 188.7101,-313.7655 182.3175,-310.9133"/>
<text text-anchor="middle" x="381" y="-225.5" font-family="FreeSans" font-size="10.00" fill="#000000"> m_Name</text>
</g>
<!-- Node24 -->
<g id="node24" class="node">
<title>Node24</title>
<polygon fill="none" stroke="#bfbfbf" points="317,-243.5 317,-263.5 445,-263.5 445,-243.5 317,-243.5"/>
<text text-anchor="middle" x="381" y="-250.5" font-family="FreeSans" font-size="10.00" fill="#000000">std::set&lt; std::string &gt;</text>
</g>
<!-- Node6&#45;&gt;Node24 -->
<g id="edge45" class="edge">
<title>Node6&#45;&gt;Node24</title>
<path fill="none" stroke="#9a32cd" stroke-dasharray="5,2" d="M190.0642,-313.0553C199.3569,-300.9326 213.1194,-285.8252 229,-277.5 255.7376,-263.4833 288.4865,-257.1645 316.7303,-254.4789"/>
<polygon fill="#9a32cd" stroke="#9a32cd" points="187.1792,-311.0713 184.1212,-321.2152 192.8376,-315.1923 187.1792,-311.0713"/>
<text text-anchor="middle" x="264" y="-280.5" font-family="FreeSans" font-size="10.00" fill="#000000"> keys</text>
</g>
<!-- Node7 -->
<g id="node7" class="node">
<title>Node7</title>
<g id="a_node7"><a xlink:title="STL class.">
<polygon fill="none" stroke="#bfbfbf" points="0,-315.5 0,-347.5 107,-347.5 107,-315.5 0,-315.5"/>
<text text-anchor="start" x="8" y="-334.5" font-family="FreeSans" font-size="10.00" fill="#000000">std::basic_string&lt;</text>
<text text-anchor="middle" x="53.5" y="-322.5" font-family="FreeSans" font-size="10.00" fill="#000000"> char &gt;</text>
</a>
</g>
</g>
<!-- Node7&#45;&gt;Node6 -->
<g id="edge6" class="edge">
<title>Node7&#45;&gt;Node6</title>
<path fill="none" stroke="#191970" d="M117.4289,-331.5C126.5342,-331.5 135.584,-331.5 143.7918,-331.5"/>
<polygon fill="#191970" stroke="#191970" points="117.167,-328.0001 107.167,-331.5 117.167,-335.0001 117.167,-328.0001"/>
</g>
<!-- Node8&#45;&gt;Node2 -->
<g id="edge8" class="edge">
<title>Node8&#45;&gt;Node2</title>
<path fill="none" stroke="#9a32cd" stroke-dasharray="5,2" d="M450.2859,-539.9998C528.9328,-545.9449 661.0989,-555.0341 775,-558.5 1043.6885,-566.6758 1111.7339,-548.4146 1378,-511.5 1440.6866,-502.8093 1463.8189,-518.2039 1518,-485.5 1561.1764,-459.4386 1591.8213,-404.518 1603.1624,-381.7374"/>
<polygon fill="#9a32cd" stroke="#9a32cd" points="450.2596,-536.4878 440.0229,-539.2189 449.7284,-543.4676 450.2596,-536.4878"/>
<text text-anchor="middle" x="977" y="-574.5" font-family="FreeSans" font-size="10.00" fill="#000000"> default_double</text>
<text text-anchor="middle" x="977" y="-562.5" font-family="FreeSans" font-size="10.00" fill="#000000">dparams</text>
</g>
<!-- Node8&#45;&gt;Node10 -->
<g id="edge15" class="edge">
<title>Node8&#45;&gt;Node10</title>
<path fill="none" stroke="#9a32cd" stroke-dasharray="5,2" d="M450.1886,-523.2161C454.5199,-522.6074 458.8173,-522.0293 463,-521.5 524.5063,-513.7166 595.9545,-507.4384 640.7021,-503.8374"/>
<polygon fill="#9a32cd" stroke="#9a32cd" points="449.4537,-519.786 440.0589,-524.6838 450.4575,-526.7137 449.4537,-519.786"/>
<text text-anchor="middle" x="528.5" y="-524.5" font-family="FreeSans" font-size="10.00" fill="#000000"> m_DoubleParMap</text>
</g>
<!-- Node9&#45;&gt;Node2 -->
<g id="edge10" class="edge">
<title>Node9&#45;&gt;Node2</title>
<path fill="none" stroke="#9a32cd" stroke-dasharray="5,2" d="M450.2509,-427.0809C627.9438,-425.5154 1114.4392,-418.1356 1518,-383.5 1524.4393,-382.9473 1531.1245,-382.2639 1537.8116,-381.5058"/>
<polygon fill="#9a32cd" stroke="#9a32cd" points="449.9725,-423.5831 440.0025,-427.1677 450.0318,-430.5828 449.9725,-423.5831"/>
<text text-anchor="middle" x="977" y="-432.5" font-family="FreeSans" font-size="10.00" fill="#000000"> iparams</text>
<text text-anchor="middle" x="977" y="-420.5" font-family="FreeSans" font-size="10.00" fill="#000000">default_int</text>
</g>
<!-- Node9&#45;&gt;Node10 -->
<g id="edge16" class="edge">
<title>Node9&#45;&gt;Node10</title>
<path fill="none" stroke="#9a32cd" stroke-dasharray="5,2" d="M450.2113,-437.6725C507.0176,-446.1676 580.2603,-457.5105 594,-461.5 619.3023,-468.8468 646.9126,-481.4677 664.8979,-490.3586"/>
<polygon fill="#9a32cd" stroke="#9a32cd" points="450.5802,-434.1889 440.1733,-436.1753 449.5476,-441.1123 450.5802,-434.1889"/>
<text text-anchor="middle" x="528.5" y="-464.5" font-family="FreeSans" font-size="10.00" fill="#000000"> m_IntParMap</text>
</g>
<!-- Node10&#45;&gt;Node2 -->
<g id="edge12" class="edge">
<title>Node10&#45;&gt;Node2</title>
<path fill="none" stroke="#9a32cd" stroke-dasharray="5,2" d="M738.4315,-502.8261C900.1789,-509.011 1378.6067,-521.3098 1518,-457.5 1555.7291,-440.2288 1587.4895,-400.4894 1601.0117,-381.6992"/>
<polygon fill="#9a32cd" stroke="#9a32cd" points="738.3713,-499.3212 728.2424,-502.4284 738.0983,-506.3159 738.3713,-499.3212"/>
<text text-anchor="middle" x="1130.5" y="-509.5" font-family="FreeSans" font-size="10.00" fill="#000000"> params</text>
</g>
<!-- Node15 -->
<g id="node15" class="node">
<title>Node15</title>
<polygon fill="none" stroke="#bfbfbf" points="886,-606.5 886,-626.5 1068,-626.5 1068,-606.5 886,-606.5"/>
<text text-anchor="middle" x="977" y="-613.5" font-family="FreeSans" font-size="10.00" fill="#000000">std::map&lt; int, PHParameters * &gt;</text>
</g>
<!-- Node10&#45;&gt;Node15 -->
<g id="edge26" class="edge">
<title>Node10&#45;&gt;Node15</title>
<path fill="none" stroke="#9a32cd" stroke-dasharray="5,2" d="M713.1714,-515.1691C751.7256,-534.4925 822.7548,-568.6891 886,-591.5 901.7204,-597.1699 919.3601,-602.2905 934.8939,-606.3993"/>
<polygon fill="#9a32cd" stroke="#9a32cd" points="714.5987,-511.9691 704.0937,-510.5928 711.4476,-518.2197 714.5987,-511.9691"/>
<text text-anchor="middle" x="821.5" y="-585.5" font-family="FreeSans" font-size="10.00" fill="#000000"> elements</text>
</g>
<!-- Node10&#45;&gt;Node19 -->
<g id="edge40" class="edge">
<title>Node10&#45;&gt;Node19</title>
<path fill="none" stroke="#9a32cd" stroke-dasharray="5,2" d="M738.3885,-497.1836C829.1935,-491.0955 1008.5996,-476.7784 1068,-455.5 1304.0462,-370.9437 1542.3046,-166.9723 1596.5465,-118.8129"/>
<polygon fill="#9a32cd" stroke="#9a32cd" points="738.0438,-493.6986 728.2965,-497.8507 738.5056,-500.6834 738.0438,-493.6986"/>
<text text-anchor="middle" x="1130.5" y="-451.5" font-family="FreeSans" font-size="10.00" fill="#000000"> m_Params</text>
</g>
<!-- Node11 -->
<g id="node11" class="node">
<title>Node11</title>
<g id="a_node11"><a xlink:href="../../d9/d24/classPHObject.html" target="_top" xlink:title="PHObject">
<polygon fill="none" stroke="#000000" points="349.5,-683.5 349.5,-703.5 412.5,-703.5 412.5,-683.5 349.5,-683.5"/>
<text text-anchor="middle" x="381" y="-690.5" font-family="FreeSans" font-size="10.00" fill="#000000">PHObject</text>
</a>
</g>
</g>
<!-- Node11&#45;&gt;Node10 -->
<g id="edge13" class="edge">
<title>Node11&#45;&gt;Node10</title>
<path fill="none" stroke="#191970" d="M405.3668,-678.0048C465.3916,-639.8342 619.1009,-542.0882 668.7671,-510.5048"/>
<polygon fill="#191970" stroke="#191970" points="403.4504,-675.0757 396.8902,-683.3952 407.2066,-680.9825 403.4504,-675.0757"/>
</g>
<!-- Node11&#45;&gt;Node14 -->
<g id="edge23" class="edge">
<title>Node11&#45;&gt;Node14</title>
<path fill="none" stroke="#191970" d="M422.711,-695.5405C541.2227,-700.6305 889.8043,-710.6903 1175,-669.5 1202.482,-665.5308 1232.9531,-657.2298 1254.9248,-650.522"/>
<polygon fill="#191970" stroke="#191970" points="422.762,-692.0395 412.6173,-695.0948 422.4531,-699.0327 422.762,-692.0395"/>
</g>
<!-- Node12 -->
<g id="node12" class="node">
<title>Node12</title>
<g id="a_node12"><a xlink:href="../../d5/d0f/classTObject.html" target="_top" xlink:title="TObject">
<polygon fill="none" stroke="#000000" points="149,-754.5 149,-774.5 206,-774.5 206,-754.5 149,-754.5"/>
<text text-anchor="middle" x="177.5" y="-761.5" font-family="FreeSans" font-size="10.00" fill="#000000">TObject</text>
</a>
</g>
</g>
<!-- Node12&#45;&gt;Node11 -->
<g id="edge14" class="edge">
<title>Node12&#45;&gt;Node11</title>
<path fill="none" stroke="#191970" d="M215.8058,-751.1353C255.4101,-737.3176 316.353,-716.055 352.0924,-703.5857"/>
<polygon fill="#191970" stroke="#191970" points="214.5138,-747.8791 206.225,-754.478 216.8198,-754.4884 214.5138,-747.8791"/>
</g>
<!-- Node13&#45;&gt;Node2 -->
<g id="edge20" class="edge">
<title>Node13&#45;&gt;Node2</title>
<path fill="none" stroke="#9a32cd" stroke-dasharray="5,2" d="M451.5235,-373.2246C513.0239,-370.6514 604.6453,-367.5 684.5,-367.5 684.5,-367.5 684.5,-367.5 1130.5,-367.5 1274.1281,-367.5 1442.0489,-369.332 1535.6,-370.5164"/>
<polygon fill="#9a32cd" stroke="#9a32cd" points="451.0029,-369.7435 441.1605,-373.6647 451.3,-376.7372 451.0029,-369.7435"/>
<text text-anchor="middle" x="977" y="-382.5" font-family="FreeSans" font-size="10.00" fill="#000000"> default_string</text>
<text text-anchor="middle" x="977" y="-370.5" font-family="FreeSans" font-size="10.00" fill="#000000">cparams</text>
</g>
<!-- Node13&#45;&gt;Node10 -->
<g id="edge17" class="edge">
<title>Node13&#45;&gt;Node10</title>
<path fill="none" stroke="#9a32cd" stroke-dasharray="5,2" d="M451.5274,-383.3216C494.453,-389.556 549.416,-401.3511 594,-423.5 628.5483,-440.6632 660.9131,-473.8381 675.8499,-490.4745"/>
<polygon fill="#9a32cd" stroke="#9a32cd" points="451.8326,-379.8306 441.4472,-381.927 450.8732,-386.7645 451.8326,-379.8306"/>
<text text-anchor="middle" x="528.5" y="-426.5" font-family="FreeSans" font-size="10.00" fill="#000000"> m_StringParMap</text>
</g>
<!-- Node14&#45;&gt;Node2 -->
<g id="edge22" class="edge">
<title>Node14&#45;&gt;Node2</title>
<path fill="none" stroke="#9a32cd" stroke-dasharray="5,2" d="M1364.1372,-636.2222C1413.4066,-629.7603 1475.4127,-614.2351 1518,-577.5 1581.243,-522.9476 1601.6428,-415.649 1606.6343,-381.9099"/>
<polygon fill="#9a32cd" stroke="#9a32cd" points="1363.6524,-632.7552 1354.146,-637.4326 1364.4944,-639.7044 1363.6524,-632.7552"/>
<text text-anchor="middle" x="1457" y="-632.5" font-family="FreeSans" font-size="10.00" fill="#000000"> paramscontainer</text>
</g>
<!-- Node15&#45;&gt;Node14 -->
<g id="edge25" class="edge">
<title>Node15&#45;&gt;Node14</title>
<path fill="none" stroke="#9a32cd" stroke-dasharray="5,2" d="M1078.5991,-622.5119C1109.5646,-624.5216 1143.692,-626.9146 1175,-629.5 1188.5455,-630.6186 1203.0107,-631.9553 1216.8618,-633.3052"/>
<polygon fill="#9a32cd" stroke="#9a32cd" points="1078.4316,-618.994 1068.2277,-621.8454 1077.9826,-625.9796 1078.4316,-618.994"/>
<text text-anchor="middle" x="1130.5" y="-632.5" font-family="FreeSans" font-size="10.00" fill="#000000"> parametermap</text>
</g>
<!-- Node16 -->
<g id="node16" class="node">
<title>Node16</title>
<g id="a_node16"><a xlink:href="../../d5/dca/classPHCompositeNode.html" target="_top" xlink:title="PHCompositeNode">
<polygon fill="none" stroke="#000000" points="922,-147.5 922,-167.5 1032,-167.5 1032,-147.5 922,-147.5"/>
<text text-anchor="middle" x="977" y="-154.5" font-family="FreeSans" font-size="10.00" fill="#000000">PHCompositeNode</text>
</a>
</g>
</g>
<!-- Node16&#45;&gt;Node2 -->
<g id="edge27" class="edge">
<title>Node16&#45;&gt;Node2</title>
<path fill="none" stroke="#9a32cd" stroke-dasharray="5,2" d="M1042.0152,-162.017C1139.0536,-169.2568 1316.9038,-184.5854 1378,-203.5 1445.2314,-224.3139 1461.8312,-235.093 1518,-277.5 1552.4401,-303.502 1585.5882,-343.0298 1600.2008,-361.4262"/>
<polygon fill="#9a32cd" stroke="#9a32cd" points="1042.2559,-158.5253 1032.0252,-161.279 1041.7401,-165.5063 1042.2559,-158.5253"/>
<text text-anchor="middle" x="1285.5" y="-206.5" font-family="FreeSans" font-size="10.00" fill="#000000"> savetopNode</text>
</g>
<!-- Node16&#45;&gt;Node20 -->
<g id="edge38" class="edge">
<title>Node16&#45;&gt;Node20</title>
<path fill="none" stroke="#9a32cd" stroke-dasharray="5,2" d="M1042.2604,-153.6923C1102.137,-150.1987 1189.2036,-145.1186 1241.3072,-142.0785"/>
<polygon fill="#9a32cd" stroke="#9a32cd" points="1041.9327,-150.2053 1032.1536,-154.282 1042.3405,-157.1934 1041.9327,-150.2053"/>
<text text-anchor="middle" x="1130.5" y="-153.5" font-family="FreeSans" font-size="10.00" fill="#000000"> m_topNode</text>
</g>
<!-- Node17&#45;&gt;Node16 -->
<g id="edge28" class="edge">
<title>Node17&#45;&gt;Node16</title>
<path fill="none" stroke="#191970" d="M419.3446,-144.292C433.0457,-147.085 448.6444,-149.8691 463,-151.5 641.904,-171.8249 687.9754,-164.8021 868,-161.5 885.5132,-161.1788 904.6012,-160.5674 921.8394,-159.9176"/>
<polygon fill="#191970" stroke="#191970" points="419.796,-140.8104 409.2893,-142.1734 418.3528,-147.66 419.796,-140.8104"/>
</g>
<!-- Node17&#45;&gt;Node17 -->
<g id="edge29" class="edge">
<title>Node17&#45;&gt;Node17</title>
<path fill="none" stroke="#9a32cd" stroke-dasharray="5,2" d="M359.5689,-155.4109C361.1122,-160.3307 368.2559,-164 381,-164 401.3906,-164 407.4441,-154.6067 399.1604,-145.7271"/>
<polygon fill="#9a32cd" stroke="#9a32cd" points="362.9556,-156.3213 362.8396,-145.7271 356.3237,-154.0813 362.9556,-156.3213"/>
<text text-anchor="middle" x="381" y="-167" font-family="FreeSans" font-size="10.00" fill="#000000"> parent</text>
</g>
<!-- Node18 -->
<g id="node18" class="node">
<title>Node18</title>
<g id="a_node18"><a xlink:href="../../d6/d86/classPHPointerList.html" target="_top" xlink:title="PHPointerList\&lt; PHNode \&gt;">
<polygon fill="none" stroke="#000000" points="612,-126.5 612,-146.5 757,-146.5 757,-126.5 612,-126.5"/>
<text text-anchor="middle" x="684.5" y="-133.5" font-family="FreeSans" font-size="10.00" fill="#000000">PHPointerList&lt; PHNode &gt;</text>
</a>
</g>
</g>
<!-- Node17&#45;&gt;Node18 -->
<g id="edge32" class="edge">
<title>Node17&#45;&gt;Node18</title>
<path fill="none" stroke="#9a32cd" stroke-dasharray="5,2" d="M419.0093,-135.6252C467.1806,-135.784 551.2324,-136.0609 611.8765,-136.2607"/>
<polygon fill="#9a32cd" stroke="#9a32cd" points="419.0201,-132.1254 409.0085,-135.5923 418.9969,-139.1253 419.0201,-132.1254"/>
<text text-anchor="middle" x="528.5" y="-138.5" font-family="FreeSans" font-size="10.00" fill="#000000"> items</text>
</g>
<!-- Node18&#45;&gt;Node16 -->
<g id="edge31" class="edge">
<title>Node18&#45;&gt;Node16</title>
<path fill="none" stroke="#9a32cd" stroke-dasharray="5,2" d="M767.3377,-142.3238C798.853,-144.5513 835.0882,-147.1264 868,-149.5 885.506,-150.7625 904.5919,-152.1571 921.8306,-153.4236"/>
<polygon fill="#9a32cd" stroke="#9a32cd" points="767.5033,-138.8269 757.2815,-141.6136 767.01,-145.8095 767.5033,-138.8269"/>
<text text-anchor="middle" x="821.5" y="-152.5" font-family="FreeSans" font-size="10.00" fill="#000000"> subNodes</text>
</g>
<!-- Node19&#45;&gt;Node1 -->
<g id="edge34" class="edge">
<title>Node19&#45;&gt;Node1</title>
<path fill="none" stroke="#9a32cd" stroke-dasharray="5,2" d="M1635.3946,-123.7883C1667.3333,-142.3004 1720.8599,-175.5037 1761,-211.5 1789.6238,-237.1688 1817.1937,-273.6741 1829.8206,-291.2565"/>
<polygon fill="#9a32cd" stroke="#9a32cd" points="1637.0174,-120.6843 1626.6011,-118.7471 1633.5358,-126.7571 1637.0174,-120.6843"/>
<text text-anchor="middle" x="1729.5" y="-214.5" font-family="FreeSans" font-size="10.00" fill="#000000"> m_Detector</text>
</g>
<!-- Node20&#45;&gt;Node19 -->
<g id="edge35" class="edge">
<title>Node20&#45;&gt;Node19</title>
<path fill="none" stroke="#191970" d="M1339.7383,-134.2864C1399.9551,-128.4981 1496.4667,-119.221 1555.8348,-113.5143"/>
<polygon fill="#191970" stroke="#191970" points="1339.2852,-130.8137 1329.666,-135.2546 1339.9551,-137.7816 1339.2852,-130.8137"/>
</g>
<!-- Node21 -->
<g id="node21" class="node">
<title>Node21</title>
<polygon fill="none" stroke="#bfbfbf" points="1193,-.5 1193,-20.5 1378,-20.5 1378,-.5 1193,-.5"/>
<text text-anchor="middle" x="1285.5" y="-7.5" font-family="FreeSans" font-size="10.00" fill="#000000">std::set&lt; G4VPhysicalVolume * &gt;</text>
</g>
<!-- Node21&#45;&gt;Node19 -->
<g id="edge39" class="edge">
<title>Node21&#45;&gt;Node19</title>
<path fill="none" stroke="#9a32cd" stroke-dasharray="5,2" d="M1388.4584,-1.2071C1430.1693,-1.2241 1477.8608,-6.2284 1518,-23.5 1555.9046,-39.8101 1587.5773,-79.4675 1601.0446,-98.2769"/>
<polygon fill="#9a32cd" stroke="#9a32cd" points="1388.2379,2.2911 1378.2704,-1.3005 1388.3021,-4.7086 1388.2379,2.2911"/>
<text text-anchor="middle" x="1457" y="-26.5" font-family="FreeSans" font-size="10.00" fill="#000000"> m_PhysicalVolumesSet</text>
</g>
<!-- Node22 -->
<g id="node22" class="node">
<title>Node22</title>
<polygon fill="none" stroke="#bfbfbf" points="1199,-78.5 1199,-110.5 1372,-110.5 1372,-78.5 1199,-78.5"/>
<text text-anchor="start" x="1207" y="-97.5" font-family="FreeSans" font-size="10.00" fill="#000000">std::map&lt; G4VPhysicalVolume</text>
<text text-anchor="middle" x="1285.5" y="-85.5" font-family="FreeSans" font-size="10.00" fill="#000000"> *, int &gt;</text>
</g>
<!-- Node22&#45;&gt;Node19 -->
<g id="edge42" class="edge">
<title>Node22&#45;&gt;Node19</title>
<path fill="none" stroke="#9a32cd" stroke-dasharray="5,2" d="M1382.3349,-98.6339C1424.0744,-100.4239 1473.4399,-102.5515 1518,-104.5 1530.1879,-105.0329 1543.3039,-105.6125 1555.651,-106.1607"/>
<polygon fill="#9a32cd" stroke="#9a32cd" points="1382.3136,-95.1299 1372.1728,-98.1984 1382.0137,-102.1235 1382.3136,-95.1299"/>
<text text-anchor="middle" x="1457" y="-107.5" font-family="FreeSans" font-size="10.00" fill="#000000"> m_PhysicalVolumesDet</text>
</g>
<!-- Node23&#45;&gt;Node1 -->
<g id="edge43" class="edge">
<title>Node23&#45;&gt;Node1</title>
<path fill="none" stroke="#9a32cd" stroke-dasharray="5,2" d="M755.6155,-216.0654C881.3471,-219.2159 1151.0553,-227.6925 1378,-246.5 1522.5699,-258.4809 1691.8089,-280.9617 1778.8115,-293.1427"/>
<polygon fill="#9a32cd" stroke="#9a32cd" points="755.4405,-212.5601 745.3572,-215.8122 755.2677,-219.558 755.4405,-212.5601"/>
<text text-anchor="middle" x="1285.5" y="-249.5" font-family="FreeSans" font-size="10.00" fill="#000000"> m_SteppingAction</text>
</g>
<!-- Node24&#45;&gt;Node23 -->
<g id="edge44" class="edge">
<title>Node24&#45;&gt;Node23</title>
<path fill="none" stroke="#9a32cd" stroke-dasharray="5,2" d="M455.4833,-244.1648C496.3806,-239.0122 547.9952,-232.4658 594,-226.5 603.5878,-225.2567 613.7448,-223.9245 623.6554,-222.6165"/>
<polygon fill="#9a32cd" stroke="#9a32cd" points="454.8109,-240.7217 445.3265,-245.4435 455.6854,-247.6669 454.8109,-240.7217"/>
<text text-anchor="start" x="463" y="-257.5" font-family="FreeSans" font-size="10.00" fill="#000000"> m_ScintLightYieldMissing</text>
<text text-anchor="middle" x="528.5" y="-245.5" font-family="FreeSans" font-size="10.00" fill="#000000">MaterialSet</text>
</g>
</g>
</svg>
