<?xml version="1.0" encoding="UTF-8" standalone="no"?>
<!DOCTYPE svg PUBLIC "-//W3C//DTD SVG 1.1//EN"
 "http://www.w3.org/Graphics/SVG/1.1/DTD/svg11.dtd">
<!-- Generated by graphviz version 2.40.1 (20161225.0304)
 -->
<!-- Title: marker Pages: 1 -->
<svg width="1058pt" height="899pt"
 viewBox="0.00 0.00 1058.00 899.00" xmlns="http://www.w3.org/2000/svg" xmlns:xlink="http://www.w3.org/1999/xlink">
<g id="graph0" class="graph" transform="scale(1 1) rotate(0) translate(4 895)">
<title>marker</title>
<!-- Node1 -->
<g id="node1" class="node">
<title>Node1</title>
<polygon fill="#bfbfbf" stroke="#000000" points="0,-370.5 0,-390.5 53,-390.5 53,-370.5 0,-370.5"/>
<text text-anchor="middle" x="26.5" y="-377.5" font-family="FreeSans" font-size="10.00" fill="#000000">marker</text>
</g>
<!-- Node2 -->
<g id="node2" class="node">
<title>Node2</title>
<g id="a_node2"><a xlink:href="../../d3/dad/analysis__resolution_8C.html#ac92c825abaf05bbf41eca5af14788713" target="_top" xlink:title="analysis_resolution">
<polygon fill="none" stroke="#000000" points="117.5,-655.5 117.5,-675.5 229.5,-675.5 229.5,-655.5 117.5,-655.5"/>
<text text-anchor="middle" x="173.5" y="-662.5" font-family="FreeSans" font-size="10.00" fill="#000000">analysis_resolution</text>
</a>
</g>
</g>
<!-- Node1&#45;&gt;Node2 -->
<g id="edge1" class="edge">
<title>Node1&#45;&gt;Node2</title>
<path fill="none" stroke="#191970" d="M28.5167,-400.878C34.4789,-456.9504 53.8416,-611.6776 89,-646.5 96.692,-654.1184 106.7413,-658.9545 117.2135,-661.9705"/>
<polygon fill="#191970" stroke="#191970" points="31.9813,-400.3536 27.4745,-390.7652 25.0182,-401.0713 31.9813,-400.3536"/>
</g>
<!-- Node3 -->
<g id="node3" class="node">
<title>Node3</title>
<g id="a_node3"><a xlink:href="../../d8/de6/classEtmAzimuthalScan.html#a11c983299c561216ec5c52e14b42b436" target="_top" xlink:title="EtmAzimuthalScan::DoIt">
<polygon fill="none" stroke="#000000" points="103.5,-616.5 103.5,-636.5 243.5,-636.5 243.5,-616.5 103.5,-616.5"/>
<text text-anchor="middle" x="173.5" y="-623.5" font-family="FreeSans" font-size="10.00" fill="#000000">EtmAzimuthalScan::DoIt</text>
</a>
</g>
</g>
<!-- Node1&#45;&gt;Node3 -->
<g id="edge2" class="edge">
<title>Node1&#45;&gt;Node3</title>
<path fill="none" stroke="#191970" d="M29.3434,-400.4982C36.8414,-450.4204 58.6789,-578.586 89,-607.5 93.2439,-611.547 98.1559,-614.8019 103.4339,-617.412"/>
<polygon fill="#191970" stroke="#191970" points="32.8045,-399.9772 27.8908,-390.5907 25.8786,-400.9927 32.8045,-399.9772"/>
</g>
<!-- Node4 -->
<g id="node4" class="node">
<title>Node4</title>
<g id="a_node4"><a xlink:href="../../d8/d51/classEicToyModel.html#aedfe69cce3e28220cf5e025b086eb2fe" target="_top" xlink:title="EicToyModel::DrawFlatField\lLines">
<polygon fill="none" stroke="#000000" points="97,-565.5 97,-597.5 250,-597.5 250,-565.5 97,-565.5"/>
<text text-anchor="start" x="105" y="-584.5" font-family="FreeSans" font-size="10.00" fill="#000000">EicToyModel::DrawFlatField</text>
<text text-anchor="middle" x="173.5" y="-572.5" font-family="FreeSans" font-size="10.00" fill="#000000">Lines</text>
</a>
</g>
</g>
<!-- Node1&#45;&gt;Node4 -->
<g id="edge3" class="edge">
<title>Node1&#45;&gt;Node4</title>
<path fill="none" stroke="#191970" d="M27.8821,-400.8846C31.4637,-437.3817 44.193,-514.0313 89,-556.5 92.5532,-559.8678 96.5384,-562.7842 100.7921,-565.3095"/>
<polygon fill="#191970" stroke="#191970" points="31.3379,-400.2113 27.0116,-390.54 24.3626,-400.7983 31.3379,-400.2113"/>
</g>
<!-- Node27 -->
<g id="node27" class="node">
<title>Node27</title>
<g id="a_node27"><a xlink:href="../../d8/d51/classEicToyModel.html#a9d7301b726a53082e51530dbb27ce68f" target="_top" xlink:title="EicToyModel::DrawMarkers">
<polygon fill="none" stroke="#000000" points="98,-526.5 98,-546.5 249,-546.5 249,-526.5 98,-526.5"/>
<text text-anchor="middle" x="173.5" y="-533.5" font-family="FreeSans" font-size="10.00" fill="#000000">EicToyModel::DrawMarkers</text>
</a>
</g>
</g>
<!-- Node1&#45;&gt;Node27 -->
<g id="edge30" class="edge">
<title>Node1&#45;&gt;Node27</title>
<path fill="none" stroke="#191970" d="M29.9113,-400.817C36.0952,-431.0555 52.1077,-487.5453 89,-517.5 93.4358,-521.1016 98.4165,-524.0527 103.6828,-526.4669"/>
<polygon fill="#191970" stroke="#191970" points="33.2829,-399.8067 27.9995,-390.6232 26.4029,-401.0971 33.2829,-399.8067"/>
</g>
<!-- Node28 -->
<g id="node28" class="node">
<title>Node28</title>
<g id="a_node28"><a xlink:href="../../dd/d63/classFairDbBinaryFile.html#a5a73d6f73ddf8f59ca29e1a924741fae" target="_top" xlink:title="FairDbBinaryFile::operator\&lt;\&lt;">
<polygon fill="none" stroke="#000000" points="91.5,-487.5 91.5,-507.5 255.5,-507.5 255.5,-487.5 91.5,-487.5"/>
<text text-anchor="middle" x="173.5" y="-494.5" font-family="FreeSans" font-size="10.00" fill="#000000">FairDbBinaryFile::operator&lt;&lt;</text>
</a>
</g>
</g>
<!-- Node1&#45;&gt;Node28 -->
<g id="edge32" class="edge">
<title>Node1&#45;&gt;Node28</title>
<path fill="none" stroke="#191970" d="M33.6866,-400.2368C42.9344,-422.7562 61.1979,-458.9805 89,-478.5 94.1686,-482.1288 99.9157,-485.0783 105.9124,-487.4738"/>
<polygon fill="#191970" stroke="#191970" points="36.8591,-398.7382 29.9691,-390.6896 30.3361,-401.2781 36.8591,-398.7382"/>
</g>
<!-- Node29 -->
<g id="node29" class="node">
<title>Node29</title>
<g id="a_node29"><a xlink:href="../../dd/d63/classFairDbBinaryFile.html#a6eb33d915dac3f547e37f9e90a67c513" target="_top" xlink:title="FairDbBinaryFile::operator\&gt;\&gt;">
<polygon fill="none" stroke="#000000" points="91.5,-448.5 91.5,-468.5 255.5,-468.5 255.5,-448.5 91.5,-448.5"/>
<text text-anchor="middle" x="173.5" y="-455.5" font-family="FreeSans" font-size="10.00" fill="#000000">FairDbBinaryFile::operator&gt;&gt;</text>
</a>
</g>
</g>
<!-- Node1&#45;&gt;Node29 -->
<g id="edge33" class="edge">
<title>Node1&#45;&gt;Node29</title>
<path fill="none" stroke="#191970" d="M40.9376,-398.5991C52.5351,-411.9114 69.9804,-429.3824 89,-439.5 95.7702,-443.1015 103.1966,-446.0221 110.749,-448.3901"/>
<polygon fill="#191970" stroke="#191970" points="43.3113,-395.9828 34.2031,-390.5706 37.9483,-400.4815 43.3113,-395.9828"/>
</g>
<!-- Node30 -->
<g id="node30" class="node">
<title>Node30</title>
<g id="a_node30"><a xlink:href="../../dc/db3/classtetgenmesh.html#ad3e1b0a623146c7bf47e9fdf0dc905e9" target="_top" xlink:title="tetgenmesh::outedges">
<polygon fill="none" stroke="#000000" points="108,-409.5 108,-429.5 239,-429.5 239,-409.5 108,-409.5"/>
<text text-anchor="middle" x="173.5" y="-416.5" font-family="FreeSans" font-size="10.00" fill="#000000">tetgenmesh::outedges</text>
</a>
</g>
</g>
<!-- Node1&#45;&gt;Node30 -->
<g id="edge34" class="edge">
<title>Node1&#45;&gt;Node30</title>
<path fill="none" stroke="#191970" d="M62.8159,-392.7195C71.3611,-395.4281 80.4661,-398.18 89,-400.5 100.7529,-403.6951 113.528,-406.7704 125.5018,-409.4819"/>
<polygon fill="#191970" stroke="#191970" points="63.7011,-389.3276 53.1095,-389.5882 61.552,-395.9895 63.7011,-389.3276"/>
</g>
<!-- Node35 -->
<g id="node35" class="node">
<title>Node35</title>
<g id="a_node35"><a xlink:href="../../dc/db3/classtetgenmesh.html#a66e4aa0af0703d1cb1a88e6d5f5a7fe6" target="_top" xlink:title="tetgenmesh::outfaces">
<polygon fill="none" stroke="#000000" points="110,-136.5 110,-156.5 237,-156.5 237,-136.5 110,-136.5"/>
<text text-anchor="middle" x="173.5" y="-143.5" font-family="FreeSans" font-size="10.00" fill="#000000">tetgenmesh::outfaces</text>
</a>
</g>
</g>
<!-- Node1&#45;&gt;Node35 -->
<g id="edge39" class="edge">
<title>Node1&#45;&gt;Node35</title>
<path fill="none" stroke="#191970" d="M29.7391,-360.407C37.8576,-312.5084 60.4824,-193.5789 89,-166.5 94.9034,-160.8945 102.076,-156.7639 109.7199,-153.7354"/>
<polygon fill="#191970" stroke="#191970" points="26.253,-360.0357 28.0707,-370.4734 33.1588,-361.1803 26.253,-360.0357"/>
</g>
<!-- Node43 -->
<g id="node43" class="node">
<title>Node43</title>
<g id="a_node43"><a xlink:href="../../dc/db3/classtetgenmesh.html#a250644e2c1dc425aa602744de3240964" target="_top" xlink:title="tetgenmesh::outmesh2medit">
<polygon fill="none" stroke="#000000" points="91.5,-370.5 91.5,-390.5 255.5,-390.5 255.5,-370.5 91.5,-370.5"/>
<text text-anchor="middle" x="173.5" y="-377.5" font-family="FreeSans" font-size="10.00" fill="#000000">tetgenmesh::outmesh2medit</text>
</a>
</g>
</g>
<!-- Node1&#45;&gt;Node43 -->
<g id="edge50" class="edge">
<title>Node1&#45;&gt;Node43</title>
<path fill="none" stroke="#191970" d="M63.2181,-380.5C71.9119,-380.5 81.5306,-380.5 91.3583,-380.5"/>
<polygon fill="#191970" stroke="#191970" points="63.1206,-377.0001 53.1206,-380.5 63.1206,-384.0001 63.1206,-377.0001"/>
</g>
<!-- Node44 -->
<g id="node44" class="node">
<title>Node44</title>
<g id="a_node44"><a xlink:href="../../dc/db3/classtetgenmesh.html#a7822fa38f096959d128175922aa57460" target="_top" xlink:title="tetgenmesh::outnodes">
<polygon fill="none" stroke="#000000" points="108,-331.5 108,-351.5 239,-351.5 239,-331.5 108,-331.5"/>
<text text-anchor="middle" x="173.5" y="-338.5" font-family="FreeSans" font-size="10.00" fill="#000000">tetgenmesh::outnodes</text>
</a>
</g>
</g>
<!-- Node1&#45;&gt;Node44 -->
<g id="edge52" class="edge">
<title>Node1&#45;&gt;Node44</title>
<path fill="none" stroke="#191970" d="M62.8667,-369.0244C71.4097,-366.4455 80.501,-363.7952 89,-361.5 101.8076,-358.0412 115.7948,-354.5971 128.6373,-351.5662"/>
<polygon fill="#191970" stroke="#191970" points="61.6974,-365.7219 53.1582,-371.9935 63.7446,-372.4158 61.6974,-365.7219"/>
</g>
<!-- Node45 -->
<g id="node45" class="node">
<title>Node45</title>
<g id="a_node45"><a xlink:href="../../dc/db3/classtetgenmesh.html#a67e2e2af4832c793325d3c76c305ea6e" target="_top" xlink:title="tetgenmesh::outsmesh">
<polygon fill="none" stroke="#000000" points="107,-292.5 107,-312.5 240,-312.5 240,-292.5 107,-292.5"/>
<text text-anchor="middle" x="173.5" y="-299.5" font-family="FreeSans" font-size="10.00" fill="#000000">tetgenmesh::outsmesh</text>
</a>
</g>
</g>
<!-- Node1&#45;&gt;Node45 -->
<g id="edge54" class="edge">
<title>Node1&#45;&gt;Node45</title>
<path fill="none" stroke="#191970" d="M41.4309,-362.3276C53.0759,-349.3336 70.3595,-332.4484 89,-322.5 96.5809,-318.4541 104.9751,-315.2184 113.4446,-312.6326"/>
<polygon fill="#191970" stroke="#191970" points="38.5248,-360.3377 34.6352,-370.1927 43.8215,-364.9143 38.5248,-360.3377"/>
</g>
<!-- Node46 -->
<g id="node46" class="node">
<title>Node46</title>
<g id="a_node46"><a xlink:href="../../dc/db3/classtetgenmesh.html#a357976a26bd46ca731e3492f6d96e7eb" target="_top" xlink:title="tetgenmesh::outsubfaces">
<polygon fill="none" stroke="#000000" points="100.5,-253.5 100.5,-273.5 246.5,-273.5 246.5,-253.5 100.5,-253.5"/>
<text text-anchor="middle" x="173.5" y="-260.5" font-family="FreeSans" font-size="10.00" fill="#000000">tetgenmesh::outsubfaces</text>
</a>
</g>
</g>
<!-- Node1&#45;&gt;Node46 -->
<g id="edge56" class="edge">
<title>Node1&#45;&gt;Node46</title>
<path fill="none" stroke="#191970" d="M33.7799,-361.0168C43.116,-338.7767 61.4632,-302.9687 89,-283.5 94.7855,-279.4096 101.2949,-276.147 108.0673,-273.5461"/>
<polygon fill="#191970" stroke="#191970" points="30.4738,-359.8585 30.0214,-370.4436 36.9761,-362.4509 30.4738,-359.8585"/>
</g>
<!-- Node47 -->
<g id="node47" class="node">
<title>Node47</title>
<g id="a_node47"><a xlink:href="../../dc/db3/classtetgenmesh.html#a9074a5c187967e3d4a7a7851b4900c09" target="_top" xlink:title="tetgenmesh::outsubsegments">
<polygon fill="none" stroke="#000000" points="89.5,-214.5 89.5,-234.5 257.5,-234.5 257.5,-214.5 89.5,-214.5"/>
<text text-anchor="middle" x="173.5" y="-221.5" font-family="FreeSans" font-size="10.00" fill="#000000">tetgenmesh::outsubsegments</text>
</a>
</g>
</g>
<!-- Node1&#45;&gt;Node47 -->
<g id="edge58" class="edge">
<title>Node1&#45;&gt;Node47</title>
<path fill="none" stroke="#191970" d="M29.9993,-360.3799C36.2976,-330.4253 52.4567,-274.4287 89,-244.5 93.8985,-240.4882 99.4641,-237.2544 105.3461,-234.6513"/>
<polygon fill="#191970" stroke="#191970" points="26.5092,-359.9938 28.0463,-370.4765 33.3818,-361.3232 26.5092,-359.9938"/>
</g>
<!-- Node48 -->
<g id="node48" class="node">
<title>Node48</title>
<g id="a_node48"><a xlink:href="../../d8/dc3/classfileEventiterator.html#aec0bb7ea4c827747ace5f592fd48b365" target="_top" xlink:title="fileEventiterator::\lread_next_buffer">
<polygon fill="none" stroke="#000000" points="121.5,-46.5 121.5,-78.5 225.5,-78.5 225.5,-46.5 121.5,-46.5"/>
<text text-anchor="start" x="129.5" y="-65.5" font-family="FreeSans" font-size="10.00" fill="#000000">fileEventiterator::</text>
<text text-anchor="middle" x="173.5" y="-53.5" font-family="FreeSans" font-size="10.00" fill="#000000">read_next_buffer</text>
</a>
</g>
</g>
<!-- Node1&#45;&gt;Node48 -->
<g id="edge60" class="edge">
<title>Node1&#45;&gt;Node48</title>
<path fill="none" stroke="#191970" d="M29.759,-360.0583C38.4877,-307.0509 63.4699,-166.5828 89,-127.5 102.5635,-106.7363 125.0796,-89.9005 143.4598,-78.5695"/>
<polygon fill="#191970" stroke="#191970" points="26.2539,-359.8077 28.1063,-370.2394 33.1635,-360.9294 26.2539,-359.8077"/>
</g>
<!-- Node50 -->
<g id="node50" class="node">
<title>Node50</title>
<g id="a_node50"><a xlink:href="../../dc/db3/classtetgenmesh.html#ad44b2ea3720da385a0cbcf306884e126" target="_top" xlink:title="tetgenmesh::reconstructmesh">
<polygon fill="none" stroke="#000000" points="89,-175.5 89,-195.5 258,-195.5 258,-175.5 89,-175.5"/>
<text text-anchor="middle" x="173.5" y="-182.5" font-family="FreeSans" font-size="10.00" fill="#000000">tetgenmesh::reconstructmesh</text>
</a>
</g>
</g>
<!-- Node1&#45;&gt;Node50 -->
<g id="edge62" class="edge">
<title>Node1&#45;&gt;Node50</title>
<path fill="none" stroke="#191970" d="M27.6928,-359.9827C30.9712,-323.295 43.2321,-246.466 89,-205.5 93.4932,-201.4782 98.6452,-198.225 104.1405,-195.5983"/>
<polygon fill="#191970" stroke="#191970" points="24.1703,-360.1538 26.9129,-370.3874 31.1507,-360.677 24.1703,-360.1538"/>
</g>
<!-- Node5 -->
<g id="node5" class="node">
<title>Node5</title>
<g id="a_node5"><a xlink:href="../../d8/d51/classEicToyModel.html#af4e85f898ae520f6911845be37c0abf2" target="_top" xlink:title="EicToyModel::DrawMe">
<polygon fill="none" stroke="#000000" points="294,-616.5 294,-636.5 420,-636.5 420,-616.5 294,-616.5"/>
<text text-anchor="middle" x="357" y="-623.5" font-family="FreeSans" font-size="10.00" fill="#000000">EicToyModel::DrawMe</text>
</a>
</g>
</g>
<!-- Node4&#45;&gt;Node5 -->
<g id="edge4" class="edge">
<title>Node4&#45;&gt;Node5</title>
<path fill="none" stroke="#191970" d="M248.7434,-599.9521C271.7934,-605.6046 296.2807,-611.6097 316.1249,-616.4761"/>
<polygon fill="#191970" stroke="#191970" points="249.5164,-596.538 238.9706,-597.5555 247.8491,-603.3366 249.5164,-596.538"/>
</g>
<!-- Node6 -->
<g id="node6" class="node">
<title>Node6</title>
<g id="a_node6"><a xlink:href="../../d8/d51/classEicToyModel.html#a4dbbfeb27b0e2ea002539841fd8ef1db" target="_top" xlink:title="EicToyModel::vdraw">
<polygon fill="none" stroke="#000000" points="486.5,-870.5 486.5,-890.5 602.5,-890.5 602.5,-870.5 486.5,-870.5"/>
<text text-anchor="middle" x="544.5" y="-877.5" font-family="FreeSans" font-size="10.00" fill="#000000">EicToyModel::vdraw</text>
</a>
</g>
</g>
<!-- Node5&#45;&gt;Node6 -->
<g id="edge5" class="edge">
<title>Node5&#45;&gt;Node6</title>
<path fill="none" stroke="#191970" d="M359.3023,-646.8571C365.6314,-692.7891 387.6394,-804.8745 456,-861.5 464.5925,-868.6174 475.2262,-873.2484 486.1079,-876.2246"/>
<polygon fill="#191970" stroke="#191970" points="362.742,-646.1594 358.0124,-636.6788 355.7975,-647.0395 362.742,-646.1594"/>
</g>
<!-- Node7 -->
<g id="node7" class="node">
<title>Node7</title>
<g id="a_node7"><a xlink:href="../../d8/d51/classEicToyModel.html#a52a22eaffd93d2738a0ad4e1174c3b14" target="_top" xlink:title="EicToyModel::hdraw">
<polygon fill="none" stroke="#000000" points="486,-831.5 486,-851.5 603,-851.5 603,-831.5 486,-831.5"/>
<text text-anchor="middle" x="544.5" y="-838.5" font-family="FreeSans" font-size="10.00" fill="#000000">EicToyModel::hdraw</text>
</a>
</g>
</g>
<!-- Node5&#45;&gt;Node7 -->
<g id="edge6" class="edge">
<title>Node5&#45;&gt;Node7</title>
<path fill="none" stroke="#191970" d="M361.0729,-646.4696C370.3466,-686.5707 396.9656,-776.9401 456,-822.5 464.5841,-829.1248 474.97,-833.5587 485.563,-836.5014"/>
<polygon fill="#191970" stroke="#191970" points="364.4634,-645.5905 358.9047,-636.571 357.6255,-647.0883 364.4634,-645.5905"/>
</g>
<!-- Node8 -->
<g id="node8" class="node">
<title>Node8</title>
<g id="a_node8"><a xlink:href="../../d8/d51/classEicToyModel.html#a2aa707f5baa02887602f572605a11b91" target="_top" xlink:title="EicToyModel::draw">
<polygon fill="none" stroke="#000000" points="489.5,-792.5 489.5,-812.5 599.5,-812.5 599.5,-792.5 489.5,-792.5"/>
<text text-anchor="middle" x="544.5" y="-799.5" font-family="FreeSans" font-size="10.00" fill="#000000">EicToyModel::draw</text>
</a>
</g>
</g>
<!-- Node5&#45;&gt;Node8 -->
<g id="edge7" class="edge">
<title>Node5&#45;&gt;Node8</title>
<path fill="none" stroke="#191970" d="M363.6159,-646.1851C376.038,-679.9668 406.1843,-748.6948 456,-783.5 465.7903,-790.3403 477.5675,-794.7937 489.2891,-797.6746"/>
<polygon fill="#191970" stroke="#191970" points="366.8363,-644.7937 360.2031,-636.5323 360.2367,-647.1271 366.8363,-644.7937"/>
</g>
<!-- Node9 -->
<g id="node9" class="node">
<title>Node9</title>
<g id="a_node9"><a xlink:href="../../d8/d51/classEicToyModel.html#a7fa858bc595e1fde958138bd1be33e9f" target="_top" xlink:title="EicToyModel::Construct">
<polygon fill="none" stroke="#000000" points="477.5,-753.5 477.5,-773.5 611.5,-773.5 611.5,-753.5 477.5,-753.5"/>
<text text-anchor="middle" x="544.5" y="-760.5" font-family="FreeSans" font-size="10.00" fill="#000000">EicToyModel::Construct</text>
</a>
</g>
</g>
<!-- Node5&#45;&gt;Node9 -->
<g id="edge8" class="edge">
<title>Node5&#45;&gt;Node9</title>
<path fill="none" stroke="#191970" d="M368.5045,-645.1613C384.8698,-670.1439 417.2283,-714.1314 456,-738.5 466.2734,-744.957 478.2469,-749.7835 490.0056,-753.3785"/>
<polygon fill="#191970" stroke="#191970" points="371.3675,-643.1417 363.0353,-636.5976 365.468,-646.9094 371.3675,-643.1417"/>
</g>
<!-- Node10 -->
<g id="node10" class="node">
<title>Node10</title>
<g id="a_node10"><a xlink:href="../../d8/d51/classEicToyModel.html#a6bd065edd7a47abe1d3f3a44d1853664" target="_top" xlink:title="EicToyModel::acceptance">
<polygon fill="none" stroke="#000000" points="682.5,-816.5 682.5,-836.5 825.5,-836.5 825.5,-816.5 682.5,-816.5"/>
<text text-anchor="middle" x="754" y="-823.5" font-family="FreeSans" font-size="10.00" fill="#000000">EicToyModel::acceptance</text>
</a>
</g>
</g>
<!-- Node5&#45;&gt;Node10 -->
<g id="edge9" class="edge">
<title>Node5&#45;&gt;Node10</title>
<path fill="none" stroke="#191970" d="M373.684,-643.8831C392.1211,-662.0448 423.5274,-690.0061 456,-705.5 528.702,-740.1888 568.1133,-696.7653 633,-744.5 658.9769,-763.6102 643.0522,-788.3503 669,-807.5 673.8666,-811.0916 679.2876,-814.0247 684.9709,-816.4174"/>
<polygon fill="#191970" stroke="#191970" points="376.1422,-641.3914 366.6111,-636.7645 371.1765,-646.3252 376.1422,-641.3914"/>
</g>
<!-- Node12 -->
<g id="node12" class="node">
<title>Node12</title>
<g id="a_node12"><a xlink:href="../../d8/d51/classEicToyModel.html#a220d011e7ba4dbd1c651ea7bbbf21945" target="_top" xlink:title="EicToyModel::ip">
<polygon fill="none" stroke="#000000" points="497.5,-636.5 497.5,-656.5 591.5,-656.5 591.5,-636.5 497.5,-636.5"/>
<text text-anchor="middle" x="544.5" y="-643.5" font-family="FreeSans" font-size="10.00" fill="#000000">EicToyModel::ip</text>
</a>
</g>
</g>
<!-- Node5&#45;&gt;Node12 -->
<g id="edge11" class="edge">
<title>Node5&#45;&gt;Node12</title>
<path fill="none" stroke="#191970" d="M430.4118,-634.3306C452.8935,-636.7286 477.0146,-639.3016 497.2601,-641.4611"/>
<polygon fill="#191970" stroke="#191970" points="430.5324,-630.8237 420.2175,-633.2432 429.7899,-637.7842 430.5324,-630.8237"/>
</g>
<!-- Node15 -->
<g id="node15" class="node">
<title>Node15</title>
<g id="a_node15"><a xlink:href="../../d8/d51/classEicToyModel.html#a3f57c6e6dad62c300918a54aab8bb8b8" target="_top" xlink:title="EicToyModel::RebuildEverything">
<polygon fill="none" stroke="#000000" points="456,-597.5 456,-617.5 633,-617.5 633,-597.5 456,-597.5"/>
<text text-anchor="middle" x="544.5" y="-604.5" font-family="FreeSans" font-size="10.00" fill="#000000">EicToyModel::RebuildEverything</text>
</a>
</g>
</g>
<!-- Node5&#45;&gt;Node15 -->
<g id="edge16" class="edge">
<title>Node5&#45;&gt;Node15</title>
<path fill="none" stroke="#191970" d="M430.3272,-619.0695C438.7246,-618.2186 447.3518,-617.3444 455.9211,-616.476"/>
<polygon fill="#191970" stroke="#191970" points="429.8137,-615.6035 420.2175,-620.094 430.5195,-622.5679 429.8137,-615.6035"/>
</g>
<!-- Node17 -->
<g id="node17" class="node">
<title>Node17</title>
<g id="a_node17"><a xlink:href="../../d8/d51/classEicToyModel.html#a9f033d66f5982d2cb1380f4ae95ba202" target="_top" xlink:title="EicToyModel::AddEtaLine">
<polygon fill="none" stroke="#000000" points="473.5,-675.5 473.5,-695.5 615.5,-695.5 615.5,-675.5 473.5,-675.5"/>
<text text-anchor="middle" x="544.5" y="-682.5" font-family="FreeSans" font-size="10.00" fill="#000000">EicToyModel::AddEtaLine</text>
</a>
</g>
</g>
<!-- Node5&#45;&gt;Node17 -->
<g id="edge18" class="edge">
<title>Node5&#45;&gt;Node17</title>
<path fill="none" stroke="#191970" d="M387.8284,-640.5597C407.1171,-648.952 432.6529,-659.3359 456,-666.5 466.967,-669.8653 478.8757,-672.8562 490.2972,-675.4127"/>
<polygon fill="#191970" stroke="#191970" points="389.1896,-637.3348 378.6276,-636.5016 386.3648,-643.7395 389.1896,-637.3348"/>
</g>
<!-- Node18 -->
<g id="node18" class="node">
<title>Node18</title>
<g id="a_node18"><a xlink:href="../../d8/d51/classEicToyModel.html#aced6dd817a16ee06a4b51fc9fd3527bd" target="_top" xlink:title="EicToyModel::home">
<polygon fill="none" stroke="#ff0000" points="487.5,-558.5 487.5,-578.5 601.5,-578.5 601.5,-558.5 487.5,-558.5"/>
<text text-anchor="middle" x="544.5" y="-565.5" font-family="FreeSans" font-size="10.00" fill="#000000">EicToyModel::home</text>
</a>
</g>
</g>
<!-- Node5&#45;&gt;Node18 -->
<g id="edge20" class="edge">
<title>Node5&#45;&gt;Node18</title>
<path fill="none" stroke="#191970" d="M376.4421,-611.274C396.1971,-600.7493 427.8157,-588.0451 456,-579.5 465.9491,-576.4836 476.6506,-573.6931 487.0552,-571.3669"/>
<polygon fill="#191970" stroke="#191970" points="374.4525,-608.3802 367.5189,-616.3912 377.9349,-614.4526 374.4525,-608.3802"/>
</g>
<!-- Node26 -->
<g id="node26" class="node">
<title>Node26</title>
<g id="a_node26"><a xlink:href="../../d8/d51/classEicToyModel.html#a31dff983301cdf101672d8195e3723ad" target="_top" xlink:title="EicToyModel::zoom">
<polygon fill="none" stroke="#ff0000" points="488.5,-519.5 488.5,-539.5 600.5,-539.5 600.5,-519.5 488.5,-519.5"/>
<text text-anchor="middle" x="544.5" y="-526.5" font-family="FreeSans" font-size="10.00" fill="#000000">EicToyModel::zoom</text>
</a>
</g>
</g>
<!-- Node5&#45;&gt;Node26 -->
<g id="edge29" class="edge">
<title>Node5&#45;&gt;Node26</title>
<path fill="none" stroke="#191970" d="M374.3344,-609.0852C392.9274,-591.4149 424.1058,-564.5795 456,-549.5 466.1108,-544.7196 477.4207,-541.0525 488.4868,-538.2488"/>
<polygon fill="#191970" stroke="#191970" points="371.6816,-606.7826 366.9455,-616.2599 376.558,-611.8046 371.6816,-606.7826"/>
</g>
<!-- Node11 -->
<g id="node11" class="node">
<title>Node11</title>
<g id="a_node11"><a xlink:href="../../d8/d51/classEicToyModel.html#a7c8f27079b57a2f4d7df2850e0046189" target="_top" xlink:title="EicToyModel::EicToyModel">
<polygon fill="none" stroke="#000000" points="889,-816.5 889,-836.5 1036,-836.5 1036,-816.5 889,-816.5"/>
<text text-anchor="middle" x="962.5" y="-823.5" font-family="FreeSans" font-size="10.00" fill="#000000">EicToyModel::EicToyModel</text>
</a>
</g>
</g>
<!-- Node10&#45;&gt;Node11 -->
<g id="edge10" class="edge">
<title>Node10&#45;&gt;Node11</title>
<path fill="none" stroke="#191970" d="M835.9169,-826.5C853.3768,-826.5 871.7137,-826.5 888.8417,-826.5"/>
<polygon fill="#191970" stroke="#191970" points="835.7539,-823.0001 825.7539,-826.5 835.7538,-830.0001 835.7539,-823.0001"/>
</g>
<!-- Node13 -->
<g id="node13" class="node">
<title>Node13</title>
<g id="a_node13"><a xlink:href="../../d8/d51/classEicToyModel.html#a04f57545619e7a517b874740c9aa103b" target="_top" xlink:title="EicToyModel::CalculateDefault\lEtaBoundaries">
<polygon fill="none" stroke="#000000" points="669,-765.5 669,-797.5 839,-797.5 839,-765.5 669,-765.5"/>
<text text-anchor="start" x="677" y="-784.5" font-family="FreeSans" font-size="10.00" fill="#000000">EicToyModel::CalculateDefault</text>
<text text-anchor="middle" x="754" y="-772.5" font-family="FreeSans" font-size="10.00" fill="#000000">EtaBoundaries</text>
</a>
</g>
</g>
<!-- Node12&#45;&gt;Node13 -->
<g id="edge12" class="edge">
<title>Node12&#45;&gt;Node13</title>
<path fill="none" stroke="#191970" d="M601.7462,-651.2122C613.0236,-654.295 624.1037,-659.0963 633,-666.5 664.2203,-692.4821 639.4978,-722.5823 669,-750.5 675.3892,-756.546 683.0504,-761.4303 691.1216,-765.3718"/>
<polygon fill="#191970" stroke="#191970" points="602.366,-647.7633 591.8349,-648.9232 600.7908,-654.5837 602.366,-647.7633"/>
</g>
<!-- Node14 -->
<g id="node14" class="node">
<title>Node14</title>
<g id="a_node14"><a xlink:href="../../d8/d51/classEicToyModel.html#ae97702960b055eb3be40ad2f03f27846" target="_top" xlink:title="EicToyModel::ExecuteBoundary\lModificationRequests">
<polygon fill="none" stroke="#000000" points="875,-720.5 875,-752.5 1050,-752.5 1050,-720.5 875,-720.5"/>
<text text-anchor="start" x="883" y="-739.5" font-family="FreeSans" font-size="10.00" fill="#000000">EicToyModel::ExecuteBoundary</text>
<text text-anchor="middle" x="962.5" y="-727.5" font-family="FreeSans" font-size="10.00" fill="#000000">ModificationRequests</text>
</a>
</g>
</g>
<!-- Node12&#45;&gt;Node14 -->
<g id="edge15" class="edge">
<title>Node12&#45;&gt;Node14</title>
<path fill="none" stroke="#191970" d="M601.6922,-652.9759C612.6911,-655.9546 623.6752,-660.2674 633,-666.5 656.0668,-681.9176 644.7911,-703.9462 669,-717.5 731.3755,-752.4222 813.3055,-754.8306 874.7475,-749.8429"/>
<polygon fill="#191970" stroke="#191970" points="602.1711,-649.4927 591.6342,-650.5985 600.5609,-656.305 602.1711,-649.4927"/>
</g>
<!-- Node13&#45;&gt;Node14 -->
<g id="edge13" class="edge">
<title>Node13&#45;&gt;Node14</title>
<path fill="none" stroke="#191970" d="M838.5188,-763.2585C854.9514,-759.7119 872.0628,-756.0188 888.1385,-752.5493"/>
<polygon fill="#191970" stroke="#191970" points="837.4268,-759.9136 828.3903,-765.4445 838.9036,-766.756 837.4268,-759.9136"/>
</g>
<!-- Node14&#45;&gt;Node5 -->
<g id="edge14" class="edge">
<title>Node14&#45;&gt;Node5</title>
<path fill="none" stroke="#191970" d="M957.1672,-710.6309C941.5007,-637.4275 893.2903,-431.6546 839,-393.5 693.3778,-291.1585 594.0279,-398.1261 456,-510.5 415.3466,-543.5975 378.3566,-594.8892 363.6822,-616.4318"/>
<polygon fill="#191970" stroke="#191970" points="953.7468,-711.3738 959.2393,-720.4337 960.5955,-709.926 953.7468,-711.3738"/>
</g>
<!-- Node16 -->
<g id="node16" class="node">
<title>Node16</title>
<g id="a_node16"><a xlink:href="../../d8/d51/classEicToyModel.html#a3f16ef8dcc03a33e1fec1fb00f8ae10c" target="_top" xlink:title="EicToyModel::SetCrossing\lAngle">
<polygon fill="none" stroke="#000000" points="681.5,-675.5 681.5,-707.5 826.5,-707.5 826.5,-675.5 681.5,-675.5"/>
<text text-anchor="start" x="689.5" y="-694.5" font-family="FreeSans" font-size="10.00" fill="#000000">EicToyModel::SetCrossing</text>
<text text-anchor="middle" x="754" y="-682.5" font-family="FreeSans" font-size="10.00" fill="#000000">Angle</text>
</a>
</g>
</g>
<!-- Node15&#45;&gt;Node16 -->
<g id="edge17" class="edge">
<title>Node15&#45;&gt;Node16</title>
<path fill="none" stroke="#191970" d="M619.6783,-621.0537C624.3059,-622.9306 628.7887,-625.0674 633,-627.5 653.4262,-639.299 648.9605,-654.0556 669,-666.5 674.4883,-669.9082 680.4636,-672.871 686.6185,-675.4428"/>
<polygon fill="#191970" stroke="#191970" points="620.6112,-617.6692 610.017,-617.5546 618.2275,-624.2508 620.6112,-617.6692"/>
</g>
<!-- Node17&#45;&gt;Node10 -->
<g id="edge19" class="edge">
<title>Node17&#45;&gt;Node10</title>
<path fill="none" stroke="#191970" d="M617.4396,-699.7485C623.0882,-702.6926 628.3804,-706.2362 633,-710.5 666.7912,-741.6885 634.358,-777.2593 669,-807.5 673.1009,-811.0799 677.7293,-814.0286 682.6558,-816.453"/>
<polygon fill="#191970" stroke="#191970" points="618.8671,-696.5528 608.3153,-695.5982 615.9688,-702.9246 618.8671,-696.5528"/>
</g>
<!-- Node18&#45;&gt;Node5 -->
<g id="edge28" class="edge">
<title>Node18&#45;&gt;Node5</title>
<path fill="none" stroke="#191970" d="M517.0232,-581.3611C499.4138,-586.2025 476.1621,-591.3872 456,-597.5 437.6771,-603.0552 417.9027,-610.3683 400.8801,-616.4908"/>
<polygon fill="#191970" stroke="#191970" points="518.0537,-584.7065 526.6733,-578.5459 516.0932,-577.9866 518.0537,-584.7065"/>
</g>
<!-- Node19 -->
<g id="node19" class="node">
<title>Node19</title>
<g id="a_node19"><a xlink:href="../../d8/d51/classEicToyModel.html#a5820b1b3e0812ce427cc6de75d3f3b3b" target="_top" xlink:title="EicToyModel::full">
<polygon fill="none" stroke="#000000" points="704,-636.5 704,-656.5 804,-656.5 804,-636.5 704,-636.5"/>
<text text-anchor="middle" x="754" y="-643.5" font-family="FreeSans" font-size="10.00" fill="#000000">EicToyModel::full</text>
</a>
</g>
</g>
<!-- Node18&#45;&gt;Node19 -->
<g id="edge21" class="edge">
<title>Node18&#45;&gt;Node19</title>
<path fill="none" stroke="#191970" d="M611.3035,-578.976C618.8833,-581.496 626.2866,-584.6221 633,-588.5 653.4262,-600.299 648.56,-615.7249 669,-627.5 679.482,-633.5385 691.7135,-637.6583 703.5775,-640.4691"/>
<polygon fill="#191970" stroke="#191970" points="612.23,-575.6001 601.6468,-576.0972 610.2301,-582.3083 612.23,-575.6001"/>
</g>
<!-- Node20 -->
<g id="node20" class="node">
<title>Node20</title>
<g id="a_node20"><a xlink:href="../../d8/d51/classEicToyModel.html#aab22f6a978191aff7139fcbc4eadd59c" target="_top" xlink:title="EicToyModel::left">
<polygon fill="none" stroke="#ff0000" points="703,-597.5 703,-617.5 805,-617.5 805,-597.5 703,-597.5"/>
<text text-anchor="middle" x="754" y="-604.5" font-family="FreeSans" font-size="10.00" fill="#000000">EicToyModel::left</text>
</a>
</g>
</g>
<!-- Node18&#45;&gt;Node20 -->
<g id="edge22" class="edge">
<title>Node18&#45;&gt;Node20</title>
<path fill="none" stroke="#191970" d="M608.4826,-580.4108C638.7221,-586.0402 674.3324,-592.6693 702.7568,-597.9607"/>
<polygon fill="#191970" stroke="#191970" points="608.9231,-576.9328 598.4515,-578.5435 607.642,-583.8146 608.9231,-576.9328"/>
</g>
<!-- Node21 -->
<g id="node21" class="node">
<title>Node21</title>
<g id="a_node21"><a xlink:href="../../d8/d51/classEicToyModel.html#a72d22a84de7b70c9deaaf5ffdb7bf7fc" target="_top" xlink:title="EicToyModel::right">
<polygon fill="none" stroke="#ff0000" points="699.5,-558.5 699.5,-578.5 808.5,-578.5 808.5,-558.5 699.5,-558.5"/>
<text text-anchor="middle" x="754" y="-565.5" font-family="FreeSans" font-size="10.00" fill="#000000">EicToyModel::right</text>
</a>
</g>
</g>
<!-- Node18&#45;&gt;Node21 -->
<g id="edge23" class="edge">
<title>Node18&#45;&gt;Node21</title>
<path fill="none" stroke="#191970" d="M611.9496,-568.5C640.2039,-568.5 672.6227,-568.5 699.3496,-568.5"/>
<polygon fill="#191970" stroke="#191970" points="611.7468,-565.0001 601.7468,-568.5 611.7468,-572.0001 611.7468,-565.0001"/>
</g>
<!-- Node22 -->
<g id="node22" class="node">
<title>Node22</title>
<g id="a_node22"><a xlink:href="../../d8/d51/classEicToyModel.html#ad9f3601f26b5016327022d637c27acd6" target="_top" xlink:title="EicToyModel::ir">
<polygon fill="none" stroke="#000000" points="708,-519.5 708,-539.5 800,-539.5 800,-519.5 708,-519.5"/>
<text text-anchor="middle" x="754" y="-526.5" font-family="FreeSans" font-size="10.00" fill="#000000">EicToyModel::ir</text>
</a>
</g>
</g>
<!-- Node18&#45;&gt;Node22 -->
<g id="edge24" class="edge">
<title>Node18&#45;&gt;Node22</title>
<path fill="none" stroke="#191970" d="M608.6091,-556.5656C640.6005,-550.6102 678.5773,-543.5405 707.694,-538.1202"/>
<polygon fill="#191970" stroke="#191970" points="607.642,-553.1854 598.4515,-558.4565 608.9231,-560.0672 607.642,-553.1854"/>
</g>
<!-- Node23 -->
<g id="node23" class="node">
<title>Node23</title>
<g id="a_node23"><a xlink:href="../../d8/d51/classEicToyModel.html#afeff0791454bae6a45c9cd9998e335a5" target="_top" xlink:title="EicToyModel::width">
<polygon fill="none" stroke="#000000" points="698,-480.5 698,-500.5 810,-500.5 810,-480.5 698,-480.5"/>
<text text-anchor="middle" x="754" y="-487.5" font-family="FreeSans" font-size="10.00" fill="#000000">EicToyModel::width</text>
</a>
</g>
</g>
<!-- Node18&#45;&gt;Node23 -->
<g id="edge25" class="edge">
<title>Node18&#45;&gt;Node23</title>
<path fill="none" stroke="#191970" d="M611.2941,-558.8386C618.8755,-556.3938 626.2818,-553.3326 633,-549.5 653.4895,-537.8113 648.6261,-522.3891 669,-510.5 677.7727,-505.3807 687.7757,-501.5711 697.7641,-498.7363"/>
<polygon fill="#191970" stroke="#191970" points="610.2784,-555.4887 601.6359,-561.6172 612.2139,-562.2158 610.2784,-555.4887"/>
</g>
<!-- Node24 -->
<g id="node24" class="node">
<title>Node24</title>
<g id="a_node24"><a xlink:href="../../d8/d51/classEicToyModel.html#a0b9412233cd14d3febc0413c00b19146" target="_top" xlink:title="EicToyModel::mirror">
<polygon fill="none" stroke="#000000" points="696,-441.5 696,-461.5 812,-461.5 812,-441.5 696,-441.5"/>
<text text-anchor="middle" x="754" y="-448.5" font-family="FreeSans" font-size="10.00" fill="#000000">EicToyModel::mirror</text>
</a>
</g>
</g>
<!-- Node18&#45;&gt;Node24 -->
<g id="edge26" class="edge">
<title>Node18&#45;&gt;Node24</title>
<path fill="none" stroke="#191970" d="M611.4206,-561.2438C619.2095,-558.4067 626.6325,-554.596 633,-549.5 662.8096,-525.6429 639.4257,-495.6483 669,-471.5 676.7501,-465.1718 686.1538,-460.7772 695.8433,-457.7398"/>
<polygon fill="#191970" stroke="#191970" points="610.2931,-557.929 601.7849,-564.2424 612.3732,-564.6128 610.2931,-557.929"/>
</g>
<!-- Node25 -->
<g id="node25" class="node">
<title>Node25</title>
<g id="a_node25"><a xlink:href="../../d8/d51/classEicToyModel.html#ab137159398e85be0fd6bd685ca0c1093" target="_top" xlink:title="EicToyModel::legend">
<polygon fill="none" stroke="#ff0000" points="694.5,-402.5 694.5,-422.5 813.5,-422.5 813.5,-402.5 694.5,-402.5"/>
<text text-anchor="middle" x="754" y="-409.5" font-family="FreeSans" font-size="10.00" fill="#000000">EicToyModel::legend</text>
</a>
</g>
</g>
<!-- Node18&#45;&gt;Node25 -->
<g id="edge27" class="edge">
<title>Node18&#45;&gt;Node25</title>
<path fill="none" stroke="#191970" d="M611.2048,-562.3738C619.2161,-559.3796 626.7551,-555.2238 633,-549.5 673.1077,-512.739 629.2547,-469.6525 669,-432.5 676.0879,-425.8745 684.9443,-421.3117 694.2421,-418.1944"/>
<polygon fill="#191970" stroke="#191970" points="610.1247,-559.0444 601.6327,-565.3796 612.2219,-565.7229 610.1247,-559.0444"/>
</g>
<!-- Node27&#45;&gt;Node5 -->
<g id="edge31" class="edge">
<title>Node27&#45;&gt;Node5</title>
<path fill="none" stroke="#191970" d="M239.5312,-549.5078C245.8845,-551.5358 252.1386,-553.8548 258,-556.5 292.9196,-572.2591 328.2256,-600.991 345.7192,-616.2848"/>
<polygon fill="#191970" stroke="#191970" points="240.0896,-546.0236 229.5081,-546.5553 238.1116,-552.7384 240.0896,-546.0236"/>
</g>
<!-- Node31 -->
<g id="node31" class="node">
<title>Node31</title>
<g id="a_node31"><a xlink:href="../../de/db3/tetgen_8h.html#ad3637eb4ffe7fda90667e67b7771d964" target="_top" xlink:title="tetrahedralize">
<polygon fill="none" stroke="#000000" points="313.5,-273.5 313.5,-293.5 400.5,-293.5 400.5,-273.5 313.5,-273.5"/>
<text text-anchor="middle" x="357" y="-280.5" font-family="FreeSans" font-size="10.00" fill="#000000">tetrahedralize</text>
</a>
</g>
</g>
<!-- Node30&#45;&gt;Node31 -->
<g id="edge35" class="edge">
<title>Node30&#45;&gt;Node31</title>
<path fill="none" stroke="#191970" d="M248.4252,-405.5245C251.7397,-404.0175 254.95,-402.3485 258,-400.5 303.7387,-372.7801 338.6839,-316.4621 351.5882,-293.5424"/>
<polygon fill="#191970" stroke="#191970" points="246.8366,-402.3904 238.8543,-409.3569 249.4388,-408.8888 246.8366,-402.3904"/>
</g>
<!-- Node32 -->
<g id="node32" class="node">
<title>Node32</title>
<g id="a_node32"><a xlink:href="../../d7/db1/classEicStlFactory.html#ac12dcc068bd2f6a941a3c003784c75fa" target="_top" xlink:title="EicStlFactory::_Construct\lGeometry">
<polygon fill="none" stroke="#ff0000" points="474,-312.5 474,-344.5 615,-344.5 615,-312.5 474,-312.5"/>
<text text-anchor="start" x="482" y="-331.5" font-family="FreeSans" font-size="10.00" fill="#000000">EicStlFactory::_Construct</text>
<text text-anchor="middle" x="544.5" y="-319.5" font-family="FreeSans" font-size="10.00" fill="#000000">Geometry</text>
</a>
</g>
</g>
<!-- Node31&#45;&gt;Node32 -->
<g id="edge36" class="edge">
<title>Node31&#45;&gt;Node32</title>
<path fill="none" stroke="#191970" d="M408.8738,-295.9497C430.1109,-301.0466 454.9564,-307.0095 477.5383,-312.4292"/>
<polygon fill="#191970" stroke="#191970" points="409.6194,-292.5293 399.0787,-293.5989 407.9857,-299.336 409.6194,-292.5293"/>
</g>
<!-- Node33 -->
<g id="node33" class="node">
<title>Node33</title>
<g id="a_node33"><a xlink:href="../../d7/db1/classEicStlFactory.html#a0cc0f04c573c3313258e5e73443c4cfd" target="_top" xlink:title="EicStlFactory::CreateRootFile">
<polygon fill="none" stroke="#ff0000" points="464.5,-273.5 464.5,-293.5 624.5,-293.5 624.5,-273.5 464.5,-273.5"/>
<text text-anchor="middle" x="544.5" y="-280.5" font-family="FreeSans" font-size="10.00" fill="#000000">EicStlFactory::CreateRootFile</text>
</a>
</g>
</g>
<!-- Node31&#45;&gt;Node33 -->
<g id="edge37" class="edge">
<title>Node31&#45;&gt;Node33</title>
<path fill="none" stroke="#191970" d="M411.0415,-283.5C427.6975,-283.5 446.4047,-283.5 464.4233,-283.5"/>
<polygon fill="#191970" stroke="#191970" points="410.9605,-280.0001 400.9604,-283.5 410.9604,-287.0001 410.9605,-280.0001"/>
</g>
<!-- Node34 -->
<g id="node34" class="node">
<title>Node34</title>
<g id="a_node34"><a xlink:href="../../d7/d8f/tetgen_8cxx.html#a0ddf1224851353fc92bfbff6f499fa97" target="_top" xlink:title="main">
<polygon fill="none" stroke="#000000" points="524,-234.5 524,-254.5 565,-254.5 565,-234.5 524,-234.5"/>
<text text-anchor="middle" x="544.5" y="-241.5" font-family="FreeSans" font-size="10.00" fill="#000000">main</text>
</a>
</g>
</g>
<!-- Node31&#45;&gt;Node34 -->
<g id="edge38" class="edge">
<title>Node31&#45;&gt;Node34</title>
<path fill="none" stroke="#191970" d="M410.7966,-272.3103C448.5208,-264.4637 496.8622,-254.4087 523.8712,-248.7908"/>
<polygon fill="#191970" stroke="#191970" points="410.0381,-268.8931 400.9604,-274.3562 411.4636,-275.7464 410.0381,-268.8931"/>
</g>
<!-- Node35&#45;&gt;Node31 -->
<g id="edge49" class="edge">
<title>Node35&#45;&gt;Node31</title>
<path fill="none" stroke="#191970" d="M245.7519,-160.1976C250.0168,-162.0396 254.1374,-164.1293 258,-166.5 303.5822,-194.4765 338.6167,-250.6482 351.5666,-273.4931"/>
<polygon fill="#191970" stroke="#191970" points="246.8194,-156.8585 236.2291,-156.5478 244.3142,-163.3949 246.8194,-156.8585"/>
</g>
<!-- Node36 -->
<g id="node36" class="node">
<title>Node36</title>
<g id="a_node36"><a xlink:href="../../dc/db3/classtetgenmesh.html#ac34f0cd148accd132b491f9c6145c6f6" target="_top" xlink:title="tetgenmesh::flip22">
<polygon fill="none" stroke="#000000" points="301,-136.5 301,-156.5 413,-156.5 413,-136.5 301,-136.5"/>
<text text-anchor="middle" x="357" y="-143.5" font-family="FreeSans" font-size="10.00" fill="#000000">tetgenmesh::flip22</text>
</a>
</g>
</g>
<!-- Node35&#45;&gt;Node36 -->
<g id="edge40" class="edge">
<title>Node35&#45;&gt;Node36</title>
<path fill="none" stroke="#191970" d="M247.5033,-146.5C265.2805,-146.5 283.9819,-146.5 300.7985,-146.5"/>
<polygon fill="#191970" stroke="#191970" points="247.1644,-143.0001 237.1644,-146.5 247.1644,-150.0001 247.1644,-143.0001"/>
</g>
<!-- Node41 -->
<g id="node41" class="node">
<title>Node41</title>
<g id="a_node41"><a xlink:href="../../dc/db3/classtetgenmesh.html#a3db30cb237ac5cbcda3ac70a1ea31666" target="_top" xlink:title="tetgenmesh::flip31">
<polygon fill="none" stroke="#000000" points="301,-58.5 301,-78.5 413,-78.5 413,-58.5 301,-58.5"/>
<text text-anchor="middle" x="357" y="-65.5" font-family="FreeSans" font-size="10.00" fill="#000000">tetgenmesh::flip31</text>
</a>
</g>
</g>
<!-- Node35&#45;&gt;Node41 -->
<g id="edge46" class="edge">
<title>Node35&#45;&gt;Node41</title>
<path fill="none" stroke="#191970" d="M206.3438,-132.5391C242.8225,-117.0332 300.825,-92.3782 333.1862,-78.6225"/>
<polygon fill="#191970" stroke="#191970" points="204.9476,-129.3295 197.1138,-136.4625 207.686,-135.7716 204.9476,-129.3295"/>
</g>
<!-- Node37 -->
<g id="node37" class="node">
<title>Node37</title>
<g id="a_node37"><a xlink:href="../../dc/db3/classtetgenmesh.html#a42d0630c17e609dc3224975693a992c4" target="_top" xlink:title="tetgenmesh::flip32">
<polygon fill="none" stroke="#ff0000" points="488.5,-195.5 488.5,-215.5 600.5,-215.5 600.5,-195.5 488.5,-195.5"/>
<text text-anchor="middle" x="544.5" y="-202.5" font-family="FreeSans" font-size="10.00" fill="#000000">tetgenmesh::flip32</text>
</a>
</g>
</g>
<!-- Node36&#45;&gt;Node37 -->
<g id="edge41" class="edge">
<title>Node36&#45;&gt;Node37</title>
<path fill="none" stroke="#191970" d="M387.8284,-160.5597C407.1171,-168.952 432.6529,-179.3359 456,-186.5 466.967,-189.8653 478.8757,-192.8562 490.2972,-195.4127"/>
<polygon fill="#191970" stroke="#191970" points="389.1896,-157.3348 378.6276,-156.5016 386.3648,-163.7395 389.1896,-157.3348"/>
</g>
<!-- Node38 -->
<g id="node38" class="node">
<title>Node38</title>
<g id="a_node38"><a xlink:href="../../dc/db3/classtetgenmesh.html#acf60f3a43f8b907d95623b42a88ae968" target="_top" xlink:title="tetgenmesh::lawsonflip">
<polygon fill="none" stroke="#ff0000" points="477,-156.5 477,-176.5 612,-176.5 612,-156.5 477,-156.5"/>
<text text-anchor="middle" x="544.5" y="-163.5" font-family="FreeSans" font-size="10.00" fill="#000000">tetgenmesh::lawsonflip</text>
</a>
</g>
</g>
<!-- Node36&#45;&gt;Node38 -->
<g id="edge42" class="edge">
<title>Node36&#45;&gt;Node38</title>
<path fill="none" stroke="#191970" d="M423.0842,-153.549C440.5177,-155.4086 459.3532,-157.4177 476.8672,-159.2858"/>
<polygon fill="#191970" stroke="#191970" points="423.3171,-150.054 413.0022,-152.4736 422.5745,-157.0146 423.3171,-150.054"/>
</g>
<!-- Node39 -->
<g id="node39" class="node">
<title>Node39</title>
<g id="a_node39"><a xlink:href="../../dc/db3/classtetgenmesh.html#a7fc2b1bb2e54a5e013edc3e23bd0523b" target="_top" xlink:title="tetgenmesh::sremovevertex">
<polygon fill="none" stroke="#ff0000" points="674,-117.5 674,-137.5 834,-137.5 834,-117.5 674,-117.5"/>
<text text-anchor="middle" x="754" y="-124.5" font-family="FreeSans" font-size="10.00" fill="#000000">tetgenmesh::sremovevertex</text>
</a>
</g>
</g>
<!-- Node36&#45;&gt;Node39 -->
<g id="edge44" class="edge">
<title>Node36&#45;&gt;Node39</title>
<path fill="none" stroke="#191970" d="M423.3384,-143.3251C492.2853,-140.0254 600.2176,-134.8599 673.8804,-131.3344"/>
<polygon fill="#191970" stroke="#191970" points="422.8596,-139.8439 413.0384,-143.8181 423.1943,-146.8359 422.8596,-139.8439"/>
</g>
<!-- Node40 -->
<g id="node40" class="node">
<title>Node40</title>
<g id="a_node40"><a xlink:href="../../dc/db3/classtetgenmesh.html#a6317b6e8e758e18656ed7080a96fb9b6" target="_top" xlink:title="tetgenmesh::sscoutsegment">
<polygon fill="none" stroke="#ff0000" points="464,-78.5 464,-98.5 625,-98.5 625,-78.5 464,-78.5"/>
<text text-anchor="middle" x="544.5" y="-85.5" font-family="FreeSans" font-size="10.00" fill="#000000">tetgenmesh::sscoutsegment</text>
</a>
</g>
</g>
<!-- Node36&#45;&gt;Node40 -->
<g id="edge45" class="edge">
<title>Node36&#45;&gt;Node40</title>
<path fill="none" stroke="#191970" d="M395.6109,-133.1672C413.8591,-126.9848 435.9839,-119.6595 456,-113.5 472.7856,-108.3346 491.486,-102.9924 507.3565,-98.5791"/>
<polygon fill="#191970" stroke="#191970" points="394.2485,-129.9337 385.9099,-136.4696 396.5043,-136.5602 394.2485,-129.9337"/>
</g>
<!-- Node38&#45;&gt;Node39 -->
<g id="edge43" class="edge">
<title>Node38&#45;&gt;Node39</title>
<path fill="none" stroke="#191970" d="M608.5957,-154.5681C637.9214,-149.1089 672.2791,-142.713 700.2314,-137.5094"/>
<polygon fill="#191970" stroke="#191970" points="607.642,-151.1854 598.4515,-156.4565 608.9231,-158.0672 607.642,-151.1854"/>
</g>
<!-- Node41&#45;&gt;Node39 -->
<g id="edge48" class="edge">
<title>Node41&#45;&gt;Node39</title>
<path fill="none" stroke="#191970" d="M423.3111,-60.2254C479.8164,-55.1282 562.7844,-52.2933 633,-68.5 673.9904,-77.9611 717.1586,-103.2862 739.1771,-117.4892"/>
<polygon fill="#191970" stroke="#191970" points="422.7007,-56.7676 413.0773,-61.1994 423.364,-63.7361 422.7007,-56.7676"/>
</g>
<!-- Node42 -->
<g id="node42" class="node">
<title>Node42</title>
<g id="a_node42"><a xlink:href="../../dc/db3/classtetgenmesh.html#a061a1d2f047d12726215eac51c7bb5a1" target="_top" xlink:title="tetgenmesh::flip41">
<polygon fill="none" stroke="#ff0000" points="488.5,-.5 488.5,-20.5 600.5,-20.5 600.5,-.5 488.5,-.5"/>
<text text-anchor="middle" x="544.5" y="-7.5" font-family="FreeSans" font-size="10.00" fill="#000000">tetgenmesh::flip41</text>
</a>
</g>
</g>
<!-- Node41&#45;&gt;Node42 -->
<g id="edge47" class="edge">
<title>Node41&#45;&gt;Node42</title>
<path fill="none" stroke="#191970" d="M399.387,-55.2942C406.2914,-53.0712 413.3556,-50.7534 420,-48.5 436.11,-43.0364 439.8044,-40.7044 456,-35.5 472.4163,-30.2246 490.7325,-24.9509 506.4237,-20.6163"/>
<polygon fill="#191970" stroke="#191970" points="397.9154,-52.0898 389.453,-58.4647 400.0438,-58.7585 397.9154,-52.0898"/>
</g>
<!-- Node43&#45;&gt;Node31 -->
<g id="edge51" class="edge">
<title>Node43&#45;&gt;Node31</title>
<path fill="none" stroke="#191970" d="M243.4551,-367.3923C248.4674,-365.6602 253.3669,-363.7052 258,-361.5 294.9463,-343.9147 330.7412,-310.4008 347.3529,-293.6123"/>
<polygon fill="#191970" stroke="#191970" points="242.2056,-364.1162 233.717,-370.4561 244.3064,-370.7936 242.2056,-364.1162"/>
</g>
<!-- Node44&#45;&gt;Node31 -->
<g id="edge53" class="edge">
<title>Node44&#45;&gt;Node31</title>
<path fill="none" stroke="#191970" d="M234.1188,-329.0592C242.1995,-327.0544 250.3364,-324.8557 258,-322.5 284.6631,-314.304 314.3157,-302.208 334.1547,-293.6643"/>
<polygon fill="#191970" stroke="#191970" points="233.2347,-325.6719 224.3257,-331.406 234.866,-332.4791 233.2347,-325.6719"/>
</g>
<!-- Node45&#45;&gt;Node31 -->
<g id="edge55" class="edge">
<title>Node45&#45;&gt;Node31</title>
<path fill="none" stroke="#191970" d="M250.1448,-294.564C271.7048,-292.3317 294.409,-289.9808 313.3176,-288.023"/>
<polygon fill="#191970" stroke="#191970" points="249.5935,-291.1023 240.0072,-295.6137 250.3145,-298.0651 249.5935,-291.1023"/>
</g>
<!-- Node46&#45;&gt;Node31 -->
<g id="edge57" class="edge">
<title>Node46&#45;&gt;Node31</title>
<path fill="none" stroke="#191970" d="M256.6953,-272.5676C276.2207,-274.6957 296.2673,-276.8806 313.2567,-278.7323"/>
<polygon fill="#191970" stroke="#191970" points="256.8717,-269.0662 246.5513,-271.462 256.1132,-276.025 256.8717,-269.0662"/>
</g>
<!-- Node47&#45;&gt;Node31 -->
<g id="edge59" class="edge">
<title>Node47&#45;&gt;Node31</title>
<path fill="none" stroke="#191970" d="M230.9735,-236.9349C240.0748,-239.239 249.3376,-241.7839 258,-244.5 284.6166,-252.8456 314.2776,-264.9147 334.1312,-273.4112"/>
<polygon fill="#191970" stroke="#191970" points="231.7434,-233.5201 221.197,-234.5327 230.073,-240.3179 231.7434,-233.5201"/>
</g>
<!-- Node49 -->
<g id="node49" class="node">
<title>Node49</title>
<g id="a_node49"><a xlink:href="../../d8/dc3/classfileEventiterator.html#acf32e5a708dafc84a9def17b6e4d9736" target="_top" xlink:title="fileEventiterator::\lgetNextEvent">
<polygon fill="none" stroke="#000000" points="305,-7.5 305,-39.5 409,-39.5 409,-7.5 305,-7.5"/>
<text text-anchor="start" x="313" y="-26.5" font-family="FreeSans" font-size="10.00" fill="#000000">fileEventiterator::</text>
<text text-anchor="middle" x="357" y="-14.5" font-family="FreeSans" font-size="10.00" fill="#000000">getNextEvent</text>
</a>
</g>
</g>
<!-- Node48&#45;&gt;Node49 -->
<g id="edge61" class="edge">
<title>Node48&#45;&gt;Node49</title>
<path fill="none" stroke="#191970" d="M235.3993,-49.3443C257.9337,-44.555 283.1642,-39.1926 304.7768,-34.5992"/>
<polygon fill="#191970" stroke="#191970" points="234.6468,-45.926 225.5929,-51.4285 236.1021,-52.773 234.6468,-45.926"/>
</g>
<!-- Node50&#45;&gt;Node31 -->
<g id="edge63" class="edge">
<title>Node50&#45;&gt;Node31</title>
<path fill="none" stroke="#191970" d="M240.9829,-198.6297C246.855,-200.6191 252.6079,-202.8963 258,-205.5 294.8469,-223.2926 330.6876,-256.7109 347.3312,-273.4329"/>
<polygon fill="#191970" stroke="#191970" points="241.6187,-195.1627 231.0308,-195.5467 239.5473,-201.8492 241.6187,-195.1627"/>
</g>
</g>
</svg>
