<?xml version="1.0" encoding="UTF-8" standalone="no"?>
<!DOCTYPE svg PUBLIC "-//W3C//DTD SVG 1.1//EN"
 "http://www.w3.org/Graphics/SVG/1.1/DTD/svg11.dtd">
<!-- Generated by graphviz version 2.40.1 (20161225.0304)
 -->
<!-- Title: fun4all_coresoftware/blob/master/offline/packages/CaloReco/BEmcCluster.h Pages: 1 -->
<svg width="1472pt" height="308pt"
 viewBox="0.00 0.00 1471.65 308.00" xmlns="http://www.w3.org/2000/svg" xmlns:xlink="http://www.w3.org/1999/xlink">
<g id="graph0" class="graph" transform="scale(1 1) rotate(0) translate(4 304)">
<title>fun4all_coresoftware/blob/master/offline/packages/CaloReco/BEmcCluster.h</title>
<!-- Node1 -->
<g id="node1" class="node">
<title>Node1</title>
<polygon fill="#bfbfbf" stroke="#000000" points="822.1521,-255.5 822.1521,-299.5 1017.1521,-299.5 1017.1521,-255.5 822.1521,-255.5"/>
<text text-anchor="start" x="830.1521" y="-286.5" font-family="FreeSans" font-size="10.00" fill="#000000">fun4all_coresoftware</text>
<text text-anchor="start" x="830.1521" y="-274.5" font-family="FreeSans" font-size="10.00" fill="#000000">/blob/master/offline</text>
<text text-anchor="middle" x="919.6521" y="-262.5" font-family="FreeSans" font-size="10.00" fill="#000000">/packages/CaloReco/BEmcCluster.h</text>
</g>
<!-- Node2 -->
<g id="node2" class="node">
<title>Node2</title>
<g id="a_node2"><a xlink:href="../../dc/d20/BEmcCluster_8cc.html" target="_top" xlink:title="fun4all_coresoftware\l/blob/master/offline\l/packages/CaloReco/BEmcCluster.cc">
<polygon fill="none" stroke="#000000" points="20.6521,-93.5 20.6521,-137.5 220.6521,-137.5 220.6521,-93.5 20.6521,-93.5"/>
<text text-anchor="start" x="28.6521" y="-124.5" font-family="FreeSans" font-size="10.00" fill="#000000">fun4all_coresoftware</text>
<text text-anchor="start" x="28.6521" y="-112.5" font-family="FreeSans" font-size="10.00" fill="#000000">/blob/master/offline</text>
<text text-anchor="middle" x="120.6521" y="-100.5" font-family="FreeSans" font-size="10.00" fill="#000000">/packages/CaloReco/BEmcCluster.cc</text>
</a>
</g>
</g>
<!-- Node1&#45;&gt;Node2 -->
<g id="edge1" class="edge">
<title>Node1&#45;&gt;Node2</title>
<path fill="none" stroke="#191970" d="M811.5858,-269.1781C717.1783,-260.6445 576.8201,-244.8955 456.6521,-219 358.3484,-197.8161 247.4137,-161.0324 180.8192,-137.5011"/>
<polygon fill="#191970" stroke="#191970" points="811.4479,-272.6796 821.7194,-270.0823 812.0701,-265.7073 811.4479,-272.6796"/>
</g>
<!-- Node3 -->
<g id="node3" class="node">
<title>Node3</title>
<g id="a_node3"><a xlink:href="../../d6/d08/BEmcRec_8h.html" target="_top" xlink:title="fun4all_coresoftware\l/blob/master/offline\l/packages/CaloReco/BEmcRec.h">
<polygon fill="none" stroke="#000000" points="586.6521,-174.5 586.6521,-218.5 764.6521,-218.5 764.6521,-174.5 586.6521,-174.5"/>
<text text-anchor="start" x="594.6521" y="-205.5" font-family="FreeSans" font-size="10.00" fill="#000000">fun4all_coresoftware</text>
<text text-anchor="start" x="594.6521" y="-193.5" font-family="FreeSans" font-size="10.00" fill="#000000">/blob/master/offline</text>
<text text-anchor="middle" x="675.6521" y="-181.5" font-family="FreeSans" font-size="10.00" fill="#000000">/packages/CaloReco/BEmcRec.h</text>
</a>
</g>
</g>
<!-- Node1&#45;&gt;Node3 -->
<g id="edge2" class="edge">
<title>Node1&#45;&gt;Node3</title>
<path fill="none" stroke="#191970" d="M843.8087,-252.3225C811.2112,-241.5012 773.4569,-228.968 741.9907,-218.5222"/>
<polygon fill="#191970" stroke="#191970" points="842.7069,-255.6445 853.3003,-255.4734 844.9124,-249.001 842.7069,-255.6445"/>
</g>
<!-- Node4 -->
<g id="node4" class="node">
<title>Node4</title>
<g id="a_node4"><a xlink:href="../../d1/d9d/BEmcRec_8cc.html" target="_top" xlink:title="fun4all_coresoftware\l/blob/master/offline\l/packages/CaloReco/BEmcRec.cc">
<polygon fill="none" stroke="#000000" points="239.1521,-93.5 239.1521,-137.5 422.1521,-137.5 422.1521,-93.5 239.1521,-93.5"/>
<text text-anchor="start" x="247.1521" y="-124.5" font-family="FreeSans" font-size="10.00" fill="#000000">fun4all_coresoftware</text>
<text text-anchor="start" x="247.1521" y="-112.5" font-family="FreeSans" font-size="10.00" fill="#000000">/blob/master/offline</text>
<text text-anchor="middle" x="330.6521" y="-100.5" font-family="FreeSans" font-size="10.00" fill="#000000">/packages/CaloReco/BEmcRec.cc</text>
</a>
</g>
</g>
<!-- Node1&#45;&gt;Node4 -->
<g id="edge16" class="edge">
<title>Node1&#45;&gt;Node4</title>
<path fill="none" stroke="#191970" d="M811.8288,-265.4467C743.7848,-256.2787 654.5359,-241.3672 577.6521,-219 504.2133,-197.6351 423.1669,-160.9916 374.6132,-137.5266"/>
<polygon fill="#191970" stroke="#191970" points="811.7624,-268.9685 822.1357,-266.8135 812.6826,-262.0292 811.7624,-268.9685"/>
</g>
<!-- Node6 -->
<g id="node6" class="node">
<title>Node6</title>
<g id="a_node6"><a xlink:href="../../d3/d30/BEmcRecCEMC_8cc.html" target="_top" xlink:title="fun4all_coresoftware\l/blob/master/offline\l/packages/CaloReco/BEmcRecCEMC.cc">
<polygon fill="none" stroke="#000000" points="162.6521,-6.5 162.6521,-50.5 374.6521,-50.5 374.6521,-6.5 162.6521,-6.5"/>
<text text-anchor="start" x="170.6521" y="-37.5" font-family="FreeSans" font-size="10.00" fill="#000000">fun4all_coresoftware</text>
<text text-anchor="start" x="170.6521" y="-25.5" font-family="FreeSans" font-size="10.00" fill="#000000">/blob/master/offline</text>
<text text-anchor="middle" x="268.6521" y="-13.5" font-family="FreeSans" font-size="10.00" fill="#000000">/packages/CaloReco/BEmcRecCEMC.cc</text>
</a>
</g>
</g>
<!-- Node1&#45;&gt;Node6 -->
<g id="edge17" class="edge">
<title>Node1&#45;&gt;Node6</title>
<path fill="none" stroke="#191970" d="M811.8002,-273.426C686.7367,-267.3117 474.817,-252.6505 295.6521,-219 166.652,-194.7714 90.7181,-242.7694 11.6521,-138 -34.2154,-77.2215 72.8377,-49.8071 162.4962,-37.6934"/>
<polygon fill="#191970" stroke="#191970" points="811.983,-276.9387 822.1392,-273.9217 812.3183,-269.9468 811.983,-276.9387"/>
</g>
<!-- Node7 -->
<g id="node7" class="node">
<title>Node7</title>
<g id="a_node7"><a xlink:href="../../d8/dc8/RawClusterBuilderTemplate_8cc.html" target="_top" xlink:title="fun4all_coresoftware\l/blob/master/offline\l/packages/CaloReco/RawCluster\lBuilderTemplate.cc">
<polygon fill="none" stroke="#000000" points="706.1521,-.5 706.1521,-56.5 885.1521,-56.5 885.1521,-.5 706.1521,-.5"/>
<text text-anchor="start" x="714.1521" y="-43.5" font-family="FreeSans" font-size="10.00" fill="#000000">fun4all_coresoftware</text>
<text text-anchor="start" x="714.1521" y="-31.5" font-family="FreeSans" font-size="10.00" fill="#000000">/blob/master/offline</text>
<text text-anchor="start" x="714.1521" y="-19.5" font-family="FreeSans" font-size="10.00" fill="#000000">/packages/CaloReco/RawCluster</text>
<text text-anchor="middle" x="795.6521" y="-7.5" font-family="FreeSans" font-size="10.00" fill="#000000">BuilderTemplate.cc</text>
</a>
</g>
</g>
<!-- Node1&#45;&gt;Node7 -->
<g id="edge20" class="edge">
<title>Node1&#45;&gt;Node7</title>
<path fill="none" stroke="#191970" d="M995.4504,-251.9074C1081.0259,-219.0785 1201.4016,-158.5068 1144.6521,-93 1107.9003,-50.5768 949.5281,-68.7916 894.6521,-57 891.592,-56.3425 888.4876,-55.6416 885.3594,-54.9065"/>
<polygon fill="#191970" stroke="#191970" points="994.1035,-248.6747 985.9843,-255.4812 996.576,-255.2235 994.1035,-248.6747"/>
</g>
<!-- Node9 -->
<g id="node9" class="node">
<title>Node9</title>
<g id="a_node9"><a xlink:href="../../d3/dcd/BEmcRecEEMC_8cc.html" target="_top" xlink:title="fun4all_coresoftware\l/blob/master/offline\l/packages/CaloReco/BEmcRecEEMC.cc">
<polygon fill="none" stroke="#000000" points="903.6521,-6.5 903.6521,-50.5 1115.6521,-50.5 1115.6521,-6.5 903.6521,-6.5"/>
<text text-anchor="start" x="911.6521" y="-37.5" font-family="FreeSans" font-size="10.00" fill="#000000">fun4all_coresoftware</text>
<text text-anchor="start" x="911.6521" y="-25.5" font-family="FreeSans" font-size="10.00" fill="#000000">/blob/master/offline</text>
<text text-anchor="middle" x="1009.6521" y="-13.5" font-family="FreeSans" font-size="10.00" fill="#000000">/packages/CaloReco/BEmcRecEEMC.cc</text>
</a>
</g>
</g>
<!-- Node1&#45;&gt;Node9 -->
<g id="edge18" class="edge">
<title>Node1&#45;&gt;Node9</title>
<path fill="none" stroke="#191970" d="M1027.4408,-266.5558C1089.3594,-257.7964 1158.5452,-242.9244 1177.6521,-219 1212.5987,-175.2423 1209.3696,-139.152 1177.6521,-93 1166.9908,-77.4867 1129.1438,-62.287 1092.066,-50.5429"/>
<polygon fill="#191970" stroke="#191970" points="1026.6093,-263.1369 1017.1772,-267.9624 1027.5598,-270.0721 1026.6093,-263.1369"/>
</g>
<!-- Node11 -->
<g id="node11" class="node">
<title>Node11</title>
<g id="a_node11"><a xlink:href="../../dd/d41/BEmcRecFEMC_8cc.html" target="_top" xlink:title="fun4all_coresoftware\l/blob/master/offline\l/packages/CaloReco/BEmcRecFEMC.cc">
<polygon fill="none" stroke="#000000" points="1134.1521,-6.5 1134.1521,-50.5 1345.1521,-50.5 1345.1521,-6.5 1134.1521,-6.5"/>
<text text-anchor="start" x="1142.1521" y="-37.5" font-family="FreeSans" font-size="10.00" fill="#000000">fun4all_coresoftware</text>
<text text-anchor="start" x="1142.1521" y="-25.5" font-family="FreeSans" font-size="10.00" fill="#000000">/blob/master/offline</text>
<text text-anchor="middle" x="1239.6521" y="-13.5" font-family="FreeSans" font-size="10.00" fill="#000000">/packages/CaloReco/BEmcRecFEMC.cc</text>
</a>
</g>
</g>
<!-- Node1&#45;&gt;Node11 -->
<g id="edge19" class="edge">
<title>Node1&#45;&gt;Node11</title>
<path fill="none" stroke="#191970" d="M1027.4261,-267.7132C1097.0334,-259.13 1179.0464,-244.0119 1203.6521,-219 1248.6185,-173.2914 1246.5971,-90.1216 1242.619,-50.5543"/>
<polygon fill="#191970" stroke="#191970" points="1026.7668,-264.267 1017.2545,-268.9325 1027.6,-271.2173 1026.7668,-264.267"/>
</g>
<!-- Node12 -->
<g id="node12" class="node">
<title>Node12</title>
<g id="a_node12"><a xlink:href="../../d1/d1d/BEmcProfile_8cc.html" target="_top" xlink:title="fun4all_coresoftware\l/blob/master/offline\l/packages/CaloReco/BEmcProfile.cc">
<polygon fill="none" stroke="#000000" points="1267.6521,-174.5 1267.6521,-218.5 1463.6521,-218.5 1463.6521,-174.5 1267.6521,-174.5"/>
<text text-anchor="start" x="1275.6521" y="-205.5" font-family="FreeSans" font-size="10.00" fill="#000000">fun4all_coresoftware</text>
<text text-anchor="start" x="1275.6521" y="-193.5" font-family="FreeSans" font-size="10.00" fill="#000000">/blob/master/offline</text>
<text text-anchor="middle" x="1365.6521" y="-181.5" font-family="FreeSans" font-size="10.00" fill="#000000">/packages/CaloReco/BEmcProfile.cc</text>
</a>
</g>
</g>
<!-- Node1&#45;&gt;Node12 -->
<g id="edge15" class="edge">
<title>Node1&#45;&gt;Node12</title>
<path fill="none" stroke="#191970" d="M1027.2518,-259.3527C1092.7687,-248.1293 1178.1229,-233.1988 1253.6521,-219 1258.2326,-218.1389 1262.916,-217.2463 1267.6447,-216.3352"/>
<polygon fill="#191970" stroke="#191970" points="1026.5894,-255.9151 1017.3227,-261.0513 1027.7698,-262.8149 1026.5894,-255.9151"/>
</g>
<!-- Node3&#45;&gt;Node2 -->
<g id="edge3" class="edge">
<title>Node3&#45;&gt;Node2</title>
<path fill="none" stroke="#191970" d="M576.5288,-185.6045C485.9422,-175.148 348.412,-158.0184 229.6521,-138 226.6988,-137.5022 223.7035,-136.9822 220.6822,-136.4445"/>
<polygon fill="#191970" stroke="#191970" points="576.1807,-189.0874 586.515,-186.7521 576.98,-182.1332 576.1807,-189.0874"/>
</g>
<!-- Node3&#45;&gt;Node4 -->
<g id="edge4" class="edge">
<title>Node3&#45;&gt;Node4</title>
<path fill="none" stroke="#191970" d="M576.4609,-173.2116C527.8898,-161.808 469.7921,-148.1676 422.2764,-137.0118"/>
<polygon fill="#191970" stroke="#191970" points="575.8221,-176.6567 586.3574,-175.5351 577.4221,-169.842 575.8221,-176.6567"/>
</g>
<!-- Node5 -->
<g id="node5" class="node">
<title>Node5</title>
<g id="a_node5"><a xlink:href="../../da/dcf/BEmcRecCEMC_8h.html" target="_top" xlink:title="fun4all_coresoftware\l/blob/master/offline\l/packages/CaloReco/BEmcRecCEMC.h">
<polygon fill="none" stroke="#000000" points="440.1521,-93.5 440.1521,-137.5 647.1521,-137.5 647.1521,-93.5 440.1521,-93.5"/>
<text text-anchor="start" x="448.1521" y="-124.5" font-family="FreeSans" font-size="10.00" fill="#000000">fun4all_coresoftware</text>
<text text-anchor="start" x="448.1521" y="-112.5" font-family="FreeSans" font-size="10.00" fill="#000000">/blob/master/offline</text>
<text text-anchor="middle" x="543.6521" y="-100.5" font-family="FreeSans" font-size="10.00" fill="#000000">/packages/CaloReco/BEmcRecCEMC.h</text>
</a>
</g>
</g>
<!-- Node3&#45;&gt;Node5 -->
<g id="edge5" class="edge">
<title>Node3&#45;&gt;Node5</title>
<path fill="none" stroke="#191970" d="M631.0481,-169.1294C614.319,-158.8638 595.5334,-147.3362 579.6781,-137.6068"/>
<polygon fill="#191970" stroke="#191970" points="629.2287,-172.1193 639.5825,-174.3664 632.8899,-166.153 629.2287,-172.1193"/>
</g>
<!-- Node3&#45;&gt;Node7 -->
<g id="edge14" class="edge">
<title>Node3&#45;&gt;Node7</title>
<path fill="none" stroke="#191970" d="M675.0655,-164.3068C676.1385,-142.5104 680.5468,-113.9753 694.6521,-93 704.5787,-78.2387 719.1407,-66.1428 734.1346,-56.5785"/>
<polygon fill="#191970" stroke="#191970" points="671.5641,-164.3075 674.7788,-174.4029 678.5613,-164.5063 671.5641,-164.3075"/>
</g>
<!-- Node8 -->
<g id="node8" class="node">
<title>Node8</title>
<g id="a_node8"><a xlink:href="../../df/d52/BEmcRecEEMC_8h.html" target="_top" xlink:title="fun4all_coresoftware\l/blob/master/offline\l/packages/CaloReco/BEmcRecEEMC.h">
<polygon fill="none" stroke="#000000" points="704.1521,-93.5 704.1521,-137.5 911.1521,-137.5 911.1521,-93.5 704.1521,-93.5"/>
<text text-anchor="start" x="712.1521" y="-124.5" font-family="FreeSans" font-size="10.00" fill="#000000">fun4all_coresoftware</text>
<text text-anchor="start" x="712.1521" y="-112.5" font-family="FreeSans" font-size="10.00" fill="#000000">/blob/master/offline</text>
<text text-anchor="middle" x="807.6521" y="-100.5" font-family="FreeSans" font-size="10.00" fill="#000000">/packages/CaloReco/BEmcRecEEMC.h</text>
</a>
</g>
</g>
<!-- Node3&#45;&gt;Node8 -->
<g id="edge8" class="edge">
<title>Node3&#45;&gt;Node8</title>
<path fill="none" stroke="#191970" d="M720.2561,-169.1294C736.9852,-158.8638 755.7708,-147.3362 771.6262,-137.6068"/>
<polygon fill="#191970" stroke="#191970" points="718.4144,-166.153 711.7217,-174.3664 722.0755,-172.1193 718.4144,-166.153"/>
</g>
<!-- Node10 -->
<g id="node10" class="node">
<title>Node10</title>
<g id="a_node10"><a xlink:href="../../d6/dab/BEmcRecFEMC_8h.html" target="_top" xlink:title="fun4all_coresoftware\l/blob/master/offline\l/packages/CaloReco/BEmcRecFEMC.h">
<polygon fill="none" stroke="#000000" points="929.6521,-93.5 929.6521,-137.5 1135.6521,-137.5 1135.6521,-93.5 929.6521,-93.5"/>
<text text-anchor="start" x="937.6521" y="-124.5" font-family="FreeSans" font-size="10.00" fill="#000000">fun4all_coresoftware</text>
<text text-anchor="start" x="937.6521" y="-112.5" font-family="FreeSans" font-size="10.00" fill="#000000">/blob/master/offline</text>
<text text-anchor="middle" x="1032.6521" y="-100.5" font-family="FreeSans" font-size="10.00" fill="#000000">/packages/CaloReco/BEmcRecFEMC.h</text>
</a>
</g>
</g>
<!-- Node3&#45;&gt;Node10 -->
<g id="edge11" class="edge">
<title>Node3&#45;&gt;Node10</title>
<path fill="none" stroke="#191970" d="M774.7094,-174.0248C824.9028,-162.6364 885.6247,-148.8592 935.5415,-137.5335"/>
<polygon fill="#191970" stroke="#191970" points="773.7951,-170.6432 764.8174,-176.2692 775.344,-177.4697 773.7951,-170.6432"/>
</g>
<!-- Node5&#45;&gt;Node6 -->
<g id="edge6" class="edge">
<title>Node5&#45;&gt;Node6</title>
<path fill="none" stroke="#191970" d="M464.2303,-90.3738C424.433,-77.7834 376.6832,-62.6771 338.3274,-50.5427"/>
<polygon fill="#191970" stroke="#191970" points="463.3125,-93.7544 473.9025,-93.4338 465.424,-87.0804 463.3125,-93.7544"/>
</g>
<!-- Node5&#45;&gt;Node7 -->
<g id="edge7" class="edge">
<title>Node5&#45;&gt;Node7</title>
<path fill="none" stroke="#191970" d="M617.2488,-90.0916C647.6364,-79.6007 682.9722,-67.4014 714.1408,-56.6408"/>
<polygon fill="#191970" stroke="#191970" points="615.8785,-86.8619 607.5681,-93.4338 618.1629,-93.4787 615.8785,-86.8619"/>
</g>
<!-- Node8&#45;&gt;Node7 -->
<g id="edge10" class="edge">
<title>Node8&#45;&gt;Node7</title>
<path fill="none" stroke="#191970" d="M803.1674,-82.986C801.9785,-74.3663 800.7046,-65.1307 799.5497,-56.7577"/>
<polygon fill="#191970" stroke="#191970" points="799.7282,-83.6674 804.5618,-93.0953 806.6625,-82.7109 799.7282,-83.6674"/>
</g>
<!-- Node8&#45;&gt;Node9 -->
<g id="edge9" class="edge">
<title>Node8&#45;&gt;Node9</title>
<path fill="none" stroke="#191970" d="M868.4144,-89.3301C897.1467,-76.9553 931.0728,-62.3436 958.4725,-50.5427"/>
<polygon fill="#191970" stroke="#191970" points="866.6863,-86.2635 858.8864,-93.4338 869.4553,-92.6926 866.6863,-86.2635"/>
</g>
<!-- Node10&#45;&gt;Node7 -->
<g id="edge13" class="edge">
<title>Node10&#45;&gt;Node7</title>
<path fill="none" stroke="#191970" d="M963.0648,-89.9553C934.5697,-79.4951 901.498,-67.3548 872.3116,-56.6408"/>
<polygon fill="#191970" stroke="#191970" points="961.947,-93.2733 972.5406,-93.4338 964.3593,-86.702 961.947,-93.2733"/>
</g>
<!-- Node10&#45;&gt;Node11 -->
<g id="edge12" class="edge">
<title>Node10&#45;&gt;Node11</title>
<path fill="none" stroke="#191970" d="M1094.5346,-89.4914C1124.0595,-77.0824 1159.0056,-62.3949 1187.2056,-50.5427"/>
<polygon fill="#191970" stroke="#191970" points="1093.0173,-86.3325 1085.1546,-93.4338 1095.7296,-92.7857 1093.0173,-86.3325"/>
</g>
</g>
</svg>
