<?xml version="1.0" encoding="UTF-8" standalone="no"?>
<!DOCTYPE svg PUBLIC "-//W3C//DTD SVG 1.1//EN"
 "http://www.w3.org/Graphics/SVG/1.1/DTD/svg11.dtd">
<!-- Generated by graphviz version 2.40.1 (20161225.0304)
 -->
<!-- Title: fun4all_eicmacros/blob/master/common/G4_FGEM_fsPHENIX.C Pages: 1 -->
<svg width="366pt" height="215pt"
 viewBox="0.00 0.00 366.00 215.00" xmlns="http://www.w3.org/2000/svg" xmlns:xlink="http://www.w3.org/1999/xlink">
<g id="graph0" class="graph" transform="scale(1 1) rotate(0) translate(4 211)">
<title>fun4all_eicmacros/blob/master/common/G4_FGEM_fsPHENIX.C</title>
<!-- Node1 -->
<g id="node1" class="node">
<title>Node1</title>
<polygon fill="#bfbfbf" stroke="#000000" points="108,-162.5 108,-206.5 263,-206.5 263,-162.5 108,-162.5"/>
<text text-anchor="start" x="116" y="-193.5" font-family="FreeSans" font-size="10.00" fill="#000000">fun4all_eicmacros/blob</text>
<text text-anchor="start" x="116" y="-181.5" font-family="FreeSans" font-size="10.00" fill="#000000">/master/common/G4_FGEM</text>
<text text-anchor="middle" x="185.5" y="-169.5" font-family="FreeSans" font-size="10.00" fill="#000000">_fsPHENIX.C</text>
</g>
<!-- Node2 -->
<g id="node2" class="node">
<title>Node2</title>
<g id="a_node2"><a xlink:href="../../d7/dfd/G4__DSTReader__fsPHENIX_8C.html" target="_top" xlink:title="fun4all_eicmacros/blob\l/master/common/G4_DSTReader\l_fsPHENIX.C">
<polygon fill="none" stroke="#000000" points="0,-81.5 0,-125.5 183,-125.5 183,-81.5 0,-81.5"/>
<text text-anchor="start" x="8" y="-112.5" font-family="FreeSans" font-size="10.00" fill="#000000">fun4all_eicmacros/blob</text>
<text text-anchor="start" x="8" y="-100.5" font-family="FreeSans" font-size="10.00" fill="#000000">/master/common/G4_DSTReader</text>
<text text-anchor="middle" x="91.5" y="-88.5" font-family="FreeSans" font-size="10.00" fill="#000000">_fsPHENIX.C</text>
</a>
</g>
</g>
<!-- Node1&#45;&gt;Node2 -->
<g id="edge1" class="edge">
<title>Node1&#45;&gt;Node2</title>
<path fill="none" stroke="#191970" d="M152.0882,-155.709C140.6005,-145.81 127.9278,-134.8899 117.1549,-125.6068"/>
<polygon fill="#191970" stroke="#191970" points="149.9538,-158.49 159.8141,-162.3664 154.5233,-153.1871 149.9538,-158.49"/>
</g>
<!-- Node4 -->
<g id="node4" class="node">
<title>Node4</title>
<g id="a_node4"><a xlink:href="../../d6/d41/G4Setup__fsPHENIX_8C.html" target="_top" xlink:title="fun4all_eicmacros/blob\l/master/detectors/fsPHENIX\l/G4Setup_fsPHENIX.C">
<polygon fill="none" stroke="#000000" points="201,-81.5 201,-125.5 358,-125.5 358,-81.5 201,-81.5"/>
<text text-anchor="start" x="209" y="-112.5" font-family="FreeSans" font-size="10.00" fill="#000000">fun4all_eicmacros/blob</text>
<text text-anchor="start" x="209" y="-100.5" font-family="FreeSans" font-size="10.00" fill="#000000">/master/detectors/fsPHENIX</text>
<text text-anchor="middle" x="279.5" y="-88.5" font-family="FreeSans" font-size="10.00" fill="#000000">/G4Setup_fsPHENIX.C</text>
</a>
</g>
</g>
<!-- Node1&#45;&gt;Node4 -->
<g id="edge3" class="edge">
<title>Node1&#45;&gt;Node4</title>
<path fill="none" stroke="#191970" d="M218.9118,-155.709C230.3995,-145.81 243.0722,-134.8899 253.8451,-125.6068"/>
<polygon fill="#191970" stroke="#191970" points="216.4767,-153.1871 211.1859,-162.3664 221.0462,-158.49 216.4767,-153.1871"/>
</g>
<!-- Node3 -->
<g id="node3" class="node">
<title>Node3</title>
<g id="a_node3"><a xlink:href="../../d7/d9e/Fun4All__G4__fsPHENIX_8C.html" target="_top" xlink:title="fun4all_eicmacros/blob\l/master/detectors/fsPHENIX\l/Fun4All_G4_fsPHENIX.C">
<polygon fill="none" stroke="#000000" points="107,-.5 107,-44.5 264,-44.5 264,-.5 107,-.5"/>
<text text-anchor="start" x="115" y="-31.5" font-family="FreeSans" font-size="10.00" fill="#000000">fun4all_eicmacros/blob</text>
<text text-anchor="start" x="115" y="-19.5" font-family="FreeSans" font-size="10.00" fill="#000000">/master/detectors/fsPHENIX</text>
<text text-anchor="middle" x="185.5" y="-7.5" font-family="FreeSans" font-size="10.00" fill="#000000">/Fun4All_G4_fsPHENIX.C</text>
</a>
</g>
</g>
<!-- Node2&#45;&gt;Node3 -->
<g id="edge2" class="edge">
<title>Node2&#45;&gt;Node3</title>
<path fill="none" stroke="#191970" d="M124.9118,-74.709C136.3995,-64.81 149.0722,-53.8899 159.8451,-44.6068"/>
<polygon fill="#191970" stroke="#191970" points="122.4767,-72.1871 117.1859,-81.3664 127.0462,-77.49 122.4767,-72.1871"/>
</g>
<!-- Node4&#45;&gt;Node3 -->
<g id="edge4" class="edge">
<title>Node4&#45;&gt;Node3</title>
<path fill="none" stroke="#191970" d="M246.0882,-74.709C234.6005,-64.81 221.9278,-53.8899 211.1549,-44.6068"/>
<polygon fill="#191970" stroke="#191970" points="243.9538,-77.49 253.8141,-81.3664 248.5233,-72.1871 243.9538,-77.49"/>
</g>
</g>
</svg>
