<?xml version="1.0" encoding="UTF-8" standalone="no"?>
<!DOCTYPE svg PUBLIC "-//W3C//DTD SVG 1.1//EN"
 "http://www.w3.org/Graphics/SVG/1.1/DTD/svg11.dtd">
<!-- Generated by graphviz version 2.40.1 (20161225.0304)
 -->
<!-- Title: fun4all_coresoftware/blob/master/simulation/g4simulation/g4detectors/PHG4SpacalDisplayAction.cc Pages: 1 -->
<svg width="1277pt" height="407pt"
 viewBox="0.00 0.00 1276.50 407.00" xmlns="http://www.w3.org/2000/svg" xmlns:xlink="http://www.w3.org/1999/xlink">
<g id="graph0" class="graph" transform="scale(1 1) rotate(0) translate(4 403)">
<title>fun4all_coresoftware/blob/master/simulation/g4simulation/g4detectors/PHG4SpacalDisplayAction.cc</title>
<!-- Node1 -->
<g id="node1" class="node">
<title>Node1</title>
<polygon fill="#bfbfbf" stroke="#000000" points="586.5,-342.5 586.5,-398.5 751.5,-398.5 751.5,-342.5 586.5,-342.5"/>
<text text-anchor="start" x="594.5" y="-385.5" font-family="FreeSans" font-size="10.00" fill="#000000">fun4all_coresoftware</text>
<text text-anchor="start" x="594.5" y="-373.5" font-family="FreeSans" font-size="10.00" fill="#000000">/blob/master/simulation</text>
<text text-anchor="start" x="594.5" y="-361.5" font-family="FreeSans" font-size="10.00" fill="#000000">/g4simulation/g4detectors</text>
<text text-anchor="middle" x="669" y="-349.5" font-family="FreeSans" font-size="10.00" fill="#000000">/PHG4SpacalDisplayAction.cc</text>
</g>
<!-- Node2 -->
<g id="node2" class="node">
<title>Node2</title>
<g id="a_node2"><a xlink:href="../../df/d32/PHG4SpacalDisplayAction_8h.html" target="_top" xlink:title="PHG4SpacalDisplayAction.h">
<polygon fill="none" stroke="#000000" points="132,-285.5 132,-305.5 288,-305.5 288,-285.5 132,-285.5"/>
<text text-anchor="middle" x="210" y="-292.5" font-family="FreeSans" font-size="10.00" fill="#000000">PHG4SpacalDisplayAction.h</text>
</a>
</g>
</g>
<!-- Node1&#45;&gt;Node2 -->
<g id="edge1" class="edge">
<title>Node1&#45;&gt;Node2</title>
<path fill="none" stroke="#191970" d="M586.4099,-357.0049C499.4429,-342.7946 363.921,-320.6505 281.4167,-307.1694"/>
<polygon fill="#191970" stroke="#191970" points="281.8108,-303.6875 271.3773,-305.529 280.682,-310.5958 281.8108,-303.6875"/>
</g>
<!-- Node3 -->
<g id="node3" class="node">
<title>Node3</title>
<g id="a_node3"><a xlink:href="../../df/dad/PHG4DisplayAction_8h.html" target="_top" xlink:title="g4main/PHG4DisplayAction.h">
<polygon fill="none" stroke="#000000" points="0,-228.5 0,-248.5 164,-248.5 164,-228.5 0,-228.5"/>
<text text-anchor="middle" x="82" y="-235.5" font-family="FreeSans" font-size="10.00" fill="#000000">g4main/PHG4DisplayAction.h</text>
</a>
</g>
</g>
<!-- Node1&#45;&gt;Node3 -->
<g id="edge23" class="edge">
<title>Node1&#45;&gt;Node3</title>
<path fill="none" stroke="#191970" d="M586.4444,-364.7374C443.4258,-354.1698 161.14,-330.5148 123,-306 105.8503,-294.9769 94.7911,-273.988 88.5328,-258.3282"/>
<polygon fill="#191970" stroke="#191970" points="91.6707,-256.7177 84.9513,-248.5263 85.0959,-259.1201 91.6707,-256.7177"/>
</g>
<!-- Node7 -->
<g id="node7" class="node">
<title>Node7</title>
<g id="a_node7"><a xlink:href="../../d4/d16/PHG4CylinderGeom__Spacalv1_8h.html" target="_top" xlink:title="PHG4CylinderGeom_Spacalv1.h">
<polygon fill="none" stroke="#000000" points="306.5,-285.5 306.5,-305.5 483.5,-305.5 483.5,-285.5 306.5,-285.5"/>
<text text-anchor="middle" x="395" y="-292.5" font-family="FreeSans" font-size="10.00" fill="#000000">PHG4CylinderGeom_Spacalv1.h</text>
</a>
</g>
</g>
<!-- Node1&#45;&gt;Node7 -->
<g id="edge7" class="edge">
<title>Node1&#45;&gt;Node7</title>
<path fill="none" stroke="#191970" d="M586.4194,-347.8958C538.9185,-334.8938 480.9956,-319.0389 441.3895,-308.1979"/>
<polygon fill="#191970" stroke="#191970" points="442.3016,-304.8188 431.7323,-305.5545 440.4535,-311.5705 442.3016,-304.8188"/>
</g>
<!-- Node13 -->
<g id="node13" class="node">
<title>Node13</title>
<polygon fill="none" stroke="#bfbfbf" points="546,-.5 546,-20.5 606,-20.5 606,-.5 546,-.5"/>
<text text-anchor="middle" x="576" y="-7.5" font-family="FreeSans" font-size="10.00" fill="#000000">iostream</text>
</g>
<!-- Node1&#45;&gt;Node13 -->
<g id="edge31" class="edge">
<title>Node1&#45;&gt;Node13</title>
<path fill="none" stroke="#191970" d="M674.0835,-342.43C680.2985,-305.6141 690,-238.9451 690,-181.5 690,-181.5 690,-181.5 690,-124.5 690,-77.6808 641.328,-43.374 607.5898,-25.2175"/>
<polygon fill="#191970" stroke="#191970" points="609.0129,-22.0132 598.5227,-20.5278 605.797,-28.2308 609.0129,-22.0132"/>
</g>
<!-- Node16 -->
<g id="node16" class="node">
<title>Node16</title>
<g id="a_node16"><a xlink:href="../../d6/d5e/PHG4Utils_8h.html" target="_top" xlink:title="g4main/PHG4Utils.h">
<polygon fill="none" stroke="#000000" points="504.5,-285.5 504.5,-305.5 621.5,-305.5 621.5,-285.5 504.5,-285.5"/>
<text text-anchor="middle" x="563" y="-292.5" font-family="FreeSans" font-size="10.00" fill="#000000">g4main/PHG4Utils.h</text>
</a>
</g>
</g>
<!-- Node1&#45;&gt;Node16 -->
<g id="edge24" class="edge">
<title>Node1&#45;&gt;Node16</title>
<path fill="none" stroke="#191970" d="M629.2279,-342.3594C614.4313,-331.8901 598.1652,-320.381 585.4563,-311.3889"/>
<polygon fill="#191970" stroke="#191970" points="587.4728,-308.5281 577.2879,-305.6094 583.4296,-314.2424 587.4728,-308.5281"/>
</g>
<!-- Node17 -->
<g id="node17" class="node">
<title>Node17</title>
<polygon fill="none" stroke="#bfbfbf" points="616.5,-228.5 616.5,-248.5 661.5,-248.5 661.5,-228.5 616.5,-228.5"/>
<text text-anchor="middle" x="639" y="-235.5" font-family="FreeSans" font-size="10.00" fill="#000000">utility</text>
</g>
<!-- Node1&#45;&gt;Node17 -->
<g id="edge32" class="edge">
<title>Node1&#45;&gt;Node17</title>
<path fill="none" stroke="#191970" d="M662.5642,-342.1827C656.8496,-317.0383 648.641,-280.9203 643.5737,-258.6243"/>
<polygon fill="#191970" stroke="#191970" points="646.9308,-257.6023 641.3015,-248.6267 640.1048,-259.1537 646.9308,-257.6023"/>
</g>
<!-- Node18 -->
<g id="node18" class="node">
<title>Node18</title>
<polygon fill="none" stroke="#bfbfbf" points="716,-285.5 716,-305.5 786,-305.5 786,-285.5 716,-285.5"/>
<text text-anchor="middle" x="751" y="-292.5" font-family="FreeSans" font-size="10.00" fill="#000000">TSystem.h</text>
</g>
<!-- Node1&#45;&gt;Node18 -->
<g id="edge27" class="edge">
<title>Node1&#45;&gt;Node18</title>
<path fill="none" stroke="#191970" d="M700.0007,-342.1457C710.9139,-332.1642 722.8336,-321.2619 732.4034,-312.509"/>
<polygon fill="#191970" stroke="#191970" points="734.7988,-315.0613 739.8157,-305.7296 730.0745,-309.896 734.7988,-315.0613"/>
</g>
<!-- Node19 -->
<g id="node19" class="node">
<title>Node19</title>
<polygon fill="none" stroke="#bfbfbf" points="804,-285.5 804,-305.5 964,-305.5 964,-285.5 804,-285.5"/>
<text text-anchor="middle" x="884" y="-292.5" font-family="FreeSans" font-size="10.00" fill="#000000">Geant4/G4LogicalVolume.hh</text>
</g>
<!-- Node1&#45;&gt;Node19 -->
<g id="edge28" class="edge">
<title>Node1&#45;&gt;Node19</title>
<path fill="none" stroke="#191970" d="M749.3638,-342.4661C782.2556,-330.9922 818.7739,-318.2533 845.4702,-308.9406"/>
<polygon fill="#191970" stroke="#191970" points="846.9037,-312.1475 855.1929,-305.549 844.598,-305.5381 846.9037,-312.1475"/>
</g>
<!-- Node20 -->
<g id="node20" class="node">
<title>Node20</title>
<polygon fill="none" stroke="#bfbfbf" points="982.5,-285.5 982.5,-305.5 1099.5,-305.5 1099.5,-285.5 982.5,-285.5"/>
<text text-anchor="middle" x="1041" y="-292.5" font-family="FreeSans" font-size="10.00" fill="#000000">Geant4/G4String.hh</text>
</g>
<!-- Node1&#45;&gt;Node20 -->
<g id="edge29" class="edge">
<title>Node1&#45;&gt;Node20</title>
<path fill="none" stroke="#191970" d="M751.5589,-353.8551C821.1067,-339.8333 918.9459,-320.1077 981.1619,-307.5641"/>
<polygon fill="#191970" stroke="#191970" points="982.0994,-310.9456 991.2104,-305.5382 980.7159,-304.0837 982.0994,-310.9456"/>
</g>
<!-- Node21 -->
<g id="node21" class="node">
<title>Node21</title>
<polygon fill="none" stroke="#bfbfbf" points="1117.5,-285.5 1117.5,-305.5 1268.5,-305.5 1268.5,-285.5 1117.5,-285.5"/>
<text text-anchor="middle" x="1193" y="-292.5" font-family="FreeSans" font-size="10.00" fill="#000000">Geant4/G4VisAttributes.hh</text>
</g>
<!-- Node1&#45;&gt;Node21 -->
<g id="edge30" class="edge">
<title>Node1&#45;&gt;Node21</title>
<path fill="none" stroke="#191970" d="M751.7402,-358.6574C850.6223,-344.5044 1014.9504,-320.9842 1112.7281,-306.9893"/>
<polygon fill="#191970" stroke="#191970" points="1113.4498,-310.4218 1122.853,-305.5401 1112.458,-303.4924 1113.4498,-310.4218"/>
</g>
<!-- Node2&#45;&gt;Node3 -->
<g id="edge2" class="edge">
<title>Node2&#45;&gt;Node3</title>
<path fill="none" stroke="#191970" d="M187.4108,-285.4408C167.064,-276.3801 136.9312,-262.9615 114.0878,-252.7891"/>
<polygon fill="#191970" stroke="#191970" points="115.3529,-249.5212 104.7939,-248.6504 112.5053,-255.9158 115.3529,-249.5212"/>
</g>
<!-- Node4 -->
<g id="node4" class="node">
<title>Node4</title>
<polygon fill="none" stroke="#bfbfbf" points="278.5,-171.5 278.5,-191.5 323.5,-191.5 323.5,-171.5 278.5,-171.5"/>
<text text-anchor="middle" x="301" y="-178.5" font-family="FreeSans" font-size="10.00" fill="#000000">string</text>
</g>
<!-- Node2&#45;&gt;Node4 -->
<g id="edge5" class="edge">
<title>Node2&#45;&gt;Node4</title>
<path fill="none" stroke="#191970" d="M218.0756,-285.3833C233.4169,-266.1645 266.9707,-224.1301 286.3664,-199.8322"/>
<polygon fill="#191970" stroke="#191970" points="289.3084,-201.7569 292.8116,-191.7579 283.8376,-197.3898 289.3084,-201.7569"/>
</g>
<!-- Node5 -->
<g id="node5" class="node">
<title>Node5</title>
<polygon fill="none" stroke="#bfbfbf" points="288.5,-228.5 288.5,-248.5 327.5,-248.5 327.5,-228.5 288.5,-228.5"/>
<text text-anchor="middle" x="308" y="-235.5" font-family="FreeSans" font-size="10.00" fill="#000000">map</text>
</g>
<!-- Node2&#45;&gt;Node5 -->
<g id="edge4" class="edge">
<title>Node2&#45;&gt;Node5</title>
<path fill="none" stroke="#191970" d="M227.5204,-285.3095C242.5712,-276.5556 264.4933,-263.8049 281.6584,-253.8211"/>
<polygon fill="#191970" stroke="#191970" points="283.7468,-256.6555 290.6312,-248.6022 280.2273,-250.6046 283.7468,-256.6555"/>
</g>
<!-- Node6 -->
<g id="node6" class="node">
<title>Node6</title>
<polygon fill="none" stroke="#bfbfbf" points="182.5,-228.5 182.5,-248.5 231.5,-248.5 231.5,-228.5 182.5,-228.5"/>
<text text-anchor="middle" x="207" y="-235.5" font-family="FreeSans" font-size="10.00" fill="#000000">vector</text>
</g>
<!-- Node2&#45;&gt;Node6 -->
<g id="edge6" class="edge">
<title>Node2&#45;&gt;Node6</title>
<path fill="none" stroke="#191970" d="M209.4637,-285.3095C209.0754,-277.9335 208.5379,-267.72 208.0639,-258.715"/>
<polygon fill="#191970" stroke="#191970" points="211.5525,-258.4044 207.5317,-248.6022 204.5622,-258.7724 211.5525,-258.4044"/>
</g>
<!-- Node3&#45;&gt;Node4 -->
<g id="edge3" class="edge">
<title>Node3&#45;&gt;Node4</title>
<path fill="none" stroke="#191970" d="M120.6487,-228.4408C162.6937,-217.4975 229.1621,-200.1975 268.5835,-189.9372"/>
<polygon fill="#191970" stroke="#191970" points="269.6711,-193.2708 278.4671,-187.3647 267.9079,-186.4965 269.6711,-193.2708"/>
</g>
<!-- Node7&#45;&gt;Node4 -->
<g id="edge22" class="edge">
<title>Node7&#45;&gt;Node4</title>
<path fill="none" stroke="#191970" d="M386.6581,-285.3833C370.7416,-266.0802 335.8467,-223.7609 315.8533,-199.5135"/>
<polygon fill="#191970" stroke="#191970" points="318.5205,-197.2467 309.4583,-191.7579 313.1198,-201.7 318.5205,-197.2467"/>
</g>
<!-- Node7&#45;&gt;Node5 -->
<g id="edge21" class="edge">
<title>Node7&#45;&gt;Node5</title>
<path fill="none" stroke="#191970" d="M379.4461,-285.3095C366.2085,-276.6366 346.9831,-264.0407 331.8093,-254.0992"/>
<polygon fill="#191970" stroke="#191970" points="333.7019,-251.1549 323.4192,-248.6022 329.8657,-257.0102 333.7019,-251.1549"/>
</g>
<!-- Node8 -->
<g id="node8" class="node">
<title>Node8</title>
<g id="a_node8"><a xlink:href="../../dd/d2d/PHG4CylinderGeomv2_8h.html" target="_top" xlink:title="PHG4CylinderGeomv2.h">
<polygon fill="none" stroke="#000000" points="460,-228.5 460,-248.5 598,-248.5 598,-228.5 460,-228.5"/>
<text text-anchor="middle" x="529" y="-235.5" font-family="FreeSans" font-size="10.00" fill="#000000">PHG4CylinderGeomv2.h</text>
</a>
</g>
</g>
<!-- Node7&#45;&gt;Node8 -->
<g id="edge8" class="edge">
<title>Node7&#45;&gt;Node8</title>
<path fill="none" stroke="#191970" d="M418.6481,-285.4408C440.0437,-276.3396 471.7758,-262.8416 495.7279,-252.6531"/>
<polygon fill="#191970" stroke="#191970" points="497.3056,-255.7855 505.1376,-248.6504 494.5655,-249.3441 497.3056,-255.7855"/>
</g>
<!-- Node7&#45;&gt;Node13 -->
<g id="edge20" class="edge">
<title>Node7&#45;&gt;Node13</title>
<path fill="none" stroke="#191970" d="M390.173,-285.39C383.8251,-272.1496 372.271,-248.24 362,-228 349.0451,-202.4711 347.0705,-195.34 332,-171 305.1824,-127.6875 280.6449,-126.4809 265,-78 262.1337,-69.1177 258.9078,-64.0708 265,-57 282.4568,-36.739 455.4029,-20.2509 535.5756,-13.6307"/>
<polygon fill="#191970" stroke="#191970" points="536.1078,-17.0991 545.7908,-12.7993 535.5398,-10.1222 536.1078,-17.0991"/>
</g>
<!-- Node9 -->
<g id="node9" class="node">
<title>Node9</title>
<g id="a_node9"><a xlink:href="../../df/ddc/PHG4CylinderGeomv1_8h.html" target="_top" xlink:title="PHG4CylinderGeomv1.h">
<polygon fill="none" stroke="#000000" points="460,-171.5 460,-191.5 598,-191.5 598,-171.5 460,-171.5"/>
<text text-anchor="middle" x="529" y="-178.5" font-family="FreeSans" font-size="10.00" fill="#000000">PHG4CylinderGeomv1.h</text>
</a>
</g>
</g>
<!-- Node8&#45;&gt;Node9 -->
<g id="edge9" class="edge">
<title>Node8&#45;&gt;Node9</title>
<path fill="none" stroke="#191970" d="M529,-228.3095C529,-220.9335 529,-210.72 529,-201.715"/>
<polygon fill="#191970" stroke="#191970" points="532.5001,-201.6022 529,-191.6022 525.5001,-201.6023 532.5001,-201.6022"/>
</g>
<!-- Node8&#45;&gt;Node13 -->
<g id="edge19" class="edge">
<title>Node8&#45;&gt;Node13</title>
<path fill="none" stroke="#191970" d="M560.5244,-228.4097C577.5326,-221.1713 597.0326,-209.5463 607,-192 617.3375,-173.8022 646.3182,-225.0809 600,-57 597.3632,-47.4315 592.606,-37.5612 588.0185,-29.3893"/>
<polygon fill="#191970" stroke="#191970" points="590.9682,-27.5019 582.8482,-20.6963 584.9519,-31.0802 590.9682,-27.5019"/>
</g>
<!-- Node10 -->
<g id="node10" class="node">
<title>Node10</title>
<g id="a_node10"><a xlink:href="../../d9/d44/PHG4CylinderGeom_8h.html" target="_top" xlink:title="PHG4CylinderGeom.h">
<polygon fill="none" stroke="#000000" points="442,-114.5 442,-134.5 568,-134.5 568,-114.5 442,-114.5"/>
<text text-anchor="middle" x="505" y="-121.5" font-family="FreeSans" font-size="10.00" fill="#000000">PHG4CylinderGeom.h</text>
</a>
</g>
</g>
<!-- Node9&#45;&gt;Node10 -->
<g id="edge10" class="edge">
<title>Node9&#45;&gt;Node10</title>
<path fill="none" stroke="#191970" d="M524.7093,-171.3095C521.5012,-163.6903 517.0183,-153.0435 513.1383,-143.8285"/>
<polygon fill="#191970" stroke="#191970" points="516.3599,-142.4604 509.2536,-134.6022 509.9085,-145.1768 516.3599,-142.4604"/>
</g>
<!-- Node9&#45;&gt;Node13 -->
<g id="edge18" class="edge">
<title>Node9&#45;&gt;Node13</title>
<path fill="none" stroke="#191970" d="M544.7818,-171.4207C556.111,-163.1743 570.484,-150.3845 577,-135 591.5398,-100.6709 586.0337,-56.0862 580.8931,-30.6477"/>
<polygon fill="#191970" stroke="#191970" points="584.2725,-29.7192 578.7011,-20.7075 577.4367,-31.2266 584.2725,-29.7192"/>
</g>
<!-- Node11 -->
<g id="node11" class="node">
<title>Node11</title>
<g id="a_node11"><a xlink:href="../../df/d32/PHObject_8h.html" target="_top" xlink:title="phool/PHObject.h">
<polygon fill="none" stroke="#000000" points="274,-57.5 274,-77.5 378,-77.5 378,-57.5 274,-57.5"/>
<text text-anchor="middle" x="326" y="-64.5" font-family="FreeSans" font-size="10.00" fill="#000000">phool/PHObject.h</text>
</a>
</g>
</g>
<!-- Node10&#45;&gt;Node11 -->
<g id="edge11" class="edge">
<title>Node10&#45;&gt;Node11</title>
<path fill="none" stroke="#191970" d="M473.4104,-114.4408C443.8495,-105.0275 399.5178,-90.9107 367.1915,-80.6169"/>
<polygon fill="#191970" stroke="#191970" points="368.1649,-77.2537 357.5743,-77.5544 366.0409,-83.9237 368.1649,-77.2537"/>
</g>
<!-- Node10&#45;&gt;Node13 -->
<g id="edge17" class="edge">
<title>Node10&#45;&gt;Node13</title>
<path fill="none" stroke="#191970" d="M520.0113,-114.3327C531.429,-105.8635 546.7107,-92.8236 556,-78 565.0132,-63.617 570.1331,-44.9747 572.9314,-30.9271"/>
<polygon fill="#191970" stroke="#191970" points="576.4246,-31.2701 574.7078,-20.8153 569.5302,-30.0588 576.4246,-31.2701"/>
</g>
<!-- Node14 -->
<g id="node14" class="node">
<title>Node14</title>
<g id="a_node14"><a xlink:href="../../d5/d6f/phool_8h.html" target="_top" xlink:title="phool/phool.h">
<polygon fill="none" stroke="#000000" points="462.5,-57.5 462.5,-77.5 547.5,-77.5 547.5,-57.5 462.5,-57.5"/>
<text text-anchor="middle" x="505" y="-64.5" font-family="FreeSans" font-size="10.00" fill="#000000">phool/phool.h</text>
</a>
</g>
</g>
<!-- Node10&#45;&gt;Node14 -->
<g id="edge14" class="edge">
<title>Node10&#45;&gt;Node14</title>
<path fill="none" stroke="#191970" d="M505,-114.3095C505,-106.9335 505,-96.72 505,-87.715"/>
<polygon fill="#191970" stroke="#191970" points="508.5001,-87.6022 505,-77.6022 501.5001,-87.6023 508.5001,-87.6022"/>
</g>
<!-- Node15 -->
<g id="node15" class="node">
<title>Node15</title>
<polygon fill="none" stroke="#bfbfbf" points="396,-57.5 396,-77.5 444,-77.5 444,-57.5 396,-57.5"/>
<text text-anchor="middle" x="420" y="-64.5" font-family="FreeSans" font-size="10.00" fill="#000000">cmath</text>
</g>
<!-- Node10&#45;&gt;Node15 -->
<g id="edge16" class="edge">
<title>Node10&#45;&gt;Node15</title>
<path fill="none" stroke="#191970" d="M489.8037,-114.3095C476.9913,-105.7177 458.4376,-93.2758 443.6786,-83.3786"/>
<polygon fill="#191970" stroke="#191970" points="445.3195,-80.2649 435.0647,-77.6022 441.4208,-86.0787 445.3195,-80.2649"/>
</g>
<!-- Node12 -->
<g id="node12" class="node">
<title>Node12</title>
<polygon fill="none" stroke="#bfbfbf" points="293.5,-.5 293.5,-20.5 358.5,-20.5 358.5,-.5 293.5,-.5"/>
<text text-anchor="middle" x="326" y="-7.5" font-family="FreeSans" font-size="10.00" fill="#000000">TObject.h</text>
</g>
<!-- Node11&#45;&gt;Node12 -->
<g id="edge12" class="edge">
<title>Node11&#45;&gt;Node12</title>
<path fill="none" stroke="#191970" d="M326,-57.3095C326,-49.9335 326,-39.72 326,-30.715"/>
<polygon fill="#191970" stroke="#191970" points="329.5001,-30.6022 326,-20.6022 322.5001,-30.6023 329.5001,-30.6022"/>
</g>
<!-- Node11&#45;&gt;Node13 -->
<g id="edge13" class="edge">
<title>Node11&#45;&gt;Node13</title>
<path fill="none" stroke="#191970" d="M370.1195,-57.4408C417.0346,-46.7441 490.5882,-29.9739 535.9067,-19.6413"/>
<polygon fill="#191970" stroke="#191970" points="536.709,-23.0482 545.6808,-17.4128 535.1529,-16.2234 536.709,-23.0482"/>
</g>
<!-- Node14&#45;&gt;Node13 -->
<g id="edge15" class="edge">
<title>Node14&#45;&gt;Node13</title>
<path fill="none" stroke="#191970" d="M517.6934,-57.3095C528.1936,-48.8798 543.3102,-36.7439 555.5202,-26.9415"/>
<polygon fill="#191970" stroke="#191970" points="557.8097,-29.5919 563.4165,-20.6022 553.4274,-24.1333 557.8097,-29.5919"/>
</g>
<!-- Node16&#45;&gt;Node4 -->
<g id="edge25" class="edge">
<title>Node16&#45;&gt;Node4</title>
<path fill="none" stroke="#191970" d="M538.0007,-285.366C515.2444,-276.0832 480.7589,-261.8701 451,-249 409.6106,-231.1 362.2091,-209.5998 331.9606,-195.7517"/>
<polygon fill="#191970" stroke="#191970" points="333.3206,-192.5249 322.7717,-191.5387 330.4031,-198.888 333.3206,-192.5249"/>
</g>
<!-- Node16&#45;&gt;Node17 -->
<g id="edge26" class="edge">
<title>Node16&#45;&gt;Node17</title>
<path fill="none" stroke="#191970" d="M576.5873,-285.3095C587.935,-276.7987 604.3198,-264.5102 617.4542,-254.6594"/>
<polygon fill="#191970" stroke="#191970" points="619.6303,-257.4023 625.5304,-248.6022 615.4303,-251.8023 619.6303,-257.4023"/>
</g>
</g>
</svg>
