<?xml version="1.0" encoding="UTF-8" standalone="no"?>
<!DOCTYPE svg PUBLIC "-//W3C//DTD SVG 1.1//EN"
 "http://www.w3.org/Graphics/SVG/1.1/DTD/svg11.dtd">
<!-- Generated by graphviz version 2.40.1 (20161225.0304)
 -->
<!-- Title: EtmPolygonGroup::DrawMe Pages: 1 -->
<svg width="596pt" height="119pt"
 viewBox="0.00 0.00 596.00 119.00" xmlns="http://www.w3.org/2000/svg" xmlns:xlink="http://www.w3.org/1999/xlink">
<g id="graph0" class="graph" transform="scale(1 1) rotate(0) translate(4 115)">
<title>EtmPolygonGroup::DrawMe</title>
<!-- Node1 -->
<g id="node1" class="node">
<title>Node1</title>
<polygon fill="#bfbfbf" stroke="#000000" points="0,-51.5 0,-71.5 155,-71.5 155,-51.5 0,-51.5"/>
<text text-anchor="middle" x="77.5" y="-58.5" font-family="FreeSans" font-size="10.00" fill="#000000">EtmPolygonGroup::DrawMe</text>
</g>
<!-- Node2 -->
<g id="node2" class="node">
<title>Node2</title>
<g id="a_node2"><a xlink:href="../../d3/d46/classEtmPolygonGroup.html#a6cbbb14a179bbe506559a96a46e9f5ee" target="_top" xlink:title="EtmPolygonGroup::DrawPolygon">
<polygon fill="none" stroke="#000000" points="191,-51.5 191,-71.5 371,-71.5 371,-51.5 191,-51.5"/>
<text text-anchor="middle" x="281" y="-58.5" font-family="FreeSans" font-size="10.00" fill="#000000">EtmPolygonGroup::DrawPolygon</text>
</a>
</g>
</g>
<!-- Node1&#45;&gt;Node2 -->
<g id="edge1" class="edge">
<title>Node1&#45;&gt;Node2</title>
<path fill="none" stroke="#191970" d="M155.0151,-61.5C163.4112,-61.5 172.0411,-61.5 180.6575,-61.5"/>
<polygon fill="#191970" stroke="#191970" points="180.7514,-65.0001 190.7514,-61.5 180.7513,-58.0001 180.7514,-65.0001"/>
</g>
<!-- Node3 -->
<g id="node3" class="node">
<title>Node3</title>
<g id="a_node3"><a xlink:href="../../d8/d51/classEicToyModel.html#a61ecd25a6efac0b8cb31d2f26beee08a" target="_top" xlink:title="EicToyModel::Instance">
<polygon fill="none" stroke="#000000" points="433.5,-90.5 433.5,-110.5 561.5,-110.5 561.5,-90.5 433.5,-90.5"/>
<text text-anchor="middle" x="497.5" y="-97.5" font-family="FreeSans" font-size="10.00" fill="#000000">EicToyModel::Instance</text>
</a>
</g>
</g>
<!-- Node2&#45;&gt;Node3 -->
<g id="edge2" class="edge">
<title>Node2&#45;&gt;Node3</title>
<path fill="none" stroke="#191970" d="M336.7541,-71.5435C365.7955,-76.7749 401.4881,-83.2046 431.8571,-88.6752"/>
<polygon fill="#191970" stroke="#191970" points="431.4727,-92.1622 441.9348,-90.4906 432.7137,-85.2731 431.4727,-92.1622"/>
</g>
<!-- Node4 -->
<g id="node4" class="node">
<title>Node4</title>
<g id="a_node4"><a xlink:href="../../d3/d46/classEtmPolygonGroup.html#a5d0d05cc166d5d949a8815ebe7a3d7b3" target="_top" xlink:title="EtmPolygonGroup::IsHighlighted">
<polygon fill="none" stroke="#000000" points="407,-51.5 407,-71.5 588,-71.5 588,-51.5 407,-51.5"/>
<text text-anchor="middle" x="497.5" y="-58.5" font-family="FreeSans" font-size="10.00" fill="#000000">EtmPolygonGroup::IsHighlighted</text>
</a>
</g>
</g>
<!-- Node2&#45;&gt;Node4 -->
<g id="edge3" class="edge">
<title>Node2&#45;&gt;Node4</title>
<path fill="none" stroke="#191970" d="M371.2478,-61.5C379.579,-61.5 388.0565,-61.5 396.4755,-61.5"/>
<polygon fill="#191970" stroke="#191970" points="396.7021,-65.0001 406.7021,-61.5 396.702,-58.0001 396.7021,-65.0001"/>
</g>
<!-- Node5 -->
<g id="node5" class="node">
<title>Node5</title>
<g id="a_node5"><a xlink:href="../../d3/d46/classEtmPolygonGroup.html#afd5a8cf15e7f78656665e0924e055e48" target="_top" xlink:title="EtmPolygonGroup::GetColor\lAlpha">
<polygon fill="none" stroke="#000000" points="418,-.5 418,-32.5 577,-32.5 577,-.5 418,-.5"/>
<text text-anchor="start" x="426" y="-19.5" font-family="FreeSans" font-size="10.00" fill="#000000">EtmPolygonGroup::GetColor</text>
<text text-anchor="middle" x="497.5" y="-7.5" font-family="FreeSans" font-size="10.00" fill="#000000">Alpha</text>
</a>
</g>
</g>
<!-- Node2&#45;&gt;Node5 -->
<g id="edge4" class="edge">
<title>Node2&#45;&gt;Node5</title>
<path fill="none" stroke="#191970" d="M329.3174,-51.4571C353.1809,-46.497 382.7187,-40.3576 410.3486,-34.6146"/>
<polygon fill="#191970" stroke="#191970" points="411.3493,-37.9815 420.4277,-32.5196 409.9247,-31.128 411.3493,-37.9815"/>
</g>
</g>
</svg>
