<?xml version="1.0" encoding="UTF-8" standalone="no"?>
<!DOCTYPE svg PUBLIC "-//W3C//DTD SVG 1.1//EN"
 "http://www.w3.org/Graphics/SVG/1.1/DTD/svg11.dtd">
<!-- Generated by graphviz version 2.40.1 (20161225.0304)
 -->
<!-- Title: PHG4EventAction Pages: 1 -->
<svg width="474pt" height="86pt"
 viewBox="0.00 0.00 473.50 86.00" xmlns="http://www.w3.org/2000/svg" xmlns:xlink="http://www.w3.org/1999/xlink">
<g id="graph0" class="graph" transform="scale(1 1) rotate(0) translate(4 82)">
<title>PHG4EventAction</title>
<!-- Node1 -->
<g id="node1" class="node">
<title>Node1</title>
<polygon fill="#bfbfbf" stroke="#000000" points="175.5,-57.5 175.5,-77.5 279.5,-77.5 279.5,-57.5 175.5,-57.5"/>
<text text-anchor="middle" x="227.5" y="-64.5" font-family="FreeSans" font-size="10.00" fill="#000000">PHG4EventAction</text>
</g>
<!-- Node2 -->
<g id="node2" class="node">
<title>Node2</title>
<g id="a_node2"><a xlink:href="../../d1/df1/classG4LmonEventAction.html" target="_top" xlink:title="G4LmonEventAction">
<polygon fill="none" stroke="#000000" points="0,-.5 0,-20.5 119,-20.5 119,-.5 0,-.5"/>
<text text-anchor="middle" x="59.5" y="-7.5" font-family="FreeSans" font-size="10.00" fill="#000000">G4LmonEventAction</text>
</a>
</g>
</g>
<!-- Node1&#45;&gt;Node2 -->
<g id="edge1" class="edge">
<title>Node1&#45;&gt;Node2</title>
<path fill="none" stroke="#191970" d="M188.0369,-54.1107C157.7642,-43.8396 116.6344,-29.8849 89.134,-20.5544"/>
<polygon fill="#191970" stroke="#191970" points="187.2573,-57.5422 197.8517,-57.4408 189.5065,-50.9133 187.2573,-57.5422"/>
</g>
<!-- Node3 -->
<g id="node3" class="node">
<title>Node3</title>
<g id="a_node3"><a xlink:href="../../db/d55/classPHG4EventActionClearZeroEdep.html" target="_top" xlink:title="PHG4EventActionClearZeroEdep">
<polygon fill="none" stroke="#000000" points="137.5,-.5 137.5,-20.5 317.5,-20.5 317.5,-.5 137.5,-.5"/>
<text text-anchor="middle" x="227.5" y="-7.5" font-family="FreeSans" font-size="10.00" fill="#000000">PHG4EventActionClearZeroEdep</text>
</a>
</g>
</g>
<!-- Node1&#45;&gt;Node3 -->
<g id="edge2" class="edge">
<title>Node1&#45;&gt;Node3</title>
<path fill="none" stroke="#191970" d="M227.5,-47.1771C227.5,-38.1625 227.5,-27.9556 227.5,-20.6022"/>
<polygon fill="#191970" stroke="#191970" points="224.0001,-47.3095 227.5,-57.3095 231.0001,-47.3096 224.0001,-47.3095"/>
</g>
<!-- Node4 -->
<g id="node4" class="node">
<title>Node4</title>
<g id="a_node4"><a xlink:href="../../dd/d9d/classPHG4TruthEventAction.html" target="_top" xlink:title="PHG4TruthEventAction">
<polygon fill="none" stroke="#000000" points="335.5,-.5 335.5,-20.5 465.5,-20.5 465.5,-.5 335.5,-.5"/>
<text text-anchor="middle" x="400.5" y="-7.5" font-family="FreeSans" font-size="10.00" fill="#000000">PHG4TruthEventAction</text>
</a>
</g>
</g>
<!-- Node1&#45;&gt;Node4 -->
<g id="edge3" class="edge">
<title>Node1&#45;&gt;Node4</title>
<path fill="none" stroke="#191970" d="M267.7316,-54.2445C298.9427,-43.9611 341.5421,-29.9255 369.984,-20.5544"/>
<polygon fill="#191970" stroke="#191970" points="266.4332,-50.9872 258.0307,-57.4408 268.6237,-57.6356 266.4332,-50.9872"/>
</g>
</g>
</svg>
