<?xml version="1.0" encoding="UTF-8" standalone="no"?>
<!DOCTYPE svg PUBLIC "-//W3C//DTD SVG 1.1//EN"
 "http://www.w3.org/Graphics/SVG/1.1/DTD/svg11.dtd">
<!-- Generated by graphviz version 2.40.1 (20161225.0304)
 -->
<!-- Title: GPUTPCTrackParam::GetPar Pages: 1 -->
<svg width="799pt" height="192pt"
 viewBox="0.00 0.00 799.00 192.00" xmlns="http://www.w3.org/2000/svg" xmlns:xlink="http://www.w3.org/1999/xlink">
<g id="graph0" class="graph" transform="scale(1 1) rotate(0) translate(4 188)">
<title>GPUTPCTrackParam::GetPar</title>
<!-- Node1 -->
<g id="node1" class="node">
<title>Node1</title>
<polygon fill="#bfbfbf" stroke="#000000" points="0,-70.5 0,-90.5 156,-90.5 156,-70.5 0,-70.5"/>
<text text-anchor="middle" x="78" y="-77.5" font-family="FreeSans" font-size="10.00" fill="#000000">GPUTPCTrackParam::GetPar</text>
</g>
<!-- Node2 -->
<g id="node2" class="node">
<title>Node2</title>
<g id="a_node2"><a xlink:href="../../d4/d60/classGPUTPCTrackParam.html#afd5bfcc61171afbb01ddeba13d173e38" target="_top" xlink:title="GPUTPCTrackParam::Calculate\lFitParameters">
<polygon fill="none" stroke="#000000" points="201,-90.5 201,-122.5 370,-122.5 370,-90.5 201,-90.5"/>
<text text-anchor="start" x="209" y="-109.5" font-family="FreeSans" font-size="10.00" fill="#000000">GPUTPCTrackParam::Calculate</text>
<text text-anchor="middle" x="285.5" y="-97.5" font-family="FreeSans" font-size="10.00" fill="#000000">FitParameters</text>
</a>
</g>
</g>
<!-- Node1&#45;&gt;Node2 -->
<g id="edge1" class="edge">
<title>Node1&#45;&gt;Node2</title>
<path fill="none" stroke="#191970" d="M166.1642,-91.5471C177.6514,-92.9864 189.3995,-94.4585 200.8277,-95.8905"/>
<polygon fill="#191970" stroke="#191970" points="166.5088,-88.063 156.1512,-90.2924 165.6384,-95.0087 166.5088,-88.063"/>
</g>
<!-- Node8 -->
<g id="node8" class="node">
<title>Node8</title>
<g id="a_node8"><a xlink:href="../../d4/d60/classGPUTPCTrackParam.html#ab1e2d06794109f6400da74c211d61835" target="_top" xlink:title="GPUTPCTrackParam::Correct\lForMeanMaterial">
<polygon fill="none" stroke="#000000" points="206,-39.5 206,-71.5 365,-71.5 365,-39.5 206,-39.5"/>
<text text-anchor="start" x="214" y="-58.5" font-family="FreeSans" font-size="10.00" fill="#000000">GPUTPCTrackParam::Correct</text>
<text text-anchor="middle" x="285.5" y="-46.5" font-family="FreeSans" font-size="10.00" fill="#000000">ForMeanMaterial</text>
</a>
</g>
</g>
<!-- Node1&#45;&gt;Node8 -->
<g id="edge7" class="edge">
<title>Node1&#45;&gt;Node8</title>
<path fill="none" stroke="#191970" d="M166.1176,-69.8834C179.2568,-68.3004 192.7383,-66.6761 205.693,-65.1153"/>
<polygon fill="#191970" stroke="#191970" points="165.6607,-66.4131 156.1512,-71.0842 166.4981,-73.3628 165.6607,-66.4131"/>
</g>
<!-- Node10 -->
<g id="node10" class="node">
<title>Node10</title>
<g id="a_node10"><a xlink:href="../../d4/d60/classGPUTPCTrackParam.html#a5baf5f012e005d327ea14964e18c5afd" target="_top" xlink:title="GPUTPCTrackParam::Filter">
<polygon fill="none" stroke="#000000" points="212,-141.5 212,-161.5 359,-161.5 359,-141.5 212,-141.5"/>
<text text-anchor="middle" x="285.5" y="-148.5" font-family="FreeSans" font-size="10.00" fill="#000000">GPUTPCTrackParam::Filter</text>
</a>
</g>
</g>
<!-- Node1&#45;&gt;Node10 -->
<g id="edge9" class="edge">
<title>Node1&#45;&gt;Node10</title>
<path fill="none" stroke="#191970" d="M105.8617,-95.3783C128.5135,-106.938 161.5881,-122.6168 192,-132.5 202.7123,-135.9813 214.3308,-138.9537 225.6181,-141.442"/>
<polygon fill="#191970" stroke="#191970" points="107.3201,-92.1921 96.8301,-90.7052 104.1033,-98.4092 107.3201,-92.1921"/>
</g>
<!-- Node11 -->
<g id="node11" class="node">
<title>Node11</title>
<g id="a_node11"><a xlink:href="../../d4/d60/classGPUTPCTrackParam.html#a35863fa7ba18775d5a3fbe52ab6c0181" target="_top" xlink:title="GPUTPCTrackParam::TransportToX">
<polygon fill="none" stroke="#000000" points="192,-.5 192,-20.5 379,-20.5 379,-.5 192,-.5"/>
<text text-anchor="middle" x="285.5" y="-7.5" font-family="FreeSans" font-size="10.00" fill="#000000">GPUTPCTrackParam::TransportToX</text>
</a>
</g>
</g>
<!-- Node1&#45;&gt;Node11 -->
<g id="edge12" class="edge">
<title>Node1&#45;&gt;Node11</title>
<path fill="none" stroke="#191970" d="M106.3026,-65.7309C128.962,-54.4278 161.833,-39.1823 192,-29.5 202.8826,-26.0071 214.6914,-23.0168 226.1364,-20.512"/>
<polygon fill="#191970" stroke="#191970" points="104.5991,-62.6702 97.2543,-70.306 107.7577,-68.917 104.5991,-62.6702"/>
</g>
<!-- Node3 -->
<g id="node3" class="node">
<title>Node3</title>
<g id="a_node3"><a xlink:href="../../de/dfe/classALICEKF.html#ad331f69975b0e45b57f2a2969c379acf" target="_top" xlink:title="ALICEKF::ALICEKalmanFilter">
<polygon fill="none" stroke="#000000" points="421.5,-163.5 421.5,-183.5 578.5,-183.5 578.5,-163.5 421.5,-163.5"/>
<text text-anchor="middle" x="500" y="-170.5" font-family="FreeSans" font-size="10.00" fill="#000000">ALICEKF::ALICEKalmanFilter</text>
</a>
</g>
</g>
<!-- Node2&#45;&gt;Node3 -->
<g id="edge2" class="edge">
<title>Node2&#45;&gt;Node3</title>
<path fill="none" stroke="#191970" d="M362.0266,-125.88C367.8381,-127.9273 373.5553,-130.1343 379,-132.5 396.1979,-139.9724 397.6161,-147.4712 415,-154.5 423.8317,-158.0709 433.4643,-161.0349 442.9688,-163.4745"/>
<polygon fill="#191970" stroke="#191970" points="362.7827,-122.4422 352.1888,-122.5858 360.56,-129.08 362.7827,-122.4422"/>
</g>
<!-- Node4 -->
<g id="node4" class="node">
<title>Node4</title>
<g id="a_node4"><a xlink:href="../../d9/d69/classPHSimpleKFProp.html#aa515bad114fc577245f00f96b40b2e1e" target="_top" xlink:title="PHSimpleKFProp::Propagate\lTrack">
<polygon fill="none" stroke="#000000" points="421.5,-112.5 421.5,-144.5 578.5,-144.5 578.5,-112.5 421.5,-112.5"/>
<text text-anchor="start" x="429.5" y="-131.5" font-family="FreeSans" font-size="10.00" fill="#000000">PHSimpleKFProp::Propagate</text>
<text text-anchor="middle" x="500" y="-119.5" font-family="FreeSans" font-size="10.00" fill="#000000">Track</text>
</a>
</g>
</g>
<!-- Node2&#45;&gt;Node4 -->
<g id="edge3" class="edge">
<title>Node2&#45;&gt;Node4</title>
<path fill="none" stroke="#191970" d="M380.2322,-116.2161C393.9911,-117.6273 408.0285,-119.067 421.4221,-120.4407"/>
<polygon fill="#191970" stroke="#191970" points="380.581,-112.7336 370.2761,-115.195 379.8668,-119.6971 380.581,-112.7336"/>
</g>
<!-- Node6 -->
<g id="node6" class="node">
<title>Node6</title>
<g id="a_node6"><a xlink:href="../../d4/d60/classGPUTPCTrackParam.html#a4e95972f54c29323f01457a125703808" target="_top" xlink:title="GPUTPCTrackParam::Transport\lToXWithMaterial">
<polygon fill="none" stroke="#000000" points="415,-61.5 415,-93.5 585,-93.5 585,-61.5 415,-61.5"/>
<text text-anchor="start" x="423" y="-80.5" font-family="FreeSans" font-size="10.00" fill="#000000">GPUTPCTrackParam::Transport</text>
<text text-anchor="middle" x="500" y="-68.5" font-family="FreeSans" font-size="10.00" fill="#000000">ToXWithMaterial</text>
</a>
</g>
</g>
<!-- Node2&#45;&gt;Node6 -->
<g id="edge5" class="edge">
<title>Node2&#45;&gt;Node6</title>
<path fill="none" stroke="#191970" d="M380.3018,-93.683C391.7822,-92.1308 403.4555,-90.5526 414.7858,-89.0208"/>
<polygon fill="#191970" stroke="#191970" points="379.717,-90.2301 370.2761,-95.0384 380.6549,-97.167 379.717,-90.2301"/>
</g>
<!-- Node5 -->
<g id="node5" class="node">
<title>Node5</title>
<g id="a_node5"><a xlink:href="../../d9/d69/classPHSimpleKFProp.html#a136dcc93e867e01b138a7cdd6dbcf008" target="_top" xlink:title="PHSimpleKFProp::Process">
<polygon fill="none" stroke="#000000" points="634,-118.5 634,-138.5 778,-138.5 778,-118.5 634,-118.5"/>
<text text-anchor="middle" x="706" y="-125.5" font-family="FreeSans" font-size="10.00" fill="#000000">PHSimpleKFProp::Process</text>
</a>
</g>
</g>
<!-- Node4&#45;&gt;Node5 -->
<g id="edge4" class="edge">
<title>Node4&#45;&gt;Node5</title>
<path fill="none" stroke="#191970" d="M589.0155,-128.5C603.9417,-128.5 619.2671,-128.5 633.7064,-128.5"/>
<polygon fill="#191970" stroke="#191970" points="588.7616,-125.0001 578.7615,-128.5 588.7615,-132.0001 588.7616,-125.0001"/>
</g>
<!-- Node7 -->
<g id="node7" class="node">
<title>Node7</title>
<g id="a_node7"><a xlink:href="../../d4/d60/classGPUTPCTrackParam.html#ab02a0b34001d85ff64f5d6eccd7a1bca" target="_top" xlink:title="GPUTPCTrackParam::Transport\lToXWithMaterial">
<polygon fill="none" stroke="#000000" points="621,-61.5 621,-93.5 791,-93.5 791,-61.5 621,-61.5"/>
<text text-anchor="start" x="629" y="-80.5" font-family="FreeSans" font-size="10.00" fill="#000000">GPUTPCTrackParam::Transport</text>
<text text-anchor="middle" x="706" y="-68.5" font-family="FreeSans" font-size="10.00" fill="#000000">ToXWithMaterial</text>
</a>
</g>
</g>
<!-- Node6&#45;&gt;Node7 -->
<g id="edge6" class="edge">
<title>Node6&#45;&gt;Node7</title>
<path fill="none" stroke="#191970" d="M595.5137,-77.5C603.9474,-77.5 612.4484,-77.5 620.7889,-77.5"/>
<polygon fill="#191970" stroke="#191970" points="595.2751,-74.0001 585.2751,-77.5 595.2751,-81.0001 595.2751,-74.0001"/>
</g>
<!-- Node9 -->
<g id="node9" class="node">
<title>Node9</title>
<g id="a_node9"><a xlink:href="../../d4/d60/classGPUTPCTrackParam.html#a48b7eac34c0453a1779b1111b2cfb06c" target="_top" xlink:title="GPUTPCTrackParam::Transport\lToXWithMaterial">
<polygon fill="none" stroke="#000000" points="415,-10.5 415,-42.5 585,-42.5 585,-10.5 415,-10.5"/>
<text text-anchor="start" x="423" y="-29.5" font-family="FreeSans" font-size="10.00" fill="#000000">GPUTPCTrackParam::Transport</text>
<text text-anchor="middle" x="500" y="-17.5" font-family="FreeSans" font-size="10.00" fill="#000000">ToXWithMaterial</text>
</a>
</g>
</g>
<!-- Node8&#45;&gt;Node9 -->
<g id="edge8" class="edge">
<title>Node8&#45;&gt;Node9</title>
<path fill="none" stroke="#191970" d="M375.0466,-43.3935C388.2078,-41.6141 401.7348,-39.7853 414.8051,-38.0182"/>
<polygon fill="#191970" stroke="#191970" points="374.5079,-39.9344 365.0671,-44.7427 375.4459,-46.8712 374.5079,-39.9344"/>
</g>
<!-- Node10&#45;&gt;Node3 -->
<g id="edge10" class="edge">
<title>Node10&#45;&gt;Node3</title>
<path fill="none" stroke="#191970" d="M369.0554,-160.0698C386.2953,-161.838 404.3949,-163.6943 421.4494,-165.4435"/>
<polygon fill="#191970" stroke="#191970" points="369.3236,-156.579 359.0186,-159.0404 368.6093,-163.5425 369.3236,-156.579"/>
</g>
<!-- Node10&#45;&gt;Node4 -->
<g id="edge11" class="edge">
<title>Node10&#45;&gt;Node4</title>
<path fill="none" stroke="#191970" d="M369.0554,-142.5407C386.2953,-140.6921 404.3949,-138.7514 421.4494,-136.9227"/>
<polygon fill="#191970" stroke="#191970" points="368.5885,-139.0706 359.0186,-143.6169 369.3348,-146.0307 368.5885,-139.0706"/>
</g>
</g>
</svg>
