<?xml version="1.0" encoding="UTF-8" standalone="no"?>
<!DOCTYPE svg PUBLIC "-//W3C//DTD SVG 1.1//EN"
 "http://www.w3.org/Graphics/SVG/1.1/DTD/svg11.dtd">
<!-- Generated by graphviz version 2.40.1 (20161225.0304)
 -->
<!-- Title: PHActsTrackProjection::projectTracks Pages: 1 -->
<svg width="870pt" height="591pt"
 viewBox="0.00 0.00 870.00 591.00" xmlns="http://www.w3.org/2000/svg" xmlns:xlink="http://www.w3.org/1999/xlink">
<g id="graph0" class="graph" transform="scale(1 1) rotate(0) translate(4 587)">
<title>PHActsTrackProjection::projectTracks</title>
<!-- Node1 -->
<g id="node1" class="node">
<title>Node1</title>
<polygon fill="#bfbfbf" stroke="#000000" points="0,-393.5 0,-425.5 127,-425.5 127,-393.5 0,-393.5"/>
<text text-anchor="start" x="8" y="-412.5" font-family="FreeSans" font-size="10.00" fill="#000000">PHActsTrackProjection</text>
<text text-anchor="middle" x="63.5" y="-400.5" font-family="FreeSans" font-size="10.00" fill="#000000">::projectTracks</text>
</g>
<!-- Node2 -->
<g id="node2" class="node">
<title>Node2</title>
<g id="a_node2"><a xlink:href="../../d9/df7/classPHActsTrackProjection.html#a5e9cac5bfd9f5e9d2704a6a5ca562281" target="_top" xlink:title="Propagate the fitted track parameters to a surface with Acts.">
<polygon fill="none" stroke="#000000" points="170.5,-454.5 170.5,-486.5 297.5,-486.5 297.5,-454.5 170.5,-454.5"/>
<text text-anchor="start" x="178.5" y="-473.5" font-family="FreeSans" font-size="10.00" fill="#000000">PHActsTrackProjection</text>
<text text-anchor="middle" x="234" y="-461.5" font-family="FreeSans" font-size="10.00" fill="#000000">::propagateTrack</text>
</a>
</g>
</g>
<!-- Node1&#45;&gt;Node2 -->
<g id="edge1" class="edge">
<title>Node1&#45;&gt;Node2</title>
<path fill="none" stroke="#191970" d="M108.2969,-425.527C130.1387,-433.3414 156.5927,-442.8059 179.5872,-451.0327"/>
<polygon fill="#191970" stroke="#191970" points="178.612,-454.401 189.2066,-454.4742 180.9701,-447.8101 178.612,-454.401"/>
</g>
<!-- Node8 -->
<g id="node8" class="node">
<title>Node8</title>
<g id="a_node8"><a xlink:href="../../d9/df7/classPHActsTrackProjection.html#afa43869dd88d74edccc8b691101369de" target="_top" xlink:title="Set the particular calo nodes depending on which layer.">
<polygon fill="none" stroke="#000000" points="163,-393.5 163,-425.5 305,-425.5 305,-393.5 163,-393.5"/>
<text text-anchor="start" x="171" y="-412.5" font-family="FreeSans" font-size="10.00" fill="#000000">PHActsTrackProjection</text>
<text text-anchor="middle" x="234" y="-400.5" font-family="FreeSans" font-size="10.00" fill="#000000">::setCaloContainerNodes</text>
</a>
</g>
</g>
<!-- Node1&#45;&gt;Node8 -->
<g id="edge7" class="edge">
<title>Node1&#45;&gt;Node8</title>
<path fill="none" stroke="#191970" d="M127.473,-409.5C135.6687,-409.5 144.1447,-409.5 152.5709,-409.5"/>
<polygon fill="#191970" stroke="#191970" points="152.802,-413.0001 162.802,-409.5 152.802,-406.0001 152.802,-413.0001"/>
</g>
<!-- Node9 -->
<g id="node9" class="node">
<title>Node9</title>
<g id="a_node9"><a xlink:href="../../d9/df7/classPHActsTrackProjection.html#a35d2607597ce09ae13d3a32bfc991e11" target="_top" xlink:title="Update the SvtxTrack object with the track&#45;cluster match.">
<polygon fill="none" stroke="#000000" points="170.5,-331.5 170.5,-363.5 297.5,-363.5 297.5,-331.5 170.5,-331.5"/>
<text text-anchor="start" x="178.5" y="-350.5" font-family="FreeSans" font-size="10.00" fill="#000000">PHActsTrackProjection</text>
<text text-anchor="middle" x="234" y="-338.5" font-family="FreeSans" font-size="10.00" fill="#000000">::updateSvtxTrack</text>
</a>
</g>
</g>
<!-- Node1&#45;&gt;Node9 -->
<g id="edge8" class="edge">
<title>Node1&#45;&gt;Node9</title>
<path fill="none" stroke="#191970" d="M107.8518,-393.3721C130.0522,-385.2992 157.1022,-375.4628 180.4521,-366.972"/>
<polygon fill="#191970" stroke="#191970" points="181.6685,-370.2539 189.8703,-363.5472 179.2762,-363.6754 181.6685,-370.2539"/>
</g>
<!-- Node3 -->
<g id="node3" class="node">
<title>Node3</title>
<g id="a_node3"><a xlink:href="../../d5/dec/classFun4AllBase.html#a8a5c77a92bdac6bc043476e132379a40" target="_top" xlink:title="Gets the verbosity of this module.">
<polygon fill="none" stroke="#000000" points="355.5,-421.5 355.5,-441.5 487.5,-441.5 487.5,-421.5 355.5,-421.5"/>
<text text-anchor="middle" x="421.5" y="-428.5" font-family="FreeSans" font-size="10.00" fill="#000000">Fun4AllBase::Verbosity</text>
</a>
</g>
</g>
<!-- Node2&#45;&gt;Node3 -->
<g id="edge2" class="edge">
<title>Node2&#45;&gt;Node3</title>
<path fill="none" stroke="#191970" d="M297.7406,-457.242C318.9985,-452.8203 342.5577,-447.92 363.3668,-443.5917"/>
<polygon fill="#191970" stroke="#191970" points="364.2615,-446.9806 373.3392,-441.5174 362.836,-440.1273 364.2615,-446.9806"/>
</g>
<!-- Node4 -->
<g id="node4" class="node">
<title>Node4</title>
<g id="a_node4"><a xlink:href="../../d6/d71/classActs_1_1SingleTrackParameters.html#afcc55f2c86203f96bcd24c760541b21a" target="_top" xlink:title="access momentum in global coordinate system">
<polygon fill="none" stroke="#000000" points="341,-550.5 341,-582.5 502,-582.5 502,-550.5 341,-550.5"/>
<text text-anchor="start" x="349" y="-569.5" font-family="FreeSans" font-size="10.00" fill="#000000">Acts::SingleTrackParameters</text>
<text text-anchor="middle" x="421.5" y="-557.5" font-family="FreeSans" font-size="10.00" fill="#000000">::momentum</text>
</a>
</g>
</g>
<!-- Node2&#45;&gt;Node4 -->
<g id="edge3" class="edge">
<title>Node2&#45;&gt;Node4</title>
<path fill="none" stroke="#191970" d="M254.2627,-486.5078C275.0383,-502.2864 308.7802,-526.1944 341,-541.5 344.8664,-543.3367 348.9002,-545.08 353.0126,-546.7274"/>
<polygon fill="#191970" stroke="#191970" points="352.1178,-550.1309 362.7094,-550.3958 354.5947,-543.5838 352.1178,-550.1309"/>
</g>
<!-- Node5 -->
<g id="node5" class="node">
<title>Node5</title>
<g id="a_node5"><a xlink:href="../../d6/d71/classActs_1_1SingleTrackParameters.html#ac1bd158f8d4c527089f160c705339791" target="_top" xlink:title="access position in global coordinate system">
<polygon fill="none" stroke="#000000" points="341,-499.5 341,-531.5 502,-531.5 502,-499.5 341,-499.5"/>
<text text-anchor="start" x="349" y="-518.5" font-family="FreeSans" font-size="10.00" fill="#000000">Acts::SingleTrackParameters</text>
<text text-anchor="middle" x="421.5" y="-506.5" font-family="FreeSans" font-size="10.00" fill="#000000">::position</text>
</a>
</g>
</g>
<!-- Node2&#45;&gt;Node5 -->
<g id="edge4" class="edge">
<title>Node2&#45;&gt;Node5</title>
<path fill="none" stroke="#191970" d="M297.7406,-485.7977C312.8069,-489.4137 329.0292,-493.307 344.6091,-497.0462"/>
<polygon fill="#191970" stroke="#191970" points="344.1953,-500.5462 354.736,-499.4766 345.829,-493.7395 344.1953,-500.5462"/>
</g>
<!-- Node6 -->
<g id="node6" class="node">
<title>Node6</title>
<g id="a_node6"><a xlink:href="../../da/d7b/namespaceActs.html#a9b4dee934b0b193d57604b19bc8cd527" target="_top" xlink:title="get default debug output logger">
<polygon fill="none" stroke="#000000" points="354.5,-460.5 354.5,-480.5 488.5,-480.5 488.5,-460.5 354.5,-460.5"/>
<text text-anchor="middle" x="421.5" y="-467.5" font-family="FreeSans" font-size="10.00" fill="#000000">Acts::getDefaultLogger</text>
</a>
</g>
</g>
<!-- Node2&#45;&gt;Node6 -->
<g id="edge5" class="edge">
<title>Node2&#45;&gt;Node6</title>
<path fill="none" stroke="#191970" d="M297.7406,-470.5C312.7198,-470.5 328.8417,-470.5 344.3389,-470.5"/>
<polygon fill="#191970" stroke="#191970" points="344.4143,-474.0001 354.4143,-470.5 344.4142,-467.0001 344.4143,-474.0001"/>
</g>
<!-- Node7 -->
<g id="node7" class="node">
<title>Node7</title>
<g id="a_node7"><a xlink:href="../../dd/d94/fun4all__tutorials_2blob_2master_2materialscan_2matscan_8C.html#a388f572c62279f839ee138a9afbdeeb5" target="_top" xlink:title="print">
<polygon fill="none" stroke="#000000" points="591.5,-460.5 591.5,-480.5 631.5,-480.5 631.5,-460.5 591.5,-460.5"/>
<text text-anchor="middle" x="611.5" y="-467.5" font-family="FreeSans" font-size="10.00" fill="#000000">print</text>
</a>
</g>
</g>
<!-- Node6&#45;&gt;Node7 -->
<g id="edge6" class="edge">
<title>Node6&#45;&gt;Node7</title>
<path fill="none" stroke="#191970" d="M488.7543,-470.5C520.1853,-470.5 556.058,-470.5 580.8699,-470.5"/>
<polygon fill="#191970" stroke="#191970" points="581.1082,-474.0001 591.1082,-470.5 581.1082,-467.0001 581.1082,-474.0001"/>
</g>
<!-- Node9&#45;&gt;Node3 -->
<g id="edge10" class="edge">
<title>Node9&#45;&gt;Node3</title>
<path fill="none" stroke="#191970" d="M267.9323,-363.6081C279.9108,-369.7024 293.3032,-376.9908 305,-384.5 322.0572,-395.4506 322.7166,-403.7489 341,-412.5 345.5779,-414.6912 350.4261,-416.6394 355.3828,-418.3702"/>
<polygon fill="#191970" stroke="#191970" points="354.4153,-421.7352 365.0059,-421.4369 356.5408,-415.0657 354.4153,-421.7352"/>
</g>
<!-- Node10 -->
<g id="node10" class="node">
<title>Node10</title>
<g id="a_node10"><a xlink:href="../../d7/d8b/classSvtxTrackMap.html#a3ee54a615443da184e8cfb267075fd34" target="_top" xlink:title="SvtxTrackMap::find">
<polygon fill="none" stroke="#000000" points="365.5,-382.5 365.5,-402.5 477.5,-402.5 477.5,-382.5 365.5,-382.5"/>
<text text-anchor="middle" x="421.5" y="-389.5" font-family="FreeSans" font-size="10.00" fill="#000000">SvtxTrackMap::find</text>
</a>
</g>
</g>
<!-- Node9&#45;&gt;Node10 -->
<g id="edge9" class="edge">
<title>Node9&#45;&gt;Node10</title>
<path fill="none" stroke="#191970" d="M297.6354,-363.0358C311.8998,-366.4979 326.9637,-370.1382 341,-373.5 350.0247,-375.6615 359.623,-377.9425 368.9302,-380.1449"/>
<polygon fill="#191970" stroke="#191970" points="368.3374,-383.6011 378.8742,-382.4945 369.9471,-376.7887 368.3374,-383.6011"/>
</g>
<!-- Node11 -->
<g id="node11" class="node">
<title>Node11</title>
<g id="a_node11"><a xlink:href="../../d0/d25/group__cylindrical__calorimeter.html#gabb19fa77925744d525f54a5988be7fac" target="_top" xlink:title="RawTowerGeomContainer\l::get_phibin">
<polygon fill="none" stroke="#000000" points="348,-331.5 348,-363.5 495,-363.5 495,-331.5 348,-331.5"/>
<text text-anchor="start" x="356" y="-350.5" font-family="FreeSans" font-size="10.00" fill="#000000">RawTowerGeomContainer</text>
<text text-anchor="middle" x="421.5" y="-338.5" font-family="FreeSans" font-size="10.00" fill="#000000">::get_phibin</text>
</a>
</g>
</g>
<!-- Node9&#45;&gt;Node11 -->
<g id="edge11" class="edge">
<title>Node9&#45;&gt;Node11</title>
<path fill="none" stroke="#191970" d="M297.7406,-347.5C310.5998,-347.5 324.3012,-347.5 337.7265,-347.5"/>
<polygon fill="#191970" stroke="#191970" points="337.9206,-351.0001 347.9206,-347.5 337.9205,-344.0001 337.9206,-351.0001"/>
</g>
<!-- Node12 -->
<g id="node12" class="node">
<title>Node12</title>
<g id="a_node12"><a xlink:href="../../d0/d25/group__cylindrical__calorimeter.html#ga3ea5ca162fdc4aef33e043a5fe932170" target="_top" xlink:title="RawTowerGeomContainer\l::get_etabin">
<polygon fill="none" stroke="#000000" points="348,-280.5 348,-312.5 495,-312.5 495,-280.5 348,-280.5"/>
<text text-anchor="start" x="356" y="-299.5" font-family="FreeSans" font-size="10.00" fill="#000000">RawTowerGeomContainer</text>
<text text-anchor="middle" x="421.5" y="-287.5" font-family="FreeSans" font-size="10.00" fill="#000000">::get_etabin</text>
</a>
</g>
</g>
<!-- Node9&#45;&gt;Node12 -->
<g id="edge12" class="edge">
<title>Node9&#45;&gt;Node12</title>
<path fill="none" stroke="#191970" d="M293.0688,-331.4333C311.9856,-326.2879 333.0954,-320.546 352.6476,-315.2279"/>
<polygon fill="#191970" stroke="#191970" points="353.6753,-318.5756 362.4061,-312.5736 351.838,-311.821 353.6753,-318.5756"/>
</g>
<!-- Node13 -->
<g id="node13" class="node">
<title>Node13</title>
<g id="a_node13"><a xlink:href="../../d9/df7/classPHActsTrackProjection.html#a7ef985848ea6acbe4bad0ca549bfc929" target="_top" xlink:title="Get 3x3 and 5x5 tower sums matched to a track.">
<polygon fill="none" stroke="#000000" points="347.5,-229.5 347.5,-261.5 495.5,-261.5 495.5,-229.5 347.5,-229.5"/>
<text text-anchor="start" x="355.5" y="-248.5" font-family="FreeSans" font-size="10.00" fill="#000000">PHActsTrackProjection</text>
<text text-anchor="middle" x="421.5" y="-236.5" font-family="FreeSans" font-size="10.00" fill="#000000">::getSquareTowerEnergies</text>
</a>
</g>
</g>
<!-- Node9&#45;&gt;Node13 -->
<g id="edge13" class="edge">
<title>Node9&#45;&gt;Node13</title>
<path fill="none" stroke="#191970" d="M252.9603,-331.2913C273.5015,-314.4117 307.8032,-288.1545 341,-271.5 345.4796,-269.2526 350.1954,-267.1424 355.0048,-265.1727"/>
<polygon fill="#191970" stroke="#191970" points="356.2714,-268.4355 364.3314,-261.5589 353.7423,-261.9084 356.2714,-268.4355"/>
</g>
<!-- Node20 -->
<g id="node20" class="node">
<title>Node20</title>
<g id="a_node20"><a xlink:href="../../d9/df7/classPHActsTrackProjection.html#a36aba00430c09db559035680f7774470" target="_top" xlink:title="Get the cluster values for a particular matched track.">
<polygon fill="none" stroke="#000000" points="358,-76.5 358,-108.5 485,-108.5 485,-76.5 358,-76.5"/>
<text text-anchor="start" x="366" y="-95.5" font-family="FreeSans" font-size="10.00" fill="#000000">PHActsTrackProjection</text>
<text text-anchor="middle" x="421.5" y="-83.5" font-family="FreeSans" font-size="10.00" fill="#000000">::getClusterProperties</text>
</a>
</g>
</g>
<!-- Node9&#45;&gt;Node20 -->
<g id="edge20" class="edge">
<title>Node9&#45;&gt;Node20</title>
<path fill="none" stroke="#191970" d="M246.0142,-331.1607C278.0285,-287.6213 365.5321,-168.6164 403.5119,-116.9638"/>
<polygon fill="#191970" stroke="#191970" points="406.4817,-118.8331 409.5859,-108.7032 400.8421,-114.6864 406.4817,-118.8331"/>
</g>
<!-- Node14 -->
<g id="node14" class="node">
<title>Node14</title>
<g id="a_node14"><a xlink:href="../../df/d28/namespacekdfinder.html#ab72d428625e99a2d7380eb7691c246c7" target="_top" xlink:title="kdfinder::abs">
<polygon fill="none" stroke="#000000" points="570,-345.5 570,-365.5 653,-365.5 653,-345.5 570,-345.5"/>
<text text-anchor="middle" x="611.5" y="-352.5" font-family="FreeSans" font-size="10.00" fill="#000000">kdfinder::abs</text>
</a>
</g>
</g>
<!-- Node13&#45;&gt;Node14 -->
<g id="edge14" class="edge">
<title>Node13&#45;&gt;Node14</title>
<path fill="none" stroke="#191970" d="M486.6295,-261.6152C492.1263,-264.4051 497.351,-267.6731 502,-271.5 527.4966,-292.4878 511.891,-316.2791 538,-336.5 544.5191,-341.5489 552.2416,-345.2649 560.1899,-347.9978"/>
<polygon fill="#191970" stroke="#191970" points="559.35,-351.399 569.9315,-350.8673 561.328,-344.6842 559.35,-351.399"/>
</g>
<!-- Node16 -->
<g id="node16" class="node">
<title>Node16</title>
<g id="a_node16"><a xlink:href="../../d9/dd8/classRawTower.html#ab23195d58fefabd9162115afa96707cc" target="_top" xlink:title="energy assigned to the tower. Depending on stage of process and DST node name, it could be energy dep...">
<polygon fill="none" stroke="#000000" points="546.5,-306.5 546.5,-326.5 676.5,-326.5 676.5,-306.5 546.5,-306.5"/>
<text text-anchor="middle" x="611.5" y="-313.5" font-family="FreeSans" font-size="10.00" fill="#000000">RawTower::get_energy</text>
</a>
</g>
</g>
<!-- Node13&#45;&gt;Node16 -->
<g id="edge16" class="edge">
<title>Node13&#45;&gt;Node16</title>
<path fill="none" stroke="#191970" d="M478.6954,-261.5058C486.6845,-264.448 494.6634,-267.783 502,-271.5 519.6059,-280.4198 520.1368,-289.1073 538,-297.5 542.5796,-299.6516 547.4385,-301.5852 552.3901,-303.3178"/>
<polygon fill="#191970" stroke="#191970" points="551.3859,-306.6713 561.9774,-306.4063 553.5323,-300.0085 551.3859,-306.6713"/>
</g>
<!-- Node17 -->
<g id="node17" class="node">
<title>Node17</title>
<g id="a_node17"><a xlink:href="../../d0/d25/group__cylindrical__calorimeter.html#ga3d283957eb2f3bc0b27e3217d37b8dfb" target="_top" xlink:title="RawTowerGeomContainer\l::get_etabins">
<polygon fill="none" stroke="#000000" points="538,-255.5 538,-287.5 685,-287.5 685,-255.5 538,-255.5"/>
<text text-anchor="start" x="546" y="-274.5" font-family="FreeSans" font-size="10.00" fill="#000000">RawTowerGeomContainer</text>
<text text-anchor="middle" x="611.5" y="-262.5" font-family="FreeSans" font-size="10.00" fill="#000000">::get_etabins</text>
</a>
</g>
</g>
<!-- Node13&#45;&gt;Node17 -->
<g id="edge17" class="edge">
<title>Node13&#45;&gt;Node17</title>
<path fill="none" stroke="#191970" d="M495.503,-255.6267C506.0049,-257.0638 516.8672,-258.5502 527.541,-260.0109"/>
<polygon fill="#191970" stroke="#191970" points="527.3167,-263.5127 537.699,-261.4009 528.2658,-256.5774 527.3167,-263.5127"/>
</g>
<!-- Node18 -->
<g id="node18" class="node">
<title>Node18</title>
<g id="a_node18"><a xlink:href="../../d0/d25/group__cylindrical__calorimeter.html#gab9c3a0fa996fffad8aa107d62d5b26b6" target="_top" xlink:title="RawTowerGeomContainer\l::get_phibins">
<polygon fill="none" stroke="#000000" points="538,-204.5 538,-236.5 685,-236.5 685,-204.5 538,-204.5"/>
<text text-anchor="start" x="546" y="-223.5" font-family="FreeSans" font-size="10.00" fill="#000000">RawTowerGeomContainer</text>
<text text-anchor="middle" x="611.5" y="-211.5" font-family="FreeSans" font-size="10.00" fill="#000000">::get_phibins</text>
</a>
</g>
</g>
<!-- Node13&#45;&gt;Node18 -->
<g id="edge18" class="edge">
<title>Node13&#45;&gt;Node18</title>
<path fill="none" stroke="#191970" d="M495.503,-235.7628C506.0049,-234.3809 516.8672,-232.9517 527.541,-231.5472"/>
<polygon fill="#191970" stroke="#191970" points="528.241,-234.9854 537.699,-230.2107 527.3278,-228.0452 528.241,-234.9854"/>
</g>
<!-- Node19 -->
<g id="node19" class="node">
<title>Node19</title>
<g id="a_node19"><a xlink:href="../../d3/dc7/classRawTowerContainer.html#a94a3368d6cd85ea4c3f204cd1065da26" target="_top" xlink:title="RawTowerContainer::\lgetTower">
<polygon fill="none" stroke="#000000" points="550.5,-153.5 550.5,-185.5 672.5,-185.5 672.5,-153.5 550.5,-153.5"/>
<text text-anchor="start" x="558.5" y="-172.5" font-family="FreeSans" font-size="10.00" fill="#000000">RawTowerContainer::</text>
<text text-anchor="middle" x="611.5" y="-160.5" font-family="FreeSans" font-size="10.00" fill="#000000">getTower</text>
</a>
</g>
</g>
<!-- Node13&#45;&gt;Node19 -->
<g id="edge19" class="edge">
<title>Node13&#45;&gt;Node19</title>
<path fill="none" stroke="#191970" d="M457.1995,-229.4602C480.1284,-219.337 510.6342,-206.1995 538,-195.5 543.4915,-193.3529 549.2424,-191.1837 555.0053,-189.0621"/>
<polygon fill="#191970" stroke="#191970" points="556.4688,-192.2542 564.6717,-185.5487 554.0776,-185.6753 556.4688,-192.2542"/>
</g>
<!-- Node15 -->
<g id="node15" class="node">
<title>Node15</title>
<g id="a_node15"><a xlink:href="../../d8/dc7/classkdfinder_1_1TVector.html#ac9649c7577f12a7502ed523260f4ee90" target="_top" xlink:title="kdfinder::TVector::mag">
<polygon fill="none" stroke="#000000" points="725.5,-345.5 725.5,-365.5 857.5,-365.5 857.5,-345.5 725.5,-345.5"/>
<text text-anchor="middle" x="791.5" y="-352.5" font-family="FreeSans" font-size="10.00" fill="#000000">kdfinder::TVector::mag</text>
</a>
</g>
</g>
<!-- Node14&#45;&gt;Node15 -->
<g id="edge15" class="edge">
<title>Node14&#45;&gt;Node15</title>
<path fill="none" stroke="#191970" d="M653.248,-355.5C671.7172,-355.5 694.0354,-355.5 715.3006,-355.5"/>
<polygon fill="#191970" stroke="#191970" points="715.3054,-359.0001 725.3053,-355.5 715.3053,-352.0001 715.3054,-359.0001"/>
</g>
<!-- Node21 -->
<g id="node21" class="node">
<title>Node21</title>
<g id="a_node21"><a xlink:href="../../d9/df7/classPHActsTrackProjection.html#a1a8e20c735f94cadd9adde9f891fe9fd" target="_top" xlink:title="PHActsTrackProjection\l::deltaPhi">
<polygon fill="none" stroke="#000000" points="548,-102.5 548,-134.5 675,-134.5 675,-102.5 548,-102.5"/>
<text text-anchor="start" x="556" y="-121.5" font-family="FreeSans" font-size="10.00" fill="#000000">PHActsTrackProjection</text>
<text text-anchor="middle" x="611.5" y="-109.5" font-family="FreeSans" font-size="10.00" fill="#000000">::deltaPhi</text>
</a>
</g>
</g>
<!-- Node20&#45;&gt;Node21 -->
<g id="edge21" class="edge">
<title>Node20&#45;&gt;Node21</title>
<path fill="none" stroke="#191970" d="M485.0314,-101.1938C501.8952,-103.5014 520.2504,-106.0132 537.6144,-108.3893"/>
<polygon fill="#191970" stroke="#191970" points="537.3225,-111.8819 547.7047,-109.7701 538.2716,-104.9466 537.3225,-111.8819"/>
</g>
<!-- Node22 -->
<g id="node22" class="node">
<title>Node22</title>
<g id="a_node22"><a xlink:href="../../d6/d12/classRawClusterContainer.html#a0e6e107bd231fd090d5a42cf36db041a" target="_top" xlink:title="RawClusterContainer\l::getClustersMap">
<polygon fill="none" stroke="#000000" points="550,-51.5 550,-83.5 673,-83.5 673,-51.5 550,-51.5"/>
<text text-anchor="start" x="558" y="-70.5" font-family="FreeSans" font-size="10.00" fill="#000000">RawClusterContainer</text>
<text text-anchor="middle" x="611.5" y="-58.5" font-family="FreeSans" font-size="10.00" fill="#000000">::getClustersMap</text>
</a>
</g>
</g>
<!-- Node20&#45;&gt;Node22 -->
<g id="edge22" class="edge">
<title>Node20&#45;&gt;Node22</title>
<path fill="none" stroke="#191970" d="M485.0314,-84.1406C502.6082,-81.8279 521.8052,-79.3019 539.8114,-76.9327"/>
<polygon fill="#191970" stroke="#191970" points="540.5052,-80.3717 549.9631,-75.597 539.592,-73.4315 540.5052,-80.3717"/>
</g>
<!-- Node23 -->
<g id="node23" class="node">
<title>Node23</title>
<g id="a_node23"><a xlink:href="../../d0/d0e/classRawClusterUtility.html#aa3749ddedc2ebe5d12394650d89aa704" target="_top" xlink:title="Pseudorapidity of cluster with respect to given vertex position.">
<polygon fill="none" stroke="#000000" points="556.5,-.5 556.5,-32.5 666.5,-32.5 666.5,-.5 556.5,-.5"/>
<text text-anchor="start" x="564.5" y="-19.5" font-family="FreeSans" font-size="10.00" fill="#000000">RawClusterUtility::</text>
<text text-anchor="middle" x="611.5" y="-7.5" font-family="FreeSans" font-size="10.00" fill="#000000">GetPseudorapidity</text>
</a>
</g>
</g>
<!-- Node20&#45;&gt;Node23 -->
<g id="edge23" class="edge">
<title>Node20&#45;&gt;Node23</title>
<path fill="none" stroke="#191970" d="M456.0985,-76.4341C479.1065,-65.9789 510.1104,-52.3253 538,-41.5 542.7472,-39.6574 547.6941,-37.8141 552.6783,-36.0105"/>
<polygon fill="#191970" stroke="#191970" points="554.0169,-39.2493 562.2667,-32.6016 551.6719,-32.6538 554.0169,-39.2493"/>
</g>
<!-- Node24 -->
<g id="node24" class="node">
<title>Node24</title>
<g id="a_node24"><a xlink:href="../../d6/dc7/group__getters.html#gaf37c34254ebd3a0e62083f517012418b" target="_top" xlink:title="RawCluster::get_position">
<polygon fill="none" stroke="#000000" points="721,-6.5 721,-26.5 862,-26.5 862,-6.5 721,-6.5"/>
<text text-anchor="middle" x="791.5" y="-13.5" font-family="FreeSans" font-size="10.00" fill="#000000">RawCluster::get_position</text>
</a>
</g>
</g>
<!-- Node23&#45;&gt;Node24 -->
<g id="edge24" class="edge">
<title>Node23&#45;&gt;Node24</title>
<path fill="none" stroke="#191970" d="M666.9747,-16.5C680.823,-16.5 695.9567,-16.5 710.7533,-16.5"/>
<polygon fill="#191970" stroke="#191970" points="710.9233,-20.0001 720.9233,-16.5 710.9232,-13.0001 710.9233,-20.0001"/>
</g>
</g>
</svg>
