<?xml version="1.0" encoding="UTF-8" standalone="no"?>
<!DOCTYPE svg PUBLIC "-//W3C//DTD SVG 1.1//EN"
 "http://www.w3.org/Graphics/SVG/1.1/DTD/svg11.dtd">
<!-- Generated by graphviz version 2.40.1 (20161225.0304)
 -->
<!-- Title: PHActsTrackProjection::updateSvtxTrack Pages: 1 -->
<svg width="679pt" height="413pt"
 viewBox="0.00 0.00 679.00 413.00" xmlns="http://www.w3.org/2000/svg" xmlns:xlink="http://www.w3.org/1999/xlink">
<g id="graph0" class="graph" transform="scale(1 1) rotate(0) translate(4 409)">
<title>PHActsTrackProjection::updateSvtxTrack</title>
<!-- Node1 -->
<g id="node1" class="node">
<title>Node1</title>
<polygon fill="#bfbfbf" stroke="#000000" points="0,-256.5 0,-288.5 127,-288.5 127,-256.5 0,-256.5"/>
<text text-anchor="start" x="8" y="-275.5" font-family="FreeSans" font-size="10.00" fill="#000000">PHActsTrackProjection</text>
<text text-anchor="middle" x="63.5" y="-263.5" font-family="FreeSans" font-size="10.00" fill="#000000">::updateSvtxTrack</text>
</g>
<!-- Node2 -->
<g id="node2" class="node">
<title>Node2</title>
<g id="a_node2"><a xlink:href="../../d7/d8b/classSvtxTrackMap.html#a3ee54a615443da184e8cfb267075fd34" target="_top" xlink:title="SvtxTrackMap::find">
<polygon fill="none" stroke="#000000" points="181,-384.5 181,-404.5 293,-404.5 293,-384.5 181,-384.5"/>
<text text-anchor="middle" x="237" y="-391.5" font-family="FreeSans" font-size="10.00" fill="#000000">SvtxTrackMap::find</text>
</a>
</g>
</g>
<!-- Node1&#45;&gt;Node2 -->
<g id="edge1" class="edge">
<title>Node1&#45;&gt;Node2</title>
<path fill="none" stroke="#191970" d="M74.65,-288.7744C91.214,-311.6776 124.5338,-353.1166 163,-375.5 166.3855,-377.47 169.9747,-379.2384 173.6755,-380.8254"/>
<polygon fill="#191970" stroke="#191970" points="172.4615,-384.1083 183.0521,-384.4082 174.9601,-377.5694 172.4615,-384.1083"/>
</g>
<!-- Node3 -->
<g id="node3" class="node">
<title>Node3</title>
<g id="a_node3"><a xlink:href="../../d0/d25/group__cylindrical__calorimeter.html#ga3ea5ca162fdc4aef33e043a5fe932170" target="_top" xlink:title="RawTowerGeomContainer\l::get_etabin">
<polygon fill="none" stroke="#000000" points="163.5,-333.5 163.5,-365.5 310.5,-365.5 310.5,-333.5 163.5,-333.5"/>
<text text-anchor="start" x="171.5" y="-352.5" font-family="FreeSans" font-size="10.00" fill="#000000">RawTowerGeomContainer</text>
<text text-anchor="middle" x="237" y="-340.5" font-family="FreeSans" font-size="10.00" fill="#000000">::get_etabin</text>
</a>
</g>
</g>
<!-- Node1&#45;&gt;Node3 -->
<g id="edge2" class="edge">
<title>Node1&#45;&gt;Node3</title>
<path fill="none" stroke="#191970" d="M91.6655,-288.7248C111.2833,-299.6491 138.2644,-313.9343 163,-324.5 167.3686,-326.366 171.9273,-328.1895 176.5422,-329.9471"/>
<polygon fill="#191970" stroke="#191970" points="175.4577,-333.2775 186.0511,-333.4549 177.8804,-326.7101 175.4577,-333.2775"/>
</g>
<!-- Node4 -->
<g id="node4" class="node">
<title>Node4</title>
<g id="a_node4"><a xlink:href="../../d0/d25/group__cylindrical__calorimeter.html#gabb19fa77925744d525f54a5988be7fac" target="_top" xlink:title="RawTowerGeomContainer\l::get_phibin">
<polygon fill="none" stroke="#000000" points="163.5,-282.5 163.5,-314.5 310.5,-314.5 310.5,-282.5 163.5,-282.5"/>
<text text-anchor="start" x="171.5" y="-301.5" font-family="FreeSans" font-size="10.00" fill="#000000">RawTowerGeomContainer</text>
<text text-anchor="middle" x="237" y="-289.5" font-family="FreeSans" font-size="10.00" fill="#000000">::get_phibin</text>
</a>
</g>
</g>
<!-- Node1&#45;&gt;Node4 -->
<g id="edge3" class="edge">
<title>Node1&#45;&gt;Node4</title>
<path fill="none" stroke="#191970" d="M127.1198,-282.0338C135.6925,-283.3185 144.5902,-284.6519 153.4436,-285.9786"/>
<polygon fill="#191970" stroke="#191970" points="152.9924,-289.45 163.4007,-287.4707 154.0299,-282.5273 152.9924,-289.45"/>
</g>
<!-- Node5 -->
<g id="node5" class="node">
<title>Node5</title>
<g id="a_node5"><a xlink:href="../../d9/df7/classPHActsTrackProjection.html#a36aba00430c09db559035680f7774470" target="_top" xlink:title="Get the cluster values for a particular matched track.">
<polygon fill="none" stroke="#000000" points="173.5,-231.5 173.5,-263.5 300.5,-263.5 300.5,-231.5 173.5,-231.5"/>
<text text-anchor="start" x="181.5" y="-250.5" font-family="FreeSans" font-size="10.00" fill="#000000">PHActsTrackProjection</text>
<text text-anchor="middle" x="237" y="-238.5" font-family="FreeSans" font-size="10.00" fill="#000000">::getClusterProperties</text>
</a>
</g>
</g>
<!-- Node1&#45;&gt;Node5 -->
<g id="edge4" class="edge">
<title>Node1&#45;&gt;Node5</title>
<path fill="none" stroke="#191970" d="M127.1198,-263.3329C138.9067,-261.6345 151.3081,-259.8475 163.3636,-258.1104"/>
<polygon fill="#191970" stroke="#191970" points="163.9893,-261.5565 173.3879,-256.666 162.9909,-254.6281 163.9893,-261.5565"/>
</g>
<!-- Node10 -->
<g id="node10" class="node">
<title>Node10</title>
<g id="a_node10"><a xlink:href="../../d9/df7/classPHActsTrackProjection.html#a7ef985848ea6acbe4bad0ca549bfc929" target="_top" xlink:title="Get 3x3 and 5x5 tower sums matched to a track.">
<polygon fill="none" stroke="#000000" points="163,-147.5 163,-179.5 311,-179.5 311,-147.5 163,-147.5"/>
<text text-anchor="start" x="171" y="-166.5" font-family="FreeSans" font-size="10.00" fill="#000000">PHActsTrackProjection</text>
<text text-anchor="middle" x="237" y="-154.5" font-family="FreeSans" font-size="10.00" fill="#000000">::getSquareTowerEnergies</text>
</a>
</g>
</g>
<!-- Node1&#45;&gt;Node10 -->
<g id="edge9" class="edge">
<title>Node1&#45;&gt;Node10</title>
<path fill="none" stroke="#191970" d="M89.1005,-256.4167C119.2127,-237.4989 169.3249,-206.0163 202.7574,-185.0126"/>
<polygon fill="#191970" stroke="#191970" points="204.6887,-187.9327 211.2944,-179.6493 200.9649,-182.0054 204.6887,-187.9327"/>
</g>
<!-- Node17 -->
<g id="node17" class="node">
<title>Node17</title>
<g id="a_node17"><a xlink:href="../../d5/dec/classFun4AllBase.html#a8a5c77a92bdac6bc043476e132379a40" target="_top" xlink:title="Gets the verbosity of this module.">
<polygon fill="none" stroke="#000000" points="171,-108.5 171,-128.5 303,-128.5 303,-108.5 171,-108.5"/>
<text text-anchor="middle" x="237" y="-115.5" font-family="FreeSans" font-size="10.00" fill="#000000">Fun4AllBase::Verbosity</text>
</a>
</g>
</g>
<!-- Node1&#45;&gt;Node17 -->
<g id="edge16" class="edge">
<title>Node1&#45;&gt;Node17</title>
<path fill="none" stroke="#191970" d="M71.0783,-256.1046C85.0757,-227.6772 117.7398,-169.3332 163,-138.5 166.3081,-136.2463 169.8605,-134.2462 173.5539,-132.471"/>
<polygon fill="#191970" stroke="#191970" points="175.1099,-135.6135 182.9668,-128.5058 172.3923,-129.1625 175.1099,-135.6135"/>
</g>
<!-- Node6 -->
<g id="node6" class="node">
<title>Node6</title>
<g id="a_node6"><a xlink:href="../../d9/df7/classPHActsTrackProjection.html#a1a8e20c735f94cadd9adde9f891fe9fd" target="_top" xlink:title="PHActsTrackProjection\l::deltaPhi">
<polygon fill="none" stroke="#000000" points="357,-333.5 357,-365.5 484,-365.5 484,-333.5 357,-333.5"/>
<text text-anchor="start" x="365" y="-352.5" font-family="FreeSans" font-size="10.00" fill="#000000">PHActsTrackProjection</text>
<text text-anchor="middle" x="420.5" y="-340.5" font-family="FreeSans" font-size="10.00" fill="#000000">::deltaPhi</text>
</a>
</g>
</g>
<!-- Node5&#45;&gt;Node6 -->
<g id="edge5" class="edge">
<title>Node5&#45;&gt;Node6</title>
<path fill="none" stroke="#191970" d="M294.6013,-263.6608C300.411,-266.4657 306.0021,-269.7241 311,-273.5 333.1374,-290.2246 324.7791,-307.8865 347,-324.5 348.8419,-325.8771 350.7647,-327.1816 352.7496,-328.4173"/>
<polygon fill="#191970" stroke="#191970" points="351.3438,-331.6389 361.7906,-333.4041 354.7247,-325.5095 351.3438,-331.6389"/>
</g>
<!-- Node7 -->
<g id="node7" class="node">
<title>Node7</title>
<g id="a_node7"><a xlink:href="../../d6/d12/classRawClusterContainer.html#a0e6e107bd231fd090d5a42cf36db041a" target="_top" xlink:title="RawClusterContainer\l::getClustersMap">
<polygon fill="none" stroke="#000000" points="359,-282.5 359,-314.5 482,-314.5 482,-282.5 359,-282.5"/>
<text text-anchor="start" x="367" y="-301.5" font-family="FreeSans" font-size="10.00" fill="#000000">RawClusterContainer</text>
<text text-anchor="middle" x="420.5" y="-289.5" font-family="FreeSans" font-size="10.00" fill="#000000">::getClustersMap</text>
</a>
</g>
</g>
<!-- Node5&#45;&gt;Node7 -->
<g id="edge6" class="edge">
<title>Node5&#45;&gt;Node7</title>
<path fill="none" stroke="#191970" d="M294.8087,-263.5667C313.2374,-268.6886 333.7928,-274.4015 352.8542,-279.6993"/>
<polygon fill="#191970" stroke="#191970" points="352.0947,-283.1208 362.6667,-282.4264 353.9692,-276.3764 352.0947,-283.1208"/>
</g>
<!-- Node8 -->
<g id="node8" class="node">
<title>Node8</title>
<g id="a_node8"><a xlink:href="../../d0/d0e/classRawClusterUtility.html#aa3749ddedc2ebe5d12394650d89aa704" target="_top" xlink:title="Pseudorapidity of cluster with respect to given vertex position.">
<polygon fill="none" stroke="#000000" points="365.5,-231.5 365.5,-263.5 475.5,-263.5 475.5,-231.5 365.5,-231.5"/>
<text text-anchor="start" x="373.5" y="-250.5" font-family="FreeSans" font-size="10.00" fill="#000000">RawClusterUtility::</text>
<text text-anchor="middle" x="420.5" y="-238.5" font-family="FreeSans" font-size="10.00" fill="#000000">GetPseudorapidity</text>
</a>
</g>
</g>
<!-- Node5&#45;&gt;Node8 -->
<g id="edge7" class="edge">
<title>Node5&#45;&gt;Node8</title>
<path fill="none" stroke="#191970" d="M300.6644,-247.5C318.2303,-247.5 337.3161,-247.5 354.9848,-247.5"/>
<polygon fill="#191970" stroke="#191970" points="355.2019,-251.0001 365.2019,-247.5 355.2019,-244.0001 355.2019,-251.0001"/>
</g>
<!-- Node9 -->
<g id="node9" class="node">
<title>Node9</title>
<g id="a_node9"><a xlink:href="../../d6/dc7/group__getters.html#gaf37c34254ebd3a0e62083f517012418b" target="_top" xlink:title="RawCluster::get_position">
<polygon fill="none" stroke="#000000" points="530,-237.5 530,-257.5 671,-257.5 671,-237.5 530,-237.5"/>
<text text-anchor="middle" x="600.5" y="-244.5" font-family="FreeSans" font-size="10.00" fill="#000000">RawCluster::get_position</text>
</a>
</g>
</g>
<!-- Node8&#45;&gt;Node9 -->
<g id="edge8" class="edge">
<title>Node8&#45;&gt;Node9</title>
<path fill="none" stroke="#191970" d="M475.9747,-247.5C489.823,-247.5 504.9567,-247.5 519.7533,-247.5"/>
<polygon fill="#191970" stroke="#191970" points="519.9233,-251.0001 529.9233,-247.5 519.9232,-244.0001 519.9233,-251.0001"/>
</g>
<!-- Node11 -->
<g id="node11" class="node">
<title>Node11</title>
<g id="a_node11"><a xlink:href="../../df/d28/namespacekdfinder.html#ab72d428625e99a2d7380eb7691c246c7" target="_top" xlink:title="kdfinder::abs">
<polygon fill="none" stroke="#000000" points="379,-192.5 379,-212.5 462,-212.5 462,-192.5 379,-192.5"/>
<text text-anchor="middle" x="420.5" y="-199.5" font-family="FreeSans" font-size="10.00" fill="#000000">kdfinder::abs</text>
</a>
</g>
</g>
<!-- Node10&#45;&gt;Node11 -->
<g id="edge10" class="edge">
<title>Node10&#45;&gt;Node11</title>
<path fill="none" stroke="#191970" d="M311.1075,-179.2504C330.4884,-183.3695 350.9607,-187.7205 368.887,-191.5305"/>
<polygon fill="#191970" stroke="#191970" points="368.3303,-194.9903 378.8395,-193.6457 369.7856,-188.1432 368.3303,-194.9903"/>
</g>
<!-- Node13 -->
<g id="node13" class="node">
<title>Node13</title>
<g id="a_node13"><a xlink:href="../../d9/dd8/classRawTower.html#ab23195d58fefabd9162115afa96707cc" target="_top" xlink:title="energy assigned to the tower. Depending on stage of process and DST node name, it could be energy dep...">
<polygon fill="none" stroke="#000000" points="355.5,-153.5 355.5,-173.5 485.5,-173.5 485.5,-153.5 355.5,-153.5"/>
<text text-anchor="middle" x="420.5" y="-160.5" font-family="FreeSans" font-size="10.00" fill="#000000">RawTower::get_energy</text>
</a>
</g>
</g>
<!-- Node10&#45;&gt;Node13 -->
<g id="edge12" class="edge">
<title>Node10&#45;&gt;Node13</title>
<path fill="none" stroke="#191970" d="M311.1075,-163.5C322.3024,-163.5 333.8615,-163.5 345.0837,-163.5"/>
<polygon fill="#191970" stroke="#191970" points="345.275,-167.0001 355.275,-163.5 345.2749,-160.0001 345.275,-167.0001"/>
</g>
<!-- Node14 -->
<g id="node14" class="node">
<title>Node14</title>
<g id="a_node14"><a xlink:href="../../d0/d25/group__cylindrical__calorimeter.html#ga3d283957eb2f3bc0b27e3217d37b8dfb" target="_top" xlink:title="RawTowerGeomContainer\l::get_etabins">
<polygon fill="none" stroke="#000000" points="347,-102.5 347,-134.5 494,-134.5 494,-102.5 347,-102.5"/>
<text text-anchor="start" x="355" y="-121.5" font-family="FreeSans" font-size="10.00" fill="#000000">RawTowerGeomContainer</text>
<text text-anchor="middle" x="420.5" y="-109.5" font-family="FreeSans" font-size="10.00" fill="#000000">::get_etabins</text>
</a>
</g>
</g>
<!-- Node10&#45;&gt;Node14 -->
<g id="edge13" class="edge">
<title>Node10&#45;&gt;Node14</title>
<path fill="none" stroke="#191970" d="M302.4706,-147.4445C316.3528,-144.0402 331.1117,-140.4208 345.322,-136.936"/>
<polygon fill="#191970" stroke="#191970" points="346.1761,-140.3304 355.0547,-134.5493 344.5088,-133.5318 346.1761,-140.3304"/>
</g>
<!-- Node15 -->
<g id="node15" class="node">
<title>Node15</title>
<g id="a_node15"><a xlink:href="../../d0/d25/group__cylindrical__calorimeter.html#gab9c3a0fa996fffad8aa107d62d5b26b6" target="_top" xlink:title="RawTowerGeomContainer\l::get_phibins">
<polygon fill="none" stroke="#000000" points="347,-51.5 347,-83.5 494,-83.5 494,-51.5 347,-51.5"/>
<text text-anchor="start" x="355" y="-70.5" font-family="FreeSans" font-size="10.00" fill="#000000">RawTowerGeomContainer</text>
<text text-anchor="middle" x="420.5" y="-58.5" font-family="FreeSans" font-size="10.00" fill="#000000">::get_phibins</text>
</a>
</g>
</g>
<!-- Node10&#45;&gt;Node15 -->
<g id="edge14" class="edge">
<title>Node10&#45;&gt;Node15</title>
<path fill="none" stroke="#191970" d="M295.5184,-147.3257C300.9641,-144.7714 306.2237,-141.8448 311,-138.5 331.9796,-123.808 326.1253,-108.3407 347,-93.5 349.6476,-91.6177 352.4447,-89.8599 355.3401,-88.2197"/>
<polygon fill="#191970" stroke="#191970" points="356.9655,-91.3196 364.2698,-83.6451 353.7739,-85.0895 356.9655,-91.3196"/>
</g>
<!-- Node16 -->
<g id="node16" class="node">
<title>Node16</title>
<g id="a_node16"><a xlink:href="../../d3/dc7/classRawTowerContainer.html#a94a3368d6cd85ea4c3f204cd1065da26" target="_top" xlink:title="RawTowerContainer::\lgetTower">
<polygon fill="none" stroke="#000000" points="359.5,-.5 359.5,-32.5 481.5,-32.5 481.5,-.5 359.5,-.5"/>
<text text-anchor="start" x="367.5" y="-19.5" font-family="FreeSans" font-size="10.00" fill="#000000">RawTowerContainer::</text>
<text text-anchor="middle" x="420.5" y="-7.5" font-family="FreeSans" font-size="10.00" fill="#000000">getTower</text>
</a>
</g>
</g>
<!-- Node10&#45;&gt;Node16 -->
<g id="edge15" class="edge">
<title>Node10&#45;&gt;Node16</title>
<path fill="none" stroke="#191970" d="M299.2483,-147.3651C303.5066,-144.8288 307.4916,-141.8946 311,-138.5 343.7482,-106.8141 314.4776,-74.4177 347,-42.5 348.449,-41.0779 349.9806,-39.7332 351.5801,-38.4617"/>
<polygon fill="#191970" stroke="#191970" points="353.7673,-41.2072 360.0753,-32.6948 349.8357,-35.4156 353.7673,-41.2072"/>
</g>
<!-- Node12 -->
<g id="node12" class="node">
<title>Node12</title>
<g id="a_node12"><a xlink:href="../../d8/dc7/classkdfinder_1_1TVector.html#ac9649c7577f12a7502ed523260f4ee90" target="_top" xlink:title="kdfinder::TVector::mag">
<polygon fill="none" stroke="#000000" points="534.5,-192.5 534.5,-212.5 666.5,-212.5 666.5,-192.5 534.5,-192.5"/>
<text text-anchor="middle" x="600.5" y="-199.5" font-family="FreeSans" font-size="10.00" fill="#000000">kdfinder::TVector::mag</text>
</a>
</g>
</g>
<!-- Node11&#45;&gt;Node12 -->
<g id="edge11" class="edge">
<title>Node11&#45;&gt;Node12</title>
<path fill="none" stroke="#191970" d="M462.248,-202.5C480.7172,-202.5 503.0354,-202.5 524.3006,-202.5"/>
<polygon fill="#191970" stroke="#191970" points="524.3054,-206.0001 534.3053,-202.5 524.3053,-199.0001 524.3054,-206.0001"/>
</g>
</g>
</svg>
