<?xml version="1.0" encoding="UTF-8" standalone="no"?>
<!DOCTYPE svg PUBLIC "-//W3C//DTD SVG 1.1//EN"
 "http://www.w3.org/Graphics/SVG/1.1/DTD/svg11.dtd">
<!-- Generated by graphviz version 2.40.1 (20161225.0304)
 -->
<!-- Title: RawTowerBuilderByHitIndex::Detector Pages: 1 -->
<svg width="508pt" height="314pt"
 viewBox="0.00 0.00 508.00 314.00" xmlns="http://www.w3.org/2000/svg" xmlns:xlink="http://www.w3.org/1999/xlink">
<g id="graph0" class="graph" transform="scale(1 1) rotate(0) translate(4 310)">
<title>RawTowerBuilderByHitIndex::Detector</title>
<!-- Node1 -->
<g id="node1" class="node">
<title>Node1</title>
<polygon fill="#bfbfbf" stroke="#000000" points="0,-189.5 0,-221.5 158,-221.5 158,-189.5 0,-189.5"/>
<text text-anchor="start" x="8" y="-208.5" font-family="FreeSans" font-size="10.00" fill="#000000">RawTowerBuilderByHitIndex</text>
<text text-anchor="middle" x="79" y="-196.5" font-family="FreeSans" font-size="10.00" fill="#000000">::Detector</text>
</g>
<!-- Node2 -->
<g id="node2" class="node">
<title>Node2</title>
<g id="a_node2"><a xlink:href="../../d1/d38/G4__EEMC_8C.html#ae43087ab7243886fd6bfb2317e66b8f8" target="_top" xlink:title="EEMC_Towers">
<polygon fill="none" stroke="#000000" points="196.5,-234.5 196.5,-254.5 280.5,-254.5 280.5,-234.5 196.5,-234.5"/>
<text text-anchor="middle" x="238.5" y="-241.5" font-family="FreeSans" font-size="10.00" fill="#000000">EEMC_Towers</text>
</a>
</g>
</g>
<!-- Node1&#45;&gt;Node2 -->
<g id="edge1" class="edge">
<title>Node1&#45;&gt;Node2</title>
<path fill="none" stroke="#191970" d="M154.9126,-224.0617C169.6018,-227.6534 184.4649,-231.2877 197.5025,-234.4755"/>
<polygon fill="#191970" stroke="#191970" points="155.3408,-220.5634 144.7956,-221.588 153.6781,-227.363 155.3408,-220.5634"/>
</g>
<!-- Node7 -->
<g id="node7" class="node">
<title>Node7</title>
<g id="a_node7"><a xlink:href="../../d5/dcb/G4__FEMC_8C.html#a37870ea058f742c5781605adc3f26351" target="_top" xlink:title="FEMC_Towers">
<polygon fill="none" stroke="#000000" points="196.5,-156.5 196.5,-176.5 280.5,-176.5 280.5,-156.5 196.5,-156.5"/>
<text text-anchor="middle" x="238.5" y="-163.5" font-family="FreeSans" font-size="10.00" fill="#000000">FEMC_Towers</text>
</a>
</g>
</g>
<!-- Node1&#45;&gt;Node7 -->
<g id="edge6" class="edge">
<title>Node1&#45;&gt;Node7</title>
<path fill="none" stroke="#191970" d="M154.9126,-186.9383C169.6018,-183.3466 184.4649,-179.7123 197.5025,-176.5245"/>
<polygon fill="#191970" stroke="#191970" points="153.6781,-183.637 144.7956,-189.412 155.3408,-190.4366 153.6781,-183.637"/>
</g>
<!-- Node12 -->
<g id="node12" class="node">
<title>Node12</title>
<g id="a_node12"><a xlink:href="../../d8/dc2/G4__FHCAL_8C.html#a5f1ca848bb646ae2152be3573d5bf72c" target="_top" xlink:title="FHCAL_Towers">
<polygon fill="none" stroke="#000000" points="194,-195.5 194,-215.5 283,-215.5 283,-195.5 194,-195.5"/>
<text text-anchor="middle" x="238.5" y="-202.5" font-family="FreeSans" font-size="10.00" fill="#000000">FHCAL_Towers</text>
</a>
</g>
</g>
<!-- Node1&#45;&gt;Node12 -->
<g id="edge15" class="edge">
<title>Node1&#45;&gt;Node12</title>
<path fill="none" stroke="#191970" d="M168.5517,-205.5C177.2591,-205.5 185.8082,-205.5 193.7753,-205.5"/>
<polygon fill="#191970" stroke="#191970" points="168.2828,-202.0001 158.2827,-205.5 168.2827,-209.0001 168.2828,-202.0001"/>
</g>
<!-- Node3 -->
<g id="node3" class="node">
<title>Node3</title>
<g id="a_node3"><a xlink:href="../../d6/d79/fun4all__eic__qa_2blob_2master_2macros_2Fun4All__G4__EICDetector_8C.html#a3e8b2c9290dae13dd57b23d543df2fd5" target="_top" xlink:title="Fun4All_G4_EICDetector">
<polygon fill="none" stroke="#000000" points="340,-195.5 340,-215.5 479,-215.5 479,-195.5 340,-195.5"/>
<text text-anchor="middle" x="409.5" y="-202.5" font-family="FreeSans" font-size="10.00" fill="#000000">Fun4All_G4_EICDetector</text>
</a>
</g>
</g>
<!-- Node2&#45;&gt;Node3 -->
<g id="edge2" class="edge">
<title>Node2&#45;&gt;Node3</title>
<path fill="none" stroke="#191970" d="M290.4153,-232.1317C299.9186,-229.9004 309.7531,-227.6129 319,-225.5 333.4317,-222.2024 349.1787,-218.6919 363.4318,-215.5475"/>
<polygon fill="#191970" stroke="#191970" points="289.6016,-228.7275 280.6704,-234.427 291.2065,-235.5411 289.6016,-228.7275"/>
</g>
<!-- Node4 -->
<g id="node4" class="node">
<title>Node4</title>
<g id="a_node4"><a xlink:href="../../d5/d97/Fun4All__G4__FullDetectorModular_8C.html#a3718da6a9c8edc72f231ee413c514dad" target="_top" xlink:title="Fun4All_G4_FullDetectorModular">
<polygon fill="none" stroke="#000000" points="319,-156.5 319,-176.5 500,-176.5 500,-156.5 319,-156.5"/>
<text text-anchor="middle" x="409.5" y="-163.5" font-family="FreeSans" font-size="10.00" fill="#000000">Fun4All_G4_FullDetectorModular</text>
</a>
</g>
</g>
<!-- Node2&#45;&gt;Node4 -->
<g id="edge3" class="edge">
<title>Node2&#45;&gt;Node4</title>
<path fill="none" stroke="#191970" d="M276.3542,-229.6993C278.662,-228.3834 280.8979,-226.9832 283,-225.5 302.2743,-211.9006 298.5458,-198.2504 319,-186.5 326.1158,-182.4122 333.9881,-179.1594 342.0332,-176.571"/>
<polygon fill="#191970" stroke="#191970" points="274.5467,-226.6921 267.2289,-234.3537 277.7273,-232.9278 274.5467,-226.6921"/>
</g>
<!-- Node5 -->
<g id="node5" class="node">
<title>Node5</title>
<g id="a_node5"><a xlink:href="../../d0/dce/Fun4All__G4__FullDetectorModularBeast_8C.html#a0f10ba4ce157df87369cfd776fc132d3" target="_top" xlink:title="Fun4All_G4_FullDetectorModular\lBeast">
<polygon fill="none" stroke="#000000" points="319,-273.5 319,-305.5 500,-305.5 500,-273.5 319,-273.5"/>
<text text-anchor="start" x="327" y="-292.5" font-family="FreeSans" font-size="10.00" fill="#000000">Fun4All_G4_FullDetectorModular</text>
<text text-anchor="middle" x="409.5" y="-280.5" font-family="FreeSans" font-size="10.00" fill="#000000">Beast</text>
</a>
</g>
</g>
<!-- Node2&#45;&gt;Node5 -->
<g id="edge4" class="edge">
<title>Node2&#45;&gt;Node5</title>
<path fill="none" stroke="#191970" d="M286.5995,-257.1578C305.7919,-262.2084 328.1158,-268.0831 348.4309,-273.4292"/>
<polygon fill="#191970" stroke="#191970" points="287.4372,-253.7591 276.8757,-254.5989 285.6557,-260.5286 287.4372,-253.7591"/>
</g>
<!-- Node6 -->
<g id="node6" class="node">
<title>Node6</title>
<g id="a_node6"><a xlink:href="../../d9/d18/Fun4All__G4__LBLDetector_8C.html#acc03ebe198962a7abb94f5c42641bfc9" target="_top" xlink:title="Fun4All_G4_LBLDetector">
<polygon fill="none" stroke="#000000" points="339.5,-234.5 339.5,-254.5 479.5,-254.5 479.5,-234.5 339.5,-234.5"/>
<text text-anchor="middle" x="409.5" y="-241.5" font-family="FreeSans" font-size="10.00" fill="#000000">Fun4All_G4_LBLDetector</text>
</a>
</g>
</g>
<!-- Node2&#45;&gt;Node6 -->
<g id="edge5" class="edge">
<title>Node2&#45;&gt;Node6</title>
<path fill="none" stroke="#191970" d="M291.0521,-244.5C306.3298,-244.5 323.2645,-244.5 339.437,-244.5"/>
<polygon fill="#191970" stroke="#191970" points="290.7697,-241.0001 280.7697,-244.5 290.7696,-248.0001 290.7697,-241.0001"/>
</g>
<!-- Node7&#45;&gt;Node3 -->
<g id="edge9" class="edge">
<title>Node7&#45;&gt;Node3</title>
<path fill="none" stroke="#191970" d="M287.4943,-178.976C297.8793,-181.5353 308.7882,-184.1603 319,-186.5 332.3015,-189.5476 346.7472,-192.666 360.1107,-195.4723"/>
<polygon fill="#191970" stroke="#191970" points="288.2866,-175.5665 277.7378,-176.5538 286.5999,-182.3602 288.2866,-175.5665"/>
</g>
<!-- Node7&#45;&gt;Node4 -->
<g id="edge11" class="edge">
<title>Node7&#45;&gt;Node4</title>
<path fill="none" stroke="#191970" d="M290.9339,-166.5C299.8382,-166.5 309.3081,-166.5 318.8638,-166.5"/>
<polygon fill="#191970" stroke="#191970" points="290.7697,-163.0001 280.7697,-166.5 290.7696,-170.0001 290.7697,-163.0001"/>
</g>
<!-- Node7&#45;&gt;Node5 -->
<g id="edge12" class="edge">
<title>Node7&#45;&gt;Node5</title>
<path fill="none" stroke="#191970" d="M277.7572,-182.0459C279.6221,-183.4197 281.3861,-184.9022 283,-186.5 310.1329,-213.3623 289.8952,-239.7879 319,-264.5 322.9762,-267.876 327.3723,-270.7987 332.0214,-273.3286"/>
<polygon fill="#191970" stroke="#191970" points="279.4354,-178.9688 269.0868,-176.6979 275.7606,-184.9266 279.4354,-178.9688"/>
</g>
<!-- Node7&#45;&gt;Node6 -->
<g id="edge13" class="edge">
<title>Node7&#45;&gt;Node6</title>
<path fill="none" stroke="#191970" d="M274.9386,-181.3723C277.7463,-182.9672 280.4693,-184.6785 283,-186.5 302.1453,-200.2805 298.4841,-213.8578 319,-225.5 325.4229,-229.1448 332.4596,-232.0932 339.6821,-234.4778"/>
<polygon fill="#191970" stroke="#191970" points="276.3076,-178.1407 265.8138,-176.681 273.1069,-184.3661 276.3076,-178.1407"/>
</g>
<!-- Node8 -->
<g id="node8" class="node">
<title>Node8</title>
<g id="a_node8"><a xlink:href="../../db/dc0/Fun4All__AnaTutorial_8C.html#aeb927fc74810ef9bc0c056302f1fbe69" target="_top" xlink:title="Fun4All_AnaTutorial">
<polygon fill="none" stroke="#000000" points="352,-78.5 352,-98.5 467,-98.5 467,-78.5 352,-78.5"/>
<text text-anchor="middle" x="409.5" y="-85.5" font-family="FreeSans" font-size="10.00" fill="#000000">Fun4All_AnaTutorial</text>
</a>
</g>
</g>
<!-- Node7&#45;&gt;Node8 -->
<g id="edge7" class="edge">
<title>Node7&#45;&gt;Node8</title>
<path fill="none" stroke="#191970" d="M257.0775,-149.7119C272.5701,-136.592 295.7858,-118.8926 319,-108.5 329.2804,-103.8976 340.7053,-100.3168 351.88,-97.543"/>
<polygon fill="#191970" stroke="#191970" points="254.5693,-147.2545 249.3141,-156.4541 259.1593,-152.5396 254.5693,-147.2545"/>
</g>
<!-- Node9 -->
<g id="node9" class="node">
<title>Node9</title>
<g id="a_node9"><a xlink:href="../../dd/d28/Fun4All__AnaTutorial__Jets_8C.html#a49f0c60dbca7146b42abc2eedf173722" target="_top" xlink:title="Fun4All_AnaTutorial_Jets">
<polygon fill="none" stroke="#000000" points="340,-39.5 340,-59.5 479,-59.5 479,-39.5 340,-39.5"/>
<text text-anchor="middle" x="409.5" y="-46.5" font-family="FreeSans" font-size="10.00" fill="#000000">Fun4All_AnaTutorial_Jets</text>
</a>
</g>
</g>
<!-- Node7&#45;&gt;Node9 -->
<g id="edge8" class="edge">
<title>Node7&#45;&gt;Node9</title>
<path fill="none" stroke="#191970" d="M248.8458,-147.2672C262.0365,-124.6949 287.0184,-87.8901 319,-68.5 325.4523,-64.588 332.5858,-61.4721 339.933,-58.9917"/>
<polygon fill="#191970" stroke="#191970" points="245.6433,-145.8208 243.78,-156.2505 251.7407,-149.2592 245.6433,-145.8208"/>
</g>
<!-- Node10 -->
<g id="node10" class="node">
<title>Node10</title>
<g id="a_node10"><a xlink:href="../../d7/d9e/Fun4All__G4__fsPHENIX_8C.html#a75e8ef26e92f882a865536a3e16244c5" target="_top" xlink:title="Fun4All_G4_fsPHENIX">
<polygon fill="none" stroke="#000000" points="347.5,-117.5 347.5,-137.5 471.5,-137.5 471.5,-117.5 347.5,-117.5"/>
<text text-anchor="middle" x="409.5" y="-124.5" font-family="FreeSans" font-size="10.00" fill="#000000">Fun4All_G4_fsPHENIX</text>
</a>
</g>
</g>
<!-- Node7&#45;&gt;Node10 -->
<g id="edge10" class="edge">
<title>Node7&#45;&gt;Node10</title>
<path fill="none" stroke="#191970" d="M290.4153,-154.1317C299.9186,-151.9004 309.7531,-149.6129 319,-147.5 333.4317,-144.2024 349.1787,-140.6919 363.4318,-137.5475"/>
<polygon fill="#191970" stroke="#191970" points="289.6016,-150.7275 280.6704,-156.427 291.2065,-157.5411 289.6016,-150.7275"/>
</g>
<!-- Node11 -->
<g id="node11" class="node">
<title>Node11</title>
<g id="a_node11"><a xlink:href="../../d9/d73/fun4all__macros_2blob_2master_2detectors_2sPHENIX_2Fun4All__G4__sPHENIX_8C.html#a4102cd3e195333de974409428a2e6dae" target="_top" xlink:title="Fun4All_G4_sPHENIX">
<polygon fill="none" stroke="#000000" points="349,-.5 349,-20.5 470,-20.5 470,-.5 349,-.5"/>
<text text-anchor="middle" x="409.5" y="-7.5" font-family="FreeSans" font-size="10.00" fill="#000000">Fun4All_G4_sPHENIX</text>
</a>
</g>
</g>
<!-- Node7&#45;&gt;Node11 -->
<g id="edge14" class="edge">
<title>Node7&#45;&gt;Node11</title>
<path fill="none" stroke="#191970" d="M244.4744,-146.4112C254.5945,-116.0478 278.1022,-58.8982 319,-29.5 327.7341,-23.2218 338.0954,-18.9284 348.6339,-16.0109"/>
<polygon fill="#191970" stroke="#191970" points="241.03,-145.6946 241.3442,-156.2847 247.7027,-147.81 241.03,-145.6946"/>
</g>
<!-- Node12&#45;&gt;Node3 -->
<g id="edge16" class="edge">
<title>Node12&#45;&gt;Node3</title>
<path fill="none" stroke="#191970" d="M293.8146,-205.5C308.4473,-205.5 324.4332,-205.5 339.7242,-205.5"/>
<polygon fill="#191970" stroke="#191970" points="293.4283,-202.0001 283.4282,-205.5 293.4282,-209.0001 293.4283,-202.0001"/>
</g>
<!-- Node12&#45;&gt;Node4 -->
<g id="edge18" class="edge">
<title>Node12&#45;&gt;Node4</title>
<path fill="none" stroke="#191970" d="M290.4153,-193.1317C299.9186,-190.9004 309.7531,-188.6129 319,-186.5 333.4317,-183.2024 349.1787,-179.6919 363.4318,-176.5475"/>
<polygon fill="#191970" stroke="#191970" points="289.6016,-189.7275 280.6704,-195.427 291.2065,-196.5411 289.6016,-189.7275"/>
</g>
<!-- Node12&#45;&gt;Node5 -->
<g id="edge19" class="edge">
<title>Node12&#45;&gt;Node5</title>
<path fill="none" stroke="#191970" d="M274.9386,-220.3723C277.7463,-221.9672 280.4693,-223.6785 283,-225.5 302.1453,-239.2805 298.8584,-252.2216 319,-264.5 324.5672,-267.8938 330.6042,-270.8374 336.8281,-273.3886"/>
<polygon fill="#191970" stroke="#191970" points="276.3076,-217.1407 265.8138,-215.681 273.1069,-223.3661 276.3076,-217.1407"/>
</g>
<!-- Node12&#45;&gt;Node6 -->
<g id="edge20" class="edge">
<title>Node12&#45;&gt;Node6</title>
<path fill="none" stroke="#191970" d="M287.4943,-217.976C297.8793,-220.5353 308.7882,-223.1603 319,-225.5 332.3015,-228.5476 346.7472,-231.666 360.1107,-234.4723"/>
<polygon fill="#191970" stroke="#191970" points="288.2866,-214.5665 277.7378,-215.5538 286.5999,-221.3602 288.2866,-214.5665"/>
</g>
<!-- Node12&#45;&gt;Node10 -->
<g id="edge17" class="edge">
<title>Node12&#45;&gt;Node10</title>
<path fill="none" stroke="#191970" d="M276.3542,-190.6993C278.662,-189.3834 280.8979,-187.9832 283,-186.5 302.2743,-172.9006 298.5458,-159.2504 319,-147.5 327.6505,-142.5305 337.4192,-138.795 347.2571,-135.9873"/>
<polygon fill="#191970" stroke="#191970" points="274.5467,-187.6921 267.2289,-195.3537 277.7273,-193.9278 274.5467,-187.6921"/>
</g>
</g>
</svg>
