<?xml version="1.0" encoding="UTF-8" standalone="no"?>
<!DOCTYPE svg PUBLIC "-//W3C//DTD SVG 1.1//EN"
 "http://www.w3.org/Graphics/SVG/1.1/DTD/svg11.dtd">
<!-- Generated by graphviz version 2.40.1 (20161225.0304)
 -->
<!-- Title: lorentzVector::GetPy Pages: 1 -->
<svg width="581pt" height="158pt"
 viewBox="0.00 0.00 581.00 158.00" xmlns="http://www.w3.org/2000/svg" xmlns:xlink="http://www.w3.org/1999/xlink">
<g id="graph0" class="graph" transform="scale(1 1) rotate(0) translate(4 154)">
<title>lorentzVector::GetPy</title>
<!-- Node1 -->
<g id="node1" class="node">
<title>Node1</title>
<polygon fill="#bfbfbf" stroke="#000000" points="0,-61.5 0,-81.5 120,-81.5 120,-61.5 0,-61.5"/>
<text text-anchor="middle" x="60" y="-68.5" font-family="FreeSans" font-size="10.00" fill="#000000">lorentzVector::GetPy</text>
</g>
<!-- Node2 -->
<g id="node2" class="node">
<title>Node2</title>
<g id="a_node2"><a xlink:href="../../dd/d93/classpythiaDecayer.html#a298909bac2c984b429281e23a3ce075b" target="_top" xlink:title="pythiaDecayer::addParticle">
<polygon fill="none" stroke="#000000" points="156.5,-129.5 156.5,-149.5 309.5,-149.5 309.5,-129.5 156.5,-129.5"/>
<text text-anchor="middle" x="233" y="-136.5" font-family="FreeSans" font-size="10.00" fill="#000000">pythiaDecayer::addParticle</text>
</a>
</g>
</g>
<!-- Node1&#45;&gt;Node2 -->
<g id="edge1" class="edge">
<title>Node1&#45;&gt;Node2</title>
<path fill="none" stroke="#191970" d="M85.6853,-86.665C104.6094,-97.3228 131.252,-111.2713 156,-120.5 165.1598,-123.9158 175.1616,-126.8983 184.8338,-129.4252"/>
<polygon fill="#191970" stroke="#191970" points="87.2191,-83.5102 76.8009,-81.5834 83.7436,-89.5865 87.2191,-83.5102"/>
</g>
<!-- Node3 -->
<g id="node3" class="node">
<title>Node3</title>
<g id="a_node3"><a xlink:href="../../d9/df0/classstarlightParticle.html#af7969cbbdfb6c441e7b78226a6490329" target="_top" xlink:title="starlightParticle::\lreflect">
<polygon fill="none" stroke="#000000" points="182.5,-78.5 182.5,-110.5 283.5,-110.5 283.5,-78.5 182.5,-78.5"/>
<text text-anchor="start" x="190.5" y="-97.5" font-family="FreeSans" font-size="10.00" fill="#000000">starlightParticle::</text>
<text text-anchor="middle" x="233" y="-85.5" font-family="FreeSans" font-size="10.00" fill="#000000">reflect</text>
</a>
</g>
</g>
<!-- Node1&#45;&gt;Node3 -->
<g id="edge2" class="edge">
<title>Node1&#45;&gt;Node3</title>
<path fill="none" stroke="#191970" d="M130.1637,-80.8281C147.6081,-83.1473 165.9724,-85.5888 182.2778,-87.7566"/>
<polygon fill="#191970" stroke="#191970" points="130.3956,-77.3282 120.0215,-79.4797 129.473,-84.2672 130.3956,-77.3282"/>
</g>
<!-- Node4 -->
<g id="node4" class="node">
<title>Node4</title>
<g id="a_node4"><a xlink:href="../../dd/d7e/classhepMC3Writer.html#a54e5eab7d9e83a864d8b1741ebd4a33e" target="_top" xlink:title="hepMC3Writer::writeEvent">
<polygon fill="none" stroke="#000000" points="158.5,-39.5 158.5,-59.5 307.5,-59.5 307.5,-39.5 158.5,-39.5"/>
<text text-anchor="middle" x="233" y="-46.5" font-family="FreeSans" font-size="10.00" fill="#000000">hepMC3Writer::writeEvent</text>
</a>
</g>
</g>
<!-- Node1&#45;&gt;Node4 -->
<g id="edge3" class="edge">
<title>Node1&#45;&gt;Node4</title>
<path fill="none" stroke="#191970" d="M130.0461,-62.5924C139.401,-61.4028 149.0225,-60.1792 158.4508,-58.9802"/>
<polygon fill="#191970" stroke="#191970" points="129.5,-59.1336 120.0215,-63.8672 130.3832,-66.0776 129.5,-59.1336"/>
</g>
<!-- Node5 -->
<g id="node5" class="node">
<title>Node5</title>
<g id="a_node5"><a xlink:href="../../d6/ddf/classeventFileWriter.html#a0ee0107796d19b05ecb5e1423a5cd8e9" target="_top" xlink:title="eventFileWriter::writeEvent">
<polygon fill="none" stroke="#000000" points="156,-.5 156,-20.5 310,-20.5 310,-.5 156,-.5"/>
<text text-anchor="middle" x="233" y="-7.5" font-family="FreeSans" font-size="10.00" fill="#000000">eventFileWriter::writeEvent</text>
</a>
</g>
</g>
<!-- Node1&#45;&gt;Node5 -->
<g id="edge4" class="edge">
<title>Node1&#45;&gt;Node5</title>
<path fill="none" stroke="#191970" d="M90.1818,-57.2324C108.8668,-48.747 133.5071,-38.1762 156,-30.5 166.7185,-26.842 178.4707,-23.4755 189.4947,-20.5889"/>
<polygon fill="#191970" stroke="#191970" points="88.6216,-54.0975 80.9964,-61.4533 91.5444,-60.4581 88.6216,-54.0975"/>
</g>
<!-- Node6 -->
<g id="node6" class="node">
<title>Node6</title>
<g id="a_node6"><a xlink:href="../../d5/de3/classe__starlightStandalone.html#a5de581ae3de0a786baa1202e0b1fd767" target="_top" xlink:title="creates output file and runs starlight">
<polygon fill="none" stroke="#000000" points="346,-.5 346,-20.5 496,-20.5 496,-.5 346,-.5"/>
<text text-anchor="middle" x="421" y="-7.5" font-family="FreeSans" font-size="10.00" fill="#000000">e_starlightStandalone::run</text>
</a>
</g>
</g>
<!-- Node5&#45;&gt;Node6 -->
<g id="edge5" class="edge">
<title>Node5&#45;&gt;Node6</title>
<path fill="none" stroke="#191970" d="M320.0908,-10.5C328.7243,-10.5 337.4359,-10.5 345.9323,-10.5"/>
<polygon fill="#191970" stroke="#191970" points="320.0093,-7.0001 310.0092,-10.5 320.0092,-14.0001 320.0093,-7.0001"/>
</g>
<!-- Node7 -->
<g id="node7" class="node">
<title>Node7</title>
<g id="a_node7"><a xlink:href="../../d1/d87/e__main_8cpp.html#a0fc34f49b0e6eaed5e5c3accb409b1d1" target="_top" xlink:title="main">
<polygon fill="none" stroke="#000000" points="532,-.5 532,-20.5 573,-20.5 573,-.5 532,-.5"/>
<text text-anchor="middle" x="552.5" y="-7.5" font-family="FreeSans" font-size="10.00" fill="#000000">main</text>
</a>
</g>
</g>
<!-- Node6&#45;&gt;Node7 -->
<g id="edge6" class="edge">
<title>Node6&#45;&gt;Node7</title>
<path fill="none" stroke="#191970" d="M506.6274,-10.5C515.9232,-10.5 524.6339,-10.5 531.9147,-10.5"/>
<polygon fill="#191970" stroke="#191970" points="506.3508,-7.0001 496.3507,-10.5 506.3507,-14.0001 506.3508,-7.0001"/>
</g>
</g>
</svg>
