<?xml version="1.0" encoding="UTF-8" standalone="no"?>
<!DOCTYPE svg PUBLIC "-//W3C//DTD SVG 1.1//EN"
 "http://www.w3.org/Graphics/SVG/1.1/DTD/svg11.dtd">
<!-- Generated by graphviz version 2.40.1 (20161225.0304)
 -->
<!-- Title: lorentzVector::reflect Pages: 1 -->
<svg width="276pt" height="146pt"
 viewBox="0.00 0.00 276.00 146.00" xmlns="http://www.w3.org/2000/svg" xmlns:xlink="http://www.w3.org/1999/xlink">
<g id="graph0" class="graph" transform="scale(1 1) rotate(0) translate(4 142)">
<title>lorentzVector::reflect</title>
<!-- Node1 -->
<g id="node1" class="node">
<title>Node1</title>
<polygon fill="#bfbfbf" stroke="#000000" points="0,-58.5 0,-78.5 122,-78.5 122,-58.5 0,-58.5"/>
<text text-anchor="middle" x="61" y="-65.5" font-family="FreeSans" font-size="10.00" fill="#000000">lorentzVector::reflect</text>
</g>
<!-- Node2 -->
<g id="node2" class="node">
<title>Node2</title>
<g id="a_node2"><a xlink:href="../../db/dc5/classvector3.html#a158f9f9ec5be5aee81feab744221b95f" target="_top" xlink:title="vector3::SetVector">
<polygon fill="none" stroke="#000000" points="158,-117.5 158,-137.5 268,-137.5 268,-117.5 158,-117.5"/>
<text text-anchor="middle" x="213" y="-124.5" font-family="FreeSans" font-size="10.00" fill="#000000">vector3::SetVector</text>
</a>
</g>
</g>
<!-- Node1&#45;&gt;Node2 -->
<g id="edge1" class="edge">
<title>Node1&#45;&gt;Node2</title>
<path fill="none" stroke="#191970" d="M84.368,-78.5863C103.9209,-86.9172 132.6161,-98.8911 158,-108.5 162.8938,-110.3525 168.0588,-112.2332 173.185,-114.0548"/>
<polygon fill="#191970" stroke="#191970" points="172.3187,-117.4598 182.9135,-117.4622 174.6326,-110.8533 172.3187,-117.4598"/>
</g>
<!-- Node3 -->
<g id="node3" class="node">
<title>Node3</title>
<g id="a_node3"><a xlink:href="../../db/dc5/classvector3.html#a2f950a0033df6363f1f1d85fd95de327" target="_top" xlink:title="vector3::X">
<polygon fill="none" stroke="#000000" points="179,-78.5 179,-98.5 247,-98.5 247,-78.5 179,-78.5"/>
<text text-anchor="middle" x="213" y="-85.5" font-family="FreeSans" font-size="10.00" fill="#000000">vector3::X</text>
</a>
</g>
</g>
<!-- Node1&#45;&gt;Node3 -->
<g id="edge2" class="edge">
<title>Node1&#45;&gt;Node3</title>
<path fill="none" stroke="#191970" d="M122.3861,-76.5771C137.9006,-78.6185 154.2594,-80.771 168.7432,-82.6767"/>
<polygon fill="#191970" stroke="#191970" points="168.5481,-86.1812 178.9193,-84.0157 169.4614,-79.241 168.5481,-86.1812"/>
</g>
<!-- Node4 -->
<g id="node4" class="node">
<title>Node4</title>
<g id="a_node4"><a xlink:href="../../db/dc5/classvector3.html#a1c17cd54f5769fd75812407f2aa4f6cd" target="_top" xlink:title="vector3::Y">
<polygon fill="none" stroke="#000000" points="179,-39.5 179,-59.5 247,-59.5 247,-39.5 179,-39.5"/>
<text text-anchor="middle" x="213" y="-46.5" font-family="FreeSans" font-size="10.00" fill="#000000">vector3::Y</text>
</a>
</g>
</g>
<!-- Node1&#45;&gt;Node4 -->
<g id="edge3" class="edge">
<title>Node1&#45;&gt;Node4</title>
<path fill="none" stroke="#191970" d="M122.3861,-60.8267C137.9006,-58.8874 154.2594,-56.8426 168.7432,-55.0321"/>
<polygon fill="#191970" stroke="#191970" points="169.4307,-58.4735 178.9193,-53.7601 168.5624,-51.5275 169.4307,-58.4735"/>
</g>
<!-- Node5 -->
<g id="node5" class="node">
<title>Node5</title>
<g id="a_node5"><a xlink:href="../../db/dc5/classvector3.html#a634ddc883cd50c169e9bd19d3db08fb3" target="_top" xlink:title="vector3::Z">
<polygon fill="none" stroke="#000000" points="179,-.5 179,-20.5 247,-20.5 247,-.5 179,-.5"/>
<text text-anchor="middle" x="213" y="-7.5" font-family="FreeSans" font-size="10.00" fill="#000000">vector3::Z</text>
</a>
</g>
</g>
<!-- Node1&#45;&gt;Node5 -->
<g id="edge4" class="edge">
<title>Node1&#45;&gt;Node5</title>
<path fill="none" stroke="#191970" d="M86.0571,-58.4884C105.6051,-50.7254 133.4658,-39.7648 158,-30.5 163.6021,-28.3845 169.5399,-26.183 175.3619,-24.0472"/>
<polygon fill="#191970" stroke="#191970" points="176.776,-27.257 184.9709,-20.5417 174.377,-20.681 176.776,-27.257"/>
</g>
</g>
</svg>
