<?xml version="1.0" encoding="UTF-8" standalone="no"?>
<!DOCTYPE svg PUBLIC "-//W3C//DTD SVG 1.1//EN"
 "http://www.w3.org/Graphics/SVG/1.1/DTD/svg11.dtd">
<!-- Generated by graphviz version 2.40.1 (20161225.0304)
 -->
<!-- Title: Acts::ImpactPointEstimator::estimateImpactParameters Pages: 1 -->
<svg width="496pt" height="185pt"
 viewBox="0.00 0.00 496.00 185.00" xmlns="http://www.w3.org/2000/svg" xmlns:xlink="http://www.w3.org/1999/xlink">
<g id="graph0" class="graph" transform="scale(1 1) rotate(0) translate(4 181)">
<title>Acts::ImpactPointEstimator::estimateImpactParameters</title>
<!-- Node1 -->
<g id="node1" class="node">
<title>Node1</title>
<polygon fill="#bfbfbf" stroke="#000000" points="0,-72.5 0,-104.5 160,-104.5 160,-72.5 0,-72.5"/>
<text text-anchor="start" x="8" y="-91.5" font-family="FreeSans" font-size="10.00" fill="#000000">Acts::ImpactPointEstimator</text>
<text text-anchor="middle" x="80" y="-79.5" font-family="FreeSans" font-size="10.00" fill="#000000">::estimateImpactParameters</text>
</g>
<!-- Node2 -->
<g id="node2" class="node">
<title>Node2</title>
<g id="a_node2"><a xlink:href="../../df/de8/cemc_8C.html#a72d4716092b469b4bc1d816359a90e14" target="_top" xlink:title="cos">
<polygon fill="none" stroke="#000000" points="249.5,-156.5 249.5,-176.5 282.5,-176.5 282.5,-156.5 249.5,-156.5"/>
<text text-anchor="middle" x="266" y="-163.5" font-family="FreeSans" font-size="10.00" fill="#000000">cos</text>
</a>
</g>
</g>
<!-- Node1&#45;&gt;Node2 -->
<g id="edge1" class="edge">
<title>Node1&#45;&gt;Node2</title>
<path fill="none" stroke="#191970" d="M107.8564,-104.7227C130.9018,-117.6361 164.7969,-135.477 196,-147.5 210.0004,-152.8945 226.1319,-157.3834 239.378,-160.641"/>
<polygon fill="#191970" stroke="#191970" points="238.7497,-164.0888 249.2867,-162.9833 240.3602,-157.2766 238.7497,-164.0888"/>
</g>
<!-- Node3 -->
<g id="node3" class="node">
<title>Node3</title>
<g id="a_node3"><a xlink:href="../../df/d7d/classActs_1_1Vertex.html#a03f01ee6735b388b6acbfe68337520db" target="_top" xlink:title="Acts::Vertex::covariance">
<polygon fill="none" stroke="#000000" points="196,-117.5 196,-137.5 336,-137.5 336,-117.5 196,-117.5"/>
<text text-anchor="middle" x="266" y="-124.5" font-family="FreeSans" font-size="10.00" fill="#000000">Acts::Vertex::covariance</text>
</a>
</g>
</g>
<!-- Node1&#45;&gt;Node3 -->
<g id="edge2" class="edge">
<title>Node1&#45;&gt;Node3</title>
<path fill="none" stroke="#191970" d="M156.4585,-104.5316C173.7176,-108.1505 191.7621,-111.934 208.11,-115.3618"/>
<polygon fill="#191970" stroke="#191970" points="207.542,-118.8187 218.0475,-117.4454 208.9786,-111.9677 207.542,-118.8187"/>
</g>
<!-- Node4 -->
<g id="node4" class="node">
<title>Node4</title>
<g id="a_node4"><a xlink:href="../../da/d7b/namespaceActs.html#a9b4dee934b0b193d57604b19bc8cd527" target="_top" xlink:title="get default debug output logger">
<polygon fill="none" stroke="#000000" points="199,-78.5 199,-98.5 333,-98.5 333,-78.5 199,-78.5"/>
<text text-anchor="middle" x="266" y="-85.5" font-family="FreeSans" font-size="10.00" fill="#000000">Acts::getDefaultLogger</text>
</a>
</g>
</g>
<!-- Node1&#45;&gt;Node4 -->
<g id="edge3" class="edge">
<title>Node1&#45;&gt;Node4</title>
<path fill="none" stroke="#191970" d="M160.2303,-88.5C169.6892,-88.5 179.3277,-88.5 188.7444,-88.5"/>
<polygon fill="#191970" stroke="#191970" points="188.8564,-92.0001 198.8564,-88.5 188.8564,-85.0001 188.8564,-92.0001"/>
</g>
<!-- Node6 -->
<g id="node6" class="node">
<title>Node6</title>
<g id="a_node6"><a xlink:href="../../df/d7d/classActs_1_1Vertex.html#a3d9112fab635eb905a2f09095a140ba9" target="_top" xlink:title="Acts::Vertex::position">
<polygon fill="none" stroke="#000000" points="204,-39.5 204,-59.5 328,-59.5 328,-39.5 204,-39.5"/>
<text text-anchor="middle" x="266" y="-46.5" font-family="FreeSans" font-size="10.00" fill="#000000">Acts::Vertex::position</text>
</a>
</g>
</g>
<!-- Node1&#45;&gt;Node6 -->
<g id="edge5" class="edge">
<title>Node1&#45;&gt;Node6</title>
<path fill="none" stroke="#191970" d="M156.4585,-72.4684C173.7176,-68.8495 191.7621,-65.066 208.11,-61.6382"/>
<polygon fill="#191970" stroke="#191970" points="208.9786,-65.0323 218.0475,-59.5546 207.542,-58.1813 208.9786,-65.0323"/>
</g>
<!-- Node8 -->
<g id="node8" class="node">
<title>Node8</title>
<g id="a_node8"><a xlink:href="../../dc/de5/PHG4mRICHDetector_8cc.html#aa15fefb6859fb9ca86eb9a588d4f7856" target="_top" xlink:title="theta">
<polygon fill="none" stroke="#000000" points="245,-.5 245,-20.5 287,-20.5 287,-.5 245,-.5"/>
<text text-anchor="middle" x="266" y="-7.5" font-family="FreeSans" font-size="10.00" fill="#000000">theta</text>
</a>
</g>
</g>
<!-- Node1&#45;&gt;Node8 -->
<g id="edge7" class="edge">
<title>Node1&#45;&gt;Node8</title>
<path fill="none" stroke="#191970" d="M108.4041,-72.4355C131.4836,-59.842 165.1531,-42.499 196,-30.5 208.5155,-25.6317 222.7002,-21.3593 235.0126,-18.0268"/>
<polygon fill="#191970" stroke="#191970" points="236.0487,-21.3736 244.8369,-15.4561 234.2766,-14.6016 236.0487,-21.3736"/>
</g>
<!-- Node5 -->
<g id="node5" class="node">
<title>Node5</title>
<g id="a_node5"><a xlink:href="../../dd/d94/fun4all__tutorials_2blob_2master_2materialscan_2matscan_8C.html#a388f572c62279f839ee138a9afbdeeb5" target="_top" xlink:title="print">
<polygon fill="none" stroke="#000000" points="410,-81.5 410,-101.5 450,-101.5 450,-81.5 410,-81.5"/>
<text text-anchor="middle" x="430" y="-88.5" font-family="FreeSans" font-size="10.00" fill="#000000">print</text>
</a>
</g>
</g>
<!-- Node4&#45;&gt;Node5 -->
<g id="edge4" class="edge">
<title>Node4&#45;&gt;Node5</title>
<path fill="none" stroke="#191970" d="M333.1783,-89.7289C356.2494,-90.1509 380.9397,-90.6026 399.613,-90.9441"/>
<polygon fill="#191970" stroke="#191970" points="399.7921,-94.4479 409.8544,-91.1315 399.9202,-87.4491 399.7921,-94.4479"/>
</g>
<!-- Node7 -->
<g id="node7" class="node">
<title>Node7</title>
<g id="a_node7"><a xlink:href="../../df/da1/namespaceActs_1_1VectorHelpers.html#a55c39f48968d9e4b4b4fb12b227cea22" target="_top" xlink:title="Access the three&#45;position components in a four&#45;position vector.">
<polygon fill="none" stroke="#000000" points="372,-30.5 372,-62.5 488,-62.5 488,-30.5 372,-30.5"/>
<text text-anchor="start" x="380" y="-49.5" font-family="FreeSans" font-size="10.00" fill="#000000">Acts::VectorHelpers</text>
<text text-anchor="middle" x="430" y="-37.5" font-family="FreeSans" font-size="10.00" fill="#000000">::position</text>
</a>
</g>
</g>
<!-- Node6&#45;&gt;Node7 -->
<g id="edge6" class="edge">
<title>Node6&#45;&gt;Node7</title>
<path fill="none" stroke="#191970" d="M328.0014,-48.3658C339.0435,-48.1638 350.6009,-47.9524 361.8044,-47.7475"/>
<polygon fill="#191970" stroke="#191970" points="362.0345,-51.244 371.9688,-47.5615 361.9064,-44.2451 362.0345,-51.244"/>
</g>
</g>
</svg>
