<?xml version="1.0" encoding="UTF-8" standalone="no"?>
<!DOCTYPE svg PUBLIC "-//W3C//DTD SVG 1.1//EN"
 "http://www.w3.org/Graphics/SVG/1.1/DTD/svg11.dtd">
<!-- Generated by graphviz version 2.40.1 (20161225.0304)
 -->
<!-- Title: luchge Pages: 1 -->
<svg width="234pt" height="49pt"
 viewBox="0.00 0.00 234.00 49.00" xmlns="http://www.w3.org/2000/svg" xmlns:xlink="http://www.w3.org/1999/xlink">
<g id="graph0" class="graph" transform="scale(1 1) rotate(0) translate(4 45)">
<title>luchge</title>
<!-- Node1 -->
<g id="node1" class="node">
<title>Node1</title>
<polygon fill="#bfbfbf" stroke="#000000" points="0,-.5 0,-20.5 50,-20.5 50,-.5 0,-.5"/>
<text text-anchor="middle" x="25" y="-7.5" font-family="FreeSans" font-size="10.00" fill="#000000">luchge</text>
</g>
<!-- Node2 -->
<g id="node2" class="node">
<title>Node2</title>
<g id="a_node2"><a xlink:href="../../df/d5f/luchge_8f.html#a86938fb3242850e133e3b60d256582b7" target="_top" xlink:title="luchge">
<polygon fill="none" stroke="#000000" points="86,-20.5 86,-40.5 136,-40.5 136,-20.5 86,-20.5"/>
<text text-anchor="middle" x="111" y="-27.5" font-family="FreeSans" font-size="10.00" fill="#000000">luchge</text>
</a>
</g>
</g>
<!-- Node1&#45;&gt;Node2 -->
<g id="edge1" class="edge">
<title>Node1&#45;&gt;Node2</title>
<path fill="none" stroke="#191970" d="M50.3377,-16.3925C58.3859,-18.2642 67.4333,-20.3682 76.0358,-22.3688"/>
<polygon fill="#191970" stroke="#191970" points="75.3105,-25.7934 85.8434,-24.6496 76.8961,-18.9754 75.3105,-25.7934"/>
</g>
<!-- Node3 -->
<g id="node3" class="node">
<title>Node3</title>
<g id="a_node3"><a xlink:href="../../d0/da8/lucomp_8f.html#af4e2c29d51aeb470efbf59be26e18d04" target="_top" xlink:title="lucomp">
<polygon fill="none" stroke="#000000" points="172,-.5 172,-20.5 226,-20.5 226,-.5 172,-.5"/>
<text text-anchor="middle" x="199" y="-7.5" font-family="FreeSans" font-size="10.00" fill="#000000">lucomp</text>
</a>
</g>
</g>
<!-- Node1&#45;&gt;Node3 -->
<g id="edge3" class="edge">
<title>Node1&#45;&gt;Node3</title>
<path fill="none" stroke="#191970" d="M50.3011,-10.5C79.5584,-10.5 127.9954,-10.5 161.6025,-10.5"/>
<polygon fill="#191970" stroke="#191970" points="161.9498,-14.0001 171.9498,-10.5 161.9497,-7.0001 161.9498,-14.0001"/>
</g>
<!-- Node2&#45;&gt;Node3 -->
<g id="edge2" class="edge">
<title>Node2&#45;&gt;Node3</title>
<path fill="none" stroke="#191970" d="M136.4532,-24.7152C144.4069,-22.9075 153.3502,-20.875 161.9326,-18.9244"/>
<polygon fill="#191970" stroke="#191970" points="162.7852,-22.32 171.7608,-16.6907 161.2338,-15.4941 162.7852,-22.32"/>
</g>
</g>
</svg>
