<?xml version="1.0" encoding="UTF-8" standalone="no"?>
<!DOCTYPE svg PUBLIC "-//W3C//DTD SVG 1.1//EN"
 "http://www.w3.org/Graphics/SVG/1.1/DTD/svg11.dtd">
<!-- Generated by graphviz version 2.40.1 (20161225.0304)
 -->
<!-- Title: fun4all_eicdetectors/blob/master/reconstruction/eiczdcbase/RawTowerZDCv1.cc Pages: 1 -->
<svg width="860pt" height="281pt"
 viewBox="0.00 0.00 860.00 281.00" xmlns="http://www.w3.org/2000/svg" xmlns:xlink="http://www.w3.org/1999/xlink">
<g id="graph0" class="graph" transform="scale(1 1) rotate(0) translate(4 277)">
<title>fun4all_eicdetectors/blob/master/reconstruction/eiczdcbase/RawTowerZDCv1.cc</title>
<!-- Node1 -->
<g id="node1" class="node">
<title>Node1</title>
<polygon fill="#bfbfbf" stroke="#000000" points="674,-228.5 674,-272.5 852,-272.5 852,-228.5 674,-228.5"/>
<text text-anchor="start" x="682" y="-259.5" font-family="FreeSans" font-size="10.00" fill="#000000">fun4all_eicdetectors</text>
<text text-anchor="start" x="682" y="-247.5" font-family="FreeSans" font-size="10.00" fill="#000000">/blob/master/reconstruction</text>
<text text-anchor="middle" x="763" y="-235.5" font-family="FreeSans" font-size="10.00" fill="#000000">/eiczdcbase/RawTowerZDCv1.cc</text>
</g>
<!-- Node2 -->
<g id="node2" class="node">
<title>Node2</title>
<g id="a_node2"><a xlink:href="../../d9/d2b/RawTowerZDCv1_8h.html" target="_top" xlink:title="RawTowerZDCv1.h">
<polygon fill="none" stroke="#000000" points="543,-171.5 543,-191.5 653,-191.5 653,-171.5 543,-171.5"/>
<text text-anchor="middle" x="598" y="-178.5" font-family="FreeSans" font-size="10.00" fill="#000000">RawTowerZDCv1.h</text>
</a>
</g>
</g>
<!-- Node1&#45;&gt;Node2 -->
<g id="edge1" class="edge">
<title>Node1&#45;&gt;Node2</title>
<path fill="none" stroke="#191970" d="M710.3393,-228.4783C684.5424,-217.6905 654.247,-205.0215 631.6218,-195.56"/>
<polygon fill="#191970" stroke="#191970" points="632.6969,-192.216 622.1208,-191.5869 629.9962,-198.674 632.6969,-192.216"/>
</g>
<!-- Node6 -->
<g id="node6" class="node">
<title>Node6</title>
<polygon fill="none" stroke="#bfbfbf" points="477,-.5 477,-20.5 537,-20.5 537,-.5 477,-.5"/>
<text text-anchor="middle" x="507" y="-7.5" font-family="FreeSans" font-size="10.00" fill="#000000">iostream</text>
</g>
<!-- Node1&#45;&gt;Node6 -->
<g id="edge26" class="edge">
<title>Node1&#45;&gt;Node6</title>
<path fill="none" stroke="#191970" d="M776.8224,-228.3754C799.4739,-189.0019 837.9911,-106.2876 796,-57 780.0454,-38.2731 622.8724,-21.2712 547.2488,-14.0995"/>
<polygon fill="#191970" stroke="#191970" points="547.4251,-10.6008 537.1424,-13.1537 546.7727,-17.5704 547.4251,-10.6008"/>
</g>
<!-- Node13 -->
<g id="node13" class="node">
<title>Node13</title>
<polygon fill="none" stroke="#bfbfbf" points="739,-57.5 739,-77.5 787,-77.5 787,-57.5 739,-57.5"/>
<text text-anchor="middle" x="763" y="-64.5" font-family="FreeSans" font-size="10.00" fill="#000000">cmath</text>
</g>
<!-- Node1&#45;&gt;Node13 -->
<g id="edge25" class="edge">
<title>Node1&#45;&gt;Node13</title>
<path fill="none" stroke="#191970" d="M763,-228.4259C763,-192.7252 763,-122.8174 763,-88.0908"/>
<polygon fill="#191970" stroke="#191970" points="766.5001,-87.7629 763,-77.763 759.5001,-87.763 766.5001,-87.7629"/>
</g>
<!-- Node3 -->
<g id="node3" class="node">
<title>Node3</title>
<g id="a_node3"><a xlink:href="../../d9/dd2/RawTowerZDC_8h.html" target="_top" xlink:title="RawTowerZDC.h">
<polygon fill="none" stroke="#000000" points="423.5,-114.5 423.5,-134.5 520.5,-134.5 520.5,-114.5 423.5,-114.5"/>
<text text-anchor="middle" x="472" y="-121.5" font-family="FreeSans" font-size="10.00" fill="#000000">RawTowerZDC.h</text>
</a>
</g>
</g>
<!-- Node2&#45;&gt;Node3 -->
<g id="edge2" class="edge">
<title>Node2&#45;&gt;Node3</title>
<path fill="none" stroke="#191970" d="M575.7638,-171.4408C555.7349,-162.3801 526.0729,-148.9615 503.5865,-138.7891"/>
<polygon fill="#191970" stroke="#191970" points="504.9915,-135.5833 494.4378,-134.6504 502.1062,-141.961 504.9915,-135.5833"/>
</g>
<!-- Node4 -->
<g id="node4" class="node">
<title>Node4</title>
<g id="a_node4"><a xlink:href="../../d6/d97/RawTowerZDCDefs_8h.html" target="_top" xlink:title="RawTowerZDCDefs.h">
<polygon fill="none" stroke="#000000" points="0,-57.5 0,-77.5 120,-77.5 120,-57.5 0,-57.5"/>
<text text-anchor="middle" x="60" y="-64.5" font-family="FreeSans" font-size="10.00" fill="#000000">RawTowerZDCDefs.h</text>
</a>
</g>
</g>
<!-- Node2&#45;&gt;Node4 -->
<g id="edge20" class="edge">
<title>Node2&#45;&gt;Node4</title>
<path fill="none" stroke="#191970" d="M542.7541,-173.6094C486.8475,-165.2927 398.0467,-151.1715 322,-135 245.1154,-118.6504 156.7935,-94.8326 104.8403,-80.2967"/>
<polygon fill="#191970" stroke="#191970" points="105.5227,-76.853 94.9488,-77.5182 103.6297,-83.5922 105.5227,-76.853"/>
</g>
<!-- Node2&#45;&gt;Node6 -->
<g id="edge22" class="edge">
<title>Node2&#45;&gt;Node6</title>
<path fill="none" stroke="#191970" d="M615.9052,-171.4139C651.4578,-150.1202 724.8082,-99.0751 692,-57 674.3666,-34.3859 595.9275,-21.088 547.0214,-14.8508"/>
<polygon fill="#191970" stroke="#191970" points="547.4187,-11.3734 537.0662,-13.6262 546.564,-18.321 547.4187,-11.3734"/>
</g>
<!-- Node14 -->
<g id="node14" class="node">
<title>Node14</title>
<polygon fill="none" stroke="#bfbfbf" points="571,-57.5 571,-77.5 625,-77.5 625,-57.5 571,-57.5"/>
<text text-anchor="middle" x="598" y="-64.5" font-family="FreeSans" font-size="10.00" fill="#000000">cstddef</text>
</g>
<!-- Node2&#45;&gt;Node14 -->
<g id="edge21" class="edge">
<title>Node2&#45;&gt;Node14</title>
<path fill="none" stroke="#191970" d="M598,-171.3833C598,-152.6703 598,-112.3266 598,-87.7866"/>
<polygon fill="#191970" stroke="#191970" points="601.5001,-87.7579 598,-77.7579 594.5001,-87.758 601.5001,-87.7579"/>
</g>
<!-- Node15 -->
<g id="node15" class="node">
<title>Node15</title>
<polygon fill="none" stroke="#bfbfbf" points="643.5,-57.5 643.5,-77.5 682.5,-77.5 682.5,-57.5 643.5,-57.5"/>
<text text-anchor="middle" x="663" y="-64.5" font-family="FreeSans" font-size="10.00" fill="#000000">map</text>
</g>
<!-- Node2&#45;&gt;Node15 -->
<g id="edge23" class="edge">
<title>Node2&#45;&gt;Node15</title>
<path fill="none" stroke="#191970" d="M603.7683,-171.3833C614.6303,-152.3331 638.2739,-110.8658 652.1805,-86.4757"/>
<polygon fill="#191970" stroke="#191970" points="655.2384,-88.1787 657.1512,-77.7579 649.1574,-84.7114 655.2384,-88.1787"/>
</g>
<!-- Node16 -->
<g id="node16" class="node">
<title>Node16</title>
<polygon fill="none" stroke="#bfbfbf" points="138.5,-57.5 138.5,-77.5 183.5,-77.5 183.5,-57.5 138.5,-57.5"/>
<text text-anchor="middle" x="161" y="-64.5" font-family="FreeSans" font-size="10.00" fill="#000000">utility</text>
</g>
<!-- Node2&#45;&gt;Node16 -->
<g id="edge24" class="edge">
<title>Node2&#45;&gt;Node16</title>
<path fill="none" stroke="#191970" d="M554.1362,-171.4978C481.1038,-154.588 329.8841,-118.4855 193.4216,-78.2862"/>
<polygon fill="#191970" stroke="#191970" points="194.2053,-74.8681 183.6231,-75.385 192.218,-81.5801 194.2053,-74.8681"/>
</g>
<!-- Node3&#45;&gt;Node4 -->
<g id="edge3" class="edge">
<title>Node3&#45;&gt;Node4</title>
<path fill="none" stroke="#191970" d="M423.4,-118.1645C358.8475,-109.6933 240.9975,-94.0336 130.2121,-78.158"/>
<polygon fill="#191970" stroke="#191970" points="130.5983,-74.6776 120.2022,-76.7202 129.603,-81.6065 130.5983,-74.6776"/>
</g>
<!-- Node3&#45;&gt;Node6 -->
<g id="edge16" class="edge">
<title>Node3&#45;&gt;Node6</title>
<path fill="none" stroke="#191970" d="M489.5741,-114.3885C501.7471,-106.2886 516.9783,-93.6986 524,-78 530.9086,-62.5542 525.1747,-43.8122 518.561,-30.0001"/>
<polygon fill="#191970" stroke="#191970" points="521.5314,-28.1305 513.7578,-20.9317 515.3455,-31.4069 521.5314,-28.1305"/>
</g>
<!-- Node7 -->
<g id="node7" class="node">
<title>Node7</title>
<polygon fill="none" stroke="#bfbfbf" points="195.5,-.5 195.5,-20.5 240.5,-20.5 240.5,-.5 195.5,-.5"/>
<text text-anchor="middle" x="218" y="-7.5" font-family="FreeSans" font-size="10.00" fill="#000000">string</text>
</g>
<!-- Node3&#45;&gt;Node7 -->
<g id="edge18" class="edge">
<title>Node3&#45;&gt;Node7</title>
<path fill="none" stroke="#191970" d="M423.3935,-117.4104C387.2877,-110.7724 337.6404,-98.6875 298,-78 273.3059,-65.1127 249.5026,-43.4588 234.3764,-28.1566"/>
<polygon fill="#191970" stroke="#191970" points="236.7585,-25.5845 227.2986,-20.8136 231.7185,-30.4425 236.7585,-25.5845"/>
</g>
<!-- Node9 -->
<g id="node9" class="node">
<title>Node9</title>
<g id="a_node9"><a xlink:href="../../df/d32/PHObject_8h.html" target="_top" xlink:title="phool/PHObject.h">
<polygon fill="none" stroke="#000000" points="307,-57.5 307,-77.5 411,-77.5 411,-57.5 307,-57.5"/>
<text text-anchor="middle" x="359" y="-64.5" font-family="FreeSans" font-size="10.00" fill="#000000">phool/PHObject.h</text>
</a>
</g>
</g>
<!-- Node3&#45;&gt;Node9 -->
<g id="edge8" class="edge">
<title>Node3&#45;&gt;Node9</title>
<path fill="none" stroke="#191970" d="M452.058,-114.4408C434.3361,-105.5014 408.2049,-92.3202 388.1412,-82.1996"/>
<polygon fill="#191970" stroke="#191970" points="389.6275,-79.0292 379.1228,-77.6504 386.4749,-85.2791 389.6275,-79.0292"/>
</g>
<!-- Node11 -->
<g id="node11" class="node">
<title>Node11</title>
<g id="a_node11"><a xlink:href="../../d5/d6f/phool_8h.html" target="_top" xlink:title="phool/phool.h">
<polygon fill="none" stroke="#000000" points="429.5,-57.5 429.5,-77.5 514.5,-77.5 514.5,-57.5 429.5,-57.5"/>
<text text-anchor="middle" x="472" y="-64.5" font-family="FreeSans" font-size="10.00" fill="#000000">phool/phool.h</text>
</a>
</g>
</g>
<!-- Node3&#45;&gt;Node11 -->
<g id="edge11" class="edge">
<title>Node3&#45;&gt;Node11</title>
<path fill="none" stroke="#191970" d="M472,-114.3095C472,-106.9335 472,-96.72 472,-87.715"/>
<polygon fill="#191970" stroke="#191970" points="475.5001,-87.6022 472,-77.6022 468.5001,-87.6023 475.5001,-87.6022"/>
</g>
<!-- Node12 -->
<g id="node12" class="node">
<title>Node12</title>
<polygon fill="none" stroke="#bfbfbf" points="201.5,-57.5 201.5,-77.5 250.5,-77.5 250.5,-57.5 201.5,-57.5"/>
<text text-anchor="middle" x="226" y="-64.5" font-family="FreeSans" font-size="10.00" fill="#000000">climits</text>
</g>
<!-- Node3&#45;&gt;Node12 -->
<g id="edge13" class="edge">
<title>Node3&#45;&gt;Node12</title>
<path fill="none" stroke="#191970" d="M424.5946,-114.4441C382.5523,-105.3848 319.5339,-91.46 265,-78 263.5534,-77.6429 262.0782,-77.2728 260.5892,-76.8943"/>
<polygon fill="#191970" stroke="#191970" points="261.2764,-73.4565 250.7171,-74.3225 259.5117,-80.2305 261.2764,-73.4565"/>
</g>
<!-- Node3&#45;&gt;Node13 -->
<g id="edge14" class="edge">
<title>Node3&#45;&gt;Node13</title>
<path fill="none" stroke="#191970" d="M520.7069,-114.9595C579.5896,-103.4257 677.1792,-84.3103 728.7008,-74.2184"/>
<polygon fill="#191970" stroke="#191970" points="729.525,-77.6236 738.6657,-72.2665 728.1794,-70.7541 729.525,-77.6236"/>
</g>
<!-- Node3&#45;&gt;Node14 -->
<g id="edge15" class="edge">
<title>Node3&#45;&gt;Node14</title>
<path fill="none" stroke="#191970" d="M494.2362,-114.4408C514.2651,-105.3801 543.9271,-91.9615 566.4135,-81.7891"/>
<polygon fill="#191970" stroke="#191970" points="567.8938,-84.961 575.5622,-77.6504 565.0085,-78.5833 567.8938,-84.961"/>
</g>
<!-- Node3&#45;&gt;Node15 -->
<g id="edge17" class="edge">
<title>Node3&#45;&gt;Node15</title>
<path fill="none" stroke="#191970" d="M509.8637,-114.4139C540.7752,-106.0054 585.7684,-93.3722 633.7697,-77.9246"/>
<polygon fill="#191970" stroke="#191970" points="634.975,-81.2132 643.4068,-74.7979 632.8147,-74.5549 634.975,-81.2132"/>
</g>
<!-- Node3&#45;&gt;Node16 -->
<g id="edge19" class="edge">
<title>Node3&#45;&gt;Node16</title>
<path fill="none" stroke="#191970" d="M423.4525,-118.865C369.3115,-112.0438 279.0717,-99.0751 193.4387,-78.0767"/>
<polygon fill="#191970" stroke="#191970" points="194.1105,-74.6372 183.5607,-75.6131 192.4165,-81.4291 194.1105,-74.6372"/>
</g>
<!-- Node5 -->
<g id="node5" class="node">
<title>Node5</title>
<polygon fill="none" stroke="#bfbfbf" points="2,-.5 2,-20.5 52,-20.5 52,-.5 2,-.5"/>
<text text-anchor="middle" x="27" y="-7.5" font-family="FreeSans" font-size="10.00" fill="#000000">cstdlib</text>
</g>
<!-- Node4&#45;&gt;Node5 -->
<g id="edge4" class="edge">
<title>Node4&#45;&gt;Node5</title>
<path fill="none" stroke="#191970" d="M54.1003,-57.3095C49.6422,-49.6093 43.3938,-38.8166 38.0202,-29.5349"/>
<polygon fill="#191970" stroke="#191970" points="40.8881,-27.5029 32.8487,-20.6022 34.8301,-31.0102 40.8881,-27.5029"/>
</g>
<!-- Node4&#45;&gt;Node6 -->
<g id="edge5" class="edge">
<title>Node4&#45;&gt;Node6</title>
<path fill="none" stroke="#191970" d="M120.1961,-58.236C123.1718,-57.8106 126.119,-57.3963 129,-57 251.7397,-40.1152 397.3165,-23.0354 466.5399,-15.0923"/>
<polygon fill="#191970" stroke="#191970" points="467.0465,-18.5573 476.5835,-13.9425 466.2503,-11.6027 467.0465,-18.5573"/>
</g>
<!-- Node4&#45;&gt;Node7 -->
<g id="edge6" class="edge">
<title>Node4&#45;&gt;Node7</title>
<path fill="none" stroke="#191970" d="M87.8835,-57.4408C115.1447,-47.606 156.6375,-32.6371 185.4079,-22.2579"/>
<polygon fill="#191970" stroke="#191970" points="186.7908,-25.4799 195.0096,-18.794 184.4152,-18.8953 186.7908,-25.4799"/>
</g>
<!-- Node8 -->
<g id="node8" class="node">
<title>Node8</title>
<polygon fill="none" stroke="#bfbfbf" points="70.5,-.5 70.5,-20.5 115.5,-20.5 115.5,-.5 70.5,-.5"/>
<text text-anchor="middle" x="93" y="-7.5" font-family="FreeSans" font-size="10.00" fill="#000000">bitset</text>
</g>
<!-- Node4&#45;&gt;Node8 -->
<g id="edge7" class="edge">
<title>Node4&#45;&gt;Node8</title>
<path fill="none" stroke="#191970" d="M65.8997,-57.3095C70.3578,-49.6093 76.6062,-38.8166 81.9798,-29.5349"/>
<polygon fill="#191970" stroke="#191970" points="85.1699,-31.0102 87.1513,-20.6022 79.1119,-27.5029 85.1699,-31.0102"/>
</g>
<!-- Node9&#45;&gt;Node6 -->
<g id="edge10" class="edge">
<title>Node9&#45;&gt;Node6</title>
<path fill="none" stroke="#191970" d="M385.1187,-57.4408C409.0648,-48.2183 444.7337,-34.4809 471.3052,-24.2473"/>
<polygon fill="#191970" stroke="#191970" points="472.5706,-27.5106 480.6445,-20.6504 470.0548,-20.9784 472.5706,-27.5106"/>
</g>
<!-- Node10 -->
<g id="node10" class="node">
<title>Node10</title>
<polygon fill="none" stroke="#bfbfbf" points="326.5,-.5 326.5,-20.5 391.5,-20.5 391.5,-.5 326.5,-.5"/>
<text text-anchor="middle" x="359" y="-7.5" font-family="FreeSans" font-size="10.00" fill="#000000">TObject.h</text>
</g>
<!-- Node9&#45;&gt;Node10 -->
<g id="edge9" class="edge">
<title>Node9&#45;&gt;Node10</title>
<path fill="none" stroke="#191970" d="M359,-57.3095C359,-49.9335 359,-39.72 359,-30.715"/>
<polygon fill="#191970" stroke="#191970" points="362.5001,-30.6022 359,-20.6022 355.5001,-30.6023 362.5001,-30.6022"/>
</g>
<!-- Node11&#45;&gt;Node6 -->
<g id="edge12" class="edge">
<title>Node11&#45;&gt;Node6</title>
<path fill="none" stroke="#191970" d="M478.2573,-57.3095C483.0353,-49.5282 489.7523,-38.589 495.4916,-29.2423"/>
<polygon fill="#191970" stroke="#191970" points="498.5468,-30.9554 500.7969,-20.6022 492.5816,-27.2925 498.5468,-30.9554"/>
</g>
</g>
</svg>
