<?xml version="1.0" encoding="UTF-8" standalone="no"?>
<!DOCTYPE svg PUBLIC "-//W3C//DTD SVG 1.1//EN"
 "http://www.w3.org/Graphics/SVG/1.1/DTD/svg11.dtd">
<!-- Generated by graphviz version 2.40.1 (20161225.0304)
 -->
<!-- Title: EicRoot/blob/master/rich/qa/CbmRichTestSim.cxx Pages: 1 -->
<svg width="1779pt" height="326pt"
 viewBox="0.00 0.00 1778.50 326.00" xmlns="http://www.w3.org/2000/svg" xmlns:xlink="http://www.w3.org/1999/xlink">
<g id="graph0" class="graph" transform="scale(1 1) rotate(0) translate(4 322)">
<title>EicRoot/blob/master/rich/qa/CbmRichTestSim.cxx</title>
<!-- Node1 -->
<g id="node1" class="node">
<title>Node1</title>
<polygon fill="#bfbfbf" stroke="#000000" points="629,-285.5 629,-317.5 793,-317.5 793,-285.5 629,-285.5"/>
<text text-anchor="start" x="637" y="-304.5" font-family="FreeSans" font-size="10.00" fill="#000000">EicRoot/blob/master</text>
<text text-anchor="middle" x="711" y="-292.5" font-family="FreeSans" font-size="10.00" fill="#000000">/rich/qa/CbmRichTestSim.cxx</text>
</g>
<!-- Node2 -->
<g id="node2" class="node">
<title>Node2</title>
<g id="a_node2"><a xlink:href="../../d4/d91/CbmRichTestSim_8h.html" target="_top" xlink:title="This class fills some histograms for a fast check of simulated data.">
<polygon fill="none" stroke="#000000" points="66,-228.5 66,-248.5 176,-248.5 176,-228.5 66,-228.5"/>
<text text-anchor="middle" x="121" y="-235.5" font-family="FreeSans" font-size="10.00" fill="#000000">CbmRichTestSim.h</text>
</a>
</g>
</g>
<!-- Node1&#45;&gt;Node2 -->
<g id="edge1" class="edge">
<title>Node1&#45;&gt;Node2</title>
<path fill="none" stroke="#191970" d="M628.7393,-294.5061C525.9348,-285.4676 344.6792,-268.5497 190,-249 188.888,-248.8595 187.7663,-248.7154 186.637,-248.5682"/>
<polygon fill="#191970" stroke="#191970" points="186.7066,-245.0457 176.3272,-247.1712 185.7667,-251.9823 186.7066,-245.0457"/>
</g>
<!-- Node3 -->
<g id="node3" class="node">
<title>Node3</title>
<g id="a_node3"><a xlink:href="../../d8/d44/FairTask_8h.html" target="_top" xlink:title="FairTask.h">
<polygon fill="none" stroke="#000000" points="115.5,-171.5 115.5,-191.5 180.5,-191.5 180.5,-171.5 115.5,-171.5"/>
<text text-anchor="middle" x="148" y="-178.5" font-family="FreeSans" font-size="10.00" fill="#000000">FairTask.h</text>
</a>
</g>
</g>
<!-- Node1&#45;&gt;Node3 -->
<g id="edge31" class="edge">
<title>Node1&#45;&gt;Node3</title>
<path fill="none" stroke="#191970" d="M628.991,-298.3588C510.5653,-292.8499 298.1728,-279.0467 228,-249 201.9672,-237.8532 177.9839,-215.2647 163.2016,-199.2949"/>
<polygon fill="#191970" stroke="#191970" points="165.6269,-196.7567 156.3479,-191.6427 160.4125,-201.4269 165.6269,-196.7567"/>
</g>
<!-- Node9 -->
<g id="node9" class="node">
<title>Node9</title>
<g id="a_node9"><a xlink:href="../../d4/d92/FairRootManager_8h.html" target="_top" xlink:title="FairRootManager.h">
<polygon fill="none" stroke="#000000" points="207,-57.5 207,-77.5 317,-77.5 317,-57.5 207,-57.5"/>
<text text-anchor="middle" x="262" y="-64.5" font-family="FreeSans" font-size="10.00" fill="#000000">FairRootManager.h</text>
</a>
</g>
</g>
<!-- Node1&#45;&gt;Node9 -->
<g id="edge32" class="edge">
<title>Node1&#45;&gt;Node9</title>
<path fill="none" stroke="#191970" d="M628.77,-297.842C457.3713,-289.8185 76.1326,-269.73 57,-249 16.3064,-204.9088 19.5591,-160.8847 57,-114 74.3293,-92.2997 143.5068,-79.9666 196.7605,-73.5326"/>
<polygon fill="#191970" stroke="#191970" points="197.3113,-76.9922 206.8404,-72.3612 196.5032,-70.039 197.3113,-76.9922"/>
</g>
<!-- Node16 -->
<g id="node16" class="node">
<title>Node16</title>
<polygon fill="none" stroke="#bfbfbf" points="10.5,-.5 10.5,-20.5 49.5,-20.5 49.5,-.5 10.5,-.5"/>
<text text-anchor="middle" x="30" y="-7.5" font-family="FreeSans" font-size="10.00" fill="#000000">map</text>
</g>
<!-- Node1&#45;&gt;Node16 -->
<g id="edge73" class="edge">
<title>Node1&#45;&gt;Node16</title>
<path fill="none" stroke="#191970" d="M628.9526,-299.3952C460.3825,-294.4548 86.7497,-280.1064 38,-249 8.9777,-230.4813 0,-215.9272 0,-181.5 0,-181.5 0,-181.5 0,-124.5 0,-90.4018 12.7075,-52.3995 21.5816,-30.0184"/>
<polygon fill="#191970" stroke="#191970" points="24.873,-31.2173 25.4436,-20.6378 18.4001,-28.5523 24.873,-31.2173"/>
</g>
<!-- Node20 -->
<g id="node20" class="node">
<title>Node20</title>
<g id="a_node20"><a xlink:href="../../da/d34/CbmRichPoint_8h.html" target="_top" xlink:title="CbmRichPoint.h">
<polygon fill="none" stroke="#000000" points="424,-228.5 424,-248.5 520,-248.5 520,-228.5 424,-228.5"/>
<text text-anchor="middle" x="472" y="-235.5" font-family="FreeSans" font-size="10.00" fill="#000000">CbmRichPoint.h</text>
</a>
</g>
</g>
<!-- Node1&#45;&gt;Node20 -->
<g id="edge19" class="edge">
<title>Node1&#45;&gt;Node20</title>
<path fill="none" stroke="#191970" d="M650.0718,-285.4394C609.7454,-274.8095 557.5962,-261.063 520.1698,-251.1975"/>
<polygon fill="#191970" stroke="#191970" points="520.5879,-247.6882 510.0261,-248.5236 518.8036,-254.457 520.5879,-247.6882"/>
</g>
<!-- Node23 -->
<g id="node23" class="node">
<title>Node23</title>
<polygon fill="none" stroke="#bfbfbf" points="335,-57.5 335,-77.5 427,-77.5 427,-57.5 335,-57.5"/>
<text text-anchor="middle" x="381" y="-64.5" font-family="FreeSans" font-size="10.00" fill="#000000">TClonesArray.h</text>
</g>
<!-- Node1&#45;&gt;Node23 -->
<g id="edge69" class="edge">
<title>Node1&#45;&gt;Node23</title>
<path fill="none" stroke="#191970" d="M628.802,-294.0947C568.3774,-286.9434 484.9561,-273.4663 415,-249 314.755,-213.9406 259.3023,-226.266 205,-135 200.2276,-126.9791 199.3053,-121.3947 205,-114 212.5318,-104.2198 276.424,-89.0577 325.0779,-78.7256"/>
<polygon fill="#191970" stroke="#191970" points="325.8272,-82.1447 334.8933,-76.6623 324.3872,-75.2944 325.8272,-82.1447"/>
</g>
<!-- Node24 -->
<g id="node24" class="node">
<title>Node24</title>
<polygon fill="none" stroke="#bfbfbf" points="396.5,-114.5 396.5,-134.5 467.5,-134.5 467.5,-114.5 396.5,-114.5"/>
<text text-anchor="middle" x="432" y="-121.5" font-family="FreeSans" font-size="10.00" fill="#000000">TVector3.h</text>
</g>
<!-- Node1&#45;&gt;Node24 -->
<g id="edge70" class="edge">
<title>Node1&#45;&gt;Node24</title>
<path fill="none" stroke="#191970" d="M685.7485,-285.4803C632.4753,-251.6832 509.1693,-173.4569 456.5327,-140.0637"/>
<polygon fill="#191970" stroke="#191970" points="458.1653,-136.9546 447.8463,-134.553 454.4154,-142.8655 458.1653,-136.9546"/>
</g>
<!-- Node25 -->
<g id="node25" class="node">
<title>Node25</title>
<g id="a_node25"><a xlink:href="../../d9/d92/CbmGeoRichPar_8h.html" target="_top" xlink:title="CbmGeoRichPar.h">
<polygon fill="none" stroke="#000000" points="902,-228.5 902,-248.5 1008,-248.5 1008,-228.5 902,-228.5"/>
<text text-anchor="middle" x="955" y="-235.5" font-family="FreeSans" font-size="10.00" fill="#000000">CbmGeoRichPar.h</text>
</a>
</g>
</g>
<!-- Node1&#45;&gt;Node25 -->
<g id="edge26" class="edge">
<title>Node1&#45;&gt;Node25</title>
<path fill="none" stroke="#191970" d="M773.2028,-285.4394C814.5488,-274.764 868.0683,-260.9455 906.3115,-251.0712"/>
<polygon fill="#191970" stroke="#191970" points="907.371,-254.4125 916.1784,-248.5236 905.6209,-247.6348 907.371,-254.4125"/>
</g>
<!-- Node29 -->
<g id="node29" class="node">
<title>Node29</title>
<g id="a_node29"><a xlink:href="../../dd/d64/CbmMCTrack_8h.html" target="_top" xlink:title="CbmMCTrack.h">
<polygon fill="none" stroke="#000000" points="608.5,-171.5 608.5,-191.5 699.5,-191.5 699.5,-171.5 608.5,-171.5"/>
<text text-anchor="middle" x="654" y="-178.5" font-family="FreeSans" font-size="10.00" fill="#000000">CbmMCTrack.h</text>
</a>
</g>
</g>
<!-- Node1&#45;&gt;Node29 -->
<g id="edge33" class="edge">
<title>Node1&#45;&gt;Node29</title>
<path fill="none" stroke="#191970" d="M703.3127,-285.3163C692.9362,-263.471 674.4664,-224.5871 663.3141,-201.1085"/>
<polygon fill="#191970" stroke="#191970" points="666.3458,-199.3336 658.8937,-191.8025 660.0228,-202.337 666.3458,-199.3336"/>
</g>
<!-- Node33 -->
<g id="node33" class="node">
<title>Node33</title>
<g id="a_node33"><a xlink:href="../../d2/d7c/FairRunAna_8h.html" target="_top" xlink:title="FairRunAna.h">
<polygon fill="none" stroke="#000000" points="764,-171.5 764,-191.5 846,-191.5 846,-171.5 764,-171.5"/>
<text text-anchor="middle" x="805" y="-178.5" font-family="FreeSans" font-size="10.00" fill="#000000">FairRunAna.h</text>
</a>
</g>
</g>
<!-- Node1&#45;&gt;Node33 -->
<g id="edge40" class="edge">
<title>Node1&#45;&gt;Node33</title>
<path fill="none" stroke="#191970" d="M723.6773,-285.3163C741.0963,-263.0792 772.3454,-223.1867 790.6179,-199.8602"/>
<polygon fill="#191970" stroke="#191970" points="793.5184,-201.8331 796.9297,-191.8025 788.0078,-197.5165 793.5184,-201.8331"/>
</g>
<!-- Node38 -->
<g id="node38" class="node">
<title>Node38</title>
<polygon fill="none" stroke="#bfbfbf" points="1209,-114.5 1209,-134.5 1269,-134.5 1269,-114.5 1209,-114.5"/>
<text text-anchor="middle" x="1239" y="-121.5" font-family="FreeSans" font-size="10.00" fill="#000000">iostream</text>
</g>
<!-- Node1&#45;&gt;Node38 -->
<g id="edge74" class="edge">
<title>Node1&#45;&gt;Node38</title>
<path fill="none" stroke="#191970" d="M730.8688,-285.3803C770.4555,-253.5977 858.4141,-184.7326 894,-171 1018.7612,-122.8548 1063.4297,-159.0814 1198.9506,-134.9242"/>
<polygon fill="#191970" stroke="#191970" points="1199.6767,-138.3493 1208.8675,-133.0786 1198.3959,-131.4675 1199.6767,-138.3493"/>
</g>
<!-- Node39 -->
<g id="node39" class="node">
<title>Node39</title>
<g id="a_node39"><a xlink:href="../../d9/dac/FairRuntimeDb_8h.html" target="_top" xlink:title="FairRuntimeDb.h">
<polygon fill="none" stroke="#000000" points="796,-114.5 796,-134.5 896,-134.5 896,-114.5 796,-114.5"/>
<text text-anchor="middle" x="846" y="-121.5" font-family="FreeSans" font-size="10.00" fill="#000000">FairRuntimeDb.h</text>
</a>
</g>
</g>
<!-- Node1&#45;&gt;Node39 -->
<g id="edge51" class="edge">
<title>Node1&#45;&gt;Node39</title>
<path fill="none" stroke="#191970" d="M712.5546,-285.1174C715.8868,-258.3052 725.9515,-204.6733 755,-171 767.5937,-156.4012 785.8936,-145.8175 802.7857,-138.4707"/>
<polygon fill="#191970" stroke="#191970" points="804.5708,-141.5232 812.515,-134.5132 801.9333,-135.039 804.5708,-141.5232"/>
</g>
<!-- Node41 -->
<g id="node41" class="node">
<title>Node41</title>
<g id="a_node41"><a xlink:href="../../d1/d29/FairBaseParSet_8h.html" target="_top" xlink:title="FairBaseParSet.h">
<polygon fill="none" stroke="#000000" points="1026,-228.5 1026,-248.5 1126,-248.5 1126,-228.5 1026,-228.5"/>
<text text-anchor="middle" x="1076" y="-235.5" font-family="FreeSans" font-size="10.00" fill="#000000">FairBaseParSet.h</text>
</a>
</g>
</g>
<!-- Node1&#45;&gt;Node41 -->
<g id="edge55" class="edge">
<title>Node1&#45;&gt;Node41</title>
<path fill="none" stroke="#191970" d="M793.1708,-287.5443C852.3852,-277.4543 934.4917,-263.3959 1015.8724,-249.1901"/>
<polygon fill="#191970" stroke="#191970" points="1016.5433,-252.626 1025.7917,-247.4572 1015.3385,-245.7305 1016.5433,-252.626"/>
</g>
<!-- Node44 -->
<g id="node44" class="node">
<title>Node44</title>
<g id="a_node44"><a xlink:href="../../da/df5/FairGeoNode_8h.html" target="_top" xlink:title="FairGeoNode.h">
<polygon fill="none" stroke="#000000" points="1527,-171.5 1527,-191.5 1617,-191.5 1617,-171.5 1527,-171.5"/>
<text text-anchor="middle" x="1572" y="-178.5" font-family="FreeSans" font-size="10.00" fill="#000000">FairGeoNode.h</text>
</a>
</g>
</g>
<!-- Node1&#45;&gt;Node44 -->
<g id="edge59" class="edge">
<title>Node1&#45;&gt;Node44</title>
<path fill="none" stroke="#191970" d="M793.3927,-295.0413C898.3037,-286.1706 1073.3605,-269.0189 1135,-249 1153.3526,-243.0395 1154.6261,-233.8946 1173,-228 1235.6465,-207.9022 1422.6855,-192.1707 1516.7282,-185.2864"/>
<polygon fill="#191970" stroke="#191970" points="1517.1799,-188.763 1526.9009,-184.5497 1516.6742,-181.7812 1517.1799,-188.763"/>
</g>
<!-- Node49 -->
<g id="node49" class="node">
<title>Node49</title>
<polygon fill="none" stroke="#bfbfbf" points="1182,-228.5 1182,-248.5 1236,-248.5 1236,-228.5 1182,-228.5"/>
<text text-anchor="middle" x="1209" y="-235.5" font-family="FreeSans" font-size="10.00" fill="#000000">TH2D.h</text>
</g>
<!-- Node1&#45;&gt;Node49 -->
<g id="edge71" class="edge">
<title>Node1&#45;&gt;Node49</title>
<path fill="none" stroke="#191970" d="M793.2274,-295.4512C885.1036,-287.906 1038.0242,-272.9934 1168,-249 1169.26,-248.7674 1170.5385,-248.5178 1171.8273,-248.2545"/>
<polygon fill="#191970" stroke="#191970" points="1172.7758,-251.6289 1181.7679,-246.0259 1171.2444,-244.7984 1172.7758,-251.6289"/>
</g>
<!-- Node50 -->
<g id="node50" class="node">
<title>Node50</title>
<polygon fill="none" stroke="#bfbfbf" points="1254,-228.5 1254,-248.5 1308,-248.5 1308,-228.5 1254,-228.5"/>
<text text-anchor="middle" x="1281" y="-235.5" font-family="FreeSans" font-size="10.00" fill="#000000">TH1D.h</text>
</g>
<!-- Node1&#45;&gt;Node50 -->
<g id="edge72" class="edge">
<title>Node1&#45;&gt;Node50</title>
<path fill="none" stroke="#191970" d="M793.1013,-298.1654C896.3676,-292.9137 1079.0829,-280.1173 1243.3205,-249.0344"/>
<polygon fill="#191970" stroke="#191970" points="1244.451,-252.3813 1253.6113,-247.0578 1243.1306,-245.5069 1244.451,-252.3813"/>
</g>
<!-- Node2&#45;&gt;Node3 -->
<g id="edge2" class="edge">
<title>Node2&#45;&gt;Node3</title>
<path fill="none" stroke="#191970" d="M125.8271,-228.3095C129.4362,-220.6903 134.4794,-210.0435 138.8444,-200.8285"/>
<polygon fill="#191970" stroke="#191970" points="142.0969,-202.1379 143.2147,-191.6022 135.7707,-199.1413 142.0969,-202.1379"/>
</g>
<!-- Node4 -->
<g id="node4" class="node">
<title>Node4</title>
<g id="a_node4"><a xlink:href="../../d5/de4/FairLogger_8h.html" target="_top" xlink:title="FairLogger.h">
<polygon fill="none" stroke="#000000" points="1120.5,-57.5 1120.5,-77.5 1197.5,-77.5 1197.5,-57.5 1120.5,-57.5"/>
<text text-anchor="middle" x="1159" y="-64.5" font-family="FreeSans" font-size="10.00" fill="#000000">FairLogger.h</text>
</a>
</g>
</g>
<!-- Node3&#45;&gt;Node4 -->
<g id="edge3" class="edge">
<title>Node3&#45;&gt;Node4</title>
<path fill="none" stroke="#191970" d="M180.6447,-176.6498C220.8951,-170.0528 290.9746,-156.5421 348,-135 366.4162,-128.043 368.0444,-119.3143 387,-114 533.1322,-73.0309 917.7742,-90.7998 1069,-78 1082.3653,-76.8688 1096.8116,-75.3263 1110.1362,-73.772"/>
<polygon fill="#191970" stroke="#191970" points="1110.555,-77.2469 1120.0704,-72.5877 1109.7264,-70.2961 1110.555,-77.2469"/>
</g>
<!-- Node3&#45;&gt;Node9 -->
<g id="edge8" class="edge">
<title>Node3&#45;&gt;Node9</title>
<path fill="none" stroke="#191970" d="M149.2712,-171.1641C151.5241,-156.7958 157.4394,-130.6766 172,-114 184.6669,-99.4922 202.9654,-88.8876 219.7596,-81.5015"/>
<polygon fill="#191970" stroke="#191970" points="221.5085,-84.5663 229.42,-77.5194 218.8408,-78.0946 221.5085,-84.5663"/>
</g>
<!-- Node19 -->
<g id="node19" class="node">
<title>Node19</title>
<polygon fill="none" stroke="#bfbfbf" points="66,-114.5 66,-134.5 120,-134.5 120,-114.5 66,-114.5"/>
<text text-anchor="middle" x="93" y="-121.5" font-family="FreeSans" font-size="10.00" fill="#000000">TTask.h</text>
</g>
<!-- Node3&#45;&gt;Node19 -->
<g id="edge18" class="edge">
<title>Node3&#45;&gt;Node19</title>
<path fill="none" stroke="#191970" d="M138.1671,-171.3095C130.346,-163.204 119.2185,-151.672 109.9656,-142.0826"/>
<polygon fill="#191970" stroke="#191970" points="112.2102,-139.3681 102.7478,-134.6022 107.1728,-144.2288 112.2102,-139.3681"/>
</g>
<!-- Node5 -->
<g id="node5" class="node">
<title>Node5</title>
<polygon fill="none" stroke="#bfbfbf" points="1129,-.5 1129,-20.5 1189,-20.5 1189,-.5 1129,-.5"/>
<text text-anchor="middle" x="1159" y="-7.5" font-family="FreeSans" font-size="10.00" fill="#000000">Rtypes.h</text>
</g>
<!-- Node4&#45;&gt;Node5 -->
<g id="edge4" class="edge">
<title>Node4&#45;&gt;Node5</title>
<path fill="none" stroke="#191970" d="M1159,-57.3095C1159,-49.9335 1159,-39.72 1159,-30.715"/>
<polygon fill="#191970" stroke="#191970" points="1162.5001,-30.6022 1159,-20.6022 1155.5001,-30.6023 1162.5001,-30.6022"/>
</g>
<!-- Node6 -->
<g id="node6" class="node">
<title>Node6</title>
<polygon fill="none" stroke="#bfbfbf" points="1207.5,-.5 1207.5,-20.5 1264.5,-20.5 1264.5,-.5 1207.5,-.5"/>
<text text-anchor="middle" x="1236" y="-7.5" font-family="FreeSans" font-size="10.00" fill="#000000">ostream</text>
</g>
<!-- Node4&#45;&gt;Node6 -->
<g id="edge5" class="edge">
<title>Node4&#45;&gt;Node6</title>
<path fill="none" stroke="#191970" d="M1172.7661,-57.3095C1184.2631,-48.7987 1200.8634,-36.5102 1214.1707,-26.6594"/>
<polygon fill="#191970" stroke="#191970" points="1216.3981,-29.3652 1222.3531,-20.6022 1212.2332,-23.7389 1216.3981,-29.3652"/>
</g>
<!-- Node7 -->
<g id="node7" class="node">
<title>Node7</title>
<polygon fill="none" stroke="#bfbfbf" points="1348.5,-.5 1348.5,-20.5 1403.5,-20.5 1403.5,-.5 1348.5,-.5"/>
<text text-anchor="middle" x="1376" y="-7.5" font-family="FreeSans" font-size="10.00" fill="#000000">fstream</text>
</g>
<!-- Node4&#45;&gt;Node7 -->
<g id="edge6" class="edge">
<title>Node4&#45;&gt;Node7</title>
<path fill="none" stroke="#191970" d="M1197.2957,-57.4408C1237.1426,-46.9741 1299.1281,-30.6922 1338.6284,-20.3165"/>
<polygon fill="#191970" stroke="#191970" points="1339.6205,-23.6747 1348.4032,-17.7489 1337.8421,-16.9044 1339.6205,-23.6747"/>
</g>
<!-- Node8 -->
<g id="node8" class="node">
<title>Node8</title>
<polygon fill="none" stroke="#bfbfbf" points="961.5,-.5 961.5,-20.5 1018.5,-20.5 1018.5,-.5 961.5,-.5"/>
<text text-anchor="middle" x="990" y="-7.5" font-family="FreeSans" font-size="10.00" fill="#000000">iomanip</text>
</g>
<!-- Node4&#45;&gt;Node8 -->
<g id="edge7" class="edge">
<title>Node4&#45;&gt;Node8</title>
<path fill="none" stroke="#191970" d="M1129.1752,-57.4408C1101.044,-47.9527 1058.7447,-33.6861 1028.1651,-23.3722"/>
<polygon fill="#191970" stroke="#191970" points="1029.2754,-20.0531 1018.6813,-20.1736 1027.0382,-26.686 1029.2754,-20.0531"/>
</g>
<!-- Node10 -->
<g id="node10" class="node">
<title>Node10</title>
<polygon fill="none" stroke="#bfbfbf" points="655.5,-.5 655.5,-20.5 720.5,-20.5 720.5,-.5 655.5,-.5"/>
<text text-anchor="middle" x="688" y="-7.5" font-family="FreeSans" font-size="10.00" fill="#000000">TObject.h</text>
</g>
<!-- Node9&#45;&gt;Node10 -->
<g id="edge9" class="edge">
<title>Node9&#45;&gt;Node10</title>
<path fill="none" stroke="#191970" d="M317.139,-58.3285C320.1348,-57.8693 323.1033,-57.4235 326,-57 441.1579,-40.1625 577.4171,-23.5491 645.2182,-15.5057"/>
<polygon fill="#191970" stroke="#191970" points="645.9788,-18.9402 655.4984,-14.2897 645.1565,-11.9887 645.9788,-18.9402"/>
</g>
<!-- Node11 -->
<g id="node11" class="node">
<title>Node11</title>
<polygon fill="none" stroke="#bfbfbf" points="521.5,-.5 521.5,-20.5 584.5,-20.5 584.5,-.5 521.5,-.5"/>
<text text-anchor="middle" x="553" y="-7.5" font-family="FreeSans" font-size="10.00" fill="#000000">TString.h</text>
</g>
<!-- Node9&#45;&gt;Node11 -->
<g id="edge10" class="edge">
<title>Node9&#45;&gt;Node11</title>
<path fill="none" stroke="#191970" d="M313.3551,-57.4408C369.7999,-46.3846 459.3714,-28.8396 511.5369,-18.6216"/>
<polygon fill="#191970" stroke="#191970" points="512.3097,-22.0369 521.4504,-16.6798 510.9641,-15.1674 512.3097,-22.0369"/>
</g>
<!-- Node12 -->
<g id="node12" class="node">
<title>Node12</title>
<polygon fill="none" stroke="#bfbfbf" points="83,-.5 83,-20.5 145,-20.5 145,-.5 83,-.5"/>
<text text-anchor="middle" x="114" y="-7.5" font-family="FreeSans" font-size="10.00" fill="#000000">TArrayI.h</text>
</g>
<!-- Node9&#45;&gt;Node12 -->
<g id="edge11" class="edge">
<title>Node9&#45;&gt;Node12</title>
<path fill="none" stroke="#191970" d="M235.8813,-57.4408C211.9352,-48.2183 176.2663,-34.4809 149.6948,-24.2473"/>
<polygon fill="#191970" stroke="#191970" points="150.9452,-20.9784 140.3555,-20.6504 148.4294,-27.5106 150.9452,-20.9784"/>
</g>
<!-- Node13 -->
<g id="node13" class="node">
<title>Node13</title>
<polygon fill="none" stroke="#bfbfbf" points="1036.5,-.5 1036.5,-20.5 1111.5,-20.5 1111.5,-.5 1036.5,-.5"/>
<text text-anchor="middle" x="1074" y="-7.5" font-family="FreeSans" font-size="10.00" fill="#000000">TObjArray.h</text>
</g>
<!-- Node9&#45;&gt;Node13 -->
<g id="edge12" class="edge">
<title>Node9&#45;&gt;Node13</title>
<path fill="none" stroke="#191970" d="M317.1049,-58.0595C320.1095,-57.6697 323.0892,-57.3124 326,-57 633.289,-24.0172 716.7661,-63.0657 1026.279,-21.0286"/>
<polygon fill="#191970" stroke="#191970" points="1027.0128,-24.4607 1036.4424,-19.6303 1026.0587,-17.526 1027.0128,-24.4607"/>
</g>
<!-- Node14 -->
<g id="node14" class="node">
<title>Node14</title>
<polygon fill="none" stroke="#bfbfbf" points="163,-.5 163,-20.5 213,-20.5 213,-.5 163,-.5"/>
<text text-anchor="middle" x="188" y="-7.5" font-family="FreeSans" font-size="10.00" fill="#000000">TFile.h</text>
</g>
<!-- Node9&#45;&gt;Node14 -->
<g id="edge13" class="edge">
<title>Node9&#45;&gt;Node14</title>
<path fill="none" stroke="#191970" d="M248.7703,-57.3095C237.8264,-48.8798 222.071,-36.7439 209.3451,-26.9415"/>
<polygon fill="#191970" stroke="#191970" points="211.1733,-23.9318 201.1152,-20.6022 206.9016,-29.4773 211.1733,-23.9318"/>
</g>
<!-- Node15 -->
<g id="node15" class="node">
<title>Node15</title>
<polygon fill="none" stroke="#bfbfbf" points="231.5,-.5 231.5,-20.5 292.5,-20.5 292.5,-.5 231.5,-.5"/>
<text text-anchor="middle" x="262" y="-7.5" font-family="FreeSans" font-size="10.00" fill="#000000">TChain.h</text>
</g>
<!-- Node9&#45;&gt;Node15 -->
<g id="edge14" class="edge">
<title>Node9&#45;&gt;Node15</title>
<path fill="none" stroke="#191970" d="M262,-57.3095C262,-49.9335 262,-39.72 262,-30.715"/>
<polygon fill="#191970" stroke="#191970" points="265.5001,-30.6022 262,-20.6022 258.5001,-30.6023 265.5001,-30.6022"/>
</g>
<!-- Node9&#45;&gt;Node16 -->
<g id="edge15" class="edge">
<title>Node9&#45;&gt;Node16</title>
<path fill="none" stroke="#191970" d="M221.0571,-57.4408C174.7462,-46.0626 100.4647,-27.8125 59.501,-17.7481"/>
<polygon fill="#191970" stroke="#191970" points="60.1476,-14.3029 49.6013,-15.3158 58.4774,-21.1008 60.1476,-14.3029"/>
</g>
<!-- Node17 -->
<g id="node17" class="node">
<title>Node17</title>
<polygon fill="none" stroke="#bfbfbf" points="311,-.5 311,-20.5 343,-20.5 343,-.5 311,-.5"/>
<text text-anchor="middle" x="327" y="-7.5" font-family="FreeSans" font-size="10.00" fill="#000000">list</text>
</g>
<!-- Node9&#45;&gt;Node17 -->
<g id="edge16" class="edge">
<title>Node9&#45;&gt;Node17</title>
<path fill="none" stroke="#191970" d="M273.6207,-57.3095C283.1412,-48.9608 296.807,-36.9769 307.9277,-27.2249"/>
<polygon fill="#191970" stroke="#191970" points="310.2689,-29.827 315.4799,-20.6022 305.6536,-24.564 310.2689,-29.827"/>
</g>
<!-- Node18 -->
<g id="node18" class="node">
<title>Node18</title>
<polygon fill="none" stroke="#bfbfbf" points="361,-.5 361,-20.5 409,-20.5 409,-.5 361,-.5"/>
<text text-anchor="middle" x="385" y="-7.5" font-family="FreeSans" font-size="10.00" fill="#000000">queue</text>
</g>
<!-- Node9&#45;&gt;Node18 -->
<g id="edge17" class="edge">
<title>Node9&#45;&gt;Node18</title>
<path fill="none" stroke="#191970" d="M283.7068,-57.4408C303.1715,-48.4205 331.9562,-35.0813 353.8712,-24.9255"/>
<polygon fill="#191970" stroke="#191970" points="355.495,-28.0307 363.0965,-20.6504 352.5517,-21.6795 355.495,-28.0307"/>
</g>
<!-- Node21 -->
<g id="node21" class="node">
<title>Node21</title>
<g id="a_node21"><a xlink:href="../../d1/d72/FairMCPoint_8h.html" target="_top" xlink:title="FairMCPoint.h">
<polygon fill="none" stroke="#000000" points="390,-171.5 390,-191.5 474,-191.5 474,-171.5 390,-171.5"/>
<text text-anchor="middle" x="432" y="-178.5" font-family="FreeSans" font-size="10.00" fill="#000000">FairMCPoint.h</text>
</a>
</g>
</g>
<!-- Node20&#45;&gt;Node21 -->
<g id="edge20" class="edge">
<title>Node20&#45;&gt;Node21</title>
<path fill="none" stroke="#191970" d="M464.8488,-228.3095C459.3313,-220.4472 451.5514,-209.3608 444.9479,-199.9507"/>
<polygon fill="#191970" stroke="#191970" points="447.6985,-197.7773 439.0893,-191.6022 441.9686,-201.7983 447.6985,-197.7773"/>
</g>
<!-- Node22 -->
<g id="node22" class="node">
<title>Node22</title>
<g id="a_node22"><a xlink:href="../../d8/d4b/FairMultiLinkedData_8h.html" target="_top" xlink:title="FairMultiLinkedData.h">
<polygon fill="none" stroke="#ff0000" points="214.5,-114.5 214.5,-134.5 339.5,-134.5 339.5,-114.5 214.5,-114.5"/>
<text text-anchor="middle" x="277" y="-121.5" font-family="FreeSans" font-size="10.00" fill="#000000">FairMultiLinkedData.h</text>
</a>
</g>
</g>
<!-- Node21&#45;&gt;Node22 -->
<g id="edge21" class="edge">
<title>Node21&#45;&gt;Node22</title>
<path fill="none" stroke="#191970" d="M404.6459,-171.4408C379.3795,-162.1492 341.6513,-148.275 313.7597,-138.0181"/>
<polygon fill="#191970" stroke="#191970" points="314.9344,-134.721 304.3409,-134.5544 312.5184,-141.2908 314.9344,-134.721"/>
</g>
<!-- Node21&#45;&gt;Node24 -->
<g id="edge25" class="edge">
<title>Node21&#45;&gt;Node24</title>
<path fill="none" stroke="#191970" d="M432,-171.3095C432,-163.9335 432,-153.72 432,-144.715"/>
<polygon fill="#191970" stroke="#191970" points="435.5001,-144.6022 432,-134.6022 428.5001,-144.6023 435.5001,-144.6022"/>
</g>
<!-- Node22&#45;&gt;Node9 -->
<g id="edge22" class="edge">
<title>Node22&#45;&gt;Node9</title>
<path fill="none" stroke="#191970" d="M274.3183,-114.3095C272.3559,-106.8524 269.6303,-96.4951 267.2417,-87.4186"/>
<polygon fill="#191970" stroke="#191970" points="270.5883,-86.3822 264.6585,-77.6022 263.8187,-88.1637 270.5883,-86.3822"/>
</g>
<!-- Node22&#45;&gt;Node10 -->
<g id="edge24" class="edge">
<title>Node22&#45;&gt;Node10</title>
<path fill="none" stroke="#191970" d="M313.1133,-114.4832C388.9099,-93.4593 564.2645,-44.8208 645.3996,-22.3162"/>
<polygon fill="#191970" stroke="#191970" points="646.5771,-25.6218 655.2778,-19.5762 644.7061,-18.8765 646.5771,-25.6218"/>
</g>
<!-- Node22&#45;&gt;Node23 -->
<g id="edge23" class="edge">
<title>Node22&#45;&gt;Node23</title>
<path fill="none" stroke="#191970" d="M295.5931,-114.3095C311.7132,-105.4745 335.2611,-92.5684 353.5503,-82.5445"/>
<polygon fill="#191970" stroke="#191970" points="355.4808,-85.4778 362.5679,-77.6022 352.1164,-79.3393 355.4808,-85.4778"/>
</g>
<!-- Node26 -->
<g id="node26" class="node">
<title>Node26</title>
<g id="a_node26"><a xlink:href="../../d1/d65/FairParGenericSet_8h.html" target="_top" xlink:title="FairParGenericSet.h">
<polygon fill="none" stroke="#000000" points="902.5,-171.5 902.5,-191.5 1017.5,-191.5 1017.5,-171.5 902.5,-171.5"/>
<text text-anchor="middle" x="960" y="-178.5" font-family="FreeSans" font-size="10.00" fill="#000000">FairParGenericSet.h</text>
</a>
</g>
</g>
<!-- Node25&#45;&gt;Node26 -->
<g id="edge27" class="edge">
<title>Node25&#45;&gt;Node26</title>
<path fill="none" stroke="#191970" d="M955.8939,-228.3095C956.5409,-220.9335 957.4368,-210.72 958.2268,-201.715"/>
<polygon fill="#191970" stroke="#191970" points="961.7265,-201.8699 959.1138,-191.6022 954.7533,-201.2581 961.7265,-201.8699"/>
</g>
<!-- Node27 -->
<g id="node27" class="node">
<title>Node27</title>
<g id="a_node27"><a xlink:href="../../df/dd2/FairParSet_8h.html" target="_top" xlink:title="FairParSet.h">
<polygon fill="none" stroke="#000000" points="1287,-114.5 1287,-134.5 1363,-134.5 1363,-114.5 1287,-114.5"/>
<text text-anchor="middle" x="1325" y="-121.5" font-family="FreeSans" font-size="10.00" fill="#000000">FairParSet.h</text>
</a>
</g>
</g>
<!-- Node26&#45;&gt;Node27 -->
<g id="edge28" class="edge">
<title>Node26&#45;&gt;Node27</title>
<path fill="none" stroke="#191970" d="M1017.7362,-172.403C1020.8692,-171.9246 1023.9727,-171.4543 1027,-171 1135.2929,-154.749 1165.4546,-155.257 1276.8773,-135.1022"/>
<polygon fill="#191970" stroke="#191970" points="1277.6214,-138.5243 1286.8309,-133.2863 1276.365,-131.638 1277.6214,-138.5243"/>
</g>
<!-- Node27&#45;&gt;Node4 -->
<g id="edge29" class="edge">
<title>Node27&#45;&gt;Node4</title>
<path fill="none" stroke="#191970" d="M1295.7046,-114.4408C1268.527,-105.1087 1227.8863,-91.1537 1197.9777,-80.8839"/>
<polygon fill="#191970" stroke="#191970" points="1198.8759,-77.4918 1188.2812,-77.5544 1196.6025,-84.1124 1198.8759,-77.4918"/>
</g>
<!-- Node28 -->
<g id="node28" class="node">
<title>Node28</title>
<polygon fill="none" stroke="#bfbfbf" points="1304.5,-57.5 1304.5,-77.5 1373.5,-77.5 1373.5,-57.5 1304.5,-57.5"/>
<text text-anchor="middle" x="1339" y="-64.5" font-family="FreeSans" font-size="10.00" fill="#000000">TNamed.h</text>
</g>
<!-- Node27&#45;&gt;Node28 -->
<g id="edge30" class="edge">
<title>Node27&#45;&gt;Node28</title>
<path fill="none" stroke="#191970" d="M1327.5029,-114.3095C1329.3345,-106.8524 1331.8784,-96.4951 1334.1077,-87.4186"/>
<polygon fill="#191970" stroke="#191970" points="1337.5324,-88.1485 1336.5187,-77.6022 1330.7344,-86.4787 1337.5324,-88.1485"/>
</g>
<!-- Node29&#45;&gt;Node10 -->
<g id="edge36" class="edge">
<title>Node29&#45;&gt;Node10</title>
<path fill="none" stroke="#191970" d="M662.3128,-171.4733C676.204,-153.9007 703.3662,-115.8023 711,-78 712.8475,-68.8513 713.1248,-66.0883 711,-57 708.76,-47.4188 704.243,-37.5466 699.8005,-29.3768"/>
<polygon fill="#191970" stroke="#191970" points="702.8055,-27.5816 694.7605,-20.6875 696.7503,-31.0938 702.8055,-27.5816"/>
</g>
<!-- Node29&#45;&gt;Node24 -->
<g id="edge38" class="edge">
<title>Node29&#45;&gt;Node24</title>
<path fill="none" stroke="#191970" d="M614.8219,-171.4408C576.4949,-161.6 518.1472,-146.6189 477.7201,-136.2389"/>
<polygon fill="#191970" stroke="#191970" points="478.4075,-132.802 467.8512,-133.705 476.6666,-139.5821 478.4075,-132.802"/>
</g>
<!-- Node30 -->
<g id="node30" class="node">
<title>Node30</title>
<g id="a_node30"><a xlink:href="../../d7/d92/CbmDetectorList_8h.html" target="_top" xlink:title="Defines unique identifiers (enum) for all CBM detector systems.">
<polygon fill="none" stroke="#000000" points="592,-57.5 592,-77.5 702,-77.5 702,-57.5 592,-57.5"/>
<text text-anchor="middle" x="647" y="-64.5" font-family="FreeSans" font-size="10.00" fill="#000000">CbmDetectorList.h</text>
</a>
</g>
</g>
<!-- Node29&#45;&gt;Node30 -->
<g id="edge34" class="edge">
<title>Node29&#45;&gt;Node30</title>
<path fill="none" stroke="#191970" d="M660.2435,-171.4696C667.6444,-158.3152 678.3416,-134.4985 673,-114 670.4242,-104.1155 665.2322,-94.1055 660.1605,-85.9178"/>
<polygon fill="#191970" stroke="#191970" points="663.065,-83.9647 654.6313,-77.5518 657.2251,-87.8242 663.065,-83.9647"/>
</g>
<!-- Node31 -->
<g id="node31" class="node">
<title>Node31</title>
<polygon fill="none" stroke="#bfbfbf" points="486,-114.5 486,-134.5 544,-134.5 544,-114.5 486,-114.5"/>
<text text-anchor="middle" x="515" y="-121.5" font-family="FreeSans" font-size="10.00" fill="#000000">TMath.h</text>
</g>
<!-- Node29&#45;&gt;Node31 -->
<g id="edge37" class="edge">
<title>Node29&#45;&gt;Node31</title>
<path fill="none" stroke="#191970" d="M629.4696,-171.4408C607.1769,-162.2992 574.0667,-148.7216 549.1828,-138.5174"/>
<polygon fill="#191970" stroke="#191970" points="550.333,-135.2063 539.7528,-134.6504 547.6771,-141.6829 550.333,-135.2063"/>
</g>
<!-- Node32 -->
<g id="node32" class="node">
<title>Node32</title>
<polygon fill="none" stroke="#bfbfbf" points="562.5,-114.5 562.5,-134.5 663.5,-134.5 663.5,-114.5 562.5,-114.5"/>
<text text-anchor="middle" x="613" y="-121.5" font-family="FreeSans" font-size="10.00" fill="#000000">TLorentzVector.h</text>
</g>
<!-- Node29&#45;&gt;Node32 -->
<g id="edge39" class="edge">
<title>Node29&#45;&gt;Node32</title>
<path fill="none" stroke="#191970" d="M646.67,-171.3095C641.0146,-163.4472 633.0402,-152.3608 626.2716,-142.9507"/>
<polygon fill="#191970" stroke="#191970" points="628.9472,-140.6765 620.2665,-134.6022 623.2645,-144.7641 628.9472,-140.6765"/>
</g>
<!-- Node30&#45;&gt;Node10 -->
<g id="edge35" class="edge">
<title>Node30&#45;&gt;Node10</title>
<path fill="none" stroke="#191970" d="M654.33,-57.3095C659.9854,-49.4472 667.9598,-38.3608 674.7284,-28.9507"/>
<polygon fill="#191970" stroke="#191970" points="677.7355,-30.7641 680.7335,-20.6022 672.0528,-26.6765 677.7355,-30.7641"/>
</g>
<!-- Node33&#45;&gt;Node9 -->
<g id="edge47" class="edge">
<title>Node33&#45;&gt;Node9</title>
<path fill="none" stroke="#191970" d="M789.938,-171.4282C766.2087,-156.1237 718.1621,-127.3805 673,-114 527.5315,-70.9012 481.6476,-97.3646 327.4431,-78.0937"/>
<polygon fill="#191970" stroke="#191970" points="327.4939,-74.5711 317.1271,-76.757 326.5944,-81.5131 327.4939,-74.5711"/>
</g>
<!-- Node33&#45;&gt;Node11 -->
<g id="edge49" class="edge">
<title>Node33&#45;&gt;Node11</title>
<path fill="none" stroke="#191970" d="M846.1357,-173.44C867.5995,-166.9216 892.0271,-155.3393 905,-135 920.7435,-110.3169 889.5798,-64.2729 880,-57 868.7379,-48.4499 680.6555,-25.4647 594.9535,-15.3688"/>
<polygon fill="#191970" stroke="#191970" points="595.1244,-11.8649 584.7845,-14.1748 594.308,-18.8172 595.1244,-11.8649"/>
</g>
<!-- Node34 -->
<g id="node34" class="node">
<title>Node34</title>
<g id="a_node34"><a xlink:href="../../df/d06/FairRun_8h.html" target="_top" xlink:title="FairRun.h">
<polygon fill="none" stroke="#000000" points="1127.5,-114.5 1127.5,-134.5 1190.5,-134.5 1190.5,-114.5 1127.5,-114.5"/>
<text text-anchor="middle" x="1159" y="-121.5" font-family="FreeSans" font-size="10.00" fill="#000000">FairRun.h</text>
</a>
</g>
</g>
<!-- Node33&#45;&gt;Node34 -->
<g id="edge41" class="edge">
<title>Node33&#45;&gt;Node34</title>
<path fill="none" stroke="#191970" d="M846.105,-173.4177C850.7853,-172.5673 855.4919,-171.7431 860,-171 971.5347,-152.6141 1003.3156,-157.5007 1117.3836,-135.1603"/>
<polygon fill="#191970" stroke="#191970" points="1118.0757,-138.5913 1127.2025,-133.2105 1116.7122,-131.7254 1118.0757,-138.5913"/>
</g>
<!-- Node35 -->
<g id="node35" class="node">
<title>Node35</title>
<g id="a_node35"><a xlink:href="../../d5/d2a/FairRunInfo_8h.html" target="_top" xlink:title="FairRunInfo.h">
<polygon fill="none" stroke="#ff0000" points="952,-114.5 952,-134.5 1034,-134.5 1034,-114.5 952,-114.5"/>
<text text-anchor="middle" x="993" y="-121.5" font-family="FreeSans" font-size="10.00" fill="#000000">FairRunInfo.h</text>
</a>
</g>
</g>
<!-- Node33&#45;&gt;Node35 -->
<g id="edge44" class="edge">
<title>Node33&#45;&gt;Node35</title>
<path fill="none" stroke="#191970" d="M838.1779,-171.4408C869.3589,-161.9869 916.1875,-147.7889 950.1757,-137.484"/>
<polygon fill="#191970" stroke="#191970" points="951.2839,-140.8054 959.8382,-134.5544 949.2528,-134.1065 951.2839,-140.8054"/>
</g>
<!-- Node37 -->
<g id="node37" class="node">
<title>Node37</title>
<polygon fill="none" stroke="#bfbfbf" points="1052.5,-114.5 1052.5,-134.5 1109.5,-134.5 1109.5,-114.5 1052.5,-114.5"/>
<text text-anchor="middle" x="1081" y="-121.5" font-family="FreeSans" font-size="10.00" fill="#000000">TProof.h</text>
</g>
<!-- Node33&#45;&gt;Node37 -->
<g id="edge48" class="edge">
<title>Node33&#45;&gt;Node37</title>
<path fill="none" stroke="#191970" d="M846.1588,-173.6369C903.2296,-162.7094 1003.0202,-143.5066 1042.2949,-134.9431"/>
<polygon fill="#191970" stroke="#191970" points="1043.4469,-138.2709 1052.4265,-132.6479 1041.9003,-131.4438 1043.4469,-138.2709"/>
</g>
<!-- Node33&#45;&gt;Node38 -->
<g id="edge50" class="edge">
<title>Node33&#45;&gt;Node38</title>
<path fill="none" stroke="#191970" d="M846.082,-173.2705C850.7665,-172.4471 855.4804,-171.6695 860,-171 1007.0861,-149.2116 1048.8335,-162.2492 1198.835,-134.9698"/>
<polygon fill="#191970" stroke="#191970" points="1199.6771,-138.3735 1208.8741,-133.1138 1198.4045,-131.4901 1199.6771,-138.3735"/>
</g>
<!-- Node34&#45;&gt;Node4 -->
<g id="edge43" class="edge">
<title>Node34&#45;&gt;Node4</title>
<path fill="none" stroke="#191970" d="M1159,-114.3095C1159,-106.9335 1159,-96.72 1159,-87.715"/>
<polygon fill="#191970" stroke="#191970" points="1162.5001,-87.6022 1159,-77.6022 1155.5001,-87.6023 1162.5001,-87.6022"/>
</g>
<!-- Node34&#45;&gt;Node28 -->
<g id="edge42" class="edge">
<title>Node34&#45;&gt;Node28</title>
<path fill="none" stroke="#191970" d="M1190.766,-114.4408C1220.4921,-105.0275 1265.0715,-90.9107 1297.5784,-80.6169"/>
<polygon fill="#191970" stroke="#191970" points="1298.7725,-83.9101 1307.2493,-77.5544 1296.6592,-77.2367 1298.7725,-83.9101"/>
</g>
<!-- Node35&#45;&gt;Node10 -->
<g id="edge45" class="edge">
<title>Node35&#45;&gt;Node10</title>
<path fill="none" stroke="#191970" d="M987.801,-114.3594C979.4776,-99.2326 961.6606,-71.0383 938,-57 903.6344,-36.6102 792.8602,-21.8052 730.9246,-14.8823"/>
<polygon fill="#191970" stroke="#191970" points="731.0119,-11.371 720.69,-13.7604 730.249,-18.3293 731.0119,-11.371"/>
</g>
<!-- Node36 -->
<g id="node36" class="node">
<title>Node36</title>
<polygon fill="none" stroke="#bfbfbf" points="990,-57.5 990,-77.5 1060,-77.5 1060,-57.5 990,-57.5"/>
<text text-anchor="middle" x="1025" y="-64.5" font-family="FreeSans" font-size="10.00" fill="#000000">TSystem.h</text>
</g>
<!-- Node35&#45;&gt;Node36 -->
<g id="edge46" class="edge">
<title>Node35&#45;&gt;Node36</title>
<path fill="none" stroke="#191970" d="M998.721,-114.3095C1003.0439,-106.6093 1009.103,-95.8166 1014.3138,-86.5349"/>
<polygon fill="#191970" stroke="#191970" points="1017.4851,-88.0355 1019.3286,-77.6022 1011.3812,-84.6087 1017.4851,-88.0355"/>
</g>
<!-- Node39&#45;&gt;Node4 -->
<g id="edge54" class="edge">
<title>Node39&#45;&gt;Node4</title>
<path fill="none" stroke="#191970" d="M896.2889,-115.342C955.1392,-104.6248 1051.9289,-86.9986 1110.1517,-76.3957"/>
<polygon fill="#191970" stroke="#191970" points="1110.9943,-79.7999 1120.2054,-74.5648 1109.7401,-72.9132 1110.9943,-79.7999"/>
</g>
<!-- Node39&#45;&gt;Node10 -->
<g id="edge52" class="edge">
<title>Node39&#45;&gt;Node10</title>
<path fill="none" stroke="#191970" d="M831.9786,-114.3833C804.5242,-94.5744 743.4767,-50.5275 710.3772,-26.6456"/>
<polygon fill="#191970" stroke="#191970" points="712.3746,-23.7708 702.2171,-20.7579 708.2787,-29.4475 712.3746,-23.7708"/>
</g>
<!-- Node40 -->
<g id="node40" class="node">
<title>Node40</title>
<polygon fill="none" stroke="#bfbfbf" points="821,-57.5 821,-77.5 871,-77.5 871,-57.5 821,-57.5"/>
<text text-anchor="middle" x="846" y="-64.5" font-family="FreeSans" font-size="10.00" fill="#000000">TList.h</text>
</g>
<!-- Node39&#45;&gt;Node40 -->
<g id="edge53" class="edge">
<title>Node39&#45;&gt;Node40</title>
<path fill="none" stroke="#191970" d="M846,-114.3095C846,-106.9335 846,-96.72 846,-87.715"/>
<polygon fill="#191970" stroke="#191970" points="849.5001,-87.6022 846,-77.6022 842.5001,-87.6023 849.5001,-87.6022"/>
</g>
<!-- Node41&#45;&gt;Node26 -->
<g id="edge56" class="edge">
<title>Node41&#45;&gt;Node26</title>
<path fill="none" stroke="#191970" d="M1055.5286,-228.4408C1037.2539,-219.461 1010.2683,-206.2008 989.6357,-196.0624"/>
<polygon fill="#191970" stroke="#191970" points="991.1756,-192.9193 980.657,-191.6504 988.0884,-199.2019 991.1756,-192.9193"/>
</g>
<!-- Node42 -->
<g id="node42" class="node">
<title>Node42</title>
<polygon fill="none" stroke="#bfbfbf" points="1036,-171.5 1036,-191.5 1132,-191.5 1132,-171.5 1036,-171.5"/>
<text text-anchor="middle" x="1084" y="-178.5" font-family="FreeSans" font-size="10.00" fill="#000000">TGeoManager.h</text>
</g>
<!-- Node41&#45;&gt;Node42 -->
<g id="edge57" class="edge">
<title>Node41&#45;&gt;Node42</title>
<path fill="none" stroke="#191970" d="M1077.4302,-228.3095C1078.4655,-220.9335 1079.899,-210.72 1081.1628,-201.715"/>
<polygon fill="#191970" stroke="#191970" points="1084.6582,-201.9917 1082.5821,-191.6022 1077.7261,-201.0187 1084.6582,-201.9917"/>
</g>
<!-- Node43 -->
<g id="node43" class="node">
<title>Node43</title>
<polygon fill="none" stroke="#bfbfbf" points="1150,-171.5 1150,-191.5 1230,-191.5 1230,-171.5 1150,-171.5"/>
<text text-anchor="middle" x="1190" y="-178.5" font-family="FreeSans" font-size="10.00" fill="#000000">TObjString.h</text>
</g>
<!-- Node41&#45;&gt;Node43 -->
<g id="edge58" class="edge">
<title>Node41&#45;&gt;Node43</title>
<path fill="none" stroke="#191970" d="M1096.1185,-228.4408C1113.9972,-219.5014 1140.3596,-206.3202 1160.6009,-196.1996"/>
<polygon fill="#191970" stroke="#191970" points="1162.3202,-199.2531 1169.6992,-191.6504 1159.1896,-192.9921 1162.3202,-199.2531"/>
</g>
<!-- Node45 -->
<g id="node45" class="node">
<title>Node45</title>
<g id="a_node45"><a xlink:href="../../da/d93/FairGeoVolume_8h.html" target="_top" xlink:title="FairGeoVolume.h">
<polygon fill="none" stroke="#ff0000" points="1521,-114.5 1521,-134.5 1623,-134.5 1623,-114.5 1521,-114.5"/>
<text text-anchor="middle" x="1572" y="-121.5" font-family="FreeSans" font-size="10.00" fill="#000000">FairGeoVolume.h</text>
</a>
</g>
</g>
<!-- Node44&#45;&gt;Node45 -->
<g id="edge60" class="edge">
<title>Node44&#45;&gt;Node45</title>
<path fill="none" stroke="#191970" d="M1572,-171.3095C1572,-163.9335 1572,-153.72 1572,-144.715"/>
<polygon fill="#191970" stroke="#191970" points="1575.5001,-144.6022 1572,-134.6022 1568.5001,-144.6023 1575.5001,-144.6022"/>
</g>
<!-- Node46 -->
<g id="node46" class="node">
<title>Node46</title>
<g id="a_node46"><a xlink:href="../../dd/d44/FairGeoTransform_8h.html" target="_top" xlink:title="FairGeoTransform.h">
<polygon fill="none" stroke="#ff0000" points="1554,-57.5 1554,-77.5 1668,-77.5 1668,-57.5 1554,-57.5"/>
<text text-anchor="middle" x="1611" y="-64.5" font-family="FreeSans" font-size="10.00" fill="#000000">FairGeoTransform.h</text>
</a>
</g>
</g>
<!-- Node44&#45;&gt;Node46 -->
<g id="edge67" class="edge">
<title>Node44&#45;&gt;Node46</title>
<path fill="none" stroke="#191970" d="M1593.3895,-171.3779C1607.1856,-163.567 1623.9955,-151.3304 1632,-135 1639.6365,-119.4203 1632.4341,-100.4624 1624.4532,-86.6089"/>
<polygon fill="#191970" stroke="#191970" points="1627.2758,-84.5235 1618.9765,-77.9378 1621.3575,-88.2616 1627.2758,-84.5235"/>
</g>
<!-- Node47 -->
<g id="node47" class="node">
<title>Node47</title>
<g id="a_node47"><a xlink:href="../../dd/d76/FairGeoBasicShape_8h.html" target="_top" xlink:title="FairGeoBasicShape.h">
<polygon fill="none" stroke="#000000" points="1381,-114.5 1381,-134.5 1503,-134.5 1503,-114.5 1381,-114.5"/>
<text text-anchor="middle" x="1442" y="-121.5" font-family="FreeSans" font-size="10.00" fill="#000000">FairGeoBasicShape.h</text>
</a>
</g>
</g>
<!-- Node44&#45;&gt;Node47 -->
<g id="edge64" class="edge">
<title>Node44&#45;&gt;Node47</title>
<path fill="none" stroke="#191970" d="M1549.0579,-171.4408C1528.3931,-162.3801 1497.7895,-148.9615 1474.5892,-138.7891"/>
<polygon fill="#191970" stroke="#191970" points="1475.7139,-135.4606 1465.1501,-134.6504 1472.9029,-141.8715 1475.7139,-135.4606"/>
</g>
<!-- Node48 -->
<g id="node48" class="node">
<title>Node48</title>
<polygon fill="none" stroke="#bfbfbf" points="1679.5,-114.5 1679.5,-134.5 1770.5,-134.5 1770.5,-114.5 1679.5,-114.5"/>
<text text-anchor="middle" x="1725" y="-121.5" font-family="FreeSans" font-size="10.00" fill="#000000">TGeoVolume.h</text>
</g>
<!-- Node44&#45;&gt;Node48 -->
<g id="edge68" class="edge">
<title>Node44&#45;&gt;Node48</title>
<path fill="none" stroke="#191970" d="M1599.0011,-171.4408C1623.8326,-162.1898 1660.8579,-148.3961 1688.3534,-138.1527"/>
<polygon fill="#191970" stroke="#191970" points="1689.863,-141.3253 1698.0119,-134.5544 1687.4192,-134.7658 1689.863,-141.3253"/>
</g>
<!-- Node45&#45;&gt;Node13 -->
<g id="edge63" class="edge">
<title>Node45&#45;&gt;Node13</title>
<path fill="none" stroke="#191970" d="M1548.9053,-114.4894C1513.7587,-99.6618 1444.4334,-72.0032 1383,-57 1271.5234,-29.7753 1237.8971,-41.4602 1121.6069,-21.157"/>
<polygon fill="#191970" stroke="#191970" points="1122.0598,-17.6825 1111.5998,-19.3673 1120.8274,-24.5732 1122.0598,-17.6825"/>
</g>
<!-- Node45&#45;&gt;Node28 -->
<g id="edge62" class="edge">
<title>Node45&#45;&gt;Node28</title>
<path fill="none" stroke="#191970" d="M1530.8806,-114.4408C1489.5165,-104.3216 1425.9339,-88.7671 1383.4304,-78.3692"/>
<polygon fill="#191970" stroke="#191970" points="1384.182,-74.95 1373.6367,-75.9734 1382.5186,-81.7495 1384.182,-74.95"/>
</g>
<!-- Node45&#45;&gt;Node46 -->
<g id="edge61" class="edge">
<title>Node45&#45;&gt;Node46</title>
<path fill="none" stroke="#191970" d="M1578.9724,-114.3095C1584.3519,-106.4472 1591.9374,-95.3608 1598.3758,-85.9507"/>
<polygon fill="#191970" stroke="#191970" points="1601.3296,-87.8317 1604.0879,-77.6022 1595.5525,-83.8789 1601.3296,-87.8317"/>
</g>
<!-- Node47&#45;&gt;Node7 -->
<g id="edge66" class="edge">
<title>Node47&#45;&gt;Node7</title>
<path fill="none" stroke="#191970" d="M1436.1429,-114.3833C1425.1139,-95.3331 1401.1065,-53.8658 1386.9859,-29.4757"/>
<polygon fill="#191970" stroke="#191970" points="1389.9782,-27.6586 1381.9388,-20.7579 1383.9202,-31.1659 1389.9782,-27.6586"/>
</g>
<!-- Node47&#45;&gt;Node28 -->
<g id="edge65" class="edge">
<title>Node47&#45;&gt;Node28</title>
<path fill="none" stroke="#191970" d="M1423.5857,-114.3095C1407.6206,-105.4745 1384.2991,-92.5684 1366.1857,-82.5445"/>
<polygon fill="#191970" stroke="#191970" points="1367.6992,-79.3819 1357.2549,-77.6022 1364.3098,-85.5066 1367.6992,-79.3819"/>
</g>
</g>
</svg>
