<?xml version="1.0" encoding="UTF-8" standalone="no"?>
<!DOCTYPE svg PUBLIC "-//W3C//DTD SVG 1.1//EN"
 "http://www.w3.org/Graphics/SVG/1.1/DTD/svg11.dtd">
<!-- Generated by graphviz version 2.40.1 (20161225.0304)
 -->
<!-- Title: fun4all_acts/blob/master/Tests/UnitTests/Core/Propagator/StepperTests.cpp Pages: 1 -->
<svg width="4418pt" height="443pt"
 viewBox="0.00 0.00 4417.50 443.00" xmlns="http://www.w3.org/2000/svg" xmlns:xlink="http://www.w3.org/1999/xlink">
<g id="graph0" class="graph" transform="scale(1 1) rotate(0) translate(4 439)">
<title>fun4all_acts/blob/master/Tests/UnitTests/Core/Propagator/StepperTests.cpp</title>
<!-- Node1 -->
<g id="node1" class="node">
<title>Node1</title>
<polygon fill="#bfbfbf" stroke="#000000" points="2004,-390.5 2004,-434.5 2185,-434.5 2185,-390.5 2004,-390.5"/>
<text text-anchor="start" x="2012" y="-421.5" font-family="FreeSans" font-size="10.00" fill="#000000">fun4all_acts/blob/master</text>
<text text-anchor="start" x="2012" y="-409.5" font-family="FreeSans" font-size="10.00" fill="#000000">/Tests/UnitTests/Core/Propagator</text>
<text text-anchor="middle" x="2094.5" y="-397.5" font-family="FreeSans" font-size="10.00" fill="#000000">/StepperTests.cpp</text>
</g>
<!-- Node2 -->
<g id="node2" class="node">
<title>Node2</title>
<polygon fill="none" stroke="#bfbfbf" points="0,-258.5 0,-278.5 137,-278.5 137,-258.5 0,-258.5"/>
<text text-anchor="middle" x="68.5" y="-265.5" font-family="FreeSans" font-size="10.00" fill="#000000">boost/test/unit_test.hpp</text>
</g>
<!-- Node1&#45;&gt;Node2 -->
<g id="edge1" class="edge">
<title>Node1&#45;&gt;Node2</title>
<path fill="none" stroke="#191970" d="M2003.767,-411.1842C1619.2412,-405.4402 141.935,-381.6108 102.5,-354 81.3012,-339.1574 73.3167,-308.8614 70.3114,-288.6139"/>
<polygon fill="#191970" stroke="#191970" points="73.7714,-288.0712 69.1016,-278.561 66.8215,-288.9076 73.7714,-288.0712"/>
</g>
<!-- Node3 -->
<g id="node3" class="node">
<title>Node3</title>
<polygon fill="none" stroke="#bfbfbf" points="4166,-327.5 4166,-347.5 4221,-347.5 4221,-327.5 4166,-327.5"/>
<text text-anchor="middle" x="4193.5" y="-334.5" font-family="FreeSans" font-size="10.00" fill="#000000">fstream</text>
</g>
<!-- Node1&#45;&gt;Node3 -->
<g id="edge2" class="edge">
<title>Node1&#45;&gt;Node3</title>
<path fill="none" stroke="#191970" d="M2185.3146,-411.7606C2557.7435,-408.4775 3957.5546,-393.594 4151.5,-354 4155.17,-353.2508 4158.9342,-352.2058 4162.6294,-351.0018"/>
<polygon fill="#191970" stroke="#191970" points="4163.9402,-354.2494 4172.1373,-347.5369 4161.5434,-347.6725 4163.9402,-354.2494"/>
</g>
<!-- Node4 -->
<g id="node4" class="node">
<title>Node4</title>
<g id="a_node4"><a xlink:href="../../d3/df6/NeutralParameters_8hpp.html" target="_top" xlink:title="Acts/EventData/NeutralParameters.hpp">
<polygon fill="none" stroke="#000000" points="3575.5,-258.5 3575.5,-278.5 3791.5,-278.5 3791.5,-258.5 3575.5,-258.5"/>
<text text-anchor="middle" x="3683.5" y="-265.5" font-family="FreeSans" font-size="10.00" fill="#000000">Acts/EventData/NeutralParameters.hpp</text>
</a>
</g>
</g>
<!-- Node1&#45;&gt;Node4 -->
<g id="edge3" class="edge">
<title>Node1&#45;&gt;Node4</title>
<path fill="none" stroke="#191970" d="M2185.3481,-409.9516C2425.4679,-402.9097 3073.0517,-381.8491 3285.5,-354 3413.9984,-337.1556 3562.6208,-300.5729 3636.6049,-281.1721"/>
<polygon fill="#191970" stroke="#191970" points="3637.7622,-284.4867 3646.5392,-278.5525 3635.9773,-277.7181 3637.7622,-284.4867"/>
</g>
<!-- Node8 -->
<g id="node8" class="node">
<title>Node8</title>
<g id="a_node8"><a xlink:href="../../d1/db8/GeometryContext_8hpp.html" target="_top" xlink:title="Acts/Geometry/GeometryContext.hpp">
<polygon fill="none" stroke="#000000" points="2931.5,-57.5 2931.5,-77.5 3139.5,-77.5 3139.5,-57.5 2931.5,-57.5"/>
<text text-anchor="middle" x="3035.5" y="-64.5" font-family="FreeSans" font-size="10.00" fill="#000000">Acts/Geometry/GeometryContext.hpp</text>
</a>
</g>
</g>
<!-- Node1&#45;&gt;Node8 -->
<g id="edge31" class="edge">
<title>Node1&#45;&gt;Node8</title>
<path fill="none" stroke="#191970" d="M2185.159,-411.0907C2553.0173,-405.1967 3918.8271,-381.5455 4006.5,-354 4072.829,-333.1604 4137.5,-338.0257 4137.5,-268.5 4137.5,-268.5 4137.5,-268.5 4137.5,-199.5 4137.5,-153.5817 4119.5834,-136.4013 4079.5,-114 4039.5247,-91.6591 3413.0656,-75.6313 3150.2058,-69.8572"/>
<polygon fill="#191970" stroke="#191970" points="3149.9417,-66.3506 3139.8676,-69.6312 3149.7887,-73.349 3149.9417,-66.3506"/>
</g>
<!-- Node10 -->
<g id="node10" class="node">
<title>Node10</title>
<g id="a_node10"><a xlink:href="../../d6/d1d/Definitions_8hpp.html" target="_top" xlink:title="Acts/Utilities/Definitions.hpp">
<polygon fill="none" stroke="#ff0000" points="1037.5,-.5 1037.5,-20.5 1197.5,-20.5 1197.5,-.5 1037.5,-.5"/>
<text text-anchor="middle" x="1117.5" y="-7.5" font-family="FreeSans" font-size="10.00" fill="#000000">Acts/Utilities/Definitions.hpp</text>
</a>
</g>
</g>
<!-- Node1&#45;&gt;Node10 -->
<g id="edge137" class="edge">
<title>Node1&#45;&gt;Node10</title>
<path fill="none" stroke="#191970" d="M2003.7796,-410.5231C1697.9977,-403.6356 720.6846,-379.7112 658.5,-354 606.6136,-332.5467 565.5,-324.6466 565.5,-268.5 565.5,-268.5 565.5,-268.5 565.5,-130.5 565.5,-76.6521 353.1113,-148.5321 763.5,-57 852.014,-37.2581 954.9778,-24.8937 1026.9652,-17.9222"/>
<polygon fill="#191970" stroke="#191970" points="1027.7331,-21.365 1037.3562,-16.9326 1027.0693,-14.3966 1027.7331,-21.365"/>
</g>
<!-- Node14 -->
<g id="node14" class="node">
<title>Node14</title>
<g id="a_node14"><a xlink:href="../../d7/de6/CuboidVolumeBuilder_8hpp.html" target="_top" xlink:title="Acts/Geometry/CuboidVolume\lBuilder.hpp">
<polygon fill="none" stroke="#000000" points="1892,-252.5 1892,-284.5 2061,-284.5 2061,-252.5 1892,-252.5"/>
<text text-anchor="start" x="1900" y="-271.5" font-family="FreeSans" font-size="10.00" fill="#000000">Acts/Geometry/CuboidVolume</text>
<text text-anchor="middle" x="1976.5" y="-259.5" font-family="FreeSans" font-size="10.00" fill="#000000">Builder.hpp</text>
</a>
</g>
</g>
<!-- Node1&#45;&gt;Node14 -->
<g id="edge19" class="edge">
<title>Node1&#45;&gt;Node14</title>
<path fill="none" stroke="#191970" d="M2076.3211,-390.3156C2054.6437,-363.8618 2018.5461,-319.8104 1996.2135,-292.5572"/>
<polygon fill="#191970" stroke="#191970" points="1998.8013,-290.1931 1989.7559,-284.6766 1993.3869,-294.6298 1998.8013,-290.1931"/>
</g>
<!-- Node19 -->
<g id="node19" class="node">
<title>Node19</title>
<g id="a_node19"><a xlink:href="../../dd/d24/TrackingGeometry_8hpp.html" target="_top" xlink:title="Acts/Geometry/TrackingGeometry.hpp">
<polygon fill="none" stroke="#000000" points="1492,-189.5 1492,-209.5 1701,-209.5 1701,-189.5 1492,-189.5"/>
<text text-anchor="middle" x="1596.5" y="-196.5" font-family="FreeSans" font-size="10.00" fill="#000000">Acts/Geometry/TrackingGeometry.hpp</text>
</a>
</g>
</g>
<!-- Node1&#45;&gt;Node19 -->
<g id="edge32" class="edge">
<title>Node1&#45;&gt;Node19</title>
<path fill="none" stroke="#191970" d="M2003.9281,-399.1117C1915.1391,-382.8422 1778.6262,-349.2087 1676.5,-285 1648.2724,-267.2528 1623.3752,-237.1482 1609.1286,-217.8069"/>
<polygon fill="#191970" stroke="#191970" points="1611.8598,-215.6095 1603.1903,-209.5193 1606.1697,-219.6866 1611.8598,-215.6095"/>
</g>
<!-- Node22 -->
<g id="node22" class="node">
<title>Node22</title>
<g id="a_node22"><a xlink:href="../../d8/dbb/TrackingGeometryBuilder_8hpp.html" target="_top" xlink:title="Acts/Geometry/TrackingGeometry\lBuilder.hpp">
<polygon fill="none" stroke="#000000" points="1685.5,-252.5 1685.5,-284.5 1873.5,-284.5 1873.5,-252.5 1685.5,-252.5"/>
<text text-anchor="start" x="1693.5" y="-271.5" font-family="FreeSans" font-size="10.00" fill="#000000">Acts/Geometry/TrackingGeometry</text>
<text text-anchor="middle" x="1779.5" y="-259.5" font-family="FreeSans" font-size="10.00" fill="#000000">Builder.hpp</text>
</a>
</g>
</g>
<!-- Node1&#45;&gt;Node22 -->
<g id="edge41" class="edge">
<title>Node1&#45;&gt;Node22</title>
<path fill="none" stroke="#191970" d="M2046.3154,-390.4727C1985.747,-362.7844 1882.6188,-315.64 1823.8929,-288.7939"/>
<polygon fill="#191970" stroke="#191970" points="1825.0629,-285.4804 1814.513,-284.5059 1822.1525,-291.8467 1825.0629,-285.4804"/>
</g>
<!-- Node26 -->
<g id="node26" class="node">
<title>Node26</title>
<g id="a_node26"><a xlink:href="../../de/d07/ConstantBField_8hpp.html" target="_top" xlink:title="Acts/MagneticField\l/ConstantBField.hpp">
<polygon fill="none" stroke="#000000" points="3990,-183.5 3990,-215.5 4109,-215.5 4109,-183.5 3990,-183.5"/>
<text text-anchor="start" x="3998" y="-202.5" font-family="FreeSans" font-size="10.00" fill="#000000">Acts/MagneticField</text>
<text text-anchor="middle" x="4049.5" y="-190.5" font-family="FreeSans" font-size="10.00" fill="#000000">/ConstantBField.hpp</text>
</a>
</g>
</g>
<!-- Node1&#45;&gt;Node26 -->
<g id="edge59" class="edge">
<title>Node1&#45;&gt;Node26</title>
<path fill="none" stroke="#191970" d="M2185.1932,-412.2851C2550.7141,-411.0861 3899.8214,-403.3235 3975.5,-354 4019.7572,-325.1553 4038.2243,-261.9582 4045.3836,-225.9659"/>
<polygon fill="#191970" stroke="#191970" points="4048.8981,-226.2046 4047.2585,-215.7374 4042.0128,-224.9425 4048.8981,-226.2046"/>
</g>
<!-- Node27 -->
<g id="node27" class="node">
<title>Node27</title>
<g id="a_node27"><a xlink:href="../../d6/da8/MagneticFieldContext_8hpp.html" target="_top" xlink:title="Acts/MagneticField\l/MagneticFieldContext.hpp">
<polygon fill="none" stroke="#000000" points="3918.5,-114.5 3918.5,-146.5 4070.5,-146.5 4070.5,-114.5 3918.5,-114.5"/>
<text text-anchor="start" x="3926.5" y="-133.5" font-family="FreeSans" font-size="10.00" fill="#000000">Acts/MagneticField</text>
<text text-anchor="middle" x="3994.5" y="-121.5" font-family="FreeSans" font-size="10.00" fill="#000000">/MagneticFieldContext.hpp</text>
</a>
</g>
</g>
<!-- Node1&#45;&gt;Node27 -->
<g id="edge63" class="edge">
<title>Node1&#45;&gt;Node27</title>
<path fill="none" stroke="#191970" d="M2185.1032,-412.0044C2493.2841,-409.3478 3498.5613,-392.4522 3800.5,-285 3858.8239,-264.244 3873.8008,-255.4624 3921.5,-216 3943.0828,-198.1442 3963.4091,-173.4375 3977.1047,-155.1731"/>
<polygon fill="#191970" stroke="#191970" points="3980.1695,-156.9131 3983.2718,-146.7826 3974.5292,-152.7674 3980.1695,-156.9131"/>
</g>
<!-- Node28 -->
<g id="node28" class="node">
<title>Node28</title>
<g id="a_node28"><a xlink:href="../../d9/dfe/HomogeneousSurfaceMaterial_8hpp.html" target="_top" xlink:title="Acts/Material/Homogeneous\lSurfaceMaterial.hpp">
<polygon fill="none" stroke="#000000" points="759.5,-252.5 759.5,-284.5 919.5,-284.5 919.5,-252.5 759.5,-252.5"/>
<text text-anchor="start" x="767.5" y="-271.5" font-family="FreeSans" font-size="10.00" fill="#000000">Acts/Material/Homogeneous</text>
<text text-anchor="middle" x="839.5" y="-259.5" font-family="FreeSans" font-size="10.00" fill="#000000">SurfaceMaterial.hpp</text>
</a>
</g>
</g>
<!-- Node1&#45;&gt;Node28 -->
<g id="edge64" class="edge">
<title>Node1&#45;&gt;Node28</title>
<path fill="none" stroke="#191970" d="M2003.9987,-409.1853C1855.5314,-403.0059 1551.1822,-387.2236 1295.5,-354 1163.657,-336.8682 1012.2572,-306.2834 921.3318,-286.7162"/>
<polygon fill="#191970" stroke="#191970" points="921.8788,-283.2537 911.3653,-284.5634 920.4008,-290.0959 921.8788,-283.2537"/>
</g>
<!-- Node29 -->
<g id="node29" class="node">
<title>Node29</title>
<g id="a_node29"><a xlink:href="../../da/dd4/ISurfaceMaterial_8hpp.html" target="_top" xlink:title="Acts/Material/ISurfaceMaterial.hpp">
<polygon fill="none" stroke="#000000" points="934,-189.5 934,-209.5 1125,-209.5 1125,-189.5 934,-189.5"/>
<text text-anchor="middle" x="1029.5" y="-196.5" font-family="FreeSans" font-size="10.00" fill="#000000">Acts/Material/ISurfaceMaterial.hpp</text>
</a>
</g>
</g>
<!-- Node1&#45;&gt;Node29 -->
<g id="edge83" class="edge">
<title>Node1&#45;&gt;Node29</title>
<path fill="none" stroke="#191970" d="M2003.7001,-398.7799C1932.0564,-387.6447 1829.6758,-371.0461 1740.5,-354 1493.0546,-306.7003 1199.6335,-239.329 1082.0515,-211.867"/>
<polygon fill="#191970" stroke="#191970" points="1082.7584,-208.4379 1072.2241,-209.569 1081.1644,-215.2541 1082.7584,-208.4379"/>
</g>
<!-- Node33 -->
<g id="node33" class="node">
<title>Node33</title>
<g id="a_node33"><a xlink:href="../../dc/d0f/HomogeneousVolumeMaterial_8hpp.html" target="_top" xlink:title="Acts/Material/Homogeneous\lVolumeMaterial.hpp">
<polygon fill="none" stroke="#000000" points="377.5,-183.5 377.5,-215.5 537.5,-215.5 537.5,-183.5 377.5,-183.5"/>
<text text-anchor="start" x="385.5" y="-202.5" font-family="FreeSans" font-size="10.00" fill="#000000">Acts/Material/Homogeneous</text>
<text text-anchor="middle" x="457.5" y="-190.5" font-family="FreeSans" font-size="10.00" fill="#000000">VolumeMaterial.hpp</text>
</a>
</g>
</g>
<!-- Node1&#45;&gt;Node33 -->
<g id="edge77" class="edge">
<title>Node1&#45;&gt;Node33</title>
<path fill="none" stroke="#191970" d="M2003.7351,-411.4225C1682.3518,-407.3012 614.2907,-390.8791 551.5,-354 503.2041,-325.6342 476.5722,-261.7785 464.8634,-225.6683"/>
<polygon fill="#191970" stroke="#191970" points="468.1243,-224.3659 461.8257,-215.8466 461.4368,-226.4343 468.1243,-224.3659"/>
</g>
<!-- Node34 -->
<g id="node34" class="node">
<title>Node34</title>
<g id="a_node34"><a xlink:href="../../d0/d2e/IVolumeMaterial_8hpp.html" target="_top" xlink:title="Acts/Material/IVolumeMaterial.hpp">
<polygon fill="none" stroke="#000000" points="270,-120.5 270,-140.5 461,-140.5 461,-120.5 270,-120.5"/>
<text text-anchor="middle" x="365.5" y="-127.5" font-family="FreeSans" font-size="10.00" fill="#000000">Acts/Material/IVolumeMaterial.hpp</text>
</a>
</g>
</g>
<!-- Node1&#45;&gt;Node34 -->
<g id="edge84" class="edge">
<title>Node1&#45;&gt;Node34</title>
<path fill="none" stroke="#191970" d="M2003.9351,-410.9401C1678.0079,-405.0947 580.3997,-383.3151 511.5,-354 430.2268,-319.4203 404.4449,-296.6787 368.5,-216 359.1894,-195.1022 359.9968,-168.3991 362.1172,-150.4421"/>
<polygon fill="#191970" stroke="#191970" points="365.5851,-150.915 363.5284,-140.5217 358.6548,-149.9291 365.5851,-150.915"/>
</g>
<!-- Node35 -->
<g id="node35" class="node">
<title>Node35</title>
<g id="a_node35"><a xlink:href="../../db/da3/DebugOutputActor_8hpp.html" target="_top" xlink:title="Acts/Propagator/DebugOutput\lActor.hpp">
<polygon fill="none" stroke="#000000" points="4239.5,-321.5 4239.5,-353.5 4409.5,-353.5 4409.5,-321.5 4239.5,-321.5"/>
<text text-anchor="start" x="4247.5" y="-340.5" font-family="FreeSans" font-size="10.00" fill="#000000">Acts/Propagator/DebugOutput</text>
<text text-anchor="middle" x="4324.5" y="-328.5" font-family="FreeSans" font-size="10.00" fill="#000000">Actor.hpp</text>
</a>
</g>
</g>
<!-- Node1&#45;&gt;Node35 -->
<g id="edge85" class="edge">
<title>Node1&#45;&gt;Node35</title>
<path fill="none" stroke="#191970" d="M2185.2091,-411.7629C2535.7547,-408.6451 3803.0002,-394.8159 4229.1692,-353.898"/>
<polygon fill="#191970" stroke="#191970" points="4229.7755,-357.3554 4239.386,-352.8956 4229.092,-350.3889 4229.7755,-357.3554"/>
</g>
<!-- Node36 -->
<g id="node36" class="node">
<title>Node36</title>
<g id="a_node36"><a xlink:href="../../d3/df3/DefaultExtension_8hpp.html" target="_top" xlink:title="Acts/Propagator/DefaultExtension.hpp">
<polygon fill="none" stroke="#000000" points="2269.5,-258.5 2269.5,-278.5 2479.5,-278.5 2479.5,-258.5 2269.5,-258.5"/>
<text text-anchor="middle" x="2374.5" y="-265.5" font-family="FreeSans" font-size="10.00" fill="#000000">Acts/Propagator/DefaultExtension.hpp</text>
</a>
</g>
</g>
<!-- Node1&#45;&gt;Node36 -->
<g id="edge86" class="edge">
<title>Node1&#45;&gt;Node36</title>
<path fill="none" stroke="#191970" d="M2137.3308,-390.4727C2195.0665,-360.7801 2296.3085,-308.7128 2345.7259,-283.2981"/>
<polygon fill="#191970" stroke="#191970" points="2347.5979,-286.2711 2354.8901,-278.5851 2344.3965,-280.0461 2347.5979,-286.2711"/>
</g>
<!-- Node39 -->
<g id="node39" class="node">
<title>Node39</title>
<g id="a_node39"><a xlink:href="../../d6/d44/DenseEnvironmentExtension_8hpp.html" target="_top" xlink:title="Acts/Propagator/DenseEnvironment\lExtension.hpp">
<polygon fill="none" stroke="#000000" points="2497.5,-252.5 2497.5,-284.5 2695.5,-284.5 2695.5,-252.5 2497.5,-252.5"/>
<text text-anchor="start" x="2505.5" y="-271.5" font-family="FreeSans" font-size="10.00" fill="#000000">Acts/Propagator/DenseEnvironment</text>
<text text-anchor="middle" x="2596.5" y="-259.5" font-family="FreeSans" font-size="10.00" fill="#000000">Extension.hpp</text>
</a>
</g>
</g>
<!-- Node1&#45;&gt;Node39 -->
<g id="edge93" class="edge">
<title>Node1&#45;&gt;Node39</title>
<path fill="none" stroke="#191970" d="M2171.2894,-390.4727C2269.6054,-362.2706 2438.2876,-313.8836 2530.8892,-287.3206"/>
<polygon fill="#191970" stroke="#191970" points="2532.0543,-290.6276 2540.7016,-284.5059 2530.1241,-283.899 2532.0543,-290.6276"/>
</g>
<!-- Node41 -->
<g id="node41" class="node">
<title>Node41</title>
<g id="a_node41"><a xlink:href="../../d5/d20/Propagator_8hpp.html" target="_top" xlink:title="Acts/Propagator/Propagator.hpp">
<polygon fill="none" stroke="#ff0000" points="2827.5,-189.5 2827.5,-209.5 3005.5,-209.5 3005.5,-189.5 2827.5,-189.5"/>
<text text-anchor="middle" x="2916.5" y="-196.5" font-family="FreeSans" font-size="10.00" fill="#000000">Acts/Propagator/Propagator.hpp</text>
</a>
</g>
</g>
<!-- Node1&#45;&gt;Node41 -->
<g id="edge128" class="edge">
<title>Node1&#45;&gt;Node41</title>
<path fill="none" stroke="#191970" d="M2185.2195,-409.3927C2379.1666,-402.2297 2821.5891,-382.9241 2883.5,-354 2922.2273,-335.907 2934.4329,-324.6107 2950.5,-285 2959.9082,-261.8057 2945.0626,-234.9742 2932.1283,-217.6468"/>
<polygon fill="#191970" stroke="#191970" points="2934.6365,-215.1771 2925.6773,-209.5217 2929.1543,-219.5298 2934.6365,-215.1771"/>
</g>
<!-- Node42 -->
<g id="node42" class="node">
<title>Node42</title>
<g id="a_node42"><a xlink:href="../../dd/d18/EigenStepper_8hpp.html" target="_top" xlink:title="Acts/Propagator/EigenStepper.hpp">
<polygon fill="none" stroke="#ff0000" points="2684,-327.5 2684,-347.5 2875,-347.5 2875,-327.5 2684,-327.5"/>
<text text-anchor="middle" x="2779.5" y="-334.5" font-family="FreeSans" font-size="10.00" fill="#000000">Acts/Propagator/EigenStepper.hpp</text>
</a>
</g>
</g>
<!-- Node1&#45;&gt;Node42 -->
<g id="edge107" class="edge">
<title>Node1&#45;&gt;Node42</title>
<path fill="none" stroke="#191970" d="M2185.1092,-402.5793C2312.6868,-388.6109 2544.5384,-363.2257 2677.8416,-348.6305"/>
<polygon fill="#191970" stroke="#191970" points="2678.4962,-352.0798 2688.0559,-347.5121 2677.7343,-345.1214 2678.4962,-352.0798"/>
</g>
<!-- Node46 -->
<g id="node46" class="node">
<title>Node46</title>
<g id="a_node46"><a xlink:href="../../d7/d69/Auctioneer_8hpp.html" target="_top" xlink:title="Acts/Propagator/detail\l/Auctioneer.hpp">
<polygon fill="none" stroke="#ff0000" points="3062,-183.5 3062,-215.5 3191,-215.5 3191,-183.5 3062,-183.5"/>
<text text-anchor="start" x="3070" y="-202.5" font-family="FreeSans" font-size="10.00" fill="#000000">Acts/Propagator/detail</text>
<text text-anchor="middle" x="3126.5" y="-190.5" font-family="FreeSans" font-size="10.00" fill="#000000">/Auctioneer.hpp</text>
</a>
</g>
</g>
<!-- Node1&#45;&gt;Node46 -->
<g id="edge129" class="edge">
<title>Node1&#45;&gt;Node46</title>
<path fill="none" stroke="#191970" d="M2185.1979,-409.5145C2443.2501,-400.051 3167.1771,-366.4041 3232.5,-285 3241.6793,-273.5609 3240.2343,-264.4616 3232.5,-252 3223.8008,-237.9838 3210.1243,-227.5945 3195.4505,-219.9361"/>
<polygon fill="#191970" stroke="#191970" points="3196.7512,-216.6783 3186.2207,-215.5125 3193.7258,-222.9908 3196.7512,-216.6783"/>
</g>
<!-- Node47 -->
<g id="node47" class="node">
<title>Node47</title>
<g id="a_node47"><a xlink:href="../../d2/d56/MaterialInteractor_8hpp.html" target="_top" xlink:title="Acts/Propagator/Material\lInteractor.hpp">
<polygon fill="none" stroke="#ff0000" points="692,-321.5 692,-353.5 833,-353.5 833,-321.5 692,-321.5"/>
<text text-anchor="start" x="700" y="-340.5" font-family="FreeSans" font-size="10.00" fill="#000000">Acts/Propagator/Material</text>
<text text-anchor="middle" x="762.5" y="-328.5" font-family="FreeSans" font-size="10.00" fill="#000000">Interactor.hpp</text>
</a>
</g>
</g>
<!-- Node1&#45;&gt;Node47 -->
<g id="edge123" class="edge">
<title>Node1&#45;&gt;Node47</title>
<path fill="none" stroke="#191970" d="M2003.8334,-411.068C1801.385,-407.23 1297.3229,-394.1175 877.5,-354 866.3966,-352.939 854.7239,-351.5664 843.246,-350.0664"/>
<polygon fill="#191970" stroke="#191970" points="843.6058,-346.5834 833.2287,-348.72 842.6733,-353.521 843.6058,-346.5834"/>
</g>
<!-- Node48 -->
<g id="node48" class="node">
<title>Node48</title>
<g id="a_node48"><a xlink:href="../../d2/de2/Navigator_8hpp.html" target="_top" xlink:title="Acts/Propagator/Navigator.hpp">
<polygon fill="none" stroke="#ff0000" points="2079.5,-258.5 2079.5,-278.5 2251.5,-278.5 2251.5,-258.5 2079.5,-258.5"/>
<text text-anchor="middle" x="2165.5" y="-265.5" font-family="FreeSans" font-size="10.00" fill="#000000">Acts/Propagator/Navigator.hpp</text>
</a>
</g>
</g>
<!-- Node1&#45;&gt;Node48 -->
<g id="edge125" class="edge">
<title>Node1&#45;&gt;Node48</title>
<path fill="none" stroke="#191970" d="M2105.4382,-390.3156C2119.304,-362.1933 2142.9754,-314.1837 2156.0779,-287.6096"/>
<polygon fill="#191970" stroke="#191970" points="2159.2565,-289.0774 2160.5396,-278.5605 2152.9781,-285.9818 2159.2565,-289.0774"/>
</g>
<!-- Node49 -->
<g id="node49" class="node">
<title>Node49</title>
<g id="a_node49"><a xlink:href="../../dc/d7d/RectangleBounds_8hpp.html" target="_top" xlink:title="Acts/Surfaces/RectangleBounds.hpp">
<polygon fill="none" stroke="#ff0000" points="593.5,-120.5 593.5,-140.5 793.5,-140.5 793.5,-120.5 593.5,-120.5"/>
<text text-anchor="middle" x="693.5" y="-127.5" font-family="FreeSans" font-size="10.00" fill="#000000">Acts/Surfaces/RectangleBounds.hpp</text>
</a>
</g>
</g>
<!-- Node1&#45;&gt;Node49 -->
<g id="edge130" class="edge">
<title>Node1&#45;&gt;Node49</title>
<path fill="none" stroke="#191970" d="M2003.8938,-412.1558C1699.2391,-410.5594 728.2957,-401.7323 682.5,-354 628.7167,-297.9423 665.6684,-193.0901 684.4203,-149.8771"/>
<polygon fill="#191970" stroke="#191970" points="687.6243,-151.2861 688.5233,-140.7295 681.2373,-148.4214 687.6243,-151.2861"/>
</g>
<!-- Node50 -->
<g id="node50" class="node">
<title>Node50</title>
<g id="a_node50"><a xlink:href="../../d4/d47/FloatComparisons_8hpp.html" target="_top" xlink:title="Acts/Tests/CommonHelpers\l/FloatComparisons.hpp">
<polygon fill="none" stroke="#ff0000" points="112,-321.5 112,-353.5 267,-353.5 267,-321.5 112,-321.5"/>
<text text-anchor="start" x="120" y="-340.5" font-family="FreeSans" font-size="10.00" fill="#000000">Acts/Tests/CommonHelpers</text>
<text text-anchor="middle" x="189.5" y="-328.5" font-family="FreeSans" font-size="10.00" fill="#000000">/FloatComparisons.hpp</text>
</a>
</g>
</g>
<!-- Node1&#45;&gt;Node50 -->
<g id="edge133" class="edge">
<title>Node1&#45;&gt;Node50</title>
<path fill="none" stroke="#191970" d="M2003.9352,-410.9801C1687.7859,-405.4508 634.1593,-385.0855 297.5,-354 290.9013,-353.3907 284.0921,-352.6404 277.2529,-351.7989"/>
<polygon fill="#191970" stroke="#191970" points="277.5977,-348.3145 267.2321,-350.5066 276.7023,-355.257 277.5977,-348.3145"/>
</g>
<!-- Node5 -->
<g id="node5" class="node">
<title>Node5</title>
<g id="a_node5"><a xlink:href="../../d2/dc3/ChargePolicy_8hpp.html" target="_top" xlink:title="Acts/EventData/ChargePolicy.hpp">
<polygon fill="none" stroke="#000000" points="3547,-57.5 3547,-77.5 3732,-77.5 3732,-57.5 3547,-57.5"/>
<text text-anchor="middle" x="3639.5" y="-64.5" font-family="FreeSans" font-size="10.00" fill="#000000">Acts/EventData/ChargePolicy.hpp</text>
</a>
</g>
</g>
<!-- Node4&#45;&gt;Node5 -->
<g id="edge4" class="edge">
<title>Node4&#45;&gt;Node5</title>
<path fill="none" stroke="#191970" d="M3772.5905,-258.4782C3826.1235,-250.4152 3886.9854,-236.9193 3903.5,-216 3912.5879,-204.4882 3911.5278,-195.2746 3903.5,-183 3863.9436,-122.5176 3784.9662,-93.5166 3723.6532,-79.7266"/>
<polygon fill="#191970" stroke="#191970" points="3724.0997,-76.2427 3713.5873,-77.5622 3722.6281,-83.0863 3724.0997,-76.2427"/>
</g>
<!-- Node6 -->
<g id="node6" class="node">
<title>Node6</title>
<g id="a_node6"><a xlink:href="../../dd/d8e/SingleBoundTrackParameters_8hpp.html" target="_top" xlink:title="Acts/EventData/SingleBound\lTrackParameters.hpp">
<polygon fill="none" stroke="#ff0000" points="3449.5,-183.5 3449.5,-215.5 3611.5,-215.5 3611.5,-183.5 3449.5,-183.5"/>
<text text-anchor="start" x="3457.5" y="-202.5" font-family="FreeSans" font-size="10.00" fill="#000000">Acts/EventData/SingleBound</text>
<text text-anchor="middle" x="3530.5" y="-190.5" font-family="FreeSans" font-size="10.00" fill="#000000">TrackParameters.hpp</text>
</a>
</g>
</g>
<!-- Node4&#45;&gt;Node6 -->
<g id="edge5" class="edge">
<title>Node4&#45;&gt;Node6</title>
<path fill="none" stroke="#191970" d="M3661.2525,-258.4668C3638.8395,-248.359 3603.6258,-232.4783 3575.3864,-219.7429"/>
<polygon fill="#191970" stroke="#191970" points="3576.6603,-216.478 3566.1055,-215.5574 3573.7825,-222.8591 3576.6603,-216.478"/>
</g>
<!-- Node7 -->
<g id="node7" class="node">
<title>Node7</title>
<g id="a_node7"><a xlink:href="../../d9/d77/SingleTrackParameters_8hpp.html" target="_top" xlink:title="Acts/EventData/SingleTrack\lParameters.hpp">
<polygon fill="none" stroke="#ff0000" points="3343,-114.5 3343,-146.5 3500,-146.5 3500,-114.5 3343,-114.5"/>
<text text-anchor="start" x="3351" y="-133.5" font-family="FreeSans" font-size="10.00" fill="#000000">Acts/EventData/SingleTrack</text>
<text text-anchor="middle" x="3421.5" y="-121.5" font-family="FreeSans" font-size="10.00" fill="#000000">Parameters.hpp</text>
</a>
</g>
</g>
<!-- Node4&#45;&gt;Node7 -->
<g id="edge18" class="edge">
<title>Node4&#45;&gt;Node7</title>
<path fill="none" stroke="#191970" d="M3678.8746,-258.3076C3670.1436,-240.2496 3649.4756,-202.6898 3620.5,-183 3588.0839,-160.9723 3546.9131,-148.1827 3510.4408,-140.7587"/>
<polygon fill="#191970" stroke="#191970" points="3510.771,-137.2581 3500.2896,-138.8039 3509.4473,-144.1318 3510.771,-137.2581"/>
</g>
<!-- Node11 -->
<g id="node11" class="node">
<title>Node11</title>
<g id="a_node11"><a xlink:href="../../d6/dee/SingleCurvilinearTrackParameters_8hpp.html" target="_top" xlink:title="Acts/EventData/SingleCurvilinear\lTrackParameters.hpp">
<polygon fill="none" stroke="#ff0000" points="3209,-183.5 3209,-215.5 3394,-215.5 3394,-183.5 3209,-183.5"/>
<text text-anchor="start" x="3217" y="-202.5" font-family="FreeSans" font-size="10.00" fill="#000000">Acts/EventData/SingleCurvilinear</text>
<text text-anchor="middle" x="3301.5" y="-190.5" font-family="FreeSans" font-size="10.00" fill="#000000">TrackParameters.hpp</text>
</a>
</g>
</g>
<!-- Node4&#45;&gt;Node11 -->
<g id="edge12" class="edge">
<title>Node4&#45;&gt;Node11</title>
<path fill="none" stroke="#191970" d="M3627.9539,-258.4668C3568.4668,-247.7217 3472.8631,-230.453 3400.4545,-217.374"/>
<polygon fill="#191970" stroke="#191970" points="3400.8604,-213.8907 3390.3975,-215.5574 3399.6161,-220.7793 3400.8604,-213.8907"/>
</g>
<!-- Node13 -->
<g id="node13" class="node">
<title>Node13</title>
<g id="a_node13"><a xlink:href="../../df/d16/SingleFreeParameters_8hpp.html" target="_top" xlink:title="Acts/EventData/SingleFree\lParameters.hpp">
<polygon fill="none" stroke="#ff0000" points="3744,-183.5 3744,-215.5 3895,-215.5 3895,-183.5 3744,-183.5"/>
<text text-anchor="start" x="3752" y="-202.5" font-family="FreeSans" font-size="10.00" fill="#000000">Acts/EventData/SingleFree</text>
<text text-anchor="middle" x="3819.5" y="-190.5" font-family="FreeSans" font-size="10.00" fill="#000000">Parameters.hpp</text>
</a>
</g>
</g>
<!-- Node4&#45;&gt;Node13 -->
<g id="edge16" class="edge">
<title>Node4&#45;&gt;Node13</title>
<path fill="none" stroke="#191970" d="M3703.2756,-258.4668C3722.9384,-248.4908 3753.6846,-232.8916 3778.6156,-220.2428"/>
<polygon fill="#191970" stroke="#191970" points="3780.5163,-223.2032 3787.8506,-215.5574 3777.3491,-216.9607 3780.5163,-223.2032"/>
</g>
<!-- Node6&#45;&gt;Node7 -->
<g id="edge6" class="edge">
<title>Node6&#45;&gt;Node7</title>
<path fill="none" stroke="#191970" d="M3505.2192,-183.4966C3490.4676,-174.1584 3471.661,-162.2533 3455.6111,-152.0932"/>
<polygon fill="#191970" stroke="#191970" points="3457.3427,-149.0471 3447.0212,-146.6557 3453.5986,-154.9617 3457.3427,-149.0471"/>
</g>
<!-- Node6&#45;&gt;Node8 -->
<g id="edge11" class="edge">
<title>Node6&#45;&gt;Node8</title>
<path fill="none" stroke="#191970" d="M3470.1451,-183.42C3431.1555,-173.0311 3379.3283,-159.2196 3333.5,-147 3244.9756,-123.396 3141.6642,-95.8306 3082.877,-80.1433"/>
<polygon fill="#191970" stroke="#191970" points="3083.6971,-76.7397 3073.1328,-77.543 3081.8923,-83.503 3083.6971,-76.7397"/>
</g>
<!-- Node7&#45;&gt;Node5 -->
<g id="edge7" class="edge">
<title>Node7&#45;&gt;Node5</title>
<path fill="none" stroke="#191970" d="M3477.0747,-114.4394C3513.7006,-103.8549 3561.0184,-90.1805 3595.1243,-80.3242"/>
<polygon fill="#191970" stroke="#191970" points="3596.18,-83.6624 3604.8151,-77.5236 3594.2365,-76.9376 3596.18,-83.6624"/>
</g>
<!-- Node7&#45;&gt;Node8 -->
<g id="edge8" class="edge">
<title>Node7&#45;&gt;Node8</title>
<path fill="none" stroke="#191970" d="M3342.9219,-117.6751C3273.7315,-106.3823 3173.8346,-90.0779 3106.8858,-79.151"/>
<polygon fill="#191970" stroke="#191970" points="3107.2777,-75.6688 3096.8444,-77.5122 3106.15,-82.5774 3107.2777,-75.6688"/>
</g>
<!-- Node7&#45;&gt;Node10 -->
<g id="edge10" class="edge">
<title>Node7&#45;&gt;Node10</title>
<path fill="none" stroke="#191970" d="M3375.3549,-114.4204C3321.6367,-96.5635 3229.8764,-68.7121 3148.5,-57 2955.1963,-29.1789 1576.0713,-14.6911 1207.7425,-11.2906"/>
<polygon fill="#191970" stroke="#191970" points="1207.6947,-7.7901 1197.6629,-11.1979 1207.6303,-14.7898 1207.6947,-7.7901"/>
</g>
<!-- Node9 -->
<g id="node9" class="node">
<title>Node9</title>
<polygon fill="none" stroke="#bfbfbf" points="3455,-.5 3455,-20.5 3490,-20.5 3490,-.5 3455,-.5"/>
<text text-anchor="middle" x="3472.5" y="-7.5" font-family="FreeSans" font-size="10.00" fill="#000000">any</text>
</g>
<!-- Node8&#45;&gt;Node9 -->
<g id="edge9" class="edge">
<title>Node8&#45;&gt;Node9</title>
<path fill="none" stroke="#191970" d="M3112.3701,-57.4735C3211.4305,-44.5525 3378.7343,-22.7303 3444.6319,-14.135"/>
<polygon fill="#191970" stroke="#191970" points="3445.2021,-17.5903 3454.6654,-12.8262 3444.2967,-10.6491 3445.2021,-17.5903"/>
</g>
<!-- Node11&#45;&gt;Node7 -->
<g id="edge14" class="edge">
<title>Node11&#45;&gt;Node7</title>
<path fill="none" stroke="#191970" d="M3329.332,-183.4966C3345.7228,-174.0719 3366.6606,-162.0326 3384.4366,-151.8115"/>
<polygon fill="#191970" stroke="#191970" points="3386.4788,-154.6746 3393.4032,-146.6557 3382.9895,-148.6062 3386.4788,-154.6746"/>
</g>
<!-- Node11&#45;&gt;Node8 -->
<g id="edge15" class="edge">
<title>Node11&#45;&gt;Node8</title>
<path fill="none" stroke="#191970" d="M3269.1491,-183.4462C3216.9899,-157.5626 3115.0943,-106.9979 3064.8904,-82.0847"/>
<polygon fill="#191970" stroke="#191970" points="3066.3685,-78.911 3055.855,-77.601 3063.2568,-85.1814 3066.3685,-78.911"/>
</g>
<!-- Node12 -->
<g id="node12" class="node">
<title>Node12</title>
<polygon fill="none" stroke="#bfbfbf" points="2020.5,-120.5 2020.5,-140.5 2078.5,-140.5 2078.5,-120.5 2020.5,-120.5"/>
<text text-anchor="middle" x="2049.5" y="-127.5" font-family="FreeSans" font-size="10.00" fill="#000000">memory</text>
</g>
<!-- Node11&#45;&gt;Node12 -->
<g id="edge13" class="edge">
<title>Node11&#45;&gt;Node12</title>
<path fill="none" stroke="#191970" d="M3208.9956,-184.0612C3205.7949,-183.6785 3202.6226,-183.3228 3199.5,-183 2976.9163,-159.9929 2263.8411,-137.0663 2088.6516,-131.6824"/>
<polygon fill="#191970" stroke="#191970" points="2088.6996,-128.1823 2078.5972,-131.3746 2088.4853,-135.1791 2088.6996,-128.1823"/>
</g>
<!-- Node13&#45;&gt;Node10 -->
<g id="edge17" class="edge">
<title>Node13&#45;&gt;Node10</title>
<path fill="none" stroke="#191970" d="M3816.1199,-183.4479C3808.651,-152.5275 3787.5356,-85.2687 3740.5,-57 3685.0807,-23.6927 1663.0239,-12.8834 1207.8615,-10.8697"/>
<polygon fill="#191970" stroke="#191970" points="1207.7385,-7.3692 1197.7231,-10.8252 1207.7076,-14.3692 1207.7385,-7.3692"/>
</g>
<!-- Node14&#45;&gt;Node8 -->
<g id="edge23" class="edge">
<title>Node14&#45;&gt;Node8</title>
<path fill="none" stroke="#191970" d="M2061.2379,-253.1723C2064.3607,-252.7518 2067.4558,-252.3587 2070.5,-252 2201.1726,-236.6014 2539.5416,-265.3822 2661.5,-216 2726.0666,-189.8563 2717.6102,-143.9536 2780.5,-114 2809.1717,-100.344 2883.7411,-87.6114 2944.8825,-78.935"/>
<polygon fill="#191970" stroke="#191970" points="2945.5406,-82.3771 2954.9586,-77.5242 2944.5699,-75.4447 2945.5406,-82.3771"/>
</g>
<!-- Node14&#45;&gt;Node10 -->
<g id="edge30" class="edge">
<title>Node14&#45;&gt;Node10</title>
<path fill="none" stroke="#191970" d="M2061.2419,-253.2054C2064.3635,-252.7755 2067.4573,-252.3715 2070.5,-252 2127.879,-244.9935 2550.0651,-258.265 2589.5,-216 2599.5056,-205.2763 2597.6611,-195.1864 2589.5,-183 2507.6599,-60.7945 2427.1846,-88.4122 2283.5,-57 2179.7331,-34.3146 1463.4698,-17.591 1207.8763,-12.2856"/>
<polygon fill="#191970" stroke="#191970" points="1207.5863,-8.7789 1197.5161,-12.0715 1207.4416,-15.7774 1207.5863,-8.7789"/>
</g>
<!-- Node14&#45;&gt;Node12 -->
<g id="edge21" class="edge">
<title>Node14&#45;&gt;Node12</title>
<path fill="none" stroke="#191970" d="M2061.1198,-253.3943C2100.7229,-244.4297 2141.7565,-231.7324 2153.5,-216 2162.2733,-204.2467 2161.1868,-195.491 2153.5,-183 2139.3089,-159.9395 2111.5188,-146.6405 2088.2337,-139.1999"/>
<polygon fill="#191970" stroke="#191970" points="2089.1645,-135.8254 2078.583,-136.3584 2087.1873,-142.5404 2089.1645,-135.8254"/>
</g>
<!-- Node15 -->
<g id="node15" class="node">
<title>Node15</title>
<polygon fill="none" stroke="#bfbfbf" points="2162.5,-57.5 2162.5,-77.5 2228.5,-77.5 2228.5,-57.5 2162.5,-57.5"/>
<text text-anchor="middle" x="2195.5" y="-64.5" font-family="FreeSans" font-size="10.00" fill="#000000">functional</text>
</g>
<!-- Node14&#45;&gt;Node15 -->
<g id="edge20" class="edge">
<title>Node14&#45;&gt;Node15</title>
<path fill="none" stroke="#191970" d="M2061.012,-253.4147C2064.213,-252.923 2067.3841,-252.4494 2070.5,-252 2140.8897,-241.8475 2341.1247,-269.0411 2388.5,-216 2441.9598,-156.1467 2310.0264,-103.4081 2238.2421,-80.1411"/>
<polygon fill="#191970" stroke="#191970" points="2239.1281,-76.7503 2228.5377,-77.056 2237.0073,-83.4213 2239.1281,-76.7503"/>
</g>
<!-- Node16 -->
<g id="node16" class="node">
<title>Node16</title>
<polygon fill="none" stroke="#bfbfbf" points="1337,-57.5 1337,-77.5 1386,-77.5 1386,-57.5 1337,-57.5"/>
<text text-anchor="middle" x="1361.5" y="-64.5" font-family="FreeSans" font-size="10.00" fill="#000000">vector</text>
</g>
<!-- Node14&#45;&gt;Node16 -->
<g id="edge22" class="edge">
<title>Node14&#45;&gt;Node16</title>
<path fill="none" stroke="#191970" d="M1891.7479,-253.2859C1888.6291,-252.8334 1885.5387,-252.4027 1882.5,-252 1794.0254,-240.2747 1559.2193,-261.6003 1482.5,-216 1435.6647,-188.1621 1450.3979,-154.9858 1414.5,-114 1405.0487,-103.2091 1393.1443,-92.5536 1383.0132,-84.1708"/>
<polygon fill="#191970" stroke="#191970" points="1384.9919,-81.27 1375.0129,-77.7106 1380.5942,-86.7161 1384.9919,-81.27"/>
</g>
<!-- Node17 -->
<g id="node17" class="node">
<title>Node17</title>
<g id="a_node17"><a xlink:href="../../dd/dc9/ITrackingVolumeBuilder_8hpp.html" target="_top" xlink:title="Acts/Geometry/ITrackingVolume\lBuilder.hpp">
<polygon fill="none" stroke="#ff0000" points="2201.5,-183.5 2201.5,-215.5 2379.5,-215.5 2379.5,-183.5 2201.5,-183.5"/>
<text text-anchor="start" x="2209.5" y="-202.5" font-family="FreeSans" font-size="10.00" fill="#000000">Acts/Geometry/ITrackingVolume</text>
<text text-anchor="middle" x="2290.5" y="-190.5" font-family="FreeSans" font-size="10.00" fill="#000000">Builder.hpp</text>
</a>
</g>
</g>
<!-- Node14&#45;&gt;Node17 -->
<g id="edge24" class="edge">
<title>Node14&#45;&gt;Node17</title>
<path fill="none" stroke="#191970" d="M2049.3271,-252.4966C2096.6156,-242.1052 2158.3686,-228.5352 2207.548,-217.7283"/>
<polygon fill="#191970" stroke="#191970" points="2208.5088,-221.1008 2217.5246,-215.536 2207.0064,-214.2639 2208.5088,-221.1008"/>
</g>
<!-- Node18 -->
<g id="node18" class="node">
<title>Node18</title>
<g id="a_node18"><a xlink:href="../../de/d09/BinningType_8hpp.html" target="_top" xlink:title="Acts/Utilities/BinningType.hpp">
<polygon fill="none" stroke="#ff0000" points="1221.5,-120.5 1221.5,-140.5 1389.5,-140.5 1389.5,-120.5 1221.5,-120.5"/>
<text text-anchor="middle" x="1305.5" y="-127.5" font-family="FreeSans" font-size="10.00" fill="#000000">Acts/Utilities/BinningType.hpp</text>
</a>
</g>
</g>
<!-- Node14&#45;&gt;Node18 -->
<g id="edge28" class="edge">
<title>Node14&#45;&gt;Node18</title>
<path fill="none" stroke="#191970" d="M1891.764,-253.1561C1888.6407,-252.7402 1885.5449,-252.3525 1882.5,-252 1812.4101,-243.8868 1296.9571,-267.2867 1248.5,-216 1228.0947,-194.4032 1258.3648,-164.7195 1282.0105,-146.6119"/>
<polygon fill="#191970" stroke="#191970" points="1284.3357,-149.2464 1290.3162,-140.5008 1280.1873,-143.608 1284.3357,-149.2464"/>
</g>
<!-- Node17&#45;&gt;Node8 -->
<g id="edge27" class="edge">
<title>Node17&#45;&gt;Node8</title>
<path fill="none" stroke="#191970" d="M2379.5584,-187.5323C2470.4179,-174.9906 2601.1759,-155.8992 2623.5,-147 2647.5483,-137.4135 2647.3138,-123.233 2671.5,-114 2715.8435,-97.072 2831.8868,-84.0963 2921.1394,-76.2071"/>
<polygon fill="#191970" stroke="#191970" points="2921.6757,-79.6736 2931.3336,-75.3176 2921.0672,-72.7001 2921.6757,-79.6736"/>
</g>
<!-- Node17&#45;&gt;Node12 -->
<g id="edge25" class="edge">
<title>Node17&#45;&gt;Node12</title>
<path fill="none" stroke="#191970" d="M2234.604,-183.4966C2189.8336,-170.6785 2128.1707,-153.024 2088.5658,-141.6848"/>
<polygon fill="#191970" stroke="#191970" points="2089.3274,-138.2623 2078.7503,-138.8746 2087.4006,-144.9919 2089.3274,-138.2623"/>
</g>
<!-- Node17&#45;&gt;Node16 -->
<g id="edge26" class="edge">
<title>Node17&#45;&gt;Node16</title>
<path fill="none" stroke="#191970" d="M2261.295,-183.4979C2222.7731,-163.2708 2152.2682,-129.2537 2087.5,-114 1953.7105,-82.4909 1522.6157,-70.9475 1396.4782,-68.1964"/>
<polygon fill="#191970" stroke="#191970" points="1396.3136,-64.6922 1386.2411,-67.978 1396.1642,-71.6906 1396.3136,-64.6922"/>
</g>
<!-- Node18&#45;&gt;Node16 -->
<g id="edge29" class="edge">
<title>Node18&#45;&gt;Node16</title>
<path fill="none" stroke="#191970" d="M1314.4974,-120.378C1322.8568,-110.9736 1335.4947,-96.7559 1345.5613,-85.431"/>
<polygon fill="#191970" stroke="#191970" points="1348.3112,-87.6056 1352.3389,-77.8062 1343.0793,-82.955 1348.3112,-87.6056"/>
</g>
<!-- Node19&#45;&gt;Node8 -->
<g id="edge33" class="edge">
<title>Node19&#45;&gt;Node8</title>
<path fill="none" stroke="#191970" d="M1656.6155,-189.4532C1714.0515,-179.5935 1802.9618,-163.6501 1879.5,-147 1938.5902,-134.1455 1951.6639,-122.7485 2011.5,-114 2184.0334,-88.7743 2692.4425,-74.9211 2921.4215,-69.8107"/>
<polygon fill="#191970" stroke="#191970" points="2921.5263,-73.3094 2931.4463,-69.5886 2921.3712,-66.3111 2921.5263,-73.3094"/>
</g>
<!-- Node19&#45;&gt;Node10 -->
<g id="edge36" class="edge">
<title>Node19&#45;&gt;Node10</title>
<path fill="none" stroke="#191970" d="M1639.6354,-189.4041C1688.3792,-176.004 1757.2981,-149.7976 1727.5,-114 1694.6132,-74.4918 1369.8455,-36.1987 1208.0881,-19.3933"/>
<polygon fill="#191970" stroke="#191970" points="1207.9807,-15.8637 1197.674,-18.3177 1207.2615,-22.8267 1207.9807,-15.8637"/>
</g>
<!-- Node19&#45;&gt;Node12 -->
<g id="edge39" class="edge">
<title>Node19&#45;&gt;Node12</title>
<path fill="none" stroke="#191970" d="M1662.3701,-189.4668C1757.9907,-174.9021 1932.3028,-148.3512 2010.1385,-136.4955"/>
<polygon fill="#191970" stroke="#191970" points="2011.104,-139.8889 2020.4629,-134.9229 2010.0498,-132.9687 2011.104,-139.8889"/>
</g>
<!-- Node19&#45;&gt;Node15 -->
<g id="edge37" class="edge">
<title>Node19&#45;&gt;Node15</title>
<path fill="none" stroke="#191970" d="M1658.5868,-189.4534C1720.5674,-178.8639 1811.1204,-161.7118 1843.5,-147 1865.755,-136.8884 1864.9536,-123.4441 1887.5,-114 1934.4468,-94.3351 2078.8863,-78.4478 2152.0577,-71.4154"/>
<polygon fill="#191970" stroke="#191970" points="2152.6913,-74.8711 2162.3163,-70.4427 2152.0305,-67.9024 2152.6913,-74.8711"/>
</g>
<!-- Node19&#45;&gt;Node16 -->
<g id="edge40" class="edge">
<title>Node19&#45;&gt;Node16</title>
<path fill="none" stroke="#191970" d="M1630.3347,-189.4595C1673.1813,-175.0951 1738.1786,-146.7656 1709.5,-114 1689.0236,-90.6055 1480.15,-74.9655 1396.1783,-69.579"/>
<polygon fill="#191970" stroke="#191970" points="1396.3143,-66.0807 1386.1139,-68.9443 1395.8737,-73.0668 1396.3143,-66.0807"/>
</g>
<!-- Node20 -->
<g id="node20" class="node">
<title>Node20</title>
<g id="a_node20"><a xlink:href="../../d3/d69/GeometryID_8hpp.html" target="_top" xlink:title="Acts/Geometry/GeometryID.hpp">
<polygon fill="none" stroke="#ff0000" points="1522,-120.5 1522,-140.5 1701,-140.5 1701,-120.5 1522,-120.5"/>
<text text-anchor="middle" x="1611.5" y="-127.5" font-family="FreeSans" font-size="10.00" fill="#000000">Acts/Geometry/GeometryID.hpp</text>
</a>
</g>
</g>
<!-- Node19&#45;&gt;Node20 -->
<g id="edge34" class="edge">
<title>Node19&#45;&gt;Node20</title>
<path fill="none" stroke="#191970" d="M1598.7133,-189.3188C1600.9068,-179.2289 1604.3277,-163.4925 1607.0794,-150.8347"/>
<polygon fill="#191970" stroke="#191970" points="1610.5734,-151.2383 1609.2776,-140.723 1603.7331,-149.7512 1610.5734,-151.2383"/>
</g>
<!-- Node21 -->
<g id="node21" class="node">
<title>Node21</title>
<polygon fill="none" stroke="#bfbfbf" points="1796,-120.5 1796,-140.5 1835,-140.5 1835,-120.5 1796,-120.5"/>
<text text-anchor="middle" x="1815.5" y="-127.5" font-family="FreeSans" font-size="10.00" fill="#000000">map</text>
</g>
<!-- Node19&#45;&gt;Node21 -->
<g id="edge38" class="edge">
<title>Node19&#45;&gt;Node21</title>
<path fill="none" stroke="#191970" d="M1639.8111,-189.4953C1677.7521,-180.1939 1734.0807,-165.0745 1781.5,-147 1783.3393,-146.2989 1785.2144,-145.5356 1787.0917,-144.7342"/>
<polygon fill="#191970" stroke="#191970" points="1788.6904,-147.8521 1796.3405,-140.5222 1785.7891,-141.4816 1788.6904,-147.8521"/>
</g>
<!-- Node20&#45;&gt;Node15 -->
<g id="edge35" class="edge">
<title>Node20&#45;&gt;Node15</title>
<path fill="none" stroke="#191970" d="M1701.1512,-120.8287C1828.5863,-107.0814 2057.178,-82.4217 2152.2176,-72.1692"/>
<polygon fill="#191970" stroke="#191970" points="2152.7637,-75.6307 2162.3306,-71.0782 2152.0128,-68.671 2152.7637,-75.6307"/>
</g>
<!-- Node22&#45;&gt;Node8 -->
<g id="edge45" class="edge">
<title>Node22&#45;&gt;Node8</title>
<path fill="none" stroke="#191970" d="M1873.7451,-252.985C1876.6945,-252.6331 1879.6183,-252.3033 1882.5,-252 2038.9506,-235.5342 2440.7737,-267.2677 2589.5,-216 2663.9906,-190.3222 2661.4211,-143.4563 2734.5,-114 2769.1613,-100.0289 2857.3131,-87.3095 2929.318,-78.719"/>
<polygon fill="#191970" stroke="#191970" points="2929.8424,-82.1815 2939.3638,-77.5346 2929.0227,-75.2297 2929.8424,-82.1815"/>
</g>
<!-- Node22&#45;&gt;Node10 -->
<g id="edge55" class="edge">
<title>Node22&#45;&gt;Node10</title>
<path fill="none" stroke="#191970" d="M1685.4331,-265.1227C1532.5603,-258.8646 1243.3622,-243.5308 1205.5,-216 1143.5483,-170.953 1124.8159,-73.2221 1119.4848,-30.815"/>
<polygon fill="#191970" stroke="#191970" points="1122.9593,-30.391 1118.3554,-20.8487 1116.0038,-31.1793 1122.9593,-30.391"/>
</g>
<!-- Node22&#45;&gt;Node12 -->
<g id="edge43" class="edge">
<title>Node22&#45;&gt;Node12</title>
<path fill="none" stroke="#191970" d="M1828.63,-252.4227C1852.9632,-243.4232 1882.2469,-230.9881 1906.5,-216 1925.5281,-204.2408 1925.9053,-195.4332 1944.5,-183 1967.126,-167.8712 1994.7199,-154.2397 2015.9411,-144.6603"/>
<polygon fill="#191970" stroke="#191970" points="2017.4797,-147.8068 2025.2023,-140.5533 2014.6419,-141.4078 2017.4797,-147.8068"/>
</g>
<!-- Node22&#45;&gt;Node15 -->
<g id="edge42" class="edge">
<title>Node22&#45;&gt;Node15</title>
<path fill="none" stroke="#191970" d="M1765.0687,-252.2872C1750.5776,-233.9657 1732.515,-203.9704 1748.5,-183 1785.1042,-134.9796 1822.6534,-167.3542 1879.5,-147 1913.4032,-134.8608 1919.1473,-124.802 1953.5,-114 2021.5123,-92.6138 2103.5258,-79.3664 2152.4915,-72.7241"/>
<polygon fill="#191970" stroke="#191970" points="2152.9691,-76.1915 2162.4218,-71.4064 2152.0482,-69.2523 2152.9691,-76.1915"/>
</g>
<!-- Node22&#45;&gt;Node16 -->
<g id="edge44" class="edge">
<title>Node22&#45;&gt;Node16</title>
<path fill="none" stroke="#191970" d="M1685.4425,-264.7354C1539.8861,-258.1159 1273.1256,-242.5192 1238.5,-216 1201.3587,-187.5541 1184.7816,-151.6873 1212.5,-114 1226.1331,-95.4637 1287.2486,-81.0574 1326.8495,-73.4587"/>
<polygon fill="#191970" stroke="#191970" points="1327.7112,-76.8585 1336.9013,-71.5867 1326.4295,-69.9768 1327.7112,-76.8585"/>
</g>
<!-- Node22&#45;&gt;Node17 -->
<g id="edge49" class="edge">
<title>Node22&#45;&gt;Node17</title>
<path fill="none" stroke="#191970" d="M1873.506,-253.3181C1876.5384,-252.8676 1879.5425,-252.4271 1882.5,-252 1987.6738,-236.8129 2108.4203,-221.5443 2191.1067,-211.4195"/>
<polygon fill="#191970" stroke="#191970" points="2191.7489,-214.8672 2201.2504,-210.1799 2190.8997,-207.9189 2191.7489,-214.8672"/>
</g>
<!-- Node23 -->
<g id="node23" class="node">
<title>Node23</title>
<g id="a_node23"><a xlink:href="../../d2/d17/ITrackingGeometryBuilder_8hpp.html" target="_top" xlink:title="Acts/Geometry/ITrackingGeometry\lBuilder.hpp">
<polygon fill="none" stroke="#000000" points="1954,-183.5 1954,-215.5 2145,-215.5 2145,-183.5 1954,-183.5"/>
<text text-anchor="start" x="1962" y="-202.5" font-family="FreeSans" font-size="10.00" fill="#000000">Acts/Geometry/ITrackingGeometry</text>
<text text-anchor="middle" x="2049.5" y="-190.5" font-family="FreeSans" font-size="10.00" fill="#000000">Builder.hpp</text>
</a>
</g>
</g>
<!-- Node22&#45;&gt;Node23 -->
<g id="edge46" class="edge">
<title>Node22&#45;&gt;Node23</title>
<path fill="none" stroke="#191970" d="M1842.1221,-252.4966C1882.3596,-242.2136 1934.7766,-228.8182 1976.8441,-218.0676"/>
<polygon fill="#191970" stroke="#191970" points="1977.9284,-221.4031 1986.7504,-215.536 1976.1952,-214.621 1977.9284,-221.4031"/>
</g>
<!-- Node24 -->
<g id="node24" class="node">
<title>Node24</title>
<g id="a_node24"><a xlink:href="../../d5/dd6/ITrackingVolumeHelper_8hpp.html" target="_top" xlink:title="Acts/Geometry/ITrackingVolume\lHelper.hpp">
<polygon fill="none" stroke="#ff0000" points="1257.5,-183.5 1257.5,-215.5 1435.5,-215.5 1435.5,-183.5 1257.5,-183.5"/>
<text text-anchor="start" x="1265.5" y="-202.5" font-family="FreeSans" font-size="10.00" fill="#000000">Acts/Geometry/ITrackingVolume</text>
<text text-anchor="middle" x="1346.5" y="-190.5" font-family="FreeSans" font-size="10.00" fill="#000000">Helper.hpp</text>
</a>
</g>
</g>
<!-- Node22&#45;&gt;Node24 -->
<g id="edge50" class="edge">
<title>Node22&#45;&gt;Node24</title>
<path fill="none" stroke="#191970" d="M1685.2585,-253.5346C1619.2492,-243.0457 1528.9854,-228.6892 1449.5,-216 1448.2174,-215.7952 1446.9259,-215.589 1445.6268,-215.3815"/>
<polygon fill="#191970" stroke="#191970" points="1445.9736,-211.8926 1435.5466,-213.7709 1444.869,-218.8049 1445.9736,-211.8926"/>
</g>
<!-- Node25 -->
<g id="node25" class="node">
<title>Node25</title>
<g id="a_node25"><a xlink:href="../../d9/d11/Logger_8hpp.html" target="_top" xlink:title="Acts/Utilities/Logger.hpp">
<polygon fill="none" stroke="#ff0000" points="1757.5,-189.5 1757.5,-209.5 1897.5,-209.5 1897.5,-189.5 1757.5,-189.5"/>
<text text-anchor="middle" x="1827.5" y="-196.5" font-family="FreeSans" font-size="10.00" fill="#000000">Acts/Utilities/Logger.hpp</text>
</a>
</g>
</g>
<!-- Node22&#45;&gt;Node25 -->
<g id="edge56" class="edge">
<title>Node22&#45;&gt;Node25</title>
<path fill="none" stroke="#191970" d="M1790.6328,-252.4966C1797.8161,-242.1706 1807.1828,-228.7059 1814.6773,-217.9327"/>
<polygon fill="#191970" stroke="#191970" points="1817.6057,-219.8519 1820.4432,-209.6441 1811.8594,-215.8544 1817.6057,-219.8519"/>
</g>
<!-- Node23&#45;&gt;Node8 -->
<g id="edge48" class="edge">
<title>Node23&#45;&gt;Node8</title>
<path fill="none" stroke="#191970" d="M2145.077,-184.203C2258.8844,-166.2342 2454.7932,-136.0782 2623.5,-114 2726.7209,-100.4917 2844.8037,-87.4057 2928.0146,-78.576"/>
<polygon fill="#191970" stroke="#191970" points="2928.4101,-82.0537 2937.9861,-77.5205 2927.6732,-75.0926 2928.4101,-82.0537"/>
</g>
<!-- Node23&#45;&gt;Node12 -->
<g id="edge47" class="edge">
<title>Node23&#45;&gt;Node12</title>
<path fill="none" stroke="#191970" d="M2049.5,-183.4966C2049.5,-173.7901 2049.5,-161.3104 2049.5,-150.8996"/>
<polygon fill="#191970" stroke="#191970" points="2053.0001,-150.6441 2049.5,-140.6441 2046.0001,-150.6441 2053.0001,-150.6441"/>
</g>
<!-- Node24&#45;&gt;Node10 -->
<g id="edge54" class="edge">
<title>Node24&#45;&gt;Node10</title>
<path fill="none" stroke="#191970" d="M1378.7788,-183.2748C1392.4464,-174.5521 1406.9368,-162.3943 1414.5,-147 1432.5685,-110.2231 1425.8445,-83.392 1394.5,-57 1366.7242,-33.6129 1277.5219,-21.6996 1207.7618,-15.8253"/>
<polygon fill="#191970" stroke="#191970" points="1207.8705,-12.3227 1197.62,-15.0018 1207.3039,-19.2997 1207.8705,-12.3227"/>
</g>
<!-- Node24&#45;&gt;Node12 -->
<g id="edge51" class="edge">
<title>Node24&#45;&gt;Node12</title>
<path fill="none" stroke="#191970" d="M1435.7086,-188.3094C1451.2966,-186.4591 1467.3644,-184.6185 1482.5,-183 1680.5559,-161.8207 1918.079,-141.4587 2010.2586,-133.747"/>
<polygon fill="#191970" stroke="#191970" points="2010.5838,-137.2321 2020.258,-132.9124 2010.0016,-130.2564 2010.5838,-137.2321"/>
</g>
<!-- Node24&#45;&gt;Node16 -->
<g id="edge52" class="edge">
<title>Node24&#45;&gt;Node16</title>
<path fill="none" stroke="#191970" d="M1369.4322,-183.3027C1380.4563,-174.0758 1392.5452,-161.474 1398.5,-147 1404.0803,-133.4364 1403.3366,-127.8462 1398.5,-114 1394.7237,-103.189 1387.266,-93.011 1380.0293,-84.9496"/>
<polygon fill="#191970" stroke="#191970" points="1382.4644,-82.4323 1373.0109,-77.6486 1377.4179,-87.2834 1382.4644,-82.4323"/>
</g>
<!-- Node24&#45;&gt;Node18 -->
<g id="edge53" class="edge">
<title>Node24&#45;&gt;Node18</title>
<path fill="none" stroke="#191970" d="M1336.9907,-183.4966C1330.9163,-173.2738 1323.0141,-159.9749 1316.6453,-149.2567"/>
<polygon fill="#191970" stroke="#191970" points="1319.6449,-147.4531 1311.5277,-140.6441 1313.6271,-151.0289 1319.6449,-147.4531"/>
</g>
<!-- Node25&#45;&gt;Node12 -->
<g id="edge58" class="edge">
<title>Node25&#45;&gt;Node12</title>
<path fill="none" stroke="#191970" d="M1860.431,-189.4126C1894.6949,-178.8975 1949.8923,-161.9041 1997.5,-147 2001.7849,-145.6586 2006.2661,-144.2481 2010.7238,-142.8402"/>
<polygon fill="#191970" stroke="#191970" points="2011.8824,-146.1447 2020.3599,-139.79 2009.7699,-139.4711 2011.8824,-146.1447"/>
</g>
<!-- Node25&#45;&gt;Node15 -->
<g id="edge57" class="edge">
<title>Node25&#45;&gt;Node15</title>
<path fill="none" stroke="#191970" d="M1854.4696,-189.3696C1880.2742,-179.4189 1920.0966,-163.3852 1953.5,-147 1980.1272,-133.9387 1983.9841,-125.0672 2011.5,-114 2058.0231,-95.2879 2114.2611,-82.39 2152.2205,-75.0067"/>
<polygon fill="#191970" stroke="#191970" points="2153.2475,-78.3743 2162.419,-73.0702 2151.9416,-71.4971 2153.2475,-78.3743"/>
</g>
<!-- Node26&#45;&gt;Node10 -->
<g id="edge62" class="edge">
<title>Node26&#45;&gt;Node10</title>
<path fill="none" stroke="#191970" d="M4063.6995,-183.3303C4078.22,-164.7729 4096.4308,-134.2926 4079.5,-114 3988.9142,-5.4279 3907.2088,-70.9536 3766.5,-57 3507.9845,-31.3639 1642.7707,-14.7616 1207.9443,-11.2135"/>
<polygon fill="#191970" stroke="#191970" points="1207.6621,-7.7112 1197.634,-11.1296 1207.6051,-14.711 1207.6621,-7.7112"/>
</g>
<!-- Node26&#45;&gt;Node27 -->
<g id="edge60" class="edge">
<title>Node26&#45;&gt;Node27</title>
<path fill="none" stroke="#191970" d="M4036.7437,-183.4966C4029.9695,-174.9981 4021.5008,-164.3738 4013.9281,-154.8735"/>
<polygon fill="#191970" stroke="#191970" points="4016.5392,-152.5339 4007.5691,-146.8958 4011.0653,-156.8971 4016.5392,-152.5339"/>
</g>
<!-- Node27&#45;&gt;Node9 -->
<g id="edge61" class="edge">
<title>Node27&#45;&gt;Node9</title>
<path fill="none" stroke="#191970" d="M3959.737,-114.352C3922.0485,-97.5076 3859.7359,-71.5668 3803.5,-57 3693.2017,-28.4294 3557.3844,-16.331 3500.0761,-12.244"/>
<polygon fill="#191970" stroke="#191970" points="3500.2184,-8.7456 3490.0019,-11.5513 3499.7382,-15.7291 3500.2184,-8.7456"/>
</g>
<!-- Node28&#45;&gt;Node10 -->
<g id="edge76" class="edge">
<title>Node28&#45;&gt;Node10</title>
<path fill="none" stroke="#191970" d="M774.4279,-252.3772C756.115,-244.5157 738.2714,-232.9451 727.5,-216 719.632,-203.6224 719.6889,-195.4136 727.5,-183 747.1916,-151.7054 771.5987,-167.3033 802.5,-147 821.1943,-134.7172 821.2724,-125.4301 840.5,-114 914.3925,-70.0737 1010.1296,-39.3303 1067.5214,-23.3172"/>
<polygon fill="#191970" stroke="#191970" points="1068.717,-26.6184 1077.4313,-20.5925 1066.8612,-19.8689 1068.717,-26.6184"/>
</g>
<!-- Node28&#45;&gt;Node29 -->
<g id="edge65" class="edge">
<title>Node28&#45;&gt;Node29</title>
<path fill="none" stroke="#191970" d="M883.5674,-252.4966C916.5075,-240.5341 961.0467,-224.3594 992.2252,-213.0366"/>
<polygon fill="#191970" stroke="#191970" points="993.6423,-216.2457 1001.847,-209.5424 991.2528,-209.6662 993.6423,-216.2457"/>
</g>
<!-- Node30 -->
<g id="node30" class="node">
<title>Node30</title>
<g id="a_node30"><a xlink:href="../../d2/ddb/MaterialProperties_8hpp.html" target="_top" xlink:title="Acts/Material/MaterialProperties.hpp">
<polygon fill="none" stroke="#ff0000" points="850,-120.5 850,-140.5 1051,-140.5 1051,-120.5 850,-120.5"/>
<text text-anchor="middle" x="950.5" y="-127.5" font-family="FreeSans" font-size="10.00" fill="#000000">Acts/Material/MaterialProperties.hpp</text>
</a>
</g>
</g>
<!-- Node28&#45;&gt;Node30 -->
<g id="edge75" class="edge">
<title>Node28&#45;&gt;Node30</title>
<path fill="none" stroke="#191970" d="M783.05,-252.4748C765.3482,-244.4979 747.7677,-232.8328 737.5,-216 729.8624,-203.4789 728.4548,-194.5454 737.5,-183 746.7839,-171.1499 825.8429,-153.9123 884.9508,-142.4616"/>
<polygon fill="#191970" stroke="#191970" points="885.8305,-145.8568 894.9916,-140.5346 884.5111,-138.9822 885.8305,-145.8568"/>
</g>
<!-- Node29&#45;&gt;Node10 -->
<g id="edge74" class="edge">
<title>Node29&#45;&gt;Node10</title>
<path fill="none" stroke="#191970" d="M1035.8434,-189.2366C1042.1834,-178.793 1052.0362,-162.0469 1059.5,-147 1079.702,-106.273 1099.627,-56.794 1110.0474,-30.0085"/>
<polygon fill="#191970" stroke="#191970" points="1113.3374,-31.2045 1113.6731,-20.6149 1106.807,-28.6838 1113.3374,-31.2045"/>
</g>
<!-- Node29&#45;&gt;Node12 -->
<g id="edge66" class="edge">
<title>Node29&#45;&gt;Node12</title>
<path fill="none" stroke="#191970" d="M1125.1499,-191.9855C1163.4891,-189.0539 1208.0815,-185.7452 1248.5,-183 1512.8191,-165.0476 1579.2241,-165.577 1843.5,-147 1901.4464,-142.9267 1968.4944,-137.4059 2009.9536,-133.8978"/>
<polygon fill="#191970" stroke="#191970" points="2010.508,-137.3634 2020.176,-133.0297 2009.9156,-130.3885 2010.508,-137.3634"/>
</g>
<!-- Node29&#45;&gt;Node16 -->
<g id="edge67" class="edge">
<title>Node29&#45;&gt;Node16</title>
<path fill="none" stroke="#191970" d="M1044.1521,-189.3586C1070.2477,-171.7149 1126.9752,-135.2296 1179.5,-114 1229.1093,-93.9488 1289.8884,-80.499 1327.1414,-73.4251"/>
<polygon fill="#191970" stroke="#191970" points="1327.8012,-76.8625 1336.996,-71.5988 1326.5256,-69.9797 1327.8012,-76.8625"/>
</g>
<!-- Node29&#45;&gt;Node20 -->
<g id="edge68" class="edge">
<title>Node29&#45;&gt;Node20</title>
<path fill="none" stroke="#191970" d="M1114.1278,-189.4668C1221.1305,-176.7809 1404.832,-155.0019 1516.5245,-141.76"/>
<polygon fill="#191970" stroke="#191970" points="1517.2517,-145.1984 1526.7701,-140.5453 1516.4275,-138.2471 1517.2517,-145.1984"/>
</g>
<!-- Node29&#45;&gt;Node30 -->
<g id="edge69" class="edge">
<title>Node29&#45;&gt;Node30</title>
<path fill="none" stroke="#191970" d="M1017.8433,-189.3188C1005.2408,-178.3116 984.9447,-160.5846 969.9242,-147.4654"/>
<polygon fill="#191970" stroke="#191970" points="972.0387,-144.6652 962.2045,-140.723 967.4338,-149.9374 972.0387,-144.6652"/>
</g>
<!-- Node30&#45;&gt;Node16 -->
<g id="edge70" class="edge">
<title>Node30&#45;&gt;Node16</title>
<path fill="none" stroke="#191970" d="M1016.0786,-120.4478C1104.2799,-106.9279 1257.9713,-83.3694 1326.6318,-72.8448"/>
<polygon fill="#191970" stroke="#191970" points="1327.5441,-76.2459 1336.8983,-71.2711 1326.4834,-69.3267 1327.5441,-76.2459"/>
</g>
<!-- Node31 -->
<g id="node31" class="node">
<title>Node31</title>
<g id="a_node31"><a xlink:href="../../d0/d70/Material_8hpp.html" target="_top" xlink:title="Acts/Material/Material.hpp">
<polygon fill="none" stroke="#ff0000" points="349.5,-57.5 349.5,-77.5 499.5,-77.5 499.5,-57.5 349.5,-57.5"/>
<text text-anchor="middle" x="424.5" y="-64.5" font-family="FreeSans" font-size="10.00" fill="#000000">Acts/Material/Material.hpp</text>
</a>
</g>
</g>
<!-- Node30&#45;&gt;Node31 -->
<g id="edge71" class="edge">
<title>Node30&#45;&gt;Node31</title>
<path fill="none" stroke="#191970" d="M866.8631,-120.4827C769.1577,-108.7803 608.3729,-89.5228 509.9113,-77.7299"/>
<polygon fill="#191970" stroke="#191970" points="510.0428,-74.2207 499.6975,-76.5065 509.2103,-81.171 510.0428,-74.2207"/>
</g>
<!-- Node31&#45;&gt;Node10 -->
<g id="edge73" class="edge">
<title>Node31&#45;&gt;Node10</title>
<path fill="none" stroke="#191970" d="M499.7397,-58.4059C504.3939,-57.9108 509.0093,-57.4376 513.5,-57 695.563,-39.2595 909.0434,-24.1606 1027.2086,-16.303"/>
<polygon fill="#191970" stroke="#191970" points="1027.548,-19.7883 1037.2946,-15.6346 1027.085,-12.8036 1027.548,-19.7883"/>
</g>
<!-- Node32 -->
<g id="node32" class="node">
<title>Node32</title>
<polygon fill="none" stroke="#bfbfbf" points="219.5,-.5 219.5,-20.5 263.5,-20.5 263.5,-.5 219.5,-.5"/>
<text text-anchor="middle" x="241.5" y="-7.5" font-family="FreeSans" font-size="10.00" fill="#000000">limits</text>
</g>
<!-- Node31&#45;&gt;Node32 -->
<g id="edge72" class="edge">
<title>Node31&#45;&gt;Node32</title>
<path fill="none" stroke="#191970" d="M392.2045,-57.4408C358.7284,-47.0138 306.7238,-30.8156 273.396,-20.4348"/>
<polygon fill="#191970" stroke="#191970" points="274.2821,-17.045 263.6937,-17.4128 272.2004,-23.7283 274.2821,-17.045"/>
</g>
<!-- Node33&#45;&gt;Node10 -->
<g id="edge82" class="edge">
<title>Node33&#45;&gt;Node10</title>
<path fill="none" stroke="#191970" d="M467.0364,-183.3788C488.2979,-147.6936 538.7187,-64.5717 551.5,-57 591.3543,-33.3899 877.7202,-19.385 1027.1869,-13.6066"/>
<polygon fill="#191970" stroke="#191970" points="1027.4093,-17.1008 1037.2683,-13.2213 1027.1419,-10.1059 1027.4093,-17.1008"/>
</g>
<!-- Node33&#45;&gt;Node31 -->
<g id="edge81" class="edge">
<title>Node33&#45;&gt;Node31</title>
<path fill="none" stroke="#191970" d="M464.4876,-183.4607C471.1103,-165.8177 478.777,-136.9264 469.5,-114 464.8541,-102.5186 455.8637,-92.3021 447.1324,-84.3904"/>
<polygon fill="#191970" stroke="#191970" points="449.2201,-81.5726 439.3188,-77.8023 444.7079,-86.9242 449.2201,-81.5726"/>
</g>
<!-- Node33&#45;&gt;Node34 -->
<g id="edge78" class="edge">
<title>Node33&#45;&gt;Node34</title>
<path fill="none" stroke="#191970" d="M436.1621,-183.4966C421.4303,-172.4477 401.9073,-157.8055 387.1158,-146.7118"/>
<polygon fill="#191970" stroke="#191970" points="389.1255,-143.8441 379.0255,-140.6441 384.9255,-149.4442 389.1255,-143.8441"/>
</g>
<!-- Node34&#45;&gt;Node10 -->
<g id="edge80" class="edge">
<title>Node34&#45;&gt;Node10</title>
<path fill="none" stroke="#191970" d="M356.4352,-120.3586C343.6299,-104.7983 323.5879,-74.9545 340.5,-57 363.7241,-32.3445 827.2497,-17.7849 1027.091,-12.6317"/>
<polygon fill="#191970" stroke="#191970" points="1027.3648,-16.1259 1037.272,-12.3714 1027.1858,-9.1282 1027.3648,-16.1259"/>
</g>
<!-- Node34&#45;&gt;Node31 -->
<g id="edge79" class="edge">
<title>Node34&#45;&gt;Node31</title>
<path fill="none" stroke="#191970" d="M374.9794,-120.378C383.7866,-110.9736 397.1016,-96.7559 407.7074,-85.431"/>
<polygon fill="#191970" stroke="#191970" points="410.5672,-87.4977 414.8481,-77.8062 405.4579,-82.7128 410.5672,-87.4977"/>
</g>
<!-- Node37 -->
<g id="node37" class="node">
<title>Node37</title>
<g id="a_node37"><a xlink:href="../../d9/d70/Core_2include_2Acts_2Utilities_2Helpers_8hpp.html" target="_top" xlink:title="Acts/Utilities/Helpers.hpp">
<polygon fill="none" stroke="#ff0000" points="2436,-189.5 2436,-209.5 2581,-209.5 2581,-189.5 2436,-189.5"/>
<text text-anchor="middle" x="2508.5" y="-196.5" font-family="FreeSans" font-size="10.00" fill="#000000">Acts/Utilities/Helpers.hpp</text>
</a>
</g>
</g>
<!-- Node36&#45;&gt;Node37 -->
<g id="edge87" class="edge">
<title>Node36&#45;&gt;Node37</title>
<path fill="none" stroke="#191970" d="M2393.9848,-258.4668C2416.6115,-246.8157 2454.134,-227.4944 2480.0274,-214.1613"/>
<polygon fill="#191970" stroke="#191970" points="2481.7035,-217.235 2488.9917,-209.5453 2478.4988,-211.0116 2481.7035,-217.235"/>
</g>
<!-- Node37&#45;&gt;Node10 -->
<g id="edge92" class="edge">
<title>Node37&#45;&gt;Node10</title>
<path fill="none" stroke="#191970" d="M2495.392,-189.4019C2457.8573,-161.2305 2345.7024,-82.1956 2237.5,-57 2138.5919,-33.9686 1456.3888,-17.5813 1207.8344,-12.3149"/>
<polygon fill="#191970" stroke="#191970" points="1207.8228,-8.814 1197.7512,-12.1023 1207.6752,-15.8124 1207.8228,-8.814"/>
</g>
<!-- Node37&#45;&gt;Node12 -->
<g id="edge89" class="edge">
<title>Node37&#45;&gt;Node12</title>
<path fill="none" stroke="#191970" d="M2441.7575,-189.4668C2344.5532,-174.8544 2167.0924,-148.1773 2088.6117,-136.3795"/>
<polygon fill="#191970" stroke="#191970" points="2089.0648,-132.9084 2078.6556,-134.8829 2088.0241,-139.8306 2089.0648,-132.9084"/>
</g>
<!-- Node37&#45;&gt;Node16 -->
<g id="edge90" class="edge">
<title>Node37&#45;&gt;Node16</title>
<path fill="none" stroke="#191970" d="M2474.828,-189.3576C2411.8286,-170.8542 2271.5564,-131.8815 2150.5,-114 2001.6494,-92.013 1528.783,-73.5712 1396.3005,-68.7367"/>
<polygon fill="#191970" stroke="#191970" points="1396.4195,-65.2388 1386.2992,-68.3741 1396.1658,-72.2342 1396.4195,-65.2388"/>
</g>
<!-- Node37&#45;&gt;Node18 -->
<g id="edge91" class="edge">
<title>Node37&#45;&gt;Node18</title>
<path fill="none" stroke="#191970" d="M2443.8598,-189.4584C2425.9672,-186.9936 2406.5139,-184.6049 2388.5,-183 2000.3754,-148.421 1901.4536,-170.4852 1512.5,-147 1475.6531,-144.7752 1435.1663,-141.6904 1399.8461,-138.7896"/>
<polygon fill="#191970" stroke="#191970" points="1399.8006,-135.274 1389.546,-137.937 1399.2231,-142.2501 1399.8006,-135.274"/>
</g>
<!-- Node38 -->
<g id="node38" class="node">
<title>Node38</title>
<polygon fill="none" stroke="#bfbfbf" points="2789.5,-120.5 2789.5,-140.5 2837.5,-140.5 2837.5,-120.5 2789.5,-120.5"/>
<text text-anchor="middle" x="2813.5" y="-127.5" font-family="FreeSans" font-size="10.00" fill="#000000">cmath</text>
</g>
<!-- Node37&#45;&gt;Node38 -->
<g id="edge88" class="edge">
<title>Node37&#45;&gt;Node38</title>
<path fill="none" stroke="#191970" d="M2552.8496,-189.4668C2614.3142,-175.5617 2724.0703,-150.7316 2779.4891,-138.1943"/>
<polygon fill="#191970" stroke="#191970" points="2780.5183,-141.55 2789.4996,-135.9296 2778.9737,-134.7225 2780.5183,-141.55"/>
</g>
<!-- Node39&#45;&gt;Node8 -->
<g id="edge95" class="edge">
<title>Node39&#45;&gt;Node8</title>
<path fill="none" stroke="#191970" d="M2695.7573,-256.7758C2818.4734,-242.175 3011.658,-218.7982 3014.5,-216 3048.856,-182.1737 3044.4986,-119.589 3039.4571,-87.5458"/>
<polygon fill="#191970" stroke="#191970" points="3042.8844,-86.8266 3037.7077,-77.5826 3035.9899,-88.0373 3042.8844,-86.8266"/>
</g>
<!-- Node39&#45;&gt;Node15 -->
<g id="edge94" class="edge">
<title>Node39&#45;&gt;Node15</title>
<path fill="none" stroke="#191970" d="M2600.082,-252.3895C2603.2573,-233.6046 2605.2523,-202.6313 2589.5,-183 2545.0501,-127.6042 2331.0539,-88.4639 2238.4081,-73.8391"/>
<polygon fill="#191970" stroke="#191970" points="2238.9355,-70.3792 2228.5159,-72.2982 2237.858,-77.2958 2238.9355,-70.3792"/>
</g>
<!-- Node39&#45;&gt;Node27 -->
<g id="edge96" class="edge">
<title>Node39&#45;&gt;Node27</title>
<path fill="none" stroke="#191970" d="M2695.7576,-256.3168C2711.3817,-254.678 2727.3671,-253.1639 2742.5,-252 3131.9002,-222.0517 3235.0242,-278.7521 3620.5,-216 3672.5614,-207.5249 3683.2714,-195.5641 3734.5,-183 3792.1526,-168.8604 3857.6681,-155.649 3908.51,-146.0162"/>
<polygon fill="#191970" stroke="#191970" points="3909.2971,-149.4295 3918.476,-144.1381 3908.0008,-142.5506 3909.2971,-149.4295"/>
</g>
<!-- Node39&#45;&gt;Node37 -->
<g id="edge106" class="edge">
<title>Node39&#45;&gt;Node37</title>
<path fill="none" stroke="#191970" d="M2576.0898,-252.4966C2562.1303,-241.551 2543.673,-227.0789 2529.5738,-216.0238"/>
<polygon fill="#191970" stroke="#191970" points="2531.4664,-213.0602 2521.4374,-209.6441 2527.1472,-218.5688 2531.4664,-213.0602"/>
</g>
<!-- Node40 -->
<g id="node40" class="node">
<title>Node40</title>
<g id="a_node40"><a xlink:href="../../d2/de7/Interactions_8hpp.html" target="_top" xlink:title="Acts/Material/Interactions.hpp">
<polygon fill="none" stroke="#ff0000" points="747,-189.5 747,-209.5 916,-209.5 916,-189.5 747,-189.5"/>
<text text-anchor="middle" x="831.5" y="-196.5" font-family="FreeSans" font-size="10.00" fill="#000000">Acts/Material/Interactions.hpp</text>
</a>
</g>
</g>
<!-- Node39&#45;&gt;Node40 -->
<g id="edge97" class="edge">
<title>Node39&#45;&gt;Node40</title>
<path fill="none" stroke="#191970" d="M2497.3944,-252.8529C2494.3988,-252.5422 2491.4288,-252.2564 2488.5,-252 1795.8532,-191.3711 1616.3699,-284.9315 924.5,-216 913.2679,-214.8809 901.3521,-213.1707 889.9324,-211.2681"/>
<polygon fill="#191970" stroke="#191970" points="890.505,-207.8153 880.0543,-209.5567 889.31,-214.7125 890.505,-207.8153"/>
</g>
<!-- Node39&#45;&gt;Node41 -->
<g id="edge99" class="edge">
<title>Node39&#45;&gt;Node41</title>
<path fill="none" stroke="#191970" d="M2670.7188,-252.4966C2728.4784,-240.0422 2807.4132,-223.0218 2860.0829,-211.6649"/>
<polygon fill="#191970" stroke="#191970" points="2860.8889,-215.0717 2869.9265,-209.5424 2859.4134,-208.2289 2860.8889,-215.0717"/>
</g>
<!-- Node40&#45;&gt;Node30 -->
<g id="edge98" class="edge">
<title>Node40&#45;&gt;Node30</title>
<path fill="none" stroke="#191970" d="M848.8036,-189.4668C868.6331,-177.969 901.3451,-159.0016 924.3016,-145.6907"/>
<polygon fill="#191970" stroke="#191970" points="926.2802,-148.5893 933.1755,-140.5453 922.7689,-142.5336 926.2802,-148.5893"/>
</g>
<!-- Node41&#45;&gt;Node8 -->
<g id="edge103" class="edge">
<title>Node41&#45;&gt;Node8</title>
<path fill="none" stroke="#191970" d="M2925.8377,-189.1422C2946.0844,-166.6837 2994.2277,-113.281 3019.454,-85.2989"/>
<polygon fill="#191970" stroke="#191970" points="3022.1093,-87.5806 3026.2056,-77.8097 3016.9102,-82.8935 3022.1093,-87.5806"/>
</g>
<!-- Node41&#45;&gt;Node10 -->
<g id="edge105" class="edge">
<title>Node41&#45;&gt;Node10</title>
<path fill="none" stroke="#191970" d="M2915.294,-189.2257C2912.5838,-171.0378 2904.2644,-133.2792 2880.5,-114 2776.798,-29.8704 2718.2104,-71.8275 2585.5,-57 2316.6967,-26.9671 1485.269,-14.7772 1208.309,-11.4821"/>
<polygon fill="#191970" stroke="#191970" points="1207.943,-7.9777 1197.9024,-11.3594 1207.8604,-14.9772 1207.943,-7.9777"/>
</g>
<!-- Node41&#45;&gt;Node12 -->
<g id="edge102" class="edge">
<title>Node41&#45;&gt;Node12</title>
<path fill="none" stroke="#191970" d="M2827.3861,-192.4079C2641.8233,-177.6399 2220.3204,-144.0947 2089.1919,-133.6589"/>
<polygon fill="#191970" stroke="#191970" points="2089.0791,-130.1389 2078.833,-132.8345 2088.5237,-137.1169 2089.0791,-130.1389"/>
</g>
<!-- Node41&#45;&gt;Node15 -->
<g id="edge101" class="edge">
<title>Node41&#45;&gt;Node15</title>
<path fill="none" stroke="#191970" d="M2911.6946,-189.3177C2902.2272,-170.566 2879.2045,-130.9444 2846.5,-114 2792.8161,-86.186 2376.1167,-72.4279 2239.0461,-68.6221"/>
<polygon fill="#191970" stroke="#191970" points="2239.006,-65.1198 2228.9139,-68.3448 2238.8144,-72.1171 2239.006,-65.1198"/>
</g>
<!-- Node41&#45;&gt;Node27 -->
<g id="edge104" class="edge">
<title>Node41&#45;&gt;Node27</title>
<path fill="none" stroke="#191970" d="M2991.9413,-189.4611C3011.6266,-187.0848 3032.8358,-184.739 3052.5,-183 3367.1312,-155.176 3742.2648,-139.4806 3908.2238,-133.4294"/>
<polygon fill="#191970" stroke="#191970" points="3908.5036,-136.9217 3918.3704,-133.062 3908.2503,-129.9262 3908.5036,-136.9217"/>
</g>
<!-- Node41&#45;&gt;Node38 -->
<g id="edge100" class="edge">
<title>Node41&#45;&gt;Node38</title>
<path fill="none" stroke="#191970" d="M2901.302,-189.3188C2884.4145,-178.0058 2856.9311,-159.5946 2837.2095,-146.3831"/>
<polygon fill="#191970" stroke="#191970" points="2839.0164,-143.3808 2828.7604,-140.723 2835.1205,-149.1964 2839.0164,-143.3808"/>
</g>
<!-- Node42&#45;&gt;Node15 -->
<g id="edge109" class="edge">
<title>Node42&#45;&gt;Node15</title>
<path fill="none" stroke="#191970" d="M2771.8163,-327.3846C2758.8972,-310.7069 2731.5725,-276.8175 2704.5,-252 2624.0813,-178.2798 2603.6949,-152.1842 2501.5,-114 2454.1832,-96.3205 2311.3297,-79.5295 2238.7813,-71.8571"/>
<polygon fill="#191970" stroke="#191970" points="2238.9173,-68.3523 2228.6073,-70.7922 2238.1886,-75.3142 2238.9173,-68.3523"/>
</g>
<!-- Node42&#45;&gt;Node32 -->
<g id="edge110" class="edge">
<title>Node42&#45;&gt;Node32</title>
<path fill="none" stroke="#191970" d="M2683.9091,-336.9655C2335.2773,-334.7137 1132.5811,-324.2181 750.5,-285 578.8765,-267.384 529.1235,-278.9685 368.5,-216 315.4694,-195.2106 291.2513,-194.9458 260.5,-147 237.5668,-111.2438 237.3043,-59.4314 239.2976,-31.0304"/>
<polygon fill="#191970" stroke="#191970" points="242.814,-30.9942 240.1966,-20.7278 235.8405,-30.3857 242.814,-30.9942"/>
</g>
<!-- Node42&#45;&gt;Node36 -->
<g id="edge117" class="edge">
<title>Node42&#45;&gt;Node36</title>
<path fill="none" stroke="#191970" d="M2720.6095,-327.4668C2647.1237,-314.947 2521.6533,-293.5706 2443.6693,-280.2844"/>
<polygon fill="#191970" stroke="#191970" points="2443.9074,-276.7746 2433.4616,-278.5453 2442.7317,-283.6752 2443.9074,-276.7746"/>
</g>
<!-- Node42&#45;&gt;Node38 -->
<g id="edge108" class="edge">
<title>Node42&#45;&gt;Node38</title>
<path fill="none" stroke="#191970" d="M2826.4144,-327.433C2865.9879,-317.8778 2918.1159,-302.4171 2930.5,-285 2982.661,-211.6408 2841.1552,-245.2449 2818.5,-216 2804.1894,-197.5269 2805.5648,-169.513 2808.7603,-150.6341"/>
<polygon fill="#191970" stroke="#191970" points="2812.2148,-151.208 2810.7473,-140.7153 2805.3512,-149.833 2812.2148,-151.208"/>
</g>
<!-- Node42&#45;&gt;Node39 -->
<g id="edge118" class="edge">
<title>Node42&#45;&gt;Node39</title>
<path fill="none" stroke="#191970" d="M2752.8902,-327.4668C2725.7328,-317.2271 2682.8629,-301.0631 2648.8703,-288.2462"/>
<polygon fill="#191970" stroke="#191970" points="2649.6788,-284.8106 2639.087,-284.5574 2647.2091,-291.3604 2649.6788,-284.8106"/>
</g>
<!-- Node43 -->
<g id="node43" class="node">
<title>Node43</title>
<g id="a_node43"><a xlink:href="../../d8/d81/TrackParameters_8hpp.html" target="_top" xlink:title="Acts/EventData/TrackParameters.hpp">
<polygon fill="none" stroke="#000000" points="3335,-258.5 3335,-278.5 3540,-278.5 3540,-258.5 3335,-258.5"/>
<text text-anchor="middle" x="3437.5" y="-265.5" font-family="FreeSans" font-size="10.00" fill="#000000">Acts/EventData/TrackParameters.hpp</text>
</a>
</g>
</g>
<!-- Node42&#45;&gt;Node43 -->
<g id="edge111" class="edge">
<title>Node42&#45;&gt;Node43</title>
<path fill="none" stroke="#191970" d="M2875.1788,-327.4668C2996.7285,-314.7207 3205.8176,-292.795 3331.9144,-279.572"/>
<polygon fill="#191970" stroke="#191970" points="3332.3926,-283.0412 3341.973,-278.5173 3331.6625,-276.0794 3332.3926,-283.0412"/>
</g>
<!-- Node44 -->
<g id="node44" class="node">
<title>Node44</title>
<g id="a_node44"><a xlink:href="../../da/d5a/EigenStepperError_8hpp.html" target="_top" xlink:title="Acts/Propagator/EigenStepper\lError.hpp">
<polygon fill="none" stroke="#ff0000" points="2751.5,-252.5 2751.5,-284.5 2921.5,-284.5 2921.5,-252.5 2751.5,-252.5"/>
<text text-anchor="start" x="2759.5" y="-271.5" font-family="FreeSans" font-size="10.00" fill="#000000">Acts/Propagator/EigenStepper</text>
<text text-anchor="middle" x="2836.5" y="-259.5" font-family="FreeSans" font-size="10.00" fill="#000000">Error.hpp</text>
</a>
</g>
</g>
<!-- Node42&#45;&gt;Node44 -->
<g id="edge119" class="edge">
<title>Node42&#45;&gt;Node44</title>
<path fill="none" stroke="#191970" d="M2787.9105,-327.3188C2795.4589,-318.1813 2806.8328,-304.4129 2816.6789,-292.494"/>
<polygon fill="#191970" stroke="#191970" points="2819.515,-294.5563 2823.1855,-284.6175 2814.1183,-290.0981 2819.515,-294.5563"/>
</g>
<!-- Node45 -->
<g id="node45" class="node">
<title>Node45</title>
<g id="a_node45"><a xlink:href="../../dc/d81/StepperExtensionList_8hpp.html" target="_top" xlink:title="Acts/Propagator/StepperExtension\lList.hpp">
<polygon fill="none" stroke="#ff0000" points="3015.5,-252.5 3015.5,-284.5 3205.5,-284.5 3205.5,-252.5 3015.5,-252.5"/>
<text text-anchor="start" x="3023.5" y="-271.5" font-family="FreeSans" font-size="10.00" fill="#000000">Acts/Propagator/StepperExtension</text>
<text text-anchor="middle" x="3110.5" y="-259.5" font-family="FreeSans" font-size="10.00" fill="#000000">List.hpp</text>
</a>
</g>
</g>
<!-- Node42&#45;&gt;Node45 -->
<g id="edge120" class="edge">
<title>Node42&#45;&gt;Node45</title>
<path fill="none" stroke="#191970" d="M2827.6302,-327.4668C2878.8592,-316.7877 2960.9999,-299.6647 3023.5997,-286.6152"/>
<polygon fill="#191970" stroke="#191970" points="3024.3958,-290.0245 3033.471,-284.5574 3022.9672,-283.1719 3024.3958,-290.0245"/>
</g>
<!-- Node42&#45;&gt;Node46 -->
<g id="edge122" class="edge">
<title>Node42&#45;&gt;Node46</title>
<path fill="none" stroke="#191970" d="M2875.1794,-332.5839C2996.416,-325.3578 3192.3749,-309.9559 3214.5,-285 3224.2298,-274.0254 3221.7423,-264.7539 3214.5,-252 3206.8615,-238.5484 3194.2596,-228.1779 3180.9471,-220.3473"/>
<polygon fill="#191970" stroke="#191970" points="3182.5989,-217.2616 3172.1414,-215.5614 3179.2562,-223.4119 3182.5989,-217.2616"/>
</g>
<!-- Node43&#45;&gt;Node5 -->
<g id="edge112" class="edge">
<title>Node43&#45;&gt;Node5</title>
<path fill="none" stroke="#191970" d="M3498.2789,-258.4445C3545.0998,-249.4041 3604.4616,-234.6846 3620.5,-216 3651.5594,-179.816 3647.8586,-119.2233 3643.2684,-87.7931"/>
<polygon fill="#191970" stroke="#191970" points="3646.6741,-86.9328 3641.5997,-77.6322 3639.7666,-88.0672 3646.6741,-86.9328"/>
</g>
<!-- Node43&#45;&gt;Node6 -->
<g id="edge113" class="edge">
<title>Node43&#45;&gt;Node6</title>
<path fill="none" stroke="#191970" d="M3451.2225,-258.3188C3464.1304,-248.742 3483.8944,-234.0784 3500.459,-221.7885"/>
<polygon fill="#191970" stroke="#191970" points="3502.8308,-224.3869 3508.7763,-215.6175 3498.6599,-218.7652 3502.8308,-224.3869"/>
</g>
<!-- Node43&#45;&gt;Node7 -->
<g id="edge116" class="edge">
<title>Node43&#45;&gt;Node7</title>
<path fill="none" stroke="#191970" d="M3436.2974,-258.1276C3433.827,-236.8204 3428.1145,-187.5501 3424.5537,-156.8384"/>
<polygon fill="#191970" stroke="#191970" points="3428.0213,-156.3558 3423.3928,-146.8255 3421.0679,-157.1621 3428.0213,-156.3558"/>
</g>
<!-- Node43&#45;&gt;Node11 -->
<g id="edge114" class="edge">
<title>Node43&#45;&gt;Node11</title>
<path fill="none" stroke="#191970" d="M3417.7244,-258.4668C3398.0616,-248.4908 3367.3154,-232.8916 3342.3844,-220.2428"/>
<polygon fill="#191970" stroke="#191970" points="3343.6509,-216.9607 3333.1494,-215.5574 3340.4837,-223.2032 3343.6509,-216.9607"/>
</g>
<!-- Node43&#45;&gt;Node13 -->
<g id="edge115" class="edge">
<title>Node43&#45;&gt;Node13</title>
<path fill="none" stroke="#191970" d="M3493.0461,-258.4668C3556.1894,-247.0613 3660.0252,-228.3057 3733.6199,-215.0124"/>
<polygon fill="#191970" stroke="#191970" points="3734.5778,-218.3961 3743.7964,-213.1742 3733.3335,-211.5075 3734.5778,-218.3961"/>
</g>
<!-- Node45&#45;&gt;Node46 -->
<g id="edge121" class="edge">
<title>Node45&#45;&gt;Node46</title>
<path fill="none" stroke="#191970" d="M3114.2109,-252.4966C3116.0422,-244.599 3118.2993,-234.8656 3120.3772,-225.9044"/>
<polygon fill="#191970" stroke="#191970" points="3123.8486,-226.428 3122.6981,-215.8958 3117.0296,-224.8467 3123.8486,-226.428"/>
</g>
<!-- Node47&#45;&gt;Node30 -->
<g id="edge124" class="edge">
<title>Node47&#45;&gt;Node30</title>
<path fill="none" stroke="#191970" d="M750.8845,-321.1212C730.7963,-290.6045 694.7176,-224.3965 727.5,-183 743.0967,-163.305 797.6036,-150.2634 848.8207,-142.1046"/>
<polygon fill="#191970" stroke="#191970" points="849.6562,-145.5174 859.0077,-140.5375 848.5918,-138.5988 849.6562,-145.5174"/>
</g>
<!-- Node48&#45;&gt;Node19 -->
<g id="edge126" class="edge">
<title>Node48&#45;&gt;Node19</title>
<path fill="none" stroke="#191970" d="M2110.5078,-258.4679C2097.1142,-256.1851 2082.812,-253.8811 2069.5,-252 2051.3858,-249.4404 1831.8794,-225.2873 1698.3539,-210.6488"/>
<polygon fill="#191970" stroke="#191970" points="1698.42,-207.1352 1688.0982,-209.5246 1697.6573,-214.0935 1698.42,-207.1352"/>
</g>
<!-- Node48&#45;&gt;Node41 -->
<g id="edge127" class="edge">
<title>Node48&#45;&gt;Node41</title>
<path fill="none" stroke="#191970" d="M2217.6236,-258.4599C2231.5144,-256.055 2246.541,-253.6956 2260.5,-252 2488.2732,-224.3321 2547.0471,-237.3399 2775.5,-216 2791.8589,-214.4719 2809.2594,-212.6208 2826.0495,-210.7185"/>
<polygon fill="#191970" stroke="#191970" points="2826.8743,-214.1469 2836.4101,-209.5298 2826.0764,-207.1925 2826.8743,-214.1469"/>
</g>
<!-- Node49&#45;&gt;Node10 -->
<g id="edge131" class="edge">
<title>Node49&#45;&gt;Node10</title>
<path fill="none" stroke="#191970" d="M705.2172,-120.4871C724.9089,-104.2557 766.5193,-72.4617 807.5,-57 846.6059,-42.2457 950.3888,-28.4562 1027.1557,-19.7855"/>
<polygon fill="#191970" stroke="#191970" points="1027.7747,-23.2382 1037.324,-18.6489 1026.9971,-16.2815 1027.7747,-23.2382"/>
</g>
<!-- Node49&#45;&gt;Node16 -->
<g id="edge132" class="edge">
<title>Node49&#45;&gt;Node16</title>
<path fill="none" stroke="#191970" d="M779.7457,-120.4872C799.6869,-118.2644 820.8251,-115.9819 840.5,-114 1023.5434,-95.5611 1243.1521,-77.1856 1326.8262,-70.3202"/>
<polygon fill="#191970" stroke="#191970" points="1327.1219,-73.8077 1336.803,-69.5033 1326.5507,-66.8311 1327.1219,-73.8077"/>
</g>
<!-- Node50&#45;&gt;Node2 -->
<g id="edge135" class="edge">
<title>Node50&#45;&gt;Node2</title>
<path fill="none" stroke="#191970" d="M161.436,-321.4966C141.4268,-310.0863 114.697,-294.8437 95.0408,-283.6348"/>
<polygon fill="#191970" stroke="#191970" points="96.7096,-280.5574 86.289,-278.6441 93.242,-286.6382 96.7096,-280.5574"/>
</g>
<!-- Node50&#45;&gt;Node10 -->
<g id="edge136" class="edge">
<title>Node50&#45;&gt;Node10</title>
<path fill="none" stroke="#191970" d="M192.1993,-321.4071C196.2676,-295.7152 203.5,-243.8096 203.5,-199.5 203.5,-199.5 203.5,-199.5 203.5,-130.5 203.5,-65.2843 268.0417,-75.7628 330.5,-57 395.6944,-37.4153 834.8328,-20.1881 1027.3521,-13.4816"/>
<polygon fill="#191970" stroke="#191970" points="1027.573,-16.9762 1037.4458,-13.1318 1027.3305,-9.9804 1027.573,-16.9762"/>
</g>
<!-- Node50&#45;&gt;Node32 -->
<g id="edge134" class="edge">
<title>Node50&#45;&gt;Node32</title>
<path fill="none" stroke="#191970" d="M184.7584,-321.0915C177.764,-295.3982 165.5,-244.0019 165.5,-199.5 165.5,-199.5 165.5,-199.5 165.5,-130.5 165.5,-96.1359 170.7138,-85.7744 189.5,-57 197.0518,-45.433 208.1972,-34.9423 218.2347,-26.8651"/>
<polygon fill="#191970" stroke="#191970" points="220.4976,-29.5404 226.3024,-20.6772 216.2374,-23.986 220.4976,-29.5404"/>
</g>
</g>
</svg>
