<?xml version="1.0" encoding="UTF-8" standalone="no"?>
<!DOCTYPE svg PUBLIC "-//W3C//DTD SVG 1.1//EN"
 "http://www.w3.org/Graphics/SVG/1.1/DTD/svg11.dtd">
<!-- Generated by graphviz version 2.40.1 (20161225.0304)
 -->
<!-- Title: RawTowerZDCCalibration::InitRun Pages: 1 -->
<svg width="738pt" height="228pt"
 viewBox="0.00 0.00 738.00 228.00" xmlns="http://www.w3.org/2000/svg" xmlns:xlink="http://www.w3.org/1999/xlink">
<g id="graph0" class="graph" transform="scale(1 1) rotate(0) translate(4 224)">
<title>RawTowerZDCCalibration::InitRun</title>
<!-- Node1 -->
<g id="node1" class="node">
<title>Node1</title>
<polygon fill="#bfbfbf" stroke="#000000" points="0,-55.5 0,-87.5 143,-87.5 143,-55.5 0,-55.5"/>
<text text-anchor="start" x="8" y="-74.5" font-family="FreeSans" font-size="10.00" fill="#000000">RawTowerZDCCalibration</text>
<text text-anchor="middle" x="71.5" y="-62.5" font-family="FreeSans" font-size="10.00" fill="#000000">::InitRun</text>
</g>
<!-- Node2 -->
<g id="node2" class="node">
<title>Node2</title>
<g id="a_node2"><a xlink:href="../../de/ddf/classRawTowerZDCCalibration.html#ac547e26629cc062c671bb9e9b1e513a0" target="_top" xlink:title="RawTowerZDCCalibration\l::CreateNodes">
<polygon fill="none" stroke="#000000" points="179,-78.5 179,-110.5 322,-110.5 322,-78.5 179,-78.5"/>
<text text-anchor="start" x="187" y="-97.5" font-family="FreeSans" font-size="10.00" fill="#000000">RawTowerZDCCalibration</text>
<text text-anchor="middle" x="250.5" y="-85.5" font-family="FreeSans" font-size="10.00" fill="#000000">::CreateNodes</text>
</a>
</g>
</g>
<!-- Node1&#45;&gt;Node2 -->
<g id="edge1" class="edge">
<title>Node1&#45;&gt;Node2</title>
<path fill="none" stroke="#191970" d="M143.0172,-80.6894C151.4862,-81.7776 160.1793,-82.8945 168.776,-83.9991"/>
<polygon fill="#191970" stroke="#191970" points="168.4397,-87.4846 178.8042,-85.2877 169.3318,-80.5417 168.4397,-87.4846"/>
</g>
<!-- Node3 -->
<g id="node3" class="node">
<title>Node3</title>
<g id="a_node3"><a xlink:href="../../d5/d07/classPHNodeIterator.html#aea98bf8619af59b1212a94fb32106baa" target="_top" xlink:title="PHNodeIterator::findFirst">
<polygon fill="none" stroke="#000000" points="371.5,-180.5 371.5,-200.5 512.5,-200.5 512.5,-180.5 371.5,-180.5"/>
<text text-anchor="middle" x="442" y="-187.5" font-family="FreeSans" font-size="10.00" fill="#000000">PHNodeIterator::findFirst</text>
</a>
</g>
</g>
<!-- Node1&#45;&gt;Node3 -->
<g id="edge12" class="edge">
<title>Node1&#45;&gt;Node3</title>
<path fill="none" stroke="#191970" d="M103.4294,-87.5832C124.5407,-97.8338 153.0144,-110.9373 179,-120.5 256.6318,-149.0685 277.8501,-151.034 358,-171.5 366.8302,-173.7548 376.2175,-176.0129 385.3961,-178.1451"/>
<polygon fill="#191970" stroke="#191970" points="384.7081,-181.5781 395.2376,-180.4031 386.2736,-174.7554 384.7081,-181.5781"/>
</g>
<!-- Node9 -->
<g id="node9" class="node">
<title>Node9</title>
<g id="a_node9"><a xlink:href="../../d5/dec/classFun4AllBase.html#a41f9ac377743d046f590617fd6f4f0ed" target="_top" xlink:title="Returns the name of this module.">
<polygon fill="none" stroke="#000000" points="384.5,-.5 384.5,-20.5 499.5,-20.5 499.5,-.5 384.5,-.5"/>
<text text-anchor="middle" x="442" y="-7.5" font-family="FreeSans" font-size="10.00" fill="#000000">Fun4AllBase::Name</text>
</a>
</g>
</g>
<!-- Node1&#45;&gt;Node9 -->
<g id="edge13" class="edge">
<title>Node1&#45;&gt;Node9</title>
<path fill="none" stroke="#191970" d="M143.3754,-59.6663C210.092,-48.6819 308.686,-32.4491 374.0982,-21.6795"/>
<polygon fill="#191970" stroke="#191970" points="375.0031,-25.0777 384.3016,-19.9996 373.8659,-18.1707 375.0031,-25.0777"/>
</g>
<!-- Node11 -->
<g id="node11" class="node">
<title>Node11</title>
<g id="a_node11"><a xlink:href="../../df/de8/cemc_8C.html#adf5c804dfce7a70e36dda02995fad481" target="_top" xlink:title="exit">
<polygon fill="none" stroke="#000000" points="233,-.5 233,-20.5 268,-20.5 268,-.5 233,-.5"/>
<text text-anchor="middle" x="250.5" y="-7.5" font-family="FreeSans" font-size="10.00" fill="#000000">exit</text>
</a>
</g>
</g>
<!-- Node1&#45;&gt;Node11 -->
<g id="edge11" class="edge">
<title>Node1&#45;&gt;Node11</title>
<path fill="none" stroke="#191970" d="M118.5301,-55.473C151.7796,-44.1422 195.2092,-29.3421 222.9857,-19.8764"/>
<polygon fill="#191970" stroke="#191970" points="224.4745,-23.0667 232.811,-16.5281 222.2165,-16.4409 224.4745,-23.0667"/>
</g>
<!-- Node2&#45;&gt;Node3 -->
<g id="edge2" class="edge">
<title>Node2&#45;&gt;Node3</title>
<path fill="none" stroke="#191970" d="M270.9145,-110.6216C296.6653,-130.6872 339.7797,-163.3194 358,-171.5 363.0297,-173.7583 368.3534,-175.7602 373.7818,-177.5327"/>
<polygon fill="#191970" stroke="#191970" points="373.0416,-180.9646 383.6255,-180.4815 375.0504,-174.259 373.0416,-180.9646"/>
</g>
<!-- Node6 -->
<g id="node6" class="node">
<title>Node6</title>
<g id="a_node6"><a xlink:href="../../d3/d7e/classRawTowerZDCContainer.html#a78e664b77a27dadcc4b1edf1accb32e4" target="_top" xlink:title="RawTowerZDCContainer\l::getCalorimeterID">
<polygon fill="none" stroke="#000000" points="373,-129.5 373,-161.5 511,-161.5 511,-129.5 373,-129.5"/>
<text text-anchor="start" x="381" y="-148.5" font-family="FreeSans" font-size="10.00" fill="#000000">RawTowerZDCContainer</text>
<text text-anchor="middle" x="442" y="-136.5" font-family="FreeSans" font-size="10.00" fill="#000000">::getCalorimeterID</text>
</a>
</g>
</g>
<!-- Node2&#45;&gt;Node6 -->
<g id="edge6" class="edge">
<title>Node2&#45;&gt;Node6</title>
<path fill="none" stroke="#191970" d="M310.8289,-110.5667C330.2375,-115.7356 351.9064,-121.5064 371.9522,-126.845"/>
<polygon fill="#191970" stroke="#191970" points="371.0815,-130.235 381.6454,-129.4264 372.883,-123.4708 371.0815,-130.235"/>
</g>
<!-- Node7 -->
<g id="node7" class="node">
<title>Node7</title>
<g id="a_node7"><a xlink:href="../../d2/d2b/classRawTowerZDCGeomContainer.html#a56fe18c243f88cf30854b97536c0df9a" target="_top" xlink:title="RawTowerZDCGeomContainer\l::identify">
<polygon fill="none" stroke="#000000" points="358,-78.5 358,-110.5 526,-110.5 526,-78.5 358,-78.5"/>
<text text-anchor="start" x="366" y="-97.5" font-family="FreeSans" font-size="10.00" fill="#000000">RawTowerZDCGeomContainer</text>
<text text-anchor="middle" x="442" y="-85.5" font-family="FreeSans" font-size="10.00" fill="#000000">::identify</text>
</a>
</g>
</g>
<!-- Node2&#45;&gt;Node7 -->
<g id="edge7" class="edge">
<title>Node2&#45;&gt;Node7</title>
<path fill="none" stroke="#191970" d="M322.0799,-94.5C330.4791,-94.5 339.1439,-94.5 347.7919,-94.5"/>
<polygon fill="#191970" stroke="#191970" points="347.9194,-98.0001 357.9193,-94.5 347.9193,-91.0001 347.9194,-98.0001"/>
</g>
<!-- Node2&#45;&gt;Node9 -->
<g id="edge9" class="edge">
<title>Node2&#45;&gt;Node9</title>
<path fill="none" stroke="#191970" d="M294.105,-78.4699C303.6268,-74.1924 313.4158,-69.1606 322,-63.5 340.3729,-51.3846 338.578,-39.8505 358,-29.5 363.2409,-26.707 368.8775,-24.3233 374.661,-22.2892"/>
<polygon fill="#191970" stroke="#191970" points="376.0072,-25.5345 384.4888,-19.1852 373.899,-18.8595 376.0072,-25.5345"/>
</g>
<!-- Node10 -->
<g id="node10" class="node">
<title>Node10</title>
<g id="a_node10"><a xlink:href="../../d5/dec/classFun4AllBase.html#a8a5c77a92bdac6bc043476e132379a40" target="_top" xlink:title="Gets the verbosity of this module.">
<polygon fill="none" stroke="#000000" points="376,-39.5 376,-59.5 508,-59.5 508,-39.5 376,-39.5"/>
<text text-anchor="middle" x="442" y="-46.5" font-family="FreeSans" font-size="10.00" fill="#000000">Fun4AllBase::Verbosity</text>
</a>
</g>
</g>
<!-- Node2&#45;&gt;Node10 -->
<g id="edge10" class="edge">
<title>Node2&#45;&gt;Node10</title>
<path fill="none" stroke="#191970" d="M316.1245,-78.464C329.9461,-75.1326 344.4452,-71.672 358,-68.5 367.4004,-66.3002 377.4027,-64.0013 387.1053,-61.7933"/>
<polygon fill="#191970" stroke="#191970" points="388.0919,-65.1585 397.07,-59.5332 386.5435,-58.3319 388.0919,-65.1585"/>
</g>
<!-- Node3&#45;&gt;Node3 -->
<g id="edge3" class="edge">
<title>Node3&#45;&gt;Node3</title>
<path fill="none" stroke="#191970" d="M412.2545,-200.7271C398.6864,-209.6067 408.6016,-219 442,-219 464.9614,-219 476.8233,-214.5602 477.5857,-208.8999"/>
<polygon fill="#191970" stroke="#191970" points="480.4072,-206.8283 471.7455,-200.7271 474.7119,-210.8982 480.4072,-206.8283"/>
</g>
<!-- Node4 -->
<g id="node4" class="node">
<title>Node4</title>
<g id="a_node4"><a xlink:href="../../dc/d82/classPHNode.html#aca3576f926a4401eddc3d88bf0ce0de3" target="_top" xlink:title="PHNode::getName">
<polygon fill="none" stroke="#000000" points="591.5,-199.5 591.5,-219.5 700.5,-219.5 700.5,-199.5 591.5,-199.5"/>
<text text-anchor="middle" x="646" y="-206.5" font-family="FreeSans" font-size="10.00" fill="#000000">PHNode::getName</text>
</a>
</g>
</g>
<!-- Node3&#45;&gt;Node4 -->
<g id="edge4" class="edge">
<title>Node3&#45;&gt;Node4</title>
<path fill="none" stroke="#191970" d="M512.7768,-197.092C535.03,-199.1646 559.4776,-201.4415 581.2877,-203.4729"/>
<polygon fill="#191970" stroke="#191970" points="581.1508,-206.9752 591.4323,-204.4177 581.8,-200.0053 581.1508,-206.9752"/>
</g>
<!-- Node5 -->
<g id="node5" class="node">
<title>Node5</title>
<g id="a_node5"><a xlink:href="../../dc/d82/classPHNode.html#a4ab1f90aed955a652813bfe377087bda" target="_top" xlink:title="PHNode::getType">
<polygon fill="none" stroke="#000000" points="594.5,-160.5 594.5,-180.5 697.5,-180.5 697.5,-160.5 594.5,-160.5"/>
<text text-anchor="middle" x="646" y="-167.5" font-family="FreeSans" font-size="10.00" fill="#000000">PHNode::getType</text>
</a>
</g>
</g>
<!-- Node3&#45;&gt;Node5 -->
<g id="edge5" class="edge">
<title>Node3&#45;&gt;Node5</title>
<path fill="none" stroke="#191970" d="M512.7768,-183.5611C536.0289,-181.2815 561.6767,-178.767 584.2082,-176.558"/>
<polygon fill="#191970" stroke="#191970" points="584.7106,-180.0256 594.3213,-175.5665 584.0275,-173.059 584.7106,-180.0256"/>
</g>
<!-- Node8 -->
<g id="node8" class="node">
<title>Node8</title>
<g id="a_node8"><a xlink:href="../../d2/d2b/classRawTowerZDCGeomContainer.html#aec7bb38127a411433861c1563669efc8" target="_top" xlink:title="RawTowerZDCGeomContainer\l::size">
<polygon fill="none" stroke="#000000" points="562,-78.5 562,-110.5 730,-110.5 730,-78.5 562,-78.5"/>
<text text-anchor="start" x="570" y="-97.5" font-family="FreeSans" font-size="10.00" fill="#000000">RawTowerZDCGeomContainer</text>
<text text-anchor="middle" x="646" y="-85.5" font-family="FreeSans" font-size="10.00" fill="#000000">::size</text>
</a>
</g>
</g>
<!-- Node7&#45;&gt;Node8 -->
<g id="edge8" class="edge">
<title>Node7&#45;&gt;Node8</title>
<path fill="none" stroke="#191970" d="M526.1524,-94.5C534.5014,-94.5 543.0151,-94.5 551.4602,-94.5"/>
<polygon fill="#191970" stroke="#191970" points="551.7118,-98.0001 561.7117,-94.5 551.7117,-91.0001 551.7118,-98.0001"/>
</g>
</g>
</svg>
