<?xml version="1.0" encoding="UTF-8" standalone="no"?>
<!DOCTYPE svg PUBLIC "-//W3C//DTD SVG 1.1//EN"
 "http://www.w3.org/Graphics/SVG/1.1/DTD/svg11.dtd">
<!-- Generated by graphviz version 2.40.1 (20161225.0304)
 -->
<!-- Title: fun4all_acts/blob/master/Tests/IntegrationTests/PropagationTestHelper.hpp Pages: 1 -->
<svg width="2727pt" height="800pt"
 viewBox="0.00 0.00 2726.90 800.00" xmlns="http://www.w3.org/2000/svg" xmlns:xlink="http://www.w3.org/1999/xlink">
<g id="graph0" class="graph" transform="scale(1 1) rotate(0) translate(4 796)">
<title>fun4all_acts/blob/master/Tests/IntegrationTests/PropagationTestHelper.hpp</title>
<!-- Node1 -->
<g id="node1" class="node">
<title>Node1</title>
<polygon fill="#bfbfbf" stroke="#000000" points="2137.4041,-747.5 2137.4041,-791.5 2293.4041,-791.5 2293.4041,-747.5 2137.4041,-747.5"/>
<text text-anchor="start" x="2145.4041" y="-778.5" font-family="FreeSans" font-size="10.00" fill="#000000">fun4all_acts/blob/master</text>
<text text-anchor="start" x="2145.4041" y="-766.5" font-family="FreeSans" font-size="10.00" fill="#000000">/Tests/IntegrationTests</text>
<text text-anchor="middle" x="2215.4041" y="-754.5" font-family="FreeSans" font-size="10.00" fill="#000000">/PropagationTestHelper.hpp</text>
</g>
<!-- Node2 -->
<g id="node2" class="node">
<title>Node2</title>
<polygon fill="none" stroke="#bfbfbf" points="2119.4041,-201.5 2119.4041,-221.5 2163.4041,-221.5 2163.4041,-201.5 2119.4041,-201.5"/>
<text text-anchor="middle" x="2141.4041" y="-208.5" font-family="FreeSans" font-size="10.00" fill="#000000">limits</text>
</g>
<!-- Node1&#45;&gt;Node2 -->
<g id="edge1" class="edge">
<title>Node1&#45;&gt;Node2</title>
<path fill="none" stroke="#191970" d="M2239.2658,-747.4153C2268.2438,-717.8308 2311.9219,-662.8025 2300.4041,-609 2268.588,-460.3804 2208.247,-441.2605 2160.4041,-297 2153.1794,-275.2154 2147.8691,-249.397 2144.7273,-231.8744"/>
<polygon fill="#191970" stroke="#191970" points="2148.1193,-230.9468 2142.9774,-221.6833 2141.2202,-232.1314 2148.1193,-230.9468"/>
</g>
<!-- Node3 -->
<g id="node3" class="node">
<title>Node3</title>
<g id="a_node3"><a xlink:href="../../d3/df6/NeutralParameters_8hpp.html" target="_top" xlink:title="Acts/EventData/NeutralParameters.hpp">
<polygon fill="none" stroke="#000000" points="891.4041,-684.5 891.4041,-704.5 1107.4041,-704.5 1107.4041,-684.5 891.4041,-684.5"/>
<text text-anchor="middle" x="999.4041" y="-691.5" font-family="FreeSans" font-size="10.00" fill="#000000">Acts/EventData/NeutralParameters.hpp</text>
</a>
</g>
</g>
<!-- Node1&#45;&gt;Node3 -->
<g id="edge2" class="edge">
<title>Node1&#45;&gt;Node3</title>
<path fill="none" stroke="#191970" d="M2137.0225,-764.6656C1929.5402,-751.8686 1365.0357,-717.0513 1117.9234,-701.81"/>
<polygon fill="#191970" stroke="#191970" points="1118.0287,-698.3099 1107.8322,-701.1876 1117.5977,-705.2967 1118.0287,-698.3099"/>
</g>
<!-- Node17 -->
<g id="node17" class="node">
<title>Node17</title>
<g id="a_node17"><a xlink:href="../../d1/db8/GeometryContext_8hpp.html" target="_top" xlink:title="Acts/Geometry/GeometryContext.hpp">
<polygon fill="none" stroke="#000000" points="1355.4041,-270.5 1355.4041,-290.5 1563.4041,-290.5 1563.4041,-270.5 1355.4041,-270.5"/>
<text text-anchor="middle" x="1459.4041" y="-277.5" font-family="FreeSans" font-size="10.00" fill="#000000">Acts/Geometry/GeometryContext.hpp</text>
</a>
</g>
</g>
<!-- Node1&#45;&gt;Node17 -->
<g id="edge109" class="edge">
<title>Node1&#45;&gt;Node17</title>
<path fill="none" stroke="#191970" d="M2196.2148,-747.2113C2176.4501,-722.9886 2146.3505,-682.3251 2130.4041,-642 2090.6376,-541.4393 2142.4988,-496.7627 2090.4041,-402 2068.2669,-361.7315 2055.5005,-351.4253 2013.4041,-333 1937.1512,-299.6248 1712.5544,-287.3935 1573.8605,-282.9632"/>
<polygon fill="#191970" stroke="#191970" points="1573.717,-279.4572 1563.6131,-282.6451 1573.4997,-286.4538 1573.717,-279.4572"/>
</g>
<!-- Node25 -->
<g id="node25" class="node">
<title>Node25</title>
<g id="a_node25"><a xlink:href="../../d9/d70/Core_2include_2Acts_2Utilities_2Helpers_8hpp.html" target="_top" xlink:title="Acts/Utilities/Helpers.hpp">
<polygon fill="none" stroke="#000000" points="752.9041,-201.5 752.9041,-221.5 897.9041,-221.5 897.9041,-201.5 752.9041,-201.5"/>
<text text-anchor="middle" x="825.4041" y="-208.5" font-family="FreeSans" font-size="10.00" fill="#000000">Acts/Utilities/Helpers.hpp</text>
</a>
</g>
</g>
<!-- Node1&#45;&gt;Node25 -->
<g id="edge118" class="edge">
<title>Node1&#45;&gt;Node25</title>
<path fill="none" stroke="#191970" d="M2137.11,-768.1397C1763.323,-761.1422 178.4041,-725.5712 178.4041,-625.5 178.4041,-625.5 178.4041,-625.5 178.4041,-487.5 178.4041,-360.6101 604.7544,-257.8558 765.2612,-223.6682"/>
<polygon fill="#191970" stroke="#191970" points="766.3819,-227.0087 775.4417,-221.5159 764.934,-220.1601 766.3819,-227.0087"/>
</g>
<!-- Node47 -->
<g id="node47" class="node">
<title>Node47</title>
<g id="a_node47"><a xlink:href="../../d6/da8/MagneticFieldContext_8hpp.html" target="_top" xlink:title="Acts/MagneticField\l/MagneticFieldContext.hpp">
<polygon fill="none" stroke="#000000" points="2139.4041,-609.5 2139.4041,-641.5 2291.4041,-641.5 2291.4041,-609.5 2139.4041,-609.5"/>
<text text-anchor="start" x="2147.4041" y="-628.5" font-family="FreeSans" font-size="10.00" fill="#000000">Acts/MagneticField</text>
<text text-anchor="middle" x="2215.4041" y="-616.5" font-family="FreeSans" font-size="10.00" fill="#000000">/MagneticFieldContext.hpp</text>
</a>
</g>
</g>
<!-- Node1&#45;&gt;Node47 -->
<g id="edge110" class="edge">
<title>Node1&#45;&gt;Node47</title>
<path fill="none" stroke="#191970" d="M2215.4041,-747.3156C2215.4041,-721.546 2215.4041,-679.0772 2215.4041,-651.7048"/>
<polygon fill="#191970" stroke="#191970" points="2218.9042,-651.6766 2215.4041,-641.6766 2211.9042,-651.6767 2218.9042,-651.6766"/>
</g>
<!-- Node48 -->
<g id="node48" class="node">
<title>Node48</title>
<g id="a_node48"><a xlink:href="../../db/da3/DebugOutputActor_8hpp.html" target="_top" xlink:title="Acts/Propagator/DebugOutput\lActor.hpp">
<polygon fill="none" stroke="#000000" points="2347.4041,-678.5 2347.4041,-710.5 2517.4041,-710.5 2517.4041,-678.5 2347.4041,-678.5"/>
<text text-anchor="start" x="2355.4041" y="-697.5" font-family="FreeSans" font-size="10.00" fill="#000000">Acts/Propagator/DebugOutput</text>
<text text-anchor="middle" x="2432.4041" y="-685.5" font-family="FreeSans" font-size="10.00" fill="#000000">Actor.hpp</text>
</a>
</g>
</g>
<!-- Node1&#45;&gt;Node48 -->
<g id="edge112" class="edge">
<title>Node1&#45;&gt;Node48</title>
<path fill="none" stroke="#191970" d="M2279.3375,-747.4032C2310.0013,-736.8051 2346.4132,-724.2203 2376.0289,-713.9845"/>
<polygon fill="#191970" stroke="#191970" points="2377.4857,-717.1842 2385.7938,-710.6095 2375.1991,-710.5682 2377.4857,-717.1842"/>
</g>
<!-- Node49 -->
<g id="node49" class="node">
<title>Node49</title>
<g id="a_node49"><a xlink:href="../../d4/d47/FloatComparisons_8hpp.html" target="_top" xlink:title="Acts/Tests/CommonHelpers\l/FloatComparisons.hpp">
<polygon fill="none" stroke="#000000" points="2505.9041,-264.5 2505.9041,-296.5 2660.9041,-296.5 2660.9041,-264.5 2505.9041,-264.5"/>
<text text-anchor="start" x="2513.9041" y="-283.5" font-family="FreeSans" font-size="10.00" fill="#000000">Acts/Tests/CommonHelpers</text>
<text text-anchor="middle" x="2583.4041" y="-271.5" font-family="FreeSans" font-size="10.00" fill="#000000">/FloatComparisons.hpp</text>
</a>
</g>
</g>
<!-- Node1&#45;&gt;Node49 -->
<g id="edge113" class="edge">
<title>Node1&#45;&gt;Node49</title>
<path fill="none" stroke="#191970" d="M2293.4479,-762.176C2372.933,-753.441 2489.5766,-736.709 2526.4041,-711 2562.6849,-685.6726 2577.4041,-669.7468 2577.4041,-625.5 2577.4041,-625.5 2577.4041,-625.5 2577.4041,-418.5 2577.4041,-379.5459 2579.8198,-334.465 2581.5855,-306.7161"/>
<polygon fill="#191970" stroke="#191970" points="2585.0845,-306.8445 2582.2472,-296.6367 2578.0996,-306.386 2585.0845,-306.8445"/>
</g>
<!-- Node4 -->
<g id="node4" class="node">
<title>Node4</title>
<g id="a_node4"><a xlink:href="../../d2/dc3/ChargePolicy_8hpp.html" target="_top" xlink:title="Acts/EventData/ChargePolicy.hpp">
<polygon fill="none" stroke="#000000" points="205.9041,-477.5 205.9041,-497.5 390.9041,-497.5 390.9041,-477.5 205.9041,-477.5"/>
<text text-anchor="middle" x="298.4041" y="-484.5" font-family="FreeSans" font-size="10.00" fill="#000000">Acts/EventData/ChargePolicy.hpp</text>
</a>
</g>
</g>
<!-- Node3&#45;&gt;Node4 -->
<g id="edge3" class="edge">
<title>Node3&#45;&gt;Node4</title>
<path fill="none" stroke="#191970" d="M932.9808,-684.4787C876.9198,-675.3885 794.7787,-660.5814 724.4041,-642 632.2699,-617.6733 611.0197,-605.3964 521.4041,-573 454.3381,-548.7554 376.7313,-518.4954 333.0192,-501.2463"/>
<polygon fill="#191970" stroke="#191970" points="334.2886,-497.9846 323.7021,-497.5641 331.7158,-504.4947 334.2886,-497.9846"/>
</g>
<!-- Node5 -->
<g id="node5" class="node">
<title>Node5</title>
<g id="a_node5"><a xlink:href="../../dd/d8e/SingleBoundTrackParameters_8hpp.html" target="_top" xlink:title="Acts/EventData/SingleBound\lTrackParameters.hpp">
<polygon fill="none" stroke="#000000" points="822.4041,-609.5 822.4041,-641.5 984.4041,-641.5 984.4041,-609.5 822.4041,-609.5"/>
<text text-anchor="start" x="830.4041" y="-628.5" font-family="FreeSans" font-size="10.00" fill="#000000">Acts/EventData/SingleBound</text>
<text text-anchor="middle" x="903.4041" y="-616.5" font-family="FreeSans" font-size="10.00" fill="#000000">TrackParameters.hpp</text>
</a>
</g>
</g>
<!-- Node3&#45;&gt;Node5 -->
<g id="edge4" class="edge">
<title>Node3&#45;&gt;Node5</title>
<path fill="none" stroke="#191970" d="M985.2389,-684.3188C971.9146,-674.742 951.5131,-660.0784 934.4141,-647.7885"/>
<polygon fill="#191970" stroke="#191970" points="935.9914,-644.6119 925.8285,-641.6175 931.9059,-650.296 935.9914,-644.6119"/>
</g>
<!-- Node6 -->
<g id="node6" class="node">
<title>Node6</title>
<g id="a_node6"><a xlink:href="../../d9/d77/SingleTrackParameters_8hpp.html" target="_top" xlink:title="Acts/EventData/SingleTrack\lParameters.hpp">
<polygon fill="none" stroke="#000000" points="530.9041,-540.5 530.9041,-572.5 687.9041,-572.5 687.9041,-540.5 530.9041,-540.5"/>
<text text-anchor="start" x="538.9041" y="-559.5" font-family="FreeSans" font-size="10.00" fill="#000000">Acts/EventData/SingleTrack</text>
<text text-anchor="middle" x="609.4041" y="-547.5" font-family="FreeSans" font-size="10.00" fill="#000000">Parameters.hpp</text>
</a>
</g>
</g>
<!-- Node3&#45;&gt;Node6 -->
<g id="edge108" class="edge">
<title>Node3&#45;&gt;Node6</title>
<path fill="none" stroke="#191970" d="M958.3212,-684.4396C920.3329,-674.7763 862.5037,-659.1471 813.4041,-642 757.2347,-622.3839 694.334,-595.1952 653.4227,-576.7846"/>
<polygon fill="#191970" stroke="#191970" points="654.8302,-573.5798 644.2763,-572.6498 651.9467,-579.9584 654.8302,-573.5798"/>
</g>
<!-- Node40 -->
<g id="node40" class="node">
<title>Node40</title>
<g id="a_node40"><a xlink:href="../../d6/dee/SingleCurvilinearTrackParameters_8hpp.html" target="_top" xlink:title="Acts/EventData/SingleCurvilinear\lTrackParameters.hpp">
<polygon fill="none" stroke="#000000" points="1002.9041,-609.5 1002.9041,-641.5 1187.9041,-641.5 1187.9041,-609.5 1002.9041,-609.5"/>
<text text-anchor="start" x="1010.9041" y="-628.5" font-family="FreeSans" font-size="10.00" fill="#000000">Acts/EventData/SingleCurvilinear</text>
<text text-anchor="middle" x="1095.4041" y="-616.5" font-family="FreeSans" font-size="10.00" fill="#000000">TrackParameters.hpp</text>
</a>
</g>
</g>
<!-- Node3&#45;&gt;Node40 -->
<g id="edge82" class="edge">
<title>Node3&#45;&gt;Node40</title>
<path fill="none" stroke="#191970" d="M1013.5692,-684.3188C1026.8935,-674.742 1047.295,-660.0784 1064.394,-647.7885"/>
<polygon fill="#191970" stroke="#191970" points="1066.9022,-650.296 1072.9796,-641.6175 1062.8167,-644.6119 1066.9022,-650.296"/>
</g>
<!-- Node46 -->
<g id="node46" class="node">
<title>Node46</title>
<g id="a_node46"><a xlink:href="../../df/d16/SingleFreeParameters_8hpp.html" target="_top" xlink:title="Acts/EventData/SingleFree\lParameters.hpp">
<polygon fill="none" stroke="#000000" points="1522.9041,-540.5 1522.9041,-572.5 1673.9041,-572.5 1673.9041,-540.5 1522.9041,-540.5"/>
<text text-anchor="start" x="1530.9041" y="-559.5" font-family="FreeSans" font-size="10.00" fill="#000000">Acts/EventData/SingleFree</text>
<text text-anchor="middle" x="1598.4041" y="-547.5" font-family="FreeSans" font-size="10.00" fill="#000000">Parameters.hpp</text>
</a>
</g>
</g>
<!-- Node3&#45;&gt;Node46 -->
<g id="edge103" class="edge">
<title>Node3&#45;&gt;Node46</title>
<path fill="none" stroke="#191970" d="M1042.9652,-684.4642C1143.0645,-661.4029 1390.6983,-604.3521 1518.7993,-574.8397"/>
<polygon fill="#191970" stroke="#191970" points="1519.6041,-578.246 1528.5631,-572.5902 1518.0325,-571.4247 1519.6041,-578.246"/>
</g>
<!-- Node5&#45;&gt;Node6 -->
<g id="edge5" class="edge">
<title>Node5&#45;&gt;Node6</title>
<path fill="none" stroke="#191970" d="M835.2156,-609.4966C791.124,-599.1486 733.6021,-585.6485 687.6499,-574.8638"/>
<polygon fill="#191970" stroke="#191970" points="688.2666,-571.4135 677.7314,-572.536 686.6671,-578.2283 688.2666,-571.4135"/>
</g>
<!-- Node5&#45;&gt;Node17 -->
<g id="edge80" class="edge">
<title>Node5&#45;&gt;Node17</title>
<path fill="none" stroke="#191970" d="M977.7395,-609.4507C1120.3588,-578.1472 1418.4041,-510.0336 1418.4041,-487.5 1418.4041,-487.5 1418.4041,-487.5 1418.4041,-418.5 1418.4041,-374.5917 1437.7125,-325.9581 1449.8286,-299.7627"/>
<polygon fill="#191970" stroke="#191970" points="1453.0623,-301.1129 1454.2114,-290.5806 1446.7451,-298.0975 1453.0623,-301.1129"/>
</g>
<!-- Node19 -->
<g id="node19" class="node">
<title>Node19</title>
<g id="a_node19"><a xlink:href="../../d8/ddd/Surface_8hpp.html" target="_top" xlink:title="Acts/Surfaces/Surface.hpp">
<polygon fill="none" stroke="#000000" points="828.4041,-408.5 828.4041,-428.5 978.4041,-428.5 978.4041,-408.5 828.4041,-408.5"/>
<text text-anchor="middle" x="903.4041" y="-415.5" font-family="FreeSans" font-size="10.00" fill="#000000">Acts/Surfaces/Surface.hpp</text>
</a>
</g>
</g>
<!-- Node5&#45;&gt;Node19 -->
<g id="edge81" class="edge">
<title>Node5&#45;&gt;Node19</title>
<path fill="none" stroke="#191970" d="M903.4041,-609.2571C903.4041,-571.9703 903.4041,-480.2921 903.4041,-439.1131"/>
<polygon fill="#191970" stroke="#191970" points="906.9042,-438.9248 903.4041,-428.9248 899.9042,-438.9248 906.9042,-438.9248"/>
</g>
<!-- Node6&#45;&gt;Node4 -->
<g id="edge7" class="edge">
<title>Node6&#45;&gt;Node4</title>
<path fill="none" stroke="#191970" d="M537.2727,-540.4966C481.2542,-528.068 404.7417,-511.0926 353.554,-499.7358"/>
<polygon fill="#191970" stroke="#191970" points="354.1884,-496.2916 343.6677,-497.5424 352.6722,-503.1254 354.1884,-496.2916"/>
</g>
<!-- Node7 -->
<g id="node7" class="node">
<title>Node7</title>
<polygon fill="none" stroke="#bfbfbf" points="24.4041,-63.5 24.4041,-83.5 94.4041,-83.5 94.4041,-63.5 24.4041,-63.5"/>
<text text-anchor="middle" x="59.4041" y="-70.5" font-family="FreeSans" font-size="10.00" fill="#000000">type_traits</text>
</g>
<!-- Node6&#45;&gt;Node7 -->
<g id="edge6" class="edge">
<title>Node6&#45;&gt;Node7</title>
<path fill="none" stroke="#191970" d="M530.5992,-542.012C498.6355,-533.9269 462.2883,-521.7866 432.4041,-504 414.5804,-493.3916 415.6733,-483.866 399.4041,-471 283.889,-379.6481 222.8374,-399.8237 117.4041,-297 64.982,-245.8755 48.269,-229.1885 27.4041,-159 23.2248,-144.9414 23.4398,-140.1207 27.4041,-126 30.8586,-113.695 38.0818,-101.4157 44.7927,-91.83"/>
<polygon fill="#191970" stroke="#191970" points="47.786,-93.6694 50.9302,-83.5518 42.1628,-89.5004 47.786,-93.6694"/>
</g>
<!-- Node8 -->
<g id="node8" class="node">
<title>Node8</title>
<g id="a_node8"><a xlink:href="../../de/d01/ParameterSet_8hpp.html" target="_top" xlink:title="Acts/EventData/Parameter\lSet.hpp">
<polygon fill="none" stroke="#ff0000" points="211.9041,-195.5 211.9041,-227.5 362.9041,-227.5 362.9041,-195.5 211.9041,-195.5"/>
<text text-anchor="start" x="219.9041" y="-214.5" font-family="FreeSans" font-size="10.00" fill="#000000">Acts/EventData/Parameter</text>
<text text-anchor="middle" x="287.4041" y="-202.5" font-family="FreeSans" font-size="10.00" fill="#000000">Set.hpp</text>
</a>
</g>
</g>
<!-- Node6&#45;&gt;Node8 -->
<g id="edge8" class="edge">
<title>Node6&#45;&gt;Node8</title>
<path fill="none" stroke="#191970" d="M563.2859,-540.438C515.2253,-521.6792 440.3657,-486.5053 392.4041,-435 337.3627,-375.8919 306.4675,-282.7379 293.9885,-237.6604"/>
<polygon fill="#191970" stroke="#191970" points="297.3116,-236.5394 291.3394,-227.7883 290.5508,-238.3537 297.3116,-236.5394"/>
</g>
<!-- Node10 -->
<g id="node10" class="node">
<title>Node10</title>
<g id="a_node10"><a xlink:href="../../d6/d1d/Definitions_8hpp.html" target="_top" xlink:title="Acts/Utilities/Definitions.hpp">
<polygon fill="none" stroke="#000000" points="1558.4041,-63.5 1558.4041,-83.5 1718.4041,-83.5 1718.4041,-63.5 1558.4041,-63.5"/>
<text text-anchor="middle" x="1638.4041" y="-70.5" font-family="FreeSans" font-size="10.00" fill="#000000">Acts/Utilities/Definitions.hpp</text>
</a>
</g>
</g>
<!-- Node6&#45;&gt;Node10 -->
<g id="edge79" class="edge">
<title>Node6&#45;&gt;Node10</title>
<path fill="none" stroke="#191970" d="M688.0289,-545.7677C740.9521,-537.3429 811.8598,-523.7095 872.4041,-504 1011.5753,-458.6944 1041.5878,-433.5942 1171.4041,-366 1251.2531,-324.4233 1266.5816,-305.6277 1346.4041,-264 1411.1118,-230.2548 1428.5621,-224.2913 1495.4041,-195 1533.7317,-178.2042 1550.1739,-185.6895 1582.4041,-159 1604.299,-140.8689 1620.7215,-111.9461 1629.9461,-92.8395"/>
<polygon fill="#191970" stroke="#191970" points="1633.1941,-94.1544 1634.2122,-83.6085 1626.8399,-91.2177 1633.1941,-94.1544"/>
</g>
<!-- Node16 -->
<g id="node16" class="node">
<title>Node16</title>
<g id="a_node16"><a xlink:href="../../dc/d3e/coordinate__transformations_8hpp.html" target="_top" xlink:title="Acts/EventData/detail\l/coordinate_transformations.hpp">
<polygon fill="none" stroke="#000000" points="679.9041,-471.5 679.9041,-503.5 862.9041,-503.5 862.9041,-471.5 679.9041,-471.5"/>
<text text-anchor="start" x="687.9041" y="-490.5" font-family="FreeSans" font-size="10.00" fill="#000000">Acts/EventData/detail</text>
<text text-anchor="middle" x="771.4041" y="-478.5" font-family="FreeSans" font-size="10.00" fill="#000000">/coordinate_transformations.hpp</text>
</a>
</g>
</g>
<!-- Node6&#45;&gt;Node16 -->
<g id="edge20" class="edge">
<title>Node6&#45;&gt;Node16</title>
<path fill="none" stroke="#191970" d="M646.9773,-540.4966C669.9993,-530.6909 699.6663,-518.055 724.2572,-507.5811"/>
<polygon fill="#191970" stroke="#191970" points="725.9256,-510.6748 733.7543,-503.536 723.1825,-504.2346 725.9256,-510.6748"/>
</g>
<!-- Node6&#45;&gt;Node17 -->
<g id="edge78" class="edge">
<title>Node6&#45;&gt;Node17</title>
<path fill="none" stroke="#191970" d="M688.1785,-553.1097C846.7546,-545.83 1193.5685,-527.4449 1242.4041,-504 1336.7816,-458.6914 1330.5167,-407.1664 1404.4041,-333 1416.2826,-321.0766 1429.9718,-308.0074 1440.7216,-297.8913"/>
<polygon fill="#191970" stroke="#191970" points="1443.3865,-300.1906 1448.2904,-290.7989 1438.6001,-295.0827 1443.3865,-300.1906"/>
</g>
<!-- Node8&#45;&gt;Node7 -->
<g id="edge10" class="edge">
<title>Node8&#45;&gt;Node7</title>
<path fill="none" stroke="#191970" d="M223.358,-195.4906C196.7083,-187.0939 166.2572,-175.1321 141.4041,-159 126.4128,-149.2692 93.983,-113.3441 74.7018,-91.2758"/>
<polygon fill="#191970" stroke="#191970" points="77.2188,-88.8362 68.0197,-83.58 71.9331,-93.4256 77.2188,-88.8362"/>
</g>
<!-- Node9 -->
<g id="node9" class="node">
<title>Node9</title>
<polygon fill="none" stroke="#bfbfbf" points="36.4041,-132.5 36.4041,-152.5 94.4041,-152.5 94.4041,-132.5 36.4041,-132.5"/>
<text text-anchor="middle" x="65.4041" y="-139.5" font-family="FreeSans" font-size="10.00" fill="#000000">memory</text>
</g>
<!-- Node8&#45;&gt;Node9 -->
<g id="edge9" class="edge">
<title>Node8&#45;&gt;Node9</title>
<path fill="none" stroke="#191970" d="M228.1751,-195.4315C193.1257,-185.5997 147.983,-172.3733 108.4041,-159 105.7054,-158.0881 102.9251,-157.1105 100.1381,-156.1032"/>
<polygon fill="#191970" stroke="#191970" points="101.339,-152.8156 90.746,-152.6156 98.9022,-159.3778 101.339,-152.8156"/>
</g>
<!-- Node8&#45;&gt;Node10 -->
<g id="edge11" class="edge">
<title>Node8&#45;&gt;Node10</title>
<path fill="none" stroke="#191970" d="M362.9176,-200.499C427.1643,-190.3463 513.885,-174.5345 545.4041,-159 565.4679,-149.1113 562.6513,-134.3469 583.4041,-126 627.7961,-108.1452 1301.1707,-84.5041 1548.3236,-76.3825"/>
<polygon fill="#191970" stroke="#191970" points="1548.4728,-79.8796 1558.3527,-76.0537 1548.2434,-72.8833 1548.4728,-79.8796"/>
</g>
<!-- Node12 -->
<g id="node12" class="node">
<title>Node12</title>
<g id="a_node12"><a xlink:href="../../d8/dfd/ParameterDefinitions_8hpp.html" target="_top" xlink:title="Acts/Utilities/Parameter\lDefinitions.hpp">
<polygon fill="none" stroke="#000000" points="150.4041,-126.5 150.4041,-158.5 286.4041,-158.5 286.4041,-126.5 150.4041,-126.5"/>
<text text-anchor="start" x="158.4041" y="-145.5" font-family="FreeSans" font-size="10.00" fill="#000000">Acts/Utilities/Parameter</text>
<text text-anchor="middle" x="218.4041" y="-133.5" font-family="FreeSans" font-size="10.00" fill="#000000">Definitions.hpp</text>
</a>
</g>
</g>
<!-- Node8&#45;&gt;Node12 -->
<g id="edge13" class="edge">
<title>Node8&#45;&gt;Node12</title>
<path fill="none" stroke="#191970" d="M271.4006,-195.4966C262.6447,-186.7406 251.632,-175.7279 241.917,-166.013"/>
<polygon fill="#191970" stroke="#191970" points="244.3458,-163.492 234.7998,-158.8958 239.396,-168.4418 244.3458,-163.492"/>
</g>
<!-- Node11 -->
<g id="node11" class="node">
<title>Node11</title>
<polygon fill="none" stroke="#bfbfbf" points="1598.4041,-.5 1598.4041,-20.5 1678.4041,-20.5 1678.4041,-.5 1598.4041,-.5"/>
<text text-anchor="middle" x="1638.4041" y="-7.5" font-family="FreeSans" font-size="10.00" fill="#000000">Eigen/Dense</text>
</g>
<!-- Node10&#45;&gt;Node11 -->
<g id="edge12" class="edge">
<title>Node10&#45;&gt;Node11</title>
<path fill="none" stroke="#191970" d="M1638.4041,-63.378C1638.4041,-54.7041 1638.4041,-41.9355 1638.4041,-31.1186"/>
<polygon fill="#191970" stroke="#191970" points="1641.9042,-30.8062 1638.4041,-20.8062 1634.9042,-30.8062 1641.9042,-30.8062"/>
</g>
<!-- Node12&#45;&gt;Node7 -->
<g id="edge15" class="edge">
<title>Node12&#45;&gt;Node7</title>
<path fill="none" stroke="#191970" d="M181.5266,-126.4966C154.5196,-114.7766 118.1955,-99.0133 92.1972,-87.731"/>
<polygon fill="#191970" stroke="#191970" points="93.3464,-84.4144 82.7796,-83.6441 90.5597,-90.8358 93.3464,-84.4144"/>
</g>
<!-- Node12&#45;&gt;Node10 -->
<g id="edge16" class="edge">
<title>Node12&#45;&gt;Node10</title>
<path fill="none" stroke="#191970" d="M286.4825,-134.1845C312.9567,-131.2063 343.5626,-128.0758 371.4041,-126 600.5337,-108.9165 1298.3308,-84.7889 1548.2043,-76.4614"/>
<polygon fill="#191970" stroke="#191970" points="1548.4564,-79.955 1558.3344,-76.1242 1548.2235,-72.9589 1548.4564,-79.955"/>
</g>
<!-- Node13 -->
<g id="node13" class="node">
<title>Node13</title>
<polygon fill="none" stroke="#bfbfbf" points="194.4041,-.5 194.4041,-20.5 242.4041,-20.5 242.4041,-.5 194.4041,-.5"/>
<text text-anchor="middle" x="218.4041" y="-7.5" font-family="FreeSans" font-size="10.00" fill="#000000">cmath</text>
</g>
<!-- Node12&#45;&gt;Node13 -->
<g id="edge14" class="edge">
<title>Node12&#45;&gt;Node13</title>
<path fill="none" stroke="#191970" d="M180.3558,-126.3333C165.3865,-117.8573 149.7958,-105.8783 141.4041,-90 134.5509,-77.0329 134.1961,-69.7733 141.4041,-57 150.7709,-40.401 168.7076,-29.0602 184.9139,-21.7366"/>
<polygon fill="#191970" stroke="#191970" points="186.2916,-24.9544 194.1781,-17.8795 183.601,-18.4921 186.2916,-24.9544"/>
</g>
<!-- Node14 -->
<g id="node14" class="node">
<title>Node14</title>
<g id="a_node14"><a xlink:href="../../d7/d46/ParameterTypes_8hpp.html" target="_top" xlink:title="Acts/Utilities/Parameter\lTypes.hpp">
<polygon fill="none" stroke="#000000" points="150.4041,-57.5 150.4041,-89.5 286.4041,-89.5 286.4041,-57.5 150.4041,-57.5"/>
<text text-anchor="start" x="158.4041" y="-76.5" font-family="FreeSans" font-size="10.00" fill="#000000">Acts/Utilities/Parameter</text>
<text text-anchor="middle" x="218.4041" y="-64.5" font-family="FreeSans" font-size="10.00" fill="#000000">Types.hpp</text>
</a>
</g>
</g>
<!-- Node12&#45;&gt;Node14 -->
<g id="edge17" class="edge">
<title>Node12&#45;&gt;Node14</title>
<path fill="none" stroke="#191970" d="M218.4041,-126.4966C218.4041,-118.599 218.4041,-108.8656 218.4041,-99.9044"/>
<polygon fill="#191970" stroke="#191970" points="221.9042,-99.8957 218.4041,-89.8958 214.9042,-99.8958 221.9042,-99.8957"/>
</g>
<!-- Node14&#45;&gt;Node13 -->
<g id="edge19" class="edge">
<title>Node14&#45;&gt;Node13</title>
<path fill="none" stroke="#191970" d="M218.4041,-57.2759C218.4041,-49.2654 218.4041,-39.5159 218.4041,-30.9952"/>
<polygon fill="#191970" stroke="#191970" points="221.9042,-30.7512 218.4041,-20.7513 214.9042,-30.7513 221.9042,-30.7512"/>
</g>
<!-- Node15 -->
<g id="node15" class="node">
<title>Node15</title>
<polygon fill="none" stroke="#bfbfbf" points="2100.9041,-.5 2100.9041,-20.5 2165.9041,-20.5 2165.9041,-.5 2100.9041,-.5"/>
<text text-anchor="middle" x="2133.4041" y="-7.5" font-family="FreeSans" font-size="10.00" fill="#000000">algorithm</text>
</g>
<!-- Node14&#45;&gt;Node15 -->
<g id="edge18" class="edge">
<title>Node14&#45;&gt;Node15</title>
<path fill="none" stroke="#191970" d="M286.607,-66.8672C324.7501,-63.3965 373.1796,-59.3844 416.4041,-57 587.9361,-47.5376 1841.9105,-17.4324 2090.6029,-11.5151"/>
<polygon fill="#191970" stroke="#191970" points="2090.7769,-15.012 2100.6908,-11.2752 2090.6104,-8.014 2090.7769,-15.012"/>
</g>
<!-- Node16&#45;&gt;Node12 -->
<g id="edge77" class="edge">
<title>Node16&#45;&gt;Node12</title>
<path fill="none" stroke="#191970" d="M679.7703,-471.5886C571.6502,-450.1524 406.4041,-407.8462 406.4041,-349.5 406.4041,-349.5 406.4041,-349.5 406.4041,-280.5 406.4041,-239.4394 401.2679,-223.1802 371.4041,-195 350.8483,-175.6031 322.8085,-163.3433 296.346,-155.6068"/>
<polygon fill="#191970" stroke="#191970" points="297.2545,-152.2268 286.6848,-152.9563 295.4025,-158.9773 297.2545,-152.2268"/>
</g>
<!-- Node16&#45;&gt;Node13 -->
<g id="edge21" class="edge">
<title>Node16&#45;&gt;Node13</title>
<path fill="none" stroke="#191970" d="M679.6004,-482.1492C615.1021,-476.0371 527.7708,-462.9598 455.4041,-435 349.8374,-394.2131 89.9086,-253.3456 27.4041,-159 2.1939,-120.9473 -13.0418,-92.6986 15.4041,-57 36.1147,-31.0089 131.7626,-18.3676 184.0421,-13.3059"/>
<polygon fill="#191970" stroke="#191970" points="184.5565,-16.7734 194.191,-12.3658 183.9108,-9.8032 184.5565,-16.7734"/>
</g>
<!-- Node16&#45;&gt;Node17 -->
<g id="edge22" class="edge">
<title>Node16&#45;&gt;Node17</title>
<path fill="none" stroke="#191970" d="M863.1825,-471.6545C966.4134,-452.4467 1138.2233,-416.2889 1280.4041,-366 1336.4957,-346.1605 1398.3992,-314.1609 1432.7262,-295.4482"/>
<polygon fill="#191970" stroke="#191970" points="1434.5715,-298.4279 1441.6491,-290.5438 1431.1997,-292.2934 1434.5715,-298.4279"/>
</g>
<!-- Node16&#45;&gt;Node19 -->
<g id="edge24" class="edge">
<title>Node16&#45;&gt;Node19</title>
<path fill="none" stroke="#191970" d="M802.0193,-471.4966C824.0451,-459.9831 853.5357,-444.5675 875.0307,-433.3315"/>
<polygon fill="#191970" stroke="#191970" points="876.7571,-436.3785 883.9979,-428.6441 873.5143,-430.1749 876.7571,-436.3785"/>
</g>
<!-- Node18 -->
<g id="node18" class="node">
<title>Node18</title>
<polygon fill="none" stroke="#bfbfbf" points="1614.9041,-201.5 1614.9041,-221.5 1649.9041,-221.5 1649.9041,-201.5 1614.9041,-201.5"/>
<text text-anchor="middle" x="1632.4041" y="-208.5" font-family="FreeSans" font-size="10.00" fill="#000000">any</text>
</g>
<!-- Node17&#45;&gt;Node18 -->
<g id="edge23" class="edge">
<title>Node17&#45;&gt;Node18</title>
<path fill="none" stroke="#191970" d="M1484.5597,-270.4668C1516.6624,-257.6629 1571.99,-235.5958 1605.0937,-222.3926"/>
<polygon fill="#191970" stroke="#191970" points="1606.6117,-225.5553 1614.6035,-218.5997 1604.0184,-219.0534 1606.6117,-225.5553"/>
</g>
<!-- Node19&#45;&gt;Node9 -->
<g id="edge75" class="edge">
<title>Node19&#45;&gt;Node9</title>
<path fill="none" stroke="#191970" d="M828.2814,-415.7102C745.7062,-411.0588 609.8366,-398.7052 497.4041,-366 358.4172,-325.5705 329.588,-297.1096 202.4041,-228 161.2373,-205.6307 115.4384,-176.0331 88.5964,-158.1758"/>
<polygon fill="#191970" stroke="#191970" points="90.5125,-155.2467 80.2543,-152.5973 86.6214,-161.0655 90.5125,-155.2467"/>
</g>
<!-- Node19&#45;&gt;Node10 -->
<g id="edge71" class="edge">
<title>Node19&#45;&gt;Node10</title>
<path fill="none" stroke="#191970" d="M978.6104,-410.5927C1033.3728,-403.2131 1108.6302,-389.67 1171.4041,-366 1255.6396,-334.2375 1263.8255,-299.8508 1346.4041,-264 1463.7493,-213.0556 1531.591,-256.5051 1614.4041,-159 1630.0157,-140.6187 1635.5095,-112.7788 1637.4215,-93.9019"/>
<polygon fill="#191970" stroke="#191970" points="1640.9276,-93.9532 1638.1952,-83.7167 1633.9477,-93.4228 1640.9276,-93.9532"/>
</g>
<!-- Node19&#45;&gt;Node17 -->
<g id="edge26" class="edge">
<title>Node19&#45;&gt;Node17</title>
<path fill="none" stroke="#191970" d="M963.1033,-408.4847C1017.6509,-398.9366 1100.3847,-383.4562 1171.4041,-366 1218.4963,-354.425 1349.1327,-314.5532 1417.0957,-293.6006"/>
<polygon fill="#191970" stroke="#191970" points="1418.5237,-296.8228 1427.047,-290.5297 1416.4596,-290.1341 1418.5237,-296.8228"/>
</g>
<!-- Node20 -->
<g id="node20" class="node">
<title>Node20</title>
<g id="a_node20"><a xlink:href="../../dc/d45/DetectorElementBase_8hpp.html" target="_top" xlink:title="Acts/Geometry/DetectorElement\lBase.hpp">
<polygon fill="none" stroke="#ff0000" points="980.4041,-333.5 980.4041,-365.5 1162.4041,-365.5 1162.4041,-333.5 980.4041,-333.5"/>
<text text-anchor="start" x="988.4041" y="-352.5" font-family="FreeSans" font-size="10.00" fill="#000000">Acts/Geometry/DetectorElement</text>
<text text-anchor="middle" x="1071.4041" y="-340.5" font-family="FreeSans" font-size="10.00" fill="#000000">Base.hpp</text>
</a>
</g>
</g>
<!-- Node19&#45;&gt;Node20 -->
<g id="edge25" class="edge">
<title>Node19&#45;&gt;Node20</title>
<path fill="none" stroke="#191970" d="M927.8327,-408.4668C952.6571,-398.2711 991.7825,-382.2017 1022.9241,-369.4114"/>
<polygon fill="#191970" stroke="#191970" points="1024.3873,-372.5942 1032.3078,-365.5574 1021.7278,-366.1191 1024.3873,-372.5942"/>
</g>
<!-- Node21 -->
<g id="node21" class="node">
<title>Node21</title>
<g id="a_node21"><a xlink:href="../../da/de0/GeometryObject_8hpp.html" target="_top" xlink:title="Acts/Geometry/GeometryObject.hpp">
<polygon fill="none" stroke="#ff0000" points="548.9041,-339.5 548.9041,-359.5 749.9041,-359.5 749.9041,-339.5 548.9041,-339.5"/>
<text text-anchor="middle" x="649.4041" y="-346.5" font-family="FreeSans" font-size="10.00" fill="#000000">Acts/Geometry/GeometryObject.hpp</text>
</a>
</g>
</g>
<!-- Node19&#45;&gt;Node21 -->
<g id="edge27" class="edge">
<title>Node19&#45;&gt;Node21</title>
<path fill="none" stroke="#191970" d="M866.4703,-408.4668C821.4175,-396.2281 745.2094,-375.5259 696.1225,-362.1912"/>
<polygon fill="#191970" stroke="#191970" points="696.9502,-358.7893 686.3824,-359.5453 695.1151,-365.5445 696.9502,-358.7893"/>
</g>
<!-- Node22 -->
<g id="node22" class="node">
<title>Node22</title>
<g id="a_node22"><a xlink:href="../../db/d40/Polyhedron_8hpp.html" target="_top" xlink:title="Acts/Geometry/Polyhedron.hpp">
<polygon fill="none" stroke="#ff0000" points="736.9041,-270.5 736.9041,-290.5 911.9041,-290.5 911.9041,-270.5 736.9041,-270.5"/>
<text text-anchor="middle" x="824.4041" y="-277.5" font-family="FreeSans" font-size="10.00" fill="#000000">Acts/Geometry/Polyhedron.hpp</text>
</a>
</g>
</g>
<!-- Node19&#45;&gt;Node22 -->
<g id="edge61" class="edge">
<title>Node19&#45;&gt;Node22</title>
<path fill="none" stroke="#191970" d="M862.7509,-408.4661C840.7832,-400.7465 815.5332,-387.6215 802.4041,-366 789.8036,-345.2491 801.217,-317.446 811.7524,-299.2608"/>
<polygon fill="#191970" stroke="#191970" points="814.7553,-301.0596 817.0499,-290.7162 808.8059,-297.3711 814.7553,-301.0596"/>
</g>
<!-- Node23 -->
<g id="node23" class="node">
<title>Node23</title>
<g id="a_node23"><a xlink:href="../../d7/d50/BoundaryCheck_8hpp.html" target="_top" xlink:title="Acts/Surfaces/BoundaryCheck.hpp">
<polygon fill="none" stroke="#ff0000" points="542.4041,-201.5 542.4041,-221.5 734.4041,-221.5 734.4041,-201.5 542.4041,-201.5"/>
<text text-anchor="middle" x="638.4041" y="-208.5" font-family="FreeSans" font-size="10.00" fill="#000000">Acts/Surfaces/BoundaryCheck.hpp</text>
</a>
</g>
</g>
<!-- Node19&#45;&gt;Node23 -->
<g id="edge62" class="edge">
<title>Node19&#45;&gt;Node23</title>
<path fill="none" stroke="#191970" d="M828.2267,-412.8651C727.1928,-404.5168 558.0317,-387.507 539.4041,-366 499.5707,-320.0092 574.273,-256.6494 614.7848,-227.4339"/>
<polygon fill="#191970" stroke="#191970" points="616.9372,-230.1988 623.0915,-221.5746 612.9024,-224.4786 616.9372,-230.1988"/>
</g>
<!-- Node31 -->
<g id="node31" class="node">
<title>Node31</title>
<g id="a_node31"><a xlink:href="../../de/d09/BinningType_8hpp.html" target="_top" xlink:title="Acts/Utilities/BinningType.hpp">
<polygon fill="none" stroke="#000000" points="592.4041,-132.5 592.4041,-152.5 760.4041,-152.5 760.4041,-132.5 592.4041,-132.5"/>
<text text-anchor="middle" x="676.4041" y="-139.5" font-family="FreeSans" font-size="10.00" fill="#000000">Acts/Utilities/BinningType.hpp</text>
</a>
</g>
</g>
<!-- Node19&#45;&gt;Node31 -->
<g id="edge70" class="edge">
<title>Node19&#45;&gt;Node31</title>
<path fill="none" stroke="#191970" d="M828.3048,-413.2501C723.6258,-405.1683 544.3619,-388.2536 524.4041,-366 473.6479,-309.4052 476.0428,-256.7353 520.4041,-195 532.164,-178.6343 578.3209,-164.3655 617.402,-154.8509"/>
<polygon fill="#191970" stroke="#191970" points="618.2381,-158.2497 627.1601,-152.536 616.6223,-151.4388 618.2381,-158.2497"/>
</g>
<!-- Node34 -->
<g id="node34" class="node">
<title>Node34</title>
<g id="a_node34"><a xlink:href="../../d5/dc6/GeometryStatics_8hpp.html" target="_top" xlink:title="Acts/Geometry/GeometryStatics.hpp">
<polygon fill="none" stroke="#000000" points="1594.9041,-339.5 1594.9041,-359.5 1797.9041,-359.5 1797.9041,-339.5 1594.9041,-339.5"/>
<text text-anchor="middle" x="1696.4041" y="-346.5" font-family="FreeSans" font-size="10.00" fill="#000000">Acts/Geometry/GeometryStatics.hpp</text>
</a>
</g>
</g>
<!-- Node19&#45;&gt;Node34 -->
<g id="edge59" class="edge">
<title>Node19&#45;&gt;Node34</title>
<path fill="none" stroke="#191970" d="M978.7225,-411.9464C1118.9306,-399.7467 1420.5834,-373.4995 1584.6299,-359.2256"/>
<polygon fill="#191970" stroke="#191970" points="1585.0913,-362.6988 1594.7503,-358.345 1584.4845,-355.7251 1585.0913,-362.6988"/>
</g>
<!-- Node35 -->
<g id="node35" class="node">
<title>Node35</title>
<g id="a_node35"><a xlink:href="../../da/ddb/SurfaceBounds_8hpp.html" target="_top" xlink:title="Acts/Surfaces/SurfaceBounds.hpp">
<polygon fill="none" stroke="#000000" points="1816.4041,-339.5 1816.4041,-359.5 2004.4041,-359.5 2004.4041,-339.5 1816.4041,-339.5"/>
<text text-anchor="middle" x="1910.4041" y="-346.5" font-family="FreeSans" font-size="10.00" fill="#000000">Acts/Surfaces/SurfaceBounds.hpp</text>
</a>
</g>
</g>
<!-- Node19&#45;&gt;Node35 -->
<g id="edge63" class="edge">
<title>Node19&#45;&gt;Node35</title>
<path fill="none" stroke="#191970" d="M978.6214,-416.6951C1133.9084,-412.4046 1501.0841,-399.3442 1807.4041,-366 1819.3596,-364.6986 1832.0432,-362.9621 1844.2728,-361.1038"/>
<polygon fill="#191970" stroke="#191970" points="1845.0724,-364.5215 1854.413,-359.5211 1843.9928,-357.6052 1845.0724,-364.5215"/>
</g>
<!-- Node37 -->
<g id="node37" class="node">
<title>Node37</title>
<g id="a_node37"><a xlink:href="../../d5/d50/BinnedArray_8hpp.html" target="_top" xlink:title="Acts/Utilities/BinnedArray.hpp">
<polygon fill="none" stroke="#ff0000" points="1405.9041,-132.5 1405.9041,-152.5 1572.9041,-152.5 1572.9041,-132.5 1405.9041,-132.5"/>
<text text-anchor="middle" x="1489.4041" y="-139.5" font-family="FreeSans" font-size="10.00" fill="#000000">Acts/Utilities/BinnedArray.hpp</text>
</a>
</g>
</g>
<!-- Node19&#45;&gt;Node37 -->
<g id="edge67" class="edge">
<title>Node19&#45;&gt;Node37</title>
<path fill="none" stroke="#191970" d="M885.4057,-408.3926C858.4224,-392.0121 813.0194,-358.8908 836.4041,-333 889.2563,-274.4836 1113.4424,-318.1507 1189.4041,-297 1258.5445,-277.7486 1271.5514,-260.7696 1335.4041,-228 1381.0177,-204.5908 1432.9371,-175.1721 1463.339,-157.6554"/>
<polygon fill="#191970" stroke="#191970" points="1465.1446,-160.6544 1472.0524,-152.6212 1461.6428,-154.5933 1465.1446,-160.6544"/>
</g>
<!-- Node38 -->
<g id="node38" class="node">
<title>Node38</title>
<g id="a_node38"><a xlink:href="../../db/d8d/Intersection_8hpp.html" target="_top" xlink:title="Acts/Utilities/Intersection.hpp">
<polygon fill="none" stroke="#000000" points="2169.4041,-270.5 2169.4041,-290.5 2335.4041,-290.5 2335.4041,-270.5 2169.4041,-270.5"/>
<text text-anchor="middle" x="2252.4041" y="-277.5" font-family="FreeSans" font-size="10.00" fill="#000000">Acts/Utilities/Intersection.hpp</text>
</a>
</g>
</g>
<!-- Node19&#45;&gt;Node38 -->
<g id="edge72" class="edge">
<title>Node19&#45;&gt;Node38</title>
<path fill="none" stroke="#191970" d="M978.715,-416.2296C1211.9462,-409.0184 1912.6864,-385.9354 2013.4041,-366 2090.9323,-350.6545 2177.1298,-314.8487 2221.8016,-294.7807"/>
<polygon fill="#191970" stroke="#191970" points="2223.2845,-297.9513 2230.9444,-290.6317 2220.3918,-291.5769 2223.2845,-297.9513"/>
</g>
<!-- Node39 -->
<g id="node39" class="node">
<title>Node39</title>
<g id="a_node39"><a xlink:href="../../dd/d76/Surface_8ipp.html" target="_top" xlink:title="Acts/Surfaces/detail\l/Surface.ipp">
<polygon fill="none" stroke="#000000" points="844.9041,-333.5 844.9041,-365.5 961.9041,-365.5 961.9041,-333.5 844.9041,-333.5"/>
<text text-anchor="start" x="852.9041" y="-352.5" font-family="FreeSans" font-size="10.00" fill="#000000">Acts/Surfaces/detail</text>
<text text-anchor="middle" x="903.4041" y="-340.5" font-family="FreeSans" font-size="10.00" fill="#000000">/Surface.ipp</text>
</a>
</g>
</g>
<!-- Node19&#45;&gt;Node39 -->
<g id="edge76" class="edge">
<title>Node19&#45;&gt;Node39</title>
<path fill="none" stroke="#191970" d="M903.4041,-408.3188C903.4041,-399.7963 903.4041,-387.2454 903.4041,-375.9239"/>
<polygon fill="#191970" stroke="#191970" points="906.9042,-375.6175 903.4041,-365.6175 899.9042,-375.6176 906.9042,-375.6175"/>
</g>
<!-- Node21&#45;&gt;Node10 -->
<g id="edge57" class="edge">
<title>Node21&#45;&gt;Node10</title>
<path fill="none" stroke="#191970" d="M710.5476,-339.4925C765.9236,-330.0045 849.5874,-314.6103 921.4041,-297 1110.5956,-250.6079 1160.334,-240.1904 1337.4041,-159 1365.0685,-146.3153 1368.9068,-136.6831 1397.4041,-126 1448.9693,-106.6691 1509.5452,-93.5112 1557.0656,-85.2027"/>
<polygon fill="#191970" stroke="#191970" points="1557.7334,-88.6393 1566.9998,-83.5028 1556.5528,-81.7396 1557.7334,-88.6393"/>
</g>
<!-- Node21&#45;&gt;Node17 -->
<g id="edge28" class="edge">
<title>Node21&#45;&gt;Node17</title>
<path fill="none" stroke="#191970" d="M750.3291,-340.5216C778.2126,-338.061 808.4791,-335.4086 836.4041,-333 1014.0812,-317.675 1220.3097,-300.3961 1345.2549,-289.9837"/>
<polygon fill="#191970" stroke="#191970" points="1345.55,-293.4714 1355.2249,-289.1531 1344.9688,-286.4955 1345.55,-293.4714"/>
</g>
<!-- Node21&#45;&gt;Node22 -->
<g id="edge29" class="edge">
<title>Node21&#45;&gt;Node22</title>
<path fill="none" stroke="#191970" d="M674.8506,-339.4668C705.0484,-327.5602 755.5623,-307.6433 789.4221,-294.2929"/>
<polygon fill="#191970" stroke="#191970" points="790.9077,-297.4694 798.9268,-290.5453 788.34,-290.9574 790.9077,-297.4694"/>
</g>
<!-- Node21&#45;&gt;Node25 -->
<g id="edge58" class="edge">
<title>Node21&#45;&gt;Node25</title>
<path fill="none" stroke="#191970" d="M657.0233,-339.2675C670.1628,-322.1202 698.5594,-287.186 728.4041,-264 748.1565,-248.6545 773.0063,-235.3003 792.6088,-225.9007"/>
<polygon fill="#191970" stroke="#191970" points="794.1933,-229.0235 801.7649,-221.6126 791.2244,-222.6842 794.1933,-229.0235"/>
</g>
<!-- Node21&#45;&gt;Node31 -->
<g id="edge56" class="edge">
<title>Node21&#45;&gt;Node31</title>
<path fill="none" stroke="#191970" d="M631.2286,-339.3743C589.735,-314.9493 494.5233,-250.6926 533.4041,-195 544.1976,-179.5393 587.3337,-165.0136 623.4335,-155.178"/>
<polygon fill="#191970" stroke="#191970" points="624.6301,-158.4816 633.3962,-152.5314 622.8328,-151.7163 624.6301,-158.4816"/>
</g>
<!-- Node22&#45;&gt;Node2 -->
<g id="edge54" class="edge">
<title>Node22&#45;&gt;Node2</title>
<path fill="none" stroke="#191970" d="M912.0918,-275.9059C1173.7512,-262.1971 1941.2178,-221.9881 2108.8279,-213.2067"/>
<polygon fill="#191970" stroke="#191970" points="2109.1857,-216.6929 2118.9889,-212.6744 2108.8194,-209.7025 2109.1857,-216.6929"/>
</g>
<!-- Node22&#45;&gt;Node10 -->
<g id="edge35" class="edge">
<title>Node22&#45;&gt;Node10</title>
<path fill="none" stroke="#191970" d="M888.2128,-270.4594C942.057,-261.3576 1020.9264,-246.5443 1088.4041,-228 1177.0498,-203.6383 1197.4783,-191.6852 1283.4041,-159 1319.7372,-145.1793 1327.1331,-137.0448 1364.4041,-126 1427.2482,-107.3769 1500.2175,-93.7723 1555.0461,-85.0845"/>
<polygon fill="#191970" stroke="#191970" points="1555.7261,-88.5208 1565.0662,-83.5194 1554.6458,-81.6047 1555.7261,-88.5208"/>
</g>
<!-- Node22&#45;&gt;Node23 -->
<g id="edge30" class="edge">
<title>Node22&#45;&gt;Node23</title>
<path fill="none" stroke="#191970" d="M797.3581,-270.4668C765.1243,-258.5091 711.1118,-238.4722 675.1225,-225.1214"/>
<polygon fill="#191970" stroke="#191970" points="676.0757,-221.7419 665.4827,-221.5453 673.641,-228.3049 676.0757,-221.7419"/>
</g>
<!-- Node24 -->
<g id="node24" class="node">
<title>Node24</title>
<polygon fill="none" stroke="#bfbfbf" points="1020.9041,-63.5 1020.9041,-83.5 1069.9041,-83.5 1069.9041,-63.5 1020.9041,-63.5"/>
<text text-anchor="middle" x="1045.4041" y="-70.5" font-family="FreeSans" font-size="10.00" fill="#000000">vector</text>
</g>
<!-- Node22&#45;&gt;Node24 -->
<g id="edge55" class="edge">
<title>Node22&#45;&gt;Node24</title>
<path fill="none" stroke="#191970" d="M912.0617,-272.1351C984.356,-260.0904 1082.6676,-230.7027 1131.4041,-159 1139.6488,-146.8701 1138.5814,-138.7905 1131.4041,-126 1120.273,-106.1636 1098.2618,-92.9335 1079.2951,-84.7163"/>
<polygon fill="#191970" stroke="#191970" points="1080.5931,-81.4659 1070.0097,-80.973 1077.9758,-87.9582 1080.5931,-81.4659"/>
</g>
<!-- Node22&#45;&gt;Node25 -->
<g id="edge36" class="edge">
<title>Node22&#45;&gt;Node25</title>
<path fill="none" stroke="#191970" d="M824.5516,-270.3188C824.6978,-260.2289 824.9259,-244.4925 825.1093,-231.8347"/>
<polygon fill="#191970" stroke="#191970" points="828.6105,-231.7727 825.2559,-221.723 821.6113,-231.6712 828.6105,-231.7727"/>
</g>
<!-- Node23&#45;&gt;Node10 -->
<g id="edge33" class="edge">
<title>Node23&#45;&gt;Node10</title>
<path fill="none" stroke="#191970" d="M675.7559,-201.4338C713.2258,-191.2106 772.5177,-174.6926 823.4041,-159 867.7245,-145.3322 876.9253,-135.0993 922.4041,-126 1039.6456,-102.5424 1383.3095,-84.7576 1548.1625,-77.3181"/>
<polygon fill="#191970" stroke="#191970" points="1548.4451,-80.809 1558.2783,-76.8644 1548.1315,-73.816 1548.4451,-80.809"/>
</g>
<!-- Node23&#45;&gt;Node12 -->
<g id="edge34" class="edge">
<title>Node23&#45;&gt;Node12</title>
<path fill="none" stroke="#191970" d="M568.0151,-201.4983C499.5387,-191.5487 392.63,-175.433 300.4041,-159 299.2961,-158.8026 298.1801,-158.602 297.0575,-158.3986"/>
<polygon fill="#191970" stroke="#191970" points="297.2876,-154.8818 286.8175,-156.5027 296.0132,-161.7648 297.2876,-154.8818"/>
</g>
<!-- Node23&#45;&gt;Node13 -->
<g id="edge31" class="edge">
<title>Node23&#45;&gt;Node13</title>
<path fill="none" stroke="#191970" d="M542.2724,-204.6218C466.7645,-197.4371 369.373,-183.6636 338.4041,-159 299.9201,-128.3515 327.593,-94.2051 295.4041,-57 283.5579,-43.3078 266.6488,-32.4803 251.6921,-24.731"/>
<polygon fill="#191970" stroke="#191970" points="253.2127,-21.5785 242.6946,-20.3057 250.1233,-27.8599 253.2127,-21.5785"/>
</g>
<!-- Node23&#45;&gt;Node24 -->
<g id="edge32" class="edge">
<title>Node23&#45;&gt;Node24</title>
<path fill="none" stroke="#191970" d="M663.5347,-201.4779C689.9188,-190.9444 732.6026,-173.8708 769.4041,-159 805.4458,-144.4362 813.5652,-138.4101 850.4041,-126 905.7607,-107.3517 971.6592,-90.7393 1010.9301,-81.4118"/>
<polygon fill="#191970" stroke="#191970" points="1011.862,-84.7882 1020.7937,-79.0895 1010.2577,-77.9745 1011.862,-84.7882"/>
</g>
<!-- Node25&#45;&gt;Node9 -->
<g id="edge42" class="edge">
<title>Node25&#45;&gt;Node9</title>
<path fill="none" stroke="#191970" d="M781.3324,-201.463C769.1062,-198.9982 755.7885,-196.6084 743.4041,-195 477.6027,-160.48 406.935,-195.5417 141.4041,-159 129.3,-157.3343 116.2569,-154.7845 104.4509,-152.1837"/>
<polygon fill="#191970" stroke="#191970" points="104.9767,-148.7139 94.4492,-149.9061 103.4224,-155.5392 104.9767,-148.7139"/>
</g>
<!-- Node25&#45;&gt;Node10 -->
<g id="edge48" class="edge">
<title>Node25&#45;&gt;Node10</title>
<path fill="none" stroke="#191970" d="M897.9066,-203.931C960.6083,-196.238 1053.2224,-182.1095 1131.4041,-159 1167.1096,-148.4459 1172.4535,-135.6866 1208.4041,-126 1323.1354,-95.0866 1460.0344,-82.3336 1548.0384,-77.0999"/>
<polygon fill="#191970" stroke="#191970" points="1548.4745,-80.5807 1558.2573,-76.5129 1548.073,-73.5922 1548.4745,-80.5807"/>
</g>
<!-- Node25&#45;&gt;Node12 -->
<g id="edge49" class="edge">
<title>Node25&#45;&gt;Node12</title>
<path fill="none" stroke="#191970" d="M780.0166,-201.4419C768.1461,-199.0659 755.3328,-196.725 743.4041,-195 564.5547,-169.1371 517.9684,-179.3138 338.4041,-159 324.8681,-157.4687 310.4991,-155.6559 296.5852,-153.8021"/>
<polygon fill="#191970" stroke="#191970" points="296.9308,-150.3171 286.5526,-152.4484 295.9948,-157.2542 296.9308,-150.3171"/>
</g>
<!-- Node25&#45;&gt;Node13 -->
<g id="edge38" class="edge">
<title>Node25&#45;&gt;Node13</title>
<path fill="none" stroke="#191970" d="M779.5778,-201.4199C767.8283,-199.0722 755.1823,-196.7503 743.4041,-195 661.2533,-182.7924 440.2293,-205.4851 371.4041,-159 329.0679,-130.4058 355.3138,-92.3221 318.4041,-57 299.8947,-39.2868 273.4142,-27.3866 252.3522,-20.062"/>
<polygon fill="#191970" stroke="#191970" points="253.3993,-16.7219 242.8063,-16.9213 251.2116,-23.3713 253.3993,-16.7219"/>
</g>
<!-- Node25&#45;&gt;Node24 -->
<g id="edge44" class="edge">
<title>Node25&#45;&gt;Node24</title>
<path fill="none" stroke="#191970" d="M834.7455,-201.3744C851.1307,-184.076 886.7134,-148.5228 922.4041,-126 950.4854,-108.279 985.5789,-93.9729 1011.0858,-84.7968"/>
<polygon fill="#191970" stroke="#191970" points="1012.4245,-88.0362 1020.6978,-81.4177 1010.1029,-81.4323 1012.4245,-88.0362"/>
</g>
<!-- Node26 -->
<g id="node26" class="node">
<title>Node26</title>
<polygon fill="none" stroke="#bfbfbf" points="930.9041,-132.5 930.9041,-152.5 975.9041,-152.5 975.9041,-132.5 930.9041,-132.5"/>
<text text-anchor="middle" x="953.4041" y="-139.5" font-family="FreeSans" font-size="10.00" fill="#000000">bitset</text>
</g>
<!-- Node25&#45;&gt;Node26 -->
<g id="edge37" class="edge">
<title>Node25&#45;&gt;Node26</title>
<path fill="none" stroke="#191970" d="M844.0164,-201.4668C865.5352,-189.8668 901.1582,-170.6638 925.8802,-157.3371"/>
<polygon fill="#191970" stroke="#191970" points="927.6276,-160.3713 934.7693,-152.5453 924.306,-154.2096 927.6276,-160.3713"/>
</g>
<!-- Node27 -->
<g id="node27" class="node">
<title>Node27</title>
<polygon fill="none" stroke="#bfbfbf" points="994.4041,-132.5 994.4041,-152.5 1044.4041,-152.5 1044.4041,-132.5 994.4041,-132.5"/>
<text text-anchor="middle" x="1019.4041" y="-139.5" font-family="FreeSans" font-size="10.00" fill="#000000">cstdlib</text>
</g>
<!-- Node25&#45;&gt;Node27 -->
<g id="edge39" class="edge">
<title>Node25&#45;&gt;Node27</title>
<path fill="none" stroke="#191970" d="M860.5349,-201.4621C893.282,-191.7568 943.2619,-176.0492 985.4041,-159 987.0349,-158.3402 988.697,-157.6377 990.3661,-156.9085"/>
<polygon fill="#191970" stroke="#191970" points="992.2087,-159.9135 999.8306,-152.5544 989.283,-153.5542 992.2087,-159.9135"/>
</g>
<!-- Node28 -->
<g id="node28" class="node">
<title>Node28</title>
<polygon fill="none" stroke="#bfbfbf" points="1216.9041,-132.5 1216.9041,-152.5 1273.9041,-152.5 1273.9041,-132.5 1216.9041,-132.5"/>
<text text-anchor="middle" x="1245.4041" y="-139.5" font-family="FreeSans" font-size="10.00" fill="#000000">iomanip</text>
</g>
<!-- Node25&#45;&gt;Node28 -->
<g id="edge40" class="edge">
<title>Node25&#45;&gt;Node28</title>
<path fill="none" stroke="#191970" d="M896.6655,-201.4645C965.3771,-191.552 1072.2208,-175.5176 1164.4041,-159 1178.2501,-156.519 1193.3675,-153.5191 1206.753,-150.7613"/>
<polygon fill="#191970" stroke="#191970" points="1207.5244,-154.1758 1216.6017,-148.7122 1206.0984,-147.3226 1207.5244,-154.1758"/>
</g>
<!-- Node29 -->
<g id="node29" class="node">
<title>Node29</title>
<polygon fill="none" stroke="#bfbfbf" points="1062.4041,-132.5 1062.4041,-152.5 1122.4041,-152.5 1122.4041,-132.5 1062.4041,-132.5"/>
<text text-anchor="middle" x="1092.4041" y="-139.5" font-family="FreeSans" font-size="10.00" fill="#000000">iostream</text>
</g>
<!-- Node25&#45;&gt;Node29 -->
<g id="edge41" class="edge">
<title>Node25&#45;&gt;Node29</title>
<path fill="none" stroke="#191970" d="M881.4254,-201.4273C928.0361,-192.3767 995.8273,-177.6518 1053.4041,-159 1055.852,-158.207 1058.3595,-157.3224 1060.8646,-156.3861"/>
<polygon fill="#191970" stroke="#191970" points="1062.3831,-159.549 1070.3833,-152.6029 1059.7977,-153.0439 1062.3831,-159.549"/>
</g>
<!-- Node30 -->
<g id="node30" class="node">
<title>Node30</title>
<polygon fill="none" stroke="#bfbfbf" points="653.9041,-63.5 653.9041,-83.5 698.9041,-83.5 698.9041,-63.5 653.9041,-63.5"/>
<text text-anchor="middle" x="676.4041" y="-70.5" font-family="FreeSans" font-size="10.00" fill="#000000">string</text>
</g>
<!-- Node25&#45;&gt;Node30 -->
<g id="edge43" class="edge">
<title>Node25&#45;&gt;Node30</title>
<path fill="none" stroke="#191970" d="M820.8045,-201.4327C812.5429,-184.2222 793.7573,-148.7981 769.4041,-126 751.5722,-109.3069 727.4642,-95.8912 708.2621,-86.8007"/>
<polygon fill="#191970" stroke="#191970" points="709.5535,-83.5427 699.0036,-82.5685 706.6434,-89.9091 709.5535,-83.5427"/>
</g>
<!-- Node25&#45;&gt;Node31 -->
<g id="edge45" class="edge">
<title>Node25&#45;&gt;Node31</title>
<path fill="none" stroke="#191970" d="M803.7382,-201.4668C778.3579,-189.7135 736.1226,-170.1549 707.3093,-156.8118"/>
<polygon fill="#191970" stroke="#191970" points="708.6411,-153.5715 698.0961,-152.5453 705.6996,-159.9235 708.6411,-153.5715"/>
</g>
<!-- Node32 -->
<g id="node32" class="node">
<title>Node32</title>
<g id="a_node32"><a xlink:href="../../d0/d81/TypeTraits_8hpp.html" target="_top" xlink:title="Acts/Utilities/TypeTraits.hpp">
<polygon fill="none" stroke="#000000" points="380.4041,-132.5 380.4041,-152.5 536.4041,-152.5 536.4041,-132.5 380.4041,-132.5"/>
<text text-anchor="middle" x="458.4041" y="-139.5" font-family="FreeSans" font-size="10.00" fill="#000000">Acts/Utilities/TypeTraits.hpp</text>
</a>
</g>
</g>
<!-- Node25&#45;&gt;Node32 -->
<g id="edge50" class="edge">
<title>Node25&#45;&gt;Node32</title>
<path fill="none" stroke="#191970" d="M775.9976,-201.4222C765.259,-199.2698 753.9558,-197.0333 743.4041,-195 668.4872,-180.5634 582.3215,-164.8083 524.5216,-154.3624"/>
<polygon fill="#191970" stroke="#191970" points="524.8886,-150.8722 514.4258,-152.5397 523.6448,-157.7608 524.8886,-150.8722"/>
</g>
<!-- Node31&#45;&gt;Node24 -->
<g id="edge47" class="edge">
<title>Node31&#45;&gt;Node24</title>
<path fill="none" stroke="#191970" d="M730.0598,-132.4668C806.9337,-118.092 946.2461,-92.0417 1010.8209,-79.9668"/>
<polygon fill="#191970" stroke="#191970" points="1011.7007,-83.363 1020.887,-78.0845 1010.414,-76.4823 1011.7007,-83.363"/>
</g>
<!-- Node31&#45;&gt;Node30 -->
<g id="edge46" class="edge">
<title>Node31&#45;&gt;Node30</title>
<path fill="none" stroke="#191970" d="M676.4041,-132.3188C676.4041,-122.2289 676.4041,-106.4925 676.4041,-93.8347"/>
<polygon fill="#191970" stroke="#191970" points="679.9042,-93.7229 676.4041,-83.723 672.9042,-93.723 679.9042,-93.7229"/>
</g>
<!-- Node32&#45;&gt;Node7 -->
<g id="edge53" class="edge">
<title>Node32&#45;&gt;Node7</title>
<path fill="none" stroke="#191970" d="M393.9346,-132.4897C329.8028,-122.3749 228.6467,-105.9969 141.4041,-90 129.3525,-87.7902 116.3375,-85.2447 104.3032,-82.8248"/>
<polygon fill="#191970" stroke="#191970" points="104.9637,-79.3876 94.4678,-80.8317 103.5735,-86.2481 104.9637,-79.3876"/>
</g>
<!-- Node32&#45;&gt;Node30 -->
<g id="edge52" class="edge">
<title>Node32&#45;&gt;Node30</title>
<path fill="none" stroke="#191970" d="M490.1031,-132.4668C531.2317,-119.4491 602.6121,-96.8562 644.056,-83.7386"/>
<polygon fill="#191970" stroke="#191970" points="645.1855,-87.0523 653.6632,-80.6978 643.0732,-80.3786 645.1855,-87.0523"/>
</g>
<!-- Node33 -->
<g id="node33" class="node">
<title>Node33</title>
<polygon fill="none" stroke="#bfbfbf" points="425.4041,-63.5 425.4041,-83.5 491.4041,-83.5 491.4041,-63.5 425.4041,-63.5"/>
<text text-anchor="middle" x="458.4041" y="-70.5" font-family="FreeSans" font-size="10.00" fill="#000000">functional</text>
</g>
<!-- Node32&#45;&gt;Node33 -->
<g id="edge51" class="edge">
<title>Node32&#45;&gt;Node33</title>
<path fill="none" stroke="#191970" d="M458.4041,-132.3188C458.4041,-122.2289 458.4041,-106.4925 458.4041,-93.8347"/>
<polygon fill="#191970" stroke="#191970" points="461.9042,-93.7229 458.4041,-83.723 454.9042,-93.723 461.9042,-93.7229"/>
</g>
<!-- Node34&#45;&gt;Node10 -->
<g id="edge60" class="edge">
<title>Node34&#45;&gt;Node10</title>
<path fill="none" stroke="#191970" d="M1694.6272,-339.201C1689.0787,-307.3515 1671.3128,-207.6792 1652.4041,-126 1649.8999,-115.183 1646.7389,-103.2146 1644.0545,-93.4402"/>
<polygon fill="#191970" stroke="#191970" points="1647.3443,-92.2073 1641.2865,-83.5152 1640.6016,-94.0878 1647.3443,-92.2073"/>
</g>
<!-- Node35&#45;&gt;Node10 -->
<g id="edge66" class="edge">
<title>Node35&#45;&gt;Node10</title>
<path fill="none" stroke="#191970" d="M1900.4008,-339.3497C1859.8326,-298.1848 1707.2819,-143.3908 1655.6269,-90.9761"/>
<polygon fill="#191970" stroke="#191970" points="1658.0104,-88.4084 1648.4982,-83.7426 1653.0246,-93.3219 1658.0104,-88.4084"/>
</g>
<!-- Node35&#45;&gt;Node23 -->
<g id="edge65" class="edge">
<title>Node35&#45;&gt;Node23</title>
<path fill="none" stroke="#191970" d="M1856.0444,-339.4843C1840.3954,-336.9567 1823.2673,-334.5291 1807.4041,-333 1688.0019,-321.4902 839.0506,-343.3323 728.4041,-297 694.9829,-283.0052 666.6429,-250.5169 651.1244,-229.8611"/>
<polygon fill="#191970" stroke="#191970" points="653.8098,-227.6025 645.1024,-221.5667 648.1453,-231.7151 653.8098,-227.6025"/>
</g>
<!-- Node36 -->
<g id="node36" class="node">
<title>Node36</title>
<polygon fill="none" stroke="#bfbfbf" points="1956.9041,-270.5 1956.9041,-290.5 2013.9041,-290.5 2013.9041,-270.5 1956.9041,-270.5"/>
<text text-anchor="middle" x="1985.4041" y="-277.5" font-family="FreeSans" font-size="10.00" fill="#000000">ostream</text>
</g>
<!-- Node35&#45;&gt;Node36 -->
<g id="edge64" class="edge">
<title>Node35&#45;&gt;Node36</title>
<path fill="none" stroke="#191970" d="M1921.4706,-339.3188C1933.3241,-328.4135 1952.3472,-310.9123 1966.566,-297.831"/>
<polygon fill="#191970" stroke="#191970" points="1969.3025,-300.0693 1974.2921,-290.723 1964.5631,-294.9178 1969.3025,-300.0693"/>
</g>
<!-- Node37&#45;&gt;Node10 -->
<g id="edge69" class="edge">
<title>Node37&#45;&gt;Node10</title>
<path fill="none" stroke="#191970" d="M1511.0699,-132.4668C1536.4502,-120.7135 1578.6855,-101.1549 1607.4988,-87.8118"/>
<polygon fill="#191970" stroke="#191970" points="1609.1086,-90.9235 1616.712,-83.5453 1606.167,-84.5715 1609.1086,-90.9235"/>
</g>
<!-- Node37&#45;&gt;Node24 -->
<g id="edge68" class="edge">
<title>Node37&#45;&gt;Node24</title>
<path fill="none" stroke="#191970" d="M1424.8426,-132.4668C1329.7087,-117.6825 1155.1036,-90.5479 1080.5981,-78.9693"/>
<polygon fill="#191970" stroke="#191970" points="1080.772,-75.4544 1070.3531,-77.3772 1079.697,-82.3714 1080.772,-75.4544"/>
</g>
<!-- Node38&#45;&gt;Node2 -->
<g id="edge73" class="edge">
<title>Node38&#45;&gt;Node2</title>
<path fill="none" stroke="#191970" d="M2236.0256,-270.3188C2217.6625,-258.9039 2187.6739,-240.2623 2166.3827,-227.0273"/>
<polygon fill="#191970" stroke="#191970" points="2168.1903,-224.0298 2157.8497,-221.723 2164.4948,-229.9749 2168.1903,-224.0298"/>
</g>
<!-- Node38&#45;&gt;Node10 -->
<g id="edge74" class="edge">
<title>Node38&#45;&gt;Node10</title>
<path fill="none" stroke="#191970" d="M2245.8728,-270.216C2233.7428,-252.0128 2205.9,-214.2305 2172.4041,-195 2031.2767,-113.9767 1840.1612,-86.9841 1728.9838,-77.9919"/>
<polygon fill="#191970" stroke="#191970" points="1729.0502,-74.4866 1718.8091,-77.2012 1728.5078,-81.4655 1729.0502,-74.4866"/>
</g>
<!-- Node40&#45;&gt;Node6 -->
<g id="edge84" class="edge">
<title>Node40&#45;&gt;Node6</title>
<path fill="none" stroke="#191970" d="M1002.861,-610.3754C999.6713,-609.9034 996.5118,-609.4434 993.4041,-609 864.3915,-590.5915 831.2728,-592.3895 702.4041,-573 700.9345,-572.7789 699.4525,-572.5528 697.9607,-572.3223"/>
<polygon fill="#191970" stroke="#191970" points="698.4265,-568.8525 688.0019,-570.7438 697.3307,-575.7662 698.4265,-568.8525"/>
</g>
<!-- Node40&#45;&gt;Node9 -->
<g id="edge83" class="edge">
<title>Node40&#45;&gt;Node9</title>
<path fill="none" stroke="#191970" d="M1028.0886,-609.4663C861.1713,-569.4433 437.4679,-466.1306 379.4041,-435 241.9208,-361.2891 119.2751,-212.478 79.1698,-160.7298"/>
<polygon fill="#191970" stroke="#191970" points="81.9158,-158.5591 73.0512,-152.7566 76.3625,-162.8207 81.9158,-158.5591"/>
</g>
<!-- Node40&#45;&gt;Node17 -->
<g id="edge85" class="edge">
<title>Node40&#45;&gt;Node17</title>
<path fill="none" stroke="#191970" d="M1188.1025,-613.562C1284.6621,-600.7498 1423.2282,-581.1431 1432.4041,-573 1461.9243,-546.8021 1456.4041,-526.9687 1456.4041,-487.5 1456.4041,-487.5 1456.4041,-487.5 1456.4041,-418.5 1456.4041,-376.563 1457.806,-327.4743 1458.6931,-300.6088"/>
<polygon fill="#191970" stroke="#191970" points="1462.1935,-300.6547 1459.0362,-290.5412 1455.1975,-300.4162 1462.1935,-300.6547"/>
</g>
<!-- Node41 -->
<g id="node41" class="node">
<title>Node41</title>
<g id="a_node41"><a xlink:href="../../d7/dec/PlaneSurface_8hpp.html" target="_top" xlink:title="Acts/Surfaces/PlaneSurface.hpp">
<polygon fill="none" stroke="#000000" points="1692.4041,-477.5 1692.4041,-497.5 1870.4041,-497.5 1870.4041,-477.5 1692.4041,-477.5"/>
<text text-anchor="middle" x="1781.4041" y="-484.5" font-family="FreeSans" font-size="10.00" fill="#000000">Acts/Surfaces/PlaneSurface.hpp</text>
</a>
</g>
</g>
<!-- Node40&#45;&gt;Node41 -->
<g id="edge86" class="edge">
<title>Node40&#45;&gt;Node41</title>
<path fill="none" stroke="#191970" d="M1187.9223,-613.1226C1296.8359,-598.4681 1463.8713,-575.6953 1470.4041,-573 1493.0009,-563.6772 1492.0724,-549.9413 1514.4041,-540 1567.1046,-516.5395 1630.2776,-503.5151 1681.9421,-496.3086"/>
<polygon fill="#191970" stroke="#191970" points="1682.6693,-499.7425 1692.115,-494.9436 1681.7383,-492.8047 1682.6693,-499.7425"/>
</g>
<!-- Node41&#45;&gt;Node2 -->
<g id="edge87" class="edge">
<title>Node41&#45;&gt;Node2</title>
<path fill="none" stroke="#191970" d="M1870.4452,-483.2627C1950.3063,-477.5782 2059.5308,-464.5204 2090.4041,-435 2146.6053,-381.2614 2109.1589,-339.5879 2127.4041,-264 2130.0092,-253.2069 2133.1784,-241.2404 2135.8421,-231.4611"/>
<polygon fill="#191970" stroke="#191970" points="2139.2967,-232.0989 2138.5778,-221.5285 2132.548,-230.24 2139.2967,-232.0989"/>
</g>
<!-- Node41&#45;&gt;Node10 -->
<g id="edge101" class="edge">
<title>Node41&#45;&gt;Node10</title>
<path fill="none" stroke="#191970" d="M1870.487,-478.0101C2050.245,-457.6534 2439.4041,-406.9488 2439.4041,-349.5 2439.4041,-349.5 2439.4041,-349.5 2439.4041,-211.5 2439.4041,-183.8807 2548.6026,-202.0044 2278.4041,-126 2177.5604,-97.6336 1879.871,-82.6222 1728.6946,-76.6448"/>
<polygon fill="#191970" stroke="#191970" points="1728.639,-73.1401 1718.51,-76.247 1728.3658,-80.1347 1728.639,-73.1401"/>
</g>
<!-- Node41&#45;&gt;Node17 -->
<g id="edge88" class="edge">
<title>Node41&#45;&gt;Node17</title>
<path fill="none" stroke="#191970" d="M1692.3707,-479.5809C1625.0612,-471.8857 1539.8747,-457.937 1513.4041,-435 1492.6868,-417.0483 1472.5224,-338.3866 1463.8469,-300.7303"/>
<polygon fill="#191970" stroke="#191970" points="1467.2386,-299.8602 1461.6241,-290.8754 1460.4101,-301.4004 1467.2386,-299.8602"/>
</g>
<!-- Node41&#45;&gt;Node19 -->
<g id="edge97" class="edge">
<title>Node41&#45;&gt;Node19</title>
<path fill="none" stroke="#191970" d="M1692.385,-480.5042C1522.7503,-467.173 1155.2731,-438.2938 988.6336,-425.198"/>
<polygon fill="#191970" stroke="#191970" points="988.678,-421.6908 978.4345,-424.3965 988.1295,-428.6693 988.678,-421.6908"/>
</g>
<!-- Node41&#45;&gt;Node22 -->
<g id="edge90" class="edge">
<title>Node41&#45;&gt;Node22</title>
<path fill="none" stroke="#191970" d="M1692.1574,-486.0158C1419.3027,-480.5074 610.389,-456.6013 539.4041,-366 530.3586,-354.4549 530.0195,-344.2712 539.4041,-333 563.1171,-304.5198 653.9206,-291.4324 726.7442,-285.4533"/>
<polygon fill="#191970" stroke="#191970" points="727.1967,-288.9286 736.8918,-284.6559 726.6483,-281.9501 727.1967,-288.9286"/>
</g>
<!-- Node41&#45;&gt;Node34 -->
<g id="edge89" class="edge">
<title>Node41&#45;&gt;Node34</title>
<path fill="none" stroke="#191970" d="M1803.2919,-477.3963C1819.3189,-468.6751 1839.8678,-454.4102 1849.4041,-435 1855.8714,-421.8362 1857.9274,-413.9358 1849.4041,-402 1837.906,-385.8985 1792.7119,-371.6166 1754.3993,-362.0294"/>
<polygon fill="#191970" stroke="#191970" points="1754.8665,-358.5408 1744.3221,-359.5737 1753.2091,-365.3418 1754.8665,-358.5408"/>
</g>
<!-- Node42 -->
<g id="node42" class="node">
<title>Node42</title>
<g id="a_node42"><a xlink:href="../../d9/d1e/InfiniteBounds_8hpp.html" target="_top" xlink:title="Acts/Surfaces/InfiniteBounds.hpp">
<polygon fill="none" stroke="#000000" points="1895.9041,-408.5 1895.9041,-428.5 2080.9041,-428.5 2080.9041,-408.5 1895.9041,-408.5"/>
<text text-anchor="middle" x="1988.4041" y="-415.5" font-family="FreeSans" font-size="10.00" fill="#000000">Acts/Surfaces/InfiniteBounds.hpp</text>
</a>
</g>
</g>
<!-- Node41&#45;&gt;Node42 -->
<g id="edge91" class="edge">
<title>Node41&#45;&gt;Node42</title>
<path fill="none" stroke="#191970" d="M1811.5036,-477.4668C1847.6833,-465.4069 1908.5167,-445.1291 1948.5625,-431.7805"/>
<polygon fill="#191970" stroke="#191970" points="1949.8881,-435.028 1958.2681,-428.5453 1947.6745,-428.3873 1949.8881,-435.028"/>
</g>
<!-- Node43 -->
<g id="node43" class="node">
<title>Node43</title>
<g id="a_node43"><a xlink:href="../../d9/dc6/PlanarBounds_8hpp.html" target="_top" xlink:title="Acts/Surfaces/PlanarBounds.hpp">
<polygon fill="none" stroke="#000000" points="1522.4041,-408.5 1522.4041,-428.5 1704.4041,-428.5 1704.4041,-408.5 1522.4041,-408.5"/>
<text text-anchor="middle" x="1613.4041" y="-415.5" font-family="FreeSans" font-size="10.00" fill="#000000">Acts/Surfaces/PlanarBounds.hpp</text>
</a>
</g>
</g>
<!-- Node41&#45;&gt;Node43 -->
<g id="edge94" class="edge">
<title>Node41&#45;&gt;Node43</title>
<path fill="none" stroke="#191970" d="M1756.9754,-477.4668C1728.1099,-465.6113 1679.9081,-445.8141 1647.4062,-432.4651"/>
<polygon fill="#191970" stroke="#191970" points="1648.4421,-429.107 1637.8622,-428.5453 1645.7826,-435.5821 1648.4421,-429.107"/>
</g>
<!-- Node44 -->
<g id="node44" class="node">
<title>Node44</title>
<g id="a_node44"><a xlink:href="../../da/d71/PlanarHelper_8hpp.html" target="_top" xlink:title="Acts/Surfaces/detail\l/PlanarHelper.hpp">
<polygon fill="none" stroke="#000000" points="2255.9041,-333.5 2255.9041,-365.5 2372.9041,-365.5 2372.9041,-333.5 2255.9041,-333.5"/>
<text text-anchor="start" x="2263.9041" y="-352.5" font-family="FreeSans" font-size="10.00" fill="#000000">Acts/Surfaces/detail</text>
<text text-anchor="middle" x="2314.4041" y="-340.5" font-family="FreeSans" font-size="10.00" fill="#000000">/PlanarHelper.hpp</text>
</a>
</g>
</g>
<!-- Node41&#45;&gt;Node44 -->
<g id="edge98" class="edge">
<title>Node41&#45;&gt;Node44</title>
<path fill="none" stroke="#191970" d="M1870.4195,-480.3358C1940.0656,-473.1744 2038.7877,-459.5751 2122.4041,-435 2177.7528,-418.7328 2237.9673,-389.9478 2275.9269,-370.311"/>
<polygon fill="#191970" stroke="#191970" points="2277.8386,-373.2612 2285.0817,-365.5289 2274.5976,-367.0567 2277.8386,-373.2612"/>
</g>
<!-- Node45 -->
<g id="node45" class="node">
<title>Node45</title>
<g id="a_node45"><a xlink:href="../../d2/d4a/PlaneSurface_8ipp.html" target="_top" xlink:title="Acts/Surfaces/detail\l/PlaneSurface.ipp">
<polygon fill="none" stroke="#000000" points="1722.9041,-402.5 1722.9041,-434.5 1839.9041,-434.5 1839.9041,-402.5 1722.9041,-402.5"/>
<text text-anchor="start" x="1730.9041" y="-421.5" font-family="FreeSans" font-size="10.00" fill="#000000">Acts/Surfaces/detail</text>
<text text-anchor="middle" x="1781.4041" y="-409.5" font-family="FreeSans" font-size="10.00" fill="#000000">/PlaneSurface.ipp</text>
</a>
</g>
</g>
<!-- Node41&#45;&gt;Node45 -->
<g id="edge102" class="edge">
<title>Node41&#45;&gt;Node45</title>
<path fill="none" stroke="#191970" d="M1781.4041,-477.3188C1781.4041,-468.7963 1781.4041,-456.2454 1781.4041,-444.9239"/>
<polygon fill="#191970" stroke="#191970" points="1784.9042,-444.6175 1781.4041,-434.6175 1777.9042,-444.6176 1784.9042,-444.6175"/>
</g>
<!-- Node42&#45;&gt;Node10 -->
<g id="edge93" class="edge">
<title>Node42&#45;&gt;Node10</title>
<path fill="none" stroke="#191970" d="M2081.2416,-411.6922C2190.691,-402.8139 2360.5692,-386.0294 2382.4041,-366 2411.09,-339.686 2401.4041,-319.427 2401.4041,-280.5 2401.4041,-280.5 2401.4041,-280.5 2401.4041,-211.5 2401.4041,-92.387 2263.8065,-151.2658 2147.4041,-126 2002.8938,-94.6332 1831.1113,-81.8608 1728.6201,-76.7633"/>
<polygon fill="#191970" stroke="#191970" points="1728.7729,-73.2667 1718.6154,-76.2792 1728.4345,-80.2585 1728.7729,-73.2667"/>
</g>
<!-- Node42&#45;&gt;Node35 -->
<g id="edge92" class="edge">
<title>Node42&#45;&gt;Node35</title>
<path fill="none" stroke="#191970" d="M1976.8949,-408.3188C1964.4519,-397.3116 1944.4128,-379.5846 1929.5824,-366.4654"/>
<polygon fill="#191970" stroke="#191970" points="1931.7695,-363.7272 1921.9604,-359.723 1927.1314,-368.9702 1931.7695,-363.7272"/>
</g>
<!-- Node43&#45;&gt;Node24 -->
<g id="edge96" class="edge">
<title>Node43&#45;&gt;Node24</title>
<path fill="none" stroke="#191970" d="M1606.9433,-408.4862C1600.6526,-398.2367 1591.3396,-381.6385 1586.4041,-366 1572.6323,-322.3633 1599.3939,-300.951 1572.4041,-264 1530.4265,-206.5298 1350.7023,-149.1493 1283.4041,-126 1213.0989,-101.8164 1127.1816,-86.0976 1080.2047,-78.6167"/>
<polygon fill="#191970" stroke="#191970" points="1080.6581,-75.1451 1070.2379,-77.0606 1079.5782,-82.0614 1080.6581,-75.1451"/>
</g>
<!-- Node43&#45;&gt;Node35 -->
<g id="edge95" class="edge">
<title>Node43&#45;&gt;Node35</title>
<path fill="none" stroke="#191970" d="M1656.5904,-408.4668C1709.7102,-396.1259 1799.8705,-375.1795 1857.2078,-361.8587"/>
<polygon fill="#191970" stroke="#191970" points="1858.2171,-365.2175 1867.1656,-359.5453 1856.6329,-358.3991 1858.2171,-365.2175"/>
</g>
<!-- Node44&#45;&gt;Node10 -->
<g id="edge99" class="edge">
<title>Node44&#45;&gt;Node10</title>
<path fill="none" stroke="#191970" d="M2328.0229,-333.457C2341.4654,-315.5552 2358.1647,-286.1936 2344.4041,-264 2271.2953,-146.0877 2197.3939,-165.521 2064.4041,-126 2003.5096,-107.9038 1834.7647,-90.6245 1728.8409,-81.1011"/>
<polygon fill="#191970" stroke="#191970" points="1729.0638,-77.6071 1718.7921,-80.2039 1728.4412,-84.5794 1729.0638,-77.6071"/>
</g>
<!-- Node44&#45;&gt;Node38 -->
<g id="edge100" class="edge">
<title>Node44&#45;&gt;Node38</title>
<path fill="none" stroke="#191970" d="M2300.0242,-333.4966C2290.5602,-322.964 2278.162,-309.1661 2268.3889,-298.2895"/>
<polygon fill="#191970" stroke="#191970" points="2270.8062,-295.7431 2261.5191,-290.6441 2265.5994,-300.4217 2270.8062,-295.7431"/>
</g>
<!-- Node46&#45;&gt;Node10 -->
<g id="edge107" class="edge">
<title>Node46&#45;&gt;Node10</title>
<path fill="none" stroke="#191970" d="M1674.1079,-552.5464C1887.3214,-540.4093 2477.4041,-499.502 2477.4041,-418.5 2477.4041,-418.5 2477.4041,-418.5 2477.4041,-211.5 2477.4041,-195.0705 2535.3487,-189.4271 2347.4041,-126 2235.2178,-88.1397 1892.9635,-77.5402 1728.4996,-74.6056"/>
<polygon fill="#191970" stroke="#191970" points="1728.466,-71.1046 1718.4069,-74.4311 1728.3449,-78.1035 1728.466,-71.1046"/>
</g>
<!-- Node46&#45;&gt;Node16 -->
<g id="edge106" class="edge">
<title>Node46&#45;&gt;Node16</title>
<path fill="none" stroke="#191970" d="M1522.821,-550.1938C1373.6496,-537.7478 1041.2958,-510.0182 873.096,-495.9846"/>
<polygon fill="#191970" stroke="#191970" points="873.2527,-492.4856 862.9963,-495.1419 872.6706,-499.4613 873.2527,-492.4856"/>
</g>
<!-- Node46&#45;&gt;Node28 -->
<g id="edge104" class="edge">
<title>Node46&#45;&gt;Node28</title>
<path fill="none" stroke="#191970" d="M1580.3966,-540.2461C1537.291,-500.8717 1425.8576,-396.2924 1346.4041,-297 1309.7077,-251.1409 1273.7864,-191.7541 1256.3399,-161.7159"/>
<polygon fill="#191970" stroke="#191970" points="1259.1806,-159.6352 1251.1571,-152.7161 1253.1146,-163.1286 1259.1806,-159.6352"/>
</g>
<!-- Node46&#45;&gt;Node36 -->
<g id="edge105" class="edge">
<title>Node46&#45;&gt;Node36</title>
<path fill="none" stroke="#191970" d="M1674.078,-549.4818C1799.5962,-536.05 2041.8877,-501.9102 2090.4041,-435 2101.015,-420.3662 2097.4037,-352.6282 2084.4041,-333 2070.4306,-311.9014 2045.0972,-298.6893 2023.5561,-290.7965"/>
<polygon fill="#191970" stroke="#191970" points="2024.5746,-287.446 2013.9801,-287.5351 2022.3178,-294.0722 2024.5746,-287.446"/>
</g>
<!-- Node47&#45;&gt;Node18 -->
<g id="edge111" class="edge">
<title>Node47&#45;&gt;Node18</title>
<path fill="none" stroke="#191970" d="M2213.4715,-609.4777C2205.067,-548.1332 2165.4661,-328.4152 2023.4041,-264 1958.1683,-234.4201 1738.5195,-218.1295 1660.3291,-213.1586"/>
<polygon fill="#191970" stroke="#191970" points="1660.4639,-209.6604 1650.2657,-212.5322 1660.0289,-216.6468 1660.4639,-209.6604"/>
</g>
<!-- Node49&#45;&gt;Node2 -->
<g id="edge115" class="edge">
<title>Node49&#45;&gt;Node2</title>
<path fill="none" stroke="#191970" d="M2505.6544,-268.3626C2407.6053,-253.0563 2243.4554,-227.4311 2174.0104,-216.5901"/>
<polygon fill="#191970" stroke="#191970" points="2174.1229,-213.0654 2163.7027,-214.981 2173.0432,-219.9816 2174.1229,-213.0654"/>
</g>
<!-- Node49&#45;&gt;Node10 -->
<g id="edge117" class="edge">
<title>Node49&#45;&gt;Node10</title>
<path fill="none" stroke="#191970" d="M2567.9703,-264.3323C2558.9461,-254.3616 2547.7298,-241.0267 2539.4041,-228 2512.4225,-185.7837 2532.862,-154.1329 2491.4041,-126 2460.2431,-104.8545 1941.8854,-84.2245 1728.7869,-76.5951"/>
<polygon fill="#191970" stroke="#191970" points="1728.6846,-73.0893 1718.5662,-76.2307 1728.4351,-80.0848 1728.6846,-73.0893"/>
</g>
<!-- Node49&#45;&gt;Node15 -->
<g id="edge114" class="edge">
<title>Node49&#45;&gt;Node15</title>
<path fill="none" stroke="#191970" d="M2581.0878,-264.3403C2575.7376,-232.9966 2559.5843,-163.7194 2517.4041,-126 2466.1135,-80.1338 2265.0785,-36.2349 2176.134,-18.6121"/>
<polygon fill="#191970" stroke="#191970" points="2176.5995,-15.1367 2166.1124,-16.6439 2175.2505,-22.0055 2176.5995,-15.1367"/>
</g>
<!-- Node50 -->
<g id="node50" class="node">
<title>Node50</title>
<polygon fill="none" stroke="#bfbfbf" points="2581.9041,-201.5 2581.9041,-221.5 2718.9041,-221.5 2718.9041,-201.5 2581.9041,-201.5"/>
<text text-anchor="middle" x="2650.4041" y="-208.5" font-family="FreeSans" font-size="10.00" fill="#000000">boost/test/unit_test.hpp</text>
</g>
<!-- Node49&#45;&gt;Node50 -->
<g id="edge116" class="edge">
<title>Node49&#45;&gt;Node50</title>
<path fill="none" stroke="#191970" d="M2598.9436,-264.4966C2609.2711,-253.8608 2622.8319,-239.8952 2633.44,-228.9705"/>
<polygon fill="#191970" stroke="#191970" points="2636.0986,-231.2566 2640.554,-221.6441 2631.0766,-226.3802 2636.0986,-231.2566"/>
</g>
</g>
</svg>
