<?xml version="1.0" encoding="UTF-8" standalone="no"?>
<!DOCTYPE svg PUBLIC "-//W3C//DTD SVG 1.1//EN"
 "http://www.w3.org/Graphics/SVG/1.1/DTD/svg11.dtd">
<!-- Generated by graphviz version 2.40.1 (20161225.0304)
 -->
<!-- Title: KFParticle_sPHENIX::setContainerName Pages: 1 -->
<svg width="464pt" height="144pt"
 viewBox="0.00 0.00 464.00 144.00" xmlns="http://www.w3.org/2000/svg" xmlns:xlink="http://www.w3.org/1999/xlink">
<g id="graph0" class="graph" transform="scale(1 1) rotate(0) translate(4 140)">
<title>KFParticle_sPHENIX::setContainerName</title>
<!-- Node1 -->
<g id="node1" class="node">
<title>Node1</title>
<polygon fill="#bfbfbf" stroke="#000000" points="0,-33.5 0,-65.5 117,-65.5 117,-33.5 0,-33.5"/>
<text text-anchor="start" x="8" y="-52.5" font-family="FreeSans" font-size="10.00" fill="#000000">KFParticle_sPHENIX</text>
<text text-anchor="middle" x="58.5" y="-40.5" font-family="FreeSans" font-size="10.00" fill="#000000">::setContainerName</text>
</g>
<!-- Node2 -->
<g id="node2" class="node">
<title>Node2</title>
<g id="a_node2"><a xlink:href="../../d6/dec/G4__KFParticle_8C.html#a86ebd84b08f013986376f92d34027d5c" target="_top" xlink:title="KFParticle_D0_Reco">
<polygon fill="none" stroke="#000000" points="169,-39.5 169,-59.5 283,-59.5 283,-39.5 169,-39.5"/>
<text text-anchor="middle" x="226" y="-46.5" font-family="FreeSans" font-size="10.00" fill="#000000">KFParticle_D0_Reco</text>
</a>
</g>
</g>
<!-- Node1&#45;&gt;Node2 -->
<g id="edge1" class="edge">
<title>Node1&#45;&gt;Node2</title>
<path fill="none" stroke="#191970" d="M127.4748,-49.5C141.2374,-49.5 155.5497,-49.5 168.861,-49.5"/>
<polygon fill="#191970" stroke="#191970" points="127.0834,-46.0001 117.0834,-49.5 127.0833,-53.0001 127.0834,-46.0001"/>
</g>
<!-- Node6 -->
<g id="node6" class="node">
<title>Node6</title>
<g id="a_node6"><a xlink:href="../../d6/dec/G4__KFParticle_8C.html#af7b0f7f3f0cb246035b84e117f531e61" target="_top" xlink:title="KFParticle_Lambdac_Reco">
<polygon fill="none" stroke="#000000" points="153,-.5 153,-20.5 299,-20.5 299,-.5 153,-.5"/>
<text text-anchor="middle" x="226" y="-7.5" font-family="FreeSans" font-size="10.00" fill="#000000">KFParticle_Lambdac_Reco</text>
</a>
</g>
</g>
<!-- Node1&#45;&gt;Node6 -->
<g id="edge5" class="edge">
<title>Node1&#45;&gt;Node6</title>
<path fill="none" stroke="#191970" d="M126.8885,-33.5767C145.87,-29.1571 165.9416,-24.4838 183.021,-20.5071"/>
<polygon fill="#191970" stroke="#191970" points="126.0291,-30.1831 117.0834,-35.8597 127.6166,-37.0007 126.0291,-30.1831"/>
</g>
<!-- Node7 -->
<g id="node7" class="node">
<title>Node7</title>
<g id="a_node7"><a xlink:href="../../d6/dec/G4__KFParticle_8C.html#a71acb06a18c13a756dabacd73268a654" target="_top" xlink:title="KFParticle_Upsilon_Reco">
<polygon fill="none" stroke="#000000" points="157,-78.5 157,-98.5 295,-98.5 295,-78.5 157,-78.5"/>
<text text-anchor="middle" x="226" y="-85.5" font-family="FreeSans" font-size="10.00" fill="#000000">KFParticle_Upsilon_Reco</text>
</a>
</g>
</g>
<!-- Node1&#45;&gt;Node7 -->
<g id="edge6" class="edge">
<title>Node1&#45;&gt;Node7</title>
<path fill="none" stroke="#191970" d="M126.8885,-65.4233C145.87,-69.8429 165.9416,-74.5162 183.021,-78.4929"/>
<polygon fill="#191970" stroke="#191970" points="127.6166,-61.9993 117.0834,-63.1403 126.0291,-68.8169 127.6166,-61.9993"/>
</g>
<!-- Node3 -->
<g id="node3" class="node">
<title>Node3</title>
<g id="a_node3"><a xlink:href="../../d4/de9/Fun4All__AnaTutorial__sPHENIX_8C.html#a5028836c74f0bebec560d3ab54daa022" target="_top" xlink:title="Fun4All_AnaTutorial\l_sPHENIX">
<polygon fill="none" stroke="#000000" points="338,-103.5 338,-135.5 453,-135.5 453,-103.5 338,-103.5"/>
<text text-anchor="start" x="346" y="-122.5" font-family="FreeSans" font-size="10.00" fill="#000000">Fun4All_AnaTutorial</text>
<text text-anchor="middle" x="395.5" y="-110.5" font-family="FreeSans" font-size="10.00" fill="#000000">_sPHENIX</text>
</a>
</g>
</g>
<!-- Node2&#45;&gt;Node3 -->
<g id="edge2" class="edge">
<title>Node2&#45;&gt;Node3</title>
<path fill="none" stroke="#191970" d="M281.9208,-62.6964C287.7901,-64.7066 293.5852,-66.9693 299,-69.5 316.6474,-77.7478 317.8996,-85.1709 335,-94.5 340.7865,-97.6568 347.0566,-100.6665 353.2939,-103.4336"/>
<polygon fill="#191970" stroke="#191970" points="282.6175,-59.2453 272.0271,-59.5492 280.4956,-65.9159 282.6175,-59.2453"/>
</g>
<!-- Node4 -->
<g id="node4" class="node">
<title>Node4</title>
<g id="a_node4"><a xlink:href="../../d6/d14/Fun4All__AnaTutorial__sPHENIX__Jets_8C.html#a61b352bca84476d24b0ff40991b27900" target="_top" xlink:title="Fun4All_AnaTutorial\l_sPHENIX_Jets">
<polygon fill="none" stroke="#000000" points="338,-52.5 338,-84.5 453,-84.5 453,-52.5 338,-52.5"/>
<text text-anchor="start" x="346" y="-71.5" font-family="FreeSans" font-size="10.00" fill="#000000">Fun4All_AnaTutorial</text>
<text text-anchor="middle" x="395.5" y="-59.5" font-family="FreeSans" font-size="10.00" fill="#000000">_sPHENIX_Jets</text>
</a>
</g>
</g>
<!-- Node2&#45;&gt;Node4 -->
<g id="edge3" class="edge">
<title>Node2&#45;&gt;Node4</title>
<path fill="none" stroke="#191970" d="M293.4337,-57.0589C308.1497,-58.7085 323.5934,-60.4397 337.8859,-62.0418"/>
<polygon fill="#191970" stroke="#191970" points="293.7126,-53.5684 283.385,-55.9325 292.9328,-60.5248 293.7126,-53.5684"/>
</g>
<!-- Node5 -->
<g id="node5" class="node">
<title>Node5</title>
<g id="a_node5"><a xlink:href="../../d9/d73/fun4all__macros_2blob_2master_2detectors_2sPHENIX_2Fun4All__G4__sPHENIX_8C.html#a4102cd3e195333de974409428a2e6dae" target="_top" xlink:title="Fun4All_G4_sPHENIX">
<polygon fill="none" stroke="#000000" points="335,-13.5 335,-33.5 456,-33.5 456,-13.5 335,-13.5"/>
<text text-anchor="middle" x="395.5" y="-20.5" font-family="FreeSans" font-size="10.00" fill="#000000">Fun4All_G4_sPHENIX</text>
</a>
</g>
</g>
<!-- Node2&#45;&gt;Node5 -->
<g id="edge4" class="edge">
<title>Node2&#45;&gt;Node5</title>
<path fill="none" stroke="#191970" d="M293.2783,-39.18C307.0516,-37.0673 321.4685,-34.8559 334.9871,-32.7822"/>
<polygon fill="#191970" stroke="#191970" points="292.7387,-35.7218 283.385,-40.6976 293.8001,-42.6408 292.7387,-35.7218"/>
</g>
<!-- Node7&#45;&gt;Node3 -->
<g id="edge7" class="edge">
<title>Node7&#45;&gt;Node3</title>
<path fill="none" stroke="#191970" d="M291.0074,-100.3893C306.4249,-103.209 322.7655,-106.1975 337.8304,-108.9528"/>
<polygon fill="#191970" stroke="#191970" points="291.4983,-96.9211 281.0318,-98.5648 290.2389,-103.8069 291.4983,-96.9211"/>
</g>
<!-- Node7&#45;&gt;Node4 -->
<g id="edge8" class="edge">
<title>Node7&#45;&gt;Node4</title>
<path fill="none" stroke="#191970" d="M305.4061,-79.1306C316.3268,-77.842 327.3662,-76.5394 337.7953,-75.3088"/>
<polygon fill="#191970" stroke="#191970" points="304.9521,-75.6597 295.4312,-80.3075 305.7725,-82.6115 304.9521,-75.6597"/>
</g>
<!-- Node7&#45;&gt;Node5 -->
<g id="edge9" class="edge">
<title>Node7&#45;&gt;Node5</title>
<path fill="none" stroke="#191970" d="M284.4731,-75.3784C289.4721,-73.6294 294.3792,-71.6757 299,-69.5 316.8562,-61.0925 317.4248,-52.4802 335,-43.5 342.4868,-39.6745 350.8605,-36.3578 358.9346,-33.5848"/>
<polygon fill="#191970" stroke="#191970" points="283.2437,-72.0972 274.7977,-78.4937 285.3892,-78.7603 283.2437,-72.0972"/>
</g>
</g>
</svg>
