<?xml version="1.0" encoding="UTF-8" standalone="no"?>
<!DOCTYPE svg PUBLIC "-//W3C//DTD SVG 1.1//EN"
 "http://www.w3.org/Graphics/SVG/1.1/DTD/svg11.dtd">
<!-- Generated by graphviz version 2.40.1 (20161225.0304)
 -->
<!-- Title: KFParticle_sPHENIX::constrainToPrimaryVertex Pages: 1 -->
<svg width="499pt" height="144pt"
 viewBox="0.00 0.00 499.00 144.00" xmlns="http://www.w3.org/2000/svg" xmlns:xlink="http://www.w3.org/1999/xlink">
<g id="graph0" class="graph" transform="scale(1 1) rotate(0) translate(4 140)">
<title>KFParticle_sPHENIX::constrainToPrimaryVertex</title>
<!-- Node1 -->
<g id="node1" class="node">
<title>Node1</title>
<polygon fill="#bfbfbf" stroke="#000000" points="0,-33.5 0,-65.5 152,-65.5 152,-33.5 0,-33.5"/>
<text text-anchor="start" x="8" y="-52.5" font-family="FreeSans" font-size="10.00" fill="#000000">KFParticle_sPHENIX</text>
<text text-anchor="middle" x="76" y="-40.5" font-family="FreeSans" font-size="10.00" fill="#000000">::constrainToPrimaryVertex</text>
</g>
<!-- Node2 -->
<g id="node2" class="node">
<title>Node2</title>
<g id="a_node2"><a xlink:href="../../d6/dec/G4__KFParticle_8C.html#a86ebd84b08f013986376f92d34027d5c" target="_top" xlink:title="KFParticle_D0_Reco">
<polygon fill="none" stroke="#000000" points="204,-39.5 204,-59.5 318,-59.5 318,-39.5 204,-39.5"/>
<text text-anchor="middle" x="261" y="-46.5" font-family="FreeSans" font-size="10.00" fill="#000000">KFParticle_D0_Reco</text>
</a>
</g>
</g>
<!-- Node1&#45;&gt;Node2 -->
<g id="edge1" class="edge">
<title>Node1&#45;&gt;Node2</title>
<path fill="none" stroke="#191970" d="M162.2803,-49.5C176.4066,-49.5 190.7272,-49.5 203.9163,-49.5"/>
<polygon fill="#191970" stroke="#191970" points="162.0475,-46.0001 152.0475,-49.5 162.0474,-53.0001 162.0475,-46.0001"/>
</g>
<!-- Node6 -->
<g id="node6" class="node">
<title>Node6</title>
<g id="a_node6"><a xlink:href="../../d6/dec/G4__KFParticle_8C.html#af7b0f7f3f0cb246035b84e117f531e61" target="_top" xlink:title="KFParticle_Lambdac_Reco">
<polygon fill="none" stroke="#000000" points="188,-.5 188,-20.5 334,-20.5 334,-.5 188,-.5"/>
<text text-anchor="middle" x="261" y="-7.5" font-family="FreeSans" font-size="10.00" fill="#000000">KFParticle_Lambdac_Reco</text>
</a>
</g>
</g>
<!-- Node1&#45;&gt;Node6 -->
<g id="edge5" class="edge">
<title>Node1&#45;&gt;Node6</title>
<path fill="none" stroke="#191970" d="M162.3229,-31.3022C179.8657,-27.604 197.7062,-23.843 213.3053,-20.5546"/>
<polygon fill="#191970" stroke="#191970" points="161.1104,-27.9808 152.0475,-33.4684 162.5544,-34.8303 161.1104,-27.9808"/>
</g>
<!-- Node7 -->
<g id="node7" class="node">
<title>Node7</title>
<g id="a_node7"><a xlink:href="../../d6/dec/G4__KFParticle_8C.html#a71acb06a18c13a756dabacd73268a654" target="_top" xlink:title="KFParticle_Upsilon_Reco">
<polygon fill="none" stroke="#000000" points="192,-78.5 192,-98.5 330,-98.5 330,-78.5 192,-78.5"/>
<text text-anchor="middle" x="261" y="-85.5" font-family="FreeSans" font-size="10.00" fill="#000000">KFParticle_Upsilon_Reco</text>
</a>
</g>
</g>
<!-- Node1&#45;&gt;Node7 -->
<g id="edge6" class="edge">
<title>Node1&#45;&gt;Node7</title>
<path fill="none" stroke="#191970" d="M162.3229,-67.6978C179.8657,-71.396 197.7062,-75.157 213.3053,-78.4454"/>
<polygon fill="#191970" stroke="#191970" points="162.5544,-64.1697 152.0475,-65.5316 161.1104,-71.0192 162.5544,-64.1697"/>
</g>
<!-- Node3 -->
<g id="node3" class="node">
<title>Node3</title>
<g id="a_node3"><a xlink:href="../../d4/de9/Fun4All__AnaTutorial__sPHENIX_8C.html#a5028836c74f0bebec560d3ab54daa022" target="_top" xlink:title="Fun4All_AnaTutorial\l_sPHENIX">
<polygon fill="none" stroke="#000000" points="373,-103.5 373,-135.5 488,-135.5 488,-103.5 373,-103.5"/>
<text text-anchor="start" x="381" y="-122.5" font-family="FreeSans" font-size="10.00" fill="#000000">Fun4All_AnaTutorial</text>
<text text-anchor="middle" x="430.5" y="-110.5" font-family="FreeSans" font-size="10.00" fill="#000000">_sPHENIX</text>
</a>
</g>
</g>
<!-- Node2&#45;&gt;Node3 -->
<g id="edge2" class="edge">
<title>Node2&#45;&gt;Node3</title>
<path fill="none" stroke="#191970" d="M316.9208,-62.6964C322.7901,-64.7066 328.5852,-66.9693 334,-69.5 351.6474,-77.7478 352.8996,-85.1709 370,-94.5 375.7865,-97.6568 382.0566,-100.6665 388.2939,-103.4336"/>
<polygon fill="#191970" stroke="#191970" points="317.6175,-59.2453 307.0271,-59.5492 315.4956,-65.9159 317.6175,-59.2453"/>
</g>
<!-- Node4 -->
<g id="node4" class="node">
<title>Node4</title>
<g id="a_node4"><a xlink:href="../../d6/d14/Fun4All__AnaTutorial__sPHENIX__Jets_8C.html#a61b352bca84476d24b0ff40991b27900" target="_top" xlink:title="Fun4All_AnaTutorial\l_sPHENIX_Jets">
<polygon fill="none" stroke="#000000" points="373,-52.5 373,-84.5 488,-84.5 488,-52.5 373,-52.5"/>
<text text-anchor="start" x="381" y="-71.5" font-family="FreeSans" font-size="10.00" fill="#000000">Fun4All_AnaTutorial</text>
<text text-anchor="middle" x="430.5" y="-59.5" font-family="FreeSans" font-size="10.00" fill="#000000">_sPHENIX_Jets</text>
</a>
</g>
</g>
<!-- Node2&#45;&gt;Node4 -->
<g id="edge3" class="edge">
<title>Node2&#45;&gt;Node4</title>
<path fill="none" stroke="#191970" d="M328.4337,-57.0589C343.1497,-58.7085 358.5934,-60.4397 372.8859,-62.0418"/>
<polygon fill="#191970" stroke="#191970" points="328.7126,-53.5684 318.385,-55.9325 327.9328,-60.5248 328.7126,-53.5684"/>
</g>
<!-- Node5 -->
<g id="node5" class="node">
<title>Node5</title>
<g id="a_node5"><a xlink:href="../../d9/d73/fun4all__macros_2blob_2master_2detectors_2sPHENIX_2Fun4All__G4__sPHENIX_8C.html#a4102cd3e195333de974409428a2e6dae" target="_top" xlink:title="Fun4All_G4_sPHENIX">
<polygon fill="none" stroke="#000000" points="370,-13.5 370,-33.5 491,-33.5 491,-13.5 370,-13.5"/>
<text text-anchor="middle" x="430.5" y="-20.5" font-family="FreeSans" font-size="10.00" fill="#000000">Fun4All_G4_sPHENIX</text>
</a>
</g>
</g>
<!-- Node2&#45;&gt;Node5 -->
<g id="edge4" class="edge">
<title>Node2&#45;&gt;Node5</title>
<path fill="none" stroke="#191970" d="M328.2783,-39.18C342.0516,-37.0673 356.4685,-34.8559 369.9871,-32.7822"/>
<polygon fill="#191970" stroke="#191970" points="327.7387,-35.7218 318.385,-40.6976 328.8001,-42.6408 327.7387,-35.7218"/>
</g>
<!-- Node7&#45;&gt;Node3 -->
<g id="edge7" class="edge">
<title>Node7&#45;&gt;Node3</title>
<path fill="none" stroke="#191970" d="M326.0074,-100.3893C341.4249,-103.209 357.7655,-106.1975 372.8304,-108.9528"/>
<polygon fill="#191970" stroke="#191970" points="326.4983,-96.9211 316.0318,-98.5648 325.2389,-103.8069 326.4983,-96.9211"/>
</g>
<!-- Node7&#45;&gt;Node4 -->
<g id="edge8" class="edge">
<title>Node7&#45;&gt;Node4</title>
<path fill="none" stroke="#191970" d="M340.4061,-79.1306C351.3268,-77.842 362.3662,-76.5394 372.7953,-75.3088"/>
<polygon fill="#191970" stroke="#191970" points="339.9521,-75.6597 330.4312,-80.3075 340.7725,-82.6115 339.9521,-75.6597"/>
</g>
<!-- Node7&#45;&gt;Node5 -->
<g id="edge9" class="edge">
<title>Node7&#45;&gt;Node5</title>
<path fill="none" stroke="#191970" d="M319.4731,-75.3784C324.4721,-73.6294 329.3792,-71.6757 334,-69.5 351.8562,-61.0925 352.4248,-52.4802 370,-43.5 377.4868,-39.6745 385.8605,-36.3578 393.9346,-33.5848"/>
<polygon fill="#191970" stroke="#191970" points="318.2437,-72.0972 309.7977,-78.4937 320.3892,-78.7603 318.2437,-72.0972"/>
</g>
</g>
</svg>
