<?xml version="1.0" encoding="UTF-8" standalone="no"?>
<!DOCTYPE svg PUBLIC "-//W3C//DTD SVG 1.1//EN"
 "http://www.w3.org/Graphics/SVG/1.1/DTD/svg11.dtd">
<!-- Generated by graphviz version 2.40.1 (20161225.0304)
 -->
<!-- Title: sgmin Pages: 1 -->
<svg width="1031pt" height="698pt"
 viewBox="0.00 0.00 1031.00 698.00" xmlns="http://www.w3.org/2000/svg" xmlns:xlink="http://www.w3.org/1999/xlink">
<g id="graph0" class="graph" transform="scale(1 1) rotate(0) translate(4 694)">
<title>sgmin</title>
<!-- Node1 -->
<g id="node1" class="node">
<title>Node1</title>
<polygon fill="#bfbfbf" stroke="#000000" points="0,-518.5 0,-538.5 47,-538.5 47,-518.5 0,-518.5"/>
<text text-anchor="middle" x="23.5" y="-525.5" font-family="FreeSans" font-size="10.00" fill="#000000">sgmin</text>
</g>
<!-- Node2 -->
<g id="node2" class="node">
<title>Node2</title>
<g id="a_node2"><a xlink:href="../../d3/df2/classgenfit_1_1GFRavePropagator.html#a0534e516b69488120356d8bfa53f6f5b" target="_top" xlink:title="genfit::GFRavePropagator::to">
<polygon fill="none" stroke="#000000" points="83,-518.5 83,-538.5 246,-538.5 246,-518.5 83,-518.5"/>
<text text-anchor="middle" x="164.5" y="-525.5" font-family="FreeSans" font-size="10.00" fill="#000000">genfit::GFRavePropagator::to</text>
</a>
</g>
</g>
<!-- Node1&#45;&gt;Node2 -->
<g id="edge1" class="edge">
<title>Node1&#45;&gt;Node2</title>
<path fill="none" stroke="#191970" d="M47.1002,-528.5C54.6643,-528.5 63.5466,-528.5 72.9818,-528.5"/>
<polygon fill="#191970" stroke="#191970" points="72.9822,-532.0001 82.9822,-528.5 72.9822,-525.0001 72.9822,-532.0001"/>
</g>
<!-- Node3 -->
<g id="node3" class="node">
<title>Node3</title>
<g id="a_node3"><a xlink:href="../../dc/d22/namespacegenfit.html#aec5c8cb927a354edfb23af80108b69d4" target="_top" xlink:title="genfit::PlaneToGFDetPlane">
<polygon fill="none" stroke="#000000" points="282,-630.5 282,-650.5 432,-650.5 432,-630.5 282,-630.5"/>
<text text-anchor="middle" x="357" y="-637.5" font-family="FreeSans" font-size="10.00" fill="#000000">genfit::PlaneToGFDetPlane</text>
</a>
</g>
</g>
<!-- Node2&#45;&gt;Node3 -->
<g id="edge2" class="edge">
<title>Node2&#45;&gt;Node3</title>
<path fill="none" stroke="#191970" d="M181.9226,-538.6368C215.8523,-558.3777 290.9554,-602.074 330.8728,-625.2987"/>
<polygon fill="#191970" stroke="#191970" points="329.3518,-628.4631 339.7555,-630.4668 332.8721,-622.4126 329.3518,-628.4631"/>
</g>
<!-- Node6 -->
<g id="node6" class="node">
<title>Node6</title>
<g id="a_node6"><a xlink:href="../../dc/d22/namespacegenfit.html#a16248965fc33843bb4f2d9bd8b0a7ce7" target="_top" xlink:title="genfit::GFTrackToTrack">
<polygon fill="none" stroke="#000000" points="292,-431.5 292,-451.5 422,-451.5 422,-431.5 292,-431.5"/>
<text text-anchor="middle" x="357" y="-438.5" font-family="FreeSans" font-size="10.00" fill="#000000">genfit::GFTrackToTrack</text>
</a>
</g>
</g>
<!-- Node2&#45;&gt;Node6 -->
<g id="edge5" class="edge">
<title>Node2&#45;&gt;Node6</title>
<path fill="none" stroke="#191970" d="M186.9589,-518.3497C221.1538,-502.8954 286.4033,-473.406 325.3767,-455.7921"/>
<polygon fill="#191970" stroke="#191970" points="327.013,-458.8935 334.6841,-451.5856 324.1301,-452.5147 327.013,-458.8935"/>
</g>
<!-- Node4 -->
<g id="node4" class="node">
<title>Node4</title>
<g id="a_node4"><a xlink:href="../../dc/d22/namespacegenfit.html#ad8550f9eaa6237f8ddf48aefd57dfe58" target="_top" xlink:title="genfit::Point3DToTVector3">
<polygon fill="none" stroke="#000000" points="479.5,-669.5 479.5,-689.5 626.5,-689.5 626.5,-669.5 479.5,-669.5"/>
<text text-anchor="middle" x="553" y="-676.5" font-family="FreeSans" font-size="10.00" fill="#000000">genfit::Point3DToTVector3</text>
</a>
</g>
</g>
<!-- Node3&#45;&gt;Node4 -->
<g id="edge3" class="edge">
<title>Node3&#45;&gt;Node4</title>
<path fill="none" stroke="#191970" d="M407.4749,-650.5435C433.5377,-655.7294 465.5178,-662.0928 492.8544,-667.5323"/>
<polygon fill="#191970" stroke="#191970" points="492.2054,-670.9717 502.6962,-669.4906 493.5715,-664.1062 492.2054,-670.9717"/>
</g>
<!-- Node5 -->
<g id="node5" class="node">
<title>Node5</title>
<g id="a_node5"><a xlink:href="../../dc/d22/namespacegenfit.html#ad3ecb92a152c9ea7f5290e3653910473" target="_top" xlink:title="genfit::Vector3DToTVector3">
<polygon fill="none" stroke="#000000" points="476,-630.5 476,-650.5 630,-650.5 630,-630.5 476,-630.5"/>
<text text-anchor="middle" x="553" y="-637.5" font-family="FreeSans" font-size="10.00" fill="#000000">genfit::Vector3DToTVector3</text>
</a>
</g>
</g>
<!-- Node3&#45;&gt;Node5 -->
<g id="edge4" class="edge">
<title>Node3&#45;&gt;Node5</title>
<path fill="none" stroke="#191970" d="M432.2182,-640.5C443.1284,-640.5 454.4374,-640.5 465.5627,-640.5"/>
<polygon fill="#191970" stroke="#191970" points="465.7115,-644.0001 475.7115,-640.5 465.7114,-637.0001 465.7115,-644.0001"/>
</g>
<!-- Node7 -->
<g id="node7" class="node">
<title>Node7</title>
<g id="a_node7"><a xlink:href="../../d6/d8a/classgenfit_1_1Track.html#ad06e7a012624bdb03960826b5c9fcd93" target="_top" xlink:title="Get FitStatus for a AbsTrackRep. Per default, return FitStatus for cardinalRep.">
<polygon fill="none" stroke="#000000" points="480,-591.5 480,-611.5 626,-611.5 626,-591.5 480,-591.5"/>
<text text-anchor="middle" x="553" y="-598.5" font-family="FreeSans" font-size="10.00" fill="#000000">genfit::Track::getFitStatus</text>
</a>
</g>
</g>
<!-- Node6&#45;&gt;Node7 -->
<g id="edge6" class="edge">
<title>Node6&#45;&gt;Node7</title>
<path fill="none" stroke="#191970" d="M361.8336,-451.6219C374.9101,-477.8425 413.6898,-548.3062 468,-582.5 470.9691,-584.3694 474.0983,-586.0559 477.3341,-587.5775"/>
<polygon fill="#191970" stroke="#191970" points="476.1126,-590.8597 486.6913,-591.4435 478.7855,-584.3901 476.1126,-590.8597"/>
</g>
<!-- Node9 -->
<g id="node9" class="node">
<title>Node9</title>
<g id="a_node9"><a xlink:href="../../d0/d8d/classgenfit_1_1FitStatus.html#a56371ce504bee72fcf2f9324ddcb91a8" target="_top" xlink:title="Did the fit converge (in all Points or only partially)?">
<polygon fill="none" stroke="#000000" points="502,-540.5 502,-572.5 604,-572.5 604,-540.5 502,-540.5"/>
<text text-anchor="start" x="510" y="-559.5" font-family="FreeSans" font-size="10.00" fill="#000000">genfit::FitStatus::</text>
<text text-anchor="middle" x="553" y="-547.5" font-family="FreeSans" font-size="10.00" fill="#000000">isFitConverged</text>
</a>
</g>
</g>
<!-- Node6&#45;&gt;Node9 -->
<g id="edge8" class="edge">
<title>Node6&#45;&gt;Node9</title>
<path fill="none" stroke="#191970" d="M366.7207,-451.6982C384.9083,-470.2107 426.0496,-509.4639 468,-531.5 475.5365,-535.4588 483.787,-538.8744 492.0906,-541.7965"/>
<polygon fill="#191970" stroke="#191970" points="491.23,-545.198 501.823,-545.0032 493.4206,-538.5496 491.23,-545.198"/>
</g>
<!-- Node10 -->
<g id="node10" class="node">
<title>Node10</title>
<g id="a_node10"><a xlink:href="../../dc/de5/PHG4mRICHDetector_8cc.html#a11ded6fc3d3fab0e72612c3886df87a0" target="_top" xlink:title="pos">
<polygon fill="none" stroke="#000000" points="536,-501.5 536,-521.5 570,-521.5 570,-501.5 536,-501.5"/>
<text text-anchor="middle" x="553" y="-508.5" font-family="FreeSans" font-size="10.00" fill="#000000">pos</text>
</a>
</g>
</g>
<!-- Node6&#45;&gt;Node10 -->
<g id="edge9" class="edge">
<title>Node6&#45;&gt;Node10</title>
<path fill="none" stroke="#191970" d="M375.7513,-451.6021C397.4296,-462.9266 434.4408,-481.181 468,-492.5 486.8056,-498.8429 508.6709,-503.6761 525.5154,-506.8804"/>
<polygon fill="#191970" stroke="#191970" points="525.3114,-510.4008 535.7769,-508.7503 526.5664,-503.5142 525.3114,-510.4008"/>
</g>
<!-- Node11 -->
<g id="node11" class="node">
<title>Node11</title>
<g id="a_node11"><a xlink:href="../../d6/d8a/classgenfit_1_1Track.html#abf156957d701a9a10a02fef8ac54e4d9" target="_top" xlink:title="Shortcut to get FittedStates.">
<polygon fill="none" stroke="#000000" points="488,-450.5 488,-482.5 618,-482.5 618,-450.5 488,-450.5"/>
<text text-anchor="start" x="496" y="-469.5" font-family="FreeSans" font-size="10.00" fill="#000000">genfit::Track::getFitted</text>
<text text-anchor="middle" x="553" y="-457.5" font-family="FreeSans" font-size="10.00" fill="#000000">State</text>
</a>
</g>
</g>
<!-- Node6&#45;&gt;Node11 -->
<g id="edge10" class="edge">
<title>Node6&#45;&gt;Node11</title>
<path fill="none" stroke="#191970" d="M422.2652,-449.8246C440.0237,-452.0898 459.4024,-454.5615 477.6693,-456.8915"/>
<polygon fill="#191970" stroke="#191970" points="477.3234,-460.3756 487.6859,-458.1691 478.2091,-453.4319 477.3234,-460.3756"/>
</g>
<!-- Node16 -->
<g id="node16" class="node">
<title>Node16</title>
<g id="a_node16"><a xlink:href="../../d2/d74/classgenfit_1_1MeasuredStateOnPlane.html#a3aab44a6c7155b8258fa34469bc45bc0" target="_top" xlink:title="genfit::MeasuredStateOnPlane\l::getPosMomCov">
<polygon fill="none" stroke="#000000" points="468,-399.5 468,-431.5 638,-431.5 638,-399.5 468,-399.5"/>
<text text-anchor="start" x="476" y="-418.5" font-family="FreeSans" font-size="10.00" fill="#000000">genfit::MeasuredStateOnPlane</text>
<text text-anchor="middle" x="553" y="-406.5" font-family="FreeSans" font-size="10.00" fill="#000000">::getPosMomCov</text>
</a>
</g>
</g>
<!-- Node6&#45;&gt;Node16 -->
<g id="edge18" class="edge">
<title>Node6&#45;&gt;Node16</title>
<path fill="none" stroke="#191970" d="M422.2652,-432.8424C433.6622,-431.3305 445.7266,-429.7301 457.7361,-428.137"/>
<polygon fill="#191970" stroke="#191970" points="458.3425,-431.5874 467.7954,-426.8027 457.4219,-424.6481 458.3425,-431.5874"/>
</g>
<!-- Node19 -->
<g id="node19" class="node">
<title>Node19</title>
<g id="a_node19"><a xlink:href="../../d0/d8d/classgenfit_1_1FitStatus.html#a7e8ed1d97eec3e3164dc2dd782f5cb85" target="_top" xlink:title="Get the fitted charge.">
<polygon fill="none" stroke="#000000" points="502,-348.5 502,-380.5 604,-380.5 604,-348.5 502,-348.5"/>
<text text-anchor="start" x="510" y="-367.5" font-family="FreeSans" font-size="10.00" fill="#000000">genfit::FitStatus::</text>
<text text-anchor="middle" x="553" y="-355.5" font-family="FreeSans" font-size="10.00" fill="#000000">getCharge</text>
</a>
</g>
</g>
<!-- Node6&#45;&gt;Node19 -->
<g id="edge21" class="edge">
<title>Node6&#45;&gt;Node19</title>
<path fill="none" stroke="#191970" d="M376.7091,-431.4683C398.6388,-420.5378 435.2973,-402.9503 468,-390.5 475.7744,-387.5402 484.0436,-384.6741 492.2545,-381.9934"/>
<polygon fill="#191970" stroke="#191970" points="493.3704,-385.3112 501.8334,-378.9371 491.2427,-378.6424 493.3704,-385.3112"/>
</g>
<!-- Node20 -->
<g id="node20" class="node">
<title>Node20</title>
<g id="a_node20"><a xlink:href="../../d0/d8d/classgenfit_1_1FitStatus.html#abbeeda61574c284f1d762088b3644770" target="_top" xlink:title="Get chi^2 of the fit.">
<polygon fill="none" stroke="#000000" points="502,-297.5 502,-329.5 604,-329.5 604,-297.5 502,-297.5"/>
<text text-anchor="start" x="510" y="-316.5" font-family="FreeSans" font-size="10.00" fill="#000000">genfit::FitStatus::</text>
<text text-anchor="middle" x="553" y="-304.5" font-family="FreeSans" font-size="10.00" fill="#000000">getChi2</text>
</a>
</g>
</g>
<!-- Node6&#45;&gt;Node20 -->
<g id="edge22" class="edge">
<title>Node6&#45;&gt;Node20</title>
<path fill="none" stroke="#191970" d="M365.3598,-431.2053C382.4898,-410.7668 423.7114,-364.8584 468,-339.5 475.4116,-335.2563 483.5913,-331.6323 491.8605,-328.5584"/>
<polygon fill="#191970" stroke="#191970" points="493.2631,-331.7768 501.5683,-325.1985 490.9736,-325.1618 493.2631,-331.7768"/>
</g>
<!-- Node21 -->
<g id="node21" class="node">
<title>Node21</title>
<g id="a_node21"><a xlink:href="../../d0/d8d/classgenfit_1_1FitStatus.html#aa73b3566657ea37bf8ab5102d465025d" target="_top" xlink:title="Get the degrees of freedom of the fit.">
<polygon fill="none" stroke="#000000" points="502,-246.5 502,-278.5 604,-278.5 604,-246.5 502,-246.5"/>
<text text-anchor="start" x="510" y="-265.5" font-family="FreeSans" font-size="10.00" fill="#000000">genfit::FitStatus::</text>
<text text-anchor="middle" x="553" y="-253.5" font-family="FreeSans" font-size="10.00" fill="#000000">getNdf</text>
</a>
</g>
</g>
<!-- Node6&#45;&gt;Node21 -->
<g id="edge23" class="edge">
<title>Node6&#45;&gt;Node21</title>
<path fill="none" stroke="#191970" d="M361.5666,-431.1679C374.261,-403.6448 412.7131,-327.9703 468,-288.5 475.3788,-283.2322 483.8475,-279.0128 492.5172,-275.6382"/>
<polygon fill="#191970" stroke="#191970" points="493.7008,-278.9322 501.9617,-272.2983 491.3669,-272.3327 493.7008,-278.9322"/>
</g>
<!-- Node22 -->
<g id="node22" class="node">
<title>Node22</title>
<g id="a_node22"><a xlink:href="../../de/d82/namespacerelease.html#ac63a4e24ae2a10afe15fb33e11a485c2" target="_top" xlink:title="release.tag">
<polygon fill="none" stroke="#000000" points="517,-149.5 517,-169.5 589,-169.5 589,-149.5 517,-149.5"/>
<text text-anchor="middle" x="553" y="-156.5" font-family="FreeSans" font-size="10.00" fill="#000000">release.tag</text>
</a>
</g>
</g>
<!-- Node6&#45;&gt;Node22 -->
<g id="edge24" class="edge">
<title>Node6&#45;&gt;Node22</title>
<path fill="none" stroke="#191970" d="M361.0456,-431.4615C373.785,-400.554 415.3681,-304.8532 468,-237.5 486.5466,-213.7659 512.6369,-190.9988 531.007,-176.2535"/>
<polygon fill="#191970" stroke="#191970" points="533.6487,-178.628 539.3379,-169.6902 529.3168,-173.1294 533.6487,-178.628"/>
</g>
<!-- Node8 -->
<g id="node8" class="node">
<title>Node8</title>
<g id="a_node8"><a xlink:href="../../d6/d8a/classgenfit_1_1Track.html#a402b35300e81a48c7f0b9eb082b1cf24" target="_top" xlink:title="Get cardinal track representation.">
<polygon fill="none" stroke="#000000" points="860,-580.5 860,-600.5 1023,-600.5 1023,-580.5 860,-580.5"/>
<text text-anchor="middle" x="941.5" y="-587.5" font-family="FreeSans" font-size="10.00" fill="#000000">genfit::Track::getCardinalRep</text>
</a>
</g>
</g>
<!-- Node7&#45;&gt;Node8 -->
<g id="edge7" class="edge">
<title>Node7&#45;&gt;Node8</title>
<path fill="none" stroke="#191970" d="M595.1958,-611.5577C623.7601,-618.1751 658.9368,-625.8999 674,-627.5 740.2937,-634.5421 758.1074,-637.6294 824,-627.5 853.039,-623.036 884.7477,-612.7083 907.8987,-604.0956"/>
<polygon fill="#191970" stroke="#191970" points="909.1627,-607.3595 917.2639,-600.5315 906.6729,-600.8173 909.1627,-607.3595"/>
</g>
<!-- Node11&#45;&gt;Node8 -->
<g id="edge11" class="edge">
<title>Node11&#45;&gt;Node8</title>
<path fill="none" stroke="#191970" d="M618.293,-479.3392C625.5265,-482.7464 632.318,-487.0542 638,-492.5 672.7072,-525.7644 634.7553,-566.7338 674,-594.5 742.8898,-643.2406 848.738,-620.7808 904.3823,-603.6354"/>
<polygon fill="#191970" stroke="#191970" points="905.7044,-606.8875 914.1679,-600.5142 903.5772,-600.2185 905.7044,-606.8875"/>
</g>
<!-- Node12 -->
<g id="node12" class="node">
<title>Node12</title>
<g id="a_node12"><a xlink:href="../../d6/d8a/classgenfit_1_1Track.html#ad8961b1ff4809ccde5f6f100ffbccb9d" target="_top" xlink:title="genfit::Track::getPointWith\lFitterInfo">
<polygon fill="none" stroke="#000000" points="674,-552.5 674,-584.5 824,-584.5 824,-552.5 674,-552.5"/>
<text text-anchor="start" x="682" y="-571.5" font-family="FreeSans" font-size="10.00" fill="#000000">genfit::Track::getPointWith</text>
<text text-anchor="middle" x="749" y="-559.5" font-family="FreeSans" font-size="10.00" fill="#000000">FitterInfo</text>
</a>
</g>
</g>
<!-- Node11&#45;&gt;Node12 -->
<g id="edge12" class="edge">
<title>Node11&#45;&gt;Node12</title>
<path fill="none" stroke="#191970" d="M618.2718,-481.4996C625.2608,-484.5287 631.9994,-488.1571 638,-492.5 660.4759,-508.7669 651.7284,-526.9544 674,-543.5 675.8351,-544.8633 677.7489,-546.155 679.7234,-547.3787"/>
<polygon fill="#191970" stroke="#191970" points="678.264,-550.5704 688.7135,-552.3193 681.6354,-544.4357 678.264,-550.5704"/>
</g>
<!-- Node13 -->
<g id="node13" class="node">
<title>Node13</title>
<g id="a_node13"><a xlink:href="../../d8/db3/classgenfit_1_1Exception.html#a13619975a1e1be5c1bd504b254e01f7a" target="_top" xlink:title="Set fatal flag.">
<polygon fill="none" stroke="#000000" points="695,-501.5 695,-533.5 803,-533.5 803,-501.5 695,-501.5"/>
<text text-anchor="start" x="703" y="-520.5" font-family="FreeSans" font-size="10.00" fill="#000000">genfit::Exception::</text>
<text text-anchor="middle" x="749" y="-508.5" font-family="FreeSans" font-size="10.00" fill="#000000">setFatal</text>
</a>
</g>
</g>
<!-- Node11&#45;&gt;Node13 -->
<g id="edge14" class="edge">
<title>Node11&#45;&gt;Node13</title>
<path fill="none" stroke="#191970" d="M614.7466,-482.5667C637.1303,-488.391 662.4513,-494.9797 685.023,-500.8529"/>
<polygon fill="#191970" stroke="#191970" points="684.2855,-504.2775 694.8446,-503.4086 686.0483,-497.5031 684.2855,-504.2775"/>
</g>
<!-- Node14 -->
<g id="node14" class="node">
<title>Node14</title>
<g id="a_node14"><a xlink:href="../../db/d40/classgenfit_1_1TrackPoint.html#ae8b3e743fb436dd6689e0dad4c35ffd9" target="_top" xlink:title="Get fitterInfo for rep. Per default, use cardinal rep.">
<polygon fill="none" stroke="#000000" points="697,-450.5 697,-482.5 801,-482.5 801,-450.5 697,-450.5"/>
<text text-anchor="start" x="705" y="-469.5" font-family="FreeSans" font-size="10.00" fill="#000000">genfit::TrackPoint</text>
<text text-anchor="middle" x="749" y="-457.5" font-family="FreeSans" font-size="10.00" fill="#000000">::getFitterInfo</text>
</a>
</g>
</g>
<!-- Node11&#45;&gt;Node14 -->
<g id="edge15" class="edge">
<title>Node11&#45;&gt;Node14</title>
<path fill="none" stroke="#191970" d="M618.2652,-466.5C640.2802,-466.5 664.7851,-466.5 686.5752,-466.5"/>
<polygon fill="#191970" stroke="#191970" points="686.7029,-470.0001 696.7029,-466.5 686.7029,-463.0001 686.7029,-470.0001"/>
</g>
<!-- Node15 -->
<g id="node15" class="node">
<title>Node15</title>
<g id="a_node15"><a xlink:href="../../d9/d8c/classgenfit_1_1AbsFitterInfo.html#a985d0203f46dfbd5dc253bb03b21d76f" target="_top" xlink:title="genfit::AbsFitterInfo\l::getFittedState">
<polygon fill="none" stroke="#000000" points="691,-399.5 691,-431.5 807,-431.5 807,-399.5 691,-399.5"/>
<text text-anchor="start" x="699" y="-418.5" font-family="FreeSans" font-size="10.00" fill="#000000">genfit::AbsFitterInfo</text>
<text text-anchor="middle" x="749" y="-406.5" font-family="FreeSans" font-size="10.00" fill="#000000">::getFittedState</text>
</a>
</g>
</g>
<!-- Node11&#45;&gt;Node15 -->
<g id="edge17" class="edge">
<title>Node11&#45;&gt;Node15</title>
<path fill="none" stroke="#191970" d="M614.7466,-450.4333C635.8622,-444.9389 659.5918,-438.7644 681.1615,-433.1519"/>
<polygon fill="#191970" stroke="#191970" points="682.1064,-436.5226 690.9027,-430.6172 680.3436,-429.7482 682.1064,-436.5226"/>
</g>
<!-- Node12&#45;&gt;Node8 -->
<g id="edge13" class="edge">
<title>Node12&#45;&gt;Node8</title>
<path fill="none" stroke="#191970" d="M824.2526,-577.1003C832.6656,-578.0618 841.3035,-579.049 849.8921,-580.0305"/>
<polygon fill="#191970" stroke="#191970" points="849.6024,-583.5201 859.9352,-581.1783 850.3973,-576.5654 849.6024,-583.5201"/>
</g>
<!-- Node14&#45;&gt;Node8 -->
<g id="edge16" class="edge">
<title>Node14&#45;&gt;Node8</title>
<path fill="none" stroke="#191970" d="M801.31,-481.8862C809.1221,-484.9617 816.9215,-488.4993 824,-492.5 863.7501,-514.9663 903.0939,-551.4452 924.656,-572.9905"/>
<polygon fill="#191970" stroke="#191970" points="922.25,-575.5354 931.7633,-580.199 927.2347,-570.6208 922.25,-575.5354"/>
</g>
<!-- Node17 -->
<g id="node17" class="node">
<title>Node17</title>
<g id="a_node17"><a xlink:href="../../de/dd5/classgenfit_1_1StateOnPlane.html#a14f25e4575846dcb14bd91ddb2a534d2" target="_top" xlink:title="genfit::StateOnPlane\l::getRep">
<polygon fill="none" stroke="#000000" points="688.5,-348.5 688.5,-380.5 809.5,-380.5 809.5,-348.5 688.5,-348.5"/>
<text text-anchor="start" x="696.5" y="-367.5" font-family="FreeSans" font-size="10.00" fill="#000000">genfit::StateOnPlane</text>
<text text-anchor="middle" x="749" y="-355.5" font-family="FreeSans" font-size="10.00" fill="#000000">::getRep</text>
</a>
</g>
</g>
<!-- Node16&#45;&gt;Node17 -->
<g id="edge19" class="edge">
<title>Node16&#45;&gt;Node17</title>
<path fill="none" stroke="#191970" d="M614.7466,-399.4333C634.9922,-394.1653 657.6407,-388.2721 678.4845,-382.8484"/>
<polygon fill="#191970" stroke="#191970" points="679.4388,-386.2167 688.2351,-380.3113 677.676,-379.4423 679.4388,-386.2167"/>
</g>
<!-- Node18 -->
<g id="node18" class="node">
<title>Node18</title>
<g id="a_node18"><a xlink:href="../../d1/d25/classgenfit_1_1AbsTrackRep.html#ae6f4c4eeb3e4fbadcc930f53e2ca4ad7" target="_top" xlink:title="Translates MeasuredStateOnPlane into 3D position, momentum and 6x6 covariance.">
<polygon fill="none" stroke="#000000" points="690.5,-297.5 690.5,-329.5 807.5,-329.5 807.5,-297.5 690.5,-297.5"/>
<text text-anchor="start" x="698.5" y="-316.5" font-family="FreeSans" font-size="10.00" fill="#000000">genfit::AbsTrackRep</text>
<text text-anchor="middle" x="749" y="-304.5" font-family="FreeSans" font-size="10.00" fill="#000000">::getPosMomCov</text>
</a>
</g>
</g>
<!-- Node16&#45;&gt;Node18 -->
<g id="edge20" class="edge">
<title>Node16&#45;&gt;Node18</title>
<path fill="none" stroke="#191970" d="M622.5962,-399.3887C628.0313,-396.8439 633.2465,-393.9014 638,-390.5 660.5633,-374.3546 651.8277,-356.1783 674,-339.5 676.4539,-337.6542 679.0487,-335.9327 681.7414,-334.3279"/>
<polygon fill="#191970" stroke="#191970" points="683.446,-337.3855 690.6214,-329.5903 680.151,-331.2095 683.446,-337.3855"/>
</g>
<!-- Node23 -->
<g id="node23" class="node">
<title>Node23</title>
<g id="a_node23"><a xlink:href="../../de/d82/namespacerelease.html#a44eacb239a3470341e19e7cef690bcbf" target="_top" xlink:title="release.get_current\l_branch">
<polygon fill="none" stroke="#000000" points="691.5,-246.5 691.5,-278.5 806.5,-278.5 806.5,-246.5 691.5,-246.5"/>
<text text-anchor="start" x="699.5" y="-265.5" font-family="FreeSans" font-size="10.00" fill="#000000">release.get_current</text>
<text text-anchor="middle" x="749" y="-253.5" font-family="FreeSans" font-size="10.00" fill="#000000">_branch</text>
</a>
</g>
</g>
<!-- Node22&#45;&gt;Node23 -->
<g id="edge25" class="edge">
<title>Node22&#45;&gt;Node23</title>
<path fill="none" stroke="#191970" d="M566.1385,-169.5574C587.6842,-185.6755 632.3086,-217.5061 674,-237.5 677.7591,-239.3027 681.682,-241.0297 685.677,-242.6733"/>
<polygon fill="#191970" stroke="#191970" points="684.4982,-245.9704 695.0861,-246.3541 687.0484,-239.4515 684.4982,-245.9704"/>
</g>
<!-- Node24 -->
<g id="node24" class="node">
<title>Node24</title>
<g id="a_node24"><a xlink:href="../../de/d82/namespacerelease.html#a23ccb4765230c4db38ba2dd5320597ce" target="_top" xlink:title="release.split_version">
<polygon fill="none" stroke="#000000" points="689.5,-207.5 689.5,-227.5 808.5,-227.5 808.5,-207.5 689.5,-207.5"/>
<text text-anchor="middle" x="749" y="-214.5" font-family="FreeSans" font-size="10.00" fill="#000000">release.split_version</text>
</a>
</g>
</g>
<!-- Node22&#45;&gt;Node24 -->
<g id="edge26" class="edge">
<title>Node22&#45;&gt;Node24</title>
<path fill="none" stroke="#191970" d="M582.6736,-169.6476C607.07,-177.8495 642.6064,-189.4741 674,-198.5 681.5337,-200.666 689.5302,-202.8319 697.387,-204.8851"/>
<polygon fill="#191970" stroke="#191970" points="696.6619,-208.3125 707.2188,-207.4171 698.4077,-201.5337 696.6619,-208.3125"/>
</g>
<!-- Node25 -->
<g id="node25" class="node">
<title>Node25</title>
<g id="a_node25"><a xlink:href="../../de/d82/namespacerelease.html#ade2f0fa1de108c5a0879b42a5876362e" target="_top" xlink:title="release.format_version">
<polygon fill="none" stroke="#000000" points="683,-168.5 683,-188.5 815,-188.5 815,-168.5 683,-168.5"/>
<text text-anchor="middle" x="749" y="-175.5" font-family="FreeSans" font-size="10.00" fill="#000000">release.format_version</text>
</a>
</g>
</g>
<!-- Node22&#45;&gt;Node25 -->
<g id="edge27" class="edge">
<title>Node22&#45;&gt;Node25</title>
<path fill="none" stroke="#191970" d="M589.4068,-163.0292C612.7779,-165.2948 644.0087,-168.3223 672.6442,-171.0982"/>
<polygon fill="#191970" stroke="#191970" points="672.3565,-174.5866 682.6476,-172.0679 673.032,-167.6193 672.3565,-174.5866"/>
</g>
<!-- Node26 -->
<g id="node26" class="node">
<title>Node26</title>
<g id="a_node26"><a xlink:href="../../d6/d72/namespaceutil.html#ac8015eb2508544e525f64f4bd01fd5d8" target="_top" xlink:title="util.Spinner">
<polygon fill="none" stroke="#000000" points="904,-107.5 904,-127.5 979,-127.5 979,-107.5 904,-107.5"/>
<text text-anchor="middle" x="941.5" y="-114.5" font-family="FreeSans" font-size="10.00" fill="#000000">util.Spinner</text>
</a>
</g>
</g>
<!-- Node22&#45;&gt;Node26 -->
<g id="edge28" class="edge">
<title>Node22&#45;&gt;Node26</title>
<path fill="none" stroke="#191970" d="M589.2003,-155.5865C659.5978,-147.9759 814.9268,-131.1836 893.6934,-122.6683"/>
<polygon fill="#191970" stroke="#191970" points="894.2593,-126.1276 903.8252,-121.573 893.5069,-119.1681 894.2593,-126.1276"/>
</g>
<!-- Node27 -->
<g id="node27" class="node">
<title>Node27</title>
<g id="a_node27"><a xlink:href="../../de/d82/namespacerelease.html#a6389d77b4d19ef3218eec0ddc3b0db0f" target="_top" xlink:title="release.check_branch\l_exists">
<polygon fill="none" stroke="#000000" points="686,-78.5 686,-110.5 812,-110.5 812,-78.5 686,-78.5"/>
<text text-anchor="start" x="694" y="-97.5" font-family="FreeSans" font-size="10.00" fill="#000000">release.check_branch</text>
<text text-anchor="middle" x="749" y="-85.5" font-family="FreeSans" font-size="10.00" fill="#000000">_exists</text>
</a>
</g>
</g>
<!-- Node22&#45;&gt;Node27 -->
<g id="edge29" class="edge">
<title>Node22&#45;&gt;Node27</title>
<path fill="none" stroke="#191970" d="M583.1955,-149.4862C611.7582,-140.0139 655.3935,-125.543 690.7314,-113.8238"/>
<polygon fill="#191970" stroke="#191970" points="692.0692,-117.0676 700.4591,-110.5977 689.8657,-110.4235 692.0692,-117.0676"/>
</g>
<!-- Node28 -->
<g id="node28" class="node">
<title>Node28</title>
<g id="a_node28"><a xlink:href="../../dd/d94/fun4all__tutorials_2blob_2master_2materialscan_2matscan_8C.html#a388f572c62279f839ee138a9afbdeeb5" target="_top" xlink:title="print">
<polygon fill="none" stroke="#000000" points="729,-39.5 729,-59.5 769,-59.5 769,-39.5 729,-39.5"/>
<text text-anchor="middle" x="749" y="-46.5" font-family="FreeSans" font-size="10.00" fill="#000000">print</text>
</a>
</g>
</g>
<!-- Node22&#45;&gt;Node28 -->
<g id="edge31" class="edge">
<title>Node22&#45;&gt;Node28</title>
<path fill="none" stroke="#191970" d="M563.7325,-149.2472C583.78,-130.6457 628.9743,-91.2534 674,-69.5 688.0204,-62.7263 704.6635,-57.9929 718.7056,-54.8379"/>
<polygon fill="#191970" stroke="#191970" points="719.7737,-58.1906 728.8501,-52.7253 718.3465,-51.3376 719.7737,-58.1906"/>
</g>
<!-- Node29 -->
<g id="node29" class="node">
<title>Node29</title>
<g id="a_node29"><a xlink:href="../../de/d82/namespacerelease.html#a831d8ad05fd79f8b6986a6bcea97c138" target="_top" xlink:title="release.confirm">
<polygon fill="none" stroke="#000000" points="702,-.5 702,-20.5 796,-20.5 796,-.5 702,-.5"/>
<text text-anchor="middle" x="749" y="-7.5" font-family="FreeSans" font-size="10.00" fill="#000000">release.confirm</text>
</a>
</g>
</g>
<!-- Node22&#45;&gt;Node29 -->
<g id="edge32" class="edge">
<title>Node22&#45;&gt;Node29</title>
<path fill="none" stroke="#191970" d="M559.5326,-149.3158C575.7645,-124.8627 620.5039,-62.4941 674,-30.5 679.5405,-27.1864 685.6338,-24.4126 691.879,-22.0926"/>
<polygon fill="#191970" stroke="#191970" points="693.3748,-25.2838 701.7602,-18.8081 691.1667,-18.6412 693.3748,-25.2838"/>
</g>
<!-- Node27&#45;&gt;Node26 -->
<g id="edge30" class="edge">
<title>Node27&#45;&gt;Node26</title>
<path fill="none" stroke="#191970" d="M812.0317,-102.0311C838.6083,-105.2064 869.0362,-108.842 893.7133,-111.7904"/>
<polygon fill="#191970" stroke="#191970" points="893.5646,-115.2975 903.9092,-113.0086 894.3951,-108.3469 893.5646,-115.2975"/>
</g>
</g>
</svg>
