<?xml version="1.0" encoding="UTF-8" standalone="no"?>
<!DOCTYPE svg PUBLIC "-//W3C//DTD SVG 1.1//EN"
 "http://www.w3.org/Graphics/SVG/1.1/DTD/svg11.dtd">
<!-- Generated by graphviz version 2.40.1 (20161225.0304)
 -->
<!-- Title: fun4all_acts/blob/master/Core/include/Acts/Geometry/CuboidVolumeBuilder.hpp Pages: 1 -->
<svg width="775pt" height="236pt"
 viewBox="0.00 0.00 775.00 236.00" xmlns="http://www.w3.org/2000/svg" xmlns:xlink="http://www.w3.org/1999/xlink">
<g id="graph0" class="graph" transform="scale(1 1) rotate(0) translate(4 232)">
<title>fun4all_acts/blob/master/Core/include/Acts/Geometry/CuboidVolumeBuilder.hpp</title>
<!-- Node1 -->
<g id="node1" class="node">
<title>Node1</title>
<polygon fill="#bfbfbf" stroke="#000000" points="236.5,-183.5 236.5,-227.5 399.5,-227.5 399.5,-183.5 236.5,-183.5"/>
<text text-anchor="start" x="244.5" y="-214.5" font-family="FreeSans" font-size="10.00" fill="#000000">fun4all_acts/blob/master</text>
<text text-anchor="start" x="244.5" y="-202.5" font-family="FreeSans" font-size="10.00" fill="#000000">/Core/include/Acts/Geometry</text>
<text text-anchor="middle" x="318" y="-190.5" font-family="FreeSans" font-size="10.00" fill="#000000">/CuboidVolumeBuilder.hpp</text>
</g>
<!-- Node2 -->
<g id="node2" class="node">
<title>Node2</title>
<polygon fill="none" stroke="#bfbfbf" points="0,-120.5 0,-140.5 66,-140.5 66,-120.5 0,-120.5"/>
<text text-anchor="middle" x="33" y="-127.5" font-family="FreeSans" font-size="10.00" fill="#000000">functional</text>
</g>
<!-- Node1&#45;&gt;Node2 -->
<g id="edge1" class="edge">
<title>Node1&#45;&gt;Node2</title>
<path fill="none" stroke="#191970" d="M236.2309,-188.7708C188.7245,-178.3195 127.9745,-163.6945 75,-147 72.1046,-146.0875 69.1235,-145.0733 66.1489,-144.0089"/>
<polygon fill="#191970" stroke="#191970" points="67.3752,-140.7308 56.7828,-140.502 64.9205,-147.2864 67.3752,-140.7308"/>
</g>
<!-- Node3 -->
<g id="node3" class="node">
<title>Node3</title>
<polygon fill="none" stroke="#bfbfbf" points="312,-57.5 312,-77.5 370,-77.5 370,-57.5 312,-57.5"/>
<text text-anchor="middle" x="341" y="-64.5" font-family="FreeSans" font-size="10.00" fill="#000000">memory</text>
</g>
<!-- Node1&#45;&gt;Node3 -->
<g id="edge2" class="edge">
<title>Node1&#45;&gt;Node3</title>
<path fill="none" stroke="#191970" d="M321.6953,-183.3279C326.0978,-156.9131 333.3896,-113.1622 337.6392,-87.6647"/>
<polygon fill="#191970" stroke="#191970" points="341.115,-88.0991 339.3067,-77.6597 334.2103,-86.9482 341.115,-88.0991"/>
</g>
<!-- Node4 -->
<g id="node4" class="node">
<title>Node4</title>
<polygon fill="none" stroke="#bfbfbf" points="244.5,-57.5 244.5,-77.5 293.5,-77.5 293.5,-57.5 244.5,-57.5"/>
<text text-anchor="middle" x="269" y="-64.5" font-family="FreeSans" font-size="10.00" fill="#000000">vector</text>
</g>
<!-- Node1&#45;&gt;Node4 -->
<g id="edge3" class="edge">
<title>Node1&#45;&gt;Node4</title>
<path fill="none" stroke="#191970" d="M310.1273,-183.3279C300.7061,-156.7947 285.0739,-112.7694 276.0385,-87.3228"/>
<polygon fill="#191970" stroke="#191970" points="279.2518,-85.9122 272.6074,-77.6597 272.6553,-88.2544 279.2518,-85.9122"/>
</g>
<!-- Node5 -->
<g id="node5" class="node">
<title>Node5</title>
<g id="a_node5"><a xlink:href="../../d1/db8/GeometryContext_8hpp.html" target="_top" xlink:title="Acts/Geometry/GeometryContext.hpp">
<polygon fill="none" stroke="#000000" points="448,-57.5 448,-77.5 656,-77.5 656,-57.5 448,-57.5"/>
<text text-anchor="middle" x="552" y="-64.5" font-family="FreeSans" font-size="10.00" fill="#000000">Acts/Geometry/GeometryContext.hpp</text>
</a>
</g>
</g>
<!-- Node1&#45;&gt;Node5 -->
<g id="edge4" class="edge">
<title>Node1&#45;&gt;Node5</title>
<path fill="none" stroke="#191970" d="M399.667,-192.1625C452.2876,-181.9474 514.2534,-166.3383 533,-147 548.2238,-131.2957 552.0033,-105.684 552.6006,-87.7873"/>
<polygon fill="#191970" stroke="#191970" points="556.1011,-87.5701 552.6287,-77.5605 549.1011,-87.5508 556.1011,-87.5701"/>
</g>
<!-- Node7 -->
<g id="node7" class="node">
<title>Node7</title>
<g id="a_node7"><a xlink:href="../../dd/dc9/ITrackingVolumeBuilder_8hpp.html" target="_top" xlink:title="Acts/Geometry/ITrackingVolume\lBuilder.hpp">
<polygon fill="none" stroke="#000000" points="346,-114.5 346,-146.5 524,-146.5 524,-114.5 346,-114.5"/>
<text text-anchor="start" x="354" y="-133.5" font-family="FreeSans" font-size="10.00" fill="#000000">Acts/Geometry/ITrackingVolume</text>
<text text-anchor="middle" x="435" y="-121.5" font-family="FreeSans" font-size="10.00" fill="#000000">Builder.hpp</text>
</a>
</g>
</g>
<!-- Node1&#45;&gt;Node7 -->
<g id="edge6" class="edge">
<title>Node1&#45;&gt;Node7</title>
<path fill="none" stroke="#191970" d="M352.471,-183.4032C367.7976,-173.5785 385.7875,-162.0465 401.0526,-152.2612"/>
<polygon fill="#191970" stroke="#191970" points="403.1548,-155.071 409.6848,-146.7277 399.3771,-149.1778 403.1548,-155.071"/>
</g>
<!-- Node9 -->
<g id="node9" class="node">
<title>Node9</title>
<g id="a_node9"><a xlink:href="../../de/d09/BinningType_8hpp.html" target="_top" xlink:title="Acts/Utilities/BinningType.hpp">
<polygon fill="none" stroke="#000000" points="84,-120.5 84,-140.5 252,-140.5 252,-120.5 84,-120.5"/>
<text text-anchor="middle" x="168" y="-127.5" font-family="FreeSans" font-size="10.00" fill="#000000">Acts/Utilities/BinningType.hpp</text>
</a>
</g>
</g>
<!-- Node1&#45;&gt;Node9 -->
<g id="edge11" class="edge">
<title>Node1&#45;&gt;Node9</title>
<path fill="none" stroke="#191970" d="M273.8064,-183.4032C249.115,-171.0575 219.0318,-156.0159 197.2638,-145.1319"/>
<polygon fill="#191970" stroke="#191970" points="198.7003,-141.937 188.1907,-140.5954 195.5697,-148.198 198.7003,-141.937"/>
</g>
<!-- Node11 -->
<g id="node11" class="node">
<title>Node11</title>
<g id="a_node11"><a xlink:href="../../d6/d1d/Definitions_8hpp.html" target="_top" xlink:title="Acts/Utilities/Definitions.hpp">
<polygon fill="none" stroke="#000000" points="607,-120.5 607,-140.5 767,-140.5 767,-120.5 607,-120.5"/>
<text text-anchor="middle" x="687" y="-127.5" font-family="FreeSans" font-size="10.00" fill="#000000">Acts/Utilities/Definitions.hpp</text>
</a>
</g>
</g>
<!-- Node1&#45;&gt;Node11 -->
<g id="edge14" class="edge">
<title>Node1&#45;&gt;Node11</title>
<path fill="none" stroke="#191970" d="M399.8931,-188.8551C468.88,-174.8333 565.9303,-155.1077 627.6445,-142.5641"/>
<polygon fill="#191970" stroke="#191970" points="628.5095,-145.96 637.6119,-140.5382 627.1151,-139.1002 628.5095,-145.96"/>
</g>
<!-- Node6 -->
<g id="node6" class="node">
<title>Node6</title>
<polygon fill="none" stroke="#bfbfbf" points="534.5,-.5 534.5,-20.5 569.5,-20.5 569.5,-.5 534.5,-.5"/>
<text text-anchor="middle" x="552" y="-7.5" font-family="FreeSans" font-size="10.00" fill="#000000">any</text>
</g>
<!-- Node5&#45;&gt;Node6 -->
<g id="edge5" class="edge">
<title>Node5&#45;&gt;Node6</title>
<path fill="none" stroke="#191970" d="M552,-57.3095C552,-49.9335 552,-39.72 552,-30.715"/>
<polygon fill="#191970" stroke="#191970" points="555.5001,-30.6022 552,-20.6022 548.5001,-30.6023 555.5001,-30.6022"/>
</g>
<!-- Node7&#45;&gt;Node3 -->
<g id="edge7" class="edge">
<title>Node7&#45;&gt;Node3</title>
<path fill="none" stroke="#191970" d="M410.7927,-114.2759C396.6026,-104.7655 378.7551,-92.8039 364.6605,-83.3576"/>
<polygon fill="#191970" stroke="#191970" points="366.2719,-80.2242 356.0164,-77.5642 362.3747,-86.039 366.2719,-80.2242"/>
</g>
<!-- Node7&#45;&gt;Node4 -->
<g id="edge9" class="edge">
<title>Node7&#45;&gt;Node4</title>
<path fill="none" stroke="#191970" d="M392.6817,-114.4394C364.9142,-103.9012 329.0761,-90.3 303.1319,-80.4537"/>
<polygon fill="#191970" stroke="#191970" points="304.3016,-77.1541 293.7104,-76.878 301.8178,-83.6986 304.3016,-77.1541"/>
</g>
<!-- Node7&#45;&gt;Node5 -->
<g id="edge10" class="edge">
<title>Node7&#45;&gt;Node5</title>
<path fill="none" stroke="#191970" d="M464.8268,-114.4394C483.1607,-104.5673 506.4864,-92.0073 524.395,-82.3643"/>
<polygon fill="#191970" stroke="#191970" points="526.0657,-85.4398 533.2111,-77.6171 522.747,-79.2765 526.0657,-85.4398"/>
</g>
<!-- Node8 -->
<g id="node8" class="node">
<title>Node8</title>
<polygon fill="none" stroke="#bfbfbf" points="388,-57.5 388,-77.5 430,-77.5 430,-57.5 388,-57.5"/>
<text text-anchor="middle" x="409" y="-64.5" font-family="FreeSans" font-size="10.00" fill="#000000">tuple</text>
</g>
<!-- Node7&#45;&gt;Node8 -->
<g id="edge8" class="edge">
<title>Node7&#45;&gt;Node8</title>
<path fill="none" stroke="#191970" d="M428.3044,-114.2759C424.887,-105.9954 420.7028,-95.8567 417.1045,-87.1378"/>
<polygon fill="#191970" stroke="#191970" points="420.2809,-85.6598 413.2307,-77.7513 413.8103,-88.3302 420.2809,-85.6598"/>
</g>
<!-- Node9&#45;&gt;Node4 -->
<g id="edge13" class="edge">
<title>Node9&#45;&gt;Node4</title>
<path fill="none" stroke="#191970" d="M184.2274,-120.378C200.4246,-110.2747 225.5282,-94.6161 244.2194,-82.9572"/>
<polygon fill="#191970" stroke="#191970" points="246.1805,-85.8591 252.8129,-77.5969 242.4758,-79.9198 246.1805,-85.8591"/>
</g>
<!-- Node10 -->
<g id="node10" class="node">
<title>Node10</title>
<polygon fill="none" stroke="#bfbfbf" points="145.5,-57.5 145.5,-77.5 190.5,-77.5 190.5,-57.5 145.5,-57.5"/>
<text text-anchor="middle" x="168" y="-64.5" font-family="FreeSans" font-size="10.00" fill="#000000">string</text>
</g>
<!-- Node9&#45;&gt;Node10 -->
<g id="edge12" class="edge">
<title>Node9&#45;&gt;Node10</title>
<path fill="none" stroke="#191970" d="M168,-120.378C168,-111.7041 168,-98.9355 168,-88.1186"/>
<polygon fill="#191970" stroke="#191970" points="171.5001,-87.8062 168,-77.8062 164.5001,-87.8062 171.5001,-87.8062"/>
</g>
<!-- Node12 -->
<g id="node12" class="node">
<title>Node12</title>
<polygon fill="none" stroke="#bfbfbf" points="674,-57.5 674,-77.5 754,-77.5 754,-57.5 674,-57.5"/>
<text text-anchor="middle" x="714" y="-64.5" font-family="FreeSans" font-size="10.00" fill="#000000">Eigen/Dense</text>
</g>
<!-- Node11&#45;&gt;Node12 -->
<g id="edge15" class="edge">
<title>Node11&#45;&gt;Node12</title>
<path fill="none" stroke="#191970" d="M691.338,-120.378C695.1728,-111.4302 700.875,-98.125 705.6001,-87.0999"/>
<polygon fill="#191970" stroke="#191970" points="708.8608,-88.3764 709.5831,-77.8062 702.4268,-85.6189 708.8608,-88.3764"/>
</g>
</g>
</svg>
