<?xml version="1.0" encoding="UTF-8" standalone="no"?>
<!DOCTYPE svg PUBLIC "-//W3C//DTD SVG 1.1//EN"
 "http://www.w3.org/Graphics/SVG/1.1/DTD/svg11.dtd">
<!-- Generated by graphviz version 2.40.1 (20161225.0304)
 -->
<!-- Title: PHNodeIterator::ls Pages: 1 -->
<svg width="751pt" height="1544pt"
 viewBox="0.00 0.00 751.00 1544.00" xmlns="http://www.w3.org/2000/svg" xmlns:xlink="http://www.w3.org/1999/xlink">
<g id="graph0" class="graph" transform="scale(1 1) rotate(0) translate(4 1540)">
<title>PHNodeIterator::ls</title>
<!-- Node1 -->
<g id="node1" class="node">
<title>Node1</title>
<polygon fill="#bfbfbf" stroke="#000000" points="0,-699.5 0,-719.5 108,-719.5 108,-699.5 0,-699.5"/>
<text text-anchor="middle" x="54" y="-706.5" font-family="FreeSans" font-size="10.00" fill="#000000">PHNodeIterator::ls</text>
</g>
<!-- Node2 -->
<g id="node2" class="node">
<title>Node2</title>
<g id="a_node2"><a xlink:href="../../da/d29/classFun4AllServer.html#a3654ebdcb099bcc5c820df6d4952663c" target="_top" xlink:title="Fun4AllServer::CountOutNodes\lRecursive">
<polygon fill="none" stroke="#000000" points="144,-831.5 144,-863.5 317,-863.5 317,-831.5 144,-831.5"/>
<text text-anchor="start" x="152" y="-850.5" font-family="FreeSans" font-size="10.00" fill="#000000">Fun4AllServer::CountOutNodes</text>
<text text-anchor="middle" x="230.5" y="-838.5" font-family="FreeSans" font-size="10.00" fill="#000000">Recursive</text>
</a>
</g>
</g>
<!-- Node1&#45;&gt;Node2 -->
<g id="edge1" class="edge">
<title>Node1&#45;&gt;Node2</title>
<path fill="none" stroke="#191970" d="M72.548,-726.2602C90.4524,-742.2231 118.5211,-766.6865 144,-786.5 164.4535,-802.4055 188.6168,-819.2951 206.1986,-831.2596"/>
<polygon fill="#191970" stroke="#191970" points="74.866,-723.6377 65.0827,-719.5713 70.1948,-728.8512 74.866,-723.6377"/>
</g>
<!-- Node5 -->
<g id="node5" class="node">
<title>Node5</title>
<g id="a_node5"><a xlink:href="../../da/d29/classFun4AllServer.html#ac9e5b55796d46d41f6f0ec9e3422959a" target="_top" xlink:title="Fun4AllServer::MakeNodes\lPersistent">
<polygon fill="none" stroke="#000000" points="154.5,-693.5 154.5,-725.5 306.5,-725.5 306.5,-693.5 154.5,-693.5"/>
<text text-anchor="start" x="162.5" y="-712.5" font-family="FreeSans" font-size="10.00" fill="#000000">Fun4AllServer::MakeNodes</text>
<text text-anchor="middle" x="230.5" y="-700.5" font-family="FreeSans" font-size="10.00" fill="#000000">Persistent</text>
</a>
</g>
</g>
<!-- Node1&#45;&gt;Node5 -->
<g id="edge4" class="edge">
<title>Node1&#45;&gt;Node5</title>
<path fill="none" stroke="#191970" d="M118.4392,-709.5C130.0678,-709.5 142.2927,-709.5 154.2203,-709.5"/>
<polygon fill="#191970" stroke="#191970" points="118.396,-706.0001 108.396,-709.5 118.396,-713.0001 118.396,-706.0001"/>
</g>
<!-- Node8 -->
<g id="node8" class="node">
<title>Node8</title>
<g id="a_node8"><a xlink:href="../../da/d29/classFun4AllServer.html#a92c6fe0e0c19c48d2b1f9d0f63c12bbe" target="_top" xlink:title="Fun4AllServer::MakeNodes\lTransient">
<polygon fill="none" stroke="#000000" points="154.5,-744.5 154.5,-776.5 306.5,-776.5 306.5,-744.5 154.5,-744.5"/>
<text text-anchor="start" x="162.5" y="-763.5" font-family="FreeSans" font-size="10.00" fill="#000000">Fun4AllServer::MakeNodes</text>
<text text-anchor="middle" x="230.5" y="-751.5" font-family="FreeSans" font-size="10.00" fill="#000000">Transient</text>
</a>
</g>
</g>
<!-- Node1&#45;&gt;Node8 -->
<g id="edge7" class="edge">
<title>Node1&#45;&gt;Node8</title>
<path fill="none" stroke="#191970" d="M98.7593,-722.4333C121.8872,-729.1161 150.3287,-737.3343 174.8587,-744.4223"/>
<polygon fill="#191970" stroke="#191970" points="99.4493,-718.9895 88.8707,-719.576 97.5061,-725.7144 99.4493,-718.9895"/>
</g>
<!-- Node47 -->
<g id="node47" class="node">
<title>Node47</title>
<g id="a_node47"><a xlink:href="../../df/df1/classPHG4DstCompressReco.html#ac7416ba5fa41828ae966d4bc7a2b5682" target="_top" xlink:title="PHG4DstCompressReco\l::SearchG4HitNodes">
<polygon fill="none" stroke="#000000" points="163,-642.5 163,-674.5 298,-674.5 298,-642.5 163,-642.5"/>
<text text-anchor="start" x="171" y="-661.5" font-family="FreeSans" font-size="10.00" fill="#000000">PHG4DstCompressReco</text>
<text text-anchor="middle" x="230.5" y="-649.5" font-family="FreeSans" font-size="10.00" fill="#000000">::SearchG4HitNodes</text>
</a>
</g>
</g>
<!-- Node1&#45;&gt;Node47 -->
<g id="edge49" class="edge">
<title>Node1&#45;&gt;Node47</title>
<path fill="none" stroke="#191970" d="M98.7593,-696.5667C121.8872,-689.8839 150.3287,-681.6657 174.8587,-674.5777"/>
<polygon fill="#191970" stroke="#191970" points="97.5061,-693.2856 88.8707,-699.424 99.4493,-700.0105 97.5061,-693.2856"/>
</g>
<!-- Node49 -->
<g id="node49" class="node">
<title>Node49</title>
<g id="a_node49"><a xlink:href="../../dd/d9d/classPHG4TruthEventAction.html#a8140dbcb21650639a4d51d11cd23951b" target="_top" xlink:title="PHG4TruthEventAction\l::SearchNode">
<polygon fill="none" stroke="#000000" points="165.5,-591.5 165.5,-623.5 295.5,-623.5 295.5,-591.5 165.5,-591.5"/>
<text text-anchor="start" x="173.5" y="-610.5" font-family="FreeSans" font-size="10.00" fill="#000000">PHG4TruthEventAction</text>
<text text-anchor="middle" x="230.5" y="-598.5" font-family="FreeSans" font-size="10.00" fill="#000000">::SearchNode</text>
</a>
</g>
</g>
<!-- Node1&#45;&gt;Node49 -->
<g id="edge51" class="edge">
<title>Node1&#45;&gt;Node49</title>
<path fill="none" stroke="#191970" d="M69.8514,-692.1467C86.6718,-674.7147 114.806,-648.2421 144,-632.5 150.6044,-628.9388 157.7732,-625.8341 165.0625,-623.14"/>
<polygon fill="#191970" stroke="#191970" points="67.2771,-689.7751 62.9561,-699.4488 72.3666,-694.5811 67.2771,-689.7751"/>
</g>
<!-- Node3 -->
<g id="node3" class="node">
<title>Node3</title>
<g id="a_node3"><a xlink:href="../../da/d29/classFun4AllServer.html#a6f3f13c3a8b5c29457e694ba910296aa" target="_top" xlink:title="Fun4AllServer::CountOutNodes">
<polygon fill="none" stroke="#000000" points="353,-1350.5 353,-1370.5 526,-1370.5 526,-1350.5 353,-1350.5"/>
<text text-anchor="middle" x="439.5" y="-1357.5" font-family="FreeSans" font-size="10.00" fill="#000000">Fun4AllServer::CountOutNodes</text>
</a>
</g>
</g>
<!-- Node2&#45;&gt;Node3 -->
<g id="edge2" class="edge">
<title>Node2&#45;&gt;Node3</title>
<path fill="none" stroke="#191970" d="M239.2649,-873.2391C258.449,-929.0526 306.1949,-1065.1577 353,-1176.5 381.3153,-1243.8579 420.3952,-1322.5891 434.3181,-1350.2606"/>
<polygon fill="#191970" stroke="#191970" points="242.5748,-872.1012 236.0219,-863.776 235.9529,-874.3706 242.5748,-872.1012"/>
</g>
<!-- Node4 -->
<g id="node4" class="node">
<title>Node4</title>
<g id="a_node4"><a xlink:href="../../da/d29/classFun4AllServer.html#a6a65a944dfb40966ace97d35ab1f7942" target="_top" xlink:title="Fun4AllServer::process\l_event">
<polygon fill="none" stroke="#ff0000" points="586.5,-1503.5 586.5,-1535.5 718.5,-1535.5 718.5,-1503.5 586.5,-1503.5"/>
<text text-anchor="start" x="594.5" y="-1522.5" font-family="FreeSans" font-size="10.00" fill="#000000">Fun4AllServer::process</text>
<text text-anchor="middle" x="652.5" y="-1510.5" font-family="FreeSans" font-size="10.00" fill="#000000">_event</text>
</a>
</g>
</g>
<!-- Node3&#45;&gt;Node4 -->
<g id="edge3" class="edge">
<title>Node3&#45;&gt;Node4</title>
<path fill="none" stroke="#191970" d="M451.3602,-1379.1074C470.8665,-1408.18 512.5312,-1464.1798 562,-1494.5 569.5047,-1499.0997 577.8701,-1502.8713 586.3992,-1505.9595"/>
<polygon fill="#191970" stroke="#191970" points="454.2401,-1377.1167 445.8237,-1370.6812 448.3899,-1380.9605 454.2401,-1377.1167"/>
</g>
<!-- Node6 -->
<g id="node6" class="node">
<title>Node6</title>
<g id="a_node6"><a xlink:href="../../da/daa/classFun4AllDstOutputManager.html#aa4b5b519c6db1540d03007c8c21436fc" target="_top" xlink:title="write starting from given node">
<polygon fill="none" stroke="#000000" points="364.5,-693.5 364.5,-725.5 514.5,-725.5 514.5,-693.5 364.5,-693.5"/>
<text text-anchor="start" x="372.5" y="-712.5" font-family="FreeSans" font-size="10.00" fill="#000000">Fun4AllDstOutputManager</text>
<text text-anchor="middle" x="439.5" y="-700.5" font-family="FreeSans" font-size="10.00" fill="#000000">::Write</text>
</a>
</g>
</g>
<!-- Node5&#45;&gt;Node6 -->
<g id="edge5" class="edge">
<title>Node5&#45;&gt;Node6</title>
<path fill="none" stroke="#191970" d="M316.7877,-709.5C332.5227,-709.5 348.8262,-709.5 364.2112,-709.5"/>
<polygon fill="#191970" stroke="#191970" points="316.5451,-706.0001 306.545,-709.5 316.545,-713.0001 316.5451,-706.0001"/>
</g>
<!-- Node7 -->
<g id="node7" class="node">
<title>Node7</title>
<g id="a_node7"><a xlink:href="../../da/daa/classFun4AllDstOutputManager.html#ac839ec7d93dd52ca363c8307fa88cb94" target="_top" xlink:title="write specified node">
<polygon fill="none" stroke="#000000" points="364.5,-744.5 364.5,-776.5 514.5,-776.5 514.5,-744.5 364.5,-744.5"/>
<text text-anchor="start" x="372.5" y="-763.5" font-family="FreeSans" font-size="10.00" fill="#000000">Fun4AllDstOutputManager</text>
<text text-anchor="middle" x="439.5" y="-751.5" font-family="FreeSans" font-size="10.00" fill="#000000">::WriteNode</text>
</a>
</g>
</g>
<!-- Node5&#45;&gt;Node7 -->
<g id="edge6" class="edge">
<title>Node5&#45;&gt;Node7</title>
<path fill="none" stroke="#191970" d="M306.324,-728.0025C328.366,-733.3812 352.253,-739.2101 373.63,-744.4264"/>
<polygon fill="#191970" stroke="#191970" points="306.8867,-724.5372 296.342,-725.5667 305.2272,-731.3377 306.8867,-724.5372"/>
</g>
<!-- Node8&#45;&gt;Node4 -->
<g id="edge46" class="edge">
<title>Node8&#45;&gt;Node4</title>
<path fill="none" stroke="#191970" d="M269.9573,-782.0114C286.2645,-792.4808 304.2879,-806.3177 317,-822.5 470.6125,-1018.0471 450.8621,-1104.4562 526,-1341.5 547.1081,-1408.0916 513.5619,-1444.1636 562,-1494.5 568.6684,-1501.4298 577.0701,-1506.4932 586.0519,-1510.1826"/>
<polygon fill="#191970" stroke="#191970" points="271.4653,-778.8289 261.1189,-776.548 267.7847,-784.7832 271.4653,-778.8289"/>
</g>
<!-- Node8&#45;&gt;Node6 -->
<g id="edge47" class="edge">
<title>Node8&#45;&gt;Node6</title>
<path fill="none" stroke="#191970" d="M306.324,-741.9975C328.366,-736.6188 352.253,-730.7899 373.63,-725.5736"/>
<polygon fill="#191970" stroke="#191970" points="305.2272,-738.6623 296.342,-744.4333 306.8867,-745.4628 305.2272,-738.6623"/>
</g>
<!-- Node8&#45;&gt;Node7 -->
<g id="edge48" class="edge">
<title>Node8&#45;&gt;Node7</title>
<path fill="none" stroke="#191970" d="M316.7877,-760.5C332.5227,-760.5 348.8262,-760.5 364.2112,-760.5"/>
<polygon fill="#191970" stroke="#191970" points="316.5451,-757.0001 306.545,-760.5 316.545,-764.0001 316.5451,-757.0001"/>
</g>
<!-- Node9 -->
<g id="node9" class="node">
<title>Node9</title>
<g id="a_node9"><a xlink:href="../../da/d29/classFun4AllServer.html#ab7263450319ca1d5029209fde26a7af8" target="_top" xlink:title="Fun4AllServer::End">
<polygon fill="none" stroke="#ff0000" points="383.5,-795.5 383.5,-815.5 495.5,-815.5 495.5,-795.5 383.5,-795.5"/>
<text text-anchor="middle" x="439.5" y="-802.5" font-family="FreeSans" font-size="10.00" fill="#000000">Fun4AllServer::End</text>
</a>
</g>
</g>
<!-- Node8&#45;&gt;Node9 -->
<g id="edge8" class="edge">
<title>Node8&#45;&gt;Node9</title>
<path fill="none" stroke="#191970" d="M315.1457,-778.7251C341.7047,-784.4436 370.0401,-790.5445 392.9448,-795.4761"/>
<polygon fill="#191970" stroke="#191970" points="315.5813,-775.2388 305.0686,-776.5555 314.1079,-782.082 315.5813,-775.2388"/>
</g>
<!-- Node10 -->
<g id="node10" class="node">
<title>Node10</title>
<g id="a_node10"><a xlink:href="../../dd/d9c/AnalyzeTree_8C.html#af10d516ac25cd720d54534a63ef7e2f8" target="_top" xlink:title="AnalyzeTree">
<polygon fill="none" stroke="#ff0000" points="613.5,-1464.5 613.5,-1484.5 691.5,-1484.5 691.5,-1464.5 613.5,-1464.5"/>
<text text-anchor="middle" x="652.5" y="-1471.5" font-family="FreeSans" font-size="10.00" fill="#000000">AnalyzeTree</text>
</a>
</g>
</g>
<!-- Node9&#45;&gt;Node10 -->
<g id="edge9" class="edge">
<title>Node9&#45;&gt;Node10</title>
<path fill="none" stroke="#191970" d="M445.5237,-825.5119C461.1087,-877.9993 503.1323,-1024.1621 526,-1148.5 538.4247,-1216.0566 515.6685,-1404.7884 562,-1455.5 574.7779,-1469.4859 595.0041,-1474.6153 613.0974,-1476.0814"/>
<polygon fill="#191970" stroke="#191970" points="448.8311,-824.3552 442.6158,-815.775 442.1239,-826.3584 448.8311,-824.3552"/>
</g>
<!-- Node11 -->
<g id="node11" class="node">
<title>Node11</title>
<g id="a_node11"><a xlink:href="../../db/dc0/Fun4All__AnaTutorial_8C.html#aeb927fc74810ef9bc0c056302f1fbe69" target="_top" xlink:title="Fun4All_AnaTutorial">
<polygon fill="none" stroke="#000000" points="595,-1425.5 595,-1445.5 710,-1445.5 710,-1425.5 595,-1425.5"/>
<text text-anchor="middle" x="652.5" y="-1432.5" font-family="FreeSans" font-size="10.00" fill="#000000">Fun4All_AnaTutorial</text>
</a>
</g>
</g>
<!-- Node9&#45;&gt;Node11 -->
<g id="edge10" class="edge">
<title>Node9&#45;&gt;Node11</title>
<path fill="none" stroke="#191970" d="M445.3,-825.1785C460.5121,-877.4128 502.0346,-1024.0771 526,-1148.5 537.3653,-1207.5059 521.0975,-1372.479 562,-1416.5 570.633,-1425.7912 582.5562,-1431.1574 594.9167,-1434.1362"/>
<polygon fill="#191970" stroke="#191970" points="448.6375,-824.1215 442.469,-815.5076 441.9194,-826.0881 448.6375,-824.1215"/>
</g>
<!-- Node12 -->
<g id="node12" class="node">
<title>Node12</title>
<g id="a_node12"><a xlink:href="../../dd/d28/Fun4All__AnaTutorial__Jets_8C.html#a49f0c60dbca7146b42abc2eedf173722" target="_top" xlink:title="Fun4All_AnaTutorial_Jets">
<polygon fill="none" stroke="#000000" points="583,-1386.5 583,-1406.5 722,-1406.5 722,-1386.5 583,-1386.5"/>
<text text-anchor="middle" x="652.5" y="-1393.5" font-family="FreeSans" font-size="10.00" fill="#000000">Fun4All_AnaTutorial_Jets</text>
</a>
</g>
</g>
<!-- Node9&#45;&gt;Node12 -->
<g id="edge11" class="edge">
<title>Node9&#45;&gt;Node12</title>
<path fill="none" stroke="#191970" d="M445.1427,-825.2097C459.9719,-877.5199 500.6426,-1024.3533 526,-1148.5 536.3091,-1198.9718 526.515,-1340.1571 562,-1377.5 567.7506,-1383.5517 574.8991,-1387.9289 582.6402,-1391.0621"/>
<polygon fill="#191970" stroke="#191970" points="448.4898,-824.1836 442.3854,-815.5241 441.7573,-826.1003 448.4898,-824.1836"/>
</g>
<!-- Node13 -->
<g id="node13" class="node">
<title>Node13</title>
<g id="a_node13"><a xlink:href="../../df/d77/Fun4All__CaloAna_8C.html#a4f0841e3d8be48f96cc4e95380315ff8" target="_top" xlink:title="Fun4All_CaloAna">
<polygon fill="none" stroke="#000000" points="602.5,-1347.5 602.5,-1367.5 702.5,-1367.5 702.5,-1347.5 602.5,-1347.5"/>
<text text-anchor="middle" x="652.5" y="-1354.5" font-family="FreeSans" font-size="10.00" fill="#000000">Fun4All_CaloAna</text>
</a>
</g>
</g>
<!-- Node9&#45;&gt;Node13 -->
<g id="edge12" class="edge">
<title>Node9&#45;&gt;Node13</title>
<path fill="none" stroke="#191970" d="M444.9234,-825.2563C459.2185,-877.68 498.7013,-1024.7657 526,-1148.5 544.5166,-1232.4285 501.8275,-1277.1312 562,-1338.5 572.5655,-1349.2755 587.5737,-1354.6995 602.3376,-1357.2491"/>
<polygon fill="#191970" stroke="#191970" points="448.2827,-824.2715 442.2688,-815.5489 441.5306,-826.118 448.2827,-824.2715"/>
</g>
<!-- Node14 -->
<g id="node14" class="node">
<title>Node14</title>
<g id="a_node14"><a xlink:href="../../df/d51/Fun4All__ExportGeom_8C.html#a582925c51bad38d562cf19e71211adfd" target="_top" xlink:title="get geometry from DST file and output TGeoManager ROOT files or other formats of geometry files...">
<polygon fill="none" stroke="#000000" points="591.5,-1308.5 591.5,-1328.5 713.5,-1328.5 713.5,-1308.5 591.5,-1308.5"/>
<text text-anchor="middle" x="652.5" y="-1315.5" font-family="FreeSans" font-size="10.00" fill="#000000">Fun4All_ExportGeom</text>
</a>
</g>
</g>
<!-- Node9&#45;&gt;Node14 -->
<g id="edge13" class="edge">
<title>Node9&#45;&gt;Node14</title>
<path fill="none" stroke="#191970" d="M444.5973,-825.3322C458.0981,-877.9409 495.8144,-1025.4381 526,-1148.5 542.4357,-1215.5057 512.5587,-1251.3808 562,-1299.5 570.0534,-1307.3381 580.4692,-1312.3103 591.3532,-1315.3979"/>
<polygon fill="#191970" stroke="#191970" points="447.9727,-824.4045 442.0954,-815.5893 441.1927,-826.1456 447.9727,-824.4045"/>
</g>
<!-- Node15 -->
<g id="node15" class="node">
<title>Node15</title>
<g id="a_node15"><a xlink:href="../../d8/d14/Fun4All__G4__Babar_8C.html#ae3babc7f493f8a671f129ef3084ebc23" target="_top" xlink:title="Fun4All_G4_Babar">
<polygon fill="none" stroke="#000000" points="598,-1269.5 598,-1289.5 707,-1289.5 707,-1269.5 598,-1269.5"/>
<text text-anchor="middle" x="652.5" y="-1276.5" font-family="FreeSans" font-size="10.00" fill="#000000">Fun4All_G4_Babar</text>
</a>
</g>
</g>
<!-- Node9&#45;&gt;Node15 -->
<g id="edge14" class="edge">
<title>Node9&#45;&gt;Node15</title>
<path fill="none" stroke="#191970" d="M444.6045,-825.5892C466.7424,-912.5672 553.707,-1252.6593 562,-1260.5 571.6826,-1269.6545 584.5998,-1274.8701 597.6364,-1277.7387"/>
<polygon fill="#191970" stroke="#191970" points="447.9361,-824.4887 442.0791,-815.66 441.1521,-826.2142 447.9361,-824.4887"/>
</g>
<!-- Node16 -->
<g id="node16" class="node">
<title>Node16</title>
<g id="a_node16"><a xlink:href="../../df/d9d/fun4all__eicmacros_2blob_2master_2detectors_2Beast_2Fun4All__G4__Beast_8C.html#aa12a55b170fc12d7549cea7cc497eb38" target="_top" xlink:title="Fun4All_G4_Beast">
<polygon fill="none" stroke="#000000" points="599,-1230.5 599,-1250.5 706,-1250.5 706,-1230.5 599,-1230.5"/>
<text text-anchor="middle" x="652.5" y="-1237.5" font-family="FreeSans" font-size="10.00" fill="#000000">Fun4All_G4_Beast</text>
</a>
</g>
</g>
<!-- Node9&#45;&gt;Node16 -->
<g id="edge15" class="edge">
<title>Node9&#45;&gt;Node16</title>
<path fill="none" stroke="#191970" d="M444.2377,-826.0117C462.8678,-905.9232 531.5563,-1193.3835 562,-1221.5 572.0249,-1230.7585 585.3697,-1235.9635 598.7247,-1238.786"/>
<polygon fill="#191970" stroke="#191970" points="447.5338,-824.7323 441.8627,-815.783 440.7152,-826.3155 447.5338,-824.7323"/>
</g>
<!-- Node17 -->
<g id="node17" class="node">
<title>Node17</title>
<g id="a_node17"><a xlink:href="../../de/d55/Fun4All__G4__block_8C.html#a6a063a649a0dd3318a517d5af98430dd" target="_top" xlink:title="Fun4All_G4_block">
<polygon fill="none" stroke="#000000" points="600,-1191.5 600,-1211.5 705,-1211.5 705,-1191.5 600,-1191.5"/>
<text text-anchor="middle" x="652.5" y="-1198.5" font-family="FreeSans" font-size="10.00" fill="#000000">Fun4All_G4_block</text>
</a>
</g>
</g>
<!-- Node9&#45;&gt;Node17 -->
<g id="edge16" class="edge">
<title>Node9&#45;&gt;Node17</title>
<path fill="none" stroke="#191970" d="M443.3147,-825.7106C457.102,-896.6408 506.4734,-1132.6298 562,-1182.5 572.3914,-1191.8329 586.1721,-1197.0167 599.8383,-1199.7936"/>
<polygon fill="#191970" stroke="#191970" points="446.7344,-824.9586 441.412,-815.7977 439.8598,-826.2782 446.7344,-824.9586"/>
</g>
<!-- Node18 -->
<g id="node18" class="node">
<title>Node18</title>
<g id="a_node18"><a xlink:href="../../de/dcc/Fun4All__G4__Cleo_8C.html#ae4d584d6f7864ddc358a5cb1bf03bfa5" target="_top" xlink:title="Fun4All_G4_Cleo">
<polygon fill="none" stroke="#000000" points="602.5,-1152.5 602.5,-1172.5 702.5,-1172.5 702.5,-1152.5 602.5,-1152.5"/>
<text text-anchor="middle" x="652.5" y="-1159.5" font-family="FreeSans" font-size="10.00" fill="#000000">Fun4All_G4_Cleo</text>
</a>
</g>
</g>
<!-- Node9&#45;&gt;Node18 -->
<g id="edge17" class="edge">
<title>Node9&#45;&gt;Node18</title>
<path fill="none" stroke="#191970" d="M440.3577,-825.9938C444.0006,-885.1726 463.0293,-1057.5647 562,-1143.5 573.1526,-1153.1837 587.9773,-1158.361 602.3945,-1161.0204"/>
<polygon fill="#191970" stroke="#191970" points="443.8381,-825.528 439.8151,-815.7267 436.8478,-825.8975 443.8381,-825.528"/>
</g>
<!-- Node19 -->
<g id="node19" class="node">
<title>Node19</title>
<g id="a_node19"><a xlink:href="../../d8/d91/Fun4All__G4__Clusters_8C.html#ab7d8e64f12f512631d4c0e8c6683ec5b" target="_top" xlink:title="Fun4All_G4_Clusters">
<polygon fill="none" stroke="#000000" points="593,-1113.5 593,-1133.5 712,-1133.5 712,-1113.5 593,-1113.5"/>
<text text-anchor="middle" x="652.5" y="-1120.5" font-family="FreeSans" font-size="10.00" fill="#000000">Fun4All_G4_Clusters</text>
</a>
</g>
</g>
<!-- Node9&#45;&gt;Node19 -->
<g id="edge18" class="edge">
<title>Node9&#45;&gt;Node19</title>
<path fill="none" stroke="#191970" d="M441.4153,-825.7983C447.6865,-880.1857 472.6602,-1030.0941 562,-1104.5 570.7587,-1111.7946 581.6203,-1116.5045 592.7447,-1119.5023"/>
<polygon fill="#191970" stroke="#191970" points="444.8799,-825.2789 440.3445,-815.704 437.919,-826.0174 444.8799,-825.2789"/>
</g>
<!-- Node20 -->
<g id="node20" class="node">
<title>Node20</title>
<g id="a_node20"><a xlink:href="../../d2/dee/Fun4All__G4__Cylinder_8C.html#a271dc4f10f6f77107705e0efef0c97e5" target="_top" xlink:title="Fun4All_G4_Cylinder">
<polygon fill="none" stroke="#000000" points="592,-1074.5 592,-1094.5 713,-1094.5 713,-1074.5 592,-1074.5"/>
<text text-anchor="middle" x="652.5" y="-1081.5" font-family="FreeSans" font-size="10.00" fill="#000000">Fun4All_G4_Cylinder</text>
</a>
</g>
</g>
<!-- Node9&#45;&gt;Node20 -->
<g id="edge19" class="edge">
<title>Node9&#45;&gt;Node20</title>
<path fill="none" stroke="#191970" d="M442.772,-825.7761C451.8729,-875.2126 482.2738,-1002.5032 562,-1065.5 570.5656,-1072.2683 580.9662,-1076.7815 591.6224,-1079.7601"/>
<polygon fill="#191970" stroke="#191970" points="446.1826,-824.9597 441.0197,-815.7079 439.2863,-826.16 446.1826,-824.9597"/>
</g>
<!-- Node21 -->
<g id="node21" class="node">
<title>Node21</title>
<g id="a_node21"><a xlink:href="../../d6/d79/fun4all__eic__qa_2blob_2master_2macros_2Fun4All__G4__EICDetector_8C.html#a3e8b2c9290dae13dd57b23d543df2fd5" target="_top" xlink:title="Fun4All_G4_EICDetector">
<polygon fill="none" stroke="#000000" points="583,-1035.5 583,-1055.5 722,-1055.5 722,-1035.5 583,-1035.5"/>
<text text-anchor="middle" x="652.5" y="-1042.5" font-family="FreeSans" font-size="10.00" fill="#000000">Fun4All_G4_EICDetector</text>
</a>
</g>
</g>
<!-- Node9&#45;&gt;Node21 -->
<g id="edge20" class="edge">
<title>Node9&#45;&gt;Node21</title>
<path fill="none" stroke="#191970" d="M444.5454,-825.6969C456.6553,-869.7416 491.7166,-974.6284 562,-1026.5 568.2003,-1031.076 575.2571,-1034.604 582.6313,-1037.3161"/>
<polygon fill="#191970" stroke="#191970" points="447.8902,-824.6547 441.9536,-815.8793 441.1221,-826.4414 447.8902,-824.6547"/>
</g>
<!-- Node22 -->
<g id="node22" class="node">
<title>Node22</title>
<g id="a_node22"><a xlink:href="../../d5/d7d/Fun4All__G4__Example01_8C.html#ab61e640155444e40e5ff32fe50125b4d" target="_top" xlink:title="Fun4All_G4_Example01">
<polygon fill="none" stroke="#000000" points="585,-996.5 585,-1016.5 720,-1016.5 720,-996.5 585,-996.5"/>
<text text-anchor="middle" x="652.5" y="-1003.5" font-family="FreeSans" font-size="10.00" fill="#000000">Fun4All_G4_Example01</text>
</a>
</g>
</g>
<!-- Node9&#45;&gt;Node22 -->
<g id="edge21" class="edge">
<title>Node9&#45;&gt;Node22</title>
<path fill="none" stroke="#191970" d="M446.842,-825.2206C462.0512,-863.1773 500.7799,-946.274 562,-987.5 568.9246,-992.163 576.77,-995.7157 584.8766,-998.4166"/>
<polygon fill="#191970" stroke="#191970" points="450.06,-823.8385 443.1768,-815.7842 443.5349,-826.3729 450.06,-823.8385"/>
</g>
<!-- Node23 -->
<g id="node23" class="node">
<title>Node23</title>
<g id="a_node23"><a xlink:href="../../df/ddd/Fun4All__G4__Example02_8C.html#a828c51f9608f078106cef9343df49316" target="_top" xlink:title="Fun4All_G4_Example02">
<polygon fill="none" stroke="#000000" points="585,-957.5 585,-977.5 720,-977.5 720,-957.5 585,-957.5"/>
<text text-anchor="middle" x="652.5" y="-964.5" font-family="FreeSans" font-size="10.00" fill="#000000">Fun4All_G4_Example02</text>
</a>
</g>
</g>
<!-- Node9&#45;&gt;Node23 -->
<g id="edge22" class="edge">
<title>Node9&#45;&gt;Node23</title>
<path fill="none" stroke="#191970" d="M450.2685,-824.8376C468.7739,-856.1441 509.716,-917.535 562,-948.5 569.0449,-952.6723 576.8746,-955.9363 584.8968,-958.4883"/>
<polygon fill="#191970" stroke="#191970" points="453.0892,-822.7226 445.0626,-815.807 447.0247,-826.2186 453.0892,-822.7226"/>
</g>
<!-- Node24 -->
<g id="node24" class="node">
<title>Node24</title>
<g id="a_node24"><a xlink:href="../../d1/dc4/Fun4All__G4__Example03_8C.html#a6519821c64f56c74d049579392dfac3f" target="_top" xlink:title="Fun4All_G4_Example03">
<polygon fill="none" stroke="#000000" points="585,-918.5 585,-938.5 720,-938.5 720,-918.5 585,-918.5"/>
<text text-anchor="middle" x="652.5" y="-925.5" font-family="FreeSans" font-size="10.00" fill="#000000">Fun4All_G4_Example03</text>
</a>
</g>
</g>
<!-- Node9&#45;&gt;Node24 -->
<g id="edge23" class="edge">
<title>Node9&#45;&gt;Node24</title>
<path fill="none" stroke="#191970" d="M454.9114,-823.2047C476.4349,-846.7421 517.8481,-887.8763 562,-909.5 569.3532,-913.1013 577.3684,-916.0218 585.4899,-918.3897"/>
<polygon fill="#191970" stroke="#191970" points="457.4388,-820.7807 448.1559,-815.674 452.2281,-825.455 457.4388,-820.7807"/>
</g>
<!-- Node25 -->
<g id="node25" class="node">
<title>Node25</title>
<g id="a_node25"><a xlink:href="../../d7/dc5/Fun4All__G4__FastMom_8C.html#aa295ed6ff4853071573910b32c003229" target="_top" xlink:title="Fun4All_G4_FastMom">
<polygon fill="none" stroke="#000000" points="591,-879.5 591,-899.5 714,-899.5 714,-879.5 591,-879.5"/>
<text text-anchor="middle" x="652.5" y="-886.5" font-family="FreeSans" font-size="10.00" fill="#000000">Fun4All_G4_FastMom</text>
</a>
</g>
</g>
<!-- Node9&#45;&gt;Node25 -->
<g id="edge24" class="edge">
<title>Node9&#45;&gt;Node25</title>
<path fill="none" stroke="#191970" d="M463.8757,-821.0834C487.9414,-835.8186 526.2272,-857.5477 562,-870.5 571.812,-874.0526 582.4757,-877.0261 592.9261,-879.4855"/>
<polygon fill="#191970" stroke="#191970" points="465.4243,-817.9252 455.0828,-815.622 461.7309,-823.8715 465.4243,-817.9252"/>
</g>
<!-- Node26 -->
<g id="node26" class="node">
<title>Node26</title>
<g id="a_node26"><a xlink:href="../../db/dc2/Fun4All__G4__FastMom__GEM_8C.html#a1a327440b9a720678c12cb3ea194ad33" target="_top" xlink:title="Fun4All_G4_FastMom_GEM">
<polygon fill="none" stroke="#000000" points="577,-840.5 577,-860.5 728,-860.5 728,-840.5 577,-840.5"/>
<text text-anchor="middle" x="652.5" y="-847.5" font-family="FreeSans" font-size="10.00" fill="#000000">Fun4All_G4_FastMom_GEM</text>
</a>
</g>
</g>
<!-- Node9&#45;&gt;Node26 -->
<g id="edge25" class="edge">
<title>Node9&#45;&gt;Node26</title>
<path fill="none" stroke="#191970" d="M496.4925,-817.6236C517.1269,-822.0058 540.6113,-826.985 562,-831.5 575.8232,-834.418 590.8368,-837.575 604.589,-840.4619"/>
<polygon fill="#191970" stroke="#191970" points="497.1225,-814.1794 486.6135,-815.5249 495.6678,-821.0266 497.1225,-814.1794"/>
</g>
<!-- Node27 -->
<g id="node27" class="node">
<title>Node27</title>
<g id="a_node27"><a xlink:href="../../d7/df9/Fun4All__G4__FastMom__GEM__RICH_8C.html#a836c38918acb22b3e8248037a93906fb" target="_top" xlink:title="Fun4All_G4_FastMom\l_GEM_RICH">
<polygon fill="none" stroke="#000000" points="591,-789.5 591,-821.5 714,-821.5 714,-789.5 591,-789.5"/>
<text text-anchor="start" x="599" y="-808.5" font-family="FreeSans" font-size="10.00" fill="#000000">Fun4All_G4_FastMom</text>
<text text-anchor="middle" x="652.5" y="-796.5" font-family="FreeSans" font-size="10.00" fill="#000000">_GEM_RICH</text>
</a>
</g>
</g>
<!-- Node9&#45;&gt;Node27 -->
<g id="edge26" class="edge">
<title>Node9&#45;&gt;Node27</title>
<path fill="none" stroke="#191970" d="M505.9031,-805.5C532.9798,-805.5 564.1056,-805.5 590.6921,-805.5"/>
<polygon fill="#191970" stroke="#191970" points="505.7419,-802.0001 495.7419,-805.5 505.7418,-809.0001 505.7419,-802.0001"/>
</g>
<!-- Node28 -->
<g id="node28" class="node">
<title>Node28</title>
<g id="a_node28"><a xlink:href="../../d7/d9e/Fun4All__G4__fsPHENIX_8C.html#a75e8ef26e92f882a865536a3e16244c5" target="_top" xlink:title="Fun4All_G4_fsPHENIX">
<polygon fill="none" stroke="#000000" points="590.5,-750.5 590.5,-770.5 714.5,-770.5 714.5,-750.5 590.5,-750.5"/>
<text text-anchor="middle" x="652.5" y="-757.5" font-family="FreeSans" font-size="10.00" fill="#000000">Fun4All_G4_fsPHENIX</text>
</a>
</g>
</g>
<!-- Node9&#45;&gt;Node28 -->
<g id="edge27" class="edge">
<title>Node9&#45;&gt;Node28</title>
<path fill="none" stroke="#191970" d="M497.2431,-793.3008C531.0639,-786.1555 573.2505,-777.2429 605.1091,-770.5122"/>
<polygon fill="#191970" stroke="#191970" points="496.0968,-789.9656 487.0362,-795.4571 497.5438,-796.8144 496.0968,-789.9656"/>
</g>
<!-- Node29 -->
<g id="node29" class="node">
<title>Node29</title>
<g id="a_node29"><a xlink:href="../../d5/d97/Fun4All__G4__FullDetectorModular_8C.html#a3718da6a9c8edc72f231ee413c514dad" target="_top" xlink:title="Fun4All_G4_FullDetectorModular">
<polygon fill="none" stroke="#000000" points="562,-711.5 562,-731.5 743,-731.5 743,-711.5 562,-711.5"/>
<text text-anchor="middle" x="652.5" y="-718.5" font-family="FreeSans" font-size="10.00" fill="#000000">Fun4All_G4_FullDetectorModular</text>
</a>
</g>
</g>
<!-- Node9&#45;&gt;Node29 -->
<g id="edge28" class="edge">
<title>Node9&#45;&gt;Node29</title>
<path fill="none" stroke="#191970" d="M505.5478,-795.9887C512.7373,-793.5152 519.7157,-790.4062 526,-786.5 547.7527,-772.9789 540.2559,-755.035 562,-741.5 568.5571,-737.4184 575.8369,-734.1643 583.3379,-731.5709"/>
<polygon fill="#191970" stroke="#191970" points="504.2151,-792.7353 495.6584,-798.983 506.2436,-799.4349 504.2151,-792.7353"/>
</g>
<!-- Node30 -->
<g id="node30" class="node">
<title>Node30</title>
<g id="a_node30"><a xlink:href="../../d0/dce/Fun4All__G4__FullDetectorModularBeast_8C.html#a0f10ba4ce157df87369cfd776fc132d3" target="_top" xlink:title="Fun4All_G4_FullDetectorModular\lBeast">
<polygon fill="none" stroke="#000000" points="562,-660.5 562,-692.5 743,-692.5 743,-660.5 562,-660.5"/>
<text text-anchor="start" x="570" y="-679.5" font-family="FreeSans" font-size="10.00" fill="#000000">Fun4All_G4_FullDetectorModular</text>
<text text-anchor="middle" x="652.5" y="-667.5" font-family="FreeSans" font-size="10.00" fill="#000000">Beast</text>
</a>
</g>
</g>
<!-- Node9&#45;&gt;Node30 -->
<g id="edge29" class="edge">
<title>Node9&#45;&gt;Node30</title>
<path fill="none" stroke="#191970" d="M505.301,-798.1305C512.7987,-795.3067 519.9188,-791.5299 526,-786.5 557.2986,-760.6122 531.5395,-729.3689 562,-702.5 566.2908,-698.7151 571.1,-695.4792 576.2056,-692.7128"/>
<polygon fill="#191970" stroke="#191970" points="504.1079,-794.8375 495.6516,-801.2204 506.2426,-801.504 504.1079,-794.8375"/>
</g>
<!-- Node31 -->
<g id="node31" class="node">
<title>Node31</title>
<g id="a_node31"><a xlink:href="../../dc/d3f/Fun4All__G4__Geantino_8C.html#a2a4c70246a9a6288b367a2fa7c1d1087" target="_top" xlink:title="Fun4All_G4_Geantino">
<polygon fill="none" stroke="#000000" points="590.5,-621.5 590.5,-641.5 714.5,-641.5 714.5,-621.5 590.5,-621.5"/>
<text text-anchor="middle" x="652.5" y="-628.5" font-family="FreeSans" font-size="10.00" fill="#000000">Fun4All_G4_Geantino</text>
</a>
</g>
</g>
<!-- Node9&#45;&gt;Node31 -->
<g id="edge30" class="edge">
<title>Node9&#45;&gt;Node31</title>
<path fill="none" stroke="#191970" d="M505.1752,-799.296C512.8751,-796.3061 520.081,-792.1724 526,-786.5 571.1433,-743.2379 516.6564,-693.5522 562,-650.5 569.8005,-643.0937 579.7168,-638.2627 590.1072,-635.1663"/>
<polygon fill="#191970" stroke="#191970" points="504.025,-795.9895 495.5913,-802.4023 506.1833,-802.6484 504.025,-795.9895"/>
</g>
<!-- Node32 -->
<g id="node32" class="node">
<title>Node32</title>
<g id="a_node32"><a xlink:href="../../df/de1/Fun4All__G4__IonGun_8C.html#ab4966a2ae337cb8f0e45f7ee488e33b7" target="_top" xlink:title="Fun4All_G4_IonGun">
<polygon fill="none" stroke="#000000" points="595.5,-582.5 595.5,-602.5 709.5,-602.5 709.5,-582.5 595.5,-582.5"/>
<text text-anchor="middle" x="652.5" y="-589.5" font-family="FreeSans" font-size="10.00" fill="#000000">Fun4All_G4_IonGun</text>
</a>
</g>
</g>
<!-- Node9&#45;&gt;Node32 -->
<g id="edge31" class="edge">
<title>Node9&#45;&gt;Node32</title>
<path fill="none" stroke="#191970" d="M505.4776,-799.6028C513.1297,-796.5644 520.2418,-792.3355 526,-786.5 581.7732,-729.978 505.9651,-667.7626 562,-611.5 570.95,-602.5137 582.9945,-597.2642 595.3713,-594.301"/>
<polygon fill="#191970" stroke="#191970" points="504.3342,-796.2944 495.9305,-802.7465 506.5235,-802.9432 504.3342,-796.2944"/>
</g>
<!-- Node33 -->
<g id="node33" class="node">
<title>Node33</title>
<g id="a_node33"><a xlink:href="../../d0/d87/Fun4All__G4__JLeic_8C.html#a7a87d035cddeb1ed64bf376560381994" target="_top" xlink:title="Fun4All_G4_JLeic">
<polygon fill="none" stroke="#000000" points="602,-543.5 602,-563.5 703,-563.5 703,-543.5 602,-543.5"/>
<text text-anchor="middle" x="652.5" y="-550.5" font-family="FreeSans" font-size="10.00" fill="#000000">Fun4All_G4_JLeic</text>
</a>
</g>
</g>
<!-- Node9&#45;&gt;Node33 -->
<g id="edge32" class="edge">
<title>Node9&#45;&gt;Node33</title>
<path fill="none" stroke="#191970" d="M505.373,-799.9192C513.1103,-796.8421 520.273,-792.518 526,-786.5 592.4881,-716.6326 495.1884,-642.0581 562,-572.5 572.3428,-561.7321 587.1144,-556.2802 601.7322,-553.7031"/>
<polygon fill="#191970" stroke="#191970" points="504.1222,-796.6458 495.708,-803.0842 506.3007,-803.2982 504.1222,-796.6458"/>
</g>
<!-- Node34 -->
<g id="node34" class="node">
<title>Node34</title>
<g id="a_node34"><a xlink:href="../../d9/d18/Fun4All__G4__LBLDetector_8C.html#acc03ebe198962a7abb94f5c42641bfc9" target="_top" xlink:title="Fun4All_G4_LBLDetector">
<polygon fill="none" stroke="#000000" points="582.5,-504.5 582.5,-524.5 722.5,-524.5 722.5,-504.5 582.5,-504.5"/>
<text text-anchor="middle" x="652.5" y="-511.5" font-family="FreeSans" font-size="10.00" fill="#000000">Fun4All_G4_LBLDetector</text>
</a>
</g>
</g>
<!-- Node9&#45;&gt;Node34 -->
<g id="edge33" class="edge">
<title>Node9&#45;&gt;Node34</title>
<path fill="none" stroke="#191970" d="M505.5161,-800.0537C513.2312,-796.9557 520.3497,-792.59 526,-786.5 603.2489,-703.2392 484.3656,-616.4015 562,-533.5 567.5966,-527.5237 574.5551,-523.1745 582.1107,-520.0413"/>
<polygon fill="#191970" stroke="#191970" points="504.2693,-796.7794 495.8679,-803.2344 506.461,-803.4274 504.2693,-796.7794"/>
</g>
<!-- Node35 -->
<g id="node35" class="node">
<title>Node35</title>
<g id="a_node35"><a xlink:href="../../d9/d1f/Fun4All__G4__Lmon_8C.html#a4f09ca292c4b3a82ce38b19ac3858d74" target="_top" xlink:title="Fun4All_G4_Lmon">
<polygon fill="none" stroke="#000000" points="599.5,-465.5 599.5,-485.5 705.5,-485.5 705.5,-465.5 599.5,-465.5"/>
<text text-anchor="middle" x="652.5" y="-472.5" font-family="FreeSans" font-size="10.00" fill="#000000">Fun4All_G4_Lmon</text>
</a>
</g>
</g>
<!-- Node9&#45;&gt;Node35 -->
<g id="edge34" class="edge">
<title>Node9&#45;&gt;Node35</title>
<path fill="none" stroke="#191970" d="M505.0606,-800.3763C512.9763,-797.2511 520.2709,-792.7918 526,-786.5 614.0371,-689.8162 473.5153,-590.7742 562,-494.5 571.5602,-484.0982 585.2416,-478.6025 599.0812,-475.8691"/>
<polygon fill="#191970" stroke="#191970" points="503.9735,-797.0493 495.5398,-803.462 506.1317,-803.7083 503.9735,-797.0493"/>
</g>
<!-- Node36 -->
<g id="node36" class="node">
<title>Node36</title>
<g id="a_node36"><a xlink:href="../../dd/d8d/Fun4All__G4__Magnet_8C.html#a375961511ba614ba387343e652ab0202" target="_top" xlink:title="Fun4All_G4_Magnet">
<polygon fill="none" stroke="#000000" points="594.5,-426.5 594.5,-446.5 710.5,-446.5 710.5,-426.5 594.5,-426.5"/>
<text text-anchor="middle" x="652.5" y="-433.5" font-family="FreeSans" font-size="10.00" fill="#000000">Fun4All_G4_Magnet</text>
</a>
</g>
</g>
<!-- Node9&#45;&gt;Node36 -->
<g id="edge35" class="edge">
<title>Node9&#45;&gt;Node36</title>
<path fill="none" stroke="#191970" d="M505.144,-800.4517C513.0472,-797.3152 520.3162,-792.8326 526,-786.5 624.8429,-676.3739 462.6471,-565.1663 562,-455.5 570.4075,-446.2197 582.0932,-440.8308 594.279,-437.8234"/>
<polygon fill="#191970" stroke="#191970" points="504.0591,-797.124 495.6321,-803.5455 506.2243,-803.7807 504.0591,-797.124"/>
</g>
<!-- Node37 -->
<g id="node37" class="node">
<title>Node37</title>
<g id="a_node37"><a xlink:href="../../d9/d8f/Fun4All__G4__Momentum_8C.html#a30427d12b8e66fae42427a1ae4120c1a" target="_top" xlink:title="Fun4All_G4_Momentum">
<polygon fill="none" stroke="#000000" points="585,-387.5 585,-407.5 720,-407.5 720,-387.5 585,-387.5"/>
<text text-anchor="middle" x="652.5" y="-394.5" font-family="FreeSans" font-size="10.00" fill="#000000">Fun4All_G4_Momentum</text>
</a>
</g>
</g>
<!-- Node9&#45;&gt;Node37 -->
<g id="edge36" class="edge">
<title>Node9&#45;&gt;Node37</title>
<path fill="none" stroke="#191970" d="M505.4675,-800.4079C513.261,-797.2675 520.4136,-792.7956 526,-786.5 580.8304,-724.7091 506.8834,-478.0358 562,-416.5 568.2125,-409.5639 576.2554,-404.7955 584.9804,-401.5685"/>
<polygon fill="#191970" stroke="#191970" points="504.1159,-797.1677 495.7055,-803.611 506.2983,-803.8188 504.1159,-797.1677"/>
</g>
<!-- Node38 -->
<g id="node38" class="node">
<title>Node38</title>
<g id="a_node38"><a xlink:href="../../d1/d3a/Fun4All__G4__Momentum__Projection_8C.html#a10a3fc89216f3a6162a4c6f2d73d1f22" target="_top" xlink:title="Fun4All_G4_Momentum\l_Projection">
<polygon fill="none" stroke="#000000" points="585,-336.5 585,-368.5 720,-368.5 720,-336.5 585,-336.5"/>
<text text-anchor="start" x="593" y="-355.5" font-family="FreeSans" font-size="10.00" fill="#000000">Fun4All_G4_Momentum</text>
<text text-anchor="middle" x="652.5" y="-343.5" font-family="FreeSans" font-size="10.00" fill="#000000">_Projection</text>
</a>
</g>
</g>
<!-- Node9&#45;&gt;Node38 -->
<g id="edge37" class="edge">
<title>Node9&#45;&gt;Node38</title>
<path fill="none" stroke="#191970" d="M505.5213,-800.4554C513.3066,-797.3078 520.4426,-792.8212 526,-786.5 586.2437,-717.9764 503.6037,-447.6047 562,-377.5 568.0509,-370.2359 576.0054,-364.98 584.6904,-361.1954"/>
<polygon fill="#191970" stroke="#191970" points="504.1714,-797.2149 495.7654,-803.6639 506.3583,-803.8645 504.1714,-797.2149"/>
</g>
<!-- Node39 -->
<g id="node39" class="node">
<title>Node39</title>
<g id="a_node39"><a xlink:href="../../d5/d9f/Fun4All__G4__Momentum__Projection__Calorimeters_8C.html#a5f9b4c65bb2070aedfd707dfc2d2cace" target="_top" xlink:title="Fun4All_G4_Momentum\l_Projection_Calorimeters">
<polygon fill="none" stroke="#000000" points="581.5,-285.5 581.5,-317.5 723.5,-317.5 723.5,-285.5 581.5,-285.5"/>
<text text-anchor="start" x="589.5" y="-304.5" font-family="FreeSans" font-size="10.00" fill="#000000">Fun4All_G4_Momentum</text>
<text text-anchor="middle" x="652.5" y="-292.5" font-family="FreeSans" font-size="10.00" fill="#000000">_Projection_Calorimeters</text>
</a>
</g>
</g>
<!-- Node9&#45;&gt;Node39 -->
<g id="edge38" class="edge">
<title>Node9&#45;&gt;Node39</title>
<path fill="none" stroke="#191970" d="M505.5782,-800.5052C513.3549,-797.3501 520.4733,-792.8481 526,-786.5 593.3272,-709.1668 496.7575,-405.5999 562,-326.5 567.1859,-320.2126 573.7984,-315.4276 581.0823,-311.7979"/>
<polygon fill="#191970" stroke="#191970" points="504.2301,-797.2643 495.8287,-803.7193 506.4218,-803.9123 504.2301,-797.2643"/>
</g>
<!-- Node40 -->
<g id="node40" class="node">
<title>Node40</title>
<g id="a_node40"><a xlink:href="../../dd/dba/Fun4All__G4__Momentum__Projection__Detectors_8C.html#aaa6100b352f9b7268c29a006f74cfe57" target="_top" xlink:title="Fun4All_G4_Momentum\l_Projection_Detectors">
<polygon fill="none" stroke="#000000" points="585,-234.5 585,-266.5 720,-266.5 720,-234.5 585,-234.5"/>
<text text-anchor="start" x="593" y="-253.5" font-family="FreeSans" font-size="10.00" fill="#000000">Fun4All_G4_Momentum</text>
<text text-anchor="middle" x="652.5" y="-241.5" font-family="FreeSans" font-size="10.00" fill="#000000">_Projection_Detectors</text>
</a>
</g>
</g>
<!-- Node9&#45;&gt;Node40 -->
<g id="edge39" class="edge">
<title>Node9&#45;&gt;Node40</title>
<path fill="none" stroke="#191970" d="M505.624,-800.5449C513.3937,-797.3837 520.498,-792.8695 526,-786.5 600.4146,-700.3528 489.9075,-363.5996 562,-275.5 567.9873,-268.1833 575.907,-262.8988 584.5762,-259.1011"/>
<polygon fill="#191970" stroke="#191970" points="504.2774,-797.3036 495.8797,-803.7635 506.4729,-803.9504 504.2774,-797.3036"/>
</g>
<!-- Node41 -->
<g id="node41" class="node">
<title>Node41</title>
<g id="a_node41"><a xlink:href="../../d1/d54/Fun4All__G4__MyDetector_8C.html#a42ff88b75bd8510ae12cc9757b9a693b" target="_top" xlink:title="Fun4All_G4_MyDetector">
<polygon fill="none" stroke="#000000" points="584,-195.5 584,-215.5 721,-215.5 721,-195.5 584,-195.5"/>
<text text-anchor="middle" x="652.5" y="-202.5" font-family="FreeSans" font-size="10.00" fill="#000000">Fun4All_G4_MyDetector</text>
</a>
</g>
</g>
<!-- Node9&#45;&gt;Node41 -->
<g id="edge40" class="edge">
<title>Node9&#45;&gt;Node41</title>
<path fill="none" stroke="#191970" d="M505.6617,-800.5773C513.4256,-797.4112 520.5183,-792.887 526,-786.5 607.5046,-691.5357 480.0556,-319.0851 562,-224.5 567.8869,-217.705 575.5288,-212.9736 583.8763,-209.7282"/>
<polygon fill="#191970" stroke="#191970" points="504.3162,-797.3358 495.9216,-803.7996 506.5148,-803.9815 504.3162,-797.3358"/>
</g>
<!-- Node42 -->
<g id="node42" class="node">
<title>Node42</title>
<g id="a_node42"><a xlink:href="../../db/da2/Fun4All__G4__simple__hadron_8C.html#a5061cae2aebcfc9ea137b61cfd346328" target="_top" xlink:title="Fun4All_G4_simple_hadron">
<polygon fill="none" stroke="#000000" points="576.5,-156.5 576.5,-176.5 728.5,-176.5 728.5,-156.5 576.5,-156.5"/>
<text text-anchor="middle" x="652.5" y="-163.5" font-family="FreeSans" font-size="10.00" fill="#000000">Fun4All_G4_simple_hadron</text>
</a>
</g>
</g>
<!-- Node9&#45;&gt;Node42 -->
<g id="edge41" class="edge">
<title>Node9&#45;&gt;Node42</title>
<path fill="none" stroke="#191970" d="M505.1235,-800.8253C513.1037,-797.6465 520.3996,-793.0526 526,-786.5 612.9279,-684.7915 474.6011,-286.8041 562,-185.5 566.09,-180.7593 571.0342,-177.022 576.4774,-174.0925"/>
<polygon fill="#191970" stroke="#191970" points="503.9381,-797.5301 495.5017,-803.9394 506.0936,-804.19 503.9381,-797.5301"/>
</g>
<!-- Node43 -->
<g id="node43" class="node">
<title>Node43</title>
<g id="a_node43"><a xlink:href="../../d0/dd2/Fun4All__G4__simple__hadron__GEM_8C.html#a87dc5b61f33f769555984fa43a1cdff6" target="_top" xlink:title="Fun4All_G4_simple_hadron_GEM">
<polygon fill="none" stroke="#000000" points="562.5,-117.5 562.5,-137.5 742.5,-137.5 742.5,-117.5 562.5,-117.5"/>
<text text-anchor="middle" x="652.5" y="-124.5" font-family="FreeSans" font-size="10.00" fill="#000000">Fun4All_G4_simple_hadron_GEM</text>
</a>
</g>
</g>
<!-- Node9&#45;&gt;Node43 -->
<g id="edge42" class="edge">
<title>Node9&#45;&gt;Node43</title>
<path fill="none" stroke="#191970" d="M505.1454,-800.8439C513.1224,-797.6624 520.4115,-793.0628 526,-786.5 618.3521,-678.0461 469.1456,-254.5242 562,-146.5 564.9302,-143.0911 568.3021,-140.2006 571.9839,-137.7558"/>
<polygon fill="#191970" stroke="#191970" points="503.9606,-797.5486 495.5258,-803.9599 506.1177,-804.2079 503.9606,-797.5486"/>
</g>
<!-- Node44 -->
<g id="node44" class="node">
<title>Node44</title>
<g id="a_node44"><a xlink:href="../../db/d8d/Fun4All__G4__simple__vertex_8C.html#a7a856f9ed6ae7af9ff6df3993bfc54ec" target="_top" xlink:title="Fun4All_G4_simple_vertex">
<polygon fill="none" stroke="#000000" points="578,-78.5 578,-98.5 727,-98.5 727,-78.5 578,-78.5"/>
<text text-anchor="middle" x="652.5" y="-85.5" font-family="FreeSans" font-size="10.00" fill="#000000">Fun4All_G4_simple_vertex</text>
</a>
</g>
</g>
<!-- Node9&#45;&gt;Node44 -->
<g id="edge43" class="edge">
<title>Node9&#45;&gt;Node44</title>
<path fill="none" stroke="#191970" d="M505.1647,-800.8603C513.1389,-797.6764 520.4221,-793.0718 526,-786.5 623.7772,-671.2998 463.6893,-222.2452 562,-107.5 566.3871,-102.3795 571.7706,-98.4278 577.7055,-95.3992"/>
<polygon fill="#191970" stroke="#191970" points="503.9805,-797.5648 495.5472,-803.9781 506.1391,-804.2237 503.9805,-797.5648"/>
</g>
<!-- Node45 -->
<g id="node45" class="node">
<title>Node45</title>
<g id="a_node45"><a xlink:href="../../d2/d06/Fun4All__G4__simplified__v2_8C.html#af32a1997246c467fe39dcf311893ad2a" target="_top" xlink:title="Fun4All_G4_simplified_v2">
<polygon fill="none" stroke="#000000" points="580,-39.5 580,-59.5 725,-59.5 725,-39.5 580,-39.5"/>
<text text-anchor="middle" x="652.5" y="-46.5" font-family="FreeSans" font-size="10.00" fill="#000000">Fun4All_G4_simplified_v2</text>
</a>
</g>
</g>
<!-- Node9&#45;&gt;Node45 -->
<g id="edge44" class="edge">
<title>Node9&#45;&gt;Node45</title>
<path fill="none" stroke="#191970" d="M505.182,-800.875C513.1536,-797.6889 520.4316,-793.0798 526,-786.5 629.2029,-664.5527 458.2324,-189.9671 562,-68.5 566.9011,-62.7629 573.0531,-58.492 579.8313,-55.3422"/>
<polygon fill="#191970" stroke="#191970" points="503.9983,-797.5793 495.5662,-803.9942 506.1582,-804.2378 503.9983,-797.5793"/>
</g>
<!-- Node46 -->
<g id="node46" class="node">
<title>Node46</title>
<g id="a_node46"><a xlink:href="../../d9/d73/fun4all__macros_2blob_2master_2detectors_2sPHENIX_2Fun4All__G4__sPHENIX_8C.html#a4102cd3e195333de974409428a2e6dae" target="_top" xlink:title="Fun4All_G4_sPHENIX">
<polygon fill="none" stroke="#000000" points="592,-.5 592,-20.5 713,-20.5 713,-.5 592,-.5"/>
<text text-anchor="middle" x="652.5" y="-7.5" font-family="FreeSans" font-size="10.00" fill="#000000">Fun4All_G4_sPHENIX</text>
</a>
</g>
</g>
<!-- Node9&#45;&gt;Node46 -->
<g id="edge45" class="edge">
<title>Node9&#45;&gt;Node46</title>
<path fill="none" stroke="#191970" d="M505.1975,-800.8881C513.1669,-797.7001 520.4401,-793.087 526,-786.5 580.3146,-722.1525 507.3874,-93.5948 562,-29.5 569.705,-20.4572 580.5175,-15.0547 591.9971,-11.9435"/>
<polygon fill="#191970" stroke="#191970" points="504.0143,-797.5923 495.5833,-804.0087 506.1754,-804.2504 504.0143,-797.5923"/>
</g>
<!-- Node48 -->
<g id="node48" class="node">
<title>Node48</title>
<g id="a_node48"><a xlink:href="../../df/df1/classPHG4DstCompressReco.html#adaabe6fa274e89f2ab8cb3c300831bb0" target="_top" xlink:title="run initialization">
<polygon fill="none" stroke="#000000" points="372,-642.5 372,-674.5 507,-674.5 507,-642.5 372,-642.5"/>
<text text-anchor="start" x="380" y="-661.5" font-family="FreeSans" font-size="10.00" fill="#000000">PHG4DstCompressReco</text>
<text text-anchor="middle" x="439.5" y="-649.5" font-family="FreeSans" font-size="10.00" fill="#000000">::InitRun</text>
</a>
</g>
</g>
<!-- Node47&#45;&gt;Node48 -->
<g id="edge50" class="edge">
<title>Node47&#45;&gt;Node48</title>
<path fill="none" stroke="#191970" d="M308.1851,-658.5C329.0783,-658.5 351.5052,-658.5 371.8072,-658.5"/>
<polygon fill="#191970" stroke="#191970" points="308.0677,-655.0001 298.0677,-658.5 308.0676,-662.0001 308.0677,-655.0001"/>
</g>
<!-- Node50 -->
<g id="node50" class="node">
<title>Node50</title>
<g id="a_node50"><a xlink:href="../../dd/d9d/classPHG4TruthEventAction.html#acae7f6ab30e8cb76590ad8d4aa332508" target="_top" xlink:title="get relevant nodes from top node passed as argument">
<polygon fill="none" stroke="#ff0000" points="374.5,-591.5 374.5,-623.5 504.5,-623.5 504.5,-591.5 374.5,-591.5"/>
<text text-anchor="start" x="382.5" y="-610.5" font-family="FreeSans" font-size="10.00" fill="#000000">PHG4TruthEventAction</text>
<text text-anchor="middle" x="439.5" y="-598.5" font-family="FreeSans" font-size="10.00" fill="#000000">::SetInterfacePointers</text>
</a>
</g>
</g>
<!-- Node49&#45;&gt;Node50 -->
<g id="edge52" class="edge">
<title>Node49&#45;&gt;Node50</title>
<path fill="none" stroke="#191970" d="M305.9124,-607.5C328.3217,-607.5 352.6699,-607.5 374.3665,-607.5"/>
<polygon fill="#191970" stroke="#191970" points="305.7692,-604.0001 295.7692,-607.5 305.7692,-611.0001 305.7692,-604.0001"/>
</g>
</g>
</svg>
