<?xml version="1.0" encoding="UTF-8" standalone="no"?>
<!DOCTYPE svg PUBLIC "-//W3C//DTD SVG 1.1//EN"
 "http://www.w3.org/Graphics/SVG/1.1/DTD/svg11.dtd">
<!-- Generated by graphviz version 2.40.1 (20161225.0304)
 -->
<!-- Title: fun4all_eicdetectors/blob/master/simulation/g4simulation/g4b0/EICG4B0Detector.h Pages: 1 -->
<svg width="932pt" height="146pt"
 viewBox="0.00 0.00 931.50 146.00" xmlns="http://www.w3.org/2000/svg" xmlns:xlink="http://www.w3.org/1999/xlink">
<g id="graph0" class="graph" transform="scale(1 1) rotate(0) translate(4 142)">
<title>fun4all_eicdetectors/blob/master/simulation/g4simulation/g4b0/EICG4B0Detector.h</title>
<!-- Node1 -->
<g id="node1" class="node">
<title>Node1</title>
<polygon fill="#bfbfbf" stroke="#000000" points="347.5,-93.5 347.5,-137.5 562.5,-137.5 562.5,-93.5 347.5,-93.5"/>
<text text-anchor="start" x="355.5" y="-124.5" font-family="FreeSans" font-size="10.00" fill="#000000">fun4all_eicdetectors</text>
<text text-anchor="start" x="355.5" y="-112.5" font-family="FreeSans" font-size="10.00" fill="#000000">/blob/master/simulation</text>
<text text-anchor="middle" x="455" y="-100.5" font-family="FreeSans" font-size="10.00" fill="#000000">/g4simulation/g4b0/EICG4B0Detector.h</text>
</g>
<!-- Node2 -->
<g id="node2" class="node">
<title>Node2</title>
<g id="a_node2"><a xlink:href="../../d4/dcd/EICG4B0Detector_8cc.html" target="_top" xlink:title="fun4all_eicdetectors\l/blob/master/simulation\l/g4simulation/g4b0/EICG4B0Detector.cc">
<polygon fill="none" stroke="#000000" points="0,-6.5 0,-50.5 220,-50.5 220,-6.5 0,-6.5"/>
<text text-anchor="start" x="8" y="-37.5" font-family="FreeSans" font-size="10.00" fill="#000000">fun4all_eicdetectors</text>
<text text-anchor="start" x="8" y="-25.5" font-family="FreeSans" font-size="10.00" fill="#000000">/blob/master/simulation</text>
<text text-anchor="middle" x="110" y="-13.5" font-family="FreeSans" font-size="10.00" fill="#000000">/g4simulation/g4b0/EICG4B0Detector.cc</text>
</a>
</g>
</g>
<!-- Node1&#45;&gt;Node2 -->
<g id="edge1" class="edge">
<title>Node1&#45;&gt;Node2</title>
<path fill="none" stroke="#191970" d="M357.5717,-90.9311C307.2099,-78.2312 246.242,-62.8567 197.4108,-50.5427"/>
<polygon fill="#191970" stroke="#191970" points="356.9436,-94.3823 367.4959,-93.4338 358.6553,-87.5947 356.9436,-94.3823"/>
</g>
<!-- Node3 -->
<g id="node3" class="node">
<title>Node3</title>
<g id="a_node3"><a xlink:href="../../d3/d9f/EICG4B0Detector__Pipe_8cc.html" target="_top" xlink:title="fun4all_eicdetectors\l/blob/master/simulation\l/g4simulation/g4b0/EICG4B0Detector\l_Pipe.cc">
<polygon fill="none" stroke="#000000" points="238.5,-.5 238.5,-56.5 445.5,-56.5 445.5,-.5 238.5,-.5"/>
<text text-anchor="start" x="246.5" y="-43.5" font-family="FreeSans" font-size="10.00" fill="#000000">fun4all_eicdetectors</text>
<text text-anchor="start" x="246.5" y="-31.5" font-family="FreeSans" font-size="10.00" fill="#000000">/blob/master/simulation</text>
<text text-anchor="start" x="246.5" y="-19.5" font-family="FreeSans" font-size="10.00" fill="#000000">/g4simulation/g4b0/EICG4B0Detector</text>
<text text-anchor="middle" x="342" y="-7.5" font-family="FreeSans" font-size="10.00" fill="#000000">_Pipe.cc</text>
</a>
</g>
</g>
<!-- Node1&#45;&gt;Node3 -->
<g id="edge2" class="edge">
<title>Node1&#45;&gt;Node3</title>
<path fill="none" stroke="#191970" d="M418.086,-87.0795C405.3696,-77.289 391.1425,-66.3354 378.4624,-56.5728"/>
<polygon fill="#191970" stroke="#191970" points="416.1341,-89.9939 426.1929,-93.3211 420.4045,-84.4473 416.1341,-89.9939"/>
</g>
<!-- Node4 -->
<g id="node4" class="node">
<title>Node4</title>
<g id="a_node4"><a xlink:href="../../da/d63/EICG4B0SteppingAction_8cc.html" target="_top" xlink:title="fun4all_eicdetectors\l/blob/master/simulation\l/g4simulation/g4b0/EICG4B0Stepping\lAction.cc">
<polygon fill="none" stroke="#000000" points="464,-.5 464,-56.5 672,-56.5 672,-.5 464,-.5"/>
<text text-anchor="start" x="472" y="-43.5" font-family="FreeSans" font-size="10.00" fill="#000000">fun4all_eicdetectors</text>
<text text-anchor="start" x="472" y="-31.5" font-family="FreeSans" font-size="10.00" fill="#000000">/blob/master/simulation</text>
<text text-anchor="start" x="472" y="-19.5" font-family="FreeSans" font-size="10.00" fill="#000000">/g4simulation/g4b0/EICG4B0Stepping</text>
<text text-anchor="middle" x="568" y="-7.5" font-family="FreeSans" font-size="10.00" fill="#000000">Action.cc</text>
</a>
</g>
</g>
<!-- Node1&#45;&gt;Node4 -->
<g id="edge3" class="edge">
<title>Node1&#45;&gt;Node4</title>
<path fill="none" stroke="#191970" d="M491.914,-87.0795C504.6304,-77.289 518.8575,-66.3354 531.5376,-56.5728"/>
<polygon fill="#191970" stroke="#191970" points="489.5955,-84.4473 483.8071,-93.3211 493.8659,-89.9939 489.5955,-84.4473"/>
</g>
<!-- Node5 -->
<g id="node5" class="node">
<title>Node5</title>
<g id="a_node5"><a xlink:href="../../d5/d62/EICG4B0Subsystem_8cc.html" target="_top" xlink:title="fun4all_eicdetectors\l/blob/master/simulation\l/g4simulation/g4b0/EICG4B0Subsystem.cc">
<polygon fill="none" stroke="#000000" points="690.5,-6.5 690.5,-50.5 923.5,-50.5 923.5,-6.5 690.5,-6.5"/>
<text text-anchor="start" x="698.5" y="-37.5" font-family="FreeSans" font-size="10.00" fill="#000000">fun4all_eicdetectors</text>
<text text-anchor="start" x="698.5" y="-25.5" font-family="FreeSans" font-size="10.00" fill="#000000">/blob/master/simulation</text>
<text text-anchor="middle" x="807" y="-13.5" font-family="FreeSans" font-size="10.00" fill="#000000">/g4simulation/g4b0/EICG4B0Subsystem.cc</text>
</a>
</g>
</g>
<!-- Node1&#45;&gt;Node5 -->
<g id="edge4" class="edge">
<title>Node1&#45;&gt;Node5</title>
<path fill="none" stroke="#191970" d="M554.0841,-91.0105C605.5295,-78.2953 667.8899,-62.8823 717.8156,-50.5427"/>
<polygon fill="#191970" stroke="#191970" points="553.1476,-87.6365 544.2795,-93.4338 554.8272,-94.4321 553.1476,-87.6365"/>
</g>
</g>
</svg>
