<?xml version="1.0" encoding="UTF-8" standalone="no"?>
<!DOCTYPE svg PUBLIC "-//W3C//DTD SVG 1.1//EN"
 "http://www.w3.org/Graphics/SVG/1.1/DTD/svg11.dtd">
<!-- Generated by graphviz version 2.40.1 (20161225.0304)
 -->
<!-- Title: material_scan Pages: 1 -->
<svg width="499pt" height="341pt"
 viewBox="0.00 0.00 499.00 341.00" xmlns="http://www.w3.org/2000/svg" xmlns:xlink="http://www.w3.org/1999/xlink">
<g id="graph0" class="graph" transform="scale(1 1) rotate(0) translate(4 337)">
<title>material_scan</title>
<!-- Node1 -->
<g id="node1" class="node">
<title>Node1</title>
<polygon fill="#bfbfbf" stroke="#000000" points="0,-156.5 0,-176.5 86,-176.5 86,-156.5 0,-156.5"/>
<text text-anchor="middle" x="43" y="-163.5" font-family="FreeSans" font-size="10.00" fill="#000000">material_scan</text>
</g>
<!-- Node2 -->
<g id="node2" class="node">
<title>Node2</title>
<g id="a_node2"><a xlink:href="../../db/d5d/test__style_8C.html#a82fd57a94fc00b72103f68240951b7b4" target="_top" xlink:title="AddEntry">
<polygon fill="none" stroke="#000000" points="140.5,-312.5 140.5,-332.5 204.5,-332.5 204.5,-312.5 140.5,-312.5"/>
<text text-anchor="middle" x="172.5" y="-319.5" font-family="FreeSans" font-size="10.00" fill="#000000">AddEntry</text>
</a>
</g>
</g>
<!-- Node1&#45;&gt;Node2 -->
<g id="edge1" class="edge">
<title>Node1&#45;&gt;Node2</title>
<path fill="none" stroke="#191970" d="M46.7929,-176.678C56.1592,-200.6106 82.5241,-261.1711 122,-297.5 126.1841,-301.3506 131.0716,-304.7414 136.1274,-307.6827"/>
<polygon fill="#191970" stroke="#191970" points="134.8128,-310.9455 145.2939,-312.4939 138.066,-304.7474 134.8128,-310.9455"/>
</g>
<!-- Node3 -->
<g id="node3" class="node">
<title>Node3</title>
<g id="a_node3"><a xlink:href="../../dd/dbc/g4lblvtx_2blob_2master_2macros_2materialscan_2plot__matscan_8C.html#a15dc18e69054a2fc5074ba4ca9d37f79" target="_top" xlink:title="CreatePlots">
<polygon fill="none" stroke="#000000" points="135.5,-234.5 135.5,-254.5 209.5,-254.5 209.5,-234.5 135.5,-234.5"/>
<text text-anchor="middle" x="172.5" y="-241.5" font-family="FreeSans" font-size="10.00" fill="#000000">CreatePlots</text>
</a>
</g>
</g>
<!-- Node1&#45;&gt;Node3 -->
<g id="edge2" class="edge">
<title>Node1&#45;&gt;Node3</title>
<path fill="none" stroke="#191970" d="M54.6632,-176.561C69.5318,-189.0229 96.3904,-210.3362 122,-224.5 125.7598,-226.5794 129.7809,-228.5522 133.8512,-230.3903"/>
<polygon fill="#191970" stroke="#191970" points="132.7658,-233.732 143.3382,-234.4221 135.5038,-227.2896 132.7658,-233.732"/>
</g>
<!-- Node6 -->
<g id="node6" class="node">
<title>Node6</title>
<g id="a_node6"><a xlink:href="../../d4/de6/b0rp_2acceptance_8C.html#a4450bdeb872391dc3cf8a48a879d3750" target="_top" xlink:title="SetLineColor">
<polygon fill="none" stroke="#000000" points="409,-283.5 409,-303.5 490,-303.5 490,-283.5 409,-283.5"/>
<text text-anchor="middle" x="449.5" y="-290.5" font-family="FreeSans" font-size="10.00" fill="#000000">SetLineColor</text>
</a>
</g>
</g>
<!-- Node1&#45;&gt;Node6 -->
<g id="edge14" class="edge">
<title>Node1&#45;&gt;Node6</title>
<path fill="none" stroke="#191970" d="M47.7927,-176.6901C58.0792,-197.2612 84.4268,-243.4911 122,-263.5 210.4394,-310.5967 331.5274,-307.2205 398.9418,-300.4389"/>
<polygon fill="#191970" stroke="#191970" points="399.3174,-303.9188 408.8879,-299.374 398.5721,-296.9586 399.3174,-303.9188"/>
</g>
<!-- Node10 -->
<g id="node10" class="node">
<title>Node10</title>
<g id="a_node10"><a xlink:href="../../d4/de6/b0rp_2acceptance_8C.html#a80bc09d42f252a7e88dd58cd2b99e621" target="_top" xlink:title="Draw">
<polygon fill="none" stroke="#000000" points="151,-195.5 151,-215.5 194,-215.5 194,-195.5 151,-195.5"/>
<text text-anchor="middle" x="172.5" y="-202.5" font-family="FreeSans" font-size="10.00" fill="#000000">Draw</text>
</a>
</g>
</g>
<!-- Node1&#45;&gt;Node10 -->
<g id="edge9" class="edge">
<title>Node1&#45;&gt;Node10</title>
<path fill="none" stroke="#191970" d="M76.3495,-176.5435C96.2604,-182.5398 121.3983,-190.1103 140.9767,-196.0065"/>
<polygon fill="#191970" stroke="#191970" points="140.0666,-199.3876 150.6511,-198.92 142.0852,-192.685 140.0666,-199.3876"/>
</g>
<!-- Node11 -->
<g id="node11" class="node">
<title>Node11</title>
<g id="a_node11"><a xlink:href="../../db/d5d/test__style_8C.html#a5dcd1d1376a077de14f84bb875207fb2" target="_top" xlink:title="leg">
<polygon fill="none" stroke="#000000" points="157,-156.5 157,-176.5 188,-176.5 188,-156.5 157,-156.5"/>
<text text-anchor="middle" x="172.5" y="-163.5" font-family="FreeSans" font-size="10.00" fill="#000000">leg</text>
</a>
</g>
</g>
<!-- Node1&#45;&gt;Node11 -->
<g id="edge10" class="edge">
<title>Node1&#45;&gt;Node11</title>
<path fill="none" stroke="#191970" d="M86.1216,-166.5C106.0393,-166.5 129.0417,-166.5 146.2991,-166.5"/>
<polygon fill="#191970" stroke="#191970" points="146.72,-170.0001 156.7199,-166.5 146.7199,-163.0001 146.72,-170.0001"/>
</g>
<!-- Node12 -->
<g id="node12" class="node">
<title>Node12</title>
<g id="a_node12"><a xlink:href="../../dd/dbc/g4lblvtx_2blob_2master_2macros_2materialscan_2plot__matscan_8C.html#a7bf8dfc2eff09e19875a58eab32f7fec" target="_top" xlink:title="LoadData">
<polygon fill="none" stroke="#000000" points="140.5,-117.5 140.5,-137.5 204.5,-137.5 204.5,-117.5 140.5,-117.5"/>
<text text-anchor="middle" x="172.5" y="-124.5" font-family="FreeSans" font-size="10.00" fill="#000000">LoadData</text>
</a>
</g>
</g>
<!-- Node1&#45;&gt;Node12 -->
<g id="edge11" class="edge">
<title>Node1&#45;&gt;Node12</title>
<path fill="none" stroke="#191970" d="M76.3495,-156.4565C92.7628,-151.5135 112.7279,-145.5009 130.2028,-140.2381"/>
<polygon fill="#191970" stroke="#191970" points="131.5924,-143.475 140.1583,-137.24 129.5738,-136.7724 131.5924,-143.475"/>
</g>
<!-- Node13 -->
<g id="node13" class="node">
<title>Node13</title>
<g id="a_node13"><a xlink:href="../../dd/dbc/g4lblvtx_2blob_2master_2macros_2materialscan_2plot__matscan_8C.html#a2af14b6d10f41d871c2f8705749cbb3d" target="_top" xlink:title="PrepareVariables">
<polygon fill="none" stroke="#000000" points="122,-78.5 122,-98.5 223,-98.5 223,-78.5 122,-78.5"/>
<text text-anchor="middle" x="172.5" y="-85.5" font-family="FreeSans" font-size="10.00" fill="#000000">PrepareVariables</text>
</a>
</g>
</g>
<!-- Node1&#45;&gt;Node13 -->
<g id="edge12" class="edge">
<title>Node1&#45;&gt;Node13</title>
<path fill="none" stroke="#191970" d="M54.3354,-156.3985C69.0761,-143.6617 96.0204,-121.7151 122,-107.5 125.2742,-105.7085 128.7525,-104.0143 132.2921,-102.4307"/>
<polygon fill="#191970" stroke="#191970" points="133.8233,-105.5844 141.7065,-98.5058 131.1297,-99.1234 133.8233,-105.5844"/>
</g>
<!-- Node14 -->
<g id="node14" class="node">
<title>Node14</title>
<g id="a_node14"><a xlink:href="../../db/d5d/test__style_8C.html#aa587a93d9563c8d433bd1736432c4acd" target="_top" xlink:title="Print">
<polygon fill="none" stroke="#000000" points="152.5,-39.5 152.5,-59.5 192.5,-59.5 192.5,-39.5 152.5,-39.5"/>
<text text-anchor="middle" x="172.5" y="-46.5" font-family="FreeSans" font-size="10.00" fill="#000000">Print</text>
</a>
</g>
</g>
<!-- Node1&#45;&gt;Node14 -->
<g id="edge13" class="edge">
<title>Node1&#45;&gt;Node14</title>
<path fill="none" stroke="#191970" d="M48.6116,-156.4113C59.9915,-136.813 87.6455,-93.3434 122,-68.5 128.1579,-64.0469 135.4843,-60.5082 142.6202,-57.7514"/>
<polygon fill="#191970" stroke="#191970" points="143.8026,-61.0459 152.1053,-54.4644 141.5105,-54.4318 143.8026,-61.0459"/>
</g>
<!-- Node15 -->
<g id="node15" class="node">
<title>Node15</title>
<g id="a_node15"><a xlink:href="../../db/d5d/test__style_8C.html#a9235e4b48ac9489a6390b40f8875c2b7" target="_top" xlink:title="SetRightMargin">
<polygon fill="none" stroke="#000000" points="126,-.5 126,-20.5 219,-20.5 219,-.5 126,-.5"/>
<text text-anchor="middle" x="172.5" y="-7.5" font-family="FreeSans" font-size="10.00" fill="#000000">SetRightMargin</text>
</a>
</g>
</g>
<!-- Node1&#45;&gt;Node15 -->
<g id="edge15" class="edge">
<title>Node1&#45;&gt;Node15</title>
<path fill="none" stroke="#191970" d="M46.1688,-156.3249C54.4867,-131.2208 79.2984,-65.7447 122,-29.5 123.7118,-28.0471 125.5457,-26.6997 127.4639,-25.4507"/>
<polygon fill="#191970" stroke="#191970" points="129.2269,-28.4755 136.2962,-20.5839 125.8487,-22.3446 129.2269,-28.4755"/>
</g>
<!-- Node4 -->
<g id="node4" class="node">
<title>Node4</title>
<g id="a_node4"><a xlink:href="../../dd/dbc/g4lblvtx_2blob_2master_2macros_2materialscan_2plot__matscan_8C.html#ace990f3d0a6c7f2db4f314aa777465fd" target="_top" xlink:title="PrettyTGraphErrors">
<polygon fill="none" stroke="#000000" points="259,-224.5 259,-244.5 372,-244.5 372,-224.5 259,-224.5"/>
<text text-anchor="middle" x="315.5" y="-231.5" font-family="FreeSans" font-size="10.00" fill="#000000">PrettyTGraphErrors</text>
</a>
</g>
</g>
<!-- Node3&#45;&gt;Node4 -->
<g id="edge3" class="edge">
<title>Node3&#45;&gt;Node4</title>
<path fill="none" stroke="#191970" d="M209.6983,-241.8987C221.6343,-241.064 235.2417,-240.1125 248.6316,-239.1761"/>
<polygon fill="#191970" stroke="#191970" points="249.0658,-242.6544 258.7973,-238.4652 248.5775,-235.6714 249.0658,-242.6544"/>
</g>
<!-- Node5 -->
<g id="node5" class="node">
<title>Node5</title>
<g id="a_node5"><a xlink:href="../../d4/de6/b0rp_2acceptance_8C.html#a6d6f520d9cc7efb2d47d87e148e3e872" target="_top" xlink:title="GetXaxis">
<polygon fill="none" stroke="#000000" points="419,-244.5 419,-264.5 480,-264.5 480,-244.5 419,-244.5"/>
<text text-anchor="middle" x="449.5" y="-251.5" font-family="FreeSans" font-size="10.00" fill="#000000">GetXaxis</text>
</a>
</g>
</g>
<!-- Node4&#45;&gt;Node5 -->
<g id="edge4" class="edge">
<title>Node4&#45;&gt;Node5</title>
<path fill="none" stroke="#191970" d="M372.3281,-242.9818C384.5614,-244.8077 397.258,-246.7027 408.7349,-248.4157"/>
<polygon fill="#191970" stroke="#191970" points="408.4766,-251.9158 418.8837,-249.9304 409.5099,-244.9925 408.4766,-251.9158"/>
</g>
<!-- Node4&#45;&gt;Node6 -->
<g id="edge5" class="edge">
<title>Node4&#45;&gt;Node6</title>
<path fill="none" stroke="#191970" d="M338.2313,-244.5085C359.9846,-254.0865 393.0071,-268.6263 417.4316,-279.3803"/>
<polygon fill="#191970" stroke="#191970" points="416.0947,-282.6159 426.6572,-283.4424 418.9155,-276.2094 416.0947,-282.6159"/>
</g>
<!-- Node7 -->
<g id="node7" class="node">
<title>Node7</title>
<g id="a_node7"><a xlink:href="../../d4/de6/b0rp_2acceptance_8C.html#a4ea6598892cde60472fd8cbc73aef51a" target="_top" xlink:title="SetLineWidth">
<polygon fill="none" stroke="#000000" points="408,-205.5 408,-225.5 491,-225.5 491,-205.5 408,-205.5"/>
<text text-anchor="middle" x="449.5" y="-212.5" font-family="FreeSans" font-size="10.00" fill="#000000">SetLineWidth</text>
</a>
</g>
</g>
<!-- Node4&#45;&gt;Node7 -->
<g id="edge6" class="edge">
<title>Node4&#45;&gt;Node7</title>
<path fill="none" stroke="#191970" d="M372.3281,-226.4423C380.7463,-225.2487 389.3839,-224.0239 397.6924,-222.8459"/>
<polygon fill="#191970" stroke="#191970" points="398.2174,-226.3065 407.627,-221.4372 397.2346,-219.3758 398.2174,-226.3065"/>
</g>
<!-- Node8 -->
<g id="node8" class="node">
<title>Node8</title>
<g id="a_node8"><a xlink:href="../../d4/de6/b0rp_2acceptance_8C.html#a2b4a8b6492d86feaddf49ac58abce8e1" target="_top" xlink:title="SetMinimum">
<polygon fill="none" stroke="#000000" points="409.5,-166.5 409.5,-186.5 489.5,-186.5 489.5,-166.5 409.5,-166.5"/>
<text text-anchor="middle" x="449.5" y="-173.5" font-family="FreeSans" font-size="10.00" fill="#000000">SetMinimum</text>
</a>
</g>
</g>
<!-- Node4&#45;&gt;Node8 -->
<g id="edge7" class="edge">
<title>Node4&#45;&gt;Node8</title>
<path fill="none" stroke="#191970" d="M338.841,-224.3972C360.3257,-215.0978 392.4192,-201.2066 416.5193,-190.7752"/>
<polygon fill="#191970" stroke="#191970" points="418.1899,-193.866 425.9769,-186.6817 415.4093,-187.4419 418.1899,-193.866"/>
</g>
<!-- Node9 -->
<g id="node9" class="node">
<title>Node9</title>
<g id="a_node9"><a xlink:href="../../d4/de6/b0rp_2acceptance_8C.html#aa4b7d724fc31042859cff3ea7f017722" target="_top" xlink:title="GetYaxis">
<polygon fill="none" stroke="#000000" points="420,-127.5 420,-147.5 479,-147.5 479,-127.5 420,-127.5"/>
<text text-anchor="middle" x="449.5" y="-134.5" font-family="FreeSans" font-size="10.00" fill="#000000">GetYaxis</text>
</a>
</g>
</g>
<!-- Node4&#45;&gt;Node9 -->
<g id="edge8" class="edge">
<title>Node4&#45;&gt;Node9</title>
<path fill="none" stroke="#191970" d="M325.5879,-224.3714C341.8511,-208.4349 375.3542,-177.1932 408,-156.5 410.3048,-155.039 412.7405,-153.6273 415.2302,-152.278"/>
<polygon fill="#191970" stroke="#191970" points="416.9875,-155.3119 424.3452,-147.6886 413.8394,-149.0597 416.9875,-155.3119"/>
</g>
</g>
</svg>
