<?xml version="1.0" encoding="UTF-8" standalone="no"?>
<!DOCTYPE svg PUBLIC "-//W3C//DTD SVG 1.1//EN"
 "http://www.w3.org/Graphics/SVG/1.1/DTD/svg11.dtd">
<!-- Generated by graphviz version 2.40.1 (20161225.0304)
 -->
<!-- Title: FairParRootFile::GetKey Pages: 1 -->
<svg width="445pt" height="41pt"
 viewBox="0.00 0.00 445.00 41.00" xmlns="http://www.w3.org/2000/svg" xmlns:xlink="http://www.w3.org/1999/xlink">
<g id="graph0" class="graph" transform="scale(1 1) rotate(0) translate(4 37)">
<title>FairParRootFile::GetKey</title>
<!-- Node1 -->
<g id="node1" class="node">
<title>Node1</title>
<polygon fill="#bfbfbf" stroke="#000000" points="0,-6.5 0,-26.5 133,-26.5 133,-6.5 0,-6.5"/>
<text text-anchor="middle" x="66.5" y="-13.5" font-family="FreeSans" font-size="10.00" fill="#000000">FairParRootFile::GetKey</text>
</g>
<!-- Node2 -->
<g id="node2" class="node">
<title>Node2</title>
<g id="a_node2"><a xlink:href="../../d1/db3/classFairDetParRootFileIo.html#a39336f9f7f3170215b3e8cf88fd8d351" target="_top" xlink:title="FairDetParRootFileIo\l::getMaxVersion">
<polygon fill="none" stroke="#000000" points="169,-.5 169,-32.5 285,-32.5 285,-.5 169,-.5"/>
<text text-anchor="start" x="177" y="-19.5" font-family="FreeSans" font-size="10.00" fill="#000000">FairDetParRootFileIo</text>
<text text-anchor="middle" x="227" y="-7.5" font-family="FreeSans" font-size="10.00" fill="#000000">::getMaxVersion</text>
</a>
</g>
</g>
<!-- Node1&#45;&gt;Node2 -->
<g id="edge1" class="edge">
<title>Node1&#45;&gt;Node2</title>
<path fill="none" stroke="#191970" d="M143.2735,-16.5C151.9201,-16.5 160.6206,-16.5 168.9725,-16.5"/>
<polygon fill="#191970" stroke="#191970" points="143.1721,-13.0001 133.1721,-16.5 143.1721,-20.0001 143.1721,-13.0001"/>
</g>
<!-- Node3 -->
<g id="node3" class="node">
<title>Node3</title>
<g id="a_node3"><a xlink:href="../../d1/db3/classFairDetParRootFileIo.html#ab0586d5d55543d4cfd8e67e274f84dc5" target="_top" xlink:title="FairDetParRootFileIo\l::write">
<polygon fill="none" stroke="#000000" points="321,-.5 321,-32.5 437,-32.5 437,-.5 321,-.5"/>
<text text-anchor="start" x="329" y="-19.5" font-family="FreeSans" font-size="10.00" fill="#000000">FairDetParRootFileIo</text>
<text text-anchor="middle" x="379" y="-7.5" font-family="FreeSans" font-size="10.00" fill="#000000">::write</text>
</a>
</g>
</g>
<!-- Node2&#45;&gt;Node3 -->
<g id="edge2" class="edge">
<title>Node2&#45;&gt;Node3</title>
<path fill="none" stroke="#191970" d="M295.5423,-16.5C303.9862,-16.5 312.5541,-16.5 320.8236,-16.5"/>
<polygon fill="#191970" stroke="#191970" points="295.3325,-13.0001 285.3325,-16.5 295.3324,-20.0001 295.3325,-13.0001"/>
</g>
</g>
</svg>
