<?xml version="1.0" encoding="UTF-8" standalone="no"?>
<!DOCTYPE svg PUBLIC "-//W3C//DTD SVG 1.1//EN"
 "http://www.w3.org/Graphics/SVG/1.1/DTD/svg11.dtd">
<!-- Generated by graphviz version 2.40.1 (20161225.0304)
 -->
<!-- Title: GFTrack::setSmoothing Pages: 1 -->
<svg width="854pt" height="95pt"
 viewBox="0.00 0.00 854.00 95.44" xmlns="http://www.w3.org/2000/svg" xmlns:xlink="http://www.w3.org/1999/xlink">
<g id="graph0" class="graph" transform="scale(1 1) rotate(0) translate(4 91.4365)">
<title>GFTrack::setSmoothing</title>
<!-- Node1 -->
<g id="node1" class="node">
<title>Node1</title>
<polygon fill="#bfbfbf" stroke="#000000" points="0,-22.5 0,-42.5 133,-42.5 133,-22.5 0,-22.5"/>
<text text-anchor="middle" x="66.5" y="-29.5" font-family="FreeSans" font-size="10.00" fill="#000000">GFTrack::setSmoothing</text>
</g>
<!-- Node2 -->
<g id="node2" class="node">
<title>Node2</title>
<g id="a_node2"><a xlink:href="../../db/d6d/classPndRecoKalmanFit.html#af5a66632d2917c60057bd37109ec7364" target="_top" xlink:title="PndRecoKalmanFit::Fit">
<polygon fill="none" stroke="#000000" points="169,-45.5 169,-65.5 297,-65.5 297,-45.5 169,-45.5"/>
<text text-anchor="middle" x="233" y="-52.5" font-family="FreeSans" font-size="10.00" fill="#000000">PndRecoKalmanFit::Fit</text>
</a>
</g>
</g>
<!-- Node1&#45;&gt;Node2 -->
<g id="edge1" class="edge">
<title>Node1&#45;&gt;Node2</title>
<path fill="none" stroke="#191970" d="M143.2727,-43.1052C151.8547,-44.2907 160.5292,-45.489 168.9282,-46.6492"/>
<polygon fill="#191970" stroke="#191970" points="143.6475,-39.6239 133.2626,-41.7225 142.6895,-46.558 143.6475,-39.6239"/>
</g>
<!-- Node6 -->
<g id="node6" class="node">
<title>Node6</title>
<g id="a_node6"><a xlink:href="../../d1/dce/classGFDaf.html#acae6182be114ea4c813d0bb8995343a4" target="_top" xlink:title="Process a track using the DAF.">
<polygon fill="none" stroke="#000000" points="173,-3.5 173,-23.5 293,-23.5 293,-3.5 173,-3.5"/>
<text text-anchor="middle" x="233" y="-10.5" font-family="FreeSans" font-size="10.00" fill="#000000">GFDaf::processTrack</text>
</a>
</g>
</g>
<!-- Node1&#45;&gt;Node6 -->
<g id="edge5" class="edge">
<title>Node1&#45;&gt;Node6</title>
<path fill="none" stroke="#191970" d="M143.4987,-23.7134C153.385,-22.5852 163.3895,-21.4435 172.9503,-20.3525"/>
<polygon fill="#191970" stroke="#191970" points="142.8012,-20.2701 133.2626,-24.8815 143.5949,-27.225 142.8012,-20.2701"/>
</g>
<!-- Node3 -->
<g id="node3" class="node">
<title>Node3</title>
<g id="a_node3"><a xlink:href="../../d7/d87/classPndRecoKalmanTask.html#aa92916b999aeaf87e99fb08734ce368e" target="_top" xlink:title="PndRecoKalmanTask::Exec">
<polygon fill="none" stroke="#000000" points="514,-45.5 514,-65.5 664,-65.5 664,-45.5 514,-45.5"/>
<text text-anchor="middle" x="589" y="-52.5" font-family="FreeSans" font-size="10.00" fill="#000000">PndRecoKalmanTask::Exec</text>
</a>
</g>
</g>
<!-- Node2&#45;&gt;Node3 -->
<g id="edge2" class="edge">
<title>Node2&#45;&gt;Node3</title>
<path fill="none" stroke="#191970" d="M272.8974,-68.3593C291.0291,-73.5558 312.8823,-78.9275 333,-81.5 396.9239,-89.6742 413.9815,-88.8975 478,-81.5 504.3465,-78.4556 533.5241,-71.4746 555.3503,-65.5123"/>
<polygon fill="#191970" stroke="#191970" points="273.8235,-64.9835 263.2417,-65.5093 271.8418,-71.6971 273.8235,-64.9835"/>
</g>
<!-- Node5 -->
<g id="node5" class="node">
<title>Node5</title>
<g id="a_node5"><a xlink:href="../../d2/d28/classPndRecoMultiKalmanTask.html#a79938b3ab7bca0cc183821c03520553a" target="_top" xlink:title="PndRecoMultiKalmanTask\l::Exec">
<polygon fill="none" stroke="#000000" points="333,-39.5 333,-71.5 478,-71.5 478,-39.5 333,-39.5"/>
<text text-anchor="start" x="341" y="-58.5" font-family="FreeSans" font-size="10.00" fill="#000000">PndRecoMultiKalmanTask</text>
<text text-anchor="middle" x="405.5" y="-46.5" font-family="FreeSans" font-size="10.00" fill="#000000">::Exec</text>
</a>
</g>
</g>
<!-- Node2&#45;&gt;Node5 -->
<g id="edge4" class="edge">
<title>Node2&#45;&gt;Node5</title>
<path fill="none" stroke="#191970" d="M307.4042,-55.5C315.8236,-55.5 324.3964,-55.5 332.7937,-55.5"/>
<polygon fill="#191970" stroke="#191970" points="307.2327,-52.0001 297.2326,-55.5 307.2326,-59.0001 307.2327,-52.0001"/>
</g>
<!-- Node4 -->
<g id="node4" class="node">
<title>Node4</title>
<g id="a_node4"><a xlink:href="../../d2/db6/classEicRecoKalmanTask.html#a10103a96af9664a82027040c505bfff1" target="_top" xlink:title="EicRecoKalmanTask::Exec">
<polygon fill="none" stroke="#000000" points="700,-45.5 700,-65.5 846,-65.5 846,-45.5 700,-45.5"/>
<text text-anchor="middle" x="773" y="-52.5" font-family="FreeSans" font-size="10.00" fill="#000000">EicRecoKalmanTask::Exec</text>
</a>
</g>
</g>
<!-- Node3&#45;&gt;Node4 -->
<g id="edge3" class="edge">
<title>Node3&#45;&gt;Node4</title>
<path fill="none" stroke="#191970" d="M674.156,-55.5C682.7648,-55.5 691.4539,-55.5 699.9196,-55.5"/>
<polygon fill="#191970" stroke="#191970" points="674.1053,-52.0001 664.1052,-55.5 674.1052,-59.0001 674.1053,-52.0001"/>
</g>
<!-- Node7 -->
<g id="node7" class="node">
<title>Node7</title>
<g id="a_node7"><a xlink:href="../../df/d62/classPndRecoDafFit.html#a71b624dff0fc50e252d2d2b9eed898ee" target="_top" xlink:title="PndRecoDafFit::Fit">
<polygon fill="none" stroke="#000000" points="351.5,-.5 351.5,-20.5 459.5,-20.5 459.5,-.5 351.5,-.5"/>
<text text-anchor="middle" x="405.5" y="-7.5" font-family="FreeSans" font-size="10.00" fill="#000000">PndRecoDafFit::Fit</text>
</a>
</g>
</g>
<!-- Node6&#45;&gt;Node7 -->
<g id="edge6" class="edge">
<title>Node6&#45;&gt;Node7</title>
<path fill="none" stroke="#191970" d="M303.6452,-12.2714C319.5351,-11.995 336.1561,-11.706 351.2528,-11.4434"/>
<polygon fill="#191970" stroke="#191970" points="303.2697,-8.7773 293.3321,-12.4507 303.3915,-15.7762 303.2697,-8.7773"/>
</g>
<!-- Node7&#45;&gt;Node3 -->
<g id="edge7" class="edge">
<title>Node7&#45;&gt;Node3</title>
<path fill="none" stroke="#191970" d="M456.5733,-23.0248C485.4033,-30.0948 520.9518,-38.8124 547.9565,-45.4348"/>
<polygon fill="#191970" stroke="#191970" points="457.2268,-19.5814 446.681,-20.5989 455.5596,-26.38 457.2268,-19.5814"/>
</g>
</g>
</svg>
