<?xml version="1.0" encoding="UTF-8" standalone="no"?>
<!DOCTYPE svg PUBLIC "-//W3C//DTD SVG 1.1//EN"
 "http://www.w3.org/Graphics/SVG/1.1/DTD/svg11.dtd">
<!-- Generated by graphviz version 2.40.1 (20161225.0304)
 -->
<!-- Title: fun4all_acts/blob/master/Examples/Run/HelloWorld/HelloData.hpp Pages: 1 -->
<svg width="159pt" height="110pt"
 viewBox="0.00 0.00 159.00 110.00" xmlns="http://www.w3.org/2000/svg" xmlns:xlink="http://www.w3.org/1999/xlink">
<g id="graph0" class="graph" transform="scale(1 1) rotate(0) translate(4 106)">
<title>fun4all_acts/blob/master/Examples/Run/HelloWorld/HelloData.hpp</title>
<!-- Node1 -->
<g id="node1" class="node">
<title>Node1</title>
<polygon fill="#bfbfbf" stroke="#000000" points="0,-57.5 0,-101.5 151,-101.5 151,-57.5 0,-57.5"/>
<text text-anchor="start" x="8" y="-88.5" font-family="FreeSans" font-size="10.00" fill="#000000">fun4all_acts/blob/master</text>
<text text-anchor="start" x="8" y="-76.5" font-family="FreeSans" font-size="10.00" fill="#000000">/Examples/Run/HelloWorld</text>
<text text-anchor="middle" x="75.5" y="-64.5" font-family="FreeSans" font-size="10.00" fill="#000000">/HelloData.hpp</text>
</g>
<!-- Node2 -->
<g id="node2" class="node">
<title>Node2</title>
<polygon fill="none" stroke="#bfbfbf" points="12,-.5 12,-20.5 69,-20.5 69,-.5 12,-.5"/>
<text text-anchor="middle" x="40.5" y="-7.5" font-family="FreeSans" font-size="10.00" fill="#000000">ostream</text>
</g>
<!-- Node1&#45;&gt;Node2 -->
<g id="edge1" class="edge">
<title>Node1&#45;&gt;Node2</title>
<path fill="none" stroke="#191970" d="M64.2331,-57.2882C59.7518,-48.4535 54.6432,-38.3823 50.3165,-29.8525"/>
<polygon fill="#191970" stroke="#191970" points="53.3261,-28.0486 45.6808,-20.7137 47.0833,-31.2153 53.3261,-28.0486"/>
</g>
<!-- Node3 -->
<g id="node3" class="node">
<title>Node3</title>
<polygon fill="none" stroke="#bfbfbf" points="87,-.5 87,-20.5 136,-20.5 136,-.5 87,-.5"/>
<text text-anchor="middle" x="111.5" y="-7.5" font-family="FreeSans" font-size="10.00" fill="#000000">vector</text>
</g>
<!-- Node1&#45;&gt;Node3 -->
<g id="edge2" class="edge">
<title>Node1&#45;&gt;Node3</title>
<path fill="none" stroke="#191970" d="M87.0888,-57.2882C91.6982,-48.4535 96.9527,-38.3823 101.4031,-29.8525"/>
<polygon fill="#191970" stroke="#191970" points="104.6485,-31.1985 106.1711,-20.7137 98.4424,-27.9605 104.6485,-31.1985"/>
</g>
</g>
</svg>
