<?xml version="1.0" encoding="UTF-8" standalone="no"?>
<!DOCTYPE svg PUBLIC "-//W3C//DTD SVG 1.1//EN"
 "http://www.w3.org/Graphics/SVG/1.1/DTD/svg11.dtd">
<!-- Generated by graphviz version 2.40.1 (20161225.0304)
 -->
<!-- Title: FairRunAna::AddBackgroundFile Pages: 1 -->
<svg width="1368pt" height="165pt"
 viewBox="0.00 0.00 1368.00 165.00" xmlns="http://www.w3.org/2000/svg" xmlns:xlink="http://www.w3.org/1999/xlink">
<g id="graph0" class="graph" transform="scale(1 1) rotate(0) translate(4 161)">
<title>FairRunAna::AddBackgroundFile</title>
<!-- Node1 -->
<g id="node1" class="node">
<title>Node1</title>
<polygon fill="#bfbfbf" stroke="#000000" points="0,-38.5 0,-58.5 177,-58.5 177,-38.5 0,-38.5"/>
<text text-anchor="middle" x="88.5" y="-45.5" font-family="FreeSans" font-size="10.00" fill="#000000">FairRunAna::AddBackgroundFile</text>
</g>
<!-- Node2 -->
<g id="node2" class="node">
<title>Node2</title>
<g id="a_node2"><a xlink:href="../../d0/d6c/classFairRootManager.html#aace090a21e08e4063435c8b52f063fa4" target="_top" xlink:title="FairRootManager::AddBackgroundFile">
<polygon fill="none" stroke="#000000" points="213,-58.5 213,-78.5 418,-78.5 418,-58.5 213,-58.5"/>
<text text-anchor="middle" x="315.5" y="-65.5" font-family="FreeSans" font-size="10.00" fill="#000000">FairRootManager::AddBackgroundFile</text>
</a>
</g>
</g>
<!-- Node1&#45;&gt;Node2 -->
<g id="edge1" class="edge">
<title>Node1&#45;&gt;Node2</title>
<path fill="none" stroke="#191970" d="M177.2394,-56.3185C185.6408,-57.0587 194.2324,-57.8156 202.8178,-58.5721"/>
<polygon fill="#191970" stroke="#191970" points="202.613,-62.0675 212.8816,-59.4587 203.2274,-55.0945 202.613,-62.0675"/>
</g>
<!-- Node4 -->
<g id="node4" class="node">
<title>Node4</title>
<g id="a_node4"><a xlink:href="../../db/da1/classFairLogger.html#ace1485db832f9a0c33a82fb5d9872b12" target="_top" xlink:title="FairLogger::Fatal">
<polygon fill="none" stroke="#000000" points="483,-19.5 483,-39.5 582,-39.5 582,-19.5 483,-19.5"/>
<text text-anchor="middle" x="532.5" y="-26.5" font-family="FreeSans" font-size="10.00" fill="#000000">FairLogger::Fatal</text>
</a>
</g>
</g>
<!-- Node1&#45;&gt;Node4 -->
<g id="edge19" class="edge">
<title>Node1&#45;&gt;Node4</title>
<path fill="none" stroke="#191970" d="M177.0168,-44.7121C264.6036,-40.964 396.2823,-35.3291 472.3737,-32.073"/>
<polygon fill="#191970" stroke="#191970" points="472.89,-35.5542 482.7312,-31.6297 472.5907,-28.5606 472.89,-35.5542"/>
</g>
<!-- Node3 -->
<g id="node3" class="node">
<title>Node3</title>
<g id="a_node3"><a xlink:href="../../d5/dc2/classFairFileHeader.html#ae9e3b5f1103aaa6bfea2d3eab37a5f42" target="_top" xlink:title="FairFileHeader::AddInputFile">
<polygon fill="none" stroke="#000000" points="454,-58.5 454,-78.5 611,-78.5 611,-58.5 454,-58.5"/>
<text text-anchor="middle" x="532.5" y="-65.5" font-family="FreeSans" font-size="10.00" fill="#000000">FairFileHeader::AddInputFile</text>
</a>
</g>
</g>
<!-- Node2&#45;&gt;Node3 -->
<g id="edge2" class="edge">
<title>Node2&#45;&gt;Node3</title>
<path fill="none" stroke="#191970" d="M418.2807,-68.5C426.7697,-68.5 435.3055,-68.5 443.6795,-68.5"/>
<polygon fill="#191970" stroke="#191970" points="443.7997,-72.0001 453.7997,-68.5 443.7996,-65.0001 443.7997,-72.0001"/>
</g>
<!-- Node2&#45;&gt;Node4 -->
<g id="edge3" class="edge">
<title>Node2&#45;&gt;Node4</title>
<path fill="none" stroke="#191970" d="M371.3829,-58.4565C402.4309,-52.8765 441.0635,-45.9333 472.7157,-40.2447"/>
<polygon fill="#191970" stroke="#191970" points="473.5054,-43.6589 482.7286,-38.4451 472.2671,-36.7693 473.5054,-43.6589"/>
</g>
<!-- Node14 -->
<g id="node14" class="node">
<title>Node14</title>
<g id="a_node14"><a xlink:href="../../db/da1/classFairLogger.html#a3ebc5751836771a50a11e0e2491a9f68" target="_top" xlink:title="FairLogger::Info">
<polygon fill="none" stroke="#000000" points="485.5,-97.5 485.5,-117.5 579.5,-117.5 579.5,-97.5 485.5,-97.5"/>
<text text-anchor="middle" x="532.5" y="-104.5" font-family="FreeSans" font-size="10.00" fill="#000000">FairLogger::Info</text>
</a>
</g>
</g>
<!-- Node2&#45;&gt;Node14 -->
<g id="edge16" class="edge">
<title>Node2&#45;&gt;Node14</title>
<path fill="none" stroke="#191970" d="M371.3829,-78.5435C403.2241,-84.2661 443.0424,-91.4224 475.1276,-97.1888"/>
<polygon fill="#191970" stroke="#191970" points="474.7918,-100.6845 485.2533,-99.0087 476.0301,-93.7949 474.7918,-100.6845"/>
</g>
<!-- Node5 -->
<g id="node5" class="node">
<title>Node5</title>
<g id="a_node5"><a xlink:href="../../db/da1/classFairLogger.html#aa9d98b58fab95abcf553dfefe1e572f5" target="_top" xlink:title="FairLogger::Log">
<polygon fill="none" stroke="#000000" points="670.5,-39.5 670.5,-59.5 763.5,-59.5 763.5,-39.5 670.5,-39.5"/>
<text text-anchor="middle" x="717" y="-46.5" font-family="FreeSans" font-size="10.00" fill="#000000">FairLogger::Log</text>
</a>
</g>
</g>
<!-- Node4&#45;&gt;Node5 -->
<g id="edge4" class="edge">
<title>Node4&#45;&gt;Node5</title>
<path fill="none" stroke="#191970" d="M582.4284,-34.9123C606.4403,-37.5152 635.3363,-40.6476 660.1866,-43.3414"/>
<polygon fill="#191970" stroke="#191970" points="659.8854,-46.8291 670.2044,-44.4273 660.6398,-39.8699 659.8854,-46.8291"/>
</g>
<!-- Node6 -->
<g id="node6" class="node">
<title>Node6</title>
<g id="a_node6"><a xlink:href="../../db/da1/classFairLogger.html#a496d9b3f72963d24a58abc5a023b74b0" target="_top" xlink:title="End of the line.">
<polygon fill="none" stroke="#000000" points="857,-117.5 857,-137.5 954,-137.5 954,-117.5 857,-117.5"/>
<text text-anchor="middle" x="905.5" y="-124.5" font-family="FreeSans" font-size="10.00" fill="#000000">FairLogger::endl</text>
</a>
</g>
</g>
<!-- Node5&#45;&gt;Node6 -->
<g id="edge5" class="edge">
<title>Node5&#45;&gt;Node6</title>
<path fill="none" stroke="#191970" d="M741.2572,-59.5375C774.3913,-73.2481 833.9653,-97.8994 871.529,-113.443"/>
<polygon fill="#191970" stroke="#191970" points="870.4589,-116.788 881.0373,-117.3775 873.1354,-110.3199 870.4589,-116.788"/>
</g>
<!-- Node10 -->
<g id="node10" class="node">
<title>Node10</title>
<g id="a_node10"><a xlink:href="../../db/da1/classFairLogger.html#aeb76e4a75fe913ebdf1c07b5d1f3ac1b" target="_top" xlink:title="FairLogger::GetOutputStream">
<polygon fill="none" stroke="#000000" points="823,-39.5 823,-59.5 988,-59.5 988,-39.5 823,-39.5"/>
<text text-anchor="middle" x="905.5" y="-46.5" font-family="FreeSans" font-size="10.00" fill="#000000">FairLogger::GetOutputStream</text>
</a>
</g>
</g>
<!-- Node5&#45;&gt;Node10 -->
<g id="edge10" class="edge">
<title>Node5&#45;&gt;Node10</title>
<path fill="none" stroke="#191970" d="M763.5955,-49.5C778.542,-49.5 795.6583,-49.5 812.7109,-49.5"/>
<polygon fill="#191970" stroke="#191970" points="812.7269,-53.0001 822.7269,-49.5 812.7268,-46.0001 812.7269,-53.0001"/>
</g>
<!-- Node11 -->
<g id="node11" class="node">
<title>Node11</title>
<g id="a_node11"><a xlink:href="../../db/da1/classFairLogger.html#a5529c6ab25bc075aff767f30a743e616" target="_top" xlink:title="FairLogger::OpenLogFile">
<polygon fill="none" stroke="#000000" points="1036.5,-.5 1036.5,-20.5 1173.5,-20.5 1173.5,-.5 1036.5,-.5"/>
<text text-anchor="middle" x="1105" y="-7.5" font-family="FreeSans" font-size="10.00" fill="#000000">FairLogger::OpenLogFile</text>
</a>
</g>
</g>
<!-- Node5&#45;&gt;Node11 -->
<g id="edge15" class="edge">
<title>Node5&#45;&gt;Node11</title>
<path fill="none" stroke="#191970" d="M763.5099,-39.4827C781.9538,-35.8363 803.4013,-32.0001 823,-29.5 891.276,-20.7903 969.3948,-15.9209 1026.0719,-13.2983"/>
<polygon fill="#191970" stroke="#191970" points="1026.5653,-16.7797 1036.3981,-12.8343 1026.251,-9.7868 1026.5653,-16.7797"/>
</g>
<!-- Node7 -->
<g id="node7" class="node">
<title>Node7</title>
<g id="a_node7"><a xlink:href="../../db/da1/classFairLogger.html#aca7a4fd0af5e622c9635f62996a7334d" target="_top" xlink:title="Flush the streams.">
<polygon fill="none" stroke="#000000" points="1241,-136.5 1241,-156.5 1341,-156.5 1341,-136.5 1241,-136.5"/>
<text text-anchor="middle" x="1291" y="-143.5" font-family="FreeSans" font-size="10.00" fill="#000000">FairLogger::flush</text>
</a>
</g>
</g>
<!-- Node6&#45;&gt;Node7 -->
<g id="edge6" class="edge">
<title>Node6&#45;&gt;Node7</title>
<path fill="none" stroke="#191970" d="M953.6981,-137.5131C975.1217,-141.4767 1000.7141,-145.5487 1024,-147.5 1095.7485,-153.5122 1114.0008,-147.8428 1186,-147.5 1200.3759,-147.4315 1215.8586,-147.3104 1230.402,-147.1755"/>
<polygon fill="#191970" stroke="#191970" points="1230.8308,-150.6716 1240.7966,-147.0753 1230.7633,-143.6719 1230.8308,-150.6716"/>
</g>
<!-- Node8 -->
<g id="node8" class="node">
<title>Node8</title>
<g id="a_node8"><a xlink:href="../../db/da1/classFairLogger.html#a9848989e18afa7144b47ecc38b7bfe0e" target="_top" xlink:title="FairLogger::LogFatalMessage">
<polygon fill="none" stroke="#000000" points="1024,-117.5 1024,-137.5 1186,-137.5 1186,-117.5 1024,-117.5"/>
<text text-anchor="middle" x="1105" y="-124.5" font-family="FreeSans" font-size="10.00" fill="#000000">FairLogger::LogFatalMessage</text>
</a>
</g>
</g>
<!-- Node6&#45;&gt;Node8 -->
<g id="edge7" class="edge">
<title>Node6&#45;&gt;Node8</title>
<path fill="none" stroke="#191970" d="M954.0481,-127.5C972.0875,-127.5 993.1922,-127.5 1013.8059,-127.5"/>
<polygon fill="#191970" stroke="#191970" points="1013.8704,-131.0001 1023.8703,-127.5 1013.8703,-124.0001 1013.8704,-131.0001"/>
</g>
<!-- Node8&#45;&gt;Node7 -->
<g id="edge8" class="edge">
<title>Node8&#45;&gt;Node7</title>
<path fill="none" stroke="#191970" d="M1186.0412,-135.7784C1201.0087,-137.3073 1216.3965,-138.8792 1230.6188,-140.332"/>
<polygon fill="#191970" stroke="#191970" points="1230.4422,-143.8321 1240.7462,-141.3665 1231.1536,-136.8684 1230.4422,-143.8321"/>
</g>
<!-- Node9 -->
<g id="node9" class="node">
<title>Node9</title>
<g id="a_node9"><a xlink:href="../../db/da1/classFairLogger.html#a6fe59f109418f1331c91c39d0ea33c1d" target="_top" xlink:title="FairLogger::GetTime">
<polygon fill="none" stroke="#000000" points="1232,-78.5 1232,-98.5 1350,-98.5 1350,-78.5 1232,-78.5"/>
<text text-anchor="middle" x="1291" y="-85.5" font-family="FreeSans" font-size="10.00" fill="#000000">FairLogger::GetTime</text>
</a>
</g>
</g>
<!-- Node8&#45;&gt;Node9 -->
<g id="edge9" class="edge">
<title>Node8&#45;&gt;Node9</title>
<path fill="none" stroke="#191970" d="M1152.8996,-117.4565C1177.4158,-112.316 1207.4492,-106.0187 1233.2394,-100.6111"/>
<polygon fill="#191970" stroke="#191970" points="1234.1938,-103.9872 1243.2627,-98.5094 1232.7572,-97.1362 1234.1938,-103.9872"/>
</g>
<!-- Node10&#45;&gt;Node9 -->
<g id="edge11" class="edge">
<title>Node10&#45;&gt;Node9</title>
<path fill="none" stroke="#191970" d="M988.2702,-53.0535C1044.2464,-56.0323 1119.7583,-61.1698 1186,-69.5 1200.8594,-71.3686 1216.8051,-73.9519 1231.6691,-76.612"/>
<polygon fill="#191970" stroke="#191970" points="1231.2934,-80.1013 1241.7601,-78.4581 1232.5532,-73.2156 1231.2934,-80.1013"/>
</g>
<!-- Node10&#45;&gt;Node11 -->
<g id="edge12" class="edge">
<title>Node10&#45;&gt;Node11</title>
<path fill="none" stroke="#191970" d="M956.8762,-39.4565C983.4045,-34.2706 1015.9556,-27.9072 1043.7804,-22.4677"/>
<polygon fill="#191970" stroke="#191970" points="1044.6552,-25.8631 1053.7979,-20.5094 1043.3121,-18.9931 1044.6552,-25.8631"/>
</g>
<!-- Node13 -->
<g id="node13" class="node">
<title>Node13</title>
<g id="a_node13"><a xlink:href="../../dc/de5/PHG4mRICHDetector_8cc.html#a11ded6fc3d3fab0e72612c3886df87a0" target="_top" xlink:title="pos">
<polygon fill="none" stroke="#000000" points="1088,-78.5 1088,-98.5 1122,-98.5 1122,-78.5 1088,-78.5"/>
<text text-anchor="middle" x="1105" y="-85.5" font-family="FreeSans" font-size="10.00" fill="#000000">pos</text>
</a>
</g>
</g>
<!-- Node10&#45;&gt;Node13 -->
<g id="edge14" class="edge">
<title>Node10&#45;&gt;Node13</title>
<path fill="none" stroke="#191970" d="M956.8762,-59.5435C995.5006,-67.0941 1046.8925,-77.1406 1077.8753,-83.1974"/>
<polygon fill="#191970" stroke="#191970" points="1077.443,-86.6791 1087.9288,-85.1628 1078.7861,-79.8091 1077.443,-86.6791"/>
</g>
<!-- Node12 -->
<g id="node12" class="node">
<title>Node12</title>
<g id="a_node12"><a xlink:href="../../db/da1/classFairLogger.html#a80d1ac93eff9a9b6d52f8118b8b796aa" target="_top" xlink:title="FairLogger::CloseLogFile">
<polygon fill="none" stroke="#000000" points="1222,-.5 1222,-20.5 1360,-20.5 1360,-.5 1222,-.5"/>
<text text-anchor="middle" x="1291" y="-7.5" font-family="FreeSans" font-size="10.00" fill="#000000">FairLogger::CloseLogFile</text>
</a>
</g>
</g>
<!-- Node11&#45;&gt;Node12 -->
<g id="edge13" class="edge">
<title>Node11&#45;&gt;Node12</title>
<path fill="none" stroke="#191970" d="M1173.7311,-10.5C1186.1428,-10.5 1199.1747,-10.5 1211.855,-10.5"/>
<polygon fill="#191970" stroke="#191970" points="1211.9305,-14.0001 1221.9305,-10.5 1211.9304,-7.0001 1211.9305,-14.0001"/>
</g>
<!-- Node14&#45;&gt;Node5 -->
<g id="edge18" class="edge">
<title>Node14&#45;&gt;Node5</title>
<path fill="none" stroke="#191970" d="M577.9871,-97.4304C588.8683,-94.7631 600.4012,-91.7208 611,-88.5 635.185,-81.1507 661.8904,-71.3142 682.4457,-63.3587"/>
<polygon fill="#191970" stroke="#191970" points="683.9642,-66.5231 692.0044,-59.6235 681.4164,-60.0032 683.9642,-66.5231"/>
</g>
<!-- Node15 -->
<g id="node15" class="node">
<title>Node15</title>
<g id="a_node15"><a xlink:href="../../db/da1/classFairLogger.html#ae5a926d95789678b453cbb45e0a9a46e" target="_top" xlink:title="FairLogger::IsLogNeeded">
<polygon fill="none" stroke="#000000" points="647,-97.5 647,-117.5 787,-117.5 787,-97.5 647,-97.5"/>
<text text-anchor="middle" x="717" y="-104.5" font-family="FreeSans" font-size="10.00" fill="#000000">FairLogger::IsLogNeeded</text>
</a>
</g>
</g>
<!-- Node14&#45;&gt;Node15 -->
<g id="edge17" class="edge">
<title>Node14&#45;&gt;Node15</title>
<path fill="none" stroke="#191970" d="M579.5345,-107.5C596.8994,-107.5 617.104,-107.5 636.5918,-107.5"/>
<polygon fill="#191970" stroke="#191970" points="636.6985,-111.0001 646.6985,-107.5 636.6984,-104.0001 636.6985,-111.0001"/>
</g>
</g>
</svg>
