<?xml version="1.0" encoding="UTF-8" standalone="no"?>
<!DOCTYPE svg PUBLIC "-//W3C//DTD SVG 1.1//EN"
 "http://www.w3.org/Graphics/SVG/1.1/DTD/svg11.dtd">
<!-- Generated by graphviz version 2.40.1 (20161225.0304)
 -->
<!-- Title: FairRunAna::Reinit Pages: 1 -->
<svg width="722pt" height="205pt"
 viewBox="0.00 0.00 722.00 205.00" xmlns="http://www.w3.org/2000/svg" xmlns:xlink="http://www.w3.org/1999/xlink">
<g id="graph0" class="graph" transform="scale(1 1) rotate(0) translate(4 201)">
<title>FairRunAna::Reinit</title>
<!-- Node1 -->
<g id="node1" class="node">
<title>Node1</title>
<polygon fill="#bfbfbf" stroke="#000000" points="0,-45.5 0,-65.5 109,-65.5 109,-45.5 0,-45.5"/>
<text text-anchor="middle" x="54.5" y="-52.5" font-family="FreeSans" font-size="10.00" fill="#000000">FairRunAna::Reinit</text>
</g>
<!-- Node2 -->
<g id="node2" class="node">
<title>Node2</title>
<g id="a_node2"><a xlink:href="../../de/da9/classFairRunAna.html#a81ea03b6ab3f93bc51a7754d45ff5e81" target="_top" xlink:title="FairRunAna::Run">
<polygon fill="none" stroke="#000000" points="174.5,-103.5 174.5,-123.5 273.5,-123.5 273.5,-103.5 174.5,-103.5"/>
<text text-anchor="middle" x="224" y="-110.5" font-family="FreeSans" font-size="10.00" fill="#000000">FairRunAna::Run</text>
</a>
</g>
</g>
<!-- Node1&#45;&gt;Node2 -->
<g id="edge1" class="edge">
<title>Node1&#45;&gt;Node2</title>
<path fill="none" stroke="#191970" d="M93.5788,-68.8721C124.345,-79.3998 166.5614,-93.8455 194.5298,-103.4158"/>
<polygon fill="#191970" stroke="#191970" points="94.6192,-65.5289 84.0246,-65.6028 92.3529,-72.1519 94.6192,-65.5289"/>
</g>
<!-- Node8 -->
<g id="node8" class="node">
<title>Node8</title>
<g id="a_node8"><a xlink:href="../../d4/dc9/classEicRunAna.html#ac7dc03aaf6a3a43a4947888dca4ce330" target="_top" xlink:title="EicRunAna::RunCoreProcess\lNextEvent">
<polygon fill="none" stroke="#000000" points="145,-39.5 145,-71.5 303,-71.5 303,-39.5 145,-39.5"/>
<text text-anchor="start" x="153" y="-58.5" font-family="FreeSans" font-size="10.00" fill="#000000">EicRunAna::RunCoreProcess</text>
<text text-anchor="middle" x="224" y="-46.5" font-family="FreeSans" font-size="10.00" fill="#000000">NextEvent</text>
</a>
</g>
</g>
<!-- Node1&#45;&gt;Node8 -->
<g id="edge7" class="edge">
<title>Node1&#45;&gt;Node8</title>
<path fill="none" stroke="#191970" d="M119.1538,-55.5C127.5592,-55.5 136.2445,-55.5 144.8523,-55.5"/>
<polygon fill="#191970" stroke="#191970" points="119.0639,-52.0001 109.0639,-55.5 119.0638,-59.0001 119.0639,-52.0001"/>
</g>
<!-- Node12 -->
<g id="node12" class="node">
<title>Node12</title>
<g id="a_node12"><a xlink:href="../../de/da9/classFairRunAna.html#a9751fc3d4f10d315c3675f5f5d0f8242" target="_top" xlink:title="FairRunAna::RunOneEvent">
<polygon fill="none" stroke="#000000" points="149,-.5 149,-20.5 299,-20.5 299,-.5 149,-.5"/>
<text text-anchor="middle" x="224" y="-7.5" font-family="FreeSans" font-size="10.00" fill="#000000">FairRunAna::RunOneEvent</text>
</a>
</g>
</g>
<!-- Node1&#45;&gt;Node12 -->
<g id="edge11" class="edge">
<title>Node1&#45;&gt;Node12</title>
<path fill="none" stroke="#191970" d="M99.8208,-42.7743C114.2445,-38.7796 130.2764,-34.3969 145,-30.5 157.5829,-27.1697 171.3247,-23.65 183.7674,-20.5072"/>
<polygon fill="#191970" stroke="#191970" points="98.8262,-39.418 90.128,-45.4672 100.7,-46.1626 98.8262,-39.418"/>
</g>
<!-- Node3 -->
<g id="node3" class="node">
<title>Node3</title>
<g id="a_node3"><a xlink:href="../../d9/da4/classFairEventManager.html#aab0c816ae46a76529c8138907a071e6e" target="_top" xlink:title="FairEventManager::GotoEvent">
<polygon fill="none" stroke="#000000" points="339,-159.5 339,-179.5 507,-179.5 507,-159.5 339,-159.5"/>
<text text-anchor="middle" x="423" y="-166.5" font-family="FreeSans" font-size="10.00" fill="#000000">FairEventManager::GotoEvent</text>
</a>
</g>
</g>
<!-- Node2&#45;&gt;Node3 -->
<g id="edge2" class="edge">
<title>Node2&#45;&gt;Node3</title>
<path fill="none" stroke="#191970" d="M262.8067,-126.9349C284.9789,-134.3713 313.3859,-143.4975 339,-150.5 350.6822,-153.6937 363.3813,-156.7686 375.2841,-159.48"/>
<polygon fill="#191970" stroke="#191970" points="263.6849,-123.5372 253.0907,-123.6507 261.4434,-130.1686 263.6849,-123.5372"/>
</g>
<!-- Node6 -->
<g id="node6" class="node">
<title>Node6</title>
<g id="a_node6"><a xlink:href="../../d9/da4/classFairEventManager.html#ae263e6fbca434438359f8a7d3eac62a0" target="_top" xlink:title="FairEventManager::NextEvent">
<polygon fill="none" stroke="#000000" points="339.5,-120.5 339.5,-140.5 506.5,-140.5 506.5,-120.5 339.5,-120.5"/>
<text text-anchor="middle" x="423" y="-127.5" font-family="FreeSans" font-size="10.00" fill="#000000">FairEventManager::NextEvent</text>
</a>
</g>
</g>
<!-- Node2&#45;&gt;Node6 -->
<g id="edge5" class="edge">
<title>Node2&#45;&gt;Node6</title>
<path fill="none" stroke="#191970" d="M283.7144,-118.6012C301.1353,-120.0894 320.5041,-121.7441 339.1243,-123.3347"/>
<polygon fill="#191970" stroke="#191970" points="283.9644,-115.1099 273.7028,-117.746 283.3685,-122.0845 283.9644,-115.1099"/>
</g>
<!-- Node7 -->
<g id="node7" class="node">
<title>Node7</title>
<g id="a_node7"><a xlink:href="../../d9/da4/classFairEventManager.html#a335380933f9bf3f94814137f4d734745" target="_top" xlink:title="FairEventManager::PrevEvent">
<polygon fill="none" stroke="#000000" points="340.5,-81.5 340.5,-101.5 505.5,-101.5 505.5,-81.5 340.5,-81.5"/>
<text text-anchor="middle" x="423" y="-88.5" font-family="FreeSans" font-size="10.00" fill="#000000">FairEventManager::PrevEvent</text>
</a>
</g>
</g>
<!-- Node2&#45;&gt;Node7 -->
<g id="edge6" class="edge">
<title>Node2&#45;&gt;Node7</title>
<path fill="none" stroke="#191970" d="M283.8934,-106.8786C301.6317,-104.9176 321.3769,-102.7347 340.2888,-100.6439"/>
<polygon fill="#191970" stroke="#191970" points="283.2576,-103.4275 273.7028,-108.0052 284.0268,-110.3851 283.2576,-103.4275"/>
</g>
<!-- Node4 -->
<g id="node4" class="node">
<title>Node4</title>
<g id="a_node4"><a xlink:href="../../d9/d53/classFairEventManagerEditor.html#a3b18ced1913f2bea210158496423917e" target="_top" xlink:title="FairEventManagerEditor\l::SelectEvent">
<polygon fill="none" stroke="#000000" points="559.5,-164.5 559.5,-196.5 697.5,-196.5 697.5,-164.5 559.5,-164.5"/>
<text text-anchor="start" x="567.5" y="-183.5" font-family="FreeSans" font-size="10.00" fill="#000000">FairEventManagerEditor</text>
<text text-anchor="middle" x="628.5" y="-171.5" font-family="FreeSans" font-size="10.00" fill="#000000">::SelectEvent</text>
</a>
</g>
</g>
<!-- Node3&#45;&gt;Node4 -->
<g id="edge3" class="edge">
<title>Node3&#45;&gt;Node4</title>
<path fill="none" stroke="#191970" d="M517.3772,-174.5518C531.4568,-175.3055 545.7474,-176.0704 559.1822,-176.7896"/>
<polygon fill="#191970" stroke="#191970" points="517.3505,-171.0455 507.1777,-174.0059 516.9762,-178.0355 517.3505,-171.0455"/>
</g>
<!-- Node5 -->
<g id="node5" class="node">
<title>Node5</title>
<g id="a_node5"><a xlink:href="../../dc/d09/classFairBoxSetEditor.html#aca84411d7d47959a43ad8cf5ea5a09b1" target="_top" xlink:title="FairBoxSetEditor::TimeWindow">
<polygon fill="none" stroke="#000000" points="543,-125.5 543,-145.5 714,-145.5 714,-125.5 543,-125.5"/>
<text text-anchor="middle" x="628.5" y="-132.5" font-family="FreeSans" font-size="10.00" fill="#000000">FairBoxSetEditor::TimeWindow</text>
</a>
</g>
</g>
<!-- Node3&#45;&gt;Node5 -->
<g id="edge4" class="edge">
<title>Node3&#45;&gt;Node5</title>
<path fill="none" stroke="#191970" d="M493.7316,-157.7975C517.9169,-153.796 544.7318,-149.3595 568.0327,-145.5043"/>
<polygon fill="#191970" stroke="#191970" points="492.8398,-154.3973 483.5453,-159.4828 493.9825,-161.3034 492.8398,-154.3973"/>
</g>
<!-- Node9 -->
<g id="node9" class="node">
<title>Node9</title>
<g id="a_node9"><a xlink:href="../../d4/dc9/classEicRunAna.html#a1e307dd82a86ffe6a742148b388a0bab" target="_top" xlink:title="EicRunAna::Run">
<polygon fill="none" stroke="#000000" points="375,-42.5 375,-62.5 471,-62.5 471,-42.5 375,-42.5"/>
<text text-anchor="middle" x="423" y="-49.5" font-family="FreeSans" font-size="10.00" fill="#000000">EicRunAna::Run</text>
</a>
</g>
</g>
<!-- Node8&#45;&gt;Node9 -->
<g id="edge8" class="edge">
<title>Node8&#45;&gt;Node9</title>
<path fill="none" stroke="#191970" d="M313.2587,-54.1544C334.5166,-53.8339 356.4047,-53.5039 374.9862,-53.2238"/>
<polygon fill="#191970" stroke="#191970" points="313.1679,-50.6553 303.2219,-54.3057 313.2735,-57.6545 313.1679,-50.6553"/>
</g>
<!-- Node10 -->
<g id="node10" class="node">
<title>Node10</title>
<g id="a_node10"><a xlink:href="../../d8/d11/examples_2physics_2config_82_2digitization_8C.html#afd97e93afdacaf415631892fe39fdf2c" target="_top" xlink:title="digitization">
<polygon fill="none" stroke="#000000" points="592.5,-70.5 592.5,-90.5 664.5,-90.5 664.5,-70.5 592.5,-70.5"/>
<text text-anchor="middle" x="628.5" y="-77.5" font-family="FreeSans" font-size="10.00" fill="#000000">digitization</text>
</a>
</g>
</g>
<!-- Node9&#45;&gt;Node10 -->
<g id="edge9" class="edge">
<title>Node9&#45;&gt;Node10</title>
<path fill="none" stroke="#191970" d="M481.4574,-60.465C517.1016,-65.3216 561.5405,-71.3766 592.1821,-75.5516"/>
<polygon fill="#191970" stroke="#191970" points="481.5616,-56.9469 471.1806,-59.0648 480.6165,-63.8829 481.5616,-56.9469"/>
</g>
<!-- Node11 -->
<g id="node11" class="node">
<title>Node11</title>
<g id="a_node11"><a xlink:href="../../de/d0b/examples_2physics_2config_82_2reconstruction_8C.html#a3d26f5f344cf2281e72b22d404fd8c51" target="_top" xlink:title="reconstruction">
<polygon fill="none" stroke="#000000" points="584,-31.5 584,-51.5 673,-51.5 673,-31.5 584,-31.5"/>
<text text-anchor="middle" x="628.5" y="-38.5" font-family="FreeSans" font-size="10.00" fill="#000000">reconstruction</text>
</a>
</g>
</g>
<!-- Node9&#45;&gt;Node11 -->
<g id="edge10" class="edge">
<title>Node9&#45;&gt;Node11</title>
<path fill="none" stroke="#191970" d="M481.4559,-49.371C513.9624,-47.631 553.7836,-45.4994 583.7839,-43.8936"/>
<polygon fill="#191970" stroke="#191970" points="480.9792,-45.8914 471.1806,-49.921 481.3534,-52.8814 480.9792,-45.8914"/>
</g>
<!-- Node13 -->
<g id="node13" class="node">
<title>Node13</title>
<g id="a_node13"><a xlink:href="../../d8/da7/classFairAnaSelector.html#a863b9b6d4105a39603090a419d3de62d" target="_top" xlink:title="FairAnaSelector::Process">
<polygon fill="none" stroke="#000000" points="353,-.5 353,-20.5 493,-20.5 493,-.5 353,-.5"/>
<text text-anchor="middle" x="423" y="-7.5" font-family="FreeSans" font-size="10.00" fill="#000000">FairAnaSelector::Process</text>
</a>
</g>
</g>
<!-- Node12&#45;&gt;Node13 -->
<g id="edge12" class="edge">
<title>Node12&#45;&gt;Node13</title>
<path fill="none" stroke="#191970" d="M309.2374,-10.5C323.8065,-10.5 338.7922,-10.5 352.91,-10.5"/>
<polygon fill="#191970" stroke="#191970" points="309.2334,-7.0001 299.2334,-10.5 309.2333,-14.0001 309.2334,-7.0001"/>
</g>
</g>
</svg>
