<?xml version="1.0" encoding="UTF-8" standalone="no"?>
<!DOCTYPE svg PUBLIC "-//W3C//DTD SVG 1.1//EN"
 "http://www.w3.org/Graphics/SVG/1.1/DTD/svg11.dtd">
<!-- Generated by graphviz version 2.40.1 (20161225.0304)
 -->
<!-- Title: fun4all_eic_qa/blob/master/macros/G4Setup_EICDetector.C Pages: 1 -->
<svg width="3988pt" height="362pt"
 viewBox="0.00 0.00 3987.50 362.00" xmlns="http://www.w3.org/2000/svg" xmlns:xlink="http://www.w3.org/1999/xlink">
<g id="graph0" class="graph" transform="scale(1 1) rotate(0) translate(4 358)">
<title>fun4all_eic_qa/blob/master/macros/G4Setup_EICDetector.C</title>
<!-- Node1 -->
<g id="node1" class="node">
<title>Node1</title>
<polygon fill="#bfbfbf" stroke="#000000" points="2582.5,-309.5 2582.5,-353.5 2726.5,-353.5 2726.5,-309.5 2582.5,-309.5"/>
<text text-anchor="start" x="2590.5" y="-340.5" font-family="FreeSans" font-size="10.00" fill="#000000">fun4all_eic_qa/blob</text>
<text text-anchor="start" x="2590.5" y="-328.5" font-family="FreeSans" font-size="10.00" fill="#000000">/master/macros/G4Setup</text>
<text text-anchor="middle" x="2654.5" y="-316.5" font-family="FreeSans" font-size="10.00" fill="#000000">_EICDetector.C</text>
</g>
<!-- Node2 -->
<g id="node2" class="node">
<title>Node2</title>
<polygon fill="none" stroke="#bfbfbf" points="0,-246.5 0,-266.5 105,-266.5 105,-246.5 0,-246.5"/>
<text text-anchor="middle" x="52.5" y="-253.5" font-family="FreeSans" font-size="10.00" fill="#000000">GlobalVariables.C</text>
</g>
<!-- Node1&#45;&gt;Node2 -->
<g id="edge1" class="edge">
<title>Node1&#45;&gt;Node2</title>
<path fill="none" stroke="#191970" d="M2582.2939,-330.7746C2194.6758,-326.7546 368.9162,-306.1836 119.5,-273 112.1524,-272.0224 104.4426,-270.5535 96.9749,-268.8879"/>
<polygon fill="#191970" stroke="#191970" points="97.5363,-265.424 86.9985,-266.5223 95.9212,-272.2352 97.5363,-265.424"/>
</g>
<!-- Node3 -->
<g id="node3" class="node">
<title>Node3</title>
<g id="a_node3"><a xlink:href="../../de/d75/G4__Aerogel_8C.html" target="_top" xlink:title="Aerogel RICH for EIC detector.">
<polygon fill="none" stroke="#000000" points="2789.5,-126.5 2789.5,-146.5 2873.5,-146.5 2873.5,-126.5 2789.5,-126.5"/>
<text text-anchor="middle" x="2831.5" y="-133.5" font-family="FreeSans" font-size="10.00" fill="#000000">G4_Aerogel.C</text>
</a>
</g>
</g>
<!-- Node1&#45;&gt;Node3 -->
<g id="edge2" class="edge">
<title>Node1&#45;&gt;Node3</title>
<path fill="none" stroke="#191970" d="M2674.8042,-309.131C2710.2798,-270.0476 2782.8509,-190.0965 2815.251,-154.4015"/>
<polygon fill="#191970" stroke="#191970" points="2818.0996,-156.4707 2822.229,-146.7138 2812.9164,-151.766 2818.0996,-156.4707"/>
</g>
<!-- Node5 -->
<g id="node5" class="node">
<title>Node5</title>
<g id="a_node5"><a xlink:href="../../d9/d5f/EDecayType_8hh.html" target="_top" xlink:title="g4decayer/EDecayType.hh">
<polygon fill="none" stroke="#000000" points="2116.5,-.5 2116.5,-20.5 2266.5,-20.5 2266.5,-.5 2116.5,-.5"/>
<text text-anchor="middle" x="2191.5" y="-7.5" font-family="FreeSans" font-size="10.00" fill="#000000">g4decayer/EDecayType.hh</text>
</a>
</g>
</g>
<!-- Node1&#45;&gt;Node5 -->
<g id="edge169" class="edge">
<title>Node1&#45;&gt;Node5</title>
<path fill="none" stroke="#191970" d="M2582.1926,-330.111C2352.8499,-325.4498 1621.2013,-308.6151 1016.5,-273 819.8249,-261.4164 133.5,-390.5159 133.5,-193.5 133.5,-193.5 133.5,-193.5 133.5,-136.5 133.5,-89.7144 160.1643,-76.9143 202.5,-57 246.1782,-36.4542 1730.8673,-16.3258 2106.0521,-11.559"/>
<polygon fill="#191970" stroke="#191970" points="2106.3433,-15.0557 2116.2981,-11.4292 2106.2545,-8.0563 2106.3433,-15.0557"/>
</g>
<!-- Node8 -->
<g id="node8" class="node">
<title>Node8</title>
<g id="a_node8"><a xlink:href="../../d0/d2b/PHG4Reco_8h.html" target="_top" xlink:title="g4main/PHG4Reco.h">
<polygon fill="none" stroke="#ff0000" points="2691,-63.5 2691,-83.5 2810,-83.5 2810,-63.5 2691,-63.5"/>
<text text-anchor="middle" x="2750.5" y="-70.5" font-family="FreeSans" font-size="10.00" fill="#000000">g4main/PHG4Reco.h</text>
</a>
</g>
</g>
<!-- Node1&#45;&gt;Node8 -->
<g id="edge165" class="edge">
<title>Node1&#45;&gt;Node8</title>
<path fill="none" stroke="#191970" d="M2702.7397,-309.4408C2758.355,-280.9551 2846.7009,-225.5349 2882.5,-147 2886.3712,-138.5074 2887.7401,-133.7235 2882.5,-126 2872.5124,-111.2791 2831.8647,-96.4778 2798.2833,-86.3613"/>
<polygon fill="#191970" stroke="#191970" points="2799.1627,-82.9718 2788.5814,-83.5069 2797.1869,-89.6872 2799.1627,-82.9718"/>
</g>
<!-- Node9 -->
<g id="node9" class="node">
<title>Node9</title>
<polygon fill="none" stroke="#bfbfbf" points="3131.5,-.5 3131.5,-20.5 3265.5,-20.5 3265.5,-.5 3131.5,-.5"/>
<text text-anchor="middle" x="3198.5" y="-7.5" font-family="FreeSans" font-size="10.00" fill="#000000">phfield/PHFieldConfig.h</text>
</g>
<!-- Node1&#45;&gt;Node9 -->
<g id="edge168" class="edge">
<title>Node1&#45;&gt;Node9</title>
<path fill="none" stroke="#191970" d="M2726.6812,-330.6642C2978.6261,-327.3989 3805.8348,-313.6127 3844.5,-273 4018.3202,-90.425 3481.9404,-31.1868 3275.7299,-15.4372"/>
<polygon fill="#191970" stroke="#191970" points="3275.8071,-11.9333 3265.5735,-14.6763 3275.2841,-18.9137 3275.8071,-11.9333"/>
</g>
<!-- Node10 -->
<g id="node10" class="node">
<title>Node10</title>
<g id="a_node10"><a xlink:href="../../d8/d04/G4__Barrel__EIC_8C.html" target="_top" xlink:title="G4_Barrel_EIC.C">
<polygon fill="none" stroke="#000000" points="3344,-126.5 3344,-146.5 3441,-146.5 3441,-126.5 3344,-126.5"/>
<text text-anchor="middle" x="3392.5" y="-133.5" font-family="FreeSans" font-size="10.00" fill="#000000">G4_Barrel_EIC.C</text>
</a>
</g>
</g>
<!-- Node1&#45;&gt;Node10 -->
<g id="edge11" class="edge">
<title>Node1&#45;&gt;Node10</title>
<path fill="none" stroke="#191970" d="M2726.5238,-330.2792C2853.5266,-327.0438 3111.2696,-315.31 3189.5,-273 3235.0499,-248.3649 3221.1828,-212.8485 3263.5,-183 3285.3857,-167.5629 3312.9482,-156.7135 3336.9717,-149.4009"/>
<polygon fill="#191970" stroke="#191970" points="3338.052,-152.7318 3346.6758,-146.577 3336.0961,-146.0106 3338.052,-152.7318"/>
</g>
<!-- Node11 -->
<g id="node11" class="node">
<title>Node11</title>
<g id="a_node11"><a xlink:href="../../dc/dc6/PHG4CylinderSubsystem_8h.html" target="_top" xlink:title="g4detectors/PHG4Cylinder\lSubsystem.h">
<polygon fill="none" stroke="#ff0000" points="2828,-57.5 2828,-89.5 2979,-89.5 2979,-57.5 2828,-57.5"/>
<text text-anchor="start" x="2836" y="-76.5" font-family="FreeSans" font-size="10.00" fill="#000000">g4detectors/PHG4Cylinder</text>
<text text-anchor="middle" x="2903.5" y="-64.5" font-family="FreeSans" font-size="10.00" fill="#000000">Subsystem.h</text>
</a>
</g>
</g>
<!-- Node1&#45;&gt;Node11 -->
<g id="edge162" class="edge">
<title>Node1&#45;&gt;Node11</title>
<path fill="none" stroke="#191970" d="M2725.6189,-309.442C2750.12,-300.1577 2777.028,-287.984 2799.5,-273 2835.3228,-249.1138 2842.0889,-238.7578 2867.5,-204 2884.3958,-180.8896 2889.507,-174.4894 2897.5,-147 2901.9437,-131.7174 2903.4865,-113.9456 2903.898,-99.7057"/>
<polygon fill="#191970" stroke="#191970" points="2907.3988,-99.6467 2904.0213,-89.6047 2900.3994,-99.5611 2907.3988,-99.6467"/>
</g>
<!-- Node12 -->
<g id="node12" class="node">
<title>Node12</title>
<g id="a_node12"><a xlink:href="../../dc/da2/Fun4AllServer_8h.html" target="_top" xlink:title="fun4all/Fun4AllServer.h">
<polygon fill="none" stroke="#ff0000" points="2997,-63.5 2997,-83.5 3130,-83.5 3130,-63.5 2997,-63.5"/>
<text text-anchor="middle" x="3063.5" y="-70.5" font-family="FreeSans" font-size="10.00" fill="#000000">fun4all/Fun4AllServer.h</text>
</a>
</g>
</g>
<!-- Node1&#45;&gt;Node12 -->
<g id="edge172" class="edge">
<title>Node1&#45;&gt;Node12</title>
<path fill="none" stroke="#191970" d="M2726.6622,-328.3397C2877.2437,-321.2467 3220.3297,-302.3475 3333.5,-273 3465.9872,-238.6432 3540.1073,-261.8867 3614.5,-147 3672.2843,-57.7621 3244.7015,-105.3315 3139.5,-90 3131.4262,-88.8234 3122.9293,-87.2828 3114.6589,-85.6157"/>
<polygon fill="#191970" stroke="#191970" points="3115.2319,-82.1599 3104.7268,-83.5355 3113.7969,-89.0112 3115.2319,-82.1599"/>
</g>
<!-- Node15 -->
<g id="node15" class="node">
<title>Node15</title>
<g id="a_node15"><a xlink:href="../../d4/dcd/G4__BlackHole_8C.html" target="_top" xlink:title="G4_BlackHole.C">
<polygon fill="none" stroke="#000000" points="2585.5,-126.5 2585.5,-146.5 2681.5,-146.5 2681.5,-126.5 2585.5,-126.5"/>
<text text-anchor="middle" x="2633.5" y="-133.5" font-family="FreeSans" font-size="10.00" fill="#000000">G4_BlackHole.C</text>
</a>
</g>
</g>
<!-- Node1&#45;&gt;Node15 -->
<g id="edge21" class="edge">
<title>Node1&#45;&gt;Node15</title>
<path fill="none" stroke="#191970" d="M2648.213,-309.4621C2645.3687,-298.5789 2642.257,-285.1969 2640.5,-273 2634.6088,-232.1039 2633.4933,-183.6906 2633.3823,-156.9063"/>
<polygon fill="#191970" stroke="#191970" points="2636.8822,-156.8376 2633.3852,-146.8365 2629.8822,-156.8355 2636.8822,-156.8376"/>
</g>
<!-- Node16 -->
<g id="node16" class="node">
<title>Node16</title>
<g id="a_node16"><a xlink:href="../../d8/d4c/G4__CEmc__EIC_8C.html" target="_top" xlink:title="G4_CEmc_EIC.C">
<polygon fill="none" stroke="#000000" points="1980.5,-126.5 1980.5,-146.5 2076.5,-146.5 2076.5,-126.5 1980.5,-126.5"/>
<text text-anchor="middle" x="2028.5" y="-133.5" font-family="FreeSans" font-size="10.00" fill="#000000">G4_CEmc_EIC.C</text>
</a>
</g>
</g>
<!-- Node1&#45;&gt;Node16 -->
<g id="edge25" class="edge">
<title>Node1&#45;&gt;Node16</title>
<path fill="none" stroke="#191970" d="M2582.0502,-317.585C2542.1669,-308.2347 2492.5777,-293.7698 2451.5,-273 2392.9535,-243.3976 2394.9353,-208.526 2334.5,-183 2234.4109,-140.7255 2197.911,-163.7352 2086.6055,-147.0709"/>
<polygon fill="#191970" stroke="#191970" points="2087.1016,-143.606 2076.6792,-145.5101 2086.0142,-150.521 2087.1016,-143.606"/>
</g>
<!-- Node24 -->
<g id="node24" class="node">
<title>Node24</title>
<g id="a_node24"><a xlink:href="../../d8/d50/G4__DIRC_8C.html" target="_top" xlink:title="Macro setting up the barrel DIRC.">
<polygon fill="none" stroke="#000000" points="2967.5,-126.5 2967.5,-146.5 3037.5,-146.5 3037.5,-126.5 2967.5,-126.5"/>
<text text-anchor="middle" x="3002.5" y="-133.5" font-family="FreeSans" font-size="10.00" fill="#000000">G4_DIRC.C</text>
</a>
</g>
</g>
<!-- Node1&#45;&gt;Node24 -->
<g id="edge42" class="edge">
<title>Node1&#45;&gt;Node24</title>
<path fill="none" stroke="#191970" d="M2726.6842,-325.5347C2804.014,-317.7597 2920.1471,-301.6492 2953.5,-273 2988.2189,-243.1774 2998.3379,-186.8841 3001.287,-156.7486"/>
<polygon fill="#191970" stroke="#191970" points="3004.7911,-156.8374 3002.1026,-146.5893 2997.8135,-156.2772 3004.7911,-156.8374"/>
</g>
<!-- Node25 -->
<g id="node25" class="node">
<title>Node25</title>
<g id="a_node25"><a xlink:href="../../d1/d38/G4__EEMC_8C.html" target="_top" xlink:title="G4_EEMC.C">
<polygon fill="none" stroke="#000000" points="1441.5,-126.5 1441.5,-146.5 1515.5,-146.5 1515.5,-126.5 1441.5,-126.5"/>
<text text-anchor="middle" x="1478.5" y="-133.5" font-family="FreeSans" font-size="10.00" fill="#000000">G4_EEMC.C</text>
</a>
</g>
</g>
<!-- Node1&#45;&gt;Node25 -->
<g id="edge48" class="edge">
<title>Node1&#45;&gt;Node25</title>
<path fill="none" stroke="#191970" d="M2582.0984,-328.0935C2466.0753,-321.8655 2231.611,-306.1143 2035.5,-273 1841.3206,-240.2119 1614.6943,-176.6055 1521.6764,-149.376"/>
<polygon fill="#191970" stroke="#191970" points="1522.6297,-146.0082 1512.0486,-146.5476 1520.6566,-152.7244 1522.6297,-146.0082"/>
</g>
<!-- Node30 -->
<g id="node30" class="node">
<title>Node30</title>
<g id="a_node30"><a xlink:href="../../dd/dc8/G4__FEMC__EIC_8C.html" target="_top" xlink:title="G4_FEMC_EIC.C">
<polygon fill="none" stroke="#000000" points="1534,-126.5 1534,-146.5 1629,-146.5 1629,-126.5 1534,-126.5"/>
<text text-anchor="middle" x="1581.5" y="-133.5" font-family="FreeSans" font-size="10.00" fill="#000000">G4_FEMC_EIC.C</text>
</a>
</g>
</g>
<!-- Node1&#45;&gt;Node30 -->
<g id="edge63" class="edge">
<title>Node1&#45;&gt;Node30</title>
<path fill="none" stroke="#191970" d="M2582.2892,-324.8562C2490.3819,-315.8461 2326.9197,-297.9631 2188.5,-273 2017.2687,-242.1195 1977.3964,-220.5365 1807.5,-183 1750.4078,-170.3862 1684.9503,-157.0398 1639.2264,-147.8968"/>
<polygon fill="#191970" stroke="#191970" points="1639.6944,-144.4213 1629.2028,-145.8966 1638.3245,-151.2859 1639.6944,-144.4213"/>
</g>
<!-- Node32 -->
<g id="node32" class="node">
<title>Node32</title>
<g id="a_node32"><a xlink:href="../../d8/dc2/G4__FHCAL_8C.html" target="_top" xlink:title="G4_FHCAL.C">
<polygon fill="none" stroke="#000000" points="1647,-126.5 1647,-146.5 1726,-146.5 1726,-126.5 1647,-126.5"/>
<text text-anchor="middle" x="1686.5" y="-133.5" font-family="FreeSans" font-size="10.00" fill="#000000">G4_FHCAL.C</text>
</a>
</g>
</g>
<!-- Node1&#45;&gt;Node32 -->
<g id="edge76" class="edge">
<title>Node1&#45;&gt;Node32</title>
<path fill="none" stroke="#191970" d="M2582.2714,-324.6206C2506.643,-316.3806 2384.866,-300.1716 2282.5,-273 2173.5985,-244.0936 2154.9627,-209.7025 2045.5,-183 1913.906,-150.8988 1874.2097,-168.6749 1736.1329,-146.9413"/>
<polygon fill="#191970" stroke="#191970" points="1736.449,-143.4471 1726.0187,-145.307 1735.3323,-150.3574 1736.449,-143.4471"/>
</g>
<!-- Node34 -->
<g id="node34" class="node">
<title>Node34</title>
<g id="a_node34"><a xlink:href="../../d1/db0/G4__FST__EIC_8C.html" target="_top" xlink:title="G4_FST_EIC.C">
<polygon fill="none" stroke="#000000" points="3164,-126.5 3164,-146.5 3249,-146.5 3249,-126.5 3164,-126.5"/>
<text text-anchor="middle" x="3206.5" y="-133.5" font-family="FreeSans" font-size="10.00" fill="#000000">G4_FST_EIC.C</text>
</a>
</g>
</g>
<!-- Node1&#45;&gt;Node34 -->
<g id="edge89" class="edge">
<title>Node1&#45;&gt;Node34</title>
<path fill="none" stroke="#191970" d="M2726.564,-327.5327C2858.964,-319.6211 3130.4644,-300.2668 3163.5,-273 3198.3321,-244.2504 3205.3783,-187.5063 3206.5362,-157.0192"/>
<polygon fill="#191970" stroke="#191970" points="3210.0411,-156.8 3206.7373,-146.7334 3203.0424,-156.6631 3210.0411,-156.8"/>
</g>
<!-- Node35 -->
<g id="node35" class="node">
<title>Node35</title>
<g id="a_node35"><a xlink:href="../../de/d55/G4__GEM__EIC_8C.html" target="_top" xlink:title="G4_GEM_EIC.C">
<polygon fill="none" stroke="#000000" points="3055.5,-126.5 3055.5,-146.5 3145.5,-146.5 3145.5,-126.5 3055.5,-126.5"/>
<text text-anchor="middle" x="3100.5" y="-133.5" font-family="FreeSans" font-size="10.00" fill="#000000">G4_GEM_EIC.C</text>
</a>
</g>
</g>
<!-- Node1&#45;&gt;Node35 -->
<g id="edge94" class="edge">
<title>Node1&#45;&gt;Node35</title>
<path fill="none" stroke="#191970" d="M2726.5954,-324.0853C2808.7761,-314.6736 2937.2009,-296.7608 2979.5,-273 3030.5738,-244.3102 3071.0145,-185.8121 3089.5219,-155.5631"/>
<polygon fill="#191970" stroke="#191970" points="3092.6274,-157.1891 3094.7458,-146.8081 3086.6162,-153.6022 3092.6274,-157.1891"/>
</g>
<!-- Node36 -->
<g id="node36" class="node">
<title>Node36</title>
<g id="a_node36"><a xlink:href="../../dc/dda/G4__HcalIn__ref_8C.html" target="_top" xlink:title="G4_HcalIn_ref.C">
<polygon fill="none" stroke="#ff0000" points="1867,-126.5 1867,-146.5 1962,-146.5 1962,-126.5 1867,-126.5"/>
<text text-anchor="middle" x="1914.5" y="-133.5" font-family="FreeSans" font-size="10.00" fill="#000000">G4_HcalIn_ref.C</text>
</a>
</g>
</g>
<!-- Node1&#45;&gt;Node36 -->
<g id="edge99" class="edge">
<title>Node1&#45;&gt;Node36</title>
<path fill="none" stroke="#191970" d="M2582.2437,-321.7577C2531.0817,-313.1628 2461.6737,-298.0119 2404.5,-273 2339.1103,-244.3938 2338.3688,-207.9538 2271.5,-183 2148.7568,-137.1953 2106.3386,-165.7008 1972.287,-146.9851"/>
<polygon fill="#191970" stroke="#191970" points="1972.4491,-143.4717 1962.0482,-145.4894 1971.4372,-150.3982 1972.4491,-143.4717"/>
</g>
<!-- Node37 -->
<g id="node37" class="node">
<title>Node37</title>
<g id="a_node37"><a xlink:href="../../d8/d93/G4__HcalOut__ref_8C.html" target="_top" xlink:title="G4_HcalOut_ref.C">
<polygon fill="none" stroke="#ff0000" points="1744.5,-126.5 1744.5,-146.5 1848.5,-146.5 1848.5,-126.5 1744.5,-126.5"/>
<text text-anchor="middle" x="1796.5" y="-133.5" font-family="FreeSans" font-size="10.00" fill="#000000">G4_HcalOut_ref.C</text>
</a>
</g>
</g>
<!-- Node1&#45;&gt;Node37 -->
<g id="edge109" class="edge">
<title>Node1&#45;&gt;Node37</title>
<path fill="none" stroke="#191970" d="M2582.2883,-323.993C2519.4232,-315.9766 2426.5482,-300.5287 2349.5,-273 2270.4694,-244.763 2263.5905,-208.0733 2183.5,-183 2047.5127,-140.4275 2003.799,-166.1549 1858.864,-147.0874"/>
<polygon fill="#191970" stroke="#191970" points="1859.0925,-143.5862 1848.7108,-145.7008 1858.1452,-150.5219 1859.0925,-143.5862"/>
</g>
<!-- Node38 -->
<g id="node38" class="node">
<title>Node38</title>
<g id="a_node38"><a xlink:href="../../dc/d7e/G4__Input_8C.html" target="_top" xlink:title="G4_Input.C">
<polygon fill="none" stroke="#ff0000" points="2699.5,-126.5 2699.5,-146.5 2771.5,-146.5 2771.5,-126.5 2699.5,-126.5"/>
<text text-anchor="middle" x="2735.5" y="-133.5" font-family="FreeSans" font-size="10.00" fill="#000000">G4_Input.C</text>
</a>
</g>
</g>
<!-- Node1&#45;&gt;Node38 -->
<g id="edge118" class="edge">
<title>Node1&#45;&gt;Node38</title>
<path fill="none" stroke="#191970" d="M2663.7917,-309.131C2679.7524,-270.7073 2712.1206,-192.7836 2727.2977,-156.2462"/>
<polygon fill="#191970" stroke="#191970" points="2730.6535,-157.2914 2731.2574,-146.7138 2724.189,-154.6061 2730.6535,-157.2914"/>
</g>
<!-- Node39 -->
<g id="node39" class="node">
<title>Node39</title>
<g id="a_node39"><a xlink:href="../../da/d17/G4__Magnet_8C.html" target="_top" xlink:title="G4_Magnet.C">
<polygon fill="none" stroke="#000000" points="2483.5,-126.5 2483.5,-146.5 2567.5,-146.5 2567.5,-126.5 2483.5,-126.5"/>
<text text-anchor="middle" x="2525.5" y="-133.5" font-family="FreeSans" font-size="10.00" fill="#000000">G4_Magnet.C</text>
</a>
</g>
</g>
<!-- Node1&#45;&gt;Node39 -->
<g id="edge121" class="edge">
<title>Node1&#45;&gt;Node39</title>
<path fill="none" stroke="#191970" d="M2639.7021,-309.131C2614.0651,-270.3775 2561.8469,-191.443 2537.9465,-155.3145"/>
<polygon fill="#191970" stroke="#191970" points="2540.6933,-153.1229 2532.2568,-146.7138 2534.8551,-156.9851 2540.6933,-153.1229"/>
</g>
<!-- Node40 -->
<g id="node40" class="node">
<title>Node40</title>
<g id="a_node40"><a xlink:href="../../d8/d33/G4__Mvtx__EIC_8C.html" target="_top" xlink:title="G4_Mvtx_EIC.C">
<polygon fill="none" stroke="#ff0000" points="3497.5,-126.5 3497.5,-146.5 3589.5,-146.5 3589.5,-126.5 3497.5,-126.5"/>
<text text-anchor="middle" x="3543.5" y="-133.5" font-family="FreeSans" font-size="10.00" fill="#000000">G4_Mvtx_EIC.C</text>
</a>
</g>
</g>
<!-- Node1&#45;&gt;Node40 -->
<g id="edge125" class="edge">
<title>Node1&#45;&gt;Node40</title>
<path fill="none" stroke="#191970" d="M2726.6796,-328.2116C2868.2737,-321.1924 3177.5373,-302.9013 3279.5,-273 3374.9213,-245.017 3476.2919,-181.8062 3520.575,-152.2673"/>
<polygon fill="#191970" stroke="#191970" points="3522.555,-155.1535 3528.8939,-146.6642 3518.6445,-149.3476 3522.555,-155.1535"/>
</g>
<!-- Node41 -->
<g id="node41" class="node">
<title>Node41</title>
<polygon fill="none" stroke="#bfbfbf" points="3891.5,-246.5 3891.5,-266.5 3979.5,-266.5 3979.5,-246.5 3891.5,-246.5"/>
<text text-anchor="middle" x="3935.5" y="-253.5" font-family="FreeSans" font-size="10.00" fill="#000000">G4_Pipe_EIC.C</text>
</g>
<!-- Node1&#45;&gt;Node41 -->
<g id="edge131" class="edge">
<title>Node1&#45;&gt;Node41</title>
<path fill="none" stroke="#191970" d="M2726.7128,-330.2181C2954.1566,-325.8386 3653.8333,-309.6643 3877.5,-273 3883.3242,-272.0453 3889.3959,-270.7109 3895.3237,-269.2103"/>
<polygon fill="#191970" stroke="#191970" points="3896.3564,-272.5568 3905.0947,-266.5659 3894.5276,-265.7999 3896.3564,-272.5568"/>
</g>
<!-- Node42 -->
<g id="node42" class="node">
<title>Node42</title>
<g id="a_node42"><a xlink:href="../../d4/d0f/G4__PlugDoor__EIC_8C.html" target="_top" xlink:title="G4_PlugDoor_EIC.C">
<polygon fill="none" stroke="#000000" points="2352,-126.5 2352,-146.5 2465,-146.5 2465,-126.5 2352,-126.5"/>
<text text-anchor="middle" x="2408.5" y="-133.5" font-family="FreeSans" font-size="10.00" fill="#000000">G4_PlugDoor_EIC.C</text>
</a>
</g>
</g>
<!-- Node1&#45;&gt;Node42 -->
<g id="edge132" class="edge">
<title>Node1&#45;&gt;Node42</title>
<path fill="none" stroke="#191970" d="M2627.6169,-309.3063C2591.9886,-280.008 2527.0335,-226.9909 2470.5,-183 2457.341,-172.7605 2442.3937,-161.5382 2430.4729,-152.684"/>
<polygon fill="#191970" stroke="#191970" points="2432.5157,-149.8416 2422.3964,-146.7032 2428.3499,-155.4671 2432.5157,-149.8416"/>
</g>
<!-- Node43 -->
<g id="node43" class="node">
<title>Node43</title>
<g id="a_node43"><a xlink:href="../../df/d24/G4__RICH_8C.html" target="_top" xlink:title="Setup the gas RICH detector as designed in ePHENIX LOI.">
<polygon fill="none" stroke="#ff0000" points="2094.5,-126.5 2094.5,-146.5 2164.5,-146.5 2164.5,-126.5 2094.5,-126.5"/>
<text text-anchor="middle" x="2129.5" y="-133.5" font-family="FreeSans" font-size="10.00" fill="#000000">G4_RICH.C</text>
</a>
</g>
</g>
<!-- Node1&#45;&gt;Node43 -->
<g id="edge136" class="edge">
<title>Node1&#45;&gt;Node43</title>
<path fill="none" stroke="#191970" d="M2582.1892,-310.5798C2554.1821,-301.0371 2522.4425,-288.3955 2495.5,-273 2440.6552,-241.6604 2442.8456,-209.4879 2385.5,-183 2348.7907,-166.044 2238.22,-150.0617 2175.0517,-141.9842"/>
<polygon fill="#191970" stroke="#191970" points="2175.3234,-138.4908 2164.9636,-140.7098 2174.4461,-145.4356 2175.3234,-138.4908"/>
</g>
<!-- Node44 -->
<g id="node44" class="node">
<title>Node44</title>
<g id="a_node44"><a xlink:href="../../d3/d50/G4__TPC__EIC_8C.html" target="_top" xlink:title="G4_TPC_EIC.C">
<polygon fill="none" stroke="#ff0000" points="3272.5,-183.5 3272.5,-203.5 3358.5,-203.5 3358.5,-183.5 3272.5,-183.5"/>
<text text-anchor="middle" x="3315.5" y="-190.5" font-family="FreeSans" font-size="10.00" fill="#000000">G4_TPC_EIC.C</text>
</a>
</g>
</g>
<!-- Node1&#45;&gt;Node44 -->
<g id="edge139" class="edge">
<title>Node1&#45;&gt;Node44</title>
<path fill="none" stroke="#191970" d="M2726.5778,-327.3673C2874.2763,-318.4676 3201.2614,-296.3934 3246.5,-273 3272.747,-259.4274 3293.3634,-231.2874 3304.9918,-212.3948"/>
<polygon fill="#191970" stroke="#191970" points="3308.0387,-214.1183 3310.0998,-203.7258 3302.0077,-210.5646 3308.0387,-214.1183"/>
</g>
<!-- Node45 -->
<g id="node45" class="node">
<title>Node45</title>
<g id="a_node45"><a xlink:href="../../d1/d31/G4__Tracking__EIC_8C.html" target="_top" xlink:title="G4_Tracking_EIC.C">
<polygon fill="none" stroke="#ff0000" points="3045,-246.5 3045,-266.5 3154,-266.5 3154,-246.5 3045,-246.5"/>
<text text-anchor="middle" x="3099.5" y="-253.5" font-family="FreeSans" font-size="10.00" fill="#000000">G4_Tracking_EIC.C</text>
</a>
</g>
</g>
<!-- Node1&#45;&gt;Node45 -->
<g id="edge147" class="edge">
<title>Node1&#45;&gt;Node45</title>
<path fill="none" stroke="#191970" d="M2726.5324,-322.0463C2802.4395,-311.6749 2925.3344,-293.7205 3030.5,-273 3036.7651,-271.7656 3043.3225,-270.3545 3049.7968,-268.8888"/>
<polygon fill="#191970" stroke="#191970" points="3050.8975,-272.2266 3059.8485,-266.5583 3049.3164,-265.4074 3050.8975,-272.2266"/>
</g>
<!-- Node46 -->
<g id="node46" class="node">
<title>Node46</title>
<g id="a_node46"><a xlink:href="../../d1/dd8/G4__User_8C.html" target="_top" xlink:title="G4_User.C">
<polygon fill="none" stroke="#000000" points="3659.5,-183.5 3659.5,-203.5 3727.5,-203.5 3727.5,-183.5 3659.5,-183.5"/>
<text text-anchor="middle" x="3693.5" y="-190.5" font-family="FreeSans" font-size="10.00" fill="#000000">G4_User.C</text>
</a>
</g>
</g>
<!-- Node1&#45;&gt;Node46 -->
<g id="edge157" class="edge">
<title>Node1&#45;&gt;Node46</title>
<path fill="none" stroke="#191970" d="M2726.6817,-330.8639C2940.5332,-328.4745 3560.7933,-317.7232 3639.5,-273 3662.7559,-259.7854 3678.0613,-231.9452 3686.254,-212.9792"/>
<polygon fill="#191970" stroke="#191970" points="3689.5808,-214.088 3690.079,-203.5048 3683.0898,-211.4674 3689.5808,-214.088"/>
</g>
<!-- Node47 -->
<g id="node47" class="node">
<title>Node47</title>
<g id="a_node47"><a xlink:href="../../d0/d40/G4__World_8C.html" target="_top" xlink:title="G4_World.C">
<polygon fill="none" stroke="#000000" points="2259,-126.5 2259,-146.5 2334,-146.5 2334,-126.5 2259,-126.5"/>
<text text-anchor="middle" x="2296.5" y="-133.5" font-family="FreeSans" font-size="10.00" fill="#000000">G4_World.C</text>
</a>
</g>
</g>
<!-- Node1&#45;&gt;Node47 -->
<g id="edge159" class="edge">
<title>Node1&#45;&gt;Node47</title>
<path fill="none" stroke="#191970" d="M2605.37,-309.3973C2584.4893,-299.2752 2560.2292,-286.5265 2539.5,-273 2486.599,-238.4803 2484.5971,-213.8939 2429.5,-183 2402.6354,-167.9365 2370.0224,-156.4418 2343.8149,-148.6494"/>
<polygon fill="#191970" stroke="#191970" points="2344.6882,-145.2587 2334.1096,-145.8445 2342.7446,-151.9834 2344.6882,-145.2587"/>
</g>
<!-- Node48 -->
<g id="node48" class="node">
<title>Node48</title>
<g id="a_node48"><a xlink:href="../../da/d58/PHG4DstCompressReco_8h.html" target="_top" xlink:title="g4eval/PHG4DstCompressReco.h">
<polygon fill="none" stroke="#ff0000" points="185.5,-183.5 185.5,-203.5 367.5,-203.5 367.5,-183.5 185.5,-183.5"/>
<text text-anchor="middle" x="276.5" y="-190.5" font-family="FreeSans" font-size="10.00" fill="#000000">g4eval/PHG4DstCompressReco.h</text>
</a>
</g>
</g>
<!-- Node1&#45;&gt;Node48 -->
<g id="edge163" class="edge">
<title>Node1&#45;&gt;Node48</title>
<path fill="none" stroke="#191970" d="M2582.2169,-327.9579C2404.884,-319.2119 1934.1273,-295.6553 1541.5,-273 1108.4527,-248.0124 592.2751,-214.3699 377.7452,-200.2164"/>
<polygon fill="#191970" stroke="#191970" points="377.9679,-196.7235 367.759,-199.5572 377.5068,-203.7083 377.9679,-196.7235"/>
</g>
<!-- Node49 -->
<g id="node49" class="node">
<title>Node49</title>
<g id="a_node49"><a xlink:href="../../de/d78/PHG4TruthSubsystem_8h.html" target="_top" xlink:title="g4main/PHG4TruthSubsystem.h">
<polygon fill="none" stroke="#ff0000" points="1188,-183.5 1188,-203.5 1365,-203.5 1365,-183.5 1188,-183.5"/>
<text text-anchor="middle" x="1276.5" y="-190.5" font-family="FreeSans" font-size="10.00" fill="#000000">g4main/PHG4TruthSubsystem.h</text>
</a>
</g>
</g>
<!-- Node1&#45;&gt;Node49 -->
<g id="edge166" class="edge">
<title>Node1&#45;&gt;Node49</title>
<path fill="none" stroke="#191970" d="M2582.2784,-328.8729C2432.3216,-322.9338 2076.4245,-306.322 1779.5,-273 1620.5561,-255.1627 1435.0635,-222.8344 1339.9191,-205.4037"/>
<polygon fill="#191970" stroke="#191970" points="1340.3523,-201.9247 1329.8842,-203.559 1339.0867,-208.8094 1340.3523,-201.9247"/>
</g>
<!-- Node50 -->
<g id="node50" class="node">
<title>Node50</title>
<g id="a_node50"><a xlink:href="../../db/d22/Fun4AllDstOutputManager_8h.html" target="_top" xlink:title="fun4all/Fun4AllDstOutput\lManager.h">
<polygon fill="none" stroke="#ff0000" points="3691.5,-240.5 3691.5,-272.5 3835.5,-272.5 3835.5,-240.5 3691.5,-240.5"/>
<text text-anchor="start" x="3699.5" y="-259.5" font-family="FreeSans" font-size="10.00" fill="#000000">fun4all/Fun4AllDstOutput</text>
<text text-anchor="middle" x="3763.5" y="-247.5" font-family="FreeSans" font-size="10.00" fill="#000000">Manager.h</text>
</a>
</g>
</g>
<!-- Node1&#45;&gt;Node50 -->
<g id="edge170" class="edge">
<title>Node1&#45;&gt;Node50</title>
<path fill="none" stroke="#191970" d="M2726.7313,-330.6511C2894.3757,-327.9657 3322.6488,-316.9906 3677.5,-273 3678.773,-272.8422 3680.0555,-272.6769 3681.3455,-272.5047"/>
<polygon fill="#191970" stroke="#191970" points="3681.9512,-275.9536 3691.3489,-271.0614 3680.9516,-269.0253 3681.9512,-275.9536"/>
</g>
<!-- Node4 -->
<g id="node4" class="node">
<title>Node4</title>
<g id="a_node4"><a xlink:href="../../de/d67/fun4all__macros_2blob_2master_2common_2GlobalVariables_8C.html" target="_top" xlink:title="GlobalVariables.C">
<polygon fill="none" stroke="#ff0000" points="2568,-63.5 2568,-83.5 2673,-83.5 2673,-63.5 2568,-63.5"/>
<text text-anchor="middle" x="2620.5" y="-70.5" font-family="FreeSans" font-size="10.00" fill="#000000">GlobalVariables.C</text>
</a>
</g>
</g>
<!-- Node3&#45;&gt;Node4 -->
<g id="edge3" class="edge">
<title>Node3&#45;&gt;Node4</title>
<path fill="none" stroke="#191970" d="M2797.5992,-126.378C2761.3005,-115.54 2703.5907,-98.3091 2663.9747,-86.4806"/>
<polygon fill="#191970" stroke="#191970" points="2664.9,-83.1043 2654.3167,-83.5969 2662.8973,-89.8117 2664.9,-83.1043"/>
</g>
<!-- Node6 -->
<g id="node6" class="node">
<title>Node6</title>
<g id="a_node6"><a xlink:href="../../d6/d6c/PHG4SectorSubsystem_8h.html" target="_top" xlink:title="g4detectors/PHG4SectorSubsystem.h">
<polygon fill="none" stroke="#ff0000" points="3148.5,-63.5 3148.5,-83.5 3354.5,-83.5 3354.5,-63.5 3148.5,-63.5"/>
<text text-anchor="middle" x="3251.5" y="-70.5" font-family="FreeSans" font-size="10.00" fill="#000000">g4detectors/PHG4SectorSubsystem.h</text>
</a>
</g>
</g>
<!-- Node3&#45;&gt;Node6 -->
<g id="edge5" class="edge">
<title>Node3&#45;&gt;Node6</title>
<path fill="none" stroke="#191970" d="M2873.6942,-130.1709C2943.9997,-119.625 3086.1123,-98.3081 3174.5964,-85.0355"/>
<polygon fill="#191970" stroke="#191970" points="3175.2105,-88.4827 3184.5807,-83.5379 3174.1721,-81.5601 3175.2105,-88.4827"/>
</g>
<!-- Node3&#45;&gt;Node8 -->
<g id="edge7" class="edge">
<title>Node3&#45;&gt;Node8</title>
<path fill="none" stroke="#191970" d="M2818.4859,-126.378C2805.8504,-116.5503 2786.4564,-101.4661 2771.6112,-89.9198"/>
<polygon fill="#191970" stroke="#191970" points="2773.5241,-86.9736 2763.4818,-83.5969 2769.2265,-92.4991 2773.5241,-86.9736"/>
</g>
<!-- Node4&#45;&gt;Node5 -->
<g id="edge4" class="edge">
<title>Node4&#45;&gt;Node5</title>
<path fill="none" stroke="#191970" d="M2585.9318,-63.423C2577.0465,-61.0751 2567.4639,-58.7525 2558.5,-57 2557.6345,-56.8308 2384.9596,-34.9746 2276.803,-21.2906"/>
<polygon fill="#191970" stroke="#191970" points="2277.2296,-17.8168 2266.8694,-20.0338 2276.3509,-24.7614 2277.2296,-17.8168"/>
</g>
<!-- Node7 -->
<g id="node7" class="node">
<title>Node7</title>
<polygon fill="none" stroke="#bfbfbf" points="2284,-.5 2284,-20.5 2329,-20.5 2329,-.5 2284,-.5"/>
<text text-anchor="middle" x="2306.5" y="-7.5" font-family="FreeSans" font-size="10.00" fill="#000000">string</text>
</g>
<!-- Node6&#45;&gt;Node7 -->
<g id="edge6" class="edge">
<title>Node6&#45;&gt;Node7</title>
<path fill="none" stroke="#191970" d="M3190.2988,-63.4613C3173.8411,-61.0417 3156.0232,-58.6748 3139.5,-57 2829.1997,-25.5474 2451.557,-14.1075 2339.3975,-11.2664"/>
<polygon fill="#191970" stroke="#191970" points="2339.172,-7.7599 2329.0883,-11.0108 2338.9984,-14.7577 2339.172,-7.7599"/>
</g>
<!-- Node8&#45;&gt;Node5 -->
<g id="edge8" class="edge">
<title>Node8&#45;&gt;Node5</title>
<path fill="none" stroke="#191970" d="M2712.7407,-63.4163C2702.6508,-61.0117 2691.7116,-58.6634 2681.5,-57 2505.5052,-28.3321 2456.805,-39.9576 2276.6646,-21.1944"/>
<polygon fill="#191970" stroke="#191970" points="2276.8993,-17.6997 2266.5864,-20.1274 2276.1623,-24.6608 2276.8993,-17.6997"/>
</g>
<!-- Node8&#45;&gt;Node7 -->
<g id="edge10" class="edge">
<title>Node8&#45;&gt;Node7</title>
<path fill="none" stroke="#191970" d="M2711.9769,-63.4871C2702.0894,-61.138 2691.4384,-58.7987 2681.5,-57 2555.8371,-34.257 2404.4534,-19.2148 2339.1251,-13.3123"/>
<polygon fill="#191970" stroke="#191970" points="2339.3055,-9.8145 2329.034,-12.4117 2338.6832,-16.7868 2339.3055,-9.8145"/>
</g>
<!-- Node8&#45;&gt;Node9 -->
<g id="edge9" class="edge">
<title>Node8&#45;&gt;Node9</title>
<path fill="none" stroke="#191970" d="M2789.0215,-63.4782C2798.909,-61.1293 2809.5604,-58.7923 2819.5,-57 2923.3008,-38.2827 3044.4731,-24.8696 3121.3283,-17.3975"/>
<polygon fill="#191970" stroke="#191970" points="3121.7881,-20.8695 3131.4066,-16.4271 3121.1171,-13.9018 3121.7881,-20.8695"/>
</g>
<!-- Node10&#45;&gt;Node4 -->
<g id="edge12" class="edge">
<title>Node10&#45;&gt;Node4</title>
<path fill="none" stroke="#191970" d="M3343.8216,-132.4986C3318.4026,-130.4565 3286.7823,-127.9902 3258.5,-126 3002.1907,-107.9634 2935.0272,-131.7575 2681.5,-90 2675.3196,-88.982 2668.8618,-87.5975 2662.5579,-86.0604"/>
<polygon fill="#191970" stroke="#191970" points="2663.3977,-82.6625 2652.8402,-83.5503 2661.647,-89.4401 2663.3977,-82.6625"/>
</g>
<!-- Node10&#45;&gt;Node8 -->
<g id="edge15" class="edge">
<title>Node10&#45;&gt;Node8</title>
<path fill="none" stroke="#191970" d="M3343.9789,-131.1828C3327.3488,-129.433 3308.6191,-127.5424 3291.5,-126 3081.9617,-107.1209 3027.3511,-122.5675 2819.5,-90 2812.3891,-88.8858 2804.9291,-87.4205 2797.6501,-85.8225"/>
<polygon fill="#191970" stroke="#191970" points="2798.4155,-82.4072 2787.886,-83.5815 2796.8496,-89.2298 2798.4155,-82.4072"/>
</g>
<!-- Node10&#45;&gt;Node11 -->
<g id="edge13" class="edge">
<title>Node10&#45;&gt;Node11</title>
<path fill="none" stroke="#191970" d="M3343.7048,-128.0707C3338.9108,-127.3318 3334.1146,-126.6276 3329.5,-126 3181.7365,-105.905 3140.9605,-112.2502 2989.5774,-90.0818"/>
<polygon fill="#191970" stroke="#191970" points="2989.8489,-86.5839 2979.4438,-88.5798 2988.8225,-93.5083 2989.8489,-86.5839"/>
</g>
<!-- Node10&#45;&gt;Node12 -->
<g id="edge16" class="edge">
<title>Node10&#45;&gt;Node12</title>
<path fill="none" stroke="#191970" d="M3343.9098,-128.0458C3292.9092,-119.0606 3210.4377,-104.2157 3139.5,-90 3132.74,-88.6453 3125.6531,-87.1746 3118.6386,-85.688"/>
<polygon fill="#191970" stroke="#191970" points="3118.9708,-82.18 3108.4598,-83.5104 3117.5063,-89.0251 3118.9708,-82.18"/>
</g>
<!-- Node13 -->
<g id="node13" class="node">
<title>Node13</title>
<polygon fill="none" stroke="#bfbfbf" points="3764,-.5 3764,-20.5 3813,-20.5 3813,-.5 3764,-.5"/>
<text text-anchor="middle" x="3788.5" y="-7.5" font-family="FreeSans" font-size="10.00" fill="#000000">vector</text>
</g>
<!-- Node10&#45;&gt;Node13 -->
<g id="edge20" class="edge">
<title>Node10&#45;&gt;Node13</title>
<path fill="none" stroke="#191970" d="M3424.2369,-126.4019C3497.6576,-103.0408 3678.7192,-45.4302 3754.3952,-21.3515"/>
<polygon fill="#191970" stroke="#191970" points="3755.4637,-24.6845 3763.9317,-18.3172 3753.3412,-18.014 3755.4637,-24.6845"/>
</g>
<!-- Node14 -->
<g id="node14" class="node">
<title>Node14</title>
<polygon fill="none" stroke="#bfbfbf" points="3448.5,-63.5 3448.5,-83.5 3496.5,-83.5 3496.5,-63.5 3448.5,-63.5"/>
<text text-anchor="middle" x="3472.5" y="-70.5" font-family="FreeSans" font-size="10.00" fill="#000000">cmath</text>
</g>
<!-- Node10&#45;&gt;Node14 -->
<g id="edge19" class="edge">
<title>Node10&#45;&gt;Node14</title>
<path fill="none" stroke="#191970" d="M3405.3534,-126.378C3417.833,-116.5503 3436.9875,-101.4661 3451.6494,-89.9198"/>
<polygon fill="#191970" stroke="#191970" points="3453.9876,-92.5336 3459.6785,-83.5969 3449.6567,-87.0341 3453.9876,-92.5336"/>
</g>
<!-- Node11&#45;&gt;Node7 -->
<g id="edge14" class="edge">
<title>Node11&#45;&gt;Node7</title>
<path fill="none" stroke="#191970" d="M2827.554,-58.2162C2824.8392,-57.7864 2822.1482,-57.3791 2819.5,-57 2639.0433,-31.1688 2420.701,-16.9915 2339.2289,-12.2871"/>
<polygon fill="#191970" stroke="#191970" points="2339.2814,-8.7845 2329.0987,-11.7105 2338.8836,-15.7732 2339.2814,-8.7845"/>
</g>
<!-- Node12&#45;&gt;Node7 -->
<g id="edge17" class="edge">
<title>Node12&#45;&gt;Node7</title>
<path fill="none" stroke="#191970" d="M3023.2204,-63.4866C3012.038,-61.0219 2999.8498,-58.6262 2988.5,-57 2740.8026,-21.5094 2438.4895,-12.9371 2339.5498,-11.0172"/>
<polygon fill="#191970" stroke="#191970" points="2339.3567,-7.5132 2329.2939,-10.8283 2339.2277,-14.512 2339.3567,-7.5132"/>
</g>
<!-- Node12&#45;&gt;Node13 -->
<g id="edge18" class="edge">
<title>Node12&#45;&gt;Node13</title>
<path fill="none" stroke="#191970" d="M3104.7223,-63.4332C3115.9452,-60.9988 3128.14,-58.6317 3139.5,-57 3372.5629,-23.5245 3656.3448,-13.7346 3753.7504,-11.2524"/>
<polygon fill="#191970" stroke="#191970" points="3753.9955,-14.7475 3763.9066,-11.0031 3753.8237,-7.7496 3753.9955,-14.7475"/>
</g>
<!-- Node15&#45;&gt;Node4 -->
<g id="edge22" class="edge">
<title>Node15&#45;&gt;Node4</title>
<path fill="none" stroke="#191970" d="M2631.4113,-126.378C2629.6026,-117.6128 2626.9311,-104.6662 2624.6843,-93.7777"/>
<polygon fill="#191970" stroke="#191970" points="2628.0755,-92.8925 2622.6267,-83.8062 2621.2199,-94.3072 2628.0755,-92.8925"/>
</g>
<!-- Node15&#45;&gt;Node8 -->
<g id="edge24" class="edge">
<title>Node15&#45;&gt;Node8</title>
<path fill="none" stroke="#191970" d="M2652.2981,-126.378C2671.3171,-116.137 2700.9366,-100.188 2722.6754,-88.4825"/>
<polygon fill="#191970" stroke="#191970" points="2724.6032,-91.4196 2731.7486,-83.5969 2721.2845,-85.2563 2724.6032,-91.4196"/>
</g>
<!-- Node15&#45;&gt;Node11 -->
<g id="edge23" class="edge">
<title>Node15&#45;&gt;Node11</title>
<path fill="none" stroke="#191970" d="M2676.5809,-126.4478C2716.4171,-117.1527 2776.5891,-103.1126 2824.9629,-91.8253"/>
<polygon fill="#191970" stroke="#191970" points="2825.8393,-95.2149 2834.7824,-89.5341 2824.2486,-88.398 2825.8393,-95.2149"/>
</g>
<!-- Node16&#45;&gt;Node4 -->
<g id="edge26" class="edge">
<title>Node16&#45;&gt;Node4</title>
<path fill="none" stroke="#191970" d="M2076.6454,-127.2596C2079.6366,-126.8008 2082.6062,-126.3756 2085.5,-126 2294.5767,-98.8645 2350.6391,-125.2597 2558.5,-90 2564.6978,-88.9487 2571.1762,-87.5589 2577.5102,-86.0311"/>
<polygon fill="#191970" stroke="#191970" points="2578.4551,-89.4023 2587.2839,-83.5454 2576.7297,-82.6183 2578.4551,-89.4023"/>
</g>
<!-- Node16&#45;&gt;Node8 -->
<g id="edge36" class="edge">
<title>Node16&#45;&gt;Node8</title>
<path fill="none" stroke="#191970" d="M2076.6387,-127.2062C2079.6315,-126.7607 2082.6033,-126.3529 2085.5,-126 2348.9234,-93.9028 2419.0109,-129.0074 2681.5,-90 2688.787,-88.9171 2696.4356,-87.4395 2703.8789,-85.8108"/>
<polygon fill="#191970" stroke="#191970" points="2704.8868,-89.1704 2713.8485,-83.519 2703.3185,-82.3484 2704.8868,-89.1704"/>
</g>
<!-- Node16&#45;&gt;Node11 -->
<g id="edge33" class="edge">
<title>Node16&#45;&gt;Node11</title>
<path fill="none" stroke="#191970" d="M2076.6341,-127.1675C2079.628,-126.7316 2082.6014,-126.3365 2085.5,-126 2406.6082,-88.7177 2493.5172,-128.743 2817.4288,-90.1511"/>
<polygon fill="#191970" stroke="#191970" points="2818.0646,-93.5998 2827.5729,-88.9261 2817.2254,-86.6503 2818.0646,-93.5998"/>
</g>
<!-- Node16&#45;&gt;Node12 -->
<g id="edge40" class="edge">
<title>Node16&#45;&gt;Node12</title>
<path fill="none" stroke="#191970" d="M2076.6305,-127.1362C2079.6254,-126.708 2082.5999,-126.3233 2085.5,-126 2484.68,-81.5052 2590.1439,-141.3501 2988.5,-90 2996.8634,-88.9219 3005.6724,-87.3693 3014.1963,-85.6425"/>
<polygon fill="#191970" stroke="#191970" points="3014.9737,-89.0556 3024.0278,-83.5534 3013.5187,-82.2084 3014.9737,-89.0556"/>
</g>
<!-- Node16&#45;&gt;Node14 -->
<g id="edge41" class="edge">
<title>Node16&#45;&gt;Node14</title>
<path fill="none" stroke="#191970" d="M2076.6262,-127.0962C2079.6221,-126.678 2082.598,-126.3063 2085.5,-126 2650.586,-66.3527 2797.5337,-140.6177 3363.5,-90 3388.7288,-87.7436 3417.0035,-83.4105 3438.4324,-79.7508"/>
<polygon fill="#191970" stroke="#191970" points="3439.1083,-83.1859 3448.3587,-78.0204 3437.9061,-76.2899 3439.1083,-83.1859"/>
</g>
<!-- Node17 -->
<g id="node17" class="node">
<title>Node17</title>
<g id="a_node17"><a xlink:href="../../d9/d5d/RawTowerBuilder_8h.html" target="_top" xlink:title="g4calo/RawTowerBuilder.h">
<polygon fill="none" stroke="#ff0000" points="2232.5,-63.5 2232.5,-83.5 2380.5,-83.5 2380.5,-63.5 2232.5,-63.5"/>
<text text-anchor="middle" x="2306.5" y="-70.5" font-family="FreeSans" font-size="10.00" fill="#000000">g4calo/RawTowerBuilder.h</text>
</a>
</g>
</g>
<!-- Node16&#45;&gt;Node17 -->
<g id="edge27" class="edge">
<title>Node16&#45;&gt;Node17</title>
<path fill="none" stroke="#191970" d="M2072.8573,-126.4478C2121.6778,-115.3842 2200.1623,-97.5981 2252.5183,-85.7333"/>
<polygon fill="#191970" stroke="#191970" points="2253.3215,-89.1401 2262.3007,-83.5164 2251.7744,-82.3132 2253.3215,-89.1401"/>
</g>
<!-- Node18 -->
<g id="node18" class="node">
<title>Node18</title>
<g id="a_node18"><a xlink:href="../../d7/d2f/RawTowerDigitizer_8h.html" target="_top" xlink:title="g4calo/RawTowerDigitizer.h">
<polygon fill="none" stroke="#ff0000" points="1560.5,-63.5 1560.5,-83.5 1714.5,-83.5 1714.5,-63.5 1560.5,-63.5"/>
<text text-anchor="middle" x="1637.5" y="-70.5" font-family="FreeSans" font-size="10.00" fill="#000000">g4calo/RawTowerDigitizer.h</text>
</a>
</g>
</g>
<!-- Node16&#45;&gt;Node18 -->
<g id="edge29" class="edge">
<title>Node16&#45;&gt;Node18</title>
<path fill="none" stroke="#191970" d="M1980.4152,-127.6637C1977.0618,-127.0879 1973.7318,-126.5279 1970.5,-126 1861.0133,-108.1162 1832.8916,-108.4563 1723.5,-90 1715.2034,-88.6002 1706.4747,-87.0345 1697.8885,-85.44"/>
<polygon fill="#191970" stroke="#191970" points="1698.3834,-81.9719 1687.9088,-83.5633 1697.0896,-88.8513 1698.3834,-81.9719"/>
</g>
<!-- Node19 -->
<g id="node19" class="node">
<title>Node19</title>
<g id="a_node19"><a xlink:href="../../d3/da3/PHG4CylinderCellReco_8h.html" target="_top" xlink:title="g4detectors/PHG4Cylinder\lCellReco.h">
<polygon fill="none" stroke="#ff0000" points="2399,-57.5 2399,-89.5 2550,-89.5 2550,-57.5 2399,-57.5"/>
<text text-anchor="start" x="2407" y="-76.5" font-family="FreeSans" font-size="10.00" fill="#000000">g4detectors/PHG4Cylinder</text>
<text text-anchor="middle" x="2474.5" y="-64.5" font-family="FreeSans" font-size="10.00" fill="#000000">CellReco.h</text>
</a>
</g>
</g>
<!-- Node16&#45;&gt;Node19 -->
<g id="edge31" class="edge">
<title>Node16&#45;&gt;Node19</title>
<path fill="none" stroke="#191970" d="M2076.6655,-127.4024C2079.6516,-126.9082 2082.6147,-126.4361 2085.5,-126 2216.874,-106.142 2253.3744,-110.7428 2388.6367,-90.0649"/>
<polygon fill="#191970" stroke="#191970" points="2389.2014,-93.5193 2398.5489,-88.5318 2388.1314,-86.6015 2389.2014,-93.5193"/>
</g>
<!-- Node20 -->
<g id="node20" class="node">
<title>Node20</title>
<g id="a_node20"><a xlink:href="../../d6/dd5/CaloEvaluator_8h.html" target="_top" xlink:title="Compares reconstructed tracks to truth particles.">
<polygon fill="none" stroke="#ff0000" points="1907,-63.5 1907,-83.5 2040,-83.5 2040,-63.5 1907,-63.5"/>
<text text-anchor="middle" x="1973.5" y="-70.5" font-family="FreeSans" font-size="10.00" fill="#000000">g4eval/CaloEvaluator.h</text>
</a>
</g>
</g>
<!-- Node16&#45;&gt;Node20 -->
<g id="edge34" class="edge">
<title>Node16&#45;&gt;Node20</title>
<path fill="none" stroke="#191970" d="M2019.6633,-126.378C2011.4532,-116.9736 1999.0409,-102.7559 1989.1541,-91.431"/>
<polygon fill="#191970" stroke="#191970" points="1991.7107,-89.0376 1982.4975,-83.8062 1986.4375,-93.6412 1991.7107,-89.0376"/>
</g>
<!-- Node21 -->
<g id="node21" class="node">
<title>Node21</title>
<polygon fill="none" stroke="#bfbfbf" points="2058.5,-57.5 2058.5,-89.5 2214.5,-89.5 2214.5,-57.5 2058.5,-57.5"/>
<text text-anchor="start" x="2066.5" y="-76.5" font-family="FreeSans" font-size="10.00" fill="#000000">caloreco/RawClusterBuilder</text>
<text text-anchor="middle" x="2136.5" y="-64.5" font-family="FreeSans" font-size="10.00" fill="#000000">Graph.h</text>
</g>
<!-- Node16&#45;&gt;Node21 -->
<g id="edge37" class="edge">
<title>Node16&#45;&gt;Node21</title>
<path fill="none" stroke="#191970" d="M2045.8521,-126.378C2060.4048,-117.8889 2081.6812,-105.4776 2099.9643,-94.8125"/>
<polygon fill="#191970" stroke="#191970" points="2101.7824,-97.804 2108.6566,-89.742 2098.2552,-91.7575 2101.7824,-97.804"/>
</g>
<!-- Node22 -->
<g id="node22" class="node">
<title>Node22</title>
<polygon fill="none" stroke="#bfbfbf" points="1732.5,-57.5 1732.5,-89.5 1888.5,-89.5 1888.5,-57.5 1732.5,-57.5"/>
<text text-anchor="start" x="1740.5" y="-76.5" font-family="FreeSans" font-size="10.00" fill="#000000">caloreco/RawClusterBuilder</text>
<text text-anchor="middle" x="1810.5" y="-64.5" font-family="FreeSans" font-size="10.00" fill="#000000">Template.h</text>
</g>
<!-- Node16&#45;&gt;Node22 -->
<g id="edge38" class="edge">
<title>Node16&#45;&gt;Node22</title>
<path fill="none" stroke="#191970" d="M1993.4745,-126.378C1961.8522,-117.2394 1914.5021,-103.5557 1875.8927,-92.3979"/>
<polygon fill="#191970" stroke="#191970" points="1876.8586,-89.0339 1866.28,-89.6199 1874.9151,-95.7587 1876.8586,-89.0339"/>
</g>
<!-- Node23 -->
<g id="node23" class="node">
<title>Node23</title>
<polygon fill="none" stroke="#bfbfbf" points="1365,-63.5 1365,-83.5 1542,-83.5 1542,-63.5 1365,-63.5"/>
<text text-anchor="middle" x="1453.5" y="-70.5" font-family="FreeSans" font-size="10.00" fill="#000000">caloreco/RawTowerCalibration.h</text>
</g>
<!-- Node16&#45;&gt;Node23 -->
<g id="edge39" class="edge">
<title>Node16&#45;&gt;Node23</title>
<path fill="none" stroke="#191970" d="M1980.4477,-127.4441C1977.0866,-126.9206 1973.7459,-126.4323 1970.5,-126 1785.2276,-101.3253 1736.9206,-113.5356 1551.5,-90 1540.7543,-88.636 1529.3853,-86.9487 1518.3448,-85.1787"/>
<polygon fill="#191970" stroke="#191970" points="1518.7597,-81.7001 1508.3253,-83.5368 1517.6276,-88.6079 1518.7597,-81.7001"/>
</g>
<!-- Node17&#45;&gt;Node7 -->
<g id="edge28" class="edge">
<title>Node17&#45;&gt;Node7</title>
<path fill="none" stroke="#191970" d="M2306.5,-63.378C2306.5,-54.7041 2306.5,-41.9355 2306.5,-31.1186"/>
<polygon fill="#191970" stroke="#191970" points="2310.0001,-30.8062 2306.5,-20.8062 2303.0001,-30.8062 2310.0001,-30.8062"/>
</g>
<!-- Node18&#45;&gt;Node7 -->
<g id="edge30" class="edge">
<title>Node18&#45;&gt;Node7</title>
<path fill="none" stroke="#191970" d="M1684.1956,-63.4459C1696.8952,-61.0115 1710.6822,-58.6411 1723.5,-57 1964.0298,-26.204 2032.4811,-67.6804 2273.8611,-20.8783"/>
<polygon fill="#191970" stroke="#191970" points="2274.8646,-24.248 2283.9993,-18.8808 2273.5113,-17.38 2274.8646,-24.248"/>
</g>
<!-- Node19&#45;&gt;Node7 -->
<g id="edge32" class="edge">
<title>Node19&#45;&gt;Node7</title>
<path fill="none" stroke="#191970" d="M2431.6718,-57.4394C2402.7078,-46.5779 2365.0671,-32.4627 2338.6557,-22.5584"/>
<polygon fill="#191970" stroke="#191970" points="2339.7168,-19.2183 2329.1245,-18.9842 2337.2588,-25.7726 2339.7168,-19.2183"/>
</g>
<!-- Node20&#45;&gt;Node7 -->
<g id="edge35" class="edge">
<title>Node20&#45;&gt;Node7</title>
<path fill="none" stroke="#191970" d="M2017.6217,-63.4847C2028.0516,-61.2383 2039.15,-58.9463 2049.5,-57 2146.3351,-38.7905 2174.9824,-44.9769 2274.1245,-21.0428"/>
<polygon fill="#191970" stroke="#191970" points="2275.0673,-24.4153 2283.9437,-18.6307 2273.3974,-17.6174 2275.0673,-24.4153"/>
</g>
<!-- Node24&#45;&gt;Node4 -->
<g id="edge43" class="edge">
<title>Node24&#45;&gt;Node4</title>
<path fill="none" stroke="#191970" d="M2967.1088,-132.7838C2907.7058,-126.2321 2784.3417,-111.2772 2681.5,-90 2676.0612,-88.8747 2670.388,-87.5493 2664.7857,-86.1468"/>
<polygon fill="#191970" stroke="#191970" points="2665.403,-82.6911 2654.8444,-83.5657 2663.6439,-89.4665 2665.403,-82.6911"/>
</g>
<!-- Node24&#45;&gt;Node6 -->
<g id="edge45" class="edge">
<title>Node24&#45;&gt;Node6</title>
<path fill="none" stroke="#191970" d="M3037.6475,-127.6073C3080.4503,-116.7776 3153.0339,-98.4131 3201.6093,-86.123"/>
<polygon fill="#191970" stroke="#191970" points="3202.755,-89.4435 3211.591,-83.5975 3201.0379,-82.6573 3202.755,-89.4435"/>
</g>
<!-- Node24&#45;&gt;Node8 -->
<g id="edge46" class="edge">
<title>Node24&#45;&gt;Node8</title>
<path fill="none" stroke="#191970" d="M2967.4605,-127.7401C2924.0631,-116.8908 2849.8401,-98.335 2800.4778,-85.9945"/>
<polygon fill="#191970" stroke="#191970" points="2801.1981,-82.5669 2790.6478,-83.5369 2799.5003,-89.3579 2801.1981,-82.5669"/>
</g>
<!-- Node24&#45;&gt;Node11 -->
<g id="edge44" class="edge">
<title>Node24&#45;&gt;Node11</title>
<path fill="none" stroke="#191970" d="M2986.5939,-126.378C2973.4965,-118.0432 2954.4578,-105.9277 2937.9079,-95.3959"/>
<polygon fill="#191970" stroke="#191970" points="2939.3388,-92.158 2929.0231,-89.742 2935.5807,-98.0636 2939.3388,-92.158"/>
</g>
<!-- Node24&#45;&gt;Node14 -->
<g id="edge47" class="edge">
<title>Node24&#45;&gt;Node14</title>
<path fill="none" stroke="#191970" d="M3037.9647,-127.6469C3040.8437,-127.0473 3043.7153,-126.4885 3046.5,-126 3186.1616,-101.4985 3222.9326,-108.6145 3363.5,-90 3388.6103,-86.6748 3416.8891,-82.3779 3438.3494,-79.0027"/>
<polygon fill="#191970" stroke="#191970" points="3438.9635,-82.4492 3448.293,-77.4281 3437.8686,-75.5353 3438.9635,-82.4492"/>
</g>
<!-- Node25&#45;&gt;Node4 -->
<g id="edge49" class="edge">
<title>Node25&#45;&gt;Node4</title>
<path fill="none" stroke="#191970" d="M1515.548,-127.409C1518.5643,-126.8627 1521.5758,-126.3811 1524.5,-126 1980.4771,-66.5681 2103.6558,-157.5577 2558.5,-90 2564.935,-89.0442 2571.661,-87.6657 2578.2102,-86.1071"/>
<polygon fill="#191970" stroke="#191970" points="2579.4599,-89.4008 2588.289,-83.5445 2577.7349,-82.6166 2579.4599,-89.4008"/>
</g>
<!-- Node25&#45;&gt;Node8 -->
<g id="edge58" class="edge">
<title>Node25&#45;&gt;Node8</title>
<path fill="none" stroke="#191970" d="M1515.5465,-127.397C1518.5631,-126.8534 1521.5751,-126.3757 1524.5,-126 2034.778,-60.4496 2171.5666,-158.1791 2681.5,-90 2689.0548,-88.9899 2696.9891,-87.504 2704.6779,-85.8313"/>
<polygon fill="#191970" stroke="#191970" points="2705.6317,-89.2034 2714.5917,-83.5492 2704.0614,-82.3818 2705.6317,-89.2034"/>
</g>
<!-- Node25&#45;&gt;Node12 -->
<g id="edge62" class="edge">
<title>Node25&#45;&gt;Node12</title>
<path fill="none" stroke="#191970" d="M1515.5438,-127.3759C1518.5611,-126.837 1521.5739,-126.3662 1524.5,-126 2170.3255,-45.1763 2342.3616,-168.2832 2988.5,-90 2996.9665,-88.9742 3005.8848,-87.4309 3014.5004,-85.6926"/>
<polygon fill="#191970" stroke="#191970" points="3015.3764,-89.0847 3024.4301,-83.5818 3013.9209,-82.2376 3015.3764,-89.0847"/>
</g>
<!-- Node25&#45;&gt;Node18 -->
<g id="edge52" class="edge">
<title>Node25&#45;&gt;Node18</title>
<path fill="none" stroke="#191970" d="M1504.0461,-126.378C1530.7038,-115.8155 1572.6858,-99.1811 1602.4366,-87.393"/>
<polygon fill="#191970" stroke="#191970" points="1604.0098,-90.5345 1612.0173,-83.5969 1601.4312,-84.0267 1604.0098,-90.5345"/>
</g>
<!-- Node25&#45;&gt;Node20 -->
<g id="edge57" class="edge">
<title>Node25&#45;&gt;Node20</title>
<path fill="none" stroke="#191970" d="M1515.577,-127.6075C1518.5868,-127.0167 1521.5889,-126.4707 1524.5,-126 1688.9124,-99.4138 1732.9486,-115.7121 1897.5,-90 1905.2851,-88.7835 1913.4704,-87.2642 1921.4687,-85.6433"/>
<polygon fill="#191970" stroke="#191970" points="1922.386,-89.0272 1931.4558,-83.5511 1920.9506,-82.176 1922.386,-89.0272"/>
</g>
<!-- Node25&#45;&gt;Node22 -->
<g id="edge60" class="edge">
<title>Node25&#45;&gt;Node22</title>
<path fill="none" stroke="#191970" d="M1515.6257,-127.8734C1518.6246,-127.223 1521.6108,-126.5908 1524.5,-126 1609.4623,-108.6275 1633.4564,-106.5082 1722.2778,-90.2119"/>
<polygon fill="#191970" stroke="#191970" points="1723.0519,-93.6282 1732.2513,-88.3726 1721.7823,-86.7443 1723.0519,-93.6282"/>
</g>
<!-- Node25&#45;&gt;Node23 -->
<g id="edge61" class="edge">
<title>Node25&#45;&gt;Node23</title>
<path fill="none" stroke="#191970" d="M1474.4833,-126.378C1470.9688,-117.5215 1465.7603,-104.396 1461.4119,-93.4381"/>
<polygon fill="#191970" stroke="#191970" points="1464.5315,-91.8101 1457.5898,-83.8062 1458.0251,-94.3921 1464.5315,-91.8101"/>
</g>
<!-- Node26 -->
<g id="node26" class="node">
<title>Node26</title>
<g id="a_node26"><a xlink:href="../../df/d92/RawTowerBuilderByHitIndex_8h.html" target="_top" xlink:title="g4calo/RawTowerBuilderBy\lHitIndex.h">
<polygon fill="none" stroke="#ff0000" points="830,-57.5 830,-89.5 983,-89.5 983,-57.5 830,-57.5"/>
<text text-anchor="start" x="838" y="-76.5" font-family="FreeSans" font-size="10.00" fill="#000000">g4calo/RawTowerBuilderBy</text>
<text text-anchor="middle" x="906.5" y="-64.5" font-family="FreeSans" font-size="10.00" fill="#000000">HitIndex.h</text>
</a>
</g>
</g>
<!-- Node25&#45;&gt;Node26 -->
<g id="edge50" class="edge">
<title>Node25&#45;&gt;Node26</title>
<path fill="none" stroke="#191970" d="M1441.4731,-134.1523C1361.5692,-128.8296 1166.8573,-114.4805 993.4099,-90.0472"/>
<polygon fill="#191970" stroke="#191970" points="993.7272,-86.5572 983.3337,-88.6129 992.7406,-93.4873 993.7272,-86.5572"/>
</g>
<!-- Node27 -->
<g id="node27" class="node">
<title>Node27</title>
<g id="a_node27"><a xlink:href="../../d3/d6a/PHG4CrystalCalorimeterSubsystem_8h.html" target="_top" xlink:title="g4detectors/PHG4CrystalCalorimeter\lSubsystem.h">
<polygon fill="none" stroke="#ff0000" points="237.5,-57.5 237.5,-89.5 441.5,-89.5 441.5,-57.5 237.5,-57.5"/>
<text text-anchor="start" x="245.5" y="-76.5" font-family="FreeSans" font-size="10.00" fill="#000000">g4detectors/PHG4CrystalCalorimeter</text>
<text text-anchor="middle" x="339.5" y="-64.5" font-family="FreeSans" font-size="10.00" fill="#000000">Subsystem.h</text>
</a>
</g>
</g>
<!-- Node25&#45;&gt;Node27 -->
<g id="edge53" class="edge">
<title>Node25&#45;&gt;Node27</title>
<path fill="none" stroke="#191970" d="M1441.0613,-136.1889C1307.8609,-134.7908 844.3947,-127.4361 451.8023,-90.062"/>
<polygon fill="#191970" stroke="#191970" points="451.9564,-86.5608 441.6676,-89.089 451.2873,-93.5287 451.9564,-86.5608"/>
</g>
<!-- Node28 -->
<g id="node28" class="node">
<title>Node28</title>
<g id="a_node28"><a xlink:href="../../dc/d93/PHG4ForwardCalCellReco_8h.html" target="_top" xlink:title="g4detectors/PHG4ForwardCal\lCellReco.h">
<polygon fill="none" stroke="#ff0000" points="459.5,-57.5 459.5,-89.5 623.5,-89.5 623.5,-57.5 459.5,-57.5"/>
<text text-anchor="start" x="467.5" y="-76.5" font-family="FreeSans" font-size="10.00" fill="#000000">g4detectors/PHG4ForwardCal</text>
<text text-anchor="middle" x="541.5" y="-64.5" font-family="FreeSans" font-size="10.00" fill="#000000">CellReco.h</text>
</a>
</g>
</g>
<!-- Node25&#45;&gt;Node28 -->
<g id="edge55" class="edge">
<title>Node25&#45;&gt;Node28</title>
<path fill="none" stroke="#191970" d="M1441.25,-136.1043C1323.9723,-134.5095 951.782,-126.7863 634.1003,-90.0964"/>
<polygon fill="#191970" stroke="#191970" points="634.1093,-86.5738 623.771,-88.8909 633.2978,-93.5266 634.1093,-86.5738"/>
</g>
<!-- Node29 -->
<g id="node29" class="node">
<title>Node29</title>
<polygon fill="none" stroke="#bfbfbf" points="1001.5,-57.5 1001.5,-89.5 1157.5,-89.5 1157.5,-57.5 1001.5,-57.5"/>
<text text-anchor="start" x="1009.5" y="-76.5" font-family="FreeSans" font-size="10.00" fill="#000000">caloreco/RawClusterBuilder</text>
<text text-anchor="middle" x="1079.5" y="-64.5" font-family="FreeSans" font-size="10.00" fill="#000000">Fwd.h</text>
</g>
<!-- Node25&#45;&gt;Node29 -->
<g id="edge59" class="edge">
<title>Node25&#45;&gt;Node29</title>
<path fill="none" stroke="#191970" d="M1441.4434,-131.4597C1384.7554,-123.644 1272.8605,-107.8032 1167.8656,-90.1965"/>
<polygon fill="#191970" stroke="#191970" points="1168.1712,-86.6987 1157.7284,-88.4873 1167.0073,-93.6013 1168.1712,-86.6987"/>
</g>
<!-- Node26&#45;&gt;Node7 -->
<g id="edge51" class="edge">
<title>Node26&#45;&gt;Node7</title>
<path fill="none" stroke="#191970" d="M983.301,-58.1282C986.4022,-57.7095 989.4774,-57.3302 992.5,-57 1272.8524,-26.3755 1978.6608,-70.3028 2273.782,-20.8013"/>
<polygon fill="#191970" stroke="#191970" points="2274.4265,-24.2419 2283.6779,-19.0782 2273.2257,-17.3456 2274.4265,-24.2419"/>
</g>
<!-- Node27&#45;&gt;Node7 -->
<g id="edge54" class="edge">
<title>Node27&#45;&gt;Node7</title>
<path fill="none" stroke="#191970" d="M441.6587,-57.8125C444.6358,-57.5164 447.5878,-57.2442 450.5,-57 851.4596,-23.383 1859.5161,-89.8007 2273.7077,-20.8084"/>
<polygon fill="#191970" stroke="#191970" points="2274.416,-24.2381 2283.6818,-19.1004 2273.2345,-17.3385 2274.416,-24.2381"/>
</g>
<!-- Node28&#45;&gt;Node7 -->
<g id="edge56" class="edge">
<title>Node28&#45;&gt;Node7</title>
<path fill="none" stroke="#191970" d="M623.7576,-57.9862C626.7035,-57.6215 629.6245,-57.2904 632.5,-57 992.5687,-20.6403 1899.2559,-83.1643 2273.5778,-20.8305"/>
<polygon fill="#191970" stroke="#191970" points="2274.4179,-24.2375 2283.6808,-19.0945 2273.2325,-17.3386 2274.4179,-24.2375"/>
</g>
<!-- Node30&#45;&gt;Node4 -->
<g id="edge64" class="edge">
<title>Node30&#45;&gt;Node4</title>
<path fill="none" stroke="#191970" d="M1629.0874,-127.0873C1631.9276,-126.678 1634.7478,-126.3101 1637.5,-126 2044.5698,-80.1308 2153.4285,-151.0483 2558.5,-90 2564.933,-89.0305 2571.6578,-87.6445 2578.2065,-86.0825"/>
<polygon fill="#191970" stroke="#191970" points="2579.4571,-89.3759 2588.285,-83.5178 2577.7307,-82.5921 2579.4571,-89.3759"/>
</g>
<!-- Node30&#45;&gt;Node8 -->
<g id="edge71" class="edge">
<title>Node30&#45;&gt;Node8</title>
<path fill="none" stroke="#191970" d="M1629.0858,-127.0723C1631.9264,-126.6667 1634.7471,-126.3038 1637.5,-126 2098.9744,-75.0748 2221.4233,-152.3011 2681.5,-90 2689.0531,-88.9772 2696.9865,-87.4847 2704.675,-85.8094"/>
<polygon fill="#191970" stroke="#191970" points="2705.6294,-89.1813 2714.5886,-83.5259 2704.0581,-82.3599 2705.6294,-89.1813"/>
</g>
<!-- Node30&#45;&gt;Node12 -->
<g id="edge75" class="edge">
<title>Node30&#45;&gt;Node12</title>
<path fill="none" stroke="#191970" d="M1629.083,-127.0466C1631.9243,-126.6476 1634.7459,-126.293 1637.5,-126 2234.7866,-62.4529 2392.2774,-162.8574 2988.5,-90 2996.9655,-88.9655 3005.8832,-87.4178 3014.4986,-85.6779"/>
<polygon fill="#191970" stroke="#191970" points="3015.3749,-89.0699 3024.4282,-83.5664 3013.9189,-82.223 3015.3749,-89.0699"/>
</g>
<!-- Node30&#45;&gt;Node18 -->
<g id="edge66" class="edge">
<title>Node30&#45;&gt;Node18</title>
<path fill="none" stroke="#191970" d="M1590.4974,-126.378C1598.8568,-116.9736 1611.4947,-102.7559 1621.5613,-91.431"/>
<polygon fill="#191970" stroke="#191970" points="1624.3112,-93.6056 1628.3389,-83.8062 1619.0793,-88.955 1624.3112,-93.6056"/>
</g>
<!-- Node30&#45;&gt;Node20 -->
<g id="edge70" class="edge">
<title>Node30&#45;&gt;Node20</title>
<path fill="none" stroke="#191970" d="M1629.1317,-127.4089C1631.9608,-126.9187 1634.7664,-126.4453 1637.5,-126 1752.6406,-107.2453 1782.6378,-110.39 1897.5,-90 1904.8023,-88.7037 1912.47,-87.204 1920.01,-85.648"/>
<polygon fill="#191970" stroke="#191970" points="1920.7444,-89.0702 1929.8071,-83.5822 1919.3001,-82.2208 1920.7444,-89.0702"/>
</g>
<!-- Node30&#45;&gt;Node22 -->
<g id="edge73" class="edge">
<title>Node30&#45;&gt;Node22</title>
<path fill="none" stroke="#191970" d="M1618.0389,-126.4478C1651.4027,-117.2691 1701.5849,-103.4635 1742.3425,-92.2507"/>
<polygon fill="#191970" stroke="#191970" points="1743.5039,-95.5614 1752.2173,-89.5341 1741.6471,-88.8121 1743.5039,-95.5614"/>
</g>
<!-- Node30&#45;&gt;Node23 -->
<g id="edge74" class="edge">
<title>Node30&#45;&gt;Node23</title>
<path fill="none" stroke="#191970" d="M1560.9346,-126.378C1539.9409,-116.0451 1507.1411,-99.9015 1483.3028,-88.1686"/>
<polygon fill="#191970" stroke="#191970" points="1484.5321,-84.8727 1474.0144,-83.5969 1481.4409,-91.1532 1484.5321,-84.8727"/>
</g>
<!-- Node30&#45;&gt;Node26 -->
<g id="edge65" class="edge">
<title>Node30&#45;&gt;Node26</title>
<path fill="none" stroke="#191970" d="M1533.9776,-127.3249C1530.7763,-126.8369 1527.595,-126.3885 1524.5,-126 1292.6896,-96.9031 1229.3152,-119.7172 993.5846,-90.0317"/>
<polygon fill="#191970" stroke="#191970" points="993.6822,-86.5158 983.3192,-88.7197 992.7947,-93.4593 993.6822,-86.5158"/>
</g>
<!-- Node30&#45;&gt;Node28 -->
<g id="edge67" class="edge">
<title>Node30&#45;&gt;Node28</title>
<path fill="none" stroke="#191970" d="M1533.9892,-127.2272C1530.7851,-126.7627 1527.6,-126.3463 1524.5,-126 1133.4588,-82.3153 1028.6107,-132.6494 633.7416,-90.0349"/>
<polygon fill="#191970" stroke="#191970" points="634.0858,-86.5518 623.7648,-88.9452 633.3256,-93.5104 634.0858,-86.5518"/>
</g>
<!-- Node30&#45;&gt;Node29 -->
<g id="edge72" class="edge">
<title>Node30&#45;&gt;Node29</title>
<path fill="none" stroke="#191970" d="M1533.9619,-127.4419C1530.7645,-126.9256 1527.5883,-126.439 1524.5,-126 1369.4247,-103.9575 1326.5103,-112.5473 1167.8224,-90.1147"/>
<polygon fill="#191970" stroke="#191970" points="1168.096,-86.6183 1157.7006,-88.6644 1167.103,-93.5475 1168.096,-86.6183"/>
</g>
<!-- Node31 -->
<g id="node31" class="node">
<title>Node31</title>
<g id="a_node31"><a xlink:href="../../d1/d56/PHG4ForwardEcalSubsystem_8h.html" target="_top" xlink:title="g4detectors/PHG4ForwardEcal\lSubsystem.h">
<polygon fill="none" stroke="#ff0000" points="641.5,-57.5 641.5,-89.5 811.5,-89.5 811.5,-57.5 641.5,-57.5"/>
<text text-anchor="start" x="649.5" y="-76.5" font-family="FreeSans" font-size="10.00" fill="#000000">g4detectors/PHG4ForwardEcal</text>
<text text-anchor="middle" x="726.5" y="-64.5" font-family="FreeSans" font-size="10.00" fill="#000000">Subsystem.h</text>
</a>
</g>
</g>
<!-- Node30&#45;&gt;Node31 -->
<g id="edge68" class="edge">
<title>Node30&#45;&gt;Node31</title>
<path fill="none" stroke="#191970" d="M1533.9848,-127.2658C1530.7818,-126.792 1527.5981,-126.363 1524.5,-126 1216.6733,-89.9345 1133.5975,-124.3922 821.9729,-90.0746"/>
<polygon fill="#191970" stroke="#191970" points="822.0665,-86.5634 811.7399,-88.9322 821.2897,-93.5202 822.0665,-86.5634"/>
</g>
<!-- Node31&#45;&gt;Node7 -->
<g id="edge69" class="edge">
<title>Node31&#45;&gt;Node7</title>
<path fill="none" stroke="#191970" d="M811.7294,-57.9689C814.6846,-57.6124 817.6147,-57.2873 820.5,-57 1139.0405,-25.2808 1940.3889,-76.453 2273.4787,-20.8498"/>
<polygon fill="#191970" stroke="#191970" points="2274.4215,-24.2388 2283.6794,-19.087 2273.2295,-17.341 2274.4215,-24.2388"/>
</g>
<!-- Node32&#45;&gt;Node4 -->
<g id="edge77" class="edge">
<title>Node32&#45;&gt;Node4</title>
<path fill="none" stroke="#191970" d="M1726.2499,-127.4001C1729.3693,-126.8643 1732.4797,-126.3869 1735.5,-126 2098.6601,-79.48 2196.5887,-145.4038 2558.5,-90 2564.8584,-89.0266 2571.5032,-87.6527 2577.9816,-86.1085"/>
<polygon fill="#191970" stroke="#191970" points="2579.1289,-89.4284 2587.9599,-83.5749 2577.4061,-82.6437 2579.1289,-89.4284"/>
</g>
<!-- Node32&#45;&gt;Node8 -->
<g id="edge84" class="edge">
<title>Node32&#45;&gt;Node8</title>
<path fill="none" stroke="#191970" d="M1726.2475,-127.381C1729.3674,-126.8495 1732.4786,-126.3783 1735.5,-126 2152.9887,-73.7249 2264.658,-147.2038 2681.5,-90 2689.0513,-88.9637 2696.9837,-87.4643 2704.6718,-85.7862"/>
<polygon fill="#191970" stroke="#191970" points="2705.6269,-89.1579 2714.5852,-83.5011 2704.0545,-82.3368 2705.6269,-89.1579"/>
</g>
<!-- Node32&#45;&gt;Node12 -->
<g id="edge88" class="edge">
<title>Node32&#45;&gt;Node12</title>
<path fill="none" stroke="#191970" d="M1726.2437,-127.3495C1729.3644,-126.8252 1732.4768,-126.3642 1735.5,-126 2288.6184,-59.3568 2435.5655,-158.1521 2988.5,-90 2996.9644,-88.9567 3005.8816,-87.4046 3014.4968,-85.663"/>
<polygon fill="#191970" stroke="#191970" points="3015.3734,-89.0549 3024.4263,-83.5507 3013.9169,-82.2081 3015.3734,-89.0549"/>
</g>
<!-- Node32&#45;&gt;Node18 -->
<g id="edge79" class="edge">
<title>Node32&#45;&gt;Node18</title>
<path fill="none" stroke="#191970" d="M1678.6273,-126.378C1671.3838,-117.0649 1660.469,-103.0316 1651.7035,-91.7617"/>
<polygon fill="#191970" stroke="#191970" points="1654.4181,-89.551 1645.5159,-83.8062 1648.8926,-93.8486 1654.4181,-89.551"/>
</g>
<!-- Node32&#45;&gt;Node20 -->
<g id="edge83" class="edge">
<title>Node32&#45;&gt;Node20</title>
<path fill="none" stroke="#191970" d="M1726.1048,-127.8063C1775.8614,-116.8841 1861.5363,-98.0774 1917.858,-85.7141"/>
<polygon fill="#191970" stroke="#191970" points="1918.6543,-89.1227 1927.6713,-83.56 1917.1534,-82.2855 1918.6543,-89.1227"/>
</g>
<!-- Node32&#45;&gt;Node22 -->
<g id="edge86" class="edge">
<title>Node32&#45;&gt;Node22</title>
<path fill="none" stroke="#191970" d="M1706.4227,-126.378C1723.3593,-117.7731 1748.2275,-105.1384 1769.4084,-94.3772"/>
<polygon fill="#191970" stroke="#191970" points="1771.2017,-97.392 1778.5317,-89.742 1768.031,-91.1512 1771.2017,-97.392"/>
</g>
<!-- Node32&#45;&gt;Node23 -->
<g id="edge87" class="edge">
<title>Node32&#45;&gt;Node23</title>
<path fill="none" stroke="#191970" d="M1649.3228,-126.4478C1608.9153,-115.5222 1544.262,-98.0408 1500.3959,-86.18"/>
<polygon fill="#191970" stroke="#191970" points="1501.1117,-82.7479 1490.5448,-83.5164 1499.2845,-89.5053 1501.1117,-82.7479"/>
</g>
<!-- Node32&#45;&gt;Node26 -->
<g id="edge78" class="edge">
<title>Node32&#45;&gt;Node26</title>
<path fill="none" stroke="#191970" d="M1646.7447,-127.4408C1643.6266,-126.8957 1640.518,-126.4051 1637.5,-126 1356.2737,-88.2532 1279.2536,-124.2637 993.565,-90.0134"/>
<polygon fill="#191970" stroke="#191970" points="993.6632,-86.4996 983.3134,-88.7651 992.817,-93.4483 993.6632,-86.4996"/>
</g>
<!-- Node32&#45;&gt;Node28 -->
<g id="edge80" class="edge">
<title>Node32&#45;&gt;Node28</title>
<path fill="none" stroke="#191970" d="M1646.7534,-127.3734C1643.6333,-126.8436 1640.5218,-126.375 1637.5,-126 1197.3052,-71.3804 1078.6598,-136.9864 633.9933,-90.0555"/>
<polygon fill="#191970" stroke="#191970" points="634.0783,-86.5447 623.763,-88.962 633.3343,-93.5051 634.0783,-86.5447"/>
</g>
<!-- Node32&#45;&gt;Node29 -->
<g id="edge85" class="edge">
<title>Node32&#45;&gt;Node29</title>
<path fill="none" stroke="#191970" d="M1646.7351,-127.51C1643.6192,-126.9491 1640.5136,-126.436 1637.5,-126 1432.9662,-96.4068 1376.3806,-116.938 1167.7397,-90.0691"/>
<polygon fill="#191970" stroke="#191970" points="1168.058,-86.581 1157.6883,-88.7534 1167.1494,-93.5218 1168.058,-86.581"/>
</g>
<!-- Node33 -->
<g id="node33" class="node">
<title>Node33</title>
<g id="a_node33"><a xlink:href="../../df/d81/PHG4ForwardHcalSubsystem_8h.html" target="_top" xlink:title="g4detectors/PHG4ForwardHcal\lSubsystem.h">
<polygon fill="none" stroke="#ff0000" points="1176,-57.5 1176,-89.5 1347,-89.5 1347,-57.5 1176,-57.5"/>
<text text-anchor="start" x="1184" y="-76.5" font-family="FreeSans" font-size="10.00" fill="#000000">g4detectors/PHG4ForwardHcal</text>
<text text-anchor="middle" x="1261.5" y="-64.5" font-family="FreeSans" font-size="10.00" fill="#000000">Subsystem.h</text>
</a>
</g>
</g>
<!-- Node32&#45;&gt;Node33 -->
<g id="edge81" class="edge">
<title>Node32&#45;&gt;Node33</title>
<path fill="none" stroke="#191970" d="M1646.9748,-127.7319C1643.7754,-127.1132 1640.5874,-126.5269 1637.5,-126 1516.1127,-105.2838 1482.1358,-108.7314 1356.9985,-90.1833"/>
<polygon fill="#191970" stroke="#191970" points="1357.438,-86.7102 1347.0295,-88.6881 1356.3997,-93.6327 1357.438,-86.7102"/>
</g>
<!-- Node33&#45;&gt;Node7 -->
<g id="edge82" class="edge">
<title>Node33&#45;&gt;Node7</title>
<path fill="none" stroke="#191970" d="M1347.241,-57.9594C1350.0231,-57.612 1352.7816,-57.2904 1355.5,-57 1759.108,-13.8786 1871.316,-94.0935 2273.8076,-20.8637"/>
<polygon fill="#191970" stroke="#191970" points="2274.4709,-24.3005 2283.6725,-19.0488 2273.2043,-17.416 2274.4709,-24.3005"/>
</g>
<!-- Node34&#45;&gt;Node4 -->
<g id="edge90" class="edge">
<title>Node34&#45;&gt;Node4</title>
<path fill="none" stroke="#191970" d="M3163.7227,-127.4275C3160.609,-126.9008 3157.5106,-126.4169 3154.5,-126 2945.6626,-97.0804 2889.2887,-125.6826 2681.5,-90 2675.5429,-88.977 2669.3247,-87.6301 2663.2336,-86.1462"/>
<polygon fill="#191970" stroke="#191970" points="2663.7283,-82.6594 2653.1712,-83.5523 2661.9809,-89.4378 2663.7283,-82.6594"/>
</g>
<!-- Node34&#45;&gt;Node6 -->
<g id="edge91" class="edge">
<title>Node34&#45;&gt;Node6</title>
<path fill="none" stroke="#191970" d="M3213.73,-126.378C3220.317,-117.1563 3230.2098,-103.3063 3238.2186,-92.094"/>
<polygon fill="#191970" stroke="#191970" points="3241.1741,-93.9779 3244.1384,-83.8062 3235.4779,-89.9092 3241.1741,-93.9779"/>
</g>
<!-- Node34&#45;&gt;Node7 -->
<g id="edge93" class="edge">
<title>Node34&#45;&gt;Node7</title>
<path fill="none" stroke="#191970" d="M3249.1791,-132.0824C3314.6534,-123.7723 3427.9852,-102.4014 3384.5,-57 3347.4561,-18.3237 2516.1745,-11.6396 2339.3728,-10.6541"/>
<polygon fill="#191970" stroke="#191970" points="2339.1602,-7.153 2329.1417,-10.5994 2339.1228,-14.1529 2339.1602,-7.153"/>
</g>
<!-- Node34&#45;&gt;Node8 -->
<g id="edge92" class="edge">
<title>Node34&#45;&gt;Node8</title>
<path fill="none" stroke="#191970" d="M3163.9899,-127.5841C3160.7847,-127.0137 3157.5947,-126.4777 3154.5,-126 3006.5065,-103.1562 2967.065,-115.4653 2819.5,-90 2812.7314,-88.8319 2805.6376,-87.3898 2798.6813,-85.8485"/>
<polygon fill="#191970" stroke="#191970" points="2799.1719,-82.37 2788.6418,-83.5395 2797.6029,-89.1919 2799.1719,-82.37"/>
</g>
<!-- Node35&#45;&gt;Node4 -->
<g id="edge95" class="edge">
<title>Node35&#45;&gt;Node4</title>
<path fill="none" stroke="#191970" d="M3055.4727,-127.4172C3052.4414,-126.9069 3049.4295,-126.4283 3046.5,-126 2885.2055,-102.4173 2841.8394,-119.3825 2681.5,-90 2675.6239,-88.9232 2669.4876,-87.5579 2663.4678,-86.0757"/>
<polygon fill="#191970" stroke="#191970" points="2664.071,-82.6166 2653.5132,-83.5009 2662.3181,-89.3936 2664.071,-82.6166"/>
</g>
<!-- Node35&#45;&gt;Node6 -->
<g id="edge96" class="edge">
<title>Node35&#45;&gt;Node6</title>
<path fill="none" stroke="#191970" d="M3124.7608,-126.378C3149.9671,-115.8614 3189.6005,-99.3256 3217.8316,-87.5471"/>
<polygon fill="#191970" stroke="#191970" points="3219.4182,-90.6776 3227.2994,-83.5969 3216.7228,-84.2173 3219.4182,-90.6776"/>
</g>
<!-- Node35&#45;&gt;Node7 -->
<g id="edge98" class="edge">
<title>Node35&#45;&gt;Node7</title>
<path fill="none" stroke="#191970" d="M3145.5111,-127.8415C3148.8901,-127.2115 3152.2482,-126.5918 3155.5,-126 3251.3245,-108.562 3430.8405,-127.3681 3363.5,-57 3327.2314,-19.1008 2513.8376,-11.8122 2339.292,-10.6828"/>
<polygon fill="#191970" stroke="#191970" points="2339.2033,-7.1822 2329.1817,-10.6197 2339.1596,-14.1821 2339.2033,-7.1822"/>
</g>
<!-- Node35&#45;&gt;Node8 -->
<g id="edge97" class="edge">
<title>Node35&#45;&gt;Node8</title>
<path fill="none" stroke="#191970" d="M3055.4405,-127.6169C3052.417,-127.0584 3049.4156,-126.5145 3046.5,-126 2945.9045,-108.2487 2919.6939,-109.8936 2819.5,-90 2813.2367,-88.7564 2806.6804,-87.3398 2800.2066,-85.8713"/>
<polygon fill="#191970" stroke="#191970" points="2800.6879,-82.39 2790.1554,-83.5383 2799.1051,-89.2087 2800.6879,-82.39"/>
</g>
<!-- Node36&#45;&gt;Node4 -->
<g id="edge100" class="edge">
<title>Node36&#45;&gt;Node4</title>
<path fill="none" stroke="#191970" d="M1962.0196,-127.3023C1965.2215,-126.8197 1968.4038,-126.3787 1971.5,-126 2230.9455,-94.266 2300.4877,-131.8169 2558.5,-90 2564.7775,-88.9826 2571.3388,-87.5983 2577.745,-86.0614"/>
<polygon fill="#191970" stroke="#191970" points="2578.7915,-89.4067 2587.6213,-83.5513 2577.0672,-82.6224 2578.7915,-89.4067"/>
</g>
<!-- Node36&#45;&gt;Node8 -->
<g id="edge104" class="edge">
<title>Node36&#45;&gt;Node8</title>
<path fill="none" stroke="#191970" d="M1962.0151,-127.2643C1965.2181,-126.7909 1968.4018,-126.3623 1971.5,-126 2285.3223,-89.3006 2368.7502,-134.9322 2681.5,-90 2688.7922,-88.9523 2696.4435,-87.4935 2703.888,-85.8729"/>
<polygon fill="#191970" stroke="#191970" points="2704.8939,-89.2331 2713.8583,-83.586 2703.3289,-82.4103 2704.8939,-89.2331"/>
</g>
<!-- Node36&#45;&gt;Node11 -->
<g id="edge102" class="edge">
<title>Node36&#45;&gt;Node11</title>
<path fill="none" stroke="#191970" d="M1962.0117,-127.2347C1965.2155,-126.7684 1968.4003,-126.3496 1971.5,-126 2343.0577,-84.0986 2443.1498,-133.5971 2817.5511,-90.1272"/>
<polygon fill="#191970" stroke="#191970" points="2818.0527,-93.5924 2827.5756,-88.9488 2817.2354,-86.6403 2818.0527,-93.5924"/>
</g>
<!-- Node36&#45;&gt;Node12 -->
<g id="edge108" class="edge">
<title>Node36&#45;&gt;Node12</title>
<path fill="none" stroke="#191970" d="M1962.0089,-127.2094C1965.2134,-126.7492 1968.3991,-126.3386 1971.5,-126 2421.11,-76.8995 2539.8005,-146.8221 2988.5,-90 2996.9609,-88.9285 3005.8763,-87.3623 3014.4908,-85.6155"/>
<polygon fill="#191970" stroke="#191970" points="3015.3685,-89.0071 3024.42,-83.5007 3013.9103,-82.1607 3015.3685,-89.0071"/>
</g>
<!-- Node36&#45;&gt;Node18 -->
<g id="edge101" class="edge">
<title>Node36&#45;&gt;Node18</title>
<path fill="none" stroke="#191970" d="M1870.3022,-126.4478C1821.7585,-115.4072 1743.7803,-97.672 1691.6132,-85.8073"/>
<polygon fill="#191970" stroke="#191970" points="1692.0676,-82.3214 1681.5403,-83.5164 1690.5151,-89.147 1692.0676,-82.3214"/>
</g>
<!-- Node36&#45;&gt;Node20 -->
<g id="edge103" class="edge">
<title>Node36&#45;&gt;Node20</title>
<path fill="none" stroke="#191970" d="M1923.9794,-126.378C1932.7866,-116.9736 1946.1016,-102.7559 1956.7074,-91.431"/>
<polygon fill="#191970" stroke="#191970" points="1959.5672,-93.4977 1963.8481,-83.8062 1954.4579,-88.7128 1959.5672,-93.4977"/>
</g>
<!-- Node36&#45;&gt;Node21 -->
<g id="edge105" class="edge">
<title>Node36&#45;&gt;Node21</title>
<path fill="none" stroke="#191970" d="M1950.1681,-126.378C1982.3707,-117.2394 2030.5896,-103.5557 2069.9074,-92.3979"/>
<polygon fill="#191970" stroke="#191970" points="2071.0319,-95.7171 2079.6965,-89.6199 2069.1208,-88.983 2071.0319,-95.7171"/>
</g>
<!-- Node36&#45;&gt;Node22 -->
<g id="edge106" class="edge">
<title>Node36&#45;&gt;Node22</title>
<path fill="none" stroke="#191970" d="M1897.7906,-126.378C1883.9042,-117.966 1863.6605,-105.703 1846.1634,-95.1038"/>
<polygon fill="#191970" stroke="#191970" points="1847.6787,-91.9296 1837.3122,-89.742 1844.0518,-97.9168 1847.6787,-91.9296"/>
</g>
<!-- Node36&#45;&gt;Node23 -->
<g id="edge107" class="edge">
<title>Node36&#45;&gt;Node23</title>
<path fill="none" stroke="#191970" d="M1866.9531,-127.5023C1863.7577,-126.9714 1860.5845,-126.465 1857.5,-126 1722.0923,-105.5852 1687.0605,-109.3739 1551.5,-90 1541.3395,-88.5479 1530.6093,-86.8797 1520.1227,-85.1742"/>
<polygon fill="#191970" stroke="#191970" points="1520.606,-81.7067 1510.1698,-83.5335 1519.4673,-88.6135 1520.606,-81.7067"/>
</g>
<!-- Node37&#45;&gt;Node4 -->
<g id="edge110" class="edge">
<title>Node37&#45;&gt;Node4</title>
<path fill="none" stroke="#191970" d="M1848.6852,-127.0965C1851.6625,-126.6912 1854.6164,-126.3211 1857.5,-126 2167.5502,-91.4784 2250.3079,-138.3787 2558.5,-90 2564.8547,-89.0025 2571.4974,-87.6153 2577.9749,-86.0651"/>
<polygon fill="#191970" stroke="#191970" points="2579.1239,-89.3844 2587.9526,-83.5274 2577.3984,-82.6004 2579.1239,-89.3844"/>
</g>
<!-- Node37&#45;&gt;Node8 -->
<g id="edge113" class="edge">
<title>Node37&#45;&gt;Node8</title>
<path fill="none" stroke="#191970" d="M1848.6823,-127.07C1851.6603,-126.6715 1854.6152,-126.31 1857.5,-126 2221.9727,-86.8294 2318.4738,-140.8593 2681.5,-90 2688.9635,-88.9544 2696.8011,-87.466 2704.4075,-85.8062"/>
<polygon fill="#191970" stroke="#191970" points="2705.262,-89.2011 2714.2229,-83.5484 2703.6927,-82.3793 2705.262,-89.2011"/>
</g>
<!-- Node37&#45;&gt;Node12 -->
<g id="edge117" class="edge">
<title>Node37&#45;&gt;Node12</title>
<path fill="none" stroke="#191970" d="M1848.6781,-127.029C1851.6572,-126.6409 1854.6134,-126.293 1857.5,-126 2357.8512,-75.2212 2489.4518,-152.2948 2988.5,-90 2996.9628,-88.9436 3005.8791,-87.3849 3014.494,-85.6409"/>
<polygon fill="#191970" stroke="#191970" points="3015.3712,-89.0327 3024.4234,-83.5275 3013.9138,-82.1861 3015.3712,-89.0327"/>
</g>
<!-- Node37&#45;&gt;Node18 -->
<g id="edge111" class="edge">
<title>Node37&#45;&gt;Node18</title>
<path fill="none" stroke="#191970" d="M1770.9539,-126.378C1744.2962,-115.8155 1702.3142,-99.1811 1672.5634,-87.393"/>
<polygon fill="#191970" stroke="#191970" points="1673.5688,-84.0267 1662.9827,-83.5969 1670.9902,-90.5345 1673.5688,-84.0267"/>
</g>
<!-- Node37&#45;&gt;Node20 -->
<g id="edge112" class="edge">
<title>Node37&#45;&gt;Node20</title>
<path fill="none" stroke="#191970" d="M1824.9381,-126.378C1854.8717,-115.7236 1902.1624,-98.8913 1935.328,-87.0866"/>
<polygon fill="#191970" stroke="#191970" points="1936.8851,-90.2476 1945.1325,-83.5969 1934.5378,-83.6529 1936.8851,-90.2476"/>
</g>
<!-- Node37&#45;&gt;Node21 -->
<g id="edge114" class="edge">
<title>Node37&#45;&gt;Node21</title>
<path fill="none" stroke="#191970" d="M1848.6325,-126.9255C1897.4084,-117.9573 1972.5893,-104.1081 2048.119,-90.0679"/>
<polygon fill="#191970" stroke="#191970" points="2049.1007,-93.4454 2058.2922,-88.176 2047.8208,-86.5634 2049.1007,-93.4454"/>
</g>
<!-- Node37&#45;&gt;Node22 -->
<g id="edge115" class="edge">
<title>Node37&#45;&gt;Node22</title>
<path fill="none" stroke="#191970" d="M1798.7493,-126.378C1800.3614,-119.1236 1802.61,-109.0052 1804.7089,-99.5598"/>
<polygon fill="#191970" stroke="#191970" points="1808.1379,-100.2631 1806.8907,-89.742 1801.3046,-98.7446 1808.1379,-100.2631"/>
</g>
<!-- Node37&#45;&gt;Node23 -->
<g id="edge116" class="edge">
<title>Node37&#45;&gt;Node23</title>
<path fill="none" stroke="#191970" d="M1744.4057,-126.9317C1683.8336,-115.8062 1583.8103,-97.4345 1518.2823,-85.3988"/>
<polygon fill="#191970" stroke="#191970" points="1518.5407,-81.8878 1508.073,-83.5236 1517.2761,-88.7726 1518.5407,-81.8878"/>
</g>
<!-- Node38&#45;&gt;Node4 -->
<g id="edge119" class="edge">
<title>Node38&#45;&gt;Node4</title>
<path fill="none" stroke="#191970" d="M2717.0233,-126.378C2698.3294,-116.137 2669.2162,-100.188 2647.849,-88.4825"/>
<polygon fill="#191970" stroke="#191970" points="2649.3827,-85.3319 2638.9309,-83.5969 2646.0195,-91.4711 2649.3827,-85.3319"/>
</g>
<!-- Node38&#45;&gt;Node12 -->
<g id="edge120" class="edge">
<title>Node38&#45;&gt;Node12</title>
<path fill="none" stroke="#191970" d="M2771.8099,-127.8377C2774.7455,-127.1953 2777.6697,-126.5746 2780.5,-126 2872.443,-107.333 2896.4405,-108.0837 2988.5,-90 2995.268,-88.6705 3002.3635,-87.2046 3009.3777,-85.7115"/>
<polygon fill="#191970" stroke="#191970" points="3010.5115,-89.0475 3019.5486,-83.5175 3009.0354,-82.2049 3010.5115,-89.0475"/>
</g>
<!-- Node39&#45;&gt;Node4 -->
<g id="edge122" class="edge">
<title>Node39&#45;&gt;Node4</title>
<path fill="none" stroke="#191970" d="M2540.7634,-126.378C2555.8599,-116.3666 2579.182,-100.9003 2596.7106,-89.2762"/>
<polygon fill="#191970" stroke="#191970" points="2598.8749,-92.0406 2605.2745,-83.5969 2595.0061,-86.2068 2598.8749,-92.0406"/>
</g>
<!-- Node39&#45;&gt;Node8 -->
<g id="edge124" class="edge">
<title>Node39&#45;&gt;Node8</title>
<path fill="none" stroke="#191970" d="M2561.6501,-126.378C2600.5213,-115.494 2662.4181,-98.1629 2704.6767,-86.3305"/>
<polygon fill="#191970" stroke="#191970" points="2705.7537,-89.6637 2714.4396,-83.5969 2703.8662,-82.9229 2705.7537,-89.6637"/>
</g>
<!-- Node39&#45;&gt;Node11 -->
<g id="edge123" class="edge">
<title>Node39&#45;&gt;Node11</title>
<path fill="none" stroke="#191970" d="M2567.7658,-127.6084C2570.7182,-127.0458 2573.6515,-126.5038 2576.5,-126 2680.8603,-107.5415 2710.2019,-108.4542 2817.996,-90.2137"/>
<polygon fill="#191970" stroke="#191970" points="2818.707,-93.643 2827.9747,-88.5088 2817.528,-86.743 2818.707,-93.643"/>
</g>
<!-- Node40&#45;&gt;Node4 -->
<g id="edge126" class="edge">
<title>Node40&#45;&gt;Node4</title>
<path fill="none" stroke="#191970" d="M3497.1992,-130.6665C3482.3082,-128.9528 3465.7251,-127.2145 3450.5,-126 3109.4314,-98.7922 3019.5251,-142.9821 2681.5,-90 2675.2407,-89.0189 2668.7013,-87.6408 2662.3265,-86.0947"/>
<polygon fill="#191970" stroke="#191970" points="2663.0661,-82.671 2652.5086,-83.5598 2661.316,-89.4487 2663.0661,-82.671"/>
</g>
<!-- Node40&#45;&gt;Node8 -->
<g id="edge127" class="edge">
<title>Node40&#45;&gt;Node8</title>
<path fill="none" stroke="#191970" d="M3497.1915,-130.7599C3482.3001,-129.0512 3465.7187,-127.2923 3450.5,-126 3170.6067,-102.2337 3097.4178,-130.8261 2819.5,-90 2812.2112,-88.9293 2804.5617,-87.4582 2797.1179,-85.8322"/>
<polygon fill="#191970" stroke="#191970" points="2797.6779,-82.3698 2787.1481,-83.5421 2796.1107,-89.1921 2797.6779,-82.3698"/>
</g>
<!-- Node40&#45;&gt;Node12 -->
<g id="edge128" class="edge">
<title>Node40&#45;&gt;Node12</title>
<path fill="none" stroke="#191970" d="M3497.3628,-128.0954C3492.687,-127.3428 3488.0035,-126.6289 3483.5,-126 3331.2537,-104.7379 3291.284,-114.3437 3139.5,-90 3131.8136,-88.7672 3123.7344,-87.2528 3115.8293,-85.6461"/>
<polygon fill="#191970" stroke="#191970" points="3116.4572,-82.2017 3105.9519,-83.5759 3115.0212,-89.0529 3116.4572,-82.2017"/>
</g>
<!-- Node40&#45;&gt;Node13 -->
<g id="edge130" class="edge">
<title>Node40&#45;&gt;Node13</title>
<path fill="none" stroke="#191970" d="M3589.7548,-132.29C3646.8373,-126.181 3739.4397,-112.9972 3764.5,-90 3780.9498,-74.9044 3786.2803,-48.9808 3787.9246,-30.8532"/>
<polygon fill="#191970" stroke="#191970" points="3791.426,-30.934 3788.5385,-20.7402 3784.4389,-30.5097 3791.426,-30.934"/>
</g>
<!-- Node40&#45;&gt;Node14 -->
<g id="edge129" class="edge">
<title>Node40&#45;&gt;Node14</title>
<path fill="none" stroke="#191970" d="M3532.0926,-126.378C3521.1854,-116.6997 3504.533,-101.9236 3491.6013,-90.449"/>
<polygon fill="#191970" stroke="#191970" points="3493.9179,-87.8254 3484.1149,-83.8062 3489.2719,-93.0613 3493.9179,-87.8254"/>
</g>
<!-- Node42&#45;&gt;Node4 -->
<g id="edge133" class="edge">
<title>Node42&#45;&gt;Node4</title>
<path fill="none" stroke="#191970" d="M2442.5615,-126.378C2479.0322,-115.54 2537.0155,-98.3091 2576.8193,-86.4806"/>
<polygon fill="#191970" stroke="#191970" points="2577.9344,-89.8006 2586.5231,-83.5969 2575.9403,-83.0906 2577.9344,-89.8006"/>
</g>
<!-- Node42&#45;&gt;Node8 -->
<g id="edge135" class="edge">
<title>Node42&#45;&gt;Node8</title>
<path fill="none" stroke="#191970" d="M2465.1888,-127.2973C2532.6313,-116.2692 2641.1675,-98.2479 2681.5,-90 2687.6769,-88.7368 2694.1423,-87.3191 2700.5338,-85.8592"/>
<polygon fill="#191970" stroke="#191970" points="2701.5194,-89.2234 2710.4649,-83.5464 2699.9316,-82.4059 2701.5194,-89.2234"/>
</g>
<!-- Node42&#45;&gt;Node11 -->
<g id="edge134" class="edge">
<title>Node42&#45;&gt;Node11</title>
<path fill="none" stroke="#191970" d="M2465.3534,-127.2562C2468.4451,-126.8157 2471.5092,-126.3937 2474.5,-126 2624.0637,-106.3141 2665.2837,-112.5923 2817.7909,-90.1815"/>
<polygon fill="#191970" stroke="#191970" points="2818.6232,-93.5963 2827.9996,-88.6633 2817.5935,-86.6724 2818.6232,-93.5963"/>
</g>
<!-- Node43&#45;&gt;Node4 -->
<g id="edge137" class="edge">
<title>Node43&#45;&gt;Node4</title>
<path fill="none" stroke="#191970" d="M2164.7381,-128.4352C2169.3521,-127.5305 2174.0287,-126.6885 2178.5,-126 2346.1692,-100.1833 2391.5137,-119.917 2558.5,-90 2564.4702,-88.9304 2570.7058,-87.5693 2576.8237,-86.089"/>
<polygon fill="#191970" stroke="#191970" points="2578.1122,-89.3728 2586.941,-83.5159 2576.3868,-82.5888 2578.1122,-89.3728"/>
</g>
<!-- Node43&#45;&gt;Node8 -->
<g id="edge138" class="edge">
<title>Node43&#45;&gt;Node8</title>
<path fill="none" stroke="#191970" d="M2164.6772,-133.3834C2188.5934,-131.274 2220.9532,-128.4384 2249.5,-126 2441.4665,-109.6029 2491.2627,-120.492 2681.5,-90 2688.607,-88.8609 2696.0648,-87.382 2703.3429,-85.7779"/>
<polygon fill="#191970" stroke="#191970" points="2704.145,-89.1849 2713.1063,-83.533 2702.5763,-82.3629 2704.145,-89.1849"/>
</g>
<!-- Node44&#45;&gt;Node4 -->
<g id="edge140" class="edge">
<title>Node44&#45;&gt;Node4</title>
<path fill="none" stroke="#191970" d="M3272.1993,-192.4224C3074.6253,-187.4053 2267.4844,-165.786 2249.5,-147 2243.0457,-140.2581 2243.2939,-132.9711 2249.5,-126 2295.4677,-74.3659 2490.5875,-102.923 2558.5,-90 2564.3182,-88.8929 2570.3941,-87.5338 2576.3698,-86.0753"/>
<polygon fill="#191970" stroke="#191970" points="2577.4421,-89.414 2586.2686,-83.5536 2575.714,-82.6306 2577.4421,-89.414"/>
</g>
<!-- Node44&#45;&gt;Node8 -->
<g id="edge143" class="edge">
<title>Node44&#45;&gt;Node8</title>
<path fill="none" stroke="#191970" d="M3310.3256,-183.2998C3301.8578,-167.8233 3283.4526,-138.8538 3258.5,-126 3171.4838,-81.1752 2916.1596,-105.4275 2819.5,-90 2812.3923,-88.8656 2804.9341,-87.3893 2797.6558,-85.7863"/>
<polygon fill="#191970" stroke="#191970" points="2798.4221,-82.3712 2787.8922,-83.5421 2796.854,-89.1933 2798.4221,-82.3712"/>
</g>
<!-- Node44&#45;&gt;Node11 -->
<g id="edge142" class="edge">
<title>Node44&#45;&gt;Node11</title>
<path fill="none" stroke="#191970" d="M3315.0777,-183.3805C3313.8576,-168.2813 3309.1903,-140.1226 3291.5,-126 3240.7854,-85.5133 3070.9818,-99.1354 2989.8274,-89.917"/>
<polygon fill="#191970" stroke="#191970" points="2989.8269,-86.3859 2979.4513,-88.5303 2988.8995,-93.3242 2989.8269,-86.3859"/>
</g>
<!-- Node44&#45;&gt;Node12 -->
<g id="edge144" class="edge">
<title>Node44&#45;&gt;Node12</title>
<path fill="none" stroke="#191970" d="M3358.8148,-187.4129C3408.8192,-178.6647 3480.5687,-159.7501 3450.5,-126 3404.2195,-74.0533 3208.1332,-101.3942 3139.5,-90 3131.9984,-88.7546 3124.1191,-87.2586 3116.3913,-85.6825"/>
<polygon fill="#191970" stroke="#191970" points="3116.8698,-82.2068 3106.3642,-83.5788 3115.4324,-89.0576 3116.8698,-82.2068"/>
</g>
<!-- Node44&#45;&gt;Node13 -->
<g id="edge146" class="edge">
<title>Node44&#45;&gt;Node13</title>
<path fill="none" stroke="#191970" d="M3358.5789,-191.0502C3465.2617,-183.9592 3736.7852,-159.3112 3787.5,-90 3799.8695,-73.0947 3797.9251,-48.2949 3794.2905,-30.9011"/>
<polygon fill="#191970" stroke="#191970" points="3797.57,-29.5781 3791.7915,-20.6978 3790.771,-31.2434 3797.57,-29.5781"/>
</g>
<!-- Node44&#45;&gt;Node14 -->
<g id="edge145" class="edge">
<title>Node44&#45;&gt;Node14</title>
<path fill="none" stroke="#191970" d="M3358.5844,-189.4754C3433.9362,-181.9989 3583.1519,-165.0758 3598.5,-147 3628.0635,-112.1825 3553.4289,-89.9423 3506.7431,-79.8394"/>
<polygon fill="#191970" stroke="#191970" points="3507.1895,-76.3576 3496.6873,-77.7552 3505.7688,-83.2119 3507.1895,-76.3576"/>
</g>
<!-- Node44&#45;&gt;Node40 -->
<g id="edge141" class="edge">
<title>Node44&#45;&gt;Node40</title>
<path fill="none" stroke="#191970" d="M3355.737,-183.4408C3394.1203,-173.8449 3452.0549,-159.3613 3493.4111,-149.0222"/>
<polygon fill="#191970" stroke="#191970" points="3494.4299,-152.3753 3503.2824,-146.5544 3492.7321,-145.5843 3494.4299,-152.3753"/>
</g>
<!-- Node45&#45;&gt;Node4 -->
<g id="edge148" class="edge">
<title>Node45&#45;&gt;Node4</title>
<path fill="none" stroke="#191970" d="M3059.8708,-246.4964C2994.591,-230.4252 2860.1452,-199.0379 2744.5,-183 2688.9993,-175.303 2279.6801,-188.0103 2241.5,-147 2235.1403,-140.1688 2235.2838,-132.9621 2241.5,-126 2288.7189,-73.1152 2488.8334,-103.1521 2558.5,-90 2564.3198,-88.9013 2570.3967,-87.5472 2576.3728,-86.0912"/>
<polygon fill="#191970" stroke="#191970" points="2577.4443,-89.4301 2586.272,-83.5717 2575.7177,-82.6464 2577.4443,-89.4301"/>
</g>
<!-- Node45&#45;&gt;Node12 -->
<g id="edge155" class="edge">
<title>Node45&#45;&gt;Node12</title>
<path fill="none" stroke="#191970" d="M3154.1335,-249.4224C3216.572,-240.839 3321.614,-224.8878 3410.5,-204 3452.9981,-194.0131 3572.4918,-182.0628 3598.5,-147 3604.0604,-139.5038 3604.8364,-132.8528 3598.5,-126 3563.7698,-88.4392 3190.1121,-97.4438 3139.5,-90 3131.4277,-88.8128 3122.9316,-87.2666 3114.6616,-85.5972"/>
<polygon fill="#191970" stroke="#191970" points="3115.2351,-82.1414 3104.7297,-83.5155 3113.799,-88.9925 3115.2351,-82.1414"/>
</g>
<!-- Node45&#45;&gt;Node13 -->
<g id="edge156" class="edge">
<title>Node45&#45;&gt;Node13</title>
<path fill="none" stroke="#191970" d="M3154.4055,-254.766C3264.755,-249.5762 3519.536,-228.9255 3714.5,-147 3758.4969,-128.5121 3782.3858,-131.7524 3805.5,-90 3815.9575,-71.1102 3807.8465,-46.408 3799.6246,-29.5852"/>
<polygon fill="#191970" stroke="#191970" points="3802.6871,-27.8896 3794.9103,-20.6942 3796.5027,-31.1687 3802.6871,-27.8896"/>
</g>
<!-- Node45&#45;&gt;Node16 -->
<g id="edge149" class="edge">
<title>Node45&#45;&gt;Node16</title>
<path fill="none" stroke="#191970" d="M3044.7737,-252.6092C2975.9285,-246.7107 2854.5991,-232.9696 2754.5,-204 2732.1322,-197.5266 2729.1448,-188.4255 2706.5,-183 2440.9275,-119.3712 2361.8988,-178.623 2086.9225,-147.0159"/>
<polygon fill="#191970" stroke="#191970" points="2086.979,-143.4983 2076.6377,-145.802 2086.1585,-150.4501 2086.979,-143.4983"/>
</g>
<!-- Node45&#45;&gt;Node30 -->
<g id="edge150" class="edge">
<title>Node45&#45;&gt;Node30</title>
<path fill="none" stroke="#191970" d="M3044.9749,-252.7758C2801.6755,-236.1103 1819.5825,-168.3175 1639.1432,-147.0408"/>
<polygon fill="#191970" stroke="#191970" points="1639.4563,-143.5529 1629.1016,-145.7959 1638.595,-150.4997 1639.4563,-143.5529"/>
</g>
<!-- Node45&#45;&gt;Node32 -->
<g id="edge151" class="edge">
<title>Node45&#45;&gt;Node32</title>
<path fill="none" stroke="#191970" d="M3044.7514,-251.5744C2968.4527,-244.1692 2826.0494,-228.3827 2706.5,-204 2672.1633,-196.9969 2665.124,-188.4064 2630.5,-183 2240.4317,-122.0923 2132.2523,-195.6479 1736.2531,-146.8626"/>
<polygon fill="#191970" stroke="#191970" points="1736.6054,-143.3795 1726.2484,-145.6117 1735.7369,-150.3254 1736.6054,-143.3795"/>
</g>
<!-- Node45&#45;&gt;Node35 -->
<g id="edge152" class="edge">
<title>Node45&#45;&gt;Node35</title>
<path fill="none" stroke="#191970" d="M3099.5853,-246.2689C3099.7498,-226.52 3100.1141,-182.8129 3100.33,-156.9032"/>
<polygon fill="#191970" stroke="#191970" points="3103.8314,-156.7341 3100.415,-146.7052 3096.8317,-156.6757 3103.8314,-156.7341"/>
</g>
<!-- Node45&#45;&gt;Node40 -->
<g id="edge153" class="edge">
<title>Node45&#45;&gt;Node40</title>
<path fill="none" stroke="#191970" d="M3154.0513,-248.6479C3208.6713,-240.1264 3294.8193,-224.8866 3367.5,-204 3419.2495,-189.1285 3477.1794,-165.4911 3511.9695,-150.4983"/>
<polygon fill="#191970" stroke="#191970" points="3513.3664,-153.7075 3521.1441,-146.5132 3510.5776,-147.287 3513.3664,-153.7075"/>
</g>
<!-- Node45&#45;&gt;Node44 -->
<g id="edge154" class="edge">
<title>Node45&#45;&gt;Node44</title>
<path fill="none" stroke="#191970" d="M3134.2041,-246.378C3171.4418,-235.517 3230.6907,-218.236 3271.2526,-206.4055"/>
<polygon fill="#191970" stroke="#191970" points="3272.262,-209.757 3280.882,-203.5969 3270.302,-203.037 3272.262,-209.757"/>
</g>
<!-- Node46&#45;&gt;Node12 -->
<g id="edge158" class="edge">
<title>Node46&#45;&gt;Node12</title>
<path fill="none" stroke="#191970" d="M3693.1656,-183.2676C3692.0602,-168.0208 3687.5408,-139.6721 3669.5,-126 3622.458,-90.3496 3197.9404,-98.2835 3139.5,-90 3131.3266,-88.8415 3122.7223,-87.2952 3114.3591,-85.6124"/>
<polygon fill="#191970" stroke="#191970" points="3114.8279,-82.1347 3104.3225,-83.509 3113.392,-88.9859 3114.8279,-82.1347"/>
</g>
<!-- Node47&#45;&gt;Node4 -->
<g id="edge160" class="edge">
<title>Node47&#45;&gt;Node4</title>
<path fill="none" stroke="#191970" d="M2334.1168,-127.7226C2336.9495,-127.1202 2339.7676,-126.5391 2342.5,-126 2437.9838,-107.1626 2463.3675,-110.5379 2558.5,-90 2563.9439,-88.8247 2569.6263,-87.4791 2575.2465,-86.0746"/>
<polygon fill="#191970" stroke="#191970" points="2576.4176,-89.3873 2585.2306,-83.5067 2574.674,-82.608 2576.4176,-89.3873"/>
</g>
<!-- Node47&#45;&gt;Node8 -->
<g id="edge161" class="edge">
<title>Node47&#45;&gt;Node8</title>
<path fill="none" stroke="#191970" d="M2334.0834,-127.5392C2336.9239,-126.9791 2339.7528,-126.4578 2342.5,-126 2491.9534,-101.0975 2532.1769,-115.6724 2681.5,-90 2688.2693,-88.8362 2695.3636,-87.3965 2702.3201,-85.8562"/>
<polygon fill="#191970" stroke="#191970" points="2703.3981,-89.1998 2712.3596,-83.5482 2701.8297,-82.3778 2703.3981,-89.1998"/>
</g>
<!-- Node48&#45;&gt;Node7 -->
<g id="edge164" class="edge">
<title>Node48&#45;&gt;Node7</title>
<path fill="none" stroke="#191970" d="M265.2372,-183.1772C239.3895,-158.3092 180.7673,-94.3809 217.5,-57 256.4391,-17.3738 2109.6038,-30.007 2273.7238,-20.0375"/>
<polygon fill="#191970" stroke="#191970" points="2274.0521,-23.5221 2283.6828,-19.1063 2273.4004,-16.5525 2274.0521,-23.5221"/>
</g>
<!-- Node49&#45;&gt;Node7 -->
<g id="edge167" class="edge">
<title>Node49&#45;&gt;Node7</title>
<path fill="none" stroke="#191970" d="M1187.8241,-191.4146C946.6352,-184.833 292.4518,-160.5787 228.5,-90 218.6519,-79.1314 218.2207,-67.4617 228.5,-57 267.1903,-17.6233 2106.7875,-29.9471 2273.276,-20.0636"/>
<polygon fill="#191970" stroke="#191970" points="2274.0456,-23.5077 2283.6828,-19.106 2273.4041,-16.5371 2274.0456,-23.5077"/>
</g>
<!-- Node50&#45;&gt;Node7 -->
<g id="edge171" class="edge">
<title>Node50&#45;&gt;Node7</title>
<path fill="none" stroke="#191970" d="M3761.0109,-240.4939C3757.789,-224.3712 3750.7954,-199.573 3736.5,-183 3660.1156,-94.4457 3618.2389,-88.0867 3505.5,-57 3390.4328,-25.2713 2520.3609,-13.0837 2339.4033,-10.8791"/>
<polygon fill="#191970" stroke="#191970" points="2339.2297,-7.3769 2329.1883,-10.7564 2339.1455,-14.3764 2339.2297,-7.3769"/>
</g>
</g>
</svg>
