<?xml version="1.0" encoding="UTF-8" standalone="no"?>
<!DOCTYPE svg PUBLIC "-//W3C//DTD SVG 1.1//EN"
 "http://www.w3.org/Graphics/SVG/1.1/DTD/svg11.dtd">
<!-- Generated by graphviz version 2.40.1 (20161225.0304)
 -->
<!-- Title: QAG4SimulationEicCalorimeter::Init Pages: 1 -->
<svg width="990pt" height="340pt"
 viewBox="0.00 0.00 990.00 340.38" xmlns="http://www.w3.org/2000/svg" xmlns:xlink="http://www.w3.org/1999/xlink">
<g id="graph0" class="graph" transform="scale(1 1) rotate(0) translate(4 336.3788)">
<title>QAG4SimulationEicCalorimeter::Init</title>
<!-- Node1 -->
<g id="node1" class="node">
<title>Node1</title>
<polygon fill="#bfbfbf" stroke="#000000" points="0,-141.8788 0,-173.8788 174,-173.8788 174,-141.8788 0,-141.8788"/>
<text text-anchor="start" x="8" y="-160.8788" font-family="FreeSans" font-size="10.00" fill="#000000">QAG4SimulationEicCalorimeter</text>
<text text-anchor="middle" x="87" y="-148.8788" font-family="FreeSans" font-size="10.00" fill="#000000">::Init</text>
</g>
<!-- Node2 -->
<g id="node2" class="node">
<title>Node2</title>
<g id="a_node2"><a xlink:href="../../dc/df2/classQAG4SimulationEicCalorimeter.html#a0125ab147a844367924193b77b66ff24" target="_top" xlink:title="QAG4SimulationEicCalorimeter\l::flag">
<polygon fill="none" stroke="#000000" points="210,-299.8788 210,-331.8788 384,-331.8788 384,-299.8788 210,-299.8788"/>
<text text-anchor="start" x="218" y="-318.8788" font-family="FreeSans" font-size="10.00" fill="#000000">QAG4SimulationEicCalorimeter</text>
<text text-anchor="middle" x="297" y="-306.8788" font-family="FreeSans" font-size="10.00" fill="#000000">::flag</text>
</a>
</g>
</g>
<!-- Node1&#45;&gt;Node2 -->
<g id="edge1" class="edge">
<title>Node1&#45;&gt;Node2</title>
<path fill="none" stroke="#191970" d="M98.7916,-174.2423C118.8146,-200.9396 161.9916,-253.9818 210,-284.8788 216.4467,-289.0278 223.5201,-292.7083 230.7612,-295.9507"/>
<polygon fill="#191970" stroke="#191970" points="229.4132,-299.1806 239.9884,-299.8256 232.1236,-292.7266 229.4132,-299.1806"/>
</g>
<!-- Node3 -->
<g id="node3" class="node">
<title>Node3</title>
<g id="a_node3"><a xlink:href="../../dc/df2/classQAG4SimulationEicCalorimeter.html#ae435b78f48d2ddfcc2781000079f6574" target="_top" xlink:title="common prefix for QA histograms">
<polygon fill="none" stroke="#000000" points="421.5,-209.8788 421.5,-241.8788 595.5,-241.8788 595.5,-209.8788 421.5,-209.8788"/>
<text text-anchor="start" x="429.5" y="-228.8788" font-family="FreeSans" font-size="10.00" fill="#000000">QAG4SimulationEicCalorimeter</text>
<text text-anchor="middle" x="508.5" y="-216.8788" font-family="FreeSans" font-size="10.00" fill="#000000">::get_histo_prefix</text>
</a>
</g>
</g>
<!-- Node1&#45;&gt;Node3 -->
<g id="edge2" class="edge">
<title>Node1&#45;&gt;Node3</title>
<path fill="none" stroke="#191970" d="M101.321,-174.0905C122.4511,-196.6459 164.4298,-236.4595 210,-251.8788 289.9332,-278.9255 388.4226,-261.2549 449.8552,-244.6788"/>
<polygon fill="#191970" stroke="#191970" points="451.0618,-247.9763 459.7609,-241.9285 449.189,-241.2314 451.0618,-247.9763"/>
</g>
<!-- Node4 -->
<g id="node4" class="node">
<title>Node4</title>
<g id="a_node4"><a xlink:href="../../d8/db5/namespaceQAHistManagerDef.html#a95764557eee8578107f3f8cac5a640da" target="_top" xlink:title="Get a pointer to the default hist manager for QA modules.">
<polygon fill="none" stroke="#000000" points="428,-158.8788 428,-190.8788 589,-190.8788 589,-158.8788 428,-158.8788"/>
<text text-anchor="start" x="436" y="-177.8788" font-family="FreeSans" font-size="10.00" fill="#000000">QAHistManagerDef::getHisto</text>
<text text-anchor="middle" x="508.5" y="-165.8788" font-family="FreeSans" font-size="10.00" fill="#000000">Manager</text>
</a>
</g>
</g>
<!-- Node1&#45;&gt;Node4 -->
<g id="edge3" class="edge">
<title>Node1&#45;&gt;Node4</title>
<path fill="none" stroke="#191970" d="M174.0794,-161.3909C245.1912,-164.259 345.373,-168.2996 417.5211,-171.2095"/>
<polygon fill="#191970" stroke="#191970" points="417.8227,-174.7244 427.9556,-171.6303 418.1049,-167.7301 417.8227,-174.7244"/>
</g>
<!-- Node7 -->
<g id="node7" class="node">
<title>Node7</title>
<g id="a_node7"><a xlink:href="../../d5/dec/classFun4AllBase.html#a8a5c77a92bdac6bc043476e132379a40" target="_top" xlink:title="Gets the verbosity of this module.">
<polygon fill="none" stroke="#000000" points="850,-96.8788 850,-116.8788 982,-116.8788 982,-96.8788 850,-96.8788"/>
<text text-anchor="middle" x="916" y="-103.8788" font-family="FreeSans" font-size="10.00" fill="#000000">Fun4AllBase::Verbosity</text>
</a>
</g>
</g>
<!-- Node1&#45;&gt;Node7 -->
<g id="edge27" class="edge">
<title>Node1&#45;&gt;Node7</title>
<path fill="none" stroke="#191970" d="M97.4994,-141.7181C116.2443,-114.5434 158.384,-60.6344 210,-39.8788 452.3477,57.5724 777.8936,-52.5147 882.2942,-93.0811"/>
<polygon fill="#191970" stroke="#191970" points="881.1097,-96.3762 891.6969,-96.7806 883.6727,-89.8623 881.1097,-96.3762"/>
</g>
<!-- Node10 -->
<g id="node10" class="node">
<title>Node10</title>
<g id="a_node10"><a xlink:href="../../dc/df2/classQAG4SimulationEicCalorimeter.html#a6ef616a8c9e297b20bec7ca88a3bec17" target="_top" xlink:title="QAG4SimulationEicCalorimeter\l::Init_Cluster">
<polygon fill="none" stroke="#000000" points="210,-209.8788 210,-241.8788 384,-241.8788 384,-209.8788 210,-209.8788"/>
<text text-anchor="start" x="218" y="-228.8788" font-family="FreeSans" font-size="10.00" fill="#000000">QAG4SimulationEicCalorimeter</text>
<text text-anchor="middle" x="297" y="-216.8788" font-family="FreeSans" font-size="10.00" fill="#000000">::Init_Cluster</text>
</a>
</g>
</g>
<!-- Node1&#45;&gt;Node10 -->
<g id="edge10" class="edge">
<title>Node1&#45;&gt;Node10</title>
<path fill="none" stroke="#191970" d="M136.5011,-173.9078C166.8313,-183.729 205.8316,-196.3576 237.7923,-206.7068"/>
<polygon fill="#191970" stroke="#191970" points="236.8758,-210.0889 247.4677,-209.8398 239.0323,-203.4294 236.8758,-210.0889"/>
</g>
<!-- Node11 -->
<g id="node11" class="node">
<title>Node11</title>
<g id="a_node11"><a xlink:href="../../d3/d96/classFun4AllHistoManager.html#a7e1354855437fa28bb0d29dc0581d0a6" target="_top" xlink:title="Fun4AllHistoManager\l::registerHisto">
<polygon fill="none" stroke="#000000" points="446.5,-60.8788 446.5,-92.8788 570.5,-92.8788 570.5,-60.8788 446.5,-60.8788"/>
<text text-anchor="start" x="454.5" y="-79.8788" font-family="FreeSans" font-size="10.00" fill="#000000">Fun4AllHistoManager</text>
<text text-anchor="middle" x="508.5" y="-67.8788" font-family="FreeSans" font-size="10.00" fill="#000000">::registerHisto</text>
</a>
</g>
</g>
<!-- Node1&#45;&gt;Node11 -->
<g id="edge26" class="edge">
<title>Node1&#45;&gt;Node11</title>
<path fill="none" stroke="#191970" d="M100.4366,-141.6127C121.0947,-118.0319 163.2058,-75.3714 210,-58.8788 286.5315,-31.9055 380.881,-44.5786 442.7632,-58.5411"/>
<polygon fill="#191970" stroke="#191970" points="442.254,-62.0162 452.7876,-60.8784 443.8435,-55.1991 442.254,-62.0162"/>
</g>
<!-- Node12 -->
<g id="node12" class="node">
<title>Node12</title>
<g id="a_node12"><a xlink:href="../../dc/df2/classQAG4SimulationEicCalorimeter.html#ae9da9bb21f8952c5cdc496e6bfd742d4" target="_top" xlink:title="QAG4SimulationEicCalorimeter\l::Init_G4Hit">
<polygon fill="none" stroke="#000000" points="210,-119.8788 210,-151.8788 384,-151.8788 384,-119.8788 210,-119.8788"/>
<text text-anchor="start" x="218" y="-138.8788" font-family="FreeSans" font-size="10.00" fill="#000000">QAG4SimulationEicCalorimeter</text>
<text text-anchor="middle" x="297" y="-126.8788" font-family="FreeSans" font-size="10.00" fill="#000000">::Init_G4Hit</text>
</a>
</g>
</g>
<!-- Node1&#45;&gt;Node12 -->
<g id="edge15" class="edge">
<title>Node1&#45;&gt;Node12</title>
<path fill="none" stroke="#191970" d="M174.2345,-148.74C182.6581,-147.8575 191.2388,-146.9586 199.7511,-146.0668"/>
<polygon fill="#191970" stroke="#191970" points="200.1182,-149.5476 209.699,-145.0247 199.3888,-142.5857 200.1182,-149.5476"/>
</g>
<!-- Node15 -->
<g id="node15" class="node">
<title>Node15</title>
<g id="a_node15"><a xlink:href="../../dc/df2/classQAG4SimulationEicCalorimeter.html#a439c5dd41855b2701e80d0ade80f228d" target="_top" xlink:title="QAG4SimulationEicCalorimeter\l::Init_Tower">
<polygon fill="none" stroke="#000000" points="210,-68.8788 210,-100.8788 384,-100.8788 384,-68.8788 210,-68.8788"/>
<text text-anchor="start" x="218" y="-87.8788" font-family="FreeSans" font-size="10.00" fill="#000000">QAG4SimulationEicCalorimeter</text>
<text text-anchor="middle" x="297" y="-75.8788" font-family="FreeSans" font-size="10.00" fill="#000000">::Init_Tower</text>
</a>
</g>
</g>
<!-- Node1&#45;&gt;Node15 -->
<g id="edge21" class="edge">
<title>Node1&#45;&gt;Node15</title>
<path fill="none" stroke="#191970" d="M125.4423,-141.8229C149.5291,-132.0264 181.3353,-119.5675 210,-109.8788 215.9598,-107.8644 222.1831,-105.8687 228.4417,-103.9351"/>
<polygon fill="#191970" stroke="#191970" points="229.7189,-107.2053 238.2729,-100.9539 227.6876,-100.5065 229.7189,-107.2053"/>
</g>
<!-- Node5 -->
<g id="node5" class="node">
<title>Node5</title>
<g id="a_node5"><a xlink:href="../../da/d29/classFun4AllServer.html#a3e55156f91b2c94bb6c4ef33ffce587a" target="_top" xlink:title="Fun4AllServer::instance">
<polygon fill="none" stroke="#000000" points="655.5,-225.8788 655.5,-245.8788 791.5,-245.8788 791.5,-225.8788 655.5,-225.8788"/>
<text text-anchor="middle" x="723.5" y="-232.8788" font-family="FreeSans" font-size="10.00" fill="#000000">Fun4AllServer::instance</text>
</a>
</g>
</g>
<!-- Node4&#45;&gt;Node5 -->
<g id="edge4" class="edge">
<title>Node4&#45;&gt;Node5</title>
<path fill="none" stroke="#191970" d="M567.4108,-190.9992C577.3609,-194.0597 587.5298,-197.4006 597,-200.8788 613.4356,-206.9153 616.3394,-211.4945 633,-216.8788 640.6024,-219.3358 648.669,-221.5555 656.7321,-223.5373"/>
<polygon fill="#191970" stroke="#191970" points="655.999,-226.9603 666.5341,-225.8367 657.5978,-220.1453 655.999,-226.9603"/>
</g>
<!-- Node6 -->
<g id="node6" class="node">
<title>Node6</title>
<g id="a_node6"><a xlink:href="../../da/d29/classFun4AllServer.html#af5885837658eb26f98dbc697b58747a7" target="_top" xlink:title="Fun4AllServer::getHistoManager">
<polygon fill="none" stroke="#000000" points="633,-135.8788 633,-155.8788 814,-155.8788 814,-135.8788 633,-135.8788"/>
<text text-anchor="middle" x="723.5" y="-142.8788" font-family="FreeSans" font-size="10.00" fill="#000000">Fun4AllServer::getHistoManager</text>
</a>
</g>
</g>
<!-- Node4&#45;&gt;Node6 -->
<g id="edge5" class="edge">
<title>Node4&#45;&gt;Node6</title>
<path fill="none" stroke="#191970" d="M589.1698,-163.9978C605.4511,-161.8017 622.6096,-159.4873 639.0176,-157.2742"/>
<polygon fill="#191970" stroke="#191970" points="639.6799,-160.7166 649.1222,-155.9112 638.7441,-153.7794 639.6799,-160.7166"/>
</g>
<!-- Node8 -->
<g id="node8" class="node">
<title>Node8</title>
<g id="a_node8"><a xlink:href="../../da/d29/classFun4AllServer.html#a377f113767f24ce6413e678752ed7f53" target="_top" xlink:title="Fun4AllServer::registerHisto\lManager">
<polygon fill="none" stroke="#000000" points="644.5,-174.8788 644.5,-206.8788 802.5,-206.8788 802.5,-174.8788 644.5,-174.8788"/>
<text text-anchor="start" x="652.5" y="-193.8788" font-family="FreeSans" font-size="10.00" fill="#000000">Fun4AllServer::registerHisto</text>
<text text-anchor="middle" x="723.5" y="-181.8788" font-family="FreeSans" font-size="10.00" fill="#000000">Manager</text>
</a>
</g>
</g>
<!-- Node4&#45;&gt;Node8 -->
<g id="edge7" class="edge">
<title>Node4&#45;&gt;Node8</title>
<path fill="none" stroke="#191970" d="M589.1698,-180.8822C603.7885,-181.9701 619.1145,-183.1106 633.9693,-184.2161"/>
<polygon fill="#191970" stroke="#191970" points="633.9314,-187.7229 644.1636,-184.9747 634.451,-180.7422 633.9314,-187.7229"/>
</g>
<!-- Node6&#45;&gt;Node7 -->
<g id="edge6" class="edge">
<title>Node6&#45;&gt;Node7</title>
<path fill="none" stroke="#191970" d="M773.0735,-135.8354C798.5587,-130.6722 829.8046,-124.3418 856.5749,-118.9182"/>
<polygon fill="#191970" stroke="#191970" points="857.4886,-122.3043 866.5945,-116.8883 856.0986,-115.4437 857.4886,-122.3043"/>
</g>
<!-- Node8&#45;&gt;Node7 -->
<g id="edge9" class="edge">
<title>Node8&#45;&gt;Node7</title>
<path fill="none" stroke="#191970" d="M789.4233,-174.7972C797.8076,-172.1332 806.183,-169.1559 814,-165.8788 842.4679,-153.9445 872.8129,-135.5815 892.9322,-122.5142"/>
<polygon fill="#191970" stroke="#191970" points="894.9892,-125.3503 901.4131,-116.9251 891.1372,-119.5054 894.9892,-125.3503"/>
</g>
<!-- Node9 -->
<g id="node9" class="node">
<title>Node9</title>
<g id="a_node9"><a xlink:href="../../d5/dec/classFun4AllBase.html#a41f9ac377743d046f590617fd6f4f0ed" target="_top" xlink:title="Returns the name of this module.">
<polygon fill="none" stroke="#000000" points="858.5,-180.8788 858.5,-200.8788 973.5,-200.8788 973.5,-180.8788 858.5,-180.8788"/>
<text text-anchor="middle" x="916" y="-187.8788" font-family="FreeSans" font-size="10.00" fill="#000000">Fun4AllBase::Name</text>
</a>
</g>
</g>
<!-- Node8&#45;&gt;Node9 -->
<g id="edge8" class="edge">
<title>Node8&#45;&gt;Node9</title>
<path fill="none" stroke="#191970" d="M802.6305,-190.8788C817.7965,-190.8788 833.5485,-190.8788 848.3143,-190.8788"/>
<polygon fill="#191970" stroke="#191970" points="848.3598,-194.3789 858.3598,-190.8788 848.3598,-187.3789 848.3598,-194.3789"/>
</g>
<!-- Node10&#45;&gt;Node3 -->
<g id="edge14" class="edge">
<title>Node10&#45;&gt;Node3</title>
<path fill="none" stroke="#191970" d="M384.2462,-225.8788C393.1751,-225.8788 402.2857,-225.8788 411.3125,-225.8788"/>
<polygon fill="#191970" stroke="#191970" points="411.4543,-229.3789 421.4543,-225.8788 411.4542,-222.3789 411.4543,-229.3789"/>
</g>
<!-- Node10&#45;&gt;Node4 -->
<g id="edge11" class="edge">
<title>Node10&#45;&gt;Node4</title>
<path fill="none" stroke="#191970" d="M363.6296,-209.8121C385.3575,-204.5728 409.6503,-198.7149 432.0411,-193.3157"/>
<polygon fill="#191970" stroke="#191970" points="432.9412,-196.6991 441.842,-190.9524 431.3002,-189.8942 432.9412,-196.6991"/>
</g>
<!-- Node10&#45;&gt;Node11 -->
<g id="edge12" class="edge">
<title>Node10&#45;&gt;Node11</title>
<path fill="none" stroke="#191970" d="M324.31,-209.8177C342.6607,-198.1167 366.581,-181.0139 384,-161.8788 404.9345,-138.8819 395.2967,-120.7695 420,-101.8788 425.077,-97.9964 430.7302,-94.7169 436.6553,-91.9467"/>
<polygon fill="#191970" stroke="#191970" points="438.2571,-95.0712 446.1462,-87.9992 435.5689,-88.608 438.2571,-95.0712"/>
</g>
<!-- Node11&#45;&gt;Node7 -->
<g id="edge13" class="edge">
<title>Node11&#45;&gt;Node7</title>
<path fill="none" stroke="#191970" d="M570.7347,-75.9939C632.619,-75.8004 730.1639,-77.3503 814,-86.8788 830.032,-88.701 847.3081,-91.6901 863.0035,-94.8088"/>
<polygon fill="#191970" stroke="#191970" points="862.5617,-98.2908 873.0603,-96.8659 863.9646,-91.4328 862.5617,-98.2908"/>
</g>
<!-- Node12&#45;&gt;Node3 -->
<g id="edge18" class="edge">
<title>Node12&#45;&gt;Node3</title>
<path fill="none" stroke="#191970" d="M323.5736,-152.03C347.9718,-166.3427 385.4685,-187.0572 420,-200.8788 425.0026,-202.8812 430.2244,-204.7901 435.5206,-206.5954"/>
<polygon fill="#191970" stroke="#191970" points="434.5102,-209.9474 445.1028,-209.7309 436.6871,-203.2945 434.5102,-209.9474"/>
</g>
<!-- Node12&#45;&gt;Node4 -->
<g id="edge16" class="edge">
<title>Node12&#45;&gt;Node4</title>
<path fill="none" stroke="#191970" d="M383.9407,-151.9105C395.0191,-153.9533 406.3821,-156.0486 417.5219,-158.1027"/>
<polygon fill="#191970" stroke="#191970" points="417.2062,-161.6035 427.6751,-159.975 418.4756,-154.7195 417.2062,-161.6035"/>
</g>
<!-- Node12&#45;&gt;Node11 -->
<g id="edge17" class="edge">
<title>Node12&#45;&gt;Node11</title>
<path fill="none" stroke="#191970" d="M354.5139,-119.8348C381.3222,-112.3563 413.3941,-103.4096 441.3115,-95.6217"/>
<polygon fill="#191970" stroke="#191970" points="442.3058,-98.9781 450.9975,-92.9197 440.4248,-92.2355 442.3058,-98.9781"/>
</g>
<!-- Node13 -->
<g id="node13" class="node">
<title>Node13</title>
<g id="a_node13"><a xlink:href="../../d8/db5/namespaceQAHistManagerDef.html#a7e5037158f73c3ab97c4ddd6b974b34a" target="_top" xlink:title="utility function to">
<polygon fill="none" stroke="#000000" points="420,-111.8788 420,-131.8788 597,-131.8788 597,-111.8788 420,-111.8788"/>
<text text-anchor="middle" x="508.5" y="-118.8788" font-family="FreeSans" font-size="10.00" fill="#000000">QAHistManagerDef::useLogBins</text>
</a>
</g>
</g>
<!-- Node12&#45;&gt;Node13 -->
<g id="edge19" class="edge">
<title>Node12&#45;&gt;Node13</title>
<path fill="none" stroke="#191970" d="M384.2462,-130.1037C392.5786,-129.5521 401.0692,-128.9901 409.5023,-128.4319"/>
<polygon fill="#191970" stroke="#191970" points="409.9988,-131.9068 419.7458,-127.7538 409.5364,-124.9221 409.9988,-131.9068"/>
</g>
<!-- Node14 -->
<g id="node14" class="node">
<title>Node14</title>
<g id="a_node14"><a xlink:href="../../d4/dad/eicroot_8C.html#a9392a90f93e785e9ed60558fddd33359" target="_top" xlink:title="width">
<polygon fill="none" stroke="#000000" points="701.5,-96.8788 701.5,-116.8788 745.5,-116.8788 745.5,-96.8788 701.5,-96.8788"/>
<text text-anchor="middle" x="723.5" y="-103.8788" font-family="FreeSans" font-size="10.00" fill="#000000">width</text>
</a>
</g>
</g>
<!-- Node13&#45;&gt;Node14 -->
<g id="edge20" class="edge">
<title>Node13&#45;&gt;Node14</title>
<path fill="none" stroke="#191970" d="M597.19,-115.6912C630.5904,-113.3609 666.4912,-110.8562 691.4489,-109.115"/>
<polygon fill="#191970" stroke="#191970" points="691.7037,-112.6058 701.4359,-108.4182 691.2165,-105.6228 691.7037,-112.6058"/>
</g>
<!-- Node15&#45;&gt;Node3 -->
<g id="edge23" class="edge">
<title>Node15&#45;&gt;Node3</title>
<path fill="none" stroke="#191970" d="M371.7081,-101.0421C376.1236,-103.5739 380.276,-106.4992 384,-109.8788 416.2084,-139.1085 387.7258,-171.7219 420,-200.8788 421.3032,-202.0562 422.6578,-203.1785 424.057,-204.2483"/>
<polygon fill="#191970" stroke="#191970" points="422.2347,-207.2391 432.5104,-209.8197 426.0868,-201.3943 422.2347,-207.2391"/>
</g>
<!-- Node15&#45;&gt;Node4 -->
<g id="edge22" class="edge">
<title>Node15&#45;&gt;Node4</title>
<path fill="none" stroke="#191970" d="M364.2545,-100.8824C371.0993,-103.4844 377.8048,-106.4684 384,-109.8788 402.7534,-120.2027 401.6584,-130.84 420,-141.8788 428.1335,-146.7739 437.114,-151.1427 446.1427,-154.9727"/>
<polygon fill="#191970" stroke="#191970" points="444.9524,-158.2667 455.5354,-158.7686 447.5753,-151.7766 444.9524,-158.2667"/>
</g>
<!-- Node15&#45;&gt;Node11 -->
<g id="edge25" class="edge">
<title>Node15&#45;&gt;Node11</title>
<path fill="none" stroke="#191970" d="M384.2462,-81.5788C401.4906,-80.9265 419.4126,-80.2486 436.1002,-79.6174"/>
<polygon fill="#191970" stroke="#191970" points="436.4534,-83.1066 446.314,-79.231 436.1888,-76.1116 436.4534,-83.1066"/>
</g>
<!-- Node15&#45;&gt;Node13 -->
<g id="edge24" class="edge">
<title>Node15&#45;&gt;Node13</title>
<path fill="none" stroke="#191970" d="M384.2462,-100.1418C403.2561,-103.4674 423.0894,-106.937 441.1848,-110.1027"/>
<polygon fill="#191970" stroke="#191970" points="440.5892,-113.5515 451.0428,-111.8272 441.7955,-106.6563 440.5892,-113.5515"/>
</g>
</g>
</svg>
