<?xml version="1.0" encoding="UTF-8" standalone="no"?>
<!DOCTYPE svg PUBLIC "-//W3C//DTD SVG 1.1//EN"
 "http://www.w3.org/Graphics/SVG/1.1/DTD/svg11.dtd">
<!-- Generated by graphviz version 2.40.1 (20161225.0304)
 -->
<!-- Title: PHActsVertexFinder::updateTrackDCA Pages: 1 -->
<svg width="271pt" height="107pt"
 viewBox="0.00 0.00 271.00 107.00" xmlns="http://www.w3.org/2000/svg" xmlns:xlink="http://www.w3.org/1999/xlink">
<g id="graph0" class="graph" transform="scale(1 1) rotate(0) translate(4 103)">
<title>PHActsVertexFinder::updateTrackDCA</title>
<!-- Node1 -->
<g id="node1" class="node">
<title>Node1</title>
<polygon fill="#bfbfbf" stroke="#000000" points="0,-33.5 0,-65.5 115,-65.5 115,-33.5 0,-33.5"/>
<text text-anchor="start" x="8" y="-52.5" font-family="FreeSans" font-size="10.00" fill="#000000">PHActsVertexFinder</text>
<text text-anchor="middle" x="57.5" y="-40.5" font-family="FreeSans" font-size="10.00" fill="#000000">::updateTrackDCA</text>
</g>
<!-- Node2 -->
<g id="node2" class="node">
<title>Node2</title>
<g id="a_node2"><a xlink:href="../../df/de8/cemc_8C.html#a72d4716092b469b4bc1d816359a90e14" target="_top" xlink:title="cos">
<polygon fill="none" stroke="#000000" points="190.5,-78.5 190.5,-98.5 223.5,-98.5 223.5,-78.5 190.5,-78.5"/>
<text text-anchor="middle" x="207" y="-85.5" font-family="FreeSans" font-size="10.00" fill="#000000">cos</text>
</a>
</g>
</g>
<!-- Node1&#45;&gt;Node2 -->
<g id="edge1" class="edge">
<title>Node1&#45;&gt;Node2</title>
<path fill="none" stroke="#191970" d="M115.3006,-64.5784C137.8296,-70.4556 162.527,-76.8984 180.6094,-81.6155"/>
<polygon fill="#191970" stroke="#191970" points="179.8655,-85.0385 190.4252,-84.1761 181.6325,-78.2652 179.8655,-85.0385"/>
</g>
<!-- Node3 -->
<g id="node3" class="node">
<title>Node3</title>
<g id="a_node3"><a xlink:href="../../d7/d8b/classSvtxTrackMap.html#a4d8a172bd027d5bf0e2f7eabaa0a8529" target="_top" xlink:title="SvtxTrackMap::find">
<polygon fill="none" stroke="#000000" points="151,-39.5 151,-59.5 263,-59.5 263,-39.5 151,-39.5"/>
<text text-anchor="middle" x="207" y="-46.5" font-family="FreeSans" font-size="10.00" fill="#000000">SvtxTrackMap::find</text>
</a>
</g>
</g>
<!-- Node1&#45;&gt;Node3 -->
<g id="edge2" class="edge">
<title>Node1&#45;&gt;Node3</title>
<path fill="none" stroke="#191970" d="M115.3006,-49.5C123.5956,-49.5 132.1845,-49.5 140.629,-49.5"/>
<polygon fill="#191970" stroke="#191970" points="140.8283,-53.0001 150.8282,-49.5 140.8282,-46.0001 140.8283,-53.0001"/>
</g>
<!-- Node4 -->
<g id="node4" class="node">
<title>Node4</title>
<g id="a_node4"><a xlink:href="../../dc/de5/PHG4mRICHDetector_8cc.html#a11ded6fc3d3fab0e72612c3886df87a0" target="_top" xlink:title="pos">
<polygon fill="none" stroke="#000000" points="190,-.5 190,-20.5 224,-20.5 224,-.5 190,-.5"/>
<text text-anchor="middle" x="207" y="-7.5" font-family="FreeSans" font-size="10.00" fill="#000000">pos</text>
</a>
</g>
</g>
<!-- Node1&#45;&gt;Node4 -->
<g id="edge3" class="edge">
<title>Node1&#45;&gt;Node4</title>
<path fill="none" stroke="#191970" d="M115.3006,-34.4216C137.5549,-28.6161 161.925,-22.2587 179.9449,-17.5579"/>
<polygon fill="#191970" stroke="#191970" points="180.9643,-20.9091 189.7569,-14.9982 179.1973,-14.1358 180.9643,-20.9091"/>
</g>
</g>
</svg>
