<?xml version="1.0" encoding="UTF-8" standalone="no"?>
<!DOCTYPE svg PUBLIC "-//W3C//DTD SVG 1.1//EN"
 "http://www.w3.org/Graphics/SVG/1.1/DTD/svg11.dtd">
<!-- Generated by graphviz version 2.40.1 (20161225.0304)
 -->
<!-- Title: Acts::AdaptiveMultiVertexFinder::canRecoverFromNoCompatibleTracks Pages: 1 -->
<svg width="504pt" height="68pt"
 viewBox="0.00 0.00 504.00 68.00" xmlns="http://www.w3.org/2000/svg" xmlns:xlink="http://www.w3.org/1999/xlink">
<g id="graph0" class="graph" transform="scale(1 1) rotate(0) translate(4 64)">
<title>Acts::AdaptiveMultiVertexFinder::canRecoverFromNoCompatibleTracks</title>
<!-- Node1 -->
<g id="node1" class="node">
<title>Node1</title>
<polygon fill="#bfbfbf" stroke="#000000" points="0,-7.5 0,-51.5 209,-51.5 209,-7.5 0,-7.5"/>
<text text-anchor="start" x="8" y="-38.5" font-family="FreeSans" font-size="10.00" fill="#000000">Acts::AdaptiveMultiVertex</text>
<text text-anchor="start" x="8" y="-26.5" font-family="FreeSans" font-size="10.00" fill="#000000">Finder::canRecoverFromNoCompatible</text>
<text text-anchor="middle" x="104.5" y="-14.5" font-family="FreeSans" font-size="10.00" fill="#000000">Tracks</text>
</g>
<!-- Node2 -->
<g id="node2" class="node">
<title>Node2</title>
<g id="a_node2"><a xlink:href="../../df/d28/namespacekdfinder.html#ab72d428625e99a2d7380eb7691c246c7" target="_top" xlink:title="kdfinder::abs">
<polygon fill="none" stroke="#000000" points="245,-39.5 245,-59.5 328,-59.5 328,-39.5 245,-39.5"/>
<text text-anchor="middle" x="286.5" y="-46.5" font-family="FreeSans" font-size="10.00" fill="#000000">kdfinder::abs</text>
</a>
</g>
</g>
<!-- Node1&#45;&gt;Node2 -->
<g id="edge1" class="edge">
<title>Node1&#45;&gt;Node2</title>
<path fill="none" stroke="#191970" d="M209.0517,-40.9892C217.9641,-41.9686 226.6991,-42.9285 234.9044,-43.8302"/>
<polygon fill="#191970" stroke="#191970" points="234.6654,-47.3249 244.9879,-44.9382 235.4301,-40.3668 234.6654,-47.3249"/>
</g>
<!-- Node4 -->
<g id="node4" class="node">
<title>Node4</title>
<g id="a_node4"><a xlink:href="../../d5/dbe/EIC-IR1-XX-v00_8C.html#a888f39f7254b5b59976d577091d79a4e" target="_top" xlink:title="vtx">
<polygon fill="none" stroke="#000000" points="270.5,-.5 270.5,-20.5 302.5,-20.5 302.5,-.5 270.5,-.5"/>
<text text-anchor="middle" x="286.5" y="-7.5" font-family="FreeSans" font-size="10.00" fill="#000000">vtx</text>
</a>
</g>
</g>
<!-- Node1&#45;&gt;Node4 -->
<g id="edge3" class="edge">
<title>Node1&#45;&gt;Node4</title>
<path fill="none" stroke="#191970" d="M209.0517,-18.5853C228.0549,-16.6014 246.2516,-14.7018 260.2264,-13.2429"/>
<polygon fill="#191970" stroke="#191970" points="260.8809,-16.6936 270.4634,-12.1741 260.154,-9.7315 260.8809,-16.6936"/>
</g>
<!-- Node3 -->
<g id="node3" class="node">
<title>Node3</title>
<g id="a_node3"><a xlink:href="../../d8/dc7/classkdfinder_1_1TVector.html#ac9649c7577f12a7502ed523260f4ee90" target="_top" xlink:title="kdfinder::TVector::mag">
<polygon fill="none" stroke="#000000" points="364,-39.5 364,-59.5 496,-59.5 496,-39.5 364,-39.5"/>
<text text-anchor="middle" x="430" y="-46.5" font-family="FreeSans" font-size="10.00" fill="#000000">kdfinder::TVector::mag</text>
</a>
</g>
</g>
<!-- Node2&#45;&gt;Node3 -->
<g id="edge2" class="edge">
<title>Node2&#45;&gt;Node3</title>
<path fill="none" stroke="#191970" d="M328.0061,-49.5C336.1854,-49.5 345.0065,-49.5 353.917,-49.5"/>
<polygon fill="#191970" stroke="#191970" points="353.9858,-53.0001 363.9858,-49.5 353.9857,-46.0001 353.9858,-53.0001"/>
</g>
</g>
</svg>
