<?xml version="1.0" encoding="UTF-8" standalone="no"?>
<!DOCTYPE svg PUBLIC "-//W3C//DTD SVG 1.1//EN"
 "http://www.w3.org/Graphics/SVG/1.1/DTD/svg11.dtd">
<!-- Generated by graphviz version 2.40.1 (20161225.0304)
 -->
<!-- Title: EicMagneticFieldMap::Initialized Pages: 1 -->
<svg width="885pt" height="107pt"
 viewBox="0.00 0.00 885.00 107.00" xmlns="http://www.w3.org/2000/svg" xmlns:xlink="http://www.w3.org/1999/xlink">
<g id="graph0" class="graph" transform="scale(1 1) rotate(0) translate(4 103)">
<title>EicMagneticFieldMap::Initialized</title>
<!-- Node1 -->
<g id="node1" class="node">
<title>Node1</title>
<polygon fill="#bfbfbf" stroke="#000000" points="0,-30.5 0,-62.5 122,-62.5 122,-30.5 0,-30.5"/>
<text text-anchor="start" x="8" y="-49.5" font-family="FreeSans" font-size="10.00" fill="#000000">EicMagneticFieldMap</text>
<text text-anchor="middle" x="61" y="-37.5" font-family="FreeSans" font-size="10.00" fill="#000000">::Initialized</text>
</g>
<!-- Node2 -->
<g id="node2" class="node">
<title>Node2</title>
<g id="a_node2"><a xlink:href="../../df/d09/classEicMagneticField.html#ad7522bed0068bc8e33f3b18f382a3951" target="_top" xlink:title="EicMagneticField::Initialize\lFieldMaps">
<polygon fill="none" stroke="#000000" points="158,-30.5 158,-62.5 308,-62.5 308,-30.5 158,-30.5"/>
<text text-anchor="start" x="166" y="-49.5" font-family="FreeSans" font-size="10.00" fill="#000000">EicMagneticField::Initialize</text>
<text text-anchor="middle" x="233" y="-37.5" font-family="FreeSans" font-size="10.00" fill="#000000">FieldMaps</text>
</a>
</g>
</g>
<!-- Node1&#45;&gt;Node2 -->
<g id="edge1" class="edge">
<title>Node1&#45;&gt;Node2</title>
<path fill="none" stroke="#191970" d="M132.3155,-46.5C140.7679,-46.5 149.4153,-46.5 157.918,-46.5"/>
<polygon fill="#191970" stroke="#191970" points="132.1251,-43.0001 122.1251,-46.5 132.125,-50.0001 132.1251,-43.0001"/>
</g>
<!-- Node3 -->
<g id="node3" class="node">
<title>Node3</title>
<g id="a_node3"><a xlink:href="../../df/d09/classEicMagneticField.html#a7ea74a163febd5502dc5ee4c8758b8c1" target="_top" xlink:title="EicMagneticField::GetField\lSumValue">
<polygon fill="none" stroke="#000000" points="344,-53.5 344,-85.5 493,-85.5 493,-53.5 344,-53.5"/>
<text text-anchor="start" x="352" y="-72.5" font-family="FreeSans" font-size="10.00" fill="#000000">EicMagneticField::GetField</text>
<text text-anchor="middle" x="418.5" y="-60.5" font-family="FreeSans" font-size="10.00" fill="#000000">SumValue</text>
</a>
</g>
</g>
<!-- Node2&#45;&gt;Node3 -->
<g id="edge2" class="edge">
<title>Node2&#45;&gt;Node3</title>
<path fill="none" stroke="#191970" d="M318.1719,-57.0604C326.7302,-58.1215 335.3752,-59.1934 343.8128,-60.2396"/>
<polygon fill="#191970" stroke="#191970" points="318.5372,-53.579 308.1825,-55.8218 317.6758,-60.5258 318.5372,-53.579"/>
</g>
<!-- Node9 -->
<g id="node9" class="node">
<title>Node9</title>
<g id="a_node9"><a xlink:href="../../df/d09/classEicMagneticField.html#acf1dd78a0f585b69e1a46247233dbc3b" target="_top" xlink:title="EicMagneticField::Init">
<polygon fill="none" stroke="#000000" points="356.5,-14.5 356.5,-34.5 480.5,-34.5 480.5,-14.5 356.5,-14.5"/>
<text text-anchor="middle" x="418.5" y="-21.5" font-family="FreeSans" font-size="10.00" fill="#000000">EicMagneticField::Init</text>
</a>
</g>
</g>
<!-- Node2&#45;&gt;Node9 -->
<g id="edge8" class="edge">
<title>Node2&#45;&gt;Node9</title>
<path fill="none" stroke="#191970" d="M318.3651,-36.3758C331.1354,-34.8613 344.0936,-33.3245 356.2631,-31.8812"/>
<polygon fill="#191970" stroke="#191970" points="317.7007,-32.93 308.1825,-37.5835 318.5252,-39.8813 317.7007,-32.93"/>
</g>
<!-- Node4 -->
<g id="node4" class="node">
<title>Node4</title>
<g id="a_node4"><a xlink:href="../../df/d09/classEicMagneticField.html#a7e49c8f8e4491af7b6f9adca17b2fb98" target="_top" xlink:title="EicMagneticField::GetBxyz">
<polygon fill="none" stroke="#000000" points="540.5,-78.5 540.5,-98.5 690.5,-98.5 690.5,-78.5 540.5,-78.5"/>
<text text-anchor="middle" x="615.5" y="-85.5" font-family="FreeSans" font-size="10.00" fill="#000000">EicMagneticField::GetBxyz</text>
</a>
</g>
</g>
<!-- Node3&#45;&gt;Node4 -->
<g id="edge3" class="edge">
<title>Node3&#45;&gt;Node4</title>
<path fill="none" stroke="#191970" d="M503.5032,-77.6983C515.8002,-78.8843 528.3834,-80.0979 540.4663,-81.2632"/>
<polygon fill="#191970" stroke="#191970" points="503.548,-74.1864 493.2582,-76.7102 502.8759,-81.1541 503.548,-74.1864"/>
</g>
<!-- Node5 -->
<g id="node5" class="node">
<title>Node5</title>
<g id="a_node5"><a xlink:href="../../df/d09/classEicMagneticField.html#a4373f06dcf11e6badf980d98d00ebea1" target="_top" xlink:title="EicMagneticField::GetBxyzCore">
<polygon fill="none" stroke="#000000" points="529,-39.5 529,-59.5 702,-59.5 702,-39.5 529,-39.5"/>
<text text-anchor="middle" x="615.5" y="-46.5" font-family="FreeSans" font-size="10.00" fill="#000000">EicMagneticField::GetBxyzCore</text>
</a>
</g>
</g>
<!-- Node3&#45;&gt;Node5 -->
<g id="edge4" class="edge">
<title>Node3&#45;&gt;Node5</title>
<path fill="none" stroke="#191970" d="M503.459,-60.8747C511.8907,-60.0187 520.4573,-59.149 528.9054,-58.2913"/>
<polygon fill="#191970" stroke="#191970" points="502.8535,-57.4181 493.2582,-61.9103 503.5606,-64.3823 502.8535,-57.4181"/>
</g>
<!-- Node6 -->
<g id="node6" class="node">
<title>Node6</title>
<g id="a_node6"><a xlink:href="../../df/d09/classEicMagneticField.html#aa6c2be48ffe193d4dc10d933acf5036e" target="_top" xlink:title="EicMagneticField::GetBx">
<polygon fill="none" stroke="#000000" points="738,-78.5 738,-98.5 877,-98.5 877,-78.5 738,-78.5"/>
<text text-anchor="middle" x="807.5" y="-85.5" font-family="FreeSans" font-size="10.00" fill="#000000">EicMagneticField::GetBx</text>
</a>
</g>
</g>
<!-- Node5&#45;&gt;Node6 -->
<g id="edge5" class="edge">
<title>Node5&#45;&gt;Node6</title>
<path fill="none" stroke="#191970" d="M674.9469,-61.5751C701.6673,-67.0027 732.8291,-73.3325 758.2228,-78.4906"/>
<polygon fill="#191970" stroke="#191970" points="675.4414,-58.1042 664.9448,-59.5435 674.0479,-64.9641 675.4414,-58.1042"/>
</g>
<!-- Node7 -->
<g id="node7" class="node">
<title>Node7</title>
<g id="a_node7"><a xlink:href="../../df/d09/classEicMagneticField.html#a8ad441b4b397f1aec4a805fbbebb0e1d" target="_top" xlink:title="EicMagneticField::GetBy">
<polygon fill="none" stroke="#000000" points="738,-39.5 738,-59.5 877,-59.5 877,-39.5 738,-39.5"/>
<text text-anchor="middle" x="807.5" y="-46.5" font-family="FreeSans" font-size="10.00" fill="#000000">EicMagneticField::GetBy</text>
</a>
</g>
</g>
<!-- Node5&#45;&gt;Node7 -->
<g id="edge6" class="edge">
<title>Node5&#45;&gt;Node7</title>
<path fill="none" stroke="#191970" d="M712.3227,-49.5C720.9296,-49.5 729.5276,-49.5 737.84,-49.5"/>
<polygon fill="#191970" stroke="#191970" points="712.2316,-46.0001 702.2316,-49.5 712.2316,-53.0001 712.2316,-46.0001"/>
</g>
<!-- Node8 -->
<g id="node8" class="node">
<title>Node8</title>
<g id="a_node8"><a xlink:href="../../df/d09/classEicMagneticField.html#aa6949f4fdc4722812d083a1da294866d" target="_top" xlink:title="EicMagneticField::GetBz">
<polygon fill="none" stroke="#000000" points="738.5,-.5 738.5,-20.5 876.5,-20.5 876.5,-.5 738.5,-.5"/>
<text text-anchor="middle" x="807.5" y="-7.5" font-family="FreeSans" font-size="10.00" fill="#000000">EicMagneticField::GetBz</text>
</a>
</g>
</g>
<!-- Node5&#45;&gt;Node8 -->
<g id="edge7" class="edge">
<title>Node5&#45;&gt;Node8</title>
<path fill="none" stroke="#191970" d="M674.9469,-37.4249C701.6673,-31.9973 732.8291,-25.6675 758.2228,-20.5094"/>
<polygon fill="#191970" stroke="#191970" points="674.0479,-34.0359 664.9448,-39.4565 675.4414,-40.8958 674.0479,-34.0359"/>
</g>
</g>
</svg>
