<?xml version="1.0" encoding="UTF-8" standalone="no"?>
<!DOCTYPE svg PUBLIC "-//W3C//DTD SVG 1.1//EN"
 "http://www.w3.org/Graphics/SVG/1.1/DTD/svg11.dtd">
<!-- Generated by graphviz version 2.40.1 (20161225.0304)
 -->
<!-- Title: FairTask::FinishEvent Pages: 1 -->
<svg width="291pt" height="29pt"
 viewBox="0.00 0.00 291.00 29.00" xmlns="http://www.w3.org/2000/svg" xmlns:xlink="http://www.w3.org/1999/xlink">
<g id="graph0" class="graph" transform="scale(1 1) rotate(0) translate(4 25)">
<title>FairTask::FinishEvent</title>
<!-- Node1 -->
<g id="node1" class="node">
<title>Node1</title>
<polygon fill="#bfbfbf" stroke="#000000" points="0,-.5 0,-20.5 121,-20.5 121,-.5 0,-.5"/>
<text text-anchor="middle" x="60.5" y="-7.5" font-family="FreeSans" font-size="10.00" fill="#000000">FairTask::FinishEvent</text>
</g>
<!-- Node2 -->
<g id="node2" class="node">
<title>Node2</title>
<g id="a_node2"><a xlink:href="../../d2/d9e/classFairTask.html#a47250b1ae903c3a5403156b0f78b7544" target="_top" xlink:title="FairTask::FinishEvents">
<polygon fill="none" stroke="#000000" points="157,-.5 157,-20.5 283,-20.5 283,-.5 157,-.5"/>
<text text-anchor="middle" x="220" y="-7.5" font-family="FreeSans" font-size="10.00" fill="#000000">FairTask::FinishEvents</text>
</a>
</g>
</g>
<!-- Node1&#45;&gt;Node2 -->
<g id="edge1" class="edge">
<title>Node1&#45;&gt;Node2</title>
<path fill="none" stroke="#191970" d="M121.2551,-3.9231C129.5168,-3.7699 138.0672,-3.7184 146.523,-3.7686"/>
<polygon fill="#191970" stroke="#191970" points="146.7269,-7.2709 156.7645,-3.8803 146.8033,-.2713 146.7269,-7.2709"/>
</g>
<!-- Node2&#45;&gt;Node1 -->
<g id="edge2" class="edge">
<title>Node2&#45;&gt;Node1</title>
<path fill="none" stroke="#191970" d="M156.7645,-17.1197C148.4491,-17.2526 139.8831,-17.2839 131.45,-17.2133"/>
<polygon fill="#191970" stroke="#191970" points="131.3011,-13.7111 121.2551,-17.0769 131.2073,-20.7105 131.3011,-13.7111"/>
</g>
</g>
</svg>
