<?xml version="1.0" encoding="UTF-8" standalone="no"?>
<!DOCTYPE svg PUBLIC "-//W3C//DTD SVG 1.1//EN"
 "http://www.w3.org/Graphics/SVG/1.1/DTD/svg11.dtd">
<!-- Generated by graphviz version 2.40.1 (20161225.0304)
 -->
<!-- Title: EicRoot/blob/master/eic/ayk/ThreeDeePolynomial.cxx Pages: 1 -->
<svg width="526pt" height="212pt"
 viewBox="0.00 0.00 525.50 212.00" xmlns="http://www.w3.org/2000/svg" xmlns:xlink="http://www.w3.org/1999/xlink">
<g id="graph0" class="graph" transform="scale(1 1) rotate(0) translate(4 208)">
<title>EicRoot/blob/master/eic/ayk/ThreeDeePolynomial.cxx</title>
<!-- Node1 -->
<g id="node1" class="node">
<title>Node1</title>
<polygon fill="#bfbfbf" stroke="#000000" points="97.5,-171.5 97.5,-203.5 282.5,-203.5 282.5,-171.5 97.5,-171.5"/>
<text text-anchor="start" x="105.5" y="-190.5" font-family="FreeSans" font-size="10.00" fill="#000000">EicRoot/blob/master</text>
<text text-anchor="middle" x="190" y="-178.5" font-family="FreeSans" font-size="10.00" fill="#000000">/eic/ayk/ThreeDeePolynomial.cxx</text>
</g>
<!-- Node2 -->
<g id="node2" class="node">
<title>Node2</title>
<polygon fill="none" stroke="#bfbfbf" points="0,-114.5 0,-134.5 46,-134.5 46,-114.5 0,-114.5"/>
<text text-anchor="middle" x="23" y="-121.5" font-family="FreeSans" font-size="10.00" fill="#000000">cstdio</text>
</g>
<!-- Node1&#45;&gt;Node2 -->
<g id="edge1" class="edge">
<title>Node1&#45;&gt;Node2</title>
<path fill="none" stroke="#191970" d="M147.4267,-171.4394C118.9778,-160.7072 82.1082,-146.7983 55.9066,-136.9139"/>
<polygon fill="#191970" stroke="#191970" points="57.0185,-133.5926 46.4267,-133.3376 54.5477,-140.1421 57.0185,-133.5926"/>
</g>
<!-- Node3 -->
<g id="node3" class="node">
<title>Node3</title>
<polygon fill="none" stroke="#bfbfbf" points="64,-114.5 64,-134.5 114,-134.5 114,-114.5 64,-114.5"/>
<text text-anchor="middle" x="89" y="-121.5" font-family="FreeSans" font-size="10.00" fill="#000000">cstdlib</text>
</g>
<!-- Node1&#45;&gt;Node3 -->
<g id="edge2" class="edge">
<title>Node1&#45;&gt;Node3</title>
<path fill="none" stroke="#191970" d="M164.2521,-171.4394C148.861,-161.839 129.3947,-149.6967 114.1169,-140.167"/>
<polygon fill="#191970" stroke="#191970" points="115.5566,-136.94 105.2195,-134.6171 111.8519,-142.8793 115.5566,-136.94"/>
</g>
<!-- Node4 -->
<g id="node4" class="node">
<title>Node4</title>
<polygon fill="none" stroke="#bfbfbf" points="132,-114.5 132,-134.5 182,-134.5 182,-114.5 132,-114.5"/>
<text text-anchor="middle" x="157" y="-121.5" font-family="FreeSans" font-size="10.00" fill="#000000">cstring</text>
</g>
<!-- Node1&#45;&gt;Node4 -->
<g id="edge3" class="edge">
<title>Node1&#45;&gt;Node4</title>
<path fill="none" stroke="#191970" d="M181.5017,-171.2759C177.1171,-162.9054 171.7379,-152.6361 167.1378,-143.854"/>
<polygon fill="#191970" stroke="#191970" points="170.1103,-141.9856 162.3697,-134.7513 163.9094,-145.2336 170.1103,-141.9856"/>
</g>
<!-- Node5 -->
<g id="node5" class="node">
<title>Node5</title>
<polygon fill="none" stroke="#bfbfbf" points="200,-114.5 200,-134.5 248,-134.5 248,-114.5 200,-114.5"/>
<text text-anchor="middle" x="224" y="-121.5" font-family="FreeSans" font-size="10.00" fill="#000000">cmath</text>
</g>
<!-- Node1&#45;&gt;Node5 -->
<g id="edge4" class="edge">
<title>Node1&#45;&gt;Node5</title>
<path fill="none" stroke="#191970" d="M198.7558,-171.2759C203.3218,-162.8154 208.9348,-152.415 213.7076,-143.5712"/>
<polygon fill="#191970" stroke="#191970" points="216.7983,-145.2138 218.4676,-134.7513 210.6381,-141.8892 216.7983,-145.2138"/>
</g>
<!-- Node6 -->
<g id="node6" class="node">
<title>Node6</title>
<polygon fill="none" stroke="#bfbfbf" points="266.5,-114.5 266.5,-134.5 319.5,-134.5 319.5,-114.5 266.5,-114.5"/>
<text text-anchor="middle" x="293" y="-121.5" font-family="FreeSans" font-size="10.00" fill="#000000">cassert</text>
</g>
<!-- Node1&#45;&gt;Node6 -->
<g id="edge5" class="edge">
<title>Node1&#45;&gt;Node6</title>
<path fill="none" stroke="#191970" d="M216.2578,-171.4394C232.1017,-161.7485 252.1804,-149.4673 267.8255,-139.898"/>
<polygon fill="#191970" stroke="#191970" points="269.7548,-142.8208 276.4593,-134.6171 266.1023,-136.8492 269.7548,-142.8208"/>
</g>
<!-- Node7 -->
<g id="node7" class="node">
<title>Node7</title>
<g id="a_node7"><a xlink:href="../../d4/d35/ThreeDeePolySpace_8h.html" target="_top" xlink:title="ThreeDeePolySpace.h">
<polygon fill="none" stroke="#000000" points="337.5,-114.5 337.5,-134.5 464.5,-134.5 464.5,-114.5 337.5,-114.5"/>
<text text-anchor="middle" x="401" y="-121.5" font-family="FreeSans" font-size="10.00" fill="#000000">ThreeDeePolySpace.h</text>
</a>
</g>
</g>
<!-- Node1&#45;&gt;Node7 -->
<g id="edge6" class="edge">
<title>Node1&#45;&gt;Node7</title>
<path fill="none" stroke="#191970" d="M243.7902,-171.4394C279.0878,-160.9003 324.6455,-147.2978 357.6235,-137.4513"/>
<polygon fill="#191970" stroke="#191970" points="358.8482,-140.7384 367.4289,-134.5236 356.8455,-134.0309 358.8482,-140.7384"/>
</g>
<!-- Node8 -->
<g id="node8" class="node">
<title>Node8</title>
<g id="a_node8"><a xlink:href="../../d5/d1f/3d_8h.html" target="_top" xlink:title="3d.h">
<polygon fill="none" stroke="#000000" points="330,-57.5 330,-77.5 368,-77.5 368,-57.5 330,-57.5"/>
<text text-anchor="middle" x="349" y="-64.5" font-family="FreeSans" font-size="10.00" fill="#000000">3d.h</text>
</a>
</g>
</g>
<!-- Node7&#45;&gt;Node8 -->
<g id="edge7" class="edge">
<title>Node7&#45;&gt;Node8</title>
<path fill="none" stroke="#191970" d="M391.7034,-114.3095C384.3089,-106.204 373.7884,-94.672 365.0402,-85.0826"/>
<polygon fill="#191970" stroke="#191970" points="367.5414,-82.631 358.2161,-77.6022 362.37,-87.3488 367.5414,-82.631"/>
</g>
<!-- Node11 -->
<g id="node11" class="node">
<title>Node11</title>
<g id="a_node11"><a xlink:href="../../d6/d0f/ThreeDeePolynomial_8h.html" target="_top" xlink:title="ThreeDeePolynomial.h">
<polygon fill="none" stroke="#000000" points="386.5,-57.5 386.5,-77.5 517.5,-77.5 517.5,-57.5 386.5,-57.5"/>
<text text-anchor="middle" x="452" y="-64.5" font-family="FreeSans" font-size="10.00" fill="#000000">ThreeDeePolynomial.h</text>
</a>
</g>
</g>
<!-- Node7&#45;&gt;Node11 -->
<g id="edge10" class="edge">
<title>Node7&#45;&gt;Node11</title>
<path fill="none" stroke="#191970" d="M410.1178,-114.3095C417.3701,-106.204 427.6883,-94.672 436.2682,-85.0826"/>
<polygon fill="#191970" stroke="#191970" points="438.9015,-87.3885 442.9612,-77.6022 433.6848,-82.7209 438.9015,-87.3885"/>
</g>
<!-- Node9 -->
<g id="node9" class="node">
<title>Node9</title>
<polygon fill="none" stroke="#bfbfbf" points="268.5,-.5 268.5,-20.5 339.5,-20.5 339.5,-.5 268.5,-.5"/>
<text text-anchor="middle" x="304" y="-7.5" font-family="FreeSans" font-size="10.00" fill="#000000">TVector3.h</text>
</g>
<!-- Node8&#45;&gt;Node9 -->
<g id="edge8" class="edge">
<title>Node8&#45;&gt;Node9</title>
<path fill="none" stroke="#191970" d="M340.9549,-57.3095C334.6838,-49.3661 325.8146,-38.1319 318.337,-28.6602"/>
<polygon fill="#191970" stroke="#191970" points="320.919,-26.2823 311.9754,-20.6022 315.4248,-30.6199 320.919,-26.2823"/>
</g>
<!-- Node10 -->
<g id="node10" class="node">
<title>Node10</title>
<polygon fill="none" stroke="#bfbfbf" points="357.5,-.5 357.5,-20.5 432.5,-20.5 432.5,-.5 357.5,-.5"/>
<text text-anchor="middle" x="395" y="-7.5" font-family="FreeSans" font-size="10.00" fill="#000000">TRotation.h</text>
</g>
<!-- Node8&#45;&gt;Node10 -->
<g id="edge9" class="edge">
<title>Node8&#45;&gt;Node10</title>
<path fill="none" stroke="#191970" d="M357.2239,-57.3095C363.6344,-49.3661 372.7006,-38.1319 380.3444,-28.6602"/>
<polygon fill="#191970" stroke="#191970" points="383.2908,-30.5823 386.8473,-20.6022 377.8434,-26.1862 383.2908,-30.5823"/>
</g>
</g>
</svg>
