<?xml version="1.0" encoding="UTF-8" standalone="no"?>
<!DOCTYPE svg PUBLIC "-//W3C//DTD SVG 1.1//EN"
 "http://www.w3.org/Graphics/SVG/1.1/DTD/svg11.dtd">
<!-- Generated by graphviz version 2.40.1 (20161225.0304)
 -->
<!-- Title: Acts::LayerStub Pages: 1 -->
<svg width="280pt" height="212pt"
 viewBox="0.00 0.00 279.50 212.00" xmlns="http://www.w3.org/2000/svg" xmlns:xlink="http://www.w3.org/1999/xlink">
<g id="graph0" class="graph" transform="scale(1 1) rotate(0) translate(4 208)">
<title>Acts::LayerStub</title>
<!-- Node1 -->
<g id="node1" class="node">
<title>Node1</title>
<polygon fill="#bfbfbf" stroke="#000000" points="103.5,-.5 103.5,-20.5 200.5,-20.5 200.5,-.5 103.5,-.5"/>
<text text-anchor="middle" x="152" y="-7.5" font-family="FreeSans" font-size="10.00" fill="#000000">Acts::LayerStub</text>
</g>
<!-- Node2 -->
<g id="node2" class="node">
<title>Node2</title>
<g id="a_node2"><a xlink:href="../../dc/d63/classActs_1_1SurfaceStub.html" target="_top" xlink:title="Surface derived class stub.">
<polygon fill="none" stroke="#000000" points="44.5,-57.5 44.5,-77.5 151.5,-77.5 151.5,-57.5 44.5,-57.5"/>
<text text-anchor="middle" x="98" y="-64.5" font-family="FreeSans" font-size="10.00" fill="#000000">Acts::SurfaceStub</text>
</a>
</g>
</g>
<!-- Node2&#45;&gt;Node1 -->
<g id="edge1" class="edge">
<title>Node2&#45;&gt;Node1</title>
<path fill="none" stroke="#191970" d="M114.7563,-49.8128C123.8543,-40.2094 134.7742,-28.6828 142.4295,-20.6022"/>
<polygon fill="#191970" stroke="#191970" points="111.9908,-47.6429 107.6541,-57.3095 117.0724,-52.4571 111.9908,-47.6429"/>
</g>
<!-- Node3 -->
<g id="node3" class="node">
<title>Node3</title>
<g id="a_node3"><a xlink:href="../../de/d7d/classActs_1_1Surface.html" target="_top" xlink:title="Abstract Base Class for tracking surfaces.">
<polygon fill="none" stroke="#000000" points="56,-114.5 56,-134.5 140,-134.5 140,-114.5 56,-114.5"/>
<text text-anchor="middle" x="98" y="-121.5" font-family="FreeSans" font-size="10.00" fill="#000000">Acts::Surface</text>
</a>
</g>
</g>
<!-- Node3&#45;&gt;Node2 -->
<g id="edge2" class="edge">
<title>Node3&#45;&gt;Node2</title>
<path fill="none" stroke="#191970" d="M98,-104.1771C98,-95.1625 98,-84.9556 98,-77.6022"/>
<polygon fill="#191970" stroke="#191970" points="94.5001,-104.3095 98,-114.3095 101.5001,-104.3096 94.5001,-104.3095"/>
</g>
<!-- Node4 -->
<g id="node4" class="node">
<title>Node4</title>
<g id="a_node4"><a xlink:href="../../d3/d07/classActs_1_1GeometryObject.html" target="_top" xlink:title="Acts::GeometryObject">
<polygon fill="none" stroke="#000000" points="142.5,-177.5 142.5,-197.5 271.5,-197.5 271.5,-177.5 142.5,-177.5"/>
<text text-anchor="middle" x="207" y="-184.5" font-family="FreeSans" font-size="10.00" fill="#000000">Acts::GeometryObject</text>
</a>
</g>
</g>
<!-- Node4&#45;&gt;Node3 -->
<g id="edge3" class="edge">
<title>Node4&#45;&gt;Node3</title>
<path fill="none" stroke="#191970" d="M180.7551,-172.3309C160.5166,-160.6334 133.0923,-144.7827 115.4693,-134.5969"/>
<polygon fill="#191970" stroke="#191970" points="179.0779,-175.4041 189.4873,-177.378 182.5808,-169.3435 179.0779,-175.4041"/>
</g>
<!-- Node6 -->
<g id="node6" class="node">
<title>Node6</title>
<g id="a_node6"><a xlink:href="../../da/d28/classActs_1_1Layer.html" target="_top" xlink:title="Acts::Layer">
<polygon fill="none" stroke="#000000" points="170,-57.5 170,-77.5 244,-77.5 244,-57.5 170,-57.5"/>
<text text-anchor="middle" x="207" y="-64.5" font-family="FreeSans" font-size="10.00" fill="#000000">Acts::Layer</text>
</a>
</g>
</g>
<!-- Node4&#45;&gt;Node6 -->
<g id="edge6" class="edge">
<title>Node4&#45;&gt;Node6</title>
<path fill="none" stroke="#191970" d="M207,-167.0628C207,-141.1375 207,-97.4332 207,-77.7052"/>
<polygon fill="#191970" stroke="#191970" points="203.5001,-167.2688 207,-177.2689 210.5001,-167.2689 203.5001,-167.2688"/>
</g>
<!-- Node5 -->
<g id="node5" class="node">
<title>Node5</title>
<polygon fill="none" stroke="#bfbfbf" points="0,-171.5 0,-203.5 124,-203.5 124,-171.5 0,-171.5"/>
<text text-anchor="start" x="8" y="-190.5" font-family="FreeSans" font-size="10.00" fill="#000000">std::enable_shared</text>
<text text-anchor="middle" x="62" y="-178.5" font-family="FreeSans" font-size="10.00" fill="#000000">_from_this&lt;Surface&gt;</text>
</g>
<!-- Node5&#45;&gt;Node3 -->
<g id="edge4" class="edge">
<title>Node5&#45;&gt;Node3</title>
<path fill="none" stroke="#191970" d="M76.3441,-162.3979C81.8632,-152.7394 87.861,-142.2432 92.1421,-134.7513"/>
<polygon fill="#191970" stroke="#191970" points="73.1935,-160.857 71.2709,-171.2759 79.2712,-164.33 73.1935,-160.857"/>
</g>
<!-- Node6&#45;&gt;Node1 -->
<g id="edge5" class="edge">
<title>Node6&#45;&gt;Node1</title>
<path fill="none" stroke="#191970" d="M190.2109,-50.1004C180.8897,-40.4403 169.6228,-28.7636 161.7478,-20.6022"/>
<polygon fill="#191970" stroke="#191970" points="187.7047,-52.5436 197.1671,-57.3095 192.7421,-47.683 187.7047,-52.5436"/>
</g>
</g>
</svg>
