<?xml version="1.0" encoding="UTF-8" standalone="no"?>
<!DOCTYPE svg PUBLIC "-//W3C//DTD SVG 1.1//EN"
 "http://www.w3.org/Graphics/SVG/1.1/DTD/svg11.dtd">
<!-- Generated by graphviz version 2.40.1 (20161225.0304)
 -->
<!-- Title: ActsExamples::RootPlanarClusterWriter::writeT Pages: 1 -->
<svg width="739pt" height="527pt"
 viewBox="0.00 0.00 739.00 527.00" xmlns="http://www.w3.org/2000/svg" xmlns:xlink="http://www.w3.org/1999/xlink">
<g id="graph0" class="graph" transform="scale(1 1) rotate(0) translate(4 523)">
<title>ActsExamples::RootPlanarClusterWriter::writeT</title>
<!-- Node1 -->
<g id="node1" class="node">
<title>Node1</title>
<polygon fill="#bfbfbf" stroke="#000000" points="0,-243.5 0,-275.5 150,-275.5 150,-243.5 0,-243.5"/>
<text text-anchor="start" x="8" y="-262.5" font-family="FreeSans" font-size="10.00" fill="#000000">ActsExamples::RootPlanar</text>
<text text-anchor="middle" x="75" y="-250.5" font-family="FreeSans" font-size="10.00" fill="#000000">ClusterWriter::writeT</text>
</g>
<!-- Node2 -->
<g id="node2" class="node">
<title>Node2</title>
<g id="a_node2"><a xlink:href="../../d9/d5c/classActs_1_1Segmentation.html#ad936b9d316ac5f4774f0a490ed106b2a" target="_top" xlink:title="Acts::Segmentation\l::cellPosition">
<polygon fill="none" stroke="#000000" points="217,-486.5 217,-518.5 333,-518.5 333,-486.5 217,-486.5"/>
<text text-anchor="start" x="225" y="-505.5" font-family="FreeSans" font-size="10.00" fill="#000000">Acts::Segmentation</text>
<text text-anchor="middle" x="275" y="-493.5" font-family="FreeSans" font-size="10.00" fill="#000000">::cellPosition</text>
</a>
</g>
</g>
<!-- Node1&#45;&gt;Node2 -->
<g id="edge1" class="edge">
<title>Node1&#45;&gt;Node2</title>
<path fill="none" stroke="#191970" d="M78.5153,-275.7313C88.1468,-316.2301 118.8406,-422.4269 186,-477.5 192.2643,-482.6369 199.5184,-486.7201 207.1284,-489.9653"/>
<polygon fill="#191970" stroke="#191970" points="205.9532,-493.2627 216.5448,-493.5226 208.427,-486.7144 205.9532,-493.2627"/>
</g>
<!-- Node3 -->
<g id="node3" class="node">
<title>Node3</title>
<g id="a_node3"><a xlink:href="../../d3/dd5/classActs_1_1PlanarModuleCluster.html#a54a5e915a2803ce86a0c7f569d16488e" target="_top" xlink:title="Acts::PlanarModuleCluster\l::digitizationCells">
<polygon fill="none" stroke="#000000" points="200,-435.5 200,-467.5 350,-467.5 350,-435.5 200,-435.5"/>
<text text-anchor="start" x="208" y="-454.5" font-family="FreeSans" font-size="10.00" fill="#000000">Acts::PlanarModuleCluster</text>
<text text-anchor="middle" x="275" y="-442.5" font-family="FreeSans" font-size="10.00" fill="#000000">::digitizationCells</text>
</a>
</g>
</g>
<!-- Node1&#45;&gt;Node3 -->
<g id="edge2" class="edge">
<title>Node1&#45;&gt;Node3</title>
<path fill="none" stroke="#191970" d="M81.1331,-275.5927C94.7064,-309.0074 130.5438,-386.1501 186,-426.5 187.898,-427.881 189.8696,-429.1858 191.9002,-430.4185"/>
<polygon fill="#191970" stroke="#191970" points="190.6698,-433.7304 201.1362,-435.3756 193.9802,-427.5626 190.6698,-433.7304"/>
</g>
<!-- Node4 -->
<g id="node4" class="node">
<title>Node4</title>
<g id="a_node4"><a xlink:href="../../d7/d41/classActs_1_1IdentifiedDetectorElement.html#a5bb79cbe56f9ad59df972ccd2f5c1735" target="_top" xlink:title="Retrieve the DigitizationModule.">
<polygon fill="none" stroke="#000000" points="196,-384.5 196,-416.5 354,-416.5 354,-384.5 196,-384.5"/>
<text text-anchor="start" x="204" y="-403.5" font-family="FreeSans" font-size="10.00" fill="#000000">Acts::IdentifiedDetector</text>
<text text-anchor="middle" x="275" y="-391.5" font-family="FreeSans" font-size="10.00" fill="#000000">Element::digitizationModule</text>
</a>
</g>
</g>
<!-- Node1&#45;&gt;Node4 -->
<g id="edge3" class="edge">
<title>Node1&#45;&gt;Node4</title>
<path fill="none" stroke="#191970" d="M85.9669,-275.6019C103.9224,-300.7262 142.0269,-349.1035 186,-375.5 188.8209,-377.1934 191.7607,-378.7758 194.7824,-380.2543"/>
<polygon fill="#191970" stroke="#191970" points="193.4965,-383.513 204.0555,-384.3847 196.3447,-377.1186 193.4965,-383.513"/>
</g>
<!-- Node5 -->
<g id="node5" class="node">
<title>Node5</title>
<g id="a_node5"><a xlink:href="../../d7/dad/classActsExamples_1_1WhiteBoard.html#ac03c687110ea21a40d383325a7c7b0b8" target="_top" xlink:title="ActsExamples::WhiteBoard::get">
<polygon fill="none" stroke="#000000" points="186,-345.5 186,-365.5 364,-365.5 364,-345.5 186,-345.5"/>
<text text-anchor="middle" x="275" y="-352.5" font-family="FreeSans" font-size="10.00" fill="#000000">ActsExamples::WhiteBoard::get</text>
</a>
</g>
</g>
<!-- Node1&#45;&gt;Node5 -->
<g id="edge4" class="edge">
<title>Node1&#45;&gt;Node5</title>
<path fill="none" stroke="#191970" d="M93.2626,-275.626C114.2044,-293.252 150.2691,-321.038 186,-336.5 191.2948,-338.7913 196.8899,-340.8154 202.5919,-342.6021"/>
<polygon fill="#191970" stroke="#191970" points="201.6764,-345.9807 212.2548,-345.39 203.6169,-339.255 201.6764,-345.9807"/>
</g>
<!-- Node7 -->
<g id="node7" class="node">
<title>Node7</title>
<g id="a_node7"><a xlink:href="../../d7/d33/classActs_1_1GeometryIdentifier.html#a67b1bfbab773f4ca99a12164b2bdbf61" target="_top" xlink:title="Return the layer identifier.">
<polygon fill="none" stroke="#000000" points="204,-243.5 204,-275.5 346,-275.5 346,-243.5 204,-243.5"/>
<text text-anchor="start" x="212" y="-262.5" font-family="FreeSans" font-size="10.00" fill="#000000">Acts::GeometryIdentifier</text>
<text text-anchor="middle" x="275" y="-250.5" font-family="FreeSans" font-size="10.00" fill="#000000">::layer</text>
</a>
</g>
</g>
<!-- Node1&#45;&gt;Node7 -->
<g id="edge6" class="edge">
<title>Node1&#45;&gt;Node7</title>
<path fill="none" stroke="#191970" d="M150.0416,-259.5C164.2233,-259.5 179.1204,-259.5 193.4897,-259.5"/>
<polygon fill="#191970" stroke="#191970" points="193.8418,-263.0001 203.8418,-259.5 193.8417,-256.0001 193.8418,-263.0001"/>
</g>
<!-- Node10 -->
<g id="node10" class="node">
<title>Node10</title>
<g id="a_node10"><a xlink:href="../../d7/d24/classActs_1_1Measurement.html#a00d089f309459e8c8be60424726df07e" target="_top" xlink:title="access vector with measured parameter values">
<polygon fill="none" stroke="#000000" points="214.5,-294.5 214.5,-326.5 335.5,-326.5 335.5,-294.5 214.5,-294.5"/>
<text text-anchor="start" x="222.5" y="-313.5" font-family="FreeSans" font-size="10.00" fill="#000000">Acts::Measurement::</text>
<text text-anchor="middle" x="275" y="-301.5" font-family="FreeSans" font-size="10.00" fill="#000000">parameters</text>
</a>
</g>
</g>
<!-- Node1&#45;&gt;Node10 -->
<g id="edge9" class="edge">
<title>Node1&#45;&gt;Node10</title>
<path fill="none" stroke="#191970" d="M138.0067,-275.5667C159.1561,-280.9598 182.8754,-287.0082 204.5577,-292.5372"/>
<polygon fill="#191970" stroke="#191970" points="203.8051,-295.9572 214.3599,-295.0368 205.5348,-289.1743 203.8051,-295.9572"/>
</g>
<!-- Node12 -->
<g id="node12" class="node">
<title>Node12</title>
<g id="a_node12"><a xlink:href="../../dc/de5/PHG4mRICHDetector_8cc.html#a11ded6fc3d3fab0e72612c3886df87a0" target="_top" xlink:title="pos">
<polygon fill="none" stroke="#000000" points="258,-204.5 258,-224.5 292,-224.5 292,-204.5 258,-204.5"/>
<text text-anchor="middle" x="275" y="-211.5" font-family="FreeSans" font-size="10.00" fill="#000000">pos</text>
</a>
</g>
</g>
<!-- Node1&#45;&gt;Node12 -->
<g id="edge11" class="edge">
<title>Node1&#45;&gt;Node12</title>
<path fill="none" stroke="#191970" d="M142.4553,-243.4749C156.8161,-240.1262 171.9004,-236.656 186,-233.5 206.6843,-228.8701 230.1312,-223.8749 247.7648,-220.1687"/>
<polygon fill="#191970" stroke="#191970" points="248.8462,-223.5183 257.9163,-218.0425 247.4111,-216.6669 248.8462,-223.5183"/>
</g>
<!-- Node13 -->
<g id="node13" class="node">
<title>Node13</title>
<g id="a_node13"><a xlink:href="../../d7/d24/classActs_1_1Measurement.html#a745c63bf57e1fc8d4db0c7acf44b1f59" target="_top" xlink:title="access associated object">
<polygon fill="none" stroke="#000000" points="214.5,-153.5 214.5,-185.5 335.5,-185.5 335.5,-153.5 214.5,-153.5"/>
<text text-anchor="start" x="222.5" y="-172.5" font-family="FreeSans" font-size="10.00" fill="#000000">Acts::Measurement::</text>
<text text-anchor="middle" x="275" y="-160.5" font-family="FreeSans" font-size="10.00" fill="#000000">referenceObject</text>
</a>
</g>
</g>
<!-- Node1&#45;&gt;Node13 -->
<g id="edge12" class="edge">
<title>Node1&#45;&gt;Node13</title>
<path fill="none" stroke="#191970" d="M98.3235,-243.4519C120.1706,-229.0098 154.1424,-208.0367 186,-194.5 191.9131,-191.9874 198.1532,-189.6494 204.4733,-187.4926"/>
<polygon fill="#191970" stroke="#191970" points="206.0077,-190.6742 214.4355,-184.2538 203.8433,-184.0172 206.0077,-190.6742"/>
</g>
<!-- Node14 -->
<g id="node14" class="node">
<title>Node14</title>
<g id="a_node14"><a xlink:href="../../d7/d33/classActs_1_1GeometryIdentifier.html#afb698536104f96ff92d3c8bdb7aaa3a7" target="_top" xlink:title="Return the sensitive identifier.">
<polygon fill="none" stroke="#000000" points="204,-102.5 204,-134.5 346,-134.5 346,-102.5 204,-102.5"/>
<text text-anchor="start" x="212" y="-121.5" font-family="FreeSans" font-size="10.00" fill="#000000">Acts::GeometryIdentifier</text>
<text text-anchor="middle" x="275" y="-109.5" font-family="FreeSans" font-size="10.00" fill="#000000">::sensitive</text>
</a>
</g>
</g>
<!-- Node1&#45;&gt;Node14 -->
<g id="edge13" class="edge">
<title>Node1&#45;&gt;Node14</title>
<path fill="none" stroke="#191970" d="M85.9669,-243.3981C103.9224,-218.2738 142.0269,-169.8965 186,-143.5 188.8209,-141.8066 191.7607,-140.2242 194.7824,-138.7457"/>
<polygon fill="#191970" stroke="#191970" points="196.3447,-141.8814 204.0555,-134.6153 193.4965,-135.487 196.3447,-141.8814"/>
</g>
<!-- Node15 -->
<g id="node15" class="node">
<title>Node15</title>
<g id="a_node15"><a xlink:href="../../d7/d24/classActs_1_1Measurement.html#a698990c71da4deaa080f63781afcf3d7" target="_top" xlink:title="link access to the source of the measurement.">
<polygon fill="none" stroke="#000000" points="214.5,-51.5 214.5,-83.5 335.5,-83.5 335.5,-51.5 214.5,-51.5"/>
<text text-anchor="start" x="222.5" y="-70.5" font-family="FreeSans" font-size="10.00" fill="#000000">Acts::Measurement::</text>
<text text-anchor="middle" x="275" y="-58.5" font-family="FreeSans" font-size="10.00" fill="#000000">sourceLink</text>
</a>
</g>
</g>
<!-- Node1&#45;&gt;Node15 -->
<g id="edge15" class="edge">
<title>Node1&#45;&gt;Node15</title>
<path fill="none" stroke="#191970" d="M81.1331,-243.4073C94.7064,-209.9926 130.5438,-132.8499 186,-92.5 191.7994,-88.2804 198.2861,-84.7721 205.0434,-81.8554"/>
<polygon fill="#191970" stroke="#191970" points="206.3275,-85.1115 214.3864,-78.2336 203.7974,-78.5847 206.3275,-85.1115"/>
</g>
<!-- Node16 -->
<g id="node16" class="node">
<title>Node16</title>
<g id="a_node16"><a xlink:href="../../d7/d33/classActs_1_1GeometryIdentifier.html#abc1ccf966fe5fc7f517c6775b5d38623" target="_top" xlink:title="Return the volume identifier.">
<polygon fill="none" stroke="#000000" points="204,-.5 204,-32.5 346,-32.5 346,-.5 204,-.5"/>
<text text-anchor="start" x="212" y="-19.5" font-family="FreeSans" font-size="10.00" fill="#000000">Acts::GeometryIdentifier</text>
<text text-anchor="middle" x="275" y="-7.5" font-family="FreeSans" font-size="10.00" fill="#000000">::volume</text>
</a>
</g>
</g>
<!-- Node1&#45;&gt;Node16 -->
<g id="edge16" class="edge">
<title>Node1&#45;&gt;Node16</title>
<path fill="none" stroke="#191970" d="M78.5153,-243.2687C88.1468,-202.7699 118.8406,-96.5731 186,-41.5 188.7516,-39.2436 191.6942,-37.1905 194.774,-35.3225"/>
<polygon fill="#191970" stroke="#191970" points="196.5896,-38.321 203.7723,-30.5326 193.3004,-32.1419 196.5896,-38.321"/>
</g>
<!-- Node6 -->
<g id="node6" class="node">
<title>Node6</title>
<g id="a_node6"><a xlink:href="../../d5/dd6/structActsExamples_1_1WhiteBoard_1_1IHolder.html#aa1264c6da568fd3833b53e4b7e73b4e0" target="_top" xlink:title="ActsExamples::WhiteBoard\l::IHolder::type">
<polygon fill="none" stroke="#000000" points="400,-342.5 400,-374.5 553,-374.5 553,-342.5 400,-342.5"/>
<text text-anchor="start" x="408" y="-361.5" font-family="FreeSans" font-size="10.00" fill="#000000">ActsExamples::WhiteBoard</text>
<text text-anchor="middle" x="476.5" y="-349.5" font-family="FreeSans" font-size="10.00" fill="#000000">::IHolder::type</text>
</a>
</g>
</g>
<!-- Node5&#45;&gt;Node6 -->
<g id="edge5" class="edge">
<title>Node5&#45;&gt;Node6</title>
<path fill="none" stroke="#191970" d="M364.2608,-356.8289C372.7177,-356.9549 381.2839,-357.0824 389.7171,-357.2079"/>
<polygon fill="#191970" stroke="#191970" points="389.8703,-360.7105 399.9213,-357.3599 389.9746,-353.7113 389.8703,-360.7105"/>
</g>
<!-- Node8 -->
<g id="node8" class="node">
<title>Node8</title>
<g id="a_node8"><a xlink:href="../../d7/d33/classActs_1_1GeometryIdentifier.html#a5fc08ada52c3da4d9b255e0454739e1d" target="_top" xlink:title="Extract the masked bits from the encoded value.">
<polygon fill="none" stroke="#000000" points="405.5,-102.5 405.5,-134.5 547.5,-134.5 547.5,-102.5 405.5,-102.5"/>
<text text-anchor="start" x="413.5" y="-121.5" font-family="FreeSans" font-size="10.00" fill="#000000">Acts::GeometryIdentifier</text>
<text text-anchor="middle" x="476.5" y="-109.5" font-family="FreeSans" font-size="10.00" fill="#000000">::getBits</text>
</a>
</g>
</g>
<!-- Node7&#45;&gt;Node8 -->
<g id="edge7" class="edge">
<title>Node7&#45;&gt;Node8</title>
<path fill="none" stroke="#191970" d="M343.5931,-243.4061C350.7086,-240.5886 357.6501,-237.309 364,-233.5 403.3794,-209.8784 438.58,-169.1637 458.7264,-143.0551"/>
<polygon fill="#191970" stroke="#191970" points="461.7244,-144.8934 464.9659,-134.8066 456.1417,-140.6705 461.7244,-144.8934"/>
</g>
<!-- Node9 -->
<g id="node9" class="node">
<title>Node9</title>
<g id="a_node9"><a xlink:href="../../d7/d33/classActs_1_1GeometryIdentifier.html#ac13065798464cc86b747086eea9020e2" target="_top" xlink:title="Extract the bit shift necessary to access the masked values.">
<polygon fill="none" stroke="#000000" points="589,-102.5 589,-134.5 731,-134.5 731,-102.5 589,-102.5"/>
<text text-anchor="start" x="597" y="-121.5" font-family="FreeSans" font-size="10.00" fill="#000000">Acts::GeometryIdentifier</text>
<text text-anchor="middle" x="660" y="-109.5" font-family="FreeSans" font-size="10.00" fill="#000000">::extractShift</text>
</a>
</g>
</g>
<!-- Node8&#45;&gt;Node9 -->
<g id="edge8" class="edge">
<title>Node8&#45;&gt;Node9</title>
<path fill="none" stroke="#191970" d="M547.7085,-118.5C557.8332,-118.5 568.3097,-118.5 578.6098,-118.5"/>
<polygon fill="#191970" stroke="#191970" points="578.8315,-122.0001 588.8315,-118.5 578.8315,-115.0001 578.8315,-122.0001"/>
</g>
<!-- Node11 -->
<g id="node11" class="node">
<title>Node11</title>
<g id="a_node11"><a xlink:href="../../d0/d49/classActs_1_1ParameterSet.html#a4a7dcb897a18668c4e2f718c74072372" target="_top" xlink:title="access vector with stored parameters">
<polygon fill="none" stroke="#000000" points="419,-291.5 419,-323.5 534,-323.5 534,-291.5 419,-291.5"/>
<text text-anchor="start" x="427" y="-310.5" font-family="FreeSans" font-size="10.00" fill="#000000">Acts::ParameterSet</text>
<text text-anchor="middle" x="476.5" y="-298.5" font-family="FreeSans" font-size="10.00" fill="#000000">::getParameters</text>
</a>
</g>
</g>
<!-- Node10&#45;&gt;Node11 -->
<g id="edge10" class="edge">
<title>Node10&#45;&gt;Node11</title>
<path fill="none" stroke="#191970" d="M335.7299,-309.5958C358.6437,-309.2547 384.8553,-308.8644 408.3996,-308.5139"/>
<polygon fill="#191970" stroke="#191970" points="408.7107,-312.0098 418.6575,-308.3612 408.6065,-305.0105 408.7107,-312.0098"/>
</g>
<!-- Node14&#45;&gt;Node8 -->
<g id="edge14" class="edge">
<title>Node14&#45;&gt;Node8</title>
<path fill="none" stroke="#191970" d="M346.0414,-118.5C361.9928,-118.5 379.0355,-118.5 395.3632,-118.5"/>
<polygon fill="#191970" stroke="#191970" points="395.421,-122.0001 405.421,-118.5 395.421,-115.0001 395.421,-122.0001"/>
</g>
<!-- Node16&#45;&gt;Node8 -->
<g id="edge17" class="edge">
<title>Node16&#45;&gt;Node8</title>
<path fill="none" stroke="#191970" d="M341.4906,-32.5741C349.2168,-35.2013 356.8749,-38.1715 364,-41.5 395.3738,-56.1563 427.6324,-79.2107 449.5167,-96.2766"/>
<polygon fill="#191970" stroke="#191970" points="447.3592,-99.0326 457.3727,-102.494 451.7034,-93.5436 447.3592,-99.0326"/>
</g>
</g>
</svg>
