<?xml version="1.0" encoding="UTF-8" standalone="no"?>
<!DOCTYPE svg PUBLIC "-//W3C//DTD SVG 1.1//EN"
 "http://www.w3.org/Graphics/SVG/1.1/DTD/svg11.dtd">
<!-- Generated by graphviz version 2.40.1 (20161225.0304)
 -->
<!-- Title: EicRoot/blob/master/genfit/GFSpacepointHitPolicy.h Pages: 1 -->
<svg width="600pt" height="212pt"
 viewBox="0.00 0.00 600.00 212.00" xmlns="http://www.w3.org/2000/svg" xmlns:xlink="http://www.w3.org/1999/xlink">
<g id="graph0" class="graph" transform="scale(1 1) rotate(0) translate(4 208)">
<title>EicRoot/blob/master/genfit/GFSpacepointHitPolicy.h</title>
<!-- Node1 -->
<g id="node1" class="node">
<title>Node1</title>
<polygon fill="#bfbfbf" stroke="#000000" points="10,-171.5 10,-203.5 185,-203.5 185,-171.5 10,-171.5"/>
<text text-anchor="start" x="18" y="-190.5" font-family="FreeSans" font-size="10.00" fill="#000000">EicRoot/blob/master</text>
<text text-anchor="middle" x="97.5" y="-178.5" font-family="FreeSans" font-size="10.00" fill="#000000">/genfit/GFSpacepointHitPolicy.h</text>
</g>
<!-- Node2 -->
<g id="node2" class="node">
<title>Node2</title>
<polygon fill="none" stroke="#bfbfbf" points="0,-114.5 0,-134.5 69,-134.5 69,-114.5 0,-114.5"/>
<text text-anchor="middle" x="34.5" y="-121.5" font-family="FreeSans" font-size="10.00" fill="#000000">TMatrixT.h</text>
</g>
<!-- Node1&#45;&gt;Node2 -->
<g id="edge1" class="edge">
<title>Node1&#45;&gt;Node2</title>
<path fill="none" stroke="#191970" d="M81.2759,-171.2759C72.2754,-162.2754 61.0794,-151.0794 51.8977,-141.8977"/>
<polygon fill="#191970" stroke="#191970" points="54.2973,-139.3475 44.7513,-134.7513 49.3475,-144.2973 54.2973,-139.3475"/>
</g>
<!-- Node3 -->
<g id="node3" class="node">
<title>Node3</title>
<polygon fill="none" stroke="#bfbfbf" points="103,-.5 103,-20.5 168,-20.5 168,-.5 103,-.5"/>
<text text-anchor="middle" x="135.5" y="-7.5" font-family="FreeSans" font-size="10.00" fill="#000000">TObject.h</text>
</g>
<!-- Node1&#45;&gt;Node3 -->
<g id="edge2" class="edge">
<title>Node1&#45;&gt;Node3</title>
<path fill="none" stroke="#191970" d="M100.9393,-171.4803C107.8632,-139.2295 123.4728,-66.5216 131.1161,-30.9199"/>
<polygon fill="#191970" stroke="#191970" points="134.6195,-31.275 133.2966,-20.7631 127.7755,-29.8056 134.6195,-31.275"/>
</g>
<!-- Node4 -->
<g id="node4" class="node">
<title>Node4</title>
<g id="a_node4"><a xlink:href="../../db/d65/GFDetPlane_8h.html" target="_top" xlink:title="GFDetPlane.h">
<polygon fill="none" stroke="#000000" points="232,-114.5 232,-134.5 317,-134.5 317,-114.5 232,-114.5"/>
<text text-anchor="middle" x="274.5" y="-121.5" font-family="FreeSans" font-size="10.00" fill="#000000">GFDetPlane.h</text>
</a>
</g>
</g>
<!-- Node1&#45;&gt;Node4 -->
<g id="edge3" class="edge">
<title>Node1&#45;&gt;Node4</title>
<path fill="none" stroke="#191970" d="M142.6225,-171.4394C171.7219,-161.082 209.1338,-147.7659 236.6729,-137.9639"/>
<polygon fill="#191970" stroke="#191970" points="238.0911,-141.1743 246.3384,-134.5236 235.7438,-134.5796 238.0911,-141.1743"/>
</g>
<!-- Node4&#45;&gt;Node3 -->
<g id="edge6" class="edge">
<title>Node4&#45;&gt;Node3</title>
<path fill="none" stroke="#191970" d="M231.8562,-117.8403C206.0963,-111.6813 174.4876,-99.9893 154.5,-78 142.7545,-65.0781 138.2062,-45.4457 136.4773,-30.6793"/>
<polygon fill="#191970" stroke="#191970" points="139.9498,-30.2027 135.6322,-20.5275 132.9739,-30.7834 139.9498,-30.2027"/>
</g>
<!-- Node5 -->
<g id="node5" class="node">
<title>Node5</title>
<g id="a_node5"><a xlink:href="../../d3/d26/GFAbsFinitePlane_8h.html" target="_top" xlink:title="GFAbsFinitePlane.h">
<polygon fill="none" stroke="#000000" points="163.5,-57.5 163.5,-77.5 275.5,-77.5 275.5,-57.5 163.5,-57.5"/>
<text text-anchor="middle" x="219.5" y="-64.5" font-family="FreeSans" font-size="10.00" fill="#000000">GFAbsFinitePlane.h</text>
</a>
</g>
</g>
<!-- Node4&#45;&gt;Node5 -->
<g id="edge4" class="edge">
<title>Node4&#45;&gt;Node5</title>
<path fill="none" stroke="#191970" d="M264.6671,-114.3095C256.846,-106.204 245.7185,-94.672 236.4656,-85.0826"/>
<polygon fill="#191970" stroke="#191970" points="238.7102,-82.3681 229.2478,-77.6022 233.6728,-87.2288 238.7102,-82.3681"/>
</g>
<!-- Node6 -->
<g id="node6" class="node">
<title>Node6</title>
<polygon fill="none" stroke="#bfbfbf" points="294,-57.5 294,-77.5 365,-77.5 365,-57.5 294,-57.5"/>
<text text-anchor="middle" x="329.5" y="-64.5" font-family="FreeSans" font-size="10.00" fill="#000000">TVector3.h</text>
</g>
<!-- Node4&#45;&gt;Node6 -->
<g id="edge7" class="edge">
<title>Node4&#45;&gt;Node6</title>
<path fill="none" stroke="#191970" d="M284.3329,-114.3095C292.154,-106.204 303.2815,-94.672 312.5344,-85.0826"/>
<polygon fill="#191970" stroke="#191970" points="315.3272,-87.2288 319.7522,-77.6022 310.2898,-82.3681 315.3272,-87.2288"/>
</g>
<!-- Node7 -->
<g id="node7" class="node">
<title>Node7</title>
<polygon fill="none" stroke="#bfbfbf" points="383.5,-57.5 383.5,-77.5 485.5,-77.5 485.5,-57.5 383.5,-57.5"/>
<text text-anchor="middle" x="434.5" y="-64.5" font-family="FreeSans" font-size="10.00" fill="#000000">TPolyMarker3D.h</text>
</g>
<!-- Node4&#45;&gt;Node7 -->
<g id="edge8" class="edge">
<title>Node4&#45;&gt;Node7</title>
<path fill="none" stroke="#191970" d="M302.7365,-114.4408C328.818,-105.1492 367.7632,-91.275 396.5545,-81.0181"/>
<polygon fill="#191970" stroke="#191970" points="398.0317,-84.2074 406.2772,-77.5544 395.6825,-77.6133 398.0317,-84.2074"/>
</g>
<!-- Node8 -->
<g id="node8" class="node">
<title>Node8</title>
<polygon fill="none" stroke="#bfbfbf" points="503,-57.5 503,-77.5 592,-77.5 592,-57.5 503,-57.5"/>
<text text-anchor="middle" x="547.5" y="-64.5" font-family="FreeSans" font-size="10.00" fill="#000000">TPolyLine3D.h</text>
</g>
<!-- Node4&#45;&gt;Node8 -->
<g id="edge9" class="edge">
<title>Node4&#45;&gt;Node8</title>
<path fill="none" stroke="#191970" d="M317.1563,-115.5938C364.5353,-105.7014 441.1503,-89.7049 492.8798,-78.9042"/>
<polygon fill="#191970" stroke="#191970" points="493.8043,-82.2867 502.8779,-76.8167 492.3736,-75.4345 493.8043,-82.2867"/>
</g>
<!-- Node5&#45;&gt;Node3 -->
<g id="edge5" class="edge">
<title>Node5&#45;&gt;Node3</title>
<path fill="none" stroke="#191970" d="M204.4825,-57.3095C191.8208,-48.7177 173.4853,-36.2758 158.9,-26.3786"/>
<polygon fill="#191970" stroke="#191970" points="160.6275,-23.3211 150.3875,-20.6022 156.697,-29.1135 160.6275,-23.3211"/>
</g>
</g>
</svg>
