<?xml version="1.0" encoding="UTF-8" standalone="no"?>
<!DOCTYPE svg PUBLIC "-//W3C//DTD SVG 1.1//EN"
 "http://www.w3.org/Graphics/SVG/1.1/DTD/svg11.dtd">
<!-- Generated by graphviz version 2.40.1 (20161225.0304)
 -->
<!-- Title: GFDetPlane::project Pages: 1 -->
<svg width="1765pt" height="623pt"
 viewBox="0.00 0.00 1765.00 623.00" xmlns="http://www.w3.org/2000/svg" xmlns:xlink="http://www.w3.org/1999/xlink">
<g id="graph0" class="graph" transform="scale(1 1) rotate(0) translate(4 619)">
<title>GFDetPlane::project</title>
<!-- Node1 -->
<g id="node1" class="node">
<title>Node1</title>
<polygon fill="#bfbfbf" stroke="#000000" points="0,-235.5 0,-255.5 118,-255.5 118,-235.5 0,-235.5"/>
<text text-anchor="middle" x="59" y="-242.5" font-family="FreeSans" font-size="10.00" fill="#000000">GFDetPlane::project</text>
</g>
<!-- Node2 -->
<g id="node2" class="node">
<title>Node2</title>
<g id="a_node2"><a xlink:href="../../d0/d4b/classGFDetPlane.html#aae3b707316415191c73c0121581595b8" target="_top" xlink:title="transform from Lab system into plane">
<polygon fill="none" stroke="#000000" points="155.5,-319.5 155.5,-339.5 294.5,-339.5 294.5,-319.5 155.5,-319.5"/>
<text text-anchor="middle" x="225" y="-326.5" font-family="FreeSans" font-size="10.00" fill="#000000">GFDetPlane::LabToPlane</text>
</a>
</g>
</g>
<!-- Node1&#45;&gt;Node2 -->
<g id="edge1" class="edge">
<title>Node1&#45;&gt;Node2</title>
<path fill="none" stroke="#191970" d="M88.3357,-260.3446C121.9603,-277.3594 176.1541,-304.7828 205.1639,-319.4625"/>
<polygon fill="#191970" stroke="#191970" points="89.5265,-257.0246 79.0235,-255.6324 86.3659,-263.2704 89.5265,-257.0246"/>
</g>
<!-- Node37 -->
<g id="node37" class="node">
<title>Node37</title>
<g id="a_node37"><a xlink:href="../../d0/d4b/classGFDetPlane.html#a580408bb7e2e1280a55384815510326e" target="_top" xlink:title="gives u,v coordinates of the intersection point of a straight line with plane">
<polygon fill="none" stroke="#000000" points="154,-207.5 154,-239.5 296,-239.5 296,-207.5 154,-207.5"/>
<text text-anchor="start" x="162" y="-226.5" font-family="FreeSans" font-size="10.00" fill="#000000">GFDetPlane::straightLine</text>
<text text-anchor="middle" x="225" y="-214.5" font-family="FreeSans" font-size="10.00" fill="#000000">ToPlane</text>
</a>
</g>
</g>
<!-- Node1&#45;&gt;Node37 -->
<g id="edge45" class="edge">
<title>Node1&#45;&gt;Node37</title>
<path fill="none" stroke="#191970" d="M128.5236,-236.286C136.8684,-235.1801 145.3999,-234.0494 153.7685,-232.9403"/>
<polygon fill="#191970" stroke="#191970" points="127.9144,-232.8361 118.4609,-237.6196 128.8341,-239.7754 127.9144,-232.8361"/>
</g>
<!-- Node3 -->
<g id="node3" class="node">
<title>Node3</title>
<g id="a_node3"><a xlink:href="../../d0/d4b/classGFDetPlane.html#aebabe47984b6030cdfcc70406af2d6a1" target="_top" xlink:title="GFDetPlane::dist">
<polygon fill="none" stroke="#000000" points="342.5,-340.5 342.5,-360.5 443.5,-360.5 443.5,-340.5 342.5,-340.5"/>
<text text-anchor="middle" x="393" y="-347.5" font-family="FreeSans" font-size="10.00" fill="#000000">GFDetPlane::dist</text>
</a>
</g>
</g>
<!-- Node2&#45;&gt;Node3 -->
<g id="edge2" class="edge">
<title>Node2&#45;&gt;Node3</title>
<path fill="none" stroke="#191970" d="M304.9569,-339.4946C317.6985,-341.0873 330.5643,-342.6955 342.3782,-344.1723"/>
<polygon fill="#191970" stroke="#191970" points="305.1445,-335.9909 294.7876,-338.2235 304.2762,-342.9369 305.1445,-335.9909"/>
</g>
<!-- Node4 -->
<g id="node4" class="node">
<title>Node4</title>
<g id="a_node4"><a xlink:href="../../dd/d3c/classGFWirepointHitPolicy.html#ad688c2c4ec884c7a216ed6b3674a5268" target="_top" xlink:title="Get detector plane.">
<polygon fill="none" stroke="#000000" points="509.5,-357.5 509.5,-389.5 631.5,-389.5 631.5,-357.5 509.5,-357.5"/>
<text text-anchor="start" x="517.5" y="-376.5" font-family="FreeSans" font-size="10.00" fill="#000000">GFWirepointHitPolicy</text>
<text text-anchor="middle" x="570.5" y="-364.5" font-family="FreeSans" font-size="10.00" fill="#000000">::detPlane</text>
</a>
</g>
</g>
<!-- Node3&#45;&gt;Node4 -->
<g id="edge3" class="edge">
<title>Node3&#45;&gt;Node4</title>
<path fill="none" stroke="#191970" d="M454.1385,-358.4222C471.9539,-360.7306 491.4179,-363.2527 509.2408,-365.5622"/>
<polygon fill="#191970" stroke="#191970" points="454.2313,-354.905 443.8644,-357.0909 453.3317,-361.847 454.2313,-354.905"/>
</g>
<!-- Node5 -->
<g id="node5" class="node">
<title>Node5</title>
<g id="a_node5"><a xlink:href="../../d7/df9/classGFWireHitPolicy.html#ab64d853ca871b120cbb276b1448fbec2" target="_top" xlink:title="Get detector plane Calls GFAbsTrackRep::extrapolateToLine for POCA.">
<polygon fill="none" stroke="#000000" points="497.5,-318.5 497.5,-338.5 643.5,-338.5 643.5,-318.5 497.5,-318.5"/>
<text text-anchor="middle" x="570.5" y="-325.5" font-family="FreeSans" font-size="10.00" fill="#000000">GFWireHitPolicy::detPlane</text>
</a>
</g>
</g>
<!-- Node3&#45;&gt;Node5 -->
<g id="edge4" class="edge">
<title>Node3&#45;&gt;Node5</title>
<path fill="none" stroke="#191970" d="M453.8775,-342.9546C467.9118,-341.2152 482.981,-339.3474 497.4725,-337.5513"/>
<polygon fill="#191970" stroke="#191970" points="453.3579,-339.4921 443.8644,-344.1957 454.219,-346.439 453.3579,-339.4921"/>
</g>
<!-- Node6 -->
<g id="node6" class="node">
<title>Node6</title>
<g id="a_node6"><a xlink:href="../../de/d6a/classGFPseudoSpacepointWireHitPolicy.html#a3c6159d51f9d7901187462953eb7dfaa" target="_top" xlink:title="Get detector plane perpendicular to track.">
<polygon fill="none" stroke="#000000" points="490,-267.5 490,-299.5 651,-299.5 651,-267.5 490,-267.5"/>
<text text-anchor="start" x="498" y="-286.5" font-family="FreeSans" font-size="10.00" fill="#000000">GFPseudoSpacepointWireHit</text>
<text text-anchor="middle" x="570.5" y="-274.5" font-family="FreeSans" font-size="10.00" fill="#000000">Policy::detPlane</text>
</a>
</g>
</g>
<!-- Node3&#45;&gt;Node6 -->
<g id="edge5" class="edge">
<title>Node3&#45;&gt;Node6</title>
<path fill="none" stroke="#191970" d="M424.4198,-336.3956C443.2716,-328.1401 467.8203,-317.7513 490,-309.5 499.0848,-306.1203 508.8359,-302.7551 518.3059,-299.6215"/>
<polygon fill="#191970" stroke="#191970" points="422.8607,-333.2578 415.1234,-340.4955 425.6855,-339.6626 422.8607,-333.2578"/>
</g>
<!-- Node7 -->
<g id="node7" class="node">
<title>Node7</title>
<g id="a_node7"><a xlink:href="../../d2/d53/classGeaneTrackRep.html#a59fbe11dff774b2979d25739b89989d2" target="_top" xlink:title="Extrapolates the track to the given detectorplane.">
<polygon fill="none" stroke="#000000" points="491,-228.5 491,-248.5 650,-248.5 650,-228.5 491,-228.5"/>
<text text-anchor="middle" x="570.5" y="-235.5" font-family="FreeSans" font-size="10.00" fill="#000000">GeaneTrackRep::extrapolate</text>
</a>
</g>
</g>
<!-- Node3&#45;&gt;Node7 -->
<g id="edge6" class="edge">
<title>Node3&#45;&gt;Node7</title>
<path fill="none" stroke="#191970" d="M406.8831,-332.6097C424.113,-311.6585 455.472,-277.418 490,-258.5 497.4512,-254.4174 505.7437,-251.1544 514.0939,-248.5499"/>
<polygon fill="#191970" stroke="#191970" points="404.1287,-330.4498 400.5946,-340.4379 409.586,-334.8337 404.1287,-330.4498"/>
</g>
<!-- Node8 -->
<g id="node8" class="node">
<title>Node8</title>
<g id="a_node8"><a xlink:href="../../d2/d53/classGeaneTrackRep.html#ae77ada4778453e5fe029d7378d2bb38a" target="_top" xlink:title="This method is to extrapolate the track to point of closest approach to a point in space...">
<polygon fill="none" stroke="#000000" points="491,-486.5 491,-518.5 650,-518.5 650,-486.5 491,-486.5"/>
<text text-anchor="start" x="499" y="-505.5" font-family="FreeSans" font-size="10.00" fill="#000000">GeaneTrackRep::extrapolate</text>
<text text-anchor="middle" x="570.5" y="-493.5" font-family="FreeSans" font-size="10.00" fill="#000000">ToPoint</text>
</a>
</g>
</g>
<!-- Node3&#45;&gt;Node8 -->
<g id="edge7" class="edge">
<title>Node3&#45;&gt;Node8</title>
<path fill="none" stroke="#191970" d="M402.7705,-369.9146C417.7705,-397.7843 449.0836,-448.9134 490,-477.5 494.9185,-480.9363 500.3263,-483.9132 505.9407,-486.4897"/>
<polygon fill="#191970" stroke="#191970" points="405.731,-368.0229 397.9947,-360.784 399.5282,-371.2673 405.731,-368.0229"/>
</g>
<!-- Node9 -->
<g id="node9" class="node">
<title>Node9</title>
<g id="a_node9"><a xlink:href="../../dd/ded/pyhimult_8f.html#ab211ef234aa1654aab2f5ec13044efbf" target="_top" xlink:title="pyhimult">
<polygon fill="none" stroke="#000000" points="539.5,-447.5 539.5,-467.5 601.5,-467.5 601.5,-447.5 539.5,-447.5"/>
<text text-anchor="middle" x="570.5" y="-454.5" font-family="FreeSans" font-size="10.00" fill="#000000">pyhimult</text>
</a>
</g>
</g>
<!-- Node3&#45;&gt;Node9 -->
<g id="edge8" class="edge">
<title>Node3&#45;&gt;Node9</title>
<path fill="none" stroke="#191970" d="M407.7954,-368.5574C425.3086,-388.711 456.3693,-420.8079 490,-438.5 505.2501,-446.5226 523.8913,-451.1989 539.3935,-453.9031"/>
<polygon fill="#191970" stroke="#191970" points="410.2903,-366.088 401.1512,-360.7282 404.9531,-370.6174 410.2903,-366.088"/>
</g>
<!-- Node21 -->
<g id="node21" class="node">
<title>Node21</title>
<g id="a_node21"><a xlink:href="../../d6/dcf/pythia6425mod_8f.html#a4ae1a9148440832c122abdaedf3555a7" target="_top" xlink:title="pymult">
<polygon fill="none" stroke="#000000" points="544.5,-408.5 544.5,-428.5 596.5,-428.5 596.5,-408.5 544.5,-408.5"/>
<text text-anchor="middle" x="570.5" y="-415.5" font-family="FreeSans" font-size="10.00" fill="#000000">pymult</text>
</a>
</g>
</g>
<!-- Node3&#45;&gt;Node21 -->
<g id="edge23" class="edge">
<title>Node3&#45;&gt;Node21</title>
<path fill="none" stroke="#191970" d="M418.6836,-365.5807C437.8166,-376.2873 464.8671,-390.3322 490,-399.5 507.6722,-405.9463 528.3374,-410.7705 544.3049,-413.9447"/>
<polygon fill="#191970" stroke="#191970" points="420.3936,-362.5268 409.9702,-360.6289 416.935,-368.6127 420.3936,-362.5268"/>
</g>
<!-- Node10 -->
<g id="node10" class="node">
<title>Node10</title>
<g id="a_node10"><a xlink:href="../../d2/d24/pyhiinit_8f.html#a93154984510592257bbf242af68cb276" target="_top" xlink:title="pyhiinit">
<polygon fill="none" stroke="#000000" points="867,-447.5 867,-467.5 922,-467.5 922,-447.5 867,-447.5"/>
<text text-anchor="middle" x="894.5" y="-454.5" font-family="FreeSans" font-size="10.00" fill="#000000">pyhiinit</text>
</a>
</g>
</g>
<!-- Node9&#45;&gt;Node10 -->
<g id="edge9" class="edge">
<title>Node9&#45;&gt;Node10</title>
<path fill="none" stroke="#191970" d="M611.7601,-457.5C678.8198,-457.5 809.7006,-457.5 866.7753,-457.5"/>
<polygon fill="#191970" stroke="#191970" points="611.5665,-454.0001 601.5665,-457.5 611.5664,-461.0001 611.5665,-454.0001"/>
</g>
<!-- Node18 -->
<g id="node18" class="node">
<title>Node18</title>
<g id="a_node18"><a xlink:href="../../dd/dfb/pyhirand_8f.html#a11c46259e3dc9a8f003b2d30a821340d" target="_top" xlink:title="pyhirand">
<polygon fill="none" stroke="#000000" points="713.5,-523.5 713.5,-543.5 774.5,-543.5 774.5,-523.5 713.5,-523.5"/>
<text text-anchor="middle" x="744" y="-530.5" font-family="FreeSans" font-size="10.00" fill="#000000">pyhirand</text>
</a>
</g>
</g>
<!-- Node9&#45;&gt;Node18 -->
<g id="edge17" class="edge">
<title>Node9&#45;&gt;Node18</title>
<path fill="none" stroke="#191970" d="M611.6803,-463.8555C624.7227,-466.8711 638.8878,-471.2371 651,-477.5 669.7557,-487.1981 669.1343,-497.2463 687,-508.5 696.1431,-514.2593 706.8406,-519.3338 716.4831,-523.3798"/>
<polygon fill="#191970" stroke="#191970" points="612.0286,-460.3521 601.5219,-461.7161 610.586,-467.2018 612.0286,-460.3521"/>
</g>
<!-- Node19 -->
<g id="node19" class="node">
<title>Node19</title>
<g id="a_node19"><a xlink:href="../../dc/d4c/pyhithia_8f.html#a2854892a8ad546886195932d54962ba9" target="_top" xlink:title="pyhithia">
<polygon fill="none" stroke="#000000" points="866,-505.5 866,-525.5 923,-525.5 923,-505.5 866,-505.5"/>
<text text-anchor="middle" x="894.5" y="-512.5" font-family="FreeSans" font-size="10.00" fill="#000000">pyhithia</text>
</a>
</g>
</g>
<!-- Node9&#45;&gt;Node19 -->
<g id="edge22" class="edge">
<title>Node9&#45;&gt;Node19</title>
<path fill="none" stroke="#191970" d="M611.706,-464.8764C678.3946,-476.8145 808.3011,-500.0693 865.8627,-510.3736"/>
<polygon fill="#191970" stroke="#191970" points="612.0268,-461.3782 601.5665,-463.0613 610.7932,-468.2687 612.0268,-461.3782"/>
</g>
<!-- Node11 -->
<g id="node11" class="node">
<title>Node11</title>
<g id="a_node11"><a xlink:href="../../d3/dcc/jetini_8f.html#aaebe64822688c6f3fa1125ed0619f95d" target="_top" xlink:title="jetini">
<polygon fill="none" stroke="#000000" points="1052.5,-447.5 1052.5,-467.5 1094.5,-467.5 1094.5,-447.5 1052.5,-447.5"/>
<text text-anchor="middle" x="1073.5" y="-454.5" font-family="FreeSans" font-size="10.00" fill="#000000">jetini</text>
</a>
</g>
</g>
<!-- Node10&#45;&gt;Node11 -->
<g id="edge10" class="edge">
<title>Node10&#45;&gt;Node11</title>
<path fill="none" stroke="#191970" d="M932.3415,-457.5C968.8635,-457.5 1022.8366,-457.5 1052.3394,-457.5"/>
<polygon fill="#191970" stroke="#191970" points="932.0765,-454.0001 922.0765,-457.5 932.0764,-461.0001 932.0765,-454.0001"/>
</g>
<!-- Node17 -->
<g id="node17" class="node">
<title>Node17</title>
<g id="a_node17"><a xlink:href="../../d6/d97/pyhitest_8f.html#ad7a2cf3c87068f12f08723ca60d921f8" target="_top" xlink:title="pyhitest">
<polygon fill="none" stroke="#000000" points="1044.5,-486.5 1044.5,-506.5 1102.5,-506.5 1102.5,-486.5 1044.5,-486.5"/>
<text text-anchor="middle" x="1073.5" y="-493.5" font-family="FreeSans" font-size="10.00" fill="#000000">pyhitest</text>
</a>
</g>
</g>
<!-- Node10&#45;&gt;Node17 -->
<g id="edge16" class="edge">
<title>Node10&#45;&gt;Node17</title>
<path fill="none" stroke="#191970" d="M931.9491,-465.6593C965.4166,-472.9511 1013.767,-483.4855 1044.4061,-490.1611"/>
<polygon fill="#191970" stroke="#191970" points="932.5924,-462.2174 922.0765,-463.5083 931.1021,-469.057 932.5924,-462.2174"/>
</g>
<!-- Node12 -->
<g id="node12" class="node">
<title>Node12</title>
<g id="a_node12"><a xlink:href="../../d1/dbb/hijing_8f.html#a69776a874c5857b3bcd832c1195cb0e1" target="_top" xlink:title="hijing">
<polygon fill="none" stroke="#ff0000" points="1252.5,-521.5 1252.5,-541.5 1296.5,-541.5 1296.5,-521.5 1252.5,-521.5"/>
<text text-anchor="middle" x="1274.5" y="-528.5" font-family="FreeSans" font-size="10.00" fill="#000000">hijing</text>
</a>
</g>
</g>
<!-- Node11&#45;&gt;Node12 -->
<g id="edge11" class="edge">
<title>Node11&#45;&gt;Node12</title>
<path fill="none" stroke="#191970" d="M1104.718,-463.1786C1121.1099,-466.5651 1141.3942,-471.3994 1159,-477.5 1194.5561,-489.8205 1233.8223,-509.5907 1256.1917,-521.4834"/>
<polygon fill="#191970" stroke="#191970" points="1105.066,-459.6794 1094.5756,-461.1635 1103.7019,-466.5452 1105.066,-459.6794"/>
</g>
<!-- Node13 -->
<g id="node13" class="node">
<title>Node13</title>
<g id="a_node13"><a xlink:href="../../da/d19/example__1_8f.html#acf16f61bc7e27d5ce77d73738020a5c7" target="_top" xlink:title="__example_1::f__">
<polygon fill="none" stroke="#000000" points="1434,-477.5 1434,-497.5 1537,-497.5 1537,-477.5 1434,-477.5"/>
<text text-anchor="middle" x="1485.5" y="-484.5" font-family="FreeSans" font-size="10.00" fill="#000000">__example_1::f__</text>
</a>
</g>
</g>
<!-- Node12&#45;&gt;Node13 -->
<g id="edge12" class="edge">
<title>Node12&#45;&gt;Node13</title>
<path fill="none" stroke="#191970" d="M1306.7832,-524.768C1341.6397,-517.4993 1397.5332,-505.8438 1437.5322,-497.5028"/>
<polygon fill="#191970" stroke="#191970" points="1305.7568,-521.4066 1296.6819,-526.8744 1307.1858,-528.2592 1305.7568,-521.4066"/>
</g>
<!-- Node14 -->
<g id="node14" class="node">
<title>Node14</title>
<g id="a_node14"><a xlink:href="../../d0/dd6/example__2_8f.html#a9d0c3b9bee4d35bf976af3b01e3d8f99" target="_top" xlink:title="__example_2::f__">
<polygon fill="none" stroke="#000000" points="1434,-594.5 1434,-614.5 1537,-614.5 1537,-594.5 1434,-594.5"/>
<text text-anchor="middle" x="1485.5" y="-601.5" font-family="FreeSans" font-size="10.00" fill="#000000">__example_2::f__</text>
</a>
</g>
</g>
<!-- Node12&#45;&gt;Node14 -->
<g id="edge13" class="edge">
<title>Node12&#45;&gt;Node14</title>
<path fill="none" stroke="#191970" d="M1301.4526,-546.3773C1324.3899,-558.4768 1358.5287,-575.1802 1390,-585.5 1403.975,-590.0826 1419.4811,-593.7448 1433.8635,-596.583"/>
<polygon fill="#191970" stroke="#191970" points="1302.8169,-543.1378 1292.3485,-541.5056 1299.5142,-549.3097 1302.8169,-543.1378"/>
</g>
<!-- Node15 -->
<g id="node15" class="node">
<title>Node15</title>
<g id="a_node15"><a xlink:href="../../d2/d77/example__3_8f.html#aab27974d678e65e3e41bf2e3fe4df5d9" target="_top" xlink:title="__example_3::f__">
<polygon fill="none" stroke="#000000" points="1434,-555.5 1434,-575.5 1537,-575.5 1537,-555.5 1434,-555.5"/>
<text text-anchor="middle" x="1485.5" y="-562.5" font-family="FreeSans" font-size="10.00" fill="#000000">__example_3::f__</text>
</a>
</g>
</g>
<!-- Node12&#45;&gt;Node15 -->
<g id="edge14" class="edge">
<title>Node12&#45;&gt;Node15</title>
<path fill="none" stroke="#191970" d="M1306.911,-536.7226C1340.6722,-542.1628 1394.0687,-550.767 1433.6905,-557.1515"/>
<polygon fill="#191970" stroke="#191970" points="1307.1114,-533.2098 1296.6819,-535.0743 1305.9977,-540.1207 1307.1114,-533.2098"/>
</g>
<!-- Node16 -->
<g id="node16" class="node">
<title>Node16</title>
<g id="a_node16"><a xlink:href="../../d2/da0/example__4_8f.html#a6bc0f54131effae47e6b12e1d435314a" target="_top" xlink:title="__example_4::f__">
<polygon fill="none" stroke="#000000" points="1434,-516.5 1434,-536.5 1537,-536.5 1537,-516.5 1434,-516.5"/>
<text text-anchor="middle" x="1485.5" y="-523.5" font-family="FreeSans" font-size="10.00" fill="#000000">__example_4::f__</text>
</a>
</g>
</g>
<!-- Node12&#45;&gt;Node16 -->
<g id="edge15" class="edge">
<title>Node12&#45;&gt;Node16</title>
<path fill="none" stroke="#191970" d="M1306.911,-530.732C1340.6722,-529.9319 1394.0687,-528.6666 1433.6905,-527.7277"/>
<polygon fill="#191970" stroke="#191970" points="1306.5961,-527.2383 1296.6819,-530.9744 1306.762,-534.2364 1306.5961,-527.2383"/>
</g>
<!-- Node18&#45;&gt;Node19 -->
<g id="edge18" class="edge">
<title>Node18&#45;&gt;Node19</title>
<path fill="none" stroke="#191970" d="M784.9715,-528.5997C810.563,-525.539 842.8814,-521.6737 865.7615,-518.9372"/>
<polygon fill="#191970" stroke="#191970" points="784.3327,-525.1511 774.8191,-529.814 785.164,-532.1016 784.3327,-525.1511"/>
</g>
<!-- Node19&#45;&gt;Node17 -->
<g id="edge21" class="edge">
<title>Node19&#45;&gt;Node17</title>
<path fill="none" stroke="#191970" d="M933.5528,-511.3547C966.8764,-507.8176 1014.0558,-502.8097 1044.2173,-499.6082"/>
<polygon fill="#191970" stroke="#191970" points="932.8341,-507.9113 923.2594,-512.4473 933.573,-514.8722 932.8341,-507.9113"/>
</g>
<!-- Node20 -->
<g id="node20" class="node">
<title>Node20</title>
<g id="a_node20"><a xlink:href="../../d3/db7/hijhrd_8f.html#ace311e28a8574ca3a1d08790019cb213" target="_top" xlink:title="hijhrd">
<polygon fill="none" stroke="#000000" points="1051,-525.5 1051,-545.5 1096,-545.5 1096,-525.5 1051,-525.5"/>
<text text-anchor="middle" x="1073.5" y="-532.5" font-family="FreeSans" font-size="10.00" fill="#000000">hijhrd</text>
</a>
</g>
</g>
<!-- Node19&#45;&gt;Node20 -->
<g id="edge19" class="edge">
<title>Node19&#45;&gt;Node20</title>
<path fill="none" stroke="#191970" d="M933.3688,-519.8429C969.2266,-523.8493 1021.2432,-529.6612 1050.7742,-532.9608"/>
<polygon fill="#191970" stroke="#191970" points="933.5863,-516.3455 923.2594,-518.7133 932.8089,-523.3022 933.5863,-516.3455"/>
</g>
<!-- Node20&#45;&gt;Node12 -->
<g id="edge20" class="edge">
<title>Node20&#45;&gt;Node12</title>
<path fill="none" stroke="#191970" d="M1106.2162,-534.8489C1147.3234,-534.0309 1216.7691,-532.6489 1252.223,-531.9433"/>
<polygon fill="#191970" stroke="#191970" points="1106.0949,-531.3506 1096.1665,-535.0489 1106.2342,-538.3492 1106.0949,-531.3506"/>
</g>
<!-- Node22 -->
<g id="node22" class="node">
<title>Node22</title>
<g id="a_node22"><a xlink:href="../../d6/dcf/pythia6425mod_8f.html#ac81fa418f8cd77b0873b2de2a4140933" target="_top" xlink:title="pyevnt">
<polygon fill="none" stroke="#000000" points="1047.5,-291.5 1047.5,-311.5 1099.5,-311.5 1099.5,-291.5 1047.5,-291.5"/>
<text text-anchor="middle" x="1073.5" y="-298.5" font-family="FreeSans" font-size="10.00" fill="#000000">pyevnt</text>
</a>
</g>
</g>
<!-- Node21&#45;&gt;Node22 -->
<g id="edge24" class="edge">
<title>Node21&#45;&gt;Node22</title>
<path fill="none" stroke="#191970" d="M606.4696,-416.0428C621.3592,-413.5719 638.1186,-408.7652 651,-399.5 675.6302,-381.7842 662.6839,-359.6445 687,-341.5 782.5176,-270.2256 832.8219,-300.0096 952,-300.5 984.9071,-300.6354 1022.8262,-300.9771 1047.4293,-301.2234"/>
<polygon fill="#191970" stroke="#191970" points="605.9622,-412.5796 596.5308,-417.4063 606.9137,-419.5146 605.9622,-412.5796"/>
</g>
<!-- Node32 -->
<g id="node32" class="node">
<title>Node32</title>
<g id="a_node32"><a xlink:href="../../d6/dcf/pythia6425mod_8f.html#aac00ac3ccd923c2c3dc37e2b89a9f025" target="_top" xlink:title="pyinit">
<polygon fill="none" stroke="#000000" points="1051,-408.5 1051,-428.5 1096,-428.5 1096,-408.5 1051,-408.5"/>
<text text-anchor="middle" x="1073.5" y="-415.5" font-family="FreeSans" font-size="10.00" fill="#000000">pyinit</text>
</a>
</g>
</g>
<!-- Node21&#45;&gt;Node32 -->
<g id="edge36" class="edge">
<title>Node21&#45;&gt;Node32</title>
<path fill="none" stroke="#191970" d="M606.8384,-418.5C704.6665,-418.5 971.55,-418.5 1050.9356,-418.5"/>
<polygon fill="#191970" stroke="#191970" points="606.8353,-415.0001 596.8353,-418.5 606.8352,-422.0001 606.8353,-415.0001"/>
</g>
<!-- Node34 -->
<g id="node34" class="node">
<title>Node34</title>
<g id="a_node34"><a xlink:href="../../d6/dcf/pythia6425mod_8f.html#a2d74d5dd64881524212b3720af2696de" target="_top" xlink:title="pyrand">
<polygon fill="none" stroke="#000000" points="718.5,-350.5 718.5,-370.5 769.5,-370.5 769.5,-350.5 718.5,-350.5"/>
<text text-anchor="middle" x="744" y="-357.5" font-family="FreeSans" font-size="10.00" fill="#000000">pyrand</text>
</a>
</g>
</g>
<!-- Node21&#45;&gt;Node34 -->
<g id="edge40" class="edge">
<title>Node21&#45;&gt;Node34</title>
<path fill="none" stroke="#191970" d="M606.3503,-411.3712C620.4156,-408.2292 636.605,-404.1815 651,-399.5 676.3075,-391.2695 704.3485,-379.0637 722.9551,-370.5048"/>
<polygon fill="#191970" stroke="#191970" points="605.573,-407.9584 596.5401,-413.4952 607.0542,-414.7998 605.573,-407.9584"/>
</g>
<!-- Node23 -->
<g id="node23" class="node">
<title>Node23</title>
<g id="a_node23"><a xlink:href="../../d3/dd5/jewel-2_82_80_8f.html#aeb24fa7919aa21c652e9c8f2ec45cb91" target="_top" xlink:title="genevent">
<polygon fill="none" stroke="#000000" points="1242,-288.5 1242,-308.5 1307,-308.5 1307,-288.5 1242,-288.5"/>
<text text-anchor="middle" x="1274.5" y="-295.5" font-family="FreeSans" font-size="10.00" fill="#000000">genevent</text>
</a>
</g>
</g>
<!-- Node22&#45;&gt;Node23 -->
<g id="edge25" class="edge">
<title>Node22&#45;&gt;Node23</title>
<path fill="none" stroke="#191970" d="M1109.8057,-300.9581C1147.4274,-300.3966 1205.6906,-299.527 1241.8881,-298.9867"/>
<polygon fill="#191970" stroke="#191970" points="1109.7239,-297.4589 1099.7772,-301.1078 1109.8284,-304.4581 1109.7239,-297.4589"/>
</g>
<!-- Node31 -->
<g id="node31" class="node">
<title>Node31</title>
<g id="a_node31"><a xlink:href="../../d6/dcf/pythia6425mod_8f.html#a4cc0e611278607d6b413b5cecdfe16c3" target="_top" xlink:title="pytest">
<polygon fill="none" stroke="#000000" points="1250.5,-355.5 1250.5,-375.5 1298.5,-375.5 1298.5,-355.5 1250.5,-355.5"/>
<text text-anchor="middle" x="1274.5" y="-362.5" font-family="FreeSans" font-size="10.00" fill="#000000">pytest</text>
</a>
</g>
</g>
<!-- Node22&#45;&gt;Node31 -->
<g id="edge35" class="edge">
<title>Node22&#45;&gt;Node31</title>
<path fill="none" stroke="#191970" d="M1109.314,-312.9034C1150.023,-325.8655 1215.3551,-346.6678 1250.4139,-357.8308"/>
<polygon fill="#191970" stroke="#191970" points="1110.3678,-309.5659 1099.7772,-309.8669 1108.244,-316.236 1110.3678,-309.5659"/>
</g>
<!-- Node24 -->
<g id="node24" class="node">
<title>Node24</title>
<g id="a_node24"><a xlink:href="../../d4/db6/exceptionFun4AllDstPileupMerger.html#aff74804be47480038d862e90001e8e8f" target="_top" xlink:title="time&#45;shift and copy content of source nodes to destination">
<polygon fill="none" stroke="#ff0000" points="1412.5,-188.5 1412.5,-220.5 1558.5,-220.5 1558.5,-188.5 1412.5,-188.5"/>
<text text-anchor="start" x="1420.5" y="-207.5" font-family="FreeSans" font-size="10.00" fill="#000000">Fun4AllDstPileupMerger</text>
<text text-anchor="middle" x="1485.5" y="-195.5" font-family="FreeSans" font-size="10.00" fill="#000000">::copy_background_event</text>
</a>
</g>
</g>
<!-- Node23&#45;&gt;Node24 -->
<g id="edge26" class="edge">
<title>Node23&#45;&gt;Node24</title>
<path fill="none" stroke="#191970" d="M1296.8955,-282.501C1319.4552,-267.0303 1355.7358,-243.8766 1390,-229.5 1397.9019,-226.1845 1406.3602,-223.2105 1414.856,-220.571"/>
<polygon fill="#191970" stroke="#191970" points="1294.604,-279.8314 1288.3933,-288.415 1298.6013,-285.578 1294.604,-279.8314"/>
</g>
<!-- Node25 -->
<g id="node25" class="node">
<title>Node25</title>
<g id="a_node25"><a xlink:href="../../dd/d2a/classPHHepMCGenHelper.html#ab0c755f6e53c0bf57ccd314a0017d227" target="_top" xlink:title="send HepMC::GenEvent to DST tree. This function takes ownership of evt">
<polygon fill="none" stroke="#ff0000" points="1407.5,-329.5 1407.5,-361.5 1563.5,-361.5 1563.5,-329.5 1407.5,-329.5"/>
<text text-anchor="start" x="1415.5" y="-348.5" font-family="FreeSans" font-size="10.00" fill="#000000">PHHepMCGenHelper::insert</text>
<text text-anchor="middle" x="1485.5" y="-336.5" font-family="FreeSans" font-size="10.00" fill="#000000">_event</text>
</a>
</g>
</g>
<!-- Node23&#45;&gt;Node25 -->
<g id="edge27" class="edge">
<title>Node23&#45;&gt;Node25</title>
<path fill="none" stroke="#191970" d="M1316.7678,-307.9151C1344.4646,-314.0845 1381.375,-322.3063 1413.6106,-329.4867"/>
<polygon fill="#191970" stroke="#191970" points="1317.5281,-304.4988 1307.0063,-305.7407 1316.0061,-311.3313 1317.5281,-304.4988"/>
</g>
<!-- Node26 -->
<g id="node26" class="node">
<title>Node26</title>
<g id="a_node26"><a xlink:href="../../d9/d3a/classPHPythia8.html#a534c21ef917fe92922c6757a75ca84e1" target="_top" xlink:title="PHPythia8::process\l_event">
<polygon fill="none" stroke="#000000" points="1630.5,-236.5 1630.5,-268.5 1743.5,-268.5 1743.5,-236.5 1630.5,-236.5"/>
<text text-anchor="start" x="1638.5" y="-255.5" font-family="FreeSans" font-size="10.00" fill="#000000">PHPythia8::process</text>
<text text-anchor="middle" x="1687" y="-243.5" font-family="FreeSans" font-size="10.00" fill="#000000">_event</text>
</a>
</g>
</g>
<!-- Node23&#45;&gt;Node26 -->
<g id="edge34" class="edge">
<title>Node23&#45;&gt;Node26</title>
<path fill="none" stroke="#191970" d="M1285.6215,-279.5591C1303.4668,-251.2816 1341.4722,-199.1462 1390,-178.5 1468.1132,-145.2667 1500.0221,-153.0304 1581,-178.5 1616.968,-189.8129 1651.3784,-218.1467 1670.7854,-236.2895"/>
<polygon fill="#191970" stroke="#191970" points="1282.5954,-277.7987 1280.3565,-288.1543 1288.5646,-281.4552 1282.5954,-277.7987"/>
</g>
<!-- Node27 -->
<g id="node27" class="node">
<title>Node27</title>
<g id="a_node27"><a xlink:href="../../da/df0/classPHSartre.html#aafe9fd92317ab1f7eee67a9354696c4e" target="_top" xlink:title="PHSartre::process_event">
<polygon fill="none" stroke="#000000" points="1617,-357.5 1617,-377.5 1757,-377.5 1757,-357.5 1617,-357.5"/>
<text text-anchor="middle" x="1687" y="-364.5" font-family="FreeSans" font-size="10.00" fill="#000000">PHSartre::process_event</text>
</a>
</g>
</g>
<!-- Node23&#45;&gt;Node27 -->
<g id="edge33" class="edge">
<title>Node23&#45;&gt;Node27</title>
<path fill="none" stroke="#191970" d="M1300.6917,-313.7444C1316.3195,-322.9808 1336.4701,-335.1376 1354,-346.5 1370.3462,-357.0952 1371.4106,-365.6784 1390,-371.5 1473.4117,-397.6219 1576.5696,-387.3992 1636.7586,-377.5085"/>
<polygon fill="#191970" stroke="#191970" points="1302.461,-310.7245 1292.067,-308.6717 1298.9122,-316.7583 1302.461,-310.7245"/>
</g>
<!-- Node28 -->
<g id="node28" class="node">
<title>Node28</title>
<g id="a_node28"><a xlink:href="../../de/d99/classFun4AllHepMCPileupInputManager.html#a9ce1ce8bd07083235c302e7c2c6985e0" target="_top" xlink:title="Fun4AllHepMCPileupInputManager\l::InsertEvent">
<polygon fill="none" stroke="#ff0000" points="1390,-278.5 1390,-310.5 1581,-310.5 1581,-278.5 1390,-278.5"/>
<text text-anchor="start" x="1398" y="-297.5" font-family="FreeSans" font-size="10.00" fill="#000000">Fun4AllHepMCPileupInputManager</text>
<text text-anchor="middle" x="1485.5" y="-285.5" font-family="FreeSans" font-size="10.00" fill="#000000">::InsertEvent</text>
</a>
</g>
</g>
<!-- Node23&#45;&gt;Node28 -->
<g id="edge30" class="edge">
<title>Node23&#45;&gt;Node28</title>
<path fill="none" stroke="#191970" d="M1317.1865,-297.6908C1338.2134,-297.2922 1364.4754,-296.7943 1389.9559,-296.3113"/>
<polygon fill="#191970" stroke="#191970" points="1316.9382,-294.1948 1307.0063,-297.8838 1317.0709,-301.1935 1316.9382,-294.1948"/>
</g>
<!-- Node29 -->
<g id="node29" class="node">
<title>Node29</title>
<g id="a_node29"><a xlink:href="../../d3/dd5/jewel-2_82_80_8f.html#a15e2df3184692bfe4ca2261638190094" target="_top" xlink:title="jewel">
<polygon fill="none" stroke="#000000" points="1464,-419.5 1464,-439.5 1507,-439.5 1507,-419.5 1464,-419.5"/>
<text text-anchor="middle" x="1485.5" y="-426.5" font-family="FreeSans" font-size="10.00" fill="#000000">jewel</text>
</a>
</g>
</g>
<!-- Node23&#45;&gt;Node29 -->
<g id="edge31" class="edge">
<title>Node23&#45;&gt;Node29</title>
<path fill="none" stroke="#191970" d="M1306.6102,-313.3909C1322.1359,-321.6498 1340.3215,-332.9888 1354,-346.5 1375.5849,-367.821 1365.5865,-386.4869 1390,-404.5 1411.7897,-420.5772 1443.0606,-426.3321 1463.8093,-428.3822"/>
<polygon fill="#191970" stroke="#191970" points="1307.8479,-310.0928 1297.3511,-308.6548 1304.6601,-316.3248 1307.8479,-310.0928"/>
</g>
<!-- Node30 -->
<g id="node30" class="node">
<title>Node30</title>
<g id="a_node30"><a xlink:href="../../d7/df5/pepsiMaineRHIC__noradcorr_8f.html#ac2ed0c0080f3e6d946824efb82e28ab5" target="_top" xlink:title="pepsimainerhic">
<polygon fill="none" stroke="#000000" points="1438.5,-239.5 1438.5,-259.5 1532.5,-259.5 1532.5,-239.5 1438.5,-239.5"/>
<text text-anchor="middle" x="1485.5" y="-246.5" font-family="FreeSans" font-size="10.00" fill="#000000">pepsimainerhic</text>
</a>
</g>
</g>
<!-- Node23&#45;&gt;Node30 -->
<g id="edge32" class="edge">
<title>Node23&#45;&gt;Node30</title>
<path fill="none" stroke="#191970" d="M1317.1887,-287.3533C1338.935,-281.784 1365.8235,-275.0644 1390,-269.5 1405.6826,-265.8905 1422.8771,-262.2058 1438.3017,-258.9986"/>
<polygon fill="#191970" stroke="#191970" points="1316.0876,-284.0225 1307.2749,-289.9036 1317.8316,-290.8018 1316.0876,-284.0225"/>
</g>
<!-- Node25&#45;&gt;Node26 -->
<g id="edge28" class="edge">
<title>Node25&#45;&gt;Node26</title>
<path fill="none" stroke="#191970" d="M1566.5864,-326.197C1571.5204,-324.4315 1576.3611,-322.534 1581,-320.5 1612.6377,-306.6284 1645.6001,-283.977 1666.2007,-268.6673"/>
<polygon fill="#191970" stroke="#191970" points="1565.3659,-322.9149 1557.0114,-329.4305 1567.6056,-329.5469 1565.3659,-322.9149"/>
</g>
<!-- Node25&#45;&gt;Node27 -->
<g id="edge29" class="edge">
<title>Node25&#45;&gt;Node27</title>
<path fill="none" stroke="#191970" d="M1574.0275,-355.1655C1588.3235,-356.7264 1602.9526,-358.3236 1616.7406,-359.829"/>
<polygon fill="#191970" stroke="#191970" points="1574.0144,-351.6434 1563.6936,-354.0373 1573.2546,-358.602 1574.0144,-351.6434"/>
</g>
<!-- Node32&#45;&gt;Node31 -->
<g id="edge39" class="edge">
<title>Node32&#45;&gt;Node31</title>
<path fill="none" stroke="#191970" d="M1106.046,-409.9182C1146.4235,-399.2714 1214.3304,-381.3656 1250.3577,-371.8659"/>
<polygon fill="#191970" stroke="#191970" points="1104.9436,-406.5892 1096.1665,-412.5233 1106.7284,-413.3578 1104.9436,-406.5892"/>
</g>
<!-- Node33 -->
<g id="node33" class="node">
<title>Node33</title>
<g id="a_node33"><a xlink:href="../../d3/dd5/jewel-2_82_80_8f.html#a2cba90a4cdaaf1d5de1cf1bfe9afaa2e" target="_top" xlink:title="initpythia">
<polygon fill="none" stroke="#000000" points="1243,-410.5 1243,-430.5 1306,-430.5 1306,-410.5 1243,-410.5"/>
<text text-anchor="middle" x="1274.5" y="-417.5" font-family="FreeSans" font-size="10.00" fill="#000000">initpythia</text>
</a>
</g>
</g>
<!-- Node32&#45;&gt;Node33 -->
<g id="edge37" class="edge">
<title>Node32&#45;&gt;Node33</title>
<path fill="none" stroke="#191970" d="M1106.6022,-418.8294C1144.3138,-419.2046 1205.51,-419.8135 1242.6796,-420.1834"/>
<polygon fill="#191970" stroke="#191970" points="1106.2009,-415.3253 1096.1665,-418.7255 1106.1312,-422.325 1106.2009,-415.3253"/>
</g>
<!-- Node33&#45;&gt;Node29 -->
<g id="edge38" class="edge">
<title>Node33&#45;&gt;Node29</title>
<path fill="none" stroke="#191970" d="M1316.2904,-422.2825C1360.7683,-424.1797 1429.3989,-427.1071 1463.9953,-428.5827"/>
<polygon fill="#191970" stroke="#191970" points="1316.2289,-418.7768 1306.0888,-421.8474 1315.9306,-425.7705 1316.2289,-418.7768"/>
</g>
<!-- Node34&#45;&gt;Node22 -->
<g id="edge41" class="edge">
<title>Node34&#45;&gt;Node22</title>
<path fill="none" stroke="#191970" d="M772.3318,-345.8832C790.3606,-337.2789 814.476,-327.0292 837,-321.5 911.6326,-303.179 1003.042,-300.9376 1047.1737,-301.0709"/>
<polygon fill="#191970" stroke="#191970" points="770.435,-342.9148 762.9908,-350.4537 773.5115,-349.2025 770.435,-342.9148"/>
</g>
<!-- Node35 -->
<g id="node35" class="node">
<title>Node35</title>
<g id="a_node35"><a xlink:href="../../d6/dcf/pythia6425mod_8f.html#a83ae6561ab82fd7af8b1b3e511f477ac" target="_top" xlink:title="pyevnw">
<polygon fill="none" stroke="#000000" points="866.5,-369.5 866.5,-389.5 922.5,-389.5 922.5,-369.5 866.5,-369.5"/>
<text text-anchor="middle" x="894.5" y="-376.5" font-family="FreeSans" font-size="10.00" fill="#000000">pyevnw</text>
</a>
</g>
</g>
<!-- Node34&#45;&gt;Node35 -->
<g id="edge42" class="edge">
<title>Node34&#45;&gt;Node35</title>
<path fill="none" stroke="#191970" d="M779.5465,-364.9876C806.0392,-368.3322 841.7325,-372.8383 866.2804,-375.9374"/>
<polygon fill="#191970" stroke="#191970" points="779.8899,-361.5033 769.5303,-363.7231 779.0131,-368.4481 779.8899,-361.5033"/>
</g>
<!-- Node36 -->
<g id="node36" class="node">
<title>Node36</title>
<g id="a_node36"><a xlink:href="../../d6/dcf/pythia6425mod_8f.html#ae7cb37215e5a38b3fb0529c9996646e6" target="_top" xlink:title="pyupev">
<polygon fill="none" stroke="#000000" points="867.5,-330.5 867.5,-350.5 921.5,-350.5 921.5,-330.5 867.5,-330.5"/>
<text text-anchor="middle" x="894.5" y="-337.5" font-family="FreeSans" font-size="10.00" fill="#000000">pyupev</text>
</a>
</g>
</g>
<!-- Node34&#45;&gt;Node36 -->
<g id="edge44" class="edge">
<title>Node34&#45;&gt;Node36</title>
<path fill="none" stroke="#191970" d="M779.6785,-355.7587C806.5332,-352.1899 842.7853,-347.3724 867.3164,-344.1124"/>
<polygon fill="#191970" stroke="#191970" points="778.982,-352.3204 769.5303,-357.1073 779.9042,-359.2594 778.982,-352.3204"/>
</g>
<!-- Node35&#45;&gt;Node22 -->
<g id="edge43" class="edge">
<title>Node35&#45;&gt;Node22</title>
<path fill="none" stroke="#191970" d="M932.1346,-367.8631C938.8084,-365.5734 945.6513,-363.0771 952,-360.5 989.1539,-345.4185 1030.8837,-324.1602 1054.4988,-311.706"/>
<polygon fill="#191970" stroke="#191970" points="930.9355,-364.5734 922.5547,-371.0552 933.1484,-371.2144 930.9355,-364.5734"/>
</g>
<!-- Node38 -->
<g id="node38" class="node">
<title>Node38</title>
<g id="a_node38"><a xlink:href="../../d0/d4b/classGFDetPlane.html#a495c4fd7b1e7a33e1b079b499617f633" target="_top" xlink:title="intersect in the active area? C.f. GFAbsFinitePlane">
<polygon fill="none" stroke="#000000" points="332,-169.5 332,-189.5 454,-189.5 454,-169.5 332,-169.5"/>
<text text-anchor="middle" x="393" y="-176.5" font-family="FreeSans" font-size="10.00" fill="#000000">GFDetPlane::inActive</text>
</a>
</g>
</g>
<!-- Node37&#45;&gt;Node38 -->
<g id="edge46" class="edge">
<title>Node37&#45;&gt;Node38</title>
<path fill="none" stroke="#191970" d="M295.9092,-204.9285C316.0467,-199.6544 337.2133,-194.1108 354.6252,-189.5505"/>
<polygon fill="#191970" stroke="#191970" points="294.914,-201.5711 286.1271,-207.4905 296.6876,-208.3427 294.914,-201.5711"/>
</g>
<!-- Node39 -->
<g id="node39" class="node">
<title>Node39</title>
<g id="a_node39"><a xlink:href="../../dc/d78/classRKTrackRep.html#a261d31749942ae54cf27dafc54f4d87b" target="_top" xlink:title="RKTrackRep::estimateStep">
<polygon fill="none" stroke="#000000" points="496,-150.5 496,-170.5 645,-170.5 645,-150.5 496,-150.5"/>
<text text-anchor="middle" x="570.5" y="-157.5" font-family="FreeSans" font-size="10.00" fill="#000000">RKTrackRep::estimateStep</text>
</a>
</g>
</g>
<!-- Node38&#45;&gt;Node39 -->
<g id="edge47" class="edge">
<title>Node38&#45;&gt;Node39</title>
<path fill="none" stroke="#191970" d="M464.318,-171.866C474.6827,-170.7565 485.3776,-169.6117 495.8068,-168.4953"/>
<polygon fill="#191970" stroke="#191970" points="463.6561,-168.4167 454.0854,-172.9613 464.4012,-175.377 463.6561,-168.4167"/>
</g>
<!-- Node41 -->
<g id="node41" class="node">
<title>Node41</title>
<g id="a_node41"><a xlink:href="../../dc/d78/classRKTrackRep.html#a05042330150601b79ce5b66f2dfe46c8" target="_top" xlink:title="Handles propagation and material effects.">
<polygon fill="none" stroke="#000000" points="837,-117.5 837,-137.5 952,-137.5 952,-117.5 837,-117.5"/>
<text text-anchor="middle" x="894.5" y="-124.5" font-family="FreeSans" font-size="10.00" fill="#000000">RKTrackRep::Extrap</text>
</a>
</g>
</g>
<!-- Node38&#45;&gt;Node41 -->
<g id="edge58" class="edge">
<title>Node38&#45;&gt;Node41</title>
<path fill="none" stroke="#191970" d="M421.645,-164.8872C440.5298,-156.0399 466.1015,-145.524 490,-140.5 611.3597,-114.9875 757.653,-118.4749 836.8111,-123.1012"/>
<polygon fill="#191970" stroke="#191970" points="419.9173,-161.8343 412.4233,-169.3237 422.9521,-168.1423 419.9173,-161.8343"/>
</g>
<!-- Node50 -->
<g id="node50" class="node">
<title>Node50</title>
<g id="a_node50"><a xlink:href="../../d0/d4b/classGFDetPlane.html#a2590e228a6fcdee6e2735fa5dfbde2a0" target="_top" xlink:title="inActive methods refer to finite plane. C.f. GFAbsFinitePlane">
<polygon fill="none" stroke="#000000" points="509.5,-189.5 509.5,-209.5 631.5,-209.5 631.5,-189.5 509.5,-189.5"/>
<text text-anchor="middle" x="570.5" y="-196.5" font-family="FreeSans" font-size="10.00" fill="#000000">GFDetPlane::inActive</text>
</a>
</g>
</g>
<!-- Node38&#45;&gt;Node50 -->
<g id="edge59" class="edge">
<title>Node38&#45;&gt;Node50</title>
<path fill="none" stroke="#191970" d="M464.2793,-187.5315C479.1935,-189.2119 494.793,-190.9696 509.302,-192.6044"/>
<polygon fill="#191970" stroke="#191970" points="464.4145,-184.0246 454.0854,-186.3829 463.6306,-190.9806 464.4145,-184.0246"/>
</g>
<!-- Node40 -->
<g id="node40" class="node">
<title>Node40</title>
<g id="a_node40"><a xlink:href="../../dc/d78/classRKTrackRep.html#ac12f7560f92785301a6b1f6fdc3f1ae8" target="_top" xlink:title="Propagates the particle through the magnetic field.">
<polygon fill="none" stroke="#000000" points="687,-150.5 687,-170.5 801,-170.5 801,-150.5 687,-150.5"/>
<text text-anchor="middle" x="744" y="-157.5" font-family="FreeSans" font-size="10.00" fill="#000000">RKTrackRep::RKutta</text>
</a>
</g>
</g>
<!-- Node39&#45;&gt;Node40 -->
<g id="edge48" class="edge">
<title>Node39&#45;&gt;Node40</title>
<path fill="none" stroke="#191970" d="M655.284,-160.5C665.9547,-160.5 676.6651,-160.5 686.7689,-160.5"/>
<polygon fill="#191970" stroke="#191970" points="655.0866,-157.0001 645.0865,-160.5 655.0865,-164.0001 655.0866,-157.0001"/>
</g>
<!-- Node40&#45;&gt;Node41 -->
<g id="edge49" class="edge">
<title>Node40&#45;&gt;Node41</title>
<path fill="none" stroke="#191970" d="M799.8239,-148.2596C815.9575,-144.7219 833.37,-140.9039 848.8088,-137.5187"/>
<polygon fill="#191970" stroke="#191970" points="798.991,-144.8589 789.9727,-150.4196 800.4903,-151.6965 798.991,-144.8589"/>
</g>
<!-- Node42 -->
<g id="node42" class="node">
<title>Node42</title>
<g id="a_node42"><a xlink:href="../../dc/d78/classRKTrackRep.html#a2be2d0e556347dd464121be871887276" target="_top" xlink:title="Returns position of the track in the plane.">
<polygon fill="none" stroke="#000000" points="1016,-39.5 1016,-59.5 1131,-59.5 1131,-39.5 1016,-39.5"/>
<text text-anchor="middle" x="1073.5" y="-46.5" font-family="FreeSans" font-size="10.00" fill="#000000">RKTrackRep::getPos</text>
</a>
</g>
</g>
<!-- Node41&#45;&gt;Node42 -->
<g id="edge50" class="edge">
<title>Node41&#45;&gt;Node42</title>
<path fill="none" stroke="#191970" d="M915.4815,-111.2756C933.7107,-97.934 961.31,-79.4958 988,-68.5 996.7169,-64.9088 1006.2265,-61.9427 1015.6336,-59.5095"/>
<polygon fill="#191970" stroke="#191970" points="913.2499,-108.5737 907.3304,-117.3607 917.4375,-114.1831 913.2499,-108.5737"/>
</g>
<!-- Node43 -->
<g id="node43" class="node">
<title>Node43</title>
<g id="a_node43"><a xlink:href="../../dc/d78/classRKTrackRep.html#aa986fd663b50961e9f1b673e84827074" target="_top" xlink:title="Returns momentum of the track in the plane.">
<polygon fill="none" stroke="#000000" points="1012.5,-.5 1012.5,-20.5 1134.5,-20.5 1134.5,-.5 1012.5,-.5"/>
<text text-anchor="middle" x="1073.5" y="-7.5" font-family="FreeSans" font-size="10.00" fill="#000000">RKTrackRep::getMom</text>
</a>
</g>
</g>
<!-- Node41&#45;&gt;Node43 -->
<g id="edge51" class="edge">
<title>Node41&#45;&gt;Node43</title>
<path fill="none" stroke="#191970" d="M906.8878,-108.9509C922.8913,-86.5174 952.9011,-49.3074 988,-29.5 995.4159,-25.315 1003.6786,-22.0517 1012.0629,-19.5072"/>
<polygon fill="#191970" stroke="#191970" points="903.9211,-107.087 901.094,-117.2977 909.6715,-111.0786 903.9211,-107.087"/>
</g>
<!-- Node44 -->
<g id="node44" class="node">
<title>Node44</title>
<g id="a_node44"><a xlink:href="../../dc/d78/classRKTrackRep.html#aa6757492b1ff0b6fefb28f564dde899b" target="_top" xlink:title="Gets position and momentum in the plane.">
<polygon fill="none" stroke="#000000" points="1003.5,-246.5 1003.5,-266.5 1143.5,-266.5 1143.5,-246.5 1003.5,-246.5"/>
<text text-anchor="middle" x="1073.5" y="-253.5" font-family="FreeSans" font-size="10.00" fill="#000000">RKTrackRep::getPosMom</text>
</a>
</g>
</g>
<!-- Node41&#45;&gt;Node44 -->
<g id="edge52" class="edge">
<title>Node41&#45;&gt;Node44</title>
<path fill="none" stroke="#191970" d="M905.5111,-146.6153C920.7782,-171.3309 950.7512,-213.8778 988,-236.5 994.7754,-240.6149 1002.3261,-243.8833 1010.0574,-246.4794"/>
<polygon fill="#191970" stroke="#191970" points="908.3712,-144.5793 900.2261,-137.8038 902.3682,-148.1798 908.3712,-144.5793"/>
</g>
<!-- Node45 -->
<g id="node45" class="node">
<title>Node45</title>
<g id="a_node45"><a xlink:href="../../dc/d78/classRKTrackRep.html#a351386ee423e94485b9188bd1e13849c" target="_top" xlink:title="This method is to extrapolate the track to point of closest approach to a point in space...">
<polygon fill="none" stroke="#000000" points="998.5,-195.5 998.5,-227.5 1148.5,-227.5 1148.5,-195.5 998.5,-195.5"/>
<text text-anchor="start" x="1006.5" y="-214.5" font-family="FreeSans" font-size="10.00" fill="#000000">RKTrackRep::extrapolateTo</text>
<text text-anchor="middle" x="1073.5" y="-202.5" font-family="FreeSans" font-size="10.00" fill="#000000">Point</text>
</a>
</g>
</g>
<!-- Node41&#45;&gt;Node45 -->
<g id="edge53" class="edge">
<title>Node41&#45;&gt;Node45</title>
<path fill="none" stroke="#191970" d="M916.3815,-143.3582C934.7728,-156.115 962.1295,-173.7846 988,-185.5 996.056,-189.1481 1004.7632,-192.4606 1013.4324,-195.4062"/>
<polygon fill="#191970" stroke="#191970" points="918.31,-140.4355 908.119,-137.5381 914.2788,-146.1583 918.31,-140.4355"/>
</g>
<!-- Node46 -->
<g id="node46" class="node">
<title>Node46</title>
<g id="a_node46"><a xlink:href="../../dc/d78/classRKTrackRep.html#a7c845b4fbd52e72a3dc6bff232158dfd" target="_top" xlink:title="This method extrapolates to the point of closest approach to a line.">
<polygon fill="none" stroke="#000000" points="988,-156.5 988,-176.5 1159,-176.5 1159,-156.5 988,-156.5"/>
<text text-anchor="middle" x="1073.5" y="-163.5" font-family="FreeSans" font-size="10.00" fill="#000000">RKTrackRep::extrapolateToLine</text>
</a>
</g>
</g>
<!-- Node41&#45;&gt;Node46 -->
<g id="edge54" class="edge">
<title>Node41&#45;&gt;Node46</title>
<path fill="none" stroke="#191970" d="M950.5812,-139.7188C975.3446,-145.1142 1004.0935,-151.3779 1027.5593,-156.4906"/>
<polygon fill="#191970" stroke="#191970" points="951.1128,-136.2526 940.5969,-137.5435 949.6226,-143.0921 951.1128,-136.2526"/>
</g>
<!-- Node47 -->
<g id="node47" class="node">
<title>Node47</title>
<g id="a_node47"><a xlink:href="../../dc/d78/classRKTrackRep.html#a20c06f385a82175c108ca8451e4e6a05" target="_top" xlink:title="returns the tracklength spanned in this extrapolation">
<polygon fill="none" stroke="#000000" points="1004,-117.5 1004,-137.5 1143,-137.5 1143,-117.5 1004,-117.5"/>
<text text-anchor="middle" x="1073.5" y="-124.5" font-family="FreeSans" font-size="10.00" fill="#000000">RKTrackRep::extrapolate</text>
</a>
</g>
</g>
<!-- Node41&#45;&gt;Node47 -->
<g id="edge55" class="edge">
<title>Node41&#45;&gt;Node47</title>
<path fill="none" stroke="#191970" d="M962.3313,-127.5C975.8911,-127.5 990.157,-127.5 1003.7794,-127.5"/>
<polygon fill="#191970" stroke="#191970" points="962.1221,-124.0001 952.122,-127.5 962.122,-131.0001 962.1221,-124.0001"/>
</g>
<!-- Node49 -->
<g id="node49" class="node">
<title>Node49</title>
<g id="a_node49"><a xlink:href="../../dc/d78/classRKTrackRep.html#a6d367a642bbce17ff9e8c51252d86e34" target="_top" xlink:title="make step of h cm along the track, returns the tracklength spanned in this extrapolation">
<polygon fill="none" stroke="#000000" points="1008,-78.5 1008,-98.5 1139,-98.5 1139,-78.5 1008,-78.5"/>
<text text-anchor="middle" x="1073.5" y="-85.5" font-family="FreeSans" font-size="10.00" fill="#000000">RKTrackRep::stepalong</text>
</a>
</g>
</g>
<!-- Node41&#45;&gt;Node49 -->
<g id="edge57" class="edge">
<title>Node41&#45;&gt;Node49</title>
<path fill="none" stroke="#191970" d="M950.5812,-115.2812C975.3446,-109.8858 1004.0935,-103.6221 1027.5593,-98.5094"/>
<polygon fill="#191970" stroke="#191970" points="949.6226,-111.9079 940.5969,-117.4565 951.1128,-118.7474 949.6226,-111.9079"/>
</g>
<!-- Node48 -->
<g id="node48" class="node">
<title>Node48</title>
<g id="a_node48"><a xlink:href="../../dc/d78/classRKTrackRep.html#a37537cbd53fc8a944075d43b8a917880" target="_top" xlink:title="RKTrackRep::getPosMomCov">
<polygon fill="none" stroke="#000000" points="1195,-117.5 1195,-137.5 1354,-137.5 1354,-117.5 1195,-117.5"/>
<text text-anchor="middle" x="1274.5" y="-124.5" font-family="FreeSans" font-size="10.00" fill="#000000">RKTrackRep::getPosMomCov</text>
</a>
</g>
</g>
<!-- Node47&#45;&gt;Node48 -->
<g id="edge56" class="edge">
<title>Node47&#45;&gt;Node48</title>
<path fill="none" stroke="#191970" d="M1153.53,-127.5C1167.1478,-127.5 1181.2892,-127.5 1194.896,-127.5"/>
<polygon fill="#191970" stroke="#191970" points="1153.236,-124.0001 1143.2359,-127.5 1153.2359,-131.0001 1153.236,-124.0001"/>
</g>
</g>
</svg>
