<?xml version="1.0" encoding="UTF-8" standalone="no"?>
<!DOCTYPE svg PUBLIC "-//W3C//DTD SVG 1.1//EN"
 "http://www.w3.org/Graphics/SVG/1.1/DTD/svg11.dtd">
<!-- Generated by graphviz version 2.40.1 (20161225.0304)
 -->
<!-- Title: GFDetPlane::getNormal Pages: 1 -->
<svg width="1528pt" height="827pt"
 viewBox="0.00 0.00 1528.00 827.00" xmlns="http://www.w3.org/2000/svg" xmlns:xlink="http://www.w3.org/1999/xlink">
<g id="graph0" class="graph" transform="scale(1 1) rotate(0) translate(4 823)">
<title>GFDetPlane::getNormal</title>
<!-- Node1 -->
<g id="node1" class="node">
<title>Node1</title>
<polygon fill="#bfbfbf" stroke="#000000" points="0,-498.5 0,-518.5 135,-518.5 135,-498.5 0,-498.5"/>
<text text-anchor="middle" x="67.5" y="-505.5" font-family="FreeSans" font-size="10.00" fill="#000000">GFDetPlane::getNormal</text>
</g>
<!-- Node2 -->
<g id="node2" class="node">
<title>Node2</title>
<g id="a_node2"><a xlink:href="../../dc/d78/classRKTrackRep.html#a34423e84c261426833c2b5a5b39a53c7" target="_top" xlink:title="RKTrackRep::calcStateCov">
<polygon fill="none" stroke="#000000" points="187,-795.5 187,-815.5 334,-815.5 334,-795.5 187,-795.5"/>
<text text-anchor="middle" x="260.5" y="-802.5" font-family="FreeSans" font-size="10.00" fill="#000000">RKTrackRep::calcStateCov</text>
</a>
</g>
</g>
<!-- Node1&#45;&gt;Node2 -->
<g id="edge1" class="edge">
<title>Node1&#45;&gt;Node2</title>
<path fill="none" stroke="#191970" d="M70.7154,-528.5868C79.1194,-575.1174 105.7753,-691.6399 171,-761.5 186.0064,-777.5729 208.1504,-788.5272 226.6569,-795.4859"/>
<polygon fill="#191970" stroke="#191970" points="74.1376,-527.8345 68.9975,-518.5701 67.2383,-529.0178 74.1376,-527.8345"/>
</g>
<!-- Node4 -->
<g id="node4" class="node">
<title>Node4</title>
<g id="a_node4"><a xlink:href="../../d4/d84/PndGenfitAdapters_8h.html#a4fc5873675ef9aa9938d296b9779387d" target="_top" xlink:title="GenfitTrack2PndTrack">
<polygon fill="none" stroke="#000000" points="197.5,-731.5 197.5,-751.5 323.5,-751.5 323.5,-731.5 197.5,-731.5"/>
<text text-anchor="middle" x="260.5" y="-738.5" font-family="FreeSans" font-size="10.00" fill="#000000">GenfitTrack2PndTrack</text>
</a>
</g>
</g>
<!-- Node1&#45;&gt;Node4 -->
<g id="edge3" class="edge">
<title>Node1&#45;&gt;Node4</title>
<path fill="none" stroke="#191970" d="M71.0894,-528.532C79.8671,-571.358 106.5937,-672.0218 171,-722.5 178.6263,-728.4771 187.6999,-732.6845 197.0979,-735.6263"/>
<polygon fill="#191970" stroke="#191970" points="74.4871,-527.6672 69.1521,-518.5136 67.6144,-528.9963 74.4871,-527.6672"/>
</g>
<!-- Node10 -->
<g id="node10" class="node">
<title>Node10</title>
<g id="a_node10"><a xlink:href="../../d0/d4b/classGFDetPlane.html#a0611294aa4127802261fb262a8a08313" target="_top" xlink:title="for poor attempts of making an event display. There is a lot of room for improvements.">
<polygon fill="none" stroke="#000000" points="188.5,-692.5 188.5,-712.5 332.5,-712.5 332.5,-692.5 188.5,-692.5"/>
<text text-anchor="middle" x="260.5" y="-699.5" font-family="FreeSans" font-size="10.00" fill="#000000">GFDetPlane::getGraphics</text>
</a>
</g>
</g>
<!-- Node1&#45;&gt;Node10 -->
<g id="edge10" class="edge">
<title>Node1&#45;&gt;Node10</title>
<path fill="none" stroke="#191970" d="M73.3435,-528.4052C85.2466,-565.2573 115.9458,-643.9511 171,-683.5 176.2893,-687.2997 182.1801,-690.3696 188.344,-692.8461"/>
<polygon fill="#191970" stroke="#191970" points="76.6676,-527.3076 70.3627,-518.793 69.9817,-529.381 76.6676,-527.3076"/>
</g>
<!-- Node11 -->
<g id="node11" class="node">
<title>Node11</title>
<g id="a_node11"><a xlink:href="../../d2/d53/classGeaneTrackRep.html#ad7ce8597866059dee0ce2642ecad98cd" target="_top" xlink:title="GeaneTrackRep::getMom">
<polygon fill="none" stroke="#000000" points="189,-653.5 189,-673.5 332,-673.5 332,-653.5 189,-653.5"/>
<text text-anchor="middle" x="260.5" y="-660.5" font-family="FreeSans" font-size="10.00" fill="#000000">GeaneTrackRep::getMom</text>
</a>
</g>
</g>
<!-- Node1&#45;&gt;Node11 -->
<g id="edge11" class="edge">
<title>Node1&#45;&gt;Node11</title>
<path fill="none" stroke="#191970" d="M76.4678,-527.7007C91.5255,-557.6947 124.8372,-615.2532 171,-644.5 176.6356,-648.0705 182.8311,-650.9808 189.251,-653.3515"/>
<polygon fill="#191970" stroke="#191970" points="79.5934,-526.1249 72.0688,-518.6663 73.2998,-529.1893 79.5934,-526.1249"/>
</g>
<!-- Node12 -->
<g id="node12" class="node">
<title>Node12</title>
<g id="a_node12"><a xlink:href="../../d2/d53/classGeaneTrackRep.html#a0f8a0613b4a776e1f0b37b7c6516c21a" target="_top" xlink:title="GeaneTrackRep::getPosMom">
<polygon fill="none" stroke="#000000" points="180.5,-614.5 180.5,-634.5 340.5,-634.5 340.5,-614.5 180.5,-614.5"/>
<text text-anchor="middle" x="260.5" y="-621.5" font-family="FreeSans" font-size="10.00" fill="#000000">GeaneTrackRep::getPosMom</text>
</a>
</g>
</g>
<!-- Node1&#45;&gt;Node12 -->
<g id="edge12" class="edge">
<title>Node1&#45;&gt;Node12</title>
<path fill="none" stroke="#191970" d="M81.4419,-526.5887C99.578,-548.7857 133.4177,-585.8823 171,-605.5 177.8999,-609.1017 185.4374,-612.0207 193.1156,-614.3865"/>
<polygon fill="#191970" stroke="#191970" points="84.0506,-524.2463 75.0777,-518.6126 78.5789,-528.6122 84.0506,-524.2463"/>
</g>
<!-- Node13 -->
<g id="node13" class="node">
<title>Node13</title>
<g id="a_node13"><a xlink:href="../../d2/d53/classGeaneTrackRep.html#a7ad8cc90128ab3b42367fda482238e27" target="_top" xlink:title="method which gets position, momentum and 6x6 covariance matrix">
<polygon fill="none" stroke="#000000" points="171,-575.5 171,-595.5 350,-595.5 350,-575.5 171,-575.5"/>
<text text-anchor="middle" x="260.5" y="-582.5" font-family="FreeSans" font-size="10.00" fill="#000000">GeaneTrackRep::getPosMomCov</text>
</a>
</g>
</g>
<!-- Node1&#45;&gt;Node13 -->
<g id="edge13" class="edge">
<title>Node1&#45;&gt;Node13</title>
<path fill="none" stroke="#191970" d="M93.7388,-523.4614C114.2851,-534.7358 143.838,-549.9966 171,-560.5 186.0472,-566.3186 202.9953,-571.4062 218.0634,-575.4459"/>
<polygon fill="#191970" stroke="#191970" points="95.4149,-520.3887 84.9733,-518.5932 92.0162,-526.5083 95.4149,-520.3887"/>
</g>
<!-- Node14 -->
<g id="node14" class="node">
<title>Node14</title>
<g id="a_node14"><a xlink:href="../../dc/d78/classRKTrackRep.html#a6e781281ca7dc4c50eb26e124cbbfa6e" target="_top" xlink:title="RKTrackRep::getState5">
<polygon fill="none" stroke="#000000" points="799.5,-518.5 799.5,-538.5 930.5,-538.5 930.5,-518.5 799.5,-518.5"/>
<text text-anchor="middle" x="865" y="-525.5" font-family="FreeSans" font-size="10.00" fill="#000000">RKTrackRep::getState5</text>
</a>
</g>
</g>
<!-- Node1&#45;&gt;Node14 -->
<g id="edge14" class="edge">
<title>Node1&#45;&gt;Node14</title>
<path fill="none" stroke="#191970" d="M142.2422,-519.7449C151.8992,-520.8638 161.6709,-521.8314 171,-522.5 401.4497,-539.0163 676.034,-534.1566 799.3466,-530.6769"/>
<polygon fill="#191970" stroke="#191970" points="142.5924,-516.2618 132.2433,-518.5303 141.7482,-523.2107 142.5924,-516.2618"/>
</g>
<!-- Node17 -->
<g id="node17" class="node">
<title>Node17</title>
<g id="a_node17"><a xlink:href="../../dc/d78/classRKTrackRep.html#a1b560ce31587dc3f22a0d600329a5be0" target="_top" xlink:title="RKTrackRep::getState7">
<polygon fill="none" stroke="#000000" points="195,-150.5 195,-170.5 326,-170.5 326,-150.5 195,-150.5"/>
<text text-anchor="middle" x="260.5" y="-157.5" font-family="FreeSans" font-size="10.00" fill="#000000">RKTrackRep::getState7</text>
</a>
</g>
</g>
<!-- Node1&#45;&gt;Node17 -->
<g id="edge17" class="edge">
<title>Node1&#45;&gt;Node17</title>
<path fill="none" stroke="#191970" d="M71.1702,-488.0186C83.2409,-422.9227 123.6561,-222.521 171,-179.5 177.8184,-173.3042 186.1413,-168.9405 194.937,-165.8969"/>
<polygon fill="#191970" stroke="#191970" points="67.6612,-487.7511 69.3071,-498.2173 74.5472,-489.009 67.6612,-487.7511"/>
</g>
<!-- Node18 -->
<g id="node18" class="node">
<title>Node18</title>
<g id="a_node18"><a xlink:href="../../d0/d4b/classGFDetPlane.html#a8c41443493115e95bfef8426178f7bc2" target="_top" xlink:title="GFDetPlane::Print">
<polygon fill="none" stroke="#000000" points="207.5,-189.5 207.5,-209.5 313.5,-209.5 313.5,-189.5 207.5,-189.5"/>
<text text-anchor="middle" x="260.5" y="-196.5" font-family="FreeSans" font-size="10.00" fill="#000000">GFDetPlane::Print</text>
</a>
</g>
</g>
<!-- Node1&#45;&gt;Node18 -->
<g id="edge18" class="edge">
<title>Node1&#45;&gt;Node18</title>
<path fill="none" stroke="#191970" d="M68.7576,-488.2286C73.0913,-436.3554 91.8775,-297.7465 171,-224.5 180.9447,-215.2939 193.9992,-209.4376 207.0522,-205.7241"/>
<polygon fill="#191970" stroke="#191970" points="65.2492,-488.2131 68.0024,-498.444 72.2302,-488.7292 65.2492,-488.2131"/>
</g>
<!-- Node22 -->
<g id="node22" class="node">
<title>Node22</title>
<g id="a_node22"><a xlink:href="../../dc/d78/classRKTrackRep.html#ac12f7560f92785301a6b1f6fdc3f1ae8" target="_top" xlink:title="Propagates the particle through the magnetic field.">
<polygon fill="none" stroke="#000000" points="808,-440.5 808,-460.5 922,-460.5 922,-440.5 808,-440.5"/>
<text text-anchor="middle" x="865" y="-447.5" font-family="FreeSans" font-size="10.00" fill="#000000">RKTrackRep::RKutta</text>
</a>
</g>
</g>
<!-- Node1&#45;&gt;Node22 -->
<g id="edge31" class="edge">
<title>Node1&#45;&gt;Node22</title>
<path fill="none" stroke="#191970" d="M145.4148,-510.3524C299.6883,-513.454 638.969,-517.304 753,-494.5 786.8011,-487.7404 823.5576,-471.4159 845.4181,-460.6642"/>
<polygon fill="#191970" stroke="#191970" points="145.1484,-506.8463 135.0786,-510.1401 145.0046,-513.8448 145.1484,-506.8463"/>
</g>
<!-- Node30 -->
<g id="node30" class="node">
<title>Node30</title>
<g id="a_node30"><a xlink:href="../../d0/d4b/classGFDetPlane.html#a5f8a23fc4ccc7133419d082615c079bd" target="_top" xlink:title="GFDetPlane::sane">
<polygon fill="none" stroke="#000000" points="812,-165.5 812,-185.5 918,-185.5 918,-165.5 812,-165.5"/>
<text text-anchor="middle" x="865" y="-172.5" font-family="FreeSans" font-size="10.00" fill="#000000">GFDetPlane::sane</text>
</a>
</g>
</g>
<!-- Node1&#45;&gt;Node30 -->
<g id="edge32" class="edge">
<title>Node1&#45;&gt;Node30</title>
<path fill="none" stroke="#191970" d="M70.5028,-488.1329C78.2136,-443.7807 103.1086,-338.5187 171,-289.5 276.6355,-213.2295 626.5667,-249.9748 753,-218.5 785.5404,-210.3993 821.4496,-195.4803 843.6199,-185.5231"/>
<polygon fill="#191970" stroke="#191970" points="67.0446,-487.5937 68.897,-498.0253 73.9542,-488.7153 67.0446,-487.5937"/>
</g>
<!-- Node43 -->
<g id="node43" class="node">
<title>Node43</title>
<g id="a_node43"><a xlink:href="../../d0/d4b/classGFDetPlane.html#a580408bb7e2e1280a55384815510326e" target="_top" xlink:title="gives u,v coordinates of the intersection point of a straight line with plane">
<polygon fill="none" stroke="#000000" points="189.5,-412.5 189.5,-444.5 331.5,-444.5 331.5,-412.5 189.5,-412.5"/>
<text text-anchor="start" x="197.5" y="-431.5" font-family="FreeSans" font-size="10.00" fill="#000000">GFDetPlane::straightLine</text>
<text text-anchor="middle" x="260.5" y="-419.5" font-family="FreeSans" font-size="10.00" fill="#000000">ToPlane</text>
</a>
</g>
</g>
<!-- Node1&#45;&gt;Node43 -->
<g id="edge50" class="edge">
<title>Node1&#45;&gt;Node43</title>
<path fill="none" stroke="#191970" d="M101.3337,-494.4757C134.9138,-480.5565 186.3323,-459.2431 221.5851,-444.6305"/>
<polygon fill="#191970" stroke="#191970" points="99.8412,-491.3055 91.9436,-498.3679 102.5217,-497.772 99.8412,-491.3055"/>
</g>
<!-- Node47 -->
<g id="node47" class="node">
<title>Node47</title>
<g id="a_node47"><a xlink:href="../../dc/d78/classRKTrackRep.html#ad3067d81d79b8ce4811ec9946c841fc9" target="_top" xlink:title="RKTrackRep::transformM6P">
<polygon fill="none" stroke="#000000" points="184.5,-111.5 184.5,-131.5 336.5,-131.5 336.5,-111.5 184.5,-111.5"/>
<text text-anchor="middle" x="260.5" y="-118.5" font-family="FreeSans" font-size="10.00" fill="#000000">RKTrackRep::transformM6P</text>
</a>
</g>
</g>
<!-- Node1&#45;&gt;Node47 -->
<g id="edge56" class="edge">
<title>Node1&#45;&gt;Node47</title>
<path fill="none" stroke="#191970" d="M70.3948,-488.3806C80.815,-418.7524 118.5879,-189.6123 171,-140.5 174.9409,-136.8072 179.4138,-133.7601 184.2077,-131.2525"/>
<polygon fill="#191970" stroke="#191970" points="66.9036,-488.0647 68.911,-498.4676 73.8291,-489.0835 66.9036,-488.0647"/>
</g>
<!-- Node49 -->
<g id="node49" class="node">
<title>Node49</title>
<g id="a_node49"><a xlink:href="../../dc/d78/classRKTrackRep.html#a6f682286a2080935090564d7a6a31392" target="_top" xlink:title="RKTrackRep::transformM7P">
<polygon fill="none" stroke="#000000" points="789,-334.5 789,-354.5 941,-354.5 941,-334.5 789,-334.5"/>
<text text-anchor="middle" x="865" y="-341.5" font-family="FreeSans" font-size="10.00" fill="#000000">RKTrackRep::transformM7P</text>
</a>
</g>
</g>
<!-- Node1&#45;&gt;Node49 -->
<g id="edge58" class="edge">
<title>Node1&#45;&gt;Node49</title>
<path fill="none" stroke="#191970" d="M79.8979,-490.0114C97.2129,-465.8136 131.0454,-424.0722 171,-403.5 380.1009,-295.8361 672.0737,-317.7135 800.2897,-334.4384"/>
<polygon fill="#191970" stroke="#191970" points="76.9362,-488.1398 74.0921,-498.3457 82.68,-492.1409 76.9362,-488.1398"/>
</g>
<!-- Node50 -->
<g id="node50" class="node">
<title>Node50</title>
<g id="a_node50"><a xlink:href="../../dc/d78/classRKTrackRep.html#abf0d7d42a17aaf69cf56a4ee8414ed10" target="_top" xlink:title="RKTrackRep::transformPM7">
<polygon fill="none" stroke="#000000" points="789,-276.5 789,-296.5 941,-296.5 941,-276.5 789,-276.5"/>
<text text-anchor="middle" x="865" y="-283.5" font-family="FreeSans" font-size="10.00" fill="#000000">RKTrackRep::transformPM7</text>
</a>
</g>
</g>
<!-- Node1&#45;&gt;Node50 -->
<g id="edge60" class="edge">
<title>Node1&#45;&gt;Node50</title>
<path fill="none" stroke="#191970" d="M73.1444,-488.6007C84.7151,-451.8627 114.8821,-373.9135 171,-338.5 271.966,-274.7848 630.6296,-278.4534 788.95,-283.4395"/>
<polygon fill="#191970" stroke="#191970" points="69.7874,-487.6104 70.2544,-498.195 76.4899,-489.6294 69.7874,-487.6104"/>
</g>
<!-- Node3 -->
<g id="node3" class="node">
<title>Node3</title>
<g id="a_node3"><a xlink:href="../../dc/d78/classRKTrackRep.html#afffa0c84130d38e865718bd417c07c96" target="_top" xlink:title="RKTrackRep::RKTrackRep">
<polygon fill="none" stroke="#000000" points="406.5,-798.5 406.5,-818.5 546.5,-818.5 546.5,-798.5 406.5,-798.5"/>
<text text-anchor="middle" x="476.5" y="-805.5" font-family="FreeSans" font-size="10.00" fill="#000000">RKTrackRep::RKTrackRep</text>
</a>
</g>
</g>
<!-- Node2&#45;&gt;Node3 -->
<g id="edge2" class="edge">
<title>Node2&#45;&gt;Node3</title>
<path fill="none" stroke="#191970" d="M344.4863,-806.6665C364.9548,-806.9508 386.6354,-807.2519 406.3815,-807.5261"/>
<polygon fill="#191970" stroke="#191970" points="344.2785,-803.1633 334.2308,-806.524 344.1812,-810.1627 344.2785,-803.1633"/>
</g>
<!-- Node5 -->
<g id="node5" class="node">
<title>Node5</title>
<g id="a_node5"><a xlink:href="../../de/d85/classPndGFTrackToPndTrackConvertorTask.html#a2e5496d4e39aefde3476bedca2d55a57" target="_top" xlink:title="PndGFTrackToPndTrackConvertor\lTask::Exec">
<polygon fill="none" stroke="#000000" points="386,-747.5 386,-779.5 567,-779.5 567,-747.5 386,-747.5"/>
<text text-anchor="start" x="394" y="-766.5" font-family="FreeSans" font-size="10.00" fill="#000000">PndGFTrackToPndTrackConvertor</text>
<text text-anchor="middle" x="476.5" y="-754.5" font-family="FreeSans" font-size="10.00" fill="#000000">Task::Exec</text>
</a>
</g>
</g>
<!-- Node4&#45;&gt;Node5 -->
<g id="edge4" class="edge">
<title>Node4&#45;&gt;Node5</title>
<path fill="none" stroke="#191970" d="M333.7658,-748.9623C350.4453,-750.6611 368.3618,-752.4859 385.6741,-754.2492"/>
<polygon fill="#191970" stroke="#191970" points="333.86,-745.4538 323.5568,-747.9225 333.1507,-752.4178 333.86,-745.4538"/>
</g>
<!-- Node6 -->
<g id="node6" class="node">
<title>Node6</title>
<g id="a_node6"><a xlink:href="../../db/d6d/classPndRecoKalmanFit.html#af5a66632d2917c60057bd37109ec7364" target="_top" xlink:title="PndRecoKalmanFit::Fit">
<polygon fill="none" stroke="#000000" points="412.5,-669.5 412.5,-689.5 540.5,-689.5 540.5,-669.5 412.5,-669.5"/>
<text text-anchor="middle" x="476.5" y="-676.5" font-family="FreeSans" font-size="10.00" fill="#000000">PndRecoKalmanFit::Fit</text>
</a>
</g>
</g>
<!-- Node4&#45;&gt;Node6 -->
<g id="edge5" class="edge">
<title>Node4&#45;&gt;Node6</title>
<path fill="none" stroke="#191970" d="M331.867,-728.8039C338.0879,-726.9626 344.2124,-724.8713 350,-722.5 367.5692,-715.3016 368.4609,-706.7714 386,-699.5 395.6617,-695.4945 406.2514,-692.2336 416.6751,-689.5975"/>
<polygon fill="#191970" stroke="#191970" points="330.7653,-725.4767 322.0465,-731.4961 332.6161,-732.2277 330.7653,-725.4767"/>
</g>
<!-- Node9 -->
<g id="node9" class="node">
<title>Node9</title>
<g id="a_node9"><a xlink:href="../../df/d62/classPndRecoDafFit.html#a71b624dff0fc50e252d2d2b9eed898ee" target="_top" xlink:title="PndRecoDafFit::Fit">
<polygon fill="none" stroke="#000000" points="422.5,-708.5 422.5,-728.5 530.5,-728.5 530.5,-708.5 422.5,-708.5"/>
<text text-anchor="middle" x="476.5" y="-715.5" font-family="FreeSans" font-size="10.00" fill="#000000">PndRecoDafFit::Fit</text>
</a>
</g>
</g>
<!-- Node4&#45;&gt;Node9 -->
<g id="edge8" class="edge">
<title>Node4&#45;&gt;Node9</title>
<path fill="none" stroke="#191970" d="M333.6342,-733.7126C362.6118,-730.627 395.3406,-727.142 422.1542,-724.2868"/>
<polygon fill="#191970" stroke="#191970" points="333.13,-730.2464 323.5568,-734.7856 333.8712,-737.207 333.13,-730.2464"/>
</g>
<!-- Node7 -->
<g id="node7" class="node">
<title>Node7</title>
<g id="a_node7"><a xlink:href="../../d7/d87/classPndRecoKalmanTask.html#aa92916b999aeaf87e99fb08734ce368e" target="_top" xlink:title="PndRecoKalmanTask::Exec">
<polygon fill="none" stroke="#ff0000" points="603,-708.5 603,-728.5 753,-728.5 753,-708.5 603,-708.5"/>
<text text-anchor="middle" x="678" y="-715.5" font-family="FreeSans" font-size="10.00" fill="#000000">PndRecoKalmanTask::Exec</text>
</a>
</g>
</g>
<!-- Node6&#45;&gt;Node7 -->
<g id="edge6" class="edge">
<title>Node6&#45;&gt;Node7</title>
<path fill="none" stroke="#191970" d="M538.5179,-691.5035C566.6425,-696.9469 599.5171,-703.3098 626.2846,-708.4906"/>
<polygon fill="#191970" stroke="#191970" points="538.8742,-688.0075 528.3913,-689.5435 537.544,-694.88 538.8742,-688.0075"/>
</g>
<!-- Node8 -->
<g id="node8" class="node">
<title>Node8</title>
<g id="a_node8"><a xlink:href="../../d2/d28/classPndRecoMultiKalmanTask.html#a79938b3ab7bca0cc183821c03520553a" target="_top" xlink:title="PndRecoMultiKalmanTask\l::Exec">
<polygon fill="none" stroke="#000000" points="605.5,-657.5 605.5,-689.5 750.5,-689.5 750.5,-657.5 605.5,-657.5"/>
<text text-anchor="start" x="613.5" y="-676.5" font-family="FreeSans" font-size="10.00" fill="#000000">PndRecoMultiKalmanTask</text>
<text text-anchor="middle" x="678" y="-664.5" font-family="FreeSans" font-size="10.00" fill="#000000">::Exec</text>
</a>
</g>
</g>
<!-- Node6&#45;&gt;Node8 -->
<g id="edge7" class="edge">
<title>Node6&#45;&gt;Node8</title>
<path fill="none" stroke="#191970" d="M550.859,-677.2858C568.6609,-676.7558 587.6453,-676.1905 605.3679,-675.6627"/>
<polygon fill="#191970" stroke="#191970" points="550.4241,-673.7971 540.5327,-677.5933 550.6325,-680.794 550.4241,-673.7971"/>
</g>
<!-- Node9&#45;&gt;Node7 -->
<g id="edge9" class="edge">
<title>Node9&#45;&gt;Node7</title>
<path fill="none" stroke="#191970" d="M540.8603,-718.5C560.5799,-718.5 582.4481,-718.5 602.8222,-718.5"/>
<polygon fill="#191970" stroke="#191970" points="540.7634,-715.0001 530.7634,-718.5 540.7633,-722.0001 540.7634,-715.0001"/>
</g>
<!-- Node15 -->
<g id="node15" class="node">
<title>Node15</title>
<g id="a_node15"><a xlink:href="../../dc/d78/classRKTrackRep.html#a20c06f385a82175c108ca8451e4e6a05" target="_top" xlink:title="returns the tracklength spanned in this extrapolation">
<polygon fill="none" stroke="#000000" points="1170,-504.5 1170,-524.5 1309,-524.5 1309,-504.5 1170,-504.5"/>
<text text-anchor="middle" x="1239.5" y="-511.5" font-family="FreeSans" font-size="10.00" fill="#000000">RKTrackRep::extrapolate</text>
</a>
</g>
</g>
<!-- Node14&#45;&gt;Node15 -->
<g id="edge15" class="edge">
<title>Node14&#45;&gt;Node15</title>
<path fill="none" stroke="#191970" d="M940.7329,-525.6689C1007.7218,-523.1646 1104.6658,-519.5405 1169.7801,-517.1064"/>
<polygon fill="#191970" stroke="#191970" points="940.5237,-522.1741 930.6615,-526.0454 940.7853,-529.1693 940.5237,-522.1741"/>
</g>
<!-- Node16 -->
<g id="node16" class="node">
<title>Node16</title>
<g id="a_node16"><a xlink:href="../../dc/d78/classRKTrackRep.html#a37537cbd53fc8a944075d43b8a917880" target="_top" xlink:title="RKTrackRep::getPosMomCov">
<polygon fill="none" stroke="#000000" points="1361,-504.5 1361,-524.5 1520,-524.5 1520,-504.5 1361,-504.5"/>
<text text-anchor="middle" x="1440.5" y="-511.5" font-family="FreeSans" font-size="10.00" fill="#000000">RKTrackRep::getPosMomCov</text>
</a>
</g>
</g>
<!-- Node15&#45;&gt;Node16 -->
<g id="edge16" class="edge">
<title>Node15&#45;&gt;Node16</title>
<path fill="none" stroke="#191970" d="M1319.53,-514.5C1333.1478,-514.5 1347.2892,-514.5 1360.896,-514.5"/>
<polygon fill="#191970" stroke="#191970" points="1319.236,-511.0001 1309.2359,-514.5 1319.2359,-518.0001 1319.236,-511.0001"/>
</g>
<!-- Node19 -->
<g id="node19" class="node">
<title>Node19</title>
<g id="a_node19"><a xlink:href="../../d7/d82/classGFAbsTrackRep.html#a1e18ca8cbb1f68de6d9bf880a52877bb" target="_top" xlink:title="GFAbsTrackRep::Print">
<polygon fill="none" stroke="#000000" points="415,-189.5 415,-209.5 538,-209.5 538,-189.5 415,-189.5"/>
<text text-anchor="middle" x="476.5" y="-196.5" font-family="FreeSans" font-size="10.00" fill="#000000">GFAbsTrackRep::Print</text>
</a>
</g>
</g>
<!-- Node18&#45;&gt;Node19 -->
<g id="edge19" class="edge">
<title>Node18&#45;&gt;Node19</title>
<path fill="none" stroke="#191970" d="M323.9262,-199.5C352.5865,-199.5 386.3259,-199.5 414.7798,-199.5"/>
<polygon fill="#191970" stroke="#191970" points="323.6162,-196.0001 313.6162,-199.5 323.6162,-203.0001 323.6162,-196.0001"/>
</g>
<!-- Node21 -->
<g id="node21" class="node">
<title>Node21</title>
<g id="a_node21"><a xlink:href="../../d6/deb/classGFBookkeeping.html#aea5f24bbeefe7a189658aa56261cb6df" target="_top" xlink:title="GFBookkeeping::Print">
<polygon fill="none" stroke="#000000" points="413.5,-150.5 413.5,-170.5 539.5,-170.5 539.5,-150.5 413.5,-150.5"/>
<text text-anchor="middle" x="476.5" y="-157.5" font-family="FreeSans" font-size="10.00" fill="#000000">GFBookkeeping::Print</text>
</a>
</g>
</g>
<!-- Node18&#45;&gt;Node21 -->
<g id="edge21" class="edge">
<title>Node18&#45;&gt;Node21</title>
<path fill="none" stroke="#191970" d="M323.8124,-188.0686C354.5977,-182.5101 391.2646,-175.8897 420.9497,-170.5299"/>
<polygon fill="#191970" stroke="#191970" points="322.8352,-184.6884 313.6162,-189.9096 324.079,-191.577 322.8352,-184.6884"/>
</g>
<!-- Node18&#45;&gt;Node22 -->
<g id="edge22" class="edge">
<title>Node18&#45;&gt;Node22</title>
<path fill="none" stroke="#191970" d="M264.5759,-219.5419C275.2128,-266.111 308.5395,-381.5252 386,-432.5 526.9444,-525.252 745.0886,-482.3768 829.7417,-460.5269"/>
<polygon fill="#191970" stroke="#191970" points="267.989,-218.7658 262.4441,-209.7378 261.1488,-220.2532 267.989,-218.7658"/>
</g>
<!-- Node20 -->
<g id="node20" class="node">
<title>Node20</title>
<g id="a_node20"><a xlink:href="../../d4/d33/classGFTrack.html#aa60d3836d58a44ece5479f22e2e90783" target="_top" xlink:title="GFTrack::Print">
<polygon fill="none" stroke="#000000" points="635,-189.5 635,-209.5 721,-209.5 721,-189.5 635,-189.5"/>
<text text-anchor="middle" x="678" y="-196.5" font-family="FreeSans" font-size="10.00" fill="#000000">GFTrack::Print</text>
</a>
</g>
</g>
<!-- Node19&#45;&gt;Node20 -->
<g id="edge20" class="edge">
<title>Node19&#45;&gt;Node20</title>
<path fill="none" stroke="#191970" d="M548.1203,-199.5C577.0492,-199.5 609.4837,-199.5 634.7036,-199.5"/>
<polygon fill="#191970" stroke="#191970" points="548.0516,-196.0001 538.0515,-199.5 548.0515,-203.0001 548.0516,-196.0001"/>
</g>
<!-- Node23 -->
<g id="node23" class="node">
<title>Node23</title>
<g id="a_node23"><a xlink:href="../../dc/d78/classRKTrackRep.html#a05042330150601b79ce5b66f2dfe46c8" target="_top" xlink:title="Handles propagation and material effects.">
<polygon fill="none" stroke="#000000" points="990,-387.5 990,-407.5 1105,-407.5 1105,-387.5 990,-387.5"/>
<text text-anchor="middle" x="1047.5" y="-394.5" font-family="FreeSans" font-size="10.00" fill="#000000">RKTrackRep::Extrap</text>
</a>
</g>
</g>
<!-- Node22&#45;&gt;Node23 -->
<g id="edge23" class="edge">
<title>Node22&#45;&gt;Node23</title>
<path fill="none" stroke="#191970" d="M909.6911,-437.5212C941.4958,-428.2848 983.6084,-416.0548 1012.873,-407.5561"/>
<polygon fill="#191970" stroke="#191970" points="908.3835,-434.2563 899.7564,-440.4064 910.3358,-440.9785 908.3835,-434.2563"/>
</g>
<!-- Node23&#45;&gt;Node15 -->
<g id="edge29" class="edge">
<title>Node23&#45;&gt;Node15</title>
<path fill="none" stroke="#191970" d="M1091.7965,-411.6105C1101.1703,-415.9964 1110.4881,-421.5578 1118,-428.5 1142.8259,-451.4432 1127.0525,-475.0905 1154,-495.5 1158.8486,-499.1723 1164.2695,-502.1608 1169.9653,-504.5896"/>
<polygon fill="#191970" stroke="#191970" points="1093.039,-408.335 1082.469,-407.6088 1090.279,-414.768 1093.039,-408.335"/>
</g>
<!-- Node24 -->
<g id="node24" class="node">
<title>Node24</title>
<g id="a_node24"><a xlink:href="../../dc/d78/classRKTrackRep.html#a2be2d0e556347dd464121be871887276" target="_top" xlink:title="Returns position of the track in the plane.">
<polygon fill="none" stroke="#000000" points="1182,-465.5 1182,-485.5 1297,-485.5 1297,-465.5 1182,-465.5"/>
<text text-anchor="middle" x="1239.5" y="-472.5" font-family="FreeSans" font-size="10.00" fill="#000000">RKTrackRep::getPos</text>
</a>
</g>
</g>
<!-- Node23&#45;&gt;Node24 -->
<g id="edge24" class="edge">
<title>Node23&#45;&gt;Node24</title>
<path fill="none" stroke="#191970" d="M1084.2066,-411.6044C1095.3477,-416.4201 1107.4301,-422.1977 1118,-428.5 1135.4099,-438.8806 1135.6596,-447.8689 1154,-456.5 1162.6678,-460.5791 1172.2475,-463.8012 1181.7653,-466.3411"/>
<polygon fill="#191970" stroke="#191970" points="1085.2958,-408.2661 1074.72,-407.6311 1082.5916,-414.7226 1085.2958,-408.2661"/>
</g>
<!-- Node25 -->
<g id="node25" class="node">
<title>Node25</title>
<g id="a_node25"><a xlink:href="../../dc/d78/classRKTrackRep.html#aa986fd663b50961e9f1b673e84827074" target="_top" xlink:title="Returns momentum of the track in the plane.">
<polygon fill="none" stroke="#000000" points="1178.5,-426.5 1178.5,-446.5 1300.5,-446.5 1300.5,-426.5 1178.5,-426.5"/>
<text text-anchor="middle" x="1239.5" y="-433.5" font-family="FreeSans" font-size="10.00" fill="#000000">RKTrackRep::getMom</text>
</a>
</g>
</g>
<!-- Node23&#45;&gt;Node25 -->
<g id="edge25" class="edge">
<title>Node23&#45;&gt;Node25</title>
<path fill="none" stroke="#191970" d="M1106.9469,-409.5751C1133.6673,-415.0027 1164.8291,-421.3325 1190.2228,-426.4906"/>
<polygon fill="#191970" stroke="#191970" points="1107.4414,-406.1042 1096.9448,-407.5435 1106.0479,-412.9641 1107.4414,-406.1042"/>
</g>
<!-- Node26 -->
<g id="node26" class="node">
<title>Node26</title>
<g id="a_node26"><a xlink:href="../../dc/d78/classRKTrackRep.html#aa6757492b1ff0b6fefb28f564dde899b" target="_top" xlink:title="Gets position and momentum in the plane.">
<polygon fill="none" stroke="#000000" points="1169.5,-387.5 1169.5,-407.5 1309.5,-407.5 1309.5,-387.5 1169.5,-387.5"/>
<text text-anchor="middle" x="1239.5" y="-394.5" font-family="FreeSans" font-size="10.00" fill="#000000">RKTrackRep::getPosMom</text>
</a>
</g>
</g>
<!-- Node23&#45;&gt;Node26 -->
<g id="edge26" class="edge">
<title>Node23&#45;&gt;Node26</title>
<path fill="none" stroke="#191970" d="M1115.2549,-397.5C1132.7965,-397.5 1151.7192,-397.5 1169.3792,-397.5"/>
<polygon fill="#191970" stroke="#191970" points="1115.1064,-394.0001 1105.1063,-397.5 1115.1063,-401.0001 1115.1064,-394.0001"/>
</g>
<!-- Node27 -->
<g id="node27" class="node">
<title>Node27</title>
<g id="a_node27"><a xlink:href="../../dc/d78/classRKTrackRep.html#a351386ee423e94485b9188bd1e13849c" target="_top" xlink:title="This method is to extrapolate the track to point of closest approach to a point in space...">
<polygon fill="none" stroke="#000000" points="1164.5,-336.5 1164.5,-368.5 1314.5,-368.5 1314.5,-336.5 1164.5,-336.5"/>
<text text-anchor="start" x="1172.5" y="-355.5" font-family="FreeSans" font-size="10.00" fill="#000000">RKTrackRep::extrapolateTo</text>
<text text-anchor="middle" x="1239.5" y="-343.5" font-family="FreeSans" font-size="10.00" fill="#000000">Point</text>
</a>
</g>
</g>
<!-- Node23&#45;&gt;Node27 -->
<g id="edge27" class="edge">
<title>Node23&#45;&gt;Node27</title>
<path fill="none" stroke="#191970" d="M1100.6188,-385.0503C1122.3655,-379.9534 1147.8074,-373.9905 1170.9312,-368.5708"/>
<polygon fill="#191970" stroke="#191970" points="1099.526,-381.7115 1090.5885,-387.4011 1101.1234,-388.5268 1099.526,-381.7115"/>
</g>
<!-- Node28 -->
<g id="node28" class="node">
<title>Node28</title>
<g id="a_node28"><a xlink:href="../../dc/d78/classRKTrackRep.html#a7c845b4fbd52e72a3dc6bff232158dfd" target="_top" xlink:title="This method extrapolates to the point of closest approach to a line.">
<polygon fill="none" stroke="#000000" points="1154,-258.5 1154,-278.5 1325,-278.5 1325,-258.5 1154,-258.5"/>
<text text-anchor="middle" x="1239.5" y="-265.5" font-family="FreeSans" font-size="10.00" fill="#000000">RKTrackRep::extrapolateToLine</text>
</a>
</g>
</g>
<!-- Node23&#45;&gt;Node28 -->
<g id="edge28" class="edge">
<title>Node23&#45;&gt;Node28</title>
<path fill="none" stroke="#191970" d="M1060.2125,-379.0632C1078.1741,-354.4807 1113.3595,-311.414 1154,-288.5 1161.3036,-284.3821 1169.4154,-281.1105 1177.651,-278.5115"/>
<polygon fill="#191970" stroke="#191970" points="1057.357,-377.0393 1054.3962,-387.212 1063.0545,-381.106 1057.357,-377.0393"/>
</g>
<!-- Node29 -->
<g id="node29" class="node">
<title>Node29</title>
<g id="a_node29"><a xlink:href="../../dc/d78/classRKTrackRep.html#a6d367a642bbce17ff9e8c51252d86e34" target="_top" xlink:title="make step of h cm along the track, returns the tracklength spanned in this extrapolation">
<polygon fill="none" stroke="#000000" points="1174,-297.5 1174,-317.5 1305,-317.5 1305,-297.5 1174,-297.5"/>
<text text-anchor="middle" x="1239.5" y="-304.5" font-family="FreeSans" font-size="10.00" fill="#000000">RKTrackRep::stepalong</text>
</a>
</g>
</g>
<!-- Node23&#45;&gt;Node29 -->
<g id="edge30" class="edge">
<title>Node23&#45;&gt;Node29</title>
<path fill="none" stroke="#191970" d="M1067.7637,-381.0204C1088.3156,-365.0974 1121.6238,-341.4038 1154,-327.5 1163.385,-323.4697 1173.714,-320.179 1183.85,-317.517"/>
<polygon fill="#191970" stroke="#191970" points="1065.4625,-378.3777 1059.7767,-387.3176 1069.7965,-383.8747 1065.4625,-378.3777"/>
</g>
<!-- Node31 -->
<g id="node31" class="node">
<title>Node31</title>
<g id="a_node31"><a xlink:href="../../d0/d4b/classGFDetPlane.html#a06da2f007e2390a0460ea9928cb5d2fd" target="_top" xlink:title="GFDetPlane::GFDetPlane">
<polygon fill="none" stroke="#000000" points="977,-126.5 977,-146.5 1118,-146.5 1118,-126.5 977,-126.5"/>
<text text-anchor="middle" x="1047.5" y="-133.5" font-family="FreeSans" font-size="10.00" fill="#000000">GFDetPlane::GFDetPlane</text>
</a>
</g>
</g>
<!-- Node30&#45;&gt;Node31 -->
<g id="edge33" class="edge">
<title>Node30&#45;&gt;Node31</title>
<path fill="none" stroke="#191970" d="M921.8414,-163.3531C947.1647,-157.9415 976.6301,-151.6448 1000.661,-146.5094"/>
<polygon fill="#191970" stroke="#191970" points="921.046,-159.9439 911.9983,-165.4565 922.5089,-166.7894 921.046,-159.9439"/>
</g>
<!-- Node32 -->
<g id="node32" class="node">
<title>Node32</title>
<g id="a_node32"><a xlink:href="../../d0/d4b/classGFDetPlane.html#aec0cbf57e84c05039c1c5ecb2f1202f6" target="_top" xlink:title="GFDetPlane::set">
<polygon fill="none" stroke="#000000" points="998.5,-59.5 998.5,-79.5 1096.5,-79.5 1096.5,-59.5 998.5,-59.5"/>
<text text-anchor="middle" x="1047.5" y="-66.5" font-family="FreeSans" font-size="10.00" fill="#000000">GFDetPlane::set</text>
</a>
</g>
</g>
<!-- Node30&#45;&gt;Node32 -->
<g id="edge34" class="edge">
<title>Node30&#45;&gt;Node32</title>
<path fill="none" stroke="#191970" d="M891.4201,-160.1546C929.281,-138.1642 997.9363,-98.2877 1030.0541,-79.633"/>
<polygon fill="#191970" stroke="#191970" points="889.3882,-157.2872 882.4989,-165.3363 892.904,-163.3403 889.3882,-157.2872"/>
</g>
<!-- Node35 -->
<g id="node35" class="node">
<title>Node35</title>
<g id="a_node35"><a xlink:href="../../d0/d4b/classGFDetPlane.html#ad00ea381063d3b8826dcec198fcf067e" target="_top" xlink:title="GFDetPlane::setO">
<polygon fill="none" stroke="#000000" points="995,-165.5 995,-185.5 1100,-185.5 1100,-165.5 995,-165.5"/>
<text text-anchor="middle" x="1047.5" y="-172.5" font-family="FreeSans" font-size="10.00" fill="#000000">GFDetPlane::setO</text>
</a>
</g>
</g>
<!-- Node30&#45;&gt;Node35 -->
<g id="edge37" class="edge">
<title>Node30&#45;&gt;Node35</title>
<path fill="none" stroke="#191970" d="M928.378,-175.5C950.0519,-175.5 974.0465,-175.5 994.7871,-175.5"/>
<polygon fill="#191970" stroke="#191970" points="928.2772,-172.0001 918.2772,-175.5 928.2771,-179.0001 928.2772,-172.0001"/>
</g>
<!-- Node40 -->
<g id="node40" class="node">
<title>Node40</title>
<g id="a_node40"><a xlink:href="../../d0/d4b/classGFDetPlane.html#a0c281bb41d205f40616d27ff2cef9aa1" target="_top" xlink:title="GFDetPlane::setU">
<polygon fill="none" stroke="#000000" points="995.5,-246.5 995.5,-266.5 1099.5,-266.5 1099.5,-246.5 995.5,-246.5"/>
<text text-anchor="middle" x="1047.5" y="-253.5" font-family="FreeSans" font-size="10.00" fill="#000000">GFDetPlane::setU</text>
</a>
</g>
</g>
<!-- Node30&#45;&gt;Node40 -->
<g id="edge43" class="edge">
<title>Node30&#45;&gt;Node40</title>
<path fill="none" stroke="#191970" d="M889.5165,-190.9273C911.7011,-204.3771 945.6107,-223.6862 977,-236.5 986.3053,-240.2986 996.5813,-243.6574 1006.3426,-246.486"/>
<polygon fill="#191970" stroke="#191970" points="891.1218,-187.806 880.7682,-185.5579 887.4601,-193.7719 891.1218,-187.806"/>
</g>
<!-- Node41 -->
<g id="node41" class="node">
<title>Node41</title>
<g id="a_node41"><a xlink:href="../../d0/d4b/classGFDetPlane.html#a05b854641af36c49185b33c8c859d0c1" target="_top" xlink:title="GFDetPlane::setV">
<polygon fill="none" stroke="#000000" points="995,-207.5 995,-227.5 1100,-227.5 1100,-207.5 995,-207.5"/>
<text text-anchor="middle" x="1047.5" y="-214.5" font-family="FreeSans" font-size="10.00" fill="#000000">GFDetPlane::setV</text>
</a>
</g>
</g>
<!-- Node30&#45;&gt;Node41 -->
<g id="edge46" class="edge">
<title>Node30&#45;&gt;Node41</title>
<path fill="none" stroke="#191970" d="M918.8085,-187.8833C945.8955,-194.1171 978.3078,-201.5763 1003.8275,-207.4493"/>
<polygon fill="#191970" stroke="#191970" points="919.2435,-184.392 908.7133,-185.56 917.6736,-191.2137 919.2435,-184.392"/>
</g>
<!-- Node42 -->
<g id="node42" class="node">
<title>Node42</title>
<g id="a_node42"><a xlink:href="../../d0/d4b/classGFDetPlane.html#ab1edea43e74a10b16516d573668567b3" target="_top" xlink:title="GFDetPlane::setUV">
<polygon fill="none" stroke="#000000" points="991.5,-20.5 991.5,-40.5 1103.5,-40.5 1103.5,-20.5 991.5,-20.5"/>
<text text-anchor="middle" x="1047.5" y="-27.5" font-family="FreeSans" font-size="10.00" fill="#000000">GFDetPlane::setUV</text>
</a>
</g>
</g>
<!-- Node30&#45;&gt;Node42 -->
<g id="edge49" class="edge">
<title>Node30&#45;&gt;Node42</title>
<path fill="none" stroke="#191970" d="M876.6951,-156.4251C894.7357,-128.6353 932.0165,-77.3093 977,-49.5 982.8224,-45.9005 989.3254,-42.9742 995.9627,-40.5972"/>
<polygon fill="#191970" stroke="#191970" points="873.5331,-154.876 871.1353,-165.196 879.4454,-158.6238 873.5331,-154.876"/>
</g>
<!-- Node33 -->
<g id="node33" class="node">
<title>Node33</title>
<g id="a_node33"><a xlink:href="../../d7/d82/classGFAbsTrackRep.html#ac08bdbb534babe4825045dfbf7957ee5" target="_top" xlink:title="GFAbsTrackRep::reset">
<polygon fill="none" stroke="#000000" points="1176.5,-39.5 1176.5,-59.5 1302.5,-59.5 1302.5,-39.5 1176.5,-39.5"/>
<text text-anchor="middle" x="1239.5" y="-46.5" font-family="FreeSans" font-size="10.00" fill="#000000">GFAbsTrackRep::reset</text>
</a>
</g>
</g>
<!-- Node32&#45;&gt;Node33 -->
<g id="edge35" class="edge">
<title>Node32&#45;&gt;Node33</title>
<path fill="none" stroke="#191970" d="M1107.1495,-63.2865C1129.1489,-60.9949 1154.1364,-58.392 1176.4284,-56.07"/>
<polygon fill="#191970" stroke="#191970" points="1106.5283,-59.8322 1096.9448,-64.3495 1107.2536,-66.7945 1106.5283,-59.8322"/>
</g>
<!-- Node34 -->
<g id="node34" class="node">
<title>Node34</title>
<g id="a_node34"><a xlink:href="../../d9/d33/demo_8F.html#a5b31693ae1e23c438c97976df5dabba0" target="_top" xlink:title="demo">
<polygon fill="none" stroke="#000000" points="1217,-.5 1217,-20.5 1262,-20.5 1262,-.5 1217,-.5"/>
<text text-anchor="middle" x="1239.5" y="-7.5" font-family="FreeSans" font-size="10.00" fill="#000000">demo</text>
</a>
</g>
</g>
<!-- Node32&#45;&gt;Node34 -->
<g id="edge36" class="edge">
<title>Node32&#45;&gt;Node34</title>
<path fill="none" stroke="#191970" d="M1098.6537,-56.5017C1105.244,-54.3873 1111.8377,-52.0457 1118,-49.5 1134.9166,-42.5115 1136.8886,-35.9972 1154,-29.5 1174.6126,-21.6734 1199.3048,-16.6174 1216.8423,-13.7043"/>
<polygon fill="#191970" stroke="#191970" points="1097.5929,-53.166 1089.0512,-59.4341 1099.6375,-59.8607 1097.5929,-53.166"/>
</g>
<!-- Node35&#45;&gt;Node28 -->
<g id="edge42" class="edge">
<title>Node35&#45;&gt;Node28</title>
<path fill="none" stroke="#191970" d="M1104.223,-189.4696C1109.0926,-191.7609 1113.768,-194.4188 1118,-197.5 1140.4299,-213.8302 1130.9915,-232.9957 1154,-248.5 1160.0682,-252.5891 1166.8667,-255.8478 1173.9083,-258.444"/>
<polygon fill="#191970" stroke="#191970" points="1105.2617,-186.1109 1094.6845,-185.5001 1102.5722,-192.5736 1105.2617,-186.1109"/>
</g>
<!-- Node36 -->
<g id="node36" class="node">
<title>Node36</title>
<g id="a_node36"><a xlink:href="../../df/db9/classGFSpacepointHitPolicy.html#aaaec664ee63d1ba794e0089e2307a2ea" target="_top" xlink:title="Get detector plane perpendicular to track.">
<polygon fill="none" stroke="#000000" points="1174.5,-156.5 1174.5,-188.5 1304.5,-188.5 1304.5,-156.5 1174.5,-156.5"/>
<text text-anchor="start" x="1182.5" y="-175.5" font-family="FreeSans" font-size="10.00" fill="#000000">GFSpacepointHitPolicy</text>
<text text-anchor="middle" x="1239.5" y="-163.5" font-family="FreeSans" font-size="10.00" fill="#000000">::detPlane</text>
</a>
</g>
</g>
<!-- Node35&#45;&gt;Node36 -->
<g id="edge38" class="edge">
<title>Node35&#45;&gt;Node36</title>
<path fill="none" stroke="#191970" d="M1110.3732,-174.5176C1130.836,-174.1979 1153.5876,-173.8424 1174.2223,-173.52"/>
<polygon fill="#191970" stroke="#191970" points="1110.1629,-171.0204 1100.2188,-174.6763 1110.2723,-178.0195 1110.1629,-171.0204"/>
</g>
<!-- Node37 -->
<g id="node37" class="node">
<title>Node37</title>
<g id="a_node37"><a xlink:href="../../d8/d90/GFTrackProximity_8h.html#a096c63cc9c4d33034c0dff6d9be47b03" target="_top" xlink:title="Calculates poca between two track reps, changes the state of the trackrep!">
<polygon fill="none" stroke="#000000" points="1195,-117.5 1195,-137.5 1284,-137.5 1284,-117.5 1195,-117.5"/>
<text text-anchor="middle" x="1239.5" y="-124.5" font-family="FreeSans" font-size="10.00" fill="#000000">trackProximity</text>
</a>
</g>
</g>
<!-- Node35&#45;&gt;Node37 -->
<g id="edge39" class="edge">
<title>Node35&#45;&gt;Node37</title>
<path fill="none" stroke="#191970" d="M1092.7221,-162.6797C1111.6099,-157.457 1133.8155,-151.4879 1154,-146.5 1167.138,-143.2534 1181.4749,-139.9678 1194.5892,-137.0626"/>
<polygon fill="#191970" stroke="#191970" points="1091.5878,-159.3623 1082.8909,-165.4133 1093.4631,-166.1064 1091.5878,-159.3623"/>
</g>
<!-- Node38 -->
<g id="node38" class="node">
<title>Node38</title>
<g id="a_node38"><a xlink:href="../../d7/d33/classLSLTrackRep.html#ab2a1080336ae70cdee82a789c5402c73" target="_top" xlink:title="This method is to extrapolate the track to point of closest approach to a point in space...">
<polygon fill="none" stroke="#000000" points="1168.5,-207.5 1168.5,-239.5 1310.5,-239.5 1310.5,-207.5 1168.5,-207.5"/>
<text text-anchor="start" x="1176.5" y="-226.5" font-family="FreeSans" font-size="10.00" fill="#000000">LSLTrackRep::extrapolate</text>
<text text-anchor="middle" x="1239.5" y="-214.5" font-family="FreeSans" font-size="10.00" fill="#000000">ToPoint</text>
</a>
</g>
</g>
<!-- Node35&#45;&gt;Node38 -->
<g id="edge40" class="edge">
<title>Node35&#45;&gt;Node38</title>
<path fill="none" stroke="#191970" d="M1097.6244,-188.0311C1121.4247,-193.9812 1150.1433,-201.1608 1175.499,-207.4998"/>
<polygon fill="#191970" stroke="#191970" points="1098.2998,-184.5923 1087.7495,-185.5624 1096.602,-191.3833 1098.2998,-184.5923"/>
</g>
<!-- Node39 -->
<g id="node39" class="node">
<title>Node39</title>
<g id="a_node39"><a xlink:href="../../d7/d33/classLSLTrackRep.html#a3ee93a71dfc86a4dea34e56ea3b0cc77" target="_top" xlink:title="LSLTrackRep::stepalong">
<polygon fill="none" stroke="#000000" points="1172.5,-78.5 1172.5,-98.5 1306.5,-98.5 1306.5,-78.5 1172.5,-78.5"/>
<text text-anchor="middle" x="1239.5" y="-85.5" font-family="FreeSans" font-size="10.00" fill="#000000">LSLTrackRep::stepalong</text>
</a>
</g>
</g>
<!-- Node35&#45;&gt;Node39 -->
<g id="edge41" class="edge">
<title>Node35&#45;&gt;Node39</title>
<path fill="none" stroke="#191970" d="M1107.5546,-161.5129C1111.2128,-159.7405 1114.731,-157.7454 1118,-155.5 1139.9809,-140.402 1131.5923,-121.9571 1154,-107.5 1159.622,-103.8728 1165.8372,-100.9311 1172.2756,-98.5465"/>
<polygon fill="#191970" stroke="#191970" points="1106.0678,-158.3418 1098.235,-165.476 1108.8072,-164.7836 1106.0678,-158.3418"/>
</g>
<!-- Node40&#45;&gt;Node28 -->
<g id="edge45" class="edge">
<title>Node40&#45;&gt;Node28</title>
<path fill="none" stroke="#191970" d="M1109.7068,-260.3879C1123.7297,-261.2644 1138.8553,-262.2097 1153.6553,-263.1347"/>
<polygon fill="#191970" stroke="#191970" points="1109.9101,-256.8939 1099.7112,-259.7632 1109.4734,-263.8803 1109.9101,-256.8939"/>
</g>
<!-- Node40&#45;&gt;Node38 -->
<g id="edge44" class="edge">
<title>Node40&#45;&gt;Node38</title>
<path fill="none" stroke="#191970" d="M1109.5843,-245.8293C1128.2865,-242.6148 1148.9594,-239.0617 1168.2099,-235.753"/>
<polygon fill="#191970" stroke="#191970" points="1108.9738,-242.3828 1099.7112,-247.5262 1110.1596,-249.2816 1108.9738,-242.3828"/>
</g>
<!-- Node41&#45;&gt;Node28 -->
<g id="edge48" class="edge">
<title>Node41&#45;&gt;Node28</title>
<path fill="none" stroke="#191970" d="M1096.2443,-230.2378C1103.5556,-232.2638 1110.9904,-234.3891 1118,-236.5 1134.1491,-241.3631 1137.7718,-243.9078 1154,-248.5 1166.6149,-252.0697 1180.4031,-255.4981 1193.1528,-258.4773"/>
<polygon fill="#191970" stroke="#191970" points="1096.9712,-226.8082 1086.4022,-227.5475 1095.1254,-233.5605 1096.9712,-226.8082"/>
</g>
<!-- Node41&#45;&gt;Node38 -->
<g id="edge47" class="edge">
<title>Node41&#45;&gt;Node38</title>
<path fill="none" stroke="#191970" d="M1110.2888,-219.4622C1128.8001,-220.0406 1149.1905,-220.6778 1168.1955,-221.2717"/>
<polygon fill="#191970" stroke="#191970" points="1110.3233,-215.9616 1100.2188,-219.1475 1110.1046,-222.9582 1110.3233,-215.9616"/>
</g>
<!-- Node44 -->
<g id="node44" class="node">
<title>Node44</title>
<g id="a_node44"><a xlink:href="../../d0/d4b/classGFDetPlane.html#a495c4fd7b1e7a33e1b079b499617f633" target="_top" xlink:title="intersect in the active area? C.f. GFAbsFinitePlane">
<polygon fill="none" stroke="#000000" points="415.5,-402.5 415.5,-422.5 537.5,-422.5 537.5,-402.5 415.5,-402.5"/>
<text text-anchor="middle" x="476.5" y="-409.5" font-family="FreeSans" font-size="10.00" fill="#000000">GFDetPlane::inActive</text>
</a>
</g>
</g>
<!-- Node43&#45;&gt;Node44 -->
<g id="edge51" class="edge">
<title>Node43&#45;&gt;Node44</title>
<path fill="none" stroke="#191970" d="M341.8192,-422.4764C366.1493,-420.6741 392.4067,-418.7291 415.2192,-417.0393"/>
<polygon fill="#191970" stroke="#191970" points="341.2397,-419.0096 331.5256,-423.2388 341.7569,-425.9905 341.2397,-419.0096"/>
</g>
<!-- Node44&#45;&gt;Node23 -->
<g id="edge53" class="edge">
<title>Node44&#45;&gt;Node23</title>
<path fill="none" stroke="#191970" d="M547.6629,-410.6306C662.0582,-407.6254 884.6454,-401.7781 989.814,-399.0154"/>
<polygon fill="#191970" stroke="#191970" points="547.5116,-407.1332 537.607,-410.8947 547.6955,-414.1308 547.5116,-407.1332"/>
</g>
<!-- Node45 -->
<g id="node45" class="node">
<title>Node45</title>
<g id="a_node45"><a xlink:href="../../d0/d4b/classGFDetPlane.html#a2590e228a6fcdee6e2735fa5dfbde2a0" target="_top" xlink:title="inActive methods refer to finite plane. C.f. GFAbsFinitePlane">
<polygon fill="none" stroke="#000000" points="617,-343.5 617,-363.5 739,-363.5 739,-343.5 617,-343.5"/>
<text text-anchor="middle" x="678" y="-350.5" font-family="FreeSans" font-size="10.00" fill="#000000">GFDetPlane::inActive</text>
</a>
</g>
</g>
<!-- Node44&#45;&gt;Node45 -->
<g id="edge52" class="edge">
<title>Node44&#45;&gt;Node45</title>
<path fill="none" stroke="#191970" d="M520.6887,-399.5614C557.6807,-388.73 609.7217,-373.4922 643.6506,-363.5576"/>
<polygon fill="#191970" stroke="#191970" points="519.2952,-396.3224 510.6817,-402.4915 521.2623,-403.0403 519.2952,-396.3224"/>
</g>
<!-- Node46 -->
<g id="node46" class="node">
<title>Node46</title>
<g id="a_node46"><a xlink:href="../../dc/d78/classRKTrackRep.html#a261d31749942ae54cf27dafc54f4d87b" target="_top" xlink:title="RKTrackRep::estimateStep">
<polygon fill="none" stroke="#000000" points="603.5,-421.5 603.5,-441.5 752.5,-441.5 752.5,-421.5 603.5,-421.5"/>
<text text-anchor="middle" x="678" y="-428.5" font-family="FreeSans" font-size="10.00" fill="#000000">RKTrackRep::estimateStep</text>
</a>
</g>
</g>
<!-- Node44&#45;&gt;Node46 -->
<g id="edge54" class="edge">
<title>Node44&#45;&gt;Node46</title>
<path fill="none" stroke="#191970" d="M547.6533,-419.2092C565.6914,-420.9101 585.1186,-422.7419 603.3256,-424.4587"/>
<polygon fill="#191970" stroke="#191970" points="547.7879,-415.7065 537.5035,-418.2522 547.1307,-422.6756 547.7879,-415.7065"/>
</g>
<!-- Node46&#45;&gt;Node22 -->
<g id="edge55" class="edge">
<title>Node46&#45;&gt;Node22</title>
<path fill="none" stroke="#191970" d="M762.7203,-440.1079C778.0441,-441.6649 793.6852,-443.2541 807.9777,-444.7063"/>
<polygon fill="#191970" stroke="#191970" points="763.0161,-436.6201 752.7135,-439.0912 762.3085,-443.5842 763.0161,-436.6201"/>
</g>
<!-- Node48 -->
<g id="node48" class="node">
<title>Node48</title>
<g id="a_node48"><a xlink:href="../../dc/d78/classRKTrackRep.html#afdca5c0680c131a74faaef82f4c77f4f" target="_top" xlink:title="Sets state, plane and covariance from position, momentum and 6x6 covariance.">
<polygon fill="none" stroke="#000000" points="397.5,-111.5 397.5,-131.5 555.5,-131.5 555.5,-111.5 397.5,-111.5"/>
<text text-anchor="middle" x="476.5" y="-118.5" font-family="FreeSans" font-size="10.00" fill="#000000">RKTrackRep::setPosMomCov</text>
</a>
</g>
</g>
<!-- Node47&#45;&gt;Node48 -->
<g id="edge57" class="edge">
<title>Node47&#45;&gt;Node48</title>
<path fill="none" stroke="#191970" d="M346.9215,-121.5C363.5849,-121.5 380.9628,-121.5 397.3798,-121.5"/>
<polygon fill="#191970" stroke="#191970" points="346.6536,-118.0001 336.6535,-121.5 346.6535,-125.0001 346.6536,-118.0001"/>
</g>
<!-- Node49&#45;&gt;Node15 -->
<g id="edge59" class="edge">
<title>Node49&#45;&gt;Node15</title>
<path fill="none" stroke="#191970" d="M878.1461,-363.1302C897.0187,-388.4015 934.2627,-433.0732 977,-456.5 1037.1621,-489.4784 1114.7852,-503.7073 1169.9793,-509.8455"/>
<polygon fill="#191970" stroke="#191970" points="880.7698,-360.788 872.0481,-354.7728 875.115,-364.914 880.7698,-360.788"/>
</g>
<!-- Node50&#45;&gt;Node15 -->
<g id="edge61" class="edge">
<title>Node50&#45;&gt;Node15</title>
<path fill="none" stroke="#191970" d="M905.9149,-300.8523C918.4828,-306.8753 931.4918,-314.9782 941,-325.5 970.4386,-358.0771 944.3933,-388.0941 977,-417.5 1025.2846,-461.0448 1062.4882,-422.6475 1118,-456.5 1138.1396,-468.7817 1133.5527,-483.7377 1154,-495.5 1160.3267,-499.1394 1167.2867,-502.0821 1174.4202,-504.4612"/>
<polygon fill="#191970" stroke="#191970" points="907.0149,-297.5111 896.4555,-296.6463 904.1709,-303.9073 907.0149,-297.5111"/>
</g>
</g>
</svg>
