<?xml version="1.0" encoding="UTF-8" standalone="no"?>
<!DOCTYPE svg PUBLIC "-//W3C//DTD SVG 1.1//EN"
 "http://www.w3.org/Graphics/SVG/1.1/DTD/svg11.dtd">
<!-- Generated by graphviz version 2.40.1 (20161225.0304)
 -->
<!-- Title: fun4all_coresoftware/blob/master/offline/packages/tpc/TpcSpaceChargeCorrection.cc Pages: 1 -->
<svg width="1443pt" height="407pt"
 viewBox="0.00 0.00 1442.70 407.00" xmlns="http://www.w3.org/2000/svg" xmlns:xlink="http://www.w3.org/1999/xlink">
<g id="graph0" class="graph" transform="scale(1 1) rotate(0) translate(4 403)">
<title>fun4all_coresoftware/blob/master/offline/packages/tpc/TpcSpaceChargeCorrection.cc</title>
<!-- Node1 -->
<g id="node1" class="node">
<title>Node1</title>
<polygon fill="#bfbfbf" stroke="#000000" points="712.6962,-342.5 712.6962,-398.5 888.6962,-398.5 888.6962,-342.5 712.6962,-342.5"/>
<text text-anchor="start" x="720.6962" y="-385.5" font-family="FreeSans" font-size="10.00" fill="#000000">fun4all_coresoftware</text>
<text text-anchor="start" x="720.6962" y="-373.5" font-family="FreeSans" font-size="10.00" fill="#000000">/blob/master/offline</text>
<text text-anchor="start" x="720.6962" y="-361.5" font-family="FreeSans" font-size="10.00" fill="#000000">/packages/tpc/TpcSpaceCharge</text>
<text text-anchor="middle" x="800.6962" y="-349.5" font-family="FreeSans" font-size="10.00" fill="#000000">Correction.cc</text>
</g>
<!-- Node2 -->
<g id="node2" class="node">
<title>Node2</title>
<g id="a_node2"><a xlink:href="../../d0/d0a/TpcSpaceChargeCorrection_8h.html" target="_top" xlink:title="TpcSpaceChargeCorrection.h">
<polygon fill="none" stroke="#000000" points="272.6962,-228.5 272.6962,-248.5 436.6962,-248.5 436.6962,-228.5 272.6962,-228.5"/>
<text text-anchor="middle" x="354.6962" y="-235.5" font-family="FreeSans" font-size="10.00" fill="#000000">TpcSpaceChargeCorrection.h</text>
</a>
</g>
</g>
<!-- Node1&#45;&gt;Node2 -->
<g id="edge1" class="edge">
<title>Node1&#45;&gt;Node2</title>
<path fill="none" stroke="#191970" d="M712.5809,-344.421C617.7793,-316.3632 470.8821,-272.8869 398.315,-251.4096"/>
<polygon fill="#191970" stroke="#191970" points="399.164,-248.0109 388.5819,-248.5289 397.1774,-254.7231 399.164,-248.0109"/>
</g>
<!-- Node14 -->
<g id="node14" class="node">
<title>Node14</title>
<g id="a_node14"><a xlink:href="../../d8/d00/TrkrDefs_8h.html" target="_top" xlink:title="Namespace with Trkr key types and utility functions.">
<polygon fill="none" stroke="#000000" points="116.6962,-171.5 116.6962,-191.5 236.6962,-191.5 236.6962,-171.5 116.6962,-171.5"/>
<text text-anchor="middle" x="176.6962" y="-178.5" font-family="FreeSans" font-size="10.00" fill="#000000">trackbase/TrkrDefs.h</text>
</a>
</g>
</g>
<!-- Node1&#45;&gt;Node14 -->
<g id="edge64" class="edge">
<title>Node1&#45;&gt;Node14</title>
<path fill="none" stroke="#191970" d="M712.2496,-362.4055C602.5562,-349.7388 411.9292,-318.9989 263.6962,-249 236.8074,-236.3025 210.4751,-214.1152 193.95,-198.6579"/>
<polygon fill="#191970" stroke="#191970" points="196.3089,-196.0708 186.666,-191.6815 191.467,-201.1262 196.3089,-196.0708"/>
</g>
<!-- Node16 -->
<g id="node16" class="node">
<title>Node16</title>
<g id="a_node16"><a xlink:href="../../da/dc1/Fun4AllReturnCodes_8h.html" target="_top" xlink:title="fun4all/Fun4AllReturnCodes.h">
<polygon fill="none" stroke="#000000" points="793.6962,-285.5 793.6962,-305.5 959.6962,-305.5 959.6962,-285.5 793.6962,-285.5"/>
<text text-anchor="middle" x="876.6962" y="-292.5" font-family="FreeSans" font-size="10.00" fill="#000000">fun4all/Fun4AllReturnCodes.h</text>
</a>
</g>
</g>
<!-- Node1&#45;&gt;Node16 -->
<g id="edge19" class="edge">
<title>Node1&#45;&gt;Node16</title>
<path fill="none" stroke="#191970" d="M829.4285,-342.1457C839.442,-332.264 850.3699,-321.4799 859.1936,-312.7723"/>
<polygon fill="#191970" stroke="#191970" points="861.6709,-315.2449 866.3302,-305.7296 856.754,-310.2625 861.6709,-315.2449"/>
</g>
<!-- Node17 -->
<g id="node17" class="node">
<title>Node17</title>
<g id="a_node17"><a xlink:href="../../dd/dd4/getClass_8h.html" target="_top" xlink:title="phool/getClass.h">
<polygon fill="none" stroke="#000000" points="675.6962,-285.5 675.6962,-305.5 775.6962,-305.5 775.6962,-285.5 675.6962,-285.5"/>
<text text-anchor="middle" x="725.6962" y="-292.5" font-family="FreeSans" font-size="10.00" fill="#000000">phool/getClass.h</text>
</a>
</g>
</g>
<!-- Node1&#45;&gt;Node17 -->
<g id="edge20" class="edge">
<title>Node1&#45;&gt;Node17</title>
<path fill="none" stroke="#191970" d="M772.3419,-342.1457C762.56,-332.3638 751.8938,-321.6976 743.233,-313.0368"/>
<polygon fill="#191970" stroke="#191970" points="745.4717,-310.3258 735.9257,-305.7296 740.522,-315.2755 745.4717,-310.3258"/>
</g>
<!-- Node31 -->
<g id="node31" class="node">
<title>Node31</title>
<g id="a_node31"><a xlink:href="../../d1/d4a/TrkrCluster_8h.html" target="_top" xlink:title="Base class for cluster object.">
<polygon fill="none" stroke="#000000" points="38.6962,-228.5 38.6962,-248.5 170.6962,-248.5 170.6962,-228.5 38.6962,-228.5"/>
<text text-anchor="middle" x="104.6962" y="-235.5" font-family="FreeSans" font-size="10.00" fill="#000000">trackbase/TrkrCluster.h</text>
</a>
</g>
</g>
<!-- Node1&#45;&gt;Node31 -->
<g id="edge52" class="edge">
<title>Node1&#45;&gt;Node31</title>
<path fill="none" stroke="#191970" d="M712.4452,-365.4672C572.2689,-356.686 305.4113,-336.538 215.6962,-306 181.3549,-294.3106 146.3498,-270.665 125.0708,-254.701"/>
<polygon fill="#191970" stroke="#191970" points="127.1617,-251.8939 117.0947,-248.5914 122.905,-257.4509 127.1617,-251.8939"/>
</g>
<!-- Node33 -->
<g id="node33" class="node">
<title>Node33</title>
<g id="a_node33"><a xlink:href="../../d2/d44/TrkrClusterContainer_8h.html" target="_top" xlink:title="Cluster container object.">
<polygon fill="none" stroke="#000000" points="459.1962,-228.5 459.1962,-248.5 640.1962,-248.5 640.1962,-228.5 459.1962,-228.5"/>
<text text-anchor="middle" x="549.6962" y="-235.5" font-family="FreeSans" font-size="10.00" fill="#000000">trackbase/TrkrClusterContainer.h</text>
</a>
</g>
</g>
<!-- Node1&#45;&gt;Node33 -->
<g id="edge58" class="edge">
<title>Node1&#45;&gt;Node33</title>
<path fill="none" stroke="#191970" d="M739.8496,-342.3904C716.7507,-331.4122 690.325,-318.4805 666.6962,-306 634.478,-288.9827 598.2693,-267.7573 574.7822,-253.7005"/>
<polygon fill="#191970" stroke="#191970" points="576.5149,-250.6584 566.1406,-248.5082 572.9097,-256.6586 576.5149,-250.6584"/>
</g>
<!-- Node35 -->
<g id="node35" class="node">
<title>Node35</title>
<polygon fill="none" stroke="#bfbfbf" points="977.6962,-285.5 977.6962,-305.5 1027.6962,-305.5 1027.6962,-285.5 977.6962,-285.5"/>
<text text-anchor="middle" x="1002.6962" y="-292.5" font-family="FreeSans" font-size="10.00" fill="#000000">TFile.h</text>
</g>
<!-- Node1&#45;&gt;Node35 -->
<g id="edge65" class="edge">
<title>Node1&#45;&gt;Node35</title>
<path fill="none" stroke="#191970" d="M876.2008,-342.4661C907.6601,-330.7857 942.6506,-317.7942 967.8418,-308.441"/>
<polygon fill="#191970" stroke="#191970" points="969.168,-311.6821 977.3245,-304.9202 966.7315,-305.1198 969.168,-311.6821"/>
</g>
<!-- Node36 -->
<g id="node36" class="node">
<title>Node36</title>
<polygon fill="none" stroke="#bfbfbf" points="1046.1962,-285.5 1046.1962,-305.5 1093.1962,-305.5 1093.1962,-285.5 1046.1962,-285.5"/>
<text text-anchor="middle" x="1069.6962" y="-292.5" font-family="FreeSans" font-size="10.00" fill="#000000">TH3.h</text>
</g>
<!-- Node1&#45;&gt;Node36 -->
<g id="edge66" class="edge">
<title>Node1&#45;&gt;Node36</title>
<path fill="none" stroke="#191970" d="M888.9168,-347.3147C930.8468,-336.0737 981.8621,-322.0792 1036.1303,-306.0895"/>
<polygon fill="#191970" stroke="#191970" points="1037.3428,-309.3808 1045.9392,-303.188 1035.3571,-302.6684 1037.3428,-309.3808"/>
</g>
<!-- Node37 -->
<g id="node37" class="node">
<title>Node37</title>
<polygon fill="none" stroke="#bfbfbf" points="1111.1962,-285.5 1111.1962,-305.5 1156.1962,-305.5 1156.1962,-285.5 1111.1962,-285.5"/>
<text text-anchor="middle" x="1133.6962" y="-292.5" font-family="FreeSans" font-size="10.00" fill="#000000">bitset</text>
</g>
<!-- Node1&#45;&gt;Node37 -->
<g id="edge67" class="edge">
<title>Node1&#45;&gt;Node37</title>
<path fill="none" stroke="#191970" d="M888.8982,-354.4682C946.9896,-343.2541 1024.7985,-326.992 1101.2967,-306.1853"/>
<polygon fill="#191970" stroke="#191970" points="1102.388,-309.5152 1111.1033,-303.4907 1100.5333,-302.7654 1102.388,-309.5152"/>
</g>
<!-- Node38 -->
<g id="node38" class="node">
<title>Node38</title>
<polygon fill="none" stroke="#bfbfbf" points="1174.6962,-285.5 1174.6962,-305.5 1226.6962,-305.5 1226.6962,-285.5 1174.6962,-285.5"/>
<text text-anchor="middle" x="1200.6962" y="-292.5" font-family="FreeSans" font-size="10.00" fill="#000000">math.h</text>
</g>
<!-- Node1&#45;&gt;Node38 -->
<g id="edge68" class="edge">
<title>Node1&#45;&gt;Node38</title>
<path fill="none" stroke="#191970" d="M889.0497,-357.8411C960.9457,-346.8587 1065.1229,-329.4 1164.5014,-306.0914"/>
<polygon fill="#191970" stroke="#191970" points="1165.4882,-309.4546 1174.4119,-303.7435 1163.8744,-302.6432 1165.4882,-309.4546"/>
</g>
<!-- Node3 -->
<g id="node3" class="node">
<title>Node3</title>
<g id="a_node3"><a xlink:href="../../d5/dc2/SubsysReco_8h.html" target="_top" xlink:title="fun4all/SubsysReco.h">
<polygon fill="none" stroke="#000000" points="292.6962,-171.5 292.6962,-191.5 416.6962,-191.5 416.6962,-171.5 292.6962,-171.5"/>
<text text-anchor="middle" x="354.6962" y="-178.5" font-family="FreeSans" font-size="10.00" fill="#000000">fun4all/SubsysReco.h</text>
</a>
</g>
</g>
<!-- Node2&#45;&gt;Node3 -->
<g id="edge2" class="edge">
<title>Node2&#45;&gt;Node3</title>
<path fill="none" stroke="#191970" d="M354.6962,-228.3095C354.6962,-220.9335 354.6962,-210.72 354.6962,-201.715"/>
<polygon fill="#191970" stroke="#191970" points="358.1963,-201.6022 354.6962,-191.6022 351.1963,-201.6023 358.1963,-201.6022"/>
</g>
<!-- Node7 -->
<g id="node7" class="node">
<title>Node7</title>
<g id="a_node7"><a xlink:href="../../df/d32/PHObject_8h.html" target="_top" xlink:title="phool/PHObject.h">
<polygon fill="none" stroke="#000000" points="434.6962,-171.5 434.6962,-191.5 538.6962,-191.5 538.6962,-171.5 434.6962,-171.5"/>
<text text-anchor="middle" x="486.6962" y="-178.5" font-family="FreeSans" font-size="10.00" fill="#000000">phool/PHObject.h</text>
</a>
</g>
</g>
<!-- Node2&#45;&gt;Node7 -->
<g id="edge7" class="edge">
<title>Node2&#45;&gt;Node7</title>
<path fill="none" stroke="#191970" d="M377.9913,-228.4408C399.0676,-219.3396 430.3261,-205.8416 453.9207,-195.6531"/>
<polygon fill="#191970" stroke="#191970" points="455.3969,-198.8281 463.19,-191.6504 452.6218,-192.4016 455.3969,-198.8281"/>
</g>
<!-- Node10 -->
<g id="node10" class="node">
<title>Node10</title>
<g id="a_node10"><a xlink:href="../../dc/d26/PHTimer_8h.html" target="_top" xlink:title="high precision timer">
<polygon fill="none" stroke="#000000" points="270.1962,-114.5 270.1962,-134.5 369.1962,-134.5 369.1962,-114.5 270.1962,-114.5"/>
<text text-anchor="middle" x="319.6962" y="-121.5" font-family="FreeSans" font-size="10.00" fill="#000000">phool/PHTimer.h</text>
</a>
</g>
</g>
<!-- Node2&#45;&gt;Node10 -->
<g id="edge10" class="edge">
<title>Node2&#45;&gt;Node10</title>
<path fill="none" stroke="#191970" d="M327.3687,-228.383C311.5314,-220.939 292.9437,-209.1108 283.6962,-192 274.5113,-175.0052 287.3854,-155.5318 300.2168,-141.8828"/>
<polygon fill="#191970" stroke="#191970" points="302.95,-144.1023 307.5996,-134.5822 298.028,-139.1248 302.95,-144.1023"/>
</g>
<!-- Node2&#45;&gt;Node14 -->
<g id="edge16" class="edge">
<title>Node2&#45;&gt;Node14</title>
<path fill="none" stroke="#191970" d="M323.2831,-228.4408C293.8874,-219.0275 249.8033,-204.9107 217.6576,-194.6169"/>
<polygon fill="#191970" stroke="#191970" points="218.6852,-191.2709 208.0941,-191.5544 216.5503,-197.9374 218.6852,-191.2709"/>
</g>
<!-- Node4 -->
<g id="node4" class="node">
<title>Node4</title>
<g id="a_node4"><a xlink:href="../../d2/de7/Fun4AllBase_8h.html" target="_top" xlink:title="Fun4AllBase.h">
<polygon fill="none" stroke="#000000" points="395.1962,-114.5 395.1962,-134.5 482.1962,-134.5 482.1962,-114.5 395.1962,-114.5"/>
<text text-anchor="middle" x="438.6962" y="-121.5" font-family="FreeSans" font-size="10.00" fill="#000000">Fun4AllBase.h</text>
</a>
</g>
</g>
<!-- Node3&#45;&gt;Node4 -->
<g id="edge3" class="edge">
<title>Node3&#45;&gt;Node4</title>
<path fill="none" stroke="#191970" d="M369.7137,-171.3095C382.3754,-162.7177 400.7108,-150.2758 415.2961,-140.3786"/>
<polygon fill="#191970" stroke="#191970" points="417.4992,-143.1135 423.8087,-134.6022 413.5686,-137.3211 417.4992,-143.1135"/>
</g>
<!-- Node6 -->
<g id="node6" class="node">
<title>Node6</title>
<polygon fill="none" stroke="#bfbfbf" points="932.1962,-57.5 932.1962,-77.5 977.1962,-77.5 977.1962,-57.5 932.1962,-57.5"/>
<text text-anchor="middle" x="954.6962" y="-64.5" font-family="FreeSans" font-size="10.00" fill="#000000">string</text>
</g>
<!-- Node3&#45;&gt;Node6 -->
<g id="edge6" class="edge">
<title>Node3&#45;&gt;Node6</title>
<path fill="none" stroke="#191970" d="M390.2146,-171.4955C442.0615,-157.1715 541.6662,-130.708 627.6962,-114 734.475,-93.2624 862.5543,-77.7259 921.7386,-71.0689"/>
<polygon fill="#191970" stroke="#191970" points="922.416,-74.5152 931.9672,-69.93 921.6413,-67.5582 922.416,-74.5152"/>
</g>
<!-- Node5 -->
<g id="node5" class="node">
<title>Node5</title>
<polygon fill="none" stroke="#bfbfbf" points="471.1962,-57.5 471.1962,-77.5 520.1962,-77.5 520.1962,-57.5 471.1962,-57.5"/>
<text text-anchor="middle" x="495.6962" y="-64.5" font-family="FreeSans" font-size="10.00" fill="#000000">climits</text>
</g>
<!-- Node4&#45;&gt;Node5 -->
<g id="edge4" class="edge">
<title>Node4&#45;&gt;Node5</title>
<path fill="none" stroke="#191970" d="M448.8867,-114.3095C457.0733,-106.1229 468.7552,-94.441 478.4007,-84.7955"/>
<polygon fill="#191970" stroke="#191970" points="480.9977,-87.1482 485.594,-77.6022 476.048,-82.1984 480.9977,-87.1482"/>
</g>
<!-- Node4&#45;&gt;Node6 -->
<g id="edge5" class="edge">
<title>Node4&#45;&gt;Node6</title>
<path fill="none" stroke="#191970" d="M482.2454,-119.6893C583.3418,-108.5217 832.1428,-81.0379 921.8119,-71.1326"/>
<polygon fill="#191970" stroke="#191970" points="922.3824,-74.5909 931.9377,-70.014 921.6138,-67.6332 922.3824,-74.5909"/>
</g>
<!-- Node8 -->
<g id="node8" class="node">
<title>Node8</title>
<polygon fill="none" stroke="#bfbfbf" points="636.1962,-114.5 636.1962,-134.5 701.1962,-134.5 701.1962,-114.5 636.1962,-114.5"/>
<text text-anchor="middle" x="668.6962" y="-121.5" font-family="FreeSans" font-size="10.00" fill="#000000">TObject.h</text>
</g>
<!-- Node7&#45;&gt;Node8 -->
<g id="edge8" class="edge">
<title>Node7&#45;&gt;Node8</title>
<path fill="none" stroke="#191970" d="M518.8152,-171.4408C548.8715,-162.0275 593.9463,-147.9107 626.8143,-137.6169"/>
<polygon fill="#191970" stroke="#191970" points="628.0958,-140.8832 636.5927,-134.5544 626.0037,-134.2032 628.0958,-140.8832"/>
</g>
<!-- Node9 -->
<g id="node9" class="node">
<title>Node9</title>
<polygon fill="none" stroke="#bfbfbf" points="537.6962,-.5 537.6962,-20.5 597.6962,-20.5 597.6962,-.5 537.6962,-.5"/>
<text text-anchor="middle" x="567.6962" y="-7.5" font-family="FreeSans" font-size="10.00" fill="#000000">iostream</text>
</g>
<!-- Node7&#45;&gt;Node9 -->
<g id="edge9" class="edge">
<title>Node7&#45;&gt;Node9</title>
<path fill="none" stroke="#191970" d="M491.5205,-171.3153C504.658,-143.5807 541.237,-66.3583 558.4797,-29.9571"/>
<polygon fill="#191970" stroke="#191970" points="561.6769,-31.3833 562.7947,-20.8476 555.3507,-28.3866 561.6769,-31.3833"/>
</g>
<!-- Node10&#45;&gt;Node6 -->
<g id="edge14" class="edge">
<title>Node10&#45;&gt;Node6</title>
<path fill="none" stroke="#191970" d="M369.3966,-116.2721C375.2195,-115.4384 381.0831,-114.658 386.6962,-114 590.8112,-90.0726 642.9765,-96.0363 847.6962,-78 872.669,-75.7998 900.89,-73.0182 922.0771,-70.8707"/>
<polygon fill="#191970" stroke="#191970" points="922.5704,-74.3387 932.1638,-69.8425 921.8604,-67.3747 922.5704,-74.3387"/>
</g>
<!-- Node10&#45;&gt;Node9 -->
<g id="edge13" class="edge">
<title>Node10&#45;&gt;Node9</title>
<path fill="none" stroke="#191970" d="M343.4691,-114.4621C364.6988,-105.3585 396.5436,-91.3581 423.6962,-78 441.3607,-69.3097 445.0163,-65.6589 462.6962,-57 486.3451,-45.4178 513.5419,-33.4088 534.3302,-24.4967"/>
<polygon fill="#191970" stroke="#191970" points="535.8583,-27.6501 543.6853,-20.5095 533.1136,-21.2106 535.8583,-27.6501"/>
</g>
<!-- Node11 -->
<g id="node11" class="node">
<title>Node11</title>
<polygon fill="none" stroke="#bfbfbf" points="357.1962,-57.5 357.1962,-77.5 414.1962,-77.5 414.1962,-57.5 357.1962,-57.5"/>
<text text-anchor="middle" x="385.6962" y="-64.5" font-family="FreeSans" font-size="10.00" fill="#000000">unistd.h</text>
</g>
<!-- Node10&#45;&gt;Node11 -->
<g id="edge11" class="edge">
<title>Node10&#45;&gt;Node11</title>
<path fill="none" stroke="#191970" d="M331.4957,-114.3095C341.1626,-105.9608 355.0387,-93.9769 366.3305,-84.2249"/>
<polygon fill="#191970" stroke="#191970" points="368.7183,-86.7874 373.9989,-77.6022 364.1429,-81.4896 368.7183,-86.7874"/>
</g>
<!-- Node12 -->
<g id="node12" class="node">
<title>Node12</title>
<polygon fill="none" stroke="#bfbfbf" points="199.1962,-57.5 199.1962,-77.5 264.1962,-77.5 264.1962,-57.5 199.1962,-57.5"/>
<text text-anchor="middle" x="231.6962" y="-64.5" font-family="FreeSans" font-size="10.00" fill="#000000">exception</text>
</g>
<!-- Node10&#45;&gt;Node12 -->
<g id="edge12" class="edge">
<title>Node10&#45;&gt;Node12</title>
<path fill="none" stroke="#191970" d="M303.9636,-114.3095C290.5738,-105.6366 271.1274,-93.0407 255.7791,-83.0992"/>
<polygon fill="#191970" stroke="#191970" points="257.5886,-80.1011 247.2926,-77.6022 253.783,-85.9764 257.5886,-80.1011"/>
</g>
<!-- Node13 -->
<g id="node13" class="node">
<title>Node13</title>
<polygon fill="none" stroke="#bfbfbf" points="282.6962,-57.5 282.6962,-77.5 338.6962,-77.5 338.6962,-57.5 282.6962,-57.5"/>
<text text-anchor="middle" x="310.6962" y="-64.5" font-family="FreeSans" font-size="10.00" fill="#000000">sstream</text>
</g>
<!-- Node10&#45;&gt;Node13 -->
<g id="edge15" class="edge">
<title>Node10&#45;&gt;Node13</title>
<path fill="none" stroke="#191970" d="M318.0872,-114.3095C316.9225,-106.9335 315.3099,-96.72 313.888,-87.715"/>
<polygon fill="#191970" stroke="#191970" points="317.3082,-86.934 312.2913,-77.6022 310.3938,-88.0258 317.3082,-86.934"/>
</g>
<!-- Node14&#45;&gt;Node9 -->
<g id="edge18" class="edge">
<title>Node14&#45;&gt;Node9</title>
<path fill="none" stroke="#191970" d="M177.0454,-171.2708C178.1104,-142.9568 181.741,-65.1026 189.6962,-57 213.0852,-33.1776 434.8413,-18.0015 527.411,-12.6564"/>
<polygon fill="#191970" stroke="#191970" points="527.734,-16.1438 537.5194,-12.0823 527.337,-9.155 527.734,-16.1438"/>
</g>
<!-- Node15 -->
<g id="node15" class="node">
<title>Node15</title>
<polygon fill="none" stroke="#bfbfbf" points="117.1962,-114.5 117.1962,-134.5 168.1962,-134.5 168.1962,-114.5 117.1962,-114.5"/>
<text text-anchor="middle" x="142.6962" y="-121.5" font-family="FreeSans" font-size="10.00" fill="#000000">cstdint</text>
</g>
<!-- Node14&#45;&gt;Node15 -->
<g id="edge17" class="edge">
<title>Node14&#45;&gt;Node15</title>
<path fill="none" stroke="#191970" d="M170.6177,-171.3095C165.9762,-163.5282 159.4511,-152.589 153.8758,-143.2423"/>
<polygon fill="#191970" stroke="#191970" points="156.8508,-141.3975 148.7221,-134.6022 150.839,-144.9834 156.8508,-141.3975"/>
</g>
<!-- Node17&#45;&gt;Node6 -->
<g id="edge51" class="edge">
<title>Node17&#45;&gt;Node6</title>
<path fill="none" stroke="#191970" d="M759.0587,-285.4158C800.4113,-271.2185 870.2373,-241.3986 909.6962,-192 934.7985,-160.5744 946.6097,-113.9346 951.571,-87.5664"/>
<polygon fill="#191970" stroke="#191970" points="955.0374,-88.0612 953.2967,-77.6104 948.1402,-86.8657 955.0374,-88.0612"/>
</g>
<!-- Node17&#45;&gt;Node8 -->
<g id="edge50" class="edge">
<title>Node17&#45;&gt;Node8</title>
<path fill="none" stroke="#191970" d="M722.3013,-285.3153C713.0959,-257.6992 687.5353,-181.0174 675.3382,-144.426"/>
<polygon fill="#191970" stroke="#191970" points="678.6281,-143.2276 672.1454,-134.8476 671.9873,-145.4412 678.6281,-143.2276"/>
</g>
<!-- Node18 -->
<g id="node18" class="node">
<title>Node18</title>
<g id="a_node18"><a xlink:href="../../dd/d9b/PHDataNode_8h.html" target="_top" xlink:title="PHDataNode.h">
<polygon fill="none" stroke="#000000" points="811.1962,-171.5 811.1962,-191.5 900.1962,-191.5 900.1962,-171.5 811.1962,-171.5"/>
<text text-anchor="middle" x="855.6962" y="-178.5" font-family="FreeSans" font-size="10.00" fill="#000000">PHDataNode.h</text>
</a>
</g>
</g>
<!-- Node17&#45;&gt;Node18 -->
<g id="edge21" class="edge">
<title>Node17&#45;&gt;Node18</title>
<path fill="none" stroke="#191970" d="M743.8587,-285.4742C758.8001,-276.8009 780.1351,-263.4132 796.6962,-249 813.8082,-234.1074 830.5597,-214.2929 841.8145,-199.9883"/>
<polygon fill="#191970" stroke="#191970" points="844.7277,-201.9421 848.0659,-191.8869 839.1858,-197.6657 844.7277,-201.9421"/>
</g>
<!-- Node19 -->
<g id="node19" class="node">
<title>Node19</title>
<g id="a_node19"><a xlink:href="../../d3/d62/PHNode_8h.html" target="_top" xlink:title="PHNode.h">
<polygon fill="none" stroke="#000000" points="782.1962,-114.5 782.1962,-134.5 847.1962,-134.5 847.1962,-114.5 782.1962,-114.5"/>
<text text-anchor="middle" x="814.6962" y="-121.5" font-family="FreeSans" font-size="10.00" fill="#000000">PHNode.h</text>
</a>
</g>
</g>
<!-- Node17&#45;&gt;Node19 -->
<g id="edge48" class="edge">
<title>Node17&#45;&gt;Node19</title>
<path fill="none" stroke="#191970" d="M730.997,-285.3153C745.432,-257.5807 785.6237,-180.3583 804.5694,-143.9571"/>
<polygon fill="#191970" stroke="#191970" points="807.7984,-145.3339 809.3106,-134.8476 801.5891,-142.1021 807.7984,-145.3339"/>
</g>
<!-- Node21 -->
<g id="node21" class="node">
<title>Node21</title>
<g id="a_node21"><a xlink:href="../../d3/d79/PHIODataNode_8h.html" target="_top" xlink:title="PHIODataNode.h">
<polygon fill="none" stroke="#000000" points="983.6962,-228.5 983.6962,-248.5 1083.6962,-248.5 1083.6962,-228.5 983.6962,-228.5"/>
<text text-anchor="middle" x="1033.6962" y="-235.5" font-family="FreeSans" font-size="10.00" fill="#000000">PHIODataNode.h</text>
</a>
</g>
</g>
<!-- Node17&#45;&gt;Node21 -->
<g id="edge26" class="edge">
<title>Node17&#45;&gt;Node21</title>
<path fill="none" stroke="#191970" d="M775.8672,-286.2151C829.8977,-276.216 915.8452,-260.3101 973.4838,-249.6432"/>
<polygon fill="#191970" stroke="#191970" points="974.3506,-253.0423 983.5467,-247.7809 973.0767,-246.1592 974.3506,-253.0423"/>
</g>
<!-- Node28 -->
<g id="node28" class="node">
<title>Node28</title>
<g id="a_node28"><a xlink:href="../../d8/dfd/PHNodeIterator_8h.html" target="_top" xlink:title="PHNodeIterator.h">
<polygon fill="none" stroke="#000000" points="1332.6962,-114.5 1332.6962,-134.5 1434.6962,-134.5 1434.6962,-114.5 1332.6962,-114.5"/>
<text text-anchor="middle" x="1383.6962" y="-121.5" font-family="FreeSans" font-size="10.00" fill="#000000">PHNodeIterator.h</text>
</a>
</g>
</g>
<!-- Node17&#45;&gt;Node28 -->
<g id="edge49" class="edge">
<title>Node17&#45;&gt;Node28</title>
<path fill="none" stroke="#191970" d="M775.875,-286.3595C778.8568,-285.8817 781.8142,-285.4245 784.6962,-285 922.7457,-264.6667 1316.302,-299.1438 1405.6962,-192 1417.3357,-178.0495 1408.2768,-157.7847 1398.497,-143.1027"/>
<polygon fill="#191970" stroke="#191970" points="1401.1852,-140.8468 1392.4931,-134.7888 1395.5102,-144.945 1401.1852,-140.8468"/>
</g>
<!-- Node18&#45;&gt;Node9 -->
<g id="edge25" class="edge">
<title>Node18&#45;&gt;Node9</title>
<path fill="none" stroke="#191970" d="M858.8916,-171.3643C865.6766,-147.6196 878.5097,-88.06 847.6962,-57 814.8509,-23.8919 677.5021,-14.322 608.1433,-11.5826"/>
<polygon fill="#191970" stroke="#191970" points="608.1439,-8.0803 598.0226,-11.2124 607.888,-15.0756 608.1439,-8.0803"/>
</g>
<!-- Node18&#45;&gt;Node19 -->
<g id="edge22" class="edge">
<title>Node18&#45;&gt;Node19</title>
<path fill="none" stroke="#191970" d="M848.3662,-171.3095C842.7108,-163.4472 834.7364,-152.3608 827.9678,-142.9507"/>
<polygon fill="#191970" stroke="#191970" points="830.6434,-140.6765 821.9627,-134.6022 824.9607,-144.7641 830.6434,-140.6765"/>
</g>
<!-- Node19&#45;&gt;Node6 -->
<g id="edge24" class="edge">
<title>Node19&#45;&gt;Node6</title>
<path fill="none" stroke="#191970" d="M839.4031,-114.4408C862.5491,-105.017 897.2735,-90.8792 922.5638,-80.5825"/>
<polygon fill="#191970" stroke="#191970" points="924.1454,-83.7176 932.0873,-76.705 921.5057,-77.2343 924.1454,-83.7176"/>
</g>
<!-- Node20 -->
<g id="node20" class="node">
<title>Node20</title>
<polygon fill="none" stroke="#bfbfbf" points="790.6962,-57.5 790.6962,-77.5 838.6962,-77.5 838.6962,-57.5 790.6962,-57.5"/>
<text text-anchor="middle" x="814.6962" y="-64.5" font-family="FreeSans" font-size="10.00" fill="#000000">iosfwd</text>
</g>
<!-- Node19&#45;&gt;Node20 -->
<g id="edge23" class="edge">
<title>Node19&#45;&gt;Node20</title>
<path fill="none" stroke="#191970" d="M814.6962,-114.3095C814.6962,-106.9335 814.6962,-96.72 814.6962,-87.715"/>
<polygon fill="#191970" stroke="#191970" points="818.1963,-87.6022 814.6962,-77.6022 811.1963,-87.6023 818.1963,-87.6022"/>
</g>
<!-- Node21&#45;&gt;Node6 -->
<g id="edge47" class="edge">
<title>Node21&#45;&gt;Node6</title>
<path fill="none" stroke="#191970" d="M1037.797,-228.0982C1042.5047,-214.5422 1048.7274,-190.292 1041.6962,-171 1028.5685,-134.9805 996.7814,-102.7946 975.4863,-84.211"/>
<polygon fill="#191970" stroke="#191970" points="977.5207,-81.3473 967.6288,-77.5524 972.9951,-86.6877 977.5207,-81.3473"/>
</g>
<!-- Node21&#45;&gt;Node8 -->
<g id="edge46" class="edge">
<title>Node21&#45;&gt;Node8</title>
<path fill="none" stroke="#191970" d="M983.5581,-232.3611C936.0651,-225.6288 863.2088,-212.9055 802.6962,-192 763.0066,-178.2883 720.1681,-155.0799 693.8843,-139.7719"/>
<polygon fill="#191970" stroke="#191970" points="695.3775,-136.5891 684.9863,-134.5218 691.8202,-142.6179 695.3775,-136.5891"/>
</g>
<!-- Node21&#45;&gt;Node18 -->
<g id="edge27" class="edge">
<title>Node21&#45;&gt;Node18</title>
<path fill="none" stroke="#191970" d="M1002.2831,-228.4408C972.8874,-219.0275 928.8033,-204.9107 896.6576,-194.6169"/>
<polygon fill="#191970" stroke="#191970" points="897.6852,-191.2709 887.0941,-191.5544 895.5503,-197.9374 897.6852,-191.2709"/>
</g>
<!-- Node22 -->
<g id="node22" class="node">
<title>Node22</title>
<g id="a_node22"><a xlink:href="../../d9/d53/PHIOManager_8h.html" target="_top" xlink:title="PHIOManager.h">
<polygon fill="none" stroke="#000000" points="1183.1962,-114.5 1183.1962,-134.5 1276.1962,-134.5 1276.1962,-114.5 1183.1962,-114.5"/>
<text text-anchor="middle" x="1229.6962" y="-121.5" font-family="FreeSans" font-size="10.00" fill="#000000">PHIOManager.h</text>
</a>
</g>
</g>
<!-- Node21&#45;&gt;Node22 -->
<g id="edge28" class="edge">
<title>Node21&#45;&gt;Node22</title>
<path fill="none" stroke="#191970" d="M1083.8887,-231.9948C1131.9298,-224.7177 1199.6805,-211.354 1217.6962,-192 1229.3286,-179.5035 1231.6929,-159.8197 1231.5232,-144.926"/>
<polygon fill="#191970" stroke="#191970" points="1235.0054,-144.4816 1231.0109,-134.6687 1228.0142,-144.8308 1235.0054,-144.4816"/>
</g>
<!-- Node24 -->
<g id="node24" class="node">
<title>Node24</title>
<g id="a_node24"><a xlink:href="../../dd/de7/PHNodeIOManager_8h.html" target="_top" xlink:title="PHNodeIOManager.h">
<polygon fill="none" stroke="#000000" points="1088.6962,-171.5 1088.6962,-191.5 1208.6962,-191.5 1208.6962,-171.5 1088.6962,-171.5"/>
<text text-anchor="middle" x="1148.6962" y="-178.5" font-family="FreeSans" font-size="10.00" fill="#000000">PHNodeIOManager.h</text>
</a>
</g>
</g>
<!-- Node21&#45;&gt;Node24 -->
<g id="edge31" class="edge">
<title>Node21&#45;&gt;Node24</title>
<path fill="none" stroke="#191970" d="M1053.9912,-228.4408C1072.0267,-219.5014 1098.6204,-206.3202 1119.0392,-196.1996"/>
<polygon fill="#191970" stroke="#191970" points="1120.8118,-199.2273 1128.2173,-191.6504 1117.7031,-192.9555 1120.8118,-199.2273"/>
</g>
<!-- Node27 -->
<g id="node27" class="node">
<title>Node27</title>
<g id="a_node27"><a xlink:href="../../db/d17/PHTypedNodeIterator_8h.html" target="_top" xlink:title="PHTypedNodeIterator.h">
<polygon fill="none" stroke="#000000" points="1264.6962,-171.5 1264.6962,-191.5 1396.6962,-191.5 1396.6962,-171.5 1264.6962,-171.5"/>
<text text-anchor="middle" x="1330.6962" y="-178.5" font-family="FreeSans" font-size="10.00" fill="#000000">PHTypedNodeIterator.h</text>
</a>
</g>
</g>
<!-- Node21&#45;&gt;Node27 -->
<g id="edge38" class="edge">
<title>Node21&#45;&gt;Node27</title>
<path fill="none" stroke="#191970" d="M1083.7424,-228.8952C1134.6338,-219.1281 1213.6024,-203.9725 1268.4881,-193.4389"/>
<polygon fill="#191970" stroke="#191970" points="1269.2829,-196.8503 1278.444,-191.5282 1267.9635,-189.9758 1269.2829,-196.8503"/>
</g>
<!-- Node30 -->
<g id="node30" class="node">
<title>Node30</title>
<g id="a_node30"><a xlink:href="../../de/da7/phooldefs_8h.html" target="_top" xlink:title="phooldefs.h">
<polygon fill="none" stroke="#000000" points="957.1962,-171.5 957.1962,-191.5 1032.1962,-191.5 1032.1962,-171.5 957.1962,-171.5"/>
<text text-anchor="middle" x="994.6962" y="-178.5" font-family="FreeSans" font-size="10.00" fill="#000000">phooldefs.h</text>
</a>
</g>
</g>
<!-- Node21&#45;&gt;Node30 -->
<g id="edge44" class="edge">
<title>Node21&#45;&gt;Node30</title>
<path fill="none" stroke="#191970" d="M1026.7238,-228.3095C1021.3443,-220.4472 1013.7588,-209.3608 1007.3204,-199.9507"/>
<polygon fill="#191970" stroke="#191970" points="1010.1437,-197.8789 1001.6082,-191.6022 1004.3666,-201.8317 1010.1437,-197.8789"/>
</g>
<!-- Node22&#45;&gt;Node6 -->
<g id="edge30" class="edge">
<title>Node22&#45;&gt;Node6</title>
<path fill="none" stroke="#191970" d="M1183.0462,-114.8307C1127.3681,-103.2902 1035.7166,-84.2933 987.1881,-74.2347"/>
<polygon fill="#191970" stroke="#191970" points="987.7357,-70.7739 977.2334,-72.1714 986.3149,-77.6282 987.7357,-70.7739"/>
</g>
<!-- Node23 -->
<g id="node23" class="node">
<title>Node23</title>
<polygon fill="none" stroke="#bfbfbf" points="1202.6962,-57.5 1202.6962,-77.5 1256.6962,-77.5 1256.6962,-57.5 1202.6962,-57.5"/>
<text text-anchor="middle" x="1229.6962" y="-64.5" font-family="FreeSans" font-size="10.00" fill="#000000">cstddef</text>
</g>
<!-- Node22&#45;&gt;Node23 -->
<g id="edge29" class="edge">
<title>Node22&#45;&gt;Node23</title>
<path fill="none" stroke="#191970" d="M1229.6962,-114.3095C1229.6962,-106.9335 1229.6962,-96.72 1229.6962,-87.715"/>
<polygon fill="#191970" stroke="#191970" points="1233.1963,-87.6022 1229.6962,-77.6022 1226.1963,-87.6023 1233.1963,-87.6022"/>
</g>
<!-- Node24&#45;&gt;Node6 -->
<g id="edge37" class="edge">
<title>Node24&#45;&gt;Node6</title>
<path fill="none" stroke="#191970" d="M1136.1369,-171.3105C1118.5801,-157.3445 1085.3965,-131.947 1054.6962,-114 1032.8209,-101.212 1006.8377,-89.2186 986.8402,-80.6159"/>
<polygon fill="#191970" stroke="#191970" points="988.1212,-77.3575 977.5483,-76.6765 985.3889,-83.8022 988.1212,-77.3575"/>
</g>
<!-- Node24&#45;&gt;Node22 -->
<g id="edge32" class="edge">
<title>Node24&#45;&gt;Node22</title>
<path fill="none" stroke="#191970" d="M1163.1774,-171.3095C1175.3869,-162.7177 1193.0675,-150.2758 1207.1319,-140.3786"/>
<polygon fill="#191970" stroke="#191970" points="1209.1765,-143.2195 1215.3404,-134.6022 1205.1481,-137.4949 1209.1765,-143.2195"/>
</g>
<!-- Node24&#45;&gt;Node23 -->
<g id="edge35" class="edge">
<title>Node24&#45;&gt;Node23</title>
<path fill="none" stroke="#191970" d="M1150.973,-171.1209C1154.3998,-157.1606 1161.8845,-132.0102 1174.6962,-114 1183.0461,-102.262 1195.019,-91.6717 1205.6632,-83.5733"/>
<polygon fill="#191970" stroke="#191970" points="1207.7931,-86.352 1213.8201,-77.6384 1203.6747,-80.6917 1207.7931,-86.352"/>
</g>
<!-- Node25 -->
<g id="node25" class="node">
<title>Node25</title>
<g id="a_node25"><a xlink:href="../../d5/d6f/phool_8h.html" target="_top" xlink:title="phool.h">
<polygon fill="none" stroke="#000000" points="1042.6962,-57.5 1042.6962,-77.5 1096.6962,-77.5 1096.6962,-57.5 1042.6962,-57.5"/>
<text text-anchor="middle" x="1069.6962" y="-64.5" font-family="FreeSans" font-size="10.00" fill="#000000">phool.h</text>
</a>
</g>
</g>
<!-- Node24&#45;&gt;Node25 -->
<g id="edge33" class="edge">
<title>Node24&#45;&gt;Node25</title>
<path fill="none" stroke="#191970" d="M1141.6855,-171.3833C1128.4256,-152.2488 1099.4933,-110.4984 1082.6223,-86.1529"/>
<polygon fill="#191970" stroke="#191970" points="1085.3774,-83.9837 1076.8048,-77.7579 1079.6239,-87.9708 1085.3774,-83.9837"/>
</g>
<!-- Node26 -->
<g id="node26" class="node">
<title>Node26</title>
<polygon fill="none" stroke="#bfbfbf" points="725.1962,-114.5 725.1962,-134.5 764.1962,-134.5 764.1962,-114.5 725.1962,-114.5"/>
<text text-anchor="middle" x="744.6962" y="-121.5" font-family="FreeSans" font-size="10.00" fill="#000000">map</text>
</g>
<!-- Node24&#45;&gt;Node26 -->
<g id="edge36" class="edge">
<title>Node24&#45;&gt;Node26</title>
<path fill="none" stroke="#191970" d="M1088.4773,-175.6911C1002.3907,-167.1184 847.3995,-150.6215 774.6102,-134.6752"/>
<polygon fill="#191970" stroke="#191970" points="775.0173,-131.1769 764.4852,-132.3275 773.4361,-137.996 775.0173,-131.1769"/>
</g>
<!-- Node25&#45;&gt;Node9 -->
<g id="edge34" class="edge">
<title>Node25&#45;&gt;Node9</title>
<path fill="none" stroke="#191970" d="M1042.4198,-63.9426C1026.2323,-61.8581 1005.3022,-59.2092 986.6962,-57 847.9784,-40.5293 683.2004,-22.7709 608.3286,-14.8003"/>
<polygon fill="#191970" stroke="#191970" points="608.2621,-11.2736 597.9481,-13.6967 607.522,-18.2344 608.2621,-11.2736"/>
</g>
<!-- Node27&#45;&gt;Node23 -->
<g id="edge43" class="edge">
<title>Node27&#45;&gt;Node23</title>
<path fill="none" stroke="#191970" d="M1325.1178,-171.2419C1317.3308,-157.4189 1302.2803,-132.4233 1285.6962,-114 1275.6894,-102.8834 1262.9652,-92.1064 1252.1753,-83.7311"/>
<polygon fill="#191970" stroke="#191970" points="1254.1131,-80.8084 1244.0257,-77.5687 1249.891,-86.3918 1254.1131,-80.8084"/>
</g>
<!-- Node27&#45;&gt;Node28 -->
<g id="edge39" class="edge">
<title>Node27&#45;&gt;Node28</title>
<path fill="none" stroke="#191970" d="M1340.1715,-171.3095C1347.7083,-163.204 1358.431,-151.672 1367.3475,-142.0826"/>
<polygon fill="#191970" stroke="#191970" points="1370.0566,-144.3089 1374.3029,-134.6022 1364.9302,-139.5423 1370.0566,-144.3089"/>
</g>
<!-- Node28&#45;&gt;Node6 -->
<g id="edge42" class="edge">
<title>Node28&#45;&gt;Node6</title>
<path fill="none" stroke="#191970" d="M1332.3749,-117.6811C1243.1322,-105.8237 1061.7946,-81.7299 987.5303,-71.8626"/>
<polygon fill="#191970" stroke="#191970" points="987.7478,-68.3608 977.3739,-70.5131 986.8258,-75.2998 987.7478,-68.3608"/>
</g>
<!-- Node29 -->
<g id="node29" class="node">
<title>Node29</title>
<g id="a_node29"><a xlink:href="../../db/dd5/PHPointerList_8h.html" target="_top" xlink:title="PHPointerList.h">
<polygon fill="none" stroke="#000000" points="1305.6962,-57.5 1305.6962,-77.5 1397.6962,-77.5 1397.6962,-57.5 1305.6962,-57.5"/>
<text text-anchor="middle" x="1351.6962" y="-64.5" font-family="FreeSans" font-size="10.00" fill="#000000">PHPointerList.h</text>
</a>
</g>
</g>
<!-- Node28&#45;&gt;Node29 -->
<g id="edge40" class="edge">
<title>Node28&#45;&gt;Node29</title>
<path fill="none" stroke="#191970" d="M1377.9752,-114.3095C1373.6523,-106.6093 1367.5932,-95.8166 1362.3824,-86.5349"/>
<polygon fill="#191970" stroke="#191970" points="1365.315,-84.6087 1357.3676,-77.6022 1359.2111,-88.0355 1365.315,-84.6087"/>
</g>
<!-- Node29&#45;&gt;Node9 -->
<g id="edge41" class="edge">
<title>Node29&#45;&gt;Node9</title>
<path fill="none" stroke="#191970" d="M1305.3291,-61.3651C1292.5059,-59.7976 1278.5747,-58.2142 1265.6962,-57 1016.1589,-33.4726 715.3278,-17.6588 608.0792,-12.4121"/>
<polygon fill="#191970" stroke="#191970" points="608.1763,-8.9128 598.0181,-11.9232 607.8365,-15.9046 608.1763,-8.9128"/>
</g>
<!-- Node30&#45;&gt;Node6 -->
<g id="edge45" class="edge">
<title>Node30&#45;&gt;Node6</title>
<path fill="none" stroke="#191970" d="M991.1465,-171.3833C984.5509,-152.586 970.2972,-111.9627 961.6983,-87.4559"/>
<polygon fill="#191970" stroke="#191970" points="964.909,-86.0351 958.2955,-77.7579 958.3038,-88.3528 964.909,-86.0351"/>
</g>
<!-- Node31&#45;&gt;Node5 -->
<g id="edge55" class="edge">
<title>Node31&#45;&gt;Node5</title>
<path fill="none" stroke="#191970" d="M100.9912,-228.1703C93.2456,-204.5311 78.3697,-146.071 107.6962,-114 155.3904,-61.8423 353.6081,-87.1007 423.6962,-78 435.9042,-76.4148 449.2515,-74.5149 461.1015,-72.7696"/>
<polygon fill="#191970" stroke="#191970" points="461.6874,-76.2211 471.0634,-71.2875 460.6572,-69.2973 461.6874,-76.2211"/>
</g>
<!-- Node31&#45;&gt;Node7 -->
<g id="edge54" class="edge">
<title>Node31&#45;&gt;Node7</title>
<path fill="none" stroke="#191970" d="M170.8626,-229.439C233.5997,-220.7283 330.7624,-206.9302 424.5275,-192.1561"/>
<polygon fill="#191970" stroke="#191970" points="425.1374,-195.6033 434.4679,-190.5841 424.0439,-188.6892 425.1374,-195.6033"/>
</g>
<!-- Node31&#45;&gt;Node9 -->
<g id="edge57" class="edge">
<title>Node31&#45;&gt;Node9</title>
<path fill="none" stroke="#191970" d="M61.9649,-228.4717C27.8534,-218.1486 -11.8551,-199.5138 3.6962,-171 48.4992,-88.8523 92.6668,-88.7236 180.6962,-57 243.8727,-34.2327 441.7006,-18.8182 527.4216,-13.04"/>
<polygon fill="#191970" stroke="#191970" points="527.7987,-16.5228 537.5447,-12.3675 527.3346,-9.5382 527.7987,-16.5228"/>
</g>
<!-- Node31&#45;&gt;Node14 -->
<g id="edge53" class="edge">
<title>Node31&#45;&gt;Node14</title>
<path fill="none" stroke="#191970" d="M117.5684,-228.3095C128.2165,-219.8798 143.546,-207.7439 155.928,-197.9415"/>
<polygon fill="#191970" stroke="#191970" points="158.2675,-200.5535 163.9355,-191.6022 153.9225,-195.0651 158.2675,-200.5535"/>
</g>
<!-- Node32 -->
<g id="node32" class="node">
<title>Node32</title>
<polygon fill="none" stroke="#bfbfbf" points="12.6962,-171.5 12.6962,-191.5 60.6962,-191.5 60.6962,-171.5 12.6962,-171.5"/>
<text text-anchor="middle" x="36.6962" y="-178.5" font-family="FreeSans" font-size="10.00" fill="#000000">cmath</text>
</g>
<!-- Node31&#45;&gt;Node32 -->
<g id="edge56" class="edge">
<title>Node31&#45;&gt;Node32</title>
<path fill="none" stroke="#191970" d="M92.5392,-228.3095C82.5793,-219.9608 68.2827,-207.9769 56.6487,-198.2249"/>
<polygon fill="#191970" stroke="#191970" points="58.6601,-195.344 48.748,-191.6022 54.1633,-200.7086 58.6601,-195.344"/>
</g>
<!-- Node33&#45;&gt;Node7 -->
<g id="edge60" class="edge">
<title>Node33&#45;&gt;Node7</title>
<path fill="none" stroke="#191970" d="M538.4331,-228.3095C529.2951,-220.0419 516.217,-208.2093 505.4962,-198.5096"/>
<polygon fill="#191970" stroke="#191970" points="507.6254,-195.716 497.8618,-191.6022 502.929,-200.9068 507.6254,-195.716"/>
</g>
<!-- Node33&#45;&gt;Node9 -->
<g id="edge62" class="edge">
<title>Node33&#45;&gt;Node9</title>
<path fill="none" stroke="#191970" d="M550.4929,-228.4089C553.2396,-193.6164 562.3507,-78.2102 566.0817,-30.9501"/>
<polygon fill="#191970" stroke="#191970" points="569.5903,-30.9777 566.8883,-20.7332 562.6121,-30.4267 569.5903,-30.9777"/>
</g>
<!-- Node33&#45;&gt;Node14 -->
<g id="edge59" class="edge">
<title>Node33&#45;&gt;Node14</title>
<path fill="none" stroke="#191970" d="M483.8699,-228.4408C417.4272,-218.2873 315.174,-202.6615 247.1316,-192.2636"/>
<polygon fill="#191970" stroke="#191970" points="247.3467,-188.7559 236.9327,-190.705 246.2892,-195.6756 247.3467,-188.7559"/>
</g>
<!-- Node33&#45;&gt;Node26 -->
<g id="edge61" class="edge">
<title>Node33&#45;&gt;Node26</title>
<path fill="none" stroke="#191970" d="M574.5755,-228.4336C595.2023,-219.7362 625.0318,-206.3358 649.6962,-192 676.4245,-176.4646 705.0908,-155.4269 723.8592,-140.99"/>
<polygon fill="#191970" stroke="#191970" points="726.2362,-143.5754 731.9846,-134.6756 721.9409,-138.0482 726.2362,-143.5754"/>
</g>
<!-- Node34 -->
<g id="node34" class="node">
<title>Node34</title>
<polygon fill="none" stroke="#bfbfbf" points="595.1962,-171.5 595.1962,-191.5 640.1962,-191.5 640.1962,-171.5 595.1962,-171.5"/>
<text text-anchor="middle" x="617.6962" y="-178.5" font-family="FreeSans" font-size="10.00" fill="#000000">utility</text>
</g>
<!-- Node33&#45;&gt;Node34 -->
<g id="edge63" class="edge">
<title>Node33&#45;&gt;Node34</title>
<path fill="none" stroke="#191970" d="M561.8532,-228.3095C571.8131,-219.9608 586.1097,-207.9769 597.7437,-198.2249"/>
<polygon fill="#191970" stroke="#191970" points="600.2291,-200.7086 605.6444,-191.6022 595.7323,-195.344 600.2291,-200.7086"/>
</g>
</g>
</svg>
