<?xml version="1.0" encoding="UTF-8" standalone="no"?>
<!DOCTYPE svg PUBLIC "-//W3C//DTD SVG 1.1//EN"
 "http://www.w3.org/Graphics/SVG/1.1/DTD/svg11.dtd">
<!-- Generated by graphviz version 2.40.1 (20161225.0304)
 -->
<!-- Title: Acts::VolumeMaterialMapper::mapMaterialTrack Pages: 1 -->
<svg width="417pt" height="119pt"
 viewBox="0.00 0.00 417.00 119.00" xmlns="http://www.w3.org/2000/svg" xmlns:xlink="http://www.w3.org/1999/xlink">
<g id="graph0" class="graph" transform="scale(1 1) rotate(0) translate(4 115)">
<title>Acts::VolumeMaterialMapper::mapMaterialTrack</title>
<!-- Node1 -->
<g id="node1" class="node">
<title>Node1</title>
<polygon fill="#bfbfbf" stroke="#000000" points="0,-39.5 0,-71.5 163,-71.5 163,-39.5 0,-39.5"/>
<text text-anchor="start" x="8" y="-58.5" font-family="FreeSans" font-size="10.00" fill="#000000">Acts::VolumeMaterialMapper</text>
<text text-anchor="middle" x="81.5" y="-46.5" font-family="FreeSans" font-size="10.00" fill="#000000">::mapMaterialTrack</text>
</g>
<!-- Node2 -->
<g id="node2" class="node">
<title>Node2</title>
<g id="a_node2"><a xlink:href="../../da/d7b/namespaceActs.html#a9b4dee934b0b193d57604b19bc8cd527" target="_top" xlink:title="get default debug output logger">
<polygon fill="none" stroke="#000000" points="199,-90.5 199,-110.5 333,-110.5 333,-90.5 199,-90.5"/>
<text text-anchor="middle" x="266" y="-97.5" font-family="FreeSans" font-size="10.00" fill="#000000">Acts::getDefaultLogger</text>
</a>
</g>
</g>
<!-- Node1&#45;&gt;Node2 -->
<g id="edge1" class="edge">
<title>Node1&#45;&gt;Node2</title>
<path fill="none" stroke="#191970" d="M147.3273,-71.5555C169.561,-76.9783 194.0311,-82.9466 214.9459,-88.0478"/>
<polygon fill="#191970" stroke="#191970" points="214.3576,-91.5068 224.9022,-90.4761 216.0164,-84.7062 214.3576,-91.5068"/>
</g>
<!-- Node4 -->
<g id="node4" class="node">
<title>Node4</title>
<g id="a_node4"><a xlink:href="../../df/da1/namespaceActs_1_1VectorHelpers.html#aee596cee9f20711ff9548f38973c2e1b" target="_top" xlink:title="Construct a four&#45;vector from a three&#45;vector and scalar fourth component.">
<polygon fill="none" stroke="#000000" points="208,-39.5 208,-71.5 324,-71.5 324,-39.5 208,-39.5"/>
<text text-anchor="start" x="216" y="-58.5" font-family="FreeSans" font-size="10.00" fill="#000000">Acts::VectorHelpers</text>
<text text-anchor="middle" x="266" y="-46.5" font-family="FreeSans" font-size="10.00" fill="#000000">::makeVector4</text>
</a>
</g>
</g>
<!-- Node1&#45;&gt;Node4 -->
<g id="edge3" class="edge">
<title>Node1&#45;&gt;Node4</title>
<path fill="none" stroke="#191970" d="M163.2301,-55.5C174.7424,-55.5 186.4761,-55.5 197.7015,-55.5"/>
<polygon fill="#191970" stroke="#191970" points="197.8467,-59.0001 207.8466,-55.5 197.8466,-52.0001 197.8467,-59.0001"/>
</g>
<!-- Node5 -->
<g id="node5" class="node">
<title>Node5</title>
<g id="a_node5"><a xlink:href="../../dc/de5/PHG4mRICHDetector_8cc.html#a10e6010f5f8222befd1273192d72ddf5" target="_top" xlink:title="start">
<polygon fill="none" stroke="#000000" points="246,-.5 246,-20.5 286,-20.5 286,-.5 246,-.5"/>
<text text-anchor="middle" x="266" y="-7.5" font-family="FreeSans" font-size="10.00" fill="#000000">start</text>
</a>
</g>
</g>
<!-- Node1&#45;&gt;Node5 -->
<g id="edge4" class="edge">
<title>Node1&#45;&gt;Node5</title>
<path fill="none" stroke="#191970" d="M147.3273,-39.4445C177.6169,-32.0568 212.0571,-23.6568 236.0042,-17.8161"/>
<polygon fill="#191970" stroke="#191970" points="237.0127,-21.1728 245.8985,-15.4028 235.354,-14.3721 237.0127,-21.1728"/>
</g>
<!-- Node3 -->
<g id="node3" class="node">
<title>Node3</title>
<g id="a_node3"><a xlink:href="../../dd/d94/fun4all__tutorials_2blob_2master_2materialscan_2matscan_8C.html#a388f572c62279f839ee138a9afbdeeb5" target="_top" xlink:title="print">
<polygon fill="none" stroke="#000000" points="369,-90.5 369,-110.5 409,-110.5 409,-90.5 369,-90.5"/>
<text text-anchor="middle" x="389" y="-97.5" font-family="FreeSans" font-size="10.00" fill="#000000">print</text>
</a>
</g>
</g>
<!-- Node2&#45;&gt;Node3 -->
<g id="edge2" class="edge">
<title>Node2&#45;&gt;Node3</title>
<path fill="none" stroke="#191970" d="M333.2581,-100.5C342.2037,-100.5 350.9853,-100.5 358.837,-100.5"/>
<polygon fill="#191970" stroke="#191970" points="358.8956,-104.0001 368.8955,-100.5 358.8955,-97.0001 358.8956,-104.0001"/>
</g>
</g>
</svg>
