<?xml version="1.0" encoding="UTF-8" standalone="no"?>
<!DOCTYPE svg PUBLIC "-//W3C//DTD SVG 1.1//EN"
 "http://www.w3.org/Graphics/SVG/1.1/DTD/svg11.dtd">
<!-- Generated by graphviz version 2.40.1 (20161225.0304)
 -->
<!-- Title: PHG4Subsystem::GetSteppingAction Pages: 1 -->
<svg width="729pt" height="489pt"
 viewBox="0.00 0.00 729.00 489.00" xmlns="http://www.w3.org/2000/svg" xmlns:xlink="http://www.w3.org/1999/xlink">
<g id="graph0" class="graph" transform="scale(1 1) rotate(0) translate(4 485)">
<title>PHG4Subsystem::GetSteppingAction</title>
<!-- Node1 -->
<g id="node1" class="node">
<title>Node1</title>
<polygon fill="#bfbfbf" stroke="#000000" points="0,-111.5 0,-143.5 170,-143.5 170,-111.5 0,-111.5"/>
<text text-anchor="start" x="8" y="-130.5" font-family="FreeSans" font-size="10.00" fill="#000000">PHG4Subsystem::GetStepping</text>
<text text-anchor="middle" x="85" y="-118.5" font-family="FreeSans" font-size="10.00" fill="#000000">Action</text>
</g>
<!-- Node2 -->
<g id="node2" class="node">
<title>Node2</title>
<g id="a_node2"><a xlink:href="../../d0/d78/classPHG4Reco.html#a9d8228ce8682c19cd6be2f6b44ec847b" target="_top" xlink:title="PHG4Reco::InitRun">
<polygon fill="none" stroke="#000000" points="206,-117.5 206,-137.5 316,-137.5 316,-117.5 206,-117.5"/>
<text text-anchor="middle" x="261" y="-124.5" font-family="FreeSans" font-size="10.00" fill="#000000">PHG4Reco::InitRun</text>
</a>
</g>
</g>
<!-- Node1&#45;&gt;Node2 -->
<g id="edge1" class="edge">
<title>Node1&#45;&gt;Node2</title>
<path fill="none" stroke="#191970" d="M180.3777,-127.5C189.0575,-127.5 197.6409,-127.5 205.7869,-127.5"/>
<polygon fill="#191970" stroke="#191970" points="180.1645,-124.0001 170.1645,-127.5 180.1645,-131.0001 180.1645,-124.0001"/>
</g>
<!-- Node3 -->
<g id="node3" class="node">
<title>Node3</title>
<g id="a_node3"><a xlink:href="../../d6/db7/fun4all__eicmacros_2blob_2master_2detectors_2AllSilicon_2DisplayOn_8C.html#a8ac4d6fb78f920957b354f88d6195f54" target="_top" xlink:title="DisplayOn">
<polygon fill="none" stroke="#000000" points="394,-246.5 394,-266.5 462,-266.5 462,-246.5 394,-246.5"/>
<text text-anchor="middle" x="428" y="-253.5" font-family="FreeSans" font-size="10.00" fill="#000000">DisplayOn</text>
</a>
</g>
</g>
<!-- Node2&#45;&gt;Node3 -->
<g id="edge2" class="edge">
<title>Node2&#45;&gt;Node3</title>
<path fill="none" stroke="#191970" d="M271.3739,-146.3347C286.0288,-171.1298 315.1621,-214.2857 352,-237.5 364.4269,-245.3311 379.895,-249.9363 393.6265,-252.6437"/>
<polygon fill="#191970" stroke="#191970" points="274.3302,-144.4541 266.3191,-137.5207 268.2579,-147.9366 274.3302,-144.4541"/>
</g>
<!-- Node16 -->
<g id="node16" class="node">
<title>Node16</title>
<g id="a_node16"><a xlink:href="../../d5/df2/Fun4All__EIC__Generator__Display_8C.html#a276181099936efe81415286b29f36e51" target="_top" xlink:title="Fun4All_EIC_Generator\l_Display">
<polygon fill="none" stroke="#000000" points="362,-195.5 362,-227.5 494,-227.5 494,-195.5 362,-195.5"/>
<text text-anchor="start" x="370" y="-214.5" font-family="FreeSans" font-size="10.00" fill="#000000">Fun4All_EIC_Generator</text>
<text text-anchor="middle" x="428" y="-202.5" font-family="FreeSans" font-size="10.00" fill="#000000">_Display</text>
</a>
</g>
</g>
<!-- Node2&#45;&gt;Node16 -->
<g id="edge15" class="edge">
<title>Node2&#45;&gt;Node16</title>
<path fill="none" stroke="#191970" d="M282.7494,-143.8954C300.6214,-156.7913 326.9811,-174.5221 352,-186.5 358.7652,-189.7389 366.058,-192.7237 373.3547,-195.4176"/>
<polygon fill="#191970" stroke="#191970" points="284.3634,-140.7389 274.2293,-137.6486 280.2244,-146.3841 284.3634,-140.7389"/>
</g>
<!-- Node17 -->
<g id="node17" class="node">
<title>Node17</title>
<g id="a_node17"><a xlink:href="../../d3/d42/Fun4All__G4__QtDisplay_8C.html#a7fc9d96420ef1de5f1fc43a1657ac8bf" target="_top" xlink:title="Fun4All_G4_QtDisplay">
<polygon fill="none" stroke="#000000" points="364.5,-156.5 364.5,-176.5 491.5,-176.5 491.5,-156.5 364.5,-156.5"/>
<text text-anchor="middle" x="428" y="-163.5" font-family="FreeSans" font-size="10.00" fill="#000000">Fun4All_G4_QtDisplay</text>
</a>
</g>
</g>
<!-- Node2&#45;&gt;Node17 -->
<g id="edge16" class="edge">
<title>Node2&#45;&gt;Node17</title>
<path fill="none" stroke="#191970" d="M313.9386,-139.8629C336.9013,-145.2254 363.4411,-151.4234 385.1391,-156.4906"/>
<polygon fill="#191970" stroke="#191970" points="314.5406,-136.4094 304.0066,-137.5435 312.9487,-143.226 314.5406,-136.4094"/>
</g>
<!-- Node18 -->
<g id="node18" class="node">
<title>Node18</title>
<g id="a_node18"><a xlink:href="../../d7/da9/Fun4All__G4__Tracking_8C.html#acaee55add6a4a54eb182c6120db9649a" target="_top" xlink:title="Fun4All_G4_Tracking">
<polygon fill="none" stroke="#000000" points="368,-117.5 368,-137.5 488,-137.5 488,-117.5 368,-117.5"/>
<text text-anchor="middle" x="428" y="-124.5" font-family="FreeSans" font-size="10.00" fill="#000000">Fun4All_G4_Tracking</text>
</a>
</g>
</g>
<!-- Node2&#45;&gt;Node18 -->
<g id="edge17" class="edge">
<title>Node2&#45;&gt;Node18</title>
<path fill="none" stroke="#191970" d="M326.4012,-127.5C340.0188,-127.5 354.3111,-127.5 367.7331,-127.5"/>
<polygon fill="#191970" stroke="#191970" points="326.1449,-124.0001 316.1449,-127.5 326.1448,-131.0001 326.1449,-124.0001"/>
</g>
<!-- Node19 -->
<g id="node19" class="node">
<title>Node19</title>
<g id="a_node19"><a xlink:href="../../d4/dfa/Fun4All__Generator__Display_8C.html#af87924a94b22e18901f0d64805565f09" target="_top" xlink:title="Fun4All_Generator_Display">
<polygon fill="none" stroke="#000000" points="352,-78.5 352,-98.5 504,-98.5 504,-78.5 352,-78.5"/>
<text text-anchor="middle" x="428" y="-85.5" font-family="FreeSans" font-size="10.00" fill="#000000">Fun4All_Generator_Display</text>
</a>
</g>
</g>
<!-- Node2&#45;&gt;Node19 -->
<g id="edge18" class="edge">
<title>Node2&#45;&gt;Node19</title>
<path fill="none" stroke="#191970" d="M313.9386,-115.1371C336.9013,-109.7746 363.4411,-103.5766 385.1391,-98.5094"/>
<polygon fill="#191970" stroke="#191970" points="312.9487,-111.774 304.0066,-117.4565 314.5406,-118.5906 312.9487,-111.774"/>
</g>
<!-- Node20 -->
<g id="node20" class="node">
<title>Node20</title>
<g id="a_node20"><a xlink:href="../../dd/d94/fun4all__tutorials_2blob_2master_2materialscan_2matscan_8C.html#a98ccbc6135fead542f3c4d1dd6882d63" target="_top" xlink:title="matscan">
<polygon fill="none" stroke="#000000" points="398.5,-39.5 398.5,-59.5 457.5,-59.5 457.5,-39.5 398.5,-39.5"/>
<text text-anchor="middle" x="428" y="-46.5" font-family="FreeSans" font-size="10.00" fill="#000000">matscan</text>
</a>
</g>
</g>
<!-- Node2&#45;&gt;Node20 -->
<g id="edge19" class="edge">
<title>Node2&#45;&gt;Node20</title>
<path fill="none" stroke="#191970" d="M282.2972,-111.2201C300.09,-98.3028 326.5675,-80.6258 352,-69.5 366.7499,-63.0474 384.0494,-58.2941 398.4144,-55.0444"/>
<polygon fill="#191970" stroke="#191970" points="279.7925,-108.7195 273.8359,-117.4813 283.9564,-114.3464 279.7925,-108.7195"/>
</g>
<!-- Node21 -->
<g id="node21" class="node">
<title>Node21</title>
<g id="a_node21"><a xlink:href="../../d6/db7/fun4all__eicmacros_2blob_2master_2detectors_2AllSilicon_2DisplayOn_8C.html#a36f5cc4ebb7cd23dac7e492d5c38fbc0" target="_top" xlink:title="QTGui">
<polygon fill="none" stroke="#000000" points="404.5,-.5 404.5,-20.5 451.5,-20.5 451.5,-.5 404.5,-.5"/>
<text text-anchor="middle" x="428" y="-7.5" font-family="FreeSans" font-size="10.00" fill="#000000">QTGui</text>
</a>
</g>
</g>
<!-- Node2&#45;&gt;Node21 -->
<g id="edge20" class="edge">
<title>Node2&#45;&gt;Node21</title>
<path fill="none" stroke="#191970" d="M273.5613,-108.7193C289.2987,-86.6677 318.3265,-50.5621 352,-30.5 368.0579,-20.933 388.6946,-15.8778 404.4106,-13.2453"/>
<polygon fill="#191970" stroke="#191970" points="270.4857,-107.012 267.6555,-117.2218 276.2349,-111.0053 270.4857,-107.012"/>
</g>
<!-- Node4 -->
<g id="node4" class="node">
<title>Node4</title>
<g id="a_node4"><a xlink:href="../../db/dc0/Fun4All__AnaTutorial_8C.html#aeb927fc74810ef9bc0c056302f1fbe69" target="_top" xlink:title="Fun4All_AnaTutorial">
<polygon fill="none" stroke="#000000" points="573,-460.5 573,-480.5 688,-480.5 688,-460.5 573,-460.5"/>
<text text-anchor="middle" x="630.5" y="-467.5" font-family="FreeSans" font-size="10.00" fill="#000000">Fun4All_AnaTutorial</text>
</a>
</g>
</g>
<!-- Node3&#45;&gt;Node4 -->
<g id="edge3" class="edge">
<title>Node3&#45;&gt;Node4</title>
<path fill="none" stroke="#191970" d="M433.3654,-276.1865C445.3174,-316.0899 478.0796,-406.5242 540,-451.5 549.6122,-458.4818 561.2292,-463.0148 572.8889,-465.9314"/>
<polygon fill="#191970" stroke="#191970" points="436.7242,-275.202 430.5963,-266.5592 429.9969,-277.137 436.7242,-275.202"/>
</g>
<!-- Node5 -->
<g id="node5" class="node">
<title>Node5</title>
<g id="a_node5"><a xlink:href="../../dd/d28/Fun4All__AnaTutorial__Jets_8C.html#a49f0c60dbca7146b42abc2eedf173722" target="_top" xlink:title="Fun4All_AnaTutorial_Jets">
<polygon fill="none" stroke="#000000" points="561,-421.5 561,-441.5 700,-441.5 700,-421.5 561,-421.5"/>
<text text-anchor="middle" x="630.5" y="-428.5" font-family="FreeSans" font-size="10.00" fill="#000000">Fun4All_AnaTutorial_Jets</text>
</a>
</g>
</g>
<!-- Node3&#45;&gt;Node5 -->
<g id="edge4" class="edge">
<title>Node3&#45;&gt;Node5</title>
<path fill="none" stroke="#191970" d="M436.2715,-276.161C451.5092,-309.8259 487.346,-378.1882 540,-412.5 546.3217,-416.6195 553.3727,-419.8669 560.672,-422.4234"/>
<polygon fill="#191970" stroke="#191970" points="439.4322,-274.6534 432.2081,-266.9033 433.0224,-277.4668 439.4322,-274.6534"/>
</g>
<!-- Node6 -->
<g id="node6" class="node">
<title>Node6</title>
<g id="a_node6"><a xlink:href="../../d8/d14/Fun4All__G4__Babar_8C.html#ae3babc7f493f8a671f129ef3084ebc23" target="_top" xlink:title="Fun4All_G4_Babar">
<polygon fill="none" stroke="#000000" points="576,-382.5 576,-402.5 685,-402.5 685,-382.5 576,-382.5"/>
<text text-anchor="middle" x="630.5" y="-389.5" font-family="FreeSans" font-size="10.00" fill="#000000">Fun4All_G4_Babar</text>
</a>
</g>
</g>
<!-- Node3&#45;&gt;Node6 -->
<g id="edge5" class="edge">
<title>Node3&#45;&gt;Node6</title>
<path fill="none" stroke="#191970" d="M440.1145,-274.9009C458.4411,-301.1686 495.8037,-348.9473 540,-373.5 550.9466,-379.5812 563.6242,-383.7206 575.9616,-386.5368"/>
<polygon fill="#191970" stroke="#191970" points="442.9688,-272.8741 434.4461,-266.5801 437.1837,-276.8152 442.9688,-272.8741"/>
</g>
<!-- Node7 -->
<g id="node7" class="node">
<title>Node7</title>
<g id="a_node7"><a xlink:href="../../df/d9d/fun4all__eicmacros_2blob_2master_2detectors_2Beast_2Fun4All__G4__Beast_8C.html#aa12a55b170fc12d7549cea7cc497eb38" target="_top" xlink:title="Fun4All_G4_Beast">
<polygon fill="none" stroke="#000000" points="577,-343.5 577,-363.5 684,-363.5 684,-343.5 577,-343.5"/>
<text text-anchor="middle" x="630.5" y="-350.5" font-family="FreeSans" font-size="10.00" fill="#000000">Fun4All_G4_Beast</text>
</a>
</g>
</g>
<!-- Node3&#45;&gt;Node7 -->
<g id="edge6" class="edge">
<title>Node3&#45;&gt;Node7</title>
<path fill="none" stroke="#191970" d="M446.7557,-273.1574C467.9172,-291.0489 504.0877,-318.9924 540,-334.5 551.4963,-339.4643 564.3886,-343.1674 576.7589,-345.9169"/>
<polygon fill="#191970" stroke="#191970" points="449.0197,-270.4882 439.1576,-266.6165 444.4527,-275.7932 449.0197,-270.4882"/>
</g>
<!-- Node8 -->
<g id="node8" class="node">
<title>Node8</title>
<g id="a_node8"><a xlink:href="../../de/dcc/Fun4All__G4__Cleo_8C.html#ae4d584d6f7864ddc358a5cb1bf03bfa5" target="_top" xlink:title="Fun4All_G4_Cleo">
<polygon fill="none" stroke="#000000" points="580.5,-304.5 580.5,-324.5 680.5,-324.5 680.5,-304.5 580.5,-304.5"/>
<text text-anchor="middle" x="630.5" y="-311.5" font-family="FreeSans" font-size="10.00" fill="#000000">Fun4All_G4_Cleo</text>
</a>
</g>
</g>
<!-- Node3&#45;&gt;Node8 -->
<g id="edge7" class="edge">
<title>Node3&#45;&gt;Node8</title>
<path fill="none" stroke="#191970" d="M463.471,-270.1601C485.3173,-278.2446 514.023,-288.2824 540,-295.5 552.9934,-299.1102 567.2037,-302.3968 580.4333,-305.1836"/>
<polygon fill="#191970" stroke="#191970" points="464.5431,-266.8243 453.9506,-266.6002 462.0914,-273.381 464.5431,-266.8243"/>
</g>
<!-- Node9 -->
<g id="node9" class="node">
<title>Node9</title>
<g id="a_node9"><a xlink:href="../../d4/d91/fun4all__macros_2blob_2master_2detectors_2EICDetector_2Fun4All__G4__EICDetector_8C.html#add9dee08cdb08b59c0b3870bb04994d9" target="_top" xlink:title="Fun4All_G4_EICDetector">
<polygon fill="none" stroke="#000000" points="561,-265.5 561,-285.5 700,-285.5 700,-265.5 561,-265.5"/>
<text text-anchor="middle" x="630.5" y="-272.5" font-family="FreeSans" font-size="10.00" fill="#000000">Fun4All_G4_EICDetector</text>
</a>
</g>
</g>
<!-- Node3&#45;&gt;Node9 -->
<g id="edge8" class="edge">
<title>Node3&#45;&gt;Node9</title>
<path fill="none" stroke="#191970" d="M472.5786,-260.6827C498.3908,-263.1046 531.4516,-266.2066 560.6471,-268.9459"/>
<polygon fill="#191970" stroke="#191970" points="472.6346,-257.1727 462.3514,-259.7231 471.9806,-264.142 472.6346,-257.1727"/>
</g>
<!-- Node10 -->
<g id="node10" class="node">
<title>Node10</title>
<g id="a_node10"><a xlink:href="../../d7/d9e/Fun4All__G4__fsPHENIX_8C.html#a75e8ef26e92f882a865536a3e16244c5" target="_top" xlink:title="Fun4All_G4_fsPHENIX">
<polygon fill="none" stroke="#000000" points="568.5,-226.5 568.5,-246.5 692.5,-246.5 692.5,-226.5 568.5,-226.5"/>
<text text-anchor="middle" x="630.5" y="-233.5" font-family="FreeSans" font-size="10.00" fill="#000000">Fun4All_G4_fsPHENIX</text>
</a>
</g>
</g>
<!-- Node3&#45;&gt;Node10 -->
<g id="edge9" class="edge">
<title>Node3&#45;&gt;Node10</title>
<path fill="none" stroke="#191970" d="M472.3156,-252.1231C500.5061,-249.3389 537.4208,-245.693 568.4986,-242.6236"/>
<polygon fill="#191970" stroke="#191970" points="471.9589,-248.6413 462.3514,-253.1073 472.647,-255.6074 471.9589,-248.6413"/>
</g>
<!-- Node11 -->
<g id="node11" class="node">
<title>Node11</title>
<g id="a_node11"><a xlink:href="../../d5/d97/Fun4All__G4__FullDetectorModular_8C.html#a3718da6a9c8edc72f231ee413c514dad" target="_top" xlink:title="Fun4All_G4_FullDetectorModular">
<polygon fill="none" stroke="#000000" points="540,-187.5 540,-207.5 721,-207.5 721,-187.5 540,-187.5"/>
<text text-anchor="middle" x="630.5" y="-194.5" font-family="FreeSans" font-size="10.00" fill="#000000">Fun4All_G4_FullDetectorModular</text>
</a>
</g>
</g>
<!-- Node3&#45;&gt;Node11 -->
<g id="edge10" class="edge">
<title>Node3&#45;&gt;Node11</title>
<path fill="none" stroke="#191970" d="M472.1945,-247.5286C482.7834,-244.8135 493.9342,-241.4742 504,-237.5 521.0244,-230.7783 522.8848,-223.9872 540,-217.5 550.5324,-213.5079 562.0715,-210.2036 573.2791,-207.5095"/>
<polygon fill="#191970" stroke="#191970" points="471.1588,-244.1783 462.2682,-249.9408 472.8119,-250.9804 471.1588,-244.1783"/>
</g>
<!-- Node12 -->
<g id="node12" class="node">
<title>Node12</title>
<g id="a_node12"><a xlink:href="../../d0/dce/Fun4All__G4__FullDetectorModularBeast_8C.html#a0f10ba4ce157df87369cfd776fc132d3" target="_top" xlink:title="Fun4All_G4_FullDetectorModular\lBeast">
<polygon fill="none" stroke="#000000" points="540,-136.5 540,-168.5 721,-168.5 721,-136.5 540,-136.5"/>
<text text-anchor="start" x="548" y="-155.5" font-family="FreeSans" font-size="10.00" fill="#000000">Fun4All_G4_FullDetectorModular</text>
<text text-anchor="middle" x="630.5" y="-143.5" font-family="FreeSans" font-size="10.00" fill="#000000">Beast</text>
</a>
</g>
</g>
<!-- Node3&#45;&gt;Node12 -->
<g id="edge11" class="edge">
<title>Node3&#45;&gt;Node12</title>
<path fill="none" stroke="#191970" d="M472.2701,-251.4808C483.3896,-248.6617 494.7715,-244.2847 504,-237.5 528.7493,-219.3045 515.5708,-197.1231 540,-178.5 545.0702,-174.6348 550.696,-171.3439 556.5903,-168.542"/>
<polygon fill="#191970" stroke="#191970" points="471.2366,-248.1233 462.2013,-253.6563 472.7149,-254.9654 471.2366,-248.1233"/>
</g>
<!-- Node13 -->
<g id="node13" class="node">
<title>Node13</title>
<g id="a_node13"><a xlink:href="../../d0/d87/Fun4All__G4__JLeic_8C.html#a7a87d035cddeb1ed64bf376560381994" target="_top" xlink:title="Fun4All_G4_JLeic">
<polygon fill="none" stroke="#000000" points="580,-97.5 580,-117.5 681,-117.5 681,-97.5 580,-97.5"/>
<text text-anchor="middle" x="630.5" y="-104.5" font-family="FreeSans" font-size="10.00" fill="#000000">Fun4All_G4_JLeic</text>
</a>
</g>
</g>
<!-- Node3&#45;&gt;Node13 -->
<g id="edge12" class="edge">
<title>Node3&#45;&gt;Node13</title>
<path fill="none" stroke="#191970" d="M472.1538,-253.1719C483.6831,-250.3841 495.3006,-245.6002 504,-237.5 541.6474,-202.4458 501.8745,-162.0336 540,-127.5 550.8526,-117.6699 565.425,-112.3012 579.7015,-109.4643"/>
<polygon fill="#191970" stroke="#191970" points="471.259,-249.7807 462.1203,-255.1413 472.6073,-256.6497 471.259,-249.7807"/>
</g>
<!-- Node14 -->
<g id="node14" class="node">
<title>Node14</title>
<g id="a_node14"><a xlink:href="../../d9/d73/fun4all__macros_2blob_2master_2detectors_2sPHENIX_2Fun4All__G4__sPHENIX_8C.html#a4102cd3e195333de974409428a2e6dae" target="_top" xlink:title="Fun4All_G4_sPHENIX">
<polygon fill="none" stroke="#000000" points="570,-58.5 570,-78.5 691,-78.5 691,-58.5 570,-58.5"/>
<text text-anchor="middle" x="630.5" y="-65.5" font-family="FreeSans" font-size="10.00" fill="#000000">Fun4All_G4_sPHENIX</text>
</a>
</g>
</g>
<!-- Node3&#45;&gt;Node14 -->
<g id="edge13" class="edge">
<title>Node3&#45;&gt;Node14</title>
<path fill="none" stroke="#191970" d="M472.2738,-253.6853C483.9105,-250.9158 495.5541,-246.013 504,-237.5 551.9826,-189.1363 491.3574,-136.1999 540,-88.5 548.157,-80.5011 558.7507,-75.4006 569.8019,-72.2062"/>
<polygon fill="#191970" stroke="#191970" points="471.3037,-250.3068 462.13,-255.6072 472.6068,-257.1844 471.3037,-250.3068"/>
</g>
<!-- Node15 -->
<g id="node15" class="node">
<title>Node15</title>
<g id="a_node15"><a xlink:href="../../d3/d2b/Fun4All__G4__sPHENIX__particle__gen_8C.html#a381adc702b7bfb99356660cdb6407e70" target="_top" xlink:title="Fun4All_G4_sPHENIX\l_particle_gen">
<polygon fill="none" stroke="#000000" points="570,-7.5 570,-39.5 691,-39.5 691,-7.5 570,-7.5"/>
<text text-anchor="start" x="578" y="-26.5" font-family="FreeSans" font-size="10.00" fill="#000000">Fun4All_G4_sPHENIX</text>
<text text-anchor="middle" x="630.5" y="-14.5" font-family="FreeSans" font-size="10.00" fill="#000000">_particle_gen</text>
</a>
</g>
</g>
<!-- Node3&#45;&gt;Node15 -->
<g id="edge14" class="edge">
<title>Node3&#45;&gt;Node15</title>
<path fill="none" stroke="#191970" d="M472.5397,-253.9428C484.1808,-251.1776 495.7603,-246.2127 504,-237.5 562.4553,-175.6897 482.6284,-112.3174 540,-49.5 547.9375,-40.8091 558.5688,-34.9502 569.7508,-31.0177"/>
<polygon fill="#191970" stroke="#191970" points="471.5612,-250.5651 462.376,-255.8455 472.8494,-257.4455 471.5612,-250.5651"/>
</g>
</g>
</svg>
