<?xml version="1.0" encoding="UTF-8" standalone="no"?>
<!DOCTYPE svg PUBLIC "-//W3C//DTD SVG 1.1//EN"
 "http://www.w3.org/Graphics/SVG/1.1/DTD/svg11.dtd">
<!-- Generated by graphviz version 2.40.1 (20161225.0304)
 -->
<!-- Title: EtmDetector::stretch Pages: 1 -->
<svg width="454pt" height="68pt"
 viewBox="0.00 0.00 454.00 68.00" xmlns="http://www.w3.org/2000/svg" xmlns:xlink="http://www.w3.org/1999/xlink">
<g id="graph0" class="graph" transform="scale(1 1) rotate(0) translate(4 64)">
<title>EtmDetector::stretch</title>
<!-- Node1 -->
<g id="node1" class="node">
<title>Node1</title>
<polygon fill="#bfbfbf" stroke="#000000" points="0,-19.5 0,-39.5 121,-39.5 121,-19.5 0,-19.5"/>
<text text-anchor="middle" x="60.5" y="-26.5" font-family="FreeSans" font-size="10.00" fill="#000000">EtmDetector::stretch</text>
</g>
<!-- Node2 -->
<g id="node2" class="node">
<title>Node2</title>
<g id="a_node2"><a xlink:href="../../dc/d44/classEtmDetectorStack.html#a22fe6cb251a1172c28d6088c95a519f2" target="_top" xlink:title="EtmDetectorStack::get">
<polygon fill="none" stroke="#000000" points="314,-39.5 314,-59.5 446,-59.5 446,-39.5 314,-39.5"/>
<text text-anchor="middle" x="380" y="-46.5" font-family="FreeSans" font-size="10.00" fill="#000000">EtmDetectorStack::get</text>
</a>
</g>
</g>
<!-- Node1&#45;&gt;Node2 -->
<g id="edge1" class="edge">
<title>Node1&#45;&gt;Node2</title>
<path fill="none" stroke="#191970" d="M121.3475,-33.3089C173.1631,-36.5525 247.8654,-41.2287 303.6799,-44.7225"/>
<polygon fill="#191970" stroke="#191970" points="303.6729,-48.2289 313.8721,-45.3605 304.1103,-41.2425 303.6729,-48.2289"/>
</g>
<!-- Node3 -->
<g id="node3" class="node">
<title>Node3</title>
<g id="a_node3"><a xlink:href="../../d9/d8e/classEtmDetector.html#a73b6ff6949581434f0bb120fbfefd5ff" target="_top" xlink:title="EtmDetector::stretch">
<polygon fill="none" stroke="#000000" points="157,-.5 157,-20.5 278,-20.5 278,-.5 157,-.5"/>
<text text-anchor="middle" x="217.5" y="-7.5" font-family="FreeSans" font-size="10.00" fill="#000000">EtmDetector::stretch</text>
</a>
</g>
</g>
<!-- Node1&#45;&gt;Node3 -->
<g id="edge2" class="edge">
<title>Node1&#45;&gt;Node3</title>
<path fill="none" stroke="#191970" d="M121.2003,-22.1541C129.635,-21.1333 138.3591,-20.0776 146.9547,-19.0373"/>
<polygon fill="#191970" stroke="#191970" points="147.4541,-22.5025 156.9611,-17.8264 146.613,-15.5532 147.4541,-22.5025"/>
</g>
<!-- Node3&#45;&gt;Node2 -->
<g id="edge3" class="edge">
<title>Node3&#45;&gt;Node2</title>
<path fill="none" stroke="#191970" d="M259.3478,-20.5435C280.3874,-25.593 306.078,-31.7587 328.3373,-37.1009"/>
<polygon fill="#191970" stroke="#191970" points="327.7533,-40.5601 338.294,-39.4906 329.387,-33.7534 327.7533,-40.5601"/>
</g>
<!-- Node4 -->
<g id="node4" class="node">
<title>Node4</title>
<g id="a_node4"><a xlink:href="../../d8/d51/classEicToyModel.html#a61ecd25a6efac0b8cb31d2f26beee08a" target="_top" xlink:title="EicToyModel::Instance">
<polygon fill="none" stroke="#000000" points="316,-.5 316,-20.5 444,-20.5 444,-.5 316,-.5"/>
<text text-anchor="middle" x="380" y="-7.5" font-family="FreeSans" font-size="10.00" fill="#000000">EicToyModel::Instance</text>
</a>
</g>
</g>
<!-- Node3&#45;&gt;Node4 -->
<g id="edge4" class="edge">
<title>Node3&#45;&gt;Node4</title>
<path fill="none" stroke="#191970" d="M278.009,-10.5C287.0876,-10.5 296.5365,-10.5 305.8596,-10.5"/>
<polygon fill="#191970" stroke="#191970" points="305.9033,-14.0001 315.9033,-10.5 305.9032,-7.0001 305.9033,-14.0001"/>
</g>
</g>
</svg>
