<?xml version="1.0" encoding="UTF-8" standalone="no"?>
<!DOCTYPE svg PUBLIC "-//W3C//DTD SVG 1.1//EN"
 "http://www.w3.org/Graphics/SVG/1.1/DTD/svg11.dtd">
<!-- Generated by graphviz version 2.40.1 (20161225.0304)
 -->
<!-- Title: PHActsVertexPropagator::updateSvtxTrack Pages: 1 -->
<svg width="606pt" height="730pt"
 viewBox="0.00 0.00 606.00 730.19" xmlns="http://www.w3.org/2000/svg" xmlns:xlink="http://www.w3.org/1999/xlink">
<g id="graph0" class="graph" transform="scale(1 1) rotate(0) translate(4 726.1932)">
<title>PHActsVertexPropagator::updateSvtxTrack</title>
<!-- Node1 -->
<g id="node1" class="node">
<title>Node1</title>
<polygon fill="#bfbfbf" stroke="#000000" points="0,-297.5 0,-329.5 140,-329.5 140,-297.5 0,-297.5"/>
<text text-anchor="start" x="8" y="-316.5" font-family="FreeSans" font-size="10.00" fill="#000000">PHActsVertexPropagator</text>
<text text-anchor="middle" x="70" y="-304.5" font-family="FreeSans" font-size="10.00" fill="#000000">::updateSvtxTrack</text>
</g>
<!-- Node2 -->
<g id="node2" class="node">
<title>Node2</title>
<g id="a_node2"><a xlink:href="../../d5/dbb/classActs_1_1SingleBoundTrackParameters.html#acfcdb25cfabf88e03315e569e6d4ece4" target="_top" xlink:title="Optional covariance matrix.">
<polygon fill="none" stroke="#000000" points="405,-682.5 405,-714.5 598,-714.5 598,-682.5 405,-682.5"/>
<text text-anchor="start" x="413" y="-701.5" font-family="FreeSans" font-size="10.00" fill="#000000">Acts::SingleBoundTrackParameters</text>
<text text-anchor="middle" x="501.5" y="-689.5" font-family="FreeSans" font-size="10.00" fill="#000000">::covariance</text>
</a>
</g>
</g>
<!-- Node1&#45;&gt;Node2 -->
<g id="edge1" class="edge">
<title>Node1&#45;&gt;Node2</title>
<path fill="none" stroke="#191970" d="M72.329,-329.7409C81.8762,-393.8857 120.1709,-628.3024 176,-673.5 243.6307,-728.2518 347.2135,-726.3235 419.3015,-716.0074"/>
<polygon fill="#191970" stroke="#191970" points="419.8935,-719.4577 429.2574,-714.5011 418.8463,-712.5365 419.8935,-719.4577"/>
</g>
<!-- Node3 -->
<g id="node3" class="node">
<title>Node3</title>
<g id="a_node3"><a xlink:href="../../d2/db8/classSvtxTrack.html#af2317becf2120fcad5cefaa61a01407e" target="_top" xlink:title="SvtxTrack::get_x">
<polygon fill="none" stroke="#000000" points="452,-592.5 452,-612.5 551,-612.5 551,-592.5 452,-592.5"/>
<text text-anchor="middle" x="501.5" y="-599.5" font-family="FreeSans" font-size="10.00" fill="#000000">SvtxTrack::get_x</text>
</a>
</g>
</g>
<!-- Node1&#45;&gt;Node3 -->
<g id="edge2" class="edge">
<title>Node1&#45;&gt;Node3</title>
<path fill="none" stroke="#191970" d="M72.5605,-329.5501C80.0878,-371.1326 106.1762,-482.9145 176,-537.5 253.0231,-597.7137 370.9155,-606.6656 441.6791,-605.8545"/>
<polygon fill="#191970" stroke="#191970" points="441.8333,-609.3523 451.7672,-605.6689 441.7045,-602.3535 441.8333,-609.3523"/>
</g>
<!-- Node4 -->
<g id="node4" class="node">
<title>Node4</title>
<g id="a_node4"><a xlink:href="../../d2/db8/classSvtxTrack.html#ac4bf3bd4ecaeff1ca06c48942a8b9236" target="_top" xlink:title="SvtxTrack::get_y">
<polygon fill="none" stroke="#000000" points="452,-553.5 452,-573.5 551,-573.5 551,-553.5 452,-553.5"/>
<text text-anchor="middle" x="501.5" y="-560.5" font-family="FreeSans" font-size="10.00" fill="#000000">SvtxTrack::get_y</text>
</a>
</g>
</g>
<!-- Node1&#45;&gt;Node4 -->
<g id="edge3" class="edge">
<title>Node1&#45;&gt;Node4</title>
<path fill="none" stroke="#191970" d="M74.9084,-329.5521C86.4482,-364.4709 118.7371,-447.5547 176,-489.5 254.9321,-547.318 371.3269,-561.0596 441.4396,-563.7142"/>
<polygon fill="#191970" stroke="#191970" points="441.7556,-567.2257 451.86,-564.0398 441.9743,-560.2291 441.7556,-567.2257"/>
</g>
<!-- Node5 -->
<g id="node5" class="node">
<title>Node5</title>
<g id="a_node5"><a xlink:href="../../d2/db8/classSvtxTrack.html#aaaa435dd9d41dbe836f0608712ca12db" target="_top" xlink:title="SvtxTrack::get_z">
<polygon fill="none" stroke="#000000" points="452.5,-514.5 452.5,-534.5 550.5,-534.5 550.5,-514.5 452.5,-514.5"/>
<text text-anchor="middle" x="501.5" y="-521.5" font-family="FreeSans" font-size="10.00" fill="#000000">SvtxTrack::get_z</text>
</a>
</g>
</g>
<!-- Node1&#45;&gt;Node5 -->
<g id="edge4" class="edge">
<title>Node1&#45;&gt;Node5</title>
<path fill="none" stroke="#191970" d="M79.1213,-329.8505C95.1278,-357.0171 130.899,-411.3427 176,-440.5 258.5146,-493.8448 373.2766,-513.3555 442.1839,-520.4622"/>
<polygon fill="#191970" stroke="#191970" points="442.1301,-523.9735 452.4228,-521.4615 442.8101,-517.0066 442.1301,-523.9735"/>
</g>
<!-- Node6 -->
<g id="node6" class="node">
<title>Node6</title>
<g id="a_node6"><a xlink:href="../../d5/dbb/classActs_1_1SingleBoundTrackParameters.html#a4b2ca7926011705fb822cf5a69b0e17b" target="_top" xlink:title="Acts::SingleBoundTrackParameters\l::position">
<polygon fill="none" stroke="#000000" points="176,-348.5 176,-380.5 369,-380.5 369,-348.5 176,-348.5"/>
<text text-anchor="start" x="184" y="-367.5" font-family="FreeSans" font-size="10.00" fill="#000000">Acts::SingleBoundTrackParameters</text>
<text text-anchor="middle" x="272.5" y="-355.5" font-family="FreeSans" font-size="10.00" fill="#000000">::position</text>
</a>
</g>
</g>
<!-- Node1&#45;&gt;Node6 -->
<g id="edge5" class="edge">
<title>Node1&#45;&gt;Node6</title>
<path fill="none" stroke="#191970" d="M133.7943,-329.5667C154.411,-334.7591 177.4397,-340.5589 198.7175,-345.9177"/>
<polygon fill="#191970" stroke="#191970" points="198.1265,-349.3781 208.6786,-348.4264 199.8362,-342.5901 198.1265,-349.3781"/>
</g>
<!-- Node7 -->
<g id="node7" class="node">
<title>Node7</title>
<g id="a_node7"><a xlink:href="../../df/da1/namespaceActs_1_1VectorHelpers.html#a55c39f48968d9e4b4b4fb12b227cea22" target="_top" xlink:title="Access the three&#45;position components in a four&#45;position vector.">
<polygon fill="none" stroke="#000000" points="214.5,-297.5 214.5,-329.5 330.5,-329.5 330.5,-297.5 214.5,-297.5"/>
<text text-anchor="start" x="222.5" y="-316.5" font-family="FreeSans" font-size="10.00" fill="#000000">Acts::VectorHelpers</text>
<text text-anchor="middle" x="272.5" y="-304.5" font-family="FreeSans" font-size="10.00" fill="#000000">::position</text>
</a>
</g>
</g>
<!-- Node1&#45;&gt;Node7 -->
<g id="edge6" class="edge">
<title>Node1&#45;&gt;Node7</title>
<path fill="none" stroke="#191970" d="M140.2564,-313.5C160.9734,-313.5 183.6064,-313.5 204.1986,-313.5"/>
<polygon fill="#191970" stroke="#191970" points="204.442,-317.0001 214.442,-313.5 204.4419,-310.0001 204.442,-317.0001"/>
</g>
<!-- Node8 -->
<g id="node8" class="node">
<title>Node8</title>
<g id="a_node8"><a xlink:href="../../df/db5/classActsTransformations.html#aa5778bfb36c44051fa74d1b9d15b99b4" target="_top" xlink:title="Same as above, but rotate from Acts basis to global (x,y,z,px,py,pz)">
<polygon fill="none" stroke="#000000" points="195.5,-631.5 195.5,-663.5 349.5,-663.5 349.5,-631.5 195.5,-631.5"/>
<text text-anchor="start" x="203.5" y="-650.5" font-family="FreeSans" font-size="10.00" fill="#000000">ActsTransformations</text>
<text text-anchor="middle" x="272.5" y="-638.5" font-family="FreeSans" font-size="10.00" fill="#000000">::rotateActsCovToSvtxTrack</text>
</a>
</g>
</g>
<!-- Node1&#45;&gt;Node8 -->
<g id="edge7" class="edge">
<title>Node1&#45;&gt;Node8</title>
<path fill="none" stroke="#191970" d="M70.7954,-329.613C74.1409,-379.6334 91.1906,-533.8425 176,-616.5 179.7628,-620.1673 183.9606,-623.4008 188.4408,-626.2519"/>
<polygon fill="#191970" stroke="#191970" points="186.9336,-629.4199 197.3645,-631.2768 190.3682,-623.3204 186.9336,-629.4199"/>
</g>
<!-- Node10 -->
<g id="node10" class="node">
<title>Node10</title>
<g id="a_node10"><a xlink:href="../../d2/db8/classSvtxTrack.html#acbab823c6b38277615ecc76ab5ba5eea" target="_top" xlink:title="SvtxTrack::set_acts\l_covariance">
<polygon fill="none" stroke="#000000" points="216,-246.5 216,-278.5 329,-278.5 329,-246.5 216,-246.5"/>
<text text-anchor="start" x="224" y="-265.5" font-family="FreeSans" font-size="10.00" fill="#000000">SvtxTrack::set_acts</text>
<text text-anchor="middle" x="272.5" y="-253.5" font-family="FreeSans" font-size="10.00" fill="#000000">_covariance</text>
</a>
</g>
</g>
<!-- Node1&#45;&gt;Node10 -->
<g id="edge10" class="edge">
<title>Node1&#45;&gt;Node10</title>
<path fill="none" stroke="#191970" d="M133.7943,-297.4333C156.8211,-291.6339 182.8567,-285.0768 206.1012,-279.2227"/>
<polygon fill="#191970" stroke="#191970" points="207.0329,-282.5974 215.8753,-276.761 205.3233,-275.8094 207.0329,-282.5974"/>
</g>
<!-- Node11 -->
<g id="node11" class="node">
<title>Node11</title>
<g id="a_node11"><a xlink:href="../../d2/db8/classSvtxTrack.html#ab0a51c3b53d98cc25d02f07fcf3f45a2" target="_top" xlink:title="SvtxTrack::set_error">
<polygon fill="none" stroke="#000000" points="214,-207.5 214,-227.5 331,-227.5 331,-207.5 214,-207.5"/>
<text text-anchor="middle" x="272.5" y="-214.5" font-family="FreeSans" font-size="10.00" fill="#000000">SvtxTrack::set_error</text>
</a>
</g>
</g>
<!-- Node1&#45;&gt;Node11 -->
<g id="edge11" class="edge">
<title>Node1&#45;&gt;Node11</title>
<path fill="none" stroke="#191970" d="M87.2593,-297.2384C107.0959,-279.4909 141.3914,-251.5963 176,-236.5 184.77,-232.6745 194.3242,-229.6134 203.8992,-227.1653"/>
<polygon fill="#191970" stroke="#191970" points="204.9167,-230.5217 213.8527,-224.8297 203.3176,-223.7068 204.9167,-230.5217"/>
</g>
<!-- Node12 -->
<g id="node12" class="node">
<title>Node12</title>
<g id="a_node12"><a xlink:href="../../d2/db8/classSvtxTrack.html#a7a977b59323bb32aa6a04c9440f7a79c" target="_top" xlink:title="SvtxTrack::set_x">
<polygon fill="none" stroke="#000000" points="223.5,-168.5 223.5,-188.5 321.5,-188.5 321.5,-168.5 223.5,-168.5"/>
<text text-anchor="middle" x="272.5" y="-175.5" font-family="FreeSans" font-size="10.00" fill="#000000">SvtxTrack::set_x</text>
</a>
</g>
</g>
<!-- Node1&#45;&gt;Node12 -->
<g id="edge12" class="edge">
<title>Node1&#45;&gt;Node12</title>
<path fill="none" stroke="#191970" d="M79.7873,-297.3912C96.2442,-271.8041 132.0127,-222.244 176,-197.5 187.2732,-191.1585 200.3241,-186.9064 213.1136,-184.0623"/>
<polygon fill="#191970" stroke="#191970" points="214.1356,-187.4287 223.2756,-182.0703 212.789,-180.5594 214.1356,-187.4287"/>
</g>
<!-- Node13 -->
<g id="node13" class="node">
<title>Node13</title>
<g id="a_node13"><a xlink:href="../../d2/db8/classSvtxTrack.html#a1a5e80e2b9aafd4e3cfbda3ebaae8f44" target="_top" xlink:title="SvtxTrack::set_y">
<polygon fill="none" stroke="#000000" points="223.5,-129.5 223.5,-149.5 321.5,-149.5 321.5,-129.5 223.5,-129.5"/>
<text text-anchor="middle" x="272.5" y="-136.5" font-family="FreeSans" font-size="10.00" fill="#000000">SvtxTrack::set_y</text>
</a>
</g>
</g>
<!-- Node1&#45;&gt;Node13 -->
<g id="edge13" class="edge">
<title>Node1&#45;&gt;Node13</title>
<path fill="none" stroke="#191970" d="M76.1457,-297.2508C89.2008,-265.1042 122.9191,-193.4814 176,-158.5 187.0206,-151.2372 200.1838,-146.6281 213.191,-143.7323"/>
<polygon fill="#191970" stroke="#191970" points="213.9082,-147.1586 223.0692,-141.8362 212.5886,-140.2841 213.9082,-147.1586"/>
</g>
<!-- Node14 -->
<g id="node14" class="node">
<title>Node14</title>
<g id="a_node14"><a xlink:href="../../d2/db8/classSvtxTrack.html#a59f8714433eb1b6f0ee5c03813041f95" target="_top" xlink:title="SvtxTrack::set_z">
<polygon fill="none" stroke="#000000" points="224,-90.5 224,-110.5 321,-110.5 321,-90.5 224,-90.5"/>
<text text-anchor="middle" x="272.5" y="-97.5" font-family="FreeSans" font-size="10.00" fill="#000000">SvtxTrack::set_z</text>
</a>
</g>
</g>
<!-- Node1&#45;&gt;Node14 -->
<g id="edge14" class="edge">
<title>Node1&#45;&gt;Node14</title>
<path fill="none" stroke="#191970" d="M73.8131,-297.3641C83.6236,-259.6252 113.4726,-165.3359 176,-119.5 186.8643,-111.5359 200.1968,-106.676 213.4446,-103.7634"/>
<polygon fill="#191970" stroke="#191970" points="214.3218,-107.1605 223.5165,-101.8965 213.046,-100.2777 214.3218,-107.1605"/>
</g>
<!-- Node15 -->
<g id="node15" class="node">
<title>Node15</title>
<g id="a_node15"><a xlink:href="../../df/db5/classActsTransformations.html#a1e6bca7e7f2c0ca3523fcc4ccfda0a21" target="_top" xlink:title="ActsTransformations\l::setVerbosity">
<polygon fill="none" stroke="#000000" points="212.5,-39.5 212.5,-71.5 332.5,-71.5 332.5,-39.5 212.5,-39.5"/>
<text text-anchor="start" x="220.5" y="-58.5" font-family="FreeSans" font-size="10.00" fill="#000000">ActsTransformations</text>
<text text-anchor="middle" x="272.5" y="-46.5" font-family="FreeSans" font-size="10.00" fill="#000000">::setVerbosity</text>
</a>
</g>
</g>
<!-- Node1&#45;&gt;Node15 -->
<g id="edge15" class="edge">
<title>Node1&#45;&gt;Node15</title>
<path fill="none" stroke="#191970" d="M72.4752,-297.3554C79.855,-254.9326 105.7318,-139.5265 176,-80.5 183.7522,-73.988 193.0006,-69.1467 202.6565,-65.5527"/>
<polygon fill="#191970" stroke="#191970" points="203.9942,-68.7975 212.408,-62.3586 201.8153,-62.1453 203.9942,-68.7975"/>
</g>
<!-- Node16 -->
<g id="node16" class="node">
<title>Node16</title>
<g id="a_node16"><a xlink:href="../../d9/d47/classPHActsVertexPropagator.html#ad43b102830b88abca42e4d5048a0a6f0" target="_top" xlink:title="PHActsVertexPropagator\l::updateTrackDCA">
<polygon fill="none" stroke="#000000" points="202.5,-399.5 202.5,-431.5 342.5,-431.5 342.5,-399.5 202.5,-399.5"/>
<text text-anchor="start" x="210.5" y="-418.5" font-family="FreeSans" font-size="10.00" fill="#000000">PHActsVertexPropagator</text>
<text text-anchor="middle" x="272.5" y="-406.5" font-family="FreeSans" font-size="10.00" fill="#000000">::updateTrackDCA</text>
</a>
</g>
</g>
<!-- Node1&#45;&gt;Node16 -->
<g id="edge16" class="edge">
<title>Node1&#45;&gt;Node16</title>
<path fill="none" stroke="#191970" d="M88.2282,-329.7289C108.3779,-346.8776 142.4422,-373.5947 176,-389.5 181.3235,-392.0232 186.9324,-394.3344 192.6573,-396.4455"/>
<polygon fill="#191970" stroke="#191970" points="191.7768,-399.8445 202.3716,-399.8116 194.0687,-393.2303 191.7768,-399.8445"/>
</g>
<!-- Node29 -->
<g id="node29" class="node">
<title>Node29</title>
<g id="a_node29"><a xlink:href="../../d5/dec/classFun4AllBase.html#a8a5c77a92bdac6bc043476e132379a40" target="_top" xlink:title="Gets the verbosity of this module.">
<polygon fill="none" stroke="#000000" points="206.5,-.5 206.5,-20.5 338.5,-20.5 338.5,-.5 206.5,-.5"/>
<text text-anchor="middle" x="272.5" y="-7.5" font-family="FreeSans" font-size="10.00" fill="#000000">Fun4AllBase::Verbosity</text>
</a>
</g>
</g>
<!-- Node1&#45;&gt;Node29 -->
<g id="edge32" class="edge">
<title>Node1&#45;&gt;Node29</title>
<path fill="none" stroke="#191970" d="M70.804,-297.27C74.1512,-248.3941 91.1535,-101.5455 176,-29.5 182.0401,-24.3711 189.0615,-20.4774 196.5098,-17.5395"/>
<polygon fill="#191970" stroke="#191970" points="197.7655,-20.81 206.1309,-14.3084 195.5369,-14.1742 197.7655,-20.81"/>
</g>
<!-- Node8&#45;&gt;Node2 -->
<g id="edge8" class="edge">
<title>Node8&#45;&gt;Node2</title>
<path fill="none" stroke="#191970" d="M344.6427,-663.5667C368.3794,-668.8531 394.9433,-674.769 419.3665,-680.2083"/>
<polygon fill="#191970" stroke="#191970" points="418.8049,-683.6689 429.3266,-682.4264 420.3266,-676.8363 418.8049,-683.6689"/>
</g>
<!-- Node9 -->
<g id="node9" class="node">
<title>Node9</title>
<g id="a_node9"><a xlink:href="../../d5/dbb/classActs_1_1SingleBoundTrackParameters.html#a2b98cecaa5f095c40a16b2be854bfaf9" target="_top" xlink:title="Momentum three&#45;vector.">
<polygon fill="none" stroke="#000000" points="405,-631.5 405,-663.5 598,-663.5 598,-631.5 405,-631.5"/>
<text text-anchor="start" x="413" y="-650.5" font-family="FreeSans" font-size="10.00" fill="#000000">Acts::SingleBoundTrackParameters</text>
<text text-anchor="middle" x="501.5" y="-638.5" font-family="FreeSans" font-size="10.00" fill="#000000">::momentum</text>
</a>
</g>
</g>
<!-- Node8&#45;&gt;Node9 -->
<g id="edge9" class="edge">
<title>Node8&#45;&gt;Node9</title>
<path fill="none" stroke="#191970" d="M349.7097,-647.5C364.0577,-647.5 379.2826,-647.5 394.3377,-647.5"/>
<polygon fill="#191970" stroke="#191970" points="394.7205,-651.0001 404.7205,-647.5 394.7205,-644.0001 394.7205,-651.0001"/>
</g>
<!-- Node16&#45;&gt;Node3 -->
<g id="edge18" class="edge">
<title>Node16&#45;&gt;Node3</title>
<path fill="none" stroke="#191970" d="M280.1586,-431.5557C297.3028,-465.6188 342.2469,-545.1382 405,-583.5 416.0357,-590.2463 428.9896,-594.6637 441.7604,-597.5398"/>
<polygon fill="#191970" stroke="#191970" points="441.4364,-601.0428 451.9228,-599.5309 442.7824,-594.1734 441.4364,-601.0428"/>
</g>
<!-- Node16&#45;&gt;Node4 -->
<g id="edge19" class="edge">
<title>Node16&#45;&gt;Node4</title>
<path fill="none" stroke="#191970" d="M283.9356,-431.5898C304.6547,-459.4303 351.2687,-516.3073 405,-544.5 416.2149,-550.3844 429.0319,-554.454 441.5812,-557.2664"/>
<polygon fill="#191970" stroke="#191970" points="441.0598,-560.7314 451.5523,-559.263 442.4342,-553.8676 441.0598,-560.7314"/>
</g>
<!-- Node16&#45;&gt;Node5 -->
<g id="edge20" class="edge">
<title>Node16&#45;&gt;Node5</title>
<path fill="none" stroke="#191970" d="M291.3159,-431.6417C315.8324,-451.8095 360.8054,-485.9231 405,-504.5 416.6989,-509.4176 429.7195,-513.1645 442.3137,-516.0063"/>
<polygon fill="#191970" stroke="#191970" points="441.784,-519.4712 452.2893,-518.0964 443.2195,-512.62 441.784,-519.4712"/>
</g>
<!-- Node17 -->
<g id="node17" class="node">
<title>Node17</title>
<g id="a_node17"><a xlink:href="../../dc/de5/PHG4mRICHDetector_8cc.html#a11ded6fc3d3fab0e72612c3886df87a0" target="_top" xlink:title="pos">
<polygon fill="none" stroke="#000000" points="484.5,-334.5 484.5,-354.5 518.5,-354.5 518.5,-334.5 484.5,-334.5"/>
<text text-anchor="middle" x="501.5" y="-341.5" font-family="FreeSans" font-size="10.00" fill="#000000">pos</text>
</a>
</g>
</g>
<!-- Node16&#45;&gt;Node17 -->
<g id="edge17" class="edge">
<title>Node16&#45;&gt;Node17</title>
<path fill="none" stroke="#191970" d="M342.6413,-399.8386C351.6957,-396.8835 360.697,-393.4529 369,-389.5 386.8201,-381.0161 386.8988,-371.3662 405,-363.5 427.1985,-353.8533 454.4004,-349.0642 474.2588,-346.711"/>
<polygon fill="#191970" stroke="#191970" points="474.8782,-350.1653 484.4574,-345.6389 474.1463,-343.2036 474.8782,-350.1653"/>
</g>
<!-- Node18 -->
<g id="node18" class="node">
<title>Node18</title>
<g id="a_node18"><a xlink:href="../../d2/db8/classSvtxTrack.html#a79f3af39b753ecee85dc1d4e3db08cdd" target="_top" xlink:title="SvtxTrack::get_px">
<polygon fill="none" stroke="#000000" points="448.5,-295.5 448.5,-315.5 554.5,-315.5 554.5,-295.5 448.5,-295.5"/>
<text text-anchor="middle" x="501.5" y="-302.5" font-family="FreeSans" font-size="10.00" fill="#000000">SvtxTrack::get_px</text>
</a>
</g>
</g>
<!-- Node16&#45;&gt;Node18 -->
<g id="edge21" class="edge">
<title>Node16&#45;&gt;Node18</title>
<path fill="none" stroke="#191970" d="M342.6599,-403.8431C352.1078,-400.2658 361.2118,-395.5957 369,-389.5 395.0054,-369.146 378.3102,-343.9479 405,-324.5 414.7571,-317.3903 426.4855,-312.7586 438.3521,-309.7783"/>
<polygon fill="#191970" stroke="#191970" points="439.267,-313.1618 448.3122,-307.6451 437.801,-306.317 439.267,-313.1618"/>
</g>
<!-- Node19 -->
<g id="node19" class="node">
<title>Node19</title>
<g id="a_node19"><a xlink:href="../../d2/db8/classSvtxTrack.html#a5a9164fc95756dd9780755a55327fec5" target="_top" xlink:title="SvtxTrack::get_py">
<polygon fill="none" stroke="#000000" points="448.5,-256.5 448.5,-276.5 554.5,-276.5 554.5,-256.5 448.5,-256.5"/>
<text text-anchor="middle" x="501.5" y="-263.5" font-family="FreeSans" font-size="10.00" fill="#000000">SvtxTrack::get_py</text>
</a>
</g>
</g>
<!-- Node16&#45;&gt;Node19 -->
<g id="edge22" class="edge">
<title>Node16&#45;&gt;Node19</title>
<path fill="none" stroke="#191970" d="M342.6833,-405.4079C352.3502,-401.6248 361.5122,-396.4807 369,-389.5 404.777,-356.1458 368.0974,-317.6044 405,-285.5 414.4026,-277.3199 426.2879,-272.2599 438.476,-269.2056"/>
<polygon fill="#191970" stroke="#191970" points="439.1976,-272.6305 448.2738,-267.1649 437.7702,-265.7776 439.1976,-272.6305"/>
</g>
<!-- Node20 -->
<g id="node20" class="node">
<title>Node20</title>
<g id="a_node20"><a xlink:href="../../d2/db8/classSvtxTrack.html#a826b1ab6d05d45e5148c4645befe4def" target="_top" xlink:title="SvtxTrack::get_pz">
<polygon fill="none" stroke="#000000" points="449,-217.5 449,-237.5 554,-237.5 554,-217.5 449,-217.5"/>
<text text-anchor="middle" x="501.5" y="-224.5" font-family="FreeSans" font-size="10.00" fill="#000000">SvtxTrack::get_pz</text>
</a>
</g>
</g>
<!-- Node16&#45;&gt;Node20 -->
<g id="edge23" class="edge">
<title>Node16&#45;&gt;Node20</title>
<path fill="none" stroke="#191970" d="M342.7444,-406.1672C352.5207,-402.2932 361.6998,-396.9221 369,-389.5 414.9576,-342.7751 357.4632,-291.6172 405,-246.5 414.2839,-237.6886 426.4049,-232.4084 438.9055,-229.3469"/>
<polygon fill="#191970" stroke="#191970" points="439.842,-232.7291 448.9651,-227.3422 438.4739,-225.8641 439.842,-232.7291"/>
</g>
<!-- Node21 -->
<g id="node21" class="node">
<title>Node21</title>
<g id="a_node21"><a xlink:href="../../d2/db8/classSvtxTrack.html#a0db4feda5e8283176430ebbdb2e36f9a" target="_top" xlink:title="SvtxTrack::get_vertex_id">
<polygon fill="none" stroke="#000000" points="432,-178.5 432,-198.5 571,-198.5 571,-178.5 432,-178.5"/>
<text text-anchor="middle" x="501.5" y="-185.5" font-family="FreeSans" font-size="10.00" fill="#000000">SvtxTrack::get_vertex_id</text>
</a>
</g>
</g>
<!-- Node16&#45;&gt;Node21 -->
<g id="edge24" class="edge">
<title>Node16&#45;&gt;Node21</title>
<path fill="none" stroke="#191970" d="M342.5965,-406.6869C352.513,-402.7582 361.7743,-397.2338 369,-389.5 425.2926,-329.2493 346.6692,-265.7797 405,-207.5 409.9506,-202.5537 415.7894,-198.7043 422.1051,-195.7271"/>
<polygon fill="#191970" stroke="#191970" points="423.6324,-198.8873 431.6517,-191.9634 421.0649,-192.3751 423.6324,-198.8873"/>
</g>
<!-- Node22 -->
<g id="node22" class="node">
<title>Node22</title>
<g id="a_node22"><a xlink:href="../../db/dd7/classSvtxVertexMap.html#a872019b2bff0838ec60bfbbe325fc351" target="_top" xlink:title="SvtxVertexMap::get">
<polygon fill="none" stroke="#000000" points="443.5,-139.5 443.5,-159.5 559.5,-159.5 559.5,-139.5 443.5,-139.5"/>
<text text-anchor="middle" x="501.5" y="-146.5" font-family="FreeSans" font-size="10.00" fill="#000000">SvtxVertexMap::get</text>
</a>
</g>
</g>
<!-- Node16&#45;&gt;Node22 -->
<g id="edge25" class="edge">
<title>Node16&#45;&gt;Node22</title>
<path fill="none" stroke="#191970" d="M342.8258,-406.8976C352.7137,-402.9425 361.906,-397.3548 369,-389.5 435.7013,-315.6451 335.799,-240.018 405,-168.5 412.7271,-160.5142 422.7617,-155.3607 433.4313,-152.1156"/>
<polygon fill="#191970" stroke="#191970" points="434.5012,-155.4562 443.3604,-149.6454 432.8112,-148.6633 434.5012,-155.4562"/>
</g>
<!-- Node23 -->
<g id="node23" class="node">
<title>Node23</title>
<g id="a_node23"><a xlink:href="../../d2/db8/classSvtxTrack.html#a6596a62b7cc2abda9868355a052f17bd" target="_top" xlink:title="SvtxTrack::get_error">
<polygon fill="none" stroke="#000000" points="442.5,-100.5 442.5,-120.5 560.5,-120.5 560.5,-100.5 442.5,-100.5"/>
<text text-anchor="middle" x="501.5" y="-107.5" font-family="FreeSans" font-size="10.00" fill="#000000">SvtxTrack::get_error</text>
</a>
</g>
</g>
<!-- Node16&#45;&gt;Node23 -->
<g id="edge26" class="edge">
<title>Node16&#45;&gt;Node23</title>
<path fill="none" stroke="#191970" d="M342.5041,-407.2382C352.5571,-403.2548 361.8856,-397.5691 369,-389.5 446.1504,-301.9962 324.8868,-214.2995 405,-129.5 412.4965,-121.565 422.2668,-116.4083 432.7079,-113.1371"/>
<polygon fill="#191970" stroke="#191970" points="433.6244,-116.5153 442.4391,-110.6373 431.8828,-109.7354 433.6244,-116.5153"/>
</g>
<!-- Node24 -->
<g id="node24" class="node">
<title>Node24</title>
<g id="a_node24"><a xlink:href="../../df/de8/cemc_8C.html#a72d4716092b469b4bc1d816359a90e14" target="_top" xlink:title="cos">
<polygon fill="none" stroke="#000000" points="485,-61.5 485,-81.5 518,-81.5 518,-61.5 485,-61.5"/>
<text text-anchor="middle" x="501.5" y="-68.5" font-family="FreeSans" font-size="10.00" fill="#000000">cos</text>
</a>
</g>
</g>
<!-- Node16&#45;&gt;Node24 -->
<g id="edge27" class="edge">
<title>Node16&#45;&gt;Node24</title>
<path fill="none" stroke="#191970" d="M342.6281,-407.3465C352.6661,-403.3501 361.9576,-397.632 369,-389.5 456.6241,-288.3196 313.949,-188.608 405,-90.5 422.4685,-71.6776 452.7162,-68.413 474.6999,-68.9228"/>
<polygon fill="#191970" stroke="#191970" points="474.5735,-72.4207 484.7358,-69.4246 474.9231,-65.4295 474.5735,-72.4207"/>
</g>
<!-- Node25 -->
<g id="node25" class="node">
<title>Node25</title>
<g id="a_node25"><a xlink:href="../../d2/db8/classSvtxTrack.html#afb6517d0f90449766fe1cbb909e70abb" target="_top" xlink:title="SvtxTrack::set_dca3d_xy">
<polygon fill="none" stroke="#000000" points="431.5,-22.5 431.5,-42.5 571.5,-42.5 571.5,-22.5 431.5,-22.5"/>
<text text-anchor="middle" x="501.5" y="-29.5" font-family="FreeSans" font-size="10.00" fill="#000000">SvtxTrack::set_dca3d_xy</text>
</a>
</g>
</g>
<!-- Node16&#45;&gt;Node25 -->
<g id="edge28" class="edge">
<title>Node16&#45;&gt;Node25</title>
<path fill="none" stroke="#191970" d="M342.7245,-407.4294C352.7509,-403.423 362.0135,-397.6801 369,-389.5 467.1138,-274.6244 302.9946,-162.9344 405,-51.5 409.7252,-46.338 415.4108,-42.3419 421.6281,-39.2706"/>
<polygon fill="#191970" stroke="#191970" points="423.1404,-42.4334 431.0678,-35.4044 420.4874,-35.9557 423.1404,-42.4334"/>
</g>
<!-- Node26 -->
<g id="node26" class="node">
<title>Node26</title>
<g id="a_node26"><a xlink:href="../../d2/db8/classSvtxTrack.html#aeed4742cee54643e87ff544b20f90f38" target="_top" xlink:title="SvtxTrack::set_dca3d_z">
<polygon fill="none" stroke="#000000" points="434.5,-475.5 434.5,-495.5 568.5,-495.5 568.5,-475.5 434.5,-475.5"/>
<text text-anchor="middle" x="501.5" y="-482.5" font-family="FreeSans" font-size="10.00" fill="#000000">SvtxTrack::set_dca3d_z</text>
</a>
</g>
</g>
<!-- Node16&#45;&gt;Node26 -->
<g id="edge29" class="edge">
<title>Node16&#45;&gt;Node26</title>
<path fill="none" stroke="#191970" d="M310.2334,-431.5457C336.4587,-442.2483 372.416,-456.0386 405,-465.5 414.8989,-468.3744 425.4832,-471.0035 435.882,-473.3436"/>
<polygon fill="#191970" stroke="#191970" points="435.2508,-476.7882 445.7667,-475.4973 436.741,-469.9486 435.2508,-476.7882"/>
</g>
<!-- Node27 -->
<g id="node27" class="node">
<title>Node27</title>
<g id="a_node27"><a xlink:href="../../d2/db8/classSvtxTrack.html#a3d43854e66125a3122eed3a120b1c07a" target="_top" xlink:title="SvtxTrack::set_dca3d\l_xy_error">
<polygon fill="none" stroke="#000000" points="440,-424.5 440,-456.5 563,-456.5 563,-424.5 440,-424.5"/>
<text text-anchor="start" x="448" y="-443.5" font-family="FreeSans" font-size="10.00" fill="#000000">SvtxTrack::set_dca3d</text>
<text text-anchor="middle" x="501.5" y="-431.5" font-family="FreeSans" font-size="10.00" fill="#000000">_xy_error</text>
</a>
</g>
</g>
<!-- Node16&#45;&gt;Node27 -->
<g id="edge30" class="edge">
<title>Node16&#45;&gt;Node27</title>
<path fill="none" stroke="#191970" d="M342.7638,-423.1707C370.3984,-426.1876 402.0953,-429.648 429.862,-432.6793"/>
<polygon fill="#191970" stroke="#191970" points="429.5784,-436.169 439.8992,-433.775 430.3382,-429.2104 429.5784,-436.169"/>
</g>
<!-- Node28 -->
<g id="node28" class="node">
<title>Node28</title>
<g id="a_node28"><a xlink:href="../../d2/db8/classSvtxTrack.html#aa0546faa211efd66bc20692e371c2242" target="_top" xlink:title="SvtxTrack::set_dca3d\l_z_error">
<polygon fill="none" stroke="#000000" points="440,-373.5 440,-405.5 563,-405.5 563,-373.5 440,-373.5"/>
<text text-anchor="start" x="448" y="-392.5" font-family="FreeSans" font-size="10.00" fill="#000000">SvtxTrack::set_dca3d</text>
<text text-anchor="middle" x="501.5" y="-380.5" font-family="FreeSans" font-size="10.00" fill="#000000">_z_error</text>
</a>
</g>
</g>
<!-- Node16&#45;&gt;Node28 -->
<g id="edge31" class="edge">
<title>Node16&#45;&gt;Node28</title>
<path fill="none" stroke="#191970" d="M342.7638,-407.5224C370.3984,-404.3849 402.0953,-400.7861 429.862,-397.6336"/>
<polygon fill="#191970" stroke="#191970" points="430.358,-401.0998 439.8992,-396.494 429.5682,-394.1445 430.358,-401.0998"/>
</g>
</g>
</svg>
