<?xml version="1.0" encoding="UTF-8" standalone="no"?>
<!DOCTYPE svg PUBLIC "-//W3C//DTD SVG 1.1//EN"
 "http://www.w3.org/Graphics/SVG/1.1/DTD/svg11.dtd">
<!-- Generated by graphviz version 2.40.1 (20161225.0304)
 -->
<!-- Title: RawTowerGeomContainer::get_phicenter Pages: 1 -->
<svg width="785pt" height="425pt"
 viewBox="0.00 0.00 785.00 425.00" xmlns="http://www.w3.org/2000/svg" xmlns:xlink="http://www.w3.org/1999/xlink">
<g id="graph0" class="graph" transform="scale(1 1) rotate(0) translate(4 421)">
<title>RawTowerGeomContainer::get_phicenter</title>
<!-- Node1 -->
<g id="node1" class="node">
<title>Node1</title>
<polygon fill="#bfbfbf" stroke="#000000" points="0,-192.5 0,-224.5 147,-224.5 147,-192.5 0,-192.5"/>
<text text-anchor="start" x="8" y="-211.5" font-family="FreeSans" font-size="10.00" fill="#000000">RawTowerGeomContainer</text>
<text text-anchor="middle" x="73.5" y="-199.5" font-family="FreeSans" font-size="10.00" fill="#000000">::get_phicenter</text>
</g>
<!-- Node2 -->
<g id="node2" class="node">
<title>Node2</title>
<g id="a_node2"><a xlink:href="../../d7/d10/classRawTowerBuilder.html#a01f91227474fd72e2e630a577973b67b" target="_top" xlink:title="RawTowerBuilder::CreateNodes">
<polygon fill="none" stroke="#000000" points="183,-396.5 183,-416.5 357,-416.5 357,-396.5 183,-396.5"/>
<text text-anchor="middle" x="270" y="-403.5" font-family="FreeSans" font-size="10.00" fill="#000000">RawTowerBuilder::CreateNodes</text>
</a>
</g>
</g>
<!-- Node1&#45;&gt;Node2 -->
<g id="edge1" class="edge">
<title>Node1&#45;&gt;Node2</title>
<path fill="none" stroke="#191970" d="M81.8513,-234.3492C96.0177,-273.8784 128.6397,-348.8224 183,-387.5 188.0388,-391.0851 193.627,-394.0138 199.4699,-396.4036"/>
<polygon fill="#191970" stroke="#191970" points="85.0728,-232.9558 78.4933,-224.6515 78.4582,-235.2463 85.0728,-232.9558"/>
</g>
<!-- Node4 -->
<g id="node4" class="node">
<title>Node4</title>
<g id="a_node4"><a xlink:href="../../df/d0d/classRawTowerCombiner.html#a9dbc0b9dfed20dcd3a9a5f6dcf53636d" target="_top" xlink:title="RawTowerCombiner::Create\lNodes">
<polygon fill="none" stroke="#000000" points="192.5,-345.5 192.5,-377.5 347.5,-377.5 347.5,-345.5 192.5,-345.5"/>
<text text-anchor="start" x="200.5" y="-364.5" font-family="FreeSans" font-size="10.00" fill="#000000">RawTowerCombiner::Create</text>
<text text-anchor="middle" x="270" y="-352.5" font-family="FreeSans" font-size="10.00" fill="#000000">Nodes</text>
</a>
</g>
</g>
<!-- Node1&#45;&gt;Node4 -->
<g id="edge3" class="edge">
<title>Node1&#45;&gt;Node4</title>
<path fill="none" stroke="#191970" d="M88.2302,-233.2106C106.7641,-262.1895 141.2728,-309.6672 183,-336.5 188.2873,-339.9 194.0464,-342.8479 200.0006,-345.4019"/>
<polygon fill="#191970" stroke="#191970" points="91.0542,-231.1252 82.7852,-224.5015 85.1188,-234.8362 91.0542,-231.1252"/>
</g>
<!-- Node6 -->
<g id="node6" class="node">
<title>Node6</title>
<g id="a_node6"><a xlink:href="../../d4/d90/classQAG4SimulationCalorimeterSum.html#a2d446f5f510ab16326c0b748163849e1" target="_top" xlink:title="fetch tower around track and histogram energy distributions">
<polygon fill="none" stroke="#000000" points="190.5,-294.5 190.5,-326.5 349.5,-326.5 349.5,-294.5 190.5,-294.5"/>
<text text-anchor="start" x="198.5" y="-313.5" font-family="FreeSans" font-size="10.00" fill="#000000">QAG4SimulationCalorimeter</text>
<text text-anchor="middle" x="270" y="-301.5" font-family="FreeSans" font-size="10.00" fill="#000000">Sum::eval_trk_proj</text>
</a>
</g>
</g>
<!-- Node1&#45;&gt;Node6 -->
<g id="edge5" class="edge">
<title>Node1&#45;&gt;Node6</title>
<path fill="none" stroke="#191970" d="M100.359,-231.2479C121.6048,-248.2514 152.6491,-270.9755 183,-285.5 189.9461,-288.8241 197.4206,-291.7916 204.9666,-294.4172"/>
<polygon fill="#191970" stroke="#191970" points="102.4084,-228.4032 92.4409,-224.8115 97.993,-233.8351 102.4084,-228.4032"/>
</g>
<!-- Node9 -->
<g id="node9" class="node">
<title>Node9</title>
<g id="a_node9"><a xlink:href="../../d3/ddb/classQAG4SimulationEicCalorimeterSum.html#a867d82295ef8479cb1cdafb7ff464af6" target="_top" xlink:title="fetch tower around track and histogram energy distributions">
<polygon fill="none" stroke="#000000" points="183,-243.5 183,-275.5 357,-275.5 357,-243.5 183,-243.5"/>
<text text-anchor="start" x="191" y="-262.5" font-family="FreeSans" font-size="10.00" fill="#000000">QAG4SimulationEicCalorimeter</text>
<text text-anchor="middle" x="270" y="-250.5" font-family="FreeSans" font-size="10.00" fill="#000000">Sum::eval_trk_proj</text>
</a>
</g>
</g>
<!-- Node1&#45;&gt;Node9 -->
<g id="edge8" class="edge">
<title>Node1&#45;&gt;Node9</title>
<path fill="none" stroke="#191970" d="M145.3496,-227.148C165.9173,-232.4862 188.1522,-238.2571 208.0696,-243.4264"/>
<polygon fill="#191970" stroke="#191970" points="145.9627,-223.6912 135.4041,-224.5667 144.2041,-230.4667 145.9627,-223.6912"/>
</g>
<!-- Node12 -->
<g id="node12" class="node">
<title>Node12</title>
<g id="a_node12"><a xlink:href="../../d1/dec/classHcalRawTowerBuilder.html#a994bccbb0d39fa5e9d29d3b9c2ed42de" target="_top" xlink:title="HcalRawTowerBuilder\l::InitRun">
<polygon fill="none" stroke="#000000" points="207.5,-192.5 207.5,-224.5 332.5,-224.5 332.5,-192.5 207.5,-192.5"/>
<text text-anchor="start" x="215.5" y="-211.5" font-family="FreeSans" font-size="10.00" fill="#000000">HcalRawTowerBuilder</text>
<text text-anchor="middle" x="270" y="-199.5" font-family="FreeSans" font-size="10.00" fill="#000000">::InitRun</text>
</a>
</g>
</g>
<!-- Node1&#45;&gt;Node12 -->
<g id="edge11" class="edge">
<title>Node1&#45;&gt;Node12</title>
<path fill="none" stroke="#191970" d="M157.5564,-208.5C174.2888,-208.5 191.5822,-208.5 207.4401,-208.5"/>
<polygon fill="#191970" stroke="#191970" points="157.2284,-205.0001 147.2284,-208.5 157.2284,-212.0001 157.2284,-205.0001"/>
</g>
<!-- Node13 -->
<g id="node13" class="node">
<title>Node13</title>
<g id="a_node13"><a xlink:href="../../d8/d5d/classRawClusterBuilderTemplate.html#aad683d1abee8726e4fdf4ab11bb889f0" target="_top" xlink:title="RawClusterBuilderTemplate\l::PrintCylGeom">
<polygon fill="none" stroke="#000000" points="192.5,-141.5 192.5,-173.5 347.5,-173.5 347.5,-141.5 192.5,-141.5"/>
<text text-anchor="start" x="200.5" y="-160.5" font-family="FreeSans" font-size="10.00" fill="#000000">RawClusterBuilderTemplate</text>
<text text-anchor="middle" x="270" y="-148.5" font-family="FreeSans" font-size="10.00" fill="#000000">::PrintCylGeom</text>
</a>
</g>
</g>
<!-- Node1&#45;&gt;Node13 -->
<g id="edge12" class="edge">
<title>Node1&#45;&gt;Node13</title>
<path fill="none" stroke="#191970" d="M145.3496,-189.852C165.9173,-184.5138 188.1522,-178.7429 208.0696,-173.5736"/>
<polygon fill="#191970" stroke="#191970" points="144.2041,-186.5333 135.4041,-192.4333 145.9627,-193.3088 144.2041,-186.5333"/>
</g>
<!-- Node14 -->
<g id="node14" class="node">
<title>Node14</title>
<g id="a_node14"><a xlink:href="../../dc/d81/classG4TowerNtuple.html#a057879b332a3155cdca74d178f5e8f16" target="_top" xlink:title="event processing method">
<polygon fill="none" stroke="#000000" points="200.5,-90.5 200.5,-122.5 339.5,-122.5 339.5,-90.5 200.5,-90.5"/>
<text text-anchor="start" x="208.5" y="-109.5" font-family="FreeSans" font-size="10.00" fill="#000000">G4TowerNtuple::process</text>
<text text-anchor="middle" x="270" y="-97.5" font-family="FreeSans" font-size="10.00" fill="#000000">_event</text>
</a>
</g>
</g>
<!-- Node1&#45;&gt;Node14 -->
<g id="edge13" class="edge">
<title>Node1&#45;&gt;Node14</title>
<path fill="none" stroke="#191970" d="M100.4508,-186.1572C121.7456,-169.4332 152.8112,-147.0295 183,-132.5 190.6705,-128.8083 198.9761,-125.5171 207.3075,-122.6218"/>
<polygon fill="#191970" stroke="#191970" points="98.1501,-183.5152 92.512,-192.4853 102.5134,-188.989 98.1501,-183.5152"/>
</g>
<!-- Node15 -->
<g id="node15" class="node">
<title>Node15</title>
<g id="a_node15"><a xlink:href="../../d6/d02/classDetermineTowerBackground.html#a2f2c2c1d59dbf0df2debbedb977dfb57" target="_top" xlink:title="DetermineTowerBackground\l::process_event">
<polygon fill="none" stroke="#000000" points="190.5,-39.5 190.5,-71.5 349.5,-71.5 349.5,-39.5 190.5,-39.5"/>
<text text-anchor="start" x="198.5" y="-58.5" font-family="FreeSans" font-size="10.00" fill="#000000">DetermineTowerBackground</text>
<text text-anchor="middle" x="270" y="-46.5" font-family="FreeSans" font-size="10.00" fill="#000000">::process_event</text>
</a>
</g>
</g>
<!-- Node1&#45;&gt;Node15 -->
<g id="edge14" class="edge">
<title>Node1&#45;&gt;Node15</title>
<path fill="none" stroke="#191970" d="M88.6237,-183.6011C107.3198,-154.884 141.7711,-108.2083 183,-81.5 188.9538,-77.6431 195.5027,-74.3388 202.2535,-71.5119"/>
<polygon fill="#191970" stroke="#191970" points="85.5379,-181.9309 83.1185,-192.2458 91.4423,-185.691 85.5379,-181.9309"/>
</g>
<!-- Node16 -->
<g id="node16" class="node">
<title>Node16</title>
<g id="a_node16"><a xlink:href="../../dd/d0c/classCaloAna.html#a752c8d2c7e8a687d17c144ece869799f" target="_top" xlink:title="CaloAna::process_towers">
<polygon fill="none" stroke="#000000" points="198.5,-.5 198.5,-20.5 341.5,-20.5 341.5,-.5 198.5,-.5"/>
<text text-anchor="middle" x="270" y="-7.5" font-family="FreeSans" font-size="10.00" fill="#000000">CaloAna::process_towers</text>
</a>
</g>
</g>
<!-- Node1&#45;&gt;Node16 -->
<g id="edge15" class="edge">
<title>Node1&#45;&gt;Node16</title>
<path fill="none" stroke="#191970" d="M81.8513,-182.6508C96.0177,-143.1216 128.6397,-68.1776 183,-29.5 188.0388,-25.9149 193.627,-22.9862 199.4699,-20.5964"/>
<polygon fill="#191970" stroke="#191970" points="78.4582,-181.7537 78.4933,-192.3485 85.0728,-184.0442 78.4582,-181.7537"/>
</g>
<!-- Node3 -->
<g id="node3" class="node">
<title>Node3</title>
<g id="a_node3"><a xlink:href="../../d7/d10/classRawTowerBuilder.html#a0de2c995e7f7cc3bd357d65af5d5d987" target="_top" xlink:title="RawTowerBuilder::InitRun">
<polygon fill="none" stroke="#000000" points="408,-396.5 408,-416.5 552,-416.5 552,-396.5 408,-396.5"/>
<text text-anchor="middle" x="480" y="-403.5" font-family="FreeSans" font-size="10.00" fill="#000000">RawTowerBuilder::InitRun</text>
</a>
</g>
</g>
<!-- Node2&#45;&gt;Node3 -->
<g id="edge2" class="edge">
<title>Node2&#45;&gt;Node3</title>
<path fill="none" stroke="#191970" d="M367.5287,-406.5C381.0523,-406.5 394.742,-406.5 407.6943,-406.5"/>
<polygon fill="#191970" stroke="#191970" points="367.2346,-403.0001 357.2345,-406.5 367.2345,-410.0001 367.2346,-403.0001"/>
</g>
<!-- Node5 -->
<g id="node5" class="node">
<title>Node5</title>
<g id="a_node5"><a xlink:href="../../df/d0d/classRawTowerCombiner.html#a09f1dc91a89b5f30ab1bd5f1965d3cb3" target="_top" xlink:title="RawTowerCombiner::InitRun">
<polygon fill="none" stroke="#000000" points="401.5,-351.5 401.5,-371.5 558.5,-371.5 558.5,-351.5 401.5,-351.5"/>
<text text-anchor="middle" x="480" y="-358.5" font-family="FreeSans" font-size="10.00" fill="#000000">RawTowerCombiner::InitRun</text>
</a>
</g>
</g>
<!-- Node4&#45;&gt;Node5 -->
<g id="edge4" class="edge">
<title>Node4&#45;&gt;Node5</title>
<path fill="none" stroke="#191970" d="M357.9779,-361.5C372.359,-361.5 387.1777,-361.5 401.316,-361.5"/>
<polygon fill="#191970" stroke="#191970" points="357.5996,-358.0001 347.5996,-361.5 357.5996,-365.0001 357.5996,-358.0001"/>
</g>
<!-- Node7 -->
<g id="node7" class="node">
<title>Node7</title>
<g id="a_node7"><a xlink:href="../../d4/d90/classQAG4SimulationCalorimeterSum.html#a552be18b8bd8920596f2020f0b49275f" target="_top" xlink:title="QAG4SimulationCalorimeter\lSum::process_event_TrackProj">
<polygon fill="none" stroke="#000000" points="396,-294.5 396,-326.5 564,-326.5 564,-294.5 396,-294.5"/>
<text text-anchor="start" x="404" y="-313.5" font-family="FreeSans" font-size="10.00" fill="#000000">QAG4SimulationCalorimeter</text>
<text text-anchor="middle" x="480" y="-301.5" font-family="FreeSans" font-size="10.00" fill="#000000">Sum::process_event_TrackProj</text>
</a>
</g>
</g>
<!-- Node6&#45;&gt;Node7 -->
<g id="edge6" class="edge">
<title>Node6&#45;&gt;Node7</title>
<path fill="none" stroke="#191970" d="M360.0422,-310.5C371.9148,-310.5 384.0479,-310.5 395.8174,-310.5"/>
<polygon fill="#191970" stroke="#191970" points="359.6915,-307.0001 349.6914,-310.5 359.6914,-314.0001 359.6915,-307.0001"/>
</g>
<!-- Node8 -->
<g id="node8" class="node">
<title>Node8</title>
<g id="a_node8"><a xlink:href="../../d4/d90/classQAG4SimulationCalorimeterSum.html#a2104cb16e224c7eb39b9c5aed8aed4f0" target="_top" xlink:title="QAG4SimulationCalorimeter\lSum::process_event">
<polygon fill="none" stroke="#000000" points="610.5,-294.5 610.5,-326.5 769.5,-326.5 769.5,-294.5 610.5,-294.5"/>
<text text-anchor="start" x="618.5" y="-313.5" font-family="FreeSans" font-size="10.00" fill="#000000">QAG4SimulationCalorimeter</text>
<text text-anchor="middle" x="690" y="-301.5" font-family="FreeSans" font-size="10.00" fill="#000000">Sum::process_event</text>
</a>
</g>
</g>
<!-- Node7&#45;&gt;Node8 -->
<g id="edge7" class="edge">
<title>Node7&#45;&gt;Node8</title>
<path fill="none" stroke="#191970" d="M574.2372,-310.5C586.2502,-310.5 598.4531,-310.5 610.2079,-310.5"/>
<polygon fill="#191970" stroke="#191970" points="574.2051,-307.0001 564.205,-310.5 574.205,-314.0001 574.2051,-307.0001"/>
</g>
<!-- Node10 -->
<g id="node10" class="node">
<title>Node10</title>
<g id="a_node10"><a xlink:href="../../d3/ddb/classQAG4SimulationEicCalorimeterSum.html#ab83651bdc70b538ebd403177e55f0a86" target="_top" xlink:title="QAG4SimulationEicCalorimeter\lSum::process_event_TrackProj">
<polygon fill="none" stroke="#000000" points="393,-243.5 393,-275.5 567,-275.5 567,-243.5 393,-243.5"/>
<text text-anchor="start" x="401" y="-262.5" font-family="FreeSans" font-size="10.00" fill="#000000">QAG4SimulationEicCalorimeter</text>
<text text-anchor="middle" x="480" y="-250.5" font-family="FreeSans" font-size="10.00" fill="#000000">Sum::process_event_TrackProj</text>
</a>
</g>
</g>
<!-- Node9&#45;&gt;Node10 -->
<g id="edge9" class="edge">
<title>Node9&#45;&gt;Node10</title>
<path fill="none" stroke="#191970" d="M367.4593,-259.5C375.8803,-259.5 384.3662,-259.5 392.699,-259.5"/>
<polygon fill="#191970" stroke="#191970" points="367.2346,-256.0001 357.2345,-259.5 367.2345,-263.0001 367.2346,-256.0001"/>
</g>
<!-- Node11 -->
<g id="node11" class="node">
<title>Node11</title>
<g id="a_node11"><a xlink:href="../../d3/ddb/classQAG4SimulationEicCalorimeterSum.html#a28954a11a00d58de83182ab9cd472b11" target="_top" xlink:title="QAG4SimulationEicCalorimeter\lSum::process_event">
<polygon fill="none" stroke="#000000" points="603,-243.5 603,-275.5 777,-275.5 777,-243.5 603,-243.5"/>
<text text-anchor="start" x="611" y="-262.5" font-family="FreeSans" font-size="10.00" fill="#000000">QAG4SimulationEicCalorimeter</text>
<text text-anchor="middle" x="690" y="-250.5" font-family="FreeSans" font-size="10.00" fill="#000000">Sum::process_event</text>
</a>
</g>
</g>
<!-- Node10&#45;&gt;Node11 -->
<g id="edge10" class="edge">
<title>Node10&#45;&gt;Node11</title>
<path fill="none" stroke="#191970" d="M577.4593,-259.5C585.8803,-259.5 594.3662,-259.5 602.699,-259.5"/>
<polygon fill="#191970" stroke="#191970" points="577.2346,-256.0001 567.2345,-259.5 577.2345,-263.0001 577.2346,-256.0001"/>
</g>
<!-- Node17 -->
<g id="node17" class="node">
<title>Node17</title>
<g id="a_node17"><a xlink:href="../../dd/d0c/classCaloAna.html#afe94c360c527e97289601b2ddd4fc131" target="_top" xlink:title="event processing method">
<polygon fill="none" stroke="#000000" points="411,-.5 411,-20.5 549,-20.5 549,-.5 411,-.5"/>
<text text-anchor="middle" x="480" y="-7.5" font-family="FreeSans" font-size="10.00" fill="#000000">CaloAna::process_event</text>
</a>
</g>
</g>
<!-- Node16&#45;&gt;Node17 -->
<g id="edge16" class="edge">
<title>Node16&#45;&gt;Node17</title>
<path fill="none" stroke="#191970" d="M351.7632,-10.5C371.2654,-10.5 391.8935,-10.5 410.7699,-10.5"/>
<polygon fill="#191970" stroke="#191970" points="351.6828,-7.0001 341.6827,-10.5 351.6827,-14.0001 351.6828,-7.0001"/>
</g>
</g>
</svg>
