<?xml version="1.0" encoding="UTF-8" standalone="no"?>
<!DOCTYPE svg PUBLIC "-//W3C//DTD SVG 1.1//EN"
 "http://www.w3.org/Graphics/SVG/1.1/DTD/svg11.dtd">
<!-- Generated by graphviz version 2.40.1 (20161225.0304)
 -->
<!-- Title: matscan Pages: 1 -->
<svg width="1110pt" height="1439pt"
 viewBox="0.00 0.00 1110.00 1439.00" xmlns="http://www.w3.org/2000/svg" xmlns:xlink="http://www.w3.org/1999/xlink">
<g id="graph0" class="graph" transform="scale(1 1) rotate(0) translate(4 1435)">
<title>matscan</title>
<!-- Node1 -->
<g id="node1" class="node">
<title>Node1</title>
<polygon fill="#bfbfbf" stroke="#000000" points="0,-1215.5 0,-1235.5 59,-1235.5 59,-1215.5 0,-1215.5"/>
<text text-anchor="middle" x="29.5" y="-1222.5" font-family="FreeSans" font-size="10.00" fill="#000000">matscan</text>
</g>
<!-- Node2 -->
<g id="node2" class="node">
<title>Node2</title>
<g id="a_node2"><a xlink:href="../../d0/d78/classPHG4Reco.html#a83fd9e9472f94d9a29be65df65e400ef" target="_top" xlink:title="interface to G4 cmd interpreter">
<polygon fill="none" stroke="#000000" points="102,-1351.5 102,-1371.5 258,-1371.5 258,-1351.5 102,-1351.5"/>
<text text-anchor="middle" x="180" y="-1358.5" font-family="FreeSans" font-size="10.00" fill="#000000">PHG4Reco::ApplyCommand</text>
</a>
</g>
</g>
<!-- Node1&#45;&gt;Node2 -->
<g id="edge1" class="edge">
<title>Node1&#45;&gt;Node2</title>
<path fill="none" stroke="#191970" d="M34.5541,-1235.5336C44.1779,-1253.8215 66.7196,-1292.9513 95,-1317.5 109.2368,-1329.8582 127.5492,-1339.9045 143.5286,-1347.2609"/>
<polygon fill="#191970" stroke="#191970" points="142.5572,-1350.6576 153.1193,-1351.4902 145.3817,-1344.2528 142.5572,-1350.6576"/>
</g>
<!-- Node4 -->
<g id="node4" class="node">
<title>Node4</title>
<g id="a_node4"><a xlink:href="../../da/d29/classFun4AllServer.html#ac6d47a2b3bc98933a03fd63bb75d624a" target="_top" xlink:title="Fun4AllServer::getSubsysReco">
<polygon fill="none" stroke="#000000" points="95,-1215.5 95,-1235.5 265,-1235.5 265,-1215.5 95,-1215.5"/>
<text text-anchor="middle" x="180" y="-1222.5" font-family="FreeSans" font-size="10.00" fill="#000000">Fun4AllServer::getSubsysReco</text>
</a>
</g>
</g>
<!-- Node1&#45;&gt;Node4 -->
<g id="edge3" class="edge">
<title>Node1&#45;&gt;Node4</title>
<path fill="none" stroke="#191970" d="M59.234,-1225.5C66.909,-1225.5 75.5959,-1225.5 84.7055,-1225.5"/>
<polygon fill="#191970" stroke="#191970" points="84.7285,-1229.0001 94.7284,-1225.5 84.7284,-1222.0001 84.7285,-1229.0001"/>
</g>
<!-- Node6 -->
<g id="node6" class="node">
<title>Node6</title>
<g id="a_node6"><a xlink:href="../../d0/d78/classPHG4Reco.html#a9d8228ce8682c19cd6be2f6b44ec847b" target="_top" xlink:title="PHG4Reco::InitRun">
<polygon fill="none" stroke="#000000" points="125,-719.5 125,-739.5 235,-739.5 235,-719.5 125,-719.5"/>
<text text-anchor="middle" x="180" y="-726.5" font-family="FreeSans" font-size="10.00" fill="#000000">PHG4Reco::InitRun</text>
</a>
</g>
</g>
<!-- Node1&#45;&gt;Node6 -->
<g id="edge5" class="edge">
<title>Node1&#45;&gt;Node6</title>
<path fill="none" stroke="#191970" d="M32.6434,-1215.1403C51.388,-1153.3643 148.4633,-833.4349 173.8952,-749.6195"/>
<polygon fill="#191970" stroke="#191970" points="177.3195,-750.3881 176.8739,-739.8027 170.621,-748.3556 177.3195,-750.3881"/>
</g>
<!-- Node14 -->
<g id="node14" class="node">
<title>Node14</title>
<g id="a_node14"><a xlink:href="../../da/d29/classFun4AllServer.html#a3e55156f91b2c94bb6c4ef33ffce587a" target="_top" xlink:title="Fun4AllServer::instance">
<polygon fill="none" stroke="#000000" points="777,-1144.5 777,-1164.5 913,-1164.5 913,-1144.5 777,-1144.5"/>
<text text-anchor="middle" x="845" y="-1151.5" font-family="FreeSans" font-size="10.00" fill="#000000">Fun4AllServer::instance</text>
</a>
</g>
</g>
<!-- Node1&#45;&gt;Node14 -->
<g id="edge59" class="edge">
<title>Node1&#45;&gt;Node14</title>
<path fill="none" stroke="#191970" d="M59.0126,-1234.7085C70.2191,-1238.034 83.1389,-1241.6637 95,-1244.5 185.6269,-1266.1711 208.2256,-1274.7953 301,-1283.5 392.8189,-1292.1151 641.3331,-1337.6275 716,-1283.5 757.6484,-1253.3083 713.6,-1207.7281 752,-1173.5 756.5709,-1169.4257 761.774,-1166.1339 767.3297,-1163.4832"/>
<polygon fill="#191970" stroke="#191970" points="768.9949,-1166.5858 776.9627,-1159.6026 766.3792,-1160.0928 768.9949,-1166.5858"/>
</g>
<!-- Node15 -->
<g id="node15" class="node">
<title>Node15</title>
<g id="a_node15"><a xlink:href="../../da/d29/classFun4AllServer.html#abcaf6825367e5db292ff795237bdcf62" target="_top" xlink:title="Fun4AllServer::topNode">
<polygon fill="none" stroke="#000000" points="777,-969.5 777,-989.5 913,-989.5 913,-969.5 777,-969.5"/>
<text text-anchor="middle" x="845" y="-976.5" font-family="FreeSans" font-size="10.00" fill="#000000">Fun4AllServer::topNode</text>
</a>
</g>
</g>
<!-- Node1&#45;&gt;Node15 -->
<g id="edge60" class="edge">
<title>Node1&#45;&gt;Node15</title>
<path fill="none" stroke="#191970" d="M30.2249,-1215.289C37.8133,-1111.7106 106.3708,-252.1558 301,-113.5 493.604,23.7131 623.6653,-228.7891 716,-446.5 796.6279,-636.608 833.2323,-887.1838 842.5336,-959.2981"/>
<polygon fill="#191970" stroke="#191970" points="839.0715,-959.8193 843.7946,-969.3031 846.0166,-958.9439 839.0715,-959.8193"/>
</g>
<!-- Node3 -->
<g id="node3" class="node">
<title>Node3</title>
<g id="a_node3"><a xlink:href="../../d0/d78/classPHG4Reco.html#ad0f5beaf012e51404b712277818c6b36" target="_top" xlink:title="PHG4Reco::InitUImanager">
<polygon fill="none" stroke="#000000" points="329,-1371.5 329,-1391.5 477,-1391.5 477,-1371.5 329,-1371.5"/>
<text text-anchor="middle" x="403" y="-1378.5" font-family="FreeSans" font-size="10.00" fill="#000000">PHG4Reco::InitUImanager</text>
</a>
</g>
</g>
<!-- Node2&#45;&gt;Node3 -->
<g id="edge2" class="edge">
<title>Node2&#45;&gt;Node3</title>
<path fill="none" stroke="#191970" d="M258.3079,-1368.5231C277.9548,-1370.2852 299.1145,-1372.1829 319.0251,-1373.9686"/>
<polygon fill="#191970" stroke="#191970" points="318.7238,-1377.4556 328.9965,-1374.8629 319.3492,-1370.4835 318.7238,-1377.4556"/>
</g>
<!-- Node5 -->
<g id="node5" class="node">
<title>Node5</title>
<g id="a_node5"><a xlink:href="../../d5/dec/classFun4AllBase.html#a8a5c77a92bdac6bc043476e132379a40" target="_top" xlink:title="Gets the verbosity of this module.">
<polygon fill="none" stroke="#000000" points="562.5,-1086.5 562.5,-1106.5 694.5,-1106.5 694.5,-1086.5 562.5,-1086.5"/>
<text text-anchor="middle" x="628.5" y="-1093.5" font-family="FreeSans" font-size="10.00" fill="#000000">Fun4AllBase::Verbosity</text>
</a>
</g>
</g>
<!-- Node4&#45;&gt;Node5 -->
<g id="edge4" class="edge">
<title>Node4&#45;&gt;Node5</title>
<path fill="none" stroke="#191970" d="M233.1093,-1235.5364C300.8539,-1245.5029 419.467,-1253.2087 505,-1205.5 529.2305,-1191.9847 521.0961,-1173.8291 541,-1154.5 558.5915,-1137.4166 581.8617,-1122.2691 599.9821,-1111.7416"/>
<polygon fill="#191970" stroke="#191970" points="601.9557,-1114.6462 608.9312,-1106.6717 598.5052,-1108.5557 601.9557,-1114.6462"/>
</g>
<!-- Node6&#45;&gt;Node5 -->
<g id="edge6" class="edge">
<title>Node6&#45;&gt;Node5</title>
<path fill="none" stroke="#191970" d="M182.0139,-739.8155C192.5597,-792.7059 243.1439,-1032.6875 301,-1076.5 339.1288,-1105.3736 468.1508,-1104.9733 552.417,-1101.2801"/>
<polygon fill="#191970" stroke="#191970" points="552.635,-1104.7738 562.4624,-1100.8151 552.3112,-1097.7813 552.635,-1104.7738"/>
</g>
<!-- Node7 -->
<g id="node7" class="node">
<title>Node7</title>
<g id="a_node7"><a xlink:href="../../d8/d14/classrecoConsts.html#ae69a5c29a7199ba16d0e537158618802" target="_top" xlink:title="recoConsts::instance">
<polygon fill="none" stroke="#000000" points="342,-1047.5 342,-1067.5 464,-1067.5 464,-1047.5 342,-1047.5"/>
<text text-anchor="middle" x="403" y="-1054.5" font-family="FreeSans" font-size="10.00" fill="#000000">recoConsts::instance</text>
</a>
</g>
</g>
<!-- Node6&#45;&gt;Node7 -->
<g id="edge7" class="edge">
<title>Node6&#45;&gt;Node7</title>
<path fill="none" stroke="#191970" d="M180.6303,-739.7369C183.9017,-783.41 202.825,-955.6369 301,-1037.5 309.8971,-1044.9189 320.7461,-1049.8746 332.0085,-1053.136"/>
<polygon fill="#191970" stroke="#191970" points="331.4271,-1056.5973 341.9735,-1055.5853 333.098,-1049.7996 331.4271,-1056.5973"/>
</g>
<!-- Node9 -->
<g id="node9" class="node">
<title>Node9</title>
<g id="a_node9"><a xlink:href="../../d1/da8/classPHFlag.html#ad7aa90aabd5a7cd9958a2cc60048a68c" target="_top" xlink:title="PHFlag::set_StringFlag">
<polygon fill="none" stroke="#000000" points="338.5,-456.5 338.5,-476.5 467.5,-476.5 467.5,-456.5 338.5,-456.5"/>
<text text-anchor="middle" x="403" y="-463.5" font-family="FreeSans" font-size="10.00" fill="#000000">PHFlag::set_StringFlag</text>
</a>
</g>
</g>
<!-- Node6&#45;&gt;Node9 -->
<g id="edge9" class="edge">
<title>Node6&#45;&gt;Node9</title>
<path fill="none" stroke="#191970" d="M181.7231,-719.3375C188.7075,-681.504 218.5839,-547.8024 301,-485.5 309.0827,-479.3899 318.5379,-475.0476 328.3724,-471.9912"/>
<polygon fill="#191970" stroke="#191970" points="329.5354,-475.3035 338.2964,-469.3456 327.7322,-468.5397 329.5354,-475.3035"/>
</g>
<!-- Node11 -->
<g id="node11" class="node">
<title>Node11</title>
<g id="a_node11"><a xlink:href="../../d1/da8/classPHFlag.html#a88212f810275c61464d51caa3cd4d1e1" target="_top" xlink:title="PHFlag::set_FloatFlag">
<polygon fill="none" stroke="#000000" points="341,-1008.5 341,-1028.5 465,-1028.5 465,-1008.5 341,-1008.5"/>
<text text-anchor="middle" x="403" y="-1015.5" font-family="FreeSans" font-size="10.00" fill="#000000">PHFlag::set_FloatFlag</text>
</a>
</g>
</g>
<!-- Node6&#45;&gt;Node11 -->
<g id="edge11" class="edge">
<title>Node6&#45;&gt;Node11</title>
<path fill="none" stroke="#191970" d="M181.2328,-739.5344C186.7022,-779.4646 212.5553,-928.3055 301,-998.5 309.7117,-1005.4141 320.1408,-1010.1582 330.9554,-1013.3765"/>
<polygon fill="#191970" stroke="#191970" points="330.4031,-1016.8474 340.9574,-1015.9216 332.1293,-1010.0636 330.4031,-1016.8474"/>
</g>
<!-- Node12 -->
<g id="node12" class="node">
<title>Node12</title>
<g id="a_node12"><a xlink:href="../../d0/d78/classPHG4Reco.html#a66fc50f0871fbaf83b21edfa8ae98259" target="_top" xlink:title="PHG4Reco::InitField">
<polygon fill="none" stroke="#000000" points="345.5,-969.5 345.5,-989.5 460.5,-989.5 460.5,-969.5 345.5,-969.5"/>
<text text-anchor="middle" x="403" y="-976.5" font-family="FreeSans" font-size="10.00" fill="#000000">PHG4Reco::InitField</text>
</a>
</g>
</g>
<!-- Node6&#45;&gt;Node12 -->
<g id="edge12" class="edge">
<title>Node6&#45;&gt;Node12</title>
<path fill="none" stroke="#191970" d="M182.0463,-739.5645C189.9835,-775.8489 222.2905,-900.89 301,-959.5 311.0501,-966.9837 323.1525,-971.879 335.4544,-975.0396"/>
<polygon fill="#191970" stroke="#191970" points="334.8084,-978.4812 345.3278,-977.2187 336.3171,-971.6457 334.8084,-978.4812"/>
</g>
<!-- Node19 -->
<g id="node19" class="node">
<title>Node19</title>
<g id="a_node19"><a xlink:href="../../d5/dec/classFun4AllBase.html#a41f9ac377743d046f590617fd6f4f0ed" target="_top" xlink:title="Returns the name of this module.">
<polygon fill="none" stroke="#000000" points="345.5,-930.5 345.5,-950.5 460.5,-950.5 460.5,-930.5 345.5,-930.5"/>
<text text-anchor="middle" x="403" y="-937.5" font-family="FreeSans" font-size="10.00" fill="#000000">Fun4AllBase::Name</text>
</a>
</g>
</g>
<!-- Node6&#45;&gt;Node19 -->
<g id="edge21" class="edge">
<title>Node6&#45;&gt;Node19</title>
<path fill="none" stroke="#191970" d="M183.2533,-739.861C194.0505,-772.4188 231.9867,-873.2994 301,-920.5 311.2252,-927.4934 323.3012,-932.1743 335.5,-935.28"/>
<polygon fill="#191970" stroke="#191970" points="334.756,-938.7 345.2765,-937.4471 336.271,-931.8659 334.756,-938.7"/>
</g>
<!-- Node20 -->
<g id="node20" class="node">
<title>Node20</title>
<g id="a_node20"><a xlink:href="../../d0/d32/classSubsysReco.html#ac60499808487d0dcd1e127d262cf25f9" target="_top" xlink:title="SubsysReco::InitRun">
<polygon fill="none" stroke="#000000" points="344,-891.5 344,-911.5 462,-911.5 462,-891.5 344,-891.5"/>
<text text-anchor="middle" x="403" y="-898.5" font-family="FreeSans" font-size="10.00" fill="#000000">SubsysReco::InitRun</text>
</a>
</g>
</g>
<!-- Node6&#45;&gt;Node20 -->
<g id="edge22" class="edge">
<title>Node6&#45;&gt;Node20</title>
<path fill="none" stroke="#191970" d="M184.8431,-739.6848C198.6379,-767.4938 241.0449,-845.0667 301,-881.5 310.8998,-887.5159 322.2486,-891.7723 333.6972,-894.7734"/>
<polygon fill="#191970" stroke="#191970" points="333.218,-898.2549 343.7497,-897.1002 334.7966,-891.4352 333.218,-898.2549"/>
</g>
<!-- Node21 -->
<g id="node21" class="node">
<title>Node21</title>
<g id="a_node21"><a xlink:href="../../d1/d13/classPHG4PhenixDetector.html#a4a700250d75ec02bcc1809c43f124a45" target="_top" xlink:title="PHG4PhenixDetector\l::Verbosity">
<polygon fill="none" stroke="#000000" points="342,-840.5 342,-872.5 464,-872.5 464,-840.5 342,-840.5"/>
<text text-anchor="start" x="350" y="-859.5" font-family="FreeSans" font-size="10.00" fill="#000000">PHG4PhenixDetector</text>
<text text-anchor="middle" x="403" y="-847.5" font-family="FreeSans" font-size="10.00" fill="#000000">::Verbosity</text>
</a>
</g>
</g>
<!-- Node6&#45;&gt;Node21 -->
<g id="edge23" class="edge">
<title>Node6&#45;&gt;Node21</title>
<path fill="none" stroke="#191970" d="M188.9549,-739.5206C207.6872,-759.8525 253.2456,-806.0879 301,-830.5 310.655,-835.4356 321.314,-839.4801 331.9928,-842.7813"/>
<polygon fill="#191970" stroke="#191970" points="331.1988,-846.195 341.7774,-845.6084 333.1419,-839.4701 331.1988,-846.195"/>
</g>
<!-- Node22 -->
<g id="node22" class="node">
<title>Node22</title>
<g id="a_node22"><a xlink:href="../../d1/d13/classPHG4PhenixDetector.html#a375bd9d82edcae5f21f39e319f3044b2" target="_top" xlink:title="PHG4PhenixDetector\l::SetWorldSizeX">
<polygon fill="none" stroke="#000000" points="342,-789.5 342,-821.5 464,-821.5 464,-789.5 342,-789.5"/>
<text text-anchor="start" x="350" y="-808.5" font-family="FreeSans" font-size="10.00" fill="#000000">PHG4PhenixDetector</text>
<text text-anchor="middle" x="403" y="-796.5" font-family="FreeSans" font-size="10.00" fill="#000000">::SetWorldSizeX</text>
</a>
</g>
</g>
<!-- Node6&#45;&gt;Node22 -->
<g id="edge24" class="edge">
<title>Node6&#45;&gt;Node22</title>
<path fill="none" stroke="#191970" d="M201.943,-739.6781C225.915,-750.5336 265.6239,-767.7485 301,-779.5 310.9226,-782.7962 321.5048,-785.9177 331.9562,-788.778"/>
<polygon fill="#191970" stroke="#191970" points="331.3461,-792.2377 341.9107,-791.4375 333.1529,-785.4749 331.3461,-792.2377"/>
</g>
<!-- Node23 -->
<g id="node23" class="node">
<title>Node23</title>
<g id="a_node23"><a xlink:href="../../d1/d13/classPHG4PhenixDetector.html#a74db49898240516c4136bbbdedcff188" target="_top" xlink:title="PHG4PhenixDetector\l::SetWorldSizeY">
<polygon fill="none" stroke="#000000" points="342,-738.5 342,-770.5 464,-770.5 464,-738.5 342,-738.5"/>
<text text-anchor="start" x="350" y="-757.5" font-family="FreeSans" font-size="10.00" fill="#000000">PHG4PhenixDetector</text>
<text text-anchor="middle" x="403" y="-745.5" font-family="FreeSans" font-size="10.00" fill="#000000">::SetWorldSizeY</text>
</a>
</g>
</g>
<!-- Node6&#45;&gt;Node23 -->
<g id="edge25" class="edge">
<title>Node6&#45;&gt;Node23</title>
<path fill="none" stroke="#191970" d="M235.1236,-735.6798C264.3356,-738.9547 300.5536,-743.015 331.863,-746.525"/>
<polygon fill="#191970" stroke="#191970" points="331.5131,-750.0076 341.8408,-747.6436 332.293,-743.0512 331.5131,-750.0076"/>
</g>
<!-- Node24 -->
<g id="node24" class="node">
<title>Node24</title>
<g id="a_node24"><a xlink:href="../../d1/d13/classPHG4PhenixDetector.html#a7de4106257c7435e45acb3579177c3c4" target="_top" xlink:title="PHG4PhenixDetector\l::SetWorldSizeZ">
<polygon fill="none" stroke="#000000" points="342,-687.5 342,-719.5 464,-719.5 464,-687.5 342,-687.5"/>
<text text-anchor="start" x="350" y="-706.5" font-family="FreeSans" font-size="10.00" fill="#000000">PHG4PhenixDetector</text>
<text text-anchor="middle" x="403" y="-694.5" font-family="FreeSans" font-size="10.00" fill="#000000">::SetWorldSizeZ</text>
</a>
</g>
</g>
<!-- Node6&#45;&gt;Node24 -->
<g id="edge26" class="edge">
<title>Node6&#45;&gt;Node24</title>
<path fill="none" stroke="#191970" d="M235.1236,-723.073C264.3356,-719.6672 300.5536,-715.4444 331.863,-711.794"/>
<polygon fill="#191970" stroke="#191970" points="332.3134,-715.2653 341.8408,-710.6307 331.5027,-708.3124 332.3134,-715.2653"/>
</g>
<!-- Node25 -->
<g id="node25" class="node">
<title>Node25</title>
<g id="a_node25"><a xlink:href="../../d1/d13/classPHG4PhenixDetector.html#a570bf81e75c124d0d3d80040fc69ca8b" target="_top" xlink:title="PHG4PhenixDetector\l::SetWorldShape">
<polygon fill="none" stroke="#000000" points="342,-636.5 342,-668.5 464,-668.5 464,-636.5 342,-636.5"/>
<text text-anchor="start" x="350" y="-655.5" font-family="FreeSans" font-size="10.00" fill="#000000">PHG4PhenixDetector</text>
<text text-anchor="middle" x="403" y="-643.5" font-family="FreeSans" font-size="10.00" fill="#000000">::SetWorldShape</text>
</a>
</g>
</g>
<!-- Node6&#45;&gt;Node25 -->
<g id="edge27" class="edge">
<title>Node6&#45;&gt;Node25</title>
<path fill="none" stroke="#191970" d="M200.5765,-719.4114C224.3324,-708.0591 264.7921,-689.6246 301,-677.5 310.8918,-674.1876 321.457,-671.1071 331.9005,-668.3202"/>
<polygon fill="#191970" stroke="#191970" points="333.0487,-671.6383 341.85,-665.7403 331.2916,-664.8624 333.0487,-671.6383"/>
</g>
<!-- Node26 -->
<g id="node26" class="node">
<title>Node26</title>
<g id="a_node26"><a xlink:href="../../d1/d13/classPHG4PhenixDetector.html#acdba581a56ceb2717c1553449802b153" target="_top" xlink:title="PHG4PhenixDetector\l::SetWorldMaterial">
<polygon fill="none" stroke="#000000" points="342,-585.5 342,-617.5 464,-617.5 464,-585.5 342,-585.5"/>
<text text-anchor="start" x="350" y="-604.5" font-family="FreeSans" font-size="10.00" fill="#000000">PHG4PhenixDetector</text>
<text text-anchor="middle" x="403" y="-592.5" font-family="FreeSans" font-size="10.00" fill="#000000">::SetWorldMaterial</text>
</a>
</g>
</g>
<!-- Node6&#45;&gt;Node26 -->
<g id="edge28" class="edge">
<title>Node6&#45;&gt;Node26</title>
<path fill="none" stroke="#191970" d="M188.8914,-719.2359C207.5066,-698.4184 252.8604,-651.1222 301,-626.5 310.6317,-621.5736 321.2781,-617.5879 331.9516,-614.3714"/>
<polygon fill="#191970" stroke="#191970" points="333.0492,-617.6987 341.7329,-611.6288 331.1593,-610.9586 333.0492,-617.6987"/>
</g>
<!-- Node27 -->
<g id="node27" class="node">
<title>Node27</title>
<g id="a_node27"><a xlink:href="../../db/df7/classPHG4Subsystem.html#afcc011c14ac7853b01796ebbb26c8512" target="_top" xlink:title="return pointer to created detector object">
<polygon fill="none" stroke="#000000" points="318.5,-546.5 318.5,-566.5 487.5,-566.5 487.5,-546.5 318.5,-546.5"/>
<text text-anchor="middle" x="403" y="-553.5" font-family="FreeSans" font-size="10.00" fill="#000000">PHG4Subsystem::GetDetector</text>
</a>
</g>
</g>
<!-- Node6&#45;&gt;Node27 -->
<g id="edge29" class="edge">
<title>Node6&#45;&gt;Node27</title>
<path fill="none" stroke="#191970" d="M184.7861,-719.1518C198.4351,-690.9017 240.504,-612.1338 301,-575.5 304.0587,-573.6478 307.2565,-571.9685 310.5532,-570.4466"/>
<polygon fill="#191970" stroke="#191970" points="312.1371,-573.5805 320.073,-566.5611 309.4919,-567.0995 312.1371,-573.5805"/>
</g>
<!-- Node28 -->
<g id="node28" class="node">
<title>Node28</title>
<g id="a_node28"><a xlink:href="../../d1/d13/classPHG4PhenixDetector.html#a2e9d45f2c881b6c9ced3b3031333f1b6" target="_top" xlink:title="register a detector. This is called in PHG4Reco::Init based on which detectors are found on the tree...">
<polygon fill="none" stroke="#000000" points="342,-495.5 342,-527.5 464,-527.5 464,-495.5 342,-495.5"/>
<text text-anchor="start" x="350" y="-514.5" font-family="FreeSans" font-size="10.00" fill="#000000">PHG4PhenixDetector</text>
<text text-anchor="middle" x="403" y="-502.5" font-family="FreeSans" font-size="10.00" fill="#000000">::AddDetector</text>
</a>
</g>
</g>
<!-- Node6&#45;&gt;Node28 -->
<g id="edge30" class="edge">
<title>Node6&#45;&gt;Node28</title>
<path fill="none" stroke="#191970" d="M183.3151,-719.1686C194.2955,-686.6797 232.7161,-585.826 301,-536.5 310.2592,-529.8114 321.0952,-524.8993 332.1817,-521.2948"/>
<polygon fill="#191970" stroke="#191970" points="333.3309,-524.6056 341.9555,-518.4519 331.3759,-517.8842 333.3309,-524.6056"/>
</g>
<!-- Node29 -->
<g id="node29" class="node">
<title>Node29</title>
<g id="a_node29"><a xlink:href="../../d0/d78/classPHG4Reco.html#af0c0ba5027360ea57d9ee31bc949e4dd" target="_top" xlink:title="PHG4Reco::setupInputEvent\lNodeReader">
<polygon fill="none" stroke="#000000" points="549,-33.5 549,-65.5 708,-65.5 708,-33.5 549,-33.5"/>
<text text-anchor="start" x="557" y="-52.5" font-family="FreeSans" font-size="10.00" fill="#000000">PHG4Reco::setupInputEvent</text>
<text text-anchor="middle" x="628.5" y="-40.5" font-family="FreeSans" font-size="10.00" fill="#000000">NodeReader</text>
</a>
</g>
</g>
<!-- Node6&#45;&gt;Node29 -->
<g id="edge31" class="edge">
<title>Node6&#45;&gt;Node29</title>
<path fill="none" stroke="#191970" d="M180.5041,-719.1063C184.2857,-645.5464 210.596,-203.8162 301,-113.5 362.5535,-52.0063 464.6018,-40.6377 538.446,-41.7456"/>
<polygon fill="#191970" stroke="#191970" points="538.5935,-45.2498 548.6714,-41.9808 538.7546,-38.2517 538.5935,-45.2498"/>
</g>
<!-- Node33 -->
<g id="node33" class="node">
<title>Node33</title>
<g id="a_node33"><a xlink:href="../../db/df7/classPHG4Subsystem.html#aee1a94900ddad7d524715eee1de85343" target="_top" xlink:title="return pointer to this subsystem event action">
<polygon fill="none" stroke="#000000" points="310.5,-417.5 310.5,-437.5 495.5,-437.5 495.5,-417.5 310.5,-417.5"/>
<text text-anchor="middle" x="403" y="-424.5" font-family="FreeSans" font-size="10.00" fill="#000000">PHG4Subsystem::GetEventAction</text>
</a>
</g>
</g>
<!-- Node6&#45;&gt;Node33 -->
<g id="edge37" class="edge">
<title>Node6&#45;&gt;Node33</title>
<path fill="none" stroke="#191970" d="M180.9677,-719.4981C185.5196,-678.3088 208.6317,-520.5037 301,-446.5 302.6342,-445.1907 304.3303,-443.9611 306.0793,-442.8068"/>
<polygon fill="#191970" stroke="#191970" points="308.2389,-445.6067 315.2239,-437.6405 304.7957,-439.5121 308.2389,-445.6067"/>
</g>
<!-- Node34 -->
<g id="node34" class="node">
<title>Node34</title>
<g id="a_node34"><a xlink:href="../../d9/d7a/classPHG4PhenixEventAction.html#a715e0072dfcc8b3cf9434e77ee0858f6" target="_top" xlink:title="register an action. This is called in PHG4Reco::Init based on which actions are found on the tree...">
<polygon fill="none" stroke="#000000" points="333.5,-366.5 333.5,-398.5 472.5,-398.5 472.5,-366.5 333.5,-366.5"/>
<text text-anchor="start" x="341.5" y="-385.5" font-family="FreeSans" font-size="10.00" fill="#000000">PHG4PhenixEventAction</text>
<text text-anchor="middle" x="403" y="-373.5" font-family="FreeSans" font-size="10.00" fill="#000000">::AddAction</text>
</a>
</g>
</g>
<!-- Node6&#45;&gt;Node34 -->
<g id="edge38" class="edge">
<title>Node6&#45;&gt;Node34</title>
<path fill="none" stroke="#191970" d="M180.5482,-719.2343C183.5051,-674.625 201.3944,-495.8976 301,-407.5 307.6383,-401.6087 315.4402,-397.0539 323.7231,-393.5404"/>
<polygon fill="#191970" stroke="#191970" points="325.0899,-396.7664 333.2428,-390.0003 322.65,-390.2054 325.0899,-396.7664"/>
</g>
<!-- Node35 -->
<g id="node35" class="node">
<title>Node35</title>
<g id="a_node35"><a xlink:href="../../db/df7/classPHG4Subsystem.html#ae6c6f2bb38572d697d711cbe425bf263" target="_top" xlink:title="return pointer to this subsystem stepping action">
<polygon fill="none" stroke="#000000" points="318,-315.5 318,-347.5 488,-347.5 488,-315.5 318,-315.5"/>
<text text-anchor="start" x="326" y="-334.5" font-family="FreeSans" font-size="10.00" fill="#000000">PHG4Subsystem::GetStepping</text>
<text text-anchor="middle" x="403" y="-322.5" font-family="FreeSans" font-size="10.00" fill="#000000">Action</text>
</a>
</g>
</g>
<!-- Node6&#45;&gt;Node35 -->
<g id="edge39" class="edge">
<title>Node6&#45;&gt;Node35</title>
<path fill="none" stroke="#191970" d="M181.9164,-719.345C192.3585,-665.0426 244.022,-409.446 301,-356.5 303.4709,-354.204 306.1174,-352.1092 308.9011,-350.1986"/>
<polygon fill="#191970" stroke="#191970" points="310.8251,-353.1265 317.6258,-345.0024 307.2432,-347.1123 310.8251,-353.1265"/>
</g>
<!-- Node36 -->
<g id="node36" class="node">
<title>Node36</title>
<g id="a_node36"><a xlink:href="../../d1/d53/classPHG4PhenixSteppingAction.html#afead1d30da1e7c68616987bdf711a25b" target="_top" xlink:title="register an action. This is called in PHG4Reco::Init based on which actions are found on the tree...">
<polygon fill="none" stroke="#000000" points="325.5,-264.5 325.5,-296.5 480.5,-296.5 480.5,-264.5 325.5,-264.5"/>
<text text-anchor="start" x="333.5" y="-283.5" font-family="FreeSans" font-size="10.00" fill="#000000">PHG4PhenixSteppingAction</text>
<text text-anchor="middle" x="403" y="-271.5" font-family="FreeSans" font-size="10.00" fill="#000000">::AddAction</text>
</a>
</g>
</g>
<!-- Node6&#45;&gt;Node36 -->
<g id="edge40" class="edge">
<title>Node6&#45;&gt;Node36</title>
<path fill="none" stroke="#191970" d="M181.5286,-719.1575C190.4502,-660.1526 237.5916,-366.5662 301,-305.5 305.5677,-301.101 310.777,-297.4359 316.3693,-294.3865"/>
<polygon fill="#191970" stroke="#191970" points="317.9015,-297.5335 325.4353,-290.0842 314.9004,-291.2095 317.9015,-297.5335"/>
</g>
<!-- Node37 -->
<g id="node37" class="node">
<title>Node37</title>
<g id="a_node37"><a xlink:href="../../d0/ddf/classPHG4PhenixTrackingAction.html#a300a79aafe903fda71e3683cc873f1a8" target="_top" xlink:title="register an action. This is called in PHG4Reco::Init based on which actions are found on the tree...">
<polygon fill="none" stroke="#000000" points="327,-213.5 327,-245.5 479,-245.5 479,-213.5 327,-213.5"/>
<text text-anchor="start" x="335" y="-232.5" font-family="FreeSans" font-size="10.00" fill="#000000">PHG4PhenixTrackingAction</text>
<text text-anchor="middle" x="403" y="-220.5" font-family="FreeSans" font-size="10.00" fill="#000000">::AddAction</text>
</a>
</g>
</g>
<!-- Node6&#45;&gt;Node37 -->
<g id="edge41" class="edge">
<title>Node6&#45;&gt;Node37</title>
<path fill="none" stroke="#191970" d="M181.1901,-719.1862C188.6599,-656.2037 231.0334,-323.8347 301,-254.5 305.8727,-249.6713 311.5164,-245.722 317.5992,-242.4978"/>
<polygon fill="#191970" stroke="#191970" points="319.1622,-245.6315 326.7867,-238.275 316.2388,-239.2711 319.1622,-245.6315"/>
</g>
<!-- Node38 -->
<g id="node38" class="node">
<title>Node38</title>
<g id="a_node38"><a xlink:href="../../db/df7/classPHG4Subsystem.html#a8849b3410711577ec2e793987144ab69" target="_top" xlink:title="return pointer to this subsystem stepping action">
<polygon fill="none" stroke="#000000" points="319.5,-162.5 319.5,-194.5 486.5,-194.5 486.5,-162.5 319.5,-162.5"/>
<text text-anchor="start" x="327.5" y="-181.5" font-family="FreeSans" font-size="10.00" fill="#000000">PHG4Subsystem::GetTracking</text>
<text text-anchor="middle" x="403" y="-169.5" font-family="FreeSans" font-size="10.00" fill="#000000">Action</text>
</a>
</g>
</g>
<!-- Node6&#45;&gt;Node38 -->
<g id="edge42" class="edge">
<title>Node6&#45;&gt;Node38</title>
<path fill="none" stroke="#191970" d="M180.8987,-719.408C186.9943,-653.1991 224.3603,-281.2401 301,-203.5 303.87,-200.5888 307.0198,-197.9957 310.3782,-195.6875"/>
<polygon fill="#191970" stroke="#191970" points="312.2919,-198.622 319.1158,-190.5173 308.7272,-192.5976 312.2919,-198.622"/>
</g>
<!-- Node39 -->
<g id="node39" class="node">
<title>Node39</title>
<g id="a_node39"><a xlink:href="../../d3/d64/classPHG4UIsession.html#a6c62aa280017bbed8399feaa21c1b342" target="_top" xlink:title="PHG4UIsession::Verbosity">
<polygon fill="none" stroke="#000000" points="330,-123.5 330,-143.5 476,-143.5 476,-123.5 330,-123.5"/>
<text text-anchor="middle" x="403" y="-130.5" font-family="FreeSans" font-size="10.00" fill="#000000">PHG4UIsession::Verbosity</text>
</a>
</g>
</g>
<!-- Node6&#45;&gt;Node39 -->
<g id="edge43" class="edge">
<title>Node6&#45;&gt;Node39</title>
<path fill="none" stroke="#191970" d="M180.6301,-719.3034C185.1861,-648.9784 215.373,-236.2179 301,-152.5 306.49,-147.1324 312.9796,-143.0255 319.9838,-139.9082"/>
<polygon fill="#191970" stroke="#191970" points="321.6609,-143.0184 329.8082,-136.2455 319.2155,-136.4594 321.6609,-143.0184"/>
</g>
<!-- Node40 -->
<g id="node40" class="node">
<title>Node40</title>
<g id="a_node40"><a xlink:href="../../d2/da1/classPHGeomUtility.html#a3130e3b42131e3f048aa7586829192c5" target="_top" xlink:title="PHGeomUtility::GenerateGeometry\lFileName">
<polygon fill="none" stroke="#000000" points="306,-1164.5 306,-1196.5 500,-1196.5 500,-1164.5 306,-1164.5"/>
<text text-anchor="start" x="314" y="-1183.5" font-family="FreeSans" font-size="10.00" fill="#000000">PHGeomUtility::GenerateGeometry</text>
<text text-anchor="middle" x="403" y="-1171.5" font-family="FreeSans" font-size="10.00" fill="#000000">FileName</text>
</a>
</g>
</g>
<!-- Node6&#45;&gt;Node40 -->
<g id="edge44" class="edge">
<title>Node6&#45;&gt;Node40</title>
<path fill="none" stroke="#191970" d="M181.5337,-739.8576C190.4835,-798.9497 237.7555,-1092.9884 301,-1154.5 302.4738,-1155.9334 304.015,-1157.291 305.6149,-1158.5768"/>
<polygon fill="#191970" stroke="#191970" points="303.8485,-1161.6107 314.0628,-1164.4245 307.8326,-1155.8551 303.8485,-1161.6107"/>
</g>
<!-- Node41 -->
<g id="node41" class="node">
<title>Node41</title>
<g id="a_node41"><a xlink:href="../../d0/d78/classPHG4Reco.html#a490f5037508d384c5b60855ef0f7e227" target="_top" xlink:title="PHG4Reco::Dump_GDML">
<polygon fill="none" stroke="#000000" points="332.5,-1254.5 332.5,-1274.5 473.5,-1274.5 473.5,-1254.5 332.5,-1254.5"/>
<text text-anchor="middle" x="403" y="-1261.5" font-family="FreeSans" font-size="10.00" fill="#000000">PHG4Reco::Dump_GDML</text>
</a>
</g>
</g>
<!-- Node6&#45;&gt;Node41 -->
<g id="edge45" class="edge">
<title>Node6&#45;&gt;Node41</title>
<path fill="none" stroke="#191970" d="M181.4765,-739.582C190.6545,-801.184 241.4543,-1126.7895 301,-1205.5 316.697,-1226.2491 341.9718,-1240.9436 363.4339,-1250.4783"/>
<polygon fill="#191970" stroke="#191970" points="362.0939,-1253.7117 372.668,-1254.3751 364.8156,-1247.2624 362.0939,-1253.7117"/>
</g>
<!-- Node45 -->
<g id="node45" class="node">
<title>Node45</title>
<g id="a_node45"><a xlink:href="../../d2/da1/classPHGeomUtility.html#a4a80252bedb22198d011065e41aa669e" target="_top" xlink:title="TGeo ROOT/GDML/Macro file &#45;&gt; DST node with automatic file type discrimination based on file names...">
<polygon fill="none" stroke="#000000" points="315,-1332.5 315,-1352.5 491,-1352.5 491,-1332.5 315,-1332.5"/>
<text text-anchor="middle" x="403" y="-1339.5" font-family="FreeSans" font-size="10.00" fill="#000000">PHGeomUtility::ImportGeomFile</text>
</a>
</g>
</g>
<!-- Node6&#45;&gt;Node45 -->
<g id="edge51" class="edge">
<title>Node6&#45;&gt;Node45</title>
<path fill="none" stroke="#191970" d="M181.1167,-739.869C188.6122,-807.9313 233.3641,-1190.8739 301,-1283.5 316.238,-1304.3682 341.2699,-1319.0067 362.7217,-1328.4828"/>
<polygon fill="#191970" stroke="#191970" points="361.3908,-1331.7199 371.9666,-1332.354 364.0945,-1325.2631 361.3908,-1331.7199"/>
</g>
<!-- Node50 -->
<g id="node50" class="node">
<title>Node50</title>
<g id="a_node50"><a xlink:href="../../d2/da1/classPHGeomUtility.html#af9c141256e014a36b8af77075894b41f" target="_top" xlink:title="delete the geometry file after use">
<polygon fill="none" stroke="#000000" points="301,-1125.5 301,-1145.5 505,-1145.5 505,-1125.5 301,-1125.5"/>
<text text-anchor="middle" x="403" y="-1132.5" font-family="FreeSans" font-size="10.00" fill="#000000">PHGeomUtility::RemoveGeometryFile</text>
</a>
</g>
</g>
<!-- Node6&#45;&gt;Node50 -->
<g id="edge58" class="edge">
<title>Node6&#45;&gt;Node50</title>
<path fill="none" stroke="#191970" d="M181.817,-739.5093C191.9337,-794.1811 242.9554,-1056.2279 301,-1110.5 305.3938,-1114.6083 310.3493,-1118.0729 315.6486,-1120.9914"/>
<polygon fill="#191970" stroke="#191970" points="314.3228,-1124.2372 324.8531,-1125.4049 317.3494,-1117.9253 314.3228,-1124.2372"/>
</g>
<!-- Node8 -->
<g id="node8" class="node">
<title>Node8</title>
<g id="a_node8"><a xlink:href="../../d8/d14/classrecoConsts.html#ae882d6adc62f783ec78114fe3dee3c24" target="_top" xlink:title="recoConsts::recoConsts">
<polygon fill="none" stroke="#000000" points="561,-1047.5 561,-1067.5 696,-1067.5 696,-1047.5 561,-1047.5"/>
<text text-anchor="middle" x="628.5" y="-1054.5" font-family="FreeSans" font-size="10.00" fill="#000000">recoConsts::recoConsts</text>
</a>
</g>
</g>
<!-- Node7&#45;&gt;Node8 -->
<g id="edge8" class="edge">
<title>Node7&#45;&gt;Node8</title>
<path fill="none" stroke="#191970" d="M464.0235,-1057.5C490.6262,-1057.5 522.1338,-1057.5 550.4173,-1057.5"/>
<polygon fill="#191970" stroke="#191970" points="550.6766,-1061.0001 560.6766,-1057.5 550.6765,-1054.0001 550.6766,-1061.0001"/>
</g>
<!-- Node10 -->
<g id="node10" class="node">
<title>Node10</title>
<g id="a_node10"><a xlink:href="../../d1/da8/classPHFlag.html#a716bb770db79859a16e6b7bc45e03bbd" target="_top" xlink:title="PHFlag::set_CharFlag">
<polygon fill="none" stroke="#000000" points="567,-456.5 567,-476.5 690,-476.5 690,-456.5 567,-456.5"/>
<text text-anchor="middle" x="628.5" y="-463.5" font-family="FreeSans" font-size="10.00" fill="#000000">PHFlag::set_CharFlag</text>
</a>
</g>
</g>
<!-- Node9&#45;&gt;Node10 -->
<g id="edge10" class="edge">
<title>Node9&#45;&gt;Node10</title>
<path fill="none" stroke="#191970" d="M467.6192,-466.5C495.438,-466.5 528.0691,-466.5 556.6458,-466.5"/>
<polygon fill="#191970" stroke="#191970" points="556.9743,-470.0001 566.9743,-466.5 556.9742,-463.0001 556.9743,-470.0001"/>
</g>
<!-- Node12&#45;&gt;Node5 -->
<g id="edge13" class="edge">
<title>Node12&#45;&gt;Node5</title>
<path fill="none" stroke="#191970" d="M460.6999,-980.6844C476.3463,-983.4181 492.4189,-988.71 505,-998.5 535.1327,-1021.9478 511.3489,-1052.4462 541,-1076.5 544.7363,-1079.531 548.8442,-1082.1218 553.1796,-1084.3346"/>
<polygon fill="#191970" stroke="#191970" points="551.7888,-1087.5464 562.352,-1088.3653 554.6051,-1081.1379 551.7888,-1087.5464"/>
</g>
<!-- Node13 -->
<g id="node13" class="node">
<title>Node13</title>
<g id="a_node13"><a xlink:href="../../df/d4d/classPHFieldUtility.html#a3afdd4e878d02b30b6f2c396e52b8e48" target="_top" xlink:title="Get transient PHField from DST nodes. If not found, make a new one based on default_config.">
<polygon fill="none" stroke="#000000" points="563.5,-963.5 563.5,-995.5 693.5,-995.5 693.5,-963.5 563.5,-963.5"/>
<text text-anchor="start" x="571.5" y="-982.5" font-family="FreeSans" font-size="10.00" fill="#000000">PHFieldUtility::GetField</text>
<text text-anchor="middle" x="628.5" y="-970.5" font-family="FreeSans" font-size="10.00" fill="#000000">MapNode</text>
</a>
</g>
</g>
<!-- Node12&#45;&gt;Node13 -->
<g id="edge14" class="edge">
<title>Node12&#45;&gt;Node13</title>
<path fill="none" stroke="#191970" d="M460.779,-979.5C488.9166,-979.5 523.1015,-979.5 553.2496,-979.5"/>
<polygon fill="#191970" stroke="#191970" points="553.3045,-983.0001 563.3044,-979.5 553.3044,-976.0001 553.3045,-983.0001"/>
</g>
<!-- Node13&#45;&gt;Node14 -->
<g id="edge15" class="edge">
<title>Node13&#45;&gt;Node14</title>
<path fill="none" stroke="#191970" d="M654.8669,-995.5099C672.617,-1006.6385 696.2905,-1022.1715 716,-1037.5 758.0281,-1070.1862 803.2744,-1113.2647 827.4255,-1136.9726"/>
<polygon fill="#191970" stroke="#191970" points="825.1973,-1139.6911 834.7721,-1144.2271 830.1158,-1134.7103 825.1973,-1139.6911"/>
</g>
<!-- Node13&#45;&gt;Node15 -->
<g id="edge16" class="edge">
<title>Node13&#45;&gt;Node15</title>
<path fill="none" stroke="#191970" d="M693.7507,-979.5C716.7376,-979.5 742.8133,-979.5 766.7614,-979.5"/>
<polygon fill="#191970" stroke="#191970" points="766.8793,-983.0001 776.8793,-979.5 766.8793,-976.0001 766.8793,-983.0001"/>
</g>
<!-- Node16 -->
<g id="node16" class="node">
<title>Node16</title>
<g id="a_node16"><a xlink:href="../../d5/d07/classPHNodeIterator.html#aea98bf8619af59b1212a94fb32106baa" target="_top" xlink:title="PHNodeIterator::findFirst">
<polygon fill="none" stroke="#000000" points="774.5,-97.5 774.5,-117.5 915.5,-117.5 915.5,-97.5 774.5,-97.5"/>
<text text-anchor="middle" x="845" y="-104.5" font-family="FreeSans" font-size="10.00" fill="#000000">PHNodeIterator::findFirst</text>
</a>
</g>
</g>
<!-- Node13&#45;&gt;Node16 -->
<g id="edge17" class="edge">
<title>Node13&#45;&gt;Node16</title>
<path fill="none" stroke="#191970" d="M632.5365,-963.242C659.2574,-855.6181 810.4967,-246.4693 840.0076,-127.608"/>
<polygon fill="#191970" stroke="#191970" points="843.4624,-128.2179 842.4752,-117.6691 836.6686,-126.5311 843.4624,-128.2179"/>
</g>
<!-- Node16&#45;&gt;Node16 -->
<g id="edge20" class="edge">
<title>Node16&#45;&gt;Node16</title>
<path fill="none" stroke="#191970" d="M814.9414,-117.7271C801.2305,-126.6067 811.25,-136 845,-136 868.2031,-136 880.1899,-131.5602 880.9603,-125.8999"/>
<polygon fill="#191970" stroke="#191970" points="883.7505,-123.7853 875.0586,-117.7271 878.0755,-127.8833 883.7505,-123.7853"/>
</g>
<!-- Node17 -->
<g id="node17" class="node">
<title>Node17</title>
<g id="a_node17"><a xlink:href="../../dc/d82/classPHNode.html#a4ab1f90aed955a652813bfe377087bda" target="_top" xlink:title="PHNode::getType">
<polygon fill="none" stroke="#000000" points="986.5,-117.5 986.5,-137.5 1089.5,-137.5 1089.5,-117.5 986.5,-117.5"/>
<text text-anchor="middle" x="1038" y="-124.5" font-family="FreeSans" font-size="10.00" fill="#000000">PHNode::getType</text>
</a>
</g>
</g>
<!-- Node16&#45;&gt;Node17 -->
<g id="edge18" class="edge">
<title>Node16&#45;&gt;Node17</title>
<path fill="none" stroke="#191970" d="M915.7702,-114.8337C935.559,-116.8844 956.9051,-119.0964 976.1355,-121.0892"/>
<polygon fill="#191970" stroke="#191970" points="975.97,-124.5907 986.2776,-122.1402 976.6916,-117.628 975.97,-124.5907"/>
</g>
<!-- Node18 -->
<g id="node18" class="node">
<title>Node18</title>
<g id="a_node18"><a xlink:href="../../dc/d82/classPHNode.html#aca3576f926a4401eddc3d88bf0ce0de3" target="_top" xlink:title="PHNode::getName">
<polygon fill="none" stroke="#000000" points="983.5,-78.5 983.5,-98.5 1092.5,-98.5 1092.5,-78.5 983.5,-78.5"/>
<text text-anchor="middle" x="1038" y="-85.5" font-family="FreeSans" font-size="10.00" fill="#000000">PHNode::getName</text>
</a>
</g>
</g>
<!-- Node16&#45;&gt;Node18 -->
<g id="edge19" class="edge">
<title>Node16&#45;&gt;Node18</title>
<path fill="none" stroke="#191970" d="M915.7702,-100.533C934.5601,-98.6832 954.754,-96.6952 973.2076,-94.8785"/>
<polygon fill="#191970" stroke="#191970" points="973.6516,-98.3518 983.2605,-93.8889 972.9657,-91.3855 973.6516,-98.3518"/>
</g>
<!-- Node29&#45;&gt;Node16 -->
<g id="edge32" class="edge">
<title>Node29&#45;&gt;Node16</title>
<path fill="none" stroke="#191970" d="M688.2327,-65.5023C722.679,-74.7304 765.3895,-86.1725 797.5268,-94.782"/>
<polygon fill="#191970" stroke="#191970" points="797.0005,-98.2644 807.5656,-97.4714 798.812,-91.5028 797.0005,-98.2644"/>
</g>
<!-- Node30 -->
<g id="node30" class="node">
<title>Node30</title>
<g id="a_node30"><a xlink:href="../../d5/dca/classPHCompositeNode.html#a15a0c4804399a9de4267647f05bd1ba4" target="_top" xlink:title="PHCompositeNode::addNode">
<polygon fill="none" stroke="#000000" points="764,-39.5 764,-59.5 926,-59.5 926,-39.5 764,-39.5"/>
<text text-anchor="middle" x="845" y="-46.5" font-family="FreeSans" font-size="10.00" fill="#000000">PHCompositeNode::addNode</text>
</a>
</g>
</g>
<!-- Node29&#45;&gt;Node30 -->
<g id="edge33" class="edge">
<title>Node29&#45;&gt;Node30</title>
<path fill="none" stroke="#191970" d="M708.1943,-49.5C722.8886,-49.5 738.339,-49.5 753.3528,-49.5"/>
<polygon fill="#191970" stroke="#191970" points="753.6627,-53.0001 763.6627,-49.5 753.6626,-46.0001 753.6627,-53.0001"/>
</g>
<!-- Node30&#45;&gt;Node18 -->
<g id="edge34" class="edge">
<title>Node30&#45;&gt;Node18</title>
<path fill="none" stroke="#191970" d="M894.7023,-59.5435C920.2537,-64.7067 951.5807,-71.037 978.4206,-76.4606"/>
<polygon fill="#191970" stroke="#191970" points="977.971,-79.9405 988.4661,-78.4906 979.3575,-73.0791 977.971,-79.9405"/>
</g>
<!-- Node31 -->
<g id="node31" class="node">
<title>Node31</title>
<g id="a_node31"><a xlink:href="../../dc/d82/classPHNode.html#adda2bd6cef2d5067bbe3016a990b7198" target="_top" xlink:title="PHNode::setParent">
<polygon fill="none" stroke="#000000" points="982.5,-39.5 982.5,-59.5 1093.5,-59.5 1093.5,-39.5 982.5,-39.5"/>
<text text-anchor="middle" x="1038" y="-46.5" font-family="FreeSans" font-size="10.00" fill="#000000">PHNode::setParent</text>
</a>
</g>
</g>
<!-- Node30&#45;&gt;Node31 -->
<g id="edge35" class="edge">
<title>Node30&#45;&gt;Node31</title>
<path fill="none" stroke="#191970" d="M926.0105,-49.5C941.4325,-49.5 957.3965,-49.5 972.271,-49.5"/>
<polygon fill="#191970" stroke="#191970" points="972.3747,-53.0001 982.3747,-49.5 972.3746,-46.0001 972.3747,-53.0001"/>
</g>
<!-- Node32 -->
<g id="node32" class="node">
<title>Node32</title>
<g id="a_node32"><a xlink:href="../../d6/d86/classPHPointerList.html#ac2176735e9d046a034f1686fd2c477eb" target="_top" xlink:title="PHPointerList::append">
<polygon fill="none" stroke="#000000" points="974,-.5 974,-20.5 1102,-20.5 1102,-.5 974,-.5"/>
<text text-anchor="middle" x="1038" y="-7.5" font-family="FreeSans" font-size="10.00" fill="#000000">PHPointerList::append</text>
</a>
</g>
</g>
<!-- Node30&#45;&gt;Node32 -->
<g id="edge36" class="edge">
<title>Node30&#45;&gt;Node32</title>
<path fill="none" stroke="#191970" d="M894.7023,-39.4565C920.2537,-34.2933 951.5807,-27.963 978.4206,-22.5394"/>
<polygon fill="#191970" stroke="#191970" points="979.3575,-25.9209 988.4661,-20.5094 977.971,-19.0595 979.3575,-25.9209"/>
</g>
<!-- Node42 -->
<g id="node42" class="node">
<title>Node42</title>
<g id="a_node42"><a xlink:href="../../d9/df8/classPHG4GDMLUtility.html#adb03ec38807279cb5abaf38987c5a73f" target="_top" xlink:title="save the current Geant4 geometry to GDML file. Reading PHG4GDMLConfig from topNode">
<polygon fill="none" stroke="#000000" points="541,-1164.5 541,-1184.5 716,-1184.5 716,-1164.5 541,-1164.5"/>
<text text-anchor="middle" x="628.5" y="-1171.5" font-family="FreeSans" font-size="10.00" fill="#000000">PHG4GDMLUtility::Dump_GDML</text>
</a>
</g>
</g>
<!-- Node41&#45;&gt;Node42 -->
<g id="edge46" class="edge">
<title>Node41&#45;&gt;Node42</title>
<path fill="none" stroke="#191970" d="M454.3292,-1254.4981C470.7741,-1250.6139 488.8895,-1245.6086 505,-1239.5 540.7584,-1225.9416 579.3694,-1204.3935 603.7226,-1189.8618"/>
<polygon fill="#191970" stroke="#191970" points="605.5724,-1192.8334 612.3225,-1184.6671 601.9532,-1186.8416 605.5724,-1192.8334"/>
</g>
<!-- Node44 -->
<g id="node44" class="node">
<title>Node44</title>
<g id="a_node44"><a xlink:href="../../d1/d13/classPHG4PhenixDetector.html#a08f9f09748e767ac536249ac56995fd2" target="_top" xlink:title="PHG4PhenixDetector\l::GetPhysicalVolume">
<polygon fill="none" stroke="#000000" points="567.5,-1242.5 567.5,-1274.5 689.5,-1274.5 689.5,-1242.5 567.5,-1242.5"/>
<text text-anchor="start" x="575.5" y="-1261.5" font-family="FreeSans" font-size="10.00" fill="#000000">PHG4PhenixDetector</text>
<text text-anchor="middle" x="628.5" y="-1249.5" font-family="FreeSans" font-size="10.00" fill="#000000">::GetPhysicalVolume</text>
</a>
</g>
</g>
<!-- Node41&#45;&gt;Node44 -->
<g id="edge50" class="edge">
<title>Node41&#45;&gt;Node44</title>
<path fill="none" stroke="#191970" d="M473.7309,-1262.618C500.3023,-1261.911 530.5069,-1261.1074 557.1355,-1260.3988"/>
<polygon fill="#191970" stroke="#191970" points="557.2478,-1263.8972 567.1511,-1260.1323 557.0615,-1256.8997 557.2478,-1263.8972"/>
</g>
<!-- Node42&#45;&gt;Node14 -->
<g id="edge47" class="edge">
<title>Node42&#45;&gt;Node14</title>
<path fill="none" stroke="#191970" d="M716.2467,-1166.3941C732.9423,-1164.8517 750.3133,-1163.247 766.6917,-1161.734"/>
<polygon fill="#191970" stroke="#191970" points="767.1109,-1165.2103 776.7465,-1160.8052 766.4669,-1158.24 767.1109,-1165.2103"/>
</g>
<!-- Node42&#45;&gt;Node15 -->
<g id="edge48" class="edge">
<title>Node42&#45;&gt;Node15</title>
<path fill="none" stroke="#191970" d="M645.7288,-1164.4381C663.9662,-1153.4397 693.2072,-1134.797 716,-1115.5 761.0475,-1077.3615 807.0153,-1024.9993 829.9881,-997.7112"/>
<polygon fill="#191970" stroke="#191970" points="832.8858,-999.7016 836.6084,-989.7823 827.5125,-995.2151 832.8858,-999.7016"/>
</g>
<!-- Node43 -->
<g id="node43" class="node">
<title>Node43</title>
<g id="a_node43"><a xlink:href="../../dd/db5/classPHG4GDMLWrite.html#af4241e53bb71408c9bf11117053f9810" target="_top" xlink:title="PHG4GDMLWrite::Write">
<polygon fill="none" stroke="#ff0000" points="778.5,-1183.5 778.5,-1203.5 911.5,-1203.5 911.5,-1183.5 778.5,-1183.5"/>
<text text-anchor="middle" x="845" y="-1190.5" font-family="FreeSans" font-size="10.00" fill="#000000">PHG4GDMLWrite::Write</text>
</a>
</g>
</g>
<!-- Node42&#45;&gt;Node43 -->
<g id="edge49" class="edge">
<title>Node42&#45;&gt;Node43</title>
<path fill="none" stroke="#191970" d="M716.2467,-1182.2006C733.4277,-1183.7084 751.3238,-1185.279 768.1175,-1186.7528"/>
<polygon fill="#191970" stroke="#191970" points="768.1476,-1190.2688 778.4153,-1187.6565 768.7596,-1183.2956 768.1476,-1190.2688"/>
</g>
<!-- Node46 -->
<g id="node46" class="node">
<title>Node46</title>
<g id="a_node46"><a xlink:href="../../d7/d6d/classPHGeomTGeo.html#af0772491188524c7674c1ef004d49ad5" target="_top" xlink:title="Clear Event.">
<polygon fill="none" stroke="#000000" points="567.5,-1410.5 567.5,-1430.5 689.5,-1430.5 689.5,-1410.5 567.5,-1410.5"/>
<text text-anchor="middle" x="628.5" y="-1417.5" font-family="FreeSans" font-size="10.00" fill="#000000">PHGeomTGeo::Reset</text>
</a>
</g>
</g>
<!-- Node45&#45;&gt;Node46 -->
<g id="edge52" class="edge">
<title>Node45&#45;&gt;Node46</title>
<path fill="none" stroke="#191970" d="M481.4089,-1352.5373C489.6451,-1355.1415 497.6746,-1358.4073 505,-1362.5 525.593,-1374.0053 520.5243,-1389.7872 541,-1401.5 546.1865,-1404.4668 551.7881,-1406.9711 557.5633,-1409.0848"/>
<polygon fill="#191970" stroke="#191970" points="556.8114,-1412.5207 567.4037,-1412.286 558.977,-1405.864 556.8114,-1412.5207"/>
</g>
<!-- Node48 -->
<g id="node48" class="node">
<title>Node48</title>
<g id="a_node48"><a xlink:href="../../d7/d6d/classPHGeomTGeo.html#a8b2df41583e27a653458c6aae76a2926" target="_top" xlink:title="PHGeomTGeo::SetGeometry">
<polygon fill="none" stroke="#ff0000" points="548.5,-1371.5 548.5,-1391.5 708.5,-1391.5 708.5,-1371.5 548.5,-1371.5"/>
<text text-anchor="middle" x="628.5" y="-1378.5" font-family="FreeSans" font-size="10.00" fill="#000000">PHGeomTGeo::SetGeometry</text>
</a>
</g>
</g>
<!-- Node45&#45;&gt;Node48 -->
<g id="edge54" class="edge">
<title>Node45&#45;&gt;Node48</title>
<path fill="none" stroke="#191970" d="M461.0719,-1352.5435C491.452,-1357.7977 528.8202,-1364.2605 560.5406,-1369.7465"/>
<polygon fill="#191970" stroke="#191970" points="560.1747,-1373.2351 570.6249,-1371.4906 561.3677,-1366.3375 560.1747,-1373.2351"/>
</g>
<!-- Node49 -->
<g id="node49" class="node">
<title>Node49</title>
<g id="a_node49"><a xlink:href="../../d7/d6d/classPHGeomTGeo.html#a3e111f6229f7ce6392b14a98fdf5bea9" target="_top" xlink:title="PHGeomTGeo::GetGeometry">
<polygon fill="none" stroke="#000000" points="547.5,-1332.5 547.5,-1352.5 709.5,-1352.5 709.5,-1332.5 547.5,-1332.5"/>
<text text-anchor="middle" x="628.5" y="-1339.5" font-family="FreeSans" font-size="10.00" fill="#000000">PHGeomTGeo::GetGeometry</text>
</a>
</g>
</g>
<!-- Node45&#45;&gt;Node49 -->
<g id="edge56" class="edge">
<title>Node45&#45;&gt;Node49</title>
<path fill="none" stroke="#191970" d="M491.153,-1342.5C506.208,-1342.5 521.8779,-1342.5 537.0171,-1342.5"/>
<polygon fill="#191970" stroke="#191970" points="537.3992,-1346.0001 547.3992,-1342.5 537.3992,-1339.0001 537.3992,-1346.0001"/>
</g>
<!-- Node47 -->
<g id="node47" class="node">
<title>Node47</title>
<g id="a_node47"><a xlink:href="../../d7/d6d/classPHGeomTGeo.html#af37739b87530fe2bbd5d8d03098c1821" target="_top" xlink:title="PHGeomTGeo::ConsistencyCheck">
<polygon fill="none" stroke="#ff0000" points="752,-1371.5 752,-1391.5 938,-1391.5 938,-1371.5 752,-1371.5"/>
<text text-anchor="middle" x="845" y="-1378.5" font-family="FreeSans" font-size="10.00" fill="#000000">PHGeomTGeo::ConsistencyCheck</text>
</a>
</g>
</g>
<!-- Node46&#45;&gt;Node47 -->
<g id="edge53" class="edge">
<title>Node46&#45;&gt;Node47</title>
<path fill="none" stroke="#191970" d="M684.2541,-1410.4565C713.2955,-1405.2251 748.9881,-1398.7954 779.3571,-1393.3248"/>
<polygon fill="#191970" stroke="#191970" points="780.2137,-1396.7269 789.4348,-1391.5094 778.9727,-1389.8378 780.2137,-1396.7269"/>
</g>
<!-- Node48&#45;&gt;Node47 -->
<g id="edge55" class="edge">
<title>Node48&#45;&gt;Node47</title>
<path fill="none" stroke="#191970" d="M708.5015,-1381.5C719.2916,-1381.5 730.4843,-1381.5 741.6085,-1381.5"/>
<polygon fill="#191970" stroke="#191970" points="741.7918,-1385.0001 751.7917,-1381.5 741.7917,-1378.0001 741.7918,-1385.0001"/>
</g>
<!-- Node49&#45;&gt;Node47 -->
<g id="edge57" class="edge">
<title>Node49&#45;&gt;Node47</title>
<path fill="none" stroke="#191970" d="M684.2541,-1352.5435C713.2955,-1357.7749 748.9881,-1364.2046 779.3571,-1369.6752"/>
<polygon fill="#191970" stroke="#191970" points="778.9727,-1373.1622 789.4348,-1371.4906 780.2137,-1366.2731 778.9727,-1373.1622"/>
</g>
</g>
</svg>
