<?xml version="1.0" encoding="UTF-8" standalone="no"?>
<!DOCTYPE svg PUBLIC "-//W3C//DTD SVG 1.1//EN"
 "http://www.w3.org/Graphics/SVG/1.1/DTD/svg11.dtd">
<!-- Generated by graphviz version 2.40.1 (20161225.0304)
 -->
<!-- Title: RICHInit Pages: 1 -->
<svg width="365pt" height="830pt"
 viewBox="0.00 0.00 365.00 830.00" xmlns="http://www.w3.org/2000/svg" xmlns:xlink="http://www.w3.org/1999/xlink">
<g id="graph0" class="graph" transform="scale(1 1) rotate(0) translate(4 826)">
<title>RICHInit</title>
<!-- Node1 -->
<g id="node1" class="node">
<title>Node1</title>
<polygon fill="#bfbfbf" stroke="#000000" points="0,-418.5 0,-438.5 57,-438.5 57,-418.5 0,-418.5"/>
<text text-anchor="middle" x="28.5" y="-425.5" font-family="FreeSans" font-size="10.00" fill="#000000">RICHInit</text>
</g>
<!-- Node2 -->
<g id="node2" class="node">
<title>Node2</title>
<g id="a_node2"><a xlink:href="../../df/d34/G4Setup__LBLDetector_8C.html#a1bc4152d1a11b8b2ca2695f72e141980" target="_top" xlink:title="G4Init">
<polygon fill="none" stroke="#000000" points="93,-418.5 93,-438.5 140,-438.5 140,-418.5 93,-418.5"/>
<text text-anchor="middle" x="116.5" y="-425.5" font-family="FreeSans" font-size="10.00" fill="#000000">G4Init</text>
</a>
</g>
</g>
<!-- Node1&#45;&gt;Node2 -->
<g id="edge1" class="edge">
<title>Node1&#45;&gt;Node2</title>
<path fill="none" stroke="#191970" d="M67.3348,-428.5C76.049,-428.5 85.0372,-428.5 92.9068,-428.5"/>
<polygon fill="#191970" stroke="#191970" points="67.3145,-425.0001 57.3145,-428.5 67.3145,-432.0001 67.3145,-425.0001"/>
</g>
<!-- Node3 -->
<g id="node3" class="node">
<title>Node3</title>
<g id="a_node3"><a xlink:href="../../d9/d8a/Extract__ECCE__gdml_8C.html#adef1108aefc699a7368616b4d8f77723" target="_top" xlink:title="Extract_ECCE_gdml">
<polygon fill="none" stroke="#000000" points="209.5,-801.5 209.5,-821.5 323.5,-821.5 323.5,-801.5 209.5,-801.5"/>
<text text-anchor="middle" x="266.5" y="-808.5" font-family="FreeSans" font-size="10.00" fill="#000000">Extract_ECCE_gdml</text>
</a>
</g>
</g>
<!-- Node2&#45;&gt;Node3 -->
<g id="edge2" class="edge">
<title>Node2&#45;&gt;Node3</title>
<path fill="none" stroke="#191970" d="M116.9043,-448.7444C118.7087,-517.7914 128.215,-742.5192 176,-792.5 184.7646,-801.6673 196.7381,-806.986 209.1053,-809.9585"/>
<polygon fill="#191970" stroke="#191970" points="120.4027,-448.6325 116.6693,-438.7173 113.4046,-448.7966 120.4027,-448.6325"/>
</g>
<!-- Node4 -->
<g id="node4" class="node">
<title>Node4</title>
<g id="a_node4"><a xlink:href="../../db/d7c/Fun4All__G4__CEMC_8C.html#a27c34234bed188f890585d67d12da1ff" target="_top" xlink:title="Fun4All_G4_CEMC">
<polygon fill="none" stroke="#000000" points="213,-762.5 213,-782.5 320,-782.5 320,-762.5 213,-762.5"/>
<text text-anchor="middle" x="266.5" y="-769.5" font-family="FreeSans" font-size="10.00" fill="#000000">Fun4All_G4_CEMC</text>
</a>
</g>
</g>
<!-- Node2&#45;&gt;Node4 -->
<g id="edge3" class="edge">
<title>Node2&#45;&gt;Node4</title>
<path fill="none" stroke="#191970" d="M117.3343,-448.6182C120.4061,-512.5765 133.2309,-709.61 176,-753.5 185.7478,-763.5033 199.3223,-768.9018 212.9968,-771.6701"/>
<polygon fill="#191970" stroke="#191970" points="120.8295,-448.4309 116.8821,-438.5989 113.8366,-448.7466 120.8295,-448.4309"/>
</g>
<!-- Node5 -->
<g id="node5" class="node">
<title>Node5</title>
<g id="a_node5"><a xlink:href="../../d4/d3e/Fun4All__G4__FEMC_8C.html#ac27e1f27ebd448c199bef7b87b857324" target="_top" xlink:title="Fun4All_G4_FEMC">
<polygon fill="none" stroke="#000000" points="213.5,-723.5 213.5,-743.5 319.5,-743.5 319.5,-723.5 213.5,-723.5"/>
<text text-anchor="middle" x="266.5" y="-730.5" font-family="FreeSans" font-size="10.00" fill="#000000">Fun4All_G4_FEMC</text>
</a>
</g>
</g>
<!-- Node2&#45;&gt;Node5 -->
<g id="edge4" class="edge">
<title>Node2&#45;&gt;Node5</title>
<path fill="none" stroke="#191970" d="M117.8989,-448.8383C122.3709,-507.7505 138.2957,-676.7269 176,-714.5 185.8673,-724.3854 199.4802,-729.7461 213.1531,-732.5159"/>
<polygon fill="#191970" stroke="#191970" points="121.3701,-448.3147 117.1541,-438.5948 114.3886,-448.8224 121.3701,-448.3147"/>
</g>
<!-- Node6 -->
<g id="node6" class="node">
<title>Node6</title>
<g id="a_node6"><a xlink:href="../../d8/ddf/Fun4All__G4__FHCAL_8C.html#a30335378765e08d065753b87cb2b120d" target="_top" xlink:title="Fun4All_G4_FHCAL">
<polygon fill="none" stroke="#000000" points="211,-684.5 211,-704.5 322,-704.5 322,-684.5 211,-684.5"/>
<text text-anchor="middle" x="266.5" y="-691.5" font-family="FreeSans" font-size="10.00" fill="#000000">Fun4All_G4_FHCAL</text>
</a>
</g>
</g>
<!-- Node2&#45;&gt;Node6 -->
<g id="edge5" class="edge">
<title>Node2&#45;&gt;Node6</title>
<path fill="none" stroke="#191970" d="M118.6205,-448.8236C124.591,-502.072 143.2749,-643.7247 176,-675.5 185.4448,-684.6707 198.1243,-689.9158 210.9973,-692.8092"/>
<polygon fill="#191970" stroke="#191970" points="122.0704,-448.1721 117.511,-438.6085 115.1113,-448.928 122.0704,-448.1721"/>
</g>
<!-- Node7 -->
<g id="node7" class="node">
<title>Node7</title>
<g id="a_node7"><a xlink:href="../../da/d70/Fun4All__G4__HCALIN_8C.html#a6fd66cf9b4b0c6284f16a98787342734" target="_top" xlink:title="Fun4All_G4_HCALIN">
<polygon fill="none" stroke="#000000" points="209,-645.5 209,-665.5 324,-665.5 324,-645.5 209,-645.5"/>
<text text-anchor="middle" x="266.5" y="-652.5" font-family="FreeSans" font-size="10.00" fill="#000000">Fun4All_G4_HCALIN</text>
</a>
</g>
</g>
<!-- Node2&#45;&gt;Node7 -->
<g id="edge6" class="edge">
<title>Node2&#45;&gt;Node7</title>
<path fill="none" stroke="#191970" d="M119.5829,-448.6877C127.1733,-495.7301 148.1881,-610.6134 176,-636.5 185.0487,-644.9223 196.8416,-649.997 208.9091,-652.9759"/>
<polygon fill="#191970" stroke="#191970" points="122.9953,-447.857 117.9828,-438.5229 116.0805,-448.9456 122.9953,-447.857"/>
</g>
<!-- Node8 -->
<g id="node8" class="node">
<title>Node8</title>
<g id="a_node8"><a xlink:href="../../d5/d4e/Fun4All__G4__HCALOUT_8C.html#ab1b085728b3dfbd312c405b6aa0e31b9" target="_top" xlink:title="Fun4All_G4_HCALOUT">
<polygon fill="none" stroke="#000000" points="203,-606.5 203,-626.5 330,-626.5 330,-606.5 203,-606.5"/>
<text text-anchor="middle" x="266.5" y="-613.5" font-family="FreeSans" font-size="10.00" fill="#000000">Fun4All_G4_HCALOUT</text>
</a>
</g>
</g>
<!-- Node2&#45;&gt;Node8 -->
<g id="edge7" class="edge">
<title>Node2&#45;&gt;Node8</title>
<path fill="none" stroke="#191970" d="M120.9913,-448.6709C130.3695,-488.9928 153.0713,-577.4058 176,-597.5 183.6065,-604.1662 192.9501,-608.702 202.7151,-611.7524"/>
<polygon fill="#191970" stroke="#191970" points="124.3948,-447.8535 118.7579,-438.8827 117.5702,-449.4108 124.3948,-447.8535"/>
</g>
<!-- Node9 -->
<g id="node9" class="node">
<title>Node9</title>
<g id="a_node9"><a xlink:href="../../d8/d14/Fun4All__G4__Babar_8C.html#ae3babc7f493f8a671f129ef3084ebc23" target="_top" xlink:title="Fun4All_G4_Babar">
<polygon fill="none" stroke="#000000" points="212,-567.5 212,-587.5 321,-587.5 321,-567.5 212,-567.5"/>
<text text-anchor="middle" x="266.5" y="-574.5" font-family="FreeSans" font-size="10.00" fill="#000000">Fun4All_G4_Babar</text>
</a>
</g>
</g>
<!-- Node2&#45;&gt;Node9 -->
<g id="edge8" class="edge">
<title>Node2&#45;&gt;Node9</title>
<path fill="none" stroke="#191970" d="M119.89,-448.6927C125.8608,-477.6662 141.098,-530.6064 176,-558.5 186.1584,-566.6186 198.9487,-571.5018 211.6883,-574.3842"/>
<polygon fill="#191970" stroke="#191970" points="123.3288,-448.0407 118.0336,-438.864 116.4504,-449.3399 123.3288,-448.0407"/>
</g>
<!-- Node10 -->
<g id="node10" class="node">
<title>Node10</title>
<g id="a_node10"><a xlink:href="../../de/dcc/Fun4All__G4__Cleo_8C.html#ae4d584d6f7864ddc358a5cb1bf03bfa5" target="_top" xlink:title="Fun4All_G4_Cleo">
<polygon fill="none" stroke="#000000" points="216.5,-528.5 216.5,-548.5 316.5,-548.5 316.5,-528.5 216.5,-528.5"/>
<text text-anchor="middle" x="266.5" y="-535.5" font-family="FreeSans" font-size="10.00" fill="#000000">Fun4All_G4_Cleo</text>
</a>
</g>
</g>
<!-- Node2&#45;&gt;Node10 -->
<g id="edge9" class="edge">
<title>Node2&#45;&gt;Node10</title>
<path fill="none" stroke="#191970" d="M123.9438,-448.1208C132.9771,-469.1646 150.2664,-501.92 176,-519.5 187.7981,-527.5599 202.3311,-532.3121 216.2714,-535.0823"/>
<polygon fill="#191970" stroke="#191970" points="127.0775,-446.5349 120.0714,-438.5873 120.5921,-449.1693 127.0775,-446.5349"/>
</g>
<!-- Node11 -->
<g id="node11" class="node">
<title>Node11</title>
<g id="a_node11"><a xlink:href="../../d4/d50/fun4all__eicmacros_2blob_2master_2detectors_2AllSilicon_2Development_2Fun4All__G4__sPHENIX__particle__gen_8C.html#a381adc702b7bfb99356660cdb6407e70" target="_top" xlink:title="Fun4All_G4_sPHENIX\l_particle_gen">
<polygon fill="none" stroke="#000000" points="206,-477.5 206,-509.5 327,-509.5 327,-477.5 206,-477.5"/>
<text text-anchor="start" x="214" y="-496.5" font-family="FreeSans" font-size="10.00" fill="#000000">Fun4All_G4_sPHENIX</text>
<text text-anchor="middle" x="266.5" y="-484.5" font-family="FreeSans" font-size="10.00" fill="#000000">_particle_gen</text>
</a>
</g>
</g>
<!-- Node2&#45;&gt;Node11 -->
<g id="edge10" class="edge">
<title>Node2&#45;&gt;Node11</title>
<path fill="none" stroke="#191970" d="M137.13,-444.7903C148.1538,-452.8528 162.2561,-462.1852 176,-468.5 185.3313,-472.7874 195.5508,-476.4787 205.6561,-479.6075"/>
<polygon fill="#191970" stroke="#191970" points="139.1084,-441.8988 129.0147,-438.6786 134.8972,-447.4904 139.1084,-441.8988"/>
</g>
<!-- Node12 -->
<g id="node12" class="node">
<title>Node12</title>
<g id="a_node12"><a xlink:href="../../d9/d18/Fun4All__G4__LBLDetector_8C.html#acc03ebe198962a7abb94f5c42641bfc9" target="_top" xlink:title="Fun4All_G4_LBLDetector">
<polygon fill="none" stroke="#000000" points="196.5,-438.5 196.5,-458.5 336.5,-458.5 336.5,-438.5 196.5,-438.5"/>
<text text-anchor="middle" x="266.5" y="-445.5" font-family="FreeSans" font-size="10.00" fill="#000000">Fun4All_G4_LBLDetector</text>
</a>
</g>
</g>
<!-- Node2&#45;&gt;Node12 -->
<g id="edge11" class="edge">
<title>Node2&#45;&gt;Node12</title>
<path fill="none" stroke="#191970" d="M150.5499,-433.04C164.1293,-434.8506 180.2916,-437.0055 196.1734,-439.1231"/>
<polygon fill="#191970" stroke="#191970" points="150.6428,-429.5215 140.2679,-431.6691 149.7176,-436.4601 150.6428,-429.5215"/>
</g>
<!-- Node13 -->
<g id="node13" class="node">
<title>Node13</title>
<g id="a_node13"><a xlink:href="../../df/d9d/fun4all__eicmacros_2blob_2master_2detectors_2Beast_2Fun4All__G4__Beast_8C.html#aa12a55b170fc12d7549cea7cc497eb38" target="_top" xlink:title="Fun4All_G4_Beast">
<polygon fill="none" stroke="#000000" points="213,-399.5 213,-419.5 320,-419.5 320,-399.5 213,-399.5"/>
<text text-anchor="middle" x="266.5" y="-406.5" font-family="FreeSans" font-size="10.00" fill="#000000">Fun4All_G4_Beast</text>
</a>
</g>
</g>
<!-- Node2&#45;&gt;Node13 -->
<g id="edge12" class="edge">
<title>Node2&#45;&gt;Node13</title>
<path fill="none" stroke="#191970" d="M150.2653,-424.2231C168.7538,-421.8812 192.0931,-418.9249 212.9984,-416.2769"/>
<polygon fill="#191970" stroke="#191970" points="149.7488,-420.7604 140.2679,-425.4894 150.6285,-427.7049 149.7488,-420.7604"/>
</g>
<!-- Node14 -->
<g id="node14" class="node">
<title>Node14</title>
<g id="a_node14"><a xlink:href="../../d4/dd7/fun4all__eicmacros_2blob_2master_2detectors_2EICDetector_2Fun4All__G4__EICDetector_8C.html#add9dee08cdb08b59c0b3870bb04994d9" target="_top" xlink:title="Fun4All_G4_EICDetector">
<polygon fill="none" stroke="#000000" points="197,-360.5 197,-380.5 336,-380.5 336,-360.5 197,-360.5"/>
<text text-anchor="middle" x="266.5" y="-367.5" font-family="FreeSans" font-size="10.00" fill="#000000">Fun4All_G4_EICDetector</text>
</a>
</g>
</g>
<!-- Node2&#45;&gt;Node14 -->
<g id="edge13" class="edge">
<title>Node2&#45;&gt;Node14</title>
<path fill="none" stroke="#191970" d="M137.8748,-412.2497C148.7798,-404.6523 162.5542,-396.073 176,-390.5 185.662,-386.4953 196.2519,-383.2348 206.6756,-380.5989"/>
<polygon fill="#191970" stroke="#191970" points="135.5269,-409.6275 129.4596,-418.313 139.619,-415.3068 135.5269,-409.6275"/>
</g>
<!-- Node15 -->
<g id="node15" class="node">
<title>Node15</title>
<g id="a_node15"><a xlink:href="../../d7/d9e/Fun4All__G4__fsPHENIX_8C.html#a75e8ef26e92f882a865536a3e16244c5" target="_top" xlink:title="Fun4All_G4_fsPHENIX">
<polygon fill="none" stroke="#000000" points="204.5,-321.5 204.5,-341.5 328.5,-341.5 328.5,-321.5 204.5,-321.5"/>
<text text-anchor="middle" x="266.5" y="-328.5" font-family="FreeSans" font-size="10.00" fill="#000000">Fun4All_G4_fsPHENIX</text>
</a>
</g>
</g>
<!-- Node2&#45;&gt;Node15 -->
<g id="edge14" class="edge">
<title>Node2&#45;&gt;Node15</title>
<path fill="none" stroke="#191970" d="M126.1141,-409.4985C136.1251,-391.7045 153.4898,-365.7765 176,-351.5 184.5607,-346.0706 194.3888,-342.1022 204.3421,-339.2046"/>
<polygon fill="#191970" stroke="#191970" points="122.97,-407.9555 121.323,-418.4216 129.1372,-411.2669 122.97,-407.9555"/>
</g>
<!-- Node16 -->
<g id="node16" class="node">
<title>Node16</title>
<g id="a_node16"><a xlink:href="../../d0/d87/Fun4All__G4__JLeic_8C.html#a7a87d035cddeb1ed64bf376560381994" target="_top" xlink:title="Fun4All_G4_JLeic">
<polygon fill="none" stroke="#000000" points="216,-282.5 216,-302.5 317,-302.5 317,-282.5 216,-282.5"/>
<text text-anchor="middle" x="266.5" y="-289.5" font-family="FreeSans" font-size="10.00" fill="#000000">Fun4All_G4_JLeic</text>
</a>
</g>
</g>
<!-- Node2&#45;&gt;Node16 -->
<g id="edge15" class="edge">
<title>Node2&#45;&gt;Node16</title>
<path fill="none" stroke="#191970" d="M121.1823,-408.2768C128.3512,-382.0187 144.6409,-336.6965 176,-312.5 187.3381,-303.7516 201.731,-298.6687 215.6842,-295.7601"/>
<polygon fill="#191970" stroke="#191970" points="117.7198,-407.692 118.651,-418.2459 124.5045,-409.4148 117.7198,-407.692"/>
</g>
<!-- Node17 -->
<g id="node17" class="node">
<title>Node17</title>
<g id="a_node17"><a xlink:href="../../d5/d97/Fun4All__G4__FullDetectorModular_8C.html#a589d5647d3c2ebb289af5cdf1e9f5f7e" target="_top" xlink:title="Fun4All_G4_FullDetectorModular">
<polygon fill="none" stroke="#000000" points="176,-243.5 176,-263.5 357,-263.5 357,-243.5 176,-243.5"/>
<text text-anchor="middle" x="266.5" y="-250.5" font-family="FreeSans" font-size="10.00" fill="#000000">Fun4All_G4_FullDetectorModular</text>
</a>
</g>
</g>
<!-- Node2&#45;&gt;Node17 -->
<g id="edge16" class="edge">
<title>Node2&#45;&gt;Node17</title>
<path fill="none" stroke="#191970" d="M118.2963,-407.9511C122.3636,-374.499 135.3591,-308.4946 176,-273.5 180.6335,-269.5102 185.8855,-266.2643 191.4702,-263.6292"/>
<polygon fill="#191970" stroke="#191970" points="114.7707,-408.0091 117.1992,-418.3218 121.7318,-408.7455 114.7707,-408.0091"/>
</g>
<!-- Node18 -->
<g id="node18" class="node">
<title>Node18</title>
<g id="a_node18"><a xlink:href="../../d0/dce/Fun4All__G4__FullDetectorModularBeast_8C.html#a0f10ba4ce157df87369cfd776fc132d3" target="_top" xlink:title="Fun4All_G4_FullDetectorModular\lBeast">
<polygon fill="none" stroke="#000000" points="176,-192.5 176,-224.5 357,-224.5 357,-192.5 176,-192.5"/>
<text text-anchor="start" x="184" y="-211.5" font-family="FreeSans" font-size="10.00" fill="#000000">Fun4All_G4_FullDetectorModular</text>
<text text-anchor="middle" x="266.5" y="-199.5" font-family="FreeSans" font-size="10.00" fill="#000000">Beast</text>
</a>
</g>
</g>
<!-- Node2&#45;&gt;Node18 -->
<g id="edge17" class="edge">
<title>Node2&#45;&gt;Node18</title>
<path fill="none" stroke="#191970" d="M120.1821,-408.2871C128.6785,-363.758 150.8623,-259.1934 176,-234.5 179.8484,-230.7196 184.2085,-227.4818 188.8844,-224.7095"/>
<polygon fill="#191970" stroke="#191970" points="116.7207,-407.7565 118.3234,-418.2294 123.6015,-409.0429 116.7207,-407.7565"/>
</g>
<!-- Node19 -->
<g id="node19" class="node">
<title>Node19</title>
<g id="a_node19"><a xlink:href="../../d9/d73/fun4all__macros_2blob_2master_2detectors_2sPHENIX_2Fun4All__G4__sPHENIX_8C.html#a4102cd3e195333de974409428a2e6dae" target="_top" xlink:title="Fun4All_G4_sPHENIX">
<polygon fill="none" stroke="#000000" points="206,-153.5 206,-173.5 327,-173.5 327,-153.5 206,-153.5"/>
<text text-anchor="middle" x="266.5" y="-160.5" font-family="FreeSans" font-size="10.00" fill="#000000">Fun4All_G4_sPHENIX</text>
</a>
</g>
</g>
<!-- Node2&#45;&gt;Node19 -->
<g id="edge18" class="edge">
<title>Node2&#45;&gt;Node19</title>
<path fill="none" stroke="#191970" d="M118.6634,-408.3581C124.74,-355.5833 143.6628,-215.1732 176,-183.5 184.1617,-175.5059 194.7575,-170.4076 205.8093,-167.2138"/>
<polygon fill="#191970" stroke="#191970" points="115.1644,-408.1555 117.533,-418.4822 122.1211,-408.9323 115.1644,-408.1555"/>
</g>
<!-- Node20 -->
<g id="node20" class="node">
<title>Node20</title>
<g id="a_node20"><a xlink:href="../../d4/de9/Fun4All__AnaTutorial__sPHENIX_8C.html#a5028836c74f0bebec560d3ab54daa022" target="_top" xlink:title="Fun4All_AnaTutorial\l_sPHENIX">
<polygon fill="none" stroke="#000000" points="209,-102.5 209,-134.5 324,-134.5 324,-102.5 209,-102.5"/>
<text text-anchor="start" x="217" y="-121.5" font-family="FreeSans" font-size="10.00" fill="#000000">Fun4All_AnaTutorial</text>
<text text-anchor="middle" x="266.5" y="-109.5" font-family="FreeSans" font-size="10.00" fill="#000000">_sPHENIX</text>
</a>
</g>
</g>
<!-- Node2&#45;&gt;Node20 -->
<g id="edge19" class="edge">
<title>Node2&#45;&gt;Node20</title>
<path fill="none" stroke="#191970" d="M118.0851,-408.0394C123.0214,-349.5317 139.9921,-183.2466 176,-144.5 184.6801,-135.1597 196.4723,-129.0974 208.6744,-125.1828"/>
<polygon fill="#191970" stroke="#191970" points="114.5782,-407.9834 117.2562,-418.2342 121.5552,-408.5507 114.5782,-407.9834"/>
</g>
<!-- Node21 -->
<g id="node21" class="node">
<title>Node21</title>
<g id="a_node21"><a xlink:href="../../d6/d14/Fun4All__AnaTutorial__sPHENIX__Jets_8C.html#a61b352bca84476d24b0ff40991b27900" target="_top" xlink:title="Fun4All_AnaTutorial\l_sPHENIX_Jets">
<polygon fill="none" stroke="#000000" points="209,-51.5 209,-83.5 324,-83.5 324,-51.5 209,-51.5"/>
<text text-anchor="start" x="217" y="-70.5" font-family="FreeSans" font-size="10.00" fill="#000000">Fun4All_AnaTutorial</text>
<text text-anchor="middle" x="266.5" y="-58.5" font-family="FreeSans" font-size="10.00" fill="#000000">_sPHENIX_Jets</text>
</a>
</g>
</g>
<!-- Node2&#45;&gt;Node21 -->
<g id="edge20" class="edge">
<title>Node2&#45;&gt;Node21</title>
<path fill="none" stroke="#191970" d="M117.3563,-408.3293C120.5215,-343.2721 133.6621,-140.486 176,-93.5 184.645,-83.9059 196.5727,-77.7572 208.9339,-73.8411"/>
<polygon fill="#191970" stroke="#191970" points="113.852,-408.3447 116.8899,-418.4946 120.8446,-408.6656 113.852,-408.3447"/>
</g>
<!-- Node22 -->
<g id="node22" class="node">
<title>Node22</title>
<g id="a_node22"><a xlink:href="../../df/dd8/Fun4All__G4__EICDetector__AnaTutorial_8C.html#a598434aca3dac5cdb0ca67ccc548d865" target="_top" xlink:title="Fun4All_G4_EICDetector\l_AnaTutorial">
<polygon fill="none" stroke="#000000" points="197,-.5 197,-32.5 336,-32.5 336,-.5 197,-.5"/>
<text text-anchor="start" x="205" y="-19.5" font-family="FreeSans" font-size="10.00" fill="#000000">Fun4All_G4_EICDetector</text>
<text text-anchor="middle" x="266.5" y="-7.5" font-family="FreeSans" font-size="10.00" fill="#000000">_AnaTutorial</text>
</a>
</g>
</g>
<!-- Node2&#45;&gt;Node22 -->
<g id="edge21" class="edge">
<title>Node2&#45;&gt;Node22</title>
<path fill="none" stroke="#191970" d="M116.8385,-408.1228C118.4403,-336.5041 127.397,-97.6935 176,-42.5 181.7259,-35.9977 188.96,-31.0733 196.8322,-27.3522"/>
<polygon fill="#191970" stroke="#191970" points="113.3324,-408.4016 116.6337,-418.4689 120.331,-408.5401 113.3324,-408.4016"/>
</g>
</g>
</svg>
