<?xml version="1.0" encoding="UTF-8" standalone="no"?>
<!DOCTYPE svg PUBLIC "-//W3C//DTD SVG 1.1//EN"
 "http://www.w3.org/Graphics/SVG/1.1/DTD/svg11.dtd">
<!-- Generated by graphviz version 2.40.1 (20161225.0304)
 -->
<!-- Title: RawTowerBuilderDRCALO::CreateNodes Pages: 1 -->
<svg width="514pt" height="185pt"
 viewBox="0.00 0.00 514.00 185.00" xmlns="http://www.w3.org/2000/svg" xmlns:xlink="http://www.w3.org/1999/xlink">
<g id="graph0" class="graph" transform="scale(1 1) rotate(0) translate(4 181)">
<title>RawTowerBuilderDRCALO::CreateNodes</title>
<!-- Node1 -->
<g id="node1" class="node">
<title>Node1</title>
<polygon fill="#bfbfbf" stroke="#000000" points="0,-50.5 0,-82.5 144,-82.5 144,-50.5 0,-50.5"/>
<text text-anchor="start" x="8" y="-69.5" font-family="FreeSans" font-size="10.00" fill="#000000">RawTowerBuilderDRCALO</text>
<text text-anchor="middle" x="72" y="-57.5" font-family="FreeSans" font-size="10.00" fill="#000000">::CreateNodes</text>
</g>
<!-- Node2 -->
<g id="node2" class="node">
<title>Node2</title>
<g id="a_node2"><a xlink:href="../../d5/dca/classPHCompositeNode.html#a15a0c4804399a9de4267647f05bd1ba4" target="_top" xlink:title="PHCompositeNode::addNode">
<polygon fill="none" stroke="#000000" points="180,-115.5 180,-135.5 342,-135.5 342,-115.5 180,-115.5"/>
<text text-anchor="middle" x="261" y="-122.5" font-family="FreeSans" font-size="10.00" fill="#000000">PHCompositeNode::addNode</text>
</a>
</g>
</g>
<!-- Node1&#45;&gt;Node2 -->
<g id="edge1" class="edge">
<title>Node1&#45;&gt;Node2</title>
<path fill="none" stroke="#191970" d="M114.8181,-82.5038C134.5386,-89.6319 158.3259,-97.8903 180,-104.5 189.588,-107.4239 199.8919,-110.2973 209.8292,-112.9349"/>
<polygon fill="#191970" stroke="#191970" points="209.0444,-116.3472 219.6042,-115.487 210.8128,-109.5743 209.0444,-116.3472"/>
</g>
<!-- Node6 -->
<g id="node6" class="node">
<title>Node6</title>
<g id="a_node6"><a xlink:href="../../da/d58/namespaceRawTowerDefs.html#a833750b09c330a79395b15bcf1d93a9e" target="_top" xlink:title="RawTowerDefs::convert\l_name_to_caloid">
<polygon fill="none" stroke="#000000" points="193.5,-1.5 193.5,-33.5 328.5,-33.5 328.5,-1.5 193.5,-1.5"/>
<text text-anchor="start" x="201.5" y="-20.5" font-family="FreeSans" font-size="10.00" fill="#000000">RawTowerDefs::convert</text>
<text text-anchor="middle" x="261" y="-8.5" font-family="FreeSans" font-size="10.00" fill="#000000">_name_to_caloid</text>
</a>
</g>
</g>
<!-- Node1&#45;&gt;Node6 -->
<g id="edge5" class="edge">
<title>Node1&#45;&gt;Node6</title>
<path fill="none" stroke="#191970" d="M133.8857,-50.4556C151.5894,-45.8657 171.0337,-40.8246 189.2743,-36.0956"/>
<polygon fill="#191970" stroke="#191970" points="190.1737,-39.4782 198.9753,-33.5805 188.4169,-32.7022 190.1737,-39.4782"/>
</g>
<!-- Node8 -->
<g id="node8" class="node">
<title>Node8</title>
<g id="a_node8"><a xlink:href="../../d5/d07/classPHNodeIterator.html#aea98bf8619af59b1212a94fb32106baa" target="_top" xlink:title="PHNodeIterator::findFirst">
<polygon fill="none" stroke="#000000" points="190.5,-56.5 190.5,-76.5 331.5,-76.5 331.5,-56.5 190.5,-56.5"/>
<text text-anchor="middle" x="261" y="-63.5" font-family="FreeSans" font-size="10.00" fill="#000000">PHNodeIterator::findFirst</text>
</a>
</g>
</g>
<!-- Node1&#45;&gt;Node8 -->
<g id="edge7" class="edge">
<title>Node1&#45;&gt;Node8</title>
<path fill="none" stroke="#191970" d="M144.2618,-66.5C155.9488,-66.5 168.1168,-66.5 179.9945,-66.5"/>
<polygon fill="#191970" stroke="#191970" points="180.3384,-70.0001 190.3383,-66.5 180.3383,-63.0001 180.3384,-70.0001"/>
</g>
<!-- Node3 -->
<g id="node3" class="node">
<title>Node3</title>
<g id="a_node3"><a xlink:href="../../d6/d86/classPHPointerList.html#ac2176735e9d046a034f1686fd2c477eb" target="_top" xlink:title="PHPointerList::append">
<polygon fill="none" stroke="#000000" points="378,-117.5 378,-137.5 506,-137.5 506,-117.5 378,-117.5"/>
<text text-anchor="middle" x="442" y="-124.5" font-family="FreeSans" font-size="10.00" fill="#000000">PHPointerList::append</text>
</a>
</g>
</g>
<!-- Node2&#45;&gt;Node3 -->
<g id="edge2" class="edge">
<title>Node2&#45;&gt;Node3</title>
<path fill="none" stroke="#191970" d="M342.2347,-126.3976C350.72,-126.4914 359.3151,-126.5864 367.7173,-126.6792"/>
<polygon fill="#191970" stroke="#191970" points="367.8122,-130.1804 377.8503,-126.7912 367.8896,-123.1808 367.8122,-130.1804"/>
</g>
<!-- Node4 -->
<g id="node4" class="node">
<title>Node4</title>
<g id="a_node4"><a xlink:href="../../dc/d82/classPHNode.html#aca3576f926a4401eddc3d88bf0ce0de3" target="_top" xlink:title="PHNode::getName">
<polygon fill="none" stroke="#000000" points="387.5,-78.5 387.5,-98.5 496.5,-98.5 496.5,-78.5 387.5,-78.5"/>
<text text-anchor="middle" x="442" y="-85.5" font-family="FreeSans" font-size="10.00" fill="#000000">PHNode::getName</text>
</a>
</g>
</g>
<!-- Node2&#45;&gt;Node4 -->
<g id="edge3" class="edge">
<title>Node2&#45;&gt;Node4</title>
<path fill="none" stroke="#191970" d="M309.9812,-115.4873C332.5168,-110.8805 359.4377,-105.3774 383.0735,-100.5457"/>
<polygon fill="#191970" stroke="#191970" points="383.8833,-103.9527 392.9796,-98.5207 382.4813,-97.0945 383.8833,-103.9527"/>
</g>
<!-- Node5 -->
<g id="node5" class="node">
<title>Node5</title>
<g id="a_node5"><a xlink:href="../../dc/d82/classPHNode.html#adda2bd6cef2d5067bbe3016a990b7198" target="_top" xlink:title="PHNode::setParent">
<polygon fill="none" stroke="#000000" points="386.5,-156.5 386.5,-176.5 497.5,-176.5 497.5,-156.5 386.5,-156.5"/>
<text text-anchor="middle" x="442" y="-163.5" font-family="FreeSans" font-size="10.00" fill="#000000">PHNode::setParent</text>
</a>
</g>
</g>
<!-- Node2&#45;&gt;Node5 -->
<g id="edge4" class="edge">
<title>Node2&#45;&gt;Node5</title>
<path fill="none" stroke="#191970" d="M305.2776,-135.5297C330.1485,-141.1635 361.386,-148.2394 387.7221,-154.205"/>
<polygon fill="#191970" stroke="#191970" points="387.026,-157.6359 397.5522,-156.4317 388.5726,-150.8089 387.026,-157.6359"/>
</g>
<!-- Node7 -->
<g id="node7" class="node">
<title>Node7</title>
<g id="a_node7"><a xlink:href="../../df/de8/cemc_8C.html#adf5c804dfce7a70e36dda02995fad481" target="_top" xlink:title="exit">
<polygon fill="none" stroke="#000000" points="424.5,-.5 424.5,-20.5 459.5,-20.5 459.5,-.5 424.5,-.5"/>
<text text-anchor="middle" x="442" y="-7.5" font-family="FreeSans" font-size="10.00" fill="#000000">exit</text>
</a>
</g>
</g>
<!-- Node6&#45;&gt;Node7 -->
<g id="edge6" class="edge">
<title>Node6&#45;&gt;Node7</title>
<path fill="none" stroke="#191970" d="M328.6551,-14.8835C358.1665,-13.7422 391.1458,-12.4667 413.8871,-11.5872"/>
<polygon fill="#191970" stroke="#191970" points="414.3112,-15.0735 424.1685,-11.1896 414.0407,-8.0788 414.3112,-15.0735"/>
</g>
<!-- Node8&#45;&gt;Node4 -->
<g id="edge9" class="edge">
<title>Node8&#45;&gt;Node4</title>
<path fill="none" stroke="#191970" d="M331.757,-75.1003C346.7411,-76.9216 362.4844,-78.8351 377.2331,-80.6278"/>
<polygon fill="#191970" stroke="#191970" points="376.9141,-84.1147 387.2633,-81.8469 377.7587,-77.1658 376.9141,-84.1147"/>
</g>
<!-- Node8&#45;&gt;Node8 -->
<g id="edge8" class="edge">
<title>Node8&#45;&gt;Node8</title>
<path fill="none" stroke="#191970" d="M232.8201,-76.7271C219.9661,-85.6067 229.3594,-95 261,-95 282.2585,-95 293.4743,-90.7597 294.6473,-85.2839"/>
<polygon fill="#191970" stroke="#191970" points="297.5136,-83.2693 289.1799,-76.7271 291.6148,-87.0383 297.5136,-83.2693"/>
</g>
<!-- Node9 -->
<g id="node9" class="node">
<title>Node9</title>
<g id="a_node9"><a xlink:href="../../dc/d82/classPHNode.html#a4ab1f90aed955a652813bfe377087bda" target="_top" xlink:title="PHNode::getType">
<polygon fill="none" stroke="#000000" points="390.5,-39.5 390.5,-59.5 493.5,-59.5 493.5,-39.5 390.5,-39.5"/>
<text text-anchor="middle" x="442" y="-46.5" font-family="FreeSans" font-size="10.00" fill="#000000">PHNode::getType</text>
</a>
</g>
</g>
<!-- Node8&#45;&gt;Node9 -->
<g id="edge10" class="edge">
<title>Node8&#45;&gt;Node9</title>
<path fill="none" stroke="#191970" d="M331.757,-59.8543C347.7799,-58.3494 364.6708,-56.763 380.2855,-55.2964"/>
<polygon fill="#191970" stroke="#191970" points="380.7115,-58.7719 390.3404,-54.352 380.0569,-51.8025 380.7115,-58.7719"/>
</g>
</g>
</svg>
