<?xml version="1.0" encoding="UTF-8" standalone="no"?>
<!DOCTYPE svg PUBLIC "-//W3C//DTD SVG 1.1//EN"
 "http://www.w3.org/Graphics/SVG/1.1/DTD/svg11.dtd">
<!-- Generated by graphviz version 2.40.1 (20161225.0304)
 -->
<!-- Title: starlightDpmJet::produceEvent Pages: 1 -->
<svg width="1200pt" height="326pt"
 viewBox="0.00 0.00 1200.00 326.00" xmlns="http://www.w3.org/2000/svg" xmlns:xlink="http://www.w3.org/1999/xlink">
<g id="graph0" class="graph" transform="scale(1 1) rotate(0) translate(4 322)">
<title>starlightDpmJet::produceEvent</title>
<!-- Node1 -->
<g id="node1" class="node">
<title>Node1</title>
<polygon fill="#bfbfbf" stroke="#000000" points="0,-230.5 0,-262.5 143,-262.5 143,-230.5 0,-230.5"/>
<text text-anchor="start" x="8" y="-249.5" font-family="FreeSans" font-size="10.00" fill="#000000">starlightDpmJet::produce</text>
<text text-anchor="middle" x="71.5" y="-237.5" font-family="FreeSans" font-size="10.00" fill="#000000">Event</text>
</g>
<!-- Node2 -->
<g id="node2" class="node">
<title>Node2</title>
<g id="a_node2"><a xlink:href="../../da/d92/classspectrum.html#ad84a6b2b167a9abc46aafcca4338cb05" target="_top" xlink:title="spectrum::drawKsingle">
<polygon fill="none" stroke="#000000" points="184.5,-297.5 184.5,-317.5 316.5,-317.5 316.5,-297.5 184.5,-297.5"/>
<text text-anchor="middle" x="250.5" y="-304.5" font-family="FreeSans" font-size="10.00" fill="#000000">spectrum::drawKsingle</text>
</a>
</g>
</g>
<!-- Node1&#45;&gt;Node2 -->
<g id="edge1" class="edge">
<title>Node1&#45;&gt;Node2</title>
<path fill="none" stroke="#191970" d="M118.5301,-262.527C147.4978,-272.3987 184.1927,-284.9037 211.5313,-294.2202"/>
<polygon fill="#191970" stroke="#191970" points="210.554,-297.5847 221.1485,-297.4975 212.812,-290.9589 210.554,-297.5847"/>
</g>
<!-- Node4 -->
<g id="node4" class="node">
<title>Node4</title>
<g id="a_node4"><a xlink:href="../../d4/d28/classstarlightDpmJet.html#a2ae7e180f519c589fcd418e783bdf2db" target="_top" xlink:title="starlightDpmJet::produce\lDoubleEvent">
<polygon fill="none" stroke="#000000" points="179,-230.5 179,-262.5 322,-262.5 322,-230.5 179,-230.5"/>
<text text-anchor="start" x="187" y="-249.5" font-family="FreeSans" font-size="10.00" fill="#000000">starlightDpmJet::produce</text>
<text text-anchor="middle" x="250.5" y="-237.5" font-family="FreeSans" font-size="10.00" fill="#000000">DoubleEvent</text>
</a>
</g>
</g>
<!-- Node1&#45;&gt;Node4 -->
<g id="edge3" class="edge">
<title>Node1&#45;&gt;Node4</title>
<path fill="none" stroke="#191970" d="M143.0172,-246.5C151.4862,-246.5 160.1793,-246.5 168.776,-246.5"/>
<polygon fill="#191970" stroke="#191970" points="168.8043,-250.0001 178.8042,-246.5 168.8042,-243.0001 168.8043,-250.0001"/>
</g>
<!-- Node6 -->
<g id="node6" class="node">
<title>Node6</title>
<g id="a_node6"><a xlink:href="../../d4/d28/classstarlightDpmJet.html#a05fd569034d3fa86e83ef0ebad0f6d6b" target="_top" xlink:title="starlightDpmJet::produce\lSingleEvent">
<polygon fill="none" stroke="#000000" points="358,-185.5 358,-217.5 501,-217.5 501,-185.5 358,-185.5"/>
<text text-anchor="start" x="366" y="-204.5" font-family="FreeSans" font-size="10.00" fill="#000000">starlightDpmJet::produce</text>
<text text-anchor="middle" x="429.5" y="-192.5" font-family="FreeSans" font-size="10.00" fill="#000000">SingleEvent</text>
</a>
</g>
</g>
<!-- Node1&#45;&gt;Node6 -->
<g id="edge22" class="edge">
<title>Node1&#45;&gt;Node6</title>
<path fill="none" stroke="#191970" d="M130.2974,-230.4654C146.0173,-226.6775 163.068,-223.014 179,-220.5 234.9066,-211.6783 298.5022,-206.918 347.6258,-204.3684"/>
<polygon fill="#191970" stroke="#191970" points="348.0672,-207.8508 357.8805,-203.8572 347.7187,-200.8595 348.0672,-207.8508"/>
</g>
<!-- Node3 -->
<g id="node3" class="node">
<title>Node3</title>
<g id="a_node3"><a xlink:href="../../d4/dd1/classrandomGenerator.html#ac5aeadcdac35f3ee302ca403360dfe60" target="_top" xlink:title="randomGenerator::Rndom">
<polygon fill="none" stroke="#000000" points="539,-292.5 539,-312.5 688,-312.5 688,-292.5 539,-292.5"/>
<text text-anchor="middle" x="613.5" y="-299.5" font-family="FreeSans" font-size="10.00" fill="#000000">randomGenerator::Rndom</text>
</a>
</g>
</g>
<!-- Node2&#45;&gt;Node3 -->
<g id="edge2" class="edge">
<title>Node2&#45;&gt;Node3</title>
<path fill="none" stroke="#191970" d="M316.6577,-306.5887C376.1527,-305.7692 463.8808,-304.5609 528.5457,-303.6702"/>
<polygon fill="#191970" stroke="#191970" points="528.7673,-307.1675 538.7181,-303.5301 528.6709,-300.1682 528.7673,-307.1675"/>
</g>
<!-- Node4&#45;&gt;Node3 -->
<g id="edge21" class="edge">
<title>Node4&#45;&gt;Node3</title>
<path fill="none" stroke="#191970" d="M322.1503,-259.4837C334.1109,-261.5592 346.3984,-263.6352 358,-265.5 415.3392,-274.7166 480.0892,-284.0821 530.0589,-291.0847"/>
<polygon fill="#191970" stroke="#191970" points="529.7807,-294.5797 540.1689,-292.4975 530.7496,-287.6471 529.7807,-294.5797"/>
</g>
<!-- Node5 -->
<g id="node5" class="node">
<title>Node5</title>
<g id="a_node5"><a xlink:href="../../da/d92/classspectrum.html#aeedda3f665f6f8925305e8c9fa0f873d" target="_top" xlink:title="spectrum::drawKdouble">
<polygon fill="none" stroke="#000000" points="361,-236.5 361,-256.5 498,-256.5 498,-236.5 361,-236.5"/>
<text text-anchor="middle" x="429.5" y="-243.5" font-family="FreeSans" font-size="10.00" fill="#000000">spectrum::drawKdouble</text>
</a>
</g>
</g>
<!-- Node4&#45;&gt;Node5 -->
<g id="edge4" class="edge">
<title>Node4&#45;&gt;Node5</title>
<path fill="none" stroke="#191970" d="M322.0172,-246.5C331.3855,-246.5 341.0279,-246.5 350.5107,-246.5"/>
<polygon fill="#191970" stroke="#191970" points="350.7174,-250.0001 360.7174,-246.5 350.7174,-243.0001 350.7174,-250.0001"/>
</g>
<!-- Node4&#45;&gt;Node6 -->
<g id="edge6" class="edge">
<title>Node4&#45;&gt;Node6</title>
<path fill="none" stroke="#191970" d="M314.365,-230.4445C327.7766,-227.0729 342.027,-223.4904 355.7656,-220.0366"/>
<polygon fill="#191970" stroke="#191970" points="356.8148,-223.3818 365.6596,-217.5493 355.108,-216.593 356.8148,-223.3818"/>
</g>
<!-- Node5&#45;&gt;Node3 -->
<g id="edge5" class="edge">
<title>Node5&#45;&gt;Node3</title>
<path fill="none" stroke="#191970" d="M458.0779,-256.6551C479.6437,-264.1756 510.0255,-274.4672 537,-282.5 545.412,-285.005 554.3941,-287.5063 563.1367,-289.8495"/>
<polygon fill="#191970" stroke="#191970" points="562.3001,-293.2485 572.8625,-292.4196 564.0886,-286.4808 562.3001,-293.2485"/>
</g>
<!-- Node7 -->
<g id="node7" class="node">
<title>Node7</title>
<g id="a_node7"><a xlink:href="../../dc/de8/classupcEvent.html#ae9b3db090698b6e549443fae1a523787" target="_top" xlink:title="upcEvent::addGamma">
<polygon fill="none" stroke="#000000" points="549,-253.5 549,-273.5 678,-273.5 678,-253.5 549,-253.5"/>
<text text-anchor="middle" x="613.5" y="-260.5" font-family="FreeSans" font-size="10.00" fill="#000000">upcEvent::addGamma</text>
</a>
</g>
</g>
<!-- Node6&#45;&gt;Node7 -->
<g id="edge7" class="edge">
<title>Node6&#45;&gt;Node7</title>
<path fill="none" stroke="#191970" d="M477.835,-217.6255C485.632,-220.4484 493.577,-223.4594 501,-226.5 517.3738,-233.207 520.3691,-237.4585 537,-243.5 544.2577,-246.1365 552.0195,-248.58 559.7133,-250.788"/>
<polygon fill="#191970" stroke="#191970" points="558.8086,-254.1691 569.3794,-253.4556 560.6709,-247.4214 558.8086,-254.1691"/>
</g>
<!-- Node8 -->
<g id="node8" class="node">
<title>Node8</title>
<g id="a_node8"><a xlink:href="../../d8/d04/starlightdpmjet_8cpp.html#ad2a424ee452c40203feec282635afe42" target="_top" xlink:title="dt_produceevent_">
<polygon fill="none" stroke="#000000" points="560,-214.5 560,-234.5 667,-234.5 667,-214.5 560,-214.5"/>
<text text-anchor="middle" x="613.5" y="-221.5" font-family="FreeSans" font-size="10.00" fill="#000000">dt_produceevent_</text>
</a>
</g>
</g>
<!-- Node6&#45;&gt;Node8 -->
<g id="edge8" class="edge">
<title>Node6&#45;&gt;Node8</title>
<path fill="none" stroke="#191970" d="M501.1661,-210.4583C517.2244,-212.4655 534.1528,-214.5816 549.8589,-216.5449"/>
<polygon fill="#191970" stroke="#191970" points="549.6252,-220.0428 559.9822,-217.8103 550.4935,-213.0969 549.6252,-220.0428"/>
</g>
<!-- Node9 -->
<g id="node9" class="node">
<title>Node9</title>
<g id="a_node9"><a xlink:href="../../d1/d21/classbeamBeamSystem.html#ae788c7578711e2e7b146a45e405f0426" target="_top" xlink:title="returns beam particle 1">
<polygon fill="none" stroke="#000000" points="537,-175.5 537,-195.5 690,-195.5 690,-175.5 537,-175.5"/>
<text text-anchor="middle" x="613.5" y="-182.5" font-family="FreeSans" font-size="10.00" fill="#000000">beamBeamSystem::beam1</text>
</a>
</g>
</g>
<!-- Node6&#45;&gt;Node9 -->
<g id="edge9" class="edge">
<title>Node6&#45;&gt;Node9</title>
<path fill="none" stroke="#191970" d="M501.1661,-195.2682C509.5792,-194.5366 518.231,-193.7843 526.8209,-193.0373"/>
<polygon fill="#191970" stroke="#191970" points="527.1989,-196.5177 536.858,-192.1645 526.5924,-189.5441 527.1989,-196.5177"/>
</g>
<!-- Node10 -->
<g id="node10" class="node">
<title>Node10</title>
<g id="a_node10"><a xlink:href="../../d0/d21/classbeam.html#abdc0e8dea654b78679b246f6928896d8" target="_top" xlink:title="beam::rapidity">
<polygon fill="none" stroke="#000000" points="568,-136.5 568,-156.5 659,-156.5 659,-136.5 568,-136.5"/>
<text text-anchor="middle" x="613.5" y="-143.5" font-family="FreeSans" font-size="10.00" fill="#000000">beam::rapidity</text>
</a>
</g>
</g>
<!-- Node6&#45;&gt;Node10 -->
<g id="edge10" class="edge">
<title>Node6&#45;&gt;Node10</title>
<path fill="none" stroke="#191970" d="M474.7546,-185.4533C493.8557,-178.9131 516.4018,-171.4966 537,-165.5 544.5756,-163.2946 552.6193,-161.1188 560.5358,-159.0712"/>
<polygon fill="#191970" stroke="#191970" points="561.6198,-162.4071 570.4508,-156.5535 559.8969,-155.6224 561.6198,-162.4071"/>
</g>
<!-- Node11 -->
<g id="node11" class="node">
<title>Node11</title>
<g id="a_node11"><a xlink:href="../../d5/d60/classlorentzVector.html#a6279dbb8641b48bce827658288f5ab16" target="_top" xlink:title="lorentzVector::Boost">
<polygon fill="none" stroke="#000000" points="554,-97.5 554,-117.5 673,-117.5 673,-97.5 554,-97.5"/>
<text text-anchor="middle" x="613.5" y="-104.5" font-family="FreeSans" font-size="10.00" fill="#000000">lorentzVector::Boost</text>
</a>
</g>
</g>
<!-- Node6&#45;&gt;Node11 -->
<g id="edge11" class="edge">
<title>Node6&#45;&gt;Node11</title>
<path fill="none" stroke="#191970" d="M448.0063,-185.3824C468.4585,-168.372 503.0195,-141.9323 537,-126.5 541.9061,-124.2719 547.1128,-122.2797 552.4115,-120.5035"/>
<polygon fill="#191970" stroke="#191970" points="553.485,-123.8352 562.0036,-117.5355 551.4158,-117.148 553.485,-123.8352"/>
</g>
<!-- Node12 -->
<g id="node12" class="node">
<title>Node12</title>
<g id="a_node12"><a xlink:href="../../dc/dae/gamma_8F.html#a32168d135528557a384f114255d59f09" target="_top" xlink:title="gamma">
<polygon fill="none" stroke="#000000" points="765.5,-195.5 765.5,-215.5 819.5,-215.5 819.5,-195.5 765.5,-195.5"/>
<text text-anchor="middle" x="792.5" y="-202.5" font-family="FreeSans" font-size="10.00" fill="#000000">gamma</text>
</a>
</g>
</g>
<!-- Node11&#45;&gt;Node12 -->
<g id="edge12" class="edge">
<title>Node11&#45;&gt;Node12</title>
<path fill="none" stroke="#191970" d="M673.2332,-117.3606C679.2044,-119.7755 684.9253,-122.7752 690,-126.5 714.7633,-144.6764 701.6866,-166.7259 726,-185.5 734.4449,-192.0209 744.9984,-196.4234 755.1934,-199.3929"/>
<polygon fill="#191970" stroke="#191970" points="754.6252,-202.8591 765.1774,-201.9101 756.3365,-196.0715 754.6252,-202.8591"/>
</g>
<!-- Node15 -->
<g id="node15" class="node">
<title>Node15</title>
<g id="a_node15"><a xlink:href="../../db/dc5/classvector3.html#a0f76c359666e8284472e081d7ac015fe" target="_top" xlink:title="vector3::Mag2">
<polygon fill="none" stroke="#000000" points="748,-156.5 748,-176.5 837,-176.5 837,-156.5 748,-156.5"/>
<text text-anchor="middle" x="792.5" y="-163.5" font-family="FreeSans" font-size="10.00" fill="#000000">vector3::Mag2</text>
</a>
</g>
</g>
<!-- Node11&#45;&gt;Node15 -->
<g id="edge15" class="edge">
<title>Node11&#45;&gt;Node15</title>
<path fill="none" stroke="#191970" d="M662.2601,-117.5632C671.6076,-120.0636 681.2146,-123.0391 690,-126.5 707.0296,-133.2086 709.1388,-139.3787 726,-146.5 731.8307,-148.9626 738.0667,-151.2563 744.2965,-153.3467"/>
<polygon fill="#191970" stroke="#191970" points="743.431,-156.7446 754.022,-156.4596 745.5649,-150.0777 743.431,-156.7446"/>
</g>
<!-- Node16 -->
<g id="node16" class="node">
<title>Node16</title>
<g id="a_node16"><a xlink:href="../../d5/d60/classlorentzVector.html#afeb1dcb2b22d773620e996fd39a6334a" target="_top" xlink:title="lorentzVector::SetXYZT">
<polygon fill="none" stroke="#000000" points="726,-117.5 726,-137.5 859,-137.5 859,-117.5 726,-117.5"/>
<text text-anchor="middle" x="792.5" y="-124.5" font-family="FreeSans" font-size="10.00" fill="#000000">lorentzVector::SetXYZT</text>
</a>
</g>
</g>
<!-- Node11&#45;&gt;Node16 -->
<g id="edge16" class="edge">
<title>Node11&#45;&gt;Node16</title>
<path fill="none" stroke="#191970" d="M673.1044,-114.1597C686.6895,-115.6776 701.3128,-117.3115 715.508,-118.8975"/>
<polygon fill="#191970" stroke="#191970" points="715.4208,-122.4095 725.7476,-120.0416 716.1981,-115.4528 715.4208,-122.4095"/>
</g>
<!-- Node18 -->
<g id="node18" class="node">
<title>Node18</title>
<g id="a_node18"><a xlink:href="../../db/dc5/classvector3.html#a2f950a0033df6363f1f1d85fd95de327" target="_top" xlink:title="vector3::X">
<polygon fill="none" stroke="#000000" points="758.5,-78.5 758.5,-98.5 826.5,-98.5 826.5,-78.5 758.5,-78.5"/>
<text text-anchor="middle" x="792.5" y="-85.5" font-family="FreeSans" font-size="10.00" fill="#000000">vector3::X</text>
</a>
</g>
</g>
<!-- Node11&#45;&gt;Node18 -->
<g id="edge18" class="edge">
<title>Node11&#45;&gt;Node18</title>
<path fill="none" stroke="#191970" d="M673.1044,-101.1733C697.7106,-98.5614 725.7229,-95.5881 748.4276,-93.1781"/>
<polygon fill="#191970" stroke="#191970" points="748.88,-96.6498 758.4547,-92.1138 748.1411,-89.6889 748.88,-96.6498"/>
</g>
<!-- Node19 -->
<g id="node19" class="node">
<title>Node19</title>
<g id="a_node19"><a xlink:href="../../db/dc5/classvector3.html#a1c17cd54f5769fd75812407f2aa4f6cd" target="_top" xlink:title="vector3::Y">
<polygon fill="none" stroke="#000000" points="758.5,-39.5 758.5,-59.5 826.5,-59.5 826.5,-39.5 758.5,-39.5"/>
<text text-anchor="middle" x="792.5" y="-46.5" font-family="FreeSans" font-size="10.00" fill="#000000">vector3::Y</text>
</a>
</g>
</g>
<!-- Node11&#45;&gt;Node19 -->
<g id="edge19" class="edge">
<title>Node11&#45;&gt;Node19</title>
<path fill="none" stroke="#191970" d="M641.0973,-97.4541C663.7848,-89.3112 696.8273,-77.7164 726,-68.5 733.2444,-66.2113 740.9701,-63.8933 748.4967,-61.7003"/>
<polygon fill="#191970" stroke="#191970" points="749.5773,-65.0314 758.2192,-58.9022 747.6413,-58.3044 749.5773,-65.0314"/>
</g>
<!-- Node20 -->
<g id="node20" class="node">
<title>Node20</title>
<g id="a_node20"><a xlink:href="../../db/dc5/classvector3.html#a634ddc883cd50c169e9bd19d3db08fb3" target="_top" xlink:title="vector3::Z">
<polygon fill="none" stroke="#000000" points="758.5,-.5 758.5,-20.5 826.5,-20.5 826.5,-.5 758.5,-.5"/>
<text text-anchor="middle" x="792.5" y="-7.5" font-family="FreeSans" font-size="10.00" fill="#000000">vector3::Z</text>
</a>
</g>
</g>
<!-- Node11&#45;&gt;Node20 -->
<g id="edge20" class="edge">
<title>Node11&#45;&gt;Node20</title>
<path fill="none" stroke="#191970" d="M625.1728,-97.4374C644.7631,-81.0223 686.0476,-48.4196 726,-29.5 733.0961,-26.1396 740.9059,-23.2563 748.6017,-20.8255"/>
<polygon fill="#191970" stroke="#191970" points="749.6253,-24.1728 758.2267,-17.9867 747.645,-17.4587 749.6253,-24.1728"/>
</g>
<!-- Node13 -->
<g id="node13" class="node">
<title>Node13</title>
<g id="a_node13"><a xlink:href="../../d4/d3e/classActs_1_1Logger.html#aee9e687247532b5175713e66b2d2121e" target="_top" xlink:title="create output stream object with internal cache">
<polygon fill="none" stroke="#000000" points="899,-195.5 899,-215.5 1001,-215.5 1001,-195.5 899,-195.5"/>
<text text-anchor="middle" x="950" y="-202.5" font-family="FreeSans" font-size="10.00" fill="#000000">Acts::Logger::log</text>
</a>
</g>
</g>
<!-- Node12&#45;&gt;Node13 -->
<g id="edge13" class="edge">
<title>Node12&#45;&gt;Node13</title>
<path fill="none" stroke="#191970" d="M819.5752,-205.5C838.5839,-205.5 864.7844,-205.5 888.7181,-205.5"/>
<polygon fill="#191970" stroke="#191970" points="888.809,-209.0001 898.809,-205.5 888.809,-202.0001 888.809,-209.0001"/>
</g>
<!-- Node14 -->
<g id="node14" class="node">
<title>Node14</title>
<g id="a_node14"><a xlink:href="../../df/dce/classActs_1_1Logging_1_1OutputPrintPolicy.html#ab113823970013e1e7f310b36509136ac" target="_top" xlink:title="handle output of debug message">
<polygon fill="none" stroke="#000000" points="1041,-189.5 1041,-221.5 1192,-221.5 1192,-189.5 1041,-189.5"/>
<text text-anchor="start" x="1049" y="-208.5" font-family="FreeSans" font-size="10.00" fill="#000000">Acts::Logging::OutputPrint</text>
<text text-anchor="middle" x="1116.5" y="-196.5" font-family="FreeSans" font-size="10.00" fill="#000000">Policy::flush</text>
</a>
</g>
</g>
<!-- Node13&#45;&gt;Node14 -->
<g id="edge14" class="edge">
<title>Node13&#45;&gt;Node14</title>
<path fill="none" stroke="#191970" d="M1001.3141,-205.5C1010.7019,-205.5 1020.7283,-205.5 1030.8025,-205.5"/>
<polygon fill="#191970" stroke="#191970" points="1030.8709,-209.0001 1040.8708,-205.5 1030.8708,-202.0001 1030.8709,-209.0001"/>
</g>
<!-- Node17 -->
<g id="node17" class="node">
<title>Node17</title>
<g id="a_node17"><a xlink:href="../../db/dc5/classvector3.html#a158f9f9ec5be5aee81feab744221b95f" target="_top" xlink:title="vector3::SetVector">
<polygon fill="none" stroke="#000000" points="895,-117.5 895,-137.5 1005,-137.5 1005,-117.5 895,-117.5"/>
<text text-anchor="middle" x="950" y="-124.5" font-family="FreeSans" font-size="10.00" fill="#000000">vector3::SetVector</text>
</a>
</g>
</g>
<!-- Node16&#45;&gt;Node17 -->
<g id="edge17" class="edge">
<title>Node16&#45;&gt;Node17</title>
<path fill="none" stroke="#191970" d="M859.2942,-127.5C867.639,-127.5 876.1672,-127.5 884.4921,-127.5"/>
<polygon fill="#191970" stroke="#191970" points="884.5199,-131.0001 894.5199,-127.5 884.5198,-124.0001 884.5199,-131.0001"/>
</g>
</g>
</svg>
