<?xml version="1.0" encoding="UTF-8" standalone="no"?>
<!DOCTYPE svg PUBLIC "-//W3C//DTD SVG 1.1//EN"
 "http://www.w3.org/Graphics/SVG/1.1/DTD/svg11.dtd">
<!-- Generated by graphviz version 2.40.1 (20161225.0304)
 -->
<!-- Title: fun4all_acts/blob/master/Tests/UnitTests/Core/Surfaces/LineBoundsTests.cpp Pages: 1 -->
<svg width="1154pt" height="431pt"
 viewBox="0.00 0.00 1153.50 431.00" xmlns="http://www.w3.org/2000/svg" xmlns:xlink="http://www.w3.org/1999/xlink">
<g id="graph0" class="graph" transform="scale(1 1) rotate(0) translate(4 427)">
<title>fun4all_acts/blob/master/Tests/UnitTests/Core/Surfaces/LineBoundsTests.cpp</title>
<!-- Node1 -->
<g id="node1" class="node">
<title>Node1</title>
<polygon fill="#bfbfbf" stroke="#000000" points="262.5,-378.5 262.5,-422.5 431.5,-422.5 431.5,-378.5 262.5,-378.5"/>
<text text-anchor="start" x="270.5" y="-409.5" font-family="FreeSans" font-size="10.00" fill="#000000">fun4all_acts/blob/master</text>
<text text-anchor="start" x="270.5" y="-397.5" font-family="FreeSans" font-size="10.00" fill="#000000">/Tests/UnitTests/Core/Surfaces</text>
<text text-anchor="middle" x="347" y="-385.5" font-family="FreeSans" font-size="10.00" fill="#000000">/LineBoundsTests.cpp</text>
</g>
<!-- Node2 -->
<g id="node2" class="node">
<title>Node2</title>
<polygon fill="none" stroke="#bfbfbf" points="0,-309.5 0,-341.5 116,-341.5 116,-309.5 0,-309.5"/>
<text text-anchor="start" x="8" y="-328.5" font-family="FreeSans" font-size="10.00" fill="#000000">boost/test/data/test</text>
<text text-anchor="middle" x="58" y="-316.5" font-family="FreeSans" font-size="10.00" fill="#000000">_case.hpp</text>
</g>
<!-- Node1&#45;&gt;Node2 -->
<g id="edge1" class="edge">
<title>Node1&#45;&gt;Node2</title>
<path fill="none" stroke="#191970" d="M262.2432,-378.5043C218.8526,-367.2438 166.7391,-353.7195 126.0135,-343.1506"/>
<polygon fill="#191970" stroke="#191970" points="126.7419,-339.7237 116.1833,-340.5995 124.9835,-346.4993 126.7419,-339.7237"/>
</g>
<!-- Node3 -->
<g id="node3" class="node">
<title>Node3</title>
<polygon fill="none" stroke="#bfbfbf" points="134,-309.5 134,-341.5 266,-341.5 266,-309.5 134,-309.5"/>
<text text-anchor="start" x="142" y="-328.5" font-family="FreeSans" font-size="10.00" fill="#000000">boost/test/tools/output</text>
<text text-anchor="middle" x="200" y="-316.5" font-family="FreeSans" font-size="10.00" fill="#000000">_test_stream.hpp</text>
</g>
<!-- Node1&#45;&gt;Node3 -->
<g id="edge2" class="edge">
<title>Node1&#45;&gt;Node3</title>
<path fill="none" stroke="#191970" d="M303.6902,-378.4032C283.8039,-368.2571 260.3488,-356.2902 240.7811,-346.3067"/>
<polygon fill="#191970" stroke="#191970" points="242.3046,-343.1548 231.8063,-341.7277 239.1232,-349.3901 242.3046,-343.1548"/>
</g>
<!-- Node4 -->
<g id="node4" class="node">
<title>Node4</title>
<polygon fill="none" stroke="#bfbfbf" points="202.5,-252.5 202.5,-272.5 339.5,-272.5 339.5,-252.5 202.5,-252.5"/>
<text text-anchor="middle" x="271" y="-259.5" font-family="FreeSans" font-size="10.00" fill="#000000">boost/test/unit_test.hpp</text>
</g>
<!-- Node1&#45;&gt;Node4 -->
<g id="edge3" class="edge">
<title>Node1&#45;&gt;Node4</title>
<path fill="none" stroke="#191970" d="M333.8714,-378.3975C327.4704,-367.499 319.7215,-354.1228 313,-342 301.6544,-321.5372 289.1962,-297.7824 280.8178,-281.6057"/>
<polygon fill="#191970" stroke="#191970" points="283.8714,-279.8908 276.1747,-272.6099 277.6511,-283.1014 283.8714,-279.8908"/>
</g>
<!-- Node5 -->
<g id="node5" class="node">
<title>Node5</title>
<g id="a_node5"><a xlink:href="../../d0/db6/LineBounds_8hpp.html" target="_top" xlink:title="Acts/Surfaces/LineBounds.hpp">
<polygon fill="none" stroke="#000000" points="580.5,-315.5 580.5,-335.5 751.5,-335.5 751.5,-315.5 580.5,-315.5"/>
<text text-anchor="middle" x="666" y="-322.5" font-family="FreeSans" font-size="10.00" fill="#000000">Acts/Surfaces/LineBounds.hpp</text>
</a>
</g>
</g>
<!-- Node1&#45;&gt;Node5 -->
<g id="edge4" class="edge">
<title>Node1&#45;&gt;Node5</title>
<path fill="none" stroke="#191970" d="M431.6486,-380.5983C489.3251,-367.038 563.8893,-349.5072 613.2457,-337.903"/>
<polygon fill="#191970" stroke="#191970" points="614.1405,-341.2882 623.074,-335.5923 612.5384,-334.474 614.1405,-341.2882"/>
</g>
<!-- Node15 -->
<g id="node15" class="node">
<title>Node15</title>
<g id="a_node15"><a xlink:href="../../d6/d1d/Definitions_8hpp.html" target="_top" xlink:title="Acts/Utilities/Definitions.hpp">
<polygon fill="none" stroke="#000000" points="426,-63.5 426,-83.5 586,-83.5 586,-63.5 426,-63.5"/>
<text text-anchor="middle" x="506" y="-70.5" font-family="FreeSans" font-size="10.00" fill="#000000">Acts/Utilities/Definitions.hpp</text>
</a>
</g>
</g>
<!-- Node1&#45;&gt;Node15 -->
<g id="edge34" class="edge">
<title>Node1&#45;&gt;Node15</title>
<path fill="none" stroke="#191970" d="M431.5228,-379.3597C451.7832,-370.721 471.6735,-358.6865 486,-342 509.7338,-314.3565 506,-298.9343 506,-262.5 506,-262.5 506,-262.5 506,-205.5 506,-165.9741 506,-119.7907 506,-93.8623"/>
<polygon fill="#191970" stroke="#191970" points="509.5001,-93.7693 506,-83.7693 502.5001,-93.7694 509.5001,-93.7693"/>
</g>
<!-- Node22 -->
<g id="node22" class="node">
<title>Node22</title>
<g id="a_node22"><a xlink:href="../../d4/d47/FloatComparisons_8hpp.html" target="_top" xlink:title="Acts/Tests/CommonHelpers\l/FloatComparisons.hpp">
<polygon fill="none" stroke="#000000" points="322.5,-309.5 322.5,-341.5 477.5,-341.5 477.5,-309.5 322.5,-309.5"/>
<text text-anchor="start" x="330.5" y="-328.5" font-family="FreeSans" font-size="10.00" fill="#000000">Acts/Tests/CommonHelpers</text>
<text text-anchor="middle" x="400" y="-316.5" font-family="FreeSans" font-size="10.00" fill="#000000">/FloatComparisons.hpp</text>
</a>
</g>
</g>
<!-- Node1&#45;&gt;Node22 -->
<g id="edge29" class="edge">
<title>Node1&#45;&gt;Node22</title>
<path fill="none" stroke="#191970" d="M362.6151,-378.4032C368.909,-369.4967 376.1945,-359.1871 382.653,-350.0477"/>
<polygon fill="#191970" stroke="#191970" points="385.6196,-351.9143 388.5324,-341.7277 379.9029,-347.8745 385.6196,-351.9143"/>
</g>
<!-- Node6 -->
<g id="node6" class="node">
<title>Node6</title>
<g id="a_node6"><a xlink:href="../../da/ddb/SurfaceBounds_8hpp.html" target="_top" xlink:title="Acts/Surfaces/SurfaceBounds.hpp">
<polygon fill="none" stroke="#000000" points="572,-252.5 572,-272.5 760,-272.5 760,-252.5 572,-252.5"/>
<text text-anchor="middle" x="666" y="-259.5" font-family="FreeSans" font-size="10.00" fill="#000000">Acts/Surfaces/SurfaceBounds.hpp</text>
</a>
</g>
</g>
<!-- Node5&#45;&gt;Node6 -->
<g id="edge5" class="edge">
<title>Node5&#45;&gt;Node6</title>
<path fill="none" stroke="#191970" d="M666,-315.378C666,-306.7041 666,-293.9355 666,-283.1186"/>
<polygon fill="#191970" stroke="#191970" points="669.5001,-282.8062 666,-272.8062 662.5001,-282.8062 669.5001,-282.8062"/>
</g>
<!-- Node12 -->
<g id="node12" class="node">
<title>Node12</title>
<polygon fill="none" stroke="#bfbfbf" points="1096.5,-63.5 1096.5,-83.5 1145.5,-83.5 1145.5,-63.5 1096.5,-63.5"/>
<text text-anchor="middle" x="1121" y="-70.5" font-family="FreeSans" font-size="10.00" fill="#000000">vector</text>
</g>
<!-- Node5&#45;&gt;Node12 -->
<g id="edge28" class="edge">
<title>Node5&#45;&gt;Node12</title>
<path fill="none" stroke="#191970" d="M713.6902,-315.4649C821.031,-291.7991 1075.9986,-229.183 1124,-159 1137.1775,-139.7331 1133.0453,-111.9 1127.8899,-93.2791"/>
<polygon fill="#191970" stroke="#191970" points="1131.1662,-92.0275 1124.8593,-83.5143 1124.4807,-94.1024 1131.1662,-92.0275"/>
</g>
<!-- Node5&#45;&gt;Node15 -->
<g id="edge26" class="edge">
<title>Node5&#45;&gt;Node15</title>
<path fill="none" stroke="#191970" d="M630.2638,-315.4201C607.925,-307.373 580.2235,-293.9171 563,-273 560.0664,-269.4372 525.2811,-143.6557 511.5368,-93.6772"/>
<polygon fill="#191970" stroke="#191970" points="514.8265,-92.4395 508.8023,-83.724 508.0766,-94.294 514.8265,-92.4395"/>
</g>
<!-- Node21 -->
<g id="node21" class="node">
<title>Node21</title>
<polygon fill="none" stroke="#bfbfbf" points="778.5,-252.5 778.5,-272.5 821.5,-272.5 821.5,-252.5 778.5,-252.5"/>
<text text-anchor="middle" x="800" y="-259.5" font-family="FreeSans" font-size="10.00" fill="#000000">array</text>
</g>
<!-- Node5&#45;&gt;Node21 -->
<g id="edge27" class="edge">
<title>Node5&#45;&gt;Node21</title>
<path fill="none" stroke="#191970" d="M687.5294,-315.378C709.7026,-304.9533 744.4559,-288.614 769.4634,-276.8568"/>
<polygon fill="#191970" stroke="#191970" points="770.9635,-280.0191 778.524,-272.5969 767.9851,-273.6843 770.9635,-280.0191"/>
</g>
<!-- Node7 -->
<g id="node7" class="node">
<title>Node7</title>
<polygon fill="none" stroke="#bfbfbf" points="637.5,-195.5 637.5,-215.5 694.5,-215.5 694.5,-195.5 637.5,-195.5"/>
<text text-anchor="middle" x="666" y="-202.5" font-family="FreeSans" font-size="10.00" fill="#000000">ostream</text>
</g>
<!-- Node6&#45;&gt;Node7 -->
<g id="edge6" class="edge">
<title>Node6&#45;&gt;Node7</title>
<path fill="none" stroke="#191970" d="M666,-252.3095C666,-244.9335 666,-234.72 666,-225.715"/>
<polygon fill="#191970" stroke="#191970" points="669.5001,-225.6022 666,-215.6022 662.5001,-225.6023 669.5001,-225.6022"/>
</g>
<!-- Node8 -->
<g id="node8" class="node">
<title>Node8</title>
<g id="a_node8"><a xlink:href="../../d7/d50/BoundaryCheck_8hpp.html" target="_top" xlink:title="Acts/Surfaces/BoundaryCheck.hpp">
<polygon fill="none" stroke="#000000" points="751,-195.5 751,-215.5 943,-215.5 943,-195.5 751,-195.5"/>
<text text-anchor="middle" x="847" y="-202.5" font-family="FreeSans" font-size="10.00" fill="#000000">Acts/Surfaces/BoundaryCheck.hpp</text>
</a>
</g>
</g>
<!-- Node6&#45;&gt;Node8 -->
<g id="edge7" class="edge">
<title>Node6&#45;&gt;Node8</title>
<path fill="none" stroke="#191970" d="M697.9425,-252.4408C727.8337,-243.0275 772.6608,-228.9107 805.3482,-218.6169"/>
<polygon fill="#191970" stroke="#191970" points="806.586,-221.8966 815.0729,-215.5544 804.4834,-215.2198 806.586,-221.8966"/>
</g>
<!-- Node6&#45;&gt;Node15 -->
<g id="edge25" class="edge">
<title>Node6&#45;&gt;Node15</title>
<path fill="none" stroke="#191970" d="M657.7581,-252.1674C650.2517,-242.7508 638.8663,-228.453 629,-216 597.3608,-176.0661 591.758,-164.1596 558,-126 547.1623,-113.7492 534.2213,-100.6787 523.9604,-90.6438"/>
<polygon fill="#191970" stroke="#191970" points="526.3333,-88.0695 516.7155,-83.6256 521.4629,-93.0973 526.3333,-88.0695"/>
</g>
<!-- Node9 -->
<g id="node9" class="node">
<title>Node9</title>
<polygon fill="none" stroke="#bfbfbf" points="912.5,-132.5 912.5,-152.5 957.5,-152.5 957.5,-132.5 912.5,-132.5"/>
<text text-anchor="middle" x="935" y="-139.5" font-family="FreeSans" font-size="10.00" fill="#000000">cfloat</text>
</g>
<!-- Node8&#45;&gt;Node9 -->
<g id="edge8" class="edge">
<title>Node8&#45;&gt;Node9</title>
<path fill="none" stroke="#191970" d="M861.1387,-195.378C874.9946,-185.4584 896.3308,-170.1837 912.5152,-158.597"/>
<polygon fill="#191970" stroke="#191970" points="914.8027,-161.264 920.8964,-152.5969 910.7279,-155.5722 914.8027,-161.264"/>
</g>
<!-- Node10 -->
<g id="node10" class="node">
<title>Node10</title>
<polygon fill="none" stroke="#bfbfbf" points="744,-.5 744,-20.5 792,-20.5 792,-.5 744,-.5"/>
<text text-anchor="middle" x="768" y="-7.5" font-family="FreeSans" font-size="10.00" fill="#000000">cmath</text>
</g>
<!-- Node8&#45;&gt;Node10 -->
<g id="edge9" class="edge">
<title>Node8&#45;&gt;Node10</title>
<path fill="none" stroke="#191970" d="M853.6293,-195.1477C869.1429,-169.4809 904.3493,-101.7556 875,-57 858.964,-32.5462 826.9834,-20.885 802.143,-15.3649"/>
<polygon fill="#191970" stroke="#191970" points="802.4912,-11.8659 792.0016,-13.3557 801.1307,-18.7324 802.4912,-11.8659"/>
</g>
<!-- Node11 -->
<g id="node11" class="node">
<title>Node11</title>
<polygon fill="none" stroke="#bfbfbf" points="610,-132.5 610,-152.5 664,-152.5 664,-132.5 610,-132.5"/>
<text text-anchor="middle" x="637" y="-139.5" font-family="FreeSans" font-size="10.00" fill="#000000">iterator</text>
</g>
<!-- Node8&#45;&gt;Node11 -->
<g id="edge10" class="edge">
<title>Node8&#45;&gt;Node11</title>
<path fill="none" stroke="#191970" d="M805.276,-195.4335C770.8255,-186.7852 720.8158,-173.4532 678,-159 675.4306,-158.1326 672.7891,-157.1903 670.1445,-156.2102"/>
<polygon fill="#191970" stroke="#191970" points="671.2662,-152.8916 660.6765,-152.5619 668.7492,-159.4234 671.2662,-152.8916"/>
</g>
<!-- Node8&#45;&gt;Node12 -->
<g id="edge11" class="edge">
<title>Node8&#45;&gt;Node12</title>
<path fill="none" stroke="#191970" d="M943.3128,-198.8976C1005.6966,-192.6179 1079.3843,-180.7657 1102,-159 1119.4013,-142.2527 1122.5239,-113.3752 1122.3872,-93.8656"/>
<polygon fill="#191970" stroke="#191970" points="1125.8759,-93.4894 1122.0134,-83.6237 1118.8805,-93.7448 1125.8759,-93.4894"/>
</g>
<!-- Node13 -->
<g id="node13" class="node">
<title>Node13</title>
<g id="a_node13"><a xlink:href="../../d4/d27/VerticesHelper_8hpp.html" target="_top" xlink:title="Acts/Surfaces/detail\l/VerticesHelper.hpp">
<polygon fill="none" stroke="#000000" points="975.5,-126.5 975.5,-158.5 1092.5,-158.5 1092.5,-126.5 975.5,-126.5"/>
<text text-anchor="start" x="983.5" y="-145.5" font-family="FreeSans" font-size="10.00" fill="#000000">Acts/Surfaces/detail</text>
<text text-anchor="middle" x="1034" y="-133.5" font-family="FreeSans" font-size="10.00" fill="#000000">/VerticesHelper.hpp</text>
</a>
</g>
</g>
<!-- Node8&#45;&gt;Node13 -->
<g id="edge12" class="edge">
<title>Node8&#45;&gt;Node13</title>
<path fill="none" stroke="#191970" d="M877.0448,-195.378C903.8255,-186.3556 943.7567,-172.9028 976.6396,-161.8246"/>
<polygon fill="#191970" stroke="#191970" points="977.7928,-165.1295 986.152,-158.6199 975.5579,-158.4958 977.7928,-165.1295"/>
</g>
<!-- Node8&#45;&gt;Node15 -->
<g id="edge17" class="edge">
<title>Node8&#45;&gt;Node15</title>
<path fill="none" stroke="#191970" d="M804.14,-195.418C776.4196,-187.8168 740.1958,-175.8046 711,-159 691.6136,-147.8415 692.5236,-136.9166 673,-126 639.7047,-107.383 598.9134,-94.4012 565.9805,-86.0041"/>
<polygon fill="#191970" stroke="#191970" points="566.5769,-82.5463 556.0292,-83.5441 564.897,-89.3417 566.5769,-82.5463"/>
</g>
<!-- Node17 -->
<g id="node17" class="node">
<title>Node17</title>
<g id="a_node17"><a xlink:href="../../d8/dfd/ParameterDefinitions_8hpp.html" target="_top" xlink:title="Acts/Utilities/Parameter\lDefinitions.hpp">
<polygon fill="none" stroke="#000000" points="720,-126.5 720,-158.5 856,-158.5 856,-126.5 720,-126.5"/>
<text text-anchor="start" x="728" y="-145.5" font-family="FreeSans" font-size="10.00" fill="#000000">Acts/Utilities/Parameter</text>
<text text-anchor="middle" x="788" y="-133.5" font-family="FreeSans" font-size="10.00" fill="#000000">Definitions.hpp</text>
</a>
</g>
</g>
<!-- Node8&#45;&gt;Node17 -->
<g id="edge18" class="edge">
<title>Node8&#45;&gt;Node17</title>
<path fill="none" stroke="#191970" d="M837.5206,-195.378C830.1487,-187.5062 819.6185,-176.2622 810.1624,-166.165"/>
<polygon fill="#191970" stroke="#191970" points="812.601,-163.6485 803.2107,-158.742 807.4917,-168.4334 812.601,-163.6485"/>
</g>
<!-- Node13&#45;&gt;Node12 -->
<g id="edge14" class="edge">
<title>Node13&#45;&gt;Node12</title>
<path fill="none" stroke="#191970" d="M1054.1782,-126.4966C1067.9792,-115.551 1086.2267,-101.0789 1100.1657,-90.0238"/>
<polygon fill="#191970" stroke="#191970" points="1102.5495,-92.6003 1108.2096,-83.6441 1098.1997,-87.1158 1102.5495,-92.6003"/>
</g>
<!-- Node14 -->
<g id="node14" class="node">
<title>Node14</title>
<polygon fill="none" stroke="#bfbfbf" points="1011.5,-63.5 1011.5,-83.5 1056.5,-83.5 1056.5,-63.5 1011.5,-63.5"/>
<text text-anchor="middle" x="1034" y="-70.5" font-family="FreeSans" font-size="10.00" fill="#000000">utility</text>
</g>
<!-- Node13&#45;&gt;Node14 -->
<g id="edge13" class="edge">
<title>Node13&#45;&gt;Node14</title>
<path fill="none" stroke="#191970" d="M1034,-126.4966C1034,-116.7901 1034,-104.3104 1034,-93.8996"/>
<polygon fill="#191970" stroke="#191970" points="1037.5001,-93.6441 1034,-83.6441 1030.5001,-93.6441 1037.5001,-93.6441"/>
</g>
<!-- Node13&#45;&gt;Node15 -->
<g id="edge15" class="edge">
<title>Node13&#45;&gt;Node15</title>
<path fill="none" stroke="#191970" d="M975.2751,-127.5271C972.4849,-126.9766 969.716,-126.4633 967,-126 803.2598,-98.0667 759.483,-113.1613 595,-90 585.5296,-88.6664 575.532,-87.0344 565.7932,-85.3212"/>
<polygon fill="#191970" stroke="#191970" points="566.2331,-81.8442 555.771,-83.5156 564.9919,-88.7333 566.2331,-81.8442"/>
</g>
<!-- Node16 -->
<g id="node16" class="node">
<title>Node16</title>
<polygon fill="none" stroke="#bfbfbf" points="466,-.5 466,-20.5 546,-20.5 546,-.5 466,-.5"/>
<text text-anchor="middle" x="506" y="-7.5" font-family="FreeSans" font-size="10.00" fill="#000000">Eigen/Dense</text>
</g>
<!-- Node15&#45;&gt;Node16 -->
<g id="edge16" class="edge">
<title>Node15&#45;&gt;Node16</title>
<path fill="none" stroke="#191970" d="M506,-63.378C506,-54.7041 506,-41.9355 506,-31.1186"/>
<polygon fill="#191970" stroke="#191970" points="509.5001,-30.8062 506,-20.8062 502.5001,-30.8062 509.5001,-30.8062"/>
</g>
<!-- Node17&#45;&gt;Node10 -->
<g id="edge19" class="edge">
<title>Node17&#45;&gt;Node10</title>
<path fill="none" stroke="#191970" d="M785.5476,-126.3142C781.8968,-102.219 775.0373,-56.9465 771.0621,-30.7096"/>
<polygon fill="#191970" stroke="#191970" points="774.5114,-30.1108 769.5527,-20.748 767.5904,-31.1595 774.5114,-30.1108"/>
</g>
<!-- Node17&#45;&gt;Node15 -->
<g id="edge21" class="edge">
<title>Node17&#45;&gt;Node15</title>
<path fill="none" stroke="#191970" d="M722.5947,-126.4966C672.1173,-114.1457 603.2884,-97.3046 556.8803,-85.9494"/>
<polygon fill="#191970" stroke="#191970" points="557.5883,-82.5195 547.0429,-83.5424 555.9245,-89.3189 557.5883,-82.5195"/>
</g>
<!-- Node18 -->
<g id="node18" class="node">
<title>Node18</title>
<polygon fill="none" stroke="#bfbfbf" points="796,-63.5 796,-83.5 866,-83.5 866,-63.5 796,-63.5"/>
<text text-anchor="middle" x="831" y="-70.5" font-family="FreeSans" font-size="10.00" fill="#000000">type_traits</text>
</g>
<!-- Node17&#45;&gt;Node18 -->
<g id="edge20" class="edge">
<title>Node17&#45;&gt;Node18</title>
<path fill="none" stroke="#191970" d="M797.9731,-126.4966C804.3438,-116.2738 812.6316,-102.9749 819.3111,-92.2567"/>
<polygon fill="#191970" stroke="#191970" points="822.3597,-93.9822 824.6783,-83.6441 816.4189,-90.2799 822.3597,-93.9822"/>
</g>
<!-- Node19 -->
<g id="node19" class="node">
<title>Node19</title>
<g id="a_node19"><a xlink:href="../../d7/d46/ParameterTypes_8hpp.html" target="_top" xlink:title="Acts/Utilities/Parameter\lTypes.hpp">
<polygon fill="none" stroke="#000000" points="604,-57.5 604,-89.5 740,-89.5 740,-57.5 604,-57.5"/>
<text text-anchor="start" x="612" y="-76.5" font-family="FreeSans" font-size="10.00" fill="#000000">Acts/Utilities/Parameter</text>
<text text-anchor="middle" x="672" y="-64.5" font-family="FreeSans" font-size="10.00" fill="#000000">Types.hpp</text>
</a>
</g>
</g>
<!-- Node17&#45;&gt;Node19 -->
<g id="edge22" class="edge">
<title>Node17&#45;&gt;Node19</title>
<path fill="none" stroke="#191970" d="M761.0957,-126.4966C745.2513,-117.0719 725.0114,-105.0326 707.828,-94.8115"/>
<polygon fill="#191970" stroke="#191970" points="709.544,-91.7599 699.1602,-89.6557 705.9654,-97.776 709.544,-91.7599"/>
</g>
<!-- Node19&#45;&gt;Node10 -->
<g id="edge24" class="edge">
<title>Node19&#45;&gt;Node10</title>
<path fill="none" stroke="#191970" d="M696.4732,-57.4394C711.1024,-47.839 729.6051,-35.6967 744.1265,-26.167"/>
<polygon fill="#191970" stroke="#191970" points="746.1432,-29.0299 752.5834,-20.6171 742.3026,-23.1776 746.1432,-29.0299"/>
</g>
<!-- Node20 -->
<g id="node20" class="node">
<title>Node20</title>
<polygon fill="none" stroke="#bfbfbf" points="359.5,-.5 359.5,-20.5 424.5,-20.5 424.5,-.5 359.5,-.5"/>
<text text-anchor="middle" x="392" y="-7.5" font-family="FreeSans" font-size="10.00" fill="#000000">algorithm</text>
</g>
<!-- Node19&#45;&gt;Node20 -->
<g id="edge23" class="edge">
<title>Node19&#45;&gt;Node20</title>
<path fill="none" stroke="#191970" d="M603.8623,-58.169C551.1497,-46.3087 479.7892,-30.2526 434.8235,-20.1353"/>
<polygon fill="#191970" stroke="#191970" points="435.3419,-16.6645 424.8175,-17.8839 433.8053,-23.4938 435.3419,-16.6645"/>
</g>
<!-- Node22&#45;&gt;Node4 -->
<g id="edge32" class="edge">
<title>Node22&#45;&gt;Node4</title>
<path fill="none" stroke="#191970" d="M367.1141,-309.4394C346.7143,-299.4768 320.7093,-286.7766 300.8944,-277.0996"/>
<polygon fill="#191970" stroke="#191970" points="302.2376,-273.8605 291.716,-272.6171 299.1658,-280.1505 302.2376,-273.8605"/>
</g>
<!-- Node22&#45;&gt;Node15 -->
<g id="edge33" class="edge">
<title>Node22&#45;&gt;Node15</title>
<path fill="none" stroke="#191970" d="M419.0925,-309.2138C429.2769,-299.6064 441.2679,-286.6747 449,-273 453.5328,-264.9834 487.207,-142.4314 500.5641,-93.4773"/>
<polygon fill="#191970" stroke="#191970" points="503.9722,-94.2829 503.2247,-83.7144 497.2185,-92.4423 503.9722,-94.2829"/>
</g>
<!-- Node22&#45;&gt;Node20 -->
<g id="edge30" class="edge">
<title>Node22&#45;&gt;Node20</title>
<path fill="none" stroke="#191970" d="M392.7387,-309.1731C383.2974,-286.4192 368,-243.6636 368,-205.5 368,-205.5 368,-205.5 368,-142.5 368,-102.146 378.992,-55.9556 386.0982,-30.3107"/>
<polygon fill="#191970" stroke="#191970" points="389.475,-31.2319 388.8624,-20.6548 382.7453,-29.3053 389.475,-31.2319"/>
</g>
<!-- Node23 -->
<g id="node23" class="node">
<title>Node23</title>
<polygon fill="none" stroke="#bfbfbf" points="396,-252.5 396,-272.5 440,-272.5 440,-252.5 396,-252.5"/>
<text text-anchor="middle" x="418" y="-259.5" font-family="FreeSans" font-size="10.00" fill="#000000">limits</text>
</g>
<!-- Node22&#45;&gt;Node23 -->
<g id="edge31" class="edge">
<title>Node22&#45;&gt;Node23</title>
<path fill="none" stroke="#191970" d="M404.6354,-309.2759C406.9756,-301.0854 409.8352,-291.0769 412.3078,-282.4226"/>
<polygon fill="#191970" stroke="#191970" points="415.6891,-283.3281 415.0711,-272.7513 408.9584,-281.405 415.6891,-283.3281"/>
</g>
</g>
</svg>
