<?xml version="1.0" encoding="UTF-8" standalone="no"?>
<!DOCTYPE svg PUBLIC "-//W3C//DTD SVG 1.1//EN"
 "http://www.w3.org/Graphics/SVG/1.1/DTD/svg11.dtd">
<!-- Generated by graphviz version 2.40.1 (20161225.0304)
 -->
<!-- Title: PHG4PhenixDetector::AddDetector Pages: 1 -->
<svg width="681pt" height="482pt"
 viewBox="0.00 0.00 681.00 482.00" xmlns="http://www.w3.org/2000/svg" xmlns:xlink="http://www.w3.org/1999/xlink">
<g id="graph0" class="graph" transform="scale(1 1) rotate(0) translate(4 478)">
<title>PHG4PhenixDetector::AddDetector</title>
<!-- Node1 -->
<g id="node1" class="node">
<title>Node1</title>
<polygon fill="#bfbfbf" stroke="#000000" points="0,-271.5 0,-303.5 122,-303.5 122,-271.5 0,-271.5"/>
<text text-anchor="start" x="8" y="-290.5" font-family="FreeSans" font-size="10.00" fill="#000000">PHG4PhenixDetector</text>
<text text-anchor="middle" x="61" y="-278.5" font-family="FreeSans" font-size="10.00" fill="#000000">::AddDetector</text>
</g>
<!-- Node2 -->
<g id="node2" class="node">
<title>Node2</title>
<g id="a_node2"><a xlink:href="../../d0/d78/classPHG4Reco.html#a9d8228ce8682c19cd6be2f6b44ec847b" target="_top" xlink:title="PHG4Reco::InitRun">
<polygon fill="none" stroke="#000000" points="158,-277.5 158,-297.5 268,-297.5 268,-277.5 158,-277.5"/>
<text text-anchor="middle" x="213" y="-284.5" font-family="FreeSans" font-size="10.00" fill="#000000">PHG4Reco::InitRun</text>
</a>
</g>
</g>
<!-- Node1&#45;&gt;Node2 -->
<g id="edge1" class="edge">
<title>Node1&#45;&gt;Node2</title>
<path fill="none" stroke="#191970" d="M132.6243,-287.5C141.0703,-287.5 149.5886,-287.5 157.7601,-287.5"/>
<polygon fill="#191970" stroke="#191970" points="132.3861,-284.0001 122.3861,-287.5 132.386,-291.0001 132.3861,-284.0001"/>
</g>
<!-- Node3 -->
<g id="node3" class="node">
<title>Node3</title>
<g id="a_node3"><a xlink:href="../../d3/d42/Fun4All__G4__QtDisplay_8C.html#a7fc9d96420ef1de5f1fc43a1657ac8bf" target="_top" xlink:title="Fun4All_G4_QtDisplay">
<polygon fill="none" stroke="#000000" points="316.5,-406.5 316.5,-426.5 443.5,-426.5 443.5,-406.5 316.5,-406.5"/>
<text text-anchor="middle" x="380" y="-413.5" font-family="FreeSans" font-size="10.00" fill="#000000">Fun4All_G4_QtDisplay</text>
</a>
</g>
</g>
<!-- Node2&#45;&gt;Node3 -->
<g id="edge2" class="edge">
<title>Node2&#45;&gt;Node3</title>
<path fill="none" stroke="#191970" d="M223.3739,-306.3347C238.0288,-331.1298 267.1621,-374.2857 304,-397.5 309.7532,-401.1255 316.1582,-404.0596 322.741,-406.4341"/>
<polygon fill="#191970" stroke="#191970" points="226.3302,-304.4541 218.3191,-297.5207 220.2579,-307.9366 226.3302,-304.4541"/>
</g>
<!-- Node4 -->
<g id="node4" class="node">
<title>Node4</title>
<g id="a_node4"><a xlink:href="../../d7/da9/Fun4All__G4__Tracking_8C.html#acaee55add6a4a54eb182c6120db9649a" target="_top" xlink:title="Fun4All_G4_Tracking">
<polygon fill="none" stroke="#000000" points="320,-367.5 320,-387.5 440,-387.5 440,-367.5 320,-367.5"/>
<text text-anchor="middle" x="380" y="-374.5" font-family="FreeSans" font-size="10.00" fill="#000000">Fun4All_G4_Tracking</text>
</a>
</g>
</g>
<!-- Node2&#45;&gt;Node4 -->
<g id="edge3" class="edge">
<title>Node2&#45;&gt;Node4</title>
<path fill="none" stroke="#191970" d="M230.5277,-304.8726C247.8094,-321.0497 275.6757,-344.6858 304,-358.5 311.3345,-362.0771 319.4057,-365.0212 327.4655,-367.4324"/>
<polygon fill="#191970" stroke="#191970" points="232.582,-301.9939 222.9385,-297.606 227.7409,-307.05 232.582,-301.9939"/>
</g>
<!-- Node5 -->
<g id="node5" class="node">
<title>Node5</title>
<g id="a_node5"><a xlink:href="../../d5/df2/Fun4All__EIC__Generator__Display_8C.html#a276181099936efe81415286b29f36e51" target="_top" xlink:title="Fun4All_EIC_Generator\l_Display">
<polygon fill="none" stroke="#000000" points="314,-316.5 314,-348.5 446,-348.5 446,-316.5 314,-316.5"/>
<text text-anchor="start" x="322" y="-335.5" font-family="FreeSans" font-size="10.00" fill="#000000">Fun4All_EIC_Generator</text>
<text text-anchor="middle" x="380" y="-323.5" font-family="FreeSans" font-size="10.00" fill="#000000">_Display</text>
</a>
</g>
</g>
<!-- Node2&#45;&gt;Node5 -->
<g id="edge4" class="edge">
<title>Node2&#45;&gt;Node5</title>
<path fill="none" stroke="#191970" d="M260.2325,-300.2273C278.9178,-305.2623 300.6105,-311.1076 320.3594,-316.4292"/>
<polygon fill="#191970" stroke="#191970" points="261.0443,-296.8213 250.4781,-297.5989 259.223,-303.5802 261.0443,-296.8213"/>
</g>
<!-- Node6 -->
<g id="node6" class="node">
<title>Node6</title>
<g id="a_node6"><a xlink:href="../../d6/db7/fun4all__eicmacros_2blob_2master_2detectors_2AllSilicon_2DisplayOn_8C.html#a36f5cc4ebb7cd23dac7e492d5c38fbc0" target="_top" xlink:title="QTGui">
<polygon fill="none" stroke="#000000" points="356.5,-277.5 356.5,-297.5 403.5,-297.5 403.5,-277.5 356.5,-277.5"/>
<text text-anchor="middle" x="380" y="-284.5" font-family="FreeSans" font-size="10.00" fill="#000000">QTGui</text>
</a>
</g>
</g>
<!-- Node2&#45;&gt;Node6 -->
<g id="edge5" class="edge">
<title>Node2&#45;&gt;Node6</title>
<path fill="none" stroke="#191970" d="M278.468,-287.5C305.8173,-287.5 335.8768,-287.5 356.1382,-287.5"/>
<polygon fill="#191970" stroke="#191970" points="278.1449,-284.0001 268.1449,-287.5 278.1448,-291.0001 278.1449,-284.0001"/>
</g>
<!-- Node7 -->
<g id="node7" class="node">
<title>Node7</title>
<g id="a_node7"><a xlink:href="../../d6/db7/fun4all__eicmacros_2blob_2master_2detectors_2AllSilicon_2DisplayOn_8C.html#a8ac4d6fb78f920957b354f88d6195f54" target="_top" xlink:title="DisplayOn">
<polygon fill="none" stroke="#000000" points="346,-238.5 346,-258.5 414,-258.5 414,-238.5 346,-238.5"/>
<text text-anchor="middle" x="380" y="-245.5" font-family="FreeSans" font-size="10.00" fill="#000000">DisplayOn</text>
</a>
</g>
</g>
<!-- Node2&#45;&gt;Node7 -->
<g id="edge6" class="edge">
<title>Node2&#45;&gt;Node7</title>
<path fill="none" stroke="#191970" d="M265.7794,-275.1743C291.9436,-269.0641 322.784,-261.8618 345.8194,-256.4823"/>
<polygon fill="#191970" stroke="#191970" points="264.9487,-271.774 256.0066,-277.4565 266.5406,-278.5906 264.9487,-271.774"/>
</g>
<!-- Node20 -->
<g id="node20" class="node">
<title>Node20</title>
<g id="a_node20"><a xlink:href="../../d4/dfa/Fun4All__Generator__Display_8C.html#af87924a94b22e18901f0d64805565f09" target="_top" xlink:title="Fun4All_Generator_Display">
<polygon fill="none" stroke="#000000" points="304,-199.5 304,-219.5 456,-219.5 456,-199.5 304,-199.5"/>
<text text-anchor="middle" x="380" y="-206.5" font-family="FreeSans" font-size="10.00" fill="#000000">Fun4All_Generator_Display</text>
</a>
</g>
</g>
<!-- Node2&#45;&gt;Node20 -->
<g id="edge19" class="edge">
<title>Node2&#45;&gt;Node20</title>
<path fill="none" stroke="#191970" d="M234.2972,-271.2201C252.09,-258.3028 278.5675,-240.6258 304,-229.5 312.9999,-225.5628 322.9491,-222.2583 332.6017,-219.542"/>
<polygon fill="#191970" stroke="#191970" points="231.7925,-268.7195 225.8359,-277.4813 235.9564,-274.3464 231.7925,-268.7195"/>
</g>
<!-- Node21 -->
<g id="node21" class="node">
<title>Node21</title>
<g id="a_node21"><a xlink:href="../../dd/d94/fun4all__tutorials_2blob_2master_2materialscan_2matscan_8C.html#a98ccbc6135fead542f3c4d1dd6882d63" target="_top" xlink:title="matscan">
<polygon fill="none" stroke="#000000" points="350.5,-160.5 350.5,-180.5 409.5,-180.5 409.5,-160.5 350.5,-160.5"/>
<text text-anchor="middle" x="380" y="-167.5" font-family="FreeSans" font-size="10.00" fill="#000000">matscan</text>
</a>
</g>
</g>
<!-- Node2&#45;&gt;Node21 -->
<g id="edge20" class="edge">
<title>Node2&#45;&gt;Node21</title>
<path fill="none" stroke="#191970" d="M225.5613,-268.7193C241.2987,-246.6677 270.3265,-210.5621 304,-190.5 318.0653,-182.1201 335.6436,-177.2018 350.351,-174.3412"/>
<polygon fill="#191970" stroke="#191970" points="222.4857,-267.012 219.6555,-277.2218 228.2349,-271.0053 222.4857,-267.012"/>
</g>
<!-- Node8 -->
<g id="node8" class="node">
<title>Node8</title>
<g id="a_node8"><a xlink:href="../../db/dc0/Fun4All__AnaTutorial_8C.html#aeb927fc74810ef9bc0c056302f1fbe69" target="_top" xlink:title="Fun4All_AnaTutorial">
<polygon fill="none" stroke="#000000" points="525,-453.5 525,-473.5 640,-473.5 640,-453.5 525,-453.5"/>
<text text-anchor="middle" x="582.5" y="-460.5" font-family="FreeSans" font-size="10.00" fill="#000000">Fun4All_AnaTutorial</text>
</a>
</g>
</g>
<!-- Node7&#45;&gt;Node8 -->
<g id="edge7" class="edge">
<title>Node7&#45;&gt;Node8</title>
<path fill="none" stroke="#191970" d="M424.152,-251.6607C435.9108,-254.5662 447.6497,-259.6723 456,-268.5 510.8667,-326.5031 435.6896,-387.8974 492,-444.5 500.8317,-453.3776 512.6831,-458.6092 524.8942,-461.5925"/>
<polygon fill="#191970" stroke="#191970" points="424.8352,-248.2282 414.3437,-249.7043 423.4658,-255.0929 424.8352,-248.2282"/>
</g>
<!-- Node9 -->
<g id="node9" class="node">
<title>Node9</title>
<g id="a_node9"><a xlink:href="../../dd/d28/Fun4All__AnaTutorial__Jets_8C.html#a49f0c60dbca7146b42abc2eedf173722" target="_top" xlink:title="Fun4All_AnaTutorial_Jets">
<polygon fill="none" stroke="#000000" points="513,-414.5 513,-434.5 652,-434.5 652,-414.5 513,-414.5"/>
<text text-anchor="middle" x="582.5" y="-421.5" font-family="FreeSans" font-size="10.00" fill="#000000">Fun4All_AnaTutorial_Jets</text>
</a>
</g>
</g>
<!-- Node7&#45;&gt;Node9 -->
<g id="edge8" class="edge">
<title>Node7&#45;&gt;Node9</title>
<path fill="none" stroke="#191970" d="M424.1978,-252.047C435.8332,-254.9722 447.4951,-259.9921 456,-268.5 500.5086,-313.0246 446.384,-362.1107 492,-405.5 497.9326,-411.143 505.0932,-415.2917 512.757,-418.3175"/>
<polygon fill="#191970" stroke="#191970" points="424.5572,-248.5484 414.0596,-249.9806 423.1591,-255.4074 424.5572,-248.5484"/>
</g>
<!-- Node10 -->
<g id="node10" class="node">
<title>Node10</title>
<g id="a_node10"><a xlink:href="../../d8/d14/Fun4All__G4__Babar_8C.html#ae3babc7f493f8a671f129ef3084ebc23" target="_top" xlink:title="Fun4All_G4_Babar">
<polygon fill="none" stroke="#000000" points="528,-375.5 528,-395.5 637,-395.5 637,-375.5 528,-375.5"/>
<text text-anchor="middle" x="582.5" y="-382.5" font-family="FreeSans" font-size="10.00" fill="#000000">Fun4All_G4_Babar</text>
</a>
</g>
</g>
<!-- Node7&#45;&gt;Node10 -->
<g id="edge9" class="edge">
<title>Node7&#45;&gt;Node10</title>
<path fill="none" stroke="#191970" d="M424.301,-252.7368C435.7283,-255.6874 447.2565,-260.5478 456,-268.5 490.3273,-299.7206 456.8972,-336.154 492,-366.5 501.959,-375.1095 514.8234,-380.1529 527.71,-383.0315"/>
<polygon fill="#191970" stroke="#191970" points="424.8687,-249.2791 414.3573,-250.6058 423.4018,-256.1236 424.8687,-249.2791"/>
</g>
<!-- Node11 -->
<g id="node11" class="node">
<title>Node11</title>
<g id="a_node11"><a xlink:href="../../df/d9d/fun4all__eicmacros_2blob_2master_2detectors_2Beast_2Fun4All__G4__Beast_8C.html#aa12a55b170fc12d7549cea7cc497eb38" target="_top" xlink:title="Fun4All_G4_Beast">
<polygon fill="none" stroke="#000000" points="529,-336.5 529,-356.5 636,-356.5 636,-336.5 529,-336.5"/>
<text text-anchor="middle" x="582.5" y="-343.5" font-family="FreeSans" font-size="10.00" fill="#000000">Fun4All_G4_Beast</text>
</a>
</g>
</g>
<!-- Node7&#45;&gt;Node11 -->
<g id="edge10" class="edge">
<title>Node7&#45;&gt;Node11</title>
<path fill="none" stroke="#191970" d="M424.2875,-254.1596C435.407,-257.1247 446.7844,-261.6367 456,-268.5 480.6365,-286.8479 466.9091,-309.7785 492,-327.5 502.7529,-335.0947 515.9026,-339.7735 528.8103,-342.6251"/>
<polygon fill="#191970" stroke="#191970" points="424.7473,-250.6742 414.2177,-251.8484 423.1813,-257.4968 424.7473,-250.6742"/>
</g>
<!-- Node12 -->
<g id="node12" class="node">
<title>Node12</title>
<g id="a_node12"><a xlink:href="../../de/dcc/Fun4All__G4__Cleo_8C.html#ae4d584d6f7864ddc358a5cb1bf03bfa5" target="_top" xlink:title="Fun4All_G4_Cleo">
<polygon fill="none" stroke="#000000" points="532.5,-297.5 532.5,-317.5 632.5,-317.5 632.5,-297.5 532.5,-297.5"/>
<text text-anchor="middle" x="582.5" y="-304.5" font-family="FreeSans" font-size="10.00" fill="#000000">Fun4All_G4_Cleo</text>
</a>
</g>
</g>
<!-- Node7&#45;&gt;Node12 -->
<g id="edge11" class="edge">
<title>Node7&#45;&gt;Node12</title>
<path fill="none" stroke="#191970" d="M424.1843,-258.135C434.7735,-260.9867 445.9271,-264.4509 456,-268.5 472.9826,-275.3267 474.8508,-282.1033 492,-288.5 504.7857,-293.2691 519.058,-296.9659 532.4202,-299.7766"/>
<polygon fill="#191970" stroke="#191970" points="424.8144,-254.6833 414.2583,-255.5894 423.0754,-261.4639 424.8144,-254.6833"/>
</g>
<!-- Node13 -->
<g id="node13" class="node">
<title>Node13</title>
<g id="a_node13"><a xlink:href="../../d4/d91/fun4all__macros_2blob_2master_2detectors_2EICDetector_2Fun4All__G4__EICDetector_8C.html#add9dee08cdb08b59c0b3870bb04994d9" target="_top" xlink:title="Fun4All_G4_EICDetector">
<polygon fill="none" stroke="#000000" points="513,-258.5 513,-278.5 652,-278.5 652,-258.5 513,-258.5"/>
<text text-anchor="middle" x="582.5" y="-265.5" font-family="FreeSans" font-size="10.00" fill="#000000">Fun4All_G4_EICDetector</text>
</a>
</g>
</g>
<!-- Node7&#45;&gt;Node13 -->
<g id="edge12" class="edge">
<title>Node7&#45;&gt;Node13</title>
<path fill="none" stroke="#191970" d="M424.5786,-252.9028C450.3908,-255.4522 483.4516,-258.7174 512.6471,-261.6009"/>
<polygon fill="#191970" stroke="#191970" points="424.647,-249.3926 414.3514,-251.8927 423.9589,-256.3587 424.647,-249.3926"/>
</g>
<!-- Node14 -->
<g id="node14" class="node">
<title>Node14</title>
<g id="a_node14"><a xlink:href="../../d7/d9e/Fun4All__G4__fsPHENIX_8C.html#a75e8ef26e92f882a865536a3e16244c5" target="_top" xlink:title="Fun4All_G4_fsPHENIX">
<polygon fill="none" stroke="#000000" points="520.5,-219.5 520.5,-239.5 644.5,-239.5 644.5,-219.5 520.5,-219.5"/>
<text text-anchor="middle" x="582.5" y="-226.5" font-family="FreeSans" font-size="10.00" fill="#000000">Fun4All_G4_fsPHENIX</text>
</a>
</g>
</g>
<!-- Node7&#45;&gt;Node14 -->
<g id="edge13" class="edge">
<title>Node7&#45;&gt;Node14</title>
<path fill="none" stroke="#191970" d="M424.3156,-244.342C452.5061,-241.697 489.4208,-238.2334 520.4986,-235.3174"/>
<polygon fill="#191970" stroke="#191970" points="423.9806,-240.858 414.3514,-245.2769 424.6346,-247.8273 423.9806,-240.858"/>
</g>
<!-- Node15 -->
<g id="node15" class="node">
<title>Node15</title>
<g id="a_node15"><a xlink:href="../../d5/d97/Fun4All__G4__FullDetectorModular_8C.html#a3718da6a9c8edc72f231ee413c514dad" target="_top" xlink:title="Fun4All_G4_FullDetectorModular">
<polygon fill="none" stroke="#000000" points="492,-180.5 492,-200.5 673,-200.5 673,-180.5 492,-180.5"/>
<text text-anchor="middle" x="582.5" y="-187.5" font-family="FreeSans" font-size="10.00" fill="#000000">Fun4All_G4_FullDetectorModular</text>
</a>
</g>
</g>
<!-- Node7&#45;&gt;Node15 -->
<g id="edge14" class="edge">
<title>Node7&#45;&gt;Node15</title>
<path fill="none" stroke="#191970" d="M424.1345,-239.3743C434.7253,-236.6642 445.8921,-233.3659 456,-229.5 472.8979,-223.0371 475.0149,-216.7301 492,-210.5 502.7258,-206.5658 514.4633,-203.2755 525.8264,-200.5745"/>
<polygon fill="#191970" stroke="#191970" points="423.0978,-236.0244 414.2102,-241.7916 424.7544,-242.8255 423.0978,-236.0244"/>
</g>
<!-- Node16 -->
<g id="node16" class="node">
<title>Node16</title>
<g id="a_node16"><a xlink:href="../../d0/dce/Fun4All__G4__FullDetectorModularBeast_8C.html#a0f10ba4ce157df87369cfd776fc132d3" target="_top" xlink:title="Fun4All_G4_FullDetectorModular\lBeast">
<polygon fill="none" stroke="#000000" points="492,-129.5 492,-161.5 673,-161.5 673,-129.5 492,-129.5"/>
<text text-anchor="start" x="500" y="-148.5" font-family="FreeSans" font-size="10.00" fill="#000000">Fun4All_G4_FullDetectorModular</text>
<text text-anchor="middle" x="582.5" y="-136.5" font-family="FreeSans" font-size="10.00" fill="#000000">Beast</text>
</a>
</g>
</g>
<!-- Node7&#45;&gt;Node16 -->
<g id="edge15" class="edge">
<title>Node7&#45;&gt;Node16</title>
<path fill="none" stroke="#191970" d="M424.2352,-243.4332C435.355,-240.6144 446.7456,-236.2495 456,-229.5 480.5128,-211.6221 467.8018,-189.8014 492,-171.5 497.0849,-167.6542 502.7209,-164.3767 508.622,-161.5837"/>
<polygon fill="#191970" stroke="#191970" points="423.202,-240.0757 414.1684,-245.6113 424.6824,-246.9174 423.202,-240.0757"/>
</g>
<!-- Node17 -->
<g id="node17" class="node">
<title>Node17</title>
<g id="a_node17"><a xlink:href="../../d0/d87/Fun4All__G4__JLeic_8C.html#a7a87d035cddeb1ed64bf376560381994" target="_top" xlink:title="Fun4All_G4_JLeic">
<polygon fill="none" stroke="#000000" points="532,-90.5 532,-110.5 633,-110.5 633,-90.5 532,-90.5"/>
<text text-anchor="middle" x="582.5" y="-97.5" font-family="FreeSans" font-size="10.00" fill="#000000">Fun4All_G4_JLeic</text>
</a>
</g>
</g>
<!-- Node7&#45;&gt;Node17 -->
<g id="edge16" class="edge">
<title>Node7&#45;&gt;Node17</title>
<path fill="none" stroke="#191970" d="M424.1395,-245.1566C435.6686,-242.3685 447.2896,-237.5884 456,-229.5 493.3855,-194.7841 454.1411,-154.6989 492,-120.5 502.8659,-110.6846 517.4422,-105.3202 531.7181,-102.4826"/>
<polygon fill="#191970" stroke="#191970" points="423.2451,-241.7653 414.1071,-247.127 424.5942,-248.6341 423.2451,-241.7653"/>
</g>
<!-- Node18 -->
<g id="node18" class="node">
<title>Node18</title>
<g id="a_node18"><a xlink:href="../../d9/d73/fun4all__macros_2blob_2master_2detectors_2sPHENIX_2Fun4All__G4__sPHENIX_8C.html#a4102cd3e195333de974409428a2e6dae" target="_top" xlink:title="Fun4All_G4_sPHENIX">
<polygon fill="none" stroke="#000000" points="522,-51.5 522,-71.5 643,-71.5 643,-51.5 522,-51.5"/>
<text text-anchor="middle" x="582.5" y="-58.5" font-family="FreeSans" font-size="10.00" fill="#000000">Fun4All_G4_sPHENIX</text>
</a>
</g>
</g>
<!-- Node7&#45;&gt;Node18 -->
<g id="edge17" class="edge">
<title>Node7&#45;&gt;Node18</title>
<path fill="none" stroke="#191970" d="M424.2654,-245.6769C435.9019,-242.9072 447.5475,-238.0065 456,-229.5 503.7154,-181.4797 443.6293,-128.8602 492,-81.5 500.1632,-73.5073 510.7596,-68.4097 521.8116,-65.2161"/>
<polygon fill="#191970" stroke="#191970" points="423.2955,-242.2984 414.1222,-247.5994 424.5991,-249.1759 423.2955,-242.2984"/>
</g>
<!-- Node19 -->
<g id="node19" class="node">
<title>Node19</title>
<g id="a_node19"><a xlink:href="../../d3/d2b/Fun4All__G4__sPHENIX__particle__gen_8C.html#a381adc702b7bfb99356660cdb6407e70" target="_top" xlink:title="Fun4All_G4_sPHENIX\l_particle_gen">
<polygon fill="none" stroke="#000000" points="522,-.5 522,-32.5 643,-32.5 643,-.5 522,-.5"/>
<text text-anchor="start" x="530" y="-19.5" font-family="FreeSans" font-size="10.00" fill="#000000">Fun4All_G4_sPHENIX</text>
<text text-anchor="middle" x="582.5" y="-7.5" font-family="FreeSans" font-size="10.00" fill="#000000">_particle_gen</text>
</a>
</g>
</g>
<!-- Node7&#45;&gt;Node19 -->
<g id="edge18" class="edge">
<title>Node7&#45;&gt;Node19</title>
<path fill="none" stroke="#191970" d="M424.5341,-245.9375C436.1752,-243.1722 447.7559,-238.2086 456,-229.5 514.1857,-168.0355 434.8919,-104.967 492,-42.5 499.9418,-33.813 510.575,-27.9558 521.7575,-24.0238"/>
<polygon fill="#191970" stroke="#191970" points="423.5559,-242.5598 414.3709,-247.8406 424.8443,-249.4402 423.5559,-242.5598"/>
</g>
</g>
</svg>
