<?xml version="1.0" encoding="UTF-8" standalone="no"?>
<!DOCTYPE svg PUBLIC "-//W3C//DTD SVG 1.1//EN"
 "http://www.w3.org/Graphics/SVG/1.1/DTD/svg11.dtd">
<!-- Generated by graphviz version 2.40.1 (20161225.0304)
 -->
<!-- Title: CbmRichGeoTestStudyReport Pages: 1 -->
<svg width="1476pt" height="275pt"
 viewBox="0.00 0.00 1476.00 274.50" xmlns="http://www.w3.org/2000/svg" xmlns:xlink="http://www.w3.org/1999/xlink">
<g id="graph0" class="graph" transform="scale(1 1) rotate(0) translate(4 270.5)">
<title>CbmRichGeoTestStudyReport</title>
<!-- Node1 -->
<g id="node1" class="node">
<title>Node1</title>
<polygon fill="#bfbfbf" stroke="#000000" points="1303,-39.5 1303,-59.5 1468,-59.5 1468,-39.5 1303,-39.5"/>
<text text-anchor="middle" x="1385.5" y="-46.5" font-family="FreeSans" font-size="10.00" fill="#000000">CbmRichGeoTestStudyReport</text>
</g>
<!-- Node2 -->
<g id="node2" class="node">
<title>Node2</title>
<g id="a_node2"><a xlink:href="../../da/db2/classCbmStudyReport.html" target="_top" xlink:title="Base class for study reports.">
<polygon fill="none" stroke="#000000" points="1163,-39.5 1163,-59.5 1266,-59.5 1266,-39.5 1163,-39.5"/>
<text text-anchor="middle" x="1214.5" y="-46.5" font-family="FreeSans" font-size="10.00" fill="#000000">CbmStudyReport</text>
</a>
</g>
</g>
<!-- Node2&#45;&gt;Node1 -->
<g id="edge1" class="edge">
<title>Node2&#45;&gt;Node1</title>
<path fill="none" stroke="#191970" d="M1276.55,-49.5C1285.1383,-49.5 1294.0687,-49.5 1302.9564,-49.5"/>
<polygon fill="#191970" stroke="#191970" points="1276.2697,-46.0001 1266.2697,-49.5 1276.2697,-53.0001 1276.2697,-46.0001"/>
</g>
<!-- Node3 -->
<g id="node3" class="node">
<title>Node3</title>
<g id="a_node3"><a xlink:href="../../db/d30/classCbmReport.html" target="_top" xlink:title="Base class for reports.">
<polygon fill="none" stroke="#000000" points="972.5,-136.5 972.5,-156.5 1045.5,-156.5 1045.5,-136.5 972.5,-136.5"/>
<text text-anchor="middle" x="1009" y="-143.5" font-family="FreeSans" font-size="10.00" fill="#000000">CbmReport</text>
</a>
</g>
</g>
<!-- Node3&#45;&gt;Node2 -->
<g id="edge2" class="edge">
<title>Node3&#45;&gt;Node2</title>
<path fill="none" stroke="#191970" d="M1039.4203,-132.141C1081.5008,-112.2782 1156.4222,-76.9139 1193.0895,-59.6062"/>
<polygon fill="#191970" stroke="#191970" points="1037.7673,-129.0509 1030.2181,-136.4846 1040.7553,-135.3811 1037.7673,-129.0509"/>
</g>
<!-- Node4 -->
<g id="node4" class="node">
<title>Node4</title>
<g id="a_node4"><a xlink:href="../../d5/d0f/classTObject.html" target="_top" xlink:title="TObject">
<polygon fill="none" stroke="#000000" points="392,-91.5 392,-111.5 449,-111.5 449,-91.5 392,-91.5"/>
<text text-anchor="middle" x="420.5" y="-98.5" font-family="FreeSans" font-size="10.00" fill="#000000">TObject</text>
</a>
</g>
</g>
<!-- Node4&#45;&gt;Node3 -->
<g id="edge3" class="edge">
<title>Node4&#45;&gt;Node3</title>
<path fill="none" stroke="#191970" d="M458.9167,-110.4323C506.5156,-121.0808 590.242,-138.4458 663,-146.5 734.6119,-154.4274 752.963,-151.1664 825,-152.5 856.9945,-153.0923 865.0115,-153.3562 897,-152.5 922.2076,-151.8253 950.5723,-150.2978 972.4495,-148.953"/>
<polygon fill="#191970" stroke="#191970" points="459.5664,-106.991 449.0411,-108.2031 458.025,-113.8192 459.5664,-106.991"/>
</g>
<!-- Node6 -->
<g id="node6" class="node">
<title>Node6</title>
<g id="a_node6"><a xlink:href="../../da/d15/classCbmReportElement.html" target="_top" xlink:title="Abstract class for basic report elements (headers, tables, images etc.).">
<polygon fill="none" stroke="#000000" points="677.5,-78.5 677.5,-98.5 792.5,-98.5 792.5,-78.5 677.5,-78.5"/>
<text text-anchor="middle" x="735" y="-85.5" font-family="FreeSans" font-size="10.00" fill="#000000">CbmReportElement</text>
</a>
</g>
</g>
<!-- Node4&#45;&gt;Node6 -->
<g id="edge6" class="edge">
<title>Node4&#45;&gt;Node6</title>
<path fill="none" stroke="#191970" d="M459.5604,-99.8854C514.2744,-97.6238 614.1131,-93.4969 677.3759,-90.8819"/>
<polygon fill="#191970" stroke="#191970" points="459.0904,-96.4018 449.2435,-100.3119 459.3796,-103.3958 459.0904,-96.4018"/>
</g>
<!-- Node14 -->
<g id="node14" class="node">
<title>Node14</title>
<g id="a_node14"><a xlink:href="../../d0/dd0/classCbmHistManager.html" target="_top" xlink:title="Histogram manager.">
<polygon fill="none" stroke="#000000" points="683,-39.5 683,-59.5 787,-59.5 787,-39.5 683,-39.5"/>
<text text-anchor="middle" x="735" y="-46.5" font-family="FreeSans" font-size="10.00" fill="#000000">CbmHistManager</text>
</a>
</g>
</g>
<!-- Node4&#45;&gt;Node14 -->
<g id="edge15" class="edge">
<title>Node4&#45;&gt;Node14</title>
<path fill="none" stroke="#191970" d="M459.1639,-95.1072C515.415,-85.8066 619.9567,-68.5215 682.9327,-58.1089"/>
<polygon fill="#191970" stroke="#191970" points="458.5386,-91.663 449.2435,-96.7475 459.6805,-98.5693 458.5386,-91.663"/>
</g>
<!-- Node5 -->
<g id="node5" class="node">
<title>Node5</title>
<polygon fill="none" stroke="#bfbfbf" points="663,-117.5 663,-137.5 807,-137.5 807,-117.5 663,-117.5"/>
<text text-anchor="middle" x="735" y="-124.5" font-family="FreeSans" font-size="10.00" fill="#000000">std::vector&lt; TCanvas * &gt;</text>
</g>
<!-- Node5&#45;&gt;Node3 -->
<g id="edge4" class="edge">
<title>Node5&#45;&gt;Node3</title>
<path fill="none" stroke="#9a32cd" stroke-dasharray="5,2" d="M817.4939,-133.2204C869.0963,-136.7987 933.0257,-141.2317 972.4074,-143.9626"/>
<polygon fill="#9a32cd" stroke="#9a32cd" points="817.5669,-129.7171 807.3487,-132.5169 817.0826,-136.7004 817.5669,-129.7171"/>
<text text-anchor="middle" x="861" y="-142.5" font-family="FreeSans" font-size="10.00" fill="#000000"> fCanvases</text>
</g>
<!-- Node6&#45;&gt;Node3 -->
<g id="edge5" class="edge">
<title>Node6&#45;&gt;Node3</title>
<path fill="none" stroke="#9a32cd" stroke-dasharray="5,2" d="M802.5971,-100.0544C831.7252,-105.282 866.1218,-111.7879 897,-118.5 922.2653,-123.992 950.5071,-131.0589 972.3103,-136.719"/>
<polygon fill="#9a32cd" stroke="#9a32cd" points="802.9872,-96.5689 792.5283,-98.2604 801.7593,-103.4603 802.9872,-96.5689"/>
<text text-anchor="middle" x="861" y="-121.5" font-family="FreeSans" font-size="10.00" fill="#000000"> fR</text>
</g>
<!-- Node7 -->
<g id="node7" class="node">
<title>Node7</title>
<g id="a_node7"><a xlink:title="STL class.">
<polygon fill="none" stroke="#bfbfbf" points="701.5,-237.5 701.5,-257.5 768.5,-257.5 768.5,-237.5 701.5,-237.5"/>
<text text-anchor="middle" x="735" y="-244.5" font-family="FreeSans" font-size="10.00" fill="#000000">std::string</text>
</a>
</g>
</g>
<!-- Node7&#45;&gt;Node3 -->
<g id="edge7" class="edge">
<title>Node7&#45;&gt;Node3</title>
<path fill="none" stroke="#9a32cd" stroke-dasharray="5,2" d="M779.0325,-241.0551C812.2162,-235.3423 858.4379,-225.5387 897,-210.5 934.1391,-196.0162 973.7791,-170.7326 994.4869,-156.6699"/>
<polygon fill="#9a32cd" stroke="#9a32cd" points="778.0326,-237.6733 768.743,-242.7676 779.1819,-244.5783 778.0326,-237.6733"/>
<text text-anchor="middle" x="861" y="-257.5" font-family="FreeSans" font-size="10.00" fill="#000000"> fReportTitle</text>
<text text-anchor="middle" x="861" y="-245.5" font-family="FreeSans" font-size="10.00" fill="#000000">fReportName</text>
<text text-anchor="middle" x="861" y="-233.5" font-family="FreeSans" font-size="10.00" fill="#000000">fOutputDir</text>
</g>
<!-- Node8 -->
<g id="node8" class="node">
<title>Node8</title>
<g id="a_node8"><a xlink:title="STL class.">
<polygon fill="none" stroke="#bfbfbf" points="367,-232.5 367,-264.5 474,-264.5 474,-232.5 367,-232.5"/>
<text text-anchor="start" x="375" y="-251.5" font-family="FreeSans" font-size="10.00" fill="#000000">std::basic_string&lt;</text>
<text text-anchor="middle" x="420.5" y="-239.5" font-family="FreeSans" font-size="10.00" fill="#000000"> char &gt;</text>
</a>
</g>
</g>
<!-- Node8&#45;&gt;Node7 -->
<g id="edge8" class="edge">
<title>Node8&#45;&gt;Node7</title>
<path fill="none" stroke="#191970" d="M484.4399,-248.2967C550.0952,-248.0879 649.7494,-247.7711 701.3669,-247.6069"/>
<polygon fill="#191970" stroke="#191970" points="484.1959,-244.7974 474.2071,-248.3292 484.2182,-251.7973 484.1959,-244.7974"/>
</g>
<!-- Node9 -->
<g id="node9" class="node">
<title>Node9</title>
<g id="a_node9"><a xlink:title="STL class.">
<polygon fill="none" stroke="#bfbfbf" points="695,-195.5 695,-215.5 775,-215.5 775,-195.5 695,-195.5"/>
<text text-anchor="middle" x="735" y="-202.5" font-family="FreeSans" font-size="10.00" fill="#000000">std::ostream</text>
</a>
</g>
</g>
<!-- Node9&#45;&gt;Node3 -->
<g id="edge9" class="edge">
<title>Node9&#45;&gt;Node3</title>
<path fill="none" stroke="#9a32cd" stroke-dasharray="5,2" d="M785.3027,-199.6047C817.4638,-195.3768 859.9441,-188.9391 897,-180.5 925.5312,-174.0023 957.4023,-164.0567 979.8285,-156.598"/>
<polygon fill="#9a32cd" stroke="#9a32cd" points="784.7147,-196.1514 775.2434,-200.8995 785.6084,-203.0941 784.7147,-196.1514"/>
<text text-anchor="middle" x="861" y="-197.5" font-family="FreeSans" font-size="10.00" fill="#000000"> fOut</text>
</g>
<!-- Node10 -->
<g id="node10" class="node">
<title>Node10</title>
<g id="a_node10"><a xlink:title="STL class.">
<polygon fill="none" stroke="#bfbfbf" points="365,-181.5 365,-213.5 476,-213.5 476,-181.5 365,-181.5"/>
<text text-anchor="start" x="373" y="-200.5" font-family="FreeSans" font-size="10.00" fill="#000000">std::basic_ostream</text>
<text text-anchor="middle" x="420.5" y="-188.5" font-family="FreeSans" font-size="10.00" fill="#000000">&lt; char &gt;</text>
</a>
</g>
</g>
<!-- Node10&#45;&gt;Node9 -->
<g id="edge10" class="edge">
<title>Node10&#45;&gt;Node9</title>
<path fill="none" stroke="#191970" d="M486.2085,-199.1714C549.0581,-200.7702 641.8404,-203.1303 694.5347,-204.4707"/>
<polygon fill="#191970" stroke="#191970" points="486.0881,-195.6673 476.0023,-198.9118 485.9101,-202.6651 486.0881,-195.6673"/>
</g>
<!-- Node11 -->
<g id="node11" class="node">
<title>Node11</title>
<g id="a_node11"><a xlink:title="STL class.">
<polygon fill="none" stroke="#bfbfbf" points="119,-187.5 119,-207.5 249,-207.5 249,-187.5 119,-187.5"/>
<text text-anchor="middle" x="184" y="-194.5" font-family="FreeSans" font-size="10.00" fill="#000000">std::basic_ios&lt; Char &gt;</text>
</a>
</g>
</g>
<!-- Node11&#45;&gt;Node10 -->
<g id="edge11" class="edge">
<title>Node11&#45;&gt;Node10</title>
<path fill="none" stroke="#191970" d="M259.6465,-197.5C293.7575,-197.5 333.3281,-197.5 364.6856,-197.5"/>
<polygon fill="#191970" stroke="#191970" points="259.2507,-194.0001 249.2507,-197.5 259.2507,-201.0001 259.2507,-194.0001"/>
</g>
<!-- Node12 -->
<g id="node12" class="node">
<title>Node12</title>
<g id="a_node12"><a xlink:title="STL class.">
<polygon fill="none" stroke="#bfbfbf" points="0,-187.5 0,-207.5 82,-207.5 82,-187.5 0,-187.5"/>
<text text-anchor="middle" x="41" y="-194.5" font-family="FreeSans" font-size="10.00" fill="#000000">std::ios_base</text>
</a>
</g>
</g>
<!-- Node12&#45;&gt;Node11 -->
<g id="edge12" class="edge">
<title>Node12&#45;&gt;Node11</title>
<path fill="none" stroke="#191970" d="M92.5094,-197.5C101.0258,-197.5 109.9536,-197.5 118.7542,-197.5"/>
<polygon fill="#191970" stroke="#191970" points="92.3616,-194.0001 82.3615,-197.5 92.3615,-201.0001 92.3616,-194.0001"/>
</g>
<!-- Node13 -->
<g id="node13" class="node">
<title>Node13</title>
<polygon fill="none" stroke="#bfbfbf" points="915,-39.5 915,-59.5 1103,-59.5 1103,-39.5 915,-39.5"/>
<text text-anchor="middle" x="1009" y="-46.5" font-family="FreeSans" font-size="10.00" fill="#000000">std::vector&lt; CbmHistManager * &gt;</text>
</g>
<!-- Node13&#45;&gt;Node2 -->
<g id="edge13" class="edge">
<title>Node13&#45;&gt;Node2</title>
<path fill="none" stroke="#9a32cd" stroke-dasharray="5,2" d="M1113.1962,-49.5C1130.4776,-49.5 1147.7044,-49.5 1162.9208,-49.5"/>
<polygon fill="#9a32cd" stroke="#9a32cd" points="1113.0296,-46.0001 1103.0296,-49.5 1113.0296,-53.0001 1113.0296,-46.0001"/>
<text text-anchor="middle" x="1133" y="-52.5" font-family="FreeSans" font-size="10.00" fill="#000000"> fHM</text>
</g>
<!-- Node14&#45;&gt;Node13 -->
<g id="edge14" class="edge">
<title>Node14&#45;&gt;Node13</title>
<path fill="none" stroke="#9a32cd" stroke-dasharray="5,2" d="M797.19,-49.5C831.9456,-49.5 875.9657,-49.5 914.8605,-49.5"/>
<polygon fill="#9a32cd" stroke="#9a32cd" points="797.1823,-46.0001 787.1822,-49.5 797.1822,-53.0001 797.1823,-46.0001"/>
<text text-anchor="middle" x="861" y="-52.5" font-family="FreeSans" font-size="10.00" fill="#000000"> elements</text>
</g>
<!-- Node15 -->
<g id="node15" class="node">
<title>Node15</title>
<polygon fill="none" stroke="#bfbfbf" points="336,-39.5 336,-59.5 505,-59.5 505,-39.5 336,-39.5"/>
<text text-anchor="middle" x="420.5" y="-46.5" font-family="FreeSans" font-size="10.00" fill="#000000">std::map&lt; string, TNamed * &gt;</text>
</g>
<!-- Node15&#45;&gt;Node14 -->
<g id="edge16" class="edge">
<title>Node15&#45;&gt;Node14</title>
<path fill="none" stroke="#9a32cd" stroke-dasharray="5,2" d="M515.2971,-49.5C570.2036,-49.5 637.2393,-49.5 682.7171,-49.5"/>
<polygon fill="#9a32cd" stroke="#9a32cd" points="515.194,-46.0001 505.1939,-49.5 515.1939,-53.0001 515.194,-46.0001"/>
<text text-anchor="middle" x="584" y="-52.5" font-family="FreeSans" font-size="10.00" fill="#000000"> fMap</text>
</g>
<!-- Node16 -->
<g id="node16" class="node">
<title>Node16</title>
<polygon fill="none" stroke="#bfbfbf" points="161.5,-19.5 161.5,-39.5 206.5,-39.5 206.5,-19.5 161.5,-19.5"/>
<text text-anchor="middle" x="184" y="-26.5" font-family="FreeSans" font-size="10.00" fill="#000000">string</text>
</g>
<!-- Node16&#45;&gt;Node15 -->
<g id="edge17" class="edge">
<title>Node16&#45;&gt;Node15</title>
<path fill="none" stroke="#9a32cd" stroke-dasharray="5,2" d="M216.8008,-32.2739C247.4672,-34.8672 294.587,-38.852 335.7861,-42.336"/>
<polygon fill="#9a32cd" stroke="#9a32cd" points="216.936,-28.7729 206.6766,-31.4177 216.3461,-35.748 216.936,-28.7729"/>
<text text-anchor="middle" x="292.5" y="-44.5" font-family="FreeSans" font-size="10.00" fill="#000000"> keys</text>
</g>
<!-- Node17 -->
<g id="node17" class="node">
<title>Node17</title>
<polygon fill="none" stroke="#bfbfbf" points="523,-.5 523,-20.5 645,-20.5 645,-.5 523,-.5"/>
<text text-anchor="middle" x="584" y="-7.5" font-family="FreeSans" font-size="10.00" fill="#000000">std::vector&lt; string &gt;</text>
</g>
<!-- Node16&#45;&gt;Node17 -->
<g id="edge19" class="edge">
<title>Node16&#45;&gt;Node17</title>
<path fill="none" stroke="#9a32cd" stroke-dasharray="5,2" d="M216.5326,-25.8981C231.831,-24.3239 250.3334,-22.5913 267,-21.5 355.8819,-15.6799 458.9979,-12.8231 522.8777,-11.5085"/>
<polygon fill="#9a32cd" stroke="#9a32cd" points="216.0939,-22.4248 206.5154,-26.9527 216.8269,-29.3863 216.0939,-22.4248"/>
<text text-anchor="middle" x="292.5" y="-24.5" font-family="FreeSans" font-size="10.00" fill="#000000"> elements</text>
</g>
<!-- Node17&#45;&gt;Node2 -->
<g id="edge18" class="edge">
<title>Node17&#45;&gt;Node2</title>
<path fill="none" stroke="#9a32cd" stroke-dasharray="5,2" d="M655.3343,-9.941C755.5877,-9.8757 943.7404,-12.3877 1103,-29.5 1124.1184,-31.7692 1147.2627,-35.6833 1166.965,-39.4506"/>
<polygon fill="#9a32cd" stroke="#9a32cd" points="655.3155,-6.441 645.3209,-9.9564 655.3263,-13.441 655.3155,-6.441"/>
<text text-anchor="middle" x="861" y="-18.5" font-family="FreeSans" font-size="10.00" fill="#000000"> fStudyNames</text>
</g>
</g>
</svg>
