<?xml version="1.0" encoding="UTF-8" standalone="no"?>
<!DOCTYPE svg PUBLIC "-//W3C//DTD SVG 1.1//EN"
 "http://www.w3.org/Graphics/SVG/1.1/DTD/svg11.dtd">
<!-- Generated by graphviz version 2.40.1 (20161225.0304)
 -->
<!-- Title: FairMCApplication::InitMC Pages: 1 -->
<svg width="1032pt" height="175pt"
 viewBox="0.00 0.00 1032.00 175.00" xmlns="http://www.w3.org/2000/svg" xmlns:xlink="http://www.w3.org/1999/xlink">
<g id="graph0" class="graph" transform="scale(1 1) rotate(0) translate(4 171)">
<title>FairMCApplication::InitMC</title>
<!-- Node1 -->
<g id="node1" class="node">
<title>Node1</title>
<polygon fill="#bfbfbf" stroke="#000000" points="0,-33.5 0,-65.5 113,-65.5 113,-33.5 0,-33.5"/>
<text text-anchor="start" x="8" y="-52.5" font-family="FreeSans" font-size="10.00" fill="#000000">FairMCApplication::</text>
<text text-anchor="middle" x="56.5" y="-40.5" font-family="FreeSans" font-size="10.00" fill="#000000">InitMC</text>
</g>
<!-- Node2 -->
<g id="node2" class="node">
<title>Node2</title>
<g id="a_node2"><a xlink:href="../../db/da1/classFairLogger.html#a3ebc5751836771a50a11e0e2491a9f68" target="_top" xlink:title="FairLogger::Info">
<polygon fill="none" stroke="#000000" points="165,-59.5 165,-79.5 259,-79.5 259,-59.5 165,-59.5"/>
<text text-anchor="middle" x="212" y="-66.5" font-family="FreeSans" font-size="10.00" fill="#000000">FairLogger::Info</text>
</a>
</g>
</g>
<!-- Node1&#45;&gt;Node2 -->
<g id="edge1" class="edge">
<title>Node1&#45;&gt;Node2</title>
<path fill="none" stroke="#191970" d="M113.079,-56.777C126.642,-58.5215 141.1355,-60.3856 154.7297,-62.134"/>
<polygon fill="#191970" stroke="#191970" points="154.5548,-65.6403 164.9196,-63.4446 155.4478,-58.6975 154.5548,-65.6403"/>
</g>
<!-- Node13 -->
<g id="node13" class="node">
<title>Node13</title>
<g id="a_node13"><a xlink:href="../../dc/d50/classFairTrajFilter.html#a69a2c6a891ef93a7e798ee6f7aae3689" target="_top" xlink:title="FairTrajFilter::Instance">
<polygon fill="none" stroke="#000000" points="149,-20.5 149,-40.5 275,-40.5 275,-20.5 149,-20.5"/>
<text text-anchor="middle" x="212" y="-27.5" font-family="FreeSans" font-size="10.00" fill="#000000">FairTrajFilter::Instance</text>
</a>
</g>
</g>
<!-- Node1&#45;&gt;Node13 -->
<g id="edge15" class="edge">
<title>Node1&#45;&gt;Node13</title>
<path fill="none" stroke="#191970" d="M113.079,-42.5868C121.4426,-41.5649 130.16,-40.4997 138.8022,-39.4438"/>
<polygon fill="#191970" stroke="#191970" points="139.3854,-42.8986 148.8871,-38.2115 138.5364,-35.9503 139.3854,-42.8986"/>
</g>
<!-- Node3 -->
<g id="node3" class="node">
<title>Node3</title>
<g id="a_node3"><a xlink:href="../../db/da1/classFairLogger.html#ae5a926d95789678b453cbb45e0a9a46e" target="_top" xlink:title="FairLogger::IsLogNeeded">
<polygon fill="none" stroke="#000000" points="311,-78.5 311,-98.5 451,-98.5 451,-78.5 311,-78.5"/>
<text text-anchor="middle" x="381" y="-85.5" font-family="FreeSans" font-size="10.00" fill="#000000">FairLogger::IsLogNeeded</text>
</a>
</g>
</g>
<!-- Node2&#45;&gt;Node3 -->
<g id="edge2" class="edge">
<title>Node2&#45;&gt;Node3</title>
<path fill="none" stroke="#191970" d="M259.0759,-74.7926C271.965,-76.2416 286.3098,-77.8544 300.5037,-79.4501"/>
<polygon fill="#191970" stroke="#191970" points="300.4609,-82.9673 310.7893,-80.6065 301.243,-76.0111 300.4609,-82.9673"/>
</g>
<!-- Node4 -->
<g id="node4" class="node">
<title>Node4</title>
<g id="a_node4"><a xlink:href="../../db/da1/classFairLogger.html#aa9d98b58fab95abcf553dfefe1e572f5" target="_top" xlink:title="FairLogger::Log">
<polygon fill="none" stroke="#000000" points="334.5,-39.5 334.5,-59.5 427.5,-59.5 427.5,-39.5 334.5,-39.5"/>
<text text-anchor="middle" x="381" y="-46.5" font-family="FreeSans" font-size="10.00" fill="#000000">FairLogger::Log</text>
</a>
</g>
</g>
<!-- Node2&#45;&gt;Node4 -->
<g id="edge3" class="edge">
<title>Node2&#45;&gt;Node4</title>
<path fill="none" stroke="#191970" d="M259.0759,-63.9289C279.3038,-61.5351 303.1171,-58.7169 324.3054,-56.2094"/>
<polygon fill="#191970" stroke="#191970" points="324.9495,-59.6577 334.4689,-55.0066 324.1268,-52.7062 324.9495,-59.6577"/>
</g>
<!-- Node5 -->
<g id="node5" class="node">
<title>Node5</title>
<g id="a_node5"><a xlink:href="../../db/da1/classFairLogger.html#a496d9b3f72963d24a58abc5a023b74b0" target="_top" xlink:title="End of the line.">
<polygon fill="none" stroke="#000000" points="521,-117.5 521,-137.5 618,-137.5 618,-117.5 521,-117.5"/>
<text text-anchor="middle" x="569.5" y="-124.5" font-family="FreeSans" font-size="10.00" fill="#000000">FairLogger::endl</text>
</a>
</g>
</g>
<!-- Node4&#45;&gt;Node5 -->
<g id="edge4" class="edge">
<title>Node4&#45;&gt;Node5</title>
<path fill="none" stroke="#191970" d="M420.6463,-59.5081C430.6662,-62.3962 441.3251,-65.7838 451,-69.5 483.3234,-81.9158 518.7938,-99.8933 542.423,-112.5344"/>
<polygon fill="#191970" stroke="#191970" points="541.0147,-115.7517 551.4763,-117.427 544.3428,-109.5934 541.0147,-115.7517"/>
</g>
<!-- Node9 -->
<g id="node9" class="node">
<title>Node9</title>
<g id="a_node9"><a xlink:href="../../db/da1/classFairLogger.html#aeb76e4a75fe913ebdf1c07b5d1f3ac1b" target="_top" xlink:title="FairLogger::GetOutputStream">
<polygon fill="none" stroke="#000000" points="487,-39.5 487,-59.5 652,-59.5 652,-39.5 487,-39.5"/>
<text text-anchor="middle" x="569.5" y="-46.5" font-family="FreeSans" font-size="10.00" fill="#000000">FairLogger::GetOutputStream</text>
</a>
</g>
</g>
<!-- Node4&#45;&gt;Node9 -->
<g id="edge9" class="edge">
<title>Node4&#45;&gt;Node9</title>
<path fill="none" stroke="#191970" d="M427.5955,-49.5C442.542,-49.5 459.6583,-49.5 476.7109,-49.5"/>
<polygon fill="#191970" stroke="#191970" points="476.7269,-53.0001 486.7269,-49.5 476.7268,-46.0001 476.7269,-53.0001"/>
</g>
<!-- Node10 -->
<g id="node10" class="node">
<title>Node10</title>
<g id="a_node10"><a xlink:href="../../db/da1/classFairLogger.html#a5529c6ab25bc075aff767f30a743e616" target="_top" xlink:title="FairLogger::OpenLogFile">
<polygon fill="none" stroke="#000000" points="700.5,-.5 700.5,-20.5 837.5,-20.5 837.5,-.5 700.5,-.5"/>
<text text-anchor="middle" x="769" y="-7.5" font-family="FreeSans" font-size="10.00" fill="#000000">FairLogger::OpenLogFile</text>
</a>
</g>
</g>
<!-- Node4&#45;&gt;Node10 -->
<g id="edge14" class="edge">
<title>Node4&#45;&gt;Node10</title>
<path fill="none" stroke="#191970" d="M427.5099,-39.4827C445.9538,-35.8363 467.4013,-32.0001 487,-29.5 555.276,-20.7903 633.3948,-15.9209 690.0719,-13.2983"/>
<polygon fill="#191970" stroke="#191970" points="690.5653,-16.7797 700.3981,-12.8343 690.251,-9.7868 690.5653,-16.7797"/>
</g>
<!-- Node6 -->
<g id="node6" class="node">
<title>Node6</title>
<g id="a_node6"><a xlink:href="../../db/da1/classFairLogger.html#aca7a4fd0af5e622c9635f62996a7334d" target="_top" xlink:title="Flush the streams.">
<polygon fill="none" stroke="#000000" points="905,-146.5 905,-166.5 1005,-166.5 1005,-146.5 905,-146.5"/>
<text text-anchor="middle" x="955" y="-153.5" font-family="FreeSans" font-size="10.00" fill="#000000">FairLogger::flush</text>
</a>
</g>
</g>
<!-- Node5&#45;&gt;Node6 -->
<g id="edge5" class="edge">
<title>Node5&#45;&gt;Node6</title>
<path fill="none" stroke="#191970" d="M618.0197,-137.1931C639.3908,-141.0725 664.854,-145.1672 688,-147.5 758.6648,-154.6221 840.3246,-156.444 894.5415,-156.7582"/>
<polygon fill="#191970" stroke="#191970" points="894.6571,-160.2587 904.6719,-156.8012 894.6869,-153.2587 894.6571,-160.2587"/>
</g>
<!-- Node7 -->
<g id="node7" class="node">
<title>Node7</title>
<g id="a_node7"><a xlink:href="../../db/da1/classFairLogger.html#a9848989e18afa7144b47ecc38b7bfe0e" target="_top" xlink:title="FairLogger::LogFatalMessage">
<polygon fill="none" stroke="#000000" points="688,-117.5 688,-137.5 850,-137.5 850,-117.5 688,-117.5"/>
<text text-anchor="middle" x="769" y="-124.5" font-family="FreeSans" font-size="10.00" fill="#000000">FairLogger::LogFatalMessage</text>
</a>
</g>
</g>
<!-- Node5&#45;&gt;Node7 -->
<g id="edge6" class="edge">
<title>Node5&#45;&gt;Node7</title>
<path fill="none" stroke="#191970" d="M618.0481,-127.5C636.0875,-127.5 657.1922,-127.5 677.8059,-127.5"/>
<polygon fill="#191970" stroke="#191970" points="677.8704,-131.0001 687.8703,-127.5 677.8703,-124.0001 677.8704,-131.0001"/>
</g>
<!-- Node7&#45;&gt;Node6 -->
<g id="edge7" class="edge">
<title>Node7&#45;&gt;Node6</title>
<path fill="none" stroke="#191970" d="M833.2711,-137.5208C853.2114,-140.6297 875.1056,-144.0433 894.7612,-147.1079"/>
<polygon fill="#191970" stroke="#191970" points="894.3938,-150.5929 904.8136,-148.6752 895.4722,-143.6764 894.3938,-150.5929"/>
</g>
<!-- Node8 -->
<g id="node8" class="node">
<title>Node8</title>
<g id="a_node8"><a xlink:href="../../db/da1/classFairLogger.html#a6fe59f109418f1331c91c39d0ea33c1d" target="_top" xlink:title="FairLogger::GetTime">
<polygon fill="none" stroke="#000000" points="896,-88.5 896,-108.5 1014,-108.5 1014,-88.5 896,-88.5"/>
<text text-anchor="middle" x="955" y="-95.5" font-family="FreeSans" font-size="10.00" fill="#000000">FairLogger::GetTime</text>
</a>
</g>
</g>
<!-- Node7&#45;&gt;Node8 -->
<g id="edge8" class="edge">
<title>Node7&#45;&gt;Node8</title>
<path fill="none" stroke="#191970" d="M833.2711,-117.4792C850.2122,-114.8379 868.5636,-111.9766 885.7544,-109.2964"/>
<polygon fill="#191970" stroke="#191970" points="886.3811,-112.741 895.7225,-107.7422 885.3027,-105.8246 886.3811,-112.741"/>
</g>
<!-- Node9&#45;&gt;Node8 -->
<g id="edge10" class="edge">
<title>Node9&#45;&gt;Node8</title>
<path fill="none" stroke="#191970" d="M624.8587,-59.5386C644.7312,-62.958 667.3336,-66.6362 688,-69.5 754.9277,-78.7743 831.6379,-86.8412 885.6107,-92.096"/>
<polygon fill="#191970" stroke="#191970" points="885.4638,-95.598 895.7541,-93.0765 886.1373,-88.6305 885.4638,-95.598"/>
</g>
<!-- Node9&#45;&gt;Node10 -->
<g id="edge11" class="edge">
<title>Node9&#45;&gt;Node10</title>
<path fill="none" stroke="#191970" d="M620.8762,-39.4565C647.4045,-34.2706 679.9556,-27.9072 707.7804,-22.4677"/>
<polygon fill="#191970" stroke="#191970" points="708.6552,-25.8631 717.7979,-20.5094 707.3121,-18.9931 708.6552,-25.8631"/>
</g>
<!-- Node12 -->
<g id="node12" class="node">
<title>Node12</title>
<g id="a_node12"><a xlink:href="../../dc/de5/PHG4mRICHDetector_8cc.html#a11ded6fc3d3fab0e72612c3886df87a0" target="_top" xlink:title="pos">
<polygon fill="none" stroke="#000000" points="752,-39.5 752,-59.5 786,-59.5 786,-39.5 752,-39.5"/>
<text text-anchor="middle" x="769" y="-46.5" font-family="FreeSans" font-size="10.00" fill="#000000">pos</text>
</a>
</g>
</g>
<!-- Node9&#45;&gt;Node12 -->
<g id="edge13" class="edge">
<title>Node9&#45;&gt;Node12</title>
<path fill="none" stroke="#191970" d="M652.0844,-49.5C684.1029,-49.5 718.5544,-49.5 741.7027,-49.5"/>
<polygon fill="#191970" stroke="#191970" points="741.7958,-53.0001 751.7958,-49.5 741.7957,-46.0001 741.7958,-53.0001"/>
</g>
<!-- Node11 -->
<g id="node11" class="node">
<title>Node11</title>
<g id="a_node11"><a xlink:href="../../db/da1/classFairLogger.html#a80d1ac93eff9a9b6d52f8118b8b796aa" target="_top" xlink:title="FairLogger::CloseLogFile">
<polygon fill="none" stroke="#000000" points="886,-.5 886,-20.5 1024,-20.5 1024,-.5 886,-.5"/>
<text text-anchor="middle" x="955" y="-7.5" font-family="FreeSans" font-size="10.00" fill="#000000">FairLogger::CloseLogFile</text>
</a>
</g>
</g>
<!-- Node10&#45;&gt;Node11 -->
<g id="edge12" class="edge">
<title>Node10&#45;&gt;Node11</title>
<path fill="none" stroke="#191970" d="M837.7311,-10.5C850.1428,-10.5 863.1747,-10.5 875.855,-10.5"/>
<polygon fill="#191970" stroke="#191970" points="875.9305,-14.0001 885.9305,-10.5 875.9304,-7.0001 875.9305,-14.0001"/>
</g>
</g>
</svg>
