<?xml version="1.0" encoding="UTF-8" standalone="no"?>
<!DOCTYPE svg PUBLIC "-//W3C//DTD SVG 1.1//EN"
 "http://www.w3.org/Graphics/SVG/1.1/DTD/svg11.dtd">
<!-- Generated by graphviz version 2.40.1 (20161225.0304)
 -->
<!-- Title: EicDigiHitProducer::Exec Pages: 1 -->
<svg width="297pt" height="260pt"
 viewBox="0.00 0.00 297.00 260.00" xmlns="http://www.w3.org/2000/svg" xmlns:xlink="http://www.w3.org/1999/xlink">
<g id="graph0" class="graph" transform="scale(1 1) rotate(0) translate(4 256)">
<title>EicDigiHitProducer::Exec</title>
<!-- Node1 -->
<g id="node1" class="node">
<title>Node1</title>
<polygon fill="#bfbfbf" stroke="#000000" points="0,-103.5 0,-135.5 110,-135.5 110,-103.5 0,-103.5"/>
<text text-anchor="start" x="8" y="-122.5" font-family="FreeSans" font-size="10.00" fill="#000000">EicDigiHitProducer</text>
<text text-anchor="middle" x="55" y="-110.5" font-family="FreeSans" font-size="10.00" fill="#000000">::Exec</text>
</g>
<!-- Node2 -->
<g id="node2" class="node">
<title>Node2</title>
<g id="a_node2"><a xlink:href="../../de/d93/classEicDigiHitProducer.html#a90e0863beb6d3f9110e868d9e2e16b0a" target="_top" xlink:title="EicDigiHitProducer\l::HandleHit">
<polygon fill="none" stroke="#000000" points="162.5,-219.5 162.5,-251.5 272.5,-251.5 272.5,-219.5 162.5,-219.5"/>
<text text-anchor="start" x="170.5" y="-238.5" font-family="FreeSans" font-size="10.00" fill="#000000">EicDigiHitProducer</text>
<text text-anchor="middle" x="217.5" y="-226.5" font-family="FreeSans" font-size="10.00" fill="#000000">::HandleHit</text>
</a>
</g>
</g>
<!-- Node1&#45;&gt;Node2 -->
<g id="edge1" class="edge">
<title>Node1&#45;&gt;Node2</title>
<path fill="none" stroke="#191970" d="M67.1727,-135.5105C83.2183,-155.6098 113.2694,-189.9394 146,-210.5 148.589,-212.1263 151.2974,-213.6635 154.0823,-215.1142"/>
<polygon fill="#191970" stroke="#191970" points="152.6514,-218.3094 163.1839,-219.4567 155.6657,-211.9916 152.6514,-218.3094"/>
</g>
<!-- Node3 -->
<g id="node3" class="node">
<title>Node3</title>
<g id="a_node3"><a xlink:href="../../d0/d2f/classEicDetName.html#aef29cb1ffe2ea071a03f4aa098408595" target="_top" xlink:title="EicDetName::Name">
<polygon fill="none" stroke="#000000" points="160,-180.5 160,-200.5 275,-200.5 275,-180.5 160,-180.5"/>
<text text-anchor="middle" x="217.5" y="-187.5" font-family="FreeSans" font-size="10.00" fill="#000000">EicDetName::Name</text>
</a>
</g>
</g>
<!-- Node1&#45;&gt;Node3 -->
<g id="edge2" class="edge">
<title>Node1&#45;&gt;Node3</title>
<path fill="none" stroke="#191970" d="M79.223,-135.6556C97.0695,-146.9736 122.2646,-161.759 146,-171.5 151.4046,-173.718 157.1458,-175.7477 162.9333,-177.5859"/>
<polygon fill="#191970" stroke="#191970" points="162.0822,-180.9845 172.6659,-180.4981 164.0889,-174.2783 162.0822,-180.9845"/>
</g>
<!-- Node4 -->
<g id="node4" class="node">
<title>Node4</title>
<g id="a_node4"><a xlink:href="../../de/d93/classEicDigiHitProducer.html#aff5a197299e73a6af7448dc5a628cfd4" target="_top" xlink:title="EicDigiHitProducer\l::PostExec">
<polygon fill="none" stroke="#000000" points="162.5,-129.5 162.5,-161.5 272.5,-161.5 272.5,-129.5 162.5,-129.5"/>
<text text-anchor="start" x="170.5" y="-148.5" font-family="FreeSans" font-size="10.00" fill="#000000">EicDigiHitProducer</text>
<text text-anchor="middle" x="217.5" y="-136.5" font-family="FreeSans" font-size="10.00" fill="#000000">::PostExec</text>
</a>
</g>
</g>
<!-- Node1&#45;&gt;Node4 -->
<g id="edge3" class="edge">
<title>Node1&#45;&gt;Node4</title>
<path fill="none" stroke="#191970" d="M110.0151,-128.3024C123.5739,-130.4718 138.2246,-132.8159 152.2175,-135.0548"/>
<polygon fill="#191970" stroke="#191970" points="151.8379,-138.5385 162.2653,-136.6624 152.9438,-131.6264 151.8379,-138.5385"/>
</g>
<!-- Node5 -->
<g id="node5" class="node">
<title>Node5</title>
<g id="a_node5"><a xlink:href="../../de/d93/classEicDigiHitProducer.html#abf0239f3f6c422899cc6c356acd99e36" target="_top" xlink:title="EicDigiHitProducer\l::PreExec">
<polygon fill="none" stroke="#000000" points="162.5,-78.5 162.5,-110.5 272.5,-110.5 272.5,-78.5 162.5,-78.5"/>
<text text-anchor="start" x="170.5" y="-97.5" font-family="FreeSans" font-size="10.00" fill="#000000">EicDigiHitProducer</text>
<text text-anchor="middle" x="217.5" y="-85.5" font-family="FreeSans" font-size="10.00" fill="#000000">::PreExec</text>
</a>
</g>
</g>
<!-- Node1&#45;&gt;Node5 -->
<g id="edge4" class="edge">
<title>Node1&#45;&gt;Node5</title>
<path fill="none" stroke="#191970" d="M110.0151,-111.0361C123.5739,-108.9502 138.2246,-106.6962 152.2175,-104.5435"/>
<polygon fill="#191970" stroke="#191970" points="152.9138,-107.9776 162.2653,-102.9977 151.8493,-101.059 152.9138,-107.9776"/>
</g>
<!-- Node6 -->
<g id="node6" class="node">
<title>Node6</title>
<g id="a_node6"><a xlink:href="../../da/d23/msg__buffer_8cc.html#a98631211a4a8aee62f572375d5b637be" target="_top" xlink:title="printf">
<polygon fill="none" stroke="#000000" points="195.5,-39.5 195.5,-59.5 239.5,-59.5 239.5,-39.5 195.5,-39.5"/>
<text text-anchor="middle" x="217.5" y="-46.5" font-family="FreeSans" font-size="10.00" fill="#000000">printf</text>
</a>
</g>
</g>
<!-- Node1&#45;&gt;Node6 -->
<g id="edge5" class="edge">
<title>Node1&#45;&gt;Node6</title>
<path fill="none" stroke="#191970" d="M80.499,-103.4165C98.3247,-92.697 122.9689,-78.9021 146,-69.5 158.5862,-64.3619 172.9376,-60.0628 185.4635,-56.7835"/>
<polygon fill="#191970" stroke="#191970" points="186.6286,-60.0998 195.477,-54.2727 184.926,-53.3099 186.6286,-60.0998"/>
</g>
<!-- Node7 -->
<g id="node7" class="node">
<title>Node7</title>
<g id="a_node7"><a xlink:href="../../df/db8/classEicMoCaPoint.html#a99bc397b4dd2651493f98b22875a1dff" target="_top" xlink:title="EicMoCaPoint::SetPointID">
<polygon fill="none" stroke="#000000" points="146,-.5 146,-20.5 289,-20.5 289,-.5 146,-.5"/>
<text text-anchor="middle" x="217.5" y="-7.5" font-family="FreeSans" font-size="10.00" fill="#000000">EicMoCaPoint::SetPointID</text>
</a>
</g>
</g>
<!-- Node1&#45;&gt;Node7 -->
<g id="edge6" class="edge">
<title>Node1&#45;&gt;Node7</title>
<path fill="none" stroke="#191970" d="M67.3305,-103.1792C83.3183,-83.1461 113.0814,-49.502 146,-30.5 150.1758,-28.0896 154.6578,-25.9565 159.2674,-24.0713"/>
<polygon fill="#191970" stroke="#191970" points="160.678,-27.2817 168.8512,-20.5402 158.2578,-20.7133 160.678,-27.2817"/>
</g>
</g>
</svg>
