<?xml version="1.0" encoding="UTF-8" standalone="no"?>
<!DOCTYPE svg PUBLIC "-//W3C//DTD SVG 1.1//EN"
 "http://www.w3.org/Graphics/SVG/1.1/DTD/svg11.dtd">
<!-- Generated by graphviz version 2.40.1 (20161225.0304)
 -->
<!-- Title: PHTrackPropagating::GetNodes Pages: 1 -->
<svg width="496pt" height="233pt"
 viewBox="0.00 0.00 496.00 233.00" xmlns="http://www.w3.org/2000/svg" xmlns:xlink="http://www.w3.org/1999/xlink">
<g id="graph0" class="graph" transform="scale(1 1) rotate(0) translate(4 229)">
<title>PHTrackPropagating::GetNodes</title>
<!-- Node1 -->
<g id="node1" class="node">
<title>Node1</title>
<polygon fill="#bfbfbf" stroke="#000000" points="0,-102.5 0,-134.5 117,-134.5 117,-102.5 0,-102.5"/>
<text text-anchor="start" x="8" y="-121.5" font-family="FreeSans" font-size="10.00" fill="#000000">PHTrackPropagating</text>
<text text-anchor="middle" x="58.5" y="-109.5" font-family="FreeSans" font-size="10.00" fill="#000000">::GetNodes</text>
</g>
<!-- Node2 -->
<g id="node2" class="node">
<title>Node2</title>
<g id="a_node2"><a xlink:href="../../d2/d5c/classPHTrackPropagating.html#ab26e33655ef4692c8d96d9a5591d478d" target="_top" xlink:title="PHTrackPropagating\l::Setup">
<polygon fill="none" stroke="#000000" points="153,-102.5 153,-134.5 270,-134.5 270,-102.5 153,-102.5"/>
<text text-anchor="start" x="161" y="-121.5" font-family="FreeSans" font-size="10.00" fill="#000000">PHTrackPropagating</text>
<text text-anchor="middle" x="211.5" y="-109.5" font-family="FreeSans" font-size="10.00" fill="#000000">::Setup</text>
</a>
</g>
</g>
<!-- Node1&#45;&gt;Node2 -->
<g id="edge1" class="edge">
<title>Node1&#45;&gt;Node2</title>
<path fill="none" stroke="#191970" d="M127.4932,-118.5C135.9927,-118.5 144.617,-118.5 152.9409,-118.5"/>
<polygon fill="#191970" stroke="#191970" points="127.2163,-115.0001 117.2162,-118.5 127.2162,-122.0001 127.2163,-115.0001"/>
</g>
<!-- Node3 -->
<g id="node3" class="node">
<title>Node3</title>
<g id="a_node3"><a xlink:href="../../d0/d22/classPHGenFitTrkProp.html#a8a925731719897df898a280a3a93763a" target="_top" xlink:title="PHGenFitTrkProp::Setup">
<polygon fill="none" stroke="#000000" points="329.5,-204.5 329.5,-224.5 464.5,-224.5 464.5,-204.5 329.5,-204.5"/>
<text text-anchor="middle" x="397" y="-211.5" font-family="FreeSans" font-size="10.00" fill="#000000">PHGenFitTrkProp::Setup</text>
</a>
</g>
</g>
<!-- Node2&#45;&gt;Node3 -->
<g id="edge2" class="edge">
<title>Node2&#45;&gt;Node3</title>
<path fill="none" stroke="#191970" d="M233.6763,-141.8386C251.5693,-159.2687 278.2515,-182.2744 306,-195.5 313.5759,-199.1109 321.8288,-202.0387 330.171,-204.4121"/>
<polygon fill="#191970" stroke="#191970" points="236.1222,-139.3348 226.5685,-134.7547 231.1807,-144.2929 236.1222,-139.3348"/>
</g>
<!-- Node4 -->
<g id="node4" class="node">
<title>Node4</title>
<g id="a_node4"><a xlink:href="../../db/d8d/classPHMicromegasTpcTrackMatching.html#a4b9a39cc10ad92595e37d11558559be8" target="_top" xlink:title="PHMicromegasTpcTrackMatching\l::Setup">
<polygon fill="none" stroke="#000000" points="306,-153.5 306,-185.5 488,-185.5 488,-153.5 306,-153.5"/>
<text text-anchor="start" x="314" y="-172.5" font-family="FreeSans" font-size="10.00" fill="#000000">PHMicromegasTpcTrackMatching</text>
<text text-anchor="middle" x="397" y="-160.5" font-family="FreeSans" font-size="10.00" fill="#000000">::Setup</text>
</a>
</g>
</g>
<!-- Node2&#45;&gt;Node4 -->
<g id="edge3" class="edge">
<title>Node2&#45;&gt;Node4</title>
<path fill="none" stroke="#191970" d="M279.3739,-137.1776C288.3284,-139.6408 297.385,-142.1315 306,-144.5 316.5845,-147.41 327.8619,-150.5092 338.7445,-153.4993"/>
<polygon fill="#191970" stroke="#191970" points="280.2932,-133.8006 269.723,-134.5228 278.4365,-140.5498 280.2932,-133.8006"/>
</g>
<!-- Node5 -->
<g id="node5" class="node">
<title>Node5</title>
<g id="a_node5"><a xlink:href="../../d2/d71/classPHSiliconTpcTrackMatching.html#a3aeca8b7ce1e82153de789b510346126" target="_top" xlink:title="PHSiliconTpcTrackMatching\l::Setup">
<polygon fill="none" stroke="#000000" points="320,-102.5 320,-134.5 474,-134.5 474,-102.5 320,-102.5"/>
<text text-anchor="start" x="328" y="-121.5" font-family="FreeSans" font-size="10.00" fill="#000000">PHSiliconTpcTrackMatching</text>
<text text-anchor="middle" x="397" y="-109.5" font-family="FreeSans" font-size="10.00" fill="#000000">::Setup</text>
</a>
</g>
</g>
<!-- Node2&#45;&gt;Node5 -->
<g id="edge4" class="edge">
<title>Node2&#45;&gt;Node5</title>
<path fill="none" stroke="#191970" d="M280.3159,-118.5C293.1386,-118.5 306.6164,-118.5 319.6745,-118.5"/>
<polygon fill="#191970" stroke="#191970" points="280.1934,-115.0001 270.1934,-118.5 280.1933,-122.0001 280.1934,-115.0001"/>
</g>
<!-- Node6 -->
<g id="node6" class="node">
<title>Node6</title>
<g id="a_node6"><a xlink:href="../../d3/d4e/classPHTpcTrackSeedVertexAssoc.html#ad5269c432a9396b8a6c9351b99b9d3c6" target="_top" xlink:title="PHTpcTrackSeedVertexAssoc\l::Setup">
<polygon fill="none" stroke="#000000" points="316.5,-51.5 316.5,-83.5 477.5,-83.5 477.5,-51.5 316.5,-51.5"/>
<text text-anchor="start" x="324.5" y="-70.5" font-family="FreeSans" font-size="10.00" fill="#000000">PHTpcTrackSeedVertexAssoc</text>
<text text-anchor="middle" x="397" y="-58.5" font-family="FreeSans" font-size="10.00" fill="#000000">::Setup</text>
</a>
</g>
</g>
<!-- Node2&#45;&gt;Node6 -->
<g id="edge5" class="edge">
<title>Node2&#45;&gt;Node6</title>
<path fill="none" stroke="#191970" d="M279.5923,-99.7792C298.9345,-94.4614 319.8195,-88.7194 338.5364,-83.5736"/>
<polygon fill="#191970" stroke="#191970" points="278.6531,-96.4075 269.9387,-102.4333 280.5088,-103.157 278.6531,-96.4075"/>
</g>
<!-- Node7 -->
<g id="node7" class="node">
<title>Node7</title>
<g id="a_node7"><a xlink:href="../../d2/d5c/classPHTrackPropagating.html#aca3ebc1a87baabbc5dbf61ac44a7ca29" target="_top" xlink:title="PHTrackPropagating\l::InitRun">
<polygon fill="none" stroke="#000000" points="338.5,-.5 338.5,-32.5 455.5,-32.5 455.5,-.5 338.5,-.5"/>
<text text-anchor="start" x="346.5" y="-19.5" font-family="FreeSans" font-size="10.00" fill="#000000">PHTrackPropagating</text>
<text text-anchor="middle" x="397" y="-7.5" font-family="FreeSans" font-size="10.00" fill="#000000">::InitRun</text>
</a>
</g>
</g>
<!-- Node2&#45;&gt;Node7 -->
<g id="edge6" class="edge">
<title>Node2&#45;&gt;Node7</title>
<path fill="none" stroke="#191970" d="M235.1519,-94.9653C253.1994,-78.1947 279.4111,-56.2685 306,-42.5 316.0675,-37.2867 327.3189,-32.9949 338.3846,-29.5066"/>
<polygon fill="#191970" stroke="#191970" points="232.3084,-92.8386 227.4623,-102.2602 237.126,-97.917 232.3084,-92.8386"/>
</g>
</g>
</svg>
