<?xml version="1.0" encoding="UTF-8" standalone="no"?>
<!DOCTYPE svg PUBLIC "-//W3C//DTD SVG 1.1//EN"
 "http://www.w3.org/Graphics/SVG/1.1/DTD/svg11.dtd">
<!-- Generated by graphviz version 2.40.1 (20161225.0304)
 -->
<!-- Title: fun4all_acts/blob/master/Examples/Algorithms/MaterialMapping/src/MaterialMapping.cpp Pages: 1 -->
<svg width="3440pt" height="581pt"
 viewBox="0.00 0.00 3439.50 581.00" xmlns="http://www.w3.org/2000/svg" xmlns:xlink="http://www.w3.org/1999/xlink">
<g id="graph0" class="graph" transform="scale(1 1) rotate(0) translate(4 577)">
<title>fun4all_acts/blob/master/Examples/Algorithms/MaterialMapping/src/MaterialMapping.cpp</title>
<!-- Node1 -->
<g id="node1" class="node">
<title>Node1</title>
<polygon fill="#bfbfbf" stroke="#000000" points="2741.5,-528.5 2741.5,-572.5 2957.5,-572.5 2957.5,-528.5 2741.5,-528.5"/>
<text text-anchor="start" x="2749.5" y="-559.5" font-family="FreeSans" font-size="10.00" fill="#000000">fun4all_acts/blob/master</text>
<text text-anchor="start" x="2749.5" y="-547.5" font-family="FreeSans" font-size="10.00" fill="#000000">/Examples/Algorithms/MaterialMapping</text>
<text text-anchor="middle" x="2849.5" y="-535.5" font-family="FreeSans" font-size="10.00" fill="#000000">/src/MaterialMapping.cpp</text>
</g>
<!-- Node2 -->
<g id="node2" class="node">
<title>Node2</title>
<g id="a_node2"><a xlink:href="../../d7/d5e/MaterialMapping_8hpp.html" target="_top" xlink:title="ACTFW/MaterialMapping\l/MaterialMapping.hpp">
<polygon fill="none" stroke="#000000" points="2492,-459.5 2492,-491.5 2633,-491.5 2633,-459.5 2492,-459.5"/>
<text text-anchor="start" x="2500" y="-478.5" font-family="FreeSans" font-size="10.00" fill="#000000">ACTFW/MaterialMapping</text>
<text text-anchor="middle" x="2562.5" y="-466.5" font-family="FreeSans" font-size="10.00" fill="#000000">/MaterialMapping.hpp</text>
</a>
</g>
</g>
<!-- Node1&#45;&gt;Node2 -->
<g id="edge1" class="edge">
<title>Node1&#45;&gt;Node2</title>
<path fill="none" stroke="#191970" d="M2764.9428,-528.4032C2723.3295,-517.5286 2673.7121,-504.5624 2634.0139,-494.1883"/>
<polygon fill="#191970" stroke="#191970" points="2634.7058,-490.7517 2624.1458,-491.6095 2632.936,-497.5242 2634.7058,-490.7517"/>
</g>
<!-- Node20 -->
<g id="node20" class="node">
<title>Node20</title>
<polygon fill="none" stroke="#bfbfbf" points="494.5,-120.5 494.5,-140.5 554.5,-140.5 554.5,-120.5 494.5,-120.5"/>
<text text-anchor="middle" x="524.5" y="-127.5" font-family="FreeSans" font-size="10.00" fill="#000000">iostream</text>
</g>
<!-- Node1&#45;&gt;Node20 -->
<g id="edge113" class="edge">
<title>Node1&#45;&gt;Node20</title>
<path fill="none" stroke="#191970" d="M2741.1977,-545.2768C2350.2439,-525.7657 1012.9971,-453.16 597.5,-354 471.3939,-323.9043 396.2448,-333.0513 340.5,-216 334.1937,-202.7583 331.6657,-194.7075 340.5,-183 357.7795,-160.1006 435.4956,-144.2034 484.2338,-136.2834"/>
<polygon fill="#191970" stroke="#191970" points="484.8308,-139.7326 494.162,-134.7147 483.7383,-132.8183 484.8308,-139.7326"/>
</g>
<!-- Node47 -->
<g id="node47" class="node">
<title>Node47</title>
<polygon fill="none" stroke="#bfbfbf" points="3365.5,-189.5 3365.5,-209.5 3431.5,-209.5 3431.5,-189.5 3365.5,-189.5"/>
<text text-anchor="middle" x="3398.5" y="-196.5" font-family="FreeSans" font-size="10.00" fill="#000000">stdexcept</text>
</g>
<!-- Node1&#45;&gt;Node47 -->
<g id="edge114" class="edge">
<title>Node1&#45;&gt;Node47</title>
<path fill="none" stroke="#191970" d="M2957.6206,-541.4884C3105.7124,-526.1093 3353.5,-488.1737 3353.5,-406.5 3353.5,-406.5 3353.5,-406.5 3353.5,-337.5 3353.5,-293.2288 3374.6922,-244.7304 3387.9903,-218.6555"/>
<polygon fill="#191970" stroke="#191970" points="3391.2387,-219.9985 3392.8007,-209.5194 3385.0448,-216.7372 3391.2387,-219.9985"/>
</g>
<!-- Node48 -->
<g id="node48" class="node">
<title>Node48</title>
<g id="a_node48"><a xlink:href="../../d0/d18/WhiteBoard_8hpp.html" target="_top" xlink:title="ACTFW/Framework/WhiteBoard.hpp">
<polygon fill="none" stroke="#000000" points="3076,-258.5 3076,-278.5 3273,-278.5 3273,-258.5 3076,-258.5"/>
<text text-anchor="middle" x="3174.5" y="-265.5" font-family="FreeSans" font-size="10.00" fill="#000000">ACTFW/Framework/WhiteBoard.hpp</text>
</a>
</g>
</g>
<!-- Node1&#45;&gt;Node48 -->
<g id="edge115" class="edge">
<title>Node1&#45;&gt;Node48</title>
<path fill="none" stroke="#191970" d="M2897.7601,-528.452C2943.2641,-506.1355 3011.7225,-468.4865 3061.5,-423 3107.1005,-381.3305 3146.0563,-318.7171 3163.975,-287.5441"/>
<polygon fill="#191970" stroke="#191970" points="3167.1602,-289.0217 3169.0353,-278.5941 3161.0668,-285.5764 3167.1602,-289.0217"/>
</g>
<!-- Node3 -->
<g id="node3" class="node">
<title>Node3</title>
<g id="a_node3"><a xlink:href="../../d1/df0/SurfaceMaterialMapper_8hpp.html" target="_top" xlink:title="Acts/Material/SurfaceMaterial\lMapper.hpp">
<polygon fill="none" stroke="#000000" points="1605,-390.5 1605,-422.5 1770,-422.5 1770,-390.5 1605,-390.5"/>
<text text-anchor="start" x="1613" y="-409.5" font-family="FreeSans" font-size="10.00" fill="#000000">Acts/Material/SurfaceMaterial</text>
<text text-anchor="middle" x="1687.5" y="-397.5" font-family="FreeSans" font-size="10.00" fill="#000000">Mapper.hpp</text>
</a>
</g>
</g>
<!-- Node2&#45;&gt;Node3 -->
<g id="edge2" class="edge">
<title>Node2&#45;&gt;Node3</title>
<path fill="none" stroke="#191970" d="M2491.6363,-469.9119C2334.29,-457.504 1955.8384,-427.6604 1780.0839,-413.8009"/>
<polygon fill="#191970" stroke="#191970" points="1780.3248,-410.3091 1770.0806,-413.0121 1779.7745,-417.2875 1780.3248,-410.3091"/>
</g>
<!-- Node17 -->
<g id="node17" class="node">
<title>Node17</title>
<polygon fill="none" stroke="#bfbfbf" points="2255.5,-57.5 2255.5,-77.5 2313.5,-77.5 2313.5,-57.5 2255.5,-57.5"/>
<text text-anchor="middle" x="2284.5" y="-64.5" font-family="FreeSans" font-size="10.00" fill="#000000">memory</text>
</g>
<!-- Node2&#45;&gt;Node17 -->
<g id="edge100" class="edge">
<title>Node2&#45;&gt;Node17</title>
<path fill="none" stroke="#191970" d="M2622.1624,-459.4411C2783.0253,-413.5216 3203.6651,-274.5945 3052.5,-114 3027.2978,-87.2258 2477.1584,-72.1061 2323.8475,-68.4023"/>
<polygon fill="#191970" stroke="#191970" points="2323.5883,-64.8952 2313.5076,-68.1554 2323.4211,-71.8932 2323.5883,-64.8952"/>
</g>
<!-- Node38 -->
<g id="node38" class="node">
<title>Node38</title>
<g id="a_node38"><a xlink:href="../../d9/d11/Logger_8hpp.html" target="_top" xlink:title="Acts/Utilities/Logger.hpp">
<polygon fill="none" stroke="#000000" points="2379.5,-189.5 2379.5,-209.5 2519.5,-209.5 2519.5,-189.5 2379.5,-189.5"/>
<text text-anchor="middle" x="2449.5" y="-196.5" font-family="FreeSans" font-size="10.00" fill="#000000">Acts/Utilities/Logger.hpp</text>
</a>
</g>
</g>
<!-- Node2&#45;&gt;Node38 -->
<g id="edge98" class="edge">
<title>Node2&#45;&gt;Node38</title>
<path fill="none" stroke="#191970" d="M2533.4286,-459.3306C2519.8884,-450.3452 2504.76,-437.9498 2495.5,-423 2454.6951,-357.1222 2449.3912,-261.4288 2449.1596,-219.9466"/>
<polygon fill="#191970" stroke="#191970" points="2452.6603,-219.7688 2449.2034,-209.7538 2445.6603,-219.7386 2452.6603,-219.7688"/>
</g>
<!-- Node41 -->
<g id="node41" class="node">
<title>Node41</title>
<polygon fill="none" stroke="#bfbfbf" points="2505,-396.5 2505,-416.5 2554,-416.5 2554,-396.5 2505,-396.5"/>
<text text-anchor="middle" x="2529.5" y="-403.5" font-family="FreeSans" font-size="10.00" fill="#000000">climits</text>
</g>
<!-- Node2&#45;&gt;Node41 -->
<g id="edge99" class="edge">
<title>Node2&#45;&gt;Node41</title>
<path fill="none" stroke="#191970" d="M2554.8462,-459.4966C2550.0558,-449.4803 2543.8531,-436.511 2538.7827,-425.9094"/>
<polygon fill="#191970" stroke="#191970" points="2541.8236,-424.1554 2534.3515,-416.6441 2535.5087,-427.1756 2541.8236,-424.1554"/>
</g>
<!-- Node42 -->
<g id="node42" class="node">
<title>Node42</title>
<polygon fill="none" stroke="#bfbfbf" points="2572.5,-396.5 2572.5,-416.5 2620.5,-416.5 2620.5,-396.5 2572.5,-396.5"/>
<text text-anchor="middle" x="2596.5" y="-403.5" font-family="FreeSans" font-size="10.00" fill="#000000">mutex</text>
</g>
<!-- Node2&#45;&gt;Node42 -->
<g id="edge101" class="edge">
<title>Node2&#45;&gt;Node42</title>
<path fill="none" stroke="#191970" d="M2570.3857,-459.4966C2575.3213,-449.4803 2581.712,-436.511 2586.936,-425.9094"/>
<polygon fill="#191970" stroke="#191970" points="2590.2209,-427.1613 2591.5015,-416.6441 2583.9418,-424.0672 2590.2209,-427.1613"/>
</g>
<!-- Node43 -->
<g id="node43" class="node">
<title>Node43</title>
<g id="a_node43"><a xlink:href="../../dd/d9b/BareAlgorithm_8hpp.html" target="_top" xlink:title="ACTFW/Framework/BareAlgorithm.hpp">
<polygon fill="none" stroke="#000000" points="2597,-258.5 2597,-278.5 2808,-278.5 2808,-258.5 2597,-258.5"/>
<text text-anchor="middle" x="2702.5" y="-265.5" font-family="FreeSans" font-size="10.00" fill="#000000">ACTFW/Framework/BareAlgorithm.hpp</text>
</a>
</g>
</g>
<!-- Node2&#45;&gt;Node43 -->
<g id="edge102" class="edge">
<title>Node2&#45;&gt;Node43</title>
<path fill="none" stroke="#191970" d="M2588.4506,-459.4416C2601.99,-450.0849 2618.0668,-437.3199 2629.5,-423 2663.4434,-380.4865 2686.2156,-319.6029 2696.404,-288.4815"/>
<polygon fill="#191970" stroke="#191970" points="2699.7896,-289.384 2699.4806,-278.7936 2693.1179,-287.2652 2699.7896,-289.384"/>
</g>
<!-- Node46 -->
<g id="node46" class="node">
<title>Node46</title>
<g id="a_node46"><a xlink:href="../../d4/dcf/IMaterialWriter_8hpp.html" target="_top" xlink:title="ACTFW/MaterialMapping\l/IMaterialWriter.hpp">
<polygon fill="none" stroke="#000000" points="38,-183.5 38,-215.5 179,-215.5 179,-183.5 38,-183.5"/>
<text text-anchor="start" x="46" y="-202.5" font-family="FreeSans" font-size="10.00" fill="#000000">ACTFW/MaterialMapping</text>
<text text-anchor="middle" x="108.5" y="-190.5" font-family="FreeSans" font-size="10.00" fill="#000000">/IMaterialWriter.hpp</text>
</a>
</g>
</g>
<!-- Node2&#45;&gt;Node46 -->
<g id="edge110" class="edge">
<title>Node2&#45;&gt;Node46</title>
<path fill="none" stroke="#191970" d="M2491.8846,-473.5131C2185.7614,-464.5342 972.0276,-425.0691 597.5,-354 432.2506,-322.6428 244.5937,-253.4278 157.5936,-219.3069"/>
<polygon fill="#191970" stroke="#191970" points="158.8271,-216.0311 148.2402,-215.6213 156.2609,-222.5437 158.8271,-216.0311"/>
</g>
<!-- Node4 -->
<g id="node4" class="node">
<title>Node4</title>
<g id="a_node4"><a xlink:href="../../d1/db8/GeometryContext_8hpp.html" target="_top" xlink:title="Acts/Geometry/GeometryContext.hpp">
<polygon fill="none" stroke="#000000" points="1445.5,-57.5 1445.5,-77.5 1653.5,-77.5 1653.5,-57.5 1445.5,-57.5"/>
<text text-anchor="middle" x="1549.5" y="-64.5" font-family="FreeSans" font-size="10.00" fill="#000000">Acts/Geometry/GeometryContext.hpp</text>
</a>
</g>
</g>
<!-- Node3&#45;&gt;Node4 -->
<g id="edge3" class="edge">
<title>Node3&#45;&gt;Node4</title>
<path fill="none" stroke="#191970" d="M1695.7898,-390.3321C1714.7708,-350.8081 1756.3473,-247.8004 1710.5,-183 1682.7338,-143.7553 1647.1797,-175.5481 1608.5,-147 1586.6804,-130.8957 1569.345,-104.4433 1559.2548,-86.516"/>
<polygon fill="#191970" stroke="#191970" points="1562.245,-84.6873 1554.412,-77.5533 1556.0865,-88.0149 1562.245,-84.6873"/>
</g>
<!-- Node6 -->
<g id="node6" class="node">
<title>Node6</title>
<g id="a_node6"><a xlink:href="../../d3/d69/GeometryID_8hpp.html" target="_top" xlink:title="Acts/Geometry/GeometryID.hpp">
<polygon fill="none" stroke="#000000" points="0,-120.5 0,-140.5 179,-140.5 179,-120.5 0,-120.5"/>
<text text-anchor="middle" x="89.5" y="-127.5" font-family="FreeSans" font-size="10.00" fill="#000000">Acts/Geometry/GeometryID.hpp</text>
</a>
</g>
</g>
<!-- Node3&#45;&gt;Node6 -->
<g id="edge5" class="edge">
<title>Node3&#45;&gt;Node6</title>
<path fill="none" stroke="#191970" d="M1604.7157,-404.5481C1385.182,-399.0464 791.7013,-381.968 597.5,-354 339.9371,-316.9069 189.3639,-420.5419 28.5,-216 10.0277,-192.5121 40.2013,-164.0594 64.3102,-146.6229"/>
<polygon fill="#191970" stroke="#191970" points="66.5917,-149.3002 72.8167,-140.727 62.604,-143.547 66.5917,-149.3002"/>
</g>
<!-- Node10 -->
<g id="node10" class="node">
<title>Node10</title>
<g id="a_node10"><a xlink:href="../../d6/da8/MagneticFieldContext_8hpp.html" target="_top" xlink:title="Acts/MagneticField\l/MagneticFieldContext.hpp">
<polygon fill="none" stroke="#000000" points="1689.5,-114.5 1689.5,-146.5 1841.5,-146.5 1841.5,-114.5 1689.5,-114.5"/>
<text text-anchor="start" x="1697.5" y="-133.5" font-family="FreeSans" font-size="10.00" fill="#000000">Acts/MagneticField</text>
<text text-anchor="middle" x="1765.5" y="-121.5" font-family="FreeSans" font-size="10.00" fill="#000000">/MagneticFieldContext.hpp</text>
</a>
</g>
</g>
<!-- Node3&#45;&gt;Node10 -->
<g id="edge9" class="edge">
<title>Node3&#45;&gt;Node10</title>
<path fill="none" stroke="#191970" d="M1739.9953,-390.4701C1810.3036,-365.8228 1932.1447,-311.1991 1983.5,-216 1990.4634,-203.0918 1992.576,-194.5212 1983.5,-183 1979.1661,-177.4985 1910.8016,-161.5891 1851.7727,-148.7134"/>
<polygon fill="#191970" stroke="#191970" points="1852.151,-145.2141 1841.636,-146.5119 1850.6653,-152.0546 1852.151,-145.2141"/>
</g>
<!-- Node11 -->
<g id="node11" class="node">
<title>Node11</title>
<g id="a_node11"><a xlink:href="../../d8/dc7/AccumulatedSurfaceMaterial_8hpp.html" target="_top" xlink:title="Acts/Material/Accumulated\lSurfaceMaterial.hpp">
<polygon fill="none" stroke="#000000" points="434.5,-252.5 434.5,-284.5 586.5,-284.5 586.5,-252.5 434.5,-252.5"/>
<text text-anchor="start" x="442.5" y="-271.5" font-family="FreeSans" font-size="10.00" fill="#000000">Acts/Material/Accumulated</text>
<text text-anchor="middle" x="510.5" y="-259.5" font-family="FreeSans" font-size="10.00" fill="#000000">SurfaceMaterial.hpp</text>
</a>
</g>
</g>
<!-- Node3&#45;&gt;Node11 -->
<g id="edge11" class="edge">
<title>Node3&#45;&gt;Node11</title>
<path fill="none" stroke="#191970" d="M1604.683,-404.0625C1380.5895,-397.1987 773.2423,-376.7228 685.5,-354 633.2146,-340.4595 578.0483,-310.5313 543.9504,-289.9363"/>
<polygon fill="#191970" stroke="#191970" points="545.6867,-286.8954 535.331,-284.657 542.0305,-292.8647 545.6867,-286.8954"/>
</g>
<!-- Node16 -->
<g id="node16" class="node">
<title>Node16</title>
<g id="a_node16"><a xlink:href="../../da/dd4/ISurfaceMaterial_8hpp.html" target="_top" xlink:title="Acts/Material/ISurfaceMaterial.hpp">
<polygon fill="none" stroke="#000000" points="804,-189.5 804,-209.5 995,-209.5 995,-189.5 804,-189.5"/>
<text text-anchor="middle" x="899.5" y="-196.5" font-family="FreeSans" font-size="10.00" fill="#000000">Acts/Material/ISurfaceMaterial.hpp</text>
</a>
</g>
</g>
<!-- Node3&#45;&gt;Node16 -->
<g id="edge32" class="edge">
<title>Node3&#45;&gt;Node16</title>
<path fill="none" stroke="#191970" d="M1604.8355,-402.0526C1386.8378,-389.4615 809.3288,-350.1943 755.5,-285 726.2836,-249.6148 787.8252,-225.3628 839.3222,-211.9661"/>
<polygon fill="#191970" stroke="#191970" points="840.2765,-215.3353 849.1269,-209.511 838.5762,-208.5449 840.2765,-215.3353"/>
</g>
<!-- Node21 -->
<g id="node21" class="node">
<title>Node21</title>
<g id="a_node21"><a xlink:href="../../d2/d56/MaterialInteractor_8hpp.html" target="_top" xlink:title="Acts/Propagator/Material\lInteractor.hpp">
<polygon fill="none" stroke="#000000" points="1123,-321.5 1123,-353.5 1264,-353.5 1264,-321.5 1123,-321.5"/>
<text text-anchor="start" x="1131" y="-340.5" font-family="FreeSans" font-size="10.00" fill="#000000">Acts/Propagator/Material</text>
<text text-anchor="middle" x="1193.5" y="-328.5" font-family="FreeSans" font-size="10.00" fill="#000000">Interactor.hpp</text>
</a>
</g>
</g>
<!-- Node3&#45;&gt;Node21 -->
<g id="edge33" class="edge">
<title>Node3&#45;&gt;Node21</title>
<path fill="none" stroke="#191970" d="M1604.8155,-394.951C1512.8173,-382.101 1365.1603,-361.4768 1274.0386,-348.7493"/>
<polygon fill="#191970" stroke="#191970" points="1274.4232,-345.2691 1264.0351,-347.3521 1273.4548,-352.2018 1274.4232,-345.2691"/>
</g>
<!-- Node26 -->
<g id="node26" class="node">
<title>Node26</title>
<g id="a_node26"><a xlink:href="../../d8/ddd/Surface_8hpp.html" target="_top" xlink:title="Acts/Surfaces/Surface.hpp">
<polygon fill="none" stroke="#ff0000" points="1295.5,-120.5 1295.5,-140.5 1445.5,-140.5 1445.5,-120.5 1295.5,-120.5"/>
<text text-anchor="middle" x="1370.5" y="-127.5" font-family="FreeSans" font-size="10.00" fill="#000000">Acts/Surfaces/Surface.hpp</text>
</a>
</g>
</g>
<!-- Node3&#45;&gt;Node26 -->
<g id="edge88" class="edge">
<title>Node3&#45;&gt;Node26</title>
<path fill="none" stroke="#191970" d="M1669.0866,-390.4681C1613.2926,-341.8904 1446.4564,-196.6324 1389.6709,-147.1913"/>
<polygon fill="#191970" stroke="#191970" points="1391.9578,-144.5418 1382.1175,-140.6149 1387.3612,-149.8211 1391.9578,-144.5418"/>
</g>
<!-- Node30 -->
<g id="node30" class="node">
<title>Node30</title>
<g id="a_node30"><a xlink:href="../../d2/de2/Navigator_8hpp.html" target="_top" xlink:title="Acts/Propagator/Navigator.hpp">
<polygon fill="none" stroke="#ff0000" points="2194.5,-258.5 2194.5,-278.5 2366.5,-278.5 2366.5,-258.5 2194.5,-258.5"/>
<text text-anchor="middle" x="2280.5" y="-265.5" font-family="FreeSans" font-size="10.00" fill="#000000">Acts/Propagator/Navigator.hpp</text>
</a>
</g>
</g>
<!-- Node3&#45;&gt;Node30 -->
<g id="edge58" class="edge">
<title>Node3&#45;&gt;Node30</title>
<path fill="none" stroke="#191970" d="M1770.2704,-403.2316C1853.7724,-398.2286 1985.6965,-385.6277 2095.5,-354 2154.8592,-336.9023 2219.2972,-303.3597 2254.2793,-283.7543"/>
<polygon fill="#191970" stroke="#191970" points="2256.3633,-286.5962 2263.3363,-278.6194 2252.9109,-280.5068 2256.3633,-286.5962"/>
</g>
<!-- Node33 -->
<g id="node33" class="node">
<title>Node33</title>
<g id="a_node33"><a xlink:href="../../d5/d20/Propagator_8hpp.html" target="_top" xlink:title="Acts/Propagator/Propagator.hpp">
<polygon fill="none" stroke="#ff0000" points="2031.5,-189.5 2031.5,-209.5 2209.5,-209.5 2209.5,-189.5 2031.5,-189.5"/>
<text text-anchor="middle" x="2120.5" y="-196.5" font-family="FreeSans" font-size="10.00" fill="#000000">Acts/Propagator/Propagator.hpp</text>
</a>
</g>
</g>
<!-- Node3&#45;&gt;Node33 -->
<g id="edge75" class="edge">
<title>Node3&#45;&gt;Node33</title>
<path fill="none" stroke="#191970" d="M1770.3677,-400.8864C1854.4216,-393.8734 1977.6411,-379.5641 2017.5,-354 2068.6749,-321.1782 2100.3486,-252.8681 2113.4809,-219.169"/>
<polygon fill="#191970" stroke="#191970" points="2116.8603,-220.125 2117.0943,-209.5327 2110.306,-217.6671 2116.8603,-220.125"/>
</g>
<!-- Node35 -->
<g id="node35" class="node">
<title>Node35</title>
<g id="a_node35"><a xlink:href="../../db/d9e/StraightLineStepper_8hpp.html" target="_top" xlink:title="Acts/Propagator/Straight\lLineStepper.hpp">
<polygon fill="none" stroke="#ff0000" points="1834,-183.5 1834,-215.5 1975,-215.5 1975,-183.5 1834,-183.5"/>
<text text-anchor="start" x="1842" y="-202.5" font-family="FreeSans" font-size="10.00" fill="#000000">Acts/Propagator/Straight</text>
<text text-anchor="middle" x="1904.5" y="-190.5" font-family="FreeSans" font-size="10.00" fill="#000000">LineStepper.hpp</text>
</a>
</g>
</g>
<!-- Node3&#45;&gt;Node35 -->
<g id="edge76" class="edge">
<title>Node3&#45;&gt;Node35</title>
<path fill="none" stroke="#191970" d="M1704.705,-390.4674C1715.8076,-380.0975 1730.5436,-366.2892 1743.5,-354 1792.2132,-307.7954 1848.7599,-253.3398 1880.2067,-222.9821"/>
<polygon fill="#191970" stroke="#191970" points="1882.8788,-225.2673 1887.6409,-215.8029 1878.0162,-220.2319 1882.8788,-225.2673"/>
</g>
<!-- Node36 -->
<g id="node36" class="node">
<title>Node36</title>
<g id="a_node36"><a xlink:href="../../d9/d30/SurfaceCollector_8hpp.html" target="_top" xlink:title="Acts/Propagator/SurfaceCollector.hpp">
<polygon fill="none" stroke="#000000" points="1495.5,-189.5 1495.5,-209.5 1701.5,-209.5 1701.5,-189.5 1495.5,-189.5"/>
<text text-anchor="middle" x="1598.5" y="-196.5" font-family="FreeSans" font-size="10.00" fill="#000000">Acts/Propagator/SurfaceCollector.hpp</text>
</a>
</g>
</g>
<!-- Node3&#45;&gt;Node36 -->
<g id="edge82" class="edge">
<title>Node3&#45;&gt;Node36</title>
<path fill="none" stroke="#191970" d="M1680.5163,-390.2571C1664.3821,-352.7313 1624.5613,-260.1145 1607.0248,-219.3275"/>
<polygon fill="#191970" stroke="#191970" points="1610.1475,-217.7292 1602.9822,-209.9248 1603.7167,-220.4942 1610.1475,-217.7292"/>
</g>
<!-- Node37 -->
<g id="node37" class="node">
<title>Node37</title>
<g id="a_node37"><a xlink:href="../../d1/de2/VolumeCollector_8hpp.html" target="_top" xlink:title="Acts/Propagator/VolumeCollector.hpp">
<polygon fill="none" stroke="#000000" points="1241,-258.5 1241,-278.5 1446,-278.5 1446,-258.5 1241,-258.5"/>
<text text-anchor="middle" x="1343.5" y="-265.5" font-family="FreeSans" font-size="10.00" fill="#000000">Acts/Propagator/VolumeCollector.hpp</text>
</a>
</g>
</g>
<!-- Node3&#45;&gt;Node37 -->
<g id="edge85" class="edge">
<title>Node3&#45;&gt;Node37</title>
<path fill="none" stroke="#191970" d="M1614.3824,-390.4181C1578.7674,-381.526 1535.7051,-369.1853 1498.5,-354 1450.0224,-334.2138 1397.4175,-302.8939 1367.651,-284.1561"/>
<polygon fill="#191970" stroke="#191970" points="1369.4936,-281.1801 1359.1762,-278.7716 1365.7397,-287.0885 1369.4936,-281.1801"/>
</g>
<!-- Node3&#45;&gt;Node38 -->
<g id="edge89" class="edge">
<title>Node3&#45;&gt;Node38</title>
<path fill="none" stroke="#191970" d="M1770.376,-401.79C1863.7736,-395.4055 2019.7627,-381.4926 2151.5,-354 2253.4748,-332.7186 2288.2555,-341.9224 2375.5,-285 2402.3456,-267.4847 2425.05,-237.5302 2437.9748,-218.1298"/>
<polygon fill="#191970" stroke="#191970" points="2441.0273,-219.8545 2443.5094,-209.5545 2435.1459,-216.0585 2441.0273,-219.8545"/>
</g>
<!-- Node5 -->
<g id="node5" class="node">
<title>Node5</title>
<polygon fill="none" stroke="#bfbfbf" points="1640,-.5 1640,-20.5 1675,-20.5 1675,-.5 1640,-.5"/>
<text text-anchor="middle" x="1657.5" y="-7.5" font-family="FreeSans" font-size="10.00" fill="#000000">any</text>
</g>
<!-- Node4&#45;&gt;Node5 -->
<g id="edge4" class="edge">
<title>Node4&#45;&gt;Node5</title>
<path fill="none" stroke="#191970" d="M1568.5596,-57.4408C1585.837,-48.3221 1611.4772,-34.7898 1630.7948,-24.5944"/>
<polygon fill="#191970" stroke="#191970" points="1632.4955,-27.6544 1639.7057,-19.8914 1629.2282,-21.4637 1632.4955,-27.6544"/>
</g>
<!-- Node7 -->
<g id="node7" class="node">
<title>Node7</title>
<polygon fill="none" stroke="#bfbfbf" points="64,-57.5 64,-77.5 115,-77.5 115,-57.5 64,-57.5"/>
<text text-anchor="middle" x="89.5" y="-64.5" font-family="FreeSans" font-size="10.00" fill="#000000">cstdint</text>
</g>
<!-- Node6&#45;&gt;Node7 -->
<g id="edge6" class="edge">
<title>Node6&#45;&gt;Node7</title>
<path fill="none" stroke="#191970" d="M89.5,-120.378C89.5,-111.7041 89.5,-98.9355 89.5,-88.1186"/>
<polygon fill="#191970" stroke="#191970" points="93.0001,-87.8062 89.5,-77.8062 86.0001,-87.8062 93.0001,-87.8062"/>
</g>
<!-- Node8 -->
<g id="node8" class="node">
<title>Node8</title>
<polygon fill="none" stroke="#bfbfbf" points="1671.5,-57.5 1671.5,-77.5 1737.5,-77.5 1737.5,-57.5 1671.5,-57.5"/>
<text text-anchor="middle" x="1704.5" y="-64.5" font-family="FreeSans" font-size="10.00" fill="#000000">functional</text>
</g>
<!-- Node6&#45;&gt;Node8 -->
<g id="edge7" class="edge">
<title>Node6&#45;&gt;Node8</title>
<path fill="none" stroke="#191970" d="M179.4789,-122.0382C214.149,-119.06 254.1395,-115.9679 290.5,-114 591.7766,-97.6942 1343.9182,-118.7702 1660.984,-77.8885"/>
<polygon fill="#191970" stroke="#191970" points="1661.7069,-81.3232 1671.1579,-76.5346 1660.7835,-74.3844 1661.7069,-81.3232"/>
</g>
<!-- Node9 -->
<g id="node9" class="node">
<title>Node9</title>
<polygon fill="none" stroke="#bfbfbf" points="390.5,-57.5 390.5,-77.5 438.5,-77.5 438.5,-57.5 390.5,-57.5"/>
<text text-anchor="middle" x="414.5" y="-64.5" font-family="FreeSans" font-size="10.00" fill="#000000">iosfwd</text>
</g>
<!-- Node6&#45;&gt;Node9 -->
<g id="edge8" class="edge">
<title>Node6&#45;&gt;Node9</title>
<path fill="none" stroke="#191970" d="M141.3566,-120.4478C208.3348,-107.4643 323.0717,-85.223 380.1551,-74.1576"/>
<polygon fill="#191970" stroke="#191970" points="380.9673,-77.5654 390.1184,-72.2263 379.6351,-70.6934 380.9673,-77.5654"/>
</g>
<!-- Node10&#45;&gt;Node5 -->
<g id="edge10" class="edge">
<title>Node10&#45;&gt;Node5</title>
<path fill="none" stroke="#191970" d="M1765.0208,-114.211C1763.7575,-98.0964 1759.6142,-73.514 1746.5,-57 1730.8976,-37.3527 1704.7108,-25.1001 1684.7709,-18.1372"/>
<polygon fill="#191970" stroke="#191970" points="1685.5942,-14.7248 1675.0021,-14.9671 1683.4334,-21.383 1685.5942,-14.7248"/>
</g>
<!-- Node12 -->
<g id="node12" class="node">
<title>Node12</title>
<polygon fill="none" stroke="#bfbfbf" points="300,-120.5 300,-140.5 343,-140.5 343,-120.5 300,-120.5"/>
<text text-anchor="middle" x="321.5" y="-127.5" font-family="FreeSans" font-size="10.00" fill="#000000">array</text>
</g>
<!-- Node11&#45;&gt;Node12 -->
<g id="edge12" class="edge">
<title>Node11&#45;&gt;Node12</title>
<path fill="none" stroke="#191970" d="M434.1741,-252.8142C395.4103,-243.3497 353.7454,-230.3622 340.5,-216 324.213,-198.3397 320.7925,-169.9123 320.5606,-150.7342"/>
<polygon fill="#191970" stroke="#191970" points="324.0612,-150.7166 320.7194,-140.6626 317.0621,-150.6062 324.0612,-150.7166"/>
</g>
<!-- Node13 -->
<g id="node13" class="node">
<title>Node13</title>
<polygon fill="none" stroke="#bfbfbf" points="713,-57.5 713,-77.5 762,-77.5 762,-57.5 713,-57.5"/>
<text text-anchor="middle" x="737.5" y="-64.5" font-family="FreeSans" font-size="10.00" fill="#000000">vector</text>
</g>
<!-- Node11&#45;&gt;Node13 -->
<g id="edge13" class="edge">
<title>Node11&#45;&gt;Node13</title>
<path fill="none" stroke="#191970" d="M434.2162,-264.7934C360.6498,-259.4311 256.8289,-246.5397 231.5,-216 202.5598,-181.1062 200.9464,-147.4901 231.5,-114 263.2191,-79.2323 593.6469,-70.1172 702.7542,-68.0462"/>
<polygon fill="#191970" stroke="#191970" points="702.9637,-71.5431 712.8985,-67.862 702.8366,-64.5442 702.9637,-71.5431"/>
</g>
<!-- Node14 -->
<g id="node14" class="node">
<title>Node14</title>
<g id="a_node14"><a xlink:href="../../d7/d93/AccumulatedMaterialProperties_8hpp.html" target="_top" xlink:title="Acts/Material/Accumulated\lMaterialProperties.hpp">
<polygon fill="none" stroke="#000000" points="519.5,-183.5 519.5,-215.5 671.5,-215.5 671.5,-183.5 519.5,-183.5"/>
<text text-anchor="start" x="527.5" y="-202.5" font-family="FreeSans" font-size="10.00" fill="#000000">Acts/Material/Accumulated</text>
<text text-anchor="middle" x="595.5" y="-190.5" font-family="FreeSans" font-size="10.00" fill="#000000">MaterialProperties.hpp</text>
</a>
</g>
</g>
<!-- Node11&#45;&gt;Node14 -->
<g id="edge14" class="edge">
<title>Node11&#45;&gt;Node14</title>
<path fill="none" stroke="#191970" d="M530.2144,-252.4966C541.2919,-243.5042 555.3016,-232.1317 567.5004,-222.2291"/>
<polygon fill="#191970" stroke="#191970" points="570.04,-224.6756 575.5981,-215.6557 565.6283,-219.2408 570.04,-224.6756"/>
</g>
<!-- Node15 -->
<g id="node15" class="node">
<title>Node15</title>
<g id="a_node15"><a xlink:href="../../d2/ddb/MaterialProperties_8hpp.html" target="_top" xlink:title="Acts/Material/MaterialProperties.hpp">
<polygon fill="none" stroke="#ff0000" points="637,-120.5 637,-140.5 838,-140.5 838,-120.5 637,-120.5"/>
<text text-anchor="middle" x="737.5" y="-127.5" font-family="FreeSans" font-size="10.00" fill="#000000">Acts/Material/MaterialProperties.hpp</text>
</a>
</g>
</g>
<!-- Node11&#45;&gt;Node15 -->
<g id="edge24" class="edge">
<title>Node11&#45;&gt;Node15</title>
<path fill="none" stroke="#191970" d="M586.7412,-256.5802C618.0533,-248.8744 653.2699,-236.3233 680.5,-216 703.5259,-198.8145 720.1399,-169.4123 729.2961,-149.9668"/>
<polygon fill="#191970" stroke="#191970" points="732.6089,-151.1328 733.5042,-140.5759 726.2209,-148.2703 732.6089,-151.1328"/>
</g>
<!-- Node11&#45;&gt;Node16 -->
<g id="edge18" class="edge">
<title>Node11&#45;&gt;Node16</title>
<path fill="none" stroke="#191970" d="M586.8897,-254.9501C658.4462,-242.2576 764.328,-223.4765 832.6242,-211.3623"/>
<polygon fill="#191970" stroke="#191970" points="833.6003,-214.7439 842.8353,-209.5511 832.3777,-207.8515 833.6003,-214.7439"/>
</g>
<!-- Node18 -->
<g id="node18" class="node">
<title>Node18</title>
<g id="a_node18"><a xlink:href="../../d6/d1d/Definitions_8hpp.html" target="_top" xlink:title="Acts/Utilities/Definitions.hpp">
<polygon fill="none" stroke="#ff0000" points="1070.5,-57.5 1070.5,-77.5 1230.5,-77.5 1230.5,-57.5 1070.5,-57.5"/>
<text text-anchor="middle" x="1150.5" y="-64.5" font-family="FreeSans" font-size="10.00" fill="#000000">Acts/Utilities/Definitions.hpp</text>
</a>
</g>
</g>
<!-- Node11&#45;&gt;Node18 -->
<g id="edge31" class="edge">
<title>Node11&#45;&gt;Node18</title>
<path fill="none" stroke="#191970" d="M434.4316,-254.2247C389.7794,-244.5557 338.8072,-230.8684 321.5,-216 285.5604,-185.1247 257.9137,-148.3958 290.5,-114 303.6123,-100.1596 841.9968,-78.8473 1060.1255,-70.7619"/>
<polygon fill="#191970" stroke="#191970" points="1060.4033,-74.2541 1070.2671,-70.3869 1060.1446,-67.2589 1060.4033,-74.2541"/>
</g>
<!-- Node19 -->
<g id="node19" class="node">
<title>Node19</title>
<g id="a_node19"><a xlink:href="../../d2/d0a/BinUtility_8hpp.html" target="_top" xlink:title="Acts/Utilities/BinUtility.hpp">
<polygon fill="none" stroke="#ff0000" points="350,-189.5 350,-209.5 501,-209.5 501,-189.5 350,-189.5"/>
<text text-anchor="middle" x="425.5" y="-196.5" font-family="FreeSans" font-size="10.00" fill="#000000">Acts/Utilities/BinUtility.hpp</text>
</a>
</g>
</g>
<!-- Node11&#45;&gt;Node19 -->
<g id="edge25" class="edge">
<title>Node11&#45;&gt;Node19</title>
<path fill="none" stroke="#191970" d="M490.7856,-252.4966C477.302,-241.551 459.474,-227.0789 445.8554,-216.0238"/>
<polygon fill="#191970" stroke="#191970" points="447.9662,-213.2293 437.9964,-209.6441 443.5544,-218.664 447.9662,-213.2293"/>
</g>
<!-- Node14&#45;&gt;Node15 -->
<g id="edge15" class="edge">
<title>Node14&#45;&gt;Node15</title>
<path fill="none" stroke="#191970" d="M628.4346,-183.4966C652.3415,-171.8798 684.4235,-156.2907 707.5972,-145.0302"/>
<polygon fill="#191970" stroke="#191970" points="709.159,-148.1627 716.6237,-140.6441 706.0996,-141.8666 709.159,-148.1627"/>
</g>
<!-- Node15&#45;&gt;Node9 -->
<g id="edge16" class="edge">
<title>Node15&#45;&gt;Node9</title>
<path fill="none" stroke="#191970" d="M685.9625,-120.4478C619.3965,-107.4643 505.3656,-85.223 448.6335,-74.1576"/>
<polygon fill="#191970" stroke="#191970" points="449.2167,-70.7055 438.7315,-72.2263 447.8765,-77.576 449.2167,-70.7055"/>
</g>
<!-- Node15&#45;&gt;Node13 -->
<g id="edge17" class="edge">
<title>Node15&#45;&gt;Node13</title>
<path fill="none" stroke="#191970" d="M737.5,-120.378C737.5,-111.7041 737.5,-98.9355 737.5,-88.1186"/>
<polygon fill="#191970" stroke="#191970" points="741.0001,-87.8062 737.5,-77.8062 734.0001,-87.8062 741.0001,-87.8062"/>
</g>
<!-- Node16&#45;&gt;Node6 -->
<g id="edge21" class="edge">
<title>Node16&#45;&gt;Node6</title>
<path fill="none" stroke="#191970" d="M803.8015,-191.3479C649.2658,-178.1838 346.2572,-152.3719 189.2005,-138.993"/>
<polygon fill="#191970" stroke="#191970" points="189.3307,-135.4915 179.0697,-138.13 188.7365,-142.4662 189.3307,-135.4915"/>
</g>
<!-- Node16&#45;&gt;Node13 -->
<g id="edge20" class="edge">
<title>Node16&#45;&gt;Node13</title>
<path fill="none" stroke="#191970" d="M895.655,-189.415C888.4956,-171.8588 871.5412,-135.5044 846.5,-114 825.018,-95.5521 795.1288,-83.4999 772.0816,-76.2986"/>
<polygon fill="#191970" stroke="#191970" points="772.9311,-72.9 762.3488,-73.4153 770.9428,-79.6116 772.9311,-72.9"/>
</g>
<!-- Node16&#45;&gt;Node15 -->
<g id="edge22" class="edge">
<title>Node16&#45;&gt;Node15</title>
<path fill="none" stroke="#191970" d="M875.9438,-189.4668C848.1092,-177.6113 801.6289,-157.8141 770.2877,-144.4651"/>
<polygon fill="#191970" stroke="#191970" points="771.6564,-141.2439 761.0846,-140.5453 768.9133,-147.6841 771.6564,-141.2439"/>
</g>
<!-- Node16&#45;&gt;Node17 -->
<g id="edge19" class="edge">
<title>Node16&#45;&gt;Node17</title>
<path fill="none" stroke="#191970" d="M935.1486,-189.4734C1002.9353,-170.8903 1155.368,-131.4105 1286.5,-114 1476.6416,-88.7548 2083.1386,-72.4231 2244.6606,-68.4462"/>
<polygon fill="#191970" stroke="#191970" points="2245.1677,-71.9349 2255.0792,-68.1917 2244.9967,-64.937 2245.1677,-71.9349"/>
</g>
<!-- Node16&#45;&gt;Node18 -->
<g id="edge23" class="edge">
<title>Node16&#45;&gt;Node18</title>
<path fill="none" stroke="#191970" d="M918.7788,-189.3614C962.7625,-166.2305 1070.6847,-109.4746 1122.2176,-82.3736"/>
<polygon fill="#191970" stroke="#191970" points="1123.9339,-85.4255 1131.1555,-77.6732 1120.6757,-79.23 1123.9339,-85.4255"/>
</g>
<!-- Node19&#45;&gt;Node12 -->
<g id="edge26" class="edge">
<title>Node19&#45;&gt;Node12</title>
<path fill="none" stroke="#191970" d="M410.1544,-189.3188C393.103,-178.0058 365.3528,-159.5946 345.4397,-146.3831"/>
<polygon fill="#191970" stroke="#191970" points="347.1763,-143.335 336.9085,-140.723 343.3064,-149.168 347.1763,-143.335"/>
</g>
<!-- Node19&#45;&gt;Node13 -->
<g id="edge29" class="edge">
<title>Node19&#45;&gt;Node13</title>
<path fill="none" stroke="#191970" d="M425.4989,-189.2405C426.0953,-171.0759 430.1349,-133.3531 452.5,-114 489.3849,-82.0825 634.8627,-71.8204 702.5356,-68.7336"/>
<polygon fill="#191970" stroke="#191970" points="702.8593,-72.2231 712.7001,-68.2976 702.5592,-65.2295 702.8593,-72.2231"/>
</g>
<!-- Node19&#45;&gt;Node17 -->
<g id="edge28" class="edge">
<title>Node19&#45;&gt;Node17</title>
<path fill="none" stroke="#191970" d="M454.6948,-189.4723C482.8946,-179.5346 526.6327,-163.455 563.5,-147 592.7243,-133.9563 596.5082,-121.9816 627.5,-114 667.9407,-103.5849 1997.9396,-73.8142 2245.1617,-68.3628"/>
<polygon fill="#191970" stroke="#191970" points="2245.5413,-71.8554 2255.4617,-68.1359 2245.3871,-64.8571 2245.5413,-71.8554"/>
</g>
<!-- Node19&#45;&gt;Node18 -->
<g id="edge30" class="edge">
<title>Node19&#45;&gt;Node18</title>
<path fill="none" stroke="#191970" d="M431.1139,-189.3694C442.8013,-168.6818 469.9491,-122.7876 485.5,-114 534.2845,-86.4325 889.8489,-73.9628 1060.1037,-69.5247"/>
<polygon fill="#191970" stroke="#191970" points="1060.3949,-73.0185 1070.3017,-69.2628 1060.215,-66.0208 1060.3949,-73.0185"/>
</g>
<!-- Node19&#45;&gt;Node20 -->
<g id="edge27" class="edge">
<title>Node19&#45;&gt;Node20</title>
<path fill="none" stroke="#191970" d="M440.1078,-189.3188C456.2663,-178.0568 482.5178,-159.7603 501.4546,-146.5619"/>
<polygon fill="#191970" stroke="#191970" points="503.6296,-149.3123 509.8323,-140.723 499.627,-143.5695 503.6296,-149.3123"/>
</g>
<!-- Node21&#45;&gt;Node15 -->
<g id="edge46" class="edge">
<title>Node21&#45;&gt;Node15</title>
<path fill="none" stroke="#191970" d="M1122.5848,-333.7517C1005.2156,-326.8577 780.9104,-310.4947 755.5,-285 719.8754,-249.2573 726.6697,-183.3689 732.9362,-150.3926"/>
<polygon fill="#191970" stroke="#191970" points="736.3712,-151.0652 734.9791,-140.5622 729.5176,-149.6408 736.3712,-151.0652"/>
</g>
<!-- Node22 -->
<g id="node22" class="node">
<title>Node22</title>
<polygon fill="none" stroke="#bfbfbf" points="1463.5,-120.5 1463.5,-140.5 1519.5,-140.5 1519.5,-120.5 1463.5,-120.5"/>
<text text-anchor="middle" x="1491.5" y="-127.5" font-family="FreeSans" font-size="10.00" fill="#000000">sstream</text>
</g>
<!-- Node21&#45;&gt;Node22 -->
<g id="edge34" class="edge">
<title>Node21&#45;&gt;Node22</title>
<path fill="none" stroke="#191970" d="M1264.2178,-331.7806C1331.9859,-324.8436 1427.7973,-310.744 1454.5,-285 1473.5743,-266.6105 1484.8581,-188.8038 1489.3015,-151.1212"/>
<polygon fill="#191970" stroke="#191970" points="1492.8199,-151.1541 1490.462,-140.825 1485.8639,-150.3701 1492.8199,-151.1541"/>
</g>
<!-- Node23 -->
<g id="node23" class="node">
<title>Node23</title>
<g id="a_node23"><a xlink:href="../../df/d37/TrackingVolume_8hpp.html" target="_top" xlink:title="Acts/Geometry/TrackingVolume.hpp">
<polygon fill="none" stroke="#ff0000" points="1051.5,-189.5 1051.5,-209.5 1249.5,-209.5 1249.5,-189.5 1051.5,-189.5"/>
<text text-anchor="middle" x="1150.5" y="-196.5" font-family="FreeSans" font-size="10.00" fill="#000000">Acts/Geometry/TrackingVolume.hpp</text>
</a>
</g>
</g>
<!-- Node21&#45;&gt;Node23 -->
<g id="edge35" class="edge">
<title>Node21&#45;&gt;Node23</title>
<path fill="none" stroke="#191970" d="M1188.4832,-321.3996C1180.5818,-296.0415 1165.2574,-246.861 1156.6858,-219.3521"/>
<polygon fill="#191970" stroke="#191970" points="1159.9789,-218.1553 1153.6624,-209.6492 1153.2958,-220.2377 1159.9789,-218.1553"/>
</g>
<!-- Node21&#45;&gt;Node26 -->
<g id="edge56" class="edge">
<title>Node21&#45;&gt;Node26</title>
<path fill="none" stroke="#191970" d="M1196.702,-321.471C1201.2839,-302.4743 1211.4681,-271.0073 1231.5,-252 1263.9527,-221.2071 1292.0452,-245.7011 1325.5,-216 1345.5037,-198.2408 1358.0474,-169.4299 1364.663,-150.2272"/>
<polygon fill="#191970" stroke="#191970" points="1368.004,-151.2703 1367.7381,-140.6788 1361.341,-149.1243 1368.004,-151.2703"/>
</g>
<!-- Node27 -->
<g id="node27" class="node">
<title>Node27</title>
<g id="a_node27"><a xlink:href="../../d3/dc1/PointwiseMaterialInteraction_8hpp.html" target="_top" xlink:title="Acts/Propagator/detail\l/PointwiseMaterialInteraction.hpp">
<polygon fill="none" stroke="#000000" points="960,-252.5 960,-284.5 1147,-284.5 1147,-252.5 960,-252.5"/>
<text text-anchor="start" x="968" y="-271.5" font-family="FreeSans" font-size="10.00" fill="#000000">Acts/Propagator/detail</text>
<text text-anchor="middle" x="1053.5" y="-259.5" font-family="FreeSans" font-size="10.00" fill="#000000">/PointwiseMaterialInteraction.hpp</text>
</a>
</g>
</g>
<!-- Node21&#45;&gt;Node27 -->
<g id="edge47" class="edge">
<title>Node21&#45;&gt;Node27</title>
<path fill="none" stroke="#191970" d="M1161.0293,-321.4966C1141.4682,-311.8558 1116.3559,-299.479 1095.3196,-289.1111"/>
<polygon fill="#191970" stroke="#191970" points="1096.7966,-285.9371 1086.2796,-284.6557 1093.702,-292.2159 1096.7966,-285.9371"/>
</g>
<!-- Node28 -->
<g id="node28" class="node">
<title>Node28</title>
<g id="a_node28"><a xlink:href="../../db/dfa/VolumeMaterialInteraction_8hpp.html" target="_top" xlink:title="Acts/Propagator/detail\l/VolumeMaterialInteraction.hpp">
<polygon fill="none" stroke="#000000" points="765,-252.5 765,-284.5 942,-284.5 942,-252.5 765,-252.5"/>
<text text-anchor="start" x="773" y="-271.5" font-family="FreeSans" font-size="10.00" fill="#000000">Acts/Propagator/detail</text>
<text text-anchor="middle" x="853.5" y="-259.5" font-family="FreeSans" font-size="10.00" fill="#000000">/VolumeMaterialInteraction.hpp</text>
</a>
</g>
</g>
<!-- Node21&#45;&gt;Node28 -->
<g id="edge51" class="edge">
<title>Node21&#45;&gt;Node28</title>
<path fill="none" stroke="#191970" d="M1122.6387,-323.1193C1070.3143,-312.5006 998.7292,-297.973 942.5396,-286.5698"/>
<polygon fill="#191970" stroke="#191970" points="943.0888,-283.11 932.5924,-284.5511 941.6965,-289.9701 943.0888,-283.11"/>
</g>
<!-- Node29 -->
<g id="node29" class="node">
<title>Node29</title>
<g id="a_node29"><a xlink:href="../../df/d6f/Units_8hpp.html" target="_top" xlink:title="Acts/Utilities/Units.hpp">
<polygon fill="none" stroke="#000000" points="2011.5,-120.5 2011.5,-140.5 2143.5,-140.5 2143.5,-120.5 2011.5,-120.5"/>
<text text-anchor="middle" x="2077.5" y="-127.5" font-family="FreeSans" font-size="10.00" fill="#000000">Acts/Utilities/Units.hpp</text>
</a>
</g>
</g>
<!-- Node21&#45;&gt;Node29 -->
<g id="edge57" class="edge">
<title>Node21&#45;&gt;Node29</title>
<path fill="none" stroke="#191970" d="M1264.0065,-334.4599C1485.2737,-324.2048 2155.0101,-287.4603 2218.5,-216 2248.9566,-181.7199 2186.1005,-156.865 2134.778,-143.0611"/>
<polygon fill="#191970" stroke="#191970" points="2135.5854,-139.6547 2125.0268,-140.5302 2133.8268,-146.4302 2135.5854,-139.6547"/>
</g>
<!-- Node23&#45;&gt;Node4 -->
<g id="edge39" class="edge">
<title>Node23&#45;&gt;Node4</title>
<path fill="none" stroke="#191970" d="M1154.8837,-189.2437C1163.3854,-170.7333 1183.9993,-131.9972 1214.5,-114 1251.0304,-92.4449 1353.024,-80.4092 1434.9576,-74.0135"/>
<polygon fill="#191970" stroke="#191970" points="1435.393,-77.4906 1445.0988,-73.2423 1434.8621,-70.5107 1435.393,-77.4906"/>
</g>
<!-- Node23&#45;&gt;Node6 -->
<g id="edge40" class="edge">
<title>Node23&#45;&gt;Node6</title>
<path fill="none" stroke="#191970" d="M1069.3283,-189.4877C1047.9428,-187.0969 1024.8732,-184.7374 1003.5,-183 687.2506,-157.2918 607.098,-167.9821 290.5,-147 257.5566,-144.8167 221.6114,-142.0032 189.3454,-139.3199"/>
<polygon fill="#191970" stroke="#191970" points="189.2644,-135.801 179.0072,-138.4543 188.6802,-142.7766 189.2644,-135.801"/>
</g>
<!-- Node23&#45;&gt;Node8 -->
<g id="edge36" class="edge">
<title>Node23&#45;&gt;Node8</title>
<path fill="none" stroke="#191970" d="M1162.2462,-189.3784C1184.6565,-170.7277 1235.8129,-131.268 1286.5,-114 1442.3033,-60.9212 1494.9925,-104.6565 1661.0638,-78.0002"/>
<polygon fill="#191970" stroke="#191970" points="1661.8372,-81.4197 1671.1251,-76.3221 1660.6855,-74.515 1661.8372,-81.4197"/>
</g>
<!-- Node23&#45;&gt;Node18 -->
<g id="edge45" class="edge">
<title>Node23&#45;&gt;Node18</title>
<path fill="none" stroke="#191970" d="M1150.5,-189.1422C1150.5,-167.3584 1150.5,-116.4618 1150.5,-87.8882"/>
<polygon fill="#191970" stroke="#191970" points="1154.0001,-87.8097 1150.5,-77.8097 1147.0001,-87.8097 1154.0001,-87.8097"/>
</g>
<!-- Node24 -->
<g id="node24" class="node">
<title>Node24</title>
<polygon fill="none" stroke="#bfbfbf" points="361,-120.5 361,-140.5 400,-140.5 400,-120.5 361,-120.5"/>
<text text-anchor="middle" x="380.5" y="-127.5" font-family="FreeSans" font-size="10.00" fill="#000000">map</text>
</g>
<!-- Node23&#45;&gt;Node24 -->
<g id="edge37" class="edge">
<title>Node23&#45;&gt;Node24</title>
<path fill="none" stroke="#191970" d="M1066.6068,-189.4621C1045.9889,-187.1667 1023.9606,-184.8584 1003.5,-183 773.6686,-162.1243 714.8154,-172.9369 485.5,-147 459.9321,-144.1081 431.065,-139.4712 410.0786,-135.8483"/>
<polygon fill="#191970" stroke="#191970" points="410.6244,-132.3907 400.1704,-134.1121 409.4162,-139.2856 410.6244,-132.3907"/>
</g>
<!-- Node25 -->
<g id="node25" class="node">
<title>Node25</title>
<polygon fill="none" stroke="#bfbfbf" points="2614,-120.5 2614,-140.5 2659,-140.5 2659,-120.5 2614,-120.5"/>
<text text-anchor="middle" x="2636.5" y="-127.5" font-family="FreeSans" font-size="10.00" fill="#000000">string</text>
</g>
<!-- Node23&#45;&gt;Node25 -->
<g id="edge38" class="edge">
<title>Node23&#45;&gt;Node25</title>
<path fill="none" stroke="#191970" d="M1249.721,-194.2175C1316.6095,-190.7573 1406.8467,-186.2844 1486.5,-183 1965.915,-163.2322 2089.7792,-209.6041 2565.5,-147 2578.1153,-145.3398 2591.7736,-142.4385 2603.7095,-139.527"/>
<polygon fill="#191970" stroke="#191970" points="2604.8531,-142.8478 2613.6857,-136.9967 2603.1321,-136.0626 2604.8531,-142.8478"/>
</g>
<!-- Node23&#45;&gt;Node26 -->
<g id="edge41" class="edge">
<title>Node23&#45;&gt;Node26</title>
<path fill="none" stroke="#191970" d="M1182.4899,-189.4668C1221.1047,-177.3558 1286.1439,-156.9571 1328.6962,-143.6112"/>
<polygon fill="#191970" stroke="#191970" points="1329.9772,-146.8776 1338.4715,-140.5453 1327.8823,-140.1984 1329.9772,-146.8776"/>
</g>
<!-- Node26&#45;&gt;Node4 -->
<g id="edge42" class="edge">
<title>Node26&#45;&gt;Node4</title>
<path fill="none" stroke="#191970" d="M1399.2594,-120.378C1429.6617,-109.6777 1477.769,-92.7461 1511.3296,-80.9343"/>
<polygon fill="#191970" stroke="#191970" points="1512.5411,-84.2184 1520.8119,-77.5969 1510.2171,-77.6154 1512.5411,-84.2184"/>
</g>
<!-- Node26&#45;&gt;Node17 -->
<g id="edge44" class="edge">
<title>Node26&#45;&gt;Node17</title>
<path fill="none" stroke="#191970" d="M1415.6529,-120.4427C1428.1774,-117.9778 1441.8183,-115.593 1454.5,-114 1757.1781,-75.9785 2125.8657,-69.0429 2245.2159,-67.7803"/>
<polygon fill="#191970" stroke="#191970" points="2245.3672,-71.2791 2255.3322,-67.6808 2245.2982,-64.2794 2245.3672,-71.2791"/>
</g>
<!-- Node26&#45;&gt;Node18 -->
<g id="edge43" class="edge">
<title>Node26&#45;&gt;Node18</title>
<path fill="none" stroke="#191970" d="M1335.1532,-120.378C1297.226,-109.517 1236.8798,-92.236 1195.5668,-80.4055"/>
<polygon fill="#191970" stroke="#191970" points="1196.3362,-76.9852 1185.7591,-77.5969 1194.4091,-83.7147 1196.3362,-76.9852"/>
</g>
<!-- Node27&#45;&gt;Node15 -->
<g id="edge49" class="edge">
<title>Node27&#45;&gt;Node15</title>
<path fill="none" stroke="#191970" d="M1048.6677,-252.4618C1041.8875,-232.846 1027.6017,-200.1428 1003.5,-183 977.239,-164.3214 902.9733,-150.6047 839.5675,-141.8855"/>
<polygon fill="#191970" stroke="#191970" points="839.8711,-138.3949 829.4935,-140.5291 838.9369,-145.3323 839.8711,-138.3949"/>
</g>
<!-- Node27&#45;&gt;Node16 -->
<g id="edge48" class="edge">
<title>Node27&#45;&gt;Node16</title>
<path fill="none" stroke="#191970" d="M1017.7822,-252.4966C991.7397,-240.8282 956.7524,-225.1521 931.5953,-213.8803"/>
<polygon fill="#191970" stroke="#191970" points="932.6975,-210.539 922.1405,-209.6441 929.8352,-216.9271 932.6975,-210.539"/>
</g>
<!-- Node27&#45;&gt;Node26 -->
<g id="edge50" class="edge">
<title>Node27&#45;&gt;Node26</title>
<path fill="none" stroke="#191970" d="M1147.0758,-253.7639C1202.6164,-243.885 1266.8659,-230.1373 1291.5,-216 1320.4023,-199.4132 1344.8465,-168.7234 1358.5853,-148.9789"/>
<polygon fill="#191970" stroke="#191970" points="1361.5985,-150.7703 1364.2824,-140.521 1355.7928,-146.8596 1361.5985,-150.7703"/>
</g>
<!-- Node28&#45;&gt;Node15 -->
<g id="edge54" class="edge">
<title>Node28&#45;&gt;Node15</title>
<path fill="none" stroke="#191970" d="M832.9155,-252.4114C820.9977,-242.5728 806.107,-229.3462 794.5,-216 776.1271,-194.8742 758.8593,-167.518 748.2465,-149.5098"/>
<polygon fill="#191970" stroke="#191970" points="751.1086,-147.4678 743.0704,-140.5659 745.0501,-150.9741 751.1086,-147.4678"/>
</g>
<!-- Node28&#45;&gt;Node16 -->
<g id="edge53" class="edge">
<title>Node28&#45;&gt;Node16</title>
<path fill="none" stroke="#191970" d="M864.1689,-252.4966C870.9841,-242.2738 879.8501,-228.9749 886.9956,-218.2567"/>
<polygon fill="#191970" stroke="#191970" points="890.1024,-219.9061 892.7373,-209.6441 884.278,-216.0232 890.1024,-219.9061"/>
</g>
<!-- Node28&#45;&gt;Node23 -->
<g id="edge52" class="edge">
<title>Node28&#45;&gt;Node23</title>
<path fill="none" stroke="#191970" d="M922.3843,-252.4966C975.7696,-240.0939 1048.6449,-223.1633 1097.5269,-211.8069"/>
<polygon fill="#191970" stroke="#191970" points="1098.3254,-215.2147 1107.2739,-209.5424 1096.7413,-208.3963 1098.3254,-215.2147"/>
</g>
<!-- Node28&#45;&gt;Node26 -->
<g id="edge55" class="edge">
<title>Node28&#45;&gt;Node26</title>
<path fill="none" stroke="#191970" d="M942.0172,-253.2473C944.8767,-252.8171 947.71,-252.4001 950.5,-252 1086.9253,-232.4375 1134.4523,-276.0561 1258.5,-216 1277.169,-206.9617 1275.4499,-196.1383 1291.5,-183 1308.2239,-169.3101 1328.5635,-155.8585 1344.416,-145.999"/>
<polygon fill="#191970" stroke="#191970" points="1346.4725,-148.8437 1353.17,-140.6343 1342.8149,-142.8753 1346.4725,-148.8437"/>
</g>
<!-- Node30&#45;&gt;Node22 -->
<g id="edge61" class="edge">
<title>Node30&#45;&gt;Node22</title>
<path fill="none" stroke="#191970" d="M2194.264,-264.0605C2081.2021,-257.3011 1889.5964,-242.3481 1824.5,-216 1802.1695,-206.9616 1803.7179,-192.3118 1781.5,-183 1675.1272,-138.4181 1634.6379,-181.2399 1524.5,-147 1522.363,-146.3356 1520.1947,-145.5453 1518.0433,-144.6757"/>
<polygon fill="#191970" stroke="#191970" points="1519.4222,-141.4579 1508.8706,-140.5014 1516.5227,-147.8292 1519.4222,-141.4579"/>
</g>
<!-- Node30&#45;&gt;Node23 -->
<g id="edge63" class="edge">
<title>Node30&#45;&gt;Node23</title>
<path fill="none" stroke="#191970" d="M2194.1735,-263.2287C1991.1813,-250.8336 1483.8474,-219.8548 1259.7962,-206.1738"/>
<polygon fill="#191970" stroke="#191970" points="1259.8633,-202.6715 1249.6685,-205.5554 1259.4366,-209.6585 1259.8633,-202.6715"/>
</g>
<!-- Node30&#45;&gt;Node25 -->
<g id="edge62" class="edge">
<title>Node30&#45;&gt;Node25</title>
<path fill="none" stroke="#191970" d="M2366.5479,-260.1704C2415.7543,-253.0234 2477.6118,-239.9029 2528.5,-216 2564.8069,-198.9461 2599.9011,-167.5346 2619.7851,-147.9014"/>
<polygon fill="#191970" stroke="#191970" points="2622.3062,-150.3297 2626.8667,-140.7666 2617.338,-145.3985 2622.3062,-150.3297"/>
</g>
<!-- Node30&#45;&gt;Node26 -->
<g id="edge73" class="edge">
<title>Node30&#45;&gt;Node26</title>
<path fill="none" stroke="#191970" d="M2194.3998,-262.8765C2072.7616,-254.3451 1857.0072,-236.8935 1781.5,-216 1747.9628,-206.72 1743.8703,-192.8636 1710.5,-183 1600.3152,-150.4316 1567.802,-166.08 1454.5,-147 1446.2837,-145.6164 1437.6375,-144.0474 1429.1438,-142.4407"/>
<polygon fill="#191970" stroke="#191970" points="1429.7585,-138.9949 1419.2778,-140.5461 1428.4382,-145.8693 1429.7585,-138.9949"/>
</g>
<!-- Node30&#45;&gt;Node29 -->
<g id="edge74" class="edge">
<title>Node30&#45;&gt;Node29</title>
<path fill="none" stroke="#191970" d="M2279.9576,-258.2269C2278.4562,-240.3796 2272.8004,-203.5889 2251.5,-183 2242.3658,-174.1709 2175.8645,-155.6737 2127.7881,-143.1665"/>
<polygon fill="#191970" stroke="#191970" points="2128.3937,-139.7081 2117.836,-140.5942 2126.6419,-146.4854 2128.3937,-139.7081"/>
</g>
<!-- Node31 -->
<g id="node31" class="node">
<title>Node31</title>
<polygon fill="none" stroke="#bfbfbf" points="2161.5,-120.5 2161.5,-140.5 2313.5,-140.5 2313.5,-120.5 2161.5,-120.5"/>
<text text-anchor="middle" x="2237.5" y="-127.5" font-family="FreeSans" font-size="10.00" fill="#000000">boost/algorithm/string.hpp</text>
</g>
<!-- Node30&#45;&gt;Node31 -->
<g id="edge59" class="edge">
<title>Node30&#45;&gt;Node31</title>
<path fill="none" stroke="#191970" d="M2284.6171,-258.3108C2290.6274,-241.8153 2300.0058,-208.536 2289.5,-183 2283.5879,-168.6298 2271.6294,-156.105 2260.6695,-146.8964"/>
<polygon fill="#191970" stroke="#191970" points="2262.6174,-143.9749 2252.5999,-140.5252 2258.2797,-149.4689 2262.6174,-143.9749"/>
</g>
<!-- Node32 -->
<g id="node32" class="node">
<title>Node32</title>
<polygon fill="none" stroke="#bfbfbf" points="2332,-120.5 2332,-140.5 2389,-140.5 2389,-120.5 2332,-120.5"/>
<text text-anchor="middle" x="2360.5" y="-127.5" font-family="FreeSans" font-size="10.00" fill="#000000">iomanip</text>
</g>
<!-- Node30&#45;&gt;Node32 -->
<g id="edge60" class="edge">
<title>Node30&#45;&gt;Node32</title>
<path fill="none" stroke="#191970" d="M2286.513,-258.1276C2299.8983,-235.0379 2332.32,-179.1106 2349.4581,-149.5473"/>
<polygon fill="#191970" stroke="#191970" points="2352.6473,-151.0245 2354.6346,-140.6178 2346.5913,-147.5138 2352.6473,-151.0245"/>
</g>
<!-- Node30&#45;&gt;Node33 -->
<g id="edge64" class="edge">
<title>Node30&#45;&gt;Node33</title>
<path fill="none" stroke="#191970" d="M2257.2346,-258.4668C2229.8621,-246.6624 2184.2325,-226.9847 2153.2841,-213.6381"/>
<polygon fill="#191970" stroke="#191970" points="2154.362,-210.2914 2143.7935,-209.5453 2151.59,-216.7192 2154.362,-210.2914"/>
</g>
<!-- Node33&#45;&gt;Node4 -->
<g id="edge69" class="edge">
<title>Node33&#45;&gt;Node4</title>
<path fill="none" stroke="#191970" d="M2052.2486,-189.469C2012.4564,-181.7131 1962.2443,-168.5506 1921.5,-147 1901.7271,-136.5417 1903.8627,-123.2578 1883.5,-114 1862.5667,-104.4827 1741.5288,-89.1333 1651.1415,-78.6949"/>
<polygon fill="#191970" stroke="#191970" points="1651.4467,-75.207 1641.1124,-77.5422 1650.6474,-82.1612 1651.4467,-75.207"/>
</g>
<!-- Node33&#45;&gt;Node8 -->
<g id="edge65" class="edge">
<title>Node33&#45;&gt;Node8</title>
<path fill="none" stroke="#191970" d="M2094.855,-189.3833C2068.9089,-179.0538 2027.7119,-162.3946 1992.5,-147 1960.6165,-133.0606 1954.497,-125.0481 1921.5,-114 1862.8158,-94.3513 1792.3454,-81.0533 1747.9814,-73.8719"/>
<polygon fill="#191970" stroke="#191970" points="1748.2592,-70.3723 1737.8344,-72.2625 1747.1627,-77.2859 1748.2592,-70.3723"/>
</g>
<!-- Node33&#45;&gt;Node10 -->
<g id="edge70" class="edge">
<title>Node33&#45;&gt;Node10</title>
<path fill="none" stroke="#191970" d="M2068.88,-189.4668C2011.9692,-178.4053 1919.4886,-160.4302 1851.5723,-147.2296"/>
<polygon fill="#191970" stroke="#191970" points="1852.2214,-143.7903 1841.7373,-145.318 1850.8858,-150.6617 1852.2214,-143.7903"/>
</g>
<!-- Node33&#45;&gt;Node17 -->
<g id="edge66" class="edge">
<title>Node33&#45;&gt;Node17</title>
<path fill="none" stroke="#191970" d="M2084.3124,-189.4961C2039.89,-175.4729 1973.7724,-147.8525 2002.5,-114 2018.0297,-95.6998 2171.172,-78.4999 2245.041,-71.1907"/>
<polygon fill="#191970" stroke="#191970" points="2245.7262,-74.6405 2255.3387,-70.1851 2245.0459,-67.6737 2245.7262,-74.6405"/>
</g>
<!-- Node33&#45;&gt;Node18 -->
<g id="edge71" class="edge">
<title>Node33&#45;&gt;Node18</title>
<path fill="none" stroke="#191970" d="M2056.5776,-189.4919C1996.9204,-179.4111 1912.8289,-163.0872 1883.5,-147 1865.3143,-137.025 1869.3892,-122.5686 1850.5,-114 1823.2002,-101.6161 1423.7812,-80.7733 1240.8245,-71.8102"/>
<polygon fill="#191970" stroke="#191970" points="1240.8429,-68.307 1230.684,-71.3147 1240.5012,-75.2987 1240.8429,-68.307"/>
</g>
<!-- Node33&#45;&gt;Node29 -->
<g id="edge72" class="edge">
<title>Node33&#45;&gt;Node29</title>
<path fill="none" stroke="#191970" d="M2114.1552,-189.3188C2107.6132,-178.8212 2097.2623,-162.2116 2089.2259,-149.316"/>
<polygon fill="#191970" stroke="#191970" points="2092.1302,-147.3587 2083.8708,-140.723 2086.1894,-151.061 2092.1302,-147.3587"/>
</g>
<!-- Node33&#45;&gt;Node31 -->
<g id="edge68" class="edge">
<title>Node33&#45;&gt;Node31</title>
<path fill="none" stroke="#191970" d="M2137.5128,-189.4668C2157.009,-177.969 2189.1712,-159.0016 2211.7419,-145.6907"/>
<polygon fill="#191970" stroke="#191970" points="2213.631,-148.64 2220.4667,-140.5453 2210.075,-142.6104 2213.631,-148.64"/>
</g>
<!-- Node34 -->
<g id="node34" class="node">
<title>Node34</title>
<polygon fill="none" stroke="#bfbfbf" points="2973.5,-120.5 2973.5,-140.5 3043.5,-140.5 3043.5,-120.5 2973.5,-120.5"/>
<text text-anchor="middle" x="3008.5" y="-127.5" font-family="FreeSans" font-size="10.00" fill="#000000">type_traits</text>
</g>
<!-- Node33&#45;&gt;Node34 -->
<g id="edge67" class="edge">
<title>Node33&#45;&gt;Node34</title>
<path fill="none" stroke="#191970" d="M2209.5348,-193.5774C2404.6465,-180.576 2855.2433,-150.4191 2888.5,-147 2913.3529,-144.4449 2940.9828,-140.7078 2963.4596,-137.4359"/>
<polygon fill="#191970" stroke="#191970" points="2964.013,-140.8923 2973.3957,-135.9713 2962.9922,-133.9671 2964.013,-140.8923"/>
</g>
<!-- Node35&#45;&gt;Node4 -->
<g id="edge78" class="edge">
<title>Node35&#45;&gt;Node4</title>
<path fill="none" stroke="#191970" d="M1833.9346,-185.0061C1770.6868,-171.7963 1685.5932,-153.3991 1670.5,-147 1632.1277,-130.7312 1592.6999,-102.1841 1569.6827,-84.0899"/>
<polygon fill="#191970" stroke="#191970" points="1571.6988,-81.2209 1561.7011,-77.7144 1567.33,-86.6902 1571.6988,-81.2209"/>
</g>
<!-- Node35&#45;&gt;Node8 -->
<g id="edge77" class="edge">
<title>Node35&#45;&gt;Node8</title>
<path fill="none" stroke="#191970" d="M1833.9129,-185.1534C1770.1117,-171.8489 1685.4161,-153.2015 1680.5,-147 1666.3905,-129.2012 1678.7354,-103.202 1690.3186,-85.8356"/>
<polygon fill="#191970" stroke="#191970" points="1693.2122,-87.806 1696.1623,-77.6302 1687.5104,-83.7453 1693.2122,-87.806"/>
</g>
<!-- Node35&#45;&gt;Node10 -->
<g id="edge79" class="edge">
<title>Node35&#45;&gt;Node10</title>
<path fill="none" stroke="#191970" d="M1872.2612,-183.4966C1852.8399,-173.8558 1827.907,-161.479 1807.0209,-151.1111"/>
<polygon fill="#191970" stroke="#191970" points="1808.5588,-147.9671 1798.0454,-146.6557 1805.4463,-154.237 1808.5588,-147.9671"/>
</g>
<!-- Node35&#45;&gt;Node18 -->
<g id="edge81" class="edge">
<title>Node35&#45;&gt;Node18</title>
<path fill="none" stroke="#191970" d="M1833.5615,-185.6045C1828.805,-184.7114 1824.0845,-183.8359 1819.5,-183 1725.9102,-165.9346 1699.9251,-173.3008 1608.5,-147 1571.5373,-136.3667 1565.7004,-123.7695 1528.5,-114 1432.1049,-88.685 1318.1779,-77.06 1240.7832,-71.7801"/>
<polygon fill="#191970" stroke="#191970" points="1240.7933,-68.2732 1230.5844,-71.1066 1240.332,-75.258 1240.7933,-68.2732"/>
</g>
<!-- Node35&#45;&gt;Node26 -->
<g id="edge80" class="edge">
<title>Node35&#45;&gt;Node26</title>
<path fill="none" stroke="#191970" d="M1833.9647,-189.7459C1816.8067,-187.4539 1798.5024,-185.076 1781.5,-183 1636.3665,-165.279 1599.03,-169.1104 1454.5,-147 1445.8541,-145.6773 1436.744,-144.0908 1427.8402,-142.4316"/>
<polygon fill="#191970" stroke="#191970" points="1428.3896,-138.9734 1417.9108,-140.5376 1427.0779,-145.8494 1428.3896,-138.9734"/>
</g>
<!-- Node36&#45;&gt;Node22 -->
<g id="edge83" class="edge">
<title>Node36&#45;&gt;Node22</title>
<path fill="none" stroke="#191970" d="M1582.7118,-189.3188C1565.0895,-177.9549 1536.3603,-159.4286 1515.8539,-146.2049"/>
<polygon fill="#191970" stroke="#191970" points="1517.654,-143.201 1507.353,-140.723 1513.8603,-149.0839 1517.654,-143.201"/>
</g>
<!-- Node36&#45;&gt;Node26 -->
<g id="edge84" class="edge">
<title>Node36&#45;&gt;Node26</title>
<path fill="none" stroke="#191970" d="M1565.3468,-189.4668C1525.159,-177.3047 1457.3543,-156.7848 1413.267,-143.4426"/>
<polygon fill="#191970" stroke="#191970" points="1414.2783,-140.092 1403.6932,-140.5453 1412.2507,-146.7919 1414.2783,-140.092"/>
</g>
<!-- Node37&#45;&gt;Node22 -->
<g id="edge86" class="edge">
<title>Node37&#45;&gt;Node22</title>
<path fill="none" stroke="#191970" d="M1354.6241,-258.1276C1379.9253,-234.5359 1441.9914,-176.6634 1473.0994,-147.6573"/>
<polygon fill="#191970" stroke="#191970" points="1475.7221,-149.9973 1480.6491,-140.6178 1470.9483,-144.8776 1475.7221,-149.9973"/>
</g>
<!-- Node37&#45;&gt;Node23 -->
<g id="edge87" class="edge">
<title>Node37&#45;&gt;Node23</title>
<path fill="none" stroke="#191970" d="M1315.4361,-258.4668C1281.8463,-246.458 1225.4646,-226.3008 1188.1226,-212.9506"/>
<polygon fill="#191970" stroke="#191970" points="1189.1923,-209.6161 1178.5977,-209.5453 1186.8358,-216.2075 1189.1923,-209.6161"/>
</g>
<!-- Node38&#45;&gt;Node8 -->
<g id="edge91" class="edge">
<title>Node38&#45;&gt;Node8</title>
<path fill="none" stroke="#191970" d="M2446.7211,-189.3867C2441.0063,-170.75 2426.0126,-131.3126 2397.5,-114 2342.0694,-80.3431 1890.4657,-70.4162 1747.6369,-68.1039"/>
<polygon fill="#191970" stroke="#191970" points="1747.5591,-64.6023 1737.5052,-67.9443 1747.4488,-71.6014 1747.5591,-64.6023"/>
</g>
<!-- Node38&#45;&gt;Node17 -->
<g id="edge94" class="edge">
<title>Node38&#45;&gt;Node17</title>
<path fill="none" stroke="#191970" d="M2485.1214,-189.3873C2528.8437,-175.2421 2593.8997,-147.4855 2565.5,-114 2550.0291,-95.7585 2397.428,-78.5286 2323.8197,-71.2012"/>
<polygon fill="#191970" stroke="#191970" points="2323.8527,-67.6877 2313.5584,-70.193 2323.1682,-74.6541 2323.8527,-67.6877"/>
</g>
<!-- Node38&#45;&gt;Node20 -->
<g id="edge93" class="edge">
<title>Node38&#45;&gt;Node20</title>
<path fill="none" stroke="#191970" d="M2379.2935,-193.5935C2333.539,-189.9645 2272.5179,-185.5388 2218.5,-183 1511.9878,-149.7939 1331.8827,-211.0874 627.5,-147 606.6522,-145.1032 583.6312,-141.5552 564.6502,-138.2339"/>
<polygon fill="#191970" stroke="#191970" points="565.0211,-134.7447 554.5603,-136.424 563.7852,-141.6347 565.0211,-134.7447"/>
</g>
<!-- Node38&#45;&gt;Node22 -->
<g id="edge95" class="edge">
<title>Node38&#45;&gt;Node22</title>
<path fill="none" stroke="#191970" d="M2379.2467,-194.3996C2333.4732,-191.0968 2272.4486,-186.7317 2218.5,-183 1979.4254,-166.4629 1919.4367,-165.422 1680.5,-147 1628.2693,-142.973 1567.9869,-137.581 1529.8177,-134.0745"/>
<polygon fill="#191970" stroke="#191970" points="1529.9427,-130.5712 1519.6635,-133.1381 1529.2999,-137.5417 1529.9427,-130.5712"/>
</g>
<!-- Node38&#45;&gt;Node25 -->
<g id="edge96" class="edge">
<title>Node38&#45;&gt;Node25</title>
<path fill="none" stroke="#191970" d="M2480.5145,-189.4794C2511.0414,-179.4212 2558.8573,-163.1426 2599.5,-147 2601.363,-146.2601 2603.2697,-145.4804 2605.1874,-144.679"/>
<polygon fill="#191970" stroke="#191970" points="2606.9158,-147.7454 2614.7149,-140.5743 2604.1461,-141.3166 2606.9158,-147.7454"/>
</g>
<!-- Node38&#45;&gt;Node32 -->
<g id="edge92" class="edge">
<title>Node38&#45;&gt;Node32</title>
<path fill="none" stroke="#191970" d="M2436.3677,-189.3188C2422.0386,-178.2097 2398.8807,-160.2558 2381.9144,-147.1022"/>
<polygon fill="#191970" stroke="#191970" points="2383.7337,-144.084 2373.6861,-140.723 2379.4447,-149.6162 2383.7337,-144.084"/>
</g>
<!-- Node39 -->
<g id="node39" class="node">
<title>Node39</title>
<polygon fill="none" stroke="#bfbfbf" points="2445.5,-120.5 2445.5,-140.5 2489.5,-140.5 2489.5,-120.5 2445.5,-120.5"/>
<text text-anchor="middle" x="2467.5" y="-127.5" font-family="FreeSans" font-size="10.00" fill="#000000">ctime</text>
</g>
<!-- Node38&#45;&gt;Node39 -->
<g id="edge90" class="edge">
<title>Node38&#45;&gt;Node39</title>
<path fill="none" stroke="#191970" d="M2452.156,-189.3188C2454.8147,-179.1269 2458.9764,-163.174 2462.2951,-150.4521"/>
<polygon fill="#191970" stroke="#191970" points="2465.6955,-151.2826 2464.8331,-140.723 2458.9222,-149.5156 2465.6955,-151.2826"/>
</g>
<!-- Node40 -->
<g id="node40" class="node">
<title>Node40</title>
<polygon fill="none" stroke="#bfbfbf" points="2508,-120.5 2508,-140.5 2557,-140.5 2557,-120.5 2508,-120.5"/>
<text text-anchor="middle" x="2532.5" y="-127.5" font-family="FreeSans" font-size="10.00" fill="#000000">thread</text>
</g>
<!-- Node38&#45;&gt;Node40 -->
<g id="edge97" class="edge">
<title>Node38&#45;&gt;Node40</title>
<path fill="none" stroke="#191970" d="M2461.7469,-189.3188C2474.9875,-178.3116 2496.3112,-160.5846 2512.0923,-147.4654"/>
<polygon fill="#191970" stroke="#191970" points="2514.7505,-149.8072 2520.2028,-140.723 2510.2755,-144.4243 2514.7505,-149.8072"/>
</g>
<!-- Node43&#45;&gt;Node17 -->
<g id="edge104" class="edge">
<title>Node43&#45;&gt;Node17</title>
<path fill="none" stroke="#191970" d="M2733.496,-258.3987C2799.9309,-235.2508 2945.543,-175.6034 2888.5,-114 2869.259,-93.2207 2454.7243,-74.4864 2323.7753,-69.0687"/>
<polygon fill="#191970" stroke="#191970" points="2323.9092,-65.5713 2313.774,-68.6581 2323.6219,-72.5654 2323.9092,-65.5713"/>
</g>
<!-- Node43&#45;&gt;Node25 -->
<g id="edge105" class="edge">
<title>Node43&#45;&gt;Node25</title>
<path fill="none" stroke="#191970" d="M2663.5179,-258.3301C2642.075,-250.5265 2617.2906,-237.3625 2604.5,-216 2591.4858,-194.2641 2607.1991,-166.3383 2620.8393,-148.4264"/>
<polygon fill="#191970" stroke="#191970" points="2623.6736,-150.4875 2627.2339,-140.5088 2618.2279,-146.0893 2623.6736,-150.4875"/>
</g>
<!-- Node43&#45;&gt;Node38 -->
<g id="edge103" class="edge">
<title>Node43&#45;&gt;Node38</title>
<path fill="none" stroke="#191970" d="M2665.7116,-258.4668C2620.8362,-246.2281 2544.9281,-225.5259 2496.0345,-212.1912"/>
<polygon fill="#191970" stroke="#191970" points="2496.9014,-208.7999 2486.3328,-209.5453 2495.0595,-215.5532 2496.9014,-208.7999"/>
</g>
<!-- Node44 -->
<g id="node44" class="node">
<title>Node44</title>
<g id="a_node44"><a xlink:href="../../d3/d98/IAlgorithm_8hpp.html" target="_top" xlink:title="ACTFW/Framework/IAlgorithm.hpp">
<polygon fill="none" stroke="#ff0000" points="2613.5,-189.5 2613.5,-209.5 2803.5,-209.5 2803.5,-189.5 2613.5,-189.5"/>
<text text-anchor="middle" x="2708.5" y="-196.5" font-family="FreeSans" font-size="10.00" fill="#000000">ACTFW/Framework/IAlgorithm.hpp</text>
</a>
</g>
</g>
<!-- Node43&#45;&gt;Node44 -->
<g id="edge106" class="edge">
<title>Node43&#45;&gt;Node44</title>
<path fill="none" stroke="#191970" d="M2703.3853,-258.3188C2704.2627,-248.2289 2705.6311,-232.4925 2706.7318,-219.8347"/>
<polygon fill="#191970" stroke="#191970" points="2710.2315,-219.9886 2707.611,-209.723 2703.2578,-219.3821 2710.2315,-219.9886"/>
</g>
<!-- Node45 -->
<g id="node45" class="node">
<title>Node45</title>
<g id="a_node45"><a xlink:href="../../d1/d06/ProcessCode_8hpp.html" target="_top" xlink:title="ACTFW/Framework/ProcessCode.hpp">
<polygon fill="none" stroke="#000000" points="2677.5,-120.5 2677.5,-140.5 2879.5,-140.5 2879.5,-120.5 2677.5,-120.5"/>
<text text-anchor="middle" x="2778.5" y="-127.5" font-family="FreeSans" font-size="10.00" fill="#000000">ACTFW/Framework/ProcessCode.hpp</text>
</a>
</g>
</g>
<!-- Node43&#45;&gt;Node45 -->
<g id="edge109" class="edge">
<title>Node43&#45;&gt;Node45</title>
<path fill="none" stroke="#191970" d="M2749.76,-258.4461C2772.8886,-250.888 2798.6703,-237.9246 2812.5,-216 2826.1227,-194.4035 2809.4783,-166.4431 2795.0528,-148.4855"/>
<polygon fill="#191970" stroke="#191970" points="2797.4397,-145.8899 2788.2918,-140.5452 2792.11,-150.4281 2797.4397,-145.8899"/>
</g>
<!-- Node44&#45;&gt;Node25 -->
<g id="edge107" class="edge">
<title>Node44&#45;&gt;Node25</title>
<path fill="none" stroke="#191970" d="M2697.8762,-189.3188C2686.4967,-178.4135 2668.2346,-160.9123 2654.5845,-147.831"/>
<polygon fill="#191970" stroke="#191970" points="2656.809,-145.1151 2647.1674,-140.723 2651.9657,-150.169 2656.809,-145.1151"/>
</g>
<!-- Node44&#45;&gt;Node45 -->
<g id="edge108" class="edge">
<title>Node44&#45;&gt;Node45</title>
<path fill="none" stroke="#191970" d="M2718.8287,-189.3188C2729.8921,-178.4135 2747.6469,-160.9123 2760.9178,-147.831"/>
<polygon fill="#191970" stroke="#191970" points="2763.4641,-150.2356 2768.1289,-140.723 2758.5501,-145.2504 2763.4641,-150.2356"/>
</g>
<!-- Node46&#45;&gt;Node6 -->
<g id="edge112" class="edge">
<title>Node46&#45;&gt;Node6</title>
<path fill="none" stroke="#191970" d="M104.0933,-183.4966C101.392,-173.6869 97.9108,-161.0445 95.026,-150.5681"/>
<polygon fill="#191970" stroke="#191970" points="98.3226,-149.3561 92.2933,-140.6441 91.5738,-151.2145 98.3226,-149.3561"/>
</g>
<!-- Node46&#45;&gt;Node24 -->
<g id="edge111" class="edge">
<title>Node46&#45;&gt;Node24</title>
<path fill="none" stroke="#191970" d="M179.2595,-190.0458C228.6352,-182.0538 295.4593,-168.4165 351.5,-147 352.8866,-146.4701 354.2861,-145.881 355.6821,-145.2498"/>
<polygon fill="#191970" stroke="#191970" points="357.3583,-148.3238 364.6694,-140.6558 354.1722,-142.0909 357.3583,-148.3238"/>
</g>
<!-- Node48&#45;&gt;Node13 -->
<g id="edge123" class="edge">
<title>Node48&#45;&gt;Node13</title>
<path fill="none" stroke="#191970" d="M3157.0993,-258.475C3099.6224,-225.449 2917.8335,-121.7248 2888.5,-114 2692.1548,-62.2935 1264.4705,-83.2884 1061.5,-78 956.3666,-75.2608 832.0795,-70.9258 772.6206,-68.7843"/>
<polygon fill="#191970" stroke="#191970" points="772.4119,-65.2745 762.2919,-68.4108 772.1589,-72.27 772.4119,-65.2745"/>
</g>
<!-- Node48&#45;&gt;Node17 -->
<g id="edge117" class="edge">
<title>Node48&#45;&gt;Node17</title>
<path fill="none" stroke="#191970" d="M3163.9038,-258.4449C3153.7997,-248.4245 3138.6581,-232.2301 3128.5,-216 3102.3992,-174.2975 3125.6853,-142.3811 3085.5,-114 3054.0789,-91.8087 2480.3521,-73.2884 2323.7222,-68.6299"/>
<polygon fill="#191970" stroke="#191970" points="2323.6968,-65.1277 2313.5978,-68.3308 2323.4901,-72.1246 2323.6968,-65.1277"/>
</g>
<!-- Node48&#45;&gt;Node25 -->
<g id="edge119" class="edge">
<title>Node48&#45;&gt;Node25</title>
<path fill="none" stroke="#191970" d="M3098.0848,-258.4932C3041.0123,-249.995 2961.4717,-235.9723 2893.5,-216 2856.2037,-205.0411 2849.4491,-195.0778 2812.5,-183 2749.7952,-162.5034 2730.2286,-170.2718 2668.5,-147 2666.8916,-146.3936 2665.2595,-145.7271 2663.6273,-145.0204"/>
<polygon fill="#191970" stroke="#191970" points="2664.9793,-141.7881 2654.4434,-140.6718 2661.9836,-148.1147 2664.9793,-141.7881"/>
</g>
<!-- Node48&#45;&gt;Node34 -->
<g id="edge120" class="edge">
<title>Node48&#45;&gt;Node34</title>
<path fill="none" stroke="#191970" d="M3224.5496,-258.4781C3277.7282,-245.623 3350.1176,-220.4223 3318.5,-183 3301.5871,-162.982 3135.6069,-143.4542 3053.7201,-134.9456"/>
<polygon fill="#191970" stroke="#191970" points="3053.9984,-131.4559 3043.693,-133.9152 3053.2827,-138.4192 3053.9984,-131.4559"/>
</g>
<!-- Node48&#45;&gt;Node38 -->
<g id="edge116" class="edge">
<title>Node48&#45;&gt;Node38</title>
<path fill="none" stroke="#191970" d="M3075.8602,-259.8431C2962.1822,-249.767 2769.7717,-232.4071 2604.5,-216 2580.2299,-213.5906 2553.8377,-210.8327 2529.8257,-208.2702"/>
<polygon fill="#191970" stroke="#191970" points="2530.0095,-204.77 2519.6937,-207.1856 2529.2643,-211.7302 2530.0095,-204.77"/>
</g>
<!-- Node48&#45;&gt;Node47 -->
<g id="edge118" class="edge">
<title>Node48&#45;&gt;Node47</title>
<path fill="none" stroke="#191970" d="M3210.2563,-258.4544C3246.1208,-248.247 3302.86,-231.7409 3351.5,-216 3354.4492,-215.0456 3357.4939,-214.035 3360.5495,-213.0026"/>
<polygon fill="#191970" stroke="#191970" points="3361.9224,-216.2318 3370.2433,-209.6733 3359.6486,-209.6114 3361.9224,-216.2318"/>
</g>
<!-- Node49 -->
<g id="node49" class="node">
<title>Node49</title>
<polygon fill="none" stroke="#bfbfbf" points="3137.5,-189.5 3137.5,-209.5 3195.5,-209.5 3195.5,-189.5 3137.5,-189.5"/>
<text text-anchor="middle" x="3166.5" y="-196.5" font-family="FreeSans" font-size="10.00" fill="#000000">typeinfo</text>
</g>
<!-- Node48&#45;&gt;Node49 -->
<g id="edge121" class="edge">
<title>Node48&#45;&gt;Node49</title>
<path fill="none" stroke="#191970" d="M3173.3196,-258.3188C3172.1497,-248.2289 3170.3252,-232.4925 3168.8576,-219.8347"/>
<polygon fill="#191970" stroke="#191970" points="3172.3138,-219.2533 3167.6853,-209.723 3165.3604,-220.0595 3172.3138,-219.2533"/>
</g>
<!-- Node50 -->
<g id="node50" class="node">
<title>Node50</title>
<polygon fill="none" stroke="#bfbfbf" points="3213.5,-189.5 3213.5,-209.5 3309.5,-209.5 3309.5,-189.5 3213.5,-189.5"/>
<text text-anchor="middle" x="3261.5" y="-196.5" font-family="FreeSans" font-size="10.00" fill="#000000">unordered_map</text>
</g>
<!-- Node48&#45;&gt;Node50 -->
<g id="edge122" class="edge">
<title>Node48&#45;&gt;Node50</title>
<path fill="none" stroke="#191970" d="M3187.3371,-258.3188C3201.3443,-247.2097 3223.9818,-229.2558 3240.5668,-216.1022"/>
<polygon fill="#191970" stroke="#191970" points="3242.9501,-218.6792 3248.6102,-209.723 3238.6003,-213.1947 3242.9501,-218.6792"/>
</g>
</g>
</svg>
