<?xml version="1.0" encoding="UTF-8" standalone="no"?>
<!DOCTYPE svg PUBLIC "-//W3C//DTD SVG 1.1//EN"
 "http://www.w3.org/Graphics/SVG/1.1/DTD/svg11.dtd">
<!-- Generated by graphviz version 2.40.1 (20161225.0304)
 -->
<!-- Title: PHG4BlockCellGeom::check_binning_method_eta Pages: 1 -->
<svg width="325pt" height="80pt"
 viewBox="0.00 0.00 325.00 80.00" xmlns="http://www.w3.org/2000/svg" xmlns:xlink="http://www.w3.org/1999/xlink">
<g id="graph0" class="graph" transform="scale(1 1) rotate(0) translate(4 76)">
<title>PHG4BlockCellGeom::check_binning_method_eta</title>
<!-- Node1 -->
<g id="node1" class="node">
<title>Node1</title>
<polygon fill="#bfbfbf" stroke="#000000" points="0,-22.5 0,-54.5 154,-54.5 154,-22.5 0,-22.5"/>
<text text-anchor="start" x="8" y="-41.5" font-family="FreeSans" font-size="10.00" fill="#000000">PHG4BlockCellGeom::</text>
<text text-anchor="middle" x="77" y="-29.5" font-family="FreeSans" font-size="10.00" fill="#000000">check_binning_method_eta</text>
</g>
<!-- Node2 -->
<g id="node2" class="node">
<title>Node2</title>
<g id="a_node2"><a xlink:href="../../df/de8/cemc_8C.html#adf5c804dfce7a70e36dda02995fad481" target="_top" xlink:title="exit">
<polygon fill="none" stroke="#000000" points="236,-51.5 236,-71.5 271,-71.5 271,-51.5 236,-51.5"/>
<text text-anchor="middle" x="253.5" y="-58.5" font-family="FreeSans" font-size="10.00" fill="#000000">exit</text>
</a>
</g>
</g>
<!-- Node1&#45;&gt;Node2 -->
<g id="edge1" class="edge">
<title>Node1&#45;&gt;Node2</title>
<path fill="none" stroke="#191970" d="M154.1587,-48.5547C179.5556,-51.8642 206.1975,-55.3359 225.4908,-57.8501"/>
<polygon fill="#191970" stroke="#191970" points="225.2985,-61.3545 235.6669,-59.1761 226.2031,-54.4132 225.2985,-61.3545"/>
</g>
<!-- Node3 -->
<g id="node3" class="node">
<title>Node3</title>
<g id="a_node3"><a xlink:href="../../d1/dd7/classPHG4BlockCellGeom.html#aae9a78950e6844001da0ce7ae4b0ae77" target="_top" xlink:title="PHG4BlockCellGeom::\lmethodname">
<polygon fill="none" stroke="#000000" points="190,-.5 190,-32.5 317,-32.5 317,-.5 190,-.5"/>
<text text-anchor="start" x="198" y="-19.5" font-family="FreeSans" font-size="10.00" fill="#000000">PHG4BlockCellGeom::</text>
<text text-anchor="middle" x="253.5" y="-7.5" font-family="FreeSans" font-size="10.00" fill="#000000">methodname</text>
</a>
</g>
</g>
<!-- Node1&#45;&gt;Node3 -->
<g id="edge2" class="edge">
<title>Node1&#45;&gt;Node3</title>
<path fill="none" stroke="#191970" d="M154.1587,-28.8825C162.7594,-27.8104 171.5028,-26.7206 180.0553,-25.6546"/>
<polygon fill="#191970" stroke="#191970" points="180.4972,-29.1267 189.9874,-24.4166 179.6313,-22.1804 180.4972,-29.1267"/>
</g>
</g>
</svg>
