<?xml version="1.0" encoding="UTF-8" standalone="no"?>
<!DOCTYPE svg PUBLIC "-//W3C//DTD SVG 1.1//EN"
 "http://www.w3.org/Graphics/SVG/1.1/DTD/svg11.dtd">
<!-- Generated by graphviz version 2.40.1 (20161225.0304)
 -->
<!-- Title: pyhiwidt Pages: 1 -->
<svg width="538pt" height="185pt"
 viewBox="0.00 0.00 538.00 185.00" xmlns="http://www.w3.org/2000/svg" xmlns:xlink="http://www.w3.org/1999/xlink">
<g id="graph0" class="graph" transform="scale(1 1) rotate(0) translate(4 181)">
<title>pyhiwidt</title>
<!-- Node1 -->
<g id="node1" class="node">
<title>Node1</title>
<polygon fill="#bfbfbf" stroke="#000000" points="0,-78.5 0,-98.5 60,-98.5 60,-78.5 0,-78.5"/>
<text text-anchor="middle" x="30" y="-85.5" font-family="FreeSans" font-size="10.00" fill="#000000">pyhiwidt</text>
</g>
<!-- Node2 -->
<g id="node2" class="node">
<title>Node2</title>
<g id="a_node2"><a xlink:href="../../de/dd7/exceptiondfe_1_1Variable.html#ad546b80a148ce91384638a73e6293e3f" target="_top" xlink:title="dfe::Variable::as">
<polygon fill="none" stroke="#000000" points="96,-156.5 96,-176.5 195,-176.5 195,-156.5 96,-156.5"/>
<text text-anchor="middle" x="145.5" y="-163.5" font-family="FreeSans" font-size="10.00" fill="#000000">dfe::Variable::as</text>
</a>
</g>
</g>
<!-- Node1&#45;&gt;Node2 -->
<g id="edge1" class="edge">
<title>Node1&#45;&gt;Node2</title>
<path fill="none" stroke="#191970" d="M39.3663,-98.94C51.3986,-111.8288 73.4355,-133.7283 96,-147.5 98.7893,-149.2024 101.7569,-150.798 104.7997,-152.2837"/>
<polygon fill="#191970" stroke="#191970" points="103.492,-155.5327 114.0506,-156.408 106.3424,-149.1393 103.492,-155.5327"/>
</g>
<!-- Node3 -->
<g id="node3" class="node">
<title>Node3</title>
<g id="a_node3"><a xlink:href="../../d3/dd5/jewel-2_82_80_8f.html#a128c80a01e220038eb138a985885083a" target="_top" xlink:title="ei">
<polygon fill="none" stroke="#000000" points="131,-117.5 131,-137.5 160,-137.5 160,-117.5 131,-117.5"/>
<text text-anchor="middle" x="145.5" y="-124.5" font-family="FreeSans" font-size="10.00" fill="#000000">ei</text>
</a>
</g>
</g>
<!-- Node1&#45;&gt;Node3 -->
<g id="edge2" class="edge">
<title>Node1&#45;&gt;Node3</title>
<path fill="none" stroke="#191970" d="M59.7441,-98.5435C78.8529,-104.9958 103.3594,-113.2707 121.2778,-119.3211"/>
<polygon fill="#191970" stroke="#191970" points="120.3818,-122.7126 130.976,-122.5958 122.6213,-116.0805 120.3818,-122.7126"/>
</g>
<!-- Node5 -->
<g id="node5" class="node">
<title>Node5</title>
<g id="a_node5"><a xlink:href="../../d4/d3e/classActs_1_1Logger.html#aee9e687247532b5175713e66b2d2121e" target="_top" xlink:title="create output stream object with internal cache">
<polygon fill="none" stroke="#000000" points="236,-36.5 236,-56.5 338,-56.5 338,-36.5 236,-36.5"/>
<text text-anchor="middle" x="287" y="-43.5" font-family="FreeSans" font-size="10.00" fill="#000000">Acts::Logger::log</text>
</a>
</g>
</g>
<!-- Node1&#45;&gt;Node5 -->
<g id="edge4" class="edge">
<title>Node1&#45;&gt;Node5</title>
<path fill="none" stroke="#191970" d="M60.2824,-86.2046C93.5093,-83.4095 148.331,-77.9833 195,-69.5 210.2669,-66.7248 226.7625,-62.8756 241.5127,-59.1193"/>
<polygon fill="#191970" stroke="#191970" points="242.6105,-62.4503 251.409,-56.5479 240.8501,-55.6753 242.6105,-62.4503"/>
</g>
<!-- Node7 -->
<g id="node7" class="node">
<title>Node7</title>
<g id="a_node7"><a xlink:href="../../da/d0a/CylinderKalman_8cpp.html#ab74daa0c9784c63e060bfb98cc06fbf5" target="_top" xlink:title="sign">
<polygon fill="none" stroke="#000000" points="127,-39.5 127,-59.5 164,-59.5 164,-39.5 127,-39.5"/>
<text text-anchor="middle" x="145.5" y="-46.5" font-family="FreeSans" font-size="10.00" fill="#000000">sign</text>
</a>
</g>
</g>
<!-- Node1&#45;&gt;Node7 -->
<g id="edge6" class="edge">
<title>Node1&#45;&gt;Node7</title>
<path fill="none" stroke="#191970" d="M59.7441,-78.4565C77.4002,-72.4947 99.6645,-64.9769 117.0822,-59.0956"/>
<polygon fill="#191970" stroke="#191970" points="118.3513,-62.3613 126.706,-55.846 116.1118,-55.7292 118.3513,-62.3613"/>
</g>
<!-- Node8 -->
<g id="node8" class="node">
<title>Node8</title>
<g id="a_node8"><a xlink:href="../../dd/da4/ulalps_8f.html#ab97912b68e33a5152f0271fc0dbc311d" target="_top" xlink:title="ulalps">
<polygon fill="none" stroke="#000000" points="122.5,-.5 122.5,-20.5 168.5,-20.5 168.5,-.5 122.5,-.5"/>
<text text-anchor="middle" x="145.5" y="-7.5" font-family="FreeSans" font-size="10.00" fill="#000000">ulalps</text>
</a>
</g>
</g>
<!-- Node1&#45;&gt;Node8 -->
<g id="edge7" class="edge">
<title>Node1&#45;&gt;Node8</title>
<path fill="none" stroke="#191970" d="M39.3663,-78.06C51.3986,-65.1712 73.4355,-43.2717 96,-29.5 101.1846,-26.3357 106.9851,-23.5404 112.7395,-21.134"/>
<polygon fill="#191970" stroke="#191970" points="114.1965,-24.3233 122.2635,-17.4549 111.6741,-17.7935 114.1965,-24.3233"/>
</g>
<!-- Node4 -->
<g id="node4" class="node">
<title>Node4</title>
<g id="a_node4"><a xlink:href="../../dc/db0/classActs_1_1IVisualization.html#a9e155efef029673b4b9830ef5dfc1af3" target="_top" xlink:title="Acts::IVisualization\l::line">
<polygon fill="none" stroke="#000000" points="231,-111.5 231,-143.5 343,-143.5 343,-111.5 231,-111.5"/>
<text text-anchor="start" x="239" y="-130.5" font-family="FreeSans" font-size="10.00" fill="#000000">Acts::IVisualization</text>
<text text-anchor="middle" x="287" y="-118.5" font-family="FreeSans" font-size="10.00" fill="#000000">::line</text>
</a>
</g>
</g>
<!-- Node3&#45;&gt;Node4 -->
<g id="edge3" class="edge">
<title>Node3&#45;&gt;Node4</title>
<path fill="none" stroke="#191970" d="M160.11,-127.5C174.6877,-127.5 198.14,-127.5 220.9399,-127.5"/>
<polygon fill="#191970" stroke="#191970" points="220.9882,-131.0001 230.9881,-127.5 220.9881,-124.0001 220.9882,-131.0001"/>
</g>
<!-- Node6 -->
<g id="node6" class="node">
<title>Node6</title>
<g id="a_node6"><a xlink:href="../../df/dce/classActs_1_1Logging_1_1OutputPrintPolicy.html#ab113823970013e1e7f310b36509136ac" target="_top" xlink:title="handle output of debug message">
<polygon fill="none" stroke="#000000" points="379,-30.5 379,-62.5 530,-62.5 530,-30.5 379,-30.5"/>
<text text-anchor="start" x="387" y="-49.5" font-family="FreeSans" font-size="10.00" fill="#000000">Acts::Logging::OutputPrint</text>
<text text-anchor="middle" x="454.5" y="-37.5" font-family="FreeSans" font-size="10.00" fill="#000000">Policy::flush</text>
</a>
</g>
</g>
<!-- Node5&#45;&gt;Node6 -->
<g id="edge5" class="edge">
<title>Node5&#45;&gt;Node6</title>
<path fill="none" stroke="#191970" d="M338.1657,-46.5C347.9353,-46.5 358.4058,-46.5 368.9149,-46.5"/>
<polygon fill="#191970" stroke="#191970" points="368.9808,-50.0001 378.9808,-46.5 368.9807,-43.0001 368.9808,-50.0001"/>
</g>
<!-- Node8&#45;&gt;Node5 -->
<g id="edge8" class="edge">
<title>Node8&#45;&gt;Node5</title>
<path fill="none" stroke="#191970" d="M168.5493,-16.3641C187.2561,-21.1235 214.2908,-28.0015 237.8107,-33.9854"/>
<polygon fill="#191970" stroke="#191970" points="237.0866,-37.4126 247.6409,-36.4864 238.8126,-30.6287 237.0866,-37.4126"/>
</g>
</g>
</svg>
