<?xml version="1.0" encoding="UTF-8" standalone="no"?>
<!DOCTYPE svg PUBLIC "-//W3C//DTD SVG 1.1//EN"
 "http://www.w3.org/Graphics/SVG/1.1/DTD/svg11.dtd">
<!-- Generated by graphviz version 2.40.1 (20161225.0304)
 -->
<!-- Title: online_distribution/blob/master/newbasic/eventcombiner.cc Pages: 1 -->
<svg width="1674pt" height="509pt"
 viewBox="0.00 0.00 1674.00 509.00" xmlns="http://www.w3.org/2000/svg" xmlns:xlink="http://www.w3.org/1999/xlink">
<g id="graph0" class="graph" transform="scale(1 1) rotate(0) translate(4 505)">
<title>online_distribution/blob/master/newbasic/eventcombiner.cc</title>
<!-- Node1 -->
<g id="node1" class="node">
<title>Node1</title>
<polygon fill="#bfbfbf" stroke="#000000" points="1073,-456.5 1073,-500.5 1205,-500.5 1205,-456.5 1073,-456.5"/>
<text text-anchor="start" x="1081" y="-487.5" font-family="FreeSans" font-size="10.00" fill="#000000">online_distribution</text>
<text text-anchor="start" x="1081" y="-475.5" font-family="FreeSans" font-size="10.00" fill="#000000">/blob/master/newbasic</text>
<text text-anchor="middle" x="1139" y="-463.5" font-family="FreeSans" font-size="10.00" fill="#000000">/eventcombiner.cc</text>
</g>
<!-- Node2 -->
<g id="node2" class="node">
<title>Node2</title>
<g id="a_node2"><a xlink:href="../../d1/d35/fileEventiterator_8h.html" target="_top" xlink:title="fileEventiterator.h">
<polygon fill="none" stroke="#000000" points="479,-399.5 479,-419.5 585,-419.5 585,-399.5 479,-399.5"/>
<text text-anchor="middle" x="532" y="-406.5" font-family="FreeSans" font-size="10.00" fill="#000000">fileEventiterator.h</text>
</a>
</g>
</g>
<!-- Node1&#45;&gt;Node2 -->
<g id="edge1" class="edge">
<title>Node1&#45;&gt;Node2</title>
<path fill="none" stroke="#191970" d="M1072.8849,-470.9844C955.219,-457.6089 710.9917,-429.8467 595.3452,-416.7007"/>
<polygon fill="#191970" stroke="#191970" points="595.5639,-413.2031 585.2326,-415.5512 594.7733,-420.1583 595.5639,-413.2031"/>
</g>
<!-- Node16 -->
<g id="node16" class="node">
<title>Node16</title>
<g id="a_node16"><a xlink:href="../../d7/d43/phenixTypes_8h.html" target="_top" xlink:title="phenixTypes.h">
<polygon fill="none" stroke="#000000" points="866,-114.5 866,-134.5 954,-134.5 954,-114.5 866,-114.5"/>
<text text-anchor="middle" x="910" y="-121.5" font-family="FreeSans" font-size="10.00" fill="#000000">phenixTypes.h</text>
</a>
</g>
</g>
<!-- Node1&#45;&gt;Node16 -->
<g id="edge38" class="edge">
<title>Node1&#45;&gt;Node16</title>
<path fill="none" stroke="#191970" d="M1084.9086,-456.3175C1069.9318,-447.3686 1055.4734,-435.4293 1047,-420 1017.9846,-367.1655 1072.585,-343.9491 1060,-285 1048.4113,-230.7175 1047.8848,-210.6089 1009,-171 994.3866,-156.1145 974.0855,-145.4418 955.6687,-138.1073"/>
<polygon fill="#191970" stroke="#191970" points="956.8419,-134.8093 946.2498,-134.5714 954.3818,-141.3627 956.8419,-134.8093"/>
</g>
<!-- Node23 -->
<g id="node23" class="node">
<title>Node23</title>
<g id="a_node23"><a xlink:href="../../da/d5b/testEventiterator_8h.html" target="_top" xlink:title="testEventiterator.h">
<polygon fill="none" stroke="#000000" points="703,-399.5 703,-419.5 813,-419.5 813,-399.5 703,-399.5"/>
<text text-anchor="middle" x="758" y="-406.5" font-family="FreeSans" font-size="10.00" fill="#000000">testEventiterator.h</text>
</a>
</g>
</g>
<!-- Node1&#45;&gt;Node23 -->
<g id="edge35" class="edge">
<title>Node1&#45;&gt;Node23</title>
<path fill="none" stroke="#191970" d="M1072.6349,-466.4811C1002.5283,-453.7847 892.6934,-433.8933 823.0779,-421.2858"/>
<polygon fill="#191970" stroke="#191970" points="823.5718,-417.8183 813.1081,-419.4802 822.3243,-424.7063 823.5718,-417.8183"/>
</g>
<!-- Node25 -->
<g id="node25" class="node">
<title>Node25</title>
<g id="a_node25"><a xlink:href="../../de/dd5/A__Event_8h.html" target="_top" xlink:title="A_Event.h">
<polygon fill="none" stroke="#000000" points="739.5,-228.5 739.5,-248.5 806.5,-248.5 806.5,-228.5 739.5,-228.5"/>
<text text-anchor="middle" x="773" y="-235.5" font-family="FreeSans" font-size="10.00" fill="#000000">A_Event.h</text>
</a>
</g>
</g>
<!-- Node1&#45;&gt;Node25 -->
<g id="edge39" class="edge">
<title>Node1&#45;&gt;Node25</title>
<path fill="none" stroke="#191970" d="M1072.8685,-463.5325C1039.0759,-454.1251 998.196,-439.9354 965,-420 888.5096,-374.0647 817.4095,-293.1486 787.669,-256.9304"/>
<polygon fill="#191970" stroke="#191970" points="790.0385,-254.2957 781.0208,-248.734 784.602,-258.7053 790.0385,-254.2957"/>
</g>
<!-- Node30 -->
<g id="node30" class="node">
<title>Node30</title>
<g id="a_node30"><a xlink:href="../../d7/daa/ogzBuffer_8h.html" target="_top" xlink:title="ogzBuffer.h">
<polygon fill="none" stroke="#000000" points="952.5,-342.5 952.5,-362.5 1025.5,-362.5 1025.5,-342.5 952.5,-342.5"/>
<text text-anchor="middle" x="989" y="-349.5" font-family="FreeSans" font-size="10.00" fill="#000000">ogzBuffer.h</text>
</a>
</g>
</g>
<!-- Node1&#45;&gt;Node30 -->
<g id="edge49" class="edge">
<title>Node1&#45;&gt;Node30</title>
<path fill="none" stroke="#191970" d="M1072.7733,-459.2586C1051.3393,-450.269 1028.9985,-437.5611 1013,-420 1001.1191,-406.9587 995.036,-387.6466 991.9734,-373.0164"/>
<polygon fill="#191970" stroke="#191970" points="995.3747,-372.1531 990.1741,-362.9226 988.4834,-373.3816 995.3747,-372.1531"/>
</g>
<!-- Node33 -->
<g id="node33" class="node">
<title>Node33</title>
<g id="a_node33"><a xlink:href="../../db/dba/oEvent_8h.html" target="_top" xlink:title="oEvent.h">
<polygon fill="none" stroke="#000000" points="876.5,-228.5 876.5,-248.5 937.5,-248.5 937.5,-228.5 876.5,-228.5"/>
<text text-anchor="middle" x="907" y="-235.5" font-family="FreeSans" font-size="10.00" fill="#000000">oEvent.h</text>
</a>
</g>
</g>
<!-- Node1&#45;&gt;Node33 -->
<g id="edge61" class="edge">
<title>Node1&#45;&gt;Node33</title>
<path fill="none" stroke="#191970" d="M1072.895,-458.4205C1047.5628,-448.9904 1019.1986,-436.2063 996,-420 945.673,-384.8421 935.834,-364.7438 918,-306 913.3113,-290.5557 910.5004,-272.4807 908.8951,-258.9235"/>
<polygon fill="#191970" stroke="#191970" points="912.3518,-258.3296 907.8155,-248.7551 905.391,-259.0687 912.3518,-258.3296"/>
</g>
<!-- Node34 -->
<g id="node34" class="node">
<title>Node34</title>
<g id="a_node34"><a xlink:href="../../da/d24/EventTypes_8h.html" target="_top" xlink:title="EventTypes.h">
<polygon fill="none" stroke="#000000" points="1055.5,-399.5 1055.5,-419.5 1138.5,-419.5 1138.5,-399.5 1055.5,-399.5"/>
<text text-anchor="middle" x="1097" y="-406.5" font-family="FreeSans" font-size="10.00" fill="#000000">EventTypes.h</text>
</a>
</g>
</g>
<!-- Node1&#45;&gt;Node34 -->
<g id="edge60" class="edge">
<title>Node1&#45;&gt;Node34</title>
<path fill="none" stroke="#191970" d="M1125.4797,-456.2882C1119.9853,-447.2615 1113.7049,-436.9438 1108.4425,-428.2984"/>
<polygon fill="#191970" stroke="#191970" points="1111.4062,-426.4358 1103.217,-419.7137 1105.4268,-430.0755 1111.4062,-426.4358"/>
</g>
<!-- Node35 -->
<g id="node35" class="node">
<title>Node35</title>
<polygon fill="none" stroke="#bfbfbf" points="1157,-399.5 1157,-419.5 1207,-419.5 1207,-399.5 1157,-399.5"/>
<text text-anchor="middle" x="1182" y="-406.5" font-family="FreeSans" font-size="10.00" fill="#000000">cstdlib</text>
</g>
<!-- Node1&#45;&gt;Node35 -->
<g id="edge62" class="edge">
<title>Node1&#45;&gt;Node35</title>
<path fill="none" stroke="#191970" d="M1152.8422,-456.2882C1158.4675,-447.2615 1164.8973,-436.9438 1170.2851,-428.2984"/>
<polygon fill="#191970" stroke="#191970" points="1173.3164,-430.0517 1175.635,-419.7137 1167.3756,-426.3494 1173.3164,-430.0517"/>
</g>
<!-- Node36 -->
<g id="node36" class="node">
<title>Node36</title>
<polygon fill="none" stroke="#bfbfbf" points="1225.5,-399.5 1225.5,-419.5 1282.5,-419.5 1282.5,-399.5 1225.5,-399.5"/>
<text text-anchor="middle" x="1254" y="-406.5" font-family="FreeSans" font-size="10.00" fill="#000000">unistd.h</text>
</g>
<!-- Node1&#45;&gt;Node36 -->
<g id="edge63" class="edge">
<title>Node1&#45;&gt;Node36</title>
<path fill="none" stroke="#191970" d="M1175.7029,-456.4783C1192.7957,-446.2226 1212.7221,-434.2667 1228.1951,-424.9829"/>
<polygon fill="#191970" stroke="#191970" points="1230.4144,-427.7331 1237.1886,-419.5869 1226.8129,-421.7306 1230.4144,-427.7331"/>
</g>
<!-- Node37 -->
<g id="node37" class="node">
<title>Node37</title>
<polygon fill="none" stroke="#bfbfbf" points="1301,-399.5 1301,-419.5 1347,-419.5 1347,-399.5 1301,-399.5"/>
<text text-anchor="middle" x="1324" y="-406.5" font-family="FreeSans" font-size="10.00" fill="#000000">cstdio</text>
</g>
<!-- Node1&#45;&gt;Node37 -->
<g id="edge64" class="edge">
<title>Node1&#45;&gt;Node37</title>
<path fill="none" stroke="#191970" d="M1198.0438,-456.4783C1228.8503,-444.9883 1265.3788,-431.3641 1291.1436,-421.7545"/>
<polygon fill="#191970" stroke="#191970" points="1292.65,-424.9283 1300.7964,-418.1543 1290.2037,-418.3696 1292.65,-424.9283"/>
</g>
<!-- Node38 -->
<g id="node38" class="node">
<title>Node38</title>
<polygon fill="none" stroke="#bfbfbf" points="1365.5,-399.5 1365.5,-419.5 1426.5,-419.5 1426.5,-399.5 1365.5,-399.5"/>
<text text-anchor="middle" x="1396" y="-406.5" font-family="FreeSans" font-size="10.00" fill="#000000">bstring.h</text>
</g>
<!-- Node1&#45;&gt;Node38 -->
<g id="edge65" class="edge">
<title>Node1&#45;&gt;Node38</title>
<path fill="none" stroke="#191970" d="M1205.1839,-460.7308C1252.7597,-447.9575 1315.3726,-431.147 1355.6612,-420.3303"/>
<polygon fill="#191970" stroke="#191970" points="1356.6499,-423.6888 1365.4003,-417.7155 1354.8347,-416.9283 1356.6499,-423.6888"/>
</g>
<!-- Node39 -->
<g id="node39" class="node">
<title>Node39</title>
<polygon fill="none" stroke="#bfbfbf" points="1444.5,-399.5 1444.5,-419.5 1517.5,-419.5 1517.5,-399.5 1444.5,-399.5"/>
<text text-anchor="middle" x="1481" y="-406.5" font-family="FreeSans" font-size="10.00" fill="#000000">sys/types.h</text>
</g>
<!-- Node1&#45;&gt;Node39 -->
<g id="edge66" class="edge">
<title>Node1&#45;&gt;Node39</title>
<path fill="none" stroke="#191970" d="M1205.1935,-466.1445C1263.1759,-455.1657 1349.9601,-438.358 1434.1948,-420.3447"/>
<polygon fill="#191970" stroke="#191970" points="1435.1439,-423.7207 1444.1864,-418.1996 1433.6745,-416.8767 1435.1439,-423.7207"/>
</g>
<!-- Node40 -->
<g id="node40" class="node">
<title>Node40</title>
<polygon fill="none" stroke="#bfbfbf" points="1536,-399.5 1536,-419.5 1600,-419.5 1600,-399.5 1536,-399.5"/>
<text text-anchor="middle" x="1568" y="-406.5" font-family="FreeSans" font-size="10.00" fill="#000000">sys/stat.h</text>
</g>
<!-- Node1&#45;&gt;Node40 -->
<g id="edge67" class="edge">
<title>Node1&#45;&gt;Node40</title>
<path fill="none" stroke="#191970" d="M1205.2627,-470.5817C1280.6721,-461.1055 1407.659,-443.7394 1525.8925,-420.0737"/>
<polygon fill="#191970" stroke="#191970" points="1526.7335,-423.4746 1535.842,-418.0629 1525.3468,-416.6133 1526.7335,-423.4746"/>
</g>
<!-- Node41 -->
<g id="node41" class="node">
<title>Node41</title>
<polygon fill="none" stroke="#bfbfbf" points="1618,-399.5 1618,-419.5 1666,-419.5 1666,-399.5 1618,-399.5"/>
<text text-anchor="middle" x="1642" y="-406.5" font-family="FreeSans" font-size="10.00" fill="#000000">fcntl.h</text>
</g>
<!-- Node1&#45;&gt;Node41 -->
<g id="edge68" class="edge">
<title>Node1&#45;&gt;Node41</title>
<path fill="none" stroke="#191970" d="M1205.0362,-474.1347C1294.5236,-467.3679 1459.23,-451.9002 1607.776,-419.9333"/>
<polygon fill="#191970" stroke="#191970" points="1608.9655,-423.2562 1617.9887,-417.7036 1607.4723,-416.4173 1608.9655,-423.2562"/>
</g>
<!-- Node3 -->
<g id="node3" class="node">
<title>Node3</title>
<polygon fill="none" stroke="#bfbfbf" points="13,-.5 13,-20.5 63,-20.5 63,-.5 13,-.5"/>
<text text-anchor="middle" x="38" y="-7.5" font-family="FreeSans" font-size="10.00" fill="#000000">stdio.h</text>
</g>
<!-- Node2&#45;&gt;Node3 -->
<g id="edge2" class="edge">
<title>Node2&#45;&gt;Node3</title>
<path fill="none" stroke="#191970" d="M478.554,-403.6633C343.6461,-388.2125 0,-344.0868 0,-295.5 0,-295.5 0,-295.5 0,-124.5 0,-89.7644 16.0743,-51.9893 27.3138,-29.8219"/>
<polygon fill="#191970" stroke="#191970" points="30.5008,-31.2812 32.0625,-20.8021 24.3068,-28.0201 30.5008,-31.2812"/>
</g>
<!-- Node4 -->
<g id="node4" class="node">
<title>Node4</title>
<g id="a_node4"><a xlink:href="../../de/dbf/Eventiterator_8h.html" target="_top" xlink:title="Eventiterator.h">
<polygon fill="none" stroke="#000000" points="594.5,-342.5 594.5,-362.5 685.5,-362.5 685.5,-342.5 594.5,-342.5"/>
<text text-anchor="middle" x="640" y="-349.5" font-family="FreeSans" font-size="10.00" fill="#000000">Eventiterator.h</text>
</a>
</g>
</g>
<!-- Node2&#45;&gt;Node4 -->
<g id="edge3" class="edge">
<title>Node2&#45;&gt;Node4</title>
<path fill="none" stroke="#191970" d="M551.0596,-399.4408C567.9207,-390.5419 592.7464,-377.4394 611.8875,-367.3371"/>
<polygon fill="#191970" stroke="#191970" points="613.5574,-370.4134 620.7676,-362.6504 610.2901,-364.2227 613.5574,-370.4134"/>
</g>
<!-- Node5 -->
<g id="node5" class="node">
<title>Node5</title>
<g id="a_node5"><a xlink:href="../../d6/d8d/Event_8h.html" target="_top" xlink:title="Event.h">
<polygon fill="none" stroke="#000000" points="576,-171.5 576,-191.5 630,-191.5 630,-171.5 576,-171.5"/>
<text text-anchor="middle" x="603" y="-178.5" font-family="FreeSans" font-size="10.00" fill="#000000">Event.h</text>
</a>
</g>
</g>
<!-- Node2&#45;&gt;Node5 -->
<g id="edge13" class="edge">
<title>Node2&#45;&gt;Node5</title>
<path fill="none" stroke="#191970" d="M535.1424,-399.4089C546.0227,-364.4693 582.2192,-248.2328 596.8173,-201.3543"/>
<polygon fill="#191970" stroke="#191970" points="600.1818,-202.3216 599.8133,-191.7332 593.4983,-200.2403 600.1818,-202.3216"/>
</g>
<!-- Node13 -->
<g id="node13" class="node">
<title>Node13</title>
<g id="a_node13"><a xlink:href="../../d6/df6/gzbuffer_8h.html" target="_top" xlink:title="gzbuffer.h">
<polygon fill="none" stroke="#000000" points="463.5,-342.5 463.5,-362.5 530.5,-362.5 530.5,-342.5 463.5,-342.5"/>
<text text-anchor="middle" x="497" y="-349.5" font-family="FreeSans" font-size="10.00" fill="#000000">gzbuffer.h</text>
</a>
</g>
</g>
<!-- Node2&#45;&gt;Node13 -->
<g id="edge14" class="edge">
<title>Node2&#45;&gt;Node13</title>
<path fill="none" stroke="#191970" d="M525.7427,-399.3095C520.9647,-391.5282 514.2477,-380.589 508.5084,-371.2423"/>
<polygon fill="#191970" stroke="#191970" points="511.4184,-369.2925 503.2031,-362.6022 505.4532,-372.9554 511.4184,-369.2925"/>
</g>
<!-- Node18 -->
<g id="node18" class="node">
<title>Node18</title>
<g id="a_node18"><a xlink:href="../../db/d5e/oncsBuffer_8h.html" target="_top" xlink:title="oncsBuffer.h">
<polygon fill="none" stroke="#000000" points="266.5,-285.5 266.5,-305.5 345.5,-305.5 345.5,-285.5 266.5,-285.5"/>
<text text-anchor="middle" x="306" y="-292.5" font-family="FreeSans" font-size="10.00" fill="#000000">oncsBuffer.h</text>
</a>
</g>
</g>
<!-- Node2&#45;&gt;Node18 -->
<g id="edge23" class="edge">
<title>Node2&#45;&gt;Node18</title>
<path fill="none" stroke="#191970" d="M511.944,-399.3833C471.8209,-379.1441 381.5365,-333.6025 334.98,-310.1182"/>
<polygon fill="#191970" stroke="#191970" points="336.5158,-306.9729 326.011,-305.5941 333.3632,-313.2228 336.5158,-306.9729"/>
</g>
<!-- Node4&#45;&gt;Node5 -->
<g id="edge4" class="edge">
<title>Node4&#45;&gt;Node5</title>
<path fill="none" stroke="#191970" d="M637.7963,-342.3153C631.8465,-314.8178 615.3711,-238.6748 607.4139,-201.8993"/>
<polygon fill="#191970" stroke="#191970" points="610.7747,-200.8812 605.2389,-191.8476 603.933,-202.3616 610.7747,-200.8812"/>
</g>
<!-- Node6 -->
<g id="node6" class="node">
<title>Node6</title>
<g id="a_node6"><a xlink:href="../../d3/d76/packet_8h.html" target="_top" xlink:title="packet.h">
<polygon fill="none" stroke="#000000" points="596.5,-114.5 596.5,-134.5 655.5,-134.5 655.5,-114.5 596.5,-114.5"/>
<text text-anchor="middle" x="626" y="-121.5" font-family="FreeSans" font-size="10.00" fill="#000000">packet.h</text>
</a>
</g>
</g>
<!-- Node5&#45;&gt;Node6 -->
<g id="edge5" class="edge">
<title>Node5&#45;&gt;Node6</title>
<path fill="none" stroke="#191970" d="M607.1119,-171.3095C610.1537,-163.7714 614.3912,-153.2696 618.0819,-144.123"/>
<polygon fill="#191970" stroke="#191970" points="621.4274,-145.1854 621.9237,-134.6022 614.9359,-142.566 621.4274,-145.1854"/>
</g>
<!-- Node12 -->
<g id="node12" class="node">
<title>Node12</title>
<polygon fill="none" stroke="#bfbfbf" points="534,-114.5 534,-134.5 578,-134.5 578,-114.5 534,-114.5"/>
<text text-anchor="middle" x="556" y="-121.5" font-family="FreeSans" font-size="10.00" fill="#000000">ctime</text>
</g>
<!-- Node5&#45;&gt;Node12 -->
<g id="edge12" class="edge">
<title>Node5&#45;&gt;Node12</title>
<path fill="none" stroke="#191970" d="M594.5973,-171.3095C587.9807,-163.2851 578.5948,-151.9022 570.7356,-142.3708"/>
<polygon fill="#191970" stroke="#191970" points="573.3922,-140.091 564.3299,-134.6022 567.9914,-144.5443 573.3922,-140.091"/>
</g>
<!-- Node7 -->
<g id="node7" class="node">
<title>Node7</title>
<g id="a_node7"><a xlink:href="../../db/d5e/generalDefinitions_8h.html" target="_top" xlink:title="generalDefinitions.h">
<polygon fill="none" stroke="#000000" points="456,-57.5 456,-77.5 574,-77.5 574,-57.5 456,-57.5"/>
<text text-anchor="middle" x="515" y="-64.5" font-family="FreeSans" font-size="10.00" fill="#000000">generalDefinitions.h</text>
</a>
</g>
</g>
<!-- Node6&#45;&gt;Node7 -->
<g id="edge6" class="edge">
<title>Node6&#45;&gt;Node7</title>
<path fill="none" stroke="#191970" d="M606.4109,-114.4408C589.0815,-105.5419 563.5662,-92.4394 543.8934,-82.3371"/>
<polygon fill="#191970" stroke="#191970" points="545.2611,-79.105 534.7666,-77.6504 542.0634,-85.332 545.2611,-79.105"/>
</g>
<!-- Node8 -->
<g id="node8" class="node">
<title>Node8</title>
<g id="a_node8"><a xlink:href="../../d8/dd6/event__io_8h.html" target="_top" xlink:title="event_io.h">
<polygon fill="none" stroke="#000000" points="592,-57.5 592,-77.5 660,-77.5 660,-57.5 592,-57.5"/>
<text text-anchor="middle" x="626" y="-64.5" font-family="FreeSans" font-size="10.00" fill="#000000">event_io.h</text>
</a>
</g>
</g>
<!-- Node6&#45;&gt;Node8 -->
<g id="edge7" class="edge">
<title>Node6&#45;&gt;Node8</title>
<path fill="none" stroke="#191970" d="M626,-114.3095C626,-106.9335 626,-96.72 626,-87.715"/>
<polygon fill="#191970" stroke="#191970" points="629.5001,-87.6022 626,-77.6022 622.5001,-87.6023 629.5001,-87.6022"/>
</g>
<!-- Node8&#45;&gt;Node3 -->
<g id="edge11" class="edge">
<title>Node8&#45;&gt;Node3</title>
<path fill="none" stroke="#191970" d="M591.8303,-58.652C588.8555,-58.035 585.8818,-57.4719 583,-57 392.2815,-25.7703 160.3675,-14.807 73.2852,-11.6242"/>
<polygon fill="#191970" stroke="#191970" points="73.2758,-8.1218 63.1582,-11.2657 73.0281,-15.1174 73.2758,-8.1218"/>
</g>
<!-- Node9 -->
<g id="node9" class="node">
<title>Node9</title>
<polygon fill="none" stroke="#bfbfbf" points="509,-.5 509,-20.5 573,-20.5 573,-.5 509,-.5"/>
<text text-anchor="middle" x="541" y="-7.5" font-family="FreeSans" font-size="10.00" fill="#000000">ioselect.h</text>
</g>
<!-- Node8&#45;&gt;Node9 -->
<g id="edge8" class="edge">
<title>Node8&#45;&gt;Node9</title>
<path fill="none" stroke="#191970" d="M610.8037,-57.3095C597.9913,-48.7177 579.4376,-36.2758 564.6786,-26.3786"/>
<polygon fill="#191970" stroke="#191970" points="566.3195,-23.2649 556.0647,-20.6022 562.4208,-29.0787 566.3195,-23.2649"/>
</g>
<!-- Node10 -->
<g id="node10" class="node">
<title>Node10</title>
<polygon fill="none" stroke="#bfbfbf" points="591,-.5 591,-20.5 661,-20.5 661,-.5 591,-.5"/>
<text text-anchor="middle" x="626" y="-7.5" font-family="FreeSans" font-size="10.00" fill="#000000">iostream.h</text>
</g>
<!-- Node8&#45;&gt;Node10 -->
<g id="edge9" class="edge">
<title>Node8&#45;&gt;Node10</title>
<path fill="none" stroke="#191970" d="M626,-57.3095C626,-49.9335 626,-39.72 626,-30.715"/>
<polygon fill="#191970" stroke="#191970" points="629.5001,-30.6022 626,-20.6022 622.5001,-30.6023 629.5001,-30.6022"/>
</g>
<!-- Node11 -->
<g id="node11" class="node">
<title>Node11</title>
<polygon fill="none" stroke="#bfbfbf" points="679,-.5 679,-20.5 745,-20.5 745,-.5 679,-.5"/>
<text text-anchor="middle" x="712" y="-7.5" font-family="FreeSans" font-size="10.00" fill="#000000">iomanip.h</text>
</g>
<!-- Node8&#45;&gt;Node11 -->
<g id="edge10" class="edge">
<title>Node8&#45;&gt;Node11</title>
<path fill="none" stroke="#191970" d="M641.3751,-57.3095C654.3383,-48.7177 673.1102,-36.2758 688.0428,-26.3786"/>
<polygon fill="#191970" stroke="#191970" points="690.3563,-29.0443 696.758,-20.6022 686.489,-23.2095 690.3563,-29.0443"/>
</g>
<!-- Node14 -->
<g id="node14" class="node">
<title>Node14</title>
<g id="a_node14"><a xlink:href="../../d1/dd4/prdfBuffer_8h.html" target="_top" xlink:title="prdfBuffer.h">
<polygon fill="none" stroke="#000000" points="452,-285.5 452,-305.5 528,-305.5 528,-285.5 452,-285.5"/>
<text text-anchor="middle" x="490" y="-292.5" font-family="FreeSans" font-size="10.00" fill="#000000">prdfBuffer.h</text>
</a>
</g>
</g>
<!-- Node13&#45;&gt;Node14 -->
<g id="edge15" class="edge">
<title>Node13&#45;&gt;Node14</title>
<path fill="none" stroke="#191970" d="M495.7485,-342.3095C494.8427,-334.9335 493.5884,-324.72 492.4825,-315.715"/>
<polygon fill="#191970" stroke="#191970" points="495.9335,-315.101 491.2406,-305.6022 488.9857,-315.9543 495.9335,-315.101"/>
</g>
<!-- Node14&#45;&gt;Node5 -->
<g id="edge22" class="edge">
<title>Node14&#45;&gt;Node5</title>
<path fill="none" stroke="#191970" d="M498.9714,-285.175C510.7927,-271.7021 532.3865,-247.5415 552,-228 562.2123,-217.8252 574.0901,-206.9436 583.8123,-198.2668"/>
<polygon fill="#191970" stroke="#191970" points="586.2201,-200.8097 591.3882,-191.5608 581.5804,-195.5682 586.2201,-200.8097"/>
</g>
<!-- Node15 -->
<g id="node15" class="node">
<title>Node15</title>
<g id="a_node15"><a xlink:href="../../d5/d08/buffer_8h.html" target="_top" xlink:title="buffer.h">
<polygon fill="none" stroke="#000000" points="406.5,-228.5 406.5,-248.5 461.5,-248.5 461.5,-228.5 406.5,-228.5"/>
<text text-anchor="middle" x="434" y="-235.5" font-family="FreeSans" font-size="10.00" fill="#000000">buffer.h</text>
</a>
</g>
</g>
<!-- Node14&#45;&gt;Node15 -->
<g id="edge16" class="edge">
<title>Node14&#45;&gt;Node15</title>
<path fill="none" stroke="#191970" d="M479.9883,-285.3095C471.9453,-277.1229 460.4683,-265.441 450.992,-255.7955"/>
<polygon fill="#191970" stroke="#191970" points="453.4299,-253.2827 443.925,-248.6022 448.4366,-258.1885 453.4299,-253.2827"/>
</g>
<!-- Node14&#45;&gt;Node16 -->
<g id="edge20" class="edge">
<title>Node14&#45;&gt;Node16</title>
<path fill="none" stroke="#191970" d="M488.009,-285.2778C484.004,-261.3462 477.8966,-201.412 510,-171 565.3183,-118.5962 775.5536,-145.6822 851,-135 852.513,-134.7858 854.0466,-134.5616 855.5934,-134.3292"/>
<polygon fill="#191970" stroke="#191970" points="856.586,-137.7159 865.9169,-132.6975 855.4931,-130.8017 856.586,-137.7159"/>
</g>
<!-- Node17 -->
<g id="node17" class="node">
<title>Node17</title>
<g id="a_node17"><a xlink:href="../../da/d88/BufferConstants_8h.html" target="_top" xlink:title="BufferConstants.h">
<polygon fill="none" stroke="#000000" points="316.5,-171.5 316.5,-191.5 423.5,-191.5 423.5,-171.5 316.5,-171.5"/>
<text text-anchor="middle" x="370" y="-178.5" font-family="FreeSans" font-size="10.00" fill="#000000">BufferConstants.h</text>
</a>
</g>
</g>
<!-- Node14&#45;&gt;Node17 -->
<g id="edge21" class="edge">
<title>Node14&#45;&gt;Node17</title>
<path fill="none" stroke="#191970" d="M456.1376,-285.345C436.6237,-277.9903 412.8898,-266.269 397,-249 384.8779,-235.8257 377.8999,-216.5279 374.0871,-201.937"/>
<polygon fill="#191970" stroke="#191970" points="377.4228,-200.8277 371.7556,-191.8761 370.6035,-202.4081 377.4228,-200.8277"/>
</g>
<!-- Node15&#45;&gt;Node5 -->
<g id="edge19" class="edge">
<title>Node15&#45;&gt;Node5</title>
<path fill="none" stroke="#191970" d="M461.5289,-229.2151C489.9709,-219.6222 534.5316,-204.5929 566.0316,-193.9686"/>
<polygon fill="#191970" stroke="#191970" points="567.4059,-197.1989 575.7629,-190.6865 565.1688,-190.566 567.4059,-197.1989"/>
</g>
<!-- Node15&#45;&gt;Node16 -->
<g id="edge17" class="edge">
<title>Node15&#45;&gt;Node16</title>
<path fill="none" stroke="#191970" d="M437.0611,-228.4107C442.2949,-213.0826 454.5327,-184.3084 476,-171 547.1528,-126.8896 768.0556,-146.3433 851,-135 852.514,-134.7929 854.0485,-134.5751 855.5961,-134.3484"/>
<polygon fill="#191970" stroke="#191970" points="856.5794,-137.7376 865.9233,-132.7434 855.5044,-130.8207 856.5794,-137.7376"/>
</g>
<!-- Node15&#45;&gt;Node17 -->
<g id="edge18" class="edge">
<title>Node15&#45;&gt;Node17</title>
<path fill="none" stroke="#191970" d="M422.5581,-228.3095C413.2751,-220.0419 399.9894,-208.2093 389.0985,-198.5096"/>
<polygon fill="#191970" stroke="#191970" points="391.1384,-195.6395 381.3429,-191.6022 386.4827,-200.8668 391.1384,-195.6395"/>
</g>
<!-- Node18&#45;&gt;Node3 -->
<g id="edge33" class="edge">
<title>Node18&#45;&gt;Node3</title>
<path fill="none" stroke="#191970" d="M266.1745,-289.5129C229.2764,-282.944 173.5393,-270.3808 129,-249 83.6035,-227.2076 38,-231.8563 38,-181.5 38,-181.5 38,-181.5 38,-124.5 38,-91.6536 38,-53.4837 38,-30.697"/>
<polygon fill="#191970" stroke="#191970" points="41.5001,-30.5648 38,-20.5648 34.5001,-30.5648 41.5001,-30.5648"/>
</g>
<!-- Node18&#45;&gt;Node8 -->
<g id="edge34" class="edge">
<title>Node18&#45;&gt;Node8</title>
<path fill="none" stroke="#191970" d="M266.2519,-286.5026C200.5728,-269.7386 80.6396,-229.9921 123,-171 177.0659,-95.7064 516.0332,-81.8106 581.5997,-77.1888"/>
<polygon fill="#191970" stroke="#191970" points="582.1811,-80.6497 591.8097,-76.2292 581.526,-73.6804 582.1811,-80.6497"/>
</g>
<!-- Node18&#45;&gt;Node15 -->
<g id="edge24" class="edge">
<title>Node18&#45;&gt;Node15</title>
<path fill="none" stroke="#191970" d="M328.5892,-285.4408C348.936,-276.3801 379.0688,-262.9615 401.9122,-252.7891"/>
<polygon fill="#191970" stroke="#191970" points="403.4947,-255.9158 411.2061,-248.6504 400.6471,-249.5212 403.4947,-255.9158"/>
</g>
<!-- Node18&#45;&gt;Node17 -->
<g id="edge32" class="edge">
<title>Node18&#45;&gt;Node17</title>
<path fill="none" stroke="#191970" d="M311.6796,-285.3833C322.3271,-266.4174 345.4485,-225.2323 359.1647,-200.8004"/>
<polygon fill="#191970" stroke="#191970" points="362.3977,-202.1912 364.2412,-191.7579 356.2938,-198.7644 362.3977,-202.1912"/>
</g>
<!-- Node19 -->
<g id="node19" class="node">
<title>Node19</title>
<g id="a_node19"><a xlink:href="../../de/d08/oncsEvent_8h.html" target="_top" xlink:title="oncsEvent.h">
<polygon fill="none" stroke="#000000" points="234,-228.5 234,-248.5 312,-248.5 312,-228.5 234,-228.5"/>
<text text-anchor="middle" x="273" y="-235.5" font-family="FreeSans" font-size="10.00" fill="#000000">oncsEvent.h</text>
</a>
</g>
</g>
<!-- Node18&#45;&gt;Node19 -->
<g id="edge25" class="edge">
<title>Node18&#45;&gt;Node19</title>
<path fill="none" stroke="#191970" d="M300.1003,-285.3095C295.6422,-277.6093 289.3938,-266.8166 284.0202,-257.5349"/>
<polygon fill="#191970" stroke="#191970" points="286.8881,-255.5029 278.8487,-248.6022 280.8301,-259.0102 286.8881,-255.5029"/>
</g>
<!-- Node19&#45;&gt;Node5 -->
<g id="edge26" class="edge">
<title>Node19&#45;&gt;Node5</title>
<path fill="none" stroke="#191970" d="M312.2952,-233.897C367.0803,-227.1278 469.6353,-213.1823 566.0583,-191.9923"/>
<polygon fill="#191970" stroke="#191970" points="566.9698,-195.3751 575.9689,-189.7835 565.447,-188.5428 566.9698,-195.3751"/>
</g>
<!-- Node19&#45;&gt;Node16 -->
<g id="edge27" class="edge">
<title>Node19&#45;&gt;Node16</title>
<path fill="none" stroke="#191970" d="M274.8342,-228.3994C278.2097,-213.0562 286.9825,-184.2622 307,-171 357.499,-137.5428 790.867,-142.318 851,-135 852.5169,-134.8154 854.0539,-134.6174 855.6038,-134.4082"/>
<polygon fill="#191970" stroke="#191970" points="856.5579,-137.8056 865.9418,-132.887 855.5388,-130.8802 856.5579,-137.8056"/>
</g>
<!-- Node20 -->
<g id="node20" class="node">
<title>Node20</title>
<g id="a_node20"><a xlink:href="../../d1/d05/EvtConstants_8h.html" target="_top" xlink:title="EvtConstants.h">
<polygon fill="none" stroke="#000000" points="301,-114.5 301,-134.5 393,-134.5 393,-114.5 301,-114.5"/>
<text text-anchor="middle" x="347" y="-121.5" font-family="FreeSans" font-size="10.00" fill="#000000">EvtConstants.h</text>
</a>
</g>
</g>
<!-- Node19&#45;&gt;Node20 -->
<g id="edge28" class="edge">
<title>Node19&#45;&gt;Node20</title>
<path fill="none" stroke="#191970" d="M233.9658,-233.9971C182.764,-226.522 102.7736,-208.4996 133,-171 152.4293,-146.8955 233.7498,-134.6408 290.3494,-128.9145"/>
<polygon fill="#191970" stroke="#191970" points="290.994,-132.3685 300.6096,-127.9198 290.3185,-125.4011 290.994,-132.3685"/>
</g>
<!-- Node21 -->
<g id="node21" class="node">
<title>Node21</title>
<g id="a_node21"><a xlink:href="../../d1/dfa/oncsEvtStructures_8h.html" target="_top" xlink:title="oncsEvtStructures.h">
<polygon fill="none" stroke="#000000" points="142.5,-171.5 142.5,-191.5 259.5,-191.5 259.5,-171.5 142.5,-171.5"/>
<text text-anchor="middle" x="201" y="-178.5" font-family="FreeSans" font-size="10.00" fill="#000000">oncsEvtStructures.h</text>
</a>
</g>
</g>
<!-- Node19&#45;&gt;Node21 -->
<g id="edge29" class="edge">
<title>Node19&#45;&gt;Node21</title>
<path fill="none" stroke="#191970" d="M260.1278,-228.3095C249.4797,-219.8798 234.1502,-207.7439 221.7682,-197.9415"/>
<polygon fill="#191970" stroke="#191970" points="223.7737,-195.0651 213.7607,-191.6022 219.4287,-200.5535 223.7737,-195.0651"/>
</g>
<!-- Node22 -->
<g id="node22" class="node">
<title>Node22</title>
<polygon fill="none" stroke="#bfbfbf" points="518.5,-171.5 518.5,-191.5 557.5,-191.5 557.5,-171.5 518.5,-171.5"/>
<text text-anchor="middle" x="538" y="-178.5" font-family="FreeSans" font-size="10.00" fill="#000000">map</text>
</g>
<!-- Node19&#45;&gt;Node22 -->
<g id="edge31" class="edge">
<title>Node19&#45;&gt;Node22</title>
<path fill="none" stroke="#191970" d="M312.1017,-230.0895C365.5078,-218.6021 460.1031,-198.2552 508.1712,-187.916"/>
<polygon fill="#191970" stroke="#191970" points="509.2006,-191.2747 518.241,-185.75 507.7286,-184.4312 509.2006,-191.2747"/>
</g>
<!-- Node21&#45;&gt;Node20 -->
<g id="edge30" class="edge">
<title>Node21&#45;&gt;Node20</title>
<path fill="none" stroke="#191970" d="M226.7658,-171.4408C250.2847,-162.2587 285.2668,-148.6013 311.4422,-138.3822"/>
<polygon fill="#191970" stroke="#191970" points="312.9583,-141.5476 321.0007,-134.6504 310.4125,-135.0269 312.9583,-141.5476"/>
</g>
<!-- Node23&#45;&gt;Node4 -->
<g id="edge36" class="edge">
<title>Node23&#45;&gt;Node4</title>
<path fill="none" stroke="#191970" d="M737.1756,-399.4408C718.5859,-390.461 691.135,-377.2008 670.1466,-367.0624"/>
<polygon fill="#191970" stroke="#191970" points="671.54,-363.8485 661.0131,-362.6504 668.4952,-370.1517 671.54,-363.8485"/>
</g>
<!-- Node24 -->
<g id="node24" class="node">
<title>Node24</title>
<g id="a_node24"><a xlink:href="../../dd/d69/simpleRandom_8h.html" target="_top" xlink:title="simpleRandom.h">
<polygon fill="none" stroke="#000000" points="707.5,-342.5 707.5,-362.5 808.5,-362.5 808.5,-342.5 707.5,-342.5"/>
<text text-anchor="middle" x="758" y="-349.5" font-family="FreeSans" font-size="10.00" fill="#000000">simpleRandom.h</text>
</a>
</g>
</g>
<!-- Node23&#45;&gt;Node24 -->
<g id="edge37" class="edge">
<title>Node23&#45;&gt;Node24</title>
<path fill="none" stroke="#191970" d="M758,-399.3095C758,-391.9335 758,-381.72 758,-372.715"/>
<polygon fill="#191970" stroke="#191970" points="761.5001,-372.6022 758,-362.6022 754.5001,-372.6023 761.5001,-372.6022"/>
</g>
<!-- Node25&#45;&gt;Node5 -->
<g id="edge40" class="edge">
<title>Node25&#45;&gt;Node5</title>
<path fill="none" stroke="#191970" d="M742.9987,-228.4408C714.185,-218.7797 670.5948,-204.1641 639.7199,-193.812"/>
<polygon fill="#191970" stroke="#191970" points="640.7711,-190.473 630.1772,-190.6124 638.5458,-197.1099 640.7711,-190.473"/>
</g>
<!-- Node25&#45;&gt;Node20 -->
<g id="edge41" class="edge">
<title>Node25&#45;&gt;Node20</title>
<path fill="none" stroke="#191970" d="M753.4572,-228.4565C717.7272,-210.1221 644.9648,-172.9257 639,-171 559.3411,-145.2831 462.6877,-133.4615 403.011,-128.2675"/>
<polygon fill="#191970" stroke="#191970" points="403.2931,-124.779 393.0356,-127.4312 402.7082,-131.7545 403.2931,-124.779"/>
</g>
<!-- Node25&#45;&gt;Node22 -->
<g id="edge48" class="edge">
<title>Node25&#45;&gt;Node22</title>
<path fill="none" stroke="#191970" d="M739.4903,-232.2794C700.3755,-224.7256 633.6276,-210.9295 567.3216,-191.8123"/>
<polygon fill="#191970" stroke="#191970" points="568.1258,-188.4009 557.5453,-188.9532 566.1609,-195.1195 568.1258,-188.4009"/>
</g>
<!-- Node26 -->
<g id="node26" class="node">
<title>Node26</title>
<g id="a_node26"><a xlink:href="../../de/d25/phenixOnline_8h.html" target="_top" xlink:title="phenixOnline.h">
<polygon fill="none" stroke="#000000" points="762.5,-171.5 762.5,-191.5 855.5,-191.5 855.5,-171.5 762.5,-171.5"/>
<text text-anchor="middle" x="809" y="-178.5" font-family="FreeSans" font-size="10.00" fill="#000000">phenixOnline.h</text>
</a>
</g>
</g>
<!-- Node25&#45;&gt;Node26 -->
<g id="edge42" class="edge">
<title>Node25&#45;&gt;Node26</title>
<path fill="none" stroke="#191970" d="M779.4361,-228.3095C784.3506,-220.5282 791.2596,-209.589 797.1628,-200.2423"/>
<polygon fill="#191970" stroke="#191970" points="800.2389,-201.9261 802.6196,-191.6022 794.3204,-198.1881 800.2389,-201.9261"/>
</g>
<!-- Node29 -->
<g id="node29" class="node">
<title>Node29</title>
<g id="a_node29"><a xlink:href="../../dd/dcb/EvtStructures_8h.html" target="_top" xlink:title="EvtStructures.h">
<polygon fill="none" stroke="#000000" points="874,-171.5 874,-191.5 968,-191.5 968,-171.5 874,-171.5"/>
<text text-anchor="middle" x="921" y="-178.5" font-family="FreeSans" font-size="10.00" fill="#000000">EvtStructures.h</text>
</a>
</g>
</g>
<!-- Node25&#45;&gt;Node29 -->
<g id="edge46" class="edge">
<title>Node25&#45;&gt;Node29</title>
<path fill="none" stroke="#191970" d="M799.1187,-228.4408C823.0648,-219.2183 858.7337,-205.4809 885.3052,-195.2473"/>
<polygon fill="#191970" stroke="#191970" points="886.5706,-198.5106 894.6445,-191.6504 884.0548,-191.9784 886.5706,-198.5106"/>
</g>
<!-- Node26&#45;&gt;Node16 -->
<g id="edge43" class="edge">
<title>Node26&#45;&gt;Node16</title>
<path fill="none" stroke="#191970" d="M827.0568,-171.3095C842.7119,-162.4745 865.5805,-149.5684 883.3421,-139.5445"/>
<polygon fill="#191970" stroke="#191970" points="885.1109,-142.5653 892.0996,-134.6022 881.6705,-136.4691 885.1109,-142.5653"/>
</g>
<!-- Node27 -->
<g id="node27" class="node">
<title>Node27</title>
<polygon fill="none" stroke="#bfbfbf" points="702,-114.5 702,-134.5 768,-134.5 768,-114.5 702,-114.5"/>
<text text-anchor="middle" x="735" y="-121.5" font-family="FreeSans" font-size="10.00" fill="#000000">memory.h</text>
</g>
<!-- Node26&#45;&gt;Node27 -->
<g id="edge44" class="edge">
<title>Node26&#45;&gt;Node27</title>
<path fill="none" stroke="#191970" d="M795.7703,-171.3095C784.8264,-162.8798 769.071,-150.7439 756.3451,-140.9415"/>
<polygon fill="#191970" stroke="#191970" points="758.1733,-137.9318 748.1152,-134.6022 753.9016,-143.4773 758.1733,-137.9318"/>
</g>
<!-- Node28 -->
<g id="node28" class="node">
<title>Node28</title>
<polygon fill="none" stroke="#bfbfbf" points="786,-114.5 786,-134.5 842,-134.5 842,-114.5 786,-114.5"/>
<text text-anchor="middle" x="814" y="-121.5" font-family="FreeSans" font-size="10.00" fill="#000000">assert.h</text>
</g>
<!-- Node26&#45;&gt;Node28 -->
<g id="edge45" class="edge">
<title>Node26&#45;&gt;Node28</title>
<path fill="none" stroke="#191970" d="M809.8939,-171.3095C810.5409,-163.9335 811.4368,-153.72 812.2268,-144.715"/>
<polygon fill="#191970" stroke="#191970" points="815.7265,-144.8699 813.1138,-134.6022 808.7533,-144.2581 815.7265,-144.8699"/>
</g>
<!-- Node29&#45;&gt;Node16 -->
<g id="edge47" class="edge">
<title>Node29&#45;&gt;Node16</title>
<path fill="none" stroke="#191970" d="M919.0334,-171.3095C917.61,-163.9335 915.6389,-153.72 913.9011,-144.715"/>
<polygon fill="#191970" stroke="#191970" points="917.2811,-143.7578 911.9496,-134.6022 910.4079,-145.0843 917.2811,-143.7578"/>
</g>
<!-- Node31 -->
<g id="node31" class="node">
<title>Node31</title>
<polygon fill="none" stroke="#bfbfbf" points="1007.5,-285.5 1007.5,-305.5 1050.5,-305.5 1050.5,-285.5 1007.5,-285.5"/>
<text text-anchor="middle" x="1029" y="-292.5" font-family="FreeSans" font-size="10.00" fill="#000000">zlib.h</text>
</g>
<!-- Node30&#45;&gt;Node31 -->
<g id="edge50" class="edge">
<title>Node30&#45;&gt;Node31</title>
<path fill="none" stroke="#191970" d="M996.1512,-342.3095C1001.6687,-334.4472 1009.4486,-323.3608 1016.0521,-313.9507"/>
<polygon fill="#191970" stroke="#191970" points="1019.0314,-315.7983 1021.9107,-305.6022 1013.3015,-311.7773 1019.0314,-315.7983"/>
</g>
<!-- Node32 -->
<g id="node32" class="node">
<title>Node32</title>
<g id="a_node32"><a xlink:href="../../d9/de6/oBuffer_8h.html" target="_top" xlink:title="oBuffer.h">
<polygon fill="none" stroke="#000000" points="927,-285.5 927,-305.5 989,-305.5 989,-285.5 927,-285.5"/>
<text text-anchor="middle" x="958" y="-292.5" font-family="FreeSans" font-size="10.00" fill="#000000">oBuffer.h</text>
</a>
</g>
</g>
<!-- Node30&#45;&gt;Node32 -->
<g id="edge51" class="edge">
<title>Node30&#45;&gt;Node32</title>
<path fill="none" stroke="#191970" d="M983.4578,-342.3095C979.27,-334.6093 973.4003,-323.8166 968.3523,-314.5349"/>
<polygon fill="#191970" stroke="#191970" points="971.3467,-312.7149 963.4942,-305.6022 965.1973,-316.0593 971.3467,-312.7149"/>
</g>
<!-- Node32&#45;&gt;Node5 -->
<g id="edge59" class="edge">
<title>Node32&#45;&gt;Node5</title>
<path fill="none" stroke="#191970" d="M926.7724,-291.9476C882.2974,-286.2565 798.6082,-273.1948 731,-249 693.0366,-235.4141 652.3641,-212.3323 627.3008,-197.0012"/>
<polygon fill="#191970" stroke="#191970" points="628.8405,-193.8376 618.4976,-191.5409 625.1508,-199.7862 628.8405,-193.8376"/>
</g>
<!-- Node32&#45;&gt;Node8 -->
<g id="edge52" class="edge">
<title>Node32&#45;&gt;Node8</title>
<path fill="none" stroke="#191970" d="M973.1566,-285.2122C984.0945,-276.8566 998.1035,-264.0214 1005,-249 1031.2178,-191.8942 1017.7032,-144.9194 963,-114 913.8543,-86.2219 750.1861,-74.0004 670.439,-69.5917"/>
<polygon fill="#191970" stroke="#191970" points="670.3959,-66.0845 660.223,-69.0444 670.0214,-73.0745 670.3959,-66.0845"/>
</g>
<!-- Node32&#45;&gt;Node16 -->
<g id="edge53" class="edge">
<title>Node32&#45;&gt;Node16</title>
<path fill="none" stroke="#191970" d="M965.6441,-285.4621C981.4494,-263.3877 1014.4434,-209.5279 992,-171 983.4045,-156.2443 968.1931,-145.7921 953.187,-138.5867"/>
<polygon fill="#191970" stroke="#191970" points="954.4936,-135.3378 943.9311,-134.5104 951.6722,-141.744 954.4936,-135.3378"/>
</g>
<!-- Node32&#45;&gt;Node33 -->
<g id="edge54" class="edge">
<title>Node32&#45;&gt;Node33</title>
<path fill="none" stroke="#191970" d="M948.8822,-285.3095C941.6299,-277.204 931.3117,-265.672 922.7318,-256.0826"/>
<polygon fill="#191970" stroke="#191970" points="925.3152,-253.7209 916.0388,-248.6022 920.0985,-258.3885 925.3152,-253.7209"/>
</g>
<!-- Node33&#45;&gt;Node6 -->
<g id="edge58" class="edge">
<title>Node33&#45;&gt;Node6</title>
<path fill="none" stroke="#191970" d="M876.2143,-230.9901C844.8859,-222.9221 795.2095,-208.9474 754,-192 734.3122,-183.9034 684.5975,-156.9462 653.2384,-139.6474"/>
<polygon fill="#191970" stroke="#191970" points="654.5939,-136.3975 644.1492,-134.6205 651.2061,-142.5231 654.5939,-136.3975"/>
</g>
<!-- Node33&#45;&gt;Node16 -->
<g id="edge56" class="edge">
<title>Node33&#45;&gt;Node16</title>
<path fill="none" stroke="#191970" d="M933.5994,-228.4548C949.2941,-220.9838 967.8298,-209.1008 977,-192 988.3846,-170.7698 965.0308,-151.8142 942.8368,-139.4361"/>
<polygon fill="#191970" stroke="#191970" points="944.3043,-136.2536 933.8232,-134.7057 941.0514,-142.4519 944.3043,-136.2536"/>
</g>
<!-- Node33&#45;&gt;Node20 -->
<g id="edge55" class="edge">
<title>Node33&#45;&gt;Node20</title>
<path fill="none" stroke="#191970" d="M876.1892,-233.9085C836.7434,-227.4296 766.7169,-213.8895 710,-192 691.9979,-185.0522 690.2954,-177.1338 672,-171 581.0751,-140.5162 469.2849,-130.0164 403.3301,-126.3999"/>
<polygon fill="#191970" stroke="#191970" points="403.315,-122.8946 393.1485,-125.8766 402.9556,-129.8854 403.315,-122.8946"/>
</g>
<!-- Node33&#45;&gt;Node29 -->
<g id="edge57" class="edge">
<title>Node33&#45;&gt;Node29</title>
<path fill="none" stroke="#191970" d="M909.5029,-228.3095C911.3345,-220.8524 913.8784,-210.4951 916.1077,-201.4186"/>
<polygon fill="#191970" stroke="#191970" points="919.5324,-202.1485 918.5187,-191.6022 912.7344,-200.4787 919.5324,-202.1485"/>
</g>
</g>
</svg>
