<?xml version="1.0" encoding="UTF-8" standalone="no"?>
<!DOCTYPE svg PUBLIC "-//W3C//DTD SVG 1.1//EN"
 "http://www.w3.org/Graphics/SVG/1.1/DTD/svg11.dtd">
<!-- Generated by graphviz version 2.40.1 (20161225.0304)
 -->
<!-- Title: TrkrCluster::getActsLocalError Pages: 1 -->
<svg width="982pt" height="299pt"
 viewBox="0.00 0.00 982.00 299.00" xmlns="http://www.w3.org/2000/svg" xmlns:xlink="http://www.w3.org/1999/xlink">
<g id="graph0" class="graph" transform="scale(1 1) rotate(0) translate(4 295)">
<title>TrkrCluster::getActsLocalError</title>
<!-- Node1 -->
<g id="node1" class="node">
<title>Node1</title>
<polygon fill="#bfbfbf" stroke="#000000" points="0,-129.5 0,-161.5 142,-161.5 142,-129.5 0,-129.5"/>
<text text-anchor="start" x="8" y="-148.5" font-family="FreeSans" font-size="10.00" fill="#000000">TrkrCluster::getActsLocal</text>
<text text-anchor="middle" x="71" y="-136.5" font-family="FreeSans" font-size="10.00" fill="#000000">Error</text>
</g>
<!-- Node2 -->
<g id="node2" class="node">
<title>Node2</title>
<g id="a_node2"><a xlink:href="../../d6/d11/classSvtxEvaluator.html#a230b9d059808211df74a32ab9547ac23" target="_top" xlink:title="SvtxEvaluator::calculate\lClusterError">
<polygon fill="none" stroke="#000000" points="210,-258.5 210,-290.5 349,-290.5 349,-258.5 210,-258.5"/>
<text text-anchor="start" x="218" y="-277.5" font-family="FreeSans" font-size="10.00" fill="#000000">SvtxEvaluator::calculate</text>
<text text-anchor="middle" x="279.5" y="-265.5" font-family="FreeSans" font-size="10.00" fill="#000000">ClusterError</text>
</a>
</g>
</g>
<!-- Node1&#45;&gt;Node2 -->
<g id="edge1" class="edge">
<title>Node1&#45;&gt;Node2</title>
<path fill="none" stroke="#191970" d="M89.1946,-169.4727C108.6019,-193.3462 141.5221,-229.2707 178,-249.5 187.84,-254.9569 198.8673,-259.237 209.9295,-262.5902"/>
<polygon fill="#191970" stroke="#191970" points="91.8758,-167.2211 82.9099,-161.5764 86.3988,-171.5803 91.8758,-167.2211"/>
</g>
<!-- Node5 -->
<g id="node5" class="node">
<title>Node5</title>
<g id="a_node5"><a xlink:href="../../d9/de0/classTrkrClusterv3.html#ad280797703c339b77cf89ee59935eaa6" target="_top" xlink:title="copy content from base class">
<polygon fill="none" stroke="#000000" points="209,-219.5 209,-239.5 350,-239.5 350,-219.5 209,-219.5"/>
<text text-anchor="middle" x="279.5" y="-226.5" font-family="FreeSans" font-size="10.00" fill="#000000">TrkrClusterv3::CopyFrom</text>
</a>
</g>
</g>
<!-- Node1&#45;&gt;Node5 -->
<g id="edge4" class="edge">
<title>Node1&#45;&gt;Node5</title>
<path fill="none" stroke="#191970" d="M100.6692,-167.5617C121.3436,-181.8927 150.1131,-199.8286 178,-210.5 187.795,-214.2482 198.4136,-217.2755 208.968,-219.7157"/>
<polygon fill="#191970" stroke="#191970" points="102.5178,-164.5825 92.3305,-161.6723 98.4795,-170.3002 102.5178,-164.5825"/>
</g>
<!-- Node6 -->
<g id="node6" class="node">
<title>Node6</title>
<g id="a_node6"><a xlink:href="../../d0/d73/classTrkrClusterv2.html#a2d9666f487f6563271e87f7afd06957c" target="_top" xlink:title="copy content from base class">
<polygon fill="none" stroke="#000000" points="209,-180.5 209,-200.5 350,-200.5 350,-180.5 209,-180.5"/>
<text text-anchor="middle" x="279.5" y="-187.5" font-family="FreeSans" font-size="10.00" fill="#000000">TrkrClusterv2::CopyFrom</text>
</a>
</g>
</g>
<!-- Node1&#45;&gt;Node6 -->
<g id="edge5" class="edge">
<title>Node1&#45;&gt;Node6</title>
<path fill="none" stroke="#191970" d="M144.3293,-163.8657C155.5837,-166.5258 167.086,-169.1542 178,-171.5 192.5477,-174.6268 208.3316,-177.7232 223.0208,-180.4804"/>
<polygon fill="#191970" stroke="#191970" points="145.0633,-160.4427 134.524,-161.5263 143.4387,-167.2516 145.0633,-160.4427"/>
</g>
<!-- Node7 -->
<g id="node7" class="node">
<title>Node7</title>
<g id="a_node7"><a xlink:href="../../df/d9d/classPHTruthSiliconAssociation.html#aac6d38c40279f94a24ceadfd94c0f3be" target="_top" xlink:title="PHTruthSiliconAssociation\l::copySiliconClustersToCorrectedMap">
<polygon fill="none" stroke="#000000" points="178,-129.5 178,-161.5 381,-161.5 381,-129.5 178,-129.5"/>
<text text-anchor="start" x="186" y="-148.5" font-family="FreeSans" font-size="10.00" fill="#000000">PHTruthSiliconAssociation</text>
<text text-anchor="middle" x="279.5" y="-136.5" font-family="FreeSans" font-size="10.00" fill="#000000">::copySiliconClustersToCorrectedMap</text>
</a>
</g>
</g>
<!-- Node1&#45;&gt;Node7 -->
<g id="edge6" class="edge">
<title>Node1&#45;&gt;Node7</title>
<path fill="none" stroke="#191970" d="M152.2274,-145.5C160.5688,-145.5 169.1172,-145.5 177.6443,-145.5"/>
<polygon fill="#191970" stroke="#191970" points="152.1708,-142.0001 142.1707,-145.5 152.1707,-149.0001 152.1708,-142.0001"/>
</g>
<!-- Node9 -->
<g id="node9" class="node">
<title>Node9</title>
<g id="a_node9"><a xlink:href="../../de/dfe/classALICEKF.html#a688bea306481b19fa2ac729349c5332e" target="_top" xlink:title="ALICEKF::getClusterError">
<polygon fill="none" stroke="#000000" points="208.5,-90.5 208.5,-110.5 350.5,-110.5 350.5,-90.5 208.5,-90.5"/>
<text text-anchor="middle" x="279.5" y="-97.5" font-family="FreeSans" font-size="10.00" fill="#000000">ALICEKF::getClusterError</text>
</a>
</g>
</g>
<!-- Node1&#45;&gt;Node9 -->
<g id="edge8" class="edge">
<title>Node1&#45;&gt;Node9</title>
<path fill="none" stroke="#191970" d="M148.0022,-127.1691C158.0806,-124.8697 168.279,-122.5927 178,-120.5 193.8023,-117.0981 211.0386,-113.6163 226.7476,-110.5312"/>
<polygon fill="#191970" stroke="#191970" points="146.9485,-123.8199 137.986,-129.47 148.5157,-130.6422 146.9485,-123.8199"/>
</g>
<!-- Node11 -->
<g id="node11" class="node">
<title>Node11</title>
<g id="a_node11"><a xlink:href="../../d5/d55/classPHTpcResiduals.html#a8ecef5e1c5853535319c91be85f7dc3e" target="_top" xlink:title="PHTpcResiduals::makeSourceLink">
<polygon fill="none" stroke="#000000" points="186,-51.5 186,-71.5 373,-71.5 373,-51.5 186,-51.5"/>
<text text-anchor="middle" x="279.5" y="-58.5" font-family="FreeSans" font-size="10.00" fill="#000000">PHTpcResiduals::makeSourceLink</text>
</a>
</g>
</g>
<!-- Node1&#45;&gt;Node11 -->
<g id="edge10" class="edge">
<title>Node1&#45;&gt;Node11</title>
<path fill="none" stroke="#191970" d="M101.1491,-123.6095C121.8298,-109.5881 150.419,-92.0962 178,-81.5 188.5624,-77.4421 200.0731,-74.1702 211.4258,-71.5432"/>
<polygon fill="#191970" stroke="#191970" points="99.0371,-120.8145 92.7961,-129.376 103.014,-126.5751 99.0371,-120.8145"/>
</g>
<!-- Node15 -->
<g id="node15" class="node">
<title>Node15</title>
<g id="a_node15"><a xlink:href="../../d5/d78/classPHTpcClusterMover.html#a7c36fbf3ee710fdb11069cfbaf71c3c6" target="_top" xlink:title="PHTpcClusterMover::\lprocess_event">
<polygon fill="none" stroke="#000000" points="219,-.5 219,-32.5 340,-32.5 340,-.5 219,-.5"/>
<text text-anchor="start" x="227" y="-19.5" font-family="FreeSans" font-size="10.00" fill="#000000">PHTpcClusterMover::</text>
<text text-anchor="middle" x="279.5" y="-7.5" font-family="FreeSans" font-size="10.00" fill="#000000">process_event</text>
</a>
</g>
</g>
<!-- Node1&#45;&gt;Node15 -->
<g id="edge14" class="edge">
<title>Node1&#45;&gt;Node15</title>
<path fill="none" stroke="#191970" d="M89.6092,-121.4383C109.1277,-97.8537 141.9383,-62.6032 178,-42.5 190.4724,-35.547 204.8396,-30.4134 218.7668,-26.6372"/>
<polygon fill="#191970" stroke="#191970" points="86.8549,-119.2779 83.276,-129.25 92.2924,-123.6863 86.8549,-119.2779"/>
</g>
<!-- Node3 -->
<g id="node3" class="node">
<title>Node3</title>
<g id="a_node3"><a xlink:href="../../d6/d11/classSvtxEvaluator.html#ace95fef2b7b4ad8b797f6695e053dd6e" target="_top" xlink:title="dump the evaluator information into ntuple for external analysis">
<polygon fill="none" stroke="#000000" points="431,-258.5 431,-290.5 572,-290.5 572,-258.5 431,-258.5"/>
<text text-anchor="start" x="439" y="-277.5" font-family="FreeSans" font-size="10.00" fill="#000000">SvtxEvaluator::fillOutput</text>
<text text-anchor="middle" x="501.5" y="-265.5" font-family="FreeSans" font-size="10.00" fill="#000000">Ntuples</text>
</a>
</g>
</g>
<!-- Node2&#45;&gt;Node3 -->
<g id="edge2" class="edge">
<title>Node2&#45;&gt;Node3</title>
<path fill="none" stroke="#191970" d="M359.3759,-274.5C382.7792,-274.5 408.1908,-274.5 430.9683,-274.5"/>
<polygon fill="#191970" stroke="#191970" points="359.1331,-271.0001 349.1331,-274.5 359.1331,-278.0001 359.1331,-271.0001"/>
</g>
<!-- Node4 -->
<g id="node4" class="node">
<title>Node4</title>
<g id="a_node4"><a xlink:href="../../d6/d11/classSvtxEvaluator.html#a1eb230f92b6f2cabb175f1349697200d" target="_top" xlink:title="SvtxEvaluator::process\l_event">
<polygon fill="none" stroke="#000000" points="643,-258.5 643,-290.5 775,-290.5 775,-258.5 643,-258.5"/>
<text text-anchor="start" x="651" y="-277.5" font-family="FreeSans" font-size="10.00" fill="#000000">SvtxEvaluator::process</text>
<text text-anchor="middle" x="709" y="-265.5" font-family="FreeSans" font-size="10.00" fill="#000000">_event</text>
</a>
</g>
</g>
<!-- Node3&#45;&gt;Node4 -->
<g id="edge3" class="edge">
<title>Node3&#45;&gt;Node4</title>
<path fill="none" stroke="#191970" d="M582.1092,-274.5C602.2133,-274.5 623.539,-274.5 642.8538,-274.5"/>
<polygon fill="#191970" stroke="#191970" points="582.0396,-271.0001 572.0396,-274.5 582.0395,-278.0001 582.0396,-271.0001"/>
</g>
<!-- Node8 -->
<g id="node8" class="node">
<title>Node8</title>
<g id="a_node8"><a xlink:href="../../df/d9d/classPHTruthSiliconAssociation.html#ac41bed87e2c4caf8ddf243144cf4b5d4" target="_top" xlink:title="PHTruthSiliconAssociation\l::process_event">
<polygon fill="none" stroke="#000000" points="428.5,-129.5 428.5,-161.5 574.5,-161.5 574.5,-129.5 428.5,-129.5"/>
<text text-anchor="start" x="436.5" y="-148.5" font-family="FreeSans" font-size="10.00" fill="#000000">PHTruthSiliconAssociation</text>
<text text-anchor="middle" x="501.5" y="-136.5" font-family="FreeSans" font-size="10.00" fill="#000000">::process_event</text>
</a>
</g>
</g>
<!-- Node7&#45;&gt;Node8 -->
<g id="edge7" class="edge">
<title>Node7&#45;&gt;Node8</title>
<path fill="none" stroke="#191970" d="M391.2167,-145.5C403.8694,-145.5 416.5096,-145.5 428.4798,-145.5"/>
<polygon fill="#191970" stroke="#191970" points="391.0795,-142.0001 381.0794,-145.5 391.0794,-149.0001 391.0795,-142.0001"/>
</g>
<!-- Node10 -->
<g id="node10" class="node">
<title>Node10</title>
<g id="a_node10"><a xlink:href="../../de/dfe/classALICEKF.html#a0ee894800941b7537fb5534dbd6727ad" target="_top" xlink:title="ALICEKF::ALICEKalmanFilter">
<polygon fill="none" stroke="#000000" points="423,-90.5 423,-110.5 580,-110.5 580,-90.5 423,-90.5"/>
<text text-anchor="middle" x="501.5" y="-97.5" font-family="FreeSans" font-size="10.00" fill="#000000">ALICEKF::ALICEKalmanFilter</text>
</a>
</g>
</g>
<!-- Node9&#45;&gt;Node10 -->
<g id="edge9" class="edge">
<title>Node9&#45;&gt;Node10</title>
<path fill="none" stroke="#191970" d="M360.7615,-100.5C380.9627,-100.5 402.5827,-100.5 422.6653,-100.5"/>
<polygon fill="#191970" stroke="#191970" points="360.6583,-97.0001 350.6582,-100.5 360.6582,-104.0001 360.6583,-97.0001"/>
</g>
<!-- Node12 -->
<g id="node12" class="node">
<title>Node12</title>
<g id="a_node12"><a xlink:href="../../d5/d55/classPHTpcResiduals.html#abe1d80fe32c832f457a28c43e8c2d883" target="_top" xlink:title="PHTpcResiduals::processTrack">
<polygon fill="none" stroke="#000000" points="417,-51.5 417,-71.5 586,-71.5 586,-51.5 417,-51.5"/>
<text text-anchor="middle" x="501.5" y="-58.5" font-family="FreeSans" font-size="10.00" fill="#000000">PHTpcResiduals::processTrack</text>
</a>
</g>
</g>
<!-- Node11&#45;&gt;Node12 -->
<g id="edge11" class="edge">
<title>Node11&#45;&gt;Node12</title>
<path fill="none" stroke="#191970" d="M383.3075,-61.5C394.5711,-61.5 405.9339,-61.5 416.9294,-61.5"/>
<polygon fill="#191970" stroke="#191970" points="383.0046,-58.0001 373.0046,-61.5 383.0045,-65.0001 383.0046,-58.0001"/>
</g>
<!-- Node13 -->
<g id="node13" class="node">
<title>Node13</title>
<g id="a_node13"><a xlink:href="../../d5/d55/classPHTpcResiduals.html#ac8936c9d7cf8808255c355520b304e95" target="_top" xlink:title="PHTpcResiduals::processTracks">
<polygon fill="none" stroke="#000000" points="622,-51.5 622,-71.5 796,-71.5 796,-51.5 622,-51.5"/>
<text text-anchor="middle" x="709" y="-58.5" font-family="FreeSans" font-size="10.00" fill="#000000">PHTpcResiduals::processTracks</text>
</a>
</g>
</g>
<!-- Node12&#45;&gt;Node13 -->
<g id="edge12" class="edge">
<title>Node12&#45;&gt;Node13</title>
<path fill="none" stroke="#191970" d="M596.4709,-61.5C604.9377,-61.5 613.483,-61.5 621.8792,-61.5"/>
<polygon fill="#191970" stroke="#191970" points="596.1975,-58.0001 586.1975,-61.5 596.1974,-65.0001 596.1975,-58.0001"/>
</g>
<!-- Node14 -->
<g id="node14" class="node">
<title>Node14</title>
<g id="a_node14"><a xlink:href="../../d5/d55/classPHTpcResiduals.html#afb9145abb0d5d579afed2c31f700989a" target="_top" xlink:title="PHTpcResiduals::process\l_event">
<polygon fill="none" stroke="#000000" points="832,-45.5 832,-77.5 974,-77.5 974,-45.5 832,-45.5"/>
<text text-anchor="start" x="840" y="-64.5" font-family="FreeSans" font-size="10.00" fill="#000000">PHTpcResiduals::process</text>
<text text-anchor="middle" x="903" y="-52.5" font-family="FreeSans" font-size="10.00" fill="#000000">_event</text>
</a>
</g>
</g>
<!-- Node13&#45;&gt;Node14 -->
<g id="edge13" class="edge">
<title>Node13&#45;&gt;Node14</title>
<path fill="none" stroke="#191970" d="M806.215,-61.5C814.8709,-61.5 823.5246,-61.5 831.9002,-61.5"/>
<polygon fill="#191970" stroke="#191970" points="806.0692,-58.0001 796.0692,-61.5 806.0692,-65.0001 806.0692,-58.0001"/>
</g>
</g>
</svg>
