<?xml version="1.0" encoding="UTF-8" standalone="no"?>
<!DOCTYPE svg PUBLIC "-//W3C//DTD SVG 1.1//EN"
 "http://www.w3.org/Graphics/SVG/1.1/DTD/svg11.dtd">
<!-- Generated by graphviz version 2.40.1 (20161225.0304)
 -->
<!-- Title: TrkrCluster::getPhiSize Pages: 1 -->
<svg width="500pt" height="182pt"
 viewBox="0.00 0.00 500.00 182.00" xmlns="http://www.w3.org/2000/svg" xmlns:xlink="http://www.w3.org/1999/xlink">
<g id="graph0" class="graph" transform="scale(1 1) rotate(0) translate(4 178)">
<title>TrkrCluster::getPhiSize</title>
<!-- Node1 -->
<g id="node1" class="node">
<title>Node1</title>
<polygon fill="#bfbfbf" stroke="#000000" points="0,-82.5 0,-102.5 131,-102.5 131,-82.5 0,-82.5"/>
<text text-anchor="middle" x="65.5" y="-89.5" font-family="FreeSans" font-size="10.00" fill="#000000">TrkrCluster::getPhiSize</text>
</g>
<!-- Node2 -->
<g id="node2" class="node">
<title>Node2</title>
<g id="a_node2"><a xlink:href="../../de/dfe/classALICEKF.html#ad331f69975b0e45b57f2a2969c379acf" target="_top" xlink:title="ALICEKF::ALICEKalmanFilter">
<polygon fill="none" stroke="#000000" points="167,-153.5 167,-173.5 324,-173.5 324,-153.5 167,-153.5"/>
<text text-anchor="middle" x="245.5" y="-160.5" font-family="FreeSans" font-size="10.00" fill="#000000">ALICEKF::ALICEKalmanFilter</text>
</a>
</g>
</g>
<!-- Node1&#45;&gt;Node2 -->
<g id="edge1" class="edge">
<title>Node1&#45;&gt;Node2</title>
<path fill="none" stroke="#191970" d="M91.006,-107.7081C111.0848,-119.1465 140.0797,-134.5064 167,-144.5 176.2018,-147.916 186.2406,-150.8844 195.9708,-153.3947"/>
<polygon fill="#191970" stroke="#191970" points="92.59,-104.581 82.1809,-102.6055 89.0861,-110.641 92.59,-104.581"/>
</g>
<!-- Node3 -->
<g id="node3" class="node">
<title>Node3</title>
<g id="a_node3"><a xlink:href="../../d6/d11/classSvtxEvaluator.html#ace95fef2b7b4ad8b797f6695e053dd6e" target="_top" xlink:title="dump the evaluator information into ntuple for external analysis">
<polygon fill="none" stroke="#000000" points="175,-102.5 175,-134.5 316,-134.5 316,-102.5 175,-102.5"/>
<text text-anchor="start" x="183" y="-121.5" font-family="FreeSans" font-size="10.00" fill="#000000">SvtxEvaluator::fillOutput</text>
<text text-anchor="middle" x="245.5" y="-109.5" font-family="FreeSans" font-size="10.00" fill="#000000">Ntuples</text>
</a>
</g>
</g>
<!-- Node1&#45;&gt;Node3 -->
<g id="edge2" class="edge">
<title>Node1&#45;&gt;Node3</title>
<path fill="none" stroke="#191970" d="M141.3274,-103.4529C152.4144,-105.0543 163.7958,-106.6983 174.7755,-108.2842"/>
<polygon fill="#191970" stroke="#191970" points="141.6459,-99.9626 131.2482,-101.997 140.6451,-106.8907 141.6459,-99.9626"/>
</g>
<!-- Node5 -->
<g id="node5" class="node">
<title>Node5</title>
<g id="a_node5"><a xlink:href="../../d8/dea/classTpcClusterCleaner.html#a6bb1a62075b6a726af9a60631a41b388" target="_top" xlink:title="TpcClusterCleaner::\lprocess_event">
<polygon fill="none" stroke="#000000" points="187.5,-51.5 187.5,-83.5 303.5,-83.5 303.5,-51.5 187.5,-51.5"/>
<text text-anchor="start" x="195.5" y="-70.5" font-family="FreeSans" font-size="10.00" fill="#000000">TpcClusterCleaner::</text>
<text text-anchor="middle" x="245.5" y="-58.5" font-family="FreeSans" font-size="10.00" fill="#000000">process_event</text>
</a>
</g>
</g>
<!-- Node1&#45;&gt;Node5 -->
<g id="edge4" class="edge">
<title>Node1&#45;&gt;Node5</title>
<path fill="none" stroke="#191970" d="M141.2769,-81.9754C156.693,-79.8343 172.6803,-77.6139 187.3674,-75.574"/>
<polygon fill="#191970" stroke="#191970" points="140.6716,-78.5258 131.2482,-83.3683 141.6346,-85.4593 140.6716,-78.5258"/>
</g>
<!-- Node6 -->
<g id="node6" class="node">
<title>Node6</title>
<g id="a_node6"><a xlink:href="../../dd/d60/classDumpTrkrClusterContainer.html#a2d4908a1a9a430bfb4921f0768568f27" target="_top" xlink:title="DumpTrkrClusterContainer\l::process_Node">
<polygon fill="none" stroke="#000000" points="170,-.5 170,-32.5 321,-32.5 321,-.5 170,-.5"/>
<text text-anchor="start" x="178" y="-19.5" font-family="FreeSans" font-size="10.00" fill="#000000">DumpTrkrClusterContainer</text>
<text text-anchor="middle" x="245.5" y="-7.5" font-family="FreeSans" font-size="10.00" fill="#000000">::process_Node</text>
</a>
</g>
</g>
<!-- Node1&#45;&gt;Node6 -->
<g id="edge5" class="edge">
<title>Node1&#45;&gt;Node6</title>
<path fill="none" stroke="#191970" d="M93.151,-77.5874C113.2956,-67.0436 141.4214,-52.9777 167,-42.5 175.5025,-39.0171 184.66,-35.6507 193.6136,-32.5602"/>
<polygon fill="#191970" stroke="#191970" points="91.4299,-74.5382 84.2224,-82.3037 94.6994,-80.7278 91.4299,-74.5382"/>
</g>
<!-- Node4 -->
<g id="node4" class="node">
<title>Node4</title>
<g id="a_node4"><a xlink:href="../../d6/d11/classSvtxEvaluator.html#ac66ea4145deb621d9e4fb38cf852dc33" target="_top" xlink:title="SvtxEvaluator::process\l_event">
<polygon fill="none" stroke="#000000" points="360,-102.5 360,-134.5 492,-134.5 492,-102.5 360,-102.5"/>
<text text-anchor="start" x="368" y="-121.5" font-family="FreeSans" font-size="10.00" fill="#000000">SvtxEvaluator::process</text>
<text text-anchor="middle" x="426" y="-109.5" font-family="FreeSans" font-size="10.00" fill="#000000">_event</text>
</a>
</g>
</g>
<!-- Node3&#45;&gt;Node4 -->
<g id="edge3" class="edge">
<title>Node3&#45;&gt;Node4</title>
<path fill="none" stroke="#191970" d="M326.308,-118.5C337.5478,-118.5 348.9851,-118.5 359.9123,-118.5"/>
<polygon fill="#191970" stroke="#191970" points="326.0615,-115.0001 316.0615,-118.5 326.0615,-122.0001 326.0615,-115.0001"/>
</g>
</g>
</svg>
