<?xml version="1.0" encoding="UTF-8" standalone="no"?>
<!DOCTYPE svg PUBLIC "-//W3C//DTD SVG 1.1//EN"
 "http://www.w3.org/Graphics/SVG/1.1/DTD/svg11.dtd">
<!-- Generated by graphviz version 2.40.1 (20161225.0304)
 -->
<!-- Title: CbmRichHitProducer::Exec Pages: 1 -->
<svg width="884pt" height="719pt"
 viewBox="0.00 0.00 884.00 719.00" xmlns="http://www.w3.org/2000/svg" xmlns:xlink="http://www.w3.org/1999/xlink">
<g id="graph0" class="graph" transform="scale(1 1) rotate(0) translate(4 715)">
<title>CbmRichHitProducer::Exec</title>
<!-- Node1 -->
<g id="node1" class="node">
<title>Node1</title>
<polygon fill="#bfbfbf" stroke="#000000" points="0,-219.5 0,-251.5 121,-251.5 121,-219.5 0,-219.5"/>
<text text-anchor="start" x="8" y="-238.5" font-family="FreeSans" font-size="10.00" fill="#000000">CbmRichHitProducer</text>
<text text-anchor="middle" x="60.5" y="-226.5" font-family="FreeSans" font-size="10.00" fill="#000000">::Exec</text>
</g>
<!-- Node2 -->
<g id="node2" class="node">
<title>Node2</title>
<g id="a_node2"><a xlink:href="../../da/d9f/classCbmRichHitProducer.html#a587c0db1e409265d8fbebdab293357a9" target="_top" xlink:title="Add cross talk hits.">
<polygon fill="none" stroke="#000000" points="182.5,-402.5 182.5,-434.5 303.5,-434.5 303.5,-402.5 182.5,-402.5"/>
<text text-anchor="start" x="190.5" y="-421.5" font-family="FreeSans" font-size="10.00" fill="#000000">CbmRichHitProducer</text>
<text text-anchor="middle" x="243" y="-409.5" font-family="FreeSans" font-size="10.00" fill="#000000">::AddCrossTalkHits</text>
</a>
</g>
</g>
<!-- Node1&#45;&gt;Node2 -->
<g id="edge1" class="edge">
<title>Node1&#45;&gt;Node2</title>
<path fill="none" stroke="#191970" d="M66.995,-251.7507C79.8303,-281.9395 111.2232,-347.004 157,-384.5 163.2878,-389.6503 170.4519,-394.0933 177.8998,-397.9073"/>
<polygon fill="#191970" stroke="#191970" points="176.9034,-401.3071 187.441,-402.4078 179.8898,-394.9761 176.9034,-401.3071"/>
</g>
<!-- Node3 -->
<g id="node3" class="node">
<title>Node3</title>
<g id="a_node3"><a xlink:href="../../da/d9f/classCbmRichHitProducer.html#ae09a5880ed6c729e141561a628143178" target="_top" xlink:title="Adds a RichHit to the HitCollection.">
<polygon fill="none" stroke="#000000" points="383,-450.5 383,-482.5 504,-482.5 504,-450.5 383,-450.5"/>
<text text-anchor="start" x="391" y="-469.5" font-family="FreeSans" font-size="10.00" fill="#000000">CbmRichHitProducer</text>
<text text-anchor="middle" x="443.5" y="-457.5" font-family="FreeSans" font-size="10.00" fill="#000000">::AddHit</text>
</a>
</g>
</g>
<!-- Node1&#45;&gt;Node3 -->
<g id="edge23" class="edge">
<title>Node1&#45;&gt;Node3</title>
<path fill="none" stroke="#191970" d="M62.5338,-251.7186C68.5415,-292.0529 90.1932,-396.9805 157,-443.5 219.8404,-487.2576 310.2906,-486.8196 372.6692,-479.4478"/>
<polygon fill="#191970" stroke="#191970" points="373.3374,-482.8912 382.8165,-478.1587 372.4551,-475.947 373.3374,-482.8912"/>
</g>
<!-- Node5 -->
<g id="node5" class="node">
<title>Node5</title>
<g id="a_node5"><a xlink:href="../../da/d9f/classCbmRichHitProducer.html#a047f665a5fadc0afc3cf04c99e40113a" target="_top" xlink:title="Generate randomly PMT amplitude according to probability density provided by OnePhotonAmplitude(x).">
<polygon fill="none" stroke="#000000" points="573,-276.5 573,-308.5 694,-308.5 694,-276.5 573,-276.5"/>
<text text-anchor="start" x="581" y="-295.5" font-family="FreeSans" font-size="10.00" fill="#000000">CbmRichHitProducer</text>
<text text-anchor="middle" x="633.5" y="-283.5" font-family="FreeSans" font-size="10.00" fill="#000000">::GetAmplitude</text>
</a>
</g>
</g>
<!-- Node1&#45;&gt;Node5 -->
<g id="edge27" class="edge">
<title>Node1&#45;&gt;Node5</title>
<path fill="none" stroke="#191970" d="M74.5613,-251.7782C91.7989,-270.3586 122.9465,-299.7003 157,-311.5 294.8869,-359.2783 468.7891,-332.2563 563.7444,-310.7876"/>
<polygon fill="#191970" stroke="#191970" points="564.5659,-314.1901 573.5239,-308.5327 562.9931,-307.3691 564.5659,-314.1901"/>
</g>
<!-- Node22 -->
<g id="node22" class="node">
<title>Node22</title>
<g id="a_node22"><a xlink:href="../../da/d9f/classCbmRichHitProducer.html#a56c8800f4ed38b1d9541d9b6e9539db1" target="_top" xlink:title="Finds hit position in MAMPT plane.">
<polygon fill="none" stroke="#000000" points="365,-360.5 365,-392.5 522,-392.5 522,-360.5 365,-360.5"/>
<text text-anchor="start" x="373" y="-379.5" font-family="FreeSans" font-size="10.00" fill="#000000">CbmRichHitProducer</text>
<text text-anchor="middle" x="443.5" y="-367.5" font-family="FreeSans" font-size="10.00" fill="#000000">::FindRichHitPositionMAPMT</text>
</a>
</g>
</g>
<!-- Node1&#45;&gt;Node22 -->
<g id="edge25" class="edge">
<title>Node1&#45;&gt;Node22</title>
<path fill="none" stroke="#191970" d="M69.2632,-251.5943C83.8164,-276.5499 115.5217,-323.9464 157,-345.5 217.851,-377.1203 295.6746,-383.7669 354.8503,-383.1181"/>
<polygon fill="#191970" stroke="#191970" points="354.9914,-386.6162 364.9264,-382.9357 354.8646,-379.6173 354.9914,-386.6162"/>
</g>
<!-- Node23 -->
<g id="node23" class="node">
<title>Node23</title>
<g id="a_node23"><a xlink:href="../../da/d9f/classCbmRichHitProducer.html#a5961dcd84f1953e545bcf8a908b4959e" target="_top" xlink:title="Finds hit position in MAMPT plane.">
<polygon fill="none" stroke="#000000" points="176,-270.5 176,-302.5 310,-302.5 310,-270.5 176,-270.5"/>
<text text-anchor="start" x="184" y="-289.5" font-family="FreeSans" font-size="10.00" fill="#000000">CbmRichHitProducer</text>
<text text-anchor="middle" x="243" y="-277.5" font-family="FreeSans" font-size="10.00" fill="#000000">::FindRichHitPositionCsI</text>
</a>
</g>
</g>
<!-- Node1&#45;&gt;Node23 -->
<g id="edge24" class="edge">
<title>Node1&#45;&gt;Node23</title>
<path fill="none" stroke="#191970" d="M118.2441,-251.6367C136.563,-256.756 156.974,-262.4598 175.893,-267.7468"/>
<polygon fill="#191970" stroke="#191970" points="175.0585,-271.1476 185.6315,-270.4683 176.9425,-264.4059 175.0585,-271.1476"/>
</g>
<!-- Node24 -->
<g id="node24" class="node">
<title>Node24</title>
<g id="a_node24"><a xlink:href="../../da/d9f/classCbmRichHitProducer.html#a8dee8e93ef0dc4f559de7770193f6f69" target="_top" xlink:title="Finds hit position in PMT plane.">
<polygon fill="none" stroke="#000000" points="157,-219.5 157,-251.5 329,-251.5 329,-219.5 157,-219.5"/>
<text text-anchor="start" x="165" y="-238.5" font-family="FreeSans" font-size="10.00" fill="#000000">CbmRichHitProducer</text>
<text text-anchor="middle" x="243" y="-226.5" font-family="FreeSans" font-size="10.00" fill="#000000">::FindRichHitPositionSinglePMT</text>
</a>
</g>
</g>
<!-- Node1&#45;&gt;Node24 -->
<g id="edge26" class="edge">
<title>Node1&#45;&gt;Node24</title>
<path fill="none" stroke="#191970" d="M121.0164,-235.5C129.2943,-235.5 137.9543,-235.5 146.6763,-235.5"/>
<polygon fill="#191970" stroke="#191970" points="146.9246,-239.0001 156.9245,-235.5 146.9245,-232.0001 146.9246,-239.0001"/>
</g>
<!-- Node25 -->
<g id="node25" class="node">
<title>Node25</title>
<g id="a_node25"><a xlink:href="../../dc/d28/classFairMCPoint.html#a744a96c970cac3049b090d3a3528d1d4" target="_top" xlink:title="FairMCPoint::GetDetectorID">
<polygon fill="none" stroke="#000000" points="166,-180.5 166,-200.5 320,-200.5 320,-180.5 166,-180.5"/>
<text text-anchor="middle" x="243" y="-187.5" font-family="FreeSans" font-size="10.00" fill="#000000">FairMCPoint::GetDetectorID</text>
</a>
</g>
</g>
<!-- Node1&#45;&gt;Node25 -->
<g id="edge28" class="edge">
<title>Node1&#45;&gt;Node25</title>
<path fill="none" stroke="#191970" d="M118.3063,-219.4636C131.0248,-216.0644 144.445,-212.5765 157,-209.5 166.2588,-207.2312 176.1084,-204.9406 185.712,-202.7734"/>
<polygon fill="#191970" stroke="#191970" points="186.5992,-206.1615 195.5957,-200.5657 185.0732,-199.3299 186.5992,-206.1615"/>
</g>
<!-- Node26 -->
<g id="node26" class="node">
<title>Node26</title>
<g id="a_node26"><a xlink:href="../../dc/d28/classFairMCPoint.html#a2325364fcba18c178712a96962861380" target="_top" xlink:title="FairMCPoint::Momentum">
<polygon fill="none" stroke="#000000" points="173.5,-141.5 173.5,-161.5 312.5,-161.5 312.5,-141.5 173.5,-141.5"/>
<text text-anchor="middle" x="243" y="-148.5" font-family="FreeSans" font-size="10.00" fill="#000000">FairMCPoint::Momentum</text>
</a>
</g>
</g>
<!-- Node1&#45;&gt;Node26 -->
<g id="edge29" class="edge">
<title>Node1&#45;&gt;Node26</title>
<path fill="none" stroke="#191970" d="M79.5564,-219.4635C98.162,-204.6144 127.8535,-182.9987 157,-170.5 162.3116,-168.2223 167.9294,-166.2029 173.6473,-164.4154"/>
<polygon fill="#191970" stroke="#191970" points="174.6909,-167.7571 183.3281,-161.6211 172.7496,-161.0317 174.6909,-167.7571"/>
</g>
<!-- Node27 -->
<g id="node27" class="node">
<title>Node27</title>
<g id="a_node27"><a xlink:href="../../dc/d28/classFairMCPoint.html#a0949a92900370ab5d7d80b4f01843aee" target="_top" xlink:title="FairMCPoint::Position">
<polygon fill="none" stroke="#000000" points="182.5,-102.5 182.5,-122.5 303.5,-122.5 303.5,-102.5 182.5,-102.5"/>
<text text-anchor="middle" x="243" y="-109.5" font-family="FreeSans" font-size="10.00" fill="#000000">FairMCPoint::Position</text>
</a>
</g>
</g>
<!-- Node1&#45;&gt;Node27 -->
<g id="edge30" class="edge">
<title>Node1&#45;&gt;Node27</title>
<path fill="none" stroke="#191970" d="M70.7928,-219.2701C86.4486,-195.9986 118.5272,-153.5338 157,-131.5 161.8099,-128.7453 166.982,-126.3898 172.3172,-124.3757"/>
<polygon fill="#191970" stroke="#191970" points="173.6882,-127.6074 182.054,-121.1064 171.46,-120.9715 173.6882,-127.6074"/>
</g>
<!-- Node28 -->
<g id="node28" class="node">
<title>Node28</title>
<g id="a_node28"><a xlink:href="../../da/d9f/classCbmRichHitProducer.html#a206e6537f3f2ad4ab0a4918d13e37bba" target="_top" xlink:title="Set parameters of the photodetector.">
<polygon fill="none" stroke="#000000" points="182.5,-51.5 182.5,-83.5 303.5,-83.5 303.5,-51.5 182.5,-51.5"/>
<text text-anchor="start" x="190.5" y="-70.5" font-family="FreeSans" font-size="10.00" fill="#000000">CbmRichHitProducer</text>
<text text-anchor="middle" x="243" y="-58.5" font-family="FreeSans" font-size="10.00" fill="#000000">::SetPhotoDetPar</text>
</a>
</g>
</g>
<!-- Node1&#45;&gt;Node28 -->
<g id="edge31" class="edge">
<title>Node1&#45;&gt;Node28</title>
<path fill="none" stroke="#191970" d="M67.0648,-219.0431C79.8104,-189.217 110.7777,-126.2038 157,-92.5 161.8291,-88.9788 167.1468,-85.9514 172.6975,-83.3489"/>
<polygon fill="#191970" stroke="#191970" points="174.3456,-86.4531 182.2139,-79.358 171.6384,-79.9978 174.3456,-86.4531"/>
</g>
<!-- Node29 -->
<g id="node29" class="node">
<title>Node29</title>
<g id="a_node29"><a xlink:href="../../da/d9f/classCbmRichHitProducer.html#afac25abb4f242aab98833b1d60049094" target="_top" xlink:title="CbmRichHitProducer\l::TiltPoint">
<polygon fill="none" stroke="#000000" points="182.5,-.5 182.5,-32.5 303.5,-32.5 303.5,-.5 182.5,-.5"/>
<text text-anchor="start" x="190.5" y="-19.5" font-family="FreeSans" font-size="10.00" fill="#000000">CbmRichHitProducer</text>
<text text-anchor="middle" x="243" y="-7.5" font-family="FreeSans" font-size="10.00" fill="#000000">::TiltPoint</text>
</a>
</g>
</g>
<!-- Node1&#45;&gt;Node29 -->
<g id="edge32" class="edge">
<title>Node1&#45;&gt;Node29</title>
<path fill="none" stroke="#191970" d="M63.8499,-219.4743C72.4482,-182.3848 98.8338,-90.1019 157,-41.5 161.8547,-37.4436 167.3386,-34.045 173.1291,-31.1978"/>
<polygon fill="#191970" stroke="#191970" points="174.6529,-34.352 182.4345,-27.1619 171.8675,-27.93 174.6529,-34.352"/>
</g>
<!-- Node2&#45;&gt;Node3 -->
<g id="edge2" class="edge">
<title>Node2&#45;&gt;Node3</title>
<path fill="none" stroke="#191970" d="M303.7007,-433.0318C325.4877,-438.2477 350.2427,-444.1741 372.8045,-449.5754"/>
<polygon fill="#191970" stroke="#191970" points="372.1198,-453.0103 382.6599,-451.9348 373.7496,-446.2027 372.1198,-453.0103"/>
</g>
<!-- Node2&#45;&gt;Node5 -->
<g id="edge22" class="edge">
<title>Node2&#45;&gt;Node5</title>
<path fill="none" stroke="#191970" d="M303.6382,-431.84C364.5247,-441.6179 458.2126,-446.404 522,-401.5 555.2132,-378.1192 528.083,-344.9727 558,-317.5 559.9132,-315.7431 561.953,-314.1094 564.0903,-312.5903"/>
<polygon fill="#191970" stroke="#191970" points="566.0583,-315.4893 572.757,-307.2808 562.4015,-309.5203 566.0583,-315.4893"/>
</g>
<!-- Node2&#45;&gt;Node22 -->
<g id="edge21" class="edge">
<title>Node2&#45;&gt;Node22</title>
<path fill="none" stroke="#191970" d="M303.7007,-405.7846C320.5249,-402.2604 339.1188,-398.3654 357.106,-394.5975"/>
<polygon fill="#191970" stroke="#191970" points="357.9514,-397.9965 367.0214,-392.5205 356.5162,-391.1452 357.9514,-397.9965"/>
</g>
<!-- Node4 -->
<g id="node4" class="node">
<title>Node4</title>
<g id="a_node4"><a xlink:href="../../d4/d02/classCbmBaseHit.html#ac498c6d5b9a987d3e3355d6f60f6404c" target="_top" xlink:title="CbmBaseHit::GetAddress">
<polygon fill="none" stroke="#000000" points="561.5,-651.5 561.5,-671.5 705.5,-671.5 705.5,-651.5 561.5,-651.5"/>
<text text-anchor="middle" x="633.5" y="-658.5" font-family="FreeSans" font-size="10.00" fill="#000000">CbmBaseHit::GetAddress</text>
</a>
</g>
</g>
<!-- Node3&#45;&gt;Node4 -->
<g id="edge3" class="edge">
<title>Node3&#45;&gt;Node4</title>
<path fill="none" stroke="#191970" d="M449.2225,-482.5194C462.5261,-517.373 498.9724,-600.3348 558,-642.5 560.3715,-644.1941 562.8792,-645.7375 565.4833,-647.1438"/>
<polygon fill="#191970" stroke="#191970" points="564.1079,-650.3642 574.6505,-651.4157 567.0647,-644.0193 564.1079,-650.3642"/>
</g>
<!-- Node3&#45;&gt;Node5 -->
<g id="edge4" class="edge">
<title>Node3&#45;&gt;Node5</title>
<path fill="none" stroke="#191970" d="M502.1836,-450.3416C509.5475,-446.4045 516.4345,-441.5295 522,-435.5 559.19,-395.2095 519.6899,-356.7269 558,-317.5 559.8571,-315.5985 561.8618,-313.8415 563.9814,-312.2182"/>
<polygon fill="#191970" stroke="#191970" points="566.1687,-314.9715 572.6575,-306.5961 562.362,-309.097 566.1687,-314.9715"/>
</g>
<!-- Node7 -->
<g id="node7" class="node">
<title>Node7</title>
<g id="a_node7"><a xlink:href="../../de/dfd/classCbmRichHit.html#a332ae4f4f49472640deec9469b1ffeb1" target="_top" xlink:title="CbmRichHit::GetNPhotons">
<polygon fill="none" stroke="#000000" points="559.5,-612.5 559.5,-632.5 707.5,-632.5 707.5,-612.5 559.5,-612.5"/>
<text text-anchor="middle" x="633.5" y="-619.5" font-family="FreeSans" font-size="10.00" fill="#000000">CbmRichHit::GetNPhotons</text>
</a>
</g>
</g>
<!-- Node3&#45;&gt;Node7 -->
<g id="edge6" class="edge">
<title>Node3&#45;&gt;Node7</title>
<path fill="none" stroke="#191970" d="M452.4608,-482.8788C469.2083,-511.8885 508.1183,-572.1864 558,-603.5 560.9513,-605.3527 564.074,-607.025 567.3034,-608.5343"/>
<polygon fill="#191970" stroke="#191970" points="566.0544,-611.805 576.6341,-612.3712 568.7166,-605.331 566.0544,-611.805"/>
</g>
<!-- Node8 -->
<g id="node8" class="node">
<title>Node8</title>
<g id="a_node8"><a xlink:href="../../de/dfd/classCbmRichHit.html#a699bbd5465b26dbc07ef7a319ccabe8b" target="_top" xlink:title="CbmRichHit::GetPmtId">
<polygon fill="none" stroke="#000000" points="569,-573.5 569,-593.5 698,-593.5 698,-573.5 569,-573.5"/>
<text text-anchor="middle" x="633.5" y="-580.5" font-family="FreeSans" font-size="10.00" fill="#000000">CbmRichHit::GetPmtId</text>
</a>
</g>
</g>
<!-- Node3&#45;&gt;Node8 -->
<g id="edge7" class="edge">
<title>Node3&#45;&gt;Node8</title>
<path fill="none" stroke="#191970" d="M457.729,-482.6605C477.874,-504.523 516.8616,-543.228 558,-564.5 562.0258,-566.5817 566.2923,-568.444 570.6674,-570.1088"/>
<polygon fill="#191970" stroke="#191970" points="569.7726,-573.5022 580.3673,-573.4459 572.0499,-566.883 569.7726,-573.5022"/>
</g>
<!-- Node9 -->
<g id="node9" class="node">
<title>Node9</title>
<g id="a_node9"><a xlink:href="../../d4/d02/classCbmBaseHit.html#aaa31bff13cffebc93a0030a6ead0753f" target="_top" xlink:title="CbmBaseHit::SetAddress">
<polygon fill="none" stroke="#000000" points="562.5,-534.5 562.5,-554.5 704.5,-554.5 704.5,-534.5 562.5,-534.5"/>
<text text-anchor="middle" x="633.5" y="-541.5" font-family="FreeSans" font-size="10.00" fill="#000000">CbmBaseHit::SetAddress</text>
</a>
</g>
</g>
<!-- Node3&#45;&gt;Node9 -->
<g id="edge8" class="edge">
<title>Node3&#45;&gt;Node9</title>
<path fill="none" stroke="#191970" d="M470.4514,-482.6346C493.1556,-495.6707 526.8298,-513.7259 558,-525.5 563.9744,-527.7568 570.3155,-529.8277 576.6842,-531.7046"/>
<polygon fill="#191970" stroke="#191970" points="576.0935,-535.1735 586.6664,-534.493 577.9768,-528.4316 576.0935,-535.1735"/>
</g>
<!-- Node10 -->
<g id="node10" class="node">
<title>Node10</title>
<g id="a_node10"><a xlink:href="../../de/dfd/classCbmRichHit.html#ad0839484e6edbcd03ec37460d4c34afd" target="_top" xlink:title="CbmRichHit::SetAmplitude">
<polygon fill="none" stroke="#000000" points="558,-495.5 558,-515.5 709,-515.5 709,-495.5 558,-495.5"/>
<text text-anchor="middle" x="633.5" y="-502.5" font-family="FreeSans" font-size="10.00" fill="#000000">CbmRichHit::SetAmplitude</text>
</a>
</g>
</g>
<!-- Node3&#45;&gt;Node10 -->
<g id="edge9" class="edge">
<title>Node3&#45;&gt;Node10</title>
<path fill="none" stroke="#191970" d="M504.1396,-478.9471C526.6484,-483.5673 552.1315,-488.7981 574.4926,-493.3879"/>
<polygon fill="#191970" stroke="#191970" points="574.0254,-496.865 584.5249,-495.4472 575.4329,-490.0079 574.0254,-496.865"/>
</g>
<!-- Node11 -->
<g id="node11" class="node">
<title>Node11</title>
<g id="a_node11"><a xlink:href="../../de/dfd/classCbmRichHit.html#a88a636426386c37c6725174e755df446" target="_top" xlink:title="CbmRichHit::SetNPhotons">
<polygon fill="none" stroke="#000000" points="560,-456.5 560,-476.5 707,-476.5 707,-456.5 560,-456.5"/>
<text text-anchor="middle" x="633.5" y="-463.5" font-family="FreeSans" font-size="10.00" fill="#000000">CbmRichHit::SetNPhotons</text>
</a>
</g>
</g>
<!-- Node3&#45;&gt;Node11 -->
<g id="edge10" class="edge">
<title>Node3&#45;&gt;Node11</title>
<path fill="none" stroke="#191970" d="M504.1396,-466.5C518.661,-466.5 534.4203,-466.5 549.7806,-466.5"/>
<polygon fill="#191970" stroke="#191970" points="549.7999,-470.0001 559.7999,-466.5 549.7999,-463.0001 549.7999,-470.0001"/>
</g>
<!-- Node12 -->
<g id="node12" class="node">
<title>Node12</title>
<g id="a_node12"><a xlink:href="../../de/dfd/classCbmRichHit.html#a9afb863f9cc945867ddf7b85100ee199" target="_top" xlink:title="CbmRichHit::SetPmtId">
<polygon fill="none" stroke="#000000" points="569.5,-417.5 569.5,-437.5 697.5,-437.5 697.5,-417.5 569.5,-417.5"/>
<text text-anchor="middle" x="633.5" y="-424.5" font-family="FreeSans" font-size="10.00" fill="#000000">CbmRichHit::SetPmtId</text>
</a>
</g>
</g>
<!-- Node3&#45;&gt;Node12 -->
<g id="edge11" class="edge">
<title>Node3&#45;&gt;Node12</title>
<path fill="none" stroke="#191970" d="M504.1396,-454.0529C526.6484,-449.4327 552.1315,-444.2019 574.4926,-439.6121"/>
<polygon fill="#191970" stroke="#191970" points="575.4329,-442.9921 584.5249,-437.5528 574.0254,-436.135 575.4329,-442.9921"/>
</g>
<!-- Node13 -->
<g id="node13" class="node">
<title>Node13</title>
<g id="a_node13"><a xlink:href="../../d6/d31/classCbmPixelHit.html#afd1a35b74ed6dc655df95d591af3fa72" target="_top" xlink:title="Sets position of the hit.">
<polygon fill="none" stroke="#000000" points="563.5,-378.5 563.5,-398.5 703.5,-398.5 703.5,-378.5 563.5,-378.5"/>
<text text-anchor="middle" x="633.5" y="-385.5" font-family="FreeSans" font-size="10.00" fill="#000000">CbmPixelHit::SetPosition</text>
</a>
</g>
</g>
<!-- Node3&#45;&gt;Node13 -->
<g id="edge12" class="edge">
<title>Node3&#45;&gt;Node13</title>
<path fill="none" stroke="#191970" d="M490.594,-450.4286C501.1946,-446.1248 512.2008,-441.0921 522,-435.5 539.6048,-425.4534 539.7817,-416.3858 558,-407.5 562.3279,-405.3891 566.9133,-403.4978 571.6008,-401.8058"/>
<polygon fill="#191970" stroke="#191970" points="572.9127,-405.0588 581.316,-398.6063 570.723,-398.4101 572.9127,-405.0588"/>
</g>
<!-- Node17 -->
<g id="node17" class="node">
<title>Node17</title>
<g id="a_node17"><a xlink:href="../../d6/d31/classCbmPixelHit.html#ae314b0902ad674063b8ff32e123b327d" target="_top" xlink:title="CbmPixelHit::SetPosition\lError">
<polygon fill="none" stroke="#000000" points="563.5,-327.5 563.5,-359.5 703.5,-359.5 703.5,-327.5 563.5,-327.5"/>
<text text-anchor="start" x="571.5" y="-346.5" font-family="FreeSans" font-size="10.00" fill="#000000">CbmPixelHit::SetPosition</text>
<text text-anchor="middle" x="633.5" y="-334.5" font-family="FreeSans" font-size="10.00" fill="#000000">Error</text>
</a>
</g>
</g>
<!-- Node3&#45;&gt;Node17 -->
<g id="edge16" class="edge">
<title>Node3&#45;&gt;Node17</title>
<path fill="none" stroke="#191970" d="M498.722,-450.4757C507.1072,-446.4688 515.2118,-441.5374 522,-435.5 547.2591,-413.0346 532.1181,-390.245 558,-368.5 559.5065,-367.2343 561.0791,-366.0321 562.706,-364.8902"/>
<polygon fill="#191970" stroke="#191970" points="564.5346,-367.8746 571.2362,-359.6685 560.8799,-361.9043 564.5346,-367.8746"/>
</g>
<!-- Node21 -->
<g id="node21" class="node">
<title>Node21</title>
<g id="a_node21"><a xlink:href="../../d4/d02/classCbmBaseHit.html#a3534ff3bf3df40e4b80ae1fa80a82dc7" target="_top" xlink:title="CbmBaseHit::SetRefId">
<polygon fill="none" stroke="#000000" points="570,-690.5 570,-710.5 697,-710.5 697,-690.5 570,-690.5"/>
<text text-anchor="middle" x="633.5" y="-697.5" font-family="FreeSans" font-size="10.00" fill="#000000">CbmBaseHit::SetRefId</text>
</a>
</g>
</g>
<!-- Node3&#45;&gt;Node21 -->
<g id="edge20" class="edge">
<title>Node3&#45;&gt;Node21</title>
<path fill="none" stroke="#191970" d="M447.268,-482.6317C457.5316,-522.8596 489.8917,-628.2041 558,-681.5 559.8595,-682.9551 561.8168,-684.3 563.8498,-685.5432"/>
<polygon fill="#191970" stroke="#191970" points="562.6903,-688.8837 573.1808,-690.3667 565.9048,-682.6654 562.6903,-688.8837"/>
</g>
<!-- Node6 -->
<g id="node6" class="node">
<title>Node6</title>
<g id="a_node6"><a xlink:href="../../da/d9f/classCbmRichHitProducer.html#aeb7530baec27ff11d8edf220380a71fd" target="_top" xlink:title="Spectrum of the PMT response to one photo&#45;electron.">
<polygon fill="none" stroke="#000000" points="745,-210.5 745,-242.5 876,-242.5 876,-210.5 745,-210.5"/>
<text text-anchor="start" x="753" y="-229.5" font-family="FreeSans" font-size="10.00" fill="#000000">CbmRichHitProducer</text>
<text text-anchor="middle" x="810.5" y="-217.5" font-family="FreeSans" font-size="10.00" fill="#000000">::OnePhotonAmplitude</text>
</a>
</g>
</g>
<!-- Node5&#45;&gt;Node6 -->
<g id="edge5" class="edge">
<title>Node5&#45;&gt;Node6</title>
<path fill="none" stroke="#191970" d="M676.7991,-276.3546C701.2111,-267.2518 731.8955,-255.8101 757.7097,-246.1845"/>
<polygon fill="#191970" stroke="#191970" points="759.1946,-249.3663 767.3415,-242.593 756.7489,-242.8074 759.1946,-249.3663"/>
</g>
<!-- Node14 -->
<g id="node14" class="node">
<title>Node14</title>
<g id="a_node14"><a xlink:href="../../d6/d31/classCbmPixelHit.html#a32ae766bc3e717a679bc8388bb15dde1" target="_top" xlink:title="CbmPixelHit::SetX">
<polygon fill="none" stroke="#000000" points="756.5,-417.5 756.5,-437.5 864.5,-437.5 864.5,-417.5 756.5,-417.5"/>
<text text-anchor="middle" x="810.5" y="-424.5" font-family="FreeSans" font-size="10.00" fill="#000000">CbmPixelHit::SetX</text>
</a>
</g>
</g>
<!-- Node13&#45;&gt;Node14 -->
<g id="edge13" class="edge">
<title>Node13&#45;&gt;Node14</title>
<path fill="none" stroke="#191970" d="M679.0819,-398.5435C702.3086,-403.6612 730.7391,-409.9256 755.2082,-415.3171"/>
<polygon fill="#191970" stroke="#191970" points="754.5537,-418.7567 765.0726,-417.4906 756.06,-411.9207 754.5537,-418.7567"/>
</g>
<!-- Node15 -->
<g id="node15" class="node">
<title>Node15</title>
<g id="a_node15"><a xlink:href="../../d6/d31/classCbmPixelHit.html#a358cbe81cf005199b0be49a3613356c2" target="_top" xlink:title="CbmPixelHit::SetY">
<polygon fill="none" stroke="#000000" points="757,-378.5 757,-398.5 864,-398.5 864,-378.5 757,-378.5"/>
<text text-anchor="middle" x="810.5" y="-385.5" font-family="FreeSans" font-size="10.00" fill="#000000">CbmPixelHit::SetY</text>
</a>
</g>
</g>
<!-- Node13&#45;&gt;Node15 -->
<g id="edge14" class="edge">
<title>Node13&#45;&gt;Node15</title>
<path fill="none" stroke="#191970" d="M703.7093,-388.5C717.7844,-388.5 732.5049,-388.5 746.3613,-388.5"/>
<polygon fill="#191970" stroke="#191970" points="746.764,-392.0001 756.764,-388.5 746.7639,-385.0001 746.764,-392.0001"/>
</g>
<!-- Node16 -->
<g id="node16" class="node">
<title>Node16</title>
<g id="a_node16"><a xlink:href="../../d4/d02/classCbmBaseHit.html#a6c50480ce3b4574fc0c6e651ea255253" target="_top" xlink:title="CbmBaseHit::SetZ">
<polygon fill="none" stroke="#000000" points="756,-456.5 756,-476.5 865,-476.5 865,-456.5 756,-456.5"/>
<text text-anchor="middle" x="810.5" y="-463.5" font-family="FreeSans" font-size="10.00" fill="#000000">CbmBaseHit::SetZ</text>
</a>
</g>
</g>
<!-- Node13&#45;&gt;Node16 -->
<g id="edge15" class="edge">
<title>Node13&#45;&gt;Node16</title>
<path fill="none" stroke="#191970" d="M689.4082,-398.6291C696.2539,-400.9958 702.957,-403.9108 709,-407.5 729.2814,-419.5461 725.0249,-433.9525 745,-446.5 748.6246,-448.7768 752.525,-450.8087 756.5521,-452.6197"/>
<polygon fill="#191970" stroke="#191970" points="755.524,-455.9784 766.1081,-456.4554 758.1315,-449.4822 755.524,-455.9784"/>
</g>
<!-- Node18 -->
<g id="node18" class="node">
<title>Node18</title>
<g id="a_node18"><a xlink:href="../../d6/d31/classCbmPixelHit.html#ac3908bcc04985b3672a04133433ee660" target="_top" xlink:title="CbmPixelHit::SetDx">
<polygon fill="none" stroke="#000000" points="753.5,-300.5 753.5,-320.5 867.5,-320.5 867.5,-300.5 753.5,-300.5"/>
<text text-anchor="middle" x="810.5" y="-307.5" font-family="FreeSans" font-size="10.00" fill="#000000">CbmPixelHit::SetDx</text>
</a>
</g>
</g>
<!-- Node17&#45;&gt;Node18 -->
<g id="edge17" class="edge">
<title>Node17&#45;&gt;Node18</title>
<path fill="none" stroke="#191970" d="M703.7093,-330.4101C717.9224,-327.7602 732.7936,-324.9876 746.7686,-322.3821"/>
<polygon fill="#191970" stroke="#191970" points="747.5749,-325.7922 756.764,-320.5186 746.2918,-318.9108 747.5749,-325.7922"/>
</g>
<!-- Node19 -->
<g id="node19" class="node">
<title>Node19</title>
<g id="a_node19"><a xlink:href="../../d6/d31/classCbmPixelHit.html#a4b8824bf2f3138d9e556709f0eb59a13" target="_top" xlink:title="CbmPixelHit::SetDy">
<polygon fill="none" stroke="#000000" points="753.5,-261.5 753.5,-281.5 867.5,-281.5 867.5,-261.5 753.5,-261.5"/>
<text text-anchor="middle" x="810.5" y="-268.5" font-family="FreeSans" font-size="10.00" fill="#000000">CbmPixelHit::SetDy</text>
</a>
</g>
</g>
<!-- Node17&#45;&gt;Node19 -->
<g id="edge18" class="edge">
<title>Node17&#45;&gt;Node19</title>
<path fill="none" stroke="#191970" d="M687.1836,-327.3477C694.6705,-324.427 702.1413,-321.137 709,-317.5 726.6694,-308.1303 727.1049,-299.4312 745,-290.5 749.0423,-288.4825 753.3348,-286.6444 757.7129,-284.9769"/>
<polygon fill="#191970" stroke="#191970" points="759.0889,-288.2035 767.3707,-281.5958 756.7759,-281.5967 759.0889,-288.2035"/>
</g>
<!-- Node20 -->
<g id="node20" class="node">
<title>Node20</title>
<g id="a_node20"><a xlink:href="../../d4/d02/classCbmBaseHit.html#a5fcdca6078d2e296ff77fcaec386d451" target="_top" xlink:title="CbmBaseHit::SetDz">
<polygon fill="none" stroke="#000000" points="753,-339.5 753,-359.5 868,-359.5 868,-339.5 753,-339.5"/>
<text text-anchor="middle" x="810.5" y="-346.5" font-family="FreeSans" font-size="10.00" fill="#000000">CbmBaseHit::SetDz</text>
</a>
</g>
</g>
<!-- Node17&#45;&gt;Node20 -->
<g id="edge19" class="edge">
<title>Node17&#45;&gt;Node20</title>
<path fill="none" stroke="#191970" d="M703.7093,-345.88C716.5802,-346.3163 729.9907,-346.7709 742.7867,-347.2046"/>
<polygon fill="#191970" stroke="#191970" points="742.7822,-350.7064 752.8951,-347.5473 743.0194,-343.7104 742.7822,-350.7064"/>
</g>
</g>
</svg>
