<?xml version="1.0" encoding="UTF-8" standalone="no"?>
<!DOCTYPE svg PUBLIC "-//W3C//DTD SVG 1.1//EN"
 "http://www.w3.org/Graphics/SVG/1.1/DTD/svg11.dtd">
<!-- Generated by graphviz version 2.40.1 (20161225.0304)
 -->
<!-- Title: EtmDetectorStack::FullLength Pages: 1 -->
<svg width="2003pt" height="700pt"
 viewBox="0.00 0.00 2003.00 700.44" xmlns="http://www.w3.org/2000/svg" xmlns:xlink="http://www.w3.org/1999/xlink">
<g id="graph0" class="graph" transform="scale(1 1) rotate(0) translate(4 696.4373)">
<title>EtmDetectorStack::FullLength</title>
<!-- Node1 -->
<g id="node1" class="node">
<title>Node1</title>
<polygon fill="#bfbfbf" stroke="#000000" points="0,-166 0,-186 166,-186 166,-166 0,-166"/>
<text text-anchor="middle" x="83" y="-173" font-family="FreeSans" font-size="10.00" fill="#000000">EtmDetectorStack::FullLength</text>
</g>
<!-- Node2 -->
<g id="node2" class="node">
<title>Node2</title>
<g id="a_node2"><a xlink:href="../../d8/d51/classEicToyModel.html#a04f57545619e7a517b874740c9aa103b" target="_top" xlink:title="EicToyModel::CalculateDefault\lEtaBoundaries">
<polygon fill="none" stroke="#000000" points="202,-160 202,-192 372,-192 372,-160 202,-160"/>
<text text-anchor="start" x="210" y="-179" font-family="FreeSans" font-size="10.00" fill="#000000">EicToyModel::CalculateDefault</text>
<text text-anchor="middle" x="287" y="-167" font-family="FreeSans" font-size="10.00" fill="#000000">EtaBoundaries</text>
</a>
</g>
</g>
<!-- Node1&#45;&gt;Node2 -->
<g id="edge1" class="edge">
<title>Node1&#45;&gt;Node2</title>
<path fill="none" stroke="#191970" d="M176.4656,-176C184.8695,-176 193.3512,-176 201.6803,-176"/>
<polygon fill="#191970" stroke="#191970" points="176.2689,-172.5001 166.2688,-176 176.2688,-179.5001 176.2689,-172.5001"/>
</g>
<!-- Node3 -->
<g id="node3" class="node">
<title>Node3</title>
<g id="a_node3"><a xlink:href="../../d8/d51/classEicToyModel.html#ae97702960b055eb3be40ad2f03f27846" target="_top" xlink:title="EicToyModel::ExecuteBoundary\lModificationRequests">
<polygon fill="none" stroke="#000000" points="408,-183 408,-215 583,-215 583,-183 408,-183"/>
<text text-anchor="start" x="416" y="-202" font-family="FreeSans" font-size="10.00" fill="#000000">EicToyModel::ExecuteBoundary</text>
<text text-anchor="middle" x="495.5" y="-190" font-family="FreeSans" font-size="10.00" fill="#000000">ModificationRequests</text>
</a>
</g>
</g>
<!-- Node2&#45;&gt;Node3 -->
<g id="edge2" class="edge">
<title>Node2&#45;&gt;Node3</title>
<path fill="none" stroke="#191970" d="M382.1481,-186.496C390.7474,-187.4446 399.43,-188.4023 407.9593,-189.3432"/>
<polygon fill="#191970" stroke="#191970" points="382.4292,-183.0058 372.1057,-185.3882 381.6616,-189.9636 382.4292,-183.0058"/>
</g>
<!-- Node4 -->
<g id="node4" class="node">
<title>Node4</title>
<g id="a_node4"><a xlink:href="../../d8/d51/classEicToyModel.html#af4e85f898ae520f6911845be37c0abf2" target="_top" xlink:title="EicToyModel::DrawMe">
<polygon fill="none" stroke="#000000" points="619,-429 619,-449 745,-449 745,-429 619,-429"/>
<text text-anchor="middle" x="682" y="-436" font-family="FreeSans" font-size="10.00" fill="#000000">EicToyModel::DrawMe</text>
</a>
</g>
</g>
<!-- Node3&#45;&gt;Node4 -->
<g id="edge3" class="edge">
<title>Node3&#45;&gt;Node4</title>
<path fill="none" stroke="#191970" d="M514.2015,-223.0662C554.2204,-274.5652 646.7482,-393.6357 674.192,-428.9521"/>
<polygon fill="#191970" stroke="#191970" points="516.9261,-220.8683 508.0264,-215.1197 511.3987,-225.1636 516.9261,-220.8683"/>
</g>
<!-- Node5 -->
<g id="node5" class="node">
<title>Node5</title>
<g id="a_node5"><a xlink:href="../../d8/d51/classEicToyModel.html#a6bd065edd7a47abe1d3f3a44d1853664" target="_top" xlink:title="EicToyModel::acceptance">
<polygon fill="none" stroke="#000000" points="995,-663 995,-683 1138,-683 1138,-663 995,-663"/>
<text text-anchor="middle" x="1066.5" y="-670" font-family="FreeSans" font-size="10.00" fill="#000000">EicToyModel::acceptance</text>
</a>
</g>
</g>
<!-- Node4&#45;&gt;Node5 -->
<g id="edge4" class="edge">
<title>Node4&#45;&gt;Node5</title>
<path fill="none" stroke="#191970" d="M684.55,-459.5316C691.2487,-503.7463 713.7404,-607.702 781,-654 853.2213,-703.7134 961.5674,-693.9082 1021.8955,-683.024"/>
<polygon fill="#191970" stroke="#191970" points="687.9878,-458.8416 683.1406,-449.4206 681.0548,-459.8081 687.9878,-458.8416"/>
</g>
<!-- Node7 -->
<g id="node7" class="node">
<title>Node7</title>
<g id="a_node7"><a xlink:href="../../d8/d51/classEicToyModel.html#a9f033d66f5982d2cb1380f4ae95ba202" target="_top" xlink:title="EicToyModel::AddEtaLine">
<polygon fill="none" stroke="#000000" points="798.5,-624 798.5,-644 940.5,-644 940.5,-624 798.5,-624"/>
<text text-anchor="middle" x="869.5" y="-631" font-family="FreeSans" font-size="10.00" fill="#000000">EicToyModel::AddEtaLine</text>
</a>
</g>
</g>
<!-- Node4&#45;&gt;Node7 -->
<g id="edge6" class="edge">
<title>Node4&#45;&gt;Node7</title>
<path fill="none" stroke="#191970" d="M687.3003,-458.9893C698.2035,-496.0025 726.7954,-575.0668 781,-615 786.1873,-618.8216 791.9831,-621.9064 798.0594,-624.3924"/>
<polygon fill="#191970" stroke="#191970" points="690.6613,-458.0121 684.581,-449.3357 683.9236,-459.9101 690.6613,-458.0121"/>
</g>
<!-- Node8 -->
<g id="node8" class="node">
<title>Node8</title>
<g id="a_node8"><a xlink:href="../../d8/d51/classEicToyModel.html#a7fa858bc595e1fde958138bd1be33e9f" target="_top" xlink:title="EicToyModel::Construct">
<polygon fill="none" stroke="#000000" points="802.5,-585 802.5,-605 936.5,-605 936.5,-585 802.5,-585"/>
<text text-anchor="middle" x="869.5" y="-592" font-family="FreeSans" font-size="10.00" fill="#000000">EicToyModel::Construct</text>
</a>
</g>
</g>
<!-- Node4&#45;&gt;Node8 -->
<g id="edge8" class="edge">
<title>Node4&#45;&gt;Node8</title>
<path fill="none" stroke="#191970" d="M690.5013,-458.7186C704.6344,-489.0155 735.9368,-546.5878 781,-576 787.4482,-580.2087 794.6703,-583.5023 802.1338,-586.077"/>
<polygon fill="#191970" stroke="#191970" points="693.5245,-456.9085 686.2238,-449.2306 687.1431,-459.7855 693.5245,-456.9085"/>
</g>
<!-- Node9 -->
<g id="node9" class="node">
<title>Node9</title>
<g id="a_node9"><a xlink:href="../../d8/d51/classEicToyModel.html#a2aa707f5baa02887602f572605a11b91" target="_top" xlink:title="EicToyModel::draw">
<polygon fill="none" stroke="#000000" points="814.5,-546 814.5,-566 924.5,-566 924.5,-546 814.5,-546"/>
<text text-anchor="middle" x="869.5" y="-553" font-family="FreeSans" font-size="10.00" fill="#000000">EicToyModel::draw</text>
</a>
</g>
</g>
<!-- Node4&#45;&gt;Node9 -->
<g id="edge9" class="edge">
<title>Node4&#45;&gt;Node9</title>
<path fill="none" stroke="#191970" d="M695.1202,-457.2784C712.2446,-479.7075 744.3821,-517.19 781,-537 791.2281,-542.5333 802.9378,-546.4552 814.4181,-549.235"/>
<polygon fill="#191970" stroke="#191970" points="697.8986,-455.1493 689.1191,-449.2188 692.2841,-459.3299 697.8986,-455.1493"/>
</g>
<!-- Node10 -->
<g id="node10" class="node">
<title>Node10</title>
<g id="a_node10"><a xlink:href="../../d8/d51/classEicToyModel.html#a52a22eaffd93d2738a0ad4e1174c3b14" target="_top" xlink:title="EicToyModel::hdraw">
<polygon fill="none" stroke="#000000" points="811,-507 811,-527 928,-527 928,-507 811,-507"/>
<text text-anchor="middle" x="869.5" y="-514" font-family="FreeSans" font-size="10.00" fill="#000000">EicToyModel::hdraw</text>
</a>
</g>
</g>
<!-- Node4&#45;&gt;Node10 -->
<g id="edge10" class="edge">
<title>Node4&#45;&gt;Node10</title>
<path fill="none" stroke="#191970" d="M706.8979,-454.2798C726.4929,-465.8194 754.7784,-481.4226 781,-492 795.6585,-497.913 812.2149,-502.9915 827.009,-506.9965"/>
<polygon fill="#191970" stroke="#191970" points="708.6654,-451.2587 698.2847,-449.1391 705.0778,-457.2695 708.6654,-451.2587"/>
</g>
<!-- Node11 -->
<g id="node11" class="node">
<title>Node11</title>
<g id="a_node11"><a xlink:href="../../d8/d51/classEicToyModel.html#aced6dd817a16ee06a4b51fc9fd3527bd" target="_top" xlink:title="EicToyModel::home">
<polygon fill="none" stroke="#000000" points="812.5,-429 812.5,-449 926.5,-449 926.5,-429 812.5,-429"/>
<text text-anchor="middle" x="869.5" y="-436" font-family="FreeSans" font-size="10.00" fill="#000000">EicToyModel::home</text>
</a>
</g>
</g>
<!-- Node4&#45;&gt;Node11 -->
<g id="edge11" class="edge">
<title>Node4&#45;&gt;Node11</title>
<path fill="none" stroke="#191970" d="M755.2811,-432.3951C774.1912,-432.1231 794.2695,-432.2335 812.231,-432.7264"/>
<polygon fill="#191970" stroke="#191970" points="755.152,-428.8968 745.2175,-432.5788 755.2798,-435.8956 755.152,-428.8968"/>
</g>
<!-- Node25 -->
<g id="node25" class="node">
<title>Node25</title>
<g id="a_node25"><a xlink:href="../../d8/d51/classEicToyModel.html#a220d011e7ba4dbd1c651ea7bbbf21945" target="_top" xlink:title="EicToyModel::ip">
<polygon fill="none" stroke="#000000" points="822.5,-144 822.5,-164 916.5,-164 916.5,-144 822.5,-144"/>
<text text-anchor="middle" x="869.5" y="-151" font-family="FreeSans" font-size="10.00" fill="#000000">EicToyModel::ip</text>
</a>
</g>
</g>
<!-- Node4&#45;&gt;Node25 -->
<g id="edge29" class="edge">
<title>Node4&#45;&gt;Node25</title>
<path fill="none" stroke="#191970" d="M683.1771,-418.7466C687.227,-368.7533 704.9266,-238.7837 781,-173 792.4113,-163.1322 807.7094,-157.9934 822.3745,-155.4245"/>
<polygon fill="#191970" stroke="#191970" points="679.6729,-418.6832 682.458,-428.9054 686.6554,-419.1775 679.6729,-418.6832"/>
</g>
<!-- Node26 -->
<g id="node26" class="node">
<title>Node26</title>
<g id="a_node26"><a xlink:href="../../d8/d51/classEicToyModel.html#a3f57c6e6dad62c300918a54aab8bb8b8" target="_top" xlink:title="EicToyModel::RebuildEverything">
<polygon fill="none" stroke="#000000" points="781,-261 781,-281 958,-281 958,-261 781,-261"/>
<text text-anchor="middle" x="869.5" y="-268" font-family="FreeSans" font-size="10.00" fill="#000000">EicToyModel::RebuildEverything</text>
</a>
</g>
</g>
<!-- Node4&#45;&gt;Node26 -->
<g id="edge32" class="edge">
<title>Node4&#45;&gt;Node26</title>
<path fill="none" stroke="#191970" d="M690.1143,-419.6347C704.059,-388.7409 735.5256,-328.484 781,-296 790.0942,-289.5037 800.8319,-284.6909 811.6345,-281.1266"/>
<polygon fill="#191970" stroke="#191970" points="686.861,-418.3389 686.062,-428.9035 693.2748,-421.143 686.861,-418.3389"/>
</g>
<!-- Node28 -->
<g id="node28" class="node">
<title>Node28</title>
<g id="a_node28"><a xlink:href="../../d8/d51/classEicToyModel.html#a4dbbfeb27b0e2ea002539841fd8ef1db" target="_top" xlink:title="EicToyModel::vdraw">
<polygon fill="none" stroke="#000000" points="811.5,-222 811.5,-242 927.5,-242 927.5,-222 811.5,-222"/>
<text text-anchor="middle" x="869.5" y="-229" font-family="FreeSans" font-size="10.00" fill="#000000">EicToyModel::vdraw</text>
</a>
</g>
</g>
<!-- Node4&#45;&gt;Node28 -->
<g id="edge34" class="edge">
<title>Node4&#45;&gt;Node28</title>
<path fill="none" stroke="#191970" d="M686.6696,-418.9454C696.7699,-380.2451 724.4404,-295.2721 781,-252 789.7574,-245.3 800.3426,-240.7687 811.1012,-237.721"/>
<polygon fill="#191970" stroke="#191970" points="683.1939,-418.42 684.1813,-428.9687 689.9877,-420.1066 683.1939,-418.42"/>
</g>
<!-- Node29 -->
<g id="node29" class="node">
<title>Node29</title>
<g id="a_node29"><a xlink:href="../../d8/d51/classEicToyModel.html#a31dff983301cdf101672d8195e3723ad" target="_top" xlink:title="EicToyModel::zoom">
<polygon fill="none" stroke="#000000" points="813.5,-183 813.5,-203 925.5,-203 925.5,-183 813.5,-183"/>
<text text-anchor="middle" x="869.5" y="-190" font-family="FreeSans" font-size="10.00" fill="#000000">EicToyModel::zoom</text>
</a>
</g>
</g>
<!-- Node4&#45;&gt;Node29 -->
<g id="edge35" class="edge">
<title>Node4&#45;&gt;Node29</title>
<path fill="none" stroke="#191970" d="M684.6947,-418.866C691.758,-374.396 715.0559,-267.4359 781,-213 790.2323,-205.3788 801.7829,-200.5201 813.4616,-197.4552"/>
<polygon fill="#191970" stroke="#191970" points="681.1993,-418.5789 683.2018,-428.9828 688.1243,-419.6009 681.1993,-418.5789"/>
</g>
<!-- Node6 -->
<g id="node6" class="node">
<title>Node6</title>
<g id="a_node6"><a xlink:href="../../d8/d51/classEicToyModel.html#a7c8f27079b57a2f4d7df2850e0046189" target="_top" xlink:title="EicToyModel::EicToyModel">
<polygon fill="none" stroke="#000000" points="1188.5,-663 1188.5,-683 1335.5,-683 1335.5,-663 1188.5,-663"/>
<text text-anchor="middle" x="1262" y="-670" font-family="FreeSans" font-size="10.00" fill="#000000">EicToyModel::EicToyModel</text>
</a>
</g>
</g>
<!-- Node5&#45;&gt;Node6 -->
<g id="edge5" class="edge">
<title>Node5&#45;&gt;Node6</title>
<path fill="none" stroke="#191970" d="M1148.2609,-673C1161.5602,-673 1175.2653,-673 1188.3554,-673"/>
<polygon fill="#191970" stroke="#191970" points="1148.1869,-669.5001 1138.1869,-673 1148.1868,-676.5001 1148.1869,-669.5001"/>
</g>
<!-- Node7&#45;&gt;Node5 -->
<g id="edge7" class="edge">
<title>Node7&#45;&gt;Node5</title>
<path fill="none" stroke="#191970" d="M930.1329,-646.0035C957.6294,-651.4469 989.7698,-657.8098 1015.9395,-662.9906"/>
<polygon fill="#191970" stroke="#191970" points="930.7217,-642.5522 920.2324,-644.0435 929.3623,-649.4189 930.7217,-642.5522"/>
</g>
<!-- Node11&#45;&gt;Node4 -->
<g id="edge16" class="edge">
<title>Node11&#45;&gt;Node4</title>
<path fill="none" stroke="#191970" d="M802.1032,-445.5072C783.5588,-445.8574 763.517,-445.8288 745.2175,-445.4212"/>
<polygon fill="#191970" stroke="#191970" points="802.3144,-449.0033 812.231,-445.2736 802.1529,-442.0052 802.3144,-449.0033"/>
</g>
<!-- Node12 -->
<g id="node12" class="node">
<title>Node12</title>
<g id="a_node12"><a xlink:href="../../dc/d44/classEtmDetectorStack.html#a95ab7230cc4c9cc96eb5dfe1735d3726" target="_top" xlink:title="EtmDetectorStack::add">
<polygon fill="none" stroke="#000000" points="1000,-390 1000,-410 1133,-410 1133,-390 1000,-390"/>
<text text-anchor="middle" x="1066.5" y="-397" font-family="FreeSans" font-size="10.00" fill="#000000">EtmDetectorStack::add</text>
</a>
</g>
</g>
<!-- Node11&#45;&gt;Node12 -->
<g id="edge12" class="edge">
<title>Node11&#45;&gt;Node12</title>
<path fill="none" stroke="#191970" d="M930.1329,-426.9965C957.6294,-421.5531 989.7698,-415.1902 1015.9395,-410.0094"/>
<polygon fill="#191970" stroke="#191970" points="929.3623,-423.5811 920.2324,-428.9565 930.7217,-430.4478 929.3623,-423.5811"/>
</g>
<!-- Node16 -->
<g id="node16" class="node">
<title>Node16</title>
<g id="a_node16"><a xlink:href="../../d8/d51/classEicToyModel.html#a5820b1b3e0812ce427cc6de75d3f3b3b" target="_top" xlink:title="EicToyModel::full">
<polygon fill="none" stroke="#000000" points="1016.5,-351 1016.5,-371 1116.5,-371 1116.5,-351 1016.5,-351"/>
<text text-anchor="middle" x="1066.5" y="-358" font-family="FreeSans" font-size="10.00" fill="#000000">EicToyModel::full</text>
</a>
</g>
</g>
<!-- Node11&#45;&gt;Node16 -->
<g id="edge17" class="edge">
<title>Node11&#45;&gt;Node16</title>
<path fill="none" stroke="#191970" d="M897.6827,-424.2183C922.5488,-411.5789 960.02,-393.5026 994,-381 1004.0481,-377.3029 1015.0977,-373.9222 1025.4762,-371.0346"/>
<polygon fill="#191970" stroke="#191970" points="895.7832,-421.259 888.4842,-428.9385 898.9791,-427.4869 895.7832,-421.259"/>
</g>
<!-- Node17 -->
<g id="node17" class="node">
<title>Node17</title>
<g id="a_node17"><a xlink:href="../../d8/d51/classEicToyModel.html#ad9f3601f26b5016327022d637c27acd6" target="_top" xlink:title="EicToyModel::ir">
<polygon fill="none" stroke="#000000" points="1020.5,-585 1020.5,-605 1112.5,-605 1112.5,-585 1020.5,-585"/>
<text text-anchor="middle" x="1066.5" y="-592" font-family="FreeSans" font-size="10.00" fill="#000000">EicToyModel::ir</text>
</a>
</g>
</g>
<!-- Node11&#45;&gt;Node17 -->
<g id="edge18" class="edge">
<title>Node11&#45;&gt;Node17</title>
<path fill="none" stroke="#191970" d="M936.3011,-449.9682C944.2974,-453.4559 951.8066,-458.0238 958,-464 995.6256,-500.3063 956.0311,-540.053 994,-576 1001.2757,-582.8882 1010.7336,-587.3517 1020.4028,-590.2258"/>
<polygon fill="#191970" stroke="#191970" points="937.3317,-446.616 926.7402,-446.3505 934.8544,-453.163 937.3317,-446.616"/>
</g>
<!-- Node18 -->
<g id="node18" class="node">
<title>Node18</title>
<g id="a_node18"><a xlink:href="../../d8/d51/classEicToyModel.html#aab22f6a978191aff7139fcbc4eadd59c" target="_top" xlink:title="EicToyModel::left">
<polygon fill="none" stroke="#000000" points="1015.5,-507 1015.5,-527 1117.5,-527 1117.5,-507 1015.5,-507"/>
<text text-anchor="middle" x="1066.5" y="-514" font-family="FreeSans" font-size="10.00" fill="#000000">EicToyModel::left</text>
</a>
</g>
</g>
<!-- Node11&#45;&gt;Node18 -->
<g id="edge19" class="edge">
<title>Node11&#45;&gt;Node18</title>
<path fill="none" stroke="#191970" d="M930.9877,-452.1923C940.344,-455.373 949.6518,-459.2636 958,-464 977.1416,-474.8602 974.756,-487.3222 994,-498 1000.5991,-501.6616 1007.9294,-504.6393 1015.321,-507.0551"/>
<polygon fill="#191970" stroke="#191970" points="931.8476,-448.7937 921.258,-449.1288 929.7453,-455.4705 931.8476,-448.7937"/>
</g>
<!-- Node20 -->
<g id="node20" class="node">
<title>Node20</title>
<g id="a_node20"><a xlink:href="../../d8/d51/classEicToyModel.html#ab137159398e85be0fd6bd685ca0c1093" target="_top" xlink:title="EicToyModel::legend">
<polygon fill="none" stroke="#000000" points="1007,-312 1007,-332 1126,-332 1126,-312 1007,-312"/>
<text text-anchor="middle" x="1066.5" y="-319" font-family="FreeSans" font-size="10.00" fill="#000000">EicToyModel::legend</text>
</a>
</g>
</g>
<!-- Node11&#45;&gt;Node20 -->
<g id="edge22" class="edge">
<title>Node11&#45;&gt;Node20</title>
<path fill="none" stroke="#191970" d="M886.7052,-421.9346C909.4149,-400.3254 951.5095,-363.3449 994,-342 1001.9339,-338.0144 1010.7683,-334.7351 1019.465,-332.0679"/>
<polygon fill="#191970" stroke="#191970" points="884.2706,-419.42 879.512,-428.8861 889.1351,-424.4536 884.2706,-419.42"/>
</g>
<!-- Node22 -->
<g id="node22" class="node">
<title>Node22</title>
<g id="a_node22"><a xlink:href="../../d8/d51/classEicToyModel.html#a0b9412233cd14d3febc0413c00b19146" target="_top" xlink:title="EicToyModel::mirror">
<polygon fill="none" stroke="#000000" points="1008.5,-468 1008.5,-488 1124.5,-488 1124.5,-468 1008.5,-468"/>
<text text-anchor="middle" x="1066.5" y="-475" font-family="FreeSans" font-size="10.00" fill="#000000">EicToyModel::mirror</text>
</a>
</g>
</g>
<!-- Node11&#45;&gt;Node22 -->
<g id="edge25" class="edge">
<title>Node11&#45;&gt;Node22</title>
<path fill="none" stroke="#191970" d="M930.1329,-451.0035C957.6294,-456.4469 989.7698,-462.8098 1015.9395,-467.9906"/>
<polygon fill="#191970" stroke="#191970" points="930.7217,-447.5522 920.2324,-449.0435 929.3623,-454.4189 930.7217,-447.5522"/>
</g>
<!-- Node23 -->
<g id="node23" class="node">
<title>Node23</title>
<g id="a_node23"><a xlink:href="../../d8/d51/classEicToyModel.html#a72d22a84de7b70c9deaaf5ffdb7bf7fc" target="_top" xlink:title="EicToyModel::right">
<polygon fill="none" stroke="#000000" points="1012,-546 1012,-566 1121,-566 1121,-546 1012,-546"/>
<text text-anchor="middle" x="1066.5" y="-553" font-family="FreeSans" font-size="10.00" fill="#000000">EicToyModel::right</text>
</a>
</g>
</g>
<!-- Node11&#45;&gt;Node23 -->
<g id="edge26" class="edge">
<title>Node11&#45;&gt;Node23</title>
<path fill="none" stroke="#191970" d="M936.1599,-451.1197C944.043,-454.4302 951.5605,-458.642 958,-464 985.8081,-487.1376 965.9732,-514.1277 994,-537 999.2421,-541.278 1005.3459,-544.602 1011.7451,-547.1831"/>
<polygon fill="#191970" stroke="#191970" points="937.3734,-447.8369 926.7805,-447.6329 934.9342,-454.3981 937.3734,-447.8369"/>
</g>
<!-- Node24 -->
<g id="node24" class="node">
<title>Node24</title>
<g id="a_node24"><a xlink:href="../../d8/d51/classEicToyModel.html#afeff0791454bae6a45c9cd9998e335a5" target="_top" xlink:title="EicToyModel::width">
<polygon fill="none" stroke="#000000" points="1010.5,-429 1010.5,-449 1122.5,-449 1122.5,-429 1010.5,-429"/>
<text text-anchor="middle" x="1066.5" y="-436" font-family="FreeSans" font-size="10.00" fill="#000000">EicToyModel::width</text>
</a>
</g>
</g>
<!-- Node11&#45;&gt;Node24 -->
<g id="edge28" class="edge">
<title>Node11&#45;&gt;Node24</title>
<path fill="none" stroke="#191970" d="M936.835,-439C960.815,-439 987.5424,-439 1010.4718,-439"/>
<polygon fill="#191970" stroke="#191970" points="936.7452,-435.5001 926.7452,-439 936.7452,-442.5001 936.7452,-435.5001"/>
</g>
<!-- Node13 -->
<g id="node13" class="node">
<title>Node13</title>
<g id="a_node13"><a xlink:href="../../dc/d44/classEtmDetectorStack.html#a36fb21c36f5eff767aa314d67cd805b2" target="_top" xlink:title="EtmDetectorStack::add">
<polygon fill="none" stroke="#000000" points="1195.5,-351 1195.5,-371 1328.5,-371 1328.5,-351 1195.5,-351"/>
<text text-anchor="middle" x="1262" y="-358" font-family="FreeSans" font-size="10.00" fill="#000000">EtmDetectorStack::add</text>
</a>
</g>
</g>
<!-- Node12&#45;&gt;Node13 -->
<g id="edge13" class="edge">
<title>Node12&#45;&gt;Node13</title>
<path fill="none" stroke="#191970" d="M1126.6712,-387.9965C1153.9584,-382.5531 1185.854,-376.1902 1211.8245,-371.0094"/>
<polygon fill="#191970" stroke="#191970" points="1125.9681,-384.5677 1116.8461,-389.9565 1127.3376,-391.4325 1125.9681,-384.5677"/>
</g>
<!-- Node14 -->
<g id="node14" class="node">
<title>Node14</title>
<g id="a_node14"><a xlink:href="../../dc/d44/classEtmDetectorStack.html#ab20eac8118f0cc6b2cdf93c3d103c6ab" target="_top" xlink:title="EtmDetectorStack::gap">
<polygon fill="none" stroke="#000000" points="1195,-429 1195,-449 1329,-449 1329,-429 1195,-429"/>
<text text-anchor="middle" x="1262" y="-436" font-family="FreeSans" font-size="10.00" fill="#000000">EtmDetectorStack::gap</text>
</a>
</g>
</g>
<!-- Node12&#45;&gt;Node14 -->
<g id="edge14" class="edge">
<title>Node12&#45;&gt;Node14</title>
<path fill="none" stroke="#191970" d="M1126.6712,-412.0035C1153.9584,-417.4469 1185.854,-423.8098 1211.8245,-428.9906"/>
<polygon fill="#191970" stroke="#191970" points="1127.3376,-408.5675 1116.8461,-410.0435 1125.9681,-415.4323 1127.3376,-408.5675"/>
</g>
<!-- Node15 -->
<g id="node15" class="node">
<title>Node15</title>
<g id="a_node15"><a xlink:href="../../dc/d44/classEtmDetectorStack.html#a5808dc25d3fee47a915c6024bb209432" target="_top" xlink:title="EtmDetectorStack::marker">
<polygon fill="none" stroke="#000000" points="1186.5,-390 1186.5,-410 1337.5,-410 1337.5,-390 1186.5,-390"/>
<text text-anchor="middle" x="1262" y="-397" font-family="FreeSans" font-size="10.00" fill="#000000">EtmDetectorStack::marker</text>
</a>
</g>
</g>
<!-- Node12&#45;&gt;Node15 -->
<g id="edge15" class="edge">
<title>Node12&#45;&gt;Node15</title>
<path fill="none" stroke="#191970" d="M1143.4237,-400C1157.5921,-400 1172.3728,-400 1186.4987,-400"/>
<polygon fill="#191970" stroke="#191970" points="1143.2332,-396.5001 1133.2332,-400 1143.2332,-403.5001 1143.2332,-396.5001"/>
</g>
<!-- Node19 -->
<g id="node19" class="node">
<title>Node19</title>
<g id="a_node19"><a xlink:href="../../d8/d51/classEicToyModel.html#a31d39c7784990a42cd2e870611d7f7d4" target="_top" xlink:title="EicToyModel::DrawBeamLine">
<polygon fill="none" stroke="#000000" points="1181.5,-546 1181.5,-566 1342.5,-566 1342.5,-546 1181.5,-546"/>
<text text-anchor="middle" x="1262" y="-553" font-family="FreeSans" font-size="10.00" fill="#000000">EicToyModel::DrawBeamLine</text>
</a>
</g>
</g>
<!-- Node18&#45;&gt;Node19 -->
<g id="edge20" class="edge">
<title>Node18&#45;&gt;Node19</title>
<path fill="none" stroke="#191970" d="M1126.6712,-529.0035C1153.9584,-534.4469 1185.854,-540.8098 1211.8245,-545.9906"/>
<polygon fill="#191970" stroke="#191970" points="1127.3376,-525.5675 1116.8461,-527.0435 1125.9681,-532.4323 1127.3376,-525.5675"/>
</g>
<!-- Node19&#45;&gt;Node4 -->
<g id="edge21" class="edge">
<title>Node19&#45;&gt;Node4</title>
<path fill="none" stroke="#191970" d="M1239.48,-571.7968C1190.0322,-604.3586 1070.3033,-671.3557 994,-615 950.2365,-582.6774 998.1239,-534.7434 958,-498 955.8854,-496.0636 809.2009,-465.3942 730.5677,-449.0611"/>
<polygon fill="#191970" stroke="#191970" points="1241.524,-574.64 1247.8688,-566.155 1237.6175,-568.8314 1241.524,-574.64"/>
</g>
<!-- Node21 -->
<g id="node21" class="node">
<title>Node21</title>
<g id="a_node21"><a xlink:href="../../d8/d51/classEicToyModel.html#a00767e56a3d1f9bc161a4ad91369980a" target="_top" xlink:title="EicToyModel::DrawColorLegend">
<polygon fill="none" stroke="#000000" points="1175,-293 1175,-313 1349,-313 1349,-293 1175,-293"/>
<text text-anchor="middle" x="1262" y="-300" font-family="FreeSans" font-size="10.00" fill="#000000">EicToyModel::DrawColorLegend</text>
</a>
</g>
</g>
<!-- Node20&#45;&gt;Node21 -->
<g id="edge23" class="edge">
<title>Node20&#45;&gt;Node21</title>
<path fill="none" stroke="#191970" d="M1136.5083,-315.1961C1148.9648,-313.9855 1162.0767,-312.7112 1174.9388,-311.4612"/>
<polygon fill="#191970" stroke="#191970" points="1135.8332,-311.7451 1126.2187,-316.1961 1136.5104,-318.7123 1135.8332,-311.7451"/>
</g>
<!-- Node21&#45;&gt;Node4 -->
<g id="edge24" class="edge">
<title>Node21&#45;&gt;Node4</title>
<path fill="none" stroke="#191970" d="M1164.6933,-293.4998C1113.3977,-290.8691 1049.7257,-291.3825 994,-303 873.9709,-328.0232 743.5405,-401.8316 698.4278,-428.8999"/>
<polygon fill="#191970" stroke="#191970" points="1164.6011,-297.0001 1174.7814,-294.0655 1164.9931,-290.011 1164.6011,-297.0001"/>
</g>
<!-- Node23&#45;&gt;Node19 -->
<g id="edge27" class="edge">
<title>Node23&#45;&gt;Node19</title>
<path fill="none" stroke="#191970" d="M1131.4965,-556C1147.459,-556 1164.7389,-556 1181.3402,-556"/>
<polygon fill="#191970" stroke="#191970" points="1131.2176,-552.5001 1121.2176,-556 1131.2176,-559.5001 1131.2176,-552.5001"/>
</g>
<!-- Node25&#45;&gt;Node2 -->
<g id="edge30" class="edge">
<title>Node25&#45;&gt;Node2</title>
<path fill="none" stroke="#191970" d="M812.024,-156.1708C708.9649,-160.0631 492.2955,-168.2464 372.0122,-172.7892"/>
<polygon fill="#191970" stroke="#191970" points="812.3709,-159.6603 822.2317,-155.7852 812.1067,-152.6652 812.3709,-159.6603"/>
</g>
<!-- Node25&#45;&gt;Node3 -->
<g id="edge31" class="edge">
<title>Node25&#45;&gt;Node3</title>
<path fill="none" stroke="#191970" d="M812.0679,-160.9103C751.0408,-168.2531 653.804,-179.9527 583.1864,-188.4495"/>
<polygon fill="#191970" stroke="#191970" points="812.7734,-164.3507 822.2837,-159.6811 811.9371,-157.4009 812.7734,-164.3507"/>
</g>
<!-- Node27 -->
<g id="node27" class="node">
<title>Node27</title>
<g id="a_node27"><a xlink:href="../../d8/d51/classEicToyModel.html#a3f16ef8dcc03a33e1fec1fb00f8ae10c" target="_top" xlink:title="EicToyModel::SetCrossing\lAngle">
<polygon fill="none" stroke="#000000" points="994,-222 994,-254 1139,-254 1139,-222 994,-222"/>
<text text-anchor="start" x="1002" y="-241" font-family="FreeSans" font-size="10.00" fill="#000000">EicToyModel::SetCrossing</text>
<text text-anchor="middle" x="1066.5" y="-229" font-family="FreeSans" font-size="10.00" fill="#000000">Angle</text>
</a>
</g>
</g>
<!-- Node26&#45;&gt;Node27 -->
<g id="edge33" class="edge">
<title>Node26&#45;&gt;Node27</title>
<path fill="none" stroke="#191970" d="M939.572,-259.262C957.1239,-256.3219 975.9929,-253.1611 993.6752,-250.1991"/>
<polygon fill="#191970" stroke="#191970" points="938.6932,-255.8604 929.4089,-260.9645 939.8497,-262.7642 938.6932,-255.8604"/>
</g>
<!-- Node30 -->
<g id="node30" class="node">
<title>Node30</title>
<g id="a_node30"><a xlink:href="../../d3/d21/lqcdpr_8F.html#a028774669b878dc254be7adc6a8b71fc" target="_top" xlink:title="lqcdpr">
<polygon fill="none" stroke="#000000" points="1042,-144 1042,-164 1091,-164 1091,-144 1042,-144"/>
<text text-anchor="middle" x="1066.5" y="-151" font-family="FreeSans" font-size="10.00" fill="#000000">lqcdpr</text>
</a>
</g>
</g>
<!-- Node29&#45;&gt;Node30 -->
<g id="edge36" class="edge">
<title>Node29&#45;&gt;Node30</title>
<path fill="none" stroke="#191970" d="M930.1035,-181.0024C967.7767,-173.5442 1014.1765,-164.3585 1041.9931,-158.8516"/>
<polygon fill="#191970" stroke="#191970" points="929.3623,-177.5811 920.2324,-182.9565 930.7217,-184.4478 929.3623,-177.5811"/>
</g>
<!-- Node44 -->
<g id="node44" class="node">
<title>Node44</title>
<g id="a_node44"><a xlink:href="../../dd/d62/lweits_8F.html#a57410e89a3ce8563c8f3b4e5657ac043" target="_top" xlink:title="lweits">
<polygon fill="none" stroke="#000000" points="1387.5,-183 1387.5,-203 1432.5,-203 1432.5,-183 1387.5,-183"/>
<text text-anchor="middle" x="1410" y="-190" font-family="FreeSans" font-size="10.00" fill="#000000">lweits</text>
</a>
</g>
</g>
<!-- Node29&#45;&gt;Node44 -->
<g id="edge61" class="edge">
<title>Node29&#45;&gt;Node44</title>
<path fill="none" stroke="#191970" d="M935.8449,-193C1057.3884,-193 1310.3654,-193 1387.3108,-193"/>
<polygon fill="#191970" stroke="#191970" points="935.5601,-189.5001 925.5601,-193 935.56,-196.5001 935.5601,-189.5001"/>
</g>
<!-- Node31 -->
<g id="node31" class="node">
<title>Node31</title>
<g id="a_node31"><a xlink:href="../../d3/d7e/lepto_8F.html#a92c27736bffd1a2f7b68ee52c8d3d51a" target="_top" xlink:title="lepto">
<polygon fill="none" stroke="#000000" points="1241,-144 1241,-164 1283,-164 1283,-144 1241,-144"/>
<text text-anchor="middle" x="1262" y="-151" font-family="FreeSans" font-size="10.00" fill="#000000">lepto</text>
</a>
</g>
</g>
<!-- Node30&#45;&gt;Node31 -->
<g id="edge37" class="edge">
<title>Node30&#45;&gt;Node31</title>
<path fill="none" stroke="#191970" d="M1101.4695,-154C1141.9252,-154 1207.2503,-154 1240.7278,-154"/>
<polygon fill="#191970" stroke="#191970" points="1101.2602,-150.5001 1091.2602,-154 1101.2602,-157.5001 1101.2602,-150.5001"/>
</g>
<!-- Node32 -->
<g id="node32" class="node">
<title>Node32</title>
<g id="a_node32"><a xlink:href="../../d3/dcf/dcross_8F.html#a88932f97cf8d3d7de7ac0ef273cc9929" target="_top" xlink:title="dcross">
<polygon fill="none" stroke="#000000" points="1473,-183 1473,-203 1522,-203 1522,-183 1473,-183"/>
<text text-anchor="middle" x="1497.5" y="-190" font-family="FreeSans" font-size="10.00" fill="#000000">dcross</text>
</a>
</g>
</g>
<!-- Node31&#45;&gt;Node32 -->
<g id="edge38" class="edge">
<title>Node31&#45;&gt;Node32</title>
<path fill="none" stroke="#191970" d="M1293.3058,-155.549C1328.19,-157.711 1386.1198,-162.6048 1435,-173 1447.7036,-175.7016 1461.487,-179.9632 1472.8693,-183.8596"/>
<polygon fill="#191970" stroke="#191970" points="1293.4419,-152.0511 1283.255,-154.9626 1293.0342,-159.0392 1293.4419,-152.0511"/>
</g>
<!-- Node35 -->
<g id="node35" class="node">
<title>Node35</title>
<g id="a_node35"><a xlink:href="../../d9/d33/demo_8F.html#a5b31693ae1e23c438c97976df5dabba0" target="_top" xlink:title="demo">
<polygon fill="none" stroke="#000000" points="1925.5,-82 1925.5,-102 1970.5,-102 1970.5,-82 1925.5,-82"/>
<text text-anchor="middle" x="1948" y="-89" font-family="FreeSans" font-size="10.00" fill="#000000">demo</text>
</a>
</g>
</g>
<!-- Node31&#45;&gt;Node35 -->
<g id="edge48" class="edge">
<title>Node31&#45;&gt;Node35</title>
<path fill="none" stroke="#191970" d="M1276.2249,-135.8719C1309.9219,-95.158 1399.1947,0 1497.5,0 1497.5,0 1497.5,0 1767.5,0 1838.9002,0 1910.5625,-57.8495 1937.1747,-81.8029"/>
<polygon fill="#191970" stroke="#191970" points="1273.2997,-133.9226 1269.7234,-143.8956 1278.7384,-138.3295 1273.2997,-133.9226"/>
</g>
<!-- Node36 -->
<g id="node36" class="node">
<title>Node36</title>
<g id="a_node36"><a xlink:href="../../d7/df5/pepsiMaineRHIC__noradcorr_8f.html#ac2ed0c0080f3e6d946824efb82e28ab5" target="_top" xlink:title="pepsimainerhic">
<polygon fill="none" stroke="#000000" points="1901,-198 1901,-218 1995,-218 1995,-198 1901,-198"/>
<text text-anchor="middle" x="1948" y="-205" font-family="FreeSans" font-size="10.00" fill="#000000">pepsimainerhic</text>
</a>
</g>
</g>
<!-- Node31&#45;&gt;Node36 -->
<g id="edge60" class="edge">
<title>Node31&#45;&gt;Node36</title>
<path fill="none" stroke="#191970" d="M1278.3793,-171.7665C1314.2421,-208.6248 1404.0065,-290 1497.5,-290 1497.5,-290 1497.5,-290 1767.5,-290 1836.3378,-290 1907.785,-239.9512 1935.7492,-218.0548"/>
<polygon fill="#191970" stroke="#191970" points="1280.6217,-169.0463 1271.1889,-164.2221 1275.5545,-173.8758 1280.6217,-169.0463"/>
</g>
<!-- Node40 -->
<g id="node40" class="node">
<title>Node40</title>
<g id="a_node40"><a xlink:href="../../d6/dca/lsigmx_8F.html#ade866590be36f33a242025d793dbf067" target="_top" xlink:title="lsigmx">
<polygon fill="none" stroke="#000000" points="1385,-86 1385,-106 1435,-106 1435,-86 1385,-86"/>
<text text-anchor="middle" x="1410" y="-93" font-family="FreeSans" font-size="10.00" fill="#000000">lsigmx</text>
</a>
</g>
</g>
<!-- Node31&#45;&gt;Node40 -->
<g id="edge49" class="edge">
<title>Node31&#45;&gt;Node40</title>
<path fill="none" stroke="#191970" d="M1292.6632,-141.9833C1319.9592,-131.2862 1359.4023,-115.8288 1384.8729,-105.8471"/>
<polygon fill="#191970" stroke="#191970" points="1291.2383,-138.7825 1283.2048,-145.69 1293.7924,-145.2999 1291.2383,-138.7825"/>
</g>
<!-- Node31&#45;&gt;Node44 -->
<g id="edge57" class="edge">
<title>Node31&#45;&gt;Node44</title>
<path fill="none" stroke="#191970" d="M1292.963,-162.1592C1321.1625,-169.5901 1362.1416,-180.3887 1387.3785,-187.0389"/>
<polygon fill="#191970" stroke="#191970" points="1293.7666,-158.7515 1283.2048,-159.5877 1291.9828,-165.5204 1293.7666,-158.7515"/>
</g>
<!-- Node33 -->
<g id="node33" class="node">
<title>Node33</title>
<g id="a_node33"><a xlink:href="../../dc/df8/lxsect_8F.html#ae7a0232c3a9b1d6bed670b06865c60a7" target="_top" xlink:title="lxsect">
<polygon fill="none" stroke="#000000" points="1656.5,-203 1656.5,-223 1702.5,-223 1702.5,-203 1656.5,-203"/>
<text text-anchor="middle" x="1679.5" y="-210" font-family="FreeSans" font-size="10.00" fill="#000000">lxsect</text>
</a>
</g>
</g>
<!-- Node32&#45;&gt;Node33 -->
<g id="edge39" class="edge">
<title>Node32&#45;&gt;Node33</title>
<path fill="none" stroke="#191970" d="M1532.2325,-196.8168C1568.742,-200.8288 1625.1408,-207.0265 1656.4899,-210.4714"/>
<polygon fill="#191970" stroke="#191970" points="1532.3678,-193.3106 1522.0453,-195.6973 1531.6031,-200.2688 1532.3678,-193.3106"/>
</g>
<!-- Node38 -->
<g id="node38" class="node">
<title>Node38</title>
<g id="a_node38"><a xlink:href="../../d3/dd8/riwfun_8F.html#a6ce2cfbaf55bce8bd47c04996de92441" target="_top" xlink:title="riwfun">
<polygon fill="none" stroke="#000000" points="1565,-164 1565,-184 1612,-184 1612,-164 1565,-164"/>
<text text-anchor="middle" x="1588.5" y="-171" font-family="FreeSans" font-size="10.00" fill="#000000">riwfun</text>
</a>
</g>
</g>
<!-- Node32&#45;&gt;Node38 -->
<g id="edge45" class="edge">
<title>Node32&#45;&gt;Node38</title>
<path fill="none" stroke="#191970" d="M1532.4362,-185.7056C1543.3021,-183.4369 1555.0188,-180.9906 1564.9173,-178.9239"/>
<polygon fill="#191970" stroke="#191970" points="1531.4397,-182.3381 1522.3661,-187.8082 1532.8704,-189.1904 1531.4397,-182.3381"/>
</g>
<!-- Node34 -->
<g id="node34" class="node">
<title>Node34</title>
<g id="a_node34"><a xlink:href="../../d2/d41/linit_8F.html#ab348d5fecaf06643ed5e7006c0d70494" target="_top" xlink:title="linit">
<polygon fill="none" stroke="#000000" points="1829,-160 1829,-180 1865,-180 1865,-160 1829,-160"/>
<text text-anchor="middle" x="1847" y="-167" font-family="FreeSans" font-size="10.00" fill="#000000">linit</text>
</a>
</g>
</g>
<!-- Node33&#45;&gt;Node34 -->
<g id="edge40" class="edge">
<title>Node33&#45;&gt;Node34</title>
<path fill="none" stroke="#191970" d="M1712.4831,-204.5327C1747.2033,-195.6194 1800.618,-181.907 1828.5452,-174.7376"/>
<polygon fill="#191970" stroke="#191970" points="1711.6058,-201.1443 1702.7902,-207.021 1713.3464,-207.9245 1711.6058,-201.1443"/>
</g>
<!-- Node37 -->
<g id="node37" class="node">
<title>Node37</title>
<g id="a_node37"><a xlink:href="../../d9/d89/pollinit_8F.html#a27bfa2c538b86c741893fa83166f7138" target="_top" xlink:title="pollinit">
<polygon fill="none" stroke="#000000" points="1742,-135 1742,-155 1793,-155 1793,-135 1742,-135"/>
<text text-anchor="middle" x="1767.5" y="-142" font-family="FreeSans" font-size="10.00" fill="#000000">pollinit</text>
</a>
</g>
</g>
<!-- Node33&#45;&gt;Node37 -->
<g id="edge43" class="edge">
<title>Node33&#45;&gt;Node37</title>
<path fill="none" stroke="#191970" d="M1701.143,-196.711C1702.7889,-195.4584 1704.4225,-194.2107 1706,-193 1722.7611,-180.1355 1741.9319,-165.1254 1754.3515,-155.3617"/>
<polygon fill="#191970" stroke="#191970" points="1698.8723,-194.0402 1693.0133,-202.8676 1703.0983,-199.6206 1698.8723,-194.0402"/>
</g>
<!-- Node34&#45;&gt;Node35 -->
<g id="edge41" class="edge">
<title>Node34&#45;&gt;Node35</title>
<path fill="none" stroke="#191970" d="M1868.1724,-153.649C1888.271,-138.1274 1917.8542,-115.2809 1934.7928,-102.1996"/>
<polygon fill="#191970" stroke="#191970" points="1865.9793,-150.9205 1860.204,-159.8029 1870.2579,-156.4607 1865.9793,-150.9205"/>
</g>
<!-- Node34&#45;&gt;Node36 -->
<g id="edge42" class="edge">
<title>Node34&#45;&gt;Node36</title>
<path fill="none" stroke="#191970" d="M1874.5458,-180.3638C1889.1169,-185.846 1906.9268,-192.5467 1921.3602,-197.9771"/>
<polygon fill="#191970" stroke="#191970" points="1875.6488,-177.0393 1865.0568,-176.7936 1873.1838,-183.5909 1875.6488,-177.0393"/>
</g>
<!-- Node37&#45;&gt;Node34 -->
<g id="edge44" class="edge">
<title>Node37&#45;&gt;Node34</title>
<path fill="none" stroke="#191970" d="M1802.6555,-156.0552C1811.6668,-158.8889 1820.9973,-161.823 1828.7611,-164.2645"/>
<polygon fill="#191970" stroke="#191970" points="1803.6813,-152.7089 1793.0919,-153.0478 1801.5814,-159.3865 1803.6813,-152.7089"/>
</g>
<!-- Node38&#45;&gt;Node33 -->
<g id="edge47" class="edge">
<title>Node38&#45;&gt;Node33</title>
<path fill="none" stroke="#191970" d="M1621.3507,-188.0789C1632.9842,-193.0647 1645.8162,-198.5641 1656.4597,-203.1256"/>
<polygon fill="#191970" stroke="#191970" points="1622.505,-184.7657 1611.9348,-184.0435 1619.7475,-191.1997 1622.505,-184.7657"/>
</g>
<!-- Node39 -->
<g id="node39" class="node">
<title>Node39</title>
<g id="a_node39"><a xlink:href="../../d6/d8f/dfun_8F.html#acb2898b6cd034fce259a6d574bfdee4d" target="_top" xlink:title="dfun">
<polygon fill="none" stroke="#000000" points="1660,-164 1660,-184 1699,-184 1699,-164 1660,-164"/>
<text text-anchor="middle" x="1679.5" y="-171" font-family="FreeSans" font-size="10.00" fill="#000000">dfun</text>
</a>
</g>
</g>
<!-- Node38&#45;&gt;Node39 -->
<g id="edge46" class="edge">
<title>Node38&#45;&gt;Node39</title>
<path fill="none" stroke="#191970" d="M1622.5595,-174C1635.0989,-174 1648.878,-174 1659.7403,-174"/>
<polygon fill="#191970" stroke="#191970" points="1622.4092,-170.5001 1612.4092,-174 1622.4091,-177.5001 1622.4092,-170.5001"/>
</g>
<!-- Node41 -->
<g id="node41" class="node">
<title>Node41</title>
<g id="a_node41"><a xlink:href="../../db/dc0/lmcmnd_8F.html#ade091eb8640ba63ff56629afb16e3877" target="_top" xlink:title="lmcmnd">
<polygon fill="none" stroke="#000000" points="1560,-86 1560,-106 1617,-106 1617,-86 1560,-86"/>
<text text-anchor="middle" x="1588.5" y="-93" font-family="FreeSans" font-size="10.00" fill="#000000">lmcmnd</text>
</a>
</g>
</g>
<!-- Node40&#45;&gt;Node41 -->
<g id="edge50" class="edge">
<title>Node40&#45;&gt;Node41</title>
<path fill="none" stroke="#191970" d="M1445.4651,-95.3204C1453.8381,-95.1871 1462.7338,-95.0678 1471,-95 1494.5548,-94.8069 1500.4452,-94.8174 1524,-95 1535.7589,-95.0911 1548.7225,-95.2758 1559.9245,-95.4618"/>
<polygon fill="#191970" stroke="#191970" points="1445.1648,-91.8249 1435.2255,-95.4937 1445.2834,-98.8239 1445.1648,-91.8249"/>
</g>
<!-- Node42 -->
<g id="node42" class="node">
<title>Node42</title>
<g id="a_node42"><a xlink:href="../../dd/d17/lminew_8F.html#af2712f2788f4a069399a454198d9f8e1" target="_top" xlink:title="lminew">
<polygon fill="none" stroke="#000000" points="1653,-86 1653,-106 1706,-106 1706,-86 1653,-86"/>
<text text-anchor="middle" x="1679.5" y="-93" font-family="FreeSans" font-size="10.00" fill="#000000">lminew</text>
</a>
</g>
</g>
<!-- Node40&#45;&gt;Node42 -->
<g id="edge54" class="edge">
<title>Node40&#45;&gt;Node42</title>
<path fill="none" stroke="#191970" d="M1445.1402,-87.2576C1486.4474,-78.2149 1556.9832,-66.6313 1617,-76 1629.4946,-77.9504 1642.9043,-81.9695 1654.0864,-85.8967"/>
<polygon fill="#191970" stroke="#191970" points="1444.2725,-83.8654 1435.2924,-89.4876 1445.8185,-90.6926 1444.2725,-83.8654"/>
</g>
<!-- Node43 -->
<g id="node43" class="node">
<title>Node43</title>
<g id="a_node43"><a xlink:href="../../d3/d5b/lmsimp_8F.html#a68d357e0cb539cd0ff05fe72786abb07" target="_top" xlink:title="lmsimp">
<polygon fill="none" stroke="#000000" points="1471,-105 1471,-125 1524,-125 1524,-105 1471,-105"/>
<text text-anchor="middle" x="1497.5" y="-112" font-family="FreeSans" font-size="10.00" fill="#000000">lmsimp</text>
</a>
</g>
</g>
<!-- Node40&#45;&gt;Node43 -->
<g id="edge55" class="edge">
<title>Node40&#45;&gt;Node43</title>
<path fill="none" stroke="#191970" d="M1445.3344,-103.6726C1453.8052,-105.512 1462.7134,-107.4463 1470.7233,-109.1856"/>
<polygon fill="#191970" stroke="#191970" points="1445.8236,-100.1973 1435.3086,-101.4956 1444.3382,-107.0379 1445.8236,-100.1973"/>
</g>
<!-- Node41&#45;&gt;Node42 -->
<g id="edge51" class="edge">
<title>Node41&#45;&gt;Node42</title>
<path fill="none" stroke="#191970" d="M1627.4578,-96C1635.9863,-96 1644.8281,-96 1652.7505,-96"/>
<polygon fill="#191970" stroke="#191970" points="1627.293,-92.5001 1617.293,-96 1627.2929,-99.5001 1627.293,-92.5001"/>
</g>
<!-- Node42&#45;&gt;Node34 -->
<g id="edge52" class="edge">
<title>Node42&#45;&gt;Node34</title>
<path fill="none" stroke="#191970" d="M1716.4116,-101.1566C1739.3624,-105.3795 1768.9717,-112.7204 1793,-125 1810.6041,-133.9965 1827.5524,-149.6271 1837.6253,-159.8929"/>
<polygon fill="#191970" stroke="#191970" points="1716.828,-97.6768 1706.3791,-99.4291 1715.6402,-104.5753 1716.828,-97.6768"/>
</g>
<!-- Node42&#45;&gt;Node37 -->
<g id="edge53" class="edge">
<title>Node42&#45;&gt;Node37</title>
<path fill="none" stroke="#191970" d="M1706.8061,-111.2046C1720.6253,-118.8993 1737.0238,-128.0303 1749.2897,-134.8602"/>
<polygon fill="#191970" stroke="#191970" points="1708.1733,-107.9598 1697.7337,-106.1528 1704.7678,-114.0757 1708.1733,-107.9598"/>
</g>
<!-- Node43&#45;&gt;Node41 -->
<g id="edge56" class="edge">
<title>Node43&#45;&gt;Node41</title>
<path fill="none" stroke="#191970" d="M1534.1349,-107.3509C1542.7421,-105.5538 1551.7896,-103.6648 1559.9801,-101.9547"/>
<polygon fill="#191970" stroke="#191970" points="1533.3844,-103.9321 1524.3108,-109.4021 1534.8151,-110.7843 1533.3844,-103.9321"/>
</g>
<!-- Node44&#45;&gt;Node34 -->
<g id="edge58" class="edge">
<title>Node44&#45;&gt;Node34</title>
<path fill="none" stroke="#191970" d="M1436.4604,-207.6577C1470.5414,-225.1312 1532.1144,-252 1588.5,-252 1588.5,-252 1588.5,-252 1679.5,-252 1744.2551,-252 1810.0642,-201.9512 1835.7571,-180.0548"/>
<polygon fill="#191970" stroke="#191970" points="1438.085,-204.5576 1427.6041,-203.0085 1434.8314,-210.7555 1438.085,-204.5576"/>
</g>
<!-- Node44&#45;&gt;Node37 -->
<g id="edge59" class="edge">
<title>Node44&#45;&gt;Node37</title>
<path fill="none" stroke="#191970" d="M1442.2904,-181.703C1451.5049,-178.6732 1461.5967,-175.5375 1471,-173 1510.05,-162.4622 1519.878,-159.1164 1560,-154 1625.0987,-145.6986 1702.5124,-144.6518 1741.8277,-144.7404"/>
<polygon fill="#191970" stroke="#191970" points="1441.0784,-178.4178 1432.7102,-184.9158 1443.3041,-185.0546 1441.0784,-178.4178"/>
</g>
</g>
</svg>
