<?xml version="1.0" encoding="UTF-8" standalone="no"?>
<!DOCTYPE svg PUBLIC "-//W3C//DTD SVG 1.1//EN"
 "http://www.w3.org/Graphics/SVG/1.1/DTD/svg11.dtd">
<!-- Generated by graphviz version 2.40.1 (20161225.0304)
 -->
<!-- Title: EicToyModel::CalculateEtaEndPoint Pages: 1 -->
<svg width="1985pt" height="731pt"
 viewBox="0.00 0.00 1985.00 731.00" xmlns="http://www.w3.org/2000/svg" xmlns:xlink="http://www.w3.org/1999/xlink">
<g id="graph0" class="graph" transform="scale(1 1) rotate(0) translate(4 727)">
<title>EicToyModel::CalculateEtaEndPoint</title>
<!-- Node1 -->
<g id="node1" class="node">
<title>Node1</title>
<polygon fill="#bfbfbf" stroke="#000000" points="0,-601.5 0,-633.5 148,-633.5 148,-601.5 0,-601.5"/>
<text text-anchor="start" x="8" y="-620.5" font-family="FreeSans" font-size="10.00" fill="#000000">EicToyModel::CalculateEta</text>
<text text-anchor="middle" x="74" y="-608.5" font-family="FreeSans" font-size="10.00" fill="#000000">EndPoint</text>
</g>
<!-- Node2 -->
<g id="node2" class="node">
<title>Node2</title>
<g id="a_node2"><a xlink:href="../../d8/d51/classEicToyModel.html#a04f57545619e7a517b874740c9aa103b" target="_top" xlink:title="EicToyModel::CalculateDefault\lEtaBoundaries">
<polygon fill="none" stroke="#000000" points="184,-624.5 184,-656.5 354,-656.5 354,-624.5 184,-624.5"/>
<text text-anchor="start" x="192" y="-643.5" font-family="FreeSans" font-size="10.00" fill="#000000">EicToyModel::CalculateDefault</text>
<text text-anchor="middle" x="269" y="-631.5" font-family="FreeSans" font-size="10.00" fill="#000000">EtaBoundaries</text>
</a>
</g>
</g>
<!-- Node1&#45;&gt;Node2 -->
<g id="edge1" class="edge">
<title>Node1&#45;&gt;Node2</title>
<path fill="none" stroke="#191970" d="M158.4577,-627.4617C166.8714,-628.4541 175.4171,-629.462 183.838,-630.4553"/>
<polygon fill="#191970" stroke="#191970" points="158.6186,-623.9565 148.2774,-626.2609 157.7986,-630.9083 158.6186,-623.9565"/>
</g>
<!-- Node45 -->
<g id="node45" class="node">
<title>Node45</title>
<g id="a_node45"><a xlink:href="../../d8/d51/classEicToyModel.html#a22a582d56536f76e03d4388c50ae695c" target="_top" xlink:title="EicToyModel::DrawEtaLines">
<polygon fill="none" stroke="#000000" points="400.5,-559.5 400.5,-579.5 554.5,-579.5 554.5,-559.5 400.5,-559.5"/>
<text text-anchor="middle" x="477.5" y="-566.5" font-family="FreeSans" font-size="10.00" fill="#000000">EicToyModel::DrawEtaLines</text>
</a>
</g>
</g>
<!-- Node1&#45;&gt;Node45 -->
<g id="edge62" class="edge">
<title>Node1&#45;&gt;Node45</title>
<path fill="none" stroke="#191970" d="M158.3029,-607.4714C229.6058,-598.9893 330.9371,-586.935 400.1823,-578.6976"/>
<polygon fill="#191970" stroke="#191970" points="157.5246,-604.0392 148.0081,-608.6961 158.3516,-610.9902 157.5246,-604.0392"/>
</g>
<!-- Node3 -->
<g id="node3" class="node">
<title>Node3</title>
<g id="a_node3"><a xlink:href="../../d8/d51/classEicToyModel.html#ae97702960b055eb3be40ad2f03f27846" target="_top" xlink:title="EicToyModel::ExecuteBoundary\lModificationRequests">
<polygon fill="none" stroke="#000000" points="390,-624.5 390,-656.5 565,-656.5 565,-624.5 390,-624.5"/>
<text text-anchor="start" x="398" y="-643.5" font-family="FreeSans" font-size="10.00" fill="#000000">EicToyModel::ExecuteBoundary</text>
<text text-anchor="middle" x="477.5" y="-631.5" font-family="FreeSans" font-size="10.00" fill="#000000">ModificationRequests</text>
</a>
</g>
</g>
<!-- Node2&#45;&gt;Node3 -->
<g id="edge2" class="edge">
<title>Node2&#45;&gt;Node3</title>
<path fill="none" stroke="#191970" d="M364.1481,-640.5C372.7474,-640.5 381.43,-640.5 389.9593,-640.5"/>
<polygon fill="#191970" stroke="#191970" points="364.1057,-637.0001 354.1057,-640.5 364.1056,-644.0001 364.1057,-637.0001"/>
</g>
<!-- Node4 -->
<g id="node4" class="node">
<title>Node4</title>
<g id="a_node4"><a xlink:href="../../d8/d51/classEicToyModel.html#af4e85f898ae520f6911845be37c0abf2" target="_top" xlink:title="EicToyModel::DrawMe">
<polygon fill="none" stroke="#000000" points="601,-507.5 601,-527.5 727,-527.5 727,-507.5 601,-507.5"/>
<text text-anchor="middle" x="664" y="-514.5" font-family="FreeSans" font-size="10.00" fill="#000000">EicToyModel::DrawMe</text>
</a>
</g>
</g>
<!-- Node3&#45;&gt;Node4 -->
<g id="edge3" class="edge">
<title>Node3&#45;&gt;Node4</title>
<path fill="none" stroke="#191970" d="M514.7554,-619.3097C530.4541,-610.137 548.8048,-599.0917 565,-588.5 596.5081,-567.8937 632.0628,-541.6174 650.8038,-527.5183"/>
<polygon fill="#191970" stroke="#191970" points="512.7462,-616.429 505.855,-624.4765 516.2606,-622.4829 512.7462,-616.429"/>
</g>
<!-- Node5 -->
<g id="node5" class="node">
<title>Node5</title>
<g id="a_node5"><a xlink:href="../../d8/d51/classEicToyModel.html#a4dbbfeb27b0e2ea002539841fd8ef1db" target="_top" xlink:title="EicToyModel::vdraw">
<polygon fill="none" stroke="#000000" points="793.5,-624.5 793.5,-644.5 909.5,-644.5 909.5,-624.5 793.5,-624.5"/>
<text text-anchor="middle" x="851.5" y="-631.5" font-family="FreeSans" font-size="10.00" fill="#000000">EicToyModel::vdraw</text>
</a>
</g>
</g>
<!-- Node4&#45;&gt;Node5 -->
<g id="edge4" class="edge">
<title>Node4&#45;&gt;Node5</title>
<path fill="none" stroke="#191970" d="M677.4268,-535.8205C694.6872,-557.9851 726.7833,-594.7747 763,-614.5 772.2683,-619.548 782.7472,-623.3236 793.1682,-626.1471"/>
<polygon fill="#191970" stroke="#191970" points="680.0005,-533.4223 671.1654,-527.5749 674.4256,-537.6557 680.0005,-533.4223"/>
</g>
<!-- Node6 -->
<g id="node6" class="node">
<title>Node6</title>
<g id="a_node6"><a xlink:href="../../d8/d51/classEicToyModel.html#a52a22eaffd93d2738a0ad4e1174c3b14" target="_top" xlink:title="EicToyModel::hdraw">
<polygon fill="none" stroke="#000000" points="793,-585.5 793,-605.5 910,-605.5 910,-585.5 793,-585.5"/>
<text text-anchor="middle" x="851.5" y="-592.5" font-family="FreeSans" font-size="10.00" fill="#000000">EicToyModel::hdraw</text>
</a>
</g>
</g>
<!-- Node4&#45;&gt;Node6 -->
<g id="edge5" class="edge">
<title>Node4&#45;&gt;Node6</title>
<path fill="none" stroke="#191970" d="M686.4877,-533.3972C705.9142,-546.448 735.1696,-564.5096 763,-575.5 773.1092,-579.4922 784.1982,-582.7852 795.0044,-585.4661"/>
<polygon fill="#191970" stroke="#191970" points="688.2724,-530.3775 678.0423,-527.6216 684.321,-536.1556 688.2724,-530.3775"/>
</g>
<!-- Node7 -->
<g id="node7" class="node">
<title>Node7</title>
<g id="a_node7"><a xlink:href="../../d8/d51/classEicToyModel.html#a2aa707f5baa02887602f572605a11b91" target="_top" xlink:title="EicToyModel::draw">
<polygon fill="none" stroke="#000000" points="796.5,-546.5 796.5,-566.5 906.5,-566.5 906.5,-546.5 796.5,-546.5"/>
<text text-anchor="middle" x="851.5" y="-553.5" font-family="FreeSans" font-size="10.00" fill="#000000">EicToyModel::draw</text>
</a>
</g>
</g>
<!-- Node4&#45;&gt;Node7 -->
<g id="edge6" class="edge">
<title>Node4&#45;&gt;Node7</title>
<path fill="none" stroke="#191970" d="M722.3987,-529.6469C748.4158,-535.0585 778.6885,-541.3552 803.3777,-546.4906"/>
<polygon fill="#191970" stroke="#191970" points="722.7891,-526.1533 712.2859,-527.5435 721.3636,-533.0066 722.7891,-526.1533"/>
</g>
<!-- Node8 -->
<g id="node8" class="node">
<title>Node8</title>
<g id="a_node8"><a xlink:href="../../d8/d51/classEicToyModel.html#a7fa858bc595e1fde958138bd1be33e9f" target="_top" xlink:title="EicToyModel::Construct">
<polygon fill="none" stroke="#000000" points="784.5,-507.5 784.5,-527.5 918.5,-527.5 918.5,-507.5 784.5,-507.5"/>
<text text-anchor="middle" x="851.5" y="-514.5" font-family="FreeSans" font-size="10.00" fill="#000000">EicToyModel::Construct</text>
</a>
</g>
</g>
<!-- Node4&#45;&gt;Node8 -->
<g id="edge7" class="edge">
<title>Node4&#45;&gt;Node8</title>
<path fill="none" stroke="#191970" d="M737.2836,-517.5C752.803,-517.5 769.1089,-517.5 784.3859,-517.5"/>
<polygon fill="#191970" stroke="#191970" points="737.2176,-514.0001 727.2175,-517.5 737.2175,-521.0001 737.2176,-514.0001"/>
</g>
<!-- Node9 -->
<g id="node9" class="node">
<title>Node9</title>
<g id="a_node9"><a xlink:href="../../d8/d51/classEicToyModel.html#a6bd065edd7a47abe1d3f3a44d1853664" target="_top" xlink:title="EicToyModel::acceptance">
<polygon fill="none" stroke="#000000" points="977,-591.5 977,-611.5 1120,-611.5 1120,-591.5 977,-591.5"/>
<text text-anchor="middle" x="1048.5" y="-598.5" font-family="FreeSans" font-size="10.00" fill="#000000">EicToyModel::acceptance</text>
</a>
</g>
</g>
<!-- Node4&#45;&gt;Node9 -->
<g id="edge8" class="edge">
<title>Node4&#45;&gt;Node9</title>
<path fill="none" stroke="#191970" d="M671.3043,-536.9298C684.2715,-568.2475 714.5953,-628.8644 763,-653.5 833.1088,-689.1819 863.2893,-670.9329 940,-653.5 975.4422,-645.4456 1012.8294,-624.3174 1033.1443,-611.6086"/>
<polygon fill="#191970" stroke="#191970" points="674.5141,-535.5293 667.571,-527.5265 668.0081,-538.1123 674.5141,-535.5293"/>
</g>
<!-- Node11 -->
<g id="node11" class="node">
<title>Node11</title>
<g id="a_node11"><a xlink:href="../../d8/d51/classEicToyModel.html#a220d011e7ba4dbd1c651ea7bbbf21945" target="_top" xlink:title="EicToyModel::ip">
<polygon fill="none" stroke="#000000" points="804.5,-702.5 804.5,-722.5 898.5,-722.5 898.5,-702.5 804.5,-702.5"/>
<text text-anchor="middle" x="851.5" y="-709.5" font-family="FreeSans" font-size="10.00" fill="#000000">EicToyModel::ip</text>
</a>
</g>
</g>
<!-- Node4&#45;&gt;Node11 -->
<g id="edge10" class="edge">
<title>Node4&#45;&gt;Node11</title>
<path fill="none" stroke="#191970" d="M673.1543,-537.2266C692.1798,-577.4542 736.4292,-666.9046 763,-687.5 774.8618,-696.6943 789.9448,-702.5072 804.284,-706.1823"/>
<polygon fill="#191970" stroke="#191970" points="676.2033,-535.485 668.7875,-527.9181 669.866,-538.458 676.2033,-535.485"/>
</g>
<!-- Node12 -->
<g id="node12" class="node">
<title>Node12</title>
<g id="a_node12"><a xlink:href="../../d8/d51/classEicToyModel.html#a3f57c6e6dad62c300918a54aab8bb8b8" target="_top" xlink:title="EicToyModel::RebuildEverything">
<polygon fill="none" stroke="#000000" points="763,-390.5 763,-410.5 940,-410.5 940,-390.5 763,-390.5"/>
<text text-anchor="middle" x="851.5" y="-397.5" font-family="FreeSans" font-size="10.00" fill="#000000">EicToyModel::RebuildEverything</text>
</a>
</g>
</g>
<!-- Node4&#45;&gt;Node12 -->
<g id="edge13" class="edge">
<title>Node4&#45;&gt;Node12</title>
<path fill="none" stroke="#191970" d="M677.1202,-499.2216C694.2446,-476.7925 726.3821,-439.31 763,-419.5 769.6344,-415.9108 776.8923,-412.9996 784.3065,-410.6384"/>
<polygon fill="#191970" stroke="#191970" points="674.2841,-497.1701 671.1191,-507.2812 679.8986,-501.3507 674.2841,-497.1701"/>
</g>
<!-- Node14 -->
<g id="node14" class="node">
<title>Node14</title>
<g id="a_node14"><a xlink:href="../../d8/d51/classEicToyModel.html#a9f033d66f5982d2cb1380f4ae95ba202" target="_top" xlink:title="EicToyModel::AddEtaLine">
<polygon fill="none" stroke="#000000" points="780.5,-468.5 780.5,-488.5 922.5,-488.5 922.5,-468.5 780.5,-468.5"/>
<text text-anchor="middle" x="851.5" y="-475.5" font-family="FreeSans" font-size="10.00" fill="#000000">EicToyModel::AddEtaLine</text>
</a>
</g>
</g>
<!-- Node4&#45;&gt;Node14 -->
<g id="edge15" class="edge">
<title>Node4&#45;&gt;Node14</title>
<path fill="none" stroke="#191970" d="M722.3987,-505.3531C748.4158,-499.9415 778.6885,-493.6448 803.3777,-488.5094"/>
<polygon fill="#191970" stroke="#191970" points="721.3636,-501.9934 712.2859,-507.4565 722.7891,-508.8467 721.3636,-501.9934"/>
</g>
<!-- Node15 -->
<g id="node15" class="node">
<title>Node15</title>
<g id="a_node15"><a xlink:href="../../d8/d51/classEicToyModel.html#aced6dd817a16ee06a4b51fc9fd3527bd" target="_top" xlink:title="EicToyModel::home">
<polygon fill="none" stroke="#000000" points="794.5,-176.5 794.5,-196.5 908.5,-196.5 908.5,-176.5 794.5,-176.5"/>
<text text-anchor="middle" x="851.5" y="-183.5" font-family="FreeSans" font-size="10.00" fill="#000000">EicToyModel::home</text>
</a>
</g>
</g>
<!-- Node4&#45;&gt;Node15 -->
<g id="edge17" class="edge">
<title>Node4&#45;&gt;Node15</title>
<path fill="none" stroke="#191970" d="M667.6937,-497.5413C677.8694,-451.9181 709.1806,-339.3986 763,-260.5 780.9239,-234.2238 808.4937,-210.0683 828.0943,-196.5206"/>
<polygon fill="#191970" stroke="#191970" points="664.2524,-496.898 665.6069,-507.4059 671.1008,-498.3467 664.2524,-496.898"/>
</g>
<!-- Node29 -->
<g id="node29" class="node">
<title>Node29</title>
<g id="a_node29"><a xlink:href="../../d8/d51/classEicToyModel.html#a31dff983301cdf101672d8195e3723ad" target="_top" xlink:title="EicToyModel::zoom">
<polygon fill="none" stroke="#000000" points="795.5,-429.5 795.5,-449.5 907.5,-449.5 907.5,-429.5 795.5,-429.5"/>
<text text-anchor="middle" x="851.5" y="-436.5" font-family="FreeSans" font-size="10.00" fill="#000000">EicToyModel::zoom</text>
</a>
</g>
</g>
<!-- Node4&#45;&gt;Node29 -->
<g id="edge35" class="edge">
<title>Node4&#45;&gt;Node29</title>
<path fill="none" stroke="#191970" d="M686.0821,-501.4625C705.4612,-488.1104 734.8673,-469.5563 763,-458.5 773.238,-454.4764 784.4941,-451.2326 795.446,-448.643"/>
<polygon fill="#191970" stroke="#191970" points="683.8481,-498.7543 677.6741,-507.3643 687.8699,-504.4837 683.8481,-498.7543"/>
</g>
<!-- Node10 -->
<g id="node10" class="node">
<title>Node10</title>
<g id="a_node10"><a xlink:href="../../d8/d51/classEicToyModel.html#a7c8f27079b57a2f4d7df2850e0046189" target="_top" xlink:title="EicToyModel::EicToyModel">
<polygon fill="none" stroke="#000000" points="1170.5,-591.5 1170.5,-611.5 1317.5,-611.5 1317.5,-591.5 1170.5,-591.5"/>
<text text-anchor="middle" x="1244" y="-598.5" font-family="FreeSans" font-size="10.00" fill="#000000">EicToyModel::EicToyModel</text>
</a>
</g>
</g>
<!-- Node9&#45;&gt;Node10 -->
<g id="edge9" class="edge">
<title>Node9&#45;&gt;Node10</title>
<path fill="none" stroke="#191970" d="M1130.2609,-601.5C1143.5602,-601.5 1157.2653,-601.5 1170.3554,-601.5"/>
<polygon fill="#191970" stroke="#191970" points="1130.1869,-598.0001 1120.1869,-601.5 1130.1868,-605.0001 1130.1869,-598.0001"/>
</g>
<!-- Node11&#45;&gt;Node2 -->
<g id="edge11" class="edge">
<title>Node11&#45;&gt;Node2</title>
<path fill="none" stroke="#191970" d="M794.4846,-708.5791C707.0908,-702.1445 534.9053,-687.7885 390,-665.5 373.887,-663.0216 356.6768,-659.8114 340.441,-656.5223"/>
<polygon fill="#191970" stroke="#191970" points="794.2317,-712.0699 804.4597,-709.3062 794.7406,-705.0884 794.2317,-712.0699"/>
</g>
<!-- Node11&#45;&gt;Node3 -->
<g id="edge12" class="edge">
<title>Node11&#45;&gt;Node3</title>
<path fill="none" stroke="#191970" d="M799.3382,-700.1995C777.097,-695.1026 750.829,-689.278 727,-684.5 673.416,-673.7557 613.0724,-663.076 565.1533,-654.9292"/>
<polygon fill="#191970" stroke="#191970" points="798.7199,-703.6486 809.2505,-702.4837 800.2919,-696.8274 798.7199,-703.6486"/>
</g>
<!-- Node13 -->
<g id="node13" class="node">
<title>Node13</title>
<g id="a_node13"><a xlink:href="../../d8/d51/classEicToyModel.html#a3f16ef8dcc03a33e1fec1fb00f8ae10c" target="_top" xlink:title="EicToyModel::SetCrossing\lAngle">
<polygon fill="none" stroke="#000000" points="976,-390.5 976,-422.5 1121,-422.5 1121,-390.5 976,-390.5"/>
<text text-anchor="start" x="984" y="-409.5" font-family="FreeSans" font-size="10.00" fill="#000000">EicToyModel::SetCrossing</text>
<text text-anchor="middle" x="1048.5" y="-397.5" font-family="FreeSans" font-size="10.00" fill="#000000">Angle</text>
</a>
</g>
</g>
<!-- Node12&#45;&gt;Node13 -->
<g id="edge14" class="edge">
<title>Node12&#45;&gt;Node13</title>
<path fill="none" stroke="#191970" d="M950.315,-403.5096C958.9412,-403.7723 967.5642,-404.0349 975.9193,-404.2894"/>
<polygon fill="#191970" stroke="#191970" points="950.3048,-400.0078 940.2029,-403.2016 950.0917,-407.0045 950.3048,-400.0078"/>
</g>
<!-- Node14&#45;&gt;Node9 -->
<g id="edge16" class="edge">
<title>Node14&#45;&gt;Node9</title>
<path fill="none" stroke="#191970" d="M927.6581,-491.9024C931.9219,-493.5559 936.0676,-495.4134 940,-497.5 985.4061,-521.5939 1025.1807,-570.1923 1041.1026,-591.3134"/>
<polygon fill="#191970" stroke="#191970" points="928.7673,-488.5825 918.1725,-488.5986 926.4649,-495.1931 928.7673,-488.5825"/>
</g>
<!-- Node15&#45;&gt;Node4 -->
<g id="edge30" class="edge">
<title>Node15&#45;&gt;Node4</title>
<path fill="none" stroke="#191970" d="M836.2161,-203.6414C816.8655,-220.9648 783.5766,-248.335 763,-278.5 708.6617,-358.1593 677.2677,-472.091 667.4052,-507.1875"/>
<polygon fill="#191970" stroke="#191970" points="838.8321,-205.9897 843.8046,-196.6343 834.0832,-200.8469 838.8321,-205.9897"/>
</g>
<!-- Node16 -->
<g id="node16" class="node">
<title>Node16</title>
<g id="a_node16"><a xlink:href="../../d8/d51/classEicToyModel.html#a5820b1b3e0812ce427cc6de75d3f3b3b" target="_top" xlink:title="EicToyModel::full">
<polygon fill="none" stroke="#000000" points="998.5,-195.5 998.5,-215.5 1098.5,-215.5 1098.5,-195.5 998.5,-195.5"/>
<text text-anchor="middle" x="1048.5" y="-202.5" font-family="FreeSans" font-size="10.00" fill="#000000">EicToyModel::full</text>
</a>
</g>
</g>
<!-- Node15&#45;&gt;Node16 -->
<g id="edge18" class="edge">
<title>Node15&#45;&gt;Node16</title>
<path fill="none" stroke="#191970" d="M918.9403,-193.0044C945.0202,-195.5197 974.3363,-198.3472 998.4772,-200.6755"/>
<polygon fill="#191970" stroke="#191970" points="919.035,-189.4974 908.7452,-192.0211 918.363,-196.465 919.035,-189.4974"/>
</g>
<!-- Node17 -->
<g id="node17" class="node">
<title>Node17</title>
<g id="a_node17"><a xlink:href="../../d8/d51/classEicToyModel.html#aab22f6a978191aff7139fcbc4eadd59c" target="_top" xlink:title="EicToyModel::left">
<polygon fill="none" stroke="#000000" points="997.5,-156.5 997.5,-176.5 1099.5,-176.5 1099.5,-156.5 997.5,-156.5"/>
<text text-anchor="middle" x="1048.5" y="-163.5" font-family="FreeSans" font-size="10.00" fill="#000000">EicToyModel::left</text>
</a>
</g>
</g>
<!-- Node15&#45;&gt;Node17 -->
<g id="edge19" class="edge">
<title>Node15&#45;&gt;Node17</title>
<path fill="none" stroke="#191970" d="M918.8156,-179.6659C944.5724,-177.051 973.5012,-174.1141 997.4899,-171.6787"/>
<polygon fill="#191970" stroke="#191970" points="918.3405,-176.1961 908.7452,-180.6883 919.0476,-183.1603 918.3405,-176.1961"/>
</g>
<!-- Node19 -->
<g id="node19" class="node">
<title>Node19</title>
<g id="a_node19"><a xlink:href="../../d8/d51/classEicToyModel.html#a72d22a84de7b70c9deaaf5ffdb7bf7fc" target="_top" xlink:title="EicToyModel::right">
<polygon fill="none" stroke="#000000" points="994,-234.5 994,-254.5 1103,-254.5 1103,-234.5 994,-234.5"/>
<text text-anchor="middle" x="1048.5" y="-241.5" font-family="FreeSans" font-size="10.00" fill="#000000">EicToyModel::right</text>
</a>
</g>
</g>
<!-- Node15&#45;&gt;Node19 -->
<g id="edge22" class="edge">
<title>Node15&#45;&gt;Node19</title>
<path fill="none" stroke="#191970" d="M892.9837,-199.469C917.1545,-206.9485 948.2474,-216.4383 976,-224.5 987.4102,-227.8145 999.8694,-231.2997 1011.1901,-234.4155"/>
<polygon fill="#191970" stroke="#191970" points="894.0022,-196.1205 883.4142,-196.501 891.9285,-202.8063 894.0022,-196.1205"/>
</g>
<!-- Node20 -->
<g id="node20" class="node">
<title>Node20</title>
<g id="a_node20"><a xlink:href="../../d8/d51/classEicToyModel.html#ad9f3601f26b5016327022d637c27acd6" target="_top" xlink:title="EicToyModel::ir">
<polygon fill="none" stroke="#000000" points="1002.5,-78.5 1002.5,-98.5 1094.5,-98.5 1094.5,-78.5 1002.5,-78.5"/>
<text text-anchor="middle" x="1048.5" y="-85.5" font-family="FreeSans" font-size="10.00" fill="#000000">EicToyModel::ir</text>
</a>
</g>
</g>
<!-- Node15&#45;&gt;Node20 -->
<g id="edge24" class="edge">
<title>Node15&#45;&gt;Node20</title>
<path fill="none" stroke="#191970" d="M872.5472,-170.256C896.4283,-152.5342 937.1232,-124.4371 976,-107.5 984.231,-103.9141 993.2919,-100.8809 1002.1373,-98.363"/>
<polygon fill="#191970" stroke="#191970" points="870.4318,-167.4675 864.5441,-176.2758 874.6396,-173.0617 870.4318,-167.4675"/>
</g>
<!-- Node21 -->
<g id="node21" class="node">
<title>Node21</title>
<g id="a_node21"><a xlink:href="../../d8/d51/classEicToyModel.html#afeff0791454bae6a45c9cd9998e335a5" target="_top" xlink:title="EicToyModel::width">
<polygon fill="none" stroke="#000000" points="992.5,-39.5 992.5,-59.5 1104.5,-59.5 1104.5,-39.5 992.5,-39.5"/>
<text text-anchor="middle" x="1048.5" y="-46.5" font-family="FreeSans" font-size="10.00" fill="#000000">EicToyModel::width</text>
</a>
</g>
</g>
<!-- Node15&#45;&gt;Node21 -->
<g id="edge25" class="edge">
<title>Node15&#45;&gt;Node21</title>
<path fill="none" stroke="#191970" d="M865.6262,-168.2269C886.7797,-142.1384 929.2316,-94.5041 976,-68.5 982.4821,-64.8958 989.6719,-61.9547 996.9329,-59.56"/>
<polygon fill="#191970" stroke="#191970" points="862.7809,-166.1815 859.2934,-176.1859 868.2585,-170.5399 862.7809,-166.1815"/>
</g>
<!-- Node22 -->
<g id="node22" class="node">
<title>Node22</title>
<g id="a_node22"><a xlink:href="../../d8/d51/classEicToyModel.html#a0b9412233cd14d3febc0413c00b19146" target="_top" xlink:title="EicToyModel::mirror">
<polygon fill="none" stroke="#000000" points="990.5,-.5 990.5,-20.5 1106.5,-20.5 1106.5,-.5 990.5,-.5"/>
<text text-anchor="middle" x="1048.5" y="-7.5" font-family="FreeSans" font-size="10.00" fill="#000000">EicToyModel::mirror</text>
</a>
</g>
</g>
<!-- Node15&#45;&gt;Node22 -->
<g id="edge26" class="edge">
<title>Node15&#45;&gt;Node22</title>
<path fill="none" stroke="#191970" d="M861.4498,-166.9866C879.5423,-133.5241 921.0901,-65.3438 976,-29.5 981.5569,-25.8726 987.7771,-22.9364 994.1758,-20.56"/>
<polygon fill="#191970" stroke="#191970" points="858.1689,-165.7048 856.5991,-176.1827 864.3604,-168.9707 858.1689,-165.7048"/>
</g>
<!-- Node23 -->
<g id="node23" class="node">
<title>Node23</title>
<g id="a_node23"><a xlink:href="../../d8/d51/classEicToyModel.html#ab137159398e85be0fd6bd685ca0c1093" target="_top" xlink:title="EicToyModel::legend">
<polygon fill="none" stroke="#000000" points="989,-312.5 989,-332.5 1108,-332.5 1108,-312.5 989,-312.5"/>
<text text-anchor="middle" x="1048.5" y="-319.5" font-family="FreeSans" font-size="10.00" fill="#000000">EicToyModel::legend</text>
</a>
</g>
</g>
<!-- Node15&#45;&gt;Node23 -->
<g id="edge27" class="edge">
<title>Node15&#45;&gt;Node23</title>
<path fill="none" stroke="#191970" d="M874.2424,-202.2004C915.148,-230.4397 1000.0308,-289.039 1033.9929,-312.4849"/>
<polygon fill="#191970" stroke="#191970" points="876.2038,-199.3014 865.9859,-196.5004 872.2269,-205.062 876.2038,-199.3014"/>
</g>
<!-- Node25 -->
<g id="node25" class="node">
<title>Node25</title>
<g id="a_node25"><a xlink:href="../../dc/d44/classEtmDetectorStack.html#a95ab7230cc4c9cc96eb5dfe1735d3726" target="_top" xlink:title="EtmDetectorStack::add">
<polygon fill="none" stroke="#000000" points="982,-117.5 982,-137.5 1115,-137.5 1115,-117.5 982,-117.5"/>
<text text-anchor="middle" x="1048.5" y="-124.5" font-family="FreeSans" font-size="10.00" fill="#000000">EtmDetectorStack::add</text>
</a>
</g>
</g>
<!-- Node15&#45;&gt;Node25 -->
<g id="edge31" class="edge">
<title>Node15&#45;&gt;Node25</title>
<path fill="none" stroke="#191970" d="M890.9183,-173.228C915.3221,-165.1629 947.3609,-154.8466 976,-146.5 986.4934,-143.4418 997.9063,-140.3449 1008.5055,-137.5639"/>
<polygon fill="#191970" stroke="#191970" points="889.6832,-169.9502 881.2951,-176.4224 891.8885,-176.5937 889.6832,-169.9502"/>
</g>
<!-- Node18 -->
<g id="node18" class="node">
<title>Node18</title>
<g id="a_node18"><a xlink:href="../../d8/d51/classEicToyModel.html#a31d39c7784990a42cd2e870611d7f7d4" target="_top" xlink:title="EicToyModel::DrawBeamLine">
<polygon fill="none" stroke="#000000" points="1163.5,-234.5 1163.5,-254.5 1324.5,-254.5 1324.5,-234.5 1163.5,-234.5"/>
<text text-anchor="middle" x="1244" y="-241.5" font-family="FreeSans" font-size="10.00" fill="#000000">EicToyModel::DrawBeamLine</text>
</a>
</g>
</g>
<!-- Node17&#45;&gt;Node18 -->
<g id="edge20" class="edge">
<title>Node17&#45;&gt;Node18</title>
<path fill="none" stroke="#191970" d="M1102.2232,-179.3438C1108.6077,-181.2328 1114.9879,-183.2933 1121,-185.5 1159.4638,-199.618 1202.113,-221.5988 1225.7252,-234.3679"/>
<polygon fill="#191970" stroke="#191970" points="1102.8141,-175.8737 1092.239,-176.5203 1100.9092,-182.6096 1102.8141,-175.8737"/>
</g>
<!-- Node18&#45;&gt;Node4 -->
<g id="edge21" class="edge">
<title>Node18&#45;&gt;Node4</title>
<path fill="none" stroke="#191970" d="M1178.0807,-256.426C1054.2888,-279.2581 796.4462,-329.0446 763,-353.5 706.8905,-394.5266 676.4119,-477.8736 667.1118,-507.0947"/>
<polygon fill="#191970" stroke="#191970" points="1178.9934,-259.8169 1188.1952,-254.5655 1177.727,-252.9324 1178.9934,-259.8169"/>
</g>
<!-- Node19&#45;&gt;Node18 -->
<g id="edge23" class="edge">
<title>Node19&#45;&gt;Node18</title>
<path fill="none" stroke="#191970" d="M1113.4965,-244.5C1129.459,-244.5 1146.7389,-244.5 1163.3402,-244.5"/>
<polygon fill="#191970" stroke="#191970" points="1113.2176,-241.0001 1103.2176,-244.5 1113.2176,-248.0001 1113.2176,-241.0001"/>
</g>
<!-- Node24 -->
<g id="node24" class="node">
<title>Node24</title>
<g id="a_node24"><a xlink:href="../../d8/d51/classEicToyModel.html#a00767e56a3d1f9bc161a4ad91369980a" target="_top" xlink:title="EicToyModel::DrawColorLegend">
<polygon fill="none" stroke="#000000" points="1157,-331.5 1157,-351.5 1331,-351.5 1331,-331.5 1157,-331.5"/>
<text text-anchor="middle" x="1244" y="-338.5" font-family="FreeSans" font-size="10.00" fill="#000000">EicToyModel::DrawColorLegend</text>
</a>
</g>
</g>
<!-- Node23&#45;&gt;Node24 -->
<g id="edge28" class="edge">
<title>Node23&#45;&gt;Node24</title>
<path fill="none" stroke="#191970" d="M1118.5083,-329.3039C1130.9648,-330.5145 1144.0767,-331.7888 1156.9388,-333.0388"/>
<polygon fill="#191970" stroke="#191970" points="1118.5104,-325.7877 1108.2187,-328.3039 1117.8332,-332.7549 1118.5104,-325.7877"/>
</g>
<!-- Node24&#45;&gt;Node4 -->
<g id="edge29" class="edge">
<title>Node24&#45;&gt;Node4</title>
<path fill="none" stroke="#191970" d="M1146.8083,-345.0383C1015.9115,-350.4648 795.5261,-362.179 763,-380.5 710.3302,-410.1674 678.3212,-480.7993 667.8269,-507.2582"/>
<polygon fill="#191970" stroke="#191970" points="1147.0032,-348.5334 1156.8516,-344.627 1146.7167,-341.5393 1147.0032,-348.5334"/>
</g>
<!-- Node26 -->
<g id="node26" class="node">
<title>Node26</title>
<g id="a_node26"><a xlink:href="../../dc/d44/classEtmDetectorStack.html#ab20eac8118f0cc6b2cdf93c3d103c6ab" target="_top" xlink:title="EtmDetectorStack::gap">
<polygon fill="none" stroke="#000000" points="1177,-156.5 1177,-176.5 1311,-176.5 1311,-156.5 1177,-156.5"/>
<text text-anchor="middle" x="1244" y="-163.5" font-family="FreeSans" font-size="10.00" fill="#000000">EtmDetectorStack::gap</text>
</a>
</g>
</g>
<!-- Node25&#45;&gt;Node26 -->
<g id="edge32" class="edge">
<title>Node25&#45;&gt;Node26</title>
<path fill="none" stroke="#191970" d="M1108.6712,-139.5035C1135.9584,-144.9469 1167.854,-151.3098 1193.8245,-156.4906"/>
<polygon fill="#191970" stroke="#191970" points="1109.3376,-136.0675 1098.8461,-137.5435 1107.9681,-142.9323 1109.3376,-136.0675"/>
</g>
<!-- Node27 -->
<g id="node27" class="node">
<title>Node27</title>
<g id="a_node27"><a xlink:href="../../dc/d44/classEtmDetectorStack.html#a36fb21c36f5eff767aa314d67cd805b2" target="_top" xlink:title="EtmDetectorStack::add">
<polygon fill="none" stroke="#000000" points="1177.5,-117.5 1177.5,-137.5 1310.5,-137.5 1310.5,-117.5 1177.5,-117.5"/>
<text text-anchor="middle" x="1244" y="-124.5" font-family="FreeSans" font-size="10.00" fill="#000000">EtmDetectorStack::add</text>
</a>
</g>
</g>
<!-- Node25&#45;&gt;Node27 -->
<g id="edge33" class="edge">
<title>Node25&#45;&gt;Node27</title>
<path fill="none" stroke="#191970" d="M1125.7087,-127.5C1142.7454,-127.5 1160.654,-127.5 1177.2358,-127.5"/>
<polygon fill="#191970" stroke="#191970" points="1125.2332,-124.0001 1115.2332,-127.5 1125.2332,-131.0001 1125.2332,-124.0001"/>
</g>
<!-- Node28 -->
<g id="node28" class="node">
<title>Node28</title>
<g id="a_node28"><a xlink:href="../../dc/d44/classEtmDetectorStack.html#a5808dc25d3fee47a915c6024bb209432" target="_top" xlink:title="EtmDetectorStack::marker">
<polygon fill="none" stroke="#000000" points="1168.5,-78.5 1168.5,-98.5 1319.5,-98.5 1319.5,-78.5 1168.5,-78.5"/>
<text text-anchor="middle" x="1244" y="-85.5" font-family="FreeSans" font-size="10.00" fill="#000000">EtmDetectorStack::marker</text>
</a>
</g>
</g>
<!-- Node25&#45;&gt;Node28 -->
<g id="edge34" class="edge">
<title>Node25&#45;&gt;Node28</title>
<path fill="none" stroke="#191970" d="M1108.6712,-115.4965C1135.9584,-110.0531 1167.854,-103.6902 1193.8245,-98.5094"/>
<polygon fill="#191970" stroke="#191970" points="1107.9681,-112.0677 1098.8461,-117.4565 1109.3376,-118.9325 1107.9681,-112.0677"/>
</g>
<!-- Node30 -->
<g id="node30" class="node">
<title>Node30</title>
<g id="a_node30"><a xlink:href="../../d3/d21/lqcdpr_8F.html#a028774669b878dc254be7adc6a8b71fc" target="_top" xlink:title="lqcdpr">
<polygon fill="none" stroke="#000000" points="1024,-441.5 1024,-461.5 1073,-461.5 1073,-441.5 1024,-441.5"/>
<text text-anchor="middle" x="1048.5" y="-448.5" font-family="FreeSans" font-size="10.00" fill="#000000">lqcdpr</text>
</a>
</g>
</g>
<!-- Node29&#45;&gt;Node30 -->
<g id="edge36" class="edge">
<title>Node29&#45;&gt;Node30</title>
<path fill="none" stroke="#191970" d="M917.7839,-443.5376C954.2679,-445.76 997.3784,-448.386 1023.8266,-449.9971"/>
<polygon fill="#191970" stroke="#191970" points="917.883,-440.0372 907.6887,-442.9227 917.4573,-447.0243 917.883,-440.0372"/>
</g>
<!-- Node44 -->
<g id="node44" class="node">
<title>Node44</title>
<g id="a_node44"><a xlink:href="../../dd/d62/lweits_8F.html#a57410e89a3ce8563c8f3b4e5657ac043" target="_top" xlink:title="lweits">
<polygon fill="none" stroke="#000000" points="1369.5,-480.5 1369.5,-500.5 1414.5,-500.5 1414.5,-480.5 1369.5,-480.5"/>
<text text-anchor="middle" x="1392" y="-487.5" font-family="FreeSans" font-size="10.00" fill="#000000">lweits</text>
</a>
</g>
</g>
<!-- Node29&#45;&gt;Node44 -->
<g id="edge61" class="edge">
<title>Node29&#45;&gt;Node44</title>
<path fill="none" stroke="#191970" d="M912.9933,-451.7848C922.088,-453.8668 931.3165,-456.1284 940,-458.5 956.2696,-462.9435 959.422,-467.3994 976,-470.5 1123.8323,-498.1493 1306.0621,-494.0716 1369.2011,-491.5704"/>
<polygon fill="#191970" stroke="#191970" points="913.7317,-448.3636 903.2092,-449.5994 912.2057,-455.1952 913.7317,-448.3636"/>
</g>
<!-- Node31 -->
<g id="node31" class="node">
<title>Node31</title>
<g id="a_node31"><a xlink:href="../../d3/d7e/lepto_8F.html#a92c27736bffd1a2f7b68ee52c8d3d51a" target="_top" xlink:title="lepto">
<polygon fill="none" stroke="#000000" points="1223,-441.5 1223,-461.5 1265,-461.5 1265,-441.5 1223,-441.5"/>
<text text-anchor="middle" x="1244" y="-448.5" font-family="FreeSans" font-size="10.00" fill="#000000">lepto</text>
</a>
</g>
</g>
<!-- Node30&#45;&gt;Node31 -->
<g id="edge37" class="edge">
<title>Node30&#45;&gt;Node31</title>
<path fill="none" stroke="#191970" d="M1083.4695,-451.5C1123.9252,-451.5 1189.2503,-451.5 1222.7278,-451.5"/>
<polygon fill="#191970" stroke="#191970" points="1083.2602,-448.0001 1073.2602,-451.5 1083.2602,-455.0001 1083.2602,-448.0001"/>
</g>
<!-- Node32 -->
<g id="node32" class="node">
<title>Node32</title>
<g id="a_node32"><a xlink:href="../../d3/dcf/dcross_8F.html#a88932f97cf8d3d7de7ac0ef273cc9929" target="_top" xlink:title="dcross">
<polygon fill="none" stroke="#000000" points="1455,-441.5 1455,-461.5 1504,-461.5 1504,-441.5 1455,-441.5"/>
<text text-anchor="middle" x="1479.5" y="-448.5" font-family="FreeSans" font-size="10.00" fill="#000000">dcross</text>
</a>
</g>
</g>
<!-- Node31&#45;&gt;Node32 -->
<g id="edge38" class="edge">
<title>Node31&#45;&gt;Node32</title>
<path fill="none" stroke="#191970" d="M1275.3236,-451.5C1322.7541,-451.5 1411.8216,-451.5 1454.9103,-451.5"/>
<polygon fill="#191970" stroke="#191970" points="1275.3144,-448.0001 1265.3144,-451.5 1275.3144,-455.0001 1275.3144,-448.0001"/>
</g>
<!-- Node35 -->
<g id="node35" class="node">
<title>Node35</title>
<g id="a_node35"><a xlink:href="../../d9/d33/demo_8F.html#a5b31693ae1e23c438c97976df5dabba0" target="_top" xlink:title="demo">
<polygon fill="none" stroke="#000000" points="1907.5,-480.5 1907.5,-500.5 1952.5,-500.5 1952.5,-480.5 1907.5,-480.5"/>
<text text-anchor="middle" x="1930" y="-487.5" font-family="FreeSans" font-size="10.00" fill="#000000">demo</text>
</a>
</g>
</g>
<!-- Node31&#45;&gt;Node35 -->
<g id="edge48" class="edge">
<title>Node31&#45;&gt;Node35</title>
<path fill="none" stroke="#191970" d="M1263.0365,-468.3182C1301.2197,-500.2502 1391.0918,-566.5 1479.5,-566.5 1479.5,-566.5 1479.5,-566.5 1749.5,-566.5 1816.4826,-566.5 1887.263,-521.4944 1916.3305,-500.7497"/>
<polygon fill="#191970" stroke="#191970" points="1265.1629,-465.5317 1255.2831,-461.7055 1260.6205,-470.8577 1265.1629,-465.5317"/>
</g>
<!-- Node36 -->
<g id="node36" class="node">
<title>Node36</title>
<g id="a_node36"><a xlink:href="../../d7/df5/pepsiMaineRHIC__noradcorr_8f.html#ac2ed0c0080f3e6d946824efb82e28ab5" target="_top" xlink:title="pepsimainerhic">
<polygon fill="none" stroke="#000000" points="1883,-345.5 1883,-365.5 1977,-365.5 1977,-345.5 1883,-345.5"/>
<text text-anchor="middle" x="1930" y="-352.5" font-family="FreeSans" font-size="10.00" fill="#000000">pepsimainerhic</text>
</a>
</g>
</g>
<!-- Node31&#45;&gt;Node36 -->
<g id="edge60" class="edge">
<title>Node31&#45;&gt;Node36</title>
<path fill="none" stroke="#191970" d="M1260.7052,-434.1284C1283.674,-410.6298 1326.7491,-367.9273 1367,-335.5 1414.1831,-297.4879 1418.9099,-258.5 1479.5,-258.5 1479.5,-258.5 1479.5,-258.5 1749.5,-258.5 1822.429,-258.5 1894.3034,-320.7013 1920.0464,-345.4846"/>
<polygon fill="#191970" stroke="#191970" points="1258.1775,-431.7073 1253.7197,-441.3186 1263.1983,-436.585 1258.1775,-431.7073"/>
</g>
<!-- Node40 -->
<g id="node40" class="node">
<title>Node40</title>
<g id="a_node40"><a xlink:href="../../d6/dca/lsigmx_8F.html#ade866590be36f33a242025d793dbf067" target="_top" xlink:title="lsigmx">
<polygon fill="none" stroke="#000000" points="1367,-345.5 1367,-365.5 1417,-365.5 1417,-345.5 1367,-345.5"/>
<text text-anchor="middle" x="1392" y="-352.5" font-family="FreeSans" font-size="10.00" fill="#000000">lsigmx</text>
</a>
</g>
</g>
<!-- Node31&#45;&gt;Node40 -->
<g id="edge49" class="edge">
<title>Node31&#45;&gt;Node40</title>
<path fill="none" stroke="#191970" d="M1268.3092,-435.7318C1298.8416,-415.9271 1350.3539,-382.5137 1376.2042,-365.746"/>
<polygon fill="#191970" stroke="#191970" points="1266.0438,-433.0294 1259.5589,-441.4078 1269.8532,-438.9022 1266.0438,-433.0294"/>
</g>
<!-- Node31&#45;&gt;Node44 -->
<g id="edge57" class="edge">
<title>Node31&#45;&gt;Node44</title>
<path fill="none" stroke="#191970" d="M1274.963,-459.6592C1303.1625,-467.0901 1344.1416,-477.8887 1369.3785,-484.5389"/>
<polygon fill="#191970" stroke="#191970" points="1275.7666,-456.2515 1265.2048,-457.0877 1273.9828,-463.0204 1275.7666,-456.2515"/>
</g>
<!-- Node33 -->
<g id="node33" class="node">
<title>Node33</title>
<g id="a_node33"><a xlink:href="../../dc/df8/lxsect_8F.html#ae7a0232c3a9b1d6bed670b06865c60a7" target="_top" xlink:title="lxsect">
<polygon fill="none" stroke="#000000" points="1638.5,-441.5 1638.5,-461.5 1684.5,-461.5 1684.5,-441.5 1638.5,-441.5"/>
<text text-anchor="middle" x="1661.5" y="-448.5" font-family="FreeSans" font-size="10.00" fill="#000000">lxsect</text>
</a>
</g>
</g>
<!-- Node32&#45;&gt;Node33 -->
<g id="edge39" class="edge">
<title>Node32&#45;&gt;Node33</title>
<path fill="none" stroke="#191970" d="M1514.2325,-451.5C1550.742,-451.5 1607.1408,-451.5 1638.4899,-451.5"/>
<polygon fill="#191970" stroke="#191970" points="1514.0454,-448.0001 1504.0453,-451.5 1514.0453,-455.0001 1514.0454,-448.0001"/>
</g>
<!-- Node38 -->
<g id="node38" class="node">
<title>Node38</title>
<g id="a_node38"><a xlink:href="../../d3/dd8/riwfun_8F.html#a6ce2cfbaf55bce8bd47c04996de92441" target="_top" xlink:title="riwfun">
<polygon fill="none" stroke="#000000" points="1547,-403.5 1547,-423.5 1594,-423.5 1594,-403.5 1547,-403.5"/>
<text text-anchor="middle" x="1570.5" y="-410.5" font-family="FreeSans" font-size="10.00" fill="#000000">riwfun</text>
</a>
</g>
</g>
<!-- Node32&#45;&gt;Node38 -->
<g id="edge45" class="edge">
<title>Node32&#45;&gt;Node38</title>
<path fill="none" stroke="#191970" d="M1513.3824,-437.3513C1524.567,-432.6808 1536.7553,-427.5912 1546.9894,-423.3176"/>
<polygon fill="#191970" stroke="#191970" points="1511.7654,-434.2336 1503.8863,-441.3167 1514.4628,-440.693 1511.7654,-434.2336"/>
</g>
<!-- Node34 -->
<g id="node34" class="node">
<title>Node34</title>
<g id="a_node34"><a xlink:href="../../d2/d41/linit_8F.html#ab348d5fecaf06643ed5e7006c0d70494" target="_top" xlink:title="linit">
<polygon fill="none" stroke="#000000" points="1811,-442.5 1811,-462.5 1847,-462.5 1847,-442.5 1811,-442.5"/>
<text text-anchor="middle" x="1829" y="-449.5" font-family="FreeSans" font-size="10.00" fill="#000000">linit</text>
</a>
</g>
</g>
<!-- Node33&#45;&gt;Node34 -->
<g id="edge40" class="edge">
<title>Node33&#45;&gt;Node34</title>
<path fill="none" stroke="#191970" d="M1694.9312,-451.6996C1729.6613,-451.9069 1782.7379,-452.2238 1810.5452,-452.3898"/>
<polygon fill="#191970" stroke="#191970" points="1694.8109,-448.1989 1684.7902,-451.639 1694.769,-455.1988 1694.8109,-448.1989"/>
</g>
<!-- Node37 -->
<g id="node37" class="node">
<title>Node37</title>
<g id="a_node37"><a xlink:href="../../d9/d89/pollinit_8F.html#a27bfa2c538b86c741893fa83166f7138" target="_top" xlink:title="pollinit">
<polygon fill="none" stroke="#000000" points="1724,-422.5 1724,-442.5 1775,-442.5 1775,-422.5 1724,-422.5"/>
<text text-anchor="middle" x="1749.5" y="-429.5" font-family="FreeSans" font-size="10.00" fill="#000000">pollinit</text>
</a>
</g>
</g>
<!-- Node33&#45;&gt;Node37 -->
<g id="edge43" class="edge">
<title>Node33&#45;&gt;Node37</title>
<path fill="none" stroke="#191970" d="M1694.6758,-444.337C1704.2955,-442.2601 1714.651,-440.0242 1723.7436,-438.0611"/>
<polygon fill="#191970" stroke="#191970" points="1693.657,-440.9763 1684.621,-446.508 1695.1344,-447.8186 1693.657,-440.9763"/>
</g>
<!-- Node34&#45;&gt;Node35 -->
<g id="edge41" class="edge">
<title>Node34&#45;&gt;Node35</title>
<path fill="none" stroke="#191970" d="M1856.8264,-462.9693C1872.6484,-468.9222 1892.2177,-476.2849 1907.1368,-481.898"/>
<polygon fill="#191970" stroke="#191970" points="1857.6488,-459.5393 1847.0568,-459.2936 1855.1838,-466.0909 1857.6488,-459.5393"/>
</g>
<!-- Node34&#45;&gt;Node36 -->
<g id="edge42" class="edge">
<title>Node34&#45;&gt;Node36</title>
<path fill="none" stroke="#191970" d="M1846.7858,-435.4186C1867.8522,-415.1865 1902.2524,-382.1487 1919.4771,-365.6062"/>
<polygon fill="#191970" stroke="#191970" points="1844.2164,-433.0334 1839.4284,-442.4846 1849.0652,-438.0822 1844.2164,-433.0334"/>
</g>
<!-- Node37&#45;&gt;Node34 -->
<g id="edge44" class="edge">
<title>Node37&#45;&gt;Node34</title>
<path fill="none" stroke="#191970" d="M1784.9432,-441.4165C1793.8651,-443.661 1803.0799,-445.9792 1810.7611,-447.9116"/>
<polygon fill="#191970" stroke="#191970" points="1785.6437,-437.9838 1775.0919,-438.9382 1783.9358,-444.7722 1785.6437,-437.9838"/>
</g>
<!-- Node38&#45;&gt;Node33 -->
<g id="edge47" class="edge">
<title>Node38&#45;&gt;Node33</title>
<path fill="none" stroke="#191970" d="M1603.7337,-427.3778C1615.2358,-432.1809 1627.868,-437.4559 1638.3787,-441.845"/>
<polygon fill="#191970" stroke="#191970" points="1604.9856,-424.1077 1594.4092,-423.4841 1602.2883,-430.5672 1604.9856,-424.1077"/>
</g>
<!-- Node39 -->
<g id="node39" class="node">
<title>Node39</title>
<g id="a_node39"><a xlink:href="../../d6/d8f/dfun_8F.html#acb2898b6cd034fce259a6d574bfdee4d" target="_top" xlink:title="dfun">
<polygon fill="none" stroke="#000000" points="1642,-402.5 1642,-422.5 1681,-422.5 1681,-402.5 1642,-402.5"/>
<text text-anchor="middle" x="1661.5" y="-409.5" font-family="FreeSans" font-size="10.00" fill="#000000">dfun</text>
</a>
</g>
</g>
<!-- Node38&#45;&gt;Node39 -->
<g id="edge46" class="edge">
<title>Node38&#45;&gt;Node39</title>
<path fill="none" stroke="#191970" d="M1604.5595,-413.1257C1617.0989,-412.9879 1630.878,-412.8365 1641.7403,-412.7171"/>
<polygon fill="#191970" stroke="#191970" points="1604.3701,-409.6275 1594.4092,-413.2373 1604.4471,-416.6271 1604.3701,-409.6275"/>
</g>
<!-- Node41 -->
<g id="node41" class="node">
<title>Node41</title>
<g id="a_node41"><a xlink:href="../../db/dc0/lmcmnd_8F.html#ade091eb8640ba63ff56629afb16e3877" target="_top" xlink:title="lmcmnd">
<polygon fill="none" stroke="#000000" points="1542,-325.5 1542,-345.5 1599,-345.5 1599,-325.5 1542,-325.5"/>
<text text-anchor="middle" x="1570.5" y="-332.5" font-family="FreeSans" font-size="10.00" fill="#000000">lmcmnd</text>
</a>
</g>
</g>
<!-- Node40&#45;&gt;Node41 -->
<g id="edge50" class="edge">
<title>Node40&#45;&gt;Node41</title>
<path fill="none" stroke="#191970" d="M1410.9842,-338.8751C1422.3369,-330.0603 1437.5284,-320.1203 1453,-315.5 1484.9222,-305.9671 1523.1662,-316.3352 1547.1544,-325.3432"/>
<polygon fill="#191970" stroke="#191970" points="1408.6524,-336.2603 1403.1099,-345.2898 1413.0736,-341.6874 1408.6524,-336.2603"/>
</g>
<!-- Node42 -->
<g id="node42" class="node">
<title>Node42</title>
<g id="a_node42"><a xlink:href="../../dd/d17/lminew_8F.html#af2712f2788f4a069399a454198d9f8e1" target="_top" xlink:title="lminew">
<polygon fill="none" stroke="#000000" points="1635,-363.5 1635,-383.5 1688,-383.5 1688,-363.5 1635,-363.5"/>
<text text-anchor="middle" x="1661.5" y="-370.5" font-family="FreeSans" font-size="10.00" fill="#000000">lminew</text>
</a>
</g>
</g>
<!-- Node40&#45;&gt;Node42 -->
<g id="edge54" class="edge">
<title>Node40&#45;&gt;Node42</title>
<path fill="none" stroke="#191970" d="M1427.6242,-357.8794C1482.3879,-361.537 1586.0289,-368.4593 1634.8241,-371.7183"/>
<polygon fill="#191970" stroke="#191970" points="1427.565,-354.3677 1417.3539,-357.1934 1427.0984,-361.3521 1427.565,-354.3677"/>
</g>
<!-- Node43 -->
<g id="node43" class="node">
<title>Node43</title>
<g id="a_node43"><a xlink:href="../../d3/d5b/lmsimp_8F.html#a68d357e0cb539cd0ff05fe72786abb07" target="_top" xlink:title="lmsimp">
<polygon fill="none" stroke="#000000" points="1453,-325.5 1453,-345.5 1506,-345.5 1506,-325.5 1453,-325.5"/>
<text text-anchor="middle" x="1479.5" y="-332.5" font-family="FreeSans" font-size="10.00" fill="#000000">lmsimp</text>
</a>
</g>
</g>
<!-- Node40&#45;&gt;Node43 -->
<g id="edge55" class="edge">
<title>Node40&#45;&gt;Node43</title>
<path fill="none" stroke="#191970" d="M1427.3344,-347.4236C1435.8052,-345.4874 1444.7134,-343.4512 1452.7233,-341.6204"/>
<polygon fill="#191970" stroke="#191970" points="1426.2773,-344.0748 1417.3086,-349.7152 1427.8371,-350.8989 1426.2773,-344.0748"/>
</g>
<!-- Node41&#45;&gt;Node42 -->
<g id="edge51" class="edge">
<title>Node41&#45;&gt;Node42</title>
<path fill="none" stroke="#191970" d="M1604.2277,-349.5841C1615.2269,-354.1772 1627.2118,-359.1818 1637.3619,-363.4204"/>
<polygon fill="#191970" stroke="#191970" points="1605.4628,-346.307 1594.8863,-345.6833 1602.7654,-352.7664 1605.4628,-346.307"/>
</g>
<!-- Node42&#45;&gt;Node34 -->
<g id="edge52" class="edge">
<title>Node42&#45;&gt;Node34</title>
<path fill="none" stroke="#191970" d="M1697.7987,-382.8817C1720.674,-389.5344 1750.4237,-399.5719 1775,-412.5 1790.9011,-420.8646 1807.2126,-433.6406 1817.6864,-442.4936"/>
<polygon fill="#191970" stroke="#191970" points="1698.7088,-379.5019 1688.1339,-380.1522 1696.8063,-386.2384 1698.7088,-379.5019"/>
</g>
<!-- Node42&#45;&gt;Node37 -->
<g id="edge53" class="edge">
<title>Node42&#45;&gt;Node37</title>
<path fill="none" stroke="#191970" d="M1685.0757,-389.3064C1700.7809,-399.836 1720.9476,-413.3569 1734.4988,-422.4424"/>
<polygon fill="#191970" stroke="#191970" points="1686.6831,-386.1703 1676.428,-383.5085 1682.7849,-391.9844 1686.6831,-386.1703"/>
</g>
<!-- Node43&#45;&gt;Node41 -->
<g id="edge56" class="edge">
<title>Node43&#45;&gt;Node41</title>
<path fill="none" stroke="#191970" d="M1516.4157,-335.5C1524.9387,-335.5 1533.8786,-335.5 1541.9801,-335.5"/>
<polygon fill="#191970" stroke="#191970" points="1516.3108,-332.0001 1506.3108,-335.5 1516.3108,-339.0001 1516.3108,-332.0001"/>
</g>
<!-- Node44&#45;&gt;Node34 -->
<g id="edge58" class="edge">
<title>Node44&#45;&gt;Node34</title>
<path fill="none" stroke="#191970" d="M1424.5693,-501.731C1460.0189,-512.9375 1518.5927,-528.5 1570.5,-528.5 1570.5,-528.5 1570.5,-528.5 1661.5,-528.5 1724.4085,-528.5 1789.6867,-483.4944 1816.4345,-462.7497"/>
<polygon fill="#191970" stroke="#191970" points="1425.3679,-498.3107 1414.776,-498.5588 1423.2108,-504.9701 1425.3679,-498.3107"/>
</g>
<!-- Node44&#45;&gt;Node37 -->
<g id="edge59" class="edge">
<title>Node44&#45;&gt;Node37</title>
<path fill="none" stroke="#191970" d="M1424.9032,-493.3354C1480.582,-497.0326 1596.2731,-499.9298 1688,-470.5 1706.6432,-464.5185 1725.4023,-451.7161 1737.2131,-442.6269"/>
<polygon fill="#191970" stroke="#191970" points="1424.8176,-489.8204 1414.5925,-492.5947 1424.316,-496.8024 1424.8176,-489.8204"/>
</g>
<!-- Node45&#45;&gt;Node4 -->
<g id="edge63" class="edge">
<title>Node45&#45;&gt;Node4</title>
<path fill="none" stroke="#191970" d="M523.1021,-556.7852C555.3304,-547.7993 597.9417,-535.9184 627.8336,-527.5839"/>
<polygon fill="#191970" stroke="#191970" points="522.1516,-553.4166 513.4591,-559.4739 524.0317,-560.1594 522.1516,-553.4166"/>
</g>
</g>
</svg>
