<?xml version="1.0" encoding="UTF-8" standalone="no"?>
<!DOCTYPE svg PUBLIC "-//W3C//DTD SVG 1.1//EN"
 "http://www.w3.org/Graphics/SVG/1.1/DTD/svg11.dtd">
<!-- Generated by graphviz version 2.40.1 (20161225.0304)
 -->
<!-- Title: GlobalVertexFastSimReco::set_z_smearing Pages: 1 -->
<svg width="499pt" height="365pt"
 viewBox="0.00 0.00 499.00 365.00" xmlns="http://www.w3.org/2000/svg" xmlns:xlink="http://www.w3.org/1999/xlink">
<g id="graph0" class="graph" transform="scale(1 1) rotate(0) translate(4 361)">
<title>GlobalVertexFastSimReco::set_z_smearing</title>
<!-- Node1 -->
<g id="node1" class="node">
<title>Node1</title>
<polygon fill="#bfbfbf" stroke="#000000" points="0,-174.5 0,-206.5 145,-206.5 145,-174.5 0,-174.5"/>
<text text-anchor="start" x="8" y="-193.5" font-family="FreeSans" font-size="10.00" fill="#000000">GlobalVertexFastSimReco</text>
<text text-anchor="middle" x="72.5" y="-181.5" font-family="FreeSans" font-size="10.00" fill="#000000">::set_z_smearing</text>
</g>
<!-- Node2 -->
<g id="node2" class="node">
<title>Node2</title>
<g id="a_node2"><a xlink:href="../../dc/d51/fun4all__macros_2blob_2master_2common_2G4__Global_8C.html#a90ef3f0de3b7baba79e902356528aed2" target="_top" xlink:title="Global_FastSim">
<polygon fill="none" stroke="#000000" points="181,-180.5 181,-200.5 274,-200.5 274,-180.5 181,-180.5"/>
<text text-anchor="middle" x="227.5" y="-187.5" font-family="FreeSans" font-size="10.00" fill="#000000">Global_FastSim</text>
</a>
</g>
</g>
<!-- Node1&#45;&gt;Node2 -->
<g id="edge1" class="edge">
<title>Node1&#45;&gt;Node2</title>
<path fill="none" stroke="#191970" d="M155.258,-190.5C163.9773,-190.5 172.6074,-190.5 180.7042,-190.5"/>
<polygon fill="#191970" stroke="#191970" points="155.008,-187.0001 145.008,-190.5 155.0079,-194.0001 155.008,-187.0001"/>
</g>
<!-- Node3 -->
<g id="node3" class="node">
<title>Node3</title>
<g id="a_node3"><a xlink:href="../../db/dc0/Fun4All__AnaTutorial_8C.html#aeb927fc74810ef9bc0c056302f1fbe69" target="_top" xlink:title="Fun4All_AnaTutorial">
<polygon fill="none" stroke="#000000" points="343,-336.5 343,-356.5 458,-356.5 458,-336.5 343,-336.5"/>
<text text-anchor="middle" x="400.5" y="-343.5" font-family="FreeSans" font-size="10.00" fill="#000000">Fun4All_AnaTutorial</text>
</a>
</g>
</g>
<!-- Node2&#45;&gt;Node3 -->
<g id="edge2" class="edge">
<title>Node2&#45;&gt;Node3</title>
<path fill="none" stroke="#191970" d="M233.7694,-210.597C244.3351,-240.9712 268.6801,-298.135 310,-327.5 319.6838,-334.3821 331.3311,-338.873 342.9976,-341.7802"/>
<polygon fill="#191970" stroke="#191970" points="236.9638,-209.11 230.4943,-200.7197 230.3195,-211.3131 236.9638,-209.11"/>
</g>
<!-- Node4 -->
<g id="node4" class="node">
<title>Node4</title>
<g id="a_node4"><a xlink:href="../../dd/d28/Fun4All__AnaTutorial__Jets_8C.html#a49f0c60dbca7146b42abc2eedf173722" target="_top" xlink:title="Fun4All_AnaTutorial_Jets">
<polygon fill="none" stroke="#000000" points="331,-297.5 331,-317.5 470,-317.5 470,-297.5 331,-297.5"/>
<text text-anchor="middle" x="400.5" y="-304.5" font-family="FreeSans" font-size="10.00" fill="#000000">Fun4All_AnaTutorial_Jets</text>
</a>
</g>
</g>
<!-- Node2&#45;&gt;Node4 -->
<g id="edge3" class="edge">
<title>Node2&#45;&gt;Node4</title>
<path fill="none" stroke="#191970" d="M238.0405,-209.4299C251.6293,-231.9745 277.433,-269.0226 310,-288.5 316.4757,-292.373 323.6241,-295.4642 330.9799,-297.9303"/>
<polygon fill="#191970" stroke="#191970" points="241.0404,-207.6261 232.9805,-200.7494 234.9928,-211.1514 241.0404,-207.6261"/>
</g>
<!-- Node5 -->
<g id="node5" class="node">
<title>Node5</title>
<g id="a_node5"><a xlink:href="../../d6/d79/fun4all__eic__qa_2blob_2master_2macros_2Fun4All__G4__EICDetector_8C.html#a3e8b2c9290dae13dd57b23d543df2fd5" target="_top" xlink:title="Fun4All_G4_EICDetector">
<polygon fill="none" stroke="#000000" points="331,-258.5 331,-278.5 470,-278.5 470,-258.5 331,-258.5"/>
<text text-anchor="middle" x="400.5" y="-265.5" font-family="FreeSans" font-size="10.00" fill="#000000">Fun4All_G4_EICDetector</text>
</a>
</g>
</g>
<!-- Node2&#45;&gt;Node5 -->
<g id="edge4" class="edge">
<title>Node2&#45;&gt;Node5</title>
<path fill="none" stroke="#191970" d="M246.2602,-207.4106C262.1328,-220.8151 286.0589,-238.9838 310,-249.5 318.2313,-253.1156 327.192,-256.0586 336.1691,-258.4502"/>
<polygon fill="#191970" stroke="#191970" points="248.1714,-204.4356 238.3216,-200.5326 243.5877,-209.7261 248.1714,-204.4356"/>
</g>
<!-- Node6 -->
<g id="node6" class="node">
<title>Node6</title>
<g id="a_node6"><a xlink:href="../../d7/d9e/Fun4All__G4__fsPHENIX_8C.html#a75e8ef26e92f882a865536a3e16244c5" target="_top" xlink:title="Fun4All_G4_fsPHENIX">
<polygon fill="none" stroke="#000000" points="338.5,-219.5 338.5,-239.5 462.5,-239.5 462.5,-219.5 338.5,-219.5"/>
<text text-anchor="middle" x="400.5" y="-226.5" font-family="FreeSans" font-size="10.00" fill="#000000">Fun4All_G4_fsPHENIX</text>
</a>
</g>
</g>
<!-- Node2&#45;&gt;Node6 -->
<g id="edge5" class="edge">
<title>Node2&#45;&gt;Node6</title>
<path fill="none" stroke="#191970" d="M277.7236,-202.9374C288.3658,-205.4993 299.5423,-208.1352 310,-210.5 323.3101,-213.5098 337.7586,-216.6155 351.1222,-219.4217"/>
<polygon fill="#191970" stroke="#191970" points="278.2678,-199.468 267.7248,-200.515 276.6195,-206.2712 278.2678,-199.468"/>
</g>
<!-- Node7 -->
<g id="node7" class="node">
<title>Node7</title>
<g id="a_node7"><a xlink:href="../../d5/d97/Fun4All__G4__FullDetectorModular_8C.html#a3718da6a9c8edc72f231ee413c514dad" target="_top" xlink:title="Fun4All_G4_FullDetectorModular">
<polygon fill="none" stroke="#000000" points="310,-180.5 310,-200.5 491,-200.5 491,-180.5 310,-180.5"/>
<text text-anchor="middle" x="400.5" y="-187.5" font-family="FreeSans" font-size="10.00" fill="#000000">Fun4All_G4_FullDetectorModular</text>
</a>
</g>
</g>
<!-- Node2&#45;&gt;Node7 -->
<g id="edge6" class="edge">
<title>Node2&#45;&gt;Node7</title>
<path fill="none" stroke="#191970" d="M284.4773,-190.5C292.6903,-190.5 301.3068,-190.5 309.9773,-190.5"/>
<polygon fill="#191970" stroke="#191970" points="284.3163,-187.0001 274.3163,-190.5 284.3163,-194.0001 284.3163,-187.0001"/>
</g>
<!-- Node8 -->
<g id="node8" class="node">
<title>Node8</title>
<g id="a_node8"><a xlink:href="../../d0/dce/Fun4All__G4__FullDetectorModularBeast_8C.html#a0f10ba4ce157df87369cfd776fc132d3" target="_top" xlink:title="Fun4All_G4_FullDetectorModular\lBeast">
<polygon fill="none" stroke="#000000" points="310,-129.5 310,-161.5 491,-161.5 491,-129.5 310,-129.5"/>
<text text-anchor="start" x="318" y="-148.5" font-family="FreeSans" font-size="10.00" fill="#000000">Fun4All_G4_FullDetectorModular</text>
<text text-anchor="middle" x="400.5" y="-136.5" font-family="FreeSans" font-size="10.00" fill="#000000">Beast</text>
</a>
</g>
</g>
<!-- Node2&#45;&gt;Node8 -->
<g id="edge7" class="edge">
<title>Node2&#45;&gt;Node8</title>
<path fill="none" stroke="#191970" d="M276.1621,-177.8422C295.579,-172.7916 318.1639,-166.9169 338.7166,-161.5708"/>
<polygon fill="#191970" stroke="#191970" points="275.1214,-174.4964 266.3246,-180.4011 276.8836,-181.2709 275.1214,-174.4964"/>
</g>
<!-- Node9 -->
<g id="node9" class="node">
<title>Node9</title>
<g id="a_node9"><a xlink:href="../../d9/d18/Fun4All__G4__LBLDetector_8C.html#acc03ebe198962a7abb94f5c42641bfc9" target="_top" xlink:title="Fun4All_G4_LBLDetector">
<polygon fill="none" stroke="#000000" points="330.5,-90.5 330.5,-110.5 470.5,-110.5 470.5,-90.5 330.5,-90.5"/>
<text text-anchor="middle" x="400.5" y="-97.5" font-family="FreeSans" font-size="10.00" fill="#000000">Fun4All_G4_LBLDetector</text>
</a>
</g>
</g>
<!-- Node2&#45;&gt;Node9 -->
<g id="edge8" class="edge">
<title>Node2&#45;&gt;Node9</title>
<path fill="none" stroke="#191970" d="M243.4633,-172.7121C258.9094,-156.6197 283.7779,-133.5099 310,-120.5 318.2162,-116.4236 327.2602,-113.171 336.3561,-110.5774"/>
<polygon fill="#191970" stroke="#191970" points="240.5542,-170.6993 236.2876,-180.3971 245.6706,-175.4766 240.5542,-170.6993"/>
</g>
<!-- Node10 -->
<g id="node10" class="node">
<title>Node10</title>
<g id="a_node10"><a xlink:href="../../d9/d73/fun4all__macros_2blob_2master_2detectors_2sPHENIX_2Fun4All__G4__sPHENIX_8C.html#a4102cd3e195333de974409428a2e6dae" target="_top" xlink:title="Fun4All_G4_sPHENIX">
<polygon fill="none" stroke="#000000" points="340,-51.5 340,-71.5 461,-71.5 461,-51.5 340,-51.5"/>
<text text-anchor="middle" x="400.5" y="-58.5" font-family="FreeSans" font-size="10.00" fill="#000000">Fun4All_G4_sPHENIX</text>
</a>
</g>
</g>
<!-- Node2&#45;&gt;Node10 -->
<g id="edge9" class="edge">
<title>Node2&#45;&gt;Node10</title>
<path fill="none" stroke="#191970" d="M236.5724,-171.3604C249.3522,-146.5753 275.0578,-103.9068 310,-81.5 318.9398,-75.7673 329.2853,-71.6612 339.7175,-68.724"/>
<polygon fill="#191970" stroke="#191970" points="233.353,-169.9741 232.0358,-180.4867 239.6213,-173.09 233.353,-169.9741"/>
</g>
<!-- Node11 -->
<g id="node11" class="node">
<title>Node11</title>
<g id="a_node11"><a xlink:href="../../d3/d2b/Fun4All__G4__sPHENIX__particle__gen_8C.html#a381adc702b7bfb99356660cdb6407e70" target="_top" xlink:title="Fun4All_G4_sPHENIX\l_particle_gen">
<polygon fill="none" stroke="#000000" points="340,-.5 340,-32.5 461,-32.5 461,-.5 340,-.5"/>
<text text-anchor="start" x="348" y="-19.5" font-family="FreeSans" font-size="10.00" fill="#000000">Fun4All_G4_sPHENIX</text>
<text text-anchor="middle" x="400.5" y="-7.5" font-family="FreeSans" font-size="10.00" fill="#000000">_particle_gen</text>
</a>
</g>
</g>
<!-- Node2&#45;&gt;Node11 -->
<g id="edge10" class="edge">
<title>Node2&#45;&gt;Node11</title>
<path fill="none" stroke="#191970" d="M233.1547,-170.5576C243.2301,-138.6728 267.339,-76.3686 310,-42.5 318.7061,-35.5882 329.1725,-30.5138 339.8497,-26.7884"/>
<polygon fill="#191970" stroke="#191970" points="229.7017,-169.886 230.1688,-180.4705 236.4043,-171.9049 229.7017,-169.886"/>
</g>
</g>
</svg>
