<?xml version="1.0" encoding="UTF-8" standalone="no"?>
<!DOCTYPE svg PUBLIC "-//W3C//DTD SVG 1.1//EN"
 "http://www.w3.org/Graphics/SVG/1.1/DTD/svg11.dtd">
<!-- Generated by graphviz version 2.40.1 (20161225.0304)
 -->
<!-- Title: fun4all_coresoftware/blob/master/offline/framework/frog/FROG.h Pages: 1 -->
<svg width="1647pt" height="146pt"
 viewBox="0.00 0.00 1647.00 146.00" xmlns="http://www.w3.org/2000/svg" xmlns:xlink="http://www.w3.org/1999/xlink">
<g id="graph0" class="graph" transform="scale(1 1) rotate(0) translate(4 142)">
<title>fun4all_coresoftware/blob/master/offline/framework/frog/FROG.h</title>
<!-- Node1 -->
<g id="node1" class="node">
<title>Node1</title>
<polygon fill="#bfbfbf" stroke="#000000" points="756.5,-93.5 756.5,-137.5 895.5,-137.5 895.5,-93.5 756.5,-93.5"/>
<text text-anchor="start" x="764.5" y="-124.5" font-family="FreeSans" font-size="10.00" fill="#000000">fun4all_coresoftware</text>
<text text-anchor="start" x="764.5" y="-112.5" font-family="FreeSans" font-size="10.00" fill="#000000">/blob/master/offline</text>
<text text-anchor="middle" x="826" y="-100.5" font-family="FreeSans" font-size="10.00" fill="#000000">/framework/frog/FROG.h</text>
</g>
<!-- Node2 -->
<g id="node2" class="node">
<title>Node2</title>
<g id="a_node2"><a xlink:href="../../d4/d0c/Fun4AllHepMCInputManager_8cc.html" target="_top" xlink:title="fun4all_coresoftware\l/blob/master/generators\l/phhepmc/Fun4AllHepMCInputManager.cc">
<polygon fill="none" stroke="#000000" points="0,-6.5 0,-50.5 228,-50.5 228,-6.5 0,-6.5"/>
<text text-anchor="start" x="8" y="-37.5" font-family="FreeSans" font-size="10.00" fill="#000000">fun4all_coresoftware</text>
<text text-anchor="start" x="8" y="-25.5" font-family="FreeSans" font-size="10.00" fill="#000000">/blob/master/generators</text>
<text text-anchor="middle" x="114" y="-13.5" font-family="FreeSans" font-size="10.00" fill="#000000">/phhepmc/Fun4AllHepMCInputManager.cc</text>
</a>
</g>
</g>
<!-- Node1&#45;&gt;Node2 -->
<g id="edge1" class="edge">
<title>Node1&#45;&gt;Node2</title>
<path fill="none" stroke="#191970" d="M746.2477,-110.8466C632.6195,-103.4767 417.85,-86.8061 237,-57 225.9697,-55.1821 214.4526,-52.9574 203.0805,-50.5601"/>
<polygon fill="#191970" stroke="#191970" points="746.0523,-114.3411 756.2559,-111.4885 746.5005,-107.3555 746.0523,-114.3411"/>
</g>
<!-- Node3 -->
<g id="node3" class="node">
<title>Node3</title>
<g id="a_node3"><a xlink:href="../../db/dbe/Fun4AllOscarInputManager_8cc.html" target="_top" xlink:title="fun4all_coresoftware\l/blob/master/generators\l/phhepmc/Fun4AllOscarInputManager.cc">
<polygon fill="none" stroke="#000000" points="246.5,-6.5 246.5,-50.5 467.5,-50.5 467.5,-6.5 246.5,-6.5"/>
<text text-anchor="start" x="254.5" y="-37.5" font-family="FreeSans" font-size="10.00" fill="#000000">fun4all_coresoftware</text>
<text text-anchor="start" x="254.5" y="-25.5" font-family="FreeSans" font-size="10.00" fill="#000000">/blob/master/generators</text>
<text text-anchor="middle" x="357" y="-13.5" font-family="FreeSans" font-size="10.00" fill="#000000">/phhepmc/Fun4AllOscarInputManager.cc</text>
</a>
</g>
</g>
<!-- Node1&#45;&gt;Node3 -->
<g id="edge2" class="edge">
<title>Node1&#45;&gt;Node3</title>
<path fill="none" stroke="#191970" d="M746.0186,-103.656C675.099,-92.7824 568.8286,-75.5791 477,-57 467.2408,-55.0255 457.0677,-52.828 446.9531,-50.5536"/>
<polygon fill="#191970" stroke="#191970" points="745.8059,-107.164 756.2197,-105.2138 746.8626,-100.2442 745.8059,-107.164"/>
</g>
<!-- Node4 -->
<g id="node4" class="node">
<title>Node4</title>
<g id="a_node4"><a xlink:href="../../d1/dd0/FROG_8cc.html" target="_top" xlink:title="fun4all_coresoftware\l/blob/master/offline\l/framework/frog/FROG.cc">
<polygon fill="none" stroke="#000000" points="486,-6.5 486,-50.5 630,-50.5 630,-6.5 486,-6.5"/>
<text text-anchor="start" x="494" y="-37.5" font-family="FreeSans" font-size="10.00" fill="#000000">fun4all_coresoftware</text>
<text text-anchor="start" x="494" y="-25.5" font-family="FreeSans" font-size="10.00" fill="#000000">/blob/master/offline</text>
<text text-anchor="middle" x="558" y="-13.5" font-family="FreeSans" font-size="10.00" fill="#000000">/framework/frog/FROG.cc</text>
</a>
</g>
</g>
<!-- Node1&#45;&gt;Node4 -->
<g id="edge3" class="edge">
<title>Node1&#45;&gt;Node4</title>
<path fill="none" stroke="#191970" d="M746.4242,-91.2817C713.1419,-80.9774 674.1109,-68.6649 639,-57 632.7752,-54.9319 626.2974,-52.7329 619.8374,-50.5089"/>
<polygon fill="#191970" stroke="#191970" points="745.5155,-94.6642 756.103,-94.272 747.5818,-87.9761 745.5155,-94.6642"/>
</g>
<!-- Node5 -->
<g id="node5" class="node">
<title>Node5</title>
<g id="a_node5"><a xlink:href="../../d3/d53/Fun4AllDstInputManager_8cc.html" target="_top" xlink:title="fun4all_coresoftware\l/blob/master/offline\l/framework/fun4all/Fun4AllDst\lInputManager.cc">
<polygon fill="none" stroke="#000000" points="648.5,-.5 648.5,-56.5 819.5,-56.5 819.5,-.5 648.5,-.5"/>
<text text-anchor="start" x="656.5" y="-43.5" font-family="FreeSans" font-size="10.00" fill="#000000">fun4all_coresoftware</text>
<text text-anchor="start" x="656.5" y="-31.5" font-family="FreeSans" font-size="10.00" fill="#000000">/blob/master/offline</text>
<text text-anchor="start" x="656.5" y="-19.5" font-family="FreeSans" font-size="10.00" fill="#000000">/framework/fun4all/Fun4AllDst</text>
<text text-anchor="middle" x="734" y="-7.5" font-family="FreeSans" font-size="10.00" fill="#000000">InputManager.cc</text>
</a>
</g>
</g>
<!-- Node1&#45;&gt;Node5 -->
<g id="edge4" class="edge">
<title>Node1&#45;&gt;Node5</title>
<path fill="none" stroke="#191970" d="M794.8915,-86.0822C784.8767,-76.6116 773.8062,-66.1429 763.8817,-56.7577"/>
<polygon fill="#191970" stroke="#191970" points="792.6371,-88.7675 802.3077,-93.0953 797.4468,-83.6814 792.6371,-88.7675"/>
</g>
<!-- Node6 -->
<g id="node6" class="node">
<title>Node6</title>
<g id="a_node6"><a xlink:href="../../da/d7b/Fun4AllPrdfInputManager_8cc.html" target="_top" xlink:title="fun4all_coresoftware\l/blob/master/offline\l/framework/fun4allraw\l/Fun4AllPrdfInputManager.cc">
<polygon fill="none" stroke="#000000" points="837.5,-.5 837.5,-56.5 998.5,-56.5 998.5,-.5 837.5,-.5"/>
<text text-anchor="start" x="845.5" y="-43.5" font-family="FreeSans" font-size="10.00" fill="#000000">fun4all_coresoftware</text>
<text text-anchor="start" x="845.5" y="-31.5" font-family="FreeSans" font-size="10.00" fill="#000000">/blob/master/offline</text>
<text text-anchor="start" x="845.5" y="-19.5" font-family="FreeSans" font-size="10.00" fill="#000000">/framework/fun4allraw</text>
<text text-anchor="middle" x="918" y="-7.5" font-family="FreeSans" font-size="10.00" fill="#000000">/Fun4AllPrdfInputManager.cc</text>
</a>
</g>
</g>
<!-- Node1&#45;&gt;Node6 -->
<g id="edge5" class="edge">
<title>Node1&#45;&gt;Node6</title>
<path fill="none" stroke="#191970" d="M857.1085,-86.0822C867.1233,-76.6116 878.1938,-66.1429 888.1183,-56.7577"/>
<polygon fill="#191970" stroke="#191970" points="854.5532,-83.6814 849.6923,-93.0953 859.3629,-88.7675 854.5532,-83.6814"/>
</g>
<!-- Node7 -->
<g id="node7" class="node">
<title>Node7</title>
<g id="a_node7"><a xlink:href="../../d9/d8e/TpcSpaceChargeMatrixInversion_8cc.html" target="_top" xlink:title="performs space charge distortion reconstruction using tracks">
<polygon fill="none" stroke="#000000" points="1017,-.5 1017,-56.5 1217,-56.5 1217,-.5 1017,-.5"/>
<text text-anchor="start" x="1025" y="-43.5" font-family="FreeSans" font-size="10.00" fill="#000000">fun4all_coresoftware</text>
<text text-anchor="start" x="1025" y="-31.5" font-family="FreeSans" font-size="10.00" fill="#000000">/blob/master/offline</text>
<text text-anchor="start" x="1025" y="-19.5" font-family="FreeSans" font-size="10.00" fill="#000000">/packages/tpccalib/TpcSpaceCharge</text>
<text text-anchor="middle" x="1117" y="-7.5" font-family="FreeSans" font-size="10.00" fill="#000000">MatrixInversion.cc</text>
</a>
</g>
</g>
<!-- Node1&#45;&gt;Node7 -->
<g id="edge6" class="edge">
<title>Node1&#45;&gt;Node7</title>
<path fill="none" stroke="#191970" d="M905.7458,-91.6585C942.0429,-80.8068 985.2534,-67.8882 1023.1092,-56.5705"/>
<polygon fill="#191970" stroke="#191970" points="904.2802,-88.4435 895.7018,-94.6613 906.2853,-95.1502 904.2802,-88.4435"/>
</g>
<!-- Node8 -->
<g id="node8" class="node">
<title>Node8</title>
<g id="a_node8"><a xlink:href="../../de/d93/Fun4AllDstPileupInputManager_8cc.html" target="_top" xlink:title="fun4all_coresoftware\l/blob/master/simulation\l/g4simulation/g4main/Fun4AllDst\lPileupInputManager.cc">
<polygon fill="none" stroke="#000000" points="1235,-.5 1235,-56.5 1421,-56.5 1421,-.5 1235,-.5"/>
<text text-anchor="start" x="1243" y="-43.5" font-family="FreeSans" font-size="10.00" fill="#000000">fun4all_coresoftware</text>
<text text-anchor="start" x="1243" y="-31.5" font-family="FreeSans" font-size="10.00" fill="#000000">/blob/master/simulation</text>
<text text-anchor="start" x="1243" y="-19.5" font-family="FreeSans" font-size="10.00" fill="#000000">/g4simulation/g4main/Fun4AllDst</text>
<text text-anchor="middle" x="1328" y="-7.5" font-family="FreeSans" font-size="10.00" fill="#000000">PileupInputManager.cc</text>
</a>
</g>
</g>
<!-- Node1&#45;&gt;Node8 -->
<g id="edge7" class="edge">
<title>Node1&#45;&gt;Node8</title>
<path fill="none" stroke="#191970" d="M905.9895,-106.8388C987.118,-97.3446 1116.0436,-80.3033 1226,-57 1228.8779,-56.3901 1231.7946,-55.7451 1234.7338,-55.0717"/>
<polygon fill="#191970" stroke="#191970" points="905.3775,-103.3863 895.8475,-108.0155 906.1842,-110.3396 905.3775,-103.3863"/>
</g>
<!-- Node9 -->
<g id="node9" class="node">
<title>Node9</title>
<g id="a_node9"><a xlink:href="../../d0/d32/Fun4AllSingleDstPileupInputManager_8cc.html" target="_top" xlink:title="fun4all_coresoftware\l/blob/master/simulation\l/g4simulation/g4main/Fun4AllSingle\lDstPileupInputManager.cc">
<polygon fill="none" stroke="#000000" points="1439,-.5 1439,-56.5 1639,-56.5 1639,-.5 1439,-.5"/>
<text text-anchor="start" x="1447" y="-43.5" font-family="FreeSans" font-size="10.00" fill="#000000">fun4all_coresoftware</text>
<text text-anchor="start" x="1447" y="-31.5" font-family="FreeSans" font-size="10.00" fill="#000000">/blob/master/simulation</text>
<text text-anchor="start" x="1447" y="-19.5" font-family="FreeSans" font-size="10.00" fill="#000000">/g4simulation/g4main/Fun4AllSingle</text>
<text text-anchor="middle" x="1539" y="-7.5" font-family="FreeSans" font-size="10.00" fill="#000000">DstPileupInputManager.cc</text>
</a>
</g>
</g>
<!-- Node1&#45;&gt;Node9 -->
<g id="edge8" class="edge">
<title>Node1&#45;&gt;Node9</title>
<path fill="none" stroke="#191970" d="M906.0122,-111.8109C1022.1787,-105.5386 1243.9884,-90.1087 1430,-57 1432.8886,-56.4859 1435.8129,-55.9341 1438.7588,-55.351"/>
<polygon fill="#191970" stroke="#191970" points="905.5869,-108.3285 895.7866,-112.3541 905.9582,-115.3186 905.5869,-108.3285"/>
</g>
</g>
</svg>
