<?xml version="1.0" encoding="UTF-8" standalone="no"?>
<!DOCTYPE svg PUBLIC "-//W3C//DTD SVG 1.1//EN"
 "http://www.w3.org/Graphics/SVG/1.1/DTD/svg11.dtd">
<!-- Generated by graphviz version 2.40.1 (20161225.0304)
 -->
<!-- Title: FairDbValidityRec::SetValRange Pages: 1 -->
<svg width="278pt" height="80pt"
 viewBox="0.00 0.00 278.00 80.00" xmlns="http://www.w3.org/2000/svg" xmlns:xlink="http://www.w3.org/1999/xlink">
<g id="graph0" class="graph" transform="scale(1 1) rotate(0) translate(4 76)">
<title>FairDbValidityRec::SetValRange</title>
<!-- Node1 -->
<g id="node1" class="node">
<title>Node1</title>
<polygon fill="#bfbfbf" stroke="#000000" points="0,-22.5 0,-54.5 110,-54.5 110,-22.5 0,-22.5"/>
<text text-anchor="start" x="8" y="-41.5" font-family="FreeSans" font-size="10.00" fill="#000000">FairDbValidityRec::</text>
<text text-anchor="middle" x="55" y="-29.5" font-family="FreeSans" font-size="10.00" fill="#000000">SetValRange</text>
</g>
<!-- Node2 -->
<g id="node2" class="node">
<title>Node2</title>
<g id="a_node2"><a xlink:href="../../db/d68/FairDbValidityRecBuilder_8cxx.html#a566eee88aa82e0aa2caa3c3d0ce4086f" target="_top" xlink:title="ClassImp">
<polygon fill="none" stroke="#000000" points="177,-51.5 177,-71.5 239,-71.5 239,-51.5 177,-51.5"/>
<text text-anchor="middle" x="208" y="-58.5" font-family="FreeSans" font-size="10.00" fill="#000000">ClassImp</text>
</a>
</g>
</g>
<!-- Node1&#45;&gt;Node2 -->
<g id="edge1" class="edge">
<title>Node1&#45;&gt;Node2</title>
<path fill="none" stroke="#191970" d="M120.3701,-48.3269C139.9758,-51.2741 160.578,-54.3712 176.8768,-56.8214"/>
<polygon fill="#191970" stroke="#191970" points="120.6457,-44.8291 110.2365,-46.8035 119.6051,-51.7513 120.6457,-44.8291"/>
</g>
<!-- Node3 -->
<g id="node3" class="node">
<title>Node3</title>
<g id="a_node3"><a xlink:href="../../db/da0/classFairDbConfigStream.html#ac09f7bdbe80bd93e8c07293de8ba6429" target="_top" xlink:title="FairDbConfigStream\l::FairDbConfigStream">
<polygon fill="none" stroke="#000000" points="146,-.5 146,-32.5 270,-32.5 270,-.5 146,-.5"/>
<text text-anchor="start" x="154" y="-19.5" font-family="FreeSans" font-size="10.00" fill="#000000">FairDbConfigStream</text>
<text text-anchor="middle" x="208" y="-7.5" font-family="FreeSans" font-size="10.00" fill="#000000">::FairDbConfigStream</text>
</a>
</g>
</g>
<!-- Node1&#45;&gt;Node3 -->
<g id="edge2" class="edge">
<title>Node1&#45;&gt;Node3</title>
<path fill="none" stroke="#191970" d="M120.4051,-29.0953C128.8395,-27.8825 137.4578,-26.6433 145.838,-25.4383"/>
<polygon fill="#191970" stroke="#191970" points="119.6365,-25.6698 110.2365,-30.5575 120.6329,-32.5985 119.6365,-25.6698"/>
</g>
</g>
</svg>
