<?xml version="1.0" encoding="UTF-8" standalone="no"?>
<!DOCTYPE svg PUBLIC "-//W3C//DTD SVG 1.1//EN"
 "http://www.w3.org/Graphics/SVG/1.1/DTD/svg11.dtd">
<!-- Generated by graphviz version 2.40.1 (20161225.0304)
 -->
<!-- Title: fun4all_coresoftware/blob/master/offline/framework/fun4allraw/Fun4AllRolloverFileOutStream.cc Pages: 1 -->
<svg width="1613pt" height="350pt"
 viewBox="0.00 0.00 1612.50 350.00" xmlns="http://www.w3.org/2000/svg" xmlns:xlink="http://www.w3.org/1999/xlink">
<g id="graph0" class="graph" transform="scale(1 1) rotate(0) translate(4 346)">
<title>fun4all_coresoftware/blob/master/offline/framework/fun4allraw/Fun4AllRolloverFileOutStream.cc</title>
<!-- Node1 -->
<g id="node1" class="node">
<title>Node1</title>
<polygon fill="#bfbfbf" stroke="#000000" points="1044,-285.5 1044,-341.5 1229,-341.5 1229,-285.5 1044,-285.5"/>
<text text-anchor="start" x="1052" y="-328.5" font-family="FreeSans" font-size="10.00" fill="#000000">fun4all_coresoftware</text>
<text text-anchor="start" x="1052" y="-316.5" font-family="FreeSans" font-size="10.00" fill="#000000">/blob/master/offline</text>
<text text-anchor="start" x="1052" y="-304.5" font-family="FreeSans" font-size="10.00" fill="#000000">/framework/fun4allraw</text>
<text text-anchor="middle" x="1136.5" y="-292.5" font-family="FreeSans" font-size="10.00" fill="#000000">/Fun4AllRolloverFileOutStream.cc</text>
</g>
<!-- Node2 -->
<g id="node2" class="node">
<title>Node2</title>
<g id="a_node2"><a xlink:href="../../d8/d07/Fun4AllRolloverFileOutStream_8h.html" target="_top" xlink:title="Fun4AllRolloverFileOutStream.h">
<polygon fill="none" stroke="#000000" points="645.5,-228.5 645.5,-248.5 821.5,-248.5 821.5,-228.5 645.5,-228.5"/>
<text text-anchor="middle" x="733.5" y="-235.5" font-family="FreeSans" font-size="10.00" fill="#000000">Fun4AllRolloverFileOutStream.h</text>
</a>
</g>
</g>
<!-- Node1&#45;&gt;Node2 -->
<g id="edge1" class="edge">
<title>Node1&#45;&gt;Node2</title>
<path fill="none" stroke="#191970" d="M1043.7908,-296.2464C968.2957,-282.1965 863.7023,-262.7312 797.3182,-250.3768"/>
<polygon fill="#191970" stroke="#191970" points="797.8775,-246.9209 787.4059,-248.5321 796.5967,-253.8027 797.8775,-246.9209"/>
</g>
<!-- Node11 -->
<g id="node11" class="node">
<title>Node11</title>
<polygon fill="none" stroke="#bfbfbf" points="842.5,-114.5 842.5,-134.5 902.5,-134.5 902.5,-114.5 842.5,-114.5"/>
<text text-anchor="middle" x="872.5" y="-121.5" font-family="FreeSans" font-size="10.00" fill="#000000">iostream</text>
</g>
<!-- Node1&#45;&gt;Node11 -->
<g id="edge33" class="edge">
<title>Node1&#45;&gt;Node11</title>
<path fill="none" stroke="#191970" d="M1043.9158,-295.4518C989.7648,-283.401 927.9462,-266.5847 906.5,-249 875.5866,-223.6528 871.2482,-173.1631 871.4578,-144.8888"/>
<polygon fill="#191970" stroke="#191970" points="874.9648,-144.685 871.7458,-134.591 867.9675,-144.4892 874.9648,-144.685"/>
</g>
<!-- Node12 -->
<g id="node12" class="node">
<title>Node12</title>
<g id="a_node12"><a xlink:href="../../da/d34/Fun4AllEventOutputManager_8h.html" target="_top" xlink:title="Fun4AllEventOutputManager.h">
<polygon fill="none" stroke="#000000" points="171.5,-171.5 171.5,-191.5 341.5,-191.5 341.5,-171.5 171.5,-171.5"/>
<text text-anchor="middle" x="256.5" y="-178.5" font-family="FreeSans" font-size="10.00" fill="#000000">Fun4AllEventOutputManager.h</text>
</a>
</g>
</g>
<!-- Node1&#45;&gt;Node12 -->
<g id="edge16" class="edge">
<title>Node1&#45;&gt;Node12</title>
<path fill="none" stroke="#191970" d="M1043.7013,-302.866C943.176,-291.0348 778.1685,-270.7075 636.5,-249 524.0613,-231.7713 393.6396,-207.709 318.5318,-193.4529"/>
<polygon fill="#191970" stroke="#191970" points="318.7864,-189.9386 308.3085,-191.5081 317.4782,-196.8153 318.7864,-189.9386"/>
</g>
<!-- Node16 -->
<g id="node16" class="node">
<title>Node16</title>
<polygon fill="none" stroke="#bfbfbf" points="925,-228.5 925,-248.5 1012,-248.5 1012,-228.5 925,-228.5"/>
<text text-anchor="middle" x="968.5" y="-235.5" font-family="FreeSans" font-size="10.00" fill="#000000">Event/Event.h</text>
</g>
<!-- Node1&#45;&gt;Node16 -->
<g id="edge23" class="edge">
<title>Node1&#45;&gt;Node16</title>
<path fill="none" stroke="#191970" d="M1073.465,-285.3594C1048.548,-274.2357 1021.0018,-261.9383 1000.3824,-252.7332"/>
<polygon fill="#191970" stroke="#191970" points="1001.7031,-249.4899 991.145,-248.6094 998.8495,-255.8819 1001.7031,-249.4899"/>
</g>
<!-- Node17 -->
<g id="node17" class="node">
<title>Node17</title>
<polygon fill="none" stroke="#bfbfbf" points="1030.5,-228.5 1030.5,-248.5 1124.5,-248.5 1124.5,-228.5 1030.5,-228.5"/>
<text text-anchor="middle" x="1077.5" y="-235.5" font-family="FreeSans" font-size="10.00" fill="#000000">Event/oBuffer.h</text>
</g>
<!-- Node1&#45;&gt;Node17 -->
<g id="edge24" class="edge">
<title>Node1&#45;&gt;Node17</title>
<path fill="none" stroke="#191970" d="M1114.1946,-285.1457C1106.7351,-275.6632 1098.6219,-265.3498 1091.9257,-256.8377"/>
<polygon fill="#191970" stroke="#191970" points="1094.481,-254.4251 1085.5472,-248.7296 1088.9793,-258.7531 1094.481,-254.4251"/>
</g>
<!-- Node18 -->
<g id="node18" class="node">
<title>Node18</title>
<polygon fill="none" stroke="#bfbfbf" points="1142.5,-228.5 1142.5,-248.5 1248.5,-248.5 1248.5,-228.5 1142.5,-228.5"/>
<text text-anchor="middle" x="1195.5" y="-235.5" font-family="FreeSans" font-size="10.00" fill="#000000">Event/ospBuffer.h</text>
</g>
<!-- Node1&#45;&gt;Node18 -->
<g id="edge25" class="edge">
<title>Node1&#45;&gt;Node18</title>
<path fill="none" stroke="#191970" d="M1158.8054,-285.1457C1166.2649,-275.6632 1174.3781,-265.3498 1181.0743,-256.8377"/>
<polygon fill="#191970" stroke="#191970" points="1184.0207,-258.7531 1187.4528,-248.7296 1178.519,-254.4251 1184.0207,-258.7531"/>
</g>
<!-- Node19 -->
<g id="node19" class="node">
<title>Node19</title>
<g id="a_node19"><a xlink:href="../../d5/d6f/phool_8h.html" target="_top" xlink:title="phool/phool.h">
<polygon fill="none" stroke="#000000" points="887,-171.5 887,-191.5 972,-191.5 972,-171.5 887,-171.5"/>
<text text-anchor="middle" x="929.5" y="-178.5" font-family="FreeSans" font-size="10.00" fill="#000000">phool/phool.h</text>
</a>
</g>
</g>
<!-- Node1&#45;&gt;Node19 -->
<g id="edge26" class="edge">
<title>Node1&#45;&gt;Node19</title>
<path fill="none" stroke="#191970" d="M1043.8135,-297.9277C990.6956,-286.9058 931.4757,-270.3047 915.5,-249 905.1158,-235.1519 910.9328,-215.4074 917.9597,-200.8483"/>
<polygon fill="#191970" stroke="#191970" points="921.2045,-202.2025 922.8335,-191.7337 915.0316,-198.9017 921.2045,-202.2025"/>
</g>
<!-- Node20 -->
<g id="node20" class="node">
<title>Node20</title>
<polygon fill="none" stroke="#bfbfbf" points="1266.5,-228.5 1266.5,-248.5 1314.5,-248.5 1314.5,-228.5 1266.5,-228.5"/>
<text text-anchor="middle" x="1290.5" y="-235.5" font-family="FreeSans" font-size="10.00" fill="#000000">fcntl.h</text>
</g>
<!-- Node1&#45;&gt;Node20 -->
<g id="edge28" class="edge">
<title>Node1&#45;&gt;Node20</title>
<path fill="none" stroke="#191970" d="M1194.2821,-285.3594C1216.8126,-274.3867 1241.6882,-262.272 1260.5013,-253.1098"/>
<polygon fill="#191970" stroke="#191970" points="1262.2841,-256.1346 1269.7421,-248.6094 1259.2191,-249.8412 1262.2841,-256.1346"/>
</g>
<!-- Node21 -->
<g id="node21" class="node">
<title>Node21</title>
<polygon fill="none" stroke="#bfbfbf" points="1332.5,-228.5 1332.5,-248.5 1396.5,-248.5 1396.5,-228.5 1332.5,-228.5"/>
<text text-anchor="middle" x="1364.5" y="-235.5" font-family="FreeSans" font-size="10.00" fill="#000000">sys/stat.h</text>
</g>
<!-- Node1&#45;&gt;Node21 -->
<g id="edge29" class="edge">
<title>Node1&#45;&gt;Node21</title>
<path fill="none" stroke="#191970" d="M1221.723,-285.4661C1256.9109,-273.8911 1296.0127,-261.0287 1324.3864,-251.6953"/>
<polygon fill="#191970" stroke="#191970" points="1325.5455,-254.9986 1333.951,-248.549 1323.3581,-248.3491 1325.5455,-254.9986"/>
</g>
<!-- Node22 -->
<g id="node22" class="node">
<title>Node22</title>
<polygon fill="none" stroke="#bfbfbf" points="1415,-228.5 1415,-248.5 1472,-248.5 1472,-228.5 1415,-228.5"/>
<text text-anchor="middle" x="1443.5" y="-235.5" font-family="FreeSans" font-size="10.00" fill="#000000">unistd.h</text>
</g>
<!-- Node1&#45;&gt;Node22 -->
<g id="edge30" class="edge">
<title>Node1&#45;&gt;Node22</title>
<path fill="none" stroke="#191970" d="M1229.1327,-292.1148C1278.5514,-280.5091 1340.6172,-265.6222 1404.9674,-249.0779"/>
<polygon fill="#191970" stroke="#191970" points="1406.0855,-252.4041 1414.8943,-246.5172 1404.337,-245.626 1406.0855,-252.4041"/>
</g>
<!-- Node23 -->
<g id="node23" class="node">
<title>Node23</title>
<polygon fill="none" stroke="#bfbfbf" points="1490.5,-228.5 1490.5,-248.5 1536.5,-248.5 1536.5,-228.5 1490.5,-228.5"/>
<text text-anchor="middle" x="1513.5" y="-235.5" font-family="FreeSans" font-size="10.00" fill="#000000">cstdio</text>
</g>
<!-- Node1&#45;&gt;Node23 -->
<g id="edge31" class="edge">
<title>Node1&#45;&gt;Node23</title>
<path fill="none" stroke="#191970" d="M1229.1136,-299.5994C1296.5375,-288.6862 1390.0939,-271.9054 1480.3365,-249.0655"/>
<polygon fill="#191970" stroke="#191970" points="1481.3665,-252.4147 1490.1865,-246.5446 1479.6309,-245.6333 1481.3665,-252.4147"/>
</g>
<!-- Node24 -->
<g id="node24" class="node">
<title>Node24</title>
<polygon fill="none" stroke="#bfbfbf" points="1554.5,-228.5 1554.5,-248.5 1604.5,-248.5 1604.5,-228.5 1554.5,-228.5"/>
<text text-anchor="middle" x="1579.5" y="-235.5" font-family="FreeSans" font-size="10.00" fill="#000000">cstdlib</text>
</g>
<!-- Node1&#45;&gt;Node24 -->
<g id="edge32" class="edge">
<title>Node1&#45;&gt;Node24</title>
<path fill="none" stroke="#191970" d="M1229.0032,-302.7532C1310.0163,-292.4595 1430.9301,-274.9638 1544.4525,-248.9959"/>
<polygon fill="#191970" stroke="#191970" points="1545.405,-252.3681 1554.3586,-246.7037 1543.8269,-245.5483 1545.405,-252.3681"/>
</g>
<!-- Node3 -->
<g id="node3" class="node">
<title>Node3</title>
<g id="a_node3"><a xlink:href="../../df/d18/Fun4AllFileOutStream_8h.html" target="_top" xlink:title="Fun4AllFileOutStream.h">
<polygon fill="none" stroke="#000000" points="658.5,-171.5 658.5,-191.5 792.5,-191.5 792.5,-171.5 658.5,-171.5"/>
<text text-anchor="middle" x="725.5" y="-178.5" font-family="FreeSans" font-size="10.00" fill="#000000">Fun4AllFileOutStream.h</text>
</a>
</g>
</g>
<!-- Node2&#45;&gt;Node3 -->
<g id="edge2" class="edge">
<title>Node2&#45;&gt;Node3</title>
<path fill="none" stroke="#191970" d="M732.0698,-228.3095C731.0345,-220.9335 729.601,-210.72 728.3372,-201.715"/>
<polygon fill="#191970" stroke="#191970" points="731.7739,-201.0187 726.9179,-191.6022 724.8418,-201.9917 731.7739,-201.0187"/>
</g>
<!-- Node7 -->
<g id="node7" class="node">
<title>Node7</title>
<polygon fill="none" stroke="#bfbfbf" points="328,-.5 328,-20.5 373,-20.5 373,-.5 328,-.5"/>
<text text-anchor="middle" x="350.5" y="-7.5" font-family="FreeSans" font-size="10.00" fill="#000000">string</text>
</g>
<!-- Node2&#45;&gt;Node7 -->
<g id="edge15" class="edge">
<title>Node2&#45;&gt;Node7</title>
<path fill="none" stroke="#191970" d="M691.6881,-228.4527C621.8479,-209.762 480.557,-163.5591 393.5,-78 379.1679,-63.9145 367.3056,-44.2007 359.6967,-29.7135"/>
<polygon fill="#191970" stroke="#191970" points="362.7563,-28.0074 355.1304,-20.6523 356.5051,-31.1576 362.7563,-28.0074"/>
</g>
<!-- Node2&#45;&gt;Node11 -->
<g id="edge14" class="edge">
<title>Node2&#45;&gt;Node11</title>
<path fill="none" stroke="#191970" d="M749.6801,-228.48C763.7928,-219.4988 784.5959,-205.6685 801.5,-192 821.1396,-176.1195 841.885,-155.9498 855.8448,-141.8106"/>
<polygon fill="#191970" stroke="#191970" points="858.3651,-144.2393 862.852,-134.6415 853.3592,-139.3464 858.3651,-144.2393"/>
</g>
<!-- Node4 -->
<g id="node4" class="node">
<title>Node4</title>
<g id="a_node4"><a xlink:href="../../d4/d07/Fun4AllEventOutStream_8h.html" target="_top" xlink:title="Fun4AllEventOutStream.h">
<polygon fill="none" stroke="#000000" points="495.5,-114.5 495.5,-134.5 641.5,-134.5 641.5,-114.5 495.5,-114.5"/>
<text text-anchor="middle" x="568.5" y="-121.5" font-family="FreeSans" font-size="10.00" fill="#000000">Fun4AllEventOutStream.h</text>
</a>
</g>
</g>
<!-- Node3&#45;&gt;Node4 -->
<g id="edge3" class="edge">
<title>Node3&#45;&gt;Node4</title>
<path fill="none" stroke="#191970" d="M697.793,-171.4408C672.2005,-162.1492 633.9855,-148.275 605.734,-138.0181"/>
<polygon fill="#191970" stroke="#191970" points="606.7878,-134.6772 596.1937,-134.5544 604.3989,-141.257 606.7878,-134.6772"/>
</g>
<!-- Node3&#45;&gt;Node7 -->
<g id="edge13" class="edge">
<title>Node3&#45;&gt;Node7</title>
<path fill="none" stroke="#191970" d="M739.1339,-171.1664C767.4623,-148.5024 827.4127,-93.5397 794.5,-57 767.064,-26.5406 481.7225,-14.6673 383.5017,-11.4633"/>
<polygon fill="#191970" stroke="#191970" points="383.3738,-7.9576 373.2679,-11.1391 383.152,-14.9541 383.3738,-7.9576"/>
</g>
<!-- Node8 -->
<g id="node8" class="node">
<title>Node8</title>
<polygon fill="none" stroke="#bfbfbf" points="665,-57.5 665,-77.5 786,-77.5 786,-57.5 665,-57.5"/>
<text text-anchor="middle" x="725.5" y="-64.5" font-family="FreeSans" font-size="10.00" fill="#000000">Event/phenixTypes.h</text>
</g>
<!-- Node3&#45;&gt;Node8 -->
<g id="edge11" class="edge">
<title>Node3&#45;&gt;Node8</title>
<path fill="none" stroke="#191970" d="M725.5,-171.3833C725.5,-152.6703 725.5,-112.3266 725.5,-87.7866"/>
<polygon fill="#191970" stroke="#191970" points="729.0001,-87.7579 725.5,-77.7579 722.0001,-87.758 729.0001,-87.7579"/>
</g>
<!-- Node3&#45;&gt;Node11 -->
<g id="edge12" class="edge">
<title>Node3&#45;&gt;Node11</title>
<path fill="none" stroke="#191970" d="M751.4423,-171.4408C775.1223,-162.2587 810.3439,-148.6013 836.6986,-138.3822"/>
<polygon fill="#191970" stroke="#191970" points="838.2644,-141.529 846.3226,-134.6504 835.7336,-135.0025 838.2644,-141.529"/>
</g>
<!-- Node5 -->
<g id="node5" class="node">
<title>Node5</title>
<g id="a_node5"><a xlink:href="../../d2/de7/Fun4AllBase_8h.html" target="_top" xlink:title="fun4all/Fun4AllBase.h">
<polygon fill="none" stroke="#000000" points="177.5,-57.5 177.5,-77.5 303.5,-77.5 303.5,-57.5 177.5,-57.5"/>
<text text-anchor="middle" x="240.5" y="-64.5" font-family="FreeSans" font-size="10.00" fill="#000000">fun4all/Fun4AllBase.h</text>
</a>
</g>
</g>
<!-- Node4&#45;&gt;Node5 -->
<g id="edge4" class="edge">
<title>Node4&#45;&gt;Node5</title>
<path fill="none" stroke="#191970" d="M510.6152,-114.4408C454.026,-104.6067 367.8964,-89.639 308.1709,-79.2599"/>
<polygon fill="#191970" stroke="#191970" points="308.5329,-75.7704 298.0813,-77.5065 307.3343,-82.667 308.5329,-75.7704"/>
</g>
<!-- Node4&#45;&gt;Node7 -->
<g id="edge10" class="edge">
<title>Node4&#45;&gt;Node7</title>
<path fill="none" stroke="#191970" d="M522.0525,-114.4278C493.2975,-106.9737 456.3054,-95.1188 426.5,-78 403.259,-64.6515 380.8451,-43.384 366.4568,-28.2918"/>
<polygon fill="#191970" stroke="#191970" points="368.7073,-25.5722 359.3347,-20.632 363.5808,-30.3388 368.7073,-25.5722"/>
</g>
<!-- Node4&#45;&gt;Node8 -->
<g id="edge7" class="edge">
<title>Node4&#45;&gt;Node8</title>
<path fill="none" stroke="#191970" d="M596.207,-114.4408C621.7995,-105.1492 660.0145,-91.275 688.266,-81.0181"/>
<polygon fill="#191970" stroke="#191970" points="689.6011,-84.257 697.8063,-77.5544 687.2122,-77.6772 689.6011,-84.257"/>
</g>
<!-- Node9 -->
<g id="node9" class="node">
<title>Node9</title>
<polygon fill="none" stroke="#bfbfbf" points="435.5,-57.5 435.5,-77.5 589.5,-77.5 589.5,-57.5 435.5,-57.5"/>
<text text-anchor="middle" x="512.5" y="-64.5" font-family="FreeSans" font-size="10.00" fill="#000000">boost/numeric/interval.hpp</text>
</g>
<!-- Node4&#45;&gt;Node9 -->
<g id="edge8" class="edge">
<title>Node4&#45;&gt;Node9</title>
<path fill="none" stroke="#191970" d="M558.4883,-114.3095C550.4453,-106.1229 538.9683,-94.441 529.492,-84.7955"/>
<polygon fill="#191970" stroke="#191970" points="531.9299,-82.2827 522.425,-77.6022 526.9366,-87.1885 531.9299,-82.2827"/>
</g>
<!-- Node10 -->
<g id="node10" class="node">
<title>Node10</title>
<polygon fill="none" stroke="#bfbfbf" points="608,-57.5 608,-77.5 647,-77.5 647,-57.5 608,-57.5"/>
<text text-anchor="middle" x="627.5" y="-64.5" font-family="FreeSans" font-size="10.00" fill="#000000">map</text>
</g>
<!-- Node4&#45;&gt;Node10 -->
<g id="edge9" class="edge">
<title>Node4&#45;&gt;Node10</title>
<path fill="none" stroke="#191970" d="M579.048,-114.3095C587.5219,-106.1229 599.6137,-94.441 609.5977,-84.7955"/>
<polygon fill="#191970" stroke="#191970" points="612.2832,-87.0676 617.0433,-77.6022 607.4195,-82.0332 612.2832,-87.0676"/>
</g>
<!-- Node6 -->
<g id="node6" class="node">
<title>Node6</title>
<polygon fill="none" stroke="#bfbfbf" points="216,-.5 216,-20.5 265,-20.5 265,-.5 216,-.5"/>
<text text-anchor="middle" x="240.5" y="-7.5" font-family="FreeSans" font-size="10.00" fill="#000000">climits</text>
</g>
<!-- Node5&#45;&gt;Node6 -->
<g id="edge5" class="edge">
<title>Node5&#45;&gt;Node6</title>
<path fill="none" stroke="#191970" d="M240.5,-57.3095C240.5,-49.9335 240.5,-39.72 240.5,-30.715"/>
<polygon fill="#191970" stroke="#191970" points="244.0001,-30.6022 240.5,-20.6022 237.0001,-30.6023 244.0001,-30.6022"/>
</g>
<!-- Node5&#45;&gt;Node7 -->
<g id="edge6" class="edge">
<title>Node5&#45;&gt;Node7</title>
<path fill="none" stroke="#191970" d="M259.9126,-57.4408C277.0859,-48.5419 302.3714,-35.4394 321.8669,-25.3371"/>
<polygon fill="#191970" stroke="#191970" points="323.643,-28.3589 330.9115,-20.6504 320.4224,-22.1437 323.643,-28.3589"/>
</g>
<!-- Node12&#45;&gt;Node7 -->
<g id="edge22" class="edge">
<title>Node12&#45;&gt;Node7</title>
<path fill="none" stroke="#191970" d="M262.0986,-171.3153C277.3445,-143.5807 319.7943,-66.3583 339.8043,-29.9571"/>
<polygon fill="#191970" stroke="#191970" points="343.0617,-31.2969 344.8119,-20.8476 336.9275,-27.9248 343.0617,-31.2969"/>
</g>
<!-- Node13 -->
<g id="node13" class="node">
<title>Node13</title>
<g id="a_node13"><a xlink:href="../../de/df8/Fun4AllOutputManager_8h.html" target="_top" xlink:title="fun4all/Fun4AllOutputManager.h">
<polygon fill="none" stroke="#000000" points="59.5,-114.5 59.5,-134.5 239.5,-134.5 239.5,-114.5 59.5,-114.5"/>
<text text-anchor="middle" x="149.5" y="-121.5" font-family="FreeSans" font-size="10.00" fill="#000000">fun4all/Fun4AllOutputManager.h</text>
</a>
</g>
</g>
<!-- Node12&#45;&gt;Node13 -->
<g id="edge17" class="edge">
<title>Node12&#45;&gt;Node13</title>
<path fill="none" stroke="#191970" d="M237.3705,-171.3095C220.7094,-162.434 196.3358,-149.4499 177.4829,-139.4068"/>
<polygon fill="#191970" stroke="#191970" points="178.9352,-136.2148 168.4638,-134.6022 175.6441,-142.3929 178.9352,-136.2148"/>
</g>
<!-- Node13&#45;&gt;Node5 -->
<g id="edge18" class="edge">
<title>Node13&#45;&gt;Node5</title>
<path fill="none" stroke="#191970" d="M165.769,-114.3095C179.6152,-105.6366 199.7245,-93.0407 215.596,-83.0992"/>
<polygon fill="#191970" stroke="#191970" points="217.7551,-85.8768 224.3719,-77.6022 214.0392,-79.9445 217.7551,-85.8768"/>
</g>
<!-- Node13&#45;&gt;Node7 -->
<g id="edge20" class="edge">
<title>Node13&#45;&gt;Node7</title>
<path fill="none" stroke="#191970" d="M149.3831,-114.232C149.7956,-99.4591 152.8182,-72.3062 168.5,-57 189.5561,-36.4482 271.3518,-21.7662 317.7999,-14.8899"/>
<polygon fill="#191970" stroke="#191970" points="318.5662,-18.3157 327.9652,-13.426 317.5684,-11.3872 318.5662,-18.3157"/>
</g>
<!-- Node14 -->
<g id="node14" class="node">
<title>Node14</title>
<polygon fill="none" stroke="#bfbfbf" points="67.5,-57.5 67.5,-77.5 121.5,-77.5 121.5,-57.5 67.5,-57.5"/>
<text text-anchor="middle" x="94.5" y="-64.5" font-family="FreeSans" font-size="10.00" fill="#000000">cstddef</text>
</g>
<!-- Node13&#45;&gt;Node14 -->
<g id="edge19" class="edge">
<title>Node13&#45;&gt;Node14</title>
<path fill="none" stroke="#191970" d="M139.6671,-114.3095C131.846,-106.204 120.7185,-94.672 111.4656,-85.0826"/>
<polygon fill="#191970" stroke="#191970" points="113.7102,-82.3681 104.2478,-77.6022 108.6728,-87.2288 113.7102,-82.3681"/>
</g>
<!-- Node15 -->
<g id="node15" class="node">
<title>Node15</title>
<polygon fill="none" stroke="#bfbfbf" points="0,-57.5 0,-77.5 49,-77.5 49,-57.5 0,-57.5"/>
<text text-anchor="middle" x="24.5" y="-64.5" font-family="FreeSans" font-size="10.00" fill="#000000">vector</text>
</g>
<!-- Node13&#45;&gt;Node15 -->
<g id="edge21" class="edge">
<title>Node13&#45;&gt;Node15</title>
<path fill="none" stroke="#191970" d="M127.4402,-114.4408C107.659,-105.4205 78.4063,-92.0813 56.135,-81.9255"/>
<polygon fill="#191970" stroke="#191970" points="57.3105,-78.6149 46.7597,-77.6504 54.4062,-84.984 57.3105,-78.6149"/>
</g>
<!-- Node19&#45;&gt;Node11 -->
<g id="edge27" class="edge">
<title>Node19&#45;&gt;Node11</title>
<path fill="none" stroke="#191970" d="M919.3095,-171.3095C911.1229,-163.1229 899.441,-151.441 889.7955,-141.7955"/>
<polygon fill="#191970" stroke="#191970" points="892.1482,-139.1984 882.6022,-134.6022 887.1984,-144.1482 892.1482,-139.1984"/>
</g>
</g>
</svg>
