<?xml version="1.0" encoding="UTF-8" standalone="no"?>
<!DOCTYPE svg PUBLIC "-//W3C//DTD SVG 1.1//EN"
 "http://www.w3.org/Graphics/SVG/1.1/DTD/svg11.dtd">
<!-- Generated by graphviz version 2.40.1 (20161225.0304)
 -->
<!-- Title: Tracking_Eval Pages: 1 -->
<svg width="666pt" height="326pt"
 viewBox="0.00 0.00 666.00 326.00" xmlns="http://www.w3.org/2000/svg" xmlns:xlink="http://www.w3.org/1999/xlink">
<g id="graph0" class="graph" transform="scale(1 1) rotate(0) translate(4 322)">
<title>Tracking_Eval</title>
<!-- Node1 -->
<g id="node1" class="node">
<title>Node1</title>
<polygon fill="#bfbfbf" stroke="#000000" points="0,-145.5 0,-165.5 86,-165.5 86,-145.5 0,-145.5"/>
<text text-anchor="middle" x="43" y="-152.5" font-family="FreeSans" font-size="10.00" fill="#000000">Tracking_Eval</text>
</g>
<!-- Node2 -->
<g id="node2" class="node">
<title>Node2</title>
<g id="a_node2"><a xlink:href="../../da/d29/classFun4AllServer.html#a3e55156f91b2c94bb6c4ef33ffce587a" target="_top" xlink:title="Fun4AllServer::instance">
<polygon fill="none" stroke="#000000" points="346,-297.5 346,-317.5 482,-317.5 482,-297.5 346,-297.5"/>
<text text-anchor="middle" x="414" y="-304.5" font-family="FreeSans" font-size="10.00" fill="#000000">Fun4AllServer::instance</text>
</a>
</g>
</g>
<!-- Node1&#45;&gt;Node2 -->
<g id="edge1" class="edge">
<title>Node1&#45;&gt;Node2</title>
<path fill="none" stroke="#191970" d="M60.5575,-165.6728C76.3548,-174.6222 100.3433,-187.7127 122,-197.5 209.7827,-237.1715 316.5037,-274.8046 373.498,-294.0896"/>
<polygon fill="#191970" stroke="#191970" points="372.6173,-297.4861 383.2114,-297.3614 374.8518,-290.8523 372.6173,-297.4861"/>
</g>
<!-- Node3 -->
<g id="node3" class="node">
<title>Node3</title>
<g id="a_node3"><a xlink:href="../../da/d29/classFun4AllServer.html#a0a9947db0ede1e55622001eb7515f8c0" target="_top" xlink:title="Fun4AllServer::registerSubsystem">
<polygon fill="none" stroke="#000000" points="122,-168.5 122,-188.5 310,-188.5 310,-168.5 122,-168.5"/>
<text text-anchor="middle" x="216" y="-175.5" font-family="FreeSans" font-size="10.00" fill="#000000">Fun4AllServer::registerSubsystem</text>
</a>
</g>
</g>
<!-- Node1&#45;&gt;Node3 -->
<g id="edge2" class="edge">
<title>Node1&#45;&gt;Node3</title>
<path fill="none" stroke="#191970" d="M86.2089,-161.2445C99.755,-163.0455 115.2096,-165.1001 130.6169,-167.1485"/>
<polygon fill="#191970" stroke="#191970" points="130.3402,-170.6424 140.7143,-168.4909 131.2628,-163.7035 130.3402,-170.6424"/>
</g>
<!-- Node13 -->
<g id="node13" class="node">
<title>Node13</title>
<g id="a_node13"><a xlink:href="../../d0/d71/classPHG4TrackFastSimEval.html#a71be5485fc688bf490c65175da4e5aac" target="_top" xlink:title="PHG4TrackFastSimEval\l::set_filename">
<polygon fill="none" stroke="#000000" points="150.5,-117.5 150.5,-149.5 281.5,-149.5 281.5,-117.5 150.5,-117.5"/>
<text text-anchor="start" x="158.5" y="-136.5" font-family="FreeSans" font-size="10.00" fill="#000000">PHG4TrackFastSimEval</text>
<text text-anchor="middle" x="216" y="-124.5" font-family="FreeSans" font-size="10.00" fill="#000000">::set_filename</text>
</a>
</g>
</g>
<!-- Node1&#45;&gt;Node13 -->
<g id="edge17" class="edge">
<title>Node1&#45;&gt;Node13</title>
<path fill="none" stroke="#191970" d="M86.2089,-150.0052C102.6668,-147.9123 121.9417,-145.4612 140.5263,-143.0978"/>
<polygon fill="#191970" stroke="#191970" points="140.9808,-146.5683 150.4593,-141.8347 140.0976,-139.6242 140.9808,-146.5683"/>
</g>
<!-- Node14 -->
<g id="node14" class="node">
<title>Node14</title>
<g id="a_node14"><a xlink:href="../../d0/d71/classPHG4TrackFastSimEval.html#ac32a1d7b6eb37553a598b40e28445b51" target="_top" xlink:title="PHG4TrackFastSimEval\l::set_trackmapname">
<polygon fill="none" stroke="#000000" points="150.5,-66.5 150.5,-98.5 281.5,-98.5 281.5,-66.5 150.5,-66.5"/>
<text text-anchor="start" x="158.5" y="-85.5" font-family="FreeSans" font-size="10.00" fill="#000000">PHG4TrackFastSimEval</text>
<text text-anchor="middle" x="216" y="-73.5" font-family="FreeSans" font-size="10.00" fill="#000000">::set_trackmapname</text>
</a>
</g>
</g>
<!-- Node1&#45;&gt;Node14 -->
<g id="edge18" class="edge">
<title>Node1&#45;&gt;Node14</title>
<path fill="none" stroke="#191970" d="M56.8946,-145.3569C72.1764,-134.6175 97.7886,-117.8211 122,-107.5 128.0535,-104.9195 134.4421,-102.5453 140.9236,-100.3744"/>
<polygon fill="#191970" stroke="#191970" points="141.9911,-103.7077 150.458,-97.3389 139.8675,-97.0376 141.9911,-103.7077"/>
</g>
<!-- Node3&#45;&gt;Node2 -->
<g id="edge3" class="edge">
<title>Node3&#45;&gt;Node2</title>
<path fill="none" stroke="#191970" d="M230.7347,-188.6652C249.5915,-201.8546 283.042,-225.8644 310,-248.5 326.8543,-262.6519 327.2905,-270.9111 346,-282.5 353.0699,-286.8792 361.0238,-290.6639 368.9334,-293.8692"/>
<polygon fill="#191970" stroke="#191970" points="367.9056,-297.2225 378.497,-297.4925 370.3857,-290.6766 367.9056,-297.2225"/>
</g>
<!-- Node4 -->
<g id="node4" class="node">
<title>Node4</title>
<g id="a_node4"><a xlink:href="../../df/de8/cemc_8C.html#adf5c804dfce7a70e36dda02995fad481" target="_top" xlink:title="exit">
<polygon fill="none" stroke="#000000" points="396.5,-129.5 396.5,-149.5 431.5,-149.5 431.5,-129.5 396.5,-129.5"/>
<text text-anchor="middle" x="414" y="-136.5" font-family="FreeSans" font-size="10.00" fill="#000000">exit</text>
</a>
</g>
</g>
<!-- Node3&#45;&gt;Node4 -->
<g id="edge4" class="edge">
<title>Node3&#45;&gt;Node4</title>
<path fill="none" stroke="#191970" d="M266.9899,-168.4565C304.9139,-160.9867 355.2398,-151.074 386.0857,-144.9983"/>
<polygon fill="#191970" stroke="#191970" points="386.9966,-148.3862 396.1316,-143.0195 385.6437,-141.5182 386.9966,-148.3862"/>
</g>
<!-- Node5 -->
<g id="node5" class="node">
<title>Node5</title>
<g id="a_node5"><a xlink:href="../../d5/dec/classFun4AllBase.html#a41f9ac377743d046f590617fd6f4f0ed" target="_top" xlink:title="Returns the name of this module.">
<polygon fill="none" stroke="#000000" points="356.5,-90.5 356.5,-110.5 471.5,-110.5 471.5,-90.5 356.5,-90.5"/>
<text text-anchor="middle" x="414" y="-97.5" font-family="FreeSans" font-size="10.00" fill="#000000">Fun4AllBase::Name</text>
</a>
</g>
</g>
<!-- Node3&#45;&gt;Node5 -->
<g id="edge5" class="edge">
<title>Node3&#45;&gt;Node5</title>
<path fill="none" stroke="#191970" d="M287.0507,-168.351C295.0661,-165.7735 302.895,-162.5446 310,-158.5 330.5002,-146.8301 325.8764,-131.808 346,-119.5 349.0194,-117.6533 352.2228,-115.9814 355.5303,-114.4684"/>
<polygon fill="#191970" stroke="#191970" points="357.1035,-117.6076 365.0606,-110.6122 354.4778,-111.1187 357.1035,-117.6076"/>
</g>
<!-- Node6 -->
<g id="node6" class="node">
<title>Node6</title>
<g id="a_node6"><a xlink:href="../../da/d29/classFun4AllServer.html#abcaf6825367e5db292ff795237bdcf62" target="_top" xlink:title="Fun4AllServer::topNode">
<polygon fill="none" stroke="#000000" points="346,-51.5 346,-71.5 482,-71.5 482,-51.5 346,-51.5"/>
<text text-anchor="middle" x="414" y="-58.5" font-family="FreeSans" font-size="10.00" fill="#000000">Fun4AllServer::topNode</text>
</a>
</g>
</g>
<!-- Node3&#45;&gt;Node6 -->
<g id="edge6" class="edge">
<title>Node3&#45;&gt;Node6</title>
<path fill="none" stroke="#191970" d="M293.6246,-168.2998C299.492,-165.6801 305.0463,-162.4571 310,-158.5 339.8316,-134.6703 316.9316,-105.2549 346,-80.5 347.5748,-79.1589 349.2375,-77.912 350.9696,-76.7528"/>
<polygon fill="#191970" stroke="#191970" points="353.0887,-79.5789 360.1234,-71.6566 349.6836,-73.4629 353.0887,-79.5789"/>
</g>
<!-- Node7 -->
<g id="node7" class="node">
<title>Node7</title>
<g id="a_node7"><a xlink:href="../../d7/d96/classFun4AllMemoryTracker.html#a3841cc0bc6c4047da2b4868ba39dbb8c" target="_top" xlink:title="Fun4AllMemoryTracker\l::Start">
<polygon fill="none" stroke="#000000" points="348,-.5 348,-32.5 480,-32.5 480,-.5 348,-.5"/>
<text text-anchor="start" x="356" y="-19.5" font-family="FreeSans" font-size="10.00" fill="#000000">Fun4AllMemoryTracker</text>
<text text-anchor="middle" x="414" y="-7.5" font-family="FreeSans" font-size="10.00" fill="#000000">::Start</text>
</a>
</g>
</g>
<!-- Node3&#45;&gt;Node7 -->
<g id="edge7" class="edge">
<title>Node3&#45;&gt;Node7</title>
<path fill="none" stroke="#191970" d="M295.5763,-168.3322C300.8039,-165.6796 305.6914,-162.4418 310,-158.5 350.1415,-121.7759 308.5781,-80.9918 346,-41.5 346.9003,-40.5499 347.8398,-39.6357 348.8137,-38.7561"/>
<polygon fill="#191970" stroke="#191970" points="351.0065,-41.4862 356.8787,-32.6676 346.7888,-35.8994 351.0065,-41.4862"/>
</g>
<!-- Node10 -->
<g id="node10" class="node">
<title>Node10</title>
<g id="a_node10"><a xlink:href="../../d5/dec/classFun4AllBase.html#a8a5c77a92bdac6bc043476e132379a40" target="_top" xlink:title="Gets the verbosity of this module.">
<polygon fill="none" stroke="#000000" points="522,-213.5 522,-233.5 654,-233.5 654,-213.5 522,-213.5"/>
<text text-anchor="middle" x="588" y="-220.5" font-family="FreeSans" font-size="10.00" fill="#000000">Fun4AllBase::Verbosity</text>
</a>
</g>
</g>
<!-- Node3&#45;&gt;Node10 -->
<g id="edge16" class="edge">
<title>Node3&#45;&gt;Node10</title>
<path fill="none" stroke="#191970" d="M229.0864,-188.601C251.5164,-205.2035 299.4051,-237.6052 346,-249.5 415.5673,-267.2592 499.3963,-249.99 547.9085,-236.3675"/>
<polygon fill="#191970" stroke="#191970" points="549.075,-239.6736 557.7066,-233.5299 547.1277,-232.9499 549.075,-239.6736"/>
</g>
<!-- Node11 -->
<g id="node11" class="node">
<title>Node11</title>
<g id="a_node11"><a xlink:href="../../d0/d32/classSubsysReco.html#a6670c0a093dd2c2bdd44f8fc6f9ba8e8" target="_top" xlink:title="SubsysReco::Init">
<polygon fill="none" stroke="#000000" points="364,-168.5 364,-188.5 464,-188.5 464,-168.5 364,-168.5"/>
<text text-anchor="middle" x="414" y="-175.5" font-family="FreeSans" font-size="10.00" fill="#000000">SubsysReco::Init</text>
</a>
</g>
</g>
<!-- Node3&#45;&gt;Node11 -->
<g id="edge11" class="edge">
<title>Node3&#45;&gt;Node11</title>
<path fill="none" stroke="#191970" d="M310.0711,-178.5C324.8604,-178.5 339.7966,-178.5 353.5554,-178.5"/>
<polygon fill="#191970" stroke="#191970" points="353.8253,-182.0001 363.8253,-178.5 353.8253,-175.0001 353.8253,-182.0001"/>
</g>
<!-- Node12 -->
<g id="node12" class="node">
<title>Node12</title>
<g id="a_node12"><a xlink:href="../../d7/d96/classFun4AllMemoryTracker.html#a766ac66dd36ffa4e3fbe6e622923565f" target="_top" xlink:title="Fun4AllMemoryTracker\l::Stop">
<polygon fill="none" stroke="#000000" points="348,-207.5 348,-239.5 480,-239.5 480,-207.5 348,-207.5"/>
<text text-anchor="start" x="356" y="-226.5" font-family="FreeSans" font-size="10.00" fill="#000000">Fun4AllMemoryTracker</text>
<text text-anchor="middle" x="414" y="-214.5" font-family="FreeSans" font-size="10.00" fill="#000000">::Stop</text>
</a>
</g>
</g>
<!-- Node3&#45;&gt;Node12 -->
<g id="edge12" class="edge">
<title>Node3&#45;&gt;Node12</title>
<path fill="none" stroke="#191970" d="M260.4351,-188.5989C283.284,-193.7918 311.7723,-200.2664 337.9849,-206.2239"/>
<polygon fill="#191970" stroke="#191970" points="337.3763,-209.6747 347.9033,-208.478 338.9277,-202.8488 337.3763,-209.6747"/>
</g>
<!-- Node8 -->
<g id="node8" class="node">
<title>Node8</title>
<g id="a_node8"><a xlink:href="../../d7/d96/classFun4AllMemoryTracker.html#aa8eb9ed150f51165b9abfd456c18a432" target="_top" xlink:title="Fun4AllMemoryTracker\l::CreateFullTrackerName">
<polygon fill="none" stroke="#000000" points="518,-134.5 518,-166.5 658,-166.5 658,-134.5 518,-134.5"/>
<text text-anchor="start" x="526" y="-153.5" font-family="FreeSans" font-size="10.00" fill="#000000">Fun4AllMemoryTracker</text>
<text text-anchor="middle" x="588" y="-141.5" font-family="FreeSans" font-size="10.00" fill="#000000">::CreateFullTrackerName</text>
</a>
</g>
</g>
<!-- Node7&#45;&gt;Node8 -->
<g id="edge8" class="edge">
<title>Node7&#45;&gt;Node8</title>
<path fill="none" stroke="#191970" d="M465.3403,-32.52C471.1488,-35.1567 476.8306,-38.1439 482,-41.5 517.6483,-64.6438 550.387,-101.7946 569.7737,-126.1768"/>
<polygon fill="#191970" stroke="#191970" points="567.1442,-128.4964 576.057,-134.2247 572.6618,-124.1886 567.1442,-128.4964"/>
</g>
<!-- Node9 -->
<g id="node9" class="node">
<title>Node9</title>
<g id="a_node9"><a xlink:href="../../d7/d96/classFun4AllMemoryTracker.html#a4059a8c86c92e1708e5bbdc585af99ed" target="_top" xlink:title="Fun4AllMemoryTracker\l::GetRSSMemory">
<polygon fill="none" stroke="#000000" points="522,-28.5 522,-60.5 654,-60.5 654,-28.5 522,-28.5"/>
<text text-anchor="start" x="530" y="-47.5" font-family="FreeSans" font-size="10.00" fill="#000000">Fun4AllMemoryTracker</text>
<text text-anchor="middle" x="588" y="-35.5" font-family="FreeSans" font-size="10.00" fill="#000000">::GetRSSMemory</text>
</a>
</g>
</g>
<!-- Node7&#45;&gt;Node9 -->
<g id="edge9" class="edge">
<title>Node7&#45;&gt;Node9</title>
<path fill="none" stroke="#191970" d="M480.2783,-27.1655C490.6131,-28.8285 501.3621,-30.5583 511.8946,-32.2532"/>
<polygon fill="#191970" stroke="#191970" points="511.4769,-35.7309 521.906,-33.8642 512.5891,-28.8198 511.4769,-35.7309"/>
</g>
<!-- Node7&#45;&gt;Node10 -->
<g id="edge10" class="edge">
<title>Node7&#45;&gt;Node10</title>
<path fill="none" stroke="#191970" d="M471.256,-32.5422C475.2077,-35.1002 478.8603,-38.0647 482,-41.5 523.6031,-87.0197 482.3656,-125.1706 518,-175.5 527.7549,-189.2776 542.7975,-200.3367 556.4417,-208.3512"/>
<polygon fill="#191970" stroke="#191970" points="555.1377,-211.6298 565.582,-213.4093 558.5271,-205.505 555.1377,-211.6298"/>
</g>
<!-- Node12&#45;&gt;Node8 -->
<g id="edge13" class="edge">
<title>Node12&#45;&gt;Node8</title>
<path fill="none" stroke="#191970" d="M456.9379,-207.4722C465.2821,-204.2477 473.9381,-200.8259 482,-197.5 502.3771,-189.0935 524.7157,-179.2795 543.6096,-170.8002"/>
<polygon fill="#191970" stroke="#191970" points="545.1855,-173.929 552.8649,-166.6299 542.3098,-167.547 545.1855,-173.929"/>
</g>
<!-- Node12&#45;&gt;Node9 -->
<g id="edge14" class="edge">
<title>Node12&#45;&gt;Node9</title>
<path fill="none" stroke="#191970" d="M467.867,-207.4344C472.9684,-204.6178 477.7958,-201.3305 482,-197.5 508.7405,-173.1363 497.9189,-154.5897 518,-124.5 531.6093,-104.1077 549.9438,-83.3371 564.4348,-68.072"/>
<polygon fill="#191970" stroke="#191970" points="567.196,-70.2507 571.617,-60.6223 562.1566,-65.3923 567.196,-70.2507"/>
</g>
<!-- Node12&#45;&gt;Node10 -->
<g id="edge15" class="edge">
<title>Node12&#45;&gt;Node10</title>
<path fill="none" stroke="#191970" d="M480.2783,-223.5C490.6131,-223.5 501.3621,-223.5 511.8946,-223.5"/>
<polygon fill="#191970" stroke="#191970" points="511.906,-227.0001 521.906,-223.5 511.9059,-220.0001 511.906,-227.0001"/>
</g>
</g>
</svg>
