<?xml version="1.0" encoding="UTF-8" standalone="no"?>
<!DOCTYPE svg PUBLIC "-//W3C//DTD SVG 1.1//EN"
 "http://www.w3.org/Graphics/SVG/1.1/DTD/svg11.dtd">
<!-- Generated by graphviz version 2.40.1 (20161225.0304)
 -->
<!-- Title: LoadGidInput Pages: 1 -->
<svg width="315pt" height="341pt"
 viewBox="0.00 0.00 315.00 341.00" xmlns="http://www.w3.org/2000/svg" xmlns:xlink="http://www.w3.org/1999/xlink">
<g id="graph0" class="graph" transform="scale(1 1) rotate(0) translate(4 337)">
<title>LoadGidInput</title>
<!-- Node1 -->
<g id="node1" class="node">
<title>Node1</title>
<polygon fill="#bfbfbf" stroke="#000000" points="0,-156.5 0,-176.5 84,-176.5 84,-156.5 0,-156.5"/>
<text text-anchor="middle" x="42" y="-163.5" font-family="FreeSans" font-size="10.00" fill="#000000">LoadGidInput</text>
</g>
<!-- Node2 -->
<g id="node2" class="node">
<title>Node2</title>
<g id="a_node2"><a xlink:href="../../d7/ddb/egutils_8cpp.html#aa71cc5a8a9e9fde24318b1adc7ec23a7" target="_top" xlink:title="AddExtension">
<polygon fill="none" stroke="#000000" points="130.5,-312.5 130.5,-332.5 216.5,-332.5 216.5,-312.5 130.5,-312.5"/>
<text text-anchor="middle" x="173.5" y="-319.5" font-family="FreeSans" font-size="10.00" fill="#000000">AddExtension</text>
</a>
</g>
</g>
<!-- Node1&#45;&gt;Node2 -->
<g id="edge1" class="edge">
<title>Node1&#45;&gt;Node2</title>
<path fill="none" stroke="#191970" d="M45.0492,-176.7238C53.0804,-201.9392 77.1967,-267.6491 120,-303.5 121.7497,-304.9655 123.6207,-306.3214 125.5766,-307.5754"/>
<polygon fill="#191970" stroke="#191970" points="124.1224,-310.768 134.5836,-312.4459 127.4521,-304.6106 124.1224,-310.768"/>
</g>
<!-- Node3 -->
<g id="node3" class="node">
<title>Node3</title>
<g id="a_node3"><a xlink:href="../../d6/d20/egmesh_8cpp.html#abd0cbec12ee6cc6e573ffa146914a952" target="_top" xlink:title="AllocateBoundary">
<polygon fill="none" stroke="#000000" points="120,-273.5 120,-293.5 227,-293.5 227,-273.5 120,-273.5"/>
<text text-anchor="middle" x="173.5" y="-280.5" font-family="FreeSans" font-size="10.00" fill="#000000">AllocateBoundary</text>
</a>
</g>
</g>
<!-- Node1&#45;&gt;Node3 -->
<g id="edge2" class="edge">
<title>Node1&#45;&gt;Node3</title>
<path fill="none" stroke="#191970" d="M48.3851,-176.5856C60.4411,-194.9582 88.2171,-234.2204 120,-258.5 125.1326,-262.4209 130.9791,-265.9261 136.8773,-268.9826"/>
<polygon fill="#191970" stroke="#191970" points="135.5639,-272.2346 146.0931,-273.4118 138.5962,-265.9254 135.5639,-272.2346"/>
</g>
<!-- Node4 -->
<g id="node4" class="node">
<title>Node4</title>
<g id="a_node4"><a xlink:href="../../da/d23/msg__buffer_8cc.html#a98631211a4a8aee62f572375d5b637be" target="_top" xlink:title="printf">
<polygon fill="none" stroke="#000000" points="263,-214.5 263,-234.5 307,-234.5 307,-214.5 263,-214.5"/>
<text text-anchor="middle" x="285" y="-221.5" font-family="FreeSans" font-size="10.00" fill="#000000">printf</text>
</a>
</g>
</g>
<!-- Node1&#45;&gt;Node4 -->
<g id="edge12" class="edge">
<title>Node1&#45;&gt;Node4</title>
<path fill="none" stroke="#191970" d="M51.3309,-176.9159C64.83,-191.1161 91.3474,-215.884 120,-225.5 164.1101,-240.3037 218.6671,-235.9201 252.6586,-230.7373"/>
<polygon fill="#191970" stroke="#191970" points="253.6324,-234.1244 262.9329,-229.0498 252.4978,-227.2169 253.6324,-234.1244"/>
</g>
<!-- Node5 -->
<g id="node5" class="node">
<title>Node5</title>
<g id="a_node5"><a xlink:href="../../d6/d20/egmesh_8cpp.html#a020a88ba52667b7d9d930f7b55ac429d" target="_top" xlink:title="AllocateKnots">
<polygon fill="none" stroke="#000000" points="130,-195.5 130,-215.5 217,-215.5 217,-195.5 130,-195.5"/>
<text text-anchor="middle" x="173.5" y="-202.5" font-family="FreeSans" font-size="10.00" fill="#000000">AllocateKnots</text>
</a>
</g>
</g>
<!-- Node1&#45;&gt;Node5 -->
<g id="edge4" class="edge">
<title>Node1&#45;&gt;Node5</title>
<path fill="none" stroke="#191970" d="M75.8645,-176.5435C92.2769,-181.411 112.1866,-187.3158 129.7351,-192.5203"/>
<polygon fill="#191970" stroke="#191970" points="129.1678,-196.0027 139.7502,-195.4906 131.1582,-189.2916 129.1678,-196.0027"/>
</g>
<!-- Node6 -->
<g id="node6" class="node">
<title>Node6</title>
<g id="a_node6"><a xlink:href="../../d6/d20/egmesh_8cpp.html#ad362a1d80b0fa7b74444dcc86c54bf81" target="_top" xlink:title="GetElementSide">
<polygon fill="none" stroke="#000000" points="124.5,-156.5 124.5,-176.5 222.5,-176.5 222.5,-156.5 124.5,-156.5"/>
<text text-anchor="middle" x="173.5" y="-163.5" font-family="FreeSans" font-size="10.00" fill="#000000">GetElementSide</text>
</a>
</g>
</g>
<!-- Node1&#45;&gt;Node6 -->
<g id="edge6" class="edge">
<title>Node1&#45;&gt;Node6</title>
<path fill="none" stroke="#191970" d="M84.3313,-166.5C93.9041,-166.5 104.2389,-166.5 114.3624,-166.5"/>
<polygon fill="#191970" stroke="#191970" points="114.3794,-170.0001 124.3794,-166.5 114.3794,-163.0001 114.3794,-170.0001"/>
</g>
<!-- Node7 -->
<g id="node7" class="node">
<title>Node7</title>
<g id="a_node7"><a xlink:href="../../d2/d83/egconvert_8cpp.html#aa8dfcf137f001c667431fe4e1314b8fd" target="_top" xlink:title="Getrow">
<polygon fill="none" stroke="#000000" points="147,-117.5 147,-137.5 200,-137.5 200,-117.5 147,-117.5"/>
<text text-anchor="middle" x="173.5" y="-124.5" font-family="FreeSans" font-size="10.00" fill="#000000">Getrow</text>
</a>
</g>
</g>
<!-- Node1&#45;&gt;Node7 -->
<g id="edge8" class="edge">
<title>Node1&#45;&gt;Node7</title>
<path fill="none" stroke="#191970" d="M75.8645,-156.4565C94.6573,-150.883 118.0356,-143.9495 137.2039,-138.2646"/>
<polygon fill="#191970" stroke="#191970" points="138.2054,-141.6184 146.7974,-135.4194 136.215,-134.9073 138.2054,-141.6184"/>
</g>
<!-- Node8 -->
<g id="node8" class="node">
<title>Node8</title>
<g id="a_node8"><a xlink:href="../../d6/d20/egmesh_8cpp.html#a3849f738822d436210a81427a80cc253" target="_top" xlink:title="InitializeKnots">
<polygon fill="none" stroke="#000000" points="130,-78.5 130,-98.5 217,-98.5 217,-78.5 130,-78.5"/>
<text text-anchor="middle" x="173.5" y="-85.5" font-family="FreeSans" font-size="10.00" fill="#000000">InitializeKnots</text>
</a>
</g>
</g>
<!-- Node1&#45;&gt;Node8 -->
<g id="edge9" class="edge">
<title>Node1&#45;&gt;Node8</title>
<path fill="none" stroke="#191970" d="M53.4488,-156.347C68.0604,-143.7902 94.508,-122.3789 120,-108.5 123.9775,-106.3345 128.2386,-104.3051 132.5556,-102.4321"/>
<polygon fill="#191970" stroke="#191970" points="134.0613,-105.5982 142.0068,-98.5898 131.425,-99.1136 134.0613,-105.5982"/>
</g>
<!-- Node9 -->
<g id="node9" class="node">
<title>Node9</title>
<g id="a_node9"><a xlink:href="../../d7/ddb/egutils_8cpp.html#aeb9cf3d427ac09b892e90af762fd0236" target="_top" xlink:title="next_int">
<polygon fill="none" stroke="#000000" points="145,-39.5 145,-59.5 202,-59.5 202,-39.5 145,-39.5"/>
<text text-anchor="middle" x="173.5" y="-46.5" font-family="FreeSans" font-size="10.00" fill="#000000">next_int</text>
</a>
</g>
</g>
<!-- Node1&#45;&gt;Node9 -->
<g id="edge10" class="edge">
<title>Node1&#45;&gt;Node9</title>
<path fill="none" stroke="#191970" d="M47.7043,-156.2053C59.0276,-136.6536 86.1934,-93.9241 120,-69.5 124.6217,-66.161 129.8663,-63.3129 135.2208,-60.9037"/>
<polygon fill="#191970" stroke="#191970" points="136.8915,-64.0045 144.8668,-57.0299 134.2828,-57.5088 136.8915,-64.0045"/>
</g>
<!-- Node10 -->
<g id="node10" class="node">
<title>Node10</title>
<g id="a_node10"><a xlink:href="../../d7/ddb/egutils_8cpp.html#a2d5759748cda9150366dcef56194452f" target="_top" xlink:title="next_real">
<polygon fill="none" stroke="#000000" points="142.5,-.5 142.5,-20.5 204.5,-20.5 204.5,-.5 142.5,-.5"/>
<text text-anchor="middle" x="173.5" y="-7.5" font-family="FreeSans" font-size="10.00" fill="#000000">next_real</text>
</a>
</g>
</g>
<!-- Node1&#45;&gt;Node10 -->
<g id="edge11" class="edge">
<title>Node1&#45;&gt;Node10</title>
<path fill="none" stroke="#191970" d="M45.1079,-156.3938C53.2732,-131.4606 77.6712,-66.4367 120,-30.5 123.9154,-27.1759 128.4366,-24.3781 133.1581,-22.0298"/>
<polygon fill="#191970" stroke="#191970" points="134.5855,-25.2259 142.3781,-18.0477 131.81,-18.7996 134.5855,-25.2259"/>
</g>
<!-- Node3&#45;&gt;Node4 -->
<g id="edge3" class="edge">
<title>Node3&#45;&gt;Node4</title>
<path fill="none" stroke="#191970" d="M196.1135,-273.498C205.7344,-269.0977 217.0162,-263.7444 227,-258.5 237.9176,-252.765 249.703,-245.9725 259.7801,-239.9722"/>
<polygon fill="#191970" stroke="#191970" points="261.7163,-242.892 268.4805,-234.7375 258.1075,-236.8939 261.7163,-242.892"/>
</g>
<!-- Node5&#45;&gt;Node4 -->
<g id="edge5" class="edge">
<title>Node5&#45;&gt;Node4</title>
<path fill="none" stroke="#191970" d="M217.2477,-212.9548C229.0838,-214.9717 241.6775,-217.1177 252.7554,-219.0054"/>
<polygon fill="#191970" stroke="#191970" points="252.392,-222.4939 262.8379,-220.7235 253.5679,-215.5933 252.392,-222.4939"/>
</g>
<!-- Node6&#45;&gt;Node4 -->
<g id="edge7" class="edge">
<title>Node6&#45;&gt;Node4</title>
<path fill="none" stroke="#191970" d="M203.9962,-176.5662C211.6506,-179.4532 219.7464,-182.8257 227,-186.5 239.4169,-192.7898 252.4492,-201.1498 263.008,-208.4268"/>
<polygon fill="#191970" stroke="#191970" points="261.0365,-211.3192 271.2278,-214.2156 265.0671,-205.596 261.0365,-211.3192"/>
</g>
</g>
</svg>
