<?xml version="1.0" encoding="UTF-8" standalone="no"?>
<!DOCTYPE svg PUBLIC "-//W3C//DTD SVG 1.1//EN"
 "http://www.w3.org/Graphics/SVG/1.1/DTD/svg11.dtd">
<!-- Generated by graphviz version 2.40.1 (20161225.0304)
 -->
<!-- Title: fun4all_coresoftware/blob/master/simulation/g4simulation/g4detectors/PHG4ZDCDefs.h Pages: 1 -->
<svg width="336pt" height="320pt"
 viewBox="0.00 0.00 335.50 320.00" xmlns="http://www.w3.org/2000/svg" xmlns:xlink="http://www.w3.org/1999/xlink">
<g id="graph0" class="graph" transform="scale(1 1) rotate(0) translate(4 316)">
<title>fun4all_coresoftware/blob/master/simulation/g4simulation/g4detectors/PHG4ZDCDefs.h</title>
<!-- Node1 -->
<g id="node1" class="node">
<title>Node1</title>
<polygon fill="#bfbfbf" stroke="#000000" points="86,-255.5 86,-311.5 237,-311.5 237,-255.5 86,-255.5"/>
<text text-anchor="start" x="94" y="-298.5" font-family="FreeSans" font-size="10.00" fill="#000000">fun4all_coresoftware</text>
<text text-anchor="start" x="94" y="-286.5" font-family="FreeSans" font-size="10.00" fill="#000000">/blob/master/simulation</text>
<text text-anchor="start" x="94" y="-274.5" font-family="FreeSans" font-size="10.00" fill="#000000">/g4simulation/g4detectors</text>
<text text-anchor="middle" x="161.5" y="-262.5" font-family="FreeSans" font-size="10.00" fill="#000000">/PHG4ZDCDefs.h</text>
</g>
<!-- Node2 -->
<g id="node2" class="node">
<title>Node2</title>
<g id="a_node2"><a xlink:href="../../db/d10/PHG4ZDCDetector_8cc.html" target="_top" xlink:title="fun4all_coresoftware\l/blob/master/simulation\l/g4simulation/g4detectors\l/PHG4ZDCDetector.cc">
<polygon fill="none" stroke="#000000" points="0,-162.5 0,-218.5 151,-218.5 151,-162.5 0,-162.5"/>
<text text-anchor="start" x="8" y="-205.5" font-family="FreeSans" font-size="10.00" fill="#000000">fun4all_coresoftware</text>
<text text-anchor="start" x="8" y="-193.5" font-family="FreeSans" font-size="10.00" fill="#000000">/blob/master/simulation</text>
<text text-anchor="start" x="8" y="-181.5" font-family="FreeSans" font-size="10.00" fill="#000000">/g4simulation/g4detectors</text>
<text text-anchor="middle" x="75.5" y="-169.5" font-family="FreeSans" font-size="10.00" fill="#000000">/PHG4ZDCDetector.cc</text>
</a>
</g>
</g>
<!-- Node1&#45;&gt;Node2 -->
<g id="edge1" class="edge">
<title>Node1&#45;&gt;Node2</title>
<path fill="none" stroke="#191970" d="M128.4496,-247.7594C119.5011,-238.0826 109.9444,-227.748 101.4477,-218.5597"/>
<polygon fill="#191970" stroke="#191970" points="126.1047,-250.3788 135.4638,-255.3446 131.2441,-245.6263 126.1047,-250.3788"/>
</g>
<!-- Node3 -->
<g id="node3" class="node">
<title>Node3</title>
<g id="a_node3"><a xlink:href="../../d9/d37/G4__ZDC_8C.html" target="_top" xlink:title="fun4all_macros/blob\l/master/common/G4_ZDC.C">
<polygon fill="none" stroke="#000000" points="169.5,-174.5 169.5,-206.5 327.5,-206.5 327.5,-174.5 169.5,-174.5"/>
<text text-anchor="start" x="177.5" y="-193.5" font-family="FreeSans" font-size="10.00" fill="#000000">fun4all_macros/blob</text>
<text text-anchor="middle" x="248.5" y="-181.5" font-family="FreeSans" font-size="10.00" fill="#000000">/master/common/G4_ZDC.C</text>
</a>
</g>
</g>
<!-- Node1&#45;&gt;Node3 -->
<g id="edge2" class="edge">
<title>Node1&#45;&gt;Node3</title>
<path fill="none" stroke="#191970" d="M195.026,-247.6618C208.2642,-233.5107 222.805,-217.9671 233.3776,-206.6653"/>
<polygon fill="#191970" stroke="#191970" points="192.1146,-245.6508 187.839,-255.3446 197.2265,-250.4329 192.1146,-245.6508"/>
</g>
<!-- Node4 -->
<g id="node4" class="node">
<title>Node4</title>
<g id="a_node4"><a xlink:href="../../d4/daf/fun4all__macros_2blob_2master_2detectors_2sPHENIX_2G4Setup__sPHENIX_8C.html" target="_top" xlink:title="fun4all_macros/blob\l/master/detectors/sPHENIX\l/G4Setup_sPHENIX.C">
<polygon fill="none" stroke="#000000" points="172,-81.5 172,-125.5 325,-125.5 325,-81.5 172,-81.5"/>
<text text-anchor="start" x="180" y="-112.5" font-family="FreeSans" font-size="10.00" fill="#000000">fun4all_macros/blob</text>
<text text-anchor="start" x="180" y="-100.5" font-family="FreeSans" font-size="10.00" fill="#000000">/master/detectors/sPHENIX</text>
<text text-anchor="middle" x="248.5" y="-88.5" font-family="FreeSans" font-size="10.00" fill="#000000">/G4Setup_sPHENIX.C</text>
</a>
</g>
</g>
<!-- Node3&#45;&gt;Node4 -->
<g id="edge3" class="edge">
<title>Node3&#45;&gt;Node4</title>
<path fill="none" stroke="#191970" d="M248.5,-164.039C248.5,-151.7823 248.5,-137.3821 248.5,-125.7018"/>
<polygon fill="#191970" stroke="#191970" points="245.0001,-164.1359 248.5,-174.136 252.0001,-164.136 245.0001,-164.1359"/>
</g>
<!-- Node5 -->
<g id="node5" class="node">
<title>Node5</title>
<g id="a_node5"><a xlink:href="../../d9/d73/fun4all__macros_2blob_2master_2detectors_2sPHENIX_2Fun4All__G4__sPHENIX_8C.html" target="_top" xlink:title="fun4all_macros/blob\l/master/detectors/sPHENIX\l/Fun4All_G4_sPHENIX.C">
<polygon fill="none" stroke="#000000" points="172,-.5 172,-44.5 325,-44.5 325,-.5 172,-.5"/>
<text text-anchor="start" x="180" y="-31.5" font-family="FreeSans" font-size="10.00" fill="#000000">fun4all_macros/blob</text>
<text text-anchor="start" x="180" y="-19.5" font-family="FreeSans" font-size="10.00" fill="#000000">/master/detectors/sPHENIX</text>
<text text-anchor="middle" x="248.5" y="-7.5" font-family="FreeSans" font-size="10.00" fill="#000000">/Fun4All_G4_sPHENIX.C</text>
</a>
</g>
</g>
<!-- Node4&#45;&gt;Node5 -->
<g id="edge4" class="edge">
<title>Node4&#45;&gt;Node5</title>
<path fill="none" stroke="#191970" d="M248.5,-71.2457C248.5,-62.3118 248.5,-52.8188 248.5,-44.6068"/>
<polygon fill="#191970" stroke="#191970" points="245.0001,-71.3664 248.5,-81.3664 252.0001,-71.3664 245.0001,-71.3664"/>
</g>
</g>
</svg>
