<?xml version="1.0" encoding="UTF-8" standalone="no"?>
<!DOCTYPE svg PUBLIC "-//W3C//DTD SVG 1.1//EN"
 "http://www.w3.org/Graphics/SVG/1.1/DTD/svg11.dtd">
<!-- Generated by graphviz version 2.40.1 (20161225.0304)
 -->
<!-- Title: FairBaseContFact::createContainer Pages: 1 -->
<svg width="536pt" height="74pt"
 viewBox="0.00 0.00 536.00 74.00" xmlns="http://www.w3.org/2000/svg" xmlns:xlink="http://www.w3.org/1999/xlink">
<g id="graph0" class="graph" transform="scale(1 1) rotate(0) translate(4 70)">
<title>FairBaseContFact::createContainer</title>
<!-- Node1 -->
<g id="node1" class="node">
<title>Node1</title>
<polygon fill="#bfbfbf" stroke="#000000" points="0,-19.5 0,-51.5 141,-51.5 141,-19.5 0,-19.5"/>
<text text-anchor="start" x="8" y="-38.5" font-family="FreeSans" font-size="10.00" fill="#000000">FairBaseContFact::create</text>
<text text-anchor="middle" x="70.5" y="-26.5" font-family="FreeSans" font-size="10.00" fill="#000000">Container</text>
</g>
<!-- Node2 -->
<g id="node2" class="node">
<title>Node2</title>
<g id="a_node2"><a xlink:href="../../d7/d61/classFairContainer.html#ac56ce698c560bb4ff2ffb11692ca4c48" target="_top" xlink:title="FairContainer::getConcatName">
<polygon fill="none" stroke="#000000" points="177,-45.5 177,-65.5 348,-65.5 348,-45.5 177,-45.5"/>
<text text-anchor="middle" x="262.5" y="-52.5" font-family="FreeSans" font-size="10.00" fill="#000000">FairContainer::getConcatName</text>
</a>
</g>
</g>
<!-- Node1&#45;&gt;Node2 -->
<g id="edge1" class="edge">
<title>Node1&#45;&gt;Node2</title>
<path fill="none" stroke="#191970" d="M141.1757,-42.8621C149.5526,-43.7346 158.2066,-44.6361 166.8567,-45.5372"/>
<polygon fill="#191970" stroke="#191970" points="166.6837,-49.038 176.9925,-46.593 167.409,-42.0757 166.6837,-49.038"/>
</g>
<!-- Node3 -->
<g id="node3" class="node">
<title>Node3</title>
<g id="a_node3"><a xlink:href="../../d7/d61/classFairContainer.html#a42b455939a5608740040ccf59b8f9cde" target="_top" xlink:title="FairContainer::getContext">
<polygon fill="none" stroke="#000000" points="189.5,-6.5 189.5,-26.5 335.5,-26.5 335.5,-6.5 189.5,-6.5"/>
<text text-anchor="middle" x="262.5" y="-13.5" font-family="FreeSans" font-size="10.00" fill="#000000">FairContainer::getContext</text>
</a>
</g>
</g>
<!-- Node1&#45;&gt;Node3 -->
<g id="edge2" class="edge">
<title>Node1&#45;&gt;Node3</title>
<path fill="none" stroke="#191970" d="M141.1757,-28.506C153.5782,-27.2787 166.5879,-25.9913 179.2933,-24.734"/>
<polygon fill="#191970" stroke="#191970" points="179.7934,-28.2017 189.4001,-23.7338 179.104,-21.2357 179.7934,-28.2017"/>
</g>
<!-- Node4 -->
<g id="node4" class="node">
<title>Node4</title>
<g id="a_node4"><a xlink:href="../../d7/d61/classFairContainer.html#a29e630d8a37e253846752a5757557c7a" target="_top" xlink:title="FairContainer::getDefault\lContext">
<polygon fill="none" stroke="#000000" points="384,-.5 384,-32.5 528,-32.5 528,-.5 384,-.5"/>
<text text-anchor="start" x="392" y="-19.5" font-family="FreeSans" font-size="10.00" fill="#000000">FairContainer::getDefault</text>
<text text-anchor="middle" x="456" y="-7.5" font-family="FreeSans" font-size="10.00" fill="#000000">Context</text>
</a>
</g>
</g>
<!-- Node3&#45;&gt;Node4 -->
<g id="edge3" class="edge">
<title>Node3&#45;&gt;Node4</title>
<path fill="none" stroke="#191970" d="M335.6541,-16.5C348.0679,-16.5 361.0337,-16.5 373.6642,-16.5"/>
<polygon fill="#191970" stroke="#191970" points="373.7049,-20.0001 383.7048,-16.5 373.7048,-13.0001 373.7049,-20.0001"/>
</g>
</g>
</svg>
