<?xml version="1.0" encoding="UTF-8" standalone="no"?>
<!DOCTYPE svg PUBLIC "-//W3C//DTD SVG 1.1//EN"
 "http://www.w3.org/Graphics/SVG/1.1/DTD/svg11.dtd">
<!-- Generated by graphviz version 2.40.1 (20161225.0304)
 -->
<!-- Title: fun4all_coresoftware/blob/master/offline/packages/micromegas/MicromegasTile.h Pages: 1 -->
<svg width="2660pt" height="425pt"
 viewBox="0.00 0.00 2659.50 425.00" xmlns="http://www.w3.org/2000/svg" xmlns:xlink="http://www.w3.org/1999/xlink">
<g id="graph0" class="graph" transform="scale(1 1) rotate(0) translate(4 421)">
<title>fun4all_coresoftware/blob/master/offline/packages/micromegas/MicromegasTile.h</title>
<!-- Node1 -->
<g id="node1" class="node">
<title>Node1</title>
<polygon fill="#bfbfbf" stroke="#000000" points="1250.5,-360.5 1250.5,-416.5 1449.5,-416.5 1449.5,-360.5 1250.5,-360.5"/>
<text text-anchor="start" x="1258.5" y="-403.5" font-family="FreeSans" font-size="10.00" fill="#000000">fun4all_coresoftware</text>
<text text-anchor="start" x="1258.5" y="-391.5" font-family="FreeSans" font-size="10.00" fill="#000000">/blob/master/offline</text>
<text text-anchor="start" x="1258.5" y="-379.5" font-family="FreeSans" font-size="10.00" fill="#000000">/packages/micromegas/Micromegas</text>
<text text-anchor="middle" x="1350" y="-367.5" font-family="FreeSans" font-size="10.00" fill="#000000">Tile.h</text>
</g>
<!-- Node2 -->
<g id="node2" class="node">
<title>Node2</title>
<g id="a_node2"><a xlink:href="../../dd/d49/CylinderGeomMicromegas_8h.html" target="_top" xlink:title="fun4all_coresoftware\l/blob/master/offline\l/packages/micromegas/Cylinder\lGeomMicromegas.h">
<polygon fill="none" stroke="#000000" points="929,-267.5 929,-323.5 1109,-323.5 1109,-267.5 929,-267.5"/>
<text text-anchor="start" x="937" y="-310.5" font-family="FreeSans" font-size="10.00" fill="#000000">fun4all_coresoftware</text>
<text text-anchor="start" x="937" y="-298.5" font-family="FreeSans" font-size="10.00" fill="#000000">/blob/master/offline</text>
<text text-anchor="start" x="937" y="-286.5" font-family="FreeSans" font-size="10.00" fill="#000000">/packages/micromegas/Cylinder</text>
<text text-anchor="middle" x="1019" y="-274.5" font-family="FreeSans" font-size="10.00" fill="#000000">GeomMicromegas.h</text>
</a>
</g>
</g>
<!-- Node1&#45;&gt;Node2 -->
<g id="edge1" class="edge">
<title>Node1&#45;&gt;Node2</title>
<path fill="none" stroke="#191970" d="M1240.4075,-357.7081C1197.8689,-345.7562 1149.7464,-332.2354 1109.2571,-320.8593"/>
<polygon fill="#191970" stroke="#191970" points="1239.6662,-361.1353 1250.2402,-360.4708 1241.5597,-354.3963 1239.6662,-361.1353"/>
</g>
<!-- Node12 -->
<g id="node12" class="node">
<title>Node12</title>
<g id="a_node12"><a xlink:href="../../d4/dbb/PHG4MicromegasHitReco_8h.html" target="_top" xlink:title="fun4all_coresoftware\l/blob/master/simulation\l/g4simulation/g4micromegas\l/PHG4MicromegasHitReco.h">
<polygon fill="none" stroke="#000000" points="1693.5,-267.5 1693.5,-323.5 1858.5,-323.5 1858.5,-267.5 1693.5,-267.5"/>
<text text-anchor="start" x="1701.5" y="-310.5" font-family="FreeSans" font-size="10.00" fill="#000000">fun4all_coresoftware</text>
<text text-anchor="start" x="1701.5" y="-298.5" font-family="FreeSans" font-size="10.00" fill="#000000">/blob/master/simulation</text>
<text text-anchor="start" x="1701.5" y="-286.5" font-family="FreeSans" font-size="10.00" fill="#000000">/g4simulation/g4micromegas</text>
<text text-anchor="middle" x="1776" y="-274.5" font-family="FreeSans" font-size="10.00" fill="#000000">/PHG4MicromegasHitReco.h</text>
</a>
</g>
</g>
<!-- Node1&#45;&gt;Node12 -->
<g id="edge11" class="edge">
<title>Node1&#45;&gt;Node12</title>
<path fill="none" stroke="#191970" d="M1459.7517,-364.5401C1532.669,-348.6216 1626.8806,-328.0542 1693.4484,-313.5218"/>
<polygon fill="#191970" stroke="#191970" points="1458.6325,-361.2019 1449.6091,-366.7543 1460.1256,-368.0409 1458.6325,-361.2019"/>
</g>
<!-- Node3 -->
<g id="node3" class="node">
<title>Node3</title>
<g id="a_node3"><a xlink:href="../../d6/d96/CylinderGeomMicromegas_8cc.html" target="_top" xlink:title="fun4all_coresoftware\l/blob/master/offline\l/packages/micromegas/Cylinder\lGeomMicromegas.cc">
<polygon fill="none" stroke="#000000" points="424,-174.5 424,-230.5 604,-230.5 604,-174.5 424,-174.5"/>
<text text-anchor="start" x="432" y="-217.5" font-family="FreeSans" font-size="10.00" fill="#000000">fun4all_coresoftware</text>
<text text-anchor="start" x="432" y="-205.5" font-family="FreeSans" font-size="10.00" fill="#000000">/blob/master/offline</text>
<text text-anchor="start" x="432" y="-193.5" font-family="FreeSans" font-size="10.00" fill="#000000">/packages/micromegas/Cylinder</text>
<text text-anchor="middle" x="514" y="-181.5" font-family="FreeSans" font-size="10.00" fill="#000000">GeomMicromegas.cc</text>
</a>
</g>
</g>
<!-- Node2&#45;&gt;Node3 -->
<g id="edge2" class="edge">
<title>Node2&#45;&gt;Node3</title>
<path fill="none" stroke="#191970" d="M918.768,-283.0661C836.2003,-271.9898 716.3252,-253.9889 613,-231 610.1193,-230.3591 607.1987,-229.6824 604.2553,-228.9772"/>
<polygon fill="#191970" stroke="#191970" points="918.5263,-286.5648 928.9009,-284.4158 919.4506,-279.6261 918.5263,-286.5648"/>
</g>
<!-- Node4 -->
<g id="node4" class="node">
<title>Node4</title>
<g id="a_node4"><a xlink:href="../../d6/d5e/MicromegasClusterizer_8cc.html" target="_top" xlink:title="fun4all_coresoftware\l/blob/master/offline\l/packages/micromegas/Micromegas\lClusterizer.cc">
<polygon fill="none" stroke="#000000" points="622.5,-174.5 622.5,-230.5 821.5,-230.5 821.5,-174.5 622.5,-174.5"/>
<text text-anchor="start" x="630.5" y="-217.5" font-family="FreeSans" font-size="10.00" fill="#000000">fun4all_coresoftware</text>
<text text-anchor="start" x="630.5" y="-205.5" font-family="FreeSans" font-size="10.00" fill="#000000">/blob/master/offline</text>
<text text-anchor="start" x="630.5" y="-193.5" font-family="FreeSans" font-size="10.00" fill="#000000">/packages/micromegas/Micromegas</text>
<text text-anchor="middle" x="722" y="-181.5" font-family="FreeSans" font-size="10.00" fill="#000000">Clusterizer.cc</text>
</a>
</g>
</g>
<!-- Node2&#45;&gt;Node4 -->
<g id="edge3" class="edge">
<title>Node2&#45;&gt;Node4</title>
<path fill="none" stroke="#191970" d="M919.742,-264.4192C884.777,-253.4706 845.705,-241.2359 811.5854,-230.552"/>
<polygon fill="#191970" stroke="#191970" points="918.8985,-267.8226 929.4874,-267.4708 920.9903,-261.1424 918.8985,-267.8226"/>
</g>
<!-- Node5 -->
<g id="node5" class="node">
<title>Node5</title>
<g id="a_node5"><a xlink:href="../../d4/df1/MakeActsGeometry_8cc.html" target="_top" xlink:title="Refit SvtxTracks with PHActs.">
<polygon fill="none" stroke="#000000" points="839.5,-174.5 839.5,-230.5 1010.5,-230.5 1010.5,-174.5 839.5,-174.5"/>
<text text-anchor="start" x="847.5" y="-217.5" font-family="FreeSans" font-size="10.00" fill="#000000">fun4all_coresoftware</text>
<text text-anchor="start" x="847.5" y="-205.5" font-family="FreeSans" font-size="10.00" fill="#000000">/blob/master/offline</text>
<text text-anchor="start" x="847.5" y="-193.5" font-family="FreeSans" font-size="10.00" fill="#000000">/packages/trackreco/MakeActs</text>
<text text-anchor="middle" x="925" y="-181.5" font-family="FreeSans" font-size="10.00" fill="#000000">Geometry.cc</text>
</a>
</g>
</g>
<!-- Node2&#45;&gt;Node5 -->
<g id="edge4" class="edge">
<title>Node2&#45;&gt;Node5</title>
<path fill="none" stroke="#191970" d="M983.1654,-260.0467C973.3012,-250.2874 962.7405,-239.839 953.3615,-230.5597"/>
<polygon fill="#191970" stroke="#191970" points="980.9714,-262.7995 990.5418,-267.3446 985.8946,-257.8233 980.9714,-262.7995"/>
</g>
<!-- Node6 -->
<g id="node6" class="node">
<title>Node6</title>
<g id="a_node6"><a xlink:href="../../d0/d52/PHGenFitTrkFitter_8cc.html" target="_top" xlink:title="fun4all_coresoftware\l/blob/master/offline\l/packages/trackreco/PHGenFit\lTrkFitter.cc">
<polygon fill="none" stroke="#000000" points="1028.5,-174.5 1028.5,-230.5 1197.5,-230.5 1197.5,-174.5 1028.5,-174.5"/>
<text text-anchor="start" x="1036.5" y="-217.5" font-family="FreeSans" font-size="10.00" fill="#000000">fun4all_coresoftware</text>
<text text-anchor="start" x="1036.5" y="-205.5" font-family="FreeSans" font-size="10.00" fill="#000000">/blob/master/offline</text>
<text text-anchor="start" x="1036.5" y="-193.5" font-family="FreeSans" font-size="10.00" fill="#000000">/packages/trackreco/PHGenFit</text>
<text text-anchor="middle" x="1113" y="-181.5" font-family="FreeSans" font-size="10.00" fill="#000000">TrkFitter.cc</text>
</a>
</g>
</g>
<!-- Node2&#45;&gt;Node6 -->
<g id="edge5" class="edge">
<title>Node2&#45;&gt;Node6</title>
<path fill="none" stroke="#191970" d="M1054.8346,-260.0467C1064.6988,-250.2874 1075.2595,-239.839 1084.6385,-230.5597"/>
<polygon fill="#191970" stroke="#191970" points="1052.1054,-257.8233 1047.4582,-267.3446 1057.0286,-262.7995 1052.1054,-257.8233"/>
</g>
<!-- Node7 -->
<g id="node7" class="node">
<title>Node7</title>
<g id="a_node7"><a xlink:href="../../d6/d8d/PHMicromegasTpcTrackMatching_8cc.html" target="_top" xlink:title="fun4all_coresoftware\l/blob/master/offline\l/packages/trackreco/PHMicromegas\lTpcTrackMatching.cc">
<polygon fill="none" stroke="#000000" points="1215.5,-174.5 1215.5,-230.5 1412.5,-230.5 1412.5,-174.5 1215.5,-174.5"/>
<text text-anchor="start" x="1223.5" y="-217.5" font-family="FreeSans" font-size="10.00" fill="#000000">fun4all_coresoftware</text>
<text text-anchor="start" x="1223.5" y="-205.5" font-family="FreeSans" font-size="10.00" fill="#000000">/blob/master/offline</text>
<text text-anchor="start" x="1223.5" y="-193.5" font-family="FreeSans" font-size="10.00" fill="#000000">/packages/trackreco/PHMicromegas</text>
<text text-anchor="middle" x="1314" y="-181.5" font-family="FreeSans" font-size="10.00" fill="#000000">TpcTrackMatching.cc</text>
</a>
</g>
</g>
<!-- Node2&#45;&gt;Node7 -->
<g id="edge6" class="edge">
<title>Node2&#45;&gt;Node7</title>
<path fill="none" stroke="#191970" d="M1117.5896,-264.4192C1152.3191,-253.4706 1191.128,-241.2359 1225.0179,-230.552"/>
<polygon fill="#191970" stroke="#191970" points="1116.3947,-261.126 1107.9098,-267.4708 1118.4994,-267.8021 1116.3947,-261.126"/>
</g>
<!-- Node8 -->
<g id="node8" class="node">
<title>Node8</title>
<g id="a_node8"><a xlink:href="../../de/dc2/QAG4SimulationMicromegas_8cc.html" target="_top" xlink:title="fun4all_coresoftware\l/blob/master/offline\l/QA/modules/QAG4SimulationMicromegas.cc">
<polygon fill="none" stroke="#000000" points="1431,-180.5 1431,-224.5 1675,-224.5 1675,-180.5 1431,-180.5"/>
<text text-anchor="start" x="1439" y="-211.5" font-family="FreeSans" font-size="10.00" fill="#000000">fun4all_coresoftware</text>
<text text-anchor="start" x="1439" y="-199.5" font-family="FreeSans" font-size="10.00" fill="#000000">/blob/master/offline</text>
<text text-anchor="middle" x="1553" y="-187.5" font-family="FreeSans" font-size="10.00" fill="#000000">/QA/modules/QAG4SimulationMicromegas.cc</text>
</a>
</g>
</g>
<!-- Node2&#45;&gt;Node8 -->
<g id="edge7" class="edge">
<title>Node2&#45;&gt;Node8</title>
<path fill="none" stroke="#191970" d="M1119.3001,-280.9316C1200.7823,-268.7302 1318.5754,-250.2598 1421,-231 1431.5988,-229.007 1442.6507,-226.8101 1453.6505,-224.5468"/>
<polygon fill="#191970" stroke="#191970" points="1118.4219,-277.5238 1109.0485,-282.4623 1119.4557,-284.447 1118.4219,-277.5238"/>
</g>
<!-- Node9 -->
<g id="node9" class="node">
<title>Node9</title>
<g id="a_node9"><a xlink:href="../../da/d7e/TrackEvaluation_8cc.html" target="_top" xlink:title="fun4all_coresoftware\l/blob/master/simulation\l/g4simulation/g4eval/TrackEvaluation.cc">
<polygon fill="none" stroke="#000000" points="0,-180.5 0,-224.5 222,-224.5 222,-180.5 0,-180.5"/>
<text text-anchor="start" x="8" y="-211.5" font-family="FreeSans" font-size="10.00" fill="#000000">fun4all_coresoftware</text>
<text text-anchor="start" x="8" y="-199.5" font-family="FreeSans" font-size="10.00" fill="#000000">/blob/master/simulation</text>
<text text-anchor="middle" x="111" y="-187.5" font-family="FreeSans" font-size="10.00" fill="#000000">/g4simulation/g4eval/TrackEvaluation.cc</text>
</a>
</g>
</g>
<!-- Node2&#45;&gt;Node9 -->
<g id="edge8" class="edge">
<title>Node2&#45;&gt;Node9</title>
<path fill="none" stroke="#191970" d="M918.8254,-292.1616C768.5828,-286.0597 476.3291,-269.9432 231,-231 219.8973,-229.2376 208.3016,-226.9994 196.882,-224.5547"/>
<polygon fill="#191970" stroke="#191970" points="918.8227,-295.6642 928.9545,-292.5665 919.1023,-288.6698 918.8227,-295.6642"/>
</g>
<!-- Node10 -->
<g id="node10" class="node">
<title>Node10</title>
<g id="a_node10"><a xlink:href="../../d5/de3/PHG4MicromegasDetector_8cc.html" target="_top" xlink:title="strongly inspired by code from Qinhua Huang qinhua.huang@cea.fr">
<polygon fill="none" stroke="#000000" points="240,-174.5 240,-230.5 406,-230.5 406,-174.5 240,-174.5"/>
<text text-anchor="start" x="248" y="-217.5" font-family="FreeSans" font-size="10.00" fill="#000000">fun4all_coresoftware</text>
<text text-anchor="start" x="248" y="-205.5" font-family="FreeSans" font-size="10.00" fill="#000000">/blob/master/simulation</text>
<text text-anchor="start" x="248" y="-193.5" font-family="FreeSans" font-size="10.00" fill="#000000">/g4simulation/g4micromegas</text>
<text text-anchor="middle" x="323" y="-181.5" font-family="FreeSans" font-size="10.00" fill="#000000">/PHG4MicromegasDetector.cc</text>
</a>
</g>
</g>
<!-- Node2&#45;&gt;Node10 -->
<g id="edge9" class="edge">
<title>Node2&#45;&gt;Node10</title>
<path fill="none" stroke="#191970" d="M918.5513,-290.7436C797.9373,-283.6641 590,-267.0934 415,-231 412.0523,-230.392 409.0642,-229.7287 406.0561,-229.0207"/>
<polygon fill="#191970" stroke="#191970" points="918.687,-294.2571 928.8719,-291.3386 919.09,-287.2687 918.687,-294.2571"/>
</g>
<!-- Node11 -->
<g id="node11" class="node">
<title>Node11</title>
<g id="a_node11"><a xlink:href="../../d0/dde/PHG4MicromegasHitReco_8cc.html" target="_top" xlink:title="fun4all_coresoftware\l/blob/master/simulation\l/g4simulation/g4micromegas\l/PHG4MicromegasHitReco.cc">
<polygon fill="none" stroke="#000000" points="1693.5,-174.5 1693.5,-230.5 1858.5,-230.5 1858.5,-174.5 1693.5,-174.5"/>
<text text-anchor="start" x="1701.5" y="-217.5" font-family="FreeSans" font-size="10.00" fill="#000000">fun4all_coresoftware</text>
<text text-anchor="start" x="1701.5" y="-205.5" font-family="FreeSans" font-size="10.00" fill="#000000">/blob/master/simulation</text>
<text text-anchor="start" x="1701.5" y="-193.5" font-family="FreeSans" font-size="10.00" fill="#000000">/g4simulation/g4micromegas</text>
<text text-anchor="middle" x="1776" y="-181.5" font-family="FreeSans" font-size="10.00" fill="#000000">/PHG4MicromegasHitReco.cc</text>
</a>
</g>
</g>
<!-- Node2&#45;&gt;Node11 -->
<g id="edge10" class="edge">
<title>Node2&#45;&gt;Node11</title>
<path fill="none" stroke="#191970" d="M1119.1484,-292.1366C1250.118,-286.2949 1486.1737,-270.8026 1684,-231 1687.1146,-230.3733 1690.2736,-229.6827 1693.4534,-228.9411"/>
<polygon fill="#191970" stroke="#191970" points="1118.9667,-288.6411 1109.1288,-292.5738 1119.2719,-295.6345 1118.9667,-288.6411"/>
</g>
<!-- Node12&#45;&gt;Node11 -->
<g id="edge12" class="edge">
<title>Node12&#45;&gt;Node11</title>
<path fill="none" stroke="#191970" d="M1776,-257.1582C1776,-248.2499 1776,-238.9293 1776,-230.5597"/>
<polygon fill="#191970" stroke="#191970" points="1772.5001,-257.3445 1776,-267.3446 1779.5001,-257.3446 1772.5001,-257.3445"/>
</g>
<!-- Node13 -->
<g id="node13" class="node">
<title>Node13</title>
<g id="a_node13"><a xlink:href="../../d7/d4d/G4__Micromegas_8C.html" target="_top" xlink:title="fun4all_macros/blob\l/master/common/G4_Micromegas.C">
<polygon fill="none" stroke="#000000" points="1877,-186.5 1877,-218.5 2075,-218.5 2075,-186.5 1877,-186.5"/>
<text text-anchor="start" x="1885" y="-205.5" font-family="FreeSans" font-size="10.00" fill="#000000">fun4all_macros/blob</text>
<text text-anchor="middle" x="1976" y="-193.5" font-family="FreeSans" font-size="10.00" fill="#000000">/master/common/G4_Micromegas.C</text>
</a>
</g>
</g>
<!-- Node12&#45;&gt;Node13 -->
<g id="edge13" class="edge">
<title>Node12&#45;&gt;Node13</title>
<path fill="none" stroke="#191970" d="M1845.7134,-263.0833C1878.0872,-248.0294 1915.1374,-230.8011 1941.4306,-218.5748"/>
<polygon fill="#191970" stroke="#191970" points="1843.8697,-260.0807 1836.2778,-267.4708 1846.8212,-266.428 1843.8697,-260.0807"/>
</g>
<!-- Node14 -->
<g id="node14" class="node">
<title>Node14</title>
<g id="a_node14"><a xlink:href="../../da/d3c/G4__Tracking_8C.html" target="_top" xlink:title="fun4all_macros/blob\l/master/common/G4_Tracking.C">
<polygon fill="none" stroke="#000000" points="1691.5,-99.5 1691.5,-131.5 1870.5,-131.5 1870.5,-99.5 1691.5,-99.5"/>
<text text-anchor="start" x="1699.5" y="-118.5" font-family="FreeSans" font-size="10.00" fill="#000000">fun4all_macros/blob</text>
<text text-anchor="middle" x="1781" y="-106.5" font-family="FreeSans" font-size="10.00" fill="#000000">/master/common/G4_Tracking.C</text>
</a>
</g>
</g>
<!-- Node13&#45;&gt;Node14 -->
<g id="edge14" class="edge">
<title>Node13&#45;&gt;Node14</title>
<path fill="none" stroke="#191970" d="M1930.3786,-182.1458C1895.816,-166.7256 1848.9821,-145.8305 1817.027,-131.5736"/>
<polygon fill="#191970" stroke="#191970" points="1929.2206,-185.4617 1939.779,-186.3399 1932.0727,-179.0691 1929.2206,-185.4617"/>
</g>
<!-- Node20 -->
<g id="node20" class="node">
<title>Node20</title>
<g id="a_node20"><a xlink:href="../../db/de3/G4__Tracking__Genfit_8C.html" target="_top" xlink:title="fun4all_macros/blob\l/master/common/G4_Tracking\l_Genfit.C">
<polygon fill="none" stroke="#000000" points="2277,-93.5 2277,-137.5 2445,-137.5 2445,-93.5 2277,-93.5"/>
<text text-anchor="start" x="2285" y="-124.5" font-family="FreeSans" font-size="10.00" fill="#000000">fun4all_macros/blob</text>
<text text-anchor="start" x="2285" y="-112.5" font-family="FreeSans" font-size="10.00" fill="#000000">/master/common/G4_Tracking</text>
<text text-anchor="middle" x="2361" y="-100.5" font-family="FreeSans" font-size="10.00" fill="#000000">_Genfit.C</text>
</a>
</g>
</g>
<!-- Node13&#45;&gt;Node20 -->
<g id="edge20" class="edge">
<title>Node13&#45;&gt;Node20</title>
<path fill="none" stroke="#191970" d="M2060.4155,-184.3204C2118.7829,-171.6362 2198.1916,-154.1529 2268,-138 2270.9131,-137.3259 2273.8764,-136.6354 2276.8683,-135.9341"/>
<polygon fill="#191970" stroke="#191970" points="2059.5325,-180.9305 2050.5028,-186.4725 2061.0177,-187.7711 2059.5325,-180.9305"/>
</g>
<!-- Node21 -->
<g id="node21" class="node">
<title>Node21</title>
<g id="a_node21"><a xlink:href="../../d4/daf/fun4all__macros_2blob_2master_2detectors_2sPHENIX_2G4Setup__sPHENIX_8C.html" target="_top" xlink:title="fun4all_macros/blob\l/master/detectors/sPHENIX\l/G4Setup_sPHENIX.C">
<polygon fill="none" stroke="#000000" points="1427.5,-93.5 1427.5,-137.5 1580.5,-137.5 1580.5,-93.5 1427.5,-93.5"/>
<text text-anchor="start" x="1435.5" y="-124.5" font-family="FreeSans" font-size="10.00" fill="#000000">fun4all_macros/blob</text>
<text text-anchor="start" x="1435.5" y="-112.5" font-family="FreeSans" font-size="10.00" fill="#000000">/master/detectors/sPHENIX</text>
<text text-anchor="middle" x="1504" y="-100.5" font-family="FreeSans" font-size="10.00" fill="#000000">/G4Setup_sPHENIX.C</text>
</a>
</g>
</g>
<!-- Node13&#45;&gt;Node21 -->
<g id="edge21" class="edge">
<title>Node13&#45;&gt;Node21</title>
<path fill="none" stroke="#191970" d="M1908.9165,-183.8805C1895.1117,-180.3534 1880.6299,-176.8733 1867,-174 1768.7798,-153.2947 1654.2601,-135.9534 1580.5249,-125.6557"/>
<polygon fill="#191970" stroke="#191970" points="1908.2689,-187.3282 1918.8271,-186.449 1910.0251,-180.5521 1908.2689,-187.3282"/>
</g>
<!-- Node22 -->
<g id="node22" class="node">
<title>Node22</title>
<g id="a_node22"><a xlink:href="../../d9/d0b/fun4all__tutorials_2blob_2master_2AnaTutorial_2macro_2G4Setup__sPHENIX_8C.html" target="_top" xlink:title="fun4all_tutorials/blob\l/master/AnaTutorial/macro\l/G4Setup_sPHENIX.C">
<polygon fill="none" stroke="#000000" points="1900.5,-93.5 1900.5,-137.5 2051.5,-137.5 2051.5,-93.5 1900.5,-93.5"/>
<text text-anchor="start" x="1908.5" y="-124.5" font-family="FreeSans" font-size="10.00" fill="#000000">fun4all_tutorials/blob</text>
<text text-anchor="start" x="1908.5" y="-112.5" font-family="FreeSans" font-size="10.00" fill="#000000">/master/AnaTutorial/macro</text>
<text text-anchor="middle" x="1976" y="-100.5" font-family="FreeSans" font-size="10.00" fill="#000000">/G4Setup_sPHENIX.C</text>
</a>
</g>
</g>
<!-- Node13&#45;&gt;Node22 -->
<g id="edge23" class="edge">
<title>Node13&#45;&gt;Node22</title>
<path fill="none" stroke="#191970" d="M1976,-176.039C1976,-163.7823 1976,-149.3821 1976,-137.7018"/>
<polygon fill="#191970" stroke="#191970" points="1972.5001,-176.1359 1976,-186.136 1979.5001,-176.136 1972.5001,-176.1359"/>
</g>
<!-- Node23 -->
<g id="node23" class="node">
<title>Node23</title>
<g id="a_node23"><a xlink:href="../../d3/dee/fun4all__tutorials_2blob_2master_2materialscan_2G4Setup__sPHENIX_8C.html" target="_top" xlink:title="fun4all_tutorials/blob\l/master/materialscan/G4Setup\l_sPHENIX.C">
<polygon fill="none" stroke="#000000" points="2087,-93.5 2087,-137.5 2259,-137.5 2259,-93.5 2087,-93.5"/>
<text text-anchor="start" x="2095" y="-124.5" font-family="FreeSans" font-size="10.00" fill="#000000">fun4all_tutorials/blob</text>
<text text-anchor="start" x="2095" y="-112.5" font-family="FreeSans" font-size="10.00" fill="#000000">/master/materialscan/G4Setup</text>
<text text-anchor="middle" x="2173" y="-100.5" font-family="FreeSans" font-size="10.00" fill="#000000">_sPHENIX.C</text>
</a>
</g>
</g>
<!-- Node13&#45;&gt;Node23 -->
<g id="edge26" class="edge">
<title>Node13&#45;&gt;Node23</title>
<path fill="none" stroke="#191970" d="M2022.0598,-182.1589C2052.2957,-168.806 2091.8372,-151.3435 2122.8636,-137.6415"/>
<polygon fill="#191970" stroke="#191970" points="2020.3262,-179.0983 2012.5925,-186.3399 2023.1541,-185.5017 2020.3262,-179.0983"/>
</g>
<!-- Node15 -->
<g id="node15" class="node">
<title>Node15</title>
<g id="a_node15"><a xlink:href="../../d7/d9e/Fun4All__G4__fsPHENIX_8C.html" target="_top" xlink:title="fun4all_eicmacros/blob\l/master/detectors/fsPHENIX\l/Fun4All_G4_fsPHENIX.C">
<polygon fill="none" stroke="#000000" points="1499.5,-6.5 1499.5,-50.5 1656.5,-50.5 1656.5,-6.5 1499.5,-6.5"/>
<text text-anchor="start" x="1507.5" y="-37.5" font-family="FreeSans" font-size="10.00" fill="#000000">fun4all_eicmacros/blob</text>
<text text-anchor="start" x="1507.5" y="-25.5" font-family="FreeSans" font-size="10.00" fill="#000000">/master/detectors/fsPHENIX</text>
<text text-anchor="middle" x="1578" y="-13.5" font-family="FreeSans" font-size="10.00" fill="#000000">/Fun4All_G4_fsPHENIX.C</text>
</a>
</g>
</g>
<!-- Node14&#45;&gt;Node15 -->
<g id="edge15" class="edge">
<title>Node14&#45;&gt;Node15</title>
<path fill="none" stroke="#191970" d="M1733.9415,-95.3321C1702.7335,-81.9572 1661.7731,-64.4028 1629.6634,-50.6415"/>
<polygon fill="#191970" stroke="#191970" points="1732.7228,-98.6176 1743.293,-99.3399 1735.4803,-92.1836 1732.7228,-98.6176"/>
</g>
<!-- Node16 -->
<g id="node16" class="node">
<title>Node16</title>
<g id="a_node16"><a xlink:href="../../d9/d73/fun4all__macros_2blob_2master_2detectors_2sPHENIX_2Fun4All__G4__sPHENIX_8C.html" target="_top" xlink:title="fun4all_macros/blob\l/master/detectors/sPHENIX\l/Fun4All_G4_sPHENIX.C">
<polygon fill="none" stroke="#000000" points="1328.5,-6.5 1328.5,-50.5 1481.5,-50.5 1481.5,-6.5 1328.5,-6.5"/>
<text text-anchor="start" x="1336.5" y="-37.5" font-family="FreeSans" font-size="10.00" fill="#000000">fun4all_macros/blob</text>
<text text-anchor="start" x="1336.5" y="-25.5" font-family="FreeSans" font-size="10.00" fill="#000000">/master/detectors/sPHENIX</text>
<text text-anchor="middle" x="1405" y="-13.5" font-family="FreeSans" font-size="10.00" fill="#000000">/Fun4All_G4_sPHENIX.C</text>
</a>
</g>
</g>
<!-- Node14&#45;&gt;Node16 -->
<g id="edge16" class="edge">
<title>Node14&#45;&gt;Node16</title>
<path fill="none" stroke="#191970" d="M1681.171,-98.6249C1624.6715,-88.279 1552.9358,-73.8063 1490,-57 1482.782,-55.0725 1475.2825,-52.8659 1467.8608,-50.5526"/>
<polygon fill="#191970" stroke="#191970" points="1680.7133,-102.099 1691.178,-100.4434 1681.9649,-95.2118 1680.7133,-102.099"/>
</g>
<!-- Node17 -->
<g id="node17" class="node">
<title>Node17</title>
<g id="a_node17"><a xlink:href="../../d4/de9/Fun4All__AnaTutorial__sPHENIX_8C.html" target="_top" xlink:title="fun4all_tutorials/blob\l/master/AnaTutorial/macro\l/Fun4All_AnaTutorial_sPHENIX.C">
<polygon fill="none" stroke="#000000" points="1894,-6.5 1894,-50.5 2072,-50.5 2072,-6.5 1894,-6.5"/>
<text text-anchor="start" x="1902" y="-37.5" font-family="FreeSans" font-size="10.00" fill="#000000">fun4all_tutorials/blob</text>
<text text-anchor="start" x="1902" y="-25.5" font-family="FreeSans" font-size="10.00" fill="#000000">/master/AnaTutorial/macro</text>
<text text-anchor="middle" x="1983" y="-13.5" font-family="FreeSans" font-size="10.00" fill="#000000">/Fun4All_AnaTutorial_sPHENIX.C</text>
</a>
</g>
</g>
<!-- Node14&#45;&gt;Node17 -->
<g id="edge17" class="edge">
<title>Node14&#45;&gt;Node17</title>
<path fill="none" stroke="#191970" d="M1827.8267,-95.3321C1858.8809,-81.9572 1899.6396,-64.4028 1931.5911,-50.6415"/>
<polygon fill="#191970" stroke="#191970" points="1826.3211,-92.1696 1818.5212,-99.3399 1829.0901,-98.5987 1826.3211,-92.1696"/>
</g>
<!-- Node18 -->
<g id="node18" class="node">
<title>Node18</title>
<g id="a_node18"><a xlink:href="../../d6/d14/Fun4All__AnaTutorial__sPHENIX__Jets_8C.html" target="_top" xlink:title="fun4all_tutorials/blob\l/master/AnaTutorial/macro\l/Fun4All_AnaTutorial_sPHENIX_Jets.C">
<polygon fill="none" stroke="#000000" points="1674.5,-6.5 1674.5,-50.5 1875.5,-50.5 1875.5,-6.5 1674.5,-6.5"/>
<text text-anchor="start" x="1682.5" y="-37.5" font-family="FreeSans" font-size="10.00" fill="#000000">fun4all_tutorials/blob</text>
<text text-anchor="start" x="1682.5" y="-25.5" font-family="FreeSans" font-size="10.00" fill="#000000">/master/AnaTutorial/macro</text>
<text text-anchor="middle" x="1775" y="-13.5" font-family="FreeSans" font-size="10.00" fill="#000000">/Fun4All_AnaTutorial_sPHENIX_Jets.C</text>
</a>
</g>
</g>
<!-- Node14&#45;&gt;Node18 -->
<g id="edge18" class="edge">
<title>Node14&#45;&gt;Node18</title>
<path fill="none" stroke="#191970" d="M1779.1751,-89.039C1778.3298,-76.7823 1777.3367,-62.3821 1776.5312,-50.7018"/>
<polygon fill="#191970" stroke="#191970" points="1775.6916,-89.4005 1779.8714,-99.136 1782.675,-88.9188 1775.6916,-89.4005"/>
</g>
<!-- Node19 -->
<g id="node19" class="node">
<title>Node19</title>
<g id="a_node19"><a xlink:href="../../d2/dbf/fun4all__tutorials_2blob_2master_2materialscan_2Fun4All__G4__sPHENIX_8C.html" target="_top" xlink:title="fun4all_tutorials/blob\l/master/materialscan/Fun4All\l_G4_sPHENIX.C">
<polygon fill="none" stroke="#000000" points="2090.5,-6.5 2090.5,-50.5 2255.5,-50.5 2255.5,-6.5 2090.5,-6.5"/>
<text text-anchor="start" x="2098.5" y="-37.5" font-family="FreeSans" font-size="10.00" fill="#000000">fun4all_tutorials/blob</text>
<text text-anchor="start" x="2098.5" y="-25.5" font-family="FreeSans" font-size="10.00" fill="#000000">/master/materialscan/Fun4All</text>
<text text-anchor="middle" x="2173" y="-13.5" font-family="FreeSans" font-size="10.00" fill="#000000">_G4_sPHENIX.C</text>
</a>
</g>
</g>
<!-- Node14&#45;&gt;Node19 -->
<g id="edge19" class="edge">
<title>Node14&#45;&gt;Node19</title>
<path fill="none" stroke="#191970" d="M1868.7011,-97.442C1876.2406,-95.9258 1883.7526,-94.4277 1891,-93 1975.3262,-76.3878 1997.5954,-77.7494 2081,-57 2088.7887,-55.0623 2096.891,-52.8493 2104.9155,-50.5324"/>
<polygon fill="#191970" stroke="#191970" points="1867.9036,-94.0323 1858.7936,-99.4415 1869.2884,-100.894 1867.9036,-94.0323"/>
</g>
<!-- Node21&#45;&gt;Node16 -->
<g id="edge22" class="edge">
<title>Node21&#45;&gt;Node16</title>
<path fill="none" stroke="#191970" d="M1471.151,-86.6327C1457.8072,-74.9064 1442.6363,-61.5743 1430.192,-50.6384"/>
<polygon fill="#191970" stroke="#191970" points="1468.9399,-89.349 1478.762,-93.3211 1473.5607,-84.0909 1468.9399,-89.349"/>
</g>
<!-- Node22&#45;&gt;Node17 -->
<g id="edge24" class="edge">
<title>Node22&#45;&gt;Node17</title>
<path fill="none" stroke="#191970" d="M1978.6078,-83.0893C1979.4809,-72.2369 1980.4335,-60.3979 1981.2277,-50.5276"/>
<polygon fill="#191970" stroke="#191970" points="1975.116,-82.8468 1977.8027,-93.0953 1982.0935,-83.4083 1975.116,-82.8468"/>
</g>
<!-- Node22&#45;&gt;Node18 -->
<g id="edge25" class="edge">
<title>Node22&#45;&gt;Node18</title>
<path fill="none" stroke="#191970" d="M1915.5386,-89.3301C1886.9484,-76.9553 1853.1904,-62.3436 1825.9263,-50.5427"/>
<polygon fill="#191970" stroke="#191970" points="1914.4518,-92.6735 1925.0194,-93.4338 1917.2324,-86.2494 1914.4518,-92.6735"/>
</g>
<!-- Node23&#45;&gt;Node19 -->
<g id="edge28" class="edge">
<title>Node23&#45;&gt;Node19</title>
<path fill="none" stroke="#191970" d="M2173,-83.0893C2173,-72.2369 2173,-60.3979 2173,-50.5276"/>
<polygon fill="#191970" stroke="#191970" points="2169.5001,-83.0953 2173,-93.0953 2176.5001,-83.0954 2169.5001,-83.0953"/>
</g>
<!-- Node24 -->
<g id="node24" class="node">
<title>Node24</title>
<g id="a_node24"><a xlink:href="../../d4/d50/fun4all__eicmacros_2blob_2master_2detectors_2AllSilicon_2Development_2Fun4All__G4__sPHENIX__particle__gen_8C.html" target="_top" xlink:title="fun4all_eicmacros/blob\l/master/detectors/AllSilicon\l/Development/Fun4All_G4_sPHENIX\l_particle_gen.C">
<polygon fill="none" stroke="#000000" points="2454.5,-.5 2454.5,-56.5 2651.5,-56.5 2651.5,-.5 2454.5,-.5"/>
<text text-anchor="start" x="2462.5" y="-43.5" font-family="FreeSans" font-size="10.00" fill="#000000">fun4all_eicmacros/blob</text>
<text text-anchor="start" x="2462.5" y="-31.5" font-family="FreeSans" font-size="10.00" fill="#000000">/master/detectors/AllSilicon</text>
<text text-anchor="start" x="2462.5" y="-19.5" font-family="FreeSans" font-size="10.00" fill="#000000">/Development/Fun4All_G4_sPHENIX</text>
<text text-anchor="middle" x="2553" y="-7.5" font-family="FreeSans" font-size="10.00" fill="#000000">_particle_gen.C</text>
</a>
</g>
</g>
<!-- Node23&#45;&gt;Node24 -->
<g id="edge27" class="edge">
<title>Node23&#45;&gt;Node24</title>
<path fill="none" stroke="#191970" d="M2269.1082,-92.7928C2348.0851,-75.6812 2369.8782,-74.5362 2445,-57 2448.1159,-56.2726 2451.2788,-55.5206 2454.4696,-54.7502"/>
<polygon fill="#191970" stroke="#191970" points="2268.2083,-89.4068 2259.186,-94.9609 2269.7026,-96.2454 2268.2083,-89.4068"/>
</g>
<!-- Node25 -->
<g id="node25" class="node">
<title>Node25</title>
<g id="a_node25"><a xlink:href="../../df/d47/g4lblvtx_2blob_2master_2other__codes_2Fun4All__G4__sPHENIX__particle__gen_8C.html" target="_top" xlink:title="g4lblvtx/blob/master\l/other_codes/Fun4All\l_G4_sPHENIX_particle_gen.C">
<polygon fill="none" stroke="#000000" points="2274,-6.5 2274,-50.5 2436,-50.5 2436,-6.5 2274,-6.5"/>
<text text-anchor="start" x="2282" y="-37.5" font-family="FreeSans" font-size="10.00" fill="#000000">g4lblvtx/blob/master</text>
<text text-anchor="start" x="2282" y="-25.5" font-family="FreeSans" font-size="10.00" fill="#000000">/other_codes/Fun4All</text>
<text text-anchor="middle" x="2355" y="-13.5" font-family="FreeSans" font-size="10.00" fill="#000000">_G4_sPHENIX_particle_gen.C</text>
</a>
</g>
</g>
<!-- Node23&#45;&gt;Node25 -->
<g id="edge29" class="edge">
<title>Node23&#45;&gt;Node25</title>
<path fill="none" stroke="#191970" d="M2228.6202,-88.9123C2254.2494,-76.661 2284.3133,-62.2898 2308.6875,-50.6384"/>
<polygon fill="#191970" stroke="#191970" points="2226.9099,-85.8505 2219.3972,-93.3211 2229.9289,-92.166 2226.9099,-85.8505"/>
</g>
</g>
</svg>
