<?xml version="1.0" encoding="UTF-8" standalone="no"?>
<!DOCTYPE svg PUBLIC "-//W3C//DTD SVG 1.1//EN"
 "http://www.w3.org/Graphics/SVG/1.1/DTD/svg11.dtd">
<!-- Generated by graphviz version 2.40.1 (20161225.0304)
 -->
<!-- Title: EicRoot/blob/master/base/FairTrajFilter.h Pages: 1 -->
<svg width="351pt" height="98pt"
 viewBox="0.00 0.00 351.00 98.00" xmlns="http://www.w3.org/2000/svg" xmlns:xlink="http://www.w3.org/1999/xlink">
<g id="graph0" class="graph" transform="scale(1 1) rotate(0) translate(4 94)">
<title>EicRoot/blob/master/base/FairTrajFilter.h</title>
<!-- Node1 -->
<g id="node1" class="node">
<title>Node1</title>
<polygon fill="#bfbfbf" stroke="#000000" points="116.5,-57.5 116.5,-89.5 235.5,-89.5 235.5,-57.5 116.5,-57.5"/>
<text text-anchor="start" x="124.5" y="-76.5" font-family="FreeSans" font-size="10.00" fill="#000000">EicRoot/blob/master</text>
<text text-anchor="middle" x="176" y="-64.5" font-family="FreeSans" font-size="10.00" fill="#000000">/base/FairTrajFilter.h</text>
</g>
<!-- Node2 -->
<g id="node2" class="node">
<title>Node2</title>
<polygon fill="none" stroke="#bfbfbf" points="0,-.5 0,-20.5 60,-20.5 60,-.5 0,-.5"/>
<text text-anchor="middle" x="30" y="-7.5" font-family="FreeSans" font-size="10.00" fill="#000000">Rtypes.h</text>
</g>
<!-- Node1&#45;&gt;Node2 -->
<g id="edge1" class="edge">
<title>Node1&#45;&gt;Node2</title>
<path fill="none" stroke="#191970" d="M138.7803,-57.4394C115.3774,-47.3409 85.4563,-34.4298 62.9205,-24.7054"/>
<polygon fill="#191970" stroke="#191970" points="64.0144,-21.3655 53.446,-20.6171 61.241,-27.7927 64.0144,-21.3655"/>
</g>
<!-- Node3 -->
<g id="node3" class="node">
<title>Node3</title>
<polygon fill="none" stroke="#bfbfbf" points="78,-.5 78,-20.5 170,-20.5 170,-.5 78,-.5"/>
<text text-anchor="middle" x="124" y="-7.5" font-family="FreeSans" font-size="10.00" fill="#000000">TClonesArray.h</text>
</g>
<!-- Node1&#45;&gt;Node3 -->
<g id="edge2" class="edge">
<title>Node1&#45;&gt;Node3</title>
<path fill="none" stroke="#191970" d="M162.6087,-57.2759C155.4026,-48.5454 146.4914,-37.7492 139.0465,-28.7294"/>
<polygon fill="#191970" stroke="#191970" points="141.5263,-26.2355 132.4614,-20.7513 136.1278,-30.6915 141.5263,-26.2355"/>
</g>
<!-- Node4 -->
<g id="node4" class="node">
<title>Node4</title>
<polygon fill="none" stroke="#bfbfbf" points="188.5,-.5 188.5,-20.5 267.5,-20.5 267.5,-.5 188.5,-.5"/>
<text text-anchor="middle" x="228" y="-7.5" font-family="FreeSans" font-size="10.00" fill="#000000">TGeoTrack.h</text>
</g>
<!-- Node1&#45;&gt;Node4 -->
<g id="edge3" class="edge">
<title>Node1&#45;&gt;Node4</title>
<path fill="none" stroke="#191970" d="M189.3913,-57.2759C196.5974,-48.5454 205.5086,-37.7492 212.9535,-28.7294"/>
<polygon fill="#191970" stroke="#191970" points="215.8722,-30.6915 219.5386,-20.7513 210.4737,-26.2355 215.8722,-30.6915"/>
</g>
<!-- Node5 -->
<g id="node5" class="node">
<title>Node5</title>
<polygon fill="none" stroke="#bfbfbf" points="285,-.5 285,-20.5 343,-20.5 343,-.5 285,-.5"/>
<text text-anchor="middle" x="314" y="-7.5" font-family="FreeSans" font-size="10.00" fill="#000000">TMath.h</text>
</g>
<!-- Node1&#45;&gt;Node5 -->
<g id="edge4" class="edge">
<title>Node1&#45;&gt;Node5</title>
<path fill="none" stroke="#191970" d="M211.1803,-57.4394C233.2017,-47.3862 261.3289,-34.5455 282.5964,-24.8364"/>
<polygon fill="#191970" stroke="#191970" points="284.1953,-27.954 291.8387,-20.6171 281.2882,-21.5862 284.1953,-27.954"/>
</g>
</g>
</svg>
