<?xml version="1.0" encoding="UTF-8" standalone="no"?>
<!DOCTYPE svg PUBLIC "-//W3C//DTD SVG 1.1//EN"
 "http://www.w3.org/Graphics/SVG/1.1/DTD/svg11.dtd">
<!-- Generated by graphviz version 2.40.1 (20161225.0304)
 -->
<!-- Title: fun4all_acts/blob/master/Core/include/Acts/Surfaces/PlaneSurface.hpp Pages: 1 -->
<svg width="2917pt" height="569pt"
 viewBox="0.00 0.00 2916.50 569.00" xmlns="http://www.w3.org/2000/svg" xmlns:xlink="http://www.w3.org/1999/xlink">
<g id="graph0" class="graph" transform="scale(1 1) rotate(0) translate(4 565)">
<title>fun4all_acts/blob/master/Core/include/Acts/Surfaces/PlaneSurface.hpp</title>
<!-- Node1 -->
<g id="node1" class="node">
<title>Node1</title>
<polygon fill="#bfbfbf" stroke="#000000" points="412,-516.5 412,-560.5 568,-560.5 568,-516.5 412,-516.5"/>
<text text-anchor="start" x="420" y="-547.5" font-family="FreeSans" font-size="10.00" fill="#000000">fun4all_acts/blob/master</text>
<text text-anchor="start" x="420" y="-535.5" font-family="FreeSans" font-size="10.00" fill="#000000">/Core/include/Acts/Surfaces</text>
<text text-anchor="middle" x="490" y="-523.5" font-family="FreeSans" font-size="10.00" fill="#000000">/PlaneSurface.hpp</text>
</g>
<!-- Node2 -->
<g id="node2" class="node">
<title>Node2</title>
<polygon fill="none" stroke="#bfbfbf" points="199,-252.5 199,-272.5 243,-272.5 243,-252.5 199,-252.5"/>
<text text-anchor="middle" x="221" y="-259.5" font-family="FreeSans" font-size="10.00" fill="#000000">limits</text>
</g>
<!-- Node1&#45;&gt;Node2 -->
<g id="edge1" class="edge">
<title>Node1&#45;&gt;Node2</title>
<path fill="none" stroke="#191970" d="M477.7043,-516.3005C458.7303,-483.3918 419.7873,-420.9379 375,-378 353.9109,-357.7817 343.1879,-359.7722 320,-342 302.5112,-328.5958 300.0515,-322.9563 283,-309 270.0973,-298.4394 255.1582,-287.2069 243.1775,-278.4276"/>
<polygon fill="#191970" stroke="#191970" points="245.1936,-275.566 235.0481,-272.5131 241.0754,-281.2265 245.1936,-275.566"/>
</g>
<!-- Node3 -->
<g id="node3" class="node">
<title>Node3</title>
<g id="a_node3"><a xlink:href="../../d1/db8/GeometryContext_8hpp.html" target="_top" xlink:title="Acts/Geometry/GeometryContext.hpp">
<polygon fill="none" stroke="#000000" points="2616,-252.5 2616,-272.5 2824,-272.5 2824,-252.5 2616,-252.5"/>
<text text-anchor="middle" x="2720" y="-259.5" font-family="FreeSans" font-size="10.00" fill="#000000">Acts/Geometry/GeometryContext.hpp</text>
</a>
</g>
</g>
<!-- Node1&#45;&gt;Node3 -->
<g id="edge2" class="edge">
<title>Node1&#45;&gt;Node3</title>
<path fill="none" stroke="#191970" d="M568.217,-536.3406C951.3943,-525.4667 2615.5844,-474.7067 2704,-411 2742.1408,-383.5181 2737.9206,-355.6361 2732,-309 2730.8757,-300.1436 2728.5924,-290.5606 2726.3165,-282.4084"/>
<polygon fill="#191970" stroke="#191970" points="2729.6336,-281.2837 2723.4269,-272.6972 2722.9243,-283.2801 2729.6336,-281.2837"/>
</g>
<!-- Node5 -->
<g id="node5" class="node">
<title>Node5</title>
<g id="a_node5"><a xlink:href="../../d5/dc6/GeometryStatics_8hpp.html" target="_top" xlink:title="Acts/Geometry/GeometryStatics.hpp">
<polygon fill="none" stroke="#000000" points="163.5,-384.5 163.5,-404.5 366.5,-404.5 366.5,-384.5 163.5,-384.5"/>
<text text-anchor="middle" x="265" y="-391.5" font-family="FreeSans" font-size="10.00" fill="#000000">Acts/Geometry/GeometryStatics.hpp</text>
</a>
</g>
</g>
<!-- Node1&#45;&gt;Node5 -->
<g id="edge4" class="edge">
<title>Node1&#45;&gt;Node5</title>
<path fill="none" stroke="#191970" d="M445.4299,-516.4113C425.3623,-506.0032 401.6025,-493.0282 381,-480 346.1253,-457.9467 308.0394,-428.8212 285.3553,-410.8897"/>
<polygon fill="#191970" stroke="#191970" points="287.4588,-408.0906 277.4543,-404.6034 283.1005,-413.5684 287.4588,-408.0906"/>
</g>
<!-- Node6 -->
<g id="node6" class="node">
<title>Node6</title>
<g id="a_node6"><a xlink:href="../../d6/d1d/Definitions_8hpp.html" target="_top" xlink:title="Acts/Utilities/Definitions.hpp">
<polygon fill="none" stroke="#000000" points="419,-63.5 419,-83.5 579,-83.5 579,-63.5 419,-63.5"/>
<text text-anchor="middle" x="499" y="-70.5" font-family="FreeSans" font-size="10.00" fill="#000000">Acts/Utilities/Definitions.hpp</text>
</a>
</g>
</g>
<!-- Node1&#45;&gt;Node6 -->
<g id="edge118" class="edge">
<title>Node1&#45;&gt;Node6</title>
<path fill="none" stroke="#191970" d="M411.8162,-531.796C273.4759,-517.7591 0,-479.2877 0,-394.5 0,-394.5 0,-394.5 0,-205.5 0,-162.2808 18.876,-148.1293 56,-126 113.6572,-91.631 296.3367,-79.7351 408.2982,-75.6362"/>
<polygon fill="#191970" stroke="#191970" points="408.7006,-79.1243 418.5713,-75.2747 408.4543,-72.1287 408.7006,-79.1243"/>
</g>
<!-- Node8 -->
<g id="node8" class="node">
<title>Node8</title>
<g id="a_node8"><a xlink:href="../../db/d40/Polyhedron_8hpp.html" target="_top" xlink:title="Acts/Geometry/Polyhedron.hpp">
<polygon fill="none" stroke="#000000" points="1245.5,-315.5 1245.5,-335.5 1420.5,-335.5 1420.5,-315.5 1245.5,-315.5"/>
<text text-anchor="middle" x="1333" y="-322.5" font-family="FreeSans" font-size="10.00" fill="#000000">Acts/Geometry/Polyhedron.hpp</text>
</a>
</g>
</g>
<!-- Node1&#45;&gt;Node8 -->
<g id="edge7" class="edge">
<title>Node1&#45;&gt;Node8</title>
<path fill="none" stroke="#191970" d="M568.173,-518.7481C739.0037,-475.5845 1141.6052,-373.8596 1282.9138,-338.1552"/>
<polygon fill="#191970" stroke="#191970" points="1284.186,-341.4439 1293.0239,-335.6007 1282.4712,-334.6571 1284.186,-341.4439"/>
</g>
<!-- Node33 -->
<g id="node33" class="node">
<title>Node33</title>
<g id="a_node33"><a xlink:href="../../d9/d1e/InfiniteBounds_8hpp.html" target="_top" xlink:title="Acts/Surfaces/InfiniteBounds.hpp">
<polygon fill="none" stroke="#000000" points="329.5,-315.5 329.5,-335.5 514.5,-335.5 514.5,-315.5 329.5,-315.5"/>
<text text-anchor="middle" x="422" y="-322.5" font-family="FreeSans" font-size="10.00" fill="#000000">Acts/Surfaces/InfiniteBounds.hpp</text>
</a>
</g>
</g>
<!-- Node1&#45;&gt;Node33 -->
<g id="edge54" class="edge">
<title>Node1&#45;&gt;Node33</title>
<path fill="none" stroke="#191970" d="M482.8513,-516.1078C469.4826,-474.2323 440.9077,-384.7256 428.253,-345.0867"/>
<polygon fill="#191970" stroke="#191970" points="431.5733,-343.9784 425.1978,-335.5166 424.9049,-346.1074 431.5733,-343.9784"/>
</g>
<!-- Node36 -->
<g id="node36" class="node">
<title>Node36</title>
<g id="a_node36"><a xlink:href="../../d9/dc6/PlanarBounds_8hpp.html" target="_top" xlink:title="Acts/Surfaces/PlanarBounds.hpp">
<polygon fill="none" stroke="#000000" points="1646,-315.5 1646,-335.5 1828,-335.5 1828,-315.5 1646,-315.5"/>
<text text-anchor="middle" x="1737" y="-322.5" font-family="FreeSans" font-size="10.00" fill="#000000">Acts/Surfaces/PlanarBounds.hpp</text>
</a>
</g>
</g>
<!-- Node1&#45;&gt;Node36 -->
<g id="edge60" class="edge">
<title>Node1&#45;&gt;Node36</title>
<path fill="none" stroke="#191970" d="M568.2662,-535.7181C770.3691,-528.2406 1306.1767,-506.4715 1482,-480 1609.5926,-460.79 1684.3384,-512.5033 1764,-411 1779.5268,-391.216 1764.7017,-362.3496 1751.6509,-343.7444"/>
<polygon fill="#191970" stroke="#191970" points="1754.3068,-341.4508 1745.5274,-335.52 1748.6921,-345.6312 1754.3068,-341.4508"/>
</g>
<!-- Node37 -->
<g id="node37" class="node">
<title>Node37</title>
<g id="a_node37"><a xlink:href="../../d8/ddd/Surface_8hpp.html" target="_top" xlink:title="Acts/Surfaces/Surface.hpp">
<polygon fill="none" stroke="#000000" points="1323,-453.5 1323,-473.5 1473,-473.5 1473,-453.5 1323,-453.5"/>
<text text-anchor="middle" x="1398" y="-460.5" font-family="FreeSans" font-size="10.00" fill="#000000">Acts/Surfaces/Surface.hpp</text>
</a>
</g>
</g>
<!-- Node1&#45;&gt;Node37 -->
<g id="edge63" class="edge">
<title>Node1&#45;&gt;Node37</title>
<path fill="none" stroke="#191970" d="M568.2014,-532.0406C737.542,-518.0532 1137.0195,-485.0568 1312.6402,-470.5506"/>
<polygon fill="#191970" stroke="#191970" points="1313.1874,-474.0175 1322.8653,-469.7061 1312.6111,-467.0412 1313.1874,-474.0175"/>
</g>
<!-- Node49 -->
<g id="node49" class="node">
<title>Node49</title>
<g id="a_node49"><a xlink:href="../../da/d71/PlanarHelper_8hpp.html" target="_top" xlink:title="Acts/Surfaces/detail\l/PlanarHelper.hpp">
<polygon fill="none" stroke="#000000" points="28.5,-378.5 28.5,-410.5 145.5,-410.5 145.5,-378.5 28.5,-378.5"/>
<text text-anchor="start" x="36.5" y="-397.5" font-family="FreeSans" font-size="10.00" fill="#000000">Acts/Surfaces/detail</text>
<text text-anchor="middle" x="87" y="-385.5" font-family="FreeSans" font-size="10.00" fill="#000000">/PlanarHelper.hpp</text>
</a>
</g>
</g>
<!-- Node1&#45;&gt;Node49 -->
<g id="edge115" class="edge">
<title>Node1&#45;&gt;Node49</title>
<path fill="none" stroke="#191970" d="M428.3543,-516.4727C350.0664,-488.4989 216.2004,-440.6659 141.4893,-413.9701"/>
<polygon fill="#191970" stroke="#191970" points="142.389,-410.5749 131.7943,-410.5059 140.0335,-417.1667 142.389,-410.5749"/>
</g>
<!-- Node50 -->
<g id="node50" class="node">
<title>Node50</title>
<g id="a_node50"><a xlink:href="../../d2/d4a/PlaneSurface_8ipp.html" target="_top" xlink:title="Acts/Surfaces/detail\l/PlaneSurface.ipp">
<polygon fill="none" stroke="#000000" points="2791.5,-447.5 2791.5,-479.5 2908.5,-479.5 2908.5,-447.5 2791.5,-447.5"/>
<text text-anchor="start" x="2799.5" y="-466.5" font-family="FreeSans" font-size="10.00" fill="#000000">Acts/Surfaces/detail</text>
<text text-anchor="middle" x="2850" y="-454.5" font-family="FreeSans" font-size="10.00" fill="#000000">/PlaneSurface.ipp</text>
</a>
</g>
</g>
<!-- Node1&#45;&gt;Node50 -->
<g id="edge119" class="edge">
<title>Node1&#45;&gt;Node50</title>
<path fill="none" stroke="#191970" d="M568.309,-537.4122C944.1994,-532.0671 2554.4385,-507.7248 2777,-480 2778.3055,-479.8374 2779.6219,-479.6618 2780.9463,-479.4746"/>
<polygon fill="#191970" stroke="#191970" points="2781.8878,-482.8685 2791.2089,-477.8318 2780.7813,-475.9565 2781.8878,-482.8685"/>
</g>
<!-- Node4 -->
<g id="node4" class="node">
<title>Node4</title>
<polygon fill="none" stroke="#bfbfbf" points="2702.5,-195.5 2702.5,-215.5 2737.5,-215.5 2737.5,-195.5 2702.5,-195.5"/>
<text text-anchor="middle" x="2720" y="-202.5" font-family="FreeSans" font-size="10.00" fill="#000000">any</text>
</g>
<!-- Node3&#45;&gt;Node4 -->
<g id="edge3" class="edge">
<title>Node3&#45;&gt;Node4</title>
<path fill="none" stroke="#191970" d="M2720,-252.3095C2720,-244.9335 2720,-234.72 2720,-225.715"/>
<polygon fill="#191970" stroke="#191970" points="2723.5001,-225.6022 2720,-215.6022 2716.5001,-225.6023 2723.5001,-225.6022"/>
</g>
<!-- Node5&#45;&gt;Node6 -->
<g id="edge5" class="edge">
<title>Node5&#45;&gt;Node6</title>
<path fill="none" stroke="#191970" d="M215.3249,-384.4398C172.4476,-374.7766 114.9598,-359.1475 99,-342 74.2494,-315.4075 80,-298.8284 80,-262.5 80,-262.5 80,-262.5 80,-205.5 80,-137.1598 285.3373,-99.8136 408.5206,-83.5581"/>
<polygon fill="#191970" stroke="#191970" points="409.2415,-86.994 418.7084,-82.237 408.3412,-80.0522 409.2415,-86.994"/>
</g>
<!-- Node7 -->
<g id="node7" class="node">
<title>Node7</title>
<polygon fill="none" stroke="#bfbfbf" points="459,-.5 459,-20.5 539,-20.5 539,-.5 459,-.5"/>
<text text-anchor="middle" x="499" y="-7.5" font-family="FreeSans" font-size="10.00" fill="#000000">Eigen/Dense</text>
</g>
<!-- Node6&#45;&gt;Node7 -->
<g id="edge6" class="edge">
<title>Node6&#45;&gt;Node7</title>
<path fill="none" stroke="#191970" d="M499,-63.378C499,-54.7041 499,-41.9355 499,-31.1186"/>
<polygon fill="#191970" stroke="#191970" points="502.5001,-30.8062 499,-20.8062 495.5001,-30.8062 502.5001,-30.8062"/>
</g>
<!-- Node8&#45;&gt;Node2 -->
<g id="edge52" class="edge">
<title>Node8&#45;&gt;Node2</title>
<path fill="none" stroke="#191970" d="M1245.3092,-322.1069C1071.2432,-315.1039 669.8055,-297.6185 333,-273 306.0964,-271.0335 275.6196,-268.1323 253.2575,-265.8776"/>
<polygon fill="#191970" stroke="#191970" points="253.5935,-262.3938 243.29,-264.8613 252.8834,-269.3577 253.5935,-262.3938"/>
</g>
<!-- Node8&#45;&gt;Node6 -->
<g id="edge49" class="edge">
<title>Node8&#45;&gt;Node6</title>
<path fill="none" stroke="#191970" d="M1245.3953,-321.605C1099.2694,-314.5164 812.1349,-297.9024 714,-273 691.4297,-267.2726 688.136,-259.2262 666,-252 595.8851,-229.1112 551.1532,-272.7149 504,-216 475.1052,-181.2459 484.8825,-123.5824 492.8676,-93.3649"/>
<polygon fill="#191970" stroke="#191970" points="496.2849,-94.1431 495.6534,-83.5671 489.5518,-92.2286 496.2849,-94.1431"/>
</g>
<!-- Node9 -->
<g id="node9" class="node">
<title>Node9</title>
<g id="a_node9"><a xlink:href="../../dc/d2a/Extent_8hpp.html" target="_top" xlink:title="Acts/Geometry/Extent.hpp">
<polygon fill="none" stroke="#000000" points="1257.5,-252.5 1257.5,-272.5 1408.5,-272.5 1408.5,-252.5 1257.5,-252.5"/>
<text text-anchor="middle" x="1333" y="-259.5" font-family="FreeSans" font-size="10.00" fill="#000000">Acts/Geometry/Extent.hpp</text>
</a>
</g>
</g>
<!-- Node8&#45;&gt;Node9 -->
<g id="edge8" class="edge">
<title>Node8&#45;&gt;Node9</title>
<path fill="none" stroke="#191970" d="M1333,-315.378C1333,-306.7041 1333,-293.9355 1333,-283.1186"/>
<polygon fill="#191970" stroke="#191970" points="1336.5001,-282.8062 1333,-272.8062 1329.5001,-282.8062 1336.5001,-282.8062"/>
</g>
<!-- Node12 -->
<g id="node12" class="node">
<title>Node12</title>
<polygon fill="none" stroke="#bfbfbf" points="2211.5,-63.5 2211.5,-83.5 2260.5,-83.5 2260.5,-63.5 2211.5,-63.5"/>
<text text-anchor="middle" x="2236" y="-70.5" font-family="FreeSans" font-size="10.00" fill="#000000">vector</text>
</g>
<!-- Node8&#45;&gt;Node12 -->
<g id="edge53" class="edge">
<title>Node8&#45;&gt;Node12</title>
<path fill="none" stroke="#191970" d="M1420.701,-320.8286C1615.8625,-310.255 2071.4103,-284.516 2103,-273 2176.4627,-246.2192 2207.3972,-231.3716 2237,-159 2245.6102,-137.9502 2243.5567,-111.4738 2240.5192,-93.6046"/>
<polygon fill="#191970" stroke="#191970" points="2243.9399,-92.8596 2238.5873,-83.7163 2237.0698,-94.2019 2243.9399,-92.8596"/>
</g>
<!-- Node13 -->
<g id="node13" class="node">
<title>Node13</title>
<g id="a_node13"><a xlink:href="../../d9/d70/Core_2include_2Acts_2Utilities_2Helpers_8hpp.html" target="_top" xlink:title="Acts/Utilities/Helpers.hpp">
<polygon fill="none" stroke="#000000" points="1477.5,-195.5 1477.5,-215.5 1622.5,-215.5 1622.5,-195.5 1477.5,-195.5"/>
<text text-anchor="middle" x="1550" y="-202.5" font-family="FreeSans" font-size="10.00" fill="#000000">Acts/Utilities/Helpers.hpp</text>
</a>
</g>
</g>
<!-- Node8&#45;&gt;Node13 -->
<g id="edge50" class="edge">
<title>Node8&#45;&gt;Node13</title>
<path fill="none" stroke="#191970" d="M1351.1281,-315.4753C1389.2625,-294.3871 1477.9553,-245.3404 1522.8823,-220.496"/>
<polygon fill="#191970" stroke="#191970" points="1524.7136,-223.4828 1531.7709,-215.5806 1521.3261,-217.3571 1524.7136,-223.4828"/>
</g>
<!-- Node28 -->
<g id="node28" class="node">
<title>Node28</title>
<g id="a_node28"><a xlink:href="../../d7/d50/BoundaryCheck_8hpp.html" target="_top" xlink:title="Acts/Surfaces/BoundaryCheck.hpp">
<polygon fill="none" stroke="#000000" points="584,-195.5 584,-215.5 776,-215.5 776,-195.5 584,-195.5"/>
<text text-anchor="middle" x="680" y="-202.5" font-family="FreeSans" font-size="10.00" fill="#000000">Acts/Surfaces/BoundaryCheck.hpp</text>
</a>
</g>
</g>
<!-- Node8&#45;&gt;Node28 -->
<g id="edge38" class="edge">
<title>Node8&#45;&gt;Node28</title>
<path fill="none" stroke="#191970" d="M1245.4954,-321.8326C1114.0046,-315.5128 872.1119,-300.5199 790,-273 755.982,-261.5988 721.4838,-238.0518 700.4152,-222.0137"/>
<polygon fill="#191970" stroke="#191970" points="702.2897,-219.0375 692.2485,-215.6573 697.9901,-224.5615 702.2897,-219.0375"/>
</g>
<!-- Node32 -->
<g id="node32" class="node">
<title>Node32</title>
<polygon fill="none" stroke="#bfbfbf" points="1788.5,-252.5 1788.5,-272.5 1831.5,-272.5 1831.5,-252.5 1788.5,-252.5"/>
<text text-anchor="middle" x="1810" y="-259.5" font-family="FreeSans" font-size="10.00" fill="#000000">array</text>
</g>
<!-- Node8&#45;&gt;Node32 -->
<g id="edge51" class="edge">
<title>Node8&#45;&gt;Node32</title>
<path fill="none" stroke="#191970" d="M1408.8456,-315.4827C1515.0751,-301.4523 1703.5305,-276.562 1778.2274,-266.6964"/>
<polygon fill="#191970" stroke="#191970" points="1778.9439,-270.1322 1788.3995,-265.3529 1778.0273,-263.1925 1778.9439,-270.1322"/>
</g>
<!-- Node9&#45;&gt;Node6 -->
<g id="edge12" class="edge">
<title>Node9&#45;&gt;Node6</title>
<path fill="none" stroke="#191970" d="M1257.4851,-252.8955C1254.2824,-252.5755 1251.1104,-252.275 1248,-252 1173.4062,-245.4057 637.2554,-257.617 575,-216 538.1454,-191.3632 553.387,-164.8308 532,-126 525.7026,-114.5662 517.9676,-102.186 511.5696,-92.3209"/>
<polygon fill="#191970" stroke="#191970" points="514.352,-90.1816 505.9356,-83.7461 508.5018,-94.0255 514.352,-90.1816"/>
</g>
<!-- Node10 -->
<g id="node10" class="node">
<title>Node10</title>
<g id="a_node10"><a xlink:href="../../de/d09/BinningType_8hpp.html" target="_top" xlink:title="Acts/Utilities/BinningType.hpp">
<polygon fill="none" stroke="#000000" points="1924,-132.5 1924,-152.5 2092,-152.5 2092,-132.5 1924,-132.5"/>
<text text-anchor="middle" x="2008" y="-139.5" font-family="FreeSans" font-size="10.00" fill="#000000">Acts/Utilities/BinningType.hpp</text>
</a>
</g>
</g>
<!-- Node9&#45;&gt;Node10 -->
<g id="edge9" class="edge">
<title>Node9&#45;&gt;Node10</title>
<path fill="none" stroke="#191970" d="M1408.8227,-259.9982C1488.1464,-255.868 1615.6811,-244.932 1722,-216 1744.4686,-209.8857 1747.8583,-202.209 1770,-195 1825.0286,-177.0835 1889.1918,-163.3258 1937.0218,-154.3971"/>
<polygon fill="#191970" stroke="#191970" points="1937.7702,-157.8183 1946.9711,-152.5654 1936.5027,-150.934 1937.7702,-157.8183"/>
</g>
<!-- Node9&#45;&gt;Node12 -->
<g id="edge37" class="edge">
<title>Node9&#45;&gt;Node12</title>
<path fill="none" stroke="#191970" d="M1408.6871,-253.0888C1469.3873,-244.9752 1556.595,-232.0454 1632,-216 1679.2962,-205.9358 1796.4909,-175.3446 1842,-159 1875.5099,-146.965 1880.9154,-136.2953 1915,-126 2016.4812,-95.3473 2141.7449,-81.4189 2201.3395,-76.1699"/>
<polygon fill="#191970" stroke="#191970" points="2201.678,-79.6538 2211.3444,-75.3165 2201.0831,-72.6791 2201.678,-79.6538"/>
</g>
<!-- Node9&#45;&gt;Node13 -->
<g id="edge13" class="edge">
<title>Node9&#45;&gt;Node13</title>
<path fill="none" stroke="#191970" d="M1371.2957,-252.4408C1407.6728,-242.8855 1462.5007,-228.4837 1501.8275,-218.1536"/>
<polygon fill="#191970" stroke="#191970" points="1502.9401,-221.4802 1511.7228,-215.5544 1501.1616,-214.7098 1502.9401,-221.4802"/>
</g>
<!-- Node26 -->
<g id="node26" class="node">
<title>Node26</title>
<polygon fill="none" stroke="#bfbfbf" points="1173,-195.5 1173,-215.5 1221,-215.5 1221,-195.5 1173,-195.5"/>
<text text-anchor="middle" x="1197" y="-202.5" font-family="FreeSans" font-size="10.00" fill="#000000">iosfwd</text>
</g>
<!-- Node9&#45;&gt;Node26 -->
<g id="edge35" class="edge">
<title>Node9&#45;&gt;Node26</title>
<path fill="none" stroke="#191970" d="M1308.999,-252.4408C1287.1875,-243.2992 1254.7918,-229.7216 1230.4451,-219.5174"/>
<polygon fill="#191970" stroke="#191970" points="1231.7942,-216.2879 1221.2185,-215.6504 1229.0884,-222.7438 1231.7942,-216.2879"/>
</g>
<!-- Node27 -->
<g id="node27" class="node">
<title>Node27</title>
<polygon fill="none" stroke="#bfbfbf" points="1263.5,-63.5 1263.5,-83.5 1308.5,-83.5 1308.5,-63.5 1263.5,-63.5"/>
<text text-anchor="middle" x="1286" y="-70.5" font-family="FreeSans" font-size="10.00" fill="#000000">utility</text>
</g>
<!-- Node9&#45;&gt;Node27 -->
<g id="edge36" class="edge">
<title>Node9&#45;&gt;Node27</title>
<path fill="none" stroke="#191970" d="M1330.2308,-252.2388C1325.2411,-233.6728 1314.472,-193.251 1306,-159 1300.475,-136.6636 1294.5126,-110.9441 1290.5491,-93.5956"/>
<polygon fill="#191970" stroke="#191970" points="1293.889,-92.4982 1288.2579,-83.5236 1287.0633,-94.0509 1293.889,-92.4982"/>
</g>
<!-- Node11 -->
<g id="node11" class="node">
<title>Node11</title>
<polygon fill="none" stroke="#bfbfbf" points="1891.5,-63.5 1891.5,-83.5 1936.5,-83.5 1936.5,-63.5 1891.5,-63.5"/>
<text text-anchor="middle" x="1914" y="-70.5" font-family="FreeSans" font-size="10.00" fill="#000000">string</text>
</g>
<!-- Node10&#45;&gt;Node11 -->
<g id="edge10" class="edge">
<title>Node10&#45;&gt;Node11</title>
<path fill="none" stroke="#191970" d="M1994.13,-132.3188C1978.8569,-121.1078 1954.0873,-102.9258 1936.126,-89.7414"/>
<polygon fill="#191970" stroke="#191970" points="1938.0594,-86.8189 1927.9269,-83.723 1933.9172,-92.4618 1938.0594,-86.8189"/>
</g>
<!-- Node10&#45;&gt;Node12 -->
<g id="edge11" class="edge">
<title>Node10&#45;&gt;Node12</title>
<path fill="none" stroke="#191970" d="M2041.1532,-132.4668C2083.9163,-119.5253 2157.9492,-97.1206 2201.4029,-83.9702"/>
<polygon fill="#191970" stroke="#191970" points="2202.6748,-87.2421 2211.2323,-80.9955 2200.6472,-80.5422 2202.6748,-87.2421"/>
</g>
<!-- Node13&#45;&gt;Node6 -->
<g id="edge23" class="edge">
<title>Node13&#45;&gt;Node6</title>
<path fill="none" stroke="#191970" d="M1477.25,-202.7925C1338.1506,-197.1494 1039.3761,-182.6525 939,-159 901.1632,-150.0842 895.5054,-136.2203 858,-126 768.3232,-101.5628 662.7517,-87.8543 589.4034,-80.6255"/>
<polygon fill="#191970" stroke="#191970" points="589.5625,-77.1246 579.2725,-79.648 588.8902,-84.0923 589.5625,-77.1246"/>
</g>
<!-- Node13&#45;&gt;Node10 -->
<g id="edge22" class="edge">
<title>Node13&#45;&gt;Node10</title>
<path fill="none" stroke="#191970" d="M1622.5715,-195.5175C1704.822,-184.2035 1838.6452,-165.7955 1924.9851,-153.9191"/>
<polygon fill="#191970" stroke="#191970" points="1925.5815,-157.3701 1935.0112,-152.5399 1924.6275,-150.4354 1925.5815,-157.3701"/>
</g>
<!-- Node13&#45;&gt;Node11 -->
<g id="edge20" class="edge">
<title>Node13&#45;&gt;Node11</title>
<path fill="none" stroke="#191970" d="M1593.514,-195.4849C1628.1884,-187.0547 1677.7557,-173.9935 1720,-159 1779.7021,-137.8103 1846.82,-106.4644 1884.394,-88.1978"/>
<polygon fill="#191970" stroke="#191970" points="1886.2872,-91.1681 1893.7329,-83.6307 1883.2119,-84.8798 1886.2872,-91.1681"/>
</g>
<!-- Node13&#45;&gt;Node12 -->
<g id="edge21" class="edge">
<title>Node13&#45;&gt;Node12</title>
<path fill="none" stroke="#191970" d="M1605.558,-195.4386C1651.0844,-186.8418 1717.0537,-173.578 1774,-159 1822.6228,-146.5528 1833.0398,-137.0456 1882,-126 1997.4451,-99.9552 2137.0787,-83.6027 2200.9911,-76.9384"/>
<polygon fill="#191970" stroke="#191970" points="2201.7137,-80.3827 2211.3037,-75.8791 2200.9984,-73.4193 2201.7137,-80.3827"/>
</g>
<!-- Node14 -->
<g id="node14" class="node">
<title>Node14</title>
<polygon fill="none" stroke="#bfbfbf" points="1314.5,-132.5 1314.5,-152.5 1359.5,-152.5 1359.5,-132.5 1314.5,-132.5"/>
<text text-anchor="middle" x="1337" y="-139.5" font-family="FreeSans" font-size="10.00" fill="#000000">bitset</text>
</g>
<!-- Node13&#45;&gt;Node14 -->
<g id="edge14" class="edge">
<title>Node13&#45;&gt;Node14</title>
<path fill="none" stroke="#191970" d="M1498.3367,-195.4646C1461.6018,-187.5527 1411.4494,-175.161 1369,-159 1367.3936,-158.3884 1365.763,-157.7178 1364.132,-157.008"/>
<polygon fill="#191970" stroke="#191970" points="1365.4864,-153.7766 1354.9516,-152.6503 1362.4847,-160.1004 1365.4864,-153.7766"/>
</g>
<!-- Node15 -->
<g id="node15" class="node">
<title>Node15</title>
<polygon fill="none" stroke="#bfbfbf" points="1088,-.5 1088,-20.5 1136,-20.5 1136,-.5 1088,-.5"/>
<text text-anchor="middle" x="1112" y="-7.5" font-family="FreeSans" font-size="10.00" fill="#000000">cmath</text>
</g>
<!-- Node13&#45;&gt;Node15 -->
<g id="edge15" class="edge">
<title>Node13&#45;&gt;Node15</title>
<path fill="none" stroke="#191970" d="M1597.8706,-195.4638C1632.9661,-187.0217 1676.283,-173.955 1687,-159 1695.5432,-147.0784 1695.1277,-138.2087 1687,-126 1626.257,-34.7581 1260.9685,-15.2937 1146.3665,-11.4111"/>
<polygon fill="#191970" stroke="#191970" points="1146.184,-7.9035 1136.0772,-11.0821 1145.9602,-14.9 1146.184,-7.9035"/>
</g>
<!-- Node16 -->
<g id="node16" class="node">
<title>Node16</title>
<polygon fill="none" stroke="#bfbfbf" points="1378,-132.5 1378,-152.5 1428,-152.5 1428,-132.5 1378,-132.5"/>
<text text-anchor="middle" x="1403" y="-139.5" font-family="FreeSans" font-size="10.00" fill="#000000">cstdlib</text>
</g>
<!-- Node13&#45;&gt;Node16 -->
<g id="edge16" class="edge">
<title>Node13&#45;&gt;Node16</title>
<path fill="none" stroke="#191970" d="M1524.946,-195.4911C1502.1528,-186.2923 1467.644,-172.1326 1438,-159 1436.4376,-158.3078 1434.8402,-157.5903 1433.23,-156.8593"/>
<polygon fill="#191970" stroke="#191970" points="1434.5715,-153.6237 1424.0255,-152.6079 1431.6363,-159.9786 1434.5715,-153.6237"/>
</g>
<!-- Node17 -->
<g id="node17" class="node">
<title>Node17</title>
<polygon fill="none" stroke="#bfbfbf" points="1446.5,-132.5 1446.5,-152.5 1503.5,-152.5 1503.5,-132.5 1446.5,-132.5"/>
<text text-anchor="middle" x="1475" y="-139.5" font-family="FreeSans" font-size="10.00" fill="#000000">iomanip</text>
</g>
<!-- Node13&#45;&gt;Node17 -->
<g id="edge17" class="edge">
<title>Node13&#45;&gt;Node17</title>
<path fill="none" stroke="#191970" d="M1537.95,-195.378C1526.4282,-185.6997 1508.8377,-170.9236 1495.1774,-159.449"/>
<polygon fill="#191970" stroke="#191970" points="1497.1776,-156.5582 1487.2693,-152.8062 1492.6752,-161.9181 1497.1776,-156.5582"/>
</g>
<!-- Node18 -->
<g id="node18" class="node">
<title>Node18</title>
<polygon fill="none" stroke="#bfbfbf" points="2148,-132.5 2148,-152.5 2208,-152.5 2208,-132.5 2148,-132.5"/>
<text text-anchor="middle" x="2178" y="-139.5" font-family="FreeSans" font-size="10.00" fill="#000000">iostream</text>
</g>
<!-- Node13&#45;&gt;Node18 -->
<g id="edge18" class="edge">
<title>Node13&#45;&gt;Node18</title>
<path fill="none" stroke="#191970" d="M1622.542,-202.3156C1728.2378,-197.0116 1930.5552,-184.3494 2101,-159 2113.0279,-157.2112 2125.9929,-154.6735 2137.792,-152.1234"/>
<polygon fill="#191970" stroke="#191970" points="2138.8052,-155.4837 2147.8078,-149.8976 2137.2866,-148.6504 2138.8052,-155.4837"/>
</g>
<!-- Node19 -->
<g id="node19" class="node">
<title>Node19</title>
<polygon fill="none" stroke="#bfbfbf" points="2416,-132.5 2416,-152.5 2474,-152.5 2474,-132.5 2416,-132.5"/>
<text text-anchor="middle" x="2445" y="-139.5" font-family="FreeSans" font-size="10.00" fill="#000000">memory</text>
</g>
<!-- Node13&#45;&gt;Node19 -->
<g id="edge19" class="edge">
<title>Node13&#45;&gt;Node19</title>
<path fill="none" stroke="#191970" d="M1622.5482,-200.5053C1745.0642,-192.0563 2000.7662,-174.3616 2217,-159 2283.291,-154.2906 2360.4133,-148.6822 2405.8324,-145.3661"/>
<polygon fill="#191970" stroke="#191970" points="2406.1305,-148.8537 2415.8489,-144.6344 2405.6204,-141.8723 2406.1305,-148.8537"/>
</g>
<!-- Node20 -->
<g id="node20" class="node">
<title>Node20</title>
<g id="a_node20"><a xlink:href="../../d8/dfd/ParameterDefinitions_8hpp.html" target="_top" xlink:title="Acts/Utilities/Parameter\lDefinitions.hpp">
<polygon fill="none" stroke="#000000" points="948,-126.5 948,-158.5 1084,-158.5 1084,-126.5 948,-126.5"/>
<text text-anchor="start" x="956" y="-145.5" font-family="FreeSans" font-size="10.00" fill="#000000">Acts/Utilities/Parameter</text>
<text text-anchor="middle" x="1016" y="-133.5" font-family="FreeSans" font-size="10.00" fill="#000000">Definitions.hpp</text>
</a>
</g>
</g>
<!-- Node13&#45;&gt;Node20 -->
<g id="edge24" class="edge">
<title>Node13&#45;&gt;Node20</title>
<path fill="none" stroke="#191970" d="M1477.4298,-200.5046C1389.3164,-193.9003 1236.0363,-180.6825 1094.5717,-158.9799"/>
<polygon fill="#191970" stroke="#191970" points="1094.8262,-155.4776 1084.4077,-157.4027 1093.7527,-162.3948 1094.8262,-155.4776"/>
</g>
<!-- Node24 -->
<g id="node24" class="node">
<title>Node24</title>
<g id="a_node24"><a xlink:href="../../d0/d81/TypeTraits_8hpp.html" target="_top" xlink:title="Acts/Utilities/TypeTraits.hpp">
<polygon fill="none" stroke="#000000" points="1522,-132.5 1522,-152.5 1678,-152.5 1678,-132.5 1522,-132.5"/>
<text text-anchor="middle" x="1600" y="-139.5" font-family="FreeSans" font-size="10.00" fill="#000000">Acts/Utilities/TypeTraits.hpp</text>
</a>
</g>
</g>
<!-- Node13&#45;&gt;Node24 -->
<g id="edge31" class="edge">
<title>Node13&#45;&gt;Node24</title>
<path fill="none" stroke="#191970" d="M1558.0334,-195.378C1565.4246,-186.0649 1576.5623,-172.0316 1585.5066,-160.7617"/>
<polygon fill="#191970" stroke="#191970" points="1588.3454,-162.8149 1591.8205,-152.8062 1582.8623,-158.4633 1588.3454,-162.8149"/>
</g>
<!-- Node20&#45;&gt;Node6 -->
<g id="edge27" class="edge">
<title>Node20&#45;&gt;Node6</title>
<path fill="none" stroke="#191970" d="M947.6162,-128.3225C943.0152,-127.4975 938.4446,-126.7143 934,-126 815.2174,-106.9116 677.1755,-91.371 589.0062,-82.28"/>
<polygon fill="#191970" stroke="#191970" points="589.3433,-78.7963 579.0384,-81.2578 588.6292,-85.7598 589.3433,-78.7963"/>
</g>
<!-- Node20&#45;&gt;Node15 -->
<g id="edge25" class="edge">
<title>Node20&#45;&gt;Node15</title>
<path fill="none" stroke="#191970" d="M1050.3416,-126.4343C1065.5403,-117.6813 1082.3487,-105.4532 1093,-90 1105.1557,-72.3642 1109.5824,-47.8881 1111.1684,-30.7685"/>
<polygon fill="#191970" stroke="#191970" points="1114.6646,-30.9416 1111.8531,-20.7266 1107.6808,-30.4653 1114.6646,-30.9416"/>
</g>
<!-- Node21 -->
<g id="node21" class="node">
<title>Node21</title>
<polygon fill="none" stroke="#bfbfbf" points="1158,-63.5 1158,-83.5 1228,-83.5 1228,-63.5 1158,-63.5"/>
<text text-anchor="middle" x="1193" y="-70.5" font-family="FreeSans" font-size="10.00" fill="#000000">type_traits</text>
</g>
<!-- Node20&#45;&gt;Node21 -->
<g id="edge26" class="edge">
<title>Node20&#45;&gt;Node21</title>
<path fill="none" stroke="#191970" d="M1057.0522,-126.4966C1087.6057,-114.5859 1128.8713,-98.4993 1157.8977,-87.184"/>
<polygon fill="#191970" stroke="#191970" points="1159.1932,-90.4355 1167.239,-83.5424 1156.6507,-83.9136 1159.1932,-90.4355"/>
</g>
<!-- Node22 -->
<g id="node22" class="node">
<title>Node22</title>
<g id="a_node22"><a xlink:href="../../d7/d46/ParameterTypes_8hpp.html" target="_top" xlink:title="Acts/Utilities/Parameter\lTypes.hpp">
<polygon fill="none" stroke="#000000" points="948,-57.5 948,-89.5 1084,-89.5 1084,-57.5 948,-57.5"/>
<text text-anchor="start" x="956" y="-76.5" font-family="FreeSans" font-size="10.00" fill="#000000">Acts/Utilities/Parameter</text>
<text text-anchor="middle" x="1016" y="-64.5" font-family="FreeSans" font-size="10.00" fill="#000000">Types.hpp</text>
</a>
</g>
</g>
<!-- Node20&#45;&gt;Node22 -->
<g id="edge28" class="edge">
<title>Node20&#45;&gt;Node22</title>
<path fill="none" stroke="#191970" d="M1016,-126.4966C1016,-118.599 1016,-108.8656 1016,-99.9044"/>
<polygon fill="#191970" stroke="#191970" points="1019.5001,-99.8957 1016,-89.8958 1012.5001,-99.8958 1019.5001,-99.8957"/>
</g>
<!-- Node22&#45;&gt;Node15 -->
<g id="edge30" class="edge">
<title>Node22&#45;&gt;Node15</title>
<path fill="none" stroke="#191970" d="M1040.4732,-57.4394C1055.1024,-47.839 1073.6051,-35.6967 1088.1265,-26.167"/>
<polygon fill="#191970" stroke="#191970" points="1090.1432,-29.0299 1096.5834,-20.6171 1086.3026,-23.1776 1090.1432,-29.0299"/>
</g>
<!-- Node23 -->
<g id="node23" class="node">
<title>Node23</title>
<polygon fill="none" stroke="#bfbfbf" points="983.5,-.5 983.5,-20.5 1048.5,-20.5 1048.5,-.5 983.5,-.5"/>
<text text-anchor="middle" x="1016" y="-7.5" font-family="FreeSans" font-size="10.00" fill="#000000">algorithm</text>
</g>
<!-- Node22&#45;&gt;Node23 -->
<g id="edge29" class="edge">
<title>Node22&#45;&gt;Node23</title>
<path fill="none" stroke="#191970" d="M1016,-57.2759C1016,-49.2654 1016,-39.5159 1016,-30.9952"/>
<polygon fill="#191970" stroke="#191970" points="1019.5001,-30.7512 1016,-20.7513 1012.5001,-30.7513 1019.5001,-30.7512"/>
</g>
<!-- Node24&#45;&gt;Node11 -->
<g id="edge33" class="edge">
<title>Node24&#45;&gt;Node11</title>
<path fill="none" stroke="#191970" d="M1645.6583,-132.4668C1709.8687,-118.3569 1825.2713,-92.9977 1881.4702,-80.6483"/>
<polygon fill="#191970" stroke="#191970" points="1882.2333,-84.0642 1891.2491,-78.4994 1880.7309,-77.2273 1882.2333,-84.0642"/>
</g>
<!-- Node24&#45;&gt;Node21 -->
<g id="edge34" class="edge">
<title>Node24&#45;&gt;Node21</title>
<path fill="none" stroke="#191970" d="M1549.4694,-132.4848C1537.5308,-130.2384 1524.8322,-127.9463 1513,-126 1398.7577,-107.2078 1368.4842,-112.93 1255,-90 1249.4728,-88.8832 1243.7071,-87.5629 1238.0132,-86.1631"/>
<polygon fill="#191970" stroke="#191970" points="1238.4641,-82.6661 1227.9091,-83.5847 1236.7332,-89.4487 1238.4641,-82.6661"/>
</g>
<!-- Node25 -->
<g id="node25" class="node">
<title>Node25</title>
<polygon fill="none" stroke="#bfbfbf" points="1447,-63.5 1447,-83.5 1513,-83.5 1513,-63.5 1447,-63.5"/>
<text text-anchor="middle" x="1480" y="-70.5" font-family="FreeSans" font-size="10.00" fill="#000000">functional</text>
</g>
<!-- Node24&#45;&gt;Node25 -->
<g id="edge32" class="edge">
<title>Node24&#45;&gt;Node25</title>
<path fill="none" stroke="#191970" d="M1582.551,-132.4668C1562.5548,-120.969 1529.5679,-102.0016 1506.4186,-88.6907"/>
<polygon fill="#191970" stroke="#191970" points="1507.8838,-85.4959 1497.4701,-83.5453 1504.3945,-91.5642 1507.8838,-85.4959"/>
</g>
<!-- Node28&#45;&gt;Node6 -->
<g id="edge47" class="edge">
<title>Node28&#45;&gt;Node6</title>
<path fill="none" stroke="#191970" d="M664.9538,-195.36C651.2792,-186.073 630.6106,-171.8574 613,-159 593.5434,-144.7948 589.2414,-140.4954 570,-126 553.6747,-113.7014 535.0957,-99.9729 521.0388,-89.6399"/>
<polygon fill="#191970" stroke="#191970" points="523.0636,-86.7845 512.9313,-83.6881 518.9212,-92.4272 523.0636,-86.7845"/>
</g>
<!-- Node28&#45;&gt;Node12 -->
<g id="edge42" class="edge">
<title>Node28&#45;&gt;Node12</title>
<path fill="none" stroke="#191970" d="M776.1037,-202.876C1010.6576,-196.2128 1599.6402,-177.8289 1687,-159 1725.8065,-150.6359 1731.4908,-135.6408 1770,-126 1927.6475,-86.533 2122.7689,-76.6943 2201.0783,-74.2749"/>
<polygon fill="#191970" stroke="#191970" points="2201.4413,-77.766 2211.3367,-73.9804 2201.2404,-70.7689 2201.4413,-77.766"/>
</g>
<!-- Node28&#45;&gt;Node15 -->
<g id="edge40" class="edge">
<title>Node28&#45;&gt;Node15</title>
<path fill="none" stroke="#191970" d="M694.4865,-195.3819C732.7405,-169.0754 840.3086,-97.7511 939,-57 985.5716,-37.7699 1042.483,-24.2563 1077.9958,-16.9253"/>
<polygon fill="#191970" stroke="#191970" points="1078.7463,-20.3445 1087.8564,-14.9355 1077.3616,-13.4828 1078.7463,-20.3445"/>
</g>
<!-- Node28&#45;&gt;Node20 -->
<g id="edge48" class="edge">
<title>Node28&#45;&gt;Node20</title>
<path fill="none" stroke="#191970" d="M733.6117,-195.4478C788.7465,-185.11 875.184,-168.903 937.9123,-157.1414"/>
<polygon fill="#191970" stroke="#191970" points="938.5841,-160.5766 947.7678,-155.2935 937.294,-153.6965 938.5841,-160.5766"/>
</g>
<!-- Node29 -->
<g id="node29" class="node">
<title>Node29</title>
<polygon fill="none" stroke="#bfbfbf" points="622.5,-132.5 622.5,-152.5 667.5,-152.5 667.5,-132.5 622.5,-132.5"/>
<text text-anchor="middle" x="645" y="-139.5" font-family="FreeSans" font-size="10.00" fill="#000000">cfloat</text>
</g>
<!-- Node28&#45;&gt;Node29 -->
<g id="edge39" class="edge">
<title>Node28&#45;&gt;Node29</title>
<path fill="none" stroke="#191970" d="M674.3766,-195.378C669.3549,-186.3389 661.8628,-172.853 655.7017,-161.7631"/>
<polygon fill="#191970" stroke="#191970" points="658.6417,-159.848 650.7257,-152.8062 652.5226,-163.2476 658.6417,-159.848"/>
</g>
<!-- Node30 -->
<g id="node30" class="node">
<title>Node30</title>
<polygon fill="none" stroke="#bfbfbf" points="686,-132.5 686,-152.5 740,-152.5 740,-132.5 686,-132.5"/>
<text text-anchor="middle" x="713" y="-139.5" font-family="FreeSans" font-size="10.00" fill="#000000">iterator</text>
</g>
<!-- Node28&#45;&gt;Node30 -->
<g id="edge41" class="edge">
<title>Node28&#45;&gt;Node30</title>
<path fill="none" stroke="#191970" d="M685.302,-195.378C690.0368,-186.3389 697.1008,-172.853 702.9098,-161.7631"/>
<polygon fill="#191970" stroke="#191970" points="706.0618,-163.2886 707.6015,-152.8062 699.861,-160.0405 706.0618,-163.2886"/>
</g>
<!-- Node31 -->
<g id="node31" class="node">
<title>Node31</title>
<g id="a_node31"><a xlink:href="../../d4/d27/VerticesHelper_8hpp.html" target="_top" xlink:title="Acts/Surfaces/detail\l/VerticesHelper.hpp">
<polygon fill="none" stroke="#000000" points="1102.5,-126.5 1102.5,-158.5 1219.5,-158.5 1219.5,-126.5 1102.5,-126.5"/>
<text text-anchor="start" x="1110.5" y="-145.5" font-family="FreeSans" font-size="10.00" fill="#000000">Acts/Surfaces/detail</text>
<text text-anchor="middle" x="1161" y="-133.5" font-family="FreeSans" font-size="10.00" fill="#000000">/VerticesHelper.hpp</text>
</a>
</g>
</g>
<!-- Node28&#45;&gt;Node31 -->
<g id="edge43" class="edge">
<title>Node28&#45;&gt;Node31</title>
<path fill="none" stroke="#191970" d="M776.0457,-198.1354C857.6858,-191.0787 978.126,-178.7933 1092.5087,-158.9464"/>
<polygon fill="#191970" stroke="#191970" points="1093.2502,-162.3698 1102.4934,-157.1917 1092.0385,-155.4754 1093.2502,-162.3698"/>
</g>
<!-- Node31&#45;&gt;Node6 -->
<g id="edge46" class="edge">
<title>Node31&#45;&gt;Node6</title>
<path fill="none" stroke="#191970" d="M1102.1389,-127.6459C1099.0567,-127.0473 1095.9967,-126.4931 1093,-126 915.9989,-96.8723 706.4828,-83.1233 589.5524,-77.2789"/>
<polygon fill="#191970" stroke="#191970" points="589.3814,-73.7664 579.2216,-76.7711 589.0377,-80.7579 589.3814,-73.7664"/>
</g>
<!-- Node31&#45;&gt;Node12 -->
<g id="edge45" class="edge">
<title>Node31&#45;&gt;Node12</title>
<path fill="none" stroke="#191970" d="M1219.8329,-135.0331C1246.1578,-131.8913 1277.5992,-128.4127 1306,-126 1589.8716,-101.8846 1661.5607,-106.0917 1946,-90 2038.0427,-84.7928 2146.5149,-78.6084 2201.0139,-75.4979"/>
<polygon fill="#191970" stroke="#191970" points="2201.389,-78.9823 2211.1733,-74.918 2200.99,-71.9936 2201.389,-78.9823"/>
</g>
<!-- Node31&#45;&gt;Node27 -->
<g id="edge44" class="edge">
<title>Node31&#45;&gt;Node27</title>
<path fill="none" stroke="#191970" d="M1189.9917,-126.4966C1210.756,-115.0347 1238.5259,-99.7057 1258.857,-88.4829"/>
<polygon fill="#191970" stroke="#191970" points="1260.5597,-91.541 1267.623,-83.6441 1257.1768,-85.4126 1260.5597,-91.541"/>
</g>
<!-- Node33&#45;&gt;Node6 -->
<g id="edge59" class="edge">
<title>Node33&#45;&gt;Node6</title>
<path fill="none" stroke="#191970" d="M390.4938,-315.3974C337.7455,-296.6372 240.2137,-252.9948 271,-195 303.9829,-132.8673 382.1253,-101.2625 437.7159,-86.1003"/>
<polygon fill="#191970" stroke="#191970" points="438.6845,-89.4647 447.4706,-83.544 436.91,-82.6934 438.6845,-89.4647"/>
</g>
<!-- Node34 -->
<g id="node34" class="node">
<title>Node34</title>
<g id="a_node34"><a xlink:href="../../da/ddb/SurfaceBounds_8hpp.html" target="_top" xlink:title="Acts/Surfaces/SurfaceBounds.hpp">
<polygon fill="none" stroke="#000000" points="342,-252.5 342,-272.5 530,-272.5 530,-252.5 342,-252.5"/>
<text text-anchor="middle" x="436" y="-259.5" font-family="FreeSans" font-size="10.00" fill="#000000">Acts/Surfaces/SurfaceBounds.hpp</text>
</a>
</g>
</g>
<!-- Node33&#45;&gt;Node34 -->
<g id="edge55" class="edge">
<title>Node33&#45;&gt;Node34</title>
<path fill="none" stroke="#191970" d="M424.2493,-315.378C426.1972,-306.6128 429.0742,-293.6662 431.4939,-282.7777"/>
<polygon fill="#191970" stroke="#191970" points="434.957,-283.3274 433.7097,-272.8062 428.1237,-281.8088 434.957,-283.3274"/>
</g>
<!-- Node34&#45;&gt;Node6 -->
<g id="edge58" class="edge">
<title>Node34&#45;&gt;Node6</title>
<path fill="none" stroke="#191970" d="M420.8599,-252.2713C409.9944,-243.9466 396.2168,-231.1242 390,-216 374.7926,-179.0036 368.7198,-159.8696 390,-126 401.8654,-107.1151 422.6403,-94.8641 442.8924,-86.9928"/>
<polygon fill="#191970" stroke="#191970" points="444.2038,-90.241 452.4377,-83.5737 441.8431,-83.651 444.2038,-90.241"/>
</g>
<!-- Node34&#45;&gt;Node28 -->
<g id="edge57" class="edge">
<title>Node34&#45;&gt;Node28</title>
<path fill="none" stroke="#191970" d="M479.0606,-252.4408C520.3112,-242.8043 582.6623,-228.2387 626.9565,-217.8913"/>
<polygon fill="#191970" stroke="#191970" points="628.0185,-221.2375 636.9602,-215.5544 626.4261,-214.421 628.0185,-221.2375"/>
</g>
<!-- Node35 -->
<g id="node35" class="node">
<title>Node35</title>
<polygon fill="none" stroke="#bfbfbf" points="280.5,-195.5 280.5,-215.5 337.5,-215.5 337.5,-195.5 280.5,-195.5"/>
<text text-anchor="middle" x="309" y="-202.5" font-family="FreeSans" font-size="10.00" fill="#000000">ostream</text>
</g>
<!-- Node34&#45;&gt;Node35 -->
<g id="edge56" class="edge">
<title>Node34&#45;&gt;Node35</title>
<path fill="none" stroke="#191970" d="M413.5873,-252.4408C393.3994,-243.3801 363.502,-229.9615 340.8372,-219.7891"/>
<polygon fill="#191970" stroke="#191970" points="342.1722,-216.552 331.6158,-215.6504 339.3059,-222.9383 342.1722,-216.552"/>
</g>
<!-- Node36&#45;&gt;Node12 -->
<g id="edge62" class="edge">
<title>Node36&#45;&gt;Node12</title>
<path fill="none" stroke="#191970" d="M1828.1178,-316.7988C1974.4335,-302.7413 2245.9199,-276.2692 2250,-273 2302.6611,-230.8042 2313.6746,-188.4059 2288,-126 2282.0879,-111.6298 2270.1294,-99.105 2259.1695,-89.8964"/>
<polygon fill="#191970" stroke="#191970" points="2261.1174,-86.9749 2251.0999,-83.5252 2256.7797,-92.4689 2261.1174,-86.9749"/>
</g>
<!-- Node36&#45;&gt;Node34 -->
<g id="edge61" class="edge">
<title>Node36&#45;&gt;Node34</title>
<path fill="none" stroke="#191970" d="M1645.9984,-320.443C1584.9135,-317.0893 1502.6325,-312.6507 1430,-309 1105.5043,-292.69 721.3207,-275.2479 540.2803,-267.1396"/>
<polygon fill="#191970" stroke="#191970" points="540.3785,-263.6406 530.2319,-266.6898 540.0654,-270.6336 540.3785,-263.6406"/>
</g>
<!-- Node37&#45;&gt;Node3 -->
<g id="edge70" class="edge">
<title>Node37&#45;&gt;Node3</title>
<path fill="none" stroke="#191970" d="M1473.3828,-462.8319C1740.796,-460.1497 2630.5596,-448.4368 2678,-411 2717.1336,-380.1184 2721.5685,-315.6819 2721.0709,-282.7795"/>
<polygon fill="#191970" stroke="#191970" points="2724.562,-282.444 2720.738,-272.5633 2717.5657,-282.672 2724.562,-282.444"/>
</g>
<!-- Node37&#45;&gt;Node5 -->
<g id="edge81" class="edge">
<title>Node37&#45;&gt;Node5</title>
<path fill="none" stroke="#191970" d="M1322.9351,-460.0779C1163.4194,-452.6372 778.9377,-433.8088 457,-411 430.959,-409.155 402.9546,-406.9018 376.6031,-404.6606"/>
<polygon fill="#191970" stroke="#191970" points="376.8544,-401.1694 366.5921,-403.8031 376.2569,-408.1438 376.8544,-401.1694"/>
</g>
<!-- Node37&#45;&gt;Node6 -->
<g id="edge109" class="edge">
<title>Node37&#45;&gt;Node6</title>
<path fill="none" stroke="#191970" d="M1322.8729,-459.8898C1237.1208,-454.4695 1093.1868,-441.3971 973,-411 944.1448,-403.7021 491.6351,-239.9768 474,-216 450.2765,-183.7454 460.0035,-164.7715 470,-126 473.1127,-113.9273 479.6576,-101.663 485.7432,-92.0274"/>
<polygon fill="#191970" stroke="#191970" points="488.6698,-93.9472 491.3101,-83.6866 482.8475,-90.0612 488.6698,-93.9472"/>
</g>
<!-- Node37&#45;&gt;Node8 -->
<g id="edge82" class="edge">
<title>Node37&#45;&gt;Node8</title>
<path fill="none" stroke="#191970" d="M1386.6414,-453.3721C1376.3259,-443.5447 1361.468,-427.7033 1353,-411 1342.4324,-390.1552 1337.3492,-363.6143 1334.9715,-345.6748"/>
<polygon fill="#191970" stroke="#191970" points="1338.4213,-345.0394 1333.7924,-335.5093 1331.468,-345.846 1338.4213,-345.0394"/>
</g>
<!-- Node37&#45;&gt;Node10 -->
<g id="edge108" class="edge">
<title>Node37&#45;&gt;Node10</title>
<path fill="none" stroke="#191970" d="M1444.1501,-453.4156C1488.5458,-443.043 1551.8149,-426.2887 1572,-411 1614.8514,-378.5433 1596.3263,-344.1473 1637,-309 1690.5127,-262.7582 1887.5093,-186.9125 1970.6199,-156.1254"/>
<polygon fill="#191970" stroke="#191970" points="1972.004,-159.3454 1980.1735,-152.5993 1969.5802,-152.7784 1972.004,-159.3454"/>
</g>
<!-- Node37&#45;&gt;Node19 -->
<g id="edge113" class="edge">
<title>Node37&#45;&gt;Node19</title>
<path fill="none" stroke="#191970" d="M1473.1234,-462.0052C1585.7989,-458.5965 1804.7894,-447.4409 1987,-411 2186.7213,-371.0571 2271.4624,-407.9679 2424,-273 2451.367,-248.7852 2451.7342,-231.5007 2450,-195 2449.4886,-184.2354 2448.3904,-172.2712 2447.3532,-162.4861"/>
<polygon fill="#191970" stroke="#191970" points="2450.8313,-162.0939 2446.2426,-152.5443 2443.8746,-162.8711 2450.8313,-162.0939"/>
</g>
<!-- Node37&#45;&gt;Node28 -->
<g id="edge83" class="edge">
<title>Node37&#45;&gt;Node28</title>
<path fill="none" stroke="#191970" d="M1322.8178,-455.0585C1195.0286,-437.9216 930.9594,-390.217 742,-273 721.6542,-260.3789 703.8064,-239.275 692.549,-224.0204"/>
<polygon fill="#191970" stroke="#191970" points="695.3641,-221.9397 686.7133,-215.823 689.6615,-225.9994 695.3641,-221.9397"/>
</g>
<!-- Node37&#45;&gt;Node34 -->
<g id="edge84" class="edge">
<title>Node37&#45;&gt;Node34</title>
<path fill="none" stroke="#191970" d="M1322.6921,-463.042C1130.4333,-461.2691 632.2676,-452.6619 571,-411 529.5692,-382.8271 557.5126,-345.3195 523,-309 509.6866,-294.9895 491.2044,-284.2952 474.6978,-276.7159"/>
<polygon fill="#191970" stroke="#191970" points="475.8273,-273.3905 465.2612,-272.6118 473.0355,-279.8097 475.8273,-273.3905"/>
</g>
<!-- Node38 -->
<g id="node38" class="node">
<title>Node38</title>
<g id="a_node38"><a xlink:href="../../dc/d45/DetectorElementBase_8hpp.html" target="_top" xlink:title="Acts/Geometry/DetectorElement\lBase.hpp">
<polygon fill="none" stroke="#000000" points="2487,-378.5 2487,-410.5 2669,-410.5 2669,-378.5 2487,-378.5"/>
<text text-anchor="start" x="2495" y="-397.5" font-family="FreeSans" font-size="10.00" fill="#000000">Acts/Geometry/DetectorElement</text>
<text text-anchor="middle" x="2578" y="-385.5" font-family="FreeSans" font-size="10.00" fill="#000000">Base.hpp</text>
</a>
</g>
</g>
<!-- Node37&#45;&gt;Node38 -->
<g id="edge64" class="edge">
<title>Node37&#45;&gt;Node38</title>
<path fill="none" stroke="#191970" d="M1473.1474,-462.5944C1648.6392,-459.8766 2098.9228,-449.4147 2473,-411 2474.1243,-410.8845 2475.255,-410.7652 2476.3909,-410.6421"/>
<polygon fill="#191970" stroke="#191970" points="2477.2039,-414.0714 2486.7341,-409.4425 2476.3974,-407.118 2477.2039,-414.0714"/>
</g>
<!-- Node40 -->
<g id="node40" class="node">
<title>Node40</title>
<g id="a_node40"><a xlink:href="../../da/de0/GeometryObject_8hpp.html" target="_top" xlink:title="Acts/Geometry/GeometryObject.hpp">
<polygon fill="none" stroke="#000000" points="1361.5,-384.5 1361.5,-404.5 1562.5,-404.5 1562.5,-384.5 1361.5,-384.5"/>
<text text-anchor="middle" x="1462" y="-391.5" font-family="FreeSans" font-size="10.00" fill="#000000">Acts/Geometry/GeometryObject.hpp</text>
</a>
</g>
</g>
<!-- Node37&#45;&gt;Node40 -->
<g id="edge71" class="edge">
<title>Node37&#45;&gt;Node40</title>
<path fill="none" stroke="#191970" d="M1407.4434,-453.3188C1417.4639,-442.5154 1433.4886,-425.2389 1445.5836,-412.1989"/>
<polygon fill="#191970" stroke="#191970" points="1448.2835,-414.4349 1452.5178,-404.723 1443.1513,-409.6745 1448.2835,-414.4349"/>
</g>
<!-- Node43 -->
<g id="node43" class="node">
<title>Node43</title>
<g id="a_node43"><a xlink:href="../../d5/d50/BinnedArray_8hpp.html" target="_top" xlink:title="Acts/Utilities/BinnedArray.hpp">
<polygon fill="none" stroke="#000000" points="1810.5,-384.5 1810.5,-404.5 1977.5,-404.5 1977.5,-384.5 1810.5,-384.5"/>
<text text-anchor="middle" x="1894" y="-391.5" font-family="FreeSans" font-size="10.00" fill="#000000">Acts/Utilities/BinnedArray.hpp</text>
</a>
</g>
</g>
<!-- Node37&#45;&gt;Node43 -->
<g id="edge85" class="edge">
<title>Node37&#45;&gt;Node43</title>
<path fill="none" stroke="#191970" d="M1470.1227,-453.4668C1560.8548,-440.8448 1716.2957,-419.221 1811.6161,-405.9607"/>
<polygon fill="#191970" stroke="#191970" points="1812.368,-409.3899 1821.7903,-404.5453 1811.4034,-402.4566 1812.368,-409.3899"/>
</g>
<!-- Node47 -->
<g id="node47" class="node">
<title>Node47</title>
<g id="a_node47"><a xlink:href="../../db/d8d/Intersection_8hpp.html" target="_top" xlink:title="Acts/Utilities/Intersection.hpp">
<polygon fill="none" stroke="#000000" points="108,-315.5 108,-335.5 274,-335.5 274,-315.5 108,-315.5"/>
<text text-anchor="middle" x="191" y="-322.5" font-family="FreeSans" font-size="10.00" fill="#000000">Acts/Utilities/Intersection.hpp</text>
</a>
</g>
</g>
<!-- Node37&#45;&gt;Node47 -->
<g id="edge110" class="edge">
<title>Node37&#45;&gt;Node47</title>
<path fill="none" stroke="#191970" d="M1322.982,-461.2264C1136.1206,-455.2275 653.552,-437.5838 495,-411 488.4808,-409.907 319.1651,-361.9114 236.1046,-338.3206"/>
<polygon fill="#191970" stroke="#191970" points="236.9954,-334.9352 226.4196,-335.5694 235.0826,-341.6688 236.9954,-334.9352"/>
</g>
<!-- Node48 -->
<g id="node48" class="node">
<title>Node48</title>
<g id="a_node48"><a xlink:href="../../dd/d76/Surface_8ipp.html" target="_top" xlink:title="Acts/Surfaces/detail\l/Surface.ipp">
<polygon fill="none" stroke="#000000" points="1637.5,-378.5 1637.5,-410.5 1754.5,-410.5 1754.5,-378.5 1637.5,-378.5"/>
<text text-anchor="start" x="1645.5" y="-397.5" font-family="FreeSans" font-size="10.00" fill="#000000">Acts/Surfaces/detail</text>
<text text-anchor="middle" x="1696" y="-385.5" font-family="FreeSans" font-size="10.00" fill="#000000">/Surface.ipp</text>
</a>
</g>
</g>
<!-- Node37&#45;&gt;Node48 -->
<g id="edge114" class="edge">
<title>Node37&#45;&gt;Node48</title>
<path fill="none" stroke="#191970" d="M1441.3318,-453.4668C1490.1381,-442.166 1570.1087,-423.6493 1627.4178,-410.3798"/>
<polygon fill="#191970" stroke="#191970" points="1628.5311,-413.7147 1637.4838,-408.049 1626.952,-406.8951 1628.5311,-413.7147"/>
</g>
<!-- Node39 -->
<g id="node39" class="node">
<title>Node39</title>
<g id="a_node39"><a xlink:href="../../d3/dc6/DefaultDetectorElementBase_8hpp.html" target="_top" xlink:title="detail/DefaultDetectorElement\lBase.hpp">
<polygon fill="none" stroke="#000000" points="2487.5,-309.5 2487.5,-341.5 2658.5,-341.5 2658.5,-309.5 2487.5,-309.5"/>
<text text-anchor="start" x="2495.5" y="-328.5" font-family="FreeSans" font-size="10.00" fill="#000000">detail/DefaultDetectorElement</text>
<text text-anchor="middle" x="2573" y="-316.5" font-family="FreeSans" font-size="10.00" fill="#000000">Base.hpp</text>
</a>
</g>
</g>
<!-- Node38&#45;&gt;Node39 -->
<g id="edge65" class="edge">
<title>Node38&#45;&gt;Node39</title>
<path fill="none" stroke="#191970" d="M2576.8403,-378.4966C2576.268,-370.599 2575.5627,-360.8656 2574.9134,-351.9044"/>
<polygon fill="#191970" stroke="#191970" points="2578.4018,-351.6166 2574.1881,-341.8958 2571.4201,-352.1226 2578.4018,-351.6166"/>
</g>
<!-- Node39&#45;&gt;Node3 -->
<g id="edge68" class="edge">
<title>Node39&#45;&gt;Node3</title>
<path fill="none" stroke="#191970" d="M2610.4747,-309.4394C2634.1435,-299.2956 2664.4342,-286.3139 2687.1588,-276.5748"/>
<polygon fill="#191970" stroke="#191970" points="2688.5807,-279.7734 2696.3934,-272.6171 2685.8232,-273.3394 2688.5807,-279.7734"/>
</g>
<!-- Node39&#45;&gt;Node6 -->
<g id="edge69" class="edge">
<title>Node39&#45;&gt;Node6</title>
<path fill="none" stroke="#191970" d="M2487.3594,-322.6054C2166.7425,-311.7614 1055.3882,-274.1039 1051,-273 939.9714,-245.068 917.2127,-219.4752 820,-159 799.5447,-146.2749 798.9906,-135.8365 777,-126 717.6966,-99.4733 645.4622,-86.3429 589.4899,-79.8472"/>
<polygon fill="#191970" stroke="#191970" points="589.5596,-76.3335 579.2347,-78.7097 588.7879,-83.2909 589.5596,-76.3335"/>
</g>
<!-- Node39&#45;&gt;Node12 -->
<g id="edge67" class="edge">
<title>Node39&#45;&gt;Node12</title>
<path fill="none" stroke="#191970" d="M2573.6369,-309.4394C2574.2018,-271.3617 2569.9193,-175.1267 2516,-126 2480.5165,-93.6704 2337.8552,-80.1839 2270.9556,-75.5528"/>
<polygon fill="#191970" stroke="#191970" points="2271.1073,-72.0553 2260.8971,-74.8841 2270.6429,-79.0398 2271.1073,-72.0553"/>
</g>
<!-- Node39&#45;&gt;Node19 -->
<g id="edge66" class="edge">
<title>Node39&#45;&gt;Node19</title>
<path fill="none" stroke="#191970" d="M2561.6409,-309.26C2537.9391,-275.3738 2483.3316,-197.3022 2458.1536,-161.3055"/>
<polygon fill="#191970" stroke="#191970" points="2460.7515,-158.9132 2452.1518,-152.7248 2455.0154,-162.9253 2460.7515,-158.9132"/>
</g>
<!-- Node40&#45;&gt;Node3 -->
<g id="edge72" class="edge">
<title>Node40&#45;&gt;Node3</title>
<path fill="none" stroke="#191970" d="M1552.4839,-384.4968C1577.2648,-382.0473 1604.1454,-379.6567 1629,-378 1686.629,-374.1586 2617.6805,-370.3514 2668,-342 2691.0347,-329.0216 2705.6117,-301.1218 2713.2907,-282.0782"/>
<polygon fill="#191970" stroke="#191970" points="2716.6256,-283.153 2716.857,-272.5606 2710.0706,-280.6967 2716.6256,-283.153"/>
</g>
<!-- Node40&#45;&gt;Node6 -->
<g id="edge79" class="edge">
<title>Node40&#45;&gt;Node6</title>
<path fill="none" stroke="#191970" d="M1362.3684,-384.4785C1210.6722,-368.0582 913.2991,-331.2969 666,-273 655.945,-270.6297 495.65,-223.9057 489,-216 459.7246,-181.1967 477.5217,-123.1347 489.9748,-92.9938"/>
<polygon fill="#191970" stroke="#191970" points="493.29,-94.1469 494.0709,-83.5809 486.8714,-91.3538 493.29,-94.1469"/>
</g>
<!-- Node40&#45;&gt;Node8 -->
<g id="edge77" class="edge">
<title>Node40&#45;&gt;Node8</title>
<path fill="none" stroke="#191970" d="M1443.2423,-384.4668C1421.5554,-372.8668 1385.654,-353.6638 1360.7389,-340.3371"/>
<polygon fill="#191970" stroke="#191970" points="1362.249,-337.1756 1351.7803,-335.5453 1358.9474,-343.3481 1362.249,-337.1756"/>
</g>
<!-- Node40&#45;&gt;Node10 -->
<g id="edge78" class="edge">
<title>Node40&#45;&gt;Node10</title>
<path fill="none" stroke="#191970" d="M1475.4731,-384.2524C1508.4427,-359.4653 1596.3158,-295.137 1676,-252 1711.7193,-232.6633 1722.7271,-232.1402 1760,-216 1781.3683,-206.7469 1786.0054,-202.6459 1808,-195 1855.5139,-178.4829 1910.9343,-164.3182 1951.3704,-154.8792"/>
<polygon fill="#191970" stroke="#191970" points="1952.3581,-158.2433 1961.314,-152.5828 1950.7828,-151.4229 1952.3581,-158.2433"/>
</g>
<!-- Node40&#45;&gt;Node13 -->
<g id="edge80" class="edge">
<title>Node40&#45;&gt;Node13</title>
<path fill="none" stroke="#191970" d="M1466.7313,-384.3385C1480.7874,-354.1498 1522.4668,-264.6338 1540.9728,-224.8879"/>
<polygon fill="#191970" stroke="#191970" points="1544.1972,-226.2546 1545.2453,-215.7117 1537.8514,-223.2999 1544.1972,-226.2546"/>
</g>
<!-- Node41 -->
<g id="node41" class="node">
<title>Node41</title>
<g id="a_node41"><a xlink:href="../../d3/d69/GeometryID_8hpp.html" target="_top" xlink:title="Acts/Geometry/GeometryID.hpp">
<polygon fill="none" stroke="#000000" points="1059.5,-252.5 1059.5,-272.5 1238.5,-272.5 1238.5,-252.5 1059.5,-252.5"/>
<text text-anchor="middle" x="1149" y="-259.5" font-family="FreeSans" font-size="10.00" fill="#000000">Acts/Geometry/GeometryID.hpp</text>
</a>
</g>
</g>
<!-- Node40&#45;&gt;Node41 -->
<g id="edge73" class="edge">
<title>Node40&#45;&gt;Node41</title>
<path fill="none" stroke="#191970" d="M1461.3804,-384.4822C1459.6854,-366.3595 1453.3795,-328.2304 1430,-309 1415.7005,-297.2382 1321.9481,-283.3224 1246.607,-273.799"/>
<polygon fill="#191970" stroke="#191970" points="1246.9366,-270.313 1236.5792,-272.5434 1246.0668,-277.2588 1246.9366,-270.313"/>
</g>
<!-- Node41&#45;&gt;Node25 -->
<g id="edge75" class="edge">
<title>Node41&#45;&gt;Node25</title>
<path fill="none" stroke="#191970" d="M1148.6401,-252.1894C1148.6766,-237.8514 1150.7545,-211.7678 1164,-195 1174.8736,-181.2348 1289.6623,-132.3872 1306,-126 1349.5979,-108.9556 1401.1001,-94.0347 1436.7036,-84.5003"/>
<polygon fill="#191970" stroke="#191970" points="1437.9886,-87.7807 1446.7594,-81.8374 1436.1967,-81.0139 1437.9886,-87.7807"/>
</g>
<!-- Node41&#45;&gt;Node26 -->
<g id="edge76" class="edge">
<title>Node41&#45;&gt;Node26</title>
<path fill="none" stroke="#191970" d="M1157.5814,-252.3095C1164.3389,-244.2851 1173.9244,-232.9022 1181.9509,-223.3708"/>
<polygon fill="#191970" stroke="#191970" points="1184.7287,-225.5059 1188.4929,-215.6022 1179.3743,-220.9969 1184.7287,-225.5059"/>
</g>
<!-- Node42 -->
<g id="node42" class="node">
<title>Node42</title>
<polygon fill="none" stroke="#bfbfbf" points="1065.5,-195.5 1065.5,-215.5 1116.5,-215.5 1116.5,-195.5 1065.5,-195.5"/>
<text text-anchor="middle" x="1091" y="-202.5" font-family="FreeSans" font-size="10.00" fill="#000000">cstdint</text>
</g>
<!-- Node41&#45;&gt;Node42 -->
<g id="edge74" class="edge">
<title>Node41&#45;&gt;Node42</title>
<path fill="none" stroke="#191970" d="M1138.6308,-252.3095C1130.3005,-244.1229 1118.4136,-232.441 1108.5989,-222.7955"/>
<polygon fill="#191970" stroke="#191970" points="1110.8651,-220.1153 1101.2795,-215.6022 1105.9585,-225.1079 1110.8651,-220.1153"/>
</g>
<!-- Node43&#45;&gt;Node6 -->
<g id="edge107" class="edge">
<title>Node43&#45;&gt;Node6</title>
<path fill="none" stroke="#191970" d="M1888.7582,-384.3331C1877.828,-363.5767 1852.3466,-317.5597 1837,-309 1736.5053,-252.9481 916.1129,-287.807 802,-273 798.4548,-272.54 553.6826,-218.3629 551,-216 514.742,-184.0642 503.746,-124.7123 500.4257,-93.6441"/>
<polygon fill="#191970" stroke="#191970" points="503.9022,-93.2256 499.5171,-83.5808 496.9306,-93.8551 503.9022,-93.2256"/>
</g>
<!-- Node43&#45;&gt;Node12 -->
<g id="edge87" class="edge">
<title>Node43&#45;&gt;Node12</title>
<path fill="none" stroke="#191970" d="M1974.0704,-384.4909C2104.2611,-366.869 2354.326,-326.9942 2424,-273 2479.6458,-229.877 2527.3038,-180.7103 2483,-126 2456.6586,-93.4712 2332.1873,-80.2595 2270.6343,-75.6456"/>
<polygon fill="#191970" stroke="#191970" points="2270.8387,-72.1514 2260.6145,-74.9292 2270.3393,-79.1336 2270.8387,-72.1514"/>
</g>
<!-- Node43&#45;&gt;Node32 -->
<g id="edge86" class="edge">
<title>Node43&#45;&gt;Node32</title>
<path fill="none" stroke="#191970" d="M1893.2185,-384.4264C1891.4859,-367.5133 1886.1018,-332.9152 1870,-309 1861.6127,-296.5428 1848.8039,-285.9622 1837.1717,-278.0559"/>
<polygon fill="#191970" stroke="#191970" points="1838.9029,-275.008 1828.5985,-272.5443 1835.1175,-280.8962 1838.9029,-275.008"/>
</g>
<!-- Node44 -->
<g id="node44" class="node">
<title>Node44</title>
<g id="a_node44"><a xlink:href="../../d2/d0a/BinUtility_8hpp.html" target="_top" xlink:title="Acts/Utilities/BinUtility.hpp">
<polygon fill="none" stroke="#000000" points="1924.5,-315.5 1924.5,-335.5 2075.5,-335.5 2075.5,-315.5 1924.5,-315.5"/>
<text text-anchor="middle" x="2000" y="-322.5" font-family="FreeSans" font-size="10.00" fill="#000000">Acts/Utilities/BinUtility.hpp</text>
</a>
</g>
</g>
<!-- Node43&#45;&gt;Node44 -->
<g id="edge88" class="edge">
<title>Node43&#45;&gt;Node44</title>
<path fill="none" stroke="#191970" d="M1909.6407,-384.3188C1927.0983,-372.9549 1955.5589,-354.4286 1975.8737,-341.2049"/>
<polygon fill="#191970" stroke="#191970" points="1977.8237,-344.1117 1984.2952,-335.723 1974.0049,-338.2452 1977.8237,-344.1117"/>
</g>
<!-- Node44&#45;&gt;Node6 -->
<g id="edge106" class="edge">
<title>Node44&#45;&gt;Node6</title>
<path fill="none" stroke="#191970" d="M1930.6317,-315.4998C1911.0627,-313.0042 1889.729,-310.5895 1870,-309 1812.2636,-304.3485 877.1955,-303.5765 828,-273 765.0057,-233.8471 808.3883,-170.4326 749,-126 723.8555,-107.1876 650.026,-93.1229 589.07,-84.3101"/>
<polygon fill="#191970" stroke="#191970" points="589.412,-80.8237 579.0201,-82.8872 588.4306,-87.7545 589.412,-80.8237"/>
</g>
<!-- Node44&#45;&gt;Node10 -->
<g id="edge105" class="edge">
<title>Node44&#45;&gt;Node10</title>
<path fill="none" stroke="#191970" d="M1971.9643,-315.3694C1953.0031,-307.002 1929.1101,-293.1939 1916,-273 1897.0242,-243.7709 1889.9734,-224.8238 1908,-195 1919.2009,-176.4688 1939.3461,-164.156 1958.6348,-156.1451"/>
<polygon fill="#191970" stroke="#191970" points="1959.9129,-159.4035 1967.9921,-152.5496 1957.4021,-152.8693 1959.9129,-159.4035"/>
</g>
<!-- Node44&#45;&gt;Node12 -->
<g id="edge92" class="edge">
<title>Node44&#45;&gt;Node12</title>
<path fill="none" stroke="#191970" d="M2064.29,-315.4885C2158.8449,-299.3028 2328.1217,-264.2596 2364,-216 2387.8651,-183.8993 2386.2804,-159.2202 2364,-126 2343.3557,-95.2193 2301.0936,-82.4711 2270.7748,-77.2"/>
<polygon fill="#191970" stroke="#191970" points="2271.0207,-73.6966 2260.6038,-75.6301 2269.9529,-80.6147 2271.0207,-73.6966"/>
</g>
<!-- Node44&#45;&gt;Node18 -->
<g id="edge90" class="edge">
<title>Node44&#45;&gt;Node18</title>
<path fill="none" stroke="#191970" d="M2030.3318,-315.4042C2052.5003,-306.8424 2082.2018,-292.7788 2103,-273 2136.9174,-240.745 2160.0884,-189.7402 2170.9469,-162.0136"/>
<polygon fill="#191970" stroke="#191970" points="2174.2378,-163.206 2174.5024,-152.6144 2167.6906,-160.7293 2174.2378,-163.206"/>
</g>
<!-- Node44&#45;&gt;Node19 -->
<g id="edge91" class="edge">
<title>Node44&#45;&gt;Node19</title>
<path fill="none" stroke="#191970" d="M2075.6166,-319.9574C2185.0803,-311.2879 2377.3589,-293.3861 2402,-273 2435.1008,-245.615 2442.91,-192.1758 2444.6309,-162.893"/>
<polygon fill="#191970" stroke="#191970" points="2448.139,-162.7574 2445.0393,-152.6261 2441.1445,-162.4791 2448.139,-162.7574"/>
</g>
<!-- Node44&#45;&gt;Node32 -->
<g id="edge89" class="edge">
<title>Node44&#45;&gt;Node32</title>
<path fill="none" stroke="#191970" d="M1969.4732,-315.378C1934.3384,-303.728 1876.9265,-284.6914 1841.4195,-272.918"/>
<polygon fill="#191970" stroke="#191970" points="1842.1807,-269.4831 1831.5874,-269.6579 1839.9776,-276.1274 1842.1807,-269.4831"/>
</g>
<!-- Node45 -->
<g id="node45" class="node">
<title>Node45</title>
<g id="a_node45"><a xlink:href="../../d3/d5e/BinningData_8hpp.html" target="_top" xlink:title="Acts/Utilities/BinningData.hpp">
<polygon fill="none" stroke="#000000" points="1924.5,-252.5 1924.5,-272.5 2093.5,-272.5 2093.5,-252.5 1924.5,-252.5"/>
<text text-anchor="middle" x="2009" y="-259.5" font-family="FreeSans" font-size="10.00" fill="#000000">Acts/Utilities/BinningData.hpp</text>
</a>
</g>
</g>
<!-- Node44&#45;&gt;Node45 -->
<g id="edge93" class="edge">
<title>Node44&#45;&gt;Node45</title>
<path fill="none" stroke="#191970" d="M2001.446,-315.378C2002.6982,-306.6128 2004.5477,-293.6662 2006.1032,-282.7777"/>
<polygon fill="#191970" stroke="#191970" points="2009.5782,-283.2007 2007.5277,-272.8062 2002.6486,-282.2107 2009.5782,-283.2007"/>
</g>
<!-- Node45&#45;&gt;Node6 -->
<g id="edge100" class="edge">
<title>Node45&#45;&gt;Node6</title>
<path fill="none" stroke="#191970" d="M1924.3385,-255.3974C1818.0044,-246.4333 1629.9652,-230.4385 1469,-216 1460.5111,-215.2386 865.8366,-162.3508 858,-159 837.4328,-150.2058 840.2511,-135.4993 820,-126 780.1038,-107.2856 669.5407,-91.8764 589.3064,-82.6983"/>
<polygon fill="#191970" stroke="#191970" points="589.5156,-79.1997 579.1859,-81.555 588.7299,-86.1555 589.5156,-79.1997"/>
</g>
<!-- Node45&#45;&gt;Node10 -->
<g id="edge99" class="edge">
<title>Node45&#45;&gt;Node10</title>
<path fill="none" stroke="#191970" d="M1967.7423,-252.3877C1948.8209,-245.4636 1928.1571,-234.1404 1917,-216 1900.9465,-189.8984 1935.4319,-169.0315 1966.4564,-156.2964"/>
<polygon fill="#191970" stroke="#191970" points="1967.8687,-159.5024 1975.9138,-152.6084 1965.3255,-152.9808 1967.8687,-159.5024"/>
</g>
<!-- Node45&#45;&gt;Node12 -->
<g id="edge98" class="edge">
<title>Node45&#45;&gt;Node12</title>
<path fill="none" stroke="#191970" d="M2058.4193,-252.3897C2107.3293,-239.586 2180.0796,-212.4223 2217,-159 2230.3878,-139.6284 2234.5312,-112.4065 2235.7154,-93.9205"/>
<polygon fill="#191970" stroke="#191970" points="2239.2221,-93.8201 2236.1265,-83.6876 2232.2278,-93.539 2239.2221,-93.8201"/>
</g>
<!-- Node45&#45;&gt;Node13 -->
<g id="edge101" class="edge">
<title>Node45&#45;&gt;Node13</title>
<path fill="none" stroke="#191970" d="M1928.26,-252.4735C1845.2049,-242.1594 1716.4767,-226.1736 1632.7086,-215.771"/>
<polygon fill="#191970" stroke="#191970" points="1633.0771,-212.29 1622.722,-214.5308 1632.2144,-219.2366 1633.0771,-212.29"/>
</g>
<!-- Node45&#45;&gt;Node15 -->
<g id="edge94" class="edge">
<title>Node45&#45;&gt;Node15</title>
<path fill="none" stroke="#191970" d="M2078.4266,-252.4185C2111.146,-245.5522 2149.7578,-234.2693 2181,-216 2211.657,-198.0728 2216.6166,-188.0818 2237,-159 2256.5107,-131.1632 2262.4804,-123.1513 2270,-90 2273.2444,-75.6967 2280.1607,-67.5769 2270,-57 2230.0692,-15.4336 1333.5909,-11.0234 1146.1617,-10.5555"/>
<polygon fill="#191970" stroke="#191970" points="1146.0672,-7.0554 1136.0592,-10.5325 1146.0512,-14.0554 1146.0672,-7.0554"/>
</g>
<!-- Node45&#45;&gt;Node18 -->
<g id="edge95" class="edge">
<title>Node45&#45;&gt;Node18</title>
<path fill="none" stroke="#191970" d="M2035.2701,-252.3917C2055.0918,-244.13 2082.4576,-231.3338 2104,-216 2126.8633,-199.726 2149.1657,-176.2177 2163.2066,-160.1992"/>
<polygon fill="#191970" stroke="#191970" points="2165.8892,-162.4476 2169.7552,-152.5833 2160.5815,-157.8838 2165.8892,-162.4476"/>
</g>
<!-- Node45&#45;&gt;Node19 -->
<g id="edge96" class="edge">
<title>Node45&#45;&gt;Node19</title>
<path fill="none" stroke="#191970" d="M2058.085,-252.4134C2099.3699,-243.6536 2159.8392,-230.1765 2212,-216 2281.0215,-197.241 2360.2093,-171.3045 2406.223,-155.7855"/>
<polygon fill="#191970" stroke="#191970" points="2407.4487,-159.0657 2415.7988,-152.5445 2405.2045,-152.4352 2407.4487,-159.0657"/>
</g>
<!-- Node45&#45;&gt;Node27 -->
<g id="edge97" class="edge">
<title>Node45&#45;&gt;Node27</title>
<path fill="none" stroke="#191970" d="M1987.5054,-252.4829C1925.7863,-223.8659 1748.5193,-142.7326 1687,-126 1651.6809,-116.3936 1407.8431,-87.604 1318.6158,-77.2561"/>
<polygon fill="#191970" stroke="#191970" points="1318.8614,-73.7612 1308.5253,-76.0881 1318.0565,-80.7148 1318.8614,-73.7612"/>
</g>
<!-- Node46 -->
<g id="node46" class="node">
<title>Node46</title>
<g id="a_node46"><a xlink:href="../../d8/db0/ThrowAssert_8hpp.html" target="_top" xlink:title="Acts/Utilities/ThrowAssert.hpp">
<polygon fill="none" stroke="#ff0000" points="1925.5,-195.5 1925.5,-215.5 2094.5,-215.5 2094.5,-195.5 1925.5,-195.5"/>
<text text-anchor="middle" x="2010" y="-202.5" font-family="FreeSans" font-size="10.00" fill="#000000">Acts/Utilities/ThrowAssert.hpp</text>
</a>
</g>
</g>
<!-- Node45&#45;&gt;Node46 -->
<g id="edge102" class="edge">
<title>Node45&#45;&gt;Node46</title>
<path fill="none" stroke="#191970" d="M2009.1788,-252.3095C2009.3082,-244.9335 2009.4874,-234.72 2009.6454,-225.715"/>
<polygon fill="#191970" stroke="#191970" points="2013.1467,-225.6621 2009.8228,-215.6022 2006.1478,-225.5393 2013.1467,-225.6621"/>
</g>
<!-- Node46&#45;&gt;Node11 -->
<g id="edge104" class="edge">
<title>Node46&#45;&gt;Node11</title>
<path fill="none" stroke="#191970" d="M2050.3505,-195.4482C2069.1968,-188.5114 2089.8865,-177.1592 2101,-159 2108.6561,-146.4902 2109.8591,-137.6888 2101,-126 2082.4037,-101.4639 1995.1948,-85.2195 1946.7157,-77.9215"/>
<polygon fill="#191970" stroke="#191970" points="1947.1131,-74.4425 1936.7121,-76.4598 1946.101,-81.3689 1947.1131,-74.4425"/>
</g>
<!-- Node46&#45;&gt;Node18 -->
<g id="edge103" class="edge">
<title>Node46&#45;&gt;Node18</title>
<path fill="none" stroke="#191970" d="M2036.9921,-195.378C2065.2811,-184.7696 2109.9031,-168.0363 2141.3612,-156.2396"/>
<polygon fill="#191970" stroke="#191970" points="2142.9405,-159.3854 2151.0749,-152.5969 2140.4826,-152.8311 2142.9405,-159.3854"/>
</g>
<!-- Node47&#45;&gt;Node2 -->
<g id="edge111" class="edge">
<title>Node47&#45;&gt;Node2</title>
<path fill="none" stroke="#191970" d="M195.82,-315.378C200.0809,-306.4302 206.4167,-293.125 211.6667,-282.0999"/>
<polygon fill="#191970" stroke="#191970" points="214.9529,-283.3396 216.0923,-272.8062 208.6329,-280.33 214.9529,-283.3396"/>
</g>
<!-- Node47&#45;&gt;Node6 -->
<g id="edge112" class="edge">
<title>Node47&#45;&gt;Node6</title>
<path fill="none" stroke="#191970" d="M188.6244,-315.1365C185.7712,-300.5498 182.267,-273.3589 190,-252 214.8155,-183.4583 233.3931,-164.9662 295,-126 329.0463,-104.4658 371.5644,-91.7431 408.9596,-84.236"/>
<polygon fill="#191970" stroke="#191970" points="409.6868,-87.6605 418.8522,-82.3459 408.373,-80.7849 409.6868,-87.6605"/>
</g>
<!-- Node49&#45;&gt;Node6 -->
<g id="edge116" class="edge">
<title>Node49&#45;&gt;Node6</title>
<path fill="none" stroke="#191970" d="M77.676,-378.4337C64.4952,-354.1636 42,-306.3233 42,-262.5 42,-262.5 42,-262.5 42,-205.5 42,-158.4219 70.5025,-148.2328 112,-126 161.786,-99.3265 310.6795,-85.1354 408.5966,-78.4769"/>
<polygon fill="#191970" stroke="#191970" points="409.0487,-81.9546 418.7941,-77.798 408.5837,-74.9701 409.0487,-81.9546"/>
</g>
<!-- Node49&#45;&gt;Node47 -->
<g id="edge117" class="edge">
<title>Node49&#45;&gt;Node47</title>
<path fill="none" stroke="#191970" d="M111.1211,-378.4966C127.93,-367.3445 150.2569,-352.5315 167.0322,-341.4017"/>
<polygon fill="#191970" stroke="#191970" points="169.3125,-344.0891 175.7103,-335.6441 165.4425,-338.2562 169.3125,-344.0891"/>
</g>
</g>
</svg>
