<?xml version="1.0" encoding="UTF-8" standalone="no"?>
<!DOCTYPE svg PUBLIC "-//W3C//DTD SVG 1.1//EN"
 "http://www.w3.org/Graphics/SVG/1.1/DTD/svg11.dtd">
<!-- Generated by graphviz version 2.40.1 (20161225.0304)
 -->
<!-- Title: Acts::Visualization::drawArrowBackward Pages: 1 -->
<svg width="506pt" height="41pt"
 viewBox="0.00 0.00 506.00 41.00" xmlns="http://www.w3.org/2000/svg" xmlns:xlink="http://www.w3.org/1999/xlink">
<g id="graph0" class="graph" transform="scale(1 1) rotate(0) translate(4 37)">
<title>Acts::Visualization::drawArrowBackward</title>
<!-- Node1 -->
<g id="node1" class="node">
<title>Node1</title>
<polygon fill="#bfbfbf" stroke="#000000" points="0,-.5 0,-32.5 126,-32.5 126,-.5 0,-.5"/>
<text text-anchor="start" x="8" y="-19.5" font-family="FreeSans" font-size="10.00" fill="#000000">Acts::Visualization</text>
<text text-anchor="middle" x="63" y="-7.5" font-family="FreeSans" font-size="10.00" fill="#000000">::drawArrowBackward</text>
</g>
<!-- Node2 -->
<g id="node2" class="node">
<title>Node2</title>
<g id="a_node2"><a xlink:href="../../d2/d59/namespaceActs_1_1PrimitivesVisualization.html#ad7068d3c33d59d18a12676cd4c3606eb" target="_top" xlink:title="Acts::PrimitivesVisualization\l::test">
<polygon fill="none" stroke="#000000" points="162,-.5 162,-32.5 321,-32.5 321,-.5 162,-.5"/>
<text text-anchor="start" x="170" y="-19.5" font-family="FreeSans" font-size="10.00" fill="#000000">Acts::PrimitivesVisualization</text>
<text text-anchor="middle" x="241.5" y="-7.5" font-family="FreeSans" font-size="10.00" fill="#000000">::test</text>
</a>
</g>
</g>
<!-- Node1&#45;&gt;Node2 -->
<g id="edge1" class="edge">
<title>Node1&#45;&gt;Node2</title>
<path fill="none" stroke="#191970" d="M136.3239,-16.5C144.7336,-16.5 153.3382,-16.5 161.8259,-16.5"/>
<polygon fill="#191970" stroke="#191970" points="136.1837,-13.0001 126.1836,-16.5 136.1836,-20.0001 136.1837,-13.0001"/>
</g>
<!-- Node3 -->
<g id="node3" class="node">
<title>Node3</title>
<g id="a_node3"><a xlink:href="../../dd/d7e/namespaceActs_1_1Test.html#a813b5fe43c9450b60b3bb33e7f863a04" target="_top" xlink:title="Acts::Test::BOOST_AUTO\l_TEST_CASE">
<polygon fill="none" stroke="#000000" points="357,-.5 357,-32.5 498,-32.5 498,-.5 357,-.5"/>
<text text-anchor="start" x="365" y="-19.5" font-family="FreeSans" font-size="10.00" fill="#000000">Acts::Test::BOOST_AUTO</text>
<text text-anchor="middle" x="427.5" y="-7.5" font-family="FreeSans" font-size="10.00" fill="#000000">_TEST_CASE</text>
</a>
</g>
</g>
<!-- Node2&#45;&gt;Node3 -->
<g id="edge2" class="edge">
<title>Node2&#45;&gt;Node3</title>
<path fill="none" stroke="#191970" d="M331.2256,-16.5C339.8038,-16.5 348.4192,-16.5 356.7793,-16.5"/>
<polygon fill="#191970" stroke="#191970" points="331.1902,-13.0001 321.1902,-16.5 331.1901,-20.0001 331.1902,-13.0001"/>
</g>
</g>
</svg>
