<?xml version="1.0" encoding="UTF-8" standalone="no"?>
<!DOCTYPE svg PUBLIC "-//W3C//DTD SVG 1.1//EN"
 "http://www.w3.org/Graphics/SVG/1.1/DTD/svg11.dtd">
<!-- Generated by graphviz version 2.40.1 (20161225.0304)
 -->
<!-- Title: fun4all_acts/blob/master/Tests/CommonHelpers/Acts/Tests/CommonHelpers/CylindricalTrackingGeometry.hpp Pages: 1 -->
<svg width="5003pt" height="581pt"
 viewBox="0.00 0.00 5003.41 581.00" xmlns="http://www.w3.org/2000/svg" xmlns:xlink="http://www.w3.org/1999/xlink">
<g id="graph0" class="graph" transform="scale(1 1) rotate(0) translate(4 577)">
<title>fun4all_acts/blob/master/Tests/CommonHelpers/Acts/Tests/CommonHelpers/CylindricalTrackingGeometry.hpp</title>
<!-- Node1 -->
<g id="node1" class="node">
<title>Node1</title>
<polygon fill="#bfbfbf" stroke="#000000" points="2955,-516.5 2955,-572.5 3145,-572.5 3145,-516.5 2955,-516.5"/>
<text text-anchor="start" x="2963" y="-559.5" font-family="FreeSans" font-size="10.00" fill="#000000">fun4all_acts/blob/master</text>
<text text-anchor="start" x="2963" y="-547.5" font-family="FreeSans" font-size="10.00" fill="#000000">/Tests/CommonHelpers/Acts</text>
<text text-anchor="start" x="2963" y="-535.5" font-family="FreeSans" font-size="10.00" fill="#000000">/Tests/CommonHelpers/Cylindrical</text>
<text text-anchor="middle" x="3050" y="-523.5" font-family="FreeSans" font-size="10.00" fill="#000000">TrackingGeometry.hpp</text>
</g>
<!-- Node2 -->
<g id="node2" class="node">
<title>Node2</title>
<polygon fill="none" stroke="#bfbfbf" points="534,-57.5 534,-77.5 600,-77.5 600,-57.5 534,-57.5"/>
<text text-anchor="middle" x="567" y="-64.5" font-family="FreeSans" font-size="10.00" fill="#000000">functional</text>
</g>
<!-- Node1&#45;&gt;Node2 -->
<g id="edge1" class="edge">
<title>Node1&#45;&gt;Node2</title>
<path fill="none" stroke="#191970" d="M2954.9832,-544.2929C2544.895,-543.0726 924.5466,-534.8087 418,-480 246.9791,-461.4954 38,-578.5191 38,-406.5 38,-406.5 38,-406.5 38,-199.5 38,-131.4561 101.1716,-137.5778 165,-114 230.0585,-89.9679 433.8709,-75.3465 523.7213,-69.9143"/>
<polygon fill="#191970" stroke="#191970" points="524.0677,-73.3999 533.8422,-69.3122 523.652,-66.4123 524.0677,-73.3999"/>
</g>
<!-- Node3 -->
<g id="node3" class="node">
<title>Node3</title>
<polygon fill="none" stroke="#bfbfbf" points="1837.5,-.5 1837.5,-20.5 1886.5,-20.5 1886.5,-.5 1837.5,-.5"/>
<text text-anchor="middle" x="1862" y="-7.5" font-family="FreeSans" font-size="10.00" fill="#000000">vector</text>
</g>
<!-- Node1&#45;&gt;Node3 -->
<g id="edge2" class="edge">
<title>Node1&#45;&gt;Node3</title>
<path fill="none" stroke="#191970" d="M3145.1077,-542.4739C3477.9874,-535.16 4578.9496,-509.0148 4735,-480 4834.2835,-461.54 4950,-507.485 4950,-406.5 4950,-406.5 4950,-406.5 4950,-130.5 4950,-84.6256 5136.6587,-121.2456 4750,-57 4602.2715,-32.454 2214.9698,-13.2238 1896.9128,-10.7658"/>
<polygon fill="#191970" stroke="#191970" points="1896.9091,-7.2658 1886.8824,-10.6886 1896.8551,-14.2656 1896.9091,-7.2658"/>
</g>
<!-- Node4 -->
<g id="node4" class="node">
<title>Node4</title>
<g id="a_node4"><a xlink:href="../../d9/dc7/CylinderLayer_8hpp.html" target="_top" xlink:title="Acts/Geometry/CylinderLayer.hpp">
<polygon fill="none" stroke="#000000" points="2758.5,-459.5 2758.5,-479.5 2945.5,-479.5 2945.5,-459.5 2758.5,-459.5"/>
<text text-anchor="middle" x="2852" y="-466.5" font-family="FreeSans" font-size="10.00" fill="#000000">Acts/Geometry/CylinderLayer.hpp</text>
</a>
</g>
</g>
<!-- Node1&#45;&gt;Node4 -->
<g id="edge3" class="edge">
<title>Node1&#45;&gt;Node4</title>
<path fill="none" stroke="#191970" d="M2975.9905,-516.4661C2946.0629,-505.1299 2912.8752,-492.5588 2888.372,-483.2773"/>
<polygon fill="#191970" stroke="#191970" points="2889.3613,-479.9094 2878.7699,-479.6401 2886.8817,-486.4555 2889.3613,-479.9094"/>
</g>
<!-- Node5 -->
<g id="node5" class="node">
<title>Node5</title>
<g id="a_node5"><a xlink:href="../../dd/d4e/CylinderVolumeBounds_8hpp.html" target="_top" xlink:title="Acts/Geometry/CylinderVolume\lBounds.hpp">
<polygon fill="none" stroke="#000000" points="3479.5,-390.5 3479.5,-422.5 3654.5,-422.5 3654.5,-390.5 3479.5,-390.5"/>
<text text-anchor="start" x="3487.5" y="-409.5" font-family="FreeSans" font-size="10.00" fill="#000000">Acts/Geometry/CylinderVolume</text>
<text text-anchor="middle" x="3567" y="-397.5" font-family="FreeSans" font-size="10.00" fill="#000000">Bounds.hpp</text>
</a>
</g>
</g>
<!-- Node1&#45;&gt;Node5 -->
<g id="edge58" class="edge">
<title>Node1&#45;&gt;Node5</title>
<path fill="none" stroke="#191970" d="M3145.1269,-519.1083C3246.8855,-491.9464 3405.877,-449.5077 3496.8359,-425.2285"/>
<polygon fill="#191970" stroke="#191970" points="3498.0128,-428.537 3506.7719,-422.5764 3496.2075,-421.7738 3498.0128,-428.537"/>
</g>
<!-- Node6 -->
<g id="node6" class="node">
<title>Node6</title>
<g id="a_node6"><a xlink:href="../../d1/db8/GeometryContext_8hpp.html" target="_top" xlink:title="Acts/Geometry/GeometryContext.hpp">
<polygon fill="none" stroke="#ff0000" points="2475,-57.5 2475,-77.5 2683,-77.5 2683,-57.5 2475,-57.5"/>
<text text-anchor="middle" x="2579" y="-64.5" font-family="FreeSans" font-size="10.00" fill="#000000">Acts/Geometry/GeometryContext.hpp</text>
</a>
</g>
</g>
<!-- Node1&#45;&gt;Node6 -->
<g id="edge106" class="edge">
<title>Node1&#45;&gt;Node6</title>
<path fill="none" stroke="#191970" d="M2954.7911,-534.1943C2864.2635,-523.1871 2735.5068,-504.0314 2691,-480 2593.7064,-427.4664 2560,-379.0705 2560,-268.5 2560,-268.5 2560,-268.5 2560,-199.5 2560,-159.5668 2568.6245,-113.5249 2574.2522,-87.7322"/>
<polygon fill="#191970" stroke="#191970" points="2577.7295,-88.2224 2576.5161,-77.6973 2570.9011,-86.6819 2577.7295,-88.2224"/>
</g>
<!-- Node13 -->
<g id="node13" class="node">
<title>Node13</title>
<g id="a_node13"><a xlink:href="../../d6/d1d/Definitions_8hpp.html" target="_top" xlink:title="Acts/Utilities/Definitions.hpp">
<polygon fill="none" stroke="#ff0000" points="3516,-57.5 3516,-77.5 3676,-77.5 3676,-57.5 3516,-57.5"/>
<text text-anchor="middle" x="3596" y="-64.5" font-family="FreeSans" font-size="10.00" fill="#000000">Acts/Utilities/Definitions.hpp</text>
</a>
</g>
</g>
<!-- Node1&#45;&gt;Node13 -->
<g id="edge170" class="edge">
<title>Node1&#45;&gt;Node13</title>
<path fill="none" stroke="#191970" d="M3145.2451,-542.4709C3386.3673,-536.8188 4016.3533,-518.7013 4222,-480 4324.9704,-460.6217 4446,-511.278 4446,-406.5 4446,-406.5 4446,-406.5 4446,-337.5 4446,-268.6595 4493.1062,-241.6119 4457,-183 4421.2426,-124.9543 4385.7894,-131.8789 4320,-114 4203.1053,-82.2328 3853.1436,-71.9516 3686.3403,-68.8029"/>
<polygon fill="#191970" stroke="#191970" points="3686.1706,-65.2993 3676.1078,-68.6144 3686.0416,-72.2981 3686.1706,-65.2993"/>
</g>
<!-- Node25 -->
<g id="node25" class="node">
<title>Node25</title>
<g id="a_node25"><a xlink:href="../../d1/d34/CylinderVolumeBuilder_8hpp.html" target="_top" xlink:title="Acts/Geometry/CylinderVolume\lBuilder.hpp">
<polygon fill="none" stroke="#000000" points="1198.5,-183.5 1198.5,-215.5 1373.5,-215.5 1373.5,-183.5 1198.5,-183.5"/>
<text text-anchor="start" x="1206.5" y="-202.5" font-family="FreeSans" font-size="10.00" fill="#000000">Acts/Geometry/CylinderVolume</text>
<text text-anchor="middle" x="1286" y="-190.5" font-family="FreeSans" font-size="10.00" fill="#000000">Builder.hpp</text>
</a>
</g>
</g>
<!-- Node1&#45;&gt;Node25 -->
<g id="edge59" class="edge">
<title>Node1&#45;&gt;Node25</title>
<path fill="none" stroke="#191970" d="M2954.7541,-544.2743C2504.9648,-542.9317 610.6158,-534.076 498,-480 459.4747,-461.5008 436,-449.2366 436,-406.5 436,-406.5 436,-406.5 436,-337.5 436,-290.5606 456.9189,-274.708 498,-252 557.0099,-219.3817 990.5755,-205.8935 1188.2559,-201.3951"/>
<polygon fill="#191970" stroke="#191970" points="1188.431,-204.8922 1198.35,-201.1686 1188.2739,-197.8939 1188.431,-204.8922"/>
</g>
<!-- Node31 -->
<g id="node31" class="node">
<title>Node31</title>
<g id="a_node31"><a xlink:href="../../df/d6f/Units_8hpp.html" target="_top" xlink:title="Acts/Utilities/Units.hpp">
<polygon fill="none" stroke="#000000" points="3120,-120.5 3120,-140.5 3252,-140.5 3252,-120.5 3120,-120.5"/>
<text text-anchor="middle" x="3186" y="-127.5" font-family="FreeSans" font-size="10.00" fill="#000000">Acts/Utilities/Units.hpp</text>
</a>
</g>
</g>
<!-- Node1&#45;&gt;Node31 -->
<g id="edge171" class="edge">
<title>Node1&#45;&gt;Node31</title>
<path fill="none" stroke="#191970" d="M3145.2228,-536.1042C3296.723,-521.0533 3583.653,-485.1079 3663,-423 3743.0055,-360.3766 3737.9165,-315.171 3760,-216 3763.1879,-201.684 3769.959,-193.767 3760,-183 3725.113,-145.2824 3350.0593,-152.7149 3299,-147 3286.2038,-145.5678 3272.6275,-143.8003 3259.4905,-141.9598"/>
<polygon fill="#191970" stroke="#191970" points="3259.9444,-138.4892 3249.5504,-140.5425 3258.9562,-145.4191 3259.9444,-138.4892"/>
</g>
<!-- Node32 -->
<g id="node32" class="node">
<title>Node32</title>
<g id="a_node32"><a xlink:href="../../da/d84/CylinderVolumeHelper_8hpp.html" target="_top" xlink:title="Acts/Geometry/CylinderVolume\lHelper.hpp">
<polygon fill="none" stroke="#000000" points="516.5,-183.5 516.5,-215.5 691.5,-215.5 691.5,-183.5 516.5,-183.5"/>
<text text-anchor="start" x="524.5" y="-202.5" font-family="FreeSans" font-size="10.00" fill="#000000">Acts/Geometry/CylinderVolume</text>
<text text-anchor="middle" x="604" y="-190.5" font-family="FreeSans" font-size="10.00" fill="#000000">Helper.hpp</text>
</a>
</g>
</g>
<!-- Node1&#45;&gt;Node32 -->
<g id="edge88" class="edge">
<title>Node1&#45;&gt;Node32</title>
<path fill="none" stroke="#191970" d="M2954.757,-544.3519C2500.5871,-543.364 572.0709,-535.8825 458,-480 420.1311,-461.4483 398,-448.669 398,-406.5 398,-406.5 398,-406.5 398,-337.5 398,-293.2532 414.5885,-279.8142 449,-252 467.3673,-237.154 490.149,-226.4139 512.5418,-218.6785"/>
<polygon fill="#191970" stroke="#191970" points="513.6892,-221.9857 522.1009,-215.5441 511.5081,-215.3342 513.6892,-221.9857"/>
</g>
<!-- Node36 -->
<g id="node36" class="node">
<title>Node36</title>
<g id="a_node36"><a xlink:href="../../d7/d99/LayerArrayCreator_8hpp.html" target="_top" xlink:title="Acts/Geometry/LayerArray\lCreator.hpp">
<polygon fill="none" stroke="#000000" points="2236.5,-183.5 2236.5,-215.5 2387.5,-215.5 2387.5,-183.5 2236.5,-183.5"/>
<text text-anchor="start" x="2244.5" y="-202.5" font-family="FreeSans" font-size="10.00" fill="#000000">Acts/Geometry/LayerArray</text>
<text text-anchor="middle" x="2312" y="-190.5" font-family="FreeSans" font-size="10.00" fill="#000000">Creator.hpp</text>
</a>
</g>
</g>
<!-- Node1&#45;&gt;Node36 -->
<g id="edge107" class="edge">
<title>Node1&#45;&gt;Node36</title>
<path fill="none" stroke="#191970" d="M2954.9952,-544.2351C2502.5364,-542.3632 588,-527.3049 588,-406.5 588,-406.5 588,-406.5 588,-337.5 588,-251.7893 2040.5891,-223.1619 2126,-216 2158.7941,-213.2501 2194.827,-210.0866 2226.3736,-207.2699"/>
<polygon fill="#191970" stroke="#191970" points="2226.8002,-210.7458 2236.4485,-206.3686 2226.1764,-203.7737 2226.8002,-210.7458"/>
</g>
<!-- Node37 -->
<g id="node37" class="node">
<title>Node37</title>
<g id="a_node37"><a xlink:href="../../db/d26/LayerCreator_8hpp.html" target="_top" xlink:title="Acts/Geometry/LayerCreator.hpp">
<polygon fill="none" stroke="#ff0000" points="2800.5,-258.5 2800.5,-278.5 2983.5,-278.5 2983.5,-258.5 2800.5,-258.5"/>
<text text-anchor="middle" x="2892" y="-265.5" font-family="FreeSans" font-size="10.00" fill="#000000">Acts/Geometry/LayerCreator.hpp</text>
</a>
</g>
</g>
<!-- Node1&#45;&gt;Node37 -->
<g id="edge113" class="edge">
<title>Node1&#45;&gt;Node37</title>
<path fill="none" stroke="#191970" d="M3023.1917,-516.4112C3014.1277,-505.6903 3004.6343,-492.9244 2998,-480 2964.5162,-414.7694 2993.5101,-382.7669 2954,-321 2944.6137,-306.3262 2929.8544,-293.5919 2917.0907,-284.3409"/>
<polygon fill="#191970" stroke="#191970" points="2918.879,-281.3222 2908.6636,-278.5119 2914.8968,-287.0792 2918.879,-281.3222"/>
</g>
<!-- Node38 -->
<g id="node38" class="node">
<title>Node38</title>
<g id="a_node38"><a xlink:href="../../d8/d20/SurfaceArrayCreator_8hpp.html" target="_top" xlink:title="Acts/Geometry/SurfaceArray\lCreator.hpp">
<polygon fill="none" stroke="#ff0000" points="2904.5,-183.5 2904.5,-215.5 3065.5,-215.5 3065.5,-183.5 2904.5,-183.5"/>
<text text-anchor="start" x="2912.5" y="-202.5" font-family="FreeSans" font-size="10.00" fill="#000000">Acts/Geometry/SurfaceArray</text>
<text text-anchor="middle" x="2985" y="-190.5" font-family="FreeSans" font-size="10.00" fill="#000000">Creator.hpp</text>
</a>
</g>
</g>
<!-- Node1&#45;&gt;Node38 -->
<g id="edge136" class="edge">
<title>Node1&#45;&gt;Node38</title>
<path fill="none" stroke="#191970" d="M3037.4521,-516.3141C3026.3835,-488.8534 3012,-445.6388 3012,-406.5 3012,-406.5 3012,-406.5 3012,-337.5 3012,-297.8858 3001.1518,-253.0454 2993.208,-225.5206"/>
<polygon fill="#191970" stroke="#191970" points="2996.5418,-224.4521 2990.3343,-215.8662 2989.8327,-226.4492 2996.5418,-224.4521"/>
</g>
<!-- Node39 -->
<g id="node39" class="node">
<title>Node39</title>
<g id="a_node39"><a xlink:href="../../d0/d62/ProtoLayer_8hpp.html" target="_top" xlink:title="Acts/Geometry/ProtoLayer.hpp">
<polygon fill="none" stroke="#ff0000" points="2854.5,-120.5 2854.5,-140.5 3025.5,-140.5 3025.5,-120.5 2854.5,-120.5"/>
<text text-anchor="middle" x="2940" y="-127.5" font-family="FreeSans" font-size="10.00" fill="#000000">Acts/Geometry/ProtoLayer.hpp</text>
</a>
</g>
</g>
<!-- Node1&#45;&gt;Node39 -->
<g id="edge135" class="edge">
<title>Node1&#45;&gt;Node39</title>
<path fill="none" stroke="#191970" d="M3062.7135,-516.0734C3089.8196,-450.7294 3145.2492,-287.4372 3074,-183 3063.8754,-168.1594 3022.842,-153.4255 2988.8199,-143.3614"/>
<polygon fill="#191970" stroke="#191970" points="2989.5646,-139.9335 2978.9861,-140.5219 2987.6226,-146.6588 2989.5646,-139.9335"/>
</g>
<!-- Node40 -->
<g id="node40" class="node">
<title>Node40</title>
<g id="a_node40"><a xlink:href="../../de/db2/PassiveLayerBuilder_8hpp.html" target="_top" xlink:title="Acts/Geometry/PassiveLayer\lBuilder.hpp">
<polygon fill="none" stroke="#000000" points="2332,-252.5 2332,-284.5 2494,-284.5 2494,-252.5 2332,-252.5"/>
<text text-anchor="start" x="2340" y="-271.5" font-family="FreeSans" font-size="10.00" fill="#000000">Acts/Geometry/PassiveLayer</text>
<text text-anchor="middle" x="2413" y="-259.5" font-family="FreeSans" font-size="10.00" fill="#000000">Builder.hpp</text>
</a>
</g>
</g>
<!-- Node1&#45;&gt;Node40 -->
<g id="edge125" class="edge">
<title>Node1&#45;&gt;Node40</title>
<path fill="none" stroke="#191970" d="M2954.726,-538.5666C2806.8826,-528.5837 2535.4343,-506.8615 2500,-480 2440.098,-434.5904 2421.2138,-340.6717 2415.4404,-294.8282"/>
<polygon fill="#191970" stroke="#191970" points="2418.9048,-294.3164 2414.2903,-284.7793 2411.9502,-295.1124 2418.9048,-294.3164"/>
</g>
<!-- Node41 -->
<g id="node41" class="node">
<title>Node41</title>
<g id="a_node41"><a xlink:href="../../d2/ddb/MaterialProperties_8hpp.html" target="_top" xlink:title="Acts/Material/MaterialProperties.hpp">
<polygon fill="none" stroke="#ff0000" points="4618.5,-189.5 4618.5,-209.5 4819.5,-209.5 4819.5,-189.5 4618.5,-189.5"/>
<text text-anchor="middle" x="4719" y="-196.5" font-family="FreeSans" font-size="10.00" fill="#000000">Acts/Material/MaterialProperties.hpp</text>
</a>
</g>
</g>
<!-- Node1&#45;&gt;Node41 -->
<g id="edge161" class="edge">
<title>Node1&#45;&gt;Node41</title>
<path fill="none" stroke="#191970" d="M3145.1476,-542.9003C3455.0587,-537.348 4423.3494,-517.1873 4559,-480 4625.6395,-461.7314 4696,-475.5982 4696,-406.5 4696,-406.5 4696,-406.5 4696,-337.5 4696,-295.0183 4706.7359,-246.1691 4713.5379,-219.4827"/>
<polygon fill="#191970" stroke="#191970" points="4716.9287,-220.3504 4716.087,-209.7891 4710.1588,-218.5702 4716.9287,-220.3504"/>
</g>
<!-- Node42 -->
<g id="node42" class="node">
<title>Node42</title>
<g id="a_node42"><a xlink:href="../../d0/d70/Material_8hpp.html" target="_top" xlink:title="Acts/Material/Material.hpp">
<polygon fill="none" stroke="#ff0000" points="4586,-120.5 4586,-140.5 4736,-140.5 4736,-120.5 4586,-120.5"/>
<text text-anchor="middle" x="4661" y="-127.5" font-family="FreeSans" font-size="10.00" fill="#000000">Acts/Material/Material.hpp</text>
</a>
</g>
</g>
<!-- Node1&#45;&gt;Node42 -->
<g id="edge160" class="edge">
<title>Node1&#45;&gt;Node42</title>
<path fill="none" stroke="#191970" d="M3145.2301,-543.3525C3453.9804,-539.2158 4410.299,-522.9738 4460,-480 4538.0675,-412.4994 4449.933,-339.9069 4504,-252 4534.8296,-201.8745 4594.3744,-164.5647 4630.6164,-145.2733"/>
<polygon fill="#191970" stroke="#191970" points="4632.4753,-148.2518 4639.7369,-140.5369 4629.2492,-142.0395 4632.4753,-148.2518"/>
</g>
<!-- Node43 -->
<g id="node43" class="node">
<title>Node43</title>
<g id="a_node43"><a xlink:href="../../dd/d24/TrackingGeometry_8hpp.html" target="_top" xlink:title="Acts/Geometry/TrackingGeometry.hpp">
<polygon fill="none" stroke="#ff0000" points="1972.5,-120.5 1972.5,-140.5 2181.5,-140.5 2181.5,-120.5 1972.5,-120.5"/>
<text text-anchor="middle" x="2077" y="-127.5" font-family="FreeSans" font-size="10.00" fill="#000000">Acts/Geometry/TrackingGeometry.hpp</text>
</a>
</g>
</g>
<!-- Node1&#45;&gt;Node43 -->
<g id="edge137" class="edge">
<title>Node1&#45;&gt;Node43</title>
<path fill="none" stroke="#191970" d="M2954.794,-544.3002C2512.7184,-543.084 677.1513,-534.744 569,-480 532.1172,-461.3306 512,-447.8387 512,-406.5 512,-406.5 512,-406.5 512,-337.5 512,-276.6269 562.0432,-273.4816 619,-252 777.8236,-192.0988 1212.8356,-230.018 1382,-216 1641.1486,-194.5254 1705.1903,-180.9605 1963,-147 1974.8495,-145.4391 1987.3796,-143.7077 1999.6267,-141.9705"/>
<polygon fill="#191970" stroke="#191970" points="2000.4221,-145.3925 2009.8266,-140.5135 1999.4321,-138.4629 2000.4221,-145.3925"/>
</g>
<!-- Node44 -->
<g id="node44" class="node">
<title>Node44</title>
<g id="a_node44"><a xlink:href="../../df/d37/TrackingVolume_8hpp.html" target="_top" xlink:title="Acts/Geometry/TrackingVolume.hpp">
<polygon fill="none" stroke="#ff0000" points="2626,-327.5 2626,-347.5 2824,-347.5 2824,-327.5 2626,-327.5"/>
<text text-anchor="middle" x="2725" y="-334.5" font-family="FreeSans" font-size="10.00" fill="#000000">Acts/Geometry/TrackingVolume.hpp</text>
</a>
</g>
</g>
<!-- Node1&#45;&gt;Node44 -->
<g id="edge143" class="edge">
<title>Node1&#45;&gt;Node44</title>
<path fill="none" stroke="#191970" d="M2954.5577,-530.7345C2845.3975,-512.6119 2677.6159,-476.6304 2646,-423 2638.5517,-410.3654 2639.07,-402.9262 2646,-390 2655.1062,-373.0147 2672.3967,-360.5873 2688.4854,-352.1001"/>
<polygon fill="#191970" stroke="#191970" points="2690.3135,-355.1018 2697.7484,-347.5537 2687.2292,-348.8179 2690.3135,-355.1018"/>
</g>
<!-- Node45 -->
<g id="node45" class="node">
<title>Node45</title>
<g id="a_node45"><a xlink:href="../../d7/d9e/TrackingVolumeArrayCreator_8hpp.html" target="_top" xlink:title="Acts/Geometry/TrackingVolume\lArrayCreator.hpp">
<polygon fill="none" stroke="#ff0000" points="1941,-183.5 1941,-215.5 2117,-215.5 2117,-183.5 1941,-183.5"/>
<text text-anchor="start" x="1949" y="-202.5" font-family="FreeSans" font-size="10.00" fill="#000000">Acts/Geometry/TrackingVolume</text>
<text text-anchor="middle" x="2029" y="-190.5" font-family="FreeSans" font-size="10.00" fill="#000000">ArrayCreator.hpp</text>
</a>
</g>
</g>
<!-- Node1&#45;&gt;Node45 -->
<g id="edge151" class="edge">
<title>Node1&#45;&gt;Node45</title>
<path fill="none" stroke="#191970" d="M2954.8859,-543.4946C2548.879,-538.9767 971.7021,-519.0485 753,-480 658.5399,-463.1345 550,-502.4539 550,-406.5 550,-406.5 550,-406.5 550,-337.5 550,-273.1799 8.5425,-379.1075 830,-252 937.2379,-235.4066 1663.9196,-211.0538 1930.8814,-202.5582"/>
<polygon fill="#191970" stroke="#191970" points="1931.0655,-206.0542 1940.9493,-202.2384 1930.8432,-199.0577 1931.0655,-206.0542"/>
</g>
<!-- Node46 -->
<g id="node46" class="node">
<title>Node46</title>
<g id="a_node46"><a xlink:href="../../d9/dfe/HomogeneousSurfaceMaterial_8hpp.html" target="_top" xlink:title="Acts/Material/Homogeneous\lSurfaceMaterial.hpp">
<polygon fill="none" stroke="#ff0000" points="4724,-252.5 4724,-284.5 4884,-284.5 4884,-252.5 4724,-252.5"/>
<text text-anchor="start" x="4732" y="-271.5" font-family="FreeSans" font-size="10.00" fill="#000000">Acts/Material/Homogeneous</text>
<text text-anchor="middle" x="4804" y="-259.5" font-family="FreeSans" font-size="10.00" fill="#000000">SurfaceMaterial.hpp</text>
</a>
</g>
</g>
<!-- Node1&#45;&gt;Node46 -->
<g id="edge157" class="edge">
<title>Node1&#45;&gt;Node46</title>
<path fill="none" stroke="#191970" d="M3145.1588,-543.5669C3488.251,-539.8461 4644.9823,-524.0722 4710,-480 4773.278,-437.1071 4794.4195,-341.1589 4801.1053,-294.7012"/>
<polygon fill="#191970" stroke="#191970" points="4804.6084,-294.9073 4802.4488,-284.5349 4797.6688,-293.9901 4804.6084,-294.9073"/>
</g>
<!-- Node47 -->
<g id="node47" class="node">
<title>Node47</title>
<g id="a_node47"><a xlink:href="../../d7/dec/PlaneSurface_8hpp.html" target="_top" xlink:title="Acts/Surfaces/PlaneSurface.hpp">
<polygon fill="none" stroke="#ff0000" points="4086,-120.5 4086,-140.5 4264,-140.5 4264,-120.5 4086,-120.5"/>
<text text-anchor="middle" x="4175" y="-127.5" font-family="FreeSans" font-size="10.00" fill="#000000">Acts/Surfaces/PlaneSurface.hpp</text>
</a>
</g>
</g>
<!-- Node1&#45;&gt;Node47 -->
<g id="edge162" class="edge">
<title>Node1&#45;&gt;Node47</title>
<path fill="none" stroke="#191970" d="M3145.2934,-542.2235C3378.3123,-534.3976 3966.265,-500.2577 4081,-354 4130.1099,-291.3974 3982.1657,-248.0391 4028,-183 4039.1058,-167.2408 4083.2769,-152.7815 4120.3271,-143.0454"/>
<polygon fill="#191970" stroke="#191970" points="4121.2424,-146.424 4130.0604,-140.5509 4119.5045,-139.6432 4121.2424,-146.424"/>
</g>
<!-- Node48 -->
<g id="node48" class="node">
<title>Node48</title>
<g id="a_node48"><a xlink:href="../../dc/d7d/RectangleBounds_8hpp.html" target="_top" xlink:title="Acts/Surfaces/RectangleBounds.hpp">
<polygon fill="none" stroke="#ff0000" points="4248,-189.5 4248,-209.5 4448,-209.5 4448,-189.5 4248,-189.5"/>
<text text-anchor="middle" x="4348" y="-196.5" font-family="FreeSans" font-size="10.00" fill="#000000">Acts/Surfaces/RectangleBounds.hpp</text>
</a>
</g>
</g>
<!-- Node1&#45;&gt;Node48 -->
<g id="edge166" class="edge">
<title>Node1&#45;&gt;Node48</title>
<path fill="none" stroke="#191970" d="M3145.3277,-543.5283C3375.936,-540.4338 3958.777,-527.9645 4147,-480 4221.27,-461.0739 4303,-483.1435 4303,-406.5 4303,-406.5 4303,-406.5 4303,-337.5 4303,-293.2288 4324.1922,-244.7304 4337.4903,-218.6555"/>
<polygon fill="#191970" stroke="#191970" points="4340.7387,-219.9985 4342.3007,-209.5194 4334.5448,-216.7372 4340.7387,-219.9985"/>
</g>
<!-- Node49 -->
<g id="node49" class="node">
<title>Node49</title>
<g id="a_node49"><a xlink:href="../../d3/d09/DetectorElementStub_8hpp.html" target="_top" xlink:title="Acts/Tests/CommonHelpers\l/DetectorElementStub.hpp">
<polygon fill="none" stroke="#ff0000" points="4036.5,-183.5 4036.5,-215.5 4191.5,-215.5 4191.5,-183.5 4036.5,-183.5"/>
<text text-anchor="start" x="4044.5" y="-202.5" font-family="FreeSans" font-size="10.00" fill="#000000">Acts/Tests/CommonHelpers</text>
<text text-anchor="middle" x="4114" y="-190.5" font-family="FreeSans" font-size="10.00" fill="#000000">/DetectorElementStub.hpp</text>
</a>
</g>
</g>
<!-- Node1&#45;&gt;Node49 -->
<g id="edge172" class="edge">
<title>Node1&#45;&gt;Node49</title>
<path fill="none" stroke="#191970" d="M3145.1619,-542.7674C3389.846,-537.7442 4027.7642,-520.8509 4114,-480 4154.2184,-460.9481 4182,-451.0027 4182,-406.5 4182,-406.5 4182,-406.5 4182,-337.5 4182,-293.8777 4154.3223,-249.7467 4134.2828,-223.5114"/>
<polygon fill="#191970" stroke="#191970" points="4137.0258,-221.3374 4128.0896,-215.6457 4131.5259,-225.6678 4137.0258,-221.3374"/>
</g>
<!-- Node50 -->
<g id="node50" class="node">
<title>Node50</title>
<g id="a_node50"><a xlink:href="../../de/d59/PredefinedMaterials_8hpp.html" target="_top" xlink:title="Predefined materials for test.">
<polygon fill="none" stroke="#000000" points="4512.5,-252.5 4512.5,-284.5 4667.5,-284.5 4667.5,-252.5 4512.5,-252.5"/>
<text text-anchor="start" x="4520.5" y="-271.5" font-family="FreeSans" font-size="10.00" fill="#000000">Acts/Tests/CommonHelpers</text>
<text text-anchor="middle" x="4590" y="-259.5" font-family="FreeSans" font-size="10.00" fill="#000000">/PredefinedMaterials.hpp</text>
</a>
</g>
</g>
<!-- Node1&#45;&gt;Node50 -->
<g id="edge175" class="edge">
<title>Node1&#45;&gt;Node50</title>
<path fill="none" stroke="#191970" d="M3145.1974,-543.4672C3464.7238,-539.5996 4481.9723,-523.8779 4536,-480 4591.8298,-434.6586 4594.5592,-340.3049 4592.2361,-294.5288"/>
<polygon fill="#191970" stroke="#191970" points="4595.7266,-294.2664 4591.6047,-284.5063 4588.7404,-294.7066 4595.7266,-294.2664"/>
</g>
<!-- Node4&#45;&gt;Node5 -->
<g id="edge4" class="edge">
<title>Node4&#45;&gt;Node5</title>
<path fill="none" stroke="#191970" d="M2945.8411,-461.2315C3081.5844,-449.2709 3331.5194,-427.2486 3469.3583,-415.1034"/>
<polygon fill="#191970" stroke="#191970" points="3469.8383,-418.5748 3479.4924,-414.2105 3469.2238,-411.6018 3469.8383,-418.5748"/>
</g>
<!-- Node4&#45;&gt;Node6 -->
<g id="edge48" class="edge">
<title>Node4&#45;&gt;Node6</title>
<path fill="none" stroke="#191970" d="M2774.4832,-459.4952C2724.5842,-451.6685 2665.5307,-439.366 2646,-423 2590.8873,-376.8176 2598,-340.4043 2598,-268.5 2598,-268.5 2598,-268.5 2598,-199.5 2598,-159.5668 2589.3755,-113.5249 2583.7478,-87.7322"/>
<polygon fill="#191970" stroke="#191970" points="2587.0989,-86.6819 2581.4839,-77.6973 2580.2705,-88.2224 2587.0989,-86.6819"/>
</g>
<!-- Node10 -->
<g id="node10" class="node">
<title>Node10</title>
<polygon fill="none" stroke="#bfbfbf" points="2428.5,-120.5 2428.5,-140.5 2493.5,-140.5 2493.5,-120.5 2428.5,-120.5"/>
<text text-anchor="middle" x="2461" y="-127.5" font-family="FreeSans" font-size="10.00" fill="#000000">algorithm</text>
</g>
<!-- Node4&#45;&gt;Node10 -->
<g id="edge57" class="edge">
<title>Node4&#45;&gt;Node10</title>
<path fill="none" stroke="#191970" d="M2758.3312,-459.5852C2701.9593,-452.0381 2636.8208,-440.0231 2614,-423 2565.2488,-386.6341 2492.1598,-209.4936 2468.605,-150.0174"/>
<polygon fill="#191970" stroke="#191970" points="2471.8313,-148.6578 2464.9139,-140.6328 2465.317,-151.22 2471.8313,-148.6578"/>
</g>
<!-- Node4&#45;&gt;Node13 -->
<g id="edge53" class="edge">
<title>Node4&#45;&gt;Node13</title>
<path fill="none" stroke="#191970" d="M2874.3826,-459.3185C2944.6565,-427.4607 3167.3799,-327.3192 3355,-252 3397.6742,-234.8687 3412.1531,-238.952 3452,-216 3471.9708,-204.4967 3472.6808,-195.567 3492,-183 3521.9903,-163.4914 3539.7465,-173.3015 3564,-147 3579.3891,-130.3115 3587.8014,-105.2755 3592.0867,-87.7705"/>
<polygon fill="#191970" stroke="#191970" points="3595.6117,-88.0363 3594.3387,-77.5183 3588.7747,-86.5345 3595.6117,-88.0363"/>
</g>
<!-- Node19 -->
<g id="node19" class="node">
<title>Node19</title>
<g id="a_node19"><a xlink:href="../../d4/d17/CylinderSurface_8hpp.html" target="_top" xlink:title="Acts/Surfaces/CylinderSurface.hpp">
<polygon fill="none" stroke="#ff0000" points="3876,-120.5 3876,-140.5 4068,-140.5 4068,-120.5 3876,-120.5"/>
<text text-anchor="middle" x="3972" y="-127.5" font-family="FreeSans" font-size="10.00" fill="#000000">Acts/Surfaces/CylinderSurface.hpp</text>
</a>
</g>
</g>
<!-- Node4&#45;&gt;Node19 -->
<g id="edge52" class="edge">
<title>Node4&#45;&gt;Node19</title>
<path fill="none" stroke="#191970" d="M2945.8122,-467.5578C3145.1812,-462.9349 3598.1798,-449.6222 3663,-423 3807.0435,-363.84 3923.3866,-203.7731 3959.9765,-149.0992"/>
<polygon fill="#191970" stroke="#191970" points="3962.9273,-150.9822 3965.516,-140.7084 3957.0856,-147.1254 3962.9273,-150.9822"/>
</g>
<!-- Node23 -->
<g id="node23" class="node">
<title>Node23</title>
<g id="a_node23"><a xlink:href="../../d2/d3b/Layer_8hpp.html" target="_top" xlink:title="Acts/Geometry/Layer.hpp">
<polygon fill="none" stroke="#ff0000" points="2664.5,-189.5 2664.5,-209.5 2809.5,-209.5 2809.5,-189.5 2664.5,-189.5"/>
<text text-anchor="middle" x="2737" y="-196.5" font-family="FreeSans" font-size="10.00" fill="#000000">Acts/Geometry/Layer.hpp</text>
</a>
</g>
</g>
<!-- Node4&#45;&gt;Node23 -->
<g id="edge49" class="edge">
<title>Node4&#45;&gt;Node23</title>
<path fill="none" stroke="#191970" d="M2853.0827,-459.3841C2855.2921,-434.2568 2858.1739,-367.6654 2833,-321 2821.3274,-299.3622 2807.0767,-303.6006 2791,-285 2772.983,-264.1545 2756.7622,-236.735 2746.9064,-218.6357"/>
<polygon fill="#191970" stroke="#191970" points="2749.9053,-216.8208 2742.1148,-209.6404 2743.7271,-220.1119 2749.9053,-216.8208"/>
</g>
<!-- Node24 -->
<g id="node24" class="node">
<title>Node24</title>
<g id="a_node24"><a xlink:href="../../d8/db0/ThrowAssert_8hpp.html" target="_top" xlink:title="Acts/Utilities/ThrowAssert.hpp">
<polygon fill="none" stroke="#ff0000" points="2655.5,-396.5 2655.5,-416.5 2824.5,-416.5 2824.5,-396.5 2655.5,-396.5"/>
<text text-anchor="middle" x="2740" y="-403.5" font-family="FreeSans" font-size="10.00" fill="#000000">Acts/Utilities/ThrowAssert.hpp</text>
</a>
</g>
</g>
<!-- Node4&#45;&gt;Node24 -->
<g id="edge54" class="edge">
<title>Node4&#45;&gt;Node24</title>
<path fill="none" stroke="#191970" d="M2834.0053,-459.378C2815.8807,-449.1829 2787.6994,-433.3309 2766.916,-421.6402"/>
<polygon fill="#191970" stroke="#191970" points="2768.3818,-418.4491 2757.9501,-416.5969 2764.9499,-424.5501 2768.3818,-418.4491"/>
</g>
<!-- Node5&#45;&gt;Node3 -->
<g id="edge47" class="edge">
<title>Node5&#45;&gt;Node3</title>
<path fill="none" stroke="#191970" d="M3654.7035,-399.4529C3775.0077,-389.7023 3997.9561,-371.3325 4188,-354 4515.663,-324.1163 4912,-528.5229 4912,-199.5 4912,-199.5 4912,-199.5 4912,-130.5 4912,22.7987 4727.2696,-74.7334 4575,-57 4296.8123,-24.6022 2194.2921,-12.2692 1896.9276,-10.6802"/>
<polygon fill="#191970" stroke="#191970" points="1896.7555,-7.1793 1886.7371,-10.6262 1896.7183,-14.1793 1896.7555,-7.1793"/>
</g>
<!-- Node5&#45;&gt;Node6 -->
<g id="edge5" class="edge">
<title>Node5&#45;&gt;Node6</title>
<path fill="none" stroke="#191970" d="M3479.2201,-396.5781C3416.1236,-388.2768 3329.4122,-374.4613 3255,-354 3134.1148,-320.7599 3109.2166,-296.479 2992,-252 2949.0068,-235.6858 2935.5987,-237.5944 2895,-216 2872.7857,-204.1842 2870.9413,-195.3153 2849,-183 2813.2238,-162.9195 2799.2062,-168.0638 2764,-147 2743.9269,-134.9903 2743.5835,-125.1122 2723,-114 2695.2049,-98.9945 2661.7543,-87.8268 2634.0917,-80.2021"/>
<polygon fill="#191970" stroke="#191970" points="2634.7481,-76.7547 2624.1833,-77.5527 2632.9398,-83.5171 2634.7481,-76.7547"/>
</g>
<!-- Node7 -->
<g id="node7" class="node">
<title>Node7</title>
<g id="a_node7"><a xlink:href="../../d6/d0f/Volume_8hpp.html" target="_top" xlink:title="Acts/Geometry/Volume.hpp">
<polygon fill="none" stroke="#ff0000" points="3364,-258.5 3364,-278.5 3520,-278.5 3520,-258.5 3364,-258.5"/>
<text text-anchor="middle" x="3442" y="-265.5" font-family="FreeSans" font-size="10.00" fill="#000000">Acts/Geometry/Volume.hpp</text>
</a>
</g>
</g>
<!-- Node5&#45;&gt;Node7 -->
<g id="edge6" class="edge">
<title>Node5&#45;&gt;Node7</title>
<path fill="none" stroke="#191970" d="M3567.3947,-390.264C3567.0171,-371.6444 3563.7592,-341.1056 3548,-321 3533.5635,-302.5819 3510.9763,-290.1583 3490.3552,-282.0419"/>
<polygon fill="#191970" stroke="#191970" points="3491.3394,-278.6747 3480.7459,-278.5031 3488.9203,-285.2434 3491.3394,-278.6747"/>
</g>
<!-- Node9 -->
<g id="node9" class="node">
<title>Node9</title>
<g id="a_node9"><a xlink:href="../../d9/db6/BoundingBox_8hpp.html" target="_top" xlink:title="Acts/Utilities/BoundingBox.hpp">
<polygon fill="none" stroke="#ff0000" points="3578.5,-189.5 3578.5,-209.5 3751.5,-209.5 3751.5,-189.5 3578.5,-189.5"/>
<text text-anchor="middle" x="3665" y="-196.5" font-family="FreeSans" font-size="10.00" fill="#000000">Acts/Utilities/BoundingBox.hpp</text>
</a>
</g>
</g>
<!-- Node5&#45;&gt;Node9 -->
<g id="edge39" class="edge">
<title>Node5&#45;&gt;Node9</title>
<path fill="none" stroke="#191970" d="M3576.7097,-390.3626C3590.2876,-367.4309 3615.2702,-323.8769 3633,-285 3643.0209,-263.0267 3652.4496,-236.9201 3658.4409,-219.3853"/>
<polygon fill="#191970" stroke="#191970" points="3661.8316,-220.2827 3661.7016,-209.6887 3655.1967,-218.0515 3661.8316,-220.2827"/>
</g>
<!-- Node11 -->
<g id="node11" class="node">
<title>Node11</title>
<polygon fill="none" stroke="#bfbfbf" points="3776.5,-120.5 3776.5,-140.5 3819.5,-140.5 3819.5,-120.5 3776.5,-120.5"/>
<text text-anchor="middle" x="3798" y="-127.5" font-family="FreeSans" font-size="10.00" fill="#000000">array</text>
</g>
<!-- Node5&#45;&gt;Node11 -->
<g id="edge44" class="edge">
<title>Node5&#45;&gt;Node11</title>
<path fill="none" stroke="#191970" d="M3587.8354,-390.4505C3626.2143,-360.002 3708.824,-290.2263 3760,-216 3774.3362,-195.2066 3785.2756,-168.1315 3791.656,-150.0757"/>
<polygon fill="#191970" stroke="#191970" points="3794.9714,-151.197 3794.877,-140.6026 3788.3441,-148.9435 3794.9714,-151.197"/>
</g>
<!-- Node5&#45;&gt;Node13 -->
<g id="edge40" class="edge">
<title>Node5&#45;&gt;Node13</title>
<path fill="none" stroke="#191970" d="M3602.2125,-390.2839C3621.035,-380.881 3644.1476,-368.1222 3663,-354 3757.1619,-283.4641 3795.0533,-259.9438 3828,-147 3832.1072,-132.9202 3837.2962,-125.3443 3828,-114 3809.9775,-92.0068 3743.602,-80.202 3686.4401,-73.998"/>
<polygon fill="#191970" stroke="#191970" points="3686.564,-70.4921 3676.2559,-72.9401 3685.8407,-77.4546 3686.564,-70.4921"/>
</g>
<!-- Node14 -->
<g id="node14" class="node">
<title>Node14</title>
<g id="a_node14"><a xlink:href="../../d9/d70/Core_2include_2Acts_2Utilities_2Helpers_8hpp.html" target="_top" xlink:title="Acts/Utilities/Helpers.hpp">
<polygon fill="none" stroke="#ff0000" points="3308.5,-120.5 3308.5,-140.5 3453.5,-140.5 3453.5,-120.5 3308.5,-120.5"/>
<text text-anchor="middle" x="3381" y="-127.5" font-family="FreeSans" font-size="10.00" fill="#000000">Acts/Utilities/Helpers.hpp</text>
</a>
</g>
</g>
<!-- Node5&#45;&gt;Node14 -->
<g id="edge41" class="edge">
<title>Node5&#45;&gt;Node14</title>
<path fill="none" stroke="#191970" d="M3479.3378,-394.9263C3415.985,-385.4149 3336.7062,-370.8038 3308,-354 3238.1066,-313.0864 3217.2114,-291.9153 3189,-216 3183.891,-202.2519 3180.1013,-194.6586 3189,-183 3203.0397,-164.6059 3254.9353,-151.0892 3301.2368,-142.3809"/>
<polygon fill="#191970" stroke="#191970" points="3302.1117,-145.7791 3311.3214,-140.5416 3300.8557,-138.8927 3302.1117,-145.7791"/>
</g>
<!-- Node15 -->
<g id="node15" class="node">
<title>Node15</title>
<polygon fill="none" stroke="#bfbfbf" points="4095,-57.5 4095,-77.5 4143,-77.5 4143,-57.5 4095,-57.5"/>
<text text-anchor="middle" x="4119" y="-64.5" font-family="FreeSans" font-size="10.00" fill="#000000">cmath</text>
</g>
<!-- Node5&#45;&gt;Node15 -->
<g id="edge45" class="edge">
<title>Node5&#45;&gt;Node15</title>
<path fill="none" stroke="#191970" d="M3654.6005,-402.25C3860.5964,-390.1312 4365.2975,-347.3406 4457,-216 4534.5311,-104.9563 4253.804,-76.0529 4153.4068,-69.3448"/>
<polygon fill="#191970" stroke="#191970" points="4153.3777,-65.8361 4143.1765,-68.6971 4152.9353,-72.8221 4153.3777,-65.8361"/>
</g>
<!-- Node18 -->
<g id="node18" class="node">
<title>Node18</title>
<g id="a_node18"><a xlink:href="../../d4/dd8/VolumeBounds_8hpp.html" target="_top" xlink:title="Acts/Geometry/VolumeBounds.hpp">
<polygon fill="none" stroke="#ff0000" points="3345,-327.5 3345,-347.5 3539,-347.5 3539,-327.5 3345,-327.5"/>
<text text-anchor="middle" x="3442" y="-334.5" font-family="FreeSans" font-size="10.00" fill="#000000">Acts/Geometry/VolumeBounds.hpp</text>
</a>
</g>
</g>
<!-- Node5&#45;&gt;Node18 -->
<g id="edge25" class="edge">
<title>Node5&#45;&gt;Node18</title>
<path fill="none" stroke="#191970" d="M3538.0083,-390.4966C3517.244,-379.0347 3489.4741,-363.7057 3469.143,-352.4829"/>
<polygon fill="#191970" stroke="#191970" points="3470.8232,-349.4126 3460.377,-347.6441 3467.4403,-355.541 3470.8232,-349.4126"/>
</g>
<!-- Node5&#45;&gt;Node19 -->
<g id="edge31" class="edge">
<title>Node5&#45;&gt;Node19</title>
<path fill="none" stroke="#191970" d="M3598.7011,-390.4488C3617.6911,-380.5193 3642.1207,-367.187 3663,-354 3775.7436,-282.7933 3902.3478,-185.29 3951.218,-146.9424"/>
<polygon fill="#191970" stroke="#191970" points="3953.4655,-149.6276 3959.1602,-140.6934 3949.137,-144.1263 3953.4655,-149.6276"/>
</g>
<!-- Node20 -->
<g id="node20" class="node">
<title>Node20</title>
<g id="a_node20"><a xlink:href="../../d8/de8/DiscSurface_8hpp.html" target="_top" xlink:title="Acts/Surfaces/DiscSurface.hpp">
<polygon fill="none" stroke="#ff0000" points="3198,-189.5 3198,-209.5 3370,-209.5 3370,-189.5 3198,-189.5"/>
<text text-anchor="middle" x="3284" y="-196.5" font-family="FreeSans" font-size="10.00" fill="#000000">Acts/Surfaces/DiscSurface.hpp</text>
</a>
</g>
</g>
<!-- Node5&#45;&gt;Node20 -->
<g id="edge35" class="edge">
<title>Node5&#45;&gt;Node20</title>
<path fill="none" stroke="#191970" d="M3479.3383,-395.5872C3423.2491,-386.9446 3357.1694,-373.1289 3336,-354 3296.9296,-318.6956 3287.1836,-253.0958 3284.7745,-219.8879"/>
<polygon fill="#191970" stroke="#191970" points="3288.2515,-219.3819 3284.1923,-209.5955 3281.2627,-219.7773 3288.2515,-219.3819"/>
</g>
<!-- Node21 -->
<g id="node21" class="node">
<title>Node21</title>
<g id="a_node21"><a xlink:href="../../da/d6d/periodic_8hpp.html" target="_top" xlink:title="Acts/Utilities/detail\l/periodic.hpp">
<polygon fill="none" stroke="#000000" points="3960.5,-321.5 3960.5,-353.5 4071.5,-353.5 4071.5,-321.5 3960.5,-321.5"/>
<text text-anchor="start" x="3968.5" y="-340.5" font-family="FreeSans" font-size="10.00" fill="#000000">Acts/Utilities/detail</text>
<text text-anchor="middle" x="4016" y="-328.5" font-family="FreeSans" font-size="10.00" fill="#000000">/periodic.hpp</text>
</a>
</g>
</g>
<!-- Node5&#45;&gt;Node21 -->
<g id="edge42" class="edge">
<title>Node5&#45;&gt;Node21</title>
<path fill="none" stroke="#191970" d="M3654.6376,-393.0323C3741.344,-379.7077 3872.0948,-359.6146 3950.2586,-347.6028"/>
<polygon fill="#191970" stroke="#191970" points="3951.1077,-351.0135 3960.46,-346.0351 3950.0444,-344.0947 3951.1077,-351.0135"/>
</g>
<!-- Node22 -->
<g id="node22" class="node">
<title>Node22</title>
<polygon fill="none" stroke="#bfbfbf" points="2880.5,-327.5 2880.5,-347.5 2945.5,-347.5 2945.5,-327.5 2880.5,-327.5"/>
<text text-anchor="middle" x="2913" y="-334.5" font-family="FreeSans" font-size="10.00" fill="#000000">exception</text>
</g>
<!-- Node5&#45;&gt;Node22 -->
<g id="edge46" class="edge">
<title>Node5&#45;&gt;Node22</title>
<path fill="none" stroke="#191970" d="M3479.4773,-397.2659C3337.3276,-382.2685 3061.5263,-353.1702 2955.7334,-342.0086"/>
<polygon fill="#191970" stroke="#191970" points="2956.0536,-338.523 2945.7416,-340.9544 2955.3191,-345.4844 2956.0536,-338.523"/>
</g>
<!-- Node7&#45;&gt;Node6 -->
<g id="edge8" class="edge">
<title>Node7&#45;&gt;Node6</title>
<path fill="none" stroke="#191970" d="M3363.9229,-260.0388C3312.7327,-252.6389 3245.1431,-239.2958 3189,-216 3112.83,-184.3944 3111.6927,-141.652 3034,-114 3025.9972,-111.1517 2825.2893,-91.3245 2693.1454,-78.4965"/>
<polygon fill="#191970" stroke="#191970" points="2693.253,-74.9906 2682.9618,-77.5086 2692.5771,-81.9579 2693.253,-74.9906"/>
</g>
<!-- Node8 -->
<g id="node8" class="node">
<title>Node8</title>
<polygon fill="none" stroke="#bfbfbf" points="1201,-57.5 1201,-77.5 1259,-77.5 1259,-57.5 1201,-57.5"/>
<text text-anchor="middle" x="1230" y="-64.5" font-family="FreeSans" font-size="10.00" fill="#000000">memory</text>
</g>
<!-- Node7&#45;&gt;Node8 -->
<g id="edge7" class="edge">
<title>Node7&#45;&gt;Node8</title>
<path fill="none" stroke="#191970" d="M3363.97,-265.2437C3274.2397,-261.5909 3122.5041,-255.6952 2992,-252 2941.9268,-250.5822 1224.066,-251.7731 1189,-216 1157.2661,-183.6261 1172.9746,-156.4063 1189,-114 1193.1661,-102.9756 1201.2695,-92.8748 1209.1797,-84.9244"/>
<polygon fill="#191970" stroke="#191970" points="1211.9554,-87.121 1216.8725,-77.7362 1207.1762,-82.0063 1211.9554,-87.121"/>
</g>
<!-- Node7&#45;&gt;Node9 -->
<g id="edge9" class="edge">
<title>Node7&#45;&gt;Node9</title>
<path fill="none" stroke="#191970" d="M3474.4261,-258.4668C3513.65,-246.3303 3579.7719,-225.871 3622.8988,-212.5268"/>
<polygon fill="#191970" stroke="#191970" points="3624.0162,-215.8449 3632.5347,-209.5453 3621.947,-209.1577 3624.0162,-215.8449"/>
</g>
<!-- Node7&#45;&gt;Node13 -->
<g id="edge24" class="edge">
<title>Node7&#45;&gt;Node13</title>
<path fill="none" stroke="#191970" d="M3451.3618,-258.2569C3467.4321,-241.0939 3501.8464,-206.1373 3536,-183 3566.2801,-162.4868 3590.603,-178.007 3610,-147 3621.4321,-128.7252 3614.0728,-103.7113 3606.3759,-86.6535"/>
<polygon fill="#191970" stroke="#191970" points="3609.4978,-85.0703 3601.9447,-77.6406 3603.216,-88.1589 3609.4978,-85.0703"/>
</g>
<!-- Node9&#45;&gt;Node3 -->
<g id="edge13" class="edge">
<title>Node9&#45;&gt;Node3</title>
<path fill="none" stroke="#191970" d="M3675.389,-189.3698C3684.6633,-179.5408 3697.5909,-163.6983 3703,-147 3715.5707,-108.1931 3717.5919,-81.531 3685,-57 3647.8856,-29.065 2145.7961,-13.2605 1896.7987,-10.8303"/>
<polygon fill="#191970" stroke="#191970" points="1896.567,-7.328 1886.5335,-10.7308 1896.4991,-14.3276 1896.567,-7.328"/>
</g>
<!-- Node9&#45;&gt;Node10 -->
<g id="edge10" class="edge">
<title>Node9&#45;&gt;Node10</title>
<path fill="none" stroke="#191970" d="M3578.3291,-194.4884C3521.6196,-191.2121 3445.9081,-186.8433 3379,-183 3041.5042,-163.6139 2634.2045,-140.3762 2503.5246,-132.9244"/>
<polygon fill="#191970" stroke="#191970" points="2503.7063,-129.4291 2493.5232,-132.3541 2503.3077,-136.4178 2503.7063,-129.4291"/>
</g>
<!-- Node9&#45;&gt;Node11 -->
<g id="edge11" class="edge">
<title>Node9&#45;&gt;Node11</title>
<path fill="none" stroke="#191970" d="M3684.3393,-189.4668C3706.7972,-177.8157 3744.0397,-158.4944 3769.7398,-145.1613"/>
<polygon fill="#191970" stroke="#191970" points="3771.3726,-148.2573 3778.6373,-140.5453 3768.149,-142.0437 3771.3726,-148.2573"/>
</g>
<!-- Node12 -->
<g id="node12" class="node">
<title>Node12</title>
<polygon fill="none" stroke="#bfbfbf" points="4346,-57.5 4346,-77.5 4390,-77.5 4390,-57.5 4346,-57.5"/>
<text text-anchor="middle" x="4368" y="-64.5" font-family="FreeSans" font-size="10.00" fill="#000000">limits</text>
</g>
<!-- Node9&#45;&gt;Node12 -->
<g id="edge12" class="edge">
<title>Node9&#45;&gt;Node12</title>
<path fill="none" stroke="#191970" d="M3751.6029,-195.3944C3929.4723,-186.6085 4321.2556,-165.2945 4344,-147 4361.5727,-132.8654 4366.6311,-106.3227 4367.9075,-87.8123"/>
<polygon fill="#191970" stroke="#191970" points="4371.4075,-87.8778 4368.29,-77.752 4364.4125,-87.6118 4371.4075,-87.8778"/>
</g>
<!-- Node9&#45;&gt;Node13 -->
<g id="edge14" class="edge">
<title>Node9&#45;&gt;Node13</title>
<path fill="none" stroke="#191970" d="M3672.1683,-189.2646C3683.0004,-172.4143 3700.786,-138.2824 3686,-114 3676.8245,-98.9315 3661.0209,-88.5323 3645.1924,-81.4568"/>
<polygon fill="#191970" stroke="#191970" points="3646.5006,-78.2105 3635.9199,-77.6647 3643.8509,-84.6896 3646.5006,-78.2105"/>
</g>
<!-- Node9&#45;&gt;Node14 -->
<g id="edge15" class="edge">
<title>Node9&#45;&gt;Node14</title>
<path fill="none" stroke="#191970" d="M3623.704,-189.4668C3573.0145,-177.1514 3487.0522,-156.2662 3432.2087,-142.9416"/>
<polygon fill="#191970" stroke="#191970" points="3432.8895,-139.5052 3422.3459,-140.5453 3431.2369,-146.3073 3432.8895,-139.5052"/>
</g>
<!-- Node14&#45;&gt;Node3 -->
<g id="edge19" class="edge">
<title>Node14&#45;&gt;Node3</title>
<path fill="none" stroke="#191970" d="M3325.888,-120.4823C3233.7282,-104.1696 3042.35,-72.1674 2879,-57 2495.134,-21.3572 2027.108,-12.695 1897.0004,-10.9119"/>
<polygon fill="#191970" stroke="#191970" points="1896.8835,-7.4101 1886.838,-10.7774 1896.7908,-14.4095 1896.8835,-7.4101"/>
</g>
<!-- Node14&#45;&gt;Node8 -->
<g id="edge17" class="edge">
<title>Node14&#45;&gt;Node8</title>
<path fill="none" stroke="#191970" d="M3317.9345,-120.457C3299.618,-117.9125 3279.5518,-115.483 3261,-114 2853.0845,-81.3926 1515.9148,-69.6924 1269.291,-67.7886"/>
<polygon fill="#191970" stroke="#191970" points="1269.0481,-64.2868 1259.0216,-67.7102 1268.9946,-71.2866 1269.0481,-64.2868"/>
</g>
<!-- Node14&#45;&gt;Node13 -->
<g id="edge23" class="edge">
<title>Node14&#45;&gt;Node13</title>
<path fill="none" stroke="#191970" d="M3415.5435,-120.378C3452.5303,-109.54 3511.3341,-92.3091 3551.7012,-80.4806"/>
<polygon fill="#191970" stroke="#191970" points="3552.93,-83.7678 3561.5423,-77.5969 3550.9615,-77.0502 3552.93,-83.7678"/>
</g>
<!-- Node14&#45;&gt;Node15 -->
<g id="edge16" class="edge">
<title>Node14&#45;&gt;Node15</title>
<path fill="none" stroke="#191970" d="M3453.782,-124.2869C3609.8425,-110.9647 3971.6482,-80.0788 4084.6458,-70.4327"/>
<polygon fill="#191970" stroke="#191970" points="4085.123,-73.9048 4094.789,-69.5668 4084.5275,-66.9301 4085.123,-73.9048"/>
</g>
<!-- Node16 -->
<g id="node16" class="node">
<title>Node16</title>
<polygon fill="none" stroke="#bfbfbf" points="483.5,-.5 483.5,-20.5 528.5,-20.5 528.5,-.5 483.5,-.5"/>
<text text-anchor="middle" x="506" y="-7.5" font-family="FreeSans" font-size="10.00" fill="#000000">string</text>
</g>
<!-- Node14&#45;&gt;Node16 -->
<g id="edge18" class="edge">
<title>Node14&#45;&gt;Node16</title>
<path fill="none" stroke="#191970" d="M3327.2971,-120.4727C3313.5427,-118.124 3298.7513,-115.7884 3285,-114 3105.3604,-90.6377 3059.245,-96.1094 2879,-78 2795.7854,-69.6394 2775.4484,-62.5617 2692,-57 2246.933,-27.3371 776.7533,-12.9481 538.6925,-10.7882"/>
<polygon fill="#191970" stroke="#191970" points="538.6285,-7.2876 528.5973,-10.6973 538.5654,-14.2873 538.6285,-7.2876"/>
</g>
<!-- Node17 -->
<g id="node17" class="node">
<title>Node17</title>
<g id="a_node17"><a xlink:href="../../de/d09/BinningType_8hpp.html" target="_top" xlink:title="Acts/Utilities/BinningType.hpp">
<polygon fill="none" stroke="#000000" points="910,-57.5 910,-77.5 1078,-77.5 1078,-57.5 910,-57.5"/>
<text text-anchor="middle" x="994" y="-64.5" font-family="FreeSans" font-size="10.00" fill="#000000">Acts/Utilities/BinningType.hpp</text>
</a>
</g>
</g>
<!-- Node14&#45;&gt;Node17 -->
<g id="edge20" class="edge">
<title>Node14&#45;&gt;Node17</title>
<path fill="none" stroke="#191970" d="M3318.5599,-120.4779C3300.077,-117.9005 3279.7655,-115.4482 3261,-114 2344.0318,-43.2346 2111.1254,-110.3567 1192,-78 1158.1732,-76.8092 1121.1211,-74.9841 1088.3118,-73.1876"/>
<polygon fill="#191970" stroke="#191970" points="1088.4523,-69.6901 1078.2741,-72.6318 1088.0652,-76.6794 1088.4523,-69.6901"/>
</g>
<!-- Node17&#45;&gt;Node3 -->
<g id="edge22" class="edge">
<title>Node17&#45;&gt;Node3</title>
<path fill="none" stroke="#191970" d="M1078.1324,-60.6015C1094.0288,-59.3565 1110.5217,-58.1045 1126,-57 1395.7765,-37.7494 1721.4807,-18.6065 1827.1171,-12.5016"/>
<polygon fill="#191970" stroke="#191970" points="1827.4292,-15.9895 1837.211,-11.9192 1827.026,-9.0011 1827.4292,-15.9895"/>
</g>
<!-- Node17&#45;&gt;Node16 -->
<g id="edge21" class="edge">
<title>Node17&#45;&gt;Node16</title>
<path fill="none" stroke="#191970" d="M909.8321,-57.6689C800.4249,-44.8898 614.4656,-23.1691 539.1454,-14.3715"/>
<polygon fill="#191970" stroke="#191970" points="539.1962,-10.8537 528.8576,-13.1698 538.384,-17.8064 539.1962,-10.8537"/>
</g>
<!-- Node18&#45;&gt;Node7 -->
<g id="edge27" class="edge">
<title>Node18&#45;&gt;Node7</title>
<path fill="none" stroke="#191970" d="M3442,-327.3188C3442,-317.2289 3442,-301.4925 3442,-288.8347"/>
<polygon fill="#191970" stroke="#191970" points="3445.5001,-288.7229 3442,-278.723 3438.5001,-288.723 3445.5001,-288.7229"/>
</g>
<!-- Node18&#45;&gt;Node8 -->
<g id="edge26" class="edge">
<title>Node18&#45;&gt;Node8</title>
<path fill="none" stroke="#191970" d="M3344.7039,-333.042C3150.4701,-324.1186 2700.8274,-303.3432 2323,-285 1974.5046,-268.0808 958.9843,-432.9049 759,-147 750.5934,-134.9817 749.1517,-124.8684 759,-114 766.2408,-106.0092 1078.4746,-79.8434 1190.5067,-70.6935"/>
<polygon fill="#191970" stroke="#191970" points="1191.024,-74.1631 1200.7066,-69.8624 1190.4554,-67.1862 1191.024,-74.1631"/>
</g>
<!-- Node18&#45;&gt;Node9 -->
<g id="edge29" class="edge">
<title>Node18&#45;&gt;Node9</title>
<path fill="none" stroke="#191970" d="M3501.604,-327.4111C3533.8955,-319.7583 3573.1711,-306.7169 3603,-285 3626.9836,-267.5388 3645.4168,-237.9964 3655.7353,-218.6188"/>
<polygon fill="#191970" stroke="#191970" points="3658.9459,-220.0275 3660.378,-209.5299 3652.712,-216.8432 3658.9459,-220.0275"/>
</g>
<!-- Node18&#45;&gt;Node13 -->
<g id="edge30" class="edge">
<title>Node18&#45;&gt;Node13</title>
<path fill="none" stroke="#191970" d="M3467.582,-327.476C3486.7854,-318.7977 3512.5057,-304.5515 3529,-285 3560.3992,-247.781 3537.8349,-220.4152 3569,-183 3588.4178,-159.6881 3612.2511,-173.5135 3627,-147 3638.1614,-126.9357 3624.4463,-102.0273 3611.8847,-85.4941"/>
<polygon fill="#191970" stroke="#191970" points="3614.5719,-83.2509 3605.5588,-77.6817 3609.1317,-87.656 3614.5719,-83.2509"/>
</g>
<!-- Node18&#45;&gt;Node17 -->
<g id="edge28" class="edge">
<title>Node18&#45;&gt;Node17</title>
<path fill="none" stroke="#191970" d="M3344.795,-333.7517C3246.3161,-330.0629 3089.5881,-324.4901 2954,-321 2501.4126,-309.3501 1367.8144,-326.6836 917,-285 877.0967,-281.3104 233.9363,-178.3699 209,-147 199.8735,-135.5188 198.9404,-124.6731 209,-114 232.3521,-89.2237 696.0731,-74.8234 899.6,-69.6743"/>
<polygon fill="#191970" stroke="#191970" points="899.7728,-73.1711 909.6819,-69.4214 899.5973,-66.1733 899.7728,-73.1711"/>
</g>
<!-- Node19&#45;&gt;Node6 -->
<g id="edge33" class="edge">
<title>Node19&#45;&gt;Node6</title>
<path fill="none" stroke="#191970" d="M3894.3817,-120.4989C3872.9103,-118.0343 3849.5788,-115.6355 3828,-114 3410.8076,-82.3794 2913.5227,-72.0123 2693.4596,-68.821"/>
<polygon fill="#191970" stroke="#191970" points="2693.2404,-65.3176 2683.1914,-68.6744 2693.1404,-72.3169 2693.2404,-65.3176"/>
</g>
<!-- Node19&#45;&gt;Node13 -->
<g id="edge34" class="edge">
<title>Node19&#45;&gt;Node13</title>
<path fill="none" stroke="#191970" d="M3912.0059,-120.4478C3845.0143,-109.2231 3736.7256,-91.079 3665.9423,-79.2191"/>
<polygon fill="#191970" stroke="#191970" points="3666.2213,-75.7171 3655.7804,-77.5164 3665.0645,-82.6209 3666.2213,-75.7171"/>
</g>
<!-- Node19&#45;&gt;Node15 -->
<g id="edge32" class="edge">
<title>Node19&#45;&gt;Node15</title>
<path fill="none" stroke="#191970" d="M3995.6181,-120.378C4020.1567,-109.8614 4058.7402,-93.3256 4086.2235,-81.5471"/>
<polygon fill="#191970" stroke="#191970" points="4087.6278,-84.7532 4095.4405,-77.5969 4084.8703,-78.3192 4087.6278,-84.7532"/>
</g>
<!-- Node20&#45;&gt;Node6 -->
<g id="edge36" class="edge">
<title>Node20&#45;&gt;Node6</title>
<path fill="none" stroke="#191970" d="M3284.6911,-189.3688C3285.3202,-171.0618 3283.6799,-132.6441 3261,-114 3239.4653,-96.2973 2882.0613,-79.5283 2693.4832,-71.861"/>
<polygon fill="#191970" stroke="#191970" points="2693.3823,-68.3542 2683.249,-71.4471 2693.0994,-75.3484 2693.3823,-68.3542"/>
</g>
<!-- Node20&#45;&gt;Node13 -->
<g id="edge37" class="edge">
<title>Node20&#45;&gt;Node13</title>
<path fill="none" stroke="#191970" d="M3335.298,-189.4828C3371.8772,-181.136 3421.5421,-167.3053 3462,-147 3483.8473,-136.0351 3485.2919,-126.9886 3506,-114 3524.8567,-102.1727 3547.0659,-90.6745 3564.7039,-82.0708"/>
<polygon fill="#191970" stroke="#191970" points="3566.4895,-85.0957 3573.9822,-77.605 3563.4536,-78.7883 3566.4895,-85.0957"/>
</g>
<!-- Node20&#45;&gt;Node14 -->
<g id="edge38" class="edge">
<title>Node20&#45;&gt;Node14</title>
<path fill="none" stroke="#191970" d="M3298.3127,-189.3188C3314.1448,-178.0568 3339.8659,-159.7603 3358.4202,-146.5619"/>
<polygon fill="#191970" stroke="#191970" points="3360.5087,-149.3715 3366.6286,-140.723 3356.4511,-143.6674 3360.5087,-149.3715"/>
</g>
<!-- Node21&#45;&gt;Node15 -->
<g id="edge43" class="edge">
<title>Node21&#45;&gt;Node15</title>
<path fill="none" stroke="#191970" d="M4042.7996,-321.4706C4079.4792,-299.1831 4146.931,-256.9417 4201,-216 4218.8328,-202.4968 4221.3335,-196.7201 4239,-183 4261.2005,-165.7588 4277.9544,-171.8985 4291,-147 4319.9615,-91.7251 4211.5633,-74.7157 4153.4679,-69.6127"/>
<polygon fill="#191970" stroke="#191970" points="4153.4983,-66.104 4143.2501,-68.7919 4152.9377,-73.0815 4153.4983,-66.104"/>
</g>
<!-- Node23&#45;&gt;Node6 -->
<g id="edge50" class="edge">
<title>Node23&#45;&gt;Node6</title>
<path fill="none" stroke="#191970" d="M2727.9225,-189.3616C2712.7,-172.6508 2680.6711,-138.7148 2650,-114 2635.7883,-102.5482 2618.7071,-91.292 2604.8605,-82.7232"/>
<polygon fill="#191970" stroke="#191970" points="2606.6526,-79.7166 2596.2911,-77.5053 2603.0121,-85.6955 2606.6526,-79.7166"/>
</g>
<!-- Node23&#45;&gt;Node13 -->
<g id="edge51" class="edge">
<title>Node23&#45;&gt;Node13</title>
<path fill="none" stroke="#191970" d="M2745.8352,-189.2196C2762.8106,-170.3044 2802.1212,-130.4213 2845,-114 2905.2307,-90.9335 3319.4787,-75.7825 3505.6847,-70.0619"/>
<polygon fill="#191970" stroke="#191970" points="3505.8387,-73.5589 3515.7274,-69.7557 3505.6254,-66.5622 3505.8387,-73.5589"/>
</g>
<!-- Node24&#45;&gt;Node16 -->
<g id="edge56" class="edge">
<title>Node24&#45;&gt;Node16</title>
<path fill="none" stroke="#191970" d="M2655.3836,-405.2717C2277.4982,-399.3369 742.1504,-370.3358 269,-285 145.5426,-262.7336 0,-324.9493 0,-199.5 0,-199.5 0,-199.5 0,-130.5 0,-32.8701 361.1411,-14.5531 473.2263,-11.2192"/>
<polygon fill="#191970" stroke="#191970" points="473.3759,-14.7165 483.2752,-10.9412 473.1822,-7.7192 473.3759,-14.7165"/>
</g>
<!-- Node24&#45;&gt;Node22 -->
<g id="edge55" class="edge">
<title>Node24&#45;&gt;Node22</title>
<path fill="none" stroke="#191970" d="M2765.1557,-396.4668C2795.0085,-384.5602 2844.945,-364.6433 2878.4178,-351.2929"/>
<polygon fill="#191970" stroke="#191970" points="2879.8221,-354.501 2887.814,-347.5453 2877.2288,-347.999 2879.8221,-354.501"/>
</g>
<!-- Node25&#45;&gt;Node6 -->
<g id="edge63" class="edge">
<title>Node25&#45;&gt;Node6</title>
<path fill="none" stroke="#191970" d="M1373.6274,-197.8217C1591.6459,-193.1893 2146.5448,-178.4318 2224,-147 2244.7268,-138.5889 2241.6713,-123.3323 2262,-114 2297.4378,-97.7316 2389.1426,-85.3352 2464.8527,-77.4493"/>
<polygon fill="#191970" stroke="#191970" points="2465.3562,-80.9161 2474.9471,-76.4144 2464.6423,-73.9526 2465.3562,-80.9161"/>
</g>
<!-- Node25&#45;&gt;Node11 -->
<g id="edge60" class="edge">
<title>Node25&#45;&gt;Node11</title>
<path fill="none" stroke="#191970" d="M1373.5071,-197.2091C1497.7023,-193.9704 1732.2228,-187.9016 1932,-183 2611.9836,-166.3162 2782.2598,-171.683 3462,-147 3573.8137,-142.9398 3706.4436,-135.7161 3766.1165,-132.3375"/>
<polygon fill="#191970" stroke="#191970" points="3766.6032,-135.8156 3776.3882,-131.753 3766.2055,-128.8269 3766.6032,-135.8156"/>
</g>
<!-- Node25&#45;&gt;Node12 -->
<g id="edge61" class="edge">
<title>Node25&#45;&gt;Node12</title>
<path fill="none" stroke="#191970" d="M1373.502,-196.9831C1497.6911,-193.4752 1732.2045,-187.0877 1932,-183 2062.0437,-180.3394 4151.0889,-192.3445 4273,-147 4306.5371,-134.526 4336.6088,-104.6859 4353.5538,-85.3217"/>
<polygon fill="#191970" stroke="#191970" points="4356.3851,-87.3944 4360.1827,-77.5035 4351.046,-82.8674 4356.3851,-87.3944"/>
</g>
<!-- Node25&#45;&gt;Node16 -->
<g id="edge62" class="edge">
<title>Node25&#45;&gt;Node16</title>
<path fill="none" stroke="#191970" d="M1198.2994,-196.9213C995.7928,-190.5406 511.0225,-172.6527 487,-147 457.0253,-114.9911 479.7098,-58.849 495.0159,-29.5365"/>
<polygon fill="#191970" stroke="#191970" points="498.121,-31.1529 499.837,-20.698 491.9757,-27.8009 498.121,-31.1529"/>
</g>
<!-- Node25&#45;&gt;Node17 -->
<g id="edge82" class="edge">
<title>Node25&#45;&gt;Node17</title>
<path fill="none" stroke="#191970" d="M1198.2662,-191.4472C1105.6062,-182.036 970.7033,-165.3903 955,-147 939.071,-128.3453 958.15,-102.0602 974.7849,-84.9037"/>
<polygon fill="#191970" stroke="#191970" points="977.4226,-87.2195 982.1214,-77.7236 972.5265,-82.2167 977.4226,-87.2195"/>
</g>
<!-- Node26 -->
<g id="node26" class="node">
<title>Node26</title>
<g id="a_node26"><a xlink:href="../../dc/ddb/IConfinedTrackingVolumeBuilder_8hpp.html" target="_top" xlink:title="Acts/Geometry/IConfinedTracking\lVolumeBuilder.hpp">
<polygon fill="none" stroke="#000000" points="1198,-114.5 1198,-146.5 1384,-146.5 1384,-114.5 1198,-114.5"/>
<text text-anchor="start" x="1206" y="-133.5" font-family="FreeSans" font-size="10.00" fill="#000000">Acts/Geometry/IConfinedTracking</text>
<text text-anchor="middle" x="1291" y="-121.5" font-family="FreeSans" font-size="10.00" fill="#000000">VolumeBuilder.hpp</text>
</a>
</g>
</g>
<!-- Node25&#45;&gt;Node26 -->
<g id="edge64" class="edge">
<title>Node25&#45;&gt;Node26</title>
<path fill="none" stroke="#191970" d="M1287.1597,-183.4966C1287.732,-175.599 1288.4373,-165.8656 1289.0866,-156.9044"/>
<polygon fill="#191970" stroke="#191970" points="1292.5799,-157.1226 1289.8119,-146.8958 1285.5982,-156.6166 1292.5799,-157.1226"/>
</g>
<!-- Node27 -->
<g id="node27" class="node">
<title>Node27</title>
<g id="a_node27"><a xlink:href="../../de/d2e/ILayerBuilder_8hpp.html" target="_top" xlink:title="Acts/Geometry/ILayerBuilder.hpp">
<polygon fill="none" stroke="#000000" points="1770,-120.5 1770,-140.5 1954,-140.5 1954,-120.5 1770,-120.5"/>
<text text-anchor="middle" x="1862" y="-127.5" font-family="FreeSans" font-size="10.00" fill="#000000">Acts/Geometry/ILayerBuilder.hpp</text>
</a>
</g>
</g>
<!-- Node25&#45;&gt;Node27 -->
<g id="edge67" class="edge">
<title>Node25&#45;&gt;Node27</title>
<path fill="none" stroke="#191970" d="M1373.5801,-184.9602C1378.4538,-184.2673 1383.2854,-183.6082 1388,-183 1553.1793,-161.6911 1595.8374,-168.4378 1761,-147 1771.8593,-145.5905 1783.344,-143.9033 1794.5234,-142.1538"/>
<polygon fill="#191970" stroke="#191970" points="1795.3531,-145.5658 1804.6778,-140.5358 1794.2516,-138.653 1795.3531,-145.5658"/>
</g>
<!-- Node28 -->
<g id="node28" class="node">
<title>Node28</title>
<g id="a_node28"><a xlink:href="../../dd/dc9/ITrackingVolumeBuilder_8hpp.html" target="_top" xlink:title="Acts/Geometry/ITrackingVolume\lBuilder.hpp">
<polygon fill="none" stroke="#ff0000" points="1574,-114.5 1574,-146.5 1752,-146.5 1752,-114.5 1574,-114.5"/>
<text text-anchor="start" x="1582" y="-133.5" font-family="FreeSans" font-size="10.00" fill="#000000">Acts/Geometry/ITrackingVolume</text>
<text text-anchor="middle" x="1663" y="-121.5" font-family="FreeSans" font-size="10.00" fill="#000000">Builder.hpp</text>
</a>
</g>
</g>
<!-- Node25&#45;&gt;Node28 -->
<g id="edge72" class="edge">
<title>Node25&#45;&gt;Node28</title>
<path fill="none" stroke="#191970" d="M1373.439,-183.4966C1430.8079,-172.9967 1505.9079,-159.2516 1565.2489,-148.3908"/>
<polygon fill="#191970" stroke="#191970" points="1566.1765,-151.7792 1575.383,-146.536 1564.9163,-144.8936 1566.1765,-151.7792"/>
</g>
<!-- Node29 -->
<g id="node29" class="node">
<title>Node29</title>
<g id="a_node29"><a xlink:href="../../d5/dd6/ITrackingVolumeHelper_8hpp.html" target="_top" xlink:title="Acts/Geometry/ITrackingVolume\lHelper.hpp">
<polygon fill="none" stroke="#000000" points="496,-114.5 496,-146.5 674,-146.5 674,-114.5 496,-114.5"/>
<text text-anchor="start" x="504" y="-133.5" font-family="FreeSans" font-size="10.00" fill="#000000">Acts/Geometry/ITrackingVolume</text>
<text text-anchor="middle" x="585" y="-121.5" font-family="FreeSans" font-size="10.00" fill="#000000">Helper.hpp</text>
</a>
</g>
</g>
<!-- Node25&#45;&gt;Node29 -->
<g id="edge76" class="edge">
<title>Node25&#45;&gt;Node29</title>
<path fill="none" stroke="#191970" d="M1198.2817,-190.8658C1067.3745,-177.9805 821.6289,-153.7916 684.298,-140.274"/>
<polygon fill="#191970" stroke="#191970" points="684.4899,-136.776 674.1951,-139.2795 683.8041,-143.7424 684.4899,-136.776"/>
</g>
<!-- Node30 -->
<g id="node30" class="node">
<title>Node30</title>
<g id="a_node30"><a xlink:href="../../d9/d11/Logger_8hpp.html" target="_top" xlink:title="Acts/Utilities/Logger.hpp">
<polygon fill="none" stroke="#ff0000" points="768,-120.5 768,-140.5 908,-140.5 908,-120.5 768,-120.5"/>
<text text-anchor="middle" x="838" y="-127.5" font-family="FreeSans" font-size="10.00" fill="#000000">Acts/Utilities/Logger.hpp</text>
</a>
</g>
</g>
<!-- Node25&#45;&gt;Node30 -->
<g id="edge83" class="edge">
<title>Node25&#45;&gt;Node30</title>
<path fill="none" stroke="#191970" d="M1198.2815,-188.1179C1124.4317,-178.2314 1016.0998,-163.0174 922,-147 913.7861,-145.6019 905.1413,-144.0248 896.6483,-142.4142"/>
<polygon fill="#191970" stroke="#191970" points="897.2638,-138.9685 886.7828,-140.5168 895.9417,-145.8425 897.2638,-138.9685"/>
</g>
<!-- Node25&#45;&gt;Node31 -->
<g id="edge87" class="edge">
<title>Node25&#45;&gt;Node31</title>
<path fill="none" stroke="#191970" d="M1373.7447,-197.2678C1704.8424,-188.7892 2868.0285,-158.4831 3034,-147 3058.6766,-145.2927 3085.5289,-142.642 3109.7031,-139.961"/>
<polygon fill="#191970" stroke="#191970" points="3110.3405,-143.4114 3119.8853,-138.8128 3109.5561,-136.4554 3110.3405,-143.4114"/>
</g>
<!-- Node26&#45;&gt;Node3 -->
<g id="edge66" class="edge">
<title>Node26&#45;&gt;Node3</title>
<path fill="none" stroke="#191970" d="M1367.4151,-114.4408C1492.8192,-88.0862 1737.3604,-36.694 1827.5321,-17.7437"/>
<polygon fill="#191970" stroke="#191970" points="1828.4335,-21.1308 1837.4999,-15.6489 1826.9938,-14.2804 1828.4335,-21.1308"/>
</g>
<!-- Node26&#45;&gt;Node8 -->
<g id="edge65" class="edge">
<title>Node26&#45;&gt;Node8</title>
<path fill="none" stroke="#191970" d="M1275.291,-114.2759C1266.6633,-105.3654 1255.9522,-94.3031 1247.1127,-85.1737"/>
<polygon fill="#191970" stroke="#191970" points="1249.3965,-82.5008 1239.9258,-77.7513 1244.3675,-87.3701 1249.3965,-82.5008"/>
</g>
<!-- Node27&#45;&gt;Node3 -->
<g id="edge70" class="edge">
<title>Node27&#45;&gt;Node3</title>
<path fill="none" stroke="#191970" d="M1862,-120.2689C1862,-100.52 1862,-56.8129 1862,-30.9032"/>
<polygon fill="#191970" stroke="#191970" points="1865.5001,-30.7052 1862,-20.7052 1858.5001,-30.7053 1865.5001,-30.7052"/>
</g>
<!-- Node27&#45;&gt;Node6 -->
<g id="edge71" class="edge">
<title>Node27&#45;&gt;Node6</title>
<path fill="none" stroke="#191970" d="M1917.9721,-120.47C1932.5921,-118.0935 1948.3569,-115.7455 1963,-114 2137.4076,-93.2107 2340.7686,-79.9901 2464.6611,-73.1625"/>
<polygon fill="#191970" stroke="#191970" points="2465.125,-76.6425 2474.919,-72.6018 2464.7429,-69.6529 2465.125,-76.6425"/>
</g>
<!-- Node27&#45;&gt;Node8 -->
<g id="edge68" class="edge">
<title>Node27&#45;&gt;Node8</title>
<path fill="none" stroke="#191970" d="M1805.2195,-120.4614C1790.8241,-118.1265 1775.3679,-115.8002 1761,-114 1577.6906,-91.0329 1357.365,-75.6086 1269.2304,-69.9298"/>
<polygon fill="#191970" stroke="#191970" points="1269.3517,-66.4305 1259.1489,-69.2857 1268.9054,-73.4163 1269.3517,-66.4305"/>
</g>
<!-- Node27&#45;&gt;Node16 -->
<g id="edge69" class="edge">
<title>Node27&#45;&gt;Node16</title>
<path fill="none" stroke="#191970" d="M1803.589,-120.4804C1789.6525,-118.222 1774.8136,-115.9258 1761,-114 1542.5421,-83.5438 1487.7167,-76.3913 1268,-57 986.2326,-32.1324 644.6705,-16.4097 538.8438,-11.8674"/>
<polygon fill="#191970" stroke="#191970" points="538.9264,-8.3679 528.7865,-11.4391 538.6285,-15.3615 538.9264,-8.3679"/>
</g>
<!-- Node28&#45;&gt;Node3 -->
<g id="edge74" class="edge">
<title>Node28&#45;&gt;Node3</title>
<path fill="none" stroke="#191970" d="M1689.838,-114.3163C1728.2744,-91.1386 1798.5186,-48.7803 1836.3098,-25.9916"/>
<polygon fill="#191970" stroke="#191970" points="1838.4233,-28.8042 1845.1795,-20.643 1834.8085,-22.8098 1838.4233,-28.8042"/>
</g>
<!-- Node28&#45;&gt;Node6 -->
<g id="edge75" class="edge">
<title>Node28&#45;&gt;Node6</title>
<path fill="none" stroke="#191970" d="M1752.1394,-115.0642C1755.1254,-114.6837 1758.0852,-114.3272 1761,-114 2011.0103,-85.9334 2306.0137,-74.4529 2464.5044,-70.0371"/>
<polygon fill="#191970" stroke="#191970" points="2464.8442,-73.5292 2474.7445,-69.7564 2464.6523,-66.5319 2464.8442,-73.5292"/>
</g>
<!-- Node28&#45;&gt;Node8 -->
<g id="edge73" class="edge">
<title>Node28&#45;&gt;Node8</title>
<path fill="none" stroke="#191970" d="M1573.8196,-115.3726C1570.8453,-114.904 1567.8991,-114.4452 1565,-114 1458.2911,-97.6144 1332.0578,-80.7793 1269.3897,-72.5927"/>
<polygon fill="#191970" stroke="#191970" points="1269.5362,-69.0822 1259.1677,-71.2604 1268.6315,-76.0235 1269.5362,-69.0822"/>
</g>
<!-- Node29&#45;&gt;Node3 -->
<g id="edge79" class="edge">
<title>Node29&#45;&gt;Node3</title>
<path fill="none" stroke="#191970" d="M640.0877,-114.4975C702.7002,-97.0586 808.2547,-69.9224 901,-57 1085.3802,-31.31 1677.2387,-15.1039 1827.2054,-11.3426"/>
<polygon fill="#191970" stroke="#191970" points="1827.3178,-14.841 1837.2277,-11.0934 1827.1437,-7.8432 1827.3178,-14.841"/>
</g>
<!-- Node29&#45;&gt;Node8 -->
<g id="edge77" class="edge">
<title>Node29&#45;&gt;Node8</title>
<path fill="none" stroke="#191970" d="M674.2683,-115.7896C678.908,-115.1534 683.5063,-114.5519 688,-114 785.6348,-102.0079 1083.2573,-78.7425 1190.7496,-70.491"/>
<polygon fill="#191970" stroke="#191970" points="1191.1378,-73.9716 1200.8411,-69.7176 1190.6028,-66.9921 1191.1378,-73.9716"/>
</g>
<!-- Node29&#45;&gt;Node13 -->
<g id="edge81" class="edge">
<title>Node29&#45;&gt;Node13</title>
<path fill="none" stroke="#191970" d="M674.312,-120.6803C701.4737,-118.0582 731.4296,-115.5308 759,-114 1038.1441,-98.5008 3053.2194,-73.9231 3505.8874,-68.557"/>
<polygon fill="#191970" stroke="#191970" points="3506.0117,-72.0559 3515.9696,-68.4376 3505.9288,-65.0564 3506.0117,-72.0559"/>
</g>
<!-- Node29&#45;&gt;Node16 -->
<g id="edge78" class="edge">
<title>Node29&#45;&gt;Node16</title>
<path fill="none" stroke="#191970" d="M560.6029,-114.3694C548.2952,-105.0776 534.0891,-92.3956 525,-78 515.9739,-63.7042 511.1493,-45.0545 508.6241,-30.9818"/>
<polygon fill="#191970" stroke="#191970" points="512.044,-30.1946 507.0555,-20.8477 505.1264,-31.2654 512.044,-30.1946"/>
</g>
<!-- Node29&#45;&gt;Node17 -->
<g id="edge80" class="edge">
<title>Node29&#45;&gt;Node17</title>
<path fill="none" stroke="#191970" d="M674.0405,-116.1905C678.7614,-115.4461 683.4372,-114.7121 688,-114 765.9531,-101.8335 855.1459,-88.3268 917.043,-79.0195"/>
<polygon fill="#191970" stroke="#191970" points="917.7512,-82.4524 927.12,-77.505 916.7109,-75.5302 917.7512,-82.4524"/>
</g>
<!-- Node30&#45;&gt;Node2 -->
<g id="edge84" class="edge">
<title>Node30&#45;&gt;Node2</title>
<path fill="none" stroke="#191970" d="M794.7596,-120.4478C744.1508,-108.6827 660.8417,-89.3156 610.2351,-77.551"/>
<polygon fill="#191970" stroke="#191970" points="610.7956,-74.088 600.2628,-75.2327 609.2105,-80.9062 610.7956,-74.088"/>
</g>
<!-- Node30&#45;&gt;Node8 -->
<g id="edge85" class="edge">
<title>Node30&#45;&gt;Node8</title>
<path fill="none" stroke="#191970" d="M900.547,-120.4478C982.1711,-107.3296 1122.6008,-84.7606 1190.6949,-73.8169"/>
<polygon fill="#191970" stroke="#191970" points="1191.2742,-77.2688 1200.5921,-72.2263 1190.1634,-70.3575 1191.2742,-77.2688"/>
</g>
<!-- Node30&#45;&gt;Node16 -->
<g id="edge86" class="edge">
<title>Node30&#45;&gt;Node16</title>
<path fill="none" stroke="#191970" d="M810.2649,-120.4753C749.1693,-98.3925 603.2535,-45.6519 538.2256,-22.1478"/>
<polygon fill="#191970" stroke="#191970" points="539.1032,-18.7434 528.5089,-18.6357 536.7237,-25.3266 539.1032,-18.7434"/>
</g>
<!-- Node32&#45;&gt;Node3 -->
<g id="edge91" class="edge">
<title>Node32&#45;&gt;Node3</title>
<path fill="none" stroke="#191970" d="M550.1067,-183.3768C508.7576,-168.2552 462.561,-143.5754 487,-114 508.4044,-88.0971 750.625,-60.9012 784,-57 992.9358,-32.5777 1664.9658,-15.2177 1826.7324,-11.3253"/>
<polygon fill="#191970" stroke="#191970" points="1827.1497,-14.8164 1837.0632,-11.0784 1826.9824,-7.8184 1827.1497,-14.8164"/>
</g>
<!-- Node32&#45;&gt;Node6 -->
<g id="edge93" class="edge">
<title>Node32&#45;&gt;Node6</title>
<path fill="none" stroke="#191970" d="M691.5946,-197.0212C1021.6834,-187.628 2172.6273,-154.3816 2190,-147 2209.3814,-138.7649 2205.0413,-123.1665 2224,-114 2265.4233,-93.9719 2377.6589,-81.5573 2464.9524,-74.6484"/>
<polygon fill="#191970" stroke="#191970" points="2465.2294,-78.1375 2474.9285,-73.874 2464.6876,-71.1585 2465.2294,-78.1375"/>
</g>
<!-- Node32&#45;&gt;Node8 -->
<g id="edge89" class="edge">
<title>Node32&#45;&gt;Node8</title>
<path fill="none" stroke="#191970" d="M629.2017,-183.3768C644.8645,-173.2031 665.3155,-159.64 683,-147 702.5988,-132.9918 703.5686,-122.7852 726,-114 747.5715,-105.5516 1075.7095,-79.4604 1190.618,-70.5326"/>
<polygon fill="#191970" stroke="#191970" points="1191.0411,-74.0103 1200.7406,-69.7476 1190.4999,-67.0313 1191.0411,-74.0103"/>
</g>
<!-- Node32&#45;&gt;Node16 -->
<g id="edge90" class="edge">
<title>Node32&#45;&gt;Node16</title>
<path fill="none" stroke="#191970" d="M516.3798,-193.8962C406.203,-185.9409 228.9417,-169.7675 209,-147 130.4147,-57.2787 381.0622,-22.8728 473.3074,-13.4306"/>
<polygon fill="#191970" stroke="#191970" points="473.8819,-16.8909 483.4892,-12.4245 473.1935,-9.9249 473.8819,-16.8909"/>
</g>
<!-- Node32&#45;&gt;Node29 -->
<g id="edge104" class="edge">
<title>Node32&#45;&gt;Node29</title>
<path fill="none" stroke="#191970" d="M599.5933,-183.4966C597.3949,-175.5132 594.68,-165.6538 592.1904,-156.6125"/>
<polygon fill="#191970" stroke="#191970" points="595.5441,-155.6077 589.5148,-146.8958 588.7953,-157.4662 595.5441,-155.6077"/>
</g>
<!-- Node32&#45;&gt;Node30 -->
<g id="edge105" class="edge">
<title>Node32&#45;&gt;Node30</title>
<path fill="none" stroke="#191970" d="M658.2725,-183.4966C699.5433,-171.327 755.5983,-154.7979 794.0729,-143.4529"/>
<polygon fill="#191970" stroke="#191970" points="795.3413,-146.7279 803.9431,-140.5424 793.3615,-140.0137 795.3413,-146.7279"/>
</g>
<!-- Node33 -->
<g id="node33" class="node">
<title>Node33</title>
<g id="a_node33"><a xlink:href="../../de/d2c/BoundarySurfaceFace_8hpp.html" target="_top" xlink:title="Acts/Geometry/BoundarySurface\lFace.hpp">
<polygon fill="none" stroke="#ff0000" points="218.5,-114.5 218.5,-146.5 401.5,-146.5 401.5,-114.5 218.5,-114.5"/>
<text text-anchor="start" x="226.5" y="-133.5" font-family="FreeSans" font-size="10.00" fill="#000000">Acts/Geometry/BoundarySurface</text>
<text text-anchor="middle" x="310" y="-121.5" font-family="FreeSans" font-size="10.00" fill="#000000">Face.hpp</text>
</a>
</g>
</g>
<!-- Node32&#45;&gt;Node33 -->
<g id="edge92" class="edge">
<title>Node32&#45;&gt;Node33</title>
<path fill="none" stroke="#191970" d="M535.8115,-183.4966C491.72,-173.1486 434.198,-159.6485 388.2458,-148.8638"/>
<polygon fill="#191970" stroke="#191970" points="388.8625,-145.4135 378.3273,-146.536 387.2631,-152.2283 388.8625,-145.4135"/>
</g>
<!-- Node34 -->
<g id="node34" class="node">
<title>Node34</title>
<g id="a_node34"><a xlink:href="../../dd/de4/ILayerArrayCreator_8hpp.html" target="_top" xlink:title="Acts/Geometry/ILayerArray\lCreator.hpp">
<polygon fill="none" stroke="#ff0000" points="1402,-114.5 1402,-146.5 1556,-146.5 1556,-114.5 1402,-114.5"/>
<text text-anchor="start" x="1410" y="-133.5" font-family="FreeSans" font-size="10.00" fill="#000000">Acts/Geometry/ILayerArray</text>
<text text-anchor="middle" x="1479" y="-121.5" font-family="FreeSans" font-size="10.00" fill="#000000">Creator.hpp</text>
</a>
</g>
</g>
<!-- Node32&#45;&gt;Node34 -->
<g id="edge94" class="edge">
<title>Node32&#45;&gt;Node34</title>
<path fill="none" stroke="#191970" d="M691.6141,-197.1912C835.7344,-192.6159 1131.9316,-179.9439 1391.7143,-147.0709"/>
<polygon fill="#191970" stroke="#191970" points="1392.2415,-150.5321 1401.7172,-145.7928 1391.3542,-143.5885 1392.2415,-150.5321"/>
</g>
<!-- Node35 -->
<g id="node35" class="node">
<title>Node35</title>
<g id="a_node35"><a xlink:href="../../d9/db6/ITrackingVolumeArrayCreator_8hpp.html" target="_top" xlink:title="Acts/Geometry/ITrackingVolume\lArrayCreator.hpp">
<polygon fill="none" stroke="#ff0000" points="964,-114.5 964,-146.5 1142,-146.5 1142,-114.5 964,-114.5"/>
<text text-anchor="start" x="972" y="-133.5" font-family="FreeSans" font-size="10.00" fill="#000000">Acts/Geometry/ITrackingVolume</text>
<text text-anchor="middle" x="1053" y="-121.5" font-family="FreeSans" font-size="10.00" fill="#000000">ArrayCreator.hpp</text>
</a>
</g>
</g>
<!-- Node32&#45;&gt;Node35 -->
<g id="edge99" class="edge">
<title>Node32&#45;&gt;Node35</title>
<path fill="none" stroke="#191970" d="M691.6376,-186.0323C766.8957,-174.467 875.3352,-157.8026 953.7696,-145.7492"/>
<polygon fill="#191970" stroke="#191970" points="954.3116,-149.2071 963.6639,-144.2287 953.2483,-142.2883 954.3116,-149.2071"/>
</g>
<!-- Node34&#45;&gt;Node3 -->
<g id="edge96" class="edge">
<title>Node34&#45;&gt;Node3</title>
<path fill="none" stroke="#191970" d="M1530.2557,-114.4408C1609.5538,-89.5954 1759.8731,-42.498 1827.5053,-21.3077"/>
<polygon fill="#191970" stroke="#191970" points="1828.7503,-24.5855 1837.2464,-18.2557 1826.6574,-17.9057 1828.7503,-24.5855"/>
</g>
<!-- Node34&#45;&gt;Node6 -->
<g id="edge97" class="edge">
<title>Node34&#45;&gt;Node6</title>
<path fill="none" stroke="#191970" d="M1556.2735,-115.1313C1559.215,-114.7189 1562.1314,-114.3392 1565,-114 1736.0659,-93.7735 2237.1929,-77.3218 2464.5163,-70.6751"/>
<polygon fill="#191970" stroke="#191970" points="2464.9077,-74.1653 2474.8015,-70.3756 2464.7038,-67.1682 2464.9077,-74.1653"/>
</g>
<!-- Node34&#45;&gt;Node8 -->
<g id="edge95" class="edge">
<title>Node34&#45;&gt;Node8</title>
<path fill="none" stroke="#191970" d="M1415.5225,-114.4394C1369.263,-102.7352 1308.0708,-87.2529 1268.8624,-77.3326"/>
<polygon fill="#191970" stroke="#191970" points="1269.7003,-73.9344 1259.1473,-74.8746 1267.9833,-80.7206 1269.7003,-73.9344"/>
</g>
<!-- Node34&#45;&gt;Node17 -->
<g id="edge98" class="edge">
<title>Node34&#45;&gt;Node17</title>
<path fill="none" stroke="#191970" d="M1401.6914,-115.3895C1398.7597,-114.9049 1395.8549,-114.4396 1393,-114 1289.2228,-98.0196 1169.5024,-84.7522 1088.488,-76.5341"/>
<polygon fill="#191970" stroke="#191970" points="1088.6105,-73.0288 1078.3098,-75.5075 1087.908,-79.9934 1088.6105,-73.0288"/>
</g>
<!-- Node35&#45;&gt;Node3 -->
<g id="edge101" class="edge">
<title>Node35&#45;&gt;Node3</title>
<path fill="none" stroke="#191970" d="M1076.3023,-114.2431C1102.9146,-96.6439 1148.4233,-69.4292 1192,-57 1313.2233,-22.424 1707.6428,-13.0828 1827.2818,-11.0147"/>
<polygon fill="#191970" stroke="#191970" points="1827.4081,-14.5132 1837.3483,-10.8469 1827.2913,-7.5142 1827.4081,-14.5132"/>
</g>
<!-- Node35&#45;&gt;Node6 -->
<g id="edge102" class="edge">
<title>Node35&#45;&gt;Node6</title>
<path fill="none" stroke="#191970" d="M1142.1393,-118.5563C1157.7349,-116.7896 1173.8233,-115.1723 1189,-114 1435.6418,-94.9493 2177.9689,-76.6048 2464.4639,-70.041"/>
<polygon fill="#191970" stroke="#191970" points="2464.9573,-73.5307 2474.8747,-69.803 2464.7973,-66.5325 2464.9573,-73.5307"/>
</g>
<!-- Node35&#45;&gt;Node8 -->
<g id="edge100" class="edge">
<title>Node35&#45;&gt;Node8</title>
<path fill="none" stroke="#191970" d="M1098.1225,-114.4394C1127.2219,-104.082 1164.6338,-90.7659 1192.1729,-80.9639"/>
<polygon fill="#191970" stroke="#191970" points="1193.5911,-84.1743 1201.8384,-77.5236 1191.2438,-77.5796 1193.5911,-84.1743"/>
</g>
<!-- Node35&#45;&gt;Node17 -->
<g id="edge103" class="edge">
<title>Node35&#45;&gt;Node17</title>
<path fill="none" stroke="#191970" d="M1037.806,-114.2759C1029.4612,-105.3654 1019.1013,-94.3031 1010.5516,-85.1737"/>
<polygon fill="#191970" stroke="#191970" points="1012.9906,-82.6578 1003.6004,-77.7513 1007.8813,-87.4427 1012.9906,-82.6578"/>
</g>
<!-- Node36&#45;&gt;Node6 -->
<g id="edge109" class="edge">
<title>Node36&#45;&gt;Node6</title>
<path fill="none" stroke="#191970" d="M2321.5737,-183.2554C2333.9418,-163.7415 2357.3269,-131.4576 2386,-114 2413.4935,-97.2607 2446.6132,-86.5462 2477.595,-79.6884"/>
<polygon fill="#191970" stroke="#191970" points="2478.5015,-83.0745 2487.5691,-77.5947 2477.0634,-76.2238 2478.5015,-83.0745"/>
</g>
<!-- Node36&#45;&gt;Node10 -->
<g id="edge108" class="edge">
<title>Node36&#45;&gt;Node10</title>
<path fill="none" stroke="#191970" d="M2346.5581,-183.4966C2371.7551,-171.8282 2405.6064,-156.1521 2429.9468,-144.8803"/>
<polygon fill="#191970" stroke="#191970" points="2431.4911,-148.0223 2439.0946,-140.6441 2428.5496,-141.6703 2431.4911,-148.0223"/>
</g>
<!-- Node36&#45;&gt;Node13 -->
<g id="edge111" class="edge">
<title>Node36&#45;&gt;Node13</title>
<path fill="none" stroke="#191970" d="M2334.438,-183.4194C2348.3569,-173.2618 2366.4828,-159.7005 2382,-147 2399.0515,-133.0437 2398.5691,-122.2529 2419,-114 2469.1071,-93.7595 3239.1204,-75.2375 3505.8617,-69.3988"/>
<polygon fill="#191970" stroke="#191970" points="3505.9779,-72.8972 3515.8992,-69.1799 3505.8252,-65.8989 3505.9779,-72.8972"/>
</g>
<!-- Node36&#45;&gt;Node30 -->
<g id="edge112" class="edge">
<title>Node36&#45;&gt;Node30</title>
<path fill="none" stroke="#191970" d="M2236.057,-191.7643C2202.3763,-188.5915 2162.2442,-185.1629 2126,-183 1606.2344,-151.9823 1473.792,-191.422 955,-147 940.3863,-145.7487 924.809,-143.9092 909.9462,-141.9078"/>
<polygon fill="#191970" stroke="#191970" points="910.177,-138.4064 899.7914,-140.5015 909.2167,-145.3403 910.177,-138.4064"/>
</g>
<!-- Node36&#45;&gt;Node34 -->
<g id="edge110" class="edge">
<title>Node36&#45;&gt;Node34</title>
<path fill="none" stroke="#191970" d="M2236.4688,-192.3787C2202.6884,-189.3023 2162.3647,-185.7793 2126,-183 1880.1647,-164.2111 1814.5604,-178.2205 1566.3293,-147.0741"/>
<polygon fill="#191970" stroke="#191970" points="1566.6423,-143.5859 1556.2817,-145.8014 1565.7626,-150.5304 1566.6423,-143.5859"/>
</g>
<!-- Node37&#45;&gt;Node6 -->
<g id="edge114" class="edge">
<title>Node37&#45;&gt;Node6</title>
<path fill="none" stroke="#191970" d="M2885.397,-258.2443C2873.6874,-240.7494 2847.701,-204.9081 2818,-183 2785.9691,-159.3733 2771.2836,-165.4192 2736,-147 2711.0663,-133.9838 2706.8658,-127.1454 2682,-114 2659.4919,-102.101 2633.3371,-90.3172 2613.0159,-81.5892"/>
<polygon fill="#191970" stroke="#191970" points="2614.1224,-78.2564 2603.5502,-77.5629 2611.3824,-84.6979 2614.1224,-78.2564"/>
</g>
<!-- Node37&#45;&gt;Node13 -->
<g id="edge123" class="edge">
<title>Node37&#45;&gt;Node13</title>
<path fill="none" stroke="#191970" d="M2978.4109,-258.4634C2997.3809,-256.2979 3017.3651,-254.0455 3036,-252 3188.3666,-235.2751 3236.6283,-272.7944 3379,-216 3401.3757,-207.074 3401.4432,-195.5603 3422,-183 3453.8935,-163.5129 3466.3723,-166.9155 3498,-147 3527.7145,-128.2892 3558.6366,-101.8441 3577.606,-84.6841"/>
<polygon fill="#191970" stroke="#191970" points="3580.1878,-87.0657 3585.1995,-77.7312 3575.4606,-81.903 3580.1878,-87.0657"/>
</g>
<!-- Node37&#45;&gt;Node30 -->
<g id="edge124" class="edge">
<title>Node37&#45;&gt;Node30</title>
<path fill="none" stroke="#191970" d="M2800.4497,-264.2115C2721.6304,-260.6164 2604.8393,-255.5205 2503,-252 2203.7385,-241.6548 1452.3113,-259.1744 1156,-216 1102.645,-208.2258 955.2699,-165.4889 881.3951,-143.5329"/>
<polygon fill="#191970" stroke="#191970" points="882.0594,-140.0789 871.4763,-140.5786 880.0611,-146.7876 882.0594,-140.0789"/>
</g>
<!-- Node37&#45;&gt;Node38 -->
<g id="edge115" class="edge">
<title>Node37&#45;&gt;Node38</title>
<path fill="none" stroke="#191970" d="M2905.7225,-258.3188C2918.6304,-248.742 2938.3944,-234.0784 2954.959,-221.7885"/>
<polygon fill="#191970" stroke="#191970" points="2957.3308,-224.3869 2963.2763,-215.6175 2953.1599,-218.7652 2957.3308,-224.3869"/>
</g>
<!-- Node38&#45;&gt;Node6 -->
<g id="edge116" class="edge">
<title>Node38&#45;&gt;Node6</title>
<path fill="none" stroke="#191970" d="M2941.367,-183.4964C2913.6847,-173.2546 2877.1529,-159.5755 2845,-147 2808.7975,-132.8407 2800.9415,-126.1013 2764,-114 2722.0003,-100.2418 2673.5149,-88.1913 2636.7194,-79.8069"/>
<polygon fill="#191970" stroke="#191970" points="2637.1912,-76.3255 2626.6663,-77.541 2635.652,-83.1542 2637.1912,-76.3255"/>
</g>
<!-- Node38&#45;&gt;Node13 -->
<g id="edge120" class="edge">
<title>Node38&#45;&gt;Node13</title>
<path fill="none" stroke="#191970" d="M3002.5779,-183.2549C3025.5591,-163.1005 3067.9747,-129.5054 3111,-114 3181.2682,-88.6768 3385.3979,-76.1629 3505.2586,-70.8365"/>
<polygon fill="#191970" stroke="#191970" points="3505.6808,-74.3215 3515.5187,-70.389 3505.3757,-67.3282 3505.6808,-74.3215"/>
</g>
<!-- Node38&#45;&gt;Node30 -->
<g id="edge121" class="edge">
<title>Node38&#45;&gt;Node30</title>
<path fill="none" stroke="#191970" d="M2904.4071,-190.2368C2877.0198,-187.4354 2846.2112,-184.6636 2818,-183 1991.2816,-134.2482 1780.525,-212.9436 955,-147 940.1302,-145.8122 924.2676,-143.9678 909.176,-141.9358"/>
<polygon fill="#191970" stroke="#191970" points="909.2593,-138.4138 898.8729,-140.5047 908.2962,-145.3472 909.2593,-138.4138"/>
</g>
<!-- Node38&#45;&gt;Node31 -->
<g id="edge122" class="edge">
<title>Node38&#45;&gt;Node31</title>
<path fill="none" stroke="#191970" d="M3031.6187,-183.4966C3066.6167,-171.4823 3113.9918,-155.2192 3146.9947,-143.8899"/>
<polygon fill="#191970" stroke="#191970" points="3148.4242,-147.0997 3156.746,-140.5424 3146.1514,-140.479 3148.4242,-147.0997"/>
</g>
<!-- Node38&#45;&gt;Node39 -->
<g id="edge117" class="edge">
<title>Node38&#45;&gt;Node39</title>
<path fill="none" stroke="#191970" d="M2974.563,-183.4966C2967.896,-173.2738 2959.2228,-159.9749 2952.2326,-149.2567"/>
<polygon fill="#191970" stroke="#191970" points="2955.0101,-147.1083 2946.6157,-140.6441 2949.1468,-150.9322 2955.0101,-147.1083"/>
</g>
<!-- Node39&#45;&gt;Node6 -->
<g id="edge118" class="edge">
<title>Node39&#45;&gt;Node6</title>
<path fill="none" stroke="#191970" d="M2882.3993,-120.4478C2818.2121,-109.2461 2714.5375,-91.1534 2646.5703,-79.292"/>
<polygon fill="#191970" stroke="#191970" points="2646.8484,-75.7878 2636.3955,-77.5164 2645.6449,-82.6835 2646.8484,-75.7878"/>
</g>
<!-- Node39&#45;&gt;Node13 -->
<g id="edge119" class="edge">
<title>Node39&#45;&gt;Node13</title>
<path fill="none" stroke="#191970" d="M3020.5888,-120.4596C3039.4165,-118.2262 3059.4016,-115.9462 3078,-114 3227.6987,-98.335 3402.0816,-83.3541 3505.5264,-74.8088"/>
<polygon fill="#191970" stroke="#191970" points="3505.9423,-78.2864 3515.6209,-73.9767 3505.3672,-71.3101 3505.9423,-78.2864"/>
</g>
<!-- Node40&#45;&gt;Node6 -->
<g id="edge126" class="edge">
<title>Node40&#45;&gt;Node6</title>
<path fill="none" stroke="#191970" d="M2426.3039,-252.3911C2456.9171,-215.3232 2532.1728,-124.2005 2564.1924,-85.4297"/>
<polygon fill="#191970" stroke="#191970" points="2567.0082,-87.5165 2570.6774,-77.5773 2561.6109,-83.059 2567.0082,-87.5165"/>
</g>
<!-- Node40&#45;&gt;Node23 -->
<g id="edge128" class="edge">
<title>Node40&#45;&gt;Node23</title>
<path fill="none" stroke="#191970" d="M2488.1465,-252.4966C2546.6282,-240.0422 2626.5496,-223.0218 2679.8777,-211.6649"/>
<polygon fill="#191970" stroke="#191970" points="2680.7927,-215.0486 2689.8443,-209.5424 2679.3346,-208.2022 2680.7927,-215.0486"/>
</g>
<!-- Node40&#45;&gt;Node27 -->
<g id="edge127" class="edge">
<title>Node40&#45;&gt;Node27</title>
<path fill="none" stroke="#191970" d="M2331.5294,-266.9793C2212.7863,-263.5343 1999.0195,-252.3291 1932,-216 1904.1719,-200.9153 1883.1365,-169.7572 1871.698,-149.5119"/>
<polygon fill="#191970" stroke="#191970" points="1874.6986,-147.7025 1866.8659,-140.5682 1868.54,-151.0299 1874.6986,-147.7025"/>
</g>
<!-- Node40&#45;&gt;Node30 -->
<g id="edge134" class="edge">
<title>Node40&#45;&gt;Node30</title>
<path fill="none" stroke="#191970" d="M2331.5451,-266.9534C2057.4193,-261.5271 1178.5428,-242.2539 1054,-216 983.488,-201.1359 906.1823,-165.3704 865.9154,-145.1207"/>
<polygon fill="#191970" stroke="#191970" points="867.4676,-141.9835 856.9676,-140.5685 864.2934,-148.2225 867.4676,-141.9835"/>
</g>
<!-- Node40&#45;&gt;Node41 -->
<g id="edge129" class="edge">
<title>Node40&#45;&gt;Node41</title>
<path fill="none" stroke="#191970" d="M2494.0903,-264.4435C2570.6202,-260.7376 2688.582,-255.3415 2791,-252 3531.2234,-227.8496 3717.0436,-247.2815 4457,-216 4506.6346,-213.9017 4561.5011,-210.5989 4608.1456,-207.4977"/>
<polygon fill="#191970" stroke="#191970" points="4608.5315,-210.9798 4618.2751,-206.8189 4608.0634,-203.9954 4608.5315,-210.9798"/>
</g>
<!-- Node41&#45;&gt;Node3 -->
<g id="edge130" class="edge">
<title>Node41&#45;&gt;Node3</title>
<path fill="none" stroke="#191970" d="M4727.502,-189.3327C4740.9499,-171.9712 4763.7707,-136.3257 4745,-114 4650.0625,-1.0822 4564.8542,-71.0502 4418,-57 4156.0091,-31.9341 2185.1487,-13.3974 1897.0908,-10.81"/>
<polygon fill="#191970" stroke="#191970" points="1896.8516,-7.3078 1886.8207,-10.7181 1896.7889,-14.3075 1896.8516,-7.3078"/>
</g>
<!-- Node41&#45;&gt;Node42 -->
<g id="edge131" class="edge">
<title>Node41&#45;&gt;Node42</title>
<path fill="none" stroke="#191970" d="M4710.4419,-189.3188C4701.4465,-178.6174 4687.112,-161.5643 4676.1885,-148.5691"/>
<polygon fill="#191970" stroke="#191970" points="4678.707,-146.1257 4669.5932,-140.723 4673.3486,-150.6299 4678.707,-146.1257"/>
</g>
<!-- Node42&#45;&gt;Node12 -->
<g id="edge132" class="edge">
<title>Node42&#45;&gt;Node12</title>
<path fill="none" stroke="#191970" d="M4614.2493,-120.4478C4554.3928,-107.5776 4452.2283,-85.6105 4400.3224,-74.4499"/>
<polygon fill="#191970" stroke="#191970" points="4400.8527,-70.984 4390.3404,-72.3036 4399.3812,-77.8276 4400.8527,-70.984"/>
</g>
<!-- Node42&#45;&gt;Node13 -->
<g id="edge133" class="edge">
<title>Node42&#45;&gt;Node13</title>
<path fill="none" stroke="#191970" d="M4585.9094,-122.2226C4557.7374,-119.3195 4525.424,-116.23 4496,-114 4200.2228,-91.5832 3848.9292,-76.8661 3686.5672,-70.7387"/>
<polygon fill="#191970" stroke="#191970" points="3686.2728,-67.2253 3676.1485,-70.3476 3686.0101,-74.2204 3686.2728,-67.2253"/>
</g>
<!-- Node43&#45;&gt;Node2 -->
<g id="edge140" class="edge">
<title>Node43&#45;&gt;Node2</title>
<path fill="none" stroke="#191970" d="M2016.5033,-120.4756C1999.2626,-117.9639 1980.4297,-115.5469 1963,-114 1928.4874,-110.937 842.3434,-76.2621 610.3324,-68.8777"/>
<polygon fill="#191970" stroke="#191970" points="610.3533,-65.3767 600.247,-68.5567 610.1306,-72.3731 610.3533,-65.3767"/>
</g>
<!-- Node43&#45;&gt;Node3 -->
<g id="edge142" class="edge">
<title>Node43&#45;&gt;Node3</title>
<path fill="none" stroke="#191970" d="M2059.039,-120.4753C2021.256,-99.3871 1933.3807,-50.3404 1888.8678,-25.496"/>
<polygon fill="#191970" stroke="#191970" points="1890.4989,-22.3981 1880.0611,-20.5806 1887.0873,-28.5105 1890.4989,-22.3981"/>
</g>
<!-- Node43&#45;&gt;Node6 -->
<g id="edge138" class="edge">
<title>Node43&#45;&gt;Node6</title>
<path fill="none" stroke="#191970" d="M2147.7641,-120.4871C2163.6287,-118.2984 2180.3841,-116.0304 2196,-114 2293.5771,-101.3127 2405.2871,-87.8741 2482.7778,-78.7244"/>
<polygon fill="#191970" stroke="#191970" points="2483.4828,-82.1656 2493.004,-77.5184 2482.6629,-75.2138 2483.4828,-82.1656"/>
</g>
<!-- Node43&#45;&gt;Node8 -->
<g id="edge141" class="edge">
<title>Node43&#45;&gt;Node8</title>
<path fill="none" stroke="#191970" d="M2014.0963,-120.4721C1997.5112,-118.0814 1979.6088,-115.7259 1963,-114 1698.7968,-86.5447 1379.2173,-72.9816 1269.3246,-68.8814"/>
<polygon fill="#191970" stroke="#191970" points="1269.1758,-65.3736 1259.0537,-68.5031 1268.9181,-72.3689 1269.1758,-65.3736"/>
</g>
<!-- Node43&#45;&gt;Node13 -->
<g id="edge139" class="edge">
<title>Node43&#45;&gt;Node13</title>
<path fill="none" stroke="#191970" d="M2181.6305,-122.3173C2221.7576,-119.3822 2267.9866,-116.2465 2310,-114 2758.5957,-90.0131 3295.8957,-75.0193 3505.7787,-69.6901"/>
<polygon fill="#191970" stroke="#191970" points="3505.917,-73.1878 3515.8253,-69.436 3505.7399,-66.19 3505.917,-73.1878"/>
</g>
<!-- Node44&#45;&gt;Node2 -->
<g id="edge144" class="edge">
<title>Node44&#45;&gt;Node2</title>
<path fill="none" stroke="#191970" d="M2625.7255,-336.5101C2229.8585,-332.3607 780.8954,-315.17 688,-285 663.3774,-277.0032 663.9677,-261.7862 640,-252 444.252,-172.0743 304.7541,-314.7134 176,-147 167.0687,-135.3663 166.2607,-124.9662 176,-114 198.8025,-88.325 426.6796,-74.3079 523.6672,-69.4653"/>
<polygon fill="#191970" stroke="#191970" points="523.9147,-72.9575 533.7315,-68.9724 523.5722,-65.9659 523.9147,-72.9575"/>
</g>
<!-- Node44&#45;&gt;Node6 -->
<g id="edge146" class="edge">
<title>Node44&#45;&gt;Node6</title>
<path fill="none" stroke="#191970" d="M2718.5664,-327.3345C2705.6752,-306.7592 2676.1097,-258.5192 2655,-216 2633.1228,-171.9349 2635.9342,-156.9825 2612,-114 2606.6242,-104.3458 2599.6623,-94.2698 2593.5195,-85.9754"/>
<polygon fill="#191970" stroke="#191970" points="2596.1271,-83.6221 2587.2894,-77.7787 2590.5542,-87.858 2596.1271,-83.6221"/>
</g>
<!-- Node44&#45;&gt;Node7 -->
<g id="edge148" class="edge">
<title>Node44&#45;&gt;Node7</title>
<path fill="none" stroke="#191970" d="M2811.0475,-327.4735C2830.7396,-325.2629 2851.5876,-322.9891 2871,-321 3041.6996,-303.5088 3241.395,-285.7707 3353.6522,-276.0479"/>
<polygon fill="#191970" stroke="#191970" points="3354.2453,-279.5098 3363.9065,-275.161 3353.642,-272.5358 3354.2453,-279.5098"/>
</g>
<!-- Node44&#45;&gt;Node9 -->
<g id="edge149" class="edge">
<title>Node44&#45;&gt;Node9</title>
<path fill="none" stroke="#191970" d="M2806.3868,-327.4577C2827.4115,-325.0954 2850.0289,-322.7572 2871,-321 3016.9295,-308.7723 3389.448,-329.3868 3529,-285 3574.8845,-270.4057 3620.7342,-236.6101 3645.7275,-216.1492"/>
<polygon fill="#191970" stroke="#191970" points="3648.232,-218.6177 3653.664,-209.5214 3643.745,-213.2449 3648.232,-218.6177"/>
</g>
<!-- Node44&#45;&gt;Node13 -->
<g id="edge150" class="edge">
<title>Node44&#45;&gt;Node13</title>
<path fill="none" stroke="#191970" d="M2809.5642,-327.497C2968.8155,-307.8606 3306.9102,-262.1494 3415,-216 3437.8095,-206.2614 3438.7629,-195.8101 3460,-183 3491.318,-164.1092 3505.5749,-170.0151 3534,-147 3555.2337,-129.8076 3573.6239,-104.0241 3584.7439,-86.5182"/>
<polygon fill="#191970" stroke="#191970" points="3587.8796,-88.1011 3590.1455,-77.7514 3581.92,-84.429 3587.8796,-88.1011"/>
</g>
<!-- Node44&#45;&gt;Node16 -->
<g id="edge145" class="edge">
<title>Node44&#45;&gt;Node16</title>
<path fill="none" stroke="#191970" d="M2625.8712,-336.7518C2266.5111,-333.7668 1032.6897,-321.0712 640,-285 445.9444,-267.1747 368.8173,-324.584 207,-216 166.29,-188.6824 147.0648,-159.6277 165,-114 177.655,-81.8054 187.4927,-73.3079 218,-57 261.7917,-33.5908 407.4636,-18.7615 473.253,-13.1023"/>
<polygon fill="#191970" stroke="#191970" points="473.7953,-16.5691 483.4664,-12.2425 473.208,-9.5938 473.7953,-16.5691"/>
</g>
<!-- Node44&#45;&gt;Node23 -->
<g id="edge147" class="edge">
<title>Node44&#45;&gt;Node23</title>
<path fill="none" stroke="#191970" d="M2725.902,-327.1276C2727.8836,-304.339 2732.6466,-249.564 2735.242,-219.7175"/>
<polygon fill="#191970" stroke="#191970" points="2738.7407,-219.8834 2736.1202,-209.6178 2731.767,-219.2769 2738.7407,-219.8834"/>
</g>
<!-- Node45&#45;&gt;Node6 -->
<g id="edge153" class="edge">
<title>Node45&#45;&gt;Node6</title>
<path fill="none" stroke="#191970" d="M2117.2461,-187.7602C2161.9076,-179.8106 2216.2142,-167.0064 2262,-147 2285.7228,-136.6342 2286.0233,-123.7642 2310,-114 2358.7644,-94.1414 2415.8649,-82.7615 2464.8825,-76.2413"/>
<polygon fill="#191970" stroke="#191970" points="2465.4176,-79.7015 2474.8931,-74.9617 2464.53,-72.758 2465.4176,-79.7015"/>
</g>
<!-- Node45&#45;&gt;Node10 -->
<g id="edge152" class="edge">
<title>Node45&#45;&gt;Node10</title>
<path fill="none" stroke="#191970" d="M2117.2031,-185.412C2208.8636,-170.7718 2348.4679,-148.4739 2418.2145,-137.3338"/>
<polygon fill="#191970" stroke="#191970" points="2419.0647,-140.7424 2428.3875,-135.7089 2417.9606,-133.8301 2419.0647,-140.7424"/>
</g>
<!-- Node45&#45;&gt;Node13 -->
<g id="edge155" class="edge">
<title>Node45&#45;&gt;Node13</title>
<path fill="none" stroke="#191970" d="M2117.091,-187.2127C2170.6569,-178.5682 2240.0616,-165.2656 2300,-147 2336.0068,-136.0273 2341.2591,-122.1851 2378,-114 2486.8557,-89.7492 3242.3642,-73.9062 3505.7098,-69.0684"/>
<polygon fill="#191970" stroke="#191970" points="3506.0639,-72.5626 3515.9983,-68.8804 3505.936,-65.5638 3506.0639,-72.5626"/>
</g>
<!-- Node45&#45;&gt;Node30 -->
<g id="edge156" class="edge">
<title>Node45&#45;&gt;Node30</title>
<path fill="none" stroke="#191970" d="M1940.7492,-197.9106C1756.9762,-194.0013 1319.96,-181.5817 955,-147 940.9495,-145.6686 926.0005,-143.8611 911.6508,-141.9296"/>
<polygon fill="#191970" stroke="#191970" points="911.7138,-138.4052 901.3294,-140.5062 910.7575,-145.3396 911.7138,-138.4052"/>
</g>
<!-- Node45&#45;&gt;Node35 -->
<g id="edge154" class="edge">
<title>Node45&#45;&gt;Node35</title>
<path fill="none" stroke="#191970" d="M1940.891,-195.6865C1787.7732,-188.6811 1462.7325,-172.1377 1189,-147 1177.1577,-145.9125 1164.7533,-144.6204 1152.4582,-143.245"/>
<polygon fill="#191970" stroke="#191970" points="1152.5026,-139.7275 1142.1706,-142.0728 1151.7101,-146.6825 1152.5026,-139.7275"/>
</g>
<!-- Node46&#45;&gt;Node13 -->
<g id="edge159" class="edge">
<title>Node46&#45;&gt;Node13</title>
<path fill="none" stroke="#191970" d="M4815.5652,-252.194C4826.5305,-234.5704 4839.839,-205.9304 4829,-183 4808.353,-139.3202 4790.1473,-131.2031 4745,-114 4695.8688,-95.2788 3949.3754,-75.8773 3686.6405,-69.5954"/>
<polygon fill="#191970" stroke="#191970" points="3686.4527,-66.09 3676.3721,-69.3506 3686.2858,-73.088 3686.4527,-66.09"/>
</g>
<!-- Node46&#45;&gt;Node41 -->
<g id="edge158" class="edge">
<title>Node46&#45;&gt;Node41</title>
<path fill="none" stroke="#191970" d="M4784.2856,-252.4966C4770.802,-241.551 4752.974,-227.0789 4739.3554,-216.0238"/>
<polygon fill="#191970" stroke="#191970" points="4741.4662,-213.2293 4731.4964,-209.6441 4737.0544,-218.664 4741.4662,-213.2293"/>
</g>
<!-- Node47&#45;&gt;Node6 -->
<g id="edge164" class="edge">
<title>Node47&#45;&gt;Node6</title>
<path fill="none" stroke="#191970" d="M4123.5529,-120.489C4108.5956,-117.9452 4092.1946,-115.5079 4077,-114 3809.0643,-87.4098 2995.2841,-73.4214 2693.3476,-69.038"/>
<polygon fill="#191970" stroke="#191970" points="2693.3085,-65.5372 2683.259,-68.8923 2693.2074,-72.5364 2693.3085,-65.5372"/>
</g>
<!-- Node47&#45;&gt;Node12 -->
<g id="edge163" class="edge">
<title>Node47&#45;&gt;Node12</title>
<path fill="none" stroke="#191970" d="M4206.0088,-120.378C4241.7541,-108.7098 4300.1991,-89.6319 4336.2534,-77.8629"/>
<polygon fill="#191970" stroke="#191970" points="4337.371,-81.1799 4345.7913,-74.7495 4335.1988,-74.5254 4337.371,-81.1799"/>
</g>
<!-- Node47&#45;&gt;Node13 -->
<g id="edge165" class="edge">
<title>Node47&#45;&gt;Node13</title>
<path fill="none" stroke="#191970" d="M4119.6471,-120.4809C4105.7526,-118.1588 4090.8544,-115.8337 4077,-114 3941.2454,-96.0324 3783.0649,-82.0735 3686.2432,-74.3156"/>
<polygon fill="#191970" stroke="#191970" points="3686.4445,-70.8207 3676.1981,-73.5154 3685.8886,-77.7986 3686.4445,-70.8207"/>
</g>
<!-- Node48&#45;&gt;Node3 -->
<g id="edge169" class="edge">
<title>Node48&#45;&gt;Node3</title>
<path fill="none" stroke="#191970" d="M4357.7591,-189.3632C4381.3327,-163.6928 4436.7387,-95.4367 4399,-57 4376.04,-33.6153 2201.9339,-13.5117 1897.3,-10.8086"/>
<polygon fill="#191970" stroke="#191970" points="1896.9008,-7.305 1886.8702,-10.7164 1896.8388,-14.3048 1896.9008,-7.305"/>
</g>
<!-- Node48&#45;&gt;Node11 -->
<g id="edge168" class="edge">
<title>Node48&#45;&gt;Node11</title>
<path fill="none" stroke="#191970" d="M4259.3905,-189.4901C4240.1422,-187.3336 4219.89,-185.0782 4201,-183 4052.5912,-166.6729 4014.1255,-172.4136 3867,-147 3854.6087,-144.8596 3841.1267,-141.8022 3829.3948,-138.8996"/>
<polygon fill="#191970" stroke="#191970" points="3830.1605,-135.483 3819.6068,-136.4156 3828.4386,-142.2679 3830.1605,-135.483"/>
</g>
<!-- Node48&#45;&gt;Node13 -->
<g id="edge167" class="edge">
<title>Node48&#45;&gt;Node13</title>
<path fill="none" stroke="#191970" d="M4344.6518,-189.3585C4337.8841,-170.6747 4320.6431,-131.162 4291,-114 4239.9255,-84.4302 3862.6232,-72.9185 3686.3153,-69.1187"/>
<polygon fill="#191970" stroke="#191970" points="3686.3505,-65.6188 3676.2786,-68.906 3686.2022,-72.6172 3686.3505,-65.6188"/>
</g>
<!-- Node49&#45;&gt;Node13 -->
<g id="edge174" class="edge">
<title>Node49&#45;&gt;Node13</title>
<path fill="none" stroke="#191970" d="M4191.6444,-184.8601C4246.3712,-171.2627 4304.7098,-147.9625 4273,-114 4253.2826,-92.8819 3866.1665,-76.8217 3686.3609,-70.4702"/>
<polygon fill="#191970" stroke="#191970" points="3686.2446,-66.9641 3676.128,-70.1114 3685.9992,-73.9598 3686.2446,-66.9641"/>
</g>
<!-- Node49&#45;&gt;Node47 -->
<g id="edge173" class="edge">
<title>Node49&#45;&gt;Node47</title>
<path fill="none" stroke="#191970" d="M4128.1479,-183.4966C4137.4593,-172.964 4149.6575,-159.1661 4159.273,-148.2895"/>
<polygon fill="#191970" stroke="#191970" points="4162.0308,-150.4544 4166.032,-140.6441 4156.7864,-145.818 4162.0308,-150.4544"/>
</g>
<!-- Node50&#45;&gt;Node31 -->
<g id="edge178" class="edge">
<title>Node50&#45;&gt;Node31</title>
<path fill="none" stroke="#191970" d="M4512.1499,-262.3901C4403.5565,-253.6027 4200.5149,-236.2111 4028,-216 3923.6844,-203.7788 3898.4357,-194.1489 3794,-183 3574.6652,-159.5853 3518.2769,-170.9511 3299,-147 3286.043,-145.5847 3272.2886,-143.8082 3259.0008,-141.9493"/>
<polygon fill="#191970" stroke="#191970" points="3259.3455,-138.4631 3248.9515,-140.5163 3258.3573,-145.393 3259.3455,-138.4631"/>
</g>
<!-- Node50&#45;&gt;Node41 -->
<g id="edge177" class="edge">
<title>Node50&#45;&gt;Node41</title>
<path fill="none" stroke="#191970" d="M4619.9194,-252.4966C4641.3482,-241.0347 4670.0067,-225.7057 4690.9884,-214.4829"/>
<polygon fill="#191970" stroke="#191970" points="4692.8679,-217.4469 4700.0349,-209.6441 4689.5663,-211.2744 4692.8679,-217.4469"/>
</g>
<!-- Node50&#45;&gt;Node42 -->
<g id="edge176" class="edge">
<title>Node50&#45;&gt;Node42</title>
<path fill="none" stroke="#191970" d="M4591.1764,-252.4607C4593.0547,-234.5623 4597.8601,-205.2037 4610,-183 4617.4809,-169.3175 4629.5092,-156.6887 4640.006,-147.2475"/>
<polygon fill="#191970" stroke="#191970" points="4642.3362,-149.8599 4647.6337,-140.6845 4637.7706,-144.5536 4642.3362,-149.8599"/>
</g>
</g>
</svg>
