<?xml version="1.0" encoding="UTF-8" standalone="no"?>
<!DOCTYPE svg PUBLIC "-//W3C//DTD SVG 1.1//EN"
 "http://www.w3.org/Graphics/SVG/1.1/DTD/svg11.dtd">
<!-- Generated by graphviz version 2.40.1 (20161225.0304)
 -->
<!-- Title: PHG4BbcSubsystem::Print Pages: 1 -->
<svg width="337pt" height="209pt"
 viewBox="0.00 0.00 337.00 209.00" xmlns="http://www.w3.org/2000/svg" xmlns:xlink="http://www.w3.org/1999/xlink">
<g id="graph0" class="graph" transform="scale(1 1) rotate(0) translate(4 205)">
<title>PHG4BbcSubsystem::Print</title>
<!-- Node1 -->
<g id="node1" class="node">
<title>Node1</title>
<polygon fill="#bfbfbf" stroke="#000000" points="0,-90.5 0,-110.5 149,-110.5 149,-90.5 0,-90.5"/>
<text text-anchor="middle" x="74.5" y="-97.5" font-family="FreeSans" font-size="10.00" fill="#000000">PHG4BbcSubsystem::Print</text>
</g>
<!-- Node2 -->
<g id="node2" class="node">
<title>Node2</title>
<g id="a_node2"><a xlink:href="../../d5/d29/classPHG4DetectorSubsystem.html#a6ce8e425ac50e6f13d44075bd6843dcf" target="_top" xlink:title="PHG4DetectorSubsystem\l::GetParams">
<polygon fill="none" stroke="#000000" points="185,-168.5 185,-200.5 329,-200.5 329,-168.5 185,-168.5"/>
<text text-anchor="start" x="193" y="-187.5" font-family="FreeSans" font-size="10.00" fill="#000000">PHG4DetectorSubsystem</text>
<text text-anchor="middle" x="257" y="-175.5" font-family="FreeSans" font-size="10.00" fill="#000000">::GetParams</text>
</a>
</g>
</g>
<!-- Node1&#45;&gt;Node2 -->
<g id="edge1" class="edge">
<title>Node1&#45;&gt;Node2</title>
<path fill="none" stroke="#191970" d="M91.3144,-110.5466C112.6284,-123.0296 150.7293,-144.5106 185,-159.5 189.1351,-161.3086 193.4466,-163.0791 197.8139,-164.7895"/>
<polygon fill="#191970" stroke="#191970" points="196.8259,-168.158 207.4172,-168.4294 199.3068,-161.6124 196.8259,-168.158"/>
</g>
<!-- Node3 -->
<g id="node3" class="node">
<title>Node3</title>
<g id="a_node3"><a xlink:href="../../d5/dec/classFun4AllBase.html#a41f9ac377743d046f590617fd6f4f0ed" target="_top" xlink:title="Returns the name of this module.">
<polygon fill="none" stroke="#000000" points="199.5,-129.5 199.5,-149.5 314.5,-149.5 314.5,-129.5 199.5,-129.5"/>
<text text-anchor="middle" x="257" y="-136.5" font-family="FreeSans" font-size="10.00" fill="#000000">Fun4AllBase::Name</text>
</a>
</g>
</g>
<!-- Node1&#45;&gt;Node3 -->
<g id="edge2" class="edge">
<title>Node1&#45;&gt;Node3</title>
<path fill="none" stroke="#191970" d="M121.4983,-110.5435C145.5531,-115.684 175.0213,-121.9813 200.3263,-127.3889"/>
<polygon fill="#191970" stroke="#191970" points="199.6503,-130.8234 210.161,-129.4906 201.1132,-123.978 199.6503,-130.8234"/>
</g>
<!-- Node4 -->
<g id="node4" class="node">
<title>Node4</title>
<g id="a_node4"><a xlink:href="../../d3/d22/classPHG4BbcDetector.html#a2ecb7da2a3560e1841be53a7e1c3f4c2" target="_top" xlink:title="PHG4BbcDetector::Print">
<polygon fill="none" stroke="#000000" points="188.5,-90.5 188.5,-110.5 325.5,-110.5 325.5,-90.5 188.5,-90.5"/>
<text text-anchor="middle" x="257" y="-97.5" font-family="FreeSans" font-size="10.00" fill="#000000">PHG4BbcDetector::Print</text>
</a>
</g>
</g>
<!-- Node1&#45;&gt;Node4 -->
<g id="edge3" class="edge">
<title>Node1&#45;&gt;Node4</title>
<path fill="none" stroke="#191970" d="M149.2563,-100.5C158.7263,-100.5 168.4414,-100.5 177.9752,-100.5"/>
<polygon fill="#191970" stroke="#191970" points="178.2291,-104.0001 188.2291,-100.5 178.229,-97.0001 178.2291,-104.0001"/>
</g>
<!-- Node5 -->
<g id="node5" class="node">
<title>Node5</title>
<g id="a_node5"><a xlink:href="../../dd/dae/classPHParameters.html#a86d5b7d8808528ad2d4389a081f7c657" target="_top" xlink:title="PHParameters::Print">
<polygon fill="none" stroke="#000000" points="198,-51.5 198,-71.5 316,-71.5 316,-51.5 198,-51.5"/>
<text text-anchor="middle" x="257" y="-58.5" font-family="FreeSans" font-size="10.00" fill="#000000">PHParameters::Print</text>
</a>
</g>
</g>
<!-- Node1&#45;&gt;Node5 -->
<g id="edge4" class="edge">
<title>Node1&#45;&gt;Node5</title>
<path fill="none" stroke="#191970" d="M121.4983,-90.4565C145.5531,-85.316 175.0213,-79.0187 200.3263,-73.6111"/>
<polygon fill="#191970" stroke="#191970" points="201.1132,-77.022 210.161,-71.5094 199.6503,-70.1766 201.1132,-77.022"/>
</g>
<!-- Node6 -->
<g id="node6" class="node">
<title>Node6</title>
<g id="a_node6"><a xlink:href="../../df/d3f/classPHG4SteppingAction.html#ab450bfc504b60661c2d6b925d7b6f028" target="_top" xlink:title="PHG4SteppingAction\l::Print">
<polygon fill="none" stroke="#000000" points="196.5,-.5 196.5,-32.5 317.5,-32.5 317.5,-.5 196.5,-.5"/>
<text text-anchor="start" x="204.5" y="-19.5" font-family="FreeSans" font-size="10.00" fill="#000000">PHG4SteppingAction</text>
<text text-anchor="middle" x="257" y="-7.5" font-family="FreeSans" font-size="10.00" fill="#000000">::Print</text>
</a>
</g>
</g>
<!-- Node1&#45;&gt;Node6 -->
<g id="edge5" class="edge">
<title>Node1&#45;&gt;Node6</title>
<path fill="none" stroke="#191970" d="M92.1208,-90.2884C113.6251,-78.0533 151.2933,-57.3487 185,-42.5 189.9409,-40.3234 195.1268,-38.1829 200.3556,-36.1217"/>
<polygon fill="#191970" stroke="#191970" points="201.689,-39.3589 209.7699,-32.5069 199.1798,-32.8241 201.689,-39.3589"/>
</g>
</g>
</svg>
