<?xml version="1.0" encoding="UTF-8" standalone="no"?>
<!DOCTYPE svg PUBLIC "-//W3C//DTD SVG 1.1//EN"
 "http://www.w3.org/Graphics/SVG/1.1/DTD/svg11.dtd">
<!-- Generated by graphviz version 2.40.1 (20161225.0304)
 -->
<!-- Title: PHG4Hit::set_index_l Pages: 1 -->
<svg width="333pt" height="143pt"
 viewBox="0.00 0.00 333.00 143.00" xmlns="http://www.w3.org/2000/svg" xmlns:xlink="http://www.w3.org/1999/xlink">
<g id="graph0" class="graph" transform="scale(1 1) rotate(0) translate(4 139)">
<title>PHG4Hit::set_index_l</title>
<!-- Node1 -->
<g id="node1" class="node">
<title>Node1</title>
<polygon fill="#bfbfbf" stroke="#000000" points="0,-57.5 0,-77.5 121,-77.5 121,-57.5 0,-57.5"/>
<text text-anchor="middle" x="60.5" y="-64.5" font-family="FreeSans" font-size="10.00" fill="#000000">PHG4Hit::set_index_l</text>
</g>
<!-- Node2 -->
<g id="node2" class="node">
<title>Node2</title>
<g id="a_node2"><a xlink:href="../../da/deb/classPHG4EnvelopeSteppingAction.html#a155d6699d5ac8ecf898b645a0915a64d" target="_top" xlink:title="stepping action. This defines processing of a single step in a given volume">
<polygon fill="none" stroke="#000000" points="157,-102.5 157,-134.5 325,-134.5 325,-102.5 157,-102.5"/>
<text text-anchor="start" x="165" y="-121.5" font-family="FreeSans" font-size="10.00" fill="#000000">PHG4EnvelopeSteppingAction</text>
<text text-anchor="middle" x="241" y="-109.5" font-family="FreeSans" font-size="10.00" fill="#000000">::UserSteppingAction</text>
</a>
</g>
</g>
<!-- Node1&#45;&gt;Node2 -->
<g id="edge1" class="edge">
<title>Node1&#45;&gt;Node2</title>
<path fill="none" stroke="#191970" d="M105.9558,-80.3435C129.6648,-87.0424 158.8992,-95.3026 184.0977,-102.4223"/>
<polygon fill="#191970" stroke="#191970" points="106.7359,-76.9269 96.161,-77.576 104.8326,-83.6632 106.7359,-76.9269"/>
</g>
<!-- Node3 -->
<g id="node3" class="node">
<title>Node3</title>
<g id="a_node3"><a xlink:href="../../d2/d2f/classPHG4LFHcalSteppingAction.html#a7355df2f0922e2f071ddf44b05e6ac3b" target="_top" xlink:title="stepping action">
<polygon fill="none" stroke="#000000" points="164,-51.5 164,-83.5 318,-83.5 318,-51.5 164,-51.5"/>
<text text-anchor="start" x="172" y="-70.5" font-family="FreeSans" font-size="10.00" fill="#000000">PHG4LFHcalSteppingAction</text>
<text text-anchor="middle" x="241" y="-58.5" font-family="FreeSans" font-size="10.00" fill="#000000">::UserSteppingAction</text>
</a>
</g>
</g>
<!-- Node1&#45;&gt;Node3 -->
<g id="edge2" class="edge">
<title>Node1&#45;&gt;Node3</title>
<path fill="none" stroke="#191970" d="M131.2372,-67.5C141.9492,-67.5 153.0464,-67.5 163.8852,-67.5"/>
<polygon fill="#191970" stroke="#191970" points="131.1061,-64.0001 121.106,-67.5 131.106,-71.0001 131.1061,-64.0001"/>
</g>
<!-- Node4 -->
<g id="node4" class="node">
<title>Node4</title>
<g id="a_node4"><a xlink:href="../../d1/df7/classPHG4TTLSteppingAction.html#ab6f6658d18a82c425e6865ef41653308" target="_top" xlink:title="stepping action">
<polygon fill="none" stroke="#000000" points="171.5,-.5 171.5,-32.5 310.5,-32.5 310.5,-.5 171.5,-.5"/>
<text text-anchor="start" x="179.5" y="-19.5" font-family="FreeSans" font-size="10.00" fill="#000000">PHG4TTLSteppingAction</text>
<text text-anchor="middle" x="241" y="-7.5" font-family="FreeSans" font-size="10.00" fill="#000000">::UserSteppingAction</text>
</a>
</g>
</g>
<!-- Node1&#45;&gt;Node4 -->
<g id="edge3" class="edge">
<title>Node1&#45;&gt;Node4</title>
<path fill="none" stroke="#191970" d="M105.9558,-54.6565C129.6648,-47.9576 158.8992,-39.6974 184.0977,-32.5777"/>
<polygon fill="#191970" stroke="#191970" points="104.8326,-51.3368 96.161,-57.424 106.7359,-58.0731 104.8326,-51.3368"/>
</g>
</g>
</svg>
