<?xml version="1.0" encoding="UTF-8" standalone="no"?>
<!DOCTYPE svg PUBLIC "-//W3C//DTD SVG 1.1//EN"
 "http://www.w3.org/Graphics/SVG/1.1/DTD/svg11.dtd">
<!-- Generated by graphviz version 2.40.1 (20161225.0304)
 -->
<!-- Title: PHG4Hit::set_layer Pages: 1 -->
<svg width="343pt" height="1265pt"
 viewBox="0.00 0.00 343.00 1265.00" xmlns="http://www.w3.org/2000/svg" xmlns:xlink="http://www.w3.org/1999/xlink">
<g id="graph0" class="graph" transform="scale(1 1) rotate(0) translate(4 1261)">
<title>PHG4Hit::set_layer</title>
<!-- Node1 -->
<g id="node1" class="node">
<title>Node1</title>
<polygon fill="#bfbfbf" stroke="#000000" points="0,-618.5 0,-638.5 112,-638.5 112,-618.5 0,-618.5"/>
<text text-anchor="middle" x="56" y="-625.5" font-family="FreeSans" font-size="10.00" fill="#000000">PHG4Hit::set_layer</text>
</g>
<!-- Node2 -->
<g id="node2" class="node">
<title>Node2</title>
<g id="a_node2"><a xlink:href="../../d7/da4/classPHG4GenHit.html#ac94e3d486c5184596fff96b0b6070fb1" target="_top" xlink:title="PHG4GenHit::process\l_event">
<polygon fill="none" stroke="#000000" points="179,-1224.5 179,-1256.5 304,-1256.5 304,-1224.5 179,-1224.5"/>
<text text-anchor="start" x="187" y="-1243.5" font-family="FreeSans" font-size="10.00" fill="#000000">PHG4GenHit::process</text>
<text text-anchor="middle" x="241.5" y="-1231.5" font-family="FreeSans" font-size="10.00" fill="#000000">_event</text>
</a>
</g>
</g>
<!-- Node1&#45;&gt;Node2 -->
<g id="edge1" class="edge">
<title>Node1&#45;&gt;Node2</title>
<path fill="none" stroke="#191970" d="M56.3156,-648.9012C58.1777,-742.4324 70.5228,-1129.359 148,-1215.5 156.0903,-1224.495 167.0258,-1230.4079 178.5661,-1234.2607"/>
<polygon fill="#191970" stroke="#191970" points="59.8128,-648.7076 56.1334,-638.7722 52.814,-648.8336 59.8128,-648.7076"/>
</g>
<!-- Node3 -->
<g id="node3" class="node">
<title>Node3</title>
<g id="a_node3"><a xlink:href="../../de/d7a/classG4Example01SteppingAction.html#a200cc4123fe2bcecd25f62f51347bf26" target="_top" xlink:title="stepping action">
<polygon fill="none" stroke="#000000" points="159.5,-1173.5 159.5,-1205.5 323.5,-1205.5 323.5,-1173.5 159.5,-1173.5"/>
<text text-anchor="start" x="167.5" y="-1192.5" font-family="FreeSans" font-size="10.00" fill="#000000">G4Example01SteppingAction</text>
<text text-anchor="middle" x="241.5" y="-1180.5" font-family="FreeSans" font-size="10.00" fill="#000000">::UserSteppingAction</text>
</a>
</g>
</g>
<!-- Node1&#45;&gt;Node3 -->
<g id="edge2" class="edge">
<title>Node1&#45;&gt;Node3</title>
<path fill="none" stroke="#191970" d="M56.645,-648.7905C59.8609,-737.0579 76.9651,-1086.6658 148,-1164.5 151.3981,-1168.2233 155.2838,-1171.4174 159.4961,-1174.155"/>
<polygon fill="#191970" stroke="#191970" points="60.1409,-648.6084 56.2988,-638.7348 53.1451,-648.8493 60.1409,-648.6084"/>
</g>
<!-- Node4 -->
<g id="node4" class="node">
<title>Node4</title>
<g id="a_node4"><a xlink:href="../../d8/d10/classPHG4EICMvtxSteppingAction.html#ab3c497977619323e39bd4e1e1a6fe654" target="_top" xlink:title="stepping action">
<polygon fill="none" stroke="#000000" points="160.5,-1122.5 160.5,-1154.5 322.5,-1154.5 322.5,-1122.5 160.5,-1122.5"/>
<text text-anchor="start" x="168.5" y="-1141.5" font-family="FreeSans" font-size="10.00" fill="#000000">PHG4EICMvtxSteppingAction</text>
<text text-anchor="middle" x="241.5" y="-1129.5" font-family="FreeSans" font-size="10.00" fill="#000000">::UserSteppingAction</text>
</a>
</g>
</g>
<!-- Node1&#45;&gt;Node4 -->
<g id="edge3" class="edge">
<title>Node1&#45;&gt;Node4</title>
<path fill="none" stroke="#191970" d="M57.0379,-648.6743C61.7006,-731.449 83.3834,-1043.9293 148,-1113.5 151.6592,-1117.4397 155.8645,-1120.7852 160.4223,-1123.6233"/>
<polygon fill="#191970" stroke="#191970" points="60.5264,-648.3641 56.4903,-638.5682 53.5366,-648.7429 60.5264,-648.3641"/>
</g>
<!-- Node5 -->
<g id="node5" class="node">
<title>Node5</title>
<g id="a_node5"><a xlink:href="../../d1/d77/classPHG4MvtxSteppingAction.html#ac3767340e8508dc30b0eea8bc3620c15" target="_top" xlink:title="stepping action">
<polygon fill="none" stroke="#000000" points="169,-1071.5 169,-1103.5 314,-1103.5 314,-1071.5 169,-1071.5"/>
<text text-anchor="start" x="177" y="-1090.5" font-family="FreeSans" font-size="10.00" fill="#000000">PHG4MvtxSteppingAction</text>
<text text-anchor="middle" x="241.5" y="-1078.5" font-family="FreeSans" font-size="10.00" fill="#000000">::UserSteppingAction</text>
</a>
</g>
</g>
<!-- Node1&#45;&gt;Node5 -->
<g id="edge4" class="edge">
<title>Node1&#45;&gt;Node5</title>
<path fill="none" stroke="#191970" d="M57.5506,-648.9823C63.8323,-726.5891 89.8808,-1001.2539 148,-1062.5 153.7831,-1068.5942 160.8739,-1073.2616 168.541,-1076.827"/>
<polygon fill="#191970" stroke="#191970" points="61.0109,-648.3389 56.7378,-638.644 54.0325,-648.8876 61.0109,-648.3389"/>
</g>
<!-- Node6 -->
<g id="node6" class="node">
<title>Node6</title>
<g id="a_node6"><a xlink:href="../../dc/d04/classPHG4TpcSteppingAction.html#a68420823833d0cacfbcd8e9244423846" target="_top" xlink:title="stepping action">
<polygon fill="none" stroke="#000000" points="172,-1020.5 172,-1052.5 311,-1052.5 311,-1020.5 172,-1020.5"/>
<text text-anchor="start" x="180" y="-1039.5" font-family="FreeSans" font-size="10.00" fill="#000000">PHG4TpcSteppingAction</text>
<text text-anchor="middle" x="241.5" y="-1027.5" font-family="FreeSans" font-size="10.00" fill="#000000">::UserSteppingAction</text>
</a>
</g>
</g>
<!-- Node1&#45;&gt;Node6 -->
<g id="edge5" class="edge">
<title>Node1&#45;&gt;Node6</title>
<path fill="none" stroke="#191970" d="M58.1574,-648.8343C66.137,-720.2854 96.2267,-958.388 148,-1011.5 154.6854,-1018.3583 163.0291,-1023.4019 171.9611,-1027.0989"/>
<polygon fill="#191970" stroke="#191970" points="61.5951,-648.0724 57.0304,-638.5113 54.6364,-648.8322 61.5951,-648.0724"/>
</g>
<!-- Node7 -->
<g id="node7" class="node">
<title>Node7</title>
<g id="a_node7"><a xlink:href="../../d7/d9e/classG4JLeicBeamLineMagnetSteppingAction.html#a6e9fa94eaab97e06c9ca5752e446b00f" target="_top" xlink:title="stepping action">
<polygon fill="none" stroke="#000000" points="148,-969.5 148,-1001.5 335,-1001.5 335,-969.5 148,-969.5"/>
<text text-anchor="start" x="156" y="-988.5" font-family="FreeSans" font-size="10.00" fill="#000000">G4JLeicBeamLineMagnetStepping</text>
<text text-anchor="middle" x="241.5" y="-976.5" font-family="FreeSans" font-size="10.00" fill="#000000">Action::UserSteppingAction</text>
</a>
</g>
</g>
<!-- Node1&#45;&gt;Node7 -->
<g id="edge6" class="edge">
<title>Node1&#45;&gt;Node7</title>
<path fill="none" stroke="#191970" d="M58.9913,-649.0398C68.8992,-714.34 102.6122,-915.5214 148,-960.5 151.4612,-963.93 155.338,-966.9037 159.492,-969.4804"/>
<polygon fill="#191970" stroke="#191970" points="62.4027,-648.1852 57.4668,-638.8104 55.4792,-649.2171 62.4027,-648.1852"/>
</g>
<!-- Node8 -->
<g id="node8" class="node">
<title>Node8</title>
<g id="a_node8"><a xlink:href="../../d3/d1c/classG4JLeicDIRCSteppingAction.html#a7bd556203725880960690020534378f4" target="_top" xlink:title="stepping action">
<polygon fill="none" stroke="#000000" points="164.5,-918.5 164.5,-950.5 318.5,-950.5 318.5,-918.5 164.5,-918.5"/>
<text text-anchor="start" x="172.5" y="-937.5" font-family="FreeSans" font-size="10.00" fill="#000000">G4JLeicDIRCSteppingAction</text>
<text text-anchor="middle" x="241.5" y="-925.5" font-family="FreeSans" font-size="10.00" fill="#000000">::UserSteppingAction</text>
</a>
</g>
</g>
<!-- Node1&#45;&gt;Node8 -->
<g id="edge7" class="edge">
<title>Node1&#45;&gt;Node8</title>
<path fill="none" stroke="#191970" d="M60.0518,-648.8694C72.023,-707.0976 108.8512,-872.4523 148,-909.5 152.7597,-914.0043 158.2392,-917.7164 164.1087,-920.7731"/>
<polygon fill="#191970" stroke="#191970" points="63.4119,-647.8276 57.9957,-638.7218 56.5513,-649.2178 63.4119,-647.8276"/>
</g>
<!-- Node9 -->
<g id="node9" class="node">
<title>Node9</title>
<g id="a_node9"><a xlink:href="../../da/d63/classG4JLeicVTXSteppingAction.html#ab1701821b95d2fc94fcebed9a66aa906" target="_top" xlink:title="stepping action">
<polygon fill="none" stroke="#000000" points="166.5,-867.5 166.5,-899.5 316.5,-899.5 316.5,-867.5 166.5,-867.5"/>
<text text-anchor="start" x="174.5" y="-886.5" font-family="FreeSans" font-size="10.00" fill="#000000">G4JLeicVTXSteppingAction</text>
<text text-anchor="middle" x="241.5" y="-874.5" font-family="FreeSans" font-size="10.00" fill="#000000">::UserSteppingAction</text>
</a>
</g>
</g>
<!-- Node1&#45;&gt;Node9 -->
<g id="edge8" class="edge">
<title>Node1&#45;&gt;Node9</title>
<path fill="none" stroke="#191970" d="M58.0774,-648.7603C63.7759,-693.5509 83.785,-801.5192 148,-858.5 153.4044,-863.2955 159.6311,-867.1854 166.2516,-870.3385"/>
<polygon fill="#191970" stroke="#191970" points="61.5248,-648.1044 56.8948,-638.5748 54.5715,-648.9118 61.5248,-648.1044"/>
</g>
<!-- Node10 -->
<g id="node10" class="node">
<title>Node10</title>
<g id="a_node10"><a xlink:href="../../d4/d8c/classPHG4PSTOFSteppingAction.html#af2e0928ffd36be66c0a5ef24e415cb98" target="_top" xlink:title="stepping action">
<polygon fill="none" stroke="#000000" points="165,-816.5 165,-848.5 318,-848.5 318,-816.5 165,-816.5"/>
<text text-anchor="start" x="173" y="-835.5" font-family="FreeSans" font-size="10.00" fill="#000000">PHG4PSTOFSteppingAction</text>
<text text-anchor="middle" x="241.5" y="-823.5" font-family="FreeSans" font-size="10.00" fill="#000000">::UserSteppingAction</text>
</a>
</g>
</g>
<!-- Node1&#45;&gt;Node10 -->
<g id="edge9" class="edge">
<title>Node1&#45;&gt;Node10</title>
<path fill="none" stroke="#191970" d="M60.701,-649.0286C70.3485,-686.4034 95.9913,-765.5583 148,-807.5 153.1011,-811.6137 158.8179,-815.0542 164.8445,-817.9312"/>
<polygon fill="#191970" stroke="#191970" points="63.9884,-647.738 58.209,-638.8583 57.1895,-649.4039 63.9884,-647.738"/>
</g>
<!-- Node11 -->
<g id="node11" class="node">
<title>Node11</title>
<g id="a_node11"><a xlink:href="../../d7/d09/classG4Example02SteppingAction.html#a94251d82eb8fc9d7c88ecb992861ce9d" target="_top" xlink:title="stepping action">
<polygon fill="none" stroke="#000000" points="159.5,-765.5 159.5,-797.5 323.5,-797.5 323.5,-765.5 159.5,-765.5"/>
<text text-anchor="start" x="167.5" y="-784.5" font-family="FreeSans" font-size="10.00" fill="#000000">G4Example02SteppingAction</text>
<text text-anchor="middle" x="241.5" y="-772.5" font-family="FreeSans" font-size="10.00" fill="#000000">::UserSteppingAction</text>
</a>
</g>
</g>
<!-- Node1&#45;&gt;Node11 -->
<g id="edge10" class="edge">
<title>Node1&#45;&gt;Node11</title>
<path fill="none" stroke="#191970" d="M64.6134,-647.8685C78.1938,-676.1371 107.2881,-728.3818 148,-756.5 152.9773,-759.9376 158.4037,-762.9028 164.0545,-765.4605"/>
<polygon fill="#191970" stroke="#191970" points="67.7075,-646.2214 60.3193,-638.6277 61.3594,-649.1713 67.7075,-646.2214"/>
</g>
<!-- Node12 -->
<g id="node12" class="node">
<title>Node12</title>
<g id="a_node12"><a xlink:href="../../d2/df9/classG4Example03SteppingAction.html#a919a91293a02081fac692b1547635ffa" target="_top" xlink:title="stepping action">
<polygon fill="none" stroke="#000000" points="159.5,-714.5 159.5,-746.5 323.5,-746.5 323.5,-714.5 159.5,-714.5"/>
<text text-anchor="start" x="167.5" y="-733.5" font-family="FreeSans" font-size="10.00" fill="#000000">G4Example03SteppingAction</text>
<text text-anchor="middle" x="241.5" y="-721.5" font-family="FreeSans" font-size="10.00" fill="#000000">::UserSteppingAction</text>
</a>
</g>
</g>
<!-- Node1&#45;&gt;Node12 -->
<g id="edge11" class="edge">
<title>Node1&#45;&gt;Node12</title>
<path fill="none" stroke="#191970" d="M72.2158,-645.9584C89.4196,-663.4748 118.1867,-690.0141 148,-705.5 154.561,-708.908 161.6287,-711.883 168.8351,-714.4731"/>
<polygon fill="#191970" stroke="#191970" points="74.6149,-643.4037 65.1628,-638.6174 69.5671,-648.2535 74.6149,-643.4037"/>
</g>
<!-- Node13 -->
<g id="node13" class="node">
<title>Node13</title>
<g id="a_node13"><a xlink:href="../../dc/d40/classG4LBLVtxSteppingAction.html#a8324b3f743f3c9f59eaae613d2886239" target="_top" xlink:title="stepping action">
<polygon fill="none" stroke="#000000" points="171,-663.5 171,-695.5 312,-695.5 312,-663.5 171,-663.5"/>
<text text-anchor="start" x="179" y="-682.5" font-family="FreeSans" font-size="10.00" fill="#000000">G4LBLVtxSteppingAction</text>
<text text-anchor="middle" x="241.5" y="-670.5" font-family="FreeSans" font-size="10.00" fill="#000000">::UserSteppingAction</text>
</a>
</g>
</g>
<!-- Node1&#45;&gt;Node13 -->
<g id="edge12" class="edge">
<title>Node1&#45;&gt;Node13</title>
<path fill="none" stroke="#191970" d="M101.3255,-641.447C116.1855,-645.6549 132.7864,-650.3166 148,-654.5 158.693,-657.4404 170.0871,-660.5263 181.1101,-663.4873"/>
<polygon fill="#191970" stroke="#191970" points="101.93,-637.9804 91.3544,-638.6178 100.0192,-644.7146 101.93,-637.9804"/>
</g>
<!-- Node14 -->
<g id="node14" class="node">
<title>Node14</title>
<g id="a_node14"><a xlink:href="../../d1/dc5/classBeamLineMagnetSteppingAction.html#a883b43655508a88443c4468104c67878" target="_top" xlink:title="stepping action">
<polygon fill="none" stroke="#000000" points="151,-612.5 151,-644.5 332,-644.5 332,-612.5 151,-612.5"/>
<text text-anchor="start" x="159" y="-631.5" font-family="FreeSans" font-size="10.00" fill="#000000">BeamLineMagnetSteppingAction</text>
<text text-anchor="middle" x="241.5" y="-619.5" font-family="FreeSans" font-size="10.00" fill="#000000">::UserSteppingAction</text>
</a>
</g>
</g>
<!-- Node1&#45;&gt;Node14 -->
<g id="edge13" class="edge">
<title>Node1&#45;&gt;Node14</title>
<path fill="none" stroke="#191970" d="M122.4251,-628.5C131.6804,-628.5 141.317,-628.5 150.9226,-628.5"/>
<polygon fill="#191970" stroke="#191970" points="122.1596,-625.0001 112.1595,-628.5 122.1595,-632.0001 122.1596,-625.0001"/>
</g>
<!-- Node15 -->
<g id="node15" class="node">
<title>Node15</title>
<g id="a_node15"><a xlink:href="../../d4/d7a/classPHG4InttSteppingAction.html#acec226c7e487b48b0477e47f18560552" target="_top" xlink:title="stepping action. This defines processing of a single step in a given volume">
<polygon fill="none" stroke="#000000" points="172.5,-561.5 172.5,-593.5 310.5,-593.5 310.5,-561.5 172.5,-561.5"/>
<text text-anchor="start" x="180.5" y="-580.5" font-family="FreeSans" font-size="10.00" fill="#000000">PHG4InttSteppingAction</text>
<text text-anchor="middle" x="241.5" y="-568.5" font-family="FreeSans" font-size="10.00" fill="#000000">::UserSteppingAction</text>
</a>
</g>
</g>
<!-- Node1&#45;&gt;Node15 -->
<g id="edge14" class="edge">
<title>Node1&#45;&gt;Node15</title>
<path fill="none" stroke="#191970" d="M102.389,-615.7462C126.8124,-609.0314 157.0094,-600.7292 183.0215,-593.5777"/>
<polygon fill="#191970" stroke="#191970" points="101.3632,-612.3982 92.6488,-618.424 103.2189,-619.1478 101.3632,-612.3982"/>
</g>
<!-- Node16 -->
<g id="node16" class="node">
<title>Node16</title>
<g id="a_node16"><a xlink:href="../../db/d42/classGdmlImportDetectorSteppingAction.html#ae5851f3744b5008338caedff27338372" target="_top" xlink:title="stepping action">
<polygon fill="none" stroke="#000000" points="159,-510.5 159,-542.5 324,-542.5 324,-510.5 159,-510.5"/>
<text text-anchor="start" x="167" y="-529.5" font-family="FreeSans" font-size="10.00" fill="#000000">GdmlImportDetectorStepping</text>
<text text-anchor="middle" x="241.5" y="-517.5" font-family="FreeSans" font-size="10.00" fill="#000000">Action::UserSteppingAction</text>
</a>
</g>
</g>
<!-- Node1&#45;&gt;Node16 -->
<g id="edge15" class="edge">
<title>Node1&#45;&gt;Node16</title>
<path fill="none" stroke="#191970" d="M72.5717,-611.0597C89.8672,-593.825 118.5321,-567.8726 148,-552.5 155.3197,-548.6815 163.2628,-545.3723 171.3225,-542.5172"/>
<polygon fill="#191970" stroke="#191970" points="69.9744,-608.7092 65.4631,-618.2956 74.9679,-613.6149 69.9744,-608.7092"/>
</g>
<!-- Node17 -->
<g id="node17" class="node">
<title>Node17</title>
<g id="a_node17"><a xlink:href="../../d1/da2/classPHG4BlockSteppingAction.html#ae7baa1eb4f42a8a23888709986dd6881" target="_top" xlink:title="stepping action">
<polygon fill="none" stroke="#000000" points="167.5,-459.5 167.5,-491.5 315.5,-491.5 315.5,-459.5 167.5,-459.5"/>
<text text-anchor="start" x="175.5" y="-478.5" font-family="FreeSans" font-size="10.00" fill="#000000">PHG4BlockSteppingAction</text>
<text text-anchor="middle" x="241.5" y="-466.5" font-family="FreeSans" font-size="10.00" fill="#000000">::UserSteppingAction</text>
</a>
</g>
</g>
<!-- Node1&#45;&gt;Node17 -->
<g id="edge16" class="edge">
<title>Node1&#45;&gt;Node17</title>
<path fill="none" stroke="#191970" d="M64.6902,-609.3349C78.3681,-581.3533 107.5849,-529.5997 148,-501.5 153.9484,-497.3642 160.5365,-493.8842 167.3815,-490.9565"/>
<polygon fill="#191970" stroke="#191970" points="61.4762,-607.9444 60.3621,-618.4805 67.8034,-610.9388 61.4762,-607.9444"/>
</g>
<!-- Node18 -->
<g id="node18" class="node">
<title>Node18</title>
<g id="a_node18"><a xlink:href="../../d3/d2e/classEicFRichSteppingAction.html#a02d45fc57ebb6e796ae7aadc278f0f76" target="_top" xlink:title="stepping action">
<polygon fill="none" stroke="#000000" points="174,-408.5 174,-440.5 309,-440.5 309,-408.5 174,-408.5"/>
<text text-anchor="start" x="182" y="-427.5" font-family="FreeSans" font-size="10.00" fill="#000000">EicFRichSteppingAction</text>
<text text-anchor="middle" x="241.5" y="-415.5" font-family="FreeSans" font-size="10.00" fill="#000000">::UserSteppingAction</text>
</a>
</g>
</g>
<!-- Node1&#45;&gt;Node18 -->
<g id="edge17" class="edge">
<title>Node1&#45;&gt;Node18</title>
<path fill="none" stroke="#191970" d="M60.776,-608.1337C70.546,-571.0453 96.3816,-492.4548 148,-450.5 155.5832,-444.3364 164.5297,-439.6311 173.8325,-436.0397"/>
<polygon fill="#191970" stroke="#191970" points="57.283,-607.6742 58.2489,-618.2249 64.0733,-609.3747 57.283,-607.6742"/>
</g>
<!-- Node19 -->
<g id="node19" class="node">
<title>Node19</title>
<g id="a_node19"><a xlink:href="../../dc/d34/classBeastMagnetSteppingAction.html#a3df595bac0e05a7a9b1c576db607b13a" target="_top" xlink:title="stepping action">
<polygon fill="none" stroke="#000000" points="162,-357.5 162,-389.5 321,-389.5 321,-357.5 162,-357.5"/>
<text text-anchor="start" x="170" y="-376.5" font-family="FreeSans" font-size="10.00" fill="#000000">BeastMagnetSteppingAction</text>
<text text-anchor="middle" x="241.5" y="-364.5" font-family="FreeSans" font-size="10.00" fill="#000000">::UserSteppingAction</text>
</a>
</g>
</g>
<!-- Node1&#45;&gt;Node19 -->
<g id="edge18" class="edge">
<title>Node1&#45;&gt;Node19</title>
<path fill="none" stroke="#191970" d="M58.1473,-608.3721C63.9878,-563.8658 84.266,-456.5371 148,-399.5 152.2687,-395.6798 157.0528,-392.4157 162.1401,-389.6275"/>
<polygon fill="#191970" stroke="#191970" points="54.6494,-608.1458 56.9312,-618.492 61.5994,-608.981 54.6494,-608.1458"/>
</g>
<!-- Node20 -->
<g id="node20" class="node">
<title>Node20</title>
<g id="a_node20"><a xlink:href="../../df/d6e/classPHG4CEmcTestBeamSteppingAction.html#a8d1b4646eb8c289c51769ebaa734e047" target="_top" xlink:title="stepping action">
<polygon fill="none" stroke="#000000" points="158,-306.5 158,-338.5 325,-338.5 325,-306.5 158,-306.5"/>
<text text-anchor="start" x="166" y="-325.5" font-family="FreeSans" font-size="10.00" fill="#000000">PHG4CEmcTestBeamStepping</text>
<text text-anchor="middle" x="241.5" y="-313.5" font-family="FreeSans" font-size="10.00" fill="#000000">Action::UserSteppingAction</text>
</a>
</g>
</g>
<!-- Node1&#45;&gt;Node20 -->
<g id="edge19" class="edge">
<title>Node1&#45;&gt;Node20</title>
<path fill="none" stroke="#191970" d="M60.08,-608.2211C72.1274,-550.249 109.1418,-385.6019 148,-348.5 152.0214,-344.6604 156.5596,-341.3787 161.4147,-338.5748"/>
<polygon fill="#191970" stroke="#191970" points="56.5885,-607.8248 58.0102,-618.3238 63.4461,-609.2298 56.5885,-607.8248"/>
</g>
<!-- Node21 -->
<g id="node21" class="node">
<title>Node21</title>
<g id="a_node21"><a xlink:href="../../df/d88/classAllSiliconTrackerSteppingAction.html#a0a89863a27df35bb83055a6ff233e9c0" target="_top" xlink:title="stepping action">
<polygon fill="none" stroke="#000000" points="164,-255.5 164,-287.5 319,-287.5 319,-255.5 164,-255.5"/>
<text text-anchor="start" x="172" y="-274.5" font-family="FreeSans" font-size="10.00" fill="#000000">AllSiliconTrackerStepping</text>
<text text-anchor="middle" x="241.5" y="-262.5" font-family="FreeSans" font-size="10.00" fill="#000000">Action::UserSteppingAction</text>
</a>
</g>
</g>
<!-- Node1&#45;&gt;Node21 -->
<g id="edge20" class="edge">
<title>Node1&#45;&gt;Node21</title>
<path fill="none" stroke="#191970" d="M59.0187,-608.0399C69.0094,-542.9903 102.9454,-342.56 148,-297.5 152.6461,-292.8534 158.0466,-289.0191 163.8638,-285.8575"/>
<polygon fill="#191970" stroke="#191970" points="55.5124,-607.8195 57.4808,-618.2298 62.434,-608.8641 55.5124,-607.8195"/>
</g>
<!-- Node22 -->
<g id="node22" class="node">
<title>Node22</title>
<g id="a_node22"><a xlink:href="../../d3/d82/classPHG4BbcSteppingAction.html#a5cb6795bfe737a5d0b460e8acc01ee66" target="_top" xlink:title="stepping action">
<polygon fill="none" stroke="#000000" points="171.5,-204.5 171.5,-236.5 311.5,-236.5 311.5,-204.5 171.5,-204.5"/>
<text text-anchor="start" x="179.5" y="-223.5" font-family="FreeSans" font-size="10.00" fill="#000000">PHG4BbcSteppingAction</text>
<text text-anchor="middle" x="241.5" y="-211.5" font-family="FreeSans" font-size="10.00" fill="#000000">::UserSteppingAction</text>
</a>
</g>
</g>
<!-- Node1&#45;&gt;Node22 -->
<g id="edge21" class="edge">
<title>Node1&#45;&gt;Node22</title>
<path fill="none" stroke="#191970" d="M58.1867,-608.2092C66.2595,-536.9703 96.6095,-299.7153 148,-246.5 154.5543,-239.713 162.7152,-234.6511 171.4662,-230.8844"/>
<polygon fill="#191970" stroke="#191970" points="54.7065,-607.8387 57.0826,-618.1636 61.6638,-608.6105 54.7065,-607.8387"/>
</g>
<!-- Node23 -->
<g id="node23" class="node">
<title>Node23</title>
<g id="a_node23"><a xlink:href="../../db/d97/classPHG4HcalSteppingAction.html#a3b7e2152d047bd72e38f36b695351fc7" target="_top" xlink:title="stepping action">
<polygon fill="none" stroke="#000000" points="170,-153.5 170,-185.5 313,-185.5 313,-153.5 170,-153.5"/>
<text text-anchor="start" x="178" y="-172.5" font-family="FreeSans" font-size="10.00" fill="#000000">PHG4HcalSteppingAction</text>
<text text-anchor="middle" x="241.5" y="-160.5" font-family="FreeSans" font-size="10.00" fill="#000000">::UserSteppingAction</text>
</a>
</g>
</g>
<!-- Node1&#45;&gt;Node23 -->
<g id="edge22" class="edge">
<title>Node1&#45;&gt;Node23</title>
<path fill="none" stroke="#191970" d="M57.5765,-608.0822C63.9526,-530.7174 90.2994,-256.8854 148,-195.5 154.116,-188.9935 161.7071,-184.0666 169.9005,-180.3443"/>
<polygon fill="#191970" stroke="#191970" points="54.0607,-608.1406 56.7509,-618.3882 61.0384,-608.6996 54.0607,-608.1406"/>
</g>
<!-- Node24 -->
<g id="node24" class="node">
<title>Node24</title>
<g id="a_node24"><a xlink:href="../../d9/d1f/classPHG4TpcEndCapSteppingAction.html#a94de0459274eaed3e0bca552c8f271fc" target="_top" xlink:title="stepping action">
<polygon fill="none" stroke="#000000" points="152.5,-102.5 152.5,-134.5 330.5,-134.5 330.5,-102.5 152.5,-102.5"/>
<text text-anchor="start" x="160.5" y="-121.5" font-family="FreeSans" font-size="10.00" fill="#000000">PHG4TpcEndCapSteppingAction</text>
<text text-anchor="middle" x="241.5" y="-109.5" font-family="FreeSans" font-size="10.00" fill="#000000">::UserSteppingAction</text>
</a>
</g>
</g>
<!-- Node1&#45;&gt;Node24 -->
<g id="edge23" class="edge">
<title>Node1&#45;&gt;Node24</title>
<path fill="none" stroke="#191970" d="M57.063,-608.3842C61.8248,-525.8474 83.8451,-214.2402 148,-144.5 151.5361,-140.656 155.5869,-137.3618 159.9758,-134.5404"/>
<polygon fill="#191970" stroke="#191970" points="53.5633,-608.2824 56.503,-618.4612 60.5526,-608.6709 53.5633,-608.2824"/>
</g>
<!-- Node25 -->
<g id="node25" class="node">
<title>Node25</title>
<g id="a_node25"><a xlink:href="../../da/d58/classPHG4CylinderSteppingAction.html#a617bc1e8c57c83679e482a27a7d5a8b5" target="_top" xlink:title="stepping action">
<polygon fill="none" stroke="#000000" points="160,-51.5 160,-83.5 323,-83.5 323,-51.5 160,-51.5"/>
<text text-anchor="start" x="168" y="-70.5" font-family="FreeSans" font-size="10.00" fill="#000000">PHG4CylinderSteppingAction</text>
<text text-anchor="middle" x="241.5" y="-58.5" font-family="FreeSans" font-size="10.00" fill="#000000">::UserSteppingAction</text>
</a>
</g>
</g>
<!-- Node1&#45;&gt;Node25 -->
<g id="edge24" class="edge">
<title>Node1&#45;&gt;Node25</title>
<path fill="none" stroke="#191970" d="M56.6699,-608.2643C59.99,-520.2331 77.4692,-171.5341 148,-93.5 151.5023,-89.6252 155.5274,-86.3075 159.8974,-83.4689"/>
<polygon fill="#191970" stroke="#191970" points="53.1709,-608.1744 56.3116,-618.2931 60.1665,-608.4244 53.1709,-608.1744"/>
</g>
<!-- Node26 -->
<g id="node26" class="node">
<title>Node26</title>
<g id="a_node26"><a xlink:href="../../de/dea/classPHG4SpacalSteppingAction.html#a1c2df9729591e53ff47876e8e9359375" target="_top" xlink:title="stepping action">
<polygon fill="none" stroke="#000000" points="164,-.5 164,-32.5 319,-32.5 319,-.5 164,-.5"/>
<text text-anchor="start" x="172" y="-19.5" font-family="FreeSans" font-size="10.00" fill="#000000">PHG4SpacalSteppingAction</text>
<text text-anchor="middle" x="241.5" y="-7.5" font-family="FreeSans" font-size="10.00" fill="#000000">::UserSteppingAction</text>
</a>
</g>
</g>
<!-- Node1&#45;&gt;Node26 -->
<g id="edge25" class="edge">
<title>Node1&#45;&gt;Node26</title>
<path fill="none" stroke="#191970" d="M56.3403,-608.1506C58.3117,-514.8542 71.0693,-128.8716 148,-42.5 152.4825,-37.4674 157.8469,-33.3727 163.7083,-30.0457"/>
<polygon fill="#191970" stroke="#191970" points="52.839,-608.1885 56.146,-618.254 59.8377,-608.3232 52.839,-608.1885"/>
</g>
</g>
</svg>
