<?xml version="1.0" encoding="UTF-8" standalone="no"?>
<!DOCTYPE svg PUBLIC "-//W3C//DTD SVG 1.1//EN"
 "http://www.w3.org/Graphics/SVG/1.1/DTD/svg11.dtd">
<!-- Generated by graphviz version 2.40.1 (20161225.0304)
 -->
<!-- Title: PHG4Hit::set_trkid Pages: 1 -->
<svg width="520pt" height="1979pt"
 viewBox="0.00 0.00 520.00 1979.00" xmlns="http://www.w3.org/2000/svg" xmlns:xlink="http://www.w3.org/1999/xlink">
<g id="graph0" class="graph" transform="scale(1 1) rotate(0) translate(4 1975)">
<title>PHG4Hit::set_trkid</title>
<!-- Node1 -->
<g id="node1" class="node">
<title>Node1</title>
<polygon fill="#bfbfbf" stroke="#000000" points="0,-975.5 0,-995.5 108,-995.5 108,-975.5 0,-975.5"/>
<text text-anchor="middle" x="54" y="-982.5" font-family="FreeSans" font-size="10.00" fill="#000000">PHG4Hit::set_trkid</text>
</g>
<!-- Node2 -->
<g id="node2" class="node">
<title>Node2</title>
<g id="a_node2"><a xlink:href="../../de/d4d/classPHG4RICHSteppingAction.html#a57a3def2fb88ca9e940930e694f78b34" target="_top" xlink:title="PHG4RICHSteppingAction\l::MakeHit">
<polygon fill="none" stroke="#000000" points="165,-1938.5 165,-1970.5 310,-1970.5 310,-1938.5 165,-1938.5"/>
<text text-anchor="start" x="173" y="-1957.5" font-family="FreeSans" font-size="10.00" fill="#000000">PHG4RICHSteppingAction</text>
<text text-anchor="middle" x="237.5" y="-1945.5" font-family="FreeSans" font-size="10.00" fill="#000000">::MakeHit</text>
</a>
</g>
</g>
<!-- Node1&#45;&gt;Node2 -->
<g id="edge1" class="edge">
<title>Node1&#45;&gt;Node2</title>
<path fill="none" stroke="#191970" d="M54.5621,-1005.6756C58.3702,-1136.0477 82.1257,-1856.3808 144,-1929.5 149.6441,-1936.1699 156.8531,-1941.1616 164.7584,-1944.8818"/>
<polygon fill="#191970" stroke="#191970" points="58.0562,-1005.4132 54.2714,-995.5175 51.059,-1005.6136 58.0562,-1005.4132"/>
</g>
<!-- Node4 -->
<g id="node4" class="node">
<title>Node4</title>
<g id="a_node4"><a xlink:href="../../d7/da4/classPHG4GenHit.html#ac94e3d486c5184596fff96b0b6070fb1" target="_top" xlink:title="PHG4GenHit::process\l_event">
<polygon fill="none" stroke="#000000" points="175,-1887.5 175,-1919.5 300,-1919.5 300,-1887.5 175,-1887.5"/>
<text text-anchor="start" x="183" y="-1906.5" font-family="FreeSans" font-size="10.00" fill="#000000">PHG4GenHit::process</text>
<text text-anchor="middle" x="237.5" y="-1894.5" font-family="FreeSans" font-size="10.00" fill="#000000">_event</text>
</a>
</g>
</g>
<!-- Node1&#45;&gt;Node4 -->
<g id="edge3" class="edge">
<title>Node1&#45;&gt;Node4</title>
<path fill="none" stroke="#191970" d="M54.6801,-1005.7478C59.1013,-1132.1415 85.4327,-1809.666 144,-1878.5 151.9487,-1887.8421 162.9671,-1893.8891 174.658,-1897.7607"/>
<polygon fill="#191970" stroke="#191970" points="58.1714,-1005.4308 54.3298,-995.557 51.1755,-1005.6714 58.1714,-1005.4308"/>
</g>
<!-- Node5 -->
<g id="node5" class="node">
<title>Node5</title>
<g id="a_node5"><a xlink:href="../../d0/ded/classPHG4FPbScSteppingAction.html#a98d2f21e9a364a81d036dc6c34293906" target="_top" xlink:title="stepping action. This defines processing of a single step in a given volume">
<polygon fill="none" stroke="#000000" points="162,-1836.5 162,-1868.5 313,-1868.5 313,-1836.5 162,-1836.5"/>
<text text-anchor="start" x="170" y="-1855.5" font-family="FreeSans" font-size="10.00" fill="#000000">PHG4FPbScSteppingAction</text>
<text text-anchor="middle" x="237.5" y="-1843.5" font-family="FreeSans" font-size="10.00" fill="#000000">::UserSteppingAction</text>
</a>
</g>
</g>
<!-- Node1&#45;&gt;Node5 -->
<g id="edge4" class="edge">
<title>Node1&#45;&gt;Node5</title>
<path fill="none" stroke="#191970" d="M54.8086,-1005.7163C59.864,-1127.7397 88.7186,-1762.924 144,-1827.5 148.9173,-1833.244 154.9949,-1837.7411 161.6729,-1841.2522"/>
<polygon fill="#191970" stroke="#191970" points="58.2985,-1005.3949 54.3936,-995.546 51.3043,-1005.6804 58.2985,-1005.3949"/>
</g>
<!-- Node6 -->
<g id="node6" class="node">
<title>Node6</title>
<g id="a_node6"><a xlink:href="../../df/d1b/classPHG4FCalSteppingAction.html#a50bdb3c0092cb374a9f9ce0e13ff0afa" target="_top" xlink:title="PHG4FCalSteppingAction\l::UserSteppingAction">
<polygon fill="none" stroke="#000000" points="166,-1785.5 166,-1817.5 309,-1817.5 309,-1785.5 166,-1785.5"/>
<text text-anchor="start" x="174" y="-1804.5" font-family="FreeSans" font-size="10.00" fill="#000000">PHG4FCalSteppingAction</text>
<text text-anchor="middle" x="237.5" y="-1792.5" font-family="FreeSans" font-size="10.00" fill="#000000">::UserSteppingAction</text>
</a>
</g>
</g>
<!-- Node1&#45;&gt;Node6 -->
<g id="edge5" class="edge">
<title>Node1&#45;&gt;Node6</title>
<path fill="none" stroke="#191970" d="M54.9659,-1005.9465C60.7234,-1124.0895 92.0379,-1716.2181 144,-1776.5 149.9241,-1783.3727 157.5093,-1788.4583 165.7911,-1792.205"/>
<polygon fill="#191970" stroke="#191970" points="58.4523,-1005.5783 54.4759,-995.758 51.4604,-1005.9146 58.4523,-1005.5783"/>
</g>
<!-- Node7 -->
<g id="node7" class="node">
<title>Node7</title>
<g id="a_node7"><a xlink:href="../../de/d7a/classG4Example01SteppingAction.html#a200cc4123fe2bcecd25f62f51347bf26" target="_top" xlink:title="stepping action">
<polygon fill="none" stroke="#000000" points="155.5,-1734.5 155.5,-1766.5 319.5,-1766.5 319.5,-1734.5 155.5,-1734.5"/>
<text text-anchor="start" x="163.5" y="-1753.5" font-family="FreeSans" font-size="10.00" fill="#000000">G4Example01SteppingAction</text>
<text text-anchor="middle" x="237.5" y="-1741.5" font-family="FreeSans" font-size="10.00" fill="#000000">::UserSteppingAction</text>
</a>
</g>
</g>
<!-- Node1&#45;&gt;Node7 -->
<g id="edge6" class="edge">
<title>Node1&#45;&gt;Node7</title>
<path fill="none" stroke="#191970" d="M55.1184,-1005.6758C61.5529,-1118.6204 95.2779,-1669.4169 144,-1725.5 147.3059,-1729.3054 151.1211,-1732.5622 155.2807,-1735.3468"/>
<polygon fill="#191970" stroke="#191970" points="58.6093,-1005.4136 54.5526,-995.6262 51.6204,-1005.8072 58.6093,-1005.4136"/>
</g>
<!-- Node8 -->
<g id="node8" class="node">
<title>Node8</title>
<g id="a_node8"><a xlink:href="../../d4/d7a/classPHG4ConeSteppingAction.html#aafbfccdd1c6a946b946087b0e15580b7" target="_top" xlink:title="stepping action">
<polygon fill="none" stroke="#000000" points="164,-1683.5 164,-1715.5 311,-1715.5 311,-1683.5 164,-1683.5"/>
<text text-anchor="start" x="172" y="-1702.5" font-family="FreeSans" font-size="10.00" fill="#000000">PHG4ConeSteppingAction</text>
<text text-anchor="middle" x="237.5" y="-1690.5" font-family="FreeSans" font-size="10.00" fill="#000000">::UserSteppingAction</text>
</a>
</g>
</g>
<!-- Node1&#45;&gt;Node8 -->
<g id="edge7" class="edge">
<title>Node1&#45;&gt;Node8</title>
<path fill="none" stroke="#191970" d="M55.327,-1005.9545C62.5613,-1114.7688 98.5899,-1622.6947 144,-1674.5 149.4272,-1680.6915 156.2023,-1685.4287 163.6104,-1689.0416"/>
<polygon fill="#191970" stroke="#191970" points="58.8007,-1005.4395 54.6518,-995.6908 51.8158,-1005.899 58.8007,-1005.4395"/>
</g>
<!-- Node9 -->
<g id="node9" class="node">
<title>Node9</title>
<g id="a_node9"><a xlink:href="../../da/deb/classPHG4EnvelopeSteppingAction.html#a3becff8a1582e574c780595c6c706a17" target="_top" xlink:title="stepping action. This defines processing of a single step in a given volume">
<polygon fill="none" stroke="#000000" points="153.5,-1632.5 153.5,-1664.5 321.5,-1664.5 321.5,-1632.5 153.5,-1632.5"/>
<text text-anchor="start" x="161.5" y="-1651.5" font-family="FreeSans" font-size="10.00" fill="#000000">PHG4EnvelopeSteppingAction</text>
<text text-anchor="middle" x="237.5" y="-1639.5" font-family="FreeSans" font-size="10.00" fill="#000000">::UserSteppingAction</text>
</a>
</g>
</g>
<!-- Node1&#45;&gt;Node9 -->
<g id="edge8" class="edge">
<title>Node1&#45;&gt;Node9</title>
<path fill="none" stroke="#191970" d="M55.5325,-1005.7278C63.5409,-1109.1551 101.8238,-1575.8787 144,-1623.5 147.0079,-1626.8963 150.4214,-1629.8542 154.1215,-1632.4286"/>
<polygon fill="#191970" stroke="#191970" points="59.0156,-1005.372 54.7609,-995.669 52.0361,-1005.9075 59.0156,-1005.372"/>
</g>
<!-- Node10 -->
<g id="node10" class="node">
<title>Node10</title>
<g id="a_node10"><a xlink:href="../../d9/df3/classPHG4SectorSteppingAction.html#a036bbd0a507b1ffafa4fd910a509372c" target="_top" xlink:title="stepping action">
<polygon fill="none" stroke="#000000" points="161,-1581.5 161,-1613.5 314,-1613.5 314,-1581.5 161,-1581.5"/>
<text text-anchor="start" x="169" y="-1600.5" font-family="FreeSans" font-size="10.00" fill="#000000">PHG4SectorSteppingAction</text>
<text text-anchor="middle" x="237.5" y="-1588.5" font-family="FreeSans" font-size="10.00" fill="#000000">::UserSteppingAction</text>
</a>
</g>
</g>
<!-- Node1&#45;&gt;Node10 -->
<g id="edge9" class="edge">
<title>Node1&#45;&gt;Node10</title>
<path fill="none" stroke="#191970" d="M54.2412,-1005.8974C55.7625,-1099.4118 66.7061,-1486.2747 144,-1572.5 148.7106,-1577.7549 154.3923,-1581.9585 160.5995,-1585.3142"/>
<polygon fill="#191970" stroke="#191970" points="57.7391,-1005.719 54.0958,-995.7703 50.7398,-1005.8195 57.7391,-1005.719"/>
</g>
<!-- Node11 -->
<g id="node11" class="node">
<title>Node11</title>
<g id="a_node11"><a xlink:href="../../db/d8a/classPHG4EPSteppingAction.html#a32835c80d821720b2e63958d8d15350c" target="_top" xlink:title="stepping action. This defines processing of a single step in a given volume">
<polygon fill="none" stroke="#000000" points="171,-1530.5 171,-1562.5 304,-1562.5 304,-1530.5 171,-1530.5"/>
<text text-anchor="start" x="179" y="-1549.5" font-family="FreeSans" font-size="10.00" fill="#000000">PHG4EPSteppingAction</text>
<text text-anchor="middle" x="237.5" y="-1537.5" font-family="FreeSans" font-size="10.00" fill="#000000">::UserSteppingAction</text>
</a>
</g>
</g>
<!-- Node1&#45;&gt;Node11 -->
<g id="edge10" class="edge">
<title>Node1&#45;&gt;Node11</title>
<path fill="none" stroke="#191970" d="M54.5641,-1005.7866C57.4288,-1094.0372 73.15,-1443.5851 144,-1521.5 151.2348,-1529.4563 160.696,-1534.9969 170.8182,-1538.8325"/>
<polygon fill="#191970" stroke="#191970" points="58.0608,-1005.6215 54.258,-995.7327 51.0641,-1005.8347 58.0608,-1005.6215"/>
</g>
<!-- Node12 -->
<g id="node12" class="node">
<title>Node12</title>
<g id="a_node12"><a xlink:href="../../d8/d10/classPHG4EICMvtxSteppingAction.html#ab3c497977619323e39bd4e1e1a6fe654" target="_top" xlink:title="stepping action">
<polygon fill="none" stroke="#000000" points="156.5,-1479.5 156.5,-1511.5 318.5,-1511.5 318.5,-1479.5 156.5,-1479.5"/>
<text text-anchor="start" x="164.5" y="-1498.5" font-family="FreeSans" font-size="10.00" fill="#000000">PHG4EICMvtxSteppingAction</text>
<text text-anchor="middle" x="237.5" y="-1486.5" font-family="FreeSans" font-size="10.00" fill="#000000">::UserSteppingAction</text>
</a>
</g>
</g>
<!-- Node1&#45;&gt;Node12 -->
<g id="edge11" class="edge">
<title>Node1&#45;&gt;Node12</title>
<path fill="none" stroke="#191970" d="M54.9493,-1005.6702C59.2492,-1088.4284 79.5702,-1400.8528 144,-1470.5 147.6513,-1474.447 151.8508,-1477.7979 156.4043,-1480.64"/>
<polygon fill="#191970" stroke="#191970" points="58.4393,-1005.3795 54.446,-995.5661 51.4479,-1005.7278 58.4393,-1005.3795"/>
</g>
<!-- Node13 -->
<g id="node13" class="node">
<title>Node13</title>
<g id="a_node13"><a xlink:href="../../d1/d77/classPHG4MvtxSteppingAction.html#ac3767340e8508dc30b0eea8bc3620c15" target="_top" xlink:title="stepping action">
<polygon fill="none" stroke="#000000" points="165,-1428.5 165,-1460.5 310,-1460.5 310,-1428.5 165,-1428.5"/>
<text text-anchor="start" x="173" y="-1447.5" font-family="FreeSans" font-size="10.00" fill="#000000">PHG4MvtxSteppingAction</text>
<text text-anchor="middle" x="237.5" y="-1435.5" font-family="FreeSans" font-size="10.00" fill="#000000">::UserSteppingAction</text>
</a>
</g>
</g>
<!-- Node1&#45;&gt;Node13 -->
<g id="edge12" class="edge">
<title>Node1&#45;&gt;Node13</title>
<path fill="none" stroke="#191970" d="M55.4505,-1005.9779C61.3535,-1083.5687 86.0697,-1358.1826 144,-1419.5 149.885,-1425.7291 157.1361,-1430.4685 164.9753,-1434.0646"/>
<polygon fill="#191970" stroke="#191970" points="58.9143,-1005.3572 54.6882,-995.6417 51.9333,-1005.8721 58.9143,-1005.3572"/>
</g>
<!-- Node14 -->
<g id="node14" class="node">
<title>Node14</title>
<g id="a_node14"><a xlink:href="../../dc/d04/classPHG4TpcSteppingAction.html#a68420823833d0cacfbcd8e9244423846" target="_top" xlink:title="stepping action">
<polygon fill="none" stroke="#000000" points="168,-1377.5 168,-1409.5 307,-1409.5 307,-1377.5 168,-1377.5"/>
<text text-anchor="start" x="176" y="-1396.5" font-family="FreeSans" font-size="10.00" fill="#000000">PHG4TpcSteppingAction</text>
<text text-anchor="middle" x="237.5" y="-1384.5" font-family="FreeSans" font-size="10.00" fill="#000000">::UserSteppingAction</text>
</a>
</g>
</g>
<!-- Node1&#45;&gt;Node14 -->
<g id="edge13" class="edge">
<title>Node1&#45;&gt;Node14</title>
<path fill="none" stroke="#191970" d="M56.0452,-1005.8297C63.6316,-1077.2655 92.4187,-1315.3227 144,-1368.5 150.6685,-1375.3748 159.0027,-1380.4276 167.9304,-1384.1288"/>
<polygon fill="#191970" stroke="#191970" points="59.4879,-1005.0947 54.9751,-995.509 52.5252,-1005.8167 59.4879,-1005.0947"/>
</g>
<!-- Node15 -->
<g id="node15" class="node">
<title>Node15</title>
<g id="a_node15"><a xlink:href="../../da/d63/classG4JLeicVTXSteppingAction.html#ab1701821b95d2fc94fcebed9a66aa906" target="_top" xlink:title="stepping action">
<polygon fill="none" stroke="#000000" points="162.5,-1326.5 162.5,-1358.5 312.5,-1358.5 312.5,-1326.5 162.5,-1326.5"/>
<text text-anchor="start" x="170.5" y="-1345.5" font-family="FreeSans" font-size="10.00" fill="#000000">G4JLeicVTXSteppingAction</text>
<text text-anchor="middle" x="237.5" y="-1333.5" font-family="FreeSans" font-size="10.00" fill="#000000">::UserSteppingAction</text>
</a>
</g>
</g>
<!-- Node1&#45;&gt;Node15 -->
<g id="edge14" class="edge">
<title>Node1&#45;&gt;Node15</title>
<path fill="none" stroke="#191970" d="M56.8614,-1006.0351C66.3572,-1071.3209 98.8078,-1272.4637 144,-1317.5 149.2368,-1322.7188 155.4356,-1326.8821 162.1109,-1330.1987"/>
<polygon fill="#191970" stroke="#191970" points="60.2796,-1005.213 55.4015,-995.808 53.3499,-1006.2023 60.2796,-1005.213"/>
</g>
<!-- Node16 -->
<g id="node16" class="node">
<title>Node16</title>
<g id="a_node16"><a xlink:href="../../d2/df9/classG4Example03SteppingAction.html#a919a91293a02081fac692b1547635ffa" target="_top" xlink:title="stepping action">
<polygon fill="none" stroke="#000000" points="155.5,-1275.5 155.5,-1307.5 319.5,-1307.5 319.5,-1275.5 155.5,-1275.5"/>
<text text-anchor="start" x="163.5" y="-1294.5" font-family="FreeSans" font-size="10.00" fill="#000000">G4Example03SteppingAction</text>
<text text-anchor="middle" x="237.5" y="-1282.5" font-family="FreeSans" font-size="10.00" fill="#000000">::UserSteppingAction</text>
</a>
</g>
</g>
<!-- Node1&#45;&gt;Node16 -->
<g id="edge15" class="edge">
<title>Node1&#45;&gt;Node16</title>
<path fill="none" stroke="#191970" d="M57.9007,-1005.8647C69.441,-1064.0801 105.0521,-1229.4039 144,-1266.5 147.5285,-1269.8607 151.4574,-1272.7808 155.6507,-1275.317"/>
<polygon fill="#191970" stroke="#191970" points="61.2714,-1004.8633 55.9198,-995.7194 54.4011,-1006.2048 61.2714,-1004.8633"/>
</g>
<!-- Node17 -->
<g id="node17" class="node">
<title>Node17</title>
<g id="a_node17"><a xlink:href="../../d7/d09/classG4Example02SteppingAction.html#a94251d82eb8fc9d7c88ecb992861ce9d" target="_top" xlink:title="stepping action">
<polygon fill="none" stroke="#000000" points="155.5,-1224.5 155.5,-1256.5 319.5,-1256.5 319.5,-1224.5 155.5,-1224.5"/>
<text text-anchor="start" x="163.5" y="-1243.5" font-family="FreeSans" font-size="10.00" fill="#000000">G4Example02SteppingAction</text>
<text text-anchor="middle" x="237.5" y="-1231.5" font-family="FreeSans" font-size="10.00" fill="#000000">::UserSteppingAction</text>
</a>
</g>
</g>
<!-- Node1&#45;&gt;Node17 -->
<g id="edge16" class="edge">
<title>Node1&#45;&gt;Node17</title>
<path fill="none" stroke="#191970" d="M55.888,-1005.7499C61.1703,-1050.5196 80.1898,-1158.4481 144,-1215.5 147.7579,-1218.8599 151.919,-1221.7756 156.3373,-1224.3051"/>
<polygon fill="#191970" stroke="#191970" points="59.3429,-1005.141 54.8003,-995.5695 52.3826,-1005.8847 59.3429,-1005.141"/>
</g>
<!-- Node18 -->
<g id="node18" class="node">
<title>Node18</title>
<g id="a_node18"><a xlink:href="../../d3/d1c/classG4JLeicDIRCSteppingAction.html#a7bd556203725880960690020534378f4" target="_top" xlink:title="stepping action">
<polygon fill="none" stroke="#000000" points="160.5,-1173.5 160.5,-1205.5 314.5,-1205.5 314.5,-1173.5 160.5,-1173.5"/>
<text text-anchor="start" x="168.5" y="-1192.5" font-family="FreeSans" font-size="10.00" fill="#000000">G4JLeicDIRCSteppingAction</text>
<text text-anchor="middle" x="237.5" y="-1180.5" font-family="FreeSans" font-size="10.00" fill="#000000">::UserSteppingAction</text>
</a>
</g>
</g>
<!-- Node1&#45;&gt;Node18 -->
<g id="edge17" class="edge">
<title>Node1&#45;&gt;Node18</title>
<path fill="none" stroke="#191970" d="M58.4623,-1006.0208C67.677,-1043.3829 92.4114,-1122.5178 144,-1164.5 148.9524,-1168.5302 154.4948,-1171.9148 160.3427,-1174.7567"/>
<polygon fill="#191970" stroke="#191970" points="61.7706,-1004.7962 56.0883,-995.8541 54.954,-1006.388 61.7706,-1004.7962"/>
</g>
<!-- Node19 -->
<g id="node19" class="node">
<title>Node19</title>
<g id="a_node19"><a xlink:href="../../dc/d40/classG4LBLVtxSteppingAction.html#a8324b3f743f3c9f59eaae613d2886239" target="_top" xlink:title="stepping action">
<polygon fill="none" stroke="#000000" points="167,-1122.5 167,-1154.5 308,-1154.5 308,-1122.5 167,-1122.5"/>
<text text-anchor="start" x="175" y="-1141.5" font-family="FreeSans" font-size="10.00" fill="#000000">G4LBLVtxSteppingAction</text>
<text text-anchor="middle" x="237.5" y="-1129.5" font-family="FreeSans" font-size="10.00" fill="#000000">::UserSteppingAction</text>
</a>
</g>
</g>
<!-- Node1&#45;&gt;Node19 -->
<g id="edge18" class="edge">
<title>Node1&#45;&gt;Node19</title>
<path fill="none" stroke="#191970" d="M62.3122,-1004.8678C75.4526,-1033.1355 103.7328,-1085.3791 144,-1113.5 150.888,-1118.3103 158.6522,-1122.1953 166.6874,-1125.3328"/>
<polygon fill="#191970" stroke="#191970" points="65.4518,-1003.3154 58.1618,-995.6273 59.0663,-1006.1835 65.4518,-1003.3154"/>
</g>
<!-- Node20 -->
<g id="node20" class="node">
<title>Node20</title>
<g id="a_node20"><a xlink:href="../../d4/d8c/classPHG4PSTOFSteppingAction.html#af2e0928ffd36be66c0a5ef24e415cb98" target="_top" xlink:title="stepping action">
<polygon fill="none" stroke="#000000" points="161,-1071.5 161,-1103.5 314,-1103.5 314,-1071.5 161,-1071.5"/>
<text text-anchor="start" x="169" y="-1090.5" font-family="FreeSans" font-size="10.00" fill="#000000">PHG4PSTOFSteppingAction</text>
<text text-anchor="middle" x="237.5" y="-1078.5" font-family="FreeSans" font-size="10.00" fill="#000000">::UserSteppingAction</text>
</a>
</g>
</g>
<!-- Node1&#45;&gt;Node20 -->
<g id="edge19" class="edge">
<title>Node1&#45;&gt;Node20</title>
<path fill="none" stroke="#191970" d="M69.7872,-1002.974C86.5559,-1020.5027 114.6494,-1047.0519 144,-1062.5 150.3937,-1065.8652 157.2775,-1068.8052 164.3063,-1071.368"/>
<polygon fill="#191970" stroke="#191970" points="72.3028,-1000.5397 62.9156,-995.6272 67.1904,-1005.3214 72.3028,-1000.5397"/>
</g>
<!-- Node21 -->
<g id="node21" class="node">
<title>Node21</title>
<g id="a_node21"><a xlink:href="../../d7/d9e/classG4JLeicBeamLineMagnetSteppingAction.html#a6e9fa94eaab97e06c9ca5752e446b00f" target="_top" xlink:title="stepping action">
<polygon fill="none" stroke="#000000" points="144,-1020.5 144,-1052.5 331,-1052.5 331,-1020.5 144,-1020.5"/>
<text text-anchor="start" x="152" y="-1039.5" font-family="FreeSans" font-size="10.00" fill="#000000">G4JLeicBeamLineMagnetStepping</text>
<text text-anchor="middle" x="237.5" y="-1027.5" font-family="FreeSans" font-size="10.00" fill="#000000">Action::UserSteppingAction</text>
</a>
</g>
</g>
<!-- Node1&#45;&gt;Node21 -->
<g id="edge20" class="edge">
<title>Node1&#45;&gt;Node21</title>
<path fill="none" stroke="#191970" d="M97.9527,-998.3876C112.5834,-1002.6268 128.9771,-1007.3221 144,-1011.5 154.6035,-1014.4489 165.9018,-1017.5254 176.8454,-1020.4711"/>
<polygon fill="#191970" stroke="#191970" points="98.7234,-994.9669 88.144,-995.5377 96.7703,-1001.6889 98.7234,-994.9669"/>
</g>
<!-- Node22 -->
<g id="node22" class="node">
<title>Node22</title>
<g id="a_node22"><a xlink:href="../../d1/dc5/classBeamLineMagnetSteppingAction.html#a883b43655508a88443c4468104c67878" target="_top" xlink:title="stepping action">
<polygon fill="none" stroke="#000000" points="147,-969.5 147,-1001.5 328,-1001.5 328,-969.5 147,-969.5"/>
<text text-anchor="start" x="155" y="-988.5" font-family="FreeSans" font-size="10.00" fill="#000000">BeamLineMagnetSteppingAction</text>
<text text-anchor="middle" x="237.5" y="-976.5" font-family="FreeSans" font-size="10.00" fill="#000000">::UserSteppingAction</text>
</a>
</g>
</g>
<!-- Node1&#45;&gt;Node22 -->
<g id="edge21" class="edge">
<title>Node1&#45;&gt;Node22</title>
<path fill="none" stroke="#191970" d="M118.3443,-985.5C127.6254,-985.5 137.3185,-985.5 146.9932,-985.5"/>
<polygon fill="#191970" stroke="#191970" points="118.0636,-982.0001 108.0636,-985.5 118.0635,-989.0001 118.0636,-982.0001"/>
</g>
<!-- Node23 -->
<g id="node23" class="node">
<title>Node23</title>
<g id="a_node23"><a xlink:href="../../d4/d7a/classPHG4InttSteppingAction.html#acec226c7e487b48b0477e47f18560552" target="_top" xlink:title="stepping action. This defines processing of a single step in a given volume">
<polygon fill="none" stroke="#000000" points="168.5,-918.5 168.5,-950.5 306.5,-950.5 306.5,-918.5 168.5,-918.5"/>
<text text-anchor="start" x="176.5" y="-937.5" font-family="FreeSans" font-size="10.00" fill="#000000">PHG4InttSteppingAction</text>
<text text-anchor="middle" x="237.5" y="-925.5" font-family="FreeSans" font-size="10.00" fill="#000000">::UserSteppingAction</text>
</a>
</g>
</g>
<!-- Node1&#45;&gt;Node23 -->
<g id="edge22" class="edge">
<title>Node1&#45;&gt;Node23</title>
<path fill="none" stroke="#191970" d="M99.8888,-972.7462C124.0489,-966.0314 153.9203,-957.7292 179.652,-950.5777"/>
<polygon fill="#191970" stroke="#191970" points="98.9512,-969.374 90.2537,-975.424 100.8258,-976.1184 98.9512,-969.374"/>
</g>
<!-- Node24 -->
<g id="node24" class="node">
<title>Node24</title>
<g id="a_node24"><a xlink:href="../../db/d42/classGdmlImportDetectorSteppingAction.html#ae5851f3744b5008338caedff27338372" target="_top" xlink:title="stepping action">
<polygon fill="none" stroke="#000000" points="155,-867.5 155,-899.5 320,-899.5 320,-867.5 155,-867.5"/>
<text text-anchor="start" x="163" y="-886.5" font-family="FreeSans" font-size="10.00" fill="#000000">GdmlImportDetectorStepping</text>
<text text-anchor="middle" x="237.5" y="-874.5" font-family="FreeSans" font-size="10.00" fill="#000000">Action::UserSteppingAction</text>
</a>
</g>
</g>
<!-- Node1&#45;&gt;Node24 -->
<g id="edge23" class="edge">
<title>Node1&#45;&gt;Node24</title>
<path fill="none" stroke="#191970" d="M70.1366,-968.0427C86.9973,-950.7946 114.9936,-924.8319 144,-909.5 151.15,-905.7208 158.9058,-902.4447 166.7889,-899.6159"/>
<polygon fill="#191970" stroke="#191970" points="67.5925,-965.6389 63.2097,-975.2848 72.6511,-970.4774 67.5925,-965.6389"/>
</g>
<!-- Node25 -->
<g id="node25" class="node">
<title>Node25</title>
<g id="a_node25"><a xlink:href="../../db/d97/classPHG4HcalSteppingAction.html#a3b7e2152d047bd72e38f36b695351fc7" target="_top" xlink:title="stepping action">
<polygon fill="none" stroke="#000000" points="166,-816.5 166,-848.5 309,-848.5 309,-816.5 166,-816.5"/>
<text text-anchor="start" x="174" y="-835.5" font-family="FreeSans" font-size="10.00" fill="#000000">PHG4HcalSteppingAction</text>
<text text-anchor="middle" x="237.5" y="-823.5" font-family="FreeSans" font-size="10.00" fill="#000000">::UserSteppingAction</text>
</a>
</g>
</g>
<!-- Node1&#45;&gt;Node25 -->
<g id="edge24" class="edge">
<title>Node1&#45;&gt;Node25</title>
<path fill="none" stroke="#191970" d="M62.3893,-966.3348C75.6276,-938.353 104.0308,-886.5993 144,-858.5 150.616,-853.8488 158.0381,-850.0278 165.7314,-846.8891"/>
<polygon fill="#191970" stroke="#191970" points="59.1827,-964.9308 58.2048,-975.4804 65.5481,-967.8433 59.1827,-964.9308"/>
</g>
<!-- Node26 -->
<g id="node26" class="node">
<title>Node26</title>
<g id="a_node26"><a xlink:href="../../d1/da2/classPHG4BlockSteppingAction.html#ae7baa1eb4f42a8a23888709986dd6881" target="_top" xlink:title="stepping action">
<polygon fill="none" stroke="#000000" points="163.5,-765.5 163.5,-797.5 311.5,-797.5 311.5,-765.5 163.5,-765.5"/>
<text text-anchor="start" x="171.5" y="-784.5" font-family="FreeSans" font-size="10.00" fill="#000000">PHG4BlockSteppingAction</text>
<text text-anchor="middle" x="237.5" y="-772.5" font-family="FreeSans" font-size="10.00" fill="#000000">::UserSteppingAction</text>
</a>
</g>
</g>
<!-- Node1&#45;&gt;Node26 -->
<g id="edge25" class="edge">
<title>Node1&#45;&gt;Node26</title>
<path fill="none" stroke="#191970" d="M58.5375,-965.1409C67.875,-928.0644 92.8027,-849.4926 144,-807.5 149.7319,-802.7986 156.2556,-798.9453 163.1295,-795.7873"/>
<polygon fill="#191970" stroke="#191970" points="55.0469,-964.6893 56.1283,-975.2288 61.8555,-966.3153 55.0469,-964.6893"/>
</g>
<!-- Node27 -->
<g id="node27" class="node">
<title>Node27</title>
<g id="a_node27"><a xlink:href="../../df/dec/classPHG4InnerHcalSteppingAction.html#a4b758852f1c33aeefd33e7348ed1773c" target="_top" xlink:title="stepping action">
<polygon fill="none" stroke="#000000" points="153,-714.5 153,-746.5 322,-746.5 322,-714.5 153,-714.5"/>
<text text-anchor="start" x="161" y="-733.5" font-family="FreeSans" font-size="10.00" fill="#000000">PHG4InnerHcalSteppingAction</text>
<text text-anchor="middle" x="237.5" y="-721.5" font-family="FreeSans" font-size="10.00" fill="#000000">::UserSteppingAction</text>
</a>
</g>
</g>
<!-- Node1&#45;&gt;Node27 -->
<g id="edge26" class="edge">
<title>Node1&#45;&gt;Node27</title>
<path fill="none" stroke="#191970" d="M55.9581,-965.382C61.3826,-920.896 80.6717,-813.6056 144,-756.5 148.2543,-752.6637 153.0278,-749.3879 158.1075,-746.5912"/>
<polygon fill="#191970" stroke="#191970" points="52.46,-965.1724 54.8368,-975.4972 59.4174,-965.9437 52.46,-965.1724"/>
</g>
<!-- Node28 -->
<g id="node28" class="node">
<title>Node28</title>
<g id="a_node28"><a xlink:href="../../dc/d34/classBeastMagnetSteppingAction.html#a3df595bac0e05a7a9b1c576db607b13a" target="_top" xlink:title="stepping action">
<polygon fill="none" stroke="#000000" points="158,-663.5 158,-695.5 317,-695.5 317,-663.5 158,-663.5"/>
<text text-anchor="start" x="166" y="-682.5" font-family="FreeSans" font-size="10.00" fill="#000000">BeastMagnetSteppingAction</text>
<text text-anchor="middle" x="237.5" y="-670.5" font-family="FreeSans" font-size="10.00" fill="#000000">::UserSteppingAction</text>
</a>
</g>
</g>
<!-- Node1&#45;&gt;Node28 -->
<g id="edge27" class="edge">
<title>Node1&#45;&gt;Node28</title>
<path fill="none" stroke="#191970" d="M57.9289,-965.2257C69.5455,-907.266 105.3431,-742.6491 144,-705.5 148.1304,-701.5307 152.813,-698.1571 157.8281,-695.291"/>
<polygon fill="#191970" stroke="#191970" points="54.4381,-964.8376 55.9343,-975.3262 61.3054,-966.1938 54.4381,-964.8376"/>
</g>
<!-- Node29 -->
<g id="node29" class="node">
<title>Node29</title>
<g id="a_node29"><a xlink:href="../../df/d6e/classPHG4CEmcTestBeamSteppingAction.html#a8d1b4646eb8c289c51769ebaa734e047" target="_top" xlink:title="stepping action">
<polygon fill="none" stroke="#000000" points="154,-612.5 154,-644.5 321,-644.5 321,-612.5 154,-612.5"/>
<text text-anchor="start" x="162" y="-631.5" font-family="FreeSans" font-size="10.00" fill="#000000">PHG4CEmcTestBeamStepping</text>
<text text-anchor="middle" x="237.5" y="-619.5" font-family="FreeSans" font-size="10.00" fill="#000000">Action::UserSteppingAction</text>
</a>
</g>
</g>
<!-- Node1&#45;&gt;Node29 -->
<g id="edge28" class="edge">
<title>Node1&#45;&gt;Node29</title>
<path fill="none" stroke="#191970" d="M56.8888,-965.0445C66.4675,-900.009 99.1415,-699.6166 144,-654.5 147.8014,-650.6767 152.1135,-647.403 156.749,-644.6011"/>
<polygon fill="#191970" stroke="#191970" points="53.3829,-964.8342 55.4156,-975.2322 60.3108,-965.8361 53.3829,-964.8342"/>
</g>
<!-- Node30 -->
<g id="node30" class="node">
<title>Node30</title>
<g id="a_node30"><a xlink:href="../../df/d88/classAllSiliconTrackerSteppingAction.html#a0a89863a27df35bb83055a6ff233e9c0" target="_top" xlink:title="stepping action">
<polygon fill="none" stroke="#000000" points="160,-561.5 160,-593.5 315,-593.5 315,-561.5 160,-561.5"/>
<text text-anchor="start" x="168" y="-580.5" font-family="FreeSans" font-size="10.00" fill="#000000">AllSiliconTrackerStepping</text>
<text text-anchor="middle" x="237.5" y="-568.5" font-family="FreeSans" font-size="10.00" fill="#000000">Action::UserSteppingAction</text>
</a>
</g>
</g>
<!-- Node1&#45;&gt;Node30 -->
<g id="edge29" class="edge">
<title>Node1&#45;&gt;Node30</title>
<path fill="none" stroke="#191970" d="M56.0745,-965.2137C63.754,-893.99 92.802,-656.7795 144,-603.5 148.5529,-598.762 153.8886,-594.8642 159.6629,-591.6606"/>
<polygon fill="#191970" stroke="#191970" points="52.5931,-964.8541 55.0253,-975.166 59.5545,-965.588 52.5931,-964.8541"/>
</g>
<!-- Node31 -->
<g id="node31" class="node">
<title>Node31</title>
<g id="a_node31"><a xlink:href="../../d3/d77/classPHG4OuterHcalSteppingAction.html#ad7ba45f4ea4cc63a592c2ed49895307c" target="_top" xlink:title="stepping action">
<polygon fill="none" stroke="#000000" points="151.5,-510.5 151.5,-542.5 323.5,-542.5 323.5,-510.5 151.5,-510.5"/>
<text text-anchor="start" x="159.5" y="-529.5" font-family="FreeSans" font-size="10.00" fill="#000000">PHG4OuterHcalSteppingAction</text>
<text text-anchor="middle" x="237.5" y="-517.5" font-family="FreeSans" font-size="10.00" fill="#000000">::UserSteppingAction</text>
</a>
</g>
</g>
<!-- Node1&#45;&gt;Node31 -->
<g id="edge30" class="edge">
<title>Node1&#45;&gt;Node31</title>
<path fill="none" stroke="#191970" d="M55.4764,-965.0866C61.4739,-887.7376 86.4888,-613.9557 144,-552.5 147.5688,-548.6864 151.6444,-545.4151 156.0516,-542.6108"/>
<polygon fill="#191970" stroke="#191970" points="51.9614,-965.156 54.7013,-975.3904 58.9417,-965.6811 51.9614,-965.156"/>
</g>
<!-- Node32 -->
<g id="node32" class="node">
<title>Node32</title>
<g id="a_node32"><a xlink:href="../../d9/d1f/classPHG4TpcEndCapSteppingAction.html#a94de0459274eaed3e0bca552c8f271fc" target="_top" xlink:title="stepping action">
<polygon fill="none" stroke="#000000" points="148.5,-459.5 148.5,-491.5 326.5,-491.5 326.5,-459.5 148.5,-459.5"/>
<text text-anchor="start" x="156.5" y="-478.5" font-family="FreeSans" font-size="10.00" fill="#000000">PHG4TpcEndCapSteppingAction</text>
<text text-anchor="middle" x="237.5" y="-466.5" font-family="FreeSans" font-size="10.00" fill="#000000">::UserSteppingAction</text>
</a>
</g>
</g>
<!-- Node1&#45;&gt;Node32 -->
<g id="edge31" class="edge">
<title>Node1&#45;&gt;Node32</title>
<path fill="none" stroke="#191970" d="M54.9744,-965.3883C59.3735,-882.8677 80.0325,-571.3157 144,-501.5 147.5284,-497.649 151.5734,-494.3494 155.958,-491.5241"/>
<polygon fill="#191970" stroke="#191970" points="51.4746,-965.2975 54.4588,-975.4633 58.4654,-965.6553 51.4746,-965.2975"/>
</g>
<!-- Node33 -->
<g id="node33" class="node">
<title>Node33</title>
<g id="a_node33"><a xlink:href="../../d3/d82/classPHG4BbcSteppingAction.html#a5cb6795bfe737a5d0b460e8acc01ee66" target="_top" xlink:title="stepping action">
<polygon fill="none" stroke="#000000" points="167.5,-408.5 167.5,-440.5 307.5,-440.5 307.5,-408.5 167.5,-408.5"/>
<text text-anchor="start" x="175.5" y="-427.5" font-family="FreeSans" font-size="10.00" fill="#000000">PHG4BbcSteppingAction</text>
<text text-anchor="middle" x="237.5" y="-415.5" font-family="FreeSans" font-size="10.00" fill="#000000">::UserSteppingAction</text>
</a>
</g>
</g>
<!-- Node1&#45;&gt;Node33 -->
<g id="edge32" class="edge">
<title>Node1&#45;&gt;Node33</title>
<path fill="none" stroke="#191970" d="M54.589,-965.2682C57.558,-877.2535 73.6546,-528.6139 144,-450.5 150.4267,-443.3636 158.6268,-438.1161 167.4921,-434.2703"/>
<polygon fill="#191970" stroke="#191970" points="51.0898,-965.189 54.2707,-975.2951 58.0863,-965.4112 51.0898,-965.189"/>
</g>
<!-- Node34 -->
<g id="node34" class="node">
<title>Node34</title>
<g id="a_node34"><a xlink:href="../../d3/d2e/classEicFRichSteppingAction.html#a02d45fc57ebb6e796ae7aadc278f0f76" target="_top" xlink:title="stepping action">
<polygon fill="none" stroke="#000000" points="170,-357.5 170,-389.5 305,-389.5 305,-357.5 170,-357.5"/>
<text text-anchor="start" x="178" y="-376.5" font-family="FreeSans" font-size="10.00" fill="#000000">EicFRichSteppingAction</text>
<text text-anchor="middle" x="237.5" y="-364.5" font-family="FreeSans" font-size="10.00" fill="#000000">::UserSteppingAction</text>
</a>
</g>
</g>
<!-- Node1&#45;&gt;Node34 -->
<g id="edge33" class="edge">
<title>Node1&#45;&gt;Node34</title>
<path fill="none" stroke="#191970" d="M54.2658,-965.1543C55.8966,-871.8746 67.2531,-485.955 144,-399.5 150.9349,-391.6879 159.9949,-386.1348 169.7439,-382.2046"/>
<polygon fill="#191970" stroke="#191970" points="50.7647,-965.2026 54.1085,-975.2559 57.7639,-965.3117 50.7647,-965.2026"/>
</g>
<!-- Node35 -->
<g id="node35" class="node">
<title>Node35</title>
<g id="a_node35"><a xlink:href="../../d8/dd2/classPHG4FPbScRegionSteppingAction.html#a47af0ec31d1f078ed2b3e9308aeb01fb" target="_top" xlink:title="stepping action">
<polygon fill="none" stroke="#000000" points="144.5,-306.5 144.5,-338.5 330.5,-338.5 330.5,-306.5 144.5,-306.5"/>
<text text-anchor="start" x="152.5" y="-325.5" font-family="FreeSans" font-size="10.00" fill="#000000">PHG4FPbScRegionSteppingAction</text>
<text text-anchor="middle" x="237.5" y="-313.5" font-family="FreeSans" font-size="10.00" fill="#000000">::UserSteppingAction</text>
</a>
</g>
</g>
<!-- Node1&#45;&gt;Node35 -->
<g id="edge34" class="edge">
<title>Node1&#45;&gt;Node35</title>
<path fill="none" stroke="#191970" d="M55.5436,-965.3116C63.607,-862.0846 102.1206,-396.2526 144,-348.5 147.3328,-344.6998 151.1685,-341.4333 155.3434,-338.6275"/>
<polygon fill="#191970" stroke="#191970" points="52.0488,-965.1105 54.7665,-975.3508 59.0279,-965.6508 52.0488,-965.1105"/>
</g>
<!-- Node36 -->
<g id="node36" class="node">
<title>Node36</title>
<g id="a_node36"><a xlink:href="../../da/d58/classPHG4CylinderSteppingAction.html#a617bc1e8c57c83679e482a27a7d5a8b5" target="_top" xlink:title="stepping action">
<polygon fill="none" stroke="#000000" points="156,-255.5 156,-287.5 319,-287.5 319,-255.5 156,-255.5"/>
<text text-anchor="start" x="164" y="-274.5" font-family="FreeSans" font-size="10.00" fill="#000000">PHG4CylinderSteppingAction</text>
<text text-anchor="middle" x="237.5" y="-262.5" font-family="FreeSans" font-size="10.00" fill="#000000">::UserSteppingAction</text>
</a>
</g>
</g>
<!-- Node1&#45;&gt;Node36 -->
<g id="edge35" class="edge">
<title>Node1&#45;&gt;Node36</title>
<path fill="none" stroke="#191970" d="M55.338,-965.083C62.6298,-856.4667 98.9079,-349.4522 144,-297.5 147.4236,-293.5555 151.3892,-290.1851 155.7151,-287.3075"/>
<polygon fill="#191970" stroke="#191970" points="51.8281,-965.1178 54.6574,-975.3279 58.8127,-965.5819 51.8281,-965.1178"/>
</g>
<!-- Node37 -->
<g id="node37" class="node">
<title>Node37</title>
<g id="a_node37"><a xlink:href="../../d1/d5a/classPHG4ForwardHcalSteppingAction.html#a9cb5479cc7064cafa95e66b0c3d7cead" target="_top" xlink:title="stepping action">
<polygon fill="none" stroke="#000000" points="145.5,-204.5 145.5,-236.5 329.5,-236.5 329.5,-204.5 145.5,-204.5"/>
<text text-anchor="start" x="153.5" y="-223.5" font-family="FreeSans" font-size="10.00" fill="#000000">PHG4ForwardHcalSteppingAction</text>
<text text-anchor="middle" x="237.5" y="-211.5" font-family="FreeSans" font-size="10.00" fill="#000000">::UserSteppingAction</text>
</a>
</g>
</g>
<!-- Node1&#45;&gt;Node37 -->
<g id="edge36" class="edge">
<title>Node1&#45;&gt;Node37</title>
<path fill="none" stroke="#191970" d="M55.1293,-965.359C61.6229,-852.6087 95.6176,-302.746 144,-246.5 147.2962,-242.6681 151.1039,-239.3772 155.2579,-236.5532"/>
<polygon fill="#191970" stroke="#191970" points="51.6323,-965.2086 54.5581,-975.3914 58.6209,-965.6065 51.6323,-965.2086"/>
</g>
<!-- Node38 -->
<g id="node38" class="node">
<title>Node38</title>
<g id="a_node38"><a xlink:href="../../dd/d6a/classPHG4ForwardEcalSteppingAction.html#aea7e210162a346e271c57d5222cae015" target="_top" xlink:title="stepping action">
<polygon fill="none" stroke="#000000" points="146.5,-153.5 146.5,-185.5 328.5,-185.5 328.5,-153.5 146.5,-153.5"/>
<text text-anchor="start" x="154.5" y="-172.5" font-family="FreeSans" font-size="10.00" fill="#000000">PHG4ForwardEcalSteppingAction</text>
<text text-anchor="middle" x="237.5" y="-160.5" font-family="FreeSans" font-size="10.00" fill="#000000">::UserSteppingAction</text>
</a>
</g>
</g>
<!-- Node1&#45;&gt;Node38 -->
<g id="edge37" class="edge">
<title>Node1&#45;&gt;Node38</title>
<path fill="none" stroke="#191970" d="M54.9768,-965.0871C60.7958,-847.1368 92.3988,-255.9606 144,-195.5 147.2813,-191.6553 151.0776,-188.3547 155.2231,-185.5234"/>
<polygon fill="#191970" stroke="#191970" points="51.4721,-965.1005 54.4815,-975.2589 58.4638,-965.441 51.4721,-965.1005"/>
</g>
<!-- Node39 -->
<g id="node39" class="node">
<title>Node39</title>
<g id="a_node39"><a xlink:href="../../da/ded/classPHG4CrystalCalorimeterSteppingAction.html#ab8b38f44847393d00af40d6aa722f1c5" target="_top" xlink:title="stepping action">
<polygon fill="none" stroke="#000000" points="145.5,-102.5 145.5,-134.5 329.5,-134.5 329.5,-102.5 145.5,-102.5"/>
<text text-anchor="start" x="153.5" y="-121.5" font-family="FreeSans" font-size="10.00" fill="#000000">PHG4CrystalCalorimeterStepping</text>
<text text-anchor="middle" x="237.5" y="-109.5" font-family="FreeSans" font-size="10.00" fill="#000000">Action::UserSteppingAction</text>
</a>
</g>
</g>
<!-- Node1&#45;&gt;Node39 -->
<g id="edge38" class="edge">
<title>Node1&#45;&gt;Node39</title>
<path fill="none" stroke="#191970" d="M54.8193,-965.3153C59.9379,-843.4817 89.1012,-209.2707 144,-144.5 147.1592,-140.7727 150.8026,-137.5562 154.7798,-134.7826"/>
<polygon fill="#191970" stroke="#191970" points="51.3156,-965.3336 54.3989,-975.4698 58.3096,-965.6231 51.3156,-965.3336"/>
</g>
<!-- Node40 -->
<g id="node40" class="node">
<title>Node40</title>
<g id="a_node40"><a xlink:href="../../d3/df6/classPHG4mRICHSteppingAction.html#a64ef5a64f4e0962c64e7f672fcfba707" target="_top" xlink:title="stepping action">
<polygon fill="none" stroke="#000000" points="160,-51.5 160,-83.5 315,-83.5 315,-51.5 160,-51.5"/>
<text text-anchor="start" x="168" y="-70.5" font-family="FreeSans" font-size="10.00" fill="#000000">PHG4mRICHSteppingAction</text>
<text text-anchor="middle" x="237.5" y="-58.5" font-family="FreeSans" font-size="10.00" fill="#000000">::UserSteppingAction</text>
</a>
</g>
</g>
<!-- Node1&#45;&gt;Node40 -->
<g id="edge39" class="edge">
<title>Node1&#45;&gt;Node40</title>
<path fill="none" stroke="#191970" d="M54.6908,-965.2825C59.1771,-839.0766 85.8367,-162.5448 144,-93.5 148.4505,-88.2168 153.8738,-83.959 159.844,-80.5337"/>
<polygon fill="#191970" stroke="#191970" points="51.1866,-965.3419 54.3351,-975.4581 58.1824,-965.5865 51.1866,-965.3419"/>
</g>
<!-- Node41 -->
<g id="node41" class="node">
<title>Node41</title>
<g id="a_node41"><a xlink:href="../../de/dea/classPHG4SpacalSteppingAction.html#a1c2df9729591e53ff47876e8e9359375" target="_top" xlink:title="stepping action">
<polygon fill="none" stroke="#000000" points="160,-.5 160,-32.5 315,-32.5 315,-.5 160,-.5"/>
<text text-anchor="start" x="168" y="-19.5" font-family="FreeSans" font-size="10.00" fill="#000000">PHG4SpacalSteppingAction</text>
<text text-anchor="middle" x="237.5" y="-7.5" font-family="FreeSans" font-size="10.00" fill="#000000">::UserSteppingAction</text>
</a>
</g>
</g>
<!-- Node1&#45;&gt;Node41 -->
<g id="edge40" class="edge">
<title>Node1&#45;&gt;Node41</title>
<path fill="none" stroke="#191970" d="M54.5727,-965.3533C58.4475,-835.1672 82.5513,-115.8461 144,-42.5 148.4362,-37.2048 153.8498,-32.9389 159.8138,-29.5083"/>
<polygon fill="#191970" stroke="#191970" points="51.07,-965.399 54.2767,-975.4969 58.067,-965.6033 51.07,-965.399"/>
</g>
<!-- Node3 -->
<g id="node3" class="node">
<title>Node3</title>
<g id="a_node3"><a xlink:href="../../de/d4d/classPHG4RICHSteppingAction.html#a4716fb322202f7b6a84215f05a088795" target="_top" xlink:title="PHG4RICHSteppingAction\l::UserSteppingAction">
<polygon fill="none" stroke="#000000" points="367,-1938.5 367,-1970.5 512,-1970.5 512,-1938.5 367,-1938.5"/>
<text text-anchor="start" x="375" y="-1957.5" font-family="FreeSans" font-size="10.00" fill="#000000">PHG4RICHSteppingAction</text>
<text text-anchor="middle" x="439.5" y="-1945.5" font-family="FreeSans" font-size="10.00" fill="#000000">::UserSteppingAction</text>
</a>
</g>
</g>
<!-- Node2&#45;&gt;Node3 -->
<g id="edge2" class="edge">
<title>Node2&#45;&gt;Node3</title>
<path fill="none" stroke="#191970" d="M320.1967,-1954.5C335.6523,-1954.5 351.6996,-1954.5 366.8248,-1954.5"/>
<polygon fill="#191970" stroke="#191970" points="320.1413,-1951.0001 310.1412,-1954.5 320.1412,-1958.0001 320.1413,-1951.0001"/>
</g>
</g>
</svg>
