<?xml version="1.0" encoding="UTF-8" standalone="no"?>
<!DOCTYPE svg PUBLIC "-//W3C//DTD SVG 1.1//EN"
 "http://www.w3.org/Graphics/SVG/1.1/DTD/svg11.dtd">
<!-- Generated by graphviz version 2.40.1 (20161225.0304)
 -->
<!-- Title: PHG4ParticleGeneratorBase::ReuseExistingVertex Pages: 1 -->
<svg width="747pt" height="686pt"
 viewBox="0.00 0.00 747.00 686.00" xmlns="http://www.w3.org/2000/svg" xmlns:xlink="http://www.w3.org/1999/xlink">
<g id="graph0" class="graph" transform="scale(1 1) rotate(0) translate(4 682)">
<title>PHG4ParticleGeneratorBase::ReuseExistingVertex</title>
<!-- Node1 -->
<g id="node1" class="node">
<title>Node1</title>
<polygon fill="#bfbfbf" stroke="#000000" points="0,-334.5 0,-366.5 157,-366.5 157,-334.5 0,-334.5"/>
<text text-anchor="start" x="8" y="-353.5" font-family="FreeSans" font-size="10.00" fill="#000000">PHG4ParticleGeneratorBase</text>
<text text-anchor="middle" x="78.5" y="-341.5" font-family="FreeSans" font-size="10.00" fill="#000000">::ReuseExistingVertex</text>
</g>
<!-- Node2 -->
<g id="node2" class="node">
<title>Node2</title>
<g id="a_node2"><a xlink:href="../../df/de8/cemc_8C.html#adf5c804dfce7a70e36dda02995fad481" target="_top" xlink:title="exit">
<polygon fill="none" stroke="#000000" points="255.5,-657.5 255.5,-677.5 290.5,-677.5 290.5,-657.5 255.5,-657.5"/>
<text text-anchor="middle" x="273" y="-664.5" font-family="FreeSans" font-size="10.00" fill="#000000">exit</text>
</a>
</g>
</g>
<!-- Node1&#45;&gt;Node2 -->
<g id="edge1" class="edge">
<title>Node1&#45;&gt;Node2</title>
<path fill="none" stroke="#191970" d="M79.6152,-366.6729C83.9772,-416.8202 104.3449,-570.9675 193,-648.5 207.1918,-660.9113 228.0327,-665.5735 244.885,-667.1789"/>
<polygon fill="#191970" stroke="#191970" points="245.0704,-670.6978 255.2734,-667.8431 245.5172,-663.7121 245.0704,-670.6978"/>
</g>
<!-- Node3 -->
<g id="node3" class="node">
<title>Node3</title>
<g id="a_node3"><a xlink:href="../../d7/d7b/classPHHepMCGenEvent.html#aeb1f4b1ca526d968a3b025a3063c61c4" target="_top" xlink:title="collision vertex position in the Hall coordinate system, use PHENIX units of cm, ns">
<polygon fill="none" stroke="#000000" points="203.5,-606.5 203.5,-638.5 342.5,-638.5 342.5,-606.5 203.5,-606.5"/>
<text text-anchor="start" x="211.5" y="-625.5" font-family="FreeSans" font-size="10.00" fill="#000000">PHHepMCGenEvent::get</text>
<text text-anchor="middle" x="273" y="-613.5" font-family="FreeSans" font-size="10.00" fill="#000000">_collision_vertex</text>
</a>
</g>
</g>
<!-- Node1&#45;&gt;Node3 -->
<g id="edge2" class="edge">
<title>Node1&#45;&gt;Node3</title>
<path fill="none" stroke="#191970" d="M81.331,-366.7753C89.832,-410.7262 119.2534,-532.845 193,-597.5 194.354,-598.6871 195.7641,-599.8178 197.2216,-600.8949"/>
<polygon fill="#191970" stroke="#191970" points="195.7118,-604.0826 206.0283,-606.4953 199.4681,-598.1757 195.7118,-604.0826"/>
</g>
<!-- Node4 -->
<g id="node4" class="node">
<title>Node4</title>
<g id="a_node4"><a xlink:href="../../d6/d81/classPHG4VtxPoint.html#a9f885c1b879a2f1d6299b07801210a1d" target="_top" xlink:title="PHG4VtxPoint::get_x">
<polygon fill="none" stroke="#000000" points="212.5,-567.5 212.5,-587.5 333.5,-587.5 333.5,-567.5 212.5,-567.5"/>
<text text-anchor="middle" x="273" y="-574.5" font-family="FreeSans" font-size="10.00" fill="#000000">PHG4VtxPoint::get_x</text>
</a>
</g>
</g>
<!-- Node1&#45;&gt;Node4 -->
<g id="edge3" class="edge">
<title>Node1&#45;&gt;Node4</title>
<path fill="none" stroke="#191970" d="M82.5483,-366.7472C93.2654,-406.2323 126.2402,-507.7087 193,-558.5 196.1686,-560.9107 199.5964,-563.0217 203.1893,-564.8696"/>
<polygon fill="#191970" stroke="#191970" points="201.845,-568.102 212.4065,-568.942 204.674,-561.6991 201.845,-568.102"/>
</g>
<!-- Node5 -->
<g id="node5" class="node">
<title>Node5</title>
<g id="a_node5"><a xlink:href="../../d6/d81/classPHG4VtxPoint.html#a2073b3294f78491a2124aea6c436d6a8" target="_top" xlink:title="PHG4VtxPoint::get_y">
<polygon fill="none" stroke="#000000" points="212.5,-528.5 212.5,-548.5 333.5,-548.5 333.5,-528.5 212.5,-528.5"/>
<text text-anchor="middle" x="273" y="-535.5" font-family="FreeSans" font-size="10.00" fill="#000000">PHG4VtxPoint::get_y</text>
</a>
</g>
</g>
<!-- Node1&#45;&gt;Node5 -->
<g id="edge4" class="edge">
<title>Node1&#45;&gt;Node5</title>
<path fill="none" stroke="#191970" d="M84.6812,-366.7121C98.5258,-400.7385 135.3997,-479.733 193,-519.5 196.1204,-521.6543 199.4546,-523.5661 202.9245,-525.2626"/>
<polygon fill="#191970" stroke="#191970" points="201.8004,-528.5875 212.3733,-529.2688 204.5329,-522.1428 201.8004,-528.5875"/>
</g>
<!-- Node6 -->
<g id="node6" class="node">
<title>Node6</title>
<g id="a_node6"><a xlink:href="../../d6/d81/classPHG4VtxPoint.html#ae26c6d111c93795d64e3571b6f306ef9" target="_top" xlink:title="PHG4VtxPoint::get_z">
<polygon fill="none" stroke="#000000" points="213,-489.5 213,-509.5 333,-509.5 333,-489.5 213,-489.5"/>
<text text-anchor="middle" x="273" y="-496.5" font-family="FreeSans" font-size="10.00" fill="#000000">PHG4VtxPoint::get_z</text>
</a>
</g>
</g>
<!-- Node1&#45;&gt;Node6 -->
<g id="edge5" class="edge">
<title>Node1&#45;&gt;Node6</title>
<path fill="none" stroke="#191970" d="M87.9105,-366.5379C105.0853,-394.3208 144.2732,-451.2292 193,-480.5 196.2505,-482.4526 199.6877,-484.2046 203.2379,-485.7765"/>
<polygon fill="#191970" stroke="#191970" points="202.2608,-489.1523 212.8488,-489.5311 204.808,-482.6322 202.2608,-489.1523"/>
</g>
<!-- Node7 -->
<g id="node7" class="node">
<title>Node7</title>
<g id="a_node7"><a xlink:href="../../db/d62/classPHG4InEvent.html#a21ffc7a40dc313688f69a53efb536e5c" target="_top" xlink:title="PHG4InEvent::GetNVtx">
<polygon fill="none" stroke="#000000" points="207,-450.5 207,-470.5 339,-470.5 339,-450.5 207,-450.5"/>
<text text-anchor="middle" x="273" y="-457.5" font-family="FreeSans" font-size="10.00" fill="#000000">PHG4InEvent::GetNVtx</text>
</a>
</g>
</g>
<!-- Node1&#45;&gt;Node7 -->
<g id="edge6" class="edge">
<title>Node1&#45;&gt;Node7</title>
<path fill="none" stroke="#191970" d="M93.9859,-366.5845C114.6467,-387.0889 153.2619,-422.1886 193,-441.5 197.5379,-443.7053 202.3477,-445.6638 207.2678,-447.4016"/>
<polygon fill="#191970" stroke="#191970" points="206.2314,-450.7448 216.8229,-450.4785 208.377,-444.0818 206.2314,-450.7448"/>
</g>
<!-- Node8 -->
<g id="node8" class="node">
<title>Node8</title>
<g id="a_node8"><a xlink:href="../../da/d6c/classPHG4TruthInfoContainer.html#acf130130dd475251d67c0f04c0e9cc49" target="_top" xlink:title="PHG4TruthInfoContainer\l::GetPrimaryVtx">
<polygon fill="none" stroke="#000000" points="203.5,-399.5 203.5,-431.5 342.5,-431.5 342.5,-399.5 203.5,-399.5"/>
<text text-anchor="start" x="211.5" y="-418.5" font-family="FreeSans" font-size="10.00" fill="#000000">PHG4TruthInfoContainer</text>
<text text-anchor="middle" x="273" y="-406.5" font-family="FreeSans" font-size="10.00" fill="#000000">::GetPrimaryVtx</text>
</a>
</g>
</g>
<!-- Node1&#45;&gt;Node8 -->
<g id="edge7" class="edge">
<title>Node1&#45;&gt;Node8</title>
<path fill="none" stroke="#191970" d="M123.2449,-366.5179C144.3483,-373.9733 169.9104,-382.8615 193,-390.5 198.8929,-392.4495 205.0432,-394.4434 211.2013,-396.4129"/>
<polygon fill="#191970" stroke="#191970" points="210.2588,-399.7858 220.8492,-399.4776 212.3781,-393.1143 210.2588,-399.7858"/>
</g>
<!-- Node9 -->
<g id="node9" class="node">
<title>Node9</title>
<g id="a_node9"><a xlink:href="../../db/d62/classPHG4InEvent.html#a459357d91b697f1a08abee3fc0b0dcce" target="_top" xlink:title="PHG4InEvent::GetVertices">
<polygon fill="none" stroke="#000000" points="199,-360.5 199,-380.5 347,-380.5 347,-360.5 199,-360.5"/>
<text text-anchor="middle" x="273" y="-367.5" font-family="FreeSans" font-size="10.00" fill="#000000">PHG4InEvent::GetVertices</text>
</a>
</g>
</g>
<!-- Node1&#45;&gt;Node9 -->
<g id="edge8" class="edge">
<title>Node1&#45;&gt;Node9</title>
<path fill="none" stroke="#191970" d="M157.05,-358.5771C167.5165,-359.6534 178.2834,-360.7605 188.8406,-361.8461"/>
<polygon fill="#191970" stroke="#191970" points="188.576,-365.3372 198.8816,-362.8786 189.2921,-358.374 188.576,-365.3372"/>
</g>
<!-- Node10 -->
<g id="node10" class="node">
<title>Node10</title>
<g id="a_node10"><a xlink:href="../../d6/d81/classPHG4VtxPoint.html#a430f5aa56f64225757572f53447cd1d4" target="_top" xlink:title="PHG4VtxPoint::identify">
<polygon fill="none" stroke="#000000" points="207.5,-321.5 207.5,-341.5 338.5,-341.5 338.5,-321.5 207.5,-321.5"/>
<text text-anchor="middle" x="273" y="-328.5" font-family="FreeSans" font-size="10.00" fill="#000000">PHG4VtxPoint::identify</text>
</a>
</g>
</g>
<!-- Node1&#45;&gt;Node10 -->
<g id="edge9" class="edge">
<title>Node1&#45;&gt;Node10</title>
<path fill="none" stroke="#191970" d="M157.05,-342.8267C170.3244,-341.53 184.082,-340.1861 197.2823,-338.8966"/>
<polygon fill="#191970" stroke="#191970" points="197.6385,-342.3785 207.2508,-337.9228 196.9578,-335.4117 197.6385,-342.3785"/>
</g>
<!-- Node11 -->
<g id="node11" class="node">
<title>Node11</title>
<g id="a_node11"><a xlink:href="../../d7/d7b/classPHHepMCGenEvent.html#aefba90e1138cf40fc9892de617dc3da8" target="_top" xlink:title="PHHepMCGenEvent::identify">
<polygon fill="none" stroke="#000000" points="193,-282.5 193,-302.5 353,-302.5 353,-282.5 193,-282.5"/>
<text text-anchor="middle" x="273" y="-289.5" font-family="FreeSans" font-size="10.00" fill="#000000">PHHepMCGenEvent::identify</text>
</a>
</g>
</g>
<!-- Node1&#45;&gt;Node11 -->
<g id="edge10" class="edge">
<title>Node1&#45;&gt;Node11</title>
<path fill="none" stroke="#191970" d="M124.2163,-334.4495C145.0785,-327.3522 170.1715,-319.1314 193,-312.5 201.7837,-309.9484 211.166,-307.4247 220.301,-305.0739"/>
<polygon fill="#191970" stroke="#191970" points="221.2419,-308.4462 230.0763,-302.5978 219.523,-301.6605 221.2419,-308.4462"/>
</g>
<!-- Node14 -->
<g id="node14" class="node">
<title>Node14</title>
<g id="a_node14"><a xlink:href="../../da/d6c/classPHG4TruthInfoContainer.html#a696b04fd20d5d1ddb53b73b16885e775" target="_top" xlink:title="PHG4TruthInfoContainer\l::identify">
<polygon fill="none" stroke="#000000" points="203.5,-231.5 203.5,-263.5 342.5,-263.5 342.5,-231.5 203.5,-231.5"/>
<text text-anchor="start" x="211.5" y="-250.5" font-family="FreeSans" font-size="10.00" fill="#000000">PHG4TruthInfoContainer</text>
<text text-anchor="middle" x="273" y="-238.5" font-family="FreeSans" font-size="10.00" fill="#000000">::identify</text>
</a>
</g>
</g>
<!-- Node1&#45;&gt;Node14 -->
<g id="edge13" class="edge">
<title>Node1&#45;&gt;Node14</title>
<path fill="none" stroke="#191970" d="M98.5489,-334.4777C120.6214,-317.4626 157.678,-290.6989 193,-273.5 197.5607,-271.2793 202.3565,-269.1826 207.2397,-267.2171"/>
<polygon fill="#191970" stroke="#191970" points="208.6084,-270.441 216.6994,-263.6009 206.1088,-263.9025 208.6084,-270.441"/>
</g>
<!-- Node18 -->
<g id="node18" class="node">
<title>Node18</title>
<g id="a_node18"><a xlink:href="../../d5/d41/classPHHepMCGenEventMap.html#a28c156234e9a12ba587b18a1fb70b151" target="_top" xlink:title="iterator from lowest ID to highest, i.e. signal to background">
<polygon fill="none" stroke="#000000" points="204.5,-180.5 204.5,-212.5 341.5,-212.5 341.5,-180.5 204.5,-180.5"/>
<text text-anchor="start" x="212.5" y="-199.5" font-family="FreeSans" font-size="10.00" fill="#000000">PHHepMCGenEventMap</text>
<text text-anchor="middle" x="273" y="-187.5" font-family="FreeSans" font-size="10.00" fill="#000000">::rbegin</text>
</a>
</g>
</g>
<!-- Node1&#45;&gt;Node18 -->
<g id="edge17" class="edge">
<title>Node1&#45;&gt;Node18</title>
<path fill="none" stroke="#191970" d="M88.7903,-334.2512C106.725,-307.2102 146.29,-252.9443 193,-222.5 196.1198,-220.4666 199.4119,-218.5803 202.811,-216.8319"/>
<polygon fill="#191970" stroke="#191970" points="204.4432,-219.9324 212.0134,-212.5201 201.4731,-213.5937 204.4432,-219.9324"/>
</g>
<!-- Node19 -->
<g id="node19" class="node">
<title>Node19</title>
<g id="a_node19"><a xlink:href="../../d5/d41/classPHHepMCGenEventMap.html#a7970c7bea97397801bfa690433a1025b" target="_top" xlink:title="PHHepMCGenEventMap\l::rend">
<polygon fill="none" stroke="#000000" points="204.5,-129.5 204.5,-161.5 341.5,-161.5 341.5,-129.5 204.5,-129.5"/>
<text text-anchor="start" x="212.5" y="-148.5" font-family="FreeSans" font-size="10.00" fill="#000000">PHHepMCGenEventMap</text>
<text text-anchor="middle" x="273" y="-136.5" font-family="FreeSans" font-size="10.00" fill="#000000">::rend</text>
</a>
</g>
</g>
<!-- Node1&#45;&gt;Node19 -->
<g id="edge18" class="edge">
<title>Node1&#45;&gt;Node19</title>
<path fill="none" stroke="#191970" d="M84.4654,-334.2427C98.1315,-299.2362 135.0603,-216.2797 193,-171.5 195.3291,-169.6999 197.7873,-168.0221 200.34,-166.4585"/>
<polygon fill="#191970" stroke="#191970" points="202.2179,-169.4215 209.3322,-161.5704 198.8747,-163.2714 202.2179,-169.4215"/>
</g>
<!-- Node20 -->
<g id="node20" class="node">
<title>Node20</title>
<g id="a_node20"><a xlink:href="../../d8/d78/classPHG4ParticleGeneratorBase.html#a45b6073aec5d527acfbb8ecc7db95033" target="_top" xlink:title="PHG4ParticleGeneratorBase\l::set_vtx">
<polygon fill="none" stroke="#000000" points="194.5,-78.5 194.5,-110.5 351.5,-110.5 351.5,-78.5 194.5,-78.5"/>
<text text-anchor="start" x="202.5" y="-97.5" font-family="FreeSans" font-size="10.00" fill="#000000">PHG4ParticleGeneratorBase</text>
<text text-anchor="middle" x="273" y="-85.5" font-family="FreeSans" font-size="10.00" fill="#000000">::set_vtx</text>
</a>
</g>
</g>
<!-- Node1&#45;&gt;Node20 -->
<g id="edge19" class="edge">
<title>Node1&#45;&gt;Node20</title>
<path fill="none" stroke="#191970" d="M81.9334,-334.4727C91.6754,-292.8688 123.4105,-180.5032 193,-120.5 194.9355,-118.8311 196.9803,-117.2688 199.1103,-115.8065"/>
<polygon fill="#191970" stroke="#191970" points="200.9285,-118.7973 207.6977,-110.6469 197.3234,-112.797 200.9285,-118.7973"/>
</g>
<!-- Node21 -->
<g id="node21" class="node">
<title>Node21</title>
<g id="a_node21"><a xlink:href="../../d5/dec/classFun4AllBase.html#a8a5c77a92bdac6bc043476e132379a40" target="_top" xlink:title="Gets the verbosity of this module.">
<polygon fill="none" stroke="#000000" points="207,-39.5 207,-59.5 339,-59.5 339,-39.5 207,-39.5"/>
<text text-anchor="middle" x="273" y="-46.5" font-family="FreeSans" font-size="10.00" fill="#000000">Fun4AllBase::Verbosity</text>
</a>
</g>
</g>
<!-- Node1&#45;&gt;Node21 -->
<g id="edge20" class="edge">
<title>Node1&#45;&gt;Node21</title>
<path fill="none" stroke="#191970" d="M80.0859,-334.2553C85.6941,-285.9962 109.0268,-142.3254 193,-69.5 195.0347,-67.7354 197.2023,-66.1222 199.4725,-64.6476"/>
<polygon fill="#191970" stroke="#191970" points="201.575,-67.4871 208.6717,-59.6203 198.2181,-61.3445 201.575,-67.4871"/>
</g>
<!-- Node22 -->
<g id="node22" class="node">
<title>Node22</title>
<g id="a_node22"><a xlink:href="../../d5/dbe/EIC-IR1-XX-v00_8C.html#a888f39f7254b5b59976d577091d79a4e" target="_top" xlink:title="vtx">
<polygon fill="none" stroke="#000000" points="257,-.5 257,-20.5 289,-20.5 289,-.5 257,-.5"/>
<text text-anchor="middle" x="273" y="-7.5" font-family="FreeSans" font-size="10.00" fill="#000000">vtx</text>
</a>
</g>
</g>
<!-- Node1&#45;&gt;Node22 -->
<g id="edge21" class="edge">
<title>Node1&#45;&gt;Node22</title>
<path fill="none" stroke="#191970" d="M79.178,-334.332C82.2825,-281.9305 99.4201,-115.2763 193,-30.5 207.5854,-17.2868 229.5748,-12.4971 246.8108,-10.8944"/>
<polygon fill="#191970" stroke="#191970" points="247.0605,-14.3857 256.8197,-10.2615 246.6187,-7.3997 247.0605,-14.3857"/>
</g>
<!-- Node12 -->
<g id="node12" class="node">
<title>Node12</title>
<g id="a_node12"><a xlink:href="../../d7/d7b/classPHHepMCGenEvent.html#a0938cf5d7c7183d1d56642748985fb1e" target="_top" xlink:title="PHHepMCGenEvent::size">
<polygon fill="none" stroke="#000000" points="405.5,-321.5 405.5,-341.5 547.5,-341.5 547.5,-321.5 405.5,-321.5"/>
<text text-anchor="middle" x="476.5" y="-328.5" font-family="FreeSans" font-size="10.00" fill="#000000">PHHepMCGenEvent::size</text>
</a>
</g>
</g>
<!-- Node11&#45;&gt;Node12 -->
<g id="edge11" class="edge">
<title>Node11&#45;&gt;Node12</title>
<path fill="none" stroke="#191970" d="M325.4063,-302.5435C352.5851,-307.7522 385.9616,-314.1487 414.4261,-319.6038"/>
<polygon fill="#191970" stroke="#191970" points="413.7912,-323.0457 424.2713,-321.4906 415.1088,-316.1708 413.7912,-323.0457"/>
</g>
<!-- Node13 -->
<g id="node13" class="node">
<title>Node13</title>
<g id="a_node13"><a xlink:href="../../d7/d7b/classPHHepMCGenEvent.html#a0d1a7a89d4f44f0c78a32af3de38b21d" target="_top" xlink:title="PHHepMCGenEvent::vertexSize">
<polygon fill="none" stroke="#000000" points="389,-282.5 389,-302.5 564,-302.5 564,-282.5 389,-282.5"/>
<text text-anchor="middle" x="476.5" y="-289.5" font-family="FreeSans" font-size="10.00" fill="#000000">PHHepMCGenEvent::vertexSize</text>
</a>
</g>
</g>
<!-- Node11&#45;&gt;Node13 -->
<g id="edge12" class="edge">
<title>Node11&#45;&gt;Node13</title>
<path fill="none" stroke="#191970" d="M353.1365,-292.5C361.5305,-292.5 370.1302,-292.5 378.6926,-292.5"/>
<polygon fill="#191970" stroke="#191970" points="378.7125,-296.0001 388.7125,-292.5 378.7124,-289.0001 378.7125,-296.0001"/>
</g>
<!-- Node15 -->
<g id="node15" class="node">
<title>Node15</title>
<g id="a_node15"><a xlink:href="../../da/d6c/classPHG4TruthInfoContainer.html#a77051a88c6708ed10465eca6b73c2272" target="_top" xlink:title="PHG4TruthInfoContainer\l::GetPrimaryVertexIndex">
<polygon fill="none" stroke="#000000" points="406.5,-231.5 406.5,-263.5 546.5,-263.5 546.5,-231.5 406.5,-231.5"/>
<text text-anchor="start" x="414.5" y="-250.5" font-family="FreeSans" font-size="10.00" fill="#000000">PHG4TruthInfoContainer</text>
<text text-anchor="middle" x="476.5" y="-238.5" font-family="FreeSans" font-size="10.00" fill="#000000">::GetPrimaryVertexIndex</text>
</a>
</g>
</g>
<!-- Node14&#45;&gt;Node15 -->
<g id="edge14" class="edge">
<title>Node14&#45;&gt;Node15</title>
<path fill="none" stroke="#191970" d="M342.7484,-247.5C359.9647,-247.5 378.5419,-247.5 396.2141,-247.5"/>
<polygon fill="#191970" stroke="#191970" points="396.4975,-251.0001 406.4974,-247.5 396.4974,-244.0001 396.4975,-251.0001"/>
</g>
<!-- Node16 -->
<g id="node16" class="node">
<title>Node16</title>
<g id="a_node16"><a xlink:href="../../da/d6c/classPHG4TruthInfoContainer.html#a53587ae22361008bcee4c51cc1d8d242" target="_top" xlink:title="PHG4TruthInfoContainer\l::GetPrimaryVtxRange">
<polygon fill="none" stroke="#000000" points="600,-257.5 600,-289.5 739,-289.5 739,-257.5 600,-257.5"/>
<text text-anchor="start" x="608" y="-276.5" font-family="FreeSans" font-size="10.00" fill="#000000">PHG4TruthInfoContainer</text>
<text text-anchor="middle" x="669.5" y="-264.5" font-family="FreeSans" font-size="10.00" fill="#000000">::GetPrimaryVtxRange</text>
</a>
</g>
</g>
<!-- Node15&#45;&gt;Node16 -->
<g id="edge15" class="edge">
<title>Node15&#45;&gt;Node16</title>
<path fill="none" stroke="#191970" d="M546.7234,-256.9601C560.6868,-258.8412 575.4448,-260.8294 589.7012,-262.7499"/>
<polygon fill="#191970" stroke="#191970" points="589.5971,-266.2674 599.9749,-264.1339 590.5317,-259.3301 589.5971,-266.2674"/>
</g>
<!-- Node17 -->
<g id="node17" class="node">
<title>Node17</title>
<g id="a_node17"><a xlink:href="../../da/d6c/classPHG4TruthInfoContainer.html#a434c7528ce4a7f089bb4aaeb613af2ff" target="_top" xlink:title="PHG4TruthInfoContainer\l::isEmbededVtx">
<polygon fill="none" stroke="#000000" points="600,-206.5 600,-238.5 739,-238.5 739,-206.5 600,-206.5"/>
<text text-anchor="start" x="608" y="-225.5" font-family="FreeSans" font-size="10.00" fill="#000000">PHG4TruthInfoContainer</text>
<text text-anchor="middle" x="669.5" y="-213.5" font-family="FreeSans" font-size="10.00" fill="#000000">::isEmbededVtx</text>
</a>
</g>
</g>
<!-- Node15&#45;&gt;Node17 -->
<g id="edge16" class="edge">
<title>Node15&#45;&gt;Node17</title>
<path fill="none" stroke="#191970" d="M546.7234,-238.4037C560.6868,-236.595 575.4448,-234.6833 589.7012,-232.8366"/>
<polygon fill="#191970" stroke="#191970" points="590.5074,-236.2615 599.9749,-231.5058 589.6081,-229.3195 590.5074,-236.2615"/>
</g>
</g>
</svg>
