<?xml version="1.0" encoding="UTF-8" standalone="no"?>
<!DOCTYPE svg PUBLIC "-//W3C//DTD SVG 1.1//EN"
 "http://www.w3.org/Graphics/SVG/1.1/DTD/svg11.dtd">
<!-- Generated by graphviz version 2.40.1 (20161225.0304)
 -->
<!-- Title: fun4all_coresoftware/blob/master/simulation/g4simulation/g4eval/JetEvalStack.h Pages: 1 -->
<svg width="3106pt" height="716pt"
 viewBox="0.00 0.00 3106.00 716.00" xmlns="http://www.w3.org/2000/svg" xmlns:xlink="http://www.w3.org/1999/xlink">
<g id="graph0" class="graph" transform="scale(1 1) rotate(0) translate(4 712)">
<title>fun4all_coresoftware/blob/master/simulation/g4simulation/g4eval/JetEvalStack.h</title>
<!-- Node1 -->
<g id="node1" class="node">
<title>Node1</title>
<polygon fill="#bfbfbf" stroke="#000000" points="72.5,-663.5 72.5,-707.5 271.5,-707.5 271.5,-663.5 72.5,-663.5"/>
<text text-anchor="start" x="80.5" y="-694.5" font-family="FreeSans" font-size="10.00" fill="#000000">fun4all_coresoftware</text>
<text text-anchor="start" x="80.5" y="-682.5" font-family="FreeSans" font-size="10.00" fill="#000000">/blob/master/simulation</text>
<text text-anchor="middle" x="172" y="-670.5" font-family="FreeSans" font-size="10.00" fill="#000000">/g4simulation/g4eval/JetEvalStack.h</text>
</g>
<!-- Node2 -->
<g id="node2" class="node">
<title>Node2</title>
<g id="a_node2"><a xlink:href="../../da/d50/JetRecoEval_8h.html" target="_top" xlink:title="JetRecoEval.h">
<polygon fill="none" stroke="#000000" points="225.5,-606.5 225.5,-626.5 310.5,-626.5 310.5,-606.5 225.5,-606.5"/>
<text text-anchor="middle" x="268" y="-613.5" font-family="FreeSans" font-size="10.00" fill="#000000">JetRecoEval.h</text>
</a>
</g>
</g>
<!-- Node1&#45;&gt;Node2 -->
<g id="edge1" class="edge">
<title>Node1&#45;&gt;Node2</title>
<path fill="none" stroke="#191970" d="M202.6389,-663.4783C216.6385,-653.4161 232.9151,-641.7173 245.7235,-632.5113"/>
<polygon fill="#191970" stroke="#191970" points="247.8887,-635.2653 253.9661,-626.5869 243.8032,-629.5812 247.8887,-635.2653"/>
</g>
<!-- Node11 -->
<g id="node11" class="node">
<title>Node11</title>
<polygon fill="none" stroke="#bfbfbf" points="281.5,-132.5 281.5,-152.5 326.5,-152.5 326.5,-132.5 281.5,-132.5"/>
<text text-anchor="middle" x="304" y="-139.5" font-family="FreeSans" font-size="10.00" fill="#000000">string</text>
</g>
<!-- Node1&#45;&gt;Node11 -->
<g id="edge120" class="edge">
<title>Node1&#45;&gt;Node11</title>
<path fill="none" stroke="#191970" d="M140.566,-663.3456C112.5684,-640.7633 76,-602.9512 76,-559.5 76,-559.5 76,-559.5 76,-274.5 76,-185.4313 207.929,-155.4885 271.0751,-146.2579"/>
<polygon fill="#191970" stroke="#191970" points="271.8726,-149.6815 281.3049,-144.8565 270.9224,-142.7462 271.8726,-149.6815"/>
</g>
<!-- Node3 -->
<g id="node3" class="node">
<title>Node3</title>
<g id="a_node3"><a xlink:href="../../de/d49/JetTruthEval_8h.html" target="_top" xlink:title="JetTruthEval.h">
<polygon fill="none" stroke="#000000" points="224.5,-549.5 224.5,-569.5 311.5,-569.5 311.5,-549.5 224.5,-549.5"/>
<text text-anchor="middle" x="268" y="-556.5" font-family="FreeSans" font-size="10.00" fill="#000000">JetTruthEval.h</text>
</a>
</g>
</g>
<!-- Node2&#45;&gt;Node3 -->
<g id="edge2" class="edge">
<title>Node2&#45;&gt;Node3</title>
<path fill="none" stroke="#191970" d="M268,-606.3095C268,-598.9335 268,-588.72 268,-579.715"/>
<polygon fill="#191970" stroke="#191970" points="271.5001,-579.6022 268,-569.6022 264.5001,-579.6023 271.5001,-579.6022"/>
</g>
<!-- Node9 -->
<g id="node9" class="node">
<title>Node9</title>
<polygon fill="none" stroke="#bfbfbf" points="514,-63.5 514,-83.5 546,-83.5 546,-63.5 514,-63.5"/>
<text text-anchor="middle" x="530" y="-70.5" font-family="FreeSans" font-size="10.00" fill="#000000">set</text>
</g>
<!-- Node2&#45;&gt;Node9 -->
<g id="edge117" class="edge">
<title>Node2&#45;&gt;Node9</title>
<path fill="none" stroke="#191970" d="M225.2383,-607.5897C149.5746,-590.5834 0,-550.8502 0,-502.5 0,-502.5 0,-502.5 0,-211.5 0,-160.3614 31.5584,-149.4567 77,-126 152.3172,-87.1217 418.5381,-76.552 503.6369,-74.1341"/>
<polygon fill="#191970" stroke="#191970" points="503.8499,-77.6297 513.752,-73.8614 503.6612,-70.6322 503.8499,-77.6297"/>
</g>
<!-- Node10 -->
<g id="node10" class="node">
<title>Node10</title>
<polygon fill="none" stroke="#bfbfbf" points="2438.5,-132.5 2438.5,-152.5 2477.5,-152.5 2477.5,-132.5 2438.5,-132.5"/>
<text text-anchor="middle" x="2458" y="-139.5" font-family="FreeSans" font-size="10.00" fill="#000000">map</text>
</g>
<!-- Node2&#45;&gt;Node10 -->
<g id="edge116" class="edge">
<title>Node2&#45;&gt;Node10</title>
<path fill="none" stroke="#191970" d="M310.6438,-615.4509C617.5292,-607.7655 2477,-558.8725 2477,-502.5 2477,-502.5 2477,-502.5 2477,-274.5 2477,-234.5668 2468.3755,-188.5249 2462.7478,-162.7322"/>
<polygon fill="#191970" stroke="#191970" points="2466.0989,-161.6819 2460.4839,-152.6973 2459.2705,-163.2224 2466.0989,-161.6819"/>
</g>
<!-- Node2&#45;&gt;Node11 -->
<g id="edge118" class="edge">
<title>Node2&#45;&gt;Node11</title>
<path fill="none" stroke="#191970" d="M229.9326,-606.4681C184.3288,-591.8776 114,-560.0477 114,-502.5 114,-502.5 114,-502.5 114,-274.5 114,-198.6557 217.3751,-162.8811 271.6228,-149.3293"/>
<polygon fill="#191970" stroke="#191970" points="272.5445,-152.7077 281.4584,-146.9812 270.919,-145.899 272.5445,-152.7077"/>
</g>
<!-- Node12 -->
<g id="node12" class="node">
<title>Node12</title>
<polygon fill="none" stroke="#bfbfbf" points="727.5,-201.5 727.5,-221.5 772.5,-221.5 772.5,-201.5 727.5,-201.5"/>
<text text-anchor="middle" x="750" y="-208.5" font-family="FreeSans" font-size="10.00" fill="#000000">utility</text>
</g>
<!-- Node2&#45;&gt;Node12 -->
<g id="edge119" class="edge">
<title>Node2&#45;&gt;Node12</title>
<path fill="none" stroke="#191970" d="M310.6132,-615.6212C488.6769,-611.3958 1164,-589.6273 1164,-502.5 1164,-502.5 1164,-502.5 1164,-331.5 1164,-154.3136 942.8843,-295.3568 779,-228 777.6271,-227.4357 776.2384,-226.8191 774.851,-226.1662"/>
<polygon fill="#191970" stroke="#191970" points="776.3775,-223.0151 765.8911,-221.5033 773.1459,-229.2245 776.3775,-223.0151"/>
</g>
<!-- Node46 -->
<g id="node46" class="node">
<title>Node46</title>
<g id="a_node46"><a xlink:href="../../da/db7/Jet_8h.html" target="_top" xlink:title="g4jets/Jet.h">
<polygon fill="none" stroke="#000000" points="2835.5,-201.5 2835.5,-221.5 2908.5,-221.5 2908.5,-201.5 2835.5,-201.5"/>
<text text-anchor="middle" x="2872" y="-208.5" font-family="FreeSans" font-size="10.00" fill="#000000">g4jets/Jet.h</text>
</a>
</g>
</g>
<!-- Node2&#45;&gt;Node46 -->
<g id="edge108" class="edge">
<title>Node2&#45;&gt;Node46</title>
<path fill="none" stroke="#191970" d="M310.8888,-616.3947C600.7974,-615.5784 2268.9722,-609.1955 2491,-570 2582.5574,-553.837 2689,-595.4731 2689,-502.5 2689,-502.5 2689,-502.5 2689,-331.5 2689,-266.2267 2771.4235,-234.5176 2825.6384,-220.7207"/>
<polygon fill="#191970" stroke="#191970" points="2826.5152,-224.1096 2835.407,-218.3489 2824.8635,-217.3072 2826.5152,-224.1096"/>
</g>
<!-- Node4 -->
<g id="node4" class="node">
<title>Node4</title>
<g id="a_node4"><a xlink:href="../../dc/da9/CaloEvalStack_8h.html" target="_top" xlink:title="CaloEvalStack.h">
<polygon fill="none" stroke="#000000" points="297.5,-378.5 297.5,-398.5 394.5,-398.5 394.5,-378.5 297.5,-378.5"/>
<text text-anchor="middle" x="346" y="-385.5" font-family="FreeSans" font-size="10.00" fill="#000000">CaloEvalStack.h</text>
</a>
</g>
</g>
<!-- Node3&#45;&gt;Node4 -->
<g id="edge3" class="edge">
<title>Node3&#45;&gt;Node4</title>
<path fill="none" stroke="#191970" d="M286.4187,-549.3751C299.3419,-541.2686 315.8823,-528.6761 325,-513 344.1041,-480.1541 346.9648,-434.7053 346.8206,-408.7818"/>
<polygon fill="#191970" stroke="#191970" points="350.3172,-408.5821 346.6021,-398.66 343.3189,-408.7333 350.3172,-408.5821"/>
</g>
<!-- Node3&#45;&gt;Node9 -->
<g id="edge106" class="edge">
<title>Node3&#45;&gt;Node9</title>
<path fill="none" stroke="#191970" d="M227.6739,-549.4382C161.7109,-530.2879 38,-481.9195 38,-388.5 38,-388.5 38,-388.5 38,-211.5 38,-113.8156 402.1,-82.0728 503.8615,-75.1087"/>
<polygon fill="#191970" stroke="#191970" points="504.1628,-78.5965 513.91,-74.4441 503.7008,-71.6118 504.1628,-78.5965"/>
</g>
<!-- Node3&#45;&gt;Node10 -->
<g id="edge105" class="edge">
<title>Node3&#45;&gt;Node10</title>
<path fill="none" stroke="#191970" d="M311.8571,-557.2709C619.2888,-541.3654 2439,-442.53 2439,-331.5 2439,-331.5 2439,-331.5 2439,-274.5 2439,-234.5668 2447.6245,-188.5249 2453.2522,-162.7322"/>
<polygon fill="#191970" stroke="#191970" points="2456.7295,-163.2224 2455.5161,-152.6973 2449.9011,-161.6819 2456.7295,-163.2224"/>
</g>
<!-- Node3&#45;&gt;Node11 -->
<g id="edge107" class="edge">
<title>Node3&#45;&gt;Node11</title>
<path fill="none" stroke="#191970" d="M251.5211,-549.3318C238.8631,-540.8621 221.6343,-527.8221 210,-513 172.3094,-464.9824 152,-449.5432 152,-388.5 152,-388.5 152,-388.5 152,-331.5 152,-262.911 177.8673,-245.7565 224,-195 238.0106,-179.5852 257.4891,-166.6756 273.7177,-157.5153"/>
<polygon fill="#191970" stroke="#191970" points="275.715,-160.4135 282.8315,-152.5645 272.3736,-154.2624 275.715,-160.4135"/>
</g>
<!-- Node13 -->
<g id="node13" class="node">
<title>Node13</title>
<g id="a_node13"><a xlink:href="../../d3/d59/SvtxEvalStack_8h.html" target="_top" xlink:title="SvtxEvalStack.h">
<polygon fill="none" stroke="#000000" points="219.5,-492.5 219.5,-512.5 316.5,-512.5 316.5,-492.5 219.5,-492.5"/>
<text text-anchor="middle" x="268" y="-499.5" font-family="FreeSans" font-size="10.00" fill="#000000">SvtxEvalStack.h</text>
</a>
</g>
</g>
<!-- Node3&#45;&gt;Node13 -->
<g id="edge23" class="edge">
<title>Node3&#45;&gt;Node13</title>
<path fill="none" stroke="#191970" d="M268,-549.3095C268,-541.9335 268,-531.72 268,-522.715"/>
<polygon fill="#191970" stroke="#191970" points="271.5001,-522.6022 268,-512.6022 264.5001,-522.6023 271.5001,-522.6022"/>
</g>
<!-- Node5 -->
<g id="node5" class="node">
<title>Node5</title>
<g id="a_node5"><a xlink:href="../../d8/dc0/CaloRawClusterEval_8h.html" target="_top" xlink:title="CaloRawClusterEval.h">
<polygon fill="none" stroke="#000000" points="557,-321.5 557,-341.5 683,-341.5 683,-321.5 557,-321.5"/>
<text text-anchor="middle" x="620" y="-328.5" font-family="FreeSans" font-size="10.00" fill="#000000">CaloRawClusterEval.h</text>
</a>
</g>
</g>
<!-- Node4&#45;&gt;Node5 -->
<g id="edge4" class="edge">
<title>Node4&#45;&gt;Node5</title>
<path fill="none" stroke="#191970" d="M394.355,-378.4408C441.0674,-368.7232 511.8755,-353.9931 561.687,-343.6308"/>
<polygon fill="#191970" stroke="#191970" points="562.5908,-347.0178 571.6684,-341.5544 561.1651,-340.1645 562.5908,-347.0178"/>
</g>
<!-- Node7 -->
<g id="node7" class="node">
<title>Node7</title>
<g id="a_node7"><a xlink:href="../../d0/d8a/CaloTruthEval_8h.html" target="_top" xlink:title="CaloTruthEval.h">
<polygon fill="none" stroke="#000000" points="522.5,-201.5 522.5,-221.5 617.5,-221.5 617.5,-201.5 522.5,-201.5"/>
<text text-anchor="middle" x="570" y="-208.5" font-family="FreeSans" font-size="10.00" fill="#000000">CaloTruthEval.h</text>
</a>
</g>
</g>
<!-- Node4&#45;&gt;Node7 -->
<g id="edge21" class="edge">
<title>Node4&#45;&gt;Node7</title>
<path fill="none" stroke="#191970" d="M358.685,-378.4766C395.6374,-349.2776 503.4619,-264.077 549.1522,-227.9735"/>
<polygon fill="#191970" stroke="#191970" points="551.5003,-230.5789 557.1765,-221.6329 547.1603,-225.0866 551.5003,-230.5789"/>
</g>
<!-- Node4&#45;&gt;Node11 -->
<g id="edge22" class="edge">
<title>Node4&#45;&gt;Node11</title>
<path fill="none" stroke="#191970" d="M344.1934,-378.2199C340.9297,-359.624 333.8464,-319.1563 328,-285 320.5226,-241.3148 311.9362,-190.0623 307.3322,-162.4899"/>
<polygon fill="#191970" stroke="#191970" points="310.7674,-161.8111 305.6693,-152.5235 303.8628,-162.9632 310.7674,-161.8111"/>
</g>
<!-- Node6 -->
<g id="node6" class="node">
<title>Node6</title>
<g id="a_node6"><a xlink:href="../../d0/d0b/CaloRawTowerEval_8h.html" target="_top" xlink:title="CaloRawTowerEval.h">
<polygon fill="none" stroke="#000000" points="560,-264.5 560,-284.5 680,-284.5 680,-264.5 560,-264.5"/>
<text text-anchor="middle" x="620" y="-271.5" font-family="FreeSans" font-size="10.00" fill="#000000">CaloRawTowerEval.h</text>
</a>
</g>
</g>
<!-- Node5&#45;&gt;Node6 -->
<g id="edge5" class="edge">
<title>Node5&#45;&gt;Node6</title>
<path fill="none" stroke="#191970" d="M620,-321.3095C620,-313.9335 620,-303.72 620,-294.715"/>
<polygon fill="#191970" stroke="#191970" points="623.5001,-294.6022 620,-284.6022 616.5001,-294.6023 623.5001,-294.6022"/>
</g>
<!-- Node5&#45;&gt;Node7 -->
<g id="edge16" class="edge">
<title>Node5&#45;&gt;Node7</title>
<path fill="none" stroke="#191970" d="M593.7695,-321.3585C578.2947,-313.8502 560.0232,-301.9618 551,-285 541.8601,-267.8189 549.5846,-246.0055 557.7599,-230.6192"/>
<polygon fill="#191970" stroke="#191970" points="561.0312,-231.9553 563.0246,-221.5496 554.9773,-228.441 561.0312,-231.9553"/>
</g>
<!-- Node5&#45;&gt;Node9 -->
<g id="edge18" class="edge">
<title>Node5&#45;&gt;Node9</title>
<path fill="none" stroke="#191970" d="M646.2305,-321.3585C661.7053,-313.8502 679.9768,-301.9618 689,-285 713.6078,-238.7422 755.2672,-249.5999 646,-126 622.4512,-99.3623 582.7035,-85.4728 556.4073,-78.8275"/>
<polygon fill="#191970" stroke="#191970" points="556.9166,-75.3521 546.3819,-76.479 555.3199,-82.1676 556.9166,-75.3521"/>
</g>
<!-- Node5&#45;&gt;Node10 -->
<g id="edge17" class="edge">
<title>Node5&#45;&gt;Node10</title>
<path fill="none" stroke="#191970" d="M683.2016,-329.465C937.9342,-320.9319 1889.7132,-285.7758 2185,-228 2275.9723,-210.2004 2379.4052,-172.9083 2428.774,-154.0076"/>
<polygon fill="#191970" stroke="#191970" points="2430.1166,-157.2411 2438.1859,-150.3755 2427.5964,-150.7105 2430.1166,-157.2411"/>
</g>
<!-- Node5&#45;&gt;Node11 -->
<g id="edge19" class="edge">
<title>Node5&#45;&gt;Node11</title>
<path fill="none" stroke="#191970" d="M599.8206,-321.4359C564.5521,-303.6554 489.6738,-265.0534 429,-228 392.0284,-205.4215 350.8677,-176.4891 326.2253,-158.7347"/>
<polygon fill="#191970" stroke="#191970" points="328.0851,-155.7603 317.9323,-152.7319 323.9806,-161.4306 328.0851,-155.7603"/>
</g>
<!-- Node5&#45;&gt;Node12 -->
<g id="edge20" class="edge">
<title>Node5&#45;&gt;Node12</title>
<path fill="none" stroke="#191970" d="M659.466,-321.4551C680.4485,-314.3356 705.2886,-302.8124 722,-285 735.8917,-270.1931 743.092,-247.7917 746.6876,-231.6126"/>
<polygon fill="#191970" stroke="#191970" points="750.1661,-232.0598 748.6389,-221.5757 743.2948,-230.7239 750.1661,-232.0598"/>
</g>
<!-- Node6&#45;&gt;Node7 -->
<g id="edge6" class="edge">
<title>Node6&#45;&gt;Node7</title>
<path fill="none" stroke="#191970" d="M611.9666,-264.378C604.5754,-255.0649 593.4377,-241.0316 584.4934,-229.7617"/>
<polygon fill="#191970" stroke="#191970" points="587.1377,-227.4633 578.1795,-221.8062 581.6546,-231.8149 587.1377,-227.4633"/>
</g>
<!-- Node6&#45;&gt;Node9 -->
<g id="edge13" class="edge">
<title>Node6&#45;&gt;Node9</title>
<path fill="none" stroke="#191970" d="M624.0851,-264.2066C633.5037,-238.6743 653.9507,-171.2317 627,-126 611.7855,-100.4653 579.3582,-86.5943 556.1861,-79.6306"/>
<polygon fill="#191970" stroke="#191970" points="556.8565,-76.1849 546.2858,-76.9 554.9952,-82.9329 556.8565,-76.1849"/>
</g>
<!-- Node6&#45;&gt;Node10 -->
<g id="edge12" class="edge">
<title>Node6&#45;&gt;Node10</title>
<path fill="none" stroke="#191970" d="M680.0186,-273.2015C932.7956,-267.6417 1903.9731,-245.3387 2040,-228 2106.4219,-219.5335 2121.3456,-208.1551 2187,-195 2277.2733,-176.912 2300.9181,-178.0184 2391,-159 2403.4198,-156.3779 2417.0368,-153.0996 2428.7321,-150.1576"/>
<polygon fill="#191970" stroke="#191970" points="2429.6112,-153.5455 2438.4367,-147.6837 2427.882,-146.7624 2429.6112,-153.5455"/>
</g>
<!-- Node6&#45;&gt;Node11 -->
<g id="edge14" class="edge">
<title>Node6&#45;&gt;Node11</title>
<path fill="none" stroke="#191970" d="M595.9893,-264.4702C539.7991,-240.9983 399.7107,-182.4804 336.204,-155.9523"/>
<polygon fill="#191970" stroke="#191970" points="337.2701,-152.6046 326.6937,-151.9797 334.572,-159.0637 337.2701,-152.6046"/>
</g>
<!-- Node6&#45;&gt;Node12 -->
<g id="edge15" class="edge">
<title>Node6&#45;&gt;Node12</title>
<path fill="none" stroke="#191970" d="M640.8867,-264.378C662.3033,-253.9992 695.8172,-237.7578 720.0538,-226.0124"/>
<polygon fill="#191970" stroke="#191970" points="721.6925,-229.1077 729.1651,-221.5969 718.6397,-222.8084 721.6925,-229.1077"/>
</g>
<!-- Node8 -->
<g id="node8" class="node">
<title>Node8</title>
<g id="a_node8"><a xlink:href="../../d8/d89/BaseTruthEval_8h.html" target="_top" xlink:title="BaseTruthEval.h">
<polygon fill="none" stroke="#000000" points="520.5,-132.5 520.5,-152.5 617.5,-152.5 617.5,-132.5 520.5,-132.5"/>
<text text-anchor="middle" x="569" y="-139.5" font-family="FreeSans" font-size="10.00" fill="#000000">BaseTruthEval.h</text>
</a>
</g>
</g>
<!-- Node7&#45;&gt;Node8 -->
<g id="edge7" class="edge">
<title>Node7&#45;&gt;Node8</title>
<path fill="none" stroke="#191970" d="M569.8524,-201.3188C569.7062,-191.2289 569.4782,-175.4925 569.2947,-162.8347"/>
<polygon fill="#191970" stroke="#191970" points="572.7928,-162.6712 569.1482,-152.723 565.7935,-162.7727 572.7928,-162.6712"/>
</g>
<!-- Node7&#45;&gt;Node9 -->
<g id="edge10" class="edge">
<title>Node7&#45;&gt;Node9</title>
<path fill="none" stroke="#191970" d="M552.3739,-201.3468C538.5085,-192.2484 520.2069,-177.4983 512,-159 502.4421,-137.4566 511.1163,-110.5694 519.4123,-92.7605"/>
<polygon fill="#191970" stroke="#191970" points="522.6217,-94.1689 523.9882,-83.6625 516.3681,-91.0236 522.6217,-94.1689"/>
</g>
<!-- Node7&#45;&gt;Node10 -->
<g id="edge9" class="edge">
<title>Node7&#45;&gt;Node10</title>
<path fill="none" stroke="#191970" d="M617.5481,-205.1461C646.7605,-201.5135 684.9797,-197.2455 719,-195 1089.8348,-170.5234 2022.5668,-207.7286 2391,-159 2403.3659,-157.3645 2416.7567,-154.3297 2428.2928,-151.3046"/>
<polygon fill="#191970" stroke="#191970" points="2429.5624,-154.5859 2438.2832,-148.5694 2427.7139,-147.8343 2429.5624,-154.5859"/>
</g>
<!-- Node7&#45;&gt;Node11 -->
<g id="edge11" class="edge">
<title>Node7&#45;&gt;Node11</title>
<path fill="none" stroke="#191970" d="M531.3213,-201.4668C478.7231,-187.8229 385.5758,-163.6606 336.4353,-150.9137"/>
<polygon fill="#191970" stroke="#191970" points="337.2061,-147.4978 326.6476,-148.3748 335.4484,-154.2736 337.2061,-147.4978"/>
</g>
<!-- Node8&#45;&gt;Node9 -->
<g id="edge8" class="edge">
<title>Node8&#45;&gt;Node9</title>
<path fill="none" stroke="#191970" d="M563.2454,-132.3188C557.3696,-121.9231 548.1059,-105.5336 540.848,-92.6927"/>
<polygon fill="#191970" stroke="#191970" points="543.7458,-90.7064 535.7782,-83.723 537.6518,-94.1508 543.7458,-90.7064"/>
</g>
<!-- Node13&#45;&gt;Node11 -->
<g id="edge104" class="edge">
<title>Node13&#45;&gt;Node11</title>
<path fill="none" stroke="#191970" d="M249.7165,-492.3834C236.5541,-484.2007 219.3584,-471.5089 209,-456 191.6902,-430.0832 190,-419.6658 190,-388.5 190,-388.5 190,-388.5 190,-331.5 190,-259.0825 252.1265,-190.586 284.6534,-159.6866"/>
<polygon fill="#191970" stroke="#191970" points="287.2766,-162.0274 292.2294,-152.6614 282.5169,-156.8945 287.2766,-162.0274"/>
</g>
<!-- Node14 -->
<g id="node14" class="node">
<title>Node14</title>
<g id="a_node14"><a xlink:href="../../d5/d9c/SvtxVertexEval_8h.html" target="_top" xlink:title="SvtxVertexEval.h">
<polygon fill="none" stroke="#000000" points="218,-435.5 218,-455.5 320,-455.5 320,-435.5 218,-435.5"/>
<text text-anchor="middle" x="269" y="-442.5" font-family="FreeSans" font-size="10.00" fill="#000000">SvtxVertexEval.h</text>
</a>
</g>
</g>
<!-- Node13&#45;&gt;Node14 -->
<g id="edge24" class="edge">
<title>Node13&#45;&gt;Node14</title>
<path fill="none" stroke="#191970" d="M268.1788,-492.3095C268.3082,-484.9335 268.4874,-474.72 268.6454,-465.715"/>
<polygon fill="#191970" stroke="#191970" points="272.1467,-465.6621 268.8228,-455.6022 265.1478,-465.5393 272.1467,-465.6621"/>
</g>
<!-- Node14&#45;&gt;Node9 -->
<g id="edge101" class="edge">
<title>Node14&#45;&gt;Node9</title>
<path fill="none" stroke="#191970" d="M264.9019,-435.424C247.8225,-391.6203 187.0504,-215.9191 272,-126 303.5458,-92.6088 444.5911,-79.2881 503.7507,-75.1052"/>
<polygon fill="#191970" stroke="#191970" points="504.0574,-78.5926 513.7993,-74.4277 503.5865,-71.6084 504.0574,-78.5926"/>
</g>
<!-- Node14&#45;&gt;Node10 -->
<g id="edge100" class="edge">
<title>Node14&#45;&gt;Node10</title>
<path fill="none" stroke="#191970" d="M320.1206,-444.142C644.3466,-435.366 2401,-385.3337 2401,-331.5 2401,-331.5 2401,-331.5 2401,-274.5 2401,-231.1168 2427.2711,-185.8004 2444.1428,-161.1708"/>
<polygon fill="#191970" stroke="#191970" points="2447.1534,-162.9756 2450.0744,-152.7914 2441.44,-158.9312 2447.1534,-162.9756"/>
</g>
<!-- Node14&#45;&gt;Node11 -->
<g id="edge102" class="edge">
<title>Node14&#45;&gt;Node11</title>
<path fill="none" stroke="#191970" d="M268.5573,-435.4375C267.7228,-415.5723 266,-369.9091 266,-331.5 266,-331.5 266,-331.5 266,-274.5 266,-233.2096 283.3829,-187.3898 294.6349,-162.0555"/>
<polygon fill="#191970" stroke="#191970" points="297.8851,-163.3646 298.8752,-152.8161 291.5231,-160.4448 297.8851,-163.3646"/>
</g>
<!-- Node14&#45;&gt;Node12 -->
<g id="edge103" class="edge">
<title>Node14&#45;&gt;Node12</title>
<path fill="none" stroke="#191970" d="M320.2915,-442.8264C403.8602,-436.4113 572.0977,-414.7471 692,-342 720.8107,-324.52 728.4363,-315.8485 742,-285 749.3282,-268.3332 750.9916,-247.5711 751.018,-232.3688"/>
<polygon fill="#191970" stroke="#191970" points="754.5086,-231.9062 750.7857,-221.9871 747.5103,-232.0629 754.5086,-231.9062"/>
</g>
<!-- Node15 -->
<g id="node15" class="node">
<title>Node15</title>
<g id="a_node15"><a xlink:href="../../df/d8a/SvtxTrackEval_8h.html" target="_top" xlink:title="SvtxTrackEval.h">
<polygon fill="none" stroke="#000000" points="812,-378.5 812,-398.5 908,-398.5 908,-378.5 812,-378.5"/>
<text text-anchor="middle" x="860" y="-385.5" font-family="FreeSans" font-size="10.00" fill="#000000">SvtxTrackEval.h</text>
</a>
</g>
</g>
<!-- Node14&#45;&gt;Node15 -->
<g id="edge25" class="edge">
<title>Node14&#45;&gt;Node15</title>
<path fill="none" stroke="#191970" d="M320.2134,-442.3669C414.836,-436.2743 623.343,-421.4292 798,-399 799.2791,-398.8357 800.5721,-398.6643 801.8751,-398.4866"/>
<polygon fill="#191970" stroke="#191970" points="802.5982,-401.9185 811.9929,-397.0205 801.5943,-394.9909 802.5982,-401.9185"/>
</g>
<!-- Node15&#45;&gt;Node9 -->
<g id="edge97" class="edge">
<title>Node15&#45;&gt;Node9</title>
<path fill="none" stroke="#191970" d="M811.7587,-386.5988C734.9702,-382.7139 589.3791,-371.5772 548,-342 467.318,-284.3296 459.3957,-219.6612 492,-126 496.4632,-113.1788 505.1604,-100.7811 513.1091,-91.2557"/>
<polygon fill="#191970" stroke="#191970" points="515.7934,-93.5035 519.7765,-83.6858 510.5404,-88.8767 515.7934,-93.5035"/>
</g>
<!-- Node15&#45;&gt;Node10 -->
<g id="edge96" class="edge">
<title>Node15&#45;&gt;Node10</title>
<path fill="none" stroke="#191970" d="M908.0498,-387.5478C1146.7297,-382.4935 2198.3856,-356.3024 2324,-285 2366.4624,-260.8971 2352.926,-229.9709 2387,-195 2400.7324,-180.9061 2418.5436,-167.7469 2432.891,-158.1283"/>
<polygon fill="#191970" stroke="#191970" points="2434.8576,-161.0243 2441.3093,-152.6203 2431.025,-155.1667 2434.8576,-161.0243"/>
</g>
<!-- Node15&#45;&gt;Node11 -->
<g id="edge98" class="edge">
<title>Node15&#45;&gt;Node11</title>
<path fill="none" stroke="#191970" d="M811.8773,-385.9108C701.7834,-379.6584 438.38,-362.7117 404,-342 341.0005,-304.0469 357.5966,-262.3307 328,-195 323.1511,-183.969 317.5629,-171.719 312.9994,-161.8284"/>
<polygon fill="#191970" stroke="#191970" points="316.0686,-160.1271 308.6886,-152.5253 309.7173,-163.0701 316.0686,-160.1271"/>
</g>
<!-- Node15&#45;&gt;Node12 -->
<g id="edge99" class="edge">
<title>Node15&#45;&gt;Node12</title>
<path fill="none" stroke="#191970" d="M856.0598,-378.2946C847.3452,-356.3401 825.0486,-303.4229 798,-264 789.2892,-251.3041 777.6786,-238.5227 768.0586,-228.7501"/>
<polygon fill="#191970" stroke="#191970" points="770.4293,-226.1719 760.8637,-221.6168 765.5009,-231.1429 770.4293,-226.1719"/>
</g>
<!-- Node16 -->
<g id="node16" class="node">
<title>Node16</title>
<g id="a_node16"><a xlink:href="../../d7/dcd/SvtxClusterEval_8h.html" target="_top" xlink:title="SvtxClusterEval.h">
<polygon fill="none" stroke="#000000" points="1289.5,-321.5 1289.5,-341.5 1394.5,-341.5 1394.5,-321.5 1289.5,-321.5"/>
<text text-anchor="middle" x="1342" y="-328.5" font-family="FreeSans" font-size="10.00" fill="#000000">SvtxClusterEval.h</text>
</a>
</g>
</g>
<!-- Node15&#45;&gt;Node16 -->
<g id="edge26" class="edge">
<title>Node15&#45;&gt;Node16</title>
<path fill="none" stroke="#191970" d="M908.4229,-382.7736C996.2693,-372.3852 1181.8035,-350.4444 1279.2318,-338.9228"/>
<polygon fill="#191970" stroke="#191970" points="1279.7165,-342.39 1289.2363,-337.7397 1278.8944,-335.4384 1279.7165,-342.39"/>
</g>
<!-- Node19 -->
<g id="node19" class="node">
<title>Node19</title>
<g id="a_node19"><a xlink:href="../../d8/d00/TrkrDefs_8h.html" target="_top" xlink:title="Namespace with Trkr key types and utility functions.">
<polygon fill="none" stroke="#000000" points="2262,-132.5 2262,-152.5 2382,-152.5 2382,-132.5 2262,-132.5"/>
<text text-anchor="middle" x="2322" y="-139.5" font-family="FreeSans" font-size="10.00" fill="#000000">trackbase/TrkrDefs.h</text>
</a>
</g>
</g>
<!-- Node15&#45;&gt;Node19 -->
<g id="edge95" class="edge">
<title>Node15&#45;&gt;Node19</title>
<path fill="none" stroke="#191970" d="M908.0794,-384.9369C1002.9838,-377.7826 1221.0673,-360.7429 1404,-342 1721.0598,-309.5147 1808.8919,-326.5278 2112,-228 2177.019,-206.865 2250.4734,-175.0539 2290.9908,-156.7808"/>
<polygon fill="#191970" stroke="#191970" points="2292.6567,-159.8685 2300.3181,-152.5505 2289.7653,-153.4935 2292.6567,-159.8685"/>
</g>
<!-- Node16&#45;&gt;Node9 -->
<g id="edge93" class="edge">
<title>Node16&#45;&gt;Node9</title>
<path fill="none" stroke="#191970" d="M1289.3762,-331.1362C1122.8319,-329.6099 614.5039,-321.9422 551,-285 487.1943,-247.8822 485.6325,-197.7444 503,-126 505.8576,-114.1955 511.8549,-102.0703 517.4729,-92.4507"/>
<polygon fill="#191970" stroke="#191970" points="520.5568,-94.1181 522.8342,-83.7709 514.6013,-90.4395 520.5568,-94.1181"/>
</g>
<!-- Node16&#45;&gt;Node10 -->
<g id="edge91" class="edge">
<title>Node16&#45;&gt;Node10</title>
<path fill="none" stroke="#191970" d="M1394.5587,-330.3821C1589.5742,-326.0502 2262.4959,-309.39 2301,-285 2339.2966,-260.7414 2316.2926,-226.3901 2349,-195 2361.2004,-183.291 2401.1739,-165.5422 2429.1572,-153.9833"/>
<polygon fill="#191970" stroke="#191970" points="2430.5549,-157.1932 2438.4901,-150.173 2427.909,-150.7125 2430.5549,-157.1932"/>
</g>
<!-- Node16&#45;&gt;Node12 -->
<g id="edge94" class="edge">
<title>Node16&#45;&gt;Node12</title>
<path fill="none" stroke="#191970" d="M1313.8451,-321.4728C1289.1405,-312.487 1252.364,-298.6541 1221,-285 1201.4994,-276.5105 1198.4804,-269.7356 1178,-264 1009.9527,-216.9379 955.8412,-272.129 787,-228 784.3483,-227.3069 781.6465,-226.4425 778.9713,-225.475"/>
<polygon fill="#191970" stroke="#191970" points="780.1187,-222.1634 769.5367,-221.6413 777.4835,-228.6484 780.1187,-222.1634"/>
</g>
<!-- Node17 -->
<g id="node17" class="node">
<title>Node17</title>
<g id="a_node17"><a xlink:href="../../d7/d98/SvtxHitEval_8h.html" target="_top" xlink:title="SvtxHitEval.h">
<polygon fill="none" stroke="#000000" points="1230,-264.5 1230,-284.5 1314,-284.5 1314,-264.5 1230,-264.5"/>
<text text-anchor="middle" x="1272" y="-271.5" font-family="FreeSans" font-size="10.00" fill="#000000">SvtxHitEval.h</text>
</a>
</g>
</g>
<!-- Node16&#45;&gt;Node17 -->
<g id="edge27" class="edge">
<title>Node16&#45;&gt;Node17</title>
<path fill="none" stroke="#191970" d="M1329.4854,-321.3095C1319.1331,-312.8798 1304.2294,-300.7439 1292.1913,-290.9415"/>
<polygon fill="#191970" stroke="#191970" points="1294.3706,-288.2025 1284.4063,-284.6022 1289.9506,-293.6306 1294.3706,-288.2025"/>
</g>
<!-- Node16&#45;&gt;Node19 -->
<g id="edge41" class="edge">
<title>Node16&#45;&gt;Node19</title>
<path fill="none" stroke="#191970" d="M1394.7061,-327.347C1541.1586,-315.2907 1950.4167,-277.9463 2075,-228 2098.3543,-218.6371 2098.2235,-205.692 2121,-195 2146.4278,-183.0634 2215.3291,-166.2155 2265.3848,-154.8525"/>
<polygon fill="#191970" stroke="#191970" points="2266.4561,-158.1989 2275.4416,-152.5854 2264.9167,-151.3702 2266.4561,-158.1989"/>
</g>
<!-- Node23 -->
<g id="node23" class="node">
<title>Node23</title>
<polygon fill="none" stroke="#bfbfbf" points="1370,-63.5 1370,-83.5 1428,-83.5 1428,-63.5 1370,-63.5"/>
<text text-anchor="middle" x="1399" y="-70.5" font-family="FreeSans" font-size="10.00" fill="#000000">memory</text>
</g>
<!-- Node16&#45;&gt;Node23 -->
<g id="edge92" class="edge">
<title>Node16&#45;&gt;Node23</title>
<path fill="none" stroke="#191970" d="M1344.2345,-321.3861C1352.7294,-282.9353 1383.1144,-145.4032 1394.579,-93.5107"/>
<polygon fill="#191970" stroke="#191970" points="1398.0412,-94.0636 1396.781,-83.544 1391.206,-92.5534 1398.0412,-94.0636"/>
</g>
<!-- Node24 -->
<g id="node24" class="node">
<title>Node24</title>
<g id="a_node24"><a xlink:href="../../da/d51/ActsSurfaceMaps_8h.html" target="_top" xlink:title="maps hitsetids to Acts Surfaces">
<polygon fill="none" stroke="#000000" points="1865.5,-201.5 1865.5,-221.5 2030.5,-221.5 2030.5,-201.5 1865.5,-201.5"/>
<text text-anchor="middle" x="1948" y="-208.5" font-family="FreeSans" font-size="10.00" fill="#000000">trackbase/ActsSurfaceMaps.h</text>
</a>
</g>
</g>
<!-- Node16&#45;&gt;Node24 -->
<g id="edge42" class="edge">
<title>Node16&#45;&gt;Node24</title>
<path fill="none" stroke="#191970" d="M1392.6249,-321.4753C1503.4647,-299.5268 1767.2498,-247.2921 1886.9971,-223.5798"/>
<polygon fill="#191970" stroke="#191970" points="1887.9634,-226.9565 1897.093,-221.5806 1886.6036,-220.0898 1887.9634,-226.9565"/>
</g>
<!-- Node25 -->
<g id="node25" class="node">
<title>Node25</title>
<g id="a_node25"><a xlink:href="../../d4/d6a/ActsTrackingGeometry_8h.html" target="_top" xlink:title="trackbase/ActsTrackingGeometry.h">
<polygon fill="none" stroke="#000000" points="1370.5,-264.5 1370.5,-284.5 1561.5,-284.5 1561.5,-264.5 1370.5,-264.5"/>
<text text-anchor="middle" x="1466" y="-271.5" font-family="FreeSans" font-size="10.00" fill="#000000">trackbase/ActsTrackingGeometry.h</text>
</a>
</g>
</g>
<!-- Node16&#45;&gt;Node25 -->
<g id="edge48" class="edge">
<title>Node16&#45;&gt;Node25</title>
<path fill="none" stroke="#191970" d="M1363.8833,-321.4408C1383.5062,-312.4205 1412.525,-299.0813 1434.6181,-288.9255"/>
<polygon fill="#191970" stroke="#191970" points="1436.2942,-292.0072 1443.9184,-284.6504 1433.3705,-285.647 1436.2942,-292.0072"/>
</g>
<!-- Node17&#45;&gt;Node9 -->
<g id="edge39" class="edge">
<title>Node17&#45;&gt;Node9</title>
<path fill="none" stroke="#191970" d="M1229.8478,-266.5556C1224.1953,-265.6201 1218.4645,-264.7378 1213,-264 1040.9335,-240.7687 984.8263,-293.4329 824,-228 815.6578,-224.606 705.9392,-130.2521 698,-126 651.0877,-100.8748 590.2549,-85.6379 556.1516,-78.4632"/>
<polygon fill="#191970" stroke="#191970" points="556.5665,-74.976 546.0698,-76.4147 555.1726,-81.8359 556.5665,-74.976"/>
</g>
<!-- Node17&#45;&gt;Node10 -->
<g id="edge38" class="edge">
<title>Node17&#45;&gt;Node10</title>
<path fill="none" stroke="#191970" d="M1314.0615,-268.9531C1329.1561,-267.1319 1346.3192,-265.2552 1362,-264 1544.9227,-249.3579 2007.3347,-265.3564 2187,-228 2227.0823,-219.666 2234.1575,-207.9347 2273,-195 2327.2009,-176.9509 2391.5958,-159.5751 2428.343,-150.0361"/>
<polygon fill="#191970" stroke="#191970" points="2429.5717,-153.3338 2438.3807,-147.4472 2427.8234,-146.5557 2429.5717,-153.3338"/>
</g>
<!-- Node17&#45;&gt;Node12 -->
<g id="edge40" class="edge">
<title>Node17&#45;&gt;Node12</title>
<path fill="none" stroke="#191970" d="M1229.8771,-266.1273C1225.2058,-265.3403 1220.509,-264.6103 1216,-264 1026.3921,-238.3363 972.3127,-275.6338 787,-228 784.1901,-227.2777 781.325,-226.3598 778.4956,-225.3281"/>
<polygon fill="#191970" stroke="#191970" points="779.7253,-222.0496 769.1447,-221.5005 777.0736,-228.5279 779.7253,-222.0496"/>
</g>
<!-- Node18 -->
<g id="node18" class="node">
<title>Node18</title>
<g id="a_node18"><a xlink:href="../../d7/d20/SvtxTruthEval_8h.html" target="_top" xlink:title="SvtxTruthEval.h">
<polygon fill="none" stroke="#000000" points="1218.5,-201.5 1218.5,-221.5 1313.5,-221.5 1313.5,-201.5 1218.5,-201.5"/>
<text text-anchor="middle" x="1266" y="-208.5" font-family="FreeSans" font-size="10.00" fill="#000000">SvtxTruthEval.h</text>
</a>
</g>
</g>
<!-- Node17&#45;&gt;Node18 -->
<g id="edge28" class="edge">
<title>Node17&#45;&gt;Node18</title>
<path fill="none" stroke="#191970" d="M1271.036,-264.378C1270.2012,-255.6128 1268.9682,-242.6662 1267.9312,-231.7777"/>
<polygon fill="#191970" stroke="#191970" points="1271.414,-231.4293 1266.9815,-221.8062 1264.4455,-232.093 1271.414,-231.4293"/>
</g>
<!-- Node17&#45;&gt;Node19 -->
<g id="edge37" class="edge">
<title>Node17&#45;&gt;Node19</title>
<path fill="none" stroke="#191970" d="M1314.0682,-269.0355C1329.1635,-267.2221 1346.3253,-265.3292 1362,-264 1512.3394,-251.2517 1898.4666,-280.2755 2040,-228 2062.5982,-219.6533 2061.1572,-205.1607 2083,-195 2099.0191,-187.5483 2195.1371,-167.6129 2260.4923,-154.5642"/>
<polygon fill="#191970" stroke="#191970" points="2261.5761,-157.9172 2270.7003,-152.5321 2260.2093,-151.0519 2261.5761,-157.9172"/>
</g>
<!-- Node18&#45;&gt;Node8 -->
<g id="edge29" class="edge">
<title>Node18&#45;&gt;Node8</title>
<path fill="none" stroke="#191970" d="M1218.3624,-203.0616C1201.2582,-200.2259 1181.8004,-197.2221 1164,-195 968.3153,-170.5719 735.0269,-153.466 627.9835,-146.2836"/>
<polygon fill="#191970" stroke="#191970" points="627.9267,-142.7721 617.716,-145.5992 627.461,-149.7566 627.9267,-142.7721"/>
</g>
<!-- Node18&#45;&gt;Node9 -->
<g id="edge34" class="edge">
<title>Node18&#45;&gt;Node9</title>
<path fill="none" stroke="#191970" d="M1218.3232,-203.3574C1201.2153,-200.5495 1181.7652,-197.4876 1164,-195 1029.2594,-176.1325 993.6327,-184.5598 860,-159 803.9861,-148.2863 791.1878,-140.3755 736,-126 671.3609,-109.1626 595.1574,-89.8924 556.048,-80.0447"/>
<polygon fill="#191970" stroke="#191970" points="556.593,-76.5728 546.0412,-77.5269 554.8849,-83.3612 556.593,-76.5728"/>
</g>
<!-- Node18&#45;&gt;Node10 -->
<g id="edge33" class="edge">
<title>Node18&#45;&gt;Node10</title>
<path fill="none" stroke="#191970" d="M1313.6511,-206.0817C1347.4728,-202.4234 1393.9693,-197.773 1435,-195 1859.2223,-166.3291 1969.9435,-218.1435 2391,-159 2403.3524,-157.2649 2416.7406,-154.2116 2428.2785,-151.1994"/>
<polygon fill="#191970" stroke="#191970" points="2429.5394,-154.4838 2438.2715,-148.4837 2427.7036,-147.7288 2429.5394,-154.4838"/>
</g>
<!-- Node18&#45;&gt;Node19 -->
<g id="edge30" class="edge">
<title>Node18&#45;&gt;Node19</title>
<path fill="none" stroke="#191970" d="M1313.6586,-206.1898C1347.4839,-202.5818 1393.9814,-197.947 1435,-195 1781.1435,-170.1309 1869.6828,-193.4941 2215,-159 2227.6917,-157.7322 2241.1732,-155.9772 2254.134,-154.0823"/>
<polygon fill="#191970" stroke="#191970" points="2255.0237,-157.4879 2264.3917,-152.5393 2253.9823,-150.5658 2255.0237,-157.4879"/>
</g>
<!-- Node22 -->
<g id="node22" class="node">
<title>Node22</title>
<polygon fill="none" stroke="#bfbfbf" points="2209.5,-63.5 2209.5,-83.5 2258.5,-83.5 2258.5,-63.5 2209.5,-63.5"/>
<text text-anchor="middle" x="2234" y="-70.5" font-family="FreeSans" font-size="10.00" fill="#000000">vector</text>
</g>
<!-- Node18&#45;&gt;Node22 -->
<g id="edge35" class="edge">
<title>Node18&#45;&gt;Node22</title>
<path fill="none" stroke="#191970" d="M1313.8919,-206.7419C1441.5219,-194.0484 1780.3545,-160.2561 1783,-159 1801.7369,-150.1034 1797.37,-135.1184 1816,-126 1883.3982,-93.012 2111.2972,-79.1771 2199.1047,-74.9849"/>
<polygon fill="#191970" stroke="#191970" points="2199.5119,-78.4699 2209.3388,-74.51 2199.1873,-71.4774 2199.5119,-78.4699"/>
</g>
<!-- Node18&#45;&gt;Node23 -->
<g id="edge36" class="edge">
<title>Node18&#45;&gt;Node23</title>
<path fill="none" stroke="#191970" d="M1271.9878,-201.2523C1282.144,-184.3842 1303.997,-150.2274 1328,-126 1341.8494,-112.0212 1359.6603,-98.8616 1373.9783,-89.2141"/>
<polygon fill="#191970" stroke="#191970" points="1375.948,-92.1078 1382.3753,-83.6851 1372.0984,-86.2614 1375.948,-92.1078"/>
</g>
<!-- Node20 -->
<g id="node20" class="node">
<title>Node20</title>
<polygon fill="none" stroke="#bfbfbf" points="1929.5,-63.5 1929.5,-83.5 1980.5,-83.5 1980.5,-63.5 1929.5,-63.5"/>
<text text-anchor="middle" x="1955" y="-70.5" font-family="FreeSans" font-size="10.00" fill="#000000">cstdint</text>
</g>
<!-- Node19&#45;&gt;Node20 -->
<g id="edge31" class="edge">
<title>Node19&#45;&gt;Node20</title>
<path fill="none" stroke="#191970" d="M2268.635,-132.4668C2192.7428,-118.1982 2055.6648,-92.4261 1990.8315,-80.2367"/>
<polygon fill="#191970" stroke="#191970" points="1991.173,-76.7397 1980.6984,-78.3316 1989.8795,-83.6191 1991.173,-76.7397"/>
</g>
<!-- Node21 -->
<g id="node21" class="node">
<title>Node21</title>
<polygon fill="none" stroke="#bfbfbf" points="2760,-63.5 2760,-83.5 2820,-83.5 2820,-63.5 2760,-63.5"/>
<text text-anchor="middle" x="2790" y="-70.5" font-family="FreeSans" font-size="10.00" fill="#000000">iostream</text>
</g>
<!-- Node19&#45;&gt;Node21 -->
<g id="edge32" class="edge">
<title>Node19&#45;&gt;Node21</title>
<path fill="none" stroke="#191970" d="M2382.2243,-133.016C2397.7764,-130.6446 2414.5019,-128.1623 2430,-126 2556.4484,-108.3576 2589.1911,-111.7385 2715,-90 2726.366,-88.0361 2738.6156,-85.5151 2749.8533,-83.0378"/>
<polygon fill="#191970" stroke="#191970" points="2750.8469,-86.4019 2759.8349,-80.7924 2749.3105,-79.5726 2750.8469,-86.4019"/>
</g>
<!-- Node24&#45;&gt;Node9 -->
<g id="edge46" class="edge">
<title>Node24&#45;&gt;Node9</title>
<path fill="none" stroke="#191970" d="M1899.4825,-201.4866C1885.5053,-198.959 1870.1975,-196.5309 1856,-195 1643.0847,-172.0417 1102.3497,-204.0857 893,-159 854.9983,-150.8159 849.2998,-136.9469 812,-126 719.8485,-98.9549 606.504,-82.8638 556.1916,-76.5708"/>
<polygon fill="#191970" stroke="#191970" points="556.5192,-73.0848 546.1679,-75.3433 555.6683,-80.0329 556.5192,-73.0848"/>
</g>
<!-- Node24&#45;&gt;Node10 -->
<g id="edge44" class="edge">
<title>Node24&#45;&gt;Node10</title>
<path fill="none" stroke="#191970" d="M2030.5078,-204.7922C2119.8182,-196.8178 2266.2214,-181.6688 2391,-159 2403.4891,-156.7311 2417.1181,-153.5136 2428.8036,-150.5215"/>
<polygon fill="#191970" stroke="#191970" points="2429.71,-153.9023 2438.4949,-147.9797 2427.9341,-147.1313 2429.71,-153.9023"/>
</g>
<!-- Node24&#45;&gt;Node19 -->
<g id="edge43" class="edge">
<title>Node24&#45;&gt;Node19</title>
<path fill="none" stroke="#191970" d="M2006.1231,-201.4773C2086.5988,-187.5773 2224.7282,-163.6282 2248,-159 2254.6788,-157.6717 2261.6804,-156.2065 2268.6014,-154.7138"/>
<polygon fill="#191970" stroke="#191970" points="2269.6151,-158.075 2278.637,-152.5201 2268.1202,-151.2364 2269.6151,-158.075"/>
</g>
<!-- Node24&#45;&gt;Node22 -->
<g id="edge47" class="edge">
<title>Node24&#45;&gt;Node22</title>
<path fill="none" stroke="#191970" d="M2007.747,-201.45C2084.1516,-188.351 2207.5614,-166.2585 2215,-159 2232.2855,-142.1332 2235.4359,-113.2845 2235.3371,-93.814"/>
<polygon fill="#191970" stroke="#191970" points="2238.8274,-93.469 2234.9858,-83.5952 2231.8316,-93.7096 2238.8274,-93.469"/>
</g>
<!-- Node24&#45;&gt;Node23 -->
<g id="edge45" class="edge">
<title>Node24&#45;&gt;Node23</title>
<path fill="none" stroke="#191970" d="M1895.0608,-201.449C1882.2951,-199.1795 1868.6799,-196.8861 1856,-195 1721.4255,-174.9821 1681.4141,-200.9881 1552,-159 1502.1167,-142.8155 1450.0535,-109.6706 1421.3547,-89.7375"/>
<polygon fill="#191970" stroke="#191970" points="1423.0797,-86.6711 1412.8903,-83.7681 1419.0454,-92.3917 1423.0797,-86.6711"/>
</g>
<!-- Node25&#45;&gt;Node23 -->
<g id="edge49" class="edge">
<title>Node25&#45;&gt;Node23</title>
<path fill="none" stroke="#191970" d="M1457.8858,-264.3341C1450.979,-255.2593 1441.2157,-241.3739 1435,-228 1414.0025,-182.8212 1404.7044,-124.3492 1401.0559,-93.9274"/>
<polygon fill="#191970" stroke="#191970" points="1404.5055,-93.2794 1399.9215,-83.7276 1397.5484,-94.0532 1404.5055,-93.2794"/>
</g>
<!-- Node26 -->
<g id="node26" class="node">
<title>Node26</title>
<g id="a_node26"><a xlink:href="../../d5/d50/BinnedArray_8hpp.html" target="_top" xlink:title="Acts/Utilities/BinnedArray.hpp">
<polygon fill="none" stroke="#000000" points="2504.5,-201.5 2504.5,-221.5 2671.5,-221.5 2671.5,-201.5 2504.5,-201.5"/>
<text text-anchor="middle" x="2588" y="-208.5" font-family="FreeSans" font-size="10.00" fill="#000000">Acts/Utilities/BinnedArray.hpp</text>
</a>
</g>
</g>
<!-- Node25&#45;&gt;Node26 -->
<g id="edge50" class="edge">
<title>Node25&#45;&gt;Node26</title>
<path fill="none" stroke="#191970" d="M1561.6611,-269.1287C1774.1333,-257.1984 2283.1985,-228.6145 2494.0593,-216.7747"/>
<polygon fill="#191970" stroke="#191970" points="2494.3886,-220.2619 2504.1766,-216.2067 2493.9961,-213.2729 2494.3886,-220.2619"/>
</g>
<!-- Node28 -->
<g id="node28" class="node">
<title>Node28</title>
<g id="a_node28"><a xlink:href="../../d6/d1d/Definitions_8hpp.html" target="_top" xlink:title="Acts/Utilities/Definitions.hpp">
<polygon fill="none" stroke="#000000" points="2330,-63.5 2330,-83.5 2490,-83.5 2490,-63.5 2330,-63.5"/>
<text text-anchor="middle" x="2410" y="-70.5" font-family="FreeSans" font-size="10.00" fill="#000000">Acts/Utilities/Definitions.hpp</text>
</a>
</g>
</g>
<!-- Node25&#45;&gt;Node28 -->
<g id="edge61" class="edge">
<title>Node25&#45;&gt;Node28</title>
<path fill="none" stroke="#191970" d="M1561.6525,-271.3018C1681.9742,-266.338 1894.6773,-254.4409 2075,-228 2110.5582,-222.7861 2365.5409,-184.3654 2391,-159 2408.1089,-141.9541 2411.3019,-113.1485 2411.2608,-93.7366"/>
<polygon fill="#191970" stroke="#191970" points="2414.7533,-93.4387 2410.9436,-83.5525 2407.7567,-93.6566 2414.7533,-93.4387"/>
</g>
<!-- Node31 -->
<g id="node31" class="node">
<title>Node31</title>
<g id="a_node31"><a xlink:href="../../d9/d11/Logger_8hpp.html" target="_top" xlink:title="Acts/Utilities/Logger.hpp">
<polygon fill="none" stroke="#000000" points="1707,-201.5 1707,-221.5 1847,-221.5 1847,-201.5 1707,-201.5"/>
<text text-anchor="middle" x="1777" y="-208.5" font-family="FreeSans" font-size="10.00" fill="#000000">Acts/Utilities/Logger.hpp</text>
</a>
</g>
</g>
<!-- Node25&#45;&gt;Node31 -->
<g id="edge62" class="edge">
<title>Node25&#45;&gt;Node31</title>
<path fill="none" stroke="#191970" d="M1515.6228,-264.4478C1570.5792,-253.3152 1659.1359,-235.376 1717.7029,-223.512"/>
<polygon fill="#191970" stroke="#191970" points="1718.448,-226.9322 1727.554,-221.5164 1717.0581,-220.0715 1718.448,-226.9322"/>
</g>
<!-- Node37 -->
<g id="node37" class="node">
<title>Node37</title>
<g id="a_node37"><a xlink:href="../../dd/d24/TrackingGeometry_8hpp.html" target="_top" xlink:title="Acts/Geometry/TrackingGeometry.hpp">
<polygon fill="none" stroke="#000000" points="1443.5,-201.5 1443.5,-221.5 1652.5,-221.5 1652.5,-201.5 1443.5,-201.5"/>
<text text-anchor="middle" x="1548" y="-208.5" font-family="FreeSans" font-size="10.00" fill="#000000">Acts/Geometry/TrackingGeometry.hpp</text>
</a>
</g>
</g>
<!-- Node25&#45;&gt;Node37 -->
<g id="edge71" class="edge">
<title>Node25&#45;&gt;Node37</title>
<path fill="none" stroke="#191970" d="M1479.1747,-264.378C1491.9663,-254.5503 1511.5997,-239.4661 1526.6281,-227.9198"/>
<polygon fill="#191970" stroke="#191970" points="1529.0605,-230.4648 1534.858,-221.5969 1524.7958,-224.9139 1529.0605,-230.4648"/>
</g>
<!-- Node41 -->
<g id="node41" class="node">
<title>Node41</title>
<g id="a_node41"><a xlink:href="../../d6/da8/MagneticFieldContext_8hpp.html" target="_top" xlink:title="Acts/MagneticField\l/MagneticFieldContext.hpp">
<polygon fill="none" stroke="#000000" points="1003,-195.5 1003,-227.5 1155,-227.5 1155,-195.5 1003,-195.5"/>
<text text-anchor="start" x="1011" y="-214.5" font-family="FreeSans" font-size="10.00" fill="#000000">Acts/MagneticField</text>
<text text-anchor="middle" x="1079" y="-202.5" font-family="FreeSans" font-size="10.00" fill="#000000">/MagneticFieldContext.hpp</text>
</a>
</g>
</g>
<!-- Node25&#45;&gt;Node41 -->
<g id="edge82" class="edge">
<title>Node25&#45;&gt;Node41</title>
<path fill="none" stroke="#191970" d="M1402.3268,-264.4684C1343.5514,-255.1662 1253.8521,-240.8627 1176,-228 1172.5239,-227.4257 1168.9783,-226.8368 1165.397,-226.2394"/>
<polygon fill="#191970" stroke="#191970" points="1165.6782,-222.7379 1155.2375,-224.5385 1164.5223,-229.6418 1165.6782,-222.7379"/>
</g>
<!-- Node42 -->
<g id="node42" class="node">
<title>Node42</title>
<g id="a_node42"><a xlink:href="../../d0/d28/CalibrationContext_8hpp.html" target="_top" xlink:title="Acts/Utilities/Calibration\lContext.hpp">
<polygon fill="none" stroke="#000000" points="833,-195.5 833,-227.5 971,-227.5 971,-195.5 833,-195.5"/>
<text text-anchor="start" x="841" y="-214.5" font-family="FreeSans" font-size="10.00" fill="#000000">Acts/Utilities/Calibration</text>
<text text-anchor="middle" x="902" y="-202.5" font-family="FreeSans" font-size="10.00" fill="#000000">Context.hpp</text>
</a>
</g>
</g>
<!-- Node25&#45;&gt;Node42 -->
<g id="edge84" class="edge">
<title>Node25&#45;&gt;Node42</title>
<path fill="none" stroke="#191970" d="M1370.3633,-267.3151C1274.8251,-259.612 1123.8847,-246.0163 994,-228 989.8411,-227.4231 985.583,-226.7943 981.2883,-226.1299"/>
<polygon fill="#191970" stroke="#191970" points="981.6573,-222.6445 971.2303,-224.5229 980.5528,-229.5569 981.6573,-222.6445"/>
</g>
<!-- Node43 -->
<g id="node43" class="node">
<title>Node43</title>
<g id="a_node43"><a xlink:href="../../da/da8/BFieldOptions_8hpp.html" target="_top" xlink:title="ActsExamples/Plugins\l/BField/BFieldOptions.hpp">
<polygon fill="none" stroke="#ff0000" points="1128.5,-126.5 1128.5,-158.5 1275.5,-158.5 1275.5,-126.5 1128.5,-126.5"/>
<text text-anchor="start" x="1136.5" y="-145.5" font-family="FreeSans" font-size="10.00" fill="#000000">ActsExamples/Plugins</text>
<text text-anchor="middle" x="1202" y="-133.5" font-family="FreeSans" font-size="10.00" fill="#000000">/BField/BFieldOptions.hpp</text>
</a>
</g>
</g>
<!-- Node25&#45;&gt;Node43 -->
<g id="edge86" class="edge">
<title>Node25&#45;&gt;Node43</title>
<path fill="none" stroke="#191970" d="M1370.4641,-268.9883C1306.9992,-263.1925 1231.5252,-251.4699 1210,-228 1195.6128,-212.313 1194.785,-187.5297 1196.8672,-168.6756"/>
<polygon fill="#191970" stroke="#191970" points="1200.3514,-169.035 1198.3021,-158.6403 1193.4218,-168.0442 1200.3514,-169.035"/>
</g>
<!-- Node26&#45;&gt;Node22 -->
<g id="edge60" class="edge">
<title>Node26&#45;&gt;Node22</title>
<path fill="none" stroke="#191970" d="M2573.7793,-201.3456C2559.7252,-191.1214 2537.8061,-174.6624 2520,-159 2504.4258,-145.3008 2505.2521,-135.853 2487,-126 2477.3983,-120.8167 2336.2158,-93.1799 2269.0336,-80.219"/>
<polygon fill="#191970" stroke="#191970" points="2269.3997,-76.7252 2258.9181,-78.2705 2268.0756,-83.5989 2269.3997,-76.7252"/>
</g>
<!-- Node27 -->
<g id="node27" class="node">
<title>Node27</title>
<g id="a_node27"><a xlink:href="../../d2/d0a/BinUtility_8hpp.html" target="_top" xlink:title="Acts/Utilities/BinUtility.hpp">
<polygon fill="none" stroke="#ff0000" points="2572.5,-132.5 2572.5,-152.5 2723.5,-152.5 2723.5,-132.5 2572.5,-132.5"/>
<text text-anchor="middle" x="2648" y="-139.5" font-family="FreeSans" font-size="10.00" fill="#000000">Acts/Utilities/BinUtility.hpp</text>
</a>
</g>
</g>
<!-- Node26&#45;&gt;Node27 -->
<g id="edge51" class="edge">
<title>Node26&#45;&gt;Node27</title>
<path fill="none" stroke="#191970" d="M2596.8532,-201.3188C2606.1588,-190.6174 2620.9876,-173.5643 2632.2877,-160.5691"/>
<polygon fill="#191970" stroke="#191970" points="2635.1898,-162.5657 2639.1105,-152.723 2629.9075,-157.9724 2635.1898,-162.5657"/>
</g>
<!-- Node26&#45;&gt;Node28 -->
<g id="edge58" class="edge">
<title>Node26&#45;&gt;Node28</title>
<path fill="none" stroke="#191970" d="M2582.0612,-201.3063C2571.4954,-183.9049 2547.9012,-148.2008 2520,-126 2498.9409,-109.2434 2471.6573,-96.1788 2449.5313,-87.2733"/>
<polygon fill="#191970" stroke="#191970" points="2450.6727,-83.9619 2440.0842,-83.5946 2448.1326,-90.4847 2450.6727,-83.9619"/>
</g>
<!-- Node30 -->
<g id="node30" class="node">
<title>Node30</title>
<polygon fill="none" stroke="#bfbfbf" points="2662.5,-63.5 2662.5,-83.5 2705.5,-83.5 2705.5,-63.5 2662.5,-63.5"/>
<text text-anchor="middle" x="2684" y="-70.5" font-family="FreeSans" font-size="10.00" fill="#000000">array</text>
</g>
<!-- Node26&#45;&gt;Node30 -->
<g id="edge59" class="edge">
<title>Node26&#45;&gt;Node30</title>
<path fill="none" stroke="#191970" d="M2631.9683,-201.4584C2670.115,-191.7506 2721.0462,-176.0414 2733,-159 2748.975,-136.2261 2724.8899,-107.89 2705.1883,-90.2446"/>
<polygon fill="#191970" stroke="#191970" points="2707.2881,-87.4353 2697.4108,-83.6025 2702.7421,-92.7583 2707.2881,-87.4353"/>
</g>
<!-- Node27&#45;&gt;Node21 -->
<g id="edge55" class="edge">
<title>Node27&#45;&gt;Node21</title>
<path fill="none" stroke="#191970" d="M2668.648,-132.4668C2692.7308,-120.7646 2732.7373,-101.3248 2760.1878,-87.9862"/>
<polygon fill="#191970" stroke="#191970" points="2761.8624,-91.0639 2769.3271,-83.5453 2758.803,-84.7678 2761.8624,-91.0639"/>
</g>
<!-- Node27&#45;&gt;Node22 -->
<g id="edge57" class="edge">
<title>Node27&#45;&gt;Node22</title>
<path fill="none" stroke="#191970" d="M2582.1443,-132.4858C2516.0416,-122.3026 2411.3352,-105.8147 2321,-90 2303.7333,-86.9772 2284.5885,-83.3738 2268.664,-80.3066"/>
<polygon fill="#191970" stroke="#191970" points="2269.1995,-76.8454 2258.7164,-78.38 2267.8685,-83.7177 2269.1995,-76.8454"/>
</g>
<!-- Node27&#45;&gt;Node23 -->
<g id="edge56" class="edge">
<title>Node27&#45;&gt;Node23</title>
<path fill="none" stroke="#191970" d="M2572.3223,-133.793C2545.4154,-130.9493 2514.885,-128.0093 2487,-126 2104.5466,-98.4412 2007.8156,-111.9629 1625,-90 1559.5503,-86.245 1483.5469,-80.3871 1438.462,-76.7552"/>
<polygon fill="#191970" stroke="#191970" points="1438.4863,-73.2458 1428.2363,-75.9268 1437.921,-80.2229 1438.4863,-73.2458"/>
</g>
<!-- Node27&#45;&gt;Node28 -->
<g id="edge52" class="edge">
<title>Node27&#45;&gt;Node28</title>
<path fill="none" stroke="#191970" d="M2613.3928,-132.4668C2571.3542,-120.2792 2500.3661,-99.6986 2454.353,-86.3586"/>
<polygon fill="#191970" stroke="#191970" points="2455.2281,-82.9683 2444.649,-83.5453 2453.2789,-89.6915 2455.2281,-82.9683"/>
</g>
<!-- Node27&#45;&gt;Node30 -->
<g id="edge54" class="edge">
<title>Node27&#45;&gt;Node30</title>
<path fill="none" stroke="#191970" d="M2653.3119,-132.3188C2658.7358,-121.9231 2667.2868,-105.5336 2673.9864,-92.6927"/>
<polygon fill="#191970" stroke="#191970" points="2677.1436,-94.2078 2678.6663,-83.723 2670.9375,-90.9698 2677.1436,-94.2078"/>
</g>
<!-- Node29 -->
<g id="node29" class="node">
<title>Node29</title>
<polygon fill="none" stroke="#bfbfbf" points="2370,-.5 2370,-20.5 2450,-20.5 2450,-.5 2370,-.5"/>
<text text-anchor="middle" x="2410" y="-7.5" font-family="FreeSans" font-size="10.00" fill="#000000">Eigen/Dense</text>
</g>
<!-- Node28&#45;&gt;Node29 -->
<g id="edge53" class="edge">
<title>Node28&#45;&gt;Node29</title>
<path fill="none" stroke="#191970" d="M2410,-63.378C2410,-54.7041 2410,-41.9355 2410,-31.1186"/>
<polygon fill="#191970" stroke="#191970" points="2413.5001,-30.8062 2410,-20.8062 2406.5001,-30.8062 2413.5001,-30.8062"/>
</g>
<!-- Node31&#45;&gt;Node11 -->
<g id="edge69" class="edge">
<title>Node31&#45;&gt;Node11</title>
<path fill="none" stroke="#191970" d="M1716.2698,-201.499C1698.797,-198.9716 1679.6824,-196.5405 1662,-195 1152.5681,-150.6186 1022.5818,-187.2269 512,-159 450.0777,-155.5767 377.9526,-149.3528 336.9648,-145.6051"/>
<polygon fill="#191970" stroke="#191970" points="337.0311,-142.0964 326.752,-144.6635 336.3884,-149.0669 337.0311,-142.0964"/>
</g>
<!-- Node31&#45;&gt;Node21 -->
<g id="edge66" class="edge">
<title>Node31&#45;&gt;Node21</title>
<path fill="none" stroke="#191970" d="M1819.1366,-201.4746C1831.2898,-198.9469 1844.6136,-196.5216 1857,-195 1953.6886,-183.122 2648.0733,-206.7203 2733,-159 2758.4289,-144.7115 2774.6268,-113.7987 2783.0123,-93.3249"/>
<polygon fill="#191970" stroke="#191970" points="2786.3853,-94.3037 2786.6928,-83.7133 2779.8482,-91.8004 2786.3853,-94.3037"/>
</g>
<!-- Node31&#45;&gt;Node23 -->
<g id="edge67" class="edge">
<title>Node31&#45;&gt;Node23</title>
<path fill="none" stroke="#191970" d="M1707.0345,-201.4882C1625.606,-189.4687 1499.7118,-169.6076 1480,-159 1464.2735,-150.537 1432.2946,-113.8138 1413.5657,-91.3379"/>
<polygon fill="#191970" stroke="#191970" points="1416.1657,-88.9897 1407.0979,-83.5101 1410.7694,-93.4484 1416.1657,-88.9897"/>
</g>
<!-- Node32 -->
<g id="node32" class="node">
<title>Node32</title>
<polygon fill="none" stroke="#bfbfbf" points="2162,-132.5 2162,-152.5 2206,-152.5 2206,-132.5 2162,-132.5"/>
<text text-anchor="middle" x="2184" y="-139.5" font-family="FreeSans" font-size="10.00" fill="#000000">ctime</text>
</g>
<!-- Node31&#45;&gt;Node32 -->
<g id="edge63" class="edge">
<title>Node31&#45;&gt;Node32</title>
<path fill="none" stroke="#191970" d="M1822.5697,-201.425C1833.7929,-199.1307 1845.804,-196.8322 1857,-195 1987.7852,-173.5969 2026.5944,-198.8056 2153,-159 2154.8754,-158.4094 2156.7703,-157.7058 2158.65,-156.9269"/>
<polygon fill="#191970" stroke="#191970" points="2160.2419,-160.0454 2167.7611,-152.5813 2157.2284,-153.7273 2160.2419,-160.0454"/>
</g>
<!-- Node33 -->
<g id="node33" class="node">
<title>Node33</title>
<polygon fill="none" stroke="#bfbfbf" points="1634,-63.5 1634,-83.5 1700,-83.5 1700,-63.5 1634,-63.5"/>
<text text-anchor="middle" x="1667" y="-70.5" font-family="FreeSans" font-size="10.00" fill="#000000">functional</text>
</g>
<!-- Node31&#45;&gt;Node33 -->
<g id="edge64" class="edge">
<title>Node31&#45;&gt;Node33</title>
<path fill="none" stroke="#191970" d="M1781.36,-201.3105C1787.9295,-184.2265 1798.0836,-149.3832 1783,-126 1766.9737,-101.1554 1736.031,-87.9408 1710.1323,-80.9855"/>
<polygon fill="#191970" stroke="#191970" points="1710.6777,-77.5157 1700.1319,-78.534 1709.011,-84.3144 1710.6777,-77.5157"/>
</g>
<!-- Node34 -->
<g id="node34" class="node">
<title>Node34</title>
<polygon fill="none" stroke="#bfbfbf" points="1944.5,-132.5 1944.5,-152.5 2001.5,-152.5 2001.5,-132.5 1944.5,-132.5"/>
<text text-anchor="middle" x="1973" y="-139.5" font-family="FreeSans" font-size="10.00" fill="#000000">iomanip</text>
</g>
<!-- Node31&#45;&gt;Node34 -->
<g id="edge65" class="edge">
<title>Node31&#45;&gt;Node34</title>
<path fill="none" stroke="#191970" d="M1807.3038,-201.4582C1838.2529,-191.119 1887.6362,-174.3906 1930,-159 1932.52,-158.0845 1935.1176,-157.1257 1937.7292,-156.1508"/>
<polygon fill="#191970" stroke="#191970" points="1939.0168,-159.4058 1947.1344,-152.5974 1936.5428,-152.8576 1939.0168,-159.4058"/>
</g>
<!-- Node35 -->
<g id="node35" class="node">
<title>Node35</title>
<polygon fill="none" stroke="#bfbfbf" points="2020,-132.5 2020,-152.5 2076,-152.5 2076,-132.5 2020,-132.5"/>
<text text-anchor="middle" x="2048" y="-139.5" font-family="FreeSans" font-size="10.00" fill="#000000">sstream</text>
</g>
<!-- Node31&#45;&gt;Node35 -->
<g id="edge68" class="edge">
<title>Node31&#45;&gt;Node35</title>
<path fill="none" stroke="#191970" d="M1824.0343,-201.4722C1887.1537,-187.9341 1993.4135,-164.8297 2011,-159 2013.2532,-158.2531 2015.5554,-157.4163 2017.8545,-156.5264"/>
<polygon fill="#191970" stroke="#191970" points="2019.2628,-159.7314 2027.1548,-152.6626 2016.5772,-153.2671 2019.2628,-159.7314"/>
</g>
<!-- Node36 -->
<g id="node36" class="node">
<title>Node36</title>
<polygon fill="none" stroke="#bfbfbf" points="2094.5,-132.5 2094.5,-152.5 2143.5,-152.5 2143.5,-132.5 2094.5,-132.5"/>
<text text-anchor="middle" x="2119" y="-139.5" font-family="FreeSans" font-size="10.00" fill="#000000">thread</text>
</g>
<!-- Node31&#45;&gt;Node36 -->
<g id="edge70" class="edge">
<title>Node31&#45;&gt;Node36</title>
<path fill="none" stroke="#191970" d="M1823.884,-201.4476C1834.7389,-199.2266 1846.2569,-196.9549 1857,-195 1957.9313,-176.6336 1987.1217,-189.7292 2085,-159 2087.1362,-158.3293 2089.307,-157.5443 2091.4653,-156.6873"/>
<polygon fill="#191970" stroke="#191970" points="2092.9722,-159.8479 2100.7007,-152.6007 2090.1397,-153.4465 2092.9722,-159.8479"/>
</g>
<!-- Node37&#45;&gt;Node10 -->
<g id="edge79" class="edge">
<title>Node37&#45;&gt;Node10</title>
<path fill="none" stroke="#191970" d="M1631.2269,-201.4811C1652.9384,-199.1045 1676.3259,-196.7536 1698,-195 2005.4108,-170.1285 2085.8966,-204.0771 2391,-159 2403.3397,-157.1769 2416.7255,-154.1071 2428.2651,-151.1065"/>
<polygon fill="#191970" stroke="#191970" points="2429.5186,-154.3935 2438.2606,-148.4079 2427.694,-147.6354 2429.5186,-154.3935"/>
</g>
<!-- Node37&#45;&gt;Node22 -->
<g id="edge81" class="edge">
<title>Node37&#45;&gt;Node22</title>
<path fill="none" stroke="#191970" d="M1616.2321,-201.4792C1670.8595,-192.6588 1749.1308,-178.2227 1816,-159 1855.3461,-147.6893 1862.4534,-136.5886 1902,-126 2008.3534,-97.5238 2138.2738,-82.5052 2199.2558,-76.575"/>
<polygon fill="#191970" stroke="#191970" points="2199.8504,-80.0344 2209.4745,-75.6042 2199.1883,-73.0658 2199.8504,-80.0344"/>
</g>
<!-- Node37&#45;&gt;Node23 -->
<g id="edge80" class="edge">
<title>Node37&#45;&gt;Node23</title>
<path fill="none" stroke="#191970" d="M1514.992,-201.4147C1492.1819,-193.0688 1462.3919,-179.2676 1442,-159 1423.3931,-140.5066 1411.3813,-112.3016 1404.9073,-93.3992"/>
<polygon fill="#191970" stroke="#191970" points="1408.1924,-92.1815 1401.8005,-83.732 1401.5281,-94.3233 1408.1924,-92.1815"/>
</g>
<!-- Node37&#45;&gt;Node28 -->
<g id="edge77" class="edge">
<title>Node37&#45;&gt;Node28</title>
<path fill="none" stroke="#191970" d="M1628.7598,-201.4753C1709.863,-190.8673 1828.9385,-173.6668 1873,-159 1902.9908,-149.0169 1905.7591,-135.1979 1936,-126 2077.9977,-82.811 2120.5069,-106.5655 2268,-90 2284.6999,-88.1244 2302.4998,-86.0866 2319.6494,-84.1037"/>
<polygon fill="#191970" stroke="#191970" points="2320.1277,-87.5718 2329.6585,-82.9442 2319.3221,-80.6183 2320.1277,-87.5718"/>
</g>
<!-- Node37&#45;&gt;Node33 -->
<g id="edge78" class="edge">
<title>Node37&#45;&gt;Node33</title>
<path fill="none" stroke="#191970" d="M1545.3224,-201.231C1541.4739,-184.0298 1536.4328,-149.0183 1552,-126 1568.3358,-101.8453 1598.6913,-88.6217 1624.114,-81.4891"/>
<polygon fill="#191970" stroke="#191970" points="1625.1224,-84.8437 1633.9329,-78.9594 1623.3759,-78.065 1625.1224,-84.8437"/>
</g>
<!-- Node38 -->
<g id="node38" class="node">
<title>Node38</title>
<g id="a_node38"><a xlink:href="../../d1/db8/GeometryContext_8hpp.html" target="_top" xlink:title="Acts/Geometry/GeometryContext.hpp">
<polygon fill="none" stroke="#000000" points="902,-132.5 902,-152.5 1110,-152.5 1110,-132.5 902,-132.5"/>
<text text-anchor="middle" x="1006" y="-139.5" font-family="FreeSans" font-size="10.00" fill="#000000">Acts/Geometry/GeometryContext.hpp</text>
</a>
</g>
</g>
<!-- Node37&#45;&gt;Node38 -->
<g id="edge72" class="edge">
<title>Node37&#45;&gt;Node38</title>
<path fill="none" stroke="#191970" d="M1461.8529,-201.4889C1375.3711,-191.3081 1238.3528,-174.8219 1120,-159 1108.2309,-157.4267 1095.7887,-155.6956 1083.6187,-153.9645"/>
<polygon fill="#191970" stroke="#191970" points="1083.8757,-150.4657 1073.4807,-152.5139 1082.8841,-157.3951 1083.8757,-150.4657"/>
</g>
<!-- Node40 -->
<g id="node40" class="node">
<title>Node40</title>
<g id="a_node40"><a xlink:href="../../d5/d67/GeometryIdentifier_8hpp.html" target="_top" xlink:title="Acts/Geometry/GeometryIdentifier.hpp">
<polygon fill="none" stroke="#ff0000" points="1560.5,-132.5 1560.5,-152.5 1773.5,-152.5 1773.5,-132.5 1560.5,-132.5"/>
<text text-anchor="middle" x="1667" y="-139.5" font-family="FreeSans" font-size="10.00" fill="#000000">Acts/Geometry/GeometryIdentifier.hpp</text>
</a>
</g>
</g>
<!-- Node37&#45;&gt;Node40 -->
<g id="edge74" class="edge">
<title>Node37&#45;&gt;Node40</title>
<path fill="none" stroke="#191970" d="M1565.3036,-201.4668C1585.1331,-189.969 1617.8451,-171.0016 1640.8016,-157.6907"/>
<polygon fill="#191970" stroke="#191970" points="1642.7802,-160.5893 1649.6755,-152.5453 1639.2689,-154.5336 1642.7802,-160.5893"/>
</g>
<!-- Node39 -->
<g id="node39" class="node">
<title>Node39</title>
<polygon fill="none" stroke="#bfbfbf" points="780.5,-63.5 780.5,-83.5 815.5,-83.5 815.5,-63.5 780.5,-63.5"/>
<text text-anchor="middle" x="798" y="-70.5" font-family="FreeSans" font-size="10.00" fill="#000000">any</text>
</g>
<!-- Node38&#45;&gt;Node39 -->
<g id="edge73" class="edge">
<title>Node38&#45;&gt;Node39</title>
<path fill="none" stroke="#191970" d="M975.755,-132.4668C935.314,-119.0513 864.2177,-95.4665 825.3208,-82.5632"/>
<polygon fill="#191970" stroke="#191970" points="826.3028,-79.2014 815.7094,-79.3748 824.0988,-85.8454 826.3028,-79.2014"/>
</g>
<!-- Node40&#45;&gt;Node20 -->
<g id="edge75" class="edge">
<title>Node40&#45;&gt;Node20</title>
<path fill="none" stroke="#191970" d="M1708.8777,-132.4668C1765.6256,-118.871 1865.9678,-94.8306 1919.3184,-82.0487"/>
<polygon fill="#191970" stroke="#191970" points="1920.4258,-85.3825 1929.3351,-79.6489 1918.7948,-78.5752 1920.4258,-85.3825"/>
</g>
<!-- Node40&#45;&gt;Node33 -->
<g id="edge76" class="edge">
<title>Node40&#45;&gt;Node33</title>
<path fill="none" stroke="#191970" d="M1667,-132.3188C1667,-122.2289 1667,-106.4925 1667,-93.8347"/>
<polygon fill="#191970" stroke="#191970" points="1670.5001,-93.7229 1667,-83.723 1663.5001,-93.723 1670.5001,-93.7229"/>
</g>
<!-- Node41&#45;&gt;Node39 -->
<g id="edge83" class="edge">
<title>Node41&#45;&gt;Node39</title>
<path fill="none" stroke="#191970" d="M1002.6316,-198.2224C967.7553,-190.12 926.7892,-177.6332 893,-159 860.6967,-141.1863 830.2847,-110.4509 812.931,-91.0895"/>
<polygon fill="#191970" stroke="#191970" points="815.5512,-88.7689 806.3258,-83.5591 810.2887,-93.3848 815.5512,-88.7689"/>
</g>
<!-- Node42&#45;&gt;Node39 -->
<g id="edge85" class="edge">
<title>Node42&#45;&gt;Node39</title>
<path fill="none" stroke="#191970" d="M832.9103,-195.8935C813.8378,-188.0712 795.2984,-176.393 784,-159 771.0717,-139.0979 779.3978,-111.2499 787.6898,-92.8107"/>
<polygon fill="#191970" stroke="#191970" points="790.922,-94.1675 792.1577,-83.645 784.6298,-91.1003 790.922,-94.1675"/>
</g>
<!-- Node43&#45;&gt;Node23 -->
<g id="edge90" class="edge">
<title>Node43&#45;&gt;Node23</title>
<path fill="none" stroke="#191970" d="M1247.6909,-126.4966C1281.9925,-114.4823 1328.4248,-98.2192 1360.771,-86.8899"/>
<polygon fill="#191970" stroke="#191970" points="1362.0473,-90.1514 1370.3282,-83.5424 1359.7333,-83.5449 1362.0473,-90.1514"/>
</g>
<!-- Node43&#45;&gt;Node28 -->
<g id="edge87" class="edge">
<title>Node43&#45;&gt;Node28</title>
<path fill="none" stroke="#191970" d="M1275.9004,-138.9957C1509.372,-127.907 2218.6888,-94.0747 2268,-90 2285.3682,-88.5648 2303.8919,-86.6756 2321.6307,-84.6893"/>
<polygon fill="#191970" stroke="#191970" points="2322.4301,-88.121 2331.9696,-83.5114 2321.6376,-81.166 2322.4301,-88.121"/>
</g>
<!-- Node44 -->
<g id="node44" class="node">
<title>Node44</title>
<g id="a_node44"><a xlink:href="../../d6/d02/AxisFwd_8hpp.html" target="_top" xlink:title="Acts/Utilities/detail\l/AxisFwd.hpp">
<polygon fill="none" stroke="#000000" points="1064.5,-57.5 1064.5,-89.5 1175.5,-89.5 1175.5,-57.5 1064.5,-57.5"/>
<text text-anchor="start" x="1072.5" y="-76.5" font-family="FreeSans" font-size="10.00" fill="#000000">Acts/Utilities/detail</text>
<text text-anchor="middle" x="1120" y="-64.5" font-family="FreeSans" font-size="10.00" fill="#000000">/AxisFwd.hpp</text>
</a>
</g>
</g>
<!-- Node43&#45;&gt;Node44 -->
<g id="edge88" class="edge">
<title>Node43&#45;&gt;Node44</title>
<path fill="none" stroke="#191970" d="M1182.9814,-126.4966C1172.2949,-117.5042 1158.7796,-106.1317 1147.0114,-96.2291"/>
<polygon fill="#191970" stroke="#191970" points="1149.1045,-93.4161 1139.1995,-89.6557 1144.5975,-98.7722 1149.1045,-93.4161"/>
</g>
<!-- Node45 -->
<g id="node45" class="node">
<title>Node45</title>
<g id="a_node45"><a xlink:href="../../d6/d96/GridFwd_8hpp.html" target="_top" xlink:title="Acts/Utilities/detail\l/GridFwd.hpp">
<polygon fill="none" stroke="#000000" points="1193.5,-57.5 1193.5,-89.5 1304.5,-89.5 1304.5,-57.5 1193.5,-57.5"/>
<text text-anchor="start" x="1201.5" y="-76.5" font-family="FreeSans" font-size="10.00" fill="#000000">Acts/Utilities/detail</text>
<text text-anchor="middle" x="1249" y="-64.5" font-family="FreeSans" font-size="10.00" fill="#000000">/GridFwd.hpp</text>
</a>
</g>
</g>
<!-- Node43&#45;&gt;Node45 -->
<g id="edge89" class="edge">
<title>Node43&#45;&gt;Node45</title>
<path fill="none" stroke="#191970" d="M1212.9009,-126.4966C1218.6312,-118.084 1225.7805,-107.5882 1232.2015,-98.1617"/>
<polygon fill="#191970" stroke="#191970" points="1235.0949,-100.131 1237.8319,-89.8958 1229.3095,-96.1902 1235.0949,-100.131"/>
</g>
<!-- Node46&#45;&gt;Node10 -->
<g id="edge115" class="edge">
<title>Node46&#45;&gt;Node10</title>
<path fill="none" stroke="#191970" d="M2835.2603,-205.3767C2754.3436,-191.8906 2562.0584,-159.8431 2487.8932,-147.4822"/>
<polygon fill="#191970" stroke="#191970" points="2488.2745,-143.9975 2477.8351,-145.8059 2487.1236,-150.9023 2488.2745,-143.9975"/>
</g>
<!-- Node46&#45;&gt;Node21 -->
<g id="edge114" class="edge">
<title>Node46&#45;&gt;Node21</title>
<path fill="none" stroke="#191970" d="M2876.6514,-201.4819C2883.7228,-184.6504 2894.9595,-150.1695 2881,-126 2869.9187,-106.8137 2848.8637,-94.0146 2829.7956,-85.8612"/>
<polygon fill="#191970" stroke="#191970" points="2830.9447,-82.5517 2820.3588,-82.118 2828.3637,-89.0586 2830.9447,-82.5517"/>
</g>
<!-- Node47 -->
<g id="node47" class="node">
<title>Node47</title>
<g id="a_node47"><a xlink:href="../../df/d32/PHObject_8h.html" target="_top" xlink:title="phool/PHObject.h">
<polygon fill="none" stroke="#000000" points="2928,-132.5 2928,-152.5 3032,-152.5 3032,-132.5 2928,-132.5"/>
<text text-anchor="middle" x="2980" y="-139.5" font-family="FreeSans" font-size="10.00" fill="#000000">phool/PHObject.h</text>
</a>
</g>
</g>
<!-- Node46&#45;&gt;Node47 -->
<g id="edge109" class="edge">
<title>Node46&#45;&gt;Node47</title>
<path fill="none" stroke="#191970" d="M2887.9358,-201.3188C2905.7228,-189.9549 2934.7204,-171.4286 2955.4185,-158.2049"/>
<polygon fill="#191970" stroke="#191970" points="2957.4562,-161.0563 2963.9988,-152.723 2953.6875,-155.1575 2957.4562,-161.0563"/>
</g>
<!-- Node49 -->
<g id="node49" class="node">
<title>Node49</title>
<polygon fill="none" stroke="#bfbfbf" points="3050,-132.5 3050,-152.5 3098,-152.5 3098,-132.5 3050,-132.5"/>
<text text-anchor="middle" x="3074" y="-139.5" font-family="FreeSans" font-size="10.00" fill="#000000">cmath</text>
</g>
<!-- Node46&#45;&gt;Node49 -->
<g id="edge112" class="edge">
<title>Node46&#45;&gt;Node49</title>
<path fill="none" stroke="#191970" d="M2908.5281,-202.0038C2943.1646,-192.5681 2996.3912,-176.9428 3041,-159 3042.5934,-158.3591 3044.215,-157.6715 3045.8415,-156.9539"/>
<polygon fill="#191970" stroke="#191970" points="3047.4809,-160.0508 3055.0467,-152.634 3044.507,-153.7139 3047.4809,-160.0508"/>
</g>
<!-- Node50 -->
<g id="node50" class="node">
<title>Node50</title>
<polygon fill="none" stroke="#bfbfbf" points="2818,-132.5 2818,-152.5 2872,-152.5 2872,-132.5 2818,-132.5"/>
<text text-anchor="middle" x="2845" y="-139.5" font-family="FreeSans" font-size="10.00" fill="#000000">cstddef</text>
</g>
<!-- Node46&#45;&gt;Node50 -->
<g id="edge113" class="edge">
<title>Node46&#45;&gt;Node50</title>
<path fill="none" stroke="#191970" d="M2868.0161,-201.3188C2863.9881,-191.025 2857.6604,-174.8544 2852.6584,-162.0714"/>
<polygon fill="#191970" stroke="#191970" points="2855.9037,-160.76 2849.0003,-152.723 2849.385,-163.3108 2855.9037,-160.76"/>
</g>
<!-- Node47&#45;&gt;Node21 -->
<g id="edge111" class="edge">
<title>Node47&#45;&gt;Node21</title>
<path fill="none" stroke="#191970" d="M2952.3724,-132.4668C2919.4454,-120.5091 2864.2713,-100.4722 2827.5081,-87.1214"/>
<polygon fill="#191970" stroke="#191970" points="2828.2551,-83.669 2817.661,-83.5453 2825.8656,-90.2486 2828.2551,-83.669"/>
</g>
<!-- Node48 -->
<g id="node48" class="node">
<title>Node48</title>
<polygon fill="none" stroke="#bfbfbf" points="2947.5,-63.5 2947.5,-83.5 3012.5,-83.5 3012.5,-63.5 2947.5,-63.5"/>
<text text-anchor="middle" x="2980" y="-70.5" font-family="FreeSans" font-size="10.00" fill="#000000">TObject.h</text>
</g>
<!-- Node47&#45;&gt;Node48 -->
<g id="edge110" class="edge">
<title>Node47&#45;&gt;Node48</title>
<path fill="none" stroke="#191970" d="M2980,-132.3188C2980,-122.2289 2980,-106.4925 2980,-93.8347"/>
<polygon fill="#191970" stroke="#191970" points="2983.5001,-93.7229 2980,-83.723 2976.5001,-93.723 2983.5001,-93.7229"/>
</g>
</g>
</svg>
