<?xml version="1.0" encoding="UTF-8" standalone="no"?>
<!DOCTYPE svg PUBLIC "-//W3C//DTD SVG 1.1//EN"
 "http://www.w3.org/Graphics/SVG/1.1/DTD/svg11.dtd">
<!-- Generated by graphviz version 2.40.1 (20161225.0304)
 -->
<!-- Title: PndSensorNamePar::putParams Pages: 1 -->
<svg width="570pt" height="146pt"
 viewBox="0.00 0.00 570.00 146.00" xmlns="http://www.w3.org/2000/svg" xmlns:xlink="http://www.w3.org/1999/xlink">
<g id="graph0" class="graph" transform="scale(1 1) rotate(0) translate(4 142)">
<title>PndSensorNamePar::putParams</title>
<!-- Node1 -->
<g id="node1" class="node">
<title>Node1</title>
<polygon fill="#bfbfbf" stroke="#000000" points="0,-58.5 0,-78.5 176,-78.5 176,-58.5 0,-58.5"/>
<text text-anchor="middle" x="88" y="-65.5" font-family="FreeSans" font-size="10.00" fill="#000000">PndSensorNamePar::putParams</text>
</g>
<!-- Node2 -->
<g id="node2" class="node">
<title>Node2</title>
<g id="a_node2"><a xlink:href="../../de/d25/classFairParamList.html#a75077bf2ce229e2488f341b0dd2c4111" target="_top" xlink:title="FairParamList::addObject">
<polygon fill="none" stroke="#000000" points="212,-58.5 212,-78.5 355,-78.5 355,-58.5 212,-58.5"/>
<text text-anchor="middle" x="283.5" y="-65.5" font-family="FreeSans" font-size="10.00" fill="#000000">FairParamList::addObject</text>
</a>
</g>
</g>
<!-- Node1&#45;&gt;Node2 -->
<g id="edge1" class="edge">
<title>Node1&#45;&gt;Node2</title>
<path fill="none" stroke="#191970" d="M176.0275,-68.5C184.5297,-68.5 193.1311,-68.5 201.5708,-68.5"/>
<polygon fill="#191970" stroke="#191970" points="201.7677,-72.0001 211.7677,-68.5 201.7676,-65.0001 201.7677,-72.0001"/>
</g>
<!-- Node3 -->
<g id="node3" class="node">
<title>Node3</title>
<g id="a_node3"><a xlink:href="../../d4/d1f/classFairParamObj.html#a2991d268ef0e7c4e48009b1f57145943" target="_top" xlink:title="FairParamObj::setClassVersion">
<polygon fill="none" stroke="#000000" points="392,-117.5 392,-137.5 561,-137.5 561,-117.5 392,-117.5"/>
<text text-anchor="middle" x="476.5" y="-124.5" font-family="FreeSans" font-size="10.00" fill="#000000">FairParamObj::setClassVersion</text>
</a>
</g>
</g>
<!-- Node2&#45;&gt;Node3 -->
<g id="edge2" class="edge">
<title>Node2&#45;&gt;Node3</title>
<path fill="none" stroke="#191970" d="M307.514,-78.5204C329.0909,-87.2617 361.7827,-99.8624 391,-108.5 399.0702,-110.8858 407.6471,-113.1281 416.1343,-115.1773"/>
<polygon fill="#191970" stroke="#191970" points="415.4862,-118.6201 426.0207,-117.4913 417.0816,-111.8043 415.4862,-118.6201"/>
</g>
<!-- Node4 -->
<g id="node4" class="node">
<title>Node4</title>
<g id="a_node4"><a xlink:href="../../d4/d1f/classFairParamObj.html#af10ec0d4bb8aef9a580946e85bb0eb71" target="_top" xlink:title="FairParamObj::setParamType">
<polygon fill="none" stroke="#000000" points="396.5,-78.5 396.5,-98.5 556.5,-98.5 556.5,-78.5 396.5,-78.5"/>
<text text-anchor="middle" x="476.5" y="-85.5" font-family="FreeSans" font-size="10.00" fill="#000000">FairParamObj::setParamType</text>
</a>
</g>
</g>
<!-- Node2&#45;&gt;Node4 -->
<g id="edge3" class="edge">
<title>Node2&#45;&gt;Node4</title>
<path fill="none" stroke="#191970" d="M355.0918,-75.9188C365.2538,-76.9719 375.8114,-78.0659 386.2703,-79.1498"/>
<polygon fill="#191970" stroke="#191970" points="385.944,-82.6346 396.2515,-80.1841 386.6656,-75.6719 385.944,-82.6346"/>
</g>
<!-- Node5 -->
<g id="node5" class="node">
<title>Node5</title>
<g id="a_node5"><a xlink:href="../../d4/d1f/classFairParamObj.html#ab383e4635eb036912765d6556a6766aa" target="_top" xlink:title="FairParamObj::setParamValue">
<polygon fill="none" stroke="#000000" points="394,-39.5 394,-59.5 559,-59.5 559,-39.5 394,-39.5"/>
<text text-anchor="middle" x="476.5" y="-46.5" font-family="FreeSans" font-size="10.00" fill="#000000">FairParamObj::setParamValue</text>
</a>
</g>
</g>
<!-- Node2&#45;&gt;Node5 -->
<g id="edge4" class="edge">
<title>Node2&#45;&gt;Node5</title>
<path fill="none" stroke="#191970" d="M355.0918,-61.4521C364.4869,-60.5272 374.2202,-59.569 383.901,-58.616"/>
<polygon fill="#191970" stroke="#191970" points="384.3451,-62.0893 393.9541,-57.6263 383.6592,-55.1229 384.3451,-62.0893"/>
</g>
<!-- Node6 -->
<g id="node6" class="node">
<title>Node6</title>
<g id="a_node6"><a xlink:href="../../d4/d1f/classFairParamObj.html#aa08f51b7bfd369239bc970d13e1b58e0" target="_top" xlink:title="FairParamObj::setStreamerInfo">
<polygon fill="none" stroke="#000000" points="391,-.5 391,-20.5 562,-20.5 562,-.5 391,-.5"/>
<text text-anchor="middle" x="476.5" y="-7.5" font-family="FreeSans" font-size="10.00" fill="#000000">FairParamObj::setStreamerInfo</text>
</a>
</g>
</g>
<!-- Node2&#45;&gt;Node6 -->
<g id="edge5" class="edge">
<title>Node2&#45;&gt;Node6</title>
<path fill="none" stroke="#191970" d="M309.3059,-58.4767C330.9208,-50.2998 362.6936,-38.7864 391,-30.5 400.1212,-27.8299 409.8705,-25.2741 419.4011,-22.9354"/>
<polygon fill="#191970" stroke="#191970" points="420.3104,-26.3167 429.2184,-20.581 418.6779,-19.5097 420.3104,-26.3167"/>
</g>
</g>
</svg>
