<?xml version="1.0" encoding="UTF-8" standalone="no"?>
<!DOCTYPE svg PUBLIC "-//W3C//DTD SVG 1.1//EN"
 "http://www.w3.org/Graphics/SVG/1.1/DTD/svg11.dtd">
<!-- Generated by graphviz version 2.40.1 (20161225.0304)
 -->
<!-- Title: fun4all_coresoftware/blob/master/generators/phhepmc/Fun4AllHepMCInputManager.h Pages: 1 -->
<svg width="3405pt" height="401pt"
 viewBox="0.00 0.00 3405.00 401.00" xmlns="http://www.w3.org/2000/svg" xmlns:xlink="http://www.w3.org/1999/xlink">
<g id="graph0" class="graph" transform="scale(1 1) rotate(0) translate(4 397)">
<title>fun4all_coresoftware/blob/master/generators/phhepmc/Fun4AllHepMCInputManager.h</title>
<!-- Node1 -->
<g id="node1" class="node">
<title>Node1</title>
<polygon fill="#bfbfbf" stroke="#000000" points="1521.5,-348.5 1521.5,-392.5 1745.5,-392.5 1745.5,-348.5 1521.5,-348.5"/>
<text text-anchor="start" x="1529.5" y="-379.5" font-family="FreeSans" font-size="10.00" fill="#000000">fun4all_coresoftware</text>
<text text-anchor="start" x="1529.5" y="-367.5" font-family="FreeSans" font-size="10.00" fill="#000000">/blob/master/generators</text>
<text text-anchor="middle" x="1633.5" y="-355.5" font-family="FreeSans" font-size="10.00" fill="#000000">/phhepmc/Fun4AllHepMCInputManager.h</text>
</g>
<!-- Node2 -->
<g id="node2" class="node">
<title>Node2</title>
<g id="a_node2"><a xlink:href="../../d4/d0c/Fun4AllHepMCInputManager_8cc.html" target="_top" xlink:title="fun4all_coresoftware\l/blob/master/generators\l/phhepmc/Fun4AllHepMCInputManager.cc">
<polygon fill="none" stroke="#000000" points="1222.5,-261.5 1222.5,-305.5 1450.5,-305.5 1450.5,-261.5 1222.5,-261.5"/>
<text text-anchor="start" x="1230.5" y="-292.5" font-family="FreeSans" font-size="10.00" fill="#000000">fun4all_coresoftware</text>
<text text-anchor="start" x="1230.5" y="-280.5" font-family="FreeSans" font-size="10.00" fill="#000000">/blob/master/generators</text>
<text text-anchor="middle" x="1336.5" y="-268.5" font-family="FreeSans" font-size="10.00" fill="#000000">/phhepmc/Fun4AllHepMCInputManager.cc</text>
</a>
</g>
</g>
<!-- Node1&#45;&gt;Node2 -->
<g id="edge1" class="edge">
<title>Node1&#45;&gt;Node2</title>
<path fill="none" stroke="#191970" d="M1548.5412,-345.6131C1505.398,-332.9752 1453.4363,-317.7541 1411.7493,-305.5427"/>
<polygon fill="#191970" stroke="#191970" points="1547.5897,-348.9814 1558.1704,-348.4338 1549.5576,-342.2637 1547.5897,-348.9814"/>
</g>
<!-- Node3 -->
<g id="node3" class="node">
<title>Node3</title>
<g id="a_node3"><a xlink:href="../../d5/db1/Fun4AllHepMCPileupInputManager_8h.html" target="_top" xlink:title="fun4all_coresoftware\l/blob/master/generators\l/phhepmc/Fun4AllHepMCPileupInput\lManager.h">
<polygon fill="none" stroke="#000000" points="1468.5,-255.5 1468.5,-311.5 1670.5,-311.5 1670.5,-255.5 1468.5,-255.5"/>
<text text-anchor="start" x="1476.5" y="-298.5" font-family="FreeSans" font-size="10.00" fill="#000000">fun4all_coresoftware</text>
<text text-anchor="start" x="1476.5" y="-286.5" font-family="FreeSans" font-size="10.00" fill="#000000">/blob/master/generators</text>
<text text-anchor="start" x="1476.5" y="-274.5" font-family="FreeSans" font-size="10.00" fill="#000000">/phhepmc/Fun4AllHepMCPileupInput</text>
<text text-anchor="middle" x="1569.5" y="-262.5" font-family="FreeSans" font-size="10.00" fill="#000000">Manager.h</text>
</a>
</g>
</g>
<!-- Node1&#45;&gt;Node3 -->
<g id="edge2" class="edge">
<title>Node1&#45;&gt;Node3</title>
<path fill="none" stroke="#191970" d="M1611.0364,-339.9635C1604.2897,-330.7922 1596.9205,-320.7748 1590.2873,-311.7577"/>
<polygon fill="#191970" stroke="#191970" points="1608.2734,-342.1141 1617.0184,-348.0953 1613.912,-337.9661 1608.2734,-342.1141"/>
</g>
<!-- Node5 -->
<g id="node5" class="node">
<title>Node5</title>
<g id="a_node5"><a xlink:href="../../dc/d7e/G4__Input_8C.html" target="_top" xlink:title="fun4all_macros/blob\l/master/common/G4_Input.C">
<polygon fill="none" stroke="#000000" points="1617,-174.5 1617,-206.5 1780,-206.5 1780,-174.5 1617,-174.5"/>
<text text-anchor="start" x="1625" y="-193.5" font-family="FreeSans" font-size="10.00" fill="#000000">fun4all_macros/blob</text>
<text text-anchor="middle" x="1698.5" y="-181.5" font-family="FreeSans" font-size="10.00" fill="#000000">/master/common/G4_Input.C</text>
</a>
</g>
</g>
<!-- Node1&#45;&gt;Node5 -->
<g id="edge45" class="edge">
<title>Node1&#45;&gt;Node5</title>
<path fill="none" stroke="#191970" d="M1661.8144,-340.5044C1668.59,-331.8715 1675.1215,-322.0538 1679.5,-312 1694.9298,-276.5704 1698.0388,-230.5034 1698.5362,-206.552"/>
<polygon fill="#191970" stroke="#191970" points="1658.9736,-338.4477 1655.3056,-348.3874 1664.3715,-342.9046 1658.9736,-338.4477"/>
</g>
<!-- Node34 -->
<g id="node34" class="node">
<title>Node34</title>
<g id="a_node34"><a xlink:href="../../d4/dfa/Fun4All__Generator__Display_8C.html" target="_top" xlink:title="fun4all_tutorials/blob\l/master/eventgenerator\l_display/Fun4All_Generator\l_Display.C">
<polygon fill="none" stroke="#000000" points="1726.5,-255.5 1726.5,-311.5 1882.5,-311.5 1882.5,-255.5 1726.5,-255.5"/>
<text text-anchor="start" x="1734.5" y="-298.5" font-family="FreeSans" font-size="10.00" fill="#000000">fun4all_tutorials/blob</text>
<text text-anchor="start" x="1734.5" y="-286.5" font-family="FreeSans" font-size="10.00" fill="#000000">/master/eventgenerator</text>
<text text-anchor="start" x="1734.5" y="-274.5" font-family="FreeSans" font-size="10.00" fill="#000000">_display/Fun4All_Generator</text>
<text text-anchor="middle" x="1804.5" y="-262.5" font-family="FreeSans" font-size="10.00" fill="#000000">_Display.C</text>
</a>
</g>
</g>
<!-- Node1&#45;&gt;Node34 -->
<g id="edge46" class="edge">
<title>Node1&#45;&gt;Node34</title>
<path fill="none" stroke="#191970" d="M1686.0853,-343.7461C1706.1363,-333.5447 1729.0374,-321.8933 1749.3224,-311.5728"/>
<polygon fill="#191970" stroke="#191970" points="1684.4186,-340.667 1677.093,-348.3211 1687.5929,-346.906 1684.4186,-340.667"/>
</g>
<!-- Node4 -->
<g id="node4" class="node">
<title>Node4</title>
<g id="a_node4"><a xlink:href="../../d6/dde/Fun4AllHepMCPileupInputManager_8cc.html" target="_top" xlink:title="fun4all_coresoftware\l/blob/master/generators\l/phhepmc/Fun4AllHepMCPileupInput\lManager.cc">
<polygon fill="none" stroke="#000000" points="1396.5,-162.5 1396.5,-218.5 1598.5,-218.5 1598.5,-162.5 1396.5,-162.5"/>
<text text-anchor="start" x="1404.5" y="-205.5" font-family="FreeSans" font-size="10.00" fill="#000000">fun4all_coresoftware</text>
<text text-anchor="start" x="1404.5" y="-193.5" font-family="FreeSans" font-size="10.00" fill="#000000">/blob/master/generators</text>
<text text-anchor="start" x="1404.5" y="-181.5" font-family="FreeSans" font-size="10.00" fill="#000000">/phhepmc/Fun4AllHepMCPileupInput</text>
<text text-anchor="middle" x="1497.5" y="-169.5" font-family="FreeSans" font-size="10.00" fill="#000000">Manager.cc</text>
</a>
</g>
</g>
<!-- Node3&#45;&gt;Node4 -->
<g id="edge3" class="edge">
<title>Node3&#45;&gt;Node4</title>
<path fill="none" stroke="#191970" d="M1541.3842,-247.1838C1534.0216,-237.6738 1526.1963,-227.5661 1519.2237,-218.5597"/>
<polygon fill="#191970" stroke="#191970" points="1538.8129,-249.5799 1547.7022,-255.3446 1544.348,-245.2947 1538.8129,-249.5799"/>
</g>
<!-- Node3&#45;&gt;Node5 -->
<g id="edge4" class="edge">
<title>Node3&#45;&gt;Node5</title>
<path fill="none" stroke="#191970" d="M1616.768,-249.4231C1637.0331,-234.8133 1659.7473,-218.438 1676.0771,-206.6653"/>
<polygon fill="#191970" stroke="#191970" points="1614.6193,-246.6574 1608.5543,-255.3446 1618.7129,-252.3356 1614.6193,-246.6574"/>
</g>
<!-- Node6 -->
<g id="node6" class="node">
<title>Node6</title>
<g id="a_node6"><a xlink:href="../../d9/d8a/Extract__ECCE__gdml_8C.html" target="_top" xlink:title="east/blob/main/Components\l/ECCE/Extract_ECCE_gdml.C">
<polygon fill="none" stroke="#000000" points="0,-6.5 0,-38.5 159,-38.5 159,-6.5 0,-6.5"/>
<text text-anchor="start" x="8" y="-25.5" font-family="FreeSans" font-size="10.00" fill="#000000">east/blob/main/Components</text>
<text text-anchor="middle" x="79.5" y="-13.5" font-family="FreeSans" font-size="10.00" fill="#000000">/ECCE/Extract_ECCE_gdml.C</text>
</a>
</g>
</g>
<!-- Node5&#45;&gt;Node6 -->
<g id="edge5" class="edge">
<title>Node5&#45;&gt;Node6</title>
<path fill="none" stroke="#191970" d="M1645.85,-171.285C1633.433,-167.5183 1620.1301,-164.0904 1607.5,-162 1527.0697,-148.688 210.7829,-167.3105 140.5,-126 107.774,-106.7645 90.7489,-62.5673 83.6408,-38.623"/>
<polygon fill="#191970" stroke="#191970" points="1644.9986,-174.6865 1655.5883,-174.3594 1647.106,-168.0112 1644.9986,-174.6865"/>
</g>
<!-- Node7 -->
<g id="node7" class="node">
<title>Node7</title>
<g id="a_node7"><a xlink:href="../../d9/d18/Fun4All__G4__LBLDetector_8C.html" target="_top" xlink:title="fun4all_eicmacros/blob\l/master/detectors/AllSilicon\l/Fun4All_G4_LBLDetector.C">
<polygon fill="none" stroke="#000000" points="410.5,-.5 410.5,-44.5 566.5,-44.5 566.5,-.5 410.5,-.5"/>
<text text-anchor="start" x="418.5" y="-31.5" font-family="FreeSans" font-size="10.00" fill="#000000">fun4all_eicmacros/blob</text>
<text text-anchor="start" x="418.5" y="-19.5" font-family="FreeSans" font-size="10.00" fill="#000000">/master/detectors/AllSilicon</text>
<text text-anchor="middle" x="488.5" y="-7.5" font-family="FreeSans" font-size="10.00" fill="#000000">/Fun4All_G4_LBLDetector.C</text>
</a>
</g>
</g>
<!-- Node5&#45;&gt;Node7 -->
<g id="edge6" class="edge">
<title>Node5&#45;&gt;Node7</title>
<path fill="none" stroke="#191970" d="M1645.8424,-171.3306C1633.4258,-167.5619 1620.1249,-164.1216 1607.5,-162 1540.5756,-150.7534 433.7739,-174.6882 386.5,-126 372.5678,-111.651 376.4752,-98.3061 386.5,-81 395.6068,-65.2786 410.7098,-53.418 426.539,-44.6337"/>
<polygon fill="#191970" stroke="#191970" points="1644.991,-174.7321 1655.5808,-174.4046 1647.0982,-168.0567 1644.991,-174.7321"/>
</g>
<!-- Node8 -->
<g id="node8" class="node">
<title>Node8</title>
<g id="a_node8"><a xlink:href="../../df/d34/G4Setup__LBLDetector_8C.html" target="_top" xlink:title="fun4all_eicmacros/blob\l/master/detectors/AllSilicon\l/G4Setup_LBLDetector.C">
<polygon fill="none" stroke="#000000" points="395.5,-81.5 395.5,-125.5 551.5,-125.5 551.5,-81.5 395.5,-81.5"/>
<text text-anchor="start" x="403.5" y="-112.5" font-family="FreeSans" font-size="10.00" fill="#000000">fun4all_eicmacros/blob</text>
<text text-anchor="start" x="403.5" y="-100.5" font-family="FreeSans" font-size="10.00" fill="#000000">/master/detectors/AllSilicon</text>
<text text-anchor="middle" x="473.5" y="-88.5" font-family="FreeSans" font-size="10.00" fill="#000000">/G4Setup_LBLDetector.C</text>
</a>
</g>
</g>
<!-- Node5&#45;&gt;Node8 -->
<g id="edge7" class="edge">
<title>Node5&#45;&gt;Node8</title>
<path fill="none" stroke="#191970" d="M1645.8347,-171.3758C1633.4185,-167.605 1620.1196,-164.1525 1607.5,-162 1148.5203,-83.7136 1021.3077,-192.6885 560.5,-126 557.5664,-125.5754 554.5889,-125.09 551.5904,-124.5549"/>
<polygon fill="#191970" stroke="#191970" points="1644.9835,-174.7772 1655.5732,-174.4493 1647.0903,-168.1018 1644.9835,-174.7772"/>
</g>
<!-- Node9 -->
<g id="node9" class="node">
<title>Node9</title>
<g id="a_node9"><a xlink:href="../../df/d9d/fun4all__eicmacros_2blob_2master_2detectors_2Beast_2Fun4All__G4__Beast_8C.html" target="_top" xlink:title="fun4all_eicmacros/blob\l/master/detectors/Beast\l/Fun4All_G4_Beast.C">
<polygon fill="none" stroke="#000000" points="569.5,-81.5 569.5,-125.5 709.5,-125.5 709.5,-81.5 569.5,-81.5"/>
<text text-anchor="start" x="577.5" y="-112.5" font-family="FreeSans" font-size="10.00" fill="#000000">fun4all_eicmacros/blob</text>
<text text-anchor="start" x="577.5" y="-100.5" font-family="FreeSans" font-size="10.00" fill="#000000">/master/detectors/Beast</text>
<text text-anchor="middle" x="639.5" y="-88.5" font-family="FreeSans" font-size="10.00" fill="#000000">/Fun4All_G4_Beast.C</text>
</a>
</g>
</g>
<!-- Node5&#45;&gt;Node9 -->
<g id="edge9" class="edge">
<title>Node5&#45;&gt;Node9</title>
<path fill="none" stroke="#191970" d="M1645.4443,-171.3187C1633.1376,-167.5901 1619.9841,-164.1701 1607.5,-162 1220.0947,-94.659 1112.2279,-185.2307 723.5,-126 719.0224,-125.3178 714.4408,-124.4864 709.8408,-123.5503"/>
<polygon fill="#191970" stroke="#191970" points="1644.5141,-174.6951 1655.1035,-174.3571 1646.6146,-168.0177 1644.5141,-174.6951"/>
</g>
<!-- Node10 -->
<g id="node10" class="node">
<title>Node10</title>
<g id="a_node10"><a xlink:href="../../d4/dd7/fun4all__eicmacros_2blob_2master_2detectors_2EICDetector_2Fun4All__G4__EICDetector_8C.html" target="_top" xlink:title="fun4all_eicmacros/blob\l/master/detectors/EICDetector\l/Fun4All_G4_EICDetector.C">
<polygon fill="none" stroke="#000000" points="709,-.5 709,-44.5 880,-44.5 880,-.5 709,-.5"/>
<text text-anchor="start" x="717" y="-31.5" font-family="FreeSans" font-size="10.00" fill="#000000">fun4all_eicmacros/blob</text>
<text text-anchor="start" x="717" y="-19.5" font-family="FreeSans" font-size="10.00" fill="#000000">/master/detectors/EICDetector</text>
<text text-anchor="middle" x="794.5" y="-7.5" font-family="FreeSans" font-size="10.00" fill="#000000">/Fun4All_G4_EICDetector.C</text>
</a>
</g>
</g>
<!-- Node5&#45;&gt;Node10 -->
<g id="edge10" class="edge">
<title>Node5&#45;&gt;Node10</title>
<path fill="none" stroke="#191970" d="M1645.4418,-171.3332C1633.1352,-167.6039 1619.9824,-164.1799 1607.5,-162 1560.8854,-153.8593 789.2456,-160.1601 756.5,-126 734.909,-103.4763 756.2184,-67.6751 774.5504,-44.6358"/>
<polygon fill="#191970" stroke="#191970" points="1644.5116,-174.7096 1655.101,-174.3716 1646.6121,-168.0322 1644.5116,-174.7096"/>
</g>
<!-- Node11 -->
<g id="node11" class="node">
<title>Node11</title>
<g id="a_node11"><a xlink:href="../../d3/d35/fun4all__eicmacros_2blob_2master_2detectors_2EICDetector_2G4Setup__EICDetector_8C.html" target="_top" xlink:title="fun4all_eicmacros/blob\l/master/detectors/EICDetector\l/G4Setup_EICDetector.C">
<polygon fill="none" stroke="#000000" points="766,-81.5 766,-125.5 937,-125.5 937,-81.5 766,-81.5"/>
<text text-anchor="start" x="774" y="-112.5" font-family="FreeSans" font-size="10.00" fill="#000000">fun4all_eicmacros/blob</text>
<text text-anchor="start" x="774" y="-100.5" font-family="FreeSans" font-size="10.00" fill="#000000">/master/detectors/EICDetector</text>
<text text-anchor="middle" x="851.5" y="-88.5" font-family="FreeSans" font-size="10.00" fill="#000000">/G4Setup_EICDetector.C</text>
</a>
</g>
</g>
<!-- Node5&#45;&gt;Node11 -->
<g id="edge11" class="edge">
<title>Node5&#45;&gt;Node11</title>
<path fill="none" stroke="#191970" d="M1645.4221,-171.444C1633.1165,-167.7093 1619.969,-164.2551 1607.5,-162 1317.5468,-109.5612 1237.0803,-168.4691 945.5,-126 942.7601,-125.6009 939.983,-125.1598 937.1847,-124.6838"/>
<polygon fill="#191970" stroke="#191970" points="1644.492,-174.8205 1655.0814,-174.4818 1646.5921,-168.1429 1644.492,-174.8205"/>
</g>
<!-- Node12 -->
<g id="node12" class="node">
<title>Node12</title>
<g id="a_node12"><a xlink:href="../../d7/d9e/Fun4All__G4__fsPHENIX_8C.html" target="_top" xlink:title="fun4all_eicmacros/blob\l/master/detectors/fsPHENIX\l/Fun4All_G4_fsPHENIX.C">
<polygon fill="none" stroke="#000000" points="955,-81.5 955,-125.5 1112,-125.5 1112,-81.5 955,-81.5"/>
<text text-anchor="start" x="963" y="-112.5" font-family="FreeSans" font-size="10.00" fill="#000000">fun4all_eicmacros/blob</text>
<text text-anchor="start" x="963" y="-100.5" font-family="FreeSans" font-size="10.00" fill="#000000">/master/detectors/fsPHENIX</text>
<text text-anchor="middle" x="1033.5" y="-88.5" font-family="FreeSans" font-size="10.00" fill="#000000">/Fun4All_G4_fsPHENIX.C</text>
</a>
</g>
</g>
<!-- Node5&#45;&gt;Node12 -->
<g id="edge13" class="edge">
<title>Node5&#45;&gt;Node12</title>
<path fill="none" stroke="#191970" d="M1644.2676,-171.283C1632.2889,-167.6679 1619.5691,-164.3042 1607.5,-162 1394.3155,-121.299 1334.643,-161.3127 1120.5,-126 1117.7292,-125.5431 1114.918,-125.0392 1112.0856,-124.4972"/>
<polygon fill="#191970" stroke="#191970" points="1643.5362,-174.7212 1654.1249,-174.361 1645.6227,-168.0394 1643.5362,-174.7212"/>
</g>
<!-- Node13 -->
<g id="node13" class="node">
<title>Node13</title>
<g id="a_node13"><a xlink:href="../../d0/d87/Fun4All__G4__JLeic_8C.html" target="_top" xlink:title="fun4all_eicmacros/blob\l/master/detectors/JLeic\l/Fun4All_G4_JLeic.C">
<polygon fill="none" stroke="#000000" points="1130,-81.5 1130,-125.5 1263,-125.5 1263,-81.5 1130,-81.5"/>
<text text-anchor="start" x="1138" y="-112.5" font-family="FreeSans" font-size="10.00" fill="#000000">fun4all_eicmacros/blob</text>
<text text-anchor="start" x="1138" y="-100.5" font-family="FreeSans" font-size="10.00" fill="#000000">/master/detectors/JLeic</text>
<text text-anchor="middle" x="1196.5" y="-88.5" font-family="FreeSans" font-size="10.00" fill="#000000">/Fun4All_G4_JLeic.C</text>
</a>
</g>
</g>
<!-- Node5&#45;&gt;Node13 -->
<g id="edge14" class="edge">
<title>Node5&#45;&gt;Node13</title>
<path fill="none" stroke="#191970" d="M1643.4468,-171.3714C1631.6947,-167.8213 1619.2739,-164.4614 1607.5,-162 1463.0852,-131.8095 1422.3872,-153.8352 1277.5,-126 1272.7702,-125.0913 1267.9138,-124.043 1263.0421,-122.9062"/>
<polygon fill="#191970" stroke="#191970" points="1642.5441,-174.756 1653.1324,-174.3828 1644.6224,-168.0716 1642.5441,-174.756"/>
</g>
<!-- Node14 -->
<g id="node14" class="node">
<title>Node14</title>
<g id="a_node14"><a xlink:href="../../d5/d97/Fun4All__G4__FullDetectorModular_8C.html" target="_top" xlink:title="fun4all_eicmacros/blob\l/master/detectors/Modular\l/Fun4All_G4_FullDetectorModular.C">
<polygon fill="none" stroke="#000000" points="1114.5,-.5 1114.5,-44.5 1308.5,-44.5 1308.5,-.5 1114.5,-.5"/>
<text text-anchor="start" x="1122.5" y="-31.5" font-family="FreeSans" font-size="10.00" fill="#000000">fun4all_eicmacros/blob</text>
<text text-anchor="start" x="1122.5" y="-19.5" font-family="FreeSans" font-size="10.00" fill="#000000">/master/detectors/Modular</text>
<text text-anchor="middle" x="1211.5" y="-7.5" font-family="FreeSans" font-size="10.00" fill="#000000">/Fun4All_G4_FullDetectorModular.C</text>
</a>
</g>
</g>
<!-- Node5&#45;&gt;Node14 -->
<g id="edge15" class="edge">
<title>Node5&#45;&gt;Node14</title>
<path fill="none" stroke="#191970" d="M1643.4238,-171.4797C1631.6733,-167.9221 1619.259,-164.5318 1607.5,-162 1477.5126,-134.0131 1427.9039,-188.4206 1310.5,-126 1287.1316,-113.5757 1289.6575,-100.2549 1271.5,-81 1259.822,-68.6161 1246.2857,-55.3326 1235.0291,-44.5584"/>
<polygon fill="#191970" stroke="#191970" points="1642.5208,-174.8642 1653.1091,-174.4923 1644.6,-168.1801 1642.5208,-174.8642"/>
</g>
<!-- Node15 -->
<g id="node15" class="node">
<title>Node15</title>
<g id="a_node15"><a xlink:href="../../d8/da0/G4Setup__ModularDetector_8C.html" target="_top" xlink:title="fun4all_eicmacros/blob\l/master/detectors/Modular\l/G4Setup_ModularDetector.C">
<polygon fill="none" stroke="#000000" points="1320,-81.5 1320,-125.5 1483,-125.5 1483,-81.5 1320,-81.5"/>
<text text-anchor="start" x="1328" y="-112.5" font-family="FreeSans" font-size="10.00" fill="#000000">fun4all_eicmacros/blob</text>
<text text-anchor="start" x="1328" y="-100.5" font-family="FreeSans" font-size="10.00" fill="#000000">/master/detectors/Modular</text>
<text text-anchor="middle" x="1401.5" y="-88.5" font-family="FreeSans" font-size="10.00" fill="#000000">/G4Setup_ModularDetector.C</text>
</a>
</g>
</g>
<!-- Node5&#45;&gt;Node15 -->
<g id="edge16" class="edge">
<title>Node5&#45;&gt;Node15</title>
<path fill="none" stroke="#191970" d="M1638.3123,-171.4003C1628.0461,-168.2141 1617.4779,-164.9787 1607.5,-162 1565.8193,-149.5573 1519.2086,-136.2686 1480.8804,-125.5063"/>
<polygon fill="#191970" stroke="#191970" points="1637.4448,-174.7959 1648.0333,-174.43 1639.5277,-168.113 1637.4448,-174.7959"/>
</g>
<!-- Node16 -->
<g id="node16" class="node">
<title>Node16</title>
<g id="a_node16"><a xlink:href="../../df/d13/G4Setup__ModularDetectorBeast_8C.html" target="_top" xlink:title="fun4all_eicmacros/blob\l/master/detectors/ModularBeast\l/G4Setup_ModularDetectorBeast.C">
<polygon fill="none" stroke="#000000" points="1540,-81.5 1540,-125.5 1733,-125.5 1733,-81.5 1540,-81.5"/>
<text text-anchor="start" x="1548" y="-112.5" font-family="FreeSans" font-size="10.00" fill="#000000">fun4all_eicmacros/blob</text>
<text text-anchor="start" x="1548" y="-100.5" font-family="FreeSans" font-size="10.00" fill="#000000">/master/detectors/ModularBeast</text>
<text text-anchor="middle" x="1636.5" y="-88.5" font-family="FreeSans" font-size="10.00" fill="#000000">/G4Setup_ModularDetectorBeast.C</text>
</a>
</g>
</g>
<!-- Node5&#45;&gt;Node16 -->
<g id="edge18" class="edge">
<title>Node5&#45;&gt;Node16</title>
<path fill="none" stroke="#191970" d="M1680.954,-165.879C1671.9496,-153.2438 1661.0663,-137.972 1652.322,-125.7018"/>
<polygon fill="#191970" stroke="#191970" points="1678.1844,-168.0235 1686.8383,-174.136 1683.885,-163.961 1678.1844,-168.0235"/>
</g>
<!-- Node17 -->
<g id="node17" class="node">
<title>Node17</title>
<g id="a_node17"><a xlink:href="../../d0/dce/Fun4All__G4__FullDetectorModularBeast_8C.html" target="_top" xlink:title="fun4all_eicmacros/blob\l/master/detectors/ModularBeast\l/Fun4All_G4_FullDetectorModularBeast.C">
<polygon fill="none" stroke="#000000" points="1326,-.5 1326,-44.5 1549,-44.5 1549,-.5 1326,-.5"/>
<text text-anchor="start" x="1334" y="-31.5" font-family="FreeSans" font-size="10.00" fill="#000000">fun4all_eicmacros/blob</text>
<text text-anchor="start" x="1334" y="-19.5" font-family="FreeSans" font-size="10.00" fill="#000000">/master/detectors/ModularBeast</text>
<text text-anchor="middle" x="1437.5" y="-7.5" font-family="FreeSans" font-size="10.00" fill="#000000">/Fun4All_G4_FullDetectorModularBeast.C</text>
</a>
</g>
</g>
<!-- Node5&#45;&gt;Node17 -->
<g id="edge20" class="edge">
<title>Node5&#45;&gt;Node17</title>
<path fill="none" stroke="#191970" d="M1639.1225,-171.129C1598.4395,-157.2173 1548.6744,-138.7469 1530.5,-126 1508.8322,-110.803 1509.1445,-100.726 1491.5,-81 1480.6266,-68.8438 1468.3041,-55.465 1458.1786,-44.5734"/>
<polygon fill="#191970" stroke="#191970" points="1638.1166,-174.4836 1648.711,-174.3816 1640.3654,-167.8546 1638.1166,-174.4836"/>
</g>
<!-- Node18 -->
<g id="node18" class="node">
<title>Node18</title>
<g id="a_node18"><a xlink:href="../../db/d7c/Fun4All__G4__CEMC_8C.html" target="_top" xlink:title="fun4all_eic_qa/blob\l/master/macros/Fun4All\l_G4_CEMC.C">
<polygon fill="none" stroke="#000000" points="1567,-.5 1567,-44.5 1704,-44.5 1704,-.5 1567,-.5"/>
<text text-anchor="start" x="1575" y="-31.5" font-family="FreeSans" font-size="10.00" fill="#000000">fun4all_eic_qa/blob</text>
<text text-anchor="start" x="1575" y="-19.5" font-family="FreeSans" font-size="10.00" fill="#000000">/master/macros/Fun4All</text>
<text text-anchor="middle" x="1635.5" y="-7.5" font-family="FreeSans" font-size="10.00" fill="#000000">_G4_CEMC.C</text>
</a>
</g>
</g>
<!-- Node5&#45;&gt;Node18 -->
<g id="edge21" class="edge">
<title>Node5&#45;&gt;Node18</title>
<path fill="none" stroke="#191970" d="M1720.2165,-166.3174C1737.9972,-143.4303 1757.774,-108.5692 1741.5,-81 1732.1507,-65.1617 1716.8091,-53.316 1700.6637,-44.5841"/>
<polygon fill="#191970" stroke="#191970" points="1717.4222,-164.2061 1713.8264,-174.1721 1722.8523,-168.6236 1717.4222,-164.2061"/>
</g>
<!-- Node19 -->
<g id="node19" class="node">
<title>Node19</title>
<g id="a_node19"><a xlink:href="../../d6/d79/fun4all__eic__qa_2blob_2master_2macros_2Fun4All__G4__EICDetector_8C.html" target="_top" xlink:title="fun4all_eic_qa/blob\l/master/macros/Fun4All\l_G4_EICDetector.C">
<polygon fill="none" stroke="#000000" points="1722,-.5 1722,-44.5 1859,-44.5 1859,-.5 1722,-.5"/>
<text text-anchor="start" x="1730" y="-31.5" font-family="FreeSans" font-size="10.00" fill="#000000">fun4all_eic_qa/blob</text>
<text text-anchor="start" x="1730" y="-19.5" font-family="FreeSans" font-size="10.00" fill="#000000">/master/macros/Fun4All</text>
<text text-anchor="middle" x="1790.5" y="-7.5" font-family="FreeSans" font-size="10.00" fill="#000000">_G4_EICDetector.C</text>
</a>
</g>
</g>
<!-- Node5&#45;&gt;Node19 -->
<g id="edge22" class="edge">
<title>Node5&#45;&gt;Node19</title>
<path fill="none" stroke="#191970" d="M1725.6042,-167.2715C1737.4527,-155.8786 1750.6396,-141.3231 1759.5,-126 1774.4294,-100.1813 1782.7721,-66.5084 1786.951,-44.6974"/>
<polygon fill="#191970" stroke="#191970" points="1723.0096,-164.9048 1718.0703,-174.2779 1727.7767,-170.0308 1723.0096,-164.9048"/>
</g>
<!-- Node20 -->
<g id="node20" class="node">
<title>Node20</title>
<g id="a_node20"><a xlink:href="../../d4/d3e/Fun4All__G4__FEMC_8C.html" target="_top" xlink:title="fun4all_eic_qa/blob\l/master/macros/Fun4All\l_G4_FEMC.C">
<polygon fill="none" stroke="#000000" points="1877,-.5 1877,-44.5 2014,-44.5 2014,-.5 1877,-.5"/>
<text text-anchor="start" x="1885" y="-31.5" font-family="FreeSans" font-size="10.00" fill="#000000">fun4all_eic_qa/blob</text>
<text text-anchor="start" x="1885" y="-19.5" font-family="FreeSans" font-size="10.00" fill="#000000">/master/macros/Fun4All</text>
<text text-anchor="middle" x="1945.5" y="-7.5" font-family="FreeSans" font-size="10.00" fill="#000000">_G4_FEMC.C</text>
</a>
</g>
</g>
<!-- Node5&#45;&gt;Node20 -->
<g id="edge23" class="edge">
<title>Node5&#45;&gt;Node20</title>
<path fill="none" stroke="#191970" d="M1729.8437,-168.441C1761.6118,-146.163 1812.2519,-110.8684 1856.5,-81 1874.5842,-68.7928 1894.9063,-55.41 1911.5609,-44.5289"/>
<polygon fill="#191970" stroke="#191970" points="1727.5793,-165.7543 1721.405,-174.3641 1731.6008,-171.4838 1727.5793,-165.7543"/>
</g>
<!-- Node21 -->
<g id="node21" class="node">
<title>Node21</title>
<g id="a_node21"><a xlink:href="../../d8/ddf/Fun4All__G4__FHCAL_8C.html" target="_top" xlink:title="fun4all_eic_qa/blob\l/master/macros/Fun4All\l_G4_FHCAL.C">
<polygon fill="none" stroke="#000000" points="2032,-.5 2032,-44.5 2169,-44.5 2169,-.5 2032,-.5"/>
<text text-anchor="start" x="2040" y="-31.5" font-family="FreeSans" font-size="10.00" fill="#000000">fun4all_eic_qa/blob</text>
<text text-anchor="start" x="2040" y="-19.5" font-family="FreeSans" font-size="10.00" fill="#000000">/master/macros/Fun4All</text>
<text text-anchor="middle" x="2100.5" y="-7.5" font-family="FreeSans" font-size="10.00" fill="#000000">_G4_FHCAL.C</text>
</a>
</g>
</g>
<!-- Node5&#45;&gt;Node21 -->
<g id="edge24" class="edge">
<title>Node5&#45;&gt;Node21</title>
<path fill="none" stroke="#191970" d="M1790.2129,-179.1496C1870.8005,-167.8996 1980.9084,-149.0394 2018.5,-126 2035.4071,-115.6378 2066.911,-72.0144 2085.562,-44.8165"/>
<polygon fill="#191970" stroke="#191970" points="1789.4713,-175.7187 1780.0428,-180.5511 1790.427,-182.6531 1789.4713,-175.7187"/>
</g>
<!-- Node22 -->
<g id="node22" class="node">
<title>Node22</title>
<g id="a_node22"><a xlink:href="../../da/d70/Fun4All__G4__HCALIN_8C.html" target="_top" xlink:title="fun4all_eic_qa/blob\l/master/macros/Fun4All\l_G4_HCALIN.C">
<polygon fill="none" stroke="#000000" points="2187,-.5 2187,-44.5 2324,-44.5 2324,-.5 2187,-.5"/>
<text text-anchor="start" x="2195" y="-31.5" font-family="FreeSans" font-size="10.00" fill="#000000">fun4all_eic_qa/blob</text>
<text text-anchor="start" x="2195" y="-19.5" font-family="FreeSans" font-size="10.00" fill="#000000">/master/macros/Fun4All</text>
<text text-anchor="middle" x="2255.5" y="-7.5" font-family="FreeSans" font-size="10.00" fill="#000000">_G4_HCALIN.C</text>
</a>
</g>
</g>
<!-- Node5&#45;&gt;Node22 -->
<g id="edge25" class="edge">
<title>Node5&#45;&gt;Node22</title>
<path fill="none" stroke="#191970" d="M1790.3906,-179.8484C1879.556,-168.4311 2007.7636,-148.8341 2052.5,-126 2078.2583,-112.8526 2075.0164,-96.3915 2099.5,-81 2115.1112,-71.1861 2153.8681,-56.6368 2188.843,-44.5033"/>
<polygon fill="#191970" stroke="#191970" points="1789.7431,-176.4024 1780.2624,-181.1318 1790.6231,-183.3469 1789.7431,-176.4024"/>
</g>
<!-- Node23 -->
<g id="node23" class="node">
<title>Node23</title>
<g id="a_node23"><a xlink:href="../../d5/d4e/Fun4All__G4__HCALOUT_8C.html" target="_top" xlink:title="fun4all_eic_qa/blob\l/master/macros/Fun4All\l_G4_HCALOUT.C">
<polygon fill="none" stroke="#000000" points="2342,-.5 2342,-44.5 2479,-44.5 2479,-.5 2342,-.5"/>
<text text-anchor="start" x="2350" y="-31.5" font-family="FreeSans" font-size="10.00" fill="#000000">fun4all_eic_qa/blob</text>
<text text-anchor="start" x="2350" y="-19.5" font-family="FreeSans" font-size="10.00" fill="#000000">/master/macros/Fun4All</text>
<text text-anchor="middle" x="2410.5" y="-7.5" font-family="FreeSans" font-size="10.00" fill="#000000">_G4_HCALOUT.C</text>
</a>
</g>
</g>
<!-- Node5&#45;&gt;Node23 -->
<g id="edge26" class="edge">
<title>Node5&#45;&gt;Node23</title>
<path fill="none" stroke="#191970" d="M1790.12,-182.303C1889.2294,-172.2378 2039.8687,-153.1021 2090.5,-126 2114.6196,-113.0892 2108.478,-94.0915 2132.5,-81 2211.8051,-37.7804 2244.55,-65.5433 2332.5,-45 2335.5194,-44.2947 2338.5958,-43.5445 2341.6973,-42.7623"/>
<polygon fill="#191970" stroke="#191970" points="1789.6982,-178.8277 1780.0972,-183.3079 1790.3965,-185.7928 1789.6982,-178.8277"/>
</g>
<!-- Node24 -->
<g id="node24" class="node">
<title>Node24</title>
<g id="a_node24"><a xlink:href="../../dc/df3/fun4all__eic__qa_2blob_2master_2macros_2G4Setup__EICDetector_8C.html" target="_top" xlink:title="fun4all_eic_qa/blob\l/master/macros/G4Setup\l_EICDetector.C">
<polygon fill="none" stroke="#000000" points="1865.5,-81.5 1865.5,-125.5 2009.5,-125.5 2009.5,-81.5 1865.5,-81.5"/>
<text text-anchor="start" x="1873.5" y="-112.5" font-family="FreeSans" font-size="10.00" fill="#000000">fun4all_eic_qa/blob</text>
<text text-anchor="start" x="1873.5" y="-100.5" font-family="FreeSans" font-size="10.00" fill="#000000">/master/macros/G4Setup</text>
<text text-anchor="middle" x="1937.5" y="-88.5" font-family="FreeSans" font-size="10.00" fill="#000000">_EICDetector.C</text>
</a>
</g>
</g>
<!-- Node5&#45;&gt;Node24 -->
<g id="edge27" class="edge">
<title>Node5&#45;&gt;Node24</title>
<path fill="none" stroke="#191970" d="M1752.235,-170.9396C1789.2755,-157.4562 1838.5586,-139.5163 1876.9827,-125.5293"/>
<polygon fill="#191970" stroke="#191970" points="1750.8144,-167.7319 1742.6148,-174.4415 1753.2088,-174.3097 1750.8144,-167.7319"/>
</g>
<!-- Node25 -->
<g id="node25" class="node">
<title>Node25</title>
<g id="a_node25"><a xlink:href="../../d8/d14/Fun4All__G4__Babar_8C.html" target="_top" xlink:title="fun4all_eic_tutorials\l/blob/master/detectors\l/Babar/Fun4All_G4_Babar.C">
<polygon fill="none" stroke="#000000" points="2142,-81.5 2142,-125.5 2297,-125.5 2297,-81.5 2142,-81.5"/>
<text text-anchor="start" x="2150" y="-112.5" font-family="FreeSans" font-size="10.00" fill="#000000">fun4all_eic_tutorials</text>
<text text-anchor="start" x="2150" y="-100.5" font-family="FreeSans" font-size="10.00" fill="#000000">/blob/master/detectors</text>
<text text-anchor="middle" x="2219.5" y="-88.5" font-family="FreeSans" font-size="10.00" fill="#000000">/Babar/Fun4All_G4_Babar.C</text>
</a>
</g>
</g>
<!-- Node5&#45;&gt;Node25 -->
<g id="edge34" class="edge">
<title>Node5&#45;&gt;Node25</title>
<path fill="none" stroke="#191970" d="M1790.4494,-179.1287C1877.6012,-167.7721 2011.9932,-148.7591 2127.5,-126 2132.1785,-125.0782 2136.9776,-124.0764 2141.81,-123.0248"/>
<polygon fill="#191970" stroke="#191970" points="1789.7907,-175.6847 1780.3237,-180.4414 1790.6907,-182.6266 1789.7907,-175.6847"/>
</g>
<!-- Node26 -->
<g id="node26" class="node">
<title>Node26</title>
<g id="a_node26"><a xlink:href="../../d0/d4c/fun4all__eic__tutorials_2blob_2master_2detectors_2Beast_2Fun4All__G4__Beast_8C.html" target="_top" xlink:title="fun4all_eic_tutorials\l/blob/master/detectors\l/Beast/Fun4All_G4_Beast.C">
<polygon fill="none" stroke="#000000" points="2315,-81.5 2315,-125.5 2468,-125.5 2468,-81.5 2315,-81.5"/>
<text text-anchor="start" x="2323" y="-112.5" font-family="FreeSans" font-size="10.00" fill="#000000">fun4all_eic_tutorials</text>
<text text-anchor="start" x="2323" y="-100.5" font-family="FreeSans" font-size="10.00" fill="#000000">/blob/master/detectors</text>
<text text-anchor="middle" x="2391.5" y="-88.5" font-family="FreeSans" font-size="10.00" fill="#000000">/Beast/Fun4All_G4_Beast.C</text>
</a>
</g>
</g>
<!-- Node5&#45;&gt;Node26 -->
<g id="edge35" class="edge">
<title>Node5&#45;&gt;Node26</title>
<path fill="none" stroke="#191970" d="M1790.2493,-185.0532C1909.6514,-176.9838 2124.4368,-159.1122 2305.5,-126 2308.5363,-125.4447 2311.623,-124.8389 2314.7338,-124.1938"/>
<polygon fill="#191970" stroke="#191970" points="1789.8,-181.5753 1780.0554,-185.7339 1790.2664,-188.5597 1789.8,-181.5753"/>
</g>
<!-- Node27 -->
<g id="node27" class="node">
<title>Node27</title>
<g id="a_node27"><a xlink:href="../../de/dcc/Fun4All__G4__Cleo_8C.html" target="_top" xlink:title="fun4all_eic_tutorials\l/blob/master/detectors\l/Cleo/Fun4All_G4_Cleo.C">
<polygon fill="none" stroke="#000000" points="2486.5,-81.5 2486.5,-125.5 2626.5,-125.5 2626.5,-81.5 2486.5,-81.5"/>
<text text-anchor="start" x="2494.5" y="-112.5" font-family="FreeSans" font-size="10.00" fill="#000000">fun4all_eic_tutorials</text>
<text text-anchor="start" x="2494.5" y="-100.5" font-family="FreeSans" font-size="10.00" fill="#000000">/blob/master/detectors</text>
<text text-anchor="middle" x="2556.5" y="-88.5" font-family="FreeSans" font-size="10.00" fill="#000000">/Cleo/Fun4All_G4_Cleo.C</text>
</a>
</g>
</g>
<!-- Node5&#45;&gt;Node27 -->
<g id="edge36" class="edge">
<title>Node5&#45;&gt;Node27</title>
<path fill="none" stroke="#191970" d="M1790.3623,-188.565C1936.6631,-184.2133 2231.1328,-170.2544 2476.5,-126 2479.7657,-125.411 2483.0903,-124.7462 2486.437,-124.024"/>
<polygon fill="#191970" stroke="#191970" points="1789.982,-185.0744 1780.0874,-188.862 1790.1844,-192.0715 1789.982,-185.0744"/>
</g>
<!-- Node28 -->
<g id="node28" class="node">
<title>Node28</title>
<g id="a_node28"><a xlink:href="../../d9/d73/fun4all__macros_2blob_2master_2detectors_2sPHENIX_2Fun4All__G4__sPHENIX_8C.html" target="_top" xlink:title="fun4all_macros/blob\l/master/detectors/sPHENIX\l/Fun4All_G4_sPHENIX.C">
<polygon fill="none" stroke="#000000" points="2645,-81.5 2645,-125.5 2798,-125.5 2798,-81.5 2645,-81.5"/>
<text text-anchor="start" x="2653" y="-112.5" font-family="FreeSans" font-size="10.00" fill="#000000">fun4all_macros/blob</text>
<text text-anchor="start" x="2653" y="-100.5" font-family="FreeSans" font-size="10.00" fill="#000000">/master/detectors/sPHENIX</text>
<text text-anchor="middle" x="2721.5" y="-88.5" font-family="FreeSans" font-size="10.00" fill="#000000">/Fun4All_G4_sPHENIX.C</text>
</a>
</g>
</g>
<!-- Node5&#45;&gt;Node28 -->
<g id="edge37" class="edge">
<title>Node5&#45;&gt;Node28</title>
<path fill="none" stroke="#191970" d="M1790.2985,-186.3735C1993.2066,-176.8955 2474.5857,-152.3499 2635.5,-126 2638.546,-125.5012 2641.6411,-124.943 2644.7588,-124.3378"/>
<polygon fill="#191970" stroke="#191970" points="1790.0895,-182.8794 1780.2631,-186.8406 1790.4151,-189.8718 1790.0895,-182.8794"/>
</g>
<!-- Node29 -->
<g id="node29" class="node">
<title>Node29</title>
<g id="a_node29"><a xlink:href="../../d4/de9/Fun4All__AnaTutorial__sPHENIX_8C.html" target="_top" xlink:title="fun4all_tutorials/blob\l/master/AnaTutorial/macro\l/Fun4All_AnaTutorial_sPHENIX.C">
<polygon fill="none" stroke="#000000" points="2816.5,-81.5 2816.5,-125.5 2994.5,-125.5 2994.5,-81.5 2816.5,-81.5"/>
<text text-anchor="start" x="2824.5" y="-112.5" font-family="FreeSans" font-size="10.00" fill="#000000">fun4all_tutorials/blob</text>
<text text-anchor="start" x="2824.5" y="-100.5" font-family="FreeSans" font-size="10.00" fill="#000000">/master/AnaTutorial/macro</text>
<text text-anchor="middle" x="2905.5" y="-88.5" font-family="FreeSans" font-size="10.00" fill="#000000">/Fun4All_AnaTutorial_sPHENIX.C</text>
</a>
</g>
</g>
<!-- Node5&#45;&gt;Node29 -->
<g id="edge38" class="edge">
<title>Node5&#45;&gt;Node29</title>
<path fill="none" stroke="#191970" d="M1790.5291,-187.1059C2019.6502,-178.3396 2611.2099,-153.6824 2806.5,-126 2809.7285,-125.5424 2813.0074,-125.0334 2816.3125,-124.4828"/>
<polygon fill="#191970" stroke="#191970" points="1790.0837,-183.6202 1780.2243,-187.4988 1790.3505,-190.6151 1790.0837,-183.6202"/>
</g>
<!-- Node30 -->
<g id="node30" class="node">
<title>Node30</title>
<g id="a_node30"><a xlink:href="../../d6/d14/Fun4All__AnaTutorial__sPHENIX__Jets_8C.html" target="_top" xlink:title="fun4all_tutorials/blob\l/master/AnaTutorial/macro\l/Fun4All_AnaTutorial_sPHENIX_Jets.C">
<polygon fill="none" stroke="#000000" points="3013,-81.5 3013,-125.5 3214,-125.5 3214,-81.5 3013,-81.5"/>
<text text-anchor="start" x="3021" y="-112.5" font-family="FreeSans" font-size="10.00" fill="#000000">fun4all_tutorials/blob</text>
<text text-anchor="start" x="3021" y="-100.5" font-family="FreeSans" font-size="10.00" fill="#000000">/master/AnaTutorial/macro</text>
<text text-anchor="middle" x="3113.5" y="-88.5" font-family="FreeSans" font-size="10.00" fill="#000000">/Fun4All_AnaTutorial_sPHENIX_Jets.C</text>
</a>
</g>
</g>
<!-- Node5&#45;&gt;Node30 -->
<g id="edge39" class="edge">
<title>Node5&#45;&gt;Node30</title>
<path fill="none" stroke="#191970" d="M1790.2276,-187.7874C2046.7733,-179.9107 2768.2277,-155.7003 3003.5,-126 3006.5943,-125.6094 3009.7314,-125.1797 3012.8941,-124.7174"/>
<polygon fill="#191970" stroke="#191970" points="1790.0849,-184.29 1780.1966,-188.0943 1790.299,-191.2868 1790.0849,-184.29"/>
</g>
<!-- Node31 -->
<g id="node31" class="node">
<title>Node31</title>
<g id="a_node31"><a xlink:href="../../df/dd8/Fun4All__G4__EICDetector__AnaTutorial_8C.html" target="_top" xlink:title="fun4all_tutorials/blob\l/master/AnaTutorial/macro\l/Fun4All_G4_EICDetector_AnaTutorial.C">
<polygon fill="none" stroke="#000000" points="177,-.5 177,-44.5 392,-44.5 392,-.5 177,-.5"/>
<text text-anchor="start" x="185" y="-31.5" font-family="FreeSans" font-size="10.00" fill="#000000">fun4all_tutorials/blob</text>
<text text-anchor="start" x="185" y="-19.5" font-family="FreeSans" font-size="10.00" fill="#000000">/master/AnaTutorial/macro</text>
<text text-anchor="middle" x="284.5" y="-7.5" font-family="FreeSans" font-size="10.00" fill="#000000">/Fun4All_G4_EICDetector_AnaTutorial.C</text>
</a>
</g>
</g>
<!-- Node5&#45;&gt;Node31 -->
<g id="edge40" class="edge">
<title>Node5&#45;&gt;Node31</title>
<path fill="none" stroke="#191970" d="M1645.8428,-171.3278C1633.4262,-167.5591 1620.1252,-164.1196 1607.5,-162 1472.2238,-139.2886 497.3181,-185.0299 373.5,-126 337.5617,-108.8665 310.4633,-69.647 296.0798,-44.7081"/>
<polygon fill="#191970" stroke="#191970" points="1644.9915,-174.7292 1655.5813,-174.4017 1647.0987,-168.0539 1644.9915,-174.7292"/>
</g>
<!-- Node32 -->
<g id="node32" class="node">
<title>Node32</title>
<g id="a_node32"><a xlink:href="../../df/dd2/fun4all__tutorials_2blob_2master_2AnaTutorial_2macro_2G4Setup__EICDetector_8C.html" target="_top" xlink:title="fun4all_tutorials/blob\l/master/AnaTutorial/macro\l/G4Setup_EICDetector.C">
<polygon fill="none" stroke="#000000" points="150,-81.5 150,-125.5 301,-125.5 301,-81.5 150,-81.5"/>
<text text-anchor="start" x="158" y="-112.5" font-family="FreeSans" font-size="10.00" fill="#000000">fun4all_tutorials/blob</text>
<text text-anchor="start" x="158" y="-100.5" font-family="FreeSans" font-size="10.00" fill="#000000">/master/AnaTutorial/macro</text>
<text text-anchor="middle" x="225.5" y="-88.5" font-family="FreeSans" font-size="10.00" fill="#000000">/G4Setup_EICDetector.C</text>
</a>
</g>
</g>
<!-- Node5&#45;&gt;Node32 -->
<g id="edge41" class="edge">
<title>Node5&#45;&gt;Node32</title>
<path fill="none" stroke="#191970" d="M1645.8449,-171.3157C1633.4282,-167.5476 1620.1266,-164.1114 1607.5,-162 1040.9214,-67.2588 884.6082,-204.1216 315.5,-126 310.8727,-125.3648 306.1388,-124.5848 301.3819,-123.7009"/>
<polygon fill="#191970" stroke="#191970" points="1644.9935,-174.7171 1655.5833,-174.3898 1647.1007,-168.0418 1644.9935,-174.7171"/>
</g>
<!-- Node33 -->
<g id="node33" class="node">
<title>Node33</title>
<g id="a_node33"><a xlink:href="../../d2/dbf/fun4all__tutorials_2blob_2master_2materialscan_2Fun4All__G4__sPHENIX_8C.html" target="_top" xlink:title="fun4all_tutorials/blob\l/master/materialscan/Fun4All\l_G4_sPHENIX.C">
<polygon fill="none" stroke="#000000" points="3232,-81.5 3232,-125.5 3397,-125.5 3397,-81.5 3232,-81.5"/>
<text text-anchor="start" x="3240" y="-112.5" font-family="FreeSans" font-size="10.00" fill="#000000">fun4all_tutorials/blob</text>
<text text-anchor="start" x="3240" y="-100.5" font-family="FreeSans" font-size="10.00" fill="#000000">/master/materialscan/Fun4All</text>
<text text-anchor="middle" x="3314.5" y="-88.5" font-family="FreeSans" font-size="10.00" fill="#000000">_G4_sPHENIX.C</text>
</a>
</g>
</g>
<!-- Node5&#45;&gt;Node33 -->
<g id="edge44" class="edge">
<title>Node5&#45;&gt;Node33</title>
<path fill="none" stroke="#191970" d="M1790.4332,-188.9905C2075.7409,-183.9302 2943.6016,-165.6094 3222.5,-126 3225.5931,-125.5607 3228.7339,-125.0627 3231.8982,-124.5171"/>
<polygon fill="#191970" stroke="#191970" points="1790.0617,-185.4964 1780.1249,-189.172 1790.185,-192.4953 1790.0617,-185.4964"/>
</g>
<!-- Node8&#45;&gt;Node7 -->
<g id="edge8" class="edge">
<title>Node8&#45;&gt;Node7</title>
<path fill="none" stroke="#191970" d="M479.473,-71.2457C481.1275,-62.3118 482.8854,-52.8188 484.4061,-44.6068"/>
<polygon fill="#191970" stroke="#191970" points="475.9783,-70.8962 477.5988,-81.3664 482.8613,-72.1709 475.9783,-70.8962"/>
</g>
<!-- Node11&#45;&gt;Node10 -->
<g id="edge12" class="edge">
<title>Node11&#45;&gt;Node10</title>
<path fill="none" stroke="#191970" d="M830.0272,-72.986C823.3909,-63.5554 816.2123,-53.3544 810.0567,-44.6068"/>
<polygon fill="#191970" stroke="#191970" points="827.3072,-75.2026 835.9245,-81.3664 833.0319,-71.1741 827.3072,-75.2026"/>
</g>
<!-- Node15&#45;&gt;Node14 -->
<g id="edge17" class="edge">
<title>Node15&#45;&gt;Node14</title>
<path fill="none" stroke="#191970" d="M1340.4728,-77.4832C1315.5474,-66.8571 1287.0285,-54.699 1263.1571,-44.5222"/>
<polygon fill="#191970" stroke="#191970" points="1339.2611,-80.7713 1349.8326,-81.4734 1342.0063,-74.332 1339.2611,-80.7713"/>
</g>
<!-- Node16&#45;&gt;Node17 -->
<g id="edge19" class="edge">
<title>Node16&#45;&gt;Node17</title>
<path fill="none" stroke="#191970" d="M1572.9269,-77.6235C1546.7392,-66.9642 1516.7163,-54.7438 1491.604,-44.5222"/>
<polygon fill="#191970" stroke="#191970" points="1571.8036,-80.9451 1582.3852,-81.4734 1574.4426,-74.4616 1571.8036,-80.9451"/>
</g>
<!-- Node24&#45;&gt;Node18 -->
<g id="edge28" class="edge">
<title>Node24&#45;&gt;Node18</title>
<path fill="none" stroke="#191970" d="M1855.6185,-82.8384C1812.8827,-71.8961 1759.7839,-58.0521 1712.5,-45 1709.815,-44.2588 1707.0796,-43.4962 1704.3179,-42.7198"/>
<polygon fill="#191970" stroke="#191970" points="1854.8536,-86.2554 1865.4089,-85.3409 1856.5871,-79.4734 1854.8536,-86.2554"/>
</g>
<!-- Node24&#45;&gt;Node19 -->
<g id="edge29" class="edge">
<title>Node24&#45;&gt;Node19</title>
<path fill="none" stroke="#191970" d="M1888.3396,-76.4116C1869.5814,-66.0754 1848.4389,-54.4255 1830.6198,-44.6068"/>
<polygon fill="#191970" stroke="#191970" points="1886.8841,-79.6057 1897.3316,-81.3664 1890.2623,-73.4749 1886.8841,-79.6057"/>
</g>
<!-- Node24&#45;&gt;Node20 -->
<g id="edge30" class="edge">
<title>Node24&#45;&gt;Node20</title>
<path fill="none" stroke="#191970" d="M1940.6856,-71.2457C1941.568,-62.3118 1942.5055,-52.8188 1943.3166,-44.6068"/>
<polygon fill="#191970" stroke="#191970" points="1937.1859,-71.0708 1939.686,-81.3664 1944.152,-71.7588 1937.1859,-71.0708"/>
</g>
<!-- Node24&#45;&gt;Node21 -->
<g id="edge31" class="edge">
<title>Node24&#45;&gt;Node21</title>
<path fill="none" stroke="#191970" d="M1991.1618,-76.8337C2012.1711,-66.3935 2035.9854,-54.5594 2056.0134,-44.6068"/>
<polygon fill="#191970" stroke="#191970" points="1989.4381,-73.7819 1982.0405,-81.3664 1992.5533,-80.0505 1989.4381,-73.7819"/>
</g>
<!-- Node24&#45;&gt;Node22 -->
<g id="edge32" class="edge">
<title>Node24&#45;&gt;Node22</title>
<path fill="none" stroke="#191970" d="M2019.6506,-84.3724C2066.1009,-73.3327 2125.1802,-58.9161 2177.5,-45 2180.4965,-44.203 2183.5539,-43.3768 2186.6398,-42.5323"/>
<polygon fill="#191970" stroke="#191970" points="2018.5601,-81.0338 2009.6373,-86.7464 2020.1751,-87.845 2018.5601,-81.0338"/>
</g>
<!-- Node24&#45;&gt;Node23 -->
<g id="edge33" class="edge">
<title>Node24&#45;&gt;Node23</title>
<path fill="none" stroke="#191970" d="M2019.813,-91.9096C2126.5474,-76.7875 2302.6397,-51.4874 2332.5,-45 2335.53,-44.3417 2338.6152,-43.6304 2341.7238,-42.88"/>
<polygon fill="#191970" stroke="#191970" points="2019.1182,-88.473 2009.7076,-93.3403 2020.0995,-95.4039 2019.1182,-88.473"/>
</g>
<!-- Node32&#45;&gt;Node6 -->
<g id="edge42" class="edge">
<title>Node32&#45;&gt;Node6</title>
<path fill="none" stroke="#191970" d="M176.8239,-76.4948C154.2494,-63.9705 128.171,-49.5024 108.6944,-38.6969"/>
<polygon fill="#191970" stroke="#191970" points="175.1625,-79.5755 185.6049,-81.3664 178.5584,-73.4545 175.1625,-79.5755"/>
</g>
<!-- Node32&#45;&gt;Node31 -->
<g id="edge43" class="edge">
<title>Node32&#45;&gt;Node31</title>
<path fill="none" stroke="#191970" d="M247.5161,-73.2745C254.4437,-63.7638 261.9608,-53.4436 268.3975,-44.6068"/>
<polygon fill="#191970" stroke="#191970" points="244.6806,-71.2226 241.622,-81.3664 250.3388,-75.344 244.6806,-71.2226"/>
</g>
</g>
</svg>
