<?xml version="1.0" encoding="UTF-8" standalone="no"?>
<!DOCTYPE svg PUBLIC "-//W3C//DTD SVG 1.1//EN"
 "http://www.w3.org/Graphics/SVG/1.1/DTD/svg11.dtd">
<!-- Generated by graphviz version 2.40.1 (20161225.0304)
 -->
<!-- Title: EicMagneticFieldGrad::GetFieldValue Pages: 1 -->
<svg width="766pt" height="143pt"
 viewBox="0.00 0.00 766.00 143.00" xmlns="http://www.w3.org/2000/svg" xmlns:xlink="http://www.w3.org/1999/xlink">
<g id="graph0" class="graph" transform="scale(1 1) rotate(0) translate(4 139)">
<title>EicMagneticFieldGrad::GetFieldValue</title>
<!-- Node1 -->
<g id="node1" class="node">
<title>Node1</title>
<polygon fill="#bfbfbf" stroke="#000000" points="0,-76.5 0,-108.5 125,-108.5 125,-76.5 0,-76.5"/>
<text text-anchor="start" x="8" y="-95.5" font-family="FreeSans" font-size="10.00" fill="#000000">EicMagneticFieldGrad</text>
<text text-anchor="middle" x="62.5" y="-83.5" font-family="FreeSans" font-size="10.00" fill="#000000">::GetFieldValue</text>
</g>
<!-- Node2 -->
<g id="node2" class="node">
<title>Node2</title>
<g id="a_node2"><a xlink:href="../../df/d09/classEicMagneticFieldFromGradients.html#a2ede16fd577fc083bdf57eebd5c8e13b" target="_top" xlink:title="EicMagneticFieldFromGradients\l::GetFieldSumValue">
<polygon fill="none" stroke="#000000" points="161,-76.5 161,-108.5 336,-108.5 336,-76.5 161,-76.5"/>
<text text-anchor="start" x="169" y="-95.5" font-family="FreeSans" font-size="10.00" fill="#000000">EicMagneticFieldFromGradients</text>
<text text-anchor="middle" x="248.5" y="-83.5" font-family="FreeSans" font-size="10.00" fill="#000000">::GetFieldSumValue</text>
</a>
</g>
</g>
<!-- Node1&#45;&gt;Node2 -->
<g id="edge1" class="edge">
<title>Node1&#45;&gt;Node2</title>
<path fill="none" stroke="#191970" d="M135.3347,-92.5C143.7438,-92.5 152.3839,-92.5 160.9619,-92.5"/>
<polygon fill="#191970" stroke="#191970" points="135.2118,-89.0001 125.2118,-92.5 135.2118,-96.0001 135.2118,-89.0001"/>
</g>
<!-- Node3 -->
<g id="node3" class="node">
<title>Node3</title>
<g id="a_node3"><a xlink:href="../../df/d09/classEicMagneticFieldFromGradients.html#ac679c82903408789e6a936ec7d55c741" target="_top" xlink:title="EicMagneticFieldFromGradients\l::GetBxyz">
<polygon fill="none" stroke="#000000" points="372,-102.5 372,-134.5 547,-134.5 547,-102.5 372,-102.5"/>
<text text-anchor="start" x="380" y="-121.5" font-family="FreeSans" font-size="10.00" fill="#000000">EicMagneticFieldFromGradients</text>
<text text-anchor="middle" x="459.5" y="-109.5" font-family="FreeSans" font-size="10.00" fill="#000000">::GetBxyz</text>
</a>
</g>
</g>
<!-- Node2&#45;&gt;Node3 -->
<g id="edge2" class="edge">
<title>Node2&#45;&gt;Node3</title>
<path fill="none" stroke="#191970" d="M346.1445,-104.532C354.697,-105.5859 363.3188,-106.6483 371.7833,-107.6913"/>
<polygon fill="#191970" stroke="#191970" points="346.5029,-101.0498 336.1499,-103.3005 345.6468,-107.9973 346.5029,-101.0498"/>
</g>
<!-- Node4 -->
<g id="node4" class="node">
<title>Node4</title>
<g id="a_node4"><a xlink:href="../../df/d09/classEicMagneticFieldFromGradients.html#a107d38331a880bc51316c15409676eae" target="_top" xlink:title="EicMagneticFieldFromGradients\l::GetBxyzCore">
<polygon fill="none" stroke="#000000" points="372,-51.5 372,-83.5 547,-83.5 547,-51.5 372,-51.5"/>
<text text-anchor="start" x="380" y="-70.5" font-family="FreeSans" font-size="10.00" fill="#000000">EicMagneticFieldFromGradients</text>
<text text-anchor="middle" x="459.5" y="-58.5" font-family="FreeSans" font-size="10.00" fill="#000000">::GetBxyzCore</text>
</a>
</g>
</g>
<!-- Node2&#45;&gt;Node4 -->
<g id="edge3" class="edge">
<title>Node2&#45;&gt;Node4</title>
<path fill="none" stroke="#191970" d="M346.1445,-80.9307C354.697,-79.9174 363.3188,-78.8959 371.7833,-77.893"/>
<polygon fill="#191970" stroke="#191970" points="345.6686,-77.4626 336.1499,-82.1149 346.4923,-84.4139 345.6686,-77.4626"/>
</g>
<!-- Node5 -->
<g id="node5" class="node">
<title>Node5</title>
<g id="a_node5"><a xlink:href="../../df/d09/classEicMagneticFieldFromGradients.html#abd557acaae6036d2f7f853a2ffcb1eab" target="_top" xlink:title="EicMagneticFieldFromGradients\l::GetBx">
<polygon fill="none" stroke="#000000" points="583,-102.5 583,-134.5 758,-134.5 758,-102.5 583,-102.5"/>
<text text-anchor="start" x="591" y="-121.5" font-family="FreeSans" font-size="10.00" fill="#000000">EicMagneticFieldFromGradients</text>
<text text-anchor="middle" x="670.5" y="-109.5" font-family="FreeSans" font-size="10.00" fill="#000000">::GetBx</text>
</a>
</g>
</g>
<!-- Node4&#45;&gt;Node5 -->
<g id="edge4" class="edge">
<title>Node4&#45;&gt;Node5</title>
<path fill="none" stroke="#191970" d="M535.749,-85.9298C558.0852,-91.3287 582.3209,-97.1866 603.9996,-102.4264"/>
<polygon fill="#191970" stroke="#191970" points="536.5145,-82.5142 525.9721,-83.5667 534.8699,-89.3182 536.5145,-82.5142"/>
</g>
<!-- Node6 -->
<g id="node6" class="node">
<title>Node6</title>
<g id="a_node6"><a xlink:href="../../df/d09/classEicMagneticFieldFromGradients.html#af9d942b89889c02e38eec1bc26b876a3" target="_top" xlink:title="EicMagneticFieldFromGradients\l::GetBy">
<polygon fill="none" stroke="#000000" points="583,-51.5 583,-83.5 758,-83.5 758,-51.5 583,-51.5"/>
<text text-anchor="start" x="591" y="-70.5" font-family="FreeSans" font-size="10.00" fill="#000000">EicMagneticFieldFromGradients</text>
<text text-anchor="middle" x="670.5" y="-58.5" font-family="FreeSans" font-size="10.00" fill="#000000">::GetBy</text>
</a>
</g>
</g>
<!-- Node4&#45;&gt;Node6 -->
<g id="edge5" class="edge">
<title>Node4&#45;&gt;Node6</title>
<path fill="none" stroke="#191970" d="M557.4234,-67.5C565.8845,-67.5 574.4108,-67.5 582.7833,-67.5"/>
<polygon fill="#191970" stroke="#191970" points="557.15,-64.0001 547.1499,-67.5 557.1499,-71.0001 557.15,-64.0001"/>
</g>
<!-- Node7 -->
<g id="node7" class="node">
<title>Node7</title>
<g id="a_node7"><a xlink:href="../../df/d09/classEicMagneticFieldFromGradients.html#a257c164a6739c70588986e58d5d9ed57" target="_top" xlink:title="EicMagneticFieldFromGradients\l::GetBz">
<polygon fill="none" stroke="#000000" points="583,-.5 583,-32.5 758,-32.5 758,-.5 583,-.5"/>
<text text-anchor="start" x="591" y="-19.5" font-family="FreeSans" font-size="10.00" fill="#000000">EicMagneticFieldFromGradients</text>
<text text-anchor="middle" x="670.5" y="-7.5" font-family="FreeSans" font-size="10.00" fill="#000000">::GetBz</text>
</a>
</g>
</g>
<!-- Node4&#45;&gt;Node7 -->
<g id="edge6" class="edge">
<title>Node4&#45;&gt;Node7</title>
<path fill="none" stroke="#191970" d="M535.749,-49.0702C558.0852,-43.6713 582.3209,-37.8134 603.9996,-32.5736"/>
<polygon fill="#191970" stroke="#191970" points="534.8699,-45.6818 525.9721,-51.4333 536.5145,-52.4858 534.8699,-45.6818"/>
</g>
</g>
</svg>
