<?xml version="1.0" encoding="UTF-8" standalone="no"?>
<!DOCTYPE svg PUBLIC "-//W3C//DTD SVG 1.1//EN"
 "http://www.w3.org/Graphics/SVG/1.1/DTD/svg11.dtd">
<!-- Generated by graphviz version 2.40.1 (20161225.0304)
 -->
<!-- Title: PHG4Reco::InitField Pages: 1 -->
<svg width="674pt" height="482pt"
 viewBox="0.00 0.00 674.00 482.00" xmlns="http://www.w3.org/2000/svg" xmlns:xlink="http://www.w3.org/1999/xlink">
<g id="graph0" class="graph" transform="scale(1 1) rotate(0) translate(4 478)">
<title>PHG4Reco::InitField</title>
<!-- Node1 -->
<g id="node1" class="node">
<title>Node1</title>
<polygon fill="#bfbfbf" stroke="#000000" points="0,-277.5 0,-297.5 115,-297.5 115,-277.5 0,-277.5"/>
<text text-anchor="middle" x="57.5" y="-284.5" font-family="FreeSans" font-size="10.00" fill="#000000">PHG4Reco::InitField</text>
</g>
<!-- Node2 -->
<g id="node2" class="node">
<title>Node2</title>
<g id="a_node2"><a xlink:href="../../d0/d78/classPHG4Reco.html#a9d8228ce8682c19cd6be2f6b44ec847b" target="_top" xlink:title="PHG4Reco::InitRun">
<polygon fill="none" stroke="#000000" points="151,-277.5 151,-297.5 261,-297.5 261,-277.5 151,-277.5"/>
<text text-anchor="middle" x="206" y="-284.5" font-family="FreeSans" font-size="10.00" fill="#000000">PHG4Reco::InitRun</text>
</a>
</g>
</g>
<!-- Node1&#45;&gt;Node2 -->
<g id="edge1" class="edge">
<title>Node1&#45;&gt;Node2</title>
<path fill="none" stroke="#191970" d="M125.3425,-287.5C133.9327,-287.5 142.6381,-287.5 150.9942,-287.5"/>
<polygon fill="#191970" stroke="#191970" points="125.3392,-284.0001 115.3392,-287.5 125.3392,-291.0001 125.3392,-284.0001"/>
</g>
<!-- Node3 -->
<g id="node3" class="node">
<title>Node3</title>
<g id="a_node3"><a xlink:href="../../d3/d42/Fun4All__G4__QtDisplay_8C.html#a7fc9d96420ef1de5f1fc43a1657ac8bf" target="_top" xlink:title="Fun4All_G4_QtDisplay">
<polygon fill="none" stroke="#000000" points="309.5,-406.5 309.5,-426.5 436.5,-426.5 436.5,-406.5 309.5,-406.5"/>
<text text-anchor="middle" x="373" y="-413.5" font-family="FreeSans" font-size="10.00" fill="#000000">Fun4All_G4_QtDisplay</text>
</a>
</g>
</g>
<!-- Node2&#45;&gt;Node3 -->
<g id="edge2" class="edge">
<title>Node2&#45;&gt;Node3</title>
<path fill="none" stroke="#191970" d="M216.3739,-306.3347C231.0288,-331.1298 260.1621,-374.2857 297,-397.5 302.7532,-401.1255 309.1582,-404.0596 315.741,-406.4341"/>
<polygon fill="#191970" stroke="#191970" points="219.3302,-304.4541 211.3191,-297.5207 213.2579,-307.9366 219.3302,-304.4541"/>
</g>
<!-- Node4 -->
<g id="node4" class="node">
<title>Node4</title>
<g id="a_node4"><a xlink:href="../../d7/da9/Fun4All__G4__Tracking_8C.html#acaee55add6a4a54eb182c6120db9649a" target="_top" xlink:title="Fun4All_G4_Tracking">
<polygon fill="none" stroke="#000000" points="313,-367.5 313,-387.5 433,-387.5 433,-367.5 313,-367.5"/>
<text text-anchor="middle" x="373" y="-374.5" font-family="FreeSans" font-size="10.00" fill="#000000">Fun4All_G4_Tracking</text>
</a>
</g>
</g>
<!-- Node2&#45;&gt;Node4 -->
<g id="edge3" class="edge">
<title>Node2&#45;&gt;Node4</title>
<path fill="none" stroke="#191970" d="M223.5277,-304.8726C240.8094,-321.0497 268.6757,-344.6858 297,-358.5 304.3345,-362.0771 312.4057,-365.0212 320.4655,-367.4324"/>
<polygon fill="#191970" stroke="#191970" points="225.582,-301.9939 215.9385,-297.606 220.7409,-307.05 225.582,-301.9939"/>
</g>
<!-- Node5 -->
<g id="node5" class="node">
<title>Node5</title>
<g id="a_node5"><a xlink:href="../../d5/df2/Fun4All__EIC__Generator__Display_8C.html#a276181099936efe81415286b29f36e51" target="_top" xlink:title="Fun4All_EIC_Generator\l_Display">
<polygon fill="none" stroke="#000000" points="307,-316.5 307,-348.5 439,-348.5 439,-316.5 307,-316.5"/>
<text text-anchor="start" x="315" y="-335.5" font-family="FreeSans" font-size="10.00" fill="#000000">Fun4All_EIC_Generator</text>
<text text-anchor="middle" x="373" y="-323.5" font-family="FreeSans" font-size="10.00" fill="#000000">_Display</text>
</a>
</g>
</g>
<!-- Node2&#45;&gt;Node5 -->
<g id="edge4" class="edge">
<title>Node2&#45;&gt;Node5</title>
<path fill="none" stroke="#191970" d="M253.2325,-300.2273C271.9178,-305.2623 293.6105,-311.1076 313.3594,-316.4292"/>
<polygon fill="#191970" stroke="#191970" points="254.0443,-296.8213 243.4781,-297.5989 252.223,-303.5802 254.0443,-296.8213"/>
</g>
<!-- Node6 -->
<g id="node6" class="node">
<title>Node6</title>
<g id="a_node6"><a xlink:href="../../d6/db7/fun4all__eicmacros_2blob_2master_2detectors_2AllSilicon_2DisplayOn_8C.html#a36f5cc4ebb7cd23dac7e492d5c38fbc0" target="_top" xlink:title="QTGui">
<polygon fill="none" stroke="#000000" points="349.5,-277.5 349.5,-297.5 396.5,-297.5 396.5,-277.5 349.5,-277.5"/>
<text text-anchor="middle" x="373" y="-284.5" font-family="FreeSans" font-size="10.00" fill="#000000">QTGui</text>
</a>
</g>
</g>
<!-- Node2&#45;&gt;Node6 -->
<g id="edge5" class="edge">
<title>Node2&#45;&gt;Node6</title>
<path fill="none" stroke="#191970" d="M271.468,-287.5C298.8173,-287.5 328.8768,-287.5 349.1382,-287.5"/>
<polygon fill="#191970" stroke="#191970" points="271.1449,-284.0001 261.1449,-287.5 271.1448,-291.0001 271.1449,-284.0001"/>
</g>
<!-- Node7 -->
<g id="node7" class="node">
<title>Node7</title>
<g id="a_node7"><a xlink:href="../../d6/db7/fun4all__eicmacros_2blob_2master_2detectors_2AllSilicon_2DisplayOn_8C.html#a8ac4d6fb78f920957b354f88d6195f54" target="_top" xlink:title="DisplayOn">
<polygon fill="none" stroke="#000000" points="339,-238.5 339,-258.5 407,-258.5 407,-238.5 339,-238.5"/>
<text text-anchor="middle" x="373" y="-245.5" font-family="FreeSans" font-size="10.00" fill="#000000">DisplayOn</text>
</a>
</g>
</g>
<!-- Node2&#45;&gt;Node7 -->
<g id="edge6" class="edge">
<title>Node2&#45;&gt;Node7</title>
<path fill="none" stroke="#191970" d="M258.7794,-275.1743C284.9436,-269.0641 315.784,-261.8618 338.8194,-256.4823"/>
<polygon fill="#191970" stroke="#191970" points="257.9487,-271.774 249.0066,-277.4565 259.5406,-278.5906 257.9487,-271.774"/>
</g>
<!-- Node20 -->
<g id="node20" class="node">
<title>Node20</title>
<g id="a_node20"><a xlink:href="../../d4/dfa/Fun4All__Generator__Display_8C.html#af87924a94b22e18901f0d64805565f09" target="_top" xlink:title="Fun4All_Generator_Display">
<polygon fill="none" stroke="#000000" points="297,-199.5 297,-219.5 449,-219.5 449,-199.5 297,-199.5"/>
<text text-anchor="middle" x="373" y="-206.5" font-family="FreeSans" font-size="10.00" fill="#000000">Fun4All_Generator_Display</text>
</a>
</g>
</g>
<!-- Node2&#45;&gt;Node20 -->
<g id="edge19" class="edge">
<title>Node2&#45;&gt;Node20</title>
<path fill="none" stroke="#191970" d="M227.2972,-271.2201C245.09,-258.3028 271.5675,-240.6258 297,-229.5 305.9999,-225.5628 315.9491,-222.2583 325.6017,-219.542"/>
<polygon fill="#191970" stroke="#191970" points="224.7925,-268.7195 218.8359,-277.4813 228.9564,-274.3464 224.7925,-268.7195"/>
</g>
<!-- Node21 -->
<g id="node21" class="node">
<title>Node21</title>
<g id="a_node21"><a xlink:href="../../dd/d94/fun4all__tutorials_2blob_2master_2materialscan_2matscan_8C.html#a98ccbc6135fead542f3c4d1dd6882d63" target="_top" xlink:title="matscan">
<polygon fill="none" stroke="#000000" points="343.5,-160.5 343.5,-180.5 402.5,-180.5 402.5,-160.5 343.5,-160.5"/>
<text text-anchor="middle" x="373" y="-167.5" font-family="FreeSans" font-size="10.00" fill="#000000">matscan</text>
</a>
</g>
</g>
<!-- Node2&#45;&gt;Node21 -->
<g id="edge20" class="edge">
<title>Node2&#45;&gt;Node21</title>
<path fill="none" stroke="#191970" d="M218.5613,-268.7193C234.2987,-246.6677 263.3265,-210.5621 297,-190.5 311.0653,-182.1201 328.6436,-177.2018 343.351,-174.3412"/>
<polygon fill="#191970" stroke="#191970" points="215.4857,-267.012 212.6555,-277.2218 221.2349,-271.0053 215.4857,-267.012"/>
</g>
<!-- Node8 -->
<g id="node8" class="node">
<title>Node8</title>
<g id="a_node8"><a xlink:href="../../db/dc0/Fun4All__AnaTutorial_8C.html#aeb927fc74810ef9bc0c056302f1fbe69" target="_top" xlink:title="Fun4All_AnaTutorial">
<polygon fill="none" stroke="#000000" points="518,-453.5 518,-473.5 633,-473.5 633,-453.5 518,-453.5"/>
<text text-anchor="middle" x="575.5" y="-460.5" font-family="FreeSans" font-size="10.00" fill="#000000">Fun4All_AnaTutorial</text>
</a>
</g>
</g>
<!-- Node7&#45;&gt;Node8 -->
<g id="edge7" class="edge">
<title>Node7&#45;&gt;Node8</title>
<path fill="none" stroke="#191970" d="M417.152,-251.6607C428.9108,-254.5662 440.6497,-259.6723 449,-268.5 503.8667,-326.5031 428.6896,-387.8974 485,-444.5 493.8317,-453.3776 505.6831,-458.6092 517.8942,-461.5925"/>
<polygon fill="#191970" stroke="#191970" points="417.8352,-248.2282 407.3437,-249.7043 416.4658,-255.0929 417.8352,-248.2282"/>
</g>
<!-- Node9 -->
<g id="node9" class="node">
<title>Node9</title>
<g id="a_node9"><a xlink:href="../../dd/d28/Fun4All__AnaTutorial__Jets_8C.html#a49f0c60dbca7146b42abc2eedf173722" target="_top" xlink:title="Fun4All_AnaTutorial_Jets">
<polygon fill="none" stroke="#000000" points="506,-414.5 506,-434.5 645,-434.5 645,-414.5 506,-414.5"/>
<text text-anchor="middle" x="575.5" y="-421.5" font-family="FreeSans" font-size="10.00" fill="#000000">Fun4All_AnaTutorial_Jets</text>
</a>
</g>
</g>
<!-- Node7&#45;&gt;Node9 -->
<g id="edge8" class="edge">
<title>Node7&#45;&gt;Node9</title>
<path fill="none" stroke="#191970" d="M417.1978,-252.047C428.8332,-254.9722 440.4951,-259.9921 449,-268.5 493.5086,-313.0246 439.384,-362.1107 485,-405.5 490.9326,-411.143 498.0932,-415.2917 505.757,-418.3175"/>
<polygon fill="#191970" stroke="#191970" points="417.5572,-248.5484 407.0596,-249.9806 416.1591,-255.4074 417.5572,-248.5484"/>
</g>
<!-- Node10 -->
<g id="node10" class="node">
<title>Node10</title>
<g id="a_node10"><a xlink:href="../../d8/d14/Fun4All__G4__Babar_8C.html#ae3babc7f493f8a671f129ef3084ebc23" target="_top" xlink:title="Fun4All_G4_Babar">
<polygon fill="none" stroke="#000000" points="521,-375.5 521,-395.5 630,-395.5 630,-375.5 521,-375.5"/>
<text text-anchor="middle" x="575.5" y="-382.5" font-family="FreeSans" font-size="10.00" fill="#000000">Fun4All_G4_Babar</text>
</a>
</g>
</g>
<!-- Node7&#45;&gt;Node10 -->
<g id="edge9" class="edge">
<title>Node7&#45;&gt;Node10</title>
<path fill="none" stroke="#191970" d="M417.301,-252.7368C428.7283,-255.6874 440.2565,-260.5478 449,-268.5 483.3273,-299.7206 449.8972,-336.154 485,-366.5 494.959,-375.1095 507.8234,-380.1529 520.71,-383.0315"/>
<polygon fill="#191970" stroke="#191970" points="417.8687,-249.2791 407.3573,-250.6058 416.4018,-256.1236 417.8687,-249.2791"/>
</g>
<!-- Node11 -->
<g id="node11" class="node">
<title>Node11</title>
<g id="a_node11"><a xlink:href="../../df/d9d/fun4all__eicmacros_2blob_2master_2detectors_2Beast_2Fun4All__G4__Beast_8C.html#aa12a55b170fc12d7549cea7cc497eb38" target="_top" xlink:title="Fun4All_G4_Beast">
<polygon fill="none" stroke="#000000" points="522,-336.5 522,-356.5 629,-356.5 629,-336.5 522,-336.5"/>
<text text-anchor="middle" x="575.5" y="-343.5" font-family="FreeSans" font-size="10.00" fill="#000000">Fun4All_G4_Beast</text>
</a>
</g>
</g>
<!-- Node7&#45;&gt;Node11 -->
<g id="edge10" class="edge">
<title>Node7&#45;&gt;Node11</title>
<path fill="none" stroke="#191970" d="M417.2875,-254.1596C428.407,-257.1247 439.7844,-261.6367 449,-268.5 473.6365,-286.8479 459.9091,-309.7785 485,-327.5 495.7529,-335.0947 508.9026,-339.7735 521.8103,-342.6251"/>
<polygon fill="#191970" stroke="#191970" points="417.7473,-250.6742 407.2177,-251.8484 416.1813,-257.4968 417.7473,-250.6742"/>
</g>
<!-- Node12 -->
<g id="node12" class="node">
<title>Node12</title>
<g id="a_node12"><a xlink:href="../../de/dcc/Fun4All__G4__Cleo_8C.html#ae4d584d6f7864ddc358a5cb1bf03bfa5" target="_top" xlink:title="Fun4All_G4_Cleo">
<polygon fill="none" stroke="#000000" points="525.5,-297.5 525.5,-317.5 625.5,-317.5 625.5,-297.5 525.5,-297.5"/>
<text text-anchor="middle" x="575.5" y="-304.5" font-family="FreeSans" font-size="10.00" fill="#000000">Fun4All_G4_Cleo</text>
</a>
</g>
</g>
<!-- Node7&#45;&gt;Node12 -->
<g id="edge11" class="edge">
<title>Node7&#45;&gt;Node12</title>
<path fill="none" stroke="#191970" d="M417.1843,-258.135C427.7735,-260.9867 438.9271,-264.4509 449,-268.5 465.9826,-275.3267 467.8508,-282.1033 485,-288.5 497.7857,-293.2691 512.058,-296.9659 525.4202,-299.7766"/>
<polygon fill="#191970" stroke="#191970" points="417.8144,-254.6833 407.2583,-255.5894 416.0754,-261.4639 417.8144,-254.6833"/>
</g>
<!-- Node13 -->
<g id="node13" class="node">
<title>Node13</title>
<g id="a_node13"><a xlink:href="../../d4/d91/fun4all__macros_2blob_2master_2detectors_2EICDetector_2Fun4All__G4__EICDetector_8C.html#add9dee08cdb08b59c0b3870bb04994d9" target="_top" xlink:title="Fun4All_G4_EICDetector">
<polygon fill="none" stroke="#000000" points="506,-258.5 506,-278.5 645,-278.5 645,-258.5 506,-258.5"/>
<text text-anchor="middle" x="575.5" y="-265.5" font-family="FreeSans" font-size="10.00" fill="#000000">Fun4All_G4_EICDetector</text>
</a>
</g>
</g>
<!-- Node7&#45;&gt;Node13 -->
<g id="edge12" class="edge">
<title>Node7&#45;&gt;Node13</title>
<path fill="none" stroke="#191970" d="M417.5786,-252.9028C443.3908,-255.4522 476.4516,-258.7174 505.6471,-261.6009"/>
<polygon fill="#191970" stroke="#191970" points="417.647,-249.3926 407.3514,-251.8927 416.9589,-256.3587 417.647,-249.3926"/>
</g>
<!-- Node14 -->
<g id="node14" class="node">
<title>Node14</title>
<g id="a_node14"><a xlink:href="../../d7/d9e/Fun4All__G4__fsPHENIX_8C.html#a75e8ef26e92f882a865536a3e16244c5" target="_top" xlink:title="Fun4All_G4_fsPHENIX">
<polygon fill="none" stroke="#000000" points="513.5,-219.5 513.5,-239.5 637.5,-239.5 637.5,-219.5 513.5,-219.5"/>
<text text-anchor="middle" x="575.5" y="-226.5" font-family="FreeSans" font-size="10.00" fill="#000000">Fun4All_G4_fsPHENIX</text>
</a>
</g>
</g>
<!-- Node7&#45;&gt;Node14 -->
<g id="edge13" class="edge">
<title>Node7&#45;&gt;Node14</title>
<path fill="none" stroke="#191970" d="M417.3156,-244.342C445.5061,-241.697 482.4208,-238.2334 513.4986,-235.3174"/>
<polygon fill="#191970" stroke="#191970" points="416.9806,-240.858 407.3514,-245.2769 417.6346,-247.8273 416.9806,-240.858"/>
</g>
<!-- Node15 -->
<g id="node15" class="node">
<title>Node15</title>
<g id="a_node15"><a xlink:href="../../d5/d97/Fun4All__G4__FullDetectorModular_8C.html#a3718da6a9c8edc72f231ee413c514dad" target="_top" xlink:title="Fun4All_G4_FullDetectorModular">
<polygon fill="none" stroke="#000000" points="485,-180.5 485,-200.5 666,-200.5 666,-180.5 485,-180.5"/>
<text text-anchor="middle" x="575.5" y="-187.5" font-family="FreeSans" font-size="10.00" fill="#000000">Fun4All_G4_FullDetectorModular</text>
</a>
</g>
</g>
<!-- Node7&#45;&gt;Node15 -->
<g id="edge14" class="edge">
<title>Node7&#45;&gt;Node15</title>
<path fill="none" stroke="#191970" d="M417.1345,-239.3743C427.7253,-236.6642 438.8921,-233.3659 449,-229.5 465.8979,-223.0371 468.0149,-216.7301 485,-210.5 495.7258,-206.5658 507.4633,-203.2755 518.8264,-200.5745"/>
<polygon fill="#191970" stroke="#191970" points="416.0978,-236.0244 407.2102,-241.7916 417.7544,-242.8255 416.0978,-236.0244"/>
</g>
<!-- Node16 -->
<g id="node16" class="node">
<title>Node16</title>
<g id="a_node16"><a xlink:href="../../d0/dce/Fun4All__G4__FullDetectorModularBeast_8C.html#a0f10ba4ce157df87369cfd776fc132d3" target="_top" xlink:title="Fun4All_G4_FullDetectorModular\lBeast">
<polygon fill="none" stroke="#000000" points="485,-129.5 485,-161.5 666,-161.5 666,-129.5 485,-129.5"/>
<text text-anchor="start" x="493" y="-148.5" font-family="FreeSans" font-size="10.00" fill="#000000">Fun4All_G4_FullDetectorModular</text>
<text text-anchor="middle" x="575.5" y="-136.5" font-family="FreeSans" font-size="10.00" fill="#000000">Beast</text>
</a>
</g>
</g>
<!-- Node7&#45;&gt;Node16 -->
<g id="edge15" class="edge">
<title>Node7&#45;&gt;Node16</title>
<path fill="none" stroke="#191970" d="M417.2352,-243.4332C428.355,-240.6144 439.7456,-236.2495 449,-229.5 473.5128,-211.6221 460.8018,-189.8014 485,-171.5 490.0849,-167.6542 495.7209,-164.3767 501.622,-161.5837"/>
<polygon fill="#191970" stroke="#191970" points="416.202,-240.0757 407.1684,-245.6113 417.6824,-246.9174 416.202,-240.0757"/>
</g>
<!-- Node17 -->
<g id="node17" class="node">
<title>Node17</title>
<g id="a_node17"><a xlink:href="../../d0/d87/Fun4All__G4__JLeic_8C.html#a7a87d035cddeb1ed64bf376560381994" target="_top" xlink:title="Fun4All_G4_JLeic">
<polygon fill="none" stroke="#000000" points="525,-90.5 525,-110.5 626,-110.5 626,-90.5 525,-90.5"/>
<text text-anchor="middle" x="575.5" y="-97.5" font-family="FreeSans" font-size="10.00" fill="#000000">Fun4All_G4_JLeic</text>
</a>
</g>
</g>
<!-- Node7&#45;&gt;Node17 -->
<g id="edge16" class="edge">
<title>Node7&#45;&gt;Node17</title>
<path fill="none" stroke="#191970" d="M417.1395,-245.1566C428.6686,-242.3685 440.2896,-237.5884 449,-229.5 486.3855,-194.7841 447.1411,-154.6989 485,-120.5 495.8659,-110.6846 510.4422,-105.3202 524.7181,-102.4826"/>
<polygon fill="#191970" stroke="#191970" points="416.2451,-241.7653 407.1071,-247.127 417.5942,-248.6341 416.2451,-241.7653"/>
</g>
<!-- Node18 -->
<g id="node18" class="node">
<title>Node18</title>
<g id="a_node18"><a xlink:href="../../d9/d73/fun4all__macros_2blob_2master_2detectors_2sPHENIX_2Fun4All__G4__sPHENIX_8C.html#a4102cd3e195333de974409428a2e6dae" target="_top" xlink:title="Fun4All_G4_sPHENIX">
<polygon fill="none" stroke="#000000" points="515,-51.5 515,-71.5 636,-71.5 636,-51.5 515,-51.5"/>
<text text-anchor="middle" x="575.5" y="-58.5" font-family="FreeSans" font-size="10.00" fill="#000000">Fun4All_G4_sPHENIX</text>
</a>
</g>
</g>
<!-- Node7&#45;&gt;Node18 -->
<g id="edge17" class="edge">
<title>Node7&#45;&gt;Node18</title>
<path fill="none" stroke="#191970" d="M417.2654,-245.6769C428.9019,-242.9072 440.5475,-238.0065 449,-229.5 496.7154,-181.4797 436.6293,-128.8602 485,-81.5 493.1632,-73.5073 503.7596,-68.4097 514.8116,-65.2161"/>
<polygon fill="#191970" stroke="#191970" points="416.2955,-242.2984 407.1222,-247.5994 417.5991,-249.1759 416.2955,-242.2984"/>
</g>
<!-- Node19 -->
<g id="node19" class="node">
<title>Node19</title>
<g id="a_node19"><a xlink:href="../../d3/d2b/Fun4All__G4__sPHENIX__particle__gen_8C.html#a381adc702b7bfb99356660cdb6407e70" target="_top" xlink:title="Fun4All_G4_sPHENIX\l_particle_gen">
<polygon fill="none" stroke="#000000" points="515,-.5 515,-32.5 636,-32.5 636,-.5 515,-.5"/>
<text text-anchor="start" x="523" y="-19.5" font-family="FreeSans" font-size="10.00" fill="#000000">Fun4All_G4_sPHENIX</text>
<text text-anchor="middle" x="575.5" y="-7.5" font-family="FreeSans" font-size="10.00" fill="#000000">_particle_gen</text>
</a>
</g>
</g>
<!-- Node7&#45;&gt;Node19 -->
<g id="edge18" class="edge">
<title>Node7&#45;&gt;Node19</title>
<path fill="none" stroke="#191970" d="M417.5341,-245.9375C429.1752,-243.1722 440.7559,-238.2086 449,-229.5 507.1857,-168.0355 427.8919,-104.967 485,-42.5 492.9418,-33.813 503.575,-27.9558 514.7575,-24.0238"/>
<polygon fill="#191970" stroke="#191970" points="416.5559,-242.5598 407.3709,-247.8406 417.8443,-249.4402 416.5559,-242.5598"/>
</g>
</g>
</svg>
