<?xml version="1.0" encoding="UTF-8" standalone="no"?>
<!DOCTYPE svg PUBLIC "-//W3C//DTD SVG 1.1//EN"
 "http://www.w3.org/Graphics/SVG/1.1/DTD/svg11.dtd">
<!-- Generated by graphviz version 2.40.1 (20161225.0304)
 -->
<!-- Title: matrix Pages: 1 -->
<svg width="683pt" height="624pt"
 viewBox="0.00 0.00 683.00 624.00" xmlns="http://www.w3.org/2000/svg" xmlns:xlink="http://www.w3.org/1999/xlink">
<g id="graph0" class="graph" transform="scale(1 1) rotate(0) translate(4 620)">
<title>matrix</title>
<!-- Node1 -->
<g id="node1" class="node">
<title>Node1</title>
<polygon fill="#bfbfbf" stroke="#000000" points="0,-330.5 0,-350.5 49,-350.5 49,-330.5 0,-330.5"/>
<text text-anchor="middle" x="24.5" y="-337.5" font-family="FreeSans" font-size="10.00" fill="#000000">matrix</text>
</g>
<!-- Node2 -->
<g id="node2" class="node">
<title>Node2</title>
<g id="a_node2"><a xlink:href="../../dd/d7e/namespaceActs_1_1Test.html#af2452a18c180fac9572a13b802f43554" target="_top" xlink:title="Acts::Test::BOOST_AUTO\l_TEST_CASE">
<polygon fill="none" stroke="#000000" points="115.5,-583.5 115.5,-615.5 256.5,-615.5 256.5,-583.5 115.5,-583.5"/>
<text text-anchor="start" x="123.5" y="-602.5" font-family="FreeSans" font-size="10.00" fill="#000000">Acts::Test::BOOST_AUTO</text>
<text text-anchor="middle" x="186" y="-590.5" font-family="FreeSans" font-size="10.00" fill="#000000">_TEST_CASE</text>
</a>
</g>
</g>
<!-- Node1&#45;&gt;Node2 -->
<g id="edge1" class="edge">
<title>Node1&#45;&gt;Node2</title>
<path fill="none" stroke="#191970" d="M27.0605,-360.7135C33.9325,-411.7993 54.3616,-544.1773 85,-574.5 93.4096,-582.8229 104.1277,-588.5235 115.4225,-592.3987"/>
<polygon fill="#191970" stroke="#191970" points="30.5045,-360.0575 25.7354,-350.5968 23.5638,-360.9667 30.5045,-360.0575"/>
</g>
<!-- Node3 -->
<g id="node3" class="node">
<title>Node3</title>
<g id="a_node3"><a xlink:href="../../df/dfb/classFairGeaneUtil.html#adc1be2cbed4607d34021a0b5d0e21047" target="_top" xlink:title="FairGeaneUtil::FromMARSTo\lSDCoord">
<polygon fill="none" stroke="#000000" points="108,-532.5 108,-564.5 264,-564.5 264,-532.5 108,-532.5"/>
<text text-anchor="start" x="116" y="-551.5" font-family="FreeSans" font-size="10.00" fill="#000000">FairGeaneUtil::FromMARSTo</text>
<text text-anchor="middle" x="186" y="-539.5" font-family="FreeSans" font-size="10.00" fill="#000000">SDCoord</text>
</a>
</g>
</g>
<!-- Node1&#45;&gt;Node3 -->
<g id="edge2" class="edge">
<title>Node1&#45;&gt;Node3</title>
<path fill="none" stroke="#191970" d="M26.5441,-360.8735C31.0456,-395.4175 44.8422,-465.7844 85,-507.5 95.4997,-518.407 109.3003,-526.501 123.3135,-532.475"/>
<polygon fill="#191970" stroke="#191970" points="29.9838,-360.1524 25.3492,-350.625 23.0309,-360.9631 29.9838,-360.1524"/>
</g>
<!-- Node8 -->
<g id="node8" class="node">
<title>Node8</title>
<g id="a_node8"><a xlink:href="../../df/dfb/classFairGeaneUtil.html#a3f9b0d7ad7b6411d8f644010c01ae252" target="_top" xlink:title="FairGeaneUtil::FromSDToMARSCoord">
<polygon fill="none" stroke="#000000" points="86.5,-477.5 86.5,-497.5 285.5,-497.5 285.5,-477.5 86.5,-477.5"/>
<text text-anchor="middle" x="186" y="-484.5" font-family="FreeSans" font-size="10.00" fill="#000000">FairGeaneUtil::FromSDToMARSCoord</text>
</a>
</g>
</g>
<!-- Node1&#45;&gt;Node8 -->
<g id="edge7" class="edge">
<title>Node1&#45;&gt;Node8</title>
<path fill="none" stroke="#191970" d="M28.1544,-360.8738C34.4365,-389.6204 50.1369,-441.5762 85,-468.5 89.5189,-471.9898 94.4861,-474.904 99.7191,-477.332"/>
<polygon fill="#191970" stroke="#191970" points="31.5254,-359.8825 26.1277,-350.7657 24.662,-361.2587 31.5254,-359.8825"/>
</g>
<!-- Node11 -->
<g id="node11" class="node">
<title>Node11</title>
<g id="a_node11"><a xlink:href="../../d7/df2/classPHActsSourceLinks.html#a8705e3b7f42aa078018365eb2d44e37c" target="_top" xlink:title="PHActsSourceLinks::\lgetInttCovarLocal">
<polygon fill="none" stroke="#000000" points="127,-426.5 127,-458.5 245,-458.5 245,-426.5 127,-426.5"/>
<text text-anchor="start" x="135" y="-445.5" font-family="FreeSans" font-size="10.00" fill="#000000">PHActsSourceLinks::</text>
<text text-anchor="middle" x="186" y="-433.5" font-family="FreeSans" font-size="10.00" fill="#000000">getInttCovarLocal</text>
</a>
</g>
</g>
<!-- Node1&#45;&gt;Node11 -->
<g id="edge10" class="edge">
<title>Node1&#45;&gt;Node11</title>
<path fill="none" stroke="#191970" d="M34.4345,-359.3765C44.7308,-377.0783 62.471,-402.9406 85,-417.5 97.5165,-425.5888 112.4551,-431.0605 126.9547,-434.7619"/>
<polygon fill="#191970" stroke="#191970" points="37.4185,-357.541 29.4969,-350.5053 31.302,-360.9453 37.4185,-357.541"/>
</g>
<!-- Node14 -->
<g id="node14" class="node">
<title>Node14</title>
<g id="a_node14"><a xlink:href="../../d7/df2/classPHActsSourceLinks.html#a1582b23e2e20979ac721f25b6c58e192" target="_top" xlink:title="PHActsSourceLinks::\lgetMvtxCovarLocal">
<polygon fill="none" stroke="#000000" points="127,-375.5 127,-407.5 245,-407.5 245,-375.5 127,-375.5"/>
<text text-anchor="start" x="135" y="-394.5" font-family="FreeSans" font-size="10.00" fill="#000000">PHActsSourceLinks::</text>
<text text-anchor="middle" x="186" y="-382.5" font-family="FreeSans" font-size="10.00" fill="#000000">getMvtxCovarLocal</text>
</a>
</g>
</g>
<!-- Node1&#45;&gt;Node14 -->
<g id="edge13" class="edge">
<title>Node1&#45;&gt;Node14</title>
<path fill="none" stroke="#191970" d="M54.5909,-354.5791C64.182,-358.7549 74.922,-363.1125 85,-366.5 98.3555,-370.9892 112.9488,-375.0637 126.7858,-378.5594"/>
<polygon fill="#191970" stroke="#191970" points="56.0087,-351.3792 45.4498,-350.5066 53.1599,-357.7733 56.0087,-351.3792"/>
</g>
<!-- Node16 -->
<g id="node16" class="node">
<title>Node16</title>
<g id="a_node16"><a xlink:href="../../d6/dd9/classActs_1_1CylinderSurface.html#a70b7163f716ca5960305004ed10941d6" target="_top" xlink:title="Acts::CylinderSurface\l::normal">
<polygon fill="none" stroke="#000000" points="123,-324.5 123,-356.5 249,-356.5 249,-324.5 123,-324.5"/>
<text text-anchor="start" x="131" y="-343.5" font-family="FreeSans" font-size="10.00" fill="#000000">Acts::CylinderSurface</text>
<text text-anchor="middle" x="186" y="-331.5" font-family="FreeSans" font-size="10.00" fill="#000000">::normal</text>
</a>
</g>
</g>
<!-- Node1&#45;&gt;Node16 -->
<g id="edge16" class="edge">
<title>Node1&#45;&gt;Node16</title>
<path fill="none" stroke="#191970" d="M59.0685,-340.5C77.6349,-340.5 101.1081,-340.5 122.8045,-340.5"/>
<polygon fill="#191970" stroke="#191970" points="59.0284,-337.0001 49.0284,-340.5 59.0283,-344.0001 59.0284,-337.0001"/>
</g>
<!-- Node17 -->
<g id="node17" class="node">
<title>Node17</title>
<g id="a_node17"><a xlink:href="../../df/db5/classActsTransformations.html#a03d7eae84b8c618da9e969b8d7fa9a05" target="_top" xlink:title="ActsTransformations\l::printMatrix">
<polygon fill="none" stroke="#000000" points="126,-273.5 126,-305.5 246,-305.5 246,-273.5 126,-273.5"/>
<text text-anchor="start" x="134" y="-292.5" font-family="FreeSans" font-size="10.00" fill="#000000">ActsTransformations</text>
<text text-anchor="middle" x="186" y="-280.5" font-family="FreeSans" font-size="10.00" fill="#000000">::printMatrix</text>
</a>
</g>
</g>
<!-- Node1&#45;&gt;Node17 -->
<g id="edge17" class="edge">
<title>Node1&#45;&gt;Node17</title>
<path fill="none" stroke="#191970" d="M55.8781,-326.5574C65.1545,-322.7023 75.398,-318.7023 85,-315.5 98.054,-311.1464 112.2588,-307.0863 125.7806,-303.529"/>
<polygon fill="#191970" stroke="#191970" points="54.4664,-323.3542 46.6284,-330.4828 57.2011,-329.798 54.4664,-323.3542"/>
</g>
<!-- Node18 -->
<g id="node18" class="node">
<title>Node18</title>
<g id="a_node18"><a xlink:href="../../d4/d4f/classActs_1_1ConeSurface.html#ab1c3075fc0894c7e53bffa998512dca8" target="_top" xlink:title="Acts::ConeSurface::\lrotSymmetryAxis">
<polygon fill="none" stroke="#000000" points="128,-222.5 128,-254.5 244,-254.5 244,-222.5 128,-222.5"/>
<text text-anchor="start" x="136" y="-241.5" font-family="FreeSans" font-size="10.00" fill="#000000">Acts::ConeSurface::</text>
<text text-anchor="middle" x="186" y="-229.5" font-family="FreeSans" font-size="10.00" fill="#000000">rotSymmetryAxis</text>
</a>
</g>
</g>
<!-- Node1&#45;&gt;Node18 -->
<g id="edge18" class="edge">
<title>Node1&#45;&gt;Node18</title>
<path fill="none" stroke="#191970" d="M34.6904,-321.6347C45.076,-304.2051 62.7922,-278.8983 85,-264.5 97.7618,-256.2259 113.023,-250.5824 127.7693,-246.7339"/>
<polygon fill="#191970" stroke="#191970" points="31.6115,-319.9684 29.6929,-330.3881 37.6905,-323.4392 31.6115,-319.9684"/>
</g>
<!-- Node19 -->
<g id="node19" class="node">
<title>Node19</title>
<g id="a_node19"><a xlink:href="../../dc/d22/namespacegenfit.html#aabb0e8a6dc45b018b0f1b0d914b5bd66" target="_top" xlink:title="genfit::TMatrixDSymToCovariance3D">
<polygon fill="none" stroke="#000000" points="85,-183.5 85,-203.5 287,-203.5 287,-183.5 85,-183.5"/>
<text text-anchor="middle" x="186" y="-190.5" font-family="FreeSans" font-size="10.00" fill="#000000">genfit::TMatrixDSymToCovariance3D</text>
</a>
</g>
</g>
<!-- Node1&#45;&gt;Node19 -->
<g id="edge19" class="edge">
<title>Node1&#45;&gt;Node19</title>
<path fill="none" stroke="#191970" d="M28.238,-320.3262C34.6223,-291.854 50.4466,-240.3645 85,-213.5 90.0803,-209.5502 95.729,-206.3158 101.6859,-203.6736"/>
<polygon fill="#191970" stroke="#191970" points="24.7656,-319.8355 26.1729,-330.3365 31.6212,-321.2499 24.7656,-319.8355"/>
</g>
<!-- Node22 -->
<g id="node22" class="node">
<title>Node22</title>
<g id="a_node22"><a xlink:href="../../de/d7d/classActs_1_1Surface.html#ae56954ccd48517348e1afe9518a8e727" target="_top" xlink:title="Acts::Surface::toStream">
<polygon fill="none" stroke="#000000" points="117.5,-144.5 117.5,-164.5 254.5,-164.5 254.5,-144.5 117.5,-144.5"/>
<text text-anchor="middle" x="186" y="-151.5" font-family="FreeSans" font-size="10.00" fill="#000000">Acts::Surface::toStream</text>
</a>
</g>
</g>
<!-- Node1&#45;&gt;Node22 -->
<g id="edge22" class="edge">
<title>Node1&#45;&gt;Node22</title>
<path fill="none" stroke="#191970" d="M25.6141,-320.2057C28.72,-284.6654 40.4806,-211.3486 85,-173.5 94.1757,-165.6992 105.5345,-160.6911 117.2872,-157.5454"/>
<polygon fill="#191970" stroke="#191970" points="22.1128,-320.0973 24.8792,-330.3246 29.0944,-320.6044 22.1128,-320.0973"/>
</g>
<!-- Node23 -->
<g id="node23" class="node">
<title>Node23</title>
<g id="a_node23"><a xlink:href="../../da/d7b/namespaceActs.html#aef35ba4d3ecf18e501cc6af9145f44a7" target="_top" xlink:title="Acts::toString">
<polygon fill="none" stroke="#000000" points="143.5,-102.5 143.5,-122.5 228.5,-122.5 228.5,-102.5 143.5,-102.5"/>
<text text-anchor="middle" x="186" y="-109.5" font-family="FreeSans" font-size="10.00" fill="#000000">Acts::toString</text>
</a>
</g>
</g>
<!-- Node1&#45;&gt;Node23 -->
<g id="edge23" class="edge">
<title>Node1&#45;&gt;Node23</title>
<path fill="none" stroke="#191970" d="M27.7795,-320.1942C35.7394,-273.4223 57.4686,-160.1381 85,-134.5 100.5628,-120.0074 123.3589,-114.2179 143.3572,-112.1796"/>
<polygon fill="#191970" stroke="#191970" points="24.2834,-319.882 26.0958,-330.3206 31.1886,-321.0301 24.2834,-319.882"/>
</g>
<!-- Node4 -->
<g id="node4" class="node">
<title>Node4</title>
<g id="a_node4"><a xlink:href="../../db/dc5/classFairTrackParP.html#a42346752d22fce8d9cb069ec4caebbe0" target="_top" xlink:title="FairTrackParP::FairTrackParP">
<polygon fill="none" stroke="#000000" points="325,-585.5 325,-605.5 481,-605.5 481,-585.5 325,-585.5"/>
<text text-anchor="middle" x="403" y="-592.5" font-family="FreeSans" font-size="10.00" fill="#000000">FairTrackParP::FairTrackParP</text>
</a>
</g>
</g>
<!-- Node3&#45;&gt;Node4 -->
<g id="edge3" class="edge">
<title>Node3&#45;&gt;Node4</title>
<path fill="none" stroke="#191970" d="M269.9609,-566.6851C299.4481,-573.0717 331.4871,-580.011 356.734,-585.4792"/>
<polygon fill="#191970" stroke="#191970" points="270.5865,-563.2395 260.0722,-564.5433 269.1046,-570.0809 270.5865,-563.2395"/>
</g>
<!-- Node5 -->
<g id="node5" class="node">
<title>Node5</title>
<g id="a_node5"><a xlink:href="../../db/dc5/classFairTrackParP.html#a277c91f1c864c59d6bce692534ec1824" target="_top" xlink:title="FairTrackParP::SetTrackPar">
<polygon fill="none" stroke="#000000" points="329,-546.5 329,-566.5 477,-566.5 477,-546.5 329,-546.5"/>
<text text-anchor="middle" x="403" y="-553.5" font-family="FreeSans" font-size="10.00" fill="#000000">FairTrackParP::SetTrackPar</text>
</a>
</g>
</g>
<!-- Node3&#45;&gt;Node5 -->
<g id="edge4" class="edge">
<title>Node3&#45;&gt;Node5</title>
<path fill="none" stroke="#191970" d="M274.0552,-551.7463C292.263,-552.4175 311.2678,-553.1182 328.9172,-553.7688"/>
<polygon fill="#191970" stroke="#191970" points="274.1576,-548.2478 264.0354,-551.3769 273.8996,-555.243 274.1576,-548.2478"/>
</g>
<!-- Node6 -->
<g id="node6" class="node">
<title>Node6</title>
<g id="a_node6"><a xlink:href="../../d1/dca/classFairGeanePro.html#ab8e371751ff4d4336b660bb9f14c0d60" target="_top" xlink:title="FairGeanePro::Propagate">
<polygon fill="none" stroke="#000000" points="526.5,-565.5 526.5,-585.5 667.5,-585.5 667.5,-565.5 526.5,-565.5"/>
<text text-anchor="middle" x="597" y="-572.5" font-family="FreeSans" font-size="10.00" fill="#000000">FairGeanePro::Propagate</text>
</a>
</g>
</g>
<!-- Node5&#45;&gt;Node6 -->
<g id="edge5" class="edge">
<title>Node5&#45;&gt;Node6</title>
<path fill="none" stroke="#191970" d="M487.496,-564.7754C500.4711,-566.0461 513.7497,-567.3466 526.3822,-568.5838"/>
<polygon fill="#191970" stroke="#191970" points="487.467,-561.2559 477.1735,-563.7644 486.7847,-568.2226 487.467,-561.2559"/>
</g>
<!-- Node7 -->
<g id="node7" class="node">
<title>Node7</title>
<g id="a_node7"><a xlink:href="../../db/dc5/classFairTrackParP.html#a0deaa6d061c3778d97e4b8c132c2ae9f" target="_top" xlink:title="FairTrackParP::FairTrackParP">
<polygon fill="none" stroke="#000000" points="519,-526.5 519,-546.5 675,-546.5 675,-526.5 519,-526.5"/>
<text text-anchor="middle" x="597" y="-533.5" font-family="FreeSans" font-size="10.00" fill="#000000">FairTrackParP::FairTrackParP</text>
</a>
</g>
</g>
<!-- Node5&#45;&gt;Node7 -->
<g id="edge6" class="edge">
<title>Node5&#45;&gt;Node7</title>
<path fill="none" stroke="#191970" d="M487.1388,-547.8259C497.6148,-546.7459 508.2946,-545.6449 518.6776,-544.5745"/>
<polygon fill="#191970" stroke="#191970" points="486.7618,-544.3461 477.1735,-548.8532 487.4797,-551.3092 486.7618,-544.3461"/>
</g>
<!-- Node9 -->
<g id="node9" class="node">
<title>Node9</title>
<g id="a_node9"><a xlink:href="../../db/dc5/classFairTrackParP.html#a214ed844bdb76a3d4df392b274f3642d" target="_top" xlink:title="FairTrackParP::FairTrackParP">
<polygon fill="none" stroke="#000000" points="325,-507.5 325,-527.5 481,-527.5 481,-507.5 325,-507.5"/>
<text text-anchor="middle" x="403" y="-514.5" font-family="FreeSans" font-size="10.00" fill="#000000">FairTrackParP::FairTrackParP</text>
</a>
</g>
</g>
<!-- Node8&#45;&gt;Node9 -->
<g id="edge8" class="edge">
<title>Node8&#45;&gt;Node9</title>
<path fill="none" stroke="#191970" d="M268.7426,-498.9391C289.0793,-501.7506 310.6974,-504.7393 330.5088,-507.4782"/>
<polygon fill="#191970" stroke="#191970" points="268.9447,-495.4338 258.5596,-497.5313 267.986,-502.3678 268.9447,-495.4338"/>
</g>
<!-- Node10 -->
<g id="node10" class="node">
<title>Node10</title>
<g id="a_node10"><a xlink:href="../../db/dc5/classFairTrackParP.html#aec2c4cc91f11411a61864fe1f8f182e8" target="_top" xlink:title="FairTrackParP::SetTrackPar">
<polygon fill="none" stroke="#000000" points="329,-468.5 329,-488.5 477,-488.5 477,-468.5 329,-468.5"/>
<text text-anchor="middle" x="403" y="-475.5" font-family="FreeSans" font-size="10.00" fill="#000000">FairTrackParP::SetTrackPar</text>
</a>
</g>
</g>
<!-- Node8&#45;&gt;Node10 -->
<g id="edge9" class="edge">
<title>Node8&#45;&gt;Node10</title>
<path fill="none" stroke="#191970" d="M295.8929,-482.9422C307.1005,-482.4774 318.2881,-482.0134 328.9776,-481.5701"/>
<polygon fill="#191970" stroke="#191970" points="295.4548,-479.4573 285.6085,-483.3688 295.745,-486.4513 295.4548,-479.4573"/>
</g>
<!-- Node12 -->
<g id="node12" class="node">
<title>Node12</title>
<g id="a_node12"><a xlink:href="../../d7/df2/classPHActsSourceLinks.html#affc397de4d62bdc3dfe9e6e248805dff" target="_top" xlink:title="Same as above, except for INTT.">
<polygon fill="none" stroke="#000000" points="344,-417.5 344,-449.5 462,-449.5 462,-417.5 344,-417.5"/>
<text text-anchor="start" x="352" y="-436.5" font-family="FreeSans" font-size="10.00" fill="#000000">PHActsSourceLinks::</text>
<text text-anchor="middle" x="403" y="-424.5" font-family="FreeSans" font-size="10.00" fill="#000000">getInttLocalCoords</text>
</a>
</g>
</g>
<!-- Node11&#45;&gt;Node12 -->
<g id="edge11" class="edge">
<title>Node11&#45;&gt;Node12</title>
<path fill="none" stroke="#191970" d="M255.2805,-439.6266C283.7162,-438.4473 316.3046,-437.0957 343.6254,-435.9625"/>
<polygon fill="#191970" stroke="#191970" points="254.8559,-436.1411 245.0096,-440.0526 255.146,-443.1351 254.8559,-436.1411"/>
</g>
<!-- Node13 -->
<g id="node13" class="node">
<title>Node13</title>
<g id="a_node13"><a xlink:href="../../d7/df2/classPHActsSourceLinks.html#a6f9bd92adb0405e9b210bc1cd199f9dc" target="_top" xlink:title="PHActsSourceLinks::\lprocess_event">
<polygon fill="none" stroke="#000000" points="538,-392.5 538,-424.5 656,-424.5 656,-392.5 538,-392.5"/>
<text text-anchor="start" x="546" y="-411.5" font-family="FreeSans" font-size="10.00" fill="#000000">PHActsSourceLinks::</text>
<text text-anchor="middle" x="597" y="-399.5" font-family="FreeSans" font-size="10.00" fill="#000000">process_event</text>
</a>
</g>
</g>
<!-- Node12&#45;&gt;Node13 -->
<g id="edge12" class="edge">
<title>Node12&#45;&gt;Node13</title>
<path fill="none" stroke="#191970" d="M472.2722,-424.5732C493.6956,-421.8124 517.089,-418.7978 537.7684,-416.1329"/>
<polygon fill="#191970" stroke="#191970" points="471.7312,-421.1139 462.2605,-425.8633 472.6259,-428.0565 471.7312,-421.1139"/>
</g>
<!-- Node15 -->
<g id="node15" class="node">
<title>Node15</title>
<g id="a_node15"><a xlink:href="../../d7/df2/classPHActsSourceLinks.html#a00905ab986ea210f35641915875ab7cc" target="_top" xlink:title="PHActsSourceLinks::\lgetMvtxLocalCoords">
<polygon fill="none" stroke="#000000" points="344,-366.5 344,-398.5 462,-398.5 462,-366.5 344,-366.5"/>
<text text-anchor="start" x="352" y="-385.5" font-family="FreeSans" font-size="10.00" fill="#000000">PHActsSourceLinks::</text>
<text text-anchor="middle" x="403" y="-373.5" font-family="FreeSans" font-size="10.00" fill="#000000">getMvtxLocalCoords</text>
</a>
</g>
</g>
<!-- Node14&#45;&gt;Node15 -->
<g id="edge14" class="edge">
<title>Node14&#45;&gt;Node15</title>
<path fill="none" stroke="#191970" d="M255.2805,-388.6266C283.7162,-387.4473 316.3046,-386.0957 343.6254,-384.9625"/>
<polygon fill="#191970" stroke="#191970" points="254.8559,-385.1411 245.0096,-389.0526 255.146,-392.1351 254.8559,-385.1411"/>
</g>
<!-- Node15&#45;&gt;Node13 -->
<g id="edge15" class="edge">
<title>Node15&#45;&gt;Node13</title>
<path fill="none" stroke="#191970" d="M472.2722,-391.7839C493.6956,-394.6551 517.089,-397.7903 537.7684,-400.5617"/>
<polygon fill="#191970" stroke="#191970" points="472.6369,-388.3016 462.2605,-390.4421 471.707,-395.2395 472.6369,-388.3016"/>
</g>
<!-- Node20 -->
<g id="node20" class="node">
<title>Node20</title>
<g id="a_node20"><a xlink:href="../../d1/d19/classgenfit_1_1GFRaveVertexFactory.html#af910f488d147bd5c640f89b0a261abb2" target="_top" xlink:title="genfit::GFRaveVertexFactory\l::setBeamspot">
<polygon fill="none" stroke="#000000" points="323,-180.5 323,-212.5 483,-212.5 483,-180.5 323,-180.5"/>
<text text-anchor="start" x="331" y="-199.5" font-family="FreeSans" font-size="10.00" fill="#000000">genfit::GFRaveVertexFactory</text>
<text text-anchor="middle" x="403" y="-187.5" font-family="FreeSans" font-size="10.00" fill="#000000">::setBeamspot</text>
</a>
</g>
</g>
<!-- Node19&#45;&gt;Node20 -->
<g id="edge20" class="edge">
<title>Node19&#45;&gt;Node20</title>
<path fill="none" stroke="#191970" d="M297.2778,-195.0384C305.8697,-195.1572 314.4383,-195.2756 322.768,-195.3908"/>
<polygon fill="#191970" stroke="#191970" points="297.2413,-191.5377 287.1939,-194.899 297.1445,-198.537 297.2413,-191.5377"/>
</g>
<!-- Node21 -->
<g id="node21" class="node">
<title>Node21</title>
<g id="a_node21"><a xlink:href="../../d7/dff/classPHTpcVertexFinder.html#a826a534d2a0b037bd33357b427046fad" target="_top" xlink:title="PHTpcVertexFinder::\lfindVertices">
<polygon fill="none" stroke="#000000" points="538.5,-180.5 538.5,-212.5 655.5,-212.5 655.5,-180.5 538.5,-180.5"/>
<text text-anchor="start" x="546.5" y="-199.5" font-family="FreeSans" font-size="10.00" fill="#000000">PHTpcVertexFinder::</text>
<text text-anchor="middle" x="597" y="-187.5" font-family="FreeSans" font-size="10.00" fill="#000000">findVertices</text>
</a>
</g>
</g>
<!-- Node20&#45;&gt;Node21 -->
<g id="edge21" class="edge">
<title>Node20&#45;&gt;Node21</title>
<path fill="none" stroke="#191970" d="M493.1088,-196.5C508.5266,-196.5 524.1777,-196.5 538.4935,-196.5"/>
<polygon fill="#191970" stroke="#191970" points="493.0273,-193.0001 483.0273,-196.5 493.0272,-200.0001 493.0273,-193.0001"/>
</g>
<!-- Node24 -->
<g id="node24" class="node">
<title>Node24</title>
<g id="a_node24"><a xlink:href="../../d4/d23/classActs_1_1Navigator.html#ac206354eba20aecd753db58ee45c61aa" target="_top" xlink:title="Acts::Navigator::initialize">
<polygon fill="none" stroke="#000000" points="331.5,-141.5 331.5,-161.5 474.5,-161.5 474.5,-141.5 331.5,-141.5"/>
<text text-anchor="middle" x="403" y="-148.5" font-family="FreeSans" font-size="10.00" fill="#000000">Acts::Navigator::initialize</text>
</a>
</g>
</g>
<!-- Node23&#45;&gt;Node24 -->
<g id="edge24" class="edge">
<title>Node23&#45;&gt;Node24</title>
<path fill="none" stroke="#191970" d="M238.5046,-121.9363C271.4219,-127.8523 313.8114,-135.4707 347.3147,-141.492"/>
<polygon fill="#191970" stroke="#191970" points="239.0748,-118.4828 228.6133,-120.1586 237.8365,-125.3724 239.0748,-118.4828"/>
</g>
<!-- Node25 -->
<g id="node25" class="node">
<title>Node25</title>
<g id="a_node25"><a xlink:href="../../da/d7b/namespaceActs.html#a98a5be2f6767003a812a063be96f6731" target="_top" xlink:title="Acts::toString">
<polygon fill="none" stroke="#000000" points="360.5,-102.5 360.5,-122.5 445.5,-122.5 445.5,-102.5 360.5,-102.5"/>
<text text-anchor="middle" x="403" y="-109.5" font-family="FreeSans" font-size="10.00" fill="#000000">Acts::toString</text>
</a>
</g>
</g>
<!-- Node23&#45;&gt;Node25 -->
<g id="edge25" class="edge">
<title>Node23&#45;&gt;Node25</title>
<path fill="none" stroke="#191970" d="M238.8113,-112.5C276.1837,-112.5 325.6492,-112.5 360.4842,-112.5"/>
<polygon fill="#191970" stroke="#191970" points="238.6133,-109.0001 228.6133,-112.5 238.6133,-116.0001 238.6133,-109.0001"/>
</g>
<!-- Node26 -->
<g id="node26" class="node">
<title>Node26</title>
<g id="a_node26"><a xlink:href="../../d8/d8a/classActs_1_1ActsExtension.html#aa35d67db1b498f9616dfc762e6bbbc91" target="_top" xlink:title="Templated helper method.">
<polygon fill="none" stroke="#000000" points="345,-51.5 345,-83.5 461,-83.5 461,-51.5 345,-51.5"/>
<text text-anchor="start" x="353" y="-70.5" font-family="FreeSans" font-size="10.00" fill="#000000">Acts::ActsExtension</text>
<text text-anchor="middle" x="403" y="-58.5" font-family="FreeSans" font-size="10.00" fill="#000000">::getT</text>
</a>
</g>
</g>
<!-- Node23&#45;&gt;Node26 -->
<g id="edge26" class="edge">
<title>Node23&#45;&gt;Node26</title>
<path fill="none" stroke="#191970" d="M238.6982,-101.5718C270.7946,-94.9159 311.8423,-86.4037 344.8797,-79.5526"/>
<polygon fill="#191970" stroke="#191970" points="237.6943,-98.2054 228.6133,-103.6631 239.1157,-105.0596 237.6943,-98.2054"/>
</g>
<!-- Node27 -->
<g id="node27" class="node">
<title>Node27</title>
<g id="a_node27"><a xlink:href="../../dd/d7e/namespaceActs_1_1Test.html#a3dd4e250935d2ff5f41518aca0617d2a" target="_top" xlink:title="Acts::Test::BOOST_AUTO\l_TEST_CASE">
<polygon fill="none" stroke="#000000" points="332.5,-.5 332.5,-32.5 473.5,-32.5 473.5,-.5 332.5,-.5"/>
<text text-anchor="start" x="340.5" y="-19.5" font-family="FreeSans" font-size="10.00" fill="#000000">Acts::Test::BOOST_AUTO</text>
<text text-anchor="middle" x="403" y="-7.5" font-family="FreeSans" font-size="10.00" fill="#000000">_TEST_CASE</text>
</a>
</g>
</g>
<!-- Node23&#45;&gt;Node27 -->
<g id="edge27" class="edge">
<title>Node23&#45;&gt;Node27</title>
<path fill="none" stroke="#191970" d="M212.1118,-97.2117C239.204,-81.7721 283.1129,-57.9197 323,-41.5 330.6698,-38.3427 338.8902,-35.352 347.0358,-32.6102"/>
<polygon fill="#191970" stroke="#191970" points="210.1908,-94.2788 203.2644,-102.296 213.6786,-100.348 210.1908,-94.2788"/>
</g>
</g>
</svg>
