<?xml version="1.0" encoding="UTF-8" standalone="no"?>
<!DOCTYPE svg PUBLIC "-//W3C//DTD SVG 1.1//EN"
 "http://www.w3.org/Graphics/SVG/1.1/DTD/svg11.dtd">
<!-- Generated by graphviz version 2.40.1 (20161225.0304)
 -->
<!-- Title: PndTransMap::PndTransMap Pages: 1 -->
<svg width="352pt" height="68pt"
 viewBox="0.00 0.00 352.00 68.00" xmlns="http://www.w3.org/2000/svg" xmlns:xlink="http://www.w3.org/1999/xlink">
<g id="graph0" class="graph" transform="scale(1 1) rotate(0) translate(4 64)">
<title>PndTransMap::PndTransMap</title>
<!-- Node1 -->
<g id="node1" class="node">
<title>Node1</title>
<polygon fill="#bfbfbf" stroke="#000000" points="0,-19.5 0,-39.5 157,-39.5 157,-19.5 0,-19.5"/>
<text text-anchor="middle" x="78.5" y="-26.5" font-family="FreeSans" font-size="10.00" fill="#000000">PndTransMap::PndTransMap</text>
</g>
<!-- Node2 -->
<g id="node2" class="node">
<title>Node2</title>
<g id="a_node2"><a xlink:href="../../dd/dbc/classFairRunSim.html#ad779f2a62da88a2e7a251500a560c122" target="_top" xlink:title="FairRunSim::GetBeamMom">
<polygon fill="none" stroke="#000000" points="193,-39.5 193,-59.5 344,-59.5 344,-39.5 193,-39.5"/>
<text text-anchor="middle" x="268.5" y="-46.5" font-family="FreeSans" font-size="10.00" fill="#000000">FairRunSim::GetBeamMom</text>
</a>
</g>
</g>
<!-- Node1&#45;&gt;Node2 -->
<g id="edge1" class="edge">
<title>Node1&#45;&gt;Node2</title>
<path fill="none" stroke="#191970" d="M157.1518,-37.7791C165.6636,-38.6751 174.3559,-39.5901 182.9442,-40.4941"/>
<polygon fill="#191970" stroke="#191970" points="182.6498,-43.9824 192.9613,-41.5486 183.3827,-37.0209 182.6498,-43.9824"/>
</g>
<!-- Node3 -->
<g id="node3" class="node">
<title>Node3</title>
<g id="a_node3"><a xlink:href="../../dd/dbc/classFairRunSim.html#a733dc616669bd5e542b5c05f6470c744" target="_top" xlink:title="FairRunSim::Instance">
<polygon fill="none" stroke="#000000" points="207.5,-.5 207.5,-20.5 329.5,-20.5 329.5,-.5 207.5,-.5"/>
<text text-anchor="middle" x="268.5" y="-7.5" font-family="FreeSans" font-size="10.00" fill="#000000">FairRunSim::Instance</text>
</a>
</g>
</g>
<!-- Node1&#45;&gt;Node3 -->
<g id="edge2" class="edge">
<title>Node1&#45;&gt;Node3</title>
<path fill="none" stroke="#191970" d="M157.1518,-21.6348C170.3629,-20.3137 184.0089,-18.9491 197.026,-17.6474"/>
<polygon fill="#191970" stroke="#191970" points="197.7083,-21.0967 207.3103,-16.619 197.0117,-14.1315 197.7083,-21.0967"/>
</g>
</g>
</svg>
