<?xml version="1.0" encoding="UTF-8" standalone="no"?>
<!DOCTYPE svg PUBLIC "-//W3C//DTD SVG 1.1//EN"
 "http://www.w3.org/Graphics/SVG/1.1/DTD/svg11.dtd">
<!-- Generated by graphviz version 2.40.1 (20161225.0304)
 -->
<!-- Title: fun4all_acts/blob/master/Core/include/Acts/Utilities/Helpers.hpp Pages: 1 -->
<svg width="1139pt" height="248pt"
 viewBox="0.00 0.00 1138.50 248.00" xmlns="http://www.w3.org/2000/svg" xmlns:xlink="http://www.w3.org/1999/xlink">
<g id="graph0" class="graph" transform="scale(1 1) rotate(0) translate(4 244)">
<title>fun4all_acts/blob/master/Core/include/Acts/Utilities/Helpers.hpp</title>
<!-- Node1 -->
<g id="node1" class="node">
<title>Node1</title>
<polygon fill="#bfbfbf" stroke="#000000" points="579.5,-195.5 579.5,-239.5 729.5,-239.5 729.5,-195.5 579.5,-195.5"/>
<text text-anchor="start" x="587.5" y="-226.5" font-family="FreeSans" font-size="10.00" fill="#000000">fun4all_acts/blob/master</text>
<text text-anchor="start" x="587.5" y="-214.5" font-family="FreeSans" font-size="10.00" fill="#000000">/Core/include/Acts/Utilities</text>
<text text-anchor="middle" x="654.5" y="-202.5" font-family="FreeSans" font-size="10.00" fill="#000000">/Helpers.hpp</text>
</g>
<!-- Node2 -->
<g id="node2" class="node">
<title>Node2</title>
<polygon fill="none" stroke="#bfbfbf" points="0,-132.5 0,-152.5 45,-152.5 45,-132.5 0,-132.5"/>
<text text-anchor="middle" x="22.5" y="-139.5" font-family="FreeSans" font-size="10.00" fill="#000000">bitset</text>
</g>
<!-- Node1&#45;&gt;Node2 -->
<g id="edge1" class="edge">
<title>Node1&#45;&gt;Node2</title>
<path fill="none" stroke="#191970" d="M579.3245,-213.1232C441.9785,-204.6277 155.7652,-184.4789 59.5,-159 56.8504,-158.2987 54.1501,-157.4286 51.476,-156.4573"/>
<polygon fill="#191970" stroke="#191970" points="52.6246,-153.1461 42.043,-152.6174 49.9853,-159.6295 52.6246,-153.1461"/>
</g>
<!-- Node3 -->
<g id="node3" class="node">
<title>Node3</title>
<polygon fill="none" stroke="#bfbfbf" points="87.5,-.5 87.5,-20.5 135.5,-20.5 135.5,-.5 87.5,-.5"/>
<text text-anchor="middle" x="111.5" y="-7.5" font-family="FreeSans" font-size="10.00" fill="#000000">cmath</text>
</g>
<!-- Node1&#45;&gt;Node3 -->
<g id="edge2" class="edge">
<title>Node1&#45;&gt;Node3</title>
<path fill="none" stroke="#191970" d="M579.0527,-211.7002C471.1666,-202.6935 278.6529,-183.7711 213.5,-159 162.3411,-139.5494 137.1624,-138.3425 111.5,-90 101.7321,-71.5994 103.4825,-47.2604 106.5644,-30.3821"/>
<polygon fill="#191970" stroke="#191970" points="110.0079,-31.0159 108.6743,-20.5054 103.1624,-29.5535 110.0079,-31.0159"/>
</g>
<!-- Node4 -->
<g id="node4" class="node">
<title>Node4</title>
<polygon fill="none" stroke="#bfbfbf" points="850.5,-132.5 850.5,-152.5 900.5,-152.5 900.5,-132.5 850.5,-132.5"/>
<text text-anchor="middle" x="875.5" y="-139.5" font-family="FreeSans" font-size="10.00" fill="#000000">cstdlib</text>
</g>
<!-- Node1&#45;&gt;Node4 -->
<g id="edge3" class="edge">
<title>Node1&#45;&gt;Node4</title>
<path fill="none" stroke="#191970" d="M728.0717,-195.4926C761.4115,-185.1005 801.187,-172.1156 836.5,-159 838.7097,-158.1793 840.9777,-157.3053 843.2546,-156.4044"/>
<polygon fill="#191970" stroke="#191970" points="844.603,-159.6344 852.5394,-152.6155 841.9582,-153.1532 844.603,-159.6344"/>
</g>
<!-- Node5 -->
<g id="node5" class="node">
<title>Node5</title>
<polygon fill="none" stroke="#bfbfbf" points="919,-132.5 919,-152.5 976,-152.5 976,-132.5 919,-132.5"/>
<text text-anchor="middle" x="947.5" y="-139.5" font-family="FreeSans" font-size="10.00" fill="#000000">iomanip</text>
</g>
<!-- Node1&#45;&gt;Node5 -->
<g id="edge4" class="edge">
<title>Node1&#45;&gt;Node5</title>
<path fill="none" stroke="#191970" d="M729.6938,-204.0364C781.0087,-193.9312 850.1693,-178.5022 909.5,-159 911.8914,-158.2139 914.3392,-157.3344 916.7833,-156.4016"/>
<polygon fill="#191970" stroke="#191970" points="918.1207,-159.6362 926.0643,-152.6254 915.4825,-153.1523 918.1207,-159.6362"/>
</g>
<!-- Node6 -->
<g id="node6" class="node">
<title>Node6</title>
<polygon fill="none" stroke="#bfbfbf" points="994.5,-132.5 994.5,-152.5 1054.5,-152.5 1054.5,-132.5 994.5,-132.5"/>
<text text-anchor="middle" x="1024.5" y="-139.5" font-family="FreeSans" font-size="10.00" fill="#000000">iostream</text>
</g>
<!-- Node1&#45;&gt;Node6 -->
<g id="edge5" class="edge">
<title>Node1&#45;&gt;Node6</title>
<path fill="none" stroke="#191970" d="M729.5557,-209.1369C797.3781,-200.4302 899.4626,-184.4486 985.5,-159 988.1195,-158.2252 990.8002,-157.3277 993.4691,-156.3595"/>
<polygon fill="#191970" stroke="#191970" points="994.9236,-159.5486 1002.9528,-152.636 992.3654,-153.0328 994.9236,-159.5486"/>
</g>
<!-- Node7 -->
<g id="node7" class="node">
<title>Node7</title>
<polygon fill="none" stroke="#bfbfbf" points="1072.5,-132.5 1072.5,-152.5 1130.5,-152.5 1130.5,-132.5 1072.5,-132.5"/>
<text text-anchor="middle" x="1101.5" y="-139.5" font-family="FreeSans" font-size="10.00" fill="#000000">memory</text>
</g>
<!-- Node1&#45;&gt;Node7 -->
<g id="edge6" class="edge">
<title>Node1&#45;&gt;Node7</title>
<path fill="none" stroke="#191970" d="M729.6311,-212.7993C812.6321,-206.2201 949.6209,-191.2362 1063.5,-159 1066.1341,-158.2544 1068.8249,-157.3657 1071.4974,-156.393"/>
<polygon fill="#191970" stroke="#191970" points="1072.9762,-159.5712 1080.9614,-152.6079 1070.3767,-153.0717 1072.9762,-159.5712"/>
</g>
<!-- Node8 -->
<g id="node8" class="node">
<title>Node8</title>
<polygon fill="none" stroke="#bfbfbf" points="644,-63.5 644,-83.5 689,-83.5 689,-63.5 644,-63.5"/>
<text text-anchor="middle" x="666.5" y="-70.5" font-family="FreeSans" font-size="10.00" fill="#000000">string</text>
</g>
<!-- Node1&#45;&gt;Node8 -->
<g id="edge7" class="edge">
<title>Node1&#45;&gt;Node8</title>
<path fill="none" stroke="#191970" d="M635.6051,-195.3564C622.2077,-176.8523 608.1376,-149.7526 617.5,-126 622.9835,-112.0882 634.0843,-99.6883 644.3353,-90.4373"/>
<polygon fill="#191970" stroke="#191970" points="646.8878,-92.8617 652.2506,-83.7244 642.3602,-87.5231 646.8878,-92.8617"/>
</g>
<!-- Node9 -->
<g id="node9" class="node">
<title>Node9</title>
<polygon fill="none" stroke="#bfbfbf" points="746,-63.5 746,-83.5 795,-83.5 795,-63.5 746,-63.5"/>
<text text-anchor="middle" x="770.5" y="-70.5" font-family="FreeSans" font-size="10.00" fill="#000000">vector</text>
</g>
<!-- Node1&#45;&gt;Node9 -->
<g id="edge8" class="edge">
<title>Node1&#45;&gt;Node9</title>
<path fill="none" stroke="#191970" d="M729.6615,-196.6398C761.8859,-186.0354 794.2645,-172.5479 803.5,-159 817.8254,-137.9856 801.3961,-109.8803 787.033,-91.7318"/>
<polygon fill="#191970" stroke="#191970" points="789.4006,-89.1083 780.2918,-83.6971 784.038,-93.6075 789.4006,-89.1083"/>
</g>
<!-- Node10 -->
<g id="node10" class="node">
<title>Node10</title>
<g id="a_node10"><a xlink:href="../../de/d09/BinningType_8hpp.html" target="_top" xlink:title="Acts/Utilities/BinningType.hpp">
<polygon fill="none" stroke="#000000" points="626.5,-132.5 626.5,-152.5 794.5,-152.5 794.5,-132.5 626.5,-132.5"/>
<text text-anchor="middle" x="710.5" y="-139.5" font-family="FreeSans" font-size="10.00" fill="#000000">Acts/Utilities/BinningType.hpp</text>
</a>
</g>
</g>
<!-- Node1&#45;&gt;Node10 -->
<g id="edge9" class="edge">
<title>Node1&#45;&gt;Node10</title>
<path fill="none" stroke="#191970" d="M670.999,-195.4032C679.2663,-184.3308 689.1528,-171.09 696.9668,-160.6248"/>
<polygon fill="#191970" stroke="#191970" points="699.7837,-162.7022 702.9621,-152.5954 694.1747,-158.5142 699.7837,-162.7022"/>
</g>
<!-- Node11 -->
<g id="node11" class="node">
<title>Node11</title>
<g id="a_node11"><a xlink:href="../../d6/d1d/Definitions_8hpp.html" target="_top" xlink:title="Acts/Utilities/Definitions.hpp">
<polygon fill="none" stroke="#000000" points="293.5,-63.5 293.5,-83.5 453.5,-83.5 453.5,-63.5 293.5,-63.5"/>
<text text-anchor="middle" x="373.5" y="-70.5" font-family="FreeSans" font-size="10.00" fill="#000000">Acts/Utilities/Definitions.hpp</text>
</a>
</g>
</g>
<!-- Node1&#45;&gt;Node11 -->
<g id="edge12" class="edge">
<title>Node1&#45;&gt;Node11</title>
<path fill="none" stroke="#191970" d="M579.3265,-207.7513C515.786,-198.1175 431.126,-181.5535 405.5,-159 386.5148,-142.2911 378.7644,-113.193 375.6193,-93.6424"/>
<polygon fill="#191970" stroke="#191970" points="379.0775,-93.0961 374.2765,-83.6514 372.1399,-94.0286 379.0775,-93.0961"/>
</g>
<!-- Node13 -->
<g id="node13" class="node">
<title>Node13</title>
<g id="a_node13"><a xlink:href="../../d8/dfd/ParameterDefinitions_8hpp.html" target="_top" xlink:title="Acts/Utilities/Parameter\lDefinitions.hpp">
<polygon fill="none" stroke="#000000" points="222.5,-126.5 222.5,-158.5 358.5,-158.5 358.5,-126.5 222.5,-126.5"/>
<text text-anchor="start" x="230.5" y="-145.5" font-family="FreeSans" font-size="10.00" fill="#000000">Acts/Utilities/Parameter</text>
<text text-anchor="middle" x="290.5" y="-133.5" font-family="FreeSans" font-size="10.00" fill="#000000">Definitions.hpp</text>
</a>
</g>
</g>
<!-- Node1&#45;&gt;Node13 -->
<g id="edge14" class="edge">
<title>Node1&#45;&gt;Node13</title>
<path fill="none" stroke="#191970" d="M579.079,-201.96C517.6335,-189.2995 431.1636,-171.4829 368.9216,-158.6583"/>
<polygon fill="#191970" stroke="#191970" points="369.2609,-155.1548 358.7603,-156.5646 367.8483,-162.0107 369.2609,-155.1548"/>
</g>
<!-- Node17 -->
<g id="node17" class="node">
<title>Node17</title>
<g id="a_node17"><a xlink:href="../../d0/d81/TypeTraits_8hpp.html" target="_top" xlink:title="Acts/Utilities/TypeTraits.hpp">
<polygon fill="none" stroke="#000000" points="414.5,-132.5 414.5,-152.5 570.5,-152.5 570.5,-132.5 414.5,-132.5"/>
<text text-anchor="middle" x="492.5" y="-139.5" font-family="FreeSans" font-size="10.00" fill="#000000">Acts/Utilities/TypeTraits.hpp</text>
</a>
</g>
</g>
<!-- Node1&#45;&gt;Node17 -->
<g id="edge21" class="edge">
<title>Node1&#45;&gt;Node17</title>
<path fill="none" stroke="#191970" d="M606.7709,-195.4032C579.865,-182.9468 547.0311,-167.7459 523.4746,-156.8401"/>
<polygon fill="#191970" stroke="#191970" points="524.8511,-153.6205 514.306,-152.5954 521.9102,-159.9728 524.8511,-153.6205"/>
</g>
<!-- Node10&#45;&gt;Node8 -->
<g id="edge10" class="edge">
<title>Node10&#45;&gt;Node8</title>
<path fill="none" stroke="#191970" d="M704.0076,-132.3188C697.3135,-121.8212 686.7219,-105.2116 678.4986,-92.316"/>
<polygon fill="#191970" stroke="#191970" points="681.3468,-90.2727 673.019,-83.723 675.4446,-94.0364 681.3468,-90.2727"/>
</g>
<!-- Node10&#45;&gt;Node9 -->
<g id="edge11" class="edge">
<title>Node10&#45;&gt;Node9</title>
<path fill="none" stroke="#191970" d="M719.3532,-132.3188C728.6588,-121.6174 743.4876,-104.5643 754.7877,-91.5691"/>
<polygon fill="#191970" stroke="#191970" points="757.6898,-93.5657 761.6105,-83.723 752.4075,-88.9724 757.6898,-93.5657"/>
</g>
<!-- Node12 -->
<g id="node12" class="node">
<title>Node12</title>
<polygon fill="none" stroke="#bfbfbf" points="333.5,-.5 333.5,-20.5 413.5,-20.5 413.5,-.5 333.5,-.5"/>
<text text-anchor="middle" x="373.5" y="-7.5" font-family="FreeSans" font-size="10.00" fill="#000000">Eigen/Dense</text>
</g>
<!-- Node11&#45;&gt;Node12 -->
<g id="edge13" class="edge">
<title>Node11&#45;&gt;Node12</title>
<path fill="none" stroke="#191970" d="M373.5,-63.378C373.5,-54.7041 373.5,-41.9355 373.5,-31.1186"/>
<polygon fill="#191970" stroke="#191970" points="377.0001,-30.8062 373.5,-20.8062 370.0001,-30.8062 377.0001,-30.8062"/>
</g>
<!-- Node13&#45;&gt;Node3 -->
<g id="edge15" class="edge">
<title>Node13&#45;&gt;Node3</title>
<path fill="none" stroke="#191970" d="M222.1595,-127.1367C184.7466,-117.4018 143.4212,-104.0331 130.5,-90 115.764,-73.9958 111.8634,-48.6496 111.1054,-30.8897"/>
<polygon fill="#191970" stroke="#191970" points="114.6031,-30.6802 110.9746,-20.7261 107.6037,-30.7704 114.6031,-30.6802"/>
</g>
<!-- Node13&#45;&gt;Node11 -->
<g id="edge17" class="edge">
<title>Node13&#45;&gt;Node11</title>
<path fill="none" stroke="#191970" d="M309.7505,-126.4966C322.7927,-115.6543 339.9974,-101.3516 353.2461,-90.3376"/>
<polygon fill="#191970" stroke="#191970" points="355.8453,-92.7283 361.2977,-83.6441 351.3704,-87.3454 355.8453,-92.7283"/>
</g>
<!-- Node14 -->
<g id="node14" class="node">
<title>Node14</title>
<polygon fill="none" stroke="#bfbfbf" points="471.5,-63.5 471.5,-83.5 541.5,-83.5 541.5,-63.5 471.5,-63.5"/>
<text text-anchor="middle" x="506.5" y="-70.5" font-family="FreeSans" font-size="10.00" fill="#000000">type_traits</text>
</g>
<!-- Node13&#45;&gt;Node14 -->
<g id="edge16" class="edge">
<title>Node13&#45;&gt;Node14</title>
<path fill="none" stroke="#191970" d="M346.1665,-126.4687C379.9794,-116.4934 423.9221,-103.1067 462.5,-90 465.2519,-89.065 468.09,-88.0708 470.937,-87.0518"/>
<polygon fill="#191970" stroke="#191970" points="472.3477,-90.2627 480.5385,-83.5425 469.9447,-83.6881 472.3477,-90.2627"/>
</g>
<!-- Node15 -->
<g id="node15" class="node">
<title>Node15</title>
<g id="a_node15"><a xlink:href="../../d7/d46/ParameterTypes_8hpp.html" target="_top" xlink:title="Acts/Utilities/Parameter\lTypes.hpp">
<polygon fill="none" stroke="#000000" points="139.5,-57.5 139.5,-89.5 275.5,-89.5 275.5,-57.5 139.5,-57.5"/>
<text text-anchor="start" x="147.5" y="-76.5" font-family="FreeSans" font-size="10.00" fill="#000000">Acts/Utilities/Parameter</text>
<text text-anchor="middle" x="207.5" y="-64.5" font-family="FreeSans" font-size="10.00" fill="#000000">Types.hpp</text>
</a>
</g>
</g>
<!-- Node13&#45;&gt;Node15 -->
<g id="edge18" class="edge">
<title>Node13&#45;&gt;Node15</title>
<path fill="none" stroke="#191970" d="M271.2495,-126.4966C260.4326,-117.5042 246.7526,-106.1317 234.8408,-96.2291"/>
<polygon fill="#191970" stroke="#191970" points="236.8609,-93.357 226.9336,-89.6557 232.386,-98.7399 236.8609,-93.357"/>
</g>
<!-- Node15&#45;&gt;Node3 -->
<g id="edge20" class="edge">
<title>Node15&#45;&gt;Node3</title>
<path fill="none" stroke="#191970" d="M183.0268,-57.4394C168.3976,-47.839 149.8949,-35.6967 135.3735,-26.167"/>
<polygon fill="#191970" stroke="#191970" points="137.1974,-23.1776 126.9166,-20.6171 133.3568,-29.0299 137.1974,-23.1776"/>
</g>
<!-- Node16 -->
<g id="node16" class="node">
<title>Node16</title>
<polygon fill="none" stroke="#bfbfbf" points="175,-.5 175,-20.5 240,-20.5 240,-.5 175,-.5"/>
<text text-anchor="middle" x="207.5" y="-7.5" font-family="FreeSans" font-size="10.00" fill="#000000">algorithm</text>
</g>
<!-- Node15&#45;&gt;Node16 -->
<g id="edge19" class="edge">
<title>Node15&#45;&gt;Node16</title>
<path fill="none" stroke="#191970" d="M207.5,-57.2759C207.5,-49.2654 207.5,-39.5159 207.5,-30.9952"/>
<polygon fill="#191970" stroke="#191970" points="211.0001,-30.7512 207.5,-20.7513 204.0001,-30.7513 211.0001,-30.7512"/>
</g>
<!-- Node17&#45;&gt;Node8 -->
<g id="edge23" class="edge">
<title>Node17&#45;&gt;Node8</title>
<path fill="none" stroke="#191970" d="M522.8423,-132.4846C551.886,-122.6172 596.739,-106.6416 634.5,-90 635.8584,-89.4013 637.2403,-88.7717 638.6294,-88.1221"/>
<polygon fill="#191970" stroke="#191970" points="640.2949,-91.2036 647.7337,-83.6594 637.2139,-84.9181 640.2949,-91.2036"/>
</g>
<!-- Node17&#45;&gt;Node14 -->
<g id="edge24" class="edge">
<title>Node17&#45;&gt;Node14</title>
<path fill="none" stroke="#191970" d="M494.5657,-132.3188C496.613,-122.2289 499.8059,-106.4925 502.3741,-93.8347"/>
<polygon fill="#191970" stroke="#191970" points="505.8673,-94.2193 504.4258,-83.723 499.0071,-92.8273 505.8673,-94.2193"/>
</g>
<!-- Node18 -->
<g id="node18" class="node">
<title>Node18</title>
<polygon fill="none" stroke="#bfbfbf" points="559.5,-63.5 559.5,-83.5 625.5,-83.5 625.5,-63.5 559.5,-63.5"/>
<text text-anchor="middle" x="592.5" y="-70.5" font-family="FreeSans" font-size="10.00" fill="#000000">functional</text>
</g>
<!-- Node17&#45;&gt;Node18 -->
<g id="edge22" class="edge">
<title>Node17&#45;&gt;Node18</title>
<path fill="none" stroke="#191970" d="M507.2553,-132.3188C523.5771,-121.0568 550.0937,-102.7603 569.2219,-89.5619"/>
<polygon fill="#191970" stroke="#191970" points="571.4411,-92.283 577.6841,-83.723 567.4655,-86.5215 571.4411,-92.283"/>
</g>
</g>
</svg>
