<?xml version="1.0" encoding="UTF-8" standalone="no"?>
<!DOCTYPE svg PUBLIC "-//W3C//DTD SVG 1.1//EN"
 "http://www.w3.org/Graphics/SVG/1.1/DTD/svg11.dtd">
<!-- Generated by graphviz version 2.40.1 (20161225.0304)
 -->
<!-- Title: PHG4ConeDetector::ConstructMe Pages: 1 -->
<svg width="482pt" height="340pt"
 viewBox="0.00 0.00 482.00 340.26" xmlns="http://www.w3.org/2000/svg" xmlns:xlink="http://www.w3.org/1999/xlink">
<g id="graph0" class="graph" transform="scale(1 1) rotate(0) translate(4 336.2632)">
<title>PHG4ConeDetector::ConstructMe</title>
<!-- Node1 -->
<g id="node1" class="node">
<title>Node1</title>
<polygon fill="#bfbfbf" stroke="#000000" points="0,-160.5 0,-180.5 184,-180.5 184,-160.5 0,-160.5"/>
<text text-anchor="middle" x="92" y="-167.5" font-family="FreeSans" font-size="10.00" fill="#000000">PHG4ConeDetector::ConstructMe</text>
</g>
<!-- Node2 -->
<g id="node2" class="node">
<title>Node2</title>
<g id="a_node2"><a xlink:href="../../df/de8/cemc_8C.html#adf5c804dfce7a70e36dda02995fad481" target="_top" xlink:title="exit">
<polygon fill="none" stroke="#000000" points="439,-276.5 439,-296.5 474,-296.5 474,-276.5 439,-276.5"/>
<text text-anchor="middle" x="456.5" y="-283.5" font-family="FreeSans" font-size="10.00" fill="#000000">exit</text>
</a>
</g>
</g>
<!-- Node1&#45;&gt;Node2 -->
<g id="edge1" class="edge">
<title>Node1&#45;&gt;Node2</title>
<path fill="none" stroke="#191970" d="M97.1601,-180.6448C111.8469,-208.2346 156.9251,-284.4382 220,-312.5 294.3109,-345.5606 323.7383,-330.7399 403,-312.5 412.7557,-310.255 422.7943,-305.9822 431.5027,-301.5392"/>
<polygon fill="#191970" stroke="#191970" points="433.2318,-304.5831 440.3538,-296.7391 429.8947,-298.4297 433.2318,-304.5831"/>
</g>
<!-- Node3 -->
<g id="node3" class="node">
<title>Node3</title>
<g id="a_node3"><a xlink:href="../../dd/dae/classPHParameters.html#aa61ce249b94375d9af4482c36a1308cf" target="_top" xlink:title="PHParameters::get_double\l_param">
<polygon fill="none" stroke="#000000" points="236.5,-270.5 236.5,-302.5 386.5,-302.5 386.5,-270.5 236.5,-270.5"/>
<text text-anchor="start" x="244.5" y="-289.5" font-family="FreeSans" font-size="10.00" fill="#000000">PHParameters::get_double</text>
<text text-anchor="middle" x="311.5" y="-277.5" font-family="FreeSans" font-size="10.00" fill="#000000">_param</text>
</a>
</g>
</g>
<!-- Node1&#45;&gt;Node3 -->
<g id="edge2" class="edge">
<title>Node1&#45;&gt;Node3</title>
<path fill="none" stroke="#191970" d="M103.1292,-180.5168C124.3445,-199.1073 172.689,-239.0897 220,-261.5 224.0438,-263.4155 228.2601,-265.206 232.5666,-266.8765"/>
<polygon fill="#191970" stroke="#191970" points="231.5124,-270.2173 242.1065,-270.3437 233.9035,-263.6383 231.5124,-270.2173"/>
</g>
<!-- Node4 -->
<g id="node4" class="node">
<title>Node4</title>
<g id="a_node4"><a xlink:href="../../dd/dae/classPHParameters.html#ab1c503fe2e3136bdd3e5a75bc55ead13" target="_top" xlink:title="PHParameters::get_string\l_param">
<polygon fill="none" stroke="#000000" points="239.5,-219.5 239.5,-251.5 383.5,-251.5 383.5,-219.5 239.5,-219.5"/>
<text text-anchor="start" x="247.5" y="-238.5" font-family="FreeSans" font-size="10.00" fill="#000000">PHParameters::get_string</text>
<text text-anchor="middle" x="311.5" y="-226.5" font-family="FreeSans" font-size="10.00" fill="#000000">_param</text>
</a>
</g>
</g>
<!-- Node1&#45;&gt;Node4 -->
<g id="edge4" class="edge">
<title>Node1&#45;&gt;Node4</title>
<path fill="none" stroke="#191970" d="M122.9428,-180.5141C148.808,-188.8019 186.7072,-200.7533 220,-210.5 226.9539,-212.5358 234.2204,-214.6103 241.4866,-216.6501"/>
<polygon fill="#191970" stroke="#191970" points="240.793,-220.0901 251.3655,-219.4032 242.6722,-213.3471 240.793,-220.0901"/>
</g>
<!-- Node5 -->
<g id="node5" class="node">
<title>Node5</title>
<g id="a_node5"><a xlink:href="../../d3/de7/classPHG4Detector.html#a5f7650922e846c686ed03252a4735653" target="_top" xlink:title="PHG4Detector::GetMySubsystem">
<polygon fill="none" stroke="#000000" points="220,-180.5 220,-200.5 403,-200.5 403,-180.5 220,-180.5"/>
<text text-anchor="middle" x="311.5" y="-187.5" font-family="FreeSans" font-size="10.00" fill="#000000">PHG4Detector::GetMySubsystem</text>
</a>
</g>
</g>
<!-- Node1&#45;&gt;Node5 -->
<g id="edge6" class="edge">
<title>Node1&#45;&gt;Node5</title>
<path fill="none" stroke="#191970" d="M184.1337,-178.8949C192.6505,-179.6709 201.3126,-180.4601 209.9076,-181.2433"/>
<polygon fill="#191970" stroke="#191970" points="209.6775,-184.7367 219.9539,-182.1587 210.3128,-177.7656 209.6775,-184.7367"/>
</g>
<!-- Node6 -->
<g id="node6" class="node">
<title>Node6</title>
<g id="a_node6"><a xlink:href="../../d3/de7/classPHG4Detector.html#a2d071f49fa045db5ade51bb99f88218f" target="_top" xlink:title="PHG4Detector::GetName">
<polygon fill="none" stroke="#000000" points="240.5,-141.5 240.5,-161.5 382.5,-161.5 382.5,-141.5 240.5,-141.5"/>
<text text-anchor="middle" x="311.5" y="-148.5" font-family="FreeSans" font-size="10.00" fill="#000000">PHG4Detector::GetName</text>
</a>
</g>
</g>
<!-- Node1&#45;&gt;Node6 -->
<g id="edge7" class="edge">
<title>Node1&#45;&gt;Node6</title>
<path fill="none" stroke="#191970" d="M184.1337,-162.5249C199.3855,-161.2047 215.1033,-159.8441 230.0673,-158.5488"/>
<polygon fill="#191970" stroke="#191970" points="230.6306,-162.0133 240.2915,-157.6638 230.0269,-155.0393 230.6306,-162.0133"/>
</g>
<!-- Node7 -->
<g id="node7" class="node">
<title>Node7</title>
<g id="a_node7"><a xlink:href="../../d3/de7/classPHG4Detector.html#a0be0f337e0bb4ef7d0754552ee7ba251" target="_top" xlink:title="PHG4Detector::OverlapCheck">
<polygon fill="none" stroke="#000000" points="228.5,-102.5 228.5,-122.5 394.5,-122.5 394.5,-102.5 228.5,-102.5"/>
<text text-anchor="middle" x="311.5" y="-109.5" font-family="FreeSans" font-size="10.00" fill="#000000">PHG4Detector::OverlapCheck</text>
</a>
</g>
</g>
<!-- Node1&#45;&gt;Node7 -->
<g id="edge8" class="edge">
<title>Node1&#45;&gt;Node7</title>
<path fill="none" stroke="#191970" d="M123.3821,-160.4824C149.1852,-152.4153 186.775,-141.0507 220,-132.5 230.4892,-129.8005 241.7146,-127.1518 252.5828,-124.7102"/>
<polygon fill="#191970" stroke="#191970" points="253.4247,-128.1087 262.4322,-122.5306 251.9121,-121.274 253.4247,-128.1087"/>
</g>
<!-- Node8 -->
<g id="node8" class="node">
<title>Node8</title>
<g id="a_node8"><a xlink:href="../../db/df7/classPHG4Subsystem.html#a9fe882e6e1b1adb71ea3eff5e5eab5fe" target="_top" xlink:title="PHG4Subsystem::SetLogical\lVolume">
<polygon fill="none" stroke="#000000" points="232.5,-51.5 232.5,-83.5 390.5,-83.5 390.5,-51.5 232.5,-51.5"/>
<text text-anchor="start" x="240.5" y="-70.5" font-family="FreeSans" font-size="10.00" fill="#000000">PHG4Subsystem::SetLogical</text>
<text text-anchor="middle" x="311.5" y="-58.5" font-family="FreeSans" font-size="10.00" fill="#000000">Volume</text>
</a>
</g>
</g>
<!-- Node1&#45;&gt;Node8 -->
<g id="edge9" class="edge">
<title>Node1&#45;&gt;Node8</title>
<path fill="none" stroke="#191970" d="M105.9189,-160.4219C128.7396,-144.3004 175.9847,-112.5892 220,-93.5 225.4353,-91.1427 231.1442,-88.9355 236.9432,-86.8827"/>
<polygon fill="#191970" stroke="#191970" points="238.3976,-90.0859 246.7552,-83.5742 236.161,-83.4528 238.3976,-90.0859"/>
</g>
<!-- Node9 -->
<g id="node9" class="node">
<title>Node9</title>
<g id="a_node9"><a xlink:href="../../dc/de2/classPHG4ConeDisplayAction.html#ad6a80915b0acbb033bf8f437f63585d4" target="_top" xlink:title="PHG4ConeDisplayAction\l::SetMyVolume">
<polygon fill="none" stroke="#000000" points="242,-.5 242,-32.5 381,-32.5 381,-.5 242,-.5"/>
<text text-anchor="start" x="250" y="-19.5" font-family="FreeSans" font-size="10.00" fill="#000000">PHG4ConeDisplayAction</text>
<text text-anchor="middle" x="311.5" y="-7.5" font-family="FreeSans" font-size="10.00" fill="#000000">::SetMyVolume</text>
</a>
</g>
</g>
<!-- Node1&#45;&gt;Node9 -->
<g id="edge10" class="edge">
<title>Node1&#45;&gt;Node9</title>
<path fill="none" stroke="#191970" d="M99.1141,-160.4677C116.737,-136.3661 164.9921,-74.8134 220,-42.5 223.9514,-40.1788 228.1213,-38.0554 232.4158,-36.1141"/>
<polygon fill="#191970" stroke="#191970" points="234.083,-39.2118 241.9803,-32.149 231.4022,-32.7455 234.083,-39.2118"/>
</g>
<!-- Node3&#45;&gt;Node2 -->
<g id="edge3" class="edge">
<title>Node3&#45;&gt;Node2</title>
<path fill="none" stroke="#191970" d="M386.5484,-286.5C401.574,-286.5 416.4536,-286.5 428.6011,-286.5"/>
<polygon fill="#191970" stroke="#191970" points="428.9149,-290.0001 438.9148,-286.5 428.9148,-283.0001 428.9149,-290.0001"/>
</g>
<!-- Node4&#45;&gt;Node2 -->
<g id="edge5" class="edge">
<title>Node4&#45;&gt;Node2</title>
<path fill="none" stroke="#191970" d="M373.4611,-251.6471C383.4257,-254.6607 393.5614,-257.9796 403,-261.5 411.9334,-264.832 421.4367,-269.0424 429.9169,-273.0533"/>
<polygon fill="#191970" stroke="#191970" points="428.4461,-276.2298 438.9716,-277.4395 431.4978,-269.93 428.4461,-276.2298"/>
</g>
</g>
</svg>
