<?xml version="1.0" encoding="UTF-8" standalone="no"?>
<!DOCTYPE svg PUBLIC "-//W3C//DTD SVG 1.1//EN"
 "http://www.w3.org/Graphics/SVG/1.1/DTD/svg11.dtd">
<!-- Generated by graphviz version 2.40.1 (20161225.0304)
 -->
<!-- Title: PndRecoDafFit::SetTrackRep Pages: 1 -->
<svg width="520pt" height="29pt"
 viewBox="0.00 0.00 520.00 29.00" xmlns="http://www.w3.org/2000/svg" xmlns:xlink="http://www.w3.org/1999/xlink">
<g id="graph0" class="graph" transform="scale(1 1) rotate(0) translate(4 25)">
<title>PndRecoDafFit::SetTrackRep</title>
<!-- Node1 -->
<g id="node1" class="node">
<title>Node1</title>
<polygon fill="#bfbfbf" stroke="#000000" points="0,-.5 0,-20.5 158,-20.5 158,-.5 0,-.5"/>
<text text-anchor="middle" x="79" y="-7.5" font-family="FreeSans" font-size="10.00" fill="#000000">PndRecoDafFit::SetTrackRep</text>
</g>
<!-- Node2 -->
<g id="node2" class="node">
<title>Node2</title>
<g id="a_node2"><a xlink:href="../../d7/d87/classPndRecoKalmanTask.html#a33b7a5331aaa1b81224f3b2061a2c3eb" target="_top" xlink:title="PndRecoKalmanTask::Init">
<polygon fill="none" stroke="#000000" points="194,-.5 194,-20.5 337,-20.5 337,-.5 194,-.5"/>
<text text-anchor="middle" x="265.5" y="-7.5" font-family="FreeSans" font-size="10.00" fill="#000000">PndRecoKalmanTask::Init</text>
</a>
</g>
</g>
<!-- Node1&#45;&gt;Node2 -->
<g id="edge1" class="edge">
<title>Node1&#45;&gt;Node2</title>
<path fill="none" stroke="#191970" d="M168.2018,-10.5C176.8465,-10.5 185.5378,-10.5 193.9776,-10.5"/>
<polygon fill="#191970" stroke="#191970" points="168.0928,-7.0001 158.0928,-10.5 168.0928,-14.0001 168.0928,-7.0001"/>
</g>
<!-- Node3 -->
<g id="node3" class="node">
<title>Node3</title>
<g id="a_node3"><a xlink:href="../../d2/db6/classEicRecoKalmanTask.html#a268e42220934cbf1250b3eb6c6163d2f" target="_top" xlink:title="EicRecoKalmanTask::Init">
<polygon fill="none" stroke="#000000" points="373,-.5 373,-20.5 512,-20.5 512,-.5 373,-.5"/>
<text text-anchor="middle" x="442.5" y="-7.5" font-family="FreeSans" font-size="10.00" fill="#000000">EicRecoKalmanTask::Init</text>
</a>
</g>
</g>
<!-- Node2&#45;&gt;Node3 -->
<g id="edge2" class="edge">
<title>Node2&#45;&gt;Node3</title>
<path fill="none" stroke="#191970" d="M347.2608,-10.5C355.8492,-10.5 364.5227,-10.5 372.9552,-10.5"/>
<polygon fill="#191970" stroke="#191970" points="347.2375,-7.0001 337.2375,-10.5 347.2375,-14.0001 347.2375,-7.0001"/>
</g>
</g>
</svg>
