<?xml version="1.0" encoding="UTF-8" standalone="no"?>
<!DOCTYPE svg PUBLIC "-//W3C//DTD SVG 1.1//EN"
 "http://www.w3.org/Graphics/SVG/1.1/DTD/svg11.dtd">
<!-- Generated by graphviz version 2.40.1 (20161225.0304)
 -->
<!-- Title: FW::Obj::ObjSurfaceWriter::write Pages: 1 -->
<svg width="717pt" height="588pt"
 viewBox="0.00 0.00 717.00 588.00" xmlns="http://www.w3.org/2000/svg" xmlns:xlink="http://www.w3.org/1999/xlink">
<g id="graph0" class="graph" transform="scale(1 1) rotate(0) translate(4 584)">
<title>FW::Obj::ObjSurfaceWriter::write</title>
<!-- Node1 -->
<g id="node1" class="node">
<title>Node1</title>
<polygon fill="#bfbfbf" stroke="#000000" points="0,-277.5 0,-309.5 149,-309.5 149,-277.5 0,-277.5"/>
<text text-anchor="start" x="8" y="-296.5" font-family="FreeSans" font-size="10.00" fill="#000000">FW::Obj::ObjSurfaceWriter</text>
<text text-anchor="middle" x="74.5" y="-284.5" font-family="FreeSans" font-size="10.00" fill="#000000">::write</text>
</g>
<!-- Node2 -->
<g id="node2" class="node">
<title>Node2</title>
<g id="a_node2"><a xlink:href="../../de/d7d/classActs_1_1Surface.html#ac4f8a6a7142a8dce776a5c7b2fcd2e16" target="_top" xlink:title="Acts::Surface::associated\lDetectorElement">
<polygon fill="none" stroke="#000000" points="190.5,-547.5 190.5,-579.5 334.5,-579.5 334.5,-547.5 190.5,-547.5"/>
<text text-anchor="start" x="198.5" y="-566.5" font-family="FreeSans" font-size="10.00" fill="#000000">Acts::Surface::associated</text>
<text text-anchor="middle" x="262.5" y="-554.5" font-family="FreeSans" font-size="10.00" fill="#000000">DetectorElement</text>
</a>
</g>
</g>
<!-- Node1&#45;&gt;Node2 -->
<g id="edge1" class="edge">
<title>Node1&#45;&gt;Node2</title>
<path fill="none" stroke="#191970" d="M77.1238,-309.5999C85.0549,-353.0853 112.8235,-473.9641 185,-538.5 186.3042,-539.6661 187.6634,-540.778 189.0693,-541.838"/>
<polygon fill="#191970" stroke="#191970" points="187.2798,-544.8491 197.5728,-547.3603 191.0923,-538.9784 187.2798,-544.8491"/>
</g>
<!-- Node3 -->
<g id="node3" class="node">
<title>Node3</title>
<g id="a_node3"><a xlink:href="../../de/d7d/classActs_1_1Surface.html#a6926cf349535014a09529e416ef4a004" target="_top" xlink:title="Acts::Surface::bounds">
<polygon fill="none" stroke="#000000" points="198.5,-508.5 198.5,-528.5 326.5,-528.5 326.5,-508.5 198.5,-508.5"/>
<text text-anchor="middle" x="262.5" y="-515.5" font-family="FreeSans" font-size="10.00" fill="#000000">Acts::Surface::bounds</text>
</a>
</g>
</g>
<!-- Node1&#45;&gt;Node3 -->
<g id="edge2" class="edge">
<title>Node1&#45;&gt;Node3</title>
<path fill="none" stroke="#191970" d="M78.3002,-309.5535C88.4027,-348.5746 119.7267,-448.9002 185,-499.5 186.8681,-500.9482 188.8315,-502.2877 190.8692,-503.5267"/>
<polygon fill="#191970" stroke="#191970" points="189.721,-506.8722 200.2138,-508.3395 192.9262,-500.6491 189.721,-506.8722"/>
</g>
<!-- Node4 -->
<g id="node4" class="node">
<title>Node4</title>
<g id="a_node4"><a xlink:href="../../d3/d07/classActs_1_1GeometryObject.html#a522d50b743aeae1663808425a72777f2" target="_top" xlink:title="Acts::GeometryObject\l::geoID">
<polygon fill="none" stroke="#000000" points="198,-457.5 198,-489.5 327,-489.5 327,-457.5 198,-457.5"/>
<text text-anchor="start" x="206" y="-476.5" font-family="FreeSans" font-size="10.00" fill="#000000">Acts::GeometryObject</text>
<text text-anchor="middle" x="262.5" y="-464.5" font-family="FreeSans" font-size="10.00" fill="#000000">::geoID</text>
</a>
</g>
</g>
<!-- Node1&#45;&gt;Node4 -->
<g id="edge3" class="edge">
<title>Node1&#45;&gt;Node4</title>
<path fill="none" stroke="#191970" d="M81.7005,-309.7083C96.4812,-341.147 133.2614,-410.6375 185,-448.5 187.0465,-449.9976 189.1867,-451.4081 191.3974,-452.7363"/>
<polygon fill="#191970" stroke="#191970" points="189.7568,-455.828 200.2249,-457.4617 193.0604,-449.6566 189.7568,-455.828"/>
</g>
<!-- Node5 -->
<g id="node5" class="node">
<title>Node5</title>
<g id="a_node5"><a xlink:href="../../da/d0a/classActs_1_1CylinderBounds.html#a87f7f0a9088eb074ac6c1e63862db251" target="_top" xlink:title="Acts::CylinderBounds::get">
<polygon fill="none" stroke="#000000" points="188,-418.5 188,-438.5 337,-438.5 337,-418.5 188,-418.5"/>
<text text-anchor="middle" x="262.5" y="-425.5" font-family="FreeSans" font-size="10.00" fill="#000000">Acts::CylinderBounds::get</text>
</a>
</g>
</g>
<!-- Node1&#45;&gt;Node5 -->
<g id="edge4" class="edge">
<title>Node1&#45;&gt;Node5</title>
<path fill="none" stroke="#191970" d="M85.2968,-309.7784C103.006,-335.1445 140.7164,-383.8472 185,-409.5 188.4089,-411.4747 192.0167,-413.2452 195.7373,-414.8323"/>
<polygon fill="#191970" stroke="#191970" points="194.5774,-418.1357 205.1686,-418.4122 197.0615,-411.5913 194.5774,-418.1357"/>
</g>
<!-- Node6 -->
<g id="node6" class="node">
<title>Node6</title>
<g id="a_node6"><a xlink:href="../../d7/df5/classActs_1_1GeometryID.html#a268404ac56829142187afca578c3a020" target="_top" xlink:title="Return the layer identifier.">
<polygon fill="none" stroke="#000000" points="193,-379.5 193,-399.5 332,-399.5 332,-379.5 193,-379.5"/>
<text text-anchor="middle" x="262.5" y="-386.5" font-family="FreeSans" font-size="10.00" fill="#000000">Acts::GeometryID::layer</text>
</a>
</g>
</g>
<!-- Node1&#45;&gt;Node6 -->
<g id="edge5" class="edge">
<title>Node1&#45;&gt;Node6</title>
<path fill="none" stroke="#191970" d="M93.1343,-309.748C114.102,-327.2156 149.8436,-354.6096 185,-370.5 189.8917,-372.711 195.0782,-374.688 200.3581,-376.4511"/>
<polygon fill="#191970" stroke="#191970" points="199.3322,-379.7973 209.9195,-379.3982 201.3941,-373.1079 199.3322,-379.7973"/>
</g>
<!-- Node9 -->
<g id="node9" class="node">
<title>Node9</title>
<g id="a_node9"><a xlink:href="../../d0/d1a/classActs_1_1RadialBounds.html#a34629dabdae55cab45d3c250b3f4c80a" target="_top" xlink:title="Return method for outer Radius.">
<polygon fill="none" stroke="#000000" points="205,-328.5 205,-360.5 320,-360.5 320,-328.5 205,-328.5"/>
<text text-anchor="start" x="213" y="-347.5" font-family="FreeSans" font-size="10.00" fill="#000000">Acts::RadialBounds</text>
<text text-anchor="middle" x="262.5" y="-335.5" font-family="FreeSans" font-size="10.00" fill="#000000">::rMax</text>
</a>
</g>
</g>
<!-- Node1&#45;&gt;Node9 -->
<g id="edge8" class="edge">
<title>Node1&#45;&gt;Node9</title>
<path fill="none" stroke="#191970" d="M133.7263,-309.5667C153.2427,-314.861 175.087,-320.7869 195.1625,-326.2329"/>
<polygon fill="#191970" stroke="#191970" points="194.2901,-329.6227 204.8577,-328.863 196.1229,-322.8669 194.2901,-329.6227"/>
</g>
<!-- Node10 -->
<g id="node10" class="node">
<title>Node10</title>
<g id="a_node10"><a xlink:href="../../d0/d1a/classActs_1_1RadialBounds.html#aa534575d823907e4b909c6109d6b65fd" target="_top" xlink:title="Return method for inner Radius.">
<polygon fill="none" stroke="#000000" points="205,-277.5 205,-309.5 320,-309.5 320,-277.5 205,-277.5"/>
<text text-anchor="start" x="213" y="-296.5" font-family="FreeSans" font-size="10.00" fill="#000000">Acts::RadialBounds</text>
<text text-anchor="middle" x="262.5" y="-284.5" font-family="FreeSans" font-size="10.00" fill="#000000">::rMin</text>
</a>
</g>
</g>
<!-- Node1&#45;&gt;Node10 -->
<g id="edge9" class="edge">
<title>Node1&#45;&gt;Node10</title>
<path fill="none" stroke="#191970" d="M149.0726,-293.5C164.1489,-293.5 179.9224,-293.5 194.7488,-293.5"/>
<polygon fill="#191970" stroke="#191970" points="194.8417,-297.0001 204.8417,-293.5 194.8417,-290.0001 194.8417,-297.0001"/>
</g>
<!-- Node11 -->
<g id="node11" class="node">
<title>Node11</title>
<g id="a_node11"><a xlink:href="../../d7/de6/classActs_1_1DetectorElementBase.html#af320e4e3baf51fbd6a67aab984b9d3ad" target="_top" xlink:title="Acts::DetectorElementBase\l::thickness">
<polygon fill="none" stroke="#000000" points="185,-226.5 185,-258.5 340,-258.5 340,-226.5 185,-226.5"/>
<text text-anchor="start" x="193" y="-245.5" font-family="FreeSans" font-size="10.00" fill="#000000">Acts::DetectorElementBase</text>
<text text-anchor="middle" x="262.5" y="-233.5" font-family="FreeSans" font-size="10.00" fill="#000000">::thickness</text>
</a>
</g>
</g>
<!-- Node1&#45;&gt;Node11 -->
<g id="edge10" class="edge">
<title>Node1&#45;&gt;Node11</title>
<path fill="none" stroke="#191970" d="M133.7263,-277.4333C152.6936,-272.2879 173.8597,-266.546 193.4639,-261.2279"/>
<polygon fill="#191970" stroke="#191970" points="194.5137,-264.5697 203.2485,-258.5736 192.6809,-257.8138 194.5137,-264.5697"/>
</g>
<!-- Node12 -->
<g id="node12" class="node">
<title>Node12</title>
<g id="a_node12"><a xlink:href="../../d3/d9b/namespacenlohmann.html#a6ce645a0b8717757e096a5b5773b7a16" target="_top" xlink:title="user&#45;defined to_string function for JSON values">
<polygon fill="none" stroke="#000000" points="203.5,-187.5 203.5,-207.5 321.5,-207.5 321.5,-187.5 203.5,-187.5"/>
<text text-anchor="middle" x="262.5" y="-194.5" font-family="FreeSans" font-size="10.00" fill="#000000">nlohmann::to_string</text>
</a>
</g>
</g>
<!-- Node1&#45;&gt;Node12 -->
<g id="edge11" class="edge">
<title>Node1&#45;&gt;Node12</title>
<path fill="none" stroke="#191970" d="M93.5928,-277.2427C114.6755,-260.0696 150.2518,-233.3319 185,-217.5 190.7258,-214.8912 196.8508,-212.5796 203.0546,-210.5416"/>
<polygon fill="#191970" stroke="#191970" points="204.2791,-213.8273 212.8221,-207.5609 202.236,-207.1321 204.2791,-213.8273"/>
</g>
<!-- Node13 -->
<g id="node13" class="node">
<title>Node13</title>
<g id="a_node13"><a xlink:href="../../de/d7d/classActs_1_1Surface.html#ace4cf8a84a10d848c64dfb5347af57d4" target="_top" xlink:title="Acts::Surface::transform">
<polygon fill="none" stroke="#000000" points="192.5,-148.5 192.5,-168.5 332.5,-168.5 332.5,-148.5 192.5,-148.5"/>
<text text-anchor="middle" x="262.5" y="-155.5" font-family="FreeSans" font-size="10.00" fill="#000000">Acts::Surface::transform</text>
</a>
</g>
</g>
<!-- Node1&#45;&gt;Node13 -->
<g id="edge12" class="edge">
<title>Node1&#45;&gt;Node13</title>
<path fill="none" stroke="#191970" d="M85.3679,-277.4277C103.1746,-252.3705 141.0162,-204.209 185,-178.5 189.1313,-176.0852 193.5536,-173.9581 198.1138,-172.0851"/>
<polygon fill="#191970" stroke="#191970" points="199.4433,-175.3254 207.6188,-168.5865 197.0253,-168.7563 199.4433,-175.3254"/>
</g>
<!-- Node14 -->
<g id="node14" class="node">
<title>Node14</title>
<g id="a_node14"><a xlink:href="../../d1/d47/classActs_1_1PlanarBounds.html#aa74e714dcbcb1cd5bc966cea1977b1fe" target="_top" xlink:title="Acts::PlanarBounds\l::vertices">
<polygon fill="none" stroke="#000000" points="205,-97.5 205,-129.5 320,-129.5 320,-97.5 205,-97.5"/>
<text text-anchor="start" x="213" y="-116.5" font-family="FreeSans" font-size="10.00" fill="#000000">Acts::PlanarBounds</text>
<text text-anchor="middle" x="262.5" y="-104.5" font-family="FreeSans" font-size="10.00" fill="#000000">::vertices</text>
</a>
</g>
</g>
<!-- Node1&#45;&gt;Node14 -->
<g id="edge13" class="edge">
<title>Node1&#45;&gt;Node14</title>
<path fill="none" stroke="#191970" d="M81.7005,-277.2917C96.4812,-245.853 133.2614,-176.3625 185,-138.5 188.4013,-136.0109 192.0614,-133.7625 195.874,-131.7325"/>
<polygon fill="#191970" stroke="#191970" points="197.4772,-134.8457 204.9965,-127.3817 194.4638,-128.5274 197.4772,-134.8457"/>
</g>
<!-- Node15 -->
<g id="node15" class="node">
<title>Node15</title>
<g id="a_node15"><a xlink:href="../../d6/dbb/namespaceFW_1_1Obj.html#a46a4a1f1b37990d89734a31c54f9e1bd" target="_top" xlink:title="FW::Obj::writePlanarFace">
<polygon fill="none" stroke="#000000" points="191.5,-58.5 191.5,-78.5 333.5,-78.5 333.5,-58.5 191.5,-58.5"/>
<text text-anchor="middle" x="262.5" y="-65.5" font-family="FreeSans" font-size="10.00" fill="#000000">FW::Obj::writePlanarFace</text>
</a>
</g>
</g>
<!-- Node1&#45;&gt;Node15 -->
<g id="edge14" class="edge">
<title>Node1&#45;&gt;Node15</title>
<path fill="none" stroke="#191970" d="M78.3002,-277.4465C88.4027,-238.4254 119.7267,-138.0998 185,-87.5 186.8681,-86.0518 188.8315,-84.7123 190.8692,-83.4733"/>
<polygon fill="#191970" stroke="#191970" points="192.9262,-86.3509 200.2138,-78.6605 189.721,-80.1278 192.9262,-86.3509"/>
</g>
<!-- Node18 -->
<g id="node18" class="node">
<title>Node18</title>
<g id="a_node18"><a xlink:href="../../d6/dbb/namespaceFW_1_1Obj.html#abcbbfa480170bcda270efc8d297448ca" target="_top" xlink:title="FW::Obj::writeTube">
<polygon fill="none" stroke="#000000" points="207,-19.5 207,-39.5 318,-39.5 318,-19.5 207,-19.5"/>
<text text-anchor="middle" x="262.5" y="-26.5" font-family="FreeSans" font-size="10.00" fill="#000000">FW::Obj::writeTube</text>
</a>
</g>
</g>
<!-- Node1&#45;&gt;Node18 -->
<g id="edge17" class="edge">
<title>Node1&#45;&gt;Node18</title>
<path fill="none" stroke="#191970" d="M76.8274,-277.4355C84.0701,-233.5106 110.3798,-110.5595 185,-48.5 188.7312,-45.3969 192.8925,-42.7872 197.2962,-40.5941"/>
<polygon fill="#191970" stroke="#191970" points="198.769,-43.7714 206.616,-36.6528 196.0425,-37.3242 198.769,-43.7714"/>
</g>
<!-- Node7 -->
<g id="node7" class="node">
<title>Node7</title>
<g id="a_node7"><a xlink:href="../../d7/df5/classActs_1_1GeometryID.html#ab6954bf2b23af68dee687abff2541e65" target="_top" xlink:title="Extract the masked bits from the encoded value.">
<polygon fill="none" stroke="#000000" points="376,-379.5 376,-399.5 524,-399.5 524,-379.5 376,-379.5"/>
<text text-anchor="middle" x="450" y="-386.5" font-family="FreeSans" font-size="10.00" fill="#000000">Acts::GeometryID::getBits</text>
</a>
</g>
</g>
<!-- Node6&#45;&gt;Node7 -->
<g id="edge6" class="edge">
<title>Node6&#45;&gt;Node7</title>
<path fill="none" stroke="#191970" d="M332.0516,-389.5C342.9833,-389.5 354.3862,-389.5 365.6084,-389.5"/>
<polygon fill="#191970" stroke="#191970" points="365.8451,-393.0001 375.8451,-389.5 365.845,-386.0001 365.8451,-393.0001"/>
</g>
<!-- Node8 -->
<g id="node8" class="node">
<title>Node8</title>
<g id="a_node8"><a xlink:href="../../d7/df5/classActs_1_1GeometryID.html#acd6ca6e930d0adfefd72283464038a11" target="_top" xlink:title="Extract the bit shift necessary to access the masked values.">
<polygon fill="none" stroke="#000000" points="560,-373.5 560,-405.5 709,-405.5 709,-373.5 560,-373.5"/>
<text text-anchor="start" x="568" y="-392.5" font-family="FreeSans" font-size="10.00" fill="#000000">Acts::GeometryID::extract</text>
<text text-anchor="middle" x="634.5" y="-380.5" font-family="FreeSans" font-size="10.00" fill="#000000">Shift</text>
</a>
</g>
</g>
<!-- Node7&#45;&gt;Node8 -->
<g id="edge7" class="edge">
<title>Node7&#45;&gt;Node8</title>
<path fill="none" stroke="#191970" d="M524.2457,-389.5C532.5747,-389.5 541.1073,-389.5 549.5577,-389.5"/>
<polygon fill="#191970" stroke="#191970" points="549.8054,-393.0001 559.8053,-389.5 549.8053,-386.0001 549.8054,-393.0001"/>
</g>
<!-- Node16 -->
<g id="node16" class="node">
<title>Node16</title>
<g id="a_node16"><a xlink:href="../../d6/dbb/namespaceFW_1_1Obj.html#a7a02afc3ddbe95ea4c7d1132398e0890" target="_top" xlink:title="FW::Obj::constructVertical\lFaces">
<polygon fill="none" stroke="#000000" points="376.5,-78.5 376.5,-110.5 523.5,-110.5 523.5,-78.5 376.5,-78.5"/>
<text text-anchor="start" x="384.5" y="-97.5" font-family="FreeSans" font-size="10.00" fill="#000000">FW::Obj::constructVertical</text>
<text text-anchor="middle" x="450" y="-85.5" font-family="FreeSans" font-size="10.00" fill="#000000">Faces</text>
</a>
</g>
</g>
<!-- Node15&#45;&gt;Node16 -->
<g id="edge15" class="edge">
<title>Node15&#45;&gt;Node16</title>
<path fill="none" stroke="#191970" d="M333.6531,-78.3666C344.3609,-79.8514 355.487,-81.3942 366.4261,-82.9111"/>
<polygon fill="#191970" stroke="#191970" points="366.0162,-86.3877 376.4022,-84.2944 366.9777,-79.454 366.0162,-86.3877"/>
</g>
<!-- Node17 -->
<g id="node17" class="node">
<title>Node17</title>
<g id="a_node17"><a xlink:href="../../d6/dbb/namespaceFW_1_1Obj.html#aeeea989d986cbbeb2458f02408a2291b" target="_top" xlink:title="FW::Obj::writeVTN">
<polygon fill="none" stroke="#000000" points="396,-39.5 396,-59.5 504,-59.5 504,-39.5 396,-39.5"/>
<text text-anchor="middle" x="450" y="-46.5" font-family="FreeSans" font-size="10.00" fill="#000000">FW::Obj::writeVTN</text>
</a>
</g>
</g>
<!-- Node15&#45;&gt;Node17 -->
<g id="edge16" class="edge">
<title>Node15&#45;&gt;Node17</title>
<path fill="none" stroke="#191970" d="M333.6531,-61.2898C350.7257,-59.5598 368.8616,-57.722 385.6075,-56.0251"/>
<polygon fill="#191970" stroke="#191970" points="386.2364,-59.4794 395.8326,-54.989 385.5307,-52.5151 386.2364,-59.4794"/>
</g>
<!-- Node18&#45;&gt;Node17 -->
<g id="edge19" class="edge">
<title>Node18&#45;&gt;Node17</title>
<path fill="none" stroke="#191970" d="M318.2485,-35.4465C339.4027,-37.703 363.6643,-40.2909 385.5557,-42.6259"/>
<polygon fill="#191970" stroke="#191970" points="385.4416,-46.1335 395.7564,-43.714 386.1841,-39.173 385.4416,-46.1335"/>
</g>
<!-- Node19 -->
<g id="node19" class="node">
<title>Node19</title>
<g id="a_node19"><a xlink:href="../../df/de8/cemc_8C.html#a72d4716092b469b4bc1d816359a90e14" target="_top" xlink:title="cos">
<polygon fill="none" stroke="#000000" points="433.5,-.5 433.5,-20.5 466.5,-20.5 466.5,-.5 433.5,-.5"/>
<text text-anchor="middle" x="450" y="-7.5" font-family="FreeSans" font-size="10.00" fill="#000000">cos</text>
</a>
</g>
</g>
<!-- Node18&#45;&gt;Node19 -->
<g id="edge18" class="edge">
<title>Node18&#45;&gt;Node19</title>
<path fill="none" stroke="#191970" d="M318.2485,-23.8508C352.9373,-20.3357 395.9816,-15.9739 423.2288,-13.2128"/>
<polygon fill="#191970" stroke="#191970" points="423.5917,-16.6941 433.1879,-12.2036 422.8859,-9.7297 423.5917,-16.6941"/>
</g>
</g>
</svg>
