<?xml version="1.0" encoding="UTF-8" standalone="no"?>
<!DOCTYPE svg PUBLIC "-//W3C//DTD SVG 1.1//EN"
 "http://www.w3.org/Graphics/SVG/1.1/DTD/svg11.dtd">
<!-- Generated by graphviz version 2.40.1 (20161225.0304)
 -->
<!-- Title: erhic::EventMC Pages: 1 -->
<svg width="779pt" height="458pt"
 viewBox="0.00 0.00 779.00 458.00" xmlns="http://www.w3.org/2000/svg" xmlns:xlink="http://www.w3.org/1999/xlink">
<g id="graph0" class="graph" transform="scale(1 1) rotate(0) translate(4 454)">
<title>erhic::EventMC</title>
<!-- Node1 -->
<g id="node1" class="node">
<title>Node1</title>
<polygon fill="#bfbfbf" stroke="#000000" points="368,-214.5 368,-234.5 460,-234.5 460,-214.5 368,-214.5"/>
<text text-anchor="middle" x="414" y="-221.5" font-family="FreeSans" font-size="10.00" fill="#000000">erhic::EventMC</text>
</g>
<!-- Node5 -->
<g id="node5" class="node">
<title>Node5</title>
<g id="a_node5"><a xlink:href="../../da/d61/classerhic_1_1EventDjangoh.html" target="_top" xlink:title="erhic::EventDjangoh">
<polygon fill="none" stroke="#000000" points="500,-429.5 500,-449.5 619,-449.5 619,-429.5 500,-429.5"/>
<text text-anchor="middle" x="559.5" y="-436.5" font-family="FreeSans" font-size="10.00" fill="#000000">erhic::EventDjangoh</text>
</a>
</g>
</g>
<!-- Node1&#45;&gt;Node5 -->
<g id="edge4" class="edge">
<title>Node1&#45;&gt;Node5</title>
<path fill="none" stroke="#191970" d="M416.711,-244.8272C423.0852,-284.5054 442.7264,-372.5701 496,-420.5 500.0206,-424.1173 504.7053,-427.0469 509.6747,-429.4192"/>
<polygon fill="#191970" stroke="#191970" points="420.1507,-244.1616 415.2197,-234.7841 413.2266,-245.1898 420.1507,-244.1616"/>
</g>
<!-- Node6 -->
<g id="node6" class="node">
<title>Node6</title>
<g id="a_node6"><a xlink:href="../../d9/d67/classerhic_1_1EventDpmjet.html" target="_top" xlink:title="erhic::EventDpmjet">
<polygon fill="none" stroke="#000000" points="502.5,-390.5 502.5,-410.5 616.5,-410.5 616.5,-390.5 502.5,-390.5"/>
<text text-anchor="middle" x="559.5" y="-397.5" font-family="FreeSans" font-size="10.00" fill="#000000">erhic::EventDpmjet</text>
</a>
</g>
</g>
<!-- Node1&#45;&gt;Node6 -->
<g id="edge5" class="edge">
<title>Node1&#45;&gt;Node6</title>
<path fill="none" stroke="#191970" d="M419.1094,-244.4612C428.6078,-277.5746 452.1203,-343.8407 496,-380.5 500.8785,-384.5757 506.5918,-387.8233 512.556,-390.4105"/>
<polygon fill="#191970" stroke="#191970" points="422.4257,-243.3187 416.4163,-234.593 415.6727,-245.1617 422.4257,-243.3187"/>
</g>
<!-- Node7 -->
<g id="node7" class="node">
<title>Node7</title>
<g id="a_node7"><a xlink:href="../../d2/d51/classerhic_1_1EventGmcTrans.html" target="_top" xlink:title="erhic::EventGmcTrans">
<polygon fill="none" stroke="#000000" points="496,-351.5 496,-371.5 623,-371.5 623,-351.5 496,-351.5"/>
<text text-anchor="middle" x="559.5" y="-358.5" font-family="FreeSans" font-size="10.00" fill="#000000">erhic::EventGmcTrans</text>
</a>
</g>
</g>
<!-- Node1&#45;&gt;Node7 -->
<g id="edge6" class="edge">
<title>Node1&#45;&gt;Node7</title>
<path fill="none" stroke="#191970" d="M422.5817,-243.8287C435.0692,-269.7817 460.6718,-315.6164 496,-341.5 501.5941,-345.5986 508.0542,-348.8746 514.667,-351.4885"/>
<polygon fill="#191970" stroke="#191970" points="425.6987,-242.2309 418.3101,-234.6375 419.3508,-245.1812 425.6987,-242.2309"/>
</g>
<!-- Node8 -->
<g id="node8" class="node">
<title>Node8</title>
<g id="a_node8"><a xlink:href="../../d4/da7/classerhic_1_1EventHepMC.html" target="_top" xlink:title="erhic::EventHepMC">
<polygon fill="none" stroke="#000000" points="503,-312.5 503,-332.5 616,-332.5 616,-312.5 503,-312.5"/>
<text text-anchor="middle" x="559.5" y="-319.5" font-family="FreeSans" font-size="10.00" fill="#000000">erhic::EventHepMC</text>
</a>
</g>
</g>
<!-- Node1&#45;&gt;Node8 -->
<g id="edge7" class="edge">
<title>Node1&#45;&gt;Node8</title>
<path fill="none" stroke="#191970" d="M428.5654,-242.4951C443.7082,-260.1075 468.9466,-286.5483 496,-302.5 502.7703,-306.492 510.4242,-309.7744 518.0146,-312.4425"/>
<polygon fill="#191970" stroke="#191970" points="431.087,-240.0552 421.9789,-234.6429 425.7239,-244.5538 431.087,-240.0552"/>
</g>
<!-- Node9 -->
<g id="node9" class="node">
<title>Node9</title>
<g id="a_node9"><a xlink:href="../../de/ddc/classerhic_1_1EventMilou.html" target="_top" xlink:title="erhic::EventMilou">
<polygon fill="none" stroke="#000000" points="507.5,-273.5 507.5,-293.5 611.5,-293.5 611.5,-273.5 507.5,-273.5"/>
<text text-anchor="middle" x="559.5" y="-280.5" font-family="FreeSans" font-size="10.00" fill="#000000">erhic::EventMilou</text>
</a>
</g>
</g>
<!-- Node1&#45;&gt;Node9 -->
<g id="edge8" class="edge">
<title>Node1&#45;&gt;Node9</title>
<path fill="none" stroke="#191970" d="M442.3283,-239.1687C457.9303,-246.942 477.7753,-256.3361 496,-263.5 505.1434,-267.0942 515.2156,-270.5065 524.5917,-273.4615"/>
<polygon fill="#191970" stroke="#191970" points="443.7194,-235.9505 433.2146,-234.5727 440.5674,-242.2007 443.7194,-235.9505"/>
</g>
<!-- Node10 -->
<g id="node10" class="node">
<title>Node10</title>
<g id="a_node10"><a xlink:href="../../d3/d30/classerhic_1_1EventPepsi.html" target="_top" xlink:title="erhic::EventPepsi">
<polygon fill="none" stroke="#000000" points="508,-234.5 508,-254.5 611,-254.5 611,-234.5 508,-234.5"/>
<text text-anchor="middle" x="559.5" y="-241.5" font-family="FreeSans" font-size="10.00" fill="#000000">erhic::EventPepsi</text>
</a>
</g>
</g>
<!-- Node1&#45;&gt;Node10 -->
<g id="edge9" class="edge">
<title>Node1&#45;&gt;Node10</title>
<path fill="none" stroke="#191970" d="M470.2622,-232.2336C482.6644,-233.9384 495.7413,-235.7359 507.9462,-237.4136"/>
<polygon fill="#191970" stroke="#191970" points="470.4206,-228.7226 460.0371,-230.8281 469.4673,-235.6574 470.4206,-228.7226"/>
</g>
<!-- Node11 -->
<g id="node11" class="node">
<title>Node11</title>
<g id="a_node11"><a xlink:href="../../df/d77/classerhic_1_1EventPythia.html" target="_top" xlink:title="Pythia 6 DIS event.">
<polygon fill="none" stroke="#000000" points="505.5,-195.5 505.5,-215.5 613.5,-215.5 613.5,-195.5 505.5,-195.5"/>
<text text-anchor="middle" x="559.5" y="-202.5" font-family="FreeSans" font-size="10.00" fill="#000000">erhic::EventPythia</text>
</a>
</g>
</g>
<!-- Node1&#45;&gt;Node11 -->
<g id="edge10" class="edge">
<title>Node1&#45;&gt;Node11</title>
<path fill="none" stroke="#191970" d="M470.0448,-217.1814C481.6445,-215.6667 493.8432,-214.0737 505.3729,-212.5681"/>
<polygon fill="#191970" stroke="#191970" points="469.4997,-213.7228 460.0371,-218.4883 470.4062,-220.6639 469.4997,-213.7228"/>
</g>
<!-- Node13 -->
<g id="node13" class="node">
<title>Node13</title>
<g id="a_node13"><a xlink:href="../../d2/d84/classerhic_1_1EventRapgap.html" target="_top" xlink:title="erhic::EventRapgap">
<polygon fill="none" stroke="#000000" points="501.5,-156.5 501.5,-176.5 617.5,-176.5 617.5,-156.5 501.5,-156.5"/>
<text text-anchor="middle" x="559.5" y="-163.5" font-family="FreeSans" font-size="10.00" fill="#000000">erhic::EventRapgap</text>
</a>
</g>
</g>
<!-- Node1&#45;&gt;Node13 -->
<g id="edge12" class="edge">
<title>Node1&#45;&gt;Node13</title>
<path fill="none" stroke="#191970" d="M442.2877,-209.7269C457.8777,-201.9228 477.7243,-192.5326 496,-185.5 504.4842,-182.2352 513.7792,-179.176 522.5766,-176.5065"/>
<polygon fill="#191970" stroke="#191970" points="440.5174,-206.7002 433.1828,-214.3458 443.6844,-212.9429 440.5174,-206.7002"/>
</g>
<!-- Node14 -->
<g id="node14" class="node">
<title>Node14</title>
<g id="a_node14"><a xlink:href="../../d8/d97/classerhic_1_1EventSartre.html" target="_top" xlink:title="erhic::EventSartre">
<polygon fill="none" stroke="#000000" points="506,-117.5 506,-137.5 613,-137.5 613,-117.5 506,-117.5"/>
<text text-anchor="middle" x="559.5" y="-124.5" font-family="FreeSans" font-size="10.00" fill="#000000">erhic::EventSartre</text>
</a>
</g>
</g>
<!-- Node1&#45;&gt;Node14 -->
<g id="edge13" class="edge">
<title>Node1&#45;&gt;Node14</title>
<path fill="none" stroke="#191970" d="M428.5171,-206.4223C443.6225,-188.746 468.8325,-162.2566 496,-146.5 502.1716,-142.9206 509.0784,-139.9605 516.0023,-137.5297"/>
<polygon fill="#191970" stroke="#191970" points="425.6608,-204.3828 421.9491,-214.3062 431.039,-208.8633 425.6608,-204.3828"/>
</g>
<!-- Node15 -->
<g id="node15" class="node">
<title>Node15</title>
<g id="a_node15"><a xlink:href="../../d2/da5/classerhic_1_1EventSimple.html" target="_top" xlink:title="erhic::EventSimple">
<polygon fill="none" stroke="#000000" points="504,-78.5 504,-98.5 615,-98.5 615,-78.5 504,-78.5"/>
<text text-anchor="middle" x="559.5" y="-85.5" font-family="FreeSans" font-size="10.00" fill="#000000">erhic::EventSimple</text>
</a>
</g>
</g>
<!-- Node1&#45;&gt;Node15 -->
<g id="edge14" class="edge">
<title>Node1&#45;&gt;Node15</title>
<path fill="none" stroke="#191970" d="M422.5282,-205.0977C434.9541,-179.0602 460.4864,-133.1287 496,-107.5 501.0388,-103.8637 506.7773,-100.916 512.6961,-98.5283"/>
<polygon fill="#191970" stroke="#191970" points="419.2845,-203.7739 418.2799,-214.321 425.6425,-206.7024 419.2845,-203.7739"/>
</g>
<!-- Node16 -->
<g id="node16" class="node">
<title>Node16</title>
<g id="a_node16"><a xlink:href="../../d1/d50/classEventEicMC.html" target="_top" xlink:title="EventEicMC">
<polygon fill="none" stroke="#000000" points="521.5,-39.5 521.5,-59.5 597.5,-59.5 597.5,-39.5 521.5,-39.5"/>
<text text-anchor="middle" x="559.5" y="-46.5" font-family="FreeSans" font-size="10.00" fill="#000000">EventEicMC</text>
</a>
</g>
</g>
<!-- Node1&#45;&gt;Node16 -->
<g id="edge15" class="edge">
<title>Node1&#45;&gt;Node16</title>
<path fill="none" stroke="#191970" d="M419.052,-204.4696C428.466,-171.2544 451.8577,-104.8426 496,-68.5 503.2847,-62.5025 512.4177,-58.3977 521.4676,-55.5885"/>
<polygon fill="#191970" stroke="#191970" points="415.6066,-203.8037 416.3855,-214.3698 422.3658,-205.6242 415.6066,-203.8037"/>
</g>
<!-- Node17 -->
<g id="node17" class="node">
<title>Node17</title>
<g id="a_node17"><a xlink:href="../../d3/db8/classEventProMC.html" target="_top" xlink:title="EventProMC">
<polygon fill="none" stroke="#000000" points="521,-.5 521,-20.5 598,-20.5 598,-.5 521,-.5"/>
<text text-anchor="middle" x="559.5" y="-7.5" font-family="FreeSans" font-size="10.00" fill="#000000">EventProMC</text>
</a>
</g>
</g>
<!-- Node1&#45;&gt;Node17 -->
<g id="edge16" class="edge">
<title>Node1&#45;&gt;Node17</title>
<path fill="none" stroke="#191970" d="M416.7438,-204.2744C423.1757,-164.795 442.9142,-77.1734 496,-29.5 502.9349,-23.2722 511.8384,-19.0833 520.7706,-16.2665"/>
<polygon fill="#191970" stroke="#191970" points="413.2672,-203.8572 415.2371,-214.2672 420.189,-204.9008 413.2672,-203.8572"/>
</g>
<!-- Node2 -->
<g id="node2" class="node">
<title>Node2</title>
<g id="a_node2"><a xlink:href="../../dc/db4/classerhic_1_1EventDis.html" target="_top" xlink:title="erhic::EventDis">
<polygon fill="none" stroke="#000000" points="239,-214.5 239,-234.5 332,-234.5 332,-214.5 239,-214.5"/>
<text text-anchor="middle" x="285.5" y="-221.5" font-family="FreeSans" font-size="10.00" fill="#000000">erhic::EventDis</text>
</a>
</g>
</g>
<!-- Node2&#45;&gt;Node1 -->
<g id="edge1" class="edge">
<title>Node2&#45;&gt;Node1</title>
<path fill="none" stroke="#191970" d="M342.5028,-224.5C351.0073,-224.5 359.6834,-224.5 367.9247,-224.5"/>
<polygon fill="#191970" stroke="#191970" points="342.255,-221.0001 332.255,-224.5 342.2549,-228.0001 342.255,-221.0001"/>
</g>
<!-- Node3 -->
<g id="node3" class="node">
<title>Node3</title>
<g id="a_node3"><a xlink:href="../../da/d46/classerhic_1_1VirtualEvent.html" target="_top" xlink:title="Abstract base class for a physics event.">
<polygon fill="none" stroke="#000000" points="93,-214.5 93,-234.5 203,-234.5 203,-214.5 93,-214.5"/>
<text text-anchor="middle" x="148" y="-221.5" font-family="FreeSans" font-size="10.00" fill="#000000">erhic::VirtualEvent</text>
</a>
</g>
</g>
<!-- Node3&#45;&gt;Node2 -->
<g id="edge2" class="edge">
<title>Node3&#45;&gt;Node2</title>
<path fill="none" stroke="#191970" d="M213.1943,-224.5C221.8211,-224.5 230.5227,-224.5 238.7539,-224.5"/>
<polygon fill="#191970" stroke="#191970" points="213.1343,-221.0001 203.1342,-224.5 213.1342,-228.0001 213.1343,-221.0001"/>
</g>
<!-- Node4 -->
<g id="node4" class="node">
<title>Node4</title>
<g id="a_node4"><a xlink:href="../../d5/d0f/classTObject.html" target="_top" xlink:title="TObject">
<polygon fill="none" stroke="#000000" points="0,-214.5 0,-234.5 57,-234.5 57,-214.5 0,-214.5"/>
<text text-anchor="middle" x="28.5" y="-221.5" font-family="FreeSans" font-size="10.00" fill="#000000">TObject</text>
</a>
</g>
</g>
<!-- Node4&#45;&gt;Node3 -->
<g id="edge3" class="edge">
<title>Node4&#45;&gt;Node3</title>
<path fill="none" stroke="#191970" d="M67.1558,-224.5C75.3787,-224.5 84.213,-224.5 92.9147,-224.5"/>
<polygon fill="#191970" stroke="#191970" points="67.1233,-221.0001 57.1232,-224.5 67.1232,-228.0001 67.1233,-221.0001"/>
</g>
<!-- Node12 -->
<g id="node12" class="node">
<title>Node12</title>
<g id="a_node12"><a xlink:href="../../dc/db7/classerhic_1_1EventBeagle.html" target="_top" xlink:title="erhic::EventBeagle">
<polygon fill="none" stroke="#000000" points="659,-195.5 659,-215.5 771,-215.5 771,-195.5 659,-195.5"/>
<text text-anchor="middle" x="715" y="-202.5" font-family="FreeSans" font-size="10.00" fill="#000000">erhic::EventBeagle</text>
</a>
</g>
</g>
<!-- Node11&#45;&gt;Node12 -->
<g id="edge11" class="edge">
<title>Node11&#45;&gt;Node12</title>
<path fill="none" stroke="#191970" d="M623.9262,-205.5C635.5003,-205.5 647.4805,-205.5 658.7991,-205.5"/>
<polygon fill="#191970" stroke="#191970" points="623.8864,-202.0001 613.8864,-205.5 623.8863,-209.0001 623.8864,-202.0001"/>
</g>
</g>
</svg>
