<?xml version="1.0" encoding="UTF-8" standalone="no"?>
<!DOCTYPE svg PUBLIC "-//W3C//DTD SVG 1.1//EN"
 "http://www.w3.org/Graphics/SVG/1.1/DTD/svg11.dtd">
<!-- Generated by graphviz version 2.40.1 (20161225.0304)
 -->
<!-- Title: fun4all_acts/blob/master/Core/include/Acts/Material/AccumulatedVolumeMaterial.hpp Pages: 1 -->
<svg width="335pt" height="281pt"
 viewBox="0.00 0.00 335.00 281.00" xmlns="http://www.w3.org/2000/svg" xmlns:xlink="http://www.w3.org/1999/xlink">
<g id="graph0" class="graph" transform="scale(1 1) rotate(0) translate(4 277)">
<title>fun4all_acts/blob/master/Core/include/Acts/Material/AccumulatedVolumeMaterial.hpp</title>
<!-- Node1 -->
<g id="node1" class="node">
<title>Node1</title>
<polygon fill="#bfbfbf" stroke="#000000" points="0,-228.5 0,-272.5 188,-272.5 188,-228.5 0,-228.5"/>
<text text-anchor="start" x="8" y="-259.5" font-family="FreeSans" font-size="10.00" fill="#000000">fun4all_acts/blob/master</text>
<text text-anchor="start" x="8" y="-247.5" font-family="FreeSans" font-size="10.00" fill="#000000">/Core/include/Acts/Material</text>
<text text-anchor="middle" x="94" y="-235.5" font-family="FreeSans" font-size="10.00" fill="#000000">/AccumulatedVolumeMaterial.hpp</text>
</g>
<!-- Node2 -->
<g id="node2" class="node">
<title>Node2</title>
<polygon fill="none" stroke="#bfbfbf" points="24,-57.5 24,-77.5 68,-77.5 68,-57.5 24,-57.5"/>
<text text-anchor="middle" x="46" y="-64.5" font-family="FreeSans" font-size="10.00" fill="#000000">limits</text>
</g>
<!-- Node1&#45;&gt;Node2 -->
<g id="edge1" class="edge">
<title>Node1&#45;&gt;Node2</title>
<path fill="none" stroke="#191970" d="M82.5185,-228.2173C71.479,-205.4722 55.5345,-168.8067 49,-135 45.9738,-119.3439 45.3156,-101.282 45.3638,-87.7837"/>
<polygon fill="#191970" stroke="#191970" points="48.8651,-87.7291 45.534,-77.6716 41.8661,-87.6113 48.8651,-87.7291"/>
</g>
<!-- Node3 -->
<g id="node3" class="node">
<title>Node3</title>
<g id="a_node3"><a xlink:href="../../d2/ddb/MaterialProperties_8hpp.html" target="_top" xlink:title="Acts/Material/MaterialProperties.hpp">
<polygon fill="none" stroke="#000000" points="78.5,-171.5 78.5,-191.5 279.5,-191.5 279.5,-171.5 78.5,-171.5"/>
<text text-anchor="middle" x="179" y="-178.5" font-family="FreeSans" font-size="10.00" fill="#000000">Acts/Material/MaterialProperties.hpp</text>
</a>
</g>
</g>
<!-- Node1&#45;&gt;Node3 -->
<g id="edge2" class="edge">
<title>Node1&#45;&gt;Node3</title>
<path fill="none" stroke="#191970" d="M121.3624,-228.2882C133.4286,-218.4933 147.3673,-207.1783 158.5148,-198.1292"/>
<polygon fill="#191970" stroke="#191970" points="160.8599,-200.7336 166.4179,-191.7137 156.4481,-195.2988 160.8599,-200.7336"/>
</g>
<!-- Node4 -->
<g id="node4" class="node">
<title>Node4</title>
<polygon fill="none" stroke="#bfbfbf" points="279,-57.5 279,-77.5 327,-77.5 327,-57.5 279,-57.5"/>
<text text-anchor="middle" x="303" y="-64.5" font-family="FreeSans" font-size="10.00" fill="#000000">iosfwd</text>
</g>
<!-- Node3&#45;&gt;Node4 -->
<g id="edge3" class="edge">
<title>Node3&#45;&gt;Node4</title>
<path fill="none" stroke="#191970" d="M222.8844,-171.4665C244.0793,-164.52 268.2652,-153.1537 284,-135 295.3102,-121.9511 299.9199,-102.6398 301.7822,-88.0118"/>
<polygon fill="#191970" stroke="#191970" points="305.2794,-88.205 302.7361,-77.9199 298.3105,-87.5461 305.2794,-88.205"/>
</g>
<!-- Node5 -->
<g id="node5" class="node">
<title>Node5</title>
<polygon fill="none" stroke="#bfbfbf" points="58.5,-114.5 58.5,-134.5 107.5,-134.5 107.5,-114.5 58.5,-114.5"/>
<text text-anchor="middle" x="83" y="-121.5" font-family="FreeSans" font-size="10.00" fill="#000000">vector</text>
</g>
<!-- Node3&#45;&gt;Node5 -->
<g id="edge4" class="edge">
<title>Node3&#45;&gt;Node5</title>
<path fill="none" stroke="#191970" d="M161.8371,-171.3095C147.0936,-162.5556 125.6188,-149.8049 108.804,-139.8211"/>
<polygon fill="#191970" stroke="#191970" points="110.3998,-136.6982 100.0143,-134.6022 106.8259,-142.7172 110.3998,-136.6982"/>
</g>
<!-- Node6 -->
<g id="node6" class="node">
<title>Node6</title>
<g id="a_node6"><a xlink:href="../../d0/d70/Material_8hpp.html" target="_top" xlink:title="Acts/Material/Material.hpp">
<polygon fill="none" stroke="#000000" points="125,-114.5 125,-134.5 275,-134.5 275,-114.5 125,-114.5"/>
<text text-anchor="middle" x="200" y="-121.5" font-family="FreeSans" font-size="10.00" fill="#000000">Acts/Material/Material.hpp</text>
</a>
</g>
</g>
<!-- Node3&#45;&gt;Node6 -->
<g id="edge5" class="edge">
<title>Node3&#45;&gt;Node6</title>
<path fill="none" stroke="#191970" d="M182.7544,-171.3095C185.5316,-163.7714 189.4007,-153.2696 192.7705,-144.123"/>
<polygon fill="#191970" stroke="#191970" points="196.1052,-145.1957 196.2781,-134.6022 189.5368,-142.7757 196.1052,-145.1957"/>
</g>
<!-- Node6&#45;&gt;Node2 -->
<g id="edge7" class="edge">
<title>Node6&#45;&gt;Node2</title>
<path fill="none" stroke="#191970" d="M172.8224,-114.4408C146.3674,-104.649 106.162,-89.7677 78.135,-79.3941"/>
<polygon fill="#191970" stroke="#191970" points="79.0015,-75.9828 68.4084,-75.794 76.5717,-82.5476 79.0015,-75.9828"/>
</g>
<!-- Node6&#45;&gt;Node4 -->
<g id="edge6" class="edge">
<title>Node6&#45;&gt;Node4</title>
<path fill="none" stroke="#191970" d="M218.4143,-114.3095C234.3794,-105.4745 257.7009,-92.5684 275.8143,-82.5445"/>
<polygon fill="#191970" stroke="#191970" points="277.6902,-85.5066 284.7451,-77.6022 274.3008,-79.3819 277.6902,-85.5066"/>
</g>
<!-- Node7 -->
<g id="node7" class="node">
<title>Node7</title>
<g id="a_node7"><a xlink:href="../../d6/d1d/Definitions_8hpp.html" target="_top" xlink:title="Acts/Utilities/Definitions.hpp">
<polygon fill="none" stroke="#000000" points="101,-57.5 101,-77.5 261,-77.5 261,-57.5 101,-57.5"/>
<text text-anchor="middle" x="181" y="-64.5" font-family="FreeSans" font-size="10.00" fill="#000000">Acts/Utilities/Definitions.hpp</text>
</a>
</g>
</g>
<!-- Node6&#45;&gt;Node7 -->
<g id="edge8" class="edge">
<title>Node6&#45;&gt;Node7</title>
<path fill="none" stroke="#191970" d="M196.6032,-114.3095C194.0905,-106.7714 190.5899,-96.2696 187.541,-87.123"/>
<polygon fill="#191970" stroke="#191970" points="190.8502,-85.9823 184.3674,-77.6022 184.2094,-88.1959 190.8502,-85.9823"/>
</g>
<!-- Node8 -->
<g id="node8" class="node">
<title>Node8</title>
<polygon fill="none" stroke="#bfbfbf" points="141,-.5 141,-20.5 221,-20.5 221,-.5 141,-.5"/>
<text text-anchor="middle" x="181" y="-7.5" font-family="FreeSans" font-size="10.00" fill="#000000">Eigen/Dense</text>
</g>
<!-- Node7&#45;&gt;Node8 -->
<g id="edge9" class="edge">
<title>Node7&#45;&gt;Node8</title>
<path fill="none" stroke="#191970" d="M181,-57.3095C181,-49.9335 181,-39.72 181,-30.715"/>
<polygon fill="#191970" stroke="#191970" points="184.5001,-30.6022 181,-20.6022 177.5001,-30.6023 184.5001,-30.6022"/>
</g>
</g>
</svg>
