<?xml version="1.0" encoding="UTF-8" standalone="no"?>
<!DOCTYPE svg PUBLIC "-//W3C//DTD SVG 1.1//EN"
 "http://www.w3.org/Graphics/SVG/1.1/DTD/svg11.dtd">
<!-- Generated by graphviz version 2.40.1 (20161225.0304)
 -->
<!-- Title: fun4all_acts/blob/master/Fatras/src/Particle.cpp Pages: 1 -->
<svg width="930pt" height="293pt"
 viewBox="0.00 0.00 930.00 293.00" xmlns="http://www.w3.org/2000/svg" xmlns:xlink="http://www.w3.org/1999/xlink">
<g id="graph0" class="graph" transform="scale(1 1) rotate(0) translate(4 289)">
<title>fun4all_acts/blob/master/Fatras/src/Particle.cpp</title>
<!-- Node1 -->
<g id="node1" class="node">
<title>Node1</title>
<polygon fill="#bfbfbf" stroke="#000000" points="489,-252.5 489,-284.5 631,-284.5 631,-252.5 489,-252.5"/>
<text text-anchor="start" x="497" y="-271.5" font-family="FreeSans" font-size="10.00" fill="#000000">fun4all_acts/blob/master</text>
<text text-anchor="middle" x="560" y="-259.5" font-family="FreeSans" font-size="10.00" fill="#000000">/Fatras/src/Particle.cpp</text>
</g>
<!-- Node2 -->
<g id="node2" class="node">
<title>Node2</title>
<g id="a_node2"><a xlink:href="../../d3/d65/Particle_8hpp.html" target="_top" xlink:title="ActsFatras/EventData\l/Particle.hpp">
<polygon fill="none" stroke="#000000" points="397.5,-183.5 397.5,-215.5 522.5,-215.5 522.5,-183.5 397.5,-183.5"/>
<text text-anchor="start" x="405.5" y="-202.5" font-family="FreeSans" font-size="10.00" fill="#000000">ActsFatras/EventData</text>
<text text-anchor="middle" x="460" y="-190.5" font-family="FreeSans" font-size="10.00" fill="#000000">/Particle.hpp</text>
</a>
</g>
</g>
<!-- Node1&#45;&gt;Node2 -->
<g id="edge1" class="edge">
<title>Node1&#45;&gt;Node2</title>
<path fill="none" stroke="#191970" d="M536.8066,-252.4966C523.3983,-243.2448 506.3385,-231.4736 491.7042,-221.3759"/>
<polygon fill="#191970" stroke="#191970" points="493.6326,-218.4542 483.414,-215.6557 489.6571,-224.2157 493.6326,-218.4542"/>
</g>
<!-- Node19 -->
<g id="node19" class="node">
<title>Node19</title>
<g id="a_node19"><a xlink:href="../../dc/d33/ParticleData_8hpp.html" target="_top" xlink:title="ActsFatras/Utilities\l/ParticleData.hpp">
<polygon fill="none" stroke="#000000" points="709.5,-183.5 709.5,-215.5 820.5,-215.5 820.5,-183.5 709.5,-183.5"/>
<text text-anchor="start" x="717.5" y="-202.5" font-family="FreeSans" font-size="10.00" fill="#000000">ActsFatras/Utilities</text>
<text text-anchor="middle" x="765" y="-190.5" font-family="FreeSans" font-size="10.00" fill="#000000">/ParticleData.hpp</text>
</a>
</g>
</g>
<!-- Node1&#45;&gt;Node19 -->
<g id="edge21" class="edge">
<title>Node1&#45;&gt;Node19</title>
<path fill="none" stroke="#191970" d="M607.5464,-252.4966C637.4526,-242.4306 676.2201,-229.382 707.8035,-218.7515"/>
<polygon fill="#191970" stroke="#191970" points="708.9958,-222.0432 717.3568,-215.536 706.7627,-215.4089 708.9958,-222.0432"/>
</g>
<!-- Node3 -->
<g id="node3" class="node">
<title>Node3</title>
<polygon fill="none" stroke="#bfbfbf" points="0,-120.5 0,-140.5 48,-140.5 48,-120.5 0,-120.5"/>
<text text-anchor="middle" x="24" y="-127.5" font-family="FreeSans" font-size="10.00" fill="#000000">cmath</text>
</g>
<!-- Node2&#45;&gt;Node3 -->
<g id="edge2" class="edge">
<title>Node2&#45;&gt;Node3</title>
<path fill="none" stroke="#191970" d="M397.4235,-193.9165C300.6013,-184.8442 119.1621,-165.9973 57,-147 54.8598,-146.3459 52.6892,-145.5631 50.5362,-144.6988"/>
<polygon fill="#191970" stroke="#191970" points="51.9128,-141.48 41.3602,-140.5349 49.0202,-147.8544 51.9128,-141.48"/>
</g>
<!-- Node4 -->
<g id="node4" class="node">
<title>Node4</title>
<polygon fill="none" stroke="#bfbfbf" points="578,-57.5 578,-77.5 626,-77.5 626,-57.5 578,-57.5"/>
<text text-anchor="middle" x="602" y="-64.5" font-family="FreeSans" font-size="10.00" fill="#000000">iosfwd</text>
</g>
<!-- Node2&#45;&gt;Node4 -->
<g id="edge3" class="edge">
<title>Node2&#45;&gt;Node4</title>
<path fill="none" stroke="#191970" d="M522.7602,-185.2412C544.652,-177.3439 567.5758,-165.2757 583,-147 596.9649,-130.4534 601.0327,-105.3901 602.0402,-87.84"/>
<polygon fill="#191970" stroke="#191970" points="605.5469,-87.6528 602.3336,-77.5571 598.5497,-87.4531 605.5469,-87.6528"/>
</g>
<!-- Node5 -->
<g id="node5" class="node">
<title>Node5</title>
<polygon fill="none" stroke="#bfbfbf" points="387,-120.5 387,-140.5 431,-140.5 431,-120.5 387,-120.5"/>
<text text-anchor="middle" x="409" y="-127.5" font-family="FreeSans" font-size="10.00" fill="#000000">limits</text>
</g>
<!-- Node2&#45;&gt;Node5 -->
<g id="edge4" class="edge">
<title>Node2&#45;&gt;Node5</title>
<path fill="none" stroke="#191970" d="M448.1714,-183.4966C440.5391,-173.1706 430.587,-159.7059 422.6241,-148.9327"/>
<polygon fill="#191970" stroke="#191970" points="425.2564,-146.6055 416.4978,-140.6441 419.6271,-150.7663 425.2564,-146.6055"/>
</g>
<!-- Node6 -->
<g id="node6" class="node">
<title>Node6</title>
<g id="a_node6"><a xlink:href="../../d6/d1d/Definitions_8hpp.html" target="_top" xlink:title="Acts/Utilities/Definitions.hpp">
<polygon fill="none" stroke="#000000" points="66,-120.5 66,-140.5 226,-140.5 226,-120.5 66,-120.5"/>
<text text-anchor="middle" x="146" y="-127.5" font-family="FreeSans" font-size="10.00" fill="#000000">Acts/Utilities/Definitions.hpp</text>
</a>
</g>
</g>
<!-- Node2&#45;&gt;Node6 -->
<g id="edge5" class="edge">
<title>Node2&#45;&gt;Node6</title>
<path fill="none" stroke="#191970" d="M397.2121,-185.7027C340.0958,-173.1516 256.5813,-154.7997 201.7682,-142.7548"/>
<polygon fill="#191970" stroke="#191970" points="202.3984,-139.3098 191.8802,-140.582 200.8959,-146.1467 202.3984,-139.3098"/>
</g>
<!-- Node8 -->
<g id="node8" class="node">
<title>Node8</title>
<g id="a_node8"><a xlink:href="../../d0/d47/PdgParticle_8hpp.html" target="_top" xlink:title="Acts/Utilities/PdgParticle.hpp">
<polygon fill="none" stroke="#000000" points="630,-120.5 630,-140.5 792,-140.5 792,-120.5 630,-120.5"/>
<text text-anchor="middle" x="711" y="-127.5" font-family="FreeSans" font-size="10.00" fill="#000000">Acts/Utilities/PdgParticle.hpp</text>
</a>
</g>
</g>
<!-- Node2&#45;&gt;Node8 -->
<g id="edge7" class="edge">
<title>Node2&#45;&gt;Node8</title>
<path fill="none" stroke="#191970" d="M518.2153,-183.4966C562.7671,-171.2493 623.3801,-154.5867 664.6696,-143.2363"/>
<polygon fill="#191970" stroke="#191970" points="665.7543,-146.568 674.4689,-140.5424 663.8988,-139.8184 665.7543,-146.568"/>
</g>
<!-- Node10 -->
<g id="node10" class="node">
<title>Node10</title>
<g id="a_node10"><a xlink:href="../../d5/dee/Barcode_8hpp.html" target="_top" xlink:title="ActsFatras/EventData\l/Barcode.hpp">
<polygon fill="none" stroke="#000000" points="244.5,-114.5 244.5,-146.5 369.5,-146.5 369.5,-114.5 244.5,-114.5"/>
<text text-anchor="start" x="252.5" y="-133.5" font-family="FreeSans" font-size="10.00" fill="#000000">ActsFatras/EventData</text>
<text text-anchor="middle" x="307" y="-121.5" font-family="FreeSans" font-size="10.00" fill="#000000">/Barcode.hpp</text>
</a>
</g>
</g>
<!-- Node2&#45;&gt;Node10 -->
<g id="edge9" class="edge">
<title>Node2&#45;&gt;Node10</title>
<path fill="none" stroke="#191970" d="M424.5142,-183.4966C402.8674,-173.7343 375.0001,-161.1667 351.8361,-150.7202"/>
<polygon fill="#191970" stroke="#191970" points="353.1129,-147.4566 342.5581,-146.536 350.2351,-153.8377 353.1129,-147.4566"/>
</g>
<!-- Node18 -->
<g id="node18" class="node">
<title>Node18</title>
<g id="a_node18"><a xlink:href="../../d9/d53/ProcessType_8hpp.html" target="_top" xlink:title="ActsFatras/EventData\l/ProcessType.hpp">
<polygon fill="none" stroke="#000000" points="448.5,-114.5 448.5,-146.5 573.5,-146.5 573.5,-114.5 448.5,-114.5"/>
<text text-anchor="start" x="456.5" y="-133.5" font-family="FreeSans" font-size="10.00" fill="#000000">ActsFatras/EventData</text>
<text text-anchor="middle" x="511" y="-121.5" font-family="FreeSans" font-size="10.00" fill="#000000">/ProcessType.hpp</text>
</a>
</g>
</g>
<!-- Node2&#45;&gt;Node18 -->
<g id="edge18" class="edge">
<title>Node2&#45;&gt;Node18</title>
<path fill="none" stroke="#191970" d="M471.8286,-183.4966C478.0466,-175.084 485.8044,-164.5882 492.7718,-155.1617"/>
<polygon fill="#191970" stroke="#191970" points="495.7521,-157.0179 498.8814,-146.8958 490.1228,-152.8572 495.7521,-157.0179"/>
</g>
<!-- Node7 -->
<g id="node7" class="node">
<title>Node7</title>
<polygon fill="none" stroke="#bfbfbf" points="106,-57.5 106,-77.5 186,-77.5 186,-57.5 106,-57.5"/>
<text text-anchor="middle" x="146" y="-64.5" font-family="FreeSans" font-size="10.00" fill="#000000">Eigen/Dense</text>
</g>
<!-- Node6&#45;&gt;Node7 -->
<g id="edge6" class="edge">
<title>Node6&#45;&gt;Node7</title>
<path fill="none" stroke="#191970" d="M146,-120.378C146,-111.7041 146,-98.9355 146,-88.1186"/>
<polygon fill="#191970" stroke="#191970" points="149.5001,-87.8062 146,-77.8062 142.5001,-87.8062 149.5001,-87.8062"/>
</g>
<!-- Node9 -->
<g id="node9" class="node">
<title>Node9</title>
<polygon fill="none" stroke="#bfbfbf" points="485.5,-57.5 485.5,-77.5 536.5,-77.5 536.5,-57.5 485.5,-57.5"/>
<text text-anchor="middle" x="511" y="-64.5" font-family="FreeSans" font-size="10.00" fill="#000000">cstdint</text>
</g>
<!-- Node8&#45;&gt;Node9 -->
<g id="edge8" class="edge">
<title>Node8&#45;&gt;Node9</title>
<path fill="none" stroke="#191970" d="M678.8665,-120.378C642.7331,-108.9959 584.2163,-90.5631 546.6879,-78.7417"/>
<polygon fill="#191970" stroke="#191970" points="547.2852,-75.2604 536.6956,-75.5941 545.182,-81.9369 547.2852,-75.2604"/>
</g>
<!-- Node10&#45;&gt;Node9 -->
<g id="edge10" class="edge">
<title>Node10&#45;&gt;Node9</title>
<path fill="none" stroke="#191970" d="M359.0056,-114.4394C395.5417,-103.1562 443.4474,-88.3618 475.6259,-78.4243"/>
<polygon fill="#191970" stroke="#191970" points="476.9646,-81.6741 485.4865,-75.3792 474.899,-74.9858 476.9646,-81.6741"/>
</g>
<!-- Node11 -->
<g id="node11" class="node">
<title>Node11</title>
<g id="a_node11"><a xlink:href="../../d1/d01/MultiIndex_8hpp.html" target="_top" xlink:title="Acts/Utilities/MultiIndex.hpp">
<polygon fill="none" stroke="#000000" points="227.5,-57.5 227.5,-77.5 386.5,-77.5 386.5,-57.5 227.5,-57.5"/>
<text text-anchor="middle" x="307" y="-64.5" font-family="FreeSans" font-size="10.00" fill="#000000">Acts/Utilities/MultiIndex.hpp</text>
</a>
</g>
</g>
<!-- Node10&#45;&gt;Node11 -->
<g id="edge11" class="edge">
<title>Node10&#45;&gt;Node11</title>
<path fill="none" stroke="#191970" d="M307,-114.2759C307,-106.2654 307,-96.5159 307,-87.9952"/>
<polygon fill="#191970" stroke="#191970" points="310.5001,-87.7512 307,-77.7513 303.5001,-87.7513 310.5001,-87.7512"/>
</g>
<!-- Node12 -->
<g id="node12" class="node">
<title>Node12</title>
<polygon fill="none" stroke="#bfbfbf" points="115.5,-.5 115.5,-20.5 158.5,-20.5 158.5,-.5 115.5,-.5"/>
<text text-anchor="middle" x="137" y="-7.5" font-family="FreeSans" font-size="10.00" fill="#000000">array</text>
</g>
<!-- Node11&#45;&gt;Node12 -->
<g id="edge12" class="edge">
<title>Node11&#45;&gt;Node12</title>
<path fill="none" stroke="#191970" d="M276.3649,-57.481C249.9664,-48.8131 210.6009,-35.8062 168.2674,-21.4026"/>
<polygon fill="#191970" stroke="#191970" points="169.2102,-18.0262 158.6157,-18.1118 166.9512,-24.6517 169.2102,-18.0262"/>
</g>
<!-- Node13 -->
<g id="node13" class="node">
<title>Node13</title>
<polygon fill="none" stroke="#bfbfbf" points="176.5,-.5 176.5,-20.5 229.5,-20.5 229.5,-.5 176.5,-.5"/>
<text text-anchor="middle" x="203" y="-7.5" font-family="FreeSans" font-size="10.00" fill="#000000">cassert</text>
</g>
<!-- Node11&#45;&gt;Node13 -->
<g id="edge13" class="edge">
<title>Node11&#45;&gt;Node13</title>
<path fill="none" stroke="#191970" d="M288.4069,-57.3095C272.2868,-48.4745 248.7389,-35.5684 230.4497,-25.5445"/>
<polygon fill="#191970" stroke="#191970" points="231.8836,-22.3393 221.4321,-20.6022 228.5192,-28.4778 231.8836,-22.3393"/>
</g>
<!-- Node14 -->
<g id="node14" class="node">
<title>Node14</title>
<polygon fill="none" stroke="#bfbfbf" points="247.5,-.5 247.5,-20.5 296.5,-20.5 296.5,-.5 247.5,-.5"/>
<text text-anchor="middle" x="272" y="-7.5" font-family="FreeSans" font-size="10.00" fill="#000000">climits</text>
</g>
<!-- Node11&#45;&gt;Node14 -->
<g id="edge14" class="edge">
<title>Node11&#45;&gt;Node14</title>
<path fill="none" stroke="#191970" d="M300.7427,-57.3095C295.9647,-49.5282 289.2477,-38.589 283.5084,-29.2423"/>
<polygon fill="#191970" stroke="#191970" points="286.4184,-27.2925 278.2031,-20.6022 280.4532,-30.9554 286.4184,-27.2925"/>
</g>
<!-- Node15 -->
<g id="node15" class="node">
<title>Node15</title>
<polygon fill="none" stroke="#bfbfbf" points="314.5,-.5 314.5,-20.5 371.5,-20.5 371.5,-.5 314.5,-.5"/>
<text text-anchor="middle" x="343" y="-7.5" font-family="FreeSans" font-size="10.00" fill="#000000">ostream</text>
</g>
<!-- Node11&#45;&gt;Node15 -->
<g id="edge15" class="edge">
<title>Node11&#45;&gt;Node15</title>
<path fill="none" stroke="#191970" d="M313.4361,-57.3095C318.3506,-49.5282 325.2596,-38.589 331.1628,-29.2423"/>
<polygon fill="#191970" stroke="#191970" points="334.2389,-30.9261 336.6196,-20.6022 328.3204,-27.1881 334.2389,-30.9261"/>
</g>
<!-- Node16 -->
<g id="node16" class="node">
<title>Node16</title>
<polygon fill="none" stroke="#bfbfbf" points="390,-.5 390,-20.5 460,-20.5 460,-.5 390,-.5"/>
<text text-anchor="middle" x="425" y="-7.5" font-family="FreeSans" font-size="10.00" fill="#000000">type_traits</text>
</g>
<!-- Node11&#45;&gt;Node16 -->
<g id="edge16" class="edge">
<title>Node11&#45;&gt;Node16</title>
<path fill="none" stroke="#191970" d="M327.8244,-57.4408C346.4141,-48.461 373.865,-35.2008 394.8534,-25.0624"/>
<polygon fill="#191970" stroke="#191970" points="396.5048,-28.1517 403.9869,-20.6504 393.46,-21.8485 396.5048,-28.1517"/>
</g>
<!-- Node17 -->
<g id="node17" class="node">
<title>Node17</title>
<polygon fill="none" stroke="#bfbfbf" points="478.5,-.5 478.5,-20.5 523.5,-20.5 523.5,-.5 478.5,-.5"/>
<text text-anchor="middle" x="501" y="-7.5" font-family="FreeSans" font-size="10.00" fill="#000000">utility</text>
</g>
<!-- Node11&#45;&gt;Node17 -->
<g id="edge17" class="edge">
<title>Node11&#45;&gt;Node17</title>
<path fill="none" stroke="#191970" d="M343.4676,-57.4542C374.3202,-48.8613 419.9224,-35.9417 468.5463,-21.0634"/>
<polygon fill="#191970" stroke="#191970" points="469.778,-24.3465 478.3079,-18.0623 467.7209,-17.6556 469.778,-24.3465"/>
</g>
<!-- Node18&#45;&gt;Node4 -->
<g id="edge20" class="edge">
<title>Node18&#45;&gt;Node4</title>
<path fill="none" stroke="#191970" d="M534.4348,-114.2759C548.172,-104.7655 565.4499,-92.8039 579.0946,-83.3576"/>
<polygon fill="#191970" stroke="#191970" points="581.2331,-86.134 587.4628,-77.5642 577.2486,-80.3787 581.2331,-86.134"/>
</g>
<!-- Node18&#45;&gt;Node9 -->
<g id="edge19" class="edge">
<title>Node18&#45;&gt;Node9</title>
<path fill="none" stroke="#191970" d="M511,-114.2759C511,-106.2654 511,-96.5159 511,-87.9952"/>
<polygon fill="#191970" stroke="#191970" points="514.5001,-87.7512 511,-77.7513 507.5001,-87.7513 514.5001,-87.7512"/>
</g>
<!-- Node19&#45;&gt;Node4 -->
<g id="edge22" class="edge">
<title>Node19&#45;&gt;Node4</title>
<path fill="none" stroke="#191970" d="M781.089,-183.324C797.3027,-165.0363 817.7157,-135.0719 801,-114 780.7843,-88.5159 687.4309,-75.6822 636.0854,-70.4512"/>
<polygon fill="#191970" stroke="#191970" points="636.4021,-66.9655 626.1091,-69.4767 635.7214,-73.9324 636.4021,-66.9655"/>
</g>
<!-- Node19&#45;&gt;Node8 -->
<g id="edge24" class="edge">
<title>Node19&#45;&gt;Node8</title>
<path fill="none" stroke="#191970" d="M752.4756,-183.4966C744.3135,-173.0673 733.6458,-159.4363 725.1733,-148.6103"/>
<polygon fill="#191970" stroke="#191970" points="727.8583,-146.3621 718.9389,-140.6441 722.3457,-150.6763 727.8583,-146.3621"/>
</g>
<!-- Node20 -->
<g id="node20" class="node">
<title>Node20</title>
<polygon fill="none" stroke="#bfbfbf" points="848,-120.5 848,-140.5 922,-140.5 922,-120.5 848,-120.5"/>
<text text-anchor="middle" x="885" y="-127.5" font-family="FreeSans" font-size="10.00" fill="#000000">string_view</text>
</g>
<!-- Node19&#45;&gt;Node20 -->
<g id="edge23" class="edge">
<title>Node19&#45;&gt;Node20</title>
<path fill="none" stroke="#191970" d="M792.832,-183.4966C812.6759,-172.0863 839.1848,-156.8437 858.6785,-145.6348"/>
<polygon fill="#191970" stroke="#191970" points="860.4337,-148.6631 867.3581,-140.6441 856.9443,-142.5947 860.4337,-148.6631"/>
</g>
</g>
</svg>
