<?xml version="1.0" encoding="UTF-8" standalone="no"?>
<!DOCTYPE svg PUBLIC "-//W3C//DTD SVG 1.1//EN"
 "http://www.w3.org/Graphics/SVG/1.1/DTD/svg11.dtd">
<!-- Generated by graphviz version 2.40.1 (20161225.0304)
 -->
<!-- Title: PHG4EICMvtxDetector::ConstructMvtx Pages: 1 -->
<svg width="683pt" height="420pt"
 viewBox="0.00 0.00 683.00 419.57" xmlns="http://www.w3.org/2000/svg" xmlns:xlink="http://www.w3.org/1999/xlink">
<g id="graph0" class="graph" transform="scale(1 1) rotate(0) translate(4 415.5665)">
<title>PHG4EICMvtxDetector::ConstructMvtx</title>
<!-- Node1 -->
<g id="node1" class="node">
<title>Node1</title>
<polygon fill="#bfbfbf" stroke="#000000" points="0,-141.5 0,-173.5 129,-173.5 129,-141.5 0,-141.5"/>
<text text-anchor="start" x="8" y="-160.5" font-family="FreeSans" font-size="10.00" fill="#000000">PHG4EICMvtxDetector</text>
<text text-anchor="middle" x="64.5" y="-148.5" font-family="FreeSans" font-size="10.00" fill="#000000">::ConstructMvtx</text>
</g>
<!-- Node2 -->
<g id="node2" class="node">
<title>Node2</title>
<g id="a_node2"><a xlink:href="../../df/dfc/classPHG4EICMvtxDetector.html#a1e88acce3154f14a4dfd83123181bd6a" target="_top" xlink:title="PHG4EICMvtxDetector\l::ConstructMvtx_Layer">
<polygon fill="none" stroke="#000000" points="165,-302.5 165,-334.5 295,-334.5 295,-302.5 165,-302.5"/>
<text text-anchor="start" x="173" y="-321.5" font-family="FreeSans" font-size="10.00" fill="#000000">PHG4EICMvtxDetector</text>
<text text-anchor="middle" x="230" y="-309.5" font-family="FreeSans" font-size="10.00" fill="#000000">::ConstructMvtx_Layer</text>
</a>
</g>
</g>
<!-- Node1&#45;&gt;Node2 -->
<g id="edge1" class="edge">
<title>Node1&#45;&gt;Node2</title>
<path fill="none" stroke="#191970" d="M80.9738,-173.5259C110.3143,-202.0686 171.7356,-261.8198 205.8533,-295.0098"/>
<polygon fill="#191970" stroke="#191970" points="203.4916,-297.5954 213.1001,-302.0596 208.3727,-292.5778 203.4916,-297.5954"/>
</g>
<!-- Node3 -->
<g id="node3" class="node">
<title>Node3</title>
<g id="a_node3"><a xlink:href="../../d3/de7/classPHG4Detector.html#af5eefc46de6e61b788946ca0d0a7427c" target="_top" xlink:title="PHG4Detector::Verbosity">
<polygon fill="none" stroke="#000000" points="533,-211.5 533,-231.5 675,-231.5 675,-211.5 533,-211.5"/>
<text text-anchor="middle" x="604" y="-218.5" font-family="FreeSans" font-size="10.00" fill="#000000">PHG4Detector::Verbosity</text>
</a>
</g>
</g>
<!-- Node1&#45;&gt;Node3 -->
<g id="edge16" class="edge">
<title>Node1&#45;&gt;Node3</title>
<path fill="none" stroke="#191970" d="M122.4658,-173.5263C136.3393,-177.0758 151.1466,-180.6303 165,-183.5 238.1248,-198.6477 256.6932,-202.071 331,-209.5 395.1938,-215.9179 468.2206,-218.9035 522.5829,-220.2923"/>
<polygon fill="#191970" stroke="#191970" points="522.7718,-223.7979 532.8538,-220.5415 522.9416,-216.7999 522.7718,-223.7979"/>
</g>
<!-- Node7 -->
<g id="node7" class="node">
<title>Node7</title>
<g id="a_node7"><a xlink:href="../../df/dfc/classPHG4EICMvtxDetector.html#a9ce945897f248bd895452b6f5ce1bdf2" target="_top" xlink:title="PHG4EICMvtxDetector\l::FillPVArray">
<polygon fill="none" stroke="#000000" points="165.5,-141.5 165.5,-173.5 294.5,-173.5 294.5,-141.5 165.5,-141.5"/>
<text text-anchor="start" x="173.5" y="-160.5" font-family="FreeSans" font-size="10.00" fill="#000000">PHG4EICMvtxDetector</text>
<text text-anchor="middle" x="230" y="-148.5" font-family="FreeSans" font-size="10.00" fill="#000000">::FillPVArray</text>
</a>
</g>
</g>
<!-- Node1&#45;&gt;Node7 -->
<g id="edge6" class="edge">
<title>Node1&#45;&gt;Node7</title>
<path fill="none" stroke="#191970" d="M129.435,-157.5C137.8965,-157.5 146.6189,-157.5 155.2252,-157.5"/>
<polygon fill="#191970" stroke="#191970" points="155.2523,-161.0001 165.2523,-157.5 155.2522,-154.0001 155.2523,-161.0001"/>
</g>
<!-- Node11 -->
<g id="node11" class="node">
<title>Node11</title>
<g id="a_node11"><a xlink:href="../../d0/dfa/reader_8C.html#a262d195bd786506862f9ad0d1aeb76cf" target="_top" xlink:title="reader">
<polygon fill="none" stroke="#000000" points="205,-102.5 205,-122.5 255,-122.5 255,-102.5 205,-102.5"/>
<text text-anchor="middle" x="230" y="-109.5" font-family="FreeSans" font-size="10.00" fill="#000000">reader</text>
</a>
</g>
</g>
<!-- Node1&#45;&gt;Node11 -->
<g id="edge12" class="edge">
<title>Node1&#45;&gt;Node11</title>
<path fill="none" stroke="#191970" d="M123.7818,-141.3811C147.5855,-134.9088 174.2135,-127.6685 194.8538,-122.0564"/>
<polygon fill="#191970" stroke="#191970" points="196.0287,-125.3641 204.76,-119.3628 194.192,-118.6093 196.0287,-125.3641"/>
</g>
<!-- Node14 -->
<g id="node14" class="node">
<title>Node14</title>
<g id="a_node14"><a xlink:href="../../df/dfc/classPHG4EICMvtxDetector.html#aa4fb33a19505d70f2f1e6edf5a50d86c" target="_top" xlink:title="PHG4EICMvtxDetector\l::SetDisplayProperty">
<polygon fill="none" stroke="#000000" points="165.5,-51.5 165.5,-83.5 294.5,-83.5 294.5,-51.5 165.5,-51.5"/>
<text text-anchor="start" x="173.5" y="-70.5" font-family="FreeSans" font-size="10.00" fill="#000000">PHG4EICMvtxDetector</text>
<text text-anchor="middle" x="230" y="-58.5" font-family="FreeSans" font-size="10.00" fill="#000000">::SetDisplayProperty</text>
</a>
</g>
</g>
<!-- Node1&#45;&gt;Node14 -->
<g id="edge15" class="edge">
<title>Node1&#45;&gt;Node14</title>
<path fill="none" stroke="#191970" d="M86.9302,-141.4972C106.8373,-127.7181 137.0215,-107.8454 165,-93.5 168.9391,-91.4803 173.0731,-89.509 177.2667,-87.6133"/>
<polygon fill="#191970" stroke="#191970" points="178.7208,-90.7976 186.4902,-83.5942 175.9245,-84.3803 178.7208,-90.7976"/>
</g>
<!-- Node2&#45;&gt;Node3 -->
<g id="edge2" class="edge">
<title>Node2&#45;&gt;Node3</title>
<path fill="none" stroke="#191970" d="M246.094,-334.6771C264.68,-352.1016 297.0766,-378.7695 331,-389.5 401.3425,-411.7505 432.3191,-424.9901 497,-389.5 555.4961,-357.4034 586.599,-278.2502 598.371,-241.2096"/>
<polygon fill="#191970" stroke="#191970" points="601.7453,-242.1429 601.2997,-231.5574 595.0469,-240.1103 601.7453,-242.1429"/>
</g>
<!-- Node4 -->
<g id="node4" class="node">
<title>Node4</title>
<g id="a_node4"><a xlink:href="../../df/dfc/classPHG4EICMvtxDetector.html#aa262c92186066ce8d48c686d54fa4d28" target="_top" xlink:title="PHG4EICMvtxDetector\l::get_phistep">
<polygon fill="none" stroke="#000000" points="349.5,-347.5 349.5,-379.5 478.5,-379.5 478.5,-347.5 349.5,-347.5"/>
<text text-anchor="start" x="357.5" y="-366.5" font-family="FreeSans" font-size="10.00" fill="#000000">PHG4EICMvtxDetector</text>
<text text-anchor="middle" x="414" y="-354.5" font-family="FreeSans" font-size="10.00" fill="#000000">::get_phistep</text>
</a>
</g>
</g>
<!-- Node2&#45;&gt;Node4 -->
<g id="edge3" class="edge">
<title>Node2&#45;&gt;Node4</title>
<path fill="none" stroke="#191970" d="M295.1305,-334.4286C309.41,-337.9209 324.6361,-341.6447 339.2589,-345.2209"/>
<polygon fill="#191970" stroke="#191970" points="338.7217,-348.6926 349.267,-347.6686 340.3847,-341.893 338.7217,-348.6926"/>
</g>
<!-- Node5 -->
<g id="node5" class="node">
<title>Node5</title>
<g id="a_node5"><a xlink:href="../../df/de8/cemc_8C.html#a72d4716092b469b4bc1d816359a90e14" target="_top" xlink:title="cos">
<polygon fill="none" stroke="#000000" points="397.5,-308.5 397.5,-328.5 430.5,-328.5 430.5,-308.5 397.5,-308.5"/>
<text text-anchor="middle" x="414" y="-315.5" font-family="FreeSans" font-size="10.00" fill="#000000">cos</text>
</a>
</g>
</g>
<!-- Node2&#45;&gt;Node5 -->
<g id="edge4" class="edge">
<title>Node2&#45;&gt;Node5</title>
<path fill="none" stroke="#191970" d="M295.1305,-318.5C326.8668,-318.5 363.2793,-318.5 387.3514,-318.5"/>
<polygon fill="#191970" stroke="#191970" points="387.4821,-322.0001 397.482,-318.5 387.482,-315.0001 387.4821,-322.0001"/>
</g>
<!-- Node6 -->
<g id="node6" class="node">
<title>Node6</title>
<g id="a_node6"><a xlink:href="../../d3/de7/classPHG4Detector.html#a0be0f337e0bb4ef7d0754552ee7ba251" target="_top" xlink:title="PHG4Detector::OverlapCheck">
<polygon fill="none" stroke="#000000" points="331,-269.5 331,-289.5 497,-289.5 497,-269.5 331,-269.5"/>
<text text-anchor="middle" x="414" y="-276.5" font-family="FreeSans" font-size="10.00" fill="#000000">PHG4Detector::OverlapCheck</text>
</a>
</g>
</g>
<!-- Node2&#45;&gt;Node6 -->
<g id="edge5" class="edge">
<title>Node2&#45;&gt;Node6</title>
<path fill="none" stroke="#191970" d="M295.1305,-304.6952C315.2025,-300.4408 337.1451,-295.7899 356.6531,-291.6551"/>
<polygon fill="#191970" stroke="#191970" points="357.5529,-295.0422 366.6098,-289.5447 356.1014,-288.1943 357.5529,-295.0422"/>
</g>
<!-- Node7&#45;&gt;Node3 -->
<g id="edge7" class="edge">
<title>Node7&#45;&gt;Node3</title>
<path fill="none" stroke="#191970" d="M287.6909,-173.555C301.7875,-177.144 316.8786,-180.709 331,-183.5 395.0813,-196.1654 468.4438,-206.1281 522.97,-212.6694"/>
<polygon fill="#191970" stroke="#191970" points="522.5827,-216.148 532.9255,-213.8509 523.4077,-209.1967 522.5827,-216.148"/>
</g>
<!-- Node8 -->
<g id="node8" class="node">
<title>Node8</title>
<g id="a_node8"><a xlink:href="../../df/dfc/classPHG4EICMvtxDetector.html#a64bfed185b658d8911b35e76abc59c87" target="_top" xlink:title="PHG4EICMvtxDetector\l::get_layer">
<polygon fill="none" stroke="#000000" points="349.5,-141.5 349.5,-173.5 478.5,-173.5 478.5,-141.5 349.5,-141.5"/>
<text text-anchor="start" x="357.5" y="-160.5" font-family="FreeSans" font-size="10.00" fill="#000000">PHG4EICMvtxDetector</text>
<text text-anchor="middle" x="414" y="-148.5" font-family="FreeSans" font-size="10.00" fill="#000000">::get_layer</text>
</a>
</g>
</g>
<!-- Node7&#45;&gt;Node8 -->
<g id="edge8" class="edge">
<title>Node7&#45;&gt;Node8</title>
<path fill="none" stroke="#191970" d="M294.6128,-157.5C308.9998,-157.5 324.37,-157.5 339.1304,-157.5"/>
<polygon fill="#191970" stroke="#191970" points="339.2321,-161.0001 349.2321,-157.5 339.2321,-154.0001 339.2321,-161.0001"/>
</g>
<!-- Node9 -->
<g id="node9" class="node">
<title>Node9</title>
<g id="a_node9"><a xlink:href="../../df/dfc/classPHG4EICMvtxDetector.html#ac09227f6e2f86ec1ebb265609940d360" target="_top" xlink:title="PHG4EICMvtxDetector\l::get_stave">
<polygon fill="none" stroke="#000000" points="349.5,-90.5 349.5,-122.5 478.5,-122.5 478.5,-90.5 349.5,-90.5"/>
<text text-anchor="start" x="357.5" y="-109.5" font-family="FreeSans" font-size="10.00" fill="#000000">PHG4EICMvtxDetector</text>
<text text-anchor="middle" x="414" y="-97.5" font-family="FreeSans" font-size="10.00" fill="#000000">::get_stave</text>
</a>
</g>
</g>
<!-- Node7&#45;&gt;Node9 -->
<g id="edge9" class="edge">
<title>Node7&#45;&gt;Node9</title>
<path fill="none" stroke="#191970" d="M287.9662,-141.4333C306.4451,-136.3114 327.0565,-130.5985 346.1699,-125.3007"/>
<polygon fill="#191970" stroke="#191970" points="347.3074,-128.6175 356.0092,-122.5736 345.4376,-121.8718 347.3074,-128.6175"/>
</g>
<!-- Node10 -->
<g id="node10" class="node">
<title>Node10</title>
<g id="a_node10"><a xlink:href="../../df/dfc/classPHG4EICMvtxDetector.html#a6f55fea5c07d82b99df78255b3e3f21e" target="_top" xlink:title="PHG4EICMvtxDetector\l::FindSensor">
<polygon fill="none" stroke="#000000" points="349.5,-39.5 349.5,-71.5 478.5,-71.5 478.5,-39.5 349.5,-39.5"/>
<text text-anchor="start" x="357.5" y="-58.5" font-family="FreeSans" font-size="10.00" fill="#000000">PHG4EICMvtxDetector</text>
<text text-anchor="middle" x="414" y="-46.5" font-family="FreeSans" font-size="10.00" fill="#000000">::FindSensor</text>
</a>
</g>
</g>
<!-- Node7&#45;&gt;Node10 -->
<g id="edge10" class="edge">
<title>Node7&#45;&gt;Node10</title>
<path fill="none" stroke="#191970" d="M280.9323,-141.3588C285.9154,-138.7831 290.7074,-135.8429 295,-132.5 316.8901,-115.4529 308.579,-97.8424 331,-81.5 333.982,-79.3264 337.1511,-77.3309 340.4442,-75.4993"/>
<polygon fill="#191970" stroke="#191970" points="342.0248,-78.6222 349.4082,-71.0238 338.8979,-72.3594 342.0248,-78.6222"/>
</g>
<!-- Node10&#45;&gt;Node3 -->
<g id="edge11" class="edge">
<title>Node10&#45;&gt;Node3</title>
<path fill="none" stroke="#191970" d="M478.864,-71.4289C485.26,-74.2716 491.4339,-77.6023 497,-81.5 543.1529,-113.8185 578.2806,-172.0993 594.3581,-202.2568"/>
<polygon fill="#191970" stroke="#191970" points="591.3537,-204.066 599.0685,-211.3278 597.5661,-200.84 591.3537,-204.066"/>
</g>
<!-- Node12 -->
<g id="node12" class="node">
<title>Node12</title>
<g id="a_node12"><a xlink:href="../../d8/d51/classEicToyModel.html#a5e992ec670f1ccf5842edfc11423e42f" target="_top" xlink:title="EicToyModel::Import">
<polygon fill="none" stroke="#000000" points="354.5,-.5 354.5,-20.5 473.5,-20.5 473.5,-.5 354.5,-.5"/>
<text text-anchor="middle" x="414" y="-7.5" font-family="FreeSans" font-size="10.00" fill="#000000">EicToyModel::Import</text>
</a>
</g>
</g>
<!-- Node11&#45;&gt;Node12 -->
<g id="edge13" class="edge">
<title>Node11&#45;&gt;Node12</title>
<path fill="none" stroke="#191970" d="M255.2352,-109.728C268.2301,-107.2335 283.6777,-102.4959 295,-93.5 320.5522,-73.198 304.8567,-49.0349 331,-29.5 335.1853,-26.3726 339.797,-23.7466 344.6376,-21.5432"/>
<polygon fill="#191970" stroke="#191970" points="346.1425,-24.7127 354.1766,-17.806 343.5889,-18.1951 346.1425,-24.7127"/>
</g>
<!-- Node13 -->
<g id="node13" class="node">
<title>Node13</title>
<g id="a_node13"><a xlink:href="../../da/d23/msg__buffer_8cc.html#a98631211a4a8aee62f572375d5b637be" target="_top" xlink:title="printf">
<polygon fill="none" stroke="#000000" points="582,-.5 582,-20.5 626,-20.5 626,-.5 582,-.5"/>
<text text-anchor="middle" x="604" y="-7.5" font-family="FreeSans" font-size="10.00" fill="#000000">printf</text>
</a>
</g>
</g>
<!-- Node12&#45;&gt;Node13 -->
<g id="edge14" class="edge">
<title>Node12&#45;&gt;Node13</title>
<path fill="none" stroke="#191970" d="M473.5959,-10.5C505.9259,-10.5 544.6397,-10.5 571.4455,-10.5"/>
<polygon fill="#191970" stroke="#191970" points="571.7992,-14.0001 581.7992,-10.5 571.7992,-7.0001 571.7992,-14.0001"/>
</g>
</g>
</svg>
