<?xml version="1.0" encoding="UTF-8" standalone="no"?>
<!DOCTYPE svg PUBLIC "-//W3C//DTD SVG 1.1//EN"
 "http://www.w3.org/Graphics/SVG/1.1/DTD/svg11.dtd">
<!-- Generated by graphviz version 2.40.1 (20161225.0304)
 -->
<!-- Title: FairParGenericSet::write Pages: 1 -->
<svg width="281pt" height="68pt"
 viewBox="0.00 0.00 281.00 68.00" xmlns="http://www.w3.org/2000/svg" xmlns:xlink="http://www.w3.org/1999/xlink">
<g id="graph0" class="graph" transform="scale(1 1) rotate(0) translate(4 64)">
<title>FairParGenericSet::write</title>
<!-- Node1 -->
<g id="node1" class="node">
<title>Node1</title>
<polygon fill="#bfbfbf" stroke="#000000" points="0,-13.5 0,-45.5 112,-45.5 112,-13.5 0,-13.5"/>
<text text-anchor="start" x="8" y="-32.5" font-family="FreeSans" font-size="10.00" fill="#000000">FairParGenericSet::</text>
<text text-anchor="middle" x="56" y="-20.5" font-family="FreeSans" font-size="10.00" fill="#000000">write</text>
</g>
<!-- Node2 -->
<g id="node2" class="node">
<title>Node2</title>
<g id="a_node2"><a xlink:href="../../d0/d2e/classFairParIo.html#afa9d6096a7a53fe99bd5f188f38f7799" target="_top" xlink:title="FairParIo::getDetParIo">
<polygon fill="none" stroke="#000000" points="148,-39.5 148,-59.5 273,-59.5 273,-39.5 148,-39.5"/>
<text text-anchor="middle" x="210.5" y="-46.5" font-family="FreeSans" font-size="10.00" fill="#000000">FairParIo::getDetParIo</text>
</a>
</g>
</g>
<!-- Node1&#45;&gt;Node2 -->
<g id="edge1" class="edge">
<title>Node1&#45;&gt;Node2</title>
<path fill="none" stroke="#191970" d="M112.2151,-36.777C120.5249,-37.8527 129.1863,-38.974 137.7729,-40.0855"/>
<polygon fill="#191970" stroke="#191970" points="137.4263,-43.5697 147.7929,-41.3826 138.325,-36.6277 137.4263,-43.5697"/>
</g>
<!-- Node3 -->
<g id="node3" class="node">
<title>Node3</title>
<g id="a_node3"><a xlink:href="../../d7/d67/classFairDetParIo.html#a3048e676eb2bdba357c6efb0945e3598" target="_top" xlink:title="FairDetParIo::write">
<polygon fill="none" stroke="#000000" points="156,-.5 156,-20.5 265,-20.5 265,-.5 156,-.5"/>
<text text-anchor="middle" x="210.5" y="-7.5" font-family="FreeSans" font-size="10.00" fill="#000000">FairDetParIo::write</text>
</a>
</g>
</g>
<!-- Node1&#45;&gt;Node3 -->
<g id="edge2" class="edge">
<title>Node1&#45;&gt;Node3</title>
<path fill="none" stroke="#191970" d="M112.2151,-22.5868C123.1147,-21.2464 134.6191,-19.8316 145.7662,-18.4608"/>
<polygon fill="#191970" stroke="#191970" points="146.3774,-21.9121 155.8754,-17.2176 145.5229,-14.9644 146.3774,-21.9121"/>
</g>
</g>
</svg>
