<?xml version="1.0" encoding="UTF-8" standalone="no"?>
<!DOCTYPE svg PUBLIC "-//W3C//DTD SVG 1.1//EN"
 "http://www.w3.org/Graphics/SVG/1.1/DTD/svg11.dtd">
<!-- Generated by graphviz version 2.40.1 (20161225.0304)
 -->
<!-- Title: fun4all_eicdetectors/blob/master/simulation/g4simulation/g4eicdirc/G4DIRCTree.cc Pages: 1 -->
<svg width="2022pt" height="407pt"
 viewBox="0.00 0.00 2021.51 407.00" xmlns="http://www.w3.org/2000/svg" xmlns:xlink="http://www.w3.org/1999/xlink">
<g id="graph0" class="graph" transform="scale(1 1) rotate(0) translate(4 403)">
<title>fun4all_eicdetectors/blob/master/simulation/g4simulation/g4eicdirc/G4DIRCTree.cc</title>
<!-- Node1 -->
<g id="node1" class="node">
<title>Node1</title>
<polygon fill="#bfbfbf" stroke="#000000" points="1027.0129,-342.5 1027.0129,-398.5 1164.0129,-398.5 1164.0129,-342.5 1027.0129,-342.5"/>
<text text-anchor="start" x="1035.0129" y="-385.5" font-family="FreeSans" font-size="10.00" fill="#000000">fun4all_eicdetectors</text>
<text text-anchor="start" x="1035.0129" y="-373.5" font-family="FreeSans" font-size="10.00" fill="#000000">/blob/master/simulation</text>
<text text-anchor="start" x="1035.0129" y="-361.5" font-family="FreeSans" font-size="10.00" fill="#000000">/g4simulation/g4eicdirc</text>
<text text-anchor="middle" x="1095.5129" y="-349.5" font-family="FreeSans" font-size="10.00" fill="#000000">/G4DIRCTree.cc</text>
</g>
<!-- Node2 -->
<g id="node2" class="node">
<title>Node2</title>
<g id="a_node2"><a xlink:href="../../dd/ddd/G4DIRCTree_8h.html" target="_top" xlink:title="G4DIRCTree.h">
<polygon fill="none" stroke="#000000" points="893.0129,-285.5 893.0129,-305.5 978.0129,-305.5 978.0129,-285.5 893.0129,-285.5"/>
<text text-anchor="middle" x="935.5129" y="-292.5" font-family="FreeSans" font-size="10.00" fill="#000000">G4DIRCTree.h</text>
</a>
</g>
</g>
<!-- Node1&#45;&gt;Node2 -->
<g id="edge1" class="edge">
<title>Node1&#45;&gt;Node2</title>
<path fill="none" stroke="#191970" d="M1035.4795,-342.3594C1011.8565,-331.2861 985.752,-319.0496 966.144,-309.8583"/>
<polygon fill="#191970" stroke="#191970" points="967.6196,-306.6846 957.0795,-305.6094 964.6485,-313.0229 967.6196,-306.6846"/>
</g>
<!-- Node5 -->
<g id="node5" class="node">
<title>Node5</title>
<g id="a_node5"><a xlink:href="../../d5/dc2/SubsysReco_8h.html" target="_top" xlink:title="fun4all/SubsysReco.h">
<polygon fill="none" stroke="#000000" points="1033.5129,-228.5 1033.5129,-248.5 1157.5129,-248.5 1157.5129,-228.5 1033.5129,-228.5"/>
<text text-anchor="middle" x="1095.5129" y="-235.5" font-family="FreeSans" font-size="10.00" fill="#000000">fun4all/SubsysReco.h</text>
</a>
</g>
</g>
<!-- Node1&#45;&gt;Node5 -->
<g id="edge55" class="edge">
<title>Node1&#45;&gt;Node5</title>
<path fill="none" stroke="#191970" d="M1095.5129,-342.1827C1095.5129,-317.1532 1095.5129,-281.2499 1095.5129,-258.9306"/>
<polygon fill="#191970" stroke="#191970" points="1099.013,-258.6267 1095.5129,-248.6267 1092.013,-258.6267 1099.013,-258.6267"/>
</g>
<!-- Node12 -->
<g id="node12" class="node">
<title>Node12</title>
<g id="a_node12"><a xlink:href="../../d0/d4b/PrtHit_8h.html" target="_top" xlink:title="PrtHit.h">
<polygon fill="none" stroke="#000000" points="652.0129,-285.5 652.0129,-305.5 705.0129,-305.5 705.0129,-285.5 652.0129,-285.5"/>
<text text-anchor="middle" x="678.5129" y="-292.5" font-family="FreeSans" font-size="10.00" fill="#000000">PrtHit.h</text>
</a>
</g>
</g>
<!-- Node1&#45;&gt;Node12 -->
<g id="edge13" class="edge">
<title>Node1&#45;&gt;Node12</title>
<path fill="none" stroke="#191970" d="M1026.6538,-358.1153C937.3207,-342.0482 784.6918,-314.5969 715.0696,-302.075"/>
<polygon fill="#191970" stroke="#191970" points="715.4852,-298.5936 705.0236,-300.2681 714.2461,-305.4831 715.4852,-298.5936"/>
</g>
<!-- Node13 -->
<g id="node13" class="node">
<title>Node13</title>
<g id="a_node13"><a xlink:href="../../de/d83/PHG4Hit_8h.html" target="_top" xlink:title="g4main/PHG4Hit.h">
<polygon fill="none" stroke="#000000" points="287.5129,-171.5 287.5129,-191.5 397.5129,-191.5 397.5129,-171.5 287.5129,-171.5"/>
<text text-anchor="middle" x="342.5129" y="-178.5" font-family="FreeSans" font-size="10.00" fill="#000000">g4main/PHG4Hit.h</text>
</a>
</g>
</g>
<!-- Node1&#45;&gt;Node13 -->
<g id="edge35" class="edge">
<title>Node1&#45;&gt;Node13</title>
<path fill="none" stroke="#191970" d="M1026.9783,-364.7983C907.5758,-354.3719 666.4131,-330.9934 585.5129,-306 499.8587,-279.5379 408.1387,-224.2259 366.0627,-197.1327"/>
<polygon fill="#191970" stroke="#191970" points="367.9163,-194.1631 357.6245,-191.6471 364.1009,-200.032 367.9163,-194.1631"/>
</g>
<!-- Node17 -->
<g id="node17" class="node">
<title>Node17</title>
<polygon fill="none" stroke="#bfbfbf" points="849.5129,-.5 849.5129,-20.5 909.5129,-20.5 909.5129,-.5 849.5129,-.5"/>
<text text-anchor="middle" x="879.5129" y="-7.5" font-family="FreeSans" font-size="10.00" fill="#000000">iostream</text>
</g>
<!-- Node1&#45;&gt;Node17 -->
<g id="edge92" class="edge">
<title>Node1&#45;&gt;Node17</title>
<path fill="none" stroke="#191970" d="M1164.2235,-365.3362C1239.6513,-358.1104 1363.4658,-341.6253 1464.5129,-306 1482.7112,-299.584 1484.0582,-290.6367 1502.5129,-285 1676.611,-231.8246 1738.5385,-308.6874 1910.5129,-249 1962.2193,-231.0542 2013.5129,-236.2321 2013.5129,-181.5 2013.5129,-181.5 2013.5129,-181.5 2013.5129,-124.5 2013.5129,-70.5091 1963.8125,-73.8332 1912.5129,-57 1817.0281,-25.6682 1098.2906,-13.5717 919.6263,-11.0317"/>
<polygon fill="#191970" stroke="#191970" points="919.6494,-7.5318 909.6013,-10.8912 919.5512,-14.5311 919.6494,-7.5318"/>
</g>
<!-- Node18 -->
<g id="node18" class="node">
<title>Node18</title>
<polygon fill="none" stroke="#bfbfbf" points="23.5129,-114.5 23.5129,-134.5 71.5129,-134.5 71.5129,-114.5 23.5129,-114.5"/>
<text text-anchor="middle" x="47.5129" y="-121.5" font-family="FreeSans" font-size="10.00" fill="#000000">cmath</text>
</g>
<!-- Node1&#45;&gt;Node18 -->
<g id="edge90" class="edge">
<title>Node1&#45;&gt;Node18</title>
<path fill="none" stroke="#191970" d="M1026.9311,-368.1554C900.2916,-362.9579 621.5752,-347.4593 390.5129,-306 217.3783,-274.9346 113.9812,-334.9716 11.5129,-192 .0236,-175.9694 13.9774,-155.8237 27.7223,-141.7312"/>
<polygon fill="#191970" stroke="#191970" points="30.3761,-144.0356 35.1739,-134.5893 25.5325,-138.9819 30.3761,-144.0356"/>
</g>
<!-- Node19 -->
<g id="node19" class="node">
<title>Node19</title>
<polygon fill="none" stroke="#bfbfbf" points="750.0129,-114.5 750.0129,-134.5 795.0129,-134.5 795.0129,-114.5 750.0129,-114.5"/>
<text text-anchor="middle" x="772.5129" y="-121.5" font-family="FreeSans" font-size="10.00" fill="#000000">utility</text>
</g>
<!-- Node1&#45;&gt;Node19 -->
<g id="edge94" class="edge">
<title>Node1&#45;&gt;Node19</title>
<path fill="none" stroke="#191970" d="M1026.7434,-365.594C906.464,-356.3094 668.2496,-334.5172 643.5129,-306 593.7916,-248.6799 696.1521,-172.5584 746.6127,-140.1639"/>
<polygon fill="#191970" stroke="#191970" points="748.7876,-142.9304 755.3825,-134.6384 745.056,-137.0079 748.7876,-142.9304"/>
</g>
<!-- Node22 -->
<g id="node22" class="node">
<title>Node22</title>
<g id="a_node22"><a xlink:href="../../d3/d08/PHG4HitContainer_8h.html" target="_top" xlink:title="g4main/PHG4HitContainer.h">
<polygon fill="none" stroke="#000000" points="995.5129,-171.5 995.5129,-191.5 1153.5129,-191.5 1153.5129,-171.5 995.5129,-171.5"/>
<text text-anchor="middle" x="1074.5129" y="-178.5" font-family="FreeSans" font-size="10.00" fill="#000000">g4main/PHG4HitContainer.h</text>
</a>
</g>
</g>
<!-- Node1&#45;&gt;Node22 -->
<g id="edge36" class="edge">
<title>Node1&#45;&gt;Node22</title>
<path fill="none" stroke="#191970" d="M1126.6893,-342.3982C1155.3079,-313.074 1189.971,-266.1408 1166.5129,-228 1157.1862,-212.8358 1141.2164,-202.4353 1125.1744,-195.3862"/>
<polygon fill="#191970" stroke="#191970" points="1126.3547,-192.0885 1115.7705,-191.6123 1123.7476,-198.5849 1126.3547,-192.0885"/>
</g>
<!-- Node23 -->
<g id="node23" class="node">
<title>Node23</title>
<g id="a_node23"><a xlink:href="../../dd/d05/PHG4Particle_8h.html" target="_top" xlink:title="g4main/PHG4Particle.h">
<polygon fill="none" stroke="#000000" points="29.5129,-171.5 29.5129,-191.5 161.5129,-191.5 161.5129,-171.5 29.5129,-171.5"/>
<text text-anchor="middle" x="95.5129" y="-178.5" font-family="FreeSans" font-size="10.00" fill="#000000">g4main/PHG4Particle.h</text>
</a>
</g>
</g>
<!-- Node1&#45;&gt;Node23 -->
<g id="edge44" class="edge">
<title>Node1&#45;&gt;Node23</title>
<path fill="none" stroke="#191970" d="M1026.9241,-364.0951C849.9037,-347.0458 381.2083,-298.4711 233.5129,-249 192.5661,-235.2847 148.2128,-211.9177 121.141,-196.5939"/>
<polygon fill="#191970" stroke="#191970" points="122.7364,-193.4742 112.32,-191.5381 119.2555,-199.5474 122.7364,-193.4742"/>
</g>
<!-- Node24 -->
<g id="node24" class="node">
<title>Node24</title>
<g id="a_node24"><a xlink:href="../../d0/d25/PHG4TruthInfoContainer_8h.html" target="_top" xlink:title="g4main/PHG4TruthInfoContainer.h">
<polygon fill="none" stroke="#000000" points="453.5129,-171.5 453.5129,-191.5 641.5129,-191.5 641.5129,-171.5 453.5129,-171.5"/>
<text text-anchor="middle" x="547.5129" y="-178.5" font-family="FreeSans" font-size="10.00" fill="#000000">g4main/PHG4TruthInfoContainer.h</text>
</a>
</g>
</g>
<!-- Node1&#45;&gt;Node24 -->
<g id="edge49" class="edge">
<title>Node1&#45;&gt;Node24</title>
<path fill="none" stroke="#191970" d="M1026.9853,-369.1807C909.2875,-365.665 675.0461,-352.8195 609.5129,-306 574.3026,-280.8445 558.006,-229.8964 551.3975,-201.5952"/>
<polygon fill="#191970" stroke="#191970" points="554.78,-200.6763 549.2563,-191.6353 547.9363,-202.1476 554.78,-200.6763"/>
</g>
<!-- Node26 -->
<g id="node26" class="node">
<title>Node26</title>
<g id="a_node26"><a xlink:href="../../dd/dd4/getClass_8h.html" target="_top" xlink:title="phool/getClass.h">
<polygon fill="none" stroke="#000000" points="1355.5129,-285.5 1355.5129,-305.5 1455.5129,-305.5 1455.5129,-285.5 1355.5129,-285.5"/>
<text text-anchor="middle" x="1405.5129" y="-292.5" font-family="FreeSans" font-size="10.00" fill="#000000">phool/getClass.h</text>
</a>
</g>
</g>
<!-- Node1&#45;&gt;Node26 -->
<g id="edge56" class="edge">
<title>Node1&#45;&gt;Node26</title>
<path fill="none" stroke="#191970" d="M1164.3119,-353.8551C1221.6709,-339.9779 1302.1226,-320.5138 1354.0349,-307.9543"/>
<polygon fill="#191970" stroke="#191970" points="1355.125,-311.2917 1364.0215,-305.5382 1353.4789,-304.488 1355.125,-311.2917"/>
</g>
<!-- Node39 -->
<g id="node39" class="node">
<title>Node39</title>
<polygon fill="none" stroke="#bfbfbf" points="1511.5129,-285.5 1511.5129,-305.5 1561.5129,-305.5 1561.5129,-285.5 1511.5129,-285.5"/>
<text text-anchor="middle" x="1536.5129" y="-292.5" font-family="FreeSans" font-size="10.00" fill="#000000">TFile.h</text>
</g>
<!-- Node1&#45;&gt;Node39 -->
<g id="edge88" class="edge">
<title>Node1&#45;&gt;Node39</title>
<path fill="none" stroke="#191970" d="M1164.1993,-361.6933C1244.5569,-350.8799 1381.3979,-330.8757 1497.5129,-306 1498.7856,-305.7273 1500.0788,-305.439 1501.3828,-305.1387"/>
<polygon fill="#191970" stroke="#191970" points="1502.558,-308.454 1511.4309,-302.6641 1500.8841,-301.657 1502.558,-308.454"/>
</g>
<!-- Node40 -->
<g id="node40" class="node">
<title>Node40</title>
<polygon fill="none" stroke="#bfbfbf" points="1580.0129,-285.5 1580.0129,-305.5 1633.0129,-305.5 1633.0129,-285.5 1580.0129,-285.5"/>
<text text-anchor="middle" x="1606.5129" y="-292.5" font-family="FreeSans" font-size="10.00" fill="#000000">TTree.h</text>
</g>
<!-- Node1&#45;&gt;Node40 -->
<g id="edge89" class="edge">
<title>Node1&#45;&gt;Node40</title>
<path fill="none" stroke="#191970" d="M1164.1028,-364.4213C1254.9467,-355.6524 1420.1539,-337.2154 1570.0393,-305.8306"/>
<polygon fill="#191970" stroke="#191970" points="1570.8311,-309.2407 1579.8889,-303.7446 1569.3807,-302.3926 1570.8311,-309.2407"/>
</g>
<!-- Node41 -->
<g id="node41" class="node">
<title>Node41</title>
<polygon fill="none" stroke="#bfbfbf" points="1651.5129,-285.5 1651.5129,-305.5 1701.5129,-305.5 1701.5129,-285.5 1651.5129,-285.5"/>
<text text-anchor="middle" x="1676.5129" y="-292.5" font-family="FreeSans" font-size="10.00" fill="#000000">cstring</text>
</g>
<!-- Node1&#45;&gt;Node41 -->
<g id="edge91" class="edge">
<title>Node1&#45;&gt;Node41</title>
<path fill="none" stroke="#191970" d="M1164.3855,-366.4172C1266.7941,-359.4578 1465.1784,-342.5593 1641.4247,-305.9152"/>
<polygon fill="#191970" stroke="#191970" points="1642.332,-309.301 1651.3962,-303.8156 1640.8896,-302.4512 1642.332,-309.301"/>
</g>
<!-- Node42 -->
<g id="node42" class="node">
<title>Node42</title>
<polygon fill="none" stroke="#bfbfbf" points="1719.5129,-285.5 1719.5129,-305.5 1775.5129,-305.5 1775.5129,-285.5 1719.5129,-285.5"/>
<text text-anchor="middle" x="1747.5129" y="-292.5" font-family="FreeSans" font-size="10.00" fill="#000000">sstream</text>
</g>
<!-- Node1&#45;&gt;Node42 -->
<g id="edge93" class="edge">
<title>Node1&#45;&gt;Node42</title>
<path fill="none" stroke="#191970" d="M1164.3339,-367.1509C1276.7909,-360.8305 1506.8746,-344.3533 1709.4227,-305.9367"/>
<polygon fill="#191970" stroke="#191970" points="1710.1901,-309.3534 1719.3514,-304.0315 1708.871,-302.4788 1710.1901,-309.3534"/>
</g>
<!-- Node3 -->
<g id="node3" class="node">
<title>Node3</title>
<g id="a_node3"><a xlink:href="../../d0/daa/G4EventTree_8h.html" target="_top" xlink:title="G4EventTree.h">
<polygon fill="none" stroke="#000000" points="779.5129,-228.5 779.5129,-248.5 869.5129,-248.5 869.5129,-228.5 779.5129,-228.5"/>
<text text-anchor="middle" x="824.5129" y="-235.5" font-family="FreeSans" font-size="10.00" fill="#000000">G4EventTree.h</text>
</a>
</g>
</g>
<!-- Node2&#45;&gt;Node3 -->
<g id="edge2" class="edge">
<title>Node2&#45;&gt;Node3</title>
<path fill="none" stroke="#191970" d="M915.9238,-285.4408C898.5944,-276.5419 873.079,-263.4394 853.4062,-253.3371"/>
<polygon fill="#191970" stroke="#191970" points="854.774,-250.105 844.2795,-248.6504 851.5763,-256.332 854.774,-250.105"/>
</g>
<!-- Node2&#45;&gt;Node5 -->
<g id="edge4" class="edge">
<title>Node2&#45;&gt;Node5</title>
<path fill="none" stroke="#191970" d="M963.7493,-285.4408C989.8308,-276.1492 1028.776,-262.275 1057.5674,-252.0181"/>
<polygon fill="#191970" stroke="#191970" points="1059.0445,-255.2074 1067.29,-248.5544 1056.6953,-248.6133 1059.0445,-255.2074"/>
</g>
<!-- Node8 -->
<g id="node8" class="node">
<title>Node8</title>
<polygon fill="none" stroke="#bfbfbf" points="1216.0129,-57.5 1216.0129,-77.5 1261.0129,-77.5 1261.0129,-57.5 1216.0129,-57.5"/>
<text text-anchor="middle" x="1238.5129" y="-64.5" font-family="FreeSans" font-size="10.00" fill="#000000">string</text>
</g>
<!-- Node2&#45;&gt;Node8 -->
<g id="edge12" class="edge">
<title>Node2&#45;&gt;Node8</title>
<path fill="none" stroke="#191970" d="M927.2475,-285.2086C900.3208,-251.1093 818.2777,-142.3801 843.5129,-114 867.4595,-87.069 1115.03,-73.1384 1205.5766,-68.9145"/>
<polygon fill="#191970" stroke="#191970" points="1205.9848,-72.3996 1215.8148,-68.4473 1205.6656,-65.4069 1205.9848,-72.3996"/>
</g>
<!-- Node9 -->
<g id="node9" class="node">
<title>Node9</title>
<polygon fill="none" stroke="#bfbfbf" points="690.0129,-228.5 690.0129,-248.5 761.0129,-248.5 761.0129,-228.5 690.0129,-228.5"/>
<text text-anchor="middle" x="725.5129" y="-235.5" font-family="FreeSans" font-size="10.00" fill="#000000">TVector3.h</text>
</g>
<!-- Node2&#45;&gt;Node9 -->
<g id="edge9" class="edge">
<title>Node2&#45;&gt;Node9</title>
<path fill="none" stroke="#191970" d="M898.4525,-285.4408C862.8913,-275.7884 809.1097,-261.1906 770.9763,-250.8401"/>
<polygon fill="#191970" stroke="#191970" points="771.7199,-247.4154 761.1523,-248.1736 769.8862,-254.1709 771.7199,-247.4154"/>
</g>
<!-- Node10 -->
<g id="node10" class="node">
<title>Node10</title>
<polygon fill="none" stroke="#bfbfbf" points="852.0129,-114.5 852.0129,-134.5 891.0129,-134.5 891.0129,-114.5 852.0129,-114.5"/>
<text text-anchor="middle" x="871.5129" y="-121.5" font-family="FreeSans" font-size="10.00" fill="#000000">map</text>
</g>
<!-- Node2&#45;&gt;Node10 -->
<g id="edge10" class="edge">
<title>Node2&#45;&gt;Node10</title>
<path fill="none" stroke="#191970" d="M933.1228,-285.4157C929.6329,-271.7895 922.3549,-247.0163 911.5129,-228 901.1971,-209.9068 890.0227,-211.0095 881.5129,-192 874.8573,-177.1326 872.4664,-158.7632 871.679,-144.9428"/>
<polygon fill="#191970" stroke="#191970" points="875.165,-144.4591 871.3363,-134.5802 868.1688,-144.6905 875.165,-144.4591"/>
</g>
<!-- Node11 -->
<g id="node11" class="node">
<title>Node11</title>
<polygon fill="none" stroke="#bfbfbf" points="1151.5129,-114.5 1151.5129,-134.5 1183.5129,-134.5 1183.5129,-114.5 1151.5129,-114.5"/>
<text text-anchor="middle" x="1167.5129" y="-121.5" font-family="FreeSans" font-size="10.00" fill="#000000">set</text>
</g>
<!-- Node2&#45;&gt;Node11 -->
<g id="edge11" class="edge">
<title>Node2&#45;&gt;Node11</title>
<path fill="none" stroke="#191970" d="M945.8233,-285.4617C961.5212,-270.7262 992.9376,-243.3316 1024.5129,-228 1081.5325,-200.3136 1121.9323,-240.6929 1162.5129,-192 1173.3037,-179.0519 1173.572,-159.4227 1171.7217,-144.6641"/>
<polygon fill="#191970" stroke="#191970" points="1175.1275,-143.8084 1170.0329,-134.5188 1168.2225,-144.9578 1175.1275,-143.8084"/>
</g>
<!-- Node4 -->
<g id="node4" class="node">
<title>Node4</title>
<polygon fill="none" stroke="#bfbfbf" points="735.5129,-171.5 735.5129,-191.5 795.5129,-191.5 795.5129,-171.5 735.5129,-171.5"/>
<text text-anchor="middle" x="765.5129" y="-178.5" font-family="FreeSans" font-size="10.00" fill="#000000">Rtypes.h</text>
</g>
<!-- Node3&#45;&gt;Node4 -->
<g id="edge3" class="edge">
<title>Node3&#45;&gt;Node4</title>
<path fill="none" stroke="#191970" d="M813.9648,-228.3095C805.491,-220.1229 793.3991,-208.441 783.4152,-198.7955"/>
<polygon fill="#191970" stroke="#191970" points="785.5933,-196.0332 775.9696,-191.6022 780.7296,-201.0676 785.5933,-196.0332"/>
</g>
<!-- Node6 -->
<g id="node6" class="node">
<title>Node6</title>
<g id="a_node6"><a xlink:href="../../d2/de7/Fun4AllBase_8h.html" target="_top" xlink:title="Fun4AllBase.h">
<polygon fill="none" stroke="#000000" points="890.0129,-171.5 890.0129,-191.5 977.0129,-191.5 977.0129,-171.5 890.0129,-171.5"/>
<text text-anchor="middle" x="933.5129" y="-178.5" font-family="FreeSans" font-size="10.00" fill="#000000">Fun4AllBase.h</text>
</a>
</g>
</g>
<!-- Node5&#45;&gt;Node6 -->
<g id="edge5" class="edge">
<title>Node5&#45;&gt;Node6</title>
<path fill="none" stroke="#191970" d="M1066.9234,-228.4408C1040.4006,-219.1087 1000.7393,-205.1537 971.5514,-194.8839"/>
<polygon fill="#191970" stroke="#191970" points="972.6833,-191.5719 962.0885,-191.5544 970.3599,-198.1751 972.6833,-191.5719"/>
</g>
<!-- Node5&#45;&gt;Node8 -->
<g id="edge8" class="edge">
<title>Node5&#45;&gt;Node8</title>
<path fill="none" stroke="#191970" d="M1134.676,-228.3919C1155.2631,-221.2724 1179.4807,-209.7694 1195.5129,-192 1222.4542,-162.1392 1232.6728,-114.5457 1236.4303,-87.6785"/>
<polygon fill="#191970" stroke="#191970" points="1239.9296,-87.8972 1237.6749,-77.5451 1232.9819,-87.0438 1239.9296,-87.8972"/>
</g>
<!-- Node7 -->
<g id="node7" class="node">
<title>Node7</title>
<polygon fill="none" stroke="#bfbfbf" points="302.0129,-114.5 302.0129,-134.5 351.0129,-134.5 351.0129,-114.5 302.0129,-114.5"/>
<text text-anchor="middle" x="326.5129" y="-121.5" font-family="FreeSans" font-size="10.00" fill="#000000">climits</text>
</g>
<!-- Node6&#45;&gt;Node7 -->
<g id="edge6" class="edge">
<title>Node6&#45;&gt;Node7</title>
<path fill="none" stroke="#191970" d="M889.6492,-177.8353C770.5321,-167.8624 446.727,-140.6061 398.5129,-135 386.2847,-133.5782 372.9327,-131.7173 361.0845,-129.9576"/>
<polygon fill="#191970" stroke="#191970" points="361.5366,-126.4863 351.1255,-128.4509 360.4894,-133.4075 361.5366,-126.4863"/>
</g>
<!-- Node6&#45;&gt;Node8 -->
<g id="edge7" class="edge">
<title>Node6&#45;&gt;Node8</title>
<path fill="none" stroke="#191970" d="M960.3409,-171.4143C995.5062,-158.2002 1059.1111,-134.319 1113.5129,-114 1145.1085,-102.1991 1181.2184,-88.7727 1206.476,-79.3913"/>
<polygon fill="#191970" stroke="#191970" points="1207.7686,-82.6449 1215.9246,-75.8825 1205.3317,-76.0828 1207.7686,-82.6449"/>
</g>
<!-- Node12&#45;&gt;Node4 -->
<g id="edge14" class="edge">
<title>Node12&#45;&gt;Node4</title>
<path fill="none" stroke="#191970" d="M676.1153,-285.4624C673.3598,-271.4487 670.5136,-245.7479 681.5129,-228 691.4956,-211.8923 709.1781,-200.9206 725.7528,-193.6999"/>
<polygon fill="#191970" stroke="#191970" points="727.3339,-196.837 735.3171,-189.8714 724.7326,-190.3383 727.3339,-196.837"/>
</g>
<!-- Node12&#45;&gt;Node9 -->
<g id="edge34" class="edge">
<title>Node12&#45;&gt;Node9</title>
<path fill="none" stroke="#191970" d="M686.9155,-285.3095C693.5322,-277.2851 702.918,-265.9022 710.7773,-256.3708"/>
<polygon fill="#191970" stroke="#191970" points="713.5215,-258.5443 717.1829,-248.6022 708.1207,-254.091 713.5215,-258.5443"/>
</g>
<!-- Node12&#45;&gt;Node13 -->
<g id="edge15" class="edge">
<title>Node12&#45;&gt;Node13</title>
<path fill="none" stroke="#191970" d="M651.8926,-286.0641C614.5573,-272.8697 544.4844,-248.2506 484.5129,-228 450.5454,-216.5302 411.8673,-203.8921 383.4646,-194.6901"/>
<polygon fill="#191970" stroke="#191970" points="384.4632,-191.3346 373.8713,-191.586 382.3082,-197.9946 384.4632,-191.3346"/>
</g>
<!-- Node20 -->
<g id="node20" class="node">
<title>Node20</title>
<g id="a_node20"><a xlink:href="../../db/d2b/PHG4Hitv1_8h.html" target="_top" xlink:title="g4main/PHG4Hitv1.h">
<polygon fill="none" stroke="#000000" points="242.5129,-228.5 242.5129,-248.5 364.5129,-248.5 364.5129,-228.5 242.5129,-228.5"/>
<text text-anchor="middle" x="303.5129" y="-235.5" font-family="FreeSans" font-size="10.00" fill="#000000">g4main/PHG4Hitv1.h</text>
</a>
</g>
</g>
<!-- Node12&#45;&gt;Node20 -->
<g id="edge26" class="edge">
<title>Node12&#45;&gt;Node20</title>
<path fill="none" stroke="#191970" d="M651.8444,-291.4464C594.6828,-282.7578 458.7311,-262.0932 374.5758,-249.3016"/>
<polygon fill="#191970" stroke="#191970" points="374.9909,-245.8245 364.5785,-247.782 373.9389,-252.7451 374.9909,-245.8245"/>
</g>
<!-- Node13&#45;&gt;Node7 -->
<g id="edge22" class="edge">
<title>Node13&#45;&gt;Node7</title>
<path fill="none" stroke="#191970" d="M339.6524,-171.3095C337.5592,-163.8524 334.6518,-153.4951 332.104,-144.4186"/>
<polygon fill="#191970" stroke="#191970" points="335.421,-143.2842 329.3486,-134.6022 328.6814,-145.176 335.421,-143.2842"/>
</g>
<!-- Node13&#45;&gt;Node8 -->
<g id="edge24" class="edge">
<title>Node13&#45;&gt;Node8</title>
<path fill="none" stroke="#191970" d="M347.3729,-171.4772C355.5095,-155.9625 373.493,-126.6079 398.5129,-114 471.5213,-77.21 1059.3573,-69.2041 1205.6413,-67.7747"/>
<polygon fill="#191970" stroke="#191970" points="1205.8124,-71.2733 1215.779,-67.6794 1205.7465,-64.2736 1205.8124,-71.2733"/>
</g>
<!-- Node14 -->
<g id="node14" class="node">
<title>Node14</title>
<g id="a_node14"><a xlink:href="../../d2/d92/PHG4HitDefs_8h.html" target="_top" xlink:title="PHG4HitDefs.h">
<polygon fill="none" stroke="#000000" points="408.0129,-114.5 408.0129,-134.5 499.0129,-134.5 499.0129,-114.5 408.0129,-114.5"/>
<text text-anchor="middle" x="453.5129" y="-121.5" font-family="FreeSans" font-size="10.00" fill="#000000">PHG4HitDefs.h</text>
</a>
</g>
</g>
<!-- Node13&#45;&gt;Node14 -->
<g id="edge16" class="edge">
<title>Node13&#45;&gt;Node14</title>
<path fill="none" stroke="#191970" d="M362.1019,-171.4408C379.4313,-162.5419 404.9467,-149.4394 424.6195,-139.3371"/>
<polygon fill="#191970" stroke="#191970" points="426.4494,-142.332 433.7463,-134.6504 423.2517,-136.105 426.4494,-142.332"/>
</g>
<!-- Node15 -->
<g id="node15" class="node">
<title>Node15</title>
<g id="a_node15"><a xlink:href="../../df/d32/PHObject_8h.html" target="_top" xlink:title="phool/PHObject.h">
<polygon fill="none" stroke="#000000" points="555.5129,-114.5 555.5129,-134.5 659.5129,-134.5 659.5129,-114.5 555.5129,-114.5"/>
<text text-anchor="middle" x="607.5129" y="-121.5" font-family="FreeSans" font-size="10.00" fill="#000000">phool/PHObject.h</text>
</a>
</g>
</g>
<!-- Node13&#45;&gt;Node15 -->
<g id="edge18" class="edge">
<title>Node13&#45;&gt;Node15</title>
<path fill="none" stroke="#191970" d="M389.2795,-171.4408C434.3633,-161.7435 502.6541,-147.0545 550.8133,-136.6958"/>
<polygon fill="#191970" stroke="#191970" points="551.7284,-140.0791 560.7688,-134.5544 550.2563,-133.2356 551.7284,-140.0791"/>
</g>
<!-- Node13&#45;&gt;Node17 -->
<g id="edge23" class="edge">
<title>Node13&#45;&gt;Node17</title>
<path fill="none" stroke="#191970" d="M325.7615,-171.396C305.5492,-157.9583 276.1909,-133.6197 292.5129,-114 362.5365,-29.8284 717.8871,-14.091 839.0073,-11.1642"/>
<polygon fill="#191970" stroke="#191970" points="839.4007,-14.6564 849.3196,-10.9327 839.2435,-7.6581 839.4007,-14.6564"/>
</g>
<!-- Node13&#45;&gt;Node18 -->
<g id="edge21" class="edge">
<title>Node13&#45;&gt;Node18</title>
<path fill="none" stroke="#191970" d="M290.4518,-171.4408C230.2555,-159.8096 132.8934,-140.9973 81.6132,-131.0889"/>
<polygon fill="#191970" stroke="#191970" points="82.1804,-127.6338 71.698,-129.1731 80.8524,-134.5067 82.1804,-127.6338"/>
</g>
<!-- Node13&#45;&gt;Node19 -->
<g id="edge25" class="edge">
<title>Node13&#45;&gt;Node19</title>
<path fill="none" stroke="#191970" d="M397.793,-175.6648C492.7106,-165.5596 681.3759,-145.0702 739.7966,-134.5527"/>
<polygon fill="#191970" stroke="#191970" points="740.8217,-137.9172 749.9433,-132.5276 739.4516,-131.0526 740.8217,-137.9172"/>
</g>
<!-- Node14&#45;&gt;Node8 -->
<g id="edge17" class="edge">
<title>Node14&#45;&gt;Node8</title>
<path fill="none" stroke="#191970" d="M499.3547,-118.9066C514.3683,-117.1864 531.139,-115.3837 546.5129,-114 799.9155,-91.1929 1106.4464,-74.3562 1205.7652,-69.1719"/>
<polygon fill="#191970" stroke="#191970" points="1205.9789,-72.6657 1215.784,-68.6519 1205.616,-65.6751 1205.9789,-72.6657"/>
</g>
<!-- Node16 -->
<g id="node16" class="node">
<title>Node16</title>
<polygon fill="none" stroke="#bfbfbf" points="1752.0129,-57.5 1752.0129,-77.5 1817.0129,-77.5 1817.0129,-57.5 1752.0129,-57.5"/>
<text text-anchor="middle" x="1784.5129" y="-64.5" font-family="FreeSans" font-size="10.00" fill="#000000">TObject.h</text>
</g>
<!-- Node15&#45;&gt;Node16 -->
<g id="edge19" class="edge">
<title>Node15&#45;&gt;Node16</title>
<path fill="none" stroke="#191970" d="M659.6923,-115.0422C662.671,-114.6507 665.6268,-114.2984 668.5129,-114 1115.3042,-67.7969 1230.3522,-108.1535 1678.5129,-78 1699.3143,-76.6004 1722.352,-74.3972 1741.622,-72.3696"/>
<polygon fill="#191970" stroke="#191970" points="1742.0418,-75.8447 1751.6119,-71.2991 1741.2959,-68.8846 1742.0418,-75.8447"/>
</g>
<!-- Node15&#45;&gt;Node17 -->
<g id="edge20" class="edge">
<title>Node15&#45;&gt;Node17</title>
<path fill="none" stroke="#191970" d="M631.651,-114.3833C680.3441,-93.9751 790.4207,-47.8401 846.0269,-24.5345"/>
<polygon fill="#191970" stroke="#191970" points="847.5589,-27.6875 855.4288,-20.5941 844.8531,-21.2316 847.5589,-27.6875"/>
</g>
<!-- Node20&#45;&gt;Node7 -->
<g id="edge29" class="edge">
<title>Node20&#45;&gt;Node7</title>
<path fill="none" stroke="#191970" d="M294.8508,-228.323C284.6295,-215.0102 270.0325,-191.0224 278.5129,-171 283.5526,-159.1011 293.2924,-148.7543 302.6888,-140.8612"/>
<polygon fill="#191970" stroke="#191970" points="305.0048,-143.4934 310.731,-134.5793 300.6957,-137.9768 305.0048,-143.4934"/>
</g>
<!-- Node20&#45;&gt;Node10 -->
<g id="edge33" class="edge">
<title>Node20&#45;&gt;Node10</title>
<path fill="none" stroke="#191970" d="M364.5257,-233.3635C434.2422,-226.794 551.4893,-213.6058 650.5129,-192 687.6406,-183.8992 790.847,-150.8219 841.9985,-134.1713"/>
<polygon fill="#191970" stroke="#191970" points="843.369,-137.4058 851.7907,-130.9774 841.1983,-130.7509 843.369,-137.4058"/>
</g>
<!-- Node20&#45;&gt;Node13 -->
<g id="edge27" class="edge">
<title>Node20&#45;&gt;Node13</title>
<path fill="none" stroke="#191970" d="M310.4853,-228.3095C315.8648,-220.4472 323.4502,-209.3608 329.8887,-199.9507"/>
<polygon fill="#191970" stroke="#191970" points="332.8425,-201.8317 335.6008,-191.6022 327.0653,-197.8789 332.8425,-201.8317"/>
</g>
<!-- Node20&#45;&gt;Node14 -->
<g id="edge28" class="edge">
<title>Node20&#45;&gt;Node14</title>
<path fill="none" stroke="#191970" d="M337.6172,-228.3313C359.0192,-220.7548 386.2919,-208.802 406.5129,-192 422.5498,-178.6746 435.5829,-158.5906 443.8216,-143.793"/>
<polygon fill="#191970" stroke="#191970" points="446.9162,-145.4281 448.5267,-134.9564 440.7375,-142.1382 446.9162,-145.4281"/>
</g>
<!-- Node20&#45;&gt;Node17 -->
<g id="edge32" class="edge">
<title>Node20&#45;&gt;Node17</title>
<path fill="none" stroke="#191970" d="M242.4962,-232.986C161.3389,-225.0255 26.3202,-209.352 11.5129,-192 1.2891,-180.0193 -8.7853,-141.1731 14.5129,-114 68.9998,-50.4507 676.1635,-19.4107 839.3428,-12.1792"/>
<polygon fill="#191970" stroke="#191970" points="839.6012,-15.6713 849.4385,-11.7372 839.295,-8.678 839.6012,-15.6713"/>
</g>
<!-- Node20&#45;&gt;Node18 -->
<g id="edge30" class="edge">
<title>Node20&#45;&gt;Node18</title>
<path fill="none" stroke="#191970" d="M242.3658,-232.6425C163.5021,-224.4606 34.7129,-208.7237 20.5129,-192 8.3573,-177.6841 19.4539,-157.2061 30.8792,-142.5657"/>
<polygon fill="#191970" stroke="#191970" points="33.7235,-144.6209 37.4709,-134.7109 28.3615,-140.1211 33.7235,-144.6209"/>
</g>
<!-- Node21 -->
<g id="node21" class="node">
<title>Node21</title>
<polygon fill="none" stroke="#bfbfbf" points="180.0129,-171.5 180.0129,-191.5 231.0129,-191.5 231.0129,-171.5 180.0129,-171.5"/>
<text text-anchor="middle" x="205.5129" y="-178.5" font-family="FreeSans" font-size="10.00" fill="#000000">cstdint</text>
</g>
<!-- Node20&#45;&gt;Node21 -->
<g id="edge31" class="edge">
<title>Node20&#45;&gt;Node21</title>
<path fill="none" stroke="#191970" d="M285.9924,-228.3095C270.9417,-219.5556 249.0195,-206.8049 231.8545,-196.8211"/>
<polygon fill="#191970" stroke="#191970" points="233.2855,-193.6046 222.8816,-191.6022 229.7661,-199.6555 233.2855,-193.6046"/>
</g>
<!-- Node22&#45;&gt;Node8 -->
<g id="edge42" class="edge">
<title>Node22&#45;&gt;Node8</title>
<path fill="none" stroke="#191970" d="M1082.8756,-171.2866C1094.915,-157.0641 1118.3527,-131.1168 1142.5129,-114 1162.291,-99.9877 1186.9397,-88.1485 1206.3084,-79.9231"/>
<polygon fill="#191970" stroke="#191970" points="1207.721,-83.1265 1215.6244,-76.0705 1205.0459,-76.6578 1207.721,-83.1265"/>
</g>
<!-- Node22&#45;&gt;Node10 -->
<g id="edge40" class="edge">
<title>Node22&#45;&gt;Node10</title>
<path fill="none" stroke="#191970" d="M1038.6878,-171.4408C999.5283,-160.4452 937.5128,-143.032 901.0387,-132.7905"/>
<polygon fill="#191970" stroke="#191970" points="901.6045,-129.3141 891.0306,-129.9803 899.7121,-136.0534 901.6045,-129.3141"/>
</g>
<!-- Node22&#45;&gt;Node11 -->
<g id="edge41" class="edge">
<title>Node22&#45;&gt;Node11</title>
<path fill="none" stroke="#191970" d="M1091.1394,-171.3095C1105.3773,-162.5831 1126.0952,-149.885 1142.3614,-139.9154"/>
<polygon fill="#191970" stroke="#191970" points="1144.6447,-142.6211 1151.3417,-134.4113 1140.9867,-136.6529 1144.6447,-142.6211"/>
</g>
<!-- Node22&#45;&gt;Node14 -->
<g id="edge37" class="edge">
<title>Node22&#45;&gt;Node14</title>
<path fill="none" stroke="#191970" d="M995.374,-171.9168C992.3832,-171.5993 989.4216,-171.2924 986.5129,-171 791.2879,-151.3734 741.7989,-154.0086 546.5129,-135 534.5102,-133.8317 521.6503,-132.4583 509.439,-131.0969"/>
<polygon fill="#191970" stroke="#191970" points="509.6964,-127.6038 499.3671,-129.9609 508.9118,-134.5597 509.6964,-127.6038"/>
</g>
<!-- Node22&#45;&gt;Node15 -->
<g id="edge38" class="edge">
<title>Node22&#45;&gt;Node15</title>
<path fill="none" stroke="#191970" d="M995.3614,-172.033C992.3742,-171.6829 989.4167,-171.3376 986.5129,-171 848.4018,-154.943 810.9915,-155.0587 669.6359,-135.0994"/>
<polygon fill="#191970" stroke="#191970" points="670.1179,-131.6328 659.725,-133.6913 669.1333,-138.5632 670.1179,-131.6328"/>
</g>
<!-- Node22&#45;&gt;Node17 -->
<g id="edge39" class="edge">
<title>Node22&#45;&gt;Node17</title>
<path fill="none" stroke="#191970" d="M1062.8987,-171.3153C1030.5282,-142.9288 939.0402,-62.7009 898.8522,-27.4591"/>
<polygon fill="#191970" stroke="#191970" points="901.139,-24.8093 891.3127,-20.8476 896.5237,-30.0723 901.139,-24.8093"/>
</g>
<!-- Node22&#45;&gt;Node19 -->
<g id="edge43" class="edge">
<title>Node22&#45;&gt;Node19</title>
<path fill="none" stroke="#191970" d="M1021.2165,-171.4408C958.6412,-159.6302 856.8356,-140.4152 805.0272,-130.6368"/>
<polygon fill="#191970" stroke="#191970" points="805.5362,-127.1712 795.0605,-128.7557 804.2378,-134.0497 805.5362,-127.1712"/>
</g>
<!-- Node23&#45;&gt;Node8 -->
<g id="edge48" class="edge">
<title>Node23&#45;&gt;Node8</title>
<path fill="none" stroke="#191970" d="M117.9933,-171.4606C153.9943,-155.9231 227.1829,-126.5377 292.5129,-114 473.0986,-79.343 1060.1883,-69.7505 1205.6687,-67.8796"/>
<polygon fill="#191970" stroke="#191970" points="1205.7923,-71.3785 1215.7477,-67.7534 1205.7046,-64.379 1205.7923,-71.3785"/>
</g>
<!-- Node23&#45;&gt;Node15 -->
<g id="edge45" class="edge">
<title>Node23&#45;&gt;Node15</title>
<path fill="none" stroke="#191970" d="M161.7506,-172.1056C164.7107,-171.724 167.642,-171.3536 170.5129,-171 188.8204,-168.7451 428.9074,-143.3549 545.2071,-131.0748"/>
<polygon fill="#191970" stroke="#191970" points="545.8122,-134.5304 555.3894,-129.9997 545.0772,-127.5691 545.8122,-134.5304"/>
</g>
<!-- Node23&#45;&gt;Node17 -->
<g id="edge47" class="edge">
<title>Node23&#45;&gt;Node17</title>
<path fill="none" stroke="#191970" d="M110.9638,-171.3201C149.2876,-146.6619 252.5631,-83.7953 348.5129,-57 440.9164,-31.1951 731.9769,-16.6868 839.2752,-12.1042"/>
<polygon fill="#191970" stroke="#191970" points="839.5249,-15.5968 849.3688,-11.6793 839.2304,-8.603 839.5249,-15.5968"/>
</g>
<!-- Node23&#45;&gt;Node18 -->
<g id="edge46" class="edge">
<title>Node23&#45;&gt;Node18</title>
<path fill="none" stroke="#191970" d="M86.9314,-171.3095C80.1739,-163.2851 70.5884,-151.9022 62.562,-142.3708"/>
<polygon fill="#191970" stroke="#191970" points="65.1386,-139.9969 56.02,-134.6022 59.7842,-144.5059 65.1386,-139.9969"/>
</g>
<!-- Node24&#45;&gt;Node10 -->
<g id="edge53" class="edge">
<title>Node24&#45;&gt;Node10</title>
<path fill="none" stroke="#191970" d="M604.6917,-171.4408C674.0094,-159.246 788.1981,-139.1572 841.8808,-129.7131"/>
<polygon fill="#191970" stroke="#191970" points="842.537,-133.1514 851.7793,-127.9716 841.3241,-126.2573 842.537,-133.1514"/>
</g>
<!-- Node24&#45;&gt;Node15 -->
<g id="edge50" class="edge">
<title>Node24&#45;&gt;Node15</title>
<path fill="none" stroke="#191970" d="M558.2397,-171.3095C566.9424,-163.0419 579.3978,-151.2093 589.608,-141.5096"/>
<polygon fill="#191970" stroke="#191970" points="592.0395,-144.0273 596.8789,-134.6022 587.2183,-138.9523 592.0395,-144.0273"/>
</g>
<!-- Node24&#45;&gt;Node17 -->
<g id="edge51" class="edge">
<title>Node24&#45;&gt;Node17</title>
<path fill="none" stroke="#191970" d="M543.9063,-171.242C539.5907,-156.9663 534.3601,-130.9564 546.5129,-114 581.1085,-65.7295 758.2578,-30.657 839.1433,-16.9039"/>
<polygon fill="#191970" stroke="#191970" points="840.1494,-20.2843 849.4343,-15.1812 838.9936,-13.3804 840.1494,-20.2843"/>
</g>
<!-- Node24&#45;&gt;Node19 -->
<g id="edge54" class="edge">
<title>Node24&#45;&gt;Node19</title>
<path fill="none" stroke="#191970" d="M593.7999,-171.4503C630.9202,-163.1426 684.5241,-150.5916 740.1797,-134.9328"/>
<polygon fill="#191970" stroke="#191970" points="741.1936,-138.2834 749.8568,-132.1842 739.281,-131.5497 741.1936,-138.2834"/>
</g>
<!-- Node25 -->
<g id="node25" class="node">
<title>Node25</title>
<polygon fill="none" stroke="#bfbfbf" points="677.5129,-114.5 677.5129,-134.5 731.5129,-134.5 731.5129,-114.5 677.5129,-114.5"/>
<text text-anchor="middle" x="704.5129" y="-121.5" font-family="FreeSans" font-size="10.00" fill="#000000">iterator</text>
</g>
<!-- Node24&#45;&gt;Node25 -->
<g id="edge52" class="edge">
<title>Node24&#45;&gt;Node25</title>
<path fill="none" stroke="#191970" d="M575.2199,-171.4408C600.9698,-162.092 639.4982,-148.1041 667.7993,-137.8291"/>
<polygon fill="#191970" stroke="#191970" points="669.1402,-141.0659 677.3455,-134.3633 666.7513,-134.4861 669.1402,-141.0659"/>
</g>
<!-- Node26&#45;&gt;Node8 -->
<g id="edge87" class="edge">
<title>Node26&#45;&gt;Node8</title>
<path fill="none" stroke="#191970" d="M1375.3302,-285.4524C1356.6282,-277.9242 1333.2553,-265.9797 1317.5129,-249 1273.0466,-201.039 1251.0337,-124.0802 1242.6647,-87.7439"/>
<polygon fill="#191970" stroke="#191970" points="1246.0557,-86.8671 1240.4957,-77.8484 1239.218,-88.3659 1246.0557,-86.8671"/>
</g>
<!-- Node26&#45;&gt;Node16 -->
<g id="edge86" class="edge">
<title>Node26&#45;&gt;Node16</title>
<path fill="none" stroke="#191970" d="M1455.7709,-286.8984C1460.4104,-286.212 1465.0447,-285.5663 1469.5129,-285 1647.0316,-262.5 1701.6642,-308.2393 1870.5129,-249 1913.7825,-233.8192 1934.8213,-232.4004 1956.5129,-192 1979.1665,-149.8076 1902.2468,-116.4571 1898.5129,-114 1876.4261,-99.4663 1849.068,-88.1213 1826.6892,-80.2766"/>
<polygon fill="#191970" stroke="#191970" points="1827.7089,-76.9267 1817.1145,-77.025 1825.4579,-83.5549 1827.7089,-76.9267"/>
</g>
<!-- Node27 -->
<g id="node27" class="node">
<title>Node27</title>
<g id="a_node27"><a xlink:href="../../dd/d9b/PHDataNode_8h.html" target="_top" xlink:title="PHDataNode.h">
<polygon fill="none" stroke="#000000" points="1858.0129,-171.5 1858.0129,-191.5 1947.0129,-191.5 1947.0129,-171.5 1858.0129,-171.5"/>
<text text-anchor="middle" x="1902.5129" y="-178.5" font-family="FreeSans" font-size="10.00" fill="#000000">PHDataNode.h</text>
</a>
</g>
</g>
<!-- Node26&#45;&gt;Node27 -->
<g id="edge57" class="edge">
<title>Node26&#45;&gt;Node27</title>
<path fill="none" stroke="#191970" d="M1455.7748,-286.9291C1460.4135,-286.2362 1465.0466,-285.5807 1469.5129,-285 1552.3113,-274.2352 1769.2316,-287.1281 1843.5129,-249 1864.6952,-238.1272 1881.6298,-216.1457 1891.8294,-200.2143"/>
<polygon fill="#191970" stroke="#191970" points="1894.8251,-202.0242 1897.0378,-191.663 1888.8467,-198.3829 1894.8251,-202.0242"/>
</g>
<!-- Node28 -->
<g id="node28" class="node">
<title>Node28</title>
<g id="a_node28"><a xlink:href="../../d3/d62/PHNode_8h.html" target="_top" xlink:title="PHNode.h">
<polygon fill="none" stroke="#000000" points="1824.0129,-114.5 1824.0129,-134.5 1889.0129,-134.5 1889.0129,-114.5 1824.0129,-114.5"/>
<text text-anchor="middle" x="1856.5129" y="-121.5" font-family="FreeSans" font-size="10.00" fill="#000000">PHNode.h</text>
</a>
</g>
</g>
<!-- Node26&#45;&gt;Node28 -->
<g id="edge84" class="edge">
<title>Node26&#45;&gt;Node28</title>
<path fill="none" stroke="#191970" d="M1455.5741,-287.2803C1515.3753,-277.2096 1611.7061,-260.1196 1646.5129,-249 1704.6759,-230.4189 1719.4423,-223.8881 1771.5129,-192 1795.8715,-177.0827 1821.1842,-156.1661 1837.7815,-141.5843"/>
<polygon fill="#191970" stroke="#191970" points="1840.479,-143.8684 1845.6151,-134.6018 1835.8212,-138.643 1840.479,-143.8684"/>
</g>
<!-- Node30 -->
<g id="node30" class="node">
<title>Node30</title>
<g id="a_node30"><a xlink:href="../../d3/d79/PHIODataNode_8h.html" target="_top" xlink:title="PHIODataNode.h">
<polygon fill="none" stroke="#000000" points="1537.5129,-228.5 1537.5129,-248.5 1637.5129,-248.5 1637.5129,-228.5 1537.5129,-228.5"/>
<text text-anchor="middle" x="1587.5129" y="-235.5" font-family="FreeSans" font-size="10.00" fill="#000000">PHIODataNode.h</text>
</a>
</g>
</g>
<!-- Node26&#45;&gt;Node30 -->
<g id="edge62" class="edge">
<title>Node26&#45;&gt;Node30</title>
<path fill="none" stroke="#191970" d="M1437.6319,-285.4408C1467.6882,-276.0275 1512.7629,-261.9107 1545.631,-251.6169"/>
<polygon fill="#191970" stroke="#191970" points="1546.9125,-254.8832 1555.4094,-248.5544 1544.8204,-248.2032 1546.9125,-254.8832"/>
</g>
<!-- Node36 -->
<g id="node36" class="node">
<title>Node36</title>
<g id="a_node36"><a xlink:href="../../d8/dfd/PHNodeIterator_8h.html" target="_top" xlink:title="PHNodeIterator.h">
<polygon fill="none" stroke="#000000" points="1399.5129,-114.5 1399.5129,-134.5 1501.5129,-134.5 1501.5129,-114.5 1399.5129,-114.5"/>
<text text-anchor="middle" x="1450.5129" y="-121.5" font-family="FreeSans" font-size="10.00" fill="#000000">PHNodeIterator.h</text>
</a>
</g>
</g>
<!-- Node26&#45;&gt;Node36 -->
<g id="edge85" class="edge">
<title>Node26&#45;&gt;Node36</title>
<path fill="none" stroke="#191970" d="M1388.2558,-285.3646C1354.3929,-264.1863 1285.0815,-213.6678 1315.5129,-171 1325.1006,-157.5571 1361.2678,-145.5129 1393.7551,-137.052"/>
<polygon fill="#191970" stroke="#191970" points="1394.8473,-140.3862 1403.6856,-134.5437 1393.133,-133.5993 1394.8473,-140.3862"/>
</g>
<!-- Node27&#45;&gt;Node17 -->
<g id="edge61" class="edge">
<title>Node27&#45;&gt;Node17</title>
<path fill="none" stroke="#191970" d="M1905.6202,-171.2289C1912.1854,-147.1916 1924.3858,-87.0456 1892.5129,-57 1856.5407,-23.0901 1103.6889,-12.8868 919.7752,-10.8959"/>
<polygon fill="#191970" stroke="#191970" points="919.7536,-7.3955 909.717,-10.7891 919.6793,-14.3951 919.7536,-7.3955"/>
</g>
<!-- Node27&#45;&gt;Node28 -->
<g id="edge58" class="edge">
<title>Node27&#45;&gt;Node28</title>
<path fill="none" stroke="#191970" d="M1894.289,-171.3095C1887.8785,-163.3661 1878.8123,-152.1319 1871.1685,-142.6602"/>
<polygon fill="#191970" stroke="#191970" points="1873.6695,-140.1862 1864.6655,-134.6022 1868.2221,-144.5823 1873.6695,-140.1862"/>
</g>
<!-- Node28&#45;&gt;Node8 -->
<g id="edge60" class="edge">
<title>Node28&#45;&gt;Node8</title>
<path fill="none" stroke="#191970" d="M1823.9569,-122.2169C1739.9699,-116.2131 1509.1457,-98.99 1317.5129,-78 1302.3882,-76.3434 1285.68,-74.1725 1271.5396,-72.2348"/>
<polygon fill="#191970" stroke="#191970" points="1271.6824,-68.7211 1261.2957,-70.8109 1270.7186,-75.6544 1271.6824,-68.7211"/>
</g>
<!-- Node29 -->
<g id="node29" class="node">
<title>Node29</title>
<polygon fill="none" stroke="#bfbfbf" points="1835.5129,-57.5 1835.5129,-77.5 1883.5129,-77.5 1883.5129,-57.5 1835.5129,-57.5"/>
<text text-anchor="middle" x="1859.5129" y="-64.5" font-family="FreeSans" font-size="10.00" fill="#000000">iosfwd</text>
</g>
<!-- Node28&#45;&gt;Node29 -->
<g id="edge59" class="edge">
<title>Node28&#45;&gt;Node29</title>
<path fill="none" stroke="#191970" d="M1857.0492,-114.3095C1857.4374,-106.9335 1857.975,-96.72 1858.4489,-87.715"/>
<polygon fill="#191970" stroke="#191970" points="1861.9506,-87.7724 1858.9812,-77.6022 1854.9603,-87.4044 1861.9506,-87.7724"/>
</g>
<!-- Node30&#45;&gt;Node8 -->
<g id="edge83" class="edge">
<title>Node30&#45;&gt;Node8</title>
<path fill="none" stroke="#191970" d="M1550.219,-228.4594C1521.336,-220.1482 1480.6324,-207.2565 1446.5129,-192 1434.9255,-186.8188 1358.4099,-141.5089 1347.5129,-135 1343.3387,-132.5068 1294.0729,-101.9647 1263.2212,-82.8287"/>
<polygon fill="#191970" stroke="#191970" points="1265.027,-79.8303 1254.6842,-77.5332 1261.3372,-85.7788 1265.027,-79.8303"/>
</g>
<!-- Node30&#45;&gt;Node16 -->
<g id="edge82" class="edge">
<title>Node30&#45;&gt;Node16</title>
<path fill="none" stroke="#191970" d="M1637.7527,-229.7491C1679.5536,-221.491 1734.6846,-208.0082 1750.5129,-192 1778.3434,-163.8531 1783.9545,-115.2654 1784.7593,-87.8522"/>
<polygon fill="#191970" stroke="#191970" points="1788.2592,-87.8721 1784.8638,-77.8361 1781.2596,-87.799 1788.2592,-87.8721"/>
</g>
<!-- Node30&#45;&gt;Node27 -->
<g id="edge63" class="edge">
<title>Node30&#45;&gt;Node27</title>
<path fill="none" stroke="#191970" d="M1637.7739,-229.4052C1695.0791,-219.0356 1788.4543,-202.1392 1847.6217,-191.4327"/>
<polygon fill="#191970" stroke="#191970" points="1848.3164,-194.8639 1857.5334,-189.6391 1847.07,-187.9758 1848.3164,-194.8639"/>
</g>
<!-- Node31 -->
<g id="node31" class="node">
<title>Node31</title>
<g id="a_node31"><a xlink:href="../../d9/d53/PHIOManager_8h.html" target="_top" xlink:title="PHIOManager.h">
<polygon fill="none" stroke="#000000" points="1596.0129,-114.5 1596.0129,-134.5 1689.0129,-134.5 1689.0129,-114.5 1596.0129,-114.5"/>
<text text-anchor="middle" x="1642.5129" y="-121.5" font-family="FreeSans" font-size="10.00" fill="#000000">PHIOManager.h</text>
</a>
</g>
</g>
<!-- Node30&#45;&gt;Node31 -->
<g id="edge64" class="edge">
<title>Node30&#45;&gt;Node31</title>
<path fill="none" stroke="#191970" d="M1637.6767,-229.1868C1675.5051,-221.0242 1722.8078,-207.9793 1734.5129,-192 1751.7524,-168.4651 1718.713,-149.6703 1687.5363,-137.9503"/>
<polygon fill="#191970" stroke="#191970" points="1688.573,-134.6041 1677.9783,-134.5427 1686.2223,-141.1976 1688.573,-134.6041"/>
</g>
<!-- Node33 -->
<g id="node33" class="node">
<title>Node33</title>
<g id="a_node33"><a xlink:href="../../dd/de7/PHNodeIOManager_8h.html" target="_top" xlink:title="PHNodeIOManager.h">
<polygon fill="none" stroke="#000000" points="1455.5129,-171.5 1455.5129,-191.5 1575.5129,-191.5 1575.5129,-171.5 1455.5129,-171.5"/>
<text text-anchor="middle" x="1515.5129" y="-178.5" font-family="FreeSans" font-size="10.00" fill="#000000">PHNodeIOManager.h</text>
</a>
</g>
</g>
<!-- Node30&#45;&gt;Node33 -->
<g id="edge67" class="edge">
<title>Node30&#45;&gt;Node33</title>
<path fill="none" stroke="#191970" d="M1574.6407,-228.3095C1563.9926,-219.8798 1548.6631,-207.7439 1536.2811,-197.9415"/>
<polygon fill="#191970" stroke="#191970" points="1538.2865,-195.0651 1528.2736,-191.6022 1533.9416,-200.5535 1538.2865,-195.0651"/>
</g>
<!-- Node35 -->
<g id="node35" class="node">
<title>Node35</title>
<g id="a_node35"><a xlink:href="../../db/d17/PHTypedNodeIterator_8h.html" target="_top" xlink:title="PHTypedNodeIterator.h">
<polygon fill="none" stroke="#000000" points="1593.5129,-171.5 1593.5129,-191.5 1725.5129,-191.5 1725.5129,-171.5 1593.5129,-171.5"/>
<text text-anchor="middle" x="1659.5129" y="-178.5" font-family="FreeSans" font-size="10.00" fill="#000000">PHTypedNodeIterator.h</text>
</a>
</g>
</g>
<!-- Node30&#45;&gt;Node35 -->
<g id="edge74" class="edge">
<title>Node30&#45;&gt;Node35</title>
<path fill="none" stroke="#191970" d="M1600.385,-228.3095C1611.0331,-219.8798 1626.3627,-207.7439 1638.7447,-197.9415"/>
<polygon fill="#191970" stroke="#191970" points="1641.0841,-200.5535 1646.7521,-191.6022 1636.7392,-195.0651 1641.0841,-200.5535"/>
</g>
<!-- Node38 -->
<g id="node38" class="node">
<title>Node38</title>
<g id="a_node38"><a xlink:href="../../de/da7/phooldefs_8h.html" target="_top" xlink:title="phooldefs.h">
<polygon fill="none" stroke="#000000" points="1324.0129,-171.5 1324.0129,-191.5 1399.0129,-191.5 1399.0129,-171.5 1324.0129,-171.5"/>
<text text-anchor="middle" x="1361.5129" y="-178.5" font-family="FreeSans" font-size="10.00" fill="#000000">phooldefs.h</text>
</a>
</g>
</g>
<!-- Node30&#45;&gt;Node38 -->
<g id="edge80" class="edge">
<title>Node30&#45;&gt;Node38</title>
<path fill="none" stroke="#191970" d="M1547.6288,-228.4408C1508.8798,-218.6678 1450.0289,-203.8248 1408.909,-193.4539"/>
<polygon fill="#191970" stroke="#191970" points="1409.6729,-190.037 1399.1206,-190.9851 1407.961,-196.8245 1409.6729,-190.037"/>
</g>
<!-- Node31&#45;&gt;Node8 -->
<g id="edge66" class="edge">
<title>Node31&#45;&gt;Node8</title>
<path fill="none" stroke="#191970" d="M1595.7742,-117.9057C1513.1926,-106.2543 1343.4321,-82.303 1271.6872,-72.1805"/>
<polygon fill="#191970" stroke="#191970" points="1271.829,-68.666 1261.4381,-70.7345 1270.851,-75.5973 1271.829,-68.666"/>
</g>
<!-- Node32 -->
<g id="node32" class="node">
<title>Node32</title>
<polygon fill="none" stroke="#bfbfbf" points="1615.5129,-57.5 1615.5129,-77.5 1669.5129,-77.5 1669.5129,-57.5 1615.5129,-57.5"/>
<text text-anchor="middle" x="1642.5129" y="-64.5" font-family="FreeSans" font-size="10.00" fill="#000000">cstddef</text>
</g>
<!-- Node31&#45;&gt;Node32 -->
<g id="edge65" class="edge">
<title>Node31&#45;&gt;Node32</title>
<path fill="none" stroke="#191970" d="M1642.5129,-114.3095C1642.5129,-106.9335 1642.5129,-96.72 1642.5129,-87.715"/>
<polygon fill="#191970" stroke="#191970" points="1646.013,-87.6022 1642.5129,-77.6022 1639.013,-87.6023 1646.013,-87.6022"/>
</g>
<!-- Node33&#45;&gt;Node8 -->
<g id="edge73" class="edge">
<title>Node33&#45;&gt;Node8</title>
<path fill="none" stroke="#191970" d="M1486.1468,-171.4938C1460.6101,-162.5753 1422.7508,-148.8288 1390.5129,-135 1370.9668,-126.6155 1366.856,-122.8423 1347.5129,-114 1321.8754,-102.2804 1292.4573,-89.7856 1270.6495,-80.7026"/>
<polygon fill="#191970" stroke="#191970" points="1271.784,-77.384 1261.2062,-76.7844 1269.1014,-83.8496 1271.784,-77.384"/>
</g>
<!-- Node33&#45;&gt;Node10 -->
<g id="edge72" class="edge">
<title>Node33&#45;&gt;Node10</title>
<path fill="none" stroke="#191970" d="M1455.2569,-175.4651C1440.0086,-173.9715 1423.6609,-172.399 1408.5129,-171 1214.9975,-153.1272 982.0548,-133.6508 901.0068,-126.9347"/>
<polygon fill="#191970" stroke="#191970" points="901.2807,-123.4454 891.026,-126.1085 900.7032,-130.4216 901.2807,-123.4454"/>
</g>
<!-- Node33&#45;&gt;Node31 -->
<g id="edge68" class="edge">
<title>Node33&#45;&gt;Node31</title>
<path fill="none" stroke="#191970" d="M1537.9256,-171.4408C1558.1134,-162.3801 1588.0108,-148.9615 1610.6757,-138.7891"/>
<polygon fill="#191970" stroke="#191970" points="1612.2069,-141.9383 1619.897,-134.6504 1609.3406,-135.552 1612.2069,-141.9383"/>
</g>
<!-- Node33&#45;&gt;Node32 -->
<g id="edge71" class="edge">
<title>Node33&#45;&gt;Node32</title>
<path fill="none" stroke="#191970" d="M1526.0886,-171.2626C1539.9866,-157.8844 1565.247,-133.8261 1587.5129,-114 1598.8605,-103.8958 1611.8275,-92.9069 1622.3198,-84.1498"/>
<polygon fill="#191970" stroke="#191970" points="1624.6704,-86.7473 1630.1257,-77.6648 1620.1972,-81.363 1624.6704,-86.7473"/>
</g>
<!-- Node34 -->
<g id="node34" class="node">
<title>Node34</title>
<g id="a_node34"><a xlink:href="../../d5/d6f/phool_8h.html" target="_top" xlink:title="phool.h">
<polygon fill="none" stroke="#000000" points="1469.5129,-57.5 1469.5129,-77.5 1523.5129,-77.5 1523.5129,-57.5 1469.5129,-57.5"/>
<text text-anchor="middle" x="1496.5129" y="-64.5" font-family="FreeSans" font-size="10.00" fill="#000000">phool.h</text>
</a>
</g>
</g>
<!-- Node33&#45;&gt;Node34 -->
<g id="edge69" class="edge">
<title>Node33&#45;&gt;Node34</title>
<path fill="none" stroke="#191970" d="M1515.449,-171.3483C1515.2089,-158.0627 1514.2376,-134.1044 1510.5129,-114 1508.8683,-105.1234 1506.1502,-95.5372 1503.5443,-87.388"/>
<polygon fill="#191970" stroke="#191970" points="1506.7862,-86.0475 1500.2829,-77.6834 1500.1508,-88.2774 1506.7862,-86.0475"/>
</g>
<!-- Node34&#45;&gt;Node17 -->
<g id="edge70" class="edge">
<title>Node34&#45;&gt;Node17</title>
<path fill="none" stroke="#191970" d="M1469.3688,-62.9438C1456.6803,-60.9234 1441.3509,-58.6382 1427.5129,-57 1238.0294,-34.5686 1010.4437,-18.8225 919.706,-12.9933"/>
<polygon fill="#191970" stroke="#191970" points="919.7849,-9.4913 909.5824,-12.3477 919.3394,-16.4771 919.7849,-9.4913"/>
</g>
<!-- Node35&#45;&gt;Node32 -->
<g id="edge79" class="edge">
<title>Node35&#45;&gt;Node32</title>
<path fill="none" stroke="#191970" d="M1672.291,-171.4985C1687.1542,-158.5694 1708.4627,-135.1948 1698.5129,-114 1692.5806,-101.3632 1681.3404,-90.9738 1670.4779,-83.2452"/>
<polygon fill="#191970" stroke="#191970" points="1672.231,-80.2088 1661.956,-77.6254 1668.3773,-86.0526 1672.231,-80.2088"/>
</g>
<!-- Node35&#45;&gt;Node36 -->
<g id="edge75" class="edge">
<title>Node35&#45;&gt;Node36</title>
<path fill="none" stroke="#191970" d="M1622.6289,-171.4408C1587.6674,-161.9058 1535.0105,-147.5448 1497.1509,-137.2195"/>
<polygon fill="#191970" stroke="#191970" points="1497.9475,-133.809 1487.3789,-134.5544 1496.1057,-140.5623 1497.9475,-133.809"/>
</g>
<!-- Node36&#45;&gt;Node8 -->
<g id="edge78" class="edge">
<title>Node36&#45;&gt;Node8</title>
<path fill="none" stroke="#191970" d="M1413.0995,-114.4408C1372.8976,-103.6317 1309.6292,-86.6209 1271.309,-76.3178"/>
<polygon fill="#191970" stroke="#191970" points="1271.768,-72.817 1261.2021,-73.6004 1269.9504,-79.5769 1271.768,-72.817"/>
</g>
<!-- Node37 -->
<g id="node37" class="node">
<title>Node37</title>
<g id="a_node37"><a xlink:href="../../db/dd5/PHPointerList_8h.html" target="_top" xlink:title="PHPointerList.h">
<polygon fill="none" stroke="#000000" points="1326.5129,-57.5 1326.5129,-77.5 1418.5129,-77.5 1418.5129,-57.5 1326.5129,-57.5"/>
<text text-anchor="middle" x="1372.5129" y="-64.5" font-family="FreeSans" font-size="10.00" fill="#000000">PHPointerList.h</text>
</a>
</g>
</g>
<!-- Node36&#45;&gt;Node37 -->
<g id="edge76" class="edge">
<title>Node36&#45;&gt;Node37</title>
<path fill="none" stroke="#191970" d="M1436.568,-114.3095C1424.9216,-105.7987 1408.1057,-93.5102 1394.6257,-83.6594"/>
<polygon fill="#191970" stroke="#191970" points="1396.476,-80.6766 1386.337,-77.6022 1392.3458,-86.3283 1396.476,-80.6766"/>
</g>
<!-- Node37&#45;&gt;Node17 -->
<g id="edge77" class="edge">
<title>Node37&#45;&gt;Node17</title>
<path fill="none" stroke="#191970" d="M1326.1326,-62.1376C1229.9853,-51.0212 1010.3669,-25.6292 919.7525,-15.1525"/>
<polygon fill="#191970" stroke="#191970" points="919.9474,-11.6518 909.6115,-13.98 919.1433,-18.6054 919.9474,-11.6518"/>
</g>
<!-- Node38&#45;&gt;Node8 -->
<g id="edge81" class="edge">
<title>Node38&#45;&gt;Node8</title>
<path fill="none" stroke="#191970" d="M1350.5974,-171.3833C1329.4976,-151.8273 1282.9096,-108.6482 1256.9304,-84.57"/>
<polygon fill="#191970" stroke="#191970" points="1259.2941,-81.9886 1249.5806,-77.7579 1254.5358,-87.1226 1259.2941,-81.9886"/>
</g>
</g>
</svg>
