<?xml version="1.0" encoding="UTF-8" standalone="no"?>
<!DOCTYPE svg PUBLIC "-//W3C//DTD SVG 1.1//EN"
 "http://www.w3.org/Graphics/SVG/1.1/DTD/svg11.dtd">
<!-- Generated by graphviz version 2.40.1 (20161225.0304)
 -->
<!-- Title: MgridInterpolation::checkSmallCube Pages: 1 -->
<svg width="2986pt" height="564pt"
 viewBox="0.00 0.00 2986.00 563.65" xmlns="http://www.w3.org/2000/svg" xmlns:xlink="http://www.w3.org/1999/xlink">
<g id="graph0" class="graph" transform="scale(1 1) rotate(0) translate(4 559.6531)">
<title>MgridInterpolation::checkSmallCube</title>
<!-- Node1 -->
<g id="node1" class="node">
<title>Node1</title>
<polygon fill="#bfbfbf" stroke="#000000" points="0,-446.1531 0,-478.1531 109,-478.1531 109,-446.1531 0,-446.1531"/>
<text text-anchor="start" x="8" y="-465.1531" font-family="FreeSans" font-size="10.00" fill="#000000">MgridInterpolation</text>
<text text-anchor="middle" x="54.5" y="-453.1531" font-family="FreeSans" font-size="10.00" fill="#000000">::checkSmallCube</text>
</g>
<!-- Node2 -->
<g id="node2" class="node">
<title>Node2</title>
<g id="a_node2"><a xlink:href="../../d7/dd2/classMgridInterpolation.html#a77fca220cbad05c6a46f743978b594e1" target="_top" xlink:title="MgridInterpolation\l::checkNeighbouringCubicArea">
<polygon fill="none" stroke="#000000" points="145,-446.1531 145,-478.1531 317,-478.1531 317,-446.1531 145,-446.1531"/>
<text text-anchor="start" x="153" y="-465.1531" font-family="FreeSans" font-size="10.00" fill="#000000">MgridInterpolation</text>
<text text-anchor="middle" x="231" y="-453.1531" font-family="FreeSans" font-size="10.00" fill="#000000">::checkNeighbouringCubicArea</text>
</a>
</g>
</g>
<!-- Node1&#45;&gt;Node2 -->
<g id="edge1" class="edge">
<title>Node1&#45;&gt;Node2</title>
<path fill="none" stroke="#191970" d="M119.5826,-462.1531C127.7782,-462.1531 136.2608,-462.1531 144.7192,-462.1531"/>
<polygon fill="#191970" stroke="#191970" points="119.3782,-458.6532 109.3782,-462.1531 119.3782,-465.6532 119.3782,-458.6532"/>
</g>
<!-- Node3 -->
<g id="node3" class="node">
<title>Node3</title>
<g id="a_node3"><a xlink:href="../../d0/d70/classMgrid.html#a8b4cf069b1d54eca62697f84ccdc234c" target="_top" xlink:title="Mgrid::directFieldValue">
<polygon fill="none" stroke="#000000" points="353,-452.1531 353,-472.1531 485,-472.1531 485,-452.1531 353,-452.1531"/>
<text text-anchor="middle" x="419" y="-459.1531" font-family="FreeSans" font-size="10.00" fill="#000000">Mgrid::directFieldValue</text>
</a>
</g>
</g>
<!-- Node2&#45;&gt;Node3 -->
<g id="edge2" class="edge">
<title>Node2&#45;&gt;Node3</title>
<path fill="none" stroke="#191970" d="M327.1617,-462.1531C335.8045,-462.1531 344.4229,-462.1531 352.7244,-462.1531"/>
<polygon fill="#191970" stroke="#191970" points="327.0222,-458.6532 317.0222,-462.1531 327.0222,-465.6532 327.0222,-458.6532"/>
</g>
<!-- Node4 -->
<g id="node4" class="node">
<title>Node4</title>
<g id="a_node4"><a xlink:href="../../d0/d70/classMgrid.html#a1828a602eff466ced7f0c7630948d820" target="_top" xlink:title="Mgrid::getFieldValue">
<polygon fill="none" stroke="#000000" points="521,-452.1531 521,-472.1531 640,-472.1531 640,-452.1531 521,-452.1531"/>
<text text-anchor="middle" x="580.5" y="-459.1531" font-family="FreeSans" font-size="10.00" fill="#000000">Mgrid::getFieldValue</text>
</a>
</g>
</g>
<!-- Node3&#45;&gt;Node4 -->
<g id="edge3" class="edge">
<title>Node3&#45;&gt;Node4</title>
<path fill="none" stroke="#191970" d="M495.2293,-462.1531C503.859,-462.1531 512.5577,-462.1531 520.9297,-462.1531"/>
<polygon fill="#191970" stroke="#191970" points="495.1542,-458.6532 485.1542,-462.1531 495.1542,-465.6532 495.1542,-458.6532"/>
</g>
<!-- Node4&#45;&gt;Node4 -->
<g id="edge4" class="edge">
<title>Node4&#45;&gt;Node4</title>
<path fill="none" stroke="#191970" d="M550.6786,-481.317C552.1025,-486.6078 562.043,-490.6531 580.5,-490.6531 608.625,-490.6531 616.9746,-481.2598 605.5488,-472.3802"/>
<polygon fill="#191970" stroke="#191970" points="553.8277,-482.8499 555.4512,-472.3802 547.653,-479.5524 553.8277,-482.8499"/>
</g>
<!-- Node5 -->
<g id="node5" class="node">
<title>Node5</title>
<g id="a_node5"><a xlink:href="../../d0/d70/classMgrid.html#a3bbd50eb926dab58886f507f7cb9167c" target="_top" xlink:title="Mgrid::getFixedTypeField\lValue">
<polygon fill="none" stroke="#000000" points="676,-446.1531 676,-478.1531 817,-478.1531 817,-446.1531 676,-446.1531"/>
<text text-anchor="start" x="684" y="-465.1531" font-family="FreeSans" font-size="10.00" fill="#000000">Mgrid::getFixedTypeField</text>
<text text-anchor="middle" x="746.5" y="-453.1531" font-family="FreeSans" font-size="10.00" fill="#000000">Value</text>
</a>
</g>
</g>
<!-- Node4&#45;&gt;Node5 -->
<g id="edge5" class="edge">
<title>Node4&#45;&gt;Node5</title>
<path fill="none" stroke="#191970" d="M650.5536,-462.1531C658.9464,-462.1531 667.5203,-462.1531 675.9205,-462.1531"/>
<polygon fill="#191970" stroke="#191970" points="650.4298,-458.6532 640.4298,-462.1531 650.4298,-465.6532 650.4298,-458.6532"/>
</g>
<!-- Node6 -->
<g id="node6" class="node">
<title>Node6</title>
<g id="a_node6"><a xlink:href="../../d0/d70/classMgrid.html#a63f5d3e859a481ac9144bfefa00f1a34" target="_top" xlink:title="Mgrid::getCartesianField\lValue">
<polygon fill="none" stroke="#000000" points="855.5,-472.1531 855.5,-504.1531 994.5,-504.1531 994.5,-472.1531 855.5,-472.1531"/>
<text text-anchor="start" x="863.5" y="-491.1531" font-family="FreeSans" font-size="10.00" fill="#000000">Mgrid::getCartesianField</text>
<text text-anchor="middle" x="925" y="-479.1531" font-family="FreeSans" font-size="10.00" fill="#000000">Value</text>
</a>
</g>
</g>
<!-- Node5&#45;&gt;Node6 -->
<g id="edge6" class="edge">
<title>Node5&#45;&gt;Node6</title>
<path fill="none" stroke="#191970" d="M827.1552,-473.9012C836.5343,-475.2674 846.0412,-476.6521 855.2563,-477.9944"/>
<polygon fill="#191970" stroke="#191970" points="827.448,-470.407 817.0479,-472.429 826.439,-477.3339 827.448,-470.407"/>
</g>
<!-- Node47 -->
<g id="node47" class="node">
<title>Node47</title>
<g id="a_node47"><a xlink:href="../../d0/d70/classMgrid.html#a2eae4888540a2e28671a08190a68aa2f" target="_top" xlink:title="Mgrid::getCylindricalField\lValue">
<polygon fill="none" stroke="#000000" points="853,-421.1531 853,-453.1531 997,-453.1531 997,-421.1531 853,-421.1531"/>
<text text-anchor="start" x="861" y="-440.1531" font-family="FreeSans" font-size="10.00" fill="#000000">Mgrid::getCylindricalField</text>
<text text-anchor="middle" x="925" y="-428.1531" font-family="FreeSans" font-size="10.00" fill="#000000">Value</text>
</a>
</g>
</g>
<!-- Node5&#45;&gt;Node47 -->
<g id="edge62" class="edge">
<title>Node5&#45;&gt;Node47</title>
<path fill="none" stroke="#191970" d="M827.0856,-450.8666C835.6953,-449.6608 844.4135,-448.4398 852.9158,-447.249"/>
<polygon fill="#191970" stroke="#191970" points="826.4658,-447.4192 817.0479,-452.2725 827.4368,-454.3515 826.4658,-447.4192"/>
</g>
<!-- Node7 -->
<g id="node7" class="node">
<title>Node7</title>
<g id="a_node7"><a xlink:href="../../d6/dbc/classEicBeamLineElementMap.html#a8367714c13d17c2fc94fe98825a0875a" target="_top" xlink:title="EicBeamLineElementMap\l::GetFieldValue">
<polygon fill="none" stroke="#000000" points="1041,-523.1531 1041,-555.1531 1186,-555.1531 1186,-523.1531 1041,-523.1531"/>
<text text-anchor="start" x="1049" y="-542.1531" font-family="FreeSans" font-size="10.00" fill="#000000">EicBeamLineElementMap</text>
<text text-anchor="middle" x="1113.5" y="-530.1531" font-family="FreeSans" font-size="10.00" fill="#000000">::GetFieldValue</text>
</a>
</g>
</g>
<!-- Node6&#45;&gt;Node7 -->
<g id="edge7" class="edge">
<title>Node6&#45;&gt;Node7</title>
<path fill="none" stroke="#191970" d="M994.1936,-506.8739C1013.8486,-512.1917 1035.0713,-517.9337 1054.0909,-523.0796"/>
<polygon fill="#191970" stroke="#191970" points="994.9509,-503.4531 984.3838,-504.2199 993.1227,-510.2101 994.9509,-503.4531"/>
</g>
<!-- Node8 -->
<g id="node8" class="node">
<title>Node8</title>
<g id="a_node8"><a xlink:href="../../d1/d0e/classTrKalmanNode.html#ad109c98d9b096b8e413135681abdb4be" target="_top" xlink:title="TrKalmanNode::GetMagnetic\lField">
<polygon fill="none" stroke="#000000" points="1033,-472.1531 1033,-504.1531 1194,-504.1531 1194,-472.1531 1033,-472.1531"/>
<text text-anchor="start" x="1041" y="-491.1531" font-family="FreeSans" font-size="10.00" fill="#000000">TrKalmanNode::GetMagnetic</text>
<text text-anchor="middle" x="1113.5" y="-479.1531" font-family="FreeSans" font-size="10.00" fill="#000000">Field</text>
</a>
</g>
</g>
<!-- Node6&#45;&gt;Node8 -->
<g id="edge8" class="edge">
<title>Node6&#45;&gt;Node8</title>
<path fill="none" stroke="#191970" d="M1004.713,-488.1531C1014.0697,-488.1531 1023.6223,-488.1531 1032.9898,-488.1531"/>
<polygon fill="#191970" stroke="#191970" points="1004.6549,-484.6532 994.6549,-488.1531 1004.6548,-491.6532 1004.6549,-484.6532"/>
</g>
<!-- Node9 -->
<g id="node9" class="node">
<title>Node9</title>
<g id="a_node9"><a xlink:href="../../d2/d22/classRungeKuttaRequest.html#aef9352fbc63d3854ad82f6c6e81146a6" target="_top" xlink:title="RungeKuttaRequest::kk">
<polygon fill="none" stroke="#000000" points="1046,-433.1531 1046,-453.1531 1181,-453.1531 1181,-433.1531 1046,-433.1531"/>
<text text-anchor="middle" x="1113.5" y="-440.1531" font-family="FreeSans" font-size="10.00" fill="#000000">RungeKuttaRequest::kk</text>
</a>
</g>
</g>
<!-- Node6&#45;&gt;Node9 -->
<g id="edge9" class="edge">
<title>Node6&#45;&gt;Node9</title>
<path fill="none" stroke="#191970" d="M1002.2936,-469.7011C1025.9717,-464.0485 1051.1262,-458.0434 1071.5112,-453.177"/>
<polygon fill="#191970" stroke="#191970" points="1001.1684,-466.3713 992.2545,-472.0977 1002.7939,-473.1799 1001.1684,-466.3713"/>
</g>
<!-- Node10 -->
<g id="node10" class="node">
<title>Node10</title>
<g id="a_node10"><a xlink:href="../../d2/d22/classRungeKuttaRequest.html#acd0229ed666355d83c7ccfe1ccde8dd9" target="_top" xlink:title="RungeKuttaRequest::\lserveRequest">
<polygon fill="none" stroke="#000000" points="1230,-492.1531 1230,-524.1531 1352,-524.1531 1352,-492.1531 1230,-492.1531"/>
<text text-anchor="start" x="1238" y="-511.1531" font-family="FreeSans" font-size="10.00" fill="#000000">RungeKuttaRequest::</text>
<text text-anchor="middle" x="1291" y="-499.1531" font-family="FreeSans" font-size="10.00" fill="#000000">serveRequest</text>
</a>
</g>
</g>
<!-- Node9&#45;&gt;Node10 -->
<g id="edge10" class="edge">
<title>Node9&#45;&gt;Node10</title>
<path fill="none" stroke="#191970" d="M1170.1322,-455.7717C1178.2167,-457.9921 1186.3722,-460.464 1194,-463.1531 1216.7605,-471.1773 1241.4186,-482.6562 1260.1777,-492.0119"/>
<polygon fill="#191970" stroke="#191970" points="1170.9082,-452.3567 1160.3462,-453.1902 1169.1227,-459.1252 1170.9082,-452.3567"/>
</g>
<!-- Node12 -->
<g id="node12" class="node">
<title>Node12</title>
<g id="a_node12"><a xlink:href="../../d3/dd5/jewel-2_82_80_8f.html#a15e2df3184692bfe4ca2261638190094" target="_top" xlink:title="jewel">
<polygon fill="none" stroke="#000000" points="2399,-414.1531 2399,-434.1531 2442,-434.1531 2442,-414.1531 2399,-414.1531"/>
<text text-anchor="middle" x="2420.5" y="-421.1531" font-family="FreeSans" font-size="10.00" fill="#000000">jewel</text>
</a>
</g>
</g>
<!-- Node9&#45;&gt;Node12 -->
<g id="edge12" class="edge">
<title>Node9&#45;&gt;Node12</title>
<path fill="none" stroke="#191970" d="M1191.2494,-449.9869C1263.9171,-455.7797 1375.4703,-463.1531 1472.5,-463.1531 1472.5,-463.1531 1472.5,-463.1531 2156.5,-463.1531 2247.3083,-463.1531 2353.8183,-440.2921 2398.7567,-429.5759"/>
<polygon fill="#191970" stroke="#191970" points="1191.5084,-446.4965 1181.2593,-449.1809 1190.9454,-453.4738 1191.5084,-446.4965"/>
</g>
<!-- Node13 -->
<g id="node13" class="node">
<title>Node13</title>
<g id="a_node13"><a xlink:href="../../d6/dcf/pythia6425mod_8f.html#ab37c75f11d388ab995e98e3eca29e81b" target="_top" xlink:title="pytbhg">
<polygon fill="none" stroke="#000000" points="1265.5,-414.1531 1265.5,-434.1531 1316.5,-434.1531 1316.5,-414.1531 1265.5,-414.1531"/>
<text text-anchor="middle" x="1291" y="-421.1531" font-family="FreeSans" font-size="10.00" fill="#000000">pytbhg</text>
</a>
</g>
</g>
<!-- Node9&#45;&gt;Node13 -->
<g id="edge13" class="edge">
<title>Node9&#45;&gt;Node13</title>
<path fill="none" stroke="#191970" d="M1191.2062,-434.8353C1217.7693,-431.9919 1245.673,-429.005 1265.1989,-426.9149"/>
<polygon fill="#191970" stroke="#191970" points="1190.6821,-431.3713 1181.1115,-435.9159 1191.4272,-438.3315 1190.6821,-431.3713"/>
</g>
<!-- Node46 -->
<g id="node46" class="node">
<title>Node46</title>
<g id="a_node46"><a xlink:href="../../d6/dcf/pythia6425mod_8f.html#a8d44a8d8b3450950fbf946b1c29fb42d" target="_top" xlink:title="pytbhq">
<polygon fill="none" stroke="#000000" points="1265.5,-375.1531 1265.5,-395.1531 1316.5,-395.1531 1316.5,-375.1531 1265.5,-375.1531"/>
<text text-anchor="middle" x="1291" y="-382.1531" font-family="FreeSans" font-size="10.00" fill="#000000">pytbhq</text>
</a>
</g>
</g>
<!-- Node9&#45;&gt;Node46 -->
<g id="edge60" class="edge">
<title>Node9&#45;&gt;Node46</title>
<path fill="none" stroke="#191970" d="M1154.1165,-429.8813C1188.3212,-418.7045 1236.2019,-403.059 1265.3263,-393.5423"/>
<polygon fill="#191970" stroke="#191970" points="1152.8364,-426.6174 1144.4181,-433.0503 1155.0107,-433.2711 1152.8364,-426.6174"/>
</g>
<!-- Node11 -->
<g id="node11" class="node">
<title>Node11</title>
<g id="a_node11"><a xlink:href="../../d1/d0e/classTrKalmanNode.html#a57b9335f58000cd1d2ab55b7ce4dabea" target="_top" xlink:title="TrKalmanNode::PerformRunge\lKuttaStep">
<polygon fill="none" stroke="#000000" points="1388,-492.1531 1388,-524.1531 1557,-524.1531 1557,-492.1531 1388,-492.1531"/>
<text text-anchor="start" x="1396" y="-511.1531" font-family="FreeSans" font-size="10.00" fill="#000000">TrKalmanNode::PerformRunge</text>
<text text-anchor="middle" x="1472.5" y="-499.1531" font-family="FreeSans" font-size="10.00" fill="#000000">KuttaStep</text>
</a>
</g>
</g>
<!-- Node10&#45;&gt;Node11 -->
<g id="edge11" class="edge">
<title>Node10&#45;&gt;Node11</title>
<path fill="none" stroke="#191970" d="M1362.2563,-508.1531C1370.6158,-508.1531 1379.2071,-508.1531 1387.7277,-508.1531"/>
<polygon fill="#191970" stroke="#191970" points="1362.1946,-504.6532 1352.1946,-508.1531 1362.1946,-511.6532 1362.1946,-504.6532"/>
</g>
<!-- Node14 -->
<g id="node14" class="node">
<title>Node14</title>
<g id="a_node14"><a xlink:href="../../d6/dcf/pythia6425mod_8f.html#a8e204cdd8fb7ba8d843c00f6da2ec7e9" target="_top" xlink:title="pystbh">
<polygon fill="none" stroke="#000000" points="1447.5,-375.1531 1447.5,-395.1531 1497.5,-395.1531 1497.5,-375.1531 1447.5,-375.1531"/>
<text text-anchor="middle" x="1472.5" y="-382.1531" font-family="FreeSans" font-size="10.00" fill="#000000">pystbh</text>
</a>
</g>
</g>
<!-- Node13&#45;&gt;Node14 -->
<g id="edge14" class="edge">
<title>Node13&#45;&gt;Node14</title>
<path fill="none" stroke="#191970" d="M1326.5801,-416.5078C1362.1455,-408.8657 1415.9298,-397.3087 1447.3027,-390.5674"/>
<polygon fill="#191970" stroke="#191970" points="1325.6611,-413.1253 1316.6196,-418.6481 1327.1317,-419.9691 1325.6611,-413.1253"/>
</g>
<!-- Node15 -->
<g id="node15" class="node">
<title>Node15</title>
<g id="a_node15"><a xlink:href="../../d6/dcf/pythia6425mod_8f.html#a57a12a8bdfcf423e5b0ed01349b0ff46" target="_top" xlink:title="pysghg">
<polygon fill="none" stroke="#000000" points="1593,-356.1531 1593,-376.1531 1646,-376.1531 1646,-356.1531 1593,-356.1531"/>
<text text-anchor="middle" x="1619.5" y="-363.1531" font-family="FreeSans" font-size="10.00" fill="#000000">pysghg</text>
</a>
</g>
</g>
<!-- Node14&#45;&gt;Node15 -->
<g id="edge15" class="edge">
<title>Node14&#45;&gt;Node15</title>
<path fill="none" stroke="#191970" d="M1508.0097,-380.5635C1534.1251,-377.188 1569.0652,-372.6719 1592.8228,-369.6012"/>
<polygon fill="#191970" stroke="#191970" points="1507.239,-377.1339 1497.7702,-381.8869 1508.1364,-384.0761 1507.239,-377.1339"/>
</g>
<!-- Node16 -->
<g id="node16" class="node">
<title>Node16</title>
<g id="a_node16"><a xlink:href="../../d6/dcf/pythia6425mod_8f.html#a3ccdee32be69df9daf5605283165a012" target="_top" xlink:title="pysigh">
<polygon fill="none" stroke="#000000" points="1682,-318.1531 1682,-338.1531 1731,-338.1531 1731,-318.1531 1682,-318.1531"/>
<text text-anchor="middle" x="1706.5" y="-325.1531" font-family="FreeSans" font-size="10.00" fill="#000000">pysigh</text>
</a>
</g>
</g>
<!-- Node15&#45;&gt;Node16 -->
<g id="edge16" class="edge">
<title>Node15&#45;&gt;Node16</title>
<path fill="none" stroke="#191970" d="M1652.0641,-351.9297C1662.4922,-347.3749 1673.817,-342.4285 1683.4229,-338.2328"/>
<polygon fill="#191970" stroke="#191970" points="1650.5774,-348.7597 1642.8144,-355.9698 1653.3794,-355.1745 1650.5774,-348.7597"/>
</g>
<!-- Node17 -->
<g id="node17" class="node">
<title>Node17</title>
<g id="a_node17"><a xlink:href="../../d6/dcf/pythia6425mod_8f.html#aa9cb6f1467302508501201a0e38959d1" target="_top" xlink:title="pymaxi">
<polygon fill="none" stroke="#000000" points="1767,-377.1531 1767,-397.1531 1820,-397.1531 1820,-377.1531 1767,-377.1531"/>
<text text-anchor="middle" x="1793.5" y="-384.1531" font-family="FreeSans" font-size="10.00" fill="#000000">pymaxi</text>
</a>
</g>
</g>
<!-- Node16&#45;&gt;Node17 -->
<g id="edge17" class="edge">
<title>Node16&#45;&gt;Node17</title>
<path fill="none" stroke="#191970" d="M1729.8078,-343.9596C1745.3345,-354.4892 1765.2721,-368.0101 1778.6692,-377.0955"/>
<polygon fill="#191970" stroke="#191970" points="1731.4992,-340.8777 1721.2584,-338.1617 1727.5703,-346.6711 1731.4992,-340.8777"/>
</g>
<!-- Node21 -->
<g id="node21" class="node">
<title>Node21</title>
<g id="a_node21"><a xlink:href="../../d6/dcf/pythia6425mod_8f.html#a5c7e2372fde451d6f2253ef044e01364" target="_top" xlink:title="pymign">
<polygon fill="none" stroke="#000000" points="1856,-299.1531 1856,-319.1531 1910,-319.1531 1910,-299.1531 1856,-299.1531"/>
<text text-anchor="middle" x="1883" y="-306.1531" font-family="FreeSans" font-size="10.00" fill="#000000">pymign</text>
</a>
</g>
</g>
<!-- Node16&#45;&gt;Node21 -->
<g id="edge22" class="edge">
<title>Node16&#45;&gt;Node21</title>
<path fill="none" stroke="#191970" d="M1741.3158,-324.4053C1774.8919,-320.7908 1825.018,-315.3948 1855.7725,-312.0841"/>
<polygon fill="#191970" stroke="#191970" points="1740.6095,-320.961 1731.0416,-325.5113 1741.3588,-327.9208 1740.6095,-320.961"/>
</g>
<!-- Node39 -->
<g id="node39" class="node">
<title>Node39</title>
<g id="a_node39"><a xlink:href="../../d6/dcf/pythia6425mod_8f.html#a2d74d5dd64881524212b3720af2696de" target="_top" xlink:title="pyrand">
<polygon fill="none" stroke="#000000" points="1946,-279.1531 1946,-299.1531 1997,-299.1531 1997,-279.1531 1946,-279.1531"/>
<text text-anchor="middle" x="1971.5" y="-286.1531" font-family="FreeSans" font-size="10.00" fill="#000000">pyrand</text>
</a>
</g>
</g>
<!-- Node16&#45;&gt;Node39 -->
<g id="edge59" class="edge">
<title>Node16&#45;&gt;Node39</title>
<path fill="none" stroke="#191970" d="M1740.814,-316.5265C1770.8017,-307.0144 1815.7229,-294.3202 1856,-289.1531 1886.6292,-285.2238 1922.2045,-286.0219 1945.6911,-287.2818"/>
<polygon fill="#191970" stroke="#191970" points="1739.6866,-313.2125 1731.245,-319.6148 1741.8367,-319.8741 1739.6866,-313.2125"/>
</g>
<!-- Node42 -->
<g id="node42" class="node">
<title>Node42</title>
<g id="a_node42"><a xlink:href="../../d6/dcf/pythia6425mod_8f.html#a4ae1a9148440832c122abdaedf3555a7" target="_top" xlink:title="pymult">
<polygon fill="none" stroke="#000000" points="1857,-338.1531 1857,-358.1531 1909,-358.1531 1909,-338.1531 1857,-338.1531"/>
<text text-anchor="middle" x="1883" y="-345.1531" font-family="FreeSans" font-size="10.00" fill="#000000">pymult</text>
</a>
</g>
</g>
<!-- Node16&#45;&gt;Node42 -->
<g id="edge50" class="edge">
<title>Node16&#45;&gt;Node42</title>
<path fill="none" stroke="#191970" d="M1741.0012,-332.0626C1775.007,-335.916 1826.2105,-341.7181 1856.945,-345.2007"/>
<polygon fill="#191970" stroke="#191970" points="1741.3721,-328.5823 1731.0416,-330.9341 1740.5839,-335.5378 1741.3721,-328.5823"/>
</g>
<!-- Node43 -->
<g id="node43" class="node">
<title>Node43</title>
<g id="a_node43"><a xlink:href="../../d6/dcf/pythia6425mod_8f.html#af1b5061d1d80462745ef6b9ab52500f2" target="_top" xlink:title="pyptmi">
<polygon fill="none" stroke="#000000" points="1768,-182.1531 1768,-202.1531 1819,-202.1531 1819,-182.1531 1768,-182.1531"/>
<text text-anchor="middle" x="1793.5" y="-189.1531" font-family="FreeSans" font-size="10.00" fill="#000000">pyptmi</text>
</a>
</g>
</g>
<!-- Node16&#45;&gt;Node43 -->
<g id="edge54" class="edge">
<title>Node16&#45;&gt;Node43</title>
<path fill="none" stroke="#191970" d="M1718.4421,-309.4851C1737.0302,-280.4278 1772.2648,-225.3483 1786.885,-202.4939"/>
<polygon fill="#191970" stroke="#191970" points="1715.4796,-307.6211 1713.0391,-317.931 1721.3763,-311.3933 1715.4796,-307.6211"/>
</g>
<!-- Node18 -->
<g id="node18" class="node">
<title>Node18</title>
<g id="a_node18"><a xlink:href="../../d6/dcf/pythia6425mod_8f.html#aac00ac3ccd923c2c3dc37e2b89a9f025" target="_top" xlink:title="pyinit">
<polygon fill="none" stroke="#000000" points="1949,-377.1531 1949,-397.1531 1994,-397.1531 1994,-377.1531 1949,-377.1531"/>
<text text-anchor="middle" x="1971.5" y="-384.1531" font-family="FreeSans" font-size="10.00" fill="#000000">pyinit</text>
</a>
</g>
</g>
<!-- Node17&#45;&gt;Node18 -->
<g id="edge18" class="edge">
<title>Node17&#45;&gt;Node18</title>
<path fill="none" stroke="#191970" d="M1830.1725,-387.1531C1865.8734,-387.1531 1918.9946,-387.1531 1948.9075,-387.1531"/>
<polygon fill="#191970" stroke="#191970" points="1830.1484,-383.6532 1820.1484,-387.1531 1830.1484,-390.6532 1830.1484,-383.6532"/>
</g>
<!-- Node19 -->
<g id="node19" class="node">
<title>Node19</title>
<g id="a_node19"><a xlink:href="../../d3/dd5/jewel-2_82_80_8f.html#a2cba90a4cdaaf1d5de1cf1bfe9afaa2e" target="_top" xlink:title="initpythia">
<polygon fill="none" stroke="#000000" points="2125,-414.1531 2125,-434.1531 2188,-434.1531 2188,-414.1531 2125,-414.1531"/>
<text text-anchor="middle" x="2156.5" y="-421.1531" font-family="FreeSans" font-size="10.00" fill="#000000">initpythia</text>
</a>
</g>
</g>
<!-- Node18&#45;&gt;Node19 -->
<g id="edge19" class="edge">
<title>Node18&#45;&gt;Node19</title>
<path fill="none" stroke="#191970" d="M2004.294,-394.1891C2013.5684,-396.1507 2023.6751,-398.2617 2033,-400.1531 2064.1459,-406.4709 2099.7822,-413.3599 2124.7434,-418.13"/>
<polygon fill="#191970" stroke="#191970" points="2004.7717,-390.7125 1994.2626,-392.0575 2003.3167,-397.5596 2004.7717,-390.7125"/>
</g>
<!-- Node20 -->
<g id="node20" class="node">
<title>Node20</title>
<g id="a_node20"><a xlink:href="../../d6/dcf/pythia6425mod_8f.html#a4cc0e611278607d6b413b5cecdfe16c3" target="_top" xlink:title="pytest">
<polygon fill="none" stroke="#000000" points="2232.5,-343.1531 2232.5,-363.1531 2280.5,-363.1531 2280.5,-343.1531 2232.5,-343.1531"/>
<text text-anchor="middle" x="2256.5" y="-350.1531" font-family="FreeSans" font-size="10.00" fill="#000000">pytest</text>
</a>
</g>
</g>
<!-- Node18&#45;&gt;Node20 -->
<g id="edge21" class="edge">
<title>Node18&#45;&gt;Node20</title>
<path fill="none" stroke="#191970" d="M2004.4224,-383.2256C2062.3748,-376.3119 2181.2951,-362.125 2232.3461,-356.0347"/>
<polygon fill="#191970" stroke="#191970" points="2003.8559,-379.7682 1994.341,-384.4282 2004.6852,-386.7189 2003.8559,-379.7682"/>
</g>
<!-- Node19&#45;&gt;Node12 -->
<g id="edge20" class="edge">
<title>Node19&#45;&gt;Node12</title>
<path fill="none" stroke="#191970" d="M2198.1809,-424.1531C2255.0684,-424.1531 2354.9569,-424.1531 2398.8147,-424.1531"/>
<polygon fill="#191970" stroke="#191970" points="2198.0824,-420.6532 2188.0823,-424.1531 2198.0823,-427.6532 2198.0824,-420.6532"/>
</g>
<!-- Node21&#45;&gt;Node18 -->
<g id="edge44" class="edge">
<title>Node21&#45;&gt;Node18</title>
<path fill="none" stroke="#191970" d="M1906.4002,-325.2836C1907.6314,-326.2365 1908.8386,-327.1966 1910,-328.1531 1929.4164,-344.1433 1950.1656,-364.9143 1961.9152,-377.0652"/>
<polygon fill="#191970" stroke="#191970" points="1908.2819,-322.3228 1898.1536,-319.2136 1904.1323,-327.9603 1908.2819,-322.3228"/>
</g>
<!-- Node22 -->
<g id="node22" class="node">
<title>Node22</title>
<g id="a_node22"><a xlink:href="../../d6/dcf/pythia6425mod_8f.html#ac81fa418f8cd77b0873b2de2a4140933" target="_top" xlink:title="pyevnt">
<polygon fill="none" stroke="#000000" points="2130.5,-262.1531 2130.5,-282.1531 2182.5,-282.1531 2182.5,-262.1531 2130.5,-262.1531"/>
<text text-anchor="middle" x="2156.5" y="-269.1531" font-family="FreeSans" font-size="10.00" fill="#000000">pyevnt</text>
</a>
</g>
</g>
<!-- Node21&#45;&gt;Node22 -->
<g id="edge23" class="edge">
<title>Node21&#45;&gt;Node22</title>
<path fill="none" stroke="#191970" d="M1901.2131,-292.0678C1927.7561,-268.4676 1979.7336,-227.0113 2033,-211.1531 2056.8542,-204.0514 2065.7723,-202.2126 2089,-211.1531 2115.5334,-221.3661 2138.1252,-247.3745 2149.2005,-261.9169"/>
<polygon fill="#191970" stroke="#191970" points="1898.5741,-289.7362 1893.5196,-299.0477 1903.2776,-294.9206 1898.5741,-289.7362"/>
</g>
<!-- Node21&#45;&gt;Node39 -->
<g id="edge45" class="edge">
<title>Node21&#45;&gt;Node39</title>
<path fill="none" stroke="#191970" d="M1919.9852,-300.7949C1928.6841,-298.829 1937.7682,-296.7761 1945.8427,-294.9514"/>
<polygon fill="#191970" stroke="#191970" points="1919.0163,-297.4255 1910.0338,-303.0438 1920.5594,-304.2533 1919.0163,-297.4255"/>
</g>
<!-- Node22&#45;&gt;Node20 -->
<g id="edge43" class="edge">
<title>Node22&#45;&gt;Node20</title>
<path fill="none" stroke="#191970" d="M2177.1142,-288.8506C2197.2227,-305.1385 2227.1603,-329.388 2243.9378,-342.9777"/>
<polygon fill="#191970" stroke="#191970" points="2179.1387,-285.9864 2169.1651,-282.4118 2174.7327,-291.4258 2179.1387,-285.9864"/>
</g>
<!-- Node23 -->
<g id="node23" class="node">
<title>Node23</title>
<g id="a_node23"><a xlink:href="../../d3/dd5/jewel-2_82_80_8f.html#aeb24fa7919aa21c652e9c8f2ec45cb91" target="_top" xlink:title="genevent">
<polygon fill="none" stroke="#000000" points="2224,-271.1531 2224,-291.1531 2289,-291.1531 2289,-271.1531 2224,-271.1531"/>
<text text-anchor="middle" x="2256.5" y="-278.1531" font-family="FreeSans" font-size="10.00" fill="#000000">genevent</text>
</a>
</g>
</g>
<!-- Node22&#45;&gt;Node23 -->
<g id="edge24" class="edge">
<title>Node22&#45;&gt;Node23</title>
<path fill="none" stroke="#191970" d="M2192.7245,-275.4133C2202.8845,-276.3277 2213.8676,-277.3162 2223.8092,-278.211"/>
<polygon fill="#191970" stroke="#191970" points="2192.7863,-271.9048 2182.5128,-274.4943 2192.1588,-278.8767 2192.7863,-271.9048"/>
</g>
<!-- Node23&#45;&gt;Node12 -->
<g id="edge39" class="edge">
<title>Node23&#45;&gt;Node12</title>
<path fill="none" stroke="#191970" d="M2268.7597,-299.8647C2275.0289,-309.6546 2282.6542,-321.9124 2289,-333.1531 2306.3931,-363.9628 2296.92,-382.6295 2325,-404.1531 2346.3765,-420.5385 2378.0392,-424.2853 2398.9646,-424.7723"/>
<polygon fill="#191970" stroke="#191970" points="2271.6209,-297.8437 2263.2505,-291.3485 2265.7435,-301.6459 2271.6209,-297.8437"/>
</g>
<!-- Node24 -->
<g id="node24" class="node">
<title>Node24</title>
<g id="a_node24"><a xlink:href="../../d4/db6/exceptionFun4AllDstPileupMerger.html#aff74804be47480038d862e90001e8e8f" target="_top" xlink:title="time&#45;shift and copy content of source nodes to destination">
<polygon fill="none" stroke="#000000" points="2347.5,-270.1531 2347.5,-302.1531 2493.5,-302.1531 2493.5,-270.1531 2347.5,-270.1531"/>
<text text-anchor="start" x="2355.5" y="-289.1531" font-family="FreeSans" font-size="10.00" fill="#000000">Fun4AllDstPileupMerger</text>
<text text-anchor="middle" x="2420.5" y="-277.1531" font-family="FreeSans" font-size="10.00" fill="#000000">::copy_background_event</text>
</a>
</g>
</g>
<!-- Node23&#45;&gt;Node24 -->
<g id="edge25" class="edge">
<title>Node23&#45;&gt;Node24</title>
<path fill="none" stroke="#191970" d="M2299.5562,-282.4658C2314.2278,-282.9131 2331.0659,-283.4265 2347.4245,-283.9252"/>
<polygon fill="#191970" stroke="#191970" points="2299.3957,-278.9594 2289.2937,-282.1529 2299.1824,-285.9562 2299.3957,-278.9594"/>
</g>
<!-- Node27 -->
<g id="node27" class="node">
<title>Node27</title>
<g id="a_node27"><a xlink:href="../../dd/d2a/classPHHepMCGenHelper.html#ab0c755f6e53c0bf57ccd314a0017d227" target="_top" xlink:title="send HepMC::GenEvent to DST tree. This function takes ownership of evt">
<polygon fill="none" stroke="#000000" points="2342.5,-152.1531 2342.5,-184.1531 2498.5,-184.1531 2498.5,-152.1531 2342.5,-152.1531"/>
<text text-anchor="start" x="2350.5" y="-171.1531" font-family="FreeSans" font-size="10.00" fill="#000000">PHHepMCGenHelper::insert</text>
<text text-anchor="middle" x="2420.5" y="-159.1531" font-family="FreeSans" font-size="10.00" fill="#000000">_event</text>
</a>
</g>
</g>
<!-- Node23&#45;&gt;Node27 -->
<g id="edge28" class="edge">
<title>Node23&#45;&gt;Node27</title>
<path fill="none" stroke="#191970" d="M2279.5197,-265.292C2310.6386,-243.8503 2365.8266,-205.8245 2397.1267,-184.2579"/>
<polygon fill="#191970" stroke="#191970" points="2277.3026,-262.5692 2271.0539,-271.1251 2281.2743,-268.3334 2277.3026,-262.5692"/>
</g>
<!-- Node32 -->
<g id="node32" class="node">
<title>Node32</title>
<g id="a_node32"><a xlink:href="../../d9/d3a/classPHPythia8.html#a534c21ef917fe92922c6757a75ca84e1" target="_top" xlink:title="PHPythia8::process\l_event">
<polygon fill="none" stroke="#000000" points="2602.5,-40.1531 2602.5,-72.1531 2715.5,-72.1531 2715.5,-40.1531 2602.5,-40.1531"/>
<text text-anchor="start" x="2610.5" y="-59.1531" font-family="FreeSans" font-size="10.00" fill="#000000">PHPythia8::process</text>
<text text-anchor="middle" x="2659" y="-47.1531" font-family="FreeSans" font-size="10.00" fill="#000000">_event</text>
</a>
</g>
</g>
<!-- Node23&#45;&gt;Node32 -->
<g id="edge42" class="edge">
<title>Node23&#45;&gt;Node32</title>
<path fill="none" stroke="#191970" d="M2260.8057,-261.1048C2268.3868,-230.7402 2287.0458,-173.3329 2325,-142.1531 2405.2733,-76.2077 2530.1528,-60.1474 2602.3048,-56.6448"/>
<polygon fill="#191970" stroke="#191970" points="2257.368,-260.4352 2258.4987,-270.9695 2264.1841,-262.0293 2257.368,-260.4352"/>
</g>
<!-- Node33 -->
<g id="node33" class="node">
<title>Node33</title>
<g id="a_node33"><a xlink:href="../../da/df0/classPHSartre.html#aafe9fd92317ab1f7eee67a9354696c4e" target="_top" xlink:title="PHSartre::process_event">
<polygon fill="none" stroke="#000000" points="2589,-1.1531 2589,-21.1531 2729,-21.1531 2729,-1.1531 2589,-1.1531"/>
<text text-anchor="middle" x="2659" y="-8.1531" font-family="FreeSans" font-size="10.00" fill="#000000">PHSartre::process_event</text>
</a>
</g>
</g>
<!-- Node23&#45;&gt;Node33 -->
<g id="edge41" class="edge">
<title>Node23&#45;&gt;Node33</title>
<path fill="none" stroke="#191970" d="M2260.0201,-261.1625C2269.0142,-212.4279 2294.308,-89.555 2325,-63.1531 2397.962,-.3898 2514.5152,3.2988 2588.8647,-2.1559"/>
<polygon fill="#191970" stroke="#191970" points="2256.5547,-260.6577 2258.2202,-271.1208 2263.4431,-261.9028 2256.5547,-260.6577"/>
</g>
<!-- Node36 -->
<g id="node36" class="node">
<title>Node36</title>
<g id="a_node36"><a xlink:href="../../de/d99/classFun4AllHepMCPileupInputManager.html#a9ce1ce8bd07083235c302e7c2c6985e0" target="_top" xlink:title="Fun4AllHepMCPileupInputManager\l::InsertEvent">
<polygon fill="none" stroke="#000000" points="2325,-362.1531 2325,-394.1531 2516,-394.1531 2516,-362.1531 2325,-362.1531"/>
<text text-anchor="start" x="2333" y="-381.1531" font-family="FreeSans" font-size="10.00" fill="#000000">Fun4AllHepMCPileupInputManager</text>
<text text-anchor="middle" x="2420.5" y="-369.1531" font-family="FreeSans" font-size="10.00" fill="#000000">::InsertEvent</text>
</a>
</g>
</g>
<!-- Node23&#45;&gt;Node36 -->
<g id="edge37" class="edge">
<title>Node23&#45;&gt;Node36</title>
<path fill="none" stroke="#191970" d="M2269.9285,-299.0849C2282.5287,-314.7111 2302.7289,-336.8903 2325,-350.1531 2332.8678,-354.8385 2341.5711,-358.784 2350.4268,-362.0951"/>
<polygon fill="#191970" stroke="#191970" points="2272.6619,-296.8985 2263.7454,-291.176 2267.1472,-301.2099 2272.6619,-296.8985"/>
</g>
<!-- Node38 -->
<g id="node38" class="node">
<title>Node38</title>
<g id="a_node38"><a xlink:href="../../d7/df5/pepsiMaineRHIC__noradcorr_8f.html#ac2ed0c0080f3e6d946824efb82e28ab5" target="_top" xlink:title="pepsimainerhic">
<polygon fill="none" stroke="#000000" points="2373.5,-321.1531 2373.5,-341.1531 2467.5,-341.1531 2467.5,-321.1531 2373.5,-321.1531"/>
<text text-anchor="middle" x="2420.5" y="-328.1531" font-family="FreeSans" font-size="10.00" fill="#000000">pepsimainerhic</text>
</a>
</g>
</g>
<!-- Node23&#45;&gt;Node38 -->
<g id="edge40" class="edge">
<title>Node23&#45;&gt;Node38</title>
<path fill="none" stroke="#191970" d="M2285.5517,-295.4618C2297.5487,-300.9504 2311.7302,-306.9081 2325,-311.1531 2340.4887,-316.1081 2357.7906,-320.1593 2373.3676,-323.2878"/>
<polygon fill="#191970" stroke="#191970" points="2286.9982,-292.2745 2276.4577,-291.2024 2284.029,-298.6136 2286.9982,-292.2745"/>
</g>
<!-- Node25 -->
<g id="node25" class="node">
<title>Node25</title>
<g id="a_node25"><a xlink:href="../../dd/d8c/classFun4AllDstPileupInputManager.html#aef764d010943119087c60e7c845fbb49" target="_top" xlink:title="Fun4AllDstPileupInputManager::run">
<polygon fill="none" stroke="#000000" points="2561.5,-322.1531 2561.5,-342.1531 2756.5,-342.1531 2756.5,-322.1531 2561.5,-322.1531"/>
<text text-anchor="middle" x="2659" y="-329.1531" font-family="FreeSans" font-size="10.00" fill="#000000">Fun4AllDstPileupInputManager::run</text>
</a>
</g>
</g>
<!-- Node24&#45;&gt;Node25 -->
<g id="edge26" class="edge">
<title>Node24&#45;&gt;Node25</title>
<path fill="none" stroke="#191970" d="M2503.4354,-302.6874C2519.5394,-305.8593 2536.2921,-309.1323 2552,-312.1531 2569.1662,-315.4544 2587.8968,-318.9811 2604.8202,-322.1394"/>
<polygon fill="#191970" stroke="#191970" points="2503.9958,-299.2305 2493.5074,-300.7286 2502.6407,-306.0981 2503.9958,-299.2305"/>
</g>
<!-- Node26 -->
<g id="node26" class="node">
<title>Node26</title>
<g id="a_node26"><a xlink:href="../../d5/d00/classFun4AllSingleDstPileupInputManager.html#a01149fa86dc066e4413d6b02e94df581" target="_top" xlink:title="Fun4AllSingleDstPileupInput\lManager::run">
<polygon fill="none" stroke="#000000" points="2579.5,-361.1531 2579.5,-393.1531 2738.5,-393.1531 2738.5,-361.1531 2579.5,-361.1531"/>
<text text-anchor="start" x="2587.5" y="-380.1531" font-family="FreeSans" font-size="10.00" fill="#000000">Fun4AllSingleDstPileupInput</text>
<text text-anchor="middle" x="2659" y="-368.1531" font-family="FreeSans" font-size="10.00" fill="#000000">Manager::run</text>
</a>
</g>
</g>
<!-- Node24&#45;&gt;Node26 -->
<g id="edge27" class="edge">
<title>Node24&#45;&gt;Node26</title>
<path fill="none" stroke="#191970" d="M2503.1145,-304.4021C2507.586,-306.4231 2511.9151,-308.6655 2516,-311.1531 2536.4276,-323.5935 2531.4633,-338.8937 2552,-351.1531 2560.4536,-356.1995 2569.8362,-360.2677 2579.4319,-363.5471"/>
<polygon fill="#191970" stroke="#191970" points="2504.3482,-301.125 2493.7686,-300.5569 2501.6847,-307.5986 2504.3482,-301.125"/>
</g>
<!-- Node28 -->
<g id="node28" class="node">
<title>Node28</title>
<g id="a_node28"><a xlink:href="../../d6/d6f/classFun4AllHepMCInputManager.html#abc2abd5f69e96e3fb974376f5f258f80" target="_top" xlink:title="Fun4AllHepMCInputManager::run">
<polygon fill="none" stroke="#000000" points="2567.5,-91.1531 2567.5,-111.1531 2750.5,-111.1531 2750.5,-91.1531 2567.5,-91.1531"/>
<text text-anchor="middle" x="2659" y="-98.1531" font-family="FreeSans" font-size="10.00" fill="#000000">Fun4AllHepMCInputManager::run</text>
</a>
</g>
</g>
<!-- Node27&#45;&gt;Node28 -->
<g id="edge29" class="edge">
<title>Node27&#45;&gt;Node28</title>
<path fill="none" stroke="#191970" d="M2468.5233,-148.3373C2493.1518,-138.7633 2523.8233,-127.7353 2552,-120.1531 2564.8443,-116.6968 2578.7291,-113.7032 2592.1072,-111.1796"/>
<polygon fill="#191970" stroke="#191970" points="2467.0797,-145.144 2459.0549,-152.0616 2469.6421,-151.6582 2467.0797,-145.144"/>
</g>
<!-- Node29 -->
<g id="node29" class="node">
<title>Node29</title>
<g id="a_node29"><a xlink:href="../../db/d1f/classFun4AllOscarInputManager.html#a1537e89c4e652f70747fbbef18ceadc4" target="_top" xlink:title="Fun4AllOscarInputManager\l::ConvertFromOscar">
<polygon fill="none" stroke="#000000" points="2582,-271.1531 2582,-303.1531 2736,-303.1531 2736,-271.1531 2582,-271.1531"/>
<text text-anchor="start" x="2590" y="-290.1531" font-family="FreeSans" font-size="10.00" fill="#000000">Fun4AllOscarInputManager</text>
<text text-anchor="middle" x="2659" y="-278.1531" font-family="FreeSans" font-size="10.00" fill="#000000">::ConvertFromOscar</text>
</a>
</g>
</g>
<!-- Node27&#45;&gt;Node29 -->
<g id="edge30" class="edge">
<title>Node27&#45;&gt;Node29</title>
<path fill="none" stroke="#191970" d="M2446.3557,-190.9612C2471.6307,-212.1106 2512.0383,-242.9725 2552,-261.1531 2561.3964,-265.4281 2571.5896,-269.0563 2581.8254,-272.1206"/>
<polygon fill="#191970" stroke="#191970" points="2448.59,-188.2668 2438.7011,-184.4642 2444.0603,-193.6037 2448.59,-188.2668"/>
</g>
<!-- Node31 -->
<g id="node31" class="node">
<title>Node31</title>
<g id="a_node31"><a xlink:href="../../dd/da8/classPHPythia6.html#a19e6a457e090f28732528f2bb3a9f2fb" target="_top" xlink:title="PHPythia6::process\l_event">
<polygon fill="none" stroke="#000000" points="2602.5,-220.1531 2602.5,-252.1531 2715.5,-252.1531 2715.5,-220.1531 2602.5,-220.1531"/>
<text text-anchor="start" x="2610.5" y="-239.1531" font-family="FreeSans" font-size="10.00" fill="#000000">PHPythia6::process</text>
<text text-anchor="middle" x="2659" y="-227.1531" font-family="FreeSans" font-size="10.00" fill="#000000">_event</text>
</a>
</g>
</g>
<!-- Node27&#45;&gt;Node31 -->
<g id="edge32" class="edge">
<title>Node27&#45;&gt;Node31</title>
<path fill="none" stroke="#191970" d="M2477.6404,-187.374C2500.6352,-194.8544 2527.4699,-203.2648 2552,-210.1531 2568.2885,-214.7271 2586.1026,-219.2459 2602.441,-223.201"/>
<polygon fill="#191970" stroke="#191970" points="2478.6312,-184.0156 2468.0386,-184.2322 2476.4543,-190.6686 2478.6312,-184.0156"/>
</g>
<!-- Node27&#45;&gt;Node32 -->
<g id="edge33" class="edge">
<title>Node27&#45;&gt;Node32</title>
<path fill="none" stroke="#191970" d="M2452.5372,-146.0982C2487.9553,-121.8539 2541.4269,-85.711 2552,-81.1531 2567.7665,-74.3566 2585.672,-69.2489 2602.2638,-65.4827"/>
<polygon fill="#191970" stroke="#191970" points="2450.2276,-143.438 2443.9587,-151.9791 2454.1857,-149.2115 2450.2276,-143.438"/>
</g>
<!-- Node27&#45;&gt;Node33 -->
<g id="edge34" class="edge">
<title>Node27&#45;&gt;Node33</title>
<path fill="none" stroke="#191970" d="M2441.4415,-144.6265C2474.9956,-107.171 2538.4228,-37.4409 2552,-30.1531 2563.304,-24.0855 2576.1524,-19.9008 2588.927,-17.0267"/>
<polygon fill="#191970" stroke="#191970" points="2438.8199,-142.3075 2434.7635,-152.0951 2444.0382,-146.9733 2438.8199,-142.3075"/>
</g>
<!-- Node34 -->
<g id="node34" class="node">
<title>Node34</title>
<g id="a_node34"><a xlink:href="../../df/d98/classsHEPGen.html#af0d88e02a25b1437c784a31f8fa9d93d" target="_top" xlink:title="sHEPGen::process_event">
<polygon fill="none" stroke="#000000" points="2588,-181.1531 2588,-201.1531 2730,-201.1531 2730,-181.1531 2588,-181.1531"/>
<text text-anchor="middle" x="2659" y="-188.1531" font-family="FreeSans" font-size="10.00" fill="#000000">sHEPGen::process_event</text>
</a>
</g>
</g>
<!-- Node27&#45;&gt;Node34 -->
<g id="edge35" class="edge">
<title>Node27&#45;&gt;Node34</title>
<path fill="none" stroke="#191970" d="M2508.8567,-176.6739C2534.9412,-179.1894 2563.1438,-181.9091 2587.9871,-184.3049"/>
<polygon fill="#191970" stroke="#191970" points="2508.8836,-173.1604 2498.5938,-175.6842 2508.2116,-180.128 2508.8836,-173.1604"/>
</g>
<!-- Node35 -->
<g id="node35" class="node">
<title>Node35</title>
<g id="a_node35"><a xlink:href="../../d3/d49/classReadEICFiles.html#a7dd6da2318a9ea07bb3569bc2d5549c6" target="_top" xlink:title="ReadEICFiles::process\l_event">
<polygon fill="none" stroke="#000000" points="2596,-130.1531 2596,-162.1531 2722,-162.1531 2722,-130.1531 2596,-130.1531"/>
<text text-anchor="start" x="2604" y="-149.1531" font-family="FreeSans" font-size="10.00" fill="#000000">ReadEICFiles::process</text>
<text text-anchor="middle" x="2659" y="-137.1531" font-family="FreeSans" font-size="10.00" fill="#000000">_event</text>
</a>
</g>
</g>
<!-- Node27&#45;&gt;Node35 -->
<g id="edge36" class="edge">
<title>Node27&#45;&gt;Node35</title>
<path fill="none" stroke="#191970" d="M2508.6999,-160.0173C2537.6148,-157.3501 2569.1474,-154.4414 2595.8297,-151.9802"/>
<polygon fill="#191970" stroke="#191970" points="2508.23,-156.5457 2498.5938,-160.9495 2508.8731,-163.5161 2508.23,-156.5457"/>
</g>
<!-- Node30 -->
<g id="node30" class="node">
<title>Node30</title>
<g id="a_node30"><a xlink:href="../../db/d1f/classFun4AllOscarInputManager.html#abd9c677329f73038579c12aff1f8d42a" target="_top" xlink:title="Fun4AllOscarInputManager::run">
<polygon fill="none" stroke="#000000" points="2802,-277.1531 2802,-297.1531 2978,-297.1531 2978,-277.1531 2802,-277.1531"/>
<text text-anchor="middle" x="2890" y="-284.1531" font-family="FreeSans" font-size="10.00" fill="#000000">Fun4AllOscarInputManager::run</text>
</a>
</g>
</g>
<!-- Node29&#45;&gt;Node30 -->
<g id="edge31" class="edge">
<title>Node29&#45;&gt;Node30</title>
<path fill="none" stroke="#191970" d="M2746.4565,-287.1531C2764.5223,-287.1531 2783.5624,-287.1531 2801.6594,-287.1531"/>
<polygon fill="#191970" stroke="#191970" points="2746.2408,-283.6532 2736.2408,-287.1531 2746.2408,-290.6532 2746.2408,-283.6532"/>
</g>
<!-- Node37 -->
<g id="node37" class="node">
<title>Node37</title>
<g id="a_node37"><a xlink:href="../../de/d99/classFun4AllHepMCPileupInputManager.html#a0afd07a242a008dab637fe4f6ba997bd" target="_top" xlink:title="Fun4AllHepMCPileupInputManager::run">
<polygon fill="none" stroke="#000000" points="2552,-412.1531 2552,-432.1531 2766,-432.1531 2766,-412.1531 2552,-412.1531"/>
<text text-anchor="middle" x="2659" y="-419.1531" font-family="FreeSans" font-size="10.00" fill="#000000">Fun4AllHepMCPileupInputManager::run</text>
</a>
</g>
</g>
<!-- Node36&#45;&gt;Node37 -->
<g id="edge38" class="edge">
<title>Node36&#45;&gt;Node37</title>
<path fill="none" stroke="#191970" d="M2514.1066,-396.0934C2526.8369,-398.491 2539.7364,-400.8987 2552,-403.1531 2568.1438,-406.1209 2585.6726,-409.2659 2601.7807,-412.1249"/>
<polygon fill="#191970" stroke="#191970" points="2514.4246,-392.5917 2503.9489,-394.1758 2513.126,-399.4702 2514.4246,-392.5917"/>
</g>
<!-- Node39&#45;&gt;Node22 -->
<g id="edge46" class="edge">
<title>Node39&#45;&gt;Node22</title>
<path fill="none" stroke="#191970" d="M2007.3236,-285.8612C2043.4129,-282.5449 2098.2315,-277.5075 2130.3986,-274.5516"/>
<polygon fill="#191970" stroke="#191970" points="2006.8612,-282.3889 1997.2235,-286.7894 2007.5018,-289.3595 2006.8612,-282.3889"/>
</g>
<!-- Node40 -->
<g id="node40" class="node">
<title>Node40</title>
<g id="a_node40"><a xlink:href="../../d6/dcf/pythia6425mod_8f.html#a83ae6561ab82fd7af8b1b3e511f477ac" target="_top" xlink:title="pyevnw">
<polygon fill="none" stroke="#000000" points="2033,-221.1531 2033,-241.1531 2089,-241.1531 2089,-221.1531 2033,-221.1531"/>
<text text-anchor="middle" x="2061" y="-228.1531" font-family="FreeSans" font-size="10.00" fill="#000000">pyevnw</text>
</a>
</g>
</g>
<!-- Node39&#45;&gt;Node40 -->
<g id="edge47" class="edge">
<title>Node39&#45;&gt;Node40</title>
<path fill="none" stroke="#191970" d="M1995.7855,-273.415C2011.5381,-263.2067 2031.6024,-250.2041 2045.2886,-241.3348"/>
<polygon fill="#191970" stroke="#191970" points="1993.5782,-270.6747 1987.0897,-279.0503 1997.3851,-276.5491 1993.5782,-270.6747"/>
</g>
<!-- Node41 -->
<g id="node41" class="node">
<title>Node41</title>
<g id="a_node41"><a xlink:href="../../d6/dcf/pythia6425mod_8f.html#ae7cb37215e5a38b3fb0529c9996646e6" target="_top" xlink:title="pyupev">
<polygon fill="none" stroke="#000000" points="2034,-299.1531 2034,-319.1531 2088,-319.1531 2088,-299.1531 2034,-299.1531"/>
<text text-anchor="middle" x="2061" y="-306.1531" font-family="FreeSans" font-size="10.00" fill="#000000">pyupev</text>
</a>
</g>
</g>
<!-- Node39&#45;&gt;Node41 -->
<g id="edge49" class="edge">
<title>Node39&#45;&gt;Node41</title>
<path fill="none" stroke="#191970" d="M2007.1621,-297.1223C2016.0799,-299.1151 2025.5004,-301.2203 2033.9251,-303.1029"/>
<polygon fill="#191970" stroke="#191970" points="2007.9097,-293.7031 1997.3871,-294.938 2006.3831,-300.5346 2007.9097,-293.7031"/>
</g>
<!-- Node40&#45;&gt;Node22 -->
<g id="edge48" class="edge">
<title>Node40&#45;&gt;Node22</title>
<path fill="none" stroke="#191970" d="M2094.0764,-245.3535C2106.9546,-250.8823 2121.41,-257.0883 2133.1648,-262.1349"/>
<polygon fill="#191970" stroke="#191970" points="2095.1765,-242.0169 2084.6067,-241.288 2092.4149,-248.4492 2095.1765,-242.0169"/>
</g>
<!-- Node42&#45;&gt;Node18 -->
<g id="edge52" class="edge">
<title>Node42&#45;&gt;Node18</title>
<path fill="none" stroke="#191970" d="M1915.2121,-362.3483C1926.3444,-367.254 1938.5767,-372.6446 1948.7863,-377.1437"/>
<polygon fill="#191970" stroke="#191970" points="1916.3532,-359.0264 1905.7909,-358.1966 1913.5304,-365.4321 1916.3532,-359.0264"/>
</g>
<!-- Node42&#45;&gt;Node22 -->
<g id="edge51" class="edge">
<title>Node42&#45;&gt;Node22</title>
<path fill="none" stroke="#191970" d="M1919.3529,-350.9082C1961.7665,-352.7276 2033.1945,-351.3973 2089,-328.1531 2113.4576,-317.9661 2135.8515,-295.7564 2147.6882,-282.5736"/>
<polygon fill="#191970" stroke="#191970" points="1919.3881,-347.4055 1909.2221,-350.3892 1919.0299,-354.3964 1919.3881,-347.4055"/>
</g>
<!-- Node42&#45;&gt;Node39 -->
<g id="edge53" class="edge">
<title>Node42&#45;&gt;Node39</title>
<path fill="none" stroke="#191970" d="M1906.7096,-332.3467C1922.5041,-321.8171 1942.7854,-308.2962 1956.4135,-299.2108"/>
<polygon fill="#191970" stroke="#191970" points="1904.3919,-329.6854 1898.0128,-338.1446 1908.2748,-335.5097 1904.3919,-329.6854"/>
</g>
<!-- Node44 -->
<g id="node44" class="node">
<title>Node44</title>
<g id="a_node44"><a xlink:href="../../d6/dcf/pythia6425mod_8f.html#a15448b25c4eb515f33e35f86f376af68" target="_top" xlink:title="pyevol">
<polygon fill="none" stroke="#000000" points="1946.5,-143.1531 1946.5,-163.1531 1996.5,-163.1531 1996.5,-143.1531 1946.5,-143.1531"/>
<text text-anchor="middle" x="1971.5" y="-150.1531" font-family="FreeSans" font-size="10.00" fill="#000000">pyevol</text>
</a>
</g>
</g>
<!-- Node43&#45;&gt;Node44 -->
<g id="edge55" class="edge">
<title>Node43&#45;&gt;Node44</title>
<path fill="none" stroke="#191970" d="M1829.2211,-187.2474C1852.4004,-183.7633 1883.1732,-178.5713 1910,-172.1531 1922.0638,-169.267 1935.2283,-165.3116 1946.2708,-161.7568"/>
<polygon fill="#191970" stroke="#191970" points="1828.5325,-183.8109 1819.1469,-188.7263 1829.5493,-190.7367 1828.5325,-183.8109"/>
</g>
<!-- Node45 -->
<g id="node45" class="node">
<title>Node45</title>
<g id="a_node45"><a xlink:href="../../d6/dcf/pythia6425mod_8f.html#ac00de061be805868aa61d626239f5fa9" target="_top" xlink:title="pyptis">
<polygon fill="none" stroke="#000000" points="1859.5,-143.1531 1859.5,-163.1531 1906.5,-163.1531 1906.5,-143.1531 1859.5,-143.1531"/>
<text text-anchor="middle" x="1883" y="-150.1531" font-family="FreeSans" font-size="10.00" fill="#000000">pyptis</text>
</a>
</g>
</g>
<!-- Node43&#45;&gt;Node45 -->
<g id="edge57" class="edge">
<title>Node43&#45;&gt;Node45</title>
<path fill="none" stroke="#191970" d="M1825.7353,-178.1065C1837.084,-173.1612 1849.6004,-167.7071 1860.0296,-163.1626"/>
<polygon fill="#191970" stroke="#191970" points="1824.3177,-174.9063 1816.5485,-182.1097 1827.1141,-181.3235 1824.3177,-174.9063"/>
</g>
<!-- Node44&#45;&gt;Node40 -->
<g id="edge56" class="edge">
<title>Node44&#45;&gt;Node40</title>
<path fill="none" stroke="#191970" d="M1990.7408,-169.9216C2008.539,-185.433 2034.4206,-207.989 2049.2966,-220.9535"/>
<polygon fill="#191970" stroke="#191970" points="1993.0389,-167.2818 1983.2006,-163.3503 1988.4398,-172.559 1993.0389,-167.2818"/>
</g>
<!-- Node45&#45;&gt;Node44 -->
<g id="edge58" class="edge">
<title>Node45&#45;&gt;Node44</title>
<path fill="none" stroke="#191970" d="M1916.9848,-153.1531C1926.7962,-153.1531 1937.3202,-153.1531 1946.4796,-153.1531"/>
<polygon fill="#191970" stroke="#191970" points="1916.7164,-149.6532 1906.7164,-153.1531 1916.7163,-156.6532 1916.7164,-149.6532"/>
</g>
<!-- Node46&#45;&gt;Node14 -->
<g id="edge61" class="edge">
<title>Node46&#45;&gt;Node14</title>
<path fill="none" stroke="#191970" d="M1327.0391,-385.1531C1362.6067,-385.1531 1416.0644,-385.1531 1447.3027,-385.1531"/>
<polygon fill="#191970" stroke="#191970" points="1326.6196,-381.6532 1316.6196,-385.1531 1326.6195,-388.6532 1326.6196,-381.6532"/>
</g>
</g>
</svg>
