<?xml version="1.0" encoding="UTF-8" standalone="no"?>
<!DOCTYPE svg PUBLIC "-//W3C//DTD SVG 1.1//EN"
 "http://www.w3.org/Graphics/SVG/1.1/DTD/svg11.dtd">
<!-- Generated by graphviz version 2.40.1 (20161225.0304)
 -->
<!-- Title: nlohmann::detail::from_json_array_impl Pages: 1 -->
<svg width="2033pt" height="941pt"
 viewBox="0.00 0.00 2033.00 941.23" xmlns="http://www.w3.org/2000/svg" xmlns:xlink="http://www.w3.org/1999/xlink">
<g id="graph0" class="graph" transform="scale(1 1) rotate(0) translate(4 937.2337)">
<title>nlohmann::detail::from_json_array_impl</title>
<!-- Node1 -->
<g id="node1" class="node">
<title>Node1</title>
<polygon fill="#bfbfbf" stroke="#000000" points="0,-489.7337 0,-521.7337 133,-521.7337 133,-489.7337 0,-489.7337"/>
<text text-anchor="start" x="8" y="-508.7337" font-family="FreeSans" font-size="10.00" fill="#000000">nlohmann::detail::from</text>
<text text-anchor="middle" x="66.5" y="-496.7337" font-family="FreeSans" font-size="10.00" fill="#000000">_json_array_impl</text>
</g>
<!-- Node2 -->
<g id="node2" class="node">
<title>Node2</title>
<g id="a_node2"><a xlink:href="../../dc/df0/namespacenlohmann_1_1detail.html#a59fca69799f6b9e366710cb9043aa77d" target="_top" xlink:title="nlohmann::detail::void">
<polygon fill="none" stroke="#000000" points="169,-495.7337 169,-515.7337 299,-515.7337 299,-495.7337 169,-495.7337"/>
<text text-anchor="middle" x="234" y="-502.7337" font-family="FreeSans" font-size="10.00" fill="#000000">nlohmann::detail::void</text>
</a>
</g>
</g>
<!-- Node1&#45;&gt;Node2 -->
<g id="edge1" class="edge">
<title>Node1&#45;&gt;Node2</title>
<path fill="none" stroke="#191970" d="M143.2012,-505.7337C151.794,-505.7337 160.4864,-505.7337 168.9133,-505.7337"/>
<polygon fill="#191970" stroke="#191970" points="143.1818,-502.2338 133.1817,-505.7337 143.1817,-509.2338 143.1818,-502.2338"/>
</g>
<!-- Node3 -->
<g id="node3" class="node">
<title>Node3</title>
<g id="a_node3"><a xlink:href="../../de/d49/structActs_1_1Neutral.html#ae923dd0f1888ec697b8bce358fdf3805" target="_top" xlink:title="Acts::Neutral::Neutral">
<polygon fill="none" stroke="#000000" points="357,-912.7337 357,-932.7337 483,-932.7337 483,-912.7337 357,-912.7337"/>
<text text-anchor="middle" x="420" y="-919.7337" font-family="FreeSans" font-size="10.00" fill="#000000">Acts::Neutral::Neutral</text>
</a>
</g>
</g>
<!-- Node2&#45;&gt;Node3 -->
<g id="edge2" class="edge">
<title>Node2&#45;&gt;Node3</title>
<path fill="none" stroke="#191970" d="M236.351,-526.0146C245.2639,-599.3984 279.3147,-849.619 335,-903.7337 341.1811,-909.7404 348.8237,-914.0143 356.9704,-917.0291"/>
<polygon fill="#191970" stroke="#191970" points="239.7941,-525.3287 235.1369,-515.8124 232.8432,-526.1559 239.7941,-525.3287"/>
</g>
<!-- Node4 -->
<g id="node4" class="node">
<title>Node4</title>
<g id="a_node4"><a xlink:href="../../d4/d32/structActs_1_1SinglyCharged.html#afc183c2613ce25e602d21c525cfb73d2" target="_top" xlink:title="Acts::SinglyCharged\l::SinglyCharged">
<polygon fill="none" stroke="#000000" points="360.5,-861.7337 360.5,-893.7337 479.5,-893.7337 479.5,-861.7337 360.5,-861.7337"/>
<text text-anchor="start" x="368.5" y="-880.7337" font-family="FreeSans" font-size="10.00" fill="#000000">Acts::SinglyCharged</text>
<text text-anchor="middle" x="420" y="-868.7337" font-family="FreeSans" font-size="10.00" fill="#000000">::SinglyCharged</text>
</a>
</g>
</g>
<!-- Node2&#45;&gt;Node4 -->
<g id="edge3" class="edge">
<title>Node2&#45;&gt;Node4</title>
<path fill="none" stroke="#191970" d="M237.2681,-525.8546C248.4844,-592.5675 287.3606,-804.9602 335,-852.7337 342.0599,-859.8135 351.0145,-864.9097 360.4466,-868.5734"/>
<polygon fill="#191970" stroke="#191970" points="240.6897,-525.0929 235.6029,-515.7991 233.7838,-526.2366 240.6897,-525.0929"/>
</g>
<!-- Node5 -->
<g id="node5" class="node">
<title>Node5</title>
<g id="a_node5"><a xlink:href="../../dc/de0/exceptionActsExamples_1_1TutorialVertexFinderAlgorithm.html#abb39474b43b3cc4c3230368f15628820" target="_top" xlink:title="ActsExamples::TutorialVertex\lFinderAlgorithm::execute">
<polygon fill="none" stroke="#000000" points="337.5,-810.7337 337.5,-842.7337 502.5,-842.7337 502.5,-810.7337 337.5,-810.7337"/>
<text text-anchor="start" x="345.5" y="-829.7337" font-family="FreeSans" font-size="10.00" fill="#000000">ActsExamples::TutorialVertex</text>
<text text-anchor="middle" x="420" y="-817.7337" font-family="FreeSans" font-size="10.00" fill="#000000">FinderAlgorithm::execute</text>
</a>
</g>
</g>
<!-- Node2&#45;&gt;Node5 -->
<g id="edge4" class="edge">
<title>Node2&#45;&gt;Node5</title>
<path fill="none" stroke="#191970" d="M234.7938,-526.0632C237.9949,-579.3363 254.0932,-724.2159 335,-801.7337 338.5542,-805.139 342.548,-808.0836 346.8159,-810.6295"/>
<polygon fill="#191970" stroke="#191970" points="238.2793,-525.6886 234.2769,-515.8789 231.2883,-526.0434 238.2793,-525.6886"/>
</g>
<!-- Node6 -->
<g id="node6" class="node">
<title>Node6</title>
<g id="a_node6"><a xlink:href="../../dd/d7e/namespaceActs_1_1Test.html#a70214a83814a08ece5921c0d1acc6958" target="_top" xlink:title="Acts::Test::BOOST_DATA\l_TEST_CASE">
<polygon fill="none" stroke="#000000" points="350.5,-759.7337 350.5,-791.7337 489.5,-791.7337 489.5,-759.7337 350.5,-759.7337"/>
<text text-anchor="start" x="358.5" y="-778.7337" font-family="FreeSans" font-size="10.00" fill="#000000">Acts::Test::BOOST_DATA</text>
<text text-anchor="middle" x="420" y="-766.7337" font-family="FreeSans" font-size="10.00" fill="#000000">_TEST_CASE</text>
</a>
</g>
</g>
<!-- Node2&#45;&gt;Node6 -->
<g id="edge5" class="edge">
<title>Node2&#45;&gt;Node6</title>
<path fill="none" stroke="#191970" d="M236.4259,-525.958C243.1138,-572.6594 266.1354,-688.7431 335,-750.7337 339.5729,-754.8501 344.792,-758.2905 350.3437,-761.1657"/>
<polygon fill="#191970" stroke="#191970" points="239.8749,-525.3422 235.0882,-515.8903 232.9359,-526.2642 239.8749,-525.3422"/>
</g>
<!-- Node7 -->
<g id="node7" class="node">
<title>Node7</title>
<g id="a_node7"><a xlink:href="../../d4/d0e/namespaceActs_1_1IntegrationTest.html#a82343e2e02f2f7baabb9e7ef320fbdad" target="_top" xlink:title="Acts::IntegrationTest\l::BOOST_DATA_TEST_CASE">
<polygon fill="none" stroke="#000000" points="344,-708.7337 344,-740.7337 496,-740.7337 496,-708.7337 344,-708.7337"/>
<text text-anchor="start" x="352" y="-727.7337" font-family="FreeSans" font-size="10.00" fill="#000000">Acts::IntegrationTest</text>
<text text-anchor="middle" x="420" y="-715.7337" font-family="FreeSans" font-size="10.00" fill="#000000">::BOOST_DATA_TEST_CASE</text>
</a>
</g>
</g>
<!-- Node2&#45;&gt;Node7 -->
<g id="edge6" class="edge">
<title>Node2&#45;&gt;Node7</title>
<path fill="none" stroke="#191970" d="M238.7799,-525.7006C249.2376,-565.0281 277.9083,-652.7652 335,-699.7337 339.1576,-703.154 343.7671,-706.1064 348.6273,-708.6549"/>
<polygon fill="#191970" stroke="#191970" points="242.1612,-524.7951 236.3048,-515.966 235.377,-526.5201 242.1612,-524.7951"/>
</g>
<!-- Node8 -->
<g id="node8" class="node">
<title>Node8</title>
<g id="a_node8"><a xlink:href="../../d1/dc5/BVHDataTestCase_8hpp.html#a89658060ddc6a4b7e5765e6ec7cca74d" target="_top" xlink:title="BOOST_DATA_TEST_CASE">
<polygon fill="none" stroke="#000000" points="347.5,-669.7337 347.5,-689.7337 492.5,-689.7337 492.5,-669.7337 347.5,-669.7337"/>
<text text-anchor="middle" x="420" y="-676.7337" font-family="FreeSans" font-size="10.00" fill="#000000">BOOST_DATA_TEST_CASE</text>
</a>
</g>
</g>
<!-- Node2&#45;&gt;Node8 -->
<g id="edge7" class="edge">
<title>Node2&#45;&gt;Node8</title>
<path fill="none" stroke="#191970" d="M241.1573,-525.6132C254.2786,-559.0781 285.4725,-626.3679 335,-660.7337 340.2178,-664.3542 346.0114,-667.2981 352.0515,-669.69"/>
<polygon fill="#191970" stroke="#191970" points="244.3414,-524.1378 237.5319,-516.0211 237.7935,-526.6127 244.3414,-524.1378"/>
</g>
<!-- Node9 -->
<g id="node9" class="node">
<title>Node9</title>
<g id="a_node9"><a xlink:href="../../dd/d7e/namespaceActs_1_1Test.html#a4f56f6ada67e2a40018b27d27b350ab0" target="_top" xlink:title="Acts::Test::BOOST_AUTO\l_TEST_CASE">
<polygon fill="none" stroke="#000000" points="349.5,-618.7337 349.5,-650.7337 490.5,-650.7337 490.5,-618.7337 349.5,-618.7337"/>
<text text-anchor="start" x="357.5" y="-637.7337" font-family="FreeSans" font-size="10.00" fill="#000000">Acts::Test::BOOST_AUTO</text>
<text text-anchor="middle" x="420" y="-625.7337" font-family="FreeSans" font-size="10.00" fill="#000000">_TEST_CASE</text>
</a>
</g>
</g>
<!-- Node2&#45;&gt;Node9 -->
<g id="edge8" class="edge">
<title>Node2&#45;&gt;Node9</title>
<path fill="none" stroke="#191970" d="M247.201,-524.3335C264.6908,-547.6348 297.7151,-587.2296 335,-609.7337 340.6627,-613.1515 346.8213,-616.1265 353.1493,-618.711"/>
<polygon fill="#191970" stroke="#191970" points="249.8204,-521.9868 241.0836,-515.9936 244.1761,-526.1271 249.8204,-521.9868"/>
</g>
<!-- Node10 -->
<g id="node10" class="node">
<title>Node10</title>
<g id="a_node10"><a xlink:href="../../dd/d7e/namespaceActs_1_1Test.html#ac13967dd504395f68a55fcdd17335e70" target="_top" xlink:title="Acts::Test::void_res_func">
<polygon fill="none" stroke="#000000" points="349.5,-579.7337 349.5,-599.7337 490.5,-599.7337 490.5,-579.7337 349.5,-579.7337"/>
<text text-anchor="middle" x="420" y="-586.7337" font-family="FreeSans" font-size="10.00" fill="#000000">Acts::Test::void_res_func</text>
</a>
</g>
</g>
<!-- Node2&#45;&gt;Node10 -->
<g id="edge9" class="edge">
<title>Node2&#45;&gt;Node10</title>
<path fill="none" stroke="#191970" d="M254.7472,-522.2182C274.3536,-537.0087 305.1353,-558.252 335,-570.7337 343.5105,-574.2905 352.7913,-577.2311 361.9922,-579.6472"/>
<polygon fill="#191970" stroke="#191970" points="256.6299,-519.2509 246.5686,-515.9312 252.3638,-524.8007 256.6299,-519.2509"/>
</g>
<!-- Node12 -->
<g id="node12" class="node">
<title>Node12</title>
<g id="a_node12"><a xlink:href="../../dd/d7e/namespaceActs_1_1Test.html#af6c1a1d113eb66b82d2521aba011147b" target="_top" xlink:title="Acts::Test::testPlyString">
<polygon fill="none" stroke="#000000" points="352,-540.7337 352,-560.7337 488,-560.7337 488,-540.7337 352,-540.7337"/>
<text text-anchor="middle" x="420" y="-547.7337" font-family="FreeSans" font-size="10.00" fill="#000000">Acts::Test::testPlyString</text>
</a>
</g>
</g>
<!-- Node2&#45;&gt;Node12 -->
<g id="edge11" class="edge">
<title>Node2&#45;&gt;Node12</title>
<path fill="none" stroke="#191970" d="M281.9339,-518.4081C298.6923,-522.7502 317.651,-527.5628 335,-531.7337 347.4969,-534.7381 361.0658,-537.842 373.6173,-540.6482"/>
<polygon fill="#191970" stroke="#191970" points="282.3771,-514.9069 271.8179,-515.7752 280.6139,-521.6812 282.3771,-514.9069"/>
</g>
<!-- Node14 -->
<g id="node14" class="node">
<title>Node14</title>
<g id="a_node14"><a xlink:href="../../da/dae/classdfe_1_1io__dsv__impl_1_1NamedTupleDsvReader.html#a630c1ce1a0dda424be5f66ebc6095764" target="_top" xlink:title="dfe::io_dsv_impl::NamedTuple\lDsvReader::parse_record">
<polygon fill="none" stroke="#000000" points="336,-489.7337 336,-521.7337 504,-521.7337 504,-489.7337 336,-489.7337"/>
<text text-anchor="start" x="344" y="-508.7337" font-family="FreeSans" font-size="10.00" fill="#000000">dfe::io_dsv_impl::NamedTuple</text>
<text text-anchor="middle" x="420" y="-496.7337" font-family="FreeSans" font-size="10.00" fill="#000000">DsvReader::parse_record</text>
</a>
</g>
</g>
<!-- Node2&#45;&gt;Node14 -->
<g id="edge13" class="edge">
<title>Node2&#45;&gt;Node14</title>
<path fill="none" stroke="#191970" d="M309.1806,-505.7337C317.9089,-505.7337 326.8546,-505.7337 335.6947,-505.7337"/>
<polygon fill="#191970" stroke="#191970" points="309.0538,-502.2338 299.0538,-505.7337 309.0537,-509.2338 309.0538,-502.2338"/>
</g>
<!-- Node15 -->
<g id="node15" class="node">
<title>Node15</title>
<g id="a_node15"><a xlink:href="../../da/d47/classdfe_1_1NamedTupleNumpyWriter.html#abddc1df2d866180a7e8b98692eba6d47" target="_top" xlink:title="dfe::NamedTupleNumpyWriter\l::write_record">
<polygon fill="none" stroke="#000000" points="335,-438.7337 335,-470.7337 505,-470.7337 505,-438.7337 335,-438.7337"/>
<text text-anchor="start" x="343" y="-457.7337" font-family="FreeSans" font-size="10.00" fill="#000000">dfe::NamedTupleNumpyWriter</text>
<text text-anchor="middle" x="420" y="-445.7337" font-family="FreeSans" font-size="10.00" fill="#000000">::write_record</text>
</a>
</g>
</g>
<!-- Node2&#45;&gt;Node15 -->
<g id="edge14" class="edge">
<title>Node2&#45;&gt;Node15</title>
<path fill="none" stroke="#191970" d="M280.514,-492.9798C305.0032,-486.265 335.2816,-477.9629 361.3639,-470.8113"/>
<polygon fill="#191970" stroke="#191970" points="279.4661,-489.6379 270.7476,-495.6577 281.3172,-496.3887 279.4661,-489.6379"/>
</g>
<!-- Node16 -->
<g id="node16" class="node">
<title>Node16</title>
<g id="a_node16"><a xlink:href="../../d7/da5/classdfe_1_1NamedTupleRootWriter.html#a9eb13bf6f040dece4f52266b092dd5ee" target="_top" xlink:title="dfe::NamedTupleRootWriter\l::setup_branches">
<polygon fill="none" stroke="#000000" points="342,-387.7337 342,-419.7337 498,-419.7337 498,-387.7337 342,-387.7337"/>
<text text-anchor="start" x="350" y="-406.7337" font-family="FreeSans" font-size="10.00" fill="#000000">dfe::NamedTupleRootWriter</text>
<text text-anchor="middle" x="420" y="-394.7337" font-family="FreeSans" font-size="10.00" fill="#000000">::setup_branches</text>
</a>
</g>
</g>
<!-- Node2&#45;&gt;Node16 -->
<g id="edge15" class="edge">
<title>Node2&#45;&gt;Node16</title>
<path fill="none" stroke="#191970" d="M252.3415,-488.7747C271.6247,-471.7406 303.486,-445.7799 335,-429.7337 342.2885,-426.0225 350.2023,-422.7336 358.1702,-419.8512"/>
<polygon fill="#191970" stroke="#191970" points="249.7463,-486.4013 244.6491,-495.6894 254.4259,-491.6072 249.7463,-486.4013"/>
</g>
<!-- Node18 -->
<g id="node18" class="node">
<title>Node18</title>
<g id="a_node18"><a xlink:href="../../de/dc1/classdfe_1_1NamedTupleRootReader.html#af37f67c3cec99242c51cb045886e6b4b" target="_top" xlink:title="dfe::NamedTupleRootReader\l::setup_branches">
<polygon fill="none" stroke="#000000" points="339.5,-336.7337 339.5,-368.7337 500.5,-368.7337 500.5,-336.7337 339.5,-336.7337"/>
<text text-anchor="start" x="347.5" y="-355.7337" font-family="FreeSans" font-size="10.00" fill="#000000">dfe::NamedTupleRootReader</text>
<text text-anchor="middle" x="420" y="-343.7337" font-family="FreeSans" font-size="10.00" fill="#000000">::setup_branches</text>
</a>
</g>
</g>
<!-- Node2&#45;&gt;Node18 -->
<g id="edge17" class="edge">
<title>Node2&#45;&gt;Node18</title>
<path fill="none" stroke="#191970" d="M244.1551,-486.6693C259.9283,-458.8641 292.9269,-407.3875 335,-378.7337 340.6121,-374.9115 346.806,-371.6352 353.216,-368.83"/>
<polygon fill="#191970" stroke="#191970" points="241.0812,-484.9956 239.3077,-495.4409 247.208,-488.3814 241.0812,-484.9956"/>
</g>
<!-- Node20 -->
<g id="node20" class="node">
<title>Node20</title>
<g id="a_node20"><a xlink:href="../../d9/d99/namespacedfe_1_1namedtuple__impl.html#aa8ad89cedf2bded21782b264a137f711" target="_top" xlink:title="dfe::namedtuple_impl\l::print_tuple">
<polygon fill="none" stroke="#000000" points="356.5,-285.7337 356.5,-317.7337 483.5,-317.7337 483.5,-285.7337 356.5,-285.7337"/>
<text text-anchor="start" x="364.5" y="-304.7337" font-family="FreeSans" font-size="10.00" fill="#000000">dfe::namedtuple_impl</text>
<text text-anchor="middle" x="420" y="-292.7337" font-family="FreeSans" font-size="10.00" fill="#000000">::print_tuple</text>
</a>
</g>
</g>
<!-- Node2&#45;&gt;Node20 -->
<g id="edge19" class="edge">
<title>Node2&#45;&gt;Node20</title>
<path fill="none" stroke="#191970" d="M239.7933,-485.9466C251.5606,-449.2293 281.7612,-370.4139 335,-327.7337 341.3814,-322.6178 348.7638,-318.5059 356.4592,-315.2014"/>
<polygon fill="#191970" stroke="#191970" points="236.4452,-484.9267 236.843,-495.5141 243.1344,-486.9895 236.4452,-484.9267"/>
</g>
<!-- Node21 -->
<g id="node21" class="node">
<title>Node21</title>
<g id="a_node21"><a xlink:href="../../d1/d9a/classdfe_1_1SmallVector.html#a827ce30e4a55a23607dca4e9df866804" target="_top" xlink:title="Construct an element directly before the given position in the vector.">
<polygon fill="none" stroke="#000000" points="345.5,-246.7337 345.5,-266.7337 494.5,-266.7337 494.5,-246.7337 345.5,-246.7337"/>
<text text-anchor="middle" x="420" y="-253.7337" font-family="FreeSans" font-size="10.00" fill="#000000">dfe::SmallVector::emplace</text>
</a>
</g>
</g>
<!-- Node2&#45;&gt;Node21 -->
<g id="edge20" class="edge">
<title>Node2&#45;&gt;Node21</title>
<path fill="none" stroke="#191970" d="M236.7836,-485.6576C244.0989,-440.8517 268.1401,-332.282 335,-276.7337 339.8975,-272.6648 345.4758,-269.3927 351.3799,-266.7654"/>
<polygon fill="#191970" stroke="#191970" points="233.3144,-485.191 235.2683,-495.6041 240.2346,-486.2453 233.3144,-485.191"/>
</g>
<!-- Node23 -->
<g id="node23" class="node">
<title>Node23</title>
<g id="a_node23"><a xlink:href="../../d6/d30/classnlohmann_1_1detail_1_1binary__reader.html#aed84f0302eb232d3b69f7653bef2337a" target="_top" xlink:title="create a binary reader">
<polygon fill="none" stroke="#000000" points="349.5,-195.7337 349.5,-227.7337 490.5,-227.7337 490.5,-195.7337 349.5,-195.7337"/>
<text text-anchor="start" x="357.5" y="-214.7337" font-family="FreeSans" font-size="10.00" fill="#000000">nlohmann::detail::binary</text>
<text text-anchor="middle" x="420" y="-202.7337" font-family="FreeSans" font-size="10.00" fill="#000000">_reader::binary_reader</text>
</a>
</g>
</g>
<!-- Node2&#45;&gt;Node23 -->
<g id="edge22" class="edge">
<title>Node2&#45;&gt;Node23</title>
<path fill="none" stroke="#191970" d="M235.6808,-485.3797C240.8869,-435.6558 261.1643,-307.0194 335,-237.7337 339.2762,-233.721 344.1558,-230.3267 349.3654,-227.4556"/>
<polygon fill="#191970" stroke="#191970" points="232.1811,-485.2116 234.7204,-495.4976 239.1498,-485.8732 232.1811,-485.2116"/>
</g>
<!-- Node24 -->
<g id="node24" class="node">
<title>Node24</title>
<g id="a_node24"><a xlink:href="../../df/d6b/classnlohmann_1_1detail_1_1parser.html#a14e34931965064b26e118eb72cbd5e25" target="_top" xlink:title="nlohmann::detail::parser\l::sax_parse">
<polygon fill="none" stroke="#000000" points="349,-144.7337 349,-176.7337 491,-176.7337 491,-144.7337 349,-144.7337"/>
<text text-anchor="start" x="357" y="-163.7337" font-family="FreeSans" font-size="10.00" fill="#000000">nlohmann::detail::parser</text>
<text text-anchor="middle" x="420" y="-151.7337" font-family="FreeSans" font-size="10.00" fill="#000000">::sax_parse</text>
</a>
</g>
</g>
<!-- Node2&#45;&gt;Node24 -->
<g id="edge23" class="edge">
<title>Node2&#45;&gt;Node24</title>
<path fill="none" stroke="#191970" d="M237.8072,-485.5361C250.122,-422.2149 290.6575,-229.2121 335,-185.7337 339.0638,-181.7491 343.7285,-178.394 348.7355,-175.5698"/>
<polygon fill="#191970" stroke="#191970" points="234.3465,-484.9984 235.8994,-495.4788 241.2211,-486.3175 234.3465,-484.9984"/>
</g>
<!-- Node25 -->
<g id="node25" class="node">
<title>Node25</title>
<g id="a_node25"><a xlink:href="../../de/d04/classFairRegistry.html#a9c038417984f85620249297434f8775b" target="_top" xlink:title="FairRegistry::GetType">
<polygon fill="none" stroke="#000000" points="359,-105.7337 359,-125.7337 481,-125.7337 481,-105.7337 359,-105.7337"/>
<text text-anchor="middle" x="420" y="-112.7337" font-family="FreeSans" font-size="10.00" fill="#000000">FairRegistry::GetType</text>
</a>
</g>
</g>
<!-- Node2&#45;&gt;Node25 -->
<g id="edge24" class="edge">
<title>Node2&#45;&gt;Node25</title>
<path fill="none" stroke="#191970" d="M236.7463,-485.478C246.6545,-415.3739 282.7571,-184.6329 335,-134.7337 341.6702,-128.3627 349.9877,-123.9492 358.7888,-120.9219"/>
<polygon fill="#191970" stroke="#191970" points="233.2448,-485.2474 235.3368,-495.6336 240.1784,-486.2097 233.2448,-485.2474"/>
</g>
<!-- Node26 -->
<g id="node26" class="node">
<title>Node26</title>
<g id="a_node26"><a xlink:href="../../db/d4e/predicates_8cxx.html#a4099aaa470a750a3f06a160239500f4c" target="_top" xlink:title="test_double">
<polygon fill="none" stroke="#000000" points="382.5,-66.7337 382.5,-86.7337 457.5,-86.7337 457.5,-66.7337 382.5,-66.7337"/>
<text text-anchor="middle" x="420" y="-73.7337" font-family="FreeSans" font-size="10.00" fill="#000000">test_double</text>
</a>
</g>
</g>
<!-- Node2&#45;&gt;Node26 -->
<g id="edge25" class="edge">
<title>Node2&#45;&gt;Node26</title>
<path fill="none" stroke="#191970" d="M236.2029,-485.3394C244.7074,-410.3992 277.8064,-151.704 335,-95.7337 347.4283,-83.5712 365.8433,-78.5018 382.3584,-76.6071"/>
<polygon fill="#191970" stroke="#191970" points="232.6743,-485.4048 235.0493,-495.73 239.6315,-486.1773 232.6743,-485.4048"/>
</g>
<!-- Node11 -->
<g id="node11" class="node">
<title>Node11</title>
<g id="a_node11"><a xlink:href="../../dd/d7e/namespaceActs_1_1Test.html#ae4ff55e1ea2817845113f9c023cf4ec7" target="_top" xlink:title="Acts::Test::BOOST_AUTO\l_TEST_CASE">
<polygon fill="none" stroke="#000000" points="560,-579.7337 560,-611.7337 701,-611.7337 701,-579.7337 560,-579.7337"/>
<text text-anchor="start" x="568" y="-598.7337" font-family="FreeSans" font-size="10.00" fill="#000000">Acts::Test::BOOST_AUTO</text>
<text text-anchor="middle" x="630.5" y="-586.7337" font-family="FreeSans" font-size="10.00" fill="#000000">_TEST_CASE</text>
</a>
</g>
</g>
<!-- Node10&#45;&gt;Node11 -->
<g id="edge10" class="edge">
<title>Node10&#45;&gt;Node11</title>
<path fill="none" stroke="#191970" d="M500.7096,-592.0342C520.1254,-592.5876 540.7212,-593.1746 559.6492,-593.7142"/>
<polygon fill="#191970" stroke="#191970" points="500.7747,-588.5347 490.679,-591.7483 500.5752,-595.5319 500.7747,-588.5347"/>
</g>
<!-- Node13 -->
<g id="node13" class="node">
<title>Node13</title>
<g id="a_node13"><a xlink:href="../../dd/d7e/namespaceActs_1_1Test.html#a6cbb774288b74daf0ec645fcc38d7504" target="_top" xlink:title="Acts::Test::BOOST_AUTO\l_TEST_CASE">
<polygon fill="none" stroke="#000000" points="560,-528.7337 560,-560.7337 701,-560.7337 701,-528.7337 560,-528.7337"/>
<text text-anchor="start" x="568" y="-547.7337" font-family="FreeSans" font-size="10.00" fill="#000000">Acts::Test::BOOST_AUTO</text>
<text text-anchor="middle" x="630.5" y="-535.7337" font-family="FreeSans" font-size="10.00" fill="#000000">_TEST_CASE</text>
</a>
</g>
</g>
<!-- Node12&#45;&gt;Node13 -->
<g id="edge12" class="edge">
<title>Node12&#45;&gt;Node13</title>
<path fill="none" stroke="#191970" d="M498.1542,-548.506C518.357,-547.9301 539.9889,-547.3136 559.7872,-546.7492"/>
<polygon fill="#191970" stroke="#191970" points="497.9488,-545.0103 488.0526,-548.7939 498.1483,-552.0075 497.9488,-545.0103"/>
</g>
<!-- Node17 -->
<g id="node17" class="node">
<title>Node17</title>
<g id="a_node17"><a xlink:href="../../d7/da5/classdfe_1_1NamedTupleRootWriter.html#a5c265481c3acf743c02735410c818826" target="_top" xlink:title="dfe::NamedTupleRootWriter\l::NamedTupleRootWriter">
<polygon fill="none" stroke="#000000" points="552.5,-387.7337 552.5,-419.7337 708.5,-419.7337 708.5,-387.7337 552.5,-387.7337"/>
<text text-anchor="start" x="560.5" y="-406.7337" font-family="FreeSans" font-size="10.00" fill="#000000">dfe::NamedTupleRootWriter</text>
<text text-anchor="middle" x="630.5" y="-394.7337" font-family="FreeSans" font-size="10.00" fill="#000000">::NamedTupleRootWriter</text>
</a>
</g>
</g>
<!-- Node16&#45;&gt;Node17 -->
<g id="edge16" class="edge">
<title>Node16&#45;&gt;Node17</title>
<path fill="none" stroke="#191970" d="M508.1226,-403.7337C522.7492,-403.7337 537.8293,-403.7337 552.1918,-403.7337"/>
<polygon fill="#191970" stroke="#191970" points="508.0833,-400.2338 498.0833,-403.7337 508.0833,-407.2338 508.0833,-400.2338"/>
</g>
<!-- Node19 -->
<g id="node19" class="node">
<title>Node19</title>
<g id="a_node19"><a xlink:href="../../de/dc1/classdfe_1_1NamedTupleRootReader.html#ae5b8d923f8bc6b466a0e80d41fc7a3d7" target="_top" xlink:title="dfe::NamedTupleRootReader\l::NamedTupleRootReader">
<polygon fill="none" stroke="#000000" points="550,-336.7337 550,-368.7337 711,-368.7337 711,-336.7337 550,-336.7337"/>
<text text-anchor="start" x="558" y="-355.7337" font-family="FreeSans" font-size="10.00" fill="#000000">dfe::NamedTupleRootReader</text>
<text text-anchor="middle" x="630.5" y="-343.7337" font-family="FreeSans" font-size="10.00" fill="#000000">::NamedTupleRootReader</text>
</a>
</g>
</g>
<!-- Node18&#45;&gt;Node19 -->
<g id="edge18" class="edge">
<title>Node18&#45;&gt;Node19</title>
<path fill="none" stroke="#191970" d="M511.074,-352.7337C524.003,-352.7337 537.2227,-352.7337 549.9334,-352.7337"/>
<polygon fill="#191970" stroke="#191970" points="510.7828,-349.2338 500.7828,-352.7337 510.7827,-356.2338 510.7828,-349.2338"/>
</g>
<!-- Node22 -->
<g id="node22" class="node">
<title>Node22</title>
<g id="a_node22"><a xlink:href="../../d1/d9a/classdfe_1_1SmallVector.html#aad73744d5a0663284336c358cc6f9d1b" target="_top" xlink:title="Construct an element at the back of the vector and return its reference.">
<polygon fill="none" stroke="#000000" points="541,-246.7337 541,-266.7337 720,-266.7337 720,-246.7337 541,-246.7337"/>
<text text-anchor="middle" x="630.5" y="-253.7337" font-family="FreeSans" font-size="10.00" fill="#000000">dfe::SmallVector::emplace_back</text>
</a>
</g>
</g>
<!-- Node21&#45;&gt;Node22 -->
<g id="edge21" class="edge">
<title>Node21&#45;&gt;Node22</title>
<path fill="none" stroke="#191970" d="M504.8447,-256.7337C516.7282,-256.7337 528.9725,-256.7337 540.9399,-256.7337"/>
<polygon fill="#191970" stroke="#191970" points="504.5107,-253.2338 494.5107,-256.7337 504.5106,-260.2338 504.5107,-253.2338"/>
</g>
<!-- Node27 -->
<g id="node27" class="node">
<title>Node27</title>
<g id="a_node27"><a xlink:href="../../de/db3/tetgen_8h.html#a2b6db2f06270137f70bf55f2a00d2877" target="_top" xlink:title="exactinit">
<polygon fill="none" stroke="#000000" points="600.5,-66.7337 600.5,-86.7337 660.5,-86.7337 660.5,-66.7337 600.5,-66.7337"/>
<text text-anchor="middle" x="630.5" y="-73.7337" font-family="FreeSans" font-size="10.00" fill="#000000">exactinit</text>
</a>
</g>
</g>
<!-- Node26&#45;&gt;Node27 -->
<g id="edge26" class="edge">
<title>Node26&#45;&gt;Node27</title>
<path fill="none" stroke="#191970" d="M467.8608,-76.7337C508.5593,-76.7337 565.7486,-76.7337 600.3457,-76.7337"/>
<polygon fill="#191970" stroke="#191970" points="467.6332,-73.2338 457.6332,-76.7337 467.6331,-80.2338 467.6332,-73.2338"/>
</g>
<!-- Node28 -->
<g id="node28" class="node">
<title>Node28</title>
<g id="a_node28"><a xlink:href="../../de/db3/tetgen_8h.html#ad3637eb4ffe7fda90667e67b7771d964" target="_top" xlink:title="tetrahedralize">
<polygon fill="none" stroke="#000000" points="756,-66.7337 756,-86.7337 843,-86.7337 843,-66.7337 756,-66.7337"/>
<text text-anchor="middle" x="799.5" y="-73.7337" font-family="FreeSans" font-size="10.00" fill="#000000">tetrahedralize</text>
</a>
</g>
</g>
<!-- Node27&#45;&gt;Node28 -->
<g id="edge27" class="edge">
<title>Node27&#45;&gt;Node28</title>
<path fill="none" stroke="#191970" d="M670.8418,-76.7337C696.4755,-76.7337 729.6494,-76.7337 755.8908,-76.7337"/>
<polygon fill="#191970" stroke="#191970" points="670.7138,-73.2338 660.7138,-76.7337 670.7138,-80.2338 670.7138,-73.2338"/>
</g>
<!-- Node29 -->
<g id="node29" class="node">
<title>Node29</title>
<g id="a_node29"><a xlink:href="../../d7/db1/classEicStlFactory.html#ac12dcc068bd2f6a941a3c003784c75fa" target="_top" xlink:title="EicStlFactory::_Construct\lGeometry">
<polygon fill="none" stroke="#000000" points="888.5,-105.7337 888.5,-137.7337 1029.5,-137.7337 1029.5,-105.7337 888.5,-105.7337"/>
<text text-anchor="start" x="896.5" y="-124.7337" font-family="FreeSans" font-size="10.00" fill="#000000">EicStlFactory::_Construct</text>
<text text-anchor="middle" x="959" y="-112.7337" font-family="FreeSans" font-size="10.00" fill="#000000">Geometry</text>
</a>
</g>
</g>
<!-- Node28&#45;&gt;Node29 -->
<g id="edge28" class="edge">
<title>Node28&#45;&gt;Node29</title>
<path fill="none" stroke="#191970" d="M845.3531,-89.6703C863.0299,-94.6575 883.4367,-100.4149 902.0379,-105.6628"/>
<polygon fill="#191970" stroke="#191970" points="845.8696,-86.1794 835.2949,-86.8325 843.9688,-92.9164 845.8696,-86.1794"/>
</g>
<!-- Node31 -->
<g id="node31" class="node">
<title>Node31</title>
<g id="a_node31"><a xlink:href="../../d7/db1/classEicStlFactory.html#a0cc0f04c573c3313258e5e73443c4cfd" target="_top" xlink:title="EicStlFactory::CreateRootFile">
<polygon fill="none" stroke="#000000" points="879,-66.7337 879,-86.7337 1039,-86.7337 1039,-66.7337 879,-66.7337"/>
<text text-anchor="middle" x="959" y="-73.7337" font-family="FreeSans" font-size="10.00" fill="#000000">EicStlFactory::CreateRootFile</text>
</a>
</g>
</g>
<!-- Node28&#45;&gt;Node31 -->
<g id="edge30" class="edge">
<title>Node28&#45;&gt;Node31</title>
<path fill="none" stroke="#191970" d="M853.3098,-76.7337C861.5839,-76.7337 870.276,-76.7337 878.9725,-76.7337"/>
<polygon fill="#191970" stroke="#191970" points="853.0841,-73.2338 843.0841,-76.7337 853.084,-80.2338 853.0841,-73.2338"/>
</g>
<!-- Node39 -->
<g id="node39" class="node">
<title>Node39</title>
<g id="a_node39"><a xlink:href="../../d7/d8f/tetgen_8cxx.html#a0ddf1224851353fc92bfbff6f499fa97" target="_top" xlink:title="main">
<polygon fill="none" stroke="#000000" points="938.5,-27.7337 938.5,-47.7337 979.5,-47.7337 979.5,-27.7337 938.5,-27.7337"/>
<text text-anchor="middle" x="959" y="-34.7337" font-family="FreeSans" font-size="10.00" fill="#000000">main</text>
</a>
</g>
</g>
<!-- Node28&#45;&gt;Node39 -->
<g id="edge42" class="edge">
<title>Node28&#45;&gt;Node39</title>
<path fill="none" stroke="#191970" d="M848.8805,-64.2027C858.8459,-61.7043 869.2535,-59.1169 879,-56.7337 899.1067,-51.8171 922.1016,-46.3746 938.2623,-42.5792"/>
<polygon fill="#191970" stroke="#191970" points="847.9483,-60.8281 839.1034,-66.6605 849.655,-67.6168 847.9483,-60.8281"/>
</g>
<!-- Node30 -->
<g id="node30" class="node">
<title>Node30</title>
<g id="a_node30"><a xlink:href="../../d8/d7b/classEicCadFile.html#a8e8bf4dd75c81efa51b8bc49696ff960" target="_top" xlink:title="EicCadFile::ConstructGeometry">
<polygon fill="none" stroke="#000000" points="1075,-111.7337 1075,-131.7337 1249,-131.7337 1249,-111.7337 1075,-111.7337"/>
<text text-anchor="middle" x="1162" y="-118.7337" font-family="FreeSans" font-size="10.00" fill="#000000">EicCadFile::ConstructGeometry</text>
</a>
</g>
</g>
<!-- Node29&#45;&gt;Node30 -->
<g id="edge29" class="edge">
<title>Node29&#45;&gt;Node30</title>
<path fill="none" stroke="#191970" d="M1039.7192,-121.7337C1051.2309,-121.7337 1063.1151,-121.7337 1074.7449,-121.7337"/>
<polygon fill="#191970" stroke="#191970" points="1039.7146,-118.2338 1029.7146,-121.7337 1039.7145,-125.2338 1039.7146,-118.2338"/>
</g>
<!-- Node32 -->
<g id="node32" class="node">
<title>Node32</title>
<g id="a_node32"><a xlink:href="../../d3/d74/classEicCadWizard.html#aa3d8913ceadf362918c9dfa6e5768fa5" target="_top" xlink:title="EicCadWizard::CreateStlSolid\lRootFile">
<polygon fill="none" stroke="#000000" points="1080.5,-60.7337 1080.5,-92.7337 1243.5,-92.7337 1243.5,-60.7337 1080.5,-60.7337"/>
<text text-anchor="start" x="1088.5" y="-79.7337" font-family="FreeSans" font-size="10.00" fill="#000000">EicCadWizard::CreateStlSolid</text>
<text text-anchor="middle" x="1162" y="-67.7337" font-family="FreeSans" font-size="10.00" fill="#000000">RootFile</text>
</a>
</g>
</g>
<!-- Node31&#45;&gt;Node32 -->
<g id="edge31" class="edge">
<title>Node31&#45;&gt;Node32</title>
<path fill="none" stroke="#191970" d="M1049.4543,-76.7337C1059.7447,-76.7337 1070.1883,-76.7337 1080.3553,-76.7337"/>
<polygon fill="#191970" stroke="#191970" points="1049.231,-73.2338 1039.231,-76.7337 1049.2309,-80.2338 1049.231,-73.2338"/>
</g>
<!-- Node33 -->
<g id="node33" class="node">
<title>Node33</title>
<g id="a_node33"><a xlink:href="../../d3/d74/classEicCadWizard.html#a934e44248a9b831031244e8f677192ab" target="_top" xlink:title="EicCadWizard::FaceGuided\lSplit">
<polygon fill="none" stroke="#000000" points="1285,-130.7337 1285,-162.7337 1436,-162.7337 1436,-130.7337 1285,-130.7337"/>
<text text-anchor="start" x="1293" y="-149.7337" font-family="FreeSans" font-size="10.00" fill="#000000">EicCadWizard::FaceGuided</text>
<text text-anchor="middle" x="1360.5" y="-137.7337" font-family="FreeSans" font-size="10.00" fill="#000000">Split</text>
</a>
</g>
</g>
<!-- Node32&#45;&gt;Node33 -->
<g id="edge32" class="edge">
<title>Node32&#45;&gt;Node33</title>
<path fill="none" stroke="#191970" d="M1230.8908,-95.8125C1237.0403,-97.7318 1243.1494,-99.7185 1249,-101.7337 1274.1644,-110.4011 1301.9204,-121.5972 1323.4444,-130.6533"/>
<polygon fill="#191970" stroke="#191970" points="1231.8116,-92.4342 1221.2252,-92.8576 1229.765,-99.1283 1231.8116,-92.4342"/>
</g>
<!-- Node36 -->
<g id="node36" class="node">
<title>Node36</title>
<g id="a_node36"><a xlink:href="../../d3/d74/classEicCadWizard.html#a006a3271b204498a10bb4b15e45c5a61" target="_top" xlink:title="EicCadWizard::FlatSurface\lSplit">
<polygon fill="none" stroke="#000000" points="1876,-153.7337 1876,-185.7337 2025,-185.7337 2025,-153.7337 1876,-153.7337"/>
<text text-anchor="start" x="1884" y="-172.7337" font-family="FreeSans" font-size="10.00" fill="#000000">EicCadWizard::FlatSurface</text>
<text text-anchor="middle" x="1950.5" y="-160.7337" font-family="FreeSans" font-size="10.00" fill="#000000">Split</text>
</a>
</g>
</g>
<!-- Node32&#45;&gt;Node36 -->
<g id="edge41" class="edge">
<title>Node32&#45;&gt;Node36</title>
<path fill="none" stroke="#191970" d="M1220.1471,-57.6743C1341.5228,-21.3439 1628.1319,46.2235 1840,-47.7337 1889.3732,-69.6292 1926.0728,-125.6918 1941.9009,-153.5373"/>
<polygon fill="#191970" stroke="#191970" points="1218.8605,-54.4071 1210.3077,-60.66 1220.8932,-61.1055 1218.8605,-54.4071"/>
</g>
<!-- Node34 -->
<g id="node34" class="node">
<title>Node34</title>
<g id="a_node34"><a xlink:href="../../d3/d74/classEicCadWizard.html#ae20efc31d935163c847571a258d9f5da" target="_top" xlink:title="EicCadWizard::ConvertSource\lFileToRoot">
<polygon fill="none" stroke="#000000" points="1472,-130.7337 1472,-162.7337 1638,-162.7337 1638,-130.7337 1472,-130.7337"/>
<text text-anchor="start" x="1480" y="-149.7337" font-family="FreeSans" font-size="10.00" fill="#000000">EicCadWizard::ConvertSource</text>
<text text-anchor="middle" x="1555" y="-137.7337" font-family="FreeSans" font-size="10.00" fill="#000000">FileToRoot</text>
</a>
</g>
</g>
<!-- Node33&#45;&gt;Node34 -->
<g id="edge33" class="edge">
<title>Node33&#45;&gt;Node34</title>
<path fill="none" stroke="#191970" d="M1446.429,-140.0245C1454.8298,-139.9637 1463.3449,-139.9708 1471.7188,-140.0459"/>
<polygon fill="#191970" stroke="#191970" points="1446.218,-136.5264 1436.2557,-140.1324 1446.2923,-143.526 1446.218,-136.5264"/>
</g>
<!-- Node34&#45;&gt;Node33 -->
<g id="edge39" class="edge">
<title>Node34&#45;&gt;Node33</title>
<path fill="none" stroke="#191970" d="M1461.4516,-153.4793C1453.0052,-153.4992 1444.5214,-153.451 1436.2557,-153.3349"/>
<polygon fill="#191970" stroke="#191970" points="1461.7387,-156.9778 1471.7188,-153.4214 1461.6992,-149.978 1461.7387,-156.9778"/>
</g>
<!-- Node35 -->
<g id="node35" class="node">
<title>Node35</title>
<g id="a_node35"><a xlink:href="../../d3/d74/classEicCadWizard.html#a755802c1852cc16497c285ffff5f9ed9" target="_top" xlink:title="EicCadWizard::ConvertSource\lDirectoryToRoot">
<polygon fill="none" stroke="#000000" points="1674,-198.7337 1674,-230.7337 1840,-230.7337 1840,-198.7337 1674,-198.7337"/>
<text text-anchor="start" x="1682" y="-217.7337" font-family="FreeSans" font-size="10.00" fill="#000000">EicCadWizard::ConvertSource</text>
<text text-anchor="middle" x="1757" y="-205.7337" font-family="FreeSans" font-size="10.00" fill="#000000">DirectoryToRoot</text>
</a>
</g>
</g>
<!-- Node34&#45;&gt;Node35 -->
<g id="edge34" class="edge">
<title>Node34&#45;&gt;Node35</title>
<path fill="none" stroke="#191970" d="M1631.5756,-165.9401C1663.8057,-176.3101 1699.5659,-188.8353 1724.6284,-198.7263"/>
<polygon fill="#191970" stroke="#191970" points="1632.2927,-162.4954 1621.7022,-162.7964 1630.1689,-169.1655 1632.2927,-162.4954"/>
</g>
<!-- Node34&#45;&gt;Node36 -->
<g id="edge40" class="edge">
<title>Node34&#45;&gt;Node36</title>
<path fill="none" stroke="#191970" d="M1648.4589,-152.1687C1717.9148,-156.2078 1811.4158,-161.6453 1875.8971,-165.3952"/>
<polygon fill="#191970" stroke="#191970" points="1648.5785,-148.6698 1638.3921,-151.5833 1648.172,-155.658 1648.5785,-148.6698"/>
</g>
<!-- Node37 -->
<g id="node37" class="node">
<title>Node37</title>
<g id="a_node37"><a xlink:href="../../d3/d74/classEicCadWizard.html#a96164b69291586bf689c5e002a1257d2" target="_top" xlink:title="EicCadWizard::ConvertSource\lFilesToRoot">
<polygon fill="none" stroke="#000000" points="1674,-108.7337 1674,-140.7337 1840,-140.7337 1840,-108.7337 1674,-108.7337"/>
<text text-anchor="start" x="1682" y="-127.7337" font-family="FreeSans" font-size="10.00" fill="#000000">EicCadWizard::ConvertSource</text>
<text text-anchor="middle" x="1757" y="-115.7337" font-family="FreeSans" font-size="10.00" fill="#000000">FilesToRoot</text>
</a>
</g>
</g>
<!-- Node34&#45;&gt;Node37 -->
<g id="edge37" class="edge">
<title>Node34&#45;&gt;Node37</title>
<path fill="none" stroke="#191970" d="M1648.1092,-136.5931C1656.7336,-135.6538 1665.4352,-134.7061 1673.9604,-133.7776"/>
<polygon fill="#191970" stroke="#191970" points="1647.5978,-133.128 1638.0356,-137.6902 1648.3558,-140.0868 1647.5978,-133.128"/>
</g>
<!-- Node38 -->
<g id="node38" class="node">
<title>Node38</title>
<g id="a_node38"><a xlink:href="../../d3/d74/classEicCadWizard.html#a8c9200680c7b255518246d67c872309b" target="_top" xlink:title="EicCadWizard::ConvertSource\lFileToRoot">
<polygon fill="none" stroke="#000000" points="1674,-57.7337 1674,-89.7337 1840,-89.7337 1840,-57.7337 1674,-57.7337"/>
<text text-anchor="start" x="1682" y="-76.7337" font-family="FreeSans" font-size="10.00" fill="#000000">EicCadWizard::ConvertSource</text>
<text text-anchor="middle" x="1757" y="-64.7337" font-family="FreeSans" font-size="10.00" fill="#000000">FileToRoot</text>
</a>
</g>
</g>
<!-- Node34&#45;&gt;Node38 -->
<g id="edge38" class="edge">
<title>Node34&#45;&gt;Node38</title>
<path fill="none" stroke="#191970" d="M1601.5462,-126.8172C1623.3693,-117.7745 1649.834,-107.2272 1674,-98.7337 1682.6607,-95.6897 1691.9065,-92.677 1700.967,-89.8534"/>
<polygon fill="#191970" stroke="#191970" points="1600.0675,-123.6416 1592.1853,-130.7212 1602.7621,-130.1022 1600.0675,-123.6416"/>
</g>
<!-- Node35&#45;&gt;Node34 -->
<g id="edge35" class="edge">
<title>Node35&#45;&gt;Node34</title>
<path fill="none" stroke="#191970" d="M1680.4508,-195.5357C1648.2494,-185.1755 1612.52,-172.6624 1587.4548,-162.7739"/>
<polygon fill="#191970" stroke="#191970" points="1679.7248,-198.9776 1690.3153,-198.6764 1681.8485,-192.3075 1679.7248,-198.9776"/>
</g>
<!-- Node35&#45;&gt;Node36 -->
<g id="edge36" class="edge">
<title>Node35&#45;&gt;Node36</title>
<path fill="none" stroke="#191970" d="M1835.8701,-196.3918C1850.9882,-192.8759 1866.7098,-189.2198 1881.4882,-185.7829"/>
<polygon fill="#191970" stroke="#191970" points="1834.9857,-193.004 1826.0384,-198.6782 1836.5713,-199.822 1834.9857,-193.004"/>
</g>
</g>
</svg>
