<?xml version="1.0" encoding="UTF-8" standalone="no"?>
<!DOCTYPE svg PUBLIC "-//W3C//DTD SVG 1.1//EN"
 "http://www.w3.org/Graphics/SVG/1.1/DTD/svg11.dtd">
<!-- Generated by graphviz version 2.40.1 (20161225.0304)
 -->
<!-- Title: fun4all_coresoftware/blob/master/offline/packages/KFParticle_sPHENIX/KFParticle_MVA.cc Pages: 1 -->
<svg width="736pt" height="236pt"
 viewBox="0.00 0.00 735.50 236.00" xmlns="http://www.w3.org/2000/svg" xmlns:xlink="http://www.w3.org/1999/xlink">
<g id="graph0" class="graph" transform="scale(1 1) rotate(0) translate(4 232)">
<title>fun4all_coresoftware/blob/master/offline/packages/KFParticle_sPHENIX/KFParticle_MVA.cc</title>
<!-- Node1 -->
<g id="node1" class="node">
<title>Node1</title>
<polygon fill="#bfbfbf" stroke="#000000" points="473,-171.5 473,-227.5 642,-227.5 642,-171.5 473,-171.5"/>
<text text-anchor="start" x="481" y="-214.5" font-family="FreeSans" font-size="10.00" fill="#000000">fun4all_coresoftware</text>
<text text-anchor="start" x="481" y="-202.5" font-family="FreeSans" font-size="10.00" fill="#000000">/blob/master/offline</text>
<text text-anchor="start" x="481" y="-190.5" font-family="FreeSans" font-size="10.00" fill="#000000">/packages/KFParticle_sPHENIX</text>
<text text-anchor="middle" x="557.5" y="-178.5" font-family="FreeSans" font-size="10.00" fill="#000000">/KFParticle_MVA.cc</text>
</g>
<!-- Node2 -->
<g id="node2" class="node">
<title>Node2</title>
<g id="a_node2"><a xlink:href="../../db/d02/KFParticle__MVA_8h.html" target="_top" xlink:title="KFParticle_MVA.h">
<polygon fill="none" stroke="#000000" points="169.5,-57.5 169.5,-77.5 271.5,-77.5 271.5,-57.5 169.5,-57.5"/>
<text text-anchor="middle" x="220.5" y="-64.5" font-family="FreeSans" font-size="10.00" fill="#000000">KFParticle_MVA.h</text>
</a>
</g>
</g>
<!-- Node1&#45;&gt;Node2 -->
<g id="edge1" class="edge">
<title>Node1&#45;&gt;Node2</title>
<path fill="none" stroke="#191970" d="M473.6599,-171.415C442.3523,-160.5442 406.6168,-147.6783 374.5,-135 331.3784,-117.9775 282.4921,-96.0979 251.5888,-81.9387"/>
<polygon fill="#191970" stroke="#191970" points="252.7649,-78.6272 242.2173,-77.6287 249.8401,-84.9869 252.7649,-78.6272"/>
</g>
<!-- Node7 -->
<g id="node7" class="node">
<title>Node7</title>
<g id="a_node7"><a xlink:href="../../d6/d98/KFParticle__Tools_8h.html" target="_top" xlink:title="KFParticle_Tools.h">
<polygon fill="none" stroke="#000000" points="384,-114.5 384,-134.5 489,-134.5 489,-114.5 384,-114.5"/>
<text text-anchor="middle" x="436.5" y="-121.5" font-family="FreeSans" font-size="10.00" fill="#000000">KFParticle_Tools.h</text>
</a>
</g>
</g>
<!-- Node1&#45;&gt;Node7 -->
<g id="edge6" class="edge">
<title>Node1&#45;&gt;Node7</title>
<path fill="none" stroke="#191970" d="M512.0998,-171.3594C495.0469,-160.7894 476.2841,-149.1596 461.7167,-140.1302"/>
<polygon fill="#191970" stroke="#191970" points="463.1534,-136.9029 452.8098,-134.6094 459.4655,-142.8527 463.1534,-136.9029"/>
</g>
<!-- Node9 -->
<g id="node9" class="node">
<title>Node9</title>
<polygon fill="none" stroke="#bfbfbf" points="472,-.5 472,-20.5 511,-20.5 511,-.5 472,-.5"/>
<text text-anchor="middle" x="491.5" y="-7.5" font-family="FreeSans" font-size="10.00" fill="#000000">map</text>
</g>
<!-- Node1&#45;&gt;Node9 -->
<g id="edge15" class="edge">
<title>Node1&#45;&gt;Node9</title>
<path fill="none" stroke="#191970" d="M580.2244,-171.2547C601.6357,-140.9682 627.1719,-92.459 603.5,-57 585.2341,-29.6387 547.5391,-18.3548 520.9387,-13.7154"/>
<polygon fill="#191970" stroke="#191970" points="521.4174,-10.248 511.0034,-12.1971 520.3599,-17.1677 521.4174,-10.248"/>
</g>
<!-- Node10 -->
<g id="node10" class="node">
<title>Node10</title>
<polygon fill="none" stroke="#bfbfbf" points="520,-57.5 520,-77.5 595,-77.5 595,-57.5 520,-57.5"/>
<text text-anchor="middle" x="557.5" y="-64.5" font-family="FreeSans" font-size="10.00" fill="#000000">KFParticle.h</text>
</g>
<!-- Node1&#45;&gt;Node10 -->
<g id="edge14" class="edge">
<title>Node1&#45;&gt;Node10</title>
<path fill="none" stroke="#191970" d="M557.5,-171.1827C557.5,-146.1532 557.5,-110.2499 557.5,-87.9306"/>
<polygon fill="#191970" stroke="#191970" points="561.0001,-87.6267 557.5,-77.6267 554.0001,-87.6267 561.0001,-87.6267"/>
</g>
<!-- Node11 -->
<g id="node11" class="node">
<title>Node11</title>
<polygon fill="none" stroke="#bfbfbf" points="651.5,-114.5 651.5,-134.5 727.5,-134.5 727.5,-114.5 651.5,-114.5"/>
<text text-anchor="middle" x="689.5" y="-121.5" font-family="FreeSans" font-size="10.00" fill="#000000">KFPVertex.h</text>
</g>
<!-- Node1&#45;&gt;Node11 -->
<g id="edge13" class="edge">
<title>Node1&#45;&gt;Node11</title>
<path fill="none" stroke="#191970" d="M607.0275,-171.3594C625.985,-160.5881 646.8796,-148.7162 662.894,-139.6171"/>
<polygon fill="#191970" stroke="#191970" points="664.742,-142.5926 671.7075,-134.6094 661.2839,-136.5064 664.742,-142.5926"/>
</g>
<!-- Node3 -->
<g id="node3" class="node">
<title>Node3</title>
<polygon fill="none" stroke="#bfbfbf" points="0,-.5 0,-20.5 93,-20.5 93,-.5 0,-.5"/>
<text text-anchor="middle" x="46.5" y="-7.5" font-family="FreeSans" font-size="10.00" fill="#000000">TMVA/Reader.h</text>
</g>
<!-- Node2&#45;&gt;Node3 -->
<g id="edge2" class="edge">
<title>Node2&#45;&gt;Node3</title>
<path fill="none" stroke="#191970" d="M189.7928,-57.4408C161.1815,-48.0681 118.3354,-34.0323 86.9479,-23.7502"/>
<polygon fill="#191970" stroke="#191970" points="87.785,-20.3415 77.1923,-20.5544 85.6058,-26.9936 87.785,-20.3415"/>
</g>
<!-- Node4 -->
<g id="node4" class="node">
<title>Node4</title>
<polygon fill="none" stroke="#bfbfbf" points="111,-.5 111,-20.5 194,-20.5 194,-.5 111,-.5"/>
<text text-anchor="middle" x="152.5" y="-7.5" font-family="FreeSans" font-size="10.00" fill="#000000">TMVA/Tools.h</text>
</g>
<!-- Node2&#45;&gt;Node4 -->
<g id="edge3" class="edge">
<title>Node2&#45;&gt;Node4</title>
<path fill="none" stroke="#191970" d="M208.343,-57.3095C198.3831,-48.9608 184.0865,-36.9769 172.4525,-27.2249"/>
<polygon fill="#191970" stroke="#191970" points="174.4639,-24.344 164.5518,-20.6022 169.9671,-29.7086 174.4639,-24.344"/>
</g>
<!-- Node5 -->
<g id="node5" class="node">
<title>Node5</title>
<polygon fill="none" stroke="#bfbfbf" points="212,-.5 212,-20.5 257,-20.5 257,-.5 212,-.5"/>
<text text-anchor="middle" x="234.5" y="-7.5" font-family="FreeSans" font-size="10.00" fill="#000000">string</text>
</g>
<!-- Node2&#45;&gt;Node5 -->
<g id="edge4" class="edge">
<title>Node2&#45;&gt;Node5</title>
<path fill="none" stroke="#191970" d="M223.0029,-57.3095C224.8345,-49.8524 227.3784,-39.4951 229.6077,-30.4186"/>
<polygon fill="#191970" stroke="#191970" points="233.0324,-31.1485 232.0187,-20.6022 226.2344,-29.4787 233.0324,-31.1485"/>
</g>
<!-- Node6 -->
<g id="node6" class="node">
<title>Node6</title>
<polygon fill="none" stroke="#bfbfbf" points="275,-.5 275,-20.5 324,-20.5 324,-.5 275,-.5"/>
<text text-anchor="middle" x="299.5" y="-7.5" font-family="FreeSans" font-size="10.00" fill="#000000">vector</text>
</g>
<!-- Node2&#45;&gt;Node6 -->
<g id="edge5" class="edge">
<title>Node2&#45;&gt;Node6</title>
<path fill="none" stroke="#191970" d="M234.6236,-57.3095C246.4193,-48.7987 263.4508,-36.5102 277.1037,-26.6594"/>
<polygon fill="#191970" stroke="#191970" points="279.4371,-29.2918 285.4987,-20.6022 275.3412,-23.6151 279.4371,-29.2918"/>
</g>
<!-- Node7&#45;&gt;Node2 -->
<g id="edge7" class="edge">
<title>Node7&#45;&gt;Node2</title>
<path fill="none" stroke="#191970" d="M398.3807,-114.4408C362.1714,-104.8855 307.5961,-90.4837 268.4505,-80.1536"/>
<polygon fill="#191970" stroke="#191970" points="269.1629,-76.7219 258.6008,-77.5544 267.3768,-83.4902 269.1629,-76.7219"/>
</g>
<!-- Node7&#45;&gt;Node6 -->
<g id="edge12" class="edge">
<title>Node7&#45;&gt;Node6</title>
<path fill="none" stroke="#191970" d="M383.9948,-114.8175C361.0154,-108.0782 335.4789,-96.7866 318.5,-78 306.7913,-65.0447 302.2386,-45.4163 300.4987,-30.6599"/>
<polygon fill="#191970" stroke="#191970" points="303.9714,-30.1874 299.6445,-20.5164 296.996,-30.7749 303.9714,-30.1874"/>
</g>
<!-- Node8 -->
<g id="node8" class="node">
<title>Node8</title>
<g id="a_node8"><a xlink:href="../../d2/d82/KFParticle__particleList_8h.html" target="_top" xlink:title="KFParticle_particleList.h">
<polygon fill="none" stroke="#000000" points="327.5,-57.5 327.5,-77.5 463.5,-77.5 463.5,-57.5 327.5,-57.5"/>
<text text-anchor="middle" x="395.5" y="-64.5" font-family="FreeSans" font-size="10.00" fill="#000000">KFParticle_particleList.h</text>
</a>
</g>
</g>
<!-- Node7&#45;&gt;Node8 -->
<g id="edge8" class="edge">
<title>Node7&#45;&gt;Node8</title>
<path fill="none" stroke="#191970" d="M429.17,-114.3095C423.5146,-106.4472 415.5402,-95.3608 408.7716,-85.9507"/>
<polygon fill="#191970" stroke="#191970" points="411.4472,-83.6765 402.7665,-77.6022 405.7645,-87.7641 411.4472,-83.6765"/>
</g>
<!-- Node7&#45;&gt;Node9 -->
<g id="edge11" class="edge">
<title>Node7&#45;&gt;Node9</title>
<path fill="none" stroke="#191970" d="M446.3617,-114.2199C454.4354,-105.291 465.6109,-91.6773 472.5,-78 480.1055,-62.9004 485.0507,-44.319 487.9838,-30.4771"/>
<polygon fill="#191970" stroke="#191970" points="491.4411,-31.0339 489.9171,-20.5492 484.5701,-29.6958 491.4411,-31.0339"/>
</g>
<!-- Node7&#45;&gt;Node10 -->
<g id="edge10" class="edge">
<title>Node7&#45;&gt;Node10</title>
<path fill="none" stroke="#191970" d="M457.8538,-114.4408C477.0021,-105.4205 505.3187,-92.0813 526.8773,-81.9255"/>
<polygon fill="#191970" stroke="#191970" points="528.3977,-85.0783 535.9526,-77.6504 525.4146,-78.7458 528.3977,-85.0783"/>
</g>
<!-- Node8&#45;&gt;Node9 -->
<g id="edge9" class="edge">
<title>Node8&#45;&gt;Node9</title>
<path fill="none" stroke="#191970" d="M412.6629,-57.3095C427.4064,-48.5556 448.8812,-35.8049 465.696,-25.8211"/>
<polygon fill="#191970" stroke="#191970" points="467.6741,-28.7172 474.4857,-20.6022 464.1002,-22.6982 467.6741,-28.7172"/>
</g>
</g>
</svg>
