<?xml version="1.0" encoding="UTF-8" standalone="no"?>
<!DOCTYPE svg PUBLIC "-//W3C//DTD SVG 1.1//EN"
 "http://www.w3.org/Graphics/SVG/1.1/DTD/svg11.dtd">
<!-- Generated by graphviz version 2.40.1 (20161225.0304)
 -->
<!-- Title: SvtxTruthEval::is_g4hit_from_particle Pages: 1 -->
<svg width="845pt" height="260pt"
 viewBox="0.00 0.00 845.00 260.00" xmlns="http://www.w3.org/2000/svg" xmlns:xlink="http://www.w3.org/1999/xlink">
<g id="graph0" class="graph" transform="scale(1 1) rotate(0) translate(4 256)">
<title>SvtxTruthEval::is_g4hit_from_particle</title>
<!-- Node1 -->
<g id="node1" class="node">
<title>Node1</title>
<polygon fill="#bfbfbf" stroke="#000000" points="0,-108.5 0,-140.5 132,-140.5 132,-108.5 0,-108.5"/>
<text text-anchor="start" x="8" y="-127.5" font-family="FreeSans" font-size="10.00" fill="#000000">SvtxTruthEval::is_g4hit</text>
<text text-anchor="middle" x="66" y="-115.5" font-family="FreeSans" font-size="10.00" fill="#000000">_from_particle</text>
</g>
<!-- Node2 -->
<g id="node2" class="node">
<title>Node2</title>
<g id="a_node2"><a xlink:href="../../d9/d62/classSvtxHitEval.html#ab22602a87e83b71f2bffa4e2ace4c497" target="_top" xlink:title="SvtxHitEval::get_energy\l_contribution">
<polygon fill="none" stroke="#000000" points="168,-153.5 168,-185.5 306,-185.5 306,-153.5 168,-153.5"/>
<text text-anchor="start" x="176" y="-172.5" font-family="FreeSans" font-size="10.00" fill="#000000">SvtxHitEval::get_energy</text>
<text text-anchor="middle" x="237" y="-160.5" font-family="FreeSans" font-size="10.00" fill="#000000">_contribution</text>
</a>
</g>
</g>
<!-- Node1&#45;&gt;Node2 -->
<g id="edge1" class="edge">
<title>Node1&#45;&gt;Node2</title>
<path fill="none" stroke="#191970" d="M137.0765,-143.2044C150.0677,-146.6231 163.5164,-150.1622 176.1757,-153.4936"/>
<polygon fill="#191970" stroke="#191970" points="137.8134,-139.7792 127.2519,-140.6189 136.0319,-146.5487 137.8134,-139.7792"/>
</g>
<!-- Node7 -->
<g id="node7" class="node">
<title>Node7</title>
<g id="a_node7"><a xlink:href="../../d1/d1e/classSvtxClusterEval.html#a03461dc91226065d40111184b3685b82" target="_top" xlink:title="SvtxClusterEval::get\l_energy_contribution">
<polygon fill="none" stroke="#000000" points="175.5,-83.5 175.5,-115.5 298.5,-115.5 298.5,-83.5 175.5,-83.5"/>
<text text-anchor="start" x="183.5" y="-102.5" font-family="FreeSans" font-size="10.00" fill="#000000">SvtxClusterEval::get</text>
<text text-anchor="middle" x="237" y="-90.5" font-family="FreeSans" font-size="10.00" fill="#000000">_energy_contribution</text>
</a>
</g>
</g>
<!-- Node1&#45;&gt;Node7 -->
<g id="edge6" class="edge">
<title>Node1&#45;&gt;Node7</title>
<path fill="none" stroke="#191970" d="M142.1938,-113.3606C153.2585,-111.7429 164.5336,-110.0945 175.266,-108.5254"/>
<polygon fill="#191970" stroke="#191970" points="141.5015,-109.9245 132.1131,-114.8343 142.5142,-116.8508 141.5015,-109.9245"/>
</g>
<!-- Node3 -->
<g id="node3" class="node">
<title>Node3</title>
<g id="a_node3"><a xlink:href="../../d9/d62/classSvtxHitEval.html#a1556ac2e8e593270b2ff3ad18f5d209e" target="_top" xlink:title="SvtxHitEval::best_hit_from">
<polygon fill="none" stroke="#000000" points="342,-231.5 342,-251.5 492,-251.5 492,-231.5 342,-231.5"/>
<text text-anchor="middle" x="417" y="-238.5" font-family="FreeSans" font-size="10.00" fill="#000000">SvtxHitEval::best_hit_from</text>
</a>
</g>
</g>
<!-- Node2&#45;&gt;Node3 -->
<g id="edge2" class="edge">
<title>Node2&#45;&gt;Node3</title>
<path fill="none" stroke="#191970" d="M279.9076,-189.8632C298.7723,-198.5141 321.3025,-208.441 342,-216.5 355.813,-221.8784 371.3197,-227.1682 384.6326,-231.487"/>
<polygon fill="#191970" stroke="#191970" points="281.2324,-186.6198 270.6865,-185.6029 278.2965,-192.9744 281.2324,-186.6198"/>
</g>
<!-- Node4 -->
<g id="node4" class="node">
<title>Node4</title>
<g id="a_node4"><a xlink:href="../../d6/d11/classSvtxEvaluator.html#ace95fef2b7b4ad8b797f6695e053dd6e" target="_top" xlink:title="dump the evaluator information into ntuple for external analysis">
<polygon fill="none" stroke="#000000" points="528,-96.5 528,-128.5 669,-128.5 669,-96.5 528,-96.5"/>
<text text-anchor="start" x="536" y="-115.5" font-family="FreeSans" font-size="10.00" fill="#000000">SvtxEvaluator::fillOutput</text>
<text text-anchor="middle" x="598.5" y="-103.5" font-family="FreeSans" font-size="10.00" fill="#000000">Ntuples</text>
</a>
</g>
</g>
<!-- Node2&#45;&gt;Node4 -->
<g id="edge3" class="edge">
<title>Node2&#45;&gt;Node4</title>
<path fill="none" stroke="#191970" d="M314.0598,-187.286C365.519,-195.9001 434.1159,-201.0259 492,-183.5 527.3053,-172.8104 561.6042,-146.1304 581.357,-128.6923"/>
<polygon fill="#191970" stroke="#191970" points="314.4591,-183.8027 304.0048,-185.5224 313.2497,-190.6975 314.4591,-183.8027"/>
</g>
<!-- Node6 -->
<g id="node6" class="node">
<title>Node6</title>
<g id="a_node6"><a xlink:href="../../d9/d62/classSvtxHitEval.html#a4adfe815e9d79b780421db2a6cddef1b" target="_top" xlink:title="SvtxHitEval::max_truth\l_particle_by_energy">
<polygon fill="none" stroke="#000000" points="350.5,-141.5 350.5,-173.5 483.5,-173.5 483.5,-141.5 350.5,-141.5"/>
<text text-anchor="start" x="358.5" y="-160.5" font-family="FreeSans" font-size="10.00" fill="#000000">SvtxHitEval::max_truth</text>
<text text-anchor="middle" x="417" y="-148.5" font-family="FreeSans" font-size="10.00" fill="#000000">_particle_by_energy</text>
</a>
</g>
</g>
<!-- Node2&#45;&gt;Node6 -->
<g id="edge5" class="edge">
<title>Node2&#45;&gt;Node6</title>
<path fill="none" stroke="#191970" d="M316.0838,-164.2277C327.5621,-163.4625 339.2807,-162.6813 350.4781,-161.9348"/>
<polygon fill="#191970" stroke="#191970" points="315.8229,-160.7373 306.0779,-164.8948 316.2886,-167.7218 315.8229,-160.7373"/>
</g>
<!-- Node5 -->
<g id="node5" class="node">
<title>Node5</title>
<g id="a_node5"><a xlink:href="../../d6/d11/classSvtxEvaluator.html#a1eb230f92b6f2cabb175f1349697200d" target="_top" xlink:title="SvtxEvaluator::process\l_event">
<polygon fill="none" stroke="#000000" points="705,-96.5 705,-128.5 837,-128.5 837,-96.5 705,-96.5"/>
<text text-anchor="start" x="713" y="-115.5" font-family="FreeSans" font-size="10.00" fill="#000000">SvtxEvaluator::process</text>
<text text-anchor="middle" x="771" y="-103.5" font-family="FreeSans" font-size="10.00" fill="#000000">_event</text>
</a>
</g>
</g>
<!-- Node4&#45;&gt;Node5 -->
<g id="edge4" class="edge">
<title>Node4&#45;&gt;Node5</title>
<path fill="none" stroke="#191970" d="M679.2055,-112.5C687.8091,-112.5 696.4867,-112.5 704.8937,-112.5"/>
<polygon fill="#191970" stroke="#191970" points="679.1601,-109.0001 669.1601,-112.5 679.16,-116.0001 679.1601,-109.0001"/>
</g>
<!-- Node7&#45;&gt;Node4 -->
<g id="edge9" class="edge">
<title>Node7&#45;&gt;Node4</title>
<path fill="none" stroke="#191970" d="M309.0674,-102.0916C372.589,-104.376 464.5958,-107.6846 527.7267,-109.9549"/>
<polygon fill="#191970" stroke="#191970" points="308.8527,-98.5817 298.7333,-101.72 308.601,-105.5772 308.8527,-98.5817"/>
</g>
<!-- Node8 -->
<g id="node8" class="node">
<title>Node8</title>
<g id="a_node8"><a xlink:href="../../d1/d1e/classSvtxClusterEval.html#a9091398a04a3d0bafff1f96be89c84b2" target="_top" xlink:title="SvtxClusterEval::best\l_cluster_from">
<polygon fill="none" stroke="#000000" points="354.5,-51.5 354.5,-83.5 479.5,-83.5 479.5,-51.5 354.5,-51.5"/>
<text text-anchor="start" x="362.5" y="-70.5" font-family="FreeSans" font-size="10.00" fill="#000000">SvtxClusterEval::best</text>
<text text-anchor="middle" x="417" y="-58.5" font-family="FreeSans" font-size="10.00" fill="#000000">_cluster_from</text>
</a>
</g>
</g>
<!-- Node7&#45;&gt;Node8 -->
<g id="edge7" class="edge">
<title>Node7&#45;&gt;Node8</title>
<path fill="none" stroke="#191970" d="M308.5482,-86.7803C323.7334,-84.0807 339.6509,-81.2509 354.4695,-78.6165"/>
<polygon fill="#191970" stroke="#191970" points="307.9269,-83.3358 298.694,-88.5322 309.1522,-90.2277 307.9269,-83.3358"/>
</g>
<!-- Node9 -->
<g id="node9" class="node">
<title>Node9</title>
<g id="a_node9"><a xlink:href="../../d1/d1e/classSvtxClusterEval.html#acfd3a615b33f784c3b8df13b58e9958a" target="_top" xlink:title="SvtxClusterEval::max\l_truth_particle_by_energy">
<polygon fill="none" stroke="#000000" points="343,-.5 343,-32.5 491,-32.5 491,-.5 343,-.5"/>
<text text-anchor="start" x="351" y="-19.5" font-family="FreeSans" font-size="10.00" fill="#000000">SvtxClusterEval::max</text>
<text text-anchor="middle" x="417" y="-7.5" font-family="FreeSans" font-size="10.00" fill="#000000">_truth_particle_by_energy</text>
</a>
</g>
</g>
<!-- Node7&#45;&gt;Node9 -->
<g id="edge10" class="edge">
<title>Node7&#45;&gt;Node9</title>
<path fill="none" stroke="#191970" d="M272.3555,-78.4232C292.3849,-66.9657 318.138,-53.0282 342,-42.5 349.9433,-38.9953 358.5191,-35.641 366.9351,-32.5753"/>
<polygon fill="#191970" stroke="#191970" points="270.4905,-75.4585 263.5829,-83.4918 273.9925,-81.5195 270.4905,-75.4585"/>
</g>
<!-- Node8&#45;&gt;Node4 -->
<g id="edge8" class="edge">
<title>Node8&#45;&gt;Node4</title>
<path fill="none" stroke="#191970" d="M489.7153,-85.5286C504.3372,-89.1539 519.61,-92.9405 533.9314,-96.4913"/>
<polygon fill="#191970" stroke="#191970" points="490.2646,-82.0589 479.7162,-83.0495 488.58,-88.8532 490.2646,-82.0589"/>
</g>
</g>
</svg>
