<?xml version="1.0" encoding="UTF-8" standalone="no"?>
<!DOCTYPE svg PUBLIC "-//W3C//DTD SVG 1.1//EN"
 "http://www.w3.org/Graphics/SVG/1.1/DTD/svg11.dtd">
<!-- Generated by graphviz version 2.40.1 (20161225.0304)
 -->
<!-- Title: SvtxTrack_v1::set_id Pages: 1 -->
<svg width="491pt" height="182pt"
 viewBox="0.00 0.00 491.00 182.00" xmlns="http://www.w3.org/2000/svg" xmlns:xlink="http://www.w3.org/1999/xlink">
<g id="graph0" class="graph" transform="scale(1 1) rotate(0) translate(4 178)">
<title>SvtxTrack_v1::set_id</title>
<!-- Node1 -->
<g id="node1" class="node">
<title>Node1</title>
<polygon fill="#bfbfbf" stroke="#000000" points="0,-70.5 0,-90.5 118,-90.5 118,-70.5 0,-70.5"/>
<text text-anchor="middle" x="59" y="-77.5" font-family="FreeSans" font-size="10.00" fill="#000000">SvtxTrack_v1::set_id</text>
</g>
<!-- Node2 -->
<g id="node2" class="node">
<title>Node2</title>
<g id="a_node2"><a xlink:href="../../d2/d8f/classPHInitZVertexing.html#a8be961e889654346a4d4435896e5d0e0" target="_top" xlink:title="PHInitZVertexing::export\l_output">
<polygon fill="none" stroke="#000000" points="155.5,-141.5 155.5,-173.5 296.5,-173.5 296.5,-141.5 155.5,-141.5"/>
<text text-anchor="start" x="163.5" y="-160.5" font-family="FreeSans" font-size="10.00" fill="#000000">PHInitZVertexing::export</text>
<text text-anchor="middle" x="226" y="-148.5" font-family="FreeSans" font-size="10.00" fill="#000000">_output</text>
</a>
</g>
</g>
<!-- Node1&#45;&gt;Node2 -->
<g id="edge1" class="edge">
<title>Node1&#45;&gt;Node2</title>
<path fill="none" stroke="#191970" d="M84.2158,-95.809C103.0313,-106.8571 129.593,-121.6733 154,-132.5 161.1363,-135.6656 168.8076,-138.6999 176.3882,-141.4954"/>
<polygon fill="#191970" stroke="#191970" points="85.7758,-92.6649 75.3903,-90.5694 82.2023,-98.684 85.7758,-92.6649"/>
</g>
<!-- Node4 -->
<g id="node4" class="node">
<title>Node4</title>
<g id="a_node4"><a xlink:href="../../d1/d97/classPHPatternReco.html#a6549c8bd552acd725fc0e611560c53c7" target="_top" xlink:title="PHPatternReco::export\l_output">
<polygon fill="none" stroke="#000000" points="161,-90.5 161,-122.5 291,-122.5 291,-90.5 161,-90.5"/>
<text text-anchor="start" x="169" y="-109.5" font-family="FreeSans" font-size="10.00" fill="#000000">PHPatternReco::export</text>
<text text-anchor="middle" x="226" y="-97.5" font-family="FreeSans" font-size="10.00" fill="#000000">_output</text>
</a>
</g>
</g>
<!-- Node1&#45;&gt;Node4 -->
<g id="edge3" class="edge">
<title>Node1&#45;&gt;Node4</title>
<path fill="none" stroke="#191970" d="M128.5063,-91.3213C139.2275,-92.9905 150.2656,-94.709 160.8861,-96.3625"/>
<polygon fill="#191970" stroke="#191970" points="128.7676,-87.8199 118.3482,-89.7398 127.6907,-94.7366 128.7676,-87.8199"/>
</g>
<!-- Node6 -->
<g id="node6" class="node">
<title>Node6</title>
<g id="a_node6"><a xlink:href="../../d8/dd4/classPHHoughSeeding.html#a61550a59cd3a34af03c43572e28274cb" target="_top" xlink:title="code to translate back to the SVTX universe">
<polygon fill="none" stroke="#000000" points="154,-39.5 154,-71.5 298,-71.5 298,-39.5 154,-39.5"/>
<text text-anchor="start" x="162" y="-58.5" font-family="FreeSans" font-size="10.00" fill="#000000">PHHoughSeeding::export</text>
<text text-anchor="middle" x="226" y="-46.5" font-family="FreeSans" font-size="10.00" fill="#000000">_output</text>
</a>
</g>
</g>
<!-- Node1&#45;&gt;Node6 -->
<g id="edge5" class="edge">
<title>Node1&#45;&gt;Node6</title>
<path fill="none" stroke="#191970" d="M128.4927,-70.0969C136.9085,-68.8371 145.5196,-67.548 153.9709,-66.2828"/>
<polygon fill="#191970" stroke="#191970" points="127.7198,-66.6735 118.3482,-71.6155 128.7562,-73.5964 127.7198,-66.6735"/>
</g>
<!-- Node8 -->
<g id="node8" class="node">
<title>Node8</title>
<g id="a_node8"><a xlink:href="../../da/df1/classPHRTreeSeeding.html#a1a36fc2c4ca6c87faa2278e04239c088" target="_top" xlink:title="PHRTreeSeeding::Process">
<polygon fill="none" stroke="#000000" points="154.5,-.5 154.5,-20.5 297.5,-20.5 297.5,-.5 154.5,-.5"/>
<text text-anchor="middle" x="226" y="-7.5" font-family="FreeSans" font-size="10.00" fill="#000000">PHRTreeSeeding::Process</text>
</a>
</g>
</g>
<!-- Node1&#45;&gt;Node8 -->
<g id="edge7" class="edge">
<title>Node1&#45;&gt;Node8</title>
<path fill="none" stroke="#191970" d="M84.4399,-65.1978C103.1777,-54.4061 129.5465,-40.2022 154,-30.5 163.5265,-26.7203 174.0299,-23.3687 184.0001,-20.5411"/>
<polygon fill="#191970" stroke="#191970" points="82.5113,-62.2709 75.6421,-70.3372 86.0423,-68.3151 82.5113,-62.2709"/>
</g>
<!-- Node3 -->
<g id="node3" class="node">
<title>Node3</title>
<g id="a_node3"><a xlink:href="../../d2/d8f/classPHInitZVertexing.html#a8e47fa6360aff82159de5cb71ea1620c" target="_top" xlink:title="PHInitZVertexing::Process">
<polygon fill="none" stroke="#000000" points="335.5,-147.5 335.5,-167.5 481.5,-167.5 481.5,-147.5 335.5,-147.5"/>
<text text-anchor="middle" x="408.5" y="-154.5" font-family="FreeSans" font-size="10.00" fill="#000000">PHInitZVertexing::Process</text>
</a>
</g>
</g>
<!-- Node2&#45;&gt;Node3 -->
<g id="edge2" class="edge">
<title>Node2&#45;&gt;Node3</title>
<path fill="none" stroke="#191970" d="M306.8105,-157.5C316.3318,-157.5 326.0066,-157.5 335.4131,-157.5"/>
<polygon fill="#191970" stroke="#191970" points="306.5593,-154.0001 296.5593,-157.5 306.5592,-161.0001 306.5593,-154.0001"/>
</g>
<!-- Node5 -->
<g id="node5" class="node">
<title>Node5</title>
<g id="a_node5"><a xlink:href="../../d1/d97/classPHPatternReco.html#ac707abec77626e83b0d03a48661e40cf" target="_top" xlink:title="PHPatternReco::process\l_event">
<polygon fill="none" stroke="#000000" points="340.5,-90.5 340.5,-122.5 476.5,-122.5 476.5,-90.5 340.5,-90.5"/>
<text text-anchor="start" x="348.5" y="-109.5" font-family="FreeSans" font-size="10.00" fill="#000000">PHPatternReco::process</text>
<text text-anchor="middle" x="408.5" y="-97.5" font-family="FreeSans" font-size="10.00" fill="#000000">_event</text>
</a>
</g>
</g>
<!-- Node4&#45;&gt;Node5 -->
<g id="edge4" class="edge">
<title>Node4&#45;&gt;Node5</title>
<path fill="none" stroke="#191970" d="M301.3543,-106.5C314.2662,-106.5 327.6162,-106.5 340.3268,-106.5"/>
<polygon fill="#191970" stroke="#191970" points="301.1138,-103.0001 291.1138,-106.5 301.1137,-110.0001 301.1138,-103.0001"/>
</g>
<!-- Node7 -->
<g id="node7" class="node">
<title>Node7</title>
<g id="a_node7"><a xlink:href="../../d8/dd4/classPHHoughSeeding.html#a50ee2f174c0a9899aac7c01b4b363783" target="_top" xlink:title="PHHoughSeeding::Process">
<polygon fill="none" stroke="#000000" points="334,-45.5 334,-65.5 483,-65.5 483,-45.5 334,-45.5"/>
<text text-anchor="middle" x="408.5" y="-52.5" font-family="FreeSans" font-size="10.00" fill="#000000">PHHoughSeeding::Process</text>
</a>
</g>
</g>
<!-- Node6&#45;&gt;Node7 -->
<g id="edge6" class="edge">
<title>Node6&#45;&gt;Node7</title>
<path fill="none" stroke="#191970" d="M308.1353,-55.5C316.7175,-55.5 325.4083,-55.5 333.9001,-55.5"/>
<polygon fill="#191970" stroke="#191970" points="308.1289,-52.0001 298.1288,-55.5 308.1288,-59.0001 308.1289,-52.0001"/>
</g>
</g>
</svg>
