<?xml version="1.0" encoding="UTF-8" standalone="no"?>
<!DOCTYPE svg PUBLIC "-//W3C//DTD SVG 1.1//EN"
 "http://www.w3.org/Graphics/SVG/1.1/DTD/svg11.dtd">
<!-- Generated by graphviz version 2.40.1 (20161225.0304)
 -->
<!-- Title: spectrum::generateKdouble Pages: 1 -->
<svg width="1069pt" height="237pt"
 viewBox="0.00 0.00 1069.00 237.00" xmlns="http://www.w3.org/2000/svg" xmlns:xlink="http://www.w3.org/1999/xlink">
<g id="graph0" class="graph" transform="scale(1 1) rotate(0) translate(4 233)">
<title>spectrum::generateKdouble</title>
<!-- Node1 -->
<g id="node1" class="node">
<title>Node1</title>
<polygon fill="#bfbfbf" stroke="#000000" points="0,-109.5 0,-129.5 158,-129.5 158,-109.5 0,-109.5"/>
<text text-anchor="middle" x="79" y="-116.5" font-family="FreeSans" font-size="10.00" fill="#000000">spectrum::generateKdouble</text>
</g>
<!-- Node2 -->
<g id="node2" class="node">
<title>Node2</title>
<g id="a_node2"><a xlink:href="../../db/d5d/test__style_8C.html#a2513fe0eb0478642e44ad1201af61a46" target="_top" xlink:title="f2">
<polygon fill="none" stroke="#000000" points="266.5,-177.5 266.5,-197.5 295.5,-197.5 295.5,-177.5 266.5,-177.5"/>
<text text-anchor="middle" x="281" y="-184.5" font-family="FreeSans" font-size="10.00" fill="#000000">f2</text>
</a>
</g>
</g>
<!-- Node1&#45;&gt;Node2 -->
<g id="edge1" class="edge">
<title>Node1&#45;&gt;Node2</title>
<path fill="none" stroke="#191970" d="M99.3312,-129.5461C121.974,-140.4049 159.8865,-157.6137 194,-168.5 214.6129,-175.0779 238.6898,-180.1422 256.2827,-183.3819"/>
<polygon fill="#191970" stroke="#191970" points="255.8522,-186.8601 266.3099,-185.1605 257.0749,-179.9677 255.8522,-186.8601"/>
</g>
<!-- Node3 -->
<g id="node3" class="node">
<title>Node3</title>
<g id="a_node3"><a xlink:href="../../da/d92/classspectrum.html#a926bac5d875aca23d82436da331d750c" target="_top" xlink:title="spectrum::generateBreakup\lProbabilities">
<polygon fill="none" stroke="#000000" points="202,-126.5 202,-158.5 360,-158.5 360,-126.5 202,-126.5"/>
<text text-anchor="start" x="210" y="-145.5" font-family="FreeSans" font-size="10.00" fill="#000000">spectrum::generateBreakup</text>
<text text-anchor="middle" x="281" y="-133.5" font-family="FreeSans" font-size="10.00" fill="#000000">Probabilities</text>
</a>
</g>
</g>
<!-- Node1&#45;&gt;Node3 -->
<g id="edge2" class="edge">
<title>Node1&#45;&gt;Node3</title>
<path fill="none" stroke="#191970" d="M158.256,-128.5242C169.2572,-129.7768 180.6197,-131.0706 191.7873,-132.3421"/>
<polygon fill="#191970" stroke="#191970" points="191.6408,-135.848 201.9726,-133.5018 192.4328,-128.8929 191.6408,-135.848"/>
</g>
<!-- Node12 -->
<g id="node12" class="node">
<title>Node12</title>
<g id="a_node12"><a xlink:href="../../da/d92/classspectrum.html#a6c4b46b76050f1cd14e5c14c1761e1c4" target="_top" xlink:title="spectrum::getSigma">
<polygon fill="none" stroke="#000000" points="222,-87.5 222,-107.5 340,-107.5 340,-87.5 222,-87.5"/>
<text text-anchor="middle" x="281" y="-94.5" font-family="FreeSans" font-size="10.00" fill="#000000">spectrum::getSigma</text>
</a>
</g>
</g>
<!-- Node1&#45;&gt;Node12 -->
<g id="edge12" class="edge">
<title>Node1&#45;&gt;Node12</title>
<path fill="none" stroke="#191970" d="M158.256,-110.8682C175.9961,-108.9361 194.6757,-106.9017 211.9626,-105.0189"/>
<polygon fill="#191970" stroke="#191970" points="212.4,-108.4921 221.9622,-103.9299 211.6421,-101.5332 212.4,-108.4921"/>
</g>
<!-- Node13 -->
<g id="node13" class="node">
<title>Node13</title>
<g id="a_node13"><a xlink:href="../../da/d92/classspectrum.html#a3983c7e00dcbfe0e99318911692c055b" target="_top" xlink:title="spectrum::getTransformedNofe">
<polygon fill="none" stroke="#000000" points="194,-45.5 194,-65.5 368,-65.5 368,-45.5 194,-45.5"/>
<text text-anchor="middle" x="281" y="-52.5" font-family="FreeSans" font-size="10.00" fill="#000000">spectrum::getTransformedNofe</text>
</a>
</g>
</g>
<!-- Node1&#45;&gt;Node13 -->
<g id="edge13" class="edge">
<title>Node1&#45;&gt;Node13</title>
<path fill="none" stroke="#191970" d="M105.2805,-109.4192C128.4535,-100.7016 163.2252,-88.0354 194,-78.5 205.6587,-74.8876 218.304,-71.338 230.2479,-68.1493"/>
<polygon fill="#191970" stroke="#191970" points="231.2988,-71.492 240.0788,-65.5622 229.5173,-64.7225 231.2988,-71.492"/>
</g>
<!-- Node4 -->
<g id="node4" class="node">
<title>Node4</title>
<g id="a_node4"><a xlink:href="../../d1/d21/classbeamBeamSystem.html#ac31d664ce09dda97e06c2cab564c1120" target="_top" xlink:title="beamBeamSystem::probability\lOfBreakup">
<polygon fill="none" stroke="#000000" points="410,-129.5 410,-161.5 583,-161.5 583,-129.5 410,-129.5"/>
<text text-anchor="start" x="418" y="-148.5" font-family="FreeSans" font-size="10.00" fill="#000000">beamBeamSystem::probability</text>
<text text-anchor="middle" x="496.5" y="-136.5" font-family="FreeSans" font-size="10.00" fill="#000000">OfBreakup</text>
</a>
</g>
</g>
<!-- Node3&#45;&gt;Node4 -->
<g id="edge3" class="edge">
<title>Node3&#45;&gt;Node4</title>
<path fill="none" stroke="#191970" d="M360.0206,-143.6001C372.9433,-143.78 386.4608,-143.9681 399.7526,-144.1532"/>
<polygon fill="#191970" stroke="#191970" points="399.8116,-147.6542 409.8594,-144.2939 399.9091,-140.6549 399.8116,-147.6542"/>
</g>
<!-- Node5 -->
<g id="node5" class="node">
<title>Node5</title>
<g id="a_node5"><a xlink:href="../../d4/d51/classnucleus.html#afb4d4a7f776a88c10fa0ff433e74463e" target="_top" xlink:title="returns nucleon number of nucleus">
<polygon fill="none" stroke="#000000" points="645.5,-208.5 645.5,-228.5 714.5,-228.5 714.5,-208.5 645.5,-208.5"/>
<text text-anchor="middle" x="680" y="-215.5" font-family="FreeSans" font-size="10.00" fill="#000000">nucleus::A</text>
</a>
</g>
</g>
<!-- Node4&#45;&gt;Node5 -->
<g id="edge4" class="edge">
<title>Node4&#45;&gt;Node5</title>
<path fill="none" stroke="#191970" d="M536.7699,-161.5202C569.2323,-174.4344 614.4071,-192.4058 645.2901,-204.6917"/>
<polygon fill="#191970" stroke="#191970" points="644.1951,-208.0228 654.7806,-208.4672 646.7827,-201.5186 644.1951,-208.0228"/>
</g>
<!-- Node6 -->
<g id="node6" class="node">
<title>Node6</title>
<g id="a_node6"><a xlink:href="../../d4/d51/classnucleus.html#a31aecce251b8d61c0e36b46ccd3730d7" target="_top" xlink:title="nucleus::nuclearRadius">
<polygon fill="none" stroke="#000000" points="908,-150.5 908,-170.5 1042,-170.5 1042,-150.5 908,-150.5"/>
<text text-anchor="middle" x="975" y="-157.5" font-family="FreeSans" font-size="10.00" fill="#000000">nucleus::nuclearRadius</text>
</a>
</g>
</g>
<!-- Node4&#45;&gt;Node6 -->
<g id="edge5" class="edge">
<title>Node4&#45;&gt;Node6</title>
<path fill="none" stroke="#191970" d="M583.1273,-157.0021C597.1037,-158.457 611.4343,-159.7109 625,-160.5 718.6649,-165.9483 826.6682,-164.8243 897.6392,-163.0742"/>
<polygon fill="#191970" stroke="#191970" points="897.9287,-166.568 907.8355,-162.8121 897.7488,-159.5703 897.9287,-166.568"/>
</g>
<!-- Node7 -->
<g id="node7" class="node">
<title>Node7</title>
<g id="a_node7"><a xlink:href="../../d4/d51/classnucleus.html#a5de922b3a6cc87a3eb1b421fc6f2d343" target="_top" xlink:title="nucleus::rho0">
<polygon fill="none" stroke="#000000" points="637.5,-130.5 637.5,-150.5 722.5,-150.5 722.5,-130.5 637.5,-130.5"/>
<text text-anchor="middle" x="680" y="-137.5" font-family="FreeSans" font-size="10.00" fill="#000000">nucleus::rho0</text>
</a>
</g>
</g>
<!-- Node4&#45;&gt;Node7 -->
<g id="edge6" class="edge">
<title>Node4&#45;&gt;Node7</title>
<path fill="none" stroke="#191970" d="M583.1452,-143.1391C598.0825,-142.7321 613.2009,-142.3201 626.91,-141.9466"/>
<polygon fill="#191970" stroke="#191970" points="627.1914,-145.4403 637.0923,-141.6691 627.0007,-138.4429 627.1914,-145.4403"/>
</g>
<!-- Node8 -->
<g id="node8" class="node">
<title>Node8</title>
<g id="a_node8"><a xlink:href="../../d4/d51/classnucleus.html#a625506ed8907970e3aea75ff925bfc9b" target="_top" xlink:title="nucleus::thickness">
<polygon fill="none" stroke="#000000" points="625,-91.5 625,-111.5 735,-111.5 735,-91.5 625,-91.5"/>
<text text-anchor="middle" x="680" y="-98.5" font-family="FreeSans" font-size="10.00" fill="#000000">nucleus::thickness</text>
</a>
</g>
</g>
<!-- Node4&#45;&gt;Node8 -->
<g id="edge7" class="edge">
<title>Node4&#45;&gt;Node8</title>
<path fill="none" stroke="#191970" d="M563.2668,-129.4905C584.6568,-124.3616 608.0079,-118.7624 628.1659,-113.9289"/>
<polygon fill="#191970" stroke="#191970" points="629.1765,-117.2859 638.0847,-111.5505 627.5442,-110.4788 629.1765,-117.2859"/>
</g>
<!-- Node11 -->
<g id="node11" class="node">
<title>Node11</title>
<g id="a_node11"><a xlink:href="../../d4/d51/classnucleus.html#acd58b7873e7d2d42bbc31414e373b89d" target="_top" xlink:title="returns atomic number of nucleus">
<polygon fill="none" stroke="#000000" points="645.5,-48.5 645.5,-68.5 714.5,-68.5 714.5,-48.5 645.5,-48.5"/>
<text text-anchor="middle" x="680" y="-55.5" font-family="FreeSans" font-size="10.00" fill="#000000">nucleus::Z</text>
</a>
</g>
</g>
<!-- Node4&#45;&gt;Node11 -->
<g id="edge11" class="edge">
<title>Node4&#45;&gt;Node11</title>
<path fill="none" stroke="#191970" d="M570.7284,-129.4249C577.1003,-126.866 583.2866,-123.9108 589,-120.5 608.9757,-108.575 605.9572,-95.8644 625,-82.5 630.2045,-78.8474 636.0535,-75.5724 641.9438,-72.7024"/>
<polygon fill="#191970" stroke="#191970" points="643.4848,-75.8467 651.1474,-68.5299 640.5944,-69.4713 643.4848,-75.8467"/>
</g>
<!-- Node9 -->
<g id="node9" class="node">
<title>Node9</title>
<g id="a_node9"><a xlink:href="../../d4/d51/classnucleus.html#ad46c433008fa9451021f8614b126996a" target="_top" xlink:title="nucleus::rws">
<polygon fill="none" stroke="#000000" points="772,-101.5 772,-121.5 852,-121.5 852,-101.5 772,-101.5"/>
<text text-anchor="middle" x="812" y="-108.5" font-family="FreeSans" font-size="10.00" fill="#000000">nucleus::rws</text>
</a>
</g>
</g>
<!-- Node8&#45;&gt;Node9 -->
<g id="edge8" class="edge">
<title>Node8&#45;&gt;Node9</title>
<path fill="none" stroke="#191970" d="M735.2151,-105.683C744.0504,-106.3523 753.1507,-107.0417 761.8595,-107.7015"/>
<polygon fill="#191970" stroke="#191970" points="761.6278,-111.1939 771.8636,-108.4594 762.1566,-104.2139 761.6278,-111.1939"/>
</g>
<!-- Node9&#45;&gt;Node6 -->
<g id="edge9" class="edge">
<title>Node9&#45;&gt;Node6</title>
<path fill="none" stroke="#191970" d="M845.3788,-121.5341C870.4306,-129.065 904.9332,-139.437 932.0435,-147.5867"/>
<polygon fill="#191970" stroke="#191970" points="931.0815,-150.9522 941.6658,-150.4793 933.0968,-144.2485 931.0815,-150.9522"/>
</g>
<!-- Node10 -->
<g id="node10" class="node">
<title>Node10</title>
<g id="a_node10"><a xlink:href="../../d4/d51/classnucleus.html#ab71f2da42e9f143940e727f7525076e2" target="_top" xlink:title="nucleus::woodSaxonSkinDepth">
<polygon fill="none" stroke="#000000" points="889,-101.5 889,-121.5 1061,-121.5 1061,-101.5 889,-101.5"/>
<text text-anchor="middle" x="975" y="-108.5" font-family="FreeSans" font-size="10.00" fill="#000000">nucleus::woodSaxonSkinDepth</text>
</a>
</g>
</g>
<!-- Node9&#45;&gt;Node10 -->
<g id="edge10" class="edge">
<title>Node9&#45;&gt;Node10</title>
<path fill="none" stroke="#191970" d="M852.2921,-111.5C860.5309,-111.5 869.5321,-111.5 878.7954,-111.5"/>
<polygon fill="#191970" stroke="#191970" points="878.9264,-115.0001 888.9263,-111.5 878.9263,-108.0001 878.9264,-115.0001"/>
</g>
<!-- Node14 -->
<g id="node14" class="node">
<title>Node14</title>
<g id="a_node14"><a xlink:href="../../d1/d21/classbeamBeamSystem.html#aba7a66ef2c280d5effe7094d82334e1a" target="_top" xlink:title="beamBeamSystem::beamLorentz\lGamma">
<polygon fill="none" stroke="#000000" points="404,-78.5 404,-110.5 589,-110.5 589,-78.5 404,-78.5"/>
<text text-anchor="start" x="412" y="-97.5" font-family="FreeSans" font-size="10.00" fill="#000000">beamBeamSystem::beamLorentz</text>
<text text-anchor="middle" x="496.5" y="-85.5" font-family="FreeSans" font-size="10.00" fill="#000000">Gamma</text>
</a>
</g>
</g>
<!-- Node13&#45;&gt;Node14 -->
<g id="edge14" class="edge">
<title>Node13&#45;&gt;Node14</title>
<path fill="none" stroke="#191970" d="M336.4966,-65.5435C355.2293,-68.9336 376.7422,-72.8269 397.7917,-76.6363"/>
<polygon fill="#191970" stroke="#191970" points="397.2813,-80.1007 407.7448,-78.4376 398.5279,-73.2126 397.2813,-80.1007"/>
</g>
<!-- Node15 -->
<g id="node15" class="node">
<title>Node15</title>
<g id="a_node15"><a xlink:href="../../d1/d21/classbeamBeamSystem.html#ae788c7578711e2e7b146a45e405f0426" target="_top" xlink:title="returns beam particle 1">
<polygon fill="none" stroke="#000000" points="420,-39.5 420,-59.5 573,-59.5 573,-39.5 420,-39.5"/>
<text text-anchor="middle" x="496.5" y="-46.5" font-family="FreeSans" font-size="10.00" fill="#000000">beamBeamSystem::beam1</text>
</a>
</g>
</g>
<!-- Node13&#45;&gt;Node15 -->
<g id="edge15" class="edge">
<title>Node13&#45;&gt;Node15</title>
<path fill="none" stroke="#191970" d="M368.0309,-53.0769C381.7147,-52.6959 395.8617,-52.302 409.5438,-51.9211"/>
<polygon fill="#191970" stroke="#191970" points="410.0019,-55.4098 419.9006,-51.6327 409.807,-48.4125 410.0019,-55.4098"/>
</g>
<!-- Node16 -->
<g id="node16" class="node">
<title>Node16</title>
<g id="a_node16"><a xlink:href="../../d0/d21/classbeam.html#ad3c0efadce37ff4ec3f953790d4aaee4" target="_top" xlink:title="calculates photon density (number of photons / (energy * area))">
<polygon fill="none" stroke="#000000" points="433.5,-.5 433.5,-20.5 559.5,-20.5 559.5,-.5 433.5,-.5"/>
<text text-anchor="middle" x="496.5" y="-7.5" font-family="FreeSans" font-size="10.00" fill="#000000">beam::photonDensity</text>
</a>
</g>
</g>
<!-- Node13&#45;&gt;Node16 -->
<g id="edge16" class="edge">
<title>Node13&#45;&gt;Node16</title>
<path fill="none" stroke="#191970" d="M328.0048,-45.4981C350.9223,-40.6385 378.8938,-34.7319 404,-29.5 414.8134,-27.2466 426.342,-24.8632 437.4604,-22.5745"/>
<polygon fill="#191970" stroke="#191970" points="438.4333,-25.9477 447.5236,-20.5055 437.0236,-19.0911 438.4333,-25.9477"/>
</g>
<!-- Node16&#45;&gt;Node11 -->
<g id="edge19" class="edge">
<title>Node16&#45;&gt;Node11</title>
<path fill="none" stroke="#191970" d="M550.5268,-20.5951C563.2076,-23.2411 576.6277,-26.2676 589,-29.5 606.4041,-34.047 625.3993,-39.948 641.5117,-45.239"/>
<polygon fill="#191970" stroke="#191970" points="640.5378,-48.6035 651.1313,-48.4369 642.7461,-41.9609 640.5378,-48.6035"/>
</g>
<!-- Node17 -->
<g id="node17" class="node">
<title>Node17</title>
<g id="a_node17"><a xlink:href="../../d7/d46/namespacebessel.html#a6d6aa0ba08c052cec22f87399b0c27b1" target="_top" xlink:title="bessel::dbesk1">
<polygon fill="none" stroke="#000000" points="634,-.5 634,-20.5 726,-20.5 726,-.5 634,-.5"/>
<text text-anchor="middle" x="680" y="-7.5" font-family="FreeSans" font-size="10.00" fill="#000000">bessel::dbesk1</text>
</a>
</g>
</g>
<!-- Node16&#45;&gt;Node17 -->
<g id="edge17" class="edge">
<title>Node16&#45;&gt;Node17</title>
<path fill="none" stroke="#191970" d="M559.6503,-10.5C580.492,-10.5 603.5213,-10.5 623.8072,-10.5"/>
<polygon fill="#191970" stroke="#191970" points="623.8304,-14.0001 633.8303,-10.5 623.8303,-7.0001 623.8304,-14.0001"/>
</g>
<!-- Node18 -->
<g id="node18" class="node">
<title>Node18</title>
<g id="a_node18"><a xlink:href="../../d7/d46/namespacebessel.html#a7c6ce9404b6a5c90e4d2b3b3afe8b8e7" target="_top" xlink:title="bessel::besI1">
<polygon fill="none" stroke="#000000" points="771,-.5 771,-20.5 853,-20.5 853,-.5 771,-.5"/>
<text text-anchor="middle" x="812" y="-7.5" font-family="FreeSans" font-size="10.00" fill="#000000">bessel::besI1</text>
</a>
</g>
</g>
<!-- Node17&#45;&gt;Node18 -->
<g id="edge18" class="edge">
<title>Node17&#45;&gt;Node18</title>
<path fill="none" stroke="#191970" d="M726.1672,-10.5C737.3237,-10.5 749.3137,-10.5 760.6902,-10.5"/>
<polygon fill="#191970" stroke="#191970" points="760.9241,-14.0001 770.9241,-10.5 760.9241,-7.0001 760.9241,-14.0001"/>
</g>
</g>
</svg>
