<?xml version="1.0" encoding="UTF-8" standalone="no"?>
<!DOCTYPE svg PUBLIC "-//W3C//DTD SVG 1.1//EN"
 "http://www.w3.org/Graphics/SVG/1.1/DTD/svg11.dtd">
<!-- Generated by graphviz version 2.40.1 (20161225.0304)
 -->
<!-- Title: fun4all_GenFit/blob/master/fields/src/ConstField.cc Pages: 1 -->
<svg width="182pt" height="212pt"
 viewBox="0.00 0.00 182.00 212.00" xmlns="http://www.w3.org/2000/svg" xmlns:xlink="http://www.w3.org/1999/xlink">
<g id="graph0" class="graph" transform="scale(1 1) rotate(0) translate(4 208)">
<title>fun4all_GenFit/blob/master/fields/src/ConstField.cc</title>
<!-- Node1 -->
<g id="node1" class="node">
<title>Node1</title>
<polygon fill="#bfbfbf" stroke="#000000" points="0,-171.5 0,-203.5 174,-203.5 174,-171.5 0,-171.5"/>
<text text-anchor="start" x="8" y="-190.5" font-family="FreeSans" font-size="10.00" fill="#000000">fun4all_GenFit/blob</text>
<text text-anchor="middle" x="87" y="-178.5" font-family="FreeSans" font-size="10.00" fill="#000000">/master/fields/src/ConstField.cc</text>
</g>
<!-- Node2 -->
<g id="node2" class="node">
<title>Node2</title>
<g id="a_node2"><a xlink:href="../../d3/d66/ConstField_8h.html" target="_top" xlink:title="ConstField.h">
<polygon fill="none" stroke="#000000" points="48,-114.5 48,-134.5 126,-134.5 126,-114.5 48,-114.5"/>
<text text-anchor="middle" x="87" y="-121.5" font-family="FreeSans" font-size="10.00" fill="#000000">ConstField.h</text>
</a>
</g>
</g>
<!-- Node1&#45;&gt;Node2 -->
<g id="edge1" class="edge">
<title>Node1&#45;&gt;Node2</title>
<path fill="none" stroke="#191970" d="M87,-171.2759C87,-163.2654 87,-153.5159 87,-144.9952"/>
<polygon fill="#191970" stroke="#191970" points="90.5001,-144.7512 87,-134.7513 83.5001,-144.7513 90.5001,-144.7512"/>
</g>
<!-- Node3 -->
<g id="node3" class="node">
<title>Node3</title>
<g id="a_node3"><a xlink:href="../../da/daa/AbsBField_8h.html" target="_top" xlink:title="AbsBField.h">
<polygon fill="none" stroke="#000000" points="49.5,-57.5 49.5,-77.5 124.5,-77.5 124.5,-57.5 49.5,-57.5"/>
<text text-anchor="middle" x="87" y="-64.5" font-family="FreeSans" font-size="10.00" fill="#000000">AbsBField.h</text>
</a>
</g>
</g>
<!-- Node2&#45;&gt;Node3 -->
<g id="edge2" class="edge">
<title>Node2&#45;&gt;Node3</title>
<path fill="none" stroke="#191970" d="M87,-114.3095C87,-106.9335 87,-96.72 87,-87.715"/>
<polygon fill="#191970" stroke="#191970" points="90.5001,-87.6022 87,-77.6022 83.5001,-87.6023 90.5001,-87.6022"/>
</g>
<!-- Node4 -->
<g id="node4" class="node">
<title>Node4</title>
<polygon fill="none" stroke="#bfbfbf" points="51.5,-.5 51.5,-20.5 122.5,-20.5 122.5,-.5 51.5,-.5"/>
<text text-anchor="middle" x="87" y="-7.5" font-family="FreeSans" font-size="10.00" fill="#000000">TVector3.h</text>
</g>
<!-- Node3&#45;&gt;Node4 -->
<g id="edge3" class="edge">
<title>Node3&#45;&gt;Node4</title>
<path fill="none" stroke="#191970" d="M87,-57.3095C87,-49.9335 87,-39.72 87,-30.715"/>
<polygon fill="#191970" stroke="#191970" points="90.5001,-30.6022 87,-20.6022 83.5001,-30.6023 90.5001,-30.6022"/>
</g>
</g>
</svg>
