<?xml version="1.0" encoding="UTF-8" standalone="no"?>
<!DOCTYPE svg PUBLIC "-//W3C//DTD SVG 1.1//EN"
 "http://www.w3.org/Graphics/SVG/1.1/DTD/svg11.dtd">
<!-- Generated by graphviz version 2.40.1 (20161225.0304)
 -->
<!-- Title: fun4all_coresoftware/blob/master/simulation/g4simulation/g4main/PHG4ParticleGun.h Pages: 1 -->
<svg width="3878pt" height="308pt"
 viewBox="0.00 0.00 3877.50 308.00" xmlns="http://www.w3.org/2000/svg" xmlns:xlink="http://www.w3.org/1999/xlink">
<g id="graph0" class="graph" transform="scale(1 1) rotate(0) translate(4 304)">
<title>fun4all_coresoftware/blob/master/simulation/g4simulation/g4main/PHG4ParticleGun.h</title>
<!-- Node1 -->
<g id="node1" class="node">
<title>Node1</title>
<polygon fill="#bfbfbf" stroke="#000000" points="2095.5,-255.5 2095.5,-299.5 2322.5,-299.5 2322.5,-255.5 2095.5,-255.5"/>
<text text-anchor="start" x="2103.5" y="-286.5" font-family="FreeSans" font-size="10.00" fill="#000000">fun4all_coresoftware</text>
<text text-anchor="start" x="2103.5" y="-274.5" font-family="FreeSans" font-size="10.00" fill="#000000">/blob/master/simulation</text>
<text text-anchor="middle" x="2209" y="-262.5" font-family="FreeSans" font-size="10.00" fill="#000000">/g4simulation/g4main/PHG4ParticleGun.h</text>
</g>
<!-- Node2 -->
<g id="node2" class="node">
<title>Node2</title>
<g id="a_node2"><a xlink:href="../../db/ddd/PHG4ParticleGun_8cc.html" target="_top" xlink:title="fun4all_coresoftware\l/blob/master/simulation\l/g4simulation/g4main/PHG4Particle\lGun.cc">
<polygon fill="none" stroke="#000000" points="551.5,-162.5 551.5,-218.5 748.5,-218.5 748.5,-162.5 551.5,-162.5"/>
<text text-anchor="start" x="559.5" y="-205.5" font-family="FreeSans" font-size="10.00" fill="#000000">fun4all_coresoftware</text>
<text text-anchor="start" x="559.5" y="-193.5" font-family="FreeSans" font-size="10.00" fill="#000000">/blob/master/simulation</text>
<text text-anchor="start" x="559.5" y="-181.5" font-family="FreeSans" font-size="10.00" fill="#000000">/g4simulation/g4main/PHG4Particle</text>
<text text-anchor="middle" x="650" y="-169.5" font-family="FreeSans" font-size="10.00" fill="#000000">Gun.cc</text>
</a>
</g>
</g>
<!-- Node1&#45;&gt;Node2 -->
<g id="edge1" class="edge">
<title>Node1&#45;&gt;Node2</title>
<path fill="none" stroke="#191970" d="M2085.1749,-275.9692C1782.6753,-271.6715 1012.296,-257.2123 758,-219 754.9317,-218.5389 751.8252,-218.0242 748.697,-217.4643"/>
<polygon fill="#191970" stroke="#191970" points="2085.2515,-279.4705 2095.2998,-276.1117 2085.3501,-272.4712 2085.2515,-279.4705"/>
</g>
<!-- Node3 -->
<g id="node3" class="node">
<title>Node3</title>
<g id="a_node3"><a xlink:href="../../dd/d8d/Fun4All__G4__Magnet_8C.html" target="_top" xlink:title="fun4all_eic_tutorials\l/blob/master/MagneticField\l/Fun4All_G4_Magnet.C">
<polygon fill="none" stroke="#000000" points="767,-168.5 767,-212.5 921,-212.5 921,-168.5 767,-168.5"/>
<text text-anchor="start" x="775" y="-199.5" font-family="FreeSans" font-size="10.00" fill="#000000">fun4all_eic_tutorials</text>
<text text-anchor="start" x="775" y="-187.5" font-family="FreeSans" font-size="10.00" fill="#000000">/blob/master/MagneticField</text>
<text text-anchor="middle" x="844" y="-175.5" font-family="FreeSans" font-size="10.00" fill="#000000">/Fun4All_G4_Magnet.C</text>
</a>
</g>
</g>
<!-- Node1&#45;&gt;Node3 -->
<g id="edge2" class="edge">
<title>Node1&#45;&gt;Node3</title>
<path fill="none" stroke="#191970" d="M2085.1999,-276.1514C1808.8888,-272.4406 1149.0105,-259.4998 930,-219 921.3386,-217.3983 912.3513,-215.1336 903.5952,-212.5726"/>
<polygon fill="#191970" stroke="#191970" points="2085.2209,-279.6519 2095.2664,-276.2848 2085.3137,-272.6525 2085.2209,-279.6519"/>
</g>
<!-- Node4 -->
<g id="node4" class="node">
<title>Node4</title>
<g id="a_node4"><a xlink:href="../../d9/d1f/Fun4All__G4__Lmon_8C.html" target="_top" xlink:title="Fun4All&#45;lmon/blob/master\l/macros/Fun4All_G4_Lmon.C">
<polygon fill="none" stroke="#000000" points="939.5,-174.5 939.5,-206.5 1100.5,-206.5 1100.5,-174.5 939.5,-174.5"/>
<text text-anchor="start" x="947.5" y="-193.5" font-family="FreeSans" font-size="10.00" fill="#000000">Fun4All&#45;lmon/blob/master</text>
<text text-anchor="middle" x="1020" y="-181.5" font-family="FreeSans" font-size="10.00" fill="#000000">/macros/Fun4All_G4_Lmon.C</text>
</a>
</g>
</g>
<!-- Node1&#45;&gt;Node4 -->
<g id="edge3" class="edge">
<title>Node1&#45;&gt;Node4</title>
<path fill="none" stroke="#191970" d="M2085.1544,-274.9114C1838.3279,-269.0948 1293.021,-252.7751 1109,-219 1093.521,-216.159 1076.9945,-211.3792 1062.4365,-206.5377"/>
<polygon fill="#191970" stroke="#191970" points="2085.1656,-278.4125 2095.2447,-275.1473 2085.3292,-271.4144 2085.1656,-278.4125"/>
</g>
<!-- Node5 -->
<g id="node5" class="node">
<title>Node5</title>
<g id="a_node5"><a xlink:href="../../dc/d7e/G4__Input_8C.html" target="_top" xlink:title="fun4all_macros/blob\l/master/common/G4_Input.C">
<polygon fill="none" stroke="#000000" points="1118.5,-174.5 1118.5,-206.5 1281.5,-206.5 1281.5,-174.5 1118.5,-174.5"/>
<text text-anchor="start" x="1126.5" y="-193.5" font-family="FreeSans" font-size="10.00" fill="#000000">fun4all_macros/blob</text>
<text text-anchor="middle" x="1200" y="-181.5" font-family="FreeSans" font-size="10.00" fill="#000000">/master/common/G4_Input.C</text>
</a>
</g>
</g>
<!-- Node1&#45;&gt;Node5 -->
<g id="edge4" class="edge">
<title>Node1&#45;&gt;Node5</title>
<path fill="none" stroke="#191970" d="M2085.294,-273.3518C1870.8806,-265.5391 1438.8839,-246.8811 1290,-219 1274.5347,-216.1039 1258.0122,-211.372 1243.4001,-206.5885"/>
<polygon fill="#191970" stroke="#191970" points="2085.2175,-276.8512 2095.3377,-273.7156 2085.471,-269.8558 2085.2175,-276.8512"/>
</g>
<!-- Node26 -->
<g id="node26" class="node">
<title>Node26</title>
<g id="a_node26"><a xlink:href="../../de/d55/Fun4All__G4__block_8C.html" target="_top" xlink:title="fun4all_tutorials/blob\l/master/block/Fun4All\l_G4_block.C">
<polygon fill="none" stroke="#000000" points="1299.5,-168.5 1299.5,-212.5 1426.5,-212.5 1426.5,-168.5 1299.5,-168.5"/>
<text text-anchor="start" x="1307.5" y="-199.5" font-family="FreeSans" font-size="10.00" fill="#000000">fun4all_tutorials/blob</text>
<text text-anchor="start" x="1307.5" y="-187.5" font-family="FreeSans" font-size="10.00" fill="#000000">/master/block/Fun4All</text>
<text text-anchor="middle" x="1363" y="-175.5" font-family="FreeSans" font-size="10.00" fill="#000000">_G4_block.C</text>
</a>
</g>
</g>
<!-- Node1&#45;&gt;Node26 -->
<g id="edge30" class="edge">
<title>Node1&#45;&gt;Node26</title>
<path fill="none" stroke="#191970" d="M2085.2202,-272.5962C1899.0519,-264.4628 1555.9969,-246.3222 1436,-219 1428.7039,-217.3387 1421.1733,-215.0758 1413.8457,-212.5464"/>
<polygon fill="#191970" stroke="#191970" points="2085.192,-276.0982 2095.3343,-273.035 2085.4954,-269.1047 2085.192,-276.0982"/>
</g>
<!-- Node27 -->
<g id="node27" class="node">
<title>Node27</title>
<g id="a_node27"><a xlink:href="../../d4/dfa/Fun4All__Generator__Display_8C.html" target="_top" xlink:title="fun4all_tutorials/blob\l/master/eventgenerator\l_display/Fun4All_Generator\l_Display.C">
<polygon fill="none" stroke="#000000" points="1445,-162.5 1445,-218.5 1601,-218.5 1601,-162.5 1445,-162.5"/>
<text text-anchor="start" x="1453" y="-205.5" font-family="FreeSans" font-size="10.00" fill="#000000">fun4all_tutorials/blob</text>
<text text-anchor="start" x="1453" y="-193.5" font-family="FreeSans" font-size="10.00" fill="#000000">/master/eventgenerator</text>
<text text-anchor="start" x="1453" y="-181.5" font-family="FreeSans" font-size="10.00" fill="#000000">_display/Fun4All_Generator</text>
<text text-anchor="middle" x="1523" y="-169.5" font-family="FreeSans" font-size="10.00" fill="#000000">_Display.C</text>
</a>
</g>
</g>
<!-- Node1&#45;&gt;Node27 -->
<g id="edge31" class="edge">
<title>Node1&#45;&gt;Node27</title>
<path fill="none" stroke="#191970" d="M2085.1516,-273.3207C1963.1799,-267.3552 1772.1229,-253.0406 1610,-219 1607.0446,-218.3795 1604.0486,-217.694 1601.0345,-216.9568"/>
<polygon fill="#191970" stroke="#191970" points="2085.1167,-276.823 2095.2724,-273.8043 2085.4509,-269.831 2085.1167,-276.823"/>
</g>
<!-- Node28 -->
<g id="node28" class="node">
<title>Node28</title>
<g id="a_node28"><a xlink:href="../../df/de1/Fun4All__G4__IonGun_8C.html" target="_top" xlink:title="fun4all_tutorials/blob\l/master/IonGun/Fun4All\l_G4_IonGun.C">
<polygon fill="none" stroke="#000000" points="1619,-168.5 1619,-212.5 1755,-212.5 1755,-168.5 1619,-168.5"/>
<text text-anchor="start" x="1627" y="-199.5" font-family="FreeSans" font-size="10.00" fill="#000000">fun4all_tutorials/blob</text>
<text text-anchor="start" x="1627" y="-187.5" font-family="FreeSans" font-size="10.00" fill="#000000">/master/IonGun/Fun4All</text>
<text text-anchor="middle" x="1687" y="-175.5" font-family="FreeSans" font-size="10.00" fill="#000000">_G4_IonGun.C</text>
</a>
</g>
</g>
<!-- Node1&#45;&gt;Node28 -->
<g id="edge32" class="edge">
<title>Node1&#45;&gt;Node28</title>
<path fill="none" stroke="#191970" d="M2085.2418,-268.7055C1995.1793,-260.504 1870.8084,-245.4326 1764,-219 1756.8048,-217.2194 1749.3556,-214.9862 1742.0526,-212.5578"/>
<polygon fill="#191970" stroke="#191970" points="2084.9507,-272.1933 2095.223,-269.5991 2085.575,-265.2212 2084.9507,-272.1933"/>
</g>
<!-- Node29 -->
<g id="node29" class="node">
<title>Node29</title>
<g id="a_node29"><a xlink:href="../../d1/d3a/Fun4All__G4__Momentum__Projection_8C.html" target="_top" xlink:title="fun4all_tutorials/blob\l/master/Momentum/Fun4All\l_G4_Momentum_Projection.C">
<polygon fill="none" stroke="#000000" points="1773,-168.5 1773,-212.5 1937,-212.5 1937,-168.5 1773,-168.5"/>
<text text-anchor="start" x="1781" y="-199.5" font-family="FreeSans" font-size="10.00" fill="#000000">fun4all_tutorials/blob</text>
<text text-anchor="start" x="1781" y="-187.5" font-family="FreeSans" font-size="10.00" fill="#000000">/master/Momentum/Fun4All</text>
<text text-anchor="middle" x="1855" y="-175.5" font-family="FreeSans" font-size="10.00" fill="#000000">_G4_Momentum_Projection.C</text>
</a>
</g>
</g>
<!-- Node1&#45;&gt;Node29 -->
<g id="edge33" class="edge">
<title>Node1&#45;&gt;Node29</title>
<path fill="none" stroke="#191970" d="M2091.2723,-253.3322C2045.9746,-243.48 1993.8907,-231.4761 1947,-219 1939.4861,-217.0008 1931.6665,-214.7876 1923.9001,-212.504"/>
<polygon fill="#191970" stroke="#191970" points="2090.6151,-256.7709 2101.1292,-255.4655 2092.0959,-249.9293 2090.6151,-256.7709"/>
</g>
<!-- Node30 -->
<g id="node30" class="node">
<title>Node30</title>
<g id="a_node30"><a xlink:href="../../d5/d9f/Fun4All__G4__Momentum__Projection__Calorimeters_8C.html" target="_top" xlink:title="fun4all_tutorials/blob\l/master/Momentum/Fun4All\l_G4_Momentum_Projection\l_Calorimeters.C">
<polygon fill="none" stroke="#000000" points="1955.5,-162.5 1955.5,-218.5 2112.5,-218.5 2112.5,-162.5 1955.5,-162.5"/>
<text text-anchor="start" x="1963.5" y="-205.5" font-family="FreeSans" font-size="10.00" fill="#000000">fun4all_tutorials/blob</text>
<text text-anchor="start" x="1963.5" y="-193.5" font-family="FreeSans" font-size="10.00" fill="#000000">/master/Momentum/Fun4All</text>
<text text-anchor="start" x="1963.5" y="-181.5" font-family="FreeSans" font-size="10.00" fill="#000000">_G4_Momentum_Projection</text>
<text text-anchor="middle" x="2034" y="-169.5" font-family="FreeSans" font-size="10.00" fill="#000000">_Calorimeters.C</text>
</a>
</g>
</g>
<!-- Node1&#45;&gt;Node30 -->
<g id="edge34" class="edge">
<title>Node1&#45;&gt;Node30</title>
<path fill="none" stroke="#191970" d="M2155.1846,-250.7461C2134.6647,-240.5447 2111.2279,-228.8933 2090.4683,-218.5728"/>
<polygon fill="#191970" stroke="#191970" points="2153.8747,-254.0035 2164.3873,-255.3211 2156.9909,-247.7353 2153.8747,-254.0035"/>
</g>
<!-- Node31 -->
<g id="node31" class="node">
<title>Node31</title>
<g id="a_node31"><a xlink:href="../../dd/dba/Fun4All__G4__Momentum__Projection__Detectors_8C.html" target="_top" xlink:title="fun4all_tutorials/blob\l/master/Momentum/Fun4All\l_G4_Momentum_Projection\l_Detectors.C">
<polygon fill="none" stroke="#000000" points="2130.5,-162.5 2130.5,-218.5 2287.5,-218.5 2287.5,-162.5 2130.5,-162.5"/>
<text text-anchor="start" x="2138.5" y="-205.5" font-family="FreeSans" font-size="10.00" fill="#000000">fun4all_tutorials/blob</text>
<text text-anchor="start" x="2138.5" y="-193.5" font-family="FreeSans" font-size="10.00" fill="#000000">/master/Momentum/Fun4All</text>
<text text-anchor="start" x="2138.5" y="-181.5" font-family="FreeSans" font-size="10.00" fill="#000000">_G4_Momentum_Projection</text>
<text text-anchor="middle" x="2209" y="-169.5" font-family="FreeSans" font-size="10.00" fill="#000000">_Detectors.C</text>
</a>
</g>
</g>
<!-- Node1&#45;&gt;Node31 -->
<g id="edge35" class="edge">
<title>Node1&#45;&gt;Node31</title>
<path fill="none" stroke="#191970" d="M2209,-244.986C2209,-236.3663 2209,-227.1307 2209,-218.7577"/>
<polygon fill="#191970" stroke="#191970" points="2205.5001,-245.0953 2209,-255.0953 2212.5001,-245.0954 2205.5001,-245.0953"/>
</g>
<!-- Node32 -->
<g id="node32" class="node">
<title>Node32</title>
<g id="a_node32"><a xlink:href="../../d1/dc4/Fun4All__G4__Example03_8C.html" target="_top" xlink:title="g4exampledetector/blob\l/master/color/macros/Fun4All\l_G4_Example03.C">
<polygon fill="none" stroke="#000000" points="2305.5,-168.5 2305.5,-212.5 2470.5,-212.5 2470.5,-168.5 2305.5,-168.5"/>
<text text-anchor="start" x="2313.5" y="-199.5" font-family="FreeSans" font-size="10.00" fill="#000000">g4exampledetector/blob</text>
<text text-anchor="start" x="2313.5" y="-187.5" font-family="FreeSans" font-size="10.00" fill="#000000">/master/color/macros/Fun4All</text>
<text text-anchor="middle" x="2388" y="-175.5" font-family="FreeSans" font-size="10.00" fill="#000000">_G4_Example03.C</text>
</a>
</g>
</g>
<!-- Node1&#45;&gt;Node32 -->
<g id="edge36" class="edge">
<title>Node1&#45;&gt;Node32</title>
<path fill="none" stroke="#191970" d="M2263.7033,-250.9123C2288.9101,-238.661 2318.4785,-224.2898 2342.4509,-212.6384"/>
<polygon fill="#191970" stroke="#191970" points="2262.0964,-247.8018 2254.6324,-255.3211 2265.1564,-254.0976 2262.0964,-247.8018"/>
</g>
<!-- Node33 -->
<g id="node33" class="node">
<title>Node33</title>
<g id="a_node33"><a xlink:href="../../df/ddd/Fun4All__G4__Example02_8C.html" target="_top" xlink:title="g4exampledetector/blob\l/master/parameter/macros\l/Fun4All_G4_Example02.C">
<polygon fill="none" stroke="#000000" points="2488.5,-168.5 2488.5,-212.5 2641.5,-212.5 2641.5,-168.5 2488.5,-168.5"/>
<text text-anchor="start" x="2496.5" y="-199.5" font-family="FreeSans" font-size="10.00" fill="#000000">g4exampledetector/blob</text>
<text text-anchor="start" x="2496.5" y="-187.5" font-family="FreeSans" font-size="10.00" fill="#000000">/master/parameter/macros</text>
<text text-anchor="middle" x="2565" y="-175.5" font-family="FreeSans" font-size="10.00" fill="#000000">/Fun4All_G4_Example02.C</text>
</a>
</g>
</g>
<!-- Node1&#45;&gt;Node33 -->
<g id="edge37" class="edge">
<title>Node1&#45;&gt;Node33</title>
<path fill="none" stroke="#191970" d="M2332.5614,-253.8402C2379.0612,-244.1488 2432.2273,-232.1217 2480,-219 2487.054,-217.0625 2494.3829,-214.8757 2501.6481,-212.5966"/>
<polygon fill="#191970" stroke="#191970" points="2331.8273,-250.4179 2322.7444,-255.8723 2333.2463,-257.2726 2331.8273,-250.4179"/>
</g>
<!-- Node34 -->
<g id="node34" class="node">
<title>Node34</title>
<g id="a_node34"><a xlink:href="../../d5/d7d/Fun4All__G4__Example01_8C.html" target="_top" xlink:title="g4exampledetector/blob\l/master/simple/macros\l/Fun4All_G4_Example01.C">
<polygon fill="none" stroke="#000000" points="2660,-168.5 2660,-212.5 2810,-212.5 2810,-168.5 2660,-168.5"/>
<text text-anchor="start" x="2668" y="-199.5" font-family="FreeSans" font-size="10.00" fill="#000000">g4exampledetector/blob</text>
<text text-anchor="start" x="2668" y="-187.5" font-family="FreeSans" font-size="10.00" fill="#000000">/master/simple/macros</text>
<text text-anchor="middle" x="2735" y="-175.5" font-family="FreeSans" font-size="10.00" fill="#000000">/Fun4All_G4_Example01.C</text>
</a>
</g>
</g>
<!-- Node1&#45;&gt;Node34 -->
<g id="edge38" class="edge">
<title>Node1&#45;&gt;Node34</title>
<path fill="none" stroke="#191970" d="M2332.8997,-267.6344C2422.1564,-258.9482 2545.0314,-243.7384 2651,-219 2658.6483,-217.2145 2666.583,-215.0093 2674.3865,-212.6225"/>
<polygon fill="#191970" stroke="#191970" points="2332.3526,-264.1707 2322.7326,-268.6098 2333.0212,-271.1387 2332.3526,-264.1707"/>
</g>
<!-- Node35 -->
<g id="node35" class="node">
<title>Node35</title>
<g id="a_node35"><a xlink:href="../../dc/d3f/Fun4All__G4__Geantino_8C.html" target="_top" xlink:title="g4exampledetector/blob\l/master/simple/macros\l/Fun4All_G4_Geantino.C">
<polygon fill="none" stroke="#000000" points="2828.5,-168.5 2828.5,-212.5 2969.5,-212.5 2969.5,-168.5 2828.5,-168.5"/>
<text text-anchor="start" x="2836.5" y="-199.5" font-family="FreeSans" font-size="10.00" fill="#000000">g4exampledetector/blob</text>
<text text-anchor="start" x="2836.5" y="-187.5" font-family="FreeSans" font-size="10.00" fill="#000000">/master/simple/macros</text>
<text text-anchor="middle" x="2899" y="-175.5" font-family="FreeSans" font-size="10.00" fill="#000000">/Fun4All_G4_Geantino.C</text>
</a>
</g>
</g>
<!-- Node1&#45;&gt;Node35 -->
<g id="edge39" class="edge">
<title>Node1&#45;&gt;Node35</title>
<path fill="none" stroke="#191970" d="M2332.9947,-269.2331C2483.8491,-258.5419 2729.4748,-238.9181 2819,-219 2826.7717,-217.2709 2834.8243,-215.0032 2842.6934,-212.501"/>
<polygon fill="#191970" stroke="#191970" points="2332.4782,-265.7608 2322.7493,-269.9558 2332.9709,-272.7434 2332.4782,-265.7608"/>
</g>
<!-- Node36 -->
<g id="node36" class="node">
<title>Node36</title>
<g id="a_node36"><a xlink:href="../../d1/d9c/Fun4All__G4__Write__Dst_8C.html" target="_top" xlink:title="g4exampledetector/blob\l/master/simple/macros\l/Fun4All_G4_Write_Dst.C">
<polygon fill="none" stroke="#000000" points="2987.5,-168.5 2987.5,-212.5 3128.5,-212.5 3128.5,-168.5 2987.5,-168.5"/>
<text text-anchor="start" x="2995.5" y="-199.5" font-family="FreeSans" font-size="10.00" fill="#000000">g4exampledetector/blob</text>
<text text-anchor="start" x="2995.5" y="-187.5" font-family="FreeSans" font-size="10.00" fill="#000000">/master/simple/macros</text>
<text text-anchor="middle" x="3058" y="-175.5" font-family="FreeSans" font-size="10.00" fill="#000000">/Fun4All_G4_Write_Dst.C</text>
</a>
</g>
</g>
<!-- Node1&#45;&gt;Node36 -->
<g id="edge40" class="edge">
<title>Node1&#45;&gt;Node36</title>
<path fill="none" stroke="#191970" d="M2332.589,-272.1766C2518.008,-263.4989 2859.2068,-244.6618 2979,-219 2986.8414,-217.3202 2994.9599,-215.0468 3002.8745,-212.5122"/>
<polygon fill="#191970" stroke="#191970" points="2332.3416,-268.6842 2322.5151,-272.6453 2332.667,-275.6767 2332.3416,-268.6842"/>
</g>
<!-- Node37 -->
<g id="node37" class="node">
<title>Node37</title>
<g id="a_node37"><a xlink:href="../../d1/d54/Fun4All__G4__MyDetector_8C.html" target="_top" xlink:title="g4exampledetector/blob\l/master/template/macros\l/Fun4All_G4_MyDetector.C">
<polygon fill="none" stroke="#000000" points="3147,-168.5 3147,-212.5 3297,-212.5 3297,-168.5 3147,-168.5"/>
<text text-anchor="start" x="3155" y="-199.5" font-family="FreeSans" font-size="10.00" fill="#000000">g4exampledetector/blob</text>
<text text-anchor="start" x="3155" y="-187.5" font-family="FreeSans" font-size="10.00" fill="#000000">/master/template/macros</text>
<text text-anchor="middle" x="3222" y="-175.5" font-family="FreeSans" font-size="10.00" fill="#000000">/Fun4All_G4_MyDetector.C</text>
</a>
</g>
</g>
<!-- Node1&#45;&gt;Node37 -->
<g id="edge41" class="edge">
<title>Node1&#45;&gt;Node37</title>
<path fill="none" stroke="#191970" d="M2332.8464,-273.7557C2549.2472,-266.5364 2987.4954,-248.725 3138,-219 3146.3094,-217.3589 3154.9256,-215.1074 3163.3333,-212.5836"/>
<polygon fill="#191970" stroke="#191970" points="2332.59,-270.2622 2322.7114,-274.0914 2332.8218,-277.2583 2332.59,-270.2622"/>
</g>
<!-- Node38 -->
<g id="node38" class="node">
<title>Node38</title>
<g id="a_node38"><a xlink:href="../../d7/dc5/Fun4All__G4__FastMom_8C.html" target="_top" xlink:title="g4lblvtx/blob/master\l/macros/Fun4All_G4_FastMom.C">
<polygon fill="none" stroke="#000000" points="3315,-174.5 3315,-206.5 3493,-206.5 3493,-174.5 3315,-174.5"/>
<text text-anchor="start" x="3323" y="-193.5" font-family="FreeSans" font-size="10.00" fill="#000000">g4lblvtx/blob/master</text>
<text text-anchor="middle" x="3404" y="-181.5" font-family="FreeSans" font-size="10.00" fill="#000000">/macros/Fun4All_G4_FastMom.C</text>
</a>
</g>
</g>
<!-- Node1&#45;&gt;Node38 -->
<g id="edge42" class="edge">
<title>Node1&#45;&gt;Node38</title>
<path fill="none" stroke="#191970" d="M2332.9007,-274.4741C2579.1408,-267.8707 3122.1613,-250.2059 3306,-219 3322.7701,-216.1533 3340.7439,-211.4339 3356.6603,-206.6465"/>
<polygon fill="#191970" stroke="#191970" points="2332.737,-270.9771 2322.8338,-274.7423 2332.9235,-277.9746 2332.737,-270.9771"/>
</g>
<!-- Node39 -->
<g id="node39" class="node">
<title>Node39</title>
<g id="a_node39"><a xlink:href="../../db/dc2/Fun4All__G4__FastMom__GEM_8C.html" target="_top" xlink:title="g4lblvtx/blob/master\l/macros/Fun4All_G4_FastMom_\lGEM.C">
<polygon fill="none" stroke="#000000" points="3511.5,-168.5 3511.5,-212.5 3684.5,-212.5 3684.5,-168.5 3511.5,-168.5"/>
<text text-anchor="start" x="3519.5" y="-199.5" font-family="FreeSans" font-size="10.00" fill="#000000">g4lblvtx/blob/master</text>
<text text-anchor="start" x="3519.5" y="-187.5" font-family="FreeSans" font-size="10.00" fill="#000000">/macros/Fun4All_G4_FastMom_</text>
<text text-anchor="middle" x="3598" y="-175.5" font-family="FreeSans" font-size="10.00" fill="#000000">GEM.C</text>
</a>
</g>
</g>
<!-- Node1&#45;&gt;Node39 -->
<g id="edge43" class="edge">
<title>Node1&#45;&gt;Node39</title>
<path fill="none" stroke="#191970" d="M2332.7803,-275.7346C2611.1663,-271.1412 3279.6301,-256.462 3502,-219 3511.6007,-217.3826 3521.5948,-215.109 3531.3508,-212.5438"/>
<polygon fill="#191970" stroke="#191970" points="2332.5812,-272.2373 2322.6398,-275.9003 2332.6957,-279.2363 2332.5812,-272.2373"/>
</g>
<!-- Node40 -->
<g id="node40" class="node">
<title>Node40</title>
<g id="a_node40"><a xlink:href="../../d7/df9/Fun4All__G4__FastMom__GEM__RICH_8C.html" target="_top" xlink:title="g4lblvtx/blob/master\l/macros/Fun4All_G4_FastMom\l_GEM_RICH.C">
<polygon fill="none" stroke="#000000" points="3702.5,-168.5 3702.5,-212.5 3869.5,-212.5 3869.5,-168.5 3702.5,-168.5"/>
<text text-anchor="start" x="3710.5" y="-199.5" font-family="FreeSans" font-size="10.00" fill="#000000">g4lblvtx/blob/master</text>
<text text-anchor="start" x="3710.5" y="-187.5" font-family="FreeSans" font-size="10.00" fill="#000000">/macros/Fun4All_G4_FastMom</text>
<text text-anchor="middle" x="3786" y="-175.5" font-family="FreeSans" font-size="10.00" fill="#000000">_GEM_RICH.C</text>
</a>
</g>
</g>
<!-- Node1&#45;&gt;Node40 -->
<g id="edge44" class="edge">
<title>Node1&#45;&gt;Node40</title>
<path fill="none" stroke="#191970" d="M2333.0325,-276.7697C2640.8856,-274.2887 3433.836,-263.6296 3694,-219 3703.3114,-217.4027 3712.994,-215.1222 3722.4304,-212.5379"/>
<polygon fill="#191970" stroke="#191970" points="2332.7039,-273.2721 2322.7319,-276.8511 2332.7593,-280.2718 2332.7039,-273.2721"/>
</g>
<!-- Node6 -->
<g id="node6" class="node">
<title>Node6</title>
<g id="a_node6"><a xlink:href="../../d9/d18/Fun4All__G4__LBLDetector_8C.html" target="_top" xlink:title="fun4all_eicmacros/blob\l/master/detectors/AllSilicon\l/Fun4All_G4_LBLDetector.C">
<polygon fill="none" stroke="#000000" points="0,-.5 0,-44.5 156,-44.5 156,-.5 0,-.5"/>
<text text-anchor="start" x="8" y="-31.5" font-family="FreeSans" font-size="10.00" fill="#000000">fun4all_eicmacros/blob</text>
<text text-anchor="start" x="8" y="-19.5" font-family="FreeSans" font-size="10.00" fill="#000000">/master/detectors/AllSilicon</text>
<text text-anchor="middle" x="78" y="-7.5" font-family="FreeSans" font-size="10.00" fill="#000000">/Fun4All_G4_LBLDetector.C</text>
</a>
</g>
</g>
<!-- Node5&#45;&gt;Node6 -->
<g id="edge5" class="edge">
<title>Node5&#45;&gt;Node6</title>
<path fill="none" stroke="#191970" d="M1147.3356,-171.3704C1134.9193,-167.5999 1121.6203,-164.1488 1109,-162 1050.6395,-152.0631 85.1479,-168.5623 44,-126 22.572,-103.8355 42.2152,-67.9361 59.3151,-44.778"/>
<polygon fill="#191970" stroke="#191970" points="1146.4844,-174.7719 1157.0741,-174.444 1148.5913,-168.0964 1146.4844,-174.7719"/>
</g>
<!-- Node7 -->
<g id="node7" class="node">
<title>Node7</title>
<g id="a_node7"><a xlink:href="../../df/d34/G4Setup__LBLDetector_8C.html" target="_top" xlink:title="fun4all_eicmacros/blob\l/master/detectors/AllSilicon\l/G4Setup_LBLDetector.C">
<polygon fill="none" stroke="#000000" points="53,-81.5 53,-125.5 209,-125.5 209,-81.5 53,-81.5"/>
<text text-anchor="start" x="61" y="-112.5" font-family="FreeSans" font-size="10.00" fill="#000000">fun4all_eicmacros/blob</text>
<text text-anchor="start" x="61" y="-100.5" font-family="FreeSans" font-size="10.00" fill="#000000">/master/detectors/AllSilicon</text>
<text text-anchor="middle" x="131" y="-88.5" font-family="FreeSans" font-size="10.00" fill="#000000">/G4Setup_LBLDetector.C</text>
</a>
</g>
</g>
<!-- Node5&#45;&gt;Node7 -->
<g id="edge6" class="edge">
<title>Node5&#45;&gt;Node7</title>
<path fill="none" stroke="#191970" d="M1146.9448,-171.3158C1134.6381,-167.5873 1121.4844,-164.1681 1109,-162 718.5212,-94.189 610.0645,-183.9436 218,-126 215.0676,-125.5666 212.0913,-125.0736 209.0937,-124.5323"/>
<polygon fill="#191970" stroke="#191970" points="1146.0146,-174.6922 1156.604,-174.3542 1148.1151,-168.0147 1146.0146,-174.6922"/>
</g>
<!-- Node8 -->
<g id="node8" class="node">
<title>Node8</title>
<g id="a_node8"><a xlink:href="../../df/d9d/fun4all__eicmacros_2blob_2master_2detectors_2Beast_2Fun4All__G4__Beast_8C.html" target="_top" xlink:title="fun4all_eicmacros/blob\l/master/detectors/Beast\l/Fun4All_G4_Beast.C">
<polygon fill="none" stroke="#000000" points="227,-81.5 227,-125.5 367,-125.5 367,-81.5 227,-81.5"/>
<text text-anchor="start" x="235" y="-112.5" font-family="FreeSans" font-size="10.00" fill="#000000">fun4all_eicmacros/blob</text>
<text text-anchor="start" x="235" y="-100.5" font-family="FreeSans" font-size="10.00" fill="#000000">/master/detectors/Beast</text>
<text text-anchor="middle" x="297" y="-88.5" font-family="FreeSans" font-size="10.00" fill="#000000">/Fun4All_G4_Beast.C</text>
</a>
</g>
</g>
<!-- Node5&#45;&gt;Node8 -->
<g id="edge8" class="edge">
<title>Node5&#45;&gt;Node8</title>
<path fill="none" stroke="#191970" d="M1146.9308,-171.3957C1134.6247,-167.6633 1121.4749,-164.2223 1109,-162 787.885,-104.7961 697.8328,-179.0171 376,-126 373.0451,-125.5132 370.0433,-124.9549 367.0224,-124.34"/>
<polygon fill="#191970" stroke="#191970" points="1146.0006,-174.7722 1156.5901,-174.4338 1148.1009,-168.0946 1146.0006,-174.7722"/>
</g>
<!-- Node9 -->
<g id="node9" class="node">
<title>Node9</title>
<g id="a_node9"><a xlink:href="../../d0/d87/Fun4All__G4__JLeic_8C.html" target="_top" xlink:title="fun4all_eicmacros/blob\l/master/detectors/JLeic\l/Fun4All_G4_JLeic.C">
<polygon fill="none" stroke="#000000" points="385.5,-81.5 385.5,-125.5 518.5,-125.5 518.5,-81.5 385.5,-81.5"/>
<text text-anchor="start" x="393.5" y="-112.5" font-family="FreeSans" font-size="10.00" fill="#000000">fun4all_eicmacros/blob</text>
<text text-anchor="start" x="393.5" y="-100.5" font-family="FreeSans" font-size="10.00" fill="#000000">/master/detectors/JLeic</text>
<text text-anchor="middle" x="452" y="-88.5" font-family="FreeSans" font-size="10.00" fill="#000000">/Fun4All_G4_JLeic.C</text>
</a>
</g>
</g>
<!-- Node5&#45;&gt;Node9 -->
<g id="edge9" class="edge">
<title>Node5&#45;&gt;Node9</title>
<path fill="none" stroke="#191970" d="M1146.5277,-171.4028C1134.3326,-167.7085 1121.3313,-164.2817 1109,-162 856.7818,-115.3311 785.9446,-168.5564 533,-126 528.3943,-125.2251 523.6745,-124.2924 518.9409,-123.2534"/>
<polygon fill="#191970" stroke="#191970" points="1145.5177,-174.7541 1156.1068,-174.4063 1147.612,-168.0747 1145.5177,-174.7541"/>
</g>
<!-- Node10 -->
<g id="node10" class="node">
<title>Node10</title>
<g id="a_node10"><a xlink:href="../../d5/d97/Fun4All__G4__FullDetectorModular_8C.html" target="_top" xlink:title="fun4all_eicmacros/blob\l/master/detectors/Modular\l/Fun4All_G4_FullDetectorModular.C">
<polygon fill="none" stroke="#000000" points="490,-.5 490,-44.5 684,-44.5 684,-.5 490,-.5"/>
<text text-anchor="start" x="498" y="-31.5" font-family="FreeSans" font-size="10.00" fill="#000000">fun4all_eicmacros/blob</text>
<text text-anchor="start" x="498" y="-19.5" font-family="FreeSans" font-size="10.00" fill="#000000">/master/detectors/Modular</text>
<text text-anchor="middle" x="587" y="-7.5" font-family="FreeSans" font-size="10.00" fill="#000000">/Fun4All_G4_FullDetectorModular.C</text>
</a>
</g>
</g>
<!-- Node5&#45;&gt;Node10 -->
<g id="edge10" class="edge">
<title>Node5&#45;&gt;Node10</title>
<path fill="none" stroke="#191970" d="M1146.5212,-171.4375C1134.3265,-167.7413 1121.327,-164.305 1109,-162 1049.5644,-150.8861 607.3174,-170.1473 566,-126 545.5785,-104.1797 559.6761,-68.1862 572.614,-44.9143"/>
<polygon fill="#191970" stroke="#191970" points="1145.5112,-174.7888 1156.1004,-174.4409 1147.6055,-168.1094 1145.5112,-174.7888"/>
</g>
<!-- Node11 -->
<g id="node11" class="node">
<title>Node11</title>
<g id="a_node11"><a xlink:href="../../d8/da0/G4Setup__ModularDetector_8C.html" target="_top" xlink:title="fun4all_eicmacros/blob\l/master/detectors/Modular\l/G4Setup_ModularDetector.C">
<polygon fill="none" stroke="#000000" points="575.5,-81.5 575.5,-125.5 738.5,-125.5 738.5,-81.5 575.5,-81.5"/>
<text text-anchor="start" x="583.5" y="-112.5" font-family="FreeSans" font-size="10.00" fill="#000000">fun4all_eicmacros/blob</text>
<text text-anchor="start" x="583.5" y="-100.5" font-family="FreeSans" font-size="10.00" fill="#000000">/master/detectors/Modular</text>
<text text-anchor="middle" x="657" y="-88.5" font-family="FreeSans" font-size="10.00" fill="#000000">/G4Setup_ModularDetector.C</text>
</a>
</g>
</g>
<!-- Node5&#45;&gt;Node11 -->
<g id="edge11" class="edge">
<title>Node5&#45;&gt;Node11</title>
<path fill="none" stroke="#191970" d="M1145.3436,-171.3994C1133.4786,-167.8127 1120.9123,-164.4311 1109,-162 950.5828,-129.6701 906.2954,-153.6805 747,-126 744.3024,-125.5312 741.5662,-125.0255 738.8085,-124.4898"/>
<polygon fill="#191970" stroke="#191970" points="1144.5269,-174.8108 1155.1154,-174.4441 1146.6093,-168.1277 1144.5269,-174.8108"/>
</g>
<!-- Node12 -->
<g id="node12" class="node">
<title>Node12</title>
<g id="a_node12"><a xlink:href="../../df/d13/G4Setup__ModularDetectorBeast_8C.html" target="_top" xlink:title="fun4all_eicmacros/blob\l/master/detectors/ModularBeast\l/G4Setup_ModularDetectorBeast.C">
<polygon fill="none" stroke="#000000" points="756.5,-81.5 756.5,-125.5 949.5,-125.5 949.5,-81.5 756.5,-81.5"/>
<text text-anchor="start" x="764.5" y="-112.5" font-family="FreeSans" font-size="10.00" fill="#000000">fun4all_eicmacros/blob</text>
<text text-anchor="start" x="764.5" y="-100.5" font-family="FreeSans" font-size="10.00" fill="#000000">/master/detectors/ModularBeast</text>
<text text-anchor="middle" x="853" y="-88.5" font-family="FreeSans" font-size="10.00" fill="#000000">/G4Setup_ModularDetectorBeast.C</text>
</a>
</g>
</g>
<!-- Node5&#45;&gt;Node12 -->
<g id="edge13" class="edge">
<title>Node5&#45;&gt;Node12</title>
<path fill="none" stroke="#191970" d="M1141.3808,-171.396C1130.6524,-168.1124 1119.5227,-164.8453 1109,-162 1056.7386,-147.8685 997.8777,-134.2597 949.7851,-123.7294"/>
<polygon fill="#191970" stroke="#191970" points="1140.5037,-174.7883 1151.0916,-174.4046 1142.5753,-168.1019 1140.5037,-174.7883"/>
</g>
<!-- Node13 -->
<g id="node13" class="node">
<title>Node13</title>
<g id="a_node13"><a xlink:href="../../d0/dce/Fun4All__G4__FullDetectorModularBeast_8C.html" target="_top" xlink:title="fun4all_eicmacros/blob\l/master/detectors/ModularBeast\l/Fun4All_G4_FullDetectorModularBeast.C">
<polygon fill="none" stroke="#000000" points="757.5,-.5 757.5,-44.5 980.5,-44.5 980.5,-.5 757.5,-.5"/>
<text text-anchor="start" x="765.5" y="-31.5" font-family="FreeSans" font-size="10.00" fill="#000000">fun4all_eicmacros/blob</text>
<text text-anchor="start" x="765.5" y="-19.5" font-family="FreeSans" font-size="10.00" fill="#000000">/master/detectors/ModularBeast</text>
<text text-anchor="middle" x="869" y="-7.5" font-family="FreeSans" font-size="10.00" fill="#000000">/Fun4All_G4_FullDetectorModularBeast.C</text>
</a>
</g>
</g>
<!-- Node5&#45;&gt;Node13 -->
<g id="edge15" class="edge">
<title>Node5&#45;&gt;Node13</title>
<path fill="none" stroke="#191970" d="M1136.7389,-171.2474C1102.7828,-159.9138 1060.6927,-144.2332 1025,-126 993.0558,-109.6817 987.8769,-100.8517 958,-81 939.8272,-68.9251 919.4982,-55.5526 902.8618,-44.6443"/>
<polygon fill="#191970" stroke="#191970" points="1135.9499,-174.6724 1146.5429,-174.4749 1138.1388,-168.0234 1135.9499,-174.6724"/>
</g>
<!-- Node14 -->
<g id="node14" class="node">
<title>Node14</title>
<g id="a_node14"><a xlink:href="../../d6/d79/fun4all__eic__qa_2blob_2master_2macros_2Fun4All__G4__EICDetector_8C.html" target="_top" xlink:title="fun4all_eic_qa/blob\l/master/macros/Fun4All\l_G4_EICDetector.C">
<polygon fill="none" stroke="#000000" points="1015.5,-.5 1015.5,-44.5 1152.5,-44.5 1152.5,-.5 1015.5,-.5"/>
<text text-anchor="start" x="1023.5" y="-31.5" font-family="FreeSans" font-size="10.00" fill="#000000">fun4all_eic_qa/blob</text>
<text text-anchor="start" x="1023.5" y="-19.5" font-family="FreeSans" font-size="10.00" fill="#000000">/master/macros/Fun4All</text>
<text text-anchor="middle" x="1084" y="-7.5" font-family="FreeSans" font-size="10.00" fill="#000000">_G4_EICDetector.C</text>
</a>
</g>
</g>
<!-- Node5&#45;&gt;Node14 -->
<g id="edge16" class="edge">
<title>Node5&#45;&gt;Node14</title>
<path fill="none" stroke="#191970" d="M1141.0626,-171.0934C1096.3419,-155.7765 1041.463,-135.4657 1035,-126 1017.1756,-99.8943 1040.3945,-66.2909 1060.5492,-44.5738"/>
<polygon fill="#191970" stroke="#191970" points="1140.1252,-174.4714 1150.7196,-174.3782 1142.3794,-167.8443 1140.1252,-174.4714"/>
</g>
<!-- Node15 -->
<g id="node15" class="node">
<title>Node15</title>
<g id="a_node15"><a xlink:href="../../dc/df3/fun4all__eic__qa_2blob_2master_2macros_2G4Setup__EICDetector_8C.html" target="_top" xlink:title="fun4all_eic_qa/blob\l/master/macros/G4Setup\l_EICDetector.C">
<polygon fill="none" stroke="#000000" points="1044,-81.5 1044,-125.5 1188,-125.5 1188,-81.5 1044,-81.5"/>
<text text-anchor="start" x="1052" y="-112.5" font-family="FreeSans" font-size="10.00" fill="#000000">fun4all_eic_qa/blob</text>
<text text-anchor="start" x="1052" y="-100.5" font-family="FreeSans" font-size="10.00" fill="#000000">/master/macros/G4Setup</text>
<text text-anchor="middle" x="1116" y="-88.5" font-family="FreeSans" font-size="10.00" fill="#000000">_EICDetector.C</text>
</a>
</g>
</g>
<!-- Node5&#45;&gt;Node15 -->
<g id="edge17" class="edge">
<title>Node5&#45;&gt;Node15</title>
<path fill="none" stroke="#191970" d="M1176.929,-166.605C1164.5967,-153.8323 1149.5111,-138.208 1137.4362,-125.7018"/>
<polygon fill="#191970" stroke="#191970" points="1174.7364,-169.373 1184.2002,-174.136 1179.7722,-164.5108 1174.7364,-169.373"/>
</g>
<!-- Node16 -->
<g id="node16" class="node">
<title>Node16</title>
<g id="a_node16"><a xlink:href="../../d8/d14/Fun4All__G4__Babar_8C.html" target="_top" xlink:title="fun4all_eic_tutorials\l/blob/master/detectors\l/Babar/Fun4All_G4_Babar.C">
<polygon fill="none" stroke="#000000" points="1206.5,-81.5 1206.5,-125.5 1361.5,-125.5 1361.5,-81.5 1206.5,-81.5"/>
<text text-anchor="start" x="1214.5" y="-112.5" font-family="FreeSans" font-size="10.00" fill="#000000">fun4all_eic_tutorials</text>
<text text-anchor="start" x="1214.5" y="-100.5" font-family="FreeSans" font-size="10.00" fill="#000000">/blob/master/detectors</text>
<text text-anchor="middle" x="1284" y="-88.5" font-family="FreeSans" font-size="10.00" fill="#000000">/Babar/Fun4All_G4_Babar.C</text>
</a>
</g>
</g>
<!-- Node5&#45;&gt;Node16 -->
<g id="edge19" class="edge">
<title>Node5&#45;&gt;Node16</title>
<path fill="none" stroke="#191970" d="M1223.071,-166.605C1235.4033,-153.8323 1250.4889,-138.208 1262.5638,-125.7018"/>
<polygon fill="#191970" stroke="#191970" points="1220.2278,-164.5108 1215.7998,-174.136 1225.2636,-169.373 1220.2278,-164.5108"/>
</g>
<!-- Node17 -->
<g id="node17" class="node">
<title>Node17</title>
<g id="a_node17"><a xlink:href="../../d0/d4c/fun4all__eic__tutorials_2blob_2master_2detectors_2Beast_2Fun4All__G4__Beast_8C.html" target="_top" xlink:title="fun4all_eic_tutorials\l/blob/master/detectors\l/Beast/Fun4All_G4_Beast.C">
<polygon fill="none" stroke="#000000" points="1379.5,-81.5 1379.5,-125.5 1532.5,-125.5 1532.5,-81.5 1379.5,-81.5"/>
<text text-anchor="start" x="1387.5" y="-112.5" font-family="FreeSans" font-size="10.00" fill="#000000">fun4all_eic_tutorials</text>
<text text-anchor="start" x="1387.5" y="-100.5" font-family="FreeSans" font-size="10.00" fill="#000000">/blob/master/detectors</text>
<text text-anchor="middle" x="1456" y="-88.5" font-family="FreeSans" font-size="10.00" fill="#000000">/Beast/Fun4All_G4_Beast.C</text>
</a>
</g>
</g>
<!-- Node5&#45;&gt;Node17 -->
<g id="edge20" class="edge">
<title>Node5&#45;&gt;Node17</title>
<path fill="none" stroke="#191970" d="M1256.7991,-171.1972C1296.5579,-157.6854 1349.7582,-139.6056 1391.1781,-125.5293"/>
<polygon fill="#191970" stroke="#191970" points="1255.5946,-167.9098 1247.2527,-174.4415 1257.8471,-174.5376 1255.5946,-167.9098"/>
</g>
<!-- Node18 -->
<g id="node18" class="node">
<title>Node18</title>
<g id="a_node18"><a xlink:href="../../de/dcc/Fun4All__G4__Cleo_8C.html" target="_top" xlink:title="fun4all_eic_tutorials\l/blob/master/detectors\l/Cleo/Fun4All_G4_Cleo.C">
<polygon fill="none" stroke="#000000" points="1551,-81.5 1551,-125.5 1691,-125.5 1691,-81.5 1551,-81.5"/>
<text text-anchor="start" x="1559" y="-112.5" font-family="FreeSans" font-size="10.00" fill="#000000">fun4all_eic_tutorials</text>
<text text-anchor="start" x="1559" y="-100.5" font-family="FreeSans" font-size="10.00" fill="#000000">/blob/master/detectors</text>
<text text-anchor="middle" x="1621" y="-88.5" font-family="FreeSans" font-size="10.00" fill="#000000">/Cleo/Fun4All_G4_Cleo.C</text>
</a>
</g>
</g>
<!-- Node5&#45;&gt;Node18 -->
<g id="edge21" class="edge">
<title>Node5&#45;&gt;Node18</title>
<path fill="none" stroke="#191970" d="M1255.5953,-171.3296C1266.889,-167.8793 1278.7541,-164.5688 1290,-162 1399.8674,-136.9043 1430.7392,-149.3066 1541,-126 1544.2466,-125.3137 1547.5557,-124.5692 1550.8896,-123.7823"/>
<polygon fill="#191970" stroke="#191970" points="1254.3443,-168.0537 1245.8475,-174.3825 1256.4365,-174.7337 1254.3443,-168.0537"/>
</g>
<!-- Node19 -->
<g id="node19" class="node">
<title>Node19</title>
<g id="a_node19"><a xlink:href="../../d4/d91/fun4all__macros_2blob_2master_2detectors_2EICDetector_2Fun4All__G4__EICDetector_8C.html" target="_top" xlink:title="fun4all_macros/blob\l/master/detectors/EICDetector\l/Fun4All_G4_EICDetector.C">
<polygon fill="none" stroke="#000000" points="1690.5,-.5 1690.5,-44.5 1861.5,-44.5 1861.5,-.5 1690.5,-.5"/>
<text text-anchor="start" x="1698.5" y="-31.5" font-family="FreeSans" font-size="10.00" fill="#000000">fun4all_macros/blob</text>
<text text-anchor="start" x="1698.5" y="-19.5" font-family="FreeSans" font-size="10.00" fill="#000000">/master/detectors/EICDetector</text>
<text text-anchor="middle" x="1776" y="-7.5" font-family="FreeSans" font-size="10.00" fill="#000000">/Fun4All_G4_EICDetector.C</text>
</a>
</g>
</g>
<!-- Node5&#45;&gt;Node19 -->
<g id="edge22" class="edge">
<title>Node5&#45;&gt;Node19</title>
<path fill="none" stroke="#191970" d="M1253.6483,-171.4012C1265.4947,-167.7789 1278.0713,-164.3824 1290,-162 1379.6903,-144.0869 1620.2892,-170.8489 1700,-126 1708.5972,-121.1628 1741.6373,-73.5372 1761.2106,-44.6038"/>
<polygon fill="#191970" stroke="#191970" points="1252.3813,-168.1309 1243.8994,-174.4798 1254.4893,-174.806 1252.3813,-168.1309"/>
</g>
<!-- Node20 -->
<g id="node20" class="node">
<title>Node20</title>
<g id="a_node20"><a xlink:href="../../d5/d14/fun4all__macros_2blob_2master_2detectors_2EICDetector_2G4Setup__EICDetector_8C.html" target="_top" xlink:title="fun4all_macros/blob\l/master/detectors/EICDetector\l/G4Setup_EICDetector.C">
<polygon fill="none" stroke="#000000" points="1747.5,-81.5 1747.5,-125.5 1918.5,-125.5 1918.5,-81.5 1747.5,-81.5"/>
<text text-anchor="start" x="1755.5" y="-112.5" font-family="FreeSans" font-size="10.00" fill="#000000">fun4all_macros/blob</text>
<text text-anchor="start" x="1755.5" y="-100.5" font-family="FreeSans" font-size="10.00" fill="#000000">/master/detectors/EICDetector</text>
<text text-anchor="middle" x="1833" y="-88.5" font-family="FreeSans" font-size="10.00" fill="#000000">/G4Setup_EICDetector.C</text>
</a>
</g>
</g>
<!-- Node5&#45;&gt;Node20 -->
<g id="edge23" class="edge">
<title>Node5&#45;&gt;Node20</title>
<path fill="none" stroke="#191970" d="M1253.6367,-171.3426C1265.4838,-167.7239 1278.0637,-164.3437 1290,-162 1483.8368,-123.9406 1537.7158,-155.7541 1733,-126 1737.6619,-125.2897 1742.4302,-124.4854 1747.2329,-123.614"/>
<polygon fill="#191970" stroke="#191970" points="1252.3698,-168.0722 1243.8878,-174.4209 1254.4776,-174.7474 1252.3698,-168.0722"/>
</g>
<!-- Node21 -->
<g id="node21" class="node">
<title>Node21</title>
<g id="a_node21"><a xlink:href="../../d7/d9e/Fun4All__G4__fsPHENIX_8C.html" target="_top" xlink:title="fun4all_macros/blob\l/master/detectors/fsPHENIX\l/Fun4All_G4_fsPHENIX.C">
<polygon fill="none" stroke="#000000" points="1936.5,-81.5 1936.5,-125.5 2093.5,-125.5 2093.5,-81.5 1936.5,-81.5"/>
<text text-anchor="start" x="1944.5" y="-112.5" font-family="FreeSans" font-size="10.00" fill="#000000">fun4all_macros/blob</text>
<text text-anchor="start" x="1944.5" y="-100.5" font-family="FreeSans" font-size="10.00" fill="#000000">/master/detectors/fsPHENIX</text>
<text text-anchor="middle" x="2015" y="-88.5" font-family="FreeSans" font-size="10.00" fill="#000000">/Fun4All_G4_fsPHENIX.C</text>
</a>
</g>
</g>
<!-- Node5&#45;&gt;Node21 -->
<g id="edge25" class="edge">
<title>Node5&#45;&gt;Node21</title>
<path fill="none" stroke="#191970" d="M1252.4851,-171.4581C1264.656,-167.7227 1277.6616,-164.2646 1290,-162 1569.3404,-110.7294 1647.386,-169.7667 1928,-126 1930.7747,-125.5672 1933.5892,-125.0841 1936.4244,-124.5598"/>
<polygon fill="#191970" stroke="#191970" points="1251.4012,-168.13 1242.932,-174.4958 1253.5224,-174.8009 1251.4012,-168.13"/>
</g>
<!-- Node22 -->
<g id="node22" class="node">
<title>Node22</title>
<g id="a_node22"><a xlink:href="../../d9/d73/fun4all__macros_2blob_2master_2detectors_2sPHENIX_2Fun4All__G4__sPHENIX_8C.html" target="_top" xlink:title="fun4all_macros/blob\l/master/detectors/sPHENIX\l/Fun4All_G4_sPHENIX.C">
<polygon fill="none" stroke="#000000" points="2111.5,-81.5 2111.5,-125.5 2264.5,-125.5 2264.5,-81.5 2111.5,-81.5"/>
<text text-anchor="start" x="2119.5" y="-112.5" font-family="FreeSans" font-size="10.00" fill="#000000">fun4all_macros/blob</text>
<text text-anchor="start" x="2119.5" y="-100.5" font-family="FreeSans" font-size="10.00" fill="#000000">/master/detectors/sPHENIX</text>
<text text-anchor="middle" x="2188" y="-88.5" font-family="FreeSans" font-size="10.00" fill="#000000">/Fun4All_G4_sPHENIX.C</text>
</a>
</g>
</g>
<!-- Node5&#45;&gt;Node22 -->
<g id="edge26" class="edge">
<title>Node5&#45;&gt;Node22</title>
<path fill="none" stroke="#191970" d="M1252.4652,-171.3479C1264.6371,-167.6178 1277.6481,-164.1898 1290,-162 1646.1339,-98.8621 1745.456,-180.5903 2103,-126 2105.7163,-125.5853 2108.4708,-125.1176 2111.2447,-124.6066"/>
<polygon fill="#191970" stroke="#191970" points="1251.381,-168.0199 1242.9122,-174.3862 1253.5027,-174.6906 1251.381,-168.0199"/>
</g>
<!-- Node23 -->
<g id="node23" class="node">
<title>Node23</title>
<g id="a_node23"><a xlink:href="../../db/dc0/Fun4All__AnaTutorial_8C.html" target="_top" xlink:title="fun4all_tutorials/blob\l/master/AnaTutorial/macro\l/Fun4All_AnaTutorial.C">
<polygon fill="none" stroke="#000000" points="2282.5,-81.5 2282.5,-125.5 2433.5,-125.5 2433.5,-81.5 2282.5,-81.5"/>
<text text-anchor="start" x="2290.5" y="-112.5" font-family="FreeSans" font-size="10.00" fill="#000000">fun4all_tutorials/blob</text>
<text text-anchor="start" x="2290.5" y="-100.5" font-family="FreeSans" font-size="10.00" fill="#000000">/master/AnaTutorial/macro</text>
<text text-anchor="middle" x="2358" y="-88.5" font-family="FreeSans" font-size="10.00" fill="#000000">/Fun4All_AnaTutorial.C</text>
</a>
</g>
</g>
<!-- Node5&#45;&gt;Node23 -->
<g id="edge27" class="edge">
<title>Node5&#45;&gt;Node23</title>
<path fill="none" stroke="#191970" d="M1252.0768,-171.3933C1264.357,-167.6217 1277.5123,-164.1645 1290,-162 1721.1967,-87.2616 1841.2321,-191.0264 2274,-126 2276.6874,-125.5962 2279.4121,-125.138 2282.1557,-124.6349"/>
<polygon fill="#191970" stroke="#191970" points="1250.9081,-168.0922 1242.4454,-174.4666 1253.0361,-174.761 1250.9081,-168.0922"/>
</g>
<!-- Node24 -->
<g id="node24" class="node">
<title>Node24</title>
<g id="a_node24"><a xlink:href="../../dd/d28/Fun4All__AnaTutorial__Jets_8C.html" target="_top" xlink:title="fun4all_tutorials/blob\l/master/AnaTutorial/macro\l/Fun4All_AnaTutorial_Jets.C">
<polygon fill="none" stroke="#000000" points="2451.5,-81.5 2451.5,-125.5 2604.5,-125.5 2604.5,-81.5 2451.5,-81.5"/>
<text text-anchor="start" x="2459.5" y="-112.5" font-family="FreeSans" font-size="10.00" fill="#000000">fun4all_tutorials/blob</text>
<text text-anchor="start" x="2459.5" y="-100.5" font-family="FreeSans" font-size="10.00" fill="#000000">/master/AnaTutorial/macro</text>
<text text-anchor="middle" x="2528" y="-88.5" font-family="FreeSans" font-size="10.00" fill="#000000">/Fun4All_AnaTutorial_Jets.C</text>
</a>
</g>
</g>
<!-- Node5&#45;&gt;Node24 -->
<g id="edge28" class="edge">
<title>Node5&#45;&gt;Node24</title>
<path fill="none" stroke="#191970" d="M1252.0684,-171.3444C1264.349,-167.575 1277.5066,-164.131 1290,-162 1795.3948,-75.7946 1935.6855,-200.0763 2443,-126 2445.7189,-125.603 2448.4757,-125.1506 2451.2516,-124.6525"/>
<polygon fill="#191970" stroke="#191970" points="1250.8995,-168.0434 1242.437,-174.4182 1253.0278,-174.712 1250.8995,-168.0434"/>
</g>
<!-- Node25 -->
<g id="node25" class="node">
<title>Node25</title>
<g id="a_node25"><a xlink:href="../../d2/dbf/fun4all__tutorials_2blob_2master_2materialscan_2Fun4All__G4__sPHENIX_8C.html" target="_top" xlink:title="fun4all_tutorials/blob\l/master/materialscan/Fun4All\l_G4_sPHENIX.C">
<polygon fill="none" stroke="#000000" points="2622.5,-81.5 2622.5,-125.5 2787.5,-125.5 2787.5,-81.5 2622.5,-81.5"/>
<text text-anchor="start" x="2630.5" y="-112.5" font-family="FreeSans" font-size="10.00" fill="#000000">fun4all_tutorials/blob</text>
<text text-anchor="start" x="2630.5" y="-100.5" font-family="FreeSans" font-size="10.00" fill="#000000">/master/materialscan/Fun4All</text>
<text text-anchor="middle" x="2705" y="-88.5" font-family="FreeSans" font-size="10.00" fill="#000000">_G4_sPHENIX.C</text>
</a>
</g>
</g>
<!-- Node5&#45;&gt;Node25 -->
<g id="edge29" class="edge">
<title>Node5&#45;&gt;Node25</title>
<path fill="none" stroke="#191970" d="M1252.0621,-171.3076C1264.343,-167.5399 1277.5023,-164.1058 1290,-162 1580.2396,-113.0952 2322.3386,-165.5521 2614,-126 2616.7415,-125.6282 2619.5203,-125.2066 2622.3192,-124.7434"/>
<polygon fill="#191970" stroke="#191970" points="1250.8931,-168.0067 1242.4308,-174.3817 1253.0216,-174.6752 1250.8931,-168.0067"/>
</g>
<!-- Node7&#45;&gt;Node6 -->
<g id="edge7" class="edge">
<title>Node7&#45;&gt;Node6</title>
<path fill="none" stroke="#191970" d="M111.0341,-72.986C104.8634,-63.5554 98.1887,-53.3544 92.465,-44.6068"/>
<polygon fill="#191970" stroke="#191970" points="108.1134,-74.9149 116.5175,-81.3664 113.971,-71.0821 108.1134,-74.9149"/>
</g>
<!-- Node11&#45;&gt;Node10 -->
<g id="edge12" class="edge">
<title>Node11&#45;&gt;Node10</title>
<path fill="none" stroke="#191970" d="M631.128,-73.5624C622.8403,-63.9724 613.8185,-53.5329 606.1047,-44.6068"/>
<polygon fill="#191970" stroke="#191970" points="628.6854,-76.0888 637.8722,-81.3664 633.9817,-71.5117 628.6854,-76.0888"/>
</g>
<!-- Node12&#45;&gt;Node13 -->
<g id="edge14" class="edge">
<title>Node12&#45;&gt;Node13</title>
<path fill="none" stroke="#191970" d="M859.3137,-71.5369C861.0952,-62.5183 862.9935,-52.9081 864.6332,-44.6068"/>
<polygon fill="#191970" stroke="#191970" points="855.8764,-70.8777 857.3721,-81.3664 862.7437,-72.2342 855.8764,-70.8777"/>
</g>
<!-- Node15&#45;&gt;Node14 -->
<g id="edge18" class="edge">
<title>Node15&#45;&gt;Node14</title>
<path fill="none" stroke="#191970" d="M1103.4874,-71.8276C1099.8914,-62.7251 1096.0483,-52.9973 1092.7336,-44.6068"/>
<polygon fill="#191970" stroke="#191970" points="1100.3263,-73.3519 1107.2559,-81.3664 1106.8367,-70.7798 1100.3263,-73.3519"/>
</g>
<!-- Node20&#45;&gt;Node19 -->
<g id="edge24" class="edge">
<title>Node20&#45;&gt;Node19</title>
<path fill="none" stroke="#191970" d="M1811.5272,-72.986C1804.8909,-63.5554 1797.7123,-53.3544 1791.5567,-44.6068"/>
<polygon fill="#191970" stroke="#191970" points="1808.8072,-75.2026 1817.4245,-81.3664 1814.5319,-71.1741 1808.8072,-75.2026"/>
</g>
</g>
</svg>
