<?xml version="1.0" encoding="UTF-8" standalone="no"?>
<!DOCTYPE svg PUBLIC "-//W3C//DTD SVG 1.1//EN"
 "http://www.w3.org/Graphics/SVG/1.1/DTD/svg11.dtd">
<!-- Generated by graphviz version 2.40.1 (20161225.0304)
 -->
<!-- Title: PHG4FullProjSpacalDetector::Construct_Fibers Pages: 1 -->
<svg width="788pt" height="436pt"
 viewBox="0.00 0.00 788.00 436.00" xmlns="http://www.w3.org/2000/svg" xmlns:xlink="http://www.w3.org/1999/xlink">
<g id="graph0" class="graph" transform="scale(1 1) rotate(0) translate(4 432)">
<title>PHG4FullProjSpacalDetector::Construct_Fibers</title>
<!-- Node1 -->
<g id="node1" class="node">
<title>Node1</title>
<polygon fill="#bfbfbf" stroke="#000000" points="0,-186.5 0,-218.5 158,-218.5 158,-186.5 0,-186.5"/>
<text text-anchor="start" x="8" y="-205.5" font-family="FreeSans" font-size="10.00" fill="#000000">PHG4FullProjSpacalDetector</text>
<text text-anchor="middle" x="79" y="-193.5" font-family="FreeSans" font-size="10.00" fill="#000000">::Construct_Fibers</text>
</g>
<!-- Node2 -->
<g id="node2" class="node">
<title>Node2</title>
<g id="a_node2"><a xlink:href="../../df/dec/classPHG4CylinderGeom__Spacalv3_1_1geom__tower.html#a1cefef911cb0b74722ec4334da07a83d" target="_top" xlink:title="fiber layout (2D index of 0...NFiberX/NFiberY) &#45;&gt; fiber_id">
<polygon fill="none" stroke="#000000" points="194,-359.5 194,-391.5 374,-391.5 374,-359.5 194,-359.5"/>
<text text-anchor="start" x="202" y="-378.5" font-family="FreeSans" font-size="10.00" fill="#000000">PHG4CylinderGeom_Spacalv3</text>
<text text-anchor="middle" x="284" y="-366.5" font-family="FreeSans" font-size="10.00" fill="#000000">::geom_tower::compose_fiber_id</text>
</a>
</g>
</g>
<!-- Node1&#45;&gt;Node2 -->
<g id="edge1" class="edge">
<title>Node1&#45;&gt;Node2</title>
<path fill="none" stroke="#191970" d="M87.8775,-218.5929C104.7805,-247.8056 144.3673,-309.7446 194,-344.5 199.8632,-348.6057 206.3187,-352.2095 212.9982,-355.3637"/>
<polygon fill="#191970" stroke="#191970" points="211.6461,-358.5925 222.2108,-359.3911 214.4501,-352.1785 211.6461,-358.5925"/>
</g>
<!-- Node3 -->
<g id="node3" class="node">
<title>Node3</title>
<g id="a_node3"><a xlink:href="../../d0/da4/classPHG4SpacalDetector.html#aeb7c6f4586ddc3f81cc132e058aa2f32" target="_top" xlink:title="PHG4SpacalDetector\l::Construct_Fiber">
<polygon fill="none" stroke="#000000" points="223,-231.5 223,-263.5 345,-263.5 345,-231.5 223,-231.5"/>
<text text-anchor="start" x="231" y="-250.5" font-family="FreeSans" font-size="10.00" fill="#000000">PHG4SpacalDetector</text>
<text text-anchor="middle" x="284" y="-238.5" font-family="FreeSans" font-size="10.00" fill="#000000">::Construct_Fiber</text>
</a>
</g>
</g>
<!-- Node1&#45;&gt;Node3 -->
<g id="edge2" class="edge">
<title>Node1&#45;&gt;Node3</title>
<path fill="none" stroke="#191970" d="M152.1415,-218.5555C171.9133,-222.8956 193.2768,-227.5852 212.933,-231.8999"/>
<polygon fill="#191970" stroke="#191970" points="212.2156,-235.3257 222.7335,-234.0513 213.7165,-228.4885 212.2156,-235.3257"/>
</g>
<!-- Node4 -->
<g id="node4" class="node">
<title>Node4</title>
<g id="a_node4"><a xlink:href="../../d3/de7/classPHG4Detector.html#a2d071f49fa045db5ade51bb99f88218f" target="_top" xlink:title="PHG4Detector::GetName">
<polygon fill="none" stroke="#000000" points="422.5,-407.5 422.5,-427.5 564.5,-427.5 564.5,-407.5 422.5,-407.5"/>
<text text-anchor="middle" x="493.5" y="-414.5" font-family="FreeSans" font-size="10.00" fill="#000000">PHG4Detector::GetName</text>
</a>
</g>
</g>
<!-- Node1&#45;&gt;Node4 -->
<g id="edge19" class="edge">
<title>Node1&#45;&gt;Node4</title>
<path fill="none" stroke="#191970" d="M91.6443,-218.5415C111.0629,-242.036 150.5664,-285.5021 194,-308.5 266.5997,-346.9412 305.2074,-305.5998 374,-350.5 396.331,-365.0752 387.629,-383.9862 410,-398.5 412.8062,-400.3206 415.7642,-401.968 418.8256,-403.4585"/>
<polygon fill="#191970" stroke="#191970" points="417.6993,-406.7828 428.2714,-407.4758 420.4389,-400.3412 417.6993,-406.7828"/>
</g>
<!-- Node5 -->
<g id="node5" class="node">
<title>Node5</title>
<g id="a_node5"><a xlink:href="../../d2/da2/classPHG4CylinderGeom__Spacalv1.html#addae9d5cbb9d190afef536207fced06e" target="_top" xlink:title="PHG4CylinderGeom_Spacalv1\l::get_fiber_outer_r">
<polygon fill="none" stroke="#000000" points="410,-356.5 410,-388.5 577,-388.5 577,-356.5 410,-356.5"/>
<text text-anchor="start" x="418" y="-375.5" font-family="FreeSans" font-size="10.00" fill="#000000">PHG4CylinderGeom_Spacalv1</text>
<text text-anchor="middle" x="493.5" y="-363.5" font-family="FreeSans" font-size="10.00" fill="#000000">::get_fiber_outer_r</text>
</a>
</g>
</g>
<!-- Node1&#45;&gt;Node5 -->
<g id="edge17" class="edge">
<title>Node1&#45;&gt;Node5</title>
<path fill="none" stroke="#191970" d="M100.3441,-218.5873C122.6235,-234.6598 159.1148,-259.005 194,-273.5 269.9553,-305.0599 300.7685,-279.0516 374,-316.5 392.7992,-326.1133 391.4794,-337.3603 410,-347.5 413.2437,-349.2758 416.6289,-350.9405 420.0992,-352.4989"/>
<polygon fill="#191970" stroke="#191970" points="418.8673,-355.7771 429.445,-356.3797 421.5518,-349.3122 418.8673,-355.7771"/>
</g>
<!-- Node12 -->
<g id="node12" class="node">
<title>Node12</title>
<g id="a_node12"><a xlink:href="../../d3/de7/classPHG4Detector.html#a0be0f337e0bb4ef7d0754552ee7ba251" target="_top" xlink:title="PHG4Detector::OverlapCheck">
<polygon fill="none" stroke="#000000" points="410.5,-35.5 410.5,-55.5 576.5,-55.5 576.5,-35.5 410.5,-35.5"/>
<text text-anchor="middle" x="493.5" y="-42.5" font-family="FreeSans" font-size="10.00" fill="#000000">PHG4Detector::OverlapCheck</text>
</a>
</g>
</g>
<!-- Node1&#45;&gt;Node12 -->
<g id="edge20" class="edge">
<title>Node1&#45;&gt;Node12</title>
<path fill="none" stroke="#191970" d="M158.0602,-207.2271C233.9717,-210.0663 341.7352,-209.0973 374,-183.5 417.2878,-149.1576 369.5841,-102.1801 410,-64.5 411.3083,-63.2803 412.6781,-62.1332 414.1006,-61.0547"/>
<polygon fill="#191970" stroke="#191970" points="416.1681,-63.889 422.7648,-55.5984 412.4378,-57.9656 416.1681,-63.889"/>
</g>
<!-- Node14 -->
<g id="node14" class="node">
<title>Node14</title>
<g id="a_node14"><a xlink:href="../../df/de8/cemc_8C.html#a72d4716092b469b4bc1d816359a90e14" target="_top" xlink:title="cos">
<polygon fill="none" stroke="#000000" points="267.5,-153.5 267.5,-173.5 300.5,-173.5 300.5,-153.5 267.5,-153.5"/>
<text text-anchor="middle" x="284" y="-160.5" font-family="FreeSans" font-size="10.00" fill="#000000">cos</text>
</a>
</g>
</g>
<!-- Node1&#45;&gt;Node14 -->
<g id="edge14" class="edge">
<title>Node1&#45;&gt;Node14</title>
<path fill="none" stroke="#191970" d="M158.2584,-187.4216C193.355,-180.7447 232.2893,-173.3377 257.4006,-168.5604"/>
<polygon fill="#191970" stroke="#191970" points="258.0951,-171.9911 267.2648,-166.6838 256.7868,-165.1144 258.0951,-171.9911"/>
</g>
<!-- Node15 -->
<g id="node15" class="node">
<title>Node15</title>
<g id="a_node15"><a xlink:href="../../d9/d25/classPHG4GDMLConfig.html#a4993e27fa068c073e2d8d9a17a25143f" target="_top" xlink:title="PHG4GDMLConfig::exclude\l_physical_vol">
<polygon fill="none" stroke="#000000" points="208,-102.5 208,-134.5 360,-134.5 360,-102.5 208,-102.5"/>
<text text-anchor="start" x="216" y="-121.5" font-family="FreeSans" font-size="10.00" fill="#000000">PHG4GDMLConfig::exclude</text>
<text text-anchor="middle" x="284" y="-109.5" font-family="FreeSans" font-size="10.00" fill="#000000">_physical_vol</text>
</a>
</g>
</g>
<!-- Node1&#45;&gt;Node15 -->
<g id="edge15" class="edge">
<title>Node1&#45;&gt;Node15</title>
<path fill="none" stroke="#191970" d="M107.151,-186.4438C130.0269,-173.8551 163.4039,-156.5143 194,-144.5 199.9608,-142.1593 206.2172,-139.9236 212.537,-137.8159"/>
<polygon fill="#191970" stroke="#191970" points="214.041,-141.0087 222.4873,-134.6125 211.8958,-134.3455 214.041,-141.0087"/>
</g>
<!-- Node16 -->
<g id="node16" class="node">
<title>Node16</title>
<g id="a_node16"><a xlink:href="../../d2/da2/classPHG4CylinderGeom__Spacalv1.html#a240cbb1dc072be6fc5eba7c30f45cce5" target="_top" xlink:title="PHG4CylinderGeom_Spacalv1\l::get_construction_verbose">
<polygon fill="none" stroke="#000000" points="200.5,-51.5 200.5,-83.5 367.5,-83.5 367.5,-51.5 200.5,-51.5"/>
<text text-anchor="start" x="208.5" y="-70.5" font-family="FreeSans" font-size="10.00" fill="#000000">PHG4CylinderGeom_Spacalv1</text>
<text text-anchor="middle" x="284" y="-58.5" font-family="FreeSans" font-size="10.00" fill="#000000">::get_construction_verbose</text>
</a>
</g>
</g>
<!-- Node1&#45;&gt;Node16 -->
<g id="edge16" class="edge">
<title>Node1&#45;&gt;Node16</title>
<path fill="none" stroke="#191970" d="M91.3151,-186.4707C110.6055,-162.4677 150.29,-117.3565 194,-92.5 197.0528,-90.764 200.2332,-89.1427 203.4977,-87.6293"/>
<polygon fill="#191970" stroke="#191970" points="205.0476,-90.7737 212.8844,-83.6438 202.3118,-84.3305 205.0476,-90.7737"/>
</g>
<!-- Node17 -->
<g id="node17" class="node">
<title>Node17</title>
<g id="a_node17"><a xlink:href="../../d1/d05/classPHG4FullProjSpacalDetector.html#ae56250077cd2b8eaa62829541a3ff6f3" target="_top" xlink:title="get the v3 cast of the geometry object">
<polygon fill="none" stroke="#000000" points="205,-.5 205,-32.5 363,-32.5 363,-.5 205,-.5"/>
<text text-anchor="start" x="213" y="-19.5" font-family="FreeSans" font-size="10.00" fill="#000000">PHG4FullProjSpacalDetector</text>
<text text-anchor="middle" x="284" y="-7.5" font-family="FreeSans" font-size="10.00" fill="#000000">::get_geom_v3</text>
</a>
</g>
</g>
<!-- Node1&#45;&gt;Node17 -->
<g id="edge18" class="edge">
<title>Node1&#45;&gt;Node17</title>
<path fill="none" stroke="#191970" d="M85.9011,-186.4763C100.7356,-153.9735 138.8459,-80.1096 194,-41.5 196.1505,-39.9946 198.3889,-38.5796 200.6955,-37.2496"/>
<polygon fill="#191970" stroke="#191970" points="202.591,-40.2108 209.8884,-32.5297 199.3938,-33.9836 202.591,-40.2108"/>
</g>
<!-- Node3&#45;&gt;Node4 -->
<g id="edge3" class="edge">
<title>Node3&#45;&gt;Node4</title>
<path fill="none" stroke="#191970" d="M311.795,-263.5392C331.3033,-275.9444 356.8655,-294.6579 374,-316.5 398.5665,-347.8159 379.3136,-373.1516 410,-398.5 411.7695,-399.9617 413.6292,-401.3161 415.5618,-402.571"/>
<polygon fill="#191970" stroke="#191970" points="413.9999,-405.7064 424.4488,-407.4589 417.3734,-399.5729 413.9999,-405.7064"/>
</g>
<!-- Node3&#45;&gt;Node5 -->
<g id="edge4" class="edge">
<title>Node3&#45;&gt;Node5</title>
<path fill="none" stroke="#191970" d="M345.012,-261.4285C355.4455,-265.7097 365.609,-271.2758 374,-278.5 400.2131,-301.068 383.3319,-325.4715 410,-347.5 411.5313,-348.7649 413.125,-349.9657 414.7708,-351.1059"/>
<polygon fill="#191970" stroke="#191970" points="413.0169,-354.1354 423.3851,-356.3153 416.6392,-348.1455 413.0169,-354.1354"/>
</g>
<!-- Node7 -->
<g id="node7" class="node">
<title>Node7</title>
<g id="a_node7"><a xlink:href="../../d2/da2/classPHG4CylinderGeom__Spacalv1.html#aa734a4efc03e2122c1f8aab955e3b065" target="_top" xlink:title="PHG4CylinderGeom_Spacalv1\l::get_fiber_core_diameter">
<polygon fill="none" stroke="#000000" points="613,-238.5 613,-270.5 780,-270.5 780,-238.5 613,-238.5"/>
<text text-anchor="start" x="621" y="-257.5" font-family="FreeSans" font-size="10.00" fill="#000000">PHG4CylinderGeom_Spacalv1</text>
<text text-anchor="middle" x="696.5" y="-245.5" font-family="FreeSans" font-size="10.00" fill="#000000">::get_fiber_core_diameter</text>
</a>
</g>
</g>
<!-- Node3&#45;&gt;Node7 -->
<g id="edge10" class="edge">
<title>Node3&#45;&gt;Node7</title>
<path fill="none" stroke="#191970" d="M330.8904,-231.4544C363.2454,-220.5189 401.8492,-207.7928 410,-206.5 483.3059,-194.8733 504.1272,-192.4115 577,-206.5 604.6584,-211.8472 634.0393,-223.5587 656.7469,-234.0743"/>
<polygon fill="#191970" stroke="#191970" points="655.5106,-237.3616 666.0456,-238.4857 658.511,-231.0372 655.5106,-237.3616"/>
</g>
<!-- Node8 -->
<g id="node8" class="node">
<title>Node8</title>
<g id="a_node8"><a xlink:href="../../d2/da2/classPHG4CylinderGeom__Spacalv1.html#a03d858d218fda2c928b90874d24e85d3" target="_top" xlink:title="PHG4CylinderGeom_Spacalv1\l::get_fiber_clading_mat">
<polygon fill="none" stroke="#000000" points="410,-125.5 410,-157.5 577,-157.5 577,-125.5 410,-125.5"/>
<text text-anchor="start" x="418" y="-144.5" font-family="FreeSans" font-size="10.00" fill="#000000">PHG4CylinderGeom_Spacalv1</text>
<text text-anchor="middle" x="493.5" y="-132.5" font-family="FreeSans" font-size="10.00" fill="#000000">::get_fiber_clading_mat</text>
</a>
</g>
</g>
<!-- Node3&#45;&gt;Node8 -->
<g id="edge7" class="edge">
<title>Node3&#45;&gt;Node8</title>
<path fill="none" stroke="#191970" d="M345.292,-231.5447C355.3568,-227.5051 365.3212,-222.545 374,-216.5 394.7333,-202.0587 389.4398,-187.1867 410,-172.5 415.5797,-168.5143 421.7317,-164.9792 428.0904,-161.8583"/>
<polygon fill="#191970" stroke="#191970" points="429.8553,-164.9008 437.512,-157.5778 426.9598,-158.5277 429.8553,-164.9008"/>
</g>
<!-- Node9 -->
<g id="node9" class="node">
<title>Node9</title>
<g id="a_node9"><a xlink:href="../../d0/da4/classPHG4SpacalDetector.html#aa474210b76deb186fffbfb75bb49fd06" target="_top" xlink:title="PHG4SpacalDetector\l::GetDisplayAction">
<polygon fill="none" stroke="#000000" points="432.5,-74.5 432.5,-106.5 554.5,-106.5 554.5,-74.5 432.5,-74.5"/>
<text text-anchor="start" x="440.5" y="-93.5" font-family="FreeSans" font-size="10.00" fill="#000000">PHG4SpacalDetector</text>
<text text-anchor="middle" x="493.5" y="-81.5" font-family="FreeSans" font-size="10.00" fill="#000000">::GetDisplayAction</text>
</a>
</g>
</g>
<!-- Node3&#45;&gt;Node9 -->
<g id="edge8" class="edge">
<title>Node3&#45;&gt;Node9</title>
<path fill="none" stroke="#191970" d="M345.3984,-234.6873C355.9168,-230.2958 366.0115,-224.4037 374,-216.5 407.8767,-182.9831 375.4465,-148.3187 410,-115.5 413.9774,-111.7223 418.5026,-108.5132 423.3408,-105.7874"/>
<polygon fill="#191970" stroke="#191970" points="424.8934,-108.9243 432.3367,-101.3845 421.8162,-102.6369 424.8934,-108.9243"/>
</g>
<!-- Node10 -->
<g id="node10" class="node">
<title>Node10</title>
<g id="a_node10"><a xlink:href="../../d4/d9b/classPHG4SpacalDisplayAction.html#a3851780045227ce76daf7e308a477c54" target="_top" xlink:title="PHG4SpacalDisplayAction\l::AddVolume">
<polygon fill="none" stroke="#000000" points="420,-305.5 420,-337.5 567,-337.5 567,-305.5 420,-305.5"/>
<text text-anchor="start" x="428" y="-324.5" font-family="FreeSans" font-size="10.00" fill="#000000">PHG4SpacalDisplayAction</text>
<text text-anchor="middle" x="493.5" y="-312.5" font-family="FreeSans" font-size="10.00" fill="#000000">::AddVolume</text>
</a>
</g>
</g>
<!-- Node3&#45;&gt;Node10 -->
<g id="edge9" class="edge">
<title>Node3&#45;&gt;Node10</title>
<path fill="none" stroke="#191970" d="M334.4271,-263.5592C347.4474,-268.0616 361.3539,-273.1878 374,-278.5 390.4925,-285.4279 393.3695,-289.91 410,-296.5 415.0118,-298.486 420.2457,-300.4033 425.5428,-302.2327"/>
<polygon fill="#191970" stroke="#191970" points="424.518,-305.5804 435.1117,-305.4265 426.7342,-298.9405 424.518,-305.5804"/>
</g>
<!-- Node11 -->
<g id="node11" class="node">
<title>Node11</title>
<g id="a_node11"><a xlink:href="../../d2/da2/classPHG4CylinderGeom__Spacalv1.html#a3f8956704fc3f7200e35156a7e93f2a7" target="_top" xlink:title="PHG4CylinderGeom_Spacalv1\l::get_fiber_core_mat">
<polygon fill="none" stroke="#000000" points="410,-254.5 410,-286.5 577,-286.5 577,-254.5 410,-254.5"/>
<text text-anchor="start" x="418" y="-273.5" font-family="FreeSans" font-size="10.00" fill="#000000">PHG4CylinderGeom_Spacalv1</text>
<text text-anchor="middle" x="493.5" y="-261.5" font-family="FreeSans" font-size="10.00" fill="#000000">::get_fiber_core_mat</text>
</a>
</g>
</g>
<!-- Node3&#45;&gt;Node11 -->
<g id="edge11" class="edge">
<title>Node3&#45;&gt;Node11</title>
<path fill="none" stroke="#191970" d="M345.1593,-254.2144C362.1772,-256.0827 381.0634,-258.1561 399.5007,-260.1803"/>
<polygon fill="#191970" stroke="#191970" points="399.3604,-263.6858 409.6827,-261.2981 400.1244,-256.7276 399.3604,-263.6858"/>
</g>
<!-- Node3&#45;&gt;Node12 -->
<g id="edge12" class="edge">
<title>Node3&#45;&gt;Node12</title>
<path fill="none" stroke="#191970" d="M345.1962,-235.7663C355.9881,-231.2787 366.2355,-225.0753 374,-216.5 420.5973,-165.0369 360.6935,-113.3735 410,-64.5 411.1219,-63.388 412.2945,-62.3355 413.5116,-61.3396"/>
<polygon fill="#191970" stroke="#191970" points="415.7753,-64.0355 422.1266,-55.5555 411.8733,-58.2239 415.7753,-64.0355"/>
</g>
<!-- Node13 -->
<g id="node13" class="node">
<title>Node13</title>
<g id="a_node13"><a xlink:href="../../d3/de7/classPHG4Detector.html#af5eefc46de6e61b788946ca0d0a7427c" target="_top" xlink:title="PHG4Detector::Verbosity">
<polygon fill="none" stroke="#000000" points="422.5,-215.5 422.5,-235.5 564.5,-235.5 564.5,-215.5 422.5,-215.5"/>
<text text-anchor="middle" x="493.5" y="-222.5" font-family="FreeSans" font-size="10.00" fill="#000000">PHG4Detector::Verbosity</text>
</a>
</g>
</g>
<!-- Node3&#45;&gt;Node13 -->
<g id="edge13" class="edge">
<title>Node3&#45;&gt;Node13</title>
<path fill="none" stroke="#191970" d="M345.1593,-241.0775C366.1062,-238.8779 389.8836,-236.381 412.1703,-234.0406"/>
<polygon fill="#191970" stroke="#191970" points="412.7099,-237.5033 422.2897,-232.9779 411.9788,-230.5415 412.7099,-237.5033"/>
</g>
<!-- Node6 -->
<g id="node6" class="node">
<title>Node6</title>
<g id="a_node6"><a xlink:href="../../d2/da2/classPHG4CylinderGeom__Spacalv1.html#af9c9dfe13a4c109517f21e57dd8e0267" target="_top" xlink:title="PHG4CylinderGeom_Spacalv1\l::get_fiber_clading_thickness">
<polygon fill="none" stroke="#000000" points="613,-356.5 613,-388.5 780,-388.5 780,-356.5 613,-356.5"/>
<text text-anchor="start" x="621" y="-375.5" font-family="FreeSans" font-size="10.00" fill="#000000">PHG4CylinderGeom_Spacalv1</text>
<text text-anchor="middle" x="696.5" y="-363.5" font-family="FreeSans" font-size="10.00" fill="#000000">::get_fiber_clading_thickness</text>
</a>
</g>
</g>
<!-- Node5&#45;&gt;Node6 -->
<g id="edge5" class="edge">
<title>Node5&#45;&gt;Node6</title>
<path fill="none" stroke="#191970" d="M577.2399,-372.5C585.7178,-372.5 594.3663,-372.5 602.9388,-372.5"/>
<polygon fill="#191970" stroke="#191970" points="602.9526,-376.0001 612.9526,-372.5 602.9525,-369.0001 602.9526,-376.0001"/>
</g>
<!-- Node5&#45;&gt;Node7 -->
<g id="edge6" class="edge">
<title>Node5&#45;&gt;Node7</title>
<path fill="none" stroke="#191970" d="M556.5089,-356.4003C563.574,-353.7887 570.5443,-350.8291 577,-347.5 613.3673,-328.7458 649.687,-298.4178 672.5731,-277.5226"/>
<polygon fill="#191970" stroke="#191970" points="675.1308,-279.9242 680.0861,-270.5595 670.3725,-274.7901 675.1308,-279.9242"/>
</g>
</g>
</svg>
