<?xml version="1.0" encoding="UTF-8" standalone="no"?>
<!DOCTYPE svg PUBLIC "-//W3C//DTD SVG 1.1//EN"
 "http://www.w3.org/Graphics/SVG/1.1/DTD/svg11.dtd">
<!-- Generated by graphviz version 2.40.1 (20161225.0304)
 -->
<!-- Title: HoughTree::AddResolutionLevelCore Pages: 1 -->
<svg width="683pt" height="41pt"
 viewBox="0.00 0.00 683.00 41.00" xmlns="http://www.w3.org/2000/svg" xmlns:xlink="http://www.w3.org/1999/xlink">
<g id="graph0" class="graph" transform="scale(1 1) rotate(0) translate(4 37)">
<title>HoughTree::AddResolutionLevelCore</title>
<!-- Node1 -->
<g id="node1" class="node">
<title>Node1</title>
<polygon fill="#bfbfbf" stroke="#000000" points="0,-.5 0,-32.5 150,-32.5 150,-.5 0,-.5"/>
<text text-anchor="start" x="8" y="-19.5" font-family="FreeSans" font-size="10.00" fill="#000000">HoughTree::AddResolution</text>
<text text-anchor="middle" x="75" y="-7.5" font-family="FreeSans" font-size="10.00" fill="#000000">LevelCore</text>
</g>
<!-- Node2 -->
<g id="node2" class="node">
<title>Node2</title>
<g id="a_node2"><a xlink:href="../../d9/d3a/classHoughTree.html#ae991a444b1040babef6eaea9607ce3d7" target="_top" xlink:title="HoughTree::AddResolution\lLevel">
<polygon fill="none" stroke="#000000" points="186,-.5 186,-32.5 336,-32.5 336,-.5 186,-.5"/>
<text text-anchor="start" x="194" y="-19.5" font-family="FreeSans" font-size="10.00" fill="#000000">HoughTree::AddResolution</text>
<text text-anchor="middle" x="261" y="-7.5" font-family="FreeSans" font-size="10.00" fill="#000000">Level</text>
</a>
</g>
</g>
<!-- Node1&#45;&gt;Node2 -->
<g id="edge1" class="edge">
<title>Node1&#45;&gt;Node2</title>
<path fill="none" stroke="#191970" d="M160.1473,-16.5C168.7419,-16.5 177.4265,-16.5 185.9048,-16.5"/>
<polygon fill="#191970" stroke="#191970" points="160.1172,-13.0001 150.1172,-16.5 160.1171,-20.0001 160.1172,-13.0001"/>
</g>
<!-- Node3 -->
<g id="node3" class="node">
<title>Node3</title>
<g id="a_node3"><a xlink:href="../../d4/d04/classFwdTrackFinder.html#a60d8f45df9ed32b267d14008e7be20c6" target="_top" xlink:title="FwdTrackFinder::Configure\lResolutionLevels">
<polygon fill="none" stroke="#000000" points="372,-.5 372,-32.5 522,-32.5 522,-.5 372,-.5"/>
<text text-anchor="start" x="380" y="-19.5" font-family="FreeSans" font-size="10.00" fill="#000000">FwdTrackFinder::Configure</text>
<text text-anchor="middle" x="447" y="-7.5" font-family="FreeSans" font-size="10.00" fill="#000000">ResolutionLevels</text>
</a>
</g>
</g>
<!-- Node2&#45;&gt;Node3 -->
<g id="edge2" class="edge">
<title>Node2&#45;&gt;Node3</title>
<path fill="none" stroke="#191970" d="M346.1473,-16.5C354.7419,-16.5 363.4265,-16.5 371.9048,-16.5"/>
<polygon fill="#191970" stroke="#191970" points="346.1172,-13.0001 336.1172,-16.5 346.1171,-20.0001 346.1172,-13.0001"/>
</g>
<!-- Node4 -->
<g id="node4" class="node">
<title>Node4</title>
<g id="a_node4"><a xlink:href="../../d4/d04/classFwdTrackFinder.html#aede5d387f06d05b801e76f3c977fce68" target="_top" xlink:title="FwdTrackFinder::Init">
<polygon fill="none" stroke="#000000" points="558,-6.5 558,-26.5 675,-26.5 675,-6.5 558,-6.5"/>
<text text-anchor="middle" x="616.5" y="-13.5" font-family="FreeSans" font-size="10.00" fill="#000000">FwdTrackFinder::Init</text>
</a>
</g>
</g>
<!-- Node3&#45;&gt;Node4 -->
<g id="edge3" class="edge">
<title>Node3&#45;&gt;Node4</title>
<path fill="none" stroke="#191970" d="M532.4419,-16.5C541.0683,-16.5 549.6852,-16.5 557.935,-16.5"/>
<polygon fill="#191970" stroke="#191970" points="532.3323,-13.0001 522.3323,-16.5 532.3322,-20.0001 532.3323,-13.0001"/>
</g>
</g>
</svg>
