<?xml version="1.0" encoding="UTF-8" standalone="no"?>
<!DOCTYPE svg PUBLIC "-//W3C//DTD SVG 1.1//EN"
 "http://www.w3.org/Graphics/SVG/1.1/DTD/svg11.dtd">
<!-- Generated by graphviz version 2.40.1 (20161225.0304)
 -->
<!-- Title: CEMC_Towers Pages: 1 -->
<svg width="310pt" height="365pt"
 viewBox="0.00 0.00 310.00 365.00" xmlns="http://www.w3.org/2000/svg" xmlns:xlink="http://www.w3.org/1999/xlink">
<g id="graph0" class="graph" transform="scale(1 1) rotate(0) translate(4 361)">
<title>CEMC_Towers</title>
<!-- Node1 -->
<g id="node1" class="node">
<title>Node1</title>
<polygon fill="#bfbfbf" stroke="#000000" points="0,-180.5 0,-200.5 85,-200.5 85,-180.5 0,-180.5"/>
<text text-anchor="middle" x="42.5" y="-187.5" font-family="FreeSans" font-size="10.00" fill="#000000">CEMC_Towers</text>
</g>
<!-- Node2 -->
<g id="node2" class="node">
<title>Node2</title>
<g id="a_node2"><a xlink:href="../../db/dc0/Fun4All__AnaTutorial_8C.html#aeb927fc74810ef9bc0c056302f1fbe69" target="_top" xlink:title="Fun4All_AnaTutorial">
<polygon fill="none" stroke="#000000" points="154,-336.5 154,-356.5 269,-356.5 269,-336.5 154,-336.5"/>
<text text-anchor="middle" x="211.5" y="-343.5" font-family="FreeSans" font-size="10.00" fill="#000000">Fun4All_AnaTutorial</text>
</a>
</g>
</g>
<!-- Node1&#45;&gt;Node2 -->
<g id="edge1" class="edge">
<title>Node1&#45;&gt;Node2</title>
<path fill="none" stroke="#191970" d="M48.1785,-210.58C57.8518,-240.9316 80.5206,-298.0661 121,-327.5 130.6086,-334.4867 142.2241,-339.0218 153.8835,-341.9389"/>
<polygon fill="#191970" stroke="#191970" points="51.4387,-209.2691 45.1937,-200.7105 44.7384,-211.2955 51.4387,-209.2691"/>
</g>
<!-- Node3 -->
<g id="node3" class="node">
<title>Node3</title>
<g id="a_node3"><a xlink:href="../../dd/d28/Fun4All__AnaTutorial__Jets_8C.html#a49f0c60dbca7146b42abc2eedf173722" target="_top" xlink:title="Fun4All_AnaTutorial_Jets">
<polygon fill="none" stroke="#000000" points="142,-297.5 142,-317.5 281,-317.5 281,-297.5 142,-297.5"/>
<text text-anchor="middle" x="211.5" y="-304.5" font-family="FreeSans" font-size="10.00" fill="#000000">Fun4All_AnaTutorial_Jets</text>
</a>
</g>
</g>
<!-- Node1&#45;&gt;Node3 -->
<g id="edge2" class="edge">
<title>Node1&#45;&gt;Node3</title>
<path fill="none" stroke="#191970" d="M52.4671,-209.7321C65.2108,-232.3038 89.4549,-269.108 121,-288.5 127.4281,-292.4516 134.5463,-295.5926 141.8846,-298.0875"/>
<polygon fill="#191970" stroke="#191970" points="55.433,-207.8598 47.5788,-200.7491 49.2844,-211.2058 55.433,-207.8598"/>
</g>
<!-- Node4 -->
<g id="node4" class="node">
<title>Node4</title>
<g id="a_node4"><a xlink:href="../../d6/d79/fun4all__eic__qa_2blob_2master_2macros_2Fun4All__G4__EICDetector_8C.html#a3e8b2c9290dae13dd57b23d543df2fd5" target="_top" xlink:title="Fun4All_G4_EICDetector">
<polygon fill="none" stroke="#000000" points="142,-258.5 142,-278.5 281,-278.5 281,-258.5 142,-258.5"/>
<text text-anchor="middle" x="211.5" y="-265.5" font-family="FreeSans" font-size="10.00" fill="#000000">Fun4All_G4_EICDetector</text>
</a>
</g>
</g>
<!-- Node1&#45;&gt;Node4 -->
<g id="edge3" class="edge">
<title>Node1&#45;&gt;Node4</title>
<path fill="none" stroke="#191970" d="M60.204,-207.4426C75.2209,-220.866 97.9427,-239.0444 121,-249.5 129.0417,-253.1466 137.8053,-256.1033 146.6094,-258.4982"/>
<polygon fill="#191970" stroke="#191970" points="62.4341,-204.7386 52.7008,-200.5537 57.6999,-209.895 62.4341,-204.7386"/>
</g>
<!-- Node5 -->
<g id="node5" class="node">
<title>Node5</title>
<g id="a_node5"><a xlink:href="../../d7/d9e/Fun4All__G4__fsPHENIX_8C.html#a75e8ef26e92f882a865536a3e16244c5" target="_top" xlink:title="Fun4All_G4_fsPHENIX">
<polygon fill="none" stroke="#000000" points="149.5,-219.5 149.5,-239.5 273.5,-239.5 273.5,-219.5 149.5,-219.5"/>
<text text-anchor="middle" x="211.5" y="-226.5" font-family="FreeSans" font-size="10.00" fill="#000000">Fun4All_G4_fsPHENIX</text>
</a>
</g>
</g>
<!-- Node1&#45;&gt;Node5 -->
<g id="edge4" class="edge">
<title>Node1&#45;&gt;Node5</title>
<path fill="none" stroke="#191970" d="M90.578,-203.0935C100.6118,-205.625 111.1366,-208.2092 121,-210.5 134.136,-213.5508 148.3953,-216.6452 161.6264,-219.4261"/>
<polygon fill="#191970" stroke="#191970" points="91.3048,-199.667 80.7505,-200.5925 89.5784,-206.4508 91.3048,-199.667"/>
</g>
<!-- Node6 -->
<g id="node6" class="node">
<title>Node6</title>
<g id="a_node6"><a xlink:href="../../d5/d97/Fun4All__G4__FullDetectorModular_8C.html#a3718da6a9c8edc72f231ee413c514dad" target="_top" xlink:title="Fun4All_G4_FullDetectorModular">
<polygon fill="none" stroke="#000000" points="121,-180.5 121,-200.5 302,-200.5 302,-180.5 121,-180.5"/>
<text text-anchor="middle" x="211.5" y="-187.5" font-family="FreeSans" font-size="10.00" fill="#000000">Fun4All_G4_FullDetectorModular</text>
</a>
</g>
</g>
<!-- Node1&#45;&gt;Node6 -->
<g id="edge5" class="edge">
<title>Node1&#45;&gt;Node6</title>
<path fill="none" stroke="#191970" d="M95.2034,-190.5C103.3612,-190.5 111.9819,-190.5 120.6925,-190.5"/>
<polygon fill="#191970" stroke="#191970" points="95.1459,-187.0001 85.1458,-190.5 95.1458,-194.0001 95.1459,-187.0001"/>
</g>
<!-- Node7 -->
<g id="node7" class="node">
<title>Node7</title>
<g id="a_node7"><a xlink:href="../../d0/dce/Fun4All__G4__FullDetectorModularBeast_8C.html#a0f10ba4ce157df87369cfd776fc132d3" target="_top" xlink:title="Fun4All_G4_FullDetectorModular\lBeast">
<polygon fill="none" stroke="#000000" points="121,-129.5 121,-161.5 302,-161.5 302,-129.5 121,-129.5"/>
<text text-anchor="start" x="129" y="-148.5" font-family="FreeSans" font-size="10.00" fill="#000000">Fun4All_G4_FullDetectorModular</text>
<text text-anchor="middle" x="211.5" y="-136.5" font-family="FreeSans" font-size="10.00" fill="#000000">Beast</text>
</a>
</g>
</g>
<!-- Node1&#45;&gt;Node7 -->
<g id="edge6" class="edge">
<title>Node1&#45;&gt;Node7</title>
<path fill="none" stroke="#191970" d="M90.2981,-177.7727C109.2073,-172.7377 131.1598,-166.8924 151.1451,-161.5708"/>
<polygon fill="#191970" stroke="#191970" points="89.1896,-174.4458 80.4269,-180.4011 90.9908,-181.2101 89.1896,-174.4458"/>
</g>
<!-- Node8 -->
<g id="node8" class="node">
<title>Node8</title>
<g id="a_node8"><a xlink:href="../../d9/d18/Fun4All__G4__LBLDetector_8C.html#acc03ebe198962a7abb94f5c42641bfc9" target="_top" xlink:title="Fun4All_G4_LBLDetector">
<polygon fill="none" stroke="#000000" points="141.5,-90.5 141.5,-110.5 281.5,-110.5 281.5,-90.5 141.5,-90.5"/>
<text text-anchor="middle" x="211.5" y="-97.5" font-family="FreeSans" font-size="10.00" fill="#000000">Fun4All_G4_LBLDetector</text>
</a>
</g>
</g>
<!-- Node1&#45;&gt;Node8 -->
<g id="edge7" class="edge">
<title>Node1&#45;&gt;Node8</title>
<path fill="none" stroke="#191970" d="M57.5137,-172.689C72.0873,-156.5803 95.6669,-133.4596 121,-120.5 129.0221,-116.3961 137.8651,-113.1307 146.786,-110.5332"/>
<polygon fill="#191970" stroke="#191970" points="54.7245,-170.5608 50.752,-180.3827 59.9825,-175.1818 54.7245,-170.5608"/>
</g>
<!-- Node9 -->
<g id="node9" class="node">
<title>Node9</title>
<g id="a_node9"><a xlink:href="../../d5/d9f/Fun4All__G4__Momentum__Projection__Calorimeters_8C.html#a5f9b4c65bb2070aedfd707dfc2d2cace" target="_top" xlink:title="Fun4All_G4_Momentum\l_Projection_Calorimeters">
<polygon fill="none" stroke="#000000" points="140.5,-39.5 140.5,-71.5 282.5,-71.5 282.5,-39.5 140.5,-39.5"/>
<text text-anchor="start" x="148.5" y="-58.5" font-family="FreeSans" font-size="10.00" fill="#000000">Fun4All_G4_Momentum</text>
<text text-anchor="middle" x="211.5" y="-46.5" font-family="FreeSans" font-size="10.00" fill="#000000">_Projection_Calorimeters</text>
</a>
</g>
</g>
<!-- Node1&#45;&gt;Node9 -->
<g id="edge8" class="edge">
<title>Node1&#45;&gt;Node9</title>
<path fill="none" stroke="#191970" d="M51.2835,-171.3118C63.4696,-146.8264 87.811,-104.8551 121,-81.5 126.8824,-77.3606 133.4161,-73.876 140.2036,-70.9435"/>
<polygon fill="#191970" stroke="#191970" points="48.1209,-169.8125 46.9475,-180.3422 54.4312,-172.8425 48.1209,-169.8125"/>
</g>
<!-- Node10 -->
<g id="node10" class="node">
<title>Node10</title>
<g id="a_node10"><a xlink:href="../../d9/d73/fun4all__macros_2blob_2master_2detectors_2sPHENIX_2Fun4All__G4__sPHENIX_8C.html#a4102cd3e195333de974409428a2e6dae" target="_top" xlink:title="Fun4All_G4_sPHENIX">
<polygon fill="none" stroke="#000000" points="151,-.5 151,-20.5 272,-20.5 272,-.5 151,-.5"/>
<text text-anchor="middle" x="211.5" y="-7.5" font-family="FreeSans" font-size="10.00" fill="#000000">Fun4All_G4_sPHENIX</text>
</a>
</g>
</g>
<!-- Node1&#45;&gt;Node10 -->
<g id="edge9" class="edge">
<title>Node1&#45;&gt;Node10</title>
<path fill="none" stroke="#191970" d="M46.4192,-170.5606C54.2368,-136.3201 75.1215,-66.5562 121,-30.5 129.6029,-23.7389 140.021,-19.1585 150.6828,-16.0773"/>
<polygon fill="#191970" stroke="#191970" points="42.9963,-169.8305 44.325,-180.3417 49.8411,-171.296 42.9963,-169.8305"/>
</g>
</g>
</svg>
