<?xml version="1.0" encoding="UTF-8" standalone="no"?>
<!DOCTYPE svg PUBLIC "-//W3C//DTD SVG 1.1//EN"
 "http://www.w3.org/Graphics/SVG/1.1/DTD/svg11.dtd">
<!-- Generated by graphviz version 2.40.1 (20161225.0304)
 -->
<!-- Title: ThetaFromEta Pages: 1 -->
<svg width="502pt" height="49pt"
 viewBox="0.00 0.00 502.00 49.00" xmlns="http://www.w3.org/2000/svg" xmlns:xlink="http://www.w3.org/1999/xlink">
<g id="graph0" class="graph" transform="scale(1 1) rotate(0) translate(4 45)">
<title>ThetaFromEta</title>
<!-- Node1 -->
<g id="node1" class="node">
<title>Node1</title>
<polygon fill="#bfbfbf" stroke="#000000" points="0,-.5 0,-20.5 87,-20.5 87,-.5 0,-.5"/>
<text text-anchor="middle" x="43.5" y="-7.5" font-family="FreeSans" font-size="10.00" fill="#000000">ThetaFromEta</text>
</g>
<!-- Node2 -->
<g id="node2" class="node">
<title>Node2</title>
<g id="a_node2"><a xlink:href="../../d5/db0/SmearCore__0__1_8cxx.html#a4543b2c565440db37946b0b0866faead" target="_top" xlink:title="AssembleCoreTracker">
<polygon fill="none" stroke="#000000" points="123,-20.5 123,-40.5 250,-40.5 250,-20.5 123,-20.5"/>
<text text-anchor="middle" x="186.5" y="-27.5" font-family="FreeSans" font-size="10.00" fill="#000000">AssembleCoreTracker</text>
</a>
</g>
</g>
<!-- Node1&#45;&gt;Node2 -->
<g id="edge1" class="edge">
<title>Node1&#45;&gt;Node2</title>
<path fill="none" stroke="#191970" d="M97.1793,-18.0076C105.5444,-19.1775 114.2571,-20.3961 122.8184,-21.5935"/>
<polygon fill="#191970" stroke="#191970" points="97.5702,-14.5283 87.1817,-16.6093 96.6005,-21.4608 97.5702,-14.5283"/>
</g>
<!-- Node3 -->
<g id="node3" class="node">
<title>Node3</title>
<g id="a_node3"><a xlink:href="../../d5/db0/SmearCore__0__1_8cxx.html#a1aa3ded82d831148f8586716dbd37890" target="_top" xlink:title="BuildCore_0_1">
<polygon fill="none" stroke="#000000" points="286,-.5 286,-20.5 374,-20.5 374,-.5 286,-.5"/>
<text text-anchor="middle" x="330" y="-7.5" font-family="FreeSans" font-size="10.00" fill="#000000">BuildCore_0_1</text>
</a>
</g>
</g>
<!-- Node1&#45;&gt;Node3 -->
<g id="edge4" class="edge">
<title>Node1&#45;&gt;Node3</title>
<path fill="none" stroke="#191970" d="M97.1577,-10.5C151.567,-10.5 234.7853,-10.5 285.6051,-10.5"/>
<polygon fill="#191970" stroke="#191970" points="97.0132,-7.0001 87.0132,-10.5 97.0131,-14.0001 97.0132,-7.0001"/>
</g>
<!-- Node2&#45;&gt;Node3 -->
<g id="edge2" class="edge">
<title>Node2&#45;&gt;Node3</title>
<path fill="none" stroke="#191970" d="M260.4232,-20.1971C269.0756,-18.9912 277.6858,-17.7912 285.7499,-16.6673"/>
<polygon fill="#191970" stroke="#191970" points="259.698,-16.7643 250.2769,-21.6112 260.6643,-23.6973 259.698,-16.7643"/>
</g>
<!-- Node4 -->
<g id="node4" class="node">
<title>Node4</title>
<g id="a_node4"><a xlink:href="../../d9/d4f/eicsmeardetectors_8hh.html#adca3f5d409beb964ac1e4af562055e3c" target="_top" xlink:title="BuildByName">
<polygon fill="none" stroke="#000000" points="410,-.5 410,-20.5 494,-20.5 494,-.5 410,-.5"/>
<text text-anchor="middle" x="452" y="-7.5" font-family="FreeSans" font-size="10.00" fill="#000000">BuildByName</text>
</a>
</g>
</g>
<!-- Node3&#45;&gt;Node4 -->
<g id="edge3" class="edge">
<title>Node3&#45;&gt;Node4</title>
<path fill="none" stroke="#191970" d="M384.2845,-10.5C392.7878,-10.5 401.4674,-10.5 409.6513,-10.5"/>
<polygon fill="#191970" stroke="#191970" points="384.0448,-7.0001 374.0448,-10.5 384.0448,-14.0001 384.0448,-7.0001"/>
</g>
</g>
</svg>
