<?xml version="1.0" encoding="UTF-8" standalone="no"?>
<!DOCTYPE svg PUBLIC "-//W3C//DTD SVG 1.1//EN"
 "http://www.w3.org/Graphics/SVG/1.1/DTD/svg11.dtd">
<!-- Generated by graphviz version 2.40.1 (20161225.0304)
 -->
<!-- Title: fun4all_macros/blob/master/detectors/fsPHENIX/Fun4All_G4_fsPHENIX.C Pages: 1 -->
<svg width="3861pt" height="407pt"
 viewBox="0.00 0.00 3860.50 407.00" xmlns="http://www.w3.org/2000/svg" xmlns:xlink="http://www.w3.org/1999/xlink">
<g id="graph0" class="graph" transform="scale(1 1) rotate(0) translate(4 403)">
<title>fun4all_macros/blob/master/detectors/fsPHENIX/Fun4All_G4_fsPHENIX.C</title>
<!-- Node1 -->
<g id="node1" class="node">
<title>Node1</title>
<polygon fill="#bfbfbf" stroke="#000000" points="2120,-354.5 2120,-398.5 2277,-398.5 2277,-354.5 2120,-354.5"/>
<text text-anchor="start" x="2128" y="-385.5" font-family="FreeSans" font-size="10.00" fill="#000000">fun4all_macros/blob</text>
<text text-anchor="start" x="2128" y="-373.5" font-family="FreeSans" font-size="10.00" fill="#000000">/master/detectors/fsPHENIX</text>
<text text-anchor="middle" x="2198.5" y="-361.5" font-family="FreeSans" font-size="10.00" fill="#000000">/Fun4All_G4_fsPHENIX.C</text>
</g>
<!-- Node2 -->
<g id="node2" class="node">
<title>Node2</title>
<polygon fill="none" stroke="#bfbfbf" points="0,-234.5 0,-254.5 105,-254.5 105,-234.5 0,-234.5"/>
<text text-anchor="middle" x="52.5" y="-241.5" font-family="FreeSans" font-size="10.00" fill="#000000">GlobalVariables.C</text>
</g>
<!-- Node1&#45;&gt;Node2 -->
<g id="edge1" class="edge">
<title>Node1&#45;&gt;Node2</title>
<path fill="none" stroke="#191970" d="M2119.792,-375.6017C1819.5072,-371.9151 745.7778,-356.2916 406.5,-318 274.6734,-303.1218 242.7256,-291.0059 113.5,-261 108.4205,-259.8206 103.1244,-258.5103 97.8672,-257.1584"/>
<polygon fill="#191970" stroke="#191970" points="98.4338,-253.6885 87.8725,-254.5309 96.654,-260.4585 98.4338,-253.6885"/>
</g>
<!-- Node3 -->
<g id="node3" class="node">
<title>Node3</title>
<g id="a_node3"><a xlink:href="../../d7/d47/fun4all__macros_2blob_2master_2detectors_2fsPHENIX_2DisplayOn_8C.html" target="_top" xlink:title="DisplayOn.C">
<polygon fill="none" stroke="#000000" points="2147.5,-114.5 2147.5,-134.5 2225.5,-134.5 2225.5,-114.5 2147.5,-114.5"/>
<text text-anchor="middle" x="2186.5" y="-121.5" font-family="FreeSans" font-size="10.00" fill="#000000">DisplayOn.C</text>
</a>
</g>
</g>
<!-- Node1&#45;&gt;Node3 -->
<g id="edge2" class="edge">
<title>Node1&#45;&gt;Node3</title>
<path fill="none" stroke="#191970" d="M2193.3506,-354.3099C2185.2547,-316.6381 2171.099,-237.7574 2177.5,-171 2178.3309,-162.3339 2180.014,-152.8825 2181.7021,-144.7775"/>
<polygon fill="#191970" stroke="#191970" points="2185.1755,-145.2812 2183.9279,-134.7601 2178.3421,-143.7629 2185.1755,-145.2812"/>
</g>
<!-- Node6 -->
<g id="node6" class="node">
<title>Node6</title>
<g id="a_node6"><a xlink:href="../../dc/da2/Fun4AllServer_8h.html" target="_top" xlink:title="fun4all/Fun4AllServer.h">
<polygon fill="none" stroke="#ff0000" points="1977,-57.5 1977,-77.5 2110,-77.5 2110,-57.5 1977,-57.5"/>
<text text-anchor="middle" x="2043.5" y="-64.5" font-family="FreeSans" font-size="10.00" fill="#000000">fun4all/Fun4AllServer.h</text>
</a>
</g>
</g>
<!-- Node1&#45;&gt;Node6 -->
<g id="edge123" class="edge">
<title>Node1&#45;&gt;Node6</title>
<path fill="none" stroke="#191970" d="M2277.1632,-371.5822C2409.9762,-362.9531 2687.0406,-343.5479 2920.5,-318 3107.2485,-297.5638 3433.8745,-386.8005 3333.5,-228 3301.9529,-178.09 3269.9867,-188.1894 3213.5,-171 3007.6781,-108.3666 2346.2758,-78.6679 2120.1452,-70.1633"/>
<polygon fill="#191970" stroke="#191970" points="2120.1539,-66.6612 2110.0304,-69.7861 2119.893,-73.6564 2120.1539,-66.6612"/>
</g>
<!-- Node7 -->
<g id="node7" class="node">
<title>Node7</title>
<g id="a_node7"><a xlink:href="../../d6/d41/G4Setup__fsPHENIX_8C.html" target="_top" xlink:title="G4Setup_fsPHENIX.C">
<polygon fill="none" stroke="#000000" points="738,-297.5 738,-317.5 859,-317.5 859,-297.5 738,-297.5"/>
<text text-anchor="middle" x="798.5" y="-304.5" font-family="FreeSans" font-size="10.00" fill="#000000">G4Setup_fsPHENIX.C</text>
</a>
</g>
</g>
<!-- Node1&#45;&gt;Node7 -->
<g id="edge6" class="edge">
<title>Node1&#45;&gt;Node7</title>
<path fill="none" stroke="#191970" d="M2119.9777,-372.63C1871.7401,-360.3954 1106.3597,-322.6731 869.2632,-310.9876"/>
<polygon fill="#191970" stroke="#191970" points="869.203,-307.4805 859.0428,-310.4839 868.8583,-314.472 869.203,-307.4805"/>
</g>
<!-- Node8 -->
<g id="node8" class="node">
<title>Node8</title>
<polygon fill="none" stroke="#bfbfbf" points="123,-234.5 123,-254.5 188,-254.5 188,-234.5 123,-234.5"/>
<text text-anchor="middle" x="155.5" y="-241.5" font-family="FreeSans" font-size="10.00" fill="#000000">G4_Bbc.C</text>
</g>
<!-- Node1&#45;&gt;Node8 -->
<g id="edge76" class="edge">
<title>Node1&#45;&gt;Node8</title>
<path fill="none" stroke="#191970" d="M2119.9105,-375.257C1899.9121,-371.3709 1259.2603,-357.2731 728.5,-318 493.9947,-300.648 431.8351,-312.9544 202.5,-261 198.6255,-260.1223 194.6282,-259.0282 190.6768,-257.8238"/>
<polygon fill="#191970" stroke="#191970" points="191.6382,-254.4557 181.0454,-254.6628 189.4553,-261.1067 191.6382,-254.4557"/>
</g>
<!-- Node24 -->
<g id="node24" class="node">
<title>Node24</title>
<g id="a_node24"><a xlink:href="../../d1/dd8/G4__User_8C.html" target="_top" xlink:title="G4_User.C">
<polygon fill="none" stroke="#000000" points="2226.5,-234.5 2226.5,-254.5 2294.5,-254.5 2294.5,-234.5 2226.5,-234.5"/>
<text text-anchor="middle" x="2260.5" y="-241.5" font-family="FreeSans" font-size="10.00" fill="#000000">G4_User.C</text>
</a>
</g>
</g>
<!-- Node1&#45;&gt;Node24 -->
<g id="edge120" class="edge">
<title>Node1&#45;&gt;Node24</title>
<path fill="none" stroke="#191970" d="M2208.8774,-354.4062C2220.7618,-329.104 2240.0467,-288.0457 2251.3778,-263.9215"/>
<polygon fill="#191970" stroke="#191970" points="2254.6188,-265.2539 2255.7022,-254.7146 2248.2829,-262.2779 2254.6188,-265.2539"/>
</g>
<!-- Node28 -->
<g id="node28" class="node">
<title>Node28</title>
<g id="a_node28"><a xlink:href="../../db/d22/Fun4AllDstOutputManager_8h.html" target="_top" xlink:title="fun4all/Fun4AllDstOutput\lManager.h">
<polygon fill="none" stroke="#ff0000" points="1132.5,-228.5 1132.5,-260.5 1276.5,-260.5 1276.5,-228.5 1132.5,-228.5"/>
<text text-anchor="start" x="1140.5" y="-247.5" font-family="FreeSans" font-size="10.00" fill="#000000">fun4all/Fun4AllDstOutput</text>
<text text-anchor="middle" x="1204.5" y="-235.5" font-family="FreeSans" font-size="10.00" fill="#000000">Manager.h</text>
</a>
</g>
</g>
<!-- Node1&#45;&gt;Node28 -->
<g id="edge121" class="edge">
<title>Node1&#45;&gt;Node28</title>
<path fill="none" stroke="#191970" d="M2119.8872,-373.4921C1947.2048,-366.4325 1539.4324,-347.1638 1404.5,-318 1348.9328,-305.9899 1288.0061,-281.9119 1248.1796,-264.5832"/>
<polygon fill="#191970" stroke="#191970" points="1249.5844,-261.3775 1239.0215,-260.5553 1246.7662,-267.7852 1249.5844,-261.3775"/>
</g>
<!-- Node29 -->
<g id="node29" class="node">
<title>Node29</title>
<g id="a_node29"><a xlink:href="../../de/df8/Fun4AllOutputManager_8h.html" target="_top" xlink:title="Fun4AllOutputManager.h">
<polygon fill="none" stroke="#ff0000" points="1301,-171.5 1301,-191.5 1442,-191.5 1442,-171.5 1301,-171.5"/>
<text text-anchor="middle" x="1371.5" y="-178.5" font-family="FreeSans" font-size="10.00" fill="#000000">Fun4AllOutputManager.h</text>
</a>
</g>
</g>
<!-- Node1&#45;&gt;Node29 -->
<g id="edge122" class="edge">
<title>Node1&#45;&gt;Node29</title>
<path fill="none" stroke="#191970" d="M2119.8196,-375.1308C1969.0915,-371.5872 1645.445,-359.2735 1542.5,-318 1476.1106,-291.3826 1414.8717,-230.0732 1387.1239,-199.5065"/>
<polygon fill="#191970" stroke="#191970" points="1389.4779,-196.8874 1380.2093,-191.7547 1384.2541,-201.5471 1389.4779,-196.8874"/>
</g>
<!-- Node30 -->
<g id="node30" class="node">
<title>Node30</title>
<g id="a_node30"><a xlink:href="../../d6/d0d/G4__CaloTrigger_8C.html" target="_top" xlink:title="G4_CaloTrigger.C">
<polygon fill="none" stroke="#000000" points="3381.5,-114.5 3381.5,-134.5 3483.5,-134.5 3483.5,-114.5 3381.5,-114.5"/>
<text text-anchor="middle" x="3432.5" y="-121.5" font-family="FreeSans" font-size="10.00" fill="#000000">G4_CaloTrigger.C</text>
</a>
</g>
</g>
<!-- Node1&#45;&gt;Node30 -->
<g id="edge77" class="edge">
<title>Node1&#45;&gt;Node30</title>
<path fill="none" stroke="#191970" d="M2277.3951,-375.2106C2536.1386,-370.6456 3344.8904,-353.5797 3387.5,-318 3439.1754,-274.8502 3438.2102,-185.0088 3434.8361,-144.7626"/>
<polygon fill="#191970" stroke="#191970" points="3438.2984,-144.2064 3433.8386,-134.596 3431.3319,-144.89 3438.2984,-144.2064"/>
</g>
<!-- Node32 -->
<g id="node32" class="node">
<title>Node32</title>
<g id="a_node32"><a xlink:href="../../d7/dfd/G4__DSTReader__fsPHENIX_8C.html" target="_top" xlink:title="G4_DSTReader_fsPHENIX.C">
<polygon fill="none" stroke="#000000" points="1551,-297.5 1551,-317.5 1704,-317.5 1704,-297.5 1551,-297.5"/>
<text text-anchor="middle" x="1627.5" y="-304.5" font-family="FreeSans" font-size="10.00" fill="#000000">G4_DSTReader_fsPHENIX.C</text>
</a>
</g>
</g>
<!-- Node1&#45;&gt;Node32 -->
<g id="edge81" class="edge">
<title>Node1&#45;&gt;Node32</title>
<path fill="none" stroke="#191970" d="M2119.7044,-366.9783C2013.346,-354.1259 1824.4968,-331.3052 1714.2143,-317.9786"/>
<polygon fill="#191970" stroke="#191970" points="1714.468,-314.4839 1704.1203,-316.7588 1713.6282,-321.4333 1714.468,-314.4839"/>
</g>
<!-- Node34 -->
<g id="node34" class="node">
<title>Node34</title>
<g id="a_node34"><a xlink:href="../../db/d19/G4__FwdJets_8C.html" target="_top" xlink:title="G4_FwdJets.C">
<polygon fill="none" stroke="#000000" points="2731.5,-297.5 2731.5,-317.5 2815.5,-317.5 2815.5,-297.5 2731.5,-297.5"/>
<text text-anchor="middle" x="2773.5" y="-304.5" font-family="FreeSans" font-size="10.00" fill="#000000">G4_FwdJets.C</text>
</a>
</g>
</g>
<!-- Node1&#45;&gt;Node34 -->
<g id="edge95" class="edge">
<title>Node1&#45;&gt;Node34</title>
<path fill="none" stroke="#191970" d="M2277.2457,-367.0505C2396.6364,-352.7236 2620.2339,-325.8919 2721.4075,-313.7511"/>
<polygon fill="#191970" stroke="#191970" points="2721.8774,-317.2199 2731.3891,-312.5533 2721.0433,-310.2698 2721.8774,-317.2199"/>
</g>
<!-- Node42 -->
<g id="node42" class="node">
<title>Node42</title>
<polygon fill="none" stroke="#bfbfbf" points="2833.5,-297.5 2833.5,-317.5 2911.5,-317.5 2911.5,-297.5 2833.5,-297.5"/>
<text text-anchor="middle" x="2872.5" y="-304.5" font-family="FreeSans" font-size="10.00" fill="#000000">G4_Global.C</text>
</g>
<!-- Node1&#45;&gt;Node42 -->
<g id="edge104" class="edge">
<title>Node1&#45;&gt;Node42</title>
<path fill="none" stroke="#191970" d="M2277.4459,-372.2253C2394.6185,-365.1928 2621.5455,-348.9349 2823.3848,-318.0189"/>
<polygon fill="#191970" stroke="#191970" points="2823.9333,-321.4758 2833.2807,-316.4881 2822.8632,-314.5581 2823.9333,-321.4758"/>
</g>
<!-- Node43 -->
<g id="node43" class="node">
<title>Node43</title>
<g id="a_node43"><a xlink:href="../../dc/d7e/G4__Input_8C.html" target="_top" xlink:title="G4_Input.C">
<polygon fill="none" stroke="#ff0000" points="3501.5,-114.5 3501.5,-134.5 3573.5,-134.5 3573.5,-114.5 3501.5,-114.5"/>
<text text-anchor="middle" x="3537.5" y="-121.5" font-family="FreeSans" font-size="10.00" fill="#000000">G4_Input.C</text>
</a>
</g>
</g>
<!-- Node1&#45;&gt;Node43 -->
<g id="edge105" class="edge">
<title>Node1&#45;&gt;Node43</title>
<path fill="none" stroke="#191970" d="M2277.0438,-375.7644C2553.4184,-372.8211 3466.8751,-359.945 3512.5,-318 3561.0498,-273.366 3550.2127,-184.7017 3542.2382,-144.7962"/>
<polygon fill="#191970" stroke="#191970" points="3545.6371,-143.9538 3540.1166,-134.9109 3538.793,-145.4228 3545.6371,-143.9538"/>
</g>
<!-- Node47 -->
<g id="node47" class="node">
<title>Node47</title>
<g id="a_node47"><a xlink:href="../../da/d3c/G4__Tracking_8C.html" target="_top" xlink:title="G4_Tracking.C">
<polygon fill="none" stroke="#ff0000" points="2023.5,-297.5 2023.5,-317.5 2111.5,-317.5 2111.5,-297.5 2023.5,-297.5"/>
<text text-anchor="middle" x="2067.5" y="-304.5" font-family="FreeSans" font-size="10.00" fill="#000000">G4_Tracking.C</text>
</a>
</g>
</g>
<!-- Node1&#45;&gt;Node47 -->
<g id="edge111" class="edge">
<title>Node1&#45;&gt;Node47</title>
<path fill="none" stroke="#191970" d="M2156.6906,-354.4783C2136.8523,-344.0291 2113.6632,-331.815 2095.9029,-322.4603"/>
<polygon fill="#191970" stroke="#191970" points="2097.1293,-319.1505 2086.6504,-317.5869 2093.867,-325.3439 2097.1293,-319.1505"/>
</g>
<!-- Node48 -->
<g id="node48" class="node">
<title>Node48</title>
<polygon fill="none" stroke="#bfbfbf" points="3439.5,-297.5 3439.5,-317.5 3503.5,-317.5 3503.5,-297.5 3439.5,-297.5"/>
<text text-anchor="middle" x="3471.5" y="-304.5" font-family="FreeSans" font-size="10.00" fill="#000000">G4_Jets.C</text>
</g>
<!-- Node1&#45;&gt;Node48 -->
<g id="edge117" class="edge">
<title>Node1&#45;&gt;Node48</title>
<path fill="none" stroke="#191970" d="M2277.4125,-374.5625C2511.9525,-368.515 3202.322,-348.5472 3425.5,-318 3426.7782,-317.825 3428.0733,-317.6319 3429.3783,-317.4234"/>
<polygon fill="#191970" stroke="#191970" points="3430.2581,-320.8205 3439.4624,-315.5734 3428.995,-313.9354 3430.2581,-320.8205"/>
</g>
<!-- Node49 -->
<g id="node49" class="node">
<title>Node49</title>
<g id="a_node49"><a xlink:href="../../da/d38/G4__Production_8C.html" target="_top" xlink:title="G4_Production.C">
<polygon fill="none" stroke="#000000" points="2186,-171.5 2186,-191.5 2285,-191.5 2285,-171.5 2186,-171.5"/>
<text text-anchor="middle" x="2235.5" y="-178.5" font-family="FreeSans" font-size="10.00" fill="#000000">G4_Production.C</text>
</a>
</g>
</g>
<!-- Node1&#45;&gt;Node49 -->
<g id="edge118" class="edge">
<title>Node1&#45;&gt;Node49</title>
<path fill="none" stroke="#191970" d="M2199.6619,-354.2982C2201.5751,-324.9909 2206.354,-271.9641 2217.5,-228 2219.8036,-218.9139 2223.3787,-209.195 2226.7377,-201.0042"/>
<polygon fill="#191970" stroke="#191970" points="2230.042,-202.1792 2230.7648,-191.609 2223.6081,-199.4214 2230.042,-202.1792"/>
</g>
<!-- Node50 -->
<g id="node50" class="node">
<title>Node50</title>
<g id="a_node50"><a xlink:href="../../d2/dcb/recoConsts_8h.html" target="_top" xlink:title="phool/recoConsts.h">
<polygon fill="none" stroke="#ff0000" points="3560,-297.5 3560,-317.5 3673,-317.5 3673,-297.5 3560,-297.5"/>
<text text-anchor="middle" x="3616.5" y="-304.5" font-family="FreeSans" font-size="10.00" fill="#000000">phool/recoConsts.h</text>
</a>
</g>
</g>
<!-- Node1&#45;&gt;Node50 -->
<g id="edge124" class="edge">
<title>Node1&#45;&gt;Node50</title>
<path fill="none" stroke="#191970" d="M2277.2683,-375.9215C2485.0788,-373.7803 3065.1945,-363.8215 3545.5,-318 3546.973,-317.8595 3548.4621,-317.7094 3549.9627,-317.5509"/>
<polygon fill="#191970" stroke="#191970" points="3550.4494,-321.0181 3559.983,-316.3964 3549.6481,-314.0641 3550.4494,-321.0181"/>
</g>
<!-- Node4 -->
<g id="node4" class="node">
<title>Node4</title>
<g id="a_node4"><a xlink:href="../../d0/d2b/PHG4Reco_8h.html" target="_top" xlink:title="g4main/PHG4Reco.h">
<polygon fill="none" stroke="#ff0000" points="855,-57.5 855,-77.5 974,-77.5 974,-57.5 855,-57.5"/>
<text text-anchor="middle" x="914.5" y="-64.5" font-family="FreeSans" font-size="10.00" fill="#000000">g4main/PHG4Reco.h</text>
</a>
</g>
</g>
<!-- Node3&#45;&gt;Node4 -->
<g id="edge3" class="edge">
<title>Node3&#45;&gt;Node4</title>
<path fill="none" stroke="#191970" d="M2147.3876,-122.7473C1967.4619,-114.6846 1218.151,-81.107 984.4376,-70.634"/>
<polygon fill="#191970" stroke="#191970" points="984.5064,-67.1337 974.3597,-70.1824 984.1929,-74.1266 984.5064,-67.1337"/>
</g>
<!-- Node3&#45;&gt;Node6 -->
<g id="edge5" class="edge">
<title>Node3&#45;&gt;Node6</title>
<path fill="none" stroke="#191970" d="M2161.2636,-114.4408C2138.228,-105.2587 2103.9648,-91.6013 2078.3272,-81.3822"/>
<polygon fill="#191970" stroke="#191970" points="2079.5503,-78.1019 2068.9651,-77.6504 2076.9584,-84.6044 2079.5503,-78.1019"/>
</g>
<!-- Node5 -->
<g id="node5" class="node">
<title>Node5</title>
<polygon fill="none" stroke="#bfbfbf" points="479.5,-.5 479.5,-20.5 613.5,-20.5 613.5,-.5 479.5,-.5"/>
<text text-anchor="middle" x="546.5" y="-7.5" font-family="FreeSans" font-size="10.00" fill="#000000">phfield/PHFieldConfig.h</text>
</g>
<!-- Node4&#45;&gt;Node5 -->
<g id="edge4" class="edge">
<title>Node4&#45;&gt;Node5</title>
<path fill="none" stroke="#191970" d="M854.9654,-58.2786C791.2737,-48.4133 690.1252,-32.7463 621.15,-22.0626"/>
<polygon fill="#191970" stroke="#191970" points="621.6329,-18.5958 611.215,-20.5238 620.5614,-25.5133 621.6329,-18.5958"/>
</g>
<!-- Node7&#45;&gt;Node2 -->
<g id="edge7" class="edge">
<title>Node7&#45;&gt;Node2</title>
<path fill="none" stroke="#191970" d="M737.919,-304.9162C593.6347,-298.5156 232.8227,-280.9884 113.5,-261 107.3224,-259.9652 100.8662,-258.5712 94.563,-257.0298"/>
<polygon fill="#191970" stroke="#191970" points="95.4036,-253.6321 84.8458,-254.5166 93.6508,-260.4091 95.4036,-253.6321"/>
</g>
<!-- Node7&#45;&gt;Node4 -->
<g id="edge71" class="edge">
<title>Node7&#45;&gt;Node4</title>
<path fill="none" stroke="#191970" d="M737.716,-304.0283C607.4949,-296.2978 312.156,-277.0792 297.5,-261 287.6199,-250.1605 295.678,-242.5531 297.5,-228 303.9948,-176.1246 286.5241,-147.6921 326.5,-114 365.3543,-81.2532 697.4331,-71.3326 844.6835,-68.5279"/>
<polygon fill="#191970" stroke="#191970" points="845.026,-72.0223 854.9596,-68.3381 844.8966,-65.0235 845.026,-72.0223"/>
</g>
<!-- Node7&#45;&gt;Node5 -->
<g id="edge73" class="edge">
<title>Node7&#45;&gt;Node5</title>
<path fill="none" stroke="#191970" d="M737.5406,-304.3953C611.1108,-297.6012 328.8176,-280.4578 289.5,-261 246.5071,-239.7234 216.5,-229.4696 216.5,-181.5 216.5,-181.5 216.5,-181.5 216.5,-124.5 216.5,-71.2998 371.6585,-37.4576 469.1927,-21.4396"/>
<polygon fill="#191970" stroke="#191970" points="470.0067,-24.8536 479.3218,-19.8059 468.8921,-17.9429 470.0067,-24.8536"/>
</g>
<!-- Node7&#45;&gt;Node8 -->
<g id="edge8" class="edge">
<title>Node7&#45;&gt;Node8</title>
<path fill="none" stroke="#191970" d="M737.5524,-304.7551C606.8749,-298.5421 303.4204,-282.2723 202.5,-261 198.5202,-260.1611 194.4164,-259.0736 190.3685,-257.8571"/>
<polygon fill="#191970" stroke="#191970" points="191.1165,-254.4193 180.5239,-254.6355 188.9394,-261.0721 191.1165,-254.4193"/>
</g>
<!-- Node9 -->
<g id="node9" class="node">
<title>Node9</title>
<g id="a_node9"><a xlink:href="../../d4/dcd/G4__BlackHole_8C.html" target="_top" xlink:title="G4_BlackHole.C">
<polygon fill="none" stroke="#ff0000" points="335.5,-114.5 335.5,-134.5 431.5,-134.5 431.5,-114.5 335.5,-114.5"/>
<text text-anchor="middle" x="383.5" y="-121.5" font-family="FreeSans" font-size="10.00" fill="#000000">G4_BlackHole.C</text>
</a>
</g>
</g>
<!-- Node7&#45;&gt;Node9 -->
<g id="edge9" class="edge">
<title>Node7&#45;&gt;Node9</title>
<path fill="none" stroke="#191970" d="M737.9757,-303.8762C610.6673,-295.9622 325.6757,-276.5937 311.5,-261 278.0812,-224.2383 330.8508,-169.116 362.4838,-141.5189"/>
<polygon fill="#191970" stroke="#191970" points="365.0241,-143.9534 370.3812,-134.8127 360.4931,-138.6176 365.0241,-143.9534"/>
</g>
<!-- Node11 -->
<g id="node11" class="node">
<title>Node11</title>
<g id="a_node11"><a xlink:href="../../d7/ddc/G4__CEmc__Spacal_8C.html" target="_top" xlink:title="G4_CEmc_Spacal.C">
<polygon fill="none" stroke="#ff0000" points="1247,-114.5 1247,-134.5 1360,-134.5 1360,-114.5 1247,-114.5"/>
<text text-anchor="middle" x="1303.5" y="-121.5" font-family="FreeSans" font-size="10.00" fill="#000000">G4_CEmc_Spacal.C</text>
</a>
</g>
</g>
<!-- Node7&#45;&gt;Node11 -->
<g id="edge12" class="edge">
<title>Node7&#45;&gt;Node11</title>
<path fill="none" stroke="#191970" d="M859.4495,-299.96C901.4938,-293.2829 957.9729,-281.341 1004.5,-261 1028.2208,-250.6296 1029.6289,-240.1299 1052.5,-228 1091.2901,-207.4274 1103.8431,-208.5807 1144.5,-192 1188.5387,-174.0401 1239.0353,-152.4271 1271.0867,-138.5799"/>
<polygon fill="#191970" stroke="#191970" points="1272.6259,-141.7276 1280.414,-134.5445 1269.8464,-135.3031 1272.6259,-141.7276"/>
</g>
<!-- Node12 -->
<g id="node12" class="node">
<title>Node12</title>
<g id="a_node12"><a xlink:href="../../d5/dcb/G4__FEMC_8C.html" target="_top" xlink:title="G4_FEMC.C">
<polygon fill="none" stroke="#ff0000" points="1154.5,-114.5 1154.5,-134.5 1228.5,-134.5 1228.5,-114.5 1154.5,-114.5"/>
<text text-anchor="middle" x="1191.5" y="-121.5" font-family="FreeSans" font-size="10.00" fill="#000000">G4_FEMC.C</text>
</a>
</g>
</g>
<!-- Node7&#45;&gt;Node12 -->
<g id="edge16" class="edge">
<title>Node7&#45;&gt;Node12</title>
<path fill="none" stroke="#191970" d="M851.9344,-297.4721C885.7674,-289.9801 929.8808,-278.068 966.5,-261 989.965,-250.0631 991.446,-239.7786 1014.5,-228 1056.9371,-206.3182 1074.4871,-216.2685 1115.5,-192 1138.566,-178.3512 1161.0125,-157.1398 1175.4564,-142.1428"/>
<polygon fill="#191970" stroke="#191970" points="1178.3078,-144.2197 1182.6105,-134.5379 1173.2092,-139.4234 1178.3078,-144.2197"/>
</g>
<!-- Node13 -->
<g id="node13" class="node">
<title>Node13</title>
<g id="a_node13"><a xlink:href="../../da/d9b/G4__FGEM__fsPHENIX_8C.html" target="_top" xlink:title="G4_FGEM_fsPHENIX.C">
<polygon fill="none" stroke="#ff0000" points="980.5,-171.5 980.5,-191.5 1106.5,-191.5 1106.5,-171.5 980.5,-171.5"/>
<text text-anchor="middle" x="1043.5" y="-178.5" font-family="FreeSans" font-size="10.00" fill="#000000">G4_FGEM_fsPHENIX.C</text>
</a>
</g>
</g>
<!-- Node7&#45;&gt;Node13 -->
<g id="edge20" class="edge">
<title>Node7&#45;&gt;Node13</title>
<path fill="none" stroke="#191970" d="M834.3017,-297.4667C861.0153,-289.3265 898.0052,-276.6514 928.5,-261 929.7265,-260.3705 987.1815,-220.5599 1020.4032,-197.522"/>
<polygon fill="#191970" stroke="#191970" points="1022.4489,-200.3626 1028.6715,-191.7876 1018.4597,-194.6106 1022.4489,-200.3626"/>
</g>
<!-- Node14 -->
<g id="node14" class="node">
<title>Node14</title>
<g id="a_node14"><a xlink:href="../../d8/dc2/G4__FHCAL_8C.html" target="_top" xlink:title="G4_FHCAL.C">
<polygon fill="none" stroke="#ff0000" points="1019,-114.5 1019,-134.5 1098,-134.5 1098,-114.5 1019,-114.5"/>
<text text-anchor="middle" x="1058.5" y="-121.5" font-family="FreeSans" font-size="10.00" fill="#000000">G4_FHCAL.C</text>
</a>
</g>
</g>
<!-- Node7&#45;&gt;Node14 -->
<g id="edge29" class="edge">
<title>Node7&#45;&gt;Node14</title>
<path fill="none" stroke="#191970" d="M832.93,-297.4486C853.2173,-290.081 878.2122,-278.3104 895.5,-261 926.8263,-229.6328 905.9846,-201.1328 938.5,-171 958.0014,-152.9276 985.3022,-141.6092 1008.9375,-134.6707"/>
<polygon fill="#191970" stroke="#191970" points="1010.0937,-137.9828 1018.809,-131.9583 1008.2391,-131.233 1010.0937,-137.9828"/>
</g>
<!-- Node15 -->
<g id="node15" class="node">
<title>Node15</title>
<g id="a_node15"><a xlink:href="../../dc/dda/G4__HcalIn__ref_8C.html" target="_top" xlink:title="G4_HcalIn_ref.C">
<polygon fill="none" stroke="#ff0000" points="1378,-114.5 1378,-134.5 1473,-134.5 1473,-114.5 1378,-114.5"/>
<text text-anchor="middle" x="1425.5" y="-121.5" font-family="FreeSans" font-size="10.00" fill="#000000">G4_HcalIn_ref.C</text>
</a>
</g>
</g>
<!-- Node7&#45;&gt;Node15 -->
<g id="edge30" class="edge">
<title>Node7&#45;&gt;Node15</title>
<path fill="none" stroke="#191970" d="M859.1591,-302.9428C909.7828,-297.5146 983.0022,-285.8264 1042.5,-261 1066.3921,-251.0306 1067.5851,-240.047 1090.5,-228 1130.098,-207.1822 1142.9826,-208.6639 1184.5,-192 1206.8682,-183.0221 1211.6074,-178.5411 1234.5,-171 1278.5386,-156.4931 1329.6284,-144.2874 1367.8821,-136.0262"/>
<polygon fill="#191970" stroke="#191970" points="1368.7659,-139.4165 1377.8157,-133.9072 1367.3055,-132.5706 1368.7659,-139.4165"/>
</g>
<!-- Node16 -->
<g id="node16" class="node">
<title>Node16</title>
<g id="a_node16"><a xlink:href="../../d8/d93/G4__HcalOut__ref_8C.html" target="_top" xlink:title="G4_HcalOut_ref.C">
<polygon fill="none" stroke="#ff0000" points="1529.5,-114.5 1529.5,-134.5 1633.5,-134.5 1633.5,-114.5 1529.5,-114.5"/>
<text text-anchor="middle" x="1581.5" y="-121.5" font-family="FreeSans" font-size="10.00" fill="#000000">G4_HcalOut_ref.C</text>
</a>
</g>
</g>
<!-- Node7&#45;&gt;Node16 -->
<g id="edge34" class="edge">
<title>Node7&#45;&gt;Node16</title>
<path fill="none" stroke="#191970" d="M859.1791,-300.9975C929.8153,-292.8191 1041.7453,-277.7978 1080.5,-261 1102.6034,-251.4195 1102.2435,-239.3361 1123.5,-228 1140.9859,-218.6747 1273.2624,-175.757 1292.5,-171 1295.2592,-170.3177 1435.4144,-147.8617 1519.5045,-134.4103"/>
<polygon fill="#191970" stroke="#191970" points="1520.1468,-137.8522 1529.4685,-132.8166 1519.0411,-130.94 1520.1468,-137.8522"/>
</g>
<!-- Node17 -->
<g id="node17" class="node">
<title>Node17</title>
<g id="a_node17"><a xlink:href="../../da/d17/G4__Magnet_8C.html" target="_top" xlink:title="G4_Magnet.C">
<polygon fill="none" stroke="#ff0000" points="764.5,-171.5 764.5,-191.5 848.5,-191.5 848.5,-171.5 764.5,-171.5"/>
<text text-anchor="middle" x="806.5" y="-178.5" font-family="FreeSans" font-size="10.00" fill="#000000">G4_Magnet.C</text>
</a>
</g>
</g>
<!-- Node7&#45;&gt;Node17 -->
<g id="edge38" class="edge">
<title>Node7&#45;&gt;Node17</title>
<path fill="none" stroke="#191970" d="M752.8501,-297.4672C733.209,-290.6443 712.1253,-279.3836 700.5,-261 692.6611,-248.6039 692.4783,-240.2786 700.5,-228 712.6925,-209.3373 734.2222,-198.1173 754.7075,-191.3941"/>
<polygon fill="#191970" stroke="#191970" points="755.7383,-194.7391 764.3205,-188.5265 753.7373,-188.0312 755.7383,-194.7391"/>
</g>
<!-- Node18 -->
<g id="node18" class="node">
<title>Node18</title>
<g id="a_node18"><a xlink:href="../../da/df1/G4__Mvtx_8C.html" target="_top" xlink:title="G4_Mvtx.C">
<polygon fill="none" stroke="#ff0000" points="1753.5,-114.5 1753.5,-134.5 1823.5,-134.5 1823.5,-114.5 1753.5,-114.5"/>
<text text-anchor="middle" x="1788.5" y="-121.5" font-family="FreeSans" font-size="10.00" fill="#000000">G4_Mvtx.C</text>
</a>
</g>
</g>
<!-- Node7&#45;&gt;Node18 -->
<g id="edge41" class="edge">
<title>Node7&#45;&gt;Node18</title>
<path fill="none" stroke="#191970" d="M859.3117,-305.012C951.9342,-300.4773 1133.6305,-288.65 1285.5,-261 1461.079,-229.0333 1664.6811,-165.3002 1748.9065,-137.7235"/>
<polygon fill="#191970" stroke="#191970" points="1750.1697,-140.9926 1758.5762,-134.5443 1747.9833,-134.3428 1750.1697,-140.9926"/>
</g>
<!-- Node19 -->
<g id="node19" class="node">
<title>Node19</title>
<g id="a_node19"><a xlink:href="../../d1/df9/G4__Pipe_8C.html" target="_top" xlink:title="G4_Pipe.C">
<polygon fill="none" stroke="#ff0000" points="743,-114.5 743,-134.5 810,-134.5 810,-114.5 743,-114.5"/>
<text text-anchor="middle" x="776.5" y="-121.5" font-family="FreeSans" font-size="10.00" fill="#000000">G4_Pipe.C</text>
</a>
</g>
</g>
<!-- Node7&#45;&gt;Node19 -->
<g id="edge45" class="edge">
<title>Node7&#45;&gt;Node19</title>
<path fill="none" stroke="#191970" d="M745.4312,-297.4661C724.9966,-290.7348 703.6624,-279.5467 691.5,-261 663.3937,-218.1399 719.3184,-166.5501 753.202,-140.7957"/>
<polygon fill="#191970" stroke="#191970" points="755.7159,-143.2904 761.682,-134.535 751.5581,-137.6589 755.7159,-143.2904"/>
</g>
<!-- Node20 -->
<g id="node20" class="node">
<title>Node20</title>
<g id="a_node20"><a xlink:href="../../d6/d0a/G4__Piston_8C.html" target="_top" xlink:title="G4_Piston.C">
<polygon fill="none" stroke="#ff0000" points="596.5,-171.5 596.5,-191.5 672.5,-191.5 672.5,-171.5 596.5,-171.5"/>
<text text-anchor="middle" x="634.5" y="-178.5" font-family="FreeSans" font-size="10.00" fill="#000000">G4_Piston.C</text>
</a>
</g>
</g>
<!-- Node7&#45;&gt;Node20 -->
<g id="edge48" class="edge">
<title>Node7&#45;&gt;Node20</title>
<path fill="none" stroke="#191970" d="M737.7439,-298.5443C695.2005,-290.8865 643.6934,-278.3412 630.5,-261 617.6805,-244.1503 621.6372,-218.9957 626.8819,-201.5109"/>
<polygon fill="#191970" stroke="#191970" points="630.2919,-202.3523 630.1755,-191.7581 623.6599,-200.1126 630.2919,-202.3523"/>
</g>
<!-- Node21 -->
<g id="node21" class="node">
<title>Node21</title>
<g id="a_node21"><a xlink:href="../../d6/d2c/G4__PlugDoor__fsPHENIX_8C.html" target="_top" xlink:title="G4_PlugDoor_fsPHENIX.C">
<polygon fill="none" stroke="#ff0000" points="543,-114.5 543,-134.5 686,-134.5 686,-114.5 543,-114.5"/>
<text text-anchor="middle" x="614.5" y="-121.5" font-family="FreeSans" font-size="10.00" fill="#000000">G4_PlugDoor_fsPHENIX.C</text>
</a>
</g>
</g>
<!-- Node7&#45;&gt;Node21 -->
<g id="edge52" class="edge">
<title>Node7&#45;&gt;Node21</title>
<path fill="none" stroke="#191970" d="M737.7951,-297.6218C692.908,-289.268 636.5722,-276.2429 618.5,-261 586.1607,-233.7236 576.4999,-211.8513 587.5,-171 590.1806,-161.0451 595.5731,-151.0254 600.839,-142.8495"/>
<polygon fill="#191970" stroke="#191970" points="603.7959,-144.7265 606.5791,-134.5038 598.0284,-140.7597 603.7959,-144.7265"/>
</g>
<!-- Node22 -->
<g id="node22" class="node">
<title>Node22</title>
<g id="a_node22"><a xlink:href="../../d9/db8/G4__TPC_8C.html" target="_top" xlink:title="G4_TPC.C">
<polygon fill="none" stroke="#ff0000" points="1877,-234.5 1877,-254.5 1942,-254.5 1942,-234.5 1877,-234.5"/>
<text text-anchor="middle" x="1909.5" y="-241.5" font-family="FreeSans" font-size="10.00" fill="#000000">G4_TPC.C</text>
</a>
</g>
</g>
<!-- Node7&#45;&gt;Node22 -->
<g id="edge55" class="edge">
<title>Node7&#45;&gt;Node22</title>
<path fill="none" stroke="#191970" d="M859.2372,-306.0281C1070.9738,-300.7357 1769.0266,-281.8759 1867.5,-261 1870.9775,-260.2628 1874.5417,-259.2686 1878.0526,-258.1316"/>
<polygon fill="#191970" stroke="#191970" points="1879.4778,-261.338 1887.6901,-254.6441 1877.0959,-254.7557 1879.4778,-261.338"/>
</g>
<!-- Node7&#45;&gt;Node24 -->
<g id="edge65" class="edge">
<title>Node7&#45;&gt;Node24</title>
<path fill="none" stroke="#191970" d="M859.1429,-305.3332C1030.6347,-299.1454 1533.7563,-280.5762 1951.5,-261 2045.6603,-256.5875 2155.9078,-250.4723 2215.9547,-247.0614"/>
<polygon fill="#191970" stroke="#191970" points="2216.4285,-250.5401 2226.2133,-246.4772 2216.0305,-243.5515 2216.4285,-250.5401"/>
</g>
<!-- Node25 -->
<g id="node25" class="node">
<title>Node25</title>
<g id="a_node25"><a xlink:href="../../d0/d40/G4__World_8C.html" target="_top" xlink:title="G4_World.C">
<polygon fill="none" stroke="#000000" points="450,-114.5 450,-134.5 525,-134.5 525,-114.5 450,-114.5"/>
<text text-anchor="middle" x="487.5" y="-121.5" font-family="FreeSans" font-size="10.00" fill="#000000">G4_World.C</text>
</a>
</g>
</g>
<!-- Node7&#45;&gt;Node25 -->
<g id="edge67" class="edge">
<title>Node7&#45;&gt;Node25</title>
<path fill="none" stroke="#191970" d="M737.9831,-299.126C684.435,-290.8433 611.0905,-277.0974 586.5,-261 541.5845,-231.5975 510.2182,-174.2776 496.0369,-144.1231"/>
<polygon fill="#191970" stroke="#191970" points="499.0687,-142.3348 491.7435,-134.6802 492.6965,-145.2321 499.0687,-142.3348"/>
</g>
<!-- Node26 -->
<g id="node26" class="node">
<title>Node26</title>
<g id="a_node26"><a xlink:href="../../da/d58/PHG4DstCompressReco_8h.html" target="_top" xlink:title="g4eval/PHG4DstCompressReco.h">
<polygon fill="none" stroke="#ff0000" points="320.5,-234.5 320.5,-254.5 502.5,-254.5 502.5,-234.5 320.5,-234.5"/>
<text text-anchor="middle" x="411.5" y="-241.5" font-family="FreeSans" font-size="10.00" fill="#000000">g4eval/PHG4DstCompressReco.h</text>
</a>
</g>
</g>
<!-- Node7&#45;&gt;Node26 -->
<g id="edge70" class="edge">
<title>Node7&#45;&gt;Node26</title>
<path fill="none" stroke="#191970" d="M737.6055,-297.5869C668.5857,-286.3512 556.1959,-268.0552 483.0501,-256.1477"/>
<polygon fill="#191970" stroke="#191970" points="483.4304,-252.6636 472.9979,-254.5113 482.3056,-259.5727 483.4304,-252.6636"/>
</g>
<!-- Node27 -->
<g id="node27" class="node">
<title>Node27</title>
<g id="a_node27"><a xlink:href="../../de/d78/PHG4TruthSubsystem_8h.html" target="_top" xlink:title="g4main/PHG4TruthSubsystem.h">
<polygon fill="none" stroke="#ff0000" points="710,-234.5 710,-254.5 887,-254.5 887,-234.5 710,-234.5"/>
<text text-anchor="middle" x="798.5" y="-241.5" font-family="FreeSans" font-size="10.00" fill="#000000">g4main/PHG4TruthSubsystem.h</text>
</a>
</g>
</g>
<!-- Node7&#45;&gt;Node27 -->
<g id="edge72" class="edge">
<title>Node7&#45;&gt;Node27</title>
<path fill="none" stroke="#191970" d="M798.5,-297.378C798.5,-288.7041 798.5,-275.9355 798.5,-265.1186"/>
<polygon fill="#191970" stroke="#191970" points="802.0001,-264.8062 798.5,-254.8062 795.0001,-264.8062 802.0001,-264.8062"/>
</g>
<!-- Node7&#45;&gt;Node28 -->
<g id="edge74" class="edge">
<title>Node7&#45;&gt;Node28</title>
<path fill="none" stroke="#191970" d="M859.0816,-299.5282C923.5297,-290.8534 1028.4037,-276.181 1118.5,-261 1119.7649,-260.7869 1121.0399,-260.5699 1122.3228,-260.3495"/>
<polygon fill="#191970" stroke="#191970" points="1123.0373,-263.7776 1132.2817,-258.6015 1121.8272,-256.883 1123.0373,-263.7776"/>
</g>
<!-- Node9&#45;&gt;Node4 -->
<g id="edge11" class="edge">
<title>Node9&#45;&gt;Node4</title>
<path fill="none" stroke="#191970" d="M431.6555,-115.3341C434.6441,-114.8568 437.6105,-114.4071 440.5,-114 583.5415,-93.8455 752.0966,-79.5436 844.728,-72.4925"/>
<polygon fill="#191970" stroke="#191970" points="845.1122,-75.9735 854.8201,-71.7301 844.5848,-68.9934 845.1122,-75.9735"/>
</g>
<!-- Node10 -->
<g id="node10" class="node">
<title>Node10</title>
<g id="a_node10"><a xlink:href="../../de/d67/fun4all__macros_2blob_2master_2common_2GlobalVariables_8C.html" target="_top" xlink:title="GlobalVariables.C">
<polygon fill="none" stroke="#ff0000" points="1312,-57.5 1312,-77.5 1417,-77.5 1417,-57.5 1312,-57.5"/>
<text text-anchor="middle" x="1364.5" y="-64.5" font-family="FreeSans" font-size="10.00" fill="#000000">GlobalVariables.C</text>
</a>
</g>
</g>
<!-- Node9&#45;&gt;Node10 -->
<g id="edge10" class="edge">
<title>Node9&#45;&gt;Node10</title>
<path fill="none" stroke="#191970" d="M431.6346,-115.1719C434.6284,-114.7349 437.6016,-114.3384 440.5,-114 607.9529,-94.4496 1122.1028,-75.6946 1301.7531,-69.5768"/>
<polygon fill="#191970" stroke="#191970" points="1301.9569,-73.072 1311.8324,-69.2348 1301.7195,-66.076 1301.9569,-73.072"/>
</g>
<!-- Node11&#45;&gt;Node4 -->
<g id="edge14" class="edge">
<title>Node11&#45;&gt;Node4</title>
<path fill="none" stroke="#191970" d="M1246.9829,-115.4523C1243.7754,-114.9564 1240.5973,-114.4693 1237.5,-114 1150.3001,-100.7876 1049.7135,-86.4493 984.2654,-77.24"/>
<polygon fill="#191970" stroke="#191970" points="984.4604,-73.7331 974.0705,-75.807 983.4859,-80.665 984.4604,-73.7331"/>
</g>
<!-- Node11&#45;&gt;Node6 -->
<g id="edge15" class="edge">
<title>Node11&#45;&gt;Node6</title>
<path fill="none" stroke="#191970" d="M1360.3378,-115.129C1363.4335,-114.7213 1366.5027,-114.3411 1369.5,-114 1585.1542,-89.4558 1841.2066,-76.0984 1966.5742,-70.5797"/>
<polygon fill="#191970" stroke="#191970" points="1966.9956,-74.0647 1976.8338,-70.1328 1966.6909,-67.0714 1966.9956,-74.0647"/>
</g>
<!-- Node11&#45;&gt;Node10 -->
<g id="edge13" class="edge">
<title>Node11&#45;&gt;Node10</title>
<path fill="none" stroke="#191970" d="M1314.4056,-114.3095C1323.2534,-106.0419 1335.9164,-94.2093 1346.2968,-84.5096"/>
<polygon fill="#191970" stroke="#191970" points="1348.7719,-86.987 1353.6888,-77.6022 1343.9926,-81.8724 1348.7719,-86.987"/>
</g>
<!-- Node12&#45;&gt;Node4 -->
<g id="edge18" class="edge">
<title>Node12&#45;&gt;Node4</title>
<path fill="none" stroke="#191970" d="M1154.43,-116.8719C1108.0762,-107.3334 1028.1679,-90.8901 973.4001,-79.6202"/>
<polygon fill="#191970" stroke="#191970" points="973.9804,-76.1664 963.4801,-77.5789 972.5694,-83.0227 973.9804,-76.1664"/>
</g>
<!-- Node12&#45;&gt;Node6 -->
<g id="edge19" class="edge">
<title>Node12&#45;&gt;Node6</title>
<path fill="none" stroke="#191970" d="M1228.5581,-115.4829C1231.5721,-114.92 1234.5803,-114.4145 1237.5,-114 1376.8779,-94.2133 1793.7767,-76.8485 1966.8618,-70.2875"/>
<polygon fill="#191970" stroke="#191970" points="1967.0503,-73.783 1976.9111,-69.9083 1966.7863,-66.7879 1967.0503,-73.783"/>
</g>
<!-- Node12&#45;&gt;Node10 -->
<g id="edge17" class="edge">
<title>Node12&#45;&gt;Node10</title>
<path fill="none" stroke="#191970" d="M1222.0307,-114.4408C1250.4776,-105.0681 1293.0774,-91.0323 1324.2846,-80.7502"/>
<polygon fill="#191970" stroke="#191970" points="1325.5816,-84.008 1333.984,-77.5544 1323.391,-77.3596 1325.5816,-84.008"/>
</g>
<!-- Node13&#45;&gt;Node4 -->
<g id="edge27" class="edge">
<title>Node13&#45;&gt;Node4</title>
<path fill="none" stroke="#191970" d="M1032.0521,-171.3833C1009.923,-151.8273 961.0624,-108.6482 933.816,-84.57"/>
<polygon fill="#191970" stroke="#191970" points="935.9187,-81.7573 926.1077,-77.7579 931.2833,-87.0026 935.9187,-81.7573"/>
</g>
<!-- Node13&#45;&gt;Node6 -->
<g id="edge28" class="edge">
<title>Node13&#45;&gt;Node6</title>
<path fill="none" stroke="#191970" d="M1106.6706,-177.9054C1210.87,-171.4587 1414.0602,-156.5611 1482.5,-135 1500.9045,-129.2019 1502.0473,-119.6428 1520.5,-114 1601.7909,-89.1413 1842.2288,-75.8228 1966.776,-70.4239"/>
<polygon fill="#191970" stroke="#191970" points="1967.1576,-73.9108 1976.9991,-69.9872 1966.8588,-66.9172 1967.1576,-73.9108"/>
</g>
<!-- Node13&#45;&gt;Node10 -->
<g id="edge21" class="edge">
<title>Node13&#45;&gt;Node10</title>
<path fill="none" stroke="#191970" d="M1057.3704,-171.3757C1080.711,-154.5024 1127.0911,-121.7162 1145.5,-114 1195.8833,-92.8815 1256.9568,-80.9357 1301.7947,-74.4562"/>
<polygon fill="#191970" stroke="#191970" points="1302.5428,-77.8859 1311.9644,-73.0399 1301.5772,-70.9528 1302.5428,-77.8859"/>
</g>
<!-- Node13&#45;&gt;Node12 -->
<g id="edge22" class="edge">
<title>Node13&#45;&gt;Node12</title>
<path fill="none" stroke="#191970" d="M1069.6187,-171.4408C1093.5648,-162.2183 1129.2337,-148.4809 1155.8052,-138.2473"/>
<polygon fill="#191970" stroke="#191970" points="1157.0706,-141.5106 1165.1445,-134.6504 1154.5548,-134.9784 1157.0706,-141.5106"/>
</g>
<!-- Node13&#45;&gt;Node14 -->
<g id="edge23" class="edge">
<title>Node13&#45;&gt;Node14</title>
<path fill="none" stroke="#191970" d="M1046.1817,-171.3095C1048.1441,-163.8524 1050.8697,-153.4951 1053.2583,-144.4186"/>
<polygon fill="#191970" stroke="#191970" points="1056.6813,-145.1637 1055.8415,-134.6022 1049.9117,-143.3822 1056.6813,-145.1637"/>
</g>
<!-- Node14&#45;&gt;Node4 -->
<g id="edge25" class="edge">
<title>Node14&#45;&gt;Node4</title>
<path fill="none" stroke="#191970" d="M1033.0872,-114.4408C1009.8904,-105.2587 975.3876,-91.6013 949.5707,-81.3822"/>
<polygon fill="#191970" stroke="#191970" points="950.7294,-78.0766 940.1432,-77.6504 948.153,-84.5853 950.7294,-78.0766"/>
</g>
<!-- Node14&#45;&gt;Node6 -->
<g id="edge26" class="edge">
<title>Node14&#45;&gt;Node6</title>
<path fill="none" stroke="#191970" d="M1098.2869,-119.1181C1113.0873,-117.2691 1130.0392,-115.3317 1145.5,-114 1448.8243,-87.8734 1811.1431,-74.5676 1966.5454,-69.7111"/>
<polygon fill="#191970" stroke="#191970" points="1967.0396,-73.1976 1976.9265,-69.3896 1966.8229,-66.2009 1967.0396,-73.1976"/>
</g>
<!-- Node14&#45;&gt;Node10 -->
<g id="edge24" class="edge">
<title>Node14&#45;&gt;Node10</title>
<path fill="none" stroke="#191970" d="M1098.0107,-116.7721C1102.8892,-115.8313 1107.8082,-114.889 1112.5,-114 1177.0418,-101.7706 1250.9653,-88.1791 1301.9764,-78.8652"/>
<polygon fill="#191970" stroke="#191970" points="1302.6543,-82.2994 1311.8636,-77.0611 1301.3977,-75.4131 1302.6543,-82.2994"/>
</g>
<!-- Node15&#45;&gt;Node4 -->
<g id="edge32" class="edge">
<title>Node15&#45;&gt;Node4</title>
<path fill="none" stroke="#191970" d="M1377.8862,-115.2925C1375.0526,-114.8316 1372.2412,-114.3963 1369.5,-114 1233.6707,-94.3603 1073.8495,-80.044 984.3479,-72.8154"/>
<polygon fill="#191970" stroke="#191970" points="984.5663,-69.3217 974.3186,-72.0113 984.0069,-76.2993 984.5663,-69.3217"/>
</g>
<!-- Node15&#45;&gt;Node6 -->
<g id="edge33" class="edge">
<title>Node15&#45;&gt;Node6</title>
<path fill="none" stroke="#191970" d="M1473.1673,-116.0105C1478.0006,-115.2748 1482.8426,-114.5881 1487.5,-114 1658.1031,-92.4587 1859.4625,-78.4324 1966.8836,-71.8572"/>
<polygon fill="#191970" stroke="#191970" points="1967.2122,-75.3438 1976.9817,-71.2442 1966.788,-68.3567 1967.2122,-75.3438"/>
</g>
<!-- Node15&#45;&gt;Node10 -->
<g id="edge31" class="edge">
<title>Node15&#45;&gt;Node10</title>
<path fill="none" stroke="#191970" d="M1414.5944,-114.3095C1405.7466,-106.0419 1393.0836,-94.2093 1382.7032,-84.5096"/>
<polygon fill="#191970" stroke="#191970" points="1385.0074,-81.8724 1375.3112,-77.6022 1380.2281,-86.987 1385.0074,-81.8724"/>
</g>
<!-- Node16&#45;&gt;Node4 -->
<g id="edge36" class="edge">
<title>Node16&#45;&gt;Node4</title>
<path fill="none" stroke="#191970" d="M1529.3733,-118.7345C1514.2604,-117.1272 1497.7292,-115.4308 1482.5,-114 1303.0937,-97.1448 1091.476,-80.7372 984.2813,-72.6711"/>
<polygon fill="#191970" stroke="#191970" points="984.4722,-69.1757 974.2381,-71.9169 983.9479,-76.1561 984.4722,-69.1757"/>
</g>
<!-- Node16&#45;&gt;Node6 -->
<g id="edge37" class="edge">
<title>Node16&#45;&gt;Node6</title>
<path fill="none" stroke="#191970" d="M1633.5992,-118.0722C1714.8843,-108.0435 1872.3193,-88.6197 1966.6548,-76.9809"/>
<polygon fill="#191970" stroke="#191970" points="1967.2126,-80.4387 1976.7087,-75.7405 1966.3554,-73.4914 1967.2126,-80.4387"/>
</g>
<!-- Node16&#45;&gt;Node10 -->
<g id="edge35" class="edge">
<title>Node16&#45;&gt;Node10</title>
<path fill="none" stroke="#191970" d="M1543.2043,-114.4408C1506.8272,-104.8855 1451.9993,-90.4837 1412.6725,-80.1536"/>
<polygon fill="#191970" stroke="#191970" points="1413.3384,-76.7098 1402.7772,-77.5544 1411.5599,-83.4802 1413.3384,-76.7098"/>
</g>
<!-- Node17&#45;&gt;Node4 -->
<g id="edge40" class="edge">
<title>Node17&#45;&gt;Node4</title>
<path fill="none" stroke="#191970" d="M814.0405,-171.4981C824.4092,-157.9653 843.9048,-133.2976 862.5,-114 872.4791,-103.6439 884.3893,-92.89 894.2917,-84.3357"/>
<polygon fill="#191970" stroke="#191970" points="896.7092,-86.874 902.0511,-77.7244 892.1694,-81.5458 896.7092,-86.874"/>
</g>
<!-- Node17&#45;&gt;Node10 -->
<g id="edge39" class="edge">
<title>Node17&#45;&gt;Node10</title>
<path fill="none" stroke="#191970" d="M831.6908,-171.3864C869.631,-156.5548 943.9799,-129.0392 1009.5,-114 1110.4061,-90.8384 1230.2828,-78.1319 1301.7307,-72.0803"/>
<polygon fill="#191970" stroke="#191970" points="1302.2365,-75.5504 1311.9127,-71.2353 1301.6575,-68.5744 1302.2365,-75.5504"/>
</g>
<!-- Node18&#45;&gt;Node4 -->
<g id="edge43" class="edge">
<title>Node18&#45;&gt;Node4</title>
<path fill="none" stroke="#191970" d="M1753.4,-121.8965C1723.8294,-119.7222 1680.4047,-116.5735 1642.5,-114 1401.0656,-97.6079 1114.4732,-79.7806 984.6357,-71.7925"/>
<polygon fill="#191970" stroke="#191970" points="984.6321,-68.2858 974.4361,-71.1654 984.2025,-75.2726 984.6321,-68.2858"/>
</g>
<!-- Node18&#45;&gt;Node6 -->
<g id="edge44" class="edge">
<title>Node18&#45;&gt;Node6</title>
<path fill="none" stroke="#191970" d="M1823.6889,-116.6342C1866.2534,-107.1198 1938.4016,-90.9926 1988.3728,-79.8225"/>
<polygon fill="#191970" stroke="#191970" points="1989.3726,-83.1855 1998.3682,-77.5883 1987.8455,-76.3541 1989.3726,-83.1855"/>
</g>
<!-- Node18&#45;&gt;Node10 -->
<g id="edge42" class="edge">
<title>Node18&#45;&gt;Node10</title>
<path fill="none" stroke="#191970" d="M1753.3212,-117.0254C1747.7076,-115.9399 1741.9538,-114.8902 1736.5,-114 1628.2168,-96.3253 1501.2401,-81.7652 1427.14,-73.8816"/>
<polygon fill="#191970" stroke="#191970" points="1427.3551,-70.385 1417.0425,-72.8139 1426.619,-77.3462 1427.3551,-70.385"/>
</g>
<!-- Node19&#45;&gt;Node4 -->
<g id="edge47" class="edge">
<title>Node19&#45;&gt;Node4</title>
<path fill="none" stroke="#191970" d="M800.854,-114.4408C822.9862,-105.2992 855.8583,-91.7216 880.5631,-81.5174"/>
<polygon fill="#191970" stroke="#191970" points="882.0189,-84.703 889.9253,-77.6504 879.3465,-78.2332 882.0189,-84.703"/>
</g>
<!-- Node19&#45;&gt;Node10 -->
<g id="edge46" class="edge">
<title>Node19&#45;&gt;Node10</title>
<path fill="none" stroke="#191970" d="M810.2253,-121.2307C905.5236,-111.9926 1177.9061,-85.5882 1301.7939,-73.5787"/>
<polygon fill="#191970" stroke="#191970" points="1302.2673,-77.0493 1311.883,-72.6006 1301.5919,-70.0819 1302.2673,-77.0493"/>
</g>
<!-- Node20&#45;&gt;Node4 -->
<g id="edge51" class="edge">
<title>Node20&#45;&gt;Node4</title>
<path fill="none" stroke="#191970" d="M646.4754,-171.2666C664.3007,-156.5368 699.3859,-129.4371 733.5,-114 768.7428,-98.0521 810.4194,-86.8728 844.892,-79.4796"/>
<polygon fill="#191970" stroke="#191970" points="845.8007,-82.8656 854.877,-77.4 844.3734,-76.0126 845.8007,-82.8656"/>
</g>
<!-- Node20&#45;&gt;Node10 -->
<g id="edge49" class="edge">
<title>Node20&#45;&gt;Node10</title>
<path fill="none" stroke="#191970" d="M672.3253,-171.4533C728.6435,-156.8325 838.0509,-129.726 932.5,-114 1062.859,-92.2949 1217.1154,-78.5201 1301.5098,-71.9866"/>
<polygon fill="#191970" stroke="#191970" points="1301.9947,-75.4598 1311.6984,-71.2068 1301.4604,-68.4802 1301.9947,-75.4598"/>
</g>
<!-- Node20&#45;&gt;Node19 -->
<g id="edge50" class="edge">
<title>Node20&#45;&gt;Node19</title>
<path fill="none" stroke="#191970" d="M659.5599,-171.4408C682.4344,-162.2587 716.4581,-148.6013 741.9164,-138.3822"/>
<polygon fill="#191970" stroke="#191970" points="743.2366,-141.6237 751.213,-134.6504 740.6289,-135.1276 743.2366,-141.6237"/>
</g>
<!-- Node21&#45;&gt;Node4 -->
<g id="edge54" class="edge">
<title>Node21&#45;&gt;Node4</title>
<path fill="none" stroke="#191970" d="M667.4434,-114.4408C718.9879,-104.6473 797.3283,-89.7626 851.9275,-79.3888"/>
<polygon fill="#191970" stroke="#191970" points="852.6633,-82.8117 861.8342,-77.5065 851.3566,-75.9347 852.6633,-82.8117"/>
</g>
<!-- Node21&#45;&gt;Node10 -->
<g id="edge53" class="edge">
<title>Node21&#45;&gt;Node10</title>
<path fill="none" stroke="#191970" d="M686.223,-118.0027C701.8055,-116.6383 718.2025,-115.2385 733.5,-114 941.3334,-97.1739 1187.8877,-79.7342 1301.4683,-71.8422"/>
<polygon fill="#191970" stroke="#191970" points="1301.9782,-75.3153 1311.7118,-71.1313 1301.4934,-68.3321 1301.9782,-75.3153"/>
</g>
<!-- Node22&#45;&gt;Node4 -->
<g id="edge63" class="edge">
<title>Node22&#45;&gt;Node4</title>
<path fill="none" stroke="#191970" d="M1887.6932,-234.3415C1881.3177,-231.8116 1874.2465,-229.4186 1867.5,-228 1769.9962,-207.4984 1054.247,-247.5 971.5,-192 936.119,-168.2693 922.341,-116.7511 917.2588,-87.9798"/>
<polygon fill="#191970" stroke="#191970" points="920.6757,-87.1776 915.6644,-77.8429 913.7607,-88.2653 920.6757,-87.1776"/>
</g>
<!-- Node22&#45;&gt;Node6 -->
<g id="edge64" class="edge">
<title>Node22&#45;&gt;Node6</title>
<path fill="none" stroke="#191970" d="M1942.115,-238.4616C1968.5843,-231.7775 2004.6557,-218.2679 2024.5,-192 2047.5646,-161.4694 2047.9743,-114.501 2045.9245,-87.8353"/>
<polygon fill="#191970" stroke="#191970" points="2049.3965,-87.3758 2044.9543,-77.7572 2042.4287,-88.0466 2049.3965,-87.3758"/>
</g>
<!-- Node22&#45;&gt;Node10 -->
<g id="edge56" class="edge">
<title>Node22&#45;&gt;Node10</title>
<path fill="none" stroke="#191970" d="M1895.0567,-234.4631C1854.6827,-206.5876 1740.8411,-129.2696 1698.5,-114 1649.9272,-96.483 1509.7184,-81.0289 1427.2151,-73.1114"/>
<polygon fill="#191970" stroke="#191970" points="1427.4899,-69.6218 1417.2037,-72.1604 1426.8279,-76.5905 1427.4899,-69.6218"/>
</g>
<!-- Node22&#45;&gt;Node18 -->
<g id="edge62" class="edge">
<title>Node22&#45;&gt;Node18</title>
<path fill="none" stroke="#191970" d="M1899.1836,-234.2689C1878.4665,-213.7229 1831.6022,-167.246 1806.0005,-141.8559"/>
<polygon fill="#191970" stroke="#191970" points="1808.3552,-139.2618 1798.7903,-134.7052 1803.4261,-144.2321 1808.3552,-139.2618"/>
</g>
<!-- Node23 -->
<g id="node23" class="node">
<title>Node23</title>
<g id="a_node23"><a xlink:href="../../d6/d9e/G4__Intt_8C.html" target="_top" xlink:title="G4_Intt.C">
<polygon fill="none" stroke="#ff0000" points="1952,-171.5 1952,-191.5 2015,-191.5 2015,-171.5 1952,-171.5"/>
<text text-anchor="middle" x="1983.5" y="-178.5" font-family="FreeSans" font-size="10.00" fill="#000000">G4_Intt.C</text>
</a>
</g>
</g>
<!-- Node22&#45;&gt;Node23 -->
<g id="edge57" class="edge">
<title>Node22&#45;&gt;Node23</title>
<path fill="none" stroke="#191970" d="M1921.3894,-234.378C1932.7575,-224.6997 1950.1135,-209.9236 1963.5916,-198.449"/>
<polygon fill="#191970" stroke="#191970" points="1966.0488,-200.9537 1971.3943,-191.8062 1961.5111,-195.6237 1966.0488,-200.9537"/>
</g>
<!-- Node23&#45;&gt;Node4 -->
<g id="edge60" class="edge">
<title>Node23&#45;&gt;Node4</title>
<path fill="none" stroke="#191970" d="M1966.5779,-171.4108C1939.4069,-155.805 1883.8779,-126.3278 1832.5,-114 1750.9479,-94.4321 1184.3041,-75.6454 984.248,-69.552"/>
<polygon fill="#191970" stroke="#191970" points="984.2514,-66.0506 974.1499,-69.2457 984.0391,-73.0474 984.2514,-66.0506"/>
</g>
<!-- Node23&#45;&gt;Node6 -->
<g id="edge61" class="edge">
<title>Node23&#45;&gt;Node6</title>
<path fill="none" stroke="#191970" d="M1988.8246,-171.3833C1998.8066,-152.4174 2020.483,-111.2323 2033.3419,-86.8004"/>
<polygon fill="#191970" stroke="#191970" points="2036.5408,-88.2373 2038.1011,-77.7579 2030.3463,-84.977 2036.5408,-88.2373"/>
</g>
<!-- Node23&#45;&gt;Node10 -->
<g id="edge58" class="edge">
<title>Node23&#45;&gt;Node10</title>
<path fill="none" stroke="#191970" d="M1975.7229,-171.2742C1963.258,-155.7636 1937.1712,-126.7492 1907.5,-114 1864.291,-95.4338 1560.6752,-77.6587 1427.2006,-70.6445"/>
<polygon fill="#191970" stroke="#191970" points="1427.2917,-67.1445 1417.1228,-70.1183 1426.9267,-74.135 1427.2917,-67.1445"/>
</g>
<!-- Node23&#45;&gt;Node18 -->
<g id="edge59" class="edge">
<title>Node23&#45;&gt;Node18</title>
<path fill="none" stroke="#191970" d="M1951.7359,-172.2151C1919.3798,-162.7572 1868.9448,-148.0146 1832.6985,-137.4196"/>
<polygon fill="#191970" stroke="#191970" points="1833.4586,-133.9953 1822.8782,-134.549 1831.4946,-140.7142 1833.4586,-133.9953"/>
</g>
<!-- Node24&#45;&gt;Node6 -->
<g id="edge66" class="edge">
<title>Node24&#45;&gt;Node6</title>
<path fill="none" stroke="#191970" d="M2269.8131,-234.1625C2278.1237,-224.187 2289.699,-208.2455 2294.5,-192 2305.6587,-154.2415 2285.4911,-135.4898 2252.5,-114 2230.7093,-99.806 2170.3026,-87.2366 2120.0022,-78.7563"/>
<polygon fill="#191970" stroke="#191970" points="2120.5287,-75.2959 2110.0913,-77.1155 2119.3853,-82.2019 2120.5287,-75.2959"/>
</g>
<!-- Node25&#45;&gt;Node4 -->
<g id="edge69" class="edge">
<title>Node25&#45;&gt;Node4</title>
<path fill="none" stroke="#191970" d="M525.0917,-115.5876C527.9302,-115.0164 530.7564,-114.4792 533.5,-114 641.5541,-95.1255 768.1762,-81.2981 844.812,-73.831"/>
<polygon fill="#191970" stroke="#191970" points="845.2087,-77.309 854.8259,-72.8638 844.5357,-70.3415 845.2087,-77.309"/>
</g>
<!-- Node25&#45;&gt;Node10 -->
<g id="edge68" class="edge">
<title>Node25&#45;&gt;Node10</title>
<path fill="none" stroke="#191970" d="M525.0596,-115.3842C527.9055,-114.86 530.7422,-114.3891 533.5,-114 681.7913,-93.0787 1134.7625,-75.5511 1301.787,-69.6379"/>
<polygon fill="#191970" stroke="#191970" points="1302.026,-73.1317 1311.8966,-69.2818 1301.7796,-66.1361 1302.026,-73.1317"/>
</g>
<!-- Node28&#45;&gt;Node29 -->
<g id="edge75" class="edge">
<title>Node28&#45;&gt;Node29</title>
<path fill="none" stroke="#191970" d="M1247.0733,-228.4394C1274.3225,-218.1598 1309.2973,-204.9657 1335.2233,-195.1852"/>
<polygon fill="#191970" stroke="#191970" points="1336.5606,-198.4216 1344.6816,-191.6171 1334.0898,-191.8721 1336.5606,-198.4216"/>
</g>
<!-- Node30&#45;&gt;Node6 -->
<g id="edge80" class="edge">
<title>Node30&#45;&gt;Node6</title>
<path fill="none" stroke="#191970" d="M3381.4838,-115.6408C3376.7661,-115.0085 3372.0506,-114.4457 3367.5,-114 3123.0753,-90.0605 2365.0751,-73.7025 2120.4545,-68.9365"/>
<polygon fill="#191970" stroke="#191970" points="2120.3005,-65.433 2110.2345,-68.7384 2120.1647,-72.4317 2120.3005,-65.433"/>
</g>
<!-- Node30&#45;&gt;Node10 -->
<g id="edge78" class="edge">
<title>Node30&#45;&gt;Node10</title>
<path fill="none" stroke="#191970" d="M3381.3806,-123.091C3099.5583,-115.3232 1736.9862,-77.7668 1427.2367,-69.2292"/>
<polygon fill="#191970" stroke="#191970" points="1427.1856,-65.7266 1417.0929,-68.9496 1426.9926,-72.7239 1427.1856,-65.7266"/>
</g>
<!-- Node31 -->
<g id="node31" class="node">
<title>Node31</title>
<polygon fill="none" stroke="#bfbfbf" points="3210.5,-57.5 3210.5,-77.5 3370.5,-77.5 3370.5,-57.5 3210.5,-57.5"/>
<text text-anchor="middle" x="3290.5" y="-64.5" font-family="FreeSans" font-size="10.00" fill="#000000">calotrigger/CaloTriggerSim.h</text>
</g>
<!-- Node30&#45;&gt;Node31 -->
<g id="edge79" class="edge">
<title>Node30&#45;&gt;Node31</title>
<path fill="none" stroke="#191970" d="M3407.4401,-114.4408C3384.5656,-105.2587 3350.5419,-91.6013 3325.0836,-81.3822"/>
<polygon fill="#191970" stroke="#191970" points="3326.3711,-78.1276 3315.787,-77.6504 3323.7634,-84.6237 3326.3711,-78.1276"/>
</g>
<!-- Node32&#45;&gt;Node6 -->
<g id="edge94" class="edge">
<title>Node32&#45;&gt;Node6</title>
<path fill="none" stroke="#191970" d="M1704.0115,-303.0597C1791.7028,-296.9696 1929.2751,-284.0615 1975.5,-261 2035.7247,-230.954 2050.3196,-201.6746 2059.5,-135 2060.7731,-125.7539 2061.0395,-123.2055 2059.5,-114 2057.9752,-104.8822 2054.8778,-95.1584 2051.8109,-86.9725"/>
<polygon fill="#191970" stroke="#191970" points="2055.0223,-85.5764 2048.0632,-77.5875 2048.5214,-88.1725 2055.0223,-85.5764"/>
</g>
<!-- Node32&#45;&gt;Node10 -->
<g id="edge82" class="edge">
<title>Node32&#45;&gt;Node10</title>
<path fill="none" stroke="#191970" d="M1632.7675,-297.1479C1648.0793,-265.4411 1688.6562,-168.5178 1642.5,-114 1628.7315,-97.7372 1505.0044,-82.0783 1427.3219,-73.73"/>
<polygon fill="#191970" stroke="#191970" points="1427.4647,-70.2255 1417.1511,-72.6503 1426.7258,-77.1864 1427.4647,-70.2255"/>
</g>
<!-- Node32&#45;&gt;Node11 -->
<g id="edge83" class="edge">
<title>Node32&#45;&gt;Node11</title>
<path fill="none" stroke="#191970" d="M1616.0237,-297.1922C1606.0265,-288.0266 1591.321,-274.0874 1579.5,-261 1545.3497,-223.1911 1551.5861,-198.1909 1508.5,-171 1496.3447,-163.329 1421.5144,-147.4894 1365.7521,-136.44"/>
<polygon fill="#191970" stroke="#191970" points="1366.42,-133.0044 1355.9319,-134.5044 1365.0662,-139.8723 1366.42,-133.0044"/>
</g>
<!-- Node32&#45;&gt;Node12 -->
<g id="edge84" class="edge">
<title>Node32&#45;&gt;Node12</title>
<path fill="none" stroke="#191970" d="M1609.0803,-297.4978C1593.2989,-288.6349 1570.2213,-274.9664 1551.5,-261 1503.5735,-225.2459 1505.348,-196.9943 1451.5,-171 1367.5271,-130.4634 1334.3298,-152.1747 1238.6964,-135.0698"/>
<polygon fill="#191970" stroke="#191970" points="1239.0936,-131.583 1228.6177,-133.166 1237.7943,-138.4614 1239.0936,-131.583"/>
</g>
<!-- Node32&#45;&gt;Node13 -->
<g id="edge85" class="edge">
<title>Node32&#45;&gt;Node13</title>
<path fill="none" stroke="#191970" d="M1593.7398,-297.4508C1563.8217,-288.3958 1519.0323,-274.4736 1480.5,-261 1441.8549,-247.487 1434.1764,-238.091 1394.5,-228 1300.3858,-204.0636 1188.7594,-191.9616 1117.076,-186.2034"/>
<polygon fill="#191970" stroke="#191970" points="1117.0389,-182.6899 1106.7964,-185.3992 1116.4929,-189.6685 1117.0389,-182.6899"/>
</g>
<!-- Node32&#45;&gt;Node14 -->
<g id="edge86" class="edge">
<title>Node32&#45;&gt;Node14</title>
<path fill="none" stroke="#191970" d="M1550.8815,-298.9578C1504.5076,-292.15 1444.8087,-280.4377 1394.5,-261 1367.9089,-250.726 1366.569,-236.9394 1339.5,-228 1261.4764,-202.2332 1026.7008,-252.8644 971.5,-192 951.9466,-170.4404 986.4229,-150.6502 1017.5792,-138.1504"/>
<polygon fill="#191970" stroke="#191970" points="1018.9922,-141.3572 1027.0783,-134.5114 1016.488,-134.8205 1018.9922,-141.3572"/>
</g>
<!-- Node32&#45;&gt;Node15 -->
<g id="edge87" class="edge">
<title>Node32&#45;&gt;Node15</title>
<path fill="none" stroke="#191970" d="M1621.9011,-297.1988C1605.4313,-267.0257 1557.6077,-180.3762 1546.5,-171 1527.9994,-155.3833 1503.6797,-144.6802 1481.6988,-137.5188"/>
<polygon fill="#191970" stroke="#191970" points="1482.7079,-134.1674 1472.1206,-134.5678 1480.6468,-140.8571 1482.7079,-134.1674"/>
</g>
<!-- Node32&#45;&gt;Node16 -->
<g id="edge88" class="edge">
<title>Node32&#45;&gt;Node16</title>
<path fill="none" stroke="#191970" d="M1624.9613,-297.4005C1617.6429,-268.2859 1596.4016,-183.7823 1586.5845,-144.7276"/>
<polygon fill="#191970" stroke="#191970" points="1589.9198,-143.639 1584.0875,-134.7939 1583.131,-145.3455 1589.9198,-143.639"/>
</g>
<!-- Node32&#45;&gt;Node17 -->
<g id="edge90" class="edge">
<title>Node32&#45;&gt;Node17</title>
<path fill="none" stroke="#191970" d="M1550.8659,-298.1787C1498.3336,-290.7397 1427.4037,-278.6182 1366.5,-261 1329.158,-250.1977 1323.2965,-237.0849 1285.5,-228 1102.0455,-183.9042 1049.4597,-217.4178 862.5,-192 861.2319,-191.8276 859.949,-191.6458 858.656,-191.456"/>
<polygon fill="#191970" stroke="#191970" points="859.048,-187.9746 848.6236,-189.8674 857.9531,-194.8884 859.048,-187.9746"/>
</g>
<!-- Node32&#45;&gt;Node18 -->
<g id="edge91" class="edge">
<title>Node32&#45;&gt;Node18</title>
<path fill="none" stroke="#191970" d="M1636.3854,-297.4005C1662.4934,-267.7248 1739.2282,-180.5046 1772.6455,-142.521"/>
<polygon fill="#191970" stroke="#191970" points="1775.466,-144.6138 1779.4436,-134.7939 1770.2104,-139.99 1775.466,-144.6138"/>
</g>
<!-- Node32&#45;&gt;Node22 -->
<g id="edge92" class="edge">
<title>Node32&#45;&gt;Node22</title>
<path fill="none" stroke="#191970" d="M1697.0938,-297.4729C1745.4371,-289.6705 1811.0543,-277.4059 1867.5,-261 1870.488,-260.1315 1873.5598,-259.1354 1876.6175,-258.0721"/>
<polygon fill="#191970" stroke="#191970" points="1878.0521,-261.2732 1886.2164,-254.5209 1875.6233,-254.7081 1878.0521,-261.2732"/>
</g>
<!-- Node32&#45;&gt;Node23 -->
<g id="edge89" class="edge">
<title>Node32&#45;&gt;Node23</title>
<path fill="none" stroke="#191970" d="M1704.2166,-305.1683C1787.6654,-301.1552 1914.1706,-290.2919 1951.5,-261 1969.809,-246.6332 1977.6907,-220.142 1981.0521,-201.7069"/>
<polygon fill="#191970" stroke="#191970" points="1984.5315,-202.1072 1982.5839,-191.6929 1977.612,-201.0487 1984.5315,-202.1072"/>
</g>
<!-- Node33 -->
<g id="node33" class="node">
<title>Node33</title>
<g id="a_node33"><a xlink:href="../../d9/d70/PHG4DSTReader_8h.html" target="_top" xlink:title="g4eval/PHG4DSTReader.h">
<polygon fill="none" stroke="#ff0000" points="1712.5,-234.5 1712.5,-254.5 1858.5,-254.5 1858.5,-234.5 1712.5,-234.5"/>
<text text-anchor="middle" x="1785.5" y="-241.5" font-family="FreeSans" font-size="10.00" fill="#000000">g4eval/PHG4DSTReader.h</text>
</a>
</g>
</g>
<!-- Node32&#45;&gt;Node33 -->
<g id="edge93" class="edge">
<title>Node32&#45;&gt;Node33</title>
<path fill="none" stroke="#191970" d="M1652.8854,-297.378C1679.3754,-286.8155 1721.0935,-270.1811 1750.6571,-258.393"/>
<polygon fill="#191970" stroke="#191970" points="1752.1851,-261.5518 1760.1776,-254.5969 1749.5924,-255.0497 1752.1851,-261.5518"/>
</g>
<!-- Node34&#45;&gt;Node6 -->
<g id="edge103" class="edge">
<title>Node34&#45;&gt;Node6</title>
<path fill="none" stroke="#191970" d="M2815.7275,-298.3655C2818.689,-297.8607 2821.6348,-297.3981 2824.5,-297 2878.7914,-289.4575 3279.1825,-301.1478 3316.5,-261 3326.4853,-250.2574 3326.2006,-239.0004 3316.5,-228 3236.8537,-137.6813 2383.5082,-85.4299 2120.3337,-71.3768"/>
<polygon fill="#191970" stroke="#191970" points="2120.2766,-67.8689 2110.1051,-70.834 2119.9056,-74.8591 2120.2766,-67.8689"/>
</g>
<!-- Node35 -->
<g id="node35" class="node">
<title>Node35</title>
<g id="a_node35"><a xlink:href="../../d0/d45/ClusterJetInput_8h.html" target="_top" xlink:title="g4jets/ClusterJetInput.h">
<polygon fill="none" stroke="#ff0000" points="2924,-234.5 2924,-254.5 3059,-254.5 3059,-234.5 2924,-234.5"/>
<text text-anchor="middle" x="2991.5" y="-241.5" font-family="FreeSans" font-size="10.00" fill="#000000">g4jets/ClusterJetInput.h</text>
</a>
</g>
</g>
<!-- Node34&#45;&gt;Node35 -->
<g id="edge96" class="edge">
<title>Node34&#45;&gt;Node35</title>
<path fill="none" stroke="#191970" d="M2808.5255,-297.378C2846.1079,-286.517 2905.9055,-269.236 2946.8429,-257.4055"/>
<polygon fill="#191970" stroke="#191970" points="2947.9263,-260.7357 2956.5614,-254.5969 2945.9828,-254.0109 2947.9263,-260.7357"/>
</g>
<!-- Node36 -->
<g id="node36" class="node">
<title>Node36</title>
<g id="a_node36"><a xlink:href="../../d6/df8/FastJetAlgo_8h.html" target="_top" xlink:title="g4jets/FastJetAlgo.h">
<polygon fill="none" stroke="#ff0000" points="3077,-234.5 3077,-254.5 3192,-254.5 3192,-234.5 3077,-234.5"/>
<text text-anchor="middle" x="3134.5" y="-241.5" font-family="FreeSans" font-size="10.00" fill="#000000">g4jets/FastJetAlgo.h</text>
</a>
</g>
</g>
<!-- Node34&#45;&gt;Node36 -->
<g id="edge97" class="edge">
<title>Node34&#45;&gt;Node36</title>
<path fill="none" stroke="#191970" d="M2815.7655,-298.6065C2818.7179,-298.0443 2821.6513,-297.503 2824.5,-297 2932.4487,-277.9399 2960.9747,-282.319 3068.5,-261 3074.5824,-259.7941 3080.9458,-258.3888 3087.2191,-256.9167"/>
<polygon fill="#191970" stroke="#191970" points="3088.0506,-260.3166 3096.9499,-254.5674 3086.4077,-253.5121 3088.0506,-260.3166"/>
</g>
<!-- Node37 -->
<g id="node37" class="node">
<title>Node37</title>
<g id="a_node37"><a xlink:href="../../dc/d67/JetReco_8h.html" target="_top" xlink:title="simple jet reco using FastJet">
<polygon fill="none" stroke="#ff0000" points="3210,-234.5 3210,-254.5 3307,-254.5 3307,-234.5 3210,-234.5"/>
<text text-anchor="middle" x="3258.5" y="-241.5" font-family="FreeSans" font-size="10.00" fill="#000000">g4jets/JetReco.h</text>
</a>
</g>
</g>
<!-- Node34&#45;&gt;Node37 -->
<g id="edge98" class="edge">
<title>Node34&#45;&gt;Node37</title>
<path fill="none" stroke="#191970" d="M2815.738,-298.4383C2818.697,-297.9162 2821.6393,-297.4298 2824.5,-297 2990.9497,-271.9928 3036.1634,-292.5382 3201.5,-261 3206.8761,-259.9745 3212.4755,-258.6641 3217.9741,-257.2311"/>
<polygon fill="#191970" stroke="#191970" points="3218.981,-260.5842 3227.6927,-254.5546 3217.1223,-253.8355 3218.981,-260.5842"/>
</g>
<!-- Node38 -->
<g id="node38" class="node">
<title>Node38</title>
<g id="a_node38"><a xlink:href="../../da/da8/TowerJetInput_8h.html" target="_top" xlink:title="g4jets/TowerJetInput.h">
<polygon fill="none" stroke="#ff0000" points="2350.5,-234.5 2350.5,-254.5 2478.5,-254.5 2478.5,-234.5 2350.5,-234.5"/>
<text text-anchor="middle" x="2414.5" y="-241.5" font-family="FreeSans" font-size="10.00" fill="#000000">g4jets/TowerJetInput.h</text>
</a>
</g>
</g>
<!-- Node34&#45;&gt;Node38 -->
<g id="edge99" class="edge">
<title>Node34&#45;&gt;Node38</title>
<path fill="none" stroke="#191970" d="M2731.3538,-301.4003C2675.6143,-293.1558 2574.3993,-277.5699 2488.5,-261 2481.7268,-259.6935 2474.6256,-258.2304 2467.6145,-256.7296"/>
<polygon fill="#191970" stroke="#191970" points="2467.9714,-253.2254 2457.4556,-254.5177 2466.4821,-260.0651 2467.9714,-253.2254"/>
</g>
<!-- Node39 -->
<g id="node39" class="node">
<title>Node39</title>
<g id="a_node39"><a xlink:href="../../df/d12/TruthJetInput_8h.html" target="_top" xlink:title="g4jets/TruthJetInput.h">
<polygon fill="none" stroke="#ff0000" points="2497,-234.5 2497,-254.5 2622,-254.5 2622,-234.5 2497,-234.5"/>
<text text-anchor="middle" x="2559.5" y="-241.5" font-family="FreeSans" font-size="10.00" fill="#000000">g4jets/TruthJetInput.h</text>
</a>
</g>
</g>
<!-- Node34&#45;&gt;Node39 -->
<g id="edge100" class="edge">
<title>Node34&#45;&gt;Node39</title>
<path fill="none" stroke="#191970" d="M2739.1172,-297.378C2702.3024,-286.54 2643.7721,-269.3091 2603.5928,-257.4806"/>
<polygon fill="#191970" stroke="#191970" points="2604.3789,-254.0636 2593.7975,-254.5969 2602.402,-260.7786 2604.3789,-254.0636"/>
</g>
<!-- Node40 -->
<g id="node40" class="node">
<title>Node40</title>
<g id="a_node40"><a xlink:href="../../d6/d09/TrackJetInput_8h.html" target="_top" xlink:title="g4jets/TrackJetInput.h">
<polygon fill="none" stroke="#ff0000" points="2640,-234.5 2640,-254.5 2765,-254.5 2765,-234.5 2640,-234.5"/>
<text text-anchor="middle" x="2702.5" y="-241.5" font-family="FreeSans" font-size="10.00" fill="#000000">g4jets/TrackJetInput.h</text>
</a>
</g>
</g>
<!-- Node34&#45;&gt;Node40 -->
<g id="edge101" class="edge">
<title>Node34&#45;&gt;Node40</title>
<path fill="none" stroke="#191970" d="M2762.0926,-297.378C2751.1854,-287.6997 2734.533,-272.9236 2721.6013,-261.449"/>
<polygon fill="#191970" stroke="#191970" points="2723.9179,-258.8254 2714.1149,-254.8062 2719.2719,-264.0613 2723.9179,-258.8254"/>
</g>
<!-- Node41 -->
<g id="node41" class="node">
<title>Node41</title>
<g id="a_node41"><a xlink:href="../../d6/dd9/JetEvaluator_8h.html" target="_top" xlink:title="Compares reconstructed jets to truth jets.">
<polygon fill="none" stroke="#ff0000" points="2783,-234.5 2783,-254.5 2906,-254.5 2906,-234.5 2783,-234.5"/>
<text text-anchor="middle" x="2844.5" y="-241.5" font-family="FreeSans" font-size="10.00" fill="#000000">g4eval/JetEvaluator.h</text>
</a>
</g>
</g>
<!-- Node34&#45;&gt;Node41 -->
<g id="edge102" class="edge">
<title>Node34&#45;&gt;Node41</title>
<path fill="none" stroke="#191970" d="M2784.9074,-297.378C2795.8146,-287.6997 2812.467,-272.9236 2825.3987,-261.449"/>
<polygon fill="#191970" stroke="#191970" points="2827.7281,-264.0613 2832.8851,-254.8062 2823.0821,-258.8254 2827.7281,-264.0613"/>
</g>
<!-- Node43&#45;&gt;Node6 -->
<g id="edge110" class="edge">
<title>Node43&#45;&gt;Node6</title>
<path fill="none" stroke="#191970" d="M3501.2635,-115.3982C3498.3114,-114.8544 3495.3634,-114.3763 3492.5,-114 3223.4644,-78.6475 2379.6952,-69.8598 2120.2021,-67.9671"/>
<polygon fill="#191970" stroke="#191970" points="2120.1423,-64.4667 2110.1175,-67.8949 2120.0921,-71.4665 2120.1423,-64.4667"/>
</g>
<!-- Node43&#45;&gt;Node10 -->
<g id="edge106" class="edge">
<title>Node43&#45;&gt;Node10</title>
<path fill="none" stroke="#191970" d="M3501.2677,-115.3657C3498.3147,-114.8292 3495.3653,-114.3616 3492.5,-114 3439.9566,-107.3688 1774.1853,-75.3088 1427.3715,-68.695"/>
<polygon fill="#191970" stroke="#191970" points="1427.3241,-65.1936 1417.2592,-68.5022 1427.1906,-72.1923 1427.3241,-65.1936"/>
</g>
<!-- Node44 -->
<g id="node44" class="node">
<title>Node44</title>
<polygon fill="none" stroke="#bfbfbf" points="3720.5,-57.5 3720.5,-77.5 3852.5,-77.5 3852.5,-57.5 3720.5,-57.5"/>
<text text-anchor="middle" x="3786.5" y="-64.5" font-family="FreeSans" font-size="10.00" fill="#000000">phpythia6/PHPythia6.h</text>
</g>
<!-- Node43&#45;&gt;Node44 -->
<g id="edge107" class="edge">
<title>Node43&#45;&gt;Node44</title>
<path fill="none" stroke="#191970" d="M3573.7067,-116.2117C3615.5138,-106.6414 3684.6876,-90.8065 3732.7722,-79.7991"/>
<polygon fill="#191970" stroke="#191970" points="3733.7286,-83.1708 3742.6954,-77.5276 3732.1665,-76.3473 3733.7286,-83.1708"/>
</g>
<!-- Node45 -->
<g id="node45" class="node">
<title>Node45</title>
<polygon fill="none" stroke="#bfbfbf" points="3388.5,-57.5 3388.5,-77.5 3520.5,-77.5 3520.5,-57.5 3388.5,-57.5"/>
<text text-anchor="middle" x="3454.5" y="-64.5" font-family="FreeSans" font-size="10.00" fill="#000000">phpythia8/PHPythia8.h</text>
</g>
<!-- Node43&#45;&gt;Node45 -->
<g id="edge108" class="edge">
<title>Node43&#45;&gt;Node45</title>
<path fill="none" stroke="#191970" d="M3522.6613,-114.3095C3510.1503,-105.7177 3492.0331,-93.2758 3477.6215,-83.3786"/>
<polygon fill="#191970" stroke="#191970" points="3479.435,-80.3782 3469.2103,-77.6022 3475.4722,-86.1485 3479.435,-80.3782"/>
</g>
<!-- Node46 -->
<g id="node46" class="node">
<title>Node46</title>
<g id="a_node46"><a xlink:href="../../dd/de1/HepMCNodeReader_8h.html" target="_top" xlink:title="g4main/HepMCNodeReader.h">
<polygon fill="none" stroke="#ff0000" points="3538.5,-57.5 3538.5,-77.5 3702.5,-77.5 3702.5,-57.5 3538.5,-57.5"/>
<text text-anchor="middle" x="3620.5" y="-64.5" font-family="FreeSans" font-size="10.00" fill="#000000">g4main/HepMCNodeReader.h</text>
</a>
</g>
</g>
<!-- Node43&#45;&gt;Node46 -->
<g id="edge109" class="edge">
<title>Node43&#45;&gt;Node46</title>
<path fill="none" stroke="#191970" d="M3552.3387,-114.3095C3564.8497,-105.7177 3582.9669,-93.2758 3597.3785,-83.3786"/>
<polygon fill="#191970" stroke="#191970" points="3599.5278,-86.1485 3605.7897,-77.6022 3595.565,-80.3782 3599.5278,-86.1485"/>
</g>
<!-- Node47&#45;&gt;Node6 -->
<g id="edge116" class="edge">
<title>Node47&#45;&gt;Node6</title>
<path fill="none" stroke="#191970" d="M2111.6765,-304.9778C2172.8047,-300.4984 2278.4991,-288.8525 2303.5,-261 2330.2787,-231.1669 2319.1164,-209.9183 2309.5,-171 2302.6328,-143.208 2302.4549,-131.1063 2279.5,-114 2254.6124,-95.4534 2179.0548,-82.7671 2120.0633,-75.3886"/>
<polygon fill="#191970" stroke="#191970" points="2120.3548,-71.8983 2110.0045,-74.1613 2119.5069,-78.8468 2120.3548,-71.8983"/>
</g>
<!-- Node47&#45;&gt;Node10 -->
<g id="edge112" class="edge">
<title>Node47&#45;&gt;Node10</title>
<path fill="none" stroke="#191970" d="M2066.611,-297.1832C2064.0525,-272.8692 2054.7931,-211.0156 2024.5,-171 1996.5985,-134.1436 1981.2249,-129.0007 1937.5,-114 1844.5501,-82.1116 1555.5626,-71.7677 1427.1216,-68.6916"/>
<polygon fill="#191970" stroke="#191970" points="1427.1256,-65.1908 1417.0469,-68.4574 1426.9628,-72.1889 1427.1256,-65.1908"/>
</g>
<!-- Node47&#45;&gt;Node18 -->
<g id="edge114" class="edge">
<title>Node47&#45;&gt;Node18</title>
<path fill="none" stroke="#191970" d="M2052.9621,-297.2945C2031.0993,-282.0023 1988.384,-252.3385 1951.5,-228 1903.1159,-196.073 1845.721,-160.0518 1813.5671,-140.0363"/>
<polygon fill="#191970" stroke="#191970" points="1815.1565,-136.9032 1804.8159,-134.5962 1811.4608,-142.8482 1815.1565,-136.9032"/>
</g>
<!-- Node47&#45;&gt;Node22 -->
<g id="edge115" class="edge">
<title>Node47&#45;&gt;Node22</title>
<path fill="none" stroke="#191970" d="M2042.1146,-297.378C2015.6246,-286.8155 1973.9065,-270.1811 1944.3429,-258.393"/>
<polygon fill="#191970" stroke="#191970" points="1945.4076,-255.0497 1934.8224,-254.5969 1942.8149,-261.5518 1945.4076,-255.0497"/>
</g>
<!-- Node47&#45;&gt;Node23 -->
<g id="edge113" class="edge">
<title>Node47&#45;&gt;Node23</title>
<path fill="none" stroke="#191970" d="M2062.5178,-297.3571C2054.7561,-281.8932 2038.9525,-251.7169 2022.5,-228 2015.6536,-218.1307 2007.171,-207.8301 1999.867,-199.4395"/>
<polygon fill="#191970" stroke="#191970" points="2002.3166,-196.9269 1993.0602,-191.7723 1997.0818,-201.5742 2002.3166,-196.9269"/>
</g>
<!-- Node49&#45;&gt;Node10 -->
<g id="edge119" class="edge">
<title>Node49&#45;&gt;Node10</title>
<path fill="none" stroke="#191970" d="M2239.1553,-171.2045C2243.6789,-156.3973 2249.1266,-129.2022 2234.5,-114 2206.5696,-84.9706 1622.4958,-72.0524 1427.3556,-68.5356"/>
<polygon fill="#191970" stroke="#191970" points="1427.3206,-65.0345 1417.2598,-68.3558 1427.1959,-72.0334 1427.3206,-65.0345"/>
</g>
</g>
</svg>
