<?xml version="1.0" encoding="UTF-8" standalone="no"?>
<!DOCTYPE svg PUBLIC "-//W3C//DTD SVG 1.1//EN"
 "http://www.w3.org/Graphics/SVG/1.1/DTD/svg11.dtd">
<!-- Generated by graphviz version 2.40.1 (20161225.0304)
 -->
<!-- Title: CreateBoundaryLayer Pages: 1 -->
<svg width="922pt" height="341pt"
 viewBox="0.00 0.00 922.00 341.00" xmlns="http://www.w3.org/2000/svg" xmlns:xlink="http://www.w3.org/1999/xlink">
<g id="graph0" class="graph" transform="scale(1 1) rotate(0) translate(4 337)">
<title>CreateBoundaryLayer</title>
<!-- Node1 -->
<g id="node1" class="node">
<title>Node1</title>
<polygon fill="#bfbfbf" stroke="#000000" points="0,-215.5 0,-235.5 127,-235.5 127,-215.5 0,-215.5"/>
<text text-anchor="middle" x="63.5" y="-222.5" font-family="FreeSans" font-size="10.00" fill="#000000">CreateBoundaryLayer</text>
</g>
<!-- Node2 -->
<g id="node2" class="node">
<title>Node2</title>
<g id="a_node2"><a xlink:href="../../df/d28/namespacekdfinder.html#ab72d428625e99a2d7380eb7691c246c7" target="_top" xlink:title="kdfinder::abs">
<polygon fill="none" stroke="#000000" points="181.5,-311.5 181.5,-331.5 264.5,-331.5 264.5,-311.5 181.5,-311.5"/>
<text text-anchor="middle" x="223" y="-318.5" font-family="FreeSans" font-size="10.00" fill="#000000">kdfinder::abs</text>
</a>
</g>
</g>
<!-- Node1&#45;&gt;Node2 -->
<g id="edge1" class="edge">
<title>Node1&#45;&gt;Node2</title>
<path fill="none" stroke="#191970" d="M75.7735,-235.6508C93.9847,-250.3805 129.6121,-277.9431 163,-296.5 170.2228,-300.5144 178.2227,-304.2777 185.9642,-307.6051"/>
<polygon fill="#191970" stroke="#191970" points="184.6312,-310.8413 195.2094,-311.4353 187.3105,-304.3743 184.6312,-310.8413"/>
</g>
<!-- Node4 -->
<g id="node4" class="node">
<title>Node4</title>
<g id="a_node4"><a xlink:href="../../d6/d20/egmesh_8cpp.html#abd0cbec12ee6cc6e573ffa146914a952" target="_top" xlink:title="AllocateBoundary">
<polygon fill="none" stroke="#000000" points="331.5,-273.5 331.5,-293.5 438.5,-293.5 438.5,-273.5 331.5,-273.5"/>
<text text-anchor="middle" x="385" y="-280.5" font-family="FreeSans" font-size="10.00" fill="#000000">AllocateBoundary</text>
</a>
</g>
</g>
<!-- Node1&#45;&gt;Node4 -->
<g id="edge3" class="edge">
<title>Node1&#45;&gt;Node4</title>
<path fill="none" stroke="#191970" d="M88.8597,-235.5395C108.727,-243.0041 137.2249,-252.8392 163,-258.5 215.5415,-270.0394 276.3141,-276.4133 320.9765,-279.8317"/>
<polygon fill="#191970" stroke="#191970" points="320.8786,-283.3339 331.1087,-280.5778 321.3927,-276.3528 320.8786,-283.3339"/>
</g>
<!-- Node5 -->
<g id="node5" class="node">
<title>Node5</title>
<g id="a_node5"><a xlink:href="../../da/d23/msg__buffer_8cc.html#a98631211a4a8aee62f572375d5b637be" target="_top" xlink:title="printf">
<polygon fill="none" stroke="#000000" points="658,-175.5 658,-195.5 702,-195.5 702,-175.5 658,-175.5"/>
<text text-anchor="middle" x="680" y="-182.5" font-family="FreeSans" font-size="10.00" fill="#000000">printf</text>
</a>
</g>
</g>
<!-- Node1&#45;&gt;Node5 -->
<g id="edge8" class="edge">
<title>Node1&#45;&gt;Node5</title>
<path fill="none" stroke="#191970" d="M127.1781,-229.1762C139.079,-229.728 151.4153,-230.2091 163,-230.5 285.6473,-233.5796 602.9443,-226.2982 606,-225.5 624.5454,-220.6555 643.5259,-210.2642 657.6206,-201.2872"/>
<polygon fill="#191970" stroke="#191970" points="659.7127,-204.0999 666.1236,-195.6648 655.8517,-198.2609 659.7127,-204.0999"/>
</g>
<!-- Node6 -->
<g id="node6" class="node">
<title>Node6</title>
<g id="a_node6"><a xlink:href="../../d6/d20/egmesh_8cpp.html#ad362a1d80b0fa7b74444dcc86c54bf81" target="_top" xlink:title="GetElementSide">
<polygon fill="none" stroke="#000000" points="497.5,-195.5 497.5,-215.5 595.5,-215.5 595.5,-195.5 497.5,-195.5"/>
<text text-anchor="middle" x="546.5" y="-202.5" font-family="FreeSans" font-size="10.00" fill="#000000">GetElementSide</text>
</a>
</g>
</g>
<!-- Node1&#45;&gt;Node6 -->
<g id="edge5" class="edge">
<title>Node1&#45;&gt;Node6</title>
<path fill="none" stroke="#191970" d="M127.1405,-222.8648C221.1167,-218.9734 395.7233,-211.7433 487.1644,-207.957"/>
<polygon fill="#191970" stroke="#191970" points="487.5102,-211.4457 497.3568,-207.5349 487.2205,-204.4517 487.5102,-211.4457"/>
</g>
<!-- Node7 -->
<g id="node7" class="node">
<title>Node7</title>
<g id="a_node7"><a xlink:href="../../d6/d20/egmesh_8cpp.html#a5a0ec764558869aa8596801d42ec9b06" target="_top" xlink:title="GetMaxElementType">
<polygon fill="none" stroke="#000000" points="163,-157.5 163,-177.5 283,-177.5 283,-157.5 163,-157.5"/>
<text text-anchor="middle" x="223" y="-164.5" font-family="FreeSans" font-size="10.00" fill="#000000">GetMaxElementType</text>
</a>
</g>
</g>
<!-- Node1&#45;&gt;Node7 -->
<g id="edge7" class="edge">
<title>Node1&#45;&gt;Node7</title>
<path fill="none" stroke="#191970" d="M91.2828,-215.3972C117.3905,-205.9035 156.6591,-191.624 185.5291,-181.1258"/>
<polygon fill="#191970" stroke="#191970" points="187.0667,-184.291 195.2685,-177.5842 184.6744,-177.7124 187.0667,-184.291"/>
</g>
<!-- Node8 -->
<g id="node8" class="node">
<title>Node8</title>
<g id="a_node8"><a xlink:href="../../d6/d20/egmesh_8cpp.html#a4ccf7d0207dd53f94eb69c44bb25642e" target="_top" xlink:title="ReorderElements">
<polygon fill="none" stroke="#000000" points="171.5,-117.5 171.5,-137.5 274.5,-137.5 274.5,-117.5 171.5,-117.5"/>
<text text-anchor="middle" x="223" y="-124.5" font-family="FreeSans" font-size="10.00" fill="#000000">ReorderElements</text>
</a>
</g>
</g>
<!-- Node1&#45;&gt;Node8 -->
<g id="edge9" class="edge">
<title>Node1&#45;&gt;Node8</title>
<path fill="none" stroke="#191970" d="M74.0214,-215.4681C91.3421,-199.4114 127.492,-167.7894 163,-148.5 167.9095,-145.833 173.2236,-143.3996 178.5903,-141.2116"/>
<polygon fill="#191970" stroke="#191970" points="180.1311,-144.3702 188.2313,-137.5411 177.6403,-137.8283 180.1311,-144.3702"/>
</g>
<!-- Node3 -->
<g id="node3" class="node">
<title>Node3</title>
<g id="a_node3"><a xlink:href="../../d8/dc7/classkdfinder_1_1TVector.html#ac9649c7577f12a7502ed523260f4ee90" target="_top" xlink:title="kdfinder::TVector::mag">
<polygon fill="none" stroke="#000000" points="319,-312.5 319,-332.5 451,-332.5 451,-312.5 319,-312.5"/>
<text text-anchor="middle" x="385" y="-319.5" font-family="FreeSans" font-size="10.00" fill="#000000">kdfinder::TVector::mag</text>
</a>
</g>
</g>
<!-- Node2&#45;&gt;Node3 -->
<g id="edge2" class="edge">
<title>Node2&#45;&gt;Node3</title>
<path fill="none" stroke="#191970" d="M264.719,-321.7575C278.1251,-321.8403 293.4254,-321.9347 308.516,-322.0279"/>
<polygon fill="#191970" stroke="#191970" points="308.8825,-325.5301 318.904,-322.092 308.9258,-318.5302 308.8825,-325.5301"/>
</g>
<!-- Node4&#45;&gt;Node5 -->
<g id="edge4" class="edge">
<title>Node4&#45;&gt;Node5</title>
<path fill="none" stroke="#191970" d="M438.5648,-286.9994C485.059,-287.8673 553.0402,-283.797 606,-258.5 631.7924,-246.1799 653.9962,-221.1602 667.1786,-203.8719"/>
<polygon fill="#191970" stroke="#191970" points="670.1228,-205.7759 673.2211,-195.6442 664.4808,-201.6324 670.1228,-205.7759"/>
</g>
<!-- Node6&#45;&gt;Node5 -->
<g id="edge6" class="edge">
<title>Node6&#45;&gt;Node5</title>
<path fill="none" stroke="#191970" d="M595.8312,-198.1096C613.091,-195.5238 632.0215,-192.6878 647.5508,-190.3613"/>
<polygon fill="#191970" stroke="#191970" points="648.3252,-193.7844 657.6962,-188.8414 647.288,-186.8617 648.3252,-193.7844"/>
</g>
<!-- Node8&#45;&gt;Node5 -->
<g id="edge11" class="edge">
<title>Node8&#45;&gt;Node5</title>
<path fill="none" stroke="#191970" d="M274.7838,-135.2796C289.0982,-137.368 304.6431,-139.5785 319,-141.5 439.9763,-157.6914 584.1005,-174.5197 647.4272,-181.7901"/>
<polygon fill="#191970" stroke="#191970" points="647.2531,-185.2929 657.5865,-182.9539 648.0498,-178.3384 647.2531,-185.2929"/>
</g>
<!-- Node9 -->
<g id="node9" class="node">
<title>Node9</title>
<g id="a_node9"><a xlink:href="../../d6/d20/egmesh_8cpp.html#a30f9768108e0705ba9881149d79820d0" target="_top" xlink:title="CalculateIndexwidth">
<polygon fill="none" stroke="#000000" points="487,-117.5 487,-137.5 606,-137.5 606,-117.5 487,-117.5"/>
<text text-anchor="middle" x="546.5" y="-124.5" font-family="FreeSans" font-size="10.00" fill="#000000">CalculateIndexwidth</text>
</a>
</g>
</g>
<!-- Node8&#45;&gt;Node9 -->
<g id="edge10" class="edge">
<title>Node8&#45;&gt;Node9</title>
<path fill="none" stroke="#191970" d="M274.6172,-127.5C329.2531,-127.5 415.8152,-127.5 476.5552,-127.5"/>
<polygon fill="#191970" stroke="#191970" points="476.8265,-131.0001 486.8264,-127.5 476.8264,-124.0001 476.8265,-131.0001"/>
</g>
<!-- Node10 -->
<g id="node10" class="node">
<title>Node10</title>
<g id="a_node10"><a xlink:href="../../d6/d20/egmesh_8cpp.html#aca48a4a72d9905ce043f6ac60e940897" target="_top" xlink:title="ReorderAutomatic">
<polygon fill="none" stroke="#000000" points="331.5,-78.5 331.5,-98.5 438.5,-98.5 438.5,-78.5 331.5,-78.5"/>
<text text-anchor="middle" x="385" y="-85.5" font-family="FreeSans" font-size="10.00" fill="#000000">ReorderAutomatic</text>
</a>
</g>
</g>
<!-- Node8&#45;&gt;Node10 -->
<g id="edge12" class="edge">
<title>Node8&#45;&gt;Node10</title>
<path fill="none" stroke="#191970" d="M264.719,-117.4565C285.6939,-112.407 311.3055,-106.2413 333.4962,-100.8991"/>
<polygon fill="#191970" stroke="#191970" points="334.5193,-104.2528 343.4223,-98.5094 332.8809,-97.4473 334.5193,-104.2528"/>
</g>
<!-- Node11 -->
<g id="node11" class="node">
<title>Node11</title>
<g id="a_node11"><a xlink:href="../../d7/ddb/egutils_8cpp.html#abce5eb6e1a5a7651319af8f8c8844d2e" target="_top" xlink:title="SortIndex">
<polygon fill="none" stroke="#000000" points="514,-39.5 514,-59.5 579,-59.5 579,-39.5 514,-39.5"/>
<text text-anchor="middle" x="546.5" y="-46.5" font-family="FreeSans" font-size="10.00" fill="#000000">SortIndex</text>
</a>
</g>
</g>
<!-- Node8&#45;&gt;Node11 -->
<g id="edge23" class="edge">
<title>Node8&#45;&gt;Node11</title>
<path fill="none" stroke="#191970" d="M235.0914,-117.4308C252.4271,-103.6426 285.9156,-79.361 319,-68.5 380.966,-48.1576 457.2683,-46.1166 503.8732,-47.2541"/>
<polygon fill="#191970" stroke="#191970" points="503.8167,-50.7539 513.9187,-47.5602 504.03,-43.7572 503.8167,-50.7539"/>
</g>
<!-- Node10&#45;&gt;Node5 -->
<g id="edge14" class="edge">
<title>Node10&#45;&gt;Node5</title>
<path fill="none" stroke="#191970" d="M438.6739,-82.7865C485.2381,-80.1693 553.2605,-82.1062 606,-107.5 633.1923,-120.593 655.5543,-148.2608 668.3408,-166.8707"/>
<polygon fill="#191970" stroke="#191970" points="665.5492,-168.9951 673.9787,-175.4134 671.3916,-165.1393 665.5492,-168.9951"/>
</g>
<!-- Node10&#45;&gt;Node9 -->
<g id="edge13" class="edge">
<title>Node10&#45;&gt;Node9</title>
<path fill="none" stroke="#191970" d="M426.5903,-98.5435C447.5004,-103.593 473.0329,-109.7587 495.1552,-115.1009"/>
<polygon fill="#191970" stroke="#191970" points="494.5085,-118.5453 505.0507,-117.4906 496.1517,-111.7409 494.5085,-118.5453"/>
</g>
<!-- Node10&#45;&gt;Node11 -->
<g id="edge15" class="edge">
<title>Node10&#45;&gt;Node11</title>
<path fill="none" stroke="#191970" d="M426.5903,-78.4565C450.3874,-72.7099 480.1715,-65.5174 504.1022,-59.7385"/>
<polygon fill="#191970" stroke="#191970" points="505.0663,-63.1063 513.9653,-57.3567 503.4231,-56.3019 505.0663,-63.1063"/>
</g>
<!-- Node11&#45;&gt;Node5 -->
<g id="edge21" class="edge">
<title>Node11&#45;&gt;Node5</title>
<path fill="none" stroke="#191970" d="M579.3006,-59.3031C588.5621,-63.0827 598.2244,-68.0788 606,-74.5 636.9397,-100.0503 659.8941,-141.856 671.501,-166.2131"/>
<polygon fill="#191970" stroke="#191970" points="668.4089,-167.8661 675.7709,-175.4853 674.7671,-164.9381 668.4089,-167.8661"/>
</g>
<!-- Node12 -->
<g id="node12" class="node">
<title>Node12</title>
<g id="a_node12"><a xlink:href="../../d1/d72/EIC-IR1-XX-v01a_8C.html#a3fd818ea23ff1d99b471adf13ea99242" target="_top" xlink:title="ir">
<polygon fill="none" stroke="#000000" points="665.5,-78.5 665.5,-98.5 694.5,-98.5 694.5,-78.5 665.5,-78.5"/>
<text text-anchor="middle" x="680" y="-85.5" font-family="FreeSans" font-size="10.00" fill="#000000">ir</text>
</a>
</g>
</g>
<!-- Node11&#45;&gt;Node12 -->
<g id="edge16" class="edge">
<title>Node11&#45;&gt;Node12</title>
<path fill="none" stroke="#191970" d="M579.1578,-59.0405C602.7738,-65.9395 634.1725,-75.1122 655.621,-81.378"/>
<polygon fill="#191970" stroke="#191970" points="654.693,-84.7532 665.2732,-84.1978 656.6559,-78.034 654.693,-84.7532"/>
</g>
<!-- Node13 -->
<g id="node13" class="node">
<title>Node13</title>
<g id="a_node13"><a xlink:href="../../d7/ddb/egutils_8cpp.html#ab38575a4eddf2ba9c79e01a88e206b90" target="_top" xlink:title="ivector">
<polygon fill="none" stroke="#000000" points="654.5,-39.5 654.5,-59.5 705.5,-59.5 705.5,-39.5 654.5,-39.5"/>
<text text-anchor="middle" x="680" y="-46.5" font-family="FreeSans" font-size="10.00" fill="#000000">ivector</text>
</a>
</g>
</g>
<!-- Node11&#45;&gt;Node13 -->
<g id="edge17" class="edge">
<title>Node11&#45;&gt;Node13</title>
<path fill="none" stroke="#191970" d="M579.1578,-49.5C598.878,-49.5 624.025,-49.5 644.2736,-49.5"/>
<polygon fill="#191970" stroke="#191970" points="644.3611,-53.0001 654.3611,-49.5 644.3611,-46.0001 644.3611,-53.0001"/>
</g>
<!-- Node17 -->
<g id="node17" class="node">
<title>Node17</title>
<g id="a_node17"><a xlink:href="../../d7/ddb/egutils_8cpp.html#aee25e218394217a134e805ea09fb0fe9" target="_top" xlink:title="free_ivector">
<polygon fill="none" stroke="#000000" points="642,-.5 642,-20.5 718,-20.5 718,-.5 642,-.5"/>
<text text-anchor="middle" x="680" y="-7.5" font-family="FreeSans" font-size="10.00" fill="#000000">free_ivector</text>
</a>
</g>
</g>
<!-- Node11&#45;&gt;Node17 -->
<g id="edge22" class="edge">
<title>Node11&#45;&gt;Node17</title>
<path fill="none" stroke="#191970" d="M579.1578,-39.9595C596.1702,-34.9896 617.2215,-28.8398 635.6823,-23.4467"/>
<polygon fill="#191970" stroke="#191970" points="636.729,-26.7873 645.3463,-20.6235 634.7661,-20.0682 636.729,-26.7873"/>
</g>
<!-- Node14 -->
<g id="node14" class="node">
<title>Node14</title>
<g id="a_node14"><a xlink:href="../../d7/ddb/egutils_8cpp.html#a0669a7d0e70f2da34b4a11d9c669d6b6" target="_top" xlink:title="nrerror">
<polygon fill="none" stroke="#000000" points="773,-59.5 773,-79.5 824,-79.5 824,-59.5 773,-59.5"/>
<text text-anchor="middle" x="798.5" y="-66.5" font-family="FreeSans" font-size="10.00" fill="#000000">nrerror</text>
</a>
</g>
</g>
<!-- Node13&#45;&gt;Node14 -->
<g id="edge18" class="edge">
<title>Node13&#45;&gt;Node14</title>
<path fill="none" stroke="#191970" d="M705.7127,-53.8397C722.4058,-56.6571 744.3947,-60.3683 762.7765,-63.4707"/>
<polygon fill="#191970" stroke="#191970" points="762.3944,-66.9556 772.8374,-65.1688 763.5594,-60.0533 762.3944,-66.9556"/>
</g>
<!-- Node16 -->
<g id="node16" class="node">
<title>Node16</title>
<g id="a_node16"><a xlink:href="../../d5/d43/egutils_8h.html#a50f64d98f493ef40738dd15c82cc2f57" target="_top" xlink:title="MemoryUsage">
<polygon fill="none" stroke="#000000" points="754,-20.5 754,-40.5 843,-40.5 843,-20.5 754,-20.5"/>
<text text-anchor="middle" x="798.5" y="-27.5" font-family="FreeSans" font-size="10.00" fill="#000000">MemoryUsage</text>
</a>
</g>
</g>
<!-- Node13&#45;&gt;Node16 -->
<g id="edge20" class="edge">
<title>Node13&#45;&gt;Node16</title>
<path fill="none" stroke="#191970" d="M705.7127,-45.3773C716.8868,-43.5857 730.4338,-41.4136 743.6835,-39.2891"/>
<polygon fill="#191970" stroke="#191970" points="744.3937,-42.7201 753.7134,-37.681 743.2854,-35.8083 744.3937,-42.7201"/>
</g>
<!-- Node15 -->
<g id="node15" class="node">
<title>Node15</title>
<g id="a_node15"><a xlink:href="../../df/de8/cemc_8C.html#adf5c804dfce7a70e36dda02995fad481" target="_top" xlink:title="exit">
<polygon fill="none" stroke="#000000" points="879,-59.5 879,-79.5 914,-79.5 914,-59.5 879,-59.5"/>
<text text-anchor="middle" x="896.5" y="-66.5" font-family="FreeSans" font-size="10.00" fill="#000000">exit</text>
</a>
</g>
</g>
<!-- Node14&#45;&gt;Node15 -->
<g id="edge19" class="edge">
<title>Node14&#45;&gt;Node15</title>
<path fill="none" stroke="#191970" d="M824.2483,-69.5C837.9864,-69.5 854.899,-69.5 868.9066,-69.5"/>
<polygon fill="#191970" stroke="#191970" points="868.9513,-73.0001 878.9513,-69.5 868.9513,-66.0001 868.9513,-73.0001"/>
</g>
</g>
</svg>
