<?xml version="1.0" encoding="UTF-8" standalone="no"?>
<!DOCTYPE svg PUBLIC "-//W3C//DTD SVG 1.1//EN"
 "http://www.w3.org/Graphics/SVG/1.1/DTD/svg11.dtd">
<!-- Generated by graphviz version 2.40.1 (20161225.0304)
 -->
<!-- Title: GetElementSide Pages: 1 -->
<svg width="1073pt" height="933pt"
 viewBox="0.00 0.00 1073.00 932.57" xmlns="http://www.w3.org/2000/svg" xmlns:xlink="http://www.w3.org/1999/xlink">
<g id="graph0" class="graph" transform="scale(1 1) rotate(0) translate(4 928.5695)">
<title>GetElementSide</title>
<!-- Node1 -->
<g id="node1" class="node">
<title>Node1</title>
<polygon fill="#bfbfbf" stroke="#000000" points="0,-382.1898 0,-402.1898 98,-402.1898 98,-382.1898 0,-382.1898"/>
<text text-anchor="middle" x="49" y="-389.1898" font-family="FreeSans" font-size="10.00" fill="#000000">GetElementSide</text>
</g>
<!-- Node2 -->
<g id="node2" class="node">
<title>Node2</title>
<g id="a_node2"><a xlink:href="../../d1/dbd/egmain_8cpp.html#a2e07fc499395790fb75d916676184832" target="_top" xlink:title="ConvertEgTypeToMeshType">
<polygon fill="none" stroke="#000000" points="775,-786.1898 775,-806.1898 928,-806.1898 928,-786.1898 775,-786.1898"/>
<text text-anchor="middle" x="851.5" y="-793.1898" font-family="FreeSans" font-size="10.00" fill="#000000">ConvertEgTypeToMeshType</text>
</a>
</g>
</g>
<!-- Node1&#45;&gt;Node2 -->
<g id="edge1" class="edge">
<title>Node1&#45;&gt;Node2</title>
<path fill="none" stroke="#191970" d="M50.0664,-412.6447C54.4876,-488.8962 74.0473,-754.9931 134,-809.1898 334.0428,-990.027 477.161,-919.6842 739,-855.1898 777.5456,-845.6956 817.5047,-820.3839 837.8333,-806.1919"/>
<polygon fill="#191970" stroke="#191970" points="53.5498,-412.2479 49.5018,-402.4569 46.5606,-412.6353 53.5498,-412.2479"/>
</g>
<!-- Node4 -->
<g id="node4" class="node">
<title>Node4</title>
<g id="a_node4"><a xlink:href="../../d7/d84/egmesh_8h.html#a07accc2214afbc82db03d18c05b73628" target="_top" xlink:title="CreateBoundaryLayer">
<polygon fill="none" stroke="#000000" points="387.5,-359.1898 387.5,-379.1898 514.5,-379.1898 514.5,-359.1898 387.5,-359.1898"/>
<text text-anchor="middle" x="451" y="-366.1898" font-family="FreeSans" font-size="10.00" fill="#000000">CreateBoundaryLayer</text>
</a>
</g>
</g>
<!-- Node1&#45;&gt;Node4 -->
<g id="edge3" class="edge">
<title>Node1&#45;&gt;Node4</title>
<path fill="none" stroke="#191970" d="M108.4705,-388.7873C183.1638,-384.5138 310.7931,-377.2116 387.3851,-372.8295"/>
<polygon fill="#191970" stroke="#191970" points="108.0768,-385.304 98.2931,-389.3696 108.4767,-392.2926 108.0768,-385.304"/>
</g>
<!-- Node6 -->
<g id="node6" class="node">
<title>Node6</title>
<g id="a_node6"><a xlink:href="../../d7/d84/egmesh_8h.html#acf0a0ccd925b5cf18fbb32e67b0aa313" target="_top" xlink:title="CreateBoundaryLayerDivide">
<polygon fill="none" stroke="#000000" points="372,-315.1898 372,-335.1898 530,-335.1898 530,-315.1898 372,-315.1898"/>
<text text-anchor="middle" x="451" y="-322.1898" font-family="FreeSans" font-size="10.00" fill="#000000">CreateBoundaryLayerDivide</text>
</a>
</g>
</g>
<!-- Node1&#45;&gt;Node6 -->
<g id="edge6" class="edge">
<title>Node1&#45;&gt;Node6</title>
<path fill="none" stroke="#191970" d="M101.0405,-379.9555C111.9032,-377.571 123.3034,-375.1927 134,-373.1898 215.9301,-357.8493 310.4792,-344.0314 374.8493,-335.204"/>
<polygon fill="#191970" stroke="#191970" points="100.2507,-376.5455 91.2511,-382.1364 101.773,-383.378 100.2507,-376.5455"/>
</g>
<!-- Node7 -->
<g id="node7" class="node">
<title>Node7</title>
<g id="a_node7"><a xlink:href="../../d7/d84/egmesh_8h.html#a5c74ddc1671a6a60502a58fa16b517e0" target="_top" xlink:title="CreateKnotsExtruded">
<polygon fill="none" stroke="#000000" points="389,-267.1898 389,-287.1898 513,-287.1898 513,-267.1898 389,-267.1898"/>
<text text-anchor="middle" x="451" y="-274.1898" font-family="FreeSans" font-size="10.00" fill="#000000">CreateKnotsExtruded</text>
</a>
</g>
</g>
<!-- Node1&#45;&gt;Node7 -->
<g id="edge8" class="edge">
<title>Node1&#45;&gt;Node7</title>
<path fill="none" stroke="#191970" d="M56.6512,-372.7217C68.5399,-345.5165 94.2951,-297.2161 134,-277.1898 225.8884,-230.8433 352.6799,-252.2062 414.353,-267.089"/>
<polygon fill="#191970" stroke="#191970" points="53.3953,-371.436 52.7735,-382.0126 59.8552,-374.1322 53.3953,-371.436"/>
</g>
<!-- Node8 -->
<g id="node8" class="node">
<title>Node8</title>
<g id="a_node8"><a xlink:href="../../d7/d84/egmesh_8h.html#a81611ba79f369737e2bb3766c8eaf5f6" target="_top" xlink:title="ElementsToBoundaryConditions">
<polygon fill="none" stroke="#000000" points="134,-597.1898 134,-617.1898 311,-617.1898 311,-597.1898 134,-597.1898"/>
<text text-anchor="middle" x="222.5" y="-604.1898" font-family="FreeSans" font-size="10.00" fill="#000000">ElementsToBoundaryConditions</text>
</a>
</g>
</g>
<!-- Node1&#45;&gt;Node8 -->
<g id="edge10" class="edge">
<title>Node1&#45;&gt;Node8</title>
<path fill="none" stroke="#191970" d="M51.6313,-412.3449C57.9837,-452.4437 78.0056,-542.3004 134,-588.1898 138.3756,-591.7758 143.2707,-594.7289 148.4526,-597.1563"/>
<polygon fill="#191970" stroke="#191970" points="55.0618,-411.6136 50.1558,-402.2231 48.135,-412.6234 55.0618,-411.6136"/>
</g>
<!-- Node17 -->
<g id="node17" class="node">
<title>Node17</title>
<g id="a_node17"><a xlink:href="../../d7/d84/egmesh_8h.html#a5a59ec71d1dd8dfd9b7cacc96ef917b6" target="_top" xlink:title="ElementsToTriangles">
<polygon fill="none" stroke="#000000" points="391,-19.1898 391,-39.1898 511,-39.1898 511,-19.1898 391,-19.1898"/>
<text text-anchor="middle" x="451" y="-26.1898" font-family="FreeSans" font-size="10.00" fill="#000000">ElementsToTriangles</text>
</a>
</g>
</g>
<!-- Node1&#45;&gt;Node17 -->
<g id="edge25" class="edge">
<title>Node1&#45;&gt;Node17</title>
<path fill="none" stroke="#191970" d="M50.8667,-371.598C57.5063,-303.3847 82.391,-86.7203 134,-44.1898 216.0613,23.4361 354.5643,-2.3796 417.7639,-19.1813"/>
<polygon fill="#191970" stroke="#191970" points="47.3512,-371.5991 49.896,-381.8837 54.3202,-372.2569 47.3512,-371.5991"/>
</g>
<!-- Node18 -->
<g id="node18" class="node">
<title>Node18</title>
<g id="a_node18"><a xlink:href="../../d7/d84/egmesh_8h.html#a94d856ce3c3423f8ea186554e17e9f7a" target="_top" xlink:title="FindBoundaryBoundary">
<polygon fill="none" stroke="#000000" points="155,-519.1898 155,-539.1898 290,-539.1898 290,-519.1898 155,-519.1898"/>
<text text-anchor="middle" x="222.5" y="-526.1898" font-family="FreeSans" font-size="10.00" fill="#000000">FindBoundaryBoundary</text>
</a>
</g>
</g>
<!-- Node1&#45;&gt;Node18 -->
<g id="edge27" class="edge">
<title>Node1&#45;&gt;Node18</title>
<path fill="none" stroke="#191970" d="M57.5063,-411.7785C70.1485,-438.4515 96.5015,-485.6748 134,-510.1898 140.3135,-514.3174 147.3708,-517.5651 154.671,-520.1178"/>
<polygon fill="#191970" stroke="#191970" points="60.5373,-409.9896 53.2026,-402.3441 54.1686,-412.8948 60.5373,-409.9896"/>
</g>
<!-- Node20 -->
<g id="node20" class="node">
<title>Node20</title>
<g id="a_node20"><a xlink:href="../../d6/d20/egmesh_8cpp.html#a8e954197a1151cc98afb88eb976444e2" target="_top" xlink:title="FindEdges">
<polygon fill="none" stroke="#000000" points="188.5,-480.1898 188.5,-500.1898 256.5,-500.1898 256.5,-480.1898 188.5,-480.1898"/>
<text text-anchor="middle" x="222.5" y="-487.1898" font-family="FreeSans" font-size="10.00" fill="#000000">FindEdges</text>
</a>
</g>
</g>
<!-- Node1&#45;&gt;Node20 -->
<g id="edge30" class="edge">
<title>Node1&#45;&gt;Node20</title>
<path fill="none" stroke="#191970" d="M63.3817,-410.3721C78.8463,-428.6322 105.1315,-456.155 134,-471.1898 150.7253,-479.9005 171.2164,-484.6197 188.2679,-487.1755"/>
<polygon fill="#191970" stroke="#191970" points="65.7524,-407.7448 56.6954,-402.2474 60.3474,-412.1929 65.7524,-407.7448"/>
</g>
<!-- Node21 -->
<g id="node21" class="node">
<title>Node21</title>
<g id="a_node21"><a xlink:href="../../d7/d84/egmesh_8h.html#a1fba54575eb2ebab763729440bc5212e" target="_top" xlink:title="FindNewBoundaries">
<polygon fill="none" stroke="#000000" points="164.5,-441.1898 164.5,-461.1898 280.5,-461.1898 280.5,-441.1898 164.5,-441.1898"/>
<text text-anchor="middle" x="222.5" y="-448.1898" font-family="FreeSans" font-size="10.00" fill="#000000">FindNewBoundaries</text>
</a>
</g>
</g>
<!-- Node1&#45;&gt;Node21 -->
<g id="edge31" class="edge">
<title>Node1&#45;&gt;Node21</title>
<path fill="none" stroke="#191970" d="M76.3859,-407.0374C92.7275,-415.3961 114.1079,-425.4726 134,-432.1898 144.2732,-435.6589 155.4378,-438.6383 166.2669,-441.1398"/>
<polygon fill="#191970" stroke="#191970" points="77.8814,-403.8701 67.3958,-402.3529 74.6467,-410.0779 77.8814,-403.8701"/>
</g>
<!-- Node22 -->
<g id="node22" class="node">
<title>Node22</title>
<g id="a_node22"><a xlink:href="../../d7/d84/egmesh_8h.html#a3a1a85a8ed439c2b5ecd7db71daa2f0f" target="_top" xlink:title="FindParentSide">
<polygon fill="none" stroke="#000000" points="177,-402.1898 177,-422.1898 268,-422.1898 268,-402.1898 177,-402.1898"/>
<text text-anchor="middle" x="222.5" y="-409.1898" font-family="FreeSans" font-size="10.00" fill="#000000">FindParentSide</text>
</a>
</g>
</g>
<!-- Node1&#45;&gt;Node22 -->
<g id="edge33" class="edge">
<title>Node1&#45;&gt;Node22</title>
<path fill="none" stroke="#191970" d="M108.3554,-399.032C130.8129,-401.6207 155.9999,-404.5241 176.9893,-406.9437"/>
<polygon fill="#191970" stroke="#191970" points="108.5891,-395.5358 98.254,-397.8675 107.7874,-402.4898 108.5891,-395.5358"/>
</g>
<!-- Node23 -->
<g id="node23" class="node">
<title>Node23</title>
<g id="a_node23"><a xlink:href="../../d2/d83/egconvert_8cpp.html#ac8ccaf6dc529d6acda7c2352fccde441" target="_top" xlink:title="FindPointParents">
<polygon fill="none" stroke="#000000" points="401,-786.1898 401,-806.1898 501,-806.1898 501,-786.1898 401,-786.1898"/>
<text text-anchor="middle" x="451" y="-793.1898" font-family="FreeSans" font-size="10.00" fill="#000000">FindPointParents</text>
</a>
</g>
</g>
<!-- Node1&#45;&gt;Node23 -->
<g id="edge34" class="edge">
<title>Node1&#45;&gt;Node23</title>
<path fill="none" stroke="#191970" d="M50.4746,-412.6359C56.1005,-484.4323 78.7461,-723.2696 134,-771.1898 212.4068,-839.19 346.6138,-820.7976 412.3792,-806.2288"/>
<polygon fill="#191970" stroke="#191970" points="53.9342,-411.9678 49.6906,-402.26 46.9541,-412.4953 53.9342,-411.9678"/>
</g>
<!-- Node26 -->
<g id="node26" class="node">
<title>Node26</title>
<g id="a_node26"><a xlink:href="../../d8/dbd/egconvert_8h.html#aa4c64ee63fcf7ac26154b53d04f81a2e" target="_top" xlink:title="LoadGidInput">
<polygon fill="none" stroke="#000000" points="623,-747.1898 623,-767.1898 707,-767.1898 707,-747.1898 623,-747.1898"/>
<text text-anchor="middle" x="665" y="-754.1898" font-family="FreeSans" font-size="10.00" fill="#000000">LoadGidInput</text>
</a>
</g>
</g>
<!-- Node1&#45;&gt;Node26 -->
<g id="edge39" class="edge">
<title>Node1&#45;&gt;Node26</title>
<path fill="none" stroke="#191970" d="M52.2906,-412.4231C62.3333,-471.7678 94.3339,-643.6201 134,-682.1898 203.336,-749.6094 509.8372,-756.9966 622.9108,-757.3863"/>
<polygon fill="#191970" stroke="#191970" points="55.7196,-411.707 50.6263,-402.4168 48.8145,-412.8555 55.7196,-411.707"/>
</g>
<!-- Node27 -->
<g id="node27" class="node">
<title>Node27</title>
<g id="a_node27"><a xlink:href="../../d8/dbd/egconvert_8h.html#a642110ebda5e6d65495bccad52deefb4" target="_top" xlink:title="LoadTriangleInput">
<polygon fill="none" stroke="#000000" points="611.5,-708.1898 611.5,-728.1898 718.5,-728.1898 718.5,-708.1898 611.5,-708.1898"/>
<text text-anchor="middle" x="665" y="-715.1898" font-family="FreeSans" font-size="10.00" fill="#000000">LoadTriangleInput</text>
</a>
</g>
</g>
<!-- Node1&#45;&gt;Node27 -->
<g id="edge41" class="edge">
<title>Node1&#45;&gt;Node27</title>
<path fill="none" stroke="#191970" d="M49.8905,-412.6067C53.0702,-458.6627 67.601,-570.9882 134,-627.1898 272.6773,-744.5695 506.63,-736.2106 611.4252,-725.3486"/>
<polygon fill="#191970" stroke="#191970" points="53.3719,-412.1818 49.3021,-402.3998 46.3836,-412.5847 53.3719,-412.1818"/>
</g>
<!-- Node28 -->
<g id="node28" class="node">
<title>Node28</title>
<g id="a_node28"><a xlink:href="../../d7/d84/egmesh_8h.html#a99189bd69fb7c3ac7f28cc2aee2a369f" target="_top" xlink:title="MergeBoundaries">
<polygon fill="none" stroke="#000000" points="170,-53.1898 170,-73.1898 275,-73.1898 275,-53.1898 170,-53.1898"/>
<text text-anchor="middle" x="222.5" y="-60.1898" font-family="FreeSans" font-size="10.00" fill="#000000">MergeBoundaries</text>
</a>
</g>
</g>
<!-- Node1&#45;&gt;Node28 -->
<g id="edge43" class="edge">
<title>Node1&#45;&gt;Node28</title>
<path fill="none" stroke="#191970" d="M51.8525,-371.8057C60.9631,-309.6016 91.2875,-123.9738 134,-83.1898 143.6837,-73.9434 156.6935,-68.6322 169.753,-65.6625"/>
<polygon fill="#191970" stroke="#191970" points="48.3569,-371.5255 50.4,-381.9215 55.2859,-372.5205 48.3569,-371.5255"/>
</g>
<!-- Node30 -->
<g id="node30" class="node">
<title>Node30</title>
<g id="a_node30"><a xlink:href="../../d7/d84/egmesh_8h.html#a73222f8d576541f37887dd26f9b55fec" target="_top" xlink:title="RemoveLowerDimensionalBoundaries">
<polygon fill="none" stroke="#000000" points="347,-210.1898 347,-230.1898 555,-230.1898 555,-210.1898 347,-210.1898"/>
<text text-anchor="middle" x="451" y="-217.1898" font-family="FreeSans" font-size="10.00" fill="#000000">RemoveLowerDimensionalBoundaries</text>
</a>
</g>
</g>
<!-- Node1&#45;&gt;Node30 -->
<g id="edge46" class="edge">
<title>Node1&#45;&gt;Node30</title>
<path fill="none" stroke="#191970" d="M53.9999,-372.1044C63.4104,-339.0027 87.1599,-273.7208 134,-244.1898 215.0036,-193.1201 331.815,-200.2501 398.691,-210.1494"/>
<polygon fill="#191970" stroke="#191970" points="50.5564,-371.4329 51.3456,-381.9983 57.3173,-373.2468 50.5564,-371.4329"/>
</g>
<!-- Node31 -->
<g id="node31" class="node">
<title>Node31</title>
<g id="a_node31"><a xlink:href="../../d7/d84/egmesh_8h.html#a58030181e8f401d3b1d17c32b6e65655" target="_top" xlink:title="RenumberBoundaryTypes">
<polygon fill="none" stroke="#000000" points="149.5,-558.1898 149.5,-578.1898 295.5,-578.1898 295.5,-558.1898 149.5,-558.1898"/>
<text text-anchor="middle" x="222.5" y="-565.1898" font-family="FreeSans" font-size="10.00" fill="#000000">RenumberBoundaryTypes</text>
</a>
</g>
</g>
<!-- Node1&#45;&gt;Node31 -->
<g id="edge48" class="edge">
<title>Node1&#45;&gt;Node31</title>
<path fill="none" stroke="#191970" d="M53.9692,-412.2637C63.4428,-446.121 87.4228,-514.2913 134,-549.1898 138.779,-552.7705 144.0891,-555.7069 149.6675,-558.1112"/>
<polygon fill="#191970" stroke="#191970" points="57.2458,-410.9644 51.3009,-402.1947 50.4794,-412.7576 57.2458,-410.9644"/>
</g>
<!-- Node32 -->
<g id="node32" class="node">
<title>Node32</title>
<g id="a_node32"><a xlink:href="../../d7/d84/egmesh_8h.html#ad31186fdeb9d6c62f8def21ebe12e568" target="_top" xlink:title="SeparateCartesianBoundaries">
<polygon fill="none" stroke="#000000" points="138.5,-131.1898 138.5,-151.1898 306.5,-151.1898 306.5,-131.1898 138.5,-131.1898"/>
<text text-anchor="middle" x="222.5" y="-138.1898" font-family="FreeSans" font-size="10.00" fill="#000000">SeparateCartesianBoundaries</text>
</a>
</g>
</g>
<!-- Node1&#45;&gt;Node32 -->
<g id="edge52" class="edge">
<title>Node1&#45;&gt;Node32</title>
<path fill="none" stroke="#191970" d="M50.1979,-371.9886C54.0074,-326.8941 69.7441,-217.5729 134,-161.1898 138.6176,-157.138 143.8823,-153.8565 149.4897,-151.2047"/>
<polygon fill="#191970" stroke="#191970" points="46.7047,-371.769 49.4641,-381.9982 53.686,-372.2809 46.7047,-371.769"/>
</g>
<!-- Node33 -->
<g id="node33" class="node">
<title>Node33</title>
<g id="a_node33"><a xlink:href="../../d6/d20/egmesh_8cpp.html#a884d4b909aed9ee7095984021f6577e9" target="_top" xlink:title="SeparateMainaxisBoundaries">
<polygon fill="none" stroke="#000000" points="140.5,-286.1898 140.5,-306.1898 304.5,-306.1898 304.5,-286.1898 140.5,-286.1898"/>
<text text-anchor="middle" x="222.5" y="-293.1898" font-family="FreeSans" font-size="10.00" fill="#000000">SeparateMainaxisBoundaries</text>
</a>
</g>
</g>
<!-- Node1&#45;&gt;Node33 -->
<g id="edge53" class="edge">
<title>Node1&#45;&gt;Node33</title>
<path fill="none" stroke="#191970" d="M65.2443,-374.9509C81.2936,-358.8711 107.2571,-335.3035 134,-321.1898 146.0021,-314.8557 159.7907,-309.9717 172.8563,-306.2732"/>
<polygon fill="#191970" stroke="#191970" points="62.6803,-372.567 58.202,-382.1688 67.6907,-377.4554 62.6803,-372.567"/>
</g>
<!-- Node34 -->
<g id="node34" class="node">
<title>Node34</title>
<g id="a_node34"><a xlink:href="../../d7/d84/egmesh_8h.html#a2b8200b902b2fff888e5b7ae510e341e" target="_top" xlink:title="SetConnectedBoundary">
<polygon fill="none" stroke="#000000" points="154.5,-170.1898 154.5,-190.1898 290.5,-190.1898 290.5,-170.1898 154.5,-170.1898"/>
<text text-anchor="middle" x="222.5" y="-177.1898" font-family="FreeSans" font-size="10.00" fill="#000000">SetConnectedBoundary</text>
</a>
</g>
</g>
<!-- Node1&#45;&gt;Node34 -->
<g id="edge55" class="edge">
<title>Node1&#45;&gt;Node34</title>
<path fill="none" stroke="#191970" d="M52.4298,-371.9093C60.0028,-333.5101 81.8051,-250.0293 134,-205.1898 141.6297,-198.6354 150.8639,-193.7929 160.4508,-190.2167"/>
<polygon fill="#191970" stroke="#191970" points="48.9623,-371.4129 50.5875,-381.8823 55.8459,-372.6845 48.9623,-371.4129"/>
</g>
<!-- Node35 -->
<g id="node35" class="node">
<title>Node35</title>
<g id="a_node35"><a xlink:href="../../d7/d84/egmesh_8h.html#a8023422ebfcf5bc2f8b967c098116e11" target="_top" xlink:title="SetDiscontinuousBoundary">
<polygon fill="none" stroke="#000000" points="146,-92.1898 146,-112.1898 299,-112.1898 299,-92.1898 146,-92.1898"/>
<text text-anchor="middle" x="222.5" y="-99.1898" font-family="FreeSans" font-size="10.00" fill="#000000">SetDiscontinuousBoundary</text>
</a>
</g>
</g>
<!-- Node1&#45;&gt;Node35 -->
<g id="edge57" class="edge">
<title>Node1&#45;&gt;Node35</title>
<path fill="none" stroke="#191970" d="M52.6409,-372.1775C63.3057,-315.7247 96.1202,-157.0585 134,-122.1898 138.2881,-118.2426 143.1854,-115.0186 148.4262,-112.3912"/>
<polygon fill="#191970" stroke="#191970" points="49.1945,-371.5671 50.8084,-382.0382 56.0767,-372.8461 49.1945,-371.5671"/>
</g>
<!-- Node3 -->
<g id="node3" class="node">
<title>Node3</title>
<g id="a_node3"><a xlink:href="../../d9/db8/egmain_8h.html#a7618a55eae6dc47974f11436df9dc4ae" target="_top" xlink:title="eg_transfermesh">
<polygon fill="none" stroke="#000000" points="964,-669.1898 964,-689.1898 1065,-689.1898 1065,-669.1898 964,-669.1898"/>
<text text-anchor="middle" x="1014.5" y="-676.1898" font-family="FreeSans" font-size="10.00" fill="#000000">eg_transfermesh</text>
</a>
</g>
</g>
<!-- Node2&#45;&gt;Node3 -->
<g id="edge2" class="edge">
<title>Node2&#45;&gt;Node3</title>
<path fill="none" stroke="#191970" d="M874.0679,-779.9908C908.1732,-755.5103 971.8691,-709.7899 1000.2367,-689.4279"/>
<polygon fill="#191970" stroke="#191970" points="871.763,-777.3369 865.68,-786.0115 875.8448,-783.0236 871.763,-777.3369"/>
</g>
<!-- Node5 -->
<g id="node5" class="node">
<title>Node5</title>
<g id="a_node5"><a xlink:href="../../d1/dbd/egmain_8cpp.html#a9b7ab03133e789e8225467875ab029d5" target="_top" xlink:title="ManipulateMeshDefinition">
<polygon fill="none" stroke="#000000" points="591,-267.1898 591,-287.1898 739,-287.1898 739,-267.1898 591,-267.1898"/>
<text text-anchor="middle" x="665" y="-274.1898" font-family="FreeSans" font-size="10.00" fill="#000000">ManipulateMeshDefinition</text>
</a>
</g>
</g>
<!-- Node4&#45;&gt;Node5 -->
<g id="edge4" class="edge">
<title>Node4&#45;&gt;Node5</title>
<path fill="none" stroke="#191970" d="M519.7752,-356.6749C531.7324,-353.5558 543.8878,-349.7607 555,-345.1898 592.5822,-329.7309 632.0091,-302.1392 651.8851,-287.2989"/>
<polygon fill="#191970" stroke="#191970" points="518.6737,-353.3417 509.8051,-359.1381 520.3527,-360.1374 518.6737,-353.3417"/>
</g>
<!-- Node5&#45;&gt;Node3 -->
<g id="edge5" class="edge">
<title>Node5&#45;&gt;Node3</title>
<path fill="none" stroke="#191970" d="M680.9197,-295.5009C741.7981,-365.5241 958.7847,-615.1053 1005.5689,-668.9171"/>
<polygon fill="#191970" stroke="#191970" points="683.1931,-292.7813 673.9906,-287.531 677.9104,-297.374 683.1931,-292.7813"/>
</g>
<!-- Node6&#45;&gt;Node5 -->
<g id="edge7" class="edge">
<title>Node6&#45;&gt;Node5</title>
<path fill="none" stroke="#191970" d="M505.7788,-312.903C541.2202,-304.9536 586.7883,-294.7327 620.0887,-287.2634"/>
<polygon fill="#191970" stroke="#191970" points="504.5924,-309.5821 495.6009,-315.1859 506.1245,-316.4124 504.5924,-309.5821"/>
</g>
<!-- Node7&#45;&gt;Node5 -->
<g id="edge9" class="edge">
<title>Node7&#45;&gt;Node5</title>
<path fill="none" stroke="#191970" d="M523.3511,-277.1898C545.1228,-277.1898 569.04,-277.1898 590.9219,-277.1898"/>
<polygon fill="#191970" stroke="#191970" points="523.1852,-273.6899 513.1851,-277.1898 523.1851,-280.6899 523.1852,-273.6899"/>
</g>
<!-- Node9 -->
<g id="node9" class="node">
<title>Node9</title>
<g id="a_node9"><a xlink:href="../../d8/dbd/egconvert_8h.html#a1781c28dc0c1ce71d6d36cceb8c9ede1" target="_top" xlink:title="LoadComsolMesh">
<polygon fill="none" stroke="#000000" points="613,-669.1898 613,-689.1898 717,-689.1898 717,-669.1898 613,-669.1898"/>
<text text-anchor="middle" x="665" y="-676.1898" font-family="FreeSans" font-size="10.00" fill="#000000">LoadComsolMesh</text>
</a>
</g>
</g>
<!-- Node8&#45;&gt;Node9 -->
<g id="edge11" class="edge">
<title>Node8&#45;&gt;Node9</title>
<path fill="none" stroke="#191970" d="M267.8999,-619.8375C291.3719,-626.0336 320.568,-633.2125 347,-638.1898 439.9966,-655.7019 549.7134,-668.0359 612.9343,-674.3465"/>
<polygon fill="#191970" stroke="#191970" points="268.7801,-616.4499 258.2157,-617.2514 266.9741,-623.213 268.7801,-616.4499"/>
</g>
<!-- Node11 -->
<g id="node11" class="node">
<title>Node11</title>
<g id="a_node11"><a xlink:href="../../d8/dbd/egconvert_8h.html#a1303d9edf7d13c9e98ae04a1484b815e" target="_top" xlink:title="LoadFidapInput">
<polygon fill="none" stroke="#000000" points="404,-478.1898 404,-498.1898 498,-498.1898 498,-478.1898 404,-478.1898"/>
<text text-anchor="middle" x="451" y="-485.1898" font-family="FreeSans" font-size="10.00" fill="#000000">LoadFidapInput</text>
</a>
</g>
</g>
<!-- Node8&#45;&gt;Node11 -->
<g id="edge14" class="edge">
<title>Node8&#45;&gt;Node11</title>
<path fill="none" stroke="#191970" d="M305.3992,-592.2216C307.3404,-590.976 309.2125,-589.6345 311,-588.1898 341.3244,-563.6822 316.414,-532.3703 347,-508.1898 362.9379,-495.5898 384.4936,-490.1408 403.8478,-488.0172"/>
<polygon fill="#191970" stroke="#191970" points="303.5891,-589.2222 296.4934,-597.0899 306.9468,-595.3644 303.5891,-589.2222"/>
</g>
<!-- Node12 -->
<g id="node12" class="node">
<title>Node12</title>
<g id="a_node12"><a xlink:href="../../d8/dbd/egconvert_8h.html#a542618b93b1f7eb22ad414d7bf90cb7a" target="_top" xlink:title="LoadFieldviewInput">
<polygon fill="none" stroke="#000000" points="608,-630.1898 608,-650.1898 722,-650.1898 722,-630.1898 608,-630.1898"/>
<text text-anchor="middle" x="665" y="-637.1898" font-family="FreeSans" font-size="10.00" fill="#000000">LoadFieldviewInput</text>
</a>
</g>
</g>
<!-- Node8&#45;&gt;Node12 -->
<g id="edge16" class="edge">
<title>Node8&#45;&gt;Node12</title>
<path fill="none" stroke="#191970" d="M321.4049,-615.206C330.0605,-615.8857 338.6859,-616.5553 347,-617.1898 438.2048,-624.1509 544.1671,-631.7088 607.8315,-636.1924"/>
<polygon fill="#191970" stroke="#191970" points="321.4912,-611.7021 311.2469,-614.4049 320.9408,-618.6804 321.4912,-611.7021"/>
</g>
<!-- Node13 -->
<g id="node13" class="node">
<title>Node13</title>
<g id="a_node13"><a xlink:href="../../d2/d83/egconvert_8cpp.html#aa927f38dea00c5b68718977b54dc1df5" target="_top" xlink:title="LoadGmshInput1">
<polygon fill="none" stroke="#000000" points="400,-556.1898 400,-576.1898 502,-576.1898 502,-556.1898 400,-556.1898"/>
<text text-anchor="middle" x="451" y="-563.1898" font-family="FreeSans" font-size="10.00" fill="#000000">LoadGmshInput1</text>
</a>
</g>
</g>
<!-- Node8&#45;&gt;Node13 -->
<g id="edge18" class="edge">
<title>Node8&#45;&gt;Node13</title>
<path fill="none" stroke="#191970" d="M288.6593,-595.3188C324.1154,-588.9569 367.1303,-581.2387 399.9724,-575.3458"/>
<polygon fill="#191970" stroke="#191970" points="287.622,-591.949 278.3974,-597.1601 288.8584,-598.8389 287.622,-591.949"/>
</g>
<!-- Node15 -->
<g id="node15" class="node">
<title>Node15</title>
<g id="a_node15"><a xlink:href="../../d2/d83/egconvert_8cpp.html#aa61b989b5bba8cca9ed2008aad5cc61a" target="_top" xlink:title="LoadGmshInput2">
<polygon fill="none" stroke="#000000" points="400,-517.1898 400,-537.1898 502,-537.1898 502,-517.1898 400,-517.1898"/>
<text text-anchor="middle" x="451" y="-524.1898" font-family="FreeSans" font-size="10.00" fill="#000000">LoadGmshInput2</text>
</a>
</g>
</g>
<!-- Node8&#45;&gt;Node15 -->
<g id="edge21" class="edge">
<title>Node8&#45;&gt;Node15</title>
<path fill="none" stroke="#191970" d="M300.8401,-593.346C304.3538,-591.8043 307.7602,-590.0918 311,-588.1898 331.9123,-575.9128 325.957,-559.2415 347,-547.1898 362.955,-538.0522 382.3143,-533.0016 399.9838,-530.2393"/>
<polygon fill="#191970" stroke="#191970" points="299.3828,-590.1572 291.3292,-597.0411 301.9179,-596.682 299.3828,-590.1572"/>
</g>
<!-- Node16 -->
<g id="node16" class="node">
<title>Node16</title>
<g id="a_node16"><a xlink:href="../../d8/dbd/egconvert_8h.html#a01f983f84fee536048c5e46069f4913c" target="_top" xlink:title="LoadUniversalMesh">
<polygon fill="none" stroke="#000000" points="608,-591.1898 608,-611.1898 722,-611.1898 722,-591.1898 608,-591.1898"/>
<text text-anchor="middle" x="665" y="-598.1898" font-family="FreeSans" font-size="10.00" fill="#000000">LoadUniversalMesh</text>
</a>
</g>
</g>
<!-- Node8&#45;&gt;Node16 -->
<g id="edge23" class="edge">
<title>Node8&#45;&gt;Node16</title>
<path fill="none" stroke="#191970" d="M321.258,-605.8508C409.335,-604.6565 535.2287,-602.9495 607.6867,-601.967"/>
<polygon fill="#191970" stroke="#191970" points="321.2,-602.3511 311.2484,-605.9865 321.295,-609.3505 321.2,-602.3511"/>
</g>
<!-- Node10 -->
<g id="node10" class="node">
<title>Node10</title>
<g id="a_node10"><a xlink:href="../../d1/dbd/egmain_8cpp.html#a20d85915b5efd461908ff01afa22ca96" target="_top" xlink:title="ImportMeshDefinition">
<polygon fill="none" stroke="#000000" points="789,-669.1898 789,-689.1898 914,-689.1898 914,-669.1898 789,-669.1898"/>
<text text-anchor="middle" x="851.5" y="-676.1898" font-family="FreeSans" font-size="10.00" fill="#000000">ImportMeshDefinition</text>
</a>
</g>
</g>
<!-- Node9&#45;&gt;Node10 -->
<g id="edge12" class="edge">
<title>Node9&#45;&gt;Node10</title>
<path fill="none" stroke="#191970" d="M727.5623,-679.1898C747.3077,-679.1898 769.1191,-679.1898 788.8692,-679.1898"/>
<polygon fill="#191970" stroke="#191970" points="727.447,-675.6899 717.447,-679.1898 727.4469,-682.6899 727.447,-675.6899"/>
</g>
<!-- Node10&#45;&gt;Node3 -->
<g id="edge13" class="edge">
<title>Node10&#45;&gt;Node3</title>
<path fill="none" stroke="#191970" d="M924.2319,-679.1898C937.6556,-679.1898 951.4002,-679.1898 963.9864,-679.1898"/>
<polygon fill="#191970" stroke="#191970" points="924.0539,-675.6899 914.0539,-679.1898 924.0539,-682.6899 924.0539,-675.6899"/>
</g>
<!-- Node11&#45;&gt;Node10 -->
<g id="edge15" class="edge">
<title>Node11&#45;&gt;Node10</title>
<path fill="none" stroke="#191970" d="M508.2644,-487.9346C569.43,-490.0969 667.2472,-500.7436 739,-543.1898 793.0652,-575.1728 832.6823,-643.1431 846.3215,-668.9557"/>
<polygon fill="#191970" stroke="#191970" points="508.1256,-484.4293 498.0291,-487.64 507.9242,-491.4264 508.1256,-484.4293"/>
</g>
<!-- Node12&#45;&gt;Node10 -->
<g id="edge17" class="edge">
<title>Node12&#45;&gt;Node10</title>
<path fill="none" stroke="#191970" d="M723.0872,-652.3368C748.9655,-657.7483 779.0768,-664.045 803.6344,-669.1804"/>
<polygon fill="#191970" stroke="#191970" points="723.5331,-648.8544 713.0284,-650.2333 722.1002,-655.7062 723.5331,-648.8544"/>
</g>
<!-- Node14 -->
<g id="node14" class="node">
<title>Node14</title>
<g id="a_node14"><a xlink:href="../../d8/dbd/egconvert_8h.html#a8f5c7ecb3d0c951c7103b4d6430920d4" target="_top" xlink:title="LoadGmshInput">
<polygon fill="none" stroke="#000000" points="616.5,-552.1898 616.5,-572.1898 713.5,-572.1898 713.5,-552.1898 616.5,-552.1898"/>
<text text-anchor="middle" x="665" y="-559.1898" font-family="FreeSans" font-size="10.00" fill="#000000">LoadGmshInput</text>
</a>
</g>
</g>
<!-- Node13&#45;&gt;Node14 -->
<g id="edge19" class="edge">
<title>Node13&#45;&gt;Node14</title>
<path fill="none" stroke="#191970" d="M512.2625,-565.0448C545.2984,-564.4273 585.4996,-563.6758 616.3648,-563.0989"/>
<polygon fill="#191970" stroke="#191970" points="512.1911,-561.5454 502.2583,-565.2318 512.322,-568.5442 512.1911,-561.5454"/>
</g>
<!-- Node14&#45;&gt;Node10 -->
<g id="edge20" class="edge">
<title>Node14&#45;&gt;Node10</title>
<path fill="none" stroke="#191970" d="M723.3754,-575.2781C728.7847,-577.2858 734.0771,-579.5782 739,-582.1898 783.1962,-605.6363 825.014,-649.2519 842.6772,-669.0029"/>
<polygon fill="#191970" stroke="#191970" points="724.1613,-571.8493 713.5671,-571.9643 721.9207,-578.4811 724.1613,-571.8493"/>
</g>
<!-- Node15&#45;&gt;Node14 -->
<g id="edge22" class="edge">
<title>Node15&#45;&gt;Node14</title>
<path fill="none" stroke="#191970" d="M512.2625,-537.2094C545.2984,-542.6125 585.4996,-549.1874 616.3648,-554.2355"/>
<polygon fill="#191970" stroke="#191970" points="512.6922,-533.7333 502.2583,-535.5732 511.5623,-540.6415 512.6922,-533.7333"/>
</g>
<!-- Node16&#45;&gt;Node10 -->
<g id="edge24" class="edge">
<title>Node16&#45;&gt;Node10</title>
<path fill="none" stroke="#191970" d="M717.8725,-614.0043C725.0508,-616.1713 732.2611,-618.5762 739,-621.1898 774.4428,-634.9364 813.359,-656.5911 834.868,-669.1878"/>
<polygon fill="#191970" stroke="#191970" points="718.7293,-610.6088 708.1509,-611.1994 716.7887,-617.3344 718.7293,-610.6088"/>
</g>
<!-- Node17&#45;&gt;Node5 -->
<g id="edge26" class="edge">
<title>Node17&#45;&gt;Node5</title>
<path fill="none" stroke="#191970" d="M507.0928,-42.5446C523.9039,-48.5907 541.4525,-57.1691 555,-69.1898 620.3891,-127.2099 653.3229,-233.5763 662.3692,-266.9161"/>
<polygon fill="#191970" stroke="#191970" points="507.9097,-39.1272 497.3158,-39.2705 505.6868,-45.7649 507.9097,-39.1272"/>
</g>
<!-- Node19 -->
<g id="node19" class="node">
<title>Node19</title>
<g id="a_node19"><a xlink:href="../../d7/d84/egmesh_8h.html#ac8504baf1f533515cb121b1eed1cef05" target="_top" xlink:title="SideAndBulkBoundaries">
<polygon fill="none" stroke="#000000" points="382,-400.1898 382,-420.1898 520,-420.1898 520,-400.1898 382,-400.1898"/>
<text text-anchor="middle" x="451" y="-407.1898" font-family="FreeSans" font-size="10.00" fill="#000000">SideAndBulkBoundaries</text>
</a>
</g>
</g>
<!-- Node18&#45;&gt;Node19 -->
<g id="edge28" class="edge">
<title>Node18&#45;&gt;Node19</title>
<path fill="none" stroke="#191970" d="M299.4468,-517.4992C303.5416,-515.4202 307.4321,-513.0013 311,-510.1898 340.0415,-487.3053 318.2402,-458.4274 347,-435.1898 357.0387,-427.0787 369.2919,-421.529 381.8173,-417.7479"/>
<polygon fill="#191970" stroke="#191970" points="297.9711,-514.3243 290.2021,-521.5281 300.7677,-520.7414 297.9711,-514.3243"/>
</g>
<!-- Node19&#45;&gt;Node5 -->
<g id="edge29" class="edge">
<title>Node19&#45;&gt;Node5</title>
<path fill="none" stroke="#191970" d="M530.0344,-399.4661C538.7298,-396.7697 547.235,-393.4 555,-389.1898 602.9183,-363.2091 643.1029,-309.4639 658.3907,-287.1936"/>
<polygon fill="#191970" stroke="#191970" points="528.8491,-396.1634 520.1653,-402.2332 530.739,-402.9034 528.8491,-396.1634"/>
</g>
<!-- Node21&#45;&gt;Node19 -->
<g id="edge32" class="edge">
<title>Node21&#45;&gt;Node19</title>
<path fill="none" stroke="#191970" d="M288.6089,-439.3279C322.2728,-433.2875 362.7609,-426.0227 394.8877,-420.2581"/>
<polygon fill="#191970" stroke="#191970" points="287.622,-435.949 278.3974,-441.1601 288.8584,-442.8389 287.622,-435.949"/>
</g>
<!-- Node24 -->
<g id="node24" class="node">
<title>Node24</title>
<g id="a_node24"><a xlink:href="../../d8/dbd/egconvert_8h.html#a5f6c9b4f17b7f89e0ab07ee79c82dbc4" target="_top" xlink:title="LoadAbaqusInput">
<polygon fill="none" stroke="#000000" points="612.5,-786.1898 612.5,-806.1898 717.5,-806.1898 717.5,-786.1898 612.5,-786.1898"/>
<text text-anchor="middle" x="665" y="-793.1898" font-family="FreeSans" font-size="10.00" fill="#000000">LoadAbaqusInput</text>
</a>
</g>
</g>
<!-- Node23&#45;&gt;Node24 -->
<g id="edge35" class="edge">
<title>Node23&#45;&gt;Node24</title>
<path fill="none" stroke="#191970" d="M511.2237,-796.1898C542.9771,-796.1898 581.5733,-796.1898 612.1548,-796.1898"/>
<polygon fill="#191970" stroke="#191970" points="511.1735,-792.6899 501.1735,-796.1898 511.1735,-799.6899 511.1735,-792.6899"/>
</g>
<!-- Node25 -->
<g id="node25" class="node">
<title>Node25</title>
<g id="a_node25"><a xlink:href="../../d8/dbd/egconvert_8h.html#a498c26c1d1936f703c719582849fd7ba" target="_top" xlink:title="LoadAnsysInput">
<polygon fill="none" stroke="#000000" points="616.5,-825.1898 616.5,-845.1898 713.5,-845.1898 713.5,-825.1898 616.5,-825.1898"/>
<text text-anchor="middle" x="665" y="-832.1898" font-family="FreeSans" font-size="10.00" fill="#000000">LoadAnsysInput</text>
</a>
</g>
</g>
<!-- Node23&#45;&gt;Node25 -->
<g id="edge37" class="edge">
<title>Node23&#45;&gt;Node25</title>
<path fill="none" stroke="#191970" d="M511.2146,-807.1635C544.4032,-813.2119 585.0696,-820.6231 616.2466,-826.3049"/>
<polygon fill="#191970" stroke="#191970" points="511.639,-803.6833 501.1735,-805.3336 510.3839,-810.5699 511.639,-803.6833"/>
</g>
<!-- Node24&#45;&gt;Node10 -->
<g id="edge36" class="edge">
<title>Node24&#45;&gt;Node10</title>
<path fill="none" stroke="#191970" d="M726.6048,-782.7709C730.8882,-781.1126 735.0632,-779.2593 739,-777.1898 783.709,-753.6875 825.5809,-709.1284 842.997,-689.2276"/>
<polygon fill="#191970" stroke="#191970" points="725.3863,-779.4891 717.1053,-786.0978 727.7001,-786.0957 725.3863,-779.4891"/>
</g>
<!-- Node25&#45;&gt;Node10 -->
<g id="edge38" class="edge">
<title>Node25&#45;&gt;Node10</title>
<path fill="none" stroke="#191970" d="M723.6387,-823.9077C729.0307,-821.7661 734.2459,-819.219 739,-816.1898 752.6914,-807.4661 820.2388,-720.0538 843.5628,-689.5925"/>
<polygon fill="#191970" stroke="#191970" points="722.0911,-820.7407 713.8033,-827.341 724.3982,-827.3496 722.0911,-820.7407"/>
</g>
<!-- Node26&#45;&gt;Node10 -->
<g id="edge40" class="edge">
<title>Node26&#45;&gt;Node10</title>
<path fill="none" stroke="#191970" d="M716.8297,-745.5179C724.3566,-743.3526 731.9415,-740.9046 739,-738.1898 774.8166,-724.4144 813.9172,-702.1084 835.2913,-689.232"/>
<polygon fill="#191970" stroke="#191970" points="715.7405,-742.1872 707.0175,-748.2004 717.5865,-748.9394 715.7405,-742.1872"/>
</g>
<!-- Node27&#45;&gt;Node10 -->
<g id="edge42" class="edge">
<title>Node27&#45;&gt;Node10</title>
<path fill="none" stroke="#191970" d="M723.0872,-706.0429C748.9655,-700.6314 779.0768,-694.3347 803.6344,-689.1993"/>
<polygon fill="#191970" stroke="#191970" points="722.1002,-702.6735 713.0284,-708.1464 723.5331,-709.5253 722.1002,-702.6735"/>
</g>
<!-- Node29 -->
<g id="node29" class="node">
<title>Node29</title>
<g id="a_node29"><a xlink:href="../../d7/d84/egmesh_8h.html#a407db29525019d80971a2473189f0606" target="_top" xlink:title="MergeElements">
<polygon fill="none" stroke="#000000" points="403.5,-78.1898 403.5,-98.1898 498.5,-98.1898 498.5,-78.1898 403.5,-78.1898"/>
<text text-anchor="middle" x="451" y="-85.1898" font-family="FreeSans" font-size="10.00" fill="#000000">MergeElements</text>
</a>
</g>
</g>
<!-- Node28&#45;&gt;Node29 -->
<g id="edge44" class="edge">
<title>Node28&#45;&gt;Node29</title>
<path fill="none" stroke="#191970" d="M285.444,-70.0765C322.6546,-74.1477 369.0295,-79.2215 403.2234,-82.9626"/>
<polygon fill="#191970" stroke="#191970" points="285.5308,-66.5652 275.2094,-68.9567 284.7694,-73.5237 285.5308,-66.5652"/>
</g>
<!-- Node29&#45;&gt;Node5 -->
<g id="edge45" class="edge">
<title>Node29&#45;&gt;Node5</title>
<path fill="none" stroke="#191970" d="M508.4009,-100.4785C524.4906,-105.7201 541.3091,-113.0476 555,-123.1898 609.65,-163.6748 647.8413,-239.3769 660.4593,-266.8733"/>
<polygon fill="#191970" stroke="#191970" points="509.097,-97.0321 498.5115,-97.4779 507.0645,-103.7306 509.097,-97.0321"/>
</g>
<!-- Node30&#45;&gt;Node5 -->
<g id="edge47" class="edge">
<title>Node30&#45;&gt;Node5</title>
<path fill="none" stroke="#191970" d="M498.7735,-232.9146C537.544,-243.2413 591.4601,-257.6021 627.2519,-267.1355"/>
<polygon fill="#191970" stroke="#191970" points="499.3303,-229.4409 488.7663,-230.2491 497.5285,-236.2051 499.3303,-229.4409"/>
</g>
<!-- Node31&#45;&gt;Node5 -->
<g id="edge51" class="edge">
<title>Node31&#45;&gt;Node5</title>
<path fill="none" stroke="#191970" d="M304.599,-553.7273C306.8268,-552.341 308.9681,-550.832 311,-549.1898 341.3244,-524.6822 316.358,-493.2993 347,-469.1898 420.9182,-411.0304 475.6327,-480.6602 555,-430.1898 612.4206,-393.6756 649.1499,-315.4931 660.9047,-287.4584"/>
<polygon fill="#191970" stroke="#191970" points="302.8192,-550.7093 295.6251,-558.4872 306.0994,-556.8933 302.8192,-550.7093"/>
</g>
<!-- Node31&#45;&gt;Node11 -->
<g id="edge49" class="edge">
<title>Node31&#45;&gt;Node11</title>
<path fill="none" stroke="#191970" d="M300.8401,-554.346C304.3538,-552.8043 307.7602,-551.0918 311,-549.1898 331.9123,-536.9128 325.957,-520.2415 347,-508.1898 364.1516,-498.3669 385.2374,-493.267 403.9287,-490.6556"/>
<polygon fill="#191970" stroke="#191970" points="299.3828,-551.1572 291.3292,-558.0411 301.9179,-557.682 299.3828,-551.1572"/>
</g>
<!-- Node31&#45;&gt;Node15 -->
<g id="edge50" class="edge">
<title>Node31&#45;&gt;Node15</title>
<path fill="none" stroke="#191970" d="M288.6593,-556.3188C324.1154,-549.9569 367.1303,-542.2387 399.9724,-536.3458"/>
<polygon fill="#191970" stroke="#191970" points="287.622,-552.949 278.3974,-558.1601 288.8584,-559.8389 287.622,-552.949"/>
</g>
<!-- Node33&#45;&gt;Node7 -->
<g id="edge54" class="edge">
<title>Node33&#45;&gt;Node7</title>
<path fill="none" stroke="#191970" d="M314.8652,-288.5096C339.7587,-286.4397 366.0922,-284.25 388.8968,-282.3538"/>
<polygon fill="#191970" stroke="#191970" points="314.3465,-285.0406 304.6709,-289.3573 314.9266,-292.0165 314.3465,-285.0406"/>
</g>
<!-- Node34&#45;&gt;Node5 -->
<g id="edge56" class="edge">
<title>Node34&#45;&gt;Node5</title>
<path fill="none" stroke="#191970" d="M301.1589,-173.5196C370.0404,-170.3751 471.8334,-172.3463 555,-201.1898 596.2294,-215.4889 636.2268,-249.7735 654.5665,-266.9783"/>
<polygon fill="#191970" stroke="#191970" points="300.6289,-170.0418 290.818,-174.0413 300.9817,-177.0329 300.6289,-170.0418"/>
</g>
<!-- Node35&#45;&gt;Node5 -->
<g id="edge58" class="edge">
<title>Node35&#45;&gt;Node5</title>
<path fill="none" stroke="#191970" d="M309.4099,-105.7296C379.3253,-111.7046 478.2202,-127.395 555,-168.1898 602.2464,-193.2929 642.5084,-245.2333 658.0953,-267.1184"/>
<polygon fill="#191970" stroke="#191970" points="309.5595,-102.2304 299.3109,-104.9167 308.9978,-109.2078 309.5595,-102.2304"/>
</g>
</g>
</svg>
