<?xml version="1.0" encoding="UTF-8" standalone="no"?>
<!DOCTYPE svg PUBLIC "-//W3C//DTD SVG 1.1//EN"
 "http://www.w3.org/Graphics/SVG/1.1/DTD/svg11.dtd">
<!-- Generated by graphviz version 2.40.1 (20161225.0304)
 -->
<!-- Title: starlightPythia::produceEvent Pages: 1 -->
<svg width="884pt" height="519pt"
 viewBox="0.00 0.00 884.00 519.00" xmlns="http://www.w3.org/2000/svg" xmlns:xlink="http://www.w3.org/1999/xlink">
<g id="graph0" class="graph" transform="scale(1 1) rotate(0) translate(4 515)">
<title>starlightPythia::produceEvent</title>
<!-- Node1 -->
<g id="node1" class="node">
<title>Node1</title>
<polygon fill="#bfbfbf" stroke="#000000" points="0,-205.5 0,-237.5 137,-237.5 137,-205.5 0,-205.5"/>
<text text-anchor="start" x="8" y="-224.5" font-family="FreeSans" font-size="10.00" fill="#000000">starlightPythia::produce</text>
<text text-anchor="middle" x="68.5" y="-212.5" font-family="FreeSans" font-size="10.00" fill="#000000">Event</text>
</g>
<!-- Node2 -->
<g id="node2" class="node">
<title>Node2</title>
<g id="a_node2"><a xlink:href="../../d1/d21/classbeamBeamSystem.html#ae788c7578711e2e7b146a45e405f0426" target="_top" xlink:title="returns beam particle 1">
<polygon fill="none" stroke="#000000" points="189,-418.5 189,-438.5 342,-438.5 342,-418.5 189,-418.5"/>
<text text-anchor="middle" x="265.5" y="-425.5" font-family="FreeSans" font-size="10.00" fill="#000000">beamBeamSystem::beam1</text>
</a>
</g>
</g>
<!-- Node1&#45;&gt;Node2 -->
<g id="edge1" class="edge">
<title>Node1&#45;&gt;Node2</title>
<path fill="none" stroke="#191970" d="M72.5771,-237.5283C82.7591,-274.1134 112.9104,-364.0336 173,-408.5 175.7075,-410.5035 178.5745,-412.3144 181.5581,-413.9507"/>
<polygon fill="#191970" stroke="#191970" points="180.2821,-417.2195 190.816,-418.3537 183.2885,-410.898 180.2821,-417.2195"/>
</g>
<!-- Node3 -->
<g id="node3" class="node">
<title>Node3</title>
<g id="a_node3"><a xlink:href="../../d1/d21/classbeamBeamSystem.html#aba7a66ef2c280d5effe7094d82334e1a" target="_top" xlink:title="beamBeamSystem::beamLorentz\lGamma">
<polygon fill="none" stroke="#000000" points="173,-367.5 173,-399.5 358,-399.5 358,-367.5 173,-367.5"/>
<text text-anchor="start" x="181" y="-386.5" font-family="FreeSans" font-size="10.00" fill="#000000">beamBeamSystem::beamLorentz</text>
<text text-anchor="middle" x="265.5" y="-374.5" font-family="FreeSans" font-size="10.00" fill="#000000">Gamma</text>
</a>
</g>
</g>
<!-- Node1&#45;&gt;Node3 -->
<g id="edge2" class="edge">
<title>Node1&#45;&gt;Node3</title>
<path fill="none" stroke="#191970" d="M76.4124,-237.6361C91.2757,-266.2389 126.1418,-325.7975 173,-357.5 175.9209,-359.4761 178.9901,-361.3032 182.1633,-362.9923"/>
<polygon fill="#191970" stroke="#191970" points="180.8144,-366.2271 191.3444,-367.3967 183.8421,-359.9157 180.8144,-366.2271"/>
</g>
<!-- Node4 -->
<g id="node4" class="node">
<title>Node4</title>
<g id="a_node4"><a xlink:href="../../d5/d60/classlorentzVector.html#a6279dbb8641b48bce827658288f5ab16" target="_top" xlink:title="lorentzVector::Boost">
<polygon fill="none" stroke="#000000" points="206,-328.5 206,-348.5 325,-348.5 325,-328.5 206,-328.5"/>
<text text-anchor="middle" x="265.5" y="-335.5" font-family="FreeSans" font-size="10.00" fill="#000000">lorentzVector::Boost</text>
</a>
</g>
</g>
<!-- Node1&#45;&gt;Node4 -->
<g id="edge3" class="edge">
<title>Node1&#45;&gt;Node4</title>
<path fill="none" stroke="#191970" d="M87.1753,-237.6418C107.3686,-254.5536 140.9781,-281.1611 173,-299.5 190.0671,-309.2743 210.0623,-318.0099 227.0874,-324.7231"/>
<polygon fill="#191970" stroke="#191970" points="226.1339,-328.1064 236.7237,-328.4346 228.6499,-321.5742 226.1339,-328.1064"/>
</g>
<!-- Node14 -->
<g id="node14" class="node">
<title>Node14</title>
<g id="a_node14"><a xlink:href="../../da/d92/classspectrum.html#ad84a6b2b167a9abc46aafcca4338cb05" target="_top" xlink:title="spectrum::drawKsingle">
<polygon fill="none" stroke="#000000" points="199.5,-270.5 199.5,-290.5 331.5,-290.5 331.5,-270.5 199.5,-270.5"/>
<text text-anchor="middle" x="265.5" y="-277.5" font-family="FreeSans" font-size="10.00" fill="#000000">spectrum::drawKsingle</text>
</a>
</g>
</g>
<!-- Node1&#45;&gt;Node14 -->
<g id="edge13" class="edge">
<title>Node1&#45;&gt;Node14</title>
<path fill="none" stroke="#191970" d="M107.7444,-237.6785C127.1563,-245.2859 151.0719,-254.074 173,-260.5 182.5785,-263.307 192.8199,-265.908 202.8703,-268.2427"/>
<polygon fill="#191970" stroke="#191970" points="202.3004,-271.702 212.8253,-270.4865 203.8396,-264.8733 202.3004,-271.702"/>
</g>
<!-- Node16 -->
<g id="node16" class="node">
<title>Node16</title>
<g id="a_node16"><a xlink:href="../../df/d79/classpythiaInterface.html#a8a14379573a0b85ca0fd98acf568c84d" target="_top" xlink:title="pythiaInterface::pyevnt">
<polygon fill="none" stroke="#000000" points="198,-231.5 198,-251.5 333,-251.5 333,-231.5 198,-231.5"/>
<text text-anchor="middle" x="265.5" y="-238.5" font-family="FreeSans" font-size="10.00" fill="#000000">pythiaInterface::pyevnt</text>
</a>
</g>
</g>
<!-- Node1&#45;&gt;Node16 -->
<g id="edge15" class="edge">
<title>Node1&#45;&gt;Node16</title>
<path fill="none" stroke="#191970" d="M137.1245,-228.467C153.401,-230.1194 170.8796,-231.8939 187.538,-233.5851"/>
<polygon fill="#191970" stroke="#191970" points="187.4838,-237.0975 197.7862,-234.6255 188.1908,-230.1333 187.4838,-237.0975"/>
</g>
<!-- Node18 -->
<g id="node18" class="node">
<title>Node18</title>
<g id="a_node18"><a xlink:href="../../df/d79/classpythiaInterface.html#ab2a8a848240c3f17351debcafae12fd0" target="_top" xlink:title="pythiaInterface::pygive">
<polygon fill="none" stroke="#000000" points="198.5,-192.5 198.5,-212.5 332.5,-212.5 332.5,-192.5 198.5,-192.5"/>
<text text-anchor="middle" x="265.5" y="-199.5" font-family="FreeSans" font-size="10.00" fill="#000000">pythiaInterface::pygive</text>
</a>
</g>
</g>
<!-- Node1&#45;&gt;Node18 -->
<g id="edge17" class="edge">
<title>Node1&#45;&gt;Node18</title>
<path fill="none" stroke="#191970" d="M137.1245,-214.8814C153.5849,-213.2938 171.2747,-211.5877 188.1024,-209.9647"/>
<polygon fill="#191970" stroke="#191970" points="188.8321,-213.4107 198.4499,-208.9668 188.16,-206.443 188.8321,-213.4107"/>
</g>
<!-- Node20 -->
<g id="node20" class="node">
<title>Node20</title>
<g id="a_node20"><a xlink:href="../../d9/df0/classstarlightParticle.html#ab5e48023e248f1074cac496acb92ab5e" target="_top" xlink:title="starlightParticle::\lsetFirstDaughter">
<polygon fill="none" stroke="#000000" points="215,-141.5 215,-173.5 316,-173.5 316,-141.5 215,-141.5"/>
<text text-anchor="start" x="223" y="-160.5" font-family="FreeSans" font-size="10.00" fill="#000000">starlightParticle::</text>
<text text-anchor="middle" x="265.5" y="-148.5" font-family="FreeSans" font-size="10.00" fill="#000000">setFirstDaughter</text>
</a>
</g>
</g>
<!-- Node1&#45;&gt;Node20 -->
<g id="edge19" class="edge">
<title>Node1&#45;&gt;Node20</title>
<path fill="none" stroke="#191970" d="M108.8862,-205.4252C128.1504,-198.0161 151.6117,-189.3649 173,-182.5 183.3079,-179.1915 194.3528,-175.9495 205.0937,-172.9541"/>
<polygon fill="#191970" stroke="#191970" points="206.1259,-176.3002 214.8425,-170.2776 204.2727,-169.55 206.1259,-176.3002"/>
</g>
<!-- Node21 -->
<g id="node21" class="node">
<title>Node21</title>
<g id="a_node21"><a xlink:href="../../d9/df0/classstarlightParticle.html#a1a101e3eace86260af92fa6ab55507d8" target="_top" xlink:title="starlightParticle::\lsetLastDaughter">
<polygon fill="none" stroke="#000000" points="215,-90.5 215,-122.5 316,-122.5 316,-90.5 215,-90.5"/>
<text text-anchor="start" x="223" y="-109.5" font-family="FreeSans" font-size="10.00" fill="#000000">starlightParticle::</text>
<text text-anchor="middle" x="265.5" y="-97.5" font-family="FreeSans" font-size="10.00" fill="#000000">setLastDaughter</text>
</a>
</g>
</g>
<!-- Node1&#45;&gt;Node21 -->
<g id="edge20" class="edge">
<title>Node1&#45;&gt;Node21</title>
<path fill="none" stroke="#191970" d="M82.7904,-205.3713C101.5459,-185.1822 136.4028,-150.9019 173,-131.5 183.0035,-126.1967 194.2262,-121.9461 205.3128,-118.5635"/>
<polygon fill="#191970" stroke="#191970" points="206.3269,-121.914 214.9864,-115.8096 204.4102,-115.1815 206.3269,-121.914"/>
</g>
<!-- Node22 -->
<g id="node22" class="node">
<title>Node22</title>
<g id="a_node22"><a xlink:href="../../d9/df0/classstarlightParticle.html#a8f69bfa5a9d05ddc61feac16b565e480" target="_top" xlink:title="starlightParticle::\lsetStatus">
<polygon fill="none" stroke="#000000" points="215,-39.5 215,-71.5 316,-71.5 316,-39.5 215,-39.5"/>
<text text-anchor="start" x="223" y="-58.5" font-family="FreeSans" font-size="10.00" fill="#000000">starlightParticle::</text>
<text text-anchor="middle" x="265.5" y="-46.5" font-family="FreeSans" font-size="10.00" fill="#000000">setStatus</text>
</a>
</g>
</g>
<!-- Node1&#45;&gt;Node22 -->
<g id="edge21" class="edge">
<title>Node1&#45;&gt;Node22</title>
<path fill="none" stroke="#191970" d="M75.9905,-205.1871C90.4131,-175.6381 124.9186,-113.287 173,-80.5 182.5671,-73.9762 193.7704,-69.1518 205.0128,-65.5849"/>
<polygon fill="#191970" stroke="#191970" points="206.2132,-68.8819 214.8624,-62.763 204.2852,-62.1526 206.2132,-68.8819"/>
</g>
<!-- Node23 -->
<g id="node23" class="node">
<title>Node23</title>
<g id="a_node23"><a xlink:href="../../d4/d51/classnucleus.html#acd58b7873e7d2d42bbc31414e373b89d" target="_top" xlink:title="returns atomic number of nucleus">
<polygon fill="none" stroke="#000000" points="231,-.5 231,-20.5 300,-20.5 300,-.5 231,-.5"/>
<text text-anchor="middle" x="265.5" y="-7.5" font-family="FreeSans" font-size="10.00" fill="#000000">nucleus::Z</text>
</a>
</g>
</g>
<!-- Node1&#45;&gt;Node23 -->
<g id="edge22" class="edge">
<title>Node1&#45;&gt;Node23</title>
<path fill="none" stroke="#191970" d="M72.3365,-205.2877C82.0929,-167.8305 111.5481,-75.0129 173,-29.5 186.509,-19.4949 204.0363,-14.4565 220.1957,-12.0112"/>
<polygon fill="#191970" stroke="#191970" points="221.056,-15.4325 230.5611,-10.7526 220.2121,-8.4835 221.056,-15.4325"/>
</g>
<!-- Node5 -->
<g id="node5" class="node">
<title>Node5</title>
<g id="a_node5"><a xlink:href="../../dc/dae/gamma_8F.html#a32168d135528557a384f114255d59f09" target="_top" xlink:title="gamma">
<polygon fill="none" stroke="#000000" points="441.5,-484.5 441.5,-504.5 495.5,-504.5 495.5,-484.5 441.5,-484.5"/>
<text text-anchor="middle" x="468.5" y="-491.5" font-family="FreeSans" font-size="10.00" fill="#000000">gamma</text>
</a>
</g>
</g>
<!-- Node4&#45;&gt;Node5 -->
<g id="edge4" class="edge">
<title>Node4&#45;&gt;Node5</title>
<path fill="none" stroke="#191970" d="M325.1999,-341.1482C337.205,-344.163 348.9087,-349.2215 358,-357.5 398.5413,-394.4164 354.3397,-437.6387 394,-475.5 403.9038,-484.9546 417.8323,-489.8829 430.97,-492.3943"/>
<polygon fill="#191970" stroke="#191970" points="430.837,-495.9133 441.2446,-493.9305 431.8722,-488.9902 430.837,-495.9133"/>
</g>
<!-- Node8 -->
<g id="node8" class="node">
<title>Node8</title>
<g id="a_node8"><a xlink:href="../../db/dc5/classvector3.html#a0f76c359666e8284472e081d7ac015fe" target="_top" xlink:title="vector3::Mag2">
<polygon fill="none" stroke="#000000" points="424,-445.5 424,-465.5 513,-465.5 513,-445.5 424,-445.5"/>
<text text-anchor="middle" x="468.5" y="-452.5" font-family="FreeSans" font-size="10.00" fill="#000000">vector3::Mag2</text>
</a>
</g>
</g>
<!-- Node4&#45;&gt;Node8 -->
<g id="edge7" class="edge">
<title>Node4&#45;&gt;Node8</title>
<path fill="none" stroke="#191970" d="M325.3775,-342.3115C337.0979,-345.2909 348.6409,-350.041 358,-357.5 388.174,-381.5483 364.401,-411.7475 394,-436.5 399.7725,-441.3273 406.6155,-444.9499 413.7775,-447.6644"/>
<polygon fill="#191970" stroke="#191970" points="413.0801,-451.116 423.6711,-450.8307 415.2139,-444.4491 413.0801,-451.116"/>
</g>
<!-- Node9 -->
<g id="node9" class="node">
<title>Node9</title>
<g id="a_node9"><a xlink:href="../../d5/d60/classlorentzVector.html#afeb1dcb2b22d773620e996fd39a6334a" target="_top" xlink:title="lorentzVector::SetXYZT">
<polygon fill="none" stroke="#000000" points="402,-406.5 402,-426.5 535,-426.5 535,-406.5 402,-406.5"/>
<text text-anchor="middle" x="468.5" y="-413.5" font-family="FreeSans" font-size="10.00" fill="#000000">lorentzVector::SetXYZT</text>
</a>
</g>
</g>
<!-- Node4&#45;&gt;Node9 -->
<g id="edge8" class="edge">
<title>Node4&#45;&gt;Node9</title>
<path fill="none" stroke="#191970" d="M325.208,-345.0797C336.5625,-347.8806 348.0068,-351.8578 358,-357.5 378.5412,-369.0975 373.814,-384.2947 394,-396.5 397.9089,-398.8635 402.0988,-400.9522 406.4254,-402.7975"/>
<polygon fill="#191970" stroke="#191970" points="405.4682,-406.1779 416.0593,-406.4602 407.9558,-399.6348 405.4682,-406.1779"/>
</g>
<!-- Node11 -->
<g id="node11" class="node">
<title>Node11</title>
<g id="a_node11"><a xlink:href="../../db/dc5/classvector3.html#a2f950a0033df6363f1f1d85fd95de327" target="_top" xlink:title="vector3::X">
<polygon fill="none" stroke="#000000" points="434.5,-367.5 434.5,-387.5 502.5,-387.5 502.5,-367.5 434.5,-367.5"/>
<text text-anchor="middle" x="468.5" y="-374.5" font-family="FreeSans" font-size="10.00" fill="#000000">vector3::X</text>
</a>
</g>
</g>
<!-- Node4&#45;&gt;Node11 -->
<g id="edge10" class="edge">
<title>Node4&#45;&gt;Node11</title>
<path fill="none" stroke="#191970" d="M317.7775,-348.5435C350.7074,-354.8699 392.7576,-362.9485 424.0712,-368.9644"/>
<polygon fill="#191970" stroke="#191970" points="423.7696,-372.4704 434.2504,-370.92 425.0903,-365.5961 423.7696,-372.4704"/>
</g>
<!-- Node12 -->
<g id="node12" class="node">
<title>Node12</title>
<g id="a_node12"><a xlink:href="../../db/dc5/classvector3.html#a1c17cd54f5769fd75812407f2aa4f6cd" target="_top" xlink:title="vector3::Y">
<polygon fill="none" stroke="#000000" points="434.5,-328.5 434.5,-348.5 502.5,-348.5 502.5,-328.5 434.5,-328.5"/>
<text text-anchor="middle" x="468.5" y="-335.5" font-family="FreeSans" font-size="10.00" fill="#000000">vector3::Y</text>
</a>
</g>
</g>
<!-- Node4&#45;&gt;Node12 -->
<g id="edge11" class="edge">
<title>Node4&#45;&gt;Node12</title>
<path fill="none" stroke="#191970" d="M325.0351,-338.5C356.7104,-338.5 395.0037,-338.5 424.058,-338.5"/>
<polygon fill="#191970" stroke="#191970" points="424.3149,-342.0001 434.3149,-338.5 424.3148,-335.0001 424.3149,-342.0001"/>
</g>
<!-- Node13 -->
<g id="node13" class="node">
<title>Node13</title>
<g id="a_node13"><a xlink:href="../../db/dc5/classvector3.html#a634ddc883cd50c169e9bd19d3db08fb3" target="_top" xlink:title="vector3::Z">
<polygon fill="none" stroke="#000000" points="434.5,-289.5 434.5,-309.5 502.5,-309.5 502.5,-289.5 434.5,-289.5"/>
<text text-anchor="middle" x="468.5" y="-296.5" font-family="FreeSans" font-size="10.00" fill="#000000">vector3::Z</text>
</a>
</g>
</g>
<!-- Node4&#45;&gt;Node13 -->
<g id="edge12" class="edge">
<title>Node4&#45;&gt;Node13</title>
<path fill="none" stroke="#191970" d="M317.7775,-328.4565C350.7074,-322.1301 392.7576,-314.0515 424.0712,-308.0356"/>
<polygon fill="#191970" stroke="#191970" points="425.0903,-311.4039 434.2504,-306.08 423.7696,-304.5296 425.0903,-311.4039"/>
</g>
<!-- Node6 -->
<g id="node6" class="node">
<title>Node6</title>
<g id="a_node6"><a xlink:href="../../d4/d3e/classActs_1_1Logger.html#aee9e687247532b5175713e66b2d2121e" target="_top" xlink:title="create output stream object with internal cache">
<polygon fill="none" stroke="#000000" points="583,-484.5 583,-504.5 685,-504.5 685,-484.5 583,-484.5"/>
<text text-anchor="middle" x="634" y="-491.5" font-family="FreeSans" font-size="10.00" fill="#000000">Acts::Logger::log</text>
</a>
</g>
</g>
<!-- Node5&#45;&gt;Node6 -->
<g id="edge5" class="edge">
<title>Node5&#45;&gt;Node6</title>
<path fill="none" stroke="#191970" d="M495.829,-494.5C516.659,-494.5 546.1601,-494.5 572.5572,-494.5"/>
<polygon fill="#191970" stroke="#191970" points="572.8777,-498.0001 582.8776,-494.5 572.8776,-491.0001 572.8777,-498.0001"/>
</g>
<!-- Node7 -->
<g id="node7" class="node">
<title>Node7</title>
<g id="a_node7"><a xlink:href="../../df/dce/classActs_1_1Logging_1_1OutputPrintPolicy.html#ab113823970013e1e7f310b36509136ac" target="_top" xlink:title="handle output of debug message">
<polygon fill="none" stroke="#000000" points="725,-478.5 725,-510.5 876,-510.5 876,-478.5 725,-478.5"/>
<text text-anchor="start" x="733" y="-497.5" font-family="FreeSans" font-size="10.00" fill="#000000">Acts::Logging::OutputPrint</text>
<text text-anchor="middle" x="800.5" y="-485.5" font-family="FreeSans" font-size="10.00" fill="#000000">Policy::flush</text>
</a>
</g>
</g>
<!-- Node6&#45;&gt;Node7 -->
<g id="edge6" class="edge">
<title>Node6&#45;&gt;Node7</title>
<path fill="none" stroke="#191970" d="M685.3141,-494.5C694.7019,-494.5 704.7283,-494.5 714.8025,-494.5"/>
<polygon fill="#191970" stroke="#191970" points="714.8709,-498.0001 724.8708,-494.5 714.8708,-491.0001 714.8709,-498.0001"/>
</g>
<!-- Node10 -->
<g id="node10" class="node">
<title>Node10</title>
<g id="a_node10"><a xlink:href="../../db/dc5/classvector3.html#a158f9f9ec5be5aee81feab744221b95f" target="_top" xlink:title="vector3::SetVector">
<polygon fill="none" stroke="#000000" points="579,-406.5 579,-426.5 689,-426.5 689,-406.5 579,-406.5"/>
<text text-anchor="middle" x="634" y="-413.5" font-family="FreeSans" font-size="10.00" fill="#000000">vector3::SetVector</text>
</a>
</g>
</g>
<!-- Node9&#45;&gt;Node10 -->
<g id="edge9" class="edge">
<title>Node9&#45;&gt;Node10</title>
<path fill="none" stroke="#191970" d="M535.3381,-416.5C546.2837,-416.5 557.6152,-416.5 568.5271,-416.5"/>
<polygon fill="#191970" stroke="#191970" points="568.8343,-420.0001 578.8343,-416.5 568.8343,-413.0001 568.8343,-420.0001"/>
</g>
<!-- Node15 -->
<g id="node15" class="node">
<title>Node15</title>
<g id="a_node15"><a xlink:href="../../d4/dd1/classrandomGenerator.html#ac5aeadcdac35f3ee302ca403360dfe60" target="_top" xlink:title="randomGenerator::Rndom">
<polygon fill="none" stroke="#000000" points="394,-250.5 394,-270.5 543,-270.5 543,-250.5 394,-250.5"/>
<text text-anchor="middle" x="468.5" y="-257.5" font-family="FreeSans" font-size="10.00" fill="#000000">randomGenerator::Rndom</text>
</a>
</g>
</g>
<!-- Node14&#45;&gt;Node15 -->
<g id="edge14" class="edge">
<title>Node14&#45;&gt;Node15</title>
<path fill="none" stroke="#191970" d="M331.6889,-273.9789C348.3247,-272.3399 366.4061,-270.5585 383.8094,-268.8439"/>
<polygon fill="#191970" stroke="#191970" points="384.3532,-272.3074 393.9618,-267.8437 383.6668,-265.3411 384.3532,-272.3074"/>
</g>
<!-- Node17 -->
<g id="node17" class="node">
<title>Node17</title>
<g id="a_node17"><a xlink:href="../../d8/dbe/pythia6_2pythiaInterface_8h.html#a9b7f3417ffa166046a07629f03f7fa1c" target="_top" xlink:title="pyevnt_">
<polygon fill="none" stroke="#000000" points="440,-211.5 440,-231.5 497,-231.5 497,-211.5 440,-211.5"/>
<text text-anchor="middle" x="468.5" y="-218.5" font-family="FreeSans" font-size="10.00" fill="#000000">pyevnt_</text>
</a>
</g>
</g>
<!-- Node16&#45;&gt;Node17 -->
<g id="edge16" class="edge">
<title>Node16&#45;&gt;Node17</title>
<path fill="none" stroke="#191970" d="M333.0961,-234.8403C365.1698,-231.6803 402.3465,-228.0176 429.6213,-225.3304"/>
<polygon fill="#191970" stroke="#191970" points="430.3158,-228.779 439.9244,-224.3153 429.6294,-221.8128 430.3158,-228.779"/>
</g>
<!-- Node19 -->
<g id="node19" class="node">
<title>Node19</title>
<g id="a_node19"><a xlink:href="../../d8/dbe/pythia6_2pythiaInterface_8h.html#a0ecd7015923d3fbd66ee57f18769db2f" target="_top" xlink:title="pygive_">
<polygon fill="none" stroke="#000000" points="440.5,-172.5 440.5,-192.5 496.5,-192.5 496.5,-172.5 440.5,-172.5"/>
<text text-anchor="middle" x="468.5" y="-179.5" font-family="FreeSans" font-size="10.00" fill="#000000">pygive_</text>
</a>
</g>
</g>
<!-- Node18&#45;&gt;Node19 -->
<g id="edge18" class="edge">
<title>Node18&#45;&gt;Node19</title>
<path fill="none" stroke="#191970" d="M332.5324,-195.8958C364.9946,-192.6976 402.7944,-188.9735 430.2868,-186.2648"/>
<polygon fill="#191970" stroke="#191970" points="430.6776,-189.7434 440.2862,-185.2797 429.9912,-182.7771 430.6776,-189.7434"/>
</g>
</g>
</svg>
