<?xml version="1.0" encoding="UTF-8" standalone="no"?>
<!DOCTYPE svg PUBLIC "-//W3C//DTD SVG 1.1//EN"
 "http://www.w3.org/Graphics/SVG/1.1/DTD/svg11.dtd">
<!-- Generated by graphviz version 2.40.1 (20161225.0304)
 -->
<!-- Title: eic&#45;smear/blob/master/include/eicsmear/erhic/EventPythia.h Pages: 1 -->
<svg width="3078pt" height="434pt"
 viewBox="0.00 0.00 3077.50 434.00" xmlns="http://www.w3.org/2000/svg" xmlns:xlink="http://www.w3.org/1999/xlink">
<g id="graph0" class="graph" transform="scale(1 1) rotate(0) translate(4 430)">
<title>eic&#45;smear/blob/master/include/eicsmear/erhic/EventPythia.h</title>
<!-- Node1 -->
<g id="node1" class="node">
<title>Node1</title>
<polygon fill="#bfbfbf" stroke="#000000" points="1972,-381.5 1972,-425.5 2107,-425.5 2107,-381.5 1972,-381.5"/>
<text text-anchor="start" x="1980" y="-412.5" font-family="FreeSans" font-size="10.00" fill="#000000">eic&#45;smear/blob/master</text>
<text text-anchor="start" x="1980" y="-400.5" font-family="FreeSans" font-size="10.00" fill="#000000">/include/eicsmear/erhic</text>
<text text-anchor="middle" x="2039.5" y="-388.5" font-family="FreeSans" font-size="10.00" fill="#000000">/EventPythia.h</text>
</g>
<!-- Node2 -->
<g id="node2" class="node">
<title>Node2</title>
<g id="a_node2"><a xlink:href="../../de/d56/erhic_2EventFactory_8h.html" target="_top" xlink:title="eic&#45;smear/blob/master\l/include/eicsmear/erhic\l/EventFactory.h">
<polygon fill="none" stroke="#000000" points="1107,-300.5 1107,-344.5 1242,-344.5 1242,-300.5 1107,-300.5"/>
<text text-anchor="start" x="1115" y="-331.5" font-family="FreeSans" font-size="10.00" fill="#000000">eic&#45;smear/blob/master</text>
<text text-anchor="start" x="1115" y="-319.5" font-family="FreeSans" font-size="10.00" fill="#000000">/include/eicsmear/erhic</text>
<text text-anchor="middle" x="1174.5" y="-307.5" font-family="FreeSans" font-size="10.00" fill="#000000">/EventFactory.h</text>
</a>
</g>
</g>
<!-- Node1&#45;&gt;Node2 -->
<g id="edge1" class="edge">
<title>Node1&#45;&gt;Node2</title>
<path fill="none" stroke="#191970" d="M1961.9988,-396.2427C1794.3632,-380.545 1400.4508,-343.6584 1242.1343,-328.8334"/>
<polygon fill="#191970" stroke="#191970" points="1961.7024,-399.7301 1971.9852,-397.1778 1962.3551,-392.7606 1961.7024,-399.7301"/>
</g>
<!-- Node14 -->
<g id="node14" class="node">
<title>Node14</title>
<g id="a_node14"><a xlink:href="../../d9/dd4/EventFactoryHepMC_8cxx.html" target="_top" xlink:title="eic&#45;smear/blob/master\l/src/erhic/EventFactoryHepMC.cxx">
<polygon fill="none" stroke="#000000" points="1843,-144.5 1843,-176.5 2032,-176.5 2032,-144.5 1843,-144.5"/>
<text text-anchor="start" x="1851" y="-163.5" font-family="FreeSans" font-size="10.00" fill="#000000">eic&#45;smear/blob/master</text>
<text text-anchor="middle" x="1937.5" y="-151.5" font-family="FreeSans" font-size="10.00" fill="#000000">/src/erhic/EventFactoryHepMC.cxx</text>
</a>
</g>
</g>
<!-- Node1&#45;&gt;Node14 -->
<g id="edge38" class="edge">
<title>Node1&#45;&gt;Node14</title>
<path fill="none" stroke="#191970" d="M1985.7114,-375.7197C1974.3139,-367.3609 1963.5965,-357.1193 1956.5,-345 1924.4461,-290.259 1930.4737,-210.5109 1934.9547,-176.6596"/>
<polygon fill="#191970" stroke="#191970" points="1983.8641,-378.697 1994.0886,-381.4735 1987.8272,-372.9268 1983.8641,-378.697"/>
</g>
<!-- Node15 -->
<g id="node15" class="node">
<title>Node15</title>
<g id="a_node15"><a xlink:href="../../d6/db7/File_8h.html" target="_top" xlink:title="eic&#45;smear/blob/master\l/include/eicsmear/erhic\l/File.h">
<polygon fill="none" stroke="#000000" points="300,-219.5 300,-263.5 435,-263.5 435,-219.5 300,-219.5"/>
<text text-anchor="start" x="308" y="-250.5" font-family="FreeSans" font-size="10.00" fill="#000000">eic&#45;smear/blob/master</text>
<text text-anchor="start" x="308" y="-238.5" font-family="FreeSans" font-size="10.00" fill="#000000">/include/eicsmear/erhic</text>
<text text-anchor="middle" x="367.5" y="-226.5" font-family="FreeSans" font-size="10.00" fill="#000000">/File.h</text>
</a>
</g>
</g>
<!-- Node1&#45;&gt;Node15 -->
<g id="edge36" class="edge">
<title>Node1&#45;&gt;Node15</title>
<path fill="none" stroke="#191970" d="M1961.4776,-401.0902C1731.648,-393.0228 1037.7892,-361.7148 471.5,-264 459.6672,-261.9582 447.1386,-259.5027 435.0303,-256.9753"/>
<polygon fill="#191970" stroke="#191970" points="1961.6284,-404.5974 1971.7437,-401.4458 1961.8709,-397.6016 1961.6284,-404.5974"/>
</g>
<!-- Node21 -->
<g id="node21" class="node">
<title>Node21</title>
<g id="a_node21"><a xlink:href="../../d7/d8d/Pythia6EventBuilder_8cxx.html" target="_top" xlink:title="eic&#45;smear/blob/master\l/src/erhic/Pythia6EventBuilder.cxx">
<polygon fill="none" stroke="#000000" points="1636,-144.5 1636,-176.5 1825,-176.5 1825,-144.5 1636,-144.5"/>
<text text-anchor="start" x="1644" y="-163.5" font-family="FreeSans" font-size="10.00" fill="#000000">eic&#45;smear/blob/master</text>
<text text-anchor="middle" x="1730.5" y="-151.5" font-family="FreeSans" font-size="10.00" fill="#000000">/src/erhic/Pythia6EventBuilder.cxx</text>
</a>
</g>
</g>
<!-- Node1&#45;&gt;Node21 -->
<g id="edge40" class="edge">
<title>Node1&#45;&gt;Node21</title>
<path fill="none" stroke="#191970" d="M1976.0058,-376.3633C1961.3519,-367.9155 1946.774,-357.472 1935.5,-345 1894.5257,-299.6719 1924.5556,-261.3395 1880.5,-219 1859.5401,-198.8566 1830.8543,-185.4249 1804.179,-176.5761"/>
<polygon fill="#191970" stroke="#191970" points="1974.6612,-379.618 1985.111,-381.3657 1978.0319,-373.4829 1974.6612,-379.618"/>
</g>
<!-- Node30 -->
<g id="node30" class="node">
<title>Node30</title>
<g id="a_node30"><a xlink:href="../../da/dd9/EventFactory_8cxx.html" target="_top" xlink:title="eic&#45;smear/blob/master\l/src/erhic/EventFactory.cxx">
<polygon fill="none" stroke="#000000" points="1719.5,-225.5 1719.5,-257.5 1871.5,-257.5 1871.5,-225.5 1719.5,-225.5"/>
<text text-anchor="start" x="1727.5" y="-244.5" font-family="FreeSans" font-size="10.00" fill="#000000">eic&#45;smear/blob/master</text>
<text text-anchor="middle" x="1795.5" y="-232.5" font-family="FreeSans" font-size="10.00" fill="#000000">/src/erhic/EventFactory.cxx</text>
</a>
</g>
</g>
<!-- Node1&#45;&gt;Node30 -->
<g id="edge37" class="edge">
<title>Node1&#45;&gt;Node30</title>
<path fill="none" stroke="#191970" d="M1962.182,-382.4737C1936.4345,-373.361 1908.4845,-361.0316 1885.5,-345 1850.7355,-320.7519 1820.8041,-280.1858 1805.7919,-257.7168"/>
<polygon fill="#191970" stroke="#191970" points="1961.3325,-385.8823 1971.9271,-385.8098 1963.5997,-379.2596 1961.3325,-385.8823"/>
</g>
<!-- Node32 -->
<g id="node32" class="node">
<title>Node32</title>
<g id="a_node32"><a xlink:href="../../d4/d0e/erhic_2EventPythia_8cxx.html" target="_top" xlink:title="eic&#45;smear/blob/master\l/src/erhic/EventPythia.cxx">
<polygon fill="none" stroke="#000000" points="1965.5,-306.5 1965.5,-338.5 2113.5,-338.5 2113.5,-306.5 1965.5,-306.5"/>
<text text-anchor="start" x="1973.5" y="-325.5" font-family="FreeSans" font-size="10.00" fill="#000000">eic&#45;smear/blob/master</text>
<text text-anchor="middle" x="2039.5" y="-313.5" font-family="FreeSans" font-size="10.00" fill="#000000">/src/erhic/EventPythia.cxx</text>
</a>
</g>
</g>
<!-- Node1&#45;&gt;Node32 -->
<g id="edge39" class="edge">
<title>Node1&#45;&gt;Node32</title>
<path fill="none" stroke="#191970" d="M2039.5,-371.0737C2039.5,-359.9468 2039.5,-347.9724 2039.5,-338.6969"/>
<polygon fill="#191970" stroke="#191970" points="2036.0001,-371.3664 2039.5,-381.3664 2043.0001,-371.3664 2036.0001,-371.3664"/>
</g>
<!-- Node33 -->
<g id="node33" class="node">
<title>Node33</title>
<g id="a_node33"><a xlink:href="../../d3/d8a/ffqaplots_8cxx.html" target="_top" xlink:title="eicsmeardetectors/blob\l/master/tests/ffqaplots.cxx">
<polygon fill="none" stroke="#000000" points="2132,-306.5 2132,-338.5 2285,-338.5 2285,-306.5 2132,-306.5"/>
<text text-anchor="start" x="2140" y="-325.5" font-family="FreeSans" font-size="10.00" fill="#000000">eicsmeardetectors/blob</text>
<text text-anchor="middle" x="2208.5" y="-313.5" font-family="FreeSans" font-size="10.00" fill="#000000">/master/tests/ffqaplots.cxx</text>
</a>
</g>
</g>
<!-- Node1&#45;&gt;Node33 -->
<g id="edge41" class="edge">
<title>Node1&#45;&gt;Node33</title>
<path fill="none" stroke="#191970" d="M2094.8382,-376.9769C2121.2998,-364.2942 2152.11,-349.5271 2174.9722,-338.5696"/>
<polygon fill="#191970" stroke="#191970" points="2093.185,-373.888 2085.68,-381.3664 2096.2105,-380.2004 2093.185,-373.888"/>
</g>
<!-- Node34 -->
<g id="node34" class="node">
<title>Node34</title>
<g id="a_node34"><a xlink:href="../../d0/d1d/particlegun_8cxx.html" target="_top" xlink:title="eicsmeardetectors/blob\l/master/tests/particlegun.cxx">
<polygon fill="none" stroke="#000000" points="2303,-306.5 2303,-338.5 2468,-338.5 2468,-306.5 2303,-306.5"/>
<text text-anchor="start" x="2311" y="-325.5" font-family="FreeSans" font-size="10.00" fill="#000000">eicsmeardetectors/blob</text>
<text text-anchor="middle" x="2385.5" y="-313.5" font-family="FreeSans" font-size="10.00" fill="#000000">/master/tests/particlegun.cxx</text>
</a>
</g>
</g>
<!-- Node1&#45;&gt;Node34 -->
<g id="edge42" class="edge">
<title>Node1&#45;&gt;Node34</title>
<path fill="none" stroke="#191970" d="M2117.1028,-386.0544C2167.6706,-374.5983 2235.0593,-359.1656 2294.5,-345 2303.0488,-342.9627 2312.04,-340.7838 2320.9067,-338.6136"/>
<polygon fill="#191970" stroke="#191970" points="2116.2015,-382.6698 2107.2208,-388.2911 2117.7468,-389.4971 2116.2015,-382.6698"/>
</g>
<!-- Node35 -->
<g id="node35" class="node">
<title>Node35</title>
<g id="a_node35"><a xlink:href="../../d4/d3f/qaplots_8cxx.html" target="_top" xlink:title="eicsmeardetectors/blob\l/master/tests/qaplots.cxx">
<polygon fill="none" stroke="#000000" points="2486,-306.5 2486,-338.5 2631,-338.5 2631,-306.5 2486,-306.5"/>
<text text-anchor="start" x="2494" y="-325.5" font-family="FreeSans" font-size="10.00" fill="#000000">eicsmeardetectors/blob</text>
<text text-anchor="middle" x="2558.5" y="-313.5" font-family="FreeSans" font-size="10.00" fill="#000000">/master/tests/qaplots.cxx</text>
</a>
</g>
</g>
<!-- Node1&#45;&gt;Node35 -->
<g id="edge43" class="edge">
<title>Node1&#45;&gt;Node35</title>
<path fill="none" stroke="#191970" d="M2117.3092,-396.3872C2205.3062,-387.5853 2352.6075,-370.5591 2477.5,-345 2486.3651,-343.1858 2495.6873,-340.9306 2504.725,-338.5544"/>
<polygon fill="#191970" stroke="#191970" points="2116.7472,-392.9256 2107.1407,-397.394 2117.437,-399.8915 2116.7472,-392.9256"/>
</g>
<!-- Node36 -->
<g id="node36" class="node">
<title>Node36</title>
<g id="a_node36"><a xlink:href="../../d7/d24/extendedjetexample_8cxx.html" target="_top" xlink:title="eicsmear&#45;jetexample\l/blob/master/src/extendedjetexample.cxx">
<polygon fill="none" stroke="#000000" points="2649.5,-306.5 2649.5,-338.5 2877.5,-338.5 2877.5,-306.5 2649.5,-306.5"/>
<text text-anchor="start" x="2657.5" y="-325.5" font-family="FreeSans" font-size="10.00" fill="#000000">eicsmear&#45;jetexample</text>
<text text-anchor="middle" x="2763.5" y="-313.5" font-family="FreeSans" font-size="10.00" fill="#000000">/blob/master/src/extendedjetexample.cxx</text>
</a>
</g>
</g>
<!-- Node1&#45;&gt;Node36 -->
<g id="edge44" class="edge">
<title>Node1&#45;&gt;Node36</title>
<path fill="none" stroke="#191970" d="M2117.4194,-398.0148C2232.2535,-389.4561 2453.5514,-371.1506 2640.5,-345 2653.722,-343.1505 2667.6899,-340.8911 2681.2822,-338.5255"/>
<polygon fill="#191970" stroke="#191970" points="2117.0308,-394.5339 2107.3167,-398.763 2117.5479,-401.5148 2117.0308,-394.5339"/>
</g>
<!-- Node37 -->
<g id="node37" class="node">
<title>Node37</title>
<g id="a_node37"><a xlink:href="../../d1/df9/jetspectra_8cxx.html" target="_top" xlink:title="eicsmear&#45;jetexample\l/blob/master/src/jetspectra.cxx">
<polygon fill="none" stroke="#000000" points="2895.5,-306.5 2895.5,-338.5 3069.5,-338.5 3069.5,-306.5 2895.5,-306.5"/>
<text text-anchor="start" x="2903.5" y="-325.5" font-family="FreeSans" font-size="10.00" fill="#000000">eicsmear&#45;jetexample</text>
<text text-anchor="middle" x="2982.5" y="-313.5" font-family="FreeSans" font-size="10.00" fill="#000000">/blob/master/src/jetspectra.cxx</text>
</a>
</g>
</g>
<!-- Node1&#45;&gt;Node37 -->
<g id="edge45" class="edge">
<title>Node1&#45;&gt;Node37</title>
<path fill="none" stroke="#191970" d="M2117.1676,-402.3151C2266.8372,-399.1098 2605.2819,-387.3837 2886.5,-345 2897.6719,-343.3162 2909.4642,-341.0051 2920.8143,-338.5021"/>
<polygon fill="#191970" stroke="#191970" points="2117.0779,-398.8161 2107.1527,-402.5228 2117.2231,-405.8146 2117.0779,-398.8161"/>
</g>
<!-- Node3 -->
<g id="node3" class="node">
<title>Node3</title>
<g id="a_node3"><a xlink:href="../../db/d23/EicEventGenerator_8h.html" target="_top" xlink:title="EicRoot/blob/master\l/eic/event/EicEventGenerator.h">
<polygon fill="none" stroke="#000000" points="594.5,-225.5 594.5,-257.5 768.5,-257.5 768.5,-225.5 594.5,-225.5"/>
<text text-anchor="start" x="602.5" y="-244.5" font-family="FreeSans" font-size="10.00" fill="#000000">EicRoot/blob/master</text>
<text text-anchor="middle" x="681.5" y="-232.5" font-family="FreeSans" font-size="10.00" fill="#000000">/eic/event/EicEventGenerator.h</text>
</a>
</g>
</g>
<!-- Node2&#45;&gt;Node3 -->
<g id="edge2" class="edge">
<title>Node2&#45;&gt;Node3</title>
<path fill="none" stroke="#191970" d="M1096.9269,-309.7547C1007.693,-295.0936 861.5516,-271.0825 768.518,-255.7971"/>
<polygon fill="#191970" stroke="#191970" points="1096.549,-313.2395 1106.9842,-311.4071 1097.6839,-306.3321 1096.549,-313.2395"/>
</g>
<!-- Node11 -->
<g id="node11" class="node">
<title>Node11</title>
<g id="a_node11"><a xlink:href="../../d6/d2f/EicSmearTask_8h.html" target="_top" xlink:title="EicRoot/blob/master\l/eic/event/EicSmearTask.h">
<polygon fill="none" stroke="#000000" points="853,-69.5 853,-101.5 1002,-101.5 1002,-69.5 853,-69.5"/>
<text text-anchor="start" x="861" y="-88.5" font-family="FreeSans" font-size="10.00" fill="#000000">EicRoot/blob/master</text>
<text text-anchor="middle" x="927.5" y="-76.5" font-family="FreeSans" font-size="10.00" fill="#000000">/eic/event/EicSmearTask.h</text>
</a>
</g>
</g>
<!-- Node2&#45;&gt;Node11 -->
<g id="edge13" class="edge">
<title>Node2&#45;&gt;Node11</title>
<path fill="none" stroke="#191970" d="M1096.8115,-314.6712C1031.0322,-306.299 943.9453,-290.5074 921.5,-264 881.8266,-217.1465 907.1122,-135.9898 920.6062,-101.6207"/>
<polygon fill="#191970" stroke="#191970" points="1096.4075,-318.1478 1106.7617,-315.9023 1097.2672,-311.2008 1096.4075,-318.1478"/>
</g>
<!-- Node13 -->
<g id="node13" class="node">
<title>Node13</title>
<g id="a_node13"><a xlink:href="../../dd/d9e/EventFactoryHepMC_8h.html" target="_top" xlink:title="eic&#45;smear/blob/master\l/include/eicsmear/erhic\l/EventFactoryHepMC.h">
<polygon fill="none" stroke="#000000" points="1566,-219.5 1566,-263.5 1701,-263.5 1701,-219.5 1566,-219.5"/>
<text text-anchor="start" x="1574" y="-250.5" font-family="FreeSans" font-size="10.00" fill="#000000">eic&#45;smear/blob/master</text>
<text text-anchor="start" x="1574" y="-238.5" font-family="FreeSans" font-size="10.00" fill="#000000">/include/eicsmear/erhic</text>
<text text-anchor="middle" x="1633.5" y="-226.5" font-family="FreeSans" font-size="10.00" fill="#000000">/EventFactoryHepMC.h</text>
</a>
</g>
</g>
<!-- Node2&#45;&gt;Node13 -->
<g id="edge15" class="edge">
<title>Node2&#45;&gt;Node13</title>
<path fill="none" stroke="#191970" d="M1252.4559,-313.6304C1330.0513,-304.0837 1452.2808,-287.1005 1556.5,-264 1559.4914,-263.337 1562.5372,-262.6217 1565.6062,-261.8681"/>
<polygon fill="#191970" stroke="#191970" points="1251.7827,-310.1864 1242.2799,-314.8711 1252.63,-317.135 1251.7827,-310.1864"/>
</g>
<!-- Node2&#45;&gt;Node15 -->
<g id="edge17" class="edge">
<title>Node2&#45;&gt;Node15</title>
<path fill="none" stroke="#191970" d="M1096.5265,-315.9178C978.3352,-305.7759 746.7965,-285.2643 550.5,-264 512.3113,-259.8631 469.7146,-254.6607 435.2334,-250.3007"/>
<polygon fill="#191970" stroke="#191970" points="1096.306,-319.4116 1106.5683,-316.7779 1096.9035,-312.4372 1096.306,-319.4116"/>
</g>
<!-- Node18 -->
<g id="node18" class="node">
<title>Node18</title>
<g id="a_node18"><a xlink:href="../../d3/dc2/Forester_8cxx.html" target="_top" xlink:title="eic&#45;smear/blob/master\l/src/erhic/Forester.cxx">
<polygon fill="none" stroke="#000000" points="302,-144.5 302,-176.5 433,-176.5 433,-144.5 302,-144.5"/>
<text text-anchor="start" x="310" y="-163.5" font-family="FreeSans" font-size="10.00" fill="#000000">eic&#45;smear/blob/master</text>
<text text-anchor="middle" x="367.5" y="-151.5" font-family="FreeSans" font-size="10.00" fill="#000000">/src/erhic/Forester.cxx</text>
</a>
</g>
</g>
<!-- Node2&#45;&gt;Node18 -->
<g id="edge34" class="edge">
<title>Node2&#45;&gt;Node18</title>
<path fill="none" stroke="#191970" d="M1096.7765,-318.1008C959.5047,-309.7797 679.7347,-290.1948 585.5,-264 512.2363,-243.6346 433.2786,-200.1215 393.5275,-176.5203"/>
<polygon fill="#191970" stroke="#191970" points="1096.6172,-321.5974 1106.8093,-318.7042 1097.0375,-314.6101 1096.6172,-321.5974"/>
</g>
<!-- Node19 -->
<g id="node19" class="node">
<title>Node19</title>
<g id="a_node19"><a xlink:href="../../d4/db8/Pythia6EventBuilder_8h.html" target="_top" xlink:title="eic&#45;smear/blob/master\l/include/eicsmear/erhic\l/Pythia6EventBuilder.h">
<polygon fill="none" stroke="#000000" points="1264,-219.5 1264,-263.5 1399,-263.5 1399,-219.5 1264,-219.5"/>
<text text-anchor="start" x="1272" y="-250.5" font-family="FreeSans" font-size="10.00" fill="#000000">eic&#45;smear/blob/master</text>
<text text-anchor="start" x="1272" y="-238.5" font-family="FreeSans" font-size="10.00" fill="#000000">/include/eicsmear/erhic</text>
<text text-anchor="middle" x="1331.5" y="-226.5" font-family="FreeSans" font-size="10.00" fill="#000000">/Pythia6EventBuilder.h</text>
</a>
</g>
</g>
<!-- Node2&#45;&gt;Node19 -->
<g id="edge21" class="edge">
<title>Node2&#45;&gt;Node19</title>
<path fill="none" stroke="#191970" d="M1226.4589,-295.6932C1246.6281,-285.2874 1269.4467,-273.5148 1288.6509,-263.6068"/>
<polygon fill="#191970" stroke="#191970" points="1224.6831,-292.6709 1217.4009,-300.3664 1227.8927,-298.8918 1224.6831,-292.6709"/>
</g>
<!-- Node22 -->
<g id="node22" class="node">
<title>Node22</title>
<g id="a_node22"><a xlink:href="../../d1/d07/Pythia6EventFactory_8h.html" target="_top" xlink:title="eic&#45;smear/blob/master\l/include/eicsmear/hadronic\l/Pythia6EventFactory.h">
<polygon fill="none" stroke="#000000" points="930.5,-219.5 930.5,-263.5 1084.5,-263.5 1084.5,-219.5 930.5,-219.5"/>
<text text-anchor="start" x="938.5" y="-250.5" font-family="FreeSans" font-size="10.00" fill="#000000">eic&#45;smear/blob/master</text>
<text text-anchor="start" x="938.5" y="-238.5" font-family="FreeSans" font-size="10.00" fill="#000000">/include/eicsmear/hadronic</text>
<text text-anchor="middle" x="1007.5" y="-226.5" font-family="FreeSans" font-size="10.00" fill="#000000">/Pythia6EventFactory.h</text>
</a>
</g>
</g>
<!-- Node2&#45;&gt;Node22 -->
<g id="edge24" class="edge">
<title>Node2&#45;&gt;Node22</title>
<path fill="none" stroke="#191970" d="M1119.8107,-295.9741C1098.2154,-285.4997 1073.6898,-273.604 1053.0783,-263.6068"/>
<polygon fill="#191970" stroke="#191970" points="1118.3416,-299.1514 1128.8665,-300.3664 1121.3964,-292.8532 1118.3416,-299.1514"/>
</g>
<!-- Node24 -->
<g id="node24" class="node">
<title>Node24</title>
<g id="a_node24"><a xlink:href="../../d1/d0c/smear_2EventFactory_8h.html" target="_top" xlink:title="eic&#45;smear/blob/master\l/include/eicsmear/smear\l/EventFactory.h">
<polygon fill="none" stroke="#000000" points="1103,-219.5 1103,-263.5 1246,-263.5 1246,-219.5 1103,-219.5"/>
<text text-anchor="start" x="1111" y="-250.5" font-family="FreeSans" font-size="10.00" fill="#000000">eic&#45;smear/blob/master</text>
<text text-anchor="start" x="1111" y="-238.5" font-family="FreeSans" font-size="10.00" fill="#000000">/include/eicsmear/smear</text>
<text text-anchor="middle" x="1174.5" y="-226.5" font-family="FreeSans" font-size="10.00" fill="#000000">/EventFactory.h</text>
</a>
</g>
</g>
<!-- Node2&#45;&gt;Node24 -->
<g id="edge26" class="edge">
<title>Node2&#45;&gt;Node24</title>
<path fill="none" stroke="#191970" d="M1174.5,-290.2457C1174.5,-281.3118 1174.5,-271.8188 1174.5,-263.6068"/>
<polygon fill="#191970" stroke="#191970" points="1171.0001,-290.3664 1174.5,-300.3664 1178.0001,-290.3664 1171.0001,-290.3664"/>
</g>
<!-- Node2&#45;&gt;Node30 -->
<g id="edge33" class="edge">
<title>Node2&#45;&gt;Node30</title>
<path fill="none" stroke="#191970" d="M1252.2603,-317.5963C1356.8456,-310.1831 1548.3246,-293.7293 1709.5,-264 1719.0616,-262.2363 1729.1254,-259.9781 1738.8652,-257.5755"/>
<polygon fill="#191970" stroke="#191970" points="1251.8369,-314.1173 1242.1057,-318.307 1252.3257,-321.1002 1251.8369,-314.1173"/>
</g>
<!-- Node31 -->
<g id="node31" class="node">
<title>Node31</title>
<g id="a_node31"><a xlink:href="../../d5/d28/Pythia6_8cxx.html" target="_top" xlink:title="eic&#45;smear/blob/master\l/src/erhic/Pythia6.cxx">
<polygon fill="none" stroke="#000000" points="1417,-225.5 1417,-257.5 1548,-257.5 1548,-225.5 1417,-225.5"/>
<text text-anchor="start" x="1425" y="-244.5" font-family="FreeSans" font-size="10.00" fill="#000000">eic&#45;smear/blob/master</text>
<text text-anchor="middle" x="1482.5" y="-232.5" font-family="FreeSans" font-size="10.00" fill="#000000">/src/erhic/Pythia6.cxx</text>
</a>
</g>
</g>
<!-- Node2&#45;&gt;Node31 -->
<g id="edge35" class="edge">
<title>Node2&#45;&gt;Node31</title>
<path fill="none" stroke="#191970" d="M1251.7966,-304.0272C1297.2655,-292.9281 1355.8034,-278.2364 1407.5,-264 1414.8395,-261.9788 1422.5569,-259.7652 1430.1355,-257.5402"/>
<polygon fill="#191970" stroke="#191970" points="1250.8949,-300.6444 1242.0067,-306.4107 1252.5509,-307.4457 1250.8949,-300.6444"/>
</g>
<!-- Node4 -->
<g id="node4" class="node">
<title>Node4</title>
<g id="a_node4"><a xlink:href="../../d3/db3/EicEventAssembler_8h.html" target="_top" xlink:title="EicRoot/blob/master\l/eic/event/EicEventAssembler.h">
<polygon fill="none" stroke="#000000" points="693.5,-144.5 693.5,-176.5 869.5,-176.5 869.5,-144.5 693.5,-144.5"/>
<text text-anchor="start" x="701.5" y="-163.5" font-family="FreeSans" font-size="10.00" fill="#000000">EicRoot/blob/master</text>
<text text-anchor="middle" x="781.5" y="-151.5" font-family="FreeSans" font-size="10.00" fill="#000000">/eic/event/EicEventAssembler.h</text>
</a>
</g>
</g>
<!-- Node3&#45;&gt;Node4 -->
<g id="edge3" class="edge">
<title>Node3&#45;&gt;Node4</title>
<path fill="none" stroke="#191970" d="M709.4804,-218.8358C726.0027,-205.4528 746.5335,-188.8229 761.442,-176.747"/>
<polygon fill="#191970" stroke="#191970" points="706.8245,-216.483 701.2568,-225.497 711.2304,-221.9225 706.8245,-216.483"/>
</g>
<!-- Node7 -->
<g id="node7" class="node">
<title>Node7</title>
<g id="a_node7"><a xlink:href="../../df/dc5/EicRootManager_8h.html" target="_top" xlink:title="EicRoot/blob/master\l/eic/event/EicRootManager.h">
<polygon fill="none" stroke="#000000" points="391,-69.5 391,-101.5 552,-101.5 552,-69.5 391,-69.5"/>
<text text-anchor="start" x="399" y="-88.5" font-family="FreeSans" font-size="10.00" fill="#000000">EicRoot/blob/master</text>
<text text-anchor="middle" x="471.5" y="-76.5" font-family="FreeSans" font-size="10.00" fill="#000000">/eic/event/EicRootManager.h</text>
</a>
</g>
</g>
<!-- Node3&#45;&gt;Node7 -->
<g id="edge12" class="edge">
<title>Node3&#45;&gt;Node7</title>
<path fill="none" stroke="#191970" d="M602.7382,-223.0575C549.9892,-209.9552 488.7332,-192.9794 480.5,-183 461.5684,-160.0531 464.3142,-122.9172 467.947,-101.7143"/>
<polygon fill="#191970" stroke="#191970" points="601.927,-226.4622 612.474,-225.4563 603.6017,-219.6655 601.927,-226.4622"/>
</g>
<!-- Node10 -->
<g id="node10" class="node">
<title>Node10</title>
<g id="a_node10"><a xlink:href="../../dd/da3/EicEventGenerator_8cxx.html" target="_top" xlink:title="EicRoot/blob/master\l/eic/event/EicEventGenerator.cxx">
<polygon fill="none" stroke="#000000" points="489.5,-144.5 489.5,-176.5 675.5,-176.5 675.5,-144.5 489.5,-144.5"/>
<text text-anchor="start" x="497.5" y="-163.5" font-family="FreeSans" font-size="10.00" fill="#000000">EicRoot/blob/master</text>
<text text-anchor="middle" x="582.5" y="-151.5" font-family="FreeSans" font-size="10.00" fill="#000000">/eic/event/EicEventGenerator.cxx</text>
</a>
</g>
</g>
<!-- Node3&#45;&gt;Node10 -->
<g id="edge11" class="edge">
<title>Node3&#45;&gt;Node10</title>
<path fill="none" stroke="#191970" d="M653.7994,-218.8358C637.4423,-205.4528 617.1168,-188.8229 602.3574,-176.747"/>
<polygon fill="#191970" stroke="#191970" points="651.9848,-221.8735 661.9408,-225.497 656.4175,-216.4557 651.9848,-221.8735"/>
</g>
<!-- Node5 -->
<g id="node5" class="node">
<title>Node5</title>
<g id="a_node5"><a xlink:href="../../d4/d62/EicEventAssembler_8cxx.html" target="_top" xlink:title="EicRoot/blob/master\l/eic/event/EicEventAssembler.cxx">
<polygon fill="none" stroke="#000000" points="497.5,-.5 497.5,-32.5 685.5,-32.5 685.5,-.5 497.5,-.5"/>
<text text-anchor="start" x="505.5" y="-19.5" font-family="FreeSans" font-size="10.00" fill="#000000">EicRoot/blob/master</text>
<text text-anchor="middle" x="591.5" y="-7.5" font-family="FreeSans" font-size="10.00" fill="#000000">/eic/event/EicEventAssembler.cxx</text>
</a>
</g>
</g>
<!-- Node4&#45;&gt;Node5 -->
<g id="edge4" class="edge">
<title>Node4&#45;&gt;Node5</title>
<path fill="none" stroke="#191970" d="M751.8258,-138.0101C713.2508,-108.7743 646.8134,-58.4217 612.8478,-32.6794"/>
<polygon fill="#191970" stroke="#191970" points="749.9901,-141.0105 760.0739,-144.2613 754.2183,-135.4317 749.9901,-141.0105"/>
</g>
<!-- Node6 -->
<g id="node6" class="node">
<title>Node6</title>
<g id="a_node6"><a xlink:href="../../db/d7c/EicRcParticle_8cxx.html" target="_top" xlink:title="EicRoot/blob/master\l/eic/event/EicRcParticle.cxx">
<polygon fill="none" stroke="#000000" points="703.5,-.5 703.5,-32.5 859.5,-32.5 859.5,-.5 703.5,-.5"/>
<text text-anchor="start" x="711.5" y="-19.5" font-family="FreeSans" font-size="10.00" fill="#000000">EicRoot/blob/master</text>
<text text-anchor="middle" x="781.5" y="-7.5" font-family="FreeSans" font-size="10.00" fill="#000000">/eic/event/EicRcParticle.cxx</text>
</a>
</g>
</g>
<!-- Node4&#45;&gt;Node6 -->
<g id="edge5" class="edge">
<title>Node4&#45;&gt;Node6</title>
<path fill="none" stroke="#191970" d="M781.5,-134.2454C781.5,-104.7054 781.5,-57.6294 781.5,-32.9003"/>
<polygon fill="#191970" stroke="#191970" points="778.0001,-134.2613 781.5,-144.2613 785.0001,-134.2613 778.0001,-134.2613"/>
</g>
<!-- Node4&#45;&gt;Node7 -->
<g id="edge6" class="edge">
<title>Node4&#45;&gt;Node7</title>
<path fill="none" stroke="#191970" d="M704.9631,-141.983C653.7063,-129.5822 586.9017,-113.4198 537.8928,-101.5628"/>
<polygon fill="#191970" stroke="#191970" points="704.4546,-145.4609 714.9972,-144.4106 706.1007,-138.6572 704.4546,-145.4609"/>
</g>
<!-- Node7&#45;&gt;Node5 -->
<g id="edge7" class="edge">
<title>Node7&#45;&gt;Node5</title>
<path fill="none" stroke="#191970" d="M508.277,-64.3532C526.0187,-54.1517 546.9638,-42.1083 563.4032,-32.6557"/>
<polygon fill="#191970" stroke="#191970" points="506.2564,-61.4776 499.332,-69.4966 509.7458,-67.546 506.2564,-61.4776"/>
</g>
<!-- Node7&#45;&gt;Node6 -->
<g id="edge9" class="edge">
<title>Node7&#45;&gt;Node6</title>
<path fill="none" stroke="#191970" d="M553.2431,-67.3056C601.7701,-56.5044 662.7384,-42.934 709.4542,-32.536"/>
<polygon fill="#191970" stroke="#191970" points="552.4001,-63.9075 543.3994,-69.4966 553.921,-70.7403 552.4001,-63.9075"/>
</g>
<!-- Node8 -->
<g id="node8" class="node">
<title>Node8</title>
<g id="a_node8"><a xlink:href="../../d2/d92/EicRcEvent_8cxx.html" target="_top" xlink:title="EicRoot/blob/master\l/eic/event/EicRcEvent.cxx">
<polygon fill="none" stroke="#000000" points="331.5,-.5 331.5,-32.5 479.5,-32.5 479.5,-.5 331.5,-.5"/>
<text text-anchor="start" x="339.5" y="-19.5" font-family="FreeSans" font-size="10.00" fill="#000000">EicRoot/blob/master</text>
<text text-anchor="middle" x="405.5" y="-7.5" font-family="FreeSans" font-size="10.00" fill="#000000">/eic/event/EicRcEvent.cxx</text>
</a>
</g>
</g>
<!-- Node7&#45;&gt;Node8 -->
<g id="edge8" class="edge">
<title>Node7&#45;&gt;Node8</title>
<path fill="none" stroke="#191970" d="M449.1507,-62.1349C439.9619,-52.5283 429.5389,-41.6316 421.1829,-32.8958"/>
<polygon fill="#191970" stroke="#191970" points="446.7509,-64.6894 456.1924,-69.4966 451.8094,-59.8508 446.7509,-64.6894"/>
</g>
<!-- Node9 -->
<g id="node9" class="node">
<title>Node9</title>
<g id="a_node9"><a xlink:href="../../d7/d2a/EicRootManager_8cxx.html" target="_top" xlink:title="EicRoot/blob/master\l/eic/event/EicRootManager.cxx">
<polygon fill="none" stroke="#000000" points="141.5,-.5 141.5,-32.5 313.5,-32.5 313.5,-.5 141.5,-.5"/>
<text text-anchor="start" x="149.5" y="-19.5" font-family="FreeSans" font-size="10.00" fill="#000000">EicRoot/blob/master</text>
<text text-anchor="middle" x="227.5" y="-7.5" font-family="FreeSans" font-size="10.00" fill="#000000">/eic/event/EicRootManager.cxx</text>
</a>
</g>
</g>
<!-- Node7&#45;&gt;Node9 -->
<g id="edge10" class="edge">
<title>Node7&#45;&gt;Node9</title>
<path fill="none" stroke="#191970" d="M404.997,-66.6938C367.1655,-55.9956 320.286,-42.7387 284.207,-32.536"/>
<polygon fill="#191970" stroke="#191970" points="404.3331,-70.1433 414.9082,-69.4966 406.238,-63.4074 404.3331,-70.1433"/>
</g>
<!-- Node12 -->
<g id="node12" class="node">
<title>Node12</title>
<g id="a_node12"><a xlink:href="../../d1/db0/EicSmearTask_8cxx.html" target="_top" xlink:title="EicRoot/blob/master\l/eic/event/EicSmearTask.cxx">
<polygon fill="none" stroke="#000000" points="878,-.5 878,-32.5 1039,-32.5 1039,-.5 878,-.5"/>
<text text-anchor="start" x="886" y="-19.5" font-family="FreeSans" font-size="10.00" fill="#000000">EicRoot/blob/master</text>
<text text-anchor="middle" x="958.5" y="-7.5" font-family="FreeSans" font-size="10.00" fill="#000000">/eic/event/EicSmearTask.cxx</text>
</a>
</g>
</g>
<!-- Node11&#45;&gt;Node12 -->
<g id="edge14" class="edge">
<title>Node11&#45;&gt;Node12</title>
<path fill="none" stroke="#191970" d="M938.9026,-60.12C942.9873,-51.0283 947.481,-41.0262 951.1338,-32.8958"/>
<polygon fill="#191970" stroke="#191970" points="935.5956,-58.9405 934.6899,-69.4966 941.9807,-61.8093 935.5956,-58.9405"/>
</g>
<!-- Node13&#45;&gt;Node14 -->
<g id="edge16" class="edge">
<title>Node13&#45;&gt;Node14</title>
<path fill="none" stroke="#191970" d="M1710.802,-218.9517C1771.3237,-202.3971 1829.5918,-187.4664 1872.7752,-176.5932"/>
<polygon fill="#191970" stroke="#191970" points="1709.7884,-215.6004 1701.0713,-221.6222 1711.641,-222.3508 1709.7884,-215.6004"/>
</g>
<!-- Node16 -->
<g id="node16" class="node">
<title>Node16</title>
<g id="a_node16"><a xlink:href="../../d5/d0b/BuildTree_8cxx.html" target="_top" xlink:title="eic&#45;smear/blob/master\l/src/erhic/BuildTree.cxx">
<polygon fill="none" stroke="#000000" points="149.5,-144.5 149.5,-176.5 283.5,-176.5 283.5,-144.5 149.5,-144.5"/>
<text text-anchor="start" x="157.5" y="-163.5" font-family="FreeSans" font-size="10.00" fill="#000000">eic&#45;smear/blob/master</text>
<text text-anchor="middle" x="216.5" y="-151.5" font-family="FreeSans" font-size="10.00" fill="#000000">/src/erhic/BuildTree.cxx</text>
</a>
</g>
</g>
<!-- Node15&#45;&gt;Node16 -->
<g id="edge18" class="edge">
<title>Node15&#45;&gt;Node16</title>
<path fill="none" stroke="#191970" d="M317.1569,-214.4948C293.8093,-201.9705 266.8378,-187.5024 246.6942,-176.6969"/>
<polygon fill="#191970" stroke="#191970" points="315.7719,-217.7235 326.2386,-219.3664 319.0809,-211.555 315.7719,-217.7235"/>
</g>
<!-- Node17 -->
<g id="node17" class="node">
<title>Node17</title>
<g id="a_node17"><a xlink:href="../../d9/de4/File_8cxx.html" target="_top" xlink:title="eic&#45;smear/blob/master\l/src/erhic/File.cxx">
<polygon fill="none" stroke="#000000" points="0,-144.5 0,-176.5 131,-176.5 131,-144.5 0,-144.5"/>
<text text-anchor="start" x="8" y="-163.5" font-family="FreeSans" font-size="10.00" fill="#000000">eic&#45;smear/blob/master</text>
<text text-anchor="middle" x="65.5" y="-151.5" font-family="FreeSans" font-size="10.00" fill="#000000">/src/erhic/File.cxx</text>
</a>
</g>
</g>
<!-- Node15&#45;&gt;Node17 -->
<g id="edge19" class="edge">
<title>Node15&#45;&gt;Node17</title>
<path fill="none" stroke="#191970" d="M290.0104,-222.3312C246.0452,-211.2551 190.0672,-196.8163 140.5,-183 133.2978,-180.9925 125.7284,-178.809 118.2821,-176.6178"/>
<polygon fill="#191970" stroke="#191970" points="289.22,-225.7413 299.7716,-224.7848 290.9265,-218.9525 289.22,-225.7413"/>
</g>
<!-- Node15&#45;&gt;Node18 -->
<g id="edge20" class="edge">
<title>Node15&#45;&gt;Node18</title>
<path fill="none" stroke="#191970" d="M367.5,-209.0737C367.5,-197.9468 367.5,-185.9724 367.5,-176.6969"/>
<polygon fill="#191970" stroke="#191970" points="364.0001,-209.3664 367.5,-219.3664 371.0001,-209.3664 364.0001,-209.3664"/>
</g>
<!-- Node20 -->
<g id="node20" class="node">
<title>Node20</title>
<g id="a_node20"><a xlink:href="../../d3/ddf/runpythia_8cpp.html" target="_top" xlink:title="eic&#45;smear/blob/master\l/scripts/runpythia.cpp">
<polygon fill="none" stroke="#000000" points="1487,-144.5 1487,-176.5 1618,-176.5 1618,-144.5 1487,-144.5"/>
<text text-anchor="start" x="1495" y="-163.5" font-family="FreeSans" font-size="10.00" fill="#000000">eic&#45;smear/blob/master</text>
<text text-anchor="middle" x="1552.5" y="-151.5" font-family="FreeSans" font-size="10.00" fill="#000000">/scripts/runpythia.cpp</text>
</a>
</g>
</g>
<!-- Node19&#45;&gt;Node20 -->
<g id="edge22" class="edge">
<title>Node19&#45;&gt;Node20</title>
<path fill="none" stroke="#191970" d="M1401.3183,-215.9105C1436.4332,-203.0403 1477.9186,-187.8353 1508.5407,-176.6118"/>
<polygon fill="#191970" stroke="#191970" points="1399.7821,-212.7458 1391.5973,-219.4734 1402.191,-219.3183 1399.7821,-212.7458"/>
</g>
<!-- Node19&#45;&gt;Node21 -->
<g id="edge23" class="edge">
<title>Node19&#45;&gt;Node21</title>
<path fill="none" stroke="#191970" d="M1409.1866,-218.7251C1505.3914,-197.2213 1532.7211,-200.8406 1626.5,-183 1636.935,-181.0148 1647.9291,-178.7863 1658.7048,-176.524"/>
<polygon fill="#191970" stroke="#191970" points="1408.3195,-215.3328 1399.3417,-220.9586 1409.8682,-222.1593 1408.3195,-215.3328"/>
</g>
<!-- Node23 -->
<g id="node23" class="node">
<title>Node23</title>
<g id="a_node23"><a xlink:href="../../d9/d3c/Pythia6EventFactory_8cxx.html" target="_top" xlink:title="eic&#45;smear/blob/master\l/src/hadronic/Pythia6EventFactory.cxx">
<polygon fill="none" stroke="#000000" points="926,-144.5 926,-176.5 1135,-176.5 1135,-144.5 926,-144.5"/>
<text text-anchor="start" x="934" y="-163.5" font-family="FreeSans" font-size="10.00" fill="#000000">eic&#45;smear/blob/master</text>
<text text-anchor="middle" x="1030.5" y="-151.5" font-family="FreeSans" font-size="10.00" fill="#000000">/src/hadronic/Pythia6EventFactory.cxx</text>
</a>
</g>
</g>
<!-- Node22&#45;&gt;Node23 -->
<g id="edge25" class="edge">
<title>Node22&#45;&gt;Node23</title>
<path fill="none" stroke="#191970" d="M1016.6098,-209.4176C1019.7968,-198.194 1023.2399,-186.068 1025.9009,-176.6969"/>
<polygon fill="#191970" stroke="#191970" points="1013.1495,-208.7906 1013.7849,-219.3664 1019.8833,-210.7027 1013.1495,-208.7906"/>
</g>
<!-- Node25 -->
<g id="node25" class="node">
<title>Node25</title>
<g id="a_node25"><a xlink:href="../../dc/d80/hadronic_2EventSmear_8h.html" target="_top" xlink:title="eic&#45;smear/blob/master\l/include/eicsmear/hadronic\l/EventSmear.h">
<polygon fill="none" stroke="#000000" points="1314.5,-138.5 1314.5,-182.5 1468.5,-182.5 1468.5,-138.5 1314.5,-138.5"/>
<text text-anchor="start" x="1322.5" y="-169.5" font-family="FreeSans" font-size="10.00" fill="#000000">eic&#45;smear/blob/master</text>
<text text-anchor="start" x="1322.5" y="-157.5" font-family="FreeSans" font-size="10.00" fill="#000000">/include/eicsmear/hadronic</text>
<text text-anchor="middle" x="1391.5" y="-145.5" font-family="FreeSans" font-size="10.00" fill="#000000">/EventSmear.h</text>
</a>
</g>
</g>
<!-- Node24&#45;&gt;Node25 -->
<g id="edge27" class="edge">
<title>Node24&#45;&gt;Node25</title>
<path fill="none" stroke="#191970" d="M1243.0729,-215.9036C1271.8051,-205.1788 1304.8782,-192.8335 1332.5022,-182.5222"/>
<polygon fill="#191970" stroke="#191970" points="1241.6542,-212.6973 1233.5096,-219.4734 1244.1022,-219.2553 1241.6542,-212.6973"/>
</g>
<!-- Node27 -->
<g id="node27" class="node">
<title>Node27</title>
<g id="a_node27"><a xlink:href="../../d5/da4/EventDisFactory_8h.html" target="_top" xlink:title="eic&#45;smear/blob/master\l/include/eicsmear/smear\l/EventDisFactory.h">
<polygon fill="none" stroke="#000000" points="1153,-138.5 1153,-182.5 1296,-182.5 1296,-138.5 1153,-138.5"/>
<text text-anchor="start" x="1161" y="-169.5" font-family="FreeSans" font-size="10.00" fill="#000000">eic&#45;smear/blob/master</text>
<text text-anchor="start" x="1161" y="-157.5" font-family="FreeSans" font-size="10.00" fill="#000000">/include/eicsmear/smear</text>
<text text-anchor="middle" x="1224.5" y="-145.5" font-family="FreeSans" font-size="10.00" fill="#000000">/EventDisFactory.h</text>
</a>
</g>
</g>
<!-- Node24&#45;&gt;Node27 -->
<g id="edge29" class="edge">
<title>Node24&#45;&gt;Node27</title>
<path fill="none" stroke="#191970" d="M1193.5141,-210.6971C1199.2856,-201.3474 1205.5092,-191.2651 1210.8538,-182.6068"/>
<polygon fill="#191970" stroke="#191970" points="1190.4372,-209.0186 1188.1627,-219.3664 1196.3937,-212.6955 1190.4372,-209.0186"/>
</g>
<!-- Node26 -->
<g id="node26" class="node">
<title>Node26</title>
<g id="a_node26"><a xlink:href="../../d0/df5/hadronic_2EventSmear_8cxx.html" target="_top" xlink:title="eic&#45;smear/blob/master\l/src/hadronic/EventSmear.cxx">
<polygon fill="none" stroke="#000000" points="1378.5,-69.5 1378.5,-101.5 1546.5,-101.5 1546.5,-69.5 1378.5,-69.5"/>
<text text-anchor="start" x="1386.5" y="-88.5" font-family="FreeSans" font-size="10.00" fill="#000000">eic&#45;smear/blob/master</text>
<text text-anchor="middle" x="1462.5" y="-76.5" font-family="FreeSans" font-size="10.00" fill="#000000">/src/hadronic/EventSmear.cxx</text>
</a>
</g>
</g>
<!-- Node25&#45;&gt;Node26 -->
<g id="edge28" class="edge">
<title>Node25&#45;&gt;Node26</title>
<path fill="none" stroke="#191970" d="M1419.4377,-130.9884C1428.8685,-121.0262 1439.046,-110.2753 1447.1378,-101.7277"/>
<polygon fill="#191970" stroke="#191970" points="1416.7514,-128.7349 1412.4183,-138.4032 1421.8349,-133.5473 1416.7514,-128.7349"/>
</g>
<!-- Node27&#45;&gt;Node11 -->
<g id="edge30" class="edge">
<title>Node27&#45;&gt;Node11</title>
<path fill="none" stroke="#191970" d="M1143.0546,-137.9181C1088.1268,-123.6955 1036.3303,-111.1387 996.2248,-101.6015"/>
<polygon fill="#191970" stroke="#191970" points="1142.4215,-141.3698 1152.9804,-140.4976 1144.1822,-134.5948 1142.4215,-141.3698"/>
</g>
<!-- Node28 -->
<g id="node28" class="node">
<title>Node28</title>
<g id="a_node28"><a xlink:href="../../d0/d47/EventDisFactory_8cxx.html" target="_top" xlink:title="eic&#45;smear/blob/master\l/src/smear/EventDisFactory.cxx">
<polygon fill="none" stroke="#000000" points="1186.5,-69.5 1186.5,-101.5 1360.5,-101.5 1360.5,-69.5 1186.5,-69.5"/>
<text text-anchor="start" x="1194.5" y="-88.5" font-family="FreeSans" font-size="10.00" fill="#000000">eic&#45;smear/blob/master</text>
<text text-anchor="middle" x="1273.5" y="-76.5" font-family="FreeSans" font-size="10.00" fill="#000000">/src/smear/EventDisFactory.cxx</text>
</a>
</g>
</g>
<!-- Node27&#45;&gt;Node28 -->
<g id="edge31" class="edge">
<title>Node27&#45;&gt;Node28</title>
<path fill="none" stroke="#191970" d="M1244.5489,-129.8129C1250.8382,-120.1864 1257.5325,-109.9401 1262.8979,-101.7277"/>
<polygon fill="#191970" stroke="#191970" points="1241.476,-128.1172 1238.9366,-138.4032 1247.3362,-131.9458 1241.476,-128.1172"/>
</g>
<!-- Node29 -->
<g id="node29" class="node">
<title>Node29</title>
<g id="a_node29"><a xlink:href="../../d0/d05/SmearTree_8cxx.html" target="_top" xlink:title="eic&#45;smear/blob/master\l/src/smear/SmearTree.cxx">
<polygon fill="none" stroke="#000000" points="1020.5,-69.5 1020.5,-101.5 1168.5,-101.5 1168.5,-69.5 1020.5,-69.5"/>
<text text-anchor="start" x="1028.5" y="-88.5" font-family="FreeSans" font-size="10.00" fill="#000000">eic&#45;smear/blob/master</text>
<text text-anchor="middle" x="1094.5" y="-76.5" font-family="FreeSans" font-size="10.00" fill="#000000">/src/smear/SmearTree.cxx</text>
</a>
</g>
</g>
<!-- Node27&#45;&gt;Node29 -->
<g id="edge32" class="edge">
<title>Node27&#45;&gt;Node29</title>
<path fill="none" stroke="#191970" d="M1177.3818,-133.3164C1159.0254,-122.7262 1138.6059,-110.9457 1122.628,-101.7277"/>
<polygon fill="#191970" stroke="#191970" points="1175.7879,-136.4376 1186.1988,-138.4032 1179.286,-130.3742 1175.7879,-136.4376"/>
</g>
</g>
</svg>
