<?xml version="1.0" encoding="UTF-8" standalone="no"?>
<!DOCTYPE svg PUBLIC "-//W3C//DTD SVG 1.1//EN"
 "http://www.w3.org/Graphics/SVG/1.1/DTD/svg11.dtd">
<!-- Generated by graphviz version 2.40.1 (20161225.0304)
 -->
<!-- Title: FairModule::ConstructASCIIGeometry Pages: 1 -->
<svg width="1265pt" height="136pt"
 viewBox="0.00 0.00 1265.00 136.00" xmlns="http://www.w3.org/2000/svg" xmlns:xlink="http://www.w3.org/1999/xlink">
<g id="graph0" class="graph" transform="scale(1 1) rotate(0) translate(4 132)">
<title>FairModule::ConstructASCIIGeometry</title>
<!-- Node1 -->
<g id="node1" class="node">
<title>Node1</title>
<polygon fill="#bfbfbf" stroke="#000000" points="0,-58.5 0,-78.5 203,-78.5 203,-58.5 0,-58.5"/>
<text text-anchor="middle" x="101.5" y="-65.5" font-family="FreeSans" font-size="10.00" fill="#000000">FairModule::ConstructASCIIGeometry</text>
</g>
<!-- Node2 -->
<g id="node2" class="node">
<title>Node2</title>
<g id="a_node2"><a xlink:href="../../db/da1/classFairLogger.html#aeda64cc96ca57240e30b516a508497ef" target="_top" xlink:title="FairLogger::Warning">
<polygon fill="none" stroke="#000000" points="239,-58.5 239,-78.5 356,-78.5 356,-58.5 239,-58.5"/>
<text text-anchor="middle" x="297.5" y="-65.5" font-family="FreeSans" font-size="10.00" fill="#000000">FairLogger::Warning</text>
</a>
</g>
</g>
<!-- Node1&#45;&gt;Node2 -->
<g id="edge1" class="edge">
<title>Node1&#45;&gt;Node2</title>
<path fill="none" stroke="#191970" d="M203.2316,-68.5C211.8174,-68.5 220.365,-68.5 228.6101,-68.5"/>
<polygon fill="#191970" stroke="#191970" points="228.8725,-72.0001 238.8725,-68.5 228.8724,-65.0001 228.8725,-72.0001"/>
</g>
<!-- Node3 -->
<g id="node3" class="node">
<title>Node3</title>
<g id="a_node3"><a xlink:href="../../db/da1/classFairLogger.html#ae5a926d95789678b453cbb45e0a9a46e" target="_top" xlink:title="FairLogger::IsLogNeeded">
<polygon fill="none" stroke="#000000" points="392,-78.5 392,-98.5 532,-98.5 532,-78.5 392,-78.5"/>
<text text-anchor="middle" x="462" y="-85.5" font-family="FreeSans" font-size="10.00" fill="#000000">FairLogger::IsLogNeeded</text>
</a>
</g>
</g>
<!-- Node2&#45;&gt;Node3 -->
<g id="edge2" class="edge">
<title>Node2&#45;&gt;Node3</title>
<path fill="none" stroke="#191970" d="M356.4236,-75.664C364.7064,-76.671 373.3332,-77.7198 381.9282,-78.7648"/>
<polygon fill="#191970" stroke="#191970" points="381.6316,-82.2545 391.981,-79.987 382.4765,-75.3056 381.6316,-82.2545"/>
</g>
<!-- Node4 -->
<g id="node4" class="node">
<title>Node4</title>
<g id="a_node4"><a xlink:href="../../db/da1/classFairLogger.html#aa9d98b58fab95abcf553dfefe1e572f5" target="_top" xlink:title="FairLogger::Log">
<polygon fill="none" stroke="#000000" points="415.5,-39.5 415.5,-59.5 508.5,-59.5 508.5,-39.5 415.5,-39.5"/>
<text text-anchor="middle" x="462" y="-46.5" font-family="FreeSans" font-size="10.00" fill="#000000">FairLogger::Log</text>
</a>
</g>
</g>
<!-- Node2&#45;&gt;Node4 -->
<g id="edge3" class="edge">
<title>Node2&#45;&gt;Node4</title>
<path fill="none" stroke="#191970" d="M356.4236,-61.6942C372.3049,-59.8599 389.451,-57.8795 405.213,-56.059"/>
<polygon fill="#191970" stroke="#191970" points="405.8115,-59.5132 415.3438,-54.8889 405.0083,-52.5594 405.8115,-59.5132"/>
</g>
<!-- Node5 -->
<g id="node5" class="node">
<title>Node5</title>
<g id="a_node5"><a xlink:href="../../db/da1/classFairLogger.html#a496d9b3f72963d24a58abc5a023b74b0" target="_top" xlink:title="End of the line.">
<polygon fill="none" stroke="#000000" points="602,-78.5 602,-98.5 699,-98.5 699,-78.5 602,-78.5"/>
<text text-anchor="middle" x="650.5" y="-85.5" font-family="FreeSans" font-size="10.00" fill="#000000">FairLogger::endl</text>
</a>
</g>
</g>
<!-- Node4&#45;&gt;Node5 -->
<g id="edge4" class="edge">
<title>Node4&#45;&gt;Node5</title>
<path fill="none" stroke="#191970" d="M508.5955,-59.1405C533.8273,-64.3608 565.2427,-70.8606 592.096,-76.4164"/>
<polygon fill="#191970" stroke="#191970" points="591.6403,-79.8962 602.1421,-78.4949 593.0586,-73.0414 591.6403,-79.8962"/>
</g>
<!-- Node10 -->
<g id="node10" class="node">
<title>Node10</title>
<g id="a_node10"><a xlink:href="../../db/da1/classFairLogger.html#aeb76e4a75fe913ebdf1c07b5d1f3ac1b" target="_top" xlink:title="FairLogger::GetOutputStream">
<polygon fill="none" stroke="#000000" points="568,-39.5 568,-59.5 733,-59.5 733,-39.5 568,-39.5"/>
<text text-anchor="middle" x="650.5" y="-46.5" font-family="FreeSans" font-size="10.00" fill="#000000">FairLogger::GetOutputStream</text>
</a>
</g>
</g>
<!-- Node4&#45;&gt;Node10 -->
<g id="edge10" class="edge">
<title>Node4&#45;&gt;Node10</title>
<path fill="none" stroke="#191970" d="M508.5955,-49.5C523.542,-49.5 540.6583,-49.5 557.7109,-49.5"/>
<polygon fill="#191970" stroke="#191970" points="557.7269,-53.0001 567.7269,-49.5 557.7268,-46.0001 557.7269,-53.0001"/>
</g>
<!-- Node11 -->
<g id="node11" class="node">
<title>Node11</title>
<g id="a_node11"><a xlink:href="../../db/da1/classFairLogger.html#a5529c6ab25bc075aff767f30a743e616" target="_top" xlink:title="FairLogger::OpenLogFile">
<polygon fill="none" stroke="#000000" points="781.5,-.5 781.5,-20.5 918.5,-20.5 918.5,-.5 781.5,-.5"/>
<text text-anchor="middle" x="850" y="-7.5" font-family="FreeSans" font-size="10.00" fill="#000000">FairLogger::OpenLogFile</text>
</a>
</g>
</g>
<!-- Node4&#45;&gt;Node11 -->
<g id="edge14" class="edge">
<title>Node4&#45;&gt;Node11</title>
<path fill="none" stroke="#191970" d="M508.5099,-39.4827C526.9538,-35.8363 548.4013,-32.0001 568,-29.5 636.276,-20.7903 714.3948,-15.9209 771.0719,-13.2983"/>
<polygon fill="#191970" stroke="#191970" points="771.5653,-16.7797 781.3981,-12.8343 771.251,-9.7868 771.5653,-16.7797"/>
</g>
<!-- Node6 -->
<g id="node6" class="node">
<title>Node6</title>
<g id="a_node6"><a xlink:href="../../db/da1/classFairLogger.html#aca7a4fd0af5e622c9635f62996a7334d" target="_top" xlink:title="Flush the streams.">
<polygon fill="none" stroke="#000000" points="986,-107.5 986,-127.5 1086,-127.5 1086,-107.5 986,-107.5"/>
<text text-anchor="middle" x="1036" y="-114.5" font-family="FreeSans" font-size="10.00" fill="#000000">FairLogger::flush</text>
</a>
</g>
</g>
<!-- Node5&#45;&gt;Node6 -->
<g id="edge5" class="edge">
<title>Node5&#45;&gt;Node6</title>
<path fill="none" stroke="#191970" d="M699.0197,-98.1931C720.3908,-102.0725 745.854,-106.1672 769,-108.5 839.6648,-115.6221 921.3246,-117.444 975.5415,-117.7582"/>
<polygon fill="#191970" stroke="#191970" points="975.6571,-121.2587 985.6719,-117.8012 975.6869,-114.2587 975.6571,-121.2587"/>
</g>
<!-- Node7 -->
<g id="node7" class="node">
<title>Node7</title>
<g id="a_node7"><a xlink:href="../../db/da1/classFairLogger.html#a9848989e18afa7144b47ecc38b7bfe0e" target="_top" xlink:title="FairLogger::LogFatalMessage">
<polygon fill="none" stroke="#000000" points="769,-78.5 769,-98.5 931,-98.5 931,-78.5 769,-78.5"/>
<text text-anchor="middle" x="850" y="-85.5" font-family="FreeSans" font-size="10.00" fill="#000000">FairLogger::LogFatalMessage</text>
</a>
</g>
</g>
<!-- Node5&#45;&gt;Node7 -->
<g id="edge6" class="edge">
<title>Node5&#45;&gt;Node7</title>
<path fill="none" stroke="#191970" d="M699.0481,-88.5C717.0875,-88.5 738.1922,-88.5 758.8059,-88.5"/>
<polygon fill="#191970" stroke="#191970" points="758.8704,-92.0001 768.8703,-88.5 758.8703,-85.0001 758.8704,-92.0001"/>
</g>
<!-- Node7&#45;&gt;Node6 -->
<g id="edge7" class="edge">
<title>Node7&#45;&gt;Node6</title>
<path fill="none" stroke="#191970" d="M914.2711,-98.5208C934.2114,-101.6297 956.1056,-105.0433 975.7612,-108.1079"/>
<polygon fill="#191970" stroke="#191970" points="975.3938,-111.5929 985.8136,-109.6752 976.4722,-104.6764 975.3938,-111.5929"/>
</g>
<!-- Node8 -->
<g id="node8" class="node">
<title>Node8</title>
<g id="a_node8"><a xlink:href="../../db/da1/classFairLogger.html#a6fe59f109418f1331c91c39d0ea33c1d" target="_top" xlink:title="FairLogger::GetTime">
<polygon fill="none" stroke="#000000" points="977,-58.5 977,-78.5 1095,-78.5 1095,-58.5 977,-58.5"/>
<text text-anchor="middle" x="1036" y="-65.5" font-family="FreeSans" font-size="10.00" fill="#000000">FairLogger::GetTime</text>
</a>
</g>
</g>
<!-- Node7&#45;&gt;Node8 -->
<g id="edge8" class="edge">
<title>Node7&#45;&gt;Node8</title>
<path fill="none" stroke="#191970" d="M931.0412,-79.7859C942.9288,-78.5077 955.0815,-77.2009 966.7048,-75.9511"/>
<polygon fill="#191970" stroke="#191970" points="967.1945,-79.4187 976.763,-74.8696 966.4461,-72.4588 967.1945,-79.4187"/>
</g>
<!-- Node9 -->
<g id="node9" class="node">
<title>Node9</title>
<g id="a_node9"><a xlink:href="../../df/da1/namespaceActs_1_1VectorHelpers.html#ab52a0c8023eda1c81cc9ddfe7f03b535" target="_top" xlink:title="Access to the time component of input parameter.">
<polygon fill="none" stroke="#000000" points="1141,-52.5 1141,-84.5 1257,-84.5 1257,-52.5 1141,-52.5"/>
<text text-anchor="start" x="1149" y="-71.5" font-family="FreeSans" font-size="10.00" fill="#000000">Acts::VectorHelpers</text>
<text text-anchor="middle" x="1199" y="-59.5" font-family="FreeSans" font-size="10.00" fill="#000000">::time</text>
</a>
</g>
</g>
<!-- Node8&#45;&gt;Node9 -->
<g id="edge9" class="edge">
<title>Node8&#45;&gt;Node9</title>
<path fill="none" stroke="#191970" d="M1095.3078,-68.5C1106.7836,-68.5 1118.8948,-68.5 1130.6328,-68.5"/>
<polygon fill="#191970" stroke="#191970" points="1130.8266,-72.0001 1140.8265,-68.5 1130.8265,-65.0001 1130.8266,-72.0001"/>
</g>
<!-- Node10&#45;&gt;Node8 -->
<g id="edge11" class="edge">
<title>Node10&#45;&gt;Node8</title>
<path fill="none" stroke="#191970" d="M733.1994,-53.576C802.8147,-57.0071 901.2325,-61.8578 966.7554,-65.0872"/>
<polygon fill="#191970" stroke="#191970" points="966.8193,-68.5945 976.9795,-65.5911 967.1639,-61.603 966.8193,-68.5945"/>
</g>
<!-- Node10&#45;&gt;Node11 -->
<g id="edge12" class="edge">
<title>Node10&#45;&gt;Node11</title>
<path fill="none" stroke="#191970" d="M701.8762,-39.4565C728.4045,-34.2706 760.9556,-27.9072 788.7804,-22.4677"/>
<polygon fill="#191970" stroke="#191970" points="789.6552,-25.8631 798.7979,-20.5094 788.3121,-18.9931 789.6552,-25.8631"/>
</g>
<!-- Node12 -->
<g id="node12" class="node">
<title>Node12</title>
<g id="a_node12"><a xlink:href="../../db/da1/classFairLogger.html#a80d1ac93eff9a9b6d52f8118b8b796aa" target="_top" xlink:title="FairLogger::CloseLogFile">
<polygon fill="none" stroke="#000000" points="967,-.5 967,-20.5 1105,-20.5 1105,-.5 967,-.5"/>
<text text-anchor="middle" x="1036" y="-7.5" font-family="FreeSans" font-size="10.00" fill="#000000">FairLogger::CloseLogFile</text>
</a>
</g>
</g>
<!-- Node11&#45;&gt;Node12 -->
<g id="edge13" class="edge">
<title>Node11&#45;&gt;Node12</title>
<path fill="none" stroke="#191970" d="M918.7311,-10.5C931.1428,-10.5 944.1747,-10.5 956.855,-10.5"/>
<polygon fill="#191970" stroke="#191970" points="956.9305,-14.0001 966.9305,-10.5 956.9304,-7.0001 956.9305,-14.0001"/>
</g>
</g>
</svg>
