<?xml version="1.0" encoding="UTF-8" standalone="no"?>
<!DOCTYPE svg PUBLIC "-//W3C//DTD SVG 1.1//EN"
 "http://www.w3.org/Graphics/SVG/1.1/DTD/svg11.dtd">
<!-- Generated by graphviz version 2.40.1 (20161225.0304)
 -->
<!-- Title: eASTDetectorConstruction::eASTDetectorConstruction Pages: 1 -->
<svg width="774pt" height="41pt"
 viewBox="0.00 0.00 774.00 41.00" xmlns="http://www.w3.org/2000/svg" xmlns:xlink="http://www.w3.org/1999/xlink">
<g id="graph0" class="graph" transform="scale(1 1) rotate(0) translate(4 37)">
<title>eASTDetectorConstruction::eASTDetectorConstruction</title>
<!-- Node1 -->
<g id="node1" class="node">
<title>Node1</title>
<polygon fill="#bfbfbf" stroke="#000000" points="0,-.5 0,-32.5 156,-32.5 156,-.5 0,-.5"/>
<text text-anchor="start" x="8" y="-19.5" font-family="FreeSans" font-size="10.00" fill="#000000">eASTDetectorConstruction</text>
<text text-anchor="middle" x="78" y="-7.5" font-family="FreeSans" font-size="10.00" fill="#000000">::eASTDetectorConstruction</text>
</g>
<!-- Node2 -->
<g id="node2" class="node">
<title>Node2</title>
<g id="a_node2"><a xlink:href="../../d0/dd0/classeASTDetectorConstruction.html#a0902cfdf2cc1b637f30a2d104cb063b0" target="_top" xlink:title="eASTDetectorConstruction\l::Instance">
<polygon fill="none" stroke="#000000" points="192,-.5 192,-32.5 342,-32.5 342,-.5 192,-.5"/>
<text text-anchor="start" x="200" y="-19.5" font-family="FreeSans" font-size="10.00" fill="#000000">eASTDetectorConstruction</text>
<text text-anchor="middle" x="267" y="-7.5" font-family="FreeSans" font-size="10.00" fill="#000000">::Instance</text>
</a>
</g>
</g>
<!-- Node1&#45;&gt;Node2 -->
<g id="edge1" class="edge">
<title>Node1&#45;&gt;Node2</title>
<path fill="none" stroke="#191970" d="M166.2429,-16.5C174.807,-16.5 183.44,-16.5 191.8589,-16.5"/>
<polygon fill="#191970" stroke="#191970" points="166.2379,-13.0001 156.2378,-16.5 166.2378,-20.0001 166.2379,-13.0001"/>
</g>
<!-- Node3 -->
<g id="node3" class="node">
<title>Node3</title>
<g id="a_node3"><a xlink:href="../../d6/d91/classeASTVDetectorComponent.html#a393815ae816fb86faa0332322952f6c4" target="_top" xlink:title="eASTVDetectorComponent\l::SetUpBase">
<polygon fill="none" stroke="#000000" points="378,-.5 378,-32.5 530,-32.5 530,-.5 378,-.5"/>
<text text-anchor="start" x="386" y="-19.5" font-family="FreeSans" font-size="10.00" fill="#000000">eASTVDetectorComponent</text>
<text text-anchor="middle" x="454" y="-7.5" font-family="FreeSans" font-size="10.00" fill="#000000">::SetUpBase</text>
</a>
</g>
</g>
<!-- Node2&#45;&gt;Node3 -->
<g id="edge2" class="edge">
<title>Node2&#45;&gt;Node3</title>
<path fill="none" stroke="#191970" d="M352.2628,-16.5C360.8421,-16.5 369.5146,-16.5 377.9884,-16.5"/>
<polygon fill="#191970" stroke="#191970" points="352.2518,-13.0001 342.2517,-16.5 352.2517,-20.0001 352.2518,-13.0001"/>
</g>
<!-- Node4 -->
<g id="node4" class="node">
<title>Node4</title>
<g id="a_node4"><a xlink:href="../../da/d3e/classeASTDetectorComponentMessenger.html#af1224018ded37668198f6a680fc73467" target="_top" xlink:title="eASTDetectorComponentMessenger\l::SetNewValue">
<polygon fill="none" stroke="#000000" points="566,-.5 566,-32.5 766,-32.5 766,-.5 566,-.5"/>
<text text-anchor="start" x="574" y="-19.5" font-family="FreeSans" font-size="10.00" fill="#000000">eASTDetectorComponentMessenger</text>
<text text-anchor="middle" x="666" y="-7.5" font-family="FreeSans" font-size="10.00" fill="#000000">::SetNewValue</text>
</a>
</g>
</g>
<!-- Node3&#45;&gt;Node4 -->
<g id="edge3" class="edge">
<title>Node3&#45;&gt;Node4</title>
<path fill="none" stroke="#191970" d="M540.3359,-16.5C548.6956,-16.5 557.2244,-16.5 565.7045,-16.5"/>
<polygon fill="#191970" stroke="#191970" points="540.2374,-13.0001 530.2374,-16.5 540.2373,-20.0001 540.2374,-13.0001"/>
</g>
</g>
</svg>
