<?xml version="1.0" encoding="UTF-8" standalone="no"?>
<!DOCTYPE svg PUBLIC "-//W3C//DTD SVG 1.1//EN"
 "http://www.w3.org/Graphics/SVG/1.1/DTD/svg11.dtd">
<!-- Generated by graphviz version 2.40.1 (20161225.0304)
 -->
<!-- Title: eASTPrimaryGeneratorAction::eASTPrimaryGeneratorAction Pages: 1 -->
<svg width="857pt" height="194pt"
 viewBox="0.00 0.00 857.00 194.00" xmlns="http://www.w3.org/2000/svg" xmlns:xlink="http://www.w3.org/1999/xlink">
<g id="graph0" class="graph" transform="scale(1 1) rotate(0) translate(4 190)">
<title>eASTPrimaryGeneratorAction::eASTPrimaryGeneratorAction</title>
<!-- Node1 -->
<g id="node1" class="node">
<title>Node1</title>
<polygon fill="#bfbfbf" stroke="#000000" points="0,-76.5 0,-108.5 170,-108.5 170,-76.5 0,-76.5"/>
<text text-anchor="start" x="8" y="-95.5" font-family="FreeSans" font-size="10.00" fill="#000000">eASTPrimaryGeneratorAction</text>
<text text-anchor="middle" x="85" y="-83.5" font-family="FreeSans" font-size="10.00" fill="#000000">::eASTPrimaryGeneratorAction</text>
</g>
<!-- Node2 -->
<g id="node2" class="node">
<title>Node2</title>
<g id="a_node2"><a xlink:href="../../d6/dc4/classeASTHepMC3Interface.html#ab17ba69e99dd5ea236a8a13a22683504" target="_top" xlink:title="eASTHepMC3Interface\l::GetInstance">
<polygon fill="none" stroke="#000000" points="206,-76.5 206,-108.5 335,-108.5 335,-76.5 206,-76.5"/>
<text text-anchor="start" x="214" y="-95.5" font-family="FreeSans" font-size="10.00" fill="#000000">eASTHepMC3Interface</text>
<text text-anchor="middle" x="270.5" y="-83.5" font-family="FreeSans" font-size="10.00" fill="#000000">::GetInstance</text>
</a>
</g>
</g>
<!-- Node1&#45;&gt;Node2 -->
<g id="edge1" class="edge">
<title>Node1&#45;&gt;Node2</title>
<path fill="none" stroke="#191970" d="M170.1492,-92.5C178.681,-92.5 187.2991,-92.5 195.7122,-92.5"/>
<polygon fill="#191970" stroke="#191970" points="195.8531,-96.0001 205.853,-92.5 195.853,-89.0001 195.8531,-96.0001"/>
</g>
<!-- Node3 -->
<g id="node3" class="node">
<title>Node3</title>
<g id="a_node3"><a xlink:href="../../d6/dc4/classeASTHepMC3Interface.html#a23cbdfdb6ccb33ea4a8a39b37a722c46" target="_top" xlink:title="eASTHepMC3Interface\l::eASTHepMC3Interface">
<polygon fill="none" stroke="#000000" points="371,-76.5 371,-108.5 507,-108.5 507,-76.5 371,-76.5"/>
<text text-anchor="start" x="379" y="-95.5" font-family="FreeSans" font-size="10.00" fill="#000000">eASTHepMC3Interface</text>
<text text-anchor="middle" x="439" y="-83.5" font-family="FreeSans" font-size="10.00" fill="#000000">::eASTHepMC3Interface</text>
</a>
</g>
</g>
<!-- Node2&#45;&gt;Node3 -->
<g id="edge2" class="edge">
<title>Node2&#45;&gt;Node3</title>
<path fill="none" stroke="#191970" d="M335.1646,-92.5C343.5696,-92.5 352.2498,-92.5 360.8451,-92.5"/>
<polygon fill="#191970" stroke="#191970" points="360.8745,-96.0001 370.8744,-92.5 360.8744,-89.0001 360.8745,-96.0001"/>
</g>
<!-- Node4 -->
<g id="node4" class="node">
<title>Node4</title>
<g id="a_node4"><a xlink:href="../../d6/dc4/classeASTHepMC3Interface.html#a547b7cf87dde38639b73fe62edcb5c41" target="_top" xlink:title="eASTHepMC3Interface\l::OpenFile">
<polygon fill="none" stroke="#000000" points="543,-153.5 543,-185.5 672,-185.5 672,-153.5 543,-153.5"/>
<text text-anchor="start" x="551" y="-172.5" font-family="FreeSans" font-size="10.00" fill="#000000">eASTHepMC3Interface</text>
<text text-anchor="middle" x="607.5" y="-160.5" font-family="FreeSans" font-size="10.00" fill="#000000">::OpenFile</text>
</a>
</g>
</g>
<!-- Node3&#45;&gt;Node4 -->
<g id="edge3" class="edge">
<title>Node3&#45;&gt;Node4</title>
<path fill="none" stroke="#191970" d="M469.1312,-108.5061C489.7042,-119.2009 517.7108,-133.3062 543,-144.5 546.8299,-146.1952 550.8134,-147.8926 554.8375,-149.56"/>
<polygon fill="#191970" stroke="#191970" points="553.6656,-152.8616 564.2477,-153.3811 556.2992,-146.3759 553.6656,-152.8616"/>
</g>
<!-- Node6 -->
<g id="node6" class="node">
<title>Node6</title>
<g id="a_node6"><a xlink:href="../../d6/dc4/classeASTHepMC3Interface.html#a6b258ed39f4b3e4c8979586cdeb2f202" target="_top" xlink:title="eASTHepMC3Interface\l::SetVerbose">
<polygon fill="none" stroke="#000000" points="543,-102.5 543,-134.5 672,-134.5 672,-102.5 543,-102.5"/>
<text text-anchor="start" x="551" y="-121.5" font-family="FreeSans" font-size="10.00" fill="#000000">eASTHepMC3Interface</text>
<text text-anchor="middle" x="607.5" y="-109.5" font-family="FreeSans" font-size="10.00" fill="#000000">::SetVerbose</text>
</a>
</g>
</g>
<!-- Node3&#45;&gt;Node6 -->
<g id="edge5" class="edge">
<title>Node3&#45;&gt;Node6</title>
<path fill="none" stroke="#191970" d="M507.0497,-103.0003C515.5184,-104.307 524.2141,-105.6488 532.7768,-106.97"/>
<polygon fill="#191970" stroke="#191970" points="532.3292,-110.4423 542.746,-108.5083 533.3968,-103.5242 532.3292,-110.4423"/>
</g>
<!-- Node7 -->
<g id="node7" class="node">
<title>Node7</title>
<g id="a_node7"><a xlink:href="../../d6/dc4/classeASTHepMC3Interface.html#afcd0b318bda711a448fd85c5bd6476d8" target="_top" xlink:title="eASTHepMC3Interface\l::SetVertexPosition">
<polygon fill="none" stroke="#000000" points="543,-51.5 543,-83.5 672,-83.5 672,-51.5 543,-51.5"/>
<text text-anchor="start" x="551" y="-70.5" font-family="FreeSans" font-size="10.00" fill="#000000">eASTHepMC3Interface</text>
<text text-anchor="middle" x="607.5" y="-58.5" font-family="FreeSans" font-size="10.00" fill="#000000">::SetVertexPosition</text>
</a>
</g>
</g>
<!-- Node3&#45;&gt;Node7 -->
<g id="edge6" class="edge">
<title>Node3&#45;&gt;Node7</title>
<path fill="none" stroke="#191970" d="M507.0497,-82.4036C515.5184,-81.1471 524.2141,-79.857 532.7768,-78.5865"/>
<polygon fill="#191970" stroke="#191970" points="533.368,-82.0372 542.746,-77.1074 532.3406,-75.113 533.368,-82.0372"/>
</g>
<!-- Node8 -->
<g id="node8" class="node">
<title>Node8</title>
<g id="a_node8"><a xlink:href="../../d6/dc4/classeASTHepMC3Interface.html#a08d809b699896f34de9cfba2444dcef4" target="_top" xlink:title="eASTHepMC3Interface\l::SetVertexTime">
<polygon fill="none" stroke="#000000" points="543,-.5 543,-32.5 672,-32.5 672,-.5 543,-.5"/>
<text text-anchor="start" x="551" y="-19.5" font-family="FreeSans" font-size="10.00" fill="#000000">eASTHepMC3Interface</text>
<text text-anchor="middle" x="607.5" y="-7.5" font-family="FreeSans" font-size="10.00" fill="#000000">::SetVertexTime</text>
</a>
</g>
</g>
<!-- Node3&#45;&gt;Node8 -->
<g id="edge7" class="edge">
<title>Node3&#45;&gt;Node8</title>
<path fill="none" stroke="#191970" d="M471.0729,-76.4153C491.5051,-66.3345 518.6238,-53.2591 543,-42.5 547.4596,-40.5316 552.1169,-38.5374 556.7985,-36.5745"/>
<polygon fill="#191970" stroke="#191970" points="558.4847,-39.6647 566.387,-32.6075 555.8086,-33.1964 558.4847,-39.6647"/>
</g>
<!-- Node5 -->
<g id="node5" class="node">
<title>Node5</title>
<g id="a_node5"><a xlink:href="../../dc/dd2/namespaceHepMC3.html#ad2ce2bf9a9f8d93d6ecf1e33c7958524" target="_top" xlink:title="This function will deduce the type of input stream based on its content and will return appropriate R...">
<polygon fill="none" stroke="#000000" points="708,-159.5 708,-179.5 849,-179.5 849,-159.5 708,-159.5"/>
<text text-anchor="middle" x="778.5" y="-166.5" font-family="FreeSans" font-size="10.00" fill="#000000">HepMC3::deduce_reader</text>
</a>
</g>
</g>
<!-- Node4&#45;&gt;Node5 -->
<g id="edge4" class="edge">
<title>Node4&#45;&gt;Node5</title>
<path fill="none" stroke="#191970" d="M672.1478,-169.5C680.5091,-169.5 689.1538,-169.5 697.7347,-169.5"/>
<polygon fill="#191970" stroke="#191970" points="697.7578,-173.0001 707.7578,-169.5 697.7578,-166.0001 697.7578,-173.0001"/>
</g>
</g>
</svg>
