<?xml version="1.0" encoding="UTF-8" standalone="no"?>
<!DOCTYPE svg PUBLIC "-//W3C//DTD SVG 1.1//EN"
 "http://www.w3.org/Graphics/SVG/1.1/DTD/svg11.dtd">
<!-- Generated by graphviz version 2.40.1 (20161225.0304)
 -->
<!-- Title: PHG4GDMLWrite::ExtensionWrite Pages: 1 -->
<svg width="1272pt" height="482pt"
 viewBox="0.00 0.00 1272.00 482.00" xmlns="http://www.w3.org/2000/svg" xmlns:xlink="http://www.w3.org/1999/xlink">
<g id="graph0" class="graph" transform="scale(1 1) rotate(0) translate(4 478)">
<title>PHG4GDMLWrite::ExtensionWrite</title>
<!-- Node1 -->
<g id="node1" class="node">
<title>Node1</title>
<polygon fill="#bfbfbf" stroke="#000000" points="0,-248.5 0,-280.5 156,-280.5 156,-248.5 0,-248.5"/>
<text text-anchor="start" x="8" y="-267.5" font-family="FreeSans" font-size="10.00" fill="#000000">PHG4GDMLWrite::Extension</text>
<text text-anchor="middle" x="78" y="-255.5" font-family="FreeSans" font-size="10.00" fill="#000000">Write</text>
</g>
<!-- Node2 -->
<g id="node2" class="node">
<title>Node2</title>
<g id="a_node2"><a xlink:href="../../dd/db5/classPHG4GDMLWrite.html#af4241e53bb71408c9bf11117053f9810" target="_top" xlink:title="PHG4GDMLWrite::Write">
<polygon fill="none" stroke="#000000" points="192,-254.5 192,-274.5 325,-274.5 325,-254.5 192,-254.5"/>
<text text-anchor="middle" x="258.5" y="-261.5" font-family="FreeSans" font-size="10.00" fill="#000000">PHG4GDMLWrite::Write</text>
</a>
</g>
</g>
<!-- Node1&#45;&gt;Node2 -->
<g id="edge1" class="edge">
<title>Node1&#45;&gt;Node2</title>
<path fill="none" stroke="#191970" d="M166.2182,-264.5C174.846,-264.5 183.4986,-264.5 191.8603,-264.5"/>
<polygon fill="#191970" stroke="#191970" points="166.1202,-261.0001 156.1201,-264.5 166.1201,-268.0001 166.1202,-261.0001"/>
</g>
<!-- Node3 -->
<g id="node3" class="node">
<title>Node3</title>
<g id="a_node3"><a xlink:href="../../d9/df8/classPHG4GDMLUtility.html#adb03ec38807279cb5abaf38987c5a73f" target="_top" xlink:title="save the current Geant4 geometry to GDML file. Reading PHG4GDMLConfig from topNode">
<polygon fill="none" stroke="#000000" points="361,-277.5 361,-297.5 536,-297.5 536,-277.5 361,-277.5"/>
<text text-anchor="middle" x="448.5" y="-284.5" font-family="FreeSans" font-size="10.00" fill="#000000">PHG4GDMLUtility::Dump_GDML</text>
</a>
</g>
</g>
<!-- Node2&#45;&gt;Node3 -->
<g id="edge2" class="edge">
<title>Node2&#45;&gt;Node3</title>
<path fill="none" stroke="#191970" d="M335.4463,-273.8146C345.3728,-275.0162 355.5724,-276.2509 365.5897,-277.4635"/>
<polygon fill="#191970" stroke="#191970" points="335.5679,-270.3038 325.2197,-272.5766 334.7266,-277.2531 335.5679,-270.3038"/>
</g>
<!-- Node25 -->
<g id="node25" class="node">
<title>Node25</title>
<g id="a_node25"><a xlink:href="../../d2/d72/classPHG4GDMLWriteStructure.html#a957c6f2d283732660e3eb9c41b982048" target="_top" xlink:title="PHG4GDMLWriteStructure\l::TraverseVolumeTree">
<polygon fill="none" stroke="#000000" points="375.5,-226.5 375.5,-258.5 521.5,-258.5 521.5,-226.5 375.5,-226.5"/>
<text text-anchor="start" x="383.5" y="-245.5" font-family="FreeSans" font-size="10.00" fill="#000000">PHG4GDMLWriteStructure</text>
<text text-anchor="middle" x="448.5" y="-233.5" font-family="FreeSans" font-size="10.00" fill="#000000">::TraverseVolumeTree</text>
</a>
</g>
</g>
<!-- Node2&#45;&gt;Node25 -->
<g id="edge24" class="edge">
<title>Node2&#45;&gt;Node25</title>
<path fill="none" stroke="#191970" d="M335.2562,-255.6124C348.5303,-254.0754 362.2981,-252.4813 375.4699,-250.9561"/>
<polygon fill="#191970" stroke="#191970" points="334.7508,-252.1475 325.2197,-256.7746 335.556,-259.101 334.7508,-252.1475"/>
</g>
<!-- Node4 -->
<g id="node4" class="node">
<title>Node4</title>
<g id="a_node4"><a xlink:href="../../d0/d78/classPHG4Reco.html#a490f5037508d384c5b60855ef0f7e227" target="_top" xlink:title="PHG4Reco::Dump_GDML">
<polygon fill="none" stroke="#000000" points="572,-277.5 572,-297.5 713,-297.5 713,-277.5 572,-277.5"/>
<text text-anchor="middle" x="642.5" y="-284.5" font-family="FreeSans" font-size="10.00" fill="#000000">PHG4Reco::Dump_GDML</text>
</a>
</g>
</g>
<!-- Node3&#45;&gt;Node4 -->
<g id="edge3" class="edge">
<title>Node3&#45;&gt;Node4</title>
<path fill="none" stroke="#191970" d="M546.2462,-287.5C554.8703,-287.5 563.4865,-287.5 571.8221,-287.5"/>
<polygon fill="#191970" stroke="#191970" points="546.1351,-284.0001 536.1351,-287.5 546.135,-291.0001 546.1351,-284.0001"/>
</g>
<!-- Node5 -->
<g id="node5" class="node">
<title>Node5</title>
<g id="a_node5"><a xlink:href="../../d0/d78/classPHG4Reco.html#a9d8228ce8682c19cd6be2f6b44ec847b" target="_top" xlink:title="PHG4Reco::InitRun">
<polygon fill="none" stroke="#000000" points="749,-277.5 749,-297.5 859,-297.5 859,-277.5 749,-277.5"/>
<text text-anchor="middle" x="804" y="-284.5" font-family="FreeSans" font-size="10.00" fill="#000000">PHG4Reco::InitRun</text>
</a>
</g>
</g>
<!-- Node4&#45;&gt;Node5 -->
<g id="edge4" class="edge">
<title>Node4&#45;&gt;Node5</title>
<path fill="none" stroke="#191970" d="M723.3931,-287.5C731.9791,-287.5 740.5628,-287.5 748.7562,-287.5"/>
<polygon fill="#191970" stroke="#191970" points="723.3363,-284.0001 713.3363,-287.5 723.3362,-291.0001 723.3363,-284.0001"/>
</g>
<!-- Node6 -->
<g id="node6" class="node">
<title>Node6</title>
<g id="a_node6"><a xlink:href="../../d3/d42/Fun4All__G4__QtDisplay_8C.html#a7fc9d96420ef1de5f1fc43a1657ac8bf" target="_top" xlink:title="Fun4All_G4_QtDisplay">
<polygon fill="none" stroke="#000000" points="907.5,-406.5 907.5,-426.5 1034.5,-426.5 1034.5,-406.5 907.5,-406.5"/>
<text text-anchor="middle" x="971" y="-413.5" font-family="FreeSans" font-size="10.00" fill="#000000">Fun4All_G4_QtDisplay</text>
</a>
</g>
</g>
<!-- Node5&#45;&gt;Node6 -->
<g id="edge5" class="edge">
<title>Node5&#45;&gt;Node6</title>
<path fill="none" stroke="#191970" d="M814.3739,-306.3347C829.0288,-331.1298 858.1621,-374.2857 895,-397.5 900.7532,-401.1255 907.1582,-404.0596 913.741,-406.4341"/>
<polygon fill="#191970" stroke="#191970" points="817.3302,-304.4541 809.3191,-297.5207 811.2579,-307.9366 817.3302,-304.4541"/>
</g>
<!-- Node7 -->
<g id="node7" class="node">
<title>Node7</title>
<g id="a_node7"><a xlink:href="../../d7/da9/Fun4All__G4__Tracking_8C.html#acaee55add6a4a54eb182c6120db9649a" target="_top" xlink:title="Fun4All_G4_Tracking">
<polygon fill="none" stroke="#000000" points="911,-367.5 911,-387.5 1031,-387.5 1031,-367.5 911,-367.5"/>
<text text-anchor="middle" x="971" y="-374.5" font-family="FreeSans" font-size="10.00" fill="#000000">Fun4All_G4_Tracking</text>
</a>
</g>
</g>
<!-- Node5&#45;&gt;Node7 -->
<g id="edge6" class="edge">
<title>Node5&#45;&gt;Node7</title>
<path fill="none" stroke="#191970" d="M821.5277,-304.8726C838.8094,-321.0497 866.6757,-344.6858 895,-358.5 902.3345,-362.0771 910.4057,-365.0212 918.4655,-367.4324"/>
<polygon fill="#191970" stroke="#191970" points="823.582,-301.9939 813.9385,-297.606 818.7409,-307.05 823.582,-301.9939"/>
</g>
<!-- Node8 -->
<g id="node8" class="node">
<title>Node8</title>
<g id="a_node8"><a xlink:href="../../d5/df2/Fun4All__EIC__Generator__Display_8C.html#a276181099936efe81415286b29f36e51" target="_top" xlink:title="Fun4All_EIC_Generator\l_Display">
<polygon fill="none" stroke="#000000" points="905,-316.5 905,-348.5 1037,-348.5 1037,-316.5 905,-316.5"/>
<text text-anchor="start" x="913" y="-335.5" font-family="FreeSans" font-size="10.00" fill="#000000">Fun4All_EIC_Generator</text>
<text text-anchor="middle" x="971" y="-323.5" font-family="FreeSans" font-size="10.00" fill="#000000">_Display</text>
</a>
</g>
</g>
<!-- Node5&#45;&gt;Node8 -->
<g id="edge7" class="edge">
<title>Node5&#45;&gt;Node8</title>
<path fill="none" stroke="#191970" d="M851.2325,-300.2273C869.9178,-305.2623 891.6105,-311.1076 911.3594,-316.4292"/>
<polygon fill="#191970" stroke="#191970" points="852.0443,-296.8213 841.4781,-297.5989 850.223,-303.5802 852.0443,-296.8213"/>
</g>
<!-- Node9 -->
<g id="node9" class="node">
<title>Node9</title>
<g id="a_node9"><a xlink:href="../../d6/db7/fun4all__eicmacros_2blob_2master_2detectors_2AllSilicon_2DisplayOn_8C.html#a36f5cc4ebb7cd23dac7e492d5c38fbc0" target="_top" xlink:title="QTGui">
<polygon fill="none" stroke="#000000" points="947.5,-277.5 947.5,-297.5 994.5,-297.5 994.5,-277.5 947.5,-277.5"/>
<text text-anchor="middle" x="971" y="-284.5" font-family="FreeSans" font-size="10.00" fill="#000000">QTGui</text>
</a>
</g>
</g>
<!-- Node5&#45;&gt;Node9 -->
<g id="edge8" class="edge">
<title>Node5&#45;&gt;Node9</title>
<path fill="none" stroke="#191970" d="M869.468,-287.5C896.8173,-287.5 926.8768,-287.5 947.1382,-287.5"/>
<polygon fill="#191970" stroke="#191970" points="869.1449,-284.0001 859.1449,-287.5 869.1448,-291.0001 869.1449,-284.0001"/>
</g>
<!-- Node10 -->
<g id="node10" class="node">
<title>Node10</title>
<g id="a_node10"><a xlink:href="../../d6/db7/fun4all__eicmacros_2blob_2master_2detectors_2AllSilicon_2DisplayOn_8C.html#a8ac4d6fb78f920957b354f88d6195f54" target="_top" xlink:title="DisplayOn">
<polygon fill="none" stroke="#000000" points="937,-238.5 937,-258.5 1005,-258.5 1005,-238.5 937,-238.5"/>
<text text-anchor="middle" x="971" y="-245.5" font-family="FreeSans" font-size="10.00" fill="#000000">DisplayOn</text>
</a>
</g>
</g>
<!-- Node5&#45;&gt;Node10 -->
<g id="edge9" class="edge">
<title>Node5&#45;&gt;Node10</title>
<path fill="none" stroke="#191970" d="M856.7794,-275.1743C882.9436,-269.0641 913.784,-261.8618 936.8194,-256.4823"/>
<polygon fill="#191970" stroke="#191970" points="855.9487,-271.774 847.0066,-277.4565 857.5406,-278.5906 855.9487,-271.774"/>
</g>
<!-- Node23 -->
<g id="node23" class="node">
<title>Node23</title>
<g id="a_node23"><a xlink:href="../../d4/dfa/Fun4All__Generator__Display_8C.html#af87924a94b22e18901f0d64805565f09" target="_top" xlink:title="Fun4All_Generator_Display">
<polygon fill="none" stroke="#000000" points="895,-199.5 895,-219.5 1047,-219.5 1047,-199.5 895,-199.5"/>
<text text-anchor="middle" x="971" y="-206.5" font-family="FreeSans" font-size="10.00" fill="#000000">Fun4All_Generator_Display</text>
</a>
</g>
</g>
<!-- Node5&#45;&gt;Node23 -->
<g id="edge22" class="edge">
<title>Node5&#45;&gt;Node23</title>
<path fill="none" stroke="#191970" d="M825.2972,-271.2201C843.09,-258.3028 869.5675,-240.6258 895,-229.5 903.9999,-225.5628 913.9491,-222.2583 923.6017,-219.542"/>
<polygon fill="#191970" stroke="#191970" points="822.7925,-268.7195 816.8359,-277.4813 826.9564,-274.3464 822.7925,-268.7195"/>
</g>
<!-- Node24 -->
<g id="node24" class="node">
<title>Node24</title>
<g id="a_node24"><a xlink:href="../../dd/d94/fun4all__tutorials_2blob_2master_2materialscan_2matscan_8C.html#a98ccbc6135fead542f3c4d1dd6882d63" target="_top" xlink:title="matscan">
<polygon fill="none" stroke="#000000" points="941.5,-160.5 941.5,-180.5 1000.5,-180.5 1000.5,-160.5 941.5,-160.5"/>
<text text-anchor="middle" x="971" y="-167.5" font-family="FreeSans" font-size="10.00" fill="#000000">matscan</text>
</a>
</g>
</g>
<!-- Node5&#45;&gt;Node24 -->
<g id="edge23" class="edge">
<title>Node5&#45;&gt;Node24</title>
<path fill="none" stroke="#191970" d="M816.5613,-268.7193C832.2987,-246.6677 861.3265,-210.5621 895,-190.5 909.0653,-182.1201 926.6436,-177.2018 941.351,-174.3412"/>
<polygon fill="#191970" stroke="#191970" points="813.4857,-267.012 810.6555,-277.2218 819.2349,-271.0053 813.4857,-267.012"/>
</g>
<!-- Node11 -->
<g id="node11" class="node">
<title>Node11</title>
<g id="a_node11"><a xlink:href="../../db/dc0/Fun4All__AnaTutorial_8C.html#aeb927fc74810ef9bc0c056302f1fbe69" target="_top" xlink:title="Fun4All_AnaTutorial">
<polygon fill="none" stroke="#000000" points="1116,-453.5 1116,-473.5 1231,-473.5 1231,-453.5 1116,-453.5"/>
<text text-anchor="middle" x="1173.5" y="-460.5" font-family="FreeSans" font-size="10.00" fill="#000000">Fun4All_AnaTutorial</text>
</a>
</g>
</g>
<!-- Node10&#45;&gt;Node11 -->
<g id="edge10" class="edge">
<title>Node10&#45;&gt;Node11</title>
<path fill="none" stroke="#191970" d="M1015.152,-251.6607C1026.9108,-254.5662 1038.6497,-259.6723 1047,-268.5 1101.8667,-326.5031 1026.6896,-387.8974 1083,-444.5 1091.8317,-453.3776 1103.6831,-458.6092 1115.8942,-461.5925"/>
<polygon fill="#191970" stroke="#191970" points="1015.8352,-248.2282 1005.3437,-249.7043 1014.4658,-255.0929 1015.8352,-248.2282"/>
</g>
<!-- Node12 -->
<g id="node12" class="node">
<title>Node12</title>
<g id="a_node12"><a xlink:href="../../dd/d28/Fun4All__AnaTutorial__Jets_8C.html#a49f0c60dbca7146b42abc2eedf173722" target="_top" xlink:title="Fun4All_AnaTutorial_Jets">
<polygon fill="none" stroke="#000000" points="1104,-414.5 1104,-434.5 1243,-434.5 1243,-414.5 1104,-414.5"/>
<text text-anchor="middle" x="1173.5" y="-421.5" font-family="FreeSans" font-size="10.00" fill="#000000">Fun4All_AnaTutorial_Jets</text>
</a>
</g>
</g>
<!-- Node10&#45;&gt;Node12 -->
<g id="edge11" class="edge">
<title>Node10&#45;&gt;Node12</title>
<path fill="none" stroke="#191970" d="M1015.1978,-252.047C1026.8332,-254.9722 1038.4951,-259.9921 1047,-268.5 1091.5086,-313.0246 1037.384,-362.1107 1083,-405.5 1088.9326,-411.143 1096.0932,-415.2917 1103.757,-418.3175"/>
<polygon fill="#191970" stroke="#191970" points="1015.5572,-248.5484 1005.0596,-249.9806 1014.1591,-255.4074 1015.5572,-248.5484"/>
</g>
<!-- Node13 -->
<g id="node13" class="node">
<title>Node13</title>
<g id="a_node13"><a xlink:href="../../d8/d14/Fun4All__G4__Babar_8C.html#ae3babc7f493f8a671f129ef3084ebc23" target="_top" xlink:title="Fun4All_G4_Babar">
<polygon fill="none" stroke="#000000" points="1119,-375.5 1119,-395.5 1228,-395.5 1228,-375.5 1119,-375.5"/>
<text text-anchor="middle" x="1173.5" y="-382.5" font-family="FreeSans" font-size="10.00" fill="#000000">Fun4All_G4_Babar</text>
</a>
</g>
</g>
<!-- Node10&#45;&gt;Node13 -->
<g id="edge12" class="edge">
<title>Node10&#45;&gt;Node13</title>
<path fill="none" stroke="#191970" d="M1015.301,-252.7368C1026.7283,-255.6874 1038.2565,-260.5478 1047,-268.5 1081.3273,-299.7206 1047.8972,-336.154 1083,-366.5 1092.959,-375.1095 1105.8234,-380.1529 1118.71,-383.0315"/>
<polygon fill="#191970" stroke="#191970" points="1015.8687,-249.2791 1005.3573,-250.6058 1014.4018,-256.1236 1015.8687,-249.2791"/>
</g>
<!-- Node14 -->
<g id="node14" class="node">
<title>Node14</title>
<g id="a_node14"><a xlink:href="../../df/d9d/fun4all__eicmacros_2blob_2master_2detectors_2Beast_2Fun4All__G4__Beast_8C.html#aa12a55b170fc12d7549cea7cc497eb38" target="_top" xlink:title="Fun4All_G4_Beast">
<polygon fill="none" stroke="#000000" points="1120,-336.5 1120,-356.5 1227,-356.5 1227,-336.5 1120,-336.5"/>
<text text-anchor="middle" x="1173.5" y="-343.5" font-family="FreeSans" font-size="10.00" fill="#000000">Fun4All_G4_Beast</text>
</a>
</g>
</g>
<!-- Node10&#45;&gt;Node14 -->
<g id="edge13" class="edge">
<title>Node10&#45;&gt;Node14</title>
<path fill="none" stroke="#191970" d="M1015.2875,-254.1596C1026.407,-257.1247 1037.7844,-261.6367 1047,-268.5 1071.6365,-286.8479 1057.9091,-309.7785 1083,-327.5 1093.7529,-335.0947 1106.9026,-339.7735 1119.8103,-342.6251"/>
<polygon fill="#191970" stroke="#191970" points="1015.7473,-250.6742 1005.2177,-251.8484 1014.1813,-257.4968 1015.7473,-250.6742"/>
</g>
<!-- Node15 -->
<g id="node15" class="node">
<title>Node15</title>
<g id="a_node15"><a xlink:href="../../de/dcc/Fun4All__G4__Cleo_8C.html#ae4d584d6f7864ddc358a5cb1bf03bfa5" target="_top" xlink:title="Fun4All_G4_Cleo">
<polygon fill="none" stroke="#000000" points="1123.5,-297.5 1123.5,-317.5 1223.5,-317.5 1223.5,-297.5 1123.5,-297.5"/>
<text text-anchor="middle" x="1173.5" y="-304.5" font-family="FreeSans" font-size="10.00" fill="#000000">Fun4All_G4_Cleo</text>
</a>
</g>
</g>
<!-- Node10&#45;&gt;Node15 -->
<g id="edge14" class="edge">
<title>Node10&#45;&gt;Node15</title>
<path fill="none" stroke="#191970" d="M1015.1843,-258.135C1025.7735,-260.9867 1036.9271,-264.4509 1047,-268.5 1063.9826,-275.3267 1065.8508,-282.1033 1083,-288.5 1095.7857,-293.2691 1110.058,-296.9659 1123.4202,-299.7766"/>
<polygon fill="#191970" stroke="#191970" points="1015.8144,-254.6833 1005.2583,-255.5894 1014.0754,-261.4639 1015.8144,-254.6833"/>
</g>
<!-- Node16 -->
<g id="node16" class="node">
<title>Node16</title>
<g id="a_node16"><a xlink:href="../../d4/d91/fun4all__macros_2blob_2master_2detectors_2EICDetector_2Fun4All__G4__EICDetector_8C.html#add9dee08cdb08b59c0b3870bb04994d9" target="_top" xlink:title="Fun4All_G4_EICDetector">
<polygon fill="none" stroke="#000000" points="1104,-258.5 1104,-278.5 1243,-278.5 1243,-258.5 1104,-258.5"/>
<text text-anchor="middle" x="1173.5" y="-265.5" font-family="FreeSans" font-size="10.00" fill="#000000">Fun4All_G4_EICDetector</text>
</a>
</g>
</g>
<!-- Node10&#45;&gt;Node16 -->
<g id="edge15" class="edge">
<title>Node10&#45;&gt;Node16</title>
<path fill="none" stroke="#191970" d="M1015.5786,-252.9028C1041.3908,-255.4522 1074.4516,-258.7174 1103.6471,-261.6009"/>
<polygon fill="#191970" stroke="#191970" points="1015.647,-249.3926 1005.3514,-251.8927 1014.9589,-256.3587 1015.647,-249.3926"/>
</g>
<!-- Node17 -->
<g id="node17" class="node">
<title>Node17</title>
<g id="a_node17"><a xlink:href="../../d7/d9e/Fun4All__G4__fsPHENIX_8C.html#a75e8ef26e92f882a865536a3e16244c5" target="_top" xlink:title="Fun4All_G4_fsPHENIX">
<polygon fill="none" stroke="#000000" points="1111.5,-219.5 1111.5,-239.5 1235.5,-239.5 1235.5,-219.5 1111.5,-219.5"/>
<text text-anchor="middle" x="1173.5" y="-226.5" font-family="FreeSans" font-size="10.00" fill="#000000">Fun4All_G4_fsPHENIX</text>
</a>
</g>
</g>
<!-- Node10&#45;&gt;Node17 -->
<g id="edge16" class="edge">
<title>Node10&#45;&gt;Node17</title>
<path fill="none" stroke="#191970" d="M1015.3156,-244.342C1043.5061,-241.697 1080.4208,-238.2334 1111.4986,-235.3174"/>
<polygon fill="#191970" stroke="#191970" points="1014.9806,-240.858 1005.3514,-245.2769 1015.6346,-247.8273 1014.9806,-240.858"/>
</g>
<!-- Node18 -->
<g id="node18" class="node">
<title>Node18</title>
<g id="a_node18"><a xlink:href="../../d5/d97/Fun4All__G4__FullDetectorModular_8C.html#a3718da6a9c8edc72f231ee413c514dad" target="_top" xlink:title="Fun4All_G4_FullDetectorModular">
<polygon fill="none" stroke="#000000" points="1083,-180.5 1083,-200.5 1264,-200.5 1264,-180.5 1083,-180.5"/>
<text text-anchor="middle" x="1173.5" y="-187.5" font-family="FreeSans" font-size="10.00" fill="#000000">Fun4All_G4_FullDetectorModular</text>
</a>
</g>
</g>
<!-- Node10&#45;&gt;Node18 -->
<g id="edge17" class="edge">
<title>Node10&#45;&gt;Node18</title>
<path fill="none" stroke="#191970" d="M1015.1345,-239.3743C1025.7253,-236.6642 1036.8921,-233.3659 1047,-229.5 1063.8979,-223.0371 1066.0149,-216.7301 1083,-210.5 1093.7258,-206.5658 1105.4633,-203.2755 1116.8264,-200.5745"/>
<polygon fill="#191970" stroke="#191970" points="1014.0978,-236.0244 1005.2102,-241.7916 1015.7544,-242.8255 1014.0978,-236.0244"/>
</g>
<!-- Node19 -->
<g id="node19" class="node">
<title>Node19</title>
<g id="a_node19"><a xlink:href="../../d0/dce/Fun4All__G4__FullDetectorModularBeast_8C.html#a0f10ba4ce157df87369cfd776fc132d3" target="_top" xlink:title="Fun4All_G4_FullDetectorModular\lBeast">
<polygon fill="none" stroke="#000000" points="1083,-129.5 1083,-161.5 1264,-161.5 1264,-129.5 1083,-129.5"/>
<text text-anchor="start" x="1091" y="-148.5" font-family="FreeSans" font-size="10.00" fill="#000000">Fun4All_G4_FullDetectorModular</text>
<text text-anchor="middle" x="1173.5" y="-136.5" font-family="FreeSans" font-size="10.00" fill="#000000">Beast</text>
</a>
</g>
</g>
<!-- Node10&#45;&gt;Node19 -->
<g id="edge18" class="edge">
<title>Node10&#45;&gt;Node19</title>
<path fill="none" stroke="#191970" d="M1015.2352,-243.4332C1026.355,-240.6144 1037.7456,-236.2495 1047,-229.5 1071.5128,-211.6221 1058.8018,-189.8014 1083,-171.5 1088.0849,-167.6542 1093.7209,-164.3767 1099.622,-161.5837"/>
<polygon fill="#191970" stroke="#191970" points="1014.202,-240.0757 1005.1684,-245.6113 1015.6824,-246.9174 1014.202,-240.0757"/>
</g>
<!-- Node20 -->
<g id="node20" class="node">
<title>Node20</title>
<g id="a_node20"><a xlink:href="../../d0/d87/Fun4All__G4__JLeic_8C.html#a7a87d035cddeb1ed64bf376560381994" target="_top" xlink:title="Fun4All_G4_JLeic">
<polygon fill="none" stroke="#000000" points="1123,-90.5 1123,-110.5 1224,-110.5 1224,-90.5 1123,-90.5"/>
<text text-anchor="middle" x="1173.5" y="-97.5" font-family="FreeSans" font-size="10.00" fill="#000000">Fun4All_G4_JLeic</text>
</a>
</g>
</g>
<!-- Node10&#45;&gt;Node20 -->
<g id="edge19" class="edge">
<title>Node10&#45;&gt;Node20</title>
<path fill="none" stroke="#191970" d="M1015.1395,-245.1566C1026.6686,-242.3685 1038.2896,-237.5884 1047,-229.5 1084.3855,-194.7841 1045.1411,-154.6989 1083,-120.5 1093.8659,-110.6846 1108.4422,-105.3202 1122.7181,-102.4826"/>
<polygon fill="#191970" stroke="#191970" points="1014.2451,-241.7653 1005.1071,-247.127 1015.5942,-248.6341 1014.2451,-241.7653"/>
</g>
<!-- Node21 -->
<g id="node21" class="node">
<title>Node21</title>
<g id="a_node21"><a xlink:href="../../d9/d73/fun4all__macros_2blob_2master_2detectors_2sPHENIX_2Fun4All__G4__sPHENIX_8C.html#a4102cd3e195333de974409428a2e6dae" target="_top" xlink:title="Fun4All_G4_sPHENIX">
<polygon fill="none" stroke="#000000" points="1113,-51.5 1113,-71.5 1234,-71.5 1234,-51.5 1113,-51.5"/>
<text text-anchor="middle" x="1173.5" y="-58.5" font-family="FreeSans" font-size="10.00" fill="#000000">Fun4All_G4_sPHENIX</text>
</a>
</g>
</g>
<!-- Node10&#45;&gt;Node21 -->
<g id="edge20" class="edge">
<title>Node10&#45;&gt;Node21</title>
<path fill="none" stroke="#191970" d="M1015.2654,-245.6769C1026.9019,-242.9072 1038.5475,-238.0065 1047,-229.5 1094.7154,-181.4797 1034.6293,-128.8602 1083,-81.5 1091.1632,-73.5073 1101.7596,-68.4097 1112.8116,-65.2161"/>
<polygon fill="#191970" stroke="#191970" points="1014.2955,-242.2984 1005.1222,-247.5994 1015.5991,-249.1759 1014.2955,-242.2984"/>
</g>
<!-- Node22 -->
<g id="node22" class="node">
<title>Node22</title>
<g id="a_node22"><a xlink:href="../../d3/d2b/Fun4All__G4__sPHENIX__particle__gen_8C.html#a381adc702b7bfb99356660cdb6407e70" target="_top" xlink:title="Fun4All_G4_sPHENIX\l_particle_gen">
<polygon fill="none" stroke="#000000" points="1113,-.5 1113,-32.5 1234,-32.5 1234,-.5 1113,-.5"/>
<text text-anchor="start" x="1121" y="-19.5" font-family="FreeSans" font-size="10.00" fill="#000000">Fun4All_G4_sPHENIX</text>
<text text-anchor="middle" x="1173.5" y="-7.5" font-family="FreeSans" font-size="10.00" fill="#000000">_particle_gen</text>
</a>
</g>
</g>
<!-- Node10&#45;&gt;Node22 -->
<g id="edge21" class="edge">
<title>Node10&#45;&gt;Node22</title>
<path fill="none" stroke="#191970" d="M1015.5341,-245.9375C1027.1752,-243.1722 1038.7559,-238.2086 1047,-229.5 1105.1857,-168.0355 1025.8919,-104.967 1083,-42.5 1090.9418,-33.813 1101.575,-27.9558 1112.7575,-24.0238"/>
<polygon fill="#191970" stroke="#191970" points="1014.5559,-242.5598 1005.3709,-247.8406 1015.8443,-249.4402 1014.5559,-242.5598"/>
</g>
</g>
</svg>
