<?xml version="1.0" encoding="UTF-8" standalone="no"?>
<!DOCTYPE svg PUBLIC "-//W3C//DTD SVG 1.1//EN"
 "http://www.w3.org/Graphics/SVG/1.1/DTD/svg11.dtd">
<!-- Generated by graphviz version 2.40.1 (20161225.0304)
 -->
<!-- Title: Acts::TrackingVolume::TrackingVolume Pages: 1 -->
<svg width="518pt" height="209pt"
 viewBox="0.00 0.00 518.00 209.00" xmlns="http://www.w3.org/2000/svg" xmlns:xlink="http://www.w3.org/1999/xlink">
<g id="graph0" class="graph" transform="scale(1 1) rotate(0) translate(4 205)">
<title>Acts::TrackingVolume::TrackingVolume</title>
<!-- Node1 -->
<g id="node1" class="node">
<title>Node1</title>
<polygon fill="#bfbfbf" stroke="#000000" points="0,-70.5 0,-102.5 125,-102.5 125,-70.5 0,-70.5"/>
<text text-anchor="start" x="8" y="-89.5" font-family="FreeSans" font-size="10.00" fill="#000000">Acts::TrackingVolume</text>
<text text-anchor="middle" x="62.5" y="-77.5" font-family="FreeSans" font-size="10.00" fill="#000000">::TrackingVolume</text>
</g>
<!-- Node2 -->
<g id="node2" class="node">
<title>Node2</title>
<g id="a_node2"><a xlink:href="../../dd/dcd/classActs_1_1TrackingVolume.html#a922c701f0f1b437d7d8dc871e884f8c5" target="_top" xlink:title="Create Boundary Surface.">
<polygon fill="none" stroke="#000000" points="161,-112.5 161,-144.5 309,-144.5 309,-112.5 161,-112.5"/>
<text text-anchor="start" x="169" y="-131.5" font-family="FreeSans" font-size="10.00" fill="#000000">Acts::TrackingVolume</text>
<text text-anchor="middle" x="235" y="-119.5" font-family="FreeSans" font-size="10.00" fill="#000000">::createBoundarySurfaces</text>
</a>
</g>
</g>
<!-- Node1&#45;&gt;Node2 -->
<g id="edge1" class="edge">
<title>Node1&#45;&gt;Node2</title>
<path fill="none" stroke="#191970" d="M125.2644,-101.7818C136.2914,-104.4666 147.8729,-107.2864 159.2096,-110.0467"/>
<polygon fill="#191970" stroke="#191970" points="158.5449,-113.487 169.0891,-112.4521 160.201,-106.6857 158.5449,-113.487"/>
</g>
<!-- Node6 -->
<g id="node6" class="node">
<title>Node6</title>
<g id="a_node6"><a xlink:href="../../dd/dcd/classActs_1_1TrackingVolume.html#aaaf05545e07aefca49b902b266e41e3a" target="_top" xlink:title="interlink the layers in this TrackingVolume">
<polygon fill="none" stroke="#000000" points="172.5,-45.5 172.5,-77.5 297.5,-77.5 297.5,-45.5 172.5,-45.5"/>
<text text-anchor="start" x="180.5" y="-64.5" font-family="FreeSans" font-size="10.00" fill="#000000">Acts::TrackingVolume</text>
<text text-anchor="middle" x="235" y="-52.5" font-family="FreeSans" font-size="10.00" fill="#000000">::interlinkLayers</text>
</a>
</g>
</g>
<!-- Node1&#45;&gt;Node6 -->
<g id="edge5" class="edge">
<title>Node1&#45;&gt;Node6</title>
<path fill="none" stroke="#191970" d="M125.2644,-77.4037C137.2307,-75.6695 149.8498,-73.8406 162.1006,-72.0651"/>
<polygon fill="#191970" stroke="#191970" points="162.8877,-75.4877 172.2823,-70.5895 161.8837,-68.5601 162.8877,-75.4877"/>
</g>
<!-- Node3 -->
<g id="node3" class="node">
<title>Node3</title>
<g id="a_node3"><a xlink:href="../../d2/d65/classActs_1_1Volume.html#a55bdd4b9145aacecf981084d849d49f3" target="_top" xlink:title="returns the volumeBounds()">
<polygon fill="none" stroke="#000000" points="345,-180.5 345,-200.5 510,-200.5 510,-180.5 345,-180.5"/>
<text text-anchor="middle" x="427.5" y="-187.5" font-family="FreeSans" font-size="10.00" fill="#000000">Acts::Volume::volumeBounds</text>
</a>
</g>
</g>
<!-- Node2&#45;&gt;Node3 -->
<g id="edge2" class="edge">
<title>Node2&#45;&gt;Node3</title>
<path fill="none" stroke="#191970" d="M271.9409,-144.5029C293.0668,-153.2579 320.2165,-163.8471 345,-171.5 352.5045,-173.8173 360.4708,-175.9951 368.379,-177.9906"/>
<polygon fill="#191970" stroke="#191970" points="367.7813,-181.4473 378.326,-180.4175 369.4406,-174.6468 367.7813,-181.4473"/>
</g>
<!-- Node4 -->
<g id="node4" class="node">
<title>Node4</title>
<g id="a_node4"><a xlink:href="../../db/ddd/classActs_1_1VolumeBounds.html#a0f0486b3a34efae9a98aef19dde7c2d5" target="_top" xlink:title="Acts::VolumeBounds\l::orientedSurfaces">
<polygon fill="none" stroke="#000000" points="367,-129.5 367,-161.5 488,-161.5 488,-129.5 367,-129.5"/>
<text text-anchor="start" x="375" y="-148.5" font-family="FreeSans" font-size="10.00" fill="#000000">Acts::VolumeBounds</text>
<text text-anchor="middle" x="427.5" y="-136.5" font-family="FreeSans" font-size="10.00" fill="#000000">::orientedSurfaces</text>
</a>
</g>
</g>
<!-- Node2&#45;&gt;Node4 -->
<g id="edge3" class="edge">
<title>Node2&#45;&gt;Node4</title>
<path fill="none" stroke="#191970" d="M309.1502,-135.0483C324.7891,-136.4294 341.2508,-137.8832 356.7601,-139.2528"/>
<polygon fill="#191970" stroke="#191970" points="356.527,-142.7458 366.7962,-140.1391 357.1429,-135.7729 356.527,-142.7458"/>
</g>
<!-- Node5 -->
<g id="node5" class="node">
<title>Node5</title>
<g id="a_node5"><a xlink:href="../../de/d33/Volume_8cpp.html#a0ce60e705eae0758e42adda551820bce" target="_top" xlink:title="m_transform">
<polygon fill="none" stroke="#000000" points="387.5,-90.5 387.5,-110.5 467.5,-110.5 467.5,-90.5 387.5,-90.5"/>
<text text-anchor="middle" x="427.5" y="-97.5" font-family="FreeSans" font-size="10.00" fill="#000000">m_transform</text>
</a>
</g>
</g>
<!-- Node2&#45;&gt;Node5 -->
<g id="edge4" class="edge">
<title>Node2&#45;&gt;Node5</title>
<path fill="none" stroke="#191970" d="M309.1502,-117.7145C331.8923,-114.4066 356.3746,-110.8455 377.1376,-107.8254"/>
<polygon fill="#191970" stroke="#191970" points="377.9244,-111.2479 387.3164,-106.3449 376.9168,-104.3208 377.9244,-111.2479"/>
</g>
<!-- Node7 -->
<g id="node7" class="node">
<title>Node7</title>
<g id="a_node7"><a xlink:href="../../d4/da9/namespaceboost.html#a9033c057e939b0799426af408e78ca87" target="_top" xlink:title="boost::const_pointer_cast">
<polygon fill="none" stroke="#000000" points="354.5,-51.5 354.5,-71.5 500.5,-71.5 500.5,-51.5 354.5,-51.5"/>
<text text-anchor="middle" x="427.5" y="-58.5" font-family="FreeSans" font-size="10.00" fill="#000000">boost::const_pointer_cast</text>
</a>
</g>
</g>
<!-- Node6&#45;&gt;Node7 -->
<g id="edge6" class="edge">
<title>Node6&#45;&gt;Node7</title>
<path fill="none" stroke="#191970" d="M297.7653,-61.5C312.6157,-61.5 328.681,-61.5 344.2811,-61.5"/>
<polygon fill="#191970" stroke="#191970" points="344.4479,-65.0001 354.4479,-61.5 344.4479,-58.0001 344.4479,-65.0001"/>
</g>
<!-- Node8 -->
<g id="node8" class="node">
<title>Node8</title>
<g id="a_node8"><a xlink:href="../../da/d28/classActs_1_1Layer.html#ae6126d79cd76192f733c279aad974e99" target="_top" xlink:title="Acts::Layer::encloseTracking\lVolume">
<polygon fill="none" stroke="#000000" points="347.5,-.5 347.5,-32.5 507.5,-32.5 507.5,-.5 347.5,-.5"/>
<text text-anchor="start" x="355.5" y="-19.5" font-family="FreeSans" font-size="10.00" fill="#000000">Acts::Layer::encloseTracking</text>
<text text-anchor="middle" x="427.5" y="-7.5" font-family="FreeSans" font-size="10.00" fill="#000000">Volume</text>
</a>
</g>
</g>
<!-- Node6&#45;&gt;Node8 -->
<g id="edge7" class="edge">
<title>Node6&#45;&gt;Node8</title>
<path fill="none" stroke="#191970" d="M297.7653,-46.8276C314.0909,-43.0112 331.8848,-38.8516 348.9146,-34.8706"/>
<polygon fill="#191970" stroke="#191970" points="349.8956,-38.2357 358.8364,-32.5512 348.3022,-31.4195 349.8956,-38.2357"/>
</g>
</g>
</svg>
