<?xml version="1.0" encoding="UTF-8" standalone="no"?>
<!DOCTYPE svg PUBLIC "-//W3C//DTD SVG 1.1//EN"
 "http://www.w3.org/Graphics/SVG/1.1/DTD/svg11.dtd">
<!-- Generated by graphviz version 2.40.1 (20161225.0304)
 -->
<!-- Title: FairGenericParRootFileIo Pages: 1 -->
<svg width="221pt" height="292pt"
 viewBox="0.00 0.00 220.50 292.00" xmlns="http://www.w3.org/2000/svg" xmlns:xlink="http://www.w3.org/1999/xlink">
<g id="graph0" class="graph" transform="scale(1 1) rotate(0) translate(4 288)">
<title>FairGenericParRootFileIo</title>
<!-- Node1 -->
<g id="node1" class="node">
<title>Node1</title>
<polygon fill="#bfbfbf" stroke="#000000" points="0,-.5 0,-20.5 138,-20.5 138,-.5 0,-.5"/>
<text text-anchor="middle" x="69" y="-7.5" font-family="FreeSans" font-size="10.00" fill="#000000">FairGenericParRootFileIo</text>
</g>
<!-- Node2 -->
<g id="node2" class="node">
<title>Node2</title>
<g id="a_node2"><a xlink:href="../../d1/db3/classFairDetParRootFileIo.html" target="_top" xlink:title="FairDetParRootFileIo">
<polygon fill="none" stroke="#000000" points="11,-58.5 11,-78.5 127,-78.5 127,-58.5 11,-58.5"/>
<text text-anchor="middle" x="69" y="-65.5" font-family="FreeSans" font-size="10.00" fill="#000000">FairDetParRootFileIo</text>
</a>
</g>
</g>
<!-- Node2&#45;&gt;Node1 -->
<g id="edge1" class="edge">
<title>Node2&#45;&gt;Node1</title>
<path fill="none" stroke="#191970" d="M69,-48.3902C69,-39.1201 69,-28.5083 69,-20.8776"/>
<polygon fill="#191970" stroke="#191970" points="65.5001,-48.3971 69,-58.3972 72.5001,-48.3972 65.5001,-48.3971"/>
</g>
<!-- Node3 -->
<g id="node3" class="node">
<title>Node3</title>
<g id="a_node3"><a xlink:href="../../d7/d67/classFairDetParIo.html" target="_top" xlink:title="FairDetParIo">
<polygon fill="none" stroke="#000000" points="14.5,-166.5 14.5,-186.5 91.5,-186.5 91.5,-166.5 14.5,-166.5"/>
<text text-anchor="middle" x="53" y="-173.5" font-family="FreeSans" font-size="10.00" fill="#000000">FairDetParIo</text>
</a>
</g>
</g>
<!-- Node3&#45;&gt;Node2 -->
<g id="edge2" class="edge">
<title>Node3&#45;&gt;Node2</title>
<path fill="none" stroke="#191970" d="M56.0311,-156.0403C59.4517,-132.951 64.8789,-96.3175 67.4939,-78.6665"/>
<polygon fill="#191970" stroke="#191970" points="52.5375,-155.7395 54.5341,-166.1445 59.4619,-156.7654 52.5375,-155.7395"/>
</g>
<!-- Node4 -->
<g id="node4" class="node">
<title>Node4</title>
<polygon fill="none" stroke="#bfbfbf" points="77.5,-263.5 77.5,-283.5 136.5,-283.5 136.5,-263.5 77.5,-263.5"/>
<text text-anchor="middle" x="107" y="-270.5" font-family="FreeSans" font-size="10.00" fill="#000000">TNamed</text>
</g>
<!-- Node4&#45;&gt;Node3 -->
<g id="edge3" class="edge">
<title>Node4&#45;&gt;Node3</title>
<path fill="none" stroke="#191970" d="M96.4289,-254.5112C85.102,-234.1646 67.5514,-202.6386 58.6261,-186.6062"/>
<polygon fill="#191970" stroke="#191970" points="93.5022,-256.4498 101.4244,-263.4846 99.6184,-253.0449 93.5022,-256.4498"/>
</g>
<!-- Node5 -->
<g id="node5" class="node">
<title>Node5</title>
<g id="a_node5"><a xlink:href="../../df/d13/classFairParRootFile.html" target="_top" xlink:title="FairParRootFile">
<polygon fill="none" stroke="#000000" points="81,-127.5 81,-147.5 171,-147.5 171,-127.5 81,-127.5"/>
<text text-anchor="middle" x="126" y="-134.5" font-family="FreeSans" font-size="10.00" fill="#000000">FairParRootFile</text>
</a>
</g>
</g>
<!-- Node4&#45;&gt;Node5 -->
<g id="edge5" class="edge">
<title>Node4&#45;&gt;Node5</title>
<path fill="none" stroke="#191970" d="M109.8222,-253.2993C113.9327,-223.8768 121.4177,-170.2995 124.5553,-147.8407"/>
<polygon fill="#191970" stroke="#191970" points="106.3455,-252.8898 108.4281,-263.2779 113.2781,-253.8584 106.3455,-252.8898"/>
</g>
<!-- Node6 -->
<g id="node6" class="node">
<title>Node6</title>
<g id="a_node6"><a xlink:href="../../d6/de1/classFairRtdbRun.html" target="_top" xlink:title="FairRtdbRun">
<polygon fill="none" stroke="#000000" points="135.5,-205.5 135.5,-225.5 212.5,-225.5 212.5,-205.5 135.5,-205.5"/>
<text text-anchor="middle" x="174" y="-212.5" font-family="FreeSans" font-size="10.00" fill="#000000">FairRtdbRun</text>
</a>
</g>
</g>
<!-- Node4&#45;&gt;Node6 -->
<g id="edge7" class="edge">
<title>Node4&#45;&gt;Node6</title>
<path fill="none" stroke="#191970" d="M126.4642,-256.6504C137.9582,-246.7003 152.1434,-234.4207 162.0121,-225.8776"/>
<polygon fill="#191970" stroke="#191970" points="123.9404,-254.2059 118.6705,-263.3972 128.5219,-259.4984 123.9404,-254.2059"/>
</g>
<!-- Node5&#45;&gt;Node2 -->
<g id="edge4" class="edge">
<title>Node5&#45;&gt;Node2</title>
<path fill="none" stroke="#9a32cd" stroke-dasharray="5,2" d="M111.1152,-119.4815C100.3888,-106.4969 86.299,-89.4409 77.4451,-78.723"/>
<polygon fill="#9a32cd" stroke="#9a32cd" points="108.5222,-121.8383 117.5895,-127.3188 113.919,-117.3801 108.5222,-121.8383"/>
<text text-anchor="middle" x="115" y="-100" font-family="FreeSans" font-size="10.00" fill="#000000"> pFile</text>
</g>
<!-- Node6&#45;&gt;Node5 -->
<g id="edge6" class="edge">
<title>Node6&#45;&gt;Node5</title>
<path fill="none" stroke="#9a32cd" stroke-dasharray="5,2" d="M162.3981,-196.6469C152.9899,-181.3586 140.0776,-160.3761 132.4299,-147.9486"/>
<polygon fill="#9a32cd" stroke="#9a32cd" points="159.503,-198.6206 167.7248,-205.3029 165.4646,-194.9519 159.503,-198.6206"/>
<text text-anchor="middle" x="166.5" y="-173.5" font-family="FreeSans" font-size="10.00" fill="#000000"> run</text>
</g>
</g>
</svg>
