<?xml version="1.0" encoding="UTF-8" standalone="no"?>
<!DOCTYPE svg PUBLIC "-//W3C//DTD SVG 1.1//EN"
 "http://www.w3.org/Graphics/SVG/1.1/DTD/svg11.dtd">
<!-- Generated by graphviz version 2.40.1 (20161225.0304)
 -->
<!-- Title: EicRoot/blob/master/genfit/GFException.cxx Pages: 1 -->
<svg width="443pt" height="155pt"
 viewBox="0.00 0.00 443.00 155.00" xmlns="http://www.w3.org/2000/svg" xmlns:xlink="http://www.w3.org/1999/xlink">
<g id="graph0" class="graph" transform="scale(1 1) rotate(0) translate(4 151)">
<title>EicRoot/blob/master/genfit/GFException.cxx</title>
<!-- Node1 -->
<g id="node1" class="node">
<title>Node1</title>
<polygon fill="#bfbfbf" stroke="#000000" points="137.5,-114.5 137.5,-146.5 275.5,-146.5 275.5,-114.5 137.5,-114.5"/>
<text text-anchor="start" x="145.5" y="-133.5" font-family="FreeSans" font-size="10.00" fill="#000000">EicRoot/blob/master</text>
<text text-anchor="middle" x="206.5" y="-121.5" font-family="FreeSans" font-size="10.00" fill="#000000">/genfit/GFException.cxx</text>
</g>
<!-- Node2 -->
<g id="node2" class="node">
<title>Node2</title>
<g id="a_node2"><a xlink:href="../../d7/d00/GFException_8h.html" target="_top" xlink:title="GFException.h">
<polygon fill="none" stroke="#000000" points="162,-57.5 162,-77.5 251,-77.5 251,-57.5 162,-57.5"/>
<text text-anchor="middle" x="206.5" y="-64.5" font-family="FreeSans" font-size="10.00" fill="#000000">GFException.h</text>
</a>
</g>
</g>
<!-- Node1&#45;&gt;Node2 -->
<g id="edge1" class="edge">
<title>Node1&#45;&gt;Node2</title>
<path fill="none" stroke="#191970" d="M206.5,-114.2759C206.5,-106.2654 206.5,-96.5159 206.5,-87.9952"/>
<polygon fill="#191970" stroke="#191970" points="210.0001,-87.7512 206.5,-77.7513 203.0001,-87.7513 210.0001,-87.7512"/>
</g>
<!-- Node3 -->
<g id="node3" class="node">
<title>Node3</title>
<polygon fill="none" stroke="#bfbfbf" points="0,-.5 0,-20.5 65,-20.5 65,-.5 0,-.5"/>
<text text-anchor="middle" x="32.5" y="-7.5" font-family="FreeSans" font-size="10.00" fill="#000000">exception</text>
</g>
<!-- Node2&#45;&gt;Node3 -->
<g id="edge2" class="edge">
<title>Node2&#45;&gt;Node3</title>
<path fill="none" stroke="#191970" d="M175.7928,-57.4408C147.1815,-48.0681 104.3354,-34.0323 72.9479,-23.7502"/>
<polygon fill="#191970" stroke="#191970" points="73.785,-20.3415 63.1923,-20.5544 71.6058,-26.9936 73.785,-20.3415"/>
</g>
<!-- Node4 -->
<g id="node4" class="node">
<title>Node4</title>
<polygon fill="none" stroke="#bfbfbf" points="83,-.5 83,-20.5 128,-20.5 128,-.5 83,-.5"/>
<text text-anchor="middle" x="105.5" y="-7.5" font-family="FreeSans" font-size="10.00" fill="#000000">string</text>
</g>
<!-- Node2&#45;&gt;Node4 -->
<g id="edge3" class="edge">
<title>Node2&#45;&gt;Node4</title>
<path fill="none" stroke="#191970" d="M188.4432,-57.3095C172.7881,-48.4745 149.9195,-35.5684 132.1579,-25.5445"/>
<polygon fill="#191970" stroke="#191970" points="133.8295,-22.4691 123.4004,-20.6022 130.3891,-28.5653 133.8295,-22.4691"/>
</g>
<!-- Node5 -->
<g id="node5" class="node">
<title>Node5</title>
<polygon fill="none" stroke="#bfbfbf" points="146,-.5 146,-20.5 195,-20.5 195,-.5 146,-.5"/>
<text text-anchor="middle" x="170.5" y="-7.5" font-family="FreeSans" font-size="10.00" fill="#000000">vector</text>
</g>
<!-- Node2&#45;&gt;Node5 -->
<g id="edge4" class="edge">
<title>Node2&#45;&gt;Node5</title>
<path fill="none" stroke="#191970" d="M200.0639,-57.3095C195.1494,-49.5282 188.2404,-38.589 182.3372,-29.2423"/>
<polygon fill="#191970" stroke="#191970" points="185.1796,-27.1881 176.8804,-20.6022 179.2611,-30.9261 185.1796,-27.1881"/>
</g>
<!-- Node6 -->
<g id="node6" class="node">
<title>Node6</title>
<polygon fill="none" stroke="#bfbfbf" points="213.5,-.5 213.5,-20.5 273.5,-20.5 273.5,-.5 213.5,-.5"/>
<text text-anchor="middle" x="243.5" y="-7.5" font-family="FreeSans" font-size="10.00" fill="#000000">iostream</text>
</g>
<!-- Node2&#45;&gt;Node6 -->
<g id="edge5" class="edge">
<title>Node2&#45;&gt;Node6</title>
<path fill="none" stroke="#191970" d="M213.1149,-57.3095C218.1659,-49.5282 225.2668,-38.589 231.334,-29.2423"/>
<polygon fill="#191970" stroke="#191970" points="234.4334,-30.8957 236.9424,-20.6022 228.5619,-27.0844 234.4334,-30.8957"/>
</g>
<!-- Node7 -->
<g id="node7" class="node">
<title>Node7</title>
<polygon fill="none" stroke="#bfbfbf" points="291.5,-.5 291.5,-20.5 347.5,-20.5 347.5,-.5 291.5,-.5"/>
<text text-anchor="middle" x="319.5" y="-7.5" font-family="FreeSans" font-size="10.00" fill="#000000">sstream</text>
</g>
<!-- Node2&#45;&gt;Node7 -->
<g id="edge6" class="edge">
<title>Node2&#45;&gt;Node7</title>
<path fill="none" stroke="#191970" d="M226.442,-57.4408C244.1639,-48.5014 270.2951,-35.3202 290.3588,-25.1996"/>
<polygon fill="#191970" stroke="#191970" points="292.0251,-28.2791 299.3772,-20.6504 288.8725,-22.0292 292.0251,-28.2791"/>
</g>
<!-- Node8 -->
<g id="node8" class="node">
<title>Node8</title>
<polygon fill="none" stroke="#bfbfbf" points="366,-.5 366,-20.5 435,-20.5 435,-.5 366,-.5"/>
<text text-anchor="middle" x="400.5" y="-7.5" font-family="FreeSans" font-size="10.00" fill="#000000">TMatrixT.h</text>
</g>
<!-- Node2&#45;&gt;Node8 -->
<g id="edge7" class="edge">
<title>Node2&#45;&gt;Node8</title>
<path fill="none" stroke="#191970" d="M240.7367,-57.4408C272.9129,-47.9869 321.236,-33.7889 356.309,-23.484"/>
<polygon fill="#191970" stroke="#191970" points="357.672,-26.7315 366.2798,-20.5544 355.6987,-20.0154 357.672,-26.7315"/>
</g>
</g>
</svg>
