<?xml version="1.0" encoding="UTF-8" standalone="no"?>
<!DOCTYPE svg PUBLIC "-//W3C//DTD SVG 1.1//EN"
 "http://www.w3.org/Graphics/SVG/1.1/DTD/svg11.dtd">
<!-- Generated by graphviz version 2.40.1 (20161225.0304)
 -->
<!-- Title: FW::ResPlotTool::ResPlotCache Pages: 1 -->
<svg width="280pt" height="381pt"
 viewBox="0.00 0.00 280.00 381.00" xmlns="http://www.w3.org/2000/svg" xmlns:xlink="http://www.w3.org/1999/xlink">
<g id="graph0" class="graph" transform="scale(1 1) rotate(0) translate(4 377)">
<title>FW::ResPlotTool::ResPlotCache</title>
<!-- Node1 -->
<g id="node1" class="node">
<title>Node1</title>
<polygon fill="#bfbfbf" stroke="#000000" points="66,-.5 66,-32.5 205,-32.5 205,-.5 66,-.5"/>
<text text-anchor="start" x="74" y="-19.5" font-family="FreeSans" font-size="10.00" fill="#000000">FW::ResPlotTool::ResPlot</text>
<text text-anchor="middle" x="135.5" y="-7.5" font-family="FreeSans" font-size="10.00" fill="#000000">Cache</text>
</g>
<!-- Node2 -->
<g id="node2" class="node">
<title>Node2</title>
<polygon fill="none" stroke="#bfbfbf" points="0,-201.5 0,-233.5 127,-233.5 127,-201.5 0,-201.5"/>
<text text-anchor="start" x="8" y="-220.5" font-family="FreeSans" font-size="10.00" fill="#000000">std::map&lt; std::string,</text>
<text text-anchor="middle" x="63.5" y="-208.5" font-family="FreeSans" font-size="10.00" fill="#000000"> TH1F * &gt;</text>
</g>
<!-- Node2&#45;&gt;Node1 -->
<g id="edge1" class="edge">
<title>Node2&#45;&gt;Node1</title>
<path fill="none" stroke="#9a32cd" stroke-dasharray="5,2" d="M62.2587,-190.7814C61.8657,-156.1139 65.4202,-94.883 91.5,-51 95.6658,-43.9905 101.8351,-37.8665 108.2446,-32.8016"/>
<polygon fill="#9a32cd" stroke="#9a32cd" points="58.7659,-191.1336 62.5014,-201.0481 65.764,-190.9681 58.7659,-191.1336"/>
<text text-anchor="middle" x="134" y="-174" font-family="FreeSans" font-size="10.00" fill="#000000"> reswidth_vs_eta</text>
<text text-anchor="middle" x="134" y="-162" font-family="FreeSans" font-size="10.00" fill="#000000">pullwidth_vs_pT</text>
<text text-anchor="middle" x="134" y="-150" font-family="FreeSans" font-size="10.00" fill="#000000">pullwidth_vs_eta</text>
<text text-anchor="middle" x="134" y="-138" font-family="FreeSans" font-size="10.00" fill="#000000">pullmean_vs_pT</text>
<text text-anchor="middle" x="134" y="-126" font-family="FreeSans" font-size="10.00" fill="#000000">pull</text>
<text text-anchor="middle" x="134" y="-114" font-family="FreeSans" font-size="10.00" fill="#000000">reswidth_vs_pT</text>
<text text-anchor="middle" x="134" y="-102" font-family="FreeSans" font-size="10.00" fill="#000000">resmean_vs_eta</text>
<text text-anchor="middle" x="134" y="-90" font-family="FreeSans" font-size="10.00" fill="#000000">res</text>
<text text-anchor="middle" x="134" y="-78" font-family="FreeSans" font-size="10.00" fill="#000000">resmean_vs_pT</text>
<text text-anchor="middle" x="134" y="-66" font-family="FreeSans" font-size="10.00" fill="#000000">pullmean_vs_eta</text>
<text text-anchor="middle" x="134" y="-54" font-family="FreeSans" font-size="10.00" fill="#000000">...</text>
</g>
<!-- Node3 -->
<g id="node3" class="node">
<title>Node3</title>
<g id="a_node3"><a xlink:title="STL class.">
<polygon fill="none" stroke="#bfbfbf" points="102,-282.5 102,-302.5 169,-302.5 169,-282.5 102,-282.5"/>
<text text-anchor="middle" x="135.5" y="-289.5" font-family="FreeSans" font-size="10.00" fill="#000000">std::string</text>
</a>
</g>
</g>
<!-- Node3&#45;&gt;Node2 -->
<g id="edge2" class="edge">
<title>Node3&#45;&gt;Node2</title>
<path fill="none" stroke="#9a32cd" stroke-dasharray="5,2" d="M118.5934,-274.889C106.6466,-262.4443 90.752,-245.8875 79.1063,-233.7566"/>
<polygon fill="#9a32cd" stroke="#9a32cd" points="116.3395,-277.5951 125.7898,-282.3852 121.3893,-272.7474 116.3395,-277.5951"/>
<text text-anchor="middle" x="122" y="-255" font-family="FreeSans" font-size="10.00" fill="#000000"> keys</text>
</g>
<!-- Node5 -->
<g id="node5" class="node">
<title>Node5</title>
<polygon fill="none" stroke="#bfbfbf" points="145,-201.5 145,-233.5 272,-233.5 272,-201.5 145,-201.5"/>
<text text-anchor="start" x="153" y="-220.5" font-family="FreeSans" font-size="10.00" fill="#000000">std::map&lt; std::string,</text>
<text text-anchor="middle" x="208.5" y="-208.5" font-family="FreeSans" font-size="10.00" fill="#000000"> TH2F * &gt;</text>
</g>
<!-- Node3&#45;&gt;Node5 -->
<g id="edge5" class="edge">
<title>Node3&#45;&gt;Node5</title>
<path fill="none" stroke="#9a32cd" stroke-dasharray="5,2" d="M152.6414,-274.889C164.7542,-262.4443 180.8695,-245.8875 192.677,-233.7566"/>
<polygon fill="#9a32cd" stroke="#9a32cd" points="149.8119,-272.778 145.3451,-282.3852 154.8281,-277.6604 149.8119,-272.778"/>
<text text-anchor="middle" x="187" y="-255" font-family="FreeSans" font-size="10.00" fill="#000000"> keys</text>
</g>
<!-- Node4 -->
<g id="node4" class="node">
<title>Node4</title>
<g id="a_node4"><a xlink:title="STL class.">
<polygon fill="none" stroke="#bfbfbf" points="82,-340.5 82,-372.5 189,-372.5 189,-340.5 82,-340.5"/>
<text text-anchor="start" x="90" y="-359.5" font-family="FreeSans" font-size="10.00" fill="#000000">std::basic_string&lt;</text>
<text text-anchor="middle" x="135.5" y="-347.5" font-family="FreeSans" font-size="10.00" fill="#000000"> char &gt;</text>
</a>
</g>
</g>
<!-- Node4&#45;&gt;Node3 -->
<g id="edge3" class="edge">
<title>Node4&#45;&gt;Node3</title>
<path fill="none" stroke="#191970" d="M135.5,-330.2639C135.5,-320.5394 135.5,-310.0805 135.5,-302.641"/>
<polygon fill="#191970" stroke="#191970" points="132.0001,-330.3501 135.5,-340.3501 139.0001,-330.3501 132.0001,-330.3501"/>
</g>
<!-- Node5&#45;&gt;Node1 -->
<g id="edge4" class="edge">
<title>Node5&#45;&gt;Node1</title>
<path fill="none" stroke="#9a32cd" stroke-dasharray="5,2" d="M208.7334,-190.8831C207.8962,-156.3258 202.4403,-95.2144 176.5,-51 172.4515,-44.0995 166.4961,-37.9419 160.3719,-32.8067"/>
<polygon fill="#9a32cd" stroke="#9a32cd" points="205.2365,-191.1599 208.863,-201.1148 212.2359,-191.0712 205.2365,-191.1599"/>
<text text-anchor="middle" x="235.5" y="-132" font-family="FreeSans" font-size="10.00" fill="#000000"> res_vs_pT</text>
<text text-anchor="middle" x="235.5" y="-120" font-family="FreeSans" font-size="10.00" fill="#000000">pull_vs_eta</text>
<text text-anchor="middle" x="235.5" y="-108" font-family="FreeSans" font-size="10.00" fill="#000000">res_vs_eta</text>
<text text-anchor="middle" x="235.5" y="-96" font-family="FreeSans" font-size="10.00" fill="#000000">pull_vs_pT</text>
</g>
</g>
</svg>
