<?xml version="1.0" encoding="UTF-8" standalone="no"?>
<!DOCTYPE svg PUBLIC "-//W3C//DTD SVG 1.1//EN"
 "http://www.w3.org/Graphics/SVG/1.1/DTD/svg11.dtd">
<!-- Generated by graphviz version 2.40.1 (20161225.0304)
 -->
<!-- Title: lsmall Pages: 1 -->
<svg width="918pt" height="586pt"
 viewBox="0.00 0.00 918.00 586.35" xmlns="http://www.w3.org/2000/svg" xmlns:xlink="http://www.w3.org/1999/xlink">
<g id="graph0" class="graph" transform="scale(1 1) rotate(0) translate(4 582.3463)">
<title>lsmall</title>
<!-- Node1 -->
<g id="node1" class="node">
<title>Node1</title>
<polygon fill="#bfbfbf" stroke="#000000" points="0,-451.8463 0,-471.8463 46,-471.8463 46,-451.8463 0,-451.8463"/>
<text text-anchor="middle" x="23" y="-458.8463" font-family="FreeSans" font-size="10.00" fill="#000000">lsmall</text>
</g>
<!-- Node2 -->
<g id="node2" class="node">
<title>Node2</title>
<g id="a_node2"><a xlink:href="../../df/de8/cemc_8C.html#a72d4716092b469b4bc1d816359a90e14" target="_top" xlink:title="cos">
<polygon fill="none" stroke="#000000" points="124.5,-557.8463 124.5,-577.8463 157.5,-577.8463 157.5,-557.8463 124.5,-557.8463"/>
<text text-anchor="middle" x="141" y="-564.8463" font-family="FreeSans" font-size="10.00" fill="#000000">cos</text>
</a>
</g>
</g>
<!-- Node1&#45;&gt;Node2 -->
<g id="edge1" class="edge">
<title>Node1&#45;&gt;Node2</title>
<path fill="none" stroke="#191970" d="M27.2101,-472.0656C35.1939,-490.1996 54.2543,-528.0495 82,-548.8463 91.4617,-555.9383 103.671,-560.4426 114.5259,-563.2741"/>
<polygon fill="#191970" stroke="#191970" points="113.8584,-566.7114 124.3844,-565.506 115.4041,-559.8842 113.8584,-566.7114"/>
</g>
<!-- Node3 -->
<g id="node3" class="node">
<title>Node3</title>
<g id="a_node3"><a xlink:href="../../da/de2/structFW_1_1HepMC3Particle.html#aad73441900fc85b406ec7e43805e0399" target="_top" xlink:title="Returns the energy of a particle translated into Acts.">
<polygon fill="none" stroke="#000000" points="82,-506.8463 82,-538.8463 200,-538.8463 200,-506.8463 82,-506.8463"/>
<text text-anchor="start" x="90" y="-525.8463" font-family="FreeSans" font-size="10.00" fill="#000000">FW::HepMC3Particle</text>
<text text-anchor="middle" x="141" y="-513.8463" font-family="FreeSans" font-size="10.00" fill="#000000">::energy</text>
</a>
</g>
</g>
<!-- Node1&#45;&gt;Node3 -->
<g id="edge2" class="edge">
<title>Node1&#45;&gt;Node3</title>
<path fill="none" stroke="#191970" d="M42.4853,-471.9192C58.3081,-480.0988 81.1482,-491.906 100.8532,-502.0924"/>
<polygon fill="#191970" stroke="#191970" points="99.4485,-505.3062 109.939,-506.7893 102.6631,-499.088 99.4485,-505.3062"/>
</g>
<!-- Node4 -->
<g id="node4" class="node">
<title>Node4</title>
<g id="a_node4"><a xlink:href="../../d0/da8/lucomp_8f.html#af4e2c29d51aeb470efbf59be26e18d04" target="_top" xlink:title="lucomp">
<polygon fill="none" stroke="#000000" points="807.5,-281.8463 807.5,-301.8463 861.5,-301.8463 861.5,-281.8463 807.5,-281.8463"/>
<text text-anchor="middle" x="834.5" y="-288.8463" font-family="FreeSans" font-size="10.00" fill="#000000">lucomp</text>
</a>
</g>
</g>
<!-- Node1&#45;&gt;Node4 -->
<g id="edge3" class="edge">
<title>Node1&#45;&gt;Node4</title>
<path fill="none" stroke="#191970" d="M46.2259,-464.4526C88.6998,-468.9864 181.7738,-477.8463 260.5,-477.8463 260.5,-477.8463 260.5,-477.8463 496.5,-477.8463 597.9884,-477.8463 640.5591,-508.0358 723,-448.8463 752.71,-427.5156 738.4863,-405.1261 759,-374.8463 775.8067,-350.0384 799.6762,-325.0753 816.0522,-309.101"/>
<polygon fill="#191970" stroke="#191970" points="818.6364,-311.4719 823.4255,-302.0212 813.7882,-306.4226 818.6364,-311.4719"/>
</g>
<!-- Node5 -->
<g id="node5" class="node">
<title>Node5</title>
<g id="a_node5"><a xlink:href="../../da/d2d/lukfdi_8f.html#a46954bb4ec2e8b9e55b3dd72f4b8df11" target="_top" xlink:title="lukfdi">
<polygon fill="none" stroke="#000000" points="119,-390.8463 119,-410.8463 163,-410.8463 163,-390.8463 119,-390.8463"/>
<text text-anchor="middle" x="141" y="-397.8463" font-family="FreeSans" font-size="10.00" fill="#000000">lukfdi</text>
</a>
</g>
</g>
<!-- Node1&#45;&gt;Node5 -->
<g id="edge4" class="edge">
<title>Node1&#45;&gt;Node5</title>
<path fill="none" stroke="#191970" d="M42.4853,-451.7734C61.5305,-441.928 90.7422,-426.827 112.4162,-415.6226"/>
<polygon fill="#191970" stroke="#191970" points="114.2098,-418.6355 121.4858,-410.9341 110.9952,-412.4172 114.2098,-418.6355"/>
</g>
<!-- Node15 -->
<g id="node15" class="node">
<title>Node15</title>
<g id="a_node15"><a xlink:href="../../d7/ded/ulmass_8f.html#aa951cb677600842104db95323a7647b2" target="_top" xlink:title="ulmass">
<polygon fill="none" stroke="#000000" points="628,-67.8463 628,-87.8463 680,-87.8463 680,-67.8463 628,-67.8463"/>
<text text-anchor="middle" x="654" y="-74.8463" font-family="FreeSans" font-size="10.00" fill="#000000">ulmass</text>
</a>
</g>
</g>
<!-- Node1&#45;&gt;Node15 -->
<g id="edge32" class="edge">
<title>Node1&#45;&gt;Node15</title>
<path fill="none" stroke="#191970" d="M23.6864,-451.8073C28.6519,-387.7506 64.6859,-38.8463 260.5,-38.8463 260.5,-38.8463 260.5,-38.8463 364.5,-38.8463 456.4526,-38.8463 563.3749,-58.4099 617.9358,-69.8249"/>
<polygon fill="#191970" stroke="#191970" points="617.3055,-73.269 627.8144,-71.923 618.7598,-66.4218 617.3055,-73.269"/>
</g>
<!-- Node16 -->
<g id="node16" class="node">
<title>Node16</title>
<g id="a_node16"><a xlink:href="../../d5/dae/rlu_8f.html#a722544a6fb4dd0f67ceda726148484f5" target="_top" xlink:title="rlu">
<polygon fill="none" stroke="#000000" points="820,-28.8463 820,-48.8463 849,-48.8463 849,-28.8463 820,-28.8463"/>
<text text-anchor="middle" x="834.5" y="-35.8463" font-family="FreeSans" font-size="10.00" fill="#000000">rlu</text>
</a>
</g>
</g>
<!-- Node1&#45;&gt;Node16 -->
<g id="edge31" class="edge">
<title>Node1&#45;&gt;Node16</title>
<path fill="none" stroke="#191970" d="M23.7967,-451.7748C28.6262,-391.7886 54.6872,-83.1316 82,-51.8463 136.2622,10.3081 177.9921,-.8463 260.5,-.8463 260.5,-.8463 260.5,-.8463 496.5,-.8463 614.4159,-.8463 754.0308,-23.9672 809.7475,-34.1391"/>
<polygon fill="#191970" stroke="#191970" points="809.2707,-37.6102 819.7409,-35.9901 810.5456,-30.7273 809.2707,-37.6102"/>
</g>
<!-- Node5&#45;&gt;Node4 -->
<g id="edge5" class="edge">
<title>Node5&#45;&gt;Node4</title>
<path fill="none" stroke="#191970" d="M163.299,-407.374C203.2555,-418.4763 289.859,-439.8463 364.5,-439.8463 364.5,-439.8463 364.5,-439.8463 496.5,-439.8463 597.5584,-439.8463 633.9312,-467.5909 723,-419.8463 745.5738,-407.7458 742.3744,-394.3293 759,-374.8463 778.7768,-351.6704 802.5701,-325.8319 818.0899,-309.2352"/>
<polygon fill="#191970" stroke="#191970" points="820.6992,-311.5694 824.9902,-301.8824 815.5949,-306.7792 820.6992,-311.5694"/>
</g>
<!-- Node6 -->
<g id="node6" class="node">
<title>Node6</title>
<g id="a_node6"><a xlink:href="../../df/dd0/luerrm_8f.html#ab2b89149ed6c532c613c12ae6c351b5d" target="_top" xlink:title="luerrm">
<polygon fill="none" stroke="#000000" points="236,-360.8463 236,-380.8463 285,-380.8463 285,-360.8463 236,-360.8463"/>
<text text-anchor="middle" x="260.5" y="-367.8463" font-family="FreeSans" font-size="10.00" fill="#000000">luerrm</text>
</a>
</g>
</g>
<!-- Node5&#45;&gt;Node6 -->
<g id="edge6" class="edge">
<title>Node5&#45;&gt;Node6</title>
<path fill="none" stroke="#191970" d="M163.197,-395.2738C180.8659,-390.8381 205.9028,-384.5527 226.1548,-379.4685"/>
<polygon fill="#191970" stroke="#191970" points="227.1043,-382.8388 235.9511,-377.0092 225.3998,-376.0495 227.1043,-382.8388"/>
</g>
<!-- Node5&#45;&gt;Node16 -->
<g id="edge30" class="edge">
<title>Node5&#45;&gt;Node16</title>
<path fill="none" stroke="#191970" d="M148.7098,-390.629C180.4824,-349.1929 306.1056,-191.8447 444,-106.8463 564.7217,-32.4332 744.1324,-33.7592 809.5144,-37.1061"/>
<polygon fill="#191970" stroke="#191970" points="809.4983,-40.6109 819.6834,-37.693 809.9017,-33.6225 809.4983,-40.6109"/>
</g>
<!-- Node7 -->
<g id="node7" class="node">
<title>Node7</title>
<g id="a_node7"><a xlink:href="../../d7/dda/lulist_8f.html#a69a9c5efe2681d7e19be2b4ed218153e" target="_top" xlink:title="lulist">
<polygon fill="none" stroke="#000000" points="344,-242.8463 344,-262.8463 385,-262.8463 385,-242.8463 344,-242.8463"/>
<text text-anchor="middle" x="364.5" y="-249.8463" font-family="FreeSans" font-size="10.00" fill="#000000">lulist</text>
</a>
</g>
</g>
<!-- Node6&#45;&gt;Node7 -->
<g id="edge7" class="edge">
<title>Node6&#45;&gt;Node7</title>
<path fill="none" stroke="#191970" d="M269.367,-360.7857C287.02,-340.7563 326.7607,-295.6659 348.8851,-270.5632"/>
<polygon fill="#191970" stroke="#191970" points="351.6692,-272.6978 355.6555,-262.8814 346.4177,-268.0693 351.6692,-272.6978"/>
</g>
<!-- Node17 -->
<g id="node17" class="node">
<title>Node17</title>
<g id="a_node17"><a xlink:href="../../d0/d5e/classPHTimer.html#adce6f9a85834e59bd154b9c624ee4e41" target="_top" xlink:title="stops the counter">
<polygon fill="none" stroke="#000000" points="321,-360.8463 321,-380.8463 408,-380.8463 408,-360.8463 321,-360.8463"/>
<text text-anchor="middle" x="364.5" y="-367.8463" font-family="FreeSans" font-size="10.00" fill="#000000">PHTimer::stop</text>
</a>
</g>
</g>
<!-- Node6&#45;&gt;Node17 -->
<g id="edge24" class="edge">
<title>Node6&#45;&gt;Node17</title>
<path fill="none" stroke="#191970" d="M285.1465,-370.8463C292.9149,-370.8463 301.8218,-370.8463 310.7964,-370.8463"/>
<polygon fill="#191970" stroke="#191970" points="310.9008,-374.3464 320.9008,-370.8463 310.9008,-367.3464 310.9008,-374.3464"/>
</g>
<!-- Node7&#45;&gt;Node4 -->
<g id="edge8" class="edge">
<title>Node7&#45;&gt;Node4</title>
<path fill="none" stroke="#191970" d="M385.2577,-258.667C401.2031,-262.9282 423.837,-268.5248 444,-271.8463 572.377,-292.9941 727.41,-293.6865 797.2281,-292.6988"/>
<polygon fill="#191970" stroke="#191970" points="797.3495,-296.1974 807.2916,-292.5359 797.2362,-289.1983 797.3495,-296.1974"/>
</g>
<!-- Node8 -->
<g id="node8" class="node">
<title>Node8</title>
<g id="a_node8"><a xlink:href="../../d6/d80/luname_8f.html#a87cfaa02a00bc60d5b1ce6c2fce29432" target="_top" xlink:title="luname">
<polygon fill="none" stroke="#000000" points="469.5,-242.8463 469.5,-262.8463 523.5,-262.8463 523.5,-242.8463 469.5,-242.8463"/>
<text text-anchor="middle" x="496.5" y="-249.8463" font-family="FreeSans" font-size="10.00" fill="#000000">luname</text>
</a>
</g>
</g>
<!-- Node7&#45;&gt;Node8 -->
<g id="edge9" class="edge">
<title>Node7&#45;&gt;Node8</title>
<path fill="none" stroke="#191970" d="M385.125,-252.8463C404.8318,-252.8463 434.9994,-252.8463 458.9693,-252.8463"/>
<polygon fill="#191970" stroke="#191970" points="459.1495,-256.3464 469.1495,-252.8463 459.1495,-249.3464 459.1495,-256.3464"/>
</g>
<!-- Node10 -->
<g id="node10" class="node">
<title>Node10</title>
<g id="a_node10"><a xlink:href="../../d0/d38/plu_8f.html#ab4b095f080a22e776f5a9cc25e23cc54" target="_top" xlink:title="plu">
<polygon fill="none" stroke="#000000" points="480.5,-174.8463 480.5,-194.8463 512.5,-194.8463 512.5,-174.8463 480.5,-174.8463"/>
<text text-anchor="middle" x="496.5" y="-181.8463" font-family="FreeSans" font-size="10.00" fill="#000000">plu</text>
</a>
</g>
</g>
<!-- Node7&#45;&gt;Node10 -->
<g id="edge13" class="edge">
<title>Node7&#45;&gt;Node10</title>
<path fill="none" stroke="#191970" d="M383.9771,-242.8126C407.1241,-230.8884 445.8046,-210.9621 471.2352,-197.8615"/>
<polygon fill="#191970" stroke="#191970" points="472.986,-200.8967 480.2729,-193.2057 469.7803,-194.6739 472.986,-200.8967"/>
</g>
<!-- Node7&#45;&gt;Node15 -->
<g id="edge23" class="edge">
<title>Node7&#45;&gt;Node15</title>
<path fill="none" stroke="#191970" d="M371.5854,-242.7111C384.3635,-225.0201 412.8514,-188.1703 444,-164.8463 498.2161,-124.2493 574.1266,-98.9826 618.2731,-86.7379"/>
<polygon fill="#191970" stroke="#191970" points="619.2457,-90.1007 627.986,-84.1125 617.4191,-83.3432 619.2457,-90.1007"/>
</g>
<!-- Node8&#45;&gt;Node4 -->
<g id="edge12" class="edge">
<title>Node8&#45;&gt;Node4</title>
<path fill="none" stroke="#191970" d="M523.5886,-255.9719C583.786,-262.9177 728.7598,-279.6455 797.3456,-287.5592"/>
<polygon fill="#191970" stroke="#191970" points="796.9471,-291.0364 807.2824,-288.7058 797.7495,-284.0825 796.9471,-291.0364"/>
</g>
<!-- Node9 -->
<g id="node9" class="node">
<title>Node9</title>
<g id="a_node9"><a xlink:href="../../df/d5f/luchge_8f.html#a86938fb3242850e133e3b60d256582b7" target="_top" xlink:title="luchge">
<polygon fill="none" stroke="#000000" points="629,-223.8463 629,-243.8463 679,-243.8463 679,-223.8463 629,-223.8463"/>
<text text-anchor="middle" x="654" y="-230.8463" font-family="FreeSans" font-size="10.00" fill="#000000">luchge</text>
</a>
</g>
</g>
<!-- Node8&#45;&gt;Node9 -->
<g id="edge10" class="edge">
<title>Node8&#45;&gt;Node9</title>
<path fill="none" stroke="#191970" d="M523.5752,-249.5801C549.8949,-246.405 590.0025,-241.5666 618.7897,-238.0939"/>
<polygon fill="#191970" stroke="#191970" points="619.328,-241.5544 628.8368,-236.8818 618.4896,-234.6048 619.328,-241.5544"/>
</g>
<!-- Node9&#45;&gt;Node4 -->
<g id="edge11" class="edge">
<title>Node9&#45;&gt;Node4</title>
<path fill="none" stroke="#191970" d="M679.0978,-241.9109C709.7792,-251.7698 761.9716,-268.5407 797.319,-279.8989"/>
<polygon fill="#191970" stroke="#191970" points="796.6661,-283.3653 807.2574,-283.0924 798.8076,-276.7009 796.6661,-283.3653"/>
</g>
<!-- Node10&#45;&gt;Node9 -->
<g id="edge16" class="edge">
<title>Node10&#45;&gt;Node9</title>
<path fill="none" stroke="#191970" d="M512.762,-189.9056C537.6916,-197.6614 585.9386,-212.6716 619.0448,-222.9713"/>
<polygon fill="#191970" stroke="#191970" points="618.2021,-226.3746 628.7904,-226.0033 620.2816,-219.6906 618.2021,-226.3746"/>
</g>
<!-- Node11 -->
<g id="node11" class="node">
<title>Node11</title>
<g id="a_node11"><a xlink:href="../../d4/d3e/classActs_1_1Logger.html#aee9e687247532b5175713e66b2d2121e" target="_top" xlink:title="create output stream object with internal cache">
<polygon fill="none" stroke="#000000" points="603,-106.8463 603,-126.8463 705,-126.8463 705,-106.8463 603,-106.8463"/>
<text text-anchor="middle" x="654" y="-113.8463" font-family="FreeSans" font-size="10.00" fill="#000000">Acts::Logger::log</text>
</a>
</g>
</g>
<!-- Node10&#45;&gt;Node11 -->
<g id="edge14" class="edge">
<title>Node10&#45;&gt;Node11</title>
<path fill="none" stroke="#191970" d="M511.9262,-174.8211C529.1587,-163.9806 558.167,-146.7878 585,-135.8463 590.1774,-133.7351 595.6666,-131.7791 601.1981,-129.9889"/>
<polygon fill="#191970" stroke="#191970" points="602.6029,-133.2194 611.1422,-126.9479 600.5558,-126.5254 602.6029,-133.2194"/>
</g>
<!-- Node13 -->
<g id="node13" class="node">
<title>Node13</title>
<g id="a_node13"><a xlink:href="../../da/d0a/CylinderKalman_8cpp.html#ab74daa0c9784c63e060bfb98cc06fbf5" target="_top" xlink:title="sign">
<polygon fill="none" stroke="#000000" points="816,-168.8463 816,-188.8463 853,-188.8463 853,-168.8463 816,-168.8463"/>
<text text-anchor="middle" x="834.5" y="-175.8463" font-family="FreeSans" font-size="10.00" fill="#000000">sign</text>
</a>
</g>
</g>
<!-- Node10&#45;&gt;Node13 -->
<g id="edge17" class="edge">
<title>Node10&#45;&gt;Node13</title>
<path fill="none" stroke="#191970" d="M512.8024,-184.5569C566.3762,-183.6059 737.4777,-180.5686 805.8622,-179.3546"/>
<polygon fill="#191970" stroke="#191970" points="805.9855,-182.8531 815.9218,-179.1761 805.8612,-175.8542 805.9855,-182.8531"/>
</g>
<!-- Node14 -->
<g id="node14" class="node">
<title>Node14</title>
<g id="a_node14"><a xlink:href="../../d2/da8/ulangl_8f.html#a13a8d5a72aa20b0ae2ceca14e31467ba" target="_top" xlink:title="ulangl">
<polygon fill="none" stroke="#000000" points="630.5,-145.8463 630.5,-165.8463 677.5,-165.8463 677.5,-145.8463 630.5,-145.8463"/>
<text text-anchor="middle" x="654" y="-152.8463" font-family="FreeSans" font-size="10.00" fill="#000000">ulangl</text>
</a>
</g>
</g>
<!-- Node10&#45;&gt;Node14 -->
<g id="edge18" class="edge">
<title>Node10&#45;&gt;Node14</title>
<path fill="none" stroke="#191970" d="M512.762,-181.852C538.0097,-177.2032 587.1736,-168.1508 620.3045,-162.0505"/>
<polygon fill="#191970" stroke="#191970" points="621.2464,-165.436 630.4473,-160.183 619.9788,-158.5517 621.2464,-165.436"/>
</g>
<!-- Node10&#45;&gt;Node15 -->
<g id="edge20" class="edge">
<title>Node10&#45;&gt;Node15</title>
<path fill="none" stroke="#191970" d="M509.5381,-174.6769C520.4926,-165.9012 536.3413,-152.6528 549,-139.8463 566.5218,-122.12 564.0327,-110.3224 585,-96.8463 594.8432,-90.5199 606.7816,-86.2769 617.9418,-83.4405"/>
<polygon fill="#191970" stroke="#191970" points="618.8969,-86.8134 627.8898,-81.2118 617.3665,-79.9827 618.8969,-86.8134"/>
</g>
<!-- Node12 -->
<g id="node12" class="node">
<title>Node12</title>
<g id="a_node12"><a xlink:href="../../df/dce/classActs_1_1Logging_1_1OutputPrintPolicy.html#ab113823970013e1e7f310b36509136ac" target="_top" xlink:title="handle output of debug message">
<polygon fill="none" stroke="#000000" points="759,-100.8463 759,-132.8463 910,-132.8463 910,-100.8463 759,-100.8463"/>
<text text-anchor="start" x="767" y="-119.8463" font-family="FreeSans" font-size="10.00" fill="#000000">Acts::Logging::OutputPrint</text>
<text text-anchor="middle" x="834.5" y="-107.8463" font-family="FreeSans" font-size="10.00" fill="#000000">Policy::flush</text>
</a>
</g>
</g>
<!-- Node11&#45;&gt;Node12 -->
<g id="edge15" class="edge">
<title>Node11&#45;&gt;Node12</title>
<path fill="none" stroke="#191970" d="M705.2412,-116.8463C718.7906,-116.8463 733.7926,-116.8463 748.6359,-116.8463"/>
<polygon fill="#191970" stroke="#191970" points="748.867,-120.3464 758.867,-116.8463 748.8669,-113.3464 748.867,-120.3464"/>
</g>
<!-- Node14&#45;&gt;Node13 -->
<g id="edge19" class="edge">
<title>Node14&#45;&gt;Node13</title>
<path fill="none" stroke="#191970" d="M677.5972,-158.8531C710.5057,-163.0464 770.1281,-170.6438 805.6407,-175.1689"/>
<polygon fill="#191970" stroke="#191970" points="805.4693,-178.6753 815.8315,-176.4675 806.3542,-171.7314 805.4693,-178.6753"/>
</g>
<!-- Node15&#45;&gt;Node4 -->
<g id="edge21" class="edge">
<title>Node15&#45;&gt;Node4</title>
<path fill="none" stroke="#191970" d="M680.0972,-79.2767C694.3667,-81.3469 711.4385,-86.1069 723,-96.8463 757.9158,-129.2793 735.755,-156.2448 759,-197.8463 775.2913,-227.0026 800.6053,-256.3314 817.3654,-274.2907"/>
<polygon fill="#191970" stroke="#191970" points="814.9773,-276.8587 824.4009,-281.7007 820.0536,-272.0388 814.9773,-276.8587"/>
</g>
<!-- Node15&#45;&gt;Node16 -->
<g id="edge22" class="edge">
<title>Node15&#45;&gt;Node16</title>
<path fill="none" stroke="#191970" d="M680.2462,-72.1753C715.0079,-64.6645 775.8697,-51.5143 809.8239,-44.178"/>
<polygon fill="#191970" stroke="#191970" points="810.8001,-47.5479 819.8353,-42.0148 809.3217,-40.7058 810.8001,-47.5479"/>
</g>
<!-- Node18 -->
<g id="node18" class="node">
<title>Node18</title>
<g id="a_node18"><a xlink:href="../../d0/d5e/classPHTimer.html#aa92e3fe4a0a1799f39743eda9ef9d497" target="_top" xlink:title="gets time from cpu clock counts">
<polygon fill="none" stroke="#000000" points="597.5,-339.8463 597.5,-371.8463 710.5,-371.8463 710.5,-339.8463 597.5,-339.8463"/>
<text text-anchor="start" x="605.5" y="-358.8463" font-family="FreeSans" font-size="10.00" fill="#000000">PHTimer::get_clock</text>
<text text-anchor="middle" x="654" y="-346.8463" font-family="FreeSans" font-size="10.00" fill="#000000">_counts</text>
</a>
</g>
</g>
<!-- Node17&#45;&gt;Node18 -->
<g id="edge25" class="edge">
<title>Node17&#45;&gt;Node18</title>
<path fill="none" stroke="#191970" d="M408.1545,-368.5844C455.665,-366.1227 532.1979,-362.1573 587.258,-359.3044"/>
<polygon fill="#191970" stroke="#191970" points="587.4717,-362.7981 597.2772,-358.7853 587.1095,-355.8075 587.4717,-362.7981"/>
</g>
<!-- Node19 -->
<g id="node19" class="node">
<title>Node19</title>
<g id="a_node19"><a xlink:href="../../d0/d5e/classPHTimer.html#a976738876ad978116fdc4549a3765685" target="_top" xlink:title="retrieve elapsed value since last restart (in ms)">
<polygon fill="none" stroke="#000000" points="444,-384.8463 444,-404.8463 549,-404.8463 549,-384.8463 444,-384.8463"/>
<text text-anchor="middle" x="496.5" y="-391.8463" font-family="FreeSans" font-size="10.00" fill="#000000">PHTimer::elapsed</text>
</a>
</g>
</g>
<!-- Node17&#45;&gt;Node19 -->
<g id="edge26" class="edge">
<title>Node17&#45;&gt;Node19</title>
<path fill="none" stroke="#191970" d="M408.0876,-378.7713C416.2917,-380.2629 425.0201,-381.8499 433.6756,-383.4236"/>
<polygon fill="#191970" stroke="#191970" points="433.3021,-386.9131 443.767,-385.2584 434.5544,-380.026 433.3021,-386.9131"/>
</g>
<!-- Node19&#45;&gt;Node18 -->
<g id="edge29" class="edge">
<title>Node19&#45;&gt;Node18</title>
<path fill="none" stroke="#191970" d="M537.0602,-384.8028C552.3746,-381.0107 570.2315,-376.5889 587.3129,-372.3593"/>
<polygon fill="#191970" stroke="#191970" points="588.3898,-375.6984 597.2554,-369.8973 586.7073,-368.9036 588.3898,-375.6984"/>
</g>
<!-- Node20 -->
<g id="node20" class="node">
<title>Node20</title>
<g id="a_node20"><a xlink:href="../../d0/d5e/classPHTimer.html#aa75ff2c27aba40e7ef0a934f9a3355c2" target="_top" xlink:title="returns difference between to time">
<polygon fill="none" stroke="#000000" points="585,-390.8463 585,-410.8463 723,-410.8463 723,-390.8463 585,-390.8463"/>
<text text-anchor="middle" x="654" y="-397.8463" font-family="FreeSans" font-size="10.00" fill="#000000">PHTimer::get_difference</text>
</a>
</g>
</g>
<!-- Node19&#45;&gt;Node20 -->
<g id="edge27" class="edge">
<title>Node19&#45;&gt;Node20</title>
<path fill="none" stroke="#191970" d="M549.3834,-396.8609C557.5408,-397.1716 566.1148,-397.4983 574.6976,-397.8252"/>
<polygon fill="#191970" stroke="#191970" points="574.6266,-401.325 584.7526,-398.2083 574.8931,-394.33 574.6266,-401.325"/>
</g>
<!-- Node21 -->
<g id="node21" class="node">
<title>Node21</title>
<g id="a_node21"><a xlink:href="../../d2/db1/classPHTimer_1_1Frequency.html#a023a2d706df9a8bd303810a9ed017f61" target="_top" xlink:title="period accessor">
<polygon fill="none" stroke="#000000" points="775.5,-384.8463 775.5,-416.8463 893.5,-416.8463 893.5,-384.8463 775.5,-384.8463"/>
<text text-anchor="start" x="783.5" y="-403.8463" font-family="FreeSans" font-size="10.00" fill="#000000">PHTimer::Frequency</text>
<text text-anchor="middle" x="834.5" y="-391.8463" font-family="FreeSans" font-size="10.00" fill="#000000">::period</text>
</a>
</g>
</g>
<!-- Node20&#45;&gt;Node21 -->
<g id="edge28" class="edge">
<title>Node20&#45;&gt;Node21</title>
<path fill="none" stroke="#191970" d="M723.0119,-400.8463C736.7321,-400.8463 751.1466,-400.8463 764.8868,-400.8463"/>
<polygon fill="#191970" stroke="#191970" points="765.2399,-404.3464 775.2399,-400.8463 765.2398,-397.3464 765.2399,-404.3464"/>
</g>
</g>
</svg>
