<?xml version="1.0" encoding="UTF-8" standalone="no"?>
<!DOCTYPE svg PUBLIC "-//W3C//DTD SVG 1.1//EN"
 "http://www.w3.org/Graphics/SVG/1.1/DTD/svg11.dtd">
<!-- Generated by graphviz version 2.40.1 (20161225.0304)
 -->
<!-- Title: fun4all_acts/blob/master/Examples/Algorithms/Generators/ACTFW/Generators/EventGenerator.hpp Pages: 1 -->
<svg width="1813pt" height="215pt"
 viewBox="0.00 0.00 1813.00 215.00" xmlns="http://www.w3.org/2000/svg" xmlns:xlink="http://www.w3.org/1999/xlink">
<g id="graph0" class="graph" transform="scale(1 1) rotate(0) translate(4 211)">
<title>fun4all_acts/blob/master/Examples/Algorithms/Generators/ACTFW/Generators/EventGenerator.hpp</title>
<!-- Node1 -->
<g id="node1" class="node">
<title>Node1</title>
<polygon fill="#bfbfbf" stroke="#000000" points="506.5,-162.5 506.5,-206.5 728.5,-206.5 728.5,-162.5 506.5,-162.5"/>
<text text-anchor="start" x="514.5" y="-193.5" font-family="FreeSans" font-size="10.00" fill="#000000">fun4all_acts/blob/master</text>
<text text-anchor="start" x="514.5" y="-181.5" font-family="FreeSans" font-size="10.00" fill="#000000">/Examples/Algorithms/Generators</text>
<text text-anchor="middle" x="617.5" y="-169.5" font-family="FreeSans" font-size="10.00" fill="#000000">/ACTFW/Generators/EventGenerator.hpp</text>
</g>
<!-- Node2 -->
<g id="node2" class="node">
<title>Node2</title>
<g id="a_node2"><a xlink:href="../../d5/d77/EventGenerator_8cpp.html" target="_top" xlink:title="fun4all_acts/blob/master\l/Examples/Algorithms/Generators\l/ACTFW/Generators/EventGenerator.cpp">
<polygon fill="none" stroke="#000000" points="185,-81.5 185,-125.5 406,-125.5 406,-81.5 185,-81.5"/>
<text text-anchor="start" x="193" y="-112.5" font-family="FreeSans" font-size="10.00" fill="#000000">fun4all_acts/blob/master</text>
<text text-anchor="start" x="193" y="-100.5" font-family="FreeSans" font-size="10.00" fill="#000000">/Examples/Algorithms/Generators</text>
<text text-anchor="middle" x="295.5" y="-88.5" font-family="FreeSans" font-size="10.00" fill="#000000">/ACTFW/Generators/EventGenerator.cpp</text>
</a>
</g>
</g>
<!-- Node1&#45;&gt;Node2 -->
<g id="edge1" class="edge">
<title>Node1&#45;&gt;Node2</title>
<path fill="none" stroke="#191970" d="M520.1715,-160.0167C476.5356,-149.04 425.4614,-136.1921 383.0452,-125.5222"/>
<polygon fill="#191970" stroke="#191970" points="519.3857,-163.428 529.9374,-162.4734 521.0934,-156.6395 519.3857,-163.428"/>
</g>
<!-- Node3 -->
<g id="node3" class="node">
<title>Node3</title>
<g id="a_node3"><a xlink:href="../../db/d45/ParticleGunOptions_8hpp.html" target="_top" xlink:title="fun4all_acts/blob/master\l/Examples/Algorithms/Generators\l/ACTFW/Options/ParticleGunOptions.hpp">
<polygon fill="none" stroke="#000000" points="423.5,-81.5 423.5,-125.5 645.5,-125.5 645.5,-81.5 423.5,-81.5"/>
<text text-anchor="start" x="431.5" y="-112.5" font-family="FreeSans" font-size="10.00" fill="#000000">fun4all_acts/blob/master</text>
<text text-anchor="start" x="431.5" y="-100.5" font-family="FreeSans" font-size="10.00" fill="#000000">/Examples/Algorithms/Generators</text>
<text text-anchor="middle" x="534.5" y="-88.5" font-family="FreeSans" font-size="10.00" fill="#000000">/ACTFW/Options/ParticleGunOptions.hpp</text>
</a>
</g>
</g>
<!-- Node1&#45;&gt;Node3 -->
<g id="edge2" class="edge">
<title>Node1&#45;&gt;Node3</title>
<path fill="none" stroke="#191970" d="M587.4118,-155.1368C577.4249,-145.3906 566.4821,-134.7114 557.1527,-125.6068"/>
<polygon fill="#191970" stroke="#191970" points="585.2186,-157.8869 594.8199,-162.3664 590.1076,-152.8772 585.2186,-157.8869"/>
</g>
<!-- Node6 -->
<g id="node6" class="node">
<title>Node6</title>
<g id="a_node6"><a xlink:href="../../d3/d77/FatrasEvgenBase_8cpp.html" target="_top" xlink:title="fun4all_acts/blob/master\l/Examples/Run/Fatras/Common\l/FatrasEvgenBase.cpp">
<polygon fill="none" stroke="#000000" points="627,-.5 627,-44.5 802,-44.5 802,-.5 627,-.5"/>
<text text-anchor="start" x="635" y="-31.5" font-family="FreeSans" font-size="10.00" fill="#000000">fun4all_acts/blob/master</text>
<text text-anchor="start" x="635" y="-19.5" font-family="FreeSans" font-size="10.00" fill="#000000">/Examples/Run/Fatras/Common</text>
<text text-anchor="middle" x="714.5" y="-7.5" font-family="FreeSans" font-size="10.00" fill="#000000">/FatrasEvgenBase.cpp</text>
</a>
</g>
</g>
<!-- Node1&#45;&gt;Node6 -->
<g id="edge15" class="edge">
<title>Node1&#45;&gt;Node6</title>
<path fill="none" stroke="#191970" d="M637.2146,-153.8227C642.8672,-144.8947 648.9896,-135.0963 654.5,-126 671.2878,-98.2875 689.8958,-65.9161 701.8716,-44.8546"/>
<polygon fill="#191970" stroke="#191970" points="634.1713,-152.0859 631.7585,-162.4024 640.0781,-155.8422 634.1713,-152.0859"/>
</g>
<!-- Node8 -->
<g id="node8" class="node">
<title>Node8</title>
<g id="a_node8"><a xlink:href="../../dd/d1d/Pythia8Options_8hpp.html" target="_top" xlink:title="fun4all_acts/blob/master\l/Examples/Algorithms/Generators\lPythia8/ACTFW/Options/Pythia8Options.hpp">
<polygon fill="none" stroke="#000000" points="898,-81.5 898,-125.5 1137,-125.5 1137,-81.5 898,-81.5"/>
<text text-anchor="start" x="906" y="-112.5" font-family="FreeSans" font-size="10.00" fill="#000000">fun4all_acts/blob/master</text>
<text text-anchor="start" x="906" y="-100.5" font-family="FreeSans" font-size="10.00" fill="#000000">/Examples/Algorithms/Generators</text>
<text text-anchor="middle" x="1017.5" y="-88.5" font-family="FreeSans" font-size="10.00" fill="#000000">Pythia8/ACTFW/Options/Pythia8Options.hpp</text>
</a>
</g>
</g>
<!-- Node1&#45;&gt;Node8 -->
<g id="edge7" class="edge">
<title>Node1&#45;&gt;Node8</title>
<path fill="none" stroke="#191970" d="M736.3597,-160.4309C791.0098,-149.3643 855.3931,-136.3266 908.7483,-125.5222"/>
<polygon fill="#191970" stroke="#191970" points="735.3798,-157.0582 726.2734,-162.4734 736.7691,-163.919 735.3798,-157.0582"/>
</g>
<!-- Node4 -->
<g id="node4" class="node">
<title>Node4</title>
<g id="a_node4"><a xlink:href="../../da/d2f/ParticleGunOptions_8cpp.html" target="_top" xlink:title="fun4all_acts/blob/master\l/Examples/Algorithms/Generators\l/ACTFW/Options/ParticleGunOptions.cpp">
<polygon fill="none" stroke="#000000" points="195,-.5 195,-44.5 416,-44.5 416,-.5 195,-.5"/>
<text text-anchor="start" x="203" y="-31.5" font-family="FreeSans" font-size="10.00" fill="#000000">fun4all_acts/blob/master</text>
<text text-anchor="start" x="203" y="-19.5" font-family="FreeSans" font-size="10.00" fill="#000000">/Examples/Algorithms/Generators</text>
<text text-anchor="middle" x="305.5" y="-7.5" font-family="FreeSans" font-size="10.00" fill="#000000">/ACTFW/Options/ParticleGunOptions.cpp</text>
</a>
</g>
</g>
<!-- Node3&#45;&gt;Node4 -->
<g id="edge3" class="edge">
<title>Node3&#45;&gt;Node4</title>
<path fill="none" stroke="#191970" d="M462.5302,-78.0434C432.1176,-67.2861 397.0387,-54.8783 367.7604,-44.5222"/>
<polygon fill="#191970" stroke="#191970" points="461.6324,-81.4383 472.2272,-81.4734 463.9668,-74.839 461.6324,-81.4383"/>
</g>
<!-- Node5 -->
<g id="node5" class="node">
<title>Node5</title>
<g id="a_node5"><a xlink:href="../../de/d42/ParticleGun_8cpp.html" target="_top" xlink:title="fun4all_acts/blob/master\l/Examples/Run/EventGenerator\l/ParticleGun.cpp">
<polygon fill="none" stroke="#000000" points="0,-.5 0,-44.5 177,-44.5 177,-.5 0,-.5"/>
<text text-anchor="start" x="8" y="-31.5" font-family="FreeSans" font-size="10.00" fill="#000000">fun4all_acts/blob/master</text>
<text text-anchor="start" x="8" y="-19.5" font-family="FreeSans" font-size="10.00" fill="#000000">/Examples/Run/EventGenerator</text>
<text text-anchor="middle" x="88.5" y="-7.5" font-family="FreeSans" font-size="10.00" fill="#000000">/ParticleGun.cpp</text>
</a>
</g>
</g>
<!-- Node3&#45;&gt;Node5 -->
<g id="edge4" class="edge">
<title>Node3&#45;&gt;Node5</title>
<path fill="none" stroke="#191970" d="M413.2679,-80.8183C311.2497,-63.5561 283.4755,-64.0386 185.5,-45 182.7848,-44.4724 180.0301,-43.9228 177.2514,-43.3561"/>
<polygon fill="#191970" stroke="#191970" points="412.9306,-84.3113 423.3773,-82.5454 414.1095,-77.4113 412.9306,-84.3113"/>
</g>
<!-- Node3&#45;&gt;Node6 -->
<g id="edge5" class="edge">
<title>Node3&#45;&gt;Node6</title>
<path fill="none" stroke="#191970" d="M592.8238,-77.2543C616.2505,-66.7123 642.9594,-54.6933 665.3737,-44.6068"/>
<polygon fill="#191970" stroke="#191970" points="591.3687,-74.071 583.6858,-81.3664 594.2413,-80.4544 591.3687,-74.071"/>
</g>
<!-- Node7 -->
<g id="node7" class="node">
<title>Node7</title>
<g id="a_node7"><a xlink:href="../../d1/d71/FatrasMain_8cpp.html" target="_top" xlink:title="fun4all_acts/blob/master\l/Examples/Run/Fatras/Common\l/FatrasMain.cpp">
<polygon fill="none" stroke="#000000" points="434,-.5 434,-44.5 609,-44.5 609,-.5 434,-.5"/>
<text text-anchor="start" x="442" y="-31.5" font-family="FreeSans" font-size="10.00" fill="#000000">fun4all_acts/blob/master</text>
<text text-anchor="start" x="442" y="-19.5" font-family="FreeSans" font-size="10.00" fill="#000000">/Examples/Run/Fatras/Common</text>
<text text-anchor="middle" x="521.5" y="-7.5" font-family="FreeSans" font-size="10.00" fill="#000000">/FatrasMain.cpp</text>
</a>
</g>
</g>
<!-- Node3&#45;&gt;Node7 -->
<g id="edge6" class="edge">
<title>Node3&#45;&gt;Node7</title>
<path fill="none" stroke="#191970" d="M529.3234,-71.2457C527.8895,-62.3118 526.366,-52.8188 525.048,-44.6068"/>
<polygon fill="#191970" stroke="#191970" points="525.9072,-72.0474 530.9477,-81.3664 532.8187,-70.9381 525.9072,-72.0474"/>
</g>
<!-- Node8&#45;&gt;Node6 -->
<g id="edge10" class="edge">
<title>Node8&#45;&gt;Node6</title>
<path fill="none" stroke="#191970" d="M925.3965,-78.8783C884.4497,-67.9321 836.6252,-55.1473 796.8794,-44.5222"/>
<polygon fill="#191970" stroke="#191970" points="924.5395,-82.272 935.1042,-81.4734 926.3473,-75.5095 924.5395,-82.272"/>
</g>
<!-- Node8&#45;&gt;Node7 -->
<g id="edge11" class="edge">
<title>Node8&#45;&gt;Node7</title>
<path fill="none" stroke="#191970" d="M887.6587,-87.3536C809.1693,-76.8879 707.2609,-62.0507 617.5,-45 614.7251,-44.4729 611.9091,-43.9203 609.0688,-43.3476"/>
<polygon fill="#191970" stroke="#191970" points="887.2249,-90.8266 897.5984,-88.6723 888.1456,-83.8874 887.2249,-90.8266"/>
</g>
<!-- Node9 -->
<g id="node9" class="node">
<title>Node9</title>
<g id="a_node9"><a xlink:href="../../d4/d79/Pythia8Options_8cpp.html" target="_top" xlink:title="fun4all_acts/blob/master\l/Examples/Algorithms/Generators\lPythia8/ACTFW/Options/Pythia8Options.cpp">
<polygon fill="none" stroke="#000000" points="1371.5,-.5 1371.5,-44.5 1609.5,-44.5 1609.5,-.5 1371.5,-.5"/>
<text text-anchor="start" x="1379.5" y="-31.5" font-family="FreeSans" font-size="10.00" fill="#000000">fun4all_acts/blob/master</text>
<text text-anchor="start" x="1379.5" y="-19.5" font-family="FreeSans" font-size="10.00" fill="#000000">/Examples/Algorithms/Generators</text>
<text text-anchor="middle" x="1490.5" y="-7.5" font-family="FreeSans" font-size="10.00" fill="#000000">Pythia8/ACTFW/Options/Pythia8Options.cpp</text>
</a>
</g>
</g>
<!-- Node8&#45;&gt;Node9 -->
<g id="edge8" class="edge">
<title>Node8&#45;&gt;Node9</title>
<path fill="none" stroke="#191970" d="M1147.5241,-81.643C1212.169,-70.7277 1291.4689,-57.2651 1362.5,-45 1365.3904,-44.5009 1368.3173,-43.9945 1371.2696,-43.4828"/>
<polygon fill="#191970" stroke="#191970" points="1146.5563,-78.2567 1137.2784,-83.3724 1147.7215,-85.1591 1146.5563,-78.2567"/>
</g>
<!-- Node10 -->
<g id="node10" class="node">
<title>Node10</title>
<g id="a_node10"><a xlink:href="../../d9/d60/Pythia8_8cpp.html" target="_top" xlink:title="fun4all_acts/blob/master\l/Examples/Run/EventGenerator\l/Pythia8/Pythia8.cpp">
<polygon fill="none" stroke="#000000" points="1628,-.5 1628,-44.5 1805,-44.5 1805,-.5 1628,-.5"/>
<text text-anchor="start" x="1636" y="-31.5" font-family="FreeSans" font-size="10.00" fill="#000000">fun4all_acts/blob/master</text>
<text text-anchor="start" x="1636" y="-19.5" font-family="FreeSans" font-size="10.00" fill="#000000">/Examples/Run/EventGenerator</text>
<text text-anchor="middle" x="1716.5" y="-7.5" font-family="FreeSans" font-size="10.00" fill="#000000">/Pythia8/Pythia8.cpp</text>
</a>
</g>
</g>
<!-- Node8&#45;&gt;Node10 -->
<g id="edge9" class="edge">
<title>Node8&#45;&gt;Node10</title>
<path fill="none" stroke="#191970" d="M1147.3907,-95.7003C1269.5374,-87.2227 1457.2206,-71.2517 1618.5,-45 1621.6014,-44.4952 1624.7511,-43.9501 1627.9271,-43.373"/>
<polygon fill="#191970" stroke="#191970" points="1146.983,-92.22 1137.2466,-96.3976 1147.4631,-99.2035 1146.983,-92.22"/>
</g>
<!-- Node11 -->
<g id="node11" class="node">
<title>Node11</title>
<g id="a_node11"><a xlink:href="../../dc/d7e/VertexAndTracksWriterExample_8cpp.html" target="_top" xlink:title="fun4all_acts/blob/master\l/Examples/Run/Vertexing\l/VertexAndTracksWriterExample.cpp">
<polygon fill="none" stroke="#000000" points="820,-.5 820,-44.5 1021,-44.5 1021,-.5 820,-.5"/>
<text text-anchor="start" x="828" y="-31.5" font-family="FreeSans" font-size="10.00" fill="#000000">fun4all_acts/blob/master</text>
<text text-anchor="start" x="828" y="-19.5" font-family="FreeSans" font-size="10.00" fill="#000000">/Examples/Run/Vertexing</text>
<text text-anchor="middle" x="920.5" y="-7.5" font-family="FreeSans" font-size="10.00" fill="#000000">/VertexAndTracksWriterExample.cpp</text>
</a>
</g>
</g>
<!-- Node8&#45;&gt;Node11 -->
<g id="edge12" class="edge">
<title>Node8&#45;&gt;Node11</title>
<path fill="none" stroke="#191970" d="M983.0219,-74.709C971.1675,-64.81 958.0904,-53.8899 946.9736,-44.6068"/>
<polygon fill="#191970" stroke="#191970" points="981.0752,-77.6432 990.9943,-81.3664 985.562,-72.2702 981.0752,-77.6432"/>
</g>
<!-- Node12 -->
<g id="node12" class="node">
<title>Node12</title>
<g id="a_node12"><a xlink:href="../../d2/d79/VertexFinderExample_8cpp.html" target="_top" xlink:title="fun4all_acts/blob/master\l/Examples/Run/Vertexing\l/VertexFinderExample.cpp">
<polygon fill="none" stroke="#000000" points="1039.5,-.5 1039.5,-44.5 1189.5,-44.5 1189.5,-.5 1039.5,-.5"/>
<text text-anchor="start" x="1047.5" y="-31.5" font-family="FreeSans" font-size="10.00" fill="#000000">fun4all_acts/blob/master</text>
<text text-anchor="start" x="1047.5" y="-19.5" font-family="FreeSans" font-size="10.00" fill="#000000">/Examples/Run/Vertexing</text>
<text text-anchor="middle" x="1114.5" y="-7.5" font-family="FreeSans" font-size="10.00" fill="#000000">/VertexFinderExample.cpp</text>
</a>
</g>
</g>
<!-- Node8&#45;&gt;Node12 -->
<g id="edge13" class="edge">
<title>Node8&#45;&gt;Node12</title>
<path fill="none" stroke="#191970" d="M1051.9781,-74.709C1063.8325,-64.81 1076.9096,-53.8899 1088.0264,-44.6068"/>
<polygon fill="#191970" stroke="#191970" points="1049.438,-72.2702 1044.0057,-81.3664 1053.9248,-77.6432 1049.438,-72.2702"/>
</g>
<!-- Node13 -->
<g id="node13" class="node">
<title>Node13</title>
<g id="a_node13"><a xlink:href="../../d3/d0a/VertexFitterExample_8cpp.html" target="_top" xlink:title="fun4all_acts/blob/master\l/Examples/Run/Vertexing\l/VertexFitterExample.cpp">
<polygon fill="none" stroke="#000000" points="1208,-.5 1208,-44.5 1353,-44.5 1353,-.5 1208,-.5"/>
<text text-anchor="start" x="1216" y="-31.5" font-family="FreeSans" font-size="10.00" fill="#000000">fun4all_acts/blob/master</text>
<text text-anchor="start" x="1216" y="-19.5" font-family="FreeSans" font-size="10.00" fill="#000000">/Examples/Run/Vertexing</text>
<text text-anchor="middle" x="1280.5" y="-7.5" font-family="FreeSans" font-size="10.00" fill="#000000">/VertexFitterExample.cpp</text>
</a>
</g>
</g>
<!-- Node8&#45;&gt;Node13 -->
<g id="edge14" class="edge">
<title>Node8&#45;&gt;Node13</title>
<path fill="none" stroke="#191970" d="M1098.7971,-78.4617C1134.0357,-67.6088 1174.9337,-55.0128 1208.9957,-44.5222"/>
<polygon fill="#191970" stroke="#191970" points="1097.5453,-75.185 1089.0185,-81.4734 1099.6057,-81.8749 1097.5453,-75.185"/>
</g>
</g>
</svg>
