<?xml version="1.0" encoding="UTF-8" standalone="no"?>
<!DOCTYPE svg PUBLIC "-//W3C//DTD SVG 1.1//EN"
 "http://www.w3.org/Graphics/SVG/1.1/DTD/svg11.dtd">
<!-- Generated by graphviz version 2.40.1 (20161225.0304)
 -->
<!-- Title: FairGenericParRootFileIo Pages: 1 -->
<svg width="146pt" height="200pt"
 viewBox="0.00 0.00 146.00 200.00" xmlns="http://www.w3.org/2000/svg" xmlns:xlink="http://www.w3.org/1999/xlink">
<g id="graph0" class="graph" transform="scale(1 1) rotate(0) translate(4 196)">
<title>FairGenericParRootFileIo</title>
<!-- Node1 -->
<g id="node1" class="node">
<title>Node1</title>
<polygon fill="#bfbfbf" stroke="#000000" points="0,-.5 0,-20.5 138,-20.5 138,-.5 0,-.5"/>
<text text-anchor="middle" x="69" y="-7.5" font-family="FreeSans" font-size="10.00" fill="#000000">FairGenericParRootFileIo</text>
</g>
<!-- Node2 -->
<g id="node2" class="node">
<title>Node2</title>
<g id="a_node2"><a xlink:href="../../d1/db3/classFairDetParRootFileIo.html" target="_top" xlink:title="FairDetParRootFileIo">
<polygon fill="none" stroke="#000000" points="11,-57.5 11,-77.5 127,-77.5 127,-57.5 11,-57.5"/>
<text text-anchor="middle" x="69" y="-64.5" font-family="FreeSans" font-size="10.00" fill="#000000">FairDetParRootFileIo</text>
</a>
</g>
</g>
<!-- Node2&#45;&gt;Node1 -->
<g id="edge1" class="edge">
<title>Node2&#45;&gt;Node1</title>
<path fill="none" stroke="#191970" d="M69,-47.1771C69,-38.1625 69,-27.9556 69,-20.6022"/>
<polygon fill="#191970" stroke="#191970" points="65.5001,-47.3095 69,-57.3095 72.5001,-47.3096 65.5001,-47.3095"/>
</g>
<!-- Node3 -->
<g id="node3" class="node">
<title>Node3</title>
<g id="a_node3"><a xlink:href="../../d7/d67/classFairDetParIo.html" target="_top" xlink:title="FairDetParIo">
<polygon fill="none" stroke="#000000" points="30.5,-114.5 30.5,-134.5 107.5,-134.5 107.5,-114.5 30.5,-114.5"/>
<text text-anchor="middle" x="69" y="-121.5" font-family="FreeSans" font-size="10.00" fill="#000000">FairDetParIo</text>
</a>
</g>
</g>
<!-- Node3&#45;&gt;Node2 -->
<g id="edge2" class="edge">
<title>Node3&#45;&gt;Node2</title>
<path fill="none" stroke="#191970" d="M69,-104.1771C69,-95.1625 69,-84.9556 69,-77.6022"/>
<polygon fill="#191970" stroke="#191970" points="65.5001,-104.3095 69,-114.3095 72.5001,-104.3096 65.5001,-104.3095"/>
</g>
<!-- Node4 -->
<g id="node4" class="node">
<title>Node4</title>
<polygon fill="none" stroke="#bfbfbf" points="39.5,-171.5 39.5,-191.5 98.5,-191.5 98.5,-171.5 39.5,-171.5"/>
<text text-anchor="middle" x="69" y="-178.5" font-family="FreeSans" font-size="10.00" fill="#000000">TNamed</text>
</g>
<!-- Node4&#45;&gt;Node3 -->
<g id="edge3" class="edge">
<title>Node4&#45;&gt;Node3</title>
<path fill="none" stroke="#191970" d="M69,-161.1771C69,-152.1625 69,-141.9556 69,-134.6022"/>
<polygon fill="#191970" stroke="#191970" points="65.5001,-161.3095 69,-171.3095 72.5001,-161.3096 65.5001,-161.3095"/>
</g>
</g>
</svg>
