<?xml version="1.0" encoding="UTF-8" standalone="no"?>
<!DOCTYPE svg PUBLIC "-//W3C//DTD SVG 1.1//EN"
 "http://www.w3.org/Graphics/SVG/1.1/DTD/svg11.dtd">
<!-- Generated by graphviz version 2.40.1 (20161225.0304)
 -->
<!-- Title: FW::selectModule Pages: 1 -->
<svg width="277pt" height="68pt"
 viewBox="0.00 0.00 277.00 68.00" xmlns="http://www.w3.org/2000/svg" xmlns:xlink="http://www.w3.org/1999/xlink">
<g id="graph0" class="graph" transform="scale(1 1) rotate(0) translate(4 64)">
<title>FW::selectModule</title>
<!-- Node1 -->
<g id="node1" class="node">
<title>Node1</title>
<polygon fill="#bfbfbf" stroke="#000000" points="0,-19.5 0,-39.5 105,-39.5 105,-19.5 0,-19.5"/>
<text text-anchor="middle" x="52.5" y="-26.5" font-family="FreeSans" font-size="10.00" fill="#000000">FW::selectModule</text>
</g>
<!-- Node2 -->
<g id="node2" class="node">
<title>Node2</title>
<g id="a_node2"><a xlink:href="../../db/de1/classFW_1_1PrintHits.html#aeed4774fc40ef803395fe4a0b9944de0" target="_top" xlink:title="FW::PrintHits::execute">
<polygon fill="none" stroke="#000000" points="141,-39.5 141,-59.5 269,-59.5 269,-39.5 141,-39.5"/>
<text text-anchor="middle" x="205" y="-46.5" font-family="FreeSans" font-size="10.00" fill="#000000">FW::PrintHits::execute</text>
</a>
</g>
</g>
<!-- Node1&#45;&gt;Node2 -->
<g id="edge1" class="edge">
<title>Node1&#45;&gt;Node2</title>
<path fill="none" stroke="#191970" d="M115.4972,-37.7619C123.8806,-38.8614 132.4844,-39.9898 140.8865,-41.0917"/>
<polygon fill="#191970" stroke="#191970" points="115.7794,-34.269 105.4091,-36.4389 114.8691,-41.2096 115.7794,-34.269"/>
</g>
<!-- Node3 -->
<g id="node3" class="node">
<title>Node3</title>
<g id="a_node3"><a xlink:href="../../d1/d10/namespaceFW.html#a9a71fb6adb30c90581f5dd2ab69917b2" target="_top" xlink:title="FW::selectModule">
<polygon fill="none" stroke="#000000" points="152.5,-.5 152.5,-20.5 257.5,-20.5 257.5,-.5 152.5,-.5"/>
<text text-anchor="middle" x="205" y="-7.5" font-family="FreeSans" font-size="10.00" fill="#000000">FW::selectModule</text>
</a>
</g>
</g>
<!-- Node1&#45;&gt;Node3 -->
<g id="edge2" class="edge">
<title>Node1&#45;&gt;Node3</title>
<path fill="none" stroke="#191970" d="M115.5699,-21.6421C127.832,-20.1144 140.5631,-18.5282 152.4423,-17.0482"/>
<polygon fill="#191970" stroke="#191970" points="114.8996,-18.1985 105.4091,-22.908 115.7651,-25.1448 114.8996,-18.1985"/>
</g>
</g>
</svg>
