<?xml version="1.0" encoding="UTF-8" standalone="no"?>
<!DOCTYPE svg PUBLIC "-//W3C//DTD SVG 1.1//EN"
 "http://www.w3.org/Graphics/SVG/1.1/DTD/svg11.dtd">
<!-- Generated by graphviz version 2.40.1 (20161225.0304)
 -->
<!-- Title: fun4all_coresoftware/blob/master/offline/packages/trackbase/TpcSeedTrackMapv1.h Pages: 1 -->
<svg width="452pt" height="236pt"
 viewBox="0.00 0.00 452.00 236.00" xmlns="http://www.w3.org/2000/svg" xmlns:xlink="http://www.w3.org/1999/xlink">
<g id="graph0" class="graph" transform="scale(1 1) rotate(0) translate(4 232)">
<title>fun4all_coresoftware/blob/master/offline/packages/trackbase/TpcSeedTrackMapv1.h</title>
<!-- Node1 -->
<g id="node1" class="node">
<title>Node1</title>
<polygon fill="#bfbfbf" stroke="#000000" points="150.5,-171.5 150.5,-227.5 345.5,-227.5 345.5,-171.5 150.5,-171.5"/>
<text text-anchor="start" x="158.5" y="-214.5" font-family="FreeSans" font-size="10.00" fill="#000000">fun4all_coresoftware</text>
<text text-anchor="start" x="158.5" y="-202.5" font-family="FreeSans" font-size="10.00" fill="#000000">/blob/master/offline</text>
<text text-anchor="start" x="158.5" y="-190.5" font-family="FreeSans" font-size="10.00" fill="#000000">/packages/trackbase/TpcSeedTrack</text>
<text text-anchor="middle" x="248" y="-178.5" font-family="FreeSans" font-size="10.00" fill="#000000">Mapv1.h</text>
</g>
<!-- Node2 -->
<g id="node2" class="node">
<title>Node2</title>
<g id="a_node2"><a xlink:href="../../d8/d00/TrkrDefs_8h.html" target="_top" xlink:title="Namespace with Trkr key types and utility functions.">
<polygon fill="none" stroke="#000000" points="0,-57.5 0,-77.5 120,-77.5 120,-57.5 0,-57.5"/>
<text text-anchor="middle" x="60" y="-64.5" font-family="FreeSans" font-size="10.00" fill="#000000">trackbase/TrkrDefs.h</text>
</a>
</g>
</g>
<!-- Node1&#45;&gt;Node2 -->
<g id="edge1" class="edge">
<title>Node1&#45;&gt;Node2</title>
<path fill="none" stroke="#191970" d="M207.6693,-171.1827C169.5683,-144.4309 113.7761,-105.2577 82.8224,-83.5243"/>
<polygon fill="#191970" stroke="#191970" points="84.6183,-80.5086 74.4229,-77.6267 80.5958,-86.2375 84.6183,-80.5086"/>
</g>
<!-- Node5 -->
<g id="node5" class="node">
<title>Node5</title>
<g id="a_node5"><a xlink:href="../../d1/d57/TpcSeedTrackMap_8h.html" target="_top" xlink:title="TpcSeedTrackMap.h">
<polygon fill="none" stroke="#000000" points="189,-114.5 189,-134.5 307,-134.5 307,-114.5 189,-114.5"/>
<text text-anchor="middle" x="248" y="-121.5" font-family="FreeSans" font-size="10.00" fill="#000000">TpcSeedTrackMap.h</text>
</a>
</g>
</g>
<!-- Node1&#45;&gt;Node5 -->
<g id="edge4" class="edge">
<title>Node1&#45;&gt;Node5</title>
<path fill="none" stroke="#191970" d="M248,-171.1457C248,-162.3619 248,-152.8652 248,-144.7476"/>
<polygon fill="#191970" stroke="#191970" points="251.5001,-144.7295 248,-134.7296 244.5001,-144.7296 251.5001,-144.7295"/>
</g>
<!-- Node8 -->
<g id="node8" class="node">
<title>Node8</title>
<polygon fill="none" stroke="#bfbfbf" points="138.5,-57.5 138.5,-77.5 177.5,-77.5 177.5,-57.5 138.5,-57.5"/>
<text text-anchor="middle" x="158" y="-64.5" font-family="FreeSans" font-size="10.00" fill="#000000">map</text>
</g>
<!-- Node1&#45;&gt;Node8 -->
<g id="edge12" class="edge">
<title>Node1&#45;&gt;Node8</title>
<path fill="none" stroke="#191970" d="M211.6456,-171.2055C200.2342,-160.8356 188.4299,-148.3437 180,-135 170.8579,-120.5289 165.1603,-101.8941 161.8605,-87.8717"/>
<polygon fill="#191970" stroke="#191970" points="165.2176,-86.8323 159.7082,-77.7826 158.3716,-88.2928 165.2176,-86.8323"/>
</g>
<!-- Node9 -->
<g id="node9" class="node">
<title>Node9</title>
<polygon fill="none" stroke="#bfbfbf" points="318.5,-57.5 318.5,-77.5 367.5,-77.5 367.5,-57.5 318.5,-57.5"/>
<text text-anchor="middle" x="343" y="-64.5" font-family="FreeSans" font-size="10.00" fill="#000000">vector</text>
</g>
<!-- Node1&#45;&gt;Node9 -->
<g id="edge13" class="edge">
<title>Node1&#45;&gt;Node9</title>
<path fill="none" stroke="#191970" d="M283.5029,-171.1989C294.9833,-160.7403 307.0468,-148.1954 316,-135 325.9389,-120.3519 333.0915,-101.4942 337.5277,-87.4359"/>
<polygon fill="#191970" stroke="#191970" points="340.9065,-88.3525 340.3918,-77.7702 334.1949,-86.3638 340.9065,-88.3525"/>
</g>
<!-- Node10 -->
<g id="node10" class="node">
<title>Node10</title>
<polygon fill="none" stroke="#bfbfbf" points="386,-57.5 386,-77.5 444,-77.5 444,-57.5 386,-57.5"/>
<text text-anchor="middle" x="415" y="-64.5" font-family="FreeSans" font-size="10.00" fill="#000000">memory</text>
</g>
<!-- Node1&#45;&gt;Node10 -->
<g id="edge14" class="edge">
<title>Node1&#45;&gt;Node10</title>
<path fill="none" stroke="#191970" d="M287.8963,-171.2206C303.137,-160.1681 320.5562,-147.2299 336,-135 357.0757,-118.3102 380.3846,-98.1779 396.1848,-84.2667"/>
<polygon fill="#191970" stroke="#191970" points="398.5392,-86.8569 403.7113,-77.6102 393.9018,-81.6133 398.5392,-86.8569"/>
</g>
<!-- Node3 -->
<g id="node3" class="node">
<title>Node3</title>
<polygon fill="none" stroke="#bfbfbf" points="34.5,-.5 34.5,-20.5 85.5,-20.5 85.5,-.5 34.5,-.5"/>
<text text-anchor="middle" x="60" y="-7.5" font-family="FreeSans" font-size="10.00" fill="#000000">cstdint</text>
</g>
<!-- Node2&#45;&gt;Node3 -->
<g id="edge2" class="edge">
<title>Node2&#45;&gt;Node3</title>
<path fill="none" stroke="#191970" d="M60,-57.3095C60,-49.9335 60,-39.72 60,-30.715"/>
<polygon fill="#191970" stroke="#191970" points="63.5001,-30.6022 60,-20.6022 56.5001,-30.6023 63.5001,-30.6022"/>
</g>
<!-- Node4 -->
<g id="node4" class="node">
<title>Node4</title>
<polygon fill="none" stroke="#bfbfbf" points="121,-.5 121,-20.5 181,-20.5 181,-.5 121,-.5"/>
<text text-anchor="middle" x="151" y="-7.5" font-family="FreeSans" font-size="10.00" fill="#000000">iostream</text>
</g>
<!-- Node2&#45;&gt;Node4 -->
<g id="edge3" class="edge">
<title>Node2&#45;&gt;Node4</title>
<path fill="none" stroke="#191970" d="M76.269,-57.3095C90.1152,-48.6366 110.2245,-36.0407 126.096,-26.0992"/>
<polygon fill="#191970" stroke="#191970" points="128.2551,-28.8768 134.8719,-20.6022 124.5392,-22.9445 128.2551,-28.8768"/>
</g>
<!-- Node5&#45;&gt;Node2 -->
<g id="edge5" class="edge">
<title>Node5&#45;&gt;Node2</title>
<path fill="none" stroke="#191970" d="M214.8221,-114.4408C183.6411,-104.9869 136.8125,-90.7889 102.8243,-80.484"/>
<polygon fill="#191970" stroke="#191970" points="103.7472,-77.1065 93.1618,-77.5544 101.7161,-83.8054 103.7472,-77.1065"/>
</g>
<!-- Node6 -->
<g id="node6" class="node">
<title>Node6</title>
<g id="a_node6"><a xlink:href="../../df/d32/PHObject_8h.html" target="_top" xlink:title="phool/PHObject.h">
<polygon fill="none" stroke="#000000" points="196,-57.5 196,-77.5 300,-77.5 300,-57.5 196,-57.5"/>
<text text-anchor="middle" x="248" y="-64.5" font-family="FreeSans" font-size="10.00" fill="#000000">phool/PHObject.h</text>
</a>
</g>
</g>
<!-- Node5&#45;&gt;Node6 -->
<g id="edge6" class="edge">
<title>Node5&#45;&gt;Node6</title>
<path fill="none" stroke="#191970" d="M248,-114.3095C248,-106.9335 248,-96.72 248,-87.715"/>
<polygon fill="#191970" stroke="#191970" points="251.5001,-87.6022 248,-77.6022 244.5001,-87.6023 251.5001,-87.6022"/>
</g>
<!-- Node5&#45;&gt;Node8 -->
<g id="edge9" class="edge">
<title>Node5&#45;&gt;Node8</title>
<path fill="none" stroke="#191970" d="M231.9098,-114.3095C218.2157,-105.6366 198.3274,-93.0407 182.6303,-83.0992"/>
<polygon fill="#191970" stroke="#191970" points="184.2718,-79.9959 173.9509,-77.6022 180.5264,-85.9097 184.2718,-79.9959"/>
</g>
<!-- Node5&#45;&gt;Node9 -->
<g id="edge10" class="edge">
<title>Node5&#45;&gt;Node9</title>
<path fill="none" stroke="#191970" d="M264.9841,-114.3095C279.5741,-105.5556 300.8252,-92.8049 317.4648,-82.8211"/>
<polygon fill="#191970" stroke="#191970" points="319.3888,-85.7485 326.1629,-77.6022 315.7872,-79.746 319.3888,-85.7485"/>
</g>
<!-- Node5&#45;&gt;Node10 -->
<g id="edge11" class="edge">
<title>Node5&#45;&gt;Node10</title>
<path fill="none" stroke="#191970" d="M277.4718,-114.4408C304.8974,-105.0799 345.9504,-91.0678 376.0649,-80.7892"/>
<polygon fill="#191970" stroke="#191970" points="377.4895,-84.0013 385.8228,-77.4587 375.2283,-77.3766 377.4895,-84.0013"/>
</g>
<!-- Node6&#45;&gt;Node4 -->
<g id="edge8" class="edge">
<title>Node6&#45;&gt;Node4</title>
<path fill="none" stroke="#191970" d="M230.6583,-57.3095C215.7612,-48.5556 194.0627,-35.8049 177.0728,-25.8211"/>
<polygon fill="#191970" stroke="#191970" points="178.5864,-22.651 168.1915,-20.6022 175.0399,-28.6862 178.5864,-22.651"/>
</g>
<!-- Node7 -->
<g id="node7" class="node">
<title>Node7</title>
<polygon fill="none" stroke="#bfbfbf" points="215.5,-.5 215.5,-20.5 280.5,-20.5 280.5,-.5 215.5,-.5"/>
<text text-anchor="middle" x="248" y="-7.5" font-family="FreeSans" font-size="10.00" fill="#000000">TObject.h</text>
</g>
<!-- Node6&#45;&gt;Node7 -->
<g id="edge7" class="edge">
<title>Node6&#45;&gt;Node7</title>
<path fill="none" stroke="#191970" d="M248,-57.3095C248,-49.9335 248,-39.72 248,-30.715"/>
<polygon fill="#191970" stroke="#191970" points="251.5001,-30.6022 248,-20.6022 244.5001,-30.6023 251.5001,-30.6022"/>
</g>
</g>
</svg>
