<?xml version="1.0" encoding="UTF-8" standalone="no"?>
<!DOCTYPE svg PUBLIC "-//W3C//DTD SVG 1.1//EN"
 "http://www.w3.org/Graphics/SVG/1.1/DTD/svg11.dtd">
<!-- Generated by graphviz version 2.40.1 (20161225.0304)
 -->
<!-- Title: HCALInner_Clusters Pages: 1 -->
<svg width="750pt" height="482pt"
 viewBox="0.00 0.00 750.00 482.00" xmlns="http://www.w3.org/2000/svg" xmlns:xlink="http://www.w3.org/1999/xlink">
<g id="graph0" class="graph" transform="scale(1 1) rotate(0) translate(4 478)">
<title>HCALInner_Clusters</title>
<!-- Node1 -->
<g id="node1" class="node">
<title>Node1</title>
<polygon fill="#bfbfbf" stroke="#000000" points="0,-258.5 0,-278.5 116,-278.5 116,-258.5 0,-258.5"/>
<text text-anchor="middle" x="58" y="-265.5" font-family="FreeSans" font-size="10.00" fill="#000000">HCALInner_Clusters</text>
</g>
<!-- Node2 -->
<g id="node2" class="node">
<title>Node2</title>
<g id="a_node2"><a xlink:href="../../d2/d46/classRawClusterBuilderGraph.html#ad9016b92102dd705fee3740f0ec3742a" target="_top" xlink:title="RawClusterBuilderGraph\l::Detector">
<polygon fill="none" stroke="#000000" points="176,-403.5 176,-435.5 316,-435.5 316,-403.5 176,-403.5"/>
<text text-anchor="start" x="184" y="-422.5" font-family="FreeSans" font-size="10.00" fill="#000000">RawClusterBuilderGraph</text>
<text text-anchor="middle" x="246" y="-410.5" font-family="FreeSans" font-size="10.00" fill="#000000">::Detector</text>
</a>
</g>
</g>
<!-- Node1&#45;&gt;Node2 -->
<g id="edge1" class="edge">
<title>Node1&#45;&gt;Node2</title>
<path fill="none" stroke="#191970" d="M62.6883,-278.8298C74.2115,-303.0159 106.3413,-363.6045 152,-394.5 156.5454,-397.5757 161.4517,-400.2734 166.554,-402.6394"/>
<polygon fill="#191970" stroke="#191970" points="165.3378,-405.9245 175.9142,-406.5503 168.0365,-399.4656 165.3378,-405.9245"/>
</g>
<!-- Node3 -->
<g id="node3" class="node">
<title>Node3</title>
<g id="a_node3"><a xlink:href="../../d8/d5d/classRawClusterBuilderTemplate.html#a8c39fc8fa46da6a92be0a7ff6835a7d6" target="_top" xlink:title="RawClusterBuilderTemplate\l::Detector">
<polygon fill="none" stroke="#000000" points="168.5,-352.5 168.5,-384.5 323.5,-384.5 323.5,-352.5 168.5,-352.5"/>
<text text-anchor="start" x="176.5" y="-371.5" font-family="FreeSans" font-size="10.00" fill="#000000">RawClusterBuilderTemplate</text>
<text text-anchor="middle" x="246" y="-359.5" font-family="FreeSans" font-size="10.00" fill="#000000">::Detector</text>
</a>
</g>
</g>
<!-- Node1&#45;&gt;Node3 -->
<g id="edge2" class="edge">
<title>Node1&#45;&gt;Node3</title>
<path fill="none" stroke="#191970" d="M75.9238,-278.6469C94.7671,-289.2597 125.3236,-306.3154 152,-320.5 169.041,-329.5612 187.9719,-339.2916 204.3527,-347.6067"/>
<polygon fill="#191970" stroke="#191970" points="203.1665,-350.9292 213.6692,-352.3232 206.3282,-344.6839 203.1665,-350.9292"/>
</g>
<!-- Node8 -->
<g id="node8" class="node">
<title>Node8</title>
<g id="a_node8"><a xlink:href="../../df/de8/cemc_8C.html#adf5c804dfce7a70e36dda02995fad481" target="_top" xlink:title="exit">
<polygon fill="none" stroke="#000000" points="453.5,-297.5 453.5,-317.5 488.5,-317.5 488.5,-297.5 453.5,-297.5"/>
<text text-anchor="middle" x="471" y="-304.5" font-family="FreeSans" font-size="10.00" fill="#000000">exit</text>
</a>
</g>
</g>
<!-- Node1&#45;&gt;Node8 -->
<g id="edge7" class="edge">
<title>Node1&#45;&gt;Node8</title>
<path fill="none" stroke="#191970" d="M116.0832,-277.7967C127.9463,-279.5135 140.3601,-281.1787 152,-282.5 259.376,-294.6886 387.7645,-302.789 443.2292,-305.9763"/>
<polygon fill="#191970" stroke="#191970" points="443.1401,-309.4768 453.322,-306.548 443.536,-302.488 443.1401,-309.4768"/>
</g>
<!-- Node9 -->
<g id="node9" class="node">
<title>Node9</title>
<g id="a_node9"><a xlink:href="../../da/d29/classFun4AllServer.html#a3e55156f91b2c94bb6c4ef33ffce587a" target="_top" xlink:title="Fun4AllServer::instance">
<polygon fill="none" stroke="#000000" points="403,-258.5 403,-278.5 539,-278.5 539,-258.5 403,-258.5"/>
<text text-anchor="middle" x="471" y="-265.5" font-family="FreeSans" font-size="10.00" fill="#000000">Fun4AllServer::instance</text>
</a>
</g>
</g>
<!-- Node1&#45;&gt;Node9 -->
<g id="edge8" class="edge">
<title>Node1&#45;&gt;Node9</title>
<path fill="none" stroke="#191970" d="M116.2969,-268.5C188.5822,-268.5 312.0758,-268.5 392.6052,-268.5"/>
<polygon fill="#191970" stroke="#191970" points="392.6947,-272.0001 402.6947,-268.5 392.6947,-265.0001 392.6947,-272.0001"/>
</g>
<!-- Node10 -->
<g id="node10" class="node">
<title>Node10</title>
<g id="a_node10"><a xlink:href="../../da/d29/classFun4AllServer.html#a0a9947db0ede1e55622001eb7515f8c0" target="_top" xlink:title="Fun4AllServer::registerSubsystem">
<polygon fill="none" stroke="#000000" points="152,-219.5 152,-239.5 340,-239.5 340,-219.5 152,-219.5"/>
<text text-anchor="middle" x="246" y="-226.5" font-family="FreeSans" font-size="10.00" fill="#000000">Fun4AllServer::registerSubsystem</text>
</a>
</g>
</g>
<!-- Node1&#45;&gt;Node10 -->
<g id="edge9" class="edge">
<title>Node1&#45;&gt;Node10</title>
<path fill="none" stroke="#191970" d="M106.4147,-258.4565C131.1944,-253.316 161.5508,-247.0187 187.6183,-241.6111"/>
<polygon fill="#191970" stroke="#191970" points="188.6688,-244.9678 197.7494,-239.5094 187.2469,-238.1137 188.6688,-244.9678"/>
</g>
<!-- Node18 -->
<g id="node18" class="node">
<title>Node18</title>
<g id="a_node18"><a xlink:href="../../d8/d5d/classRawClusterBuilderTemplate.html#ae49f005fe50cd419b112cd35b0658bc7" target="_top" xlink:title="RawClusterBuilderTemplate\l::SetCylindricalGeometry">
<polygon fill="none" stroke="#000000" points="168.5,-168.5 168.5,-200.5 323.5,-200.5 323.5,-168.5 168.5,-168.5"/>
<text text-anchor="start" x="176.5" y="-187.5" font-family="FreeSans" font-size="10.00" fill="#000000">RawClusterBuilderTemplate</text>
<text text-anchor="middle" x="246" y="-175.5" font-family="FreeSans" font-size="10.00" fill="#000000">::SetCylindricalGeometry</text>
</a>
</g>
</g>
<!-- Node1&#45;&gt;Node18 -->
<g id="edge24" class="edge">
<title>Node1&#45;&gt;Node18</title>
<path fill="none" stroke="#191970" d="M71.647,-258.3459C89.3549,-245.5887 121.5929,-223.7646 152,-210.5 157.4683,-208.1146 163.212,-205.8932 169.0517,-203.836"/>
<polygon fill="#191970" stroke="#191970" points="170.5653,-207.0204 178.9385,-200.5289 168.3447,-200.382 170.5653,-207.0204"/>
</g>
<!-- Node20 -->
<g id="node20" class="node">
<title>Node20</title>
<g id="a_node20"><a xlink:href="../../d5/dec/classFun4AllBase.html#a05da2261577843028cf78e99171343b9" target="_top" xlink:title="Sets the verbosity of this module (0 by default=quiet).">
<polygon fill="none" stroke="#000000" points="180,-129.5 180,-149.5 312,-149.5 312,-129.5 180,-129.5"/>
<text text-anchor="middle" x="246" y="-136.5" font-family="FreeSans" font-size="10.00" fill="#000000">Fun4AllBase::Verbosity</text>
</a>
</g>
</g>
<!-- Node1&#45;&gt;Node20 -->
<g id="edge26" class="edge">
<title>Node1&#45;&gt;Node20</title>
<path fill="none" stroke="#191970" d="M63.5405,-258.4619C76.1425,-236.6432 109.206,-184.8272 152,-159.5 157.5594,-156.2097 163.5874,-153.4572 169.8151,-151.1551"/>
<polygon fill="#191970" stroke="#191970" points="171.321,-154.3443 179.7272,-147.8956 169.1342,-147.6946 171.321,-154.3443"/>
</g>
<!-- Node4 -->
<g id="node4" class="node">
<title>Node4</title>
<g id="a_node4"><a xlink:href="../../d5/dec/classFun4AllBase.html#a41f9ac377743d046f590617fd6f4f0ed" target="_top" xlink:title="Returns the name of this module.">
<polygon fill="none" stroke="#000000" points="413.5,-336.5 413.5,-356.5 528.5,-356.5 528.5,-336.5 413.5,-336.5"/>
<text text-anchor="middle" x="471" y="-343.5" font-family="FreeSans" font-size="10.00" fill="#000000">Fun4AllBase::Name</text>
</a>
</g>
</g>
<!-- Node3&#45;&gt;Node4 -->
<g id="edge3" class="edge">
<title>Node3&#45;&gt;Node4</title>
<path fill="none" stroke="#191970" d="M323.7473,-360.898C349.6479,-358.3655 378.2737,-355.5666 403.346,-353.1151"/>
<polygon fill="#191970" stroke="#191970" points="403.8785,-356.5798 413.4905,-352.1232 403.1973,-349.613 403.8785,-356.5798"/>
</g>
<!-- Node5 -->
<g id="node5" class="node">
<title>Node5</title>
<g id="a_node5"><a xlink:href="../../df/d23/classBEmcRec.html#a09f11970d755b76d15caa376808f5471" target="_top" xlink:title="BEmcRec::SetVertex">
<polygon fill="none" stroke="#000000" points="411.5,-453.5 411.5,-473.5 530.5,-473.5 530.5,-453.5 411.5,-453.5"/>
<text text-anchor="middle" x="471" y="-460.5" font-family="FreeSans" font-size="10.00" fill="#000000">BEmcRec::SetVertex</text>
</a>
</g>
</g>
<!-- Node3&#45;&gt;Node5 -->
<g id="edge4" class="edge">
<title>Node3&#45;&gt;Node5</title>
<path fill="none" stroke="#191970" d="M321.9621,-384.5275C328.3261,-387.3336 334.4421,-390.6294 340,-394.5 362.4709,-410.1489 352.9771,-429.6752 376,-444.5 383.6851,-449.4485 392.3883,-453.1523 401.3312,-455.9168"/>
<polygon fill="#191970" stroke="#191970" points="400.5249,-459.3245 411.0923,-458.5623 402.3561,-452.5682 400.5249,-459.3245"/>
</g>
<!-- Node6 -->
<g id="node6" class="node">
<title>Node6</title>
<g id="a_node6"><a xlink:href="../../df/d23/classBEmcRec.html#aa4fa596a4c2667defdd97427b28f4204" target="_top" xlink:title="BEmcRec::SetTowerThreshold">
<polygon fill="none" stroke="#000000" points="388.5,-414.5 388.5,-434.5 553.5,-434.5 553.5,-414.5 388.5,-414.5"/>
<text text-anchor="middle" x="471" y="-421.5" font-family="FreeSans" font-size="10.00" fill="#000000">BEmcRec::SetTowerThreshold</text>
</a>
</g>
</g>
<!-- Node3&#45;&gt;Node6 -->
<g id="edge5" class="edge">
<title>Node3&#45;&gt;Node6</title>
<path fill="none" stroke="#191970" d="M304.9868,-384.556C316.6087,-387.7926 328.7009,-391.2117 340,-394.5 356.0638,-399.1749 359.7774,-401.41 376,-405.5 385.6633,-407.9363 395.9424,-410.2626 406.0346,-412.3994"/>
<polygon fill="#191970" stroke="#191970" points="405.5328,-415.8696 416.0348,-414.47 406.9522,-409.015 405.5328,-415.8696"/>
</g>
<!-- Node7 -->
<g id="node7" class="node">
<title>Node7</title>
<g id="a_node7"><a xlink:href="../../df/d23/classBEmcRec.html#a8c099cfd315604c3ab8d103b0b1eab67" target="_top" xlink:title="BEmcRec::SetProbNoiseParam">
<polygon fill="none" stroke="#000000" points="386.5,-375.5 386.5,-395.5 555.5,-395.5 555.5,-375.5 386.5,-375.5"/>
<text text-anchor="middle" x="471" y="-382.5" font-family="FreeSans" font-size="10.00" fill="#000000">BEmcRec::SetProbNoiseParam</text>
</a>
</g>
</g>
<!-- Node3&#45;&gt;Node7 -->
<g id="edge6" class="edge">
<title>Node3&#45;&gt;Node7</title>
<path fill="none" stroke="#191970" d="M323.7473,-374.3742C340.6303,-375.6498 358.6712,-377.0129 376.1312,-378.3321"/>
<polygon fill="#191970" stroke="#191970" points="376.0957,-381.8393 386.331,-379.1028 376.6231,-374.8592 376.0957,-381.8393"/>
</g>
<!-- Node10&#45;&gt;Node4 -->
<g id="edge12" class="edge">
<title>Node10&#45;&gt;Node4</title>
<path fill="none" stroke="#191970" d="M256.0603,-239.6986C276.6071,-259.8886 325.7131,-304.942 376,-327.5 384.6563,-331.3831 394.1101,-334.4774 403.5897,-336.9421"/>
<polygon fill="#191970" stroke="#191970" points="402.9066,-340.3772 413.4454,-339.2892 404.5283,-333.5676 402.9066,-340.3772"/>
</g>
<!-- Node10&#45;&gt;Node8 -->
<g id="edge11" class="edge">
<title>Node10&#45;&gt;Node8</title>
<path fill="none" stroke="#191970" d="M264.8349,-239.7111C289.6471,-252.7701 334.9523,-275.2733 376,-288.5 398.1526,-295.6382 424.1131,-300.6108 443.2927,-303.6734"/>
<polygon fill="#191970" stroke="#191970" points="442.7701,-307.1341 453.1832,-305.18 443.8243,-300.2139 442.7701,-307.1341"/>
</g>
<!-- Node10&#45;&gt;Node9 -->
<g id="edge10" class="edge">
<title>Node10&#45;&gt;Node9</title>
<path fill="none" stroke="#191970" d="M303.9431,-239.5435C334.2559,-244.7977 371.5412,-251.2605 403.1913,-256.7465"/>
<polygon fill="#191970" stroke="#191970" points="402.8024,-260.2312 413.2533,-258.4906 403.998,-253.334 402.8024,-260.2312"/>
</g>
<!-- Node11 -->
<g id="node11" class="node">
<title>Node11</title>
<g id="a_node11"><a xlink:href="../../da/d29/classFun4AllServer.html#abcaf6825367e5db292ff795237bdcf62" target="_top" xlink:title="Fun4AllServer::topNode">
<polygon fill="none" stroke="#000000" points="403,-180.5 403,-200.5 539,-200.5 539,-180.5 403,-180.5"/>
<text text-anchor="middle" x="471" y="-187.5" font-family="FreeSans" font-size="10.00" fill="#000000">Fun4AllServer::topNode</text>
</a>
</g>
</g>
<!-- Node10&#45;&gt;Node11 -->
<g id="edge13" class="edge">
<title>Node10&#45;&gt;Node11</title>
<path fill="none" stroke="#191970" d="M303.9431,-219.4565C334.2559,-214.2023 371.5412,-207.7395 403.1913,-202.2535"/>
<polygon fill="#191970" stroke="#191970" points="403.998,-205.666 413.2533,-200.5094 402.8024,-198.7688 403.998,-205.666"/>
</g>
<!-- Node12 -->
<g id="node12" class="node">
<title>Node12</title>
<g id="a_node12"><a xlink:href="../../d7/d96/classFun4AllMemoryTracker.html#a3841cc0bc6c4047da2b4868ba39dbb8c" target="_top" xlink:title="Fun4AllMemoryTracker\l::Start">
<polygon fill="none" stroke="#000000" points="405,-129.5 405,-161.5 537,-161.5 537,-129.5 405,-129.5"/>
<text text-anchor="start" x="413" y="-148.5" font-family="FreeSans" font-size="10.00" fill="#000000">Fun4AllMemoryTracker</text>
<text text-anchor="middle" x="471" y="-136.5" font-family="FreeSans" font-size="10.00" fill="#000000">::Start</text>
</a>
</g>
</g>
<!-- Node10&#45;&gt;Node12 -->
<g id="edge14" class="edge">
<title>Node10&#45;&gt;Node12</title>
<path fill="none" stroke="#191970" d="M319.4879,-219.3803C326.6482,-217.01 333.6151,-214.0917 340,-210.5 360.5594,-198.9348 355.8438,-183.7544 376,-171.5 381.8901,-167.919 388.2809,-164.821 394.8686,-162.1429"/>
<polygon fill="#191970" stroke="#191970" points="396.4745,-165.2798 404.626,-158.512 394.0332,-158.7193 396.4745,-165.2798"/>
</g>
<!-- Node15 -->
<g id="node15" class="node">
<title>Node15</title>
<g id="a_node15"><a xlink:href="../../d5/dec/classFun4AllBase.html#a8a5c77a92bdac6bc043476e132379a40" target="_top" xlink:title="Gets the verbosity of this module.">
<polygon fill="none" stroke="#000000" points="606,-39.5 606,-59.5 738,-59.5 738,-39.5 606,-39.5"/>
<text text-anchor="middle" x="672" y="-46.5" font-family="FreeSans" font-size="10.00" fill="#000000">Fun4AllBase::Verbosity</text>
</a>
</g>
</g>
<!-- Node10&#45;&gt;Node15 -->
<g id="edge23" class="edge">
<title>Node10&#45;&gt;Node15</title>
<path fill="none" stroke="#191970" d="M327.9661,-219.2682C332.3175,-216.8374 336.38,-213.9415 340,-210.5 386.8744,-165.9366 326.2891,-110.8755 376,-69.5 408.251,-42.6567 519.3542,-41.8813 595.872,-44.865"/>
<polygon fill="#191970" stroke="#191970" points="595.8213,-48.3659 605.9591,-45.2876 596.1144,-41.372 595.8213,-48.3659"/>
</g>
<!-- Node16 -->
<g id="node16" class="node">
<title>Node16</title>
<g id="a_node16"><a xlink:href="../../d0/d32/classSubsysReco.html#a6670c0a093dd2c2bdd44f8fc6f9ba8e8" target="_top" xlink:title="SubsysReco::Init">
<polygon fill="none" stroke="#000000" points="421,-219.5 421,-239.5 521,-239.5 521,-219.5 421,-219.5"/>
<text text-anchor="middle" x="471" y="-226.5" font-family="FreeSans" font-size="10.00" fill="#000000">SubsysReco::Init</text>
</a>
</g>
</g>
<!-- Node10&#45;&gt;Node16 -->
<g id="edge18" class="edge">
<title>Node10&#45;&gt;Node16</title>
<path fill="none" stroke="#191970" d="M340.1166,-229.5C364.0268,-229.5 389.0758,-229.5 410.7844,-229.5"/>
<polygon fill="#191970" stroke="#191970" points="410.8294,-233.0001 420.8294,-229.5 410.8293,-226.0001 410.8294,-233.0001"/>
</g>
<!-- Node17 -->
<g id="node17" class="node">
<title>Node17</title>
<g id="a_node17"><a xlink:href="../../d7/d96/classFun4AllMemoryTracker.html#a766ac66dd36ffa4e3fbe6e622923565f" target="_top" xlink:title="Fun4AllMemoryTracker\l::Stop">
<polygon fill="none" stroke="#000000" points="405,-78.5 405,-110.5 537,-110.5 537,-78.5 405,-78.5"/>
<text text-anchor="start" x="413" y="-97.5" font-family="FreeSans" font-size="10.00" fill="#000000">Fun4AllMemoryTracker</text>
<text text-anchor="middle" x="471" y="-85.5" font-family="FreeSans" font-size="10.00" fill="#000000">::Stop</text>
</a>
</g>
</g>
<!-- Node10&#45;&gt;Node17 -->
<g id="edge19" class="edge">
<title>Node10&#45;&gt;Node17</title>
<path fill="none" stroke="#191970" d="M326.1094,-219.374C331.0853,-216.9446 335.7796,-214.0179 340,-210.5 373.0925,-182.9158 343.86,-149.1884 376,-120.5 381.613,-115.4898 388.1029,-111.4338 395.0025,-108.152"/>
<polygon fill="#191970" stroke="#191970" points="396.7393,-111.2198 404.6211,-104.1397 394.0444,-104.7594 396.7393,-111.2198"/>
</g>
<!-- Node13 -->
<g id="node13" class="node">
<title>Node13</title>
<g id="a_node13"><a xlink:href="../../d7/d96/classFun4AllMemoryTracker.html#aa8eb9ed150f51165b9abfd456c18a432" target="_top" xlink:title="Fun4AllMemoryTracker\l::CreateFullTrackerName">
<polygon fill="none" stroke="#000000" points="602,-129.5 602,-161.5 742,-161.5 742,-129.5 602,-129.5"/>
<text text-anchor="start" x="610" y="-148.5" font-family="FreeSans" font-size="10.00" fill="#000000">Fun4AllMemoryTracker</text>
<text text-anchor="middle" x="672" y="-136.5" font-family="FreeSans" font-size="10.00" fill="#000000">::CreateFullTrackerName</text>
</a>
</g>
</g>
<!-- Node12&#45;&gt;Node13 -->
<g id="edge15" class="edge">
<title>Node12&#45;&gt;Node13</title>
<path fill="none" stroke="#191970" d="M537.0933,-145.5C554.4867,-145.5 573.4438,-145.5 591.5028,-145.5"/>
<polygon fill="#191970" stroke="#191970" points="591.7193,-149.0001 601.7193,-145.5 591.7192,-142.0001 591.7193,-149.0001"/>
</g>
<!-- Node14 -->
<g id="node14" class="node">
<title>Node14</title>
<g id="a_node14"><a xlink:href="../../d7/d96/classFun4AllMemoryTracker.html#a4059a8c86c92e1708e5bbdc585af99ed" target="_top" xlink:title="Fun4AllMemoryTracker\l::GetRSSMemory">
<polygon fill="none" stroke="#000000" points="606,-78.5 606,-110.5 738,-110.5 738,-78.5 606,-78.5"/>
<text text-anchor="start" x="614" y="-97.5" font-family="FreeSans" font-size="10.00" fill="#000000">Fun4AllMemoryTracker</text>
<text text-anchor="middle" x="672" y="-85.5" font-family="FreeSans" font-size="10.00" fill="#000000">::GetRSSMemory</text>
</a>
</g>
</g>
<!-- Node12&#45;&gt;Node14 -->
<g id="edge16" class="edge">
<title>Node12&#45;&gt;Node14</title>
<path fill="none" stroke="#191970" d="M534.3218,-129.4333C554.7858,-124.2409 577.6438,-118.4411 598.764,-113.0823"/>
<polygon fill="#191970" stroke="#191970" points="599.8193,-116.4255 608.6513,-110.5736 598.0976,-109.6405 599.8193,-116.4255"/>
</g>
<!-- Node12&#45;&gt;Node15 -->
<g id="edge17" class="edge">
<title>Node12&#45;&gt;Node15</title>
<path fill="none" stroke="#191970" d="M537.0168,-134.5759C547.2622,-131.1041 557.3134,-126.529 566,-120.5 588.7929,-104.6803 579.3743,-85.5578 602,-69.5 605.0664,-67.3238 608.3654,-65.3832 611.8016,-63.653"/>
<polygon fill="#191970" stroke="#191970" points="613.4034,-66.7723 621.1522,-59.5468 610.5888,-60.363 613.4034,-66.7723"/>
</g>
<!-- Node17&#45;&gt;Node13 -->
<g id="edge20" class="edge">
<title>Node17&#45;&gt;Node13</title>
<path fill="none" stroke="#191970" d="M534.3218,-110.5667C554.7858,-115.7591 577.6438,-121.5589 598.764,-126.9177"/>
<polygon fill="#191970" stroke="#191970" points="598.0976,-130.3595 608.6513,-129.4264 599.8193,-123.5745 598.0976,-130.3595"/>
</g>
<!-- Node17&#45;&gt;Node14 -->
<g id="edge21" class="edge">
<title>Node17&#45;&gt;Node14</title>
<path fill="none" stroke="#191970" d="M537.0933,-94.5C555.8124,-94.5 576.3426,-94.5 595.6153,-94.5"/>
<polygon fill="#191970" stroke="#191970" points="595.867,-98.0001 605.867,-94.5 595.8669,-91.0001 595.867,-98.0001"/>
</g>
<!-- Node17&#45;&gt;Node15 -->
<g id="edge22" class="edge">
<title>Node17&#45;&gt;Node15</title>
<path fill="none" stroke="#191970" d="M537.0933,-79.703C563.0393,-73.8942 592.4647,-67.3064 617.1984,-61.769"/>
<polygon fill="#191970" stroke="#191970" points="618.1393,-65.1451 627.1331,-59.5448 616.61,-58.3142 618.1393,-65.1451"/>
</g>
<!-- Node19 -->
<g id="node19" class="node">
<title>Node19</title>
<g id="a_node19"><a xlink:href="../../df/d23/classBEmcRec.html#a9410db00f4de361d4778eb644cf768a4" target="_top" xlink:title="BEmcRec::SetCylindricalGeometry">
<polygon fill="none" stroke="#000000" points="376,-.5 376,-20.5 566,-20.5 566,-.5 376,-.5"/>
<text text-anchor="middle" x="471" y="-7.5" font-family="FreeSans" font-size="10.00" fill="#000000">BEmcRec::SetCylindricalGeometry</text>
</a>
</g>
</g>
<!-- Node18&#45;&gt;Node19 -->
<g id="edge25" class="edge">
<title>Node18&#45;&gt;Node19</title>
<path fill="none" stroke="#191970" d="M323.5168,-171.2253C329.5545,-168.0787 335.17,-164.222 340,-159.5 381.0348,-119.3829 334.9128,-75.5634 376,-35.5 380.2241,-31.3812 385.0413,-27.919 390.2143,-25.0112"/>
<polygon fill="#191970" stroke="#191970" points="391.7594,-28.1517 399.2138,-20.6229 388.6914,-21.8599 391.7594,-28.1517"/>
</g>
</g>
</svg>
