<?xml version="1.0" encoding="UTF-8" standalone="no"?>
<!DOCTYPE svg PUBLIC "-//W3C//DTD SVG 1.1//EN"
 "http://www.w3.org/Graphics/SVG/1.1/DTD/svg11.dtd">
<!-- Generated by graphviz version 2.40.1 (20161225.0304)
 -->
<!-- Title: RKTrackRep::transformPM6 Pages: 1 -->
<svg width="345pt" height="107pt"
 viewBox="0.00 0.00 345.00 107.00" xmlns="http://www.w3.org/2000/svg" xmlns:xlink="http://www.w3.org/1999/xlink">
<g id="graph0" class="graph" transform="scale(1 1) rotate(0) translate(4 103)">
<title>RKTrackRep::transformPM6</title>
<!-- Node1 -->
<g id="node1" class="node">
<title>Node1</title>
<polygon fill="#bfbfbf" stroke="#000000" points="0,-39.5 0,-59.5 152,-59.5 152,-39.5 0,-39.5"/>
<text text-anchor="middle" x="76" y="-46.5" font-family="FreeSans" font-size="10.00" fill="#000000">RKTrackRep::transformPM6</text>
</g>
<!-- Node2 -->
<g id="node2" class="node">
<title>Node2</title>
<g id="a_node2"><a xlink:href="../../d0/d4b/classGFDetPlane.html#a5283e6fcac2d8a4297f1e2c5f9ed4ae0" target="_top" xlink:title="GFDetPlane::getU">
<polygon fill="none" stroke="#000000" points="209.5,-78.5 209.5,-98.5 315.5,-98.5 315.5,-78.5 209.5,-78.5"/>
<text text-anchor="middle" x="262.5" y="-85.5" font-family="FreeSans" font-size="10.00" fill="#000000">GFDetPlane::getU</text>
</a>
</g>
</g>
<!-- Node1&#45;&gt;Node2 -->
<g id="edge1" class="edge">
<title>Node1&#45;&gt;Node2</title>
<path fill="none" stroke="#191970" d="M124.0284,-59.5435C148.6104,-64.684 178.7246,-70.9813 204.5841,-76.3889"/>
<polygon fill="#191970" stroke="#191970" points="204.1297,-79.8695 214.6344,-78.4906 205.5625,-73.0177 204.1297,-79.8695"/>
</g>
<!-- Node3 -->
<g id="node3" class="node">
<title>Node3</title>
<g id="a_node3"><a xlink:href="../../d0/d4b/classGFDetPlane.html#a494cfed84e07ae5ecfc67904503172c4" target="_top" xlink:title="GFDetPlane::getV">
<polygon fill="none" stroke="#000000" points="209.5,-39.5 209.5,-59.5 315.5,-59.5 315.5,-39.5 209.5,-39.5"/>
<text text-anchor="middle" x="262.5" y="-46.5" font-family="FreeSans" font-size="10.00" fill="#000000">GFDetPlane::getV</text>
</a>
</g>
</g>
<!-- Node1&#45;&gt;Node3 -->
<g id="edge2" class="edge">
<title>Node1&#45;&gt;Node3</title>
<path fill="none" stroke="#191970" d="M152.1257,-49.5C167.7564,-49.5 184.0518,-49.5 199.173,-49.5"/>
<polygon fill="#191970" stroke="#191970" points="199.4314,-53.0001 209.4313,-49.5 199.4313,-46.0001 199.4314,-53.0001"/>
</g>
<!-- Node4 -->
<g id="node4" class="node">
<title>Node4</title>
<g id="a_node4"><a xlink:href="../../d0/df4/namespaceRKTools.html#a221928a0b511063f15c44623e927dd39" target="_top" xlink:title="RKTools::J_pMTxcov5xJ_pM">
<polygon fill="none" stroke="#000000" points="188,-.5 188,-20.5 337,-20.5 337,-.5 188,-.5"/>
<text text-anchor="middle" x="262.5" y="-7.5" font-family="FreeSans" font-size="10.00" fill="#000000">RKTools::J_pMTxcov5xJ_pM</text>
</a>
</g>
</g>
<!-- Node1&#45;&gt;Node4 -->
<g id="edge3" class="edge">
<title>Node1&#45;&gt;Node4</title>
<path fill="none" stroke="#191970" d="M124.0284,-39.4565C148.6104,-34.316 178.7246,-28.0187 204.5841,-22.6111"/>
<polygon fill="#191970" stroke="#191970" points="205.5625,-25.9823 214.6344,-20.5094 204.1297,-19.1305 205.5625,-25.9823"/>
</g>
</g>
</svg>
