<?xml version="1.0" encoding="UTF-8" standalone="no"?>
<!DOCTYPE svg PUBLIC "-//W3C//DTD SVG 1.1//EN"
 "http://www.w3.org/Graphics/SVG/1.1/DTD/svg11.dtd">
<!-- Generated by graphviz version 2.40.1 (20161225.0304)
 -->
<!-- Title: EicRoot/blob/master/genfit/GFAbsRecoHit.cxx Pages: 1 -->
<svg width="748pt" height="326pt"
 viewBox="0.00 0.00 748.19 326.00" xmlns="http://www.w3.org/2000/svg" xmlns:xlink="http://www.w3.org/1999/xlink">
<g id="graph0" class="graph" transform="scale(1 1) rotate(0) translate(4 322)">
<title>EicRoot/blob/master/genfit/GFAbsRecoHit.cxx</title>
<!-- Node1 -->
<g id="node1" class="node">
<title>Node1</title>
<polygon fill="#bfbfbf" stroke="#000000" points="58.6881,-285.5 58.6881,-317.5 202.6881,-317.5 202.6881,-285.5 58.6881,-285.5"/>
<text text-anchor="start" x="66.6881" y="-304.5" font-family="FreeSans" font-size="10.00" fill="#000000">EicRoot/blob/master</text>
<text text-anchor="middle" x="130.6881" y="-292.5" font-family="FreeSans" font-size="10.00" fill="#000000">/genfit/GFAbsRecoHit.cxx</text>
</g>
<!-- Node2 -->
<g id="node2" class="node">
<title>Node2</title>
<g id="a_node2"><a xlink:href="../../dc/dd4/GFAbsRecoHit_8h.html" target="_top" xlink:title="GFAbsRecoHit.h">
<polygon fill="none" stroke="#000000" points="82.6881,-228.5 82.6881,-248.5 178.6881,-248.5 178.6881,-228.5 82.6881,-228.5"/>
<text text-anchor="middle" x="130.6881" y="-235.5" font-family="FreeSans" font-size="10.00" fill="#000000">GFAbsRecoHit.h</text>
</a>
</g>
</g>
<!-- Node1&#45;&gt;Node2 -->
<g id="edge1" class="edge">
<title>Node1&#45;&gt;Node2</title>
<path fill="none" stroke="#191970" d="M130.6881,-285.2759C130.6881,-277.2654 130.6881,-267.5159 130.6881,-258.9952"/>
<polygon fill="#191970" stroke="#191970" points="134.1882,-258.7512 130.6881,-248.7513 127.1882,-258.7513 134.1882,-258.7512"/>
</g>
<!-- Node3 -->
<g id="node3" class="node">
<title>Node3</title>
<polygon fill="none" stroke="#bfbfbf" points="17.6881,-114.5 17.6881,-134.5 77.6881,-134.5 77.6881,-114.5 17.6881,-114.5"/>
<text text-anchor="middle" x="47.6881" y="-121.5" font-family="FreeSans" font-size="10.00" fill="#000000">iostream</text>
</g>
<!-- Node2&#45;&gt;Node3 -->
<g id="edge2" class="edge">
<title>Node2&#45;&gt;Node3</title>
<path fill="none" stroke="#191970" d="M123.3224,-228.3833C109.3912,-209.2488 78.9939,-167.4984 61.2688,-143.1529"/>
<polygon fill="#191970" stroke="#191970" points="63.8721,-140.7822 55.1566,-134.7579 58.2131,-144.9023 63.8721,-140.7822"/>
</g>
<!-- Node4 -->
<g id="node4" class="node">
<title>Node4</title>
<polygon fill="none" stroke="#bfbfbf" points="96.1881,-114.5 96.1881,-134.5 165.1881,-134.5 165.1881,-114.5 96.1881,-114.5"/>
<text text-anchor="middle" x="130.6881" y="-121.5" font-family="FreeSans" font-size="10.00" fill="#000000">TMatrixT.h</text>
</g>
<!-- Node2&#45;&gt;Node4 -->
<g id="edge3" class="edge">
<title>Node2&#45;&gt;Node4</title>
<path fill="none" stroke="#191970" d="M130.6881,-228.3833C130.6881,-209.6703 130.6881,-169.3266 130.6881,-144.7866"/>
<polygon fill="#191970" stroke="#191970" points="134.1882,-144.7579 130.6881,-134.7579 127.1882,-144.758 134.1882,-144.7579"/>
</g>
<!-- Node5 -->
<g id="node5" class="node">
<title>Node5</title>
<polygon fill="none" stroke="#bfbfbf" points="341.1881,-.5 341.1881,-20.5 406.1881,-20.5 406.1881,-.5 341.1881,-.5"/>
<text text-anchor="middle" x="373.6881" y="-7.5" font-family="FreeSans" font-size="10.00" fill="#000000">TObject.h</text>
</g>
<!-- Node2&#45;&gt;Node5 -->
<g id="edge4" class="edge">
<title>Node2&#45;&gt;Node5</title>
<path fill="none" stroke="#191970" d="M106.4573,-228.3709C61.603,-208.1835 -26.7127,-160.8349 8.6881,-114 47.8553,-62.1823 243.326,-28.7742 331.0068,-16.1665"/>
<polygon fill="#191970" stroke="#191970" points="331.7363,-19.5983 341.1475,-14.7323 330.7559,-12.6673 331.7363,-19.5983"/>
</g>
<!-- Node6 -->
<g id="node6" class="node">
<title>Node6</title>
<g id="a_node6"><a xlink:href="../../d5/da1/GFAbsTrackRep_8h.html" target="_top" xlink:title="GFAbsTrackRep.h">
<polygon fill="none" stroke="#000000" points="186.6881,-171.5 186.6881,-191.5 288.6881,-191.5 288.6881,-171.5 186.6881,-171.5"/>
<text text-anchor="middle" x="237.6881" y="-178.5" font-family="FreeSans" font-size="10.00" fill="#000000">GFAbsTrackRep.h</text>
</a>
</g>
</g>
<!-- Node2&#45;&gt;Node6 -->
<g id="edge5" class="edge">
<title>Node2&#45;&gt;Node6</title>
<path fill="none" stroke="#191970" d="M149.8176,-228.3095C166.4787,-219.434 190.8523,-206.4499 209.7052,-196.4068"/>
<polygon fill="#191970" stroke="#191970" points="211.544,-199.3929 218.7243,-191.6022 208.2529,-193.2148 211.544,-199.3929"/>
</g>
<!-- Node11 -->
<g id="node11" class="node">
<title>Node11</title>
<g id="a_node11"><a xlink:href="../../db/d65/GFDetPlane_8h.html" target="_top" xlink:title="GFDetPlane.h">
<polygon fill="none" stroke="#000000" points="415.1881,-114.5 415.1881,-134.5 500.1881,-134.5 500.1881,-114.5 415.1881,-114.5"/>
<text text-anchor="middle" x="457.6881" y="-121.5" font-family="FreeSans" font-size="10.00" fill="#000000">GFDetPlane.h</text>
</a>
</g>
</g>
<!-- Node2&#45;&gt;Node11 -->
<g id="edge19" class="edge">
<title>Node2&#45;&gt;Node11</title>
<path fill="none" stroke="#191970" d="M172.3196,-228.4827C206.3836,-219.9115 255.6279,-206.6606 297.6881,-192 343.6117,-175.9928 395.1895,-153.3572 427.0613,-138.8025"/>
<polygon fill="#191970" stroke="#191970" points="428.6665,-141.9168 436.2919,-134.5612 425.7439,-135.5561 428.6665,-141.9168"/>
</g>
<!-- Node6&#45;&gt;Node3 -->
<g id="edge8" class="edge">
<title>Node6&#45;&gt;Node3</title>
<path fill="none" stroke="#191970" d="M204.1573,-171.4408C171.578,-161.667 122.096,-146.8224 87.5259,-136.4513"/>
<polygon fill="#191970" stroke="#191970" points="88.3388,-133.0412 77.7548,-133.52 86.3274,-139.746 88.3388,-133.0412"/>
</g>
<!-- Node6&#45;&gt;Node4 -->
<g id="edge9" class="edge">
<title>Node6&#45;&gt;Node4</title>
<path fill="none" stroke="#191970" d="M218.5587,-171.3095C201.8975,-162.434 177.524,-149.4499 158.671,-139.4068"/>
<polygon fill="#191970" stroke="#191970" points="160.1234,-136.2148 149.652,-134.6022 156.8322,-142.3929 160.1234,-136.2148"/>
</g>
<!-- Node7 -->
<g id="node7" class="node">
<title>Node7</title>
<polygon fill="none" stroke="#bfbfbf" points="183.1881,-114.5 183.1881,-134.5 232.1881,-134.5 232.1881,-114.5 183.1881,-114.5"/>
<text text-anchor="middle" x="207.6881" y="-121.5" font-family="FreeSans" font-size="10.00" fill="#000000">vector</text>
</g>
<!-- Node6&#45;&gt;Node7 -->
<g id="edge6" class="edge">
<title>Node6&#45;&gt;Node7</title>
<path fill="none" stroke="#191970" d="M232.3247,-171.3095C228.2719,-163.6093 222.5916,-152.8166 217.7065,-143.5349"/>
<polygon fill="#191970" stroke="#191970" points="220.7598,-141.8213 213.0051,-134.6022 214.5654,-145.0816 220.7598,-141.8213"/>
</g>
<!-- Node8 -->
<g id="node8" class="node">
<title>Node8</title>
<polygon fill="none" stroke="#bfbfbf" points="250.6881,-114.5 250.6881,-134.5 282.6881,-134.5 282.6881,-114.5 250.6881,-114.5"/>
<text text-anchor="middle" x="266.6881" y="-121.5" font-family="FreeSans" font-size="10.00" fill="#000000">list</text>
</g>
<!-- Node6&#45;&gt;Node8 -->
<g id="edge7" class="edge">
<title>Node6&#45;&gt;Node8</title>
<path fill="none" stroke="#191970" d="M242.8727,-171.3095C246.7904,-163.6093 252.2814,-152.8166 257.0037,-143.5349"/>
<polygon fill="#191970" stroke="#191970" points="260.1332,-145.1021 261.5484,-134.6022 253.8943,-141.9279 260.1332,-145.1021"/>
</g>
<!-- Node9 -->
<g id="node9" class="node">
<title>Node9</title>
<polygon fill="none" stroke="#bfbfbf" points="274.1881,-57.5 274.1881,-77.5 345.1881,-77.5 345.1881,-57.5 274.1881,-57.5"/>
<text text-anchor="middle" x="309.6881" y="-64.5" font-family="FreeSans" font-size="10.00" fill="#000000">TVector3.h</text>
</g>
<!-- Node6&#45;&gt;Node9 -->
<g id="edge10" class="edge">
<title>Node6&#45;&gt;Node9</title>
<path fill="none" stroke="#191970" d="M254.2158,-171.2527C266.3185,-162.9183 282.2211,-150.0919 291.6881,-135 300.6384,-120.7318 305.1751,-102.0798 307.4529,-87.9991"/>
<polygon fill="#191970" stroke="#191970" points="310.9525,-88.2393 308.8364,-77.8579 304.0167,-87.293 310.9525,-88.2393"/>
</g>
<!-- Node10 -->
<g id="node10" class="node">
<title>Node10</title>
<polygon fill="none" stroke="#bfbfbf" points="338.6881,-114.5 338.6881,-134.5 396.6881,-134.5 396.6881,-114.5 338.6881,-114.5"/>
<text text-anchor="middle" x="367.6881" y="-121.5" font-family="FreeSans" font-size="10.00" fill="#000000">TMath.h</text>
</g>
<!-- Node6&#45;&gt;Node10 -->
<g id="edge11" class="edge">
<title>Node6&#45;&gt;Node10</title>
<path fill="none" stroke="#191970" d="M260.6302,-171.4408C281.295,-162.3801 311.8986,-148.9615 335.0989,-138.7891"/>
<polygon fill="#191970" stroke="#191970" points="336.7852,-141.8715 344.538,-134.6504 333.9742,-135.4606 336.7852,-141.8715"/>
</g>
<!-- Node6&#45;&gt;Node11 -->
<g id="edge12" class="edge">
<title>Node6&#45;&gt;Node11</title>
<path fill="none" stroke="#191970" d="M276.5133,-171.4408C313.4715,-161.8652 369.2153,-147.4225 409.1034,-137.0879"/>
<polygon fill="#191970" stroke="#191970" points="410.0792,-140.4507 418.8817,-134.5544 408.3235,-133.6744 410.0792,-140.4507"/>
</g>
<!-- Node11&#45;&gt;Node5 -->
<g id="edge15" class="edge">
<title>Node11&#45;&gt;Node5</title>
<path fill="none" stroke="#191970" d="M436.9276,-114.4733C422.506,-106.4919 403.9292,-94.0119 392.6881,-78 382.8632,-64.0055 378.0999,-45.0487 375.8015,-30.7873"/>
<polygon fill="#191970" stroke="#191970" points="379.2265,-29.9915 374.4371,-20.541 372.2878,-30.9155 379.2265,-29.9915"/>
</g>
<!-- Node11&#45;&gt;Node9 -->
<g id="edge16" class="edge">
<title>Node11&#45;&gt;Node9</title>
<path fill="none" stroke="#191970" d="M431.5694,-114.4408C407.6233,-105.2183 371.9544,-91.4809 345.3829,-81.2473"/>
<polygon fill="#191970" stroke="#191970" points="346.6333,-77.9784 336.0436,-77.6504 344.1175,-84.5106 346.6333,-77.9784"/>
</g>
<!-- Node12 -->
<g id="node12" class="node">
<title>Node12</title>
<g id="a_node12"><a xlink:href="../../d3/d26/GFAbsFinitePlane_8h.html" target="_top" xlink:title="GFAbsFinitePlane.h">
<polygon fill="none" stroke="#000000" points="401.6881,-57.5 401.6881,-77.5 513.6881,-77.5 513.6881,-57.5 401.6881,-57.5"/>
<text text-anchor="middle" x="457.6881" y="-64.5" font-family="FreeSans" font-size="10.00" fill="#000000">GFAbsFinitePlane.h</text>
</a>
</g>
</g>
<!-- Node11&#45;&gt;Node12 -->
<g id="edge13" class="edge">
<title>Node11&#45;&gt;Node12</title>
<path fill="none" stroke="#191970" d="M457.6881,-114.3095C457.6881,-106.9335 457.6881,-96.72 457.6881,-87.715"/>
<polygon fill="#191970" stroke="#191970" points="461.1882,-87.6022 457.6881,-77.6022 454.1882,-87.6023 461.1882,-87.6022"/>
</g>
<!-- Node13 -->
<g id="node13" class="node">
<title>Node13</title>
<polygon fill="none" stroke="#bfbfbf" points="531.6881,-57.5 531.6881,-77.5 633.6881,-77.5 633.6881,-57.5 531.6881,-57.5"/>
<text text-anchor="middle" x="582.6881" y="-64.5" font-family="FreeSans" font-size="10.00" fill="#000000">TPolyMarker3D.h</text>
</g>
<!-- Node11&#45;&gt;Node13 -->
<g id="edge17" class="edge">
<title>Node11&#45;&gt;Node13</title>
<path fill="none" stroke="#191970" d="M479.7479,-114.4408C499.5291,-105.4205 528.7818,-92.0813 551.0531,-81.9255"/>
<polygon fill="#191970" stroke="#191970" points="552.7819,-84.984 560.4284,-77.6504 549.8776,-78.6149 552.7819,-84.984"/>
</g>
<!-- Node14 -->
<g id="node14" class="node">
<title>Node14</title>
<polygon fill="none" stroke="#bfbfbf" points="651.1881,-57.5 651.1881,-77.5 740.1881,-77.5 740.1881,-57.5 651.1881,-57.5"/>
<text text-anchor="middle" x="695.6881" y="-64.5" font-family="FreeSans" font-size="10.00" fill="#000000">TPolyLine3D.h</text>
</g>
<!-- Node11&#45;&gt;Node14 -->
<g id="edge18" class="edge">
<title>Node11&#45;&gt;Node14</title>
<path fill="none" stroke="#191970" d="M499.6899,-114.4408C539.9261,-104.8043 600.744,-90.2387 643.949,-79.8913"/>
<polygon fill="#191970" stroke="#191970" points="644.7968,-83.2873 653.7066,-77.5544 643.1664,-76.4798 644.7968,-83.2873"/>
</g>
<!-- Node12&#45;&gt;Node5 -->
<g id="edge14" class="edge">
<title>Node12&#45;&gt;Node5</title>
<path fill="none" stroke="#191970" d="M442.6706,-57.3095C430.0089,-48.7177 411.6735,-36.2758 397.0882,-26.3786"/>
<polygon fill="#191970" stroke="#191970" points="398.8157,-23.3211 388.5756,-20.6022 394.8851,-29.1135 398.8157,-23.3211"/>
</g>
</g>
</svg>
