<?xml version="1.0" encoding="UTF-8" standalone="no"?>
<!DOCTYPE svg PUBLIC "-//W3C//DTD SVG 1.1//EN"
 "http://www.w3.org/Graphics/SVG/1.1/DTD/svg11.dtd">
<!-- Generated by graphviz version 2.40.1 (20161225.0304)
 -->
<!-- Title: getneffmax Pages: 1 -->
<svg width="1070pt" height="223pt"
 viewBox="0.00 0.00 1070.00 222.50" xmlns="http://www.w3.org/2000/svg" xmlns:xlink="http://www.w3.org/1999/xlink">
<g id="graph0" class="graph" transform="scale(1 1) rotate(0) translate(4 218.5)">
<title>getneffmax</title>
<!-- Node1 -->
<g id="node1" class="node">
<title>Node1</title>
<polygon fill="#bfbfbf" stroke="#000000" points="0,-184.5 0,-204.5 75,-204.5 75,-184.5 0,-184.5"/>
<text text-anchor="middle" x="37.5" y="-191.5" font-family="FreeSans" font-size="10.00" fill="#000000">getneffmax</text>
</g>
<!-- Node2 -->
<g id="node2" class="node">
<title>Node2</title>
<g id="a_node2"><a xlink:href="../../d2/d18/medium-simple_8f.html#a1cd3c6e61d77c5039b408b84094b6d01" target="_top" xlink:title="gettempmax">
<polygon fill="none" stroke="#000000" points="111,-165.5 111,-185.5 192,-185.5 192,-165.5 111,-165.5"/>
<text text-anchor="middle" x="151.5" y="-172.5" font-family="FreeSans" font-size="10.00" fill="#000000">gettempmax</text>
</a>
</g>
</g>
<!-- Node1&#45;&gt;Node2 -->
<g id="edge1" class="edge">
<title>Node1&#45;&gt;Node2</title>
<path fill="none" stroke="#191970" d="M75.1438,-188.226C83.3479,-186.8587 92.1591,-185.3901 100.7766,-183.9539"/>
<polygon fill="#191970" stroke="#191970" points="101.4673,-187.3871 110.7559,-182.2907 100.3165,-180.4824 101.4673,-187.3871"/>
</g>
<!-- Node3 -->
<g id="node3" class="node">
<title>Node3</title>
<g id="a_node3"><a xlink:href="../../d8/d1a/classHiMain1.html#afa91501b2c79bdaf9274e067b9d97e31" target="_top" xlink:title="HiMain1::n0">
<polygon fill="none" stroke="#000000" points="673,-129.5 673,-149.5 750,-149.5 750,-129.5 673,-129.5"/>
<text text-anchor="middle" x="711.5" y="-136.5" font-family="FreeSans" font-size="10.00" fill="#000000">HiMain1::n0</text>
</a>
</g>
</g>
<!-- Node1&#45;&gt;Node3 -->
<g id="edge19" class="edge">
<title>Node1&#45;&gt;Node3</title>
<path fill="none" stroke="#191970" d="M75.1664,-200.018C118.9014,-205.9379 193.2605,-214.5 257.5,-214.5 257.5,-214.5 257.5,-214.5 374,-214.5 486.0099,-214.5 614.0574,-174.6473 675.2427,-153.0432"/>
<polygon fill="#191970" stroke="#191970" points="676.5889,-156.279 684.8254,-149.6148 674.2308,-149.6881 676.5889,-156.279"/>
</g>
<!-- Node2&#45;&gt;Node3 -->
<g id="edge2" class="edge">
<title>Node2&#45;&gt;Node3</title>
<path fill="none" stroke="#191970" d="M192.2328,-174.5599C272.6283,-172.4624 457.335,-166.4436 612,-152.5 628.5103,-151.0115 646.4941,-148.8335 662.5747,-146.6841"/>
<polygon fill="#191970" stroke="#191970" points="663.3981,-150.1043 672.8326,-145.2834 662.4509,-143.1686 663.3981,-150.1043"/>
</g>
<!-- Node6 -->
<g id="node6" class="node">
<title>Node6</title>
<g id="a_node6"><a xlink:href="../../d2/d18/medium-simple_8f.html#a4c3c426f7b73441851ebd368f54397fb" target="_top" xlink:title="gettemp">
<polygon fill="none" stroke="#000000" points="228,-89.5 228,-109.5 287,-109.5 287,-89.5 228,-89.5"/>
<text text-anchor="middle" x="257.5" y="-96.5" font-family="FreeSans" font-size="10.00" fill="#000000">gettemp</text>
</a>
</g>
</g>
<!-- Node2&#45;&gt;Node6 -->
<g id="edge5" class="edge">
<title>Node2&#45;&gt;Node6</title>
<path fill="none" stroke="#191970" d="M165.7956,-165.2503C183.5965,-152.4874 214.2053,-130.5415 235.1244,-115.5429"/>
<polygon fill="#191970" stroke="#191970" points="237.3433,-118.2587 243.4309,-109.5873 233.2645,-112.5698 237.3433,-118.2587"/>
</g>
<!-- Node4 -->
<g id="node4" class="node">
<title>Node4</title>
<g id="a_node4"><a xlink:href="../../d8/d1a/classHiMain1.html#abdd4d6ac793897447c6d9f7b9e6d20ca" target="_top" xlink:title="HiMain1::init">
<polygon fill="none" stroke="#000000" points="812,-129.5 812,-149.5 893,-149.5 893,-129.5 812,-129.5"/>
<text text-anchor="middle" x="852.5" y="-136.5" font-family="FreeSans" font-size="10.00" fill="#000000">HiMain1::init</text>
</a>
</g>
</g>
<!-- Node3&#45;&gt;Node4 -->
<g id="edge3" class="edge">
<title>Node3&#45;&gt;Node4</title>
<path fill="none" stroke="#191970" d="M750.0289,-139.5C765.8294,-139.5 784.3482,-139.5 801.2643,-139.5"/>
<polygon fill="#191970" stroke="#191970" points="801.5513,-143.0001 811.5512,-139.5 801.5512,-136.0001 801.5513,-143.0001"/>
</g>
<!-- Node5 -->
<g id="node5" class="node">
<title>Node5</title>
<g id="a_node5"><a xlink:href="../../d7/dc3/HiMain1_8h.html#af413dd2854a4d96511498e79f1519c57" target="_top" xlink:title="himain1_address_">
<polygon fill="none" stroke="#000000" points="942,-129.5 942,-149.5 1050,-149.5 1050,-129.5 942,-129.5"/>
<text text-anchor="middle" x="996" y="-136.5" font-family="FreeSans" font-size="10.00" fill="#000000">himain1_address_</text>
</a>
</g>
</g>
<!-- Node4&#45;&gt;Node5 -->
<g id="edge4" class="edge">
<title>Node4&#45;&gt;Node5</title>
<path fill="none" stroke="#191970" d="M893.2375,-139.5C905.1371,-139.5 918.446,-139.5 931.4374,-139.5"/>
<polygon fill="#191970" stroke="#191970" points="931.7552,-143.0001 941.7552,-139.5 931.7552,-136.0001 931.7552,-143.0001"/>
</g>
<!-- Node6&#45;&gt;Node3 -->
<g id="edge6" class="edge">
<title>Node6&#45;&gt;Node3</title>
<path fill="none" stroke="#191970" d="M285.182,-109.597C296.7189,-113.3716 310.3526,-117.2783 323,-119.5 443.6197,-140.689 588.2844,-141.895 662.4122,-140.796"/>
<polygon fill="#191970" stroke="#191970" points="662.8869,-144.2885 672.826,-140.6192 662.768,-137.2895 662.8869,-144.2885"/>
</g>
<!-- Node7 -->
<g id="node7" class="node">
<title>Node7</title>
<g id="a_node7"><a xlink:href="../../d2/d18/medium-simple_8f.html#a1fdcab7823056a622e99f159e74b0a1e" target="_top" xlink:title="nthick">
<polygon fill="none" stroke="#000000" points="512.5,-51.5 512.5,-71.5 560.5,-71.5 560.5,-51.5 512.5,-51.5"/>
<text text-anchor="middle" x="536.5" y="-58.5" font-family="FreeSans" font-size="10.00" fill="#000000">nthick</text>
</a>
</g>
</g>
<!-- Node6&#45;&gt;Node7 -->
<g id="edge7" class="edge">
<title>Node6&#45;&gt;Node7</title>
<path fill="none" stroke="#191970" d="M285.8635,-89.4018C297.2672,-85.7216 310.6241,-81.8831 323,-79.5 385.4631,-67.4721 459.7442,-63.4815 502.182,-62.1574"/>
<polygon fill="#191970" stroke="#191970" points="502.3606,-65.6539 512.2586,-61.875 502.1644,-58.6566 502.3606,-65.6539"/>
</g>
<!-- Node13 -->
<g id="node13" class="node">
<title>Node13</title>
<g id="a_node13"><a xlink:href="../../d4/d3e/classActs_1_1Logger.html#aee9e687247532b5175713e66b2d2121e" target="_top" xlink:title="create output stream object with internal cache">
<polygon fill="none" stroke="#000000" points="323,-9.5 323,-29.5 425,-29.5 425,-9.5 323,-9.5"/>
<text text-anchor="middle" x="374" y="-16.5" font-family="FreeSans" font-size="10.00" fill="#000000">Acts::Logger::log</text>
</a>
</g>
</g>
<!-- Node6&#45;&gt;Node13 -->
<g id="edge14" class="edge">
<title>Node6&#45;&gt;Node13</title>
<path fill="none" stroke="#191970" d="M268.5811,-89.4154C281.2115,-78.1931 302.7367,-59.8804 323,-46.5 329.4374,-42.2492 336.6162,-38.1129 343.5081,-34.4067"/>
<polygon fill="#191970" stroke="#191970" points="345.3831,-37.3763 352.6316,-29.6491 342.1464,-31.1695 345.3831,-37.3763"/>
</g>
<!-- Node15 -->
<g id="node15" class="node">
<title>Node15</title>
<g id="a_node15"><a xlink:href="../../d2/d18/medium-simple_8f.html#a58e0410e81664819969cd2981fd7cd27" target="_top" xlink:title="npart">
<polygon fill="none" stroke="#000000" points="352,-89.5 352,-109.5 396,-109.5 396,-89.5 352,-89.5"/>
<text text-anchor="middle" x="374" y="-96.5" font-family="FreeSans" font-size="10.00" fill="#000000">npart</text>
</a>
</g>
</g>
<!-- Node6&#45;&gt;Node15 -->
<g id="edge16" class="edge">
<title>Node6&#45;&gt;Node15</title>
<path fill="none" stroke="#191970" d="M287.1993,-99.5C303.8359,-99.5 324.6004,-99.5 341.6486,-99.5"/>
<polygon fill="#191970" stroke="#191970" points="341.7131,-103.0001 351.7131,-99.5 341.7131,-96.0001 341.7131,-103.0001"/>
</g>
<!-- Node7&#45;&gt;Node3 -->
<g id="edge8" class="edge">
<title>Node7&#45;&gt;Node3</title>
<path fill="none" stroke="#191970" d="M560.7742,-66.6589C576.1731,-70.6094 596.1144,-77.0144 612,-86.5 630.8956,-97.7829 628.9427,-109.4925 648,-120.5 652.7331,-123.2338 657.896,-125.6073 663.1661,-127.66"/>
<polygon fill="#191970" stroke="#191970" points="662.1038,-130.9965 672.6986,-131.017 664.429,-124.394 662.1038,-130.9965"/>
</g>
<!-- Node8 -->
<g id="node8" class="node">
<title>Node8</title>
<g id="a_node8"><a xlink:href="../../de/d6c/fun4all__eicdetectors_2blob_2master_2simulation_2g4simulation_2g4lblvtx_2EicFRichDetector_8cc.html#afa9eab74a86ef9511755e454d4ed5e85" target="_top" xlink:title="rmax">
<polygon fill="none" stroke="#000000" points="690.5,-90.5 690.5,-110.5 732.5,-110.5 732.5,-90.5 690.5,-90.5"/>
<text text-anchor="middle" x="711.5" y="-97.5" font-family="FreeSans" font-size="10.00" fill="#000000">rmax</text>
</a>
</g>
</g>
<!-- Node7&#45;&gt;Node8 -->
<g id="edge9" class="edge">
<title>Node7&#45;&gt;Node8</title>
<path fill="none" stroke="#191970" d="M560.833,-66.9228C592.069,-73.884 646.3013,-85.97 680.4724,-93.5853"/>
<polygon fill="#191970" stroke="#191970" points="679.8636,-97.0354 690.3855,-95.7945 681.3863,-90.203 679.8636,-97.0354"/>
</g>
<!-- Node9 -->
<g id="node9" class="node">
<title>Node9</title>
<g id="a_node9"><a xlink:href="../../d3/de3/classActs_1_1ConeBounds.html#a86578ae40c338ada71d2e19d96a2f8d1" target="_top" xlink:title="Acts::ConeBounds::r">
<polygon fill="none" stroke="#000000" points="651.5,-51.5 651.5,-71.5 771.5,-71.5 771.5,-51.5 651.5,-51.5"/>
<text text-anchor="middle" x="711.5" y="-58.5" font-family="FreeSans" font-size="10.00" fill="#000000">Acts::ConeBounds::r</text>
</a>
</g>
</g>
<!-- Node7&#45;&gt;Node9 -->
<g id="edge10" class="edge">
<title>Node7&#45;&gt;Node9</title>
<path fill="none" stroke="#191970" d="M560.833,-61.5C581.5768,-61.5 612.4626,-61.5 640.8794,-61.5"/>
<polygon fill="#191970" stroke="#191970" points="641.2137,-65.0001 651.2137,-61.5 641.2137,-58.0001 641.2137,-65.0001"/>
</g>
<!-- Node12 -->
<g id="node12" class="node">
<title>Node12</title>
<g id="a_node12"><a xlink:href="../../d0/d35/classActs_1_1IVisualization3D.html#a86a81d7ed4d1aaf62638a98aab8c3f0b" target="_top" xlink:title="Acts::IVisualization3D\l::line">
<polygon fill="none" stroke="#000000" points="648,-.5 648,-32.5 775,-32.5 775,-.5 648,-.5"/>
<text text-anchor="start" x="656" y="-19.5" font-family="FreeSans" font-size="10.00" fill="#000000">Acts::IVisualization3D</text>
<text text-anchor="middle" x="711.5" y="-7.5" font-family="FreeSans" font-size="10.00" fill="#000000">::line</text>
</a>
</g>
</g>
<!-- Node7&#45;&gt;Node12 -->
<g id="edge13" class="edge">
<title>Node7&#45;&gt;Node12</title>
<path fill="none" stroke="#191970" d="M560.833,-55.2429C581.1637,-50.015 611.2365,-42.282 639.1789,-35.0969"/>
<polygon fill="#191970" stroke="#191970" points="640.1409,-38.4634 648.9542,-32.5832 638.3976,-31.684 640.1409,-38.4634"/>
</g>
<!-- Node10 -->
<g id="node10" class="node">
<title>Node10</title>
<g id="a_node10"><a xlink:href="../../df/d28/namespacekdfinder.html#ab72d428625e99a2d7380eb7691c246c7" target="_top" xlink:title="kdfinder::abs">
<polygon fill="none" stroke="#000000" points="811,-51.5 811,-71.5 894,-71.5 894,-51.5 811,-51.5"/>
<text text-anchor="middle" x="852.5" y="-58.5" font-family="FreeSans" font-size="10.00" fill="#000000">kdfinder::abs</text>
</a>
</g>
</g>
<!-- Node9&#45;&gt;Node10 -->
<g id="edge11" class="edge">
<title>Node9&#45;&gt;Node10</title>
<path fill="none" stroke="#191970" d="M771.7057,-61.5C781.3801,-61.5 791.3188,-61.5 800.7719,-61.5"/>
<polygon fill="#191970" stroke="#191970" points="800.8034,-65.0001 810.8034,-61.5 800.8033,-58.0001 800.8034,-65.0001"/>
</g>
<!-- Node11 -->
<g id="node11" class="node">
<title>Node11</title>
<g id="a_node11"><a xlink:href="../../d8/dc7/classkdfinder_1_1TVector.html#ac9649c7577f12a7502ed523260f4ee90" target="_top" xlink:title="kdfinder::TVector::mag">
<polygon fill="none" stroke="#000000" points="930,-51.5 930,-71.5 1062,-71.5 1062,-51.5 930,-51.5"/>
<text text-anchor="middle" x="996" y="-58.5" font-family="FreeSans" font-size="10.00" fill="#000000">kdfinder::TVector::mag</text>
</a>
</g>
</g>
<!-- Node10&#45;&gt;Node11 -->
<g id="edge12" class="edge">
<title>Node10&#45;&gt;Node11</title>
<path fill="none" stroke="#191970" d="M894.0061,-61.5C902.1854,-61.5 911.0065,-61.5 919.917,-61.5"/>
<polygon fill="#191970" stroke="#191970" points="919.9858,-65.0001 929.9858,-61.5 919.9857,-58.0001 919.9858,-65.0001"/>
</g>
<!-- Node14 -->
<g id="node14" class="node">
<title>Node14</title>
<g id="a_node14"><a xlink:href="../../df/dce/classActs_1_1Logging_1_1OutputPrintPolicy.html#ab113823970013e1e7f310b36509136ac" target="_top" xlink:title="handle output of debug message">
<polygon fill="none" stroke="#000000" points="461,-.5 461,-32.5 612,-32.5 612,-.5 461,-.5"/>
<text text-anchor="start" x="469" y="-19.5" font-family="FreeSans" font-size="10.00" fill="#000000">Acts::Logging::OutputPrint</text>
<text text-anchor="middle" x="536.5" y="-7.5" font-family="FreeSans" font-size="10.00" fill="#000000">Policy::flush</text>
</a>
</g>
</g>
<!-- Node13&#45;&gt;Node14 -->
<g id="edge15" class="edge">
<title>Node13&#45;&gt;Node14</title>
<path fill="none" stroke="#191970" d="M425.416,-18.5508C433.5027,-18.4015 442.0472,-18.2437 450.6607,-18.0847"/>
<polygon fill="#191970" stroke="#191970" points="450.8469,-21.582 460.7806,-17.8979 450.7176,-14.5832 450.8469,-21.582"/>
</g>
<!-- Node15&#45;&gt;Node3 -->
<g id="edge17" class="edge">
<title>Node15&#45;&gt;Node3</title>
<path fill="none" stroke="#191970" d="M396.0227,-101.4796C438.0707,-105.3332 532.668,-114.3588 612,-124.5 628.4891,-126.6078 646.4674,-129.2212 662.5496,-131.6729"/>
<polygon fill="#191970" stroke="#191970" points="662.393,-135.19 672.8094,-133.2539 663.4591,-128.2717 662.393,-135.19"/>
</g>
<!-- Node15&#45;&gt;Node7 -->
<g id="edge18" class="edge">
<title>Node15&#45;&gt;Node7</title>
<path fill="none" stroke="#191970" d="M396.2542,-94.2959C423.7063,-87.8764 470.6532,-76.898 502.5996,-69.4275"/>
<polygon fill="#191970" stroke="#191970" points="503.4606,-72.8206 512.4009,-67.1355 501.8666,-66.0045 503.4606,-72.8206"/>
</g>
</g>
</svg>
