<?xml version="1.0" encoding="UTF-8" standalone="no"?>
<!DOCTYPE svg PUBLIC "-//W3C//DTD SVG 1.1//EN"
 "http://www.w3.org/Graphics/SVG/1.1/DTD/svg11.dtd">
<!-- Generated by graphviz version 2.40.1 (20161225.0304)
 -->
<!-- Title: Acts::AbstractVolume::boundarySurfaces Pages: 1 -->
<svg width="366pt" height="92pt"
 viewBox="0.00 0.00 366.00 92.00" xmlns="http://www.w3.org/2000/svg" xmlns:xlink="http://www.w3.org/1999/xlink">
<g id="graph0" class="graph" transform="scale(1 1) rotate(0) translate(4 88)">
<title>Acts::AbstractVolume::boundarySurfaces</title>
<!-- Node1 -->
<g id="node1" class="node">
<title>Node1</title>
<polygon fill="#bfbfbf" stroke="#000000" points="0,-25.5 0,-57.5 125,-57.5 125,-25.5 0,-25.5"/>
<text text-anchor="start" x="8" y="-44.5" font-family="FreeSans" font-size="10.00" fill="#000000">Acts::AbstractVolume</text>
<text text-anchor="middle" x="62.5" y="-32.5" font-family="FreeSans" font-size="10.00" fill="#000000">::boundarySurfaces</text>
</g>
<!-- Node2 -->
<g id="node2" class="node">
<title>Node2</title>
<g id="a_node2"><a xlink:href="../../dd/dcd/classActs_1_1TrackingVolume.html#ac6de1d95c699a6b3540a660de7467395" target="_top" xlink:title="Acts::TrackingVolume\l::closeGeometry">
<polygon fill="none" stroke="#000000" points="197,-51.5 197,-83.5 322,-83.5 322,-51.5 197,-51.5"/>
<text text-anchor="start" x="205" y="-70.5" font-family="FreeSans" font-size="10.00" fill="#000000">Acts::TrackingVolume</text>
<text text-anchor="middle" x="259.5" y="-58.5" font-family="FreeSans" font-size="10.00" fill="#000000">::closeGeometry</text>
</a>
</g>
</g>
<!-- Node1&#45;&gt;Node2 -->
<g id="edge1" class="edge">
<title>Node1&#45;&gt;Node2</title>
<path fill="none" stroke="#191970" d="M135.1889,-51.0935C155.3873,-53.7592 177.1437,-56.6306 196.7222,-59.2146"/>
<polygon fill="#191970" stroke="#191970" points="135.4747,-47.6009 125.1027,-49.7623 134.5588,-54.5407 135.4747,-47.6009"/>
</g>
<!-- Node3 -->
<g id="node3" class="node">
<title>Node3</title>
<g id="a_node3"><a xlink:href="../../dd/dcd/classActs_1_1TrackingVolume.html#af928fd31f2a1bbe823f20a7f33c3580d" target="_top" xlink:title="Acts::TrackingVolume\l::compatibleSurfacesFromHierarchy">
<polygon fill="none" stroke="#000000" points="161,-.5 161,-32.5 358,-32.5 358,-.5 161,-.5"/>
<text text-anchor="start" x="169" y="-19.5" font-family="FreeSans" font-size="10.00" fill="#000000">Acts::TrackingVolume</text>
<text text-anchor="middle" x="259.5" y="-7.5" font-family="FreeSans" font-size="10.00" fill="#000000">::compatibleSurfacesFromHierarchy</text>
</a>
</g>
</g>
<!-- Node1&#45;&gt;Node3 -->
<g id="edge2" class="edge">
<title>Node1&#45;&gt;Node3</title>
<path fill="none" stroke="#191970" d="M135.1384,-32.2819C143.489,-31.2222 152.1064,-30.1286 160.7266,-29.0347"/>
<polygon fill="#191970" stroke="#191970" points="134.5825,-28.8243 125.1027,-33.5555 135.4638,-35.7686 134.5825,-28.8243"/>
</g>
</g>
</svg>
