<?xml version="1.0" encoding="UTF-8" standalone="no"?>
<!DOCTYPE svg PUBLIC "-//W3C//DTD SVG 1.1//EN"
 "http://www.w3.org/Graphics/SVG/1.1/DTD/svg11.dtd">
<!-- Generated by graphviz version 2.40.1 (20161225.0304)
 -->
<!-- Title: photonElectronLuminosity::photonElectronLuminosity Pages: 1 -->
<svg width="1683pt" height="984pt"
 viewBox="0.00 0.00 1683.00 984.48" xmlns="http://www.w3.org/2000/svg" xmlns:xlink="http://www.w3.org/1999/xlink">
<g id="graph0" class="graph" transform="scale(1 1) rotate(0) translate(4 980.477)">
<title>photonElectronLuminosity::photonElectronLuminosity</title>
<!-- Node1 -->
<g id="node1" class="node">
<title>Node1</title>
<polygon fill="#bfbfbf" stroke="#000000" points="0,-428.5 0,-460.5 155,-460.5 155,-428.5 0,-428.5"/>
<text text-anchor="start" x="8" y="-447.5" font-family="FreeSans" font-size="10.00" fill="#000000">photonElectronLuminosity</text>
<text text-anchor="middle" x="77.5" y="-435.5" font-family="FreeSans" font-size="10.00" fill="#000000">::photonElectronLuminosity</text>
</g>
<!-- Node2 -->
<g id="node2" class="node">
<title>Node2</title>
<g id="a_node2"><a xlink:href="../../de/d1f/classphotonElectronLuminosity.html#ad405f6bf675bf8f63483eeb8c33e1ad7" target="_top" xlink:title="photonElectronLuminosity\l::photonNucleusDifferentialLuminosity">
<polygon fill="none" stroke="#000000" points="191,-428.5 191,-460.5 402,-460.5 402,-428.5 191,-428.5"/>
<text text-anchor="start" x="199" y="-447.5" font-family="FreeSans" font-size="10.00" fill="#000000">photonElectronLuminosity</text>
<text text-anchor="middle" x="296.5" y="-435.5" font-family="FreeSans" font-size="10.00" fill="#000000">::photonNucleusDifferentialLuminosity</text>
</a>
</g>
</g>
<!-- Node1&#45;&gt;Node2 -->
<g id="edge1" class="edge">
<title>Node1&#45;&gt;Node2</title>
<path fill="none" stroke="#191970" d="M155.0194,-444.5C163.3327,-444.5 171.9156,-444.5 180.5521,-444.5"/>
<polygon fill="#191970" stroke="#191970" points="180.7024,-448.0001 190.7024,-444.5 180.7023,-441.0001 180.7024,-448.0001"/>
</g>
<!-- Node3 -->
<g id="node3" class="node">
<title>Node3</title>
<g id="a_node3"><a xlink:href="../../d0/d4e/classphotonNucleusCrossSection.html#a68ac91e3851cd4d6522e7af1125eb678" target="_top" xlink:title="returns beamBeamSystem">
<polygon fill="none" stroke="#000000" points="438,-915.5 438,-947.5 595,-947.5 595,-915.5 438,-915.5"/>
<text text-anchor="start" x="446" y="-934.5" font-family="FreeSans" font-size="10.00" fill="#000000">photonNucleusCrossSection</text>
<text text-anchor="middle" x="516.5" y="-922.5" font-family="FreeSans" font-size="10.00" fill="#000000">::getbbs</text>
</a>
</g>
</g>
<!-- Node2&#45;&gt;Node3 -->
<g id="edge2" class="edge">
<title>Node2&#45;&gt;Node3</title>
<path fill="none" stroke="#191970" d="M299.6208,-460.9031C313.8813,-534.358 374.8688,-832.4321 438,-900.5 441.3131,-904.0721 445.0898,-907.2393 449.1538,-910.0464"/>
<polygon fill="#191970" stroke="#191970" points="447.4775,-913.1232 457.8427,-915.3172 451.1081,-907.1383 447.4775,-913.1232"/>
</g>
<!-- Node4 -->
<g id="node4" class="node">
<title>Node4</title>
<g id="a_node4"><a xlink:href="../../d1/d21/classbeamBeamSystem.html#ae788c7578711e2e7b146a45e405f0426" target="_top" xlink:title="returns beam particle 1">
<polygon fill="none" stroke="#000000" points="1040,-412.5 1040,-432.5 1193,-432.5 1193,-412.5 1040,-412.5"/>
<text text-anchor="middle" x="1116.5" y="-419.5" font-family="FreeSans" font-size="10.00" fill="#000000">beamBeamSystem::beam1</text>
</a>
</g>
</g>
<!-- Node2&#45;&gt;Node4 -->
<g id="edge3" class="edge">
<title>Node2&#45;&gt;Node4</title>
<path fill="none" stroke="#191970" d="M402.022,-441.6689C565.7671,-437.2758 877.9503,-428.9001 1029.5617,-424.8325"/>
<polygon fill="#191970" stroke="#191970" points="1029.8519,-428.3261 1039.7544,-424.559 1029.6641,-421.3286 1029.8519,-428.3261"/>
</g>
<!-- Node5 -->
<g id="node5" class="node">
<title>Node5</title>
<g id="a_node5"><a xlink:href="../../d4/d51/classnucleus.html#acd58b7873e7d2d42bbc31414e373b89d" target="_top" xlink:title="returns atomic number of nucleus">
<polygon fill="none" stroke="#000000" points="1259.5,-760.5 1259.5,-780.5 1328.5,-780.5 1328.5,-760.5 1259.5,-760.5"/>
<text text-anchor="middle" x="1294" y="-767.5" font-family="FreeSans" font-size="10.00" fill="#000000">nucleus::Z</text>
</a>
</g>
</g>
<!-- Node2&#45;&gt;Node5 -->
<g id="edge4" class="edge">
<title>Node2&#45;&gt;Node5</title>
<path fill="none" stroke="#191970" d="M302.3818,-460.7552C332.3848,-540.4979 476.3739,-886.5 716,-886.5 716,-886.5 716,-886.5 915.5,-886.5 1045.7649,-886.5 1082.2937,-878.4788 1203,-829.5 1229.1487,-818.8897 1255.8702,-800.4807 1273.5314,-787.0411"/>
<polygon fill="#191970" stroke="#191970" points="1276.1495,-789.4386 1281.8902,-780.5337 1271.8494,-783.9151 1276.1495,-789.4386"/>
</g>
<!-- Node6 -->
<g id="node6" class="node">
<title>Node6</title>
<g id="a_node6"><a xlink:href="../../d4/d51/classnucleus.html#afb4d4a7f776a88c10fa0ff433e74463e" target="_top" xlink:title="returns nucleon number of nucleus">
<polygon fill="none" stroke="#000000" points="1259.5,-297.5 1259.5,-317.5 1328.5,-317.5 1328.5,-297.5 1259.5,-297.5"/>
<text text-anchor="middle" x="1294" y="-304.5" font-family="FreeSans" font-size="10.00" fill="#000000">nucleus::A</text>
</a>
</g>
</g>
<!-- Node2&#45;&gt;Node6 -->
<g id="edge5" class="edge">
<title>Node2&#45;&gt;Node6</title>
<path fill="none" stroke="#191970" d="M305.8223,-428.4869C345.7607,-362.1687 509.8096,-112.5 716,-112.5 716,-112.5 716,-112.5 915.5,-112.5 1044.5706,-112.5 1095.7049,-81.7577 1203,-153.5 1251.6859,-186.0536 1278.0254,-254.2193 1288.5211,-287.861"/>
<polygon fill="#191970" stroke="#191970" points="1285.1764,-288.8931 1291.3803,-297.4816 1291.8864,-286.8989 1285.1764,-288.8931"/>
</g>
<!-- Node7 -->
<g id="node7" class="node">
<title>Node7</title>
<g id="a_node7"><a xlink:href="../../d1/d21/classbeamBeamSystem.html#a5c6e0d37ec7b688b606a4b83f327f1e4" target="_top" xlink:title="returns beam particle 2">
<polygon fill="none" stroke="#000000" points="1040,-258.5 1040,-278.5 1193,-278.5 1193,-258.5 1040,-258.5"/>
<text text-anchor="middle" x="1116.5" y="-265.5" font-family="FreeSans" font-size="10.00" fill="#000000">beamBeamSystem::beam2</text>
</a>
</g>
</g>
<!-- Node2&#45;&gt;Node7 -->
<g id="edge6" class="edge">
<title>Node2&#45;&gt;Node7</title>
<path fill="none" stroke="#191970" d="M327.8447,-428.4718C356.0723,-414.5424 398.9974,-394.5973 438,-381.5 643.4913,-312.4949 898.7016,-284.5346 1029.8068,-274.1062"/>
<polygon fill="#191970" stroke="#191970" points="1030.1004,-277.594 1039.7977,-273.3264 1029.5557,-270.6152 1030.1004,-277.594"/>
</g>
<!-- Node8 -->
<g id="node8" class="node">
<title>Node8</title>
<g id="a_node8"><a xlink:href="../../d0/d4e/classphotonNucleusCrossSection.html#a4ec8663422616842d1cd649f37a0e072" target="_top" xlink:title="photonNucleusCrossSection\l::getDefaultC">
<polygon fill="none" stroke="#000000" points="438,-51.5 438,-83.5 595,-83.5 595,-51.5 438,-51.5"/>
<text text-anchor="start" x="446" y="-70.5" font-family="FreeSans" font-size="10.00" fill="#000000">photonNucleusCrossSection</text>
<text text-anchor="middle" x="516.5" y="-58.5" font-family="FreeSans" font-size="10.00" fill="#000000">::getDefaultC</text>
</a>
</g>
</g>
<!-- Node2&#45;&gt;Node8 -->
<g id="edge7" class="edge">
<title>Node2&#45;&gt;Node8</title>
<path fill="none" stroke="#191970" d="M298.5879,-428.2641C306.4008,-373.9583 338.7409,-196.5653 438,-98.5 441.7476,-94.7975 445.9908,-91.5235 450.5167,-88.6308"/>
<polygon fill="#191970" stroke="#191970" points="452.543,-91.5051 459.5123,-83.5252 449.0878,-85.4173 452.543,-91.5051"/>
</g>
<!-- Node9 -->
<g id="node9" class="node">
<title>Node9</title>
<g id="a_node9"><a xlink:href="../../d0/d4e/classphotonNucleusCrossSection.html#aab132d8d1940a06b6724dcc5764f5191" target="_top" xlink:title="photonNucleusCrossSection\l::breitWigner">
<polygon fill="none" stroke="#000000" points="438,-.5 438,-32.5 595,-32.5 595,-.5 438,-.5"/>
<text text-anchor="start" x="446" y="-19.5" font-family="FreeSans" font-size="10.00" fill="#000000">photonNucleusCrossSection</text>
<text text-anchor="middle" x="516.5" y="-7.5" font-family="FreeSans" font-size="10.00" fill="#000000">::breitWigner</text>
</a>
</g>
</g>
<!-- Node2&#45;&gt;Node9 -->
<g id="edge8" class="edge">
<title>Node2&#45;&gt;Node9</title>
<path fill="none" stroke="#191970" d="M297.2367,-428.3572C300.865,-368.1497 321.7628,-154.3743 438,-41.5 439.0902,-40.4413 440.2252,-39.4274 441.3993,-38.4565"/>
<polygon fill="#191970" stroke="#191970" points="443.4892,-41.2656 449.657,-32.6511 439.4633,-35.5391 443.4892,-41.2656"/>
</g>
<!-- Node10 -->
<g id="node10" class="node">
<title>Node10</title>
<g id="a_node10"><a xlink:href="../../d0/d4e/classphotonNucleusCrossSection.html#a1377cbf8c7b00c54592334118acc5987" target="_top" xlink:title="photonNucleusCrossSection\l::Q2arraylimits">
<polygon fill="none" stroke="#000000" points="438,-473.5 438,-505.5 595,-505.5 595,-473.5 438,-473.5"/>
<text text-anchor="start" x="446" y="-492.5" font-family="FreeSans" font-size="10.00" fill="#000000">photonNucleusCrossSection</text>
<text text-anchor="middle" x="516.5" y="-480.5" font-family="FreeSans" font-size="10.00" fill="#000000">::Q2arraylimits</text>
</a>
</g>
</g>
<!-- Node2&#45;&gt;Node10 -->
<g id="edge9" class="edge">
<title>Node2&#45;&gt;Node10</title>
<path fill="none" stroke="#191970" d="M374.9933,-460.5555C392.117,-464.058 410.3532,-467.7881 427.841,-471.3652"/>
<polygon fill="#191970" stroke="#191970" points="427.5384,-474.8757 438.037,-473.4507 428.9412,-468.0177 427.5384,-474.8757"/>
</g>
<!-- Node11 -->
<g id="node11" class="node">
<title>Node11</title>
<g id="a_node11"><a xlink:href="../../d0/d4e/classphotonNucleusCrossSection.html#ab561ea1d1a06d269a550d724591915e9" target="_top" xlink:title="photonNucleusCrossSection::g">
<polygon fill="none" stroke="#000000" points="631,-525.5 631,-545.5 801,-545.5 801,-525.5 631,-525.5"/>
<text text-anchor="middle" x="716" y="-532.5" font-family="FreeSans" font-size="10.00" fill="#000000">photonNucleusCrossSection::g</text>
</a>
</g>
</g>
<!-- Node2&#45;&gt;Node11 -->
<g id="edge43" class="edge">
<title>Node2&#45;&gt;Node11</title>
<path fill="none" stroke="#191970" d="M321.3503,-460.7863C348.6907,-477.7688 394.5389,-503.5448 438,-515.5 497.2811,-531.807 566.2001,-536.8535 620.5861,-537.8003"/>
<polygon fill="#191970" stroke="#191970" points="620.8693,-541.3042 630.9139,-537.9342 620.9601,-534.3048 620.8693,-541.3042"/>
</g>
<!-- Node27 -->
<g id="node27" class="node">
<title>Node27</title>
<g id="a_node27"><a xlink:href="../../d0/d4e/classphotonNucleusCrossSection.html#aef36e02c2010fd970db0c000b3b079b7" target="_top" xlink:title="photonNucleusCrossSection\l::integrated_Q2_dep">
<polygon fill="none" stroke="#000000" points="438,-563.5 438,-595.5 595,-595.5 595,-563.5 438,-563.5"/>
<text text-anchor="start" x="446" y="-582.5" font-family="FreeSans" font-size="10.00" fill="#000000">photonNucleusCrossSection</text>
<text text-anchor="middle" x="516.5" y="-570.5" font-family="FreeSans" font-size="10.00" fill="#000000">::integrated_Q2_dep</text>
</a>
</g>
</g>
<!-- Node2&#45;&gt;Node27 -->
<g id="edge37" class="edge">
<title>Node2&#45;&gt;Node27</title>
<path fill="none" stroke="#191970" d="M315.116,-460.641C341.2085,-482.6713 390.772,-522.3941 438,-548.5 445.1113,-552.4308 452.8251,-556.1133 460.5467,-559.4706"/>
<polygon fill="#191970" stroke="#191970" points="459.3534,-562.7653 469.9293,-563.3992 462.0571,-556.3085 459.3534,-562.7653"/>
</g>
<!-- Node31 -->
<g id="node31" class="node">
<title>Node31</title>
<g id="a_node31"><a xlink:href="../../d0/d4e/classphotonNucleusCrossSection.html#a6711e96b1e4a811e8771fb49bbe40e5e" target="_top" xlink:title="photonNucleusCrossSection\l::getcsgA">
<polygon fill="none" stroke="#000000" points="637.5,-345.5 637.5,-377.5 794.5,-377.5 794.5,-345.5 637.5,-345.5"/>
<text text-anchor="start" x="645.5" y="-364.5" font-family="FreeSans" font-size="10.00" fill="#000000">photonNucleusCrossSection</text>
<text text-anchor="middle" x="716" y="-352.5" font-family="FreeSans" font-size="10.00" fill="#000000">::getcsgA</text>
</a>
</g>
</g>
<!-- Node2&#45;&gt;Node31 -->
<g id="edge44" class="edge">
<title>Node2&#45;&gt;Node31</title>
<path fill="none" stroke="#191970" d="M377.3838,-428.4968C449.013,-414.3246 553.378,-393.6755 627.2766,-379.0543"/>
<polygon fill="#191970" stroke="#191970" points="628.3647,-382.407 637.4952,-377.0325 627.006,-375.5401 628.3647,-382.407"/>
</g>
<!-- Node10&#45;&gt;Node11 -->
<g id="edge10" class="edge">
<title>Node10&#45;&gt;Node11</title>
<path fill="none" stroke="#191970" d="M585.9954,-505.524C611.1846,-511.332 639.217,-517.7956 662.7834,-523.2295"/>
<polygon fill="#191970" stroke="#191970" points="662.0578,-526.654 672.5885,-525.4903 663.6306,-519.8329 662.0578,-526.654"/>
</g>
<!-- Node12 -->
<g id="node12" class="node">
<title>Node12</title>
<g id="a_node12"><a xlink:href="../../d0/d4e/classphotonNucleusCrossSection.html#a784942c17c3c7c68b7702e2488a5a780" target="_top" xlink:title="photonNucleusCrossSection\l::photonFlux">
<polygon fill="none" stroke="#000000" points="837,-670.5 837,-702.5 994,-702.5 994,-670.5 837,-670.5"/>
<text text-anchor="start" x="845" y="-689.5" font-family="FreeSans" font-size="10.00" fill="#000000">photonNucleusCrossSection</text>
<text text-anchor="middle" x="915.5" y="-677.5" font-family="FreeSans" font-size="10.00" fill="#000000">::photonFlux</text>
</a>
</g>
</g>
<!-- Node11&#45;&gt;Node12 -->
<g id="edge11" class="edge">
<title>Node11&#45;&gt;Node12</title>
<path fill="none" stroke="#191970" d="M729.3995,-545.642C761.3265,-569.8073 842.4874,-631.2373 886.334,-664.4244"/>
<polygon fill="#191970" stroke="#191970" points="884.2375,-667.2272 894.3234,-670.4716 888.4621,-661.6457 884.2375,-667.2272"/>
</g>
<!-- Node12&#45;&gt;Node4 -->
<g id="edge12" class="edge">
<title>Node12&#45;&gt;Node4</title>
<path fill="none" stroke="#191970" d="M929.5235,-670.2421C946.5418,-649.8879 975.2776,-613.4368 994,-578.5 1015.7205,-537.9687 1001.6688,-517.7203 1030,-481.5 1044.7546,-462.6369 1067.2311,-447.5633 1085.5745,-437.3745"/>
<polygon fill="#191970" stroke="#191970" points="1087.2851,-440.4289 1094.4607,-432.6339 1083.9902,-434.2528 1087.2851,-440.4289"/>
</g>
<!-- Node12&#45;&gt;Node5 -->
<g id="edge15" class="edge">
<title>Node12&#45;&gt;Node5</title>
<path fill="none" stroke="#191970" d="M985.7241,-702.528C1000.3524,-705.8438 1015.6762,-709.3003 1030,-712.5 1107.0689,-729.7159 1196.8918,-749.3603 1249.3991,-760.8014"/>
<polygon fill="#191970" stroke="#191970" points="1248.8723,-764.2686 1259.3882,-762.9771 1250.3621,-757.429 1248.8723,-764.2686"/>
</g>
<!-- Node12&#45;&gt;Node6 -->
<g id="edge16" class="edge">
<title>Node12&#45;&gt;Node6</title>
<path fill="none" stroke="#191970" d="M988.856,-670.4284C1073.7249,-651.7975 1202.06,-623.4943 1203,-622.5 1270.7647,-550.8221 1205.9565,-496.4403 1239,-403.5 1249.2385,-374.7024 1267.9975,-344.6159 1280.7296,-325.9679"/>
<polygon fill="#191970" stroke="#191970" points="1283.7461,-327.7613 1286.5967,-317.5571 1278.0049,-323.7564 1283.7461,-327.7613"/>
</g>
<!-- Node12&#45;&gt;Node7 -->
<g id="edge14" class="edge">
<title>Node12&#45;&gt;Node7</title>
<path fill="none" stroke="#191970" d="M930.7373,-670.3292C948.6915,-650.3464 978.0868,-614.5494 994,-578.5 1026.0669,-505.8564 1000.078,-477.0531 1030,-403.5 1048.4035,-358.2611 1082.2119,-311.6198 1101.6647,-286.7481"/>
<polygon fill="#191970" stroke="#191970" points="1104.6476,-288.62 1108.1269,-278.6127 1099.1664,-284.2661 1104.6476,-288.62"/>
</g>
<!-- Node13 -->
<g id="node13" class="node">
<title>Node13</title>
<g id="a_node13"><a xlink:href="../../d4/d51/classnucleus.html#a31aecce251b8d61c0e36b46ccd3730d7" target="_top" xlink:title="nucleus::nuclearRadius">
<polygon fill="none" stroke="#000000" points="1522,-563.5 1522,-583.5 1656,-583.5 1656,-563.5 1522,-563.5"/>
<text text-anchor="middle" x="1589" y="-570.5" font-family="FreeSans" font-size="10.00" fill="#000000">nucleus::nuclearRadius</text>
</a>
</g>
</g>
<!-- Node12&#45;&gt;Node13 -->
<g id="edge13" class="edge">
<title>Node12&#45;&gt;Node13</title>
<path fill="none" stroke="#191970" d="M916.5153,-702.8074C920.5471,-751.7718 939.9691,-897.8019 1030,-957.5 1070.0285,-984.0423 1425.7334,-982.2673 1467,-951.5 1527.0857,-906.7018 1573.0928,-665.4497 1585.6091,-593.6627"/>
<polygon fill="#191970" stroke="#191970" points="1589.0851,-594.1004 1587.3274,-583.6524 1582.186,-592.9161 1589.0851,-594.1004"/>
</g>
<!-- Node14 -->
<g id="node14" class="node">
<title>Node14</title>
<g id="a_node14"><a xlink:href="../../d0/d21/classbeam.html#ad3c0efadce37ff4ec3f953790d4aaee4" target="_top" xlink:title="calculates photon density (number of photons / (energy * area))">
<polygon fill="none" stroke="#000000" points="1053.5,-799.5 1053.5,-819.5 1179.5,-819.5 1179.5,-799.5 1053.5,-799.5"/>
<text text-anchor="middle" x="1116.5" y="-806.5" font-family="FreeSans" font-size="10.00" fill="#000000">beam::photonDensity</text>
</a>
</g>
</g>
<!-- Node12&#45;&gt;Node14 -->
<g id="edge17" class="edge">
<title>Node12&#45;&gt;Node14</title>
<path fill="none" stroke="#191970" d="M928.4272,-702.6902C947.8934,-725.9122 987.0534,-768.3159 1030,-790.5 1034.2988,-792.7205 1038.8478,-794.6823 1043.5205,-796.4152"/>
<polygon fill="#191970" stroke="#191970" points="1042.6515,-799.8149 1053.2452,-799.6608 1044.8676,-793.175 1042.6515,-799.8149"/>
</g>
<!-- Node15 -->
<g id="node15" class="node">
<title>Node15</title>
<g id="a_node15"><a xlink:href="../../d7/d46/namespacebessel.html#a6d6aa0ba08c052cec22f87399b0c27b1" target="_top" xlink:title="bessel::dbesk1">
<polygon fill="none" stroke="#000000" points="1248,-838.5 1248,-858.5 1340,-858.5 1340,-838.5 1248,-838.5"/>
<text text-anchor="middle" x="1294" y="-845.5" font-family="FreeSans" font-size="10.00" fill="#000000">bessel::dbesk1</text>
</a>
</g>
</g>
<!-- Node12&#45;&gt;Node15 -->
<g id="edge35" class="edge">
<title>Node12&#45;&gt;Node15</title>
<path fill="none" stroke="#191970" d="M922.7836,-702.5506C937.788,-733.4783 975.3793,-800.8039 1030,-829.5 1094.9116,-863.6026 1181.4719,-862.5739 1237.4736,-856.9599"/>
<polygon fill="#191970" stroke="#191970" points="1237.9983,-860.4236 1247.5626,-855.8657 1237.2435,-853.4644 1237.9983,-860.4236"/>
</g>
<!-- Node17 -->
<g id="node17" class="node">
<title>Node17</title>
<g id="a_node17"><a xlink:href="../../da/d23/msg__buffer_8cc.html#a98631211a4a8aee62f572375d5b637be" target="_top" xlink:title="printf">
<polygon fill="none" stroke="#000000" points="1094.5,-760.5 1094.5,-780.5 1138.5,-780.5 1138.5,-760.5 1094.5,-760.5"/>
<text text-anchor="middle" x="1116.5" y="-767.5" font-family="FreeSans" font-size="10.00" fill="#000000">printf</text>
</a>
</g>
</g>
<!-- Node12&#45;&gt;Node17 -->
<g id="edge21" class="edge">
<title>Node12&#45;&gt;Node17</title>
<path fill="none" stroke="#191970" d="M943.0212,-702.611C965.7832,-715.4595 999.2472,-733.2677 1030,-745.5 1047.6821,-752.5332 1068.1073,-758.5306 1084.6685,-762.8869"/>
<polygon fill="#191970" stroke="#191970" points="1083.8663,-766.2943 1094.4218,-765.3818 1085.6012,-759.5127 1083.8663,-766.2943"/>
</g>
<!-- Node18 -->
<g id="node18" class="node">
<title>Node18</title>
<g id="a_node18"><a xlink:href="../../d1/d21/classbeamBeamSystem.html#ac31d664ce09dda97e06c2cab564c1120" target="_top" xlink:title="beamBeamSystem::probability\lOfBreakup">
<polygon fill="none" stroke="#000000" points="1030,-670.5 1030,-702.5 1203,-702.5 1203,-670.5 1030,-670.5"/>
<text text-anchor="start" x="1038" y="-689.5" font-family="FreeSans" font-size="10.00" fill="#000000">beamBeamSystem::probability</text>
<text text-anchor="middle" x="1116.5" y="-677.5" font-family="FreeSans" font-size="10.00" fill="#000000">OfBreakup</text>
</a>
</g>
</g>
<!-- Node12&#45;&gt;Node18 -->
<g id="edge22" class="edge">
<title>Node12&#45;&gt;Node18</title>
<path fill="none" stroke="#191970" d="M994.0754,-686.5C1002.5433,-686.5 1011.2295,-686.5 1019.8774,-686.5"/>
<polygon fill="#191970" stroke="#191970" points="1019.9962,-690.0001 1029.9962,-686.5 1019.9962,-683.0001 1019.9962,-690.0001"/>
</g>
<!-- Node23 -->
<g id="node23" class="node">
<title>Node23</title>
<g id="a_node23"><a xlink:href="../../d0/d4e/classphotonNucleusCrossSection.html#a0e416c5e83c1a79d0cb2f4414230985b" target="_top" xlink:title="photonNucleusCrossSection\l::nepoint">
<polygon fill="none" stroke="#000000" points="1038,-915.5 1038,-947.5 1195,-947.5 1195,-915.5 1038,-915.5"/>
<text text-anchor="start" x="1046" y="-934.5" font-family="FreeSans" font-size="10.00" fill="#000000">photonNucleusCrossSection</text>
<text text-anchor="middle" x="1116.5" y="-922.5" font-family="FreeSans" font-size="10.00" fill="#000000">::nepoint</text>
</a>
</g>
</g>
<!-- Node12&#45;&gt;Node23 -->
<g id="edge31" class="edge">
<title>Node12&#45;&gt;Node23</title>
<path fill="none" stroke="#191970" d="M923.6362,-702.5023C940.5833,-734.918 982.0986,-809.7349 1030,-862.5 1046.0897,-880.2234 1067.0104,-897.0411 1084.247,-909.6356"/>
<polygon fill="#191970" stroke="#191970" points="1082.2092,-912.4812 1092.3753,-915.4646 1086.2885,-906.7926 1082.2092,-912.4812"/>
</g>
<!-- Node26 -->
<g id="node26" class="node">
<title>Node26</title>
<g id="a_node26"><a xlink:href="../../df/de8/cemc_8C.html#a72d4716092b469b4bc1d816359a90e14" target="_top" xlink:title="cos">
<polygon fill="none" stroke="#000000" points="1100,-541.5 1100,-561.5 1133,-561.5 1133,-541.5 1100,-541.5"/>
<text text-anchor="middle" x="1116.5" y="-548.5" font-family="FreeSans" font-size="10.00" fill="#000000">cos</text>
</a>
</g>
</g>
<!-- Node12&#45;&gt;Node26 -->
<g id="edge36" class="edge">
<title>Node12&#45;&gt;Node26</title>
<path fill="none" stroke="#191970" d="M926.8248,-670.3044C945.363,-645.0782 984.6913,-596.6893 1030,-571.5 1048.4945,-561.218 1072.0291,-556.2121 1089.8793,-553.7805"/>
<polygon fill="#191970" stroke="#191970" points="1090.3844,-557.2453 1099.9067,-552.6003 1089.5661,-550.2933 1090.3844,-557.2453"/>
</g>
<!-- Node14&#45;&gt;Node5 -->
<g id="edge20" class="edge">
<title>Node14&#45;&gt;Node5</title>
<path fill="none" stroke="#191970" d="M1162.2107,-799.4565C1189.08,-793.5528 1222.894,-786.1233 1249.543,-780.268"/>
<polygon fill="#191970" stroke="#191970" points="1250.3604,-783.672 1259.3763,-778.1075 1248.8581,-776.8351 1250.3604,-783.672"/>
</g>
<!-- Node14&#45;&gt;Node15 -->
<g id="edge18" class="edge">
<title>Node14&#45;&gt;Node15</title>
<path fill="none" stroke="#191970" d="M1162.2107,-819.5435C1185.5029,-824.6612 1214.0138,-830.9256 1238.552,-836.3171"/>
<polygon fill="#191970" stroke="#191970" points="1237.9261,-839.763 1248.4442,-838.4906 1239.4283,-832.926 1237.9261,-839.763"/>
</g>
<!-- Node16 -->
<g id="node16" class="node">
<title>Node16</title>
<g id="a_node16"><a xlink:href="../../d7/d46/namespacebessel.html#a7c6ce9404b6a5c90e4d2b3b3afe8b8e7" target="_top" xlink:title="bessel::besI1">
<polygon fill="none" stroke="#000000" points="1385,-838.5 1385,-858.5 1467,-858.5 1467,-838.5 1385,-838.5"/>
<text text-anchor="middle" x="1426" y="-845.5" font-family="FreeSans" font-size="10.00" fill="#000000">bessel::besI1</text>
</a>
</g>
</g>
<!-- Node15&#45;&gt;Node16 -->
<g id="edge19" class="edge">
<title>Node15&#45;&gt;Node16</title>
<path fill="none" stroke="#191970" d="M1340.1672,-848.5C1351.3237,-848.5 1363.3137,-848.5 1374.6902,-848.5"/>
<polygon fill="#191970" stroke="#191970" points="1374.9241,-852.0001 1384.9241,-848.5 1374.9241,-845.0001 1374.9241,-852.0001"/>
</g>
<!-- Node18&#45;&gt;Node5 -->
<g id="edge30" class="edge">
<title>Node18&#45;&gt;Node5</title>
<path fill="none" stroke="#191970" d="M1166.0787,-702.5072C1178.3248,-706.9396 1191.2859,-712.0458 1203,-717.5 1226.5705,-728.4746 1252.0356,-743.6116 1270.0166,-754.8998"/>
<polygon fill="#191970" stroke="#191970" points="1268.3704,-758.0005 1278.6877,-760.4095 1272.1246,-752.0923 1268.3704,-758.0005"/>
</g>
<!-- Node18&#45;&gt;Node6 -->
<g id="edge23" class="edge">
<title>Node18&#45;&gt;Node6</title>
<path fill="none" stroke="#191970" d="M1185.0141,-670.353C1191.8402,-666.431 1198.0589,-661.557 1203,-655.5 1274.5162,-567.8334 1202.2229,-510.4927 1239,-403.5 1248.9352,-374.5964 1267.7678,-344.5356 1280.5993,-325.9224"/>
<polygon fill="#191970" stroke="#191970" points="1283.6151,-327.719 1286.5172,-317.5293 1277.8941,-323.6852 1283.6151,-327.719"/>
</g>
<!-- Node18&#45;&gt;Node13 -->
<g id="edge24" class="edge">
<title>Node18&#45;&gt;Node13</title>
<path fill="none" stroke="#191970" d="M1183.4456,-670.4897C1278.7071,-647.7076 1451.34,-606.4219 1537.3735,-585.8466"/>
<polygon fill="#191970" stroke="#191970" points="1538.2637,-589.2326 1547.1753,-583.5025 1536.6355,-582.4245 1538.2637,-589.2326"/>
</g>
<!-- Node19 -->
<g id="node19" class="node">
<title>Node19</title>
<g id="a_node19"><a xlink:href="../../d4/d51/classnucleus.html#a5de922b3a6cc87a3eb1b421fc6f2d343" target="_top" xlink:title="nucleus::rho0">
<polygon fill="none" stroke="#000000" points="1251.5,-527.5 1251.5,-547.5 1336.5,-547.5 1336.5,-527.5 1251.5,-527.5"/>
<text text-anchor="middle" x="1294" y="-534.5" font-family="FreeSans" font-size="10.00" fill="#000000">nucleus::rho0</text>
</a>
</g>
</g>
<!-- Node18&#45;&gt;Node19 -->
<g id="edge25" class="edge">
<title>Node18&#45;&gt;Node19</title>
<path fill="none" stroke="#191970" d="M1175.5528,-670.4801C1185.2102,-666.4476 1194.7443,-661.5067 1203,-655.5 1240.099,-628.5075 1269.4684,-582.2847 1284.0137,-556.4289"/>
<polygon fill="#191970" stroke="#191970" points="1287.1156,-558.0515 1288.8477,-547.5992 1280.9755,-554.6899 1287.1156,-558.0515"/>
</g>
<!-- Node20 -->
<g id="node20" class="node">
<title>Node20</title>
<g id="a_node20"><a xlink:href="../../d4/d51/classnucleus.html#a625506ed8907970e3aea75ff925bfc9b" target="_top" xlink:title="nucleus::thickness">
<polygon fill="none" stroke="#000000" points="1239,-412.5 1239,-432.5 1349,-432.5 1349,-412.5 1239,-412.5"/>
<text text-anchor="middle" x="1294" y="-419.5" font-family="FreeSans" font-size="10.00" fill="#000000">nucleus::thickness</text>
</a>
</g>
</g>
<!-- Node18&#45;&gt;Node20 -->
<g id="edge26" class="edge">
<title>Node18&#45;&gt;Node20</title>
<path fill="none" stroke="#191970" d="M1183.0661,-670.4681C1190.4987,-666.5259 1197.3954,-661.6157 1203,-655.5 1245.535,-609.0863 1215.1455,-576.7616 1239,-518.5 1250.5807,-490.2155 1269.0134,-460.0042 1281.3063,-441.1884"/>
<polygon fill="#191970" stroke="#191970" points="1284.3324,-442.9584 1286.9486,-432.6917 1278.501,-439.086 1284.3324,-442.9584"/>
</g>
<!-- Node21 -->
<g id="node21" class="node">
<title>Node21</title>
<g id="a_node21"><a xlink:href="../../d4/d51/classnucleus.html#ad46c433008fa9451021f8614b126996a" target="_top" xlink:title="nucleus::rws">
<polygon fill="none" stroke="#000000" points="1386,-412.5 1386,-432.5 1466,-432.5 1466,-412.5 1386,-412.5"/>
<text text-anchor="middle" x="1426" y="-419.5" font-family="FreeSans" font-size="10.00" fill="#000000">nucleus::rws</text>
</a>
</g>
</g>
<!-- Node20&#45;&gt;Node21 -->
<g id="edge27" class="edge">
<title>Node20&#45;&gt;Node21</title>
<path fill="none" stroke="#191970" d="M1349.2151,-422.5C1358.0504,-422.5 1367.1507,-422.5 1375.8595,-422.5"/>
<polygon fill="#191970" stroke="#191970" points="1375.8637,-426.0001 1385.8636,-422.5 1375.8636,-419.0001 1375.8637,-426.0001"/>
</g>
<!-- Node21&#45;&gt;Node13 -->
<g id="edge28" class="edge">
<title>Node21&#45;&gt;Node13</title>
<path fill="none" stroke="#191970" d="M1444.6245,-432.5063C1451.8826,-436.746 1460.0982,-441.9808 1467,-447.5 1509.5166,-481.4995 1552.1526,-529.466 1574.0035,-555.3071"/>
<polygon fill="#191970" stroke="#191970" points="1571.4837,-557.7496 1580.5868,-563.1703 1576.8509,-553.256 1571.4837,-557.7496"/>
</g>
<!-- Node22 -->
<g id="node22" class="node">
<title>Node22</title>
<g id="a_node22"><a xlink:href="../../d4/d51/classnucleus.html#ab71f2da42e9f143940e727f7525076e2" target="_top" xlink:title="nucleus::woodSaxonSkinDepth">
<polygon fill="none" stroke="#000000" points="1503,-412.5 1503,-432.5 1675,-432.5 1675,-412.5 1503,-412.5"/>
<text text-anchor="middle" x="1589" y="-419.5" font-family="FreeSans" font-size="10.00" fill="#000000">nucleus::woodSaxonSkinDepth</text>
</a>
</g>
</g>
<!-- Node21&#45;&gt;Node22 -->
<g id="edge29" class="edge">
<title>Node21&#45;&gt;Node22</title>
<path fill="none" stroke="#191970" d="M1466.2921,-422.5C1474.5309,-422.5 1483.5321,-422.5 1492.7954,-422.5"/>
<polygon fill="#191970" stroke="#191970" points="1492.9264,-426.0001 1502.9263,-422.5 1492.9263,-419.0001 1492.9264,-426.0001"/>
</g>
<!-- Node23&#45;&gt;Node15 -->
<g id="edge32" class="edge">
<title>Node23&#45;&gt;Node15</title>
<path fill="none" stroke="#191970" d="M1166.0473,-915.425C1178.2942,-910.9943 1191.2635,-905.9058 1203,-900.5 1226.3627,-889.7391 1251.671,-875.007 1269.6528,-863.9704"/>
<polygon fill="#191970" stroke="#191970" points="1271.6901,-866.8253 1278.3391,-858.5765 1267.9974,-860.8785 1271.6901,-866.8253"/>
</g>
<!-- Node24 -->
<g id="node24" class="node">
<title>Node24</title>
<g id="a_node24"><a xlink:href="../../d7/d46/namespacebessel.html#adfc2089c0305158d138ec0e7229d3c9b" target="_top" xlink:title="bessel::dbesk0">
<polygon fill="none" stroke="#000000" points="1248,-921.5 1248,-941.5 1340,-941.5 1340,-921.5 1248,-921.5"/>
<text text-anchor="middle" x="1294" y="-928.5" font-family="FreeSans" font-size="10.00" fill="#000000">bessel::dbesk0</text>
</a>
</g>
</g>
<!-- Node23&#45;&gt;Node24 -->
<g id="edge33" class="edge">
<title>Node23&#45;&gt;Node24</title>
<path fill="none" stroke="#191970" d="M1195.1292,-931.5C1209.4648,-931.5 1224.1573,-931.5 1237.6841,-931.5"/>
<polygon fill="#191970" stroke="#191970" points="1237.7758,-935.0001 1247.7758,-931.5 1237.7758,-928.0001 1237.7758,-935.0001"/>
</g>
<!-- Node25 -->
<g id="node25" class="node">
<title>Node25</title>
<g id="a_node25"><a xlink:href="../../d7/d46/namespacebessel.html#a3fb6956cd24162fed2e5f4e25dea2945" target="_top" xlink:title="bessel::besI0">
<polygon fill="none" stroke="#000000" points="1385,-921.5 1385,-941.5 1467,-941.5 1467,-921.5 1385,-921.5"/>
<text text-anchor="middle" x="1426" y="-928.5" font-family="FreeSans" font-size="10.00" fill="#000000">bessel::besI0</text>
</a>
</g>
</g>
<!-- Node24&#45;&gt;Node25 -->
<g id="edge34" class="edge">
<title>Node24&#45;&gt;Node25</title>
<path fill="none" stroke="#191970" d="M1340.1672,-931.5C1351.3237,-931.5 1363.3137,-931.5 1374.6902,-931.5"/>
<polygon fill="#191970" stroke="#191970" points="1374.9241,-935.0001 1384.9241,-931.5 1374.9241,-928.0001 1374.9241,-935.0001"/>
</g>
<!-- Node27&#45;&gt;Node11 -->
<g id="edge38" class="edge">
<title>Node27&#45;&gt;Node11</title>
<path fill="none" stroke="#191970" d="M589.0884,-563.4905C612.6621,-558.2913 638.4266,-552.6089 660.545,-547.7307"/>
<polygon fill="#191970" stroke="#191970" points="661.4185,-551.1222 670.43,-545.5505 659.9108,-544.2865 661.4185,-551.1222"/>
</g>
<!-- Node27&#45;&gt;Node12 -->
<g id="edge39" class="edge">
<title>Node27&#45;&gt;Node12</title>
<path fill="none" stroke="#191970" d="M576.2343,-595.519C648.3259,-614.8518 769.3508,-647.3071 845.6814,-667.7767"/>
<polygon fill="#191970" stroke="#191970" points="845.1186,-671.2494 855.6839,-670.4591 846.9318,-664.4883 845.1186,-671.2494"/>
</g>
<!-- Node28 -->
<g id="node28" class="node">
<title>Node28</title>
<g id="a_node28"><a xlink:href="../../d0/d4e/classphotonNucleusCrossSection.html#a5326d5e72d4f918502a155baeb947005" target="_top" xlink:title="photonNucleusCrossSection\l::getcsgA_Q2_dep">
<polygon fill="none" stroke="#000000" points="837,-536.5 837,-568.5 994,-568.5 994,-536.5 837,-536.5"/>
<text text-anchor="start" x="845" y="-555.5" font-family="FreeSans" font-size="10.00" fill="#000000">photonNucleusCrossSection</text>
<text text-anchor="middle" x="915.5" y="-543.5" font-family="FreeSans" font-size="10.00" fill="#000000">::getcsgA_Q2_dep</text>
</a>
</g>
</g>
<!-- Node27&#45;&gt;Node28 -->
<g id="edge40" class="edge">
<title>Node27&#45;&gt;Node28</title>
<path fill="none" stroke="#191970" d="M595.3296,-574.1657C662.0008,-569.6541 757.4732,-563.1935 826.8016,-558.5021"/>
<polygon fill="#191970" stroke="#191970" points="827.0934,-561.9905 836.8342,-557.8232 826.6207,-555.0065 827.0934,-561.9905"/>
</g>
<!-- Node29 -->
<g id="node29" class="node">
<title>Node29</title>
<g id="a_node29"><a xlink:href="../../d0/d4e/classphotonNucleusCrossSection.html#a659587c43f9f26f8499056d0f91d774f" target="_top" xlink:title="returns mass of the produced system [GeV/c^2]">
<polygon fill="none" stroke="#000000" points="1038,-490.5 1038,-522.5 1195,-522.5 1195,-490.5 1038,-490.5"/>
<text text-anchor="start" x="1046" y="-509.5" font-family="FreeSans" font-size="10.00" fill="#000000">photonNucleusCrossSection</text>
<text text-anchor="middle" x="1116.5" y="-497.5" font-family="FreeSans" font-size="10.00" fill="#000000">::getChannelMass</text>
</a>
</g>
</g>
<!-- Node28&#45;&gt;Node29 -->
<g id="edge41" class="edge">
<title>Node28&#45;&gt;Node29</title>
<path fill="none" stroke="#191970" d="M985.5179,-536.476C1001.9974,-532.7046 1019.6847,-528.6567 1036.5635,-524.7939"/>
<polygon fill="#191970" stroke="#191970" points="1037.4257,-528.1872 1046.3929,-522.5444 1035.864,-521.3636 1037.4257,-528.1872"/>
</g>
<!-- Node30 -->
<g id="node30" class="node">
<title>Node30</title>
<g id="a_node30"><a xlink:href="../../d0/d4e/classphotonNucleusCrossSection.html#ab4e4d4f1e612c2c8ebce68c44fda7abc" target="_top" xlink:title="photonNucleusCrossSection\l::vmQ2Power">
<polygon fill="none" stroke="#000000" points="1038,-580.5 1038,-612.5 1195,-612.5 1195,-580.5 1038,-580.5"/>
<text text-anchor="start" x="1046" y="-599.5" font-family="FreeSans" font-size="10.00" fill="#000000">photonNucleusCrossSection</text>
<text text-anchor="middle" x="1116.5" y="-587.5" font-family="FreeSans" font-size="10.00" fill="#000000">::vmQ2Power</text>
</a>
</g>
</g>
<!-- Node28&#45;&gt;Node30 -->
<g id="edge42" class="edge">
<title>Node28&#45;&gt;Node30</title>
<path fill="none" stroke="#191970" d="M988.6342,-568.5095C1003.044,-571.6639 1018.2663,-574.9961 1032.9878,-578.2187"/>
<polygon fill="#191970" stroke="#191970" points="1032.5662,-581.7093 1043.0834,-580.4287 1034.0632,-574.8712 1032.5662,-581.7093"/>
</g>
<!-- Node31&#45;&gt;Node4 -->
<g id="edge45" class="edge">
<title>Node31&#45;&gt;Node4</title>
<path fill="none" stroke="#191970" d="M785.5431,-377.5269C802.3358,-381.0965 820.265,-384.6598 837,-387.5 901.2251,-398.4002 974.2894,-407.4333 1029.6042,-413.591"/>
<polygon fill="#191970" stroke="#191970" points="1029.3964,-417.0892 1039.72,-414.7071 1030.1642,-410.1314 1029.3964,-417.0892"/>
</g>
<!-- Node31&#45;&gt;Node6 -->
<g id="edge46" class="edge">
<title>Node31&#45;&gt;Node6</title>
<path fill="none" stroke="#191970" d="M741.0282,-345.3204C764.8691,-330.53 802.1853,-308.9677 837,-295.5 919.3385,-263.6482 942.3443,-259.0194 1030,-248.5 1106.3411,-239.3385 1129.2693,-226.6898 1203,-248.5 1230.774,-256.7158 1258.0271,-276.3611 1275.3569,-290.7337"/>
<polygon fill="#191970" stroke="#191970" points="1273.1514,-293.4529 1283.026,-297.2926 1277.7011,-288.1331 1273.1514,-293.4529"/>
</g>
<!-- Node31&#45;&gt;Node7 -->
<g id="edge47" class="edge">
<title>Node31&#45;&gt;Node7</title>
<path fill="none" stroke="#191970" d="M785.3046,-345.4068C864.2584,-327.0729 991.5742,-297.509 1063.1729,-280.8831"/>
<polygon fill="#191970" stroke="#191970" points="1064.3709,-284.1981 1073.32,-278.5268 1062.7875,-277.3795 1064.3709,-284.1981"/>
</g>
<!-- Node31&#45;&gt;Node28 -->
<g id="edge48" class="edge">
<title>Node31&#45;&gt;Node28</title>
<path fill="none" stroke="#191970" d="M727.3152,-377.8179C747.2447,-405.7945 790.8839,-463.7373 837,-503.5 848.8631,-513.7287 863.0766,-523.2737 876.1293,-531.172"/>
<polygon fill="#191970" stroke="#191970" points="874.5454,-534.3011 884.9372,-536.3651 878.1007,-528.2712 874.5454,-534.3011"/>
</g>
<!-- Node32 -->
<g id="node32" class="node">
<title>Node32</title>
<g id="a_node32"><a xlink:href="../../d0/d4e/classphotonNucleusCrossSection.html#a5ae3b27a780b0456689f2d3134f0478e" target="_top" xlink:title="photonNucleusCrossSection\l::sigmagp">
<polygon fill="none" stroke="#000000" points="1038,-163.5 1038,-195.5 1195,-195.5 1195,-163.5 1038,-163.5"/>
<text text-anchor="start" x="1046" y="-182.5" font-family="FreeSans" font-size="10.00" fill="#000000">photonNucleusCrossSection</text>
<text text-anchor="middle" x="1116.5" y="-170.5" font-family="FreeSans" font-size="10.00" fill="#000000">::sigmagp</text>
</a>
</g>
</g>
<!-- Node31&#45;&gt;Node32 -->
<g id="edge49" class="edge">
<title>Node31&#45;&gt;Node32</title>
<path fill="none" stroke="#191970" d="M731.7856,-345.4806C753.6147,-324.1677 795.0898,-286.6121 837,-264.5 897.1961,-232.7402 971.0837,-210.9208 1027.7683,-197.3473"/>
<polygon fill="#191970" stroke="#191970" points="1028.8528,-200.6878 1037.7859,-194.9912 1027.2501,-193.8738 1028.8528,-200.6878"/>
</g>
<!-- Node33 -->
<g id="node33" class="node">
<title>Node33</title>
<g id="a_node33"><a xlink:href="../../d0/d4e/classphotonNucleusCrossSection.html#af3782ac63a9a7b85b7d3fb25e4e98a9d" target="_top" xlink:title="photonNucleusCrossSection\l::sigma_N">
<polygon fill="none" stroke="#000000" points="837,-141.5 837,-173.5 994,-173.5 994,-141.5 837,-141.5"/>
<text text-anchor="start" x="845" y="-160.5" font-family="FreeSans" font-size="10.00" fill="#000000">photonNucleusCrossSection</text>
<text text-anchor="middle" x="915.5" y="-148.5" font-family="FreeSans" font-size="10.00" fill="#000000">::sigma_N</text>
</a>
</g>
</g>
<!-- Node31&#45;&gt;Node33 -->
<g id="edge50" class="edge">
<title>Node31&#45;&gt;Node33</title>
<path fill="none" stroke="#191970" d="M723.288,-345.2978C739.2239,-311.5696 780.3275,-233.2408 837,-188.5 841.9058,-184.6271 847.3562,-181.1841 853.0335,-178.1354"/>
<polygon fill="#191970" stroke="#191970" points="854.677,-181.2274 862.0961,-173.6639 851.5796,-174.9499 854.677,-181.2274"/>
</g>
<!-- Node34 -->
<g id="node34" class="node">
<title>Node34</title>
<g id="a_node34"><a xlink:href="../../d0/d4e/classphotonNucleusCrossSection.html#a33271d9aa28799df992ea7939ba1909c" target="_top" xlink:title="photonNucleusCrossSection\l::sigma_A">
<polygon fill="none" stroke="#000000" points="837,-345.5 837,-377.5 994,-377.5 994,-345.5 837,-345.5"/>
<text text-anchor="start" x="845" y="-364.5" font-family="FreeSans" font-size="10.00" fill="#000000">photonNucleusCrossSection</text>
<text text-anchor="middle" x="915.5" y="-352.5" font-family="FreeSans" font-size="10.00" fill="#000000">::sigma_A</text>
</a>
</g>
</g>
<!-- Node31&#45;&gt;Node34 -->
<g id="edge52" class="edge">
<title>Node31&#45;&gt;Node34</title>
<path fill="none" stroke="#191970" d="M794.5613,-361.5C805.0554,-361.5 815.8775,-361.5 826.5335,-361.5"/>
<polygon fill="#191970" stroke="#191970" points="826.6831,-365.0001 836.6831,-361.5 826.6831,-358.0001 826.6831,-365.0001"/>
</g>
<!-- Node35 -->
<g id="node35" class="node">
<title>Node35</title>
<g id="a_node35"><a xlink:href="../../d4/d51/classnucleus.html#a44010f806c36731bf2e1daee89f27738" target="_top" xlink:title="nucleus::formFactor">
<polygon fill="none" stroke="#000000" points="857,-473.5 857,-493.5 974,-493.5 974,-473.5 857,-473.5"/>
<text text-anchor="middle" x="915.5" y="-480.5" font-family="FreeSans" font-size="10.00" fill="#000000">nucleus::formFactor</text>
</a>
</g>
</g>
<!-- Node31&#45;&gt;Node35 -->
<g id="edge58" class="edge">
<title>Node31&#45;&gt;Node35</title>
<path fill="none" stroke="#191970" d="M742.4921,-377.7007C781.0881,-401.3032 852.2955,-444.8486 890.2044,-468.031"/>
<polygon fill="#191970" stroke="#191970" points="888.7274,-471.2303 899.0847,-473.4615 892.3794,-465.2585 888.7274,-471.2303"/>
</g>
<!-- Node33&#45;&gt;Node32 -->
<g id="edge51" class="edge">
<title>Node33&#45;&gt;Node32</title>
<path fill="none" stroke="#191970" d="M994.0754,-166.1003C1005.1188,-167.309 1016.5334,-168.5584 1027.7501,-169.7861"/>
<polygon fill="#191970" stroke="#191970" points="1027.6577,-173.2968 1037.9792,-170.9057 1028.4194,-166.3383 1027.6577,-173.2968"/>
</g>
<!-- Node34&#45;&gt;Node4 -->
<g id="edge53" class="edge">
<title>Node34&#45;&gt;Node4</title>
<path fill="none" stroke="#191970" d="M965.5838,-377.5244C985.5878,-383.8521 1008.8532,-391.1206 1030,-397.5 1043.357,-401.5294 1057.9143,-405.7879 1071.2114,-409.6259"/>
<polygon fill="#191970" stroke="#191970" points="1070.5156,-413.0676 1081.0934,-412.4682 1072.4505,-406.3403 1070.5156,-413.0676"/>
</g>
<!-- Node34&#45;&gt;Node6 -->
<g id="edge54" class="edge">
<title>Node34&#45;&gt;Node6</title>
<path fill="none" stroke="#191970" d="M969.2627,-345.4513C988.2977,-340.2931 1009.9613,-335.0111 1030,-331.5 1106.2848,-318.1338 1196.3545,-311.9695 1249.1229,-309.3145"/>
<polygon fill="#191970" stroke="#191970" points="1249.3448,-312.8079 1259.1641,-308.8291 1249.0068,-305.8161 1249.3448,-312.8079"/>
</g>
<!-- Node34&#45;&gt;Node7 -->
<g id="edge55" class="edge">
<title>Node34&#45;&gt;Node7</title>
<path fill="none" stroke="#191970" d="M965.6696,-345.3664C975.4476,-341.22 985.3415,-336.2673 994,-330.5 1013.0955,-317.7807 1010.3235,-305.3006 1030,-293.5 1037.876,-288.7765 1046.6927,-284.9044 1055.6035,-281.7416"/>
<polygon fill="#191970" stroke="#191970" points="1056.8523,-285.0157 1065.2696,-278.5813 1054.677,-278.3622 1056.8523,-285.0157"/>
</g>
<!-- Node34&#45;&gt;Node19 -->
<g id="edge56" class="edge">
<title>Node34&#45;&gt;Node19</title>
<path fill="none" stroke="#191970" d="M994.1373,-369.7004C1073.1012,-378.4578 1185.5269,-392.5539 1203,-403.5 1225.6661,-417.6994 1264.892,-484.7828 1283.5532,-518.3186"/>
<polygon fill="#191970" stroke="#191970" points="1280.549,-520.119 1288.4426,-527.186 1286.679,-516.7389 1280.549,-520.119"/>
</g>
<!-- Node34&#45;&gt;Node20 -->
<g id="edge57" class="edge">
<title>Node34&#45;&gt;Node20</title>
<path fill="none" stroke="#191970" d="M994.2665,-353.343C1052.9552,-349.7294 1134.4503,-349.9659 1203,-369.5 1229.0529,-376.9241 1255.4326,-393.5094 1273.033,-406.1638"/>
<polygon fill="#191970" stroke="#191970" points="1271.2696,-409.2133 1281.3883,-412.3536 1275.4365,-403.5886 1271.2696,-409.2133"/>
</g>
<!-- Node35&#45;&gt;Node13 -->
<g id="edge60" class="edge">
<title>Node35&#45;&gt;Node13</title>
<path fill="none" stroke="#191970" d="M974.0406,-482.2806C991.9945,-481.9597 1011.8091,-481.6589 1030,-481.5 1106.886,-480.8286 1126.6367,-472.5254 1203,-481.5 1331.1434,-496.5601 1478.3888,-538.826 1548.1994,-560.4296"/>
<polygon fill="#191970" stroke="#191970" points="1547.3374,-563.8269 1557.9259,-563.4614 1549.4205,-557.144 1547.3374,-563.8269"/>
</g>
<!-- Node35&#45;&gt;Node26 -->
<g id="edge59" class="edge">
<title>Node35&#45;&gt;Node26</title>
<path fill="none" stroke="#191970" d="M935.7399,-493.5434C958.2817,-504.3999 996.027,-521.6066 1030,-532.5 1049.7632,-538.8371 1072.7342,-543.7738 1090.0354,-547.0251"/>
<polygon fill="#191970" stroke="#191970" points="1089.5321,-550.4908 1099.9958,-548.8291 1090.7797,-543.6028 1089.5321,-550.4908"/>
</g>
</g>
</svg>
