<?xml version="1.0" encoding="UTF-8" standalone="no"?>
<!DOCTYPE svg PUBLIC "-//W3C//DTD SVG 1.1//EN"
 "http://www.w3.org/Graphics/SVG/1.1/DTD/svg11.dtd">
<!-- Generated by graphviz version 2.40.1 (20161225.0304)
 -->
<!-- Title: PHG4DetectorGroupSubsystem::set_int_param Pages: 1 -->
<svg width="567pt" height="272pt"
 viewBox="0.00 0.00 567.00 272.00" xmlns="http://www.w3.org/2000/svg" xmlns:xlink="http://www.w3.org/1999/xlink">
<g id="graph0" class="graph" transform="scale(1 1) rotate(0) translate(4 268)">
<title>PHG4DetectorGroupSubsystem::set_int_param</title>
<!-- Node1 -->
<g id="node1" class="node">
<title>Node1</title>
<polygon fill="#bfbfbf" stroke="#000000" points="0,-118.5 0,-150.5 175,-150.5 175,-118.5 0,-118.5"/>
<text text-anchor="start" x="8" y="-137.5" font-family="FreeSans" font-size="10.00" fill="#000000">PHG4DetectorGroupSubsystem</text>
<text text-anchor="middle" x="87.5" y="-125.5" font-family="FreeSans" font-size="10.00" fill="#000000">::set_int_param</text>
</g>
<!-- Node2 -->
<g id="node2" class="node">
<title>Node2</title>
<g id="a_node2"><a xlink:href="../../d7/d7f/classPHG4DetectorGroupSubsystem.html#adf8befda8cba06e03d9f37c7a38ec758" target="_top" xlink:title="PHG4DetectorGroupSubsystem\l::BlackHole">
<polygon fill="none" stroke="#000000" points="211,-231.5 211,-263.5 386,-263.5 386,-231.5 211,-231.5"/>
<text text-anchor="start" x="219" y="-250.5" font-family="FreeSans" font-size="10.00" fill="#000000">PHG4DetectorGroupSubsystem</text>
<text text-anchor="middle" x="298.5" y="-238.5" font-family="FreeSans" font-size="10.00" fill="#000000">::BlackHole</text>
</a>
</g>
</g>
<!-- Node1&#45;&gt;Node2 -->
<g id="edge1" class="edge">
<title>Node1&#45;&gt;Node2</title>
<path fill="none" stroke="#191970" d="M116.4596,-156.7018C140.7329,-174.5654 176.8118,-199.4203 211,-216.5 222.1012,-222.0459 234.4404,-227.0602 246.2686,-231.3609"/>
<polygon fill="#191970" stroke="#191970" points="118.5014,-153.8584 108.3886,-150.6989 114.3238,-159.4753 118.5014,-153.8584"/>
</g>
<!-- Node3 -->
<g id="node3" class="node">
<title>Node3</title>
<g id="a_node3"><a xlink:href="../../d6/d9e/G4__Intt_8C.html#ac639c916e2ac501f6148387ae99431a4" target="_top" xlink:title="Intt">
<polygon fill="none" stroke="#000000" points="425.5,-189.5 425.5,-209.5 459.5,-209.5 459.5,-189.5 425.5,-189.5"/>
<text text-anchor="middle" x="442.5" y="-196.5" font-family="FreeSans" font-size="10.00" fill="#000000">Intt</text>
</a>
</g>
</g>
<!-- Node1&#45;&gt;Node3 -->
<g id="edge2" class="edge">
<title>Node1&#45;&gt;Node3</title>
<path fill="none" stroke="#191970" d="M129.195,-154.7828C152.6613,-165.2347 182.8277,-177.1007 211,-183.5 289.5722,-201.3475 386.6717,-201.0739 425.393,-200.1002"/>
<polygon fill="#191970" stroke="#191970" points="130.4523,-151.5097 119.9,-150.5611 127.5575,-157.8832 130.4523,-151.5097"/>
</g>
<!-- Node5 -->
<g id="node5" class="node">
<title>Node5</title>
<g id="a_node5"><a xlink:href="../../d8/d33/G4__Mvtx__EIC_8C.html#a8e3527137c79a963bfb4527446a21990" target="_top" xlink:title="Mvtx">
<polygon fill="none" stroke="#000000" points="422,-105.5 422,-125.5 463,-125.5 463,-105.5 422,-105.5"/>
<text text-anchor="middle" x="442.5" y="-112.5" font-family="FreeSans" font-size="10.00" fill="#000000">Mvtx</text>
</a>
</g>
</g>
<!-- Node1&#45;&gt;Node5 -->
<g id="edge4" class="edge">
<title>Node1&#45;&gt;Node5</title>
<path fill="none" stroke="#191970" d="M185.553,-129.2521C267.0913,-124.8881 376.8113,-119.0157 421.8732,-116.604"/>
<polygon fill="#191970" stroke="#191970" points="185.0515,-125.7738 175.2528,-129.8034 185.4256,-132.7638 185.0515,-125.7738"/>
</g>
<!-- Node7 -->
<g id="node7" class="node">
<title>Node7</title>
<g id="a_node7"><a xlink:href="../../d7/d7f/classPHG4DetectorGroupSubsystem.html#a74872175f2d652da1c50b5c29c461765" target="_top" xlink:title="PHG4DetectorGroupSubsystem\l::SetAbsorberActive">
<polygon fill="none" stroke="#000000" points="211,-51.5 211,-83.5 386,-83.5 386,-51.5 211,-51.5"/>
<text text-anchor="start" x="219" y="-70.5" font-family="FreeSans" font-size="10.00" fill="#000000">PHG4DetectorGroupSubsystem</text>
<text text-anchor="middle" x="298.5" y="-58.5" font-family="FreeSans" font-size="10.00" fill="#000000">::SetAbsorberActive</text>
</a>
</g>
</g>
<!-- Node1&#45;&gt;Node7 -->
<g id="edge6" class="edge">
<title>Node1&#45;&gt;Node7</title>
<path fill="none" stroke="#191970" d="M147.6511,-115.3999C179.3738,-105.3268 217.8526,-93.1084 248.0074,-83.5332"/>
<polygon fill="#191970" stroke="#191970" points="146.5115,-112.0895 138.0398,-118.4518 148.6301,-118.7612 146.5115,-112.0895"/>
</g>
<!-- Node8 -->
<g id="node8" class="node">
<title>Node8</title>
<g id="a_node8"><a xlink:href="../../d7/d7f/classPHG4DetectorGroupSubsystem.html#a6a39eae5211c98d0c749e816838c6a5e" target="_top" xlink:title="PHG4DetectorGroupSubsystem\l::SetAbsorberTruth">
<polygon fill="none" stroke="#000000" points="211,-.5 211,-32.5 386,-32.5 386,-.5 211,-.5"/>
<text text-anchor="start" x="219" y="-19.5" font-family="FreeSans" font-size="10.00" fill="#000000">PHG4DetectorGroupSubsystem</text>
<text text-anchor="middle" x="298.5" y="-7.5" font-family="FreeSans" font-size="10.00" fill="#000000">::SetAbsorberTruth</text>
</a>
</g>
</g>
<!-- Node1&#45;&gt;Node8 -->
<g id="edge7" class="edge">
<title>Node1&#45;&gt;Node8</title>
<path fill="none" stroke="#191970" d="M112.0034,-111.6877C135.6972,-90.7397 173.4375,-60.1979 211,-41.5 217.7889,-38.1206 225.1081,-35.1296 232.5201,-32.5001"/>
<polygon fill="#191970" stroke="#191970" points="109.6347,-109.1107 104.5272,-118.3931 114.3085,-114.3218 109.6347,-109.1107"/>
</g>
<!-- Node9 -->
<g id="node9" class="node">
<title>Node9</title>
<g id="a_node9"><a xlink:href="../../d7/d7f/classPHG4DetectorGroupSubsystem.html#a733a9f71c522dd7376ac44867b3d65fe" target="_top" xlink:title="PHG4DetectorGroupSubsystem\l::SetActive">
<polygon fill="none" stroke="#000000" points="211,-141.5 211,-173.5 386,-173.5 386,-141.5 211,-141.5"/>
<text text-anchor="start" x="219" y="-160.5" font-family="FreeSans" font-size="10.00" fill="#000000">PHG4DetectorGroupSubsystem</text>
<text text-anchor="middle" x="298.5" y="-148.5" font-family="FreeSans" font-size="10.00" fill="#000000">::SetActive</text>
</a>
</g>
</g>
<!-- Node1&#45;&gt;Node9 -->
<g id="edge8" class="edge">
<title>Node1&#45;&gt;Node9</title>
<path fill="none" stroke="#191970" d="M185.1445,-145.1437C193.697,-146.076 202.3188,-147.0158 210.7833,-147.9385"/>
<polygon fill="#191970" stroke="#191970" points="185.4703,-141.6586 175.1499,-144.0543 184.7117,-148.6174 185.4703,-141.6586"/>
</g>
<!-- Node4 -->
<g id="node4" class="node">
<title>Node4</title>
<g id="a_node4"><a xlink:href="../../d6/d41/G4Setup__fsPHENIX_8C.html#a6b34584f88221280e9b276471822bd06" target="_top" xlink:title="G4Setup">
<polygon fill="none" stroke="#000000" points="499,-189.5 499,-209.5 559,-209.5 559,-189.5 499,-189.5"/>
<text text-anchor="middle" x="529" y="-196.5" font-family="FreeSans" font-size="10.00" fill="#000000">G4Setup</text>
</a>
</g>
</g>
<!-- Node3&#45;&gt;Node4 -->
<g id="edge3" class="edge">
<title>Node3&#45;&gt;Node4</title>
<path fill="none" stroke="#191970" d="M469.831,-199.5C479.105,-199.5 489.5138,-199.5 498.9855,-199.5"/>
<polygon fill="#191970" stroke="#191970" points="469.5897,-196.0001 459.5896,-199.5 469.5896,-203.0001 469.5897,-196.0001"/>
</g>
<!-- Node6 -->
<g id="node6" class="node">
<title>Node6</title>
<g id="a_node6"><a xlink:href="../../d3/d35/fun4all__eicmacros_2blob_2master_2detectors_2EICDetector_2G4Setup__EICDetector_8C.html#a6b34584f88221280e9b276471822bd06" target="_top" xlink:title="G4Setup">
<polygon fill="none" stroke="#000000" points="499,-105.5 499,-125.5 559,-125.5 559,-105.5 499,-105.5"/>
<text text-anchor="middle" x="529" y="-112.5" font-family="FreeSans" font-size="10.00" fill="#000000">G4Setup</text>
</a>
</g>
</g>
<!-- Node5&#45;&gt;Node6 -->
<g id="edge5" class="edge">
<title>Node5&#45;&gt;Node6</title>
<path fill="none" stroke="#191970" d="M473.7049,-115.5C481.8695,-115.5 490.6564,-115.5 498.7693,-115.5"/>
<polygon fill="#191970" stroke="#191970" points="473.4393,-112.0001 463.4392,-115.5 473.4392,-119.0001 473.4393,-112.0001"/>
</g>
<!-- Node9&#45;&gt;Node3 -->
<g id="edge12" class="edge">
<title>Node9&#45;&gt;Node3</title>
<path fill="none" stroke="#191970" d="M363.4519,-176.4443C386.26,-183.0967 410.0206,-190.0268 425.4603,-194.5301"/>
<polygon fill="#191970" stroke="#191970" points="364.3424,-173.0582 353.7623,-173.6182 362.3823,-179.7783 364.3424,-173.0582"/>
</g>
<!-- Node9&#45;&gt;Node5 -->
<g id="edge9" class="edge">
<title>Node9&#45;&gt;Node5</title>
<path fill="none" stroke="#191970" d="M363.6378,-138.5015C384.6077,-132.3852 406.3611,-126.0405 421.6958,-121.5679"/>
<polygon fill="#191970" stroke="#191970" points="362.3823,-135.2217 353.7623,-141.3818 364.3424,-141.9418 362.3823,-135.2217"/>
</g>
<!-- Node10 -->
<g id="node10" class="node">
<title>Node10</title>
<g id="a_node10"><a xlink:href="../../d1/ddd/G4__VTX__JLeic_8C.html#a251a27689a67b7b701f0bb38f7d0ce84" target="_top" xlink:title="VTX">
<polygon fill="none" stroke="#000000" points="424,-147.5 424,-167.5 461,-167.5 461,-147.5 424,-147.5"/>
<text text-anchor="middle" x="442.5" y="-154.5" font-family="FreeSans" font-size="10.00" fill="#000000">VTX</text>
</a>
</g>
</g>
<!-- Node9&#45;&gt;Node10 -->
<g id="edge10" class="edge">
<title>Node9&#45;&gt;Node10</title>
<path fill="none" stroke="#191970" d="M396.0901,-157.5C406.3911,-157.5 415.8887,-157.5 423.5728,-157.5"/>
<polygon fill="#191970" stroke="#191970" points="396.0007,-154.0001 386.0007,-157.5 396.0007,-161.0001 396.0007,-154.0001"/>
</g>
<!-- Node11 -->
<g id="node11" class="node">
<title>Node11</title>
<g id="a_node11"><a xlink:href="../../d0/dd0/G4Setup__JLeic_8C.html#ab7338d2908971d3820c9671865b90897" target="_top" xlink:title="G4Setup">
<polygon fill="none" stroke="#000000" points="499,-147.5 499,-167.5 559,-167.5 559,-147.5 499,-147.5"/>
<text text-anchor="middle" x="529" y="-154.5" font-family="FreeSans" font-size="10.00" fill="#000000">G4Setup</text>
</a>
</g>
</g>
<!-- Node10&#45;&gt;Node11 -->
<g id="edge11" class="edge">
<title>Node10&#45;&gt;Node11</title>
<path fill="none" stroke="#191970" d="M471.4153,-157.5C480.1868,-157.5 489.8453,-157.5 498.7047,-157.5"/>
<polygon fill="#191970" stroke="#191970" points="471.2692,-154.0001 461.2692,-157.5 471.2692,-161.0001 471.2692,-154.0001"/>
</g>
</g>
</svg>
