<?xml version="1.0" encoding="UTF-8" standalone="no"?>
<!DOCTYPE svg PUBLIC "-//W3C//DTD SVG 1.1//EN"
 "http://www.w3.org/Graphics/SVG/1.1/DTD/svg11.dtd">
<!-- Generated by graphviz version 2.40.1 (20161225.0304)
 -->
<!-- Title: PHG4DetectorGroupSubsystem::SetDefaultParameters Pages: 1 -->
<svg width="577pt" height="245pt"
 viewBox="0.00 0.00 577.00 245.00" xmlns="http://www.w3.org/2000/svg" xmlns:xlink="http://www.w3.org/1999/xlink">
<g id="graph0" class="graph" transform="scale(1 1) rotate(0) translate(4 241)">
<title>PHG4DetectorGroupSubsystem::SetDefaultParameters</title>
<!-- Node1 -->
<g id="node1" class="node">
<title>Node1</title>
<polygon fill="#bfbfbf" stroke="#000000" points="0,-102.5 0,-134.5 175,-134.5 175,-102.5 0,-102.5"/>
<text text-anchor="start" x="8" y="-121.5" font-family="FreeSans" font-size="10.00" fill="#000000">PHG4DetectorGroupSubsystem</text>
<text text-anchor="middle" x="87.5" y="-109.5" font-family="FreeSans" font-size="10.00" fill="#000000">::SetDefaultParameters</text>
</g>
<!-- Node2 -->
<g id="node2" class="node">
<title>Node2</title>
<g id="a_node2"><a xlink:href="../../d7/d7f/classPHG4DetectorGroupSubsystem.html#a98770d45ac9f2b315edd6eaae1236c50" target="_top" xlink:title="PHG4DetectorGroupSubsystem\l::InitializeParameters">
<polygon fill="none" stroke="#000000" points="211,-102.5 211,-134.5 386,-134.5 386,-102.5 211,-102.5"/>
<text text-anchor="start" x="219" y="-121.5" font-family="FreeSans" font-size="10.00" fill="#000000">PHG4DetectorGroupSubsystem</text>
<text text-anchor="middle" x="298.5" y="-109.5" font-family="FreeSans" font-size="10.00" fill="#000000">::InitializeParameters</text>
</a>
</g>
</g>
<!-- Node1&#45;&gt;Node2 -->
<g id="edge1" class="edge">
<title>Node1&#45;&gt;Node2</title>
<path fill="none" stroke="#191970" d="M185.4234,-118.5C193.8845,-118.5 202.4108,-118.5 210.7833,-118.5"/>
<polygon fill="#191970" stroke="#191970" points="185.15,-115.0001 175.1499,-118.5 185.1499,-122.0001 185.15,-115.0001"/>
</g>
<!-- Node3 -->
<g id="node3" class="node">
<title>Node3</title>
<g id="a_node3"><a xlink:href="../../da/ded/classG4JLeicVTXSubsystem.html#a8cc2f8d8b83d63c87e3ca5021ca0ca98" target="_top" xlink:title="constructor">
<polygon fill="none" stroke="#000000" points="427.5,-204.5 427.5,-236.5 563.5,-236.5 563.5,-204.5 427.5,-204.5"/>
<text text-anchor="start" x="435.5" y="-223.5" font-family="FreeSans" font-size="10.00" fill="#000000">G4JLeicVTXSubsystem</text>
<text text-anchor="middle" x="495.5" y="-211.5" font-family="FreeSans" font-size="10.00" fill="#000000">::G4JLeicVTXSubsystem</text>
</a>
</g>
</g>
<!-- Node2&#45;&gt;Node3 -->
<g id="edge2" class="edge">
<title>Node2&#45;&gt;Node3</title>
<path fill="none" stroke="#191970" d="M329.2623,-140.4643C353.587,-157.1338 388.8553,-179.7873 422,-195.5 428.8203,-198.7333 436.1738,-201.7483 443.5009,-204.4858"/>
<polygon fill="#191970" stroke="#191970" points="331.0336,-137.4337 320.8199,-134.6176 327.0482,-143.1884 331.0336,-137.4337"/>
</g>
<!-- Node4 -->
<g id="node4" class="node">
<title>Node4</title>
<g id="a_node4"><a xlink:href="../../d3/d9f/classPHG4EICMvtxSubsystem.html#a925a02b4337e414e65eda2837e9907d4" target="_top" xlink:title="constructor">
<polygon fill="none" stroke="#000000" points="422,-153.5 422,-185.5 569,-185.5 569,-153.5 422,-153.5"/>
<text text-anchor="start" x="430" y="-172.5" font-family="FreeSans" font-size="10.00" fill="#000000">PHG4EICMvtxSubsystem</text>
<text text-anchor="middle" x="495.5" y="-160.5" font-family="FreeSans" font-size="10.00" fill="#000000">::PHG4EICMvtxSubsystem</text>
</a>
</g>
</g>
<!-- Node2&#45;&gt;Node4 -->
<g id="edge3" class="edge">
<title>Node2&#45;&gt;Node4</title>
<path fill="none" stroke="#191970" d="M370.2513,-137.0752C390.9497,-142.4337 413.3532,-148.2336 433.412,-153.4264"/>
<polygon fill="#191970" stroke="#191970" points="371.1197,-133.6847 360.5616,-134.5667 369.3653,-140.4613 371.1197,-133.6847"/>
</g>
<!-- Node5 -->
<g id="node5" class="node">
<title>Node5</title>
<g id="a_node5"><a xlink:href="../../d6/d09/classPHG4InttSubsystem.html#ab9e600984e1a9ca21e1b94cf8f8388d2" target="_top" xlink:title="constructor">
<polygon fill="none" stroke="#000000" points="434,-102.5 434,-134.5 557,-134.5 557,-102.5 434,-102.5"/>
<text text-anchor="start" x="442" y="-121.5" font-family="FreeSans" font-size="10.00" fill="#000000">PHG4InttSubsystem::</text>
<text text-anchor="middle" x="495.5" y="-109.5" font-family="FreeSans" font-size="10.00" fill="#000000">PHG4InttSubsystem</text>
</a>
</g>
</g>
<!-- Node2&#45;&gt;Node5 -->
<g id="edge4" class="edge">
<title>Node2&#45;&gt;Node5</title>
<path fill="none" stroke="#191970" d="M396.3002,-118.5C409.1008,-118.5 421.9172,-118.5 433.8845,-118.5"/>
<polygon fill="#191970" stroke="#191970" points="396.0543,-115.0001 386.0543,-118.5 396.0543,-122.0001 396.0543,-115.0001"/>
</g>
<!-- Node6 -->
<g id="node6" class="node">
<title>Node6</title>
<g id="a_node6"><a xlink:href="../../d9/dbf/classPHG4MvtxSubsystem.html#a3af23d4328867010422c1e576a8ac8dc" target="_top" xlink:title="constructor">
<polygon fill="none" stroke="#000000" points="430,-51.5 430,-83.5 561,-83.5 561,-51.5 430,-51.5"/>
<text text-anchor="start" x="438" y="-70.5" font-family="FreeSans" font-size="10.00" fill="#000000">PHG4MvtxSubsystem::</text>
<text text-anchor="middle" x="495.5" y="-58.5" font-family="FreeSans" font-size="10.00" fill="#000000">PHG4MvtxSubsystem</text>
</a>
</g>
</g>
<!-- Node2&#45;&gt;Node6 -->
<g id="edge5" class="edge">
<title>Node2&#45;&gt;Node6</title>
<path fill="none" stroke="#191970" d="M370.2513,-99.9248C390.9497,-94.5663 413.3532,-88.7664 433.412,-83.5736"/>
<polygon fill="#191970" stroke="#191970" points="369.3653,-96.5387 360.5616,-102.4333 371.1197,-103.3153 369.3653,-96.5387"/>
</g>
<!-- Node7 -->
<g id="node7" class="node">
<title>Node7</title>
<g id="a_node7"><a xlink:href="../../dd/d21/classPHG4PSTOFSubsystem.html#a8ed87c369b2f21e2a23298039a6eddca" target="_top" xlink:title="constructor">
<polygon fill="none" stroke="#000000" points="426,-.5 426,-32.5 565,-32.5 565,-.5 426,-.5"/>
<text text-anchor="start" x="434" y="-19.5" font-family="FreeSans" font-size="10.00" fill="#000000">PHG4PSTOFSubsystem</text>
<text text-anchor="middle" x="495.5" y="-7.5" font-family="FreeSans" font-size="10.00" fill="#000000">::PHG4PSTOFSubsystem</text>
</a>
</g>
</g>
<!-- Node2&#45;&gt;Node7 -->
<g id="edge6" class="edge">
<title>Node2&#45;&gt;Node7</title>
<path fill="none" stroke="#191970" d="M329.8074,-96.66C354.1666,-80.3116 389.2269,-58.163 422,-42.5 429.4495,-38.9397 437.522,-35.5999 445.4976,-32.5777"/>
<polygon fill="#191970" stroke="#191970" points="327.6555,-93.8903 321.3411,-102.3979 331.5827,-99.6849 327.6555,-93.8903"/>
</g>
</g>
</svg>
