<?xml version="1.0" encoding="UTF-8" standalone="no"?>
<!DOCTYPE svg PUBLIC "-//W3C//DTD SVG 1.1//EN"
 "http://www.w3.org/Graphics/SVG/1.1/DTD/svg11.dtd">
<!-- Generated by graphviz version 2.40.1 (20161225.0304)
 -->
<!-- Title: RawTowerGeomv1::get_eta Pages: 1 -->
<svg width="414pt" height="97pt"
 viewBox="0.00 0.00 414.00 97.00" xmlns="http://www.w3.org/2000/svg" xmlns:xlink="http://www.w3.org/1999/xlink">
<g id="graph0" class="graph" transform="scale(1 1) rotate(0) translate(4 93)">
<title>RawTowerGeomv1::get_eta</title>
<!-- Node1 -->
<g id="node1" class="node">
<title>Node1</title>
<polygon fill="#bfbfbf" stroke="#000000" points="0,-23.5 0,-43.5 153,-43.5 153,-23.5 0,-23.5"/>
<text text-anchor="middle" x="76.5" y="-30.5" font-family="FreeSans" font-size="10.00" fill="#000000">RawTowerGeomv1::get_eta</text>
</g>
<!-- Node2 -->
<g id="node2" class="node">
<title>Node2</title>
<g id="a_node2"><a xlink:href="../../df/da1/namespaceActs_1_1VectorHelpers.html#afc1703c2fa7adfd6517e5e16df2e5df4" target="_top" xlink:title="Acts::VectorHelpers::eta">
<polygon fill="none" stroke="#000000" points="189,-68.5 189,-88.5 328,-88.5 328,-68.5 189,-68.5"/>
<text text-anchor="middle" x="258.5" y="-75.5" font-family="FreeSans" font-size="10.00" fill="#000000">Acts::VectorHelpers::eta</text>
</a>
</g>
</g>
<!-- Node1&#45;&gt;Node2 -->
<g id="edge1" class="edge">
<title>Node1&#45;&gt;Node2</title>
<path fill="none" stroke="#191970" d="M117.3444,-43.5989C144.157,-50.2284 179.4179,-58.9467 207.9896,-66.0112"/>
<polygon fill="#191970" stroke="#191970" points="207.2442,-69.4322 217.792,-68.4348 208.9244,-62.6368 207.2442,-69.4322"/>
</g>
<!-- Node3 -->
<g id="node3" class="node">
<title>Node3</title>
<g id="a_node3"><a xlink:href="../../db/d29/classRawTowerGeomv1.html#a3b22565caf4bc88a3aab9b9c124bef9e" target="_top" xlink:title="RawTowerGeomv1::get\l_theta">
<polygon fill="none" stroke="#000000" points="192,-17.5 192,-49.5 325,-49.5 325,-17.5 192,-17.5"/>
<text text-anchor="start" x="200" y="-36.5" font-family="FreeSans" font-size="10.00" fill="#000000">RawTowerGeomv1::get</text>
<text text-anchor="middle" x="258.5" y="-24.5" font-family="FreeSans" font-size="10.00" fill="#000000">_theta</text>
</a>
</g>
</g>
<!-- Node1&#45;&gt;Node3 -->
<g id="edge2" class="edge">
<title>Node1&#45;&gt;Node3</title>
<path fill="none" stroke="#191970" d="M153.1569,-33.5C162.5741,-33.5 172.2015,-33.5 181.622,-33.5"/>
<polygon fill="#191970" stroke="#191970" points="181.7432,-37.0001 191.7432,-33.5 181.7432,-30.0001 181.7432,-37.0001"/>
</g>
<!-- Node4 -->
<g id="node4" class="node">
<title>Node4</title>
<g id="a_node4"><a xlink:href="../../dc/de5/PHG4mRICHDetector_8cc.html#aa15fefb6859fb9ca86eb9a588d4f7856" target="_top" xlink:title="theta">
<polygon fill="none" stroke="#000000" points="364,-.5 364,-20.5 406,-20.5 406,-.5 364,-.5"/>
<text text-anchor="middle" x="385" y="-7.5" font-family="FreeSans" font-size="10.00" fill="#000000">theta</text>
</a>
</g>
</g>
<!-- Node1&#45;&gt;Node4 -->
<g id="edge4" class="edge">
<title>Node1&#45;&gt;Node4</title>
<path fill="none" stroke="#191970" d="M112.1379,-23.485C134.0982,-17.8393 162.9464,-11.36 189,-8.5 250.4089,-1.759 266.2317,-7.4167 328,-8.5 336.3535,-8.6465 345.3924,-8.9137 353.7575,-9.2061"/>
<polygon fill="#191970" stroke="#191970" points="353.7674,-12.7088 363.8906,-9.5828 354.0275,-5.7136 353.7674,-12.7088"/>
</g>
<!-- Node3&#45;&gt;Node4 -->
<g id="edge3" class="edge">
<title>Node3&#45;&gt;Node4</title>
<path fill="none" stroke="#191970" d="M325.0841,-21.3938C335.0708,-19.578 344.9464,-17.7825 353.7113,-16.1889"/>
<polygon fill="#191970" stroke="#191970" points="354.5718,-19.5899 363.7844,-14.3574 353.3196,-12.7028 354.5718,-19.5899"/>
</g>
</g>
</svg>
