<?xml version="1.0" encoding="UTF-8" standalone="no"?>
<!DOCTYPE svg PUBLIC "-//W3C//DTD SVG 1.1//EN"
 "http://www.w3.org/Graphics/SVG/1.1/DTD/svg11.dtd">
<!-- Generated by graphviz version 2.40.1 (20161225.0304)
 -->
<!-- Title: fbgt Pages: 1 -->
<svg width="789pt" height="417pt"
 viewBox="0.00 0.00 789.00 416.93" xmlns="http://www.w3.org/2000/svg" xmlns:xlink="http://www.w3.org/1999/xlink">
<g id="graph0" class="graph" transform="scale(1 1) rotate(0) translate(4 412.9342)">
<title>fbgt</title>
<!-- Node1 -->
<g id="node1" class="node">
<title>Node1</title>
<polygon fill="#bfbfbf" stroke="#000000" points="0,-200.5 0,-220.5 37,-220.5 37,-200.5 0,-200.5"/>
<text text-anchor="middle" x="18.5" y="-207.5" font-family="FreeSans" font-size="10.00" fill="#000000">fbgt</text>
</g>
<!-- Node2 -->
<g id="node2" class="node">
<title>Node2</title>
<g id="a_node2"><a xlink:href="../../dd/d0b/classEicNamePatternHub.html#abe35bc0e1b9b51fa1f2c0c45bcf78dec" target="_top" xlink:title="EicNamePatternHub::\lAddPatternMatch">
<polygon fill="none" stroke="#000000" points="344.5,-375.5 344.5,-407.5 467.5,-407.5 467.5,-375.5 344.5,-375.5"/>
<text text-anchor="start" x="352.5" y="-394.5" font-family="FreeSans" font-size="10.00" fill="#000000">EicNamePatternHub::</text>
<text text-anchor="middle" x="406" y="-382.5" font-family="FreeSans" font-size="10.00" fill="#000000">AddPatternMatch</text>
</a>
</g>
</g>
<!-- Node1&#45;&gt;Node2 -->
<g id="edge1" class="edge">
<title>Node1&#45;&gt;Node2</title>
<path fill="none" stroke="#191970" d="M20.8683,-220.8274C28.0433,-251.1712 50.4354,-339.0191 73,-356.5 147.3933,-414.1327 260.8613,-412.8715 334.2361,-404.1548"/>
<polygon fill="#191970" stroke="#191970" points="334.8332,-407.6073 344.3153,-402.8808 333.9553,-400.6626 334.8332,-407.6073"/>
</g>
<!-- Node3 -->
<g id="node3" class="node">
<title>Node3</title>
<g id="a_node3"><a xlink:href="../../d4/dea/classGemGeoParData.html#a3472db614196658d1d8dbd2a6838139d" target="_top" xlink:title="GemGeoParData::AddWheel">
<polygon fill="none" stroke="#000000" points="327,-336.5 327,-356.5 485,-356.5 485,-336.5 327,-336.5"/>
<text text-anchor="middle" x="406" y="-343.5" font-family="FreeSans" font-size="10.00" fill="#000000">GemGeoParData::AddWheel</text>
</a>
</g>
</g>
<!-- Node1&#45;&gt;Node3 -->
<g id="edge2" class="edge">
<title>Node1&#45;&gt;Node3</title>
<path fill="none" stroke="#191970" d="M20.1131,-220.5616C24.2853,-242.9186 37.6845,-296.6309 73,-320.5 155.1965,-376.0552 276.2565,-368.9672 347.5232,-358.1528"/>
<polygon fill="#191970" stroke="#191970" points="348.3412,-361.5668 357.6661,-356.5372 347.24,-354.6539 348.3412,-361.5668"/>
</g>
<!-- Node4 -->
<g id="node4" class="node">
<title>Node4</title>
<g id="a_node4"><a xlink:href="../../df/de0/classEicGeoParData.html#aa10ef8f4aec5aebc0c2c043524c9382e" target="_top" xlink:title="EicGeoParData::AttachSourceFile">
<polygon fill="none" stroke="#000000" points="315,-297.5 315,-317.5 497,-317.5 497,-297.5 315,-297.5"/>
<text text-anchor="middle" x="406" y="-304.5" font-family="FreeSans" font-size="10.00" fill="#000000">EicGeoParData::AttachSourceFile</text>
</a>
</g>
</g>
<!-- Node1&#45;&gt;Node4 -->
<g id="edge3" class="edge">
<title>Node1&#45;&gt;Node4</title>
<path fill="none" stroke="#191970" d="M22.1425,-220.6054C29.0228,-238.0219 45.7351,-273.2862 73,-288.5 158.1874,-336.0344 275.4628,-329.2353 345.7038,-319.0278"/>
<polygon fill="#191970" stroke="#191970" points="346.3573,-322.4688 355.7165,-317.5032 345.3035,-315.5485 346.3573,-322.4688"/>
</g>
<!-- Node6 -->
<g id="node6" class="node">
<title>Node6</title>
<g id="a_node6"><a xlink:href="../../d4/dea/classGemGeoParData.html#a7451179a30d239960ea24e5e2e2a709e" target="_top" xlink:title="GemGeoParData::Construct\lGeometry">
<polygon fill="none" stroke="#000000" points="328,-129.5 328,-161.5 484,-161.5 484,-129.5 328,-129.5"/>
<text text-anchor="start" x="336" y="-148.5" font-family="FreeSans" font-size="10.00" fill="#000000">GemGeoParData::Construct</text>
<text text-anchor="middle" x="406" y="-136.5" font-family="FreeSans" font-size="10.00" fill="#000000">Geometry</text>
</a>
</g>
</g>
<!-- Node1&#45;&gt;Node6 -->
<g id="edge5" class="edge">
<title>Node1&#45;&gt;Node6</title>
<path fill="none" stroke="#191970" d="M31.5493,-200.2724C42.1003,-192.6008 57.6712,-182.582 73,-177.5 152.9654,-150.9888 249.2223,-144.2472 317.6355,-143.3832"/>
<polygon fill="#191970" stroke="#191970" points="317.9758,-146.8805 327.9453,-143.2948 317.9156,-139.8808 317.9758,-146.8805"/>
</g>
<!-- Node12 -->
<g id="node12" class="node">
<title>Node12</title>
<g id="a_node12"><a xlink:href="../../df/de8/cemc_8C.html#adf5c804dfce7a70e36dda02995fad481" target="_top" xlink:title="exit">
<polygon fill="none" stroke="#000000" points="599.5,-258.5 599.5,-278.5 634.5,-278.5 634.5,-258.5 599.5,-258.5"/>
<text text-anchor="middle" x="617" y="-265.5" font-family="FreeSans" font-size="10.00" fill="#000000">exit</text>
</a>
</g>
</g>
<!-- Node1&#45;&gt;Node12 -->
<g id="edge14" class="edge">
<title>Node1&#45;&gt;Node12</title>
<path fill="none" stroke="#191970" d="M37.1182,-208.5225C114.7693,-200.5735 412.7011,-173.1296 497,-210.5 518.565,-220.06 512.575,-237.6991 533,-249.5 550.261,-259.4728 572.3272,-264.2114 589.5113,-266.4627"/>
<polygon fill="#191970" stroke="#191970" points="589.169,-269.9461 599.4934,-267.5676 589.9392,-262.9886 589.169,-269.9461"/>
</g>
<!-- Node14 -->
<g id="node14" class="node">
<title>Node14</title>
<g id="a_node14"><a xlink:href="../../d8/dc1/examples_2tracking_2config_888_2fbgt_8C.html#a12722ea1156fe930afe215769efbb7c8" target="_top" xlink:title="fbgt">
<polygon fill="none" stroke="#000000" points="157.5,-258.5 157.5,-278.5 194.5,-278.5 194.5,-258.5 157.5,-258.5"/>
<text text-anchor="middle" x="176" y="-265.5" font-family="FreeSans" font-size="10.00" fill="#000000">fbgt</text>
</a>
</g>
</g>
<!-- Node1&#45;&gt;Node14 -->
<g id="edge15" class="edge">
<title>Node1&#45;&gt;Node14</title>
<path fill="none" stroke="#191970" d="M32.6592,-220.7401C43.2999,-228.0116 58.4803,-237.5098 73,-243.5 97.1561,-253.4658 126.2069,-260.068 147.2889,-263.9717"/>
<polygon fill="#191970" stroke="#191970" points="146.7744,-267.4348 157.2299,-265.7224 147.9885,-260.5409 146.7744,-267.4348"/>
</g>
<!-- Node15 -->
<g id="node15" class="node">
<title>Node15</title>
<g id="a_node15"><a xlink:href="../../df/de0/classEicGeoParData.html#a98e43e3d66fdb531cabaccd39f09ebc3" target="_top" xlink:title="EicGeoParData::GetColorTable">
<polygon fill="none" stroke="#000000" points="321.5,-219.5 321.5,-239.5 490.5,-239.5 490.5,-219.5 321.5,-219.5"/>
<text text-anchor="middle" x="406" y="-226.5" font-family="FreeSans" font-size="10.00" fill="#000000">EicGeoParData::GetColorTable</text>
</a>
</g>
</g>
<!-- Node1&#45;&gt;Node15 -->
<g id="edge22" class="edge">
<title>Node1&#45;&gt;Node15</title>
<path fill="none" stroke="#191970" d="M37.1899,-211.4164C85.787,-213.7992 218.7372,-220.3181 310.9659,-224.8403"/>
<polygon fill="#191970" stroke="#191970" points="311.0004,-228.3461 321.1599,-225.3401 311.3433,-221.3545 311.0004,-228.3461"/>
</g>
<!-- Node16 -->
<g id="node16" class="node">
<title>Node16</title>
<g id="a_node16"><a xlink:href="../../df/de0/classEicGeoParData.html#a04f15471e3c546dbf50727aa61098434" target="_top" xlink:title="EicGeoParData::SetTestGeometryFlag">
<polygon fill="none" stroke="#000000" points="73,-104.5 73,-124.5 279,-124.5 279,-104.5 73,-104.5"/>
<text text-anchor="middle" x="176" y="-111.5" font-family="FreeSans" font-size="10.00" fill="#000000">EicGeoParData::SetTestGeometryFlag</text>
</a>
</g>
</g>
<!-- Node1&#45;&gt;Node16 -->
<g id="edge23" class="edge">
<title>Node1&#45;&gt;Node16</title>
<path fill="none" stroke="#191970" d="M23.4541,-200.2575C31.5593,-184.6297 49.169,-155.0154 73,-139.5 80.3388,-134.722 88.5085,-130.8566 96.9466,-127.7294"/>
<polygon fill="#191970" stroke="#191970" points="98.1912,-131.0036 106.5576,-124.5032 95.9636,-124.3675 98.1912,-131.0036"/>
</g>
<!-- Node17 -->
<g id="node17" class="node">
<title>Node17</title>
<g id="a_node17"><a xlink:href="../../df/de0/classEicGeoParData.html#ae993c5ff20194aa78ee7810d0e5ffa3a" target="_top" xlink:title="EicGeoParData::SetTopVolume\lTransformation">
<polygon fill="none" stroke="#000000" points="91,-53.5 91,-85.5 261,-85.5 261,-53.5 91,-53.5"/>
<text text-anchor="start" x="99" y="-72.5" font-family="FreeSans" font-size="10.00" fill="#000000">EicGeoParData::SetTopVolume</text>
<text text-anchor="middle" x="176" y="-60.5" font-family="FreeSans" font-size="10.00" fill="#000000">Transformation</text>
</a>
</g>
</g>
<!-- Node1&#45;&gt;Node17 -->
<g id="edge24" class="edge">
<title>Node1&#45;&gt;Node17</title>
<path fill="none" stroke="#191970" d="M20.2348,-200.3171C24.6564,-177.6163 38.5327,-122.6497 73,-94.5 75.7925,-92.2193 78.7609,-90.1414 81.862,-88.2484"/>
<polygon fill="#191970" stroke="#191970" points="83.7605,-91.2017 90.9165,-83.3887 80.4502,-85.0339 83.7605,-91.2017"/>
</g>
<!-- Node18 -->
<g id="node18" class="node">
<title>Node18</title>
<g id="a_node18"><a xlink:href="../../d4/dea/classGemGeoParData.html#a79129e563f8d1d971af1e27b644bc72a" target="_top" xlink:title="GemGeoParData::WithMounting\lRings">
<polygon fill="none" stroke="#000000" points="87.5,-2.5 87.5,-34.5 264.5,-34.5 264.5,-2.5 87.5,-2.5"/>
<text text-anchor="start" x="95.5" y="-21.5" font-family="FreeSans" font-size="10.00" fill="#000000">GemGeoParData::WithMounting</text>
<text text-anchor="middle" x="176" y="-9.5" font-family="FreeSans" font-size="10.00" fill="#000000">Rings</text>
</a>
</g>
</g>
<!-- Node1&#45;&gt;Node18 -->
<g id="edge25" class="edge">
<title>Node1&#45;&gt;Node18</title>
<path fill="none" stroke="#191970" d="M20.4856,-200.2796C27.0574,-167.4713 49.0504,-65.6656 73,-43.5 74.7556,-41.8752 76.5986,-40.3509 78.5154,-38.9211"/>
<polygon fill="#191970" stroke="#191970" points="80.8336,-41.5916 87.3518,-33.2391 77.0477,-35.7038 80.8336,-41.5916"/>
</g>
<!-- Node5 -->
<g id="node5" class="node">
<title>Node5</title>
<g id="a_node5"><a xlink:href="../../de/d53/classSourceFile.html#ae7fa8d10936a333a8ae1252f3ab00d3d" target="_top" xlink:title="SourceFile::IsOk">
<polygon fill="none" stroke="#000000" points="568.5,-297.5 568.5,-317.5 665.5,-317.5 665.5,-297.5 568.5,-297.5"/>
<text text-anchor="middle" x="617" y="-304.5" font-family="FreeSans" font-size="10.00" fill="#000000">SourceFile::IsOk</text>
</a>
</g>
</g>
<!-- Node4&#45;&gt;Node5 -->
<g id="edge4" class="edge">
<title>Node4&#45;&gt;Node5</title>
<path fill="none" stroke="#191970" d="M497.0139,-307.5C517.718,-307.5 539.1808,-307.5 558.1307,-307.5"/>
<polygon fill="#191970" stroke="#191970" points="558.3792,-311.0001 568.3792,-307.5 558.3791,-304.0001 558.3792,-311.0001"/>
</g>
<!-- Node7 -->
<g id="node7" class="node">
<title>Node7</title>
<g id="a_node7"><a xlink:href="../../df/de8/cemc_8C.html#a72d4716092b469b4bc1d816359a90e14" target="_top" xlink:title="cos">
<polygon fill="none" stroke="#000000" points="600.5,-129.5 600.5,-149.5 633.5,-149.5 633.5,-129.5 600.5,-129.5"/>
<text text-anchor="middle" x="617" y="-136.5" font-family="FreeSans" font-size="10.00" fill="#000000">cos</text>
</a>
</g>
</g>
<!-- Node6&#45;&gt;Node7 -->
<g id="edge6" class="edge">
<title>Node6&#45;&gt;Node7</title>
<path fill="none" stroke="#191970" d="M484.2688,-143.2743C521.5837,-142.2133 563.7775,-141.0134 590.3772,-140.257"/>
<polygon fill="#191970" stroke="#191970" points="590.5337,-143.7541 600.4301,-139.9712 590.3346,-136.7569 590.5337,-143.7541"/>
</g>
<!-- Node8 -->
<g id="node8" class="node">
<title>Node8</title>
<g id="a_node8"><a xlink:href="../../da/d23/msg__buffer_8cc.html#a98631211a4a8aee62f572375d5b637be" target="_top" xlink:title="printf">
<polygon fill="none" stroke="#000000" points="737,-67.5 737,-87.5 781,-87.5 781,-67.5 737,-67.5"/>
<text text-anchor="middle" x="759" y="-74.5" font-family="FreeSans" font-size="10.00" fill="#000000">printf</text>
</a>
</g>
</g>
<!-- Node6&#45;&gt;Node8 -->
<g id="edge7" class="edge">
<title>Node6&#45;&gt;Node8</title>
<path fill="none" stroke="#191970" d="M483.1895,-129.4636C499.6197,-126.1157 516.8752,-122.6486 533,-119.5 601.9318,-106.04 682.8954,-91.2372 726.7711,-83.2991"/>
<polygon fill="#191970" stroke="#191970" points="727.6216,-86.7022 736.8401,-81.4801 726.3771,-79.8136 727.6216,-86.7022"/>
</g>
<!-- Node9 -->
<g id="node9" class="node">
<title>Node9</title>
<g id="a_node9"><a xlink:href="../../df/de8/cemc_8C.html#acad20e7f1c71136263323fb1308a295f" target="_top" xlink:title="AddLogicalVolumeGroup">
<polygon fill="none" stroke="#000000" points="546.5,-.5 546.5,-20.5 687.5,-20.5 687.5,-.5 546.5,-.5"/>
<text text-anchor="middle" x="617" y="-7.5" font-family="FreeSans" font-size="10.00" fill="#000000">AddLogicalVolumeGroup</text>
</a>
</g>
</g>
<!-- Node6&#45;&gt;Node9 -->
<g id="edge8" class="edge">
<title>Node6&#45;&gt;Node9</title>
<path fill="none" stroke="#191970" d="M418.9294,-129.1702C439.9961,-103.7336 484.2969,-54.9362 533,-29.5 536.9842,-27.4192 541.1911,-25.565 545.5133,-23.913"/>
<polygon fill="#191970" stroke="#191970" points="546.8,-27.1718 555.1182,-20.6099 544.5235,-20.5523 546.8,-27.1718"/>
</g>
<!-- Node10 -->
<g id="node10" class="node">
<title>Node10</title>
<g id="a_node10"><a xlink:href="../../da/d86/classEicGeoMap.html#a4138a501100028aef473a4b9508d36d3" target="_top" xlink:title="EicGeoMap::AddGeantVolume\lLevel">
<polygon fill="none" stroke="#000000" points="533,-39.5 533,-71.5 701,-71.5 701,-39.5 533,-39.5"/>
<text text-anchor="start" x="541" y="-58.5" font-family="FreeSans" font-size="10.00" fill="#000000">EicGeoMap::AddGeantVolume</text>
<text text-anchor="middle" x="617" y="-46.5" font-family="FreeSans" font-size="10.00" fill="#000000">Level</text>
</a>
</g>
</g>
<!-- Node6&#45;&gt;Node10 -->
<g id="edge9" class="edge">
<title>Node6&#45;&gt;Node10</title>
<path fill="none" stroke="#191970" d="M438.5665,-129.4791C464.0311,-117.1698 500.4519,-100.0399 533,-86.5 542.2573,-82.649 552.1821,-78.7706 561.8505,-75.1232"/>
<polygon fill="#191970" stroke="#191970" points="563.2524,-78.3359 571.3991,-71.5622 560.8064,-71.7771 563.2524,-78.3359"/>
</g>
<!-- Node11 -->
<g id="node11" class="node">
<title>Node11</title>
<g id="a_node11"><a xlink:href="../../da/d86/classEicGeoMap.html#a77e724ceee76044c2346a4b35be1f90e" target="_top" xlink:title="EicGeoMap::SetSingleSensor\lContainerVolume">
<polygon fill="none" stroke="#000000" points="535.5,-207.5 535.5,-239.5 698.5,-239.5 698.5,-207.5 535.5,-207.5"/>
<text text-anchor="start" x="543.5" y="-226.5" font-family="FreeSans" font-size="10.00" fill="#000000">EicGeoMap::SetSingleSensor</text>
<text text-anchor="middle" x="617" y="-214.5" font-family="FreeSans" font-size="10.00" fill="#000000">ContainerVolume</text>
</a>
</g>
</g>
<!-- Node6&#45;&gt;Node11 -->
<g id="edge11" class="edge">
<title>Node6&#45;&gt;Node11</title>
<path fill="none" stroke="#191970" d="M459.7086,-161.6044C472.1608,-165.9367 485.213,-170.9734 497,-176.5 513.9776,-184.4604 515.8702,-190.8727 533,-198.5 537.3741,-200.4476 541.9421,-202.2942 546.5903,-204.0352"/>
<polygon fill="#191970" stroke="#191970" points="545.6127,-207.4022 556.2074,-207.4588 547.9604,-200.8077 545.6127,-207.4022"/>
</g>
<!-- Node6&#45;&gt;Node12 -->
<g id="edge12" class="edge">
<title>Node6&#45;&gt;Node12</title>
<path fill="none" stroke="#191970" d="M473.4459,-161.6217C481.9671,-165.5589 490.1017,-170.4438 497,-176.5 524.1851,-200.3666 504.5901,-227.1054 533,-249.5 548.925,-262.0531 571.5519,-266.6382 589.3104,-268.1745"/>
<polygon fill="#191970" stroke="#191970" points="589.185,-271.6732 599.3751,-268.7727 589.6004,-264.6855 589.185,-271.6732"/>
</g>
<!-- Node13 -->
<g id="node13" class="node">
<title>Node13</title>
<g id="a_node13"><a xlink:href="../../df/de8/cemc_8C.html#a56d18c59c8675b7e09e6b650a8f2296a" target="_top" xlink:title="FinalizeOutput">
<polygon fill="none" stroke="#000000" points="572,-168.5 572,-188.5 662,-188.5 662,-168.5 572,-168.5"/>
<text text-anchor="middle" x="617" y="-175.5" font-family="FreeSans" font-size="10.00" fill="#000000">FinalizeOutput</text>
</a>
</g>
</g>
<!-- Node6&#45;&gt;Node13 -->
<g id="edge13" class="edge">
<title>Node6&#45;&gt;Node13</title>
<path fill="none" stroke="#191970" d="M484.2688,-157.7411C510.014,-161.7676 538.0817,-166.1573 561.7479,-169.8587"/>
<polygon fill="#191970" stroke="#191970" points="561.5228,-173.3659 571.9435,-171.4532 562.6045,-166.45 561.5228,-173.3659"/>
</g>
<!-- Node10&#45;&gt;Node8 -->
<g id="edge10" class="edge">
<title>Node10&#45;&gt;Node8</title>
<path fill="none" stroke="#191970" d="M701.2432,-68.5518C710.276,-69.9512 719.0123,-71.3047 726.839,-72.5173"/>
<polygon fill="#191970" stroke="#191970" points="726.4725,-76.0022 736.8905,-74.0746 727.5442,-69.0847 726.4725,-76.0022"/>
</g>
<!-- Node14&#45;&gt;Node2 -->
<g id="edge16" class="edge">
<title>Node14&#45;&gt;Node2</title>
<path fill="none" stroke="#191970" d="M187.3952,-278.6569C210.0851,-298.3748 263.2013,-342.0442 315,-366.5 321.1717,-369.4138 327.7443,-372.0413 334.424,-374.3985"/>
<polygon fill="#191970" stroke="#191970" points="333.6595,-377.8325 344.2529,-377.6606 335.8644,-371.1888 333.6595,-377.8325"/>
</g>
<!-- Node14&#45;&gt;Node3 -->
<g id="edge17" class="edge">
<title>Node14&#45;&gt;Node3</title>
<path fill="none" stroke="#191970" d="M194.891,-277.9245C221.2233,-290.7331 270.7204,-313.6267 315,-327.5 322.7739,-329.9357 331.0201,-332.1495 339.25,-334.1343"/>
<polygon fill="#191970" stroke="#191970" points="338.7169,-337.6032 349.2479,-336.4412 340.2908,-330.7824 338.7169,-337.6032"/>
</g>
<!-- Node14&#45;&gt;Node4 -->
<g id="edge18" class="edge">
<title>Node14&#45;&gt;Node4</title>
<path fill="none" stroke="#191970" d="M194.8219,-271.6915C225.5356,-276.8995 287.9242,-287.4784 336.9645,-295.794"/>
<polygon fill="#191970" stroke="#191970" points="336.4509,-299.2568 346.8953,-297.4779 337.6212,-292.3553 336.4509,-299.2568"/>
</g>
<!-- Node14&#45;&gt;Node6 -->
<g id="edge19" class="edge">
<title>Node14&#45;&gt;Node6</title>
<path fill="none" stroke="#191970" d="M194.8219,-258.4344C232.293,-238.3955 316.9099,-193.1439 366.9149,-166.402"/>
<polygon fill="#191970" stroke="#191970" points="368.6623,-169.4367 375.83,-161.6344 365.3612,-163.2639 368.6623,-169.4367"/>
</g>
<!-- Node14&#45;&gt;Node12 -->
<g id="edge20" class="edge">
<title>Node14&#45;&gt;Node12</title>
<path fill="none" stroke="#191970" d="M194.6675,-268.5C263.8589,-268.5 505.9538,-268.5 588.8818,-268.5"/>
<polygon fill="#191970" stroke="#191970" points="589.0591,-272.0001 599.059,-268.5 589.059,-265.0001 589.0591,-272.0001"/>
</g>
<!-- Node14&#45;&gt;Node15 -->
<g id="edge21" class="edge">
<title>Node14&#45;&gt;Node15</title>
<path fill="none" stroke="#191970" d="M194.8219,-265.3085C225.5356,-260.1005 287.9242,-249.5216 336.9645,-241.206"/>
<polygon fill="#191970" stroke="#191970" points="337.6212,-244.6447 346.8953,-239.5221 336.4509,-237.7432 337.6212,-244.6447"/>
</g>
<!-- Node19 -->
<g id="node19" class="node">
<title>Node19</title>
<g id="a_node19"><a xlink:href="../../d9/df6/reportingUtils_8h.html#a576a89378238eacf86a93607e46ddbc7" target="_top" xlink:title="yesNo">
<polygon fill="none" stroke="#000000" points="382.5,-8.5 382.5,-28.5 429.5,-28.5 429.5,-8.5 382.5,-8.5"/>
<text text-anchor="middle" x="406" y="-15.5" font-family="FreeSans" font-size="10.00" fill="#000000">yesNo</text>
</a>
</g>
</g>
<!-- Node18&#45;&gt;Node19 -->
<g id="edge26" class="edge">
<title>Node18&#45;&gt;Node19</title>
<path fill="none" stroke="#191970" d="M264.595,-18.5C302.298,-18.5 344.0039,-18.5 372.2871,-18.5"/>
<polygon fill="#191970" stroke="#191970" points="372.4334,-22.0001 382.4334,-18.5 372.4333,-15.0001 372.4334,-22.0001"/>
</g>
</g>
</svg>
