<?xml version="1.0" encoding="UTF-8" standalone="no"?>
<!DOCTYPE svg PUBLIC "-//W3C//DTD SVG 1.1//EN"
 "http://www.w3.org/Graphics/SVG/1.1/DTD/svg11.dtd">
<!-- Generated by graphviz version 2.40.1 (20161225.0304)
 -->
<!-- Title: main Pages: 1 -->
<svg width="1025pt" height="1372pt"
 viewBox="0.00 0.00 1025.00 1372.00" xmlns="http://www.w3.org/2000/svg" xmlns:xlink="http://www.w3.org/1999/xlink">
<g id="graph0" class="graph" transform="scale(1 1) rotate(0) translate(4 1368)">
<title>main</title>
<!-- Node1 -->
<g id="node1" class="node">
<title>Node1</title>
<polygon fill="#bfbfbf" stroke="#000000" points="0,-869.5 0,-889.5 41,-889.5 41,-869.5 0,-869.5"/>
<text text-anchor="middle" x="20.5" y="-876.5" font-family="FreeSans" font-size="10.00" fill="#000000">main</text>
</g>
<!-- Node2 -->
<g id="node2" class="node">
<title>Node2</title>
<g id="a_node2"><a xlink:href="../../d8/da7/PropagationExampleBase_8hpp.html#a547a2dbde1cd0681a15d22bdfaa29b07" target="_top" xlink:title="propagationExample">
<polygon fill="none" stroke="#000000" points="77,-869.5 77,-889.5 199,-889.5 199,-869.5 77,-869.5"/>
<text text-anchor="middle" x="138" y="-876.5" font-family="FreeSans" font-size="10.00" fill="#000000">propagationExample</text>
</a>
</g>
</g>
<!-- Node1&#45;&gt;Node2 -->
<g id="edge1" class="edge">
<title>Node1&#45;&gt;Node2</title>
<path fill="none" stroke="#191970" d="M41.2362,-879.5C48.6387,-879.5 57.4523,-879.5 66.7011,-879.5"/>
<polygon fill="#191970" stroke="#191970" points="66.8618,-883.0001 76.8618,-879.5 66.8617,-876.0001 66.8618,-883.0001"/>
</g>
<!-- Node3 -->
<g id="node3" class="node">
<title>Node3</title>
<g id="a_node3"><a xlink:href="../../d8/dba/classFW_1_1Sequencer.html#a0e5d6dfc5d4d4a23973d9d2453de96a1" target="_top" xlink:title="FW::Sequencer::addAlgorithm">
<polygon fill="none" stroke="#000000" points="248.5,-1343.5 248.5,-1363.5 416.5,-1363.5 416.5,-1343.5 248.5,-1343.5"/>
<text text-anchor="middle" x="332.5" y="-1350.5" font-family="FreeSans" font-size="10.00" fill="#000000">FW::Sequencer::addAlgorithm</text>
</a>
</g>
</g>
<!-- Node2&#45;&gt;Node3 -->
<g id="edge2" class="edge">
<title>Node2&#45;&gt;Node3</title>
<path fill="none" stroke="#191970" d="M138.6908,-889.7996C143.0239,-951.2581 168.4586,-1269.1184 235,-1334.5 236.4761,-1335.9504 238.0281,-1337.3066 239.6456,-1338.5742"/>
<polygon fill="#191970" stroke="#191970" points="237.9483,-1341.6465 248.2308,-1344.2002 241.7851,-1335.7916 237.9483,-1341.6465"/>
</g>
<!-- Node4 -->
<g id="node4" class="node">
<title>Node4</title>
<g id="a_node4"><a xlink:href="../../d6/d55/namespaceFW_1_1Options.html#ac891c6fc87677a259412d298a991c641" target="_top" xlink:title="FW::Options::addBFieldOptions">
<polygon fill="none" stroke="#000000" points="246,-1304.5 246,-1324.5 419,-1324.5 419,-1304.5 246,-1304.5"/>
<text text-anchor="middle" x="332.5" y="-1311.5" font-family="FreeSans" font-size="10.00" fill="#000000">FW::Options::addBFieldOptions</text>
</a>
</g>
</g>
<!-- Node2&#45;&gt;Node4 -->
<g id="edge3" class="edge">
<title>Node2&#45;&gt;Node4</title>
<path fill="none" stroke="#191970" d="M138.8984,-889.6698C144.231,-947.6859 173.6014,-1236.3097 235,-1295.5 236.1252,-1296.5847 237.2929,-1297.6164 238.4986,-1298.5975"/>
<polygon fill="#191970" stroke="#191970" points="236.728,-1301.6262 246.963,-1304.3637 240.669,-1295.841 236.728,-1301.6262"/>
</g>
<!-- Node5 -->
<g id="node5" class="node">
<title>Node5</title>
<g id="a_node5"><a xlink:href="../../d8/dba/classFW_1_1Sequencer.html#a561912e31e8bde045a368aa33b7f93a2" target="_top" xlink:title="FW::Sequencer::addContext\lDecorator">
<polygon fill="none" stroke="#000000" points="253.5,-1253.5 253.5,-1285.5 411.5,-1285.5 411.5,-1253.5 253.5,-1253.5"/>
<text text-anchor="start" x="261.5" y="-1272.5" font-family="FreeSans" font-size="10.00" fill="#000000">FW::Sequencer::addContext</text>
<text text-anchor="middle" x="332.5" y="-1260.5" font-family="FreeSans" font-size="10.00" fill="#000000">Decorator</text>
</a>
</g>
</g>
<!-- Node2&#45;&gt;Node5 -->
<g id="edge4" class="edge">
<title>Node2&#45;&gt;Node5</title>
<path fill="none" stroke="#191970" d="M139.3222,-889.7557C146.4461,-943.4661 181.9152,-1191.8775 235,-1244.5 237.9184,-1247.393 241.1233,-1249.9654 244.5375,-1252.2518"/>
<polygon fill="#191970" stroke="#191970" points="242.9994,-1255.4049 253.4113,-1257.3655 246.4945,-1249.3399 242.9994,-1255.4049"/>
</g>
<!-- Node6 -->
<g id="node6" class="node">
<title>Node6</title>
<g id="a_node6"><a xlink:href="../../d6/d55/namespaceFW_1_1Options.html#ae1ce2e4db604849fc520012e78d8a476" target="_top" xlink:title="Add common geometry&#45;related options.">
<polygon fill="none" stroke="#000000" points="255.5,-1202.5 255.5,-1234.5 409.5,-1234.5 409.5,-1202.5 255.5,-1202.5"/>
<text text-anchor="start" x="263.5" y="-1221.5" font-family="FreeSans" font-size="10.00" fill="#000000">FW::Options::addGeometry</text>
<text text-anchor="middle" x="332.5" y="-1209.5" font-family="FreeSans" font-size="10.00" fill="#000000">Options</text>
</a>
</g>
</g>
<!-- Node2&#45;&gt;Node6 -->
<g id="edge5" class="edge">
<title>Node2&#45;&gt;Node6</title>
<path fill="none" stroke="#191970" d="M139.7608,-889.5937C148.4607,-938.3595 188.3161,-1149.0322 235,-1193.5 238.3649,-1196.7052 242.0829,-1199.5143 246.0443,-1201.9749"/>
<polygon fill="#191970" stroke="#191970" points="244.5976,-1205.1709 255.0627,-1206.8237 247.9125,-1199.0055 244.5976,-1205.1709"/>
</g>
<!-- Node7 -->
<g id="node7" class="node">
<title>Node7</title>
<g id="a_node7"><a xlink:href="../../d6/d55/namespaceFW_1_1Options.html#a61db487f0d3c98c0ce3d60454bd8996d" target="_top" xlink:title="Add common material&#45;related options.">
<polygon fill="none" stroke="#000000" points="260.5,-1151.5 260.5,-1183.5 404.5,-1183.5 404.5,-1151.5 260.5,-1151.5"/>
<text text-anchor="start" x="268.5" y="-1170.5" font-family="FreeSans" font-size="10.00" fill="#000000">FW::Options::addMaterial</text>
<text text-anchor="middle" x="332.5" y="-1158.5" font-family="FreeSans" font-size="10.00" fill="#000000">Options</text>
</a>
</g>
</g>
<!-- Node2&#45;&gt;Node7 -->
<g id="edge6" class="edge">
<title>Node2&#45;&gt;Node7</title>
<path fill="none" stroke="#191970" d="M138.5172,-889.6498C141.0756,-928.7403 155.7006,-1070.9274 235,-1142.5 239.7673,-1146.8028 245.1752,-1150.3854 250.9414,-1153.366"/>
<polygon fill="#191970" stroke="#191970" points="249.7026,-1156.6468 260.2571,-1157.5711 252.5826,-1150.2667 249.7026,-1156.6468"/>
</g>
<!-- Node8 -->
<g id="node8" class="node">
<title>Node8</title>
<g id="a_node8"><a xlink:href="../../dd/d31/classFW_1_1IBaseDetector.html#a0ad6ade8087a0bd17ed2d796f114be8f" target="_top" xlink:title="FW::IBaseDetector::\laddOptions">
<polygon fill="none" stroke="#000000" points="275,-1100.5 275,-1132.5 390,-1132.5 390,-1100.5 275,-1100.5"/>
<text text-anchor="start" x="283" y="-1119.5" font-family="FreeSans" font-size="10.00" fill="#000000">FW::IBaseDetector::</text>
<text text-anchor="middle" x="332.5" y="-1107.5" font-family="FreeSans" font-size="10.00" fill="#000000">addOptions</text>
</a>
</g>
</g>
<!-- Node2&#45;&gt;Node8 -->
<g id="edge7" class="edge">
<title>Node2&#45;&gt;Node8</title>
<path fill="none" stroke="#191970" d="M139.5298,-889.7765C145.1974,-924.0895 168.2376,-1035.6828 235,-1091.5 243.71,-1098.7821 254.2787,-1103.9781 265.2017,-1107.678"/>
<polygon fill="#191970" stroke="#191970" points="264.2708,-1111.0526 274.8541,-1110.559 266.2729,-1104.3451 264.2708,-1111.0526"/>
</g>
<!-- Node9 -->
<g id="node9" class="node">
<title>Node9</title>
<g id="a_node9"><a xlink:href="../../d6/d55/namespaceFW_1_1Options.html#a4de04c7095cf34079cb7eaa38d7965b2" target="_top" xlink:title="Add common output&#45;related options.">
<polygon fill="none" stroke="#000000" points="244,-1061.5 244,-1081.5 421,-1081.5 421,-1061.5 244,-1061.5"/>
<text text-anchor="middle" x="332.5" y="-1068.5" font-family="FreeSans" font-size="10.00" fill="#000000">FW::Options::addOutputOptions</text>
</a>
</g>
</g>
<!-- Node2&#45;&gt;Node9 -->
<g id="edge8" class="edge">
<title>Node2&#45;&gt;Node9</title>
<path fill="none" stroke="#191970" d="M140.4806,-889.7106C148.4068,-920.0066 176.127,-1009.9237 235,-1052.5 237.1398,-1054.0475 239.3724,-1055.4778 241.6792,-1056.7995"/>
<polygon fill="#191970" stroke="#191970" points="240.3905,-1060.0671 250.9041,-1061.3764 243.5017,-1053.7965 240.3905,-1060.0671"/>
</g>
<!-- Node10 -->
<g id="node10" class="node">
<title>Node10</title>
<g id="a_node10"><a xlink:href="../../d6/d55/namespaceFW_1_1Options.html#abc1cb1ae3d845c6cd6e8bee2ccc9db21" target="_top" xlink:title="ExtrapolationAlgorithm options.">
<polygon fill="none" stroke="#000000" points="250.5,-1010.5 250.5,-1042.5 414.5,-1042.5 414.5,-1010.5 250.5,-1010.5"/>
<text text-anchor="start" x="258.5" y="-1029.5" font-family="FreeSans" font-size="10.00" fill="#000000">FW::Options::addPropagation</text>
<text text-anchor="middle" x="332.5" y="-1017.5" font-family="FreeSans" font-size="10.00" fill="#000000">Options</text>
</a>
</g>
</g>
<!-- Node2&#45;&gt;Node10 -->
<g id="edge9" class="edge">
<title>Node2&#45;&gt;Node10</title>
<path fill="none" stroke="#191970" d="M143.0043,-889.5268C155.2548,-912.9991 189.1307,-971.7725 235,-1001.5 237.4746,-1003.1038 240.0466,-1004.6047 242.6925,-1006.0095"/>
<polygon fill="#191970" stroke="#191970" points="241.4062,-1009.2738 251.9384,-1010.4244 244.4225,-1002.957 241.4062,-1009.2738"/>
</g>
<!-- Node11 -->
<g id="node11" class="node">
<title>Node11</title>
<g id="a_node11"><a xlink:href="../../d6/d55/namespaceFW_1_1Options.html#a381d0843c942fda2c29766f1fdcb3f04" target="_top" xlink:title="Add random number options such as the global seed.">
<polygon fill="none" stroke="#000000" points="237,-959.5 237,-991.5 428,-991.5 428,-959.5 237,-959.5"/>
<text text-anchor="start" x="245" y="-978.5" font-family="FreeSans" font-size="10.00" fill="#000000">FW::Options::addRandomNumbers</text>
<text text-anchor="middle" x="332.5" y="-966.5" font-family="FreeSans" font-size="10.00" fill="#000000">Options</text>
</a>
</g>
</g>
<!-- Node2&#45;&gt;Node11 -->
<g id="edge10" class="edge">
<title>Node2&#45;&gt;Node11</title>
<path fill="none" stroke="#191970" d="M148.7407,-889.547C165.7398,-904.9134 200.4698,-934.1835 235,-950.5 239.2684,-952.5169 243.7217,-954.3866 248.2733,-956.1175"/>
<polygon fill="#191970" stroke="#191970" points="247.1319,-959.4263 257.7266,-959.4786 249.477,-952.8308 247.1319,-959.4263"/>
</g>
<!-- Node12 -->
<g id="node12" class="node">
<title>Node12</title>
<g id="a_node12"><a xlink:href="../../d6/d55/namespaceFW_1_1Options.html#a0ae9979a970816c96e848f3b6747807e" target="_top" xlink:title="Add sequencer options, e.g. number of events.">
<polygon fill="none" stroke="#000000" points="253.5,-908.5 253.5,-940.5 411.5,-940.5 411.5,-908.5 253.5,-908.5"/>
<text text-anchor="start" x="261.5" y="-927.5" font-family="FreeSans" font-size="10.00" fill="#000000">FW::Options::addSequencer</text>
<text text-anchor="middle" x="332.5" y="-915.5" font-family="FreeSans" font-size="10.00" fill="#000000">Options</text>
</a>
</g>
</g>
<!-- Node2&#45;&gt;Node12 -->
<g id="edge11" class="edge">
<title>Node2&#45;&gt;Node12</title>
<path fill="none" stroke="#191970" d="M181.6496,-889.5989C202.7156,-894.4728 228.6615,-900.4757 253.059,-906.1203"/>
<polygon fill="#191970" stroke="#191970" points="252.5067,-909.5849 263.0383,-908.4292 254.0847,-902.7651 252.5067,-909.5849"/>
</g>
<!-- Node13 -->
<g id="node13" class="node">
<title>Node13</title>
<g id="a_node13"><a xlink:href="../../d8/dba/classFW_1_1Sequencer.html#a13d3984b0742216affc61c7b6be9192d" target="_top" xlink:title="FW::Sequencer::addWriter">
<polygon fill="none" stroke="#000000" points="258,-869.5 258,-889.5 407,-889.5 407,-869.5 258,-869.5"/>
<text text-anchor="middle" x="332.5" y="-876.5" font-family="FreeSans" font-size="10.00" fill="#000000">FW::Sequencer::addWriter</text>
</a>
</g>
</g>
<!-- Node2&#45;&gt;Node13 -->
<g id="edge12" class="edge">
<title>Node2&#45;&gt;Node13</title>
<path fill="none" stroke="#191970" d="M199.0074,-879.5C214.4146,-879.5 231.2382,-879.5 247.5888,-879.5"/>
<polygon fill="#191970" stroke="#191970" points="247.6914,-883.0001 257.6913,-879.5 247.6913,-876.0001 247.6914,-883.0001"/>
</g>
<!-- Node14 -->
<g id="node14" class="node">
<title>Node14</title>
<g id="a_node14"><a xlink:href="../../d7/d44/namespaceFW_1_1Geometry.html#a7fb5387ea0514bffa5d32093a60b59e3" target="_top" xlink:title="helper method to setup the geometry">
<polygon fill="none" stroke="#000000" points="273,-830.5 273,-850.5 392,-850.5 392,-830.5 273,-830.5"/>
<text text-anchor="middle" x="332.5" y="-837.5" font-family="FreeSans" font-size="10.00" fill="#000000">FW::Geometry::build</text>
</a>
</g>
</g>
<!-- Node2&#45;&gt;Node14 -->
<g id="edge13" class="edge">
<title>Node2&#45;&gt;Node14</title>
<path fill="none" stroke="#191970" d="M188.0886,-869.4565C213.8385,-864.2933 245.409,-857.963 272.4575,-852.5394"/>
<polygon fill="#191970" stroke="#191970" points="273.4644,-855.9072 282.5812,-850.5094 272.0882,-849.0438 273.4644,-855.9072"/>
</g>
<!-- Node16 -->
<g id="node16" class="node">
<title>Node16</title>
<g id="a_node16"><a xlink:href="../../d1/d10/namespaceFW.html#aa0a7029b31d8e9dcfc8ab9f81dfc88ab" target="_top" xlink:title="Join dir and name into one path with correct handling of empty dirs.">
<polygon fill="none" stroke="#000000" points="290.5,-791.5 290.5,-811.5 374.5,-811.5 374.5,-791.5 290.5,-791.5"/>
<text text-anchor="middle" x="332.5" y="-798.5" font-family="FreeSans" font-size="10.00" fill="#000000">FW::joinPaths</text>
</a>
</g>
</g>
<!-- Node2&#45;&gt;Node16 -->
<g id="edge15" class="edge">
<title>Node2&#45;&gt;Node16</title>
<path fill="none" stroke="#191970" d="M151.3751,-869.4899C169.4183,-856.4733 202.9943,-833.9364 235,-821.5 249.2642,-815.9574 265.3278,-811.8561 280.2387,-808.8622"/>
<polygon fill="#191970" stroke="#191970" points="281.1604,-812.2503 290.3412,-806.9623 279.8666,-805.3709 281.1604,-812.2503"/>
</g>
<!-- Node17 -->
<g id="node17" class="node">
<title>Node17</title>
<g id="a_node17"><a xlink:href="../../d6/d55/namespaceFW_1_1Options.html#aff334d85da454b0e8ba3582ed31f9359" target="_top" xlink:title="FW::Options::makeDefault\lOptions">
<polygon fill="none" stroke="#000000" points="258,-740.5 258,-772.5 407,-772.5 407,-740.5 258,-740.5"/>
<text text-anchor="start" x="266" y="-759.5" font-family="FreeSans" font-size="10.00" fill="#000000">FW::Options::makeDefault</text>
<text text-anchor="middle" x="332.5" y="-747.5" font-family="FreeSans" font-size="10.00" fill="#000000">Options</text>
</a>
</g>
</g>
<!-- Node2&#45;&gt;Node17 -->
<g id="edge16" class="edge">
<title>Node2&#45;&gt;Node17</title>
<path fill="none" stroke="#191970" d="M145.2695,-869.2481C159.9071,-849.3832 194.9736,-805.5773 235,-782.5 239.2353,-780.0581 243.7058,-777.8397 248.3099,-775.825"/>
<polygon fill="#191970" stroke="#191970" points="249.939,-778.9425 257.9155,-771.9693 247.3314,-772.4463 249.939,-778.9425"/>
</g>
<!-- Node18 -->
<g id="node18" class="node">
<title>Node18</title>
<g id="a_node18"><a xlink:href="../../d6/d55/namespaceFW_1_1Options.html#a03e9eee9ace87849f52983a2ef11dab6" target="_top" xlink:title="FW::Options::parse">
<polygon fill="none" stroke="#000000" points="276.5,-701.5 276.5,-721.5 388.5,-721.5 388.5,-701.5 276.5,-701.5"/>
<text text-anchor="middle" x="332.5" y="-708.5" font-family="FreeSans" font-size="10.00" fill="#000000">FW::Options::parse</text>
</a>
</g>
</g>
<!-- Node2&#45;&gt;Node18 -->
<g id="edge17" class="edge">
<title>Node2&#45;&gt;Node18</title>
<path fill="none" stroke="#191970" d="M141.5182,-869.2353C151.4386,-841.9408 182.3881,-767.2222 235,-731.5 244.3983,-725.1188 255.3996,-720.696 266.5607,-717.6467"/>
<polygon fill="#191970" stroke="#191970" points="267.4589,-721.0307 276.3738,-715.3059 265.8346,-714.2218 267.4589,-721.0307"/>
</g>
<!-- Node19 -->
<g id="node19" class="node">
<title>Node19</title>
<g id="a_node19"><a xlink:href="../../d6/d55/namespaceFW_1_1Options.html#a776cec7f66a21c691727a431a56e8e7a" target="_top" xlink:title="FW::Options::readBField">
<polygon fill="none" stroke="#000000" points="264,-662.5 264,-682.5 401,-682.5 401,-662.5 264,-662.5"/>
<text text-anchor="middle" x="332.5" y="-669.5" font-family="FreeSans" font-size="10.00" fill="#000000">FW::Options::readBField</text>
</a>
</g>
</g>
<!-- Node2&#45;&gt;Node19 -->
<g id="edge18" class="edge">
<title>Node2&#45;&gt;Node19</title>
<path fill="none" stroke="#191970" d="M140.031,-869.4208C146.9733,-837.737 172.8577,-739.4771 235,-692.5 240.8281,-688.0942 247.3907,-684.5982 254.2861,-681.8316"/>
<polygon fill="#191970" stroke="#191970" points="255.5675,-685.0915 263.8576,-678.4941 253.2628,-678.4818 255.5675,-685.0915"/>
</g>
<!-- Node26 -->
<g id="node26" class="node">
<title>Node26</title>
<g id="a_node26"><a xlink:href="../../d6/d55/namespaceFW_1_1Options.html#a3eae7e1ac725beadd756591da42d30cf" target="_top" xlink:title="Read the log level.">
<polygon fill="none" stroke="#000000" points="481.5,-581.5 481.5,-601.5 632.5,-601.5 632.5,-581.5 481.5,-581.5"/>
<text text-anchor="middle" x="557" y="-588.5" font-family="FreeSans" font-size="10.00" fill="#000000">FW::Options::readLogLevel</text>
</a>
</g>
</g>
<!-- Node2&#45;&gt;Node26 -->
<g id="edge27" class="edge">
<title>Node2&#45;&gt;Node26</title>
<path fill="none" stroke="#191970" d="M139.0427,-869.408C143.3132,-833.5883 162.827,-711.6007 235,-653.5 240.0141,-649.4636 398.7439,-620.1701 491.4321,-603.3322"/>
<polygon fill="#191970" stroke="#191970" points="492.0761,-606.7726 501.2903,-601.543 490.826,-599.8851 492.0761,-606.7726"/>
</g>
<!-- Node27 -->
<g id="node27" class="node">
<title>Node27</title>
<g id="a_node27"><a xlink:href="../../d6/d55/namespaceFW_1_1Options.html#ad3c53fff95a38b51f455b251261087a1" target="_top" xlink:title="FW::Options::readPropagation\lConfig">
<polygon fill="none" stroke="#000000" points="249,-521.5 249,-553.5 416,-553.5 416,-521.5 249,-521.5"/>
<text text-anchor="start" x="257" y="-540.5" font-family="FreeSans" font-size="10.00" fill="#000000">FW::Options::readPropagation</text>
<text text-anchor="middle" x="332.5" y="-528.5" font-family="FreeSans" font-size="10.00" fill="#000000">Config</text>
</a>
</g>
</g>
<!-- Node2&#45;&gt;Node27 -->
<g id="edge28" class="edge">
<title>Node2&#45;&gt;Node27</title>
<path fill="none" stroke="#191970" d="M139.7601,-869.3519C148.457,-820.3223 188.3,-608.493 235,-563.5 236.6913,-561.8705 238.4729,-560.3404 240.3306,-558.9036"/>
<polygon fill="#191970" stroke="#191970" points="242.5362,-561.64 248.92,-553.1844 238.6566,-555.8134 242.5362,-561.64"/>
</g>
<!-- Node28 -->
<g id="node28" class="node">
<title>Node28</title>
<g id="a_node28"><a xlink:href="../../d6/d55/namespaceFW_1_1Options.html#aa483f08757600026c84ce3815b63ee05" target="_top" xlink:title="FW::Options::readRandomNumbers\lConfig">
<polygon fill="none" stroke="#000000" points="235,-470.5 235,-502.5 430,-502.5 430,-470.5 235,-470.5"/>
<text text-anchor="start" x="243" y="-489.5" font-family="FreeSans" font-size="10.00" fill="#000000">FW::Options::readRandomNumbers</text>
<text text-anchor="middle" x="332.5" y="-477.5" font-family="FreeSans" font-size="10.00" fill="#000000">Config</text>
</a>
</g>
</g>
<!-- Node2&#45;&gt;Node28 -->
<g id="edge29" class="edge">
<title>Node2&#45;&gt;Node28</title>
<path fill="none" stroke="#191970" d="M139.3229,-869.1979C146.4502,-815.243 181.9339,-565.6832 235,-512.5 236.4385,-511.0584 237.9473,-509.694 239.5173,-508.403"/>
<polygon fill="#191970" stroke="#191970" points="241.6769,-511.1628 247.8323,-502.5395 237.6428,-505.4421 241.6769,-511.1628"/>
</g>
<!-- Node29 -->
<g id="node29" class="node">
<title>Node29</title>
<g id="a_node29"><a xlink:href="../../d6/d55/namespaceFW_1_1Options.html#a32198973bcbd21e22db51ac57472e58a" target="_top" xlink:title="Read the sequencer config.">
<polygon fill="none" stroke="#000000" points="251.5,-572.5 251.5,-604.5 413.5,-604.5 413.5,-572.5 251.5,-572.5"/>
<text text-anchor="start" x="259.5" y="-591.5" font-family="FreeSans" font-size="10.00" fill="#000000">FW::Options::readSequencer</text>
<text text-anchor="middle" x="332.5" y="-579.5" font-family="FreeSans" font-size="10.00" fill="#000000">Config</text>
</a>
</g>
</g>
<!-- Node2&#45;&gt;Node29 -->
<g id="edge30" class="edge">
<title>Node2&#45;&gt;Node29</title>
<path fill="none" stroke="#191970" d="M138.7039,-869.3352C141.9224,-830.8035 158.5793,-692.2473 235,-619.5 239.0203,-615.6729 243.512,-612.3182 248.3,-609.3777"/>
<polygon fill="#191970" stroke="#191970" points="250.1001,-612.3826 257.2008,-604.5193 246.7463,-606.2383 250.1001,-612.3826"/>
</g>
<!-- Node30 -->
<g id="node30" class="node">
<title>Node30</title>
<g id="a_node30"><a xlink:href="../../d8/dba/classFW_1_1Sequencer.html#a310ddbba7038b13dba04ec088c45a9f7" target="_top" xlink:title="FW::Sequencer::run">
<polygon fill="none" stroke="#000000" points="274.5,-311.5 274.5,-331.5 390.5,-331.5 390.5,-311.5 274.5,-311.5"/>
<text text-anchor="middle" x="332.5" y="-318.5" font-family="FreeSans" font-size="10.00" fill="#000000">FW::Sequencer::run</text>
</a>
</g>
</g>
<!-- Node2&#45;&gt;Node30 -->
<g id="edge32" class="edge">
<title>Node2&#45;&gt;Node30</title>
<path fill="none" stroke="#191970" d="M138.9282,-869.3346C143.5843,-821.4925 166.9309,-614.6766 235,-461.5 256.3968,-413.3507 295.1363,-364.5167 316.7844,-339.1992"/>
<polygon fill="#191970" stroke="#191970" points="319.5114,-341.3969 323.421,-331.5498 314.2239,-336.8096 319.5114,-341.3969"/>
</g>
<!-- Node15 -->
<g id="node15" class="node">
<title>Node15</title>
<g id="a_node15"><a xlink:href="../../dd/d31/classFW_1_1IBaseDetector.html#a815ce565191da2296e374960962eebaa" target="_top" xlink:title="FW::IBaseDetector::\lfinalize">
<polygon fill="none" stroke="#000000" points="499.5,-824.5 499.5,-856.5 614.5,-856.5 614.5,-824.5 499.5,-824.5"/>
<text text-anchor="start" x="507.5" y="-843.5" font-family="FreeSans" font-size="10.00" fill="#000000">FW::IBaseDetector::</text>
<text text-anchor="middle" x="557" y="-831.5" font-family="FreeSans" font-size="10.00" fill="#000000">finalize</text>
</a>
</g>
</g>
<!-- Node14&#45;&gt;Node15 -->
<g id="edge14" class="edge">
<title>Node14&#45;&gt;Node15</title>
<path fill="none" stroke="#191970" d="M392.0725,-840.5C421.9497,-840.5 458.266,-840.5 489.2072,-840.5"/>
<polygon fill="#191970" stroke="#191970" points="489.4772,-844.0001 499.4772,-840.5 489.4772,-837.0001 489.4772,-844.0001"/>
</g>
<!-- Node20 -->
<g id="node20" class="node">
<title>Node20</title>
<g id="a_node20"><a xlink:href="../../d2/d76/namespaceFW_1_1BField_1_1root.html#a7ccc94f9735056c1d3b408138d8c5af0" target="_top" xlink:title="FW::BField::root::fieldMapperRZ">
<polygon fill="none" stroke="#000000" points="469,-701.5 469,-721.5 645,-721.5 645,-701.5 469,-701.5"/>
<text text-anchor="middle" x="557" y="-708.5" font-family="FreeSans" font-size="10.00" fill="#000000">FW::BField::root::fieldMapperRZ</text>
</a>
</g>
</g>
<!-- Node19&#45;&gt;Node20 -->
<g id="edge19" class="edge">
<title>Node19&#45;&gt;Node20</title>
<path fill="none" stroke="#191970" d="M390.3143,-682.5435C420.5597,-687.7977 457.7623,-694.2605 489.342,-699.7465"/>
<polygon fill="#191970" stroke="#191970" points="488.9301,-703.2273 499.3816,-701.4906 490.1282,-696.3306 488.9301,-703.2273"/>
</g>
<!-- Node22 -->
<g id="node22" class="node">
<title>Node22</title>
<g id="a_node22"><a xlink:href="../../d2/d76/namespaceFW_1_1BField_1_1root.html#aba0ff67f5a12cb4ad9296f85fc631427" target="_top" xlink:title="FW::BField::root::fieldMapperXYZ">
<polygon fill="none" stroke="#000000" points="466,-623.5 466,-643.5 648,-643.5 648,-623.5 466,-623.5"/>
<text text-anchor="middle" x="557" y="-630.5" font-family="FreeSans" font-size="10.00" fill="#000000">FW::BField::root::fieldMapperXYZ</text>
</a>
</g>
</g>
<!-- Node19&#45;&gt;Node22 -->
<g id="edge21" class="edge">
<title>Node19&#45;&gt;Node22</title>
<path fill="none" stroke="#191970" d="M390.3143,-662.4565C420.5597,-657.2023 457.7623,-650.7395 489.342,-645.2535"/>
<polygon fill="#191970" stroke="#191970" points="490.1282,-648.6694 499.3816,-643.5094 488.9301,-641.7727 490.1282,-648.6694"/>
</g>
<!-- Node24 -->
<g id="node24" class="node">
<title>Node24</title>
<g id="a_node24"><a xlink:href="../../dc/dbe/namespaceFW_1_1BField_1_1txt.html#a0c0a6561fcc20c432a0c9f3df0053ac5" target="_top" xlink:title="FW::BField::txt::fieldMapperRZ">
<polygon fill="none" stroke="#000000" points="472,-740.5 472,-760.5 642,-760.5 642,-740.5 472,-740.5"/>
<text text-anchor="middle" x="557" y="-747.5" font-family="FreeSans" font-size="10.00" fill="#000000">FW::BField::txt::fieldMapperRZ</text>
</a>
</g>
</g>
<!-- Node19&#45;&gt;Node24 -->
<g id="edge23" class="edge">
<title>Node19&#45;&gt;Node24</title>
<path fill="none" stroke="#191970" d="M401.078,-680.9002C411.1569,-683.7252 421.1217,-687.4889 430,-692.5 450.5428,-704.0948 445.4776,-719.8691 466,-731.5 469.4554,-733.4583 473.0874,-735.2157 476.8302,-736.7927"/>
<polygon fill="#191970" stroke="#191970" points="475.7318,-740.1188 486.3241,-740.3529 478.1897,-733.5645 475.7318,-740.1188"/>
</g>
<!-- Node25 -->
<g id="node25" class="node">
<title>Node25</title>
<g id="a_node25"><a xlink:href="../../dc/dbe/namespaceFW_1_1BField_1_1txt.html#abdaabf29e920c6c2631627db40d641f1" target="_top" xlink:title="FW::BField::txt::fieldMapperXYZ">
<polygon fill="none" stroke="#000000" points="469,-662.5 469,-682.5 645,-682.5 645,-662.5 469,-662.5"/>
<text text-anchor="middle" x="557" y="-669.5" font-family="FreeSans" font-size="10.00" fill="#000000">FW::BField::txt::fieldMapperXYZ</text>
</a>
</g>
</g>
<!-- Node19&#45;&gt;Node25 -->
<g id="edge25" class="edge">
<title>Node19&#45;&gt;Node25</title>
<path fill="none" stroke="#191970" d="M401.0773,-672.5C419.3053,-672.5 439.3536,-672.5 458.8276,-672.5"/>
<polygon fill="#191970" stroke="#191970" points="458.9462,-676.0001 468.9462,-672.5 458.9462,-669.0001 458.9462,-676.0001"/>
</g>
<!-- Node21 -->
<g id="node21" class="node">
<title>Node21</title>
<g id="a_node21"><a xlink:href="../../da/d7b/namespaceActs.html#aa46031ee88f77bb14022872f010d897a" target="_top" xlink:title="Acts::fieldMapperRZ">
<polygon fill="none" stroke="#ff0000" points="687,-721.5 687,-741.5 806,-741.5 806,-721.5 687,-721.5"/>
<text text-anchor="middle" x="746.5" y="-728.5" font-family="FreeSans" font-size="10.00" fill="#000000">Acts::fieldMapperRZ</text>
</a>
</g>
</g>
<!-- Node20&#45;&gt;Node21 -->
<g id="edge20" class="edge">
<title>Node20&#45;&gt;Node21</title>
<path fill="none" stroke="#191970" d="M645.0928,-720.7974C655.6764,-721.9144 666.3713,-723.0431 676.6458,-724.1275"/>
<polygon fill="#191970" stroke="#191970" points="676.4483,-727.626 686.7605,-725.195 677.1831,-720.6647 676.4483,-727.626"/>
</g>
<!-- Node23 -->
<g id="node23" class="node">
<title>Node23</title>
<g id="a_node23"><a xlink:href="../../da/d7b/namespaceActs.html#a4a08a66d4382d4519b6373d6fbd1991d" target="_top" xlink:title="Acts::fieldMapperXYZ">
<polygon fill="none" stroke="#ff0000" points="684,-662.5 684,-682.5 809,-682.5 809,-662.5 684,-662.5"/>
<text text-anchor="middle" x="746.5" y="-669.5" font-family="FreeSans" font-size="10.00" fill="#000000">Acts::fieldMapperXYZ</text>
</a>
</g>
</g>
<!-- Node22&#45;&gt;Node23 -->
<g id="edge22" class="edge">
<title>Node22&#45;&gt;Node23</title>
<path fill="none" stroke="#191970" d="M605.801,-643.5435C630.889,-648.7067 661.6479,-655.037 688.001,-660.4606"/>
<polygon fill="#191970" stroke="#191970" points="687.3641,-663.9028 697.8644,-662.4906 688.7753,-657.0465 687.3641,-663.9028"/>
</g>
<!-- Node24&#45;&gt;Node21 -->
<g id="edge24" class="edge">
<title>Node24&#45;&gt;Node21</title>
<path fill="none" stroke="#191970" d="M642.0496,-741.9726C653.6507,-740.8094 665.4478,-739.6266 676.7354,-738.4949"/>
<polygon fill="#191970" stroke="#191970" points="677.3373,-741.9522 686.9382,-737.4719 676.6389,-734.9871 677.3373,-741.9522"/>
</g>
<!-- Node25&#45;&gt;Node23 -->
<g id="edge26" class="edge">
<title>Node25&#45;&gt;Node23</title>
<path fill="none" stroke="#191970" d="M645.0928,-672.5C654.6751,-672.5 664.3487,-672.5 673.7189,-672.5"/>
<polygon fill="#191970" stroke="#191970" points="673.7488,-676.0001 683.7488,-672.5 673.7487,-669.0001 673.7488,-676.0001"/>
</g>
<!-- Node29&#45;&gt;Node26 -->
<g id="edge31" class="edge">
<title>Node29&#45;&gt;Node26</title>
<path fill="none" stroke="#191970" d="M413.5497,-589.5831C432.2871,-589.8335 452.2844,-590.1007 471.2166,-590.3537"/>
<polygon fill="#191970" stroke="#191970" points="471.2616,-593.8545 481.3075,-590.4885 471.3552,-586.8551 471.2616,-593.8545"/>
</g>
<!-- Node31 -->
<g id="node31" class="node">
<title>Node31</title>
<g id="a_node31"><a xlink:href="../../d3/dd5/jewel-2_82_80_8f.html#ac10ce76c4f5f9029887dacaed4e00578" target="_top" xlink:title="init">
<polygon fill="none" stroke="#ff0000" points="540.5,-330.5 540.5,-350.5 573.5,-350.5 573.5,-330.5 540.5,-330.5"/>
<text text-anchor="middle" x="557" y="-337.5" font-family="FreeSans" font-size="10.00" fill="#000000">init</text>
</a>
</g>
</g>
<!-- Node30&#45;&gt;Node31 -->
<g id="edge33" class="edge">
<title>Node30&#45;&gt;Node31</title>
<path fill="none" stroke="#191970" d="M390.6063,-326.4177C435.6232,-330.2276 495.9175,-335.3304 530.1932,-338.2313"/>
<polygon fill="#191970" stroke="#191970" points="530.0956,-341.7354 540.3551,-339.0913 530.686,-334.7604 530.0956,-341.7354"/>
</g>
<!-- Node49 -->
<g id="node49" class="node">
<title>Node49</title>
<g id="a_node49"><a xlink:href="../../da/d7b/namespaceActs.html#a9b4dee934b0b193d57604b19bc8cd527" target="_top" xlink:title="get default debug output logger">
<polygon fill="none" stroke="#ff0000" points="490,-291.5 490,-311.5 624,-311.5 624,-291.5 490,-291.5"/>
<text text-anchor="middle" x="557" y="-298.5" font-family="FreeSans" font-size="10.00" fill="#000000">Acts::getDefaultLogger</text>
</a>
</g>
</g>
<!-- Node30&#45;&gt;Node49 -->
<g id="edge59" class="edge">
<title>Node30&#45;&gt;Node49</title>
<path fill="none" stroke="#191970" d="M390.6063,-316.3235C417.801,-313.9008 450.5709,-310.9814 479.8121,-308.3764"/>
<polygon fill="#191970" stroke="#191970" points="480.343,-311.8431 489.993,-307.4694 479.7218,-304.8707 480.343,-311.8431"/>
</g>
<!-- Node50 -->
<g id="node50" class="node">
<title>Node50</title>
<g id="a_node50"><a xlink:href="../../d3/d9b/namespacenlohmann.html#a6ce645a0b8717757e096a5b5773b7a16" target="_top" xlink:title="user&#45;defined to_string function for JSON values">
<polygon fill="none" stroke="#000000" points="498,-252.5 498,-272.5 616,-272.5 616,-252.5 498,-252.5"/>
<text text-anchor="middle" x="557" y="-259.5" font-family="FreeSans" font-size="10.00" fill="#000000">nlohmann::to_string</text>
</a>
</g>
</g>
<!-- Node30&#45;&gt;Node50 -->
<g id="edge60" class="edge">
<title>Node30&#45;&gt;Node50</title>
<path fill="none" stroke="#191970" d="M364.7026,-311.4259C391.6378,-303.1605 431.1437,-291.4108 466,-282.5 476.4388,-279.8314 487.6061,-277.1975 498.4162,-274.7609"/>
<polygon fill="#191970" stroke="#191970" points="499.2099,-278.1699 508.2121,-272.5833 497.6909,-271.3367 499.2099,-278.1699"/>
</g>
<!-- Node32 -->
<g id="node32" class="node">
<title>Node32</title>
<g id="a_node32"><a xlink:href="../../d8/d1a/classHiMain1.html#a676ccaef5fa9c10e945e6d1477aeb366" target="_top" xlink:title="HiMain1::np">
<polygon fill="none" stroke="#ff0000" points="708,-467.5 708,-487.5 785,-487.5 785,-467.5 708,-467.5"/>
<text text-anchor="middle" x="746.5" y="-474.5" font-family="FreeSans" font-size="10.00" fill="#000000">HiMain1::np</text>
</a>
</g>
</g>
<!-- Node31&#45;&gt;Node32 -->
<g id="edge34" class="edge">
<title>Node31&#45;&gt;Node32</title>
<path fill="none" stroke="#191970" d="M566.2682,-350.7686C586.0581,-372.1865 634.6761,-422.1497 684,-452.5 690.7884,-456.6771 698.3959,-460.4029 705.9041,-463.6215"/>
<polygon fill="#191970" stroke="#191970" points="704.7098,-466.9139 715.2924,-467.4228 707.337,-460.4256 704.7098,-466.9139"/>
</g>
<!-- Node33 -->
<g id="node33" class="node">
<title>Node33</title>
<g id="a_node33"><a xlink:href="../../d0/d83/classActsFatras_1_1LandauDistribution.html#a692e73569c82329696eadc0fe9ff5bdf" target="_top" xlink:title="Return the currently configured distribution parameters.">
<polygon fill="none" stroke="#000000" points="845,-389.5 845,-421.5 1017,-421.5 1017,-389.5 845,-389.5"/>
<text text-anchor="start" x="853" y="-408.5" font-family="FreeSans" font-size="10.00" fill="#000000">ActsFatras::LandauDistribution</text>
<text text-anchor="middle" x="931" y="-396.5" font-family="FreeSans" font-size="10.00" fill="#000000">::param</text>
</a>
</g>
</g>
<!-- Node31&#45;&gt;Node33 -->
<g id="edge35" class="edge">
<title>Node31&#45;&gt;Node33</title>
<path fill="none" stroke="#191970" d="M568.1816,-350.5582C589.088,-368.6068 636.3117,-405.878 684,-419.5 738.4783,-435.0615 802.3955,-430.8687 851.5594,-423.1478"/>
<polygon fill="#191970" stroke="#191970" points="852.2059,-426.5885 861.5027,-421.5071 851.0662,-419.6819 852.2059,-426.5885"/>
</g>
<!-- Node34 -->
<g id="node34" class="node">
<title>Node34</title>
<g id="a_node34"><a xlink:href="../../db/d4e/predicates_8cxx.html#a0e05cf94eeeea515483f825d7a3b7dd6" target="_top" xlink:title="compress">
<polygon fill="none" stroke="#000000" points="898.5,-350.5 898.5,-370.5 963.5,-370.5 963.5,-350.5 898.5,-350.5"/>
<text text-anchor="middle" x="931" y="-357.5" font-family="FreeSans" font-size="10.00" fill="#000000">compress</text>
</a>
</g>
</g>
<!-- Node31&#45;&gt;Node34 -->
<g id="edge36" class="edge">
<title>Node31&#45;&gt;Node34</title>
<path fill="none" stroke="#191970" d="M573.547,-339.7069C613.8837,-337.9605 720.4654,-334.4705 809,-341.5 835.5251,-343.6061 865.0108,-348.1369 888.3497,-352.2459"/>
<polygon fill="#191970" stroke="#191970" points="887.8156,-355.7059 898.2775,-354.0331 889.0558,-348.8166 887.8156,-355.7059"/>
</g>
<!-- Node35 -->
<g id="node35" class="node">
<title>Node35</title>
<g id="a_node35"><a xlink:href="../../d3/d4a/meix_8f.html#a6fd5f374c0445418feb50ae20b29cd30" target="_top" xlink:title="eix">
<polygon fill="none" stroke="#ff0000" points="731,-234.5 731,-254.5 762,-254.5 762,-234.5 731,-234.5"/>
<text text-anchor="middle" x="746.5" y="-241.5" font-family="FreeSans" font-size="10.00" fill="#000000">eix</text>
</a>
</g>
</g>
<!-- Node31&#45;&gt;Node35 -->
<g id="edge37" class="edge">
<title>Node31&#45;&gt;Node35</title>
<path fill="none" stroke="#191970" d="M573.5102,-340.6311C592.8912,-340.0258 625.2683,-336.5738 648,-321.5 671.4265,-305.9654 662.0178,-287.0187 684,-269.5 694.8529,-260.8508 709.0854,-254.8465 721.227,-250.8943"/>
<polygon fill="#191970" stroke="#191970" points="722.2261,-254.2488 730.8141,-248.0441 720.2313,-247.539 722.2261,-254.2488"/>
</g>
<!-- Node36 -->
<g id="node36" class="node">
<title>Node36</title>
<g id="a_node36"><a xlink:href="../../df/d1d/classFairParTSQLIo.html#a06c4cab2789b4f18c25fafe39338ca4e" target="_top" xlink:title="FairParTSQLIo::check">
<polygon fill="none" stroke="#ff0000" points="685.5,-195.5 685.5,-215.5 807.5,-215.5 807.5,-195.5 685.5,-195.5"/>
<text text-anchor="middle" x="746.5" y="-202.5" font-family="FreeSans" font-size="10.00" fill="#000000">FairParTSQLIo::check</text>
</a>
</g>
</g>
<!-- Node31&#45;&gt;Node36 -->
<g id="edge38" class="edge">
<title>Node31&#45;&gt;Node36</title>
<path fill="none" stroke="#191970" d="M573.5063,-341.5493C593.4862,-341.9087 627.0513,-339.467 648,-321.5 682.5888,-291.8342 650.9978,-256.9213 684,-225.5 685.8771,-223.7128 687.9142,-222.0853 690.068,-220.6032"/>
<polygon fill="#191970" stroke="#191970" points="691.9165,-223.5781 698.8622,-215.5776 688.4433,-217.5005 691.9165,-223.5781"/>
</g>
<!-- Node37 -->
<g id="node37" class="node">
<title>Node37</title>
<g id="a_node37"><a xlink:href="../../dc/d44/classEtmDetectorStack.html#a3f1a557e0846c8fe46f5a76bf2e8c500" target="_top" xlink:title="EtmDetectorStack::etamax">
<polygon fill="none" stroke="#ff0000" points="854.5,-311.5 854.5,-331.5 1007.5,-331.5 1007.5,-311.5 854.5,-311.5"/>
<text text-anchor="middle" x="931" y="-318.5" font-family="FreeSans" font-size="10.00" fill="#000000">EtmDetectorStack::etamax</text>
</a>
</g>
</g>
<!-- Node31&#45;&gt;Node37 -->
<g id="edge39" class="edge">
<title>Node31&#45;&gt;Node37</title>
<path fill="none" stroke="#191970" d="M573.6431,-337.8752C592.0463,-334.777 622.4697,-329.0731 648,-321.5 664.4585,-316.6179 667.1271,-310.6654 684,-307.5 738.603,-297.2564 753.5351,-304.328 809,-307.5 820.8064,-308.1752 833.2242,-309.2151 845.434,-310.4299"/>
<polygon fill="#191970" stroke="#191970" points="845.3156,-313.9363 855.6235,-311.4873 846.0382,-306.9737 845.3156,-313.9363"/>
</g>
<!-- Node38 -->
<g id="node38" class="node">
<title>Node38</title>
<g id="a_node38"><a xlink:href="../../d2/d18/medium-simple_8f.html#a58e0410e81664819969cd2981fd7cd27" target="_top" xlink:title="npart">
<polygon fill="none" stroke="#ff0000" points="724.5,-156.5 724.5,-176.5 768.5,-176.5 768.5,-156.5 724.5,-156.5"/>
<text text-anchor="middle" x="746.5" y="-163.5" font-family="FreeSans" font-size="10.00" fill="#000000">npart</text>
</a>
</g>
</g>
<!-- Node31&#45;&gt;Node38 -->
<g id="edge40" class="edge">
<title>Node31&#45;&gt;Node38</title>
<path fill="none" stroke="#191970" d="M573.8062,-341.8821C594.0883,-342.5769 627.9581,-340.4732 648,-321.5 693.0948,-278.8097 641.1821,-231.4736 684,-186.5 691.9993,-178.098 703.5235,-173.2157 714.5028,-170.3824"/>
<polygon fill="#191970" stroke="#191970" points="715.2527,-173.8013 724.3159,-168.3143 713.8091,-166.9518 715.2527,-173.8013"/>
</g>
<!-- Node39 -->
<g id="node39" class="node">
<title>Node39</title>
<g id="a_node39"><a xlink:href="../../d8/dc7/classkdfinder_1_1TVector.html#a43df24b54fc42e034041a4cc71f96b8a" target="_top" xlink:title="kdfinder::TVector::unit">
<polygon fill="none" stroke="#ff0000" points="866,-98.5 866,-118.5 996,-118.5 996,-98.5 866,-98.5"/>
<text text-anchor="middle" x="931" y="-105.5" font-family="FreeSans" font-size="10.00" fill="#000000">kdfinder::TVector::unit</text>
</a>
</g>
</g>
<!-- Node31&#45;&gt;Node39 -->
<g id="edge41" class="edge">
<title>Node31&#45;&gt;Node39</title>
<path fill="none" stroke="#191970" d="M573.6288,-342.0514C594.0513,-342.9701 628.3888,-341.1468 648,-321.5 703.7903,-265.6083 626.8509,-202.0016 684,-147.5 708.1554,-124.4636 792.4125,-115.0304 855.8522,-111.1699"/>
<polygon fill="#191970" stroke="#191970" points="856.0596,-114.6639 865.8428,-110.597 855.6588,-107.6754 856.0596,-114.6639"/>
</g>
<!-- Node40 -->
<g id="node40" class="node">
<title>Node40</title>
<g id="a_node40"><a xlink:href="../../d0/df7/scan_8C.html#a22825b39393003dd213b49c8cacd59df" target="_top" xlink:title="scan">
<polygon fill="none" stroke="#ff0000" points="911.5,-49.5 911.5,-69.5 950.5,-69.5 950.5,-49.5 911.5,-49.5"/>
<text text-anchor="middle" x="931" y="-56.5" font-family="FreeSans" font-size="10.00" fill="#000000">scan</text>
</a>
</g>
</g>
<!-- Node31&#45;&gt;Node40 -->
<g id="edge42" class="edge">
<title>Node31&#45;&gt;Node40</title>
<path fill="none" stroke="#191970" d="M573.8307,-342.2467C594.4616,-343.367 629.014,-341.7516 648,-321.5 725.6802,-238.6414 599.5881,-144.4893 684,-68.5 744.2688,-14.2448 850.1579,-35.188 901.4698,-49.8721"/>
<polygon fill="#191970" stroke="#191970" points="900.682,-53.2894 911.2651,-52.7913 902.6813,-46.5809 900.682,-53.2894"/>
</g>
<!-- Node41 -->
<g id="node41" class="node">
<title>Node41</title>
<g id="a_node41"><a xlink:href="../../d3/dd5/jewel-2_82_80_8f.html#a152ed6c9954be985f3e7368f1c19d702" target="_top" xlink:title="printtime">
<polygon fill="none" stroke="#000000" points="715.5,-.5 715.5,-20.5 777.5,-20.5 777.5,-.5 715.5,-.5"/>
<text text-anchor="middle" x="746.5" y="-7.5" font-family="FreeSans" font-size="10.00" fill="#000000">printtime</text>
</a>
</g>
</g>
<!-- Node31&#45;&gt;Node41 -->
<g id="edge43" class="edge">
<title>Node31&#45;&gt;Node41</title>
<path fill="none" stroke="#191970" d="M573.5243,-342.2753C594.1662,-343.4846 629.0685,-342.0227 648,-321.5 734.8661,-227.3326 605.6787,-136.8854 684,-35.5 689.5543,-28.3101 697.4989,-23.1815 705.87,-19.5254"/>
<polygon fill="#191970" stroke="#191970" points="707.2388,-22.7507 715.3976,-15.9917 704.8046,-16.1876 707.2388,-22.7507"/>
</g>
<!-- Node42 -->
<g id="node42" class="node">
<title>Node42</title>
<g id="a_node42"><a xlink:href="../../d3/dd5/jewel-2_82_80_8f.html#a6bf3f469e3c2d7418ebca2b76c167426" target="_top" xlink:title="printlogo">
<polygon fill="none" stroke="#000000" points="715.5,-623.5 715.5,-643.5 777.5,-643.5 777.5,-623.5 715.5,-623.5"/>
<text text-anchor="middle" x="746.5" y="-630.5" font-family="FreeSans" font-size="10.00" fill="#000000">printlogo</text>
</a>
</g>
</g>
<!-- Node31&#45;&gt;Node42 -->
<g id="edge44" class="edge">
<title>Node31&#45;&gt;Node42</title>
<path fill="none" stroke="#191970" d="M560.4835,-350.7676C575.9751,-395.8902 639.7943,-576.0446 684,-614.5 690.1366,-619.8384 697.7401,-623.6768 705.5071,-626.4368"/>
<polygon fill="#191970" stroke="#191970" points="704.7503,-629.8639 715.3344,-629.3878 706.7635,-623.1596 704.7503,-629.8639"/>
</g>
<!-- Node43 -->
<g id="node43" class="node">
<title>Node43</title>
<g id="a_node43"><a xlink:href="../../db/da1/classFairLogger.html#aca7a4fd0af5e622c9635f62996a7334d" target="_top" xlink:title="Flush the streams.">
<polygon fill="none" stroke="#000000" points="696.5,-584.5 696.5,-604.5 796.5,-604.5 796.5,-584.5 696.5,-584.5"/>
<text text-anchor="middle" x="746.5" y="-591.5" font-family="FreeSans" font-size="10.00" fill="#000000">FairLogger::flush</text>
</a>
</g>
</g>
<!-- Node31&#45;&gt;Node43 -->
<g id="edge45" class="edge">
<title>Node31&#45;&gt;Node43</title>
<path fill="none" stroke="#191970" d="M559.5193,-350.7661C569.007,-387.2431 606.0813,-511.8136 684,-575.5 685.7837,-576.9579 687.6777,-578.304 689.6535,-579.5469"/>
<polygon fill="#191970" stroke="#191970" points="688.2745,-582.7771 698.7501,-584.3623 691.5495,-576.5904 688.2745,-582.7771"/>
</g>
<!-- Node44 -->
<g id="node44" class="node">
<title>Node44</title>
<g id="a_node44"><a xlink:href="../../d2/d18/medium-simple_8f.html#adadf3a87d352de8d415a50a0aa704771" target="_top" xlink:title="medinit">
<polygon fill="none" stroke="#ff0000" points="719,-78.5 719,-98.5 774,-98.5 774,-78.5 719,-78.5"/>
<text text-anchor="middle" x="746.5" y="-85.5" font-family="FreeSans" font-size="10.00" fill="#000000">medinit</text>
</a>
</g>
</g>
<!-- Node31&#45;&gt;Node44 -->
<g id="edge46" class="edge">
<title>Node31&#45;&gt;Node44</title>
<path fill="none" stroke="#191970" d="M573.7332,-342.1539C594.2634,-343.1784 628.7121,-341.4642 648,-321.5 713.1873,-254.0271 624.9465,-186.4017 684,-113.5 690.3877,-105.6144 699.6331,-100.202 709.0625,-96.4922"/>
<polygon fill="#191970" stroke="#191970" points="710.4764,-99.7097 718.8436,-93.2103 708.2496,-93.0733 710.4764,-99.7097"/>
</g>
<!-- Node45 -->
<g id="node45" class="node">
<title>Node45</title>
<g id="a_node45"><a xlink:href="../../d2/d18/medium-simple_8f.html#a4cb6e969ad6295a9ec499dd59e4fefa1" target="_top" xlink:title="mednextevt">
<polygon fill="none" stroke="#ff0000" points="707.5,-545.5 707.5,-565.5 785.5,-565.5 785.5,-545.5 707.5,-545.5"/>
<text text-anchor="middle" x="746.5" y="-552.5" font-family="FreeSans" font-size="10.00" fill="#000000">mednextevt</text>
</a>
</g>
</g>
<!-- Node31&#45;&gt;Node45 -->
<g id="edge49" class="edge">
<title>Node31&#45;&gt;Node45</title>
<path fill="none" stroke="#191970" d="M560.7064,-350.8343C572.9052,-383.36 615.0117,-484.5441 684,-536.5 688.1956,-539.6597 692.9186,-542.298 697.8409,-544.5002"/>
<polygon fill="#191970" stroke="#191970" points="696.8768,-547.8798 707.4662,-548.2199 699.4001,-541.3504 696.8768,-547.8798"/>
</g>
<!-- Node46 -->
<g id="node46" class="node">
<title>Node46</title>
<g id="a_node46"><a xlink:href="../../d3/dd5/jewel-2_82_80_8f.html#a2d3897d6d748d346b4094491ef86a9da" target="_top" xlink:title="eixint">
<polygon fill="none" stroke="#ff0000" points="724,-506.5 724,-526.5 769,-526.5 769,-506.5 724,-506.5"/>
<text text-anchor="middle" x="746.5" y="-513.5" font-family="FreeSans" font-size="10.00" fill="#000000">eixint</text>
</a>
</g>
</g>
<!-- Node31&#45;&gt;Node46 -->
<g id="edge50" class="edge">
<title>Node31&#45;&gt;Node46</title>
<path fill="none" stroke="#191970" d="M562.3419,-350.6914C577.4817,-378.5761 623.524,-456.755 684,-497.5 692.9587,-503.5358 703.9032,-507.7104 714.1155,-510.5733"/>
<polygon fill="#191970" stroke="#191970" points="713.4347,-514.0104 723.983,-513.0192 715.1189,-507.216 713.4347,-514.0104"/>
</g>
<!-- Node47 -->
<g id="node47" class="node">
<title>Node47</title>
<g id="a_node47"><a xlink:href="../../d3/dd5/jewel-2_82_80_8f.html#a62047f8869694c81ff2deae6f8aa2479" target="_top" xlink:title="insudaint">
<polygon fill="none" stroke="#ff0000" points="714.5,-389.5 714.5,-409.5 778.5,-409.5 778.5,-389.5 714.5,-389.5"/>
<text text-anchor="middle" x="746.5" y="-396.5" font-family="FreeSans" font-size="10.00" fill="#000000">insudaint</text>
</a>
</g>
</g>
<!-- Node31&#45;&gt;Node47 -->
<g id="edge51" class="edge">
<title>Node31&#45;&gt;Node47</title>
<path fill="none" stroke="#191970" d="M573.8287,-345.8593C598.1299,-353.5848 644.4713,-368.267 684,-380.5 690.624,-382.5499 697.649,-384.7045 704.5056,-386.7967"/>
<polygon fill="#191970" stroke="#191970" points="703.7786,-390.2339 714.3645,-389.798 705.8173,-383.5374 703.7786,-390.2339"/>
</g>
<!-- Node48 -->
<g id="node48" class="node">
<title>Node48</title>
<g id="a_node48"><a xlink:href="../../d3/dd5/jewel-2_82_80_8f.html#ae02c7535fcec507ceebd0db60e97f9ae" target="_top" xlink:title="splitfncint">
<polygon fill="none" stroke="#ff0000" points="713,-350.5 713,-370.5 780,-370.5 780,-350.5 713,-350.5"/>
<text text-anchor="middle" x="746.5" y="-357.5" font-family="FreeSans" font-size="10.00" fill="#000000">splitfncint</text>
</a>
</g>
</g>
<!-- Node31&#45;&gt;Node48 -->
<g id="edge55" class="edge">
<title>Node31&#45;&gt;Node48</title>
<path fill="none" stroke="#191970" d="M573.8169,-342.2749C602.5425,-345.3066 661.9314,-351.5746 702.9787,-355.9067"/>
<polygon fill="#191970" stroke="#191970" points="702.6772,-359.3943 712.9894,-356.9633 703.412,-352.4329 702.6772,-359.3943"/>
</g>
<!-- Node44&#45;&gt;Node39 -->
<g id="edge47" class="edge">
<title>Node44&#45;&gt;Node39</title>
<path fill="none" stroke="#191970" d="M774.1215,-91.4942C795.7032,-93.8337 826.7687,-97.2012 855.5701,-100.3233"/>
<polygon fill="#191970" stroke="#191970" points="855.3249,-103.8172 865.6439,-101.4153 856.0793,-96.8579 855.3249,-103.8172"/>
</g>
<!-- Node44&#45;&gt;Node40 -->
<g id="edge48" class="edge">
<title>Node44&#45;&gt;Node40</title>
<path fill="none" stroke="#191970" d="M774.1215,-84.1584C808.2847,-78.7886 866.2123,-69.6834 901.3053,-64.1675"/>
<polygon fill="#191970" stroke="#191970" points="902.0763,-67.5893 911.4115,-62.5789 900.9893,-60.6742 902.0763,-67.5893"/>
</g>
<!-- Node47&#45;&gt;Node33 -->
<g id="edge52" class="edge">
<title>Node47&#45;&gt;Node33</title>
<path fill="none" stroke="#191970" d="M778.6374,-400.5451C794.447,-401.0593 814.4285,-401.7091 834.6724,-402.3674"/>
<polygon fill="#191970" stroke="#191970" points="834.8281,-405.8742 844.9366,-402.7012 835.0557,-398.8779 834.8281,-405.8742"/>
</g>
<!-- Node47&#45;&gt;Node34 -->
<g id="edge53" class="edge">
<title>Node47&#45;&gt;Node34</title>
<path fill="none" stroke="#191970" d="M778.6374,-392.7067C809.0458,-386.2789 854.8887,-376.5886 888.3459,-369.5163"/>
<polygon fill="#191970" stroke="#191970" points="889.2407,-372.9046 898.3007,-367.4121 887.793,-366.0559 889.2407,-372.9046"/>
</g>
<!-- Node47&#45;&gt;Node37 -->
<g id="edge54" class="edge">
<title>Node47&#45;&gt;Node37</title>
<path fill="none" stroke="#191970" d="M778.7376,-393.201C788.9132,-390.3178 799.8731,-386.2253 809,-380.5 828.9828,-367.9648 824.6107,-353.3627 845,-341.5 849.1695,-339.0741 853.6134,-336.9425 858.2013,-335.0693"/>
<polygon fill="#191970" stroke="#191970" points="859.5836,-338.2908 867.779,-331.5761 857.185,-331.7145 859.5836,-338.2908"/>
</g>
<!-- Node48&#45;&gt;Node33 -->
<g id="edge56" class="edge">
<title>Node48&#45;&gt;Node33</title>
<path fill="none" stroke="#191970" d="M780.3401,-368.7537C801.3722,-373.8835 829.2854,-380.6916 855.3661,-387.0527"/>
<polygon fill="#191970" stroke="#191970" points="854.7094,-390.4951 865.2539,-389.4644 856.3681,-383.6944 854.7094,-390.4951"/>
</g>
<!-- Node48&#45;&gt;Node34 -->
<g id="edge57" class="edge">
<title>Node48&#45;&gt;Node34</title>
<path fill="none" stroke="#191970" d="M780.3401,-360.5C810.6605,-360.5 855.2821,-360.5 888.0975,-360.5"/>
<polygon fill="#191970" stroke="#191970" points="888.304,-364.0001 898.304,-360.5 888.3039,-357.0001 888.304,-364.0001"/>
</g>
<!-- Node48&#45;&gt;Node37 -->
<g id="edge58" class="edge">
<title>Node48&#45;&gt;Node37</title>
<path fill="none" stroke="#191970" d="M780.3401,-353.3468C806.3234,-347.8544 842.8089,-340.142 873.367,-333.6826"/>
<polygon fill="#191970" stroke="#191970" points="874.4192,-337.0376 883.4792,-331.5451 872.9715,-330.1889 874.4192,-337.0376"/>
</g>
</g>
</svg>
