<?xml version="1.0" encoding="UTF-8" standalone="no"?>
<!DOCTYPE svg PUBLIC "-//W3C//DTD SVG 1.1//EN"
 "http://www.w3.org/Graphics/SVG/1.1/DTD/svg11.dtd">
<!-- Generated by graphviz version 2.40.1 (20161225.0304)
 -->
<!-- Title: Acts::ProtoLayer::measure Pages: 1 -->
<svg width="829pt" height="656pt"
 viewBox="0.00 0.00 829.00 656.00" xmlns="http://www.w3.org/2000/svg" xmlns:xlink="http://www.w3.org/1999/xlink">
<g id="graph0" class="graph" transform="scale(1 1) rotate(0) translate(4 652)">
<title>Acts::ProtoLayer::measure</title>
<!-- Node1 -->
<g id="node1" class="node">
<title>Node1</title>
<polygon fill="#bfbfbf" stroke="#000000" points="0,-313.5 0,-333.5 150,-333.5 150,-313.5 0,-313.5"/>
<text text-anchor="middle" x="75" y="-320.5" font-family="FreeSans" font-size="10.00" fill="#000000">Acts::ProtoLayer::measure</text>
</g>
<!-- Node2 -->
<g id="node2" class="node">
<title>Node2</title>
<g id="a_node2"><a xlink:href="../../d6/dd9/classActs_1_1CylinderSurface.html#ac0686708118f62c6f99967b864800f35" target="_top" xlink:title="This method returns the CylinderBounds by reference.">
<polygon fill="none" stroke="#000000" points="201.5,-615.5 201.5,-647.5 327.5,-647.5 327.5,-615.5 201.5,-615.5"/>
<text text-anchor="start" x="209.5" y="-634.5" font-family="FreeSans" font-size="10.00" fill="#000000">Acts::CylinderSurface</text>
<text text-anchor="middle" x="264.5" y="-622.5" font-family="FreeSans" font-size="10.00" fill="#000000">::bounds</text>
</a>
</g>
</g>
<!-- Node1&#45;&gt;Node2 -->
<g id="edge1" class="edge">
<title>Node1&#45;&gt;Node2</title>
<path fill="none" stroke="#191970" d="M75.9116,-333.7277C80.0942,-374.4836 101.064,-526.9504 186,-606.5 187.9639,-608.3393 190.0631,-610.0434 192.267,-611.622"/>
<polygon fill="#191970" stroke="#191970" points="190.8678,-614.8695 201.2229,-617.1105 194.5255,-608.9011 190.8678,-614.8695"/>
</g>
<!-- Node3 -->
<g id="node3" class="node">
<title>Node3</title>
<g id="a_node3"><a xlink:href="../../de/d7d/classActs_1_1Surface.html#ae87d78911446cadd1c13f3172011c221" target="_top" xlink:title="Acts::Surface::center">
<polygon fill="none" stroke="#000000" points="203,-576.5 203,-596.5 326,-596.5 326,-576.5 203,-576.5"/>
<text text-anchor="middle" x="264.5" y="-583.5" font-family="FreeSans" font-size="10.00" fill="#000000">Acts::Surface::center</text>
</a>
</g>
</g>
<!-- Node1&#45;&gt;Node3 -->
<g id="edge2" class="edge">
<title>Node1&#45;&gt;Node3</title>
<path fill="none" stroke="#191970" d="M76.4019,-333.5031C82.1742,-370.7703 107.6178,-502.7205 186,-567.5 188.4083,-569.4903 190.992,-571.2781 193.7023,-572.8836"/>
<polygon fill="#191970" stroke="#191970" points="192.2224,-576.0568 202.7298,-577.415 195.3627,-569.8008 192.2224,-576.0568"/>
</g>
<!-- Node4 -->
<g id="node4" class="node">
<title>Node4</title>
<g id="a_node4"><a xlink:href="../../da/d0a/classActs_1_1CylinderBounds.html#a87f7f0a9088eb074ac6c1e63862db251" target="_top" xlink:title="Acts::CylinderBounds::get">
<polygon fill="none" stroke="#000000" points="190,-537.5 190,-557.5 339,-557.5 339,-537.5 190,-537.5"/>
<text text-anchor="middle" x="264.5" y="-544.5" font-family="FreeSans" font-size="10.00" fill="#000000">Acts::CylinderBounds::get</text>
</a>
</g>
</g>
<!-- Node1&#45;&gt;Node4 -->
<g id="edge3" class="edge">
<title>Node1&#45;&gt;Node4</title>
<path fill="none" stroke="#191970" d="M77.3234,-333.5063C85.6204,-366.905 117.0451,-475.4243 186,-528.5 188.0417,-530.0716 190.1948,-531.5154 192.4327,-532.8418"/>
<polygon fill="#191970" stroke="#191970" points="190.9264,-536.0021 201.429,-537.3969 194.0885,-529.757 190.9264,-536.0021"/>
</g>
<!-- Node5 -->
<g id="node5" class="node">
<title>Node5</title>
<g id="a_node5"><a xlink:href="../../df/da1/namespaceActs_1_1VectorHelpers.html#a9d0d7e35444d5f4a0ae7accb0a2c70db" target="_top" xlink:title="Acts::VectorHelpers\l::perp">
<polygon fill="none" stroke="#000000" points="206.5,-486.5 206.5,-518.5 322.5,-518.5 322.5,-486.5 206.5,-486.5"/>
<text text-anchor="start" x="214.5" y="-505.5" font-family="FreeSans" font-size="10.00" fill="#000000">Acts::VectorHelpers</text>
<text text-anchor="middle" x="264.5" y="-493.5" font-family="FreeSans" font-size="10.00" fill="#000000">::perp</text>
</a>
</g>
</g>
<!-- Node1&#45;&gt;Node5 -->
<g id="edge4" class="edge">
<title>Node1&#45;&gt;Node5</title>
<path fill="none" stroke="#191970" d="M79.5725,-333.8651C92.2814,-361.4823 130.7662,-437.4572 186,-477.5 189.4523,-480.0028 193.1651,-482.2617 197.0309,-484.2996"/>
<polygon fill="#191970" stroke="#191970" points="195.7411,-487.561 206.2783,-488.6643 198.729,-481.2307 195.7411,-487.561"/>
</g>
<!-- Node6 -->
<g id="node6" class="node">
<title>Node6</title>
<g id="a_node6"><a xlink:href="../../dc/db4/classActs_1_1AnnulusBounds.html#ac1878d86f99ce38d7e483571ba557039" target="_top" xlink:title="Returns the left angular edge of the module.">
<polygon fill="none" stroke="#000000" points="202.5,-435.5 202.5,-467.5 326.5,-467.5 326.5,-435.5 202.5,-435.5"/>
<text text-anchor="start" x="210.5" y="-454.5" font-family="FreeSans" font-size="10.00" fill="#000000">Acts::AnnulusBounds</text>
<text text-anchor="middle" x="264.5" y="-442.5" font-family="FreeSans" font-size="10.00" fill="#000000">::phiMax</text>
</a>
</g>
</g>
<!-- Node1&#45;&gt;Node6 -->
<g id="edge5" class="edge">
<title>Node1&#45;&gt;Node6</title>
<path fill="none" stroke="#191970" d="M83.0998,-333.5424C100.0719,-353.9511 141.4946,-400.5326 186,-426.5 188.9939,-428.2468 192.1244,-429.887 195.3389,-431.425"/>
<polygon fill="#191970" stroke="#191970" points="194.0139,-434.6658 204.5764,-435.4927 196.8349,-428.2594 194.0139,-434.6658"/>
</g>
<!-- Node7 -->
<g id="node7" class="node">
<title>Node7</title>
<g id="a_node7"><a xlink:href="../../dc/db4/classActs_1_1AnnulusBounds.html#aedbb0ff112ed2d2d39e8265805774759" target="_top" xlink:title="Returns the right angular edge of the module.">
<polygon fill="none" stroke="#000000" points="202.5,-384.5 202.5,-416.5 326.5,-416.5 326.5,-384.5 202.5,-384.5"/>
<text text-anchor="start" x="210.5" y="-403.5" font-family="FreeSans" font-size="10.00" fill="#000000">Acts::AnnulusBounds</text>
<text text-anchor="middle" x="264.5" y="-391.5" font-family="FreeSans" font-size="10.00" fill="#000000">::phiMin</text>
</a>
</g>
</g>
<!-- Node1&#45;&gt;Node7 -->
<g id="edge6" class="edge">
<title>Node1&#45;&gt;Node7</title>
<path fill="none" stroke="#191970" d="M94.7116,-333.6875C116.6436,-344.7964 153.3041,-362.6975 186,-375.5 190.9944,-377.4556 196.21,-379.3747 201.4748,-381.2261"/>
<polygon fill="#191970" stroke="#191970" points="200.373,-384.5482 210.9676,-384.4786 202.642,-377.9261 200.373,-384.5482"/>
</g>
<!-- Node8 -->
<g id="node8" class="node">
<title>Node8</title>
<g id="a_node8"><a xlink:href="../../d6/dd9/classActs_1_1CylinderSurface.html#aed97f0dabdf0c3b1428e8c582fda6693" target="_top" xlink:title="Acts::CylinderSurface\l::polyhedronRepresentation">
<polygon fill="none" stroke="#000000" points="186,-333.5 186,-365.5 343,-365.5 343,-333.5 186,-333.5"/>
<text text-anchor="start" x="194" y="-352.5" font-family="FreeSans" font-size="10.00" fill="#000000">Acts::CylinderSurface</text>
<text text-anchor="middle" x="264.5" y="-340.5" font-family="FreeSans" font-size="10.00" fill="#000000">::polyhedronRepresentation</text>
</a>
</g>
</g>
<!-- Node1&#45;&gt;Node8 -->
<g id="edge7" class="edge">
<title>Node1&#45;&gt;Node8</title>
<path fill="none" stroke="#191970" d="M147.9946,-333.5151C157.1062,-334.7652 166.5016,-336.0543 175.8185,-337.3326"/>
<polygon fill="#191970" stroke="#191970" points="175.4973,-340.8213 185.8802,-338.7131 176.4488,-333.8862 175.4973,-340.8213"/>
</g>
<!-- Node15 -->
<g id="node15" class="node">
<title>Node15</title>
<g id="a_node15"><a xlink:href="../../db/d76/structActs_1_1ProtoLayer.html#ad40ddfc0c7e4fde900ef4c1ad820c7d7" target="_top" xlink:title="Acts::ProtoLayer::radial\lDistance">
<polygon fill="none" stroke="#000000" points="197.5,-282.5 197.5,-314.5 331.5,-314.5 331.5,-282.5 197.5,-282.5"/>
<text text-anchor="start" x="205.5" y="-301.5" font-family="FreeSans" font-size="10.00" fill="#000000">Acts::ProtoLayer::radial</text>
<text text-anchor="middle" x="264.5" y="-289.5" font-family="FreeSans" font-size="10.00" fill="#000000">Distance</text>
</a>
</g>
</g>
<!-- Node1&#45;&gt;Node15 -->
<g id="edge14" class="edge">
<title>Node1&#45;&gt;Node15</title>
<path fill="none" stroke="#191970" d="M150.1676,-313.5834C162.3578,-311.9752 175.0003,-310.3074 187.2394,-308.6927"/>
<polygon fill="#191970" stroke="#191970" points="187.9503,-312.1293 197.4066,-307.3514 187.0347,-305.1895 187.9503,-312.1293"/>
</g>
<!-- Node16 -->
<g id="node16" class="node">
<title>Node16</title>
<g id="a_node16"><a xlink:href="../../dc/db4/classActs_1_1AnnulusBounds.html#ae125983dd6d6d7eb7c3eb8975e1bb08a" target="_top" xlink:title="This method returns outer radius.">
<polygon fill="none" stroke="#000000" points="202.5,-231.5 202.5,-263.5 326.5,-263.5 326.5,-231.5 202.5,-231.5"/>
<text text-anchor="start" x="210.5" y="-250.5" font-family="FreeSans" font-size="10.00" fill="#000000">Acts::AnnulusBounds</text>
<text text-anchor="middle" x="264.5" y="-238.5" font-family="FreeSans" font-size="10.00" fill="#000000">::rMax</text>
</a>
</g>
</g>
<!-- Node1&#45;&gt;Node16 -->
<g id="edge15" class="edge">
<title>Node1&#45;&gt;Node16</title>
<path fill="none" stroke="#191970" d="M95.1371,-313.341C117.1344,-302.4587 153.567,-285.0611 186,-272.5 191.0016,-270.5629 196.2223,-268.6569 201.4906,-266.8144"/>
<polygon fill="#191970" stroke="#191970" points="202.6541,-270.1156 210.9879,-263.5736 200.3934,-263.4907 202.6541,-270.1156"/>
</g>
<!-- Node17 -->
<g id="node17" class="node">
<title>Node17</title>
<g id="a_node17"><a xlink:href="../../dc/db4/classActs_1_1AnnulusBounds.html#abc8ae96c4bfd53afe6d10e74b03d2b98" target="_top" xlink:title="This method returns inner radius.">
<polygon fill="none" stroke="#000000" points="202.5,-180.5 202.5,-212.5 326.5,-212.5 326.5,-180.5 202.5,-180.5"/>
<text text-anchor="start" x="210.5" y="-199.5" font-family="FreeSans" font-size="10.00" fill="#000000">Acts::AnnulusBounds</text>
<text text-anchor="middle" x="264.5" y="-187.5" font-family="FreeSans" font-size="10.00" fill="#000000">::rMin</text>
</a>
</g>
</g>
<!-- Node1&#45;&gt;Node17 -->
<g id="edge16" class="edge">
<title>Node1&#45;&gt;Node17</title>
<path fill="none" stroke="#191970" d="M83.3847,-313.2485C100.5595,-292.8877 141.8576,-247.112 186,-221.5 188.9981,-219.7605 192.1321,-218.1262 195.3493,-216.593"/>
<polygon fill="#191970" stroke="#191970" points="196.8429,-219.7598 204.5928,-212.5356 194.0293,-213.3501 196.8429,-219.7598"/>
</g>
<!-- Node18 -->
<g id="node18" class="node">
<title>Node18</title>
<g id="a_node18"><a xlink:href="../../d7/de6/classActs_1_1DetectorElementBase.html#af320e4e3baf51fbd6a67aab984b9d3ad" target="_top" xlink:title="Acts::DetectorElementBase\l::thickness">
<polygon fill="none" stroke="#000000" points="187,-129.5 187,-161.5 342,-161.5 342,-129.5 187,-129.5"/>
<text text-anchor="start" x="195" y="-148.5" font-family="FreeSans" font-size="10.00" fill="#000000">Acts::DetectorElementBase</text>
<text text-anchor="middle" x="264.5" y="-136.5" font-family="FreeSans" font-size="10.00" fill="#000000">::thickness</text>
</a>
</g>
</g>
<!-- Node1&#45;&gt;Node18 -->
<g id="edge17" class="edge">
<title>Node1&#45;&gt;Node18</title>
<path fill="none" stroke="#191970" d="M79.5916,-313.2026C92.3481,-285.7659 130.9404,-210.2867 186,-170.5 188.0795,-168.9973 190.253,-167.5825 192.497,-166.2506"/>
<polygon fill="#191970" stroke="#191970" points="194.2497,-169.2831 201.4532,-161.5139 190.9771,-163.0952 194.2497,-169.2831"/>
</g>
<!-- Node19 -->
<g id="node19" class="node">
<title>Node19</title>
<g id="a_node19"><a xlink:href="../../de/d7d/classActs_1_1Surface.html#ace4cf8a84a10d848c64dfb5347af57d4" target="_top" xlink:title="Acts::Surface::transform">
<polygon fill="none" stroke="#000000" points="194.5,-90.5 194.5,-110.5 334.5,-110.5 334.5,-90.5 194.5,-90.5"/>
<text text-anchor="middle" x="264.5" y="-97.5" font-family="FreeSans" font-size="10.00" fill="#000000">Acts::Surface::transform</text>
</a>
</g>
</g>
<!-- Node1&#45;&gt;Node19 -->
<g id="edge18" class="edge">
<title>Node1&#45;&gt;Node19</title>
<path fill="none" stroke="#191970" d="M77.4572,-313.073C85.9808,-279.2996 117.5707,-172.0596 186,-119.5 188.0434,-117.9305 190.1978,-116.4885 192.4369,-115.1636"/>
<polygon fill="#191970" stroke="#191970" points="194.0919,-118.2488 201.4367,-110.6131 190.9333,-112.002 194.0919,-118.2488"/>
</g>
<!-- Node20 -->
<g id="node20" class="node">
<title>Node20</title>
<g id="a_node20"><a xlink:href="../../d1/d47/classActs_1_1PlanarBounds.html#aa74e714dcbcb1cd5bc966cea1977b1fe" target="_top" xlink:title="Acts::PlanarBounds\l::vertices">
<polygon fill="none" stroke="#000000" points="207,-39.5 207,-71.5 322,-71.5 322,-39.5 207,-39.5"/>
<text text-anchor="start" x="215" y="-58.5" font-family="FreeSans" font-size="10.00" fill="#000000">Acts::PlanarBounds</text>
<text text-anchor="middle" x="264.5" y="-46.5" font-family="FreeSans" font-size="10.00" fill="#000000">::vertices</text>
</a>
</g>
</g>
<!-- Node1&#45;&gt;Node20 -->
<g id="edge19" class="edge">
<title>Node1&#45;&gt;Node20</title>
<path fill="none" stroke="#191970" d="M76.61,-313.4606C83.046,-276.6258 110.3406,-147.573 186,-80.5 189.465,-77.4282 193.3091,-74.7336 197.381,-72.3697"/>
<polygon fill="#191970" stroke="#191970" points="199.2572,-75.343 206.6001,-67.7055 196.0971,-69.0969 199.2572,-75.343"/>
</g>
<!-- Node21 -->
<g id="node21" class="node">
<title>Node21</title>
<g id="a_node21"><a xlink:href="../../d5/dbe/EIC-IR1-XX-v00_8C.html#a888f39f7254b5b59976d577091d79a4e" target="_top" xlink:title="vtx">
<polygon fill="none" stroke="#000000" points="248.5,-.5 248.5,-20.5 280.5,-20.5 280.5,-.5 248.5,-.5"/>
<text text-anchor="middle" x="264.5" y="-7.5" font-family="FreeSans" font-size="10.00" fill="#000000">vtx</text>
</a>
</g>
</g>
<!-- Node1&#45;&gt;Node21 -->
<g id="edge20" class="edge">
<title>Node1&#45;&gt;Node21</title>
<path fill="none" stroke="#191970" d="M75.5701,-313.2801C78.4924,-271.1636 95.4366,-109.5139 186,-29.5 200.223,-16.9338 221.3501,-12.3443 238.1048,-10.8093"/>
<polygon fill="#191970" stroke="#191970" points="238.5967,-14.2861 248.3671,-10.1886 238.174,-7.2988 238.5967,-14.2861"/>
</g>
<!-- Node9 -->
<g id="node9" class="node">
<title>Node9</title>
<g id="a_node9"><a xlink:href="../../dc/dba/namespaceActs_1_1detail_1_1VerticesHelper.html#a3014827c242333f099b58502dbb60e44" target="_top" xlink:title="Acts::detail::VerticesHelper\l::phiSegments">
<polygon fill="none" stroke="#000000" points="379,-384.5 379,-416.5 534,-416.5 534,-384.5 379,-384.5"/>
<text text-anchor="start" x="387" y="-403.5" font-family="FreeSans" font-size="10.00" fill="#000000">Acts::detail::VerticesHelper</text>
<text text-anchor="middle" x="456.5" y="-391.5" font-family="FreeSans" font-size="10.00" fill="#000000">::phiSegments</text>
</a>
</g>
</g>
<!-- Node8&#45;&gt;Node9 -->
<g id="edge8" class="edge">
<title>Node8&#45;&gt;Node9</title>
<path fill="none" stroke="#191970" d="M324.9865,-365.5667C344.4457,-370.7356 366.1712,-376.5064 386.2693,-381.845"/>
<polygon fill="#191970" stroke="#191970" points="385.4244,-385.2418 395.9878,-384.4264 387.2215,-378.4765 385.4244,-385.2418"/>
</g>
<!-- Node10 -->
<g id="node10" class="node">
<title>Node10</title>
<g id="a_node10"><a xlink:href="../../dc/dba/namespaceActs_1_1detail_1_1VerticesHelper.html#a8ebff4d060d1d1fb3e53963c0182c938" target="_top" xlink:title="Acts::detail::VerticesHelper\l::createSegment">
<polygon fill="none" stroke="#000000" points="379,-333.5 379,-365.5 534,-365.5 534,-333.5 379,-333.5"/>
<text text-anchor="start" x="387" y="-352.5" font-family="FreeSans" font-size="10.00" fill="#000000">Acts::detail::VerticesHelper</text>
<text text-anchor="middle" x="456.5" y="-340.5" font-family="FreeSans" font-size="10.00" fill="#000000">::createSegment</text>
</a>
</g>
</g>
<!-- Node8&#45;&gt;Node10 -->
<g id="edge9" class="edge">
<title>Node8&#45;&gt;Node10</title>
<path fill="none" stroke="#191970" d="M343.1477,-349.5C351.6333,-349.5 360.3059,-349.5 368.8885,-349.5"/>
<polygon fill="#191970" stroke="#191970" points="368.9057,-353.0001 378.9057,-349.5 368.9056,-346.0001 368.9057,-353.0001"/>
</g>
<!-- Node14 -->
<g id="node14" class="node">
<title>Node14</title>
<g id="a_node14"><a xlink:href="../../da/d6e/structActs_1_1detail_1_1FacesHelper.html#a1da2d66e5f92b146dd8105bc69bf28c2" target="_top" xlink:title="This method works for all concentric type surface setups It includes :">
<polygon fill="none" stroke="#000000" points="385,-282.5 385,-314.5 528,-314.5 528,-282.5 385,-282.5"/>
<text text-anchor="start" x="393" y="-301.5" font-family="FreeSans" font-size="10.00" fill="#000000">Acts::detail::FacesHelper</text>
<text text-anchor="middle" x="456.5" y="-289.5" font-family="FreeSans" font-size="10.00" fill="#000000">::cylindricalFaceMesh</text>
</a>
</g>
</g>
<!-- Node8&#45;&gt;Node14 -->
<g id="edge13" class="edge">
<title>Node8&#45;&gt;Node14</title>
<path fill="none" stroke="#191970" d="M324.9865,-333.4333C344.4457,-328.2644 366.1712,-322.4936 386.2693,-317.155"/>
<polygon fill="#191970" stroke="#191970" points="387.2215,-320.5235 395.9878,-314.5736 385.4244,-313.7582 387.2215,-320.5235"/>
</g>
<!-- Node11 -->
<g id="node11" class="node">
<title>Node11</title>
<g id="a_node11"><a xlink:href="../../df/d28/namespacekdfinder.html#ab72d428625e99a2d7380eb7691c246c7" target="_top" xlink:title="kdfinder::abs">
<polygon fill="none" stroke="#000000" points="570,-358.5 570,-378.5 653,-378.5 653,-358.5 570,-358.5"/>
<text text-anchor="middle" x="611.5" y="-365.5" font-family="FreeSans" font-size="10.00" fill="#000000">kdfinder::abs</text>
</a>
</g>
</g>
<!-- Node10&#45;&gt;Node11 -->
<g id="edge10" class="edge">
<title>Node10&#45;&gt;Node11</title>
<path fill="none" stroke="#191970" d="M534.4541,-359.0557C543.0411,-360.1083 551.6207,-361.16 559.7712,-362.159"/>
<polygon fill="#191970" stroke="#191970" points="559.4823,-365.6497 569.8338,-363.3925 560.334,-358.7018 559.4823,-365.6497"/>
</g>
<!-- Node13 -->
<g id="node13" class="node">
<title>Node13</title>
<g id="a_node13"><a xlink:href="../../df/de8/cemc_8C.html#a72d4716092b469b4bc1d816359a90e14" target="_top" xlink:title="cos">
<polygon fill="none" stroke="#000000" points="595,-319.5 595,-339.5 628,-339.5 628,-319.5 595,-319.5"/>
<text text-anchor="middle" x="611.5" y="-326.5" font-family="FreeSans" font-size="10.00" fill="#000000">cos</text>
</a>
</g>
</g>
<!-- Node10&#45;&gt;Node13 -->
<g id="edge12" class="edge">
<title>Node10&#45;&gt;Node13</title>
<path fill="none" stroke="#191970" d="M534.4541,-339.4414C552.5964,-337.1005 570.7055,-334.7638 584.8045,-332.9446"/>
<polygon fill="#191970" stroke="#191970" points="585.2686,-336.4138 594.7385,-331.6628 584.3728,-329.4714 585.2686,-336.4138"/>
</g>
<!-- Node12 -->
<g id="node12" class="node">
<title>Node12</title>
<g id="a_node12"><a xlink:href="../../d8/dc7/classkdfinder_1_1TVector.html#ac9649c7577f12a7502ed523260f4ee90" target="_top" xlink:title="kdfinder::TVector::mag">
<polygon fill="none" stroke="#000000" points="689,-358.5 689,-378.5 821,-378.5 821,-358.5 689,-358.5"/>
<text text-anchor="middle" x="755" y="-365.5" font-family="FreeSans" font-size="10.00" fill="#000000">kdfinder::TVector::mag</text>
</a>
</g>
</g>
<!-- Node11&#45;&gt;Node12 -->
<g id="edge11" class="edge">
<title>Node11&#45;&gt;Node12</title>
<path fill="none" stroke="#191970" d="M653.0061,-368.5C661.1854,-368.5 670.0065,-368.5 678.917,-368.5"/>
<polygon fill="#191970" stroke="#191970" points="678.9858,-372.0001 688.9858,-368.5 678.9857,-365.0001 678.9858,-372.0001"/>
</g>
</g>
</svg>
