<?xml version="1.0" encoding="UTF-8" standalone="no"?>
<!DOCTYPE svg PUBLIC "-//W3C//DTD SVG 1.1//EN"
 "http://www.w3.org/Graphics/SVG/1.1/DTD/svg11.dtd">
<!-- Generated by graphviz version 2.40.1 (20161225.0304)
 -->
<!-- Title: GFBookkeeping::getGFDetPlaneKeys Pages: 1 -->
<svg width="1442pt" height="138pt"
 viewBox="0.00 0.00 1442.00 138.00" xmlns="http://www.w3.org/2000/svg" xmlns:xlink="http://www.w3.org/1999/xlink">
<g id="graph0" class="graph" transform="scale(1 1) rotate(0) translate(4 134)">
<title>GFBookkeeping::getGFDetPlaneKeys</title>
<!-- Node1 -->
<g id="node1" class="node">
<title>Node1</title>
<polygon fill="#bfbfbf" stroke="#000000" points="0,-89.5 0,-109.5 202,-109.5 202,-89.5 0,-89.5"/>
<text text-anchor="middle" x="101" y="-96.5" font-family="FreeSans" font-size="10.00" fill="#000000">GFBookkeeping::getGFDetPlaneKeys</text>
</g>
<!-- Node2 -->
<g id="node2" class="node">
<title>Node2</title>
<g id="a_node2"><a xlink:href="../../d6/deb/classGFBookkeeping.html#aea5f24bbeefe7a189658aa56261cb6df" target="_top" xlink:title="GFBookkeeping::Print">
<polygon fill="none" stroke="#000000" points="239,-109.5 239,-129.5 365,-129.5 365,-109.5 239,-109.5"/>
<text text-anchor="middle" x="302" y="-116.5" font-family="FreeSans" font-size="10.00" fill="#000000">GFBookkeeping::Print</text>
</a>
</g>
</g>
<!-- Node1&#45;&gt;Node2 -->
<g id="edge1" class="edge">
<title>Node1&#45;&gt;Node2</title>
<path fill="none" stroke="#191970" d="M211.8474,-110.5296C221.083,-111.4486 230.2008,-112.3558 238.8844,-113.2198"/>
<polygon fill="#191970" stroke="#191970" points="212.0919,-107.0367 201.7944,-109.5293 211.3987,-114.0023 212.0919,-107.0367"/>
</g>
<!-- Node3 -->
<g id="node3" class="node">
<title>Node3</title>
<g id="a_node3"><a xlink:href="../../d6/deb/classGFBookkeeping.html#ae8ff8078e840ffe74647113d3b7f50cf" target="_top" xlink:title="GFBookkeeping::reset">
<polygon fill="none" stroke="#000000" points="238,-70.5 238,-90.5 366,-90.5 366,-70.5 238,-70.5"/>
<text text-anchor="middle" x="302" y="-77.5" font-family="FreeSans" font-size="10.00" fill="#000000">GFBookkeeping::reset</text>
</a>
</g>
</g>
<!-- Node1&#45;&gt;Node3 -->
<g id="edge2" class="edge">
<title>Node1&#45;&gt;Node3</title>
<path fill="none" stroke="#191970" d="M212.0957,-88.9984C220.9304,-88.1633 229.6546,-87.3386 237.9912,-86.5506"/>
<polygon fill="#191970" stroke="#191970" points="211.7151,-85.5187 202.0889,-89.9443 212.3739,-92.4876 211.7151,-85.5187"/>
</g>
<!-- Node4 -->
<g id="node4" class="node">
<title>Node4</title>
<g id="a_node4"><a xlink:href="../../d6/deb/classGFBookkeeping.html#a9ca65a0a509cac2474759362fd905617" target="_top" xlink:title="GFBookkeeping::setNhits">
<polygon fill="none" stroke="#000000" points="402,-70.5 402,-90.5 545,-90.5 545,-70.5 402,-70.5"/>
<text text-anchor="middle" x="473.5" y="-77.5" font-family="FreeSans" font-size="10.00" fill="#000000">GFBookkeeping::setNhits</text>
</a>
</g>
</g>
<!-- Node3&#45;&gt;Node4 -->
<g id="edge3" class="edge">
<title>Node3&#45;&gt;Node4</title>
<path fill="none" stroke="#191970" d="M376.5213,-80.5C384.9395,-80.5 393.5045,-80.5 401.8844,-80.5"/>
<polygon fill="#191970" stroke="#191970" points="376.3482,-77.0001 366.3482,-80.5 376.3482,-84.0001 376.3482,-77.0001"/>
</g>
<!-- Node5 -->
<g id="node5" class="node">
<title>Node5</title>
<g id="a_node5"><a xlink:href="../../d1/dce/classGFDaf.html#acae6182be114ea4c813d0bb8995343a4" target="_top" xlink:title="Process a track using the DAF.">
<polygon fill="none" stroke="#000000" points="761,-90.5 761,-110.5 881,-110.5 881,-90.5 761,-90.5"/>
<text text-anchor="middle" x="821" y="-97.5" font-family="FreeSans" font-size="10.00" fill="#000000">GFDaf::processTrack</text>
</a>
</g>
</g>
<!-- Node4&#45;&gt;Node5 -->
<g id="edge4" class="edge">
<title>Node4&#45;&gt;Node5</title>
<path fill="none" stroke="#191970" d="M555.383,-85.2127C618.3806,-88.8385 703.9954,-93.7659 760.8007,-97.0353"/>
<polygon fill="#191970" stroke="#191970" points="555.2655,-81.7002 545.0809,-84.6198 554.8632,-88.6887 555.2655,-81.7002"/>
</g>
<!-- Node9 -->
<g id="node9" class="node">
<title>Node9</title>
<g id="a_node9"><a xlink:href="../../d0/de1/classGFKalman.html#ae47486960d827df0e414e068dc6d25fb" target="_top" xlink:title="Performs fit on a GFTrack.">
<polygon fill="none" stroke="#000000" points="581,-51.5 581,-71.5 721,-71.5 721,-51.5 581,-51.5"/>
<text text-anchor="middle" x="651" y="-58.5" font-family="FreeSans" font-size="10.00" fill="#000000">GFKalman::processTrack</text>
</a>
</g>
</g>
<!-- Node4&#45;&gt;Node9 -->
<g id="edge8" class="edge">
<title>Node4&#45;&gt;Node9</title>
<path fill="none" stroke="#191970" d="M555.1677,-71.7581C563.7229,-70.8423 572.3664,-69.9171 580.7776,-69.0168"/>
<polygon fill="#191970" stroke="#191970" points="554.7551,-68.2822 545.1844,-72.8267 555.5002,-75.2424 554.7551,-68.2822"/>
</g>
<!-- Node6 -->
<g id="node6" class="node">
<title>Node6</title>
<g id="a_node6"><a xlink:href="../../df/d62/classPndRecoDafFit.html#a71b624dff0fc50e252d2d2b9eed898ee" target="_top" xlink:title="PndRecoDafFit::Fit">
<polygon fill="none" stroke="#000000" points="939.5,-90.5 939.5,-110.5 1047.5,-110.5 1047.5,-90.5 939.5,-90.5"/>
<text text-anchor="middle" x="993.5" y="-97.5" font-family="FreeSans" font-size="10.00" fill="#000000">PndRecoDafFit::Fit</text>
</a>
</g>
</g>
<!-- Node5&#45;&gt;Node6 -->
<g id="edge5" class="edge">
<title>Node5&#45;&gt;Node6</title>
<path fill="none" stroke="#191970" d="M891.6452,-100.5C907.5351,-100.5 924.1561,-100.5 939.2528,-100.5"/>
<polygon fill="#191970" stroke="#191970" points="891.3322,-97.0001 881.3321,-100.5 891.3321,-104.0001 891.3322,-97.0001"/>
</g>
<!-- Node7 -->
<g id="node7" class="node">
<title>Node7</title>
<g id="a_node7"><a xlink:href="../../d7/d87/classPndRecoKalmanTask.html#aa92916b999aeaf87e99fb08734ce368e" target="_top" xlink:title="PndRecoKalmanTask::Exec">
<polygon fill="none" stroke="#000000" points="1102,-70.5 1102,-90.5 1252,-90.5 1252,-70.5 1102,-70.5"/>
<text text-anchor="middle" x="1177" y="-77.5" font-family="FreeSans" font-size="10.00" fill="#000000">PndRecoKalmanTask::Exec</text>
</a>
</g>
</g>
<!-- Node6&#45;&gt;Node7 -->
<g id="edge6" class="edge">
<title>Node6&#45;&gt;Node7</title>
<path fill="none" stroke="#191970" d="M1057.754,-93.4968C1072.0165,-91.9423 1087.2558,-90.2814 1101.9086,-88.6844"/>
<polygon fill="#191970" stroke="#191970" points="1057.1254,-90.0445 1047.5636,-94.6075 1057.8839,-97.0033 1057.1254,-90.0445"/>
</g>
<!-- Node8 -->
<g id="node8" class="node">
<title>Node8</title>
<g id="a_node8"><a xlink:href="../../d2/db6/classEicRecoKalmanTask.html#a10103a96af9664a82027040c505bfff1" target="_top" xlink:title="EicRecoKalmanTask::Exec">
<polygon fill="none" stroke="#000000" points="1288,-70.5 1288,-90.5 1434,-90.5 1434,-70.5 1288,-70.5"/>
<text text-anchor="middle" x="1361" y="-77.5" font-family="FreeSans" font-size="10.00" fill="#000000">EicRecoKalmanTask::Exec</text>
</a>
</g>
</g>
<!-- Node7&#45;&gt;Node8 -->
<g id="edge7" class="edge">
<title>Node7&#45;&gt;Node8</title>
<path fill="none" stroke="#191970" d="M1262.156,-80.5C1270.7648,-80.5 1279.4539,-80.5 1287.9196,-80.5"/>
<polygon fill="#191970" stroke="#191970" points="1262.1053,-77.0001 1252.1052,-80.5 1262.1052,-84.0001 1262.1053,-77.0001"/>
</g>
<!-- Node9&#45;&gt;Node5 -->
<g id="edge9" class="edge">
<title>Node9&#45;&gt;Node5</title>
<path fill="none" stroke="#191970" d="M704.5753,-73.7908C728.0224,-79.1698 755.1823,-85.4006 777.3691,-90.4906"/>
<polygon fill="#191970" stroke="#191970" points="705.3087,-70.3682 694.7792,-71.5435 703.7434,-77.191 705.3087,-70.3682"/>
</g>
<!-- Node10 -->
<g id="node10" class="node">
<title>Node10</title>
<g id="a_node10"><a xlink:href="../../d0/de1/classGFKalman.html#aff929179fdd81ad4eb7727bc75ce9b88" target="_top" xlink:title="Operator for use with STL.">
<polygon fill="none" stroke="#000000" points="758.5,-51.5 758.5,-71.5 883.5,-71.5 883.5,-51.5 758.5,-51.5"/>
<text text-anchor="middle" x="821" y="-58.5" font-family="FreeSans" font-size="10.00" fill="#000000">GFKalman::operator()</text>
</a>
</g>
</g>
<!-- Node9&#45;&gt;Node10 -->
<g id="edge10" class="edge">
<title>Node9&#45;&gt;Node10</title>
<path fill="none" stroke="#191970" d="M731.3304,-61.5C740.4142,-61.5 749.5694,-61.5 758.3792,-61.5"/>
<polygon fill="#191970" stroke="#191970" points="731.127,-58.0001 721.127,-61.5 731.127,-65.0001 731.127,-58.0001"/>
</g>
<!-- Node11 -->
<g id="node11" class="node">
<title>Node11</title>
<g id="a_node11"><a xlink:href="../../db/d6d/classPndRecoKalmanFit.html#af5a66632d2917c60057bd37109ec7364" target="_top" xlink:title="PndRecoKalmanFit::Fit">
<polygon fill="none" stroke="#000000" points="757,-12.5 757,-32.5 885,-32.5 885,-12.5 757,-12.5"/>
<text text-anchor="middle" x="821" y="-19.5" font-family="FreeSans" font-size="10.00" fill="#000000">PndRecoKalmanFit::Fit</text>
</a>
</g>
</g>
<!-- Node9&#45;&gt;Node11 -->
<g id="edge11" class="edge">
<title>Node9&#45;&gt;Node11</title>
<path fill="none" stroke="#191970" d="M704.5753,-49.2092C728.0224,-43.8302 755.1823,-37.5994 777.3691,-32.5094"/>
<polygon fill="#191970" stroke="#191970" points="703.7434,-45.809 694.7792,-51.4565 705.3087,-52.6318 703.7434,-45.809"/>
</g>
<!-- Node11&#45;&gt;Node7 -->
<g id="edge12" class="edge">
<title>Node11&#45;&gt;Node7</title>
<path fill="none" stroke="#191970" d="M881.9663,-34.4513C894.8406,-36.8719 908.3552,-39.3363 921,-41.5 983.5924,-52.2104 1055.0489,-62.9747 1106.5324,-70.4728"/>
<polygon fill="#191970" stroke="#191970" points="882.2844,-30.9494 871.8075,-32.5261 880.9809,-37.827 882.2844,-30.9494"/>
</g>
<!-- Node12 -->
<g id="node12" class="node">
<title>Node12</title>
<g id="a_node12"><a xlink:href="../../d2/d28/classPndRecoMultiKalmanTask.html#a79938b3ab7bca0cc183821c03520553a" target="_top" xlink:title="PndRecoMultiKalmanTask\l::Exec">
<polygon fill="none" stroke="#000000" points="921,-.5 921,-32.5 1066,-32.5 1066,-.5 921,-.5"/>
<text text-anchor="start" x="929" y="-19.5" font-family="FreeSans" font-size="10.00" fill="#000000">PndRecoMultiKalmanTask</text>
<text text-anchor="middle" x="993.5" y="-7.5" font-family="FreeSans" font-size="10.00" fill="#000000">::Exec</text>
</a>
</g>
</g>
<!-- Node11&#45;&gt;Node12 -->
<g id="edge13" class="edge">
<title>Node11&#45;&gt;Node12</title>
<path fill="none" stroke="#191970" d="M895.4042,-19.912C903.8236,-19.6192 912.3964,-19.321 920.7937,-19.0289"/>
<polygon fill="#191970" stroke="#191970" points="895.1049,-16.4202 885.2326,-20.2658 895.3483,-23.416 895.1049,-16.4202"/>
</g>
</g>
</svg>
