<?xml version="1.0" encoding="UTF-8" standalone="no"?>
<!DOCTYPE svg PUBLIC "-//W3C//DTD SVG 1.1//EN"
 "http://www.w3.org/Graphics/SVG/1.1/DTD/svg11.dtd">
<!-- Generated by graphviz version 2.40.1 (20161225.0304)
 -->
<!-- Title: EicRootManager::EicRootManager Pages: 1 -->
<svg width="686pt" height="129pt"
 viewBox="0.00 0.00 686.00 129.20" xmlns="http://www.w3.org/2000/svg" xmlns:xlink="http://www.w3.org/1999/xlink">
<g id="graph0" class="graph" transform="scale(1 1) rotate(0) translate(4 125.2)">
<title>EicRootManager::EicRootManager</title>
<!-- Node1 -->
<g id="node1" class="node">
<title>Node1</title>
<polygon fill="#bfbfbf" stroke="#000000" points="0,-58.5 0,-78.5 187,-78.5 187,-58.5 0,-58.5"/>
<text text-anchor="middle" x="93.5" y="-65.5" font-family="FreeSans" font-size="10.00" fill="#000000">EicRootManager::EicRootManager</text>
</g>
<!-- Node2 -->
<g id="node2" class="node">
<title>Node2</title>
<g id="a_node2"><a xlink:href="../../dc/ddc/classEicRootInputFile.html#affc8764c37cbb848cf5fbd4838b51134" target="_top" xlink:title="EicRootInputFile::GetTree">
<polygon fill="none" stroke="#000000" points="442,-68.5 442,-88.5 585,-88.5 585,-68.5 442,-68.5"/>
<text text-anchor="middle" x="513.5" y="-75.5" font-family="FreeSans" font-size="10.00" fill="#000000">EicRootInputFile::GetTree</text>
</a>
</g>
</g>
<!-- Node1&#45;&gt;Node2 -->
<g id="edge1" class="edge">
<title>Node1&#45;&gt;Node2</title>
<path fill="none" stroke="#191970" d="M187.2334,-70.7317C260.626,-72.4792 361.6849,-74.8854 431.8021,-76.5548"/>
<polygon fill="#191970" stroke="#191970" points="431.8353,-80.0565 441.9158,-76.7956 432.002,-73.0585 431.8353,-80.0565"/>
</g>
<!-- Node3 -->
<g id="node3" class="node">
<title>Node3</title>
<g id="a_node3"><a xlink:href="../../da/d23/msg__buffer_8cc.html#a98631211a4a8aee62f572375d5b637be" target="_top" xlink:title="printf">
<polygon fill="none" stroke="#000000" points="634,-49.5 634,-69.5 678,-69.5 678,-49.5 634,-49.5"/>
<text text-anchor="middle" x="656" y="-56.5" font-family="FreeSans" font-size="10.00" fill="#000000">printf</text>
</a>
</g>
</g>
<!-- Node1&#45;&gt;Node3 -->
<g id="edge2" class="edge">
<title>Node1&#45;&gt;Node3</title>
<path fill="none" stroke="#191970" d="M153.6428,-78.5031C175.4357,-81.8155 200.276,-85.2312 223,-87.5 388.9134,-104.0653 438.5122,-147.1347 598,-98.5 612.4701,-94.0875 626.6021,-84.7232 637.2934,-76.2766"/>
<polygon fill="#191970" stroke="#191970" points="639.6181,-78.8956 645.0708,-69.8116 635.1434,-73.5125 639.6181,-78.8956"/>
</g>
<!-- Node4 -->
<g id="node4" class="node">
<title>Node4</title>
<g id="a_node4"><a xlink:href="../../de/de2/classEicRootManager.html#a911ee5a229e6b3acaddcce183aab7e15" target="_top" xlink:title="EicRootManager::ResetVars">
<polygon fill="none" stroke="#000000" points="230.5,-39.5 230.5,-59.5 385.5,-59.5 385.5,-39.5 230.5,-39.5"/>
<text text-anchor="middle" x="308" y="-46.5" font-family="FreeSans" font-size="10.00" fill="#000000">EicRootManager::ResetVars</text>
</a>
</g>
</g>
<!-- Node1&#45;&gt;Node4 -->
<g id="edge3" class="edge">
<title>Node1&#45;&gt;Node4</title>
<path fill="none" stroke="#191970" d="M187.2708,-60.194C198.3185,-59.2154 209.5601,-58.2196 220.5166,-57.2491"/>
<polygon fill="#191970" stroke="#191970" points="220.8326,-60.7349 230.4848,-56.3662 220.2149,-53.7622 220.8326,-60.7349"/>
</g>
<!-- Node5 -->
<g id="node5" class="node">
<title>Node5</title>
<g id="a_node5"><a xlink:href="../../de/de2/classEicRootManager.html#ab840af259523ea5587519f16b59f319c" target="_top" xlink:title="EicRootManager::SetupBranch">
<polygon fill="none" stroke="#000000" points="223,-.5 223,-20.5 393,-20.5 393,-.5 223,-.5"/>
<text text-anchor="middle" x="308" y="-7.5" font-family="FreeSans" font-size="10.00" fill="#000000">EicRootManager::SetupBranch</text>
</a>
</g>
</g>
<!-- Node1&#45;&gt;Node5 -->
<g id="edge4" class="edge">
<title>Node1&#45;&gt;Node5</title>
<path fill="none" stroke="#191970" d="M124.4589,-58.4856C150.5825,-50.2021 189.0432,-38.3958 223,-29.5 231.8085,-27.1924 241.1763,-24.9191 250.3528,-22.7917"/>
<polygon fill="#191970" stroke="#191970" points="251.2284,-26.1819 260.1997,-20.5457 249.6717,-19.3572 251.2284,-26.1819"/>
</g>
<!-- Node5&#45;&gt;Node2 -->
<g id="edge7" class="edge">
<title>Node5&#45;&gt;Node2</title>
<path fill="none" stroke="#191970" d="M359.6054,-20.5914C370.7125,-23.164 382.3203,-26.1605 393,-29.5 424.0687,-39.2151 458.3524,-53.5243 482.3812,-64.1742"/>
<polygon fill="#191970" stroke="#191970" points="481.1368,-67.4518 491.6939,-68.3462 483.9988,-61.0636 481.1368,-67.4518"/>
</g>
<!-- Node6 -->
<g id="node6" class="node">
<title>Node6</title>
<g id="a_node6"><a xlink:href="../../dc/ddc/classEicRootInputFile.html#a1d86be54500778df780280558b0fbd27" target="_top" xlink:title="EicRootInputFile::SetupBranch">
<polygon fill="none" stroke="#000000" points="429,-10.5 429,-30.5 598,-30.5 598,-10.5 429,-10.5"/>
<text text-anchor="middle" x="513.5" y="-17.5" font-family="FreeSans" font-size="10.00" fill="#000000">EicRootInputFile::SetupBranch</text>
</a>
</g>
</g>
<!-- Node5&#45;&gt;Node6 -->
<g id="edge5" class="edge">
<title>Node5&#45;&gt;Node6</title>
<path fill="none" stroke="#191970" d="M393.0681,-14.6396C401.56,-15.0528 410.218,-15.4741 418.8007,-15.8918"/>
<polygon fill="#191970" stroke="#191970" points="418.6685,-19.3894 428.8268,-16.3797 419.0088,-12.3977 418.6685,-19.3894"/>
</g>
<!-- Node6&#45;&gt;Node3 -->
<g id="edge6" class="edge">
<title>Node6&#45;&gt;Node3</title>
<path fill="none" stroke="#191970" d="M550.1973,-30.5435C572.9781,-36.7782 601.9768,-44.7147 623.8519,-50.7016"/>
<polygon fill="#191970" stroke="#191970" points="623.0868,-54.1208 633.656,-53.3848 624.9347,-47.3691 623.0868,-54.1208"/>
</g>
</g>
</svg>
