<?xml version="1.0" encoding="UTF-8" standalone="no"?>
<!DOCTYPE svg PUBLIC "-//W3C//DTD SVG 1.1//EN"
 "http://www.w3.org/Graphics/SVG/1.1/DTD/svg11.dtd">
<!-- Generated by graphviz version 2.40.1 (20161225.0304)
 -->
<!-- Title: fun4all_acts/blob/master/Tests/UnitTests/Core/Surfaces/SurfaceArrayTests.cpp Pages: 1 -->
<svg width="3337pt" height="626pt"
 viewBox="0.00 0.00 3336.50 626.00" xmlns="http://www.w3.org/2000/svg" xmlns:xlink="http://www.w3.org/1999/xlink">
<g id="graph0" class="graph" transform="scale(1 1) rotate(0) translate(4 622)">
<title>fun4all_acts/blob/master/Tests/UnitTests/Core/Surfaces/SurfaceArrayTests.cpp</title>
<!-- Node1 -->
<g id="node1" class="node">
<title>Node1</title>
<polygon fill="#bfbfbf" stroke="#000000" points="1116.5,-573.5 1116.5,-617.5 1285.5,-617.5 1285.5,-573.5 1116.5,-573.5"/>
<text text-anchor="start" x="1124.5" y="-604.5" font-family="FreeSans" font-size="10.00" fill="#000000">fun4all_acts/blob/master</text>
<text text-anchor="start" x="1124.5" y="-592.5" font-family="FreeSans" font-size="10.00" fill="#000000">/Tests/UnitTests/Core/Surfaces</text>
<text text-anchor="middle" x="1201" y="-580.5" font-family="FreeSans" font-size="10.00" fill="#000000">/SurfaceArrayTests.cpp</text>
</g>
<!-- Node2 -->
<g id="node2" class="node">
<title>Node2</title>
<polygon fill="none" stroke="#bfbfbf" points="0,-510.5 0,-530.5 104,-530.5 104,-510.5 0,-510.5"/>
<text text-anchor="middle" x="52" y="-517.5" font-family="FreeSans" font-size="10.00" fill="#000000">boost/format.hpp</text>
</g>
<!-- Node1&#45;&gt;Node2 -->
<g id="edge1" class="edge">
<title>Node1&#45;&gt;Node2</title>
<path fill="none" stroke="#191970" d="M1116.3275,-593.2515C895.5058,-587.0186 305.8476,-567.9126 113,-537 106.7442,-535.9972 100.2066,-534.6072 93.8327,-533.0557"/>
<polygon fill="#191970" stroke="#191970" points="94.5732,-529.6321 84.0154,-530.5171 92.8207,-536.4092 94.5732,-529.6321"/>
</g>
<!-- Node3 -->
<g id="node3" class="node">
<title>Node3</title>
<polygon fill="none" stroke="#bfbfbf" points="122,-504.5 122,-536.5 238,-536.5 238,-504.5 122,-504.5"/>
<text text-anchor="start" x="130" y="-523.5" font-family="FreeSans" font-size="10.00" fill="#000000">boost/test/data/test</text>
<text text-anchor="middle" x="180" y="-511.5" font-family="FreeSans" font-size="10.00" fill="#000000">_case.hpp</text>
</g>
<!-- Node1&#45;&gt;Node3 -->
<g id="edge2" class="edge">
<title>Node1&#45;&gt;Node3</title>
<path fill="none" stroke="#191970" d="M1116.2984,-592.2666C918.9288,-584.4211 431.9151,-563.1866 248.4188,-537.0137"/>
<polygon fill="#191970" stroke="#191970" points="248.7453,-533.524 238.341,-535.5241 247.7217,-540.4488 248.7453,-533.524"/>
</g>
<!-- Node4 -->
<g id="node4" class="node">
<title>Node4</title>
<polygon fill="none" stroke="#bfbfbf" points="256,-504.5 256,-536.5 388,-536.5 388,-504.5 256,-504.5"/>
<text text-anchor="start" x="264" y="-523.5" font-family="FreeSans" font-size="10.00" fill="#000000">boost/test/tools/output</text>
<text text-anchor="middle" x="322" y="-511.5" font-family="FreeSans" font-size="10.00" fill="#000000">_test_stream.hpp</text>
</g>
<!-- Node1&#45;&gt;Node4 -->
<g id="edge3" class="edge">
<title>Node1&#45;&gt;Node4</title>
<path fill="none" stroke="#191970" d="M1116.3586,-593.344C971.2022,-588.7669 665.4281,-575.2846 398.438,-537.082"/>
<polygon fill="#191970" stroke="#191970" points="398.5563,-533.5628 388.1584,-535.5961 397.5547,-540.4908 398.5563,-533.5628"/>
</g>
<!-- Node5 -->
<g id="node5" class="node">
<title>Node5</title>
<polygon fill="none" stroke="#bfbfbf" points="406.5,-510.5 406.5,-530.5 543.5,-530.5 543.5,-510.5 406.5,-510.5"/>
<text text-anchor="middle" x="475" y="-517.5" font-family="FreeSans" font-size="10.00" fill="#000000">boost/test/unit_test.hpp</text>
</g>
<!-- Node1&#45;&gt;Node5 -->
<g id="edge4" class="edge">
<title>Node1&#45;&gt;Node5</title>
<path fill="none" stroke="#191970" d="M1116.4087,-590.6579C993.1427,-582.9562 757.1393,-565.7709 558,-537 549.2313,-535.7331 539.988,-534.1475 530.9803,-532.4636"/>
<polygon fill="#191970" stroke="#191970" points="531.4297,-528.986 520.9484,-530.5325 530.1065,-535.8598 531.4297,-528.986"/>
</g>
<!-- Node6 -->
<g id="node6" class="node">
<title>Node6</title>
<g id="a_node6"><a xlink:href="../../d1/db8/GeometryContext_8hpp.html" target="_top" xlink:title="Acts/Geometry/GeometryContext.hpp">
<polygon fill="none" stroke="#000000" points="2775,-252.5 2775,-272.5 2983,-272.5 2983,-252.5 2775,-252.5"/>
<text text-anchor="middle" x="2879" y="-259.5" font-family="FreeSans" font-size="10.00" fill="#000000">Acts/Geometry/GeometryContext.hpp</text>
</a>
</g>
</g>
<!-- Node1&#45;&gt;Node6 -->
<g id="edge5" class="edge">
<title>Node1&#45;&gt;Node6</title>
<path fill="none" stroke="#191970" d="M1285.5625,-593.8089C1662.25,-585.7306 3169,-547.4224 3169,-451.5 3169,-451.5 3169,-451.5 3169,-388.5 3169,-338.058 3019.5447,-295.1037 2935.2184,-274.8823"/>
<polygon fill="#191970" stroke="#191970" points="2935.8091,-271.4255 2925.272,-272.53 2934.198,-278.2376 2935.8091,-271.4255"/>
</g>
<!-- Node8 -->
<g id="node8" class="node">
<title>Node8</title>
<g id="a_node8"><a xlink:href="../../db/d26/LayerCreator_8hpp.html" target="_top" xlink:title="Acts/Geometry/LayerCreator.hpp">
<polygon fill="none" stroke="#000000" points="1582.5,-510.5 1582.5,-530.5 1765.5,-530.5 1765.5,-510.5 1582.5,-510.5"/>
<text text-anchor="middle" x="1674" y="-517.5" font-family="FreeSans" font-size="10.00" fill="#000000">Acts/Geometry/LayerCreator.hpp</text>
</a>
</g>
</g>
<!-- Node1&#45;&gt;Node8 -->
<g id="edge7" class="edge">
<title>Node1&#45;&gt;Node8</title>
<path fill="none" stroke="#191970" d="M1285.5629,-582.0915C1375.1893,-567.8801 1515.3017,-545.6636 1600.4874,-532.1563"/>
<polygon fill="#191970" stroke="#191970" points="1601.268,-535.5764 1610.5965,-530.5534 1600.1717,-528.6627 1601.268,-535.5764"/>
</g>
<!-- Node11 -->
<g id="node11" class="node">
<title>Node11</title>
<g id="a_node11"><a xlink:href="../../d6/d1d/Definitions_8hpp.html" target="_top" xlink:title="Acts/Utilities/Definitions.hpp">
<polygon fill="none" stroke="#000000" points="2605,-57.5 2605,-77.5 2765,-77.5 2765,-57.5 2605,-57.5"/>
<text text-anchor="middle" x="2685" y="-64.5" font-family="FreeSans" font-size="10.00" fill="#000000">Acts/Utilities/Definitions.hpp</text>
</a>
</g>
</g>
<!-- Node1&#45;&gt;Node11 -->
<g id="edge132" class="edge">
<title>Node1&#45;&gt;Node11</title>
<path fill="none" stroke="#191970" d="M1285.5303,-594.4241C1576.5908,-590.4164 2536.1532,-574.6071 2842,-537 3023.7291,-514.6545 3245,-634.5978 3245,-451.5 3245,-451.5 3245,-451.5 3245,-199.5 3245,-144.0045 3204.5234,-136.9596 3154,-114 3088.5845,-84.273 2892.1793,-73.4485 2775.3073,-69.5818"/>
<polygon fill="#191970" stroke="#191970" points="2775.4032,-66.0832 2765.2962,-69.2611 2775.179,-73.0796 2775.4032,-66.0832"/>
</g>
<!-- Node13 -->
<g id="node13" class="node">
<title>Node13</title>
<g id="a_node13"><a xlink:href="../../d8/d20/SurfaceArrayCreator_8hpp.html" target="_top" xlink:title="Acts/Geometry/SurfaceArray\lCreator.hpp">
<polygon fill="none" stroke="#000000" points="1465.5,-435.5 1465.5,-467.5 1626.5,-467.5 1626.5,-435.5 1465.5,-435.5"/>
<text text-anchor="start" x="1473.5" y="-454.5" font-family="FreeSans" font-size="10.00" fill="#000000">Acts/Geometry/SurfaceArray</text>
<text text-anchor="middle" x="1546" y="-442.5" font-family="FreeSans" font-size="10.00" fill="#000000">Creator.hpp</text>
</a>
</g>
</g>
<!-- Node1&#45;&gt;Node13 -->
<g id="edge93" class="edge">
<title>Node1&#45;&gt;Node13</title>
<path fill="none" stroke="#191970" d="M1268.6555,-573.4866C1299.0105,-563.143 1335.0929,-550.1983 1367,-537 1415.6409,-516.8798 1470.0062,-490.3078 1505.9223,-472.1599"/>
<polygon fill="#191970" stroke="#191970" points="1507.7578,-475.1534 1515.0916,-467.5071 1504.5902,-468.911 1507.7578,-475.1534"/>
</g>
<!-- Node21 -->
<g id="node21" class="node">
<title>Node21</title>
<g id="a_node21"><a xlink:href="../../d9/d70/Core_2include_2Acts_2Utilities_2Helpers_8hpp.html" target="_top" xlink:title="Acts/Utilities/Helpers.hpp">
<polygon fill="none" stroke="#ff0000" points="913.5,-189.5 913.5,-209.5 1058.5,-209.5 1058.5,-189.5 913.5,-189.5"/>
<text text-anchor="middle" x="986" y="-196.5" font-family="FreeSans" font-size="10.00" fill="#000000">Acts/Utilities/Helpers.hpp</text>
</a>
</g>
</g>
<!-- Node1&#45;&gt;Node21 -->
<g id="edge133" class="edge">
<title>Node1&#45;&gt;Node21</title>
<path fill="none" stroke="#191970" d="M1191.2141,-573.0393C1179.9549,-545.1107 1163,-495.7134 1163,-451.5 1163,-451.5 1163,-451.5 1163,-388.5 1163,-303.6468 1066.7776,-241.1742 1016.2247,-214.208"/>
<polygon fill="#191970" stroke="#191970" points="1017.8366,-211.1013 1007.3503,-209.5886 1014.6045,-217.3105 1017.8366,-211.1013"/>
</g>
<!-- Node28 -->
<g id="node28" class="node">
<title>Node28</title>
<g id="a_node28"><a xlink:href="../../de/d09/BinningType_8hpp.html" target="_top" xlink:title="Acts/Utilities/BinningType.hpp">
<polygon fill="none" stroke="#000000" points="762,-120.5 762,-140.5 930,-140.5 930,-120.5 762,-120.5"/>
<text text-anchor="middle" x="846" y="-127.5" font-family="FreeSans" font-size="10.00" fill="#000000">Acts/Utilities/BinningType.hpp</text>
</a>
</g>
</g>
<!-- Node1&#45;&gt;Node28 -->
<g id="edge131" class="edge">
<title>Node1&#45;&gt;Node28</title>
<path fill="none" stroke="#191970" d="M1116.3241,-592.4069C952.9073,-584.1207 610,-554.4658 610,-451.5 610,-451.5 610,-451.5 610,-325.5 610,-246.1555 690.1385,-266.9061 751,-216 778.4285,-193.0581 808.9703,-165.1188 827.8366,-147.5652"/>
<polygon fill="#191970" stroke="#191970" points="830.4775,-149.8878 835.3972,-140.5044 825.6998,-144.7718 830.4775,-149.8878"/>
</g>
<!-- Node33 -->
<g id="node33" class="node">
<title>Node33</title>
<g id="a_node33"><a xlink:href="../../d3/de5/SurfaceArray_8hpp.html" target="_top" xlink:title="Acts/Surfaces/SurfaceArray.hpp">
<polygon fill="none" stroke="#000000" points="840,-378.5 840,-398.5 1016,-398.5 1016,-378.5 840,-378.5"/>
<text text-anchor="middle" x="928" y="-385.5" font-family="FreeSans" font-size="10.00" fill="#000000">Acts/Surfaces/SurfaceArray.hpp</text>
</a>
</g>
</g>
<!-- Node1&#45;&gt;Node33 -->
<g id="edge130" class="edge">
<title>Node1&#45;&gt;Node33</title>
<path fill="none" stroke="#191970" d="M1171.7842,-573.3474C1116.6205,-531.52 998.3059,-441.8089 949.6144,-404.8889"/>
<polygon fill="#191970" stroke="#191970" points="951.4468,-401.886 941.3638,-398.633 947.2174,-407.4639 951.4468,-401.886"/>
</g>
<!-- Node36 -->
<g id="node36" class="node">
<title>Node36</title>
<g id="a_node36"><a xlink:href="../../db/d33/Grid_8hpp.html" target="_top" xlink:title="Acts/Utilities/detail\l/Grid.hpp">
<polygon fill="none" stroke="#ff0000" points="463.5,-183.5 463.5,-215.5 574.5,-215.5 574.5,-183.5 463.5,-183.5"/>
<text text-anchor="start" x="471.5" y="-202.5" font-family="FreeSans" font-size="10.00" fill="#000000">Acts/Utilities/detail</text>
<text text-anchor="middle" x="519" y="-190.5" font-family="FreeSans" font-size="10.00" fill="#000000">/Grid.hpp</text>
</a>
</g>
</g>
<!-- Node1&#45;&gt;Node36 -->
<g id="edge134" class="edge">
<title>Node1&#45;&gt;Node36</title>
<path fill="none" stroke="#191970" d="M1116.365,-592.7364C959.1035,-586.8222 634.255,-570.6499 596,-537 504.0719,-456.1381 509.6902,-290.2527 515.8199,-225.8652"/>
<polygon fill="#191970" stroke="#191970" points="519.319,-226.0535 516.87,-215.7457 512.3564,-225.3309 519.319,-226.0535"/>
</g>
<!-- Node41 -->
<g id="node41" class="node">
<title>Node41</title>
<g id="a_node41"><a xlink:href="../../d8/d1e/CylinderBounds_8hpp.html" target="_top" xlink:title="Acts/Surfaces/CylinderBounds.hpp">
<polygon fill="none" stroke="#000000" points="2047,-189.5 2047,-209.5 2239,-209.5 2239,-189.5 2047,-189.5"/>
<text text-anchor="middle" x="2143" y="-196.5" font-family="FreeSans" font-size="10.00" fill="#000000">Acts/Surfaces/CylinderBounds.hpp</text>
</a>
</g>
</g>
<!-- Node1&#45;&gt;Node41 -->
<g id="edge94" class="edge">
<title>Node1&#45;&gt;Node41</title>
<path fill="none" stroke="#191970" d="M1216.1194,-573.2358C1250.1724,-523.6283 1332.9427,-406.1651 1372,-378 1591.9779,-219.3689 2177.0767,-332.0136 2233,-273 2254.9123,-249.8769 2215.5469,-227.314 2182.1639,-213.4184"/>
<polygon fill="#191970" stroke="#191970" points="2183.1024,-210.0244 2172.5175,-209.5646 2180.5053,-216.5249 2183.1024,-210.0244"/>
</g>
<!-- Node43 -->
<g id="node43" class="node">
<title>Node43</title>
<g id="a_node43"><a xlink:href="../../d7/dec/PlaneSurface_8hpp.html" target="_top" xlink:title="Acts/Surfaces/PlaneSurface.hpp">
<polygon fill="none" stroke="#000000" points="1913,-378.5 1913,-398.5 2091,-398.5 2091,-378.5 1913,-378.5"/>
<text text-anchor="middle" x="2002" y="-385.5" font-family="FreeSans" font-size="10.00" fill="#000000">Acts/Surfaces/PlaneSurface.hpp</text>
</a>
</g>
</g>
<!-- Node1&#45;&gt;Node43 -->
<g id="edge103" class="edge">
<title>Node1&#45;&gt;Node43</title>
<path fill="none" stroke="#191970" d="M1285.7547,-591.7886C1422.9058,-584.96 1687.0123,-568.1679 1775,-537 1860.4799,-506.7204 1945.8011,-437.9719 1982.8377,-405.7591"/>
<polygon fill="#191970" stroke="#191970" points="1985.5989,-407.9911 1990.7895,-398.7548 1980.972,-402.7383 1985.5989,-407.9911"/>
</g>
<!-- Node47 -->
<g id="node47" class="node">
<title>Node47</title>
<g id="a_node47"><a xlink:href="../../d5/dfa/RadialBounds_8hpp.html" target="_top" xlink:title="Acts/Surfaces/RadialBounds.hpp">
<polygon fill="none" stroke="#000000" points="2042.5,-252.5 2042.5,-272.5 2223.5,-272.5 2223.5,-252.5 2042.5,-252.5"/>
<text text-anchor="middle" x="2133" y="-259.5" font-family="FreeSans" font-size="10.00" fill="#000000">Acts/Surfaces/RadialBounds.hpp</text>
</a>
</g>
</g>
<!-- Node1&#45;&gt;Node47 -->
<g id="edge117" class="edge">
<title>Node1&#45;&gt;Node47</title>
<path fill="none" stroke="#191970" d="M1207.1066,-573.2453C1223.7899,-517.2367 1275.9287,-370.5363 1379,-309 1380.7346,-307.9644 1827.0769,-280.9398 2032.1236,-268.574"/>
<polygon fill="#191970" stroke="#191970" points="2032.5275,-272.0561 2042.2987,-267.9605 2032.1061,-265.0688 2032.5275,-272.0561"/>
</g>
<!-- Node49 -->
<g id="node49" class="node">
<title>Node49</title>
<g id="a_node49"><a xlink:href="../../dc/d7d/RectangleBounds_8hpp.html" target="_top" xlink:title="Acts/Surfaces/RectangleBounds.hpp">
<polygon fill="none" stroke="#000000" points="1748,-252.5 1748,-272.5 1948,-272.5 1948,-252.5 1748,-252.5"/>
<text text-anchor="middle" x="1848" y="-259.5" font-family="FreeSans" font-size="10.00" fill="#000000">Acts/Surfaces/RectangleBounds.hpp</text>
</a>
</g>
</g>
<!-- Node1&#45;&gt;Node49 -->
<g id="edge125" class="edge">
<title>Node1&#45;&gt;Node49</title>
<path fill="none" stroke="#191970" d="M1197.39,-573.3417C1191.7897,-531.4853 1185.4109,-439.4874 1225,-378 1257.474,-327.5633 1283.9468,-327.5298 1341,-309 1412.2103,-285.8722 1611.2042,-272.9909 1737.6705,-266.9229"/>
<polygon fill="#191970" stroke="#191970" points="1737.9581,-270.4133 1747.7816,-266.4448 1737.6274,-263.4211 1737.9581,-270.4133"/>
</g>
<!-- Node50 -->
<g id="node50" class="node">
<title>Node50</title>
<polygon fill="none" stroke="#bfbfbf" points="3273.5,-510.5 3273.5,-530.5 3328.5,-530.5 3328.5,-510.5 3273.5,-510.5"/>
<text text-anchor="middle" x="3301" y="-517.5" font-family="FreeSans" font-size="10.00" fill="#000000">fstream</text>
</g>
<!-- Node1&#45;&gt;Node50 -->
<g id="edge135" class="edge">
<title>Node1&#45;&gt;Node50</title>
<path fill="none" stroke="#191970" d="M1285.6525,-594.816C1648.6323,-591.6492 3063.8657,-576.8353 3259,-537 3262.67,-536.2508 3266.4342,-535.2059 3270.1294,-534.0019"/>
<polygon fill="#191970" stroke="#191970" points="3271.4402,-537.2494 3279.6374,-530.537 3269.0434,-530.6725 3271.4402,-537.2494"/>
</g>
<!-- Node7 -->
<g id="node7" class="node">
<title>Node7</title>
<polygon fill="none" stroke="#bfbfbf" points="3029.5,-189.5 3029.5,-209.5 3064.5,-209.5 3064.5,-189.5 3029.5,-189.5"/>
<text text-anchor="middle" x="3047" y="-196.5" font-family="FreeSans" font-size="10.00" fill="#000000">any</text>
</g>
<!-- Node6&#45;&gt;Node7 -->
<g id="edge6" class="edge">
<title>Node6&#45;&gt;Node7</title>
<path fill="none" stroke="#191970" d="M2912.7699,-252.471C2940.6068,-243.8449 2980.9097,-230.5242 3015,-216 3016.6209,-215.3094 3018.2728,-214.5709 3019.9293,-213.8033"/>
<polygon fill="#191970" stroke="#191970" points="3021.8411,-216.7642 3029.2815,-209.2215 3018.7614,-210.478 3021.8411,-216.7642"/>
</g>
<!-- Node8&#45;&gt;Node6 -->
<g id="edge13" class="edge">
<title>Node8&#45;&gt;Node6</title>
<path fill="none" stroke="#191970" d="M1755.1083,-510.4715C1883.9948,-493.5552 2142.8907,-455.5656 2357,-399 2472.7932,-368.4086 2495.142,-339.3451 2611,-309 2670.2243,-293.4882 2738.196,-281.7619 2790.8664,-273.9651"/>
<polygon fill="#191970" stroke="#191970" points="2791.4638,-277.4151 2800.853,-272.5066 2790.4522,-270.4886 2791.4638,-277.4151"/>
</g>
<!-- Node9 -->
<g id="node9" class="node">
<title>Node9</title>
<g id="a_node9"><a xlink:href="../../d1/d33/ApproachDescriptor_8hpp.html" target="_top" xlink:title="Acts/Geometry/ApproachDescriptor.hpp">
<polygon fill="none" stroke="#ff0000" points="2620,-315.5 2620,-335.5 2838,-335.5 2838,-315.5 2620,-315.5"/>
<text text-anchor="middle" x="2729" y="-322.5" font-family="FreeSans" font-size="10.00" fill="#000000">Acts/Geometry/ApproachDescriptor.hpp</text>
</a>
</g>
</g>
<!-- Node8&#45;&gt;Node9 -->
<g id="edge8" class="edge">
<title>Node8&#45;&gt;Node9</title>
<path fill="none" stroke="#191970" d="M1765.6536,-519.0666C1943.3888,-515.5122 2328.6107,-503.8128 2456,-468 2555.9145,-439.9112 2661.2798,-372.4809 2706.3758,-341.5266"/>
<polygon fill="#191970" stroke="#191970" points="2708.5936,-344.2479 2714.8166,-335.6731 2704.6046,-338.4957 2708.5936,-344.2479"/>
</g>
<!-- Node8&#45;&gt;Node11 -->
<g id="edge90" class="edge">
<title>Node8&#45;&gt;Node11</title>
<path fill="none" stroke="#191970" d="M1765.5893,-517.4398C2095.9691,-505.8059 3207,-461.2722 3207,-388.5 3207,-388.5 3207,-388.5 3207,-199.5 3207,-139.3188 3157.4955,-137.2816 3102,-114 3044.9554,-90.0685 2880.0523,-77.424 2775.5184,-71.6236"/>
<polygon fill="#191970" stroke="#191970" points="2775.458,-68.1152 2765.2826,-71.0667 2775.0777,-75.1048 2775.458,-68.1152"/>
</g>
<!-- Node8&#45;&gt;Node13 -->
<g id="edge14" class="edge">
<title>Node8&#45;&gt;Node13</title>
<path fill="none" stroke="#191970" d="M1655.3877,-510.4668C1637.0243,-500.5678 1608.3896,-485.1319 1585.0234,-472.536"/>
<polygon fill="#191970" stroke="#191970" points="1586.4964,-469.354 1576.0331,-467.6897 1583.1748,-475.5157 1586.4964,-469.354"/>
</g>
<!-- Node37 -->
<g id="node37" class="node">
<title>Node37</title>
<g id="a_node37"><a xlink:href="../../d9/d11/Logger_8hpp.html" target="_top" xlink:title="Acts/Utilities/Logger.hpp">
<polygon fill="none" stroke="#ff0000" points="1115,-189.5 1115,-209.5 1255,-209.5 1255,-189.5 1115,-189.5"/>
<text text-anchor="middle" x="1185" y="-196.5" font-family="FreeSans" font-size="10.00" fill="#000000">Acts/Utilities/Logger.hpp</text>
</a>
</g>
</g>
<!-- Node8&#45;&gt;Node37 -->
<g id="edge91" class="edge">
<title>Node8&#45;&gt;Node37</title>
<path fill="none" stroke="#191970" d="M1610.3991,-510.4659C1566.0476,-502.208 1506.0818,-488.4912 1456,-468 1362.2205,-429.6298 1335.7647,-415.483 1266,-342 1230.4015,-304.5043 1204.5332,-248.4543 1192.5146,-219.0731"/>
<polygon fill="#191970" stroke="#191970" points="1195.6701,-217.5363 1188.7209,-209.5388 1189.166,-220.1243 1195.6701,-217.5363"/>
</g>
<!-- Node39 -->
<g id="node39" class="node">
<title>Node39</title>
<polygon fill="none" stroke="#bfbfbf" points="1607.5,-378.5 1607.5,-398.5 1664.5,-398.5 1664.5,-378.5 1607.5,-378.5"/>
<text text-anchor="middle" x="1636" y="-385.5" font-family="FreeSans" font-size="10.00" fill="#000000">optional</text>
</g>
<!-- Node8&#45;&gt;Node39 -->
<g id="edge92" class="edge">
<title>Node8&#45;&gt;Node39</title>
<path fill="none" stroke="#191970" d="M1671.0182,-510.1422C1664.7194,-488.262 1649.9652,-437.0109 1641.7605,-408.5102"/>
<polygon fill="#191970" stroke="#191970" points="1645.0979,-407.4512 1638.9679,-398.8097 1638.371,-409.3877 1645.0979,-407.4512"/>
</g>
<!-- Node40 -->
<g id="node40" class="node">
<title>Node40</title>
<g id="a_node40"><a xlink:href="../../d2/d0a/BinUtility_8hpp.html" target="_top" xlink:title="Acts/Utilities/BinUtility.hpp">
<polygon fill="none" stroke="#ff0000" points="1763.5,-189.5 1763.5,-209.5 1914.5,-209.5 1914.5,-189.5 1763.5,-189.5"/>
<text text-anchor="middle" x="1839" y="-196.5" font-family="FreeSans" font-size="10.00" fill="#000000">Acts/Utilities/BinUtility.hpp</text>
</a>
</g>
</g>
<!-- Node8&#45;&gt;Node40 -->
<g id="edge83" class="edge">
<title>Node8&#45;&gt;Node40</title>
<path fill="none" stroke="#191970" d="M1677.8149,-510.1969C1686.5207,-484.7247 1704.8201,-417.9652 1674,-378 1635.5542,-328.1465 1594.5611,-367.4985 1537,-342 1511.302,-330.6163 1444.3979,-297.7077 1431,-273 1426.5509,-264.7953 1424.8358,-259.0082 1431,-252 1451.9182,-228.2177 1639.7608,-212.1857 1753.1417,-204.5828"/>
<polygon fill="#191970" stroke="#191970" points="1753.4504,-208.0701 1763.1974,-203.9175 1752.9881,-201.0854 1753.4504,-208.0701"/>
</g>
<!-- Node9&#45;&gt;Node6 -->
<g id="edge10" class="edge">
<title>Node9&#45;&gt;Node6</title>
<path fill="none" stroke="#191970" d="M2753.1001,-315.378C2778.1395,-304.8614 2817.5104,-288.3256 2845.5546,-276.5471"/>
<polygon fill="#191970" stroke="#191970" points="2847.0952,-279.6962 2854.9597,-272.5969 2844.3845,-273.2424 2847.0952,-279.6962"/>
</g>
<!-- Node10 -->
<g id="node10" class="node">
<title>Node10</title>
<polygon fill="none" stroke="#bfbfbf" points="1009.5,-57.5 1009.5,-77.5 1058.5,-77.5 1058.5,-57.5 1009.5,-57.5"/>
<text text-anchor="middle" x="1034" y="-64.5" font-family="FreeSans" font-size="10.00" fill="#000000">vector</text>
</g>
<!-- Node9&#45;&gt;Node10 -->
<g id="edge9" class="edge">
<title>Node9&#45;&gt;Node10</title>
<path fill="none" stroke="#191970" d="M2619.5507,-322.2183C2379.6494,-314.6613 1822.203,-294.9837 1739,-273 1718.8225,-267.6687 1716.1849,-260.2155 1697,-252 1653.5772,-233.4051 1636.8835,-241.3103 1597,-216 1579.487,-204.8862 1582.1051,-193.1206 1564,-183 1503.7781,-149.3365 1476.6669,-173.5787 1413,-147 1387.3933,-136.3101 1386.0728,-123.4964 1360,-114 1306.8802,-94.6524 1141.2671,-77.4459 1068.6785,-70.6197"/>
<polygon fill="#191970" stroke="#191970" points="1068.9493,-67.1299 1058.6682,-69.6888 1068.3011,-74.0998 1068.9493,-67.1299"/>
</g>
<!-- Node9&#45;&gt;Node11 -->
<g id="edge11" class="edge">
<title>Node9&#45;&gt;Node11</title>
<path fill="none" stroke="#191970" d="M2828.0261,-315.4989C2878.5679,-307.99 2940.1582,-295.0552 2992,-273 3041.7939,-251.816 3095.5785,-232.6242 3074,-183 3056.0681,-141.762 3040.5205,-133.4989 3000,-114 2961.445,-95.4469 2854.3389,-82.3289 2775.683,-74.8568"/>
<polygon fill="#191970" stroke="#191970" points="2775.5515,-71.3293 2765.2694,-73.8845 2774.9007,-78.299 2775.5515,-71.3293"/>
</g>
<!-- Node12 -->
<g id="node12" class="node">
<title>Node12</title>
<polygon fill="none" stroke="#bfbfbf" points="2645,-.5 2645,-20.5 2725,-20.5 2725,-.5 2645,-.5"/>
<text text-anchor="middle" x="2685" y="-7.5" font-family="FreeSans" font-size="10.00" fill="#000000">Eigen/Dense</text>
</g>
<!-- Node11&#45;&gt;Node12 -->
<g id="edge12" class="edge">
<title>Node11&#45;&gt;Node12</title>
<path fill="none" stroke="#191970" d="M2685,-57.3095C2685,-49.9335 2685,-39.72 2685,-30.715"/>
<polygon fill="#191970" stroke="#191970" points="2688.5001,-30.6022 2685,-20.6022 2681.5001,-30.6023 2688.5001,-30.6022"/>
</g>
<!-- Node13&#45;&gt;Node6 -->
<g id="edge15" class="edge">
<title>Node13&#45;&gt;Node6</title>
<path fill="none" stroke="#191970" d="M1626.5631,-449.0713C1813.2946,-443.0171 2264.6289,-425.7873 2328,-399 2383.0756,-375.7193 2373.3488,-333.2602 2428,-309 2435.6745,-305.5932 2633.5878,-286.0596 2764.6593,-273.4174"/>
<polygon fill="#191970" stroke="#191970" points="2765.1445,-276.887 2774.7627,-272.4438 2764.473,-269.9192 2765.1445,-276.887"/>
</g>
<!-- Node13&#45;&gt;Node11 -->
<g id="edge75" class="edge">
<title>Node13&#45;&gt;Node11</title>
<path fill="none" stroke="#191970" d="M1626.8144,-449.3413C1885.075,-441.7857 2688.0414,-413.034 2937,-342 3003.7068,-322.9669 3027.3017,-321.3955 3077,-273 3127.6441,-223.6835 3130.6912,-154.8492 3073,-114 3049.198,-97.1466 2882.3172,-81.9544 2775.3062,-73.7955"/>
<polygon fill="#191970" stroke="#191970" points="2775.3792,-70.2911 2765.144,-73.028 2774.852,-77.2712 2775.3792,-70.2911"/>
</g>
<!-- Node14 -->
<g id="node14" class="node">
<title>Node14</title>
<g id="a_node14"><a xlink:href="../../d0/d62/ProtoLayer_8hpp.html" target="_top" xlink:title="Acts/Geometry/ProtoLayer.hpp">
<polygon fill="none" stroke="#000000" points="2147.5,-378.5 2147.5,-398.5 2318.5,-398.5 2318.5,-378.5 2147.5,-378.5"/>
<text text-anchor="middle" x="2233" y="-385.5" font-family="FreeSans" font-size="10.00" fill="#000000">Acts/Geometry/ProtoLayer.hpp</text>
</a>
</g>
</g>
<!-- Node13&#45;&gt;Node14 -->
<g id="edge16" class="edge">
<title>Node13&#45;&gt;Node14</title>
<path fill="none" stroke="#191970" d="M1626.8278,-444.0878C1754.2547,-432.4024 2001.3068,-409.747 2137.3682,-397.2697"/>
<polygon fill="#191970" stroke="#191970" points="2137.7323,-400.7511 2147.3709,-396.3524 2137.093,-393.7804 2137.7323,-400.7511"/>
</g>
<!-- Node16 -->
<g id="node16" class="node">
<title>Node16</title>
<g id="a_node16"><a xlink:href="../../d9/dc6/PlanarBounds_8hpp.html" target="_top" xlink:title="Acts/Surfaces/PlanarBounds.hpp">
<polygon fill="none" stroke="#000000" points="1373,-189.5 1373,-209.5 1555,-209.5 1555,-189.5 1373,-189.5"/>
<text text-anchor="middle" x="1464" y="-196.5" font-family="FreeSans" font-size="10.00" fill="#000000">Acts/Surfaces/PlanarBounds.hpp</text>
</a>
</g>
</g>
<!-- Node13&#45;&gt;Node16 -->
<g id="edge54" class="edge">
<title>Node13&#45;&gt;Node16</title>
<path fill="none" stroke="#191970" d="M1543.4031,-435.4685C1540.2824,-419.7759 1533.9082,-395.7125 1522,-378 1481.7086,-318.0699 1428.3725,-338.5174 1398,-273 1387.1594,-249.6154 1411.7953,-228.3552 1433.9889,-214.785"/>
<polygon fill="#191970" stroke="#191970" points="1436.0123,-217.6583 1442.924,-209.6284 1432.5134,-211.5955 1436.0123,-217.6583"/>
</g>
<!-- Node18 -->
<g id="node18" class="node">
<title>Node18</title>
<g id="a_node18"><a xlink:href="../../d8/ddd/Surface_8hpp.html" target="_top" xlink:title="Acts/Surfaces/Surface.hpp">
<polygon fill="none" stroke="#ff0000" points="1824,-315.5 1824,-335.5 1974,-335.5 1974,-315.5 1824,-315.5"/>
<text text-anchor="middle" x="1899" y="-322.5" font-family="FreeSans" font-size="10.00" fill="#000000">Acts/Surfaces/Surface.hpp</text>
</a>
</g>
</g>
<!-- Node13&#45;&gt;Node18 -->
<g id="edge55" class="edge">
<title>Node13&#45;&gt;Node18</title>
<path fill="none" stroke="#191970" d="M1552.9911,-435.4647C1561.3438,-418.3306 1577.0024,-391.7807 1599,-378 1634.0032,-356.0718 1738.0196,-341.3548 1813.7753,-333.2144"/>
<polygon fill="#191970" stroke="#191970" points="1814.2215,-336.6869 1823.7994,-332.1577 1813.4875,-329.7255 1814.2215,-336.6869"/>
</g>
<!-- Node13&#45;&gt;Node33 -->
<g id="edge56" class="edge">
<title>Node13&#45;&gt;Node33</title>
<path fill="none" stroke="#191970" d="M1465.2073,-443.2639C1352.3138,-431.7553 1147.5976,-410.8862 1026.0954,-398.5"/>
<polygon fill="#191970" stroke="#191970" points="1026.3528,-395.0082 1016.0494,-397.4759 1025.6428,-401.9721 1026.3528,-395.0082"/>
</g>
<!-- Node13&#45;&gt;Node37 -->
<g id="edge76" class="edge">
<title>Node13&#45;&gt;Node37</title>
<path fill="none" stroke="#191970" d="M1465.1861,-436.4842C1434.4816,-428.4399 1400.1514,-416.469 1372,-399 1292.0854,-349.4101 1223.865,-257.0917 1197.1005,-217.8796"/>
<polygon fill="#191970" stroke="#191970" points="1199.9641,-215.8657 1191.4782,-209.5222 1194.156,-219.773 1199.9641,-215.8657"/>
</g>
<!-- Node38 -->
<g id="node38" class="node">
<title>Node38</title>
<g id="a_node38"><a xlink:href="../../df/d6f/Units_8hpp.html" target="_top" xlink:title="Acts/Utilities/Units.hpp">
<polygon fill="none" stroke="#000000" points="1381,-378.5 1381,-398.5 1513,-398.5 1513,-378.5 1381,-378.5"/>
<text text-anchor="middle" x="1447" y="-385.5" font-family="FreeSans" font-size="10.00" fill="#000000">Acts/Utilities/Units.hpp</text>
</a>
</g>
</g>
<!-- Node13&#45;&gt;Node38 -->
<g id="edge81" class="edge">
<title>Node13&#45;&gt;Node38</title>
<path fill="none" stroke="#191970" d="M1520.762,-435.4394C1505.6756,-425.839 1486.5948,-413.6967 1471.6195,-404.167"/>
<polygon fill="#191970" stroke="#191970" points="1473.214,-401.0331 1462.8983,-398.6171 1469.4559,-406.9387 1473.214,-401.0331"/>
</g>
<!-- Node13&#45;&gt;Node39 -->
<g id="edge82" class="edge">
<title>Node13&#45;&gt;Node39</title>
<path fill="none" stroke="#191970" d="M1569.1772,-435.2759C1582.7635,-425.7655 1599.8515,-413.8039 1613.3464,-404.3576"/>
<polygon fill="#191970" stroke="#191970" points="1615.4374,-407.1662 1621.6226,-398.5642 1611.4231,-401.4315 1615.4374,-407.1662"/>
</g>
<!-- Node14&#45;&gt;Node6 -->
<g id="edge18" class="edge">
<title>Node14&#45;&gt;Node6</title>
<path fill="none" stroke="#191970" d="M2260.5845,-378.4886C2283.0569,-369.9209 2315.3189,-356.6717 2342,-342 2364.6851,-329.5257 2365.668,-317.8418 2390,-309 2392.1968,-308.2017 2620.9781,-286.6648 2764.7943,-273.1848"/>
<polygon fill="#191970" stroke="#191970" points="2765.3682,-276.6465 2774.9979,-272.2286 2764.715,-269.677 2765.3682,-276.6465"/>
</g>
<!-- Node14&#45;&gt;Node11 -->
<g id="edge53" class="edge">
<title>Node14&#45;&gt;Node11</title>
<path fill="none" stroke="#191970" d="M2318.6123,-385.0463C2462.9975,-378.7143 2748.781,-363.8589 2847,-342 2965.75,-315.5719 3041.5471,-327.5899 3090,-216 3110.1865,-169.5092 3082.6678,-139.7295 3039,-114 2995.6757,-88.4729 2865.0747,-76.625 2775.2273,-71.3707"/>
<polygon fill="#191970" stroke="#191970" points="2775.2104,-67.8642 2765.0282,-70.7921 2774.8139,-74.8529 2775.2104,-67.8642"/>
</g>
<!-- Node15 -->
<g id="node15" class="node">
<title>Node15</title>
<polygon fill="none" stroke="#bfbfbf" points="1809,-120.5 1809,-140.5 1869,-140.5 1869,-120.5 1809,-120.5"/>
<text text-anchor="middle" x="1839" y="-127.5" font-family="FreeSans" font-size="10.00" fill="#000000">iostream</text>
</g>
<!-- Node14&#45;&gt;Node15 -->
<g id="edge17" class="edge">
<title>Node14&#45;&gt;Node15</title>
<path fill="none" stroke="#191970" d="M2230.6101,-378.4365C2226.0139,-361.3729 2214.2716,-326.8786 2191,-309 2134.2304,-265.3863 2098.2875,-304.4969 2034,-273 1977.2749,-245.2082 1975.4285,-219.6774 1924,-183 1905.0551,-169.489 1882.6231,-155.721 1865.5615,-145.6758"/>
<polygon fill="#191970" stroke="#191970" points="1867.0933,-142.5174 1856.6916,-140.5034 1863.567,-148.5644 1867.0933,-142.5174"/>
</g>
<!-- Node14&#45;&gt;Node16 -->
<g id="edge19" class="edge">
<title>Node14&#45;&gt;Node16</title>
<path fill="none" stroke="#191970" d="M2226.9835,-378.4782C2215.7584,-360.8236 2189.765,-324.5766 2157,-309 2066.1978,-265.8323 1803.3162,-298.2597 1706,-273 1684.2467,-267.3536 1681.1499,-259.6004 1660,-252 1613.699,-235.3613 1559.581,-221.2514 1519.9563,-211.8635"/>
<polygon fill="#191970" stroke="#191970" points="1520.7428,-208.4531 1510.2081,-209.5798 1519.1461,-215.2686 1520.7428,-208.4531"/>
</g>
<!-- Node14&#45;&gt;Node18 -->
<g id="edge23" class="edge">
<title>Node14&#45;&gt;Node18</title>
<path fill="none" stroke="#191970" d="M2179.7074,-378.4478C2120.5647,-367.2922 2025.1875,-349.3018 1962.293,-337.4385"/>
<polygon fill="#191970" stroke="#191970" points="1962.5783,-333.9307 1952.1028,-335.5164 1961.2807,-340.8094 1962.5783,-333.9307"/>
</g>
<!-- Node16&#45;&gt;Node10 -->
<g id="edge22" class="edge">
<title>Node16&#45;&gt;Node10</title>
<path fill="none" stroke="#191970" d="M1447.9334,-189.2262C1415.5894,-168.7112 1343.3802,-123.7978 1316,-114 1230.374,-83.3595 1122.8088,-72.758 1068.6085,-69.2075"/>
<polygon fill="#191970" stroke="#191970" points="1068.6978,-65.7065 1058.5023,-68.5875 1068.2692,-72.6933 1068.6978,-65.7065"/>
</g>
<!-- Node17 -->
<g id="node17" class="node">
<title>Node17</title>
<g id="a_node17"><a xlink:href="../../da/ddb/SurfaceBounds_8hpp.html" target="_top" xlink:title="Acts/Surfaces/SurfaceBounds.hpp">
<polygon fill="none" stroke="#ff0000" points="2378,-120.5 2378,-140.5 2566,-140.5 2566,-120.5 2378,-120.5"/>
<text text-anchor="middle" x="2472" y="-127.5" font-family="FreeSans" font-size="10.00" fill="#000000">Acts/Surfaces/SurfaceBounds.hpp</text>
</a>
</g>
</g>
<!-- Node16&#45;&gt;Node17 -->
<g id="edge20" class="edge">
<title>Node16&#45;&gt;Node17</title>
<path fill="none" stroke="#191970" d="M1555.2969,-194.134C1740.9068,-183.163 2156.7348,-158.2538 2299,-147 2321.2699,-145.2384 2345.1298,-143.1155 2367.7968,-140.9876"/>
<polygon fill="#191970" stroke="#191970" points="2368.1466,-144.4703 2377.7724,-140.0438 2367.4872,-137.5014 2368.1466,-144.4703"/>
</g>
<!-- Node17&#45;&gt;Node11 -->
<g id="edge21" class="edge">
<title>Node17&#45;&gt;Node11</title>
<path fill="none" stroke="#191970" d="M2506.2221,-120.378C2542.8649,-109.54 2601.1217,-92.3091 2641.1133,-80.4806"/>
<polygon fill="#191970" stroke="#191970" points="2642.2662,-83.7895 2650.8628,-77.5969 2640.2807,-77.077 2642.2662,-83.7895"/>
</g>
<!-- Node18&#45;&gt;Node6 -->
<g id="edge24" class="edge">
<title>Node18&#45;&gt;Node6</title>
<path fill="none" stroke="#191970" d="M1965.9119,-315.4732C1984.0749,-313.0387 2003.7619,-310.6615 2022,-309 2348.3077,-279.2732 2434.0187,-295.9696 2764.6024,-273.0672"/>
<polygon fill="#191970" stroke="#191970" points="2765.2253,-276.5323 2774.9565,-272.3426 2764.7365,-269.5494 2765.2253,-276.5323"/>
</g>
<!-- Node18&#45;&gt;Node11 -->
<g id="edge51" class="edge">
<title>Node18&#45;&gt;Node11</title>
<path fill="none" stroke="#191970" d="M1949.2448,-315.4466C1961.8638,-313.1254 1975.4003,-310.8092 1988,-309 2143.6639,-286.6482 2185.0852,-300.0604 2340,-273 2352.9149,-270.744 2558.3848,-223.6942 2569,-216 2612.3325,-184.5915 2598.4912,-154.9065 2633,-114 2642.1513,-103.1521 2653.8209,-92.4918 2663.7854,-84.1205"/>
<polygon fill="#191970" stroke="#191970" points="2666.1408,-86.7156 2671.662,-77.6731 2661.7069,-81.2988 2666.1408,-86.7156"/>
</g>
<!-- Node18&#45;&gt;Node17 -->
<g id="edge49" class="edge">
<title>Node18&#45;&gt;Node17</title>
<path fill="none" stroke="#191970" d="M1950.6861,-315.4248C1962.8993,-313.1809 1975.8915,-310.905 1988,-309 2111.0734,-289.6375 2143.0592,-293.1873 2266,-273 2281.9873,-270.3748 2541.7243,-228.5258 2552,-216 2561.3023,-204.6608 2558.9674,-195.9061 2552,-183 2542.8301,-166.0141 2525.5033,-153.6319 2509.3133,-145.1735"/>
<polygon fill="#191970" stroke="#191970" points="2510.5068,-141.8623 2499.9825,-140.6417 2507.4486,-148.1589 2510.5068,-141.8623"/>
</g>
<!-- Node19 -->
<g id="node19" class="node">
<title>Node19</title>
<g id="a_node19"><a xlink:href="../../d5/dc6/GeometryStatics_8hpp.html" target="_top" xlink:title="Acts/Geometry/GeometryStatics.hpp">
<polygon fill="none" stroke="#000000" points="2553.5,-252.5 2553.5,-272.5 2756.5,-272.5 2756.5,-252.5 2553.5,-252.5"/>
<text text-anchor="middle" x="2655" y="-259.5" font-family="FreeSans" font-size="10.00" fill="#000000">Acts/Geometry/GeometryStatics.hpp</text>
</a>
</g>
</g>
<!-- Node18&#45;&gt;Node19 -->
<g id="edge25" class="edge">
<title>Node18&#45;&gt;Node19</title>
<path fill="none" stroke="#191970" d="M1968.1927,-315.477C1985.7227,-313.1417 2004.5341,-310.8114 2022,-309 2204.2144,-290.1028 2416.7202,-276.1392 2543.3298,-268.6708"/>
<polygon fill="#191970" stroke="#191970" points="2543.647,-272.1583 2553.4248,-268.0784 2543.2369,-265.1703 2543.647,-272.1583"/>
</g>
<!-- Node20 -->
<g id="node20" class="node">
<title>Node20</title>
<g id="a_node20"><a xlink:href="../../db/d40/Polyhedron_8hpp.html" target="_top" xlink:title="Acts/Geometry/Polyhedron.hpp">
<polygon fill="none" stroke="#ff0000" points="1440.5,-252.5 1440.5,-272.5 1615.5,-272.5 1615.5,-252.5 1440.5,-252.5"/>
<text text-anchor="middle" x="1528" y="-259.5" font-family="FreeSans" font-size="10.00" fill="#000000">Acts/Geometry/Polyhedron.hpp</text>
</a>
</g>
</g>
<!-- Node18&#45;&gt;Node20 -->
<g id="edge27" class="edge">
<title>Node18&#45;&gt;Node20</title>
<path fill="none" stroke="#191970" d="M1839.8037,-315.4478C1773.703,-304.2231 1666.8542,-286.079 1597.0122,-274.2191"/>
<polygon fill="#191970" stroke="#191970" points="1597.4303,-270.74 1586.9854,-272.5164 1596.2583,-277.6412 1597.4303,-270.74"/>
</g>
<!-- Node26 -->
<g id="node26" class="node">
<title>Node26</title>
<polygon fill="none" stroke="#bfbfbf" points="1733,-120.5 1733,-140.5 1791,-140.5 1791,-120.5 1733,-120.5"/>
<text text-anchor="middle" x="1762" y="-127.5" font-family="FreeSans" font-size="10.00" fill="#000000">memory</text>
</g>
<!-- Node18&#45;&gt;Node26 -->
<g id="edge52" class="edge">
<title>Node18&#45;&gt;Node26</title>
<path fill="none" stroke="#191970" d="M1917.0461,-315.3656C1940.2803,-301.0512 1975.5779,-274.1816 1957,-252 1898.4467,-182.0889 1813.5533,-285.9111 1755,-216 1739.7503,-197.7922 1746.2156,-169.0916 1753.2598,-150.0359"/>
<polygon fill="#191970" stroke="#191970" points="1756.584,-151.1519 1757.0986,-140.5695 1750.0971,-148.5213 1756.584,-151.1519"/>
</g>
<!-- Node18&#45;&gt;Node28 -->
<g id="edge50" class="edge">
<title>Node18&#45;&gt;Node28</title>
<path fill="none" stroke="#191970" d="M1823.9795,-319.214C1597.3422,-299.9765 932.828,-241.6549 894,-216 871.0054,-200.8067 857.8973,-170.6335 851.3678,-150.5047"/>
<polygon fill="#191970" stroke="#191970" points="854.6769,-149.3536 848.4655,-140.7705 847.9687,-151.3537 854.6769,-149.3536"/>
</g>
<!-- Node19&#45;&gt;Node11 -->
<g id="edge26" class="edge">
<title>Node19&#45;&gt;Node11</title>
<path fill="none" stroke="#191970" d="M2744.4044,-252.4867C2837.0144,-241.6796 2969.3508,-224.8332 2977,-216 3006.6764,-181.7302 3006.4271,-148.4841 2977,-114 2963.8784,-98.6235 2856.3595,-84.5651 2775.5734,-76.0239"/>
<polygon fill="#191970" stroke="#191970" points="2775.6733,-72.5154 2765.364,-74.9586 2774.9467,-79.4776 2775.6733,-72.5154"/>
</g>
<!-- Node20&#45;&gt;Node10 -->
<g id="edge48" class="edge">
<title>Node20&#45;&gt;Node10</title>
<path fill="none" stroke="#191970" d="M1440.3761,-259.09C1272.8334,-252.1424 921.9685,-235.3573 904,-216 894.0219,-205.2507 897.9901,-196.3788 904,-183 909.8448,-169.9887 977.9061,-113.2439 1013.1397,-84.4262"/>
<polygon fill="#191970" stroke="#191970" points="1015.7946,-86.7775 1021.3322,-77.745 1011.3705,-81.3527 1015.7946,-86.7775"/>
</g>
<!-- Node20&#45;&gt;Node11 -->
<g id="edge28" class="edge">
<title>Node20&#45;&gt;Node11</title>
<path fill="none" stroke="#191970" d="M1615.9259,-256.0336C1724.5434,-247.4512 1898.2213,-231.5619 1924,-216 1971.0702,-187.585 1946.2384,-141.2367 1994,-114 2044.9155,-84.9648 2419.1588,-73.1833 2594.6445,-69.217"/>
<polygon fill="#191970" stroke="#191970" points="2594.9713,-72.7107 2604.891,-68.9892 2594.8156,-65.7124 2594.9713,-72.7107"/>
</g>
<!-- Node20&#45;&gt;Node21 -->
<g id="edge29" class="edge">
<title>Node20&#45;&gt;Node21</title>
<path fill="none" stroke="#191970" d="M1440.2266,-253.5234C1354.8126,-244.624 1221.3921,-230.2881 1106,-216 1093.1943,-214.4144 1079.6334,-212.6409 1066.415,-210.8608"/>
<polygon fill="#191970" stroke="#191970" points="1066.7715,-207.3772 1056.3918,-209.5013 1065.8306,-214.3137 1066.7715,-207.3772"/>
</g>
<!-- Node31 -->
<g id="node31" class="node">
<title>Node31</title>
<polygon fill="none" stroke="#bfbfbf" points="2246.5,-120.5 2246.5,-140.5 2289.5,-140.5 2289.5,-120.5 2246.5,-120.5"/>
<text text-anchor="middle" x="2268" y="-127.5" font-family="FreeSans" font-size="10.00" fill="#000000">array</text>
</g>
<!-- Node20&#45;&gt;Node31 -->
<g id="edge46" class="edge">
<title>Node20&#45;&gt;Node31</title>
<path fill="none" stroke="#191970" d="M1615.6353,-258.1977C1804.941,-248.7237 2236.0746,-226.1008 2248,-216 2266.6598,-200.1951 2269.7876,-170.6271 2269.5219,-150.7494"/>
<polygon fill="#191970" stroke="#191970" points="2273.0117,-150.4372 2269.0838,-140.5974 2266.0182,-150.739 2273.0117,-150.4372"/>
</g>
<!-- Node32 -->
<g id="node32" class="node">
<title>Node32</title>
<polygon fill="none" stroke="#bfbfbf" points="1311,-189.5 1311,-209.5 1355,-209.5 1355,-189.5 1311,-189.5"/>
<text text-anchor="middle" x="1333" y="-196.5" font-family="FreeSans" font-size="10.00" fill="#000000">limits</text>
</g>
<!-- Node20&#45;&gt;Node32 -->
<g id="edge47" class="edge">
<title>Node20&#45;&gt;Node32</title>
<path fill="none" stroke="#191970" d="M1482.944,-252.4706C1449.505,-244.3723 1403.1215,-231.7483 1364,-216 1362.5861,-215.4308 1361.1526,-214.8154 1359.717,-214.1683"/>
<polygon fill="#191970" stroke="#191970" points="1360.9132,-210.8566 1350.3943,-209.5904 1357.8278,-217.1399 1360.9132,-210.8566"/>
</g>
<!-- Node21&#45;&gt;Node10 -->
<g id="edge37" class="edge">
<title>Node21&#45;&gt;Node10</title>
<path fill="none" stroke="#191970" d="M991.2045,-189.2174C996.3774,-178.7589 1004.3366,-162.0015 1010,-147 1017.4886,-127.164 1024.2935,-103.8825 1028.729,-87.6602"/>
<polygon fill="#191970" stroke="#191970" points="1032.194,-88.2512 1031.4004,-77.6862 1025.4323,-86.4401 1032.194,-88.2512"/>
</g>
<!-- Node21&#45;&gt;Node11 -->
<g id="edge41" class="edge">
<title>Node21&#45;&gt;Node11</title>
<path fill="none" stroke="#191970" d="M1033.2404,-189.4295C1046.0876,-186.9951 1060.0345,-184.6289 1073,-183 1200.0294,-167.0409 1528.1137,-191.927 1648,-147 1670.5584,-138.5463 1668.3756,-122.2754 1691,-114 1774.44,-83.4797 2365.6273,-71.9836 2594.6643,-68.6449"/>
<polygon fill="#191970" stroke="#191970" points="2595.0164,-72.1403 2604.965,-68.4967 2594.9156,-65.141 2595.0164,-72.1403"/>
</g>
<!-- Node21&#45;&gt;Node15 -->
<g id="edge34" class="edge">
<title>Node21&#45;&gt;Node15</title>
<path fill="none" stroke="#191970" d="M1051.5896,-189.4576C1069.2227,-187.038 1088.309,-184.6721 1106,-183 1413.4888,-153.9377 1498.9973,-216.2196 1800,-147 1803.054,-146.2977 1806.1723,-145.3718 1809.2486,-144.3163"/>
<polygon fill="#191970" stroke="#191970" points="1810.7407,-147.4919 1818.803,-140.618 1808.2138,-140.9638 1810.7407,-147.4919"/>
</g>
<!-- Node22 -->
<g id="node22" class="node">
<title>Node22</title>
<polygon fill="none" stroke="#bfbfbf" points="1062.5,-120.5 1062.5,-140.5 1107.5,-140.5 1107.5,-120.5 1062.5,-120.5"/>
<text text-anchor="middle" x="1085" y="-127.5" font-family="FreeSans" font-size="10.00" fill="#000000">bitset</text>
</g>
<!-- Node21&#45;&gt;Node22 -->
<g id="edge30" class="edge">
<title>Node21&#45;&gt;Node22</title>
<path fill="none" stroke="#191970" d="M1000.6078,-189.3188C1016.7663,-178.0568 1043.0178,-159.7603 1061.9546,-146.5619"/>
<polygon fill="#191970" stroke="#191970" points="1064.1296,-149.3123 1070.3323,-140.723 1060.127,-143.5695 1064.1296,-149.3123"/>
</g>
<!-- Node23 -->
<g id="node23" class="node">
<title>Node23</title>
<polygon fill="none" stroke="#bfbfbf" points="1547,-57.5 1547,-77.5 1595,-77.5 1595,-57.5 1547,-57.5"/>
<text text-anchor="middle" x="1571" y="-64.5" font-family="FreeSans" font-size="10.00" fill="#000000">cmath</text>
</g>
<!-- Node21&#45;&gt;Node23 -->
<g id="edge31" class="edge">
<title>Node21&#45;&gt;Node23</title>
<path fill="none" stroke="#191970" d="M1034.1377,-189.4398C1084.261,-178.5 1159.0215,-160.7406 1185,-147 1204.7729,-136.5417 1202.612,-123.2018 1223,-114 1278.7145,-88.8541 1460.7357,-74.5676 1536.9521,-69.5596"/>
<polygon fill="#191970" stroke="#191970" points="1537.2256,-73.0493 1546.9802,-68.9143 1536.7761,-66.0637 1537.2256,-73.0493"/>
</g>
<!-- Node24 -->
<g id="node24" class="node">
<title>Node24</title>
<polygon fill="none" stroke="#bfbfbf" points="1126,-120.5 1126,-140.5 1176,-140.5 1176,-120.5 1126,-120.5"/>
<text text-anchor="middle" x="1151" y="-127.5" font-family="FreeSans" font-size="10.00" fill="#000000">cstdlib</text>
</g>
<!-- Node21&#45;&gt;Node24 -->
<g id="edge32" class="edge">
<title>Node21&#45;&gt;Node24</title>
<path fill="none" stroke="#191970" d="M1012.079,-189.4705C1038.4564,-179.2088 1080.3169,-162.6013 1116,-147 1117.5657,-146.3154 1119.1659,-145.604 1120.7781,-144.8778"/>
<polygon fill="#191970" stroke="#191970" points="1122.3666,-147.9997 1129.9892,-140.6413 1119.4416,-141.6401 1122.3666,-147.9997"/>
</g>
<!-- Node25 -->
<g id="node25" class="node">
<title>Node25</title>
<polygon fill="none" stroke="#bfbfbf" points="1232.5,-120.5 1232.5,-140.5 1289.5,-140.5 1289.5,-120.5 1232.5,-120.5"/>
<text text-anchor="middle" x="1261" y="-127.5" font-family="FreeSans" font-size="10.00" fill="#000000">iomanip</text>
</g>
<!-- Node21&#45;&gt;Node25 -->
<g id="edge33" class="edge">
<title>Node21&#45;&gt;Node25</title>
<path fill="none" stroke="#191970" d="M1040.4849,-189.4748C1087.8693,-180.2111 1158.1293,-165.158 1218,-147 1220.9651,-146.1007 1224.0178,-145.0956 1227.0636,-144.0374"/>
<polygon fill="#191970" stroke="#191970" points="1228.4574,-147.2547 1236.6532,-140.5405 1226.0592,-140.6782 1228.4574,-147.2547"/>
</g>
<!-- Node21&#45;&gt;Node26 -->
<g id="edge35" class="edge">
<title>Node21&#45;&gt;Node26</title>
<path fill="none" stroke="#191970" d="M1052.2286,-189.4991C1069.6865,-187.1081 1088.5275,-184.7458 1106,-183 1360.7873,-157.5428 1427.1629,-180.6355 1681,-147 1694.8313,-145.1672 1709.839,-142.3469 1723.1351,-139.5534"/>
<polygon fill="#191970" stroke="#191970" points="1723.8857,-142.9721 1732.9211,-137.4392 1722.4075,-136.1299 1723.8857,-142.9721"/>
</g>
<!-- Node27 -->
<g id="node27" class="node">
<title>Node27</title>
<polygon fill="none" stroke="#bfbfbf" points="935.5,-57.5 935.5,-77.5 980.5,-77.5 980.5,-57.5 935.5,-57.5"/>
<text text-anchor="middle" x="958" y="-64.5" font-family="FreeSans" font-size="10.00" fill="#000000">string</text>
</g>
<!-- Node21&#45;&gt;Node27 -->
<g id="edge36" class="edge">
<title>Node21&#45;&gt;Node27</title>
<path fill="none" stroke="#191970" d="M983.8029,-189.1422C979.1821,-167.3584 968.3858,-116.4618 962.3248,-87.8882"/>
<polygon fill="#191970" stroke="#191970" points="965.6858,-86.8658 960.1869,-77.8097 958.8382,-88.3183 965.6858,-86.8658"/>
</g>
<!-- Node21&#45;&gt;Node28 -->
<g id="edge38" class="edge">
<title>Node21&#45;&gt;Node28</title>
<path fill="none" stroke="#191970" d="M965.6428,-189.4668C941.8992,-177.7646 902.4561,-158.3248 875.3923,-144.9862"/>
<polygon fill="#191970" stroke="#191970" points="876.8988,-141.8267 866.3818,-140.5453 873.8042,-148.1056 876.8988,-141.8267"/>
</g>
<!-- Node29 -->
<g id="node29" class="node">
<title>Node29</title>
<g id="a_node29"><a xlink:href="../../d8/dfd/ParameterDefinitions_8hpp.html" target="_top" xlink:title="Acts/Utilities/Parameter\lDefinitions.hpp">
<polygon fill="none" stroke="#ff0000" points="1503,-114.5 1503,-146.5 1639,-146.5 1639,-114.5 1503,-114.5"/>
<text text-anchor="start" x="1511" y="-133.5" font-family="FreeSans" font-size="10.00" fill="#000000">Acts/Utilities/Parameter</text>
<text text-anchor="middle" x="1571" y="-121.5" font-family="FreeSans" font-size="10.00" fill="#000000">Definitions.hpp</text>
</a>
</g>
</g>
<!-- Node21&#45;&gt;Node29 -->
<g id="edge42" class="edge">
<title>Node21&#45;&gt;Node29</title>
<path fill="none" stroke="#191970" d="M1035.1114,-189.454C1047.447,-187.1326 1060.6804,-184.8145 1073,-183 1220.6566,-161.2527 1394.2303,-145.0633 1492.5584,-136.7575"/>
<polygon fill="#191970" stroke="#191970" points="1493.0383,-140.2296 1502.7105,-135.9054 1492.4527,-133.2541 1493.0383,-140.2296"/>
</g>
<!-- Node28&#45;&gt;Node10 -->
<g id="edge40" class="edge">
<title>Node28&#45;&gt;Node10</title>
<path fill="none" stroke="#191970" d="M876.2055,-120.378C909.8368,-109.1079 964.0966,-90.9251 999.4067,-79.0924"/>
<polygon fill="#191970" stroke="#191970" points="1000.9016,-82.2828 1009.2713,-75.7867 998.6774,-75.6456 1000.9016,-82.2828"/>
</g>
<!-- Node28&#45;&gt;Node27 -->
<g id="edge39" class="edge">
<title>Node28&#45;&gt;Node27</title>
<path fill="none" stroke="#191970" d="M863.9947,-120.378C882.1193,-110.1829 910.3006,-94.3309 931.084,-82.6402"/>
<polygon fill="#191970" stroke="#191970" points="933.0501,-85.5501 940.0499,-77.5969 929.6182,-79.4491 933.0501,-85.5501"/>
</g>
<!-- Node29&#45;&gt;Node11 -->
<g id="edge45" class="edge">
<title>Node29&#45;&gt;Node11</title>
<path fill="none" stroke="#191970" d="M1639.329,-115.9347C1643.9431,-115.2034 1648.5317,-114.5469 1653,-114 1833.9335,-91.8531 2378.2016,-75.5591 2594.7246,-69.7867"/>
<polygon fill="#191970" stroke="#191970" points="2594.8811,-73.2839 2604.7847,-69.5198 2594.6954,-66.2863 2594.8811,-73.2839"/>
</g>
<!-- Node29&#45;&gt;Node23 -->
<g id="edge43" class="edge">
<title>Node29&#45;&gt;Node23</title>
<path fill="none" stroke="#191970" d="M1571,-114.2759C1571,-106.2654 1571,-96.5159 1571,-87.9952"/>
<polygon fill="#191970" stroke="#191970" points="1574.5001,-87.7512 1571,-77.7513 1567.5001,-87.7513 1574.5001,-87.7512"/>
</g>
<!-- Node30 -->
<g id="node30" class="node">
<title>Node30</title>
<polygon fill="none" stroke="#bfbfbf" points="399,-57.5 399,-77.5 469,-77.5 469,-57.5 399,-57.5"/>
<text text-anchor="middle" x="434" y="-64.5" font-family="FreeSans" font-size="10.00" fill="#000000">type_traits</text>
</g>
<!-- Node29&#45;&gt;Node30 -->
<g id="edge44" class="edge">
<title>Node29&#45;&gt;Node30</title>
<path fill="none" stroke="#191970" d="M1502.8506,-126.256C1447.628,-122.8471 1367.8039,-117.9878 1298,-114 985.1051,-96.1247 608.3545,-76.5005 479.6526,-69.8507"/>
<polygon fill="#191970" stroke="#191970" points="479.5604,-66.3413 469.3932,-69.3209 479.1994,-73.332 479.5604,-66.3413"/>
</g>
<!-- Node33&#45;&gt;Node6 -->
<g id="edge60" class="edge">
<title>Node33&#45;&gt;Node6</title>
<path fill="none" stroke="#191970" d="M991.8921,-378.4834C1106.2791,-361.0052 1353.7593,-325.2519 1564,-309 2093.4896,-268.0697 2230.8036,-305.2624 2764.6809,-273.0408"/>
<polygon fill="#191970" stroke="#191970" points="2765.1925,-276.5162 2774.9612,-272.4147 2764.7669,-269.5291 2765.1925,-276.5162"/>
</g>
<!-- Node33&#45;&gt;Node10 -->
<g id="edge59" class="edge">
<title>Node33&#45;&gt;Node10</title>
<path fill="none" stroke="#191970" d="M839.903,-382.1423C792.2911,-376.1589 733.492,-364.5445 685,-342 627.4078,-315.2247 630.1467,-281.6872 574,-252 524.7757,-225.9729 487.2381,-260.673 454,-216 445.245,-204.233 449.0367,-196.8013 454,-183 467.4609,-145.5697 475.6768,-132.2892 511,-114 605.5953,-65.0216 883.7084,-94.1505 989,-78 992.4345,-77.4732 995.995,-76.8241 999.5405,-76.1091"/>
<polygon fill="#191970" stroke="#191970" points="1000.3499,-79.515 1009.3759,-73.9668 998.8601,-72.6753 1000.3499,-79.515"/>
</g>
<!-- Node33&#45;&gt;Node11 -->
<g id="edge63" class="edge">
<title>Node33&#45;&gt;Node11</title>
<path fill="none" stroke="#191970" d="M935.9742,-378.4067C967.477,-338.6589 1082.6816,-194.5429 1106,-183 1221.1374,-126.0059 1563.2229,-193.4584 1683,-147 1704.8084,-138.5411 1702.1331,-122.3065 1724,-114 1803.9684,-83.6228 2371.3049,-72.0864 2594.8186,-68.6891"/>
<polygon fill="#191970" stroke="#191970" points="2594.9314,-72.1879 2604.8778,-68.5382 2594.8264,-65.1887 2594.9314,-72.1879"/>
</g>
<!-- Node33&#45;&gt;Node15 -->
<g id="edge57" class="edge">
<title>Node33&#45;&gt;Node15</title>
<path fill="none" stroke="#191970" d="M988.1538,-378.4288C1022.4225,-371.2187 1065.4741,-359.6155 1101,-342 1183.0342,-301.3234 1193.1816,-274.0427 1264,-216 1281.3002,-201.8208 1281.3422,-191.5792 1302,-183 1506.94,-97.888 1584.2507,-198.9298 1800,-147 1803.0467,-146.2667 1806.1601,-145.3201 1809.2334,-144.2516"/>
<polygon fill="#191970" stroke="#191970" points="1810.7336,-147.4236 1818.7836,-140.5353 1808.195,-140.9001 1810.7336,-147.4236"/>
</g>
<!-- Node33&#45;&gt;Node18 -->
<g id="edge61" class="edge">
<title>Node33&#45;&gt;Node18</title>
<path fill="none" stroke="#191970" d="M1016.0329,-383.8454C1159.4035,-376.1192 1452.2329,-359.7314 1700,-342 1737.2944,-339.331 1778.486,-335.9823 1813.6715,-333.0002"/>
<polygon fill="#191970" stroke="#191970" points="1814.2391,-336.4647 1823.9061,-332.1289 1813.6452,-329.4899 1814.2391,-336.4647"/>
</g>
<!-- Node33&#45;&gt;Node28 -->
<g id="edge62" class="edge">
<title>Node33&#45;&gt;Node28</title>
<path fill="none" stroke="#191970" d="M923.3123,-378.2212C911.4398,-351.8208 879.863,-279.2598 862,-216 855.8058,-194.0641 851.3538,-168.2728 848.7428,-150.7979"/>
<polygon fill="#191970" stroke="#191970" points="852.1709,-150.0447 847.2931,-140.6395 845.2411,-151.0337 852.1709,-150.0447"/>
</g>
<!-- Node33&#45;&gt;Node30 -->
<g id="edge58" class="edge">
<title>Node33&#45;&gt;Node30</title>
<path fill="none" stroke="#191970" d="M839.8742,-378.6198C767.8567,-369.7811 672.2459,-356.0809 636,-342 541.2056,-305.1741 496.4802,-303.7036 445,-216 421.3275,-175.6707 425.617,-118.1906 430.1718,-87.9334"/>
<polygon fill="#191970" stroke="#191970" points="433.6753,-88.2028 431.8727,-77.7624 426.7711,-87.0481 433.6753,-88.2028"/>
</g>
<!-- Node34 -->
<g id="node34" class="node">
<title>Node34</title>
<g id="a_node34"><a xlink:href="../../d8/d7b/IAxis_8hpp.html" target="_top" xlink:title="Acts/Utilities/IAxis.hpp">
<polygon fill="none" stroke="#ff0000" points="538,-120.5 538,-140.5 668,-140.5 668,-120.5 538,-120.5"/>
<text text-anchor="middle" x="603" y="-127.5" font-family="FreeSans" font-size="10.00" fill="#000000">Acts/Utilities/IAxis.hpp</text>
</a>
</g>
</g>
<!-- Node33&#45;&gt;Node34 -->
<g id="edge64" class="edge">
<title>Node33&#45;&gt;Node34</title>
<path fill="none" stroke="#191970" d="M860.9975,-378.4454C829.7952,-371.5964 793.2074,-360.3205 764,-342 718.6627,-313.5619 725.4418,-285.8641 684,-252 659.3262,-231.8378 640.8162,-241.715 622,-216 607.9544,-196.8047 603.9795,-169.1456 603.0124,-150.5324"/>
<polygon fill="#191970" stroke="#191970" points="606.5105,-150.4094 602.7363,-140.5096 599.5131,-150.6023 606.5105,-150.4094"/>
</g>
<!-- Node35 -->
<g id="node35" class="node">
<title>Node35</title>
<g id="a_node35"><a xlink:href="../../de/d7d/Axis_8hpp.html" target="_top" xlink:title="Acts/Utilities/detail\l/Axis.hpp">
<polygon fill="none" stroke="#ff0000" points="631.5,-183.5 631.5,-215.5 742.5,-215.5 742.5,-183.5 631.5,-183.5"/>
<text text-anchor="start" x="639.5" y="-202.5" font-family="FreeSans" font-size="10.00" fill="#000000">Acts/Utilities/detail</text>
<text text-anchor="middle" x="687" y="-190.5" font-family="FreeSans" font-size="10.00" fill="#000000">/Axis.hpp</text>
</a>
</g>
</g>
<!-- Node33&#45;&gt;Node35 -->
<g id="edge66" class="edge">
<title>Node33&#45;&gt;Node35</title>
<path fill="none" stroke="#191970" d="M874.4076,-378.4446C848.3889,-371.5209 817.8883,-360.1813 795,-342 757.9258,-312.5503 767.3181,-289.1783 738,-252 730.0886,-241.9675 720.5244,-231.717 711.8262,-222.9674"/>
<polygon fill="#191970" stroke="#191970" points="714.0452,-220.2399 704.4686,-215.7079 709.1288,-225.2228 714.0452,-220.2399"/>
</g>
<!-- Node33&#45;&gt;Node36 -->
<g id="edge70" class="edge">
<title>Node33&#45;&gt;Node36</title>
<path fill="none" stroke="#191970" d="M847.0458,-378.4636C794.3572,-370.5872 731.5615,-358.2384 710,-342 673.7877,-314.7277 696.1908,-281.7674 662,-252 649.7081,-241.2983 616.106,-228.7323 584.5623,-218.5775"/>
<polygon fill="#191970" stroke="#191970" points="585.4549,-215.1889 574.8648,-215.5082 583.3425,-221.8627 585.4549,-215.1889"/>
</g>
<!-- Node34&#45;&gt;Node10 -->
<g id="edge65" class="edge">
<title>Node34&#45;&gt;Node10</title>
<path fill="none" stroke="#191970" d="M647.5744,-120.4657C658.7762,-118.1441 670.7982,-115.8229 682,-114 817.5957,-91.9345 853.6709,-101.6457 989,-78 992.4228,-77.4019 995.9756,-76.7057 999.5163,-75.9616"/>
<polygon fill="#191970" stroke="#191970" points="1000.3414,-79.3637 1009.3452,-73.7796 998.8243,-72.5301 1000.3414,-79.3637"/>
</g>
<!-- Node35&#45;&gt;Node10 -->
<g id="edge68" class="edge">
<title>Node35&#45;&gt;Node10</title>
<path fill="none" stroke="#191970" d="M688.3864,-183.3983C691.001,-163.7169 698.5109,-130.946 720,-114 767.3573,-76.6547 929.676,-88.8648 989,-78 992.4178,-77.374 995.9673,-76.6593 999.506,-75.9038"/>
<polygon fill="#191970" stroke="#191970" points="1000.337,-79.3045 1009.3321,-73.7064 998.8093,-72.4733 1000.337,-79.3045"/>
</g>
<!-- Node35&#45;&gt;Node23 -->
<g id="edge67" class="edge">
<title>Node35&#45;&gt;Node23</title>
<path fill="none" stroke="#191970" d="M697.0495,-183.4484C711.5062,-160.9424 738.0704,-121.8695 753,-114 823.0502,-77.0762 1390.1442,-69.2051 1536.5901,-67.7816"/>
<polygon fill="#191970" stroke="#191970" points="1536.813,-71.2798 1546.7799,-67.6865 1536.7476,-64.2801 1536.813,-71.2798"/>
</g>
<!-- Node35&#45;&gt;Node34 -->
<g id="edge69" class="edge">
<title>Node35&#45;&gt;Node34</title>
<path fill="none" stroke="#191970" d="M667.5176,-183.4966C654.1925,-172.551 636.5743,-158.0789 623.1159,-147.0238"/>
<polygon fill="#191970" stroke="#191970" points="625.2982,-144.287 615.3494,-140.6441 620.855,-149.6961 625.2982,-144.287"/>
</g>
<!-- Node36&#45;&gt;Node10 -->
<g id="edge73" class="edge">
<title>Node36&#45;&gt;Node10</title>
<path fill="none" stroke="#191970" d="M515.4852,-183.3426C512.3103,-163.9165 510.5863,-131.7211 529,-114 565.9396,-78.4498 938.3367,-85.8471 989,-78 992.4337,-77.4682 995.9937,-76.8157 999.5389,-76.0987"/>
<polygon fill="#191970" stroke="#191970" points="1000.3494,-79.5043 1009.3738,-73.9536 998.8577,-72.6651 1000.3494,-79.5043"/>
</g>
<!-- Node36&#45;&gt;Node30 -->
<g id="edge72" class="edge">
<title>Node36&#45;&gt;Node30</title>
<path fill="none" stroke="#191970" d="M508.5773,-183.3142C492.7844,-158.7888 462.8632,-112.3228 446.1206,-86.3225"/>
<polygon fill="#191970" stroke="#191970" points="448.9558,-84.2607 440.5991,-77.748 443.0705,-88.0506 448.9558,-84.2607"/>
</g>
<!-- Node36&#45;&gt;Node31 -->
<g id="edge71" class="edge">
<title>Node36&#45;&gt;Node31</title>
<path fill="none" stroke="#191970" d="M574.6878,-189.173C589.9718,-186.7233 606.5807,-184.4135 622,-183 1286.5169,-122.0854 1457.2685,-192.7694 2123,-147 2162.1705,-144.307 2207.052,-138.8281 2236.3764,-134.9229"/>
<polygon fill="#191970" stroke="#191970" points="2236.9957,-138.3712 2246.4369,-133.5635 2236.0582,-131.4342 2236.9957,-138.3712"/>
</g>
<!-- Node36&#45;&gt;Node34 -->
<g id="edge74" class="edge">
<title>Node36&#45;&gt;Node34</title>
<path fill="none" stroke="#191970" d="M538.4824,-183.4966C551.8075,-172.551 569.4257,-158.0789 582.8841,-147.0238"/>
<polygon fill="#191970" stroke="#191970" points="585.145,-149.6961 590.6506,-140.6441 580.7018,-144.287 585.145,-149.6961"/>
</g>
<!-- Node37&#45;&gt;Node15 -->
<g id="edge78" class="edge">
<title>Node37&#45;&gt;Node15</title>
<path fill="none" stroke="#191970" d="M1230.6029,-189.4551C1243.0071,-187.0206 1256.4752,-184.648 1269,-183 1503.5204,-152.1424 1569.903,-201.8394 1800,-147 1803.0484,-146.2735 1806.1628,-145.3315 1809.2368,-144.2658"/>
<polygon fill="#191970" stroke="#191970" points="1810.7353,-147.4386 1818.7879,-140.5534 1808.1992,-140.9141 1810.7353,-147.4386"/>
</g>
<!-- Node37&#45;&gt;Node25 -->
<g id="edge77" class="edge">
<title>Node37&#45;&gt;Node25</title>
<path fill="none" stroke="#191970" d="M1196.2141,-189.3188C1208.3379,-178.3116 1227.8633,-160.5846 1242.3134,-147.4654"/>
<polygon fill="#191970" stroke="#191970" points="1244.6888,-150.0362 1249.7399,-140.723 1239.9834,-144.8535 1244.6888,-150.0362"/>
</g>
<!-- Node37&#45;&gt;Node26 -->
<g id="edge79" class="edge">
<title>Node37&#45;&gt;Node26</title>
<path fill="none" stroke="#191970" d="M1231.0549,-189.4708C1243.3375,-187.0658 1256.6327,-184.7037 1269,-183 1467.7619,-155.6193 1523.3341,-191.3945 1719,-147 1722.4578,-146.2155 1726.008,-145.2076 1729.5146,-144.0774"/>
<polygon fill="#191970" stroke="#191970" points="1730.9154,-147.2942 1739.1695,-140.6519 1728.5748,-140.6972 1730.9154,-147.2942"/>
</g>
<!-- Node37&#45;&gt;Node27 -->
<g id="edge80" class="edge">
<title>Node37&#45;&gt;Node27</title>
<path fill="none" stroke="#191970" d="M1218.8935,-189.4077C1261.8084,-174.9831 1326.8847,-146.5841 1298,-114 1253.7521,-64.085 1065.5947,-90.1126 1000,-78 996.9211,-77.4315 993.7322,-76.7699 990.5505,-76.0607"/>
<polygon fill="#191970" stroke="#191970" points="991.0939,-72.5925 980.5559,-73.6884 989.4773,-79.4033 991.0939,-72.5925"/>
</g>
<!-- Node40&#45;&gt;Node10 -->
<g id="edge87" class="edge">
<title>Node40&#45;&gt;Node10</title>
<path fill="none" stroke="#191970" d="M1850.256,-189.3224C1868.1677,-171.9455 1899.0836,-136.2772 1878,-114 1849.771,-84.1729 1225.4378,-70.9521 1069.1989,-68.1038"/>
<polygon fill="#191970" stroke="#191970" points="1068.8345,-64.5968 1058.7732,-67.9166 1068.7087,-71.5957 1068.8345,-64.5968"/>
</g>
<!-- Node40&#45;&gt;Node11 -->
<g id="edge89" class="edge">
<title>Node40&#45;&gt;Node11</title>
<path fill="none" stroke="#191970" d="M1849.1751,-189.2252C1868.6545,-170.3193 1913.434,-130.4511 1960,-114 2018.3949,-93.3699 2413.9539,-77.0239 2594.9359,-70.5321"/>
<polygon fill="#191970" stroke="#191970" points="2595.0978,-74.0286 2604.9667,-70.1745 2594.8483,-67.033 2595.0978,-74.0286"/>
</g>
<!-- Node40&#45;&gt;Node15 -->
<g id="edge85" class="edge">
<title>Node40&#45;&gt;Node15</title>
<path fill="none" stroke="#191970" d="M1839,-189.3188C1839,-179.2289 1839,-163.4925 1839,-150.8347"/>
<polygon fill="#191970" stroke="#191970" points="1842.5001,-150.7229 1839,-140.723 1835.5001,-150.723 1842.5001,-150.7229"/>
</g>
<!-- Node40&#45;&gt;Node26 -->
<g id="edge86" class="edge">
<title>Node40&#45;&gt;Node26</title>
<path fill="none" stroke="#191970" d="M1827.6384,-189.3188C1815.355,-178.3116 1795.5727,-160.5846 1780.9324,-147.4654"/>
<polygon fill="#191970" stroke="#191970" points="1783.1914,-144.79 1773.4082,-140.723 1778.5198,-150.0032 1783.1914,-144.79"/>
</g>
<!-- Node40&#45;&gt;Node28 -->
<g id="edge88" class="edge">
<title>Node40&#45;&gt;Node28</title>
<path fill="none" stroke="#191970" d="M1763.3763,-194.773C1623.2308,-185.9408 1313.6887,-166.0952 1053,-147 1016.1846,-144.3033 975.7042,-141.1242 940.3802,-138.28"/>
<polygon fill="#191970" stroke="#191970" points="940.3279,-134.7645 930.0786,-137.4483 939.7645,-141.7418 940.3279,-134.7645"/>
</g>
<!-- Node40&#45;&gt;Node31 -->
<g id="edge84" class="edge">
<title>Node40&#45;&gt;Node31</title>
<path fill="none" stroke="#191970" d="M1901.3803,-189.4668C1994.2171,-174.535 2165.3796,-147.0054 2236.12,-135.6275"/>
<polygon fill="#191970" stroke="#191970" points="2236.879,-139.0505 2246.1963,-134.0069 2235.7673,-132.1394 2236.879,-139.0505"/>
</g>
<!-- Node41&#45;&gt;Node10 -->
<g id="edge102" class="edge">
<title>Node41&#45;&gt;Node10</title>
<path fill="none" stroke="#191970" d="M2144.1232,-189.3555C2145.5193,-171.0269 2145.4221,-132.5753 2123,-114 2102.2045,-96.7722 1252.2183,-73.2852 1068.696,-68.4087"/>
<polygon fill="#191970" stroke="#191970" points="1068.6229,-64.9056 1058.5337,-68.1396 1068.4375,-71.9032 1068.6229,-64.9056"/>
</g>
<!-- Node41&#45;&gt;Node11 -->
<g id="edge96" class="edge">
<title>Node41&#45;&gt;Node11</title>
<path fill="none" stroke="#191970" d="M2152.6296,-189.3836C2172.537,-168.7229 2218.0276,-122.8769 2238,-114 2299.7934,-86.5355 2482.8417,-74.9448 2594.6101,-70.3231"/>
<polygon fill="#191970" stroke="#191970" points="2595.0125,-73.8098 2604.8636,-69.9104 2594.7309,-66.8155 2595.0125,-73.8098"/>
</g>
<!-- Node41&#45;&gt;Node15 -->
<g id="edge101" class="edge">
<title>Node41&#45;&gt;Node15</title>
<path fill="none" stroke="#191970" d="M2098.7958,-189.4668C2039.8858,-176.0958 1936.4691,-152.6229 1879.4981,-139.692"/>
<polygon fill="#191970" stroke="#191970" points="1879.9488,-136.2053 1869.4221,-137.405 1878.3993,-143.0317 1879.9488,-136.2053"/>
</g>
<!-- Node41&#45;&gt;Node17 -->
<g id="edge95" class="edge">
<title>Node41&#45;&gt;Node17</title>
<path fill="none" stroke="#191970" d="M2190.8394,-189.4668C2250.048,-177.0492 2350.7994,-155.919 2414.2515,-142.6114"/>
<polygon fill="#191970" stroke="#191970" points="2415.0342,-146.0235 2424.1028,-140.5453 2413.5973,-139.1725 2415.0342,-146.0235"/>
</g>
<!-- Node41&#45;&gt;Node23 -->
<g id="edge100" class="edge">
<title>Node41&#45;&gt;Node23</title>
<path fill="none" stroke="#191970" d="M2149.1618,-189.2796C2158.9926,-171.5139 2175.2543,-134.8455 2156,-114 2137.211,-93.6582 1728.308,-74.3256 1605.5443,-68.9628"/>
<polygon fill="#191970" stroke="#191970" points="1605.3716,-65.4521 1595.2294,-68.5157 1605.0684,-72.4455 1605.3716,-65.4521"/>
</g>
<!-- Node41&#45;&gt;Node31 -->
<g id="edge99" class="edge">
<title>Node41&#45;&gt;Node31</title>
<path fill="none" stroke="#191970" d="M2161.1761,-189.4668C2182.098,-177.9179 2216.6724,-158.8328 2240.8016,-145.5135"/>
<polygon fill="#191970" stroke="#191970" points="2242.7387,-148.4421 2249.802,-140.5453 2239.3558,-142.3138 2242.7387,-148.4421"/>
</g>
<!-- Node42 -->
<g id="node42" class="node">
<title>Node42</title>
<g id="a_node42"><a xlink:href="../../da/d6d/periodic_8hpp.html" target="_top" xlink:title="Acts/Utilities/detail\l/periodic.hpp">
<polygon fill="none" stroke="#000000" points="2002.5,-114.5 2002.5,-146.5 2113.5,-146.5 2113.5,-114.5 2002.5,-114.5"/>
<text text-anchor="start" x="2010.5" y="-133.5" font-family="FreeSans" font-size="10.00" fill="#000000">Acts/Utilities/detail</text>
<text text-anchor="middle" x="2058" y="-121.5" font-family="FreeSans" font-size="10.00" fill="#000000">/periodic.hpp</text>
</a>
</g>
</g>
<!-- Node41&#45;&gt;Node42 -->
<g id="edge97" class="edge">
<title>Node41&#45;&gt;Node42</title>
<path fill="none" stroke="#191970" d="M2130.458,-189.3188C2118.7686,-179.8298 2100.9275,-165.347 2085.8742,-153.1273"/>
<polygon fill="#191970" stroke="#191970" points="2087.8248,-150.2027 2077.855,-146.6175 2083.413,-155.6375 2087.8248,-150.2027"/>
</g>
<!-- Node42&#45;&gt;Node23 -->
<g id="edge98" class="edge">
<title>Node42&#45;&gt;Node23</title>
<path fill="none" stroke="#191970" d="M2002.1349,-123.2731C1900.5305,-110.1292 1688.3333,-82.6786 1605.3291,-71.9409"/>
<polygon fill="#191970" stroke="#191970" points="1605.5454,-68.4398 1595.179,-70.6279 1604.6473,-75.382 1605.5454,-68.4398"/>
</g>
<!-- Node43&#45;&gt;Node6 -->
<g id="edge105" class="edge">
<title>Node43&#45;&gt;Node6</title>
<path fill="none" stroke="#191970" d="M2088.4988,-378.494C2140.6287,-371.1801 2207.949,-359.4495 2266,-342 2301.2658,-331.3995 2306.2946,-318.0097 2342,-309 2522.2407,-263.5191 2575.7966,-288.847 2764.9541,-273.0615"/>
<polygon fill="#191970" stroke="#191970" points="2765.2827,-276.5462 2774.9451,-272.2002 2764.6814,-269.5721 2765.2827,-276.5462"/>
</g>
<!-- Node43&#45;&gt;Node11 -->
<g id="edge115" class="edge">
<title>Node43&#45;&gt;Node11</title>
<path fill="none" stroke="#191970" d="M2001.1879,-378.3429C2000.4321,-361.1378 2001.7049,-326.4361 2022,-309 2085.8355,-254.1571 2316.6227,-290.225 2399,-273 2428.3028,-266.8728 2434.3114,-260.5535 2463,-252 2522.0967,-234.3804 2547.8759,-253.2785 2597,-216 2641.3972,-182.3085 2667.7307,-119.1964 2678.815,-87.1912"/>
<polygon fill="#191970" stroke="#191970" points="2682.1643,-88.2107 2681.9935,-77.6172 2675.5209,-86.0051 2682.1643,-88.2107"/>
</g>
<!-- Node43&#45;&gt;Node16 -->
<g id="edge111" class="edge">
<title>Node43&#45;&gt;Node16</title>
<path fill="none" stroke="#191970" d="M1950.0076,-378.4232C1912.0338,-370.3794 1859.6071,-357.8439 1815,-342 1746.99,-317.8436 1733.0946,-304.1702 1668,-273 1648.8174,-263.8145 1644.7135,-259.9828 1625,-252 1586.7216,-236.4995 1541.9768,-222.2028 1509.3866,-212.4558"/>
<polygon fill="#191970" stroke="#191970" points="1510.2656,-209.0659 1499.6833,-209.5806 1508.2769,-215.7774 1510.2656,-209.0659"/>
</g>
<!-- Node43&#45;&gt;Node18 -->
<g id="edge112" class="edge">
<title>Node43&#45;&gt;Node18</title>
<path fill="none" stroke="#191970" d="M1985.4513,-378.378C1968.9333,-368.2747 1943.3326,-352.6161 1924.2713,-340.9572"/>
<polygon fill="#191970" stroke="#191970" points="1925.8647,-337.829 1915.5077,-335.5969 1922.2122,-343.8006 1925.8647,-337.829"/>
</g>
<!-- Node43&#45;&gt;Node19 -->
<g id="edge106" class="edge">
<title>Node43&#45;&gt;Node19</title>
<path fill="none" stroke="#191970" d="M2043.497,-378.4585C2081.6262,-369.1792 2139.6848,-354.9166 2190,-342 2245.2382,-327.8196 2258.0828,-320.2078 2314,-309 2391.4557,-293.4751 2479.8604,-281.5833 2547.2452,-273.7128"/>
<polygon fill="#191970" stroke="#191970" points="2547.9205,-277.1581 2557.4523,-272.5325 2547.1164,-270.2044 2547.9205,-277.1581"/>
</g>
<!-- Node43&#45;&gt;Node20 -->
<g id="edge107" class="edge">
<title>Node43&#45;&gt;Node20</title>
<path fill="none" stroke="#191970" d="M1912.9802,-383.7603C1793.1282,-376.6663 1591.6212,-361.9568 1564,-342 1544.5969,-327.9809 1535.4315,-300.9856 1531.2576,-282.3704"/>
<polygon fill="#191970" stroke="#191970" points="1534.6896,-281.6833 1529.3372,-272.5399 1527.8195,-283.0255 1534.6896,-281.6833"/>
</g>
<!-- Node43&#45;&gt;Node32 -->
<g id="edge104" class="edge">
<title>Node43&#45;&gt;Node32</title>
<path fill="none" stroke="#191970" d="M1912.8997,-384.6079C1797.7734,-378.7158 1604.1567,-365.6315 1537,-342 1458.8575,-314.5028 1383.3248,-248.2501 1350.333,-216.7263"/>
<polygon fill="#191970" stroke="#191970" points="1352.5016,-213.9538 1342.8861,-209.5048 1347.6284,-218.979 1352.5016,-213.9538"/>
</g>
<!-- Node44 -->
<g id="node44" class="node">
<title>Node44</title>
<g id="a_node44"><a xlink:href="../../d9/d1e/InfiniteBounds_8hpp.html" target="_top" xlink:title="Acts/Surfaces/InfiniteBounds.hpp">
<polygon fill="none" stroke="#000000" points="2712.5,-189.5 2712.5,-209.5 2897.5,-209.5 2897.5,-189.5 2712.5,-189.5"/>
<text text-anchor="middle" x="2805" y="-196.5" font-family="FreeSans" font-size="10.00" fill="#000000">Acts/Surfaces/InfiniteBounds.hpp</text>
</a>
</g>
</g>
<!-- Node43&#45;&gt;Node44 -->
<g id="edge108" class="edge">
<title>Node43&#45;&gt;Node44</title>
<path fill="none" stroke="#191970" d="M2058.9077,-378.4944C2089.4901,-371.4245 2126.971,-359.9361 2157,-342 2174.8072,-331.3639 2171.326,-318.028 2190,-309 2315.2735,-248.4365 2367.2842,-311.4899 2501,-273 2521.8232,-267.0061 2524.4469,-258.863 2545,-252 2579.8273,-240.3707 2672.1542,-222.8579 2736.8306,-211.3041"/>
<polygon fill="#191970" stroke="#191970" points="2737.7276,-214.6996 2746.9604,-209.5028 2736.502,-207.8077 2737.7276,-214.6996"/>
</g>
<!-- Node45 -->
<g id="node45" class="node">
<title>Node45</title>
<g id="a_node45"><a xlink:href="../../da/d71/PlanarHelper_8hpp.html" target="_top" xlink:title="Acts/Surfaces/detail\l/PlanarHelper.hpp">
<polygon fill="none" stroke="#ff0000" points="2030.5,-309.5 2030.5,-341.5 2147.5,-341.5 2147.5,-309.5 2030.5,-309.5"/>
<text text-anchor="start" x="2038.5" y="-328.5" font-family="FreeSans" font-size="10.00" fill="#000000">Acts/Surfaces/detail</text>
<text text-anchor="middle" x="2089" y="-316.5" font-family="FreeSans" font-size="10.00" fill="#000000">/PlanarHelper.hpp</text>
</a>
</g>
</g>
<!-- Node43&#45;&gt;Node45 -->
<g id="edge113" class="edge">
<title>Node43&#45;&gt;Node45</title>
<path fill="none" stroke="#191970" d="M2015.9781,-378.378C2027.3814,-370.1204 2043.9096,-358.1517 2058.3582,-347.6889"/>
<polygon fill="#191970" stroke="#191970" points="2060.524,-350.4419 2066.5706,-341.742 2056.4184,-344.7723 2060.524,-350.4419"/>
</g>
<!-- Node46 -->
<g id="node46" class="node">
<title>Node46</title>
<g id="a_node46"><a xlink:href="../../d2/d4a/PlaneSurface_8ipp.html" target="_top" xlink:title="Acts/Surfaces/detail\l/PlaneSurface.ipp">
<polygon fill="none" stroke="#000000" points="1573.5,-309.5 1573.5,-341.5 1690.5,-341.5 1690.5,-309.5 1573.5,-309.5"/>
<text text-anchor="start" x="1581.5" y="-328.5" font-family="FreeSans" font-size="10.00" fill="#000000">Acts/Surfaces/detail</text>
<text text-anchor="middle" x="1632" y="-316.5" font-family="FreeSans" font-size="10.00" fill="#000000">/PlaneSurface.ipp</text>
</a>
</g>
</g>
<!-- Node43&#45;&gt;Node46 -->
<g id="edge116" class="edge">
<title>Node43&#45;&gt;Node46</title>
<path fill="none" stroke="#191970" d="M1929.1406,-378.4824C1868.8716,-369.8629 1781.1259,-356.5457 1705,-342 1703.7078,-341.7531 1702.4036,-341.4999 1701.0905,-341.2413"/>
<polygon fill="#191970" stroke="#191970" points="1701.3928,-337.7312 1690.8958,-339.1679 1699.9976,-344.5908 1701.3928,-337.7312"/>
</g>
<!-- Node44&#45;&gt;Node11 -->
<g id="edge110" class="edge">
<title>Node44&#45;&gt;Node11</title>
<path fill="none" stroke="#191970" d="M2795.5838,-189.1422C2775.167,-166.6837 2726.6191,-113.281 2701.1808,-85.2989"/>
<polygon fill="#191970" stroke="#191970" points="2703.689,-82.8548 2694.3725,-77.8097 2698.5094,-87.5635 2703.689,-82.8548"/>
</g>
<!-- Node44&#45;&gt;Node17 -->
<g id="edge109" class="edge">
<title>Node44&#45;&gt;Node17</title>
<path fill="none" stroke="#191970" d="M2756.5789,-189.4668C2696.6505,-177.0492 2594.6742,-155.919 2530.4506,-142.6114"/>
<polygon fill="#191970" stroke="#191970" points="2530.9817,-139.1472 2520.4795,-140.5453 2529.5613,-146.0016 2530.9817,-139.1472"/>
</g>
<!-- Node45&#45;&gt;Node11 -->
<g id="edge114" class="edge">
<title>Node45&#45;&gt;Node11</title>
<path fill="none" stroke="#191970" d="M2147.5222,-310.0708C2149.3658,-309.6942 2151.1951,-309.3358 2153,-309 2289.3632,-283.6271 2330.9178,-315.344 2463,-273 2481.3751,-267.1092 2482.9618,-258.8533 2501,-252 2569.1369,-226.1126 2611.0577,-269.0901 2661,-216 2693.8301,-181.1007 2691.9301,-119.9513 2688.2181,-88.1025"/>
<polygon fill="#191970" stroke="#191970" points="2691.6337,-87.2403 2686.8296,-77.7973 2684.6964,-88.1751 2691.6337,-87.2403"/>
</g>
<!-- Node47&#45;&gt;Node10 -->
<g id="edge124" class="edge">
<title>Node47&#45;&gt;Node10</title>
<path fill="none" stroke="#191970" d="M2042.5,-255.9903C1919.2195,-246.7069 1709.974,-229.3156 1677,-216 1654.9877,-207.111 1656.293,-193.4959 1635,-183 1576.988,-154.4043 1552.1741,-175.2647 1494,-147 1472.3318,-136.4722 1473.3467,-122.9985 1451,-114 1381.7551,-86.1167 1156.1087,-73.0756 1068.8709,-68.9834"/>
<polygon fill="#191970" stroke="#191970" points="1068.8485,-65.4788 1058.6988,-68.5176 1068.5282,-72.4715 1068.8485,-65.4788"/>
</g>
<!-- Node47&#45;&gt;Node11 -->
<g id="edge120" class="edge">
<title>Node47&#45;&gt;Node11</title>
<path fill="none" stroke="#191970" d="M2223.7409,-260.5654C2429.3315,-255.7394 2914.7661,-241.6723 2939,-216 2970.1187,-183.0343 2968.0261,-148.8223 2939,-114 2918.2247,-89.0761 2839.7312,-77.471 2775.4359,-72.0915"/>
<polygon fill="#191970" stroke="#191970" points="2775.4961,-68.5853 2765.2499,-71.2805 2774.9405,-75.5632 2775.4961,-68.5853"/>
</g>
<!-- Node47&#45;&gt;Node29 -->
<g id="edge121" class="edge">
<title>Node47&#45;&gt;Node29</title>
<path fill="none" stroke="#191970" d="M2042.259,-254.6191C1948.0255,-245.8495 1807.2056,-230.9382 1755,-216 1726.624,-207.8804 1656.5518,-173.7532 1611.5325,-151.1474"/>
<polygon fill="#191970" stroke="#191970" points="1612.8356,-147.8849 1602.3301,-146.512 1609.6865,-154.1366 1612.8356,-147.8849"/>
</g>
<!-- Node47&#45;&gt;Node31 -->
<g id="edge123" class="edge">
<title>Node47&#45;&gt;Node31</title>
<path fill="none" stroke="#191970" d="M2212.378,-252.4852C2256.6368,-245.0926 2305.506,-233.2828 2319,-216 2336.3719,-193.7504 2310.821,-165.091 2290.0438,-147.256"/>
<polygon fill="#191970" stroke="#191970" points="2292.0846,-144.4031 2282.1336,-140.7661 2287.6446,-149.8148 2292.0846,-144.4031"/>
</g>
<!-- Node47&#45;&gt;Node42 -->
<g id="edge122" class="edge">
<title>Node47&#45;&gt;Node42</title>
<path fill="none" stroke="#191970" d="M2089.4501,-252.3819C2070.1929,-245.5071 2049.3722,-234.2279 2038,-216 2026.698,-197.8847 2033.7499,-173.9984 2042.4552,-156.0785"/>
<polygon fill="#191970" stroke="#191970" points="2045.775,-157.2876 2047.3556,-146.8114 2039.5869,-154.0154 2045.775,-157.2876"/>
</g>
<!-- Node48 -->
<g id="node48" class="node">
<title>Node48</title>
<g id="a_node48"><a xlink:href="../../d2/dc0/DiscBounds_8hpp.html" target="_top" xlink:title="Acts/Surfaces/DiscBounds.hpp">
<polygon fill="none" stroke="#000000" points="2371.5,-189.5 2371.5,-209.5 2542.5,-209.5 2542.5,-189.5 2371.5,-189.5"/>
<text text-anchor="middle" x="2457" y="-196.5" font-family="FreeSans" font-size="10.00" fill="#000000">Acts/Surfaces/DiscBounds.hpp</text>
</a>
</g>
</g>
<!-- Node47&#45;&gt;Node48 -->
<g id="edge118" class="edge">
<title>Node47&#45;&gt;Node48</title>
<path fill="none" stroke="#191970" d="M2184.697,-252.4478C2242.0689,-241.2922 2334.5905,-223.3018 2395.602,-211.4385"/>
<polygon fill="#191970" stroke="#191970" points="2396.339,-214.8608 2405.4871,-209.5164 2395.0029,-207.9895 2396.339,-214.8608"/>
</g>
<!-- Node48&#45;&gt;Node17 -->
<g id="edge119" class="edge">
<title>Node48&#45;&gt;Node17</title>
<path fill="none" stroke="#191970" d="M2459.2133,-189.3188C2461.4068,-179.2289 2464.8277,-163.4925 2467.5794,-150.8347"/>
<polygon fill="#191970" stroke="#191970" points="2471.0734,-151.2383 2469.7776,-140.723 2464.2331,-149.7512 2471.0734,-151.2383"/>
</g>
<!-- Node49&#45;&gt;Node10 -->
<g id="edge129" class="edge">
<title>Node49&#45;&gt;Node10</title>
<path fill="none" stroke="#191970" d="M1774.0073,-252.4515C1734.5667,-245.4047 1685.885,-233.9517 1645,-216 1621.2957,-205.592 1620.5262,-193.8047 1597,-183 1540.1796,-156.9046 1517.8204,-173.0954 1461,-147 1437.4738,-136.1953 1437.2091,-123.1728 1413,-114 1350.3352,-90.2564 1150.2711,-75.0138 1068.9096,-69.6537"/>
<polygon fill="#191970" stroke="#191970" points="1068.8971,-66.1456 1058.6917,-68.9916 1068.4444,-73.131 1068.8971,-66.1456"/>
</g>
<!-- Node49&#45;&gt;Node11 -->
<g id="edge127" class="edge">
<title>Node49&#45;&gt;Node11</title>
<path fill="none" stroke="#191970" d="M1948.3769,-256.5539C1976.1113,-254.9871 2006.2181,-253.3569 2034,-252 2082.4834,-249.632 2873.3907,-251.0238 2907,-216 2967.3147,-153.1468 2819.5546,-102.5715 2736.6265,-80.1019"/>
<polygon fill="#191970" stroke="#191970" points="2737.4167,-76.6905 2726.853,-77.5021 2735.6172,-83.4553 2737.4167,-76.6905"/>
</g>
<!-- Node49&#45;&gt;Node16 -->
<g id="edge126" class="edge">
<title>Node49&#45;&gt;Node16</title>
<path fill="none" stroke="#191970" d="M1786.7295,-252.4478C1718.1723,-241.2001 1607.2663,-223.0046 1534.9865,-211.1462"/>
<polygon fill="#191970" stroke="#191970" points="1535.4871,-207.6816 1525.0523,-209.5164 1534.3537,-214.5893 1535.4871,-207.6816"/>
</g>
<!-- Node49&#45;&gt;Node31 -->
<g id="edge128" class="edge">
<title>Node49&#45;&gt;Node31</title>
<path fill="none" stroke="#191970" d="M1948.0959,-255.1131C2072.5136,-245.4414 2269.971,-228.2768 2281,-216 2297.1492,-198.0237 2287.8543,-168.8563 2278.7253,-149.6745"/>
<polygon fill="#191970" stroke="#191970" points="2281.782,-147.9648 2274.1022,-140.6661 2275.5542,-151.1609 2281.782,-147.9648"/>
</g>
</g>
</svg>
