<?xml version="1.0" encoding="UTF-8" standalone="no"?>
<!DOCTYPE svg PUBLIC "-//W3C//DTD SVG 1.1//EN"
 "http://www.w3.org/Graphics/SVG/1.1/DTD/svg11.dtd">
<!-- Generated by graphviz version 2.40.1 (20161225.0304)
 -->
<!-- Title: fun4all_coresoftware/blob/master/simulation/g4simulation/g4main/PHG4SteppingAction.h Pages: 1 -->
<svg width="213pt" height="122pt"
 viewBox="0.00 0.00 213.00 122.00" xmlns="http://www.w3.org/2000/svg" xmlns:xlink="http://www.w3.org/1999/xlink">
<g id="graph0" class="graph" transform="scale(1 1) rotate(0) translate(4 118)">
<title>fun4all_coresoftware/blob/master/simulation/g4simulation/g4main/PHG4SteppingAction.h</title>
<!-- Node1 -->
<g id="node1" class="node">
<title>Node1</title>
<polygon fill="#bfbfbf" stroke="#000000" points="0,-57.5 0,-113.5 205,-113.5 205,-57.5 0,-57.5"/>
<text text-anchor="start" x="8" y="-100.5" font-family="FreeSans" font-size="10.00" fill="#000000">fun4all_coresoftware</text>
<text text-anchor="start" x="8" y="-88.5" font-family="FreeSans" font-size="10.00" fill="#000000">/blob/master/simulation</text>
<text text-anchor="start" x="8" y="-76.5" font-family="FreeSans" font-size="10.00" fill="#000000">/g4simulation/g4main/PHG4Stepping</text>
<text text-anchor="middle" x="102.5" y="-64.5" font-family="FreeSans" font-size="10.00" fill="#000000">Action.h</text>
</g>
<!-- Node2 -->
<g id="node2" class="node">
<title>Node2</title>
<polygon fill="none" stroke="#bfbfbf" points="58.5,-.5 58.5,-20.5 90.5,-20.5 90.5,-.5 58.5,-.5"/>
<text text-anchor="middle" x="74.5" y="-7.5" font-family="FreeSans" font-size="10.00" fill="#000000">set</text>
</g>
<!-- Node1&#45;&gt;Node2 -->
<g id="edge1" class="edge">
<title>Node1&#45;&gt;Node2</title>
<path fill="none" stroke="#191970" d="M91.9144,-57.1457C88.5606,-48.1623 84.9284,-38.4332 81.8533,-30.1963"/>
<polygon fill="#191970" stroke="#191970" points="85.0956,-28.8738 78.319,-20.7296 78.5377,-31.3221 85.0956,-28.8738"/>
</g>
<!-- Node3 -->
<g id="node3" class="node">
<title>Node3</title>
<polygon fill="none" stroke="#bfbfbf" points="109,-.5 109,-20.5 154,-20.5 154,-.5 109,-.5"/>
<text text-anchor="middle" x="131.5" y="-7.5" font-family="FreeSans" font-size="10.00" fill="#000000">string</text>
</g>
<!-- Node1&#45;&gt;Node3 -->
<g id="edge2" class="edge">
<title>Node1&#45;&gt;Node3</title>
<path fill="none" stroke="#191970" d="M113.4637,-57.1457C116.9372,-48.1623 120.6992,-38.4332 123.8841,-30.1963"/>
<polygon fill="#191970" stroke="#191970" points="127.2025,-31.3189 127.5446,-20.7296 120.6736,-28.7943 127.2025,-31.3189"/>
</g>
</g>
</svg>
