<?xml version="1.0" encoding="UTF-8" standalone="no"?>
<!DOCTYPE svg PUBLIC "-//W3C//DTD SVG 1.1//EN"
 "http://www.w3.org/Graphics/SVG/1.1/DTD/svg11.dtd">
<!-- Generated by graphviz version 2.40.1 (20161225.0304)
 -->
<!-- Title: fun4all_GenFit/blob/master/measurements/src/WireMeasurement.cc Pages: 1 -->
<svg width="1112pt" height="623pt"
 viewBox="0.00 0.00 1111.50 623.00" xmlns="http://www.w3.org/2000/svg" xmlns:xlink="http://www.w3.org/1999/xlink">
<g id="graph0" class="graph" transform="scale(1 1) rotate(0) translate(4 619)">
<title>fun4all_GenFit/blob/master/measurements/src/WireMeasurement.cc</title>
<!-- Node1 -->
<g id="node1" class="node">
<title>Node1</title>
<polygon fill="#bfbfbf" stroke="#000000" points="696,-570.5 696,-614.5 841,-614.5 841,-570.5 696,-570.5"/>
<text text-anchor="start" x="704" y="-601.5" font-family="FreeSans" font-size="10.00" fill="#000000">fun4all_GenFit/blob</text>
<text text-anchor="start" x="704" y="-589.5" font-family="FreeSans" font-size="10.00" fill="#000000">/master/measurements</text>
<text text-anchor="middle" x="768.5" y="-577.5" font-family="FreeSans" font-size="10.00" fill="#000000">/src/WireMeasurement.cc</text>
</g>
<!-- Node2 -->
<g id="node2" class="node">
<title>Node2</title>
<g id="a_node2"><a xlink:href="../../dc/dec/WireMeasurement_8h.html" target="_top" xlink:title="WireMeasurement.h">
<polygon fill="none" stroke="#000000" points="667,-513.5 667,-533.5 784,-533.5 784,-513.5 667,-513.5"/>
<text text-anchor="middle" x="725.5" y="-520.5" font-family="FreeSans" font-size="10.00" fill="#000000">WireMeasurement.h</text>
</a>
</g>
</g>
<!-- Node1&#45;&gt;Node2 -->
<g id="edge1" class="edge">
<title>Node1&#45;&gt;Node2</title>
<path fill="none" stroke="#191970" d="M754.6578,-570.2882C749.0325,-561.2615 742.6027,-550.9438 737.2149,-542.2984"/>
<polygon fill="#191970" stroke="#191970" points="740.1244,-540.3494 731.865,-533.7137 734.1836,-544.0517 740.1244,-540.3494"/>
</g>
<!-- Node21 -->
<g id="node21" class="node">
<title>Node21</title>
<polygon fill="none" stroke="#bfbfbf" points="432,-228.5 432,-248.5 485,-248.5 485,-228.5 432,-228.5"/>
<text text-anchor="middle" x="458.5" y="-235.5" font-family="FreeSans" font-size="10.00" fill="#000000">cassert</text>
</g>
<!-- Node1&#45;&gt;Node21 -->
<g id="edge56" class="edge">
<title>Node1&#45;&gt;Node21</title>
<path fill="none" stroke="#191970" d="M695.5802,-581.667C591.9514,-564.1855 414.5,-525.6195 414.5,-466.5 414.5,-466.5 414.5,-466.5 414.5,-409.5 414.5,-353.0406 437.2749,-289.3093 450.0538,-257.9938"/>
<polygon fill="#191970" stroke="#191970" points="453.3224,-259.2495 453.957,-248.6737 446.8657,-256.5455 453.3224,-259.2495"/>
</g>
<!-- Node23 -->
<g id="node23" class="node">
<title>Node23</title>
<polygon fill="none" stroke="#bfbfbf" points="442.5,-342.5 442.5,-362.5 490.5,-362.5 490.5,-342.5 442.5,-342.5"/>
<text text-anchor="middle" x="466.5" y="-349.5" font-family="FreeSans" font-size="10.00" fill="#000000">cmath</text>
</g>
<!-- Node1&#45;&gt;Node23 -->
<g id="edge44" class="edge">
<title>Node1&#45;&gt;Node23</title>
<path fill="none" stroke="#191970" d="M721.1452,-570.2614C664.744,-541.8784 570.4005,-488.1816 508.5,-420 495.2332,-405.387 483.6828,-386.0376 476.0708,-371.803"/>
<polygon fill="#191970" stroke="#191970" points="479.1614,-370.1597 471.4575,-362.8864 472.9442,-373.3764 479.1614,-370.1597"/>
</g>
<!-- Node24 -->
<g id="node24" class="node">
<title>Node24</title>
<g id="a_node24"><a xlink:href="../../d7/d2f/IO_8h.html" target="_top" xlink:title="IO.h">
<polygon fill="none" stroke="#000000" points="881.5,-513.5 881.5,-533.5 917.5,-533.5 917.5,-513.5 881.5,-513.5"/>
<text text-anchor="middle" x="899.5" y="-520.5" font-family="FreeSans" font-size="10.00" fill="#000000">IO.h</text>
</a>
</g>
</g>
<!-- Node1&#45;&gt;Node24 -->
<g id="edge42" class="edge">
<title>Node1&#45;&gt;Node24</title>
<path fill="none" stroke="#191970" d="M810.3094,-570.4783C830.5267,-559.8294 854.2242,-547.3475 872.1092,-537.9272"/>
<polygon fill="#191970" stroke="#191970" points="874.1716,-540.7968 881.3882,-533.0398 870.9094,-534.6034 874.1716,-540.7968"/>
</g>
<!-- Node26 -->
<g id="node26" class="node">
<title>Node26</title>
<polygon fill="none" stroke="#bfbfbf" points="936,-513.5 936,-533.5 1001,-533.5 1001,-513.5 936,-513.5"/>
<text text-anchor="middle" x="968.5" y="-520.5" font-family="FreeSans" font-size="10.00" fill="#000000">algorithm</text>
</g>
<!-- Node1&#45;&gt;Node26 -->
<g id="edge45" class="edge">
<title>Node1&#45;&gt;Node26</title>
<path fill="none" stroke="#191970" d="M832.3311,-570.4783C864.3012,-559.4486 901.9713,-546.4524 929.5768,-536.9285"/>
<polygon fill="#191970" stroke="#191970" points="930.951,-540.1569 939.2627,-533.5869 928.668,-533.5397 930.951,-540.1569"/>
</g>
<!-- Node27 -->
<g id="node27" class="node">
<title>Node27</title>
<g id="a_node27"><a xlink:href="../../d8/d8a/Exception_8h.html" target="_top" xlink:title="Exception.h">
<polygon fill="none" stroke="#000000" points="199,-513.5 199,-533.5 274,-533.5 274,-513.5 199,-513.5"/>
<text text-anchor="middle" x="236.5" y="-520.5" font-family="FreeSans" font-size="10.00" fill="#000000">Exception.h</text>
</a>
</g>
</g>
<!-- Node1&#45;&gt;Node27 -->
<g id="edge46" class="edge">
<title>Node1&#45;&gt;Node27</title>
<path fill="none" stroke="#191970" d="M695.921,-583.0866C585.3367,-568.7439 377.6649,-541.809 284.2109,-529.6881"/>
<polygon fill="#191970" stroke="#191970" points="284.5607,-526.2042 274.1935,-528.3888 283.6603,-533.1461 284.5607,-526.2042"/>
</g>
<!-- Node33 -->
<g id="node33" class="node">
<title>Node33</title>
<polygon fill="none" stroke="#bfbfbf" points="1019.5,-513.5 1019.5,-533.5 1103.5,-533.5 1103.5,-513.5 1019.5,-513.5"/>
<text text-anchor="middle" x="1061.5" y="-520.5" font-family="FreeSans" font-size="10.00" fill="#000000">RKTrackRep.h</text>
</g>
<!-- Node1&#45;&gt;Node33 -->
<g id="edge53" class="edge">
<title>Node1&#45;&gt;Node33</title>
<path fill="none" stroke="#191970" d="M841.3034,-575.3552C893.5677,-563.0472 962.7526,-546.7545 1009.5168,-535.7418"/>
<polygon fill="#191970" stroke="#191970" points="1010.5018,-539.1056 1019.4332,-533.4065 1008.8971,-532.292 1010.5018,-539.1056"/>
</g>
<!-- Node34 -->
<g id="node34" class="node">
<title>Node34</title>
<g id="a_node34"><a xlink:href="../../d6/dfc/HMatrixU_8h.html" target="_top" xlink:title="HMatrixU.h">
<polygon fill="none" stroke="#000000" points="1017.5,-399.5 1017.5,-419.5 1089.5,-419.5 1089.5,-399.5 1017.5,-399.5"/>
<text text-anchor="middle" x="1053.5" y="-406.5" font-family="FreeSans" font-size="10.00" fill="#000000">HMatrixU.h</text>
</a>
</g>
</g>
<!-- Node1&#45;&gt;Node34 -->
<g id="edge54" class="edge">
<title>Node1&#45;&gt;Node34</title>
<path fill="none" stroke="#191970" d="M779.2725,-570.3691C795.2889,-539.8529 828.3051,-485.3098 872.5,-456 883.7882,-448.5138 957.3697,-431.0074 1007.1702,-419.7393"/>
<polygon fill="#191970" stroke="#191970" points="1008.1092,-423.1156 1017.0962,-417.5045 1006.5716,-416.2865 1008.1092,-423.1156"/>
</g>
<!-- Node3 -->
<g id="node3" class="node">
<title>Node3</title>
<g id="a_node3"><a xlink:href="../../d9/d7a/AbsMeasurement_8h.html" target="_top" xlink:title="AbsMeasurement.h">
<polygon fill="none" stroke="#000000" points="711.5,-456.5 711.5,-476.5 825.5,-476.5 825.5,-456.5 711.5,-456.5"/>
<text text-anchor="middle" x="768.5" y="-463.5" font-family="FreeSans" font-size="10.00" fill="#000000">AbsMeasurement.h</text>
</a>
</g>
</g>
<!-- Node2&#45;&gt;Node3 -->
<g id="edge2" class="edge">
<title>Node2&#45;&gt;Node3</title>
<path fill="none" stroke="#191970" d="M733.1875,-513.3095C739.18,-505.3661 747.6549,-494.1319 754.8002,-484.6602"/>
<polygon fill="#191970" stroke="#191970" points="757.6507,-486.6933 760.879,-476.6022 752.0625,-482.4776 757.6507,-486.6933"/>
</g>
<!-- Node4 -->
<g id="node4" class="node">
<title>Node4</title>
<g id="a_node4"><a xlink:href="../../d7/d22/MeasurementOnPlane_8h.html" target="_top" xlink:title="MeasurementOnPlane.h">
<polygon fill="none" stroke="#000000" points="518,-399.5 518,-419.5 655,-419.5 655,-399.5 518,-399.5"/>
<text text-anchor="middle" x="586.5" y="-406.5" font-family="FreeSans" font-size="10.00" fill="#000000">MeasurementOnPlane.h</text>
</a>
</g>
</g>
<!-- Node2&#45;&gt;Node4 -->
<g id="edge41" class="edge">
<title>Node2&#45;&gt;Node4</title>
<path fill="none" stroke="#191970" d="M713.1647,-513.3833C689.2174,-493.743 636.2175,-450.2755 606.935,-426.2597"/>
<polygon fill="#191970" stroke="#191970" points="608.9592,-423.3932 599.0075,-419.7579 604.5201,-428.8057 608.9592,-423.3932"/>
</g>
<!-- Node22 -->
<g id="node22" class="node">
<title>Node22</title>
<g id="a_node22"><a xlink:href="../../d4/daa/AbsHMatrix_8h.html" target="_top" xlink:title="AbsHMatrix.h">
<polygon fill="none" stroke="#000000" points="755.5,-342.5 755.5,-362.5 839.5,-362.5 839.5,-342.5 755.5,-342.5"/>
<text text-anchor="middle" x="797.5" y="-349.5" font-family="FreeSans" font-size="10.00" fill="#000000">AbsHMatrix.h</text>
</a>
</g>
</g>
<!-- Node2&#45;&gt;Node22 -->
<g id="edge40" class="edge">
<title>Node2&#45;&gt;Node22</title>
<path fill="none" stroke="#191970" d="M717.5266,-513.3389C708.1183,-500.0432 694.684,-476.0739 702.5,-456 717.0022,-418.7538 751.8663,-386.7812 775.0808,-368.5931"/>
<polygon fill="#191970" stroke="#191970" points="777.2082,-371.3724 783.0471,-362.5317 772.9695,-365.8016 777.2082,-371.3724"/>
</g>
<!-- Node3&#45;&gt;Node4 -->
<g id="edge3" class="edge">
<title>Node3&#45;&gt;Node4</title>
<path fill="none" stroke="#191970" d="M736.381,-456.4408C706.3247,-447.0275 661.2499,-432.9107 628.3819,-422.6169"/>
<polygon fill="#191970" stroke="#191970" points="629.1925,-419.2032 618.6035,-419.5544 627.1003,-425.8832 629.1925,-419.2032"/>
</g>
<!-- Node11 -->
<g id="node11" class="node">
<title>Node11</title>
<polygon fill="none" stroke="#bfbfbf" points="769,-57.5 769,-77.5 834,-77.5 834,-57.5 769,-57.5"/>
<text text-anchor="middle" x="801.5" y="-64.5" font-family="FreeSans" font-size="10.00" fill="#000000">TObject.h</text>
</g>
<!-- Node3&#45;&gt;Node11 -->
<g id="edge39" class="edge">
<title>Node3&#45;&gt;Node11</title>
<path fill="none" stroke="#191970" d="M803.0313,-456.4585C865.1875,-437.3475 989.5,-393.9451 989.5,-352.5 989.5,-352.5 989.5,-352.5 989.5,-181.5 989.5,-113.9437 899.6439,-85.3096 844.1748,-74.0695"/>
<polygon fill="#191970" stroke="#191970" points="844.7271,-70.6117 834.2471,-72.1676 843.41,-77.4867 844.7271,-70.6117"/>
</g>
<!-- Node3&#45;&gt;Node22 -->
<g id="edge38" class="edge">
<title>Node3&#45;&gt;Node22</title>
<path fill="none" stroke="#191970" d="M771.0736,-456.3833C775.8553,-437.586 786.1893,-396.9627 792.4235,-372.4559"/>
<polygon fill="#191970" stroke="#191970" points="795.8171,-373.3122 794.8905,-362.7579 789.0331,-371.5864 795.8171,-373.3122"/>
</g>
<!-- Node5 -->
<g id="node5" class="node">
<title>Node5</title>
<g id="a_node5"><a xlink:href="../../df/dc0/MeasuredStateOnPlane_8h.html" target="_top" xlink:title="MeasuredStateOnPlane.h">
<polygon fill="none" stroke="#000000" points="584.5,-342.5 584.5,-362.5 728.5,-362.5 728.5,-342.5 584.5,-342.5"/>
<text text-anchor="middle" x="656.5" y="-349.5" font-family="FreeSans" font-size="10.00" fill="#000000">MeasuredStateOnPlane.h</text>
</a>
</g>
</g>
<!-- Node4&#45;&gt;Node5 -->
<g id="edge4" class="edge">
<title>Node4&#45;&gt;Node5</title>
<path fill="none" stroke="#191970" d="M599.0146,-399.3095C609.3669,-390.8798 624.2706,-378.7439 636.3087,-368.9415"/>
<polygon fill="#191970" stroke="#191970" points="638.5494,-371.6306 644.0937,-362.6022 634.1294,-366.2025 638.5494,-371.6306"/>
</g>
<!-- Node13 -->
<g id="node13" class="node">
<title>Node13</title>
<polygon fill="none" stroke="#bfbfbf" points="363.5,-57.5 363.5,-77.5 421.5,-77.5 421.5,-57.5 363.5,-57.5"/>
<text text-anchor="middle" x="392.5" y="-64.5" font-family="FreeSans" font-size="10.00" fill="#000000">memory</text>
</g>
<!-- Node4&#45;&gt;Node13 -->
<g id="edge37" class="edge">
<title>Node4&#45;&gt;Node13</title>
<path fill="none" stroke="#191970" d="M579.051,-399.4085C568.7858,-385.7743 549.4073,-360.992 530.5,-342 485.8094,-297.1091 453.5487,-304.2125 422.5,-249 393.1045,-196.7274 390.6914,-123.4893 391.493,-88.1647"/>
<polygon fill="#191970" stroke="#191970" points="395.0063,-87.8385 391.8538,-77.7236 388.0105,-87.5967 395.0063,-87.8385"/>
</g>
<!-- Node19 -->
<g id="node19" class="node">
<title>Node19</title>
<polygon fill="none" stroke="#bfbfbf" points="293.5,-171.5 293.5,-191.5 365.5,-191.5 365.5,-171.5 293.5,-171.5"/>
<text text-anchor="middle" x="329.5" y="-178.5" font-family="FreeSans" font-size="10.00" fill="#000000">TMatrixD.h</text>
</g>
<!-- Node4&#45;&gt;Node19 -->
<g id="edge35" class="edge">
<title>Node4&#45;&gt;Node19</title>
<path fill="none" stroke="#191970" d="M576.113,-399.3994C560.6188,-384.835 529.9966,-357.9395 499.5,-342 452.0353,-317.1919 424.4416,-341.6794 384.5,-306 353.2131,-278.0517 338.8691,-228.989 333.0156,-201.54"/>
<polygon fill="#191970" stroke="#191970" points="336.4134,-200.6785 331.0575,-191.5371 329.5438,-202.0232 336.4134,-200.6785"/>
</g>
<!-- Node4&#45;&gt;Node22 -->
<g id="edge31" class="edge">
<title>Node4&#45;&gt;Node22</title>
<path fill="none" stroke="#191970" d="M623.7369,-399.4408C659.033,-389.9058 712.1938,-375.5448 750.4157,-365.2195"/>
<polygon fill="#191970" stroke="#191970" points="751.54,-368.5413 760.2811,-362.5544 749.7144,-361.7835 751.54,-368.5413"/>
</g>
<!-- Node4&#45;&gt;Node23 -->
<g id="edge36" class="edge">
<title>Node4&#45;&gt;Node23</title>
<path fill="none" stroke="#191970" d="M565.3226,-399.4408C546.4178,-390.461 518.5017,-377.2008 497.1576,-367.0624"/>
<polygon fill="#191970" stroke="#191970" points="498.4038,-363.7796 487.8693,-362.6504 495.4004,-370.1025 498.4038,-363.7796"/>
</g>
<!-- Node6 -->
<g id="node6" class="node">
<title>Node6</title>
<g id="a_node6"><a xlink:href="../../db/d1a/StateOnPlane_8h.html" target="_top" xlink:title="StateOnPlane.h">
<polygon fill="none" stroke="#000000" points="523.5,-285.5 523.5,-305.5 617.5,-305.5 617.5,-285.5 523.5,-285.5"/>
<text text-anchor="middle" x="570.5" y="-292.5" font-family="FreeSans" font-size="10.00" fill="#000000">StateOnPlane.h</text>
</a>
</g>
</g>
<!-- Node5&#45;&gt;Node6 -->
<g id="edge5" class="edge">
<title>Node5&#45;&gt;Node6</title>
<path fill="none" stroke="#191970" d="M641.1249,-342.3095C628.1617,-333.7177 609.3898,-321.2758 594.4572,-311.3786"/>
<polygon fill="#191970" stroke="#191970" points="596.011,-308.2095 585.742,-305.6022 592.1437,-314.0443 596.011,-308.2095"/>
</g>
<!-- Node14 -->
<g id="node14" class="node">
<title>Node14</title>
<g id="a_node14"><a xlink:href="../../d4/d66/AbsTrackRep_8h.html" target="_top" xlink:title="AbsTrackRep.h">
<polygon fill="none" stroke="#000000" points="602,-228.5 602,-248.5 693,-248.5 693,-228.5 602,-228.5"/>
<text text-anchor="middle" x="647.5" y="-235.5" font-family="FreeSans" font-size="10.00" fill="#000000">AbsTrackRep.h</text>
</a>
</g>
</g>
<!-- Node5&#45;&gt;Node14 -->
<g id="edge28" class="edge">
<title>Node5&#45;&gt;Node14</title>
<path fill="none" stroke="#191970" d="M655.7013,-342.3833C654.224,-323.6703 651.0389,-283.3266 649.1016,-258.7866"/>
<polygon fill="#191970" stroke="#191970" points="652.5861,-258.4514 648.3098,-248.7579 645.6078,-259.0024 652.5861,-258.4514"/>
</g>
<!-- Node20 -->
<g id="node20" class="node">
<title>Node20</title>
<polygon fill="none" stroke="#bfbfbf" points="829.5,-171.5 829.5,-191.5 923.5,-191.5 923.5,-171.5 829.5,-171.5"/>
<text text-anchor="middle" x="876.5" y="-178.5" font-family="FreeSans" font-size="10.00" fill="#000000">TMatrixDSym.h</text>
</g>
<!-- Node5&#45;&gt;Node20 -->
<g id="edge29" class="edge">
<title>Node5&#45;&gt;Node20</title>
<path fill="none" stroke="#191970" d="M669.6032,-342.3153C706.3631,-313.7428 810.697,-232.6469 855.5653,-197.7719"/>
<polygon fill="#191970" stroke="#191970" points="857.718,-200.5317 863.4655,-191.6314 853.4221,-195.0049 857.718,-200.5317"/>
</g>
<!-- Node5&#45;&gt;Node21 -->
<g id="edge30" class="edge">
<title>Node5&#45;&gt;Node21</title>
<path fill="none" stroke="#191970" d="M602.7043,-342.4203C574.6931,-335.3821 540.8818,-323.9465 514.5,-306 495.7333,-293.2338 479.8349,-272.449 469.8272,-257.3119"/>
<polygon fill="#191970" stroke="#191970" points="472.6991,-255.3053 464.3843,-248.739 466.7895,-259.0572 472.6991,-255.3053"/>
</g>
<!-- Node7 -->
<g id="node7" class="node">
<title>Node7</title>
<g id="a_node7"><a xlink:href="../../db/d4f/SharedPlanePtr_8h.html" target="_top" xlink:title="SharedPlanePtr.h">
<polygon fill="none" stroke="#000000" points="421.5,-171.5 421.5,-191.5 523.5,-191.5 523.5,-171.5 421.5,-171.5"/>
<text text-anchor="middle" x="472.5" y="-178.5" font-family="FreeSans" font-size="10.00" fill="#000000">SharedPlanePtr.h</text>
</a>
</g>
</g>
<!-- Node6&#45;&gt;Node7 -->
<g id="edge6" class="edge">
<title>Node6&#45;&gt;Node7</title>
<path fill="none" stroke="#191970" d="M561.8032,-285.3833C545.2093,-266.0802 508.8296,-223.7609 487.9853,-199.5135"/>
<polygon fill="#191970" stroke="#191970" points="490.4912,-197.0595 481.3182,-191.7579 485.183,-201.6227 490.4912,-197.0595"/>
</g>
<!-- Node6&#45;&gt;Node11 -->
<g id="edge25" class="edge">
<title>Node6&#45;&gt;Node11</title>
<path fill="none" stroke="#191970" d="M570.5656,-285.182C571.2883,-261.5675 576.4167,-203.1558 608.5,-171 646.9273,-132.4858 678.0805,-161.672 725.5,-135 748.86,-121.8607 771.2517,-100.5543 785.6023,-85.3956"/>
<polygon fill="#191970" stroke="#191970" points="788.4954,-87.4213 792.7026,-77.6976 783.3499,-82.6753 788.4954,-87.4213"/>
</g>
<!-- Node6&#45;&gt;Node14 -->
<g id="edge14" class="edge">
<title>Node6&#45;&gt;Node14</title>
<path fill="none" stroke="#191970" d="M584.2661,-285.3095C595.7631,-276.7987 612.3634,-264.5102 625.6707,-254.6594"/>
<polygon fill="#191970" stroke="#191970" points="627.8981,-257.3652 633.8531,-248.6022 623.7332,-251.7389 627.8981,-257.3652"/>
</g>
<!-- Node18 -->
<g id="node18" class="node">
<title>Node18</title>
<polygon fill="none" stroke="#bfbfbf" points="739.5,-171.5 739.5,-191.5 811.5,-191.5 811.5,-171.5 739.5,-171.5"/>
<text text-anchor="middle" x="775.5" y="-178.5" font-family="FreeSans" font-size="10.00" fill="#000000">TVectorD.h</text>
</g>
<!-- Node6&#45;&gt;Node18 -->
<g id="edge26" class="edge">
<title>Node6&#45;&gt;Node18</title>
<path fill="none" stroke="#191970" d="M611.6102,-285.4716C638.4,-277.8624 673.4572,-265.8208 701.5,-249 724.1478,-235.4152 745.9685,-214.1919 759.9723,-199.1745"/>
<polygon fill="#191970" stroke="#191970" points="762.7616,-201.3096 766.9036,-191.558 757.5845,-196.5982 762.7616,-201.3096"/>
</g>
<!-- Node6&#45;&gt;Node21 -->
<g id="edge27" class="edge">
<title>Node6&#45;&gt;Node21</title>
<path fill="none" stroke="#191970" d="M550.7345,-285.4408C533.1694,-276.5014 507.2695,-263.3202 487.3833,-253.1996"/>
<polygon fill="#191970" stroke="#191970" points="488.9444,-250.0669 478.4447,-248.6504 485.7694,-256.3054 488.9444,-250.0669"/>
</g>
<!-- Node8 -->
<g id="node8" class="node">
<title>Node8</title>
<g id="a_node8"><a xlink:href="../../dc/d81/DetPlane_8h.html" target="_top" xlink:title="DetPlane.h">
<polygon fill="none" stroke="#000000" points="459,-114.5 459,-134.5 530,-134.5 530,-114.5 459,-114.5"/>
<text text-anchor="middle" x="494.5" y="-121.5" font-family="FreeSans" font-size="10.00" fill="#000000">DetPlane.h</text>
</a>
</g>
</g>
<!-- Node7&#45;&gt;Node8 -->
<g id="edge7" class="edge">
<title>Node7&#45;&gt;Node8</title>
<path fill="none" stroke="#191970" d="M476.4332,-171.3095C479.3426,-163.7714 483.3959,-153.2696 486.9262,-144.123"/>
<polygon fill="#191970" stroke="#191970" points="490.2653,-145.1918 490.6009,-134.6022 483.7348,-142.6712 490.2653,-145.1918"/>
</g>
<!-- Node7&#45;&gt;Node13 -->
<g id="edge13" class="edge">
<title>Node7&#45;&gt;Node13</title>
<path fill="none" stroke="#191970" d="M465.4005,-171.3833C451.9728,-152.2488 422.6743,-110.4984 405.5898,-86.1529"/>
<polygon fill="#191970" stroke="#191970" points="408.3078,-83.933 399.6986,-77.7579 402.5779,-87.954 408.3078,-83.933"/>
</g>
<!-- Node9 -->
<g id="node9" class="node">
<title>Node9</title>
<g id="a_node9"><a xlink:href="../../d1/dd1/AbsFinitePlane_8h.html" target="_top" xlink:title="AbsFinitePlane.h">
<polygon fill="none" stroke="#000000" points="439.5,-57.5 439.5,-77.5 539.5,-77.5 539.5,-57.5 439.5,-57.5"/>
<text text-anchor="middle" x="489.5" y="-64.5" font-family="FreeSans" font-size="10.00" fill="#000000">AbsFinitePlane.h</text>
</a>
</g>
</g>
<!-- Node8&#45;&gt;Node9 -->
<g id="edge8" class="edge">
<title>Node8&#45;&gt;Node9</title>
<path fill="none" stroke="#191970" d="M493.6061,-114.3095C492.9591,-106.9335 492.0632,-96.72 491.2732,-87.715"/>
<polygon fill="#191970" stroke="#191970" points="494.7467,-87.2581 490.3862,-77.6022 487.7735,-87.8699 494.7467,-87.2581"/>
</g>
<!-- Node8&#45;&gt;Node11 -->
<g id="edge10" class="edge">
<title>Node8&#45;&gt;Node11</title>
<path fill="none" stroke="#191970" d="M530.0167,-117.9057C586.7143,-107.3788 697.4892,-86.8115 758.5514,-75.4742"/>
<polygon fill="#191970" stroke="#191970" points="759.4367,-78.8697 768.6297,-73.603 758.1588,-71.9873 759.4367,-78.8697"/>
</g>
<!-- Node12 -->
<g id="node12" class="node">
<title>Node12</title>
<polygon fill="none" stroke="#bfbfbf" points="558,-57.5 558,-77.5 629,-77.5 629,-57.5 558,-57.5"/>
<text text-anchor="middle" x="593.5" y="-64.5" font-family="FreeSans" font-size="10.00" fill="#000000">TVector3.h</text>
</g>
<!-- Node8&#45;&gt;Node12 -->
<g id="edge11" class="edge">
<title>Node8&#45;&gt;Node12</title>
<path fill="none" stroke="#191970" d="M512.1992,-114.3095C527.4035,-105.5556 549.5494,-92.8049 566.8896,-82.8211"/>
<polygon fill="#191970" stroke="#191970" points="569.0342,-85.6251 575.954,-77.6022 565.5414,-79.5587 569.0342,-85.6251"/>
</g>
<!-- Node8&#45;&gt;Node13 -->
<g id="edge12" class="edge">
<title>Node8&#45;&gt;Node13</title>
<path fill="none" stroke="#191970" d="M476.2644,-114.3095C460.4544,-105.4745 437.3593,-92.5684 419.4218,-82.5445"/>
<polygon fill="#191970" stroke="#191970" points="421.0145,-79.4252 410.5777,-77.6022 417.5997,-85.5358 421.0145,-79.4252"/>
</g>
<!-- Node10 -->
<g id="node10" class="node">
<title>Node10</title>
<polygon fill="none" stroke="#bfbfbf" points="459.5,-.5 459.5,-20.5 519.5,-20.5 519.5,-.5 459.5,-.5"/>
<text text-anchor="middle" x="489.5" y="-7.5" font-family="FreeSans" font-size="10.00" fill="#000000">Rtypes.h</text>
</g>
<!-- Node9&#45;&gt;Node10 -->
<g id="edge9" class="edge">
<title>Node9&#45;&gt;Node10</title>
<path fill="none" stroke="#191970" d="M489.5,-57.3095C489.5,-49.9335 489.5,-39.72 489.5,-30.715"/>
<polygon fill="#191970" stroke="#191970" points="493.0001,-30.6022 489.5,-20.6022 486.0001,-30.6023 493.0001,-30.6022"/>
</g>
<!-- Node14&#45;&gt;Node7 -->
<g id="edge15" class="edge">
<title>Node14&#45;&gt;Node7</title>
<path fill="none" stroke="#191970" d="M616.6163,-228.4408C587.8406,-219.0681 544.7483,-205.0323 513.1804,-194.7502"/>
<polygon fill="#191970" stroke="#191970" points="513.9611,-191.3235 503.3687,-191.5544 511.7931,-197.9794 513.9611,-191.3235"/>
</g>
<!-- Node14&#45;&gt;Node11 -->
<g id="edge21" class="edge">
<title>Node14&#45;&gt;Node11</title>
<path fill="none" stroke="#191970" d="M659.3909,-228.4013C675.3238,-214.9695 704.5994,-190.6374 730.5,-171 752.6088,-154.2375 765.332,-157.5471 781.5,-135 791.5037,-121.0494 796.5506,-102.0883 799.0686,-87.8141"/>
<polygon fill="#191970" stroke="#191970" points="802.5849,-87.9622 800.5922,-77.5565 795.6609,-86.9337 802.5849,-87.9622"/>
</g>
<!-- Node14&#45;&gt;Node12 -->
<g id="edge20" class="edge">
<title>Node14&#45;&gt;Node12</title>
<path fill="none" stroke="#191970" d="M636.8917,-228.2875C619.8914,-211.0215 587.4455,-174.1032 577.5,-135 573.3838,-118.8162 578.4203,-100.3618 583.9022,-86.8441"/>
<polygon fill="#191970" stroke="#191970" points="587.1537,-88.1467 588.0369,-77.5887 580.7624,-85.2915 587.1537,-88.1467"/>
</g>
<!-- Node15 -->
<g id="node15" class="node">
<title>Node15</title>
<g id="a_node15"><a xlink:href="../../df/d12/Material_8h.html" target="_top" xlink:title="Material.h">
<polygon fill="none" stroke="#000000" points="617.5,-171.5 617.5,-191.5 683.5,-191.5 683.5,-171.5 617.5,-171.5"/>
<text text-anchor="middle" x="650.5" y="-178.5" font-family="FreeSans" font-size="10.00" fill="#000000">Material.h</text>
</a>
</g>
</g>
<!-- Node14&#45;&gt;Node15 -->
<g id="edge16" class="edge">
<title>Node14&#45;&gt;Node15</title>
<path fill="none" stroke="#191970" d="M648.0363,-228.3095C648.4246,-220.9335 648.9621,-210.72 649.4361,-201.715"/>
<polygon fill="#191970" stroke="#191970" points="652.9378,-201.7724 649.9683,-191.6022 645.9475,-201.4044 652.9378,-201.7724"/>
</g>
<!-- Node14&#45;&gt;Node18 -->
<g id="edge22" class="edge">
<title>Node14&#45;&gt;Node18</title>
<path fill="none" stroke="#191970" d="M670.0892,-228.4408C690.436,-219.3801 720.5688,-205.9615 743.4122,-195.7891"/>
<polygon fill="#191970" stroke="#191970" points="744.9947,-198.9158 752.7061,-191.6504 742.1471,-192.5212 744.9947,-198.9158"/>
</g>
<!-- Node14&#45;&gt;Node19 -->
<g id="edge23" class="edge">
<title>Node14&#45;&gt;Node19</title>
<path fill="none" stroke="#191970" d="M601.9384,-230.3333C541.708,-219.5373 436.1628,-200.6188 375.6426,-189.7709"/>
<polygon fill="#191970" stroke="#191970" points="376.0694,-186.2916 365.6087,-187.9723 374.8343,-193.1818 376.0694,-186.2916"/>
</g>
<!-- Node14&#45;&gt;Node20 -->
<g id="edge24" class="edge">
<title>Node14&#45;&gt;Node20</title>
<path fill="none" stroke="#191970" d="M687.9135,-228.4408C726.4651,-218.8449 784.6538,-204.3613 826.1914,-194.0222"/>
<polygon fill="#191970" stroke="#191970" points="827.2475,-197.3662 836.1061,-191.5544 825.5567,-190.5735 827.2475,-197.3662"/>
</g>
<!-- Node15&#45;&gt;Node11 -->
<g id="edge19" class="edge">
<title>Node15&#45;&gt;Node11</title>
<path fill="none" stroke="#191970" d="M683.5219,-172.9191C706.4755,-165.6927 736.7348,-153.5223 758.5,-135 773.9756,-121.8302 785.803,-101.6779 793.0999,-86.8193"/>
<polygon fill="#191970" stroke="#191970" points="796.3767,-88.073 797.4169,-77.5293 790.0287,-85.123 796.3767,-88.073"/>
</g>
<!-- Node16 -->
<g id="node16" class="node">
<title>Node16</title>
<g id="a_node16"><a xlink:href="../../d7/d83/EigenMatrixTypedefs_8h.html" target="_top" xlink:title="EigenMatrixTypedefs.h">
<polygon fill="none" stroke="#000000" points="586.5,-114.5 586.5,-134.5 716.5,-134.5 716.5,-114.5 586.5,-114.5"/>
<text text-anchor="middle" x="651.5" y="-121.5" font-family="FreeSans" font-size="10.00" fill="#000000">EigenMatrixTypedefs.h</text>
</a>
</g>
</g>
<!-- Node15&#45;&gt;Node16 -->
<g id="edge17" class="edge">
<title>Node15&#45;&gt;Node16</title>
<path fill="none" stroke="#191970" d="M650.6788,-171.3095C650.8082,-163.9335 650.9874,-153.72 651.1454,-144.715"/>
<polygon fill="#191970" stroke="#191970" points="654.6467,-144.6621 651.3228,-134.6022 647.6478,-144.5393 654.6467,-144.6621"/>
</g>
<!-- Node17 -->
<g id="node17" class="node">
<title>Node17</title>
<polygon fill="none" stroke="#bfbfbf" points="647.5,-57.5 647.5,-77.5 727.5,-77.5 727.5,-57.5 647.5,-57.5"/>
<text text-anchor="middle" x="687.5" y="-64.5" font-family="FreeSans" font-size="10.00" fill="#000000">Eigen/Dense</text>
</g>
<!-- Node16&#45;&gt;Node17 -->
<g id="edge18" class="edge">
<title>Node16&#45;&gt;Node17</title>
<path fill="none" stroke="#191970" d="M657.9361,-114.3095C662.8506,-106.5282 669.7596,-95.589 675.6628,-86.2423"/>
<polygon fill="#191970" stroke="#191970" points="678.7389,-87.9261 681.1196,-77.6022 672.8204,-84.1881 678.7389,-87.9261"/>
</g>
<!-- Node22&#45;&gt;Node11 -->
<g id="edge32" class="edge">
<title>Node22&#45;&gt;Node11</title>
<path fill="none" stroke="#191970" d="M835.5674,-342.4681C881.1712,-327.8776 951.5,-296.0477 951.5,-238.5 951.5,-238.5 951.5,-238.5 951.5,-181.5 951.5,-127.0676 888.1143,-95.2302 843.7513,-79.6133"/>
<polygon fill="#191970" stroke="#191970" points="844.6419,-76.2202 834.0478,-76.3456 842.4078,-82.8541 844.6419,-76.2202"/>
</g>
<!-- Node22&#45;&gt;Node18 -->
<g id="edge34" class="edge">
<title>Node22&#45;&gt;Node18</title>
<path fill="none" stroke="#191970" d="M796.1897,-342.3153C792.652,-314.8178 782.8558,-238.6748 778.1245,-201.8993"/>
<polygon fill="#191970" stroke="#191970" points="781.5788,-201.3192 776.8313,-191.8476 774.636,-202.2125 781.5788,-201.3192"/>
</g>
<!-- Node22&#45;&gt;Node20 -->
<g id="edge33" class="edge">
<title>Node22&#45;&gt;Node20</title>
<path fill="none" stroke="#191970" d="M802.2052,-342.3153C815.0183,-314.5807 850.6941,-237.3583 867.5111,-200.9571"/>
<polygon fill="#191970" stroke="#191970" points="870.7029,-202.3935 871.7195,-191.8476 864.3482,-199.4577 870.7029,-202.3935"/>
</g>
<!-- Node25 -->
<g id="node25" class="node">
<title>Node25</title>
<polygon fill="none" stroke="#bfbfbf" points="882,-456.5 882,-476.5 939,-476.5 939,-456.5 882,-456.5"/>
<text text-anchor="middle" x="910.5" y="-463.5" font-family="FreeSans" font-size="10.00" fill="#000000">ostream</text>
</g>
<!-- Node24&#45;&gt;Node25 -->
<g id="edge43" class="edge">
<title>Node24&#45;&gt;Node25</title>
<path fill="none" stroke="#191970" d="M901.4666,-513.3095C902.89,-505.9335 904.8611,-495.72 906.5989,-486.715"/>
<polygon fill="#191970" stroke="#191970" points="910.0921,-487.0843 908.5504,-476.6022 903.2189,-485.7578 910.0921,-487.0843"/>
</g>
<!-- Node27&#45;&gt;Node19 -->
<g id="edge52" class="edge">
<title>Node27&#45;&gt;Node19</title>
<path fill="none" stroke="#191970" d="M246.6497,-513.2698C254.9561,-504.3713 266.4468,-490.7743 273.5,-477 287.7047,-449.2595 292.5,-440.6658 292.5,-409.5 292.5,-409.5 292.5,-409.5 292.5,-295.5 292.5,-260.6742 308.3148,-222.6586 319.2656,-200.5094"/>
<polygon fill="#191970" stroke="#191970" points="322.4281,-202.0126 323.8805,-191.5177 316.2005,-198.8162 322.4281,-202.0126"/>
</g>
<!-- Node28 -->
<g id="node28" class="node">
<title>Node28</title>
<polygon fill="none" stroke="#bfbfbf" points="321,-456.5 321,-476.5 386,-476.5 386,-456.5 321,-456.5"/>
<text text-anchor="middle" x="353.5" y="-463.5" font-family="FreeSans" font-size="10.00" fill="#000000">exception</text>
</g>
<!-- Node27&#45;&gt;Node28 -->
<g id="edge47" class="edge">
<title>Node27&#45;&gt;Node28</title>
<path fill="none" stroke="#191970" d="M257.1479,-513.4408C275.5801,-504.461 302.7983,-491.2008 323.6088,-481.0624"/>
<polygon fill="#191970" stroke="#191970" points="325.2079,-484.1766 332.6649,-476.6504 322.1421,-477.8837 325.2079,-484.1766"/>
</g>
<!-- Node29 -->
<g id="node29" class="node">
<title>Node29</title>
<polygon fill="none" stroke="#bfbfbf" points="0,-456.5 0,-476.5 45,-476.5 45,-456.5 0,-456.5"/>
<text text-anchor="middle" x="22.5" y="-463.5" font-family="FreeSans" font-size="10.00" fill="#000000">string</text>
</g>
<!-- Node27&#45;&gt;Node29 -->
<g id="edge48" class="edge">
<title>Node27&#45;&gt;Node29</title>
<path fill="none" stroke="#191970" d="M198.7655,-514.8184C163.7053,-506.5515 109.8556,-493.3465 55.0083,-477.3079"/>
<polygon fill="#191970" stroke="#191970" points="55.7038,-473.8639 45.122,-474.3888 53.7215,-480.5774 55.7038,-473.8639"/>
</g>
<!-- Node30 -->
<g id="node30" class="node">
<title>Node30</title>
<polygon fill="none" stroke="#bfbfbf" points="63,-456.5 63,-476.5 112,-476.5 112,-456.5 63,-456.5"/>
<text text-anchor="middle" x="87.5" y="-463.5" font-family="FreeSans" font-size="10.00" fill="#000000">vector</text>
</g>
<!-- Node27&#45;&gt;Node30 -->
<g id="edge49" class="edge">
<title>Node27&#45;&gt;Node30</title>
<path fill="none" stroke="#191970" d="M210.2048,-513.4408C185.5016,-503.9906 148.4064,-489.7998 121.4715,-479.4958"/>
<polygon fill="#191970" stroke="#191970" points="122.64,-476.1955 112.0495,-475.8914 120.1389,-482.7334 122.64,-476.1955"/>
</g>
<!-- Node31 -->
<g id="node31" class="node">
<title>Node31</title>
<polygon fill="none" stroke="#bfbfbf" points="130.5,-456.5 130.5,-476.5 190.5,-476.5 190.5,-456.5 130.5,-456.5"/>
<text text-anchor="middle" x="160.5" y="-463.5" font-family="FreeSans" font-size="10.00" fill="#000000">iostream</text>
</g>
<!-- Node27&#45;&gt;Node31 -->
<g id="edge50" class="edge">
<title>Node27&#45;&gt;Node31</title>
<path fill="none" stroke="#191970" d="M222.9127,-513.3095C211.565,-504.7987 195.1802,-492.5102 182.0458,-482.6594"/>
<polygon fill="#191970" stroke="#191970" points="184.0697,-479.8023 173.9696,-476.6022 179.8697,-485.4023 184.0697,-479.8023"/>
</g>
<!-- Node32 -->
<g id="node32" class="node">
<title>Node32</title>
<polygon fill="none" stroke="#bfbfbf" points="208.5,-456.5 208.5,-476.5 264.5,-476.5 264.5,-456.5 208.5,-456.5"/>
<text text-anchor="middle" x="236.5" y="-463.5" font-family="FreeSans" font-size="10.00" fill="#000000">sstream</text>
</g>
<!-- Node27&#45;&gt;Node32 -->
<g id="edge51" class="edge">
<title>Node27&#45;&gt;Node32</title>
<path fill="none" stroke="#191970" d="M236.5,-513.3095C236.5,-505.9335 236.5,-495.72 236.5,-486.715"/>
<polygon fill="#191970" stroke="#191970" points="240.0001,-486.6022 236.5,-476.6022 233.0001,-486.6023 240.0001,-486.6022"/>
</g>
<!-- Node34&#45;&gt;Node22 -->
<g id="edge55" class="edge">
<title>Node34&#45;&gt;Node22</title>
<path fill="none" stroke="#191970" d="M1017.3644,-401.4542C973.6531,-391.7216 899.7326,-375.2627 849.8001,-364.145"/>
<polygon fill="#191970" stroke="#191970" points="850.361,-360.6842 839.8394,-361.9271 848.8396,-367.5169 850.361,-360.6842"/>
</g>
</g>
</svg>
