<?xml version="1.0" encoding="UTF-8" standalone="no"?>
<!DOCTYPE svg PUBLIC "-//W3C//DTD SVG 1.1//EN"
 "http://www.w3.org/Graphics/SVG/1.1/DTD/svg11.dtd">
<!-- Generated by graphviz version 2.40.1 (20161225.0304)
 -->
<!-- Title: GFAbsTrackRep::Print Pages: 1 -->
<svg width="444pt" height="68pt"
 viewBox="0.00 0.00 444.00 68.00" xmlns="http://www.w3.org/2000/svg" xmlns:xlink="http://www.w3.org/1999/xlink">
<g id="graph0" class="graph" transform="scale(1 1) rotate(0) translate(4 64)">
<title>GFAbsTrackRep::Print</title>
<!-- Node1 -->
<g id="node1" class="node">
<title>Node1</title>
<polygon fill="#bfbfbf" stroke="#000000" points="0,-19.5 0,-39.5 123,-39.5 123,-19.5 0,-19.5"/>
<text text-anchor="middle" x="61.5" y="-26.5" font-family="FreeSans" font-size="10.00" fill="#000000">GFAbsTrackRep::Print</text>
</g>
<!-- Node2 -->
<g id="node2" class="node">
<title>Node2</title>
<g id="a_node2"><a xlink:href="../../d0/d4b/classGFDetPlane.html#a8c41443493115e95bfef8426178f7bc2" target="_top" xlink:title="GFDetPlane::Print">
<polygon fill="none" stroke="#000000" points="159,-19.5 159,-39.5 265,-39.5 265,-19.5 159,-19.5"/>
<text text-anchor="middle" x="212" y="-26.5" font-family="FreeSans" font-size="10.00" fill="#000000">GFDetPlane::Print</text>
</a>
</g>
</g>
<!-- Node1&#45;&gt;Node2 -->
<g id="edge1" class="edge">
<title>Node1&#45;&gt;Node2</title>
<path fill="none" stroke="#191970" d="M123.1484,-29.5C131.5743,-29.5 140.2355,-29.5 148.6904,-29.5"/>
<polygon fill="#191970" stroke="#191970" points="148.8715,-33.0001 158.8715,-29.5 148.8715,-26.0001 148.8715,-33.0001"/>
</g>
<!-- Node3 -->
<g id="node3" class="node">
<title>Node3</title>
<g id="a_node3"><a xlink:href="../../d0/d4b/classGFDetPlane.html#a3a7f63a8a4f819531fc9722747113405" target="_top" xlink:title="GFDetPlane::getNormal">
<polygon fill="none" stroke="#000000" points="301,-39.5 301,-59.5 436,-59.5 436,-39.5 301,-39.5"/>
<text text-anchor="middle" x="368.5" y="-46.5" font-family="FreeSans" font-size="10.00" fill="#000000">GFDetPlane::getNormal</text>
</a>
</g>
</g>
<!-- Node2&#45;&gt;Node3 -->
<g id="edge2" class="edge">
<title>Node2&#45;&gt;Node3</title>
<path fill="none" stroke="#191970" d="M265.4207,-36.3269C273.6308,-37.3761 282.2478,-38.4773 290.8549,-39.5773"/>
<polygon fill="#191970" stroke="#191970" points="290.5665,-43.0688 300.9296,-40.8648 291.4539,-36.1253 290.5665,-43.0688"/>
</g>
<!-- Node4 -->
<g id="node4" class="node">
<title>Node4</title>
<g id="a_node4"><a xlink:href="../../d5/d62/classGFAbsFinitePlane.html#ac3f9a857b3b7b9c7f1cef2e6828b9922" target="_top" xlink:title="GFAbsFinitePlane::Print">
<polygon fill="none" stroke="#000000" points="302,-.5 302,-20.5 435,-20.5 435,-.5 302,-.5"/>
<text text-anchor="middle" x="368.5" y="-7.5" font-family="FreeSans" font-size="10.00" fill="#000000">GFAbsFinitePlane::Print</text>
</a>
</g>
</g>
<!-- Node2&#45;&gt;Node4 -->
<g id="edge3" class="edge">
<title>Node2&#45;&gt;Node4</title>
<path fill="none" stroke="#191970" d="M265.4207,-23.0144C273.9131,-21.9834 282.8407,-20.8995 291.7426,-19.8188"/>
<polygon fill="#191970" stroke="#191970" points="292.2523,-23.2827 301.7576,-18.6029 291.4086,-16.3337 292.2523,-23.2827"/>
</g>
</g>
</svg>
