<?xml version="1.0" encoding="UTF-8" standalone="no"?>
<!DOCTYPE svg PUBLIC "-//W3C//DTD SVG 1.1//EN"
 "http://www.w3.org/Graphics/SVG/1.1/DTD/svg11.dtd">
<!-- Generated by graphviz version 2.40.1 (20161225.0304)
 -->
<!-- Title: SubtractTowers::process_event Pages: 1 -->
<svg width="478pt" height="689pt"
 viewBox="0.00 0.00 478.00 689.00" xmlns="http://www.w3.org/2000/svg" xmlns:xlink="http://www.w3.org/1999/xlink">
<g id="graph0" class="graph" transform="scale(1 1) rotate(0) translate(4 685)">
<title>SubtractTowers::process_event</title>
<!-- Node1 -->
<g id="node1" class="node">
<title>Node1</title>
<polygon fill="#bfbfbf" stroke="#000000" points="0,-330.5 0,-362.5 139,-362.5 139,-330.5 0,-330.5"/>
<text text-anchor="start" x="8" y="-349.5" font-family="FreeSans" font-size="10.00" fill="#000000">SubtractTowers::process</text>
<text text-anchor="middle" x="69.5" y="-337.5" font-family="FreeSans" font-size="10.00" fill="#000000">_event</text>
</g>
<!-- Node2 -->
<g id="node2" class="node">
<title>Node2</title>
<g id="a_node2"><a xlink:href="../../d3/dc7/classRawTowerContainer.html#ae60b794b4c7a4ccb3fb2d05c16d453b8" target="_top" xlink:title="RawTowerContainer::\lAddTower">
<polygon fill="none" stroke="#000000" points="191.5,-648.5 191.5,-680.5 313.5,-680.5 313.5,-648.5 191.5,-648.5"/>
<text text-anchor="start" x="199.5" y="-667.5" font-family="FreeSans" font-size="10.00" fill="#000000">RawTowerContainer::</text>
<text text-anchor="middle" x="252.5" y="-655.5" font-family="FreeSans" font-size="10.00" fill="#000000">AddTower</text>
</a>
</g>
</g>
<!-- Node1&#45;&gt;Node2 -->
<g id="edge1" class="edge">
<title>Node1&#45;&gt;Node2</title>
<path fill="none" stroke="#191970" d="M70.5037,-362.7767C74.4119,-411.8757 92.7981,-560.0126 175,-639.5 177.3883,-641.8095 179.9913,-643.9056 182.7493,-645.8081"/>
<polygon fill="#191970" stroke="#191970" points="181.0421,-648.8649 191.4289,-650.9545 184.6123,-642.8437 181.0421,-648.8649"/>
</g>
<!-- Node3 -->
<g id="node3" class="node">
<title>Node3</title>
<g id="a_node3"><a xlink:href="../../df/de8/cemc_8C.html#a72d4716092b469b4bc1d816359a90e14" target="_top" xlink:title="cos">
<polygon fill="none" stroke="#000000" points="236,-609.5 236,-629.5 269,-629.5 269,-609.5 236,-609.5"/>
<text text-anchor="middle" x="252.5" y="-616.5" font-family="FreeSans" font-size="10.00" fill="#000000">cos</text>
</a>
</g>
</g>
<!-- Node1&#45;&gt;Node3 -->
<g id="edge2" class="edge">
<title>Node1&#45;&gt;Node3</title>
<path fill="none" stroke="#191970" d="M71.2423,-362.7958C76.9707,-407.9653 99.4192,-535.6974 175,-600.5 188.976,-612.4829 209.3258,-617.145 225.6661,-618.8578"/>
<polygon fill="#191970" stroke="#191970" points="225.4857,-622.3539 235.7176,-619.6047 226.0045,-615.3732 225.4857,-622.3539"/>
</g>
<!-- Node4 -->
<g id="node4" class="node">
<title>Node4</title>
<g id="a_node4"><a xlink:href="../../df/da1/namespaceActs_1_1VectorHelpers.html#afc1703c2fa7adfd6517e5e16df2e5df4" target="_top" xlink:title="Acts::VectorHelpers::eta">
<polygon fill="none" stroke="#000000" points="183,-570.5 183,-590.5 322,-590.5 322,-570.5 183,-570.5"/>
<text text-anchor="middle" x="252.5" y="-577.5" font-family="FreeSans" font-size="10.00" fill="#000000">Acts::VectorHelpers::eta</text>
</a>
</g>
</g>
<!-- Node1&#45;&gt;Node4 -->
<g id="edge3" class="edge">
<title>Node1&#45;&gt;Node4</title>
<path fill="none" stroke="#191970" d="M72.5478,-362.6312C81.0235,-402.8578 108.7528,-508.1998 175,-561.5 176.7978,-562.9464 178.6897,-564.2851 180.6559,-565.5239"/>
<polygon fill="#191970" stroke="#191970" points="179.22,-568.7246 189.691,-570.34 182.5128,-562.5474 179.22,-568.7246"/>
</g>
<!-- Node5 -->
<g id="node5" class="node">
<title>Node5</title>
<g id="a_node5"><a xlink:href="../../d9/dd8/classRawTower.html#a684d193cfa6e173242edecbf7b69d64a" target="_top" xlink:title="RawTower::get_bineta">
<polygon fill="none" stroke="#000000" points="189.5,-531.5 189.5,-551.5 315.5,-551.5 315.5,-531.5 189.5,-531.5"/>
<text text-anchor="middle" x="252.5" y="-538.5" font-family="FreeSans" font-size="10.00" fill="#000000">RawTower::get_bineta</text>
</a>
</g>
</g>
<!-- Node1&#45;&gt;Node5 -->
<g id="edge4" class="edge">
<title>Node1&#45;&gt;Node5</title>
<path fill="none" stroke="#191970" d="M74.377,-362.5311C85.8458,-397.4079 117.9515,-480.4132 175,-522.5 177.2226,-524.1397 179.5691,-525.6393 182.0067,-527.0105"/>
<polygon fill="#191970" stroke="#191970" points="180.6457,-530.24 191.1729,-531.4358 183.6892,-523.9362 180.6457,-530.24"/>
</g>
<!-- Node6 -->
<g id="node6" class="node">
<title>Node6</title>
<g id="a_node6"><a xlink:href="../../d9/dd8/classRawTower.html#ad7b821b149c79c752ffda34821982383" target="_top" xlink:title="RawTower::get_binphi">
<polygon fill="none" stroke="#000000" points="189.5,-492.5 189.5,-512.5 315.5,-512.5 315.5,-492.5 189.5,-492.5"/>
<text text-anchor="middle" x="252.5" y="-499.5" font-family="FreeSans" font-size="10.00" fill="#000000">RawTower::get_binphi</text>
</a>
</g>
</g>
<!-- Node1&#45;&gt;Node6 -->
<g id="edge5" class="edge">
<title>Node1&#45;&gt;Node6</title>
<path fill="none" stroke="#191970" d="M77.3922,-362.9137C92.2455,-391.9789 127.212,-452.3616 175,-483.5 177.7856,-485.3151 180.7301,-486.9569 183.7791,-488.4418"/>
<polygon fill="#191970" stroke="#191970" points="182.6136,-491.7495 193.1858,-492.4429 185.3536,-485.308 182.6136,-491.7495"/>
</g>
<!-- Node7 -->
<g id="node7" class="node">
<title>Node7</title>
<g id="a_node7"><a xlink:href="../../d9/dd8/classRawTower.html#ab23195d58fefabd9162115afa96707cc" target="_top" xlink:title="energy assigned to the tower. Depending on stage of process and DST node name, it could be energy dep...">
<polygon fill="none" stroke="#000000" points="187.5,-453.5 187.5,-473.5 317.5,-473.5 317.5,-453.5 187.5,-453.5"/>
<text text-anchor="middle" x="252.5" y="-460.5" font-family="FreeSans" font-size="10.00" fill="#000000">RawTower::get_energy</text>
</a>
</g>
</g>
<!-- Node1&#45;&gt;Node7 -->
<g id="edge6" class="edge">
<title>Node1&#45;&gt;Node7</title>
<path fill="none" stroke="#191970" d="M82.3126,-362.7384C100.5285,-384.6913 136.0523,-423.5006 175,-444.5 178.7725,-446.534 182.765,-448.3539 186.8693,-449.9817"/>
<polygon fill="#191970" stroke="#191970" points="186.0032,-453.3883 196.5979,-453.4416 188.3488,-446.793 186.0032,-453.3883"/>
</g>
<!-- Node8 -->
<g id="node8" class="node">
<title>Node8</title>
<g id="a_node8"><a xlink:href="../../d8/dc4/classRawTowerGeom.html#aed31c4e7b05d1f434c0cdc26fe438d46" target="_top" xlink:title="RawTowerGeom::get_eta">
<polygon fill="none" stroke="#000000" points="182,-414.5 182,-434.5 323,-434.5 323,-414.5 182,-414.5"/>
<text text-anchor="middle" x="252.5" y="-421.5" font-family="FreeSans" font-size="10.00" fill="#000000">RawTowerGeom::get_eta</text>
</a>
</g>
</g>
<!-- Node1&#45;&gt;Node8 -->
<g id="edge7" class="edge">
<title>Node1&#45;&gt;Node8</title>
<path fill="none" stroke="#191970" d="M93.7197,-362.5367C114.5245,-375.6919 145.711,-393.9655 175,-405.5 180.7521,-407.7653 186.8537,-409.8181 193.0082,-411.6638"/>
<polygon fill="#191970" stroke="#191970" points="192.1058,-415.0458 202.6806,-414.3943 194.0077,-408.309 192.1058,-415.0458"/>
</g>
<!-- Node9 -->
<g id="node9" class="node">
<title>Node9</title>
<g id="a_node9"><a xlink:href="../../d9/dd8/classRawTower.html#ae6569757f62f3bee755ebf8872f15008" target="_top" xlink:title="RawTower::get_key">
<polygon fill="none" stroke="#000000" points="196.5,-375.5 196.5,-395.5 308.5,-395.5 308.5,-375.5 196.5,-375.5"/>
<text text-anchor="middle" x="252.5" y="-382.5" font-family="FreeSans" font-size="10.00" fill="#000000">RawTower::get_key</text>
</a>
</g>
</g>
<!-- Node1&#45;&gt;Node9 -->
<g id="edge8" class="edge">
<title>Node1&#45;&gt;Node9</title>
<path fill="none" stroke="#191970" d="M139.2065,-361.3555C157.6979,-365.2963 177.4502,-369.5058 195.1976,-373.288"/>
<polygon fill="#191970" stroke="#191970" points="194.8807,-376.799 205.3906,-375.4603 196.3398,-369.9527 194.8807,-376.799"/>
</g>
<!-- Node11 -->
<g id="node11" class="node">
<title>Node11</title>
<g id="a_node11"><a xlink:href="../../d8/dc4/classRawTowerGeom.html#a39490c6ecb489ef5a99cf26a8f25ecfc" target="_top" xlink:title="RawTowerGeom::get_phi">
<polygon fill="none" stroke="#000000" points="182.5,-336.5 182.5,-356.5 322.5,-356.5 322.5,-336.5 182.5,-336.5"/>
<text text-anchor="middle" x="252.5" y="-343.5" font-family="FreeSans" font-size="10.00" fill="#000000">RawTowerGeom::get_phi</text>
</a>
</g>
</g>
<!-- Node1&#45;&gt;Node11 -->
<g id="edge10" class="edge">
<title>Node1&#45;&gt;Node11</title>
<path fill="none" stroke="#191970" d="M139.2065,-346.5C150.0332,-346.5 161.2922,-346.5 172.3279,-346.5"/>
<polygon fill="#191970" stroke="#191970" points="172.3811,-350.0001 182.3811,-346.5 172.3811,-343.0001 172.3811,-350.0001"/>
</g>
<!-- Node12 -->
<g id="node12" class="node">
<title>Node12</title>
<g id="a_node12"><a xlink:href="../../d5/d0f/classTowerBackground.html#af477fe6161193df2e813cc67e4ddb2ac" target="_top" xlink:title="TowerBackground::get_Psi2">
<polygon fill="none" stroke="#000000" points="175,-297.5 175,-317.5 330,-317.5 330,-297.5 175,-297.5"/>
<text text-anchor="middle" x="252.5" y="-304.5" font-family="FreeSans" font-size="10.00" fill="#000000">TowerBackground::get_Psi2</text>
</a>
</g>
</g>
<!-- Node1&#45;&gt;Node12 -->
<g id="edge11" class="edge">
<title>Node1&#45;&gt;Node12</title>
<path fill="none" stroke="#191970" d="M139.2065,-331.6445C157.6979,-327.7037 177.4502,-323.4942 195.1976,-319.712"/>
<polygon fill="#191970" stroke="#191970" points="196.3398,-323.0473 205.3906,-317.5397 194.8807,-316.201 196.3398,-323.0473"/>
</g>
<!-- Node13 -->
<g id="node13" class="node">
<title>Node13</title>
<g id="a_node13"><a xlink:href="../../d5/d0f/classTowerBackground.html#a5345021873d4f339965505833b91522a" target="_top" xlink:title="TowerBackground::get_UE">
<polygon fill="none" stroke="#000000" points="178,-258.5 178,-278.5 327,-278.5 327,-258.5 178,-258.5"/>
<text text-anchor="middle" x="252.5" y="-265.5" font-family="FreeSans" font-size="10.00" fill="#000000">TowerBackground::get_UE</text>
</a>
</g>
</g>
<!-- Node1&#45;&gt;Node13 -->
<g id="edge12" class="edge">
<title>Node1&#45;&gt;Node13</title>
<path fill="none" stroke="#191970" d="M94.6342,-330.3313C115.4771,-317.5085 146.2453,-299.9053 175,-288.5 181.6602,-285.8583 188.7815,-283.4694 195.9079,-281.3386"/>
<polygon fill="#191970" stroke="#191970" points="196.9208,-284.6895 205.5862,-278.5935 195.0107,-277.9551 196.9208,-284.6895"/>
</g>
<!-- Node14 -->
<g id="node14" class="node">
<title>Node14</title>
<g id="a_node14"><a xlink:href="../../d5/d0f/classTowerBackground.html#a7ebb58a22579f5c0c1f8f6f399bbbb0c" target="_top" xlink:title="TowerBackground::get_v2">
<polygon fill="none" stroke="#000000" points="179,-219.5 179,-239.5 326,-239.5 326,-219.5 179,-219.5"/>
<text text-anchor="middle" x="252.5" y="-226.5" font-family="FreeSans" font-size="10.00" fill="#000000">TowerBackground::get_v2</text>
</a>
</g>
</g>
<!-- Node1&#45;&gt;Node14 -->
<g id="edge13" class="edge">
<title>Node1&#45;&gt;Node14</title>
<path fill="none" stroke="#191970" d="M82.3861,-330.4991C100.6872,-308.8535 136.3095,-270.5364 175,-249.5 179.5379,-247.0327 184.392,-244.8602 189.3747,-242.949"/>
<polygon fill="#191970" stroke="#191970" points="190.7657,-246.1712 199.0661,-239.5868 188.4713,-239.5578 190.7657,-246.1712"/>
</g>
<!-- Node15 -->
<g id="node15" class="node">
<title>Node15</title>
<g id="a_node15"><a xlink:href="../../d3/dc7/classRawTowerContainer.html#a94a3368d6cd85ea4c3f204cd1065da26" target="_top" xlink:title="RawTowerContainer::\lgetTower">
<polygon fill="none" stroke="#000000" points="191.5,-168.5 191.5,-200.5 313.5,-200.5 313.5,-168.5 191.5,-168.5"/>
<text text-anchor="start" x="199.5" y="-187.5" font-family="FreeSans" font-size="10.00" fill="#000000">RawTowerContainer::</text>
<text text-anchor="middle" x="252.5" y="-175.5" font-family="FreeSans" font-size="10.00" fill="#000000">getTower</text>
</a>
</g>
</g>
<!-- Node1&#45;&gt;Node15 -->
<g id="edge14" class="edge">
<title>Node1&#45;&gt;Node15</title>
<path fill="none" stroke="#191970" d="M77.9333,-330.1477C93.3906,-301.7413 128.9473,-243.1939 175,-210.5 177.6616,-208.6105 180.4705,-206.8506 183.3788,-205.2123"/>
<polygon fill="#191970" stroke="#191970" points="185.0226,-208.3031 192.3538,-200.6543 181.8528,-202.0618 185.0226,-208.3031"/>
</g>
<!-- Node16 -->
<g id="node16" class="node">
<title>Node16</title>
<g id="a_node16"><a xlink:href="../../d3/dc7/classRawTowerContainer.html#a570f017dc793182557b3382e07374491" target="_top" xlink:title="return all towers">
<polygon fill="none" stroke="#000000" points="191.5,-117.5 191.5,-149.5 313.5,-149.5 313.5,-117.5 191.5,-117.5"/>
<text text-anchor="start" x="199.5" y="-136.5" font-family="FreeSans" font-size="10.00" fill="#000000">RawTowerContainer::</text>
<text text-anchor="middle" x="252.5" y="-124.5" font-family="FreeSans" font-size="10.00" fill="#000000">getTowers</text>
</a>
</g>
</g>
<!-- Node1&#45;&gt;Node16 -->
<g id="edge15" class="edge">
<title>Node1&#45;&gt;Node16</title>
<path fill="none" stroke="#191970" d="M74.1852,-330.3859C85.4614,-294.4075 117.5222,-206.9782 175,-159.5 177.3849,-157.53 179.9256,-155.7069 182.5782,-154.0201"/>
<polygon fill="#191970" stroke="#191970" points="184.3684,-157.029 191.3768,-149.0834 180.9431,-150.9242 184.3684,-157.029"/>
</g>
<!-- Node17 -->
<g id="node17" class="node">
<title>Node17</title>
<g id="a_node17"><a xlink:href="../../d9/dd8/classRawTower.html#ab5d2ef8076b5750583766daadf746be1" target="_top" xlink:title="energy assigned to the tower. Depending on stage of process and DST node name, it could be energy dep...">
<polygon fill="none" stroke="#000000" points="188,-78.5 188,-98.5 317,-98.5 317,-78.5 188,-78.5"/>
<text text-anchor="middle" x="252.5" y="-85.5" font-family="FreeSans" font-size="10.00" fill="#000000">RawTower::set_energy</text>
</a>
</g>
</g>
<!-- Node1&#45;&gt;Node17 -->
<g id="edge16" class="edge">
<title>Node1&#45;&gt;Node17</title>
<path fill="none" stroke="#191970" d="M71.7713,-330.3279C78.6992,-287.2663 103.6272,-168.9896 175,-108.5 177.2361,-106.6049 179.6298,-104.8863 182.1401,-103.328"/>
<polygon fill="#191970" stroke="#191970" points="183.85,-106.3832 191.064,-98.6239 180.5857,-100.1909 183.85,-106.3832"/>
</g>
<!-- Node18 -->
<g id="node18" class="node">
<title>Node18</title>
<g id="a_node18"><a xlink:href="../../d3/dc7/classRawTowerContainer.html#acdd560ceddc47c329c9a1ee9d3472959" target="_top" xlink:title="RawTowerContainer::size">
<polygon fill="none" stroke="#000000" points="181.5,-39.5 181.5,-59.5 323.5,-59.5 323.5,-39.5 181.5,-39.5"/>
<text text-anchor="middle" x="252.5" y="-46.5" font-family="FreeSans" font-size="10.00" fill="#000000">RawTowerContainer::size</text>
</a>
</g>
</g>
<!-- Node1&#45;&gt;Node18 -->
<g id="edge17" class="edge">
<title>Node1&#45;&gt;Node18</title>
<path fill="none" stroke="#191970" d="M70.6618,-330.2033C74.9687,-282.4558 94.26,-141.7154 175,-69.5 176.9938,-67.7167 179.1259,-66.0886 181.3643,-64.6023"/>
<polygon fill="#191970" stroke="#191970" points="183.4193,-67.4643 190.4571,-59.5447 180.0167,-61.3469 183.4193,-67.4643"/>
</g>
<!-- Node19 -->
<g id="node19" class="node">
<title>Node19</title>
<g id="a_node19"><a xlink:href="../../d5/dec/classFun4AllBase.html#a8a5c77a92bdac6bc043476e132379a40" target="_top" xlink:title="Gets the verbosity of this module.">
<polygon fill="none" stroke="#000000" points="186.5,-.5 186.5,-20.5 318.5,-20.5 318.5,-.5 186.5,-.5"/>
<text text-anchor="middle" x="252.5" y="-7.5" font-family="FreeSans" font-size="10.00" fill="#000000">Fun4AllBase::Verbosity</text>
</a>
</g>
</g>
<!-- Node1&#45;&gt;Node19 -->
<g id="edge18" class="edge">
<title>Node1&#45;&gt;Node19</title>
<path fill="none" stroke="#191970" d="M72.8196,-330.1193C85.0109,-271.5037 129.0019,-73.4001 175,-30.5 176.9117,-28.717 178.961,-27.0881 181.1173,-25.6002"/>
<polygon fill="#191970" stroke="#191970" points="182.9874,-28.562 189.9001,-20.533 179.4892,-22.4988 182.9874,-28.562"/>
</g>
<!-- Node10 -->
<g id="node10" class="node">
<title>Node10</title>
<g id="a_node10"><a xlink:href="../../d9/dd8/classRawTower.html#acb57721d39800bb8a23ffc10ae66d198" target="_top" xlink:title="RawTower::get_id">
<polygon fill="none" stroke="#000000" points="366,-375.5 366,-395.5 470,-395.5 470,-375.5 366,-375.5"/>
<text text-anchor="middle" x="418" y="-382.5" font-family="FreeSans" font-size="10.00" fill="#000000">RawTower::get_id</text>
</a>
</g>
</g>
<!-- Node9&#45;&gt;Node10 -->
<g id="edge9" class="edge">
<title>Node9&#45;&gt;Node10</title>
<path fill="none" stroke="#191970" d="M308.5308,-385.5C323.7619,-385.5 340.3459,-385.5 355.8917,-385.5"/>
<polygon fill="#191970" stroke="#191970" points="355.9329,-389.0001 365.9329,-385.5 355.9328,-382.0001 355.9329,-389.0001"/>
</g>
</g>
</svg>
