<?xml version="1.0" encoding="UTF-8" standalone="no"?>
<!DOCTYPE svg PUBLIC "-//W3C//DTD SVG 1.1//EN"
 "http://www.w3.org/Graphics/SVG/1.1/DTD/svg11.dtd">
<!-- Generated by graphviz version 2.40.1 (20161225.0304)
 -->
<!-- Title: FairDbConnection::Open Pages: 1 -->
<svg width="1260pt" height="259pt"
 viewBox="0.00 0.00 1260.00 259.00" xmlns="http://www.w3.org/2000/svg" xmlns:xlink="http://www.w3.org/1999/xlink">
<g id="graph0" class="graph" transform="scale(1 1) rotate(0) translate(4 255)">
<title>FairDbConnection::Open</title>
<!-- Node1 -->
<g id="node1" class="node">
<title>Node1</title>
<polygon fill="#bfbfbf" stroke="#000000" points="0,-171.5 0,-191.5 139,-191.5 139,-171.5 0,-171.5"/>
<text text-anchor="middle" x="69.5" y="-178.5" font-family="FreeSans" font-size="10.00" fill="#000000">FairDbConnection::Open</text>
</g>
<!-- Node2 -->
<g id="node2" class="node">
<title>Node2</title>
<g id="a_node2"><a xlink:href="../../da/da5/FairDbMultConnector_8cxx.html#a51ca1dda891de7f5dc37168409db3a20" target="_top" xlink:title="ClassImp">
<polygon fill="none" stroke="#000000" points="828,-230.5 828,-250.5 890,-250.5 890,-230.5 828,-230.5"/>
<text text-anchor="middle" x="859" y="-237.5" font-family="FreeSans" font-size="10.00" fill="#000000">ClassImp</text>
</a>
</g>
</g>
<!-- Node1&#45;&gt;Node2 -->
<g id="edge1" class="edge">
<title>Node1&#45;&gt;Node2</title>
<path fill="none" stroke="#191970" d="M113.168,-194.2736C132.0217,-199.263 154.4307,-204.4981 175,-207.5 424.6949,-243.9411 730.533,-242.64 827.7748,-241.1309"/>
<polygon fill="#191970" stroke="#191970" points="113.9458,-190.8582 103.3785,-191.6216 112.1154,-197.6147 113.9458,-190.8582"/>
</g>
<!-- Node3 -->
<g id="node3" class="node">
<title>Node3</title>
<g id="a_node3"><a xlink:href="../../d0/d86/classFairDbConnection.html#a3df40b716d7868253bbf7cfd758b47c9" target="_top" xlink:title="FairDbConnection::Create\lPreparedStatement">
<polygon fill="none" stroke="#000000" points="184,-165.5 184,-197.5 330,-197.5 330,-165.5 184,-165.5"/>
<text text-anchor="start" x="192" y="-184.5" font-family="FreeSans" font-size="10.00" fill="#000000">FairDbConnection::Create</text>
<text text-anchor="middle" x="257" y="-172.5" font-family="FreeSans" font-size="10.00" fill="#000000">PreparedStatement</text>
</a>
</g>
</g>
<!-- Node1&#45;&gt;Node3 -->
<g id="edge2" class="edge">
<title>Node1&#45;&gt;Node3</title>
<path fill="none" stroke="#191970" d="M149.08,-181.5C160.5978,-181.5 172.4076,-181.5 183.7923,-181.5"/>
<polygon fill="#191970" stroke="#191970" points="149.0517,-178.0001 139.0516,-181.5 149.0516,-185.0001 149.0517,-178.0001"/>
</g>
<!-- Node12 -->
<g id="node12" class="node">
<title>Node12</title>
<g id="a_node12"><a xlink:href="../../d0/d86/classFairDbConnection.html#a27dbeac183891966ea189ed43ccf494f" target="_top" xlink:title="FairDbConnection::GetServer">
<polygon fill="none" stroke="#000000" points="175,-107.5 175,-127.5 339,-127.5 339,-107.5 175,-107.5"/>
<text text-anchor="middle" x="257" y="-114.5" font-family="FreeSans" font-size="10.00" fill="#000000">FairDbConnection::GetServer</text>
</a>
</g>
</g>
<!-- Node1&#45;&gt;Node12 -->
<g id="edge12" class="edge">
<title>Node1&#45;&gt;Node12</title>
<path fill="none" stroke="#191970" d="M108.7408,-168.1058C144.1283,-156.0269 195.3928,-138.5286 227.4291,-127.5935"/>
<polygon fill="#191970" stroke="#191970" points="107.5432,-164.8162 99.2099,-171.359 109.8045,-171.441 107.5432,-164.8162"/>
</g>
<!-- Node4 -->
<g id="node4" class="node">
<title>Node4</title>
<g id="a_node4"><a xlink:href="../../d5/dfb/classFairDbStatement.html#a27865b3e23330aaa796baab22af4faae" target="_top" xlink:title="FairDbStatement::CreateProcessed\lStatement">
<polygon fill="none" stroke="#000000" points="375,-170.5 375,-202.5 567,-202.5 567,-170.5 375,-170.5"/>
<text text-anchor="start" x="383" y="-189.5" font-family="FreeSans" font-size="10.00" fill="#000000">FairDbStatement::CreateProcessed</text>
<text text-anchor="middle" x="471" y="-177.5" font-family="FreeSans" font-size="10.00" fill="#000000">Statement</text>
</a>
</g>
</g>
<!-- Node3&#45;&gt;Node4 -->
<g id="edge3" class="edge">
<title>Node3&#45;&gt;Node4</title>
<path fill="none" stroke="#191970" d="M340.3148,-183.4466C351.6248,-183.7109 363.3064,-183.9838 374.8193,-184.2528"/>
<polygon fill="#191970" stroke="#191970" points="340.1272,-179.9414 330.0481,-183.2067 339.9636,-186.9395 340.1272,-179.9414"/>
</g>
<!-- Node10 -->
<g id="node10" class="node">
<title>Node10</title>
<g id="a_node10"><a xlink:href="../../d0/d86/classFairDbConnection.html#ad595ea63b0414d02c5f9661c6b961bfc" target="_top" xlink:title="FairDbConnection::SetTable\lExists">
<polygon fill="none" stroke="#000000" points="393.5,-56.5 393.5,-88.5 548.5,-88.5 548.5,-56.5 393.5,-56.5"/>
<text text-anchor="start" x="401.5" y="-75.5" font-family="FreeSans" font-size="10.00" fill="#000000">FairDbConnection::SetTable</text>
<text text-anchor="middle" x="471" y="-63.5" font-family="FreeSans" font-size="10.00" fill="#000000">Exists</text>
</a>
</g>
</g>
<!-- Node3&#45;&gt;Node10 -->
<g id="edge10" class="edge">
<title>Node3&#45;&gt;Node10</title>
<path fill="none" stroke="#191970" d="M297.5249,-160.8588C338.6987,-139.8871 401.6207,-107.8381 439.294,-88.6493"/>
<polygon fill="#191970" stroke="#191970" points="295.8986,-157.7592 288.5764,-165.4167 299.0757,-163.9967 295.8986,-157.7592"/>
</g>
<!-- Node5 -->
<g id="node5" class="node">
<title>Node5</title>
<g id="a_node5"><a xlink:href="../../d5/dfb/classFairDbStatement.html#adc4a7e9191ab65684539e2265a19bc8c" target="_top" xlink:title="FairDbStatement::Execute\lQuery">
<polygon fill="none" stroke="#000000" points="603,-179.5 603,-211.5 751,-211.5 751,-179.5 603,-179.5"/>
<text text-anchor="start" x="611" y="-198.5" font-family="FreeSans" font-size="10.00" fill="#000000">FairDbStatement::Execute</text>
<text text-anchor="middle" x="677" y="-186.5" font-family="FreeSans" font-size="10.00" fill="#000000">Query</text>
</a>
</g>
</g>
<!-- Node4&#45;&gt;Node5 -->
<g id="edge4" class="edge">
<title>Node4&#45;&gt;Node5</title>
<path fill="none" stroke="#191970" d="M577.2575,-191.1423C585.9412,-191.5217 594.594,-191.8997 602.9686,-192.2656"/>
<polygon fill="#191970" stroke="#191970" points="577.2075,-187.6369 567.0642,-190.697 576.9019,-194.6302 577.2075,-187.6369"/>
</g>
<!-- Node5&#45;&gt;Node2 -->
<g id="edge5" class="edge">
<title>Node5&#45;&gt;Node2</title>
<path fill="none" stroke="#191970" d="M751.9885,-214.0411C778.5096,-220.5985 806.9041,-227.6191 827.7753,-232.7796"/>
<polygon fill="#191970" stroke="#191970" points="752.4832,-210.5581 741.9354,-211.5555 750.8029,-217.3535 752.4832,-210.5581"/>
</g>
<!-- Node6 -->
<g id="node6" class="node">
<title>Node6</title>
<g id="a_node6"><a xlink:href="../../d4/d94/classFairDbMultConnector.html#aefbbef9adc4b5855daed8608c7714d39" target="_top" xlink:title="FairDbMultConnector\l::ReserveNextSeqNo">
<polygon fill="none" stroke="#000000" points="797.5,-179.5 797.5,-211.5 920.5,-211.5 920.5,-179.5 797.5,-179.5"/>
<text text-anchor="start" x="805.5" y="-198.5" font-family="FreeSans" font-size="10.00" fill="#000000">FairDbMultConnector</text>
<text text-anchor="middle" x="859" y="-186.5" font-family="FreeSans" font-size="10.00" fill="#000000">::ReserveNextSeqNo</text>
</a>
</g>
</g>
<!-- Node5&#45;&gt;Node6 -->
<g id="edge6" class="edge">
<title>Node5&#45;&gt;Node6</title>
<path fill="none" stroke="#191970" d="M761.1782,-195.5C773.3322,-195.5 785.6495,-195.5 797.2562,-195.5"/>
<polygon fill="#191970" stroke="#191970" points="761.0264,-192.0001 751.0264,-195.5 761.0263,-199.0001 761.0264,-192.0001"/>
</g>
<!-- Node7 -->
<g id="node7" class="node">
<title>Node7</title>
<g id="a_node7"><a xlink:href="../../d4/d94/classFairDbMultConnector.html#af0021c236199216fa0c55a0e9b5b84e3" target="_top" xlink:title="FairDbMultConnector\l::AllocateSeqNo">
<polygon fill="none" stroke="#000000" points="967,-182.5 967,-214.5 1090,-214.5 1090,-182.5 967,-182.5"/>
<text text-anchor="start" x="975" y="-201.5" font-family="FreeSans" font-size="10.00" fill="#000000">FairDbMultConnector</text>
<text text-anchor="middle" x="1028.5" y="-189.5" font-family="FreeSans" font-size="10.00" fill="#000000">::AllocateSeqNo</text>
</a>
</g>
</g>
<!-- Node6&#45;&gt;Node7 -->
<g id="edge7" class="edge">
<title>Node6&#45;&gt;Node7</title>
<path fill="none" stroke="#191970" d="M930.6786,-196.7686C942.7173,-196.9817 955.1166,-197.2012 966.873,-197.4093"/>
<polygon fill="#191970" stroke="#191970" points="930.7333,-193.2692 920.6729,-196.5916 930.6093,-200.2681 930.7333,-193.2692"/>
</g>
<!-- Node8 -->
<g id="node8" class="node">
<title>Node8</title>
<g id="a_node8"><a xlink:href="../../db/da0/classFairDbConfigStream.html#a077fca72ebeec60897d6cf15fea5c9ec" target="_top" xlink:title="FairDbConfigStream\l::Write">
<polygon fill="none" stroke="#000000" points="1130.5,-182.5 1130.5,-214.5 1247.5,-214.5 1247.5,-182.5 1130.5,-182.5"/>
<text text-anchor="start" x="1138.5" y="-201.5" font-family="FreeSans" font-size="10.00" fill="#000000">FairDbConfigStream</text>
<text text-anchor="middle" x="1189" y="-189.5" font-family="FreeSans" font-size="10.00" fill="#000000">::Write</text>
</a>
</g>
</g>
<!-- Node7&#45;&gt;Node8 -->
<g id="edge8" class="edge">
<title>Node7&#45;&gt;Node8</title>
<path fill="none" stroke="#191970" d="M1100.1502,-198.5C1110.2921,-198.5 1120.6194,-198.5 1130.474,-198.5"/>
<polygon fill="#191970" stroke="#191970" points="1100.0945,-195.0001 1090.0945,-198.5 1100.0944,-202.0001 1100.0945,-195.0001"/>
</g>
<!-- Node9 -->
<g id="node9" class="node">
<title>Node9</title>
<g id="a_node9"><a xlink:href="../../dd/d9a/classFairDbLogEntry.html#a9cf66ea492ef1d2c81935010d18c4861" target="_top" xlink:title="FairDbLogEntry::Write">
<polygon fill="none" stroke="#000000" points="1126,-140.5 1126,-160.5 1252,-160.5 1252,-140.5 1126,-140.5"/>
<text text-anchor="middle" x="1189" y="-147.5" font-family="FreeSans" font-size="10.00" fill="#000000">FairDbLogEntry::Write</text>
</a>
</g>
</g>
<!-- Node7&#45;&gt;Node9 -->
<g id="edge9" class="edge">
<title>Node7&#45;&gt;Node9</title>
<path fill="none" stroke="#191970" d="M1092.1343,-179.4692C1113.6473,-173.0354 1136.8265,-166.1033 1155.1153,-160.6337"/>
<polygon fill="#191970" stroke="#191970" points="1090.9685,-176.1646 1082.3907,-182.3832 1092.9743,-182.8711 1090.9685,-176.1646"/>
</g>
<!-- Node11 -->
<g id="node11" class="node">
<title>Node11</title>
<g id="a_node11"><a xlink:href="../../d4/d94/classFairDbMultConnector.html#aa8f8513a66937c87e8b9bb80e7fa83d3" target="_top" xlink:title="FairDbMultConnector\l::CreateTemporaryTable">
<polygon fill="none" stroke="#000000" points="791,-51.5 791,-83.5 927,-83.5 927,-51.5 791,-51.5"/>
<text text-anchor="start" x="799" y="-70.5" font-family="FreeSans" font-size="10.00" fill="#000000">FairDbMultConnector</text>
<text text-anchor="middle" x="859" y="-58.5" font-family="FreeSans" font-size="10.00" fill="#000000">::CreateTemporaryTable</text>
</a>
</g>
</g>
<!-- Node10&#45;&gt;Node11 -->
<g id="edge11" class="edge">
<title>Node10&#45;&gt;Node11</title>
<path fill="none" stroke="#191970" d="M558.7621,-71.369C629.1132,-70.4625 726.4145,-69.2086 790.9551,-68.3769"/>
<polygon fill="#191970" stroke="#191970" points="558.5391,-67.8715 548.5851,-71.5002 558.6294,-74.8709 558.5391,-67.8715"/>
</g>
<!-- Node13 -->
<g id="node13" class="node">
<title>Node13</title>
<g id="a_node13"><a xlink:href="../../d5/dfb/classFairDbStatement.html#af262324358a3a23a9deb99ae0fb6f913" target="_top" xlink:title="FairDbStatement::Execute\lUpdate">
<polygon fill="none" stroke="#000000" points="603,-101.5 603,-133.5 751,-133.5 751,-101.5 603,-101.5"/>
<text text-anchor="start" x="611" y="-120.5" font-family="FreeSans" font-size="10.00" fill="#000000">FairDbStatement::Execute</text>
<text text-anchor="middle" x="677" y="-108.5" font-family="FreeSans" font-size="10.00" fill="#000000">Update</text>
</a>
</g>
</g>
<!-- Node12&#45;&gt;Node13 -->
<g id="edge13" class="edge">
<title>Node12&#45;&gt;Node13</title>
<path fill="none" stroke="#191970" d="M349.2899,-117.5C425.411,-117.5 532.0116,-117.5 602.7122,-117.5"/>
<polygon fill="#191970" stroke="#191970" points="349.2272,-114.0001 339.2272,-117.5 349.2271,-121.0001 349.2272,-114.0001"/>
</g>
<!-- Node16 -->
<g id="node16" class="node">
<title>Node16</title>
<g id="a_node16"><a xlink:href="../../d9/dbd/classFairDbProxy.html#a714afbe2dee12c930c14eac9c0033151" target="_top" xlink:title="FairDbProxy::StoreMetaData">
<polygon fill="none" stroke="#000000" points="392.5,-16.5 392.5,-36.5 549.5,-36.5 549.5,-16.5 392.5,-16.5"/>
<text text-anchor="middle" x="471" y="-23.5" font-family="FreeSans" font-size="10.00" fill="#000000">FairDbProxy::StoreMetaData</text>
</a>
</g>
</g>
<!-- Node12&#45;&gt;Node16 -->
<g id="edge19" class="edge">
<title>Node12&#45;&gt;Node16</title>
<path fill="none" stroke="#191970" d="M279.0892,-101.4465C302.0005,-85.5239 339.3937,-61.5316 375,-47.5 386.349,-43.0276 398.8472,-39.4154 410.9673,-36.5316"/>
<polygon fill="#191970" stroke="#191970" points="276.9208,-98.6929 270.7688,-107.3187 280.9571,-104.4121 276.9208,-98.6929"/>
</g>
<!-- Node13&#45;&gt;Node6 -->
<g id="edge15" class="edge">
<title>Node13&#45;&gt;Node6</title>
<path fill="none" stroke="#191970" d="M724.2403,-137.7458C754.5892,-150.7525 793.4608,-167.4118 821.6496,-179.4927"/>
<polygon fill="#191970" stroke="#191970" points="725.2807,-134.3839 714.7105,-133.6617 722.5232,-140.8179 725.2807,-134.3839"/>
</g>
<!-- Node13&#45;&gt;Node11 -->
<g id="edge14" class="edge">
<title>Node13&#45;&gt;Node11</title>
<path fill="none" stroke="#191970" d="M745.054,-98.8038C763.349,-93.7778 782.9677,-88.388 800.6812,-83.5216"/>
<polygon fill="#191970" stroke="#191970" points="744.0524,-95.4492 735.3369,-101.4734 745.9069,-102.1992 744.0524,-95.4492"/>
</g>
<!-- Node14 -->
<g id="node14" class="node">
<title>Node14</title>
<g id="a_node14"><a xlink:href="../../da/d7d/classFairDbSqlValPacket.html#a156f17280d06c7ec7a56912e9ca78c3c" target="_top" xlink:title="FairDbSqlValPacket\l::CreateTable">
<polygon fill="none" stroke="#000000" points="972,-42.5 972,-74.5 1085,-74.5 1085,-42.5 972,-42.5"/>
<text text-anchor="start" x="980" y="-61.5" font-family="FreeSans" font-size="10.00" fill="#000000">FairDbSqlValPacket</text>
<text text-anchor="middle" x="1028.5" y="-49.5" font-family="FreeSans" font-size="10.00" fill="#000000">::CreateTable</text>
</a>
</g>
</g>
<!-- Node13&#45;&gt;Node14 -->
<g id="edge16" class="edge">
<title>Node13&#45;&gt;Node14</title>
<path fill="none" stroke="#191970" d="M761.214,-114.8306C811.0662,-111.9442 875.1857,-105.9476 931,-93.5 951.1865,-88.998 972.9119,-81.4779 990.7201,-74.5597"/>
<polygon fill="#191970" stroke="#191970" points="760.9144,-111.3417 751.121,-115.384 761.2977,-118.3312 760.9144,-111.3417"/>
</g>
<!-- Node15 -->
<g id="node15" class="node">
<title>Node15</title>
<g id="a_node15"><a xlink:href="../../da/d7d/classFairDbSqlValPacket.html#ace0e450e5c1072154e620b61777002ea" target="_top" xlink:title="FairDbSqlValPacket\l::Store">
<polygon fill="none" stroke="#000000" points="972,-131.5 972,-163.5 1085,-163.5 1085,-131.5 972,-131.5"/>
<text text-anchor="start" x="980" y="-150.5" font-family="FreeSans" font-size="10.00" fill="#000000">FairDbSqlValPacket</text>
<text text-anchor="middle" x="1028.5" y="-138.5" font-family="FreeSans" font-size="10.00" fill="#000000">::Store</text>
</a>
</g>
</g>
<!-- Node13&#45;&gt;Node15 -->
<g id="edge17" class="edge">
<title>Node13&#45;&gt;Node15</title>
<path fill="none" stroke="#191970" d="M761.3646,-124.7004C826.5245,-130.2617 914.9026,-137.8046 971.8234,-142.6627"/>
<polygon fill="#191970" stroke="#191970" points="761.376,-121.1887 751.1146,-123.8256 760.7807,-128.1634 761.376,-121.1887"/>
</g>
<!-- Node15&#45;&gt;Node9 -->
<g id="edge18" class="edge">
<title>Node15&#45;&gt;Node9</title>
<path fill="none" stroke="#191970" d="M1095.1191,-148.7452C1105.277,-148.9351 1115.735,-149.1306 1125.8163,-149.319"/>
<polygon fill="#191970" stroke="#191970" points="1095.15,-145.2453 1085.0863,-148.5577 1095.0191,-152.2441 1095.15,-145.2453"/>
</g>
<!-- Node17 -->
<g id="node17" class="node">
<title>Node17</title>
<g id="a_node17"><a xlink:href="../../da/dcf/classFairDbTableProxy.html#aee444850d8387b74d5c15b05a1c89b36" target="_top" xlink:title="FairDbTableProxy::Refresh\lMetaData">
<polygon fill="none" stroke="#000000" points="604,-5.5 604,-37.5 750,-37.5 750,-5.5 604,-5.5"/>
<text text-anchor="start" x="612" y="-24.5" font-family="FreeSans" font-size="10.00" fill="#000000">FairDbTableProxy::Refresh</text>
<text text-anchor="middle" x="677" y="-12.5" font-family="FreeSans" font-size="10.00" fill="#000000">MetaData</text>
</a>
</g>
</g>
<!-- Node16&#45;&gt;Node17 -->
<g id="edge20" class="edge">
<title>Node16&#45;&gt;Node17</title>
<path fill="none" stroke="#191970" d="M559.8205,-24.3442C574.4617,-23.9888 589.4925,-23.624 603.6991,-23.2791"/>
<polygon fill="#191970" stroke="#191970" points="559.6736,-20.8466 549.7615,-24.5883 559.8435,-27.8445 559.6736,-20.8466"/>
</g>
<!-- Node18 -->
<g id="node18" class="node">
<title>Node18</title>
<g id="a_node18"><a xlink:href="../../d8/d4f/classFairDbTableProxyRegistry.html#a21033df9e7e968a45f8047c0345fe920" target="_top" xlink:title="FairDbTableProxyRegistry\l::RefreshMetaData">
<polygon fill="none" stroke="#000000" points="787,-.5 787,-32.5 931,-32.5 931,-.5 787,-.5"/>
<text text-anchor="start" x="795" y="-19.5" font-family="FreeSans" font-size="10.00" fill="#000000">FairDbTableProxyRegistry</text>
<text text-anchor="middle" x="859" y="-7.5" font-family="FreeSans" font-size="10.00" fill="#000000">::RefreshMetaData</text>
</a>
</g>
</g>
<!-- Node17&#45;&gt;Node18 -->
<g id="edge21" class="edge">
<title>Node17&#45;&gt;Node18</title>
<path fill="none" stroke="#191970" d="M760.4901,-19.2063C769.2757,-18.965 778.1552,-18.721 786.7982,-18.4836"/>
<polygon fill="#191970" stroke="#191970" points="760.1397,-15.7145 750.2397,-19.4879 760.332,-22.7119 760.1397,-15.7145"/>
</g>
<!-- Node18&#45;&gt;Node14 -->
<g id="edge22" class="edge">
<title>Node18&#45;&gt;Node14</title>
<path fill="none" stroke="#191970" d="M933.7625,-35.0252C946.5702,-38.1988 959.6863,-41.4488 971.9191,-44.4799"/>
<polygon fill="#191970" stroke="#191970" points="934.5967,-31.6261 924.0484,-32.6182 932.913,-38.4207 934.5967,-31.6261"/>
</g>
</g>
</svg>
