<?xml version="1.0" encoding="UTF-8" standalone="no"?>
<!DOCTYPE svg PUBLIC "-//W3C//DTD SVG 1.1//EN"
 "http://www.w3.org/Graphics/SVG/1.1/DTD/svg11.dtd">
<!-- Generated by graphviz version 2.40.1 (20161225.0304)
 -->
<!-- Title: NNfunction::synapse0x860e5f8 Pages: 1 -->
<svg width="1559pt" height="41pt"
 viewBox="0.00 0.00 1559.00 41.00" xmlns="http://www.w3.org/2000/svg" xmlns:xlink="http://www.w3.org/1999/xlink">
<g id="graph0" class="graph" transform="scale(1 1) rotate(0) translate(4 37)">
<title>NNfunction::synapse0x860e5f8</title>
<!-- Node1 -->
<g id="node1" class="node">
<title>Node1</title>
<polygon fill="#bfbfbf" stroke="#000000" points="0,-6.5 0,-26.5 176,-26.5 176,-6.5 0,-6.5"/>
<text text-anchor="middle" x="88" y="-13.5" font-family="FreeSans" font-size="10.00" fill="#000000">NNfunction::synapse0x860e5f8</text>
</g>
<!-- Node2 -->
<g id="node2" class="node">
<title>Node2</title>
<g id="a_node2"><a xlink:href="../../de/d44/classNNfunction.html#ad0d0b25e0ec151a4b8eb67889bf8c9f1" target="_top" xlink:title="NNfunction::input0x860e3b0">
<polygon fill="none" stroke="#000000" points="212,-6.5 212,-26.5 375,-26.5 375,-6.5 212,-6.5"/>
<text text-anchor="middle" x="293.5" y="-13.5" font-family="FreeSans" font-size="10.00" fill="#000000">NNfunction::input0x860e3b0</text>
</a>
</g>
</g>
<!-- Node1&#45;&gt;Node2 -->
<g id="edge1" class="edge">
<title>Node1&#45;&gt;Node2</title>
<path fill="none" stroke="#191970" d="M186.1126,-16.5C194.7183,-16.5 203.3675,-16.5 211.818,-16.5"/>
<polygon fill="#191970" stroke="#191970" points="186.0448,-13.0001 176.0448,-16.5 186.0448,-20.0001 186.0448,-13.0001"/>
</g>
<!-- Node3 -->
<g id="node3" class="node">
<title>Node3</title>
<g id="a_node3"><a xlink:href="../../de/d44/classNNfunction.html#ad934c3a822de04b184e46d649e5e8832" target="_top" xlink:title="NNfunction::neuron0x860e3b0">
<polygon fill="none" stroke="#000000" points="411,-6.5 411,-26.5 583,-26.5 583,-6.5 411,-6.5"/>
<text text-anchor="middle" x="497" y="-13.5" font-family="FreeSans" font-size="10.00" fill="#000000">NNfunction::neuron0x860e3b0</text>
</a>
</g>
</g>
<!-- Node2&#45;&gt;Node3 -->
<g id="edge2" class="edge">
<title>Node2&#45;&gt;Node3</title>
<path fill="none" stroke="#191970" d="M385.3404,-16.5C393.7872,-16.5 402.3259,-16.5 410.7207,-16.5"/>
<polygon fill="#191970" stroke="#191970" points="385.0987,-13.0001 375.0987,-16.5 385.0986,-20.0001 385.0987,-13.0001"/>
</g>
<!-- Node4 -->
<g id="node4" class="node">
<title>Node4</title>
<g id="a_node4"><a xlink:href="../../de/d44/classNNfunction.html#ab98b2e17672b3684b4d58553b2ae84b4" target="_top" xlink:title="NNfunction::synapse0x860e088">
<polygon fill="none" stroke="#000000" points="619,-6.5 619,-26.5 798,-26.5 798,-6.5 619,-6.5"/>
<text text-anchor="middle" x="708.5" y="-13.5" font-family="FreeSans" font-size="10.00" fill="#000000">NNfunction::synapse0x860e088</text>
</a>
</g>
</g>
<!-- Node3&#45;&gt;Node4 -->
<g id="edge3" class="edge">
<title>Node3&#45;&gt;Node4</title>
<path fill="none" stroke="#191970" d="M593.0309,-16.5C601.5995,-16.5 610.2539,-16.5 618.7666,-16.5"/>
<polygon fill="#191970" stroke="#191970" points="593.0252,-13.0001 583.0251,-16.5 593.0251,-20.0001 593.0252,-13.0001"/>
</g>
<!-- Node5 -->
<g id="node5" class="node">
<title>Node5</title>
<g id="a_node5"><a xlink:href="../../de/d44/classNNfunction.html#af42cacff5a3445f42af3de4813cce15e" target="_top" xlink:title="NNfunction::input0x860e698">
<polygon fill="none" stroke="#000000" points="834,-6.5 834,-26.5 997,-26.5 997,-6.5 834,-6.5"/>
<text text-anchor="middle" x="915.5" y="-13.5" font-family="FreeSans" font-size="10.00" fill="#000000">NNfunction::input0x860e698</text>
</a>
</g>
</g>
<!-- Node4&#45;&gt;Node5 -->
<g id="edge4" class="edge">
<title>Node4&#45;&gt;Node5</title>
<path fill="none" stroke="#191970" d="M808.1834,-16.5C816.8081,-16.5 825.4682,-16.5 833.9238,-16.5"/>
<polygon fill="#191970" stroke="#191970" points="808.0893,-13.0001 798.0893,-16.5 808.0893,-20.0001 808.0893,-13.0001"/>
</g>
<!-- Node6 -->
<g id="node6" class="node">
<title>Node6</title>
<g id="a_node6"><a xlink:href="../../de/d44/classNNfunction.html#a31beff081e17a6b392c8b4750ceca744" target="_top" xlink:title="NNfunction::neuron0x860e698">
<polygon fill="none" stroke="#000000" points="1033,-6.5 1033,-26.5 1205,-26.5 1205,-6.5 1033,-6.5"/>
<text text-anchor="middle" x="1119" y="-13.5" font-family="FreeSans" font-size="10.00" fill="#000000">NNfunction::neuron0x860e698</text>
</a>
</g>
</g>
<!-- Node5&#45;&gt;Node6 -->
<g id="edge5" class="edge">
<title>Node5&#45;&gt;Node6</title>
<path fill="none" stroke="#191970" d="M1007.3404,-16.5C1015.7872,-16.5 1024.3259,-16.5 1032.7207,-16.5"/>
<polygon fill="#191970" stroke="#191970" points="1007.0987,-13.0001 997.0987,-16.5 1007.0986,-20.0001 1007.0987,-13.0001"/>
</g>
<!-- Node7 -->
<g id="node7" class="node">
<title>Node7</title>
<g id="a_node7"><a xlink:href="../../de/d44/classNNfunction.html#a382b90dc4873e4af0be27c342107809b" target="_top" xlink:title="NNfunction::Value">
<polygon fill="none" stroke="#000000" points="1241,-6.5 1241,-26.5 1348,-26.5 1348,-6.5 1241,-6.5"/>
<text text-anchor="middle" x="1294.5" y="-13.5" font-family="FreeSans" font-size="10.00" fill="#000000">NNfunction::Value</text>
</a>
</g>
</g>
<!-- Node6&#45;&gt;Node7 -->
<g id="edge6" class="edge">
<title>Node6&#45;&gt;Node7</title>
<path fill="none" stroke="#191970" d="M1215.436,-16.5C1224.1218,-16.5 1232.6931,-16.5 1240.8047,-16.5"/>
<polygon fill="#191970" stroke="#191970" points="1215.2076,-13.0001 1205.2076,-16.5 1215.2076,-20.0001 1215.2076,-13.0001"/>
</g>
<!-- Node8 -->
<g id="node8" class="node">
<title>Node8</title>
<g id="a_node8"><a xlink:href="../../d1/d0e/classCbmRichRingSelectNeuralNet.html#aefa33df3d9b0f54b09b84bfd0def7be9" target="_top" xlink:title="CbmRichRingSelectNeuralNet\l::DoSelect">
<polygon fill="none" stroke="#000000" points="1384,-.5 1384,-32.5 1551,-32.5 1551,-.5 1384,-.5"/>
<text text-anchor="start" x="1392" y="-19.5" font-family="FreeSans" font-size="10.00" fill="#000000">CbmRichRingSelectNeuralNet</text>
<text text-anchor="middle" x="1467.5" y="-7.5" font-family="FreeSans" font-size="10.00" fill="#000000">::DoSelect</text>
</a>
</g>
</g>
<!-- Node7&#45;&gt;Node8 -->
<g id="edge7" class="edge">
<title>Node7&#45;&gt;Node8</title>
<path fill="none" stroke="#191970" d="M1358.292,-16.5C1366.6339,-16.5 1375.2791,-16.5 1383.8861,-16.5"/>
<polygon fill="#191970" stroke="#191970" points="1358.29,-13.0001 1348.29,-16.5 1358.2899,-20.0001 1358.29,-13.0001"/>
</g>
</g>
</svg>
