<?xml version="1.0" encoding="UTF-8" standalone="no"?>
<!DOCTYPE svg PUBLIC "-//W3C//DTD SVG 1.1//EN"
 "http://www.w3.org/Graphics/SVG/1.1/DTD/svg11.dtd">
<!-- Generated by graphviz version 2.40.1 (20161225.0304)
 -->
<!-- Title: FairDbLogEntry::SetServerName Pages: 1 -->
<svg width="1312pt" height="438pt"
 viewBox="0.00 0.00 1312.00 438.17" xmlns="http://www.w3.org/2000/svg" xmlns:xlink="http://www.w3.org/1999/xlink">
<g id="graph0" class="graph" transform="scale(1 1) rotate(0) translate(4 434.1697)">
<title>FairDbLogEntry::SetServerName</title>
<!-- Node1 -->
<g id="node1" class="node">
<title>Node1</title>
<polygon fill="#bfbfbf" stroke="#000000" points="0,-305.9609 0,-325.9609 178,-325.9609 178,-305.9609 0,-305.9609"/>
<text text-anchor="middle" x="89" y="-312.9609" font-family="FreeSans" font-size="10.00" fill="#000000">FairDbLogEntry::SetServerName</text>
</g>
<!-- Node2 -->
<g id="node2" class="node">
<title>Node2</title>
<g id="a_node2"><a xlink:href="../../d8/d4f/classFairDbTableProxyRegistry.html#a718563a9c86fe00c38ade9a17b4095e3" target="_top" xlink:title="FairDbTableProxyRegistry\l::GetMultConnector">
<polygon fill="none" stroke="#000000" points="214,-350.9609 214,-382.9609 358,-382.9609 358,-350.9609 214,-350.9609"/>
<text text-anchor="start" x="222" y="-369.9609" font-family="FreeSans" font-size="10.00" fill="#000000">FairDbTableProxyRegistry</text>
<text text-anchor="middle" x="286" y="-357.9609" font-family="FreeSans" font-size="10.00" fill="#000000">::GetMultConnector</text>
</a>
</g>
</g>
<!-- Node1&#45;&gt;Node2 -->
<g id="edge1" class="edge">
<title>Node1&#45;&gt;Node2</title>
<path fill="none" stroke="#191970" d="M127.9209,-326.0369C152.5024,-332.4006 185.0136,-340.8172 214.1578,-348.3622"/>
<polygon fill="#191970" stroke="#191970" points="213.3381,-351.7653 223.8961,-350.8833 215.0925,-344.9887 213.3381,-351.7653"/>
</g>
<!-- Node3 -->
<g id="node3" class="node">
<title>Node3</title>
<g id="a_node3"><a xlink:href="../../d4/d94/classFairDbMultConnector.html#a2db6105821c6f101e0f6b78502b09d98" target="_top" xlink:title="FairDbMultConnector\l::GetURL">
<polygon fill="none" stroke="#000000" points="224.5,-299.9609 224.5,-331.9609 347.5,-331.9609 347.5,-299.9609 224.5,-299.9609"/>
<text text-anchor="start" x="232.5" y="-318.9609" font-family="FreeSans" font-size="10.00" fill="#000000">FairDbMultConnector</text>
<text text-anchor="middle" x="286" y="-306.9609" font-family="FreeSans" font-size="10.00" fill="#000000">::GetURL</text>
</a>
</g>
</g>
<!-- Node1&#45;&gt;Node3 -->
<g id="edge2" class="edge">
<title>Node1&#45;&gt;Node3</title>
<path fill="none" stroke="#191970" d="M178.2776,-315.9609C190.3247,-315.9609 202.5575,-315.9609 214.2464,-315.9609"/>
<polygon fill="#191970" stroke="#191970" points="214.3603,-319.461 224.3603,-315.9609 214.3603,-312.461 214.3603,-319.461"/>
</g>
<!-- Node5 -->
<g id="node5" class="node">
<title>Node5</title>
<g id="a_node5"><a xlink:href="../../d8/d4f/classFairDbTableProxyRegistry.html#a965cce1c74a2756f835f4a8231f707ea" target="_top" xlink:title="FairDbTableProxyRegistry\l::Instance">
<polygon fill="none" stroke="#000000" points="214,-248.9609 214,-280.9609 358,-280.9609 358,-248.9609 214,-248.9609"/>
<text text-anchor="start" x="222" y="-267.9609" font-family="FreeSans" font-size="10.00" fill="#000000">FairDbTableProxyRegistry</text>
<text text-anchor="middle" x="286" y="-255.9609" font-family="FreeSans" font-size="10.00" fill="#000000">::Instance</text>
</a>
</g>
</g>
<!-- Node1&#45;&gt;Node5 -->
<g id="edge4" class="edge">
<title>Node1&#45;&gt;Node5</title>
<path fill="none" stroke="#191970" d="M127.9209,-305.885C152.5024,-299.5212 185.0136,-291.1046 214.1578,-283.5597"/>
<polygon fill="#191970" stroke="#191970" points="215.0925,-286.9332 223.8961,-281.0386 213.3381,-280.1566 215.0925,-286.9332"/>
</g>
<!-- Node4 -->
<g id="node4" class="node">
<title>Node4</title>
<g id="a_node4"><a xlink:href="../../d4/d94/classFairDbMultConnector.html#a00e82f4de0cf48347c851be1b22ba1fd" target="_top" xlink:title="FairDbMultConnector\l::GetNumDb">
<polygon fill="none" stroke="#000000" points="407.5,-299.9609 407.5,-331.9609 530.5,-331.9609 530.5,-299.9609 407.5,-299.9609"/>
<text text-anchor="start" x="415.5" y="-318.9609" font-family="FreeSans" font-size="10.00" fill="#000000">FairDbMultConnector</text>
<text text-anchor="middle" x="469" y="-306.9609" font-family="FreeSans" font-size="10.00" fill="#000000">::GetNumDb</text>
</a>
</g>
</g>
<!-- Node3&#45;&gt;Node4 -->
<g id="edge3" class="edge">
<title>Node3&#45;&gt;Node4</title>
<path fill="none" stroke="#191970" d="M347.7003,-315.9609C363.5972,-315.9609 380.8412,-315.9609 397.2029,-315.9609"/>
<polygon fill="#191970" stroke="#191970" points="397.2564,-319.461 407.2563,-315.9609 397.2563,-312.461 397.2564,-319.461"/>
</g>
<!-- Node6 -->
<g id="node6" class="node">
<title>Node6</title>
<g id="a_node6"><a xlink:href="../../d8/d4f/classFairDbTableProxyRegistry.html#ac33f3bdbb82fdd09080faef5cb32f36d" target="_top" xlink:title="FairDbTableProxyRegistry\l::FairDbTableProxyRegistry">
<polygon fill="none" stroke="#000000" points="394,-248.9609 394,-280.9609 544,-280.9609 544,-248.9609 394,-248.9609"/>
<text text-anchor="start" x="402" y="-267.9609" font-family="FreeSans" font-size="10.00" fill="#000000">FairDbTableProxyRegistry</text>
<text text-anchor="middle" x="469" y="-255.9609" font-family="FreeSans" font-size="10.00" fill="#000000">::FairDbTableProxyRegistry</text>
</a>
</g>
</g>
<!-- Node5&#45;&gt;Node6 -->
<g id="edge5" class="edge">
<title>Node5&#45;&gt;Node6</title>
<path fill="none" stroke="#191970" d="M358.0638,-264.9609C366.5467,-264.9609 375.2633,-264.9609 383.9034,-264.9609"/>
<polygon fill="#191970" stroke="#191970" points="383.9925,-268.461 393.9924,-264.9609 383.9924,-261.461 383.9925,-268.461"/>
</g>
<!-- Node7 -->
<g id="node7" class="node">
<title>Node7</title>
<g id="a_node7"><a xlink:href="../../d8/d4f/classFairDbTableProxyRegistry.html#a4bdfad9f7132883525bf40155133c37f" target="_top" xlink:title="FairDbTableProxyRegistry\l::SetConfigFromEnvironment">
<polygon fill="none" stroke="#000000" points="580,-248.9609 580,-280.9609 742,-280.9609 742,-248.9609 580,-248.9609"/>
<text text-anchor="start" x="588" y="-267.9609" font-family="FreeSans" font-size="10.00" fill="#000000">FairDbTableProxyRegistry</text>
<text text-anchor="middle" x="661" y="-255.9609" font-family="FreeSans" font-size="10.00" fill="#000000">::SetConfigFromEnvironment</text>
</a>
</g>
</g>
<!-- Node6&#45;&gt;Node7 -->
<g id="edge6" class="edge">
<title>Node6&#45;&gt;Node7</title>
<path fill="none" stroke="#191970" d="M544.0571,-264.9609C552.5238,-264.9609 561.219,-264.9609 569.8615,-264.9609"/>
<polygon fill="#191970" stroke="#191970" points="569.9661,-268.461 579.966,-264.9609 569.966,-261.461 569.9661,-268.461"/>
</g>
<!-- Node8 -->
<g id="node8" class="node">
<title>Node8</title>
<g id="a_node8"><a xlink:href="../../d2/d6d/namespaceFairUtilString.html#a1165d2df863d8cb37811ebc943cfafb3" target="_top" xlink:title="FairUtilString::StringTok">
<polygon fill="none" stroke="#000000" points="779,-293.9609 779,-313.9609 914,-313.9609 914,-293.9609 779,-293.9609"/>
<text text-anchor="middle" x="846.5" y="-300.9609" font-family="FreeSans" font-size="10.00" fill="#000000">FairUtilString::StringTok</text>
</a>
</g>
</g>
<!-- Node7&#45;&gt;Node8 -->
<g id="edge7" class="edge">
<title>Node7&#45;&gt;Node8</title>
<path fill="none" stroke="#191970" d="M737.253,-280.9925C754.4657,-284.6114 772.4616,-288.3949 788.7656,-291.8227"/>
<polygon fill="#191970" stroke="#191970" points="788.1702,-295.274 798.6764,-293.9064 789.6105,-288.4237 788.1702,-295.274"/>
</g>
<!-- Node9 -->
<g id="node9" class="node">
<title>Node9</title>
<g id="a_node9"><a xlink:href="../../dd/dfd/classFairDbConfigurable.html#ae4c9ebb225c455a956653d160e8578cb" target="_top" xlink:title="FairDbConfigurable::Set">
<polygon fill="none" stroke="#000000" points="778,-254.9609 778,-274.9609 915,-274.9609 915,-254.9609 778,-254.9609"/>
<text text-anchor="middle" x="846.5" y="-261.9609" font-family="FreeSans" font-size="10.00" fill="#000000">FairDbConfigurable::Set</text>
</a>
</g>
</g>
<!-- Node7&#45;&gt;Node9 -->
<g id="edge8" class="edge">
<title>Node7&#45;&gt;Node9</title>
<path fill="none" stroke="#191970" d="M742.0931,-264.9609C750.5489,-264.9609 759.1361,-264.9609 767.5674,-264.9609"/>
<polygon fill="#191970" stroke="#191970" points="767.7551,-268.461 777.7551,-264.9609 767.7551,-261.461 767.7551,-268.461"/>
</g>
<!-- Node22 -->
<g id="node22" class="node">
<title>Node22</title>
<g id="a_node22"><a xlink:href="../../dd/dfd/classFairDbConfigurable.html#a5dc7917581fa4a4f726c24d5637f63e4" target="_top" xlink:title="FairDbConfigurable\l::Update">
<polygon fill="none" stroke="#000000" points="790,-40.9609 790,-72.9609 903,-72.9609 903,-40.9609 790,-40.9609"/>
<text text-anchor="start" x="798" y="-59.9609" font-family="FreeSans" font-size="10.00" fill="#000000">FairDbConfigurable</text>
<text text-anchor="middle" x="846.5" y="-47.9609" font-family="FreeSans" font-size="10.00" fill="#000000">::Update</text>
</a>
</g>
</g>
<!-- Node7&#45;&gt;Node22 -->
<g id="edge27" class="edge">
<title>Node7&#45;&gt;Node22</title>
<path fill="none" stroke="#191970" d="M675.5559,-248.6395C708.1328,-212.1112 787.0402,-123.6328 825.1707,-80.8773"/>
<polygon fill="#191970" stroke="#191970" points="827.968,-82.9993 832.0117,-73.2065 822.7437,-78.3402 827.968,-82.9993"/>
</g>
<!-- Node10 -->
<g id="node10" class="node">
<title>Node10</title>
<g id="a_node10"><a xlink:href="../../dd/dfd/classFairDbConfigurable.html#a4c782bea855a1b8da857235dc0d4304c" target="_top" xlink:title="FairDbConfigurable\l::DefaultConfig">
<polygon fill="none" stroke="#000000" points="977,-164.9609 977,-196.9609 1090,-196.9609 1090,-164.9609 977,-164.9609"/>
<text text-anchor="start" x="985" y="-183.9609" font-family="FreeSans" font-size="10.00" fill="#000000">FairDbConfigurable</text>
<text text-anchor="middle" x="1033.5" y="-171.9609" font-family="FreeSans" font-size="10.00" fill="#000000">::DefaultConfig</text>
</a>
</g>
</g>
<!-- Node9&#45;&gt;Node10 -->
<g id="edge9" class="edge">
<title>Node9&#45;&gt;Node10</title>
<path fill="none" stroke="#191970" d="M861.8806,-254.8459C881.7876,-242.0948 917.8599,-220.133 951,-205.9609 956.2892,-203.699 961.85,-201.5527 967.4816,-199.5384"/>
<polygon fill="#191970" stroke="#191970" points="968.6677,-202.8318 976.9905,-196.2758 966.3959,-196.2107 968.6677,-202.8318"/>
</g>
<!-- Node11 -->
<g id="node11" class="node">
<title>Node11</title>
<g id="a_node11"><a xlink:href="../../dd/dfd/classFairDbConfigurable.html#a154978113ce8223abd35efc806b4f6e9" target="_top" xlink:title="FairDbConfigurable\l::GetConfig">
<polygon fill="none" stroke="#000000" points="977,-113.9609 977,-145.9609 1090,-145.9609 1090,-113.9609 977,-113.9609"/>
<text text-anchor="start" x="985" y="-132.9609" font-family="FreeSans" font-size="10.00" fill="#000000">FairDbConfigurable</text>
<text text-anchor="middle" x="1033.5" y="-120.9609" font-family="FreeSans" font-size="10.00" fill="#000000">::GetConfig</text>
</a>
</g>
</g>
<!-- Node9&#45;&gt;Node11 -->
<g id="edge10" class="edge">
<title>Node9&#45;&gt;Node11</title>
<path fill="none" stroke="#191970" d="M853.3256,-254.7963C868.3726,-233.1691 906.6084,-182.3388 951,-154.9609 956.0595,-151.8406 961.535,-149.0866 967.1755,-146.6606"/>
<polygon fill="#191970" stroke="#191970" points="968.7564,-149.7998 976.7797,-142.8804 966.1926,-143.2861 968.7564,-149.7998"/>
</g>
<!-- Node12 -->
<g id="node12" class="node">
<title>Node12</title>
<g id="a_node12"><a xlink:href="../../de/d04/classFairRegistry.html#a8b9a99140851a7fce5d8fce55457623e" target="_top" xlink:title="FairRegistry::LockValues">
<polygon fill="none" stroke="#000000" points="1159,-371.9609 1159,-391.9609 1297,-391.9609 1297,-371.9609 1159,-371.9609"/>
<text text-anchor="middle" x="1228" y="-378.9609" font-family="FreeSans" font-size="10.00" fill="#000000">FairRegistry::LockValues</text>
</a>
</g>
</g>
<!-- Node9&#45;&gt;Node12 -->
<g id="edge11" class="edge">
<title>Node9&#45;&gt;Node12</title>
<path fill="none" stroke="#191970" d="M902.2925,-275.0096C906.9507,-277.4005 911.2883,-280.3428 915,-283.9609 954.2633,-322.2338 906.9335,-369.3333 951,-401.9609 1024.8412,-456.6343 1142.2339,-418.8316 1197.427,-395.9318"/>
<polygon fill="#191970" stroke="#191970" points="1198.8458,-399.1318 1206.673,-391.9914 1196.1014,-392.6922 1198.8458,-399.1318"/>
</g>
<!-- Node13 -->
<g id="node13" class="node">
<title>Node13</title>
<g id="a_node13"><a xlink:href="../../de/d04/classFairRegistry.html#a1771c32f039fd94b7d145c7f90d566ed" target="_top" xlink:title="Copy rhs into this, respects this&#39;s locks.">
<polygon fill="none" stroke="#000000" points="977,-215.9609 977,-235.9609 1090,-235.9609 1090,-215.9609 977,-215.9609"/>
<text text-anchor="middle" x="1033.5" y="-222.9609" font-family="FreeSans" font-size="10.00" fill="#000000">FairRegistry::Merge</text>
</a>
</g>
</g>
<!-- Node9&#45;&gt;Node13 -->
<g id="edge12" class="edge">
<title>Node9&#45;&gt;Node13</title>
<path fill="none" stroke="#191970" d="M894.6571,-254.9175C919.3051,-249.777 949.5,-243.4796 975.4288,-238.072"/>
<polygon fill="#191970" stroke="#191970" points="976.4313,-241.4383 985.506,-235.9704 975.0021,-234.5858 976.4313,-241.4383"/>
</g>
<!-- Node16 -->
<g id="node16" class="node">
<title>Node16</title>
<g id="a_node16"><a xlink:href="../../db/da0/classFairDbConfDialog.html#a76d3fa8a0bb174f18aa9b6f47b436f5e" target="_top" xlink:title="FairDbConfDialog::Query">
<polygon fill="none" stroke="#000000" points="963,-254.9609 963,-274.9609 1104,-274.9609 1104,-254.9609 963,-254.9609"/>
<text text-anchor="middle" x="1033.5" y="-261.9609" font-family="FreeSans" font-size="10.00" fill="#000000">FairDbConfDialog::Query</text>
</a>
</g>
</g>
<!-- Node9&#45;&gt;Node16 -->
<g id="edge15" class="edge">
<title>Node9&#45;&gt;Node16</title>
<path fill="none" stroke="#191970" d="M915.0701,-264.9609C927.204,-264.9609 939.9422,-264.9609 952.3827,-264.9609"/>
<polygon fill="#191970" stroke="#191970" points="952.743,-268.461 962.7429,-264.9609 952.7429,-261.461 952.743,-268.461"/>
</g>
<!-- Node19 -->
<g id="node19" class="node">
<title>Node19</title>
<g id="a_node19"><a xlink:href="../../de/d04/classFairRegistry.html#a763c3780e35a2993ffeec345c3ddae8a" target="_top" xlink:title="FairRegistry::UnLockValues">
<polygon fill="none" stroke="#000000" points="1152,-332.9609 1152,-352.9609 1304,-352.9609 1304,-332.9609 1152,-332.9609"/>
<text text-anchor="middle" x="1228" y="-339.9609" font-family="FreeSans" font-size="10.00" fill="#000000">FairRegistry::UnLockValues</text>
</a>
</g>
</g>
<!-- Node9&#45;&gt;Node19 -->
<g id="edge26" class="edge">
<title>Node9&#45;&gt;Node19</title>
<path fill="none" stroke="#191970" d="M895.5934,-274.9984C965.4596,-289.2829 1093.4104,-315.4433 1168.5524,-330.8065"/>
<polygon fill="#191970" stroke="#191970" points="1168.2948,-334.3262 1178.7932,-332.9003 1169.697,-327.468 1168.2948,-334.3262"/>
</g>
<!-- Node20 -->
<g id="node20" class="node">
<title>Node20</title>
<g id="a_node20"><a xlink:href="../../db/da0/classFairDbConfDialog.html#a7dcb312a350fcf9ee350253500462e24" target="_top" xlink:title="FairDbConfDialog::SetCurrent">
<polygon fill="none" stroke="#000000" points="951,-371.9609 951,-391.9609 1116,-391.9609 1116,-371.9609 951,-371.9609"/>
<text text-anchor="middle" x="1033.5" y="-378.9609" font-family="FreeSans" font-size="10.00" fill="#000000">FairDbConfDialog::SetCurrent</text>
</a>
</g>
</g>
<!-- Node9&#45;&gt;Node20 -->
<g id="edge20" class="edge">
<title>Node9&#45;&gt;Node20</title>
<path fill="none" stroke="#191970" d="M900.7704,-275.0759C905.9079,-277.4449 910.7684,-280.3642 915,-283.9609 944.0919,-308.6883 921.5073,-337.713 951,-361.9609 953.2946,-363.8475 955.7393,-365.5609 958.2963,-367.1169"/>
<polygon fill="#191970" stroke="#191970" points="956.879,-370.3245 967.3674,-371.8227 960.1025,-364.1109 956.879,-370.3245"/>
</g>
<!-- Node21 -->
<g id="node21" class="node">
<title>Node21</title>
<g id="a_node21"><a xlink:href="../../db/da0/classFairDbConfDialog.html#a61e1cb023eaa4cf5c863e3991b438881" target="_top" xlink:title="FairDbConfDialog::SetDefault">
<polygon fill="none" stroke="#000000" points="951,-332.9609 951,-352.9609 1116,-352.9609 1116,-332.9609 951,-332.9609"/>
<text text-anchor="middle" x="1033.5" y="-339.9609" font-family="FreeSans" font-size="10.00" fill="#000000">FairDbConfDialog::SetDefault</text>
</a>
</g>
</g>
<!-- Node9&#45;&gt;Node21 -->
<g id="edge23" class="edge">
<title>Node9&#45;&gt;Node21</title>
<path fill="none" stroke="#191970" d="M894.4957,-275.0418C901.6014,-277.4448 908.6584,-280.3828 915,-283.9609 934.1673,-294.7757 931.962,-306.9201 951,-317.9609 959.0815,-322.6476 968.1269,-326.5352 977.1858,-329.7346"/>
<polygon fill="#191970" stroke="#191970" points="976.3832,-333.1546 986.9759,-332.9415 978.5623,-326.5024 976.3832,-333.1546"/>
</g>
<!-- Node14 -->
<g id="node14" class="node">
<title>Node14</title>
<g id="a_node14"><a xlink:href="../../de/d04/classFairRegistry.html#ae188b953682b4d6313915967eb4689e6" target="_top" xlink:title="FairRegistry::Key">
<polygon fill="none" stroke="#000000" points="1178,-215.9609 1178,-235.9609 1278,-235.9609 1278,-215.9609 1178,-215.9609"/>
<text text-anchor="middle" x="1228" y="-222.9609" font-family="FreeSans" font-size="10.00" fill="#000000">FairRegistry::Key</text>
</a>
</g>
</g>
<!-- Node13&#45;&gt;Node14 -->
<g id="edge13" class="edge">
<title>Node13&#45;&gt;Node14</title>
<path fill="none" stroke="#191970" d="M1090.0187,-225.9609C1114.4664,-225.9609 1143.1058,-225.9609 1167.937,-225.9609"/>
<polygon fill="#191970" stroke="#191970" points="1167.9628,-229.461 1177.9628,-225.9609 1167.9627,-222.461 1167.9628,-229.461"/>
</g>
<!-- Node15 -->
<g id="node15" class="node">
<title>Node15</title>
<g id="a_node15"><a xlink:href="../../de/d04/classFairRegistry.html#a730bc9f04b62ec683daa7bf673150e42" target="_top" xlink:title="FairRegistry::SetDirty">
<polygon fill="none" stroke="#000000" points="1167,-80.9609 1167,-100.9609 1289,-100.9609 1289,-80.9609 1167,-80.9609"/>
<text text-anchor="middle" x="1228" y="-87.9609" font-family="FreeSans" font-size="10.00" fill="#000000">FairRegistry::SetDirty</text>
</a>
</g>
</g>
<!-- Node13&#45;&gt;Node15 -->
<g id="edge14" class="edge">
<title>Node13&#45;&gt;Node15</title>
<path fill="none" stroke="#191970" d="M1090.1515,-216.7098C1099.1304,-213.9939 1108.0623,-210.487 1116,-205.9609 1159.1242,-181.3712 1196.4602,-135.3246 1215.1848,-109.5854"/>
<polygon fill="#191970" stroke="#191970" points="1218.2764,-111.2772 1221.2175,-101.0987 1212.571,-107.2215 1218.2764,-111.2772"/>
</g>
<!-- Node16&#45;&gt;Node14 -->
<g id="edge17" class="edge">
<title>Node16&#45;&gt;Node14</title>
<path fill="none" stroke="#191970" d="M1083.5886,-254.9175C1109.3385,-249.7542 1140.909,-243.4239 1167.9575,-238.0003"/>
<polygon fill="#191970" stroke="#191970" points="1168.9644,-241.3681 1178.0812,-235.9704 1167.5882,-234.5047 1168.9644,-241.3681"/>
</g>
<!-- Node17 -->
<g id="node17" class="node">
<title>Node17</title>
<g id="a_node17"><a xlink:href="../../de/d04/classFairRegistry.html#a7ae04ff7466bdd3fe35b0f21130676a4" target="_top" xlink:title="FairRegistry::Get">
<polygon fill="none" stroke="#000000" points="1178,-293.9609 1178,-313.9609 1278,-313.9609 1278,-293.9609 1178,-293.9609"/>
<text text-anchor="middle" x="1228" y="-300.9609" font-family="FreeSans" font-size="10.00" fill="#000000">FairRegistry::Get</text>
</a>
</g>
</g>
<!-- Node16&#45;&gt;Node17 -->
<g id="edge16" class="edge">
<title>Node16&#45;&gt;Node17</title>
<path fill="none" stroke="#191970" d="M1083.5886,-275.0044C1109.3385,-280.1676 1140.909,-286.4979 1167.9575,-291.9216"/>
<polygon fill="#191970" stroke="#191970" points="1167.5882,-295.4171 1178.0812,-293.9515 1168.9644,-288.5537 1167.5882,-295.4171"/>
</g>
<!-- Node18 -->
<g id="node18" class="node">
<title>Node18</title>
<g id="a_node18"><a xlink:href="../../de/d04/classFairRegistry.html#af5497b2e40a7090339223f1e335d4cc3" target="_top" xlink:title="FairRegistry::Set">
<polygon fill="none" stroke="#000000" points="1179,-254.9609 1179,-274.9609 1277,-274.9609 1277,-254.9609 1179,-254.9609"/>
<text text-anchor="middle" x="1228" y="-261.9609" font-family="FreeSans" font-size="10.00" fill="#000000">FairRegistry::Set</text>
</a>
</g>
</g>
<!-- Node16&#45;&gt;Node18 -->
<g id="edge18" class="edge">
<title>Node16&#45;&gt;Node18</title>
<path fill="none" stroke="#191970" d="M1104.2692,-264.9609C1125.4547,-264.9609 1148.4553,-264.9609 1168.8134,-264.9609"/>
<polygon fill="#191970" stroke="#191970" points="1168.8841,-268.461 1178.8841,-264.9609 1168.8841,-261.461 1168.8841,-268.461"/>
</g>
<!-- Node16&#45;&gt;Node19 -->
<g id="edge19" class="edge">
<title>Node16&#45;&gt;Node19</title>
<path fill="none" stroke="#191970" d="M1079.9609,-275.0902C1092.1404,-278.7886 1104.9483,-283.6611 1116,-289.9609 1134.8567,-300.7098 1132.9482,-312.5619 1152,-322.9609 1156.5246,-325.4306 1161.3691,-327.6069 1166.3404,-329.5227"/>
<polygon fill="#191970" stroke="#191970" points="1165.4113,-332.9054 1176.0062,-332.8943 1167.7169,-326.2959 1165.4113,-332.9054"/>
</g>
<!-- Node20&#45;&gt;Node12 -->
<g id="edge21" class="edge">
<title>Node20&#45;&gt;Node12</title>
<path fill="none" stroke="#191970" d="M1116.2675,-381.9609C1127.002,-381.9609 1137.9772,-381.9609 1148.6543,-381.9609"/>
<polygon fill="#191970" stroke="#191970" points="1148.7821,-385.461 1158.782,-381.9609 1148.782,-378.461 1148.7821,-385.461"/>
</g>
<!-- Node20&#45;&gt;Node19 -->
<g id="edge22" class="edge">
<title>Node20&#45;&gt;Node19</title>
<path fill="none" stroke="#191970" d="M1083.5886,-371.9175C1109.3385,-366.7542 1140.909,-360.4239 1167.9575,-355.0003"/>
<polygon fill="#191970" stroke="#191970" points="1168.9644,-358.3681 1178.0812,-352.9704 1167.5882,-351.5047 1168.9644,-358.3681"/>
</g>
<!-- Node21&#45;&gt;Node12 -->
<g id="edge24" class="edge">
<title>Node21&#45;&gt;Node12</title>
<path fill="none" stroke="#191970" d="M1083.5886,-353.0044C1109.3385,-358.1676 1140.909,-364.4979 1167.9575,-369.9216"/>
<polygon fill="#191970" stroke="#191970" points="1167.5882,-373.4171 1178.0812,-371.9515 1168.9644,-366.5537 1167.5882,-373.4171"/>
</g>
<!-- Node21&#45;&gt;Node19 -->
<g id="edge25" class="edge">
<title>Node21&#45;&gt;Node19</title>
<path fill="none" stroke="#191970" d="M1116.2675,-342.9609C1124.6473,-342.9609 1133.1739,-342.9609 1141.5908,-342.9609"/>
<polygon fill="#191970" stroke="#191970" points="1141.7859,-346.461 1151.7858,-342.9609 1141.7858,-339.461 1141.7859,-346.461"/>
</g>
<!-- Node22&#45;&gt;Node15 -->
<g id="edge30" class="edge">
<title>Node22&#45;&gt;Node15</title>
<path fill="none" stroke="#191970" d="M876.6044,-40.8849C896.969,-30.9479 924.8258,-19.1356 951,-13.9609 1022.9409,.2618 1045.9668,7.7907 1116,-13.9609 1153.7982,-25.7006 1190.1466,-55.1127 1210.7183,-73.9989"/>
<polygon fill="#191970" stroke="#191970" points="1208.3637,-76.5893 1218.043,-80.8976 1213.163,-71.4935 1208.3637,-76.5893"/>
</g>
<!-- Node23 -->
<g id="node23" class="node">
<title>Node23</title>
<g id="a_node23"><a xlink:href="../../dd/dfd/classFairDbConfigurable.html#a48c98f9bfe04005939bb416db9c064e2" target="_top" xlink:title="FairDbConfigurable\l::Config">
<polygon fill="none" stroke="#000000" points="977,-62.9609 977,-94.9609 1090,-94.9609 1090,-62.9609 977,-62.9609"/>
<text text-anchor="start" x="985" y="-81.9609" font-family="FreeSans" font-size="10.00" fill="#000000">FairDbConfigurable</text>
<text text-anchor="middle" x="1033.5" y="-69.9609" font-family="FreeSans" font-size="10.00" fill="#000000">::Config</text>
</a>
</g>
</g>
<!-- Node22&#45;&gt;Node23 -->
<g id="edge28" class="edge">
<title>Node22&#45;&gt;Node23</title>
<path fill="none" stroke="#191970" d="M903.1136,-63.6214C923.1603,-65.9798 945.9012,-68.6552 966.7142,-71.1038"/>
<polygon fill="#191970" stroke="#191970" points="966.4159,-74.5927 976.7563,-72.2852 967.2338,-67.6407 966.4159,-74.5927"/>
</g>
<!-- Node24 -->
<g id="node24" class="node">
<title>Node24</title>
<g id="a_node24"><a xlink:href="../../de/d04/classFairRegistry.html#a694e45affa3ee51ef12564b0718f71ce" target="_top" xlink:title="FairRegistry::IsDirty">
<polygon fill="none" stroke="#000000" points="976.5,-23.9609 976.5,-43.9609 1090.5,-43.9609 1090.5,-23.9609 976.5,-23.9609"/>
<text text-anchor="middle" x="1033.5" y="-30.9609" font-family="FreeSans" font-size="10.00" fill="#000000">FairRegistry::IsDirty</text>
</a>
</g>
</g>
<!-- Node22&#45;&gt;Node24 -->
<g id="edge29" class="edge">
<title>Node22&#45;&gt;Node24</title>
<path fill="none" stroke="#191970" d="M903.1136,-49.9977C923.0679,-47.5435 945.6916,-44.7609 966.4263,-42.2106"/>
<polygon fill="#191970" stroke="#191970" points="966.9355,-45.6745 976.4334,-40.9798 966.0809,-38.7268 966.9355,-45.6745"/>
</g>
</g>
</svg>
