<?xml version="1.0" encoding="UTF-8" standalone="no"?>
<!DOCTYPE svg PUBLIC "-//W3C//DTD SVG 1.1//EN"
 "http://www.w3.org/Graphics/SVG/1.1/DTD/svg11.dtd">
<!-- Generated by graphviz version 2.40.1 (20161225.0304)
 -->
<!-- Title: PndFieldMapData::GetYmin Pages: 1 -->
<svg width="1019pt" height="185pt"
 viewBox="0.00 0.00 1019.00 185.00" xmlns="http://www.w3.org/2000/svg" xmlns:xlink="http://www.w3.org/1999/xlink">
<g id="graph0" class="graph" transform="scale(1 1) rotate(0) translate(4 181)">
<title>PndFieldMapData::GetYmin</title>
<!-- Node1 -->
<g id="node1" class="node">
<title>Node1</title>
<polygon fill="#bfbfbf" stroke="#000000" points="0,-78.5 0,-98.5 153,-98.5 153,-78.5 0,-78.5"/>
<text text-anchor="middle" x="76.5" y="-85.5" font-family="FreeSans" font-size="10.00" fill="#000000">PndFieldMapData::GetYmin</text>
</g>
<!-- Node2 -->
<g id="node2" class="node">
<title>Node2</title>
<g id="a_node2"><a xlink:href="../../dc/d6d/classPndFieldMap.html#a01ce0a9ed63173dc0f270502b69afdec" target="_top" xlink:title="PndFieldMap::SetField">
<polygon fill="none" stroke="#000000" points="189,-78.5 189,-98.5 315,-98.5 315,-78.5 189,-78.5"/>
<text text-anchor="middle" x="252" y="-85.5" font-family="FreeSans" font-size="10.00" fill="#000000">PndFieldMap::SetField</text>
</a>
</g>
</g>
<!-- Node1&#45;&gt;Node2 -->
<g id="edge1" class="edge">
<title>Node1&#45;&gt;Node2</title>
<path fill="none" stroke="#191970" d="M163.3061,-88.5C171.9183,-88.5 180.5427,-88.5 188.8473,-88.5"/>
<polygon fill="#191970" stroke="#191970" points="163.2216,-85.0001 153.2215,-88.5 163.2215,-92.0001 163.2216,-85.0001"/>
</g>
<!-- Node3 -->
<g id="node3" class="node">
<title>Node3</title>
<g id="a_node3"><a xlink:href="../../dc/d6d/classPndFieldMap.html#a326ee470c778fe54801f1dc58337fa17" target="_top" xlink:title="PndFieldMap::ReadRootFile">
<polygon fill="none" stroke="#000000" points="351,-78.5 351,-98.5 503,-98.5 503,-78.5 351,-78.5"/>
<text text-anchor="middle" x="427" y="-85.5" font-family="FreeSans" font-size="10.00" fill="#000000">PndFieldMap::ReadRootFile</text>
</a>
</g>
</g>
<!-- Node2&#45;&gt;Node3 -->
<g id="edge2" class="edge">
<title>Node2&#45;&gt;Node3</title>
<path fill="none" stroke="#191970" d="M325.3297,-88.5C333.7421,-88.5 342.3341,-88.5 350.7833,-88.5"/>
<polygon fill="#191970" stroke="#191970" points="325.1791,-85.0001 315.179,-88.5 325.179,-92.0001 325.1791,-85.0001"/>
</g>
<!-- Node4 -->
<g id="node4" class="node">
<title>Node4</title>
<g id="a_node4"><a xlink:href="../../dc/d6d/classPndFieldMap.html#a902d6706ceb54e2ae27be2f676d998d7" target="_top" xlink:title="PndFieldMap::Init">
<polygon fill="none" stroke="#000000" points="539,-78.5 539,-98.5 642,-98.5 642,-78.5 539,-78.5"/>
<text text-anchor="middle" x="590.5" y="-85.5" font-family="FreeSans" font-size="10.00" fill="#000000">PndFieldMap::Init</text>
</a>
</g>
</g>
<!-- Node3&#45;&gt;Node4 -->
<g id="edge3" class="edge">
<title>Node3&#45;&gt;Node4</title>
<path fill="none" stroke="#191970" d="M513.0098,-88.5C521.8647,-88.5 530.6528,-88.5 538.9569,-88.5"/>
<polygon fill="#191970" stroke="#191970" points="513.0062,-85.0001 503.0062,-88.5 513.0061,-92.0001 513.0062,-85.0001"/>
</g>
<!-- Node5 -->
<g id="node5" class="node">
<title>Node5</title>
<g id="a_node5"><a xlink:href="../../d0/de7/df2root_8C.html#a5784e2b2830de771e8454c4d03ad38ae" target="_top" xlink:title="df2root">
<polygon fill="none" stroke="#000000" points="723.5,-156.5 723.5,-176.5 776.5,-176.5 776.5,-156.5 723.5,-156.5"/>
<text text-anchor="middle" x="750" y="-163.5" font-family="FreeSans" font-size="10.00" fill="#000000">df2root</text>
</a>
</g>
</g>
<!-- Node4&#45;&gt;Node5 -->
<g id="edge4" class="edge">
<title>Node4&#45;&gt;Node5</title>
<path fill="none" stroke="#191970" d="M610.5411,-104.8916C627.566,-118.0849 653.1324,-136.2264 678,-147.5 692.3648,-154.0122 709.3902,-158.6326 723.2779,-161.6853"/>
<polygon fill="#191970" stroke="#191970" points="612.4806,-101.9633 602.4657,-98.5061 608.1388,-107.4541 612.4806,-101.9633"/>
</g>
<!-- Node6 -->
<g id="node6" class="node">
<title>Node6</title>
<g id="a_node6"><a xlink:href="../../d2/d27/f2ascii_8C.html#ac2bcf92f10124c1e6365375852f51e67" target="_top" xlink:title="f2ascii">
<polygon fill="none" stroke="#000000" points="725.5,-117.5 725.5,-137.5 774.5,-137.5 774.5,-117.5 725.5,-117.5"/>
<text text-anchor="middle" x="750" y="-124.5" font-family="FreeSans" font-size="10.00" fill="#000000">f2ascii</text>
</a>
</g>
</g>
<!-- Node4&#45;&gt;Node6 -->
<g id="edge5" class="edge">
<title>Node4&#45;&gt;Node6</title>
<path fill="none" stroke="#191970" d="M641.6359,-101.0035C669.6967,-107.8647 703.2063,-116.0583 725.4576,-121.499"/>
<polygon fill="#191970" stroke="#191970" points="642.1204,-97.5189 631.5752,-98.5435 640.4577,-104.3186 642.1204,-97.5189"/>
</g>
<!-- Node7 -->
<g id="node7" class="node">
<title>Node7</title>
<g id="a_node7"><a xlink:href="../../d8/dba/classPndMultiField.html#a67b1042bf6c7577c3893c12427004c02" target="_top" xlink:title="PndMultiField::Init">
<polygon fill="none" stroke="#000000" points="697,-78.5 697,-98.5 803,-98.5 803,-78.5 697,-78.5"/>
<text text-anchor="middle" x="750" y="-85.5" font-family="FreeSans" font-size="10.00" fill="#000000">PndMultiField::Init</text>
</a>
</g>
</g>
<!-- Node4&#45;&gt;Node7 -->
<g id="edge6" class="edge">
<title>Node4&#45;&gt;Node7</title>
<path fill="none" stroke="#191970" d="M652.2988,-88.5C666.9992,-88.5 682.5579,-88.5 696.8334,-88.5"/>
<polygon fill="#191970" stroke="#191970" points="652.2851,-85.0001 642.2851,-88.5 652.285,-92.0001 652.2851,-85.0001"/>
</g>
<!-- Node9 -->
<g id="node9" class="node">
<title>Node9</title>
<g id="a_node9"><a xlink:href="../../dc/d13/classEicPndFieldMap.html#a5ab0a6fd16777bbac6f1d3b7ec0a3be4" target="_top" xlink:title="EicPndFieldMap::Initialize">
<polygon fill="none" stroke="#000000" points="678,-39.5 678,-59.5 822,-59.5 822,-39.5 678,-39.5"/>
<text text-anchor="middle" x="750" y="-46.5" font-family="FreeSans" font-size="10.00" fill="#000000">EicPndFieldMap::Initialize</text>
</a>
</g>
</g>
<!-- Node4&#45;&gt;Node9 -->
<g id="edge8" class="edge">
<title>Node4&#45;&gt;Node9</title>
<path fill="none" stroke="#191970" d="M641.3563,-76.0649C663.2198,-70.719 688.4334,-64.5539 709.064,-59.5094"/>
<polygon fill="#191970" stroke="#191970" points="640.4577,-72.6814 631.5752,-78.4565 642.1204,-79.4811 640.4577,-72.6814"/>
</g>
<!-- Node10 -->
<g id="node10" class="node">
<title>Node10</title>
<g id="a_node10"><a xlink:href="../../d1/de7/sf2root_8C.html#a2fbb3906fee1c82027ba1a9349758ae0" target="_top" xlink:title="sf2root">
<polygon fill="none" stroke="#000000" points="724,-.5 724,-20.5 776,-20.5 776,-.5 724,-.5"/>
<text text-anchor="middle" x="750" y="-7.5" font-family="FreeSans" font-size="10.00" fill="#000000">sf2root</text>
</a>
</g>
</g>
<!-- Node4&#45;&gt;Node10 -->
<g id="edge9" class="edge">
<title>Node4&#45;&gt;Node10</title>
<path fill="none" stroke="#191970" d="M611.2133,-72.0433C628.284,-59.1727 653.5741,-41.6477 678,-30.5 692.6348,-23.8209 709.9847,-18.9198 723.9859,-15.6413"/>
<polygon fill="#191970" stroke="#191970" points="608.8799,-69.4224 603.0837,-78.2912 613.1455,-74.9726 608.8799,-69.4224"/>
</g>
<!-- Node8 -->
<g id="node8" class="node">
<title>Node8</title>
<g id="a_node8"><a xlink:href="../../d0/d68/classPndFieldCreator.html#a1fdaf44c740ea14b1f2181986d28a92a" target="_top" xlink:title="PndFieldCreator::createFair\lField">
<polygon fill="none" stroke="#000000" points="858,-72.5 858,-104.5 1011,-104.5 1011,-72.5 858,-72.5"/>
<text text-anchor="start" x="866" y="-91.5" font-family="FreeSans" font-size="10.00" fill="#000000">PndFieldCreator::createFair</text>
<text text-anchor="middle" x="934.5" y="-79.5" font-family="FreeSans" font-size="10.00" fill="#000000">Field</text>
</a>
</g>
</g>
<!-- Node7&#45;&gt;Node8 -->
<g id="edge7" class="edge">
<title>Node7&#45;&gt;Node8</title>
<path fill="none" stroke="#191970" d="M813.5676,-88.5C827.8574,-88.5 843.1669,-88.5 857.9249,-88.5"/>
<polygon fill="#191970" stroke="#191970" points="813.3651,-85.0001 803.365,-88.5 813.365,-92.0001 813.3651,-85.0001"/>
</g>
</g>
</svg>
