<?xml version="1.0" encoding="UTF-8" standalone="no"?>
<!DOCTYPE svg PUBLIC "-//W3C//DTD SVG 1.1//EN"
 "http://www.w3.org/Graphics/SVG/1.1/DTD/svg11.dtd">
<!-- Generated by graphviz version 2.40.1 (20161225.0304)
 -->
<!-- Title: EicRoot/blob/master/field/PndFieldPar.cxx Pages: 1 -->
<svg width="1103pt" height="326pt"
 viewBox="0.00 0.00 1102.50 326.00" xmlns="http://www.w3.org/2000/svg" xmlns:xlink="http://www.w3.org/1999/xlink">
<g id="graph0" class="graph" transform="scale(1 1) rotate(0) translate(4 322)">
<title>EicRoot/blob/master/field/PndFieldPar.cxx</title>
<!-- Node1 -->
<g id="node1" class="node">
<title>Node1</title>
<polygon fill="#bfbfbf" stroke="#000000" points="267,-285.5 267,-317.5 391,-317.5 391,-285.5 267,-285.5"/>
<text text-anchor="start" x="275" y="-304.5" font-family="FreeSans" font-size="10.00" fill="#000000">EicRoot/blob/master</text>
<text text-anchor="middle" x="329" y="-292.5" font-family="FreeSans" font-size="10.00" fill="#000000">/field/PndFieldPar.cxx</text>
</g>
<!-- Node2 -->
<g id="node2" class="node">
<title>Node2</title>
<polygon fill="none" stroke="#bfbfbf" points="0,-114.5 0,-134.5 60,-134.5 60,-114.5 0,-114.5"/>
<text text-anchor="middle" x="30" y="-121.5" font-family="FreeSans" font-size="10.00" fill="#000000">iostream</text>
</g>
<!-- Node1&#45;&gt;Node2 -->
<g id="edge1" class="edge">
<title>Node1&#45;&gt;Node2</title>
<path fill="none" stroke="#191970" d="M266.807,-297.3268C195.9403,-291.2681 86.1493,-277.4896 57,-249 28.9185,-221.5541 26.8008,-172.2969 28.1406,-144.6816"/>
<polygon fill="#191970" stroke="#191970" points="31.6386,-144.8298 28.8324,-134.6134 24.655,-144.3499 31.6386,-144.8298"/>
</g>
<!-- Node3 -->
<g id="node3" class="node">
<title>Node3</title>
<g id="a_node3"><a xlink:href="../../d2/db2/PndConstField_8h.html" target="_top" xlink:title="PndConstField.h">
<polygon fill="none" stroke="#000000" points="174,-228.5 174,-248.5 270,-248.5 270,-228.5 174,-228.5"/>
<text text-anchor="middle" x="222" y="-235.5" font-family="FreeSans" font-size="10.00" fill="#000000">PndConstField.h</text>
</a>
</g>
</g>
<!-- Node1&#45;&gt;Node3 -->
<g id="edge2" class="edge">
<title>Node1&#45;&gt;Node3</title>
<path fill="none" stroke="#191970" d="M301.7225,-285.4394C285.2633,-275.7485 264.4048,-263.4673 248.1521,-253.898"/>
<polygon fill="#191970" stroke="#191970" points="249.5762,-250.6748 239.1831,-248.6171 246.0245,-256.7069 249.5762,-250.6748"/>
</g>
<!-- Node12 -->
<g id="node12" class="node">
<title>Node12</title>
<g id="a_node12"><a xlink:href="../../da/dcb/PndFieldMap_8h.html" target="_top" xlink:title="PndFieldMap.h">
<polygon fill="none" stroke="#000000" points="66.5,-228.5 66.5,-248.5 155.5,-248.5 155.5,-228.5 66.5,-228.5"/>
<text text-anchor="middle" x="111" y="-235.5" font-family="FreeSans" font-size="10.00" fill="#000000">PndFieldMap.h</text>
</a>
</g>
</g>
<!-- Node1&#45;&gt;Node12 -->
<g id="edge12" class="edge">
<title>Node1&#45;&gt;Node12</title>
<path fill="none" stroke="#191970" d="M273.4253,-285.4394C236.7994,-274.8549 189.4816,-261.1805 155.3757,-251.3242"/>
<polygon fill="#191970" stroke="#191970" points="156.2635,-247.9376 145.6849,-248.5236 154.32,-254.6624 156.2635,-247.9376"/>
</g>
<!-- Node13 -->
<g id="node13" class="node">
<title>Node13</title>
<g id="a_node13"><a xlink:href="../../de/dc6/PndFieldPar_8h.html" target="_top" xlink:title="PndFieldPar.h">
<polygon fill="none" stroke="#000000" points="288,-228.5 288,-248.5 370,-248.5 370,-228.5 288,-228.5"/>
<text text-anchor="middle" x="329" y="-235.5" font-family="FreeSans" font-size="10.00" fill="#000000">PndFieldPar.h</text>
</a>
</g>
</g>
<!-- Node1&#45;&gt;Node13 -->
<g id="edge14" class="edge">
<title>Node1&#45;&gt;Node13</title>
<path fill="none" stroke="#191970" d="M329,-285.2759C329,-277.2654 329,-267.5159 329,-258.9952"/>
<polygon fill="#191970" stroke="#191970" points="332.5001,-258.7512 329,-248.7513 325.5001,-258.7513 332.5001,-258.7512"/>
</g>
<!-- Node16 -->
<g id="node16" class="node">
<title>Node16</title>
<g id="a_node16"><a xlink:href="../../da/de2/FairParamList_8h.html" target="_top" xlink:title="FairParamList.h">
<polygon fill="none" stroke="#000000" points="505.5,-228.5 505.5,-248.5 598.5,-248.5 598.5,-228.5 505.5,-228.5"/>
<text text-anchor="middle" x="552" y="-235.5" font-family="FreeSans" font-size="10.00" fill="#000000">FairParamList.h</text>
</a>
</g>
</g>
<!-- Node1&#45;&gt;Node16 -->
<g id="edge20" class="edge">
<title>Node1&#45;&gt;Node16</title>
<path fill="none" stroke="#191970" d="M385.8493,-285.4394C423.3152,-274.8549 471.7184,-261.1805 506.6065,-251.3242"/>
<polygon fill="#191970" stroke="#191970" points="507.8478,-254.6105 516.5196,-248.5236 505.9447,-247.8742 507.8478,-254.6105"/>
</g>
<!-- Node25 -->
<g id="node25" class="node">
<title>Node25</title>
<g id="a_node25"><a xlink:href="../../d5/de3/PndMultiField_8h.html" target="_top" xlink:title="PndMultiField.h">
<polygon fill="none" stroke="#000000" points="791,-228.5 791,-248.5 883,-248.5 883,-228.5 791,-228.5"/>
<text text-anchor="middle" x="837" y="-235.5" font-family="FreeSans" font-size="10.00" fill="#000000">PndMultiField.h</text>
</a>
</g>
</g>
<!-- Node1&#45;&gt;Node25 -->
<g id="edge30" class="edge">
<title>Node1&#45;&gt;Node25</title>
<path fill="none" stroke="#191970" d="M391.0366,-293.8065C490.6335,-281.4549 684.716,-257.3856 780.6057,-245.4938"/>
<polygon fill="#191970" stroke="#191970" points="781.194,-248.9477 790.6872,-244.2435 780.3324,-242.0009 781.194,-248.9477"/>
</g>
<!-- Node26 -->
<g id="node26" class="node">
<title>Node26</title>
<polygon fill="none" stroke="#bfbfbf" points="1019.5,-171.5 1019.5,-191.5 1094.5,-191.5 1094.5,-171.5 1019.5,-171.5"/>
<text text-anchor="middle" x="1057" y="-178.5" font-family="FreeSans" font-size="10.00" fill="#000000">TObjArray.h</text>
</g>
<!-- Node1&#45;&gt;Node26 -->
<g id="edge34" class="edge">
<title>Node1&#45;&gt;Node26</title>
<path fill="none" stroke="#191970" d="M391.4032,-298.0071C517.4682,-290.5698 798.4493,-271.9579 892,-249 941.8498,-236.7666 996.3587,-212.055 1028.5691,-196.1668"/>
<polygon fill="#191970" stroke="#191970" points="1030.4399,-199.1447 1037.8198,-191.5429 1027.3101,-192.8833 1030.4399,-199.1447"/>
</g>
<!-- Node4 -->
<g id="node4" class="node">
<title>Node4</title>
<g id="a_node4"><a xlink:href="../../df/deb/FairField_8h.html" target="_top" xlink:title="FairField.h">
<polygon fill="none" stroke="#000000" points="79.5,-171.5 79.5,-191.5 146.5,-191.5 146.5,-171.5 79.5,-171.5"/>
<text text-anchor="middle" x="113" y="-178.5" font-family="FreeSans" font-size="10.00" fill="#000000">FairField.h</text>
</a>
</g>
</g>
<!-- Node3&#45;&gt;Node4 -->
<g id="edge3" class="edge">
<title>Node3&#45;&gt;Node4</title>
<path fill="none" stroke="#191970" d="M202.7639,-228.4408C185.7467,-219.5419 160.6911,-206.4394 141.3728,-196.3371"/>
<polygon fill="#191970" stroke="#191970" points="142.8939,-193.1829 132.4104,-191.6504 139.65,-199.386 142.8939,-193.1829"/>
</g>
<!-- Node4&#45;&gt;Node2 -->
<g id="edge11" class="edge">
<title>Node4&#45;&gt;Node2</title>
<path fill="none" stroke="#191970" d="M98.1613,-171.3095C85.6503,-162.7177 67.5331,-150.2758 53.1215,-140.3786"/>
<polygon fill="#191970" stroke="#191970" points="54.935,-137.3782 44.7103,-134.6022 50.9722,-143.1485 54.935,-137.3782"/>
</g>
<!-- Node5 -->
<g id="node5" class="node">
<title>Node5</title>
<g id="a_node5"><a xlink:href="../../d5/de4/FairLogger_8h.html" target="_top" xlink:title="FairLogger.h">
<polygon fill="none" stroke="#000000" points="144.5,-57.5 144.5,-77.5 221.5,-77.5 221.5,-57.5 144.5,-57.5"/>
<text text-anchor="middle" x="183" y="-64.5" font-family="FreeSans" font-size="10.00" fill="#000000">FairLogger.h</text>
</a>
</g>
</g>
<!-- Node4&#45;&gt;Node5 -->
<g id="edge4" class="edge">
<title>Node4&#45;&gt;Node5</title>
<path fill="none" stroke="#191970" d="M124.481,-171.3572C133.9425,-162.512 147.1914,-148.9441 156,-135 165.4539,-120.0344 172.653,-101.2071 177.2303,-87.2412"/>
<polygon fill="#191970" stroke="#191970" points="180.5844,-88.2418 180.2135,-77.6534 173.9005,-86.162 180.5844,-88.2418"/>
</g>
<!-- Node10 -->
<g id="node10" class="node">
<title>Node10</title>
<polygon fill="none" stroke="#bfbfbf" points="78.5,-114.5 78.5,-134.5 147.5,-134.5 147.5,-114.5 78.5,-114.5"/>
<text text-anchor="middle" x="113" y="-121.5" font-family="FreeSans" font-size="10.00" fill="#000000">RVersion.h</text>
</g>
<!-- Node4&#45;&gt;Node10 -->
<g id="edge9" class="edge">
<title>Node4&#45;&gt;Node10</title>
<path fill="none" stroke="#191970" d="M113,-171.3095C113,-163.9335 113,-153.72 113,-144.715"/>
<polygon fill="#191970" stroke="#191970" points="116.5001,-144.6022 113,-134.6022 109.5001,-144.6023 116.5001,-144.6022"/>
</g>
<!-- Node11 -->
<g id="node11" class="node">
<title>Node11</title>
<polygon fill="none" stroke="#bfbfbf" points="245.5,-57.5 245.5,-77.5 314.5,-77.5 314.5,-57.5 245.5,-57.5"/>
<text text-anchor="middle" x="280" y="-64.5" font-family="FreeSans" font-size="10.00" fill="#000000">TNamed.h</text>
</g>
<!-- Node4&#45;&gt;Node11 -->
<g id="edge10" class="edge">
<title>Node4&#45;&gt;Node11</title>
<path fill="none" stroke="#191970" d="M127.8201,-171.3833C156.8383,-151.5744 221.3632,-107.5275 256.3482,-83.6456"/>
<polygon fill="#191970" stroke="#191970" points="258.6872,-86.2867 264.973,-77.7579 254.7406,-80.5053 258.6872,-86.2867"/>
</g>
<!-- Node6 -->
<g id="node6" class="node">
<title>Node6</title>
<polygon fill="none" stroke="#bfbfbf" points="39,-.5 39,-20.5 99,-20.5 99,-.5 39,-.5"/>
<text text-anchor="middle" x="69" y="-7.5" font-family="FreeSans" font-size="10.00" fill="#000000">Rtypes.h</text>
</g>
<!-- Node5&#45;&gt;Node6 -->
<g id="edge5" class="edge">
<title>Node5&#45;&gt;Node6</title>
<path fill="none" stroke="#191970" d="M162.8815,-57.4408C145.0028,-48.5014 118.6404,-35.3202 98.3991,-25.1996"/>
<polygon fill="#191970" stroke="#191970" points="99.8104,-21.9921 89.3008,-20.6504 96.6798,-28.2531 99.8104,-21.9921"/>
</g>
<!-- Node7 -->
<g id="node7" class="node">
<title>Node7</title>
<polygon fill="none" stroke="#bfbfbf" points="117.5,-.5 117.5,-20.5 174.5,-20.5 174.5,-.5 117.5,-.5"/>
<text text-anchor="middle" x="146" y="-7.5" font-family="FreeSans" font-size="10.00" fill="#000000">ostream</text>
</g>
<!-- Node5&#45;&gt;Node7 -->
<g id="edge6" class="edge">
<title>Node5&#45;&gt;Node7</title>
<path fill="none" stroke="#191970" d="M176.3851,-57.3095C171.3341,-49.5282 164.2332,-38.589 158.166,-29.2423"/>
<polygon fill="#191970" stroke="#191970" points="160.9381,-27.0844 152.5576,-20.6022 155.0666,-30.8957 160.9381,-27.0844"/>
</g>
<!-- Node8 -->
<g id="node8" class="node">
<title>Node8</title>
<polygon fill="none" stroke="#bfbfbf" points="192.5,-.5 192.5,-20.5 247.5,-20.5 247.5,-.5 192.5,-.5"/>
<text text-anchor="middle" x="220" y="-7.5" font-family="FreeSans" font-size="10.00" fill="#000000">fstream</text>
</g>
<!-- Node5&#45;&gt;Node8 -->
<g id="edge7" class="edge">
<title>Node5&#45;&gt;Node8</title>
<path fill="none" stroke="#191970" d="M189.6149,-57.3095C194.6659,-49.5282 201.7668,-38.589 207.834,-29.2423"/>
<polygon fill="#191970" stroke="#191970" points="210.9334,-30.8957 213.4424,-20.6022 205.0619,-27.0844 210.9334,-30.8957"/>
</g>
<!-- Node9 -->
<g id="node9" class="node">
<title>Node9</title>
<polygon fill="none" stroke="#bfbfbf" points="265.5,-.5 265.5,-20.5 322.5,-20.5 322.5,-.5 265.5,-.5"/>
<text text-anchor="middle" x="294" y="-7.5" font-family="FreeSans" font-size="10.00" fill="#000000">iomanip</text>
</g>
<!-- Node5&#45;&gt;Node9 -->
<g id="edge8" class="edge">
<title>Node5&#45;&gt;Node9</title>
<path fill="none" stroke="#191970" d="M202.5891,-57.4408C219.9185,-48.5419 245.4338,-35.4394 265.1066,-25.3371"/>
<polygon fill="#191970" stroke="#191970" points="266.9366,-28.332 274.2334,-20.6504 263.7389,-22.105 266.9366,-28.332"/>
</g>
<!-- Node12&#45;&gt;Node4 -->
<g id="edge13" class="edge">
<title>Node12&#45;&gt;Node4</title>
<path fill="none" stroke="#191970" d="M111.3576,-228.3095C111.6164,-220.9335 111.9747,-210.72 112.2907,-201.715"/>
<polygon fill="#191970" stroke="#191970" points="115.7926,-201.7188 112.6455,-191.6022 108.7969,-201.4733 115.7926,-201.7188"/>
</g>
<!-- Node13&#45;&gt;Node4 -->
<g id="edge15" class="edge">
<title>Node13&#45;&gt;Node4</title>
<path fill="none" stroke="#191970" d="M290.8807,-228.4408C253.3344,-218.5327 196.0408,-203.4136 156.6792,-193.0265"/>
<polygon fill="#191970" stroke="#191970" points="157.3946,-189.5955 146.8325,-190.428 155.6085,-196.3638 157.3946,-189.5955"/>
</g>
<!-- Node14 -->
<g id="node14" class="node">
<title>Node14</title>
<g id="a_node14"><a xlink:href="../../d1/d65/FairParGenericSet_8h.html" target="_top" xlink:title="FairParGenericSet.h">
<polygon fill="none" stroke="#000000" points="164.5,-171.5 164.5,-191.5 279.5,-191.5 279.5,-171.5 164.5,-171.5"/>
<text text-anchor="middle" x="222" y="-178.5" font-family="FreeSans" font-size="10.00" fill="#000000">FairParGenericSet.h</text>
</a>
</g>
</g>
<!-- Node13&#45;&gt;Node14 -->
<g id="edge16" class="edge">
<title>Node13&#45;&gt;Node14</title>
<path fill="none" stroke="#191970" d="M309.8705,-228.3095C293.2094,-219.434 268.8358,-206.4499 249.9829,-196.4068"/>
<polygon fill="#191970" stroke="#191970" points="251.4352,-193.2148 240.9638,-191.6022 248.1441,-199.3929 251.4352,-193.2148"/>
</g>
<!-- Node15 -->
<g id="node15" class="node">
<title>Node15</title>
<g id="a_node15"><a xlink:href="../../df/dd2/FairParSet_8h.html" target="_top" xlink:title="FairParSet.h">
<polygon fill="none" stroke="#000000" points="242,-114.5 242,-134.5 318,-134.5 318,-114.5 242,-114.5"/>
<text text-anchor="middle" x="280" y="-121.5" font-family="FreeSans" font-size="10.00" fill="#000000">FairParSet.h</text>
</a>
</g>
</g>
<!-- Node14&#45;&gt;Node15 -->
<g id="edge17" class="edge">
<title>Node14&#45;&gt;Node15</title>
<path fill="none" stroke="#191970" d="M232.3692,-171.3095C240.6995,-163.1229 252.5864,-151.441 262.4011,-141.7955"/>
<polygon fill="#191970" stroke="#191970" points="265.0415,-144.1079 269.7205,-134.6022 260.1349,-139.1153 265.0415,-144.1079"/>
</g>
<!-- Node15&#45;&gt;Node5 -->
<g id="edge18" class="edge">
<title>Node15&#45;&gt;Node5</title>
<path fill="none" stroke="#191970" d="M262.6583,-114.3095C247.7612,-105.5556 226.0627,-92.8049 209.0728,-82.8211"/>
<polygon fill="#191970" stroke="#191970" points="210.5864,-79.651 200.1915,-77.6022 207.0399,-85.6862 210.5864,-79.651"/>
</g>
<!-- Node15&#45;&gt;Node11 -->
<g id="edge19" class="edge">
<title>Node15&#45;&gt;Node11</title>
<path fill="none" stroke="#191970" d="M280,-114.3095C280,-106.9335 280,-96.72 280,-87.715"/>
<polygon fill="#191970" stroke="#191970" points="283.5001,-87.6022 280,-77.6022 276.5001,-87.6023 283.5001,-87.6022"/>
</g>
<!-- Node16&#45;&gt;Node11 -->
<g id="edge21" class="edge">
<title>Node16&#45;&gt;Node11</title>
<path fill="none" stroke="#191970" d="M546.6678,-228.0819C538.8166,-213.6161 522.9008,-187.3818 503,-171 448.8536,-126.4283 372.3461,-96.4345 324.4887,-80.667"/>
<polygon fill="#191970" stroke="#191970" points="325.3213,-77.258 314.7296,-77.5182 323.1718,-83.9198 325.3213,-77.258"/>
</g>
<!-- Node17 -->
<g id="node17" class="node">
<title>Node17</title>
<polygon fill="none" stroke="#bfbfbf" points="550.5,-171.5 550.5,-191.5 613.5,-191.5 613.5,-171.5 550.5,-171.5"/>
<text text-anchor="middle" x="582" y="-178.5" font-family="FreeSans" font-size="10.00" fill="#000000">TString.h</text>
</g>
<!-- Node16&#45;&gt;Node17 -->
<g id="edge22" class="edge">
<title>Node16&#45;&gt;Node17</title>
<path fill="none" stroke="#191970" d="M557.3634,-228.3095C561.4162,-220.6093 567.0965,-209.8166 571.9817,-200.5349"/>
<polygon fill="#191970" stroke="#191970" points="575.1227,-202.0816 576.683,-191.6022 568.9283,-198.8213 575.1227,-202.0816"/>
</g>
<!-- Node18 -->
<g id="node18" class="node">
<title>Node18</title>
<polygon fill="none" stroke="#bfbfbf" points="632,-171.5 632,-191.5 694,-191.5 694,-171.5 632,-171.5"/>
<text text-anchor="middle" x="663" y="-178.5" font-family="FreeSans" font-size="10.00" fill="#000000">TArrayI.h</text>
</g>
<!-- Node16&#45;&gt;Node18 -->
<g id="edge23" class="edge">
<title>Node16&#45;&gt;Node18</title>
<path fill="none" stroke="#191970" d="M571.5891,-228.4408C588.9185,-219.5419 614.4338,-206.4394 634.1066,-196.3371"/>
<polygon fill="#191970" stroke="#191970" points="635.9366,-199.332 643.2334,-191.6504 632.7389,-193.105 635.9366,-199.332"/>
</g>
<!-- Node19 -->
<g id="node19" class="node">
<title>Node19</title>
<polygon fill="none" stroke="#bfbfbf" points="712,-171.5 712,-191.5 778,-191.5 778,-171.5 712,-171.5"/>
<text text-anchor="middle" x="745" y="-178.5" font-family="FreeSans" font-size="10.00" fill="#000000">TArrayC.h</text>
</g>
<!-- Node16&#45;&gt;Node19 -->
<g id="edge24" class="edge">
<title>Node16&#45;&gt;Node19</title>
<path fill="none" stroke="#191970" d="M586.0603,-228.4408C618.366,-218.8997 667.0335,-204.5264 701.9996,-194.1996"/>
<polygon fill="#191970" stroke="#191970" points="703.3259,-197.4574 711.925,-191.2683 701.3431,-190.7441 703.3259,-197.4574"/>
</g>
<!-- Node20 -->
<g id="node20" class="node">
<title>Node20</title>
<polygon fill="none" stroke="#bfbfbf" points="796.5,-171.5 796.5,-191.5 859.5,-191.5 859.5,-171.5 796.5,-171.5"/>
<text text-anchor="middle" x="828" y="-178.5" font-family="FreeSans" font-size="10.00" fill="#000000">TArrayF.h</text>
</g>
<!-- Node16&#45;&gt;Node20 -->
<g id="edge25" class="edge">
<title>Node16&#45;&gt;Node20</title>
<path fill="none" stroke="#191970" d="M598.5328,-230.0787C643.9243,-221.688 715.1451,-208.0581 786.231,-192.0833"/>
<polygon fill="#191970" stroke="#191970" points="787.2772,-195.4351 796.2579,-189.8139 785.732,-188.6078 787.2772,-195.4351"/>
</g>
<!-- Node21 -->
<g id="node21" class="node">
<title>Node21</title>
<polygon fill="none" stroke="#bfbfbf" points="877.5,-171.5 877.5,-191.5 944.5,-191.5 944.5,-171.5 877.5,-171.5"/>
<text text-anchor="middle" x="911" y="-178.5" font-family="FreeSans" font-size="10.00" fill="#000000">TArrayD.h</text>
</g>
<!-- Node16&#45;&gt;Node21 -->
<g id="edge26" class="edge">
<title>Node16&#45;&gt;Node21</title>
<path fill="none" stroke="#191970" d="M598.5476,-233.0321C658.3914,-225.6976 765.6943,-211.5192 867.1507,-192.0189"/>
<polygon fill="#191970" stroke="#191970" points="868.1161,-195.3968 877.2647,-190.0532 866.7806,-188.5254 868.1161,-195.3968"/>
</g>
<!-- Node22 -->
<g id="node22" class="node">
<title>Node22</title>
<polygon fill="none" stroke="#bfbfbf" points="298,-171.5 298,-191.5 348,-191.5 348,-171.5 298,-171.5"/>
<text text-anchor="middle" x="323" y="-178.5" font-family="FreeSans" font-size="10.00" fill="#000000">TList.h</text>
</g>
<!-- Node16&#45;&gt;Node22 -->
<g id="edge27" class="edge">
<title>Node16&#45;&gt;Node22</title>
<path fill="none" stroke="#191970" d="M506.0807,-228.4421C468.5967,-220.0309 414.0606,-207.3388 357.9486,-192.1444"/>
<polygon fill="#191970" stroke="#191970" points="358.766,-188.7396 348.1973,-189.4826 356.9226,-195.4925 358.766,-188.7396"/>
</g>
<!-- Node23 -->
<g id="node23" class="node">
<title>Node23</title>
<polygon fill="none" stroke="#bfbfbf" points="366,-171.5 366,-191.5 416,-191.5 416,-171.5 366,-171.5"/>
<text text-anchor="middle" x="391" y="-178.5" font-family="FreeSans" font-size="10.00" fill="#000000">TFile.h</text>
</g>
<!-- Node16&#45;&gt;Node23 -->
<g id="edge28" class="edge">
<title>Node16&#45;&gt;Node23</title>
<path fill="none" stroke="#191970" d="M523.587,-228.4408C496.3735,-218.8062 455.2424,-204.2442 426.0165,-193.8971"/>
<polygon fill="#191970" stroke="#191970" points="426.8125,-190.4662 416.2178,-190.428 424.4763,-197.0648 426.8125,-190.4662"/>
</g>
<!-- Node24 -->
<g id="node24" class="node">
<title>Node24</title>
<polygon fill="none" stroke="#bfbfbf" points="434,-171.5 434,-191.5 494,-191.5 494,-171.5 434,-171.5"/>
<text text-anchor="middle" x="464" y="-178.5" font-family="FreeSans" font-size="10.00" fill="#000000">TROOT.h</text>
</g>
<!-- Node16&#45;&gt;Node24 -->
<g id="edge29" class="edge">
<title>Node16&#45;&gt;Node24</title>
<path fill="none" stroke="#191970" d="M536.2674,-228.3095C522.8776,-219.6366 503.4312,-207.0407 488.0829,-197.0992"/>
<polygon fill="#191970" stroke="#191970" points="489.8924,-194.1011 479.5964,-191.6022 486.0868,-199.9764 489.8924,-194.1011"/>
</g>
<!-- Node25&#45;&gt;Node4 -->
<g id="edge31" class="edge">
<title>Node25&#45;&gt;Node4</title>
<path fill="none" stroke="#191970" d="M790.7757,-236.4171C661.3988,-230.4215 296.4989,-212.3382 156.8723,-192.0296"/>
<polygon fill="#191970" stroke="#191970" points="157.2329,-188.5443 146.8203,-190.5009 156.1804,-195.4647 157.2329,-188.5443"/>
</g>
<!-- Node25&#45;&gt;Node26 -->
<g id="edge32" class="edge">
<title>Node25&#45;&gt;Node26</title>
<path fill="none" stroke="#191970" d="M875.8252,-228.4408C913.1246,-218.7768 969.5579,-204.1555 1009.5158,-193.8027"/>
<polygon fill="#191970" stroke="#191970" points="1010.4954,-197.1646 1019.2979,-191.2683 1008.7397,-190.3883 1010.4954,-197.1646"/>
</g>
<!-- Node27 -->
<g id="node27" class="node">
<title>Node27</title>
<polygon fill="none" stroke="#bfbfbf" points="962.5,-171.5 962.5,-191.5 1001.5,-191.5 1001.5,-171.5 962.5,-171.5"/>
<text text-anchor="middle" x="982" y="-178.5" font-family="FreeSans" font-size="10.00" fill="#000000">map</text>
</g>
<!-- Node25&#45;&gt;Node27 -->
<g id="edge33" class="edge">
<title>Node25&#45;&gt;Node27</title>
<path fill="none" stroke="#191970" d="M862.5893,-228.4408C887.8215,-218.5219 926.3388,-203.3806 952.7647,-192.9925"/>
<polygon fill="#191970" stroke="#191970" points="954.2214,-196.1806 962.2477,-189.2647 951.6604,-189.6659 954.2214,-196.1806"/>
</g>
</g>
</svg>
