<?xml version="1.0" encoding="UTF-8" standalone="no"?>
<!DOCTYPE svg PUBLIC "-//W3C//DTD SVG 1.1//EN"
 "http://www.w3.org/Graphics/SVG/1.1/DTD/svg11.dtd">
<!-- Generated by graphviz version 2.40.1 (20161225.0304)
 -->
<!-- Title: FairDbValidityRecBuilder::IsExtendedContext Pages: 1 -->
<svg width="856pt" height="107pt"
 viewBox="0.00 0.00 856.00 107.36" xmlns="http://www.w3.org/2000/svg" xmlns:xlink="http://www.w3.org/1999/xlink">
<g id="graph0" class="graph" transform="scale(1 1) rotate(0) translate(4 103.3566)">
<title>FairDbValidityRecBuilder::IsExtendedContext</title>
<!-- Node1 -->
<g id="node1" class="node">
<title>Node1</title>
<polygon fill="#bfbfbf" stroke="#000000" points="0,-25.5 0,-57.5 140,-57.5 140,-25.5 0,-25.5"/>
<text text-anchor="start" x="8" y="-44.5" font-family="FreeSans" font-size="10.00" fill="#000000">FairDbValidityRecBuilder</text>
<text text-anchor="middle" x="70" y="-32.5" font-family="FreeSans" font-size="10.00" fill="#000000">::IsExtendedContext</text>
</g>
<!-- Node2 -->
<g id="node2" class="node">
<title>Node2</title>
<g id="a_node2"><a xlink:href="../../de/d9f/classFairDbValidityRecBuilder.html#a8cef61c8b075c3a43cefacdc94c12e7d" target="_top" xlink:title="FairDbValidityRecBuilder\l::GetL2CacheName">
<polygon fill="none" stroke="#000000" points="176,-51.5 176,-83.5 316,-83.5 316,-51.5 176,-51.5"/>
<text text-anchor="start" x="184" y="-70.5" font-family="FreeSans" font-size="10.00" fill="#000000">FairDbValidityRecBuilder</text>
<text text-anchor="middle" x="246" y="-58.5" font-family="FreeSans" font-size="10.00" fill="#000000">::GetL2CacheName</text>
</a>
</g>
</g>
<!-- Node1&#45;&gt;Node2 -->
<g id="edge1" class="edge">
<title>Node1&#45;&gt;Node2</title>
<path fill="none" stroke="#191970" d="M150.1006,-53.333C158.7058,-54.6043 167.4124,-55.8905 175.888,-57.1425"/>
<polygon fill="#191970" stroke="#191970" points="150.4697,-49.8497 140.0656,-51.8506 149.4467,-56.7745 150.4697,-49.8497"/>
</g>
<!-- Node6 -->
<g id="node6" class="node">
<title>Node6</title>
<g id="a_node6"><a xlink:href="../../de/d9f/classFairDbValidityRecBuilder.html#ab01718afbaff3781e2b93de1f611eed3" target="_top" xlink:title="FairDbValidityRecBuilder\l::NonAggregated">
<polygon fill="none" stroke="#000000" points="355,-.5 355,-32.5 495,-32.5 495,-.5 355,-.5"/>
<text text-anchor="start" x="363" y="-19.5" font-family="FreeSans" font-size="10.00" fill="#000000">FairDbValidityRecBuilder</text>
<text text-anchor="middle" x="425" y="-7.5" font-family="FreeSans" font-size="10.00" fill="#000000">::NonAggregated</text>
</a>
</g>
</g>
<!-- Node1&#45;&gt;Node6 -->
<g id="edge6" class="edge">
<title>Node1&#45;&gt;Node6</title>
<path fill="none" stroke="#191970" d="M150.1929,-35.8526C211.7126,-31.5202 295.8024,-25.5984 354.706,-21.4503"/>
<polygon fill="#191970" stroke="#191970" points="149.866,-32.3669 140.1366,-36.5608 150.3578,-39.3496 149.866,-32.3669"/>
</g>
<!-- Node3 -->
<g id="node3" class="node">
<title>Node3</title>
<g id="a_node3"><a xlink:href="../../da/dcf/classFairDbTableProxy.html#ad75a08a4e139462af72af1d3be9fd908" target="_top" xlink:title="FairDbTableProxy::Query">
<polygon fill="none" stroke="#000000" points="534,-57.5 534,-77.5 673,-77.5 673,-57.5 534,-57.5"/>
<text text-anchor="middle" x="603.5" y="-64.5" font-family="FreeSans" font-size="10.00" fill="#000000">FairDbTableProxy::Query</text>
</a>
</g>
</g>
<!-- Node2&#45;&gt;Node3 -->
<g id="edge2" class="edge">
<title>Node2&#45;&gt;Node3</title>
<path fill="none" stroke="#191970" d="M310.3327,-85.8949C323.9777,-89.0579 338.3764,-91.8536 352,-93.5 416.4202,-101.2852 433.5841,-101.3205 498,-93.5 523.0935,-90.4535 550.8228,-83.4726 571.5533,-77.5109"/>
<polygon fill="#191970" stroke="#191970" points="311.0938,-82.4782 300.5521,-83.5381 309.4539,-89.2834 311.0938,-82.4782"/>
</g>
<!-- Node5 -->
<g id="node5" class="node">
<title>Node5</title>
<g id="a_node5"><a xlink:href="../../da/dcf/classFairDbTableProxy.html#a1acf2c61ce1e9b66caf0dd55f199363f" target="_top" xlink:title="FairDbTableProxy::Restore\lFromL2Cache">
<polygon fill="none" stroke="#000000" points="352,-51.5 352,-83.5 498,-83.5 498,-51.5 352,-51.5"/>
<text text-anchor="start" x="360" y="-70.5" font-family="FreeSans" font-size="10.00" fill="#000000">FairDbTableProxy::Restore</text>
<text text-anchor="middle" x="425" y="-58.5" font-family="FreeSans" font-size="10.00" fill="#000000">FromL2Cache</text>
</a>
</g>
</g>
<!-- Node2&#45;&gt;Node5 -->
<g id="edge4" class="edge">
<title>Node2&#45;&gt;Node5</title>
<path fill="none" stroke="#191970" d="M326.4336,-67.5C334.858,-67.5 343.3906,-67.5 351.7288,-67.5"/>
<polygon fill="#191970" stroke="#191970" points="326.2318,-64.0001 316.2318,-67.5 326.2318,-71.0001 326.2318,-64.0001"/>
</g>
<!-- Node4 -->
<g id="node4" class="node">
<title>Node4</title>
<g id="a_node4"><a xlink:href="../../da/dcf/classFairDbTableProxy.html#a41685c7dbef8d48174f4483235bab4f9" target="_top" xlink:title="FairDbTableProxy::Query">
<polygon fill="none" stroke="#000000" points="709,-57.5 709,-77.5 848,-77.5 848,-57.5 709,-57.5"/>
<text text-anchor="middle" x="778.5" y="-64.5" font-family="FreeSans" font-size="10.00" fill="#000000">FairDbTableProxy::Query</text>
</a>
</g>
</g>
<!-- Node3&#45;&gt;Node4 -->
<g id="edge3" class="edge">
<title>Node3&#45;&gt;Node4</title>
<path fill="none" stroke="#191970" d="M683.4246,-67.5C691.8899,-67.5 700.4506,-67.5 708.7863,-67.5"/>
<polygon fill="#191970" stroke="#191970" points="683.1675,-64.0001 673.1675,-67.5 683.1674,-71.0001 683.1675,-64.0001"/>
</g>
<!-- Node5&#45;&gt;Node3 -->
<g id="edge5" class="edge">
<title>Node5&#45;&gt;Node3</title>
<path fill="none" stroke="#191970" d="M508.1835,-67.5C516.8041,-67.5 525.5006,-67.5 533.9491,-67.5"/>
<polygon fill="#191970" stroke="#191970" points="508.1178,-64.0001 498.1178,-67.5 508.1178,-71.0001 508.1178,-64.0001"/>
</g>
<!-- Node6&#45;&gt;Node3 -->
<g id="edge7" class="edge">
<title>Node6&#45;&gt;Node3</title>
<path fill="none" stroke="#191970" d="M491.3417,-35.4548C517.4896,-42.9256 546.4512,-51.2003 568.3939,-57.4697"/>
<polygon fill="#191970" stroke="#191970" points="492.0553,-32.0187 481.4785,-32.6367 490.1322,-38.7493 492.0553,-32.0187"/>
</g>
</g>
</svg>
