<?xml version="1.0" encoding="UTF-8" standalone="no"?>
<!DOCTYPE svg PUBLIC "-//W3C//DTD SVG 1.1//EN"
 "http://www.w3.org/Graphics/SVG/1.1/DTD/svg11.dtd">
<!-- Generated by graphviz version 2.40.1 (20161225.0304)
 -->
<!-- Title: FairDbValidityRecBuilder::FairDbValidityRecBuilder Pages: 1 -->
<svg width="1290pt" height="581pt"
 viewBox="0.00 0.00 1290.00 581.00" xmlns="http://www.w3.org/2000/svg" xmlns:xlink="http://www.w3.org/1999/xlink">
<g id="graph0" class="graph" transform="scale(1 1) rotate(0) translate(4 577)">
<title>FairDbValidityRecBuilder::FairDbValidityRecBuilder</title>
<!-- Node1 -->
<g id="node1" class="node">
<title>Node1</title>
<polygon fill="#bfbfbf" stroke="#000000" points="0,-325.5 0,-357.5 147,-357.5 147,-325.5 0,-325.5"/>
<text text-anchor="start" x="8" y="-344.5" font-family="FreeSans" font-size="10.00" fill="#000000">FairDbValidityRecBuilder</text>
<text text-anchor="middle" x="73.5" y="-332.5" font-family="FreeSans" font-size="10.00" fill="#000000">::FairDbValidityRecBuilder</text>
</g>
<!-- Node2 -->
<g id="node2" class="node">
<title>Node2</title>
<g id="a_node2"><a xlink:href="../../de/d9f/classFairDbValidityRecBuilder.html#af02fc56abb94a51e58989b3a507af477" target="_top" xlink:title="FairDbValidityRecBuilder\l::AddNewGap">
<polygon fill="none" stroke="#000000" points="188,-540.5 188,-572.5 328,-572.5 328,-540.5 188,-540.5"/>
<text text-anchor="start" x="196" y="-559.5" font-family="FreeSans" font-size="10.00" fill="#000000">FairDbValidityRecBuilder</text>
<text text-anchor="middle" x="258" y="-547.5" font-family="FreeSans" font-size="10.00" fill="#000000">::AddNewGap</text>
</a>
</g>
</g>
<!-- Node1&#45;&gt;Node2 -->
<g id="edge1" class="edge">
<title>Node1&#45;&gt;Node2</title>
<path fill="none" stroke="#191970" d="M78.372,-357.6099C90.1972,-394.0159 123.8785,-483.2134 183,-531.5 184.5547,-532.7698 186.1765,-533.976 187.8527,-535.1219"/>
<polygon fill="#191970" stroke="#191970" points="186.248,-538.2402 196.6281,-540.3626 189.8372,-532.2303 186.248,-538.2402"/>
</g>
<!-- Node5 -->
<g id="node5" class="node">
<title>Node5</title>
<g id="a_node5"><a xlink:href="../../dd/da1/classFairDbValidityRec.html#a5da26f8f3debf45ef674235f03bb3eed" target="_top" xlink:title="FairDbValidityRec::\lGetAggregateNo">
<polygon fill="none" stroke="#000000" points="203,-489.5 203,-521.5 313,-521.5 313,-489.5 203,-489.5"/>
<text text-anchor="start" x="211" y="-508.5" font-family="FreeSans" font-size="10.00" fill="#000000">FairDbValidityRec::</text>
<text text-anchor="middle" x="258" y="-496.5" font-family="FreeSans" font-size="10.00" fill="#000000">GetAggregateNo</text>
</a>
</g>
</g>
<!-- Node1&#45;&gt;Node5 -->
<g id="edge4" class="edge">
<title>Node1&#45;&gt;Node5</title>
<path fill="none" stroke="#191970" d="M83.0054,-357.5879C99.9321,-385.0055 137.7975,-441.0567 183,-474.5 188.203,-478.3495 193.9538,-481.8156 199.8881,-484.9121"/>
<polygon fill="#191970" stroke="#191970" points="198.7865,-488.2674 209.3123,-489.4756 201.8373,-481.9671 198.7865,-488.2674"/>
</g>
<!-- Node6 -->
<g id="node6" class="node">
<title>Node6</title>
<g id="a_node6"><a xlink:href="../../d9/dbd/classFairDbProxy.html#afceb8a1d7fc7066b2ace424a02be306f" target="_top" xlink:title="FairDbProxy::GetNumDb">
<polygon fill="none" stroke="#000000" points="756.5,-153.5 756.5,-173.5 894.5,-173.5 894.5,-153.5 756.5,-153.5"/>
<text text-anchor="middle" x="825.5" y="-160.5" font-family="FreeSans" font-size="10.00" fill="#000000">FairDbProxy::GetNumDb</text>
</a>
</g>
</g>
<!-- Node1&#45;&gt;Node6 -->
<g id="edge5" class="edge">
<title>Node1&#45;&gt;Node6</title>
<path fill="none" stroke="#191970" d="M85.0019,-357.8807C102.8061,-381.6362 139.5557,-424.6475 183,-441.5 245.1542,-465.6103 267.9929,-456.2824 333,-441.5 536.9107,-395.1315 742.4189,-233.4957 805.7273,-180.4833"/>
<polygon fill="#191970" stroke="#191970" points="808.3209,-182.8741 813.7017,-173.7473 803.8038,-177.5265 808.3209,-182.8741"/>
</g>
<!-- Node8 -->
<g id="node8" class="node">
<title>Node8</title>
<g id="a_node8"><a xlink:href="../../d0/dfc/classFairDbResultNonAgg.html#ae1f52ba66453d286f327150fddafee22" target="_top" xlink:title="FairDbResultNonAgg\l::GetNumRows">
<polygon fill="none" stroke="#000000" points="198.5,-399.5 198.5,-431.5 317.5,-431.5 317.5,-399.5 198.5,-399.5"/>
<text text-anchor="start" x="206.5" y="-418.5" font-family="FreeSans" font-size="10.00" fill="#000000">FairDbResultNonAgg</text>
<text text-anchor="middle" x="258" y="-406.5" font-family="FreeSans" font-size="10.00" fill="#000000">::GetNumRows</text>
</a>
</g>
</g>
<!-- Node1&#45;&gt;Node8 -->
<g id="edge7" class="edge">
<title>Node1&#45;&gt;Node8</title>
<path fill="none" stroke="#191970" d="M107.167,-357.6056C128.6401,-367.6177 157.1872,-380.4508 183,-390.5 187.7543,-392.3509 192.7092,-394.1914 197.7063,-395.9855"/>
<polygon fill="#191970" stroke="#191970" points="196.7313,-399.3527 207.3261,-399.3689 199.0539,-392.7492 196.7313,-399.3527"/>
</g>
<!-- Node9 -->
<g id="node9" class="node">
<title>Node9</title>
<g id="a_node9"><a xlink:href="../../de/d9f/classFairDbValidityRecBuilder.html#a7bd9bcb6d1040036d007428447e268d1" target="_top" xlink:title="FairDbValidityRecBuilder\l::GetNumValidityRec">
<polygon fill="none" stroke="#000000" points="188,-348.5 188,-380.5 328,-380.5 328,-348.5 188,-348.5"/>
<text text-anchor="start" x="196" y="-367.5" font-family="FreeSans" font-size="10.00" fill="#000000">FairDbValidityRecBuilder</text>
<text text-anchor="middle" x="258" y="-355.5" font-family="FreeSans" font-size="10.00" fill="#000000">::GetNumValidityRec</text>
</a>
</g>
</g>
<!-- Node1&#45;&gt;Node9 -->
<g id="edge8" class="edge">
<title>Node1&#45;&gt;Node9</title>
<path fill="none" stroke="#191970" d="M147.2147,-350.6894C157.2268,-351.9375 167.5427,-353.2235 177.6641,-354.4852"/>
<polygon fill="#191970" stroke="#191970" points="177.3459,-357.9726 187.7021,-355.7366 178.2119,-351.0263 177.3459,-357.9726"/>
</g>
<!-- Node10 -->
<g id="node10" class="node">
<title>Node10</title>
<g id="a_node10"><a xlink:href="../../d9/dbd/classFairDbProxy.html#ac98a02e2bb818992c98505f4a948447f" target="_top" xlink:title="FairDbProxy::GetTableName">
<polygon fill="none" stroke="#000000" points="371,-317.5 371,-337.5 527,-337.5 527,-317.5 371,-317.5"/>
<text text-anchor="middle" x="449" y="-324.5" font-family="FreeSans" font-size="10.00" fill="#000000">FairDbProxy::GetTableName</text>
</a>
</g>
</g>
<!-- Node1&#45;&gt;Node10 -->
<g id="edge9" class="edge">
<title>Node1&#45;&gt;Node10</title>
<path fill="none" stroke="#191970" d="M147.2387,-338.7508C208.4659,-336.468 295.7274,-333.2146 360.6772,-330.793"/>
<polygon fill="#191970" stroke="#191970" points="361.0396,-334.282 370.9022,-330.4118 360.7787,-327.2869 361.0396,-334.282"/>
</g>
<!-- Node11 -->
<g id="node11" class="node">
<title>Node11</title>
<g id="a_node11"><a xlink:href="../../d0/dfc/classFairDbResultNonAgg.html#a7f0025513532a748ee58bc3b8d6a42f1" target="_top" xlink:title="FairDbResultNonAgg\l::GetTableRow">
<polygon fill="none" stroke="#000000" points="198.5,-258.5 198.5,-290.5 317.5,-290.5 317.5,-258.5 198.5,-258.5"/>
<text text-anchor="start" x="206.5" y="-277.5" font-family="FreeSans" font-size="10.00" fill="#000000">FairDbResultNonAgg</text>
<text text-anchor="middle" x="258" y="-265.5" font-family="FreeSans" font-size="10.00" fill="#000000">::GetTableRow</text>
</a>
</g>
</g>
<!-- Node1&#45;&gt;Node11 -->
<g id="edge10" class="edge">
<title>Node1&#45;&gt;Node11</title>
<path fill="none" stroke="#191970" d="M117.6923,-325.4518C143.7265,-315.9977 176.8454,-303.9708 204.368,-293.9761"/>
<polygon fill="#191970" stroke="#191970" points="205.6441,-297.2364 213.8489,-290.5332 203.2548,-290.6568 205.6441,-297.2364"/>
</g>
<!-- Node12 -->
<g id="node12" class="node">
<title>Node12</title>
<g id="a_node12"><a xlink:href="../../de/d9f/classFairDbValidityRecBuilder.html#adf659e89f2124665cc7df71c25b7c427" target="_top" xlink:title="FairDbValidityRecBuilder\l::GetValidityRec">
<polygon fill="none" stroke="#000000" points="188,-207.5 188,-239.5 328,-239.5 328,-207.5 188,-207.5"/>
<text text-anchor="start" x="196" y="-226.5" font-family="FreeSans" font-size="10.00" fill="#000000">FairDbValidityRecBuilder</text>
<text text-anchor="middle" x="258" y="-214.5" font-family="FreeSans" font-size="10.00" fill="#000000">::GetValidityRec</text>
</a>
</g>
</g>
<!-- Node1&#45;&gt;Node12 -->
<g id="edge11" class="edge">
<title>Node1&#45;&gt;Node12</title>
<path fill="none" stroke="#191970" d="M88.7866,-325.4449C108.7696,-305.2634 145.6426,-270.7031 183,-249.5 186.6405,-247.4338 190.473,-245.4918 194.4006,-243.6737"/>
<polygon fill="#191970" stroke="#191970" points="195.9025,-246.8376 203.6922,-239.6562 193.1244,-240.4124 195.9025,-246.8376"/>
</g>
<!-- Node13 -->
<g id="node13" class="node">
<title>Node13</title>
<g id="a_node13"><a xlink:href="../../d9/dbd/classFairDbProxy.html#a24fb535b287864cf370bf9b6a6edd6f9" target="_top" xlink:title="FairDbProxy::QueryValidity">
<polygon fill="none" stroke="#000000" points="183,-168.5 183,-188.5 333,-188.5 333,-168.5 183,-168.5"/>
<text text-anchor="middle" x="258" y="-175.5" font-family="FreeSans" font-size="10.00" fill="#000000">FairDbProxy::QueryValidity</text>
</a>
</g>
</g>
<!-- Node1&#45;&gt;Node13 -->
<g id="edge12" class="edge">
<title>Node1&#45;&gt;Node13</title>
<path fill="none" stroke="#191970" d="M81.2491,-325.4093C96.4454,-295.6123 133.0784,-231.8496 183,-198.5 186.3704,-196.2484 189.9841,-194.2499 193.7375,-192.4759"/>
<polygon fill="#191970" stroke="#191970" points="195.3989,-195.5761 203.296,-188.5129 192.7179,-189.1098 195.3989,-195.5761"/>
</g>
<!-- Node22 -->
<g id="node22" class="node">
<title>Node22</title>
<g id="a_node22"><a xlink:href="../../d9/dbd/classFairDbProxy.html#a3b4a11d0f50c1a6b3100b481ac21f7ac" target="_top" xlink:title="FairDbProxy::TableExists">
<polygon fill="none" stroke="#000000" points="189,-87.5 189,-107.5 327,-107.5 327,-87.5 189,-87.5"/>
<text text-anchor="middle" x="258" y="-94.5" font-family="FreeSans" font-size="10.00" fill="#000000">FairDbProxy::TableExists</text>
</a>
</g>
</g>
<!-- Node1&#45;&gt;Node22 -->
<g id="edge22" class="edge">
<title>Node1&#45;&gt;Node22</title>
<path fill="none" stroke="#191970" d="M80.8343,-325.4743C96.5089,-292.2556 135.7233,-214.4121 183,-159.5 198.2524,-141.7843 218.9288,-125.1057 234.7094,-113.5191"/>
<polygon fill="#191970" stroke="#191970" points="236.8264,-116.3078 242.9071,-107.6316 232.743,-110.6221 236.8264,-116.3078"/>
</g>
<!-- Node3 -->
<g id="node3" class="node">
<title>Node3</title>
<g id="a_node3"><a xlink:href="../../de/d9f/classFairDbValidityRecBuilder.html#a39f95d670a572f9235c79ac947afc0e7" target="_top" xlink:title="FairDbValidityRecBuilder\l::AddNewAgg">
<polygon fill="none" stroke="#000000" points="379,-540.5 379,-572.5 519,-572.5 519,-540.5 379,-540.5"/>
<text text-anchor="start" x="387" y="-559.5" font-family="FreeSans" font-size="10.00" fill="#000000">FairDbValidityRecBuilder</text>
<text text-anchor="middle" x="449" y="-547.5" font-family="FreeSans" font-size="10.00" fill="#000000">::AddNewAgg</text>
</a>
</g>
</g>
<!-- Node2&#45;&gt;Node3 -->
<g id="edge2" class="edge">
<title>Node2&#45;&gt;Node3</title>
<path fill="none" stroke="#191970" d="M328.0368,-556.5C341.272,-556.5 355.2112,-556.5 368.7322,-556.5"/>
<polygon fill="#191970" stroke="#191970" points="368.9717,-560.0001 378.9717,-556.5 368.9716,-553.0001 368.9717,-560.0001"/>
</g>
<!-- Node4 -->
<g id="node4" class="node">
<title>Node4</title>
<g id="a_node4"><a xlink:href="../../de/d9f/classFairDbValidityRecBuilder.html#a628a27bcd74f78a94b08df90722ed179" target="_top" xlink:title="Get index of AggNo or &#45;1 if missing.">
<polygon fill="none" stroke="#000000" points="565,-540.5 565,-572.5 705,-572.5 705,-540.5 565,-540.5"/>
<text text-anchor="start" x="573" y="-559.5" font-family="FreeSans" font-size="10.00" fill="#000000">FairDbValidityRecBuilder</text>
<text text-anchor="middle" x="635" y="-547.5" font-family="FreeSans" font-size="10.00" fill="#000000">::IndexOfAggno</text>
</a>
</g>
</g>
<!-- Node3&#45;&gt;Node4 -->
<g id="edge3" class="edge">
<title>Node3&#45;&gt;Node4</title>
<path fill="none" stroke="#191970" d="M519.0536,-556.5C530.6025,-556.5 542.6551,-556.5 554.4365,-556.5"/>
<polygon fill="#191970" stroke="#191970" points="554.7006,-560.0001 564.7005,-556.5 554.7005,-553.0001 554.7006,-560.0001"/>
</g>
<!-- Node7 -->
<g id="node7" class="node">
<title>Node7</title>
<g id="a_node7"><a xlink:href="../../d4/d94/classFairDbMultConnector.html#a00e82f4de0cf48347c851be1b22ba1fd" target="_top" xlink:title="FairDbMultConnector\l::GetNumDb">
<polygon fill="none" stroke="#000000" points="1151.5,-124.5 1151.5,-156.5 1274.5,-156.5 1274.5,-124.5 1151.5,-124.5"/>
<text text-anchor="start" x="1159.5" y="-143.5" font-family="FreeSans" font-size="10.00" fill="#000000">FairDbMultConnector</text>
<text text-anchor="middle" x="1213" y="-131.5" font-family="FreeSans" font-size="10.00" fill="#000000">::GetNumDb</text>
</a>
</g>
</g>
<!-- Node6&#45;&gt;Node7 -->
<g id="edge6" class="edge">
<title>Node6&#45;&gt;Node7</title>
<path fill="none" stroke="#191970" d="M894.7772,-159.3881C964.2859,-155.2624 1070.8597,-148.9367 1141.2365,-144.7595"/>
<polygon fill="#191970" stroke="#191970" points="1141.5735,-148.2458 1151.3485,-144.1593 1141.1587,-141.2581 1141.5735,-148.2458"/>
</g>
<!-- Node13&#45;&gt;Node10 -->
<g id="edge16" class="edge">
<title>Node13&#45;&gt;Node10</title>
<path fill="none" stroke="#191970" d="M318.2521,-188.5482C323.6496,-191.161 328.6922,-194.4256 333,-198.5 370.3724,-233.8472 331.1465,-273.6685 369,-308.5 370.3361,-309.7294 371.7368,-310.8835 373.1926,-311.9669"/>
<polygon fill="#191970" stroke="#191970" points="371.7131,-315.1661 382.0636,-317.428 375.3828,-309.2051 371.7131,-315.1661"/>
</g>
<!-- Node14 -->
<g id="node14" class="node">
<title>Node14</title>
<g id="a_node14"><a xlink:href="../../dd/d71/classValContext.html#a7245d43141de2fa31710883aa99f25e5" target="_top" xlink:title="ValContext::GetDetector">
<polygon fill="none" stroke="#000000" points="378.5,-278.5 378.5,-298.5 519.5,-298.5 519.5,-278.5 378.5,-278.5"/>
<text text-anchor="middle" x="449" y="-285.5" font-family="FreeSans" font-size="10.00" fill="#000000">ValContext::GetDetector</text>
</a>
</g>
</g>
<!-- Node13&#45;&gt;Node14 -->
<g id="edge13" class="edge">
<title>Node13&#45;&gt;Node14</title>
<path fill="none" stroke="#191970" d="M316.1261,-188.5885C322.1971,-191.1788 327.9747,-194.4273 333,-198.5 360.4869,-220.7761 341.2103,-247.6029 369,-269.5 371.0113,-271.0848 373.1334,-272.5408 375.3411,-273.8782"/>
<polygon fill="#191970" stroke="#191970" points="373.7358,-276.9883 384.2264,-278.471 376.9501,-270.7699 373.7358,-276.9883"/>
</g>
<!-- Node15 -->
<g id="node15" class="node">
<title>Node15</title>
<g id="a_node15"><a xlink:href="../../d2/d87/classValTimeStamp.html#a5c282fbab835f86d8a8d6a91b62162d1" target="_top" xlink:title="Get (integral) seconds after the EPOCH.">
<polygon fill="none" stroke="#000000" points="382.5,-239.5 382.5,-259.5 515.5,-259.5 515.5,-239.5 382.5,-239.5"/>
<text text-anchor="middle" x="449" y="-246.5" font-family="FreeSans" font-size="10.00" fill="#000000">ValTimeStamp::GetSec</text>
</a>
</g>
</g>
<!-- Node13&#45;&gt;Node15 -->
<g id="edge14" class="edge">
<title>Node13&#45;&gt;Node15</title>
<path fill="none" stroke="#191970" d="M308.8611,-188.6034C317.185,-191.2234 325.5237,-194.4774 333,-198.5 351.8517,-208.6432 350.011,-220.6163 369,-230.5 373.0263,-232.5957 377.2866,-234.4639 381.6607,-236.1288"/>
<polygon fill="#191970" stroke="#191970" points="380.7767,-239.5257 391.3713,-239.4582 383.0471,-232.9041 380.7767,-239.5257"/>
</g>
<!-- Node16 -->
<g id="node16" class="node">
<title>Node16</title>
<g id="a_node16"><a xlink:href="../../dd/d71/classValContext.html#a5be59960e7b809fdcaab848767b85246" target="_top" xlink:title="ValContext::GetSimFlag">
<polygon fill="none" stroke="#000000" points="380.5,-200.5 380.5,-220.5 517.5,-220.5 517.5,-200.5 380.5,-200.5"/>
<text text-anchor="middle" x="449" y="-207.5" font-family="FreeSans" font-size="10.00" fill="#000000">ValContext::GetSimFlag</text>
</a>
</g>
</g>
<!-- Node13&#45;&gt;Node16 -->
<g id="edge15" class="edge">
<title>Node13&#45;&gt;Node16</title>
<path fill="none" stroke="#191970" d="M317.9095,-188.5372C337.3763,-191.7987 359.1455,-195.4458 379.2655,-198.8167"/>
<polygon fill="#191970" stroke="#191970" points="378.8621,-202.2979 389.303,-200.4984 380.0188,-195.3941 378.8621,-202.2979"/>
</g>
<!-- Node17 -->
<g id="node17" class="node">
<title>Node17</title>
<g id="a_node17"><a xlink:href="../../d5/dcb/namespaceFairDb.html#ac1ee17448e5df87fc7bbe741d6dad01e" target="_top" xlink:title="FairDb::GetTimeGate">
<polygon fill="none" stroke="#000000" points="388,-161.5 388,-181.5 510,-181.5 510,-161.5 388,-161.5"/>
<text text-anchor="middle" x="449" y="-168.5" font-family="FreeSans" font-size="10.00" fill="#000000">FairDb::GetTimeGate</text>
</a>
</g>
</g>
<!-- Node13&#45;&gt;Node17 -->
<g id="edge17" class="edge">
<title>Node13&#45;&gt;Node17</title>
<path fill="none" stroke="#191970" d="M333.2141,-175.7435C347.8307,-175.2078 363.112,-174.6477 377.6013,-174.1167"/>
<polygon fill="#191970" stroke="#191970" points="378.1259,-177.5999 387.991,-173.7359 377.8694,-170.6046 378.1259,-177.5999"/>
</g>
<!-- Node19 -->
<g id="node19" class="node">
<title>Node19</title>
<g id="a_node19"><a xlink:href="../../dd/d71/classValContext.html#a7ed9b7e0653d2906ced11408472e3d88" target="_top" xlink:title="ValContext::GetTimeStamp">
<polygon fill="none" stroke="#000000" points="372,-122.5 372,-142.5 526,-142.5 526,-122.5 372,-122.5"/>
<text text-anchor="middle" x="449" y="-129.5" font-family="FreeSans" font-size="10.00" fill="#000000">ValContext::GetTimeStamp</text>
</a>
</g>
</g>
<!-- Node13&#45;&gt;Node19 -->
<g id="edge19" class="edge">
<title>Node13&#45;&gt;Node19</title>
<path fill="none" stroke="#191970" d="M299.9158,-168.4051C328.5271,-161.5144 366.6257,-152.3388 397.1466,-144.9883"/>
<polygon fill="#191970" stroke="#191970" points="398.2795,-148.3156 407.182,-142.5713 396.6405,-141.5101 398.2795,-148.3156"/>
</g>
<!-- Node20 -->
<g id="node20" class="node">
<title>Node20</title>
<g id="a_node20"><a xlink:href="../../d5/dcb/namespaceFairDb.html#a72a84c9a167a58500aeb7de4e776939a" target="_top" xlink:title="FairDb::MakeDateTimeString">
<polygon fill="none" stroke="#000000" points="369,-83.5 369,-103.5 529,-103.5 529,-83.5 369,-83.5"/>
<text text-anchor="middle" x="449" y="-90.5" font-family="FreeSans" font-size="10.00" fill="#000000">FairDb::MakeDateTimeString</text>
</a>
</g>
</g>
<!-- Node13&#45;&gt;Node20 -->
<g id="edge20" class="edge">
<title>Node13&#45;&gt;Node20</title>
<path fill="none" stroke="#191970" d="M271.9898,-168.2677C292.355,-153.8302 331.8029,-127.5647 369,-112.5 374.7308,-110.179 380.8124,-108.0996 386.9621,-106.2463"/>
<polygon fill="#191970" stroke="#191970" points="387.9659,-109.5998 396.6413,-103.518 386.0668,-102.8623 387.9659,-109.5998"/>
</g>
<!-- Node18 -->
<g id="node18" class="node">
<title>Node18</title>
<g id="a_node18"><a xlink:href="../../d5/dcb/namespaceFairDb.html#a83273bdd1df5e66bb44c81cb1236dcf7" target="_top" xlink:title="FairDb::SetTimeGate">
<polygon fill="none" stroke="#000000" points="574.5,-161.5 574.5,-181.5 695.5,-181.5 695.5,-161.5 574.5,-161.5"/>
<text text-anchor="middle" x="635" y="-168.5" font-family="FreeSans" font-size="10.00" fill="#000000">FairDb::SetTimeGate</text>
</a>
</g>
</g>
<!-- Node17&#45;&gt;Node18 -->
<g id="edge18" class="edge">
<title>Node17&#45;&gt;Node18</title>
<path fill="none" stroke="#191970" d="M510.161,-171.5C527.4207,-171.5 546.3442,-171.5 564.1227,-171.5"/>
<polygon fill="#191970" stroke="#191970" points="564.4369,-175.0001 574.4369,-171.5 564.4369,-168.0001 564.4369,-175.0001"/>
</g>
<!-- Node21 -->
<g id="node21" class="node">
<title>Node21</title>
<g id="a_node21"><a xlink:href="../../d2/d87/classValTimeStamp.html#a1558560608010aa1b1f77de84fb66484" target="_top" xlink:title="ValTimeStamp::AsString">
<polygon fill="none" stroke="#000000" points="565.5,-83.5 565.5,-103.5 704.5,-103.5 704.5,-83.5 565.5,-83.5"/>
<text text-anchor="middle" x="635" y="-90.5" font-family="FreeSans" font-size="10.00" fill="#000000">ValTimeStamp::AsString</text>
</a>
</g>
</g>
<!-- Node20&#45;&gt;Node21 -->
<g id="edge21" class="edge">
<title>Node20&#45;&gt;Node21</title>
<path fill="none" stroke="#191970" d="M529.2303,-93.5C537.8519,-93.5 546.6227,-93.5 555.2388,-93.5"/>
<polygon fill="#191970" stroke="#191970" points="555.2641,-97.0001 565.264,-93.5 555.264,-90.0001 555.2641,-97.0001"/>
</g>
<!-- Node23 -->
<g id="node23" class="node">
<title>Node23</title>
<g id="a_node23"><a xlink:href="../../d4/d94/classFairDbMultConnector.html#a59fdbb822f0b8008d3871140532adb73" target="_top" xlink:title="FairDbMultConnector\l::TableExists">
<polygon fill="none" stroke="#000000" points="387.5,-32.5 387.5,-64.5 510.5,-64.5 510.5,-32.5 387.5,-32.5"/>
<text text-anchor="start" x="395.5" y="-51.5" font-family="FreeSans" font-size="10.00" fill="#000000">FairDbMultConnector</text>
<text text-anchor="middle" x="449" y="-39.5" font-family="FreeSans" font-size="10.00" fill="#000000">::TableExists</text>
</a>
</g>
</g>
<!-- Node22&#45;&gt;Node23 -->
<g id="edge23" class="edge">
<title>Node22&#45;&gt;Node23</title>
<path fill="none" stroke="#191970" d="M297.1126,-87.4659C320.2468,-81.5309 350.2589,-73.8315 377.4888,-66.8458"/>
<polygon fill="#191970" stroke="#191970" points="378.5606,-70.1843 387.3772,-64.309 376.8211,-63.4038 378.5606,-70.1843"/>
</g>
<!-- Node24 -->
<g id="node24" class="node">
<title>Node24</title>
<g id="a_node24"><a xlink:href="../../d4/d94/classFairDbMultConnector.html#aba6e4c35274a2c808df899c8fcded74f" target="_top" xlink:title="FairDbMultConnector\l::GetTableDbNo">
<polygon fill="none" stroke="#000000" points="573.5,-32.5 573.5,-64.5 696.5,-64.5 696.5,-32.5 573.5,-32.5"/>
<text text-anchor="start" x="581.5" y="-51.5" font-family="FreeSans" font-size="10.00" fill="#000000">FairDbMultConnector</text>
<text text-anchor="middle" x="635" y="-39.5" font-family="FreeSans" font-size="10.00" fill="#000000">::GetTableDbNo</text>
</a>
</g>
</g>
<!-- Node23&#45;&gt;Node24 -->
<g id="edge24" class="edge">
<title>Node23&#45;&gt;Node24</title>
<path fill="none" stroke="#191970" d="M510.677,-48.5C527.5611,-48.5 546.0048,-48.5 563.3934,-48.5"/>
<polygon fill="#191970" stroke="#191970" points="563.49,-52.0001 573.4899,-48.5 563.4899,-45.0001 563.49,-52.0001"/>
</g>
<!-- Node25 -->
<g id="node25" class="node">
<title>Node25</title>
<g id="a_node25"><a xlink:href="../../d4/d94/classFairDbMultConnector.html#a6005a6b3b3fd6972465b2114be01aa5a" target="_top" xlink:title="Return associated FairDbConnection. FairDbMultConnector retains ownership.">
<polygon fill="none" stroke="#000000" points="764,-92.5 764,-124.5 887,-124.5 887,-92.5 764,-92.5"/>
<text text-anchor="start" x="772" y="-111.5" font-family="FreeSans" font-size="10.00" fill="#000000">FairDbMultConnector</text>
<text text-anchor="middle" x="825.5" y="-99.5" font-family="FreeSans" font-size="10.00" fill="#000000">::GetConnection</text>
</a>
</g>
</g>
<!-- Node24&#45;&gt;Node25 -->
<g id="edge25" class="edge">
<title>Node24&#45;&gt;Node25</title>
<path fill="none" stroke="#191970" d="M685.8003,-64.5001C710.1361,-72.1649 739.4622,-81.4015 764.949,-89.4288"/>
<polygon fill="#191970" stroke="#191970" points="763.9211,-92.7745 774.5106,-92.4404 766.024,-86.0978 763.9211,-92.7745"/>
</g>
<!-- Node27 -->
<g id="node27" class="node">
<title>Node27</title>
<g id="a_node27"><a xlink:href="../../d0/d86/classFairDbConnection.html#ae81828fb1608f58fe2fc780466819bae" target="_top" xlink:title="FairDbConnection::TableExists">
<polygon fill="none" stroke="#000000" points="741,-38.5 741,-58.5 910,-58.5 910,-38.5 741,-38.5"/>
<text text-anchor="middle" x="825.5" y="-45.5" font-family="FreeSans" font-size="10.00" fill="#000000">FairDbConnection::TableExists</text>
</a>
</g>
</g>
<!-- Node24&#45;&gt;Node27 -->
<g id="edge28" class="edge">
<title>Node24&#45;&gt;Node27</title>
<path fill="none" stroke="#191970" d="M696.5868,-48.5C707.5168,-48.5 719.1255,-48.5 730.7249,-48.5"/>
<polygon fill="#191970" stroke="#191970" points="730.8985,-52.0001 740.8985,-48.5 730.8985,-45.0001 730.8985,-52.0001"/>
</g>
<!-- Node26 -->
<g id="node26" class="node">
<title>Node26</title>
<g id="a_node26"><a xlink:href="../../d4/d94/classFairDbMultConnector.html#a2399ff488644824095dccd650220143b" target="_top" xlink:title="FairDbMultConnector\l::GetStatus">
<polygon fill="none" stroke="#000000" points="965.5,-97.5 965.5,-129.5 1088.5,-129.5 1088.5,-97.5 965.5,-97.5"/>
<text text-anchor="start" x="973.5" y="-116.5" font-family="FreeSans" font-size="10.00" fill="#000000">FairDbMultConnector</text>
<text text-anchor="middle" x="1027" y="-104.5" font-family="FreeSans" font-size="10.00" fill="#000000">::GetStatus</text>
</a>
</g>
</g>
<!-- Node25&#45;&gt;Node26 -->
<g id="edge26" class="edge">
<title>Node25&#45;&gt;Node26</title>
<path fill="none" stroke="#191970" d="M887.0515,-110.0273C908.6302,-110.5628 933.0511,-111.1688 955.3827,-111.7229"/>
<polygon fill="#191970" stroke="#191970" points="955.3947,-115.2242 965.4785,-111.9734 955.5684,-108.2263 955.3947,-115.2242"/>
</g>
<!-- Node26&#45;&gt;Node7 -->
<g id="edge27" class="edge">
<title>Node26&#45;&gt;Node7</title>
<path fill="none" stroke="#191970" d="M1088.677,-122.4531C1105.5611,-124.904 1124.0048,-127.5813 1141.3934,-130.1055"/>
<polygon fill="#191970" stroke="#191970" points="1141.0908,-133.5982 1151.4899,-131.5711 1142.0965,-126.6708 1141.0908,-133.5982"/>
</g>
<!-- Node28 -->
<g id="node28" class="node">
<title>Node28</title>
<g id="a_node28"><a xlink:href="../../d2/d4d/namespaceActs_1_1EventDataVisualization.html#a36922d6a1c11ca7f996df32159e06786" target="_top" xlink:title="Acts::EventDataVisualization\l::test">
<polygon fill="none" stroke="#000000" points="946,-32.5 946,-64.5 1108,-64.5 1108,-32.5 946,-32.5"/>
<text text-anchor="start" x="954" y="-51.5" font-family="FreeSans" font-size="10.00" fill="#000000">Acts::EventDataVisualization</text>
<text text-anchor="middle" x="1027" y="-39.5" font-family="FreeSans" font-size="10.00" fill="#000000">::test</text>
</a>
</g>
</g>
<!-- Node27&#45;&gt;Node28 -->
<g id="edge29" class="edge">
<title>Node27&#45;&gt;Node28</title>
<path fill="none" stroke="#191970" d="M910.0783,-48.5C918.5934,-48.5 927.2667,-48.5 935.8463,-48.5"/>
<polygon fill="#191970" stroke="#191970" points="935.86,-52.0001 945.86,-48.5 935.8599,-45.0001 935.86,-52.0001"/>
</g>
<!-- Node29 -->
<g id="node29" class="node">
<title>Node29</title>
<g id="a_node29"><a xlink:href="../../d5/dca/namespaceActs_1_1Visualization.html#a2083c6d556b3314f23bad61b967548d8" target="_top" xlink:title="Acts::Visualization\l::drawBoundParameters">
<polygon fill="none" stroke="#000000" points="1144,-51.5 1144,-83.5 1282,-83.5 1282,-51.5 1144,-51.5"/>
<text text-anchor="start" x="1152" y="-70.5" font-family="FreeSans" font-size="10.00" fill="#000000">Acts::Visualization</text>
<text text-anchor="middle" x="1213" y="-58.5" font-family="FreeSans" font-size="10.00" fill="#000000">::drawBoundParameters</text>
</a>
</g>
</g>
<!-- Node28&#45;&gt;Node29 -->
<g id="edge30" class="edge">
<title>Node28&#45;&gt;Node29</title>
<path fill="none" stroke="#191970" d="M1108.0412,-56.7784C1116.6256,-57.6553 1125.3481,-58.5463 1133.9097,-59.4209"/>
<polygon fill="#191970" stroke="#191970" points="1133.5646,-62.9038 1143.8685,-60.4382 1134.276,-55.94 1133.5646,-62.9038"/>
</g>
<!-- Node30 -->
<g id="node30" class="node">
<title>Node30</title>
<g id="a_node30"><a xlink:href="../../dc/db0/classActs_1_1IVisualization.html#a34a61f4076cf5a963b6df0613a233232" target="_top" xlink:title="Acts::IVisualization\l::write">
<polygon fill="none" stroke="#000000" points="1157,-.5 1157,-32.5 1269,-32.5 1269,-.5 1157,-.5"/>
<text text-anchor="start" x="1165" y="-19.5" font-family="FreeSans" font-size="10.00" fill="#000000">Acts::IVisualization</text>
<text text-anchor="middle" x="1213" y="-7.5" font-family="FreeSans" font-size="10.00" fill="#000000">::write</text>
</a>
</g>
</g>
<!-- Node28&#45;&gt;Node30 -->
<g id="edge31" class="edge">
<title>Node28&#45;&gt;Node30</title>
<path fill="none" stroke="#191970" d="M1108.0412,-34.5574C1121.0187,-32.3247 1134.312,-30.0377 1146.8877,-27.8742"/>
<polygon fill="#191970" stroke="#191970" points="1147.5379,-31.3138 1156.7996,-26.1689 1146.3509,-24.4152 1147.5379,-31.3138"/>
</g>
</g>
</svg>
