<?xml version="1.0" encoding="UTF-8" standalone="no"?>
<!DOCTYPE svg PUBLIC "-//W3C//DTD SVG 1.1//EN"
 "http://www.w3.org/Graphics/SVG/1.1/DTD/svg11.dtd">
<!-- Generated by graphviz version 2.40.1 (20161225.0304)
 -->
<!-- Title: RawTowerContainer::size Pages: 1 -->
<svg width="570pt" height="602pt"
 viewBox="0.00 0.00 570.00 602.00" xmlns="http://www.w3.org/2000/svg" xmlns:xlink="http://www.w3.org/1999/xlink">
<g id="graph0" class="graph" transform="scale(1 1) rotate(0) translate(4 598)">
<title>RawTowerContainer::size</title>
<!-- Node1 -->
<g id="node1" class="node">
<title>Node1</title>
<polygon fill="#bfbfbf" stroke="#000000" points="0,-286.5 0,-306.5 142,-306.5 142,-286.5 0,-286.5"/>
<text text-anchor="middle" x="71" y="-293.5" font-family="FreeSans" font-size="10.00" fill="#000000">RawTowerContainer::size</text>
</g>
<!-- Node2 -->
<g id="node2" class="node">
<title>Node2</title>
<g id="a_node2"><a xlink:href="../../d4/dac/classRawClusterBuilderTopo.html#aa745aaad63bfb2a96455fefc62a5f202" target="_top" xlink:title="RawClusterBuilderTopo\l::process_event">
<polygon fill="none" stroke="#000000" points="199,-561.5 199,-593.5 331,-593.5 331,-561.5 199,-561.5"/>
<text text-anchor="start" x="207" y="-580.5" font-family="FreeSans" font-size="10.00" fill="#000000">RawClusterBuilderTopo</text>
<text text-anchor="middle" x="265" y="-568.5" font-family="FreeSans" font-size="10.00" fill="#000000">::process_event</text>
</a>
</g>
</g>
<!-- Node1&#45;&gt;Node2 -->
<g id="edge1" class="edge">
<title>Node1&#45;&gt;Node2</title>
<path fill="none" stroke="#191970" d="M73.4942,-316.6951C80.5368,-364.9133 105.0516,-487.5637 178,-552.5 184.104,-557.9335 191.3178,-562.1912 198.9387,-565.5265"/>
<polygon fill="#191970" stroke="#191970" points="76.9372,-316.0385 72.1214,-306.6015 70.0011,-316.982 76.9372,-316.0385"/>
</g>
<!-- Node3 -->
<g id="node3" class="node">
<title>Node3</title>
<g id="a_node3"><a xlink:href="../../de/dcb/classClusterIso.html#a6aa03ee56ec17554e0603b71e741dfbd" target="_top" xlink:title="ClusterIso::process\l_event">
<polygon fill="none" stroke="#000000" points="209,-510.5 209,-542.5 321,-542.5 321,-510.5 209,-510.5"/>
<text text-anchor="start" x="217" y="-529.5" font-family="FreeSans" font-size="10.00" fill="#000000">ClusterIso::process</text>
<text text-anchor="middle" x="265" y="-517.5" font-family="FreeSans" font-size="10.00" fill="#000000">_event</text>
</a>
</g>
</g>
<!-- Node1&#45;&gt;Node3 -->
<g id="edge2" class="edge">
<title>Node1&#45;&gt;Node3</title>
<path fill="none" stroke="#191970" d="M75.8294,-316.7853C86.7007,-357.977 117.0435,-451.7231 178,-501.5 186.8859,-508.7562 197.7784,-513.907 208.8106,-517.563"/>
<polygon fill="#191970" stroke="#191970" points="79.1637,-315.6937 73.3217,-306.8551 72.3768,-317.4077 79.1637,-315.6937"/>
</g>
<!-- Node4 -->
<g id="node4" class="node">
<title>Node4</title>
<g id="a_node4"><a xlink:href="../../d7/d13/classSubtractTowers.html#aedd08ed4cf426a16877bb266cbcc8189" target="_top" xlink:title="SubtractTowers::process\l_event">
<polygon fill="none" stroke="#000000" points="195.5,-459.5 195.5,-491.5 334.5,-491.5 334.5,-459.5 195.5,-459.5"/>
<text text-anchor="start" x="203.5" y="-478.5" font-family="FreeSans" font-size="10.00" fill="#000000">SubtractTowers::process</text>
<text text-anchor="middle" x="265" y="-466.5" font-family="FreeSans" font-size="10.00" fill="#000000">_event</text>
</a>
</g>
</g>
<!-- Node1&#45;&gt;Node4 -->
<g id="edge3" class="edge">
<title>Node1&#45;&gt;Node4</title>
<path fill="none" stroke="#191970" d="M79.1804,-315.9429C93.9769,-348.7299 128.3291,-414.9125 178,-450.5 183.2377,-454.2527 189.0293,-457.4445 195.063,-460.159"/>
<polygon fill="#191970" stroke="#191970" points="82.2858,-314.309 75.0688,-306.5523 75.8735,-317.1166 82.2858,-314.309"/>
</g>
<!-- Node5 -->
<g id="node5" class="node">
<title>Node5</title>
<g id="a_node5"><a xlink:href="../../da/dda/classSubtractTowersCS.html#ab15f45c558239c3cf38797472457e361" target="_top" xlink:title="SubtractTowersCS::process\l_event">
<polygon fill="none" stroke="#000000" points="188.5,-408.5 188.5,-440.5 341.5,-440.5 341.5,-408.5 188.5,-408.5"/>
<text text-anchor="start" x="196.5" y="-427.5" font-family="FreeSans" font-size="10.00" fill="#000000">SubtractTowersCS::process</text>
<text text-anchor="middle" x="265" y="-415.5" font-family="FreeSans" font-size="10.00" fill="#000000">_event</text>
</a>
</g>
</g>
<!-- Node1&#45;&gt;Node5 -->
<g id="edge4" class="edge">
<title>Node1&#45;&gt;Node5</title>
<path fill="none" stroke="#191970" d="M85.0044,-314.6155C103.753,-337.6507 139.1794,-377.1135 178,-399.5 183.854,-402.8758 190.196,-405.8229 196.6969,-408.39"/>
<polygon fill="#191970" stroke="#191970" points="87.6336,-312.2988 78.6632,-306.6612 82.1601,-316.6623 87.6336,-312.2988"/>
</g>
<!-- Node6 -->
<g id="node6" class="node">
<title>Node6</title>
<g id="a_node6"><a xlink:href="../../dc/d23/classRetowerCEMC.html#aa4b7de8ff434e1ef9226bf4768028956" target="_top" xlink:title="RetowerCEMC::process\l_event">
<polygon fill="none" stroke="#000000" points="199,-357.5 199,-389.5 331,-389.5 331,-357.5 199,-357.5"/>
<text text-anchor="start" x="207" y="-376.5" font-family="FreeSans" font-size="10.00" fill="#000000">RetowerCEMC::process</text>
<text text-anchor="middle" x="265" y="-364.5" font-family="FreeSans" font-size="10.00" fill="#000000">_event</text>
</a>
</g>
</g>
<!-- Node1&#45;&gt;Node6 -->
<g id="edge5" class="edge">
<title>Node1&#45;&gt;Node6</title>
<path fill="none" stroke="#191970" d="M98.2119,-311.346C119.4989,-322.5586 150.0711,-337.7927 178,-348.5 186.3642,-351.7066 195.3168,-354.7247 204.1811,-357.4792"/>
<polygon fill="#191970" stroke="#191970" points="99.5992,-308.1194 89.1276,-306.5079 96.3087,-314.2978 99.5992,-308.1194"/>
</g>
<!-- Node7 -->
<g id="node7" class="node">
<title>Node7</title>
<g id="a_node7"><a xlink:href="../../d9/d8f/classCaloTriggerSim.html#ad6da1c0736e58679dbf1681e4e14075e" target="_top" xlink:title="CaloTriggerSim::process\l_event">
<polygon fill="none" stroke="#000000" points="196,-306.5 196,-338.5 334,-338.5 334,-306.5 196,-306.5"/>
<text text-anchor="start" x="204" y="-325.5" font-family="FreeSans" font-size="10.00" fill="#000000">CaloTriggerSim::process</text>
<text text-anchor="middle" x="265" y="-313.5" font-family="FreeSans" font-size="10.00" fill="#000000">_event</text>
</a>
</g>
</g>
<!-- Node1&#45;&gt;Node7 -->
<g id="edge6" class="edge">
<title>Node1&#45;&gt;Node7</title>
<path fill="none" stroke="#191970" d="M152.1025,-307.3694C166.6343,-309.317 181.6554,-311.3301 195.8131,-313.2275"/>
<polygon fill="#191970" stroke="#191970" points="152.5132,-303.8932 142.1369,-306.0338 151.5833,-310.8312 152.5132,-303.8932"/>
</g>
<!-- Node8 -->
<g id="node8" class="node">
<title>Node8</title>
<g id="a_node8"><a xlink:href="../../d6/d02/classDetermineTowerBackground.html#a1e2d3c456b619165aec9114ae37ee6bf" target="_top" xlink:title="DetermineTowerBackground\l::process_event">
<polygon fill="none" stroke="#000000" points="185.5,-255.5 185.5,-287.5 344.5,-287.5 344.5,-255.5 185.5,-255.5"/>
<text text-anchor="start" x="193.5" y="-274.5" font-family="FreeSans" font-size="10.00" fill="#000000">DetermineTowerBackground</text>
<text text-anchor="middle" x="265" y="-262.5" font-family="FreeSans" font-size="10.00" fill="#000000">::process_event</text>
</a>
</g>
</g>
<!-- Node1&#45;&gt;Node8 -->
<g id="edge7" class="edge">
<title>Node1&#45;&gt;Node8</title>
<path fill="none" stroke="#191970" d="M152.1336,-286.0446C163.1226,-284.6285 174.391,-283.1764 185.3536,-281.7637"/>
<polygon fill="#191970" stroke="#191970" points="151.6075,-282.5834 142.1369,-287.3329 152.5022,-289.526 151.6075,-282.5834"/>
</g>
<!-- Node9 -->
<g id="node9" class="node">
<title>Node9</title>
<g id="a_node9"><a xlink:href="../../d4/dc9/classPHG4DSTReader.html#aa32c5027cd9c3e4d667a0e84d7243412" target="_top" xlink:title="event processing method">
<polygon fill="none" stroke="#000000" points="192,-204.5 192,-236.5 338,-236.5 338,-204.5 192,-204.5"/>
<text text-anchor="start" x="200" y="-223.5" font-family="FreeSans" font-size="10.00" fill="#000000">PHG4DSTReader::process</text>
<text text-anchor="middle" x="265" y="-211.5" font-family="FreeSans" font-size="10.00" fill="#000000">_event</text>
</a>
</g>
</g>
<!-- Node1&#45;&gt;Node9 -->
<g id="edge8" class="edge">
<title>Node1&#45;&gt;Node9</title>
<path fill="none" stroke="#191970" d="M99.4713,-281.7974C120.7513,-271.1544 150.747,-256.8756 178,-246.5 187.2816,-242.9664 197.2638,-239.5973 207.0397,-236.5259"/>
<polygon fill="#191970" stroke="#191970" points="97.697,-278.7724 90.3484,-286.4045 100.8525,-285.0208 97.697,-278.7724"/>
</g>
<!-- Node10 -->
<g id="node10" class="node">
<title>Node10</title>
<g id="a_node10"><a xlink:href="../../df/d0d/classRawTowerCombiner.html#a5b3d03413a030f6f0082b8e3cafc3b04" target="_top" xlink:title="RawTowerCombiner::process\l_event">
<polygon fill="none" stroke="#000000" points="184.5,-153.5 184.5,-185.5 345.5,-185.5 345.5,-153.5 184.5,-153.5"/>
<text text-anchor="start" x="192.5" y="-172.5" font-family="FreeSans" font-size="10.00" fill="#000000">RawTowerCombiner::process</text>
<text text-anchor="middle" x="265" y="-160.5" font-family="FreeSans" font-size="10.00" fill="#000000">_event</text>
</a>
</g>
</g>
<!-- Node1&#45;&gt;Node10 -->
<g id="edge9" class="edge">
<title>Node1&#45;&gt;Node10</title>
<path fill="none" stroke="#191970" d="M85.4089,-278.4653C104.3532,-255.9101 139.7451,-217.5805 178,-195.5 184.5535,-191.7174 191.7081,-188.4391 199.0078,-185.6092"/>
<polygon fill="#191970" stroke="#191970" points="82.6365,-276.3261 78.9819,-286.2707 88.0404,-280.7757 82.6365,-276.3261"/>
</g>
<!-- Node11 -->
<g id="node11" class="node">
<title>Node11</title>
<g id="a_node11"><a xlink:href="../../d9/d7b/classQAG4SimulationCalorimeter.html#a40b24080a67937bdcacae9933f3d4ee3" target="_top" xlink:title="QAG4SimulationCalorimeter\l::process_event_Tower">
<polygon fill="none" stroke="#000000" points="185.5,-102.5 185.5,-134.5 344.5,-134.5 344.5,-102.5 185.5,-102.5"/>
<text text-anchor="start" x="193.5" y="-121.5" font-family="FreeSans" font-size="10.00" fill="#000000">QAG4SimulationCalorimeter</text>
<text text-anchor="middle" x="265" y="-109.5" font-family="FreeSans" font-size="10.00" fill="#000000">::process_event_Tower</text>
</a>
</g>
</g>
<!-- Node1&#45;&gt;Node11 -->
<g id="edge10" class="edge">
<title>Node1&#45;&gt;Node11</title>
<path fill="none" stroke="#191970" d="M79.507,-276.8974C94.5835,-244.4612 129.0781,-179.7157 178,-144.5 183.3736,-140.6319 189.3257,-137.3332 195.5218,-134.5212"/>
<polygon fill="#191970" stroke="#191970" points="76.2253,-275.6606 75.3007,-286.215 82.6053,-278.5408 76.2253,-275.6606"/>
</g>
<!-- Node13 -->
<g id="node13" class="node">
<title>Node13</title>
<g id="a_node13"><a xlink:href="../../dc/df2/classQAG4SimulationEicCalorimeter.html#a9eaf04bc360420ea0a00d2bd5b5c5c8b" target="_top" xlink:title="QAG4SimulationEicCalorimeter\l::process_event_Tower">
<polygon fill="none" stroke="#000000" points="178,-51.5 178,-83.5 352,-83.5 352,-51.5 178,-51.5"/>
<text text-anchor="start" x="186" y="-70.5" font-family="FreeSans" font-size="10.00" fill="#000000">QAG4SimulationEicCalorimeter</text>
<text text-anchor="middle" x="265" y="-58.5" font-family="FreeSans" font-size="10.00" fill="#000000">::process_event_Tower</text>
</a>
</g>
</g>
<!-- Node1&#45;&gt;Node13 -->
<g id="edge12" class="edge">
<title>Node1&#45;&gt;Node13</title>
<path fill="none" stroke="#191970" d="M75.933,-276.4624C86.9955,-235.7644 117.6726,-143.0935 178,-93.5 182.6275,-89.6959 187.7981,-86.4482 193.2487,-83.6757"/>
<polygon fill="#191970" stroke="#191970" points="72.5114,-275.7132 73.3771,-286.2726 79.2853,-277.478 72.5114,-275.7132"/>
</g>
<!-- Node15 -->
<g id="node15" class="node">
<title>Node15</title>
<g id="a_node15"><a xlink:href="../../d1/d2e/classDumpRawTowerContainer.html#a9629228eaea3c76679c0134b3b635c9d" target="_top" xlink:title="DumpRawTowerContainer\l::process_Node">
<polygon fill="none" stroke="#000000" points="191.5,-.5 191.5,-32.5 338.5,-32.5 338.5,-.5 191.5,-.5"/>
<text text-anchor="start" x="199.5" y="-19.5" font-family="FreeSans" font-size="10.00" fill="#000000">DumpRawTowerContainer</text>
<text text-anchor="middle" x="265" y="-7.5" font-family="FreeSans" font-size="10.00" fill="#000000">::process_Node</text>
</a>
</g>
</g>
<!-- Node1&#45;&gt;Node15 -->
<g id="edge14" class="edge">
<title>Node1&#45;&gt;Node15</title>
<path fill="none" stroke="#191970" d="M73.6398,-276.181C80.9574,-228.2155 105.953,-107.1384 178,-42.5 182.2242,-38.7101 186.9808,-35.472 192.0366,-32.7054"/>
<polygon fill="#191970" stroke="#191970" points="70.1521,-275.8466 72.2056,-286.2406 77.0821,-276.8347 70.1521,-275.8466"/>
</g>
<!-- Node12 -->
<g id="node12" class="node">
<title>Node12</title>
<g id="a_node12"><a xlink:href="../../d9/d7b/classQAG4SimulationCalorimeter.html#aa3467829c4182ba4e09f74fd8198cb28" target="_top" xlink:title="QAG4SimulationCalorimeter\l::process_event">
<polygon fill="none" stroke="#000000" points="395.5,-102.5 395.5,-134.5 554.5,-134.5 554.5,-102.5 395.5,-102.5"/>
<text text-anchor="start" x="403.5" y="-121.5" font-family="FreeSans" font-size="10.00" fill="#000000">QAG4SimulationCalorimeter</text>
<text text-anchor="middle" x="475" y="-109.5" font-family="FreeSans" font-size="10.00" fill="#000000">::process_event</text>
</a>
</g>
</g>
<!-- Node11&#45;&gt;Node12 -->
<g id="edge11" class="edge">
<title>Node11&#45;&gt;Node12</title>
<path fill="none" stroke="#191970" d="M354.8983,-118.5C368.3515,-118.5 382.1425,-118.5 395.363,-118.5"/>
<polygon fill="#191970" stroke="#191970" points="354.6915,-115.0001 344.6914,-118.5 354.6914,-122.0001 354.6915,-115.0001"/>
</g>
<!-- Node14 -->
<g id="node14" class="node">
<title>Node14</title>
<g id="a_node14"><a xlink:href="../../dc/df2/classQAG4SimulationEicCalorimeter.html#a3220ddd743e97de1c108e1fc42692427" target="_top" xlink:title="QAG4SimulationEicCalorimeter\l::process_event">
<polygon fill="none" stroke="#000000" points="388,-51.5 388,-83.5 562,-83.5 562,-51.5 388,-51.5"/>
<text text-anchor="start" x="396" y="-70.5" font-family="FreeSans" font-size="10.00" fill="#000000">QAG4SimulationEicCalorimeter</text>
<text text-anchor="middle" x="475" y="-58.5" font-family="FreeSans" font-size="10.00" fill="#000000">::process_event</text>
</a>
</g>
</g>
<!-- Node13&#45;&gt;Node14 -->
<g id="edge13" class="edge">
<title>Node13&#45;&gt;Node14</title>
<path fill="none" stroke="#191970" d="M362.4593,-67.5C370.8803,-67.5 379.3662,-67.5 387.699,-67.5"/>
<polygon fill="#191970" stroke="#191970" points="362.2346,-64.0001 352.2345,-67.5 362.2345,-71.0001 362.2346,-64.0001"/>
</g>
</g>
</svg>
