<?xml version="1.0" encoding="UTF-8" standalone="no"?>
<!DOCTYPE svg PUBLIC "-//W3C//DTD SVG 1.1//EN"
 "http://www.w3.org/Graphics/SVG/1.1/DTD/svg11.dtd">
<!-- Generated by graphviz version 2.40.1 (20161225.0304)
 -->
<!-- Title: fun4all_coresoftware/blob/master/simulation/g4simulation/g4epd/PHG4EPSteppingAction.h Pages: 1 -->
<svg width="265pt" height="179pt"
 viewBox="0.00 0.00 264.50 179.00" xmlns="http://www.w3.org/2000/svg" xmlns:xlink="http://www.w3.org/1999/xlink">
<g id="graph0" class="graph" transform="scale(1 1) rotate(0) translate(4 175)">
<title>fun4all_coresoftware/blob/master/simulation/g4simulation/g4epd/PHG4EPSteppingAction.h</title>
<!-- Node1 -->
<g id="node1" class="node">
<title>Node1</title>
<polygon fill="#bfbfbf" stroke="#000000" points="45.5,-114.5 45.5,-170.5 256.5,-170.5 256.5,-114.5 45.5,-114.5"/>
<text text-anchor="start" x="53.5" y="-157.5" font-family="FreeSans" font-size="10.00" fill="#000000">fun4all_coresoftware</text>
<text text-anchor="start" x="53.5" y="-145.5" font-family="FreeSans" font-size="10.00" fill="#000000">/blob/master/simulation</text>
<text text-anchor="start" x="53.5" y="-133.5" font-family="FreeSans" font-size="10.00" fill="#000000">/g4simulation/g4epd/PHG4EPStepping</text>
<text text-anchor="middle" x="151" y="-121.5" font-family="FreeSans" font-size="10.00" fill="#000000">Action.h</text>
</g>
<!-- Node2 -->
<g id="node2" class="node">
<title>Node2</title>
<g id="a_node2"><a xlink:href="../../d0/d55/PHG4SteppingAction_8h.html" target="_top" xlink:title="g4main/PHG4SteppingAction.h">
<polygon fill="none" stroke="#000000" points="0,-57.5 0,-77.5 172,-77.5 172,-57.5 0,-57.5"/>
<text text-anchor="middle" x="86" y="-64.5" font-family="FreeSans" font-size="10.00" fill="#000000">g4main/PHG4SteppingAction.h</text>
</a>
</g>
</g>
<!-- Node1&#45;&gt;Node2 -->
<g id="edge1" class="edge">
<title>Node1&#45;&gt;Node2</title>
<path fill="none" stroke="#191970" d="M126.4263,-114.1457C118.0351,-104.4636 108.8932,-93.9152 101.4289,-85.3025"/>
<polygon fill="#191970" stroke="#191970" points="104.0599,-82.9942 94.8656,-77.7296 98.77,-87.5787 104.0599,-82.9942"/>
</g>
<!-- Node5 -->
<g id="node5" class="node">
<title>Node5</title>
<polygon fill="none" stroke="#bfbfbf" points="190.5,-57.5 190.5,-77.5 241.5,-77.5 241.5,-57.5 190.5,-57.5"/>
<text text-anchor="middle" x="216" y="-64.5" font-family="FreeSans" font-size="10.00" fill="#000000">cstdint</text>
</g>
<!-- Node1&#45;&gt;Node5 -->
<g id="edge4" class="edge">
<title>Node1&#45;&gt;Node5</title>
<path fill="none" stroke="#191970" d="M175.5737,-114.1457C183.9649,-104.4636 193.1068,-93.9152 200.5711,-85.3025"/>
<polygon fill="#191970" stroke="#191970" points="203.23,-87.5787 207.1344,-77.7296 197.9401,-82.9942 203.23,-87.5787"/>
</g>
<!-- Node3 -->
<g id="node3" class="node">
<title>Node3</title>
<polygon fill="none" stroke="#bfbfbf" points="42,-.5 42,-20.5 74,-20.5 74,-.5 42,-.5"/>
<text text-anchor="middle" x="58" y="-7.5" font-family="FreeSans" font-size="10.00" fill="#000000">set</text>
</g>
<!-- Node2&#45;&gt;Node3 -->
<g id="edge2" class="edge">
<title>Node2&#45;&gt;Node3</title>
<path fill="none" stroke="#191970" d="M80.9942,-57.3095C77.2514,-49.6903 72.0213,-39.0435 67.4947,-29.8285"/>
<polygon fill="#191970" stroke="#191970" points="70.513,-28.0346 62.9625,-20.6022 64.2302,-31.121 70.513,-28.0346"/>
</g>
<!-- Node4 -->
<g id="node4" class="node">
<title>Node4</title>
<polygon fill="none" stroke="#bfbfbf" points="92.5,-.5 92.5,-20.5 137.5,-20.5 137.5,-.5 92.5,-.5"/>
<text text-anchor="middle" x="115" y="-7.5" font-family="FreeSans" font-size="10.00" fill="#000000">string</text>
</g>
<!-- Node2&#45;&gt;Node4 -->
<g id="edge3" class="edge">
<title>Node2&#45;&gt;Node4</title>
<path fill="none" stroke="#191970" d="M91.1846,-57.3095C95.1023,-49.6093 100.5933,-38.8166 105.3156,-29.5349"/>
<polygon fill="#191970" stroke="#191970" points="108.4451,-31.1021 109.8603,-20.6022 102.2062,-27.9279 108.4451,-31.1021"/>
</g>
</g>
</svg>
