<?xml version="1.0" encoding="UTF-8" standalone="no"?>
<!DOCTYPE svg PUBLIC "-//W3C//DTD SVG 1.1//EN"
 "http://www.w3.org/Graphics/SVG/1.1/DTD/svg11.dtd">
<!-- Generated by graphviz version 2.40.1 (20161225.0304)
 -->
<!-- Title: QAExample::process_event Pages: 1 -->
<svg width="711pt" height="416pt"
 viewBox="0.00 0.00 711.00 416.20" xmlns="http://www.w3.org/2000/svg" xmlns:xlink="http://www.w3.org/1999/xlink">
<g id="graph0" class="graph" transform="scale(1 1) rotate(0) translate(4 412.1994)">
<title>QAExample::process_event</title>
<!-- Node1 -->
<g id="node1" class="node">
<title>Node1</title>
<polygon fill="#bfbfbf" stroke="#000000" points="0,-193.5 0,-225.5 121,-225.5 121,-193.5 0,-193.5"/>
<text text-anchor="start" x="8" y="-212.5" font-family="FreeSans" font-size="10.00" fill="#000000">QAExample::process</text>
<text text-anchor="middle" x="60.5" y="-200.5" font-family="FreeSans" font-size="10.00" fill="#000000">_event</text>
</g>
<!-- Node2 -->
<g id="node2" class="node">
<title>Node2</title>
<g id="a_node2"><a xlink:href="../../dc/df1/classQAExample.html#aeeda1915e45a4c08027130bdd160b084" target="_top" xlink:title="QAExample::get_histo\l_prefix">
<polygon fill="none" stroke="#000000" points="380.5,-364.5 380.5,-396.5 508.5,-396.5 508.5,-364.5 380.5,-364.5"/>
<text text-anchor="start" x="388.5" y="-383.5" font-family="FreeSans" font-size="10.00" fill="#000000">QAExample::get_histo</text>
<text text-anchor="middle" x="444.5" y="-371.5" font-family="FreeSans" font-size="10.00" fill="#000000">_prefix</text>
</a>
</g>
</g>
<!-- Node1&#45;&gt;Node2 -->
<g id="edge1" class="edge">
<title>Node1&#45;&gt;Node2</title>
<path fill="none" stroke="#191970" d="M64.0256,-225.5875C72.7164,-260.8385 98.8249,-344.4562 157,-378.5 222.9053,-417.0675 312.7124,-410.254 374.3185,-398.5251"/>
<polygon fill="#191970" stroke="#191970" points="375.2137,-401.9156 384.3362,-396.5275 373.8448,-395.0507 375.2137,-401.9156"/>
</g>
<!-- Node4 -->
<g id="node4" class="node">
<title>Node4</title>
<g id="a_node4"><a xlink:href="../../de/dc9/classPHG4Particle.html#a44b98bfd72a04825791d1e4c4cb150a1" target="_top" xlink:title="PHG4Particle::get_px">
<polygon fill="none" stroke="#000000" points="176.5,-348.5 176.5,-368.5 298.5,-368.5 298.5,-348.5 176.5,-348.5"/>
<text text-anchor="middle" x="237.5" y="-355.5" font-family="FreeSans" font-size="10.00" fill="#000000">PHG4Particle::get_px</text>
</a>
</g>
</g>
<!-- Node1&#45;&gt;Node4 -->
<g id="edge3" class="edge">
<title>Node1&#45;&gt;Node4</title>
<path fill="none" stroke="#191970" d="M67.7507,-225.5519C81.1728,-253.3566 112.6223,-310.2975 157,-339.5 160.1226,-341.5548 163.4425,-343.3882 166.8873,-345.0239"/>
<polygon fill="#191970" stroke="#191970" points="165.67,-348.3081 176.2478,-348.9085 168.3531,-341.8427 165.67,-348.3081"/>
</g>
<!-- Node5 -->
<g id="node5" class="node">
<title>Node5</title>
<g id="a_node5"><a xlink:href="../../de/dc9/classPHG4Particle.html#a3df4379f9e46224a8cca7f86c11e99e5" target="_top" xlink:title="PHG4Particle::get_py">
<polygon fill="none" stroke="#000000" points="176.5,-309.5 176.5,-329.5 298.5,-329.5 298.5,-309.5 176.5,-309.5"/>
<text text-anchor="middle" x="237.5" y="-316.5" font-family="FreeSans" font-size="10.00" fill="#000000">PHG4Particle::get_py</text>
</a>
</g>
</g>
<!-- Node1&#45;&gt;Node5 -->
<g id="edge4" class="edge">
<title>Node1&#45;&gt;Node5</title>
<path fill="none" stroke="#191970" d="M73.001,-225.6816C89.8187,-246.291 121.7209,-281.5041 157,-300.5 160.7693,-302.5296 164.7524,-304.3441 168.8485,-305.9662"/>
<polygon fill="#191970" stroke="#191970" points="167.9685,-309.3676 178.5632,-309.4123 170.3088,-302.7704 167.9685,-309.3676"/>
</g>
<!-- Node6 -->
<g id="node6" class="node">
<title>Node6</title>
<g id="a_node6"><a xlink:href="../../de/dc9/classPHG4Particle.html#a533e9bda40b15f62802b187e6a743e74" target="_top" xlink:title="PHG4Particle::get_pz">
<polygon fill="none" stroke="#000000" points="176.5,-270.5 176.5,-290.5 298.5,-290.5 298.5,-270.5 176.5,-270.5"/>
<text text-anchor="middle" x="237.5" y="-277.5" font-family="FreeSans" font-size="10.00" fill="#000000">PHG4Particle::get_pz</text>
</a>
</g>
</g>
<!-- Node1&#45;&gt;Node6 -->
<g id="edge5" class="edge">
<title>Node1&#45;&gt;Node6</title>
<path fill="none" stroke="#191970" d="M85.8364,-225.5426C104.8093,-236.9542 131.7371,-251.9039 157,-261.5 162.9904,-263.7755 169.3384,-265.835 175.7374,-267.6846"/>
<polygon fill="#191970" stroke="#191970" points="175.2227,-271.1717 185.7908,-270.4195 177.0602,-264.4172 175.2227,-271.1717"/>
</g>
<!-- Node7 -->
<g id="node7" class="node">
<title>Node7</title>
<g id="a_node7"><a xlink:href="../../d3/d96/classFun4AllHistoManager.html#ae5401f032b650d41224dfa0e2f12d364" target="_top" xlink:title="Fun4AllHistoManager\l::getHisto">
<polygon fill="none" stroke="#000000" points="175.5,-219.5 175.5,-251.5 299.5,-251.5 299.5,-219.5 175.5,-219.5"/>
<text text-anchor="start" x="183.5" y="-238.5" font-family="FreeSans" font-size="10.00" fill="#000000">Fun4AllHistoManager</text>
<text text-anchor="middle" x="237.5" y="-226.5" font-family="FreeSans" font-size="10.00" fill="#000000">::getHisto</text>
</a>
</g>
</g>
<!-- Node1&#45;&gt;Node7 -->
<g id="edge6" class="edge">
<title>Node1&#45;&gt;Node7</title>
<path fill="none" stroke="#191970" d="M121.4134,-218.4477C135.5508,-220.5244 150.7318,-222.7544 165.3022,-224.8947"/>
<polygon fill="#191970" stroke="#191970" points="164.8689,-228.3685 175.2714,-226.3591 165.8863,-221.4428 164.8689,-228.3685"/>
</g>
<!-- Node9 -->
<g id="node9" class="node">
<title>Node9</title>
<g id="a_node9"><a xlink:href="../../d8/db5/namespaceQAHistManagerDef.html#a95764557eee8578107f3f8cac5a640da" target="_top" xlink:title="Get a pointer to the default hist manager for QA modules.">
<polygon fill="none" stroke="#000000" points="157,-168.5 157,-200.5 318,-200.5 318,-168.5 157,-168.5"/>
<text text-anchor="start" x="165" y="-187.5" font-family="FreeSans" font-size="10.00" fill="#000000">QAHistManagerDef::getHisto</text>
<text text-anchor="middle" x="237.5" y="-175.5" font-family="FreeSans" font-size="10.00" fill="#000000">Manager</text>
</a>
</g>
</g>
<!-- Node1&#45;&gt;Node9 -->
<g id="edge9" class="edge">
<title>Node1&#45;&gt;Node9</title>
<path fill="none" stroke="#191970" d="M121.4134,-200.8964C129.6071,-199.7391 138.1513,-198.5323 146.7241,-197.3215"/>
<polygon fill="#191970" stroke="#191970" points="147.3693,-200.7651 156.7815,-195.9009 146.3903,-193.8339 147.3693,-200.7651"/>
</g>
<!-- Node12 -->
<g id="node12" class="node">
<title>Node12</title>
<g id="a_node12"><a xlink:href="../../d5/dec/classFun4AllBase.html#a8a5c77a92bdac6bc043476e132379a40" target="_top" xlink:title="Gets the verbosity of this module.">
<polygon fill="none" stroke="#000000" points="571,-168.5 571,-188.5 703,-188.5 703,-168.5 571,-168.5"/>
<text text-anchor="middle" x="637" y="-175.5" font-family="FreeSans" font-size="10.00" fill="#000000">Fun4AllBase::Verbosity</text>
</a>
</g>
</g>
<!-- Node1&#45;&gt;Node12 -->
<g id="edge19" class="edge">
<title>Node1&#45;&gt;Node12</title>
<path fill="none" stroke="#191970" d="M83.8143,-193.3513C102.6114,-181.3679 130.2348,-166.0222 157,-159.5 306.9947,-122.9488 491.0496,-149.1934 581.4763,-166.5295"/>
<polygon fill="#191970" stroke="#191970" points="581.0211,-170.0067 591.5068,-168.4901 582.364,-163.1367 581.0211,-170.0067"/>
</g>
<!-- Node14 -->
<g id="node14" class="node">
<title>Node14</title>
<g id="a_node14"><a xlink:href="../../da/d6c/classPHG4TruthInfoContainer.html#a2817b4438bb80cacb28f457975342cf2" target="_top" xlink:title="PHG4TruthInfoContainer\l::GetPrimaryParticleRange">
<polygon fill="none" stroke="#000000" points="163,-78.5 163,-110.5 312,-110.5 312,-78.5 163,-78.5"/>
<text text-anchor="start" x="171" y="-97.5" font-family="FreeSans" font-size="10.00" fill="#000000">PHG4TruthInfoContainer</text>
<text text-anchor="middle" x="237.5" y="-85.5" font-family="FreeSans" font-size="10.00" fill="#000000">::GetPrimaryParticleRange</text>
</a>
</g>
</g>
<!-- Node1&#45;&gt;Node14 -->
<g id="edge16" class="edge">
<title>Node1&#45;&gt;Node14</title>
<path fill="none" stroke="#191970" d="M75.5364,-193.3694C93.4624,-174.9079 125.0312,-144.7467 157,-125.5 163.6758,-121.4809 170.9633,-117.8149 178.3381,-114.5245"/>
<polygon fill="#191970" stroke="#191970" points="179.8473,-117.6863 187.6868,-110.5594 177.114,-111.242 179.8473,-117.6863"/>
</g>
<!-- Node15 -->
<g id="node15" class="node">
<title>Node15</title>
<g id="a_node15"><a xlink:href="../../de/dc9/classPHG4Particle.html#a4627a601f593310250ef0583d1229ec4" target="_top" xlink:title="PHG4Particle::identify">
<polygon fill="none" stroke="#000000" points="174.5,-39.5 174.5,-59.5 300.5,-59.5 300.5,-39.5 174.5,-39.5"/>
<text text-anchor="middle" x="237.5" y="-46.5" font-family="FreeSans" font-size="10.00" fill="#000000">PHG4Particle::identify</text>
</a>
</g>
</g>
<!-- Node1&#45;&gt;Node15 -->
<g id="edge17" class="edge">
<title>Node1&#45;&gt;Node15</title>
<path fill="none" stroke="#191970" d="M66.968,-193.044C79.5565,-163.2623 110.2776,-100.547 157,-68.5 159.5811,-66.7296 162.3063,-65.1229 165.1323,-63.6649"/>
<polygon fill="#191970" stroke="#191970" points="166.7498,-66.7756 174.4478,-59.4961 163.8905,-60.3863 166.7498,-66.7756"/>
</g>
<!-- Node16 -->
<g id="node16" class="node">
<title>Node16</title>
<g id="a_node16"><a xlink:href="../../dc/df1/classQAExample.html#a364b4db057355fa2740dac07614f4078" target="_top" xlink:title="load nodes">
<polygon fill="none" stroke="#000000" points="167.5,-.5 167.5,-20.5 307.5,-20.5 307.5,-.5 167.5,-.5"/>
<text text-anchor="middle" x="237.5" y="-7.5" font-family="FreeSans" font-size="10.00" fill="#000000">QAExample::load_nodes</text>
</a>
</g>
</g>
<!-- Node1&#45;&gt;Node16 -->
<g id="edge18" class="edge">
<title>Node1&#45;&gt;Node16</title>
<path fill="none" stroke="#191970" d="M64.3305,-193.3655C73.6373,-157.8409 100.9114,-72.6036 157,-29.5 159.0423,-27.9305 161.1937,-26.4876 163.4288,-25.1614"/>
<polygon fill="#191970" stroke="#191970" points="165.0777,-28.2496 172.4111,-20.6029 161.9098,-22.0074 165.0777,-28.2496"/>
</g>
<!-- Node3 -->
<g id="node3" class="node">
<title>Node3</title>
<g id="a_node3"><a xlink:href="../../d5/dec/classFun4AllBase.html#a41f9ac377743d046f590617fd6f4f0ed" target="_top" xlink:title="Returns the name of this module.">
<polygon fill="none" stroke="#000000" points="579.5,-303.5 579.5,-323.5 694.5,-323.5 694.5,-303.5 579.5,-303.5"/>
<text text-anchor="middle" x="637" y="-310.5" font-family="FreeSans" font-size="10.00" fill="#000000">Fun4AllBase::Name</text>
</a>
</g>
</g>
<!-- Node2&#45;&gt;Node3 -->
<g id="edge2" class="edge">
<title>Node2&#45;&gt;Node3</title>
<path fill="none" stroke="#191970" d="M490.6085,-364.4518C523.529,-352.9938 567.307,-337.7568 598.3893,-326.9385"/>
<polygon fill="#191970" stroke="#191970" points="599.7112,-330.1845 608.005,-323.5918 597.4102,-323.5734 599.7112,-330.1845"/>
</g>
<!-- Node8 -->
<g id="node8" class="node">
<title>Node8</title>
<g id="a_node8"><a xlink:href="../../d3/d96/classFun4AllHistoManager.html#a78e6d7a95c28595e45b84db4c1542237" target="_top" xlink:title="Fun4AllHistoManager\l::Print">
<polygon fill="none" stroke="#000000" points="382.5,-297.5 382.5,-329.5 506.5,-329.5 506.5,-297.5 382.5,-297.5"/>
<text text-anchor="start" x="390.5" y="-316.5" font-family="FreeSans" font-size="10.00" fill="#000000">Fun4AllHistoManager</text>
<text text-anchor="middle" x="444.5" y="-304.5" font-family="FreeSans" font-size="10.00" fill="#000000">::Print</text>
</a>
</g>
</g>
<!-- Node7&#45;&gt;Node8 -->
<g id="edge7" class="edge">
<title>Node7&#45;&gt;Node8</title>
<path fill="none" stroke="#191970" d="M295.1847,-251.5441C303.0214,-254.4656 310.8276,-257.7846 318,-261.5 335.7588,-270.6993 336.0481,-279.6836 354,-288.5 359.761,-291.3293 365.8907,-293.8797 372.1396,-296.17"/>
<polygon fill="#191970" stroke="#191970" points="371.4266,-299.6255 382.0213,-299.5577 373.6968,-293.0038 371.4266,-299.6255"/>
</g>
<!-- Node8&#45;&gt;Node3 -->
<g id="edge8" class="edge">
<title>Node8&#45;&gt;Node3</title>
<path fill="none" stroke="#191970" d="M506.7334,-313.5C526.6552,-313.5 548.8082,-313.5 569.1122,-313.5"/>
<polygon fill="#191970" stroke="#191970" points="569.2253,-317.0001 579.2253,-313.5 569.2253,-310.0001 569.2253,-317.0001"/>
</g>
<!-- Node10 -->
<g id="node10" class="node">
<title>Node10</title>
<g id="a_node10"><a xlink:href="../../da/d29/classFun4AllServer.html#a3e55156f91b2c94bb6c4ef33ffce587a" target="_top" xlink:title="Fun4AllServer::instance">
<polygon fill="none" stroke="#000000" points="376.5,-258.5 376.5,-278.5 512.5,-278.5 512.5,-258.5 376.5,-258.5"/>
<text text-anchor="middle" x="444.5" y="-265.5" font-family="FreeSans" font-size="10.00" fill="#000000">Fun4AllServer::instance</text>
</a>
</g>
</g>
<!-- Node9&#45;&gt;Node10 -->
<g id="edge10" class="edge">
<title>Node9&#45;&gt;Node10</title>
<path fill="none" stroke="#191970" d="M298.8086,-200.5796C305.5187,-203.4149 312.0608,-206.7024 318,-210.5 337.8738,-223.2074 333.4841,-237.8578 354,-249.5 357.9554,-251.7446 362.1436,-253.7251 366.4646,-255.4724"/>
<polygon fill="#191970" stroke="#191970" points="365.503,-258.846 376.0975,-258.9372 367.8723,-252.2591 365.503,-258.846"/>
</g>
<!-- Node11 -->
<g id="node11" class="node">
<title>Node11</title>
<g id="a_node11"><a xlink:href="../../da/d29/classFun4AllServer.html#af5885837658eb26f98dbc697b58747a7" target="_top" xlink:title="Fun4AllServer::getHistoManager">
<polygon fill="none" stroke="#000000" points="354,-168.5 354,-188.5 535,-188.5 535,-168.5 354,-168.5"/>
<text text-anchor="middle" x="444.5" y="-175.5" font-family="FreeSans" font-size="10.00" fill="#000000">Fun4AllServer::getHistoManager</text>
</a>
</g>
</g>
<!-- Node9&#45;&gt;Node11 -->
<g id="edge11" class="edge">
<title>Node9&#45;&gt;Node11</title>
<path fill="none" stroke="#191970" d="M318.1243,-182.1631C326.5283,-181.9195 335.1442,-181.6697 343.7349,-181.4207"/>
<polygon fill="#191970" stroke="#191970" points="343.8995,-184.9175 353.7938,-181.1292 343.6966,-177.9205 343.8995,-184.9175"/>
</g>
<!-- Node13 -->
<g id="node13" class="node">
<title>Node13</title>
<g id="a_node13"><a xlink:href="../../da/d29/classFun4AllServer.html#a377f113767f24ce6413e678752ed7f53" target="_top" xlink:title="Fun4AllServer::registerHisto\lManager">
<polygon fill="none" stroke="#000000" points="365.5,-207.5 365.5,-239.5 523.5,-239.5 523.5,-207.5 365.5,-207.5"/>
<text text-anchor="start" x="373.5" y="-226.5" font-family="FreeSans" font-size="10.00" fill="#000000">Fun4AllServer::registerHisto</text>
<text text-anchor="middle" x="444.5" y="-214.5" font-family="FreeSans" font-size="10.00" fill="#000000">Manager</text>
</a>
</g>
</g>
<!-- Node9&#45;&gt;Node13 -->
<g id="edge13" class="edge">
<title>Node9&#45;&gt;Node13</title>
<path fill="none" stroke="#191970" d="M318.1243,-199.6901C330.396,-202.0021 343.1193,-204.3993 355.5565,-206.7425"/>
<polygon fill="#191970" stroke="#191970" points="354.9803,-210.1955 365.4554,-208.6075 356.2764,-203.3165 354.9803,-210.1955"/>
</g>
<!-- Node11&#45;&gt;Node12 -->
<g id="edge12" class="edge">
<title>Node11&#45;&gt;Node12</title>
<path fill="none" stroke="#191970" d="M535.1132,-178.5C543.7099,-178.5 552.3668,-178.5 560.8083,-178.5"/>
<polygon fill="#191970" stroke="#191970" points="560.9797,-182.0001 570.9797,-178.5 560.9796,-175.0001 560.9797,-182.0001"/>
</g>
<!-- Node13&#45;&gt;Node3 -->
<g id="edge14" class="edge">
<title>Node13&#45;&gt;Node3</title>
<path fill="none" stroke="#191970" d="M509.0805,-239.6342C517.9314,-242.5421 526.7906,-245.8333 535,-249.5 564.4307,-262.6451 595.41,-283.1715 615.3967,-297.4198"/>
<polygon fill="#191970" stroke="#191970" points="613.3537,-300.2616 623.5069,-303.2886 617.4574,-294.5907 613.3537,-300.2616"/>
</g>
<!-- Node13&#45;&gt;Node12 -->
<g id="edge15" class="edge">
<title>Node13&#45;&gt;Node12</title>
<path fill="none" stroke="#191970" d="M513.1816,-207.4445C536.5903,-201.9724 562.3749,-195.9448 584.3264,-190.8133"/>
<polygon fill="#191970" stroke="#191970" points="585.1794,-194.2083 594.1202,-188.5239 583.586,-187.3921 585.1794,-194.2083"/>
</g>
</g>
</svg>
