<?xml version="1.0" encoding="UTF-8" standalone="no"?>
<!DOCTYPE svg PUBLIC "-//W3C//DTD SVG 1.1//EN"
 "http://www.w3.org/Graphics/SVG/1.1/DTD/svg11.dtd">
<!-- Generated by graphviz version 2.40.1 (20161225.0304)
 -->
<!-- Title: fun4all_acts/blob/master/Tests/UnitTests/Core/Material/InteractionsTests.cpp Pages: 1 -->
<svg width="858pt" height="350pt"
 viewBox="0.00 0.00 858.00 350.00" xmlns="http://www.w3.org/2000/svg" xmlns:xlink="http://www.w3.org/1999/xlink">
<g id="graph0" class="graph" transform="scale(1 1) rotate(0) translate(4 346)">
<title>fun4all_acts/blob/master/Tests/UnitTests/Core/Material/InteractionsTests.cpp</title>
<!-- Node1 -->
<g id="node1" class="node">
<title>Node1</title>
<polygon fill="#bfbfbf" stroke="#000000" points="273.5,-297.5 273.5,-341.5 438.5,-341.5 438.5,-297.5 273.5,-297.5"/>
<text text-anchor="start" x="281.5" y="-328.5" font-family="FreeSans" font-size="10.00" fill="#000000">fun4all_acts/blob/master</text>
<text text-anchor="start" x="281.5" y="-316.5" font-family="FreeSans" font-size="10.00" fill="#000000">/Tests/UnitTests/Core/Material</text>
<text text-anchor="middle" x="356" y="-304.5" font-family="FreeSans" font-size="10.00" fill="#000000">/InteractionsTests.cpp</text>
</g>
<!-- Node2 -->
<g id="node2" class="node">
<title>Node2</title>
<polygon fill="none" stroke="#bfbfbf" points="0,-228.5 0,-260.5 116,-260.5 116,-228.5 0,-228.5"/>
<text text-anchor="start" x="8" y="-247.5" font-family="FreeSans" font-size="10.00" fill="#000000">boost/test/data/test</text>
<text text-anchor="middle" x="58" y="-235.5" font-family="FreeSans" font-size="10.00" fill="#000000">_case.hpp</text>
</g>
<!-- Node1&#45;&gt;Node2 -->
<g id="edge1" class="edge">
<title>Node1&#45;&gt;Node2</title>
<path fill="none" stroke="#191970" d="M273.3861,-298.7079C227.0437,-287.0446 169.9316,-272.6707 126.1645,-261.6555"/>
<polygon fill="#191970" stroke="#191970" points="126.743,-258.192 116.1911,-259.1454 125.0345,-264.9803 126.743,-258.192"/>
</g>
<!-- Node3 -->
<g id="node3" class="node">
<title>Node3</title>
<polygon fill="none" stroke="#bfbfbf" points="134.5,-234.5 134.5,-254.5 271.5,-254.5 271.5,-234.5 134.5,-234.5"/>
<text text-anchor="middle" x="203" y="-241.5" font-family="FreeSans" font-size="10.00" fill="#000000">boost/test/unit_test.hpp</text>
</g>
<!-- Node1&#45;&gt;Node3 -->
<g id="edge2" class="edge">
<title>Node1&#45;&gt;Node3</title>
<path fill="none" stroke="#191970" d="M310.9225,-297.4032C285.7373,-285.0575 255.0525,-270.0159 232.8491,-259.1319"/>
<polygon fill="#191970" stroke="#191970" points="234.1143,-255.8543 223.5945,-254.5954 231.0332,-262.1397 234.1143,-255.8543"/>
</g>
<!-- Node4 -->
<g id="node4" class="node">
<title>Node4</title>
<g id="a_node4"><a xlink:href="../../d2/de7/Interactions_8hpp.html" target="_top" xlink:title="Acts/Material/Interactions.hpp">
<polygon fill="none" stroke="#000000" points="327.5,-234.5 327.5,-254.5 496.5,-254.5 496.5,-234.5 327.5,-234.5"/>
<text text-anchor="middle" x="412" y="-241.5" font-family="FreeSans" font-size="10.00" fill="#000000">Acts/Material/Interactions.hpp</text>
</a>
</g>
</g>
<!-- Node1&#45;&gt;Node4 -->
<g id="edge3" class="edge">
<title>Node1&#45;&gt;Node4</title>
<path fill="none" stroke="#191970" d="M372.499,-297.4032C380.7663,-286.3308 390.6528,-273.09 398.4668,-262.6248"/>
<polygon fill="#191970" stroke="#191970" points="401.2837,-264.7022 404.4621,-254.5954 395.6747,-260.5142 401.2837,-264.7022"/>
</g>
<!-- Node13 -->
<g id="node13" class="node">
<title>Node13</title>
<g id="a_node13"><a xlink:href="../../df/d6f/Units_8hpp.html" target="_top" xlink:title="Acts/Utilities/Units.hpp">
<polygon fill="none" stroke="#000000" points="239,-171.5 239,-191.5 371,-191.5 371,-171.5 239,-171.5"/>
<text text-anchor="middle" x="305" y="-178.5" font-family="FreeSans" font-size="10.00" fill="#000000">Acts/Utilities/Units.hpp</text>
</a>
</g>
</g>
<!-- Node1&#45;&gt;Node13 -->
<g id="edge20" class="edge">
<title>Node1&#45;&gt;Node13</title>
<path fill="none" stroke="#191970" d="M339.0395,-297.2637C331.8208,-286.7749 323.9429,-273.7768 319,-261 311.5226,-241.6721 308.0124,-218.1469 306.381,-201.7225"/>
<polygon fill="#191970" stroke="#191970" points="309.8574,-201.2941 305.5262,-191.625 302.8823,-201.8846 309.8574,-201.2941"/>
</g>
<!-- Node14 -->
<g id="node14" class="node">
<title>Node14</title>
<g id="a_node14"><a xlink:href="../../de/d59/PredefinedMaterials_8hpp.html" target="_top" xlink:title="Predefined materials for test.">
<polygon fill="none" stroke="#000000" points="514.5,-228.5 514.5,-260.5 669.5,-260.5 669.5,-228.5 514.5,-228.5"/>
<text text-anchor="start" x="522.5" y="-247.5" font-family="FreeSans" font-size="10.00" fill="#000000">Acts/Tests/CommonHelpers</text>
<text text-anchor="middle" x="592" y="-235.5" font-family="FreeSans" font-size="10.00" fill="#000000">/PredefinedMaterials.hpp</text>
</a>
</g>
</g>
<!-- Node1&#45;&gt;Node14 -->
<g id="edge14" class="edge">
<title>Node1&#45;&gt;Node14</title>
<path fill="none" stroke="#191970" d="M425.5313,-297.4032C459.17,-286.7129 499.1691,-274.0013 531.5273,-263.718"/>
<polygon fill="#191970" stroke="#191970" points="532.8384,-266.9739 541.3087,-260.6095 530.7183,-260.3027 532.8384,-266.9739"/>
</g>
<!-- Node15 -->
<g id="node15" class="node">
<title>Node15</title>
<g id="a_node15"><a xlink:href="../../d0/d47/PdgParticle_8hpp.html" target="_top" xlink:title="Acts/Utilities/PdgParticle.hpp">
<polygon fill="none" stroke="#000000" points="688,-234.5 688,-254.5 850,-254.5 850,-234.5 688,-234.5"/>
<text text-anchor="middle" x="769" y="-241.5" font-family="FreeSans" font-size="10.00" fill="#000000">Acts/Utilities/PdgParticle.hpp</text>
</a>
</g>
</g>
<!-- Node1&#45;&gt;Node15 -->
<g id="edge18" class="edge">
<title>Node1&#45;&gt;Node15</title>
<path fill="none" stroke="#191970" d="M438.6544,-304.5805C503.9179,-292.788 597.2846,-275.8905 679,-261 687.1999,-259.5058 695.8191,-257.931 704.3414,-256.3713"/>
<polygon fill="#191970" stroke="#191970" points="705.0644,-259.7972 714.2704,-254.5532 703.8035,-252.9117 705.0644,-259.7972"/>
</g>
<!-- Node5 -->
<g id="node5" class="node">
<title>Node5</title>
<polygon fill="none" stroke="#bfbfbf" points="389.5,-171.5 389.5,-191.5 434.5,-191.5 434.5,-171.5 389.5,-171.5"/>
<text text-anchor="middle" x="412" y="-178.5" font-family="FreeSans" font-size="10.00" fill="#000000">utility</text>
</g>
<!-- Node4&#45;&gt;Node5 -->
<g id="edge4" class="edge">
<title>Node4&#45;&gt;Node5</title>
<path fill="none" stroke="#191970" d="M412,-234.378C412,-225.7041 412,-212.9355 412,-202.1186"/>
<polygon fill="#191970" stroke="#191970" points="415.5001,-201.8062 412,-191.8062 408.5001,-201.8062 415.5001,-201.8062"/>
</g>
<!-- Node6 -->
<g id="node6" class="node">
<title>Node6</title>
<g id="a_node6"><a xlink:href="../../d2/ddb/MaterialProperties_8hpp.html" target="_top" xlink:title="Acts/Material/MaterialProperties.hpp">
<polygon fill="none" stroke="#000000" points="452.5,-171.5 452.5,-191.5 653.5,-191.5 653.5,-171.5 452.5,-171.5"/>
<text text-anchor="middle" x="553" y="-178.5" font-family="FreeSans" font-size="10.00" fill="#000000">Acts/Material/MaterialProperties.hpp</text>
</a>
</g>
</g>
<!-- Node4&#45;&gt;Node6 -->
<g id="edge5" class="edge">
<title>Node4&#45;&gt;Node6</title>
<path fill="none" stroke="#191970" d="M434.6541,-234.378C458.0883,-223.9073 494.8768,-207.4699 521.2154,-195.7016"/>
<polygon fill="#191970" stroke="#191970" points="522.6998,-198.8719 530.4021,-191.5969 519.8442,-192.4808 522.6998,-198.8719"/>
</g>
<!-- Node4&#45;&gt;Node13 -->
<g id="edge13" class="edge">
<title>Node4&#45;&gt;Node13</title>
<path fill="none" stroke="#191970" d="M394.8086,-234.378C377.5711,-224.2288 350.8123,-208.4736 330.9831,-196.7985"/>
<polygon fill="#191970" stroke="#191970" points="332.5418,-193.6546 322.1487,-191.5969 328.9902,-199.6867 332.5418,-193.6546"/>
</g>
<!-- Node7 -->
<g id="node7" class="node">
<title>Node7</title>
<polygon fill="none" stroke="#bfbfbf" points="532,-57.5 532,-77.5 580,-77.5 580,-57.5 532,-57.5"/>
<text text-anchor="middle" x="556" y="-64.5" font-family="FreeSans" font-size="10.00" fill="#000000">iosfwd</text>
</g>
<!-- Node6&#45;&gt;Node7 -->
<g id="edge6" class="edge">
<title>Node6&#45;&gt;Node7</title>
<path fill="none" stroke="#191970" d="M553.2662,-171.3833C553.7587,-152.6703 554.8204,-112.3266 555.4661,-87.7866"/>
<polygon fill="#191970" stroke="#191970" points="558.9657,-87.8466 555.7301,-77.7579 551.9681,-87.6624 558.9657,-87.8466"/>
</g>
<!-- Node8 -->
<g id="node8" class="node">
<title>Node8</title>
<polygon fill="none" stroke="#bfbfbf" points="478.5,-114.5 478.5,-134.5 527.5,-134.5 527.5,-114.5 478.5,-114.5"/>
<text text-anchor="middle" x="503" y="-121.5" font-family="FreeSans" font-size="10.00" fill="#000000">vector</text>
</g>
<!-- Node6&#45;&gt;Node8 -->
<g id="edge7" class="edge">
<title>Node6&#45;&gt;Node8</title>
<path fill="none" stroke="#191970" d="M544.061,-171.3095C537.022,-163.2851 527.0371,-151.9022 518.6762,-142.3708"/>
<polygon fill="#191970" stroke="#191970" points="521.0872,-139.8118 511.8616,-134.6022 515.8249,-144.4279 521.0872,-139.8118"/>
</g>
<!-- Node9 -->
<g id="node9" class="node">
<title>Node9</title>
<g id="a_node9"><a xlink:href="../../d0/d70/Material_8hpp.html" target="_top" xlink:title="Acts/Material/Material.hpp">
<polygon fill="none" stroke="#000000" points="603,-114.5 603,-134.5 753,-134.5 753,-114.5 603,-114.5"/>
<text text-anchor="middle" x="678" y="-121.5" font-family="FreeSans" font-size="10.00" fill="#000000">Acts/Material/Material.hpp</text>
</a>
</g>
</g>
<!-- Node6&#45;&gt;Node9 -->
<g id="edge8" class="edge">
<title>Node6&#45;&gt;Node9</title>
<path fill="none" stroke="#191970" d="M575.0598,-171.4408C594.841,-162.4205 624.0937,-149.0813 646.365,-138.9255"/>
<polygon fill="#191970" stroke="#191970" points="648.0938,-141.984 655.7403,-134.6504 645.1895,-135.6149 648.0938,-141.984"/>
</g>
<!-- Node9&#45;&gt;Node7 -->
<g id="edge9" class="edge">
<title>Node9&#45;&gt;Node7</title>
<path fill="none" stroke="#191970" d="M656.4697,-114.4408C637.1632,-105.4205 608.6125,-92.0813 586.8757,-81.9255"/>
<polygon fill="#191970" stroke="#191970" points="588.2669,-78.7124 577.7255,-77.6504 585.3039,-85.0544 588.2669,-78.7124"/>
</g>
<!-- Node10 -->
<g id="node10" class="node">
<title>Node10</title>
<polygon fill="none" stroke="#bfbfbf" points="776,-57.5 776,-77.5 820,-77.5 820,-57.5 776,-57.5"/>
<text text-anchor="middle" x="798" y="-64.5" font-family="FreeSans" font-size="10.00" fill="#000000">limits</text>
</g>
<!-- Node9&#45;&gt;Node10 -->
<g id="edge10" class="edge">
<title>Node9&#45;&gt;Node10</title>
<path fill="none" stroke="#191970" d="M699.1774,-114.4408C718.0822,-105.461 745.9983,-92.2008 767.3424,-82.0624"/>
<polygon fill="#191970" stroke="#191970" points="769.0996,-85.1025 776.6307,-77.6504 766.0962,-78.7796 769.0996,-85.1025"/>
</g>
<!-- Node11 -->
<g id="node11" class="node">
<title>Node11</title>
<g id="a_node11"><a xlink:href="../../d6/d1d/Definitions_8hpp.html" target="_top" xlink:title="Acts/Utilities/Definitions.hpp">
<polygon fill="none" stroke="#000000" points="598,-57.5 598,-77.5 758,-77.5 758,-57.5 598,-57.5"/>
<text text-anchor="middle" x="678" y="-64.5" font-family="FreeSans" font-size="10.00" fill="#000000">Acts/Utilities/Definitions.hpp</text>
</a>
</g>
</g>
<!-- Node9&#45;&gt;Node11 -->
<g id="edge11" class="edge">
<title>Node9&#45;&gt;Node11</title>
<path fill="none" stroke="#191970" d="M678,-114.3095C678,-106.9335 678,-96.72 678,-87.715"/>
<polygon fill="#191970" stroke="#191970" points="681.5001,-87.6022 678,-77.6022 674.5001,-87.6023 681.5001,-87.6022"/>
</g>
<!-- Node12 -->
<g id="node12" class="node">
<title>Node12</title>
<polygon fill="none" stroke="#bfbfbf" points="638,-.5 638,-20.5 718,-20.5 718,-.5 638,-.5"/>
<text text-anchor="middle" x="678" y="-7.5" font-family="FreeSans" font-size="10.00" fill="#000000">Eigen/Dense</text>
</g>
<!-- Node11&#45;&gt;Node12 -->
<g id="edge12" class="edge">
<title>Node11&#45;&gt;Node12</title>
<path fill="none" stroke="#191970" d="M678,-57.3095C678,-49.9335 678,-39.72 678,-30.715"/>
<polygon fill="#191970" stroke="#191970" points="681.5001,-30.6022 678,-20.6022 674.5001,-30.6023 681.5001,-30.6022"/>
</g>
<!-- Node14&#45;&gt;Node6 -->
<g id="edge16" class="edge">
<title>Node14&#45;&gt;Node6</title>
<path fill="none" stroke="#191970" d="M581.9565,-228.2759C576.6634,-219.7254 570.1436,-209.1935 564.6316,-200.2895"/>
<polygon fill="#191970" stroke="#191970" points="567.5856,-198.4117 559.346,-191.7513 561.6337,-202.0962 567.5856,-198.4117"/>
</g>
<!-- Node14&#45;&gt;Node9 -->
<g id="edge15" class="edge">
<title>Node14&#45;&gt;Node9</title>
<path fill="none" stroke="#191970" d="M623.0572,-228.4022C637.2862,-219.5064 653.1413,-207.1671 663,-192 672.0858,-178.022 675.7281,-159.3453 677.1591,-145.1814"/>
<polygon fill="#191970" stroke="#191970" points="680.6674,-145.1912 677.8944,-134.9657 673.6855,-144.6886 680.6674,-145.1912"/>
</g>
<!-- Node14&#45;&gt;Node13 -->
<g id="edge17" class="edge">
<title>Node14&#45;&gt;Node13</title>
<path fill="none" stroke="#191970" d="M518.8352,-228.4394C469.582,-217.6277 405.642,-203.5922 360.5549,-193.695"/>
<polygon fill="#191970" stroke="#191970" points="361.181,-190.2492 350.6631,-191.5236 359.6801,-197.0864 361.181,-190.2492"/>
</g>
<!-- Node16 -->
<g id="node16" class="node">
<title>Node16</title>
<polygon fill="none" stroke="#bfbfbf" points="743.5,-171.5 743.5,-191.5 794.5,-191.5 794.5,-171.5 743.5,-171.5"/>
<text text-anchor="middle" x="769" y="-178.5" font-family="FreeSans" font-size="10.00" fill="#000000">cstdint</text>
</g>
<!-- Node15&#45;&gt;Node16 -->
<g id="edge19" class="edge">
<title>Node15&#45;&gt;Node16</title>
<path fill="none" stroke="#191970" d="M769,-234.378C769,-225.7041 769,-212.9355 769,-202.1186"/>
<polygon fill="#191970" stroke="#191970" points="772.5001,-201.8062 769,-191.8062 765.5001,-201.8062 772.5001,-201.8062"/>
</g>
</g>
</svg>
