<?xml version="1.0" encoding="UTF-8" standalone="no"?>
<!DOCTYPE svg PUBLIC "-//W3C//DTD SVG 1.1//EN"
 "http://www.w3.org/Graphics/SVG/1.1/DTD/svg11.dtd">
<!-- Generated by graphviz version 2.40.1 (20161225.0304)
 -->
<!-- Title: PndDipoleMap::GetBxyz Pages: 1 -->
<svg width="324pt" height="68pt"
 viewBox="0.00 0.00 324.00 68.00" xmlns="http://www.w3.org/2000/svg" xmlns:xlink="http://www.w3.org/1999/xlink">
<g id="graph0" class="graph" transform="scale(1 1) rotate(0) translate(4 64)">
<title>PndDipoleMap::GetBxyz</title>
<!-- Node1 -->
<g id="node1" class="node">
<title>Node1</title>
<polygon fill="#bfbfbf" stroke="#000000" points="0,-19.5 0,-39.5 138,-39.5 138,-19.5 0,-19.5"/>
<text text-anchor="middle" x="69" y="-26.5" font-family="FreeSans" font-size="10.00" fill="#000000">PndDipoleMap::GetBxyz</text>
</g>
<!-- Node2 -->
<g id="node2" class="node">
<title>Node2</title>
<g id="a_node2"><a xlink:href="../../dc/d6d/classPndFieldMap.html#a9777cc3316dbd22b59a8df029367da54" target="_top" xlink:title="PndFieldMap::Interpolate">
<polygon fill="none" stroke="#000000" points="174,-39.5 174,-59.5 316,-59.5 316,-39.5 174,-39.5"/>
<text text-anchor="middle" x="245" y="-46.5" font-family="FreeSans" font-size="10.00" fill="#000000">PndFieldMap::Interpolate</text>
</a>
</g>
</g>
<!-- Node1&#45;&gt;Node2 -->
<g id="edge1" class="edge">
<title>Node1&#45;&gt;Node2</title>
<path fill="none" stroke="#191970" d="M138.0547,-37.3471C146.4993,-38.3067 155.1883,-39.2941 163.7902,-40.2716"/>
<polygon fill="#191970" stroke="#191970" points="163.497,-43.7607 173.8283,-41.4123 164.2874,-36.8055 163.497,-43.7607"/>
</g>
<!-- Node3 -->
<g id="node3" class="node">
<title>Node3</title>
<g id="a_node3"><a xlink:href="../../dd/d78/classPndDipoleMap.html#a417ab748906463a06ff736c506674301" target="_top" xlink:title="PndDipoleMap::IsInside">
<polygon fill="none" stroke="#000000" points="178,-.5 178,-20.5 312,-20.5 312,-.5 178,-.5"/>
<text text-anchor="middle" x="245" y="-7.5" font-family="FreeSans" font-size="10.00" fill="#000000">PndDipoleMap::IsInside</text>
</a>
</g>
</g>
<!-- Node1&#45;&gt;Node3 -->
<g id="edge2" class="edge">
<title>Node1&#45;&gt;Node3</title>
<path fill="none" stroke="#191970" d="M138.0547,-22.0452C147.7754,-20.9958 157.8198,-19.9115 167.6825,-18.8468"/>
<polygon fill="#191970" stroke="#191970" points="168.307,-22.2998 177.8735,-17.7466 167.5556,-15.3402 168.307,-22.2998"/>
</g>
</g>
</svg>
