<?xml version="1.0" encoding="UTF-8" standalone="no"?>
<!DOCTYPE svg PUBLIC "-//W3C//DTD SVG 1.1//EN"
 "http://www.w3.org/Graphics/SVG/1.1/DTD/svg11.dtd">
<!-- Generated by graphviz version 2.40.1 (20161225.0304)
 -->
<!-- Title: BeamPipeGeoParData::CheckGeometry Pages: 1 -->
<svg width="530pt" height="41pt"
 viewBox="0.00 0.00 530.00 41.00" xmlns="http://www.w3.org/2000/svg" xmlns:xlink="http://www.w3.org/1999/xlink">
<g id="graph0" class="graph" transform="scale(1 1) rotate(0) translate(4 37)">
<title>BeamPipeGeoParData::CheckGeometry</title>
<!-- Node1 -->
<g id="node1" class="node">
<title>Node1</title>
<polygon fill="#bfbfbf" stroke="#000000" points="0,-.5 0,-32.5 126,-32.5 126,-.5 0,-.5"/>
<text text-anchor="start" x="8" y="-19.5" font-family="FreeSans" font-size="10.00" fill="#000000">BeamPipeGeoParData</text>
<text text-anchor="middle" x="63" y="-7.5" font-family="FreeSans" font-size="10.00" fill="#000000">::CheckGeometry</text>
</g>
<!-- Node2 -->
<g id="node2" class="node">
<title>Node2</title>
<g id="a_node2"><a xlink:href="../../d5/da5/classBeamPipeGeoParData.html#a517333ed4031326081436c355d6df9ca" target="_top" xlink:title="BeamPipeGeoParData\l::ConstructGeometry">
<polygon fill="none" stroke="#000000" points="162,-.5 162,-32.5 288,-32.5 288,-.5 162,-.5"/>
<text text-anchor="start" x="170" y="-19.5" font-family="FreeSans" font-size="10.00" fill="#000000">BeamPipeGeoParData</text>
<text text-anchor="middle" x="225" y="-7.5" font-family="FreeSans" font-size="10.00" fill="#000000">::ConstructGeometry</text>
</a>
</g>
</g>
<!-- Node1&#45;&gt;Node2 -->
<g id="edge1" class="edge">
<title>Node1&#45;&gt;Node2</title>
<path fill="none" stroke="#191970" d="M136.3736,-16.5C144.865,-16.5 153.4692,-16.5 161.8084,-16.5"/>
<polygon fill="#191970" stroke="#191970" points="136.0973,-13.0001 126.0973,-16.5 136.0973,-20.0001 136.0973,-13.0001"/>
</g>
<!-- Node3 -->
<g id="node3" class="node">
<title>Node3</title>
<g id="a_node3"><a xlink:href="../../d7/da5/beampipe_8C.html#a31f2b254b45d0630b2d4302228e2e41f" target="_top" xlink:title="beampipe">
<polygon fill="none" stroke="#000000" points="324,-6.5 324,-26.5 391,-26.5 391,-6.5 324,-6.5"/>
<text text-anchor="middle" x="357.5" y="-13.5" font-family="FreeSans" font-size="10.00" fill="#000000">beampipe</text>
</a>
</g>
</g>
<!-- Node2&#45;&gt;Node3 -->
<g id="edge2" class="edge">
<title>Node2&#45;&gt;Node3</title>
<path fill="none" stroke="#191970" d="M298.2035,-16.5C307.0792,-16.5 315.7866,-16.5 323.6789,-16.5"/>
<polygon fill="#191970" stroke="#191970" points="298.1456,-13.0001 288.1455,-16.5 298.1455,-20.0001 298.1456,-13.0001"/>
</g>
<!-- Node4 -->
<g id="node4" class="node">
<title>Node4</title>
<g id="a_node4"><a xlink:href="../../d6/d8e/ODDCylinder__geo_8cpp.html#ae47472db9f22dbf7162d1a7e93fff7ec" target="_top" xlink:title="create_element">
<polygon fill="none" stroke="#000000" points="427,-6.5 427,-26.5 522,-26.5 522,-6.5 427,-6.5"/>
<text text-anchor="middle" x="474.5" y="-13.5" font-family="FreeSans" font-size="10.00" fill="#000000">create_element</text>
</a>
</g>
</g>
<!-- Node3&#45;&gt;Node4 -->
<g id="edge3" class="edge">
<title>Node3&#45;&gt;Node4</title>
<path fill="none" stroke="#191970" d="M401.2248,-16.5C409.4962,-16.5 418.1894,-16.5 426.582,-16.5"/>
<polygon fill="#191970" stroke="#191970" points="401.0275,-13.0001 391.0275,-16.5 401.0275,-20.0001 401.0275,-13.0001"/>
</g>
</g>
</svg>
