<?xml version="1.0" encoding="UTF-8" standalone="no"?>
<!DOCTYPE svg PUBLIC "-//W3C//DTD SVG 1.1//EN"
 "http://www.w3.org/Graphics/SVG/1.1/DTD/svg11.dtd">
<!-- Generated by graphviz version 2.40.1 (20161225.0304)
 -->
<!-- Title: EicRoot/blob/master/cbmdata/CbmBaseHit.cxx Pages: 1 -->
<svg width="829pt" height="212pt"
 viewBox="0.00 0.00 829.00 212.00" xmlns="http://www.w3.org/2000/svg" xmlns:xlink="http://www.w3.org/1999/xlink">
<g id="graph0" class="graph" transform="scale(1 1) rotate(0) translate(4 208)">
<title>EicRoot/blob/master/cbmdata/CbmBaseHit.cxx</title>
<!-- Node1 -->
<g id="node1" class="node">
<title>Node1</title>
<polygon fill="#bfbfbf" stroke="#000000" points="216.5,-171.5 216.5,-203.5 368.5,-203.5 368.5,-171.5 216.5,-171.5"/>
<text text-anchor="start" x="224.5" y="-190.5" font-family="FreeSans" font-size="10.00" fill="#000000">EicRoot/blob/master</text>
<text text-anchor="middle" x="292.5" y="-178.5" font-family="FreeSans" font-size="10.00" fill="#000000">/cbmdata/CbmBaseHit.cxx</text>
</g>
<!-- Node2 -->
<g id="node2" class="node">
<title>Node2</title>
<g id="a_node2"><a xlink:href="../../df/d4d/CbmBaseHit_8h.html" target="_top" xlink:title="CbmBaseHit.h">
<polygon fill="none" stroke="#000000" points="124.5,-114.5 124.5,-134.5 212.5,-134.5 212.5,-114.5 124.5,-114.5"/>
<text text-anchor="middle" x="168.5" y="-121.5" font-family="FreeSans" font-size="10.00" fill="#000000">CbmBaseHit.h</text>
</a>
</g>
</g>
<!-- Node1&#45;&gt;Node2 -->
<g id="edge1" class="edge">
<title>Node1&#45;&gt;Node2</title>
<path fill="none" stroke="#191970" d="M260.8887,-171.4394C241.3688,-161.5221 216.5097,-148.892 197.4958,-139.2317"/>
<polygon fill="#191970" stroke="#191970" points="198.9138,-136.0264 188.4131,-134.6171 195.743,-142.2671 198.9138,-136.0264"/>
</g>
<!-- Node5 -->
<g id="node5" class="node">
<title>Node5</title>
<g id="a_node5"><a xlink:href="../../d8/d4b/FairMultiLinkedData_8h.html" target="_top" xlink:title="FairMultiLinkedData.h">
<polygon fill="none" stroke="#000000" points="230,-114.5 230,-134.5 355,-134.5 355,-114.5 230,-114.5"/>
<text text-anchor="middle" x="292.5" y="-121.5" font-family="FreeSans" font-size="10.00" fill="#000000">FairMultiLinkedData.h</text>
</a>
</g>
</g>
<!-- Node1&#45;&gt;Node5 -->
<g id="edge4" class="edge">
<title>Node1&#45;&gt;Node5</title>
<path fill="none" stroke="#191970" d="M292.5,-171.2759C292.5,-163.2654 292.5,-153.5159 292.5,-144.9952"/>
<polygon fill="#191970" stroke="#191970" points="296.0001,-144.7512 292.5,-134.7513 289.0001,-144.7513 296.0001,-144.7512"/>
</g>
<!-- Node20 -->
<g id="node20" class="node">
<title>Node20</title>
<polygon fill="none" stroke="#bfbfbf" points="372.5,-114.5 372.5,-134.5 430.5,-134.5 430.5,-114.5 372.5,-114.5"/>
<text text-anchor="middle" x="401.5" y="-121.5" font-family="FreeSans" font-size="10.00" fill="#000000">memory</text>
</g>
<!-- Node1&#45;&gt;Node20 -->
<g id="edge24" class="edge">
<title>Node1&#45;&gt;Node20</title>
<path fill="none" stroke="#191970" d="M320.2873,-171.4394C337.2109,-161.6579 358.7001,-149.2376 375.322,-139.6304"/>
<polygon fill="#191970" stroke="#191970" points="377.0893,-142.6515 383.9958,-134.6171 373.5864,-136.591 377.0893,-142.6515"/>
</g>
<!-- Node3 -->
<g id="node3" class="node">
<title>Node3</title>
<polygon fill="none" stroke="#bfbfbf" points="181,-.5 181,-20.5 246,-20.5 246,-.5 181,-.5"/>
<text text-anchor="middle" x="213.5" y="-7.5" font-family="FreeSans" font-size="10.00" fill="#000000">TObject.h</text>
</g>
<!-- Node2&#45;&gt;Node3 -->
<g id="edge2" class="edge">
<title>Node2&#45;&gt;Node3</title>
<path fill="none" stroke="#191970" d="M172.4934,-114.3833C179.9467,-95.5017 196.0929,-54.598 205.7524,-30.1272"/>
<polygon fill="#191970" stroke="#191970" points="209.0346,-31.3446 209.4508,-20.7579 202.5235,-28.7744 209.0346,-31.3446"/>
</g>
<!-- Node4 -->
<g id="node4" class="node">
<title>Node4</title>
<polygon fill="none" stroke="#bfbfbf" points="0,-57.5 0,-77.5 45,-77.5 45,-57.5 0,-57.5"/>
<text text-anchor="middle" x="22.5" y="-64.5" font-family="FreeSans" font-size="10.00" fill="#000000">string</text>
</g>
<!-- Node2&#45;&gt;Node4 -->
<g id="edge3" class="edge">
<title>Node2&#45;&gt;Node4</title>
<path fill="none" stroke="#191970" d="M142.7342,-114.4408C118.1991,-104.862 81.1887,-90.4127 54.7157,-80.0774"/>
<polygon fill="#191970" stroke="#191970" points="55.7217,-76.7129 45.1336,-76.3364 53.1759,-83.2336 55.7217,-76.7129"/>
</g>
<!-- Node5&#45;&gt;Node3 -->
<g id="edge21" class="edge">
<title>Node5&#45;&gt;Node3</title>
<path fill="none" stroke="#191970" d="M321.6509,-114.3959C351.3469,-102.4825 390.6453,-81.212 372.5,-57 368.8845,-52.1757 301.7783,-33.7185 255.9132,-21.5593"/>
<polygon fill="#191970" stroke="#191970" points="256.756,-18.1619 246.1937,-18.9923 254.9685,-24.9298 256.756,-18.1619"/>
</g>
<!-- Node6 -->
<g id="node6" class="node">
<title>Node6</title>
<g id="a_node6"><a xlink:href="../../d2/d2b/FairLink_8h.html" target="_top" xlink:title="FairLink.h">
<polygon fill="none" stroke="#000000" points="101.5,-57.5 101.5,-77.5 165.5,-77.5 165.5,-57.5 101.5,-57.5"/>
<text text-anchor="middle" x="133.5" y="-64.5" font-family="FreeSans" font-size="10.00" fill="#000000">FairLink.h</text>
</a>
</g>
</g>
<!-- Node5&#45;&gt;Node6 -->
<g id="edge5" class="edge">
<title>Node5&#45;&gt;Node6</title>
<path fill="none" stroke="#191970" d="M264.44,-114.4408C238.5215,-105.1492 199.8197,-91.275 171.2083,-81.0181"/>
<polygon fill="#191970" stroke="#191970" points="172.141,-77.6344 161.5465,-77.5544 169.7787,-84.2238 172.141,-77.6344"/>
</g>
<!-- Node8 -->
<g id="node8" class="node">
<title>Node8</title>
<polygon fill="none" stroke="#bfbfbf" points="39,-.5 39,-20.5 84,-20.5 84,-.5 39,-.5"/>
<text text-anchor="middle" x="61.5" y="-7.5" font-family="FreeSans" font-size="10.00" fill="#000000">utility</text>
</g>
<!-- Node5&#45;&gt;Node8 -->
<g id="edge23" class="edge">
<title>Node5&#45;&gt;Node8</title>
<path fill="none" stroke="#191970" d="M238.4675,-114.4772C183.2014,-103.8253 103.8593,-87.2679 92.5,-78 78.0275,-66.192 70.0081,-46.1374 65.7725,-30.948"/>
<polygon fill="#191970" stroke="#191970" points="69.0984,-29.8148 63.3189,-20.9352 62.2996,-31.4808 69.0984,-29.8148"/>
</g>
<!-- Node10 -->
<g id="node10" class="node">
<title>Node10</title>
<g id="a_node10"><a xlink:href="../../d4/d92/FairRootManager_8h.html" target="_top" xlink:title="FairRootManager.h">
<polygon fill="none" stroke="#000000" points="420.5,-57.5 420.5,-77.5 530.5,-77.5 530.5,-57.5 420.5,-57.5"/>
<text text-anchor="middle" x="475.5" y="-64.5" font-family="FreeSans" font-size="10.00" fill="#000000">FairRootManager.h</text>
</a>
</g>
</g>
<!-- Node5&#45;&gt;Node10 -->
<g id="edge10" class="edge">
<title>Node5&#45;&gt;Node10</title>
<path fill="none" stroke="#191970" d="M324.7955,-114.4408C355.017,-105.0275 400.3394,-90.9107 433.388,-80.6169"/>
<polygon fill="#191970" stroke="#191970" points="434.7134,-83.8699 443.2201,-77.5544 432.6317,-77.1866 434.7134,-83.8699"/>
</g>
<!-- Node18 -->
<g id="node18" class="node">
<title>Node18</title>
<polygon fill="none" stroke="#bfbfbf" points="221.5,-57.5 221.5,-77.5 313.5,-77.5 313.5,-57.5 221.5,-57.5"/>
<text text-anchor="middle" x="267.5" y="-64.5" font-family="FreeSans" font-size="10.00" fill="#000000">TClonesArray.h</text>
</g>
<!-- Node5&#45;&gt;Node18 -->
<g id="edge20" class="edge">
<title>Node5&#45;&gt;Node18</title>
<path fill="none" stroke="#191970" d="M288.0305,-114.3095C284.6887,-106.6903 280.0191,-96.0435 275.9774,-86.8285"/>
<polygon fill="#191970" stroke="#191970" points="279.1527,-85.3543 271.9308,-77.6022 272.7422,-88.166 279.1527,-85.3543"/>
</g>
<!-- Node19 -->
<g id="node19" class="node">
<title>Node19</title>
<polygon fill="none" stroke="#bfbfbf" points="331.5,-57.5 331.5,-77.5 363.5,-77.5 363.5,-57.5 331.5,-57.5"/>
<text text-anchor="middle" x="347.5" y="-64.5" font-family="FreeSans" font-size="10.00" fill="#000000">set</text>
</g>
<!-- Node5&#45;&gt;Node19 -->
<g id="edge22" class="edge">
<title>Node5&#45;&gt;Node19</title>
<path fill="none" stroke="#191970" d="M302.3329,-114.3095C310.154,-106.204 321.2815,-94.672 330.5344,-85.0826"/>
<polygon fill="#191970" stroke="#191970" points="333.3272,-87.2288 337.7522,-77.6022 328.2898,-82.3681 333.3272,-87.2288"/>
</g>
<!-- Node6&#45;&gt;Node3 -->
<g id="edge6" class="edge">
<title>Node6&#45;&gt;Node3</title>
<path fill="none" stroke="#191970" d="M147.8024,-57.3095C159.7474,-48.7987 176.9945,-36.5102 190.8202,-26.6594"/>
<polygon fill="#191970" stroke="#191970" points="193.2082,-29.2555 199.3214,-20.6022 189.1462,-23.5545 193.2082,-29.2555"/>
</g>
<!-- Node7 -->
<g id="node7" class="node">
<title>Node7</title>
<polygon fill="none" stroke="#bfbfbf" points="264,-.5 264,-20.5 327,-20.5 327,-.5 264,-.5"/>
<text text-anchor="middle" x="295.5" y="-7.5" font-family="FreeSans" font-size="10.00" fill="#000000">TString.h</text>
</g>
<!-- Node6&#45;&gt;Node7 -->
<g id="edge7" class="edge">
<title>Node6&#45;&gt;Node7</title>
<path fill="none" stroke="#191970" d="M162.0894,-57.4408C188.6122,-48.1087 228.2736,-34.1537 257.4615,-23.8839"/>
<polygon fill="#191970" stroke="#191970" points="258.6529,-27.1751 266.9244,-20.5544 256.3295,-20.5719 258.6529,-27.1751"/>
</g>
<!-- Node6&#45;&gt;Node8 -->
<g id="edge8" class="edge">
<title>Node6&#45;&gt;Node8</title>
<path fill="none" stroke="#191970" d="M120.6278,-57.3095C109.9797,-48.8798 94.6502,-36.7439 82.2682,-26.9415"/>
<polygon fill="#191970" stroke="#191970" points="84.2737,-24.0651 74.2607,-20.6022 79.9287,-29.5535 84.2737,-24.0651"/>
</g>
<!-- Node9 -->
<g id="node9" class="node">
<title>Node9</title>
<polygon fill="none" stroke="#bfbfbf" points="102.5,-.5 102.5,-20.5 162.5,-20.5 162.5,-.5 102.5,-.5"/>
<text text-anchor="middle" x="132.5" y="-7.5" font-family="FreeSans" font-size="10.00" fill="#000000">iostream</text>
</g>
<!-- Node6&#45;&gt;Node9 -->
<g id="edge9" class="edge">
<title>Node6&#45;&gt;Node9</title>
<path fill="none" stroke="#191970" d="M133.3212,-57.3095C133.1918,-49.9335 133.0126,-39.72 132.8546,-30.715"/>
<polygon fill="#191970" stroke="#191970" points="136.3522,-30.5393 132.6772,-20.6022 129.3533,-30.6621 136.3522,-30.5393"/>
</g>
<!-- Node10&#45;&gt;Node3 -->
<g id="edge11" class="edge">
<title>Node10&#45;&gt;Node3</title>
<path fill="none" stroke="#191970" d="M424.4505,-57.412C381.8478,-48.8455 319.2904,-35.926 256.2596,-21.3488"/>
<polygon fill="#191970" stroke="#191970" points="256.6754,-17.8522 246.1424,-18.9955 255.0894,-24.6702 256.6754,-17.8522"/>
</g>
<!-- Node10&#45;&gt;Node7 -->
<g id="edge12" class="edge">
<title>Node10&#45;&gt;Node7</title>
<path fill="none" stroke="#191970" d="M443.734,-57.4408C414.0079,-48.0275 369.4285,-33.9107 336.9216,-23.6169"/>
<polygon fill="#191970" stroke="#191970" points="337.8408,-20.2367 327.2507,-20.5544 335.7275,-26.9101 337.8408,-20.2367"/>
</g>
<!-- Node11 -->
<g id="node11" class="node">
<title>Node11</title>
<polygon fill="none" stroke="#bfbfbf" points="518.5,-.5 518.5,-20.5 580.5,-20.5 580.5,-.5 518.5,-.5"/>
<text text-anchor="middle" x="549.5" y="-7.5" font-family="FreeSans" font-size="10.00" fill="#000000">TArrayI.h</text>
</g>
<!-- Node10&#45;&gt;Node11 -->
<g id="edge13" class="edge">
<title>Node10&#45;&gt;Node11</title>
<path fill="none" stroke="#191970" d="M488.7297,-57.3095C499.6736,-48.8798 515.429,-36.7439 528.1549,-26.9415"/>
<polygon fill="#191970" stroke="#191970" points="530.5984,-29.4773 536.3848,-20.6022 526.3267,-23.9318 530.5984,-29.4773"/>
</g>
<!-- Node12 -->
<g id="node12" class="node">
<title>Node12</title>
<polygon fill="none" stroke="#bfbfbf" points="598,-.5 598,-20.5 673,-20.5 673,-.5 598,-.5"/>
<text text-anchor="middle" x="635.5" y="-7.5" font-family="FreeSans" font-size="10.00" fill="#000000">TObjArray.h</text>
</g>
<!-- Node10&#45;&gt;Node12 -->
<g id="edge14" class="edge">
<title>Node10&#45;&gt;Node12</title>
<path fill="none" stroke="#191970" d="M503.7365,-57.4408C529.818,-48.1492 568.7632,-34.275 597.5545,-24.0181"/>
<polygon fill="#191970" stroke="#191970" points="599.0317,-27.2074 607.2772,-20.5544 596.6825,-20.6133 599.0317,-27.2074"/>
</g>
<!-- Node13 -->
<g id="node13" class="node">
<title>Node13</title>
<polygon fill="none" stroke="#bfbfbf" points="691.5,-.5 691.5,-20.5 741.5,-20.5 741.5,-.5 691.5,-.5"/>
<text text-anchor="middle" x="716.5" y="-7.5" font-family="FreeSans" font-size="10.00" fill="#000000">TFile.h</text>
</g>
<!-- Node10&#45;&gt;Node13 -->
<g id="edge15" class="edge">
<title>Node10&#45;&gt;Node13</title>
<path fill="none" stroke="#191970" d="M525.1188,-57.4975C564.9992,-49.1999 622.6383,-36.6298 681.4777,-21.1346"/>
<polygon fill="#191970" stroke="#191970" points="682.5478,-24.4718 691.3127,-18.5198 680.7492,-17.7068 682.5478,-24.4718"/>
</g>
<!-- Node14 -->
<g id="node14" class="node">
<title>Node14</title>
<polygon fill="none" stroke="#bfbfbf" points="760,-.5 760,-20.5 821,-20.5 821,-.5 760,-.5"/>
<text text-anchor="middle" x="790.5" y="-7.5" font-family="FreeSans" font-size="10.00" fill="#000000">TChain.h</text>
</g>
<!-- Node10&#45;&gt;Node14 -->
<g id="edge16" class="edge">
<title>Node10&#45;&gt;Node14</title>
<path fill="none" stroke="#191970" d="M530.5602,-59.6678C584.099,-51.7194 667.8999,-38.4014 749.9919,-20.9557"/>
<polygon fill="#191970" stroke="#191970" points="750.9504,-24.3297 759.9925,-18.8078 749.4804,-17.4858 750.9504,-24.3297"/>
</g>
<!-- Node15 -->
<g id="node15" class="node">
<title>Node15</title>
<polygon fill="none" stroke="#bfbfbf" points="345,-.5 345,-20.5 384,-20.5 384,-.5 345,-.5"/>
<text text-anchor="middle" x="364.5" y="-7.5" font-family="FreeSans" font-size="10.00" fill="#000000">map</text>
</g>
<!-- Node10&#45;&gt;Node15 -->
<g id="edge17" class="edge">
<title>Node10&#45;&gt;Node15</title>
<path fill="none" stroke="#191970" d="M455.9109,-57.4408C438.5815,-48.5419 413.0662,-35.4394 393.3934,-25.3371"/>
<polygon fill="#191970" stroke="#191970" points="394.7611,-22.105 384.2666,-20.6504 391.5634,-28.332 394.7611,-22.105"/>
</g>
<!-- Node16 -->
<g id="node16" class="node">
<title>Node16</title>
<polygon fill="none" stroke="#bfbfbf" points="402.5,-.5 402.5,-20.5 434.5,-20.5 434.5,-.5 402.5,-.5"/>
<text text-anchor="middle" x="418.5" y="-7.5" font-family="FreeSans" font-size="10.00" fill="#000000">list</text>
</g>
<!-- Node10&#45;&gt;Node16 -->
<g id="edge18" class="edge">
<title>Node10&#45;&gt;Node16</title>
<path fill="none" stroke="#191970" d="M465.3095,-57.3095C457.1229,-49.1229 445.441,-37.441 435.7955,-27.7955"/>
<polygon fill="#191970" stroke="#191970" points="438.1482,-25.1984 428.6022,-20.6022 433.1984,-30.1482 438.1482,-25.1984"/>
</g>
<!-- Node17 -->
<g id="node17" class="node">
<title>Node17</title>
<polygon fill="none" stroke="#bfbfbf" points="452.5,-.5 452.5,-20.5 500.5,-20.5 500.5,-.5 452.5,-.5"/>
<text text-anchor="middle" x="476.5" y="-7.5" font-family="FreeSans" font-size="10.00" fill="#000000">queue</text>
</g>
<!-- Node10&#45;&gt;Node17 -->
<g id="edge19" class="edge">
<title>Node10&#45;&gt;Node17</title>
<path fill="none" stroke="#191970" d="M475.6788,-57.3095C475.8082,-49.9335 475.9874,-39.72 476.1454,-30.715"/>
<polygon fill="#191970" stroke="#191970" points="479.6467,-30.6621 476.3228,-20.6022 472.6478,-30.5393 479.6467,-30.6621"/>
</g>
</g>
</svg>
