<?xml version="1.0" encoding="UTF-8" standalone="no"?>
<!DOCTYPE svg PUBLIC "-//W3C//DTD SVG 1.1//EN"
 "http://www.w3.org/Graphics/SVG/1.1/DTD/svg11.dtd">
<!-- Generated by graphviz version 2.40.1 (20161225.0304)
 -->
<!-- Title: fun4all_coresoftware/blob/master/offline/packages/trackreco/PHInitVertexing.h Pages: 1 -->
<svg width="1307pt" height="320pt"
 viewBox="0.00 0.00 1307.00 320.00" xmlns="http://www.w3.org/2000/svg" xmlns:xlink="http://www.w3.org/1999/xlink">
<g id="graph0" class="graph" transform="scale(1 1) rotate(0) translate(4 316)">
<title>fun4all_coresoftware/blob/master/offline/packages/trackreco/PHInitVertexing.h</title>
<!-- Node1 -->
<g id="node1" class="node">
<title>Node1</title>
<polygon fill="#bfbfbf" stroke="#000000" points="413.5,-267.5 413.5,-311.5 623.5,-311.5 623.5,-267.5 413.5,-267.5"/>
<text text-anchor="start" x="421.5" y="-298.5" font-family="FreeSans" font-size="10.00" fill="#000000">fun4all_coresoftware</text>
<text text-anchor="start" x="421.5" y="-286.5" font-family="FreeSans" font-size="10.00" fill="#000000">/blob/master/offline</text>
<text text-anchor="middle" x="518.5" y="-274.5" font-family="FreeSans" font-size="10.00" fill="#000000">/packages/trackreco/PHInitVertexing.h</text>
</g>
<!-- Node2 -->
<g id="node2" class="node">
<title>Node2</title>
<g id="a_node2"><a xlink:href="../../d5/dce/PHActsInitialVertexFinder_8h.html" target="_top" xlink:title="fun4all_coresoftware\l/blob/master/offline\l/packages/trackreco/PHActsInitial\lVertexFinder.h">
<polygon fill="none" stroke="#000000" points="0,-174.5 0,-230.5 185,-230.5 185,-174.5 0,-174.5"/>
<text text-anchor="start" x="8" y="-217.5" font-family="FreeSans" font-size="10.00" fill="#000000">fun4all_coresoftware</text>
<text text-anchor="start" x="8" y="-205.5" font-family="FreeSans" font-size="10.00" fill="#000000">/blob/master/offline</text>
<text text-anchor="start" x="8" y="-193.5" font-family="FreeSans" font-size="10.00" fill="#000000">/packages/trackreco/PHActsInitial</text>
<text text-anchor="middle" x="92.5" y="-181.5" font-family="FreeSans" font-size="10.00" fill="#000000">VertexFinder.h</text>
</a>
</g>
</g>
<!-- Node1&#45;&gt;Node2 -->
<g id="edge1" class="edge">
<title>Node1&#45;&gt;Node2</title>
<path fill="none" stroke="#191970" d="M403.0766,-271.3656C340.9782,-260.9297 263.238,-246.772 194.5,-231 191.4534,-230.301 188.3617,-229.5691 185.2442,-228.8118"/>
<polygon fill="#191970" stroke="#191970" points="402.8579,-274.8775 413.298,-273.0735 404.0116,-267.9732 402.8579,-274.8775"/>
</g>
<!-- Node4 -->
<g id="node4" class="node">
<title>Node4</title>
<g id="a_node4"><a xlink:href="../../d2/d3e/PHActsVertexFinder_8h.html" target="_top" xlink:title="fun4all_coresoftware\l/blob/master/offline\l/packages/trackreco/PHActsVertex\lFinder.h">
<polygon fill="none" stroke="#000000" points="203.5,-174.5 203.5,-230.5 393.5,-230.5 393.5,-174.5 203.5,-174.5"/>
<text text-anchor="start" x="211.5" y="-217.5" font-family="FreeSans" font-size="10.00" fill="#000000">fun4all_coresoftware</text>
<text text-anchor="start" x="211.5" y="-205.5" font-family="FreeSans" font-size="10.00" fill="#000000">/blob/master/offline</text>
<text text-anchor="start" x="211.5" y="-193.5" font-family="FreeSans" font-size="10.00" fill="#000000">/packages/trackreco/PHActsVertex</text>
<text text-anchor="middle" x="298.5" y="-181.5" font-family="FreeSans" font-size="10.00" fill="#000000">Finder.h</text>
</a>
</g>
</g>
<!-- Node1&#45;&gt;Node4 -->
<g id="edge3" class="edge">
<title>Node1&#45;&gt;Node4</title>
<path fill="none" stroke="#191970" d="M453.2132,-263.682C426.9194,-253.284 396.518,-241.2617 369.6607,-230.6408"/>
<polygon fill="#191970" stroke="#191970" points="452.1139,-267.011 462.7003,-267.4338 454.6882,-260.5015 452.1139,-267.011"/>
</g>
<!-- Node6 -->
<g id="node6" class="node">
<title>Node6</title>
<g id="a_node6"><a xlink:href="../../d8/d2a/PHInitVertexing_8cc.html" target="_top" xlink:title="fun4all_coresoftware\l/blob/master/offline\l/packages/trackreco/PHInitVertexing.cc">
<polygon fill="none" stroke="#000000" points="411.5,-180.5 411.5,-224.5 625.5,-224.5 625.5,-180.5 411.5,-180.5"/>
<text text-anchor="start" x="419.5" y="-211.5" font-family="FreeSans" font-size="10.00" fill="#000000">fun4all_coresoftware</text>
<text text-anchor="start" x="419.5" y="-199.5" font-family="FreeSans" font-size="10.00" fill="#000000">/blob/master/offline</text>
<text text-anchor="middle" x="518.5" y="-187.5" font-family="FreeSans" font-size="10.00" fill="#000000">/packages/trackreco/PHInitVertexing.cc</text>
</a>
</g>
</g>
<!-- Node1&#45;&gt;Node6 -->
<g id="edge5" class="edge">
<title>Node1&#45;&gt;Node6</title>
<path fill="none" stroke="#191970" d="M518.5,-257.0893C518.5,-246.2369 518.5,-234.3979 518.5,-224.5276"/>
<polygon fill="#191970" stroke="#191970" points="515.0001,-257.0953 518.5,-267.0953 522.0001,-257.0954 515.0001,-257.0953"/>
</g>
<!-- Node7 -->
<g id="node7" class="node">
<title>Node7</title>
<g id="a_node7"><a xlink:href="../../dc/d50/PHInitZVertexing_8h.html" target="_top" xlink:title="fun4all_coresoftware\l/blob/master/offline\l/packages/trackreco/PHInitZVertexing.h">
<polygon fill="none" stroke="#000000" points="644,-180.5 644,-224.5 861,-224.5 861,-180.5 644,-180.5"/>
<text text-anchor="start" x="652" y="-211.5" font-family="FreeSans" font-size="10.00" fill="#000000">fun4all_coresoftware</text>
<text text-anchor="start" x="652" y="-199.5" font-family="FreeSans" font-size="10.00" fill="#000000">/blob/master/offline</text>
<text text-anchor="middle" x="752.5" y="-187.5" font-family="FreeSans" font-size="10.00" fill="#000000">/packages/trackreco/PHInitZVertexing.h</text>
</a>
</g>
</g>
<!-- Node1&#45;&gt;Node7 -->
<g id="edge6" class="edge">
<title>Node1&#45;&gt;Node7</title>
<path fill="none" stroke="#191970" d="M587.5886,-263.8132C621.1455,-251.3369 661.0584,-236.4975 693.2127,-224.5427"/>
<polygon fill="#191970" stroke="#191970" points="586.004,-260.6682 577.8506,-267.4338 588.4434,-267.2294 586.004,-260.6682"/>
</g>
<!-- Node15 -->
<g id="node15" class="node">
<title>Node15</title>
<g id="a_node15"><a xlink:href="../../d4/db5/PHTruthVertexing_8h.html" target="_top" xlink:title="Vertexing using truth info.">
<polygon fill="none" stroke="#000000" points="879,-180.5 879,-224.5 1098,-224.5 1098,-180.5 879,-180.5"/>
<text text-anchor="start" x="887" y="-211.5" font-family="FreeSans" font-size="10.00" fill="#000000">fun4all_coresoftware</text>
<text text-anchor="start" x="887" y="-199.5" font-family="FreeSans" font-size="10.00" fill="#000000">/blob/master/offline</text>
<text text-anchor="middle" x="988.5" y="-187.5" font-family="FreeSans" font-size="10.00" fill="#000000">/packages/trackreco/PHTruthVertexing.h</text>
</a>
</g>
</g>
<!-- Node1&#45;&gt;Node15 -->
<g id="edge14" class="edge">
<title>Node1&#45;&gt;Node15</title>
<path fill="none" stroke="#191970" d="M633.6218,-272.5184C702.5627,-261.8147 791.8123,-247.0194 870.5,-231 880.2062,-229.024 890.3258,-226.8129 900.3799,-224.5197"/>
<polygon fill="#191970" stroke="#191970" points="632.949,-269.0807 623.6012,-274.0676 634.0186,-275.9986 632.949,-269.0807"/>
</g>
<!-- Node3 -->
<g id="node3" class="node">
<title>Node3</title>
<g id="a_node3"><a xlink:href="../../d1/d49/PHActsInitialVertexFinder_8cc.html" target="_top" xlink:title="fun4all_coresoftware\l/blob/master/offline\l/packages/trackreco/PHActsInitial\lVertexFinder.cc">
<polygon fill="none" stroke="#000000" points="0,-81.5 0,-137.5 185,-137.5 185,-81.5 0,-81.5"/>
<text text-anchor="start" x="8" y="-124.5" font-family="FreeSans" font-size="10.00" fill="#000000">fun4all_coresoftware</text>
<text text-anchor="start" x="8" y="-112.5" font-family="FreeSans" font-size="10.00" fill="#000000">/blob/master/offline</text>
<text text-anchor="start" x="8" y="-100.5" font-family="FreeSans" font-size="10.00" fill="#000000">/packages/trackreco/PHActsInitial</text>
<text text-anchor="middle" x="92.5" y="-88.5" font-family="FreeSans" font-size="10.00" fill="#000000">VertexFinder.cc</text>
</a>
</g>
</g>
<!-- Node2&#45;&gt;Node3 -->
<g id="edge2" class="edge">
<title>Node2&#45;&gt;Node3</title>
<path fill="none" stroke="#191970" d="M92.5,-164.1582C92.5,-155.2499 92.5,-145.9293 92.5,-137.5597"/>
<polygon fill="#191970" stroke="#191970" points="89.0001,-164.3445 92.5,-174.3446 96.0001,-164.3446 89.0001,-164.3445"/>
</g>
<!-- Node5 -->
<g id="node5" class="node">
<title>Node5</title>
<g id="a_node5"><a xlink:href="../../da/d99/PHActsVertexFinder_8cc.html" target="_top" xlink:title="fun4all_coresoftware\l/blob/master/offline\l/packages/trackreco/PHActsVertex\lFinder.cc">
<polygon fill="none" stroke="#000000" points="203.5,-81.5 203.5,-137.5 393.5,-137.5 393.5,-81.5 203.5,-81.5"/>
<text text-anchor="start" x="211.5" y="-124.5" font-family="FreeSans" font-size="10.00" fill="#000000">fun4all_coresoftware</text>
<text text-anchor="start" x="211.5" y="-112.5" font-family="FreeSans" font-size="10.00" fill="#000000">/blob/master/offline</text>
<text text-anchor="start" x="211.5" y="-100.5" font-family="FreeSans" font-size="10.00" fill="#000000">/packages/trackreco/PHActsVertex</text>
<text text-anchor="middle" x="298.5" y="-88.5" font-family="FreeSans" font-size="10.00" fill="#000000">Finder.cc</text>
</a>
</g>
</g>
<!-- Node4&#45;&gt;Node5 -->
<g id="edge4" class="edge">
<title>Node4&#45;&gt;Node5</title>
<path fill="none" stroke="#191970" d="M298.5,-164.1582C298.5,-155.2499 298.5,-145.9293 298.5,-137.5597"/>
<polygon fill="#191970" stroke="#191970" points="295.0001,-164.3445 298.5,-174.3446 302.0001,-164.3446 295.0001,-164.3445"/>
</g>
<!-- Node8 -->
<g id="node8" class="node">
<title>Node8</title>
<g id="a_node8"><a xlink:href="../../d8/dda/PHInitZVertexing_8cc.html" target="_top" xlink:title="fun4all_coresoftware\l/blob/master/offline\l/packages/trackreco/PHInitZVertexing.cc">
<polygon fill="none" stroke="#000000" points="541,-87.5 541,-131.5 762,-131.5 762,-87.5 541,-87.5"/>
<text text-anchor="start" x="549" y="-118.5" font-family="FreeSans" font-size="10.00" fill="#000000">fun4all_coresoftware</text>
<text text-anchor="start" x="549" y="-106.5" font-family="FreeSans" font-size="10.00" fill="#000000">/blob/master/offline</text>
<text text-anchor="middle" x="651.5" y="-94.5" font-family="FreeSans" font-size="10.00" fill="#000000">/packages/trackreco/PHInitZVertexing.cc</text>
</a>
</g>
</g>
<!-- Node7&#45;&gt;Node8 -->
<g id="edge7" class="edge">
<title>Node7&#45;&gt;Node8</title>
<path fill="none" stroke="#191970" d="M721.151,-173.6341C706.4708,-160.1167 689.2561,-144.2655 675.6138,-131.7038"/>
<polygon fill="#191970" stroke="#191970" points="718.8372,-176.2613 728.5644,-180.4603 723.5788,-171.1118 718.8372,-176.2613"/>
</g>
<!-- Node9 -->
<g id="node9" class="node">
<title>Node9</title>
<g id="a_node9"><a xlink:href="../../da/d3c/G4__Tracking_8C.html" target="_top" xlink:title="fun4all_macros/blob\l/master/common/G4_Tracking.C">
<polygon fill="none" stroke="#000000" points="780,-93.5 780,-125.5 959,-125.5 959,-93.5 780,-93.5"/>
<text text-anchor="start" x="788" y="-112.5" font-family="FreeSans" font-size="10.00" fill="#000000">fun4all_macros/blob</text>
<text text-anchor="middle" x="869.5" y="-100.5" font-family="FreeSans" font-size="10.00" fill="#000000">/master/common/G4_Tracking.C</text>
</a>
</g>
</g>
<!-- Node7&#45;&gt;Node9 -->
<g id="edge8" class="edge">
<title>Node7&#45;&gt;Node9</title>
<path fill="none" stroke="#191970" d="M788.2372,-174.0935C808.2714,-158.1689 832.5255,-138.89 849.2933,-125.5617"/>
<polygon fill="#191970" stroke="#191970" points="785.8778,-171.4979 780.2274,-180.4603 790.2335,-176.9777 785.8778,-171.4979"/>
</g>
<!-- Node10 -->
<g id="node10" class="node">
<title>Node10</title>
<g id="a_node10"><a xlink:href="../../d7/d9e/Fun4All__G4__fsPHENIX_8C.html" target="_top" xlink:title="fun4all_macros/blob\l/master/detectors/fsPHENIX\l/Fun4All_G4_fsPHENIX.C">
<polygon fill="none" stroke="#000000" points="448,-.5 448,-44.5 605,-44.5 605,-.5 448,-.5"/>
<text text-anchor="start" x="456" y="-31.5" font-family="FreeSans" font-size="10.00" fill="#000000">fun4all_macros/blob</text>
<text text-anchor="start" x="456" y="-19.5" font-family="FreeSans" font-size="10.00" fill="#000000">/master/detectors/fsPHENIX</text>
<text text-anchor="middle" x="526.5" y="-7.5" font-family="FreeSans" font-size="10.00" fill="#000000">/Fun4All_G4_fsPHENIX.C</text>
</a>
</g>
</g>
<!-- Node9&#45;&gt;Node10 -->
<g id="edge9" class="edge">
<title>Node9&#45;&gt;Node10</title>
<path fill="none" stroke="#191970" d="M805.9505,-90.6473C794.1945,-87.3187 781.9995,-83.9712 770.5,-81 701.1876,-63.091 683.0497,-61.9639 613.5,-45 610.7718,-44.3346 607.9971,-43.6515 605.196,-42.9565"/>
<polygon fill="#191970" stroke="#191970" points="805.1207,-94.0502 815.6974,-93.4302 807.0426,-87.3192 805.1207,-94.0502"/>
</g>
<!-- Node11 -->
<g id="node11" class="node">
<title>Node11</title>
<g id="a_node11"><a xlink:href="../../d9/d73/fun4all__macros_2blob_2master_2detectors_2sPHENIX_2Fun4All__G4__sPHENIX_8C.html" target="_top" xlink:title="fun4all_macros/blob\l/master/detectors/sPHENIX\l/Fun4All_G4_sPHENIX.C">
<polygon fill="none" stroke="#000000" points="623,-.5 623,-44.5 776,-44.5 776,-.5 623,-.5"/>
<text text-anchor="start" x="631" y="-31.5" font-family="FreeSans" font-size="10.00" fill="#000000">fun4all_macros/blob</text>
<text text-anchor="start" x="631" y="-19.5" font-family="FreeSans" font-size="10.00" fill="#000000">/master/detectors/sPHENIX</text>
<text text-anchor="middle" x="699.5" y="-7.5" font-family="FreeSans" font-size="10.00" fill="#000000">/Fun4All_G4_sPHENIX.C</text>
</a>
</g>
</g>
<!-- Node9&#45;&gt;Node11 -->
<g id="edge10" class="edge">
<title>Node9&#45;&gt;Node11</title>
<path fill="none" stroke="#191970" d="M828.7324,-88.6366C802.776,-75.353 769.1912,-58.1655 742.7649,-44.6415"/>
<polygon fill="#191970" stroke="#191970" points="827.4262,-91.8998 837.9227,-93.3399 830.6152,-85.6684 827.4262,-91.8998"/>
</g>
<!-- Node12 -->
<g id="node12" class="node">
<title>Node12</title>
<g id="a_node12"><a xlink:href="../../db/dc0/Fun4All__AnaTutorial_8C.html" target="_top" xlink:title="fun4all_tutorials/blob\l/master/AnaTutorial/macro\l/Fun4All_AnaTutorial.C">
<polygon fill="none" stroke="#000000" points="794,-.5 794,-44.5 945,-44.5 945,-.5 794,-.5"/>
<text text-anchor="start" x="802" y="-31.5" font-family="FreeSans" font-size="10.00" fill="#000000">fun4all_tutorials/blob</text>
<text text-anchor="start" x="802" y="-19.5" font-family="FreeSans" font-size="10.00" fill="#000000">/master/AnaTutorial/macro</text>
<text text-anchor="middle" x="869.5" y="-7.5" font-family="FreeSans" font-size="10.00" fill="#000000">/Fun4All_AnaTutorial.C</text>
</a>
</g>
</g>
<!-- Node9&#45;&gt;Node12 -->
<g id="edge11" class="edge">
<title>Node9&#45;&gt;Node12</title>
<path fill="none" stroke="#191970" d="M869.5,-83.039C869.5,-70.7823 869.5,-56.3821 869.5,-44.7018"/>
<polygon fill="#191970" stroke="#191970" points="866.0001,-83.1359 869.5,-93.136 873.0001,-83.136 866.0001,-83.1359"/>
</g>
<!-- Node13 -->
<g id="node13" class="node">
<title>Node13</title>
<g id="a_node13"><a xlink:href="../../dd/d28/Fun4All__AnaTutorial__Jets_8C.html" target="_top" xlink:title="fun4all_tutorials/blob\l/master/AnaTutorial/macro\l/Fun4All_AnaTutorial_Jets.C">
<polygon fill="none" stroke="#000000" points="963,-.5 963,-44.5 1116,-44.5 1116,-.5 963,-.5"/>
<text text-anchor="start" x="971" y="-31.5" font-family="FreeSans" font-size="10.00" fill="#000000">fun4all_tutorials/blob</text>
<text text-anchor="start" x="971" y="-19.5" font-family="FreeSans" font-size="10.00" fill="#000000">/master/AnaTutorial/macro</text>
<text text-anchor="middle" x="1039.5" y="-7.5" font-family="FreeSans" font-size="10.00" fill="#000000">/Fun4All_AnaTutorial_Jets.C</text>
</a>
</g>
</g>
<!-- Node9&#45;&gt;Node13 -->
<g id="edge12" class="edge">
<title>Node9&#45;&gt;Node13</title>
<path fill="none" stroke="#191970" d="M910.2676,-88.6366C936.224,-75.353 969.8088,-58.1655 996.2351,-44.6415"/>
<polygon fill="#191970" stroke="#191970" points="908.3848,-85.6684 901.0773,-93.3399 911.5738,-91.8998 908.3848,-85.6684"/>
</g>
<!-- Node14 -->
<g id="node14" class="node">
<title>Node14</title>
<g id="a_node14"><a xlink:href="../../d2/dbf/fun4all__tutorials_2blob_2master_2materialscan_2Fun4All__G4__sPHENIX_8C.html" target="_top" xlink:title="fun4all_tutorials/blob\l/master/materialscan/Fun4All\l_G4_sPHENIX.C">
<polygon fill="none" stroke="#000000" points="1134,-.5 1134,-44.5 1299,-44.5 1299,-.5 1134,-.5"/>
<text text-anchor="start" x="1142" y="-31.5" font-family="FreeSans" font-size="10.00" fill="#000000">fun4all_tutorials/blob</text>
<text text-anchor="start" x="1142" y="-19.5" font-family="FreeSans" font-size="10.00" fill="#000000">/master/materialscan/Fun4All</text>
<text text-anchor="middle" x="1216.5" y="-7.5" font-family="FreeSans" font-size="10.00" fill="#000000">_G4_sPHENIX.C</text>
</a>
</g>
</g>
<!-- Node9&#45;&gt;Node14 -->
<g id="edge13" class="edge">
<title>Node9&#45;&gt;Node14</title>
<path fill="none" stroke="#191970" d="M933.0495,-90.6473C944.8055,-87.3187 957.0005,-83.9712 968.5,-81 1037.8124,-63.091 1055.8606,-61.5921 1125.5,-45 1128.1913,-44.3588 1130.9265,-43.7035 1133.6878,-43.0388"/>
<polygon fill="#191970" stroke="#191970" points="931.9574,-87.3192 923.3026,-93.4302 933.8793,-94.0502 931.9574,-87.3192"/>
</g>
<!-- Node15&#45;&gt;Node9 -->
<g id="edge16" class="edge">
<title>Node15&#45;&gt;Node9</title>
<path fill="none" stroke="#191970" d="M952.1519,-174.0935C931.7752,-158.1689 907.1065,-138.89 890.0521,-125.5617"/>
<polygon fill="#191970" stroke="#191970" points="950.2642,-177.0603 960.2987,-180.4603 954.5746,-171.5448 950.2642,-177.0603"/>
</g>
<!-- Node16 -->
<g id="node16" class="node">
<title>Node16</title>
<g id="a_node16"><a xlink:href="../../d1/d0a/PHTruthVertexing_8cc.html" target="_top" xlink:title="fun4all_coresoftware\l/blob/master/offline\l/packages/trackreco/PHTruthVertexing.cc">
<polygon fill="none" stroke="#000000" points="977.5,-87.5 977.5,-131.5 1201.5,-131.5 1201.5,-87.5 977.5,-87.5"/>
<text text-anchor="start" x="985.5" y="-118.5" font-family="FreeSans" font-size="10.00" fill="#000000">fun4all_coresoftware</text>
<text text-anchor="start" x="985.5" y="-106.5" font-family="FreeSans" font-size="10.00" fill="#000000">/blob/master/offline</text>
<text text-anchor="middle" x="1089.5" y="-94.5" font-family="FreeSans" font-size="10.00" fill="#000000">/packages/trackreco/PHTruthVertexing.cc</text>
</a>
</g>
</g>
<!-- Node15&#45;&gt;Node16 -->
<g id="edge15" class="edge">
<title>Node15&#45;&gt;Node16</title>
<path fill="none" stroke="#191970" d="M1019.849,-173.6341C1034.5292,-160.1167 1051.7439,-144.2655 1065.3862,-131.7038"/>
<polygon fill="#191970" stroke="#191970" points="1017.4212,-171.1118 1012.4356,-180.4603 1022.1628,-176.2613 1017.4212,-171.1118"/>
</g>
</g>
</svg>
