<?xml version="1.0" encoding="UTF-8" standalone="no"?>
<!DOCTYPE svg PUBLIC "-//W3C//DTD SVG 1.1//EN"
 "http://www.w3.org/Graphics/SVG/1.1/DTD/svg11.dtd">
<!-- Generated by graphviz version 2.40.1 (20161225.0304)
 -->
<!-- Title: fun4all_acts/blob/master/Tests/UnitTests/Core/EventData/CurvilinearParametersTests.cpp Pages: 1 -->
<svg width="3065pt" height="788pt"
 viewBox="0.00 0.00 3065.19 788.00" xmlns="http://www.w3.org/2000/svg" xmlns:xlink="http://www.w3.org/1999/xlink">
<g id="graph0" class="graph" transform="scale(1 1) rotate(0) translate(4 784)">
<title>fun4all_acts/blob/master/Tests/UnitTests/Core/EventData/CurvilinearParametersTests.cpp</title>
<!-- Node1 -->
<g id="node1" class="node">
<title>Node1</title>
<polygon fill="#bfbfbf" stroke="#000000" points="2599.1912,-735.5 2599.1912,-779.5 2779.1912,-779.5 2779.1912,-735.5 2599.1912,-735.5"/>
<text text-anchor="start" x="2607.1912" y="-766.5" font-family="FreeSans" font-size="10.00" fill="#000000">fun4all_acts/blob/master</text>
<text text-anchor="start" x="2607.1912" y="-754.5" font-family="FreeSans" font-size="10.00" fill="#000000">/Tests/UnitTests/Core/EventData</text>
<text text-anchor="middle" x="2689.1912" y="-742.5" font-family="FreeSans" font-size="10.00" fill="#000000">/CurvilinearParametersTests.cpp</text>
</g>
<!-- Node2 -->
<g id="node2" class="node">
<title>Node2</title>
<polygon fill="none" stroke="#bfbfbf" points="2526.6912,-546.5 2526.6912,-566.5 2663.6912,-566.5 2663.6912,-546.5 2526.6912,-546.5"/>
<text text-anchor="middle" x="2595.1912" y="-553.5" font-family="FreeSans" font-size="10.00" fill="#000000">boost/test/unit_test.hpp</text>
</g>
<!-- Node1&#45;&gt;Node2 -->
<g id="edge1" class="edge">
<title>Node1&#45;&gt;Node2</title>
<path fill="none" stroke="#191970" d="M2642.5205,-735.4635C2628.1132,-726.2689 2613.7884,-714.1461 2605.1912,-699 2583.2515,-660.3475 2587.1287,-605.9783 2591.4287,-576.8391"/>
<polygon fill="#191970" stroke="#191970" points="2594.9327,-577.1004 2593.104,-566.6645 2588.0257,-575.963 2594.9327,-577.1004"/>
</g>
<!-- Node3 -->
<g id="node3" class="node">
<title>Node3</title>
<g id="a_node3"><a xlink:href="../../d3/df6/NeutralParameters_8hpp.html" target="_top" xlink:title="Acts/EventData/NeutralParameters.hpp">
<polygon fill="none" stroke="#000000" points="1139.1912,-678.5 1139.1912,-698.5 1355.1912,-698.5 1355.1912,-678.5 1139.1912,-678.5"/>
<text text-anchor="middle" x="1247.1912" y="-685.5" font-family="FreeSans" font-size="10.00" fill="#000000">Acts/EventData/NeutralParameters.hpp</text>
</a>
</g>
</g>
<!-- Node1&#45;&gt;Node3 -->
<g id="edge2" class="edge">
<title>Node1&#45;&gt;Node3</title>
<path fill="none" stroke="#191970" d="M2598.9877,-753.1837C2348.8951,-741.2168 1646.6681,-707.6151 1365.6373,-694.1677"/>
<polygon fill="#191970" stroke="#191970" points="1365.5689,-690.6605 1355.4131,-693.6784 1365.2343,-697.6525 1365.5689,-690.6605"/>
</g>
<!-- Node15 -->
<g id="node15" class="node">
<title>Node15</title>
<g id="a_node15"><a xlink:href="../../d6/d1d/Definitions_8hpp.html" target="_top" xlink:title="Acts/Utilities/Definitions.hpp">
<polygon fill="none" stroke="#000000" points="1812.1912,-57.5 1812.1912,-77.5 1972.1912,-77.5 1972.1912,-57.5 1812.1912,-57.5"/>
<text text-anchor="middle" x="1892.1912" y="-64.5" font-family="FreeSans" font-size="10.00" fill="#000000">Acts/Utilities/Definitions.hpp</text>
</a>
</g>
</g>
<!-- Node1&#45;&gt;Node15 -->
<g id="edge110" class="edge">
<title>Node1&#45;&gt;Node15</title>
<path fill="none" stroke="#191970" d="M2779.2133,-737.4384C2835.4277,-718.9985 2897.1912,-685.1627 2897.1912,-625.5 2897.1912,-625.5 2897.1912,-625.5 2897.1912,-205.5 2897.1912,-147.8313 2857.9233,-137.3453 2805.1912,-114 2731.3512,-81.3098 2197.8804,-71.2079 1982.2586,-68.4399"/>
<polygon fill="#191970" stroke="#191970" points="1982.2776,-64.9399 1972.2342,-68.3136 1982.1893,-71.9394 1982.2776,-64.9399"/>
</g>
<!-- Node46 -->
<g id="node46" class="node">
<title>Node46</title>
<g id="a_node46"><a xlink:href="../../d8/d81/TrackParameters_8hpp.html" target="_top" xlink:title="Acts/EventData/TrackParameters.hpp">
<polygon fill="none" stroke="#000000" points="879.6912,-678.5 879.6912,-698.5 1084.6912,-698.5 1084.6912,-678.5 879.6912,-678.5"/>
<text text-anchor="middle" x="982.1912" y="-685.5" font-family="FreeSans" font-size="10.00" fill="#000000">Acts/EventData/TrackParameters.hpp</text>
</a>
</g>
</g>
<!-- Node1&#45;&gt;Node46 -->
<g id="edge99" class="edge">
<title>Node1&#45;&gt;Node46</title>
<path fill="none" stroke="#191970" d="M2599.0765,-755.169C2359.7477,-748.7508 1688.3385,-729.2627 1130.1912,-699 1118.7372,-698.379 1106.7898,-697.6563 1094.8672,-696.8861"/>
<polygon fill="#191970" stroke="#191970" points="1095.0774,-693.3924 1084.8694,-696.2291 1094.6184,-700.3774 1095.0774,-693.3924"/>
</g>
<!-- Node47 -->
<g id="node47" class="node">
<title>Node47</title>
<g id="a_node47"><a xlink:href="../../d4/d47/FloatComparisons_8hpp.html" target="_top" xlink:title="Acts/Tests/CommonHelpers\l/FloatComparisons.hpp">
<polygon fill="none" stroke="#000000" points="2713.6912,-609.5 2713.6912,-641.5 2868.6912,-641.5 2868.6912,-609.5 2713.6912,-609.5"/>
<text text-anchor="start" x="2721.6912" y="-628.5" font-family="FreeSans" font-size="10.00" fill="#000000">Acts/Tests/CommonHelpers</text>
<text text-anchor="middle" x="2791.1912" y="-616.5" font-family="FreeSans" font-size="10.00" fill="#000000">/FloatComparisons.hpp</text>
</a>
</g>
</g>
<!-- Node1&#45;&gt;Node47 -->
<g id="edge105" class="edge">
<title>Node1&#45;&gt;Node47</title>
<path fill="none" stroke="#191970" d="M2732.4913,-735.2398C2747.0103,-725.8413 2762.0655,-713.646 2772.1912,-699 2781.781,-685.1292 2786.531,-666.764 2788.8836,-651.8616"/>
<polygon fill="#191970" stroke="#191970" points="2792.3814,-652.1056 2790.2078,-641.7361 2785.4405,-651.1977 2792.3814,-652.1056"/>
</g>
<!-- Node49 -->
<g id="node49" class="node">
<title>Node49</title>
<g id="a_node49"><a xlink:href="../../df/d6f/Units_8hpp.html" target="_top" xlink:title="Acts/Utilities/Units.hpp">
<polygon fill="none" stroke="#000000" points="2925.1912,-678.5 2925.1912,-698.5 3057.1912,-698.5 3057.1912,-678.5 2925.1912,-678.5"/>
<text text-anchor="middle" x="2991.1912" y="-685.5" font-family="FreeSans" font-size="10.00" fill="#000000">Acts/Utilities/Units.hpp</text>
</a>
</g>
</g>
<!-- Node1&#45;&gt;Node49 -->
<g id="edge111" class="edge">
<title>Node1&#45;&gt;Node49</title>
<path fill="none" stroke="#191970" d="M2779.3921,-736.8912C2830.8298,-725.1389 2893.5674,-710.8048 2937.3558,-700.8001"/>
<polygon fill="#191970" stroke="#191970" points="2938.2601,-704.1838 2947.2293,-698.5443 2936.7009,-697.3597 2938.2601,-704.1838"/>
</g>
<!-- Node50 -->
<g id="node50" class="node">
<title>Node50</title>
<g id="a_node50"><a xlink:href="../../d4/d08/ParametersTestHelper_8hpp.html" target="_top" xlink:title="ParametersTestHelper.hpp">
<polygon fill="none" stroke="#000000" points="2614.6912,-678.5 2614.6912,-698.5 2763.6912,-698.5 2763.6912,-678.5 2614.6912,-678.5"/>
<text text-anchor="middle" x="2689.1912" y="-685.5" font-family="FreeSans" font-size="10.00" fill="#000000">ParametersTestHelper.hpp</text>
</a>
</g>
</g>
<!-- Node1&#45;&gt;Node50 -->
<g id="edge112" class="edge">
<title>Node1&#45;&gt;Node50</title>
<path fill="none" stroke="#191970" d="M2689.1912,-735.2882C2689.1912,-726.8377 2689.1912,-717.2557 2689.1912,-708.9736"/>
<polygon fill="#191970" stroke="#191970" points="2692.6913,-708.7136 2689.1912,-698.7137 2685.6913,-708.7137 2692.6913,-708.7136"/>
</g>
<!-- Node4 -->
<g id="node4" class="node">
<title>Node4</title>
<g id="a_node4"><a xlink:href="../../d2/dc3/ChargePolicy_8hpp.html" target="_top" xlink:title="Acts/EventData/ChargePolicy.hpp">
<polygon fill="none" stroke="#000000" points="688.6912,-477.5 688.6912,-497.5 873.6912,-497.5 873.6912,-477.5 688.6912,-477.5"/>
<text text-anchor="middle" x="781.1912" y="-484.5" font-family="FreeSans" font-size="10.00" fill="#000000">Acts/EventData/ChargePolicy.hpp</text>
</a>
</g>
</g>
<!-- Node3&#45;&gt;Node4 -->
<g id="edge3" class="edge">
<title>Node3&#45;&gt;Node4</title>
<path fill="none" stroke="#191970" d="M1250.5563,-678.4541C1255.3707,-662.0257 1262.0113,-629.2207 1246.1912,-609 1201.0895,-551.3525 999.4104,-515.6547 876.9492,-498.8965"/>
<polygon fill="#191970" stroke="#191970" points="877.1927,-495.3976 866.8142,-497.528 876.2559,-502.3347 877.1927,-495.3976"/>
</g>
<!-- Node5 -->
<g id="node5" class="node">
<title>Node5</title>
<g id="a_node5"><a xlink:href="../../dd/d8e/SingleBoundTrackParameters_8hpp.html" target="_top" xlink:title="Acts/EventData/SingleBound\lTrackParameters.hpp">
<polygon fill="none" stroke="#000000" points="1075.1912,-609.5 1075.1912,-641.5 1237.1912,-641.5 1237.1912,-609.5 1075.1912,-609.5"/>
<text text-anchor="start" x="1083.1912" y="-628.5" font-family="FreeSans" font-size="10.00" fill="#000000">Acts/EventData/SingleBound</text>
<text text-anchor="middle" x="1156.1912" y="-616.5" font-family="FreeSans" font-size="10.00" fill="#000000">TrackParameters.hpp</text>
</a>
</g>
</g>
<!-- Node3&#45;&gt;Node5 -->
<g id="edge4" class="edge">
<title>Node3&#45;&gt;Node5</title>
<path fill="none" stroke="#191970" d="M1232.5705,-678.378C1220.6429,-670.1204 1203.3548,-658.1517 1188.2418,-647.6889"/>
<polygon fill="#191970" stroke="#191970" points="1189.8661,-644.5564 1179.6519,-641.742 1185.8816,-650.3118 1189.8661,-644.5564"/>
</g>
<!-- Node6 -->
<g id="node6" class="node">
<title>Node6</title>
<g id="a_node6"><a xlink:href="../../d9/d77/SingleTrackParameters_8hpp.html" target="_top" xlink:title="Acts/EventData/SingleTrack\lParameters.hpp">
<polygon fill="none" stroke="#000000" points="780.6912,-540.5 780.6912,-572.5 937.6912,-572.5 937.6912,-540.5 780.6912,-540.5"/>
<text text-anchor="start" x="788.6912" y="-559.5" font-family="FreeSans" font-size="10.00" fill="#000000">Acts/EventData/SingleTrack</text>
<text text-anchor="middle" x="859.1912" y="-547.5" font-family="FreeSans" font-size="10.00" fill="#000000">Parameters.hpp</text>
</a>
</g>
</g>
<!-- Node3&#45;&gt;Node6 -->
<g id="edge98" class="edge">
<title>Node3&#45;&gt;Node6</title>
<path fill="none" stroke="#191970" d="M1139.1422,-678.9038C1028.5673,-668.5636 871.5763,-652.22 862.1912,-642 847.7812,-626.308 848.5773,-601.3588 852.0634,-582.4523"/>
<polygon fill="#191970" stroke="#191970" points="855.4861,-583.1837 854.1973,-572.6676 848.6468,-581.6921 855.4861,-583.1837"/>
</g>
<!-- Node38 -->
<g id="node38" class="node">
<title>Node38</title>
<g id="a_node38"><a xlink:href="../../d6/dee/SingleCurvilinearTrackParameters_8hpp.html" target="_top" xlink:title="Acts/EventData/SingleCurvilinear\lTrackParameters.hpp">
<polygon fill="none" stroke="#000000" points="871.6912,-609.5 871.6912,-641.5 1056.6912,-641.5 1056.6912,-609.5 871.6912,-609.5"/>
<text text-anchor="start" x="879.6912" y="-628.5" font-family="FreeSans" font-size="10.00" fill="#000000">Acts/EventData/SingleCurvilinear</text>
<text text-anchor="middle" x="964.1912" y="-616.5" font-family="FreeSans" font-size="10.00" fill="#000000">TrackParameters.hpp</text>
</a>
</g>
</g>
<!-- Node3&#45;&gt;Node38 -->
<g id="edge73" class="edge">
<title>Node3&#45;&gt;Node38</title>
<path fill="none" stroke="#191970" d="M1202.0361,-678.4478C1160.1947,-669.1333 1096.9493,-655.0539 1046.1923,-643.7547"/>
<polygon fill="#191970" stroke="#191970" points="1046.7391,-640.2908 1036.2175,-641.5341 1045.218,-647.1235 1046.7391,-640.2908"/>
</g>
<!-- Node44 -->
<g id="node44" class="node">
<title>Node44</title>
<g id="a_node44"><a xlink:href="../../df/d16/SingleFreeParameters_8hpp.html" target="_top" xlink:title="Acts/EventData/SingleFree\lParameters.hpp">
<polygon fill="none" stroke="#000000" points="1718.6912,-540.5 1718.6912,-572.5 1869.6912,-572.5 1869.6912,-540.5 1718.6912,-540.5"/>
<text text-anchor="start" x="1726.6912" y="-559.5" font-family="FreeSans" font-size="10.00" fill="#000000">Acts/EventData/SingleFree</text>
<text text-anchor="middle" x="1794.1912" y="-547.5" font-family="FreeSans" font-size="10.00" fill="#000000">Parameters.hpp</text>
</a>
</g>
</g>
<!-- Node3&#45;&gt;Node44 -->
<g id="edge93" class="edge">
<title>Node3&#45;&gt;Node44</title>
<path fill="none" stroke="#191970" d="M1288.7541,-678.4702C1380.3271,-656.3721 1600.6262,-603.2104 1717.8364,-574.9257"/>
<polygon fill="#191970" stroke="#191970" points="1718.9166,-578.2655 1727.8165,-572.5173 1717.2745,-571.4609 1718.9166,-578.2655"/>
</g>
<!-- Node5&#45;&gt;Node6 -->
<g id="edge5" class="edge">
<title>Node5&#45;&gt;Node6</title>
<path fill="none" stroke="#191970" d="M1087.307,-609.4966C1042.7655,-599.1486 984.6566,-585.6485 938.2355,-574.8638"/>
<polygon fill="#191970" stroke="#191970" points="938.7484,-571.3898 928.2158,-572.536 937.1643,-578.2082 938.7484,-571.3898"/>
</g>
<!-- Node23 -->
<g id="node23" class="node">
<title>Node23</title>
<g id="a_node23"><a xlink:href="../../d1/db8/GeometryContext_8hpp.html" target="_top" xlink:title="Acts/Geometry/GeometryContext.hpp">
<polygon fill="none" stroke="#000000" points="929.1912,-270.5 929.1912,-290.5 1137.1912,-290.5 1137.1912,-270.5 929.1912,-270.5"/>
<text text-anchor="middle" x="1033.1912" y="-277.5" font-family="FreeSans" font-size="10.00" fill="#000000">Acts/Geometry/GeometryContext.hpp</text>
</a>
</g>
</g>
<!-- Node5&#45;&gt;Node23 -->
<g id="edge71" class="edge">
<title>Node5&#45;&gt;Node23</title>
<path fill="none" stroke="#191970" d="M1155.7072,-609.4407C1154.1682,-580.0139 1147.764,-516.3131 1121.1912,-471 1109.0923,-450.3684 1096.8357,-453.0914 1081.1912,-435 1057.0832,-407.1213 1046.2835,-401.148 1035.1912,-366 1028.3776,-344.4096 1028.9712,-318.2059 1030.5654,-300.5442"/>
<polygon fill="#191970" stroke="#191970" points="1034.0518,-300.8584 1031.6598,-290.5372 1027.0933,-300.0974 1034.0518,-300.8584"/>
</g>
<!-- Node25 -->
<g id="node25" class="node">
<title>Node25</title>
<g id="a_node25"><a xlink:href="../../d8/ddd/Surface_8hpp.html" target="_top" xlink:title="Acts/Surfaces/Surface.hpp">
<polygon fill="none" stroke="#000000" points="1315.1912,-408.5 1315.1912,-428.5 1465.1912,-428.5 1465.1912,-408.5 1315.1912,-408.5"/>
<text text-anchor="middle" x="1390.1912" y="-415.5" font-family="FreeSans" font-size="10.00" fill="#000000">Acts/Surfaces/Surface.hpp</text>
</a>
</g>
</g>
<!-- Node5&#45;&gt;Node25 -->
<g id="edge72" class="edge">
<title>Node5&#45;&gt;Node25</title>
<path fill="none" stroke="#191970" d="M1181.2397,-609.4338C1196.1756,-599.499 1215.2673,-586.1663 1231.1912,-573 1286.5041,-527.2659 1345.5965,-466.1856 1373.6158,-436.3797"/>
<polygon fill="#191970" stroke="#191970" points="1376.3917,-438.5356 1380.6657,-428.841 1371.279,-433.7543 1376.3917,-438.5356"/>
</g>
<!-- Node6&#45;&gt;Node4 -->
<g id="edge7" class="edge">
<title>Node6&#45;&gt;Node4</title>
<path fill="none" stroke="#191970" d="M841.1004,-540.4966C828.8439,-529.6543 812.6757,-515.3516 800.225,-504.3376"/>
<polygon fill="#191970" stroke="#191970" points="802.4675,-501.6484 792.6585,-497.6441 797.8295,-506.8914 802.4675,-501.6484"/>
</g>
<!-- Node7 -->
<g id="node7" class="node">
<title>Node7</title>
<polygon fill="none" stroke="#bfbfbf" points="9.1912,-57.5 9.1912,-77.5 79.1912,-77.5 79.1912,-57.5 9.1912,-57.5"/>
<text text-anchor="middle" x="44.1912" y="-64.5" font-family="FreeSans" font-size="10.00" fill="#000000">type_traits</text>
</g>
<!-- Node6&#45;&gt;Node7 -->
<g id="edge6" class="edge">
<title>Node6&#45;&gt;Node7</title>
<path fill="none" stroke="#191970" d="M780.5476,-544.1153C732.1486,-535.3838 669.2451,-522.0241 615.1912,-504 337.1193,-411.2778 174.2496,-474.8581 16.1912,-228 -11.1293,-185.3303 2.628,-162.8175 16.1912,-114 18.9405,-104.1047 24.4236,-94.2071 29.8145,-86.1025"/>
<polygon fill="#191970" stroke="#191970" points="32.7686,-87.9878 35.7113,-77.8099 27.0638,-83.9313 32.7686,-87.9878"/>
</g>
<!-- Node8 -->
<g id="node8" class="node">
<title>Node8</title>
<g id="a_node8"><a xlink:href="../../de/d01/ParameterSet_8hpp.html" target="_top" xlink:title="Acts/EventData/Parameter\lSet.hpp">
<polygon fill="none" stroke="#ff0000" points="481.6912,-264.5 481.6912,-296.5 632.6912,-296.5 632.6912,-264.5 481.6912,-264.5"/>
<text text-anchor="start" x="489.6912" y="-283.5" font-family="FreeSans" font-size="10.00" fill="#000000">Acts/EventData/Parameter</text>
<text text-anchor="middle" x="557.1912" y="-271.5" font-family="FreeSans" font-size="10.00" fill="#000000">Set.hpp</text>
</a>
</g>
</g>
<!-- Node6&#45;&gt;Node8 -->
<g id="edge8" class="edge">
<title>Node6&#45;&gt;Node8</title>
<path fill="none" stroke="#191970" d="M780.6715,-544.703C728.9715,-535.5283 667.2624,-521.4399 647.1912,-504 586.9929,-451.6934 566.5416,-353.3385 560.023,-306.5319"/>
<polygon fill="#191970" stroke="#191970" points="563.4899,-306.0493 558.7412,-296.5783 556.5472,-306.9435 563.4899,-306.0493"/>
</g>
<!-- Node6&#45;&gt;Node15 -->
<g id="edge70" class="edge">
<title>Node6&#45;&gt;Node15</title>
<path fill="none" stroke="#191970" d="M780.5267,-543.1669C738.1054,-534.201 691.8865,-520.9271 679.1912,-504 670.3912,-492.2667 673.0695,-484.328 679.1912,-471 693.9249,-438.9225 888.2094,-278.9404 920.1912,-264 1008.7656,-222.6223 1047.7802,-267.5372 1137.1912,-228 1166.7105,-214.9467 1165.3894,-197.5681 1194.1912,-183 1297.4302,-130.7811 1331.492,-135.3911 1445.1912,-114 1567.5682,-90.9763 1711.0927,-78.587 1801.8323,-72.521"/>
<polygon fill="#191970" stroke="#191970" points="1802.335,-75.9956 1812.0841,-71.8475 1801.8762,-69.0106 1802.335,-75.9956"/>
</g>
<!-- Node22 -->
<g id="node22" class="node">
<title>Node22</title>
<g id="a_node22"><a xlink:href="../../dc/d3e/coordinate__transformations_8hpp.html" target="_top" xlink:title="Acts/EventData/detail\l/coordinate_transformations.hpp">
<polygon fill="none" stroke="#000000" points="929.6912,-471.5 929.6912,-503.5 1112.6912,-503.5 1112.6912,-471.5 929.6912,-471.5"/>
<text text-anchor="start" x="937.6912" y="-490.5" font-family="FreeSans" font-size="10.00" fill="#000000">Acts/EventData/detail</text>
<text text-anchor="middle" x="1021.1912" y="-478.5" font-family="FreeSans" font-size="10.00" fill="#000000">/coordinate_transformations.hpp</text>
</a>
</g>
</g>
<!-- Node6&#45;&gt;Node22 -->
<g id="edge33" class="edge">
<title>Node6&#45;&gt;Node22</title>
<path fill="none" stroke="#191970" d="M896.7645,-540.4966C919.7865,-530.6909 949.4535,-518.055 974.0444,-507.5811"/>
<polygon fill="#191970" stroke="#191970" points="975.7128,-510.6748 983.5415,-503.536 972.9697,-504.2346 975.7128,-510.6748"/>
</g>
<!-- Node6&#45;&gt;Node23 -->
<g id="edge69" class="edge">
<title>Node6&#45;&gt;Node23</title>
<path fill="none" stroke="#191970" d="M866.3393,-540.4597C870.9318,-530.0866 876.9897,-516.2778 882.1912,-504 914.2258,-428.3846 899.7829,-396.2239 952.1912,-333 965.3331,-317.146 984.5218,-304.4156 1000.9241,-295.4631"/>
<polygon fill="#191970" stroke="#191970" points="1002.9419,-298.3584 1010.1928,-290.6334 999.7072,-292.1506 1002.9419,-298.3584"/>
</g>
<!-- Node8&#45;&gt;Node7 -->
<g id="edge11" class="edge">
<title>Node8&#45;&gt;Node7</title>
<path fill="none" stroke="#191970" d="M481.574,-275.5086C341.1342,-265.8731 52.8614,-244.2291 38.1912,-228 3.0965,-189.1761 22.6866,-121.0088 35.6406,-87.3931"/>
<polygon fill="#191970" stroke="#191970" points="39.0265,-88.3565 39.5355,-77.7739 32.5382,-85.7293 39.0265,-88.3565"/>
</g>
<!-- Node9 -->
<g id="node9" class="node">
<title>Node9</title>
<polygon fill="none" stroke="#bfbfbf" points="1051.1912,-195.5 1051.1912,-215.5 1109.1912,-215.5 1109.1912,-195.5 1051.1912,-195.5"/>
<text text-anchor="middle" x="1080.1912" y="-202.5" font-family="FreeSans" font-size="10.00" fill="#000000">memory</text>
</g>
<!-- Node8&#45;&gt;Node9 -->
<g id="edge9" class="edge">
<title>Node8&#45;&gt;Node9</title>
<path fill="none" stroke="#191970" d="M632.9566,-270.3988C650.1218,-268.2034 668.2752,-265.955 685.1912,-264 841.4119,-245.9457 886.5875,-273.2701 1037.1912,-228 1043.2908,-226.1665 1049.5375,-223.454 1055.3126,-220.5414"/>
<polygon fill="#191970" stroke="#191970" points="1057.3555,-223.415 1064.4771,-215.5707 1054.0181,-217.2618 1057.3555,-223.415"/>
</g>
<!-- Node10 -->
<g id="node10" class="node">
<title>Node10</title>
<polygon fill="none" stroke="#bfbfbf" points="341.6912,-195.5 341.6912,-215.5 398.6912,-215.5 398.6912,-195.5 341.6912,-195.5"/>
<text text-anchor="middle" x="370.1912" y="-202.5" font-family="FreeSans" font-size="10.00" fill="#000000">optional</text>
</g>
<!-- Node8&#45;&gt;Node10 -->
<g id="edge10" class="edge">
<title>Node8&#45;&gt;Node10</title>
<path fill="none" stroke="#191970" d="M503.7808,-264.4925C474.9304,-255.1507 439.0091,-242.3837 408.1912,-228 403.6537,-225.8822 398.958,-223.3805 394.4802,-220.8286"/>
<polygon fill="#191970" stroke="#191970" points="396.1015,-217.7208 385.7156,-215.627 392.5289,-223.7405 396.1015,-217.7208"/>
</g>
<!-- Node11 -->
<g id="node11" class="node">
<title>Node11</title>
<polygon fill="none" stroke="#bfbfbf" points="334.6912,-120.5 334.6912,-140.5 379.6912,-140.5 379.6912,-120.5 334.6912,-120.5"/>
<text text-anchor="middle" x="357.1912" y="-127.5" font-family="FreeSans" font-size="10.00" fill="#000000">utility</text>
</g>
<!-- Node8&#45;&gt;Node11 -->
<g id="edge12" class="edge">
<title>Node8&#45;&gt;Node11</title>
<path fill="none" stroke="#191970" d="M561.6045,-264.3235C566.3232,-243.1625 570.831,-206.0728 552.1912,-183 531.9307,-157.9209 440.1342,-141.7795 390.0461,-134.678"/>
<polygon fill="#191970" stroke="#191970" points="390.4155,-131.1959 380.0317,-133.2998 389.4611,-138.1306 390.4155,-131.1959"/>
</g>
<!-- Node12 -->
<g id="node12" class="node">
<title>Node12</title>
<g id="a_node12"><a xlink:href="../../db/d16/full__parameter__set_8hpp.html" target="_top" xlink:title="Acts/EventData/detail\l/full_parameter_set.hpp">
<polygon fill="none" stroke="#000000" points="47.1912,-189.5 47.1912,-221.5 185.1912,-221.5 185.1912,-189.5 47.1912,-189.5"/>
<text text-anchor="start" x="55.1912" y="-208.5" font-family="FreeSans" font-size="10.00" fill="#000000">Acts/EventData/detail</text>
<text text-anchor="middle" x="116.1912" y="-196.5" font-family="FreeSans" font-size="10.00" fill="#000000">/full_parameter_set.hpp</text>
</a>
</g>
</g>
<!-- Node8&#45;&gt;Node12 -->
<g id="edge13" class="edge">
<title>Node8&#45;&gt;Node12</title>
<path fill="none" stroke="#191970" d="M481.5703,-272.6267C407.7657,-264.2241 292.5428,-249.1928 194.1912,-228 188.8524,-226.8496 183.3427,-225.5319 177.8362,-224.124"/>
<polygon fill="#191970" stroke="#191970" points="178.5283,-220.6867 167.9654,-221.5089 176.7355,-227.4532 178.5283,-220.6867"/>
</g>
<!-- Node13 -->
<g id="node13" class="node">
<title>Node13</title>
<g id="a_node13"><a xlink:href="../../d8/dfd/ParameterDefinitions_8hpp.html" target="_top" xlink:title="Acts/Utilities/Parameter\lDefinitions.hpp">
<polygon fill="none" stroke="#ff0000" points="669.1912,-114.5 669.1912,-146.5 805.1912,-146.5 805.1912,-114.5 669.1912,-114.5"/>
<text text-anchor="start" x="677.1912" y="-133.5" font-family="FreeSans" font-size="10.00" fill="#000000">Acts/Utilities/Parameter</text>
<text text-anchor="middle" x="737.1912" y="-121.5" font-family="FreeSans" font-size="10.00" fill="#000000">Definitions.hpp</text>
</a>
</g>
</g>
<!-- Node8&#45;&gt;Node13 -->
<g id="edge31" class="edge">
<title>Node8&#45;&gt;Node13</title>
<path fill="none" stroke="#191970" d="M566.7097,-264.1977C579.6012,-243.2354 604.3444,-206.7157 633.1912,-183 648.8905,-170.0932 668.2885,-159.2301 686.0629,-150.7947"/>
<polygon fill="#191970" stroke="#191970" points="687.5548,-153.9611 695.1816,-146.6069 684.6334,-147.5998 687.5548,-153.9611"/>
</g>
<!-- Node8&#45;&gt;Node15 -->
<g id="edge30" class="edge">
<title>Node8&#45;&gt;Node15</title>
<path fill="none" stroke="#191970" d="M632.9956,-270.7184C650.1588,-268.5065 668.3015,-266.1705 685.1912,-264 747.6326,-255.9757 917.5668,-267.9872 966.1912,-228 1007.4415,-194.0771 961.6965,-146.3504 1004.1912,-114 1035.5535,-90.1245 1582.1838,-74.746 1801.8702,-69.5049"/>
<polygon fill="#191970" stroke="#191970" points="1802.1667,-72.9989 1812.081,-69.2629 1802.0008,-66.0009 1802.1667,-72.9989"/>
</g>
<!-- Node17 -->
<g id="node17" class="node">
<title>Node17</title>
<g id="a_node17"><a xlink:href="../../d4/d57/initialize__parameter__set_8hpp.html" target="_top" xlink:title="Acts/EventData/detail\l/initialize_parameter\l_set.hpp">
<polygon fill="none" stroke="#000000" points="417.1912,-183.5 417.1912,-227.5 543.1912,-227.5 543.1912,-183.5 417.1912,-183.5"/>
<text text-anchor="start" x="425.1912" y="-214.5" font-family="FreeSans" font-size="10.00" fill="#000000">Acts/EventData/detail</text>
<text text-anchor="start" x="425.1912" y="-202.5" font-family="FreeSans" font-size="10.00" fill="#000000">/initialize_parameter</text>
<text text-anchor="middle" x="480.1912" y="-190.5" font-family="FreeSans" font-size="10.00" fill="#000000">_set.hpp</text>
</a>
</g>
</g>
<!-- Node8&#45;&gt;Node17 -->
<g id="edge21" class="edge">
<title>Node8&#45;&gt;Node17</title>
<path fill="none" stroke="#191970" d="M540.4834,-264.2261C531.6565,-255.6285 520.5509,-244.8114 510.2839,-234.8111"/>
<polygon fill="#191970" stroke="#191970" points="512.6064,-232.1873 503.0007,-227.7171 507.7221,-237.2017 512.6064,-232.1873"/>
</g>
<!-- Node18 -->
<g id="node18" class="node">
<title>Node18</title>
<g id="a_node18"><a xlink:href="../../da/d98/make__projection__matrix_8hpp.html" target="_top" xlink:title="Acts/EventData/detail\l/make_projection_matrix.hpp">
<polygon fill="none" stroke="#000000" points="1013.6912,-114.5 1013.6912,-146.5 1178.6912,-146.5 1178.6912,-114.5 1013.6912,-114.5"/>
<text text-anchor="start" x="1021.6912" y="-133.5" font-family="FreeSans" font-size="10.00" fill="#000000">Acts/EventData/detail</text>
<text text-anchor="middle" x="1096.1912" y="-121.5" font-family="FreeSans" font-size="10.00" fill="#000000">/make_projection_matrix.hpp</text>
</a>
</g>
</g>
<!-- Node8&#45;&gt;Node18 -->
<g id="edge22" class="edge">
<title>Node8&#45;&gt;Node18</title>
<path fill="none" stroke="#191970" d="M632.9748,-270.5522C650.1391,-268.3489 668.2875,-266.0584 685.1912,-264 824.631,-247.0202 873.3939,-290.5043 999.1912,-228 1023.9646,-215.691 1022.7153,-202.6449 1042.1912,-183 1051.6846,-173.4243 1062.2923,-163.044 1071.576,-154.0612"/>
<polygon fill="#191970" stroke="#191970" points="1074.2407,-156.3538 1079.0094,-146.8928 1069.3816,-151.3151 1074.2407,-156.3538"/>
</g>
<!-- Node19 -->
<g id="node19" class="node">
<title>Node19</title>
<g id="a_node19"><a xlink:href="../../d3/d0a/residual__calculator_8hpp.html" target="_top" xlink:title="Acts/EventData/detail\l/residual_calculator.hpp">
<polygon fill="none" stroke="#000000" points="675.6912,-189.5 675.6912,-221.5 812.6912,-221.5 812.6912,-189.5 675.6912,-189.5"/>
<text text-anchor="start" x="683.6912" y="-208.5" font-family="FreeSans" font-size="10.00" fill="#000000">Acts/EventData/detail</text>
<text text-anchor="middle" x="744.1912" y="-196.5" font-family="FreeSans" font-size="10.00" fill="#000000">/residual_calculator.hpp</text>
</a>
</g>
</g>
<!-- Node8&#45;&gt;Node19 -->
<g id="edge24" class="edge">
<title>Node8&#45;&gt;Node19</title>
<path fill="none" stroke="#191970" d="M597.3074,-264.4106C625.7777,-252.9921 664.1788,-237.5905 694.5761,-225.3991"/>
<polygon fill="#191970" stroke="#191970" points="696.1629,-228.5338 704.1414,-221.5628 693.5572,-222.0368 696.1629,-228.5338"/>
</g>
<!-- Node20 -->
<g id="node20" class="node">
<title>Node20</title>
<g id="a_node20"><a xlink:href="../../d4/dbf/value__corrector_8hpp.html" target="_top" xlink:title="Acts/EventData/detail\l/value_corrector.hpp">
<polygon fill="none" stroke="#000000" points="831.1912,-189.5 831.1912,-221.5 957.1912,-221.5 957.1912,-189.5 831.1912,-189.5"/>
<text text-anchor="start" x="839.1912" y="-208.5" font-family="FreeSans" font-size="10.00" fill="#000000">Acts/EventData/detail</text>
<text text-anchor="middle" x="894.1912" y="-196.5" font-family="FreeSans" font-size="10.00" fill="#000000">/value_corrector.hpp</text>
</a>
</g>
</g>
<!-- Node8&#45;&gt;Node20 -->
<g id="edge27" class="edge">
<title>Node8&#45;&gt;Node20</title>
<path fill="none" stroke="#191970" d="M632.7558,-267.6026C685.7977,-258.0314 758.217,-243.9218 821.1912,-228 825.5768,-226.8912 830.0897,-225.6784 834.618,-224.4091"/>
<polygon fill="#191970" stroke="#191970" points="835.8727,-227.69 844.5129,-221.5583 833.9347,-220.9636 835.8727,-227.69"/>
</g>
<!-- Node21 -->
<g id="node21" class="node">
<title>Node21</title>
<g id="a_node21"><a xlink:href="../../d2/d51/are__sorted_8hpp.html" target="_top" xlink:title="Acts/Utilities/detail\l/MPL/are_sorted.hpp">
<polygon fill="none" stroke="#000000" points="203.1912,-189.5 203.1912,-221.5 323.1912,-221.5 323.1912,-189.5 203.1912,-189.5"/>
<text text-anchor="start" x="211.1912" y="-208.5" font-family="FreeSans" font-size="10.00" fill="#000000">Acts/Utilities/detail</text>
<text text-anchor="middle" x="263.1912" y="-196.5" font-family="FreeSans" font-size="10.00" fill="#000000">/MPL/are_sorted.hpp</text>
</a>
</g>
</g>
<!-- Node8&#45;&gt;Node21 -->
<g id="edge32" class="edge">
<title>Node8&#45;&gt;Node21</title>
<path fill="none" stroke="#191970" d="M481.5232,-264.5469C437.6739,-254.8785 381.547,-241.7778 332.1912,-228 328.3419,-226.9254 324.3871,-225.7717 320.4122,-224.575"/>
<polygon fill="#191970" stroke="#191970" points="321.1259,-221.1326 310.5386,-221.5322 319.0643,-227.8221 321.1259,-221.1326"/>
</g>
<!-- Node12&#45;&gt;Node7 -->
<g id="edge14" class="edge">
<title>Node12&#45;&gt;Node7</title>
<path fill="none" stroke="#191970" d="M107.791,-189.3996C94.4436,-163.8171 68.4462,-113.9887 54.1705,-86.6269"/>
<polygon fill="#191970" stroke="#191970" points="57.2152,-84.8961 49.4865,-77.6492 51.0091,-88.1341 57.2152,-84.8961"/>
</g>
<!-- Node12&#45;&gt;Node11 -->
<g id="edge15" class="edge">
<title>Node12&#45;&gt;Node11</title>
<path fill="none" stroke="#191970" d="M167.8918,-189.4106C215.5778,-174.5706 284.8816,-153.003 325.0642,-140.498"/>
<polygon fill="#191970" stroke="#191970" points="326.1135,-143.8371 334.6218,-137.5237 324.0334,-137.1533 326.1135,-143.8371"/>
</g>
<!-- Node12&#45;&gt;Node13 -->
<g id="edge16" class="edge">
<title>Node12&#45;&gt;Node13</title>
<path fill="none" stroke="#191970" d="M166.632,-189.4834C175.7352,-187.0136 185.1927,-184.7176 194.1912,-183 357.6006,-151.8083 552.4029,-138.704 658.5882,-133.5508"/>
<polygon fill="#191970" stroke="#191970" points="659.0738,-137.0318 668.8968,-133.0621 658.7422,-130.0397 659.0738,-137.0318"/>
</g>
<!-- Node13&#45;&gt;Node7 -->
<g id="edge18" class="edge">
<title>Node13&#45;&gt;Node7</title>
<path fill="none" stroke="#191970" d="M669.1647,-124.3158C528.3091,-111.5107 207.9938,-82.3911 89.4273,-71.6124"/>
<polygon fill="#191970" stroke="#191970" points="89.5295,-68.1073 79.2537,-70.6875 88.8957,-75.0786 89.5295,-68.1073"/>
</g>
<!-- Node14 -->
<g id="node14" class="node">
<title>Node14</title>
<polygon fill="none" stroke="#bfbfbf" points="809.1912,-57.5 809.1912,-77.5 857.1912,-77.5 857.1912,-57.5 809.1912,-57.5"/>
<text text-anchor="middle" x="833.1912" y="-64.5" font-family="FreeSans" font-size="10.00" fill="#000000">cmath</text>
</g>
<!-- Node13&#45;&gt;Node14 -->
<g id="edge17" class="edge">
<title>Node13&#45;&gt;Node14</title>
<path fill="none" stroke="#191970" d="M761.6645,-114.4394C776.2936,-104.839 794.7963,-92.6967 809.3177,-83.167"/>
<polygon fill="#191970" stroke="#191970" points="811.3345,-86.0299 817.7747,-77.6171 807.4939,-80.1776 811.3345,-86.0299"/>
</g>
<!-- Node13&#45;&gt;Node15 -->
<g id="edge19" class="edge">
<title>Node13&#45;&gt;Node15</title>
<path fill="none" stroke="#191970" d="M805.2868,-120.0321C822.2104,-117.7355 840.3323,-115.5345 857.1912,-114 1205.5505,-82.2922 1621.9278,-71.9243 1801.9451,-68.7722"/>
<polygon fill="#191970" stroke="#191970" points="1802.2212,-72.2681 1812.1595,-68.5967 1802.1008,-65.2691 1802.2212,-72.2681"/>
</g>
<!-- Node16 -->
<g id="node16" class="node">
<title>Node16</title>
<polygon fill="none" stroke="#bfbfbf" points="1852.1912,-.5 1852.1912,-20.5 1932.1912,-20.5 1932.1912,-.5 1852.1912,-.5"/>
<text text-anchor="middle" x="1892.1912" y="-7.5" font-family="FreeSans" font-size="10.00" fill="#000000">Eigen/Dense</text>
</g>
<!-- Node15&#45;&gt;Node16 -->
<g id="edge20" class="edge">
<title>Node15&#45;&gt;Node16</title>
<path fill="none" stroke="#191970" d="M1892.1912,-57.3095C1892.1912,-49.9335 1892.1912,-39.72 1892.1912,-30.715"/>
<polygon fill="#191970" stroke="#191970" points="1895.6913,-30.6022 1892.1912,-20.6022 1888.6913,-30.6023 1895.6913,-30.6022"/>
</g>
<!-- Node18&#45;&gt;Node15 -->
<g id="edge23" class="edge">
<title>Node18&#45;&gt;Node15</title>
<path fill="none" stroke="#191970" d="M1178.9234,-115.846C1183.7437,-115.1731 1188.526,-114.5505 1193.1912,-114 1410.8216,-88.3194 1668.3716,-75.7533 1801.8383,-70.5625"/>
<polygon fill="#191970" stroke="#191970" points="1802.1558,-74.053 1812.0141,-70.1718 1801.8871,-67.0582 1802.1558,-74.053"/>
</g>
<!-- Node19&#45;&gt;Node13 -->
<g id="edge26" class="edge">
<title>Node19&#45;&gt;Node13</title>
<path fill="none" stroke="#191970" d="M742.6723,-189.2261C741.7917,-179.7911 740.6617,-167.6831 739.6566,-156.915"/>
<polygon fill="#191970" stroke="#191970" points="743.1214,-156.3736 738.7072,-146.7421 736.1517,-157.0241 743.1214,-156.3736"/>
</g>
<!-- Node19&#45;&gt;Node15 -->
<g id="edge25" class="edge">
<title>Node19&#45;&gt;Node15</title>
<path fill="none" stroke="#191970" d="M768.1982,-189.4687C802.1517,-167.7784 866.911,-129.9634 928.1912,-114 1011.2301,-92.3685 1578.644,-75.5811 1802.0662,-69.7365"/>
<polygon fill="#191970" stroke="#191970" points="1802.2154,-73.2339 1812.121,-69.4747 1802.0332,-66.2362 1802.2154,-73.2339"/>
</g>
<!-- Node20&#45;&gt;Node13 -->
<g id="edge29" class="edge">
<title>Node20&#45;&gt;Node13</title>
<path fill="none" stroke="#191970" d="M860.5108,-189.4106C836.9184,-178.1404 805.2035,-162.9899 779.8444,-150.8757"/>
<polygon fill="#191970" stroke="#191970" points="781.348,-147.7152 770.816,-146.5628 778.3306,-154.0315 781.348,-147.7152"/>
</g>
<!-- Node20&#45;&gt;Node15 -->
<g id="edge28" class="edge">
<title>Node20&#45;&gt;Node15</title>
<path fill="none" stroke="#191970" d="M902.2603,-189.406C914.0674,-167.827 938.2766,-130.3421 971.1912,-114 1044.24,-77.7314 1584.502,-69.7393 1801.9314,-67.9879"/>
<polygon fill="#191970" stroke="#191970" points="1802.0657,-71.487 1812.038,-67.9091 1802.011,-64.4872 1802.0657,-71.487"/>
</g>
<!-- Node22&#45;&gt;Node13 -->
<g id="edge68" class="edge">
<title>Node22&#45;&gt;Node13</title>
<path fill="none" stroke="#191970" d="M929.6707,-476.4322C869.5671,-467.6231 797.6943,-453.6724 773.1912,-435 690.8185,-372.2285 690.6619,-328.6316 666.1912,-228 661.4655,-208.5663 657.1862,-200.8581 666.1912,-183 672.4617,-170.565 683.2225,-160.3442 694.4972,-152.3322"/>
<polygon fill="#191970" stroke="#191970" points="696.724,-155.0567 703.1534,-146.6357 692.8759,-149.2093 696.724,-155.0567"/>
</g>
<!-- Node22&#45;&gt;Node14 -->
<g id="edge34" class="edge">
<title>Node22&#45;&gt;Node14</title>
<path fill="none" stroke="#191970" d="M996.8779,-471.316C984.5939,-462.0091 970.3838,-449.3297 961.1912,-435 918.9918,-369.2181 870.1143,-324.0029 920.1912,-264 977.5014,-195.3302 1060.881,-296.6698 1118.1912,-228 1131.0062,-212.645 1131.013,-198.3494 1118.1912,-183 1060.5703,-114.0199 999.6262,-187.1078 919.1912,-147 889.6596,-132.2745 863.0073,-104.2674 847.4528,-85.7375"/>
<polygon fill="#191970" stroke="#191970" points="849.962,-83.2763 840.9304,-77.7373 844.5366,-87.6995 849.962,-83.2763"/>
</g>
<!-- Node22&#45;&gt;Node23 -->
<g id="edge35" class="edge">
<title>Node22&#45;&gt;Node23</title>
<path fill="none" stroke="#191970" d="M1006.3761,-471.2437C982.1288,-442.5633 938.9747,-381.4331 963.1912,-333 971.2926,-316.7972 987.0356,-304.2977 1001.5431,-295.5672"/>
<polygon fill="#191970" stroke="#191970" points="1003.3384,-298.5731 1010.337,-290.6188 999.9056,-292.4726 1003.3384,-298.5731"/>
</g>
<!-- Node22&#45;&gt;Node25 -->
<g id="edge37" class="edge">
<title>Node22&#45;&gt;Node25</title>
<path fill="none" stroke="#191970" d="M1106.7747,-471.4966C1173.9327,-458.9386 1265.9161,-441.7384 1326.6442,-430.3828"/>
<polygon fill="#191970" stroke="#191970" points="1327.2999,-433.8209 1336.4861,-428.5424 1326.0132,-426.9402 1327.2999,-433.8209"/>
</g>
<!-- Node24 -->
<g id="node24" class="node">
<title>Node24</title>
<polygon fill="none" stroke="#bfbfbf" points="1203.6912,-195.5 1203.6912,-215.5 1238.6912,-215.5 1238.6912,-195.5 1203.6912,-195.5"/>
<text text-anchor="middle" x="1221.1912" y="-202.5" font-family="FreeSans" font-size="10.00" fill="#000000">any</text>
</g>
<!-- Node23&#45;&gt;Node24 -->
<g id="edge36" class="edge">
<title>Node23&#45;&gt;Node24</title>
<path fill="none" stroke="#191970" d="M1073.2408,-270.4632C1105.5285,-261.5689 1151.5878,-247.041 1189.1912,-228 1192.9023,-226.1208 1196.6694,-223.8529 1200.2533,-221.4898"/>
<polygon fill="#191970" stroke="#191970" points="1202.4813,-224.2018 1208.6482,-215.5867 1198.4549,-218.4757 1202.4813,-224.2018"/>
</g>
<!-- Node25&#45;&gt;Node9 -->
<g id="edge66" class="edge">
<title>Node25&#45;&gt;Node9</title>
<path fill="none" stroke="#191970" d="M1315.0794,-414.3567C1244.6054,-408.7586 1137.0444,-395.7771 1048.1912,-366 986.9127,-345.4639 953.3187,-352.492 920.1912,-297 871.2632,-215.0405 1023.8553,-232.574 1035.1912,-228 1040.8993,-225.6968 1046.8746,-222.9568 1052.5376,-220.1948"/>
<polygon fill="#191970" stroke="#191970" points="1054.3109,-223.2207 1061.6707,-215.5993 1051.1645,-216.9677 1054.3109,-223.2207"/>
</g>
<!-- Node25&#45;&gt;Node15 -->
<g id="edge62" class="edge">
<title>Node25&#45;&gt;Node15</title>
<path fill="none" stroke="#191970" d="M1315.0829,-411.1271C1256.5125,-403.6426 1182.0407,-389.7065 1163.1912,-366 1128.7257,-322.6536 1212.059,-270.3441 1220.1912,-264 1395.3848,-127.3286 1663.0239,-85.6486 1801.7555,-72.9871"/>
<polygon fill="#191970" stroke="#191970" points="1802.2714,-76.4553 1811.9251,-72.09 1801.6562,-69.4824 1802.2714,-76.4553"/>
</g>
<!-- Node25&#45;&gt;Node23 -->
<g id="edge39" class="edge">
<title>Node25&#45;&gt;Node23</title>
<path fill="none" stroke="#191970" d="M1315.0285,-413.5979C1234.7652,-407.0412 1114.1213,-392.9746 1077.1912,-366 1055.4661,-350.1315 1043.6568,-320.359 1037.8885,-300.4768"/>
<polygon fill="#191970" stroke="#191970" points="1041.2176,-299.3749 1035.2807,-290.5997 1034.4495,-301.1618 1041.2176,-299.3749"/>
</g>
<!-- Node26 -->
<g id="node26" class="node">
<title>Node26</title>
<g id="a_node26"><a xlink:href="../../dc/d45/DetectorElementBase_8hpp.html" target="_top" xlink:title="Acts/Geometry/DetectorElement\lBase.hpp">
<polygon fill="none" stroke="#ff0000" points="1331.1912,-333.5 1331.1912,-365.5 1513.1912,-365.5 1513.1912,-333.5 1331.1912,-333.5"/>
<text text-anchor="start" x="1339.1912" y="-352.5" font-family="FreeSans" font-size="10.00" fill="#000000">Acts/Geometry/DetectorElement</text>
<text text-anchor="middle" x="1422.1912" y="-340.5" font-family="FreeSans" font-size="10.00" fill="#000000">Base.hpp</text>
</a>
</g>
</g>
<!-- Node25&#45;&gt;Node26 -->
<g id="edge38" class="edge">
<title>Node25&#45;&gt;Node26</title>
<path fill="none" stroke="#191970" d="M1394.9129,-408.3188C1398.9877,-399.5327 1405.048,-386.4652 1410.4221,-374.8771"/>
<polygon fill="#191970" stroke="#191970" points="1413.6843,-376.162 1414.7164,-365.6175 1407.334,-373.2169 1413.6843,-376.162"/>
</g>
<!-- Node27 -->
<g id="node27" class="node">
<title>Node27</title>
<g id="a_node27"><a xlink:href="../../da/de0/GeometryObject_8hpp.html" target="_top" xlink:title="Acts/Geometry/GeometryObject.hpp">
<polygon fill="none" stroke="#ff0000" points="1569.6912,-339.5 1569.6912,-359.5 1770.6912,-359.5 1770.6912,-339.5 1569.6912,-339.5"/>
<text text-anchor="middle" x="1670.1912" y="-346.5" font-family="FreeSans" font-size="10.00" fill="#000000">Acts/Geometry/GeometryObject.hpp</text>
</a>
</g>
</g>
<!-- Node25&#45;&gt;Node27 -->
<g id="edge40" class="edge">
<title>Node25&#45;&gt;Node27</title>
<path fill="none" stroke="#191970" d="M1430.9056,-408.4668C1480.8812,-396.1514 1565.6327,-375.2662 1619.7038,-361.9416"/>
<polygon fill="#191970" stroke="#191970" points="1620.5556,-365.3364 1629.4277,-359.5453 1618.8807,-358.5397 1620.5556,-365.3364"/>
</g>
<!-- Node28 -->
<g id="node28" class="node">
<title>Node28</title>
<g id="a_node28"><a xlink:href="../../db/d40/Polyhedron_8hpp.html" target="_top" xlink:title="Acts/Geometry/Polyhedron.hpp">
<polygon fill="none" stroke="#ff0000" points="1760.6912,-270.5 1760.6912,-290.5 1935.6912,-290.5 1935.6912,-270.5 1760.6912,-270.5"/>
<text text-anchor="middle" x="1848.1912" y="-277.5" font-family="FreeSans" font-size="10.00" fill="#000000">Acts/Geometry/Polyhedron.hpp</text>
</a>
</g>
</g>
<!-- Node25&#45;&gt;Node28 -->
<g id="edge53" class="edge">
<title>Node25&#45;&gt;Node28</title>
<path fill="none" stroke="#191970" d="M1465.3332,-413.2846C1579.4588,-404.7532 1786.1513,-386.6784 1813.1912,-366 1833.7238,-350.298 1842.2754,-320.4825 1845.7935,-300.5453"/>
<polygon fill="#191970" stroke="#191970" points="1849.2576,-301.0454 1847.2744,-290.6378 1842.3345,-300.0106 1849.2576,-301.0454"/>
</g>
<!-- Node29 -->
<g id="node29" class="node">
<title>Node29</title>
<g id="a_node29"><a xlink:href="../../d7/d50/BoundaryCheck_8hpp.html" target="_top" xlink:title="Acts/Surfaces/BoundaryCheck.hpp">
<polygon fill="none" stroke="#ff0000" points="1399.1912,-195.5 1399.1912,-215.5 1591.1912,-215.5 1591.1912,-195.5 1399.1912,-195.5"/>
<text text-anchor="middle" x="1495.1912" y="-202.5" font-family="FreeSans" font-size="10.00" fill="#000000">Acts/Surfaces/BoundaryCheck.hpp</text>
</a>
</g>
</g>
<!-- Node25&#45;&gt;Node29 -->
<g id="edge54" class="edge">
<title>Node25&#45;&gt;Node29</title>
<path fill="none" stroke="#191970" d="M1314.9704,-410.188C1259.5103,-402.3281 1190.779,-388.3503 1173.1912,-366 1164.1213,-354.4741 1164.987,-345.1574 1173.1912,-333 1204.63,-286.4124 1361.8772,-239.8717 1444.4146,-218.1551"/>
<polygon fill="#191970" stroke="#191970" points="1445.5437,-221.4778 1454.3378,-215.5691 1443.7784,-214.7041 1445.5437,-221.4778"/>
</g>
<!-- Node31 -->
<g id="node31" class="node">
<title>Node31</title>
<g id="a_node31"><a xlink:href="../../de/d09/BinningType_8hpp.html" target="_top" xlink:title="Acts/Utilities/BinningType.hpp">
<polygon fill="none" stroke="#ff0000" points="1353.1912,-270.5 1353.1912,-290.5 1521.1912,-290.5 1521.1912,-270.5 1353.1912,-270.5"/>
<text text-anchor="middle" x="1437.1912" y="-277.5" font-family="FreeSans" font-size="10.00" fill="#000000">Acts/Utilities/BinningType.hpp</text>
</a>
</g>
</g>
<!-- Node25&#45;&gt;Node31 -->
<g id="edge61" class="edge">
<title>Node25&#45;&gt;Node31</title>
<path fill="none" stroke="#191970" d="M1315.0362,-412.2891C1241.6587,-403.286 1146.4176,-381.9536 1186.1912,-333 1206.0103,-308.6066 1280.3226,-295.1507 1342.9877,-287.9877"/>
<polygon fill="#191970" stroke="#191970" points="1343.3786,-291.466 1352.935,-286.8915 1342.6117,-284.5081 1343.3786,-291.466"/>
</g>
<!-- Node32 -->
<g id="node32" class="node">
<title>Node32</title>
<g id="a_node32"><a xlink:href="../../d5/dc6/GeometryStatics_8hpp.html" target="_top" xlink:title="Acts/Geometry/GeometryStatics.hpp">
<polygon fill="none" stroke="#000000" points="1903.6912,-339.5 1903.6912,-359.5 2106.6912,-359.5 2106.6912,-339.5 1903.6912,-339.5"/>
<text text-anchor="middle" x="2005.1912" y="-346.5" font-family="FreeSans" font-size="10.00" fill="#000000">Acts/Geometry/GeometryStatics.hpp</text>
</a>
</g>
</g>
<!-- Node25&#45;&gt;Node32 -->
<g id="edge51" class="edge">
<title>Node25&#45;&gt;Node32</title>
<path fill="none" stroke="#191970" d="M1465.2946,-410.0738C1575.8595,-397.6689 1782.6072,-374.4728 1905.6818,-360.6645"/>
<polygon fill="#191970" stroke="#191970" points="1906.3118,-364.1158 1915.8592,-359.5226 1905.5313,-357.1595 1906.3118,-364.1158"/>
</g>
<!-- Node33 -->
<g id="node33" class="node">
<title>Node33</title>
<g id="a_node33"><a xlink:href="../../da/ddb/SurfaceBounds_8hpp.html" target="_top" xlink:title="Acts/Surfaces/SurfaceBounds.hpp">
<polygon fill="none" stroke="#000000" points="2337.1912,-339.5 2337.1912,-359.5 2525.1912,-359.5 2525.1912,-339.5 2337.1912,-339.5"/>
<text text-anchor="middle" x="2431.1912" y="-346.5" font-family="FreeSans" font-size="10.00" fill="#000000">Acts/Surfaces/SurfaceBounds.hpp</text>
</a>
</g>
</g>
<!-- Node25&#45;&gt;Node33 -->
<g id="edge55" class="edge">
<title>Node25&#45;&gt;Node33</title>
<path fill="none" stroke="#191970" d="M1465.4008,-416.872C1624.728,-412.8551 2007.843,-400.1904 2327.1912,-366 2339.2622,-364.7076 2352.0688,-362.9755 2364.417,-361.1187"/>
<polygon fill="#191970" stroke="#191970" points="2365.3074,-364.5227 2374.6555,-359.5366 2364.2383,-357.6049 2365.3074,-364.5227"/>
</g>
<!-- Node35 -->
<g id="node35" class="node">
<title>Node35</title>
<g id="a_node35"><a xlink:href="../../d5/d50/BinnedArray_8hpp.html" target="_top" xlink:title="Acts/Utilities/BinnedArray.hpp">
<polygon fill="none" stroke="#ff0000" points="1697.6912,-120.5 1697.6912,-140.5 1864.6912,-140.5 1864.6912,-120.5 1697.6912,-120.5"/>
<text text-anchor="middle" x="1781.1912" y="-127.5" font-family="FreeSans" font-size="10.00" fill="#000000">Acts/Utilities/BinnedArray.hpp</text>
</a>
</g>
</g>
<!-- Node25&#45;&gt;Node35 -->
<g id="edge59" class="edge">
<title>Node25&#45;&gt;Node35</title>
<path fill="none" stroke="#191970" d="M1465.5667,-413.6002C1572.8416,-405.8482 1758.897,-389.2171 1779.1912,-366 1788.8437,-354.9573 1783.9511,-346.8728 1779.1912,-333 1772.613,-313.8274 1757.7695,-316.1726 1751.1912,-297 1733.5492,-245.5817 1757.0964,-181.4852 1771.4974,-149.9172"/>
<polygon fill="#191970" stroke="#191970" points="1774.83,-151.0585 1775.9578,-140.5238 1768.5066,-148.0558 1774.83,-151.0585"/>
</g>
<!-- Node36 -->
<g id="node36" class="node">
<title>Node36</title>
<g id="a_node36"><a xlink:href="../../db/d8d/Intersection_8hpp.html" target="_top" xlink:title="Acts/Utilities/Intersection.hpp">
<polygon fill="none" stroke="#000000" points="2030.1912,-270.5 2030.1912,-290.5 2196.1912,-290.5 2196.1912,-270.5 2030.1912,-270.5"/>
<text text-anchor="middle" x="2113.1912" y="-277.5" font-family="FreeSans" font-size="10.00" fill="#000000">Acts/Utilities/Intersection.hpp</text>
</a>
</g>
</g>
<!-- Node25&#45;&gt;Node36 -->
<g id="edge63" class="edge">
<title>Node25&#45;&gt;Node36</title>
<path fill="none" stroke="#191970" d="M1465.3987,-415.7854C1646.4531,-408.8865 2093.2868,-389.5479 2115.1912,-366 2131.3179,-348.6633 2126.5771,-319.7485 2120.7088,-300.4074"/>
<polygon fill="#191970" stroke="#191970" points="2123.9738,-299.1361 2117.4581,-290.7817 2117.3417,-301.3759 2123.9738,-299.1361"/>
</g>
<!-- Node37 -->
<g id="node37" class="node">
<title>Node37</title>
<g id="a_node37"><a xlink:href="../../dd/d76/Surface_8ipp.html" target="_top" xlink:title="Acts/Surfaces/detail\l/Surface.ipp">
<polygon fill="none" stroke="#000000" points="1195.6912,-333.5 1195.6912,-365.5 1312.6912,-365.5 1312.6912,-333.5 1195.6912,-333.5"/>
<text text-anchor="start" x="1203.6912" y="-352.5" font-family="FreeSans" font-size="10.00" fill="#000000">Acts/Surfaces/detail</text>
<text text-anchor="middle" x="1254.1912" y="-340.5" font-family="FreeSans" font-size="10.00" fill="#000000">/Surface.ipp</text>
</a>
</g>
</g>
<!-- Node25&#45;&gt;Node37 -->
<g id="edge67" class="edge">
<title>Node25&#45;&gt;Node37</title>
<path fill="none" stroke="#191970" d="M1370.4157,-408.4668C1350.7528,-398.4908 1320.0066,-382.8916 1295.0757,-370.2428"/>
<polygon fill="#191970" stroke="#191970" points="1296.3421,-366.9607 1285.8406,-365.5574 1293.1749,-373.2032 1296.3421,-366.9607"/>
</g>
<!-- Node27&#45;&gt;Node15 -->
<g id="edge50" class="edge">
<title>Node27&#45;&gt;Node15</title>
<path fill="none" stroke="#191970" d="M1667.2719,-339.4607C1657.5554,-303.7455 1630.0909,-181.393 1688.1912,-114 1703.415,-96.3413 1754.6657,-84.7001 1801.9846,-77.4817"/>
<polygon fill="#191970" stroke="#191970" points="1802.6234,-80.9255 1812.0078,-76.0079 1801.605,-73.9999 1802.6234,-80.9255"/>
</g>
<!-- Node27&#45;&gt;Node23 -->
<g id="edge41" class="edge">
<title>Node27&#45;&gt;Node23</title>
<path fill="none" stroke="#191970" d="M1603.6669,-339.4677C1587.7992,-337.2098 1570.908,-334.917 1555.1912,-333 1415.0524,-315.9071 1253.2517,-300.2665 1147.3941,-290.5857"/>
<polygon fill="#191970" stroke="#191970" points="1147.6037,-287.0904 1137.3271,-289.6676 1146.9679,-294.0615 1147.6037,-287.0904"/>
</g>
<!-- Node27&#45;&gt;Node28 -->
<g id="edge42" class="edge">
<title>Node27&#45;&gt;Node28</title>
<path fill="none" stroke="#191970" d="M1696.074,-339.4668C1726.7895,-327.5602 1778.1693,-307.6433 1812.6096,-294.2929"/>
<polygon fill="#191970" stroke="#191970" points="1814.2183,-297.4231 1822.2773,-290.5453 1811.6882,-290.8963 1814.2183,-297.4231"/>
</g>
<!-- Node27&#45;&gt;Node31 -->
<g id="edge49" class="edge">
<title>Node27&#45;&gt;Node31</title>
<path fill="none" stroke="#191970" d="M1636.311,-339.4668C1595.2419,-327.3047 1525.9502,-306.7848 1480.8961,-293.4426"/>
<polygon fill="#191970" stroke="#191970" points="1481.6946,-290.0289 1471.1123,-290.5453 1479.7069,-296.7408 1481.6946,-290.0289"/>
</g>
<!-- Node28&#45;&gt;Node15 -->
<g id="edge47" class="edge">
<title>Node28&#45;&gt;Node15</title>
<path fill="none" stroke="#191970" d="M1850.3134,-270.2266C1857.1816,-236.9785 1878.8879,-131.9002 1888.0484,-87.5553"/>
<polygon fill="#191970" stroke="#191970" points="1891.4949,-88.1717 1890.0903,-77.6703 1884.6396,-86.7555 1891.4949,-88.1717"/>
</g>
<!-- Node28&#45;&gt;Node29 -->
<g id="edge43" class="edge">
<title>Node28&#45;&gt;Node29</title>
<path fill="none" stroke="#191970" d="M1800.9504,-270.463C1736.5771,-256.786 1621.4234,-232.3199 1552.2887,-217.6312"/>
<polygon fill="#191970" stroke="#191970" points="1552.943,-214.1921 1542.4339,-215.5374 1551.4881,-221.0393 1552.943,-214.1921"/>
</g>
<!-- Node30 -->
<g id="node30" class="node">
<title>Node30</title>
<polygon fill="none" stroke="#bfbfbf" points="2140.1912,-195.5 2140.1912,-215.5 2184.1912,-215.5 2184.1912,-195.5 2140.1912,-195.5"/>
<text text-anchor="middle" x="2162.1912" y="-202.5" font-family="FreeSans" font-size="10.00" fill="#000000">limits</text>
</g>
<!-- Node28&#45;&gt;Node30 -->
<g id="edge48" class="edge">
<title>Node28&#45;&gt;Node30</title>
<path fill="none" stroke="#191970" d="M1890.2129,-270.463C1953.7708,-255.2819 2072.9795,-226.8085 2130.0901,-213.1675"/>
<polygon fill="#191970" stroke="#191970" points="2131.0906,-216.527 2140.0039,-210.7995 2129.4643,-209.7185 2131.0906,-216.527"/>
</g>
<!-- Node29&#45;&gt;Node13 -->
<g id="edge46" class="edge">
<title>Node29&#45;&gt;Node13</title>
<path fill="none" stroke="#191970" d="M1399.19,-196.0012C1247.5203,-180.9943 955.3686,-152.0875 815.5233,-138.2505"/>
<polygon fill="#191970" stroke="#191970" points="815.6112,-134.7422 805.3152,-137.2405 814.9219,-141.7082 815.6112,-134.7422"/>
</g>
<!-- Node29&#45;&gt;Node14 -->
<g id="edge44" class="edge">
<title>Node29&#45;&gt;Node14</title>
<path fill="none" stroke="#191970" d="M1398.9577,-195.6853C1266.7888,-181.9524 1041.1699,-157.5088 1004.1912,-147 950.0187,-131.605 891.4391,-101.0036 858.835,-82.5829"/>
<polygon fill="#191970" stroke="#191970" points="860.3863,-79.4381 849.9683,-77.5103 856.9102,-85.5141 860.3863,-79.4381"/>
</g>
<!-- Node29&#45;&gt;Node15 -->
<g id="edge45" class="edge">
<title>Node29&#45;&gt;Node15</title>
<path fill="none" stroke="#191970" d="M1509.4978,-195.2334C1536.6964,-176.2162 1598.3265,-135.495 1656.1912,-114 1702.8663,-96.6616 1757.2576,-85.387 1802.0525,-78.2889"/>
<polygon fill="#191970" stroke="#191970" points="1802.6936,-81.7315 1812.0439,-76.7492 1801.6274,-74.8131 1802.6936,-81.7315"/>
</g>
<!-- Node32&#45;&gt;Node15 -->
<g id="edge52" class="edge">
<title>Node32&#45;&gt;Node15</title>
<path fill="none" stroke="#191970" d="M2001.1695,-339.4635C1984.6963,-298.3533 1922.2021,-142.3945 1900.0418,-87.0916"/>
<polygon fill="#191970" stroke="#191970" points="1903.2514,-85.6916 1896.2829,-77.711 1896.7536,-88.2953 1903.2514,-85.6916"/>
</g>
<!-- Node33&#45;&gt;Node15 -->
<g id="edge58" class="edge">
<title>Node33&#45;&gt;Node15</title>
<path fill="none" stroke="#191970" d="M2422.1096,-339.3686C2388.2149,-302.2679 2264.3117,-172.9237 2133.1912,-114 2085.8457,-92.7236 2028.9914,-81.1668 1982.3971,-74.8972"/>
<polygon fill="#191970" stroke="#191970" points="1982.6788,-71.4047 1972.314,-73.6007 1981.786,-78.3475 1982.6788,-71.4047"/>
</g>
<!-- Node33&#45;&gt;Node29 -->
<g id="edge57" class="edge">
<title>Node33&#45;&gt;Node29</title>
<path fill="none" stroke="#191970" d="M2370.7594,-339.491C2356.4892,-337.2444 2341.3167,-334.9506 2327.1912,-333 2191.5406,-314.2675 2153.4914,-332.3364 2021.1912,-297 1985.2195,-287.3922 1980.1024,-273.8315 1944.1912,-264 1829.4548,-232.5882 1693.473,-217.8714 1601.4548,-211.0882"/>
<polygon fill="#191970" stroke="#191970" points="1601.5201,-207.5839 1591.295,-210.3583 1601.0185,-214.5659 1601.5201,-207.5839"/>
</g>
<!-- Node34 -->
<g id="node34" class="node">
<title>Node34</title>
<polygon fill="none" stroke="#bfbfbf" points="2415.6912,-270.5 2415.6912,-290.5 2472.6912,-290.5 2472.6912,-270.5 2415.6912,-270.5"/>
<text text-anchor="middle" x="2444.1912" y="-277.5" font-family="FreeSans" font-size="10.00" fill="#000000">ostream</text>
</g>
<!-- Node33&#45;&gt;Node34 -->
<g id="edge56" class="edge">
<title>Node33&#45;&gt;Node34</title>
<path fill="none" stroke="#191970" d="M2433.1094,-339.3188C2435.0104,-329.2289 2437.9753,-313.4925 2440.3601,-300.8347"/>
<polygon fill="#191970" stroke="#191970" points="2443.8531,-301.1981 2442.2652,-290.723 2436.9741,-299.902 2443.8531,-301.1981"/>
</g>
<!-- Node35&#45;&gt;Node15 -->
<g id="edge60" class="edge">
<title>Node35&#45;&gt;Node15</title>
<path fill="none" stroke="#191970" d="M1799.0253,-120.378C1816.9881,-110.1829 1844.9177,-94.3309 1865.5156,-82.6402"/>
<polygon fill="#191970" stroke="#191970" points="1867.4322,-85.5769 1874.4014,-77.5969 1863.9769,-79.4891 1867.4322,-85.5769"/>
</g>
<!-- Node36&#45;&gt;Node15 -->
<g id="edge65" class="edge">
<title>Node36&#45;&gt;Node15</title>
<path fill="none" stroke="#191970" d="M2109.986,-270.2845C2100.4626,-241.5348 2069.6218,-159.0978 2016.1912,-114 1997.5192,-98.24 1972.9805,-87.5514 1950.6638,-80.4396"/>
<polygon fill="#191970" stroke="#191970" points="1951.5129,-77.0402 1940.9286,-77.5125 1949.4973,-83.7437 1951.5129,-77.0402"/>
</g>
<!-- Node36&#45;&gt;Node30 -->
<g id="edge64" class="edge">
<title>Node36&#45;&gt;Node30</title>
<path fill="none" stroke="#191970" d="M2119.7996,-270.3852C2127.4283,-258.7086 2140.1457,-239.2432 2149.665,-224.6728"/>
<polygon fill="#191970" stroke="#191970" points="2152.8337,-226.2218 2155.3732,-215.9358 2146.9735,-222.3932 2152.8337,-226.2218"/>
</g>
<!-- Node38&#45;&gt;Node6 -->
<g id="edge75" class="edge">
<title>Node38&#45;&gt;Node6</title>
<path fill="none" stroke="#191970" d="M939.8382,-609.4966C925.7595,-600.2448 907.8467,-588.4736 892.4807,-578.3759"/>
<polygon fill="#191970" stroke="#191970" points="894.0551,-575.2225 883.7759,-572.6557 890.2109,-581.0724 894.0551,-575.2225"/>
</g>
<!-- Node38&#45;&gt;Node9 -->
<g id="edge74" class="edge">
<title>Node38&#45;&gt;Node9</title>
<path fill="none" stroke="#191970" d="M894.3495,-609.4181C809.1065,-588.1003 673.0679,-548.0122 647.1912,-504 624.2148,-464.9207 624.0827,-441.0014 647.1912,-402 713.8784,-289.4492 785.4511,-311.8979 907.1912,-264 962.184,-242.3634 980.071,-249.3098 1035.1912,-228 1040.9323,-225.7805 1046.9225,-223.078 1052.5896,-220.3266"/>
<polygon fill="#191970" stroke="#191970" points="1054.3647,-223.3514 1061.721,-215.7267 1051.2155,-217.0998 1054.3647,-223.3514"/>
</g>
<!-- Node38&#45;&gt;Node23 -->
<g id="edge76" class="edge">
<title>Node38&#45;&gt;Node23</title>
<path fill="none" stroke="#191970" d="M1000.8015,-609.3647C1038.8647,-590.3373 1096.2957,-554.746 1121.1912,-504 1149.812,-445.6606 1053.3978,-378.6449 1048.1912,-366 1039.442,-344.7513 1035.7938,-318.4822 1034.2739,-300.7118"/>
<polygon fill="#191970" stroke="#191970" points="1037.758,-300.3618 1033.5631,-290.6328 1030.7754,-300.8543 1037.758,-300.3618"/>
</g>
<!-- Node39 -->
<g id="node39" class="node">
<title>Node39</title>
<g id="a_node39"><a xlink:href="../../d7/dec/PlaneSurface_8hpp.html" target="_top" xlink:title="Acts/Surfaces/PlaneSurface.hpp">
<polygon fill="none" stroke="#000000" points="1855.1912,-477.5 1855.1912,-497.5 2033.1912,-497.5 2033.1912,-477.5 1855.1912,-477.5"/>
<text text-anchor="middle" x="1944.1912" y="-484.5" font-family="FreeSans" font-size="10.00" fill="#000000">Acts/Surfaces/PlaneSurface.hpp</text>
</a>
</g>
</g>
<!-- Node38&#45;&gt;Node39 -->
<g id="edge77" class="edge">
<title>Node38&#45;&gt;Node39</title>
<path fill="none" stroke="#191970" d="M1056.7428,-610.4338C1059.9301,-609.9451 1063.0867,-609.4658 1066.1912,-609 1355.635,-565.5679 1699.6387,-519.6053 1857.3582,-498.8466"/>
<polygon fill="#191970" stroke="#191970" points="1858.0168,-502.2903 1867.475,-497.5161 1857.1039,-495.35 1858.0168,-502.2903"/>
</g>
<!-- Node39&#45;&gt;Node15 -->
<g id="edge91" class="edge">
<title>Node39&#45;&gt;Node15</title>
<path fill="none" stroke="#191970" d="M1997.9717,-477.4774C2012.301,-475.0723 2027.7995,-472.7085 2042.1912,-471 2099.3732,-464.2117 2511.9092,-467.8675 2559.1912,-435 2621.0908,-391.9714 2629.1912,-355.8858 2629.1912,-280.5 2629.1912,-280.5 2629.1912,-280.5 2629.1912,-205.5 2629.1912,-176.186 2594.8832,-192.6158 2567.1912,-183 2475.1822,-151.0506 2454.4543,-134.2823 2359.1912,-114 2230.0169,-86.4977 2077.196,-75.1806 1982.4615,-70.5785"/>
<polygon fill="#191970" stroke="#191970" points="1982.4949,-67.0763 1972.3412,-70.1017 1982.1654,-74.0685 1982.4949,-67.0763"/>
</g>
<!-- Node39&#45;&gt;Node23 -->
<g id="edge79" class="edge">
<title>Node39&#45;&gt;Node23</title>
<path fill="none" stroke="#191970" d="M1889.209,-477.4805C1812.0054,-461.8172 1668.7709,-426.8442 1560.1912,-366 1540.6777,-355.0653 1542.6966,-341.9372 1522.1912,-333 1457.1459,-304.6502 1270.4465,-290.9828 1147.4722,-284.8826"/>
<polygon fill="#191970" stroke="#191970" points="1147.4143,-281.3758 1137.2561,-284.386 1147.0743,-288.3675 1147.4143,-281.3758"/>
</g>
<!-- Node39&#45;&gt;Node25 -->
<g id="edge87" class="edge">
<title>Node39&#45;&gt;Node25</title>
<path fill="none" stroke="#191970" d="M1863.6349,-477.4668C1760.1383,-464.5764 1581.2603,-442.2974 1475.5104,-429.1264"/>
<polygon fill="#191970" stroke="#191970" points="1475.8657,-425.6437 1465.5098,-427.8808 1475.0005,-432.59 1475.8657,-425.6437"/>
</g>
<!-- Node39&#45;&gt;Node28 -->
<g id="edge81" class="edge">
<title>Node39&#45;&gt;Node28</title>
<path fill="none" stroke="#191970" d="M1939.4306,-477.2348C1924.2995,-444.6084 1877.1364,-342.9129 1857.2158,-299.9593"/>
<polygon fill="#191970" stroke="#191970" points="1860.3631,-298.4265 1852.9806,-290.8271 1854.0128,-301.3716 1860.3631,-298.4265"/>
</g>
<!-- Node39&#45;&gt;Node30 -->
<g id="edge78" class="edge">
<title>Node39&#45;&gt;Node30</title>
<path fill="none" stroke="#191970" d="M1945.727,-477.3075C1949.0043,-459.2492 1958.4242,-421.6891 1982.1912,-402 2035.9866,-357.4348 2074.0423,-399.7758 2135.1912,-366 2173.4303,-344.8785 2188.3288,-337.2989 2205.1912,-297 2216.1194,-270.8832 2196.2064,-241.353 2179.9778,-223.0788"/>
<polygon fill="#191970" stroke="#191970" points="2182.2953,-220.4331 2172.9047,-215.5272 2177.1864,-225.2184 2182.2953,-220.4331"/>
</g>
<!-- Node39&#45;&gt;Node32 -->
<g id="edge80" class="edge">
<title>Node39&#45;&gt;Node32</title>
<path fill="none" stroke="#191970" d="M1942.4771,-477.4358C1940.1366,-460.8316 1937.4606,-427.0455 1949.1912,-402 1956.0595,-387.336 1969.0237,-374.7648 1980.7498,-365.6034"/>
<polygon fill="#191970" stroke="#191970" points="1982.9878,-368.302 1988.9645,-359.5539 1978.8369,-362.6655 1982.9878,-368.302"/>
</g>
<!-- Node40 -->
<g id="node40" class="node">
<title>Node40</title>
<g id="a_node40"><a xlink:href="../../d9/d1e/InfiniteBounds_8hpp.html" target="_top" xlink:title="Acts/Surfaces/InfiniteBounds.hpp">
<polygon fill="none" stroke="#000000" points="2365.6912,-408.5 2365.6912,-428.5 2550.6912,-428.5 2550.6912,-408.5 2365.6912,-408.5"/>
<text text-anchor="middle" x="2458.1912" y="-415.5" font-family="FreeSans" font-size="10.00" fill="#000000">Acts/Surfaces/InfiniteBounds.hpp</text>
</a>
</g>
</g>
<!-- Node39&#45;&gt;Node40 -->
<g id="edge82" class="edge">
<title>Node39&#45;&gt;Node40</title>
<path fill="none" stroke="#191970" d="M2000.5987,-477.481C2014.1964,-475.2103 2028.6954,-472.9084 2042.1912,-471 2181.2773,-451.3321 2217.0427,-454.2209 2356.1912,-435 2366.8712,-433.5248 2378.1584,-431.8328 2389.1792,-430.1071"/>
<polygon fill="#191970" stroke="#191970" points="2389.8718,-433.5411 2399.2003,-428.5181 2388.7755,-426.6275 2389.8718,-433.5411"/>
</g>
<!-- Node41 -->
<g id="node41" class="node">
<title>Node41</title>
<g id="a_node41"><a xlink:href="../../d9/dc6/PlanarBounds_8hpp.html" target="_top" xlink:title="Acts/Surfaces/PlanarBounds.hpp">
<polygon fill="none" stroke="#ff0000" points="2165.1912,-408.5 2165.1912,-428.5 2347.1912,-428.5 2347.1912,-408.5 2165.1912,-408.5"/>
<text text-anchor="middle" x="2256.1912" y="-415.5" font-family="FreeSans" font-size="10.00" fill="#000000">Acts/Surfaces/PlanarBounds.hpp</text>
</a>
</g>
</g>
<!-- Node39&#45;&gt;Node41 -->
<g id="edge85" class="edge">
<title>Node39&#45;&gt;Node41</title>
<path fill="none" stroke="#191970" d="M1989.5587,-477.4668C2045.4768,-465.1003 2140.4676,-444.0927 2200.682,-430.7761"/>
<polygon fill="#191970" stroke="#191970" points="2201.7607,-434.1222 2210.769,-428.5453 2200.2491,-427.2873 2201.7607,-434.1222"/>
</g>
<!-- Node42 -->
<g id="node42" class="node">
<title>Node42</title>
<g id="a_node42"><a xlink:href="../../da/d71/PlanarHelper_8hpp.html" target="_top" xlink:title="Acts/Surfaces/detail\l/PlanarHelper.hpp">
<polygon fill="none" stroke="#000000" points="2201.6912,-333.5 2201.6912,-365.5 2318.6912,-365.5 2318.6912,-333.5 2201.6912,-333.5"/>
<text text-anchor="start" x="2209.6912" y="-352.5" font-family="FreeSans" font-size="10.00" fill="#000000">Acts/Surfaces/detail</text>
<text text-anchor="middle" x="2260.1912" y="-340.5" font-family="FreeSans" font-size="10.00" fill="#000000">/PlanarHelper.hpp</text>
</a>
</g>
</g>
<!-- Node39&#45;&gt;Node42 -->
<g id="edge88" class="edge">
<title>Node39&#45;&gt;Node42</title>
<path fill="none" stroke="#191970" d="M1996.7127,-477.4293C2032.1901,-469.2462 2079.2849,-455.6319 2117.1912,-435 2137.1344,-424.1452 2137.2595,-414.5357 2156.1912,-402 2174.2243,-390.0593 2195.3383,-378.9338 2213.8128,-370.026"/>
<polygon fill="#191970" stroke="#191970" points="2215.386,-373.1537 2222.9231,-365.7077 2212.3876,-366.8283 2215.386,-373.1537"/>
</g>
<!-- Node43 -->
<g id="node43" class="node">
<title>Node43</title>
<g id="a_node43"><a xlink:href="../../d2/d4a/PlaneSurface_8ipp.html" target="_top" xlink:title="Acts/Surfaces/detail\l/PlaneSurface.ipp">
<polygon fill="none" stroke="#000000" points="1991.6912,-402.5 1991.6912,-434.5 2108.6912,-434.5 2108.6912,-402.5 1991.6912,-402.5"/>
<text text-anchor="start" x="1999.6912" y="-421.5" font-family="FreeSans" font-size="10.00" fill="#000000">Acts/Surfaces/detail</text>
<text text-anchor="middle" x="2050.1912" y="-409.5" font-family="FreeSans" font-size="10.00" fill="#000000">/PlaneSurface.ipp</text>
</a>
</g>
</g>
<!-- Node39&#45;&gt;Node43 -->
<g id="edge92" class="edge">
<title>Node39&#45;&gt;Node43</title>
<path fill="none" stroke="#191970" d="M1959.8319,-477.3188C1974.8141,-467.5663 1997.9001,-452.5385 2016.9865,-440.1144"/>
<polygon fill="#191970" stroke="#191970" points="2018.9595,-443.0063 2025.4309,-434.6175 2015.1407,-437.1397 2018.9595,-443.0063"/>
</g>
<!-- Node40&#45;&gt;Node15 -->
<g id="edge84" class="edge">
<title>Node40&#45;&gt;Node15</title>
<path fill="none" stroke="#191970" d="M2481.3419,-408.3284C2498.549,-399.5707 2521.2065,-385.2897 2534.1912,-366 2555.9286,-333.7077 2553.1912,-319.427 2553.1912,-280.5 2553.1912,-280.5 2553.1912,-280.5 2553.1912,-205.5 2553.1912,-147.8641 2163.1228,-97.3427 1982.2807,-77.0172"/>
<polygon fill="#191970" stroke="#191970" points="1982.5791,-73.5288 1972.2524,-75.8969 1981.8019,-80.4856 1982.5791,-73.5288"/>
</g>
<!-- Node40&#45;&gt;Node33 -->
<g id="edge83" class="edge">
<title>Node40&#45;&gt;Node33</title>
<path fill="none" stroke="#191970" d="M2454.2073,-408.3188C2450.1793,-398.025 2443.8516,-381.8544 2438.8496,-369.0714"/>
<polygon fill="#191970" stroke="#191970" points="2442.0949,-367.76 2435.1915,-359.723 2435.5762,-370.3108 2442.0949,-367.76"/>
</g>
<!-- Node41&#45;&gt;Node33 -->
<g id="edge86" class="edge">
<title>Node41&#45;&gt;Node33</title>
<path fill="none" stroke="#191970" d="M2281.6377,-408.4668C2311.8356,-396.5602 2362.3495,-376.6433 2396.2093,-363.2929"/>
<polygon fill="#191970" stroke="#191970" points="2397.6949,-366.4694 2405.714,-359.5453 2395.1272,-359.9574 2397.6949,-366.4694"/>
</g>
<!-- Node42&#45;&gt;Node15 -->
<g id="edge89" class="edge">
<title>Node42&#45;&gt;Node15</title>
<path fill="none" stroke="#191970" d="M2257.7451,-333.4151C2252.0434,-301.0258 2235.036,-227.2687 2193.1912,-183 2136.1397,-122.6435 2044.1007,-93.4513 1976.8002,-79.5739"/>
<polygon fill="#191970" stroke="#191970" points="1977.1296,-76.071 1966.6393,-77.5557 1975.7658,-82.9369 1977.1296,-76.071"/>
</g>
<!-- Node42&#45;&gt;Node36 -->
<g id="edge90" class="edge">
<title>Node42&#45;&gt;Node36</title>
<path fill="none" stroke="#191970" d="M2226.097,-333.4966C2201.3482,-321.8798 2168.1367,-306.2907 2144.1469,-295.0302"/>
<polygon fill="#191970" stroke="#191970" points="2145.3422,-291.7249 2134.8026,-290.6441 2142.3678,-298.0616 2145.3422,-291.7249"/>
</g>
<!-- Node44&#45;&gt;Node15 -->
<g id="edge97" class="edge">
<title>Node44&#45;&gt;Node15</title>
<path fill="none" stroke="#191970" d="M1869.8857,-552.2843C2007.0476,-544.2345 2291.4339,-525.5454 2388.1912,-504 2475.4763,-484.5639 2503.5163,-485.6799 2577.1912,-435 2642.6642,-389.9622 2667.1912,-359.9677 2667.1912,-280.5 2667.1912,-280.5 2667.1912,-280.5 2667.1912,-205.5 2667.1912,-133.9344 2844.152,-197.8048 2430.1912,-114 2347.1014,-97.1788 2112.9061,-80.9173 1982.5719,-72.8198"/>
<polygon fill="#191970" stroke="#191970" points="1982.4134,-69.3034 1972.2166,-72.18 1981.9817,-76.2901 1982.4134,-69.3034"/>
</g>
<!-- Node44&#45;&gt;Node22 -->
<g id="edge96" class="edge">
<title>Node44&#45;&gt;Node22</title>
<path fill="none" stroke="#191970" d="M1718.6653,-549.7584C1578.9861,-537.2902 1280.2352,-510.6229 1122.9096,-496.5796"/>
<polygon fill="#191970" stroke="#191970" points="1123.0262,-493.0762 1112.7546,-495.6732 1122.4037,-500.0485 1123.0262,-493.0762"/>
</g>
<!-- Node44&#45;&gt;Node34 -->
<g id="edge95" class="edge">
<title>Node44&#45;&gt;Node34</title>
<path fill="none" stroke="#191970" d="M1869.8697,-550.0147C2054.1919,-533.4572 2514.6065,-487.2246 2559.1912,-435 2580.1643,-410.4331 2542.5041,-342.9668 2534.1912,-333 2520.0822,-316.0838 2499.0317,-303.3818 2480.8359,-294.7124"/>
<polygon fill="#191970" stroke="#191970" points="2482.1861,-291.4818 2471.6328,-290.5455 2479.2989,-297.8586 2482.1861,-291.4818"/>
</g>
<!-- Node45 -->
<g id="node45" class="node">
<title>Node45</title>
<polygon fill="none" stroke="#bfbfbf" points="2051.6912,-477.5 2051.6912,-497.5 2108.6912,-497.5 2108.6912,-477.5 2051.6912,-477.5"/>
<text text-anchor="middle" x="2080.1912" y="-484.5" font-family="FreeSans" font-size="10.00" fill="#000000">iomanip</text>
</g>
<!-- Node44&#45;&gt;Node45 -->
<g id="edge94" class="edge">
<title>Node44&#45;&gt;Node45</title>
<path fill="none" stroke="#191970" d="M1869.8221,-544.5644C1919.4788,-535.737 1985.4896,-522.1087 2042.1912,-504 2044.6492,-503.215 2047.1645,-502.326 2049.6728,-501.3775"/>
<polygon fill="#191970" stroke="#191970" points="2051.2275,-504.5239 2059.1763,-497.5191 2048.5942,-498.038 2051.2275,-504.5239"/>
</g>
<!-- Node46&#45;&gt;Node4 -->
<g id="edge100" class="edge">
<title>Node46&#45;&gt;Node4</title>
<path fill="none" stroke="#191970" d="M909.4382,-678.4426C879.7525,-671.7075 846.335,-660.5228 820.1912,-642 789.5008,-620.2558 782.6206,-608.8341 771.1912,-573 764.2338,-551.1866 769.1851,-524.8605 774.2834,-507.2352"/>
<polygon fill="#191970" stroke="#191970" points="777.6829,-508.0938 777.3716,-497.5035 771.0108,-505.9765 777.6829,-508.0938"/>
</g>
<!-- Node46&#45;&gt;Node5 -->
<g id="edge101" class="edge">
<title>Node46&#45;&gt;Node5</title>
<path fill="none" stroke="#191970" d="M1010.1473,-678.378C1034.8524,-669.433 1071.5846,-656.1334 1102.0291,-645.1104"/>
<polygon fill="#191970" stroke="#191970" points="1103.4585,-648.3153 1111.6696,-641.6199 1101.0754,-641.7334 1103.4585,-648.3153"/>
</g>
<!-- Node46&#45;&gt;Node6 -->
<g id="edge104" class="edge">
<title>Node46&#45;&gt;Node6</title>
<path fill="none" stroke="#191970" d="M925.5428,-678.4198C887.3369,-670.3354 841.8444,-657.7512 830.1912,-642 816.8122,-623.916 827.5481,-599.237 839.5657,-581.0409"/>
<polygon fill="#191970" stroke="#191970" points="842.5565,-582.8733 845.4681,-572.6863 836.8393,-578.8341 842.5565,-582.8733"/>
</g>
<!-- Node46&#45;&gt;Node38 -->
<g id="edge102" class="edge">
<title>Node46&#45;&gt;Node38</title>
<path fill="none" stroke="#191970" d="M979.2992,-678.378C977.2266,-671.1236 974.3356,-661.0052 971.6369,-651.5598"/>
<polygon fill="#191970" stroke="#191970" points="974.9444,-650.3957 968.8318,-641.742 968.2137,-652.3188 974.9444,-650.3957"/>
</g>
<!-- Node46&#45;&gt;Node44 -->
<g id="edge103" class="edge">
<title>Node46&#45;&gt;Node44</title>
<path fill="none" stroke="#191970" d="M1039.6646,-678.4882C1128.194,-663.1321 1303.2929,-633.0202 1452.1912,-609 1539.3794,-594.9349 1639.2208,-579.7095 1708.426,-569.2955"/>
<polygon fill="#191970" stroke="#191970" points="1709.0407,-572.7425 1718.4092,-567.7946 1708,-565.8203 1709.0407,-572.7425"/>
</g>
<!-- Node47&#45;&gt;Node2 -->
<g id="edge108" class="edge">
<title>Node47&#45;&gt;Node2</title>
<path fill="none" stroke="#191970" d="M2745.7323,-609.4966C2711.6048,-597.4823 2665.4082,-581.2192 2633.2262,-569.8899"/>
<polygon fill="#191970" stroke="#191970" points="2634.3123,-566.5617 2623.7175,-566.5424 2631.9878,-573.1645 2634.3123,-566.5617"/>
</g>
<!-- Node47&#45;&gt;Node15 -->
<g id="edge109" class="edge">
<title>Node47&#45;&gt;Node15</title>
<path fill="none" stroke="#191970" d="M2806.8982,-609.2642C2815.5505,-599.4772 2825.8005,-586.3522 2832.1912,-573 2849.0396,-537.7985 2852.1912,-526.5258 2852.1912,-487.5 2852.1912,-487.5 2852.1912,-487.5 2852.1912,-205.5 2852.1912,-146.8784 2810.9504,-137.3762 2757.1912,-114 2687.5979,-83.7385 2190.0193,-72.2895 1982.6058,-68.7997"/>
<polygon fill="#191970" stroke="#191970" points="1982.4095,-65.2961 1972.3528,-68.6297 1982.2934,-72.2951 1982.4095,-65.2961"/>
</g>
<!-- Node47&#45;&gt;Node30 -->
<g id="edge107" class="edge">
<title>Node47&#45;&gt;Node30</title>
<path fill="none" stroke="#191970" d="M2778.309,-609.4278C2769.9906,-599.0421 2758.9401,-585.2311 2749.1912,-573 2635.8829,-430.8412 2644.1446,-344.5859 2481.1912,-264 2430.7843,-239.0721 2264.8301,-217.4296 2194.3299,-209.1218"/>
<polygon fill="#191970" stroke="#191970" points="2194.5934,-205.6289 2184.2558,-207.9491 2193.784,-212.582 2194.5934,-205.6289"/>
</g>
<!-- Node48 -->
<g id="node48" class="node">
<title>Node48</title>
<polygon fill="none" stroke="#bfbfbf" points="2758.6912,-546.5 2758.6912,-566.5 2823.6912,-566.5 2823.6912,-546.5 2758.6912,-546.5"/>
<text text-anchor="middle" x="2791.1912" y="-553.5" font-family="FreeSans" font-size="10.00" fill="#000000">algorithm</text>
</g>
<!-- Node47&#45;&gt;Node48 -->
<g id="edge106" class="edge">
<title>Node47&#45;&gt;Node48</title>
<path fill="none" stroke="#191970" d="M2791.1912,-609.4966C2791.1912,-599.7901 2791.1912,-587.3104 2791.1912,-576.8996"/>
<polygon fill="#191970" stroke="#191970" points="2794.6913,-576.6441 2791.1912,-566.6441 2787.6913,-576.6441 2794.6913,-576.6441"/>
</g>
<!-- Node50&#45;&gt;Node2 -->
<g id="edge113" class="edge">
<title>Node50&#45;&gt;Node2</title>
<path fill="none" stroke="#191970" d="M2681.8152,-678.1422C2665.9593,-655.8765 2628.4441,-603.1955 2608.3833,-575.0251"/>
<polygon fill="#191970" stroke="#191970" points="2611.1847,-572.9251 2602.533,-566.8097 2605.4827,-576.9856 2611.1847,-572.9251"/>
</g>
<!-- Node50&#45;&gt;Node15 -->
<g id="edge115" class="edge">
<title>Node50&#45;&gt;Node15</title>
<path fill="none" stroke="#191970" d="M2690.9879,-678.44C2700.3577,-625.8301 2743.1912,-383.4698 2743.1912,-349.5 2743.1912,-349.5 2743.1912,-349.5 2743.1912,-205.5 2743.1912,-102.4682 2630.2883,-138.4157 2530.1912,-114 2428.9391,-89.3026 2133.2191,-75.8247 1982.6057,-70.3904"/>
<polygon fill="#191970" stroke="#191970" points="1982.5762,-66.8872 1972.4577,-70.0285 1982.3266,-73.8827 1982.5762,-66.8872"/>
</g>
<!-- Node50&#45;&gt;Node47 -->
<g id="edge114" class="edge">
<title>Node50&#45;&gt;Node47</title>
<path fill="none" stroke="#191970" d="M2705.5793,-678.378C2719.1986,-669.966 2739.0531,-657.703 2756.2137,-647.1038"/>
<polygon fill="#191970" stroke="#191970" points="2758.2259,-649.9748 2764.8947,-641.742 2754.5475,-644.0192 2758.2259,-649.9748"/>
</g>
</g>
</svg>
