<?xml version="1.0" encoding="UTF-8" standalone="no"?>
<!DOCTYPE svg PUBLIC "-//W3C//DTD SVG 1.1//EN"
 "http://www.w3.org/Graphics/SVG/1.1/DTD/svg11.dtd">
<!-- Generated by graphviz version 2.40.1 (20161225.0304)
 -->
<!-- Title: genfit::RaveToGFVertices Pages: 1 -->
<svg width="538pt" height="182pt"
 viewBox="0.00 0.00 538.00 182.00" xmlns="http://www.w3.org/2000/svg" xmlns:xlink="http://www.w3.org/1999/xlink">
<g id="graph0" class="graph" transform="scale(1 1) rotate(0) translate(4 178)">
<title>genfit::RaveToGFVertices</title>
<!-- Node1 -->
<g id="node1" class="node">
<title>Node1</title>
<polygon fill="#bfbfbf" stroke="#000000" points="0,-82.5 0,-102.5 142,-102.5 142,-82.5 0,-82.5"/>
<text text-anchor="middle" x="71" y="-89.5" font-family="FreeSans" font-size="10.00" fill="#000000">genfit::RaveToGFVertices</text>
</g>
<!-- Node2 -->
<g id="node2" class="node">
<title>Node2</title>
<g id="a_node2"><a xlink:href="../../d1/d19/classgenfit_1_1GFRaveVertexFactory.html#a12b2a1abd879414950206ffac162b88e" target="_top" xlink:title="genfit::GFRaveVertexFactory\l::findVertices">
<polygon fill="none" stroke="#000000" points="178,-76.5 178,-108.5 338,-108.5 338,-76.5 178,-76.5"/>
<text text-anchor="start" x="186" y="-95.5" font-family="FreeSans" font-size="10.00" fill="#000000">genfit::GFRaveVertexFactory</text>
<text text-anchor="middle" x="258" y="-83.5" font-family="FreeSans" font-size="10.00" fill="#000000">::findVertices</text>
</a>
</g>
</g>
<!-- Node1&#45;&gt;Node2 -->
<g id="edge1" class="edge">
<title>Node1&#45;&gt;Node2</title>
<path fill="none" stroke="#191970" d="M152.4485,-92.5C160.8955,-92.5 169.476,-92.5 177.9079,-92.5"/>
<polygon fill="#191970" stroke="#191970" points="152.2302,-89.0001 142.2301,-92.5 152.2301,-96.0001 152.2302,-89.0001"/>
</g>
<!-- Node3 -->
<g id="node3" class="node">
<title>Node3</title>
<g id="a_node3"><a xlink:href="../../da/d87/fun4all__GenFit_2blob_2master_2test_2vertexingTest_2main_8cc.html#ae66f6b31b5ad750f1fe042a706a4e3d4" target="_top" xlink:title="main">
<polygon fill="none" stroke="#000000" points="431.5,-153.5 431.5,-173.5 472.5,-173.5 472.5,-153.5 431.5,-153.5"/>
<text text-anchor="middle" x="452" y="-160.5" font-family="FreeSans" font-size="10.00" fill="#000000">main</text>
</a>
</g>
</g>
<!-- Node2&#45;&gt;Node3 -->
<g id="edge2" class="edge">
<title>Node2&#45;&gt;Node3</title>
<path fill="none" stroke="#191970" d="M299.1644,-113.1635C321.0115,-123.5609 348.539,-135.7739 374,-144.5 392.9861,-151.007 415.2925,-156.2053 431.1766,-159.5084"/>
<polygon fill="#191970" stroke="#191970" points="300.392,-109.87 289.8637,-108.6841 297.3545,-116.1767 300.392,-109.87"/>
</g>
<!-- Node4 -->
<g id="node4" class="node">
<title>Node4</title>
<g id="a_node4"><a xlink:href="../../d7/dff/classPHTpcVertexFinder.html#a826a534d2a0b037bd33357b427046fad" target="_top" xlink:title="PHTpcVertexFinder::\lfindVertices">
<polygon fill="none" stroke="#000000" points="393.5,-102.5 393.5,-134.5 510.5,-134.5 510.5,-102.5 393.5,-102.5"/>
<text text-anchor="start" x="401.5" y="-121.5" font-family="FreeSans" font-size="10.00" fill="#000000">PHTpcVertexFinder::</text>
<text text-anchor="middle" x="452" y="-109.5" font-family="FreeSans" font-size="10.00" fill="#000000">findVertices</text>
</a>
</g>
</g>
<!-- Node2&#45;&gt;Node4 -->
<g id="edge3" class="edge">
<title>Node2&#45;&gt;Node4</title>
<path fill="none" stroke="#191970" d="M348.1088,-104.5764C363.5266,-106.6427 379.1777,-108.7403 393.4935,-110.6589"/>
<polygon fill="#191970" stroke="#191970" points="348.4036,-101.0847 338.0273,-103.2253 347.4737,-108.0227 348.4036,-101.0847"/>
</g>
<!-- Node5 -->
<g id="node5" class="node">
<title>Node5</title>
<g id="a_node5"><a xlink:href="../../d5/daa/classPHRaveVertexing.html#afefcb6ce27ac34016e62172d8519fae8" target="_top" xlink:title="Process Event, called for each event.">
<polygon fill="none" stroke="#000000" points="377.5,-51.5 377.5,-83.5 526.5,-83.5 526.5,-51.5 377.5,-51.5"/>
<text text-anchor="start" x="385.5" y="-70.5" font-family="FreeSans" font-size="10.00" fill="#000000">PHRaveVertexing::process</text>
<text text-anchor="middle" x="452" y="-58.5" font-family="FreeSans" font-size="10.00" fill="#000000">_event</text>
</a>
</g>
</g>
<!-- Node2&#45;&gt;Node5 -->
<g id="edge4" class="edge">
<title>Node2&#45;&gt;Node5</title>
<path fill="none" stroke="#191970" d="M348.1856,-80.8781C357.982,-79.6157 367.8715,-78.3413 377.4519,-77.1067"/>
<polygon fill="#191970" stroke="#191970" points="347.4979,-77.4377 338.0273,-82.1872 348.3926,-84.3803 347.4979,-77.4377"/>
</g>
<!-- Node6 -->
<g id="node6" class="node">
<title>Node6</title>
<g id="a_node6"><a xlink:href="../../d9/d91/classPHG4TrackFastSim.html#a8bb22ab279c5f433069774bd2ab0a7ae" target="_top" xlink:title="Process Event, called for each event.">
<polygon fill="none" stroke="#000000" points="374,-.5 374,-32.5 530,-32.5 530,-.5 374,-.5"/>
<text text-anchor="start" x="382" y="-19.5" font-family="FreeSans" font-size="10.00" fill="#000000">PHG4TrackFastSim::process</text>
<text text-anchor="middle" x="452" y="-7.5" font-family="FreeSans" font-size="10.00" fill="#000000">_event</text>
</a>
</g>
</g>
<!-- Node2&#45;&gt;Node6 -->
<g id="edge5" class="edge">
<title>Node2&#45;&gt;Node6</title>
<path fill="none" stroke="#191970" d="M302.4054,-72.3054C323.8591,-62.8205 350.0823,-51.622 374,-42.5 382.9359,-39.092 392.5371,-35.6869 401.8433,-32.5167"/>
<polygon fill="#191970" stroke="#191970" points="300.9324,-69.1299 293.2174,-76.3914 303.7768,-75.526 300.9324,-69.1299"/>
</g>
</g>
</svg>
