<?xml version="1.0" encoding="UTF-8" standalone="no"?>
<!DOCTYPE svg PUBLIC "-//W3C//DTD SVG 1.1//EN"
 "http://www.w3.org/Graphics/SVG/1.1/DTD/svg11.dtd">
<!-- Generated by graphviz version 2.40.1 (20161225.0304)
 -->
<!-- Title: fun4all_acts/blob/master/Core/src/Geometry/ProtoLayer.cpp Pages: 1 -->
<svg width="2472pt" height="614pt"
 viewBox="0.00 0.00 2472.00 614.00" xmlns="http://www.w3.org/2000/svg" xmlns:xlink="http://www.w3.org/1999/xlink">
<g id="graph0" class="graph" transform="scale(1 1) rotate(0) translate(4 610)">
<title>fun4all_acts/blob/master/Core/src/Geometry/ProtoLayer.cpp</title>
<!-- Node1 -->
<g id="node1" class="node">
<title>Node1</title>
<polygon fill="#bfbfbf" stroke="#000000" points="1142,-573.5 1142,-605.5 1336,-605.5 1336,-573.5 1142,-573.5"/>
<text text-anchor="start" x="1150" y="-592.5" font-family="FreeSans" font-size="10.00" fill="#000000">fun4all_acts/blob/master</text>
<text text-anchor="middle" x="1239" y="-580.5" font-family="FreeSans" font-size="10.00" fill="#000000">/Core/src/Geometry/ProtoLayer.cpp</text>
</g>
<!-- Node2 -->
<g id="node2" class="node">
<title>Node2</title>
<polygon fill="none" stroke="#bfbfbf" points="198,-.5 198,-20.5 246,-20.5 246,-.5 198,-.5"/>
<text text-anchor="middle" x="222" y="-7.5" font-family="FreeSans" font-size="10.00" fill="#000000">cmath</text>
</g>
<!-- Node1&#45;&gt;Node2 -->
<g id="edge1" class="edge">
<title>Node1&#45;&gt;Node2</title>
<path fill="none" stroke="#191970" d="M1141.6656,-587.1632C927.1768,-581.5531 419.4353,-565.6212 250,-537 135.8042,-517.7099 0,-579.3136 0,-463.5 0,-463.5 0,-463.5 0,-142.5 0,-99.137 12.8488,-83.7215 47,-57 68.7746,-39.9626 143.2458,-24.3849 187.7176,-16.3046"/>
<polygon fill="#191970" stroke="#191970" points="188.5616,-19.7094 197.7923,-14.5089 187.3333,-12.818 188.5616,-19.7094"/>
</g>
<!-- Node3 -->
<g id="node3" class="node">
<title>Node3</title>
<polygon fill="none" stroke="#bfbfbf" points="2132.5,-.5 2132.5,-20.5 2197.5,-20.5 2197.5,-.5 2132.5,-.5"/>
<text text-anchor="middle" x="2165" y="-7.5" font-family="FreeSans" font-size="10.00" fill="#000000">algorithm</text>
</g>
<!-- Node1&#45;&gt;Node3 -->
<g id="edge2" class="edge">
<title>Node1&#45;&gt;Node3</title>
<path fill="none" stroke="#191970" d="M1336.1476,-584.5799C1625.8862,-569.269 2464,-520.089 2464,-463.5 2464,-463.5 2464,-463.5 2464,-142.5 2464,-87.0755 2289.8886,-39.374 2207.3925,-19.8831"/>
<polygon fill="#191970" stroke="#191970" points="2208.1009,-16.4544 2197.5674,-17.5929 2206.5118,-23.2717 2208.1009,-16.4544"/>
</g>
<!-- Node4 -->
<g id="node4" class="node">
<title>Node4</title>
<g id="a_node4"><a xlink:href="../../db/d40/Polyhedron_8hpp.html" target="_top" xlink:title="Acts/Geometry/Polyhedron.hpp">
<polygon fill="none" stroke="#000000" points="1309.5,-321.5 1309.5,-341.5 1484.5,-341.5 1484.5,-321.5 1309.5,-321.5"/>
<text text-anchor="middle" x="1397" y="-328.5" font-family="FreeSans" font-size="10.00" fill="#000000">Acts/Geometry/Polyhedron.hpp</text>
</a>
</g>
</g>
<!-- Node1&#45;&gt;Node4 -->
<g id="edge3" class="edge">
<title>Node1&#45;&gt;Node4</title>
<path fill="none" stroke="#191970" d="M1260.2785,-573.371C1295.7144,-545.0549 1365.7145,-482.5679 1394,-411 1401.5072,-392.0054 1401.3425,-368.4284 1399.8642,-351.9008"/>
<polygon fill="#191970" stroke="#191970" points="1403.315,-351.269 1398.709,-341.7278 1396.3597,-352.0589 1403.315,-351.269"/>
</g>
<!-- Node11 -->
<g id="node11" class="node">
<title>Node11</title>
<g id="a_node11"><a xlink:href="../../d9/d70/Core_2include_2Acts_2Utilities_2Helpers_8hpp.html" target="_top" xlink:title="Acts/Utilities/Helpers.hpp">
<polygon fill="none" stroke="#000000" points="1594.5,-195.5 1594.5,-215.5 1739.5,-215.5 1739.5,-195.5 1594.5,-195.5"/>
<text text-anchor="middle" x="1667" y="-202.5" font-family="FreeSans" font-size="10.00" fill="#000000">Acts/Utilities/Helpers.hpp</text>
</a>
</g>
</g>
<!-- Node1&#45;&gt;Node11 -->
<g id="edge117" class="edge">
<title>Node1&#45;&gt;Node11</title>
<path fill="none" stroke="#191970" d="M1336.1218,-586.3625C1574.0946,-577.3858 2167,-546.6746 2167,-463.5 2167,-463.5 2167,-463.5 2167,-331.5 2167,-275.415 2120.6936,-273.7555 2069,-252 2013.2025,-228.5174 1850.3579,-215.5785 1749.8731,-209.6293"/>
<polygon fill="#191970" stroke="#191970" points="1749.9339,-206.127 1739.7477,-209.0409 1749.5278,-213.1152 1749.9339,-206.127"/>
</g>
<!-- Node30 -->
<g id="node30" class="node">
<title>Node30</title>
<g id="a_node30"><a xlink:href="../../d0/d62/ProtoLayer_8hpp.html" target="_top" xlink:title="Acts/Geometry/ProtoLayer.hpp">
<polygon fill="none" stroke="#000000" points="1520.5,-516.5 1520.5,-536.5 1691.5,-536.5 1691.5,-516.5 1520.5,-516.5"/>
<text text-anchor="middle" x="1606" y="-523.5" font-family="FreeSans" font-size="10.00" fill="#000000">Acts/Geometry/ProtoLayer.hpp</text>
</a>
</g>
</g>
<!-- Node1&#45;&gt;Node30 -->
<g id="edge51" class="edge">
<title>Node1&#45;&gt;Node30</title>
<path fill="none" stroke="#191970" d="M1332.5592,-573.4394C1396.4677,-562.4688 1479.7133,-548.1786 1537.4872,-538.2611"/>
<polygon fill="#191970" stroke="#191970" points="1538.3449,-541.6651 1547.6085,-536.5236 1537.1605,-534.766 1538.3449,-541.6651"/>
</g>
<!-- Node43 -->
<g id="node43" class="node">
<title>Node43</title>
<g id="a_node43"><a xlink:href="../../dc/db5/AnnulusBounds_8hpp.html" target="_top" xlink:title="Acts/Surfaces/AnnulusBounds.hpp">
<polygon fill="none" stroke="#000000" points="579.5,-384.5 579.5,-404.5 770.5,-404.5 770.5,-384.5 579.5,-384.5"/>
<text text-anchor="middle" x="675" y="-391.5" font-family="FreeSans" font-size="10.00" fill="#000000">Acts/Surfaces/AnnulusBounds.hpp</text>
</a>
</g>
</g>
<!-- Node1&#45;&gt;Node43 -->
<g id="edge87" class="edge">
<title>Node1&#45;&gt;Node43</title>
<path fill="none" stroke="#191970" d="M1192.3657,-573.3764C1083.4311,-535.7129 813.8994,-442.5237 713.5018,-407.8118"/>
<polygon fill="#191970" stroke="#191970" points="714.6418,-404.5027 704.047,-404.5428 712.3543,-411.1184 714.6418,-404.5027"/>
</g>
<!-- Node47 -->
<g id="node47" class="node">
<title>Node47</title>
<g id="a_node47"><a xlink:href="../../d8/d1e/CylinderBounds_8hpp.html" target="_top" xlink:title="Acts/Surfaces/CylinderBounds.hpp">
<polygon fill="none" stroke="#000000" points="306,-321.5 306,-341.5 498,-341.5 498,-321.5 306,-321.5"/>
<text text-anchor="middle" x="402" y="-328.5" font-family="FreeSans" font-size="10.00" fill="#000000">Acts/Surfaces/CylinderBounds.hpp</text>
</a>
</g>
</g>
<!-- Node1&#45;&gt;Node47 -->
<g id="edge97" class="edge">
<title>Node1&#45;&gt;Node47</title>
<path fill="none" stroke="#191970" d="M1159.7227,-573.4896C1032.9113,-546.7432 777.5921,-488.2086 570,-411 519.0764,-392.0602 462.4625,-363.6426 429.6736,-346.4083"/>
<polygon fill="#191970" stroke="#191970" points="431.164,-343.2371 420.6885,-341.6514 427.8887,-349.4236 431.164,-343.2371"/>
</g>
<!-- Node48 -->
<g id="node48" class="node">
<title>Node48</title>
<g id="a_node48"><a xlink:href="../../d4/d17/CylinderSurface_8hpp.html" target="_top" xlink:title="Acts/Surfaces/CylinderSurface.hpp">
<polygon fill="none" stroke="#000000" points="259,-516.5 259,-536.5 451,-536.5 451,-516.5 259,-516.5"/>
<text text-anchor="middle" x="355" y="-523.5" font-family="FreeSans" font-size="10.00" fill="#000000">Acts/Surfaces/CylinderSurface.hpp</text>
</a>
</g>
</g>
<!-- Node1&#45;&gt;Node48 -->
<g id="edge105" class="edge">
<title>Node1&#45;&gt;Node48</title>
<path fill="none" stroke="#191970" d="M1141.9956,-582.6234C1000.9031,-572.6158 730.8179,-553.4384 501,-537 488.1736,-536.0825 474.7134,-535.1176 461.3713,-534.1596"/>
<polygon fill="#191970" stroke="#191970" points="461.429,-530.6549 451.2039,-533.4294 460.9275,-537.6369 461.429,-530.6549"/>
</g>
<!-- Node5 -->
<g id="node5" class="node">
<title>Node5</title>
<g id="a_node5"><a xlink:href="../../dc/d2a/Extent_8hpp.html" target="_top" xlink:title="Acts/Geometry/Extent.hpp">
<polygon fill="none" stroke="#000000" points="1375.5,-258.5 1375.5,-278.5 1526.5,-278.5 1526.5,-258.5 1375.5,-258.5"/>
<text text-anchor="middle" x="1451" y="-265.5" font-family="FreeSans" font-size="10.00" fill="#000000">Acts/Geometry/Extent.hpp</text>
</a>
</g>
</g>
<!-- Node4&#45;&gt;Node5 -->
<g id="edge4" class="edge">
<title>Node4&#45;&gt;Node5</title>
<path fill="none" stroke="#191970" d="M1405.676,-321.378C1413.7369,-311.9736 1425.9235,-297.7559 1435.6305,-286.431"/>
<polygon fill="#191970" stroke="#191970" points="1438.3156,-288.6766 1442.1661,-278.8062 1433.0007,-284.121 1438.3156,-288.6766"/>
</g>
<!-- Node8 -->
<g id="node8" class="node">
<title>Node8</title>
<polygon fill="none" stroke="#bfbfbf" points="1260.5,-63.5 1260.5,-83.5 1309.5,-83.5 1309.5,-63.5 1260.5,-63.5"/>
<text text-anchor="middle" x="1285" y="-70.5" font-family="FreeSans" font-size="10.00" fill="#000000">vector</text>
</g>
<!-- Node4&#45;&gt;Node8 -->
<g id="edge50" class="edge">
<title>Node4&#45;&gt;Node8</title>
<path fill="none" stroke="#191970" d="M1389.1599,-321.1996C1382.4287,-312.0387 1372.7693,-298.1024 1366,-285 1331.1761,-217.5962 1302.8314,-131.6472 1290.9822,-93.4008"/>
<polygon fill="#191970" stroke="#191970" points="1294.2361,-92.0725 1287.9651,-83.5329 1287.542,-94.1192 1294.2361,-92.0725"/>
</g>
<!-- Node9 -->
<g id="node9" class="node">
<title>Node9</title>
<g id="a_node9"><a xlink:href="../../d6/d1d/Definitions_8hpp.html" target="_top" xlink:title="Acts/Utilities/Definitions.hpp">
<polygon fill="none" stroke="#000000" points="783,-63.5 783,-83.5 943,-83.5 943,-63.5 783,-63.5"/>
<text text-anchor="middle" x="863" y="-70.5" font-family="FreeSans" font-size="10.00" fill="#000000">Acts/Utilities/Definitions.hpp</text>
</a>
</g>
</g>
<!-- Node4&#45;&gt;Node9 -->
<g id="edge46" class="edge">
<title>Node4&#45;&gt;Node9</title>
<path fill="none" stroke="#191970" d="M1355.8219,-321.4759C1327.1863,-313.6404 1288.6305,-301.3353 1257,-285 1234.9637,-273.6196 1233.7529,-263.9131 1212,-252 1173.1259,-230.7104 1158.9269,-235.2429 1119,-216 1047.5857,-181.5815 1034.4906,-164.1537 965,-126 940.8861,-112.7603 913.0998,-98.524 892.6239,-88.2209"/>
<polygon fill="#191970" stroke="#191970" points="893.9974,-84.9943 883.4893,-83.6413 890.8601,-91.2519 893.9974,-84.9943"/>
</g>
<!-- Node4&#45;&gt;Node11 -->
<g id="edge47" class="edge">
<title>Node4&#45;&gt;Node11</title>
<path fill="none" stroke="#191970" d="M1458.1707,-321.4358C1492.091,-314.2904 1534.2999,-302.7485 1569,-285 1600.7724,-268.7489 1631.7897,-240.9907 1650.1486,-222.9494"/>
<polygon fill="#191970" stroke="#191970" points="1652.847,-225.2 1657.4288,-215.6471 1647.8898,-220.2578 1652.847,-225.2"/>
</g>
<!-- Node24 -->
<g id="node24" class="node">
<title>Node24</title>
<g id="a_node24"><a xlink:href="../../d7/d50/BoundaryCheck_8hpp.html" target="_top" xlink:title="Acts/Surfaces/BoundaryCheck.hpp">
<polygon fill="none" stroke="#000000" points="761,-195.5 761,-215.5 953,-215.5 953,-195.5 761,-195.5"/>
<text text-anchor="middle" x="857" y="-202.5" font-family="FreeSans" font-size="10.00" fill="#000000">Acts/Surfaces/BoundaryCheck.hpp</text>
</a>
</g>
</g>
<!-- Node4&#45;&gt;Node24 -->
<g id="edge35" class="edge">
<title>Node4&#45;&gt;Node24</title>
<path fill="none" stroke="#191970" d="M1334.2966,-321.4736C1299.1808,-314.32 1255.2924,-302.7577 1219,-285 1197.3611,-274.4122 1198.1919,-261.3737 1176,-252 1138.5623,-236.1866 1040.9371,-223.35 963.4621,-215.2019"/>
<polygon fill="#191970" stroke="#191970" points="963.4636,-211.6834 953.1558,-214.1329 962.7413,-218.646 963.4636,-211.6834"/>
</g>
<!-- Node28 -->
<g id="node28" class="node">
<title>Node28</title>
<polygon fill="none" stroke="#bfbfbf" points="906.5,-258.5 906.5,-278.5 949.5,-278.5 949.5,-258.5 906.5,-258.5"/>
<text text-anchor="middle" x="928" y="-265.5" font-family="FreeSans" font-size="10.00" fill="#000000">array</text>
</g>
<!-- Node4&#45;&gt;Node28 -->
<g id="edge48" class="edge">
<title>Node4&#45;&gt;Node28</title>
<path fill="none" stroke="#191970" d="M1322.4264,-321.4827C1218.2249,-307.4854 1033.5574,-282.6794 959.7613,-272.7664"/>
<polygon fill="#191970" stroke="#191970" points="960.0775,-269.2776 949.7006,-271.415 959.1455,-276.2153 960.0775,-269.2776"/>
</g>
<!-- Node29 -->
<g id="node29" class="node">
<title>Node29</title>
<polygon fill="none" stroke="#bfbfbf" points="1123,-258.5 1123,-278.5 1167,-278.5 1167,-258.5 1123,-258.5"/>
<text text-anchor="middle" x="1145" y="-265.5" font-family="FreeSans" font-size="10.00" fill="#000000">limits</text>
</g>
<!-- Node4&#45;&gt;Node29 -->
<g id="edge49" class="edge">
<title>Node4&#45;&gt;Node29</title>
<path fill="none" stroke="#191970" d="M1332.6991,-321.4434C1289.2236,-313.7278 1230.8693,-301.5761 1181,-285 1178.743,-284.2498 1176.4386,-283.4011 1174.1409,-282.4941"/>
<polygon fill="#191970" stroke="#191970" points="1175.4424,-279.2442 1164.8709,-278.5413 1172.6967,-285.6833 1175.4424,-279.2442"/>
</g>
<!-- Node6 -->
<g id="node6" class="node">
<title>Node6</title>
<g id="a_node6"><a xlink:href="../../de/d09/BinningType_8hpp.html" target="_top" xlink:title="Acts/Utilities/BinningType.hpp">
<polygon fill="none" stroke="#000000" points="2192,-132.5 2192,-152.5 2360,-152.5 2360,-132.5 2192,-132.5"/>
<text text-anchor="middle" x="2276" y="-139.5" font-family="FreeSans" font-size="10.00" fill="#000000">Acts/Utilities/BinningType.hpp</text>
</a>
</g>
</g>
<!-- Node5&#45;&gt;Node6 -->
<g id="edge5" class="edge">
<title>Node5&#45;&gt;Node6</title>
<path fill="none" stroke="#191970" d="M1505.3083,-258.4547C1586.9125,-243.5384 1746.092,-215.1323 1882,-195 2008.7313,-176.2271 2041.1111,-176.6758 2168,-159 2179.1154,-157.4516 2190.8619,-155.7376 2202.3541,-154.0171"/>
<polygon fill="#191970" stroke="#191970" points="2202.9991,-157.4595 2212.3655,-152.5076 2201.9554,-150.5378 2202.9991,-157.4595"/>
</g>
<!-- Node5&#45;&gt;Node8 -->
<g id="edge34" class="edge">
<title>Node5&#45;&gt;Node8</title>
<path fill="none" stroke="#191970" d="M1443.3403,-258.1785C1425.4777,-234.2795 1379.3566,-173.552 1337,-126 1326.1206,-113.7862 1313.1795,-100.7158 1302.9289,-90.6717"/>
<polygon fill="#191970" stroke="#191970" points="1305.3057,-88.1011 1295.6934,-83.6452 1300.429,-93.1228 1305.3057,-88.1011"/>
</g>
<!-- Node5&#45;&gt;Node9 -->
<g id="edge8" class="edge">
<title>Node5&#45;&gt;Node9</title>
<path fill="none" stroke="#191970" d="M1436.503,-258.4714C1397.702,-232.1473 1287.4621,-160.7202 1185,-126 1109.2556,-100.3334 1019.1105,-87.0087 953.4919,-80.2196"/>
<polygon fill="#191970" stroke="#191970" points="953.4764,-76.7006 943.177,-79.1852 952.7779,-83.6656 953.4764,-76.7006"/>
</g>
<!-- Node5&#45;&gt;Node11 -->
<g id="edge10" class="edge">
<title>Node5&#45;&gt;Node11</title>
<path fill="none" stroke="#191970" d="M1485.7041,-258.378C1522.9418,-247.517 1582.1907,-230.236 1622.7526,-218.4055"/>
<polygon fill="#191970" stroke="#191970" points="1623.762,-221.757 1632.382,-215.5969 1621.802,-215.037 1623.762,-221.757"/>
</g>
<!-- Node22 -->
<g id="node22" class="node">
<title>Node22</title>
<polygon fill="none" stroke="#bfbfbf" points="1427,-195.5 1427,-215.5 1475,-215.5 1475,-195.5 1427,-195.5"/>
<text text-anchor="middle" x="1451" y="-202.5" font-family="FreeSans" font-size="10.00" fill="#000000">iosfwd</text>
</g>
<!-- Node5&#45;&gt;Node22 -->
<g id="edge32" class="edge">
<title>Node5&#45;&gt;Node22</title>
<path fill="none" stroke="#191970" d="M1451,-258.378C1451,-249.7041 1451,-236.9355 1451,-226.1186"/>
<polygon fill="#191970" stroke="#191970" points="1454.5001,-225.8062 1451,-215.8062 1447.5001,-225.8062 1454.5001,-225.8062"/>
</g>
<!-- Node23 -->
<g id="node23" class="node">
<title>Node23</title>
<polygon fill="none" stroke="#bfbfbf" points="307.5,-63.5 307.5,-83.5 352.5,-83.5 352.5,-63.5 307.5,-63.5"/>
<text text-anchor="middle" x="330" y="-70.5" font-family="FreeSans" font-size="10.00" fill="#000000">utility</text>
</g>
<!-- Node5&#45;&gt;Node23 -->
<g id="edge33" class="edge">
<title>Node5&#45;&gt;Node23</title>
<path fill="none" stroke="#191970" d="M1375.4696,-263.6796C1207.3122,-252.8247 812.1127,-226.5883 752,-216 659.7094,-199.7438 638.2625,-187.5313 549,-159 462.6284,-131.3927 438.7761,-129.1777 357,-90 356.1547,-89.595 355.3021,-89.1707 354.447,-88.7315"/>
<polygon fill="#191970" stroke="#191970" points="355.8361,-85.4975 345.4031,-83.653 352.4087,-91.601 355.8361,-85.4975"/>
</g>
<!-- Node7 -->
<g id="node7" class="node">
<title>Node7</title>
<polygon fill="none" stroke="#bfbfbf" points="2141.5,-63.5 2141.5,-83.5 2186.5,-83.5 2186.5,-63.5 2141.5,-63.5"/>
<text text-anchor="middle" x="2164" y="-70.5" font-family="FreeSans" font-size="10.00" fill="#000000">string</text>
</g>
<!-- Node6&#45;&gt;Node7 -->
<g id="edge6" class="edge">
<title>Node6&#45;&gt;Node7</title>
<path fill="none" stroke="#191970" d="M2259.474,-132.3188C2240.9455,-120.9039 2210.6867,-102.2623 2189.2037,-89.0273"/>
<polygon fill="#191970" stroke="#191970" points="2190.9436,-85.9883 2180.5938,-83.723 2187.2719,-91.9481 2190.9436,-85.9883"/>
</g>
<!-- Node6&#45;&gt;Node8 -->
<g id="edge7" class="edge">
<title>Node6&#45;&gt;Node8</title>
<path fill="none" stroke="#191970" d="M2202.9925,-132.4598C2184.1276,-130.0975 2163.8293,-127.7587 2145,-126 1825.0954,-96.12 1436.5859,-79.4216 1319.8056,-74.8202"/>
<polygon fill="#191970" stroke="#191970" points="1319.8023,-71.3175 1309.6733,-74.4246 1319.5291,-78.3122 1319.8023,-71.3175"/>
</g>
<!-- Node10 -->
<g id="node10" class="node">
<title>Node10</title>
<polygon fill="none" stroke="#bfbfbf" points="823,-.5 823,-20.5 903,-20.5 903,-.5 823,-.5"/>
<text text-anchor="middle" x="863" y="-7.5" font-family="FreeSans" font-size="10.00" fill="#000000">Eigen/Dense</text>
</g>
<!-- Node9&#45;&gt;Node10 -->
<g id="edge9" class="edge">
<title>Node9&#45;&gt;Node10</title>
<path fill="none" stroke="#191970" d="M863,-63.378C863,-54.7041 863,-41.9355 863,-31.1186"/>
<polygon fill="#191970" stroke="#191970" points="866.5001,-30.8062 863,-20.8062 859.5001,-30.8062 866.5001,-30.8062"/>
</g>
<!-- Node11&#45;&gt;Node2 -->
<g id="edge12" class="edge">
<title>Node11&#45;&gt;Node2</title>
<path fill="none" stroke="#191970" d="M1626.7258,-195.4458C1599.4969,-187.6986 1563.303,-175.5092 1534,-159 1513.9206,-147.6873 1513.865,-137.6851 1494,-126 1421.5809,-83.4014 1400.2076,-74.3515 1318,-57 1212.1373,-34.6557 430.6239,-15.3403 256.3769,-11.2826"/>
<polygon fill="#191970" stroke="#191970" points="256.3209,-7.7805 246.2425,-11.048 256.1588,-14.7786 256.3209,-7.7805"/>
</g>
<!-- Node11&#45;&gt;Node6 -->
<g id="edge19" class="edge">
<title>Node11&#45;&gt;Node6</title>
<path fill="none" stroke="#191970" d="M1739.6094,-196.5419C1744.4774,-196.0015 1749.3084,-195.4821 1754,-195 1942.1317,-175.6666 1990.3709,-182.72 2178,-159 2188.8119,-157.6332 2200.2544,-155.9363 2211.3583,-154.1556"/>
<polygon fill="#191970" stroke="#191970" points="2212.1309,-157.5757 2221.4327,-152.5036 2210.9981,-150.668 2212.1309,-157.5757"/>
</g>
<!-- Node11&#45;&gt;Node7 -->
<g id="edge17" class="edge">
<title>Node11&#45;&gt;Node7</title>
<path fill="none" stroke="#191970" d="M1739.6134,-196.5806C1744.4804,-196.0308 1749.3102,-195.4988 1754,-195 1797.3835,-190.3858 2112.2568,-187.8323 2145,-159 2163.3061,-142.8804 2166.1309,-113.392 2165.6881,-93.6178"/>
<polygon fill="#191970" stroke="#191970" points="2169.1779,-93.3295 2165.163,-83.5249 2162.1874,-93.6933 2169.1779,-93.3295"/>
</g>
<!-- Node11&#45;&gt;Node8 -->
<g id="edge18" class="edge">
<title>Node11&#45;&gt;Node8</title>
<path fill="none" stroke="#191970" d="M1695.4446,-195.4109C1711.6379,-188.0295 1730.5314,-176.2577 1740,-159 1747.0549,-146.1416 1749.7584,-136.9492 1740,-126 1712.0876,-94.6817 1421.0028,-79.3215 1319.6018,-74.8916"/>
<polygon fill="#191970" stroke="#191970" points="1319.7096,-71.3931 1309.569,-74.4621 1319.4101,-78.3867 1319.7096,-71.3931"/>
</g>
<!-- Node11&#45;&gt;Node9 -->
<g id="edge20" class="edge">
<title>Node11&#45;&gt;Node9</title>
<path fill="none" stroke="#191970" d="M1611.2333,-195.4452C1578.0597,-188.126 1535.7964,-176.4068 1501,-159 1479.4551,-148.2222 1480.4489,-134.7404 1458,-126 1368.4084,-91.1178 1096.4453,-79.2238 953.3024,-75.3169"/>
<polygon fill="#191970" stroke="#191970" points="953.3125,-71.8161 943.2231,-75.0492 953.1266,-78.8136 953.3125,-71.8161"/>
</g>
<!-- Node12 -->
<g id="node12" class="node">
<title>Node12</title>
<polygon fill="none" stroke="#bfbfbf" points="1686.5,-132.5 1686.5,-152.5 1731.5,-152.5 1731.5,-132.5 1686.5,-132.5"/>
<text text-anchor="middle" x="1709" y="-139.5" font-family="FreeSans" font-size="10.00" fill="#000000">bitset</text>
</g>
<!-- Node11&#45;&gt;Node12 -->
<g id="edge11" class="edge">
<title>Node11&#45;&gt;Node12</title>
<path fill="none" stroke="#191970" d="M1673.748,-195.378C1679.835,-186.2476 1688.9466,-172.5801 1696.3815,-161.4278"/>
<polygon fill="#191970" stroke="#191970" points="1699.4943,-163.0682 1702.1292,-152.8062 1693.67,-159.1853 1699.4943,-163.0682"/>
</g>
<!-- Node13 -->
<g id="node13" class="node">
<title>Node13</title>
<polygon fill="none" stroke="#bfbfbf" points="1543,-132.5 1543,-152.5 1593,-152.5 1593,-132.5 1543,-132.5"/>
<text text-anchor="middle" x="1568" y="-139.5" font-family="FreeSans" font-size="10.00" fill="#000000">cstdlib</text>
</g>
<!-- Node11&#45;&gt;Node13 -->
<g id="edge13" class="edge">
<title>Node11&#45;&gt;Node13</title>
<path fill="none" stroke="#191970" d="M1651.0939,-195.378C1635.2896,-185.3207 1610.8345,-169.7583 1592.5401,-158.1164"/>
<polygon fill="#191970" stroke="#191970" points="1594.1823,-155.0129 1583.8666,-152.5969 1590.4241,-160.9185 1594.1823,-155.0129"/>
</g>
<!-- Node14 -->
<g id="node14" class="node">
<title>Node14</title>
<polygon fill="none" stroke="#bfbfbf" points="1611.5,-132.5 1611.5,-152.5 1668.5,-152.5 1668.5,-132.5 1611.5,-132.5"/>
<text text-anchor="middle" x="1640" y="-139.5" font-family="FreeSans" font-size="10.00" fill="#000000">iomanip</text>
</g>
<!-- Node11&#45;&gt;Node14 -->
<g id="edge14" class="edge">
<title>Node11&#45;&gt;Node14</title>
<path fill="none" stroke="#191970" d="M1662.662,-195.378C1658.8272,-186.4302 1653.125,-173.125 1648.3999,-162.0999"/>
<polygon fill="#191970" stroke="#191970" points="1651.5732,-160.6189 1644.4169,-152.8062 1645.1392,-163.3764 1651.5732,-160.6189"/>
</g>
<!-- Node15 -->
<g id="node15" class="node">
<title>Node15</title>
<polygon fill="none" stroke="#bfbfbf" points="1389,-132.5 1389,-152.5 1449,-152.5 1449,-132.5 1389,-132.5"/>
<text text-anchor="middle" x="1419" y="-139.5" font-family="FreeSans" font-size="10.00" fill="#000000">iostream</text>
</g>
<!-- Node11&#45;&gt;Node15 -->
<g id="edge15" class="edge">
<title>Node11&#45;&gt;Node15</title>
<path fill="none" stroke="#191970" d="M1614.0836,-195.4767C1572.6016,-187.1312 1513.6242,-174.1864 1463,-159 1459.8743,-158.0623 1456.6511,-157.0149 1453.4373,-155.9148"/>
<polygon fill="#191970" stroke="#191970" points="1454.5252,-152.5868 1443.9306,-152.5139 1452.1673,-159.1778 1454.5252,-152.5868"/>
</g>
<!-- Node16 -->
<g id="node16" class="node">
<title>Node16</title>
<polygon fill="none" stroke="#bfbfbf" points="2378,-132.5 2378,-152.5 2436,-152.5 2436,-132.5 2378,-132.5"/>
<text text-anchor="middle" x="2407" y="-139.5" font-family="FreeSans" font-size="10.00" fill="#000000">memory</text>
</g>
<!-- Node11&#45;&gt;Node16 -->
<g id="edge16" class="edge">
<title>Node11&#45;&gt;Node16</title>
<path fill="none" stroke="#191970" d="M1739.5065,-203.8398C1894.0128,-199.7904 2251.1882,-187.5677 2369,-159 2371.9794,-158.2775 2375.0201,-157.3382 2378.0191,-156.2743"/>
<polygon fill="#191970" stroke="#191970" points="2379.3364,-159.5171 2387.3307,-152.5643 2376.7454,-153.0143 2379.3364,-159.5171"/>
</g>
<!-- Node17 -->
<g id="node17" class="node">
<title>Node17</title>
<g id="a_node17"><a xlink:href="../../d8/dfd/ParameterDefinitions_8hpp.html" target="_top" xlink:title="Acts/Utilities/Parameter\lDefinitions.hpp">
<polygon fill="none" stroke="#000000" points="1826,-126.5 1826,-158.5 1962,-158.5 1962,-126.5 1826,-126.5"/>
<text text-anchor="start" x="1834" y="-145.5" font-family="FreeSans" font-size="10.00" fill="#000000">Acts/Utilities/Parameter</text>
<text text-anchor="middle" x="1894" y="-133.5" font-family="FreeSans" font-size="10.00" fill="#000000">Definitions.hpp</text>
</a>
</g>
</g>
<!-- Node11&#45;&gt;Node17 -->
<g id="edge21" class="edge">
<title>Node11&#45;&gt;Node17</title>
<path fill="none" stroke="#191970" d="M1703.2198,-195.4478C1736.2922,-186.2691 1786.0361,-172.4635 1826.4378,-161.2507"/>
<polygon fill="#191970" stroke="#191970" points="1827.5265,-164.581 1836.2263,-158.5341 1825.6545,-157.8359 1827.5265,-164.581"/>
</g>
<!-- Node20 -->
<g id="node20" class="node">
<title>Node20</title>
<g id="a_node20"><a xlink:href="../../d0/d81/TypeTraits_8hpp.html" target="_top" xlink:title="Acts/Utilities/TypeTraits.hpp">
<polygon fill="none" stroke="#000000" points="1980,-132.5 1980,-152.5 2136,-152.5 2136,-132.5 1980,-132.5"/>
<text text-anchor="middle" x="2058" y="-139.5" font-family="FreeSans" font-size="10.00" fill="#000000">Acts/Utilities/TypeTraits.hpp</text>
</a>
</g>
</g>
<!-- Node11&#45;&gt;Node20 -->
<g id="edge28" class="edge">
<title>Node11&#45;&gt;Node20</title>
<path fill="none" stroke="#191970" d="M1737.1462,-195.4948C1798.8356,-186.5232 1891.0092,-172.6986 1971,-159 1979.2772,-157.5825 1987.9832,-156.0187 1996.5582,-154.4355"/>
<polygon fill="#191970" stroke="#191970" points="1997.3418,-157.8498 2006.5307,-152.5758 1996.0585,-150.9685 1997.3418,-157.8498"/>
</g>
<!-- Node17&#45;&gt;Node2 -->
<g id="edge22" class="edge">
<title>Node17&#45;&gt;Node2</title>
<path fill="none" stroke="#191970" d="M1840.1935,-126.4193C1769.5295,-106.1071 1641.2475,-71.9982 1529,-57 1399.7177,-39.7257 449.5302,-15.9987 256.2529,-11.3198"/>
<polygon fill="#191970" stroke="#191970" points="256.1947,-7.8175 246.1131,-11.075 256.0257,-14.8154 256.1947,-7.8175"/>
</g>
<!-- Node17&#45;&gt;Node9 -->
<g id="edge24" class="edge">
<title>Node17&#45;&gt;Node9</title>
<path fill="none" stroke="#191970" d="M1825.8361,-134.5011C1799.0986,-131.5458 1768.1358,-128.3481 1740,-126 1453.1265,-102.0585 1112.579,-84.8836 953.4164,-77.5106"/>
<polygon fill="#191970" stroke="#191970" points="953.3482,-74.0038 943.1975,-77.0392 953.0255,-80.9964 953.3482,-74.0038"/>
</g>
<!-- Node18 -->
<g id="node18" class="node">
<title>Node18</title>
<polygon fill="none" stroke="#bfbfbf" points="1953,-63.5 1953,-83.5 2023,-83.5 2023,-63.5 1953,-63.5"/>
<text text-anchor="middle" x="1988" y="-70.5" font-family="FreeSans" font-size="10.00" fill="#000000">type_traits</text>
</g>
<!-- Node17&#45;&gt;Node18 -->
<g id="edge23" class="edge">
<title>Node17&#45;&gt;Node18</title>
<path fill="none" stroke="#191970" d="M1915.8018,-126.4966C1930.8538,-115.4477 1950.8012,-100.8055 1965.9143,-89.7118"/>
<polygon fill="#191970" stroke="#191970" points="1968.1902,-92.383 1974.1805,-83.6441 1964.0481,-86.74 1968.1902,-92.383"/>
</g>
<!-- Node19 -->
<g id="node19" class="node">
<title>Node19</title>
<g id="a_node19"><a xlink:href="../../d7/d46/ParameterTypes_8hpp.html" target="_top" xlink:title="Acts/Utilities/Parameter\lTypes.hpp">
<polygon fill="none" stroke="#000000" points="1799,-57.5 1799,-89.5 1935,-89.5 1935,-57.5 1799,-57.5"/>
<text text-anchor="start" x="1807" y="-76.5" font-family="FreeSans" font-size="10.00" fill="#000000">Acts/Utilities/Parameter</text>
<text text-anchor="middle" x="1867" y="-64.5" font-family="FreeSans" font-size="10.00" fill="#000000">Types.hpp</text>
</a>
</g>
</g>
<!-- Node17&#45;&gt;Node19 -->
<g id="edge25" class="edge">
<title>Node17&#45;&gt;Node19</title>
<path fill="none" stroke="#191970" d="M1887.7378,-126.4966C1884.5803,-118.4274 1880.6728,-108.4415 1877.1039,-99.3211"/>
<polygon fill="#191970" stroke="#191970" points="1880.3191,-97.9328 1873.4157,-89.8958 1873.8004,-100.4836 1880.3191,-97.9328"/>
</g>
<!-- Node19&#45;&gt;Node2 -->
<g id="edge27" class="edge">
<title>Node19&#45;&gt;Node2</title>
<path fill="none" stroke="#191970" d="M1798.8523,-66.4069C1764.4519,-63.0678 1722.0496,-59.3185 1684,-57 1114.0961,-22.274 417.543,-12.6776 256.3898,-10.8557"/>
<polygon fill="#191970" stroke="#191970" points="256.1755,-7.3532 246.1373,-10.7422 256.0979,-14.3528 256.1755,-7.3532"/>
</g>
<!-- Node19&#45;&gt;Node3 -->
<g id="edge26" class="edge">
<title>Node19&#45;&gt;Node3</title>
<path fill="none" stroke="#191970" d="M1935.0172,-58.9106C1938.0527,-58.264 1941.0579,-57.6248 1944,-57 2006.0896,-43.8155 2078.0298,-28.7107 2122.532,-19.3868"/>
<polygon fill="#191970" stroke="#191970" points="2123.3444,-22.7927 2132.4144,-17.3168 2121.9092,-15.9413 2123.3444,-22.7927"/>
</g>
<!-- Node20&#45;&gt;Node7 -->
<g id="edge30" class="edge">
<title>Node20&#45;&gt;Node7</title>
<path fill="none" stroke="#191970" d="M2073.6407,-132.3188C2091.0983,-120.9549 2119.5589,-102.4286 2139.8737,-89.2049"/>
<polygon fill="#191970" stroke="#191970" points="2141.8237,-92.1117 2148.2952,-83.723 2138.0049,-86.2452 2141.8237,-92.1117"/>
</g>
<!-- Node20&#45;&gt;Node18 -->
<g id="edge31" class="edge">
<title>Node20&#45;&gt;Node18</title>
<path fill="none" stroke="#191970" d="M2047.6713,-132.3188C2036.6079,-121.4135 2018.8531,-103.9123 2005.5822,-90.831"/>
<polygon fill="#191970" stroke="#191970" points="2007.9499,-88.2504 1998.3711,-83.723 2003.0359,-93.2356 2007.9499,-88.2504"/>
</g>
<!-- Node21 -->
<g id="node21" class="node">
<title>Node21</title>
<polygon fill="none" stroke="#bfbfbf" points="2041,-63.5 2041,-83.5 2107,-83.5 2107,-63.5 2041,-63.5"/>
<text text-anchor="middle" x="2074" y="-70.5" font-family="FreeSans" font-size="10.00" fill="#000000">functional</text>
</g>
<!-- Node20&#45;&gt;Node21 -->
<g id="edge29" class="edge">
<title>Node20&#45;&gt;Node21</title>
<path fill="none" stroke="#191970" d="M2060.3609,-132.3188C2062.7006,-122.2289 2066.3496,-106.4925 2069.2847,-93.8347"/>
<polygon fill="#191970" stroke="#191970" points="2072.78,-94.2551 2071.6295,-83.723 2065.9609,-92.6738 2072.78,-94.2551"/>
</g>
<!-- Node24&#45;&gt;Node2 -->
<g id="edge37" class="edge">
<title>Node24&#45;&gt;Node2</title>
<path fill="none" stroke="#191970" d="M805.4539,-195.417C763.964,-186.9025 704.317,-173.7613 653,-159 520.8892,-120.9983 491.0749,-101.4735 361,-57 325.1877,-44.7555 284.0689,-31.0427 255.8983,-21.701"/>
<polygon fill="#191970" stroke="#191970" points="256.7326,-18.2904 246.1392,-18.4678 254.5311,-24.9352 256.7326,-18.2904"/>
</g>
<!-- Node24&#45;&gt;Node8 -->
<g id="edge39" class="edge">
<title>Node24&#45;&gt;Node8</title>
<path fill="none" stroke="#191970" d="M882.9573,-195.4355C924.4346,-179.5471 1008.3838,-148.1819 1081,-126 1139.8794,-108.0143 1209.538,-90.9804 1250.3373,-81.4242"/>
<polygon fill="#191970" stroke="#191970" points="1251.3635,-84.7789 1260.3096,-79.1029 1249.7765,-77.9612 1251.3635,-84.7789"/>
</g>
<!-- Node24&#45;&gt;Node9 -->
<g id="edge44" class="edge">
<title>Node24&#45;&gt;Node9</title>
<path fill="none" stroke="#191970" d="M882.1534,-195.3375C897.2595,-187.7633 915.2043,-175.8109 924,-159 930.7993,-146.0046 930.1151,-139.331 924,-126 916.9947,-110.7282 903.1113,-98.2198 890.3571,-89.2483"/>
<polygon fill="#191970" stroke="#191970" points="892.0818,-86.1931 881.8062,-83.6118 888.2292,-92.0377 892.0818,-86.1931"/>
</g>
<!-- Node24&#45;&gt;Node17 -->
<g id="edge45" class="edge">
<title>Node24&#45;&gt;Node17</title>
<path fill="none" stroke="#191970" d="M953.1488,-202.1419C1115.4964,-196.0897 1454.2276,-181.817 1740,-159 1764.626,-157.0338 1791.4113,-154.3537 1815.6341,-151.7253"/>
<polygon fill="#191970" stroke="#191970" points="1816.2864,-155.1748 1825.8447,-150.6043 1815.5224,-148.2166 1816.2864,-155.1748"/>
</g>
<!-- Node25 -->
<g id="node25" class="node">
<title>Node25</title>
<polygon fill="none" stroke="#bfbfbf" points="662.5,-132.5 662.5,-152.5 707.5,-152.5 707.5,-132.5 662.5,-132.5"/>
<text text-anchor="middle" x="685" y="-139.5" font-family="FreeSans" font-size="10.00" fill="#000000">cfloat</text>
</g>
<!-- Node24&#45;&gt;Node25 -->
<g id="edge36" class="edge">
<title>Node24&#45;&gt;Node25</title>
<path fill="none" stroke="#191970" d="M821.0319,-195.4865C792.1623,-187.0114 750.8428,-173.8892 716,-159 714.6334,-158.416 713.2461,-157.7937 711.8543,-157.1456"/>
<polygon fill="#191970" stroke="#191970" points="713.2896,-153.9504 702.7776,-152.6278 710.1704,-160.2171 713.2896,-153.9504"/>
</g>
<!-- Node26 -->
<g id="node26" class="node">
<title>Node26</title>
<polygon fill="none" stroke="#bfbfbf" points="861,-132.5 861,-152.5 915,-152.5 915,-132.5 861,-132.5"/>
<text text-anchor="middle" x="888" y="-139.5" font-family="FreeSans" font-size="10.00" fill="#000000">iterator</text>
</g>
<!-- Node24&#45;&gt;Node26 -->
<g id="edge38" class="edge">
<title>Node24&#45;&gt;Node26</title>
<path fill="none" stroke="#191970" d="M861.9807,-195.378C866.3836,-186.4302 872.9306,-173.125 878.3556,-162.0999"/>
<polygon fill="#191970" stroke="#191970" points="881.654,-163.3241 882.9287,-152.8062 875.3732,-160.2335 881.654,-163.3241"/>
</g>
<!-- Node27 -->
<g id="node27" class="node">
<title>Node27</title>
<g id="a_node27"><a xlink:href="../../d4/d27/VerticesHelper_8hpp.html" target="_top" xlink:title="Acts/Surfaces/detail\l/VerticesHelper.hpp">
<polygon fill="none" stroke="#000000" points="725.5,-126.5 725.5,-158.5 842.5,-158.5 842.5,-126.5 725.5,-126.5"/>
<text text-anchor="start" x="733.5" y="-145.5" font-family="FreeSans" font-size="10.00" fill="#000000">Acts/Surfaces/detail</text>
<text text-anchor="middle" x="784" y="-133.5" font-family="FreeSans" font-size="10.00" fill="#000000">/VerticesHelper.hpp</text>
</a>
</g>
</g>
<!-- Node24&#45;&gt;Node27 -->
<g id="edge40" class="edge">
<title>Node24&#45;&gt;Node27</title>
<path fill="none" stroke="#191970" d="M845.2713,-195.378C835.8818,-187.2747 822.3515,-175.5978 810.3925,-165.2771"/>
<polygon fill="#191970" stroke="#191970" points="812.6774,-162.6258 802.8201,-158.742 808.1039,-167.9252 812.6774,-162.6258"/>
</g>
<!-- Node27&#45;&gt;Node8 -->
<g id="edge42" class="edge">
<title>Node27&#45;&gt;Node8</title>
<path fill="none" stroke="#191970" d="M842.5124,-127.8405C845.7142,-127.1827 848.8922,-126.5635 852,-126 999.0049,-99.3479 1176.6057,-82.5937 1250.3268,-76.3114"/>
<polygon fill="#191970" stroke="#191970" points="1250.7628,-79.7872 1260.4339,-75.4606 1250.1755,-72.8118 1250.7628,-79.7872"/>
</g>
<!-- Node27&#45;&gt;Node9 -->
<g id="edge43" class="edge">
<title>Node27&#45;&gt;Node9</title>
<path fill="none" stroke="#191970" d="M802.3228,-126.4966C814.7364,-115.6543 831.1119,-101.3516 843.7222,-90.3376"/>
<polygon fill="#191970" stroke="#191970" points="846.1564,-92.8585 851.3857,-83.6441 841.5516,-87.5863 846.1564,-92.8585"/>
</g>
<!-- Node27&#45;&gt;Node23 -->
<g id="edge41" class="edge">
<title>Node27&#45;&gt;Node23</title>
<path fill="none" stroke="#191970" d="M725.4775,-127.8951C722.2783,-127.2232 719.1037,-126.586 716,-126 586.3186,-101.5148 430.0599,-83.8534 363.0898,-76.8395"/>
<polygon fill="#191970" stroke="#191970" points="363.063,-73.318 352.7553,-75.7677 362.3409,-80.2807 363.063,-73.318"/>
</g>
<!-- Node30&#45;&gt;Node9 -->
<g id="edge86" class="edge">
<title>Node30&#45;&gt;Node9</title>
<path fill="none" stroke="#191970" d="M1603.7016,-516.3082C1595.4665,-482.3187 1564.0661,-372.112 1493,-321 1420.0322,-268.5203 1376.5785,-320.4854 1294,-285 1271.2133,-275.2082 1270.0605,-265.0983 1249,-252 1146.0295,-187.9588 1117.9764,-174.8716 1007,-126 972.9074,-110.9864 933.0392,-96.6932 903.9075,-86.8224"/>
<polygon fill="#191970" stroke="#191970" points="904.6721,-83.3871 894.0781,-83.5214 902.4436,-90.0229 904.6721,-83.3871"/>
</g>
<!-- Node30&#45;&gt;Node15 -->
<g id="edge52" class="edge">
<title>Node30&#45;&gt;Node15</title>
<path fill="none" stroke="#191970" d="M1691.6869,-520.4882C1748.2058,-514.5478 1823.1326,-502.8563 1886,-480 1942.7359,-459.3729 1951.6223,-442.6981 2003,-411 2055.8858,-378.3714 2137.037,-376.9512 2110,-321 2088.5278,-276.5647 2068.8989,-270.1341 2023,-252 1841.341,-180.2288 1774.4329,-263.6055 1585,-216 1557.833,-209.1728 1488.3631,-176.3918 1448.4324,-156.9897"/>
<polygon fill="#191970" stroke="#191970" points="1449.9576,-153.8396 1439.4353,-152.6016 1446.889,-160.1312 1449.9576,-153.8396"/>
</g>
<!-- Node31 -->
<g id="node31" class="node">
<title>Node31</title>
<g id="a_node31"><a xlink:href="../../d1/db8/GeometryContext_8hpp.html" target="_top" xlink:title="Acts/Geometry/GeometryContext.hpp">
<polygon fill="none" stroke="#000000" points="1893,-321.5 1893,-341.5 2101,-341.5 2101,-321.5 1893,-321.5"/>
<text text-anchor="middle" x="1997" y="-328.5" font-family="FreeSans" font-size="10.00" fill="#000000">Acts/Geometry/GeometryContext.hpp</text>
</a>
</g>
</g>
<!-- Node30&#45;&gt;Node31 -->
<g id="edge53" class="edge">
<title>Node30&#45;&gt;Node31</title>
<path fill="none" stroke="#191970" d="M1662.2276,-516.4336C1755.9398,-498.5188 1938.0443,-458.4897 1981,-411 1995.4786,-394.9932 1998.3542,-369.6476 1998.3313,-351.8885"/>
<polygon fill="#191970" stroke="#191970" points="2001.8242,-351.6081 1998.0056,-341.7254 1994.8278,-351.8324 2001.8242,-351.6081"/>
</g>
<!-- Node33 -->
<g id="node33" class="node">
<title>Node33</title>
<g id="a_node33"><a xlink:href="../../d9/dc6/PlanarBounds_8hpp.html" target="_top" xlink:title="Acts/Surfaces/PlanarBounds.hpp">
<polygon fill="none" stroke="#000000" points="1541,-321.5 1541,-341.5 1723,-341.5 1723,-321.5 1541,-321.5"/>
<text text-anchor="middle" x="1632" y="-328.5" font-family="FreeSans" font-size="10.00" fill="#000000">Acts/Surfaces/PlanarBounds.hpp</text>
</a>
</g>
</g>
<!-- Node30&#45;&gt;Node33 -->
<g id="edge55" class="edge">
<title>Node30&#45;&gt;Node33</title>
<path fill="none" stroke="#191970" d="M1607.3613,-516.2905C1611.4768,-485.4237 1623.8422,-392.6832 1629.3284,-351.5372"/>
<polygon fill="#191970" stroke="#191970" points="1632.7998,-351.9833 1630.6522,-341.6084 1625.8612,-351.0581 1632.7998,-351.9833"/>
</g>
<!-- Node36 -->
<g id="node36" class="node">
<title>Node36</title>
<g id="a_node36"><a xlink:href="../../d8/ddd/Surface_8hpp.html" target="_top" xlink:title="Acts/Surfaces/Surface.hpp">
<polygon fill="none" stroke="#000000" points="1031,-453.5 1031,-473.5 1181,-473.5 1181,-453.5 1031,-453.5"/>
<text text-anchor="middle" x="1106" y="-460.5" font-family="FreeSans" font-size="10.00" fill="#000000">Acts/Surfaces/Surface.hpp</text>
</a>
</g>
</g>
<!-- Node30&#45;&gt;Node36 -->
<g id="edge61" class="edge">
<title>Node30&#45;&gt;Node36</title>
<path fill="none" stroke="#191970" d="M1526.4973,-516.4827C1434.9116,-504.9429 1285.019,-486.0564 1191.1241,-474.2256"/>
<polygon fill="#191970" stroke="#191970" points="1191.4479,-470.7388 1181.0888,-472.9612 1190.5728,-477.6839 1191.4479,-470.7388"/>
</g>
<!-- Node32 -->
<g id="node32" class="node">
<title>Node32</title>
<polygon fill="none" stroke="#bfbfbf" points="1979.5,-258.5 1979.5,-278.5 2014.5,-278.5 2014.5,-258.5 1979.5,-258.5"/>
<text text-anchor="middle" x="1997" y="-265.5" font-family="FreeSans" font-size="10.00" fill="#000000">any</text>
</g>
<!-- Node31&#45;&gt;Node32 -->
<g id="edge54" class="edge">
<title>Node31&#45;&gt;Node32</title>
<path fill="none" stroke="#191970" d="M1997,-321.378C1997,-312.7041 1997,-299.9355 1997,-289.1186"/>
<polygon fill="#191970" stroke="#191970" points="2000.5001,-288.8062 1997,-278.8062 1993.5001,-288.8062 2000.5001,-288.8062"/>
</g>
<!-- Node33&#45;&gt;Node8 -->
<g id="edge60" class="edge">
<title>Node33&#45;&gt;Node8</title>
<path fill="none" stroke="#191970" d="M1646.8155,-321.4555C1691.3394,-290.1139 1817.3131,-192.2607 1758,-126 1743.349,-109.6328 1426.5329,-84.2221 1319.7676,-76.0935"/>
<polygon fill="#191970" stroke="#191970" points="1319.7673,-72.5836 1309.5315,-75.3183 1319.2386,-79.5636 1319.7673,-72.5836"/>
</g>
<!-- Node34 -->
<g id="node34" class="node">
<title>Node34</title>
<g id="a_node34"><a xlink:href="../../da/ddb/SurfaceBounds_8hpp.html" target="_top" xlink:title="Acts/Surfaces/SurfaceBounds.hpp">
<polygon fill="none" stroke="#000000" points="591,-258.5 591,-278.5 779,-278.5 779,-258.5 591,-258.5"/>
<text text-anchor="middle" x="685" y="-265.5" font-family="FreeSans" font-size="10.00" fill="#000000">Acts/Surfaces/SurfaceBounds.hpp</text>
</a>
</g>
</g>
<!-- Node33&#45;&gt;Node34 -->
<g id="edge56" class="edge">
<title>Node33&#45;&gt;Node34</title>
<path fill="none" stroke="#191970" d="M1540.7953,-324.413C1524.8667,-323.2317 1508.4528,-322.0503 1493,-321 1228.2392,-303.0049 1161.7402,-303.2965 897,-285 861.8876,-282.5733 823.5249,-279.6657 789.2027,-276.9718"/>
<polygon fill="#191970" stroke="#191970" points="789.4077,-273.4772 779.1637,-276.181 788.8579,-280.4556 789.4077,-273.4772"/>
</g>
<!-- Node34&#45;&gt;Node9 -->
<g id="edge59" class="edge">
<title>Node34&#45;&gt;Node9</title>
<path fill="none" stroke="#191970" d="M639.4076,-258.499C616.481,-250.9167 590.7136,-237.9143 577,-216 565.7794,-198.0694 552.3768,-159.154 582,-126 606.9889,-98.0328 700.4183,-84.7892 772.764,-78.6322"/>
<polygon fill="#191970" stroke="#191970" points="773.1416,-82.1131 782.823,-77.8097 772.571,-75.1364 773.1416,-82.1131"/>
</g>
<!-- Node34&#45;&gt;Node24 -->
<g id="edge58" class="edge">
<title>Node34&#45;&gt;Node24</title>
<path fill="none" stroke="#191970" d="M712.6348,-258.378C741.7227,-247.7236 787.6776,-230.8913 819.9063,-219.0866"/>
<polygon fill="#191970" stroke="#191970" points="821.2477,-222.3228 829.4338,-215.5969 818.8401,-215.7498 821.2477,-222.3228"/>
</g>
<!-- Node35 -->
<g id="node35" class="node">
<title>Node35</title>
<polygon fill="none" stroke="#bfbfbf" points="586.5,-195.5 586.5,-215.5 643.5,-215.5 643.5,-195.5 586.5,-195.5"/>
<text text-anchor="middle" x="615" y="-202.5" font-family="FreeSans" font-size="10.00" fill="#000000">ostream</text>
</g>
<!-- Node34&#45;&gt;Node35 -->
<g id="edge57" class="edge">
<title>Node34&#45;&gt;Node35</title>
<path fill="none" stroke="#191970" d="M673.7533,-258.378C663.1011,-248.791 646.8911,-234.202 634.1941,-222.7747"/>
<polygon fill="#191970" stroke="#191970" points="636.2257,-219.8944 626.4513,-215.8062 631.5429,-225.0974 636.2257,-219.8944"/>
</g>
<!-- Node36&#45;&gt;Node4 -->
<g id="edge72" class="edge">
<title>Node36&#45;&gt;Node4</title>
<path fill="none" stroke="#191970" d="M1176.5953,-453.4636C1235.654,-444.0371 1314.3989,-428.7516 1341,-411 1363.2754,-396.135 1379.4465,-369.1684 1388.5257,-350.8044"/>
<polygon fill="#191970" stroke="#191970" points="1391.7563,-352.1586 1392.8337,-341.6187 1385.4187,-349.1862 1391.7563,-352.1586"/>
</g>
<!-- Node36&#45;&gt;Node6 -->
<g id="edge79" class="edge">
<title>Node36&#45;&gt;Node6</title>
<path fill="none" stroke="#191970" d="M1181.0487,-461.092C1352.6338,-455.1798 1769.3827,-438.4024 1907,-411 2000.4569,-392.3908 2031.4723,-395.9805 2110,-342 2182.9099,-291.8813 2241.6351,-201.2751 2265.0405,-161.778"/>
<polygon fill="#191970" stroke="#191970" points="2268.2069,-163.2957 2270.2171,-152.8934 2262.1586,-159.7717 2268.2069,-163.2957"/>
</g>
<!-- Node36&#45;&gt;Node9 -->
<g id="edge80" class="edge">
<title>Node36&#45;&gt;Node9</title>
<path fill="none" stroke="#191970" d="M1030.6366,-458.9178C926.581,-451.9549 733.248,-436.7269 570,-411 498.9995,-399.8108 312.0576,-384.3743 254,-342 230.3553,-324.7426 228.5932,-313.2707 221,-285 193.8457,-183.9007 330.5306,-213.3475 420,-159 440.5894,-146.4931 440.7419,-135.2154 463,-126 517.2745,-103.5291 672.1556,-87.9657 772.5005,-79.9052"/>
<polygon fill="#191970" stroke="#191970" points="772.9477,-83.3809 782.6398,-79.1013 772.3944,-76.4028 772.9477,-83.3809"/>
</g>
<!-- Node36&#45;&gt;Node16 -->
<g id="edge84" class="edge">
<title>Node36&#45;&gt;Node16</title>
<path fill="none" stroke="#191970" d="M1181.1472,-460.7306C1365.3445,-453.6702 1835.5915,-433.9259 1991,-411 2141.9578,-388.7306 2325,-484.0916 2325,-331.5 2325,-331.5 2325,-331.5 2325,-268.5 2325,-223.4784 2362.2316,-181.9209 2386.5195,-159.6008"/>
<polygon fill="#191970" stroke="#191970" points="2389.034,-162.0487 2394.1875,-152.7917 2384.3861,-156.8145 2389.034,-162.0487"/>
</g>
<!-- Node36&#45;&gt;Node24 -->
<g id="edge73" class="edge">
<title>Node36&#45;&gt;Node24</title>
<path fill="none" stroke="#191970" d="M1067.819,-453.4C1018.4447,-438.1647 933.9438,-404.2423 893,-342 869.0873,-305.6482 861.0276,-254.0663 858.3334,-225.8626"/>
<polygon fill="#191970" stroke="#191970" points="861.8007,-225.3191 857.4979,-215.6374 854.824,-225.8892 861.8007,-225.3191"/>
</g>
<!-- Node36&#45;&gt;Node31 -->
<g id="edge63" class="edge">
<title>Node36&#45;&gt;Node31</title>
<path fill="none" stroke="#191970" d="M1181.1801,-459.495C1367.7036,-449.403 1839.0258,-422.8898 1871,-411 1893.9116,-402.4802 1894.5488,-391.3896 1915,-378 1932.3977,-366.6096 1952.7259,-355.0708 1968.7897,-346.337"/>
<polygon fill="#191970" stroke="#191970" points="1970.5537,-349.3624 1977.7006,-341.5411 1967.2362,-343.1984 1970.5537,-349.3624"/>
</g>
<!-- Node36&#45;&gt;Node34 -->
<g id="edge74" class="edge">
<title>Node36&#45;&gt;Node34</title>
<path fill="none" stroke="#191970" d="M1036.5217,-453.4635C974.9624,-443.7007 890.4203,-427.903 861,-411 814.0798,-384.0427 821.3941,-354.6294 779,-321 759.8326,-305.7954 735.693,-292.4146 716.6759,-282.9672"/>
<polygon fill="#191970" stroke="#191970" points="718.0491,-279.7433 707.5244,-278.5258 714.9927,-286.0408 718.0491,-279.7433"/>
</g>
<!-- Node37 -->
<g id="node37" class="node">
<title>Node37</title>
<g id="a_node37"><a xlink:href="../../dc/d45/DetectorElementBase_8hpp.html" target="_top" xlink:title="Acts/Geometry/DetectorElement\lBase.hpp">
<polygon fill="none" stroke="#ff0000" points="1015,-378.5 1015,-410.5 1197,-410.5 1197,-378.5 1015,-378.5"/>
<text text-anchor="start" x="1023" y="-397.5" font-family="FreeSans" font-size="10.00" fill="#000000">Acts/Geometry/DetectorElement</text>
<text text-anchor="middle" x="1106" y="-385.5" font-family="FreeSans" font-size="10.00" fill="#000000">Base.hpp</text>
</a>
</g>
</g>
<!-- Node36&#45;&gt;Node37 -->
<g id="edge62" class="edge">
<title>Node36&#45;&gt;Node37</title>
<path fill="none" stroke="#191970" d="M1106,-453.3188C1106,-444.7963 1106,-432.2454 1106,-420.9239"/>
<polygon fill="#191970" stroke="#191970" points="1109.5001,-420.6175 1106,-410.6175 1102.5001,-420.6176 1109.5001,-420.6175"/>
</g>
<!-- Node38 -->
<g id="node38" class="node">
<title>Node38</title>
<g id="a_node38"><a xlink:href="../../da/de0/GeometryObject_8hpp.html" target="_top" xlink:title="Acts/Geometry/GeometryObject.hpp">
<polygon fill="none" stroke="#ff0000" points="1661.5,-384.5 1661.5,-404.5 1862.5,-404.5 1862.5,-384.5 1661.5,-384.5"/>
<text text-anchor="middle" x="1762" y="-391.5" font-family="FreeSans" font-size="10.00" fill="#000000">Acts/Geometry/GeometryObject.hpp</text>
</a>
</g>
</g>
<!-- Node36&#45;&gt;Node38 -->
<g id="edge64" class="edge">
<title>Node36&#45;&gt;Node38</title>
<path fill="none" stroke="#191970" d="M1181.2515,-455.5848C1298.1008,-443.2943 1523.5374,-419.5822 1656.5529,-405.5912"/>
<polygon fill="#191970" stroke="#191970" points="1657.1782,-409.0449 1666.7572,-404.5179 1656.4459,-402.0833 1657.1782,-409.0449"/>
</g>
<!-- Node39 -->
<g id="node39" class="node">
<title>Node39</title>
<g id="a_node39"><a xlink:href="../../d5/dc6/GeometryStatics_8hpp.html" target="_top" xlink:title="Acts/Geometry/GeometryStatics.hpp">
<polygon fill="none" stroke="#000000" points="104.5,-384.5 104.5,-404.5 307.5,-404.5 307.5,-384.5 104.5,-384.5"/>
<text text-anchor="middle" x="206" y="-391.5" font-family="FreeSans" font-size="10.00" fill="#000000">Acts/Geometry/GeometryStatics.hpp</text>
</a>
</g>
</g>
<!-- Node36&#45;&gt;Node39 -->
<g id="edge70" class="edge">
<title>Node36&#45;&gt;Node39</title>
<path fill="none" stroke="#191970" d="M1030.7933,-458.2138C901.4456,-449.057 628.5183,-429.4512 398,-411 371.9769,-408.9171 343.9795,-406.5709 317.6292,-404.3156"/>
<polygon fill="#191970" stroke="#191970" points="317.881,-400.8244 307.6183,-403.4564 317.2823,-407.7988 317.881,-400.8244"/>
</g>
<!-- Node40 -->
<g id="node40" class="node">
<title>Node40</title>
<g id="a_node40"><a xlink:href="../../d5/d50/BinnedArray_8hpp.html" target="_top" xlink:title="Acts/Utilities/BinnedArray.hpp">
<polygon fill="none" stroke="#ff0000" points="902.5,-321.5 902.5,-341.5 1069.5,-341.5 1069.5,-321.5 902.5,-321.5"/>
<text text-anchor="middle" x="986" y="-328.5" font-family="FreeSans" font-size="10.00" fill="#000000">Acts/Utilities/BinnedArray.hpp</text>
</a>
</g>
</g>
<!-- Node36&#45;&gt;Node40 -->
<g id="edge75" class="edge">
<title>Node36&#45;&gt;Node40</title>
<path fill="none" stroke="#191970" d="M1062.062,-453.4498C1038.7118,-445.7768 1011.6689,-432.7033 996,-411 983.6428,-393.8838 982.4222,-369.1231 983.4771,-351.7962"/>
<polygon fill="#191970" stroke="#191970" points="986.9807,-351.9153 984.4048,-341.6385 980.0097,-351.2787 986.9807,-351.9153"/>
</g>
<!-- Node41 -->
<g id="node41" class="node">
<title>Node41</title>
<g id="a_node41"><a xlink:href="../../db/d8d/Intersection_8hpp.html" target="_top" xlink:title="Acts/Utilities/Intersection.hpp">
<polygon fill="none" stroke="#000000" points="1125,-321.5 1125,-341.5 1291,-341.5 1291,-321.5 1125,-321.5"/>
<text text-anchor="middle" x="1208" y="-328.5" font-family="FreeSans" font-size="10.00" fill="#000000">Acts/Utilities/Intersection.hpp</text>
</a>
</g>
</g>
<!-- Node36&#45;&gt;Node41 -->
<g id="edge81" class="edge">
<title>Node36&#45;&gt;Node41</title>
<path fill="none" stroke="#191970" d="M1065.9921,-453.4504C1044.1786,-445.7071 1019.0338,-432.5636 1006,-411 998.4132,-398.4481 996.8661,-389.4753 1006,-378 1020.0412,-360.3593 1068.7332,-348.8472 1114.7904,-341.6906"/>
<polygon fill="#191970" stroke="#191970" points="1115.4983,-345.1238 1124.8715,-340.1849 1114.4642,-338.2006 1115.4983,-345.1238"/>
</g>
<!-- Node42 -->
<g id="node42" class="node">
<title>Node42</title>
<g id="a_node42"><a xlink:href="../../dd/d76/Surface_8ipp.html" target="_top" xlink:title="Acts/Surfaces/detail\l/Surface.ipp">
<polygon fill="none" stroke="#000000" points="1215.5,-378.5 1215.5,-410.5 1332.5,-410.5 1332.5,-378.5 1215.5,-378.5"/>
<text text-anchor="start" x="1223.5" y="-397.5" font-family="FreeSans" font-size="10.00" fill="#000000">Acts/Surfaces/detail</text>
<text text-anchor="middle" x="1274" y="-385.5" font-family="FreeSans" font-size="10.00" fill="#000000">/Surface.ipp</text>
</a>
</g>
</g>
<!-- Node36&#45;&gt;Node42 -->
<g id="edge85" class="edge">
<title>Node36&#45;&gt;Node42</title>
<path fill="none" stroke="#191970" d="M1130.4286,-453.4668C1155.253,-443.2711 1194.3785,-427.2017 1225.5201,-414.4114"/>
<polygon fill="#191970" stroke="#191970" points="1226.9833,-417.5942 1234.9037,-410.5574 1224.3238,-411.1191 1226.9833,-417.5942"/>
</g>
<!-- Node38&#45;&gt;Node4 -->
<g id="edge66" class="edge">
<title>Node38&#45;&gt;Node4</title>
<path fill="none" stroke="#191970" d="M1703.7611,-384.4478C1638.7293,-373.2231 1533.6086,-355.079 1464.8961,-343.2191"/>
<polygon fill="#191970" stroke="#191970" points="1465.4811,-339.7684 1455.0315,-341.5164 1464.2904,-346.6664 1465.4811,-339.7684"/>
</g>
<!-- Node38&#45;&gt;Node6 -->
<g id="edge67" class="edge">
<title>Node38&#45;&gt;Node6</title>
<path fill="none" stroke="#191970" d="M1774.4159,-384.277C1805.6102,-358.9876 1890.4731,-292.6122 1970,-252 2057.3475,-207.394 2167.1549,-172.8792 2228.6514,-155.3167"/>
<polygon fill="#191970" stroke="#191970" points="2229.7906,-158.6319 2238.4606,-152.5424 2227.8855,-151.8961 2229.7906,-158.6319"/>
</g>
<!-- Node38&#45;&gt;Node9 -->
<g id="edge68" class="edge">
<title>Node38&#45;&gt;Node9</title>
<path fill="none" stroke="#191970" d="M1761.1074,-384.4559C1759.0761,-368.1798 1752.5519,-336.3228 1732,-321 1666.4802,-272.1505 1442.6842,-313.2603 1366,-285 1274.0298,-251.1063 1262.3358,-219.2203 1185,-159 1167.3512,-145.2571 1167.1518,-135.7082 1147,-126 1113.4172,-109.8214 1023.0401,-94.7258 953.171,-84.9129"/>
<polygon fill="#191970" stroke="#191970" points="953.4067,-81.4121 943.0204,-83.5039 952.4442,-88.3456 953.4067,-81.4121"/>
</g>
<!-- Node38&#45;&gt;Node11 -->
<g id="edge69" class="edge">
<title>Node38&#45;&gt;Node11</title>
<path fill="none" stroke="#191970" d="M1774.673,-384.2905C1790.3704,-370.3271 1813.7989,-344.3389 1803,-321 1781.2748,-274.0468 1730.0119,-239.1985 1696.9987,-220.6451"/>
<polygon fill="#191970" stroke="#191970" points="1698.257,-217.3448 1687.8017,-215.631 1694.9063,-223.4907 1698.257,-217.3448"/>
</g>
<!-- Node38&#45;&gt;Node31 -->
<g id="edge65" class="edge">
<title>Node38&#45;&gt;Node31</title>
<path fill="none" stroke="#191970" d="M1799.4963,-384.4478C1840.2507,-373.5222 1905.4589,-356.0408 1949.7016,-344.18"/>
<polygon fill="#191970" stroke="#191970" points="1950.8846,-347.4865 1959.6373,-341.5164 1949.072,-340.7253 1950.8846,-347.4865"/>
</g>
<!-- Node39&#45;&gt;Node9 -->
<g id="edge71" class="edge">
<title>Node39&#45;&gt;Node9</title>
<path fill="none" stroke="#191970" d="M189.2349,-384.3853C175.8068,-375.2143 157.9465,-360.3425 150,-342 124.0281,-282.0508 109.1527,-245.9896 150,-195 195.8423,-137.7752 241.027,-180.9084 311,-159 348.0972,-147.3849 354.3253,-135.5775 392,-126 521.6398,-93.0437 676.5774,-80.7725 772.397,-76.2052"/>
<polygon fill="#191970" stroke="#191970" points="772.8025,-79.6904 782.6317,-75.736 772.4819,-72.6978 772.8025,-79.6904"/>
</g>
<!-- Node40&#45;&gt;Node8 -->
<g id="edge77" class="edge">
<title>Node40&#45;&gt;Node8</title>
<path fill="none" stroke="#191970" d="M991.7821,-321.4504C1001.2087,-305.5825 1021.0532,-274.2448 1043,-252 1112.7796,-181.2728 1212.5524,-117.0549 1259.16,-88.756"/>
<polygon fill="#191970" stroke="#191970" points="1260.9873,-91.7413 1267.748,-83.5838 1257.3758,-85.7448 1260.9873,-91.7413"/>
</g>
<!-- Node40&#45;&gt;Node9 -->
<g id="edge78" class="edge">
<title>Node40&#45;&gt;Node9</title>
<path fill="none" stroke="#191970" d="M986.5335,-321.3476C987.6943,-289.2725 987.2642,-188.5408 941,-126 929.1521,-109.9838 910.8727,-97.3063 894.9871,-88.4245"/>
<polygon fill="#191970" stroke="#191970" points="896.4503,-85.2386 885.9772,-83.637 893.1657,-91.4201 896.4503,-85.2386"/>
</g>
<!-- Node40&#45;&gt;Node28 -->
<g id="edge76" class="edge">
<title>Node40&#45;&gt;Node28</title>
<path fill="none" stroke="#191970" d="M976.6813,-321.378C968.0234,-311.9736 954.934,-297.7559 944.5079,-286.431"/>
<polygon fill="#191970" stroke="#191970" points="946.8363,-283.7926 937.4883,-278.8062 941.6864,-288.5338 946.8363,-283.7926"/>
</g>
<!-- Node41&#45;&gt;Node9 -->
<g id="edge83" class="edge">
<title>Node41&#45;&gt;Node9</title>
<path fill="none" stroke="#191970" d="M1180.6009,-321.4434C1134.9677,-304.9998 1040.2756,-272.1734 958,-252 867.7308,-229.8667 839.3811,-247.6697 752,-216 704.2665,-198.6999 678.4122,-202.9545 653,-159 645.6591,-146.3027 643.974,-137.5603 653,-126 668.2045,-106.5265 723.1878,-93.2073 773.0773,-84.8576"/>
<polygon fill="#191970" stroke="#191970" points="773.6628,-88.3085 782.974,-83.2536 772.5428,-81.3986 773.6628,-88.3085"/>
</g>
<!-- Node41&#45;&gt;Node29 -->
<g id="edge82" class="edge">
<title>Node41&#45;&gt;Node29</title>
<path fill="none" stroke="#191970" d="M1197.878,-321.378C1188.3823,-311.8823 1173.9794,-297.4794 1162.602,-286.102"/>
<polygon fill="#191970" stroke="#191970" points="1164.8522,-283.4024 1155.3062,-278.8062 1159.9024,-288.3522 1164.8522,-283.4024"/>
</g>
<!-- Node43&#45;&gt;Node8 -->
<g id="edge96" class="edge">
<title>Node43&#45;&gt;Node8</title>
<path fill="none" stroke="#191970" d="M770.9011,-387.0957C882.3639,-377.704 1054.17,-360.4914 1078,-342 1112.0361,-315.589 1090.6713,-288.2184 1114,-252 1137.1057,-216.1278 1227.4943,-128.2808 1266.6963,-90.8496"/>
<polygon fill="#191970" stroke="#191970" points="1269.4137,-93.095 1274.242,-83.6643 1264.5865,-88.0257 1269.4137,-93.095"/>
</g>
<!-- Node43&#45;&gt;Node9 -->
<g id="edge90" class="edge">
<title>Node43&#45;&gt;Node9</title>
<path fill="none" stroke="#191970" d="M579.1311,-387.6699C473.2901,-379.1336 315.3276,-363.049 297,-342 290.8711,-334.961 292.6317,-329.248 297,-321 310.3277,-295.8358 327.8093,-302.8448 350,-285 430.1145,-220.5752 425.6293,-171.1281 518,-126 561.6576,-104.6709 686.0459,-89.4595 772.8609,-81.0728"/>
<polygon fill="#191970" stroke="#191970" points="773.3655,-84.5407 782.9889,-80.1087 772.7022,-77.5722 773.3655,-84.5407"/>
</g>
<!-- Node43&#45;&gt;Node17 -->
<g id="edge91" class="edge">
<title>Node43&#45;&gt;Node17</title>
<path fill="none" stroke="#191970" d="M770.5982,-389.7279C836.7082,-386.4294 926.6974,-381.9428 1006,-378 1086.6661,-373.9895 1659.9609,-378.5168 1732,-342 1807.6336,-303.6611 1860.2541,-212.2916 1882.3452,-167.7623"/>
<polygon fill="#191970" stroke="#191970" points="1885.4983,-169.2813 1886.712,-158.7562 1879.1997,-166.2273 1885.4983,-169.2813"/>
</g>
<!-- Node43&#45;&gt;Node28 -->
<g id="edge94" class="edge">
<title>Node43&#45;&gt;Node28</title>
<path fill="none" stroke="#191970" d="M695.2764,-384.4019C739.8728,-362.1918 846.6297,-309.0243 898.59,-283.1469"/>
<polygon fill="#191970" stroke="#191970" points="900.236,-286.2372 907.6271,-278.6462 897.1154,-279.9713 900.236,-286.2372"/>
</g>
<!-- Node44 -->
<g id="node44" class="node">
<title>Node44</title>
<g id="a_node44"><a xlink:href="../../d2/dc0/DiscBounds_8hpp.html" target="_top" xlink:title="Acts/Surfaces/DiscBounds.hpp">
<polygon fill="none" stroke="#000000" points="599.5,-321.5 599.5,-341.5 770.5,-341.5 770.5,-321.5 599.5,-321.5"/>
<text text-anchor="middle" x="685" y="-328.5" font-family="FreeSans" font-size="10.00" fill="#000000">Acts/Surfaces/DiscBounds.hpp</text>
</a>
</g>
</g>
<!-- Node43&#45;&gt;Node44 -->
<g id="edge88" class="edge">
<title>Node43&#45;&gt;Node44</title>
<path fill="none" stroke="#191970" d="M676.6067,-384.378C677.998,-375.6128 680.053,-362.6662 681.7813,-351.7777"/>
<polygon fill="#191970" stroke="#191970" points="685.2531,-352.2313 683.3641,-341.8062 678.3396,-351.1339 685.2531,-352.2313"/>
</g>
<!-- Node45 -->
<g id="node45" class="node">
<title>Node45</title>
<g id="a_node45"><a xlink:href="../../da/d6d/periodic_8hpp.html" target="_top" xlink:title="Acts/Utilities/detail\l/periodic.hpp">
<polygon fill="none" stroke="#000000" points="230.5,-252.5 230.5,-284.5 341.5,-284.5 341.5,-252.5 230.5,-252.5"/>
<text text-anchor="start" x="238.5" y="-271.5" font-family="FreeSans" font-size="10.00" fill="#000000">Acts/Utilities/detail</text>
<text text-anchor="middle" x="286" y="-259.5" font-family="FreeSans" font-size="10.00" fill="#000000">/periodic.hpp</text>
</a>
</g>
</g>
<!-- Node43&#45;&gt;Node45 -->
<g id="edge92" class="edge">
<title>Node43&#45;&gt;Node45</title>
<path fill="none" stroke="#191970" d="M579.3892,-388.8526C464.5051,-381.072 284.5285,-365.3175 264,-342 252.1543,-328.5449 258.8443,-308.9227 267.8547,-293.3366"/>
<polygon fill="#191970" stroke="#191970" points="270.9262,-295.0275 273.3053,-284.7033 265.0072,-291.2905 270.9262,-295.0275"/>
</g>
<!-- Node46 -->
<g id="node46" class="node">
<title>Node46</title>
<polygon fill="none" stroke="#bfbfbf" points="516.5,-321.5 516.5,-341.5 581.5,-341.5 581.5,-321.5 516.5,-321.5"/>
<text text-anchor="middle" x="549" y="-328.5" font-family="FreeSans" font-size="10.00" fill="#000000">exception</text>
</g>
<!-- Node43&#45;&gt;Node46 -->
<g id="edge95" class="edge">
<title>Node43&#45;&gt;Node46</title>
<path fill="none" stroke="#191970" d="M654.7559,-384.378C634.0902,-374.0451 601.8029,-357.9015 578.3372,-346.1686"/>
<polygon fill="#191970" stroke="#191970" points="579.7034,-342.9386 569.1938,-341.5969 576.5729,-349.1996 579.7034,-342.9386"/>
</g>
<!-- Node44&#45;&gt;Node34 -->
<g id="edge89" class="edge">
<title>Node44&#45;&gt;Node34</title>
<path fill="none" stroke="#191970" d="M685,-321.378C685,-312.7041 685,-299.9355 685,-289.1186"/>
<polygon fill="#191970" stroke="#191970" points="688.5001,-288.8062 685,-278.8062 681.5001,-288.8062 688.5001,-288.8062"/>
</g>
<!-- Node45&#45;&gt;Node2 -->
<g id="edge93" class="edge">
<title>Node45&#45;&gt;Node2</title>
<path fill="none" stroke="#191970" d="M230.2047,-252.506C186.1744,-236.6129 127.7114,-207.4709 100,-159 77.5,-119.6445 74.2787,-94.3299 100,-57 110.2993,-42.0524 155.4663,-27.6069 187.8397,-18.8863"/>
<polygon fill="#191970" stroke="#191970" points="189.056,-22.1857 197.8405,-16.2627 187.2797,-15.4148 189.056,-22.1857"/>
</g>
<!-- Node47&#45;&gt;Node2 -->
<g id="edge102" class="edge">
<title>Node47&#45;&gt;Node2</title>
<path fill="none" stroke="#191970" d="M397.7329,-321.3418C390.3005,-304.752 373.4972,-271.7202 350,-252 269.6263,-184.546 190.7622,-246.5986 133,-159 102.0576,-112.0746 163.815,-54.4632 199.3497,-26.8188"/>
<polygon fill="#191970" stroke="#191970" points="201.4751,-29.5996 207.3291,-20.7689 197.2459,-24.0216 201.4751,-29.5996"/>
</g>
<!-- Node47&#45;&gt;Node8 -->
<g id="edge104" class="edge">
<title>Node47&#45;&gt;Node8</title>
<path fill="none" stroke="#191970" d="M495.864,-321.4711C600.9918,-310.0363 760.3594,-292.0198 788,-285 958.7119,-241.6447 989.3902,-196.0322 1151,-126 1184.4858,-111.4892 1223.3822,-96.4463 1250.6143,-86.2022"/>
<polygon fill="#191970" stroke="#191970" points="1251.95,-89.4395 1260.0878,-82.6551 1249.4954,-82.8839 1251.95,-89.4395"/>
</g>
<!-- Node47&#45;&gt;Node9 -->
<g id="edge99" class="edge">
<title>Node47&#45;&gt;Node9</title>
<path fill="none" stroke="#191970" d="M410.816,-321.2735C418.8148,-311.9284 430.8704,-297.6759 441,-285 496.4371,-215.6274 486.1313,-172.1494 562,-126 596.644,-104.9268 697.2631,-90.2992 772.6992,-81.9344"/>
<polygon fill="#191970" stroke="#191970" points="773.137,-85.4075 782.6994,-80.8456 772.3793,-78.4487 773.137,-85.4075"/>
</g>
<!-- Node47&#45;&gt;Node15 -->
<g id="edge103" class="edge">
<title>Node47&#45;&gt;Node15</title>
<path fill="none" stroke="#191970" d="M498.1095,-321.638C501.1063,-321.4108 504.0754,-321.1972 507,-321 564.0166,-317.1549 1495.305,-326.1094 1535,-285 1576.9628,-241.5419 1493.364,-184.4003 1447.0079,-157.6011"/>
<polygon fill="#191970" stroke="#191970" points="1448.7077,-154.5415 1438.2815,-152.6589 1445.258,-160.6325 1448.7077,-154.5415"/>
</g>
<!-- Node47&#45;&gt;Node28 -->
<g id="edge101" class="edge">
<title>Node47&#45;&gt;Node28</title>
<path fill="none" stroke="#191970" d="M498.1877,-321.805C624.9068,-308.9936 833.8384,-287.7193 851,-285 865.9568,-282.6301 882.3858,-279.222 896.213,-276.1178"/>
<polygon fill="#191970" stroke="#191970" points="897.2471,-279.4717 906.2121,-273.8255 895.6828,-272.6487 897.2471,-279.4717"/>
</g>
<!-- Node47&#45;&gt;Node34 -->
<g id="edge98" class="edge">
<title>Node47&#45;&gt;Node34</title>
<path fill="none" stroke="#191970" d="M447.1551,-321.4478C496.8537,-310.3842 576.7497,-292.5981 630.0474,-280.7333"/>
<polygon fill="#191970" stroke="#191970" points="631.0052,-284.1058 640.0057,-278.5164 629.4841,-277.2731 631.0052,-284.1058"/>
</g>
<!-- Node47&#45;&gt;Node45 -->
<g id="edge100" class="edge">
<title>Node47&#45;&gt;Node45</title>
<path fill="none" stroke="#191970" d="M383.3626,-321.378C367.5898,-312.8117 344.4634,-300.2517 324.7073,-289.5221"/>
<polygon fill="#191970" stroke="#191970" points="326.3639,-286.4389 315.9059,-284.742 323.0231,-292.5903 326.3639,-286.4389"/>
</g>
<!-- Node48&#45;&gt;Node2 -->
<g id="edge106" class="edge">
<title>Node48&#45;&gt;Node2</title>
<path fill="none" stroke="#191970" d="M258.8288,-516.4713C198.063,-508.7188 126.2291,-496.5132 100,-480 60.2773,-454.9916 38,-441.4394 38,-394.5 38,-394.5 38,-394.5 38,-142.5 38,-99.9649 48.7897,-84.7801 81,-57 111.3386,-30.8341 156.8138,-19.3001 187.8615,-14.2761"/>
<polygon fill="#191970" stroke="#191970" points="188.4132,-17.7327 197.795,-12.8101 187.3911,-10.8077 188.4132,-17.7327"/>
</g>
<!-- Node48&#45;&gt;Node4 -->
<g id="edge109" class="edge">
<title>Node48&#45;&gt;Node4</title>
<path fill="none" stroke="#191970" d="M451.052,-524.8623C639.5388,-521.0379 1051.5474,-509.4985 1190,-480 1274.2016,-462.0601 1311.6065,-473.3231 1371,-411 1386.3583,-394.8841 1392.6461,-369.5601 1395.2194,-351.8358"/>
<polygon fill="#191970" stroke="#191970" points="1398.7199,-352.0359 1396.4108,-341.6957 1391.7677,-351.2189 1398.7199,-352.0359"/>
</g>
<!-- Node48&#45;&gt;Node9 -->
<g id="edge112" class="edge">
<title>Node48&#45;&gt;Node9</title>
<path fill="none" stroke="#191970" d="M355.2406,-516.4609C355.3255,-490.345 352.0247,-419.4412 316,-378 288.8154,-346.728 257.4468,-373.0421 230,-342 186.5279,-292.8336 193.2434,-236.6044 244,-195 287.7224,-159.1615 314.3279,-181.9357 366,-159 391.708,-147.589 393.4208,-135.2008 420,-126 483.1645,-104.1346 662.5514,-87.8872 772.7152,-79.6224"/>
<polygon fill="#191970" stroke="#191970" points="773.1113,-83.1027 782.8246,-78.8718 772.5929,-76.1219 773.1113,-83.1027"/>
</g>
<!-- Node48&#45;&gt;Node31 -->
<g id="edge107" class="edge">
<title>Node48&#45;&gt;Node31</title>
<path fill="none" stroke="#191970" d="M451.1756,-523.0871C769.181,-511.2874 1774.1186,-469.6997 1907,-411 1938.2557,-397.1929 1966.3802,-368.4788 1982.5713,-349.6048"/>
<polygon fill="#191970" stroke="#191970" points="1985.4317,-351.6393 1989.1391,-341.7143 1980.0516,-347.1611 1985.4317,-351.6393"/>
</g>
<!-- Node48&#45;&gt;Node36 -->
<g id="edge111" class="edge">
<title>Node48&#45;&gt;Node36</title>
<path fill="none" stroke="#191970" d="M451.2598,-518.4249C599.0519,-506.0269 879.5217,-482.4988 1020.5344,-470.6695"/>
<polygon fill="#191970" stroke="#191970" points="1021.1823,-474.1276 1030.8547,-469.8038 1020.5971,-467.1521 1021.1823,-474.1276"/>
</g>
<!-- Node48&#45;&gt;Node39 -->
<g id="edge108" class="edge">
<title>Node48&#45;&gt;Node39</title>
<path fill="none" stroke="#191970" d="M282.9351,-516.483C240.2484,-508.9086 192.0161,-496.9016 179,-480 163.7368,-460.1805 178.2762,-431.5516 191.216,-412.9837"/>
<polygon fill="#191970" stroke="#191970" points="194.167,-414.8797 197.3021,-404.7594 188.5401,-410.7157 194.167,-414.8797"/>
</g>
<!-- Node48&#45;&gt;Node47 -->
<g id="edge110" class="edge">
<title>Node48&#45;&gt;Node47</title>
<path fill="none" stroke="#191970" d="M357.4607,-516.2905C364.9004,-485.4237 387.2533,-392.6832 397.1705,-351.5372"/>
<polygon fill="#191970" stroke="#191970" points="400.6229,-352.1502 399.5636,-341.6084 393.8178,-350.5099 400.6229,-352.1502"/>
</g>
<!-- Node49 -->
<g id="node49" class="node">
<title>Node49</title>
<g id="a_node49"><a xlink:href="../../d6/d60/RealQuadraticEquation_8hpp.html" target="_top" xlink:title="Acts/Utilities/detail\l/RealQuadraticEquation.hpp">
<polygon fill="none" stroke="#000000" points="142,-126.5 142,-158.5 302,-158.5 302,-126.5 142,-126.5"/>
<text text-anchor="start" x="150" y="-145.5" font-family="FreeSans" font-size="10.00" fill="#000000">Acts/Utilities/detail</text>
<text text-anchor="middle" x="222" y="-133.5" font-family="FreeSans" font-size="10.00" fill="#000000">/RealQuadraticEquation.hpp</text>
</a>
</g>
</g>
<!-- Node48&#45;&gt;Node49 -->
<g id="edge113" class="edge">
<title>Node48&#45;&gt;Node49</title>
<path fill="none" stroke="#191970" d="M279.4579,-516.4217C244.3681,-509.5785 202.9914,-498.3141 169,-480 119.5712,-453.3685 76,-450.6466 76,-394.5 76,-394.5 76,-394.5 76,-268.5 76,-217.6071 127.4733,-182.7289 169.2939,-162.7901"/>
<polygon fill="#191970" stroke="#191970" points="170.9628,-165.8752 178.5905,-158.522 168.0421,-159.5135 170.9628,-165.8752"/>
</g>
<!-- Node50 -->
<g id="node50" class="node">
<title>Node50</title>
<g id="a_node50"><a xlink:href="../../dc/d63/CylinderSurface_8ipp.html" target="_top" xlink:title="Acts/Surfaces/detail\l/CylinderSurface.ipp">
<polygon fill="none" stroke="#000000" points="188,-447.5 188,-479.5 308,-479.5 308,-447.5 188,-447.5"/>
<text text-anchor="start" x="196" y="-466.5" font-family="FreeSans" font-size="10.00" fill="#000000">Acts/Surfaces/detail</text>
<text text-anchor="middle" x="248" y="-454.5" font-family="FreeSans" font-size="10.00" fill="#000000">/CylinderSurface.ipp</text>
</a>
</g>
</g>
<!-- Node48&#45;&gt;Node50 -->
<g id="edge116" class="edge">
<title>Node48&#45;&gt;Node50</title>
<path fill="none" stroke="#191970" d="M337.8086,-516.378C323.5217,-507.966 302.6939,-495.703 284.6922,-485.1038"/>
<polygon fill="#191970" stroke="#191970" points="285.9787,-481.7997 275.5856,-479.742 282.427,-487.8318 285.9787,-481.7997"/>
</g>
<!-- Node49&#45;&gt;Node2 -->
<g id="edge114" class="edge">
<title>Node49&#45;&gt;Node2</title>
<path fill="none" stroke="#191970" d="M222,-126.3142C222,-102.3266 222,-57.3502 222,-31.0622"/>
<polygon fill="#191970" stroke="#191970" points="225.5001,-30.7479 222,-20.748 218.5001,-30.748 225.5001,-30.7479"/>
</g>
<!-- Node49&#45;&gt;Node23 -->
<g id="edge115" class="edge">
<title>Node49&#45;&gt;Node23</title>
<path fill="none" stroke="#191970" d="M247.0488,-126.4966C264.6659,-115.2412 288.1197,-100.2569 305.5927,-89.0935"/>
<polygon fill="#191970" stroke="#191970" points="307.5797,-91.9775 314.1223,-83.6441 303.8109,-86.0786 307.5797,-91.9775"/>
</g>
</g>
</svg>
