<?xml version="1.0" encoding="UTF-8" standalone="no"?>
<!DOCTYPE svg PUBLIC "-//W3C//DTD SVG 1.1//EN"
 "http://www.w3.org/Graphics/SVG/1.1/DTD/svg11.dtd">
<!-- Generated by graphviz version 2.40.1 (20161225.0304)
 -->
<!-- Title: TpcSpaceChargeReconstruction::get_cell Pages: 1 -->
<svg width="539pt" height="197pt"
 viewBox="0.00 0.00 539.00 197.00" xmlns="http://www.w3.org/2000/svg" xmlns:xlink="http://www.w3.org/1999/xlink">
<g id="graph0" class="graph" transform="scale(1 1) rotate(0) translate(4 193)">
<title>TpcSpaceChargeReconstruction::get_cell</title>
<!-- Node1 -->
<g id="node1" class="node">
<title>Node1</title>
<polygon fill="#bfbfbf" stroke="#000000" points="0,-72.5 0,-104.5 178,-104.5 178,-72.5 0,-72.5"/>
<text text-anchor="start" x="8" y="-91.5" font-family="FreeSans" font-size="10.00" fill="#000000">TpcSpaceChargeReconstruction</text>
<text text-anchor="middle" x="89" y="-79.5" font-family="FreeSans" font-size="10.00" fill="#000000">::get_cell</text>
</g>
<!-- Node2 -->
<g id="node2" class="node">
<title>Node2</title>
<g id="a_node2"><a xlink:href="../../d3/d27/classTpcSpaceChargeReconstruction.html#a991e09778b2feb927f563cf0ca77d9b6" target="_top" xlink:title="get cell from phi, r and z index">
<polygon fill="none" stroke="#000000" points="214,-156.5 214,-188.5 392,-188.5 392,-156.5 214,-156.5"/>
<text text-anchor="start" x="222" y="-175.5" font-family="FreeSans" font-size="10.00" fill="#000000">TpcSpaceChargeReconstruction</text>
<text text-anchor="middle" x="303" y="-163.5" font-family="FreeSans" font-size="10.00" fill="#000000">::get_cell</text>
</a>
</g>
</g>
<!-- Node1&#45;&gt;Node2 -->
<g id="edge1" class="edge">
<title>Node1&#45;&gt;Node2</title>
<path fill="none" stroke="#191970" d="M119.2059,-104.5078C144.1486,-117.2964 180.7285,-135.0744 214,-147.5 219.4902,-149.5504 225.2249,-151.5244 231.0227,-153.4023"/>
<polygon fill="#191970" stroke="#191970" points="230.2185,-156.818 240.8076,-156.4682 232.3115,-150.1383 230.2185,-156.818"/>
</g>
<!-- Node3 -->
<g id="node3" class="node">
<title>Node3</title>
<g id="a_node3"><a xlink:href="../../d8/d2b/namespaceQAG4Util.html#a61d46189a0883ae4af122eb5ef596946" target="_top" xlink:title="radius">
<polygon fill="none" stroke="#000000" points="255.5,-117.5 255.5,-137.5 350.5,-137.5 350.5,-117.5 255.5,-117.5"/>
<text text-anchor="middle" x="303" y="-124.5" font-family="FreeSans" font-size="10.00" fill="#000000">QAG4Util::get_r</text>
</a>
</g>
</g>
<!-- Node1&#45;&gt;Node3 -->
<g id="edge2" class="edge">
<title>Node1&#45;&gt;Node3</title>
<path fill="none" stroke="#191970" d="M176.9684,-104.5316C200.0517,-108.7384 224.3561,-113.1677 245.3959,-117.0021"/>
<polygon fill="#191970" stroke="#191970" points="244.9771,-120.4833 255.4426,-118.833 246.2322,-113.5967 244.9771,-120.4833"/>
</g>
<!-- Node5 -->
<g id="node5" class="node">
<title>Node5</title>
<g id="a_node5"><a xlink:href="../../d6/dfa/classTrkrCluster.html#a7be7cdba7b854678e0519288b8021b2a" target="_top" xlink:title="TrkrCluster::getX">
<polygon fill="none" stroke="#000000" points="252,-78.5 252,-98.5 354,-98.5 354,-78.5 252,-78.5"/>
<text text-anchor="middle" x="303" y="-85.5" font-family="FreeSans" font-size="10.00" fill="#000000">TrkrCluster::getX</text>
</a>
</g>
</g>
<!-- Node1&#45;&gt;Node5 -->
<g id="edge4" class="edge">
<title>Node1&#45;&gt;Node5</title>
<path fill="none" stroke="#191970" d="M178.2057,-88.5C199.5937,-88.5 221.9576,-88.5 241.749,-88.5"/>
<polygon fill="#191970" stroke="#191970" points="241.8453,-92.0001 251.8453,-88.5 241.8452,-85.0001 241.8453,-92.0001"/>
</g>
<!-- Node6 -->
<g id="node6" class="node">
<title>Node6</title>
<g id="a_node6"><a xlink:href="../../d6/dfa/classTrkrCluster.html#a526ac89c45b903df8890bd8b4d476e5c" target="_top" xlink:title="TrkrCluster::getY">
<polygon fill="none" stroke="#000000" points="252.5,-39.5 252.5,-59.5 353.5,-59.5 353.5,-39.5 252.5,-39.5"/>
<text text-anchor="middle" x="303" y="-46.5" font-family="FreeSans" font-size="10.00" fill="#000000">TrkrCluster::getY</text>
</a>
</g>
</g>
<!-- Node1&#45;&gt;Node6 -->
<g id="edge5" class="edge">
<title>Node1&#45;&gt;Node6</title>
<path fill="none" stroke="#191970" d="M176.9684,-72.4684C198.9606,-68.4604 222.0611,-64.2505 242.3909,-60.5456"/>
<polygon fill="#191970" stroke="#191970" points="243.2286,-63.9506 252.4391,-58.7144 241.9736,-57.0641 243.2286,-63.9506"/>
</g>
<!-- Node7 -->
<g id="node7" class="node">
<title>Node7</title>
<g id="a_node7"><a xlink:href="../../d6/dfa/classTrkrCluster.html#a7d92784527cb537e382ffa0460e0f728" target="_top" xlink:title="TrkrCluster::getZ">
<polygon fill="none" stroke="#000000" points="252,-.5 252,-20.5 354,-20.5 354,-.5 252,-.5"/>
<text text-anchor="middle" x="303" y="-7.5" font-family="FreeSans" font-size="10.00" fill="#000000">TrkrCluster::getZ</text>
</a>
</g>
</g>
<!-- Node1&#45;&gt;Node7 -->
<g id="edge6" class="edge">
<title>Node1&#45;&gt;Node7</title>
<path fill="none" stroke="#191970" d="M119.0719,-72.3272C143.9369,-59.5021 180.4776,-41.8977 214,-30.5 222.9025,-27.4731 232.4631,-24.7744 241.8975,-22.4145"/>
<polygon fill="#191970" stroke="#191970" points="242.741,-25.8116 251.6506,-20.0784 241.1104,-19.0041 242.741,-25.8116"/>
</g>
<!-- Node4 -->
<g id="node4" class="node">
<title>Node4</title>
<g id="a_node4"><a xlink:href="../../d8/d2b/namespaceQAG4Util.html#acb654c77dcfa7a61ba444f92481283c1" target="_top" xlink:title="square">
<polygon fill="none" stroke="#000000" points="428,-117.5 428,-137.5 531,-137.5 531,-117.5 428,-117.5"/>
<text text-anchor="middle" x="479.5" y="-124.5" font-family="FreeSans" font-size="10.00" fill="#000000">QAG4Util::square</text>
</a>
</g>
</g>
<!-- Node3&#45;&gt;Node4 -->
<g id="edge3" class="edge">
<title>Node3&#45;&gt;Node4</title>
<path fill="none" stroke="#191970" d="M350.7634,-127.5C371.3869,-127.5 395.7765,-127.5 417.7501,-127.5"/>
<polygon fill="#191970" stroke="#191970" points="417.9837,-131.0001 427.9837,-127.5 417.9837,-124.0001 417.9837,-131.0001"/>
</g>
</g>
</svg>
